<?xml version="1.0" encoding="UTF-8" standalone="no"?>
<!DOCTYPE svg PUBLIC "-//W3C//DTD SVG 1.1//EN" "http://www.w3.org/Graphics/SVG/1.1/DTD/svg11.dtd" >
<svg xmlns="http://www.w3.org/2000/svg" xmlns:xlink="http://www.w3.org/1999/xlink" version="1.1" viewBox="0 0 256 256">
 <g >
 <path fill="currentColor"
d=" M 215.12 244.12 C 218.38 240.87 230.00 199.48 230.00 191.15 C 230.00 185.67 227.58 177.72 225.34 175.87 C 221.51 172.69 210.75 175.19 204.95 180.61 C 202.69 182.72 199.28 183.49 175.95 187.13 C 156.68 190.15 146.20 191.30 137.34 191.38 C 130.65 191.45 124.98 191.28 124.74 191.00 C 124.51 190.72 124.52 186.18 124.77 180.90 C 125.23 171.29 125.23 171.29 134.86 170.11 C 146.82 168.65 164.62 164.71 175.92 161.03 C 184.79 158.14 188.39 158.26 189.63 161.48 C 189.96 162.34 191.44 163.00 193.02 163.00 C 195.59 163.00 196.26 162.12 200.88 152.75 C 208.57 137.13 211.77 122.79 209.12 115.82 C 207.19 110.75 203.27 108.19 196.30 107.44 C 190.60 106.83 189.59 106.97 188.73 108.51 C 188.19 109.48 187.65 116.18 187.53 123.39 C 187.30 137.19 185.60 149.27 183.65 150.86 C 182.15 152.09 167.93 156.37 156.50 159.03 C 142.21 162.37 128.00 163.94 106.50 164.59 C 89.62 165.10 63.73 164.07 62.51 162.84 C 62.31 162.64 62.78 159.79 63.56 156.49 C 65.66 147.56 65.36 140.99 62.49 133.37 C 59.38 125.12 56.73 120.60 52.14 115.75 C 49.08 112.51 47.99 112.00 44.16 112.00 C 39.73 112.00 39.73 112.00 40.43 121.75 C 41.50 136.64 46.86 158.86 51.65 168.25 C 53.27 171.44 56.16 171.82 58.13 169.11 C 59.43 167.32 59.94 167.30 68.00 168.62 C 72.67 169.38 84.95 170.30 95.27 170.65 C 116.99 171.40 115.57 170.07 108.77 183.25 C 104.78 191.00 104.78 191.00 81.78 191.00 C 58.79 191.00 58.79 191.00 56.82 188.50 C 54.17 185.12 47.33 181.28 42.75 180.57 C 40.69 180.26 37.42 179.75 35.50 179.45 C 32.00 178.91 32.00 178.91 32.00 183.82 C 32.00 202.87 46.34 245.14 52.74 244.95 C 55.45 244.86 59.76 234.77 60.96 225.68 C 61.53 221.38 62.00 213.09 62.00 207.27 C 62.00 196.69 62.00 196.69 75.66 197.34 C 83.17 197.71 91.72 198.00 94.66 198.00 C 98.30 198.00 100.00 198.40 100.00 199.26 C 100.00 199.96 97.28 205.88 93.95 212.43 C 90.63 218.98 88.04 225.27 88.20 226.42 C 88.49 228.44 89.08 228.51 109.36 228.77 C 126.89 229.00 131.91 228.72 140.86 227.02 C 146.71 225.91 151.74 225.00 152.02 225.00 C 152.31 225.00 153.36 226.52 154.37 228.38 C 158.65 236.33 168.63 235.48 173.10 226.79 C 177.07 219.05 175.27 215.90 162.32 207.93 C 154.02 202.82 153.12 202.50 147.00 202.50 C 140.95 202.50 140.48 202.66 140.17 204.83 C 139.99 206.12 140.50 207.92 141.30 208.83 C 143.79 211.67 146.21 217.19 145.34 218.01 C 142.45 220.70 117.95 223.72 108.57 222.55 C 101.96 221.73 101.56 223.15 112.80 207.34 C 119.31 198.17 119.31 198.17 129.90 197.54 C 145.92 196.59 161.58 195.22 181.50 193.02 C 191.40 191.93 199.89 191.03 200.38 191.02 C 200.86 191.01 201.02 197.37 200.74 205.25 C 200.35 216.22 199.68 221.33 197.86 227.43 C 195.36 235.84 194.19 236.91 187.01 237.35 C 183.77 237.55 183.39 239.95 186.06 243.35 C 188.19 246.06 188.19 246.06 201.35 245.41 C 208.58 245.05 214.78 244.47 215.12 244.12 Z  M 104.50 156.19 C 110.43 153.30 118.92 148.57 123.39 145.66 C 131.50 140.37 131.50 140.37 137.00 143.69 C 142.76 147.17 155.19 152.29 160.75 153.47 C 163.95 154.15 164.00 154.11 164.00 150.47 C 164.00 144.70 160.64 139.82 154.17 136.21 C 144.93 131.04 145.31 131.66 148.70 127.34 C 150.35 125.23 153.41 120.92 155.49 117.76 C 158.68 112.92 159.17 111.46 158.68 108.39 C 158.35 106.39 157.32 103.90 156.38 102.87 C 155.45 101.83 154.86 100.84 155.09 100.65 C 155.32 100.46 161.78 99.29 169.47 98.04 C 177.15 96.79 184.05 95.53 184.81 95.24 C 185.72 94.89 186.05 93.58 185.79 91.36 C 185.58 89.51 185.65 88.00 185.95 88.00 C 186.25 88.00 190.03 88.68 194.34 89.50 C 198.65 90.33 206.38 91.00 211.51 91.00 C 220.84 91.00 220.84 91.00 228.73 85.57 C 236.77 80.03 239.00 77.10 239.00 72.09 C 239.00 69.27 239.00 69.27 229.35 68.57 C 224.04 68.18 215.59 66.82 210.58 65.54 C 193.22 61.14 155.18 45.71 136.27 35.41 C 128.89 31.38 127.90 30.53 128.46 28.65 C 128.82 27.47 129.63 23.68 130.26 20.24 C 131.35 14.29 131.28 13.72 128.70 8.47 C 125.78 2.51 121.60 -0.59 119.99 2.01 C 119.52 2.78 119.34 3.75 119.60 4.16 C 120.09 4.95 110.00 20.18 102.15 30.50 C 88.62 48.29 51.28 81.56 40.50 85.44 C 37.75 86.43 30.66 89.50 24.75 92.27 C 14.79 96.94 14.00 97.52 14.00 100.16 C 14.00 102.67 14.36 103.00 17.09 103.00 C 22.03 103.00 39.32 99.20 47.23 96.38 C 60.55 91.63 72.39 85.22 83.88 76.55 C 98.96 65.17 105.02 59.51 113.84 48.60 C 117.88 43.59 121.54 39.13 121.96 38.69 C 122.38 38.24 125.97 41.94 129.93 46.91 C 140.56 60.24 150.30 68.67 166.60 78.67 C 168.43 79.79 168.41 79.90 166.14 81.55 C 164.12 83.02 163.84 83.91 164.25 87.50 C 164.72 91.72 164.72 91.72 155.50 93.37 C 143.01 95.60 125.95 96.72 84.50 98.02 C 65.25 98.63 48.71 99.35 47.75 99.63 C 45.13 100.39 45.64 101.77 48.75 102.38 C 54.89 103.57 107.73 104.09 125.47 103.13 C 135.90 102.56 144.62 102.29 144.86 102.52 C 145.41 103.07 130.32 118.60 126.75 121.16 C 124.00 123.14 124.00 123.14 114.75 119.68 C 102.67 115.17 81.19 108.77 79.73 109.26 C 79.11 109.46 86.41 114.34 95.97 120.08 C 105.52 125.82 113.51 131.02 113.71 131.62 C 114.32 133.45 97.24 147.10 91.72 149.20 C 76.95 154.81 74.41 162.60 87.61 161.79 C 92.49 161.50 95.91 160.36 104.50 156.19 Z  M 134.10 92.86 C 139.00 91.22 142.00 88.15 142.00 84.78 C 142.00 75.71 130.96 67.92 116.18 66.55 C 107.71 65.76 106.00 66.59 106.00 71.53 C 106.00 74.14 107.53 76.65 113.47 83.83 C 117.90 89.19 121.86 93.03 123.22 93.29 C 127.55 94.12 130.71 94.00 134.10 92.86 Z  M 52.53 221.09 C 51.83 218.88 53.46 215.00 55.10 215.00 C 56.50 215.00 55.79 222.25 54.33 222.73 C 53.69 222.94 52.88 222.20 52.53 221.09 Z  M 46.61 202.42 C 45.66 199.94 45.90 196.00 47.00 196.00 C 47.55 196.00 48.00 197.09 48.00 198.42 C 48.00 199.75 48.27 201.55 48.61 202.42 C 48.94 203.29 48.76 204.00 48.21 204.00 C 47.66 204.00 46.94 203.29 46.61 202.42 Z  M 208.24 187.58 C 208.41 184.45 209.01 182.49 209.89 182.20 C 210.99 181.84 211.12 182.54 210.54 185.62 C 209.35 191.99 207.95 193.18 208.24 187.58 Z  M 37.17 186.90 C 35.47 184.17 36.12 183.64 39.36 185.12 C 41.40 186.05 41.74 186.61 40.87 187.66 C 39.35 189.49 38.70 189.35 37.17 186.90 Z  M 201.69 130.63 C 200.66 127.96 200.85 115.79 201.91 116.44 C 203.27 117.29 204.16 126.10 203.21 129.46 C 202.52 131.91 202.26 132.11 201.69 130.63 Z  M 172.07 88.59 C 170.23 86.37 172.68 85.56 175.54 87.44 C 176.89 88.32 178.00 89.26 178.00 89.52 C 178.00 90.64 173.14 89.88 172.07 88.59 Z  M 121.18 11.47 C 121.36 10.08 121.95 8.94 122.50 8.94 C 123.05 8.94 123.64 10.08 123.82 11.47 C 124.04 13.27 123.66 14.00 122.50 14.00 C 121.34 14.00 120.96 13.27 121.18 11.47 Z "/>
</g>
</svg>