<?xml version="1.0" encoding="UTF-8" standalone="no"?>
<!DOCTYPE svg PUBLIC "-//W3C//DTD SVG 1.1//EN" "http://www.w3.org/Graphics/SVG/1.1/DTD/svg11.dtd" >
<svg xmlns="http://www.w3.org/2000/svg" xmlns:xlink="http://www.w3.org/1999/xlink" version="1.1" viewBox="0 0 256 256">
 <g >
 <path fill="currentColor"
d=" M 211.64 237.00 C 217.73 234.01 225.00 227.27 225.00 224.62 C 225.00 222.51 223.14 221.47 215.00 219.04 C 199.84 214.52 172.77 203.83 165.24 199.39 C 157.28 194.69 142.00 184.05 142.00 183.20 C 142.00 182.94 144.87 178.85 148.38 174.11 C 155.56 164.44 161.43 155.06 166.07 145.86 C 169.70 138.67 174.00 122.70 174.00 116.42 C 174.00 110.90 169.73 99.03 166.93 96.75 C 164.26 94.58 160.64 94.50 158.57 96.57 C 156.37 98.77 156.61 100.00 159.25 100.02 C 162.03 100.03 163.40 100.91 164.72 103.50 C 166.75 107.50 164.19 109.39 160.84 106.35 C 159.11 104.79 158.86 105.07 155.81 112.10 C 149.94 125.67 141.92 140.37 133.41 153.19 C 128.78 160.18 124.63 166.11 124.18 166.39 C 123.73 166.67 113.72 157.66 101.93 146.38 C 81.92 127.23 76.58 123.00 72.39 123.00 C 70.97 123.00 70.81 123.76 71.31 128.00 C 72.09 134.55 74.63 140.05 80.56 148.00 C 95.11 167.52 99.35 173.05 103.94 178.46 C 106.72 181.73 109.00 184.80 109.00 185.27 C 109.00 187.50 86.10 215.71 77.60 223.96 C 70.30 231.03 71.66 234.08 81.21 232.07 C 90.18 230.17 96.34 226.37 111.19 213.59 C 125.50 201.28 125.50 201.28 131.76 207.12 C 145.40 219.84 154.78 225.58 175.99 234.23 C 191.73 240.64 192.80 240.93 199.00 240.49 C 203.51 240.17 207.38 239.10 211.64 237.00 Z  M 88.79 108.21 C 90.13 106.87 90.91 103.38 91.88 94.38 C 92.59 87.76 93.50 81.80 93.91 81.15 C 94.45 80.28 100.09 80.03 115.07 80.23 C 135.50 80.50 135.50 80.50 135.75 89.50 C 135.89 94.45 136.21 99.44 136.48 100.58 C 137.40 104.61 145.41 106.43 148.26 103.25 C 149.12 102.29 151.79 97.00 154.19 91.50 C 158.55 81.50 158.55 81.50 176.18 80.29 C 189.42 79.38 195.51 78.50 200.65 76.79 C 207.50 74.50 207.50 74.50 207.80 70.34 C 208.42 61.83 198.04 55.30 188.12 57.97 C 182.97 59.35 180.22 62.26 178.83 67.77 C 177.74 72.07 177.74 72.07 169.12 71.79 C 160.50 71.50 160.50 71.50 160.00 60.50 C 159.57 51.04 159.17 49.04 157.16 46.22 C 154.77 42.87 146.52 38.00 143.23 38.00 C 139.21 38.00 137.44 42.64 141.25 43.18 C 143.06 43.44 143.56 44.24 143.81 47.25 C 144.14 51.18 142.37 52.58 141.82 48.83 C 141.41 46.03 139.49 45.40 138.41 47.71 C 137.95 48.69 137.33 54.45 137.04 60.50 C 136.50 71.50 136.50 71.50 115.05 71.50 C 93.60 71.50 93.60 71.50 92.05 65.38 C 90.31 58.53 85.21 51.49 79.00 47.38 C 75.87 45.31 74.26 44.94 69.37 45.20 C 63.50 45.50 63.50 45.50 63.21 52.03 C 63.02 56.39 63.56 60.62 64.85 64.75 C 66.34 69.54 66.50 71.17 65.56 71.95 C 64.89 72.50 56.84 73.07 47.43 73.23 C 33.52 73.45 30.50 73.76 30.50 74.93 C 30.50 77.16 38.39 78.69 53.97 79.50 C 61.70 79.90 68.30 80.68 68.65 81.24 C 68.99 81.80 70.54 86.46 72.08 91.60 C 73.62 96.74 76.08 102.99 77.54 105.48 C 79.86 109.44 80.61 110.00 83.60 110.00 C 85.53 110.00 87.77 109.23 88.79 108.21 Z  M 143.18 167.50 C 143.35 166.95 147.15 159.30 151.60 150.50 C 156.06 141.70 160.75 131.92 162.03 128.76 C 163.31 125.61 164.54 123.20 164.76 123.42 C 165.42 124.09 160.91 139.23 158.77 143.50 C 154.39 152.25 141.88 171.51 143.18 167.50 Z  M 91.20 149.30 C 88.91 146.18 87.28 143.39 87.58 143.09 C 88.26 142.40 94.72 149.88 95.56 152.33 C 96.79 155.91 95.30 154.88 91.20 149.30 Z  M 83.63 68.88 C 82.73 67.60 82.00 65.01 82.00 63.11 C 82.00 59.12 82.64 59.48 85.05 64.86 C 87.13 69.52 86.11 72.42 83.63 68.88 Z  M 186.00 66.57 C 186.00 64.43 192.83 62.58 196.00 63.86 C 198.44 64.85 198.42 64.87 195.20 64.94 C 193.39 64.97 190.57 65.69 188.95 66.53 C 186.36 67.87 186.00 67.87 186.00 66.57 Z  M 71.20 63.25 C 69.43 57.30 68.65 51.00 69.67 51.00 C 70.19 51.00 71.27 54.60 72.09 59.00 C 73.63 67.34 73.13 69.73 71.20 63.25 Z "/>
</g>
</svg>