<?xml version="1.0" encoding="UTF-8" standalone="no"?>
<!DOCTYPE svg PUBLIC "-//W3C//DTD SVG 1.1//EN" "http://www.w3.org/Graphics/SVG/1.1/DTD/svg11.dtd" >
<svg xmlns="http://www.w3.org/2000/svg" xmlns:xlink="http://www.w3.org/1999/xlink" version="1.1" viewBox="0 0 256 256">
 <g >
 <path fill="currentColor"
d=" M 49.78 247.45 C 57.83 244.08 63.00 236.31 63.69 226.53 C 63.93 223.21 64.94 203.28 65.96 182.22 C 67.79 143.95 67.79 143.95 71.67 139.72 C 81.47 129.03 99.00 104.37 99.00 101.28 C 99.00 100.48 92.14 106.35 83.76 114.34 C 75.38 122.32 68.36 128.69 68.16 128.49 C 67.74 128.07 69.78 90.52 70.56 84.38 C 71.08 80.25 71.08 80.25 87.04 79.53 C 96.50 79.10 103.27 78.37 103.66 77.74 C 104.61 76.21 100.09 72.92 92.46 69.60 C 85.87 66.73 85.87 66.73 83.18 69.96 C 81.01 72.55 79.52 73.30 75.61 73.74 C 70.73 74.29 70.73 74.29 71.39 54.90 C 72.34 26.58 72.65 24.30 75.59 23.57 C 78.31 22.88 78.81 20.52 76.42 19.61 C 75.55 19.27 71.31 19.00 66.99 19.00 C 59.14 19.00 59.14 19.00 58.59 24.25 C 58.28 27.14 57.52 39.40 56.91 51.50 C 56.30 63.60 55.62 73.79 55.40 74.14 C 55.19 74.49 46.68 75.11 36.49 75.51 C 26.30 75.92 17.74 76.62 17.45 77.08 C 17.17 77.53 17.20 78.94 17.51 80.20 C 18.09 82.50 18.09 82.50 36.58 81.62 C 46.75 81.13 55.23 80.91 55.42 81.12 C 56.28 82.05 52.73 141.61 51.74 142.80 C 49.64 145.35 29.59 159.27 20.86 164.24 C 15.99 167.02 12.00 169.47 12.00 169.68 C 12.00 171.21 16.35 178.01 18.84 180.37 C 21.86 183.24 21.86 183.24 29.12 178.42 C 33.11 175.76 39.71 170.95 43.78 167.72 C 47.84 164.48 51.31 161.99 51.48 162.17 C 51.65 162.35 51.13 175.55 50.34 191.50 C 48.76 223.39 47.84 228.33 43.14 230.16 C 41.58 230.77 34.87 231.02 26.70 230.78 C 14.49 230.41 10.58 230.92 12.32 232.65 C 12.60 232.94 16.93 234.21 21.94 235.49 C 32.68 238.22 36.00 240.10 36.00 243.47 C 36.00 248.46 42.71 250.40 49.78 247.45 Z  M 112.95 245.92 C 118.00 244.83 118.00 244.83 118.00 238.53 C 118.00 231.48 113.04 232.19 175.25 230.40 C 197.00 229.78 197.00 229.78 197.00 235.50 C 197.00 241.23 197.00 241.23 203.95 240.83 C 207.77 240.62 211.18 240.16 211.52 239.81 C 211.87 239.47 212.80 212.26 213.60 179.34 C 214.89 126.06 215.27 118.65 217.02 111.72 C 218.11 107.45 219.00 103.75 219.00 103.51 C 219.00 102.92 206.17 99.00 204.22 99.00 C 203.36 99.00 201.85 99.73 200.86 100.63 C 198.27 102.97 133.13 106.69 118.50 105.33 C 113.00 104.82 108.26 104.74 107.97 105.15 C 107.17 106.29 101.65 243.65 102.34 245.44 C 103.04 247.27 106.00 247.41 112.95 245.92 Z  M 139.05 91.87 C 141.49 91.13 143.04 89.98 143.40 88.62 C 143.72 87.45 143.98 79.67 143.99 71.33 C 144.00 53.44 141.42 55.44 165.88 54.43 C 182.25 53.76 182.25 53.76 181.88 70.63 C 181.50 87.50 181.50 87.50 188.67 87.50 C 192.61 87.50 196.13 87.21 196.48 86.85 C 196.84 86.50 197.39 78.75 197.72 69.65 C 198.41 50.10 195.42 52.41 221.25 51.45 C 237.66 50.83 239.00 50.64 239.00 48.92 C 239.00 47.56 236.65 45.94 230.38 42.94 C 221.77 38.83 221.77 38.83 218.42 42.08 C 215.42 44.98 214.26 45.39 207.29 46.01 C 203.00 46.39 199.20 46.43 198.82 46.10 C 198.45 45.77 198.41 39.05 198.72 31.16 C 199.28 17.34 199.39 16.78 201.65 15.75 C 204.35 14.52 204.73 12.49 202.42 11.61 C 201.55 11.27 197.10 11.00 192.52 11.00 C 184.21 11.00 184.21 11.00 183.56 25.75 C 182.48 50.22 184.42 47.69 166.18 48.45 C 157.56 48.81 149.22 49.19 147.65 49.30 C 144.80 49.50 144.80 49.50 144.95 36.03 C 145.10 22.56 145.10 22.56 148.30 19.88 C 150.06 18.40 151.15 16.83 150.71 16.39 C 150.28 15.95 145.72 15.41 140.59 15.18 C 131.25 14.77 131.25 14.77 130.52 32.39 C 130.11 42.09 129.49 50.20 129.13 50.42 C 128.78 50.64 120.77 51.14 111.33 51.54 C 101.90 51.94 93.67 52.58 93.05 52.97 C 91.17 54.13 93.61 59.25 95.75 58.64 C 96.71 58.37 104.59 57.84 113.25 57.47 C 129.00 56.79 129.00 56.79 129.00 74.89 C 129.00 93.00 129.00 93.00 132.13 93.00 C 133.86 93.00 136.97 92.49 139.05 91.87 Z  M 118.48 198.91 C 118.87 183.83 119.49 171.22 119.85 170.88 C 120.21 170.54 127.64 169.98 136.37 169.64 C 152.23 169.02 152.23 169.02 151.57 194.26 C 151.20 208.14 150.66 220.74 150.37 222.25 C 149.88 224.78 149.47 225.00 145.17 225.00 C 142.60 225.01 135.38 225.30 129.13 225.66 C 117.75 226.32 117.75 226.32 118.48 198.91 Z  M 165.35 221.38 C 165.66 219.24 166.21 206.43 166.56 192.90 C 167.22 168.29 167.22 168.29 182.85 167.72 C 191.45 167.41 198.66 167.33 198.87 167.54 C 199.34 168.01 197.35 222.99 196.85 223.46 C 196.66 223.64 189.36 224.12 180.64 224.52 C 164.78 225.25 164.78 225.25 165.35 221.38 Z  M 121.48 138.91 C 121.88 124.93 122.49 113.21 122.85 112.86 C 123.21 112.50 130.40 111.83 138.82 111.36 C 154.15 110.50 154.15 110.50 153.82 136.17 C 153.65 150.29 153.20 162.14 152.83 162.50 C 152.47 162.87 145.10 163.42 136.46 163.74 C 120.76 164.31 120.76 164.31 121.48 138.91 Z  M 167.81 137.35 C 168.03 123.13 168.49 111.21 168.85 110.86 C 169.21 110.50 176.36 109.83 184.75 109.36 C 200.00 108.50 200.00 108.50 200.00 123.50 C 199.99 131.75 199.70 143.53 199.35 149.69 C 198.60 162.66 200.48 161.44 179.46 162.56 C 167.43 163.20 167.43 163.20 167.81 137.35 Z "/>
</g>
</svg>