<?xml version="1.0" encoding="UTF-8" standalone="no"?>
<!DOCTYPE svg PUBLIC "-//W3C//DTD SVG 1.1//EN" "http://www.w3.org/Graphics/SVG/1.1/DTD/svg11.dtd" >
<svg xmlns="http://www.w3.org/2000/svg" xmlns:xlink="http://www.w3.org/1999/xlink" version="1.1" viewBox="0 0 256 256">
 <g >
 <path fill="currentColor"
d=" M 227.96 241.53 C 230.83 238.94 231.25 234.41 229.02 230.05 C 227.07 226.22 227.07 226.22 230.52 206.48 C 233.68 188.35 234.09 182.31 231.88 186.25 C 231.42 187.07 229.44 193.03 227.49 199.47 C 223.87 211.40 219.68 221.00 218.09 221.00 C 216.35 221.00 211.19 214.09 208.26 207.85 C 202.02 194.52 196.20 172.84 193.54 153.00 C 191.89 140.74 189.33 86.20 190.28 83.72 C 190.74 82.52 194.80 82.11 212.42 81.51 C 231.69 80.86 234.00 80.60 234.00 79.10 C 234.00 77.97 231.05 75.97 225.12 73.06 C 216.24 68.70 216.24 68.70 213.24 72.06 C 210.27 75.39 210.13 75.42 200.12 75.83 C 190.00 76.23 190.00 76.23 190.01 58.37 C 190.01 48.54 190.30 36.07 190.66 30.66 C 191.26 21.61 191.50 20.73 193.66 19.75 C 194.95 19.16 196.00 17.85 196.00 16.84 C 196.00 15.19 195.08 15.00 187.16 15.00 C 178.31 15.00 178.31 15.00 177.66 29.25 C 177.30 37.09 177.01 51.18 177.00 60.56 C 177.00 77.62 177.00 77.62 140.75 79.33 C 120.81 80.28 102.59 81.04 100.25 81.02 C 96.19 81.00 96.00 81.13 96.00 84.00 C 96.00 87.00 96.00 87.00 102.75 86.98 C 106.46 86.97 122.10 86.30 137.50 85.50 C 152.90 84.69 168.04 84.02 171.14 84.01 C 176.78 84.00 176.78 84.00 177.45 105.75 C 178.91 152.97 181.10 173.88 187.00 197.01 C 194.68 227.07 208.37 245.13 222.33 243.59 C 224.43 243.36 226.97 242.43 227.96 241.53 Z  M 28.46 223.50 C 39.25 210.23 46.32 199.18 54.03 183.56 C 60.69 170.06 60.94 169.71 61.99 172.48 C 62.59 174.05 65.47 182.92 68.39 192.18 C 71.30 201.45 73.92 209.26 74.21 209.54 C 75.13 210.47 85.00 200.87 85.60 198.45 C 85.93 197.16 85.41 193.71 84.46 190.80 C 81.85 182.82 73.28 161.48 70.39 155.78 C 67.84 150.74 67.84 150.74 71.42 137.04 C 75.56 121.22 79.34 99.71 81.02 82.50 C 81.66 75.90 82.53 69.83 82.95 69.00 C 83.52 67.88 86.81 67.25 95.88 66.50 C 102.57 65.95 108.12 65.05 108.22 64.50 C 108.31 63.95 104.44 61.53 99.62 59.13 C 90.85 54.76 90.85 54.76 87.37 58.13 C 83.89 61.49 83.89 61.49 50.70 63.12 C 32.44 64.02 17.41 64.81 17.30 64.88 C 17.19 64.94 17.54 66.24 18.06 67.75 C 19.02 70.50 19.02 70.50 44.02 69.10 C 57.78 68.33 69.20 67.88 69.41 68.10 C 70.50 69.23 64.75 107.37 60.86 124.89 C 58.77 134.28 58.77 134.28 54.14 126.32 C 45.76 111.94 30.52 89.03 29.32 89.02 C 28.67 89.01 30.81 94.62 34.07 101.48 C 40.56 115.15 45.30 126.24 51.12 141.39 C 54.92 151.29 54.92 151.29 50.48 163.17 C 40.87 188.84 30.22 209.51 15.42 231.19 C 10.94 237.74 8.58 242.05 9.31 242.32 C 10.93 242.92 19.61 234.40 28.46 223.50 Z  M 98.50 232.92 C 113.83 229.50 138.23 222.66 150.00 218.47 C 163.35 213.73 179.12 205.83 178.73 204.07 C 178.54 203.21 177.73 202.66 176.94 202.86 C 176.15 203.06 170.55 204.46 164.50 205.98 C 158.45 207.50 151.70 209.01 149.50 209.34 C 144.98 210.02 145.23 213.43 146.82 172.00 C 147.50 154.50 147.50 154.50 159.00 153.88 C 165.32 153.54 171.51 153.20 172.75 153.13 C 177.50 152.85 174.73 150.12 165.80 146.28 C 156.60 142.33 156.60 142.33 154.21 145.16 C 151.46 148.43 146.52 149.22 147.36 146.25 C 147.63 145.29 148.16 134.24 148.54 121.70 C 149.22 99.12 149.25 98.88 151.61 97.33 C 152.93 96.47 154.00 94.90 154.00 93.85 C 154.00 92.07 153.31 91.95 144.75 92.21 C 135.50 92.50 135.50 92.50 133.50 152.17 C 132.40 184.99 131.15 212.19 130.72 212.62 C 129.88 213.45 112.77 216.01 112.10 215.40 C 111.60 214.94 113.96 131.29 114.55 128.35 C 114.82 127.05 116.21 125.77 118.07 125.12 C 120.21 124.38 121.05 123.51 120.82 122.27 C 120.53 120.78 119.20 120.45 112.27 120.21 C 104.41 119.93 104.04 120.02 103.59 122.21 C 103.34 123.47 102.14 145.43 100.93 171.00 C 99.72 196.57 98.65 217.61 98.55 217.73 C 98.45 217.86 94.79 218.43 90.43 219.00 C 74.39 221.08 75.66 220.45 76.32 226.02 C 77.15 233.03 79.48 237.15 82.28 236.53 C 83.50 236.26 90.80 234.63 98.50 232.92 Z  M 225.75 62.13 C 230.00 56.92 230.00 56.92 227.86 52.71 C 224.03 45.18 217.84 36.81 210.13 28.74 C 205.96 24.38 202.41 21.26 202.23 21.80 C 202.05 22.35 203.99 27.68 206.54 33.65 C 209.09 39.62 213.00 49.81 215.22 56.29 C 217.57 63.13 219.73 67.92 220.38 67.71 C 221.00 67.51 223.41 65.00 225.75 62.13 Z  M 73.42 53.90 C 75.94 50.55 78.00 47.14 78.00 46.33 C 78.00 45.52 76.13 42.65 73.85 39.94 C 66.41 31.11 42.00 13.87 42.00 17.44 C 42.00 17.68 44.36 21.18 47.25 25.22 C 50.14 29.25 55.88 38.72 60.00 46.26 C 64.12 53.80 67.80 59.98 68.17 59.99 C 68.53 59.99 70.89 57.26 73.42 53.90 Z  M 139.00 50.47 C 153.03 49.60 165.06 48.70 165.75 48.48 C 168.28 47.64 166.81 46.25 158.38 41.52 C 149.77 36.68 149.77 36.68 146.49 40.59 C 143.21 44.50 143.21 44.50 124.85 45.14 C 114.76 45.50 106.39 45.83 106.25 45.89 C 105.74 46.11 106.03 47.95 106.97 50.42 C 107.76 52.50 108.45 52.88 110.72 52.50 C 112.25 52.25 124.97 51.33 139.00 50.47 Z "/>
</g>
</svg>