<?xml version="1.0" encoding="UTF-8" standalone="no"?>
<!DOCTYPE svg PUBLIC "-//W3C//DTD SVG 1.1//EN" "http://www.w3.org/Graphics/SVG/1.1/DTD/svg11.dtd" >
<svg xmlns="http://www.w3.org/2000/svg" xmlns:xlink="http://www.w3.org/1999/xlink" version="1.1" viewBox="0 0 256 256">
 <g >
 <path fill="currentColor"
d=" M 60.51 248.36 C 61.49 247.98 62.01 246.36 62.03 243.64 C 62.13 231.47 69.77 77.18 70.32 76.29 C 70.69 75.69 77.53 74.94 86.49 74.52 C 95.55 74.09 102.29 73.35 102.67 72.73 C 103.61 71.20 98.47 67.43 91.21 64.34 C 84.92 61.67 84.92 61.67 82.21 64.90 C 80.16 67.34 78.43 68.28 75.12 68.72 C 70.74 69.30 70.74 69.30 71.40 51.40 C 72.36 25.45 72.59 24.04 76.11 22.81 C 79.26 21.71 79.93 19.57 77.42 18.61 C 76.55 18.27 72.30 18.00 67.98 18.00 C 58.71 18.00 59.69 15.11 57.94 47.50 C 57.31 59.05 56.63 68.79 56.41 69.14 C 56.19 69.50 48.02 70.09 38.26 70.46 C 28.49 70.83 19.95 71.31 19.29 71.52 C 18.40 71.80 18.34 72.67 19.04 74.70 C 20.02 77.50 20.02 77.50 38.03 76.61 C 47.94 76.12 56.21 75.89 56.42 76.11 C 56.62 76.32 56.55 78.88 56.26 81.78 C 55.74 87.06 55.74 87.06 49.67 86.78 C 43.59 86.50 43.59 86.50 41.29 96.50 C 30.20 144.73 22.19 170.02 9.61 196.49 C 5.15 205.88 4.42 208.11 5.54 209.04 C 6.63 209.94 7.79 208.79 11.28 203.33 C 18.85 191.53 24.68 180.95 31.86 165.98 C 40.26 148.47 45.48 134.40 50.91 114.58 C 53.16 106.38 55.20 99.47 55.44 99.23 C 55.68 98.99 55.67 101.20 55.41 104.14 C 54.15 118.64 47.95 247.44 48.46 248.74 C 48.91 249.94 50.07 250.12 54.03 249.59 C 56.78 249.23 59.69 248.67 60.51 248.36 Z  M 160.27 243.38 C 162.58 241.75 165.42 238.47 166.75 235.90 C 168.97 231.58 169.17 229.69 170.19 202.41 C 170.78 186.51 171.32 173.43 171.38 173.35 C 171.45 173.26 183.20 172.70 197.50 172.09 C 230.90 170.68 238.19 170.08 237.76 168.78 C 237.57 168.21 233.33 165.83 228.33 163.50 C 219.25 159.25 219.25 159.25 216.67 161.99 C 213.84 164.99 212.89 165.13 183.96 166.61 C 171.42 167.25 171.42 167.25 171.82 163.12 C 172.14 159.75 172.66 158.87 174.61 158.38 C 176.10 158.01 177.00 157.05 177.00 155.86 C 177.00 154.52 178.41 153.32 181.62 151.95 C 186.79 149.73 201.36 140.46 207.50 135.48 C 209.70 133.69 212.96 131.92 214.74 131.54 C 216.52 131.16 218.22 130.46 218.51 129.99 C 219.13 128.98 212.77 124.45 205.19 120.50 C 200.50 118.05 199.57 117.88 197.19 118.99 C 195.40 119.83 179.68 120.92 150.00 122.26 C 125.52 123.37 105.34 124.41 105.15 124.57 C 104.97 124.73 105.11 126.24 105.48 127.93 C 106.16 130.99 106.18 131.00 112.83 130.94 C 116.50 130.90 136.15 130.08 156.50 129.10 C 176.85 128.13 193.63 127.43 193.80 127.55 C 194.44 128.02 180.65 142.92 175.26 147.58 C 169.95 152.16 169.12 152.53 163.03 153.00 C 156.50 153.50 156.50 153.50 156.20 159.50 C 156.03 162.80 155.50 165.89 155.03 166.37 C 154.31 167.09 106.60 169.82 92.14 169.96 C 87.89 170.00 87.80 170.07 88.47 172.75 C 88.85 174.26 89.32 175.65 89.52 175.85 C 89.92 176.25 136.74 174.28 147.87 173.39 C 155.25 172.81 155.25 172.81 154.83 197.26 C 154.37 224.72 154.11 225.78 147.29 228.12 C 144.81 228.97 137.88 229.44 127.25 229.46 C 115.43 229.49 111.00 229.82 111.00 230.68 C 111.00 232.08 111.90 232.37 123.00 234.49 C 137.61 237.29 142.00 238.80 142.00 241.03 C 142.00 242.11 142.95 243.95 144.12 245.12 C 147.13 248.13 154.66 247.32 160.27 243.38 Z  M 98.12 148.85 C 99.71 147.39 101.00 145.25 101.00 144.10 C 101.00 140.91 97.25 130.54 92.41 120.35 C 86.23 107.35 72.10 86.47 70.59 88.11 C 70.39 88.32 72.41 95.02 75.08 102.99 C 77.75 110.95 81.80 125.35 84.09 134.99 C 86.37 144.62 88.40 153.09 88.61 153.81 C 89.06 155.39 93.60 153.02 98.12 148.85 Z  M 127.90 110.56 C 128.50 110.19 129.00 107.96 129.00 105.62 C 129.00 101.35 129.00 101.35 157.25 100.16 C 172.79 99.51 187.84 98.98 190.69 98.99 C 195.88 99.00 195.88 99.00 196.19 102.74 C 196.56 107.26 197.94 107.71 206.02 106.00 C 211.72 104.79 211.72 104.79 212.35 96.64 C 212.70 92.16 212.99 83.73 212.99 77.91 C 213.00 71.41 213.58 65.42 214.49 62.41 C 215.31 59.71 215.98 57.44 215.99 57.38 C 216.00 57.31 212.23 56.46 207.63 55.50 C 199.43 53.78 199.22 53.78 197.30 55.70 C 195.51 57.49 192.84 57.76 165.42 58.92 C 128.16 60.49 129.72 60.47 122.39 59.53 C 118.98 59.09 116.04 59.13 115.75 59.62 C 115.46 60.10 114.89 72.15 114.48 86.40 C 113.75 112.29 113.75 112.29 120.27 111.77 C 123.86 111.48 127.29 110.94 127.90 110.56 Z  M 168.35 42.47 C 202.36 40.56 231.50 39.00 233.10 39.00 C 235.21 39.00 236.00 38.52 236.00 37.22 C 236.00 35.99 233.38 34.15 227.42 31.19 C 218.84 26.93 218.84 26.93 215.44 29.92 C 213.57 31.56 210.57 33.14 208.77 33.44 C 205.13 34.04 172.68 35.83 172.19 35.45 C 172.02 35.32 173.31 32.89 175.06 30.06 C 178.85 23.90 179.22 24.38 165.50 17.57 C 151.45 10.60 138.31 6.85 137.34 9.54 C 137.14 10.11 141.03 13.86 145.98 17.87 C 154.21 24.53 164.84 35.54 163.89 36.41 C 163.68 36.60 148.10 37.63 129.28 38.68 C 110.47 39.74 94.82 40.85 94.51 41.16 C 94.20 41.47 94.38 42.88 94.92 44.29 C 95.84 46.70 96.24 46.84 101.20 46.40 C 104.11 46.14 134.33 44.37 168.35 42.47 Z  M 129.00 81.05 C 129.00 67.09 129.00 67.09 132.25 66.60 C 135.55 66.09 184.94 63.96 192.75 63.99 C 197.00 64.00 197.00 64.00 197.00 71.85 C 197.00 76.17 196.72 82.38 196.38 85.66 C 195.76 91.60 195.76 91.60 165.13 93.33 C 148.28 94.27 133.26 95.04 131.75 95.02 C 129.00 95.00 129.00 95.00 129.00 81.05 Z "/>
</g>
</svg>