<?xml version="1.0" encoding="UTF-8" standalone="no"?>
<!DOCTYPE svg PUBLIC "-//W3C//DTD SVG 1.1//EN" "http://www.w3.org/Graphics/SVG/1.1/DTD/svg11.dtd" >
<svg xmlns="http://www.w3.org/2000/svg" xmlns:xlink="http://www.w3.org/1999/xlink" version="1.1" viewBox="0 0 256 256">
 <g >
 <path fill="currentColor"
d=" M 12.11 241.00 C 30.52 215.37 41.05 189.95 45.42 160.64 C 46.22 155.22 47.02 150.66 47.19 150.51 C 47.36 150.36 54.47 150.07 63.00 149.87 C 78.50 149.50 78.50 149.50 78.22 156.50 C 78.06 160.35 77.05 180.82 75.97 202.00 C 74.89 223.18 74.00 242.24 74.00 244.36 C 74.00 248.22 74.00 248.22 81.43 247.84 C 85.52 247.64 89.06 247.25 89.30 246.98 C 89.54 246.72 90.67 226.03 91.81 201.00 C 93.48 164.60 94.24 154.45 95.63 150.27 C 96.59 147.39 97.08 144.75 96.74 144.40 C 96.39 144.05 92.74 142.98 88.63 142.03 C 81.33 140.33 81.11 140.34 79.20 142.25 C 77.50 143.95 75.35 144.27 62.53 144.75 C 47.82 145.30 47.82 145.30 48.44 134.90 C 49.94 109.68 46.21 112.47 80.31 111.10 C 96.92 110.43 111.56 109.67 112.85 109.40 C 115.21 108.91 115.21 108.91 114.47 128.11 C 113.73 147.30 113.73 147.30 119.80 146.75 C 123.13 146.45 126.34 145.90 126.93 145.54 C 127.52 145.18 128.00 142.26 128.00 139.05 C 128.00 133.22 128.00 133.22 139.25 132.79 C 145.44 132.55 150.65 132.46 150.82 132.59 C 151.36 132.97 147.95 139.14 143.69 145.50 C 139.45 151.82 122.82 168.74 114.18 175.50 C 111.37 177.70 109.27 180.06 109.51 180.75 C 109.80 181.62 108.69 182.00 105.86 182.00 C 101.91 182.00 101.81 182.09 102.47 184.75 C 102.85 186.26 103.31 187.64 103.49 187.82 C 103.66 188.00 118.80 187.46 137.13 186.63 C 155.45 185.80 170.63 185.30 170.85 185.52 C 171.07 185.74 170.83 199.33 170.30 215.71 C 169.63 236.80 169.67 245.73 170.43 246.30 C 171.51 247.10 180.55 246.49 183.32 245.43 C 185.21 244.70 185.76 238.52 186.59 208.36 C 187.23 185.21 187.23 185.21 200.36 184.58 C 221.23 183.58 227.14 182.92 226.72 181.64 C 226.52 181.01 222.56 178.87 217.93 176.87 C 209.50 173.24 209.50 173.24 206.22 176.12 C 203.18 178.79 202.33 179.00 194.83 179.00 C 186.73 179.00 186.73 179.00 187.36 174.36 C 187.71 171.81 188.00 165.97 188.00 161.38 C 188.00 153.32 188.08 153.02 190.50 152.41 C 192.06 152.02 193.00 151.08 193.00 149.89 C 193.00 147.95 192.05 147.82 176.75 147.56 C 173.50 147.50 173.50 147.50 172.94 163.23 C 172.63 171.88 172.13 179.20 171.83 179.50 C 171.19 180.14 115.49 182.33 113.84 181.78 C 113.23 181.58 115.83 179.41 119.61 176.96 C 130.74 169.75 145.41 157.50 150.64 151.04 C 154.75 145.96 162.18 134.71 163.20 132.01 C 163.36 131.58 172.84 131.05 184.25 130.84 C 205.00 130.46 205.00 130.46 205.00 135.17 C 205.00 137.76 205.46 140.16 206.02 140.51 C 206.57 140.85 209.46 140.59 212.43 139.93 C 217.82 138.72 217.82 138.72 218.42 127.61 C 218.75 121.50 219.47 103.22 220.01 87.00 C 221.12 54.04 221.52 49.07 223.46 44.45 C 224.80 41.23 224.80 41.23 217.65 39.11 C 209.03 36.56 209.14 36.56 206.73 38.75 C 205.13 40.21 200.80 40.76 180.65 42.07 C 167.37 42.93 156.39 43.57 156.26 43.49 C 156.13 43.41 158.84 40.92 162.29 37.95 C 165.73 34.98 170.99 29.73 173.96 26.28 C 177.54 22.12 180.11 20.00 181.56 20.00 C 182.77 20.00 184.29 19.36 184.94 18.57 C 185.89 17.43 185.76 16.94 184.31 16.19 C 182.54 15.26 169.12 12.00 167.06 12.00 C 166.49 12.00 163.93 16.16 161.38 21.25 C 158.84 26.34 154.79 33.54 152.40 37.25 C 148.04 44.00 148.04 44.00 140.77 44.19 C 132.02 44.42 131.04 44.38 123.92 43.47 C 118.35 42.76 118.35 42.76 117.10 73.63 C 116.41 90.61 115.65 105.12 115.41 105.89 C 115.03 107.04 114.67 107.02 113.23 105.75 C 111.25 104.01 102.69 99.63 99.07 98.51 C 97.07 97.88 96.17 98.34 93.90 101.12 C 92.39 102.97 90.83 104.17 90.44 103.77 C 89.73 103.06 91.62 38.19 92.57 30.40 C 92.95 27.36 93.72 25.95 95.54 24.98 C 96.89 24.25 98.00 23.06 98.00 22.33 C 98.00 21.32 95.84 21.00 89.06 21.00 C 80.12 21.00 80.12 21.00 79.59 25.25 C 79.30 27.59 78.32 46.38 77.40 67.00 C 76.30 91.85 75.36 104.75 74.62 105.23 C 74.00 105.64 68.21 105.98 61.75 105.98 C 50.22 106.00 50.00 105.96 50.01 103.75 C 50.02 102.51 50.89 87.82 51.95 71.10 C 53.35 48.81 54.22 40.47 55.18 39.82 C 55.91 39.34 57.13 38.56 57.90 38.10 C 58.75 37.58 59.04 36.55 58.63 35.48 C 58.03 33.91 57.02 33.78 49.83 34.33 C 45.36 34.68 41.51 35.16 41.26 35.41 C 41.02 35.65 39.96 49.72 38.92 66.68 C 34.54 137.95 33.85 147.15 31.92 160.50 C 27.95 187.83 22.41 206.34 9.99 233.81 C 0.93 253.83 1.50 255.77 12.11 241.00 Z  M 129.23 109.75 C 129.50 92.50 129.50 92.50 145.25 92.22 C 159.77 91.97 161.00 92.09 161.00 93.72 C 160.99 97.31 157.87 113.20 155.96 119.38 C 153.65 126.86 153.34 127.00 138.35 127.00 C 128.95 127.00 128.95 127.00 129.23 109.75 Z  M 167.31 123.35 C 170.19 114.39 172.09 106.59 173.07 99.68 C 173.71 95.18 174.52 91.20 174.87 90.84 C 175.22 90.47 182.36 89.85 190.75 89.46 C 206.00 88.74 206.00 88.74 206.00 98.22 C 206.00 113.84 204.96 122.89 203.11 123.40 C 202.22 123.64 193.67 124.15 184.11 124.53 C 167.45 125.18 166.74 125.13 167.31 123.35 Z  M 130.47 68.88 C 130.87 59.32 131.40 51.29 131.65 51.04 C 131.89 50.78 139.34 50.39 148.21 50.16 C 164.32 49.75 164.32 49.75 163.66 59.03 C 163.30 64.13 162.99 71.50 162.98 75.40 C 162.98 79.31 162.64 83.01 162.23 83.64 C 161.77 84.35 155.62 85.05 145.62 85.52 C 129.73 86.25 129.73 86.25 130.47 68.88 Z  M 175.34 81.38 C 175.65 79.80 176.20 71.89 176.57 63.80 C 177.35 46.62 175.24 48.50 194.91 47.43 C 207.32 46.76 207.32 46.76 206.68 64.53 C 206.33 74.30 205.92 82.41 205.77 82.55 C 205.62 82.69 198.59 83.13 190.14 83.53 C 174.78 84.27 174.78 84.27 175.34 81.38 Z "/>
</g>
</svg>