<?xml version="1.0" encoding="UTF-8" standalone="no"?>
<!DOCTYPE svg PUBLIC "-//W3C//DTD SVG 1.1//EN" "http://www.w3.org/Graphics/SVG/1.1/DTD/svg11.dtd" >
<svg xmlns="http://www.w3.org/2000/svg" xmlns:xlink="http://www.w3.org/1999/xlink" version="1.1" viewBox="0 0 256 256">
 <g >
 <path fill="currentColor"
d=" M 167.28 246.45 C 169.31 245.67 169.98 238.61 169.99 217.75 C 170.00 200.00 170.00 200.00 181.25 200.00 C 206.71 199.99 230.00 198.73 230.00 197.36 C 230.00 195.45 226.33 193.33 218.30 190.60 C 211.24 188.20 211.24 188.20 209.26 190.85 C 207.43 193.31 206.57 193.55 197.39 194.15 C 191.95 194.51 183.79 194.84 179.25 194.90 C 171.00 195.00 171.00 195.00 171.00 185.98 C 171.00 177.33 171.10 176.91 173.50 175.82 C 174.88 175.19 176.00 173.85 176.00 172.84 C 176.00 171.18 175.04 171.00 166.00 171.00 C 156.00 171.00 156.00 171.00 155.99 180.75 C 155.97 195.55 156.61 194.72 144.66 195.39 C 139.07 195.71 127.41 196.25 118.75 196.59 C 103.00 197.21 103.00 197.21 103.00 199.75 C 103.00 202.30 103.00 202.30 129.09 201.57 C 155.18 200.85 155.18 200.85 154.99 223.68 C 154.89 236.23 154.85 246.90 154.90 247.39 C 155.00 248.26 164.43 247.54 167.28 246.45 Z  M 45.13 218.41 C 58.59 212.74 71.40 206.50 80.59 201.12 C 85.67 198.15 85.67 198.15 86.86 209.32 C 89.30 232.18 88.79 230.29 92.29 229.59 C 93.98 229.25 97.27 227.86 99.59 226.50 C 103.83 224.02 103.83 224.02 102.39 217.76 C 99.53 205.32 95.12 194.95 86.99 181.48 C 83.33 175.43 81.50 173.25 80.40 173.68 C 79.44 174.04 79.14 174.85 79.59 175.88 C 79.98 176.77 81.32 181.21 82.57 185.75 C 84.85 194.00 84.85 194.00 82.18 194.59 C 80.70 194.92 75.92 196.25 71.53 197.54 C 67.15 198.84 63.40 199.73 63.19 199.52 C 62.71 199.04 65.56 155.10 66.10 154.59 C 66.32 154.39 70.32 154.06 74.98 153.86 C 83.46 153.50 83.46 153.50 83.14 161.25 C 82.82 169.00 82.82 169.00 88.16 168.98 C 91.10 168.98 94.00 168.64 94.60 168.23 C 95.32 167.75 96.28 153.43 97.40 126.50 C 98.92 89.65 99.86 76.25 101.64 66.31 C 102.20 63.16 102.14 63.10 96.42 61.43 C 91.56 60.02 90.30 59.96 88.56 61.06 C 87.43 61.79 82.79 62.63 78.25 62.95 C 68.56 63.61 69.34 66.45 71.43 38.13 C 72.73 20.38 73.28 18.08 76.25 18.02 C 76.66 18.01 77.00 17.38 77.00 16.63 C 77.00 14.95 72.66 14.00 64.95 14.00 C 59.16 14.00 59.16 14.00 58.61 20.25 C 58.31 23.69 57.71 35.05 57.28 45.50 C 56.50 64.50 56.50 64.50 48.00 65.05 C 43.33 65.36 36.65 65.21 33.17 64.71 C 29.69 64.22 26.63 64.04 26.36 64.31 C 25.96 64.71 20.11 163.96 20.02 171.80 C 20.00 173.98 20.30 174.08 26.25 173.80 C 32.50 173.50 32.50 173.50 33.30 164.53 C 33.74 159.60 34.19 155.50 34.30 155.42 C 34.41 155.34 38.46 155.01 43.29 154.68 C 52.09 154.09 52.09 154.09 51.54 159.80 C 51.24 162.93 50.51 174.05 49.91 184.50 C 49.30 194.95 48.66 203.66 48.48 203.84 C 48.21 204.12 23.29 210.10 12.13 212.58 C 10.01 213.04 9.81 213.52 10.26 216.89 C 10.54 218.98 11.69 222.78 12.82 225.34 C 14.88 229.99 14.88 229.99 23.38 226.98 C 28.06 225.33 37.85 221.47 45.13 218.41 Z  M 128.97 178.52 C 129.54 178.17 130.00 175.91 130.00 173.50 C 130.00 171.09 130.34 168.91 130.75 168.66 C 131.16 168.40 143.43 167.70 158.00 167.09 C 172.57 166.48 187.54 165.74 191.25 165.43 C 198.00 164.88 198.00 164.88 198.00 170.58 C 198.00 176.28 198.00 176.28 204.12 175.72 C 207.48 175.42 210.64 174.76 211.14 174.26 C 211.64 173.76 212.31 161.46 212.63 146.92 C 213.13 124.71 213.53 119.43 215.19 113.79 C 216.28 110.10 216.91 106.67 216.60 106.16 C 216.28 105.65 213.09 104.43 209.51 103.46 C 203.26 101.77 202.91 101.77 201.01 103.49 C 199.29 105.05 195.27 105.48 170.76 106.72 C 147.11 107.91 126.52 107.93 120.78 106.76 C 119.79 106.56 119.24 112.51 118.34 133.50 C 117.71 148.35 117.14 164.95 117.09 170.39 C 117.00 180.28 117.00 180.28 122.47 179.71 C 125.49 179.40 128.41 178.86 128.97 178.52 Z  M 176.75 91.81 C 220.97 89.49 239.00 88.21 239.00 87.40 C 239.00 86.22 226.33 79.62 221.95 78.52 C 219.96 78.02 219.16 78.46 217.77 80.82 C 215.60 84.49 212.89 84.97 194.50 84.99 C 180.50 85.00 180.50 85.00 188.63 76.63 C 193.10 72.02 199.32 64.85 202.46 60.69 C 206.62 55.16 208.85 53.03 210.75 52.81 C 215.26 52.27 214.30 50.28 208.10 47.34 C 204.80 45.78 202.08 44.16 202.05 43.75 C 202.02 43.34 205.49 42.94 209.75 42.87 C 222.28 42.66 232.32 41.58 232.70 40.41 C 232.90 39.81 228.90 37.41 223.82 35.08 C 214.58 30.84 214.58 30.84 211.90 34.12 C 209.23 37.39 209.23 37.39 191.37 38.55 C 181.54 39.19 173.31 39.55 173.07 39.34 C 172.83 39.14 174.01 37.51 175.70 35.74 C 178.38 32.90 181.00 28.94 181.00 27.72 C 181.00 26.99 162.65 14.34 156.99 11.17 C 149.62 7.04 142.88 4.72 141.71 5.89 C 141.13 6.47 143.30 9.72 147.39 14.41 C 154.96 23.09 166.00 37.73 166.00 39.09 C 166.00 39.59 163.64 40.03 160.75 40.07 C 148.73 40.23 109.05 42.62 108.44 43.22 C 108.09 43.58 108.21 45.12 108.72 46.65 C 109.64 49.42 109.64 49.42 118.84 49.12 C 128.05 48.83 128.05 48.83 131.92 57.17 C 135.98 65.92 140.45 78.54 141.53 84.33 C 142.18 87.76 142.18 87.76 125.09 88.50 C 108.00 89.23 108.00 89.23 108.00 92.11 C 108.00 94.70 108.34 95.00 111.25 95.04 C 113.04 95.06 142.51 93.61 176.75 91.81 Z  M 35.03 146.25 C 35.14 136.32 38.92 72.94 39.45 72.07 C 39.84 71.46 43.48 71.00 48.05 71.00 C 55.97 71.00 55.97 71.00 55.46 78.25 C 54.80 87.42 52.00 142.48 52.00 146.21 C 52.00 149.00 52.00 149.00 43.50 149.00 C 35.00 149.00 35.00 149.00 35.03 146.25 Z  M 66.03 144.38 C 66.09 136.88 69.74 70.92 70.12 70.56 C 70.33 70.37 74.45 69.88 79.28 69.48 C 88.06 68.76 88.06 68.76 87.55 72.63 C 87.27 74.76 86.30 92.25 85.40 111.50 C 84.49 130.75 83.58 146.69 83.37 146.93 C 83.15 147.17 79.15 147.56 74.49 147.81 C 66.00 148.25 66.00 148.25 66.03 144.38 Z  M 131.00 152.06 C 131.00 146.59 131.34 141.92 131.75 141.67 C 132.16 141.42 145.10 140.72 160.50 140.10 C 175.90 139.48 190.64 138.74 193.25 138.45 C 198.00 137.93 198.00 137.93 198.00 148.39 C 198.00 158.84 198.00 158.84 191.75 159.40 C 185.05 159.99 140.97 162.01 134.75 162.00 C 131.00 162.00 131.00 162.00 131.00 152.06 Z  M 132.00 124.97 C 132.00 117.82 132.36 114.82 133.25 114.54 C 133.94 114.31 149.01 113.54 166.75 112.82 C 199.00 111.50 199.00 111.50 199.00 121.69 C 199.00 133.75 202.67 132.40 165.50 133.97 C 127.65 135.56 132.00 136.73 132.00 124.97 Z  M 152.42 81.77 C 154.94 78.89 157.00 76.16 157.00 75.70 C 157.00 73.56 149.88 64.70 141.79 56.78 C 133.78 48.94 133.12 48.02 135.20 47.59 C 138.70 46.88 193.03 44.70 193.58 45.25 C 194.10 45.77 178.35 76.90 174.38 83.18 C 171.97 87.00 171.97 87.00 159.91 87.00 C 147.84 87.00 147.84 87.00 152.42 81.77 Z "/>
</g>
</svg>