<?xml version="1.0" encoding="UTF-8" standalone="no"?>
<!DOCTYPE svg PUBLIC "-//W3C//DTD SVG 1.1//EN" "http://www.w3.org/Graphics/SVG/1.1/DTD/svg11.dtd" >
<svg xmlns="http://www.w3.org/2000/svg" xmlns:xlink="http://www.w3.org/1999/xlink" version="1.1" viewBox="0 0 256 256">
 <g >
 <path fill="currentColor"
d=" M 80.72 235.41 C 105.13 226.31 145.90 206.16 145.97 203.17 C 145.99 202.43 145.44 202.06 144.75 202.35 C 139.86 204.35 114.45 212.43 105.00 214.98 C 98.67 216.68 92.66 218.33 91.64 218.64 C 89.86 219.18 89.81 218.37 90.52 197.85 C 90.93 186.11 91.62 175.53 92.07 174.34 C 92.52 173.15 95.05 170.71 97.69 168.91 C 100.34 167.11 105.71 163.25 109.63 160.32 C 113.56 157.40 117.00 155.00 117.30 155.00 C 117.59 155.00 119.44 157.89 121.42 161.42 C 133.68 183.34 156.45 207.02 178.50 220.78 C 187.60 226.46 208.06 235.98 211.21 235.99 C 213.30 236.00 224.57 222.14 223.36 221.04 C 222.89 220.60 220.03 219.44 217.00 218.46 C 207.19 215.28 187.73 206.99 178.23 201.93 C 165.67 195.25 155.89 188.99 156.49 188.01 C 156.77 187.57 162.92 183.94 170.16 179.95 C 177.40 175.96 187.26 170.06 192.07 166.85 C 197.12 163.47 201.90 161.00 203.40 161.00 C 204.83 161.00 206.00 160.58 206.00 160.07 C 206.00 158.74 201.07 155.40 194.87 152.53 C 189.55 150.07 189.55 150.07 173.03 166.38 C 163.94 175.36 155.49 183.23 154.25 183.88 C 152.27 184.93 151.32 184.57 146.25 180.85 C 135.47 172.94 119.22 154.48 120.38 151.46 C 120.69 150.63 122.23 150.00 123.91 150.00 C 125.54 150.00 127.16 149.55 127.50 149.00 C 128.13 147.98 126.94 147.38 116.65 143.52 C 110.80 141.33 110.80 141.33 125.65 137.19 C 133.82 134.91 145.88 131.24 152.45 129.02 C 159.03 126.81 164.97 125.00 165.65 125.00 C 166.34 125.00 170.12 129.73 174.05 135.50 C 177.98 141.28 181.64 146.28 182.18 146.61 C 183.73 147.57 188.48 142.38 191.03 136.93 C 193.37 131.94 193.37 131.94 187.94 126.40 C 181.15 119.48 171.29 111.99 157.87 103.55 C 141.86 93.47 141.24 94.44 154.00 109.72 C 158.95 115.65 163.00 120.84 163.00 121.25 C 163.00 121.66 162.09 122.00 160.97 122.00 C 159.85 122.00 152.86 123.12 145.42 124.50 C 132.19 126.94 75.97 134.30 75.34 133.67 C 75.16 133.50 78.50 130.94 82.76 128.00 C 100.33 115.84 113.85 105.26 122.43 96.96 C 129.70 89.93 132.21 88.10 134.94 87.83 C 136.81 87.65 138.51 86.99 138.72 86.37 C 139.15 85.06 125.44 76.00 123.02 76.00 C 121.14 76.00 117.83 79.39 109.16 90.18 C 101.02 100.30 86.72 115.62 75.34 126.39 C 66.18 135.06 66.18 135.06 59.59 135.67 C 55.96 136.01 53.00 136.69 53.00 137.19 C 53.00 139.12 56.32 151.55 57.05 152.37 C 58.08 153.51 67.70 151.81 87.91 146.94 C 96.93 144.76 104.49 143.16 104.71 143.38 C 105.35 144.02 91.41 156.26 79.50 165.52 C 61.51 179.51 26.14 202.82 8.25 212.48 C 3.02 215.31 2.13 216.34 3.97 217.48 C 6.03 218.75 42.34 201.68 65.38 188.61 C 70.81 185.52 75.68 183.00 76.21 183.00 C 76.73 183.00 76.92 184.24 76.64 185.75 C 76.35 187.26 75.81 196.03 75.45 205.24 C 74.79 221.98 74.79 221.98 70.64 223.10 C 66.48 224.22 56.72 226.25 49.74 227.45 C 46.26 228.05 46.03 228.29 46.63 230.80 C 47.32 233.66 50.61 240.71 52.17 242.66 C 53.32 244.10 66.19 240.83 80.72 235.41 Z  M 39.86 114.00 C 60.54 102.15 79.78 88.38 94.15 75.13 C 97.81 71.76 101.72 69.00 102.84 69.00 C 105.49 69.00 106.50 67.30 104.95 65.44 C 102.59 62.59 91.78 55.00 90.10 55.00 C 89.16 55.00 85.21 58.94 81.31 63.75 C 69.74 78.04 58.12 89.81 41.14 104.41 C 30.69 113.40 25.32 118.67 25.67 119.59 C 25.97 120.37 26.54 121.00 26.93 121.00 C 27.32 121.00 33.14 117.85 39.86 114.00 Z  M 206.67 96.93 C 207.86 93.94 209.13 89.88 209.50 87.90 C 210.17 84.30 210.16 84.30 202.33 79.28 C 192.46 72.96 184.73 69.06 172.31 64.15 C 156.24 57.80 145.94 54.66 144.83 55.77 C 143.77 56.83 143.55 56.65 160.00 68.51 C 170.93 76.40 197.57 97.75 200.43 100.91 C 201.49 102.09 202.84 102.89 203.43 102.70 C 204.02 102.51 205.48 99.91 206.67 96.93 Z  M 128.84 47.46 C 182.38 44.46 227.50 42.00 229.09 42.00 C 230.75 42.00 232.00 41.46 232.00 40.75 C 231.99 39.65 216.11 30.00 214.30 30.00 C 213.91 30.00 212.15 31.40 210.38 33.11 C 208.08 35.34 205.94 36.36 202.84 36.69 C 195.43 37.47 135.52 41.69 135.19 41.45 C 135.02 41.32 136.52 38.66 138.52 35.53 C 140.52 32.41 141.95 29.32 141.70 28.67 C 141.45 28.02 137.26 25.40 132.37 22.84 C 119.33 16.01 97.12 9.37 95.60 11.84 C 95.27 12.38 99.16 16.42 104.25 20.83 C 118.11 32.82 126.89 42.01 124.47 41.97 C 120.17 41.92 25.29 47.13 22.31 47.58 C 19.31 48.04 19.18 48.23 20.10 50.86 C 21.03 53.51 21.34 53.64 26.29 53.29 C 29.15 53.09 75.30 50.47 128.84 47.46 Z "/>
</g>
</svg>