<?xml version="1.0" encoding="UTF-8" standalone="no"?>
<!DOCTYPE svg PUBLIC "-//W3C//DTD SVG 1.1//EN" "http://www.w3.org/Graphics/SVG/1.1/DTD/svg11.dtd" >
<svg xmlns="http://www.w3.org/2000/svg" xmlns:xlink="http://www.w3.org/1999/xlink" version="1.1" viewBox="0 0 256 256">
 <g >
 <path fill="currentColor"
d=" M 117.44 246.91 C 121.76 245.82 121.76 245.82 122.50 211.83 C 123.02 188.03 123.58 177.74 124.37 177.51 C 124.99 177.32 132.41 176.89 140.86 176.55 C 156.22 175.94 156.22 175.94 155.45 204.72 C 155.03 220.55 154.65 234.85 154.59 236.50 C 154.51 239.04 154.91 239.55 157.17 239.81 C 158.64 239.98 161.64 239.64 163.83 239.05 C 167.64 238.02 167.84 237.76 168.37 233.24 C 168.68 230.63 169.22 216.46 169.58 201.75 C 170.23 175.00 170.23 175.00 178.86 174.99 C 183.61 174.99 191.28 174.69 195.89 174.33 C 204.28 173.68 204.28 173.68 203.62 188.59 C 202.19 220.56 201.83 224.17 199.85 226.15 C 198.23 227.77 196.31 228.00 184.50 228.00 C 167.24 228.00 166.49 229.38 181.15 234.18 C 190.83 237.34 191.35 237.66 192.40 240.98 C 194.55 247.77 200.99 247.33 209.55 239.82 C 217.20 233.11 216.85 236.19 218.52 159.82 C 219.86 98.51 220.46 86.65 222.54 79.43 C 223.08 77.55 222.39 77.19 215.14 75.53 C 207.66 73.82 206.92 73.81 203.67 75.35 C 201.19 76.53 197.44 77.00 190.57 77.00 C 180.95 77.00 180.95 77.00 182.61 73.79 C 184.27 70.59 184.27 70.59 179.55 66.50 C 174.84 62.41 174.84 62.41 183.17 56.83 C 187.75 53.76 197.34 46.20 204.48 40.01 C 211.62 33.83 218.49 28.39 219.73 27.91 C 220.98 27.44 222.00 26.46 222.00 25.74 C 222.00 24.31 213.84 19.06 207.60 16.47 C 204.06 15.00 203.41 14.99 200.60 16.40 C 198.21 17.60 188.51 18.42 158.00 20.00 C 107.90 22.61 110.00 22.34 110.00 26.00 C 110.00 27.59 110.34 29.08 110.75 29.32 C 111.16 29.55 129.50 28.67 151.50 27.36 C 173.50 26.05 192.77 25.09 194.33 25.24 C 197.15 25.50 197.15 25.50 190.35 35.00 C 186.61 40.23 180.35 47.84 176.43 51.93 C 169.31 59.36 169.31 59.36 160.40 54.77 C 148.14 48.44 135.91 43.69 134.78 44.82 C 134.23 45.37 136.36 48.05 140.18 51.61 C 143.66 54.85 151.37 62.22 157.32 68.00 C 168.13 78.50 168.13 78.50 147.32 79.50 C 135.20 80.08 124.27 80.14 121.16 79.64 C 118.17 79.15 115.50 79.15 115.07 79.64 C 114.11 80.74 107.48 244.21 108.32 246.38 C 109.04 248.28 111.46 248.42 117.44 246.91 Z  M 36.60 241.23 C 37.20 240.83 38.00 237.15 38.37 233.06 C 38.75 228.97 39.15 225.52 39.27 225.41 C 39.40 225.29 46.81 224.87 55.75 224.47 C 72.00 223.74 72.00 223.74 72.00 228.37 C 72.00 233.00 72.00 233.00 77.75 232.98 C 80.91 232.98 84.00 232.64 84.61 232.23 C 85.33 231.75 86.08 221.32 86.78 202.00 C 87.56 180.30 88.28 170.83 89.52 166.19 C 90.45 162.72 90.95 159.62 90.64 159.31 C 90.33 158.99 87.47 158.20 84.28 157.55 C 79.41 156.55 78.13 156.60 76.14 157.87 C 74.23 159.09 69.55 159.39 51.45 159.44 C 29.13 159.50 29.13 159.50 28.54 166.50 C 27.95 173.45 24.00 237.96 24.00 240.61 C 24.00 241.64 25.51 242.00 29.75 241.98 C 32.91 241.98 35.99 241.64 36.60 241.23 Z  M 68.71 134.14 C 85.33 133.19 99.25 132.08 99.64 131.69 C 100.58 130.75 98.04 128.94 89.29 124.31 C 82.08 120.50 82.08 120.50 79.29 123.80 C 76.50 127.10 76.50 127.10 57.50 128.02 C 47.05 128.52 35.68 128.95 32.23 128.97 C 25.96 129.00 25.96 129.00 26.62 131.75 C 26.98 133.26 27.47 134.84 27.70 135.25 C 28.28 136.29 34.05 136.13 68.71 134.14 Z  M 71.99 98.17 C 105.65 96.20 106.18 95.95 92.03 89.01 C 82.99 84.58 82.99 84.58 80.19 87.94 C 77.40 91.29 77.40 91.29 52.95 92.80 C 39.50 93.63 28.37 94.40 28.22 94.51 C 28.07 94.63 28.40 95.91 28.95 97.36 C 29.90 99.87 30.29 100.00 36.73 99.92 C 40.45 99.87 56.32 99.09 71.99 98.17 Z  M 66.00 64.94 C 87.72 63.80 106.11 62.66 106.86 62.42 C 109.33 61.62 106.33 59.41 97.38 55.42 C 88.81 51.60 88.81 51.60 87.16 53.75 C 84.90 56.67 80.92 58.00 74.41 58.00 C 68.95 58.00 68.95 58.00 72.98 52.91 C 75.19 50.11 77.00 46.91 77.00 45.81 C 77.00 41.33 46.81 14.86 44.43 17.24 C 44.14 17.52 47.54 24.90 51.98 33.63 C 59.22 47.85 63.20 58.15 61.95 59.38 C 61.70 59.62 52.43 60.14 41.34 60.54 C 30.26 60.94 20.67 61.59 20.03 61.98 C 19.35 62.40 19.15 63.73 19.53 65.27 C 20.09 67.48 20.62 67.79 23.34 67.44 C 25.08 67.21 44.27 66.09 66.00 64.94 Z  M 125.00 152.12 C 125.00 137.66 125.31 132.84 126.25 132.53 C 126.94 132.31 134.40 131.96 142.83 131.76 C 158.15 131.39 158.15 131.39 157.83 150.11 C 157.65 160.41 157.22 169.12 156.87 169.46 C 156.53 169.81 149.21 170.36 140.62 170.70 C 125.00 171.31 125.00 171.31 125.00 152.12 Z  M 170.34 167.37 C 170.64 165.79 171.19 156.93 171.55 147.68 C 172.00 136.49 172.60 130.73 173.36 130.49 C 173.99 130.29 181.36 129.96 189.75 129.76 C 205.00 129.40 205.00 129.40 204.99 140.45 C 204.99 146.53 204.70 155.18 204.35 159.68 C 203.72 167.85 203.72 167.85 199.11 168.39 C 196.57 168.69 188.94 169.23 182.14 169.58 C 169.79 170.23 169.79 170.23 170.34 167.37 Z  M 126.49 106.87 C 126.90 96.22 127.43 87.16 127.67 86.75 C 127.92 86.34 135.34 86.00 144.16 86.00 C 160.20 86.00 160.20 86.00 159.52 103.25 C 159.15 112.74 158.63 121.26 158.37 122.20 C 157.72 124.54 156.50 124.76 140.13 125.55 C 125.76 126.24 125.76 126.24 126.49 106.87 Z  M 172.74 105.36 C 172.96 94.99 173.32 85.94 173.54 85.25 C 173.84 84.32 178.02 84.00 189.97 84.00 C 206.00 84.00 206.00 84.00 205.99 94.75 C 205.98 112.23 204.98 121.88 203.10 122.41 C 202.22 122.66 194.94 123.17 186.92 123.55 C 172.33 124.23 172.33 124.23 172.74 105.36 Z  M 39.03 216.87 C 39.09 210.84 41.84 166.83 42.17 166.52 C 42.52 166.20 75.42 164.06 75.61 164.34 C 75.77 164.56 72.82 218.46 72.64 218.64 C 72.56 218.72 64.96 219.12 55.75 219.52 C 39.00 220.24 39.00 220.24 39.03 216.87 Z "/>
</g>
</svg>