<?xml version="1.0" encoding="UTF-8" standalone="no"?>
<!DOCTYPE svg PUBLIC "-//W3C//DTD SVG 1.1//EN" "http://www.w3.org/Graphics/SVG/1.1/DTD/svg11.dtd" >
<svg xmlns="http://www.w3.org/2000/svg" xmlns:xlink="http://www.w3.org/1999/xlink" version="1.1" viewBox="0 0 256 256">
 <g >
 <path fill="currentColor"
d=" M 77.53 180.36 C 78.30 145.24 79.13 114.86 79.36 112.86 C 79.78 109.23 79.78 109.23 72.92 106.47 C 68.69 104.76 66.31 103.28 66.72 102.60 C 67.07 102.00 69.91 98.58 73.01 95.00 C 78.63 88.52 81.33 85.04 94.76 67.00 C 98.64 61.77 103.66 55.72 105.91 53.55 C 108.16 51.37 110.00 49.19 110.00 48.69 C 110.00 48.19 104.75 42.19 98.34 35.35 C 86.68 22.92 86.68 22.92 84.52 29.71 C 76.16 56.05 42.86 108.61 16.31 137.37 C 10.99 143.12 10.93 143.26 12.97 144.69 C 14.86 146.02 15.49 145.90 19.59 143.50 C 25.53 140.02 41.83 127.52 49.90 120.26 C 56.30 114.50 56.30 114.50 55.70 153.00 C 55.06 193.51 54.09 208.12 50.95 224.44 C 49.90 229.90 49.27 234.60 49.55 234.88 C 50.28 235.61 75.44 244.83 75.81 244.50 C 75.98 244.34 76.75 215.48 77.53 180.36 Z  M 102.00 234.26 C 128.28 212.92 151.76 173.66 167.04 125.50 C 177.41 92.83 181.10 80.77 180.81 80.51 C 180.64 80.36 177.19 78.58 173.15 76.55 C 169.10 74.53 165.95 72.72 166.15 72.52 C 166.90 71.79 199.98 68.64 200.59 69.25 C 201.27 69.94 198.86 100.70 196.41 122.50 C 194.44 140.01 189.57 169.15 186.47 181.95 C 184.07 191.82 179.45 204.01 178.11 203.99 C 177.78 203.98 169.66 202.65 160.08 201.03 C 143.74 198.26 142.59 198.18 141.36 199.79 C 140.65 200.73 140.07 201.95 140.08 202.50 C 140.08 203.05 143.68 206.18 148.06 209.45 C 155.70 215.15 170.96 230.03 174.03 234.76 C 175.50 237.02 175.50 237.02 182.01 233.10 C 191.95 227.11 197.29 221.88 201.34 214.16 C 208.95 199.69 215.50 165.99 222.42 105.66 C 224.51 87.48 226.37 75.19 227.31 73.40 C 228.14 71.80 230.20 69.18 231.90 67.58 C 234.97 64.65 234.97 64.65 222.50 56.33 C 215.65 51.75 209.80 48.00 209.51 48.00 C 209.23 48.00 207.41 49.75 205.47 51.90 C 203.54 54.04 200.50 56.47 198.73 57.30 C 193.52 59.74 150.28 64.62 122.77 65.87 C 113.56 66.29 105.81 66.86 105.54 67.13 C 105.27 67.39 107.73 70.26 110.99 73.49 C 116.93 79.37 116.93 79.37 129.21 77.12 C 135.96 75.89 144.30 74.62 147.74 74.30 C 153.42 73.76 154.00 73.89 153.99 75.61 C 153.98 80.03 146.76 112.72 142.62 127.16 C 131.30 166.56 110.44 208.20 89.52 233.14 C 85.03 238.50 85.03 238.50 87.70 240.69 C 90.90 243.31 90.80 243.35 102.00 234.26 Z  M 116.48 152.83 C 120.08 141.80 124.52 120.05 125.64 107.94 C 126.29 101.00 126.29 101.00 123.15 101.00 C 120.22 101.00 119.74 101.55 115.61 109.75 C 110.64 119.64 100.68 135.17 94.80 142.22 C 90.86 146.95 90.86 146.95 93.50 150.42 C 96.08 153.80 104.03 160.94 108.95 164.30 C 112.04 166.41 112.07 166.37 116.48 152.83 Z "/>
</g>
</svg>