<?xml version="1.0" encoding="UTF-8" standalone="no"?>
<!DOCTYPE svg PUBLIC "-//W3C//DTD SVG 1.1//EN" "http://www.w3.org/Graphics/SVG/1.1/DTD/svg11.dtd" >
<svg xmlns="http://www.w3.org/2000/svg" xmlns:xlink="http://www.w3.org/1999/xlink" version="1.1" viewBox="0 0 256 256">
 <g >
 <path fill="currentColor"
d=" M 71.99 224.75 C 71.98 194.33 74.10 98.80 74.86 95.65 C 75.51 92.94 76.00 93.47 84.45 105.87 C 91.31 115.95 93.65 118.70 94.64 117.88 C 96.21 116.58 101.56 102.92 102.52 97.76 C 103.21 94.05 103.18 94.01 98.41 91.96 C 95.77 90.83 89.65 88.70 84.80 87.22 C 76.00 84.54 76.00 84.54 76.08 69.02 C 76.12 60.48 76.69 48.86 77.36 43.19 C 78.18 36.14 78.23 32.63 77.53 32.09 C 76.96 31.66 71.19 28.49 64.69 25.05 C 52.88 18.80 52.88 18.80 53.69 27.65 C 54.95 41.44 54.48 96.94 52.66 147.50 C 50.69 202.31 50.40 206.57 47.81 219.50 C 46.71 225.00 45.74 230.33 45.65 231.35 C 45.53 232.80 48.11 234.38 57.50 238.58 C 64.10 241.53 70.06 243.96 70.75 243.97 C 71.71 243.99 72.00 239.50 71.99 224.75 Z  M 119.74 229.53 C 157.45 226.30 215.44 223.02 234.86 223.01 C 247.21 223.00 247.21 223.00 239.89 214.75 C 235.87 210.21 232.56 206.44 232.54 206.36 C 232.52 206.29 228.45 207.25 223.50 208.51 C 218.55 209.76 207.98 211.29 200.00 211.91 C 192.03 212.53 183.81 213.29 181.75 213.61 C 178.00 214.18 178.00 214.18 178.00 187.24 C 178.00 160.31 178.00 160.31 196.25 159.09 C 206.29 158.42 215.69 157.79 217.15 157.69 C 219.72 157.51 219.59 157.26 213.47 150.50 C 207.13 143.50 207.13 143.50 200.82 145.72 C 195.19 147.69 184.09 149.97 179.98 149.99 C 178.66 150.00 178.51 147.24 178.83 128.75 C 179.03 117.06 179.49 107.20 179.85 106.83 C 180.21 106.46 190.18 105.17 202.00 103.96 C 213.82 102.75 224.15 101.57 224.95 101.34 C 225.92 101.05 224.23 98.75 219.73 94.25 C 213.07 87.58 213.07 87.58 206.28 89.76 C 198.52 92.25 180.31 95.65 179.44 94.77 C 178.60 93.93 180.86 52.71 182.17 45.05 C 182.80 41.38 182.89 38.45 182.39 38.25 C 181.90 38.07 175.43 34.61 168.00 30.57 C 160.57 26.53 154.35 23.63 154.16 24.13 C 153.97 24.63 154.31 29.55 154.91 35.06 C 155.51 40.57 156.00 57.35 156.00 72.35 C 156.00 99.63 156.00 99.63 144.36 100.84 C 137.96 101.51 132.56 101.89 132.35 101.68 C 131.68 101.01 140.71 81.12 144.06 75.91 C 146.73 71.74 147.07 70.65 145.91 69.90 C 142.53 67.69 119.83 55.84 119.58 56.16 C 119.43 56.35 118.76 60.55 118.10 65.50 C 115.23 86.83 105.21 120.97 96.01 140.76 C 93.64 145.86 91.88 150.19 92.10 150.39 C 92.32 150.59 93.49 151.05 94.69 151.42 C 96.36 151.94 97.86 151.22 100.98 148.40 C 107.21 142.77 116.61 129.74 121.57 119.86 C 124.02 114.98 126.38 111.00 126.81 111.00 C 127.24 111.00 128.10 111.50 128.72 112.12 C 129.53 112.93 131.56 112.95 136.17 112.18 C 139.65 111.60 145.54 110.82 149.25 110.44 C 156.00 109.77 156.00 109.77 156.00 131.38 C 156.00 143.27 155.66 153.01 155.25 153.02 C 154.84 153.03 149.10 153.69 142.50 154.49 C 135.90 155.29 125.59 155.95 119.60 155.97 C 108.69 156.00 108.69 156.00 110.60 158.11 C 111.64 159.27 114.63 162.01 117.23 164.18 C 121.95 168.15 121.95 168.15 137.74 165.57 C 146.43 164.16 154.09 163.00 154.77 163.00 C 155.71 163.00 156.00 169.03 156.00 188.87 C 156.00 214.74 156.00 214.74 152.18 215.35 C 148.03 216.02 124.24 217.51 100.65 218.58 C 85.81 219.25 85.81 219.25 92.15 225.67 C 97.21 230.77 98.96 231.97 100.74 231.52 C 101.98 231.22 110.53 230.32 119.74 229.53 Z  M 37.83 140.50 C 38.97 134.45 40.38 126.12 40.95 122.00 C 42.20 113.11 45.11 82.77 44.75 82.42 C 44.61 82.29 42.92 81.89 41.00 81.55 C 37.50 80.92 37.50 80.92 34.14 90.21 C 29.85 102.05 22.34 117.70 17.04 125.85 C 12.91 132.20 12.91 132.20 17.00 137.61 C 22.22 144.53 34.14 154.52 35.08 152.76 C 35.45 152.07 36.68 146.55 37.83 140.50 Z "/>
</g>
</svg>