<?xml version="1.0" encoding="UTF-8" standalone="no"?>
<!DOCTYPE svg PUBLIC "-//W3C//DTD SVG 1.1//EN" "http://www.w3.org/Graphics/SVG/1.1/DTD/svg11.dtd" >
<svg xmlns="http://www.w3.org/2000/svg" xmlns:xlink="http://www.w3.org/1999/xlink" version="1.1" viewBox="0 0 256 256">
 <g >
 <path fill="currentColor"
d=" M 80.92 195.27 C 81.53 168.75 82.31 144.37 82.65 141.10 C 83.27 135.16 83.27 135.16 92.33 147.64 C 101.40 160.11 101.40 160.11 103.20 156.60 C 105.62 151.89 110.32 135.29 109.70 133.66 C 109.24 132.47 86.47 123.00 84.05 123.00 C 82.85 123.00 82.67 114.20 83.63 102.79 C 84.27 95.29 84.27 95.29 93.58 94.14 C 98.70 93.51 104.90 93.00 107.36 93.00 C 115.29 93.00 115.50 92.50 110.36 85.82 C 107.84 82.54 105.24 79.65 104.61 79.40 C 103.97 79.16 100.76 80.05 97.47 81.39 C 94.18 82.72 89.73 84.15 87.59 84.55 C 83.68 85.28 83.68 85.28 84.40 67.39 C 84.79 57.55 85.68 45.11 86.38 39.74 C 87.83 28.58 89.04 30.02 70.10 20.53 C 60.70 15.83 60.70 15.83 61.31 21.67 C 62.56 33.67 63.06 59.97 62.30 73.48 C 61.50 87.47 61.50 87.47 53.00 88.76 C 48.33 89.48 38.57 90.38 31.33 90.78 C 18.16 91.50 18.16 91.50 23.32 97.82 C 27.73 103.22 28.85 104.06 30.99 103.59 C 38.83 101.87 60.15 98.82 60.67 99.34 C 61.52 100.19 53.11 120.62 44.97 137.50 C 37.59 152.78 26.98 170.89 17.94 183.65 C 12.16 191.80 12.16 191.80 14.53 194.03 C 16.90 196.26 16.90 196.26 23.55 190.41 C 34.95 180.41 46.73 166.74 59.26 148.99 C 60.99 146.54 61.01 146.62 60.50 154.00 C 60.21 158.12 59.51 174.10 58.94 189.50 C 58.03 214.08 56.63 227.59 54.38 233.44 C 54.05 234.32 55.37 235.35 58.18 236.40 C 63.78 238.50 79.45 243.77 79.65 243.62 C 79.74 243.55 80.31 221.80 80.92 195.27 Z  M 211.02 229.17 C 223.89 226.87 236.90 223.02 241.63 220.11 C 244.75 218.18 244.75 218.18 242.84 212.51 C 240.03 204.19 237.30 190.07 234.46 169.14 C 233.08 158.95 231.85 150.55 231.73 150.45 C 230.82 149.79 225.00 149.20 224.98 149.78 C 224.98 150.17 222.78 163.07 220.10 178.43 C 216.34 200.01 214.84 206.65 213.48 207.63 C 211.34 209.20 204.23 210.72 193.00 212.01 C 168.03 214.87 145.06 210.69 141.13 202.55 C 139.19 198.54 139.37 164.90 141.44 145.00 C 142.33 136.47 143.23 129.01 143.44 128.41 C 143.66 127.75 150.00 126.82 159.16 126.09 C 177.70 124.62 202.26 122.18 206.84 121.35 C 210.17 120.74 210.17 120.74 205.62 116.12 C 201.06 111.49 201.06 111.49 205.04 94.05 C 211.49 65.84 212.23 63.84 218.06 58.82 C 223.07 54.50 223.07 54.50 211.34 45.74 C 199.60 36.98 199.60 36.98 196.05 40.34 C 190.41 45.67 185.69 47.98 177.31 49.53 C 168.19 51.22 131.52 54.95 122.62 55.10 C 119.25 55.15 115.47 55.49 114.22 55.85 C 112.07 56.46 112.30 56.86 117.96 62.46 C 123.99 68.43 123.99 68.43 131.93 66.76 C 140.97 64.86 187.79 59.45 188.55 60.22 C 189.37 61.04 179.84 110.39 178.62 111.66 C 177.57 112.75 153.18 116.00 146.06 116.00 C 143.63 116.00 140.12 114.11 132.16 108.51 C 121.50 101.02 121.50 101.02 120.86 103.76 C 119.75 108.55 117.57 158.70 117.54 180.50 C 117.50 203.17 118.41 208.87 123.25 216.04 C 127.70 222.64 138.07 227.80 152.50 230.59 C 163.03 232.62 196.18 231.82 211.02 229.17 Z "/>
</g>
</svg>