<?xml version="1.0" encoding="UTF-8" standalone="no"?>
<!DOCTYPE svg PUBLIC "-//W3C//DTD SVG 1.1//EN" "http://www.w3.org/Graphics/SVG/1.1/DTD/svg11.dtd" >
<svg xmlns="http://www.w3.org/2000/svg" xmlns:xlink="http://www.w3.org/1999/xlink" version="1.1" viewBox="0 0 256 256">
 <g >
 <path fill="currentColor"
d=" M 227.00 230.58 C 245.74 226.25 246.47 225.95 247.80 222.13 C 248.80 219.26 248.69 219.06 245.68 218.09 C 240.40 216.39 234.21 215.21 219.00 213.01 C 202.93 210.67 182.67 206.42 152.50 199.04 C 141.50 196.35 129.80 193.64 126.50 193.02 C 116.98 191.22 116.98 191.20 126.01 186.37 C 147.33 174.99 165.33 162.50 188.51 143.00 C 204.57 129.50 210.41 125.59 217.09 123.88 C 219.79 123.19 222.00 122.33 222.00 121.96 C 222.00 121.36 203.64 104.16 199.83 101.18 C 198.39 100.07 197.32 100.45 192.33 103.85 C 189.12 106.03 184.03 108.52 181.00 109.38 C 173.03 111.65 106.20 120.69 93.14 121.26 C 87.79 121.50 87.79 121.50 95.50 127.75 C 99.74 131.19 103.66 134.00 104.21 134.00 C 104.76 134.00 107.81 133.33 110.99 132.50 C 114.18 131.68 129.67 128.81 145.42 126.13 C 178.24 120.56 176.17 119.73 164.72 133.81 C 154.84 145.95 138.47 161.24 120.08 175.50 C 102.66 189.00 102.66 189.00 94.90 189.00 C 87.63 189.00 73.70 190.45 69.72 191.63 C 67.79 192.20 67.95 192.43 76.98 202.70 C 80.67 206.91 80.67 206.91 86.08 205.39 C 95.23 202.84 102.95 203.40 121.03 207.94 C 142.16 213.25 150.52 215.98 166.50 222.79 C 194.26 234.63 195.71 235.09 204.00 234.60 C 208.12 234.36 218.47 232.55 227.00 230.58 Z  M 56.43 218.90 C 58.30 212.63 65.46 191.00 72.34 170.84 C 84.86 134.18 84.86 134.18 81.75 132.90 C 79.14 131.82 78.51 131.84 77.78 133.06 C 77.31 133.85 72.39 142.15 66.84 151.50 C 54.84 171.74 39.09 195.91 36.54 197.99 C 35.42 198.90 31.91 199.62 27.39 199.85 C 15.34 200.45 15.59 201.00 35.19 216.79 C 44.71 224.46 52.62 230.64 52.77 230.52 C 52.92 230.40 54.57 225.17 56.43 218.90 Z  M 58.88 130.60 C 60.87 125.27 63.27 116.39 64.35 110.35 C 64.90 107.24 64.82 107.16 58.08 104.67 C 49.25 101.39 21.64 93.00 19.70 93.00 C 18.88 93.00 17.93 93.73 17.59 94.62 C 17.15 95.78 20.91 100.29 30.74 110.38 C 38.31 118.16 46.94 127.31 49.93 130.71 C 52.91 134.12 55.70 136.69 56.11 136.43 C 56.53 136.17 57.77 133.55 58.88 130.60 Z  M 159.06 106.42 C 163.27 100.30 169.19 88.12 168.50 87.01 C 167.75 85.78 158.20 80.46 145.61 74.25 C 135.73 69.37 135.73 69.37 154.11 64.61 C 164.23 62.00 179.25 58.03 187.50 55.80 C 195.75 53.56 206.18 50.99 210.68 50.08 C 218.86 48.42 218.86 48.42 205.79 38.46 C 198.60 32.98 192.11 28.14 191.35 27.70 C 190.45 27.16 188.39 28.22 185.24 30.84 C 173.14 40.90 139.68 56.12 103.50 68.00 C 96.35 70.35 90.38 72.37 90.23 72.49 C 90.08 72.61 90.26 73.51 90.64 74.49 C 91.24 76.07 92.25 76.21 99.41 75.68 C 103.86 75.35 111.52 74.38 116.43 73.51 C 121.35 72.64 125.93 72.14 126.62 72.41 C 128.12 72.98 139.32 89.57 147.46 103.26 C 153.91 114.12 153.78 114.09 159.06 106.42 Z  M 78.57 74.62 C 79.93 71.67 81.89 65.32 82.94 60.53 C 84.84 51.80 84.84 51.80 78.67 49.02 C 71.86 45.94 56.90 41.00 46.46 38.38 C 40.01 36.76 39.65 36.76 38.39 38.48 C 37.20 40.10 39.00 42.28 56.29 60.09 C 66.85 70.98 75.64 79.92 75.81 79.95 C 75.97 79.98 77.22 77.58 78.57 74.62 Z "/>
</g>
</svg>