<?xml version="1.0" encoding="UTF-8" standalone="no"?>
<!DOCTYPE svg PUBLIC "-//W3C//DTD SVG 1.1//EN" "http://www.w3.org/Graphics/SVG/1.1/DTD/svg11.dtd" >
<svg xmlns="http://www.w3.org/2000/svg" xmlns:xlink="http://www.w3.org/1999/xlink" version="1.1" viewBox="0 0 256 256">
 <g >
 <path fill="currentColor"
d=" M 214.52 218.35 C 214.20 216.61 213.40 214.99 212.72 214.74 C 212.05 214.49 198.00 211.03 181.50 207.07 C 165.00 203.10 150.89 199.66 150.15 199.42 C 149.29 199.14 151.54 196.08 156.39 190.92 C 163.34 183.54 169.17 175.51 176.14 163.75 C 178.77 159.30 178.77 159.30 186.14 158.67 C 190.19 158.32 204.35 157.74 217.62 157.37 C 241.74 156.70 241.74 156.70 235.40 148.48 C 229.05 140.25 229.05 140.25 223.34 142.14 C 216.17 144.50 208.43 145.71 194.87 146.58 C 184.23 147.26 184.23 147.26 173.97 141.63 C 168.32 138.53 163.35 136.00 162.92 136.00 C 162.18 136.00 158.00 146.13 158.00 147.93 C 158.00 148.39 151.59 149.07 143.75 149.42 C 135.91 149.78 127.28 150.33 124.56 150.65 C 119.61 151.24 119.61 151.24 124.06 146.01 C 134.27 133.98 134.28 135.79 124.02 129.79 C 114.96 124.50 114.96 124.50 135.73 123.32 C 147.15 122.67 162.57 121.66 170.00 121.07 C 177.43 120.48 188.56 120.00 194.75 120.00 C 200.94 120.00 206.00 119.68 206.00 119.29 C 206.00 118.90 204.45 116.99 202.55 115.04 C 199.10 111.50 199.10 111.50 203.00 97.50 C 206.77 84.01 207.07 83.35 211.45 79.45 C 216.00 75.39 216.00 75.39 206.29 68.58 C 199.85 64.07 196.16 62.07 195.34 62.64 C 194.66 63.11 192.26 64.81 190.00 66.42 C 186.39 68.99 184.62 69.45 174.93 70.31 C 168.89 70.85 163.64 70.97 163.26 70.59 C 162.88 70.21 163.34 66.93 164.29 63.29 C 165.25 59.66 165.88 56.55 165.71 56.37 C 165.53 56.20 162.09 54.53 158.06 52.66 C 150.73 49.26 150.73 49.26 156.61 48.48 C 159.85 48.05 173.18 47.43 186.24 47.10 C 209.98 46.50 209.98 46.50 204.41 39.50 C 201.36 35.65 198.48 32.11 198.02 31.64 C 197.56 31.17 194.65 31.74 191.52 32.91 C 188.41 34.07 181.95 35.69 177.18 36.49 C 168.57 37.95 128.38 40.91 89.00 42.97 C 42.94 45.39 47.28 44.67 51.65 49.19 C 59.32 57.11 59.97 57.36 68.52 55.59 C 72.65 54.74 80.24 53.74 85.39 53.38 C 94.75 52.72 94.75 52.72 95.85 59.11 C 96.45 62.63 97.24 68.01 97.59 71.08 C 98.23 76.65 98.23 76.65 82.37 77.94 C 68.30 79.08 65.73 79.04 59.69 77.61 C 49.60 75.23 49.71 75.18 51.92 80.79 C 54.62 87.64 58.76 106.82 60.12 118.75 C 61.01 126.62 61.65 129.06 62.89 129.40 C 63.77 129.64 68.83 130.14 74.13 130.51 C 83.75 131.17 83.75 131.17 83.28 128.71 C 82.82 126.25 82.82 126.25 93.66 125.56 C 99.62 125.18 105.29 124.64 106.25 124.37 C 109.35 123.48 108.26 127.32 101.75 140.16 C 95.50 152.50 95.50 152.50 75.50 154.23 C 64.50 155.18 47.07 156.08 36.76 156.23 C 26.45 156.38 18.01 156.74 18.01 157.03 C 18.00 157.32 20.84 160.37 24.32 163.82 C 30.63 170.08 30.63 170.08 37.57 169.01 C 45.52 167.78 87.31 164.11 87.87 164.59 C 88.44 165.07 79.07 177.95 74.67 182.73 C 70.78 186.96 70.78 186.96 73.64 188.06 C 75.21 188.66 83.70 191.87 92.50 195.20 C 114.51 203.51 113.32 202.52 106.39 206.69 C 92.62 214.99 58.83 229.96 42.50 235.01 C 37.03 236.70 36.62 237.29 39.24 239.76 C 41.51 241.89 41.51 241.89 51.00 240.04 C 78.57 234.66 101.93 226.65 127.12 213.94 C 132.82 211.06 132.82 211.06 149.16 217.38 C 168.06 224.69 196.15 236.27 207.00 241.22 C 214.50 244.64 214.50 244.64 214.80 233.07 C 214.96 226.71 214.84 220.08 214.52 218.35 Z  M 107.00 188.60 C 97.92 186.28 90.62 183.96 90.76 183.44 C 90.91 182.92 95.06 178.16 99.98 172.86 C 108.94 163.22 108.94 163.22 118.22 162.56 C 123.32 162.20 132.82 161.43 139.31 160.85 C 145.81 160.27 151.38 160.04 151.68 160.35 C 153.93 162.60 128.38 193.25 124.55 192.91 C 123.97 192.85 116.08 190.92 107.00 188.60 Z  M 80.20 111.75 C 77.66 99.80 75.74 88.93 76.11 88.56 C 76.32 88.35 81.72 87.85 88.09 87.46 C 99.69 86.75 99.69 86.75 100.38 99.12 C 100.77 105.92 101.32 112.43 101.61 113.59 C 102.09 115.49 101.60 115.77 96.82 116.34 C 93.89 116.70 89.21 116.99 86.41 116.99 C 81.32 117.00 81.32 117.00 80.20 111.75 Z  M 119.99 109.38 C 119.99 106.15 119.70 99.17 119.35 93.87 C 118.71 84.24 118.71 84.24 129.91 83.51 C 136.07 83.10 141.34 83.00 141.61 83.28 C 141.89 83.56 141.58 90.35 140.91 98.37 C 139.53 115.00 140.66 113.55 128.25 114.58 C 120.00 115.26 120.00 115.26 119.99 109.38 Z  M 157.05 109.40 C 157.08 107.81 158.09 100.88 159.30 94.00 C 161.50 81.50 161.50 81.50 172.78 80.61 C 178.98 80.12 184.28 79.95 184.55 80.21 C 185.07 80.74 178.66 109.67 177.85 110.49 C 177.58 110.75 172.78 111.27 167.18 111.63 C 157.00 112.30 157.00 112.30 157.05 109.40 Z  M 118.80 67.97 C 118.50 60.66 118.50 60.66 107.82 57.08 C 101.95 55.11 96.88 53.24 96.57 52.91 C 95.93 52.26 114.45 50.41 131.89 49.37 C 143.29 48.70 143.29 48.70 142.79 60.87 C 142.51 67.57 142.10 73.23 141.88 73.46 C 141.65 73.68 136.44 74.18 130.28 74.57 C 119.09 75.28 119.09 75.28 118.80 67.97 Z "/>
</g>
</svg>