<?xml version="1.0" encoding="UTF-8" standalone="no"?>
<!DOCTYPE svg PUBLIC "-//W3C//DTD SVG 1.1//EN" "http://www.w3.org/Graphics/SVG/1.1/DTD/svg11.dtd" >
<svg xmlns="http://www.w3.org/2000/svg" xmlns:xlink="http://www.w3.org/1999/xlink" version="1.1" viewBox="0 0 256 256">
 <g >
 <path fill="currentColor"
d=" M 187.83 225.00 C 190.40 219.50 190.40 219.50 190.17 171.50 C 189.96 127.54 190.94 89.38 192.57 77.96 C 193.22 73.41 193.22 73.41 182.86 68.96 C 172.50 64.50 172.50 64.50 184.50 63.33 C 191.10 62.68 207.41 61.82 220.75 61.42 C 234.09 61.01 245.00 60.40 245.00 60.06 C 245.00 59.60 234.05 45.92 231.48 43.17 C 231.31 42.99 227.94 44.01 223.99 45.44 C 220.04 46.86 212.68 48.68 207.65 49.48 C 196.65 51.22 111.39 59.00 103.26 59.00 C 97.52 59.00 97.52 59.00 104.18 65.67 C 110.85 72.33 110.85 72.33 120.67 70.71 C 134.44 68.43 162.81 65.47 163.57 66.24 C 163.92 66.59 164.70 70.62 165.30 75.19 C 166.77 86.44 166.91 207.49 165.45 208.95 C 164.72 209.68 158.55 209.40 144.99 208.00 C 134.32 206.90 125.28 206.00 124.91 206.00 C 124.15 206.00 121.52 211.93 122.12 212.31 C 122.33 212.45 129.62 216.82 138.32 222.03 C 147.03 227.24 158.05 234.49 162.82 238.15 C 171.50 244.80 171.50 244.80 178.38 237.65 C 182.33 233.54 186.35 228.16 187.83 225.00 Z  M 96.57 185.57 C 107.81 171.93 117.00 160.43 117.00 160.04 C 117.00 159.64 116.21 158.60 115.25 157.74 C 113.63 156.29 112.14 157.02 95.50 167.42 C 85.60 173.60 77.34 178.26 77.14 177.77 C 76.68 176.59 79.91 129.36 81.01 121.24 C 81.64 116.57 82.63 113.99 84.93 111.09 C 86.62 108.96 88.00 106.94 88.00 106.61 C 88.00 106.09 71.62 93.68 68.15 91.58 C 67.24 91.03 65.30 92.20 62.15 95.19 C 59.59 97.62 56.79 100.14 55.93 100.78 C 54.29 102.00 24.71 106.00 17.31 106.00 C 14.94 106.00 13.01 106.34 13.03 106.75 C 13.05 107.16 15.21 109.91 17.83 112.87 C 22.59 118.23 22.59 118.23 30.04 116.69 C 39.02 114.84 57.77 112.44 58.38 113.06 C 58.98 113.67 56.30 162.10 54.92 175.48 C 53.78 186.57 51.57 193.98 47.88 199.17 C 45.86 202.01 45.86 202.01 48.68 204.37 C 71.25 223.30 69.11 222.27 72.79 216.05 C 74.63 212.94 85.33 199.22 96.57 185.57 Z  M 88.43 68.38 C 95.30 54.44 95.37 54.75 83.79 47.00 C 74.13 40.54 51.29 28.00 49.18 28.00 C 48.57 28.00 47.60 28.87 47.03 29.94 C 46.16 31.57 47.60 34.10 56.34 46.21 C 62.03 54.09 69.75 65.15 73.50 70.78 C 81.59 82.92 81.23 82.98 88.43 68.38 Z "/>
</g>
</svg>