<?xml version="1.0" encoding="UTF-8" standalone="no"?>
<!DOCTYPE svg PUBLIC "-//W3C//DTD SVG 1.1//EN" "http://www.w3.org/Graphics/SVG/1.1/DTD/svg11.dtd" >
<svg xmlns="http://www.w3.org/2000/svg" xmlns:xlink="http://www.w3.org/1999/xlink" version="1.1" viewBox="0 0 256 256">
 <g >
 <path fill="currentColor"
d=" M 196.38 201.51 C 205.11 213.27 213.21 223.76 214.38 224.81 C 217.32 227.48 222.24 228.02 237.10 227.31 C 249.91 226.70 249.91 226.70 250.90 223.85 C 251.88 221.04 251.74 220.91 238.70 212.08 C 222.88 201.37 207.98 189.53 192.24 175.16 C 180.61 164.54 180.61 164.54 200.56 162.82 C 211.53 161.87 224.44 160.81 229.25 160.46 C 234.06 160.11 237.98 159.52 237.96 159.16 C 237.94 158.80 235.56 155.87 232.67 152.66 C 227.42 146.82 227.42 146.82 221.96 148.36 C 215.96 150.05 199.61 152.54 188.19 153.51 C 180.88 154.13 180.88 154.13 181.55 150.56 C 182.19 147.17 182.07 146.96 179.11 146.37 C 177.40 146.03 176.00 145.22 176.00 144.58 C 176.00 143.93 177.86 141.63 180.12 139.45 C 187.05 132.82 187.80 130.01 188.13 109.70 C 188.42 91.90 188.42 91.90 183.96 89.22 C 179.50 86.53 179.50 86.53 192.30 85.14 C 199.34 84.38 205.29 83.95 205.52 84.19 C 205.75 84.42 204.41 89.50 202.53 95.49 C 199.36 105.57 199.24 106.46 200.81 107.65 C 201.74 108.36 202.74 108.95 203.04 108.97 C 203.33 108.99 206.50 106.41 210.08 103.25 C 222.14 92.58 226.67 89.08 231.74 86.54 C 234.52 85.14 237.37 84.00 238.07 84.00 C 239.68 84.00 236.71 80.79 226.78 71.82 C 219.05 64.84 219.05 64.84 213.07 69.03 C 206.87 73.38 201.17 75.10 188.16 76.57 C 181.82 77.28 181.82 77.28 183.91 73.18 C 186.64 67.82 186.58 67.46 182.75 66.36 C 179.50 65.42 179.50 65.42 190.50 59.51 C 206.62 50.85 208.27 50.13 216.44 48.20 C 223.89 46.44 223.89 46.44 215.92 36.97 C 211.54 31.76 207.63 27.50 207.23 27.50 C 206.83 27.51 203.12 29.20 199.00 31.28 C 193.34 34.12 189.54 35.27 183.50 35.96 C 179.10 36.46 168.38 37.80 159.68 38.94 C 150.98 40.07 141.53 41.05 138.68 41.12 C 135.83 41.18 132.29 41.52 130.81 41.87 C 128.12 42.50 128.12 42.50 132.26 46.93 C 136.40 51.35 136.40 51.35 158.95 48.66 C 171.35 47.17 182.05 45.97 182.73 45.98 C 183.41 45.99 181.23 49.83 177.89 54.50 C 174.54 59.17 171.29 63.00 170.65 63.00 C 170.02 63.00 165.81 62.27 161.30 61.37 C 153.30 59.79 150.00 59.94 150.00 61.91 C 150.00 62.45 154.59 66.40 160.19 70.69 C 170.39 78.50 170.39 78.50 161.94 79.75 C 157.30 80.44 144.84 81.29 134.25 81.64 C 123.66 81.99 115.00 82.57 115.00 82.92 C 115.00 83.28 117.43 85.97 120.41 88.91 C 125.82 94.25 125.82 94.25 137.16 92.68 C 143.40 91.82 151.41 90.81 154.96 90.43 C 161.42 89.75 161.42 89.75 155.32 96.63 C 141.81 111.84 113.00 137.84 113.00 134.81 C 113.00 130.94 117.27 119.33 119.58 116.92 C 122.20 114.19 122.20 114.19 116.85 110.80 C 103.00 102.02 104.39 102.45 100.56 105.81 C 97.38 108.60 90.12 111.00 84.84 111.00 C 83.05 111.00 82.86 110.56 83.39 107.72 C 84.00 104.46 83.98 104.44 75.25 100.03 C 66.50 95.62 66.50 95.62 72.00 94.87 C 75.03 94.46 82.22 93.85 88.00 93.51 C 93.78 93.17 99.57 92.66 100.88 92.39 C 103.25 91.90 103.25 91.90 101.02 89.52 C 98.94 87.31 98.83 86.54 99.44 78.82 C 100.61 64.18 99.61 65.44 111.09 64.14 C 116.58 63.51 123.31 63.00 126.04 63.00 C 128.77 63.00 131.00 62.65 131.00 62.22 C 131.00 61.78 128.62 59.08 125.71 56.20 C 120.41 50.98 120.41 50.98 112.55 52.99 C 108.22 54.09 104.08 55.00 103.34 55.00 C 101.44 55.00 101.64 52.93 104.72 40.66 C 107.40 29.97 107.41 29.81 105.47 28.66 C 104.39 28.03 99.63 25.38 94.90 22.79 C 86.29 18.08 86.29 18.08 85.57 33.79 C 85.17 42.43 84.53 51.30 84.16 53.50 C 83.48 57.43 83.39 57.51 78.49 58.09 C 75.74 58.42 71.08 59.05 68.13 59.49 C 62.77 60.29 62.77 60.29 63.13 46.47 C 63.50 32.65 63.50 32.65 53.10 28.31 C 47.38 25.92 42.52 24.15 42.29 24.38 C 42.06 24.61 42.33 26.53 42.89 28.65 C 44.09 33.19 46.26 60.77 45.51 61.98 C 45.23 62.44 38.69 63.14 30.98 63.54 C 23.27 63.93 16.76 64.57 16.52 64.96 C 16.29 65.35 18.29 67.83 20.98 70.48 C 25.87 75.30 25.87 75.30 31.60 74.15 C 34.76 73.52 39.56 73.00 42.29 73.00 C 47.25 73.00 47.25 73.00 46.82 84.83 C 46.40 96.66 46.40 96.66 54.60 99.50 C 62.79 102.34 62.79 102.34 63.45 107.32 C 63.81 110.05 63.73 112.67 63.26 113.14 C 62.79 113.61 58.38 114.26 53.45 114.58 C 45.51 115.10 43.66 114.87 37.07 112.58 C 32.99 111.16 29.30 110.00 28.88 110.00 C 28.45 110.00 28.51 111.24 29.01 112.75 C 29.80 115.17 33.52 146.94 34.23 157.40 C 34.50 161.31 34.50 161.31 43.00 163.64 C 47.67 164.92 51.88 165.98 52.34 165.98 C 52.80 165.99 52.88 164.26 52.52 162.13 C 51.87 158.26 51.87 158.26 57.68 157.75 C 60.88 157.48 63.50 157.31 63.50 157.38 C 63.50 157.44 63.36 162.04 63.19 167.59 C 62.87 177.67 62.87 177.67 51.19 178.97 C 44.76 179.68 33.54 180.47 26.25 180.73 C 13.00 181.20 13.00 181.20 17.75 187.09 C 21.99 192.35 22.82 192.92 25.50 192.50 C 42.45 189.79 62.39 187.06 62.73 187.39 C 63.53 188.19 59.84 225.52 58.47 230.47 C 57.40 234.31 57.36 235.61 58.30 236.20 C 58.96 236.62 64.06 238.50 69.64 240.37 C 79.79 243.78 79.79 243.78 80.52 214.97 C 81.25 186.16 81.25 186.16 87.37 185.10 C 90.74 184.51 99.35 183.56 106.50 182.98 C 113.65 182.40 120.04 181.83 120.71 181.71 C 121.37 181.60 119.40 178.50 116.32 174.84 C 110.73 168.19 110.73 168.19 106.38 170.05 C 103.98 171.08 98.43 172.60 94.04 173.43 C 89.65 174.26 84.85 175.25 83.37 175.62 C 80.68 176.30 80.68 176.30 81.36 165.96 C 81.73 160.28 82.15 155.52 82.29 155.37 C 82.44 155.23 88.62 154.62 96.03 154.02 C 103.44 153.42 110.98 152.70 112.78 152.41 C 116.06 151.90 116.06 151.90 114.03 149.31 C 112.67 147.58 112.00 145.24 112.00 142.21 C 112.00 137.82 112.05 137.74 113.92 139.43 C 115.74 141.08 116.05 141.07 120.17 139.23 C 132.49 133.73 151.63 120.32 163.87 108.60 C 170.25 102.50 170.25 102.50 169.63 106.50 C 169.30 108.70 169.02 113.21 169.01 116.52 C 169.00 122.54 169.00 122.54 161.38 122.15 C 154.18 121.79 152.09 122.44 152.02 125.05 C 152.01 125.36 155.94 128.80 160.75 132.70 C 165.56 136.61 170.62 141.02 172.00 142.50 C 174.50 145.21 174.50 145.21 170.50 143.51 C 164.39 140.91 160.93 139.73 160.59 140.13 C 160.41 140.34 160.65 143.87 161.10 147.99 C 161.56 152.10 161.61 155.77 161.21 156.13 C 160.63 156.68 129.40 159.37 113.25 160.26 C 108.99 160.50 108.99 160.50 114.25 166.36 C 119.50 172.22 119.50 172.22 124.00 170.99 C 128.49 169.76 149.18 167.05 149.86 167.60 C 150.64 168.23 135.67 187.05 126.84 196.54 C 113.62 210.75 103.62 219.75 91.06 228.74 C 90.81 228.91 91.54 229.98 92.66 231.11 C 94.72 233.16 94.72 233.16 103.66 228.67 C 121.55 219.69 146.05 200.91 156.47 188.18 C 159.21 184.85 161.51 182.20 161.58 182.31 C 161.65 182.41 161.37 191.95 160.96 203.50 C 160.48 216.85 159.62 227.01 158.58 231.40 C 157.69 235.19 157.23 238.57 157.55 238.90 C 157.87 239.23 162.95 241.11 168.82 243.08 C 179.50 246.67 179.50 246.67 180.00 213.40 C 180.50 180.12 180.50 180.12 196.38 201.51 Z  M 51.55 147.75 C 51.34 147.06 50.90 141.48 50.57 135.34 C 49.98 124.18 49.98 124.18 56.24 123.28 C 59.68 122.78 62.84 122.54 63.25 122.75 C 63.66 122.95 64.00 128.66 64.00 135.42 C 64.00 147.73 64.00 147.73 59.36 148.36 C 52.91 149.25 51.99 149.18 51.55 147.75 Z  M 82.48 133.38 C 82.88 126.30 83.27 120.44 83.35 120.37 C 83.43 120.30 86.54 119.93 90.25 119.54 C 96.70 118.87 97.00 118.94 97.00 120.98 C 97.00 122.81 93.94 144.21 93.61 144.65 C 93.55 144.74 90.85 145.13 87.62 145.53 C 81.74 146.26 81.74 146.26 82.48 133.38 Z  M 64.70 86.37 C 64.32 85.98 64.00 81.98 64.00 77.47 C 64.00 69.28 64.00 69.28 69.25 68.65 C 72.14 68.30 76.55 68.01 79.05 68.01 C 83.60 68.00 83.60 68.00 82.55 77.25 C 81.50 86.50 81.50 86.50 73.45 86.79 C 69.03 86.95 65.09 86.76 64.70 86.37 Z "/>
</g>
</svg>