<?xml version="1.0" encoding="UTF-8" standalone="no"?>
<!DOCTYPE svg PUBLIC "-//W3C//DTD SVG 1.1//EN" "http://www.w3.org/Graphics/SVG/1.1/DTD/svg11.dtd" >
<svg xmlns="http://www.w3.org/2000/svg" xmlns:xlink="http://www.w3.org/1999/xlink" version="1.1" viewBox="0 0 256 256">
 <g >
 <path fill="currentColor"
d=" M 90.24 209.00 C 117.44 195.25 139.99 184.00 140.35 184.00 C 140.71 184.00 141.00 186.92 141.00 190.50 C 141.00 196.99 141.00 196.99 177.99 215.50 C 214.99 234.00 214.99 234.00 228.49 234.00 C 242.00 234.00 242.00 234.00 242.00 220.57 C 242.00 207.15 242.00 207.15 205.60 188.57 C 169.21 170.00 169.21 170.00 158.06 170.00 C 146.92 170.00 146.92 170.00 147.21 161.25 C 147.50 152.50 147.50 152.50 192.80 152.24 C 238.10 151.98 238.10 151.98 242.05 143.39 C 244.22 138.67 246.00 134.62 246.00 134.40 C 246.00 134.18 223.73 134.00 196.50 134.00 C 150.01 134.00 147.00 133.89 147.03 132.25 C 147.05 131.29 144.05 127.75 140.36 124.40 C 133.66 118.30 133.66 118.30 140.33 113.06 C 147.00 107.82 147.00 107.82 147.00 72.61 C 147.00 37.40 147.00 37.40 137.85 29.53 C 132.81 25.21 128.15 21.67 127.49 21.67 C 126.82 21.67 121.94 25.20 116.64 29.52 C 107.00 37.37 107.00 37.37 107.00 72.59 C 107.00 107.82 107.00 107.82 113.67 113.06 C 120.34 118.30 120.34 118.30 113.64 124.40 C 109.95 127.75 106.95 131.28 106.97 132.24 C 107.00 133.86 103.98 134.00 61.42 134.24 C 15.83 134.50 15.83 134.50 12.56 143.00 C 9.28 151.50 9.28 151.50 57.89 152.00 C 106.50 152.50 106.50 152.50 106.50 155.87 C 106.50 159.25 106.50 159.25 60.50 183.03 C 14.50 206.82 14.50 206.82 14.22 220.41 C 13.94 234.00 13.94 234.00 27.37 234.00 C 40.79 234.00 40.79 234.00 90.24 209.00 Z  M 69.71 92.21 C 93.92 69.50 93.92 69.50 93.96 56.75 C 94.00 44.00 94.00 44.00 79.74 44.00 C 65.49 44.00 65.49 44.00 40.74 66.69 C 16.00 89.38 16.00 89.38 16.00 102.19 C 16.00 115.00 16.00 115.00 30.75 114.96 C 45.50 114.92 45.50 114.92 69.71 92.21 Z  M 240.00 102.19 C 240.00 89.38 240.00 89.38 215.26 66.69 C 190.51 44.00 190.51 44.00 175.76 44.00 C 161.00 44.00 161.00 44.00 161.04 56.75 C 161.08 69.50 161.08 69.50 185.79 92.21 C 210.50 114.93 210.50 114.93 225.25 114.96 C 240.00 115.00 240.00 115.00 240.00 102.19 Z "/>
</g>
</svg>