<?xml version="1.0" encoding="UTF-8" standalone="no"?>
<!DOCTYPE svg PUBLIC "-//W3C//DTD SVG 1.1//EN" "http://www.w3.org/Graphics/SVG/1.1/DTD/svg11.dtd" >
<svg xmlns="http://www.w3.org/2000/svg" xmlns:xlink="http://www.w3.org/1999/xlink" version="1.1" viewBox="0 0 256 256">
 <g >
 <path fill="currentColor"
d=" M 40.75 227.71 C 50.00 219.82 50.00 219.82 50.00 192.91 C 50.00 166.00 50.00 166.00 58.00 166.00 C 66.00 166.00 66.00 166.00 66.00 189.00 C 66.00 212.00 66.00 212.00 61.01 212.00 C 56.02 212.00 56.02 212.00 51.51 220.98 C 49.03 225.92 47.00 230.19 47.00 230.48 C 47.00 230.77 55.70 231.00 66.33 231.00 C 85.67 231.00 85.67 231.00 96.33 222.85 C 107.00 214.70 107.00 214.70 107.00 126.43 C 107.00 38.16 107.00 38.16 96.46 29.49 C 84.48 19.63 87.44 19.40 72.50 31.38 C 65.50 36.99 65.50 36.99 57.31 36.99 C 49.12 37.00 49.12 37.00 39.58 28.91 C 30.03 20.82 30.03 20.82 19.52 29.16 C 9.01 37.50 9.01 37.50 9.01 128.69 C 9.00 219.88 9.00 219.88 19.25 228.33 C 24.89 232.98 29.95 236.52 30.50 236.20 C 31.05 235.87 35.66 232.05 40.75 227.71 Z  M 154.94 216.51 C 165.84 206.86 172.77 201.38 173.44 201.91 C 174.02 202.38 183.21 209.34 193.87 217.38 C 213.23 232.00 213.23 232.00 227.65 232.00 C 242.06 232.00 242.06 232.00 241.78 220.31 C 241.50 208.63 241.50 208.63 221.03 192.90 C 209.77 184.24 200.42 176.77 200.26 176.28 C 200.02 175.55 230.87 146.54 243.64 135.50 C 247.11 132.50 247.11 132.50 240.97 121.25 C 234.83 110.00 234.83 110.00 224.78 110.00 C 214.73 110.00 214.73 110.00 219.95 105.75 C 224.93 101.69 225.52 101.48 233.28 101.00 C 241.40 100.50 241.40 100.50 245.07 92.00 C 248.73 83.50 248.73 83.50 242.12 83.00 C 235.50 82.50 235.50 82.50 235.22 60.00 C 234.94 37.50 234.94 37.50 224.50 29.64 C 214.05 21.77 214.05 21.77 203.90 29.89 C 193.74 38.00 193.74 38.00 174.24 38.00 C 154.73 38.00 154.73 38.00 145.20 30.33 C 139.95 26.12 135.15 22.67 134.53 22.67 C 133.90 22.67 129.03 25.95 123.70 29.96 C 114.00 37.24 114.00 37.24 114.00 65.53 C 114.00 93.81 114.00 93.81 123.67 101.65 C 133.33 109.50 133.33 109.50 124.46 110.00 C 115.60 110.50 115.60 110.50 111.86 119.00 C 109.81 123.67 108.10 127.83 108.06 128.24 C 108.03 128.65 128.05 129.10 152.55 129.24 C 197.10 129.50 197.10 129.50 185.36 140.00 C 178.90 145.78 172.60 151.31 171.34 152.30 C 169.07 154.09 168.98 154.04 155.07 143.55 C 141.07 133.00 141.07 133.00 127.04 133.00 C 113.00 133.00 113.00 133.00 113.00 144.81 C 113.00 156.63 113.00 156.63 127.95 167.56 C 136.17 173.58 142.92 178.77 142.95 179.10 C 142.98 179.43 136.03 186.18 127.50 194.10 C 112.00 208.49 112.00 208.49 112.00 220.24 C 112.00 232.00 112.00 232.00 124.75 231.98 C 137.50 231.95 137.50 231.95 154.94 216.51 Z  M 50.00 128.96 C 50.00 110.92 50.00 110.92 57.75 111.21 C 65.50 111.50 65.50 111.50 65.77 129.25 C 66.05 147.00 66.05 147.00 58.02 147.00 C 50.00 147.00 50.00 147.00 50.00 128.96 Z  M 50.00 74.00 C 50.00 56.00 50.00 56.00 58.00 56.00 C 66.00 56.00 66.00 56.00 66.00 74.00 C 66.00 92.00 66.00 92.00 58.00 92.00 C 50.00 92.00 50.00 92.00 50.00 74.00 Z  M 136.00 109.60 C 136.00 109.38 140.28 105.72 145.50 101.47 C 155.00 93.75 155.00 93.75 155.00 75.38 C 155.00 57.00 155.00 57.00 174.00 57.00 C 193.00 57.00 193.00 57.00 193.03 75.25 C 193.06 93.50 193.06 93.50 203.03 101.44 C 208.51 105.81 213.00 109.52 213.00 109.69 C 213.00 109.86 195.68 110.00 174.50 110.00 C 153.32 110.00 136.00 109.82 136.00 109.60 Z "/>
</g>
</svg>