<?xml version="1.0" encoding="UTF-8" standalone="no"?>
<!DOCTYPE svg PUBLIC "-//W3C//DTD SVG 1.1//EN" "http://www.w3.org/Graphics/SVG/1.1/DTD/svg11.dtd" >
<svg xmlns="http://www.w3.org/2000/svg" xmlns:xlink="http://www.w3.org/1999/xlink" version="1.1" viewBox="0 0 256 256">
 <g >
 <path fill="currentColor"
d=" M 137.25 226.24 C 146.99 218.50 146.99 218.50 147.00 201.25 C 147.00 184.00 147.00 184.00 192.49 184.00 C 237.97 184.00 237.97 184.00 240.87 178.25 C 242.47 175.09 244.47 170.81 245.33 168.75 C 246.90 165.00 246.90 165.00 131.91 165.00 C 16.93 165.00 16.93 165.00 12.65 174.25 C 8.36 183.50 8.36 183.50 57.68 183.76 C 107.00 184.02 107.00 184.02 107.00 199.51 C 107.00 215.00 107.00 215.00 94.75 214.92 C 83.27 214.84 82.70 214.75 85.75 213.42 C 89.00 211.99 89.00 211.99 89.00 200.00 C 89.00 188.00 89.00 188.00 75.49 188.00 C 61.97 188.00 61.97 188.00 37.74 197.92 C 13.50 207.84 13.50 207.84 13.22 219.92 C 12.94 232.00 12.94 232.00 25.98 232.00 C 39.01 232.00 39.01 232.00 60.01 223.59 C 71.55 218.97 81.00 215.55 81.00 216.00 C 81.00 216.45 79.42 220.50 77.50 225.00 C 75.58 229.50 74.00 233.36 74.00 233.59 C 74.00 233.81 86.04 234.00 100.75 233.99 C 127.50 233.98 127.50 233.98 137.25 226.24 Z  M 241.78 219.89 C 241.50 207.79 241.50 207.79 217.00 197.94 C 192.50 188.10 192.50 188.10 178.75 188.05 C 165.00 188.00 165.00 188.00 165.00 199.90 C 165.00 211.79 165.00 211.79 189.75 221.80 C 214.50 231.82 214.50 231.82 228.28 231.91 C 242.06 232.00 242.06 232.00 241.78 219.89 Z  M 231.73 147.00 C 233.29 143.03 233.34 143.00 238.65 143.00 C 244.00 143.00 244.00 143.00 244.00 131.18 C 244.00 119.36 244.00 119.36 219.75 112.06 C 177.07 99.21 178.02 100.58 211.45 100.00 C 240.40 99.50 240.40 99.50 244.06 91.00 C 247.72 82.50 247.72 82.50 216.36 82.24 C 199.11 82.09 185.03 81.64 185.07 81.24 C 185.10 80.83 189.38 76.97 194.57 72.65 C 200.35 67.84 204.00 64.07 204.00 62.92 C 204.00 61.16 205.16 61.03 222.61 60.77 C 241.22 60.50 241.22 60.50 245.00 51.00 C 248.78 41.50 248.78 41.50 226.39 41.23 C 204.00 40.96 204.00 40.96 203.99 38.23 C 203.99 36.08 202.66 34.45 197.74 30.56 C 194.31 27.84 189.84 24.30 187.81 22.69 C 184.13 19.77 184.13 19.77 173.56 27.95 C 165.28 34.37 163.00 36.66 163.00 38.57 C 163.00 41.00 163.00 41.00 127.50 41.00 C 92.00 41.00 92.00 41.00 92.00 38.57 C 92.00 36.66 89.73 34.38 81.51 28.01 C 74.57 22.64 70.59 20.16 69.73 20.69 C 69.02 21.14 64.29 24.64 59.22 28.48 C 51.49 34.33 50.00 35.91 50.00 38.23 C 50.00 41.00 50.00 41.00 33.47 41.00 C 16.93 41.00 16.93 41.00 12.47 50.62 C 10.01 55.92 8.00 60.42 8.00 60.62 C 8.00 60.83 17.45 61.00 29.00 61.00 C 48.88 61.00 50.00 61.10 50.00 62.88 C 50.00 63.92 52.12 66.45 54.75 68.56 C 72.38 82.68 73.59 81.44 41.49 82.00 C 12.56 82.50 12.56 82.50 9.44 91.00 C 6.32 99.50 6.32 99.50 25.91 100.00 C 45.50 100.50 45.50 100.50 27.25 109.93 C 9.00 119.36 9.00 119.36 9.00 131.18 C 9.00 143.00 9.00 143.00 17.46 143.00 C 25.91 143.00 25.91 143.00 24.50 147.00 C 23.09 151.00 23.09 151.00 126.62 151.00 C 230.16 151.00 230.16 151.00 231.73 147.00 Z  M 87.00 116.29 C 117.50 100.68 117.50 100.68 134.22 100.27 C 150.94 99.87 150.94 99.87 151.22 111.64 C 151.50 123.42 151.50 123.42 164.57 127.06 C 171.76 129.07 178.28 130.97 179.07 131.28 C 179.86 131.59 152.60 131.86 118.50 131.87 C 56.50 131.91 56.50 131.91 87.00 116.29 Z  M 72.00 81.15 C 72.00 80.69 76.50 76.75 82.00 72.40 C 87.84 67.79 92.00 63.77 92.00 62.75 C 92.00 61.12 94.36 61.00 127.50 61.00 C 160.64 61.00 163.00 61.12 163.00 62.75 C 163.00 63.77 167.16 67.79 173.00 72.40 C 178.50 76.75 183.00 80.70 183.00 81.17 C 183.00 81.65 174.34 81.92 163.75 81.77 C 144.50 81.50 144.50 81.50 144.21 72.25 C 143.92 63.00 143.92 63.00 130.81 63.00 C 117.69 63.00 117.69 63.00 99.79 72.50 C 84.14 80.81 81.28 82.00 76.95 82.00 C 74.23 82.00 72.00 81.62 72.00 81.15 Z "/>
</g>
</svg>