<?xml version="1.0" encoding="UTF-8" standalone="no"?>
<!DOCTYPE svg PUBLIC "-//W3C//DTD SVG 1.1//EN" "http://www.w3.org/Graphics/SVG/1.1/DTD/svg11.dtd" >
<svg xmlns="http://www.w3.org/2000/svg" xmlns:xlink="http://www.w3.org/1999/xlink" version="1.1" viewBox="0 0 256 256">
 <g >
 <path fill="currentColor"
d=" M 84.46 217.08 C 88.42 212.99 88.42 212.99 83.50 208.00 C 78.58 203.00 78.58 203.00 126.79 203.00 C 175.00 203.00 175.00 203.00 175.00 209.00 C 175.00 215.00 175.00 215.00 149.20 215.00 C 121.16 215.00 123.30 213.87 116.44 232.25 C 115.82 233.90 118.12 234.00 156.00 234.00 C 196.22 234.00 196.22 234.00 206.06 226.25 C 215.90 218.50 215.90 218.50 215.95 210.78 C 216.00 203.06 216.00 203.06 228.11 202.78 C 240.22 202.50 240.22 202.50 244.01 193.00 C 247.79 183.50 247.79 183.50 237.80 183.00 C 227.82 182.50 227.82 182.50 235.87 176.50 C 243.91 170.50 243.91 170.50 243.96 155.91 C 244.00 141.31 244.00 141.31 237.03 135.80 C 230.05 130.28 230.05 130.28 235.02 126.89 C 240.00 123.50 240.00 123.50 240.00 98.44 C 240.00 73.37 240.00 73.37 231.52 66.44 C 223.04 59.50 223.04 59.50 232.09 59.00 C 241.14 58.50 241.14 58.50 245.00 49.25 C 248.87 40.00 248.87 40.00 227.94 40.00 C 211.85 40.00 207.00 39.71 207.00 38.75 C 207.00 37.57 204.62 35.36 192.30 25.10 C 187.09 20.76 187.09 20.76 176.55 29.44 C 170.75 34.21 166.00 38.54 166.00 39.06 C 166.00 39.63 150.97 40.00 127.50 40.00 C 103.99 40.00 89.00 39.63 89.00 39.05 C 89.00 38.53 84.50 34.23 79.00 29.50 C 70.08 21.82 68.80 21.03 67.16 22.19 C 60.52 26.90 48.00 37.71 48.00 38.73 C 48.00 39.64 43.58 40.02 30.87 40.23 C 13.73 40.50 13.73 40.50 9.87 49.43 C 7.74 54.34 6.00 58.50 6.00 58.68 C 6.00 58.85 15.17 59.00 26.37 59.00 C 46.75 59.00 46.75 59.00 51.10 62.98 C 55.45 66.95 55.45 66.95 36.53 67.23 C 17.60 67.50 17.60 67.50 13.92 76.00 C 11.90 80.67 10.44 84.84 10.68 85.25 C 10.92 85.66 53.39 86.00 105.06 86.00 C 198.25 86.00 199.00 86.02 199.00 87.99 C 199.00 89.97 198.17 89.99 109.44 90.24 C 19.89 90.50 19.89 90.50 16.52 98.25 C 13.15 106.00 13.15 106.00 106.07 106.00 C 199.00 106.00 199.00 106.00 199.00 108.49 C 199.00 110.99 199.00 110.99 108.44 111.24 C 17.87 111.50 17.87 111.50 14.00 120.75 C 10.13 130.00 10.13 130.00 76.81 130.03 C 151.27 130.06 144.70 129.00 133.25 139.16 C 130.00 142.05 130.00 142.05 130.00 155.92 C 130.00 169.78 130.00 169.78 138.08 176.38 C 146.16 182.99 146.16 182.99 80.47 183.24 C 14.78 183.50 14.78 183.50 11.00 193.00 C 7.22 202.50 7.22 202.50 27.80 202.77 C 48.38 203.04 48.38 203.04 43.57 207.93 C 38.75 212.82 38.75 212.82 51.12 224.80 C 63.49 236.77 63.49 236.77 72.00 228.97 C 76.67 224.68 82.28 219.33 84.46 217.08 Z  M 70.42 178.51 C 90.81 177.69 111.68 176.74 116.79 176.41 C 126.08 175.81 126.08 175.81 125.79 167.65 C 125.50 159.50 125.50 159.50 106.75 159.23 C 88.00 158.96 88.00 158.96 88.00 155.98 C 88.00 153.00 88.00 153.00 103.34 153.00 C 118.68 153.00 118.68 153.00 122.35 144.75 C 124.37 140.21 126.01 136.16 126.01 135.74 C 126.00 135.32 101.66 135.10 71.92 135.24 C 17.83 135.50 17.83 135.50 14.56 144.00 C 11.28 152.50 11.28 152.50 29.14 152.77 C 47.00 153.05 47.00 153.05 47.00 156.88 C 47.00 160.71 47.00 160.71 39.35 161.35 C 35.14 161.71 27.27 162.00 21.85 162.00 C 12.00 162.00 12.00 162.00 12.00 171.00 C 12.00 180.00 12.00 180.00 22.67 180.00 C 28.54 180.00 50.03 179.33 70.42 178.51 Z  M 155.00 182.71 C 155.00 182.54 157.19 180.74 159.86 178.71 C 164.72 175.00 164.72 175.00 176.54 175.00 C 188.36 175.00 188.36 175.00 183.00 179.00 C 177.64 183.00 177.64 183.00 166.32 183.00 C 160.09 183.00 155.00 182.87 155.00 182.71 Z  M 208.52 179.18 C 203.74 175.65 203.64 175.49 206.18 175.19 C 207.98 174.98 210.48 176.06 213.92 178.54 C 216.71 180.54 219.00 182.37 219.00 182.59 C 219.00 182.82 217.76 182.97 216.25 182.93 C 214.74 182.89 211.26 181.20 208.52 179.18 Z  M 171.00 155.50 C 171.00 153.00 171.00 153.00 187.00 153.00 C 203.00 153.00 203.00 153.00 203.00 155.50 C 203.00 158.00 203.00 158.00 187.00 158.00 C 171.00 158.00 171.00 158.00 171.00 155.50 Z  M 160.50 133.00 C 157.63 130.00 157.63 130.00 183.09 130.00 C 205.18 130.00 208.87 130.22 210.92 131.66 C 213.18 133.24 213.21 133.38 211.45 134.66 C 210.04 135.69 204.26 136.00 186.50 136.00 C 163.37 136.00 163.37 136.00 160.50 133.00 Z  M 83.00 64.89 C 84.38 63.77 86.52 61.98 87.76 60.92 C 89.90 59.10 91.96 59.00 127.50 59.00 C 163.04 59.00 165.10 59.10 167.24 60.92 C 168.48 61.98 170.62 63.77 172.00 64.89 C 174.50 66.93 174.50 66.93 127.50 66.93 C 80.50 66.93 80.50 66.93 83.00 64.89 Z  M 203.93 62.95 C 207.78 59.43 208.88 58.94 212.34 59.20 C 216.33 59.50 216.33 59.50 211.50 63.25 C 207.97 65.99 205.70 67.00 203.09 67.00 C 199.50 67.00 199.50 67.00 203.93 62.95 Z "/>
</g>
</svg>