<?xml version="1.0" encoding="UTF-8" standalone="no"?>
<!DOCTYPE svg PUBLIC "-//W3C//DTD SVG 1.1//EN" "http://www.w3.org/Graphics/SVG/1.1/DTD/svg11.dtd" >
<svg xmlns="http://www.w3.org/2000/svg" xmlns:xlink="http://www.w3.org/1999/xlink" version="1.1" viewBox="0 0 256 256">
 <g >
 <path fill="currentColor"
d=" M 41.64 228.32 C 49.79 222.00 49.79 222.00 64.23 222.00 C 78.68 222.00 78.68 222.00 87.57 228.95 C 95.06 234.79 96.70 235.69 97.98 234.62 C 118.73 217.26 117.00 221.64 116.99 186.57 C 116.98 154.50 116.98 154.50 108.65 147.86 C 95.55 137.41 97.52 137.65 87.68 145.33 C 79.14 152.00 79.14 152.00 64.32 151.99 C 49.50 151.98 49.50 151.98 41.11 145.49 C 36.50 141.92 32.31 139.00 31.80 139.00 C 31.29 139.00 26.40 142.44 20.93 146.65 C 11.00 154.30 11.00 154.30 11.00 187.12 C 11.00 219.93 11.00 219.93 21.25 227.86 C 26.89 232.23 31.95 235.54 32.50 235.22 C 33.05 234.90 37.16 231.80 41.64 228.32 Z  M 220.50 217.17 C 230.50 209.45 230.50 209.45 230.76 142.28 C 231.01 75.11 231.01 75.11 235.55 74.80 C 240.08 74.50 240.08 74.50 244.47 64.75 C 248.85 55.00 248.85 55.00 239.93 55.00 C 231.00 55.00 231.00 55.00 231.00 45.71 C 231.00 36.43 231.00 36.43 220.52 28.64 C 210.05 20.84 210.05 20.84 199.77 28.69 C 189.50 36.54 189.50 36.54 189.21 45.77 C 188.92 55.00 188.92 55.00 157.63 55.00 C 126.34 55.00 126.34 55.00 122.67 64.27 C 120.65 69.37 119.00 73.87 119.00 74.27 C 119.00 74.67 134.75 75.00 154.00 75.00 C 189.00 75.00 189.00 75.00 189.00 140.50 C 189.00 206.00 189.00 206.00 166.17 206.00 C 143.34 206.00 143.34 206.00 139.67 214.98 C 137.65 219.92 136.00 224.19 136.00 224.48 C 136.00 224.76 152.76 224.98 173.25 224.95 C 210.50 224.90 210.50 224.90 220.50 217.17 Z  M 168.26 111.76 C 160.15 103.64 153.21 97.11 152.84 97.25 C 152.47 97.39 145.53 104.00 137.42 111.95 C 122.69 126.41 122.69 126.41 137.98 141.30 C 153.28 156.20 153.28 156.20 168.14 141.36 C 183.00 126.52 183.00 126.52 168.26 111.76 Z  M 113.38 125.25 C 115.39 120.44 117.02 116.16 117.01 115.74 C 117.01 115.32 94.70 115.10 67.44 115.24 C 17.87 115.50 17.87 115.50 14.00 124.75 C 10.13 134.00 10.13 134.00 59.93 134.00 C 109.73 134.00 109.73 134.00 113.38 125.25 Z  M 112.97 92.42 C 114.70 88.26 116.37 84.21 116.67 83.42 C 117.14 82.20 110.14 82.00 67.67 82.00 C 39.84 82.00 17.88 82.39 17.57 82.89 C 17.27 83.38 15.46 87.43 13.55 91.89 C 10.08 100.00 10.08 100.00 59.94 100.00 C 109.81 100.00 109.81 100.00 112.97 92.42 Z  M 117.18 58.00 C 119.22 53.33 120.91 49.16 120.94 48.75 C 120.97 48.34 112.90 48.00 103.00 48.00 C 85.00 48.00 85.00 48.00 85.00 42.52 C 85.00 37.03 85.00 37.03 74.89 29.27 C 69.33 25.00 64.38 21.50 63.89 21.50 C 63.40 21.50 58.73 24.87 53.50 29.00 C 44.00 36.50 44.00 36.50 44.00 42.22 C 44.00 47.95 44.00 47.95 28.80 48.22 C 13.61 48.50 13.61 48.50 9.80 57.44 C 7.71 62.36 6.00 66.53 6.00 66.70 C 6.00 66.88 30.18 66.90 59.74 66.76 C 113.48 66.50 113.48 66.50 117.18 58.00 Z  M 52.00 186.50 C 52.00 171.00 52.00 171.00 64.00 171.00 C 76.00 171.00 76.00 171.00 76.00 186.50 C 76.00 202.00 76.00 202.00 64.00 202.00 C 52.00 202.00 52.00 202.00 52.00 186.50 Z "/>
</g>
</svg>