<?xml version="1.0" encoding="UTF-8" standalone="no"?>
<!DOCTYPE svg PUBLIC "-//W3C//DTD SVG 1.1//EN" "http://www.w3.org/Graphics/SVG/1.1/DTD/svg11.dtd" >
<svg xmlns="http://www.w3.org/2000/svg" xmlns:xlink="http://www.w3.org/1999/xlink" version="1.1" viewBox="0 0 256 256">
 <g >
 <path fill="currentColor"
d=" M 170.85 225.50 C 177.96 219.50 177.96 219.50 177.98 136.25 C 178.00 53.00 178.00 53.00 190.07 53.00 C 202.13 53.00 202.13 53.00 201.41 55.25 C 187.20 99.46 184.00 110.75 184.00 116.69 C 184.00 123.00 184.00 123.00 196.00 123.00 C 202.60 123.00 208.00 123.12 208.00 123.27 C 208.00 123.41 202.60 139.72 196.00 159.50 C 184.31 194.55 184.00 195.69 184.00 204.26 C 184.00 213.05 184.00 213.05 201.65 212.77 C 219.30 212.50 219.30 212.50 233.15 173.00 C 247.00 133.51 247.00 133.51 247.00 123.75 C 247.00 114.00 247.00 114.00 235.58 114.00 C 224.16 114.00 224.16 114.00 235.07 81.28 C 245.99 48.57 245.99 48.57 243.19 45.03 C 241.65 43.09 239.07 39.81 237.45 37.75 C 234.50 34.00 234.50 34.00 204.08 34.00 C 173.65 34.00 173.65 34.00 166.58 28.20 C 162.68 25.02 158.96 22.08 158.29 21.67 C 157.54 21.21 153.30 24.37 147.04 30.06 C 137.00 39.19 137.00 39.19 137.00 103.60 C 137.00 168.00 137.00 168.00 114.50 168.00 C 92.00 168.00 92.00 168.00 92.00 148.00 C 92.00 128.00 92.00 128.00 108.83 128.00 C 125.67 128.00 125.67 128.00 129.83 119.23 C 132.13 114.41 134.00 110.14 134.00 109.73 C 134.00 109.33 124.55 109.00 113.00 109.00 C 92.00 109.00 92.00 109.00 92.00 90.02 C 92.00 71.05 92.00 71.05 109.20 70.77 C 126.40 70.50 126.40 70.50 130.13 62.00 C 132.19 57.33 133.90 53.16 133.94 52.75 C 133.97 52.34 124.55 52.00 113.00 52.00 C 92.00 52.00 92.00 52.00 92.00 44.55 C 92.00 37.10 92.00 37.10 82.00 29.00 C 75.41 23.67 71.56 21.17 70.72 21.70 C 70.02 22.14 65.29 25.64 60.22 29.48 C 51.00 36.46 51.00 36.46 51.00 44.21 C 51.00 51.95 51.00 51.95 33.30 52.23 C 15.61 52.50 15.61 52.50 11.80 61.44 C 9.71 66.36 8.00 70.53 8.00 70.69 C 8.00 70.86 17.67 71.00 29.50 71.00 C 51.00 71.00 51.00 71.00 51.00 89.98 C 51.00 108.95 51.00 108.95 34.44 109.23 C 17.87 109.50 17.87 109.50 14.00 118.75 C 10.13 128.00 10.13 128.00 30.56 128.00 C 51.00 128.00 51.00 128.00 51.00 147.98 C 51.00 167.96 51.00 167.96 32.39 168.23 C 13.78 168.50 13.78 168.50 10.43 177.75 C 7.09 187.00 7.09 187.00 29.04 187.00 C 51.00 187.00 51.00 187.00 51.04 203.75 C 51.09 220.50 51.09 220.50 61.47 228.21 C 71.85 235.92 71.85 235.92 81.92 227.87 C 92.00 219.82 92.00 219.82 92.00 203.41 C 92.00 187.00 92.00 187.00 110.83 187.00 C 129.65 187.00 129.65 187.00 133.29 178.25 C 136.92 169.50 136.92 169.50 136.96 194.11 C 137.00 218.72 137.00 218.72 147.19 227.78 C 158.77 238.08 155.57 238.39 170.85 225.50 Z "/>
</g>
</svg>