<?xml version="1.0" encoding="UTF-8" standalone="no"?>
<!DOCTYPE svg PUBLIC "-//W3C//DTD SVG 1.1//EN" "http://www.w3.org/Graphics/SVG/1.1/DTD/svg11.dtd" >
<svg xmlns="http://www.w3.org/2000/svg" xmlns:xlink="http://www.w3.org/1999/xlink" version="1.1" viewBox="0 0 256 256">
 <g >
 <path fill="currentColor"
d=" M 123.50 226.11 C 130.50 220.85 130.50 220.85 131.00 173.67 C 131.50 126.50 131.50 126.50 186.45 126.00 C 241.39 125.50 241.39 125.50 245.20 116.56 C 247.29 111.64 249.00 107.47 249.00 107.31 C 249.00 107.14 241.76 107.00 232.91 107.00 C 216.83 107.00 216.83 107.00 226.88 96.25 C 236.93 85.50 236.93 85.50 226.77 75.28 C 216.60 65.07 216.60 65.07 228.37 64.78 C 240.13 64.50 240.13 64.50 244.00 55.25 C 247.87 46.00 247.87 46.00 222.94 46.00 C 198.00 46.00 198.00 46.00 198.00 41.25 C 198.00 36.50 198.00 36.50 188.84 29.50 C 183.80 25.65 179.08 22.14 178.34 21.70 C 177.44 21.16 173.74 23.54 167.00 29.00 C 157.04 37.06 157.00 37.12 157.00 41.55 C 157.00 46.00 157.00 46.00 128.67 46.00 C 100.34 46.00 100.34 46.00 96.67 54.98 C 94.65 59.92 93.00 64.19 93.00 64.48 C 93.00 64.76 103.45 65.00 116.23 65.00 C 139.46 65.00 139.46 65.00 129.00 75.50 C 118.54 86.00 118.54 86.00 129.00 96.50 C 139.46 107.00 139.46 107.00 134.69 107.00 C 130.25 107.00 129.28 106.48 120.60 99.50 C 115.47 95.38 110.97 92.00 110.60 92.00 C 110.22 92.00 105.66 95.42 100.46 99.61 C 91.00 107.22 91.00 107.22 91.00 127.11 C 91.00 147.00 91.00 147.00 80.50 147.00 C 70.00 147.00 70.00 147.00 70.00 127.04 C 70.00 107.08 70.00 107.08 77.57 106.79 C 85.14 106.50 85.14 106.50 88.57 98.71 C 90.46 94.42 92.00 90.48 92.00 89.95 C 92.00 89.33 77.90 89.07 53.45 89.24 C 14.90 89.50 14.90 89.50 11.00 98.25 C 7.10 107.00 7.10 107.00 18.05 107.00 C 29.00 107.00 29.00 107.00 29.00 126.96 C 29.00 146.92 29.00 146.92 21.40 147.21 C 13.79 147.50 13.79 147.50 9.94 156.75 C 6.10 166.00 6.10 166.00 17.55 166.00 C 29.00 166.00 29.00 166.00 29.05 190.75 C 29.11 215.50 29.11 215.50 39.49 223.73 C 49.87 231.95 49.87 231.95 67.19 224.00 C 84.50 216.05 84.50 216.05 84.79 208.03 C 85.08 200.00 85.08 200.00 77.54 200.00 C 70.00 200.00 70.00 200.00 70.00 183.00 C 70.00 166.00 70.00 166.00 76.35 166.00 C 82.69 166.00 82.69 166.00 86.77 157.25 C 90.84 148.50 90.84 148.50 90.97 184.50 C 91.10 220.50 91.10 220.50 100.80 228.16 C 111.84 236.88 108.78 237.16 123.50 226.11 Z  M 42.58 74.50 C 48.46 65.00 48.46 65.00 65.61 65.00 C 78.14 65.00 83.02 64.66 83.73 63.75 C 84.71 62.49 91.00 47.62 91.00 46.57 C 91.00 46.26 83.58 46.00 74.50 46.00 C 58.00 46.00 58.00 46.00 58.00 36.50 C 58.00 27.00 58.00 27.00 42.75 27.04 C 27.50 27.08 27.50 27.08 17.25 42.33 C 7.00 57.58 7.00 57.58 7.00 70.79 C 7.00 84.00 7.00 84.00 21.85 84.00 C 36.70 84.00 36.70 84.00 42.58 74.50 Z  M 161.98 96.37 C 172.21 85.75 172.21 85.75 161.88 75.37 C 151.54 65.00 151.54 65.00 177.50 65.00 C 203.46 65.00 203.46 65.00 193.73 74.77 C 188.38 80.14 184.00 84.99 184.00 85.55 C 184.00 86.11 186.51 89.03 189.58 92.03 C 192.65 95.04 196.96 99.64 199.17 102.25 C 203.19 107.00 203.19 107.00 177.47 107.00 C 151.75 107.00 151.75 107.00 161.98 96.37 Z "/>
</g>
</svg>