<?xml version="1.0" encoding="UTF-8" standalone="no"?>
<!DOCTYPE svg PUBLIC "-//W3C//DTD SVG 1.1//EN" "http://www.w3.org/Graphics/SVG/1.1/DTD/svg11.dtd" >
<svg xmlns="http://www.w3.org/2000/svg" xmlns:xlink="http://www.w3.org/1999/xlink" version="1.1" viewBox="0 0 248 286">
 <g >
 <path fill="currentColor"
d=" M 157.66 92.06 C 163.27 89.25 170.02 84.87 173.35 81.89 C 179.20 76.66 179.20 76.66 196.58 79.87 C 213.46 82.99 214.26 83.05 224.48 81.86 C 235.00 80.64 235.00 80.64 235.00 74.32 C 235.00 68.00 235.00 68.00 231.25 68.07 C 229.19 68.11 226.67 68.47 225.65 68.87 C 224.13 69.46 212.31 67.49 199.16 64.46 C 196.81 63.91 196.81 63.91 199.52 61.21 C 204.71 56.02 210.83 40.66 215.53 21.05 C 217.31 13.60 217.31 13.60 212.91 9.66 C 210.48 7.49 206.08 4.59 203.13 3.23 C 198.27 0.98 196.85 0.79 188.32 1.23 C 179.73 1.68 178.12 2.11 170.20 6.02 C 162.86 9.64 159.90 11.92 151.25 20.62 C 145.61 26.29 141.00 31.63 141.00 32.49 C 141.00 34.52 148.14 48.69 153.20 56.70 C 155.39 60.16 158.96 64.52 161.14 66.39 C 165.11 69.79 165.11 69.79 162.30 71.77 C 158.24 74.64 148.45 79.40 141.25 82.00 C 137.81 83.25 135.00 84.63 135.00 85.07 C 135.00 89.42 141.68 97.00 145.52 97.00 C 146.78 97.00 152.25 94.78 157.66 92.06 Z  M 92.00 82.50 C 102.69 78.92 111.76 76.00 112.14 76.00 C 112.53 76.00 113.36 77.55 113.98 79.45 C 115.64 84.47 121.38 89.19 125.35 88.81 C 128.50 88.50 128.50 88.50 128.78 76.50 C 129.03 65.28 129.28 63.96 132.61 56.19 C 136.17 47.89 136.17 47.89 133.42 45.34 C 131.20 43.28 130.00 42.90 127.09 43.34 C 123.50 43.88 123.50 43.88 119.57 35.78 C 114.70 25.74 107.32 17.98 100.43 15.63 C 90.84 12.36 75.25 14.11 61.57 19.97 C 58.90 21.11 56.52 21.86 56.29 21.62 C 56.05 21.39 56.79 19.37 57.93 17.14 C 60.42 12.26 60.44 12.00 58.39 12.00 C 57.26 12.00 56.99 11.48 57.49 10.25 C 57.88 9.29 58.44 6.81 58.73 4.75 C 59.22 1.30 59.07 1.00 56.84 1.00 C 55.51 1.00 52.43 2.01 49.99 3.25 C 44.34 6.12 41.21 11.94 40.34 21.22 C 39.72 27.91 39.72 27.91 33.67 32.15 C 25.46 37.91 14.49 48.39 13.06 51.86 C 12.03 54.35 12.22 55.24 14.69 59.31 C 16.24 61.86 17.76 63.95 18.07 63.97 C 18.38 63.99 23.33 59.98 29.07 55.08 C 39.50 46.15 39.50 46.15 40.14 52.33 C 41.49 65.24 45.36 74.38 52.03 80.41 C 57.01 84.91 65.31 88.98 69.53 88.99 C 71.19 89.00 81.31 86.08 92.00 82.50 Z  M 171.84 52.25 C 166.33 46.45 158.00 34.94 158.00 33.13 C 158.00 31.14 168.73 22.79 175.83 19.26 C 184.06 15.17 192.86 13.87 198.00 16.00 C 200.47 17.02 201.00 17.82 201.00 20.52 C 201.00 25.41 197.48 35.86 193.96 41.40 C 190.30 47.18 180.22 58.00 178.50 58.00 C 177.84 58.00 174.85 55.41 171.84 52.25 Z  M 61.69 70.21 C 60.80 69.23 59.35 66.69 58.46 64.56 C 56.85 60.70 53.06 44.93 53.02 41.90 C 52.98 38.46 74.97 30.59 88.02 29.37 C 94.55 28.76 94.55 28.76 98.40 33.02 C 102.91 38.02 107.79 48.21 108.64 54.43 C 109.18 58.29 108.96 58.98 106.80 60.40 C 101.48 63.88 73.23 72.00 66.40 72.00 C 64.70 72.00 62.58 71.20 61.69 70.21 Z "/>
</g>
</svg>