<?xml version="1.0" encoding="UTF-8" standalone="no"?>
<!DOCTYPE svg PUBLIC "-//W3C//DTD SVG 1.1//EN" "http://www.w3.org/Graphics/SVG/1.1/DTD/svg11.dtd" >
<svg xmlns="http://www.w3.org/2000/svg" xmlns:xlink="http://www.w3.org/1999/xlink" version="1.1" viewBox="0 0 315 285">
 <g >
 <path fill="currentColor"
d=" M 86.01 281.38 C 90.57 278.35 90.60 279.40 85.46 263.00 C 82.20 252.64 82.14 252.12 81.07 223.29 C 80.11 197.56 77.97 168.35 76.50 161.00 C 76.13 159.12 76.50 159.43 78.03 162.25 C 79.14 164.31 80.60 166.00 81.27 166.00 C 83.27 166.01 101.17 174.36 105.48 177.29 C 112.64 182.16 121.53 180.34 120.80 174.16 C 120.35 170.33 113.14 165.38 92.91 155.04 C 75.30 146.03 75.30 146.03 74.66 137.77 C 74.30 133.22 74.01 126.42 74.01 122.67 C 74.00 115.83 74.00 115.83 89.30 116.13 C 103.78 116.41 104.76 116.31 107.74 114.19 C 111.05 111.83 112.56 108.83 112.12 105.50 C 111.59 101.46 109.45 101.00 91.42 101.00 C 74.23 101.00 74.23 101.00 73.78 87.25 C 73.41 76.16 72.89 72.39 71.10 67.77 C 69.87 64.62 68.51 61.81 68.06 61.54 C 67.61 61.26 65.18 61.74 62.65 62.60 C 58.05 64.17 58.05 64.17 57.77 81.31 C 57.50 98.45 57.50 98.45 45.48 99.65 C 26.77 101.52 13.97 105.02 12.57 108.67 C 12.25 109.50 12.77 111.49 13.71 113.09 C 15.38 115.92 15.65 116.00 23.50 116.00 C 27.94 116.00 36.96 115.33 43.54 114.51 C 50.12 113.69 56.01 113.01 56.63 113.01 C 57.32 113.00 58.01 116.01 58.40 120.75 C 58.75 125.01 59.30 131.09 59.62 134.25 C 60.20 140.00 60.20 140.00 55.68 140.00 C 51.17 140.00 51.17 140.00 45.59 150.55 C 42.52 156.36 38.24 163.70 36.08 166.88 C 32.18 172.62 25.81 179.00 23.97 179.00 C 22.39 179.00 22.83 191.77 24.51 195.03 C 26.03 197.95 26.03 197.95 30.63 196.23 C 35.10 194.55 35.59 193.92 48.12 173.56 C 55.20 162.04 61.02 153.26 61.04 154.06 C 61.07 154.85 62.57 171.47 64.38 191.00 C 66.37 212.43 67.30 226.75 66.74 227.12 C 66.18 227.49 66.39 230.56 67.27 234.84 C 68.55 241.09 68.55 242.20 67.25 244.05 C 65.54 246.49 66.54 253.62 70.19 265.00 C 73.35 274.86 78.59 284.00 81.07 284.00 C 81.61 284.00 83.83 282.82 86.01 281.38 Z  M 272.92 249.96 C 288.18 246.31 298.49 239.10 300.92 230.35 C 302.27 225.50 302.33 206.63 301.01 202.04 C 300.30 199.58 300.38 197.60 301.25 195.17 C 302.46 191.85 302.39 191.67 298.50 188.32 C 293.31 183.83 284.82 179.00 282.13 179.00 C 280.16 179.00 280.00 179.53 280.00 185.88 C 280.00 192.71 280.02 192.75 283.00 193.35 C 286.00 193.95 286.00 193.95 286.00 204.89 C 286.00 213.32 286.39 216.51 287.68 218.77 C 289.28 221.55 289.26 221.87 287.38 225.09 C 286.12 227.25 283.40 229.51 279.95 231.27 C 272.68 234.99 256.17 238.37 249.18 237.57 C 235.74 236.04 221.51 223.40 216.09 208.16 C 211.52 195.34 208.20 192.00 200.04 192.00 C 195.00 192.00 195.00 192.00 195.00 195.88 C 195.00 198.10 195.64 200.29 196.50 201.00 C 197.32 201.68 198.00 202.70 198.00 203.26 C 198.00 205.29 206.86 222.90 210.79 228.70 C 215.74 235.98 223.89 243.55 230.82 247.31 C 241.73 253.23 255.58 254.10 272.92 249.96 Z  M 166.70 225.50 C 170.68 203.59 174.25 192.80 178.89 188.60 C 180.24 187.38 181.00 185.48 181.00 183.35 C 181.00 180.14 181.16 180.00 184.77 180.00 C 193.25 180.00 221.19 177.82 231.00 176.39 C 247.59 173.97 252.57 170.89 248.62 165.50 C 247.58 164.07 245.63 163.51 240.66 163.19 C 231.64 162.62 193.22 164.77 178.53 166.67 C 171.92 167.52 157.90 168.51 147.40 168.86 C 126.31 169.57 125.00 169.96 125.00 175.55 C 125.00 181.79 125.79 182.00 149.20 182.00 C 170.25 182.00 170.25 182.00 166.20 186.40 C 159.13 194.07 155.42 204.05 152.61 222.96 C 150.61 236.42 151.91 239.23 159.92 238.76 C 164.34 238.50 164.34 238.50 166.70 225.50 Z  M 182.29 154.89 C 189.58 151.23 191.00 149.34 191.00 143.33 C 191.00 137.19 191.08 137.22 182.16 140.01 C 178.24 141.24 173.01 142.00 168.46 142.00 C 161.09 142.00 161.09 142.00 160.48 138.74 C 160.14 136.95 160.34 134.25 160.91 132.74 C 161.79 130.41 161.69 130.00 160.23 129.97 C 158.65 129.94 158.64 129.86 160.14 128.98 C 162.57 127.56 177.99 124.02 181.75 124.01 C 184.84 124.00 185.00 123.82 184.96 120.25 C 184.95 118.19 184.31 115.38 183.55 114.00 C 182.25 111.67 181.72 111.52 175.33 111.80 C 171.57 111.96 166.10 112.56 163.17 113.13 C 160.24 113.71 157.62 113.95 157.35 113.68 C 156.86 113.19 155.51 104.90 154.43 95.70 C 153.86 90.89 153.86 90.89 149.70 91.20 C 144.11 91.61 143.03 93.95 143.01 105.75 C 143.00 115.00 143.00 115.00 125.72 115.00 C 106.49 115.00 104.00 115.68 104.00 120.90 C 104.00 127.50 110.92 129.90 130.12 129.96 C 144.74 130.00 144.74 130.00 145.36 133.75 C 146.82 142.61 146.73 142.76 139.40 143.55 C 135.77 143.94 129.80 143.92 126.15 143.52 C 122.49 143.11 119.05 142.82 118.50 142.88 C 105.44 144.19 106.00 143.96 106.00 147.97 C 106.00 151.92 107.71 154.16 112.02 155.88 C 113.46 156.46 127.83 156.90 146.29 156.94 C 176.72 157.00 178.26 156.91 182.29 154.89 Z  M 246.52 137.00 C 265.40 137.00 265.93 136.94 267.44 134.78 C 268.31 133.54 269.00 130.50 269.00 127.92 C 269.00 123.28 269.00 123.28 263.19 122.68 C 260.00 122.34 253.49 122.34 248.74 122.68 C 241.69 123.18 239.63 122.99 237.60 121.65 C 235.05 119.99 233.02 114.72 233.01 109.77 C 233.00 106.21 236.18 105.36 243.74 106.88 C 250.60 108.25 254.00 106.69 254.00 102.15 C 254.00 96.21 245.76 92.34 235.36 93.40 C 229.92 93.96 229.00 93.82 229.00 92.45 C 229.00 91.57 227.68 89.53 226.08 87.92 C 223.83 85.68 222.24 85.00 219.20 85.00 C 214.50 85.00 212.66 86.79 213.58 90.45 C 214.19 92.91 214.06 93.05 211.61 92.44 C 209.46 91.90 209.09 92.07 209.60 93.39 C 210.15 94.82 208.67 95.00 196.11 95.00 C 182.00 95.00 182.00 95.00 182.00 98.55 C 182.00 102.94 185.23 106.21 191.75 108.43 C 197.44 110.37 198.00 110.38 198.00 108.50 C 198.00 107.27 199.77 107.00 207.89 107.00 C 219.07 107.00 218.59 106.64 219.66 115.74 C 220.31 121.31 220.31 121.31 211.96 120.73 C 202.43 120.08 198.27 121.51 193.63 127.03 C 189.24 132.24 189.06 132.13 205.37 133.95 C 210.80 134.55 217.78 136.06 220.87 137.29 C 225.08 138.98 226.58 139.22 226.82 138.27 C 227.07 137.30 231.68 137.00 246.52 137.00 Z  M 131.50 71.39 C 137.55 70.97 144.75 70.47 147.50 70.28 C 160.91 69.38 212.62 69.01 220.95 69.77 C 233.61 70.91 235.15 70.21 234.78 63.50 C 234.51 58.77 234.29 58.39 230.50 56.50 C 226.91 54.70 223.90 54.45 201.00 54.00 C 175.50 53.50 175.50 53.50 174.47 43.75 C 173.43 34.00 173.43 34.00 181.47 34.05 C 185.89 34.08 193.10 34.49 197.50 34.96 C 202.82 35.52 205.63 35.46 205.88 34.78 C 206.08 34.21 207.09 32.91 208.13 31.87 C 209.16 30.84 210.00 29.28 210.00 28.40 C 210.00 25.83 204.35 21.27 198.41 19.05 C 191.86 16.60 191.00 16.54 191.00 18.50 C 191.00 19.74 189.18 20.00 180.60 20.00 C 170.19 20.00 170.19 20.00 169.85 15.00 C 169.51 10.13 169.57 10.00 172.25 10.00 C 174.84 10.00 175.00 9.74 175.00 5.50 C 175.00 1.00 175.00 1.00 166.13 1.00 C 157.26 1.00 157.26 1.00 156.58 7.88 C 156.21 11.67 156.20 15.95 156.56 17.40 C 157.20 19.92 157.10 19.99 154.55 19.02 C 150.75 17.57 128.46 17.79 122.50 19.33 C 117.50 20.62 117.50 20.62 117.20 25.75 C 116.90 30.88 116.90 30.88 120.70 32.10 C 122.81 32.78 132.16 33.51 141.71 33.74 C 161.46 34.23 159.52 32.94 160.55 46.14 C 161.22 54.79 161.22 54.79 156.34 55.83 C 153.66 56.41 142.25 57.18 130.98 57.55 C 107.35 58.33 106.00 58.73 106.00 65.02 C 106.00 68.47 106.30 69.01 108.25 69.04 C 109.49 69.06 112.08 69.94 114.00 70.99 C 115.92 72.04 118.17 72.73 119.00 72.53 C 119.83 72.32 125.45 71.81 131.50 71.39 Z "/>
</g>
</svg>