<?xml version="1.0" encoding="UTF-8" standalone="no"?>
<!DOCTYPE svg PUBLIC "-//W3C//DTD SVG 1.1//EN" "http://www.w3.org/Graphics/SVG/1.1/DTD/svg11.dtd" >
<svg xmlns="http://www.w3.org/2000/svg" xmlns:xlink="http://www.w3.org/1999/xlink" version="1.1" viewBox="0 0 226 270">
 <g >
 <path fill="currentColor"
d=" M 114.04 222.75 C 116.21 221.51 117.99 220.17 117.99 219.77 C 118.00 219.36 116.88 215.15 115.50 210.40 C 112.87 201.32 112.31 196.45 114.01 197.51 C 114.57 197.85 118.35 197.63 122.42 197.01 C 128.69 196.06 130.38 196.13 133.64 197.49 C 136.01 198.48 137.60 198.71 137.81 198.08 C 137.99 197.52 139.69 196.77 141.57 196.42 C 144.83 195.81 145.00 195.57 145.00 191.54 C 145.00 186.79 143.52 184.95 137.79 182.56 C 134.85 181.33 132.73 181.22 126.83 181.99 C 122.80 182.51 117.59 182.95 115.25 182.97 C 111.00 183.00 111.00 183.00 111.00 178.50 C 111.00 174.04 111.03 174.00 114.44 174.00 C 116.33 174.00 118.14 174.42 118.46 174.94 C 118.81 175.50 120.45 175.29 122.49 174.44 C 124.75 173.50 129.56 173.00 136.47 173.00 C 147.00 173.00 147.00 173.00 147.00 168.05 C 147.00 165.32 146.46 161.91 145.80 160.46 C 144.67 157.99 144.28 157.86 139.55 158.38 C 123.38 160.19 106.91 160.09 87.77 158.08 C 62.58 155.43 59.00 155.42 55.63 158.07 C 53.53 159.73 53.00 160.99 53.00 164.40 C 53.00 168.65 53.00 168.65 59.06 169.77 C 62.92 170.49 66.01 170.57 67.55 169.98 C 70.19 168.98 94.85 171.54 96.34 172.97 C 96.79 173.41 96.45 175.17 95.56 176.89 C 93.99 179.93 94.00 180.00 96.22 180.14 C 97.48 180.22 93.89 180.64 88.25 181.07 C 76.05 182.01 67.45 184.29 66.02 186.96 C 65.46 188.01 65.00 190.47 65.00 192.43 C 65.00 196.00 65.00 196.00 81.50 196.00 C 98.00 196.00 98.00 196.00 98.00 198.55 C 98.00 202.26 101.01 215.04 102.63 218.22 C 104.15 221.19 107.86 225.00 109.24 225.00 C 109.72 225.00 111.88 223.99 114.04 222.75 Z  M 122.56 149.39 C 123.74 139.90 121.48 123.51 118.12 117.23 C 116.21 113.65 113.27 112.59 110.43 114.45 C 108.00 116.04 108.00 116.07 108.00 134.32 C 108.00 147.21 108.35 152.95 109.20 153.80 C 109.86 154.46 112.98 155.00 116.13 155.00 C 121.86 155.00 121.86 155.00 122.56 149.39 Z  M 83.63 151.31 C 85.42 150.63 85.40 144.99 83.59 140.78 C 82.81 138.98 81.65 133.71 81.01 129.08 C 78.97 114.35 75.09 107.00 69.35 107.00 C 62.76 107.00 64.61 139.65 71.83 150.84 C 73.18 152.91 73.84 153.10 77.80 152.51 C 80.25 152.14 82.87 151.60 83.63 151.31 Z  M 191.00 99.67 C 191.00 92.33 191.00 92.33 175.58 90.01 C 161.14 87.84 160.29 87.59 162.13 86.10 C 163.97 84.60 164.10 83.14 164.17 63.41 C 164.21 51.81 163.91 41.24 163.50 39.91 C 161.83 34.41 156.14 31.36 152.20 33.86 C 149.91 35.31 147.88 46.90 148.14 57.00 C 148.61 75.29 148.44 85.89 147.66 86.68 C 146.32 88.01 112.50 88.30 99.14 87.09 C 87.15 86.00 61.95 82.25 61.11 81.43 C 60.89 81.22 61.22 80.44 61.84 79.69 C 62.71 78.64 62.32 77.72 60.09 75.59 C 55.98 71.65 51.17 60.53 48.13 47.91 C 45.50 37.00 45.50 37.00 41.00 37.02 C 33.54 37.04 32.00 37.79 32.00 41.43 C 32.00 46.68 35.78 59.49 40.48 70.16 C 44.89 80.19 44.89 80.19 42.20 79.51 C 40.72 79.14 33.32 79.16 25.76 79.55 C 12.00 80.26 12.00 80.26 12.00 86.63 C 12.00 93.00 12.00 93.00 17.50 93.00 C 20.53 93.00 37.96 94.55 56.25 96.44 C 107.16 101.72 126.08 103.14 142.47 102.95 C 154.02 102.82 159.93 103.25 168.00 104.81 C 173.78 105.92 181.31 106.87 184.75 106.92 C 191.00 107.00 191.00 107.00 191.00 99.67 Z  M 84.66 79.46 C 89.57 76.58 89.77 75.73 87.05 69.19 C 85.60 65.69 84.83 60.18 84.02 47.50 C 82.73 27.20 80.96 17.39 77.25 10.04 C 72.20 0.03 65.24 -2.03 65.71 6.62 C 65.82 8.75 65.87 11.18 65.81 12.00 C 65.01 22.94 66.72 45.06 69.59 60.85 C 72.17 75.10 75.16 81.21 79.91 81.94 C 80.14 81.97 82.28 80.86 84.66 79.46 Z  M 120.15 80.42 C 123.20 78.84 123.20 78.84 122.56 68.67 C 122.20 63.08 121.41 56.27 120.80 53.54 C 120.08 50.28 119.90 41.52 120.29 27.99 C 120.85 8.40 120.79 7.35 118.95 6.20 C 116.27 4.53 111.44 4.70 109.60 6.54 C 106.33 9.81 105.85 15.07 106.18 44.00 C 106.47 69.63 106.69 72.89 108.41 76.34 C 111.14 81.85 114.88 83.15 120.15 80.42 Z "/>
</g>
</svg>