<?xml version="1.0" encoding="UTF-8" standalone="no"?>
<!DOCTYPE svg PUBLIC "-//W3C//DTD SVG 1.1//EN" "http://www.w3.org/Graphics/SVG/1.1/DTD/svg11.dtd" >
<svg xmlns="http://www.w3.org/2000/svg" xmlns:xlink="http://www.w3.org/1999/xlink" version="1.1" viewBox="0 0 300 266">
 <g >
 <path fill="currentColor"
d=" M 118.27 219.22 C 116.70 214.35 111.17 212.49 98.50 212.57 C 92.32 212.62 84.07 213.38 79.67 214.32 C 74.05 215.52 71.30 215.70 69.92 214.96 C 68.60 214.25 67.39 214.26 66.04 214.98 C 64.65 215.72 61.98 215.68 56.93 214.85 C 51.61 213.97 48.99 213.96 46.65 214.80 C 44.12 215.70 41.83 215.54 35.00 213.97 C 26.50 212.03 26.50 212.03 23.26 215.76 C 19.65 219.94 18.80 225.00 21.72 225.00 C 22.66 225.00 27.24 225.97 31.89 227.16 C 40.24 229.29 40.81 229.30 75.22 228.13 C 105.87 227.10 110.35 227.13 112.23 228.45 C 114.26 229.87 114.50 229.74 116.76 225.95 C 118.63 222.80 118.96 221.36 118.27 219.22 Z  M 167.58 214.87 C 167.96 214.25 172.15 211.93 176.89 209.72 C 188.26 204.40 196.13 196.57 201.99 184.75 C 207.72 173.18 208.31 166.64 204.31 159.00 C 197.74 146.47 176.75 138.86 162.57 143.88 C 159.31 145.03 156.48 145.82 156.29 145.62 C 156.09 145.43 156.24 143.37 156.61 141.06 C 157.11 137.89 157.87 136.62 159.64 135.95 C 161.69 135.17 162.00 134.38 162.00 130.02 C 162.00 125.00 162.00 125.00 156.58 125.00 C 151.51 125.00 151.03 125.22 149.09 128.36 C 143.79 136.92 140.90 155.19 143.72 162.25 C 145.60 166.97 148.11 167.14 154.83 163.01 C 168.04 154.88 180.20 154.97 188.75 163.25 C 190.54 164.98 192.00 167.39 192.00 168.62 C 192.00 171.13 190.75 171.52 179.50 172.52 C 172.95 173.10 172.00 172.91 164.69 169.57 C 160.40 167.61 155.86 166.00 154.60 166.00 C 151.85 166.00 149.41 168.49 148.47 172.25 C 147.46 176.31 152.03 180.08 161.91 183.35 C 170.83 186.30 179.19 186.74 185.25 184.57 C 189.82 182.94 190.04 183.95 185.86 187.47 C 177.98 194.09 162.48 200.00 152.98 200.00 C 146.00 200.00 146.00 200.00 146.00 205.50 C 146.00 210.52 146.20 211.01 148.25 211.07 C 149.49 211.11 153.88 212.19 158.00 213.47 C 167.18 216.31 166.73 216.24 167.58 214.87 Z  M 85.70 198.50 C 99.87 194.29 115.02 184.59 124.86 173.43 C 131.50 165.90 133.00 162.26 133.00 153.69 C 133.00 146.53 132.83 146.02 127.75 137.67 C 124.86 132.92 120.37 126.59 117.76 123.60 C 111.74 116.69 100.20 108.94 92.48 106.63 C 83.02 103.79 83.22 103.91 85.83 102.90 C 88.05 102.05 88.13 101.69 87.49 95.25 C 85.87 78.95 81.81 68.56 74.67 62.45 C 70.14 58.57 63.35 56.00 57.64 56.00 C 52.45 56.00 41.95 58.63 35.10 61.65 C 32.12 62.96 29.62 63.91 29.52 63.76 C 29.43 63.62 29.74 57.71 30.21 50.63 C 30.95 39.55 30.85 37.42 29.48 35.32 C 28.18 33.34 27.19 32.94 24.19 33.19 C 21.08 33.45 20.22 34.06 18.74 37.09 C 16.29 42.10 15.07 52.99 15.03 70.07 C 15.01 80.30 14.53 86.21 13.43 89.91 C 11.65 95.93 11.75 96.11 19.73 100.06 C 25.54 102.94 27.01 102.38 29.01 96.50 C 32.91 85.02 39.32 75.44 45.10 72.45 C 46.81 71.56 50.80 71.00 55.37 71.00 C 62.37 71.00 63.04 71.19 65.90 74.05 C 69.57 77.73 71.61 84.10 72.55 94.86 C 73.33 103.84 74.36 102.90 62.00 104.49 C 56.51 105.20 48.37 109.54 45.68 113.19 C 43.78 115.77 43.77 116.00 45.43 118.53 C 46.38 119.98 47.01 121.28 46.83 121.41 C 46.65 121.53 43.61 122.49 40.08 123.53 C 36.55 124.57 31.11 127.07 27.99 129.09 C 17.89 135.61 15.00 141.93 15.00 157.47 C 15.00 167.62 15.03 167.73 18.82 173.59 C 26.78 185.88 40.77 195.34 55.50 198.39 C 64.89 200.33 79.35 200.38 85.70 198.50 Z  M 151.83 120.48 C 155.16 119.81 155.16 119.81 154.42 114.65 C 153.40 107.54 153.68 104.96 156.31 97.74 C 158.86 90.71 164.32 81.98 168.93 77.56 C 170.62 75.95 172.00 74.04 172.00 73.31 C 172.00 72.59 173.09 72.00 174.45 72.00 C 177.26 72.00 177.51 72.94 178.49 87.00 C 179.16 96.64 181.26 106.67 183.52 111.04 C 184.93 113.77 185.47 114.00 190.53 114.00 C 197.01 114.00 196.61 116.59 194.09 91.00 C 193.09 80.83 192.47 72.16 192.70 71.75 C 192.93 71.34 196.92 71.00 201.56 71.00 C 209.40 71.00 210.00 71.15 210.00 73.05 C 210.00 76.77 213.17 81.39 221.82 90.25 C 230.19 98.82 230.46 99.00 235.11 99.00 C 241.30 99.00 244.00 95.96 244.00 89.00 C 244.00 84.33 243.95 84.25 240.38 83.67 C 236.88 83.11 226.12 77.19 221.00 73.02 C 218.50 70.99 218.50 70.99 239.43 71.10 C 258.73 71.21 260.47 71.07 261.72 69.37 C 263.89 66.40 262.84 63.67 258.75 61.67 C 250.60 57.69 235.10 56.23 198.89 56.05 C 189.27 56.00 189.27 56.00 188.58 45.58 C 186.79 18.95 179.96 2.01 172.60 5.95 C 170.52 7.06 170.37 7.60 171.09 11.45 C 172.19 17.36 175.00 47.32 175.00 53.19 C 175.00 58.00 175.00 58.00 170.12 58.00 C 165.91 58.00 165.15 57.69 164.60 55.75 C 161.56 44.84 155.55 20.12 154.58 14.50 C 153.18 6.40 152.75 6.14 143.94 8.09 C 137.31 9.56 137.62 8.17 140.68 23.00 C 141.93 29.03 148.14 48.16 151.43 56.10 C 152.01 57.50 150.44 57.78 138.88 58.39 C 124.66 59.14 113.61 60.35 105.25 62.07 C 100.38 63.06 100.00 63.35 100.00 66.02 C 100.00 67.61 100.55 70.12 101.23 71.59 C 102.45 74.28 102.45 74.28 114.48 73.63 C 121.09 73.26 133.42 72.68 141.89 72.32 C 157.27 71.68 157.27 71.68 152.70 76.25 C 146.00 82.95 142.46 90.55 139.52 104.54 C 138.06 111.50 138.06 111.50 141.58 116.80 C 144.07 120.56 145.59 121.97 146.80 121.63 C 147.73 121.36 150.00 120.85 151.83 120.48 Z  M 214.89 47.84 C 216.96 43.41 217.19 41.83 216.66 35.63 C 216.32 31.71 215.36 25.89 214.52 22.70 C 212.58 15.31 206.95 1.00 205.98 1.00 C 203.93 1.00 198.00 4.19 198.00 5.29 C 198.00 9.19 200.37 24.69 202.10 32.14 C 203.95 40.08 204.00 41.24 202.67 46.34 C 201.87 49.39 201.47 52.14 201.78 52.44 C 202.08 52.75 204.62 52.98 207.42 52.96 C 212.50 52.92 212.50 52.92 214.89 47.84 Z  M 233.12 183.85 C 231.26 183.31 228.61 182.14 227.23 181.23 C 224.76 179.61 224.73 179.45 225.33 169.69 C 225.66 164.24 226.34 159.28 226.85 158.65 C 227.36 158.02 228.09 155.14 228.48 152.26 C 229.65 143.55 234.78 138.01 243.10 136.49 C 246.70 135.83 246.70 135.83 247.35 141.17 C 247.71 144.10 248.29 155.16 248.66 165.75 C 249.32 185.00 249.32 185.00 242.91 184.91 C 239.38 184.86 234.98 184.38 233.12 183.85 Z  M 60.00 183.57 C 38.53 178.80 28.08 170.00 28.02 156.65 C 28.01 153.98 28.73 150.26 29.63 148.37 C 33.14 140.97 43.92 135.48 57.25 134.30 C 63.71 133.74 64.00 133.60 64.00 131.10 C 63.99 129.67 62.65 126.47 61.00 124.00 C 58.01 119.50 58.01 119.50 61.26 118.75 C 63.04 118.33 68.71 117.99 73.86 117.99 C 82.86 117.99 83.46 118.13 89.36 121.66 C 108.38 133.02 120.00 144.92 120.00 153.04 C 120.00 157.72 102.31 176.73 94.52 180.42 C 92.42 181.42 89.30 182.30 87.60 182.37 C 84.50 182.50 84.50 182.50 84.21 173.75 C 83.92 165.00 83.92 165.00 94.96 165.00 C 104.56 165.00 106.25 164.75 107.94 163.06 C 110.03 160.97 111.63 154.82 110.54 153.06 C 110.13 152.40 105.05 152.00 97.05 152.00 C 85.80 152.00 84.11 151.78 83.40 150.25 C 82.95 149.29 82.34 143.78 82.04 138.00 C 81.50 127.50 81.50 127.50 76.62 127.57 C 69.84 127.67 69.00 129.12 69.00 140.69 C 69.00 150.00 69.00 150.00 58.75 150.00 C 47.45 150.00 43.20 151.37 39.72 156.12 C 37.81 158.73 37.81 158.77 40.15 162.87 C 42.77 167.45 42.60 167.41 52.88 165.57 C 56.94 164.85 60.99 164.40 61.88 164.57 C 68.55 165.85 69.19 166.20 70.46 169.29 C 71.18 171.05 72.10 175.31 72.49 178.75 C 73.20 185.00 73.20 185.00 69.35 184.90 C 67.23 184.84 63.02 184.24 60.00 183.57 Z "/>
</g>
</svg>