<?xml version="1.0" encoding="UTF-8" standalone="no"?>
<!DOCTYPE svg PUBLIC "-//W3C//DTD SVG 1.1//EN" "http://www.w3.org/Graphics/SVG/1.1/DTD/svg11.dtd" >
<svg xmlns="http://www.w3.org/2000/svg" xmlns:xlink="http://www.w3.org/1999/xlink" version="1.1" viewBox="0 0 176 256">
 <g >
 <path fill="currentColor"
d=" M 136.57 237.22 C 141.06 234.93 147.87 227.98 150.66 222.86 C 153.42 217.80 153.03 204.75 149.93 198.35 C 146.73 191.74 140.47 185.75 135.09 184.14 C 118.55 179.20 105.18 184.17 97.48 198.14 C 94.90 202.82 94.55 204.41 94.71 210.65 C 94.81 214.59 95.56 219.40 96.37 221.34 C 98.20 225.73 105.37 233.62 109.45 235.74 C 118.41 240.42 129.15 241.00 136.57 237.22 Z  M 69.29 228.25 C 76.30 216.07 82.89 202.64 89.06 188.00 C 94.74 174.50 94.74 174.50 130.72 174.90 C 172.08 175.35 167.96 176.64 167.99 163.25 C 168.00 156.00 168.00 156.00 159.23 156.00 C 150.46 156.00 150.46 156.00 151.67 139.75 C 152.33 130.81 152.90 119.63 152.94 114.89 C 153.00 106.28 153.00 106.28 147.75 105.65 C 144.86 105.30 135.57 105.01 127.10 105.01 C 111.70 105.00 111.70 105.00 112.33 94.69 C 112.96 84.38 112.96 84.38 90.02 82.57 C 77.41 81.57 66.45 81.00 65.68 81.29 C 64.75 81.65 64.04 84.29 63.58 89.17 C 61.99 105.93 64.45 104.34 40.98 103.78 C 20.26 103.28 20.26 103.28 19.60 117.89 C 19.25 125.93 18.68 137.11 18.34 142.75 C 17.73 153.00 17.73 153.00 12.86 153.00 C 8.00 153.00 8.00 153.00 8.00 162.50 C 8.00 172.00 8.00 172.00 12.25 172.12 C 14.59 172.19 22.66 172.53 30.20 172.87 C 43.90 173.50 43.90 173.50 37.53 186.50 C 34.03 193.65 29.77 201.86 28.06 204.75 C 24.96 210.01 24.96 210.01 42.73 221.59 C 52.50 227.96 61.40 233.79 62.50 234.54 C 63.60 235.28 64.57 235.92 64.66 235.95 C 64.75 235.98 66.83 232.51 69.29 228.25 Z  M 101.43 152.75 C 102.00 150.77 105.65 134.92 107.81 125.00 C 108.57 121.50 108.57 121.50 122.44 121.22 C 136.31 120.94 136.31 120.94 135.66 133.72 C 135.30 140.75 135.01 148.41 135.00 150.75 C 135.00 155.00 135.00 155.00 117.88 155.00 C 100.77 155.00 100.77 155.00 101.43 152.75 Z  M 35.37 136.35 C 35.75 127.14 36.16 119.58 36.28 119.55 C 36.40 119.52 41.56 119.64 47.75 119.81 C 57.54 120.08 58.99 120.34 58.95 121.81 C 58.92 122.74 57.22 130.03 55.16 138.00 C 51.41 152.50 51.41 152.50 43.05 152.79 C 34.69 153.09 34.69 153.09 35.37 136.35 Z "/>
</g>
</svg>