<?xml version="1.0" encoding="UTF-8" standalone="no"?>
<!DOCTYPE svg PUBLIC "-//W3C//DTD SVG 1.1//EN" "http://www.w3.org/Graphics/SVG/1.1/DTD/svg11.dtd" >
<svg xmlns="http://www.w3.org/2000/svg" xmlns:xlink="http://www.w3.org/1999/xlink" version="1.1" viewBox="0 0 166 256">
 <g >
 <path fill="currentColor"
d=" M 59.00 224.40 C 59.00 221.79 59.00 221.79 104.85 222.53 C 150.70 223.27 150.70 223.27 151.40 219.88 C 153.61 209.29 156.00 195.25 156.00 192.88 C 156.00 190.27 155.63 190.06 148.25 188.48 C 143.99 187.57 139.79 186.64 138.93 186.40 C 137.69 186.07 137.10 187.36 136.18 192.35 C 135.53 195.86 135.00 199.92 135.00 201.37 C 135.00 204.00 135.00 204.00 121.75 204.00 C 114.46 204.00 97.36 203.70 83.75 203.34 C 59.00 202.68 59.00 202.68 59.00 186.20 C 59.00 169.73 59.00 169.73 69.25 170.34 C 74.89 170.68 94.24 171.25 112.25 171.62 C 143.94 172.26 145.00 172.22 145.01 170.39 C 145.02 169.35 146.13 152.07 147.49 132.00 C 148.85 111.92 149.97 93.81 149.98 91.75 C 150.00 88.00 150.00 88.00 105.00 88.00 C 65.67 88.00 60.00 87.81 60.00 86.50 C 60.00 85.21 56.63 85.00 35.66 85.00 C 11.33 85.00 11.33 85.00 10.66 133.75 C 10.30 160.56 10.00 192.51 10.00 204.75 C 10.00 227.00 10.00 227.00 34.50 227.00 C 59.00 227.00 59.00 227.00 59.00 224.40 Z  M 104.77 133.75 C 104.50 115.50 104.50 115.50 95.25 115.21 C 86.00 114.92 86.00 114.92 86.00 132.96 C 86.00 151.00 86.00 151.00 77.14 151.00 C 72.27 151.00 66.19 150.71 63.64 150.36 C 59.00 149.73 59.00 149.73 59.00 137.52 C 59.00 130.80 59.29 121.21 59.65 116.20 C 60.29 107.10 60.29 107.10 94.40 106.80 C 113.15 106.63 128.68 106.61 128.91 106.74 C 129.13 106.87 128.72 117.11 128.00 129.49 C 126.69 152.00 126.69 152.00 115.87 152.00 C 105.05 152.00 105.05 152.00 104.77 133.75 Z "/>
</g>
</svg>