<?xml version="1.0" encoding="UTF-8" standalone="no"?>
<!DOCTYPE svg PUBLIC "-//W3C//DTD SVG 1.1//EN" "http://www.w3.org/Graphics/SVG/1.1/DTD/svg11.dtd" >
<svg xmlns="http://www.w3.org/2000/svg" xmlns:xlink="http://www.w3.org/1999/xlink" version="1.1" viewBox="0 0 235 256">
 <g >
 <path fill="currentColor"
d=" M 224.00 186.99 C 224.00 149.98 224.00 149.98 186.75 150.24 C 149.50 150.50 149.50 150.50 149.21 159.75 C 148.94 168.48 149.04 169.00 150.96 169.00 C 152.77 169.00 153.00 169.63 153.00 174.50 C 153.00 180.00 153.00 180.00 149.00 180.00 C 145.00 180.00 145.00 180.00 145.00 166.08 C 145.00 158.43 144.73 151.45 144.39 150.58 C 143.95 149.43 142.43 149.00 138.84 149.00 C 133.90 149.00 133.90 149.00 134.20 143.25 C 134.50 137.50 134.50 137.50 176.25 137.24 C 218.00 136.98 218.00 136.98 217.99 113.74 C 217.98 100.96 217.70 89.49 217.37 88.25 C 216.77 86.01 216.67 86.00 196.63 86.00 C 176.50 86.00 176.50 86.00 171.08 76.25 C 168.09 70.89 165.49 66.30 165.30 66.06 C 164.82 65.46 149.00 73.24 149.00 74.08 C 149.00 74.45 150.12 77.29 151.50 80.40 C 152.88 83.51 154.00 86.27 154.00 86.52 C 154.00 86.77 140.35 86.69 123.66 86.33 C 93.32 85.68 93.32 85.68 92.66 95.00 C 92.30 100.12 92.00 119.74 92.00 138.60 C 92.00 172.90 92.00 172.90 97.25 173.20 C 102.50 173.50 102.50 173.50 103.10 198.00 C 103.42 211.47 103.76 222.61 103.85 222.75 C 103.93 222.89 113.22 223.00 124.50 223.00 C 145.00 223.00 145.00 223.00 145.00 211.00 C 145.00 199.00 145.00 199.00 149.50 199.00 C 154.00 199.00 154.00 199.00 154.00 209.50 C 154.00 220.00 154.00 220.00 162.00 220.00 C 170.00 220.00 170.00 220.00 170.00 209.50 C 170.00 199.00 170.00 199.00 175.00 199.00 C 180.00 199.00 180.00 199.00 180.00 209.50 C 180.00 220.00 180.00 220.00 188.00 220.00 C 196.00 220.00 196.00 220.00 196.00 209.50 C 196.00 199.00 196.00 199.00 198.50 199.00 C 200.99 199.00 201.00 198.97 201.00 189.50 C 201.00 180.03 200.99 180.00 198.50 180.00 C 196.14 180.00 196.00 179.70 196.00 174.50 C 196.00 169.00 196.00 169.00 199.85 169.00 C 203.70 169.00 203.70 169.00 204.35 177.25 C 204.70 181.79 204.99 189.89 204.99 195.25 C 205.00 204.34 204.86 205.00 203.00 205.00 C 201.14 205.00 201.00 205.67 201.00 214.50 C 201.00 224.00 201.00 224.00 212.50 224.00 C 224.00 224.00 224.00 224.00 224.00 186.99 Z  M 85.99 183.26 C 85.99 182.84 84.53 181.50 82.74 180.28 C 80.96 179.06 75.76 174.30 71.19 169.70 C 63.70 162.17 62.95 161.06 63.57 158.56 C 64.42 155.18 67.48 153.77 79.32 151.34 C 85.67 150.03 88.00 149.14 87.98 148.02 C 87.96 145.88 84.28 131.95 83.54 131.21 C 83.21 130.88 80.39 131.13 77.29 131.79 C 74.18 132.44 71.51 132.84 71.35 132.68 C 71.19 132.52 72.03 129.39 73.22 125.72 C 74.41 122.06 75.15 118.82 74.86 118.53 C 74.20 117.87 38.08 107.00 36.55 107.00 C 35.93 107.00 33.95 111.50 32.15 117.00 C 30.34 122.50 28.76 127.00 28.62 127.00 C 28.48 127.00 25.95 125.20 23.00 123.00 C 20.05 120.80 17.33 119.00 16.96 119.00 C 16.58 119.00 13.98 122.47 11.19 126.70 C 6.10 134.41 6.10 134.41 12.35 138.95 C 15.78 141.45 19.58 144.18 20.79 145.00 C 22.98 146.50 22.98 146.50 17.56 165.50 C 14.57 175.95 12.44 184.76 12.82 185.09 C 13.19 185.41 21.60 188.06 31.50 190.99 C 41.40 193.91 50.03 196.49 50.67 196.72 C 51.37 196.98 52.74 194.36 54.11 190.08 C 55.37 186.18 56.65 183.00 56.97 183.00 C 57.29 183.00 60.91 186.40 65.03 190.55 C 72.50 198.11 72.50 198.11 79.25 191.06 C 82.96 187.18 86.00 183.67 85.99 183.26 Z  M 169.00 174.50 C 169.00 169.00 169.00 169.00 173.89 169.00 C 179.38 169.00 180.00 169.72 180.00 176.08 C 180.00 180.00 180.00 180.00 174.50 180.00 C 169.00 180.00 169.00 180.00 169.00 174.50 Z  M 138.20 117.27 C 133.90 116.88 133.90 116.88 134.20 111.69 C 134.50 106.50 134.50 106.50 155.00 105.82 C 201.74 104.26 197.78 104.12 198.43 107.37 C 198.74 108.96 199.00 111.99 199.00 114.12 C 199.00 118.00 199.00 118.00 170.75 117.83 C 155.21 117.73 140.56 117.48 138.20 117.27 Z "/>
</g>
</svg>