<?xml version="1.0" encoding="UTF-8" standalone="no"?>
<!DOCTYPE svg PUBLIC "-//W3C//DTD SVG 1.1//EN" "http://www.w3.org/Graphics/SVG/1.1/DTD/svg11.dtd" >
<svg xmlns="http://www.w3.org/2000/svg" xmlns:xlink="http://www.w3.org/1999/xlink" version="1.1" viewBox="0 0 164 256">
 <g >
 <path fill="currentColor"
d=" M 146.16 225.25 C 151.23 212.02 155.21 198.81 154.36 198.04 C 153.89 197.60 150.35 196.23 146.50 194.98 C 142.65 193.73 139.05 192.54 138.49 192.34 C 137.94 192.14 135.91 196.52 133.99 202.08 C 130.50 212.19 130.50 212.19 116.50 211.58 C 75.08 209.78 79.00 211.25 79.00 197.53 C 79.00 190.79 79.28 183.24 79.62 180.75 C 80.24 176.22 80.24 176.22 101.37 175.59 C 112.99 175.25 126.89 174.70 132.25 174.37 C 142.00 173.78 142.00 173.78 141.99 152.14 C 141.98 140.24 141.73 129.60 141.44 128.50 C 140.91 126.55 140.21 126.51 110.84 126.86 C 80.78 127.22 80.78 127.22 81.14 111.86 C 81.50 96.50 81.50 96.50 72.30 96.21 C 61.58 95.88 62.52 94.28 61.46 114.50 C 61.11 121.10 60.60 126.72 60.33 127.00 C 60.06 127.28 47.72 127.66 32.92 127.86 C 2.22 128.26 5.32 124.47 6.67 159.91 C 7.33 177.31 7.33 177.31 33.52 176.66 C 59.72 176.00 59.72 176.00 59.22 201.89 C 58.72 227.77 58.72 227.77 63.61 228.39 C 66.30 228.72 84.47 229.48 103.99 230.07 C 123.51 230.66 139.67 231.34 139.91 231.57 C 140.14 231.81 141.06 232.00 141.95 232.00 C 143.03 232.00 144.44 229.73 146.16 225.25 Z  M 71.00 86.35 C 97.67 78.92 119.67 72.66 119.87 72.46 C 120.45 71.89 115.86 54.00 115.14 53.98 C 114.44 53.96 12.68 82.18 12.22 82.52 C 11.97 82.71 15.35 96.15 16.57 99.86 C 17.12 101.53 12.20 102.75 71.00 86.35 Z "/>
</g>
</svg>