<?xml version="1.0" encoding="UTF-8" standalone="no"?>
<!DOCTYPE svg PUBLIC "-//W3C//DTD SVG 1.1//EN" "http://www.w3.org/Graphics/SVG/1.1/DTD/svg11.dtd" >
<svg xmlns="http://www.w3.org/2000/svg" xmlns:xlink="http://www.w3.org/1999/xlink" version="1.1" viewBox="0 0 214 256">
 <g >
 <path fill="currentColor"
d=" M 168.00 209.50 C 172.79 208.66 182.50 208.00 190.25 208.00 C 204.00 208.00 204.00 208.00 204.00 167.50 C 204.00 127.00 204.00 127.00 178.00 127.00 C 163.70 127.00 152.00 126.74 152.00 126.42 C 152.00 126.10 154.98 118.88 158.63 110.38 C 162.28 101.88 165.09 94.77 164.88 94.57 C 164.67 94.38 150.66 93.89 133.75 93.49 C 103.00 92.75 103.00 92.75 103.00 100.27 C 103.00 106.20 103.33 107.91 104.58 108.39 C 105.45 108.73 113.78 109.00 123.08 109.00 C 132.39 109.00 140.00 109.34 140.00 109.75 C 140.00 110.16 137.29 116.98 133.98 124.89 C 130.66 132.81 128.21 139.55 128.53 139.86 C 129.11 140.45 148.89 141.77 159.25 141.92 C 165.00 142.00 165.00 142.00 165.00 165.93 C 165.00 192.37 165.60 190.03 158.44 191.46 C 155.39 192.07 155.39 192.07 156.88 201.54 C 157.71 206.74 158.63 211.00 158.94 211.00 C 159.25 211.00 163.32 210.32 168.00 209.50 Z  M 152.81 184.86 C 158.49 172.14 162.76 161.41 162.31 161.02 C 160.05 159.06 145.88 153.73 145.15 154.56 C 144.12 155.73 124.99 198.63 125.02 199.71 C 125.03 200.34 140.06 207.60 142.00 207.91 C 142.28 207.96 147.14 197.58 152.81 184.86 Z  M 79.00 200.42 C 96.50 199.81 96.50 199.81 96.16 151.65 C 95.98 125.17 95.53 103.21 95.16 102.85 C 94.80 102.49 75.78 102.03 52.89 101.82 C 11.29 101.44 11.29 101.44 10.35 150.47 C 9.84 177.44 9.44 199.58 9.46 199.67 C 9.49 199.77 13.90 200.17 19.26 200.56 C 29.00 201.27 29.00 201.27 29.00 189.79 C 29.00 178.30 29.00 178.30 37.63 177.69 C 42.37 177.35 46.40 176.93 46.58 176.76 C 46.75 176.58 46.63 172.31 46.30 167.28 C 45.71 158.12 45.71 158.12 37.36 158.71 C 28.20 159.35 28.36 159.47 29.62 153.12 C 30.25 150.00 30.25 150.00 37.12 150.00 C 44.00 150.00 44.00 150.00 44.01 145.25 C 44.01 142.64 44.30 138.14 44.65 135.25 C 45.28 130.00 45.28 130.00 37.64 130.00 C 30.00 130.00 30.00 130.00 30.00 125.50 C 30.00 121.00 30.00 121.00 40.00 121.00 C 50.00 121.00 50.00 121.00 50.00 137.84 C 50.00 147.10 50.29 160.81 50.65 168.31 C 51.31 181.93 51.31 181.93 47.05 182.61 C 42.80 183.29 42.80 183.29 43.44 189.89 C 44.72 203.08 44.02 202.24 53.35 201.60 C 57.83 201.29 69.38 200.76 79.00 200.42 Z  M 127.39 172.89 C 132.78 160.73 136.80 150.46 136.34 150.06 C 135.20 149.09 121.21 143.00 120.11 143.00 C 119.18 143.00 99.39 186.79 100.09 187.31 C 100.74 187.80 116.44 194.85 117.05 194.93 C 117.35 194.97 122.00 185.05 127.39 172.89 Z "/>
</g>
</svg>