<?xml version="1.0" encoding="UTF-8" standalone="no"?>
<!DOCTYPE svg PUBLIC "-//W3C//DTD SVG 1.1//EN" "http://www.w3.org/Graphics/SVG/1.1/DTD/svg11.dtd" >
<svg xmlns="http://www.w3.org/2000/svg" xmlns:xlink="http://www.w3.org/1999/xlink" version="1.1" viewBox="0 0 237 256">
 <g >
 <path fill="currentColor"
d=" M 117.00 228.98 C 121.67 228.35 125.52 227.76 125.56 227.67 C 125.59 227.58 125.37 211.75 125.06 192.50 C 124.50 157.50 124.50 157.50 87.75 157.24 C 56.00 157.01 51.00 156.77 51.00 155.49 C 51.00 154.22 47.92 154.00 30.00 154.00 C 9.00 154.00 9.00 154.00 9.00 165.34 C 9.00 171.57 9.30 188.22 9.66 202.34 C 10.32 228.00 10.32 228.00 31.11 228.00 C 51.90 228.00 51.90 228.00 51.29 202.00 C 50.68 176.00 50.68 176.00 78.34 176.00 C 106.00 176.00 106.00 176.00 106.00 193.50 C 106.00 210.63 105.96 211.00 103.89 211.00 C 101.85 211.00 101.81 211.28 102.51 220.25 C 102.90 225.34 103.45 229.87 103.72 230.33 C 103.99 230.79 105.18 230.93 106.36 230.64 C 107.54 230.36 112.32 229.61 117.00 228.98 Z  M 95.00 219.50 C 95.00 211.00 95.00 211.00 98.00 211.00 C 101.00 211.00 101.00 211.00 101.00 201.50 C 101.00 192.00 101.00 192.00 98.43 192.00 C 96.22 192.00 95.97 191.69 96.61 189.75 C 98.20 184.89 97.66 183.75 92.77 181.73 C 90.17 180.65 87.39 180.02 86.59 180.33 C 85.79 180.63 84.34 183.41 83.37 186.49 C 81.70 191.80 81.44 192.08 78.60 191.80 C 75.85 191.53 75.44 190.98 73.78 185.29 C 71.95 179.09 71.95 179.09 66.23 181.21 C 58.76 183.98 58.55 184.22 60.41 187.84 C 62.44 191.75 62.41 192.00 60.00 192.00 C 58.14 192.00 58.00 192.67 58.00 201.50 C 58.00 210.97 58.01 211.00 60.50 211.00 C 62.97 211.00 63.00 211.10 63.00 219.50 C 63.00 228.00 63.00 228.00 79.00 228.00 C 95.00 228.00 95.00 228.00 95.00 219.50 Z  M 220.89 207.02 C 225.50 206.49 229.45 205.89 229.65 205.68 C 229.99 205.34 227.84 187.60 226.44 179.18 C 225.94 176.21 225.60 175.92 223.19 176.37 C 221.71 176.65 217.50 177.16 213.82 177.51 C 207.15 178.14 207.15 178.14 207.71 181.57 C 208.25 184.95 208.21 185.00 204.63 185.00 C 201.00 185.00 201.00 185.00 201.00 178.63 C 201.00 172.26 201.00 172.26 212.50 172.77 C 224.00 173.28 224.00 173.28 224.00 149.14 C 224.00 125.00 224.00 125.00 212.50 125.00 C 201.00 125.00 201.00 125.00 201.00 117.48 C 201.00 109.96 201.00 109.96 177.25 110.23 C 153.50 110.50 153.50 110.50 153.20 117.00 C 153.03 120.58 152.47 123.93 151.95 124.45 C 150.67 125.73 150.72 140.00 152.00 140.00 C 152.58 140.00 153.00 143.33 153.00 148.00 C 153.00 154.96 152.77 156.00 151.25 155.98 C 147.43 155.95 147.07 154.72 146.78 140.96 C 146.50 127.50 146.50 127.50 138.50 127.50 C 130.50 127.50 130.50 127.50 130.55 131.75 C 131.00 174.30 130.60 171.00 135.25 171.01 C 137.59 171.01 142.54 171.30 146.25 171.65 C 153.00 172.29 153.00 172.29 153.00 178.61 C 153.00 184.93 153.00 184.93 142.25 185.22 C 131.50 185.50 131.50 185.50 131.21 194.75 C 130.92 204.00 130.92 204.00 170.46 204.00 C 209.33 204.00 210.00 204.03 210.00 206.00 C 210.00 208.31 209.83 208.29 220.89 207.02 Z  M 107.22 130.50 C 107.34 120.88 107.45 110.19 107.47 106.75 C 107.50 100.50 107.50 100.50 80.75 100.00 C 54.00 99.50 54.00 99.50 54.00 108.75 C 54.00 113.84 54.11 118.07 54.25 118.16 C 54.39 118.25 61.92 118.59 71.00 118.91 C 87.50 119.50 87.50 119.50 87.81 123.75 C 88.11 128.00 88.11 128.00 68.08 128.00 C 48.05 128.00 48.05 128.00 47.78 113.75 C 47.50 99.50 47.50 99.50 37.75 99.21 C 28.00 98.93 28.00 98.93 28.00 109.31 C 28.00 115.01 28.29 125.81 28.65 133.30 C 29.31 146.92 29.31 146.92 36.90 147.26 C 41.08 147.45 58.56 147.69 75.75 147.80 C 107.00 148.00 107.00 148.00 107.22 130.50 Z  M 121.00 83.50 C 121.00 74.00 121.00 74.00 68.50 74.00 C 16.00 74.00 16.00 74.00 16.00 83.50 C 16.00 93.00 16.00 93.00 68.50 93.00 C 121.00 93.00 121.00 93.00 121.00 83.50 Z  M 201.00 148.50 C 201.00 141.00 201.00 141.00 204.50 141.00 C 208.00 141.00 208.00 141.00 208.00 148.50 C 208.00 156.00 208.00 156.00 204.50 156.00 C 201.00 156.00 201.00 156.00 201.00 148.50 Z "/>
</g>
</svg>