<?xml version="1.0" encoding="UTF-8" standalone="no"?>
<!DOCTYPE svg PUBLIC "-//W3C//DTD SVG 1.1//EN" "http://www.w3.org/Graphics/SVG/1.1/DTD/svg11.dtd" >
<svg xmlns="http://www.w3.org/2000/svg" xmlns:xlink="http://www.w3.org/1999/xlink" version="1.1" viewBox="0 0 209 256">
 <g >
 <path fill="currentColor"
d=" M 73.86 234.95 C 82.40 233.57 88.78 230.16 94.29 224.03 C 100.43 217.19 102.51 210.94 102.45 199.50 C 102.34 181.37 94.61 163.24 76.21 138.02 C 75.06 136.45 76.09 135.40 85.96 128.03 C 92.03 123.50 97.00 119.46 97.00 119.04 C 97.00 118.14 87.13 105.00 86.45 105.00 C 86.19 105.00 83.45 106.67 80.38 108.71 C 74.15 112.85 74.97 113.26 65.75 101.28 C 63.96 98.96 62.15 97.05 61.72 97.03 C 61.29 97.01 57.57 99.53 53.45 102.63 C 45.05 108.96 45.07 107.60 53.24 116.95 C 55.86 119.95 58.00 122.74 58.00 123.16 C 58.00 123.81 46.69 132.00 45.79 132.00 C 45.62 132.00 42.78 128.41 39.49 124.01 C 36.16 119.57 32.95 116.23 32.25 116.48 C 31.57 116.73 28.09 119.28 24.52 122.14 C 17.23 127.98 16.97 125.97 26.70 138.90 C 30.01 143.30 30.01 143.30 22.46 148.75 C 17.36 152.43 15.20 154.57 15.79 155.35 C 16.57 156.38 25.97 168.98 26.61 169.85 C 26.75 170.04 33.84 165.21 42.36 159.10 C 50.88 153.00 58.22 148.01 58.67 148.03 C 60.15 148.08 67.98 159.68 73.08 169.36 C 79.95 182.41 83.00 191.81 83.00 199.93 C 82.99 211.80 77.85 216.31 64.21 216.40 C 56.05 216.45 56.92 215.50 55.03 226.43 C 53.55 234.95 53.52 234.84 58.25 235.27 C 66.40 236.00 67.54 235.98 73.86 234.95 Z  M 58.22 210.46 C 68.27 203.01 76.64 196.51 76.81 196.02 C 76.98 195.53 74.77 191.98 71.89 188.13 C 66.65 181.14 66.65 181.14 61.08 185.17 C 58.01 187.38 49.54 193.47 42.25 198.70 C 34.96 203.92 28.82 208.49 28.60 208.85 C 28.28 209.36 38.88 223.76 39.72 223.95 C 39.83 223.98 48.16 217.91 58.22 210.46 Z  M 172.25 209.33 C 198.00 208.78 198.00 208.78 198.00 182.39 C 198.00 156.00 198.00 156.00 201.00 156.00 C 204.00 156.00 204.00 156.00 204.00 146.50 C 204.00 137.00 204.00 137.00 201.00 137.00 C 198.00 137.00 198.00 137.00 198.00 129.48 C 198.00 121.96 198.00 121.96 173.75 122.23 C 149.50 122.50 149.50 122.50 149.21 129.75 C 148.91 137.00 148.91 137.00 127.46 137.00 C 106.00 137.00 106.00 137.00 106.00 146.50 C 106.00 156.00 106.00 156.00 127.38 156.00 C 148.71 156.00 148.77 156.01 149.37 158.25 C 149.70 159.49 149.98 167.31 149.99 175.62 C 150.00 190.75 150.00 190.75 146.88 191.38 C 145.16 191.72 142.68 192.00 141.38 192.00 C 138.68 192.00 138.57 192.80 139.66 204.34 C 140.31 211.18 140.31 211.18 143.40 210.53 C 145.11 210.17 158.09 209.63 172.25 209.33 Z  M 138.44 183.64 C 147.39 175.28 147.39 175.28 140.95 168.18 C 134.51 161.08 134.51 161.08 131.51 163.86 C 129.85 165.39 123.55 171.06 117.50 176.47 C 111.45 181.87 106.07 186.69 105.54 187.16 C 104.95 187.69 107.28 190.75 111.46 194.96 C 118.35 201.90 118.35 201.90 123.92 196.95 C 126.99 194.24 133.52 188.25 138.44 183.64 Z  M 67.59 171.37 C 67.32 170.67 64.76 166.97 61.91 163.16 C 56.71 156.22 56.71 156.22 43.61 165.91 C 36.40 171.24 27.91 177.50 24.74 179.84 C 18.98 184.08 18.98 184.08 23.14 190.29 C 30.46 201.22 27.67 201.66 49.13 186.25 C 60.74 177.91 67.89 172.15 67.59 171.37 Z  M 45.36 95.59 C 58.36 85.93 69.00 77.72 69.00 77.35 C 69.00 76.59 58.15 62.00 57.59 62.00 C 56.71 62.00 9.86 98.91 9.78 99.66 C 9.63 101.26 19.51 113.95 20.61 113.56 C 21.22 113.35 32.36 105.26 45.36 95.59 Z "/>
</g>
</svg>