<?xml version="1.0" encoding="UTF-8" standalone="no"?>
<!DOCTYPE svg PUBLIC "-//W3C//DTD SVG 1.1//EN" "http://www.w3.org/Graphics/SVG/1.1/DTD/svg11.dtd" >
<svg xmlns="http://www.w3.org/2000/svg" xmlns:xlink="http://www.w3.org/1999/xlink" version="1.1" viewBox="0 0 230 267">
 <g >
 <path fill="currentColor"
d=" M 151.85 250.94 C 154.68 244.85 157.00 239.52 157.00 239.09 C 157.00 238.38 146.44 233.24 141.67 231.62 C 140.66 231.28 140.01 230.66 140.21 230.25 C 145.05 220.73 152.04 200.60 150.86 199.58 C 150.66 199.40 134.86 198.95 115.75 198.56 C 81.00 197.86 81.00 197.86 81.00 205.93 C 81.00 214.00 81.00 214.00 85.53 214.00 C 88.32 214.00 90.25 214.50 90.56 215.30 C 90.83 216.01 89.24 220.54 87.01 225.36 C 84.78 230.18 83.16 234.46 83.41 234.86 C 83.66 235.27 86.15 236.66 88.93 237.97 C 91.72 239.27 94.00 240.66 94.00 241.05 C 94.00 242.08 88.52 243.00 82.37 243.00 C 77.00 243.00 77.00 243.00 77.00 251.15 C 77.00 259.30 77.00 259.30 85.61 258.63 C 96.69 257.78 108.09 255.42 113.35 252.87 C 117.50 250.87 117.50 250.87 130.50 256.34 C 137.65 259.36 144.22 261.86 145.10 261.91 C 146.19 261.97 148.33 258.49 151.85 250.94 Z  M 60.00 186.16 C 60.00 119.32 60.00 119.32 83.63 118.70 C 96.63 118.35 107.41 117.93 107.59 117.75 C 108.04 117.29 108.32 42.98 107.87 42.56 C 107.66 42.37 85.56 41.88 58.75 41.48 C 10.00 40.74 10.00 40.74 10.00 146.87 C 10.00 253.00 10.00 253.00 35.00 253.00 C 60.00 253.00 60.00 253.00 60.00 186.16 Z  M 161.80 194.53 C 162.01 194.32 161.58 188.82 160.84 182.32 C 159.48 170.50 159.48 170.50 156.24 170.19 C 154.46 170.01 153.00 169.70 153.00 169.48 C 153.00 169.26 154.36 166.79 156.02 163.97 C 157.67 161.16 158.79 158.47 158.49 157.99 C 157.43 156.28 143.06 147.85 142.15 148.41 C 141.64 148.72 138.43 153.71 135.01 159.49 C 130.91 166.40 128.19 170.00 127.05 170.00 C 125.72 170.00 124.57 167.56 122.09 159.50 C 120.08 152.95 118.36 149.00 117.52 149.00 C 115.22 149.00 100.00 155.12 100.00 156.05 C 100.00 156.53 100.90 159.21 102.00 162.00 C 103.10 164.79 104.00 167.51 104.00 168.04 C 104.00 168.57 102.30 169.00 100.23 169.00 C 96.46 169.00 96.46 169.00 93.72 160.00 C 91.98 154.31 90.47 151.00 89.59 151.00 C 87.40 151.00 71.00 157.18 71.00 158.01 C 71.00 158.42 71.68 160.66 72.50 163.00 C 74.57 168.86 74.51 169.00 70.00 169.00 C 66.00 169.00 66.00 169.00 66.00 181.50 C 66.00 194.00 66.00 194.00 74.00 194.00 C 82.00 194.00 82.00 194.00 82.00 189.46 C 82.00 184.92 82.00 184.92 112.25 185.54 C 128.89 185.88 143.06 186.34 143.75 186.55 C 144.52 186.79 145.00 188.75 145.00 191.61 C 145.00 196.29 145.00 196.29 153.21 195.60 C 157.72 195.23 161.59 194.74 161.80 194.53 Z  M 112.50 144.97 C 130.10 143.29 145.56 141.69 146.85 141.41 C 149.18 140.92 149.20 140.82 148.49 131.71 C 148.10 126.64 147.63 122.26 147.46 121.96 C 147.29 121.67 132.37 122.88 114.32 124.66 C 96.27 126.43 80.22 127.91 78.65 127.94 C 75.79 128.00 75.79 128.00 76.47 136.25 C 77.27 146.05 77.74 148.00 79.32 148.01 C 79.97 148.01 94.90 146.64 112.50 144.97 Z  M 145.00 78.50 C 145.00 63.00 145.00 63.00 155.42 63.00 C 161.15 63.00 166.55 63.27 167.42 63.61 C 168.36 63.97 169.00 65.39 169.00 67.11 C 169.00 70.00 169.00 70.00 161.25 70.00 C 153.50 70.00 153.50 70.00 154.00 79.25 C 154.50 88.50 154.50 88.50 161.75 88.79 C 168.70 89.08 169.00 89.19 169.00 91.54 C 169.00 94.00 169.00 94.00 157.00 94.00 C 145.00 94.00 145.00 94.00 145.00 78.50 Z  M 113.00 219.43 C 103.50 215.04 103.50 215.04 115.75 215.02 C 122.49 215.01 128.00 215.28 128.00 215.61 C 128.00 216.69 123.65 224.00 123.07 223.91 C 122.75 223.86 118.22 221.85 113.00 219.43 Z  M 60.00 94.54 C 60.00 92.12 60.17 92.07 69.25 91.79 C 78.50 91.50 78.50 91.50 78.79 81.61 C 79.08 71.72 79.08 71.72 69.54 72.42 C 60.00 73.12 60.00 73.12 60.00 68.68 C 60.00 63.19 60.43 63.03 75.54 63.01 C 86.59 63.00 86.59 63.00 86.23 78.75 C 86.03 87.41 85.69 95.06 85.47 95.75 C 85.17 96.66 81.67 97.00 72.53 97.00 C 60.00 97.00 60.00 97.00 60.00 94.54 Z "/>
</g>
</svg>