<?xml version="1.0" encoding="UTF-8" standalone="no"?>
<!DOCTYPE svg PUBLIC "-//W3C//DTD SVG 1.1//EN" "http://www.w3.org/Graphics/SVG/1.1/DTD/svg11.dtd" >
<svg xmlns="http://www.w3.org/2000/svg" xmlns:xlink="http://www.w3.org/1999/xlink" version="1.1" viewBox="0 0 256 256">
 <g >
 <path fill="currentColor"
d=" M 28.77 241.67 C 37.15 238.25 59.29 225.67 68.34 219.17 C 72.65 216.08 80.55 209.01 85.89 203.47 C 93.48 195.59 96.60 191.44 100.21 184.45 C 109.22 166.99 114.65 150.84 112.98 146.45 C 112.31 144.68 112.39 144.00 113.27 144.00 C 118.88 144.02 176.01 138.66 177.76 137.95 C 181.82 136.30 182.87 131.66 184.98 106.00 C 187.33 77.48 187.48 70.04 185.72 67.64 C 183.69 64.86 177.71 64.07 166.89 65.15 C 153.14 66.53 153.31 66.63 157.62 59.50 C 165.68 46.17 179.00 19.24 179.00 16.29 C 179.00 12.69 177.00 10.72 173.81 11.17 C 171.32 11.53 171.85 10.61 158.52 38.00 C 154.38 46.53 148.85 56.65 146.24 60.50 C 141.50 67.50 141.50 67.50 111.61 69.66 C 95.17 70.85 79.72 72.38 77.28 73.06 C 68.84 75.43 68.11 79.57 70.43 112.29 C 72.80 145.70 72.67 145.52 93.53 144.82 C 104.55 144.46 105.98 144.59 105.39 145.95 C 105.03 146.80 103.49 151.86 101.96 157.20 C 97.03 174.46 91.17 184.50 77.78 198.59 C 67.71 209.20 46.54 223.02 28.88 230.53 C 17.89 235.20 15.84 237.84 20.00 242.00 C 22.45 244.45 21.87 244.48 28.77 241.67 Z  M 208.89 234.04 C 221.33 232.83 226.48 230.26 229.96 223.49 C 232.38 218.79 232.52 217.63 232.85 198.90 C 233.22 178.37 232.69 175.00 229.09 175.00 C 225.15 175.00 224.52 177.56 223.97 195.90 C 223.13 223.83 222.39 224.51 192.50 224.49 C 171.23 224.47 164.26 223.65 159.80 220.65 C 154.11 216.82 153.68 214.10 153.29 179.00 C 153.10 161.68 152.72 146.46 152.44 145.19 C 151.72 141.89 146.10 142.45 144.23 146.00 C 142.51 149.28 143.09 212.50 144.90 218.22 C 147.30 225.79 155.66 232.44 164.72 233.96 C 171.39 235.08 197.62 235.13 208.89 234.04 Z  M 114.35 59.82 C 117.15 55.36 106.79 37.27 93.40 23.23 C 88.25 17.83 86.86 16.89 84.40 17.17 C 79.46 17.73 80.00 21.54 85.99 28.39 C 91.36 34.53 98.78 45.17 103.50 53.50 C 105.06 56.25 107.02 59.31 107.86 60.29 C 109.67 62.42 112.87 62.18 114.35 59.82 Z  M 85.39 136.02 C 84.23 135.55 83.01 134.47 82.68 133.61 C 82.35 132.75 81.62 124.28 81.05 114.78 C 80.48 105.27 79.74 94.23 79.42 90.24 C 78.83 82.97 78.83 82.97 82.64 81.38 C 85.48 80.19 97.75 79.04 130.48 76.89 C 154.69 75.29 175.06 74.20 175.75 74.46 C 177.44 75.10 177.36 84.16 175.47 107.02 C 173.75 127.69 173.57 128.62 171.13 129.93 C 170.17 130.44 152.99 132.01 132.94 133.42 C 112.90 134.83 94.47 136.18 92.00 136.43 C 89.53 136.67 86.55 136.49 85.39 136.02 Z "/>
</g>
</svg>