<?xml version="1.0" encoding="UTF-8" standalone="no"?>
<!DOCTYPE svg PUBLIC "-//W3C//DTD SVG 1.1//EN" "http://www.w3.org/Graphics/SVG/1.1/DTD/svg11.dtd" >
<svg xmlns="http://www.w3.org/2000/svg" xmlns:xlink="http://www.w3.org/1999/xlink" version="1.1" viewBox="0 0 256 256">
 <g >
 <path fill="currentColor"
d=" M 92.13 243.35 C 93.22 242.03 93.60 233.57 94.00 201.75 C 94.50 161.81 94.50 161.81 101.72 158.78 C 109.15 155.66 111.26 153.23 108.96 150.45 C 107.34 148.50 105.03 148.62 99.03 150.99 C 93.98 152.98 93.98 152.98 94.24 97.24 C 94.50 41.50 94.50 41.50 104.71 40.49 C 115.15 39.45 116.58 38.89 117.17 35.63 C 117.90 31.50 115.98 31.46 68.50 34.69 C 29.21 37.37 22.61 38.05 20.94 39.56 C 18.53 41.74 18.52 42.52 20.88 44.88 C 22.47 46.47 23.81 46.67 29.88 46.24 C 37.01 45.73 37.01 45.73 36.76 111.50 C 36.50 177.26 36.50 177.26 29.17 180.49 C 19.64 184.69 17.23 187.01 18.80 190.46 C 19.44 191.86 20.38 193.00 20.89 193.00 C 21.41 193.00 34.96 187.37 51.01 180.49 C 67.07 173.62 81.28 167.72 82.60 167.39 C 85.00 166.78 85.00 166.78 85.00 203.96 C 85.00 227.67 85.37 241.83 86.04 243.07 C 87.30 245.44 90.28 245.57 92.13 243.35 Z  M 125.13 240.35 C 126.22 239.03 126.57 231.38 126.84 202.85 C 127.06 179.30 127.52 167.00 128.20 167.00 C 129.96 167.00 192.22 162.10 197.76 161.53 C 203.03 160.98 203.03 160.98 202.76 194.73 C 202.52 225.38 202.35 228.50 200.82 228.80 C 198.97 229.15 191.30 221.52 184.84 212.89 C 180.31 206.84 177.34 204.84 174.15 205.67 C 170.70 206.57 170.37 210.45 173.36 214.97 C 176.62 219.89 188.78 232.24 195.90 237.84 C 202.49 243.03 206.97 243.29 210.40 238.68 C 212.43 235.95 212.51 234.64 212.81 198.07 C 213.13 160.29 213.13 160.29 224.25 159.62 C 230.36 159.25 235.96 158.45 236.68 157.85 C 238.65 156.21 238.28 152.22 236.04 151.02 C 234.68 150.29 231.36 150.28 225.29 150.98 C 220.45 151.53 215.73 151.99 214.78 151.99 C 213.19 152.00 213.04 148.86 212.78 108.53 C 212.52 68.61 212.36 64.93 210.74 63.31 C 208.69 61.27 207.09 61.21 183.75 62.41 C 167.00 63.27 167.00 63.27 167.00 38.17 C 167.00 14.38 166.90 13.02 165.07 12.04 C 161.70 10.23 159.02 10.81 157.98 13.57 C 157.44 14.98 157.00 27.05 157.00 40.40 C 157.00 64.67 157.00 64.67 141.57 65.77 C 125.61 66.91 121.05 68.16 119.03 71.94 C 118.37 73.18 118.00 89.11 118.00 116.30 C 118.00 158.74 118.00 158.74 114.25 159.36 C 112.19 159.70 108.43 159.98 105.90 159.99 C 100.87 160.00 97.47 162.47 98.57 165.32 C 99.46 167.64 102.27 168.24 110.35 167.85 C 117.50 167.50 117.50 167.50 117.75 203.50 C 117.89 223.30 118.21 240.06 118.47 240.75 C 119.14 242.55 123.52 242.29 125.13 240.35 Z  M 46.00 150.61 C 46.00 128.24 46.00 128.24 57.75 127.57 C 76.25 126.53 77.99 126.17 79.13 123.16 C 80.50 119.56 77.90 117.69 72.50 118.40 C 70.30 118.69 63.44 119.22 57.25 119.59 C 46.00 120.26 46.00 120.26 46.00 104.28 C 46.00 88.31 46.00 88.31 61.61 87.37 C 75.27 86.54 77.39 86.18 78.64 84.48 C 79.42 83.41 79.92 81.85 79.75 81.02 C 79.49 79.72 77.03 79.54 62.70 79.79 C 45.95 80.08 45.95 80.08 46.23 62.29 C 46.50 44.50 46.50 44.50 61.50 43.34 C 69.75 42.71 78.42 42.15 80.76 42.09 C 85.02 42.00 85.02 42.00 84.76 99.60 C 84.50 157.20 84.50 157.20 69.50 163.41 C 61.25 166.82 52.59 170.37 50.25 171.30 C 46.00 172.98 46.00 172.98 46.00 150.61 Z  M 127.00 117.72 C 127.00 86.04 127.28 77.01 128.28 76.18 C 129.52 75.15 146.68 73.00 153.63 73.00 C 157.05 73.00 157.05 73.00 156.77 90.25 C 156.50 107.50 156.50 107.50 144.00 108.51 C 137.12 109.06 130.94 109.87 130.25 110.31 C 128.46 111.47 128.71 115.95 130.60 116.68 C 131.49 117.02 137.79 116.89 144.61 116.40 C 157.00 115.50 157.00 115.50 157.00 135.69 C 157.00 158.76 159.15 156.32 137.75 157.57 C 127.00 158.19 127.00 158.19 127.00 117.72 Z  M 167.23 135.25 C 167.50 115.50 167.50 115.50 180.39 114.34 C 193.70 113.14 194.95 112.63 194.98 108.37 C 195.01 105.51 192.93 105.11 182.91 106.07 C 165.39 107.74 167.00 109.36 167.00 90.06 C 167.00 80.74 167.36 72.90 167.79 72.63 C 169.16 71.78 197.63 70.69 200.38 71.38 C 203.00 72.04 203.00 72.04 203.00 111.97 C 203.00 151.91 203.00 151.91 199.75 152.42 C 196.12 152.98 172.08 155.00 168.96 155.00 C 167.02 155.00 166.97 154.43 167.23 135.25 Z "/>
</g>
</svg>