<?xml version="1.0" encoding="UTF-8" standalone="no"?>
<!DOCTYPE svg PUBLIC "-//W3C//DTD SVG 1.1//EN" "http://www.w3.org/Graphics/SVG/1.1/DTD/svg11.dtd" >
<svg xmlns="http://www.w3.org/2000/svg" xmlns:xlink="http://www.w3.org/1999/xlink" version="1.1" viewBox="0 0 256 256">
 <g >
 <path fill="currentColor"
d=" M 212.00 248.00 C 217.93 244.83 222.49 231.66 229.13 198.50 C 234.43 172.02 237.46 150.36 236.48 145.90 C 236.15 144.42 235.01 142.41 233.93 141.43 C 232.05 139.74 230.41 139.80 194.23 142.89 C 173.48 144.66 156.01 146.27 155.41 146.46 C 154.81 146.66 153.68 146.42 152.91 145.94 C 150.84 144.67 150.26 65.40 152.29 62.61 C 153.48 60.99 156.90 60.49 179.10 58.68 C 193.10 57.55 205.39 56.94 206.42 57.33 C 208.15 58.00 208.23 58.94 207.60 71.27 C 206.92 84.56 201.60 120.98 199.86 124.25 C 198.24 127.29 196.26 126.20 189.90 118.75 C 183.34 111.06 181.06 109.38 178.56 110.34 C 176.50 111.13 176.55 115.89 178.65 119.03 C 183.66 126.56 195.75 137.00 199.46 137.00 C 202.06 137.00 206.44 132.65 208.00 128.52 C 209.46 124.64 212.43 111.85 214.49 100.50 C 216.57 89.08 218.18 56.81 216.86 53.03 C 215.00 47.70 209.87 47.10 185.25 49.34 C 177.96 50.00 172.00 50.26 172.00 49.91 C 172.00 49.56 173.31 46.39 174.91 42.86 C 179.06 33.71 183.62 12.66 182.16 9.44 C 180.90 6.68 176.98 6.11 175.08 8.41 C 174.09 9.59 170.61 21.87 166.90 37.22 C 166.41 39.26 164.90 43.42 163.56 46.47 C 161.12 51.97 161.09 52.00 156.70 52.00 C 150.27 52.00 146.19 53.75 144.22 57.36 C 142.69 60.15 142.47 64.93 142.19 100.50 C 141.84 144.18 142.17 150.17 145.08 153.08 C 147.65 155.65 150.58 155.58 190.80 152.03 C 209.11 150.42 224.74 149.35 225.55 149.66 C 227.74 150.50 227.38 156.92 223.94 178.41 C 219.09 208.75 211.25 238.00 207.98 238.00 C 206.08 238.00 201.89 232.99 193.50 220.72 C 186.07 209.85 185.29 209.04 182.50 209.26 C 177.55 209.66 177.89 213.75 183.56 222.36 C 192.78 236.34 198.47 243.34 202.91 246.15 C 207.78 249.24 209.15 249.52 212.00 248.00 Z  M 105.22 237.25 C 110.09 231.70 111.88 220.82 117.94 159.70 C 122.46 114.18 123.31 102.20 123.41 82.17 C 123.49 65.13 123.36 63.75 121.56 62.42 C 119.17 60.67 107.22 60.65 81.25 62.33 C 71.21 62.98 63.00 63.46 63.00 63.40 C 63.00 63.33 64.34 60.02 65.99 56.03 C 69.78 46.84 74.59 31.83 77.04 21.58 C 79.69 10.50 78.37 6.63 72.89 9.37 C 69.78 10.92 68.36 14.03 66.39 23.63 C 61.45 47.81 39.33 92.61 24.17 109.14 C 20.31 113.36 19.00 115.55 19.00 117.83 C 19.00 121.66 20.34 122.52 23.97 121.01 C 28.57 119.11 47.25 94.32 54.89 79.97 C 58.94 72.38 58.94 72.38 79.72 71.17 C 106.68 69.61 110.46 69.65 111.98 71.48 C 112.95 72.64 112.96 77.09 112.06 92.23 C 107.53 168.27 103.10 215.22 99.88 221.22 C 97.72 225.26 95.22 223.30 80.77 206.25 C 75.01 199.45 73.28 198.00 70.91 198.00 C 68.68 198.00 67.90 198.56 67.41 200.50 C 66.30 204.94 67.86 207.75 77.32 218.37 C 87.70 230.02 90.81 232.86 97.14 236.48 C 102.34 239.46 103.22 239.54 105.22 237.25 Z  M 174.25 189.44 C 195.22 187.48 213.18 185.44 214.18 184.90 C 216.68 183.57 216.51 179.34 213.91 177.95 C 212.30 177.09 202.86 177.78 172.66 180.97 C 151.12 183.25 132.49 185.53 131.25 186.04 C 127.13 187.72 129.04 193.00 133.77 193.00 C 135.07 193.00 153.29 191.40 174.25 189.44 Z  M 81.86 158.05 C 84.41 157.57 87.32 156.13 88.85 154.60 C 91.48 151.97 91.48 151.97 92.13 130.24 C 92.49 118.28 92.55 107.38 92.26 106.00 C 90.88 99.51 88.29 98.87 69.65 100.41 C 52.90 101.80 49.77 102.85 47.91 107.75 C 47.30 109.33 47.02 119.67 47.20 133.55 C 47.44 152.24 47.79 157.04 48.99 158.49 C 50.34 160.11 51.72 160.21 63.99 159.58 C 71.42 159.19 79.46 158.51 81.86 158.05 Z  M 193.55 95.85 C 194.51 92.83 189.78 84.35 182.89 76.71 C 176.56 69.71 171.86 66.46 169.41 67.40 C 166.52 68.50 168.16 72.45 174.81 80.38 C 178.55 84.85 183.05 90.60 184.80 93.16 C 189.01 99.34 192.14 100.30 193.55 95.85 Z  M 56.75 151.44 C 56.34 151.01 56.00 141.32 56.00 129.90 C 56.00 110.98 56.16 109.09 57.75 108.63 C 60.14 107.94 79.03 106.48 81.46 106.80 C 82.53 106.94 83.71 107.53 84.07 108.11 C 84.99 109.60 83.93 146.14 82.91 148.12 C 82.05 149.78 78.88 150.40 65.00 151.57 C 60.88 151.92 57.16 151.86 56.75 151.44 Z "/>
</g>
</svg>