<?xml version="1.0" encoding="UTF-8" standalone="no"?>
<!DOCTYPE svg PUBLIC "-//W3C//DTD SVG 1.1//EN" "http://www.w3.org/Graphics/SVG/1.1/DTD/svg11.dtd" >
<svg xmlns="http://www.w3.org/2000/svg" xmlns:xlink="http://www.w3.org/1999/xlink" version="1.1" viewBox="0 0 248 256">
 <g >
 <path fill="currentColor"
d=" M 222.43 222.25 C 224.55 217.99 228.69 209.43 231.61 203.24 C 236.94 191.98 236.94 191.98 223.44 181.85 C 216.02 176.28 210.10 171.56 210.29 171.37 C 210.48 171.18 214.21 170.56 218.57 169.99 C 231.26 168.33 230.81 168.57 234.07 161.72 C 236.70 156.15 236.83 155.47 235.26 155.26 C 234.29 155.13 227.07 154.62 219.22 154.14 C 211.36 153.66 204.77 153.09 204.58 152.88 C 204.39 152.67 205.07 146.88 206.09 140.00 C 207.11 133.12 207.96 126.94 207.97 126.25 C 207.99 125.32 210.98 125.00 219.50 125.00 C 231.00 125.00 231.00 125.00 231.00 113.24 C 231.00 101.48 231.00 101.48 212.75 102.67 C 187.76 104.29 181.97 104.31 182.45 102.75 C 182.66 102.06 183.10 98.54 183.43 94.93 C 184.02 88.37 184.02 88.37 168.51 85.52 C 159.98 83.95 152.83 82.86 152.63 83.08 C 152.18 83.59 145.98 135.60 145.99 138.75 C 146.00 141.59 148.17 141.66 155.55 139.07 C 162.06 136.78 169.51 131.43 173.00 126.55 C 175.89 122.50 177.77 122.05 178.43 125.25 C 178.91 127.56 181.01 148.44 181.00 150.83 C 181.00 151.92 178.33 152.03 166.75 151.43 C 158.91 151.02 151.20 150.64 149.61 150.59 C 146.72 150.50 146.72 150.50 146.93 164.99 C 147.05 172.96 147.30 179.63 147.49 179.82 C 147.68 180.02 152.94 179.52 159.17 178.72 C 165.40 177.91 170.60 177.33 170.72 177.43 C 170.84 177.52 166.30 182.22 160.64 187.86 C 151.42 197.05 150.06 198.05 147.67 197.45 C 145.43 196.89 145.00 196.23 145.00 193.39 C 145.00 191.53 144.66 190.01 144.25 190.03 C 142.79 190.08 136.69 200.09 137.59 200.95 C 140.70 203.90 172.35 229.00 172.96 229.00 C 173.37 229.00 178.38 219.06 184.08 206.92 C 189.79 194.77 194.74 184.66 195.08 184.45 C 195.43 184.24 200.61 194.39 206.60 207.00 C 212.60 219.62 217.74 229.96 218.03 229.97 C 218.32 229.99 220.30 226.51 222.43 222.25 Z  M 132.41 194.75 C 139.69 153.75 142.97 125.83 144.60 90.75 C 145.26 76.63 145.38 76.00 147.39 76.01 C 148.55 76.01 168.18 78.26 191.00 81.01 C 213.82 83.75 233.56 85.99 234.85 86.00 C 237.19 86.00 237.19 86.00 236.57 75.25 C 234.87 46.01 236.77 48.73 218.64 49.49 C 209.76 49.86 201.71 50.38 200.75 50.65 C 198.32 51.33 198.50 49.57 201.96 38.79 C 203.70 33.39 204.53 29.33 203.97 28.98 C 202.69 28.19 165.87 24.80 165.25 25.42 C 164.98 25.69 166.64 31.82 168.94 39.06 C 171.24 46.29 172.99 52.34 172.81 52.51 C 172.64 52.68 166.43 52.96 159.00 53.13 C 145.55 53.43 145.50 53.43 145.17 51.12 C 144.84 48.81 144.84 48.81 127.50 49.15 C 117.97 49.34 109.79 49.87 109.33 50.33 C 108.87 50.79 108.36 63.28 108.19 78.08 C 108.02 92.89 107.66 105.00 107.38 105.00 C 107.11 105.00 102.76 102.08 97.73 98.52 C 92.69 94.95 88.28 92.37 87.93 92.77 C 86.99 93.85 82.73 125.75 83.38 126.81 C 83.69 127.30 89.02 128.03 95.22 128.42 C 101.42 128.81 106.86 129.48 107.31 129.92 C 107.75 130.36 107.98 133.09 107.81 135.99 C 107.50 141.26 107.50 141.26 100.00 144.07 C 89.64 147.95 88.61 147.90 89.43 143.50 C 89.80 141.57 89.83 140.00 89.51 140.00 C 89.19 140.00 86.66 141.15 83.88 142.56 C 80.04 144.51 78.98 145.52 79.45 146.81 C 79.79 147.74 83.31 156.98 87.28 167.34 C 94.50 186.17 94.50 186.17 100.64 179.59 C 104.02 175.96 107.06 173.00 107.39 173.00 C 107.73 173.00 108.00 178.13 108.00 184.41 C 108.00 195.81 108.00 195.81 103.32 197.41 C 100.75 198.28 98.53 199.00 98.40 199.00 C 98.27 199.00 97.64 197.43 97.00 195.51 C 96.37 193.60 95.49 191.80 95.03 191.52 C 94.11 190.95 86.67 206.01 87.48 206.82 C 87.95 207.29 124.95 215.67 127.57 215.91 C 128.18 215.96 130.22 207.07 132.41 194.75 Z  M 35.22 193.82 C 39.54 191.58 45.27 187.77 47.95 185.36 C 52.82 180.98 52.82 180.98 60.26 189.06 C 67.70 197.15 67.70 197.15 72.01 184.83 C 74.38 178.05 77.33 169.73 78.58 166.34 C 80.84 160.18 80.84 160.18 75.67 157.97 C 72.83 156.76 70.37 155.65 70.21 155.51 C 70.06 155.37 71.09 151.80 72.51 147.56 C 73.93 143.33 75.95 135.73 77.00 130.68 C 79.11 120.47 81.49 96.71 80.62 94.45 C 80.18 93.30 77.69 93.00 68.53 93.00 C 62.19 93.00 57.00 92.77 57.00 92.48 C 57.00 92.20 59.25 87.48 62.00 82.00 C 64.75 76.52 67.00 71.64 67.00 71.14 C 67.00 69.64 32.73 54.82 32.00 56.01 C 31.63 56.59 30.32 62.57 29.09 69.29 C 24.65 93.35 25.96 91.00 17.03 91.00 C 9.22 91.00 9.22 91.00 8.63 100.75 C 7.14 125.25 6.82 133.00 7.26 133.00 C 7.53 133.00 9.66 132.32 12.00 131.50 C 17.62 129.52 19.25 129.58 18.65 131.75 C 18.39 132.71 17.91 135.53 17.59 138.00 C 17.03 142.40 17.16 142.66 23.47 149.88 C 29.92 157.25 29.92 157.25 25.40 163.13 C 22.92 166.36 20.46 169.00 19.94 169.00 C 18.28 169.00 15.00 165.07 15.00 163.08 C 15.00 157.70 13.69 157.92 10.33 163.88 C 6.94 169.90 6.94 169.90 14.46 184.93 C 23.13 202.23 20.90 201.27 35.22 193.82 Z  M 36.00 141.22 C 34.08 140.31 32.36 139.48 32.19 139.39 C 32.02 139.29 33.91 135.15 36.40 130.20 C 40.92 121.19 40.92 121.19 52.03 117.49 C 58.13 115.46 63.28 113.95 63.48 114.15 C 63.99 114.66 41.09 143.01 40.22 142.94 C 39.83 142.90 37.92 142.13 36.00 141.22 Z "/>
</g>
</svg>