<?xml version="1.0" encoding="UTF-8" standalone="no"?>
<!DOCTYPE svg PUBLIC "-//W3C//DTD SVG 1.1//EN" "http://www.w3.org/Graphics/SVG/1.1/DTD/svg11.dtd" >
<svg xmlns="http://www.w3.org/2000/svg" xmlns:xlink="http://www.w3.org/1999/xlink" version="1.1" viewBox="0 0 199 256">
 <g >
 <path fill="currentColor"
d=" M 146.73 239.39 C 170.95 238.77 170.95 238.77 171.43 235.63 C 172.13 231.04 175.31 169.98 174.87 169.55 C 174.40 169.07 124.61 165.15 124.16 165.55 C 123.97 165.72 124.13 169.26 124.53 173.43 C 125.23 181.00 125.23 181.00 139.73 181.00 C 154.22 181.00 154.22 181.00 153.53 199.75 C 153.16 210.06 152.63 219.29 152.36 220.25 C 151.91 221.83 150.23 222.00 135.43 222.00 C 126.39 222.00 119.00 221.77 119.00 221.49 C 119.00 221.21 119.72 216.60 120.60 211.24 C 122.41 200.29 121.99 180.56 119.75 171.00 C 118.46 165.50 118.46 165.50 102.03 164.78 C 92.99 164.39 85.41 164.26 85.17 164.50 C 84.66 165.00 87.85 232.99 88.61 237.86 C 89.13 241.22 89.13 241.22 105.82 240.62 C 114.99 240.29 133.40 239.74 146.73 239.39 Z  M 52.85 180.65 C 62.83 159.29 71.00 141.46 71.00 141.03 C 71.00 139.93 62.95 140.85 53.28 143.06 C 33.24 147.66 17.84 159.86 12.62 175.28 C 8.81 186.54 11.99 199.52 21.18 210.20 C 24.76 214.37 33.35 221.06 34.06 220.24 C 34.41 219.83 42.86 202.02 52.85 180.65 Z  M 183.44 145.16 C 185.48 133.97 186.99 124.66 186.80 124.47 C 186.61 124.28 178.14 121.79 167.98 118.95 C 157.81 116.11 149.36 113.65 149.18 113.49 C 149.00 113.33 149.79 111.37 150.93 109.14 C 152.07 106.91 153.00 104.68 153.00 104.19 C 153.00 103.70 144.83 99.54 134.85 94.93 C 116.82 86.61 116.70 86.57 115.29 88.70 C 114.50 89.87 104.70 105.83 93.50 124.17 C 73.13 157.50 73.13 157.50 76.31 158.23 C 79.87 159.04 95.33 157.61 101.50 155.91 C 108.77 153.90 120.79 146.92 127.35 140.92 C 130.90 137.66 134.19 135.01 134.65 135.01 C 135.12 135.02 145.18 142.16 157.00 150.88 C 168.82 159.60 178.78 166.46 179.12 166.12 C 179.46 165.78 181.40 156.35 183.44 145.16 Z  M 59.90 120.20 C 63.82 112.39 63.82 112.39 42.75 100.45 C 31.15 93.88 21.18 88.39 20.58 88.25 C 19.99 88.11 16.92 92.39 13.77 97.75 C 8.75 106.30 8.26 107.59 9.77 108.26 C 10.72 108.67 21.17 113.26 33.00 118.46 C 44.83 123.65 54.83 127.92 55.24 127.95 C 55.65 127.98 57.74 124.49 59.90 120.20 Z  M 179.53 83.50 C 189.27 59.50 189.27 59.50 169.95 40.81 C 154.80 26.17 150.29 22.33 149.06 23.04 C 148.20 23.55 145.49 25.71 143.04 27.86 C 138.58 31.77 138.58 31.77 142.86 42.64 C 152.42 66.85 169.28 108.05 169.53 107.78 C 169.67 107.63 174.17 96.70 179.53 83.50 Z  M 88.60 96.57 C 102.17 91.65 111.09 83.08 119.41 67.00 C 123.54 59.01 132.01 36.08 131.99 32.93 C 131.99 31.97 125.89 29.43 113.40 25.18 C 103.18 21.70 94.70 19.00 94.57 19.18 C 94.44 19.35 89.23 37.05 83.00 58.50 C 76.76 79.95 71.44 98.13 71.16 98.91 C 70.44 100.95 80.10 99.66 88.60 96.57 Z  M 62.22 74.07 C 64.30 71.09 66.00 68.29 66.00 67.83 C 66.00 66.87 22.16 37.47 21.64 38.09 C 21.45 38.31 18.76 43.26 15.66 49.07 C 10.03 59.65 10.03 59.65 32.77 69.73 C 45.27 75.28 56.16 79.74 56.97 79.65 C 57.78 79.56 60.14 77.05 62.22 74.07 Z "/>
</g>
</svg>