<?xml version="1.0" encoding="UTF-8" standalone="no"?>
<!DOCTYPE svg PUBLIC "-//W3C//DTD SVG 1.1//EN" "http://www.w3.org/Graphics/SVG/1.1/DTD/svg11.dtd" >
<svg xmlns="http://www.w3.org/2000/svg" xmlns:xlink="http://www.w3.org/1999/xlink" version="1.1" viewBox="0 0 235 256">
 <g >
 <path fill="currentColor"
d=" M 176.95 236.45 C 184.35 235.62 190.57 234.77 190.77 234.56 C 190.97 234.36 190.27 226.84 189.20 217.85 C 188.13 208.86 187.35 201.39 187.47 201.25 C 187.58 201.11 195.67 201.47 205.45 202.05 C 215.22 202.64 223.39 202.95 223.59 202.75 C 223.79 202.54 224.26 195.99 224.63 188.18 C 225.31 173.99 225.31 173.99 222.40 174.50 C 218.77 175.14 187.90 179.00 186.37 179.00 C 185.66 179.00 184.99 175.71 184.57 170.25 C 183.48 155.76 183.84 156.45 175.97 154.06 C 162.02 149.82 163.30 148.80 162.48 164.78 C 162.08 172.48 161.40 179.35 160.96 180.06 C 160.29 181.14 132.22 185.55 131.37 184.71 C 131.23 184.56 139.44 175.23 149.62 163.97 C 168.12 143.50 168.12 143.50 193.55 142.93 C 207.54 142.61 219.25 142.08 219.58 141.76 C 220.05 141.28 224.88 62.10 224.98 53.25 C 225.00 51.00 225.00 51.00 192.25 50.97 C 155.27 50.94 157.86 52.14 170.84 41.00 C 176.08 36.50 176.08 36.50 162.41 28.22 C 154.89 23.66 148.61 20.06 148.46 20.22 C 148.31 20.37 146.23 27.25 143.83 35.50 C 139.46 50.50 139.46 50.50 121.23 50.18 C 100.04 49.80 102.14 42.86 104.84 104.50 C 106.50 142.50 106.50 142.50 121.25 143.00 C 135.99 143.50 135.99 143.50 123.70 149.94 C 110.09 157.07 108.00 157.28 108.00 151.53 C 108.00 149.59 107.65 148.00 107.21 148.00 C 105.65 148.00 96.78 157.83 97.42 158.86 C 97.78 159.45 103.00 165.68 109.03 172.71 C 119.90 185.38 119.98 185.51 117.25 186.13 C 115.74 186.48 112.81 186.82 110.75 186.88 C 106.46 187.02 106.40 187.12 108.70 190.79 C 109.63 192.28 110.46 193.61 110.53 193.75 C 110.60 193.89 121.41 194.92 134.55 196.05 C 147.68 197.17 158.61 198.28 158.84 198.51 C 159.07 198.73 158.39 207.95 157.34 218.99 C 155.43 239.06 155.43 239.06 159.47 238.51 C 161.68 238.21 169.55 237.28 176.95 236.45 Z  M 40.04 211.25 C 40.12 207.13 44.81 156.86 45.14 156.56 C 45.34 156.39 50.13 156.47 55.79 156.76 C 66.08 157.27 66.08 157.27 65.55 161.39 C 64.49 169.59 61.81 210.14 62.30 210.63 C 62.75 211.08 94.26 209.20 94.52 208.71 C 94.96 207.88 90.66 135.37 90.15 134.91 C 89.79 134.58 81.85 134.89 72.50 135.59 C 44.07 137.72 46.61 138.50 47.29 127.89 C 47.62 122.88 48.02 118.65 48.19 118.50 C 48.36 118.34 58.80 117.40 71.40 116.40 C 94.29 114.58 94.29 114.58 97.15 110.64 C 98.72 108.47 100.00 106.37 100.00 105.97 C 100.00 105.57 96.40 104.65 92.00 103.94 C 87.60 103.22 83.99 102.38 83.97 102.07 C 83.95 101.76 86.29 89.88 89.16 75.67 C 93.22 55.53 94.09 49.68 93.10 49.06 C 91.73 48.21 63.08 46.59 62.35 47.32 C 62.10 47.57 63.21 59.41 64.81 73.63 C 66.41 87.86 67.59 99.66 67.42 99.86 C 67.25 100.06 63.26 99.65 58.55 98.95 C 50.93 97.82 50.00 97.45 50.03 95.59 C 50.05 94.44 50.90 84.50 51.91 73.50 C 52.93 62.50 53.61 53.33 53.43 53.13 C 52.90 52.54 19.18 55.27 18.00 56.00 C 17.04 56.60 19.27 135.92 21.55 182.25 C 22.16 194.63 22.12 195.00 20.14 195.00 C 18.55 195.00 17.95 194.16 17.46 191.25 C 15.92 182.04 15.69 182.04 11.57 191.29 C 9.46 196.01 7.76 200.22 7.80 200.64 C 7.85 201.26 36.82 212.55 39.25 212.89 C 39.66 212.95 40.02 212.21 40.04 211.25 Z  M 139.58 123.75 C 139.99 121.96 140.81 117.58 141.41 114.00 C 142.50 107.50 142.50 107.50 149.76 107.00 C 158.15 106.42 157.55 105.69 158.52 117.61 C 159.30 127.17 159.56 126.96 146.67 126.99 C 138.84 127.00 138.84 127.00 139.58 123.75 Z  M 178.22 116.75 C 178.68 112.21 179.26 107.94 179.50 107.25 C 179.81 106.36 182.84 106.00 189.97 106.00 C 200.00 106.00 200.00 106.00 200.00 114.88 C 200.00 125.37 200.54 124.97 186.44 124.99 C 177.39 125.00 177.39 125.00 178.22 116.75 Z  M 141.54 82.75 C 140.04 68.37 139.58 69.54 146.90 69.20 C 150.42 69.03 153.64 69.26 154.06 69.70 C 154.48 70.14 155.14 74.89 155.53 80.25 C 156.24 90.00 156.24 90.00 149.26 90.00 C 142.29 90.00 142.29 90.00 141.54 82.75 Z  M 182.36 85.25 C 182.63 84.29 183.16 79.78 183.53 75.24 C 183.90 70.70 184.50 66.82 184.85 66.61 C 185.21 66.40 188.76 65.91 192.75 65.51 C 200.00 64.80 200.00 64.80 200.00 75.90 C 200.00 87.00 200.00 87.00 190.93 87.00 C 182.77 87.00 181.91 86.82 182.36 85.25 Z "/>
</g>
</svg>