<?xml version="1.0" encoding="UTF-8" standalone="no"?>
<!DOCTYPE svg PUBLIC "-//W3C//DTD SVG 1.1//EN" "http://www.w3.org/Graphics/SVG/1.1/DTD/svg11.dtd" >
<svg xmlns="http://www.w3.org/2000/svg" xmlns:xlink="http://www.w3.org/1999/xlink" version="1.1" viewBox="0 0 223 256">
 <g >
 <path fill="currentColor"
d=" M 109.14 220.93 C 112.78 219.98 112.78 219.98 113.50 205.92 C 113.97 196.94 114.64 191.71 115.37 191.45 C 115.99 191.24 126.82 190.61 139.42 190.06 C 156.02 189.33 162.57 188.70 163.16 187.78 C 163.60 187.07 163.98 183.74 163.98 180.36 C 164.00 174.21 164.00 174.21 147.25 173.58 C 138.04 173.23 127.45 172.68 123.71 172.37 C 116.92 171.79 116.92 171.79 117.21 163.64 C 117.50 155.50 117.50 155.50 140.50 155.50 C 163.50 155.50 163.50 155.50 164.36 146.19 C 164.83 141.07 165.06 136.76 164.86 136.60 C 164.66 136.44 154.47 136.75 142.21 137.29 C 129.95 137.82 119.66 137.99 119.34 137.67 C 119.01 137.35 119.14 133.13 119.63 128.29 C 120.50 119.50 120.50 119.50 145.75 119.23 C 171.00 118.97 171.00 118.97 171.02 123.73 C 171.05 133.81 168.88 198.72 168.37 202.89 C 167.84 207.27 167.84 207.27 162.44 201.94 C 159.48 199.01 156.86 196.82 156.63 197.06 C 156.40 197.30 155.58 203.24 154.80 210.25 C 153.39 223.00 153.39 223.00 178.70 223.00 C 204.00 223.00 204.00 223.00 204.01 220.25 C 204.03 213.91 199.93 109.88 199.39 103.13 C 198.81 95.76 198.81 95.76 179.61 96.48 C 160.41 97.20 160.41 97.20 162.80 68.56 C 164.11 52.80 164.97 39.36 164.71 38.69 C 164.23 37.44 125.25 31.42 124.23 32.44 C 123.94 32.73 125.12 47.26 126.87 64.73 C 128.61 82.20 130.02 97.29 130.02 98.25 C 130.00 99.62 129.14 100.00 126.00 100.00 C 122.67 100.00 122.00 99.67 122.00 98.00 C 122.00 96.08 121.33 96.00 104.50 96.00 C 87.00 96.00 87.00 96.00 86.98 98.75 C 86.94 103.94 93.08 218.50 93.57 221.65 C 94.10 225.12 92.76 225.19 109.14 220.93 Z  M 57.87 209.47 C 70.59 202.55 79.51 186.99 81.84 167.69 C 82.28 164.01 82.27 161.00 81.82 161.00 C 81.37 161.00 67.39 167.13 50.75 174.63 C 34.11 182.12 18.56 189.09 16.18 190.12 C 11.86 191.99 11.86 191.99 15.49 196.42 C 20.24 202.22 28.67 208.66 34.69 211.09 C 41.60 213.88 50.98 213.22 57.87 209.47 Z  M 52.29 161.09 C 65.93 160.08 77.25 159.08 77.44 158.87 C 78.19 158.10 79.66 145.91 79.05 145.53 C 78.70 145.32 71.69 144.83 63.46 144.44 C 55.23 144.06 47.87 143.41 47.09 142.99 C 46.07 142.45 50.52 137.19 63.59 123.52 C 73.44 113.22 81.62 104.28 81.77 103.65 C 81.92 103.02 77.04 95.81 70.94 87.64 C 60.92 74.20 59.73 72.95 58.59 74.64 C 57.91 75.66 54.94 80.55 52.02 85.50 C 44.47 98.25 44.76 98.00 37.41 98.00 C 31.13 98.00 31.13 98.00 43.07 77.51 C 49.63 66.24 55.00 56.63 55.00 56.16 C 55.00 55.15 21.91 42.76 21.17 43.49 C 20.90 43.76 18.30 58.28 15.39 75.74 C 12.48 93.21 9.82 109.00 9.49 110.83 C 8.88 114.16 8.88 114.16 21.94 113.83 C 29.12 113.65 35.00 113.86 35.00 114.30 C 35.00 114.74 32.33 119.73 29.06 125.39 C 23.13 135.68 23.13 135.68 22.42 149.34 C 21.71 163.00 21.71 163.00 24.60 162.97 C 26.20 162.95 38.66 162.10 52.29 161.09 Z  M 200.87 72.37 C 207.58 62.12 212.94 53.63 212.79 53.51 C 211.98 52.85 177.82 41.84 177.53 42.15 C 177.27 42.43 172.75 73.79 171.73 82.43 C 171.55 83.96 173.10 85.07 179.00 87.65 C 183.12 89.46 186.99 90.95 187.59 90.97 C 188.19 90.99 194.16 82.62 200.87 72.37 Z  M 111.98 82.17 C 116.94 78.22 119.17 73.21 119.13 66.07 C 119.08 53.91 111.53 46.00 100.00 46.00 C 84.77 46.00 74.10 62.78 81.27 75.46 C 84.02 80.31 90.58 85.07 95.69 85.94 C 101.31 86.90 107.99 85.35 111.98 82.17 Z "/>
</g>
</svg>