<?xml version="1.0" encoding="UTF-8" standalone="no"?>
<!DOCTYPE svg PUBLIC "-//W3C//DTD SVG 1.1//EN" "http://www.w3.org/Graphics/SVG/1.1/DTD/svg11.dtd" >
<svg xmlns="http://www.w3.org/2000/svg" xmlns:xlink="http://www.w3.org/1999/xlink" version="1.1" viewBox="0 0 237 256">
 <g >
 <path fill="currentColor"
d=" M 189.94 230.75 C 189.90 230.06 187.95 219.82 185.60 208.00 C 183.24 196.18 181.38 186.40 181.46 186.28 C 181.54 186.17 191.25 186.95 203.05 188.02 C 214.85 189.09 225.06 189.98 225.75 189.99 C 226.70 190.00 227.00 186.04 227.00 173.49 C 227.00 156.98 227.00 156.98 223.25 157.47 C 216.13 158.42 190.80 160.13 190.37 159.70 C 190.13 159.46 195.12 154.43 201.47 148.51 C 213.00 137.75 213.00 137.75 213.00 127.38 C 213.00 117.00 213.00 117.00 205.25 116.93 C 200.99 116.89 180.18 116.07 159.00 115.11 C 137.82 114.15 120.21 113.62 119.85 113.93 C 119.49 114.24 118.88 121.36 118.49 129.75 C 117.90 142.32 118.01 144.99 119.14 144.95 C 119.89 144.93 134.31 142.54 151.19 139.64 C 170.34 136.36 181.63 134.81 181.19 135.54 C 180.81 136.18 175.81 142.83 170.07 150.32 C 158.00 166.07 162.68 164.08 131.77 166.59 C 112.04 168.20 112.04 168.20 108.91 165.06 C 107.18 163.33 103.97 161.01 101.78 159.89 C 97.96 157.94 84.99 154.68 84.20 155.46 C 84.00 155.67 84.48 159.03 85.28 162.92 C 86.74 170.00 86.74 170.00 81.37 170.00 C 76.00 170.00 76.00 170.00 76.00 163.62 C 76.00 160.12 76.27 155.90 76.60 154.26 C 77.20 151.27 77.20 151.27 89.12 150.78 C 95.68 150.51 101.16 150.11 101.29 149.89 C 101.42 149.68 101.30 136.00 101.01 119.50 C 100.50 89.50 100.50 89.50 90.14 89.21 C 79.78 88.93 79.78 88.93 80.14 75.27 C 80.50 61.62 80.50 61.62 64.05 56.37 C 55.00 53.48 46.52 50.85 45.20 50.51 C 42.79 49.91 42.79 49.91 43.43 63.70 C 43.78 71.29 44.32 80.09 44.63 83.25 C 45.20 89.00 45.20 89.00 26.60 89.00 C 8.00 89.00 8.00 89.00 8.00 98.84 C 8.00 104.25 8.30 118.93 8.66 131.45 C 9.33 154.23 9.33 154.23 23.91 153.58 C 31.94 153.23 40.57 152.70 43.10 152.40 C 47.70 151.85 47.70 151.85 48.28 161.66 C 48.60 167.05 48.74 171.59 48.59 171.74 C 48.44 171.89 39.92 172.31 29.66 172.67 C 19.40 173.02 11.01 173.36 11.01 173.41 C 11.46 177.01 17.01 208.35 17.24 208.57 C 17.42 208.76 33.96 203.55 54.00 197.00 C 74.04 190.45 90.51 185.19 90.61 185.30 C 90.71 185.41 91.42 189.32 92.19 194.00 C 93.81 203.88 94.03 203.97 103.00 198.57 C 108.95 194.99 115.00 187.37 115.00 183.45 C 115.00 182.17 115.35 180.90 115.78 180.64 C 116.61 180.12 152.23 182.90 152.87 183.53 C 153.28 183.95 151.11 206.70 150.46 208.75 C 150.16 209.68 148.40 209.38 143.62 207.58 C 140.08 206.25 136.91 205.42 136.59 205.74 C 136.26 206.07 136.00 212.11 136.00 219.17 C 136.00 232.00 136.00 232.00 163.00 232.00 C 183.97 232.00 189.99 231.72 189.94 230.75 Z  M 200.67 105.45 C 209.72 101.10 218.58 93.10 221.65 86.50 C 225.83 77.53 224.29 70.20 216.79 63.43 C 213.05 60.05 201.88 54.00 199.37 54.00 C 198.35 54.00 185.00 104.71 185.00 108.61 C 185.00 111.07 191.88 109.68 200.67 105.45 Z  M 136.24 103.80 C 141.61 102.59 146.00 101.32 146.00 100.98 C 146.00 100.18 132.93 64.62 132.46 64.14 C 131.91 63.57 115.00 66.25 114.98 66.91 C 114.88 69.48 124.68 106.00 125.46 106.00 C 126.02 106.00 130.87 105.01 136.24 103.80 Z  M 170.60 101.37 C 176.04 99.37 180.64 97.62 180.80 97.48 C 180.97 97.34 177.39 89.26 172.85 79.53 C 164.58 61.84 164.58 61.84 157.54 62.53 C 153.67 62.91 150.31 63.40 150.08 63.62 C 149.62 64.05 150.25 67.03 155.64 89.75 C 157.62 98.14 159.57 105.00 159.97 105.00 C 160.37 105.00 165.15 103.36 170.60 101.37 Z  M 206.74 46.46 C 221.98 44.70 221.98 44.70 224.88 39.60 C 227.78 34.50 227.78 34.50 225.14 33.79 C 223.00 33.22 114.84 24.93 110.14 24.99 C 109.03 25.00 108.92 27.81 109.51 40.75 C 109.91 49.41 110.38 56.75 110.55 57.05 C 110.73 57.36 129.02 55.50 151.19 52.92 C 173.36 50.34 198.36 47.43 206.74 46.46 Z  M 40.64 133.31 C 40.34 131.21 39.80 125.08 39.45 119.68 C 38.80 109.86 38.80 109.86 42.15 110.18 C 45.39 110.49 45.52 110.68 46.14 115.75 C 46.49 118.64 46.94 124.49 47.14 128.75 C 47.50 136.50 47.50 136.50 44.35 136.81 C 41.39 137.09 41.16 136.88 40.64 133.31 Z  M 78.01 125.82 C 78.02 121.24 78.30 115.79 78.65 113.70 C 79.23 110.17 79.50 109.92 82.34 110.20 C 85.38 110.50 85.40 110.53 85.12 116.00 C 84.96 119.03 84.53 124.20 84.17 127.50 C 83.54 133.11 83.32 133.52 80.75 133.82 C 78.00 134.13 78.00 134.13 78.01 125.82 Z "/>
</g>
</svg>