<?xml version="1.0" encoding="UTF-8" standalone="no"?>
<!DOCTYPE svg PUBLIC "-//W3C//DTD SVG 1.1//EN" "http://www.w3.org/Graphics/SVG/1.1/DTD/svg11.dtd" >
<svg xmlns="http://www.w3.org/2000/svg" xmlns:xlink="http://www.w3.org/1999/xlink" version="1.1" viewBox="0 0 256 257">
 <g >
 <path fill="currentColor"
d=" M 90.27 241.37 C 110.62 231.17 130.81 214.20 140.49 199.15 C 143.33 194.75 147.58 185.57 151.09 176.25 C 154.32 167.70 157.15 160.51 157.38 160.28 C 158.15 159.52 166.57 175.82 180.57 205.14 C 191.25 227.52 194.71 233.91 195.93 233.53 C 197.17 233.14 238.27 229.04 241.25 229.01 C 241.66 229.00 242.00 227.65 242.00 226.00 C 242.00 223.05 241.91 223.00 236.75 222.97 C 228.49 222.92 217.06 221.18 210.36 218.95 C 200.62 215.71 191.82 205.33 176.98 179.56 C 169.26 166.14 162.00 150.78 162.00 147.85 C 162.00 146.66 163.15 143.71 164.55 141.32 C 167.11 136.96 167.11 136.96 161.95 128.42 C 159.11 123.72 156.95 119.73 157.15 119.56 C 157.62 119.14 192.85 114.97 195.83 114.99 C 198.32 115.00 198.16 115.38 186.11 137.24 C 184.05 141.00 183.73 142.35 184.61 143.74 C 185.22 144.71 186.18 145.50 186.74 145.50 C 187.30 145.50 190.58 141.68 194.04 137.00 C 203.84 123.73 208.74 118.37 214.59 114.48 C 217.56 112.51 220.00 110.57 220.00 110.17 C 220.00 109.77 216.88 106.35 213.06 102.56 C 206.11 95.67 206.11 95.67 201.31 100.70 C 196.50 105.74 196.50 105.74 168.18 109.96 C 152.60 112.29 139.62 113.96 139.34 113.67 C 138.57 112.90 146.62 96.89 150.56 91.34 C 152.45 88.68 154.00 85.61 154.00 84.50 C 154.00 83.40 155.84 76.99 158.08 70.25 C 161.43 60.21 162.56 57.91 164.33 57.52 C 168.57 56.60 192.78 54.92 210.69 54.31 C 220.70 53.97 229.47 53.30 230.19 52.82 C 231.76 51.78 228.84 49.14 220.56 44.13 C 215.14 40.84 215.14 40.84 207.32 42.42 C 191.51 45.63 166.00 48.70 166.00 47.40 C 166.00 44.17 171.46 25.99 173.59 22.12 C 176.01 17.74 176.01 17.74 168.37 9.33 C 164.17 4.70 160.24 1.09 159.62 1.30 C 158.85 1.56 158.58 6.00 158.76 15.59 C 158.95 25.46 158.51 32.41 157.26 39.50 C 155.50 49.50 155.50 49.50 137.50 51.16 C 105.55 54.10 108.55 54.79 108.19 44.45 C 107.97 38.04 108.38 33.83 109.63 29.63 C 111.39 23.75 111.39 23.75 104.45 17.36 C 96.18 9.76 94.82 8.88 93.05 9.97 C 91.94 10.66 92.00 11.54 93.39 15.02 C 96.14 21.89 97.80 31.79 98.16 43.48 C 98.50 54.46 98.50 54.46 83.00 55.71 C 74.47 56.39 60.11 57.08 51.08 57.23 C 39.62 57.42 34.55 57.85 34.27 58.67 C 34.06 59.32 36.67 61.74 40.08 64.06 C 46.28 68.26 46.28 68.26 63.39 66.16 C 72.80 65.00 84.73 63.74 89.90 63.37 C 99.31 62.69 99.31 62.69 98.74 68.88 C 98.44 72.29 97.46 76.18 96.57 77.54 C 95.01 79.92 95.12 80.29 99.59 88.05 C 106.56 100.13 107.27 99.37 108.50 78.49 C 109.50 61.50 109.50 61.50 131.29 59.63 C 143.28 58.60 153.34 58.01 153.65 58.32 C 153.96 58.63 153.16 63.24 151.88 68.56 C 149.55 78.25 149.55 78.25 145.87 73.98 C 140.77 68.05 139.00 68.91 139.00 77.31 C 139.00 92.68 126.93 123.07 110.90 148.06 C 108.21 152.26 106.00 155.98 106.00 156.31 C 106.00 156.65 106.88 157.40 107.95 157.97 C 110.25 159.20 111.61 157.46 125.05 136.09 C 133.59 122.50 133.59 122.50 142.05 121.43 C 146.70 120.85 150.84 120.54 151.25 120.74 C 152.69 121.47 151.94 137.58 150.07 146.00 C 145.84 165.02 136.61 188.44 128.99 199.52 C 120.88 211.30 108.39 222.53 89.50 235.02 C 83.45 239.02 78.33 242.43 78.13 242.60 C 77.41 243.20 78.94 246.00 79.99 246.00 C 80.57 246.00 85.19 243.92 90.27 241.37 Z  M 56.52 194.24 C 66.41 190.53 84.96 183.89 97.74 179.49 C 114.89 173.60 120.99 171.08 120.99 169.92 C 121.00 169.05 120.77 168.10 120.49 167.83 C 120.21 167.55 112.90 169.20 104.24 171.49 C 95.58 173.79 87.26 175.97 85.75 176.35 C 83.00 177.04 83.00 177.04 83.00 153.67 C 83.00 130.30 83.00 130.30 99.24 128.40 C 118.18 126.18 119.23 125.40 110.40 120.12 C 104.76 116.74 104.76 116.74 96.08 118.87 C 82.21 122.27 83.00 122.75 83.00 110.91 C 83.00 104.59 83.63 98.45 84.70 94.46 C 86.40 88.08 86.40 88.08 79.95 81.29 C 70.22 71.04 69.07 71.51 71.62 84.72 C 73.41 94.00 73.91 121.49 72.31 123.09 C 71.37 124.03 47.89 126.97 41.00 127.01 C 33.33 127.05 33.18 128.19 40.18 133.41 C 45.03 137.03 47.08 138.00 49.00 137.57 C 50.38 137.27 55.33 136.13 60.00 135.04 C 74.45 131.66 73.00 129.34 73.00 155.92 C 73.00 178.84 73.00 178.84 69.75 179.88 C 61.45 182.52 41.58 187.42 33.00 188.94 C 27.52 189.91 23.50 191.10 23.50 191.76 C 23.50 192.39 26.88 194.71 31.00 196.92 C 35.12 199.12 38.51 200.94 38.52 200.96 C 38.53 200.98 46.63 197.96 56.52 194.24 Z "/>
</g>
</svg>