<?xml version="1.0" encoding="UTF-8" standalone="no"?>
<!DOCTYPE svg PUBLIC "-//W3C//DTD SVG 1.1//EN" "http://www.w3.org/Graphics/SVG/1.1/DTD/svg11.dtd" >
<svg xmlns="http://www.w3.org/2000/svg" xmlns:xlink="http://www.w3.org/1999/xlink" version="1.1" viewBox="0 0 256 257">
 <g >
 <path fill="currentColor"
d=" M 75.42 235.64 C 75.72 232.81 76.42 214.53 76.98 195.00 C 78.74 133.43 77.77 139.78 86.75 130.71 C 91.01 126.41 96.21 121.92 98.30 120.73 C 102.75 118.20 102.74 117.93 97.50 106.44 C 95.60 102.25 93.54 98.99 92.95 99.18 C 92.35 99.38 90.63 102.46 89.13 106.02 C 80.68 126.02 55.71 154.56 26.75 177.34 C 14.54 186.94 13.13 188.37 14.05 190.10 C 15.26 192.36 14.60 192.66 27.00 184.21 C 38.43 176.41 52.59 165.18 61.51 156.84 C 65.11 153.48 68.20 150.90 68.39 151.11 C 68.57 151.32 68.18 165.72 67.52 183.10 C 66.40 212.61 66.17 215.01 64.04 219.41 C 61.77 224.12 61.77 224.12 65.46 232.31 C 67.49 236.81 69.89 241.32 70.79 242.32 C 72.32 244.01 72.51 244.02 73.66 242.45 C 74.33 241.53 75.13 238.46 75.42 235.64 Z  M 91.83 229.50 C 101.02 218.51 108.87 206.63 115.02 194.36 C 119.66 185.12 119.66 185.12 144.58 202.72 C 158.29 212.40 173.94 223.74 179.37 227.91 C 184.80 232.08 190.00 236.06 190.93 236.74 C 192.21 237.69 195.08 237.77 203.06 237.05 C 208.80 236.54 218.79 235.81 225.25 235.44 C 235.73 234.83 237.00 234.56 237.00 232.93 C 237.00 231.57 236.02 230.94 233.25 230.53 C 207.47 226.64 187.96 219.82 166.16 207.09 C 159.00 202.91 159.00 202.91 159.00 185.17 C 159.00 167.42 159.00 167.42 178.75 165.66 C 200.22 163.74 204.24 163.15 203.79 161.99 C 203.63 161.57 200.94 159.15 197.82 156.61 C 192.74 152.49 191.85 152.11 189.46 153.02 C 186.35 154.20 163.09 159.00 160.48 159.00 C 158.87 159.00 158.76 158.17 159.28 150.15 C 159.59 145.28 160.57 139.58 161.44 137.48 C 162.32 135.39 162.77 132.84 162.44 131.82 C 162.04 130.55 164.34 126.11 169.68 117.85 C 177.50 105.74 177.50 105.74 186.83 115.62 C 191.97 121.05 198.22 128.09 200.73 131.25 C 207.20 139.41 208.00 139.00 208.00 127.55 C 208.00 118.10 208.00 118.10 204.75 115.68 C 202.96 114.35 197.68 111.16 193.00 108.58 C 178.46 100.56 179.06 101.64 184.04 92.41 C 186.39 88.06 189.37 83.35 190.66 81.95 C 193.00 79.39 193.00 79.39 187.29 71.70 C 183.25 66.25 180.96 64.00 179.43 64.00 C 177.43 64.00 177.24 64.62 176.77 72.75 C 176.15 83.51 171.50 98.06 163.37 114.73 C 157.76 126.22 157.76 126.22 154.19 122.66 C 152.24 120.70 150.15 117.63 149.57 115.83 C 148.72 113.24 146.73 111.47 140.02 107.33 C 135.35 104.46 131.39 101.67 131.21 101.13 C 130.70 99.59 133.76 94.27 137.63 89.99 C 141.14 86.10 141.14 86.10 136.44 77.00 C 132.54 69.43 131.38 67.95 129.62 68.20 C 127.81 68.46 127.40 69.41 126.81 74.75 C 124.87 92.36 115.78 114.75 102.52 134.58 C 96.37 143.78 96.04 144.56 97.71 145.80 C 99.31 147.00 100.02 146.57 104.31 141.82 C 109.20 136.42 120.35 120.53 125.53 111.59 C 128.38 106.67 128.38 106.67 132.80 111.56 C 135.24 114.25 139.02 119.09 141.21 122.31 C 144.25 126.79 145.65 128.06 147.10 127.68 C 148.94 127.20 149.00 128.28 149.00 161.59 C 149.00 180.52 148.74 196.00 148.42 196.00 C 146.92 196.00 122.05 178.36 122.03 177.28 C 121.98 174.98 126.71 165.50 128.86 163.60 C 130.04 162.55 131.00 161.42 131.00 161.09 C 131.00 160.76 128.41 156.88 125.25 152.47 C 117.72 141.96 116.08 142.04 116.10 152.90 C 116.14 171.04 106.24 196.82 89.63 221.80 C 85.71 227.70 81.42 233.96 80.09 235.72 C 78.07 238.40 77.89 239.17 78.99 240.48 C 80.66 242.50 81.70 241.61 91.83 229.50 Z  M 44.00 127.63 C 49.23 123.77 62.05 112.09 72.50 101.68 C 82.95 91.27 92.51 82.09 93.75 81.27 C 96.55 79.41 96.55 79.56 93.38 69.40 C 91.11 62.12 90.46 61.00 88.51 61.00 C 86.83 61.00 86.10 61.73 85.68 63.84 C 83.03 77.12 61.09 104.69 36.12 126.15 C 30.27 131.18 29.84 131.82 30.92 133.85 C 32.30 136.44 31.74 136.71 44.00 127.63 Z  M 112.13 76.42 C 112.48 74.81 112.82 68.00 112.88 61.27 C 113.00 49.43 113.07 49.02 115.25 48.57 C 119.08 47.77 151.05 45.72 151.57 46.24 C 151.84 46.51 150.02 52.51 147.53 59.58 C 145.04 66.64 143.00 73.00 143.00 73.71 C 143.00 74.42 143.94 75.00 145.08 75.00 C 146.77 75.00 148.49 72.23 154.30 60.12 C 161.45 45.24 161.45 45.24 167.37 44.62 C 170.63 44.28 177.83 44.00 183.36 44.00 C 197.99 44.00 231.36 41.97 232.35 41.01 C 232.82 40.57 229.84 37.67 225.74 34.58 C 218.28 28.96 218.28 28.96 211.89 30.42 C 208.37 31.23 198.97 32.60 191.00 33.47 C 183.03 34.35 173.87 35.43 170.66 35.88 C 164.81 36.69 164.81 36.69 165.33 34.10 C 166.26 29.49 167.71 26.53 171.45 21.63 C 175.11 16.83 175.11 16.83 171.09 11.67 C 162.79 1.03 162.47 0.72 160.44 1.36 C 158.73 1.90 158.54 2.75 158.84 8.49 C 159.08 13.16 158.43 17.90 156.53 25.25 C 155.08 30.89 153.58 35.80 153.20 36.16 C 152.81 36.53 144.85 37.33 135.50 37.94 C 126.15 38.56 117.26 39.26 115.75 39.51 C 113.00 39.95 113.00 39.95 113.00 32.65 C 113.00 28.55 113.71 23.28 114.62 20.60 C 115.52 17.95 115.86 15.50 115.37 15.07 C 114.89 14.64 110.95 11.71 106.62 8.55 C 100.51 4.09 98.55 3.10 97.86 4.15 C 96.90 5.61 96.94 5.79 99.92 14.13 C 102.10 20.21 103.87 38.34 102.37 39.27 C 101.46 39.84 67.89 42.45 44.50 43.77 C 31.50 44.50 31.50 44.50 37.71 49.08 C 43.92 53.65 43.92 53.65 50.21 52.90 C 60.35 51.69 93.79 49.00 98.74 49.00 C 103.29 49.00 103.29 49.00 102.64 55.75 C 102.28 59.46 101.76 63.62 101.48 65.00 C 101.11 66.80 102.11 69.27 105.05 73.81 C 109.38 80.51 111.11 81.15 112.13 76.42 Z "/>
</g>
</svg>