<?xml version="1.0" encoding="UTF-8" standalone="no"?>
<!DOCTYPE svg PUBLIC "-//W3C//DTD SVG 1.1//EN" "http://www.w3.org/Graphics/SVG/1.1/DTD/svg11.dtd" >
<svg xmlns="http://www.w3.org/2000/svg" xmlns:xlink="http://www.w3.org/1999/xlink" version="1.1" viewBox="0 0 256 256">
 <g >
 <path fill="currentColor"
d=" M 136.69 242.75 C 137.14 242.06 137.50 215.85 137.50 184.50 C 137.50 127.50 137.50 127.50 152.50 124.93 C 176.33 120.86 176.29 120.88 167.80 114.54 C 162.60 110.66 162.60 110.66 156.55 112.76 C 150.84 114.74 141.34 117.00 138.70 117.00 C 137.79 117.00 137.65 112.08 138.12 96.25 C 138.73 75.89 139.42 71.42 143.44 61.87 C 143.92 60.73 142.43 58.41 138.46 54.13 C 134.73 50.11 133.26 47.87 134.15 47.58 C 135.44 47.16 178.69 40.99 180.25 41.00 C 181.30 41.00 181.16 59.69 180.03 70.40 C 179.51 75.30 178.57 90.44 177.94 104.05 C 175.69 152.41 180.67 178.96 196.32 202.00 C 206.05 216.32 232.68 236.87 238.57 234.61 C 240.65 233.81 240.40 224.60 237.97 212.07 C 236.42 204.09 232.00 173.28 232.00 170.46 C 232.00 170.21 231.14 170.00 230.09 170.00 C 228.28 170.00 228.16 171.10 227.84 190.85 C 227.49 212.30 226.77 216.09 223.39 214.20 C 219.51 212.03 205.35 196.73 201.51 190.55 C 189.70 171.58 185.44 142.58 187.90 98.00 C 190.14 57.60 191.74 46.80 196.45 40.62 C 198.18 38.36 199.93 35.94 200.35 35.25 C 201.30 33.71 193.63 24.33 190.66 23.39 C 189.04 22.88 187.71 23.73 184.54 27.31 C 180.50 31.90 180.50 31.90 162.00 34.50 C 151.82 35.94 135.62 38.40 126.00 39.98 C 116.38 41.56 106.03 43.13 103.00 43.48 C 89.99 44.97 89.27 45.93 97.25 51.16 C 102.50 54.61 102.50 54.61 112.50 52.33 C 118.00 51.08 123.24 50.04 124.15 50.03 C 127.00 49.98 128.00 60.64 128.00 91.11 C 128.00 119.55 128.00 119.55 108.75 122.43 C 92.33 124.88 85.13 126.83 87.06 128.28 C 87.30 128.47 89.91 130.31 92.86 132.39 C 98.23 136.16 98.23 136.16 103.86 134.09 C 109.62 131.97 122.58 129.00 126.07 129.00 C 127.92 129.00 128.00 129.92 127.96 152.25 C 127.91 185.79 126.67 205.09 124.10 212.72 C 122.94 216.14 122.00 219.46 122.00 220.09 C 122.00 221.90 134.03 244.00 135.01 244.00 C 135.49 244.00 136.25 243.44 136.69 242.75 Z  M 74.91 210.23 C 83.04 198.65 86.91 193.88 105.73 172.24 C 113.03 163.85 119.00 156.52 119.00 155.96 C 119.00 155.40 118.28 154.66 117.40 154.32 C 116.27 153.89 110.43 159.02 97.15 172.13 C 86.89 182.27 76.98 191.89 75.12 193.53 C 71.73 196.50 71.73 196.50 72.33 152.92 C 72.68 126.91 73.34 108.25 73.95 106.63 C 74.52 105.13 76.60 102.43 78.58 100.62 C 82.18 97.32 82.18 97.32 75.61 92.16 C 72.00 89.32 68.70 87.03 68.27 87.06 C 67.85 87.09 65.88 89.25 63.89 91.86 C 60.45 96.38 59.92 96.67 52.39 98.25 C 48.05 99.16 39.10 100.66 32.50 101.58 C 25.90 102.50 19.68 103.68 18.69 104.20 C 16.36 105.40 17.46 106.80 23.99 111.00 C 28.83 114.10 28.83 114.10 35.03 112.07 C 41.92 109.81 55.73 107.00 59.97 107.00 C 62.72 107.00 62.72 107.00 62.29 147.25 C 61.81 193.57 61.33 199.05 57.06 207.20 C 55.38 210.41 54.00 213.60 54.00 214.30 C 54.00 215.76 66.19 222.13 67.10 221.15 C 67.43 220.79 70.95 215.88 74.91 210.23 Z  M 81.31 51.36 C 81.66 46.49 81.51 41.95 80.97 40.94 C 80.44 39.96 71.18 34.57 60.39 28.97 C 45.00 20.98 40.57 19.07 39.89 20.14 C 38.55 22.26 38.70 22.52 43.74 26.63 C 55.68 36.38 64.15 44.89 74.34 57.39 C 79.37 63.56 80.52 62.57 81.31 51.36 Z "/>
</g>
</svg>