<?xml version="1.0" encoding="UTF-8" standalone="no"?>
<!DOCTYPE svg PUBLIC "-//W3C//DTD SVG 1.1//EN" "http://www.w3.org/Graphics/SVG/1.1/DTD/svg11.dtd" >
<svg xmlns="http://www.w3.org/2000/svg" xmlns:xlink="http://www.w3.org/1999/xlink" version="1.1" viewBox="0 0 256 256">
 <g >
 <path fill="currentColor"
d=" M 122.34 235.03 C 138.97 220.91 150.32 206.92 157.58 191.61 C 166.81 172.11 174.06 146.34 178.40 117.56 C 180.50 103.63 180.50 103.63 185.44 102.37 C 192.27 100.63 207.83 98.50 208.54 99.21 C 209.18 99.85 206.01 126.29 202.92 146.00 C 198.34 175.27 190.88 206.53 186.42 215.15 C 184.53 218.82 184.36 218.73 170.65 206.65 C 164.13 200.92 159.27 197.34 158.41 197.67 C 157.64 197.97 157.00 198.58 157.00 199.02 C 157.00 199.46 160.42 204.70 164.60 210.66 C 168.77 216.62 174.67 225.64 177.70 230.71 C 180.72 235.78 183.79 240.41 184.50 241.00 C 186.02 242.26 188.19 239.59 192.37 231.29 C 200.99 214.18 211.41 166.78 217.06 119.00 C 219.39 99.20 220.61 95.13 225.12 91.91 C 226.71 90.79 228.00 89.50 228.00 89.05 C 228.00 88.16 215.92 78.00 214.86 78.00 C 214.50 78.00 212.74 80.29 210.95 83.09 C 207.22 88.90 206.30 89.35 194.29 91.46 C 181.19 93.75 180.65 93.68 181.38 89.75 C 181.72 87.96 183.11 74.57 184.47 59.98 C 187.00 32.88 187.79 28.67 191.33 23.60 C 193.35 20.70 193.35 20.70 187.93 15.83 C 174.94 4.19 173.03 2.77 172.44 4.29 C 172.13 5.10 172.58 9.46 173.44 13.99 C 175.41 24.40 175.43 41.29 173.49 68.40 C 171.36 98.20 172.27 95.42 164.24 96.90 C 160.53 97.59 154.21 98.52 150.19 98.97 C 146.16 99.42 142.59 100.08 142.23 100.43 C 141.88 100.78 143.70 103.18 146.27 105.75 C 150.95 110.43 150.95 110.43 155.23 109.15 C 162.57 106.96 169.03 105.70 169.67 106.33 C 170.51 107.18 166.53 133.11 163.50 146.50 C 157.71 172.10 150.44 190.66 140.25 205.85 C 134.58 214.30 119.60 230.44 111.18 237.15 C 107.09 240.41 106.92 240.74 108.09 243.31 C 109.15 245.63 109.55 245.83 110.91 244.70 C 111.79 243.97 116.93 239.62 122.34 235.03 Z  M 94.38 195.64 C 98.38 192.59 127.87 180.78 135.10 179.33 C 137.58 178.83 137.76 179.09 138.90 184.90 C 140.54 193.21 142.53 193.10 146.79 184.48 C 148.55 180.90 150.00 176.87 150.00 175.54 C 150.00 172.88 132.47 143.00 130.91 143.00 C 128.68 143.00 128.95 146.65 131.98 157.56 C 133.73 163.91 134.95 169.68 134.69 170.37 C 134.10 171.89 102.32 181.66 101.29 180.63 C 101.14 180.47 106.18 170.03 112.50 157.43 C 118.83 144.82 128.57 124.38 134.16 112.00 C 145.56 86.77 146.00 85.95 150.80 80.84 C 154.24 77.17 154.24 77.17 147.95 68.09 C 144.49 63.09 141.34 59.00 140.95 59.00 C 139.12 59.00 138.21 62.22 137.73 70.50 C 137.21 79.43 133.64 91.88 128.96 101.07 C 127.15 104.63 127.08 104.66 115.03 106.95 C 108.37 108.22 102.70 109.03 102.42 108.75 C 102.14 108.47 104.84 100.34 108.42 90.68 C 112.00 81.01 116.95 66.97 119.42 59.47 C 123.76 46.30 126.75 39.93 131.67 33.41 C 132.95 31.70 134.00 30.03 134.00 29.68 C 134.00 29.33 130.78 24.55 126.85 19.07 C 120.55 10.27 119.47 9.21 117.78 10.12 C 116.15 10.99 115.96 11.79 116.57 15.33 C 116.96 17.62 117.22 21.41 117.13 23.75 C 116.90 30.51 109.61 57.51 101.30 82.48 C 93.85 104.83 93.51 105.59 88.77 110.32 C 86.09 113.00 84.03 115.55 84.20 115.98 C 84.64 117.12 91.90 125.00 92.51 125.00 C 92.80 125.00 95.39 123.46 98.27 121.57 C 103.27 118.29 121.56 111.22 122.53 112.19 C 123.19 112.86 114.53 132.04 102.00 157.65 C 92.08 177.92 90.79 180.05 86.77 182.81 C 79.21 188.02 79.13 188.34 84.12 193.91 C 86.53 196.60 88.83 198.84 89.24 198.90 C 89.65 198.95 91.96 197.49 94.38 195.64 Z  M 41.36 171.25 C 41.65 169.74 42.18 163.27 42.53 156.88 C 43.18 145.27 43.18 145.27 55.84 143.62 C 62.80 142.71 71.42 141.72 75.00 141.40 C 84.93 140.53 84.94 140.52 79.55 135.05 C 75.23 130.67 74.81 129.83 75.36 126.84 C 75.69 125.00 76.85 114.86 77.93 104.31 C 79.94 84.60 80.78 81.49 85.68 75.62 C 87.00 74.04 87.95 72.42 87.79 72.01 C 87.10 70.28 77.73 63.00 76.19 63.00 C 75.26 63.00 73.27 64.95 71.77 67.33 C 69.09 71.57 68.90 71.67 61.25 72.84 C 56.97 73.50 50.55 74.30 46.98 74.62 C 40.50 75.21 40.50 75.21 36.93 66.35 C 34.13 59.40 32.90 57.43 31.18 57.18 C 28.55 56.80 28.57 55.14 31.01 74.82 C 32.39 85.98 33.08 98.24 33.23 114.26 C 33.45 137.82 32.91 143.06 29.40 151.10 C 27.86 154.65 27.89 154.84 31.52 162.10 C 35.07 169.21 38.52 174.00 40.09 174.00 C 40.51 174.00 41.08 172.76 41.36 171.25 Z  M 42.66 122.25 C 42.30 115.24 42.01 103.85 42.00 96.93 C 42.00 84.37 42.00 84.37 55.53 82.55 C 62.98 81.55 69.22 80.91 69.42 81.12 C 69.82 81.56 67.37 116.28 66.25 125.99 C 65.50 132.49 65.50 132.49 57.50 133.67 C 42.16 135.93 43.41 136.89 42.66 122.25 Z "/>
</g>
</svg>