<?xml version="1.0" encoding="UTF-8" standalone="no"?>
<!DOCTYPE svg PUBLIC "-//W3C//DTD SVG 1.1//EN" "http://www.w3.org/Graphics/SVG/1.1/DTD/svg11.dtd" >
<svg xmlns="http://www.w3.org/2000/svg" xmlns:xlink="http://www.w3.org/1999/xlink" version="1.1" viewBox="0 0 256 256">
 <g >
 <path fill="currentColor"
d=" M 206.07 234.96 C 208.94 233.43 213.77 223.11 215.01 215.86 C 216.76 205.68 217.47 169.48 216.06 162.74 C 214.64 155.94 211.24 151.47 205.54 148.88 C 197.69 145.31 165.25 147.01 137.39 152.46 C 124.29 155.02 124.29 155.02 118.61 152.51 C 112.69 149.89 108.54 149.32 107.51 150.98 C 107.18 151.51 107.46 154.61 108.13 157.86 C 109.15 162.80 109.08 165.73 107.68 175.64 C 105.91 188.15 105.51 210.51 106.93 217.86 C 108.51 226.07 114.63 231.43 123.67 232.56 C 129.12 233.25 159.08 231.88 181.94 229.92 C 192.05 229.05 193.49 229.12 194.28 230.54 C 195.33 232.42 200.92 235.99 202.82 236.00 C 203.54 236.00 205.00 235.53 206.07 234.96 Z  M 69.61 233.09 C 71.38 232.02 73.74 229.11 75.06 226.37 C 77.16 222.04 77.52 219.16 78.64 198.03 C 79.32 185.09 79.91 167.45 79.94 158.83 C 80.00 143.15 80.00 143.15 91.04 136.89 C 108.16 127.17 113.17 121.32 108.43 116.57 C 105.92 114.06 102.98 114.68 92.03 120.03 C 86.37 122.80 81.53 124.86 81.28 124.61 C 81.02 124.36 80.57 116.02 80.26 106.07 C 79.70 88.00 79.70 88.00 87.31 88.00 C 97.44 88.00 109.66 86.11 111.15 84.32 C 113.61 81.36 107.96 70.88 102.96 69.14 C 101.08 68.48 97.25 68.68 90.62 69.76 C 85.33 70.62 80.69 71.02 80.31 70.64 C 79.93 70.26 79.34 59.89 79.00 47.60 C 78.31 22.35 78.11 21.63 70.80 18.22 C 64.49 15.28 60.39 14.75 58.50 16.64 C 57.64 17.50 57.15 18.95 57.42 19.86 C 59.80 27.82 61.74 73.80 59.73 74.52 C 59.05 74.76 50.43 76.32 40.57 77.99 C 30.70 79.65 21.57 81.70 20.28 82.55 C 17.97 84.07 17.96 84.13 19.72 87.17 C 22.16 91.39 27.67 94.86 33.03 95.56 C 35.83 95.92 41.19 95.36 47.36 94.07 C 62.68 90.86 61.08 88.59 60.77 113.14 C 60.50 134.29 60.50 134.29 38.98 142.89 C 27.15 147.63 16.91 151.86 16.23 152.31 C 14.14 153.68 14.86 156.77 18.15 160.52 C 21.78 164.66 25.84 167.00 29.37 167.00 C 31.79 167.00 55.57 156.78 57.45 154.93 C 57.97 154.42 59.05 154.00 59.84 154.00 C 61.07 154.00 61.19 156.91 60.62 173.75 C 59.76 199.36 59.00 208.63 57.62 210.43 C 56.64 211.71 54.90 211.62 43.86 209.74 C 29.74 207.32 28.00 207.70 28.00 213.18 C 28.00 217.26 36.08 224.81 45.32 229.38 C 56.91 235.11 64.43 236.26 69.61 233.09 Z  M 124.98 139.43 C 137.65 127.35 151.14 104.21 156.41 85.50 C 158.99 76.36 162.00 60.67 162.00 56.39 C 162.00 54.76 162.69 53.89 164.25 53.55 C 169.15 52.49 184.87 51.01 191.21 51.00 C 200.50 51.00 200.42 50.79 200.37 75.50 C 200.32 103.32 197.54 117.00 191.93 117.00 C 190.82 117.00 185.32 115.86 179.71 114.46 C 168.71 111.73 165.68 111.86 163.95 115.10 C 162.06 118.62 164.51 122.45 171.59 127.06 C 184.49 135.46 198.94 139.24 204.43 135.64 C 208.08 133.25 212.63 126.09 214.41 119.94 C 216.75 111.87 218.79 95.81 220.11 75.00 C 221.74 49.30 220.09 42.40 210.87 36.30 C 206.95 33.70 206.06 33.53 197.58 33.77 C 181.93 34.21 115.45 43.36 108.40 46.04 C 105.20 47.26 105.36 49.82 108.97 54.79 C 112.92 60.25 116.79 61.31 126.32 59.55 C 130.27 58.82 135.86 57.94 138.75 57.58 C 143.84 56.95 144.00 57.01 144.00 59.40 C 144.00 63.55 141.27 75.12 138.44 83.02 C 132.48 99.60 124.35 111.87 109.77 126.27 C 97.88 138.02 97.82 138.73 108.30 142.35 C 112.26 143.72 116.32 144.88 117.32 144.92 C 118.33 144.96 121.77 142.50 124.98 139.43 Z  M 127.61 213.47 C 125.28 211.14 124.01 205.32 124.01 197.00 C 124.01 188.30 125.83 171.86 126.92 170.71 C 128.03 169.56 145.39 166.23 159.31 164.50 C 174.37 162.64 191.97 162.51 194.27 164.25 C 197.72 166.87 199.18 190.67 196.70 203.94 C 195.26 211.64 196.42 211.16 174.00 213.43 C 153.16 215.55 129.71 215.56 127.61 213.47 Z "/>
</g>
</svg>