<?xml version="1.0" encoding="UTF-8" standalone="no"?>
<!DOCTYPE svg PUBLIC "-//W3C//DTD SVG 1.1//EN" "http://www.w3.org/Graphics/SVG/1.1/DTD/svg11.dtd" >
<svg xmlns="http://www.w3.org/2000/svg" xmlns:xlink="http://www.w3.org/1999/xlink" version="1.1" viewBox="0 0 256 256">
 <g >
 <path fill="currentColor"
d=" M 115.49 233.62 C 128.14 220.19 133.64 206.61 134.96 185.50 C 135.87 171.02 135.12 167.44 130.57 164.45 C 126.93 162.07 120.00 161.47 117.52 163.32 C 115.56 164.79 115.57 164.84 117.86 169.44 C 120.07 173.86 120.13 174.47 119.02 182.77 C 116.75 199.84 111.63 210.19 99.36 222.54 C 94.78 227.16 91.99 230.75 92.18 231.79 C 92.59 233.98 103.60 239.46 108.49 239.91 C 109.03 239.96 112.18 237.13 115.49 233.62 Z  M 29.81 228.50 C 41.29 211.22 51.61 183.82 56.93 156.50 C 58.11 150.45 59.28 144.50 59.54 143.29 C 60.09 140.74 63.79 139.51 74.05 138.47 C 83.26 137.54 83.39 137.77 82.03 153.17 C 79.52 181.62 76.12 201.00 72.36 208.28 C 71.17 210.58 70.39 211.06 68.67 210.55 C 63.14 208.92 49.92 206.82 48.54 207.35 C 46.47 208.14 46.61 212.95 48.77 215.68 C 51.17 218.70 60.65 225.64 65.77 228.12 C 71.69 231.00 77.02 231.56 80.64 229.69 C 84.08 227.91 89.24 218.19 91.50 209.20 C 96.49 189.44 101.12 144.75 99.39 133.14 C 98.43 126.68 94.24 122.40 87.52 121.01 C 82.95 120.06 80.86 120.19 73.50 121.94 C 68.74 123.08 64.36 124.00 63.77 124.00 C 62.67 124.00 63.38 99.79 64.57 96.68 C 64.98 95.62 67.45 95.01 73.32 94.55 C 93.06 92.98 101.57 91.81 102.92 90.48 C 104.13 89.29 104.15 88.47 103.02 85.05 C 101.82 81.41 95.73 74.00 93.95 74.00 C 91.63 74.00 60.19 78.46 47.50 80.59 C 27.43 83.96 19.37 85.85 17.99 87.52 C 16.14 89.75 17.80 92.76 22.75 96.17 C 27.82 99.66 32.72 100.27 42.77 98.65 C 48.04 97.81 48.04 97.81 47.47 103.65 C 42.17 158.04 33.30 187.17 12.02 220.10 C 7.23 227.50 7.55 228.54 15.66 231.68 C 23.95 234.89 25.84 234.47 29.81 228.50 Z  M 163.71 232.95 C 168.50 231.28 169.00 228.82 168.98 207.20 C 168.95 180.89 166.75 165.54 162.60 162.77 C 160.14 161.12 157.24 162.02 156.18 164.75 C 154.53 169.05 153.00 183.33 153.01 194.41 C 153.02 199.96 152.49 210.01 151.85 216.74 C 150.76 228.02 150.81 229.13 152.44 230.93 C 153.41 232.01 155.62 233.07 157.35 233.28 C 159.08 233.50 160.55 233.75 160.60 233.84 C 160.66 233.93 162.06 233.53 163.71 232.95 Z  M 227.78 232.34 C 232.62 231.69 237.33 228.83 240.41 224.67 C 243.27 220.81 243.48 204.90 240.73 200.70 C 237.52 195.81 232.08 197.85 230.60 204.50 C 228.53 213.77 226.49 215.23 214.77 215.81 C 206.04 216.24 206.04 216.24 204.92 213.37 C 203.69 210.25 204.07 199.52 206.15 178.55 C 207.56 164.32 207.25 163.44 199.50 159.88 C 193.83 157.28 190.16 157.42 189.58 160.25 C 188.41 165.90 186.78 198.70 187.12 209.50 C 187.55 223.01 188.99 226.92 194.81 230.32 C 200.24 233.49 213.33 234.29 227.78 232.34 Z  M 153.17 153.47 C 165.45 152.08 180.90 150.11 187.50 149.11 C 199.50 147.27 199.50 147.27 203.54 151.14 C 205.79 153.29 208.58 155.00 209.84 155.00 C 213.44 155.00 217.63 152.33 219.97 148.56 C 222.06 145.17 222.07 144.95 220.40 141.43 C 219.44 139.42 214.40 133.99 209.09 129.25 C 193.99 115.79 186.20 111.27 181.24 113.11 C 177.81 114.38 178.51 117.02 184.51 125.38 C 188.06 130.32 189.57 133.20 188.76 133.47 C 187.08 134.02 159.96 137.70 148.00 139.00 C 142.78 139.57 137.26 140.24 135.75 140.49 C 131.70 141.17 132.35 139.39 138.04 134.27 C 142.29 130.45 150.12 121.96 160.50 109.91 C 162.99 107.02 163.22 106.99 202.50 104.94 C 212.95 104.40 222.29 103.71 223.25 103.41 C 227.12 102.21 224.00 93.01 218.50 89.41 C 216.24 87.92 214.11 87.79 201.70 88.37 C 193.89 88.74 184.92 89.31 181.77 89.64 C 176.03 90.25 176.03 90.25 178.27 86.15 C 181.56 80.11 180.47 78.94 161.54 68.12 C 152.02 62.68 149.66 62.09 146.97 64.53 C 143.78 67.41 146.01 71.44 158.68 85.76 C 163.87 91.62 163.87 91.62 149.18 93.35 C 131.21 95.48 109.41 98.89 106.30 100.08 C 102.91 101.36 103.48 104.30 107.89 108.28 C 113.10 112.99 116.26 113.50 127.57 111.46 C 132.80 110.52 137.26 109.93 137.48 110.14 C 138.03 110.70 125.04 126.26 117.56 134.00 C 114.10 137.57 110.98 141.35 110.62 142.39 C 110.12 143.81 111.39 145.71 115.82 150.14 C 122.90 157.22 121.33 157.08 153.17 153.47 Z  M 123.65 83.75 C 127.07 80.08 134.25 70.54 138.19 64.41 C 140.82 60.32 140.82 60.32 155.16 58.62 C 163.05 57.68 179.18 56.25 191.00 55.42 C 202.82 54.60 214.53 53.60 217.00 53.21 C 221.30 52.53 221.51 52.34 221.80 48.85 C 222.06 45.77 221.50 44.56 218.21 41.10 C 214.32 37.02 214.28 37.00 206.90 37.02 C 198.09 37.04 174.75 39.31 159.71 41.60 C 153.77 42.51 148.73 43.06 148.50 42.83 C 148.26 42.60 148.69 40.35 149.45 37.84 C 150.20 35.33 151.13 30.82 151.50 27.82 C 152.12 22.87 151.94 22.08 149.53 19.22 C 146.38 15.47 141.64 14.30 136.50 16.00 C 132.05 17.47 131.33 19.05 133.55 22.44 C 135.91 26.04 135.05 31.07 130.56 40.02 C 125.49 50.12 118.28 60.29 109.46 69.78 C 105.36 74.20 102.00 78.24 102.00 78.75 C 102.00 80.41 105.65 83.06 110.64 85.01 C 117.69 87.76 120.12 87.52 123.65 83.75 Z  M 75.95 65.03 C 83.53 61.16 86.43 55.03 83.15 49.78 C 79.18 43.40 59.58 27.14 53.18 24.91 C 49.11 23.49 46.00 25.14 46.00 28.71 C 46.00 30.94 55.90 49.25 64.67 63.25 C 67.42 67.64 70.03 68.05 75.95 65.03 Z "/>
</g>
</svg>