<?xml version="1.0" encoding="UTF-8" standalone="no"?>
<!DOCTYPE svg PUBLIC "-//W3C//DTD SVG 1.1//EN" "http://www.w3.org/Graphics/SVG/1.1/DTD/svg11.dtd" >
<svg xmlns="http://www.w3.org/2000/svg" xmlns:xlink="http://www.w3.org/1999/xlink" version="1.1" viewBox="0 0 256 256">
 <g >
 <path fill="currentColor"
d=" M 91.06 234.45 C 93.12 232.58 97.00 223.13 97.00 219.96 C 97.00 217.03 98.59 217.59 100.01 221.02 C 101.69 225.07 106.27 228.77 110.62 229.59 C 112.57 229.95 120.77 229.52 128.84 228.62 C 150.46 226.20 176.93 225.00 208.68 225.00 C 224.58 225.00 237.99 224.57 239.43 224.02 C 241.28 223.32 242.00 222.32 242.00 220.46 C 242.00 216.75 237.23 207.20 234.71 205.85 C 232.56 204.69 196.31 205.26 180.59 206.69 C 173.68 207.32 173.68 207.32 174.33 204.91 C 174.69 203.58 175.28 184.39 175.65 162.25 C 176.02 140.11 176.59 122.00 176.92 122.00 C 177.25 122.00 187.22 131.40 199.09 142.88 C 210.96 154.36 221.62 164.06 222.79 164.43 C 226.96 165.76 234.55 159.49 236.50 153.11 C 237.12 151.05 236.14 149.68 229.30 143.06 C 221.08 135.10 201.16 119.75 185.38 109.21 C 176.26 103.13 176.26 103.13 175.79 94.94 C 175.33 86.96 175.44 86.47 180.01 75.62 C 182.60 69.51 185.48 62.16 186.42 59.30 C 187.46 56.14 188.85 53.86 189.97 53.51 C 190.98 53.19 199.70 52.57 209.33 52.14 C 228.17 51.31 230.00 50.77 230.00 46.07 C 230.00 42.43 224.78 34.45 221.17 32.59 C 218.51 31.21 216.82 31.25 203.36 33.03 C 183.68 35.64 160.74 39.48 143.37 43.07 C 126.62 46.54 122.62 46.68 118.13 43.94 C 113.90 41.36 112.29 41.95 111.46 46.38 C 110.10 53.63 114.47 59.91 122.41 62.10 C 126.11 63.12 139.91 61.41 155.50 58.00 C 164.28 56.08 169.00 55.54 169.00 56.45 C 169.00 57.84 160.17 76.90 154.25 88.28 C 141.63 112.56 128.63 131.63 110.58 152.34 C 102.00 162.18 102.00 162.18 101.95 114.34 C 101.88 46.25 101.38 41.92 92.95 36.15 C 89.83 34.02 88.78 33.85 82.00 34.38 C 77.88 34.71 70.22 35.92 65.00 37.08 C 49.87 40.43 50.38 40.41 47.06 38.04 C 45.06 36.62 42.89 35.98 40.76 36.19 C 37.55 36.50 37.51 36.57 37.84 41.00 C 38.65 51.68 38.12 105.78 37.07 119.50 C 34.05 158.93 26.74 191.61 14.92 218.57 C 12.65 223.75 11.00 228.57 11.27 229.27 C 11.88 230.85 23.51 235.02 27.26 235.01 C 29.65 235.00 30.36 234.25 32.47 229.48 C 37.95 217.07 46.58 187.21 48.51 173.92 C 48.88 171.39 49.50 168.81 49.89 168.18 C 50.30 167.52 55.81 166.62 63.05 166.03 C 69.90 165.48 77.23 164.78 79.35 164.48 C 83.20 163.94 83.20 163.94 82.55 175.72 C 81.53 194.41 79.91 210.31 78.83 212.33 C 77.71 214.41 75.10 214.35 62.33 211.96 C 56.41 210.85 54.89 210.85 53.58 211.93 C 51.61 213.57 51.54 217.90 53.44 220.62 C 55.70 223.83 64.73 229.65 73.51 233.54 C 82.23 237.41 87.49 237.68 91.06 234.45 Z  M 98.35 211.78 C 98.67 209.43 99.24 199.05 99.61 188.72 C 99.98 178.39 100.64 169.73 101.06 169.46 C 101.49 169.20 104.01 170.33 106.67 171.97 C 109.33 173.62 113.01 175.26 114.85 175.63 C 118.00 176.25 118.58 175.89 124.35 169.77 C 131.77 161.89 142.25 147.66 150.85 133.76 C 157.21 123.50 157.21 123.50 156.35 154.50 C 155.88 171.55 155.61 190.75 155.74 197.17 C 155.98 208.84 155.98 208.84 149.74 209.44 C 117.09 212.53 102.13 214.23 100.13 215.07 C 97.81 216.04 97.78 215.98 98.35 211.78 Z  M 52.51 147.25 C 52.91 145.19 53.55 136.42 53.93 127.77 C 54.31 119.13 54.82 111.87 55.06 111.65 C 55.60 111.16 78.74 108.00 81.81 108.00 C 83.99 108.00 84.00 108.09 84.00 127.48 C 84.00 146.87 83.99 146.96 81.75 147.45 C 79.72 147.88 54.01 151.00 52.43 151.00 C 52.07 151.00 52.11 149.31 52.51 147.25 Z  M 56.00 75.77 C 56.00 56.27 56.00 56.27 66.04 54.14 C 79.52 51.27 81.79 51.32 82.60 54.53 C 82.95 55.92 83.29 65.04 83.37 74.78 C 83.50 92.50 83.50 92.50 76.00 93.10 C 71.88 93.43 65.69 94.05 62.25 94.48 C 56.00 95.26 56.00 95.26 56.00 75.77 Z "/>
</g>
</svg>