<?xml version="1.0" encoding="UTF-8" standalone="no"?>
<!DOCTYPE svg PUBLIC "-//W3C//DTD SVG 1.1//EN" "http://www.w3.org/Graphics/SVG/1.1/DTD/svg11.dtd" >
<svg xmlns="http://www.w3.org/2000/svg" xmlns:xlink="http://www.w3.org/1999/xlink" version="1.1" viewBox="0 0 256 256">
 <g >
 <path fill="currentColor"
d=" M 217.40 228.12 C 232.18 225.63 237.49 223.11 240.68 217.07 C 245.05 208.81 242.61 192.61 236.70 190.55 C 232.83 189.21 231.14 190.54 228.82 196.73 C 227.76 199.58 225.55 203.05 223.90 204.43 C 218.27 209.16 204.21 212.06 186.80 212.08 C 166.37 212.10 165.52 211.08 165.67 186.69 C 165.73 177.45 165.94 169.73 166.14 169.53 C 166.60 169.08 199.40 164.38 212.00 162.97 C 224.42 161.58 227.00 160.55 227.00 157.03 C 227.00 153.82 223.63 148.52 219.78 145.67 C 217.18 143.75 216.58 143.71 207.28 144.91 C 201.90 145.60 190.84 147.48 182.70 149.08 C 174.56 150.69 167.68 152.00 167.42 152.00 C 166.92 152.00 167.33 146.16 169.16 127.16 C 170.40 114.33 169.53 115.24 185.50 110.02 C 202.64 104.41 204.20 101.45 195.18 91.75 C 191.66 87.96 188.89 88.23 177.88 93.43 C 164.17 99.90 138.96 110.23 127.72 113.98 C 121.87 115.94 117.38 118.05 116.54 119.24 C 115.12 121.27 115.51 123.90 117.43 125.26 C 119.00 126.36 131.19 125.11 141.32 122.81 C 146.17 121.70 150.38 121.04 150.67 121.34 C 151.46 122.13 148.85 154.32 147.90 155.55 C 147.01 156.69 145.24 157.17 121.50 162.57 C 106.19 166.05 103.00 167.18 103.00 169.12 C 103.00 171.34 110.26 177.83 113.40 178.41 C 116.19 178.94 138.17 175.47 145.18 173.41 C 146.71 172.95 146.85 174.47 146.74 190.70 C 146.56 217.43 149.56 224.81 162.35 229.01 C 167.88 230.83 170.37 230.99 187.00 230.58 C 198.82 230.28 209.79 229.40 217.40 228.12 Z  M 69.46 228.44 C 83.53 226.76 90.01 224.45 93.17 220.00 C 95.89 216.18 97.87 206.97 99.00 192.97 C 101.18 166.07 97.00 158.01 80.88 158.00 C 73.34 158.00 59.27 160.25 52.52 162.54 C 48.37 163.95 47.43 163.94 42.13 162.46 C 38.93 161.56 35.22 160.97 33.90 161.16 C 31.50 161.50 31.50 161.50 31.20 184.50 C 30.61 229.81 33.19 232.78 69.46 228.44 Z  M 55.00 143.48 C 60.23 142.58 71.92 141.32 81.00 140.67 C 96.75 139.55 97.51 139.40 97.81 137.33 C 98.28 134.02 94.36 127.13 91.61 126.44 C 88.68 125.70 53.18 129.37 42.97 131.46 C 30.66 133.98 31.00 133.85 31.00 136.34 C 31.00 140.27 39.45 146.51 43.50 145.58 C 44.60 145.33 49.77 144.38 55.00 143.48 Z  M 60.50 112.57 C 68.20 111.76 79.10 110.80 84.71 110.44 C 97.36 109.63 98.43 108.79 94.95 102.42 C 93.62 99.98 91.63 97.70 90.52 97.35 C 87.66 96.44 72.93 96.81 63.50 98.03 C 53.06 99.39 35.11 102.82 32.25 104.02 C 25.89 106.67 35.08 115.67 43.00 114.54 C 44.92 114.26 52.80 113.38 60.50 112.57 Z  M 121.71 105.20 C 123.79 103.88 126.18 96.88 127.92 87.06 C 129.60 77.62 129.60 77.62 151.05 72.82 C 162.85 70.18 176.10 67.54 180.50 66.96 C 189.86 65.72 206.20 66.06 206.66 67.50 C 206.83 68.05 203.83 72.28 199.99 76.89 C 196.15 81.51 193.00 86.09 193.00 87.08 C 193.00 89.47 196.74 92.00 200.27 92.00 C 204.76 92.00 218.02 84.98 223.18 79.86 C 229.56 73.56 230.24 69.79 226.37 62.28 C 224.79 59.21 221.77 55.30 219.66 53.60 C 215.93 50.59 215.48 50.49 204.16 50.16 C 186.92 49.65 169.71 52.14 142.71 59.05 C 130.96 62.05 129.00 62.12 129.00 59.51 C 129.00 57.54 123.64 54.00 120.67 54.00 C 117.86 54.00 117.88 53.95 113.50 70.39 C 112.05 75.83 109.51 84.02 107.85 88.59 C 103.72 100.01 103.99 100.99 112.00 103.68 C 119.41 106.16 120.05 106.26 121.71 105.20 Z  M 42.00 85.00 C 53.24 83.06 67.69 81.63 91.13 80.13 C 105.02 79.24 108.58 77.67 107.62 72.87 C 106.93 69.41 101.26 62.00 99.31 62.00 C 94.28 62.00 32.84 70.45 23.13 72.48 C 12.72 74.65 11.91 77.20 19.50 83.86 C 23.82 87.66 25.98 87.77 42.00 85.00 Z  M 75.64 59.15 C 80.63 55.53 83.21 51.62 82.81 48.25 C 82.37 44.56 54.34 25.00 49.47 25.00 C 43.91 25.00 43.24 27.16 46.59 34.26 C 52.38 46.52 60.71 57.64 66.50 60.84 C 69.61 62.55 71.39 62.22 75.64 59.15 Z  M 177.63 43.87 C 183.42 38.19 183.29 36.23 176.75 31.22 C 166.67 23.49 151.88 14.92 148.26 14.70 C 144.16 14.46 142.40 16.46 143.35 20.26 C 144.29 24.00 152.99 36.59 159.34 43.39 C 164.70 49.13 164.95 49.27 169.05 48.72 C 172.25 48.29 174.32 47.12 177.63 43.87 Z  M 50.00 212.20 C 47.54 210.20 47.50 209.94 47.67 196.83 C 47.77 189.50 48.31 182.29 48.88 180.80 C 50.21 177.31 57.10 175.16 69.63 174.32 C 78.72 173.72 78.77 173.73 80.52 176.40 C 82.05 178.73 82.21 180.82 81.77 192.52 C 81.18 207.87 80.25 210.28 74.26 211.94 C 72.19 212.52 66.45 213.27 61.50 213.62 C 53.38 214.19 52.25 214.05 50.00 212.20 Z "/>
</g>
</svg>