<?xml version="1.0" encoding="UTF-8" standalone="no"?>
<!DOCTYPE svg PUBLIC "-//W3C//DTD SVG 1.1//EN" "http://www.w3.org/Graphics/SVG/1.1/DTD/svg11.dtd" >
<svg xmlns="http://www.w3.org/2000/svg" xmlns:xlink="http://www.w3.org/1999/xlink" version="1.1" viewBox="0 0 256 256">
 <g >
 <path fill="currentColor"
d=" M 226.91 233.05 C 234.89 232.47 237.60 231.90 238.55 230.61 C 240.35 228.14 243.17 216.12 242.47 213.90 C 241.71 211.50 240.05 211.50 223.00 213.95 C 199.85 217.27 182.45 218.15 160.96 217.08 C 143.81 216.22 134.96 215.18 130.12 213.46 C 129.17 213.12 130.36 211.26 133.93 207.48 C 140.91 200.10 144.12 192.89 144.29 184.24 C 144.39 179.08 143.92 176.53 142.26 173.39 C 140.19 169.45 130.75 160.00 128.89 160.00 C 127.15 160.00 128.04 157.65 131.33 153.60 C 139.43 143.60 150.00 125.28 150.00 121.24 C 150.00 118.85 141.19 110.29 138.00 109.57 C 135.72 109.05 121.81 111.72 117.85 113.43 C 116.51 114.00 116.06 113.33 115.48 109.86 C 114.53 104.28 110.67 98.54 106.52 96.57 C 104.69 95.71 102.74 95.00 102.17 95.00 C 101.49 95.00 101.33 88.29 101.70 74.75 C 102.40 49.56 101.32 40.90 96.94 36.50 C 93.96 33.50 93.96 33.50 78.73 33.51 C 54.86 33.52 43.76 36.91 39.58 45.45 C 37.88 48.91 37.61 52.33 37.20 74.98 C 36.74 100.58 36.74 100.58 33.95 97.79 C 28.84 92.69 26.92 94.25 25.04 105.03 C 23.82 112.01 19.61 125.74 17.29 130.34 C 16.00 132.88 16.04 133.38 17.60 135.11 C 19.61 137.33 29.42 140.48 31.10 139.44 C 33.35 138.05 35.89 130.33 36.57 122.80 C 37.27 115.10 37.27 115.10 45.88 113.09 C 66.89 108.17 93.96 105.64 97.43 108.27 C 99.28 109.68 99.18 109.92 94.81 114.55 C 90.27 119.36 90.27 119.36 81.88 119.66 C 70.71 120.06 56.56 121.77 49.94 123.51 C 39.49 126.27 36.51 130.37 35.02 144.05 C 32.39 168.18 31.02 188.93 31.01 204.88 C 31.00 220.67 31.19 222.57 33.05 225.58 C 35.57 229.65 37.96 230.50 42.61 228.96 C 48.40 227.05 49.21 223.79 48.39 205.59 C 47.61 187.98 45.85 189.59 67.27 188.36 C 73.65 188.00 79.40 187.37 80.05 186.97 C 81.80 185.89 79.39 179.28 76.73 177.86 C 75.32 177.10 70.37 176.90 61.81 177.25 C 49.00 177.77 49.00 177.77 49.00 170.03 C 49.00 162.30 49.00 162.30 58.75 161.66 C 64.11 161.30 70.81 161.01 73.63 161.01 C 80.19 161.00 81.65 159.50 79.99 154.48 C 79.21 152.12 77.89 150.52 76.15 149.84 C 73.66 148.87 64.49 149.20 54.25 150.63 C 50.10 151.21 50.00 151.16 50.01 148.36 C 50.01 146.79 50.48 143.81 51.05 141.75 C 52.62 136.11 56.12 134.72 70.15 134.20 C 81.20 133.78 81.86 133.87 82.93 135.87 C 84.98 139.69 86.26 170.06 85.06 186.51 C 84.01 200.99 82.52 212.81 81.63 213.70 C 81.40 213.93 77.51 213.62 72.99 213.00 C 63.45 211.69 62.00 212.02 62.00 215.48 C 62.00 220.85 75.85 231.26 84.78 232.59 C 90.52 233.45 95.23 231.15 97.49 226.38 C 98.75 223.72 100.44 213.86 101.06 205.50 C 101.10 204.95 101.73 206.42 102.47 208.78 C 104.40 214.96 106.37 217.52 112.26 221.50 C 128.84 232.72 171.88 237.05 226.91 233.05 Z  M 218.29 207.98 C 219.70 206.88 221.33 204.51 221.92 202.73 C 225.15 192.89 225.94 158.47 223.40 138.85 C 220.73 118.27 219.77 117.43 199.03 117.66 C 182.98 117.83 167.77 120.02 161.39 123.07 C 153.93 126.65 152.62 132.19 150.89 167.50 C 149.58 194.09 149.90 199.67 153.01 204.78 C 155.31 208.56 158.00 208.91 162.72 206.03 C 166.85 203.51 167.42 201.02 166.70 188.47 C 166.12 178.21 166.12 178.21 175.81 177.04 C 181.14 176.40 189.32 175.56 194.00 175.19 C 202.42 174.51 202.50 174.47 202.83 171.65 C 203.29 167.57 199.69 164.00 195.12 164.00 C 193.18 164.00 186.02 164.72 179.22 165.59 C 172.42 166.47 166.72 167.03 166.55 166.84 C 166.39 166.66 166.47 163.96 166.74 160.87 C 167.23 155.23 167.23 155.23 172.86 154.64 C 175.96 154.31 183.56 153.75 189.75 153.38 C 202.58 152.62 204.01 151.85 201.51 147.03 C 198.75 141.68 196.74 141.44 173.37 143.63 C 167.23 144.21 167.23 144.21 167.99 140.06 C 168.86 135.32 168.56 135.73 172.58 133.69 C 176.09 131.91 199.35 129.37 203.24 130.34 C 204.91 130.76 206.23 132.12 207.04 134.24 C 208.78 138.81 209.62 183.02 208.07 188.75 C 206.92 193.00 206.92 193.00 200.70 193.00 C 197.28 193.00 193.07 192.59 191.34 192.10 C 185.60 190.45 184.13 194.91 188.75 199.99 C 192.04 203.61 206.88 209.96 212.12 209.98 C 214.25 209.99 216.78 209.17 218.29 207.98 Z  M 172.50 109.45 C 179.10 108.62 195.00 107.66 207.84 107.32 C 233.75 106.63 233.16 106.82 231.10 99.94 C 229.34 94.06 227.51 93.47 211.75 93.69 C 198.00 93.88 198.00 93.88 198.00 86.94 C 198.00 80.00 198.00 80.00 206.25 79.90 C 210.79 79.85 215.62 79.49 217.00 79.11 C 220.34 78.19 220.71 74.80 217.90 70.86 C 215.66 67.72 215.66 67.72 202.08 68.33 C 194.61 68.67 185.90 69.24 182.72 69.61 C 176.95 70.29 176.95 70.29 180.22 63.68 C 182.03 60.05 184.13 56.82 184.90 56.51 C 185.68 56.20 194.90 55.67 205.40 55.33 C 215.91 54.99 225.51 54.34 226.75 53.88 C 231.50 52.13 227.76 41.77 221.92 40.48 C 219.66 39.99 194.94 41.39 188.64 42.37 C 188.17 42.44 187.86 38.44 187.95 33.48 C 188.10 24.92 187.97 24.32 185.47 21.98 C 181.61 18.34 175.03 18.50 171.27 22.31 C 168.50 25.12 168.50 25.12 171.40 27.47 C 174.30 29.81 174.30 29.82 173.40 37.09 C 172.50 44.37 172.50 44.37 158.50 46.78 C 138.20 50.27 136.85 51.00 140.97 56.23 C 144.41 60.61 148.10 61.48 157.19 60.09 C 161.60 59.42 165.39 59.05 165.61 59.28 C 165.84 59.51 163.83 63.06 161.15 67.17 C 156.52 74.27 147.58 84.09 138.25 92.33 C 135.91 94.39 134.00 96.67 134.00 97.39 C 134.00 100.46 143.53 105.60 147.11 104.46 C 148.51 104.02 150.23 104.88 153.04 107.42 C 157.59 111.52 156.72 111.43 172.50 109.45 Z  M 134.88 84.23 C 140.82 78.58 141.01 76.25 136.07 69.71 C 131.87 64.15 123.05 56.60 117.30 53.64 C 113.24 51.56 108.63 51.54 106.92 53.60 C 105.33 55.51 107.60 60.30 116.93 74.73 C 126.54 89.58 128.28 90.51 134.88 84.23 Z  M 113.96 203.92 C 113.34 202.77 112.98 199.73 113.17 197.18 C 113.44 193.35 113.18 192.48 111.70 192.19 C 109.32 191.72 105.32 194.42 103.18 197.94 C 101.53 200.66 101.46 199.74 101.28 173.13 C 101.12 148.11 100.22 133.09 98.62 129.00 C 98.22 127.95 99.27 126.93 102.12 125.62 C 106.16 123.76 106.23 123.76 110.01 125.88 C 113.68 127.95 114.14 127.98 122.44 126.65 C 127.17 125.89 131.25 125.59 131.49 125.99 C 131.74 126.38 127.90 133.54 122.97 141.89 C 118.04 150.24 114.00 158.16 114.00 159.48 C 114.00 161.10 115.79 163.58 119.46 167.06 C 126.76 173.95 129.36 179.36 128.44 185.71 C 127.64 191.20 125.26 196.34 121.44 200.89 C 117.46 205.62 115.33 206.48 113.96 203.92 Z  M 50.44 94.47 C 49.74 89.81 50.46 77.21 51.48 76.19 C 52.51 75.16 62.75 74.79 63.35 75.76 C 63.69 76.30 63.68 81.12 63.33 86.46 C 62.62 97.16 62.72 97.02 54.68 98.53 C 51.15 99.19 51.15 99.19 50.44 94.47 Z  M 76.77 83.81 C 76.18 70.59 74.49 65.41 70.46 64.40 C 68.99 64.03 64.24 64.03 59.89 64.39 C 52.00 65.05 52.00 65.05 52.01 61.27 C 52.01 59.20 52.48 55.83 53.04 53.79 C 54.35 49.07 57.36 48.07 72.64 47.30 C 83.62 46.74 83.80 46.77 85.06 49.11 C 85.97 50.82 86.33 57.32 86.31 72.27 C 86.30 83.69 86.11 93.21 85.90 93.41 C 85.68 93.61 83.65 94.08 81.39 94.45 C 77.28 95.13 77.28 95.13 76.77 83.81 Z  M 159.22 93.91 C 162.32 90.39 165.90 86.28 167.18 84.79 C 169.17 82.47 170.55 81.99 176.75 81.41 C 184.00 80.74 184.00 80.74 184.00 85.75 C 184.00 88.50 183.74 92.07 183.41 93.69 C 182.83 96.60 182.74 96.64 172.66 97.88 C 167.07 98.57 160.49 99.40 158.04 99.73 C 153.58 100.33 153.58 100.33 159.22 93.91 Z "/>
</g>
</svg>