<?xml version="1.0" encoding="UTF-8" standalone="no"?>
<!DOCTYPE svg PUBLIC "-//W3C//DTD SVG 1.1//EN" "http://www.w3.org/Graphics/SVG/1.1/DTD/svg11.dtd" >
<svg xmlns="http://www.w3.org/2000/svg" xmlns:xlink="http://www.w3.org/1999/xlink" version="1.1" viewBox="0 0 256 256">
 <g >
 <path fill="currentColor"
d=" M 146.84 238.72 C 154.31 235.70 162.18 230.41 169.80 223.26 C 175.13 218.27 176.00 216.96 176.00 213.93 C 176.00 210.11 174.56 208.00 171.95 208.00 C 171.04 208.00 164.31 210.70 157.00 214.00 C 149.69 217.30 143.12 220.00 142.41 220.00 C 140.53 220.00 139.67 218.15 138.90 212.50 C 138.10 206.63 139.55 173.04 141.09 161.50 C 143.31 144.97 143.30 145.62 141.31 143.54 C 139.46 141.62 139.53 141.42 144.84 132.61 C 147.82 127.67 150.94 122.02 151.76 120.06 C 153.11 116.86 153.35 116.70 154.10 118.50 C 171.09 159.51 190.17 191.22 212.61 215.77 C 222.08 226.13 224.31 227.38 230.72 225.95 C 237.05 224.54 244.00 220.42 244.00 218.09 C 244.00 217.08 238.26 210.46 231.24 203.38 C 224.23 196.30 215.29 186.68 211.37 182.00 C 202.38 171.27 190.00 154.17 190.00 152.49 C 190.00 151.79 190.71 150.94 191.59 150.61 C 192.46 150.27 198.16 146.51 204.26 142.25 C 216.18 133.91 225.00 125.75 225.00 123.05 C 225.00 120.10 214.71 112.01 210.94 112.00 C 210.08 112.00 207.22 114.50 204.58 117.56 C 198.23 124.91 182.87 138.28 181.92 137.29 C 180.41 135.71 169.98 115.25 165.70 105.46 C 161.31 95.42 161.31 95.42 165.40 80.96 C 169.50 66.50 169.50 66.50 183.92 65.16 C 199.30 63.73 207.00 64.19 207.00 66.52 C 207.00 67.29 203.82 72.64 199.92 78.41 C 191.54 90.84 191.17 93.33 197.68 93.80 C 200.39 94.00 203.24 93.41 205.75 92.13 C 216.41 86.69 229.02 72.85 228.98 66.64 C 228.93 59.89 222.08 50.50 215.32 47.93 C 211.92 46.64 193.79 46.77 182.44 48.16 C 177.24 48.80 172.78 49.11 172.51 48.85 C 172.25 48.59 172.54 43.15 173.14 36.77 C 174.15 26.13 174.09 24.85 172.37 21.35 C 169.81 16.13 164.66 12.82 159.68 13.20 C 155.79 13.50 155.79 13.50 155.64 32.20 C 155.56 43.16 155.09 51.30 154.50 51.87 C 153.61 52.73 124.07 60.00 121.47 60.00 C 120.90 60.00 119.93 58.66 119.32 57.03 C 118.62 55.17 116.81 53.40 114.50 52.30 C 110.95 50.60 110.76 50.61 109.45 52.40 C 108.70 53.43 107.78 56.35 107.41 58.89 C 106.41 65.73 101.53 81.62 98.05 89.38 C 96.37 93.12 95.00 97.01 95.00 98.02 C 95.00 101.78 105.30 106.89 110.34 105.63 C 113.50 104.84 116.55 97.23 118.14 86.16 C 118.75 81.95 119.53 78.20 119.87 77.83 C 120.78 76.87 150.09 70.76 150.73 71.40 C 151.72 72.39 143.93 93.41 137.96 105.84 C 122.86 137.27 104.05 160.97 77.70 181.76 C 70.87 187.15 67.02 190.86 67.21 191.85 C 67.59 193.85 72.78 197.37 78.62 199.60 C 82.77 201.19 83.37 201.19 86.48 199.71 C 91.37 197.38 110.11 180.91 116.67 173.17 C 122.30 166.53 122.30 166.53 121.63 172.02 C 121.26 175.03 120.68 186.50 120.35 197.50 C 119.47 226.89 121.39 236.32 129.03 240.30 C 133.26 242.50 138.66 242.02 146.84 238.72 Z  M 64.94 168.48 C 77.10 166.75 81.46 164.80 85.24 159.41 C 88.50 154.77 89.45 150.19 91.05 131.32 C 92.43 115.08 91.81 77.49 90.08 71.83 C 89.46 69.82 87.37 66.78 85.44 65.08 C 82.58 62.57 81.06 62.00 77.22 62.01 C 70.59 62.02 56.59 65.55 50.88 68.66 C 46.07 71.28 46.07 71.28 41.29 69.27 C 35.31 66.76 31.55 65.85 29.83 66.51 C 28.75 66.93 28.50 75.13 28.50 109.76 C 28.50 151.83 28.54 152.59 30.76 158.09 C 35.57 169.97 41.58 171.80 64.94 168.48 Z  M 48.74 151.60 C 46.02 148.87 45.50 143.68 45.50 119.00 C 45.50 88.74 45.54 88.56 52.72 85.27 C 56.24 83.66 60.81 82.53 65.05 82.23 C 71.36 81.78 71.88 81.90 73.10 84.12 C 75.27 88.08 75.53 116.34 73.54 131.97 C 72.61 139.26 71.39 146.25 70.82 147.50 C 69.38 150.66 65.69 152.10 57.45 152.72 C 51.72 153.16 50.09 152.95 48.74 151.60 Z "/>
</g>
</svg>