<?xml version="1.0" encoding="UTF-8" standalone="no"?>
<!DOCTYPE svg PUBLIC "-//W3C//DTD SVG 1.1//EN" "http://www.w3.org/Graphics/SVG/1.1/DTD/svg11.dtd" >
<svg xmlns="http://www.w3.org/2000/svg" xmlns:xlink="http://www.w3.org/1999/xlink" version="1.1" viewBox="0 0 256 257">
 <g >
 <path fill="currentColor"
d=" M 185.34 220.05 C 186.90 218.65 188.79 216.33 189.53 214.91 C 190.28 213.48 193.19 201.56 196.00 188.41 C 198.82 175.26 203.35 155.31 206.07 144.08 C 210.67 125.10 211.31 123.28 215.12 118.34 C 218.21 114.33 219.08 112.44 218.63 110.66 C 217.88 107.68 209.95 100.28 206.62 99.44 C 205.14 99.07 198.33 100.25 189.81 102.36 C 175.88 105.81 157.59 110.00 156.46 110.00 C 156.15 110.00 156.21 106.15 156.59 101.44 C 157.29 92.88 157.29 92.88 151.18 86.94 C 147.82 83.67 144.61 81.00 144.04 81.00 C 143.38 81.00 142.97 85.35 142.93 92.75 C 142.89 99.21 142.55 106.51 142.18 108.97 C 141.50 113.45 141.50 113.45 125.50 116.21 C 116.70 117.73 108.83 119.10 108.00 119.27 C 107.17 119.43 109.79 121.53 113.81 123.93 C 121.12 128.30 121.12 128.30 129.56 126.80 C 137.26 125.43 138.00 125.44 137.99 126.90 C 137.96 129.91 130.15 151.76 126.46 159.14 C 118.09 175.90 105.91 190.98 92.72 200.93 C 89.55 203.32 87.12 205.45 87.33 205.66 C 88.20 206.54 98.94 203.58 104.50 200.93 C 124.24 191.53 138.41 170.43 149.45 134.00 C 153.03 122.16 150.13 123.64 181.35 117.69 C 194.21 115.25 194.21 115.25 193.52 121.87 C 191.61 140.37 183.09 181.06 179.70 187.83 C 178.76 189.71 176.36 190.91 168.71 193.31 C 163.33 194.99 159.05 196.85 159.21 197.44 C 159.37 198.02 163.98 204.44 169.45 211.70 C 180.27 226.06 179.25 225.52 185.34 220.05 Z  M 71.40 215.50 C 77.57 209.79 77.43 211.26 78.01 145.00 C 78.54 84.50 78.54 84.50 76.12 80.50 C 74.79 78.30 73.31 76.35 72.84 76.16 C 72.36 75.98 79.63 67.93 88.99 58.28 C 98.34 48.63 106.00 40.16 106.00 39.46 C 106.00 37.64 99.08 29.12 92.29 22.59 C 86.50 17.02 86.50 17.02 86.00 25.28 C 85.53 33.00 85.19 34.04 80.83 41.02 C 69.00 59.95 49.36 79.45 25.59 95.85 C 20.69 99.23 17.25 102.00 17.95 102.00 C 25.06 102.00 45.44 93.49 57.52 85.46 C 62.46 82.18 66.90 79.33 67.39 79.12 C 68.59 78.61 67.42 152.54 66.01 166.00 C 64.68 178.63 61.62 191.66 59.39 194.12 C 55.49 198.43 62.62 218.00 68.08 218.00 C 68.42 218.00 69.92 216.88 71.40 215.50 Z  M 118.42 85.00 C 124.53 79.14 124.78 79.01 129.09 79.57 C 132.03 79.95 139.83 78.97 152.50 76.63 C 162.95 74.71 181.40 71.49 193.50 69.48 C 205.60 67.47 215.89 65.45 216.38 64.99 C 218.03 63.40 217.25 58.89 214.88 56.35 C 212.35 53.64 204.01 49.00 201.67 49.00 C 200.90 49.00 197.40 50.29 193.89 51.87 C 183.65 56.46 135.03 72.00 130.88 72.00 C 130.46 72.00 132.50 68.51 135.43 64.25 C 141.77 55.00 150.42 40.11 156.64 27.73 C 161.94 17.18 161.84 15.37 155.73 10.87 C 151.29 7.61 137.91 0.76 137.25 1.42 C 137.04 1.63 137.40 5.33 138.06 9.65 C 139.26 17.50 139.26 17.50 135.01 29.50 C 127.25 51.46 119.80 69.40 112.30 84.25 C 107.85 93.05 109.79 93.29 118.42 85.00 Z "/>
</g>
</svg>