<?xml version="1.0" encoding="UTF-8" standalone="no"?>
<!DOCTYPE svg PUBLIC "-//W3C//DTD SVG 1.1//EN" "http://www.w3.org/Graphics/SVG/1.1/DTD/svg11.dtd" >
<svg xmlns="http://www.w3.org/2000/svg" xmlns:xlink="http://www.w3.org/1999/xlink" version="1.1" viewBox="0 0 256 256">
 <g >
 <path fill="currentColor"
d=" M 245.75 216.35 C 248.64 216.01 250.97 215.45 250.94 215.11 C 250.90 214.77 243.36 210.80 234.19 206.28 C 216.28 197.46 203.76 189.91 182.76 175.25 C 161.18 160.20 162.64 162.71 169.75 152.91 C 173.10 148.28 177.73 141.35 180.03 137.50 C 182.33 133.65 186.49 128.16 189.27 125.31 C 194.32 120.11 194.32 120.11 191.61 116.55 C 190.11 114.59 187.29 112.17 185.34 111.17 C 181.78 109.34 181.78 109.34 169.32 113.17 C 162.46 115.28 156.54 117.00 156.16 117.00 C 155.78 117.00 155.78 113.29 156.15 108.75 C 156.53 104.21 156.88 95.42 156.92 89.22 C 156.98 81.16 157.36 77.81 158.25 77.48 C 158.94 77.23 169.62 75.31 182.00 73.20 C 202.47 69.73 204.53 69.20 204.80 67.32 C 205.19 64.71 200.78 60.91 195.23 59.08 C 191.31 57.78 190.39 57.92 177.30 61.84 C 155.05 68.48 157.19 69.40 158.58 53.84 C 159.24 46.50 160.11 37.28 160.51 33.34 C 161.24 26.19 161.24 26.19 157.28 23.57 C 152.97 20.72 133.82 11.84 133.24 12.43 C 133.04 12.63 135.63 18.27 138.99 24.97 C 145.10 37.16 145.10 37.16 145.70 53.93 C 146.30 70.69 146.30 70.69 129.14 74.06 C 119.09 76.03 112.12 77.86 112.32 78.46 C 112.89 80.18 120.36 84.93 122.55 84.97 C 123.68 84.99 128.63 84.11 133.55 83.02 C 147.18 80.01 146.02 79.04 145.87 93.25 C 145.80 99.99 145.46 108.81 145.12 112.85 C 144.50 120.20 144.50 120.20 133.56 123.51 C 123.47 126.56 122.21 126.73 117.27 125.69 C 111.30 124.44 108.71 125.30 108.20 128.70 C 107.97 130.24 108.89 131.07 112.27 132.36 C 114.67 133.27 119.63 135.99 123.29 138.40 C 130.47 143.11 149.00 158.76 149.00 160.11 C 149.00 161.80 136.22 174.50 128.51 180.46 C 116.72 189.58 106.74 195.30 91.50 201.68 C 83.50 205.02 83.50 205.02 89.50 204.39 C 112.12 202.00 132.22 192.43 149.60 175.77 C 157.71 168.01 157.71 168.01 175.12 185.75 C 184.71 195.51 194.78 206.54 197.52 210.25 C 202.50 217.00 202.50 217.00 221.50 216.99 C 231.95 216.99 242.86 216.70 245.75 216.35 Z  M 67.33 155.41 C 87.77 144.64 105.06 135.36 105.75 134.79 C 107.63 133.23 107.25 131.00 105.10 131.00 C 104.05 131.00 99.33 132.78 94.60 134.95 C 86.00 138.91 86.00 138.91 86.00 122.12 C 86.00 105.34 86.00 105.34 99.25 102.61 C 106.54 101.10 112.88 99.50 113.34 99.04 C 116.08 96.35 109.20 89.98 103.60 90.03 C 101.90 90.04 97.36 91.39 93.53 93.03 C 89.69 94.66 86.43 96.00 86.28 96.00 C 85.73 96.00 86.18 66.31 86.90 55.00 C 87.74 41.66 87.57 41.25 79.67 38.11 C 74.80 36.18 60.49 32.00 58.74 32.00 C 58.30 32.00 61.50 36.61 65.85 42.25 C 73.77 52.50 73.77 52.50 75.03 72.50 C 75.73 83.50 76.34 103.71 76.40 117.40 C 76.50 142.31 76.50 142.31 65.03 146.65 C 58.72 149.04 53.44 151.00 53.28 151.00 C 53.13 151.00 53.00 143.72 53.00 134.82 C 53.00 118.63 53.00 118.63 48.04 113.86 C 43.62 109.59 34.60 104.00 32.14 104.00 C 31.63 104.00 32.92 108.84 35.00 114.75 C 39.20 126.68 42.68 141.65 43.18 149.90 C 43.55 156.09 45.97 154.64 23.61 161.58 C 11.71 165.28 11.71 165.28 14.11 167.15 C 16.64 169.13 27.92 174.93 29.33 174.97 C 29.78 174.99 46.88 166.18 67.33 155.41 Z  M 141.06 142.85 C 134.41 137.26 129.10 132.57 129.25 132.41 C 129.68 131.99 169.77 122.00 171.05 122.00 C 172.38 122.00 164.82 136.29 158.29 146.11 C 155.77 149.90 153.58 153.00 153.43 153.00 C 153.27 153.00 147.71 148.43 141.06 142.85 Z "/>
</g>
</svg>