<?xml version="1.0" encoding="UTF-8" standalone="no"?>
<!DOCTYPE svg PUBLIC "-//W3C//DTD SVG 1.1//EN" "http://www.w3.org/Graphics/SVG/1.1/DTD/svg11.dtd" >
<svg xmlns="http://www.w3.org/2000/svg" xmlns:xlink="http://www.w3.org/1999/xlink" version="1.1" viewBox="0 0 256 256">
 <g >
 <path fill="currentColor"
d=" M 82.08 235.38 C 95.75 231.13 105.73 222.94 113.93 209.26 C 117.67 203.00 117.67 203.00 123.09 206.86 C 126.06 208.99 137.72 217.13 149.00 224.96 C 169.50 239.21 169.50 239.21 180.00 238.59 C 191.16 237.94 200.13 236.16 200.68 234.48 C 200.86 233.92 197.52 232.15 193.26 230.55 C 175.22 223.77 153.37 214.34 137.16 206.33 C 120.38 198.05 119.83 197.68 120.42 195.13 C 120.76 193.68 121.27 190.03 121.57 187.00 C 122.11 181.50 122.11 181.50 116.13 177.45 C 110.14 173.40 110.14 173.40 113.55 169.79 C 115.89 167.30 118.19 165.97 120.93 165.51 C 124.65 164.88 126.36 165.61 146.21 176.29 C 157.92 182.59 175.97 192.12 186.31 197.48 C 205.12 207.22 205.12 207.22 212.81 206.09 C 227.41 203.93 242.82 199.13 241.58 197.12 C 241.27 196.63 238.97 195.92 236.45 195.54 C 227.57 194.21 191.90 184.92 176.41 179.91 C 161.91 175.21 136.48 165.18 137.22 164.45 C 137.39 164.28 144.28 163.65 152.52 163.06 C 177.90 161.24 180.00 160.97 180.00 159.46 C 180.00 157.32 176.16 154.24 171.51 152.66 C 167.77 151.38 166.22 151.41 157.89 152.93 C 148.50 154.64 148.50 154.64 148.81 137.57 C 148.98 128.18 149.43 120.19 149.81 119.82 C 150.19 119.44 156.35 118.31 163.50 117.30 C 177.73 115.28 179.10 114.33 173.33 110.44 C 170.27 108.38 169.83 108.35 161.33 109.63 C 156.47 110.36 152.05 110.97 151.50 110.98 C 150.91 110.99 150.64 108.72 150.85 105.43 C 151.12 101.07 150.82 99.59 149.49 98.62 C 148.10 97.60 152.95 96.96 176.29 95.07 C 191.96 93.80 205.25 92.93 205.81 93.13 C 206.43 93.36 205.90 96.41 204.43 101.00 C 201.64 109.71 201.50 111.00 203.37 111.00 C 204.58 111.00 231.85 98.49 232.87 97.46 C 233.95 96.39 230.07 90.14 225.30 85.25 C 220.59 80.43 219.58 79.84 216.73 80.24 C 214.95 80.49 205.07 81.97 194.77 83.53 C 184.47 85.10 175.69 86.03 175.27 85.60 C 174.85 85.18 177.29 73.90 180.69 60.53 C 185.40 42.04 187.64 34.99 190.05 31.07 C 193.17 26.00 193.19 25.87 191.36 23.85 C 190.34 22.71 188.25 20.89 186.72 19.80 C 183.93 17.81 183.93 17.81 177.41 20.43 C 173.82 21.86 167.51 23.61 163.38 24.31 C 156.37 25.49 155.99 25.68 157.69 27.17 C 161.02 30.09 165.86 32.00 169.95 32.00 C 174.00 32.00 174.00 32.00 173.98 37.75 C 173.98 40.91 173.63 44.04 173.21 44.69 C 172.79 45.35 168.45 46.39 163.55 46.99 C 153.37 48.26 152.44 48.62 154.12 50.64 C 156.46 53.46 159.55 54.39 165.75 54.13 C 172.60 53.85 172.75 54.01 171.41 60.71 C 170.83 63.61 170.64 63.69 161.75 64.87 C 156.76 65.54 152.30 66.31 151.84 66.60 C 148.40 68.72 155.20 72.00 163.04 72.00 C 169.18 72.00 169.18 72.00 168.59 76.00 C 168.26 78.20 167.74 81.80 167.41 84.00 C 166.93 87.31 166.44 88.00 164.56 88.00 C 163.32 88.00 158.86 88.29 154.65 88.65 C 147.00 89.29 147.00 89.29 147.00 64.75 C 147.00 38.55 148.15 22.65 150.55 15.86 C 151.96 11.87 151.92 11.55 149.86 9.35 C 148.66 8.08 146.93 6.80 146.02 6.51 C 145.10 6.21 133.36 8.65 119.92 11.92 C 95.50 17.87 95.50 17.87 89.15 14.33 C 83.38 11.12 82.86 10.99 83.47 12.91 C 86.22 21.58 90.14 39.93 91.92 52.50 C 94.18 68.52 96.05 93.07 95.08 94.15 C 93.88 95.48 73.02 97.42 71.91 96.31 C 71.31 95.71 70.59 92.56 70.29 89.30 C 69.76 83.36 69.76 83.36 78.40 81.55 C 83.16 80.55 87.30 79.32 87.62 78.81 C 87.93 78.30 87.91 76.79 87.58 75.46 C 86.53 71.29 82.06 71.29 71.84 75.46 C 70.57 75.98 70.05 75.43 69.59 73.07 C 67.72 63.37 66.85 64.62 76.96 62.56 C 86.73 60.58 87.76 59.53 83.37 56.07 C 80.24 53.61 76.29 53.43 71.29 55.52 C 69.29 56.36 67.32 56.70 66.92 56.27 C 66.53 55.85 65.89 52.32 65.52 48.43 C 64.83 41.37 64.83 41.37 74.92 39.52 C 86.04 37.47 87.45 36.07 82.37 32.07 C 78.85 29.30 76.91 29.48 67.56 33.40 C 60.17 36.50 59.39 36.64 56.34 35.37 C 54.54 34.62 51.74 34.00 50.11 34.00 C 47.16 34.00 47.16 34.00 50.02 39.75 C 53.91 47.56 57.26 59.67 60.34 77.00 C 64.42 99.95 65.43 97.36 52.00 98.34 C 40.50 99.18 40.50 99.18 35.00 93.84 C 29.50 88.50 29.50 88.50 28.73 95.00 C 25.96 118.45 24.98 124.11 23.03 127.93 C 20.64 132.63 20.95 136.75 24.11 141.95 C 26.95 146.61 29.84 145.80 33.06 139.45 C 35.30 135.04 36.83 128.21 39.56 110.39 C 40.04 107.29 40.07 107.27 48.77 106.15 C 53.57 105.53 61.10 104.78 65.50 104.49 C 69.90 104.20 75.33 103.73 77.56 103.45 C 81.60 102.94 81.64 102.97 83.92 107.82 C 87.79 116.09 87.64 116.21 70.49 118.50 C 55.50 120.50 55.50 120.50 58.50 122.55 C 64.03 126.33 67.03 127.14 72.91 126.45 C 78.50 125.79 78.50 125.79 71.50 132.95 C 62.97 141.67 56.89 146.45 45.90 153.08 C 40.63 156.25 38.62 157.87 40.50 157.43 C 49.22 155.35 64.06 148.06 76.35 139.81 C 81.21 136.54 85.34 134.01 85.52 134.19 C 85.70 134.37 85.59 140.68 85.28 148.21 C 84.62 164.04 86.18 162.39 70.75 163.53 C 65.94 163.89 62.00 164.56 62.00 165.03 C 62.00 166.41 66.05 168.86 71.12 170.54 C 75.35 171.95 76.90 171.95 86.62 170.60 C 92.56 169.77 97.57 169.24 97.76 169.42 C 98.41 170.07 88.37 178.29 81.00 183.14 C 72.89 188.47 56.05 197.27 46.66 201.08 C 39.23 204.09 40.75 204.59 50.99 202.50 C 68.76 198.88 87.61 190.73 99.90 181.38 C 103.78 178.42 107.16 176.00 107.40 176.00 C 107.65 176.00 108.15 178.36 108.50 181.25 C 109.28 187.53 107.07 199.16 103.82 205.88 C 100.75 212.22 89.40 223.23 78.00 230.90 C 72.78 234.42 68.09 237.67 67.59 238.12 C 66.14 239.40 73.78 237.95 82.08 235.38 Z  M 93.20 205.25 C 95.80 202.47 99.00 196.90 99.00 195.15 C 99.00 194.58 97.55 194.55 95.25 195.08 C 93.19 195.56 89.33 195.96 86.68 195.98 C 82.16 196.00 81.91 196.14 82.53 198.25 C 83.58 201.80 87.90 208.00 89.33 208.00 C 90.04 208.00 91.78 206.76 93.20 205.25 Z  M 148.75 191.95 C 152.19 190.40 155.00 188.68 155.00 188.13 C 155.00 186.92 150.19 183.40 146.74 182.09 C 144.49 181.24 144.16 181.42 143.65 183.82 C 143.34 185.29 141.31 188.81 139.14 191.64 C 135.19 196.79 135.19 196.79 138.85 195.78 C 140.86 195.23 145.31 193.51 148.75 191.95 Z  M 194.00 143.00 C 195.33 141.67 196.00 139.67 196.00 137.03 C 196.00 133.60 195.58 132.83 192.91 131.46 C 188.01 128.92 177.25 127.04 167.55 127.02 C 158.61 127.00 158.61 127.00 169.89 133.44 C 176.09 136.97 182.59 141.00 184.33 142.39 C 188.19 145.46 191.34 145.66 194.00 143.00 Z  M 93.82 145.29 C 94.00 136.07 94.31 128.36 94.51 128.16 C 94.71 127.95 97.38 129.22 100.44 130.96 C 107.00 134.72 110.36 134.69 110.80 130.89 C 111.06 128.66 110.64 128.18 107.93 127.64 C 106.18 127.29 102.33 127.00 99.38 127.00 C 94.73 127.00 94.00 126.74 94.00 125.07 C 94.00 123.47 95.33 122.86 101.75 121.49 C 106.01 120.59 110.06 119.67 110.75 119.46 C 112.79 118.82 112.18 116.29 109.49 114.17 C 107.14 112.32 106.62 112.28 101.74 113.58 C 94.74 115.44 95.00 115.54 95.00 111.02 C 95.00 107.35 94.67 106.87 90.75 104.86 C 88.41 103.66 86.95 102.55 87.50 102.38 C 89.29 101.82 131.49 98.00 135.78 98.00 C 140.63 98.00 141.33 99.34 140.81 107.55 C 140.50 112.46 140.50 112.46 129.53 113.75 C 123.50 114.45 118.20 115.40 117.75 115.85 C 116.32 117.28 118.04 119.79 121.62 121.49 C 124.91 123.05 127.27 123.01 133.50 121.30 C 135.29 120.81 135.24 121.04 133.00 123.46 C 129.30 127.47 117.25 136.49 110.98 139.94 C 104.49 143.52 105.36 143.75 114.64 140.89 C 121.56 138.75 128.91 135.30 136.79 130.47 C 141.08 127.84 141.08 127.84 140.93 139.29 C 140.84 146.48 141.23 151.56 141.98 152.95 C 142.63 154.17 143.01 155.29 142.83 155.43 C 142.65 155.58 137.65 156.48 131.72 157.43 C 120.93 159.16 120.93 159.16 116.00 156.00 C 111.28 152.97 109.03 152.75 108.98 155.31 C 108.92 158.52 105.41 160.78 99.50 161.41 C 93.50 162.05 93.50 162.05 93.82 145.29 Z  M 103.66 80.97 C 103.30 74.21 103.00 62.97 103.00 55.98 C 103.00 43.28 103.00 43.28 108.25 42.63 C 114.92 41.82 129.17 38.23 130.33 37.07 C 130.83 36.57 130.62 34.98 129.84 33.35 C 127.99 29.46 124.35 29.27 112.44 32.44 C 107.15 33.85 102.64 35.00 102.41 35.00 C 102.18 35.00 102.00 32.35 102.00 29.11 C 102.00 25.12 102.43 23.05 103.33 22.70 C 105.13 22.01 134.94 19.60 135.40 20.10 C 136.26 21.05 138.00 56.29 138.00 72.73 C 138.00 90.70 138.00 90.70 127.75 91.34 C 122.11 91.70 114.53 92.28 110.91 92.62 C 104.32 93.26 104.32 93.26 103.66 80.97 Z  M 113.80 84.80 C 114.46 84.14 115.00 82.40 115.00 80.94 C 115.00 78.41 115.37 78.22 122.49 77.00 C 130.59 75.62 133.03 74.10 130.51 72.01 C 128.46 70.30 128.59 68.98 131.50 62.40 C 134.74 55.08 134.73 52.29 131.45 50.79 C 129.36 49.84 127.54 50.03 121.47 51.82 C 112.40 54.48 112.49 54.48 108.90 51.93 C 106.00 49.86 106.00 49.86 106.04 53.18 C 106.19 64.54 107.97 83.26 109.02 84.53 C 110.50 86.31 112.19 86.41 113.80 84.80 Z  M 115.00 66.11 C 115.00 59.23 115.00 59.23 119.59 58.54 C 122.12 58.16 124.40 58.07 124.67 58.34 C 124.94 58.61 124.85 61.39 124.45 64.52 C 123.80 69.76 123.48 70.32 120.40 71.60 C 118.57 72.37 116.60 73.00 116.03 73.00 C 115.42 73.00 115.00 70.18 115.00 66.11 Z "/>
</g>
</svg>