<?xml version="1.0" encoding="UTF-8" standalone="no"?>
<!DOCTYPE svg PUBLIC "-//W3C//DTD SVG 1.1//EN" "http://www.w3.org/Graphics/SVG/1.1/DTD/svg11.dtd" >
<svg xmlns="http://www.w3.org/2000/svg" xmlns:xlink="http://www.w3.org/1999/xlink" version="1.1" viewBox="0 0 256 256">
 <g >
 <path fill="currentColor"
d=" M 216.00 201.40 C 242.19 198.02 248.78 194.83 252.56 183.71 C 254.21 178.86 254.18 173.99 252.35 149.58 C 251.76 141.67 251.76 141.67 246.63 151.58 C 237.97 168.33 234.16 172.90 223.50 179.32 C 209.63 187.68 195.58 191.00 174.11 191.00 C 151.16 191.00 139.62 189.07 133.94 184.29 C 129.57 180.62 127.99 176.88 128.05 170.30 C 128.13 160.68 131.54 137.00 134.02 128.84 C 136.35 121.18 136.35 121.18 129.25 113.35 C 125.34 109.04 122.26 105.41 122.39 105.27 C 122.53 105.13 129.59 104.52 138.07 103.91 C 146.56 103.29 154.06 102.33 154.75 101.77 C 155.44 101.21 156.00 99.27 156.00 97.45 C 156.00 94.92 155.25 93.56 152.80 91.64 C 149.61 89.14 149.61 89.14 155.95 72.32 C 160.75 59.62 163.29 54.31 166.33 50.65 C 170.35 45.80 170.35 45.80 168.51 42.39 C 165.77 37.29 160.59 31.61 154.90 27.43 C 149.83 23.71 149.83 23.71 135.17 28.35 C 119.32 33.38 90.47 41.22 80.93 43.09 C 76.49 43.97 74.67 43.97 73.64 43.11 C 72.19 41.92 52.83 33.82 52.45 34.25 C 52.33 34.39 53.76 39.17 55.63 44.87 C 60.03 58.27 65.14 78.63 68.98 98.06 C 70.66 106.55 72.27 114.54 72.55 115.81 C 73.44 119.79 77.13 118.24 79.86 112.75 C 81.69 109.06 82.75 108.00 84.61 108.00 C 87.70 108.00 87.63 109.20 84.03 117.92 C 77.12 134.67 62.96 153.83 47.73 167.02 C 43.20 170.93 33.48 178.16 26.13 183.07 C 11.64 192.74 11.49 193.62 24.88 190.47 C 39.09 187.12 57.06 175.16 72.69 158.64 C 83.57 147.15 94.95 132.90 94.98 130.72 C 94.99 129.74 93.82 124.21 92.37 118.43 C 90.92 112.66 89.93 107.74 90.16 107.51 C 90.78 106.89 115.20 105.01 116.02 105.51 C 117.48 106.42 118.10 120.53 118.03 151.70 C 117.96 182.06 118.08 184.23 119.95 187.90 C 122.54 192.99 128.19 197.57 134.41 199.63 C 146.53 203.66 191.02 204.62 216.00 201.40 Z  M 82.51 97.75 C 82.06 96.46 77.57 67.40 76.43 58.43 C 75.79 53.35 75.79 53.35 94.01 50.11 C 117.15 45.99 142.80 42.47 143.64 43.30 C 143.99 43.66 142.75 54.18 140.89 66.69 C 136.99 92.84 141.50 89.18 105.50 95.49 C 82.80 99.47 83.09 99.44 82.51 97.75 Z "/>
</g>
</svg>