<?xml version="1.0" encoding="UTF-8" standalone="no"?>
<!DOCTYPE svg PUBLIC "-//W3C//DTD SVG 1.1//EN" "http://www.w3.org/Graphics/SVG/1.1/DTD/svg11.dtd" >
<svg xmlns="http://www.w3.org/2000/svg" xmlns:xlink="http://www.w3.org/1999/xlink" version="1.1" viewBox="0 0 256 256">
 <g >
 <path fill="currentColor"
d=" M 174.15 217.21 C 176.39 211.55 176.41 211.12 176.09 170.45 C 175.77 129.40 175.77 129.40 193.47 126.94 C 211.17 124.47 211.17 124.47 210.49 129.98 C 209.46 138.28 205.30 153.84 202.75 158.94 C 200.67 163.11 200.03 163.59 194.25 165.26 C 190.81 166.26 188.00 167.40 188.00 167.80 C 188.00 168.20 191.20 172.49 195.10 177.35 C 202.21 186.18 202.21 186.18 205.17 183.34 C 206.80 181.78 209.43 178.54 211.02 176.16 C 215.07 170.05 223.00 145.28 223.00 138.76 C 223.00 136.98 224.52 135.09 228.50 131.91 C 231.53 129.50 234.00 127.16 234.00 126.72 C 234.00 124.74 229.86 118.19 226.65 115.11 C 222.50 111.13 223.36 111.09 200.14 116.40 C 191.70 118.33 182.87 120.20 180.54 120.55 C 176.29 121.18 176.29 121.18 177.08 116.34 C 178.45 108.04 178.27 107.19 174.75 105.33 C 171.50 103.60 171.50 103.60 175.50 102.90 C 177.70 102.51 185.12 101.66 192.00 101.01 C 198.88 100.37 205.08 99.66 205.79 99.44 C 207.42 98.93 205.94 95.77 202.19 91.75 C 199.63 89.01 199.63 89.01 209.90 73.75 C 220.17 58.50 220.17 58.50 212.33 51.21 C 207.80 47.00 203.87 44.10 203.00 44.35 C 202.18 44.59 192.95 47.24 182.50 50.24 C 172.05 53.24 157.52 57.22 150.21 59.10 C 136.92 62.50 136.92 62.50 129.27 59.77 C 125.07 58.27 121.45 57.21 121.24 57.42 C 121.03 57.63 121.74 59.54 122.81 61.65 C 127.72 71.31 133.00 93.60 133.00 104.65 C 133.00 109.39 133.41 110.47 136.45 113.76 C 139.89 117.50 139.89 117.50 142.05 115.37 C 143.23 114.20 144.51 111.72 144.89 109.87 C 145.57 106.53 145.63 106.49 152.81 105.61 C 156.79 105.12 160.31 104.97 160.62 105.29 C 160.93 105.60 161.26 109.81 161.34 114.65 C 161.50 123.44 161.50 123.44 148.22 125.32 C 134.93 127.20 134.93 127.20 127.64 123.60 C 119.03 119.35 117.52 119.12 118.41 122.25 C 121.57 133.37 124.63 155.36 125.27 171.50 C 125.49 177.28 125.60 177.51 128.34 177.82 C 130.02 178.02 131.96 177.44 133.09 176.42 C 134.85 174.83 135.00 173.11 135.00 154.85 C 135.00 136.63 135.14 135.00 136.75 134.94 C 137.71 134.91 143.96 134.10 150.64 133.15 C 162.79 131.42 162.79 131.42 163.39 135.85 C 165.31 149.86 163.13 191.70 160.00 201.01 C 158.90 204.27 158.00 207.51 158.00 208.22 C 158.00 210.37 164.00 222.35 166.31 224.82 C 168.47 227.13 168.47 227.13 170.18 225.03 C 171.12 223.87 172.91 220.35 174.15 217.21 Z  M 45.03 189.18 C 50.01 185.14 46.11 172.05 37.58 164.18 C 33.72 160.62 25.00 155.22 25.00 156.39 C 25.00 156.63 26.77 159.90 28.93 163.66 C 33.16 171.01 38.00 184.23 38.00 188.43 C 38.00 190.47 38.49 191.00 40.39 191.00 C 41.70 191.00 43.79 190.18 45.03 189.18 Z  M 75.19 185.25 C 77.81 182.21 78.10 179.84 76.52 174.43 C 74.43 167.24 68.62 160.27 60.97 155.77 C 57.48 153.72 54.48 152.19 54.30 152.37 C 54.12 152.54 56.00 156.94 58.46 162.15 C 60.92 167.35 63.65 174.51 64.53 178.05 C 65.40 181.60 66.30 185.06 66.53 185.75 C 67.15 187.64 73.45 187.28 75.19 185.25 Z  M 103.05 178.31 C 111.16 173.52 108.14 161.60 96.60 152.88 C 91.87 149.31 78.47 143.19 77.50 144.17 C 77.23 144.44 79.47 147.75 82.49 151.53 C 88.22 158.72 94.25 169.40 95.45 174.49 C 96.24 177.81 97.73 180.00 99.22 180.00 C 99.75 180.00 101.48 179.24 103.05 178.31 Z  M 64.75 134.27 C 76.99 130.57 87.00 127.28 87.00 126.96 C 87.00 126.64 86.43 125.61 85.74 124.66 C 84.57 123.06 83.74 123.05 72.99 124.47 C 66.67 125.30 61.33 125.99 61.13 125.99 C 60.92 126.00 68.80 117.77 78.63 107.70 C 98.79 87.07 108.00 76.83 108.00 75.09 C 108.00 71.96 97.42 58.00 95.05 58.00 C 94.67 58.00 93.77 61.04 93.04 64.75 C 91.90 70.59 90.51 73.29 82.76 84.71 C 77.82 91.98 73.23 98.39 72.55 98.95 C 71.64 99.71 70.33 98.54 67.49 94.43 C 65.39 91.37 61.97 87.42 59.90 85.64 C 56.12 82.41 56.12 82.41 64.14 73.46 C 68.55 68.53 75.23 60.70 78.97 56.06 C 85.78 47.62 85.78 47.62 84.43 43.80 C 82.65 38.77 78.50 32.86 71.54 25.50 C 65.88 19.50 65.88 19.50 66.38 30.84 C 66.77 39.98 66.49 43.68 64.93 49.84 C 62.30 60.23 57.68 69.30 52.05 75.14 C 48.08 79.26 46.77 80.02 43.43 80.10 C 41.27 80.15 38.44 80.50 37.15 80.86 C 34.93 81.48 35.08 81.76 40.15 85.99 C 43.09 88.45 49.87 94.69 55.22 99.86 C 64.94 109.25 64.94 109.25 61.44 113.34 C 59.52 115.58 55.08 119.97 51.57 123.08 C 45.93 128.09 44.54 128.83 39.60 129.44 C 36.52 129.83 34.00 130.46 34.00 130.85 C 34.00 132.43 40.68 140.99 41.92 141.01 C 42.24 141.01 52.51 137.98 64.75 134.27 Z  M 104.27 136.63 C 107.29 133.83 111.00 126.92 111.00 124.09 C 111.00 121.34 99.75 113.48 90.70 109.91 C 86.74 108.35 82.96 107.05 82.31 107.03 C 81.66 107.02 83.13 110.04 85.58 113.75 C 88.04 117.46 92.17 124.66 94.77 129.75 C 97.37 134.83 100.00 138.99 100.60 139.00 C 101.21 139.00 102.86 137.93 104.27 136.63 Z  M 160.50 38.69 C 163.80 36.49 169.54 32.27 173.26 29.30 C 180.96 23.15 180.95 23.50 173.51 15.22 C 169.26 10.49 157.94 2.00 155.89 2.00 C 155.40 2.00 155.00 3.74 155.00 5.87 C 155.00 14.39 150.16 34.86 145.29 46.93 C 144.66 48.49 150.58 45.28 160.50 38.69 Z  M 143.16 95.13 C 140.97 87.82 141.26 87.34 148.25 86.74 C 151.69 86.45 160.24 85.20 167.25 83.96 C 177.95 82.06 180.00 81.41 180.00 79.92 C 180.00 77.51 175.33 74.00 172.11 74.00 C 170.67 74.00 164.85 75.33 159.18 76.95 C 153.50 78.57 146.93 80.19 144.58 80.54 C 140.29 81.18 140.29 81.18 139.66 77.34 C 138.35 69.43 138.37 69.40 145.75 67.55 C 162.79 63.26 193.37 58.04 194.55 59.22 C 195.00 59.66 191.78 83.75 190.49 89.62 C 190.17 91.07 189.01 91.91 186.76 92.31 C 169.00 95.47 147.52 99.00 146.09 99.00 C 144.90 99.00 143.94 97.74 143.16 95.13 Z "/>
</g>
</svg>