<?xml version="1.0" encoding="UTF-8" standalone="no"?>
<!DOCTYPE svg PUBLIC "-//W3C//DTD SVG 1.1//EN" "http://www.w3.org/Graphics/SVG/1.1/DTD/svg11.dtd" >
<svg xmlns="http://www.w3.org/2000/svg" xmlns:xlink="http://www.w3.org/1999/xlink" version="1.1" viewBox="0 0 256 256">
 <g >
 <path fill="currentColor"
d=" M 178.36 216.03 C 179.38 212.48 179.47 206.11 178.80 186.50 C 177.65 153.09 177.26 149.00 175.22 149.00 C 171.46 149.00 176.10 147.12 185.00 145.05 C 190.22 143.83 195.07 142.66 195.76 142.44 C 196.45 142.23 200.17 144.77 204.02 148.09 C 211.67 154.67 213.32 154.95 216.97 150.31 C 219.15 147.54 219.56 143.60 218.09 139.73 C 216.51 135.58 203.27 131.09 188.00 129.53 C 181.50 128.86 181.50 128.86 185.44 132.91 C 187.60 135.14 189.17 137.13 188.94 137.33 C 188.37 137.81 159.73 143.06 159.42 142.74 C 159.10 142.42 177.40 126.92 192.81 114.46 C 204.48 105.02 205.10 104.34 204.55 101.50 C 203.85 97.90 197.71 88.70 194.12 85.88 C 191.54 83.85 191.54 83.85 190.66 86.18 C 184.80 101.66 171.43 121.82 167.44 121.20 C 166.37 121.03 160.10 119.87 153.50 118.62 C 141.50 116.35 141.50 116.35 146.00 114.35 C 148.47 113.25 153.76 111.08 157.75 109.52 C 164.17 107.01 165.00 106.39 164.98 104.09 C 164.95 100.54 161.79 93.98 158.76 91.20 C 156.26 88.90 156.26 88.90 151.07 95.90 C 148.22 99.75 142.31 106.26 137.94 110.37 C 130.01 117.84 130.01 117.84 138.32 122.26 C 142.90 124.70 149.31 127.91 152.57 129.41 C 158.50 132.13 158.50 132.13 155.00 135.06 C 144.90 143.51 141.56 145.15 130.36 147.16 C 124.43 148.23 119.38 149.28 119.16 149.51 C 118.65 150.02 126.94 160.01 127.84 159.97 C 128.20 159.96 136.60 157.78 146.50 155.13 C 162.23 150.92 164.58 150.51 165.12 151.91 C 166.23 154.74 167.21 194.37 166.24 196.94 C 165.46 199.00 163.80 199.79 155.72 201.94 C 150.45 203.35 146.09 204.84 146.05 205.27 C 146.01 205.69 150.37 209.58 155.74 213.91 C 161.11 218.24 166.60 222.96 167.94 224.41 C 170.38 227.03 170.38 227.03 173.72 223.79 C 175.64 221.93 177.61 218.63 178.36 216.03 Z  M 130.11 194.62 C 132.61 188.89 133.69 175.69 132.28 168.03 C 131.46 163.57 131.46 163.57 127.18 172.48 C 124.83 177.39 121.35 183.56 119.45 186.20 C 117.12 189.45 116.00 192.12 116.00 194.44 C 116.00 198.74 117.59 203.12 119.74 204.75 C 121.14 205.81 121.90 205.52 124.63 202.87 C 126.41 201.15 128.87 197.43 130.11 194.62 Z  M 234.42 196.09 C 239.21 190.80 234.41 182.03 224.95 178.79 C 219.65 176.97 197.03 172.64 196.35 173.32 C 196.16 173.50 199.76 176.85 204.33 180.74 C 208.91 184.64 215.89 190.80 219.85 194.43 C 226.87 200.87 227.11 201.00 229.77 199.62 C 231.28 198.84 233.37 197.25 234.42 196.09 Z  M 62.38 183.85 C 89.95 174.29 110.66 166.45 112.75 164.76 C 114.63 163.25 114.25 161.30 111.96 160.70 C 110.84 160.41 104.01 162.15 96.78 164.57 C 89.56 167.00 83.39 168.72 83.07 168.41 C 82.76 168.09 82.35 157.79 82.17 145.52 C 81.84 123.20 81.84 123.20 97.67 119.48 C 106.38 117.44 113.88 115.41 114.34 114.99 C 115.86 113.59 112.92 109.86 108.85 108.05 C 104.92 106.28 104.75 106.30 94.19 109.13 C 88.31 110.71 83.16 112.00 82.75 112.00 C 82.34 112.00 82.00 107.13 82.00 101.19 C 82.00 90.37 82.00 90.37 93.25 87.94 C 103.23 85.77 104.54 85.25 104.82 83.28 C 105.26 80.15 99.72 76.78 95.00 77.30 C 90.08 77.85 44.00 92.29 44.00 93.28 C 44.00 93.73 45.69 94.81 47.75 95.67 C 51.38 97.18 57.91 97.09 65.12 95.42 C 67.73 94.82 67.73 94.82 68.72 104.66 C 69.26 110.07 69.43 114.77 69.10 115.11 C 68.77 115.44 60.40 117.41 50.50 119.48 C 40.60 121.55 32.32 123.42 32.09 123.62 C 31.10 124.51 35.49 127.92 39.73 129.53 C 44.24 131.26 44.66 131.24 56.66 128.97 C 63.43 127.69 69.21 126.87 69.50 127.16 C 70.23 127.90 72.32 171.01 71.65 171.68 C 71.35 171.99 59.94 174.89 46.30 178.15 C 15.29 185.55 17.45 184.88 19.14 186.56 C 22.25 189.66 31.54 194.00 33.88 193.46 C 35.18 193.15 48.01 188.83 62.38 183.85 Z  M 62.05 167.44 C 62.76 166.58 63.52 163.54 63.73 160.69 C 64.21 154.22 61.82 149.97 56.06 147.03 C 51.79 144.85 39.64 141.70 37.45 142.20 C 36.66 142.38 39.29 146.60 44.14 152.95 C 48.53 158.70 52.87 164.66 53.78 166.20 C 55.66 169.39 59.91 170.02 62.05 167.44 Z  M 97.84 154.25 C 108.30 143.82 111.20 139.16 108.94 136.43 C 107.58 134.79 100.76 131.00 99.17 131.00 C 98.67 131.00 96.57 135.39 94.51 140.75 C 88.46 156.47 86.05 164.00 87.09 164.00 C 87.62 164.00 92.46 159.61 97.84 154.25 Z  M 25.24 101.83 C 43.17 89.78 65.73 69.44 78.17 54.09 C 82.27 49.03 79.63 48.06 98.69 61.70 C 104.29 65.72 109.28 69.00 109.77 69.00 C 111.29 69.00 113.31 64.22 113.21 60.85 C 113.03 54.52 110.53 52.79 96.89 49.59 C 90.08 47.98 84.38 46.59 84.24 46.49 C 84.09 46.39 86.00 43.28 88.49 39.57 C 90.97 35.87 93.00 32.11 93.00 31.22 C 93.00 28.40 83.63 20.67 74.15 15.68 C 69.12 13.03 65.00 11.03 65.00 11.23 C 65.00 11.44 66.10 15.38 67.44 20.00 C 69.88 28.40 69.88 28.40 67.87 34.45 C 62.25 51.34 46.59 72.37 19.50 99.43 C 4.71 114.21 4.58 114.37 10.50 111.06 C 13.80 109.22 20.43 105.06 25.24 101.83 Z  M 130.40 101.52 C 131.29 100.15 132.81 96.90 133.78 94.29 C 135.44 89.84 135.82 89.50 140.02 88.78 C 147.37 87.51 199.84 81.10 208.75 80.38 C 215.75 79.81 217.00 79.44 217.00 77.93 C 217.00 76.05 210.39 70.00 208.34 70.00 C 206.91 70.00 209.10 64.39 218.44 44.06 C 223.26 33.56 224.74 29.38 224.07 28.12 C 222.95 26.03 214.41 17.97 210.84 15.63 C 208.32 13.98 207.81 14.04 196.36 17.40 C 178.75 22.58 169.69 24.78 146.67 29.47 C 125.85 33.72 125.85 33.72 119.29 29.32 C 115.69 26.91 112.55 25.12 112.32 25.35 C 112.09 25.57 113.04 30.22 114.42 35.67 C 118.43 51.50 120.11 64.28 120.10 78.87 C 120.09 92.39 120.09 92.39 123.62 98.19 C 125.56 101.39 127.51 104.00 127.96 104.00 C 128.40 104.00 129.50 102.88 130.40 101.52 Z  M 134.00 74.68 C 134.00 67.37 134.00 67.37 141.25 65.70 C 145.24 64.78 150.35 63.75 152.60 63.41 C 156.60 62.81 156.73 62.88 157.35 66.02 C 157.71 67.80 158.00 71.37 158.00 73.97 C 158.00 78.69 158.00 78.69 148.05 80.35 C 132.98 82.85 134.00 83.26 134.00 74.68 Z  M 169.58 68.35 C 169.20 64.15 169.25 60.38 169.70 59.99 C 170.14 59.59 175.59 58.47 181.80 57.49 C 193.01 55.73 193.10 55.69 192.80 53.11 C 192.56 51.05 191.62 50.20 188.29 49.05 C 184.50 47.73 183.39 47.77 177.01 49.43 C 173.12 50.44 169.74 51.07 169.50 50.83 C 169.26 50.60 169.35 46.48 169.68 41.68 C 170.40 31.56 168.79 32.60 186.05 31.04 C 203.46 29.47 202.00 29.04 202.00 35.76 C 202.00 41.25 199.55 65.27 198.55 69.51 C 198.15 71.25 196.29 71.84 185.29 73.78 C 178.26 75.02 172.00 76.03 171.39 76.02 C 170.73 76.01 169.99 72.87 169.58 68.35 Z  M 130.52 49.40 C 130.12 44.12 130.18 39.46 130.65 39.04 C 131.55 38.23 152.96 34.59 153.44 35.16 C 154.10 35.96 157.22 54.12 156.77 54.56 C 156.09 55.24 136.46 59.00 133.58 59.00 C 131.34 59.00 131.21 58.60 130.52 49.40 Z "/>
</g>
</svg>