<?xml version="1.0" encoding="UTF-8" standalone="no"?>
<!DOCTYPE svg PUBLIC "-//W3C//DTD SVG 1.1//EN" "http://www.w3.org/Graphics/SVG/1.1/DTD/svg11.dtd" >
<svg xmlns="http://www.w3.org/2000/svg" xmlns:xlink="http://www.w3.org/1999/xlink" version="1.1" viewBox="0 0 256 256">
 <g >
 <path fill="currentColor"
d=" M 204.43 226.02 C 208.19 224.60 210.99 219.36 211.00 213.75 C 211.00 209.53 210.56 208.57 207.05 205.17 C 200.18 198.50 184.75 191.72 167.06 187.59 C 160.68 186.10 160.68 186.10 165.55 191.05 C 168.23 193.77 170.22 196.00 169.96 196.01 C 169.71 196.01 156.92 196.89 141.55 197.97 C 126.18 199.05 113.44 199.77 113.24 199.57 C 113.04 199.37 126.85 190.80 143.94 180.52 C 170.64 164.46 175.00 161.50 175.00 159.47 C 175.00 156.22 171.50 152.56 165.09 149.10 C 159.68 146.18 159.68 146.18 155.71 152.34 C 150.08 161.07 140.12 170.47 127.73 178.75 C 117.59 185.54 97.74 196.05 86.13 200.79 C 81.40 202.73 80.84 203.26 81.41 205.24 C 81.76 206.48 82.33 209.65 82.67 212.28 C 83.01 214.91 83.56 217.22 83.89 217.43 C 84.23 217.63 92.60 216.26 102.50 214.38 C 112.40 212.50 133.03 208.73 148.35 206.00 C 176.21 201.04 176.21 201.04 188.71 214.02 C 195.59 221.16 201.36 227.00 201.54 227.00 C 201.72 227.00 203.02 226.56 204.43 226.02 Z  M 26.69 171.87 C 38.67 168.01 49.41 159.09 55.92 147.59 C 60.31 139.81 67.50 120.76 71.66 105.88 C 73.72 98.52 75.46 92.38 75.55 92.24 C 75.63 92.09 77.45 92.71 79.60 93.61 C 83.06 95.06 84.59 95.10 93.25 93.96 C 98.62 93.25 103.25 92.92 103.55 93.22 C 104.67 94.34 91.24 110.02 77.67 123.42 C 64.72 136.21 63.86 137.28 67.04 136.64 C 73.88 135.27 84.00 129.00 96.83 118.16 C 100.31 115.22 103.37 113.03 103.63 113.29 C 103.89 113.56 103.65 119.02 103.09 125.44 C 102.13 136.50 102.19 137.33 104.26 141.59 C 106.77 146.76 109.09 147.13 112.27 142.85 C 114.11 140.38 114.22 138.65 114.07 115.60 C 113.91 91.00 113.91 91.00 116.41 91.00 C 121.28 91.00 134.00 88.74 134.00 87.88 C 134.00 87.40 132.33 85.16 130.30 82.91 C 126.36 78.55 126.56 78.59 117.25 80.56 C 114.00 81.25 114.00 81.25 114.00 69.20 C 114.00 57.35 113.96 57.11 111.35 55.06 C 109.89 53.91 108.88 52.80 109.10 52.58 C 109.62 52.07 143.90 48.25 155.61 47.40 C 161.85 46.94 164.93 47.08 165.40 47.84 C 165.78 48.45 166.36 54.96 166.69 62.30 C 167.29 75.66 167.29 75.66 152.65 77.50 C 144.59 78.51 138.00 79.64 138.00 80.01 C 138.00 81.08 141.18 83.60 144.90 85.48 C 147.73 86.92 149.76 87.09 156.81 86.50 C 165.32 85.79 165.32 85.79 157.41 95.06 C 153.06 100.16 144.67 109.32 138.77 115.42 C 132.86 121.51 128.03 127.02 128.02 127.65 C 127.98 130.41 118.69 146.96 114.53 151.68 C 112.03 154.52 107.17 158.74 103.74 161.06 C 97.50 165.26 97.50 165.26 104.12 164.76 C 111.62 164.18 122.73 159.81 134.03 152.98 C 140.10 149.31 141.00 148.39 141.00 145.85 C 141.00 141.35 138.55 136.50 133.61 131.22 C 129.11 126.41 129.11 126.41 133.63 125.07 C 139.13 123.45 149.98 116.40 159.75 108.13 C 167.00 101.99 167.00 101.99 166.96 109.74 C 166.93 114.01 166.54 119.45 166.08 121.83 C 165.34 125.64 165.62 126.92 168.37 132.33 C 171.91 139.31 174.06 140.14 177.30 135.79 C 179.20 133.26 179.33 131.54 179.41 108.29 C 179.50 83.50 179.50 83.50 196.30 81.08 C 211.99 78.81 213.07 78.52 212.80 76.61 C 212.47 74.39 207.08 70.31 203.19 69.33 C 201.85 69.00 196.56 69.68 191.44 70.86 C 178.30 73.88 178.60 73.94 179.33 68.25 C 179.67 65.64 180.23 61.91 180.57 59.96 C 181.13 56.78 180.73 55.92 176.57 51.29 C 174.03 48.46 172.40 45.87 172.94 45.54 C 173.49 45.20 183.02 44.74 194.13 44.51 C 215.36 44.08 216.63 43.78 215.36 39.50 C 214.53 36.72 212.23 34.27 207.15 30.77 C 202.80 27.77 202.80 27.77 188.15 30.89 C 180.09 32.61 167.20 34.93 159.50 36.04 C 144.11 38.27 81.34 46.10 62.75 48.12 C 56.29 48.82 51.00 49.71 51.00 50.11 C 51.00 50.50 53.89 52.65 57.42 54.88 C 63.83 58.92 63.85 58.95 64.55 64.58 C 66.11 77.05 62.81 102.32 57.49 118.58 C 50.08 141.25 38.41 157.57 20.62 170.17 C 14.08 174.80 13.79 175.16 17.00 174.54 C 18.93 174.16 23.29 172.96 26.69 171.87 Z  M 222.45 127.66 C 226.05 122.93 225.81 118.88 221.68 114.75 C 219.85 112.92 216.51 110.87 214.25 110.19 C 209.87 108.88 189.04 106.63 188.28 107.39 C 187.79 107.87 218.03 130.94 219.20 130.98 C 219.58 130.99 221.05 129.50 222.45 127.66 Z  M 136.38 110.54 C 138.51 107.29 138.43 104.70 136.13 102.62 C 134.59 101.22 132.53 100.97 124.38 101.21 C 114.50 101.50 114.50 101.50 123.50 107.18 C 128.45 110.31 133.01 112.89 133.63 112.93 C 134.26 112.97 135.50 111.89 136.38 110.54 Z  M 143.39 31.60 C 144.31 29.65 145.00 25.65 145.00 22.25 C 145.00 15.15 143.90 13.85 136.00 11.63 C 129.82 9.90 111.56 7.64 107.91 8.16 C 105.81 8.46 106.18 8.92 111.00 12.00 C 119.49 17.42 127.31 24.30 129.40 28.19 C 131.62 32.30 135.40 34.94 139.14 34.97 C 141.16 34.99 142.14 34.21 143.39 31.60 Z  M 78.00 86.75 C 78.00 86.61 78.64 83.15 79.42 79.05 C 80.85 71.59 80.85 71.59 77.03 67.05 C 74.94 64.55 72.27 61.64 71.11 60.60 C 69.95 59.55 69.00 58.39 69.00 58.03 C 69.00 57.29 99.81 53.48 100.47 54.14 C 101.07 54.74 102.87 70.42 103.15 77.50 C 103.39 83.50 103.39 83.50 92.94 85.20 C 83.12 86.79 78.00 87.32 78.00 86.75 Z "/>
</g>
</svg>