<?xml version="1.0" encoding="UTF-8" standalone="no"?>
<!DOCTYPE svg PUBLIC "-//W3C//DTD SVG 1.1//EN" "http://www.w3.org/Graphics/SVG/1.1/DTD/svg11.dtd" >
<svg xmlns="http://www.w3.org/2000/svg" xmlns:xlink="http://www.w3.org/1999/xlink" version="1.1" viewBox="0 0 256 256">
 <g >
 <path fill="currentColor"
d=" M 131.15 194.51 C 137.83 186.65 142.14 178.63 144.86 169.00 C 146.69 162.50 146.69 162.50 150.05 172.71 C 153.40 182.92 153.40 182.92 156.45 181.04 C 160.12 178.79 166.10 177.56 169.38 178.38 C 172.59 179.19 172.99 181.53 172.05 194.00 C 171.62 199.78 171.35 204.60 171.44 204.73 C 171.54 204.85 176.32 205.62 182.06 206.43 C 191.47 207.76 193.77 207.74 205.29 206.26 C 216.18 204.85 219.69 204.79 228.79 205.82 C 234.68 206.48 240.40 207.26 241.50 207.56 C 243.45 208.08 243.51 207.55 243.73 188.03 C 243.95 168.71 243.86 167.75 241.53 162.48 C 238.24 155.02 235.37 155.03 235.93 162.50 C 236.16 165.66 233.17 178.77 231.46 182.08 C 228.83 187.17 224.62 188.99 215.50 188.99 C 201.80 188.99 197.65 186.76 196.34 178.71 C 195.64 174.39 195.69 174.37 211.00 173.51 C 220.45 172.98 223.19 173.15 226.38 174.50 C 230.27 176.14 230.27 176.14 229.66 173.82 C 229.32 172.54 228.30 168.12 227.40 164.00 C 226.50 159.88 225.44 156.15 225.06 155.73 C 224.67 155.30 222.81 155.59 220.93 156.36 C 216.59 158.14 200.73 160.49 198.60 159.68 C 196.69 158.94 196.40 153.00 198.20 151.20 C 199.68 149.72 211.82 149.60 215.57 151.03 C 217.06 151.59 218.42 151.91 218.60 151.73 C 218.90 151.43 213.99 133.98 213.37 133.14 C 213.22 132.94 211.06 133.76 208.57 134.97 C 205.42 136.49 203.12 136.97 201.08 136.52 C 196.86 135.59 195.57 133.70 197.79 131.69 C 200.30 129.42 206.42 127.00 209.72 126.98 C 215.74 126.95 215.78 127.09 205.00 109.00 C 204.26 107.77 203.61 108.07 201.30 110.73 C 198.81 113.59 197.33 114.19 188.00 116.07 C 182.22 117.24 173.00 118.42 167.50 118.70 C 153.28 119.42 149.37 117.47 153.87 111.91 C 155.61 109.77 156.85 109.53 171.12 108.64 C 179.58 108.11 195.16 107.64 205.75 107.59 C 216.34 107.54 224.99 107.50 224.99 107.50 C 224.98 107.50 222.56 95.89 219.60 81.70 C 216.65 67.51 213.93 55.60 213.57 55.23 C 212.19 53.86 186.81 53.90 169.50 55.30 C 158.39 56.20 149.40 56.45 146.00 55.95 C 142.97 55.51 137.91 55.11 134.75 55.07 C 129.00 55.00 129.00 55.00 128.97 79.25 C 128.93 123.42 125.86 152.37 119.91 164.71 C 117.28 170.16 110.20 178.00 107.90 178.00 C 107.49 178.00 109.60 173.55 112.58 168.12 C 115.56 162.68 118.00 158.01 118.00 157.74 C 118.00 157.46 115.64 156.03 112.75 154.56 C 102.65 149.42 103.01 150.98 108.34 135.16 C 112.75 122.08 113.08 120.35 114.09 105.05 C 114.67 96.12 114.94 88.61 114.68 88.34 C 114.41 88.08 108.25 86.77 100.99 85.42 C 93.73 84.08 87.38 82.74 86.89 82.43 C 84.31 80.84 88.48 67.69 93.51 61.55 C 95.59 59.02 97.11 56.79 96.89 56.60 C 95.96 55.75 65.75 46.92 65.31 47.36 C 65.04 47.63 65.29 50.84 65.86 54.50 C 66.78 60.45 66.63 62.05 64.42 69.67 C 60.96 81.62 59.70 83.71 55.25 84.95 C 49.15 86.64 39.62 86.22 34.00 84.00 C 31.21 82.90 28.51 82.00 28.01 82.00 C 27.10 82.00 36.48 110.83 37.84 112.22 C 38.23 112.62 40.56 111.60 43.02 109.96 C 47.88 106.71 51.28 106.46 51.82 109.30 C 52.01 110.29 49.63 119.00 46.52 128.66 C 43.41 138.31 41.01 146.27 41.19 146.35 C 54.49 152.62 63.21 157.39 63.70 158.67 C 65.01 162.07 51.79 169.59 35.86 174.50 C 27.22 177.17 27.22 177.17 22.96 174.08 C 18.47 170.84 15.46 170.16 14.73 172.25 C 14.49 172.94 17.82 180.57 22.14 189.22 C 29.98 204.94 29.98 204.94 40.18 201.39 C 57.90 195.22 66.71 190.09 83.48 176.14 C 86.22 173.86 89.43 172.00 90.60 172.00 C 92.72 172.00 101.70 180.63 100.66 181.67 C 100.38 181.95 97.62 181.45 94.54 180.55 C 88.90 178.92 87.01 179.10 86.99 181.31 C 86.98 181.96 93.38 188.63 101.20 196.13 C 115.42 209.77 115.42 209.77 120.31 205.64 C 123.00 203.38 127.88 198.37 131.15 194.51 Z  M 150.25 161.88 C 148.46 161.37 147.01 160.62 147.02 160.22 C 147.02 159.82 147.92 153.21 149.02 145.53 C 150.11 137.84 151.00 130.22 151.00 128.58 C 151.00 124.61 152.34 126.22 154.46 132.75 C 156.37 138.63 156.31 138.61 165.73 136.59 C 171.06 135.45 172.14 135.46 173.15 136.68 C 174.07 137.79 173.96 138.47 172.63 139.80 C 171.31 141.12 169.15 141.49 162.94 141.47 C 157.89 141.45 155.09 141.82 155.33 142.47 C 155.54 143.04 156.94 147.22 158.44 151.78 C 161.18 160.05 161.18 160.05 164.46 158.03 C 168.76 155.37 173.00 155.31 173.00 157.92 C 173.00 162.66 172.28 163.00 162.64 162.91 C 157.61 162.86 152.04 162.40 150.25 161.88 Z  M 73.33 135.42 C 70.34 132.43 70.42 129.96 73.89 118.34 C 76.79 108.62 78.64 106.50 84.07 106.64 C 89.97 106.80 91.32 108.81 90.67 116.50 C 89.19 133.91 80.89 142.98 73.33 135.42 Z  M 156.86 87.31 C 154.19 84.21 153.94 83.23 155.13 80.62 C 156.87 76.79 160.85 76.00 178.49 76.00 C 192.91 76.00 194.87 76.20 196.35 77.83 C 198.62 80.34 198.42 84.31 195.90 86.60 C 194.03 88.29 191.84 88.53 176.11 88.81 C 160.05 89.09 158.28 88.95 156.86 87.31 Z "/>
</g>
</svg>