<?xml version="1.0" encoding="UTF-8" standalone="no"?>
<!DOCTYPE svg PUBLIC "-//W3C//DTD SVG 1.1//EN" "http://www.w3.org/Graphics/SVG/1.1/DTD/svg11.dtd" >
<svg xmlns="http://www.w3.org/2000/svg" xmlns:xlink="http://www.w3.org/1999/xlink" version="1.1" viewBox="0 0 256 256">
 <g >
 <path fill="currentColor"
d=" M 71.43 203.02 C 70.09 199.73 69.00 195.58 69.00 193.79 C 69.00 190.55 69.04 190.58 78.33 199.83 C 87.67 209.13 87.67 209.13 90.17 205.81 C 94.44 200.15 98.34 192.85 102.09 183.50 C 104.84 176.65 106.19 174.43 107.76 174.19 C 110.69 173.75 166.18 191.43 174.00 195.29 C 180.48 198.49 180.50 198.51 180.50 202.75 C 180.50 207.00 180.50 207.00 210.05 207.00 C 240.63 207.00 242.00 206.82 242.00 202.87 C 242.00 197.73 230.45 192.41 176.20 172.60 C 157.53 165.78 141.29 159.69 140.12 159.07 C 137.62 157.73 137.23 153.23 139.54 152.35 C 140.39 152.02 143.54 152.69 146.54 153.84 C 150.35 155.30 152.00 155.57 152.01 154.72 C 152.03 152.81 148.71 130.55 148.34 130.09 C 148.16 129.86 146.15 130.29 143.89 131.04 C 140.17 132.26 139.64 132.23 138.49 130.65 C 137.12 128.78 137.63 124.95 139.40 123.79 C 140.79 122.88 144.07 123.67 151.36 126.69 C 154.58 128.03 157.41 128.93 157.64 128.70 C 157.87 128.47 156.59 122.33 154.79 115.07 C 151.56 101.99 151.50 101.86 149.01 102.56 C 147.63 102.94 143.82 103.31 140.55 103.38 C 134.70 103.50 134.58 103.45 133.99 100.50 C 132.34 92.33 136.35 90.12 144.92 94.46 C 147.71 95.87 150.00 96.58 150.00 96.02 C 150.00 94.39 145.76 70.54 145.39 70.11 C 145.21 69.90 143.94 70.47 142.57 71.36 C 138.69 73.90 135.13 73.48 133.94 70.35 C 133.17 68.30 133.42 66.24 135.07 61.29 C 136.24 57.76 137.05 54.75 136.85 54.59 C 135.91 53.84 112.74 47.93 112.33 48.34 C 112.07 48.60 112.79 51.94 113.93 55.76 C 116.20 63.39 116.50 67.55 115.05 71.36 C 113.87 74.48 110.43 75.01 103.14 73.21 C 100.20 72.48 97.59 72.07 97.36 72.31 C 97.12 72.55 98.38 79.07 100.16 86.80 C 103.40 100.85 103.40 100.85 106.74 97.93 C 110.96 94.22 113.51 94.16 114.76 97.76 C 116.26 102.05 114.77 104.61 110.34 105.34 C 103.82 106.42 96.68 105.93 92.59 104.12 C 88.68 102.40 88.68 102.40 85.28 89.48 C 83.42 82.37 81.71 76.38 81.50 76.16 C 81.28 75.95 79.52 76.75 77.57 77.95 C 75.55 79.21 72.86 80.00 71.27 79.82 C 68.54 79.50 68.50 79.40 68.21 71.69 C 67.96 65.23 68.27 63.30 69.96 60.57 C 71.08 58.75 72.00 56.83 72.00 56.29 C 72.00 55.54 46.17 48.00 43.59 48.00 C 43.28 48.00 44.14 50.98 45.51 54.62 C 47.96 61.14 48.96 73.33 47.38 77.46 C 45.68 81.89 33.55 84.24 26.43 81.52 C 23.92 80.57 21.74 79.95 21.57 80.14 C 21.16 80.62 29.99 108.31 30.84 109.20 C 31.21 109.59 33.59 108.61 36.14 107.02 C 43.31 102.56 44.44 102.68 44.81 107.90 C 45.31 114.87 37.59 128.55 25.30 142.42 C 21.10 147.16 21.10 147.16 15.57 146.01 C 9.92 144.84 8.00 145.17 8.00 147.32 C 8.00 147.99 13.30 153.82 19.78 160.28 C 31.56 172.03 31.56 172.03 35.55 167.76 C 37.74 165.42 40.39 161.80 41.44 159.72 C 44.96 152.74 45.52 155.39 45.12 177.09 C 44.76 195.91 44.55 197.92 42.37 202.87 C 41.07 205.83 40.00 208.42 40.00 208.62 C 40.00 208.83 47.62 209.00 56.93 209.00 C 73.86 209.00 73.86 209.00 71.43 203.02 Z  M 228.48 145.25 C 228.46 122.81 228.17 116.94 226.98 114.57 C 224.73 110.12 223.01 110.16 222.95 114.67 C 222.87 120.05 220.60 132.06 219.15 134.75 C 217.35 138.06 214.10 137.52 212.67 133.66 C 211.62 130.80 214.80 119.95 218.03 115.37 C 220.95 111.24 220.95 111.24 214.75 104.47 C 208.55 97.70 208.55 97.70 207.76 101.60 C 205.93 110.73 203.17 113.45 201.87 107.42 C 200.74 102.23 200.97 97.43 202.42 95.44 C 204.33 92.83 211.67 93.06 220.51 96.00 C 224.15 97.21 227.31 98.02 227.54 97.80 C 228.08 97.25 223.61 74.28 222.80 73.47 C 222.46 73.12 221.25 73.33 220.13 73.93 C 218.29 74.92 217.99 74.65 217.10 71.26 C 216.56 69.19 215.81 65.70 215.43 63.50 C 215.05 61.30 214.54 59.15 214.30 58.73 C 213.65 57.60 200.01 65.28 200.01 66.77 C 200.00 67.48 201.12 68.48 202.50 69.00 C 205.57 70.17 205.84 73.60 202.93 74.52 C 197.40 76.28 195.29 68.15 199.03 59.44 C 200.14 56.84 200.93 54.64 200.78 54.53 C 199.65 53.79 180.63 50.03 180.20 50.47 C 179.89 50.77 180.40 53.42 181.32 56.35 C 182.24 59.28 183.00 64.67 183.00 68.34 C 183.00 75.00 183.00 75.00 171.75 75.00 C 160.50 75.00 160.50 75.00 160.88 80.25 C 161.32 86.36 159.18 156.89 158.40 161.84 C 157.87 165.19 157.87 165.19 161.09 163.34 C 162.86 162.33 167.67 158.16 171.79 154.07 C 182.11 143.81 186.68 134.27 187.24 121.80 C 187.46 117.02 187.26 113.34 186.80 113.62 C 186.34 113.91 184.79 116.47 183.37 119.32 C 180.60 124.83 178.23 128.00 176.85 128.00 C 175.62 128.00 175.80 99.24 177.04 96.93 C 178.44 94.31 185.62 94.17 186.38 96.75 C 187.48 100.46 192.35 128.77 192.76 133.81 C 193.24 139.76 191.96 143.75 188.51 146.99 C 186.76 148.64 185.74 148.94 184.34 148.22 C 182.13 147.08 180.00 147.68 180.00 149.46 C 180.00 150.17 183.19 154.87 187.10 159.92 C 195.23 170.43 194.99 170.42 200.65 160.30 C 202.62 156.78 204.77 154.03 205.43 154.20 C 206.10 154.36 209.10 157.43 212.12 161.00 C 216.57 166.27 225.29 172.85 228.00 172.98 C 228.28 172.99 228.49 160.51 228.48 145.25 Z  M 71.40 184.31 C 69.50 183.94 69.23 182.99 68.65 174.80 C 68.29 169.79 68.00 158.68 68.00 150.11 C 68.00 134.53 68.00 134.53 71.57 138.10 C 74.68 141.22 75.16 142.34 75.32 147.00 C 75.42 149.93 75.99 152.50 76.58 152.70 C 77.63 153.04 90.02 128.06 89.98 125.68 C 89.96 124.40 75.19 113.99 73.40 114.00 C 71.61 114.00 69.07 110.58 68.41 107.28 C 67.91 104.81 68.20 103.96 69.83 103.09 C 73.07 101.36 79.57 101.82 84.30 104.12 C 88.66 106.23 88.66 106.23 92.07 119.13 C 94.62 128.75 95.84 131.89 96.86 131.50 C 98.96 130.69 97.52 138.22 92.87 152.26 C 88.58 165.24 85.74 171.41 80.25 179.67 C 76.82 184.84 76.08 185.23 71.40 184.31 Z  M 114.00 151.02 C 112.68 150.18 112.72 149.50 114.31 145.28 C 115.31 142.65 116.21 139.87 116.31 139.09 C 116.42 138.30 113.11 135.70 108.68 133.09 C 100.85 128.50 100.85 128.50 103.68 127.38 C 107.84 125.73 116.28 124.89 117.96 125.96 C 119.96 127.22 120.43 138.90 118.77 145.92 C 117.43 151.59 116.49 152.59 114.00 151.02 Z "/>
</g>
</svg>