<?xml version="1.0" encoding="UTF-8" standalone="no"?>
<!DOCTYPE svg PUBLIC "-//W3C//DTD SVG 1.1//EN" "http://www.w3.org/Graphics/SVG/1.1/DTD/svg11.dtd" >
<svg xmlns="http://www.w3.org/2000/svg" xmlns:xlink="http://www.w3.org/1999/xlink" version="1.1" viewBox="0 0 256 256">
 <g >
 <path fill="currentColor"
d=" M 178.57 202.33 C 200.02 200.72 202.79 200.71 218.07 202.21 C 227.11 203.09 234.60 203.72 234.72 203.61 C 235.04 203.30 218.38 132.04 217.86 131.53 C 217.61 131.28 212.03 130.58 205.46 129.96 C 191.08 128.62 190.00 127.86 190.00 119.11 C 190.00 109.20 190.38 109.00 208.90 109.00 C 222.12 109.00 225.64 109.33 230.55 111.02 C 233.77 112.12 236.70 112.91 237.07 112.77 C 237.78 112.48 227.37 84.03 226.04 82.66 C 225.59 82.21 223.49 82.92 221.36 84.26 C 217.91 86.43 216.03 86.75 203.74 87.26 C 187.56 87.93 188.49 88.59 187.74 76.00 C 187.26 67.95 187.39 67.22 190.22 62.19 C 191.87 59.27 193.05 56.76 192.86 56.61 C 191.92 55.90 156.74 49.92 156.27 50.39 C 155.97 50.69 156.74 53.64 157.98 56.94 C 160.17 62.80 160.22 63.78 159.85 94.29 C 159.39 133.42 160.08 131.50 146.64 130.75 C 141.61 130.47 136.85 130.07 136.05 129.87 C 134.90 129.58 133.27 135.55 128.36 158.00 C 124.94 173.68 121.98 187.18 121.79 188.00 C 121.60 188.82 120.17 177.57 118.61 163.00 C 113.00 110.47 115.47 116.67 99.64 115.30 C 92.01 114.64 85.60 113.93 85.38 113.71 C 84.66 112.99 94.05 92.53 96.00 90.57 C 98.37 88.18 107.02 88.17 116.17 90.54 C 119.50 91.41 122.43 91.90 122.69 91.64 C 123.10 91.23 114.28 62.02 113.50 61.18 C 113.33 61.01 110.92 62.02 108.13 63.43 C 103.57 65.74 101.94 66.00 91.78 65.98 C 85.58 65.97 72.26 66.51 62.20 67.17 C 47.66 68.13 42.65 68.12 37.84 67.13 C 34.51 66.44 31.66 66.02 31.49 66.19 C 31.25 66.45 41.89 96.88 42.55 97.80 C 42.66 97.96 45.63 96.53 49.13 94.63 C 55.20 91.32 57.68 90.64 62.75 90.89 C 65.80 91.04 65.60 92.53 61.45 100.82 C 55.81 112.11 45.68 120.41 27.19 128.90 C 21.88 131.34 21.88 131.34 17.60 129.26 C 12.48 126.77 10.14 127.53 12.03 131.06 C 13.06 132.98 29.72 159.69 30.63 160.88 C 30.79 161.08 34.87 158.42 39.70 154.97 C 49.45 148.00 52.00 146.86 52.00 149.47 C 52.00 150.40 50.41 160.65 48.46 172.25 C 45.67 188.84 45.19 193.50 46.18 194.11 C 46.88 194.54 50.61 195.43 54.47 196.09 C 59.99 197.02 64.86 197.00 77.16 195.98 C 91.68 194.78 106.64 195.03 116.25 196.64 C 119.32 197.15 120.00 197.68 120.00 199.57 C 120.00 201.53 120.64 201.96 124.25 202.44 C 138.46 204.31 152.45 204.29 178.57 202.33 Z  M 161.50 177.05 C 157.51 175.42 155.50 172.04 155.50 166.97 C 155.50 157.70 162.21 153.15 176.00 153.06 C 185.07 153.00 190.46 154.37 193.63 157.54 C 195.59 159.50 196.00 160.93 196.00 165.87 C 196.00 173.31 195.47 174.71 191.93 176.54 C 188.80 178.16 165.17 178.56 161.50 177.05 Z  M 77.86 168.86 C 75.89 166.89 75.77 165.98 76.26 157.09 C 77.13 141.22 80.63 136.73 89.29 140.35 C 94.10 142.36 95.41 146.68 94.74 158.36 C 94.30 166.14 93.92 167.65 92.00 169.20 C 88.73 171.85 80.66 171.66 77.86 168.86 Z "/>
</g>
</svg>