<?xml version="1.0" encoding="UTF-8" standalone="no"?>
<!DOCTYPE svg PUBLIC "-//W3C//DTD SVG 1.1//EN" "http://www.w3.org/Graphics/SVG/1.1/DTD/svg11.dtd" >
<svg xmlns="http://www.w3.org/2000/svg" xmlns:xlink="http://www.w3.org/1999/xlink" version="1.1" viewBox="0 0 256 256">
 <g >
 <path fill="currentColor"
d=" M 37.95 202.23 C 50.84 194.04 59.07 184.91 67.46 169.51 C 72.55 160.18 74.85 158.10 80.95 157.28 C 87.82 156.36 89.60 159.20 91.09 173.43 C 92.63 188.18 91.02 191.10 81.21 191.39 C 77.72 191.49 77.36 191.21 75.17 186.62 C 73.00 182.08 72.72 181.85 71.19 183.38 C 70.00 184.57 69.53 186.84 69.52 191.44 C 69.50 198.80 71.41 202.32 77.07 205.31 C 80.63 207.19 83.19 207.20 104.11 205.41 C 109.14 204.98 112.99 205.17 115.46 205.99 C 117.77 206.75 119.54 206.86 120.12 206.28 C 120.90 205.50 112.98 146.47 111.54 142.34 C 111.05 140.93 98.95 139.61 86.00 139.55 C 76.50 139.50 76.50 139.50 76.50 135.54 C 76.50 131.83 76.72 131.53 80.00 130.78 C 84.76 129.70 117.45 131.89 122.36 133.63 C 124.53 134.39 126.52 134.82 126.76 134.57 C 127.01 134.32 126.20 128.66 124.96 121.98 C 122.83 110.57 122.57 109.89 120.60 110.49 C 116.19 111.83 110.05 112.05 97.50 111.29 C 84.50 110.50 84.50 110.50 81.76 104.75 C 80.25 101.59 78.45 98.99 77.76 98.98 C 77.07 98.97 71.44 100.19 65.25 101.69 C 53.93 104.43 50.82 106.57 57.25 107.19 C 59.91 107.44 60.55 107.97 60.80 110.11 C 61.07 112.43 60.68 112.79 57.30 113.37 C 48.17 114.92 32.12 115.29 29.03 114.01 C 27.33 113.31 25.78 112.90 25.60 113.12 C 25.31 113.44 30.98 133.72 32.51 137.85 C 32.91 138.91 33.68 138.80 36.26 137.29 C 40.43 134.84 48.03 132.73 51.10 133.16 C 57.79 134.11 50.39 156.93 40.21 166.75 C 37.50 169.36 32.78 173.00 29.71 174.84 C 24.18 178.13 24.06 178.16 18.53 176.92 C 15.04 176.14 12.58 176.02 11.99 176.61 C 11.16 177.44 16.03 187.14 25.63 203.76 C 28.42 208.58 27.87 208.64 37.95 202.23 Z  M 193.42 197.43 C 202.17 185.83 202.39 184.12 194.90 186.00 C 190.65 187.07 190.10 186.92 179.00 181.65 C 158.45 171.91 161.36 171.85 153.40 182.24 C 144.71 193.60 144.59 193.80 146.00 195.50 C 146.98 196.68 147.82 196.58 151.47 194.80 C 155.77 192.71 155.77 192.71 167.14 198.27 C 173.39 201.32 179.85 204.73 181.50 205.84 C 183.15 206.95 184.72 207.87 185.00 207.89 C 185.28 207.91 189.06 203.20 193.42 197.43 Z  M 191.00 168.02 C 195.12 164.53 198.50 160.95 198.50 160.08 C 198.50 158.92 197.18 158.37 193.50 158.00 C 189.74 157.62 186.34 156.17 179.81 152.15 C 175.03 149.21 170.90 146.74 170.64 146.65 C 169.61 146.33 153.02 160.57 153.01 161.78 C 153.00 163.68 155.29 164.22 158.39 163.04 C 160.79 162.13 161.81 162.48 166.81 165.90 C 169.94 168.04 174.30 171.37 176.50 173.30 C 179.78 176.18 180.77 176.60 182.00 175.60 C 182.82 174.93 186.88 171.52 191.00 168.02 Z  M 142.85 160.36 C 154.34 152.87 161.00 147.07 168.18 138.28 C 175.32 129.54 175.66 129.53 187.33 137.85 C 198.26 145.65 202.31 150.29 201.48 154.07 C 200.84 157.00 200.84 157.00 220.30 157.00 C 236.34 157.00 239.97 156.74 241.00 155.51 C 243.81 152.11 237.56 146.69 208.00 126.85 C 197.28 119.66 187.91 113.21 187.19 112.54 C 186.11 111.53 186.33 110.77 188.36 108.35 C 190.85 105.39 190.85 105.39 178.13 101.20 C 171.14 98.89 164.88 97.00 164.21 97.00 C 163.44 97.00 163.00 98.64 163.00 101.47 C 163.00 111.91 150.42 126.92 134.88 135.00 C 127.00 139.10 126.79 139.15 121.85 137.97 C 118.60 137.18 116.50 137.10 115.86 137.74 C 115.23 138.37 118.13 143.50 124.12 152.36 C 129.20 159.86 133.54 166.00 133.77 166.00 C 134.00 166.00 138.09 163.46 142.85 160.36 Z  M 99.00 95.84 C 107.53 94.65 114.64 93.57 114.82 93.44 C 115.00 93.30 114.18 91.31 113.00 89.00 C 109.45 82.05 109.93 81.81 126.42 82.18 C 134.35 82.35 141.13 82.79 141.48 83.14 C 141.83 83.49 141.42 85.46 140.56 87.51 C 139.70 89.57 139.00 91.55 139.00 91.92 C 139.00 92.72 171.85 96.49 172.56 95.77 C 172.82 95.51 172.54 92.93 171.92 90.05 C 171.11 86.26 171.10 84.50 171.88 83.72 C 174.19 81.41 201.07 83.13 209.91 86.16 C 212.89 87.17 215.46 87.87 215.62 87.71 C 215.88 87.45 209.24 65.66 207.60 61.40 C 207.06 60.00 206.53 60.08 203.24 62.03 C 199.32 64.36 191.59 64.80 179.28 63.38 C 172.76 62.63 171.46 60.22 175.38 56.13 C 177.94 53.45 177.94 53.45 164.72 51.13 C 157.45 49.85 150.20 48.55 148.61 48.25 C 145.73 47.70 145.73 47.70 146.44 52.45 C 146.89 55.44 146.72 58.27 145.98 60.04 C 144.81 62.87 144.81 62.87 127.15 63.19 C 117.44 63.37 108.49 63.18 107.25 62.78 C 104.73 61.96 104.23 58.15 106.03 53.43 C 106.59 51.94 106.84 50.51 106.58 50.25 C 105.85 49.52 75.00 52.25 75.00 53.05 C 75.00 53.44 75.70 54.34 76.57 55.05 C 79.15 57.20 81.30 62.10 80.17 63.23 C 77.54 65.86 50.12 67.95 43.15 66.05 C 40.76 65.40 38.62 65.04 38.41 65.25 C 37.94 65.72 45.97 90.18 46.95 91.28 C 47.34 91.70 49.64 90.95 52.08 89.60 C 57.02 86.86 69.61 84.67 77.50 85.18 C 82.49 85.50 82.50 85.51 82.47 89.00 C 82.46 90.92 82.12 93.74 81.71 95.25 C 80.80 98.59 79.56 98.55 99.00 95.84 Z "/>
</g>
</svg>