<?xml version="1.0" encoding="UTF-8" standalone="no"?>
<!DOCTYPE svg PUBLIC "-//W3C//DTD SVG 1.1//EN" "http://www.w3.org/Graphics/SVG/1.1/DTD/svg11.dtd" >
<svg xmlns="http://www.w3.org/2000/svg" xmlns:xlink="http://www.w3.org/1999/xlink" version="1.1" viewBox="0 0 256 256">
 <g >
 <path fill="currentColor"
d=" M 49.26 196.08 C 70.66 192.92 81.33 187.51 89.72 175.53 C 91.79 172.56 91.79 172.56 92.51 179.27 C 92.91 182.96 92.93 188.00 92.56 190.48 C 92.03 193.97 92.18 194.88 93.19 194.55 C 93.91 194.31 99.00 192.74 104.50 191.06 C 118.45 186.80 117.83 187.44 115.74 179.29 C 113.18 169.31 107.79 157.01 106.00 157.07 C 105.17 157.10 101.13 158.33 97.01 159.81 C 91.13 161.92 89.23 163.10 88.18 165.31 C 86.84 168.12 82.64 170.51 80.92 169.45 C 79.68 168.69 79.74 155.35 80.99 153.01 C 83.12 149.04 94.16 148.12 108.90 150.69 C 112.30 151.28 112.30 151.28 111.65 146.89 C 111.06 142.98 111.44 143.48 115.10 151.50 C 117.36 156.45 119.35 160.65 119.52 160.83 C 119.69 161.01 120.96 160.42 122.35 159.51 C 130.08 154.44 149.70 152.54 192.01 152.78 C 221.51 152.94 226.42 153.19 233.01 154.89 C 237.13 155.96 241.29 157.14 242.26 157.52 C 243.70 158.10 243.18 155.82 239.35 144.86 C 236.78 137.51 234.54 131.34 234.39 131.13 C 234.23 130.93 231.74 131.95 228.86 133.38 C 219.87 137.86 210.32 136.47 213.67 131.17 C 215.31 128.57 220.03 127.85 224.85 129.48 C 228.06 130.56 229.07 130.63 228.73 129.72 C 228.48 129.05 227.04 124.22 225.52 119.00 C 224.01 113.78 222.43 109.13 222.02 108.68 C 221.60 108.23 219.52 108.79 217.39 109.93 C 214.05 111.72 211.77 112.00 200.39 112.00 C 189.74 112.00 187.00 111.71 185.96 110.45 C 184.89 109.17 184.97 108.61 186.37 107.20 C 189.10 104.48 203.17 104.89 208.85 107.86 C 211.24 109.12 213.37 109.97 213.58 109.75 C 213.93 109.41 209.62 90.32 208.49 87.18 C 208.12 86.18 207.26 86.39 204.95 88.04 C 202.32 89.91 200.85 90.16 194.51 89.84 C 186.44 89.43 185.02 88.77 186.65 86.20 C 187.58 84.73 189.66 84.50 202.11 84.50 C 214.60 84.51 217.40 84.82 223.31 86.86 C 227.06 88.15 230.29 89.04 230.49 88.84 C 230.95 88.38 223.04 63.77 222.11 62.77 C 221.74 62.36 219.79 63.20 217.78 64.63 C 215.06 66.56 212.83 67.25 209.05 67.31 C 202.86 67.40 201.45 66.29 203.11 62.65 C 204.00 60.71 205.06 60.00 207.09 60.00 C 209.02 60.00 210.07 59.37 210.52 57.92 C 210.89 56.78 211.03 55.73 210.84 55.57 C 210.40 55.22 178.75 47.96 177.75 47.98 C 177.34 47.99 176.99 50.36 176.98 53.25 C 176.95 59.70 173.90 67.00 171.24 67.00 C 168.69 67.00 164.98 62.80 160.41 54.75 C 158.30 51.04 156.28 48.00 155.91 48.00 C 155.07 48.00 129.64 57.12 129.09 57.62 C 128.86 57.82 129.19 59.12 129.82 60.50 C 130.66 62.35 131.73 63.00 133.91 63.00 C 136.02 63.00 137.05 63.59 137.52 65.08 C 138.42 67.91 137.80 68.30 131.22 69.05 C 126.94 69.53 124.13 69.22 120.09 67.84 C 117.11 66.83 114.52 66.15 114.34 66.33 C 114.01 66.65 124.72 91.05 125.54 91.88 C 125.77 92.10 126.65 91.71 127.50 91.00 C 128.35 90.29 129.22 89.89 129.44 90.11 C 129.65 90.32 131.70 95.22 134.00 101.00 C 136.30 106.78 138.31 111.63 138.46 111.79 C 138.62 111.95 140.27 111.20 142.12 110.12 C 150.41 105.31 158.51 105.41 157.81 110.32 C 157.53 112.29 156.72 112.56 149.50 113.16 C 124.53 115.22 119.58 115.29 115.63 113.63 C 113.50 112.73 111.36 112.00 110.88 112.00 C 110.40 112.00 112.57 117.14 115.70 123.43 C 120.59 133.24 121.64 134.73 123.13 133.93 C 125.80 132.50 130.00 132.83 130.64 134.51 C 132.36 138.98 124.88 140.25 115.05 137.17 C 109.60 135.46 109.60 135.46 105.70 110.48 C 103.56 96.74 101.43 85.11 100.98 84.63 C 100.53 84.15 95.51 83.47 89.83 83.13 C 79.50 82.50 79.50 82.50 79.21 73.33 C 78.93 64.28 78.97 64.10 82.10 60.54 C 83.84 58.56 85.09 56.78 84.88 56.59 C 84.19 55.97 53.83 49.83 53.44 50.23 C 53.22 50.44 53.94 52.96 55.02 55.82 C 56.55 59.84 57.00 63.46 56.98 71.76 C 56.98 77.67 56.58 83.12 56.10 83.87 C 55.44 84.91 53.03 85.15 45.95 84.87 C 36.67 84.50 36.67 84.50 29.88 116.91 C 26.14 134.73 23.30 149.68 23.58 150.12 C 24.64 151.84 31.94 152.99 41.82 152.99 C 55.85 153.00 56.27 153.28 55.50 162.31 C 54.60 172.87 54.33 173.62 50.96 175.02 C 46.45 176.88 26.18 175.77 18.73 173.25 C 13.65 171.53 13.01 171.49 13.42 172.90 C 13.67 173.78 15.28 179.90 17.00 186.50 C 22.36 207.13 21.08 205.50 28.82 201.53 C 34.29 198.73 38.00 197.74 49.26 196.08 Z  M 183.50 203.85 C 197.12 202.95 205.26 202.94 216.95 203.80 C 225.45 204.42 232.53 204.81 232.68 204.65 C 233.10 204.23 218.87 161.64 217.98 160.66 C 217.56 160.20 212.78 159.14 207.36 158.31 C 198.39 156.93 195.67 156.95 177.11 158.54 C 158.32 160.15 139.17 160.16 135.00 158.56 C 133.83 158.11 131.78 162.38 125.77 177.74 C 121.51 188.61 117.76 198.27 117.42 199.21 C 116.72 201.19 118.03 201.62 130.37 203.54 C 141.06 205.20 161.23 205.32 183.50 203.85 Z  M 151.22 136.75 C 147.69 132.46 151.36 126.52 156.00 129.00 C 158.26 130.21 158.73 134.87 156.80 136.80 C 155.24 138.36 152.52 138.33 151.22 136.75 Z  M 187.17 135.40 C 182.42 132.08 186.14 125.61 191.69 127.56 C 195.06 128.74 195.73 131.24 193.56 134.55 C 191.68 137.41 190.30 137.60 187.17 135.40 Z  M 50.87 129.35 C 47.49 125.26 50.84 107.99 55.17 107.19 C 56.51 106.95 56.98 108.01 57.55 112.54 C 59.18 125.63 55.49 134.92 50.87 129.35 Z  M 81.24 128.84 C 79.47 127.07 79.55 108.99 81.35 106.54 C 82.65 104.76 82.77 104.77 84.78 106.78 C 87.20 109.20 88.26 115.05 87.82 123.50 C 87.52 129.06 87.32 129.52 84.99 129.79 C 83.61 129.95 81.93 129.53 81.24 128.84 Z  M 133.66 91.45 C 132.10 90.57 131.06 89.60 131.36 89.31 C 132.51 88.15 144.83 86.07 150.69 86.04 C 157.52 86.00 159.24 87.22 156.37 90.06 C 153.64 92.76 137.70 93.74 133.66 91.45 Z  M 156.35 182.51 C 153.55 180.47 155.13 177.60 159.51 176.79 C 166.10 175.57 192.90 177.04 194.57 178.71 C 198.40 182.55 195.54 183.25 175.21 183.47 C 163.51 183.60 157.41 183.29 156.35 182.51 Z "/>
</g>
</svg>