<?xml version="1.0" encoding="UTF-8" standalone="no"?>
<!DOCTYPE svg PUBLIC "-//W3C//DTD SVG 1.1//EN" "http://www.w3.org/Graphics/SVG/1.1/DTD/svg11.dtd" >
<svg xmlns="http://www.w3.org/2000/svg" xmlns:xlink="http://www.w3.org/1999/xlink" version="1.1" viewBox="0 0 256 256">
 <g >
 <path fill="currentColor"
d=" M 86.00 208.46 C 86.00 208.16 85.10 206.16 84.00 204.00 C 82.20 200.47 82.00 198.11 82.00 180.04 C 82.00 160.00 82.00 160.00 84.75 160.00 C 91.15 160.01 97.47 167.24 96.78 173.76 C 96.60 175.50 97.03 176.54 98.00 176.74 C 99.05 176.96 101.57 172.92 106.28 163.47 C 110.00 156.00 112.83 149.53 112.56 149.10 C 112.29 148.67 108.46 147.23 104.04 145.91 C 99.62 144.58 96.01 143.28 96.01 143.00 C 96.01 142.72 97.83 141.46 100.05 140.20 C 103.33 138.32 104.92 138.02 108.54 138.56 C 112.47 139.15 113.00 139.00 112.98 137.36 C 112.96 135.72 99.92 120.00 97.91 119.19 C 97.48 119.02 93.84 121.65 89.82 125.03 C 79.14 134.01 78.20 134.04 85.37 125.16 C 88.89 120.81 94.37 112.87 97.56 107.53 C 103.36 97.81 103.36 97.81 100.93 93.35 C 96.94 86.00 96.87 85.97 82.13 85.93 C 74.89 85.91 61.48 86.44 52.34 87.10 C 39.08 88.06 34.73 88.05 30.80 87.05 C 28.10 86.35 25.74 85.95 25.56 86.14 C 25.27 86.46 33.48 108.98 36.00 114.80 C 37.00 117.09 37.00 117.09 40.75 114.13 C 43.25 112.16 47.61 110.35 53.82 108.73 C 62.65 106.41 63.24 106.37 65.24 107.99 C 67.35 109.70 67.35 109.70 65.23 112.68 C 60.27 119.65 49.33 128.56 39.47 133.66 C 24.75 141.27 22.39 141.80 15.50 139.00 C 11.93 137.55 9.53 137.07 8.93 137.67 C 8.32 138.28 11.31 144.26 17.13 154.06 C 22.16 162.55 26.42 169.66 26.59 169.86 C 26.75 170.06 32.59 167.25 39.55 163.61 C 46.52 159.97 52.79 157.00 53.50 157.00 C 55.75 157.00 55.98 159.67 55.37 178.79 C 54.85 194.98 54.46 198.27 52.50 203.25 C 50.23 209.00 50.23 209.00 68.12 209.00 C 77.95 209.00 86.00 208.76 86.00 208.46 Z  M 141.00 203.75 C 171.88 192.97 189.68 177.15 198.58 152.58 C 200.98 145.93 202.99 143.91 205.28 145.82 C 206.38 146.73 206.91 150.97 207.45 163.35 C 208.43 185.77 207.01 189.00 196.14 189.00 C 190.83 189.00 188.56 187.61 186.94 183.34 C 184.92 178.04 181.00 182.97 181.00 190.80 C 181.00 195.35 181.43 196.58 183.84 199.00 C 188.36 203.52 193.51 204.50 212.64 204.50 C 227.98 204.50 230.00 204.70 231.85 206.37 C 234.22 208.51 237.01 207.92 236.98 205.28 C 236.96 202.12 228.15 127.82 227.76 127.43 C 227.55 127.22 220.88 126.53 212.94 125.91 C 202.72 125.10 193.38 125.06 181.00 125.76 C 171.38 126.30 163.16 126.55 162.75 126.31 C 161.29 125.47 164.10 122.00 167.74 120.13 C 171.42 118.24 171.42 118.24 165.57 115.28 C 159.71 112.33 159.71 112.33 179.92 111.65 C 192.73 111.22 203.43 111.38 209.15 112.07 C 214.11 112.67 218.33 113.00 218.54 112.79 C 218.86 112.47 207.86 62.59 206.43 57.85 C 205.38 54.39 187.37 53.09 166.50 54.97 C 157.36 55.79 148.39 55.29 139.43 53.45 C 136.36 52.82 136.36 52.82 129.18 80.78 C 125.23 96.16 122.00 109.20 122.00 109.75 C 122.00 110.31 127.25 111.35 133.66 112.06 C 145.33 113.36 145.33 113.36 140.41 117.66 C 137.71 120.03 132.51 123.15 128.85 124.60 C 122.25 127.22 122.16 127.22 117.63 125.50 C 109.18 122.27 109.06 123.51 116.48 137.73 C 120.14 144.73 123.28 150.61 123.46 150.80 C 123.65 150.98 126.53 149.75 129.87 148.07 C 136.99 144.47 143.00 143.94 143.00 146.89 C 143.00 150.02 137.87 154.53 131.71 156.84 C 124.82 159.41 124.30 159.44 119.58 157.47 C 115.90 155.93 114.00 156.18 114.00 158.20 C 114.00 159.14 120.14 167.54 127.31 176.40 C 129.66 179.31 129.66 179.31 141.06 173.40 C 153.85 166.78 162.21 159.46 166.39 151.22 C 169.48 145.11 171.28 143.60 174.49 144.41 C 177.67 145.21 177.70 147.35 174.64 154.29 C 168.75 167.59 152.40 178.51 130.85 183.53 C 123.26 185.30 123.18 185.30 119.60 183.19 C 116.11 181.14 113.00 181.15 113.00 183.22 C 113.00 183.77 116.26 189.55 120.25 196.07 C 128.51 209.57 126.47 208.82 141.00 203.75 Z  M 75.62 78.02 C 86.59 72.93 88.50 71.70 88.50 69.77 C 88.50 67.95 87.82 67.40 85.09 67.00 C 82.08 66.56 81.07 65.53 76.53 58.24 C 73.70 53.70 70.91 49.51 70.33 48.93 C 69.59 48.19 65.56 49.42 56.89 53.04 C 50.07 55.88 44.35 58.34 44.17 58.52 C 43.99 58.69 44.32 59.73 44.91 60.82 C 45.57 62.07 47.49 63.08 50.03 63.50 C 54.77 64.31 56.00 65.89 58.97 75.00 C 61.94 84.13 61.89 84.00 62.34 84.00 C 62.56 84.00 68.54 81.31 75.62 78.02 Z  M 153.60 95.70 C 150.01 93.07 153.98 92.15 170.22 91.82 C 183.75 91.54 186.13 91.73 187.57 93.15 C 190.85 96.41 188.42 97.00 171.63 97.00 C 159.86 97.00 154.89 96.64 153.60 95.70 Z  M 163.76 76.32 C 157.33 75.98 155.85 75.58 154.97 73.94 C 153.45 71.11 154.76 70.85 171.08 70.66 C 183.50 70.52 185.39 70.71 186.35 72.22 C 187.14 73.45 187.15 74.25 186.38 75.02 C 185.12 76.28 174.65 76.88 163.76 76.32 Z "/>
</g>
</svg>