<?xml version="1.0" encoding="UTF-8" standalone="no"?>
<!DOCTYPE svg PUBLIC "-//W3C//DTD SVG 1.1//EN" "http://www.w3.org/Graphics/SVG/1.1/DTD/svg11.dtd" >
<svg xmlns="http://www.w3.org/2000/svg" xmlns:xlink="http://www.w3.org/1999/xlink" version="1.1" viewBox="0 0 256 256">
 <g >
 <path fill="currentColor"
d=" M 59.50 204.44 C 74.71 197.12 89.77 182.24 97.13 167.25 C 100.25 160.87 101.75 158.85 103.72 158.36 C 105.11 158.01 112.84 157.96 120.88 158.26 C 132.61 158.69 136.44 159.21 140.25 160.87 C 142.86 162.00 145.00 162.65 145.00 162.31 C 145.00 161.30 136.84 130.53 136.47 130.15 C 136.28 129.96 134.58 130.98 132.68 132.43 C 128.90 135.32 121.25 136.98 111.77 136.99 C 106.75 137.00 105.84 136.69 104.39 134.48 C 102.41 131.44 103.00 124.56 105.47 122.11 C 108.05 119.54 120.25 120.28 127.03 123.42 C 129.99 124.79 132.59 125.74 132.80 125.53 C 133.15 125.18 125.18 98.90 124.50 98.18 C 124.33 98.00 122.37 98.79 120.14 99.93 C 115.58 102.25 106.17 102.77 104.20 100.80 C 102.61 99.21 102.65 90.34 104.25 89.33 C 104.94 88.89 110.10 88.60 115.73 88.69 C 124.35 88.81 126.84 89.24 131.48 91.36 C 134.52 92.75 137.00 93.58 137.00 93.20 C 137.00 92.37 127.86 64.66 127.42 64.14 C 127.25 63.94 125.65 64.83 123.85 66.11 C 119.98 68.86 108.98 70.06 106.49 67.99 C 104.55 66.38 104.59 61.70 106.57 57.86 C 107.44 56.18 108.00 54.71 107.82 54.58 C 107.42 54.29 74.97 49.99 73.23 50.00 C 72.38 50.00 72.83 51.71 74.59 55.18 C 77.32 60.57 77.52 66.88 75.03 69.37 C 74.36 70.05 68.92 70.63 61.42 70.83 C 50.85 71.11 48.00 70.85 42.80 69.09 C 39.42 67.95 36.51 67.16 36.34 67.33 C 36.09 67.58 43.16 89.56 45.48 95.78 C 45.86 96.79 46.68 96.70 49.23 95.38 C 53.41 93.22 65.37 91.16 70.27 91.76 C 76.08 92.47 77.75 98.11 73.43 102.43 C 71.20 104.66 55.16 104.61 49.26 102.36 C 46.89 101.45 44.77 100.90 44.53 101.13 C 44.19 101.48 50.72 124.22 52.48 128.80 C 52.84 129.75 53.97 129.42 56.72 127.55 C 59.75 125.48 61.66 125.00 66.76 125.00 C 72.70 125.00 73.11 125.15 74.11 127.75 C 75.54 131.44 74.14 135.17 70.69 136.82 C 69.17 137.55 63.06 138.40 57.11 138.71 C 47.78 139.21 45.30 138.98 39.06 137.09 C 35.08 135.88 31.46 135.03 31.02 135.20 C 30.39 135.43 36.77 158.46 39.53 165.90 C 39.94 167.00 40.52 166.86 42.28 165.22 C 43.50 164.07 45.84 162.62 47.49 162.00 C 51.75 160.39 67.00 159.42 67.00 160.77 C 67.00 163.74 52.73 173.79 40.67 179.30 C 34.84 181.96 34.84 181.96 30.85 179.92 C 26.29 177.60 22.67 177.71 22.20 180.18 C 22.02 181.11 26.41 188.64 31.95 196.92 C 43.43 214.09 40.88 213.39 59.50 204.44 Z  M 180.75 205.75 C 177.32 196.45 176.95 193.84 177.22 180.68 C 177.50 167.05 177.50 167.05 185.00 171.53 C 197.47 178.96 206.98 182.20 218.06 182.76 C 229.76 183.36 233.18 182.01 236.06 175.68 C 239.76 167.52 238.04 148.93 232.57 138.14 C 229.94 132.95 222.16 125.29 212.81 118.71 C 209.62 116.45 207.00 114.31 207.00 113.94 C 207.00 113.57 208.40 111.53 210.10 109.39 C 217.23 100.46 225.00 80.91 225.00 71.91 C 225.00 64.64 221.53 58.84 215.78 56.49 C 209.40 53.88 190.53 53.38 174.90 55.41 C 167.97 56.32 161.67 56.85 160.90 56.61 C 160.13 56.37 157.01 55.91 153.96 55.60 C 148.42 55.03 148.42 55.03 148.77 76.77 C 148.96 88.72 148.73 120.33 148.25 147.00 C 147.41 193.78 147.30 195.67 145.19 200.38 C 143.99 203.06 143.00 205.65 143.00 206.13 C 143.00 206.61 151.60 207.00 162.11 207.00 C 176.97 207.00 181.11 206.72 180.75 205.75 Z  M 188.00 155.53 C 176.67 152.28 176.50 152.00 176.50 136.52 C 176.50 124.55 176.94 124.22 186.52 128.93 C 193.76 132.50 202.24 141.05 205.24 147.81 C 207.01 151.80 207.03 152.31 205.55 154.56 C 204.15 156.70 203.24 156.99 198.23 156.91 C 195.08 156.86 190.47 156.24 188.00 155.53 Z  M 176.00 94.78 C 176.00 78.74 176.44 78.00 186.08 78.00 C 192.40 78.00 193.14 78.21 194.11 80.33 C 197.11 86.93 188.90 99.62 177.25 106.39 C 176.28 106.96 176.00 104.37 176.00 94.78 Z "/>
</g>
</svg>