<?xml version="1.0" encoding="UTF-8" standalone="no"?>
<!DOCTYPE svg PUBLIC "-//W3C//DTD SVG 1.1//EN" "http://www.w3.org/Graphics/SVG/1.1/DTD/svg11.dtd" >
<svg xmlns="http://www.w3.org/2000/svg" xmlns:xlink="http://www.w3.org/1999/xlink" version="1.1" viewBox="0 0 252 256">
 <g >
 <path fill="currentColor"
d=" M 32.68 220.75 C 47.59 206.68 58.23 183.77 62.98 155.50 C 64.67 145.50 64.67 145.50 73.08 144.26 C 88.12 142.05 88.00 142.08 88.00 139.88 C 88.00 138.76 86.67 136.51 85.03 134.88 C 82.24 132.09 81.91 132.00 79.28 133.32 C 77.75 134.10 74.78 135.04 72.68 135.42 C 70.58 135.81 68.21 136.36 67.43 136.67 C 66.24 137.12 66.00 135.34 66.00 126.25 C 66.00 120.23 66.29 112.53 66.64 109.15 C 67.28 103.00 67.28 103.00 71.39 102.90 C 77.30 102.76 86.50 100.68 86.50 99.48 C 86.50 98.91 85.29 96.90 83.80 95.01 C 80.85 91.24 81.84 91.25 69.63 94.76 C 67.84 95.27 67.78 94.44 68.13 75.20 C 68.50 55.10 68.50 55.10 70.73 56.56 C 73.59 58.44 76.17 58.50 83.24 56.90 C 87.35 55.96 89.30 55.90 90.07 56.67 C 91.64 58.24 92.74 195.43 91.18 196.39 C 90.56 196.77 86.39 196.39 81.91 195.54 C 72.23 193.71 69.00 193.60 69.00 195.13 C 69.00 195.76 72.10 199.53 75.88 203.51 C 81.01 208.91 83.31 212.26 84.89 216.63 C 88.54 226.73 89.72 227.57 95.37 224.08 C 98.93 221.88 105.00 211.81 105.00 208.11 C 105.00 206.88 105.64 206.00 106.53 206.00 C 107.37 206.00 111.64 202.48 116.01 198.17 C 122.85 191.43 124.66 188.88 128.93 179.92 C 139.38 157.97 142.50 141.10 145.98 87.51 C 146.91 73.20 146.87 72.42 144.98 70.54 C 143.01 68.56 143.02 68.55 148.75 67.31 C 158.31 65.24 169.98 63.65 170.65 64.31 C 170.99 64.66 170.54 72.27 169.65 81.22 C 166.64 111.21 165.79 127.32 165.64 156.50 C 165.50 184.65 165.57 185.67 167.81 191.22 C 170.63 198.20 176.96 204.12 184.33 206.70 C 192.39 209.51 214.80 209.22 225.60 206.16 C 240.85 201.83 242.81 199.18 238.57 188.59 C 237.13 184.99 235.13 176.61 234.11 169.96 C 233.10 163.31 231.80 157.40 231.22 156.82 C 229.59 155.19 228.14 156.72 227.45 160.79 C 227.11 162.83 225.70 169.33 224.33 175.23 C 221.59 187.03 219.81 189.53 212.28 192.14 C 207.58 193.76 195.87 193.79 190.34 192.18 C 181.08 189.49 180.06 186.65 180.03 163.50 C 180.00 139.59 185.06 87.70 188.54 76.24 C 191.00 68.12 190.65 67.02 183.03 59.18 C 175.63 51.55 174.42 51.08 168.27 53.46 C 163.44 55.33 148.34 58.76 140.15 59.85 C 134.28 60.63 133.58 60.52 131.00 58.35 C 127.66 55.54 125.00 55.31 125.00 57.82 C 125.00 58.83 126.16 62.99 127.58 67.07 C 130.16 74.49 130.16 74.55 129.65 100.00 C 128.83 140.53 124.14 164.50 112.14 189.50 C 107.33 199.50 107.33 199.50 106.65 133.50 C 106.23 92.70 106.33 66.00 106.92 63.57 C 108.05 58.91 106.86 56.06 101.84 51.40 C 93.01 43.21 89.34 41.67 85.35 44.47 C 83.51 45.76 71.98 49.35 65.97 50.51 C 64.81 50.73 61.47 49.74 58.55 48.30 C 52.84 45.51 49.29 45.71 50.47 48.76 C 53.65 57.01 54.31 113.39 51.51 138.16 C 48.34 166.20 42.02 188.53 30.91 210.95 C 27.22 218.40 24.41 224.84 24.66 225.25 C 25.60 226.79 27.27 225.86 32.68 220.75 Z "/>
</g>
</svg>