<?xml version="1.0" encoding="UTF-8" standalone="no"?>
<!DOCTYPE svg PUBLIC "-//W3C//DTD SVG 1.1//EN" "http://www.w3.org/Graphics/SVG/1.1/DTD/svg11.dtd" >
<svg xmlns="http://www.w3.org/2000/svg" xmlns:xlink="http://www.w3.org/1999/xlink" version="1.1" viewBox="0 0 252 256">
 <g >
 <path fill="currentColor"
d=" M 205.81 225.19 C 219.61 221.43 220.22 218.34 209.25 207.89 C 204.99 203.82 199.50 197.66 197.06 194.18 C 192.72 188.01 189.47 185.19 188.19 186.48 C 187.64 187.03 190.69 203.22 192.56 209.66 C 193.56 213.11 184.92 214.49 171.42 213.04 C 152.02 210.95 145.05 206.38 135.44 189.42 C 131.37 182.23 129.56 180.04 126.13 178.14 C 123.80 176.85 121.64 176.02 121.35 176.32 C 121.06 176.61 122.39 180.37 124.31 184.67 C 126.24 188.98 129.26 196.10 131.04 200.50 C 133.62 206.89 135.44 209.63 140.09 214.14 C 146.93 220.77 157.06 225.47 167.67 226.93 C 178.22 228.39 197.29 227.51 205.81 225.19 Z  M 107.76 214.62 C 112.92 206.90 114.32 200.57 113.51 188.65 C 112.33 171.48 109.02 169.88 104.54 184.35 C 103.15 188.83 100.89 194.30 99.53 196.50 C 93.67 205.92 93.63 206.22 97.23 213.51 C 101.18 221.52 103.02 221.71 107.76 214.62 Z  M 54.62 194.80 C 60.05 190.84 70.57 183.64 77.99 178.80 C 91.48 169.99 91.48 169.99 93.26 175.23 C 95.63 182.20 97.04 183.60 99.96 181.84 C 102.79 180.13 106.00 173.92 106.00 170.18 C 106.00 166.83 102.27 161.74 95.96 156.46 C 91.62 152.84 84.98 149.00 83.04 149.00 C 81.08 149.00 82.05 152.50 85.53 157.95 C 87.44 160.95 89.00 163.95 89.00 164.61 C 89.00 165.28 85.62 166.95 81.50 168.34 C 74.00 170.86 74.00 170.86 74.01 163.68 C 74.01 159.73 74.30 152.84 74.65 148.37 C 75.28 140.24 75.28 140.24 84.39 139.58 C 104.64 138.13 106.12 137.48 100.73 132.45 C 96.95 128.93 96.95 128.93 99.84 124.71 C 103.87 118.84 109.00 108.44 109.00 106.14 C 109.00 105.08 106.48 101.69 103.39 98.61 C 97.14 92.36 94.76 91.76 87.00 94.50 C 84.66 95.33 81.01 96.00 78.87 96.00 C 74.30 96.00 74.54 98.29 75.99 68.52 C 76.91 49.71 76.90 49.52 74.71 47.17 C 71.82 44.06 57.28 36.74 56.50 37.99 C 56.18 38.52 56.78 41.78 57.84 45.23 C 61.10 55.80 62.14 65.64 61.81 83.00 C 61.50 99.50 61.50 99.50 57.00 100.12 C 54.52 100.46 49.07 101.32 44.88 102.03 C 37.59 103.26 37.12 103.22 34.22 101.16 C 30.46 98.48 27.00 98.31 27.00 100.80 C 27.00 101.79 27.44 103.04 27.98 103.58 C 30.07 105.67 32.97 116.56 35.07 130.22 C 36.28 138.07 37.77 145.12 38.37 145.89 C 39.82 147.72 47.93 151.16 49.09 150.44 C 49.59 150.13 50.00 148.61 50.00 147.07 C 50.00 144.71 50.51 144.15 53.13 143.62 C 54.84 143.28 57.33 143.00 58.65 143.00 C 61.05 143.00 61.05 143.00 60.77 160.14 C 60.50 177.27 60.50 177.27 49.00 181.66 C 42.67 184.07 33.67 187.00 29.00 188.16 C 24.32 189.33 20.12 190.61 19.67 191.02 C 17.28 193.16 35.22 201.91 42.12 201.97 C 43.81 201.99 48.23 199.46 54.62 194.80 Z  M 165.00 187.12 C 165.00 182.24 165.00 182.24 174.75 174.90 C 180.48 170.58 183.87 167.42 182.97 167.25 C 182.13 167.08 178.08 168.10 173.97 169.52 C 162.77 173.39 162.41 173.43 159.20 171.14 C 157.60 170.00 154.35 168.76 151.99 168.38 C 147.79 167.71 147.71 167.75 148.43 170.10 C 148.83 171.42 149.83 175.16 150.64 178.41 C 151.45 181.67 152.74 185.22 153.50 186.31 C 155.48 189.14 160.12 191.99 162.75 191.99 C 164.78 192.00 165.00 191.52 165.00 187.12 Z  M 228.43 190.43 C 231.75 187.11 230.32 182.57 223.40 174.38 C 217.54 167.46 214.13 166.00 203.85 166.02 C 191.99 166.04 191.56 166.73 199.68 172.79 C 203.43 175.59 209.64 181.05 213.47 184.94 C 219.23 190.77 221.01 192.00 223.65 192.00 C 225.41 192.00 227.56 191.29 228.43 190.43 Z  M 145.50 162.57 C 174.78 153.83 188.33 150.19 189.67 150.70 C 190.40 150.98 192.01 153.42 193.24 156.11 C 194.92 159.77 196.03 161.00 197.66 161.00 C 200.77 161.00 205.00 155.56 205.00 151.54 C 205.00 148.73 204.22 147.65 199.75 144.26 C 194.15 140.02 180.38 133.29 179.37 134.30 C 179.03 134.63 180.43 137.18 182.46 139.95 C 186.75 145.79 187.21 145.37 174.00 147.48 C 159.76 149.75 161.00 150.51 161.00 139.47 C 161.00 132.70 161.36 129.83 162.25 129.57 C 162.94 129.38 167.32 128.79 172.00 128.28 C 180.12 127.39 180.63 127.45 183.33 129.67 C 187.48 133.09 188.85 132.60 191.43 126.75 C 194.55 119.67 199.90 100.98 201.74 90.73 C 202.38 87.14 198.42 81.04 192.83 76.99 C 188.30 73.71 185.11 73.25 181.71 75.40 C 180.50 76.17 175.54 77.11 170.71 77.49 C 161.92 78.19 161.92 78.19 162.21 69.35 C 162.50 60.52 162.50 60.52 175.49 59.01 C 190.18 57.30 191.48 56.33 186.15 51.00 C 182.68 47.52 181.65 47.43 171.52 49.66 C 167.37 50.57 163.67 51.00 163.29 50.62 C 162.91 50.25 163.14 46.79 163.80 42.95 C 165.65 32.17 165.44 30.55 161.79 27.47 C 160.02 25.99 155.75 23.38 152.30 21.68 C 144.01 17.59 143.08 18.51 146.45 27.47 C 148.55 33.04 149.00 35.97 149.00 44.03 C 149.00 53.83 149.00 53.83 141.25 54.49 C 123.17 56.05 117.24 57.79 121.50 60.31 C 126.34 63.16 131.58 64.02 140.25 63.38 C 149.00 62.74 149.00 62.74 149.00 71.72 C 149.00 80.71 149.00 80.71 142.06 81.85 C 131.99 83.52 124.37 83.25 117.10 80.97 C 113.58 79.87 110.49 79.18 110.22 79.45 C 109.96 79.71 110.70 82.31 111.88 85.21 C 114.24 91.04 117.30 107.78 118.95 123.95 C 119.57 130.03 120.54 134.74 121.26 135.23 C 127.38 139.37 132.00 140.17 132.00 137.08 C 132.00 132.46 132.83 132.00 141.11 132.00 C 149.00 132.00 149.00 132.00 149.00 139.81 C 149.00 144.53 148.51 148.25 147.75 149.23 C 146.43 150.93 127.90 153.77 115.00 154.26 C 106.63 154.57 106.61 155.76 114.87 162.77 C 122.65 169.38 122.67 169.38 145.50 162.57 Z  M 47.56 123.82 C 46.56 117.04 45.57 111.05 45.36 110.50 C 45.15 109.95 46.45 109.47 48.24 109.43 C 50.03 109.40 53.87 109.00 56.77 108.55 C 62.05 107.74 62.05 107.74 61.40 120.62 C 61.04 127.70 60.47 133.79 60.12 134.15 C 59.78 134.50 57.22 135.10 54.44 135.47 C 49.37 136.14 49.37 136.14 47.56 123.82 Z  M 75.00 118.72 C 75.00 105.26 75.00 105.26 81.99 104.57 C 90.71 103.71 90.55 103.68 90.26 106.31 C 89.70 111.39 85.58 128.18 84.58 129.45 C 83.99 130.20 81.59 131.12 79.25 131.50 C 75.00 132.18 75.00 132.18 75.00 118.72 Z  M 131.00 121.09 C 131.00 116.53 129.74 102.00 128.61 93.50 C 128.21 90.53 128.27 90.49 132.85 90.48 C 135.41 90.47 140.11 90.08 143.30 89.61 C 149.10 88.76 149.10 88.76 148.80 95.63 C 148.50 102.50 148.50 102.50 141.33 103.00 C 137.39 103.28 133.79 103.88 133.33 104.34 C 132.87 104.80 133.56 106.03 134.86 107.09 C 136.59 108.49 138.80 109.00 143.11 109.00 C 149.00 109.00 149.00 109.00 149.00 116.37 C 149.00 123.74 149.00 123.74 142.75 124.45 C 139.31 124.84 135.26 125.40 133.75 125.70 C 131.03 126.24 131.00 126.19 131.00 121.09 Z  M 162.00 114.75 C 162.50 108.50 162.50 108.50 169.18 107.50 C 172.85 106.95 176.14 106.20 176.50 105.84 C 176.86 105.48 176.43 103.80 175.56 102.11 C 173.67 98.47 170.15 97.31 165.39 98.77 C 162.00 99.81 162.00 99.81 162.00 93.47 C 162.00 89.97 162.41 86.86 162.91 86.55 C 163.41 86.25 168.65 85.70 174.54 85.34 C 185.26 84.68 185.26 84.68 184.75 90.59 C 184.32 95.48 182.35 105.96 179.46 118.77 C 179.02 120.73 178.66 120.89 176.87 119.93 C 175.35 119.12 173.61 119.11 170.45 119.91 C 168.07 120.51 165.08 121.00 163.81 121.00 C 161.59 121.00 161.52 120.76 162.00 114.75 Z "/>
</g>
</svg>