<?xml version="1.0" encoding="UTF-8" standalone="no"?>
<!DOCTYPE svg PUBLIC "-//W3C//DTD SVG 1.1//EN" "http://www.w3.org/Graphics/SVG/1.1/DTD/svg11.dtd" >
<svg xmlns="http://www.w3.org/2000/svg" xmlns:xlink="http://www.w3.org/1999/xlink" version="1.1" viewBox="0 0 256 256">
 <g >
 <path fill="currentColor"
d=" M 68.28 244.64 C 75.18 241.72 75.46 240.79 75.83 220.40 C 76.16 202.00 76.16 202.00 94.63 202.00 C 113.10 202.00 113.10 202.00 115.55 199.35 C 119.20 195.41 118.93 189.96 114.92 186.59 C 111.86 184.01 111.75 184.00 93.92 184.00 C 76.00 184.00 76.00 184.00 75.94 176.75 C 75.84 163.88 72.13 158.50 63.35 158.50 C 59.43 158.50 58.41 158.98 55.42 162.24 C 52.06 165.91 52.00 166.12 52.00 174.99 C 52.00 184.00 52.00 184.00 34.05 184.00 C 23.02 184.00 15.15 184.43 13.66 185.11 C 11.06 186.30 9.00 189.82 9.00 193.10 C 9.00 195.89 11.60 200.63 13.54 201.38 C 14.44 201.72 23.45 202.00 33.58 202.00 C 52.00 202.00 52.00 202.00 52.00 220.07 C 52.00 230.92 52.42 238.92 53.06 240.12 C 54.45 242.71 59.88 245.99 62.78 246.00 C 64.04 246.00 66.51 245.39 68.28 244.64 Z  M 144.25 242.05 C 147.00 238.97 147.00 238.97 147.00 139.41 C 147.00 39.85 147.00 39.85 144.08 36.92 C 141.63 34.47 140.35 34.00 136.15 34.00 C 132.23 34.00 130.49 34.56 128.08 36.59 C 125.00 39.18 125.00 39.18 125.00 138.95 C 125.00 238.73 125.00 238.73 127.14 241.45 C 129.94 245.01 132.62 246.07 137.50 245.55 C 140.38 245.24 142.27 244.26 144.25 242.05 Z  M 165.78 241.10 C 169.02 238.41 175.81 231.77 180.87 226.35 C 190.07 216.50 190.07 216.50 203.78 230.04 C 211.33 237.49 218.97 244.18 220.77 244.92 C 229.89 248.66 243.06 235.06 238.79 226.30 C 238.08 224.84 231.80 219.57 224.79 214.56 C 212.29 205.62 205.00 199.43 205.00 197.76 C 205.00 197.30 206.76 194.57 208.92 191.71 C 214.46 184.34 220.16 173.35 225.39 159.96 C 234.36 136.97 233.52 127.19 222.00 120.87 C 218.78 119.10 163.04 118.27 158.69 119.93 C 153.37 121.95 151.94 130.41 156.14 134.92 C 157.99 136.90 159.09 137.00 179.47 137.00 C 202.12 137.00 202.97 137.17 204.47 141.89 C 205.60 145.47 191.84 183.63 189.85 182.41 C 188.06 181.30 173.28 158.03 170.06 151.26 C 166.41 143.56 164.30 141.97 160.49 144.00 C 155.97 146.43 155.39 149.30 157.94 156.77 C 160.88 165.38 169.80 184.26 175.66 194.27 C 180.21 202.04 180.21 202.04 172.90 211.77 C 168.88 217.12 162.31 225.19 158.29 229.70 C 154.28 234.21 151.00 238.72 151.00 239.73 C 151.00 240.73 151.70 242.56 152.56 243.78 C 155.14 247.47 159.09 246.67 165.78 241.10 Z  M 108.96 153.02 C 113.06 150.83 113.55 142.71 109.79 139.31 C 107.92 137.62 104.81 137.50 62.81 137.50 C 17.82 137.50 17.82 137.50 15.91 139.86 C 13.41 142.95 13.48 148.07 16.07 151.37 C 18.15 154.00 18.15 154.00 62.64 154.00 C 89.75 154.00 107.85 153.62 108.96 153.02 Z  M 87.68 129.05 C 95.96 123.52 105.00 113.85 105.00 110.52 C 105.00 104.16 99.51 99.00 92.74 99.00 C 88.48 99.00 85.58 101.66 82.56 108.34 C 81.28 111.18 78.60 115.75 76.62 118.50 C 72.03 124.83 71.74 129.25 75.75 131.43 C 79.84 133.65 81.21 133.38 87.68 129.05 Z  M 52.60 128.60 C 56.65 124.55 57.16 119.74 53.97 115.69 C 50.74 111.58 33.47 100.00 30.57 100.00 C 27.31 100.00 24.00 103.26 24.00 106.47 C 24.00 109.12 35.77 127.32 39.37 130.23 C 40.55 131.18 43.22 131.97 45.35 131.98 C 48.41 132.00 49.90 131.30 52.60 128.60 Z  M 210.13 108.11 C 221.86 97.37 224.90 88.75 225.72 63.85 C 226.23 48.32 226.13 46.90 224.16 42.84 C 222.85 40.12 220.47 37.45 217.83 35.74 C 213.60 33.00 213.60 33.00 185.97 33.00 C 158.35 33.00 158.35 33.00 156.08 35.42 C 152.76 38.95 152.86 44.31 156.32 47.78 C 159.04 50.50 159.04 50.50 180.24 50.81 C 194.45 51.01 201.90 51.50 202.83 52.28 C 203.93 53.19 204.14 55.83 203.79 64.47 C 203.07 82.63 200.67 84.89 181.18 85.77 C 170.51 86.26 169.77 86.43 168.24 88.76 C 166.80 90.95 166.78 91.53 168.07 93.82 C 169.70 96.71 172.43 97.75 178.78 97.90 C 186.81 98.09 194.00 102.35 194.00 106.93 C 194.00 111.11 196.62 114.00 200.41 114.00 C 203.04 114.00 205.01 112.81 210.13 108.11 Z  M 113.25 92.25 C 116.02 89.15 115.87 83.32 112.96 80.19 C 111.01 78.10 110.14 78.00 93.46 78.00 C 76.00 78.00 76.00 78.00 76.00 68.00 C 76.00 58.00 76.00 58.00 89.03 58.00 C 103.98 58.00 108.16 56.86 109.73 52.35 C 110.94 48.87 109.92 45.75 106.85 43.61 C 105.00 42.31 101.78 42.00 90.39 42.00 C 76.22 42.00 76.22 42.00 75.84 31.00 C 75.48 20.27 75.39 19.93 72.39 16.93 C 66.65 11.19 57.00 12.23 53.52 18.97 C 52.46 21.02 52.00 24.92 52.00 31.95 C 52.00 42.00 52.00 42.00 36.57 42.00 C 21.15 42.00 21.15 42.00 19.07 44.63 C 17.93 46.08 17.00 48.30 17.00 49.55 C 17.00 56.67 20.30 58.00 37.99 58.00 C 52.07 58.00 52.07 58.00 51.79 67.75 C 51.50 77.50 51.50 77.50 33.31 77.77 C 15.11 78.04 15.11 78.04 13.06 80.66 C 10.06 84.47 10.73 90.79 14.40 93.23 C 15.00 93.64 37.14 93.98 63.60 93.98 C 108.15 94.00 111.81 93.87 113.25 92.25 Z "/>
</g>
</svg>