<?xml version="1.0" encoding="UTF-8" standalone="no"?>
<!DOCTYPE svg PUBLIC "-//W3C//DTD SVG 1.1//EN" "http://www.w3.org/Graphics/SVG/1.1/DTD/svg11.dtd" >
<svg xmlns="http://www.w3.org/2000/svg" xmlns:xlink="http://www.w3.org/1999/xlink" version="1.1" viewBox="0 0 256 256">
 <g >
 <path fill="currentColor"
d=" M 49.54 243.97 C 51.35 242.86 53.31 240.54 53.91 238.82 C 54.67 236.65 55.00 203.56 55.00 129.80 C 55.00 37.80 54.80 23.52 53.51 21.01 C 50.05 14.32 42.02 12.83 36.92 17.92 C 34.00 20.85 34.00 20.85 34.00 130.20 C 34.00 229.02 34.15 239.78 35.61 241.85 C 38.69 246.26 44.43 247.13 49.54 243.97 Z  M 171.68 242.75 C 172.80 241.51 176.32 234.88 179.50 228.00 C 195.52 193.33 197.54 181.84 200.81 106.50 C 201.50 90.50 201.50 90.50 206.94 90.65 C 210.94 90.76 212.75 91.29 213.77 92.65 C 214.93 94.19 215.08 102.50 214.65 142.50 C 214.35 170.98 213.70 192.88 213.04 196.35 C 210.82 208.14 206.30 213.00 197.56 213.00 C 190.77 213.00 188.97 221.38 195.07 224.53 C 196.63 225.34 198.63 226.00 199.53 226.00 C 202.40 226.00 207.00 231.54 207.00 234.99 C 207.00 238.84 208.40 241.61 211.06 243.03 C 215.45 245.38 224.03 236.67 228.25 225.59 C 234.18 210.04 236.00 188.16 236.00 132.30 C 236.00 86.11 235.64 81.89 231.33 77.83 C 229.04 75.69 227.76 75.46 215.17 75.00 C 201.50 74.50 201.50 74.50 201.00 49.17 C 200.50 23.83 200.50 23.83 197.23 20.92 C 193.73 17.79 188.66 17.04 184.85 19.08 C 180.62 21.34 180.00 25.44 180.00 50.97 C 180.00 75.00 180.00 75.00 175.15 75.00 C 169.31 75.00 166.60 77.38 166.60 82.50 C 166.60 87.49 169.34 90.00 174.78 90.00 C 179.26 90.00 179.26 90.00 178.71 126.75 C 177.99 174.62 175.64 191.63 165.42 223.08 C 162.99 230.55 161.00 237.55 161.00 238.64 C 161.00 241.39 164.61 245.00 167.36 245.00 C 168.62 245.00 170.57 243.99 171.68 242.75 Z  M 94.03 237.46 C 126.52 231.76 158.78 223.45 162.75 219.75 C 164.18 218.42 165.00 216.48 165.00 214.45 C 165.00 208.73 163.97 208.53 144.23 210.33 C 134.48 211.23 114.80 212.67 100.50 213.54 C 86.20 214.42 73.28 215.60 71.79 216.17 C 67.93 217.65 64.57 224.88 65.48 229.73 C 66.69 236.21 70.67 239.90 76.53 239.96 C 78.19 239.98 86.06 238.86 94.03 237.46 Z  M 125.04 203.48 C 127.85 202.03 128.60 200.50 129.22 195.00 C 129.50 192.50 129.50 192.50 145.34 192.00 C 160.49 191.52 161.27 191.40 163.09 189.14 C 165.53 186.12 165.53 181.88 163.09 178.86 C 161.25 176.58 160.61 176.49 145.04 176.18 C 128.91 175.86 128.91 175.86 129.20 169.68 C 129.50 163.50 129.50 163.50 143.50 163.25 C 152.04 163.10 158.41 162.52 159.84 161.78 C 164.61 159.30 165.00 156.92 164.99 130.30 C 164.99 104.16 164.43 99.78 160.54 95.25 C 158.21 92.54 157.98 92.49 143.84 92.00 C 129.50 91.50 129.50 91.50 129.20 85.84 C 128.91 80.18 128.91 80.18 145.04 79.84 C 160.60 79.51 161.25 79.42 163.09 77.14 C 165.57 74.08 165.53 69.53 163.00 67.00 C 161.17 65.17 159.67 65.00 145.54 65.00 C 130.51 65.00 130.04 64.94 128.91 62.75 C 126.57 58.20 123.74 56.00 120.26 56.00 C 115.57 56.00 113.08 57.57 111.40 61.58 C 109.97 65.00 109.97 65.00 94.32 65.00 C 76.45 65.00 75.00 65.53 75.00 72.00 C 75.00 78.74 76.84 79.45 95.15 79.82 C 111.10 80.14 111.10 80.14 110.80 85.82 C 110.50 91.50 110.50 91.50 106.77 91.81 C 102.40 92.17 100.00 94.91 100.00 99.53 C 100.00 103.88 102.04 106.16 106.58 106.89 C 110.50 107.53 110.50 107.53 110.80 113.13 C 111.09 118.73 111.09 118.73 107.08 119.37 C 102.55 120.10 101.00 122.10 101.00 127.24 C 101.00 131.70 102.84 134.02 107.05 134.87 C 110.44 135.56 110.51 135.67 110.80 141.15 C 111.09 146.73 111.09 146.73 107.10 147.37 C 102.47 148.11 100.00 150.95 100.00 155.53 C 100.00 159.88 102.04 162.16 106.58 162.89 C 110.50 163.53 110.50 163.53 110.80 169.76 C 111.10 176.00 111.10 176.00 94.00 176.00 C 77.19 176.00 76.87 176.04 74.45 178.45 C 71.32 181.59 71.19 186.51 74.17 189.69 C 76.28 191.93 76.86 192.00 93.67 192.00 C 111.00 192.00 111.00 192.00 111.00 196.35 C 111.00 203.75 117.82 207.21 125.04 203.48 Z  M 91.88 162.37 C 96.51 159.13 97.00 155.92 97.00 128.66 C 97.00 114.68 96.72 101.85 96.38 100.14 C 94.83 92.41 84.85 89.06 79.45 94.45 C 77.00 96.91 77.00 96.91 77.00 127.53 C 77.00 158.15 77.00 158.15 79.92 161.08 C 83.30 164.45 88.16 164.98 91.88 162.37 Z  M 21.48 128.01 C 23.01 127.43 24.69 125.59 25.53 123.59 C 27.26 119.45 28.66 103.78 29.51 79.15 C 30.07 62.65 29.96 60.62 28.41 58.90 C 26.26 56.52 21.80 56.44 19.76 58.75 C 18.70 59.95 17.23 67.77 15.11 83.50 C 13.41 96.15 11.30 109.75 10.43 113.72 C 8.64 121.87 9.02 124.08 12.69 126.97 C 15.57 129.23 17.62 129.47 21.48 128.01 Z  M 71.03 101.48 C 74.03 99.93 77.00 95.43 77.00 92.43 C 77.00 89.25 67.84 60.49 66.27 58.75 C 64.33 56.60 61.66 56.50 59.99 58.51 C 59.03 59.67 58.90 64.15 59.44 77.76 C 59.83 87.52 60.39 96.53 60.69 97.78 C 61.17 99.79 65.07 102.85 67.30 102.96 C 67.74 102.98 69.42 102.32 71.03 101.48 Z  M 130.50 50.86 C 154.66 49.60 158.55 48.57 161.32 42.73 C 163.51 38.13 163.44 35.78 160.99 30.98 C 157.85 24.83 154.82 24.65 134.50 29.43 C 128.45 30.85 115.40 33.15 105.50 34.54 C 80.28 38.07 81.09 37.91 78.94 40.06 C 75.54 43.46 76.75 50.68 81.00 52.36 C 82.64 53.01 98.17 52.54 130.50 50.86 Z  M 129.20 141.25 C 129.49 135.68 129.59 135.49 132.50 135.17 C 136.93 134.67 139.00 132.32 139.00 127.78 C 139.00 122.10 137.57 120.11 132.92 119.37 C 128.91 118.73 128.91 118.73 129.20 113.11 C 129.50 107.50 129.50 107.50 135.30 107.53 C 139.30 107.55 141.40 108.01 142.04 109.03 C 142.55 109.84 142.98 118.71 142.98 128.75 C 143.00 147.00 143.00 147.00 135.95 147.00 C 128.90 147.00 128.90 147.00 129.20 141.25 Z "/>
</g>
</svg>