<?xml version="1.0" encoding="UTF-8" standalone="no"?>
<!DOCTYPE svg PUBLIC "-//W3C//DTD SVG 1.1//EN" "http://www.w3.org/Graphics/SVG/1.1/DTD/svg11.dtd" >
<svg xmlns="http://www.w3.org/2000/svg" xmlns:xlink="http://www.w3.org/1999/xlink" version="1.1" viewBox="0 0 256 256">
 <g >
 <path fill="currentColor"
d=" M 230.00 235.60 C 236.57 232.08 240.89 227.92 243.50 222.59 C 246.72 216.02 246.15 212.61 241.39 209.80 C 237.12 207.28 236.20 204.00 235.35 188.20 C 234.77 177.32 234.45 175.73 232.62 174.45 C 229.80 172.47 226.37 172.63 224.16 174.84 C 222.59 176.41 222.22 178.97 221.70 192.09 C 221.04 208.59 220.16 213.26 216.91 217.38 C 213.08 222.25 205.13 220.29 202.55 213.84 C 201.19 210.43 201.00 198.73 201.00 116.88 C 201.00 23.80 201.00 23.80 197.60 20.40 C 195.08 17.88 193.33 17.00 190.85 17.00 C 185.83 17.01 181.31 20.22 180.00 24.70 C 179.22 27.40 178.98 56.71 179.20 125.50 C 179.50 222.50 179.50 222.50 181.65 226.50 C 186.96 236.36 191.54 238.09 211.50 237.74 C 223.91 237.52 227.11 237.15 230.00 235.60 Z  M 106.50 230.55 C 133.54 223.38 169.39 210.05 173.25 205.73 C 175.59 203.12 175.46 199.73 172.93 197.43 C 170.89 195.59 170.63 195.60 160.18 197.86 C 154.30 199.12 135.88 202.75 119.24 205.92 C 94.10 210.70 88.57 212.05 86.60 213.91 C 83.67 216.66 82.79 220.65 84.08 225.32 C 85.04 228.79 89.99 234.00 92.33 234.00 C 92.97 234.00 99.35 232.44 106.50 230.55 Z  M 39.81 229.97 C 46.25 226.05 46.00 230.05 46.00 132.50 C 46.00 35.49 46.19 38.70 40.13 35.57 C 34.96 32.89 30.28 33.52 26.40 37.40 C 23.00 40.80 23.00 40.80 23.00 131.95 C 23.00 231.63 22.74 227.17 28.76 230.43 C 32.55 232.49 35.92 232.35 39.81 229.97 Z  M 83.60 212.46 C 85.44 210.51 87.42 207.15 88.00 204.99 C 88.71 202.35 88.97 175.63 88.78 123.28 C 88.50 45.50 88.50 45.50 86.24 41.27 C 82.91 35.03 80.13 34.00 66.62 34.00 C 55.41 34.00 55.10 34.06 53.07 36.63 C 50.52 39.88 50.40 45.04 52.81 48.02 C 54.14 49.65 56.04 50.39 59.85 50.76 C 63.56 51.12 65.36 51.80 66.06 53.11 C 66.63 54.18 66.93 61.65 66.78 70.73 C 66.50 86.50 66.50 86.50 60.17 87.00 C 55.45 87.38 53.47 88.00 52.42 89.44 C 50.38 92.23 50.67 97.31 53.03 100.32 C 54.73 102.47 56.02 102.95 60.78 103.20 C 66.50 103.50 66.50 103.50 66.77 122.13 C 67.04 140.76 67.04 140.76 60.87 141.20 C 55.98 141.56 54.32 142.12 52.85 143.94 C 50.40 146.96 50.50 152.10 53.07 155.37 C 54.90 157.68 55.86 158.00 61.07 158.00 C 67.00 158.00 67.00 158.00 67.00 178.00 C 67.00 198.00 67.00 198.00 62.08 198.00 C 55.73 198.00 54.24 198.63 52.46 202.07 C 50.25 206.36 50.62 210.72 53.45 213.55 C 55.79 215.88 56.49 216.00 68.09 216.00 C 80.26 216.00 80.26 216.00 83.60 212.46 Z  M 117.93 197.54 C 119.48 196.73 121.15 195.27 121.63 194.29 C 122.65 192.19 123.43 78.03 122.47 70.12 C 121.60 62.85 118.78 60.00 112.47 60.00 C 108.69 60.00 107.31 60.54 104.92 62.92 C 102.00 65.85 102.00 65.85 102.00 128.99 C 102.00 170.20 102.36 192.80 103.03 194.05 C 105.40 198.49 112.75 200.21 117.93 197.54 Z  M 153.75 190.01 C 155.54 188.92 157.10 187.91 157.22 187.76 C 157.34 187.62 157.68 170.18 157.97 149.00 C 158.50 110.50 158.50 110.50 164.65 110.00 C 172.26 109.38 175.00 107.27 175.00 102.02 C 175.00 96.65 171.90 94.17 164.19 93.36 C 158.00 92.72 158.00 92.72 158.00 59.41 C 158.00 26.11 158.00 26.11 155.69 23.43 C 153.92 21.36 152.22 20.63 148.33 20.26 C 143.78 19.82 142.95 20.07 139.89 22.80 C 136.50 25.84 136.50 25.84 136.50 105.81 C 136.50 184.38 136.54 185.83 138.50 188.01 C 142.43 192.38 148.55 193.18 153.75 190.01 Z  M 216.58 110.76 C 224.30 105.68 237.62 92.01 238.27 88.50 C 239.38 82.44 233.72 75.00 228.00 75.00 C 223.99 75.00 220.52 78.24 215.89 86.32 C 213.63 90.27 210.25 95.86 208.39 98.73 C 204.69 104.44 204.15 108.34 206.56 111.78 C 208.67 114.79 210.78 114.58 216.58 110.76 Z "/>
</g>
</svg>