<?xml version="1.0" encoding="UTF-8" standalone="no"?>
<!DOCTYPE svg PUBLIC "-//W3C//DTD SVG 1.1//EN" "http://www.w3.org/Graphics/SVG/1.1/DTD/svg11.dtd" >
<svg xmlns="http://www.w3.org/2000/svg" xmlns:xlink="http://www.w3.org/1999/xlink" version="1.1" viewBox="0 0 256 256">
 <g >
 <path fill="currentColor"
d=" M 200.79 240.30 C 203.50 238.26 203.50 238.26 203.17 218.88 C 202.83 199.50 202.83 199.50 206.92 195.61 C 210.36 192.34 210.82 191.48 209.76 190.19 C 208.30 188.42 191.18 177.00 189.98 177.00 C 189.53 177.00 187.39 179.03 185.21 181.50 C 181.25 186.00 181.25 186.00 128.37 185.98 C 75.50 185.96 75.50 185.96 66.67 181.01 C 61.81 178.28 57.11 175.93 56.23 175.78 C 54.78 175.53 54.61 178.66 54.56 207.39 C 54.49 239.28 54.49 239.28 56.78 240.77 C 58.44 241.86 60.48 242.10 64.27 241.65 C 71.43 240.81 74.42 238.40 74.81 233.15 C 75.11 229.00 75.11 229.00 128.51 229.00 C 181.90 229.00 181.90 229.00 182.20 234.73 C 182.46 239.66 182.85 240.63 185.00 241.77 C 188.56 243.64 197.43 242.82 200.79 240.30 Z  M 240.50 164.05 C 240.50 162.65 225.49 148.96 221.63 146.83 C 220.04 145.96 218.72 146.82 213.10 152.40 C 206.45 159.00 206.45 159.00 181.64 159.00 C 156.83 159.00 156.83 159.00 163.16 152.08 C 167.97 146.84 170.53 144.87 173.75 143.95 C 180.85 141.93 179.62 140.02 168.00 135.01 C 163.88 133.23 160.07 131.38 159.55 130.89 C 158.99 130.37 162.59 130.00 168.30 130.00 C 178.00 130.00 178.00 130.00 178.00 133.88 C 178.00 136.10 178.64 138.29 179.49 138.99 C 181.65 140.78 193.02 139.87 196.42 137.65 C 199.13 135.87 199.13 135.87 198.43 121.91 C 197.72 107.96 197.72 107.96 201.61 104.56 C 204.88 101.70 205.32 100.87 204.40 99.33 C 203.03 97.03 189.10 88.14 186.75 88.06 C 185.79 88.03 183.26 89.58 181.13 91.50 C 177.26 95.00 177.26 95.00 128.47 95.00 C 79.68 95.00 79.68 95.00 70.40 90.00 C 65.30 87.25 60.87 85.00 60.55 85.00 C 60.23 85.00 60.09 97.94 60.23 113.75 C 60.50 142.50 60.50 142.50 64.98 142.82 C 75.06 143.54 80.00 140.62 80.00 133.96 C 80.00 130.00 80.00 130.00 116.55 130.00 C 158.49 130.00 155.25 128.14 147.88 147.93 C 145.75 153.67 144.00 158.50 144.00 158.68 C 144.00 158.86 136.50 159.00 127.33 159.00 C 110.65 159.00 110.65 159.00 112.93 156.58 C 115.82 153.50 115.88 148.65 113.11 143.22 C 110.48 138.06 108.11 136.40 100.00 134.04 C 89.94 131.12 88.47 130.94 86.48 132.39 C 84.75 133.66 84.88 133.97 88.71 137.62 C 92.79 141.51 94.98 146.64 94.99 152.32 C 95.00 153.86 95.47 156.00 96.04 157.07 C 97.05 158.96 96.32 159.00 58.16 159.00 C 16.22 159.00 15.38 159.10 17.97 163.94 C 19.08 166.01 19.08 166.01 129.79 165.75 C 225.88 165.53 240.50 165.31 240.50 164.05 Z  M 219.00 74.67 C 219.00 73.95 217.99 72.41 216.75 71.26 C 212.34 67.15 198.57 57.00 197.42 57.00 C 196.77 57.00 193.67 59.93 190.52 63.52 C 184.80 70.04 184.80 70.04 161.65 69.77 C 138.50 69.50 138.50 69.50 138.22 59.25 C 137.93 49.00 137.93 49.00 185.22 48.98 C 215.44 48.97 233.04 48.60 234.00 47.96 C 235.24 47.12 234.67 46.18 230.71 42.52 C 228.07 40.09 222.74 35.99 218.87 33.41 C 211.82 28.73 211.82 28.73 205.12 35.38 C 198.42 42.03 198.42 42.03 168.46 41.77 C 138.50 41.50 138.50 41.50 138.20 35.83 C 137.91 30.16 137.91 30.16 142.45 27.03 C 147.44 23.60 147.92 22.56 145.18 21.09 C 141.98 19.39 118.94 13.92 117.83 14.60 C 117.13 15.04 116.89 19.77 117.13 28.38 C 117.50 41.50 117.50 41.50 71.01 42.00 C 26.06 42.48 24.51 42.56 24.15 44.43 C 23.30 48.86 24.76 49.00 72.73 49.00 C 118.07 49.00 118.07 49.00 117.78 59.25 C 117.50 69.50 117.50 69.50 79.25 69.76 C 41.00 70.02 41.00 70.02 41.00 72.44 C 41.00 74.16 41.66 74.99 43.25 75.29 C 44.49 75.53 84.54 75.79 132.25 75.86 C 203.69 75.98 219.00 75.77 219.00 74.67 Z  M 75.00 207.50 C 75.00 193.00 75.00 193.00 128.50 193.00 C 182.00 193.00 182.00 193.00 182.00 207.50 C 182.00 222.00 182.00 222.00 128.50 222.00 C 75.00 222.00 75.00 222.00 75.00 207.50 Z  M 80.00 112.50 C 80.00 102.00 80.00 102.00 129.00 102.00 C 178.00 102.00 178.00 102.00 178.00 112.50 C 178.00 123.00 178.00 123.00 129.00 123.00 C 80.00 123.00 80.00 123.00 80.00 112.50 Z "/>
</g>
</svg>