<?xml version="1.0" encoding="UTF-8" standalone="no"?>
<!DOCTYPE svg PUBLIC "-//W3C//DTD SVG 1.1//EN" "http://www.w3.org/Graphics/SVG/1.1/DTD/svg11.dtd" >
<svg xmlns="http://www.w3.org/2000/svg" xmlns:xlink="http://www.w3.org/1999/xlink" version="1.1" viewBox="0 0 256 256">
 <g >
 <path fill="currentColor"
d=" M 102.10 243.99 C 109.55 241.92 109.10 246.18 109.02 179.32 C 108.96 119.39 108.96 119.39 111.48 117.02 C 115.02 113.70 114.66 111.54 110.25 109.48 C 108.19 108.52 106.34 107.59 106.14 107.42 C 105.94 107.25 109.95 101.40 115.05 94.43 C 121.59 85.50 125.62 80.97 128.67 79.13 C 131.05 77.69 132.88 76.06 132.73 75.51 C 132.42 74.38 110.47 63.41 106.55 62.42 C 104.85 62.00 103.89 62.23 103.61 63.14 C 94.77 92.68 77.94 128.47 65.59 144.01 C 63.62 146.48 62.02 149.06 62.01 149.75 C 61.98 153.11 66.55 149.93 77.74 138.77 C 90.00 126.53 90.00 126.53 90.00 185.10 C 90.00 217.31 90.30 243.97 90.67 244.33 C 91.66 245.32 97.99 245.13 102.10 243.99 Z  M 183.59 242.64 C 192.86 239.49 198.53 236.51 200.43 233.79 C 201.81 231.83 202.00 224.92 202.00 177.28 C 202.00 123.00 202.00 123.00 222.50 123.00 C 239.45 123.00 243.00 122.76 243.00 121.59 C 243.00 119.70 229.49 107.29 224.86 104.93 C 221.17 103.04 221.17 103.04 218.33 106.30 C 216.78 108.10 214.38 111.23 213.00 113.27 C 210.77 116.58 210.03 116.99 206.25 116.99 C 202.00 117.00 202.00 117.00 202.00 98.85 C 202.00 80.69 202.00 80.69 206.00 77.27 C 212.74 71.50 212.17 71.08 190.75 65.94 C 184.66 64.48 180.66 63.96 180.11 64.55 C 179.61 65.09 179.59 69.78 180.07 75.50 C 180.53 81.00 180.92 92.59 180.95 101.25 C 181.00 117.00 181.00 117.00 148.58 117.00 C 130.75 117.00 115.45 117.27 114.58 117.61 C 113.71 117.94 113.00 119.29 113.00 120.61 C 113.00 123.00 113.00 123.00 147.00 123.00 C 181.00 123.00 181.00 123.00 181.00 169.43 C 181.00 221.46 181.36 219.00 173.81 219.00 C 171.58 219.00 165.02 218.30 159.23 217.44 C 150.61 216.16 148.55 216.11 147.89 217.18 C 146.81 218.92 147.22 219.24 156.53 223.89 C 166.31 228.78 168.71 231.20 170.51 238.04 C 171.84 243.08 173.21 244.95 175.57 244.98 C 176.17 244.99 179.77 243.94 183.59 242.64 Z  M 22.75 226.25 C 32.39 216.81 40.12 205.86 47.27 191.50 C 53.00 180.01 56.39 169.22 58.41 156.00 C 60.19 144.33 61.97 104.54 61.99 75.75 C 62.00 57.00 62.00 57.00 148.42 57.00 C 195.95 57.00 235.55 56.73 236.42 56.39 C 237.29 56.06 238.00 55.17 238.00 54.43 C 238.00 52.13 217.82 34.88 215.52 35.21 C 214.37 35.38 211.18 38.60 208.09 42.75 C 202.68 50.00 202.68 50.00 173.34 50.00 C 157.20 50.00 144.00 49.70 144.00 49.33 C 144.00 48.96 144.71 47.87 145.58 46.91 C 148.28 43.93 148.48 37.88 146.06 32.41 C 142.28 23.85 137.24 20.23 123.39 16.11 C 110.61 12.31 108.35 13.89 114.87 22.08 C 118.91 27.14 119.33 28.41 120.51 38.91 C 120.84 41.88 121.77 45.59 122.58 47.16 C 124.05 50.00 124.05 50.00 92.40 50.00 C 60.75 50.00 60.75 50.00 51.50 45.00 C 46.41 42.25 41.57 40.00 40.73 40.00 C 39.39 40.00 39.28 45.07 39.73 83.75 C 40.48 147.54 38.86 169.49 31.62 193.63 C 27.77 206.46 24.88 212.80 18.22 223.09 C 8.51 238.06 9.79 238.95 22.75 226.25 Z  M 154.02 181.99 C 158.61 179.65 161.00 175.64 160.99 170.30 C 160.98 163.57 159.02 158.72 154.60 154.50 C 150.23 150.32 132.45 140.00 129.63 140.00 C 127.17 140.00 127.69 142.99 130.99 147.87 C 134.32 152.77 134.67 154.41 135.43 168.40 C 135.84 175.92 136.39 178.78 137.73 180.27 C 141.46 184.42 147.92 185.10 154.02 181.99 Z "/>
</g>
</svg>