<?xml version="1.0" encoding="UTF-8" standalone="no"?>
<!DOCTYPE svg PUBLIC "-//W3C//DTD SVG 1.1//EN" "http://www.w3.org/Graphics/SVG/1.1/DTD/svg11.dtd" >
<svg xmlns="http://www.w3.org/2000/svg" xmlns:xlink="http://www.w3.org/1999/xlink" version="1.1" viewBox="0 0 256 256">
 <g >
 <path fill="currentColor"
d=" M 61.10 239.34 C 63.24 238.49 65.03 237.27 65.08 236.64 C 65.12 236.01 65.09 216.04 65.01 192.25 C 64.91 164.49 65.21 149.00 65.84 149.00 C 68.80 149.00 73.79 158.37 77.03 170.00 C 79.50 178.89 86.62 181.76 91.98 176.02 C 96.68 170.99 96.56 165.04 91.61 158.56 C 89.21 155.41 78.59 149.14 71.48 146.68 C 67.94 145.45 67.94 145.45 80.22 133.48 C 86.97 126.89 93.29 121.05 94.25 120.50 C 95.21 119.95 95.66 119.03 95.25 118.46 C 94.29 117.12 80.86 107.80 80.47 108.20 C 80.31 108.37 78.79 111.99 77.10 116.25 C 75.40 120.52 72.01 127.94 69.56 132.75 C 65.10 141.50 65.10 141.50 65.05 132.04 C 65.00 122.98 65.11 122.48 67.64 120.47 C 70.27 118.37 70.27 118.37 67.03 116.32 C 63.79 114.26 63.79 114.26 71.20 105.88 C 75.28 101.27 81.42 93.78 84.86 89.24 C 89.56 83.03 92.33 80.36 96.05 78.47 C 98.77 77.09 100.98 75.41 100.95 74.73 C 100.90 73.31 80.53 59.00 78.55 59.00 C 77.83 59.00 75.59 61.02 73.57 63.48 C 69.89 67.97 69.89 67.97 41.21 68.23 C 13.76 68.49 12.51 68.58 12.15 70.43 C 11.35 74.62 13.87 75.00 42.19 75.00 C 56.94 75.00 69.00 75.25 69.00 75.56 C 69.00 76.57 52.03 105.98 46.34 114.81 C 38.59 126.87 24.85 145.02 17.70 152.66 C 14.41 156.18 11.98 159.32 12.31 159.64 C 13.64 160.97 26.48 151.26 39.18 139.33 C 42.30 136.40 45.17 134.00 45.55 134.00 C 45.94 134.00 46.08 157.74 45.88 186.75 C 45.67 216.07 45.89 240.10 46.38 240.86 C 47.45 242.52 55.15 241.72 61.10 239.34 Z  M 128.00 237.69 C 132.50 235.50 132.50 235.50 132.41 227.50 C 132.36 223.10 132.25 192.74 132.17 160.03 C 132.03 100.56 132.03 100.56 135.11 97.39 C 139.40 92.96 138.66 91.05 131.75 88.75 C 128.59 87.70 126.00 86.48 126.00 86.06 C 126.00 85.63 130.66 75.66 136.35 63.89 C 145.89 44.17 146.98 42.36 150.35 40.77 C 156.58 37.81 155.85 37.08 138.37 28.98 C 126.90 23.66 125.46 23.22 124.87 24.81 C 124.51 25.79 122.54 34.00 120.50 43.05 C 115.90 63.38 107.14 95.59 102.95 107.55 C 101.23 112.47 96.94 122.53 93.41 129.89 C 87.09 143.09 86.10 146.00 87.93 146.00 C 89.39 146.00 99.57 132.47 106.18 121.75 C 109.49 116.39 112.45 112.00 112.75 112.00 C 113.06 112.00 113.06 140.78 112.74 175.94 C 112.31 224.13 112.46 240.02 113.33 240.40 C 115.51 241.36 123.48 239.89 128.00 237.69 Z  M 146.31 227.75 C 162.63 211.46 171.55 197.31 178.31 177.00 C 182.47 164.46 184.52 152.69 186.02 132.52 C 186.63 124.28 187.26 117.40 187.43 117.24 C 187.80 116.87 188.75 127.55 189.95 145.50 C 191.68 171.52 195.01 189.10 201.45 206.31 C 205.91 218.21 212.46 232.55 213.81 233.38 C 214.37 233.73 216.18 232.88 217.83 231.49 C 222.55 227.51 230.91 224.25 238.25 223.52 C 241.96 223.15 245.00 222.45 245.00 221.98 C 245.00 221.50 242.37 219.09 239.14 216.61 C 224.41 205.28 212.13 185.69 203.62 160.00 C 198.49 144.49 191.30 109.37 192.71 106.75 C 192.94 106.34 203.93 106.00 217.14 106.00 C 232.16 106.00 241.04 105.64 240.83 105.03 C 239.95 102.47 224.65 87.00 223.00 87.00 C 221.91 87.00 219.17 89.49 216.42 93.00 C 211.70 99.00 211.70 99.00 200.34 99.00 C 188.97 99.00 188.97 99.00 189.24 69.29 C 189.50 39.58 189.50 39.58 193.69 36.54 C 195.99 34.87 197.91 33.00 197.94 32.40 C 198.01 31.11 169.26 24.40 168.21 25.46 C 167.82 25.85 167.66 42.55 167.86 62.58 C 168.22 99.00 168.22 99.00 152.36 99.02 C 143.64 99.02 135.88 99.43 135.11 99.91 C 134.20 100.49 133.95 101.67 134.38 103.39 C 135.04 106.00 135.04 106.00 151.52 106.00 C 168.00 106.00 168.00 106.00 168.00 119.78 C 168.00 150.93 160.32 188.56 149.66 209.66 C 147.76 213.42 143.68 220.51 140.60 225.40 C 131.33 240.14 133.14 240.88 146.31 227.75 Z  M 222.23 76.03 C 227.94 71.54 228.65 60.38 223.57 55.07 C 217.88 49.13 200.38 42.22 197.73 44.87 C 196.79 45.81 197.21 46.62 199.69 48.55 C 203.26 51.35 204.40 54.32 205.95 64.79 C 207.20 73.25 208.54 75.86 212.00 76.62 C 213.38 76.93 214.95 77.33 215.50 77.51 C 217.90 78.31 219.90 77.87 222.23 76.03 Z  M 65.23 57.34 C 70.16 54.86 72.84 46.83 71.01 40.03 C 69.23 33.42 63.92 28.50 52.59 22.94 C 47.05 20.22 41.75 18.00 40.82 18.00 C 37.46 18.00 37.81 20.28 41.75 24.11 C 46.70 28.91 48.34 34.57 47.49 43.88 C 46.98 49.51 47.20 50.99 48.96 53.81 C 52.58 59.57 58.33 60.82 65.23 57.34 Z "/>
</g>
</svg>