<?xml version="1.0" encoding="UTF-8" standalone="no"?>
<!DOCTYPE svg PUBLIC "-//W3C//DTD SVG 1.1//EN" "http://www.w3.org/Graphics/SVG/1.1/DTD/svg11.dtd" >
<svg xmlns="http://www.w3.org/2000/svg" xmlns:xlink="http://www.w3.org/1999/xlink" version="1.1" viewBox="0 0 256 256">
 <g >
 <path fill="currentColor"
d=" M 149.99 230.50 C 151.28 227.94 151.50 220.01 151.50 176.75 C 151.50 148.84 151.59 126.00 151.69 126.00 C 151.80 126.00 157.92 133.54 165.30 142.75 C 181.35 162.80 190.14 172.78 195.39 176.93 C 201.70 181.92 205.23 182.52 219.78 181.08 C 241.58 178.91 252.86 176.52 250.83 174.49 C 250.53 174.19 243.13 171.44 234.39 168.37 C 213.89 161.18 202.39 155.64 191.93 147.91 C 180.60 139.55 166.98 127.76 158.71 119.16 C 151.91 112.10 151.91 112.10 152.21 104.84 C 152.50 97.57 152.50 97.57 156.00 96.82 C 157.93 96.41 167.82 94.47 178.00 92.51 C 205.10 87.30 210.31 83.99 202.38 77.03 C 198.70 73.80 198.58 73.77 190.58 74.27 C 185.60 74.59 177.51 76.21 169.50 78.51 C 149.48 84.24 151.68 84.78 152.46 74.39 C 153.83 56.18 155.08 44.35 156.16 39.36 C 157.65 32.47 156.73 29.48 152.23 26.64 C 146.85 23.25 136.77 19.78 133.40 20.17 C 129.70 20.59 129.09 23.78 131.84 28.27 C 136.72 36.21 137.90 42.62 138.59 65.12 C 139.25 86.50 139.25 86.50 130.88 88.62 C 126.27 89.79 115.30 92.58 106.50 94.83 C 97.70 97.09 89.23 99.18 87.68 99.50 C 83.60 100.33 84.59 103.04 89.96 105.75 C 96.05 108.82 105.45 108.74 118.81 105.50 C 124.49 104.12 129.55 103.00 130.07 103.00 C 131.35 103.00 123.34 118.80 115.15 132.44 C 106.43 146.97 95.70 161.29 85.37 172.20 C 78.08 179.89 75.39 184.00 77.65 184.00 C 79.12 184.00 91.87 176.39 97.00 172.45 C 106.28 165.33 115.09 155.23 127.04 138.01 C 135.40 125.96 138.58 122.06 138.87 123.51 C 139.08 124.61 139.02 140.57 138.73 159.00 C 138.25 190.21 138.06 192.91 136.03 198.50 C 132.68 207.69 133.01 212.04 137.86 222.41 C 140.14 227.31 142.54 231.94 143.17 232.71 C 144.98 234.88 148.33 233.80 149.99 230.50 Z  M 69.94 218.13 C 73.65 210.85 75.64 182.91 76.50 126.00 C 76.81 105.38 77.31 86.08 77.62 83.13 C 78.17 77.75 78.17 77.75 82.34 81.76 C 95.58 94.48 103.27 95.27 103.27 83.90 C 103.27 75.52 95.57 69.14 84.39 68.24 C 78.00 67.73 78.00 67.73 78.00 60.61 C 78.00 56.70 78.68 49.94 79.52 45.58 C 80.35 41.23 80.78 36.88 80.47 35.91 C 79.21 31.94 64.49 24.64 58.85 25.18 C 54.37 25.61 54.18 27.57 57.90 35.23 C 59.58 38.68 61.40 44.42 61.96 48.00 C 63.74 59.37 64.29 97.48 63.08 126.00 C 61.69 159.14 60.65 169.96 57.44 184.83 C 56.10 191.06 55.00 197.48 55.00 199.10 C 55.00 202.07 61.90 217.00 64.77 220.25 C 66.99 222.77 67.72 222.47 69.94 218.13 Z  M 33.46 144.40 C 39.80 138.06 44.09 119.42 42.04 107.21 C 40.44 97.73 32.97 84.69 30.54 87.13 C 30.23 87.44 29.51 92.59 28.95 98.57 C 28.26 105.86 26.94 112.27 24.96 117.94 C 21.65 127.41 21.25 133.28 23.54 138.75 C 26.45 145.71 30.08 147.78 33.46 144.40 Z  M 199.80 61.80 C 200.46 61.14 201.00 58.22 201.00 55.30 C 201.00 50.64 200.58 49.54 197.44 46.06 C 192.46 40.55 186.76 38.56 178.03 39.29 C 169.33 40.02 166.57 41.32 168.01 44.01 C 170.70 49.04 191.57 62.90 196.55 62.97 C 197.68 62.99 199.14 62.46 199.80 61.80 Z "/>
</g>
</svg>