<?xml version="1.0" encoding="UTF-8" standalone="no"?>
<!DOCTYPE svg PUBLIC "-//W3C//DTD SVG 1.1//EN" "http://www.w3.org/Graphics/SVG/1.1/DTD/svg11.dtd" >
<svg xmlns="http://www.w3.org/2000/svg" xmlns:xlink="http://www.w3.org/1999/xlink" version="1.1" viewBox="0 0 256 256">
 <g >
 <path fill="currentColor"
d=" M 195.44 229.78 C 197.43 226.95 197.44 219.99 195.48 215.29 C 194.64 213.29 192.34 209.68 190.36 207.27 C 186.77 202.88 186.77 202.88 189.13 197.19 C 191.42 191.66 191.49 190.65 191.59 161.00 C 191.66 138.56 192.03 129.54 193.00 126.88 C 193.72 124.88 194.03 122.52 193.69 121.63 C 192.82 119.37 187.44 116.24 181.31 114.42 C 176.70 113.07 175.79 113.06 173.25 114.37 C 171.67 115.19 165.68 116.76 159.94 117.88 C 154.20 118.99 146.35 120.64 142.50 121.55 C 137.44 122.74 133.70 123.00 129.00 122.48 C 120.21 121.51 115.22 121.45 114.36 122.31 C 113.96 122.70 114.45 125.60 115.44 128.74 C 118.20 137.48 117.34 155.61 113.46 170.49 C 111.71 177.21 111.61 181.37 113.12 184.32 C 114.76 187.50 119.17 192.00 120.66 192.00 C 123.78 192.00 126.75 172.53 127.84 145.02 C 128.40 131.07 128.73 128.55 130.00 128.84 C 133.58 129.64 145.06 129.01 151.50 127.66 C 155.35 126.85 161.22 125.89 164.55 125.52 C 175.72 124.28 176.73 126.72 177.66 157.50 C 178.20 175.52 177.16 193.32 175.38 196.19 C 175.11 196.63 173.45 196.24 171.69 195.32 C 169.94 194.41 165.35 192.64 161.50 191.41 C 155.38 189.44 154.52 188.87 154.63 186.83 C 154.86 182.71 160.74 157.64 162.51 153.25 C 163.45 150.92 163.99 148.42 163.71 147.70 C 162.95 145.70 151.75 140.09 147.91 139.78 C 144.67 139.51 144.51 139.65 144.79 142.50 C 146.16 156.77 146.07 170.17 144.58 176.09 C 140.25 193.30 129.68 206.04 112.98 214.23 C 107.77 216.78 100.24 219.82 96.25 220.98 C 90.44 222.67 89.00 223.47 89.00 225.04 C 89.00 226.72 89.70 227.00 93.87 227.00 C 100.68 227.00 117.14 222.64 125.49 218.62 C 134.65 214.21 139.53 209.84 146.27 199.99 C 151.79 191.91 151.79 191.91 158.65 199.67 C 176.16 219.50 189.29 232.00 192.59 232.00 C 193.30 232.00 194.59 231.00 195.44 229.78 Z  M 70.46 214.44 C 77.98 206.33 79.18 197.28 78.33 154.90 C 77.67 121.89 77.67 121.89 83.22 116.19 C 88.99 110.27 91.38 106.71 90.30 105.63 C 88.86 104.19 86.65 105.25 81.96 109.64 C 77.00 114.27 77.00 114.27 77.00 101.31 C 77.00 88.34 77.00 88.34 82.09 85.96 C 86.77 83.76 92.00 79.04 92.00 76.99 C 92.00 76.53 91.24 75.38 90.31 74.45 C 88.95 73.10 87.42 72.87 82.68 73.30 C 76.75 73.83 76.75 73.83 77.27 57.17 C 77.61 46.35 78.36 38.43 79.42 34.61 C 80.87 29.38 80.88 28.47 79.56 26.45 C 76.12 21.20 57.00 15.22 57.00 19.39 C 57.00 20.30 58.31 23.49 59.90 26.48 C 63.77 33.72 65.06 42.24 65.30 61.98 C 65.50 78.41 65.50 78.41 60.50 80.29 C 57.75 81.32 49.20 83.84 41.50 85.89 C 26.21 89.95 24.23 91.46 30.35 94.36 C 35.24 96.68 47.70 96.51 56.76 94.00 C 60.73 92.90 64.43 92.00 64.99 92.00 C 65.63 92.00 65.99 97.60 65.97 107.25 C 65.93 125.41 70.72 119.67 29.31 151.14 C 20.18 158.08 16.35 160.03 9.51 161.19 C 7.08 161.60 6.37 164.52 8.17 166.72 C 10.45 169.50 21.20 176.00 23.52 176.00 C 25.02 176.00 26.62 174.64 28.50 171.75 C 30.02 169.41 38.97 159.95 48.38 150.71 C 65.50 133.93 65.50 133.93 65.81 149.21 C 66.17 166.76 64.56 185.83 62.55 187.86 C 61.10 189.33 57.65 188.63 49.72 185.27 C 46.99 184.11 45.63 183.97 44.85 184.75 C 44.06 185.54 45.75 188.14 50.88 194.07 C 54.79 198.59 59.20 204.81 60.67 207.89 C 63.53 213.89 65.76 217.00 67.20 217.00 C 67.69 217.00 69.16 215.85 70.46 214.44 Z  M 91.70 122.05 C 101.39 117.65 111.94 108.72 121.29 97.00 C 124.08 93.50 124.08 93.50 123.44 99.50 C 123.09 102.80 122.17 107.02 121.40 108.87 C 119.40 113.69 119.64 115.28 122.80 118.31 C 125.56 120.95 128.00 121.82 128.00 120.16 C 128.00 119.70 131.62 115.36 136.04 110.52 C 140.47 105.67 144.58 100.76 145.19 99.61 C 145.80 98.45 146.90 97.14 147.65 96.70 C 148.39 96.26 149.00 95.47 149.00 94.95 C 149.00 93.00 145.87 94.13 139.11 98.50 C 135.28 100.97 131.83 103.00 131.44 103.00 C 131.05 103.00 131.00 101.02 131.33 98.59 C 131.81 95.10 131.53 93.67 129.96 91.68 C 128.87 90.29 127.72 87.85 127.40 86.25 C 126.86 83.55 127.14 83.22 131.16 81.73 C 133.55 80.85 137.30 79.65 139.50 79.07 C 145.28 77.56 150.00 74.39 150.00 72.01 C 150.00 69.60 148.62 69.52 140.50 71.48 C 131.64 73.62 131.85 73.71 132.20 67.84 C 132.50 62.68 132.50 62.68 137.55 60.97 C 145.55 58.26 149.00 56.16 149.00 53.99 C 149.00 51.26 144.78 50.42 138.78 51.96 C 136.09 52.65 133.70 53.04 133.49 52.82 C 132.74 52.07 135.00 38.93 136.50 35.34 C 139.25 28.77 138.65 27.19 132.36 24.31 C 129.25 22.88 124.75 21.50 122.36 21.23 C 118.21 20.76 118.00 20.86 118.00 23.33 C 118.00 24.76 118.90 28.20 119.99 30.98 C 121.67 35.23 123.96 49.14 123.99 55.21 C 124.00 57.17 121.96 58.45 117.23 59.46 C 113.97 60.17 113.97 60.17 116.12 56.52 C 117.72 53.81 117.98 52.58 117.14 51.74 C 115.53 50.13 106.94 47.00 104.11 47.00 C 101.88 47.00 101.76 47.27 102.32 51.32 C 103.02 56.44 101.33 63.48 97.65 70.72 C 94.49 76.94 94.48 77.00 96.89 77.00 C 97.93 77.00 100.97 75.04 103.64 72.64 C 107.75 68.96 109.52 68.11 115.08 67.14 C 124.56 65.50 124.14 65.30 123.80 71.25 C 123.50 76.49 123.50 76.49 116.00 79.17 C 111.88 80.64 103.62 83.07 97.66 84.57 C 85.63 87.61 84.08 88.96 88.39 92.66 C 92.13 95.88 95.52 95.61 104.43 91.37 C 108.64 89.38 112.32 87.99 112.63 88.29 C 113.44 89.11 105.76 101.74 100.97 107.48 C 98.68 110.21 93.92 114.66 90.40 117.37 C 86.88 120.07 84.00 122.67 84.00 123.14 C 84.00 124.54 87.22 124.09 91.70 122.05 Z  M 223.11 108.11 C 226.20 106.93 229.55 105.05 230.56 103.94 C 232.31 102.00 232.32 101.71 230.64 96.71 C 229.68 93.84 228.35 87.91 227.69 83.51 C 226.00 72.24 224.27 72.33 220.76 83.87 C 217.60 94.24 214.68 97.48 207.50 98.55 C 201.14 99.51 189.27 98.67 187.77 97.17 C 186.05 95.45 186.20 84.35 187.99 80.28 C 189.31 77.31 189.25 76.90 187.24 74.76 C 185.07 72.44 185.07 72.44 191.48 71.23 C 198.68 69.86 207.63 66.73 210.56 64.56 C 212.11 63.41 212.28 62.75 211.40 61.31 C 209.61 58.38 201.53 58.44 192.55 61.45 C 188.38 62.85 184.52 64.00 183.98 64.00 C 182.49 64.00 182.75 53.02 184.25 52.55 C 184.94 52.34 189.50 50.93 194.38 49.42 C 204.74 46.22 209.19 43.14 207.10 40.61 C 205.26 38.40 199.62 38.57 191.51 41.07 C 187.82 42.21 184.68 43.00 184.52 42.82 C 183.91 42.15 186.10 29.28 187.58 24.77 C 189.99 17.50 189.36 15.96 182.50 12.28 C 172.84 7.09 168.05 8.43 171.71 15.31 C 173.01 17.74 173.50 21.85 173.81 32.61 C 174.22 46.73 174.22 46.73 171.70 47.36 C 170.32 47.71 168.37 48.31 167.37 48.69 C 165.80 49.29 165.86 49.00 167.78 46.56 C 169.00 45.00 170.00 42.96 170.00 42.02 C 170.00 39.73 163.25 36.76 159.00 37.17 C 155.67 37.50 155.67 37.50 155.59 43.59 C 155.51 48.89 155.01 50.41 151.71 55.38 C 146.24 63.63 147.91 64.77 156.73 58.80 C 159.55 56.88 162.04 56.00 164.23 56.13 C 166.03 56.24 168.96 55.99 170.75 55.58 C 174.00 54.84 174.00 54.84 174.00 61.24 C 174.00 67.65 174.00 67.65 166.75 69.82 C 162.76 71.01 157.61 72.45 155.29 73.02 C 152.98 73.59 150.83 74.46 150.53 74.96 C 149.51 76.60 154.37 79.00 158.72 79.00 C 161.08 79.00 163.00 79.27 163.00 79.60 C 163.00 81.85 153.80 97.15 149.84 101.49 C 144.65 107.17 143.92 109.00 146.85 109.00 C 150.87 109.00 158.92 101.36 171.32 85.79 C 174.25 82.11 174.92 80.54 174.42 78.54 C 173.95 76.67 174.18 76.00 175.27 76.00 C 178.42 76.00 179.09 78.63 178.79 89.83 C 178.45 102.62 179.41 104.82 187.06 108.83 C 191.20 111.00 192.37 111.12 204.50 110.71 C 214.63 110.36 218.74 109.79 223.11 108.11 Z "/>
</g>
</svg>