<?xml version="1.0" encoding="UTF-8" standalone="no"?>
<!DOCTYPE svg PUBLIC "-//W3C//DTD SVG 1.1//EN" "http://www.w3.org/Graphics/SVG/1.1/DTD/svg11.dtd" >
<svg xmlns="http://www.w3.org/2000/svg" xmlns:xlink="http://www.w3.org/1999/xlink" version="1.1" viewBox="0 0 256 256">
 <g >
 <path fill="currentColor"
d=" M 202.13 209.75 C 210.50 198.42 214.69 184.99 220.46 151.00 C 225.32 122.40 226.39 118.03 229.96 112.39 C 234.51 105.23 234.12 103.60 225.99 95.79 C 216.71 86.87 212.62 85.54 202.56 88.18 C 195.72 89.98 173.78 94.00 170.82 94.00 C 169.60 94.00 169.50 92.83 170.22 86.75 C 170.70 82.76 171.78 76.35 172.62 72.50 C 175.76 58.14 175.72 57.32 171.57 53.07 C 167.85 49.27 167.85 49.27 175.68 48.16 C 179.98 47.55 187.55 46.55 192.50 45.92 C 203.16 44.58 210.00 41.97 210.00 39.23 C 210.00 38.20 208.85 36.27 207.45 34.95 C 203.83 31.55 194.24 31.12 183.50 33.86 C 172.14 36.77 136.60 43.58 123.00 45.46 C 110.39 47.20 108.00 47.75 108.00 48.91 C 108.00 51.04 112.58 53.29 119.16 54.40 C 126.48 55.63 126.48 55.63 127.80 61.07 C 128.52 64.05 129.37 74.19 129.69 83.60 C 130.26 100.69 130.26 100.69 124.88 101.34 C 116.03 102.40 105.68 102.09 100.43 100.60 C 90.27 97.73 90.05 97.73 89.01 100.46 C 88.30 102.33 88.53 104.07 89.91 107.28 C 92.02 112.20 95.63 133.39 96.51 146.00 C 98.07 168.26 100.10 188.00 101.15 191.09 C 102.70 195.65 105.81 200.00 107.53 200.00 C 109.23 200.00 111.00 196.92 111.00 193.95 C 111.00 192.07 111.38 191.86 113.75 192.46 C 120.35 194.13 132.37 194.03 159.44 192.07 C 175.36 190.92 188.75 190.35 189.20 190.80 C 190.15 191.75 192.96 204.37 192.98 207.82 C 193.01 211.25 194.81 214.00 197.03 214.00 C 198.17 214.00 200.29 212.23 202.13 209.75 Z  M 77.87 196.66 C 78.48 195.92 79.90 191.76 81.01 187.41 C 82.79 180.48 83.16 174.41 83.99 138.50 C 85.17 87.66 86.89 65.33 90.55 53.17 C 92.33 47.25 91.11 44.59 84.63 40.25 C 78.42 36.09 74.53 36.04 68.63 40.02 C 59.82 45.96 49.91 48.36 39.34 47.11 C 36.01 46.72 32.78 46.57 32.15 46.78 C 30.35 47.38 30.79 50.65 33.38 55.78 C 34.68 58.38 36.30 62.98 36.98 66.00 C 39.96 79.38 38.92 148.58 35.53 162.50 C 34.73 165.80 34.06 170.62 34.04 173.21 C 34.00 177.99 36.81 187.02 39.44 190.56 C 42.08 194.11 45.48 190.02 47.39 181.00 C 47.92 178.53 48.05 178.50 58.28 178.49 C 68.64 178.47 68.64 178.47 70.81 186.87 C 73.54 197.45 75.25 199.81 77.87 196.66 Z  M 190.36 183.00 C 186.05 178.98 180.97 177.01 174.84 177.01 C 172.83 177.00 163.61 178.10 154.34 179.43 C 132.04 182.66 113.00 184.42 112.05 183.36 C 111.39 182.61 108.95 129.61 108.99 116.89 C 109.00 112.29 109.00 112.29 116.25 111.65 C 120.24 111.30 124.74 110.73 126.25 110.39 C 129.00 109.77 129.00 109.77 129.00 116.75 C 129.00 125.53 126.78 138.40 123.69 147.50 C 120.13 158.00 119.74 160.00 121.28 160.00 C 124.75 160.00 133.60 147.31 137.08 137.37 C 139.57 130.23 142.00 118.21 142.00 112.97 C 142.00 110.85 142.37 108.89 142.83 108.60 C 143.29 108.32 146.71 107.78 150.43 107.40 C 157.20 106.70 157.20 106.70 156.37 115.60 C 154.09 139.72 157.56 145.05 175.50 144.94 C 185.03 144.88 190.67 143.53 192.30 140.90 C 195.06 136.48 187.37 128.15 182.31 130.07 C 180.97 130.58 177.66 131.00 174.97 131.00 C 171.25 131.00 169.84 130.56 169.09 129.17 C 167.50 126.20 166.88 117.97 167.72 111.00 C 168.50 104.50 168.50 104.50 176.00 103.36 C 180.12 102.73 187.81 101.90 193.08 101.51 C 202.36 100.83 202.76 100.89 205.58 103.32 C 208.50 105.84 208.50 105.84 208.46 120.67 C 208.39 143.65 202.36 174.99 196.25 184.16 C 194.47 186.83 194.47 186.83 190.36 183.00 Z  M 142.42 87.38 C 142.80 81.40 143.55 73.01 144.10 68.73 C 144.65 64.46 144.82 60.52 144.48 59.98 C 144.15 59.43 142.28 58.16 140.33 57.16 C 136.78 55.34 136.78 55.34 146.94 53.56 C 152.53 52.58 157.42 52.09 157.80 52.47 C 158.79 53.45 159.25 94.26 158.29 95.64 C 157.86 96.27 153.95 97.12 149.62 97.52 C 141.74 98.26 141.74 98.26 142.42 87.38 Z  M 67.91 168.81 C 65.55 167.02 64.66 166.94 57.83 167.89 C 53.71 168.46 49.52 169.25 48.53 169.63 C 46.84 170.28 46.76 169.78 47.38 162.41 C 47.88 156.45 49.89 119.69 49.99 114.77 C 49.99 114.38 51.15 114.49 52.57 115.02 C 61.59 118.46 74.46 113.19 72.46 106.88 C 71.50 103.86 67.83 102.93 61.27 104.04 C 48.48 106.22 50.00 109.32 50.00 80.99 C 50.00 56.04 50.00 56.04 52.75 55.48 C 54.26 55.18 57.75 54.31 60.50 53.56 C 71.88 50.46 72.67 50.62 73.94 56.24 C 75.73 64.19 72.72 168.80 70.65 170.63 C 70.57 170.71 69.33 169.89 67.91 168.81 Z "/>
</g>
</svg>