<?xml version="1.0" encoding="UTF-8" standalone="no"?>
<!DOCTYPE svg PUBLIC "-//W3C//DTD SVG 1.1//EN" "http://www.w3.org/Graphics/SVG/1.1/DTD/svg11.dtd" >
<svg xmlns="http://www.w3.org/2000/svg" xmlns:xlink="http://www.w3.org/1999/xlink" version="1.1" viewBox="0 0 256 256">
 <g >
 <path fill="currentColor"
d=" M 167.84 227.93 C 171.34 224.67 174.51 219.04 176.81 212.00 C 181.16 198.69 181.86 186.87 179.68 163.75 C 179.01 156.74 178.70 151.02 178.99 151.05 C 179.42 151.09 198.37 172.87 206.35 182.50 C 208.83 185.50 208.83 185.50 227.17 185.50 C 244.90 185.49 250.00 184.73 250.00 182.09 C 250.00 181.64 246.51 180.03 242.25 178.52 C 233.22 175.34 214.10 165.79 204.90 159.88 C 195.39 153.77 185.00 145.94 185.00 144.88 C 185.00 144.38 187.10 142.51 189.67 140.73 C 192.24 138.95 196.40 135.95 198.92 134.06 C 201.44 132.17 207.21 128.65 211.74 126.24 C 220.86 121.38 221.41 120.86 220.49 117.98 C 219.84 115.92 210.04 108.73 205.58 107.03 C 202.95 106.03 200.00 107.79 200.00 110.35 C 200.00 114.15 192.54 126.50 186.28 133.06 C 179.41 140.27 179.41 140.27 168.20 127.73 C 162.04 120.83 157.00 114.71 157.00 114.13 C 157.00 113.54 159.93 110.71 163.50 107.85 C 170.33 102.38 171.01 100.89 168.40 97.16 C 167.52 95.90 166.95 94.75 167.15 94.61 C 169.40 92.91 191.13 90.28 210.25 89.39 C 225.48 88.69 227.54 88.05 226.82 84.30 C 226.63 83.31 224.23 81.25 221.49 79.71 C 216.83 77.11 215.91 76.95 207.50 77.37 C 202.55 77.61 193.57 78.74 187.55 79.87 C 181.52 81.00 176.43 81.76 176.22 81.56 C 175.26 80.59 196.95 59.58 202.60 56.01 C 206.12 53.79 209.00 51.39 209.00 50.67 C 209.00 49.05 204.61 44.87 200.00 42.11 C 195.66 39.51 191.55 39.44 185.88 41.88 C 183.24 43.02 177.72 44.03 172.00 44.43 C 162.50 45.09 162.50 45.09 168.50 38.88 C 171.80 35.47 175.74 31.58 177.25 30.25 C 178.76 28.91 180.00 26.89 180.00 25.76 C 180.00 20.94 165.55 11.14 160.37 12.44 C 158.27 12.97 157.91 13.50 158.46 15.30 C 160.72 22.75 160.31 25.24 155.16 35.52 C 151.09 43.62 148.69 46.96 142.57 53.00 C 134.54 60.92 133.89 62.52 136.11 68.87 C 137.74 73.56 139.87 74.28 146.69 72.44 C 152.89 70.77 172.00 69.24 172.00 70.41 C 172.00 71.54 163.89 83.38 162.18 84.75 C 161.32 85.44 159.04 86.00 157.11 86.00 C 152.20 86.00 129.71 90.05 128.52 91.15 C 127.34 92.24 132.37 96.67 135.88 97.63 C 137.19 97.99 142.03 97.70 146.63 96.98 C 151.24 96.26 155.26 95.93 155.57 96.24 C 157.20 97.87 144.15 116.63 135.58 124.96 C 131.32 129.10 129.61 133.00 132.05 133.00 C 133.86 133.00 138.42 130.30 140.50 128.00 C 141.60 126.79 144.44 124.65 146.82 123.26 C 150.77 120.95 151.29 120.86 152.73 122.30 C 154.69 124.26 154.29 124.93 142.37 139.64 C 124.40 161.80 123.49 166.65 139.65 154.15 C 144.52 150.39 151.30 144.31 154.72 140.65 C 158.13 136.99 161.15 134.00 161.43 134.00 C 161.70 134.00 162.45 135.77 163.10 137.93 C 164.27 141.85 164.27 141.85 155.44 153.61 C 145.08 167.40 130.74 182.16 119.51 190.57 C 112.18 196.07 109.07 200.00 112.05 200.00 C 114.03 200.00 125.07 194.84 132.00 190.67 C 140.08 185.81 150.11 177.81 160.38 168.01 C 168.26 160.50 168.26 160.50 167.75 178.00 C 167.20 196.98 166.09 202.09 161.86 205.25 C 159.76 206.83 158.74 206.95 154.95 206.07 C 149.15 204.74 143.00 204.72 143.00 206.04 C 143.00 206.96 146.19 210.87 159.47 226.25 C 163.18 230.53 164.72 230.84 167.84 227.93 Z  M 59.59 219.51 C 62.18 215.55 63.04 204.13 63.81 163.31 C 64.21 142.31 64.87 124.80 65.27 124.40 C 65.67 124.00 67.69 125.02 69.75 126.67 C 77.22 132.66 81.39 133.28 82.57 128.58 C 84.05 122.68 77.86 115.83 69.83 114.47 C 66.00 113.82 66.00 113.82 66.00 101.12 C 66.00 88.41 66.00 88.41 74.38 85.68 C 79.04 84.17 84.01 81.80 85.57 80.34 C 88.39 77.73 88.39 77.73 85.49 75.24 C 82.76 72.89 82.09 72.78 74.15 73.27 C 65.72 73.80 65.72 73.80 66.39 61.65 C 67.23 46.71 69.30 32.74 71.44 27.73 C 73.29 23.38 72.69 21.60 68.05 17.69 C 63.71 14.04 54.53 9.79 51.83 10.17 C 48.90 10.59 48.96 13.19 52.08 21.50 C 54.19 27.12 54.34 29.10 54.42 52.49 C 54.51 81.19 56.39 78.14 36.21 82.05 C 19.57 85.27 14.82 86.80 15.19 88.80 C 15.36 89.73 17.08 91.32 19.00 92.33 C 22.05 93.92 24.16 94.08 35.31 93.61 C 50.55 92.96 50.15 90.67 38.81 113.36 C 29.84 131.29 22.99 142.74 13.52 155.59 C 4.43 167.92 4.85 170.44 14.72 162.83 C 25.54 154.48 40.99 135.05 51.02 117.18 C 53.45 112.85 53.45 112.85 54.22 115.68 C 55.08 118.80 52.50 165.80 50.92 175.86 C 50.38 179.35 49.27 185.35 48.46 189.17 C 46.45 198.74 46.61 201.92 49.50 210.20 C 53.66 222.11 56.29 224.54 59.59 219.51 Z  M 82.87 188.91 C 87.24 184.22 86.08 175.85 80.20 169.66 C 76.98 166.28 72.32 163.68 70.97 164.52 C 69.29 165.56 69.95 172.25 72.45 179.31 C 76.54 190.92 78.94 193.13 82.87 188.91 Z  M 106.02 175.45 C 107.98 170.28 102.34 163.14 94.25 160.58 C 92.25 159.94 92.00 160.21 92.00 162.97 C 92.00 169.21 98.53 178.00 103.16 178.00 C 104.26 178.00 105.45 176.94 106.02 175.45 Z  M 125.36 162.17 C 125.51 156.18 121.03 152.04 112.72 150.47 C 109.65 149.90 109.00 150.07 109.00 151.42 C 109.00 155.91 116.79 166.84 121.00 168.26 C 123.40 169.06 125.24 166.49 125.36 162.17 Z  M 90.61 151.86 C 95.90 147.59 113.54 136.00 114.75 136.00 C 115.29 136.00 116.93 137.80 118.38 140.00 C 121.30 144.41 122.45 144.81 125.17 142.35 C 127.72 140.04 127.63 132.69 125.01 129.02 C 123.10 126.33 116.66 123.00 113.37 123.00 C 112.12 123.00 111.91 123.69 112.39 126.25 C 112.99 129.46 112.93 129.52 106.83 131.74 C 103.43 132.98 100.50 133.83 100.31 133.64 C 99.66 133.00 105.64 120.63 111.43 110.64 C 114.57 105.22 120.03 97.12 123.56 92.64 C 127.09 88.16 129.99 83.75 129.99 82.83 C 130.01 80.10 118.94 70.93 116.00 71.24 C 113.68 71.48 113.49 71.89 113.42 77.00 C 113.35 82.53 109.99 94.42 107.72 97.19 C 106.63 98.52 94.14 101.47 93.27 100.60 C 91.96 99.29 106.47 65.83 113.19 54.70 C 116.90 48.55 117.16 47.68 115.99 45.48 C 114.37 42.46 108.49 38.51 103.60 37.16 C 99.03 35.89 98.50 36.80 99.97 43.35 C 100.76 46.91 100.68 49.67 99.61 54.80 C 97.74 63.78 91.74 79.73 86.75 89.00 C 76.91 107.30 77.57 105.24 79.86 110.41 C 81.09 113.20 82.54 115.00 83.54 115.00 C 84.45 115.00 88.98 113.13 93.60 110.84 C 98.22 108.54 102.27 106.94 102.60 107.27 C 103.79 108.46 95.74 123.29 89.39 131.60 C 80.40 143.39 79.55 146.50 83.59 152.75 C 85.48 155.67 85.98 155.60 90.61 151.86 Z  M 156.25 62.26 C 153.36 62.06 151.00 61.64 151.00 61.34 C 151.00 61.03 152.87 58.55 155.15 55.83 C 159.19 51.00 159.39 50.89 163.40 51.58 C 165.65 51.97 171.01 52.56 175.29 52.89 C 183.08 53.50 183.08 53.50 180.06 58.25 C 177.04 63.00 177.04 63.00 169.27 62.82 C 165.00 62.71 159.14 62.46 156.25 62.26 Z "/>
</g>
</svg>