<?xml version="1.0" encoding="UTF-8" standalone="no"?>
<!DOCTYPE svg PUBLIC "-//W3C//DTD SVG 1.1//EN" "http://www.w3.org/Graphics/SVG/1.1/DTD/svg11.dtd" >
<svg xmlns="http://www.w3.org/2000/svg" xmlns:xlink="http://www.w3.org/1999/xlink" version="1.1" viewBox="0 0 256 256">
 <g >
 <path fill="currentColor"
d=" M 166.20 230.05 C 167.57 228.98 169.96 225.27 171.52 221.80 C 175.76 212.40 176.01 199.71 172.47 172.50 C 169.06 146.20 168.93 138.08 171.82 132.00 C 172.99 129.53 173.97 126.72 173.98 125.76 C 174.02 122.06 159.19 114.15 151.70 113.87 C 148.10 113.74 130.19 116.07 115.39 118.59 C 108.46 119.78 103.22 120.07 97.54 119.60 C 93.12 119.23 88.38 118.83 87.00 118.71 C 83.96 118.45 83.87 120.35 86.45 129.87 C 89.38 140.69 86.48 166.02 79.96 186.50 C 75.27 201.22 74.84 204.10 76.49 209.66 C 78.67 217.01 80.19 218.69 83.35 217.25 C 87.95 215.15 91.91 204.71 94.99 186.50 C 96.69 176.50 96.69 176.50 100.59 177.00 C 102.74 177.28 109.90 177.47 116.50 177.43 C 128.19 177.37 138.48 175.47 141.75 172.78 C 143.75 171.14 143.20 168.18 140.58 166.46 C 136.68 163.90 128.52 163.73 112.51 165.85 C 104.26 166.95 97.36 167.70 97.18 167.52 C 97.00 167.33 97.24 164.11 97.72 160.34 C 98.38 155.07 98.91 153.60 100.04 153.92 C 103.78 154.98 123.40 155.09 129.92 154.08 C 139.74 152.56 143.00 150.79 143.00 147.00 C 143.00 145.04 142.24 143.55 140.75 142.57 C 136.36 139.70 131.06 139.78 115.59 142.95 C 107.40 144.63 100.53 146.00 100.34 146.00 C 99.66 146.00 100.05 129.47 100.77 128.42 C 101.18 127.80 110.59 126.56 122.50 125.54 C 145.60 123.56 149.67 123.91 151.69 128.07 C 153.33 131.45 154.75 144.06 155.97 166.00 C 157.49 193.36 157.37 198.32 155.10 201.12 C 153.24 203.42 153.13 203.43 149.69 201.79 C 147.76 200.87 143.33 199.81 139.84 199.43 C 133.50 198.75 133.50 198.75 143.07 208.62 C 148.34 214.06 154.79 221.54 157.41 225.25 C 160.03 228.96 162.53 232.00 162.95 232.00 C 163.38 232.00 164.84 231.12 166.20 230.05 Z  M 23.40 135.64 C 43.88 128.21 60.99 113.91 78.00 90.00 C 80.94 85.88 83.65 82.13 84.03 81.69 C 84.41 81.24 90.30 83.81 97.11 87.39 C 127.68 103.47 174.51 120.00 189.52 120.00 C 197.36 120.00 233.43 112.37 242.29 108.84 C 243.82 108.23 244.91 107.24 244.71 106.64 C 244.11 104.82 238.49 104.05 214.50 102.50 C 186.14 100.66 163.95 97.91 146.23 94.01 C 138.80 92.38 132.50 90.83 132.25 90.58 C 131.99 90.32 132.10 86.54 132.48 82.18 C 133.19 74.25 133.19 74.25 147.34 73.58 C 168.68 72.57 177.00 70.48 177.00 66.13 C 177.00 60.16 166.93 58.65 148.80 61.90 C 142.36 63.06 136.51 64.00 135.80 64.00 C 134.81 64.00 134.58 62.05 134.83 55.95 C 135.21 46.65 134.85 45.98 127.56 42.26 C 122.50 39.68 122.50 39.68 133.00 37.45 C 138.78 36.22 147.53 34.05 152.46 32.61 C 157.38 31.17 162.00 30.00 162.71 30.00 C 164.89 30.00 164.15 33.37 160.84 38.55 C 153.03 50.80 151.94 53.04 153.49 53.63 C 154.30 53.95 156.44 53.29 158.23 52.17 C 168.92 45.53 183.37 38.39 188.92 37.00 C 201.18 33.94 199.75 31.20 181.21 22.24 C 168.71 16.20 168.34 16.17 158.30 20.41 C 145.75 25.73 114.00 31.64 92.73 32.64 C 84.29 33.03 78.21 33.74 77.79 34.39 C 77.03 35.56 81.22 40.48 84.48 42.24 C 88.66 44.51 93.39 44.84 101.40 43.43 C 105.85 42.64 110.28 42.00 111.23 42.00 C 114.37 42.00 118.15 51.33 118.96 61.11 C 119.76 70.75 119.16 86.00 117.99 86.00 C 117.58 86.00 111.02 83.30 103.42 80.00 C 95.81 76.70 89.38 74.00 89.12 74.00 C 88.86 74.00 89.56 72.99 90.68 71.75 C 94.12 67.93 94.24 66.13 91.24 63.30 C 86.64 58.95 79.76 55.00 76.80 55.00 C 74.11 55.00 74.00 55.19 74.00 59.98 C 74.00 65.65 69.07 76.04 59.90 89.68 C 54.06 98.36 36.28 116.65 22.58 128.07 C 17.67 132.16 13.47 136.06 13.25 136.75 C 12.62 138.66 16.17 138.27 23.40 135.64 Z "/>
</g>
</svg>