<?xml version="1.0" encoding="UTF-8" standalone="no"?>
<!DOCTYPE svg PUBLIC "-//W3C//DTD SVG 1.1//EN" "http://www.w3.org/Graphics/SVG/1.1/DTD/svg11.dtd" >
<svg xmlns="http://www.w3.org/2000/svg" xmlns:xlink="http://www.w3.org/1999/xlink" version="1.1" viewBox="0 0 256 256">
 <g >
 <path fill="currentColor"
d=" M 201.58 221.46 C 229.51 213.81 252.15 204.67 250.35 201.76 C 249.89 201.02 238.74 200.91 213.58 201.40 C 189.16 201.87 174.40 201.74 167.99 200.99 C 149.10 198.78 128.16 194.89 111.50 190.50 C 97.19 186.72 78.97 182.09 61.75 177.85 C 58.00 176.92 58.00 176.92 59.86 173.21 C 64.03 164.88 63.52 160.63 56.49 144.99 C 53.98 139.40 52.00 133.47 52.00 131.55 C 52.00 126.37 56.75 114.25 61.33 107.77 C 65.39 102.00 65.39 102.00 63.34 99.25 C 61.04 96.16 53.44 92.95 47.93 92.73 C 45.24 92.62 43.39 93.34 40.89 95.44 C 36.33 99.29 31.95 101.00 26.68 101.00 C 20.50 101.00 16.00 102.75 16.00 105.15 C 16.00 108.18 23.18 110.95 31.11 110.98 C 37.73 111.00 37.73 111.00 38.27 122.75 C 38.88 135.97 40.15 140.36 47.41 154.29 C 52.35 163.75 52.57 164.85 50.91 171.43 C 49.70 176.26 50.99 175.97 23.23 177.64 C 17.58 177.99 12.70 178.68 12.39 179.18 C 11.82 180.11 18.40 189.25 21.98 192.49 C 23.88 194.20 24.30 194.15 33.35 191.15 C 52.38 184.84 62.46 185.99 98.73 198.60 C 158.20 219.27 175.17 224.40 185.58 224.86 C 187.27 224.94 194.47 223.41 201.58 221.46 Z  M 130.79 184.50 C 137.65 178.33 141.67 171.69 145.49 160.19 C 147.27 154.82 149.46 149.00 150.36 147.26 C 153.00 142.17 152.48 139.60 148.25 136.69 C 142.92 133.02 139.58 131.97 133.99 132.22 C 128.32 132.46 127.43 131.93 128.92 129.15 C 130.67 125.88 130.17 123.28 127.37 121.07 C 125.92 119.93 125.00 119.00 125.33 119.00 C 126.38 119.00 152.90 112.98 154.44 112.39 C 156.85 111.46 157.37 108.07 155.44 105.93 C 152.33 102.50 147.55 101.88 140.66 104.04 C 137.27 105.11 134.14 105.98 133.70 105.99 C 133.26 105.99 133.04 103.23 133.20 99.85 C 133.50 93.70 133.50 93.70 140.34 91.83 C 149.87 89.22 153.00 87.44 153.00 84.64 C 153.00 80.57 148.29 79.07 139.69 80.40 C 134.88 81.14 134.88 81.14 135.19 76.42 C 135.50 71.70 135.50 71.70 144.78 67.98 C 149.88 65.93 154.94 63.46 156.03 62.48 C 158.40 60.33 158.62 56.45 156.42 55.61 C 153.53 54.50 145.31 54.98 140.97 56.51 C 138.61 57.34 136.44 57.78 136.15 57.48 C 135.85 57.18 136.21 53.24 136.96 48.72 C 137.71 44.20 138.36 38.25 138.41 35.50 C 138.50 30.55 138.46 30.48 134.00 28.22 C 130.51 26.45 128.16 26.00 123.51 26.22 C 116.62 26.54 115.43 28.19 118.92 32.63 C 121.77 36.24 122.78 40.87 123.17 51.98 C 123.53 62.47 125.65 61.08 97.75 68.64 C 94.04 69.65 91.00 71.01 91.00 71.65 C 91.00 72.30 93.03 73.61 95.52 74.56 C 100.04 76.29 107.85 76.23 119.81 74.39 C 124.11 73.72 124.11 73.72 123.81 79.05 C 123.51 84.23 123.40 84.41 120.00 85.21 C 118.08 85.67 113.80 86.91 110.50 87.96 C 107.20 89.01 102.59 90.37 100.25 90.97 C 95.02 92.33 94.83 94.22 99.69 96.52 C 102.71 97.95 105.07 98.17 112.73 97.71 C 122.10 97.15 122.10 97.15 121.80 102.74 C 121.50 108.32 121.50 108.32 116.00 110.22 C 111.43 111.80 87.91 118.06 77.75 120.40 C 73.67 121.34 74.40 123.35 79.89 126.34 C 86.08 129.71 88.43 129.68 100.59 126.01 C 112.04 122.56 114.49 122.29 113.61 124.58 C 113.27 125.45 113.00 126.73 113.00 127.43 C 113.00 130.30 94.27 156.87 87.32 163.86 C 81.07 170.15 78.49 174.00 80.52 174.00 C 80.81 174.00 84.30 172.36 88.27 170.37 C 93.87 167.55 97.88 164.34 106.08 156.12 C 111.90 150.28 118.00 143.75 119.65 141.61 C 122.64 137.73 122.64 137.73 126.57 138.99 C 132.51 140.90 134.00 142.65 134.00 147.72 C 134.00 152.01 129.29 163.85 125.76 168.42 C 124.30 170.31 124.17 170.30 118.58 168.03 C 115.15 166.64 112.52 166.08 111.97 166.63 C 111.42 167.18 112.30 170.06 114.16 173.85 C 115.87 177.32 117.49 182.15 117.76 184.58 C 118.25 188.94 118.32 189.00 122.02 189.00 C 125.07 189.00 126.73 188.15 130.79 184.50 Z  M 210.00 168.50 C 210.80 167.53 211.09 164.92 210.81 161.10 C 210.26 153.50 207.77 149.84 197.80 141.97 C 193.57 138.63 190.29 135.35 190.52 134.70 C 191.90 130.71 196.99 108.06 197.00 105.88 C 197.00 104.45 196.11 102.14 195.02 100.76 C 193.05 98.24 193.05 98.24 200.77 95.51 C 213.79 90.89 223.00 85.57 223.00 82.65 C 223.00 82.11 222.26 80.83 221.35 79.83 C 218.41 76.58 212.00 77.47 198.26 83.02 C 187.48 87.37 173.29 92.00 170.71 92.00 C 170.26 92.00 171.06 90.09 172.50 87.75 C 173.94 85.41 178.90 75.91 183.52 66.63 C 188.14 57.35 193.51 47.71 195.46 45.22 C 199.57 39.95 199.89 37.17 196.75 34.27 C 193.48 31.24 182.67 26.00 179.69 26.00 C 176.61 26.00 175.35 28.93 177.07 32.13 C 180.64 38.80 172.85 67.28 159.95 94.75 C 155.14 105.00 155.14 105.00 157.90 105.00 C 159.54 105.00 161.60 103.99 163.00 102.50 C 165.11 100.25 166.13 100.00 173.07 100.00 C 182.15 100.00 182.00 99.82 182.00 110.87 C 182.00 117.45 179.89 129.45 178.48 130.85 C 178.24 131.09 176.12 130.56 173.77 129.66 C 168.00 127.46 154.67 124.11 153.79 124.64 C 152.35 125.51 154.36 128.09 159.33 131.74 C 165.70 136.41 173.39 142.99 173.84 144.15 C 174.36 145.51 161.19 158.67 155.92 162.05 C 147.17 167.66 148.83 169.93 159.21 166.56 C 166.24 164.28 174.60 159.12 179.44 154.06 C 182.29 151.08 182.29 151.08 189.22 157.49 C 197.07 164.77 204.53 170.00 207.05 170.00 C 207.99 170.00 209.31 169.33 210.00 168.50 Z  M 70.22 63.25 C 74.87 57.92 74.51 52.81 68.97 45.28 C 64.58 39.31 57.26 35.97 47.05 35.27 C 39.38 34.74 39.00 34.81 39.00 36.80 C 39.00 39.53 49.95 54.01 55.38 58.46 C 59.44 61.78 65.25 64.88 67.60 64.96 C 68.20 64.98 69.38 64.21 70.22 63.25 Z "/>
</g>
</svg>