<?xml version="1.0" encoding="UTF-8" standalone="no"?>
<!DOCTYPE svg PUBLIC "-//W3C//DTD SVG 1.1//EN" "http://www.w3.org/Graphics/SVG/1.1/DTD/svg11.dtd" >
<svg xmlns="http://www.w3.org/2000/svg" xmlns:xlink="http://www.w3.org/1999/xlink" version="1.1" viewBox="0 0 256 256">
 <g >
 <path fill="currentColor"
d=" M 140.50 222.94 C 154.22 221.76 186.30 217.40 193.00 215.82 C 198.90 214.42 202.00 212.41 202.00 210.00 C 202.00 206.85 198.30 206.71 187.00 209.45 C 181.22 210.85 175.71 212.00 174.74 212.00 C 173.08 212.00 173.00 209.31 173.24 165.25 C 173.50 118.50 173.50 118.50 209.25 118.24 C 245.00 117.97 245.00 117.97 245.00 114.49 C 245.00 111.00 245.00 111.00 174.00 111.00 C 103.00 111.00 103.00 111.00 103.00 70.00 C 103.00 29.00 103.00 29.00 59.00 29.00 C 15.00 29.00 15.00 29.00 15.00 103.00 C 15.00 177.00 15.00 177.00 59.00 177.00 C 103.00 177.00 103.00 177.00 103.00 147.46 C 103.00 117.92 103.00 117.92 111.25 118.21 C 119.50 118.50 119.50 118.50 119.76 170.45 C 119.96 210.48 120.30 222.57 121.26 223.18 C 122.90 224.22 126.15 224.18 140.50 222.94 Z  M 245.81 218.29 C 246.05 216.61 244.78 215.07 240.43 211.79 C 221.97 197.87 211.33 187.46 204.72 176.83 C 203.06 174.17 203.06 174.17 208.03 170.98 C 213.48 167.48 235.00 144.87 235.00 142.64 C 235.00 140.48 232.32 138.76 230.06 139.48 C 228.94 139.84 226.00 142.75 223.53 145.96 C 218.13 152.98 208.71 161.67 203.07 164.84 C 198.96 167.15 198.96 167.15 195.63 159.83 C 193.80 155.80 191.08 148.68 189.58 144.00 C 185.57 131.52 184.91 130.02 182.94 128.97 C 180.69 127.76 178.25 128.65 177.52 130.94 C 176.85 133.05 185.28 154.73 192.02 168.20 C 199.14 182.46 204.10 189.28 215.91 201.06 C 232.56 217.67 244.89 224.78 245.81 218.29 Z  M 237.00 57.50 C 237.00 17.00 237.00 17.00 175.00 17.00 C 113.00 17.00 113.00 17.00 113.00 57.50 C 113.00 98.00 113.00 98.00 175.00 98.00 C 237.00 98.00 237.00 98.00 237.00 57.50 Z  M 52.66 139.75 C 52.30 123.66 52.00 93.96 52.00 73.75 C 52.00 37.00 52.00 37.00 58.50 37.00 C 65.00 37.00 65.00 37.00 65.00 103.00 C 65.00 169.00 65.00 169.00 59.16 169.00 C 53.32 169.00 53.32 169.00 52.66 139.75 Z  M 154.00 74.50 C 154.00 58.00 154.00 58.00 161.50 58.00 C 169.00 58.00 169.00 58.00 169.00 74.50 C 169.00 91.00 169.00 91.00 161.50 91.00 C 154.00 91.00 154.00 91.00 154.00 74.50 Z  M 177.00 74.50 C 177.00 58.00 177.00 58.00 185.50 58.00 C 194.00 58.00 194.00 58.00 194.00 74.50 C 194.00 91.00 194.00 91.00 185.50 91.00 C 177.00 91.00 177.00 91.00 177.00 74.50 Z  M 154.67 50.33 C 154.30 49.97 154.00 43.89 154.00 36.83 C 154.00 24.00 154.00 24.00 161.50 24.00 C 169.00 24.00 169.00 24.00 169.00 37.50 C 169.00 51.00 169.00 51.00 162.17 51.00 C 158.41 51.00 155.03 50.70 154.67 50.33 Z  M 177.67 50.33 C 177.30 49.97 177.00 43.89 177.00 36.83 C 177.00 24.00 177.00 24.00 185.50 24.00 C 194.00 24.00 194.00 24.00 194.00 37.50 C 194.00 51.00 194.00 51.00 186.17 51.00 C 181.86 51.00 178.03 50.70 177.67 50.33 Z "/>
</g>
</svg>