<?xml version="1.0" encoding="UTF-8" standalone="no"?>
<!DOCTYPE svg PUBLIC "-//W3C//DTD SVG 1.1//EN" "http://www.w3.org/Graphics/SVG/1.1/DTD/svg11.dtd" >
<svg xmlns="http://www.w3.org/2000/svg" xmlns:xlink="http://www.w3.org/1999/xlink" version="1.1" viewBox="0 0 256 256">
 <g >
 <path fill="currentColor"
d=" M 178.94 222.36 C 182.55 221.45 189.04 219.22 193.38 217.40 C 201.25 214.08 201.25 214.08 210.88 216.56 C 222.22 219.48 239.33 221.64 243.29 220.64 C 249.81 219.00 247.27 214.00 239.93 214.00 C 234.63 214.00 213.95 210.29 212.75 209.13 C 212.34 208.73 215.12 205.83 218.94 202.69 C 227.12 195.96 231.78 190.46 235.39 183.27 C 240.60 172.90 241.23 168.00 241.73 134.24 C 242.19 102.97 242.19 102.97 208.35 103.24 C 174.50 103.50 174.50 103.50 174.19 107.25 C 173.88 111.00 173.88 111.00 187.53 111.00 C 201.19 111.00 201.19 111.00 200.76 142.75 C 200.39 169.58 200.05 175.35 198.55 180.00 C 196.41 186.66 193.27 193.00 192.12 193.00 C 190.91 193.00 186.37 182.52 184.53 175.48 C 182.17 166.48 181.61 153.92 182.94 140.11 C 183.98 129.46 183.94 127.51 182.68 126.26 C 180.32 123.89 177.18 125.60 176.12 129.81 C 174.58 135.98 173.97 155.95 175.02 165.50 C 176.28 176.85 179.17 186.69 183.68 194.96 C 187.19 201.42 187.19 201.42 182.85 205.17 C 180.46 207.23 175.96 210.85 172.86 213.21 C 165.96 218.45 164.41 220.59 166.07 222.58 C 167.60 224.43 170.88 224.37 178.94 222.36 Z  M 147.24 190.75 C 147.50 159.50 147.50 159.50 158.75 159.22 C 170.00 158.93 170.00 158.93 170.00 155.47 C 170.00 152.00 170.00 152.00 158.47 152.00 C 146.95 152.00 146.95 152.00 147.22 136.75 C 147.50 121.50 147.50 121.50 157.75 121.22 C 168.00 120.93 168.00 120.93 168.00 117.47 C 168.00 114.00 168.00 114.00 157.47 114.00 C 146.94 114.00 146.94 114.00 147.22 102.25 C 147.50 90.50 147.50 90.50 161.25 90.22 C 175.00 89.94 175.00 89.94 175.00 55.97 C 175.00 22.00 175.00 22.00 141.00 22.00 C 107.00 22.00 107.00 22.00 107.00 122.00 C 107.00 222.00 107.00 222.00 126.99 222.00 C 146.97 222.00 146.97 222.00 147.24 190.75 Z  M 96.76 157.25 C 96.50 104.50 96.50 104.50 88.25 104.21 C 80.00 103.92 80.00 103.92 80.00 80.99 C 80.00 58.07 80.00 58.07 90.25 57.78 C 100.50 57.50 100.50 57.50 100.81 54.25 C 101.13 51.00 101.13 51.00 90.56 51.00 C 80.00 51.00 80.00 51.00 80.00 32.00 C 80.00 13.00 80.00 13.00 57.52 13.00 C 35.04 13.00 35.04 13.00 34.77 31.75 C 34.50 50.50 34.50 50.50 23.25 50.78 C 12.00 51.07 12.00 51.07 12.00 54.53 C 12.00 58.00 12.00 58.00 23.50 58.00 C 35.00 58.00 35.00 58.00 35.00 81.00 C 35.00 104.00 35.00 104.00 27.00 104.00 C 19.00 104.00 19.00 104.00 19.00 157.00 C 19.00 210.00 19.00 210.00 58.01 210.00 C 97.02 210.00 97.02 210.00 96.76 157.25 Z  M 241.00 56.50 C 241.00 23.00 241.00 23.00 210.94 23.00 C 180.87 23.00 180.87 23.00 181.19 26.25 C 181.50 29.50 181.50 29.50 192.25 29.78 C 203.00 30.07 203.00 30.07 203.00 56.50 C 203.00 82.93 203.00 82.93 191.75 83.22 C 180.50 83.50 180.50 83.50 180.19 86.75 C 179.87 90.00 179.87 90.00 210.44 90.00 C 241.00 90.00 241.00 90.00 241.00 56.50 Z  M 147.00 56.00 C 147.00 30.00 147.00 30.00 157.00 30.00 C 167.00 30.00 167.00 30.00 167.00 56.00 C 167.00 82.00 167.00 82.00 157.00 82.00 C 147.00 82.00 147.00 82.00 147.00 56.00 Z  M 47.00 156.47 C 47.00 111.93 47.00 111.93 57.25 112.22 C 67.50 112.50 67.50 112.50 67.76 156.75 C 68.02 201.00 68.02 201.00 57.51 201.00 C 47.00 201.00 47.00 201.00 47.00 156.47 Z "/>
</g>
</svg>