<?xml version="1.0" encoding="UTF-8" standalone="no"?>
<!DOCTYPE svg PUBLIC "-//W3C//DTD SVG 1.1//EN" "http://www.w3.org/Graphics/SVG/1.1/DTD/svg11.dtd" >
<svg xmlns="http://www.w3.org/2000/svg" xmlns:xlink="http://www.w3.org/1999/xlink" version="1.1" viewBox="0 0 256 256">
 <g >
 <path fill="currentColor"
d=" M 240.00 224.50 C 241.89 222.22 240.62 217.95 234.08 204.57 C 229.55 195.32 226.63 190.82 221.56 185.31 C 214.45 177.58 212.22 176.28 209.04 177.98 C 206.26 179.47 206.48 181.38 209.76 184.16 C 217.74 190.93 226.61 204.56 230.52 216.07 C 231.87 220.02 233.48 223.87 234.11 224.63 C 235.61 226.44 238.45 226.37 240.00 224.50 Z  M 122.78 222.60 C 130.92 218.46 146.33 202.34 153.44 190.53 C 157.52 183.75 158.06 179.47 154.95 178.48 C 152.11 177.58 150.71 179.03 145.89 187.84 C 141.13 196.54 129.90 208.44 120.75 214.49 C 116.11 217.55 115.00 218.81 115.00 220.97 C 115.00 225.74 116.15 225.98 122.78 222.60 Z  M 54.50 203.54 C 75.95 199.93 94.67 196.73 96.11 196.44 C 98.51 195.95 98.81 196.28 99.99 200.70 C 101.67 207.01 103.60 210.00 105.99 210.00 C 107.06 210.00 108.41 209.11 108.99 208.02 C 109.84 206.43 108.87 202.96 104.04 190.27 C 98.34 175.33 96.38 172.00 93.28 172.00 C 90.79 172.00 90.69 175.18 93.00 181.71 C 95.69 189.32 95.59 189.46 86.63 190.45 C 83.26 190.82 79.49 191.37 78.25 191.67 C 76.00 192.22 76.00 192.22 76.00 176.61 C 76.00 161.00 76.00 161.00 88.50 161.00 C 101.00 161.00 101.00 161.00 101.00 108.00 C 101.00 55.00 101.00 55.00 88.50 55.00 C 76.00 55.00 76.00 55.00 76.00 34.00 C 76.00 13.00 76.00 13.00 57.02 13.00 C 38.04 13.00 38.04 13.00 37.77 33.75 C 37.50 54.50 37.50 54.50 25.25 54.78 C 13.00 55.06 13.00 55.06 13.00 108.03 C 13.00 161.00 13.00 161.00 25.50 161.00 C 38.00 161.00 38.00 161.00 38.00 179.50 C 38.00 189.68 37.84 198.00 37.65 198.00 C 36.24 198.00 10.66 203.01 10.31 203.36 C 10.07 203.60 10.18 205.45 10.56 207.47 C 11.14 210.59 11.58 211.07 13.38 210.64 C 14.54 210.35 33.05 207.16 54.50 203.54 Z  M 248.00 169.00 C 248.00 165.00 248.00 165.00 217.14 165.00 C 186.28 165.00 186.28 165.00 186.74 162.57 C 187.33 159.51 182.93 151.26 178.18 146.52 C 174.19 142.53 173.75 142.40 171.57 144.57 C 169.33 146.81 169.49 147.30 174.53 153.48 C 177.02 156.54 179.33 160.38 179.65 162.02 C 180.25 165.00 180.25 165.00 146.12 165.00 C 112.00 165.00 112.00 165.00 112.00 169.00 C 112.00 173.00 112.00 173.00 180.00 173.00 C 248.00 173.00 248.00 173.00 248.00 169.00 Z  M 240.00 102.50 C 240.00 65.00 240.00 65.00 178.50 65.00 C 117.00 65.00 117.00 65.00 117.00 102.50 C 117.00 140.00 117.00 140.00 178.50 140.00 C 240.00 140.00 240.00 140.00 240.00 102.50 Z  M 156.84 40.50 C 156.50 26.00 156.50 26.00 177.22 26.00 C 197.95 26.00 197.95 26.00 198.22 40.25 C 198.50 54.50 198.50 54.50 221.75 54.77 C 245.00 55.04 245.00 55.04 245.00 37.02 C 245.00 19.00 245.00 19.00 178.00 19.00 C 111.00 19.00 111.00 19.00 111.00 37.00 C 111.00 55.00 111.00 55.00 134.09 55.00 C 157.19 55.00 157.19 55.00 156.84 40.50 Z  M 32.00 108.50 C 32.00 63.00 32.00 63.00 35.00 63.00 C 38.00 63.00 38.00 63.00 38.00 108.50 C 38.00 154.00 38.00 154.00 35.00 154.00 C 32.00 154.00 32.00 154.00 32.00 108.50 Z  M 76.00 108.50 C 76.00 63.00 76.00 63.00 79.50 63.00 C 83.00 63.00 83.00 63.00 83.00 108.50 C 83.00 154.00 83.00 154.00 79.50 154.00 C 76.00 154.00 76.00 154.00 76.00 108.50 Z  M 165.22 117.75 C 165.50 103.50 165.50 103.50 178.25 103.22 C 191.00 102.94 191.00 102.94 191.00 117.47 C 191.00 132.00 191.00 132.00 177.97 132.00 C 164.95 132.00 164.95 132.00 165.22 117.75 Z  M 165.00 84.00 C 165.00 72.00 165.00 72.00 178.00 72.00 C 191.00 72.00 191.00 72.00 191.00 84.00 C 191.00 96.00 191.00 96.00 178.00 96.00 C 165.00 96.00 165.00 96.00 165.00 84.00 Z "/>
</g>
</svg>