<?xml version="1.0" encoding="UTF-8" standalone="no"?>
<!DOCTYPE svg PUBLIC "-//W3C//DTD SVG 1.1//EN" "http://www.w3.org/Graphics/SVG/1.1/DTD/svg11.dtd" >
<svg xmlns="http://www.w3.org/2000/svg" xmlns:xlink="http://www.w3.org/1999/xlink" version="1.1" viewBox="0 0 256 256">
 <g >
 <path fill="currentColor"
d=" M 187.27 223.39 C 202.19 218.60 211.10 213.81 219.10 206.26 C 226.65 199.15 230.27 192.31 231.93 182.00 C 232.55 178.17 232.99 157.53 232.99 131.75 C 233.00 88.00 233.00 88.00 238.50 88.00 C 244.00 88.00 244.00 88.00 244.00 84.49 C 244.00 80.97 244.00 80.97 212.25 81.24 C 180.50 81.50 180.50 81.50 180.19 84.75 C 179.87 88.00 179.87 88.00 185.50 88.00 C 191.14 88.00 191.14 88.00 190.74 136.75 C 190.38 181.62 190.19 186.11 188.34 193.13 C 186.24 201.12 182.79 207.88 178.06 213.29 C 172.40 219.77 169.91 224.19 171.12 225.64 C 172.79 227.66 174.92 227.36 187.27 223.39 Z  M 69.03 147.25 C 69.05 72.50 69.05 72.50 73.13 70.00 C 78.11 66.94 80.94 63.15 81.69 58.51 C 82.26 55.00 82.26 55.00 71.34 55.00 C 60.41 55.00 60.41 55.00 59.26 59.32 C 57.55 65.72 55.94 66.15 31.75 66.76 C 11.00 67.28 11.00 67.28 11.00 70.59 C 11.00 73.90 11.00 73.90 17.25 74.20 C 23.50 74.50 23.50 74.50 23.76 148.25 C 24.01 222.00 24.01 222.00 46.51 222.00 C 69.00 222.00 69.00 222.00 69.03 147.25 Z  M 96.38 215.49 C 121.59 211.10 135.09 203.17 142.17 188.59 C 144.41 183.98 144.41 183.98 148.80 188.24 C 151.21 190.58 157.01 197.36 161.70 203.30 C 166.38 209.24 170.72 213.93 171.35 213.72 C 171.98 213.51 172.63 211.79 172.80 209.90 C 173.19 205.34 166.19 195.28 154.51 183.60 C 148.29 177.38 146.00 174.40 146.00 172.54 C 146.00 170.00 146.00 170.00 163.50 170.00 C 181.00 170.00 181.00 170.00 181.00 166.00 C 181.00 162.00 181.00 162.00 164.00 162.00 C 147.00 162.00 147.00 162.00 147.00 155.00 C 147.00 148.00 147.00 148.00 126.00 148.00 C 105.00 148.00 105.00 148.00 105.00 155.00 C 105.00 162.00 105.00 162.00 90.00 162.00 C 75.00 162.00 75.00 162.00 75.00 166.00 C 75.00 170.00 75.00 170.00 89.38 170.00 C 103.75 170.00 103.75 170.00 103.33 174.75 C 102.51 183.87 100.87 192.34 99.39 195.22 C 97.02 199.80 91.07 205.87 84.79 210.15 C 74.64 217.04 78.17 218.67 96.38 215.49 Z  M 179.00 107.00 C 179.00 70.00 179.00 70.00 165.56 70.00 C 152.11 70.00 152.11 70.00 157.02 62.87 C 163.65 53.25 165.35 48.51 164.82 41.13 C 164.23 32.98 161.26 28.80 153.23 24.82 C 147.31 21.88 146.52 21.74 138.98 22.32 C 131.00 22.94 131.00 22.94 131.00 16.97 C 131.00 11.00 131.00 11.00 110.50 11.00 C 90.00 11.00 90.00 11.00 89.99 25.75 C 89.98 43.87 88.82 51.69 84.97 59.62 C 83.34 62.99 82.00 66.03 82.00 66.37 C 82.00 68.48 97.03 64.50 106.24 59.95 C 119.29 53.50 123.83 48.89 128.52 37.33 C 131.15 30.86 132.11 30.33 141.79 30.12 C 147.72 29.99 153.87 32.54 156.43 36.21 C 158.43 39.06 158.44 46.00 156.47 50.73 C 155.62 52.75 153.19 56.67 151.05 59.45 C 148.91 62.23 146.61 65.74 145.92 67.25 C 144.68 70.00 144.68 70.00 110.84 70.00 C 77.00 70.00 77.00 70.00 77.00 107.00 C 77.00 144.00 77.00 144.00 128.00 144.00 C 179.00 144.00 179.00 144.00 179.00 107.00 Z  M 69.09 29.37 C 74.82 26.73 77.52 23.12 80.03 14.75 C 80.86 12.00 80.86 12.00 70.02 12.00 C 59.18 12.00 59.18 12.00 58.52 15.89 C 58.14 18.10 56.78 20.80 55.35 22.14 C 52.91 24.44 52.33 24.51 31.92 24.81 C 11.00 25.11 11.00 25.11 11.00 28.64 C 11.00 32.17 11.00 32.17 37.75 31.83 C 62.47 31.51 64.85 31.33 69.09 29.37 Z  M 237.00 25.00 C 237.00 21.00 237.00 21.00 209.50 21.00 C 182.00 21.00 182.00 21.00 182.00 24.33 C 182.00 26.17 182.30 27.97 182.67 28.33 C 183.03 28.70 195.41 29.00 210.17 29.00 C 237.00 29.00 237.00 29.00 237.00 25.00 Z  M 110.00 123.45 C 110.00 109.90 110.00 109.90 116.25 110.20 C 122.50 110.50 122.50 110.50 122.78 123.75 C 123.06 137.00 123.06 137.00 116.53 137.00 C 110.00 137.00 110.00 137.00 110.00 123.45 Z  M 130.22 123.75 C 130.50 110.50 130.50 110.50 138.25 110.21 C 146.00 109.92 146.00 109.92 146.00 123.46 C 146.00 137.00 146.00 137.00 137.97 137.00 C 129.94 137.00 129.94 137.00 130.22 123.75 Z  M 110.00 89.95 C 110.00 77.90 110.00 77.90 116.25 78.20 C 122.50 78.50 122.50 78.50 122.78 90.25 C 123.06 102.00 123.06 102.00 116.53 102.00 C 110.00 102.00 110.00 102.00 110.00 89.95 Z  M 130.22 90.25 C 130.50 78.50 130.50 78.50 138.25 78.21 C 146.00 77.92 146.00 77.92 146.00 89.96 C 146.00 102.00 146.00 102.00 137.97 102.00 C 129.94 102.00 129.94 102.00 130.22 90.25 Z "/>
</g>
</svg>