<?xml version="1.0" encoding="UTF-8" standalone="no"?>
<!DOCTYPE svg PUBLIC "-//W3C//DTD SVG 1.1//EN" "http://www.w3.org/Graphics/SVG/1.1/DTD/svg11.dtd" >
<svg xmlns="http://www.w3.org/2000/svg" xmlns:xlink="http://www.w3.org/1999/xlink" version="1.1" viewBox="0 0 256 256">
 <g >
 <path fill="currentColor"
d=" M 197.24 189.32 C 197.50 153.64 197.50 153.64 204.00 165.33 C 214.69 184.56 223.37 197.36 231.43 205.80 C 239.04 213.76 243.61 216.75 246.48 215.65 C 249.76 214.39 248.05 210.47 241.37 203.96 C 233.34 196.13 228.06 189.38 220.23 176.93 C 213.53 166.28 202.00 145.42 202.00 143.96 C 202.00 143.37 210.75 143.00 224.50 143.00 C 247.00 143.00 247.00 143.00 247.00 139.50 C 247.00 136.00 247.00 136.00 222.00 136.00 C 197.00 136.00 197.00 136.00 197.00 125.00 C 197.00 114.00 197.00 114.00 218.00 114.00 C 239.00 114.00 239.00 114.00 239.00 68.50 C 239.00 23.00 239.00 23.00 179.00 23.00 C 119.00 23.00 119.00 23.00 119.00 68.50 C 119.00 114.00 119.00 114.00 139.00 114.00 C 159.00 114.00 159.00 114.00 159.00 125.00 C 159.00 136.00 159.00 136.00 135.50 136.00 C 112.00 136.00 112.00 136.00 112.00 139.50 C 112.00 143.00 112.00 143.00 134.00 143.00 C 149.37 143.00 156.00 143.33 156.00 144.10 C 156.00 146.58 147.67 162.73 141.71 171.80 C 133.90 183.68 125.80 193.90 115.59 204.72 C 107.44 213.37 106.37 216.25 111.11 216.80 C 113.15 217.04 115.21 215.66 120.81 210.30 C 128.81 202.65 148.82 177.15 154.66 167.16 C 158.50 160.59 158.50 160.59 158.76 192.80 C 159.03 225.00 159.03 225.00 178.00 225.00 C 196.97 225.00 196.97 225.00 197.24 189.32 Z  M 64.86 219.86 C 84.05 213.76 100.00 203.70 104.61 194.79 C 106.91 190.34 108.10 171.10 107.78 143.50 C 107.50 118.50 107.50 118.50 81.25 118.23 C 55.00 117.97 55.00 117.97 55.00 84.98 C 55.00 52.00 55.00 52.00 38.00 52.00 C 21.00 52.00 21.00 52.00 21.00 88.50 C 21.00 125.00 21.00 125.00 43.61 125.00 C 66.22 125.00 66.22 125.00 65.73 154.25 C 65.08 192.96 64.22 195.87 48.87 211.56 C 40.01 220.62 38.90 222.34 41.25 223.40 C 43.85 224.57 55.58 222.81 64.86 219.86 Z  M 60.00 154.00 C 60.00 150.00 60.00 150.00 38.00 150.00 C 16.00 150.00 16.00 150.00 16.00 154.00 C 16.00 158.00 16.00 158.00 38.00 158.00 C 60.00 158.00 60.00 158.00 60.00 154.00 Z  M 107.00 65.00 C 107.00 24.00 107.00 24.00 62.50 24.00 C 18.00 24.00 18.00 24.00 18.00 27.50 C 18.00 31.00 18.00 31.00 41.00 31.00 C 64.00 31.00 64.00 31.00 64.00 68.50 C 64.00 106.00 64.00 106.00 85.50 106.00 C 107.00 106.00 107.00 106.00 107.00 65.00 Z  M 148.00 88.50 C 148.00 70.00 148.00 70.00 153.50 70.00 C 159.00 70.00 159.00 70.00 159.00 88.50 C 159.00 107.00 159.00 107.00 153.50 107.00 C 148.00 107.00 148.00 107.00 148.00 88.50 Z  M 197.00 88.50 C 197.00 70.00 197.00 70.00 203.00 70.00 C 209.00 70.00 209.00 70.00 209.00 88.50 C 209.00 107.00 209.00 107.00 203.00 107.00 C 197.00 107.00 197.00 107.00 197.00 88.50 Z  M 148.67 62.33 C 148.30 61.97 148.00 54.77 148.00 46.33 C 148.00 31.00 148.00 31.00 153.50 31.00 C 159.00 31.00 159.00 31.00 159.00 47.00 C 159.00 63.00 159.00 63.00 154.17 63.00 C 151.51 63.00 149.03 62.70 148.67 62.33 Z  M 197.67 62.33 C 197.30 61.97 197.00 54.77 197.00 46.33 C 197.00 31.00 197.00 31.00 203.00 31.00 C 209.00 31.00 209.00 31.00 209.00 47.00 C 209.00 63.00 209.00 63.00 203.67 63.00 C 200.73 63.00 198.03 62.70 197.67 62.33 Z "/>
</g>
</svg>