<?xml version="1.0" encoding="UTF-8" standalone="no"?>
<!DOCTYPE svg PUBLIC "-//W3C//DTD SVG 1.1//EN" "http://www.w3.org/Graphics/SVG/1.1/DTD/svg11.dtd" >
<svg xmlns="http://www.w3.org/2000/svg" xmlns:xlink="http://www.w3.org/1999/xlink" version="1.1" viewBox="0 0 256 256">
 <g >
 <path fill="currentColor"
d=" M 46.00 234.50 C 46.00 225.00 46.00 225.00 129.50 225.00 C 213.00 225.00 213.00 225.00 213.00 234.50 C 213.00 244.00 213.00 244.00 222.48 244.00 C 231.96 244.00 231.96 244.00 232.23 141.75 C 232.50 39.50 232.50 39.50 234.68 35.99 C 236.86 32.49 236.86 32.49 228.70 26.77 C 220.53 21.06 220.53 21.06 217.43 24.07 C 214.32 27.08 214.32 27.08 123.41 26.71 C 73.41 26.50 31.26 25.98 29.75 25.55 C 27.00 24.77 27.00 24.77 27.00 134.38 C 27.00 244.00 27.00 244.00 36.50 244.00 C 46.00 244.00 46.00 244.00 46.00 234.50 Z  M 46.00 126.00 C 46.00 44.00 46.00 44.00 67.00 44.00 C 88.00 44.00 88.00 44.00 88.00 126.00 C 88.00 208.00 88.00 208.00 67.00 208.00 C 46.00 208.00 46.00 208.00 46.00 126.00 Z  M 106.00 185.50 C 106.00 163.00 106.00 163.00 129.50 163.00 C 153.00 163.00 153.00 163.00 153.00 185.50 C 153.00 208.00 153.00 208.00 129.50 208.00 C 106.00 208.00 106.00 208.00 106.00 185.50 Z  M 171.00 126.00 C 171.00 44.00 171.00 44.00 192.00 44.00 C 213.00 44.00 213.00 44.00 213.00 126.00 C 213.00 208.00 213.00 208.00 192.00 208.00 C 171.00 208.00 171.00 208.00 171.00 126.00 Z  M 106.00 125.50 C 106.00 103.00 106.00 103.00 129.50 103.00 C 153.00 103.00 153.00 103.00 153.00 125.50 C 153.00 148.00 153.00 148.00 129.50 148.00 C 106.00 148.00 106.00 148.00 106.00 125.50 Z  M 106.00 66.00 C 106.00 44.00 106.00 44.00 129.50 44.00 C 153.00 44.00 153.00 44.00 153.00 66.00 C 153.00 88.00 153.00 88.00 129.50 88.00 C 106.00 88.00 106.00 88.00 106.00 66.00 Z "/>
</g>
</svg>