<?xml version="1.0" encoding="UTF-8" standalone="no"?>
<!DOCTYPE svg PUBLIC "-//W3C//DTD SVG 1.1//EN" "http://www.w3.org/Graphics/SVG/1.1/DTD/svg11.dtd" >
<svg xmlns="http://www.w3.org/2000/svg" xmlns:xlink="http://www.w3.org/1999/xlink" version="1.1" viewBox="0 0 256 256">
 <g >
 <path fill="currentColor"
d=" M 100.72 235.84 C 119.29 216.96 127.25 202.57 132.66 178.14 C 133.91 172.45 134.49 163.35 134.92 142.50 C 135.50 114.50 135.50 114.50 160.19 114.23 C 184.88 113.97 184.88 113.97 185.19 170.23 C 185.55 234.77 185.14 231.79 194.42 237.48 C 199.34 240.50 199.35 240.50 214.92 240.50 C 228.56 240.50 230.90 240.26 233.70 238.56 C 241.89 233.61 244.98 223.60 247.51 193.81 C 248.16 186.12 248.16 186.12 243.85 184.96 C 241.47 184.32 237.45 182.74 234.90 181.45 C 230.27 179.10 230.27 179.10 229.61 187.80 C 228.42 203.55 226.91 216.46 225.99 218.70 C 224.55 222.20 219.69 224.14 213.21 223.80 C 203.53 223.29 203.92 225.88 204.23 164.50 C 204.49 113.66 204.55 112.40 206.65 107.84 C 208.81 103.18 208.81 103.18 200.87 97.59 C 196.50 94.52 192.67 92.00 192.36 92.00 C 192.04 92.00 190.88 93.16 189.76 94.57 C 187.74 97.15 187.74 97.15 155.62 96.68 C 137.95 96.42 122.04 95.89 120.25 95.49 C 117.00 94.77 117.00 94.77 116.98 119.14 C 116.96 156.21 115.20 171.72 108.93 190.06 C 105.97 198.72 103.44 203.62 99.12 209.05 C 95.34 213.80 80.25 228.34 76.11 231.22 C 73.71 232.89 73.71 232.89 77.11 235.64 C 78.97 237.15 82.30 240.28 84.49 242.59 C 88.48 246.78 88.49 246.79 90.99 244.99 C 92.37 244.00 96.75 239.88 100.72 235.84 Z  M 33.18 207.52 C 36.11 206.18 51.32 200.61 67.00 195.14 C 95.50 185.19 95.50 185.19 96.00 176.09 C 96.34 169.87 96.15 167.00 95.41 167.00 C 94.50 167.00 70.59 175.20 64.75 177.52 C 63.10 178.17 63.00 175.71 63.00 134.11 C 63.00 90.00 63.00 90.00 78.50 90.00 C 88.53 90.00 94.00 89.63 94.00 88.96 C 94.00 88.39 93.04 84.09 91.86 79.39 C 89.76 71.02 89.67 70.87 87.11 71.56 C 80.82 73.26 76.05 73.92 69.75 73.96 C 63.00 74.00 63.00 74.00 63.00 49.52 C 63.00 29.26 63.28 24.34 64.63 20.98 C 65.52 18.74 66.08 16.79 65.88 16.63 C 65.67 16.48 61.67 15.35 57.00 14.12 C 52.33 12.89 47.72 11.66 46.76 11.38 C 45.15 10.91 45.01 13.01 44.76 42.19 C 44.50 73.50 44.50 73.50 28.19 73.78 C 13.30 74.03 11.92 74.20 12.36 75.78 C 12.63 76.72 13.40 80.73 14.07 84.68 C 15.74 94.49 15.68 94.43 22.10 92.62 C 25.07 91.79 31.32 90.97 36.00 90.80 C 44.50 90.50 44.50 90.50 44.50 136.94 C 44.50 183.38 44.50 183.38 27.00 188.27 C 17.38 190.95 8.75 193.46 7.84 193.83 C 6.12 194.53 5.90 194.07 16.71 212.26 C 18.92 215.98 18.92 215.98 23.39 212.97 C 25.85 211.31 30.25 208.86 33.18 207.52 Z  M 173.25 66.32 C 209.96 66.11 239.98 65.61 239.96 65.22 C 239.86 63.53 235.36 46.03 234.91 45.57 C 234.63 45.30 232.18 45.80 229.45 46.70 C 225.44 48.02 218.63 48.40 193.50 48.72 C 163.09 49.10 162.56 49.07 165.50 47.27 C 167.15 46.26 170.41 44.60 172.75 43.57 C 175.09 42.54 177.00 41.50 177.00 41.27 C 177.00 40.09 163.63 17.68 158.50 10.25 C 158.12 9.70 143.00 16.43 143.00 17.15 C 143.00 17.57 144.39 20.27 146.09 23.15 C 149.37 28.71 159.00 47.61 159.00 48.48 C 159.00 48.77 144.77 49.00 127.38 49.00 C 95.77 49.00 95.77 49.00 96.36 51.25 C 96.68 52.49 97.72 56.80 98.68 60.83 C 100.41 68.17 100.41 68.17 103.45 67.43 C 105.13 67.03 136.54 66.53 173.25 66.32 Z "/>
</g>
</svg>