<?xml version="1.0" encoding="UTF-8" standalone="no"?>
<!DOCTYPE svg PUBLIC "-//W3C//DTD SVG 1.1//EN" "http://www.w3.org/Graphics/SVG/1.1/DTD/svg11.dtd" >
<svg xmlns="http://www.w3.org/2000/svg" xmlns:xlink="http://www.w3.org/1999/xlink" version="1.1" viewBox="0 0 256 256">
 <g >
 <path fill="currentColor"
d=" M 63.24 152.26 C 63.50 59.52 63.50 59.52 71.90 72.01 C 76.51 78.88 80.65 84.91 81.10 85.40 C 81.88 86.27 96.00 75.66 96.00 74.21 C 96.00 72.97 82.87 55.95 77.59 50.34 C 72.50 44.94 72.50 44.94 68.00 47.96 C 63.50 50.98 63.50 50.98 63.22 38.34 C 63.01 28.72 63.33 24.53 64.57 20.79 C 65.47 18.08 66.05 15.75 65.85 15.61 C 65.66 15.47 61.67 14.35 57.00 13.12 C 52.33 11.89 47.71 10.65 46.75 10.37 C 45.09 9.89 45.00 15.94 45.00 127.43 C 45.00 245.00 45.00 245.00 53.99 245.00 C 62.99 245.00 62.99 245.00 63.24 152.26 Z  M 221.09 234.88 C 232.73 229.42 237.03 221.53 240.53 199.21 C 241.89 190.57 243.00 183.22 243.00 182.89 C 243.00 182.55 240.86 181.48 238.25 180.52 C 235.64 179.55 231.63 177.74 229.34 176.50 C 225.17 174.24 225.17 174.24 223.98 182.87 C 222.17 195.92 219.22 209.67 217.52 212.97 C 216.68 214.59 214.04 217.06 211.66 218.46 C 207.32 221.00 207.32 221.00 172.41 221.00 C 139.16 220.99 137.34 220.90 134.19 218.97 C 127.99 215.19 127.95 214.87 128.24 164.76 C 128.50 119.50 128.50 119.50 162.41 119.24 C 196.32 118.97 196.32 118.97 195.64 137.63 C 195.10 152.53 194.60 157.11 193.13 160.39 C 189.99 167.40 188.05 168.46 177.65 168.81 C 172.62 168.99 164.45 168.72 159.50 168.21 C 154.55 167.71 150.36 167.41 150.18 167.55 C 150.00 167.69 150.79 170.82 151.93 174.51 C 153.07 178.19 154.00 182.36 154.00 183.76 C 154.00 186.31 154.00 186.31 169.25 185.66 C 189.37 184.80 196.41 183.58 202.05 179.96 C 209.81 174.99 211.35 169.41 213.00 140.50 C 214.22 119.02 214.51 116.94 217.09 111.85 C 218.94 108.20 218.94 108.20 211.50 102.60 C 207.41 99.52 203.78 97.00 203.43 97.00 C 203.07 97.00 201.90 98.12 200.82 99.50 C 198.85 102.00 198.85 102.00 161.26 102.00 C 138.31 102.00 121.19 101.57 117.32 100.89 C 110.97 99.79 110.97 99.79 123.85 87.14 C 137.34 73.89 148.84 60.06 157.88 46.23 C 163.25 38.00 163.25 38.00 169.22 46.75 C 172.50 51.56 177.60 58.45 180.55 62.05 C 187.18 70.16 203.48 86.01 211.50 92.14 C 218.88 97.78 234.50 108.01 235.65 107.96 C 236.12 107.94 238.83 104.47 241.67 100.25 C 246.83 92.57 246.83 92.57 239.89 88.81 C 215.51 75.58 193.34 54.94 177.64 30.85 C 174.54 26.09 172.00 21.54 172.00 20.73 C 172.00 19.93 172.91 18.12 174.02 16.70 C 175.13 15.29 175.64 13.89 175.15 13.59 C 173.64 12.66 157.73 6.93 157.46 7.22 C 157.32 7.38 155.80 11.10 154.09 15.50 C 149.82 26.47 146.59 32.43 139.04 43.25 C 130.72 55.16 106.68 79.29 93.21 89.26 C 87.54 93.45 82.82 97.10 82.71 97.38 C 82.43 98.04 94.07 112.00 94.89 112.00 C 95.24 112.00 98.52 109.30 102.18 106.00 C 105.83 102.70 109.07 100.00 109.37 100.00 C 109.68 100.00 110.06 127.11 110.21 160.25 C 110.50 220.50 110.50 220.50 113.00 224.96 C 114.38 227.41 117.38 230.73 119.67 232.34 C 127.29 237.69 129.73 237.93 174.50 237.70 C 215.50 237.50 215.50 237.50 221.09 234.88 Z  M 27.47 129.75 C 27.78 127.96 30.00 114.45 32.41 99.73 C 34.82 85.00 37.36 72.28 38.04 71.45 C 38.72 70.63 39.11 69.78 38.89 69.57 C 38.44 69.12 20.94 64.00 19.87 64.00 C 19.48 64.00 18.87 67.04 18.52 70.75 C 17.05 86.22 13.72 111.10 12.00 119.50 C 10.99 124.44 10.38 128.72 10.65 129.00 C 11.28 129.64 22.95 132.78 25.20 132.90 C 26.38 132.97 27.08 131.99 27.47 129.75 Z "/>
</g>
</svg>