<?xml version="1.0" encoding="UTF-8" standalone="no"?>
<!DOCTYPE svg PUBLIC "-//W3C//DTD SVG 1.1//EN" "http://www.w3.org/Graphics/SVG/1.1/DTD/svg11.dtd" >
<svg xmlns="http://www.w3.org/2000/svg" xmlns:xlink="http://www.w3.org/1999/xlink" version="1.1" viewBox="0 0 256 256">
 <g >
 <path fill="currentColor"
d=" M 61.24 179.25 C 61.50 113.50 61.50 113.50 70.37 128.00 C 75.24 135.97 79.34 142.62 79.47 142.77 C 79.68 143.01 92.76 135.40 93.92 134.36 C 94.45 133.89 71.34 99.33 69.90 98.44 C 69.33 98.08 67.87 98.65 66.68 99.69 C 60.61 105.00 61.00 105.69 61.00 89.62 C 61.00 75.00 61.00 75.00 75.00 75.00 C 88.45 75.00 89.00 74.92 89.00 72.95 C 89.00 70.92 86.03 56.80 85.48 56.18 C 85.32 56.00 83.23 56.52 80.84 57.33 C 78.46 58.13 73.01 59.12 68.75 59.51 C 61.00 60.23 61.00 60.23 61.00 42.14 C 61.00 27.76 61.33 23.20 62.63 19.98 C 63.52 17.74 64.08 15.79 63.88 15.63 C 63.67 15.48 59.90 14.35 55.50 13.12 C 51.10 11.89 46.71 10.66 45.75 10.38 C 44.12 9.90 44.00 11.53 44.00 34.93 C 44.00 60.00 44.00 60.00 25.93 60.00 C 9.20 60.00 7.90 60.13 8.38 61.75 C 8.66 62.71 9.41 66.25 10.04 69.61 C 11.72 78.44 11.50 78.29 19.89 76.52 C 23.87 75.69 30.47 75.00 34.54 75.00 C 43.05 75.00 42.50 72.90 38.89 91.61 C 34.22 115.76 27.02 136.71 15.42 159.90 C 7.22 176.31 7.22 176.31 13.08 183.68 C 18.94 191.06 18.94 191.06 22.35 184.28 C 27.68 173.66 35.35 155.54 39.61 143.50 C 43.50 132.50 43.50 132.50 43.76 188.75 C 44.02 245.00 44.02 245.00 52.50 245.00 C 60.99 245.00 60.99 245.00 61.24 179.25 Z  M 125.80 237.75 C 126.09 231.00 126.09 231.00 161.55 231.00 C 197.00 231.00 197.00 231.00 197.00 238.00 C 197.00 245.00 197.00 245.00 205.50 245.00 C 214.00 245.00 214.00 245.00 214.00 204.00 C 214.00 181.45 214.25 163.00 214.55 163.00 C 214.84 163.00 218.33 165.18 222.30 167.84 C 226.26 170.50 231.61 173.90 234.19 175.40 C 238.88 178.12 238.88 178.12 244.44 169.82 C 250.00 161.52 250.00 161.52 242.09 157.87 C 226.04 150.46 211.34 139.19 201.10 126.46 C 197.74 122.29 195.00 118.46 195.00 117.94 C 195.00 117.38 205.28 117.00 220.61 117.00 C 242.13 117.00 246.13 116.78 245.68 115.60 C 245.38 114.83 244.61 111.52 243.97 108.25 C 242.33 99.91 242.15 99.73 236.91 100.93 C 234.33 101.53 216.18 101.96 193.14 101.98 C 159.19 102.00 153.86 101.80 154.34 100.55 C 154.65 99.76 156.10 95.71 157.58 91.55 C 160.26 84.00 160.26 84.00 194.63 84.00 C 213.53 84.00 228.98 83.66 228.95 83.25 C 228.93 82.84 228.11 78.67 227.14 74.00 C 225.14 64.32 226.20 64.84 213.66 67.40 C 204.00 69.37 165.00 69.74 165.00 67.86 C 165.00 67.24 165.53 62.74 166.18 57.86 C 167.36 49.00 167.36 49.00 201.68 49.00 C 220.56 49.00 235.98 48.66 235.97 48.25 C 235.89 46.52 232.19 31.86 231.71 31.38 C 231.42 31.09 229.46 31.40 227.34 32.07 C 224.89 32.85 213.66 33.45 196.25 33.74 C 169.00 34.19 169.00 34.19 169.00 30.80 C 169.00 28.94 169.65 24.93 170.44 21.88 C 171.23 18.84 172.02 15.74 172.19 14.99 C 172.41 14.02 169.95 13.13 163.50 11.88 C 158.55 10.91 153.95 10.09 153.28 10.06 C 152.40 10.02 151.98 13.29 151.78 21.75 C 151.50 33.50 151.50 33.50 120.25 33.76 C 103.06 33.91 89.00 34.35 89.00 34.74 C 89.00 35.13 89.76 38.99 90.69 43.31 C 92.38 51.17 92.38 51.17 95.44 50.47 C 97.12 50.08 110.09 49.56 124.25 49.32 C 145.07 48.96 149.99 49.13 149.95 50.19 C 149.93 50.91 149.12 55.33 148.16 60.00 C 146.42 68.50 146.42 68.50 122.21 68.77 C 108.89 68.92 98.00 69.35 98.00 69.74 C 98.00 70.14 98.76 73.99 99.69 78.31 C 101.33 85.97 101.44 86.14 103.94 85.48 C 105.35 85.11 114.55 84.58 124.40 84.30 C 139.16 83.89 142.20 84.04 141.77 85.15 C 134.80 103.08 136.91 102.00 108.86 102.00 C 94.64 102.00 83.00 102.34 83.00 102.75 C 82.99 103.16 83.77 107.25 84.72 111.83 C 86.44 120.16 86.44 120.16 89.47 119.51 C 100.46 117.16 125.01 115.94 124.99 117.75 C 124.99 118.16 122.76 121.46 120.05 125.07 C 113.11 134.31 96.39 150.11 83.75 159.39 C 73.03 167.25 73.03 167.25 76.90 171.88 C 84.33 180.74 84.15 180.67 89.68 176.94 C 92.33 175.15 97.51 171.28 101.20 168.34 C 104.88 165.40 108.14 163.00 108.45 163.00 C 108.75 163.00 109.00 181.47 109.00 204.04 C 109.00 245.08 109.00 245.08 117.25 244.79 C 125.50 244.50 125.50 244.50 125.80 237.75 Z  M 126.00 205.50 C 126.00 194.00 126.00 194.00 161.50 194.00 C 197.00 194.00 197.00 194.00 197.00 205.50 C 197.00 217.00 197.00 217.00 161.50 217.00 C 126.00 217.00 126.00 217.00 126.00 205.50 Z  M 126.00 169.00 C 126.00 158.00 126.00 158.00 161.50 158.00 C 197.00 158.00 197.00 158.00 197.00 169.00 C 197.00 180.00 197.00 180.00 161.50 180.00 C 126.00 180.00 126.00 180.00 126.00 169.00 Z  M 130.78 139.25 C 132.96 136.64 137.30 130.56 140.43 125.75 C 146.13 117.00 146.13 117.00 161.43 117.00 C 176.73 117.00 176.73 117.00 181.33 124.92 C 183.86 129.28 187.98 135.35 190.48 138.42 C 195.02 144.00 195.02 144.00 160.92 144.00 C 126.81 144.00 126.81 144.00 130.78 139.25 Z "/>
</g>
</svg>