<?xml version="1.0" encoding="UTF-8" standalone="no"?>
<!DOCTYPE svg PUBLIC "-//W3C//DTD SVG 1.1//EN" "http://www.w3.org/Graphics/SVG/1.1/DTD/svg11.dtd" >
<svg xmlns="http://www.w3.org/2000/svg" xmlns:xlink="http://www.w3.org/1999/xlink" version="1.1" viewBox="0 0 256 256">
 <g >
 <path fill="currentColor"
d=" M 62.24 195.07 C 62.50 145.13 62.50 145.13 73.56 161.46 C 84.61 177.79 84.61 177.79 90.26 173.99 C 93.37 171.91 96.49 170.00 97.20 169.76 C 98.26 169.41 98.26 168.88 97.20 166.88 C 95.92 164.48 79.67 142.00 75.24 136.50 C 72.75 133.42 72.07 133.53 65.25 138.04 C 62.00 140.20 62.00 140.20 62.00 127.10 C 62.00 114.00 62.00 114.00 77.50 114.00 C 90.84 114.00 93.00 113.78 93.00 112.45 C 93.00 110.89 89.97 96.74 89.53 96.23 C 89.40 96.08 86.32 96.65 82.69 97.49 C 78.12 98.55 73.93 98.82 69.05 98.37 C 62.00 97.71 62.00 97.71 62.00 61.38 C 62.00 30.17 62.23 24.47 63.63 20.98 C 64.52 18.74 65.08 16.78 64.88 16.61 C 64.48 16.28 47.44 12.00 46.54 12.00 C 46.24 12.00 46.00 31.35 46.00 55.00 C 46.00 98.00 46.00 98.00 29.00 98.00 C 19.65 98.00 12.02 98.34 12.04 98.75 C 12.14 100.67 15.81 117.14 16.23 117.56 C 16.49 117.83 19.58 117.39 23.10 116.60 C 32.26 114.54 39.70 113.71 40.30 114.67 C 41.07 115.93 34.71 137.18 30.09 148.77 C 24.86 161.89 18.66 174.15 11.56 185.40 C 5.95 194.30 5.95 194.30 11.10 202.15 C 13.93 206.47 16.54 210.00 16.89 210.00 C 17.68 210.00 19.22 207.57 24.81 197.51 C 30.63 187.04 36.25 174.31 41.58 159.50 C 45.90 147.50 45.90 147.50 45.95 196.25 C 46.00 245.00 46.00 245.00 53.99 245.00 C 61.98 245.00 61.98 245.00 62.24 195.07 Z  M 168.74 239.56 C 173.50 238.00 173.89 237.66 172.92 235.84 C 171.11 232.46 172.53 231.35 180.16 230.14 C 191.62 228.33 224.25 225.84 225.04 226.71 C 225.43 227.15 226.95 231.15 228.41 235.62 C 231.32 244.46 230.15 244.28 245.23 238.20 C 246.76 237.58 245.68 234.30 236.08 210.50 C 230.09 195.65 224.47 181.83 223.60 179.79 C 222.01 176.09 222.01 176.09 215.25 178.63 C 211.54 180.03 208.44 181.24 208.37 181.33 C 208.30 181.43 210.87 188.45 214.09 196.95 C 217.30 205.45 219.80 212.54 219.63 212.70 C 219.12 213.21 184.64 215.97 184.21 215.54 C 183.98 215.32 188.74 205.99 194.78 194.82 C 200.81 183.64 212.62 161.00 221.03 144.50 C 229.43 128.00 237.15 113.56 238.18 112.41 C 240.05 110.32 240.03 110.29 231.88 105.10 C 227.38 102.24 223.36 100.26 222.95 100.70 C 222.54 101.14 220.44 105.78 218.28 111.00 C 208.94 133.60 208.85 133.76 205.00 134.40 C 201.11 135.04 183.00 135.22 183.00 134.62 C 183.00 132.93 207.65 83.97 209.98 81.03 C 212.98 77.24 212.98 77.24 207.24 74.69 C 201.50 72.13 201.50 72.13 225.25 72.07 C 238.31 72.03 248.99 71.66 248.97 71.25 C 248.92 69.55 245.14 53.81 244.69 53.35 C 244.41 53.08 242.46 53.37 240.34 54.01 C 235.78 55.37 202.00 56.64 202.00 55.45 C 202.00 54.58 216.59 35.14 223.66 26.61 C 227.81 21.58 227.81 21.58 219.16 15.26 C 212.81 10.62 210.29 9.28 209.71 10.22 C 209.28 10.92 205.34 17.57 200.95 25.00 C 196.56 32.42 190.06 42.44 186.50 47.25 C 180.02 56.00 180.02 56.00 138.51 56.00 C 115.68 56.00 97.00 56.34 97.00 56.75 C 96.99 57.16 97.77 61.25 98.72 65.82 C 100.39 73.92 100.51 74.13 102.97 73.53 C 104.36 73.19 110.16 72.64 115.86 72.32 C 126.22 71.73 126.22 71.73 125.50 74.11 C 121.76 86.45 107.10 120.15 102.72 126.48 C 101.57 128.14 98.90 131.60 96.79 134.17 C 92.95 138.84 92.95 138.84 95.69 145.50 C 98.42 152.16 98.42 152.16 102.96 151.47 C 108.41 150.64 130.35 149.16 130.86 149.59 C 131.31 149.96 109.65 192.09 104.43 200.98 C 102.34 204.55 98.41 209.68 95.70 212.40 C 90.76 217.33 90.76 217.33 94.58 225.17 C 97.89 231.95 98.68 232.92 100.45 232.35 C 106.04 230.55 111.11 229.81 130.00 227.99 C 141.28 226.90 150.98 226.01 151.56 226.01 C 152.15 226.00 153.91 230.02 155.48 234.94 C 158.34 243.88 158.34 243.88 160.92 242.57 C 162.34 241.86 165.86 240.50 168.74 239.56 Z  M 84.12 77.00 C 86.30 71.78 89.68 63.23 91.62 58.00 C 93.56 52.77 96.28 46.77 97.65 44.66 C 99.03 42.55 100.00 40.67 99.82 40.50 C 98.85 39.53 83.46 33.22 82.91 33.56 C 82.55 33.78 81.98 35.75 81.62 37.95 C 80.60 44.36 76.14 57.62 70.87 69.90 C 68.18 76.18 66.09 81.42 66.24 81.57 C 67.24 82.55 77.76 86.82 78.82 86.68 C 79.54 86.58 81.93 82.22 84.12 77.00 Z  M 30.40 83.50 C 33.51 82.12 36.77 81.00 37.64 81.00 C 38.50 81.00 39.00 80.44 38.74 79.75 C 38.48 79.06 37.04 74.45 35.55 69.50 C 29.97 51.04 23.87 33.00 23.19 33.01 C 22.51 33.02 13.69 35.58 11.28 36.46 C 10.35 36.81 10.42 38.03 11.58 41.71 C 12.41 44.34 15.35 54.83 18.12 65.00 C 23.99 86.57 23.82 86.00 24.34 86.00 C 24.57 86.00 27.29 84.88 30.40 83.50 Z  M 149.97 48.89 C 154.84 45.33 156.74 43.36 156.22 42.43 C 155.81 41.69 149.92 34.10 143.14 25.56 C 129.37 8.21 130.94 8.91 122.60 16.34 C 117.71 20.71 117.71 20.71 125.16 30.60 C 129.26 36.05 134.77 43.54 137.40 47.25 C 140.02 50.96 142.35 54.00 142.57 54.00 C 142.78 54.00 146.11 51.70 149.97 48.89 Z  M 114.00 215.73 C 114.00 215.52 118.53 206.84 124.06 196.43 C 129.60 186.02 140.44 164.68 148.17 149.00 C 157.17 130.73 163.44 119.21 165.65 116.91 C 169.10 113.32 169.10 113.32 161.02 108.02 C 156.58 105.10 152.74 102.92 152.49 103.18 C 152.06 103.61 143.16 125.04 140.87 131.13 C 140.13 133.11 138.98 133.91 136.19 134.37 C 131.96 135.07 115.00 135.22 115.00 134.56 C 115.00 132.70 140.62 82.97 142.69 80.80 C 144.16 79.27 145.16 77.85 144.93 77.63 C 144.69 77.42 142.25 76.08 139.50 74.67 C 134.50 72.09 134.50 72.09 164.25 72.05 C 180.61 72.02 194.00 72.13 194.00 72.29 C 194.00 72.45 192.04 77.74 189.65 84.04 C 179.77 110.06 172.71 124.04 165.54 131.79 C 162.49 135.08 160.00 138.28 160.00 138.91 C 160.00 139.54 161.38 142.79 163.07 146.13 C 165.90 151.74 166.34 152.16 168.82 151.59 C 173.04 150.61 201.00 149.63 201.00 150.45 C 201.00 150.86 195.50 162.05 188.78 175.31 C 180.38 191.89 174.73 201.72 170.70 206.80 C 167.48 210.85 164.69 214.02 164.51 213.84 C 164.33 213.65 161.40 206.54 158.01 198.03 C 149.54 176.80 151.18 178.74 143.75 181.20 C 140.31 182.33 137.11 183.61 136.64 184.04 C 136.17 184.47 138.34 190.97 141.48 198.49 C 144.61 206.01 146.99 212.35 146.76 212.57 C 146.53 212.80 141.66 213.43 135.92 213.97 C 130.19 214.52 122.91 215.22 119.75 215.53 C 116.59 215.84 114.00 215.93 114.00 215.73 Z "/>
</g>
</svg>