<?xml version="1.0" encoding="UTF-8" standalone="no"?>
<!DOCTYPE svg PUBLIC "-//W3C//DTD SVG 1.1//EN" "http://www.w3.org/Graphics/SVG/1.1/DTD/svg11.dtd" >
<svg xmlns="http://www.w3.org/2000/svg" xmlns:xlink="http://www.w3.org/1999/xlink" version="1.1" viewBox="0 0 256 256">
 <g >
 <path fill="currentColor"
d=" M 80.93 242.38 C 85.68 240.40 87.80 238.31 90.52 232.96 C 95.23 223.66 95.96 218.69 97.95 182.17 C 99.70 149.94 100.05 146.66 101.98 143.53 C 104.10 140.10 104.10 140.10 97.85 135.55 C 94.41 133.05 91.31 131.00 90.95 131.00 C 90.60 131.00 89.50 131.90 88.50 133.00 C 86.98 134.68 85.42 135.00 78.85 135.00 C 71.00 135.00 71.00 135.00 71.00 122.50 C 71.00 110.00 71.00 110.00 83.50 110.00 C 91.58 110.00 96.00 109.63 96.00 108.95 C 96.00 108.37 95.28 104.73 94.40 100.86 C 92.93 94.42 92.62 93.87 90.65 94.47 C 89.47 94.82 84.56 95.38 79.75 95.70 C 71.00 96.28 71.00 96.28 71.00 86.14 C 71.00 76.00 71.00 76.00 83.50 76.00 C 97.80 76.00 96.85 76.93 94.33 65.46 C 92.81 58.56 92.47 57.91 90.58 58.47 C 86.03 59.80 75.37 61.97 73.25 61.98 C 71.06 62.00 71.00 61.73 71.00 51.50 C 71.00 41.00 71.00 41.00 85.50 41.00 C 102.17 41.00 100.76 42.21 98.87 29.47 C 97.75 21.92 97.71 21.86 95.12 22.56 C 87.60 24.59 82.14 24.91 55.50 24.93 C 28.90 24.95 22.70 24.55 17.75 22.51 C 16.09 21.82 16.00 25.23 16.00 85.88 C 16.00 149.97 16.00 149.97 50.25 150.24 C 84.50 150.50 84.50 150.50 84.31 154.00 C 84.21 155.93 83.81 164.25 83.44 172.50 C 83.06 180.75 82.43 186.60 82.04 185.50 C 81.64 184.40 80.07 177.59 78.55 170.37 C 75.77 157.24 75.77 157.24 70.78 158.56 C 68.04 159.28 65.60 160.07 65.36 160.30 C 65.13 160.54 65.88 164.95 67.03 170.12 C 68.18 175.28 69.94 184.22 70.94 190.00 C 71.93 195.78 73.14 200.43 73.62 200.34 C 74.11 200.25 76.26 199.85 78.41 199.45 C 82.32 198.72 82.32 198.72 81.67 206.11 C 80.78 216.28 79.32 220.83 75.83 224.32 C 72.85 227.30 72.85 227.30 59.93 226.68 C 52.82 226.34 47.00 226.25 47.00 226.47 C 47.00 227.28 50.07 241.56 50.64 243.39 C 51.18 245.15 52.02 245.23 64.33 244.56 C 71.95 244.14 78.90 243.23 80.93 242.38 Z  M 126.00 238.00 C 126.00 233.00 126.00 233.00 172.00 233.00 C 218.00 233.00 218.00 233.00 218.00 238.00 C 218.00 243.00 218.00 243.00 225.50 243.00 C 233.00 243.00 233.00 243.00 233.00 195.17 C 233.00 147.34 233.00 147.34 235.35 142.70 C 237.70 138.06 237.70 138.06 231.73 133.37 C 225.76 128.68 225.76 128.68 222.63 130.33 C 219.84 131.81 213.93 131.99 168.44 132.06 C 140.35 132.10 116.16 131.83 114.69 131.46 C 112.00 130.78 112.00 130.78 112.00 186.89 C 112.00 243.00 112.00 243.00 119.00 243.00 C 126.00 243.00 126.00 243.00 126.00 238.00 Z  M 19.35 221.75 C 20.28 218.00 24.83 185.03 25.56 176.73 C 25.93 172.45 27.02 167.42 27.98 165.54 C 29.72 162.13 29.72 162.13 22.11 159.77 C 14.50 157.41 14.50 157.41 13.71 164.46 C 10.14 196.52 8.64 208.39 7.49 213.99 C 6.75 217.56 6.22 220.55 6.32 220.65 C 6.48 220.80 16.65 223.58 18.14 223.87 C 18.49 223.94 19.04 222.99 19.35 221.75 Z  M 47.74 216.54 C 48.40 216.03 44.38 163.13 43.62 162.30 C 43.52 162.19 40.81 162.37 37.60 162.70 C 31.77 163.30 31.77 163.30 32.34 167.90 C 32.65 170.43 33.46 182.72 34.14 195.21 C 35.38 217.93 35.38 217.93 41.44 217.32 C 44.77 216.99 47.61 216.64 47.74 216.54 Z  M 64.48 209.90 C 68.71 208.83 68.71 208.83 66.44 196.17 C 65.18 189.20 63.00 178.18 61.58 171.67 C 60.16 165.16 59.00 159.69 59.00 159.51 C 59.00 159.10 48.94 161.73 48.38 162.29 C 48.15 162.51 49.07 167.83 50.41 174.10 C 51.75 180.37 53.58 190.45 54.46 196.50 C 56.74 212.01 56.82 212.28 58.67 211.57 C 59.54 211.24 62.16 210.48 64.48 209.90 Z  M 170.03 125.98 C 175.17 122.32 185.26 108.67 189.61 99.50 C 196.76 84.42 201.98 62.61 201.99 47.75 C 202.00 42.00 202.00 42.00 213.15 42.00 C 224.30 42.00 224.30 42.00 223.59 68.17 C 222.83 95.90 222.59 97.25 217.62 101.90 C 215.14 104.22 214.66 104.28 204.42 103.70 C 193.83 103.10 193.79 103.11 194.40 105.30 C 194.74 106.51 195.31 110.14 195.66 113.38 C 196.31 119.25 196.31 119.25 209.51 118.80 C 224.29 118.30 227.65 117.13 231.76 111.03 C 236.14 104.53 236.79 99.78 237.56 68.49 C 238.25 40.48 238.42 38.51 240.50 34.59 C 242.72 30.43 242.72 30.43 236.32 25.56 C 229.93 20.69 229.93 20.69 227.16 23.35 C 224.39 26.00 224.39 26.00 196.70 26.00 C 175.20 26.00 169.00 26.28 169.02 27.25 C 169.04 29.10 172.76 43.09 173.39 43.73 C 173.69 44.03 176.70 43.73 180.07 43.07 C 183.44 42.40 186.45 42.12 186.76 42.43 C 187.70 43.36 185.06 64.86 182.83 74.50 C 181.68 79.45 179.72 85.53 178.48 88.01 C 175.43 94.07 168.35 103.37 160.89 111.11 C 154.77 117.46 154.77 117.46 160.64 122.71 C 163.86 125.59 166.66 127.96 166.85 127.98 C 167.04 127.99 168.47 127.09 170.03 125.98 Z  M 119.02 117.17 C 123.48 113.79 151.63 97.97 154.51 97.22 C 155.11 97.06 156.36 98.52 157.28 100.47 C 158.21 102.41 159.31 103.99 159.73 103.97 C 160.16 103.95 162.94 101.77 165.92 99.12 C 171.35 94.31 171.35 94.31 166.06 84.41 C 160.15 73.33 149.96 56.00 149.36 56.00 C 149.15 56.00 146.48 57.41 143.43 59.13 C 137.05 62.73 137.01 61.93 144.14 73.72 C 146.93 78.34 149.05 82.27 148.85 82.45 C 148.66 82.63 142.99 85.53 136.25 88.89 C 124.00 95.02 124.00 95.02 124.00 68.26 C 124.01 41.50 124.01 41.50 139.25 37.10 C 147.64 34.68 157.20 32.02 160.50 31.19 C 163.80 30.36 166.64 29.57 166.81 29.44 C 167.07 29.25 159.31 13.12 158.53 12.23 C 158.40 12.08 154.52 13.95 149.90 16.39 C 139.64 21.80 123.67 27.03 115.25 27.74 C 109.00 28.27 109.00 28.27 108.98 61.39 C 108.95 95.37 108.43 101.19 104.96 106.06 C 102.99 108.82 102.99 108.82 108.08 114.91 C 110.88 118.26 113.35 121.00 113.57 121.00 C 113.78 121.00 116.24 119.28 119.02 117.17 Z  M 31.00 122.47 C 31.00 109.94 31.00 109.94 43.25 110.22 C 55.50 110.50 55.50 110.50 55.78 122.75 C 56.06 135.00 56.06 135.00 43.53 135.00 C 31.00 135.00 31.00 135.00 31.00 122.47 Z  M 31.00 86.00 C 31.00 76.00 31.00 76.00 43.50 76.00 C 56.00 76.00 56.00 76.00 56.00 86.00 C 56.00 96.00 56.00 96.00 43.50 96.00 C 31.00 96.00 31.00 96.00 31.00 86.00 Z  M 31.00 51.53 C 31.00 41.00 31.00 41.00 43.53 41.00 C 56.07 41.00 56.07 41.00 55.78 51.25 C 55.50 61.50 55.50 61.50 43.25 61.78 C 31.00 62.06 31.00 62.06 31.00 51.53 Z  M 126.22 204.75 C 126.50 191.50 126.50 191.50 145.75 191.23 C 165.00 190.96 165.00 190.96 165.00 204.48 C 165.00 218.00 165.00 218.00 145.47 218.00 C 125.94 218.00 125.94 218.00 126.22 204.75 Z  M 180.00 204.50 C 180.00 191.00 180.00 191.00 199.00 191.00 C 218.00 191.00 218.00 191.00 218.00 204.50 C 218.00 218.00 218.00 218.00 199.00 218.00 C 180.00 218.00 180.00 218.00 180.00 204.50 Z  M 126.22 162.25 C 126.50 148.50 126.50 148.50 145.75 148.23 C 165.00 147.96 165.00 147.96 165.00 161.98 C 165.00 176.00 165.00 176.00 145.47 176.00 C 125.94 176.00 125.94 176.00 126.22 162.25 Z  M 180.00 162.00 C 180.00 148.00 180.00 148.00 199.00 148.00 C 218.00 148.00 218.00 148.00 218.00 162.00 C 218.00 176.00 218.00 176.00 199.00 176.00 C 180.00 176.00 180.00 176.00 180.00 162.00 Z "/>
</g>
</svg>