<?xml version="1.0" encoding="UTF-8" standalone="no"?>
<!DOCTYPE svg PUBLIC "-//W3C//DTD SVG 1.1//EN" "http://www.w3.org/Graphics/SVG/1.1/DTD/svg11.dtd" >
<svg xmlns="http://www.w3.org/2000/svg" xmlns:xlink="http://www.w3.org/1999/xlink" version="1.1" viewBox="0 0 256 256">
 <g >
 <path fill="currentColor"
d=" M 202.11 245.75 C 207.26 240.17 212.32 228.41 212.76 221.00 C 212.98 217.43 212.21 196.50 211.07 174.50 C 209.92 152.50 208.45 115.95 207.81 93.29 C 206.64 52.07 206.64 52.07 209.57 49.84 C 215.32 45.45 220.00 39.72 220.00 37.07 C 220.00 31.64 205.33 15.00 200.54 15.00 C 199.59 15.00 195.81 17.88 192.15 21.41 C 184.80 28.49 182.44 29.48 164.48 32.96 C 154.63 34.86 154.63 34.86 151.56 32.28 C 147.50 28.85 139.18 25.02 135.75 25.01 C 134.24 25.00 133.00 25.20 133.00 25.44 C 133.00 25.68 133.95 29.61 135.11 34.19 C 136.99 41.59 137.25 45.80 137.48 72.50 C 137.73 102.50 137.73 102.50 143.94 107.81 C 147.36 110.73 150.91 112.97 151.83 112.80 C 152.98 112.58 153.83 110.78 154.55 106.99 C 155.61 101.50 155.61 101.50 169.55 99.33 C 177.22 98.14 184.96 97.12 186.75 97.08 C 190.00 97.00 190.00 97.00 190.00 149.53 C 190.00 208.59 190.14 207.36 183.12 210.94 C 180.90 212.07 178.39 213.00 177.54 213.00 C 174.88 213.00 175.16 213.58 183.85 225.98 C 186.24 229.39 189.78 235.40 191.71 239.34 C 197.20 250.51 197.53 250.72 202.11 245.75 Z  M 48.85 235.47 C 49.95 234.07 52.07 229.46 53.56 225.22 C 56.28 217.50 56.28 217.50 57.06 177.00 C 57.92 133.13 58.48 124.00 60.36 124.00 C 61.01 124.00 64.69 122.05 68.53 119.66 C 72.36 117.28 82.77 111.41 91.67 106.62 C 108.19 97.71 110.70 95.93 109.48 93.96 C 108.84 92.92 106.85 93.10 101.67 94.64 C 99.94 95.16 99.86 94.17 100.17 75.31 C 100.50 55.44 100.50 55.44 104.09 50.47 C 109.66 42.76 109.65 42.57 103.76 36.34 C 97.94 30.18 93.67 27.52 91.57 28.71 C 90.80 29.15 88.37 31.78 86.15 34.56 C 81.80 40.03 82.77 39.64 63.28 43.96 C 55.07 45.79 55.07 45.79 51.78 41.46 C 49.98 39.08 47.47 36.65 46.20 36.07 C 43.97 35.03 37.00 34.56 37.00 35.44 C 37.00 35.69 37.86 37.37 38.91 39.19 C 39.97 41.01 41.84 47.90 43.07 54.50 C 45.22 66.02 45.28 67.95 44.67 103.00 C 43.70 158.38 42.49 172.79 36.38 201.70 C 32.34 220.85 31.98 218.51 41.23 233.25 C 44.62 238.65 46.02 239.06 48.85 235.47 Z  M 163.00 199.01 C 166.57 198.49 171.86 197.35 174.75 196.49 C 182.37 194.22 181.90 192.70 169.73 180.10 C 164.09 174.26 157.93 167.34 156.06 164.74 C 154.19 162.13 152.34 160.00 151.95 160.00 C 151.56 160.00 151.30 165.29 151.37 171.75 C 151.50 183.50 151.50 183.50 146.08 183.81 C 138.92 184.22 131.97 181.85 124.35 176.42 C 115.60 170.19 112.02 165.28 107.15 152.81 C 106.30 150.63 104.83 149.74 99.32 148.09 C 95.59 146.97 92.24 146.38 91.86 146.78 C 91.49 147.18 92.90 151.46 95.00 156.30 C 104.82 178.94 117.02 192.50 131.15 196.46 C 142.71 199.71 152.74 200.51 163.00 199.01 Z  M 83.32 185.82 C 84.76 182.15 86.85 174.63 87.98 169.11 C 90.02 159.08 90.02 159.08 87.44 152.63 C 86.02 149.09 83.95 145.36 82.84 144.36 C 80.88 142.58 80.78 142.58 79.41 144.45 C 78.63 145.51 78.00 147.37 78.00 148.59 C 78.00 152.46 73.92 164.26 69.90 172.04 C 67.76 176.18 66.00 180.36 66.00 181.32 C 66.00 182.29 68.70 185.85 72.00 189.25 C 79.00 196.44 79.19 196.39 83.32 185.82 Z  M 174.38 162.75 C 176.78 158.97 179.32 149.42 178.65 146.73 C 178.29 145.31 176.48 143.30 174.49 142.13 C 170.70 139.89 151.16 133.51 150.41 134.26 C 150.16 134.51 151.53 136.92 153.45 139.61 C 155.37 142.30 159.27 148.32 162.13 153.00 C 170.04 165.97 171.57 167.19 174.38 162.75 Z  M 137.04 150.75 C 140.07 146.01 140.97 143.66 140.77 141.00 C 140.53 137.84 139.92 137.19 134.50 134.28 C 129.28 131.48 114.89 126.00 112.75 126.00 C 111.01 126.00 112.28 128.91 116.44 134.48 C 118.88 137.74 122.82 144.14 125.19 148.69 C 128.12 154.32 130.07 156.98 131.28 156.99 C 132.37 157.00 134.59 154.59 137.04 150.75 Z  M 155.66 86.85 C 155.31 85.56 155.02 82.20 155.01 79.39 C 155.00 74.28 155.00 74.28 166.25 71.68 C 172.44 70.25 179.19 68.78 181.25 68.43 C 183.97 67.96 185.00 67.28 185.00 65.96 C 185.00 63.69 178.81 57.00 176.70 57.00 C 175.84 57.00 171.48 58.35 167.00 60.00 C 154.78 64.51 155.00 64.61 155.00 54.52 C 155.00 46.53 155.13 46.01 157.25 45.55 C 163.33 44.24 188.23 40.89 188.66 41.33 C 188.93 41.60 189.41 51.20 189.72 62.66 C 190.28 83.50 190.28 83.50 177.39 85.73 C 155.05 89.61 156.38 89.54 155.66 86.85 Z  M 59.21 95.95 C 59.50 85.63 59.50 85.63 64.50 84.34 C 67.25 83.64 72.20 82.76 75.50 82.40 C 78.80 82.03 82.21 81.37 83.08 80.92 C 84.48 80.21 84.61 81.04 84.21 87.92 C 83.91 93.07 84.14 95.97 84.88 96.43 C 87.77 98.21 85.50 99.87 76.75 102.33 C 71.66 103.76 65.57 105.24 63.21 105.60 C 58.93 106.27 58.93 106.27 59.21 95.95 Z  M 81.63 74.85 C 77.31 68.83 75.61 68.41 67.58 71.43 C 63.83 72.84 60.48 74.00 60.13 74.00 C 59.78 74.00 59.52 69.84 59.53 64.77 C 59.57 55.53 59.57 55.53 72.39 53.71 C 79.45 52.71 85.39 52.06 85.61 52.27 C 85.82 52.49 85.66 58.55 85.25 65.75 C 84.50 78.85 84.50 78.85 81.63 74.85 Z "/>
</g>
</svg>