<?xml version="1.0" encoding="UTF-8" standalone="no"?>
<!DOCTYPE svg PUBLIC "-//W3C//DTD SVG 1.1//EN" "http://www.w3.org/Graphics/SVG/1.1/DTD/svg11.dtd" >
<svg xmlns="http://www.w3.org/2000/svg" xmlns:xlink="http://www.w3.org/1999/xlink" version="1.1" viewBox="0 0 256 256">
 <g >
 <path fill="currentColor"
d=" M 209.97 242.87 C 211.55 241.15 214.33 236.31 216.17 232.12 C 219.41 224.70 219.50 224.16 219.39 211.50 C 219.33 204.35 218.78 188.60 218.17 176.50 C 217.56 164.40 216.54 132.00 215.92 104.50 C 214.78 54.50 214.78 54.50 218.88 50.22 C 221.14 47.86 223.66 44.63 224.48 43.04 C 225.93 40.24 225.85 39.99 222.10 35.25 C 217.26 29.12 211.07 24.16 207.35 23.42 C 204.78 22.92 203.92 23.56 198.65 29.89 C 195.43 33.76 191.91 37.21 190.82 37.56 C 189.73 37.90 185.11 38.74 180.55 39.41 C 173.15 40.50 172.15 40.46 171.24 39.02 C 170.01 37.05 158.89 31.00 156.49 31.00 C 155.17 31.00 154.92 31.52 155.44 33.25 C 156.87 38.02 158.04 60.35 157.84 79.24 C 157.73 90.09 157.83 99.11 158.07 99.28 C 158.31 99.46 160.81 101.49 163.64 103.80 C 170.33 109.27 171.57 109.19 172.65 103.28 C 173.48 98.74 173.67 98.53 177.50 97.89 C 179.70 97.53 185.37 96.92 190.09 96.54 C 198.68 95.85 198.68 95.85 199.34 111.67 C 199.70 120.38 199.99 145.56 200.00 167.63 C 200.00 201.90 199.78 207.93 198.51 208.99 C 197.41 209.90 194.14 210.03 185.77 209.48 C 174.51 208.75 174.51 208.75 181.51 216.12 C 189.09 224.11 196.06 232.88 200.50 240.00 C 204.89 247.06 205.87 247.36 209.97 242.87 Z  M 60.25 243.25 C 62.26 240.99 64.38 235.78 65.86 229.50 C 66.66 226.11 67.16 206.64 67.43 169.00 C 67.86 109.74 68.74 82.72 70.21 83.63 C 70.70 83.93 73.56 89.19 76.56 95.30 C 79.55 101.41 82.41 106.81 82.90 107.30 C 84.84 109.24 87.93 106.65 91.37 100.22 C 94.97 93.50 94.97 93.50 94.42 108.00 C 92.99 146.11 88.95 187.94 85.44 201.00 C 80.84 218.16 80.85 218.28 87.89 227.77 C 91.25 232.30 94.18 236.00 94.41 236.00 C 97.89 236.00 101.17 230.48 103.39 220.87 C 104.84 214.63 106.40 185.30 107.84 137.33 C 108.21 125.13 108.81 114.86 109.18 114.49 C 109.54 114.12 118.07 110.25 128.13 105.89 C 138.20 101.52 147.47 97.27 148.75 96.43 C 152.17 94.19 150.55 92.80 145.41 93.57 C 141.00 94.23 141.00 94.23 141.08 85.86 C 141.12 81.26 141.46 73.85 141.83 69.39 C 142.46 61.85 142.77 60.99 146.26 57.14 C 151.73 51.08 151.36 48.91 143.55 41.29 C 140.00 37.83 136.47 35.00 135.70 35.00 C 134.92 35.00 132.00 37.42 129.20 40.38 C 124.15 45.73 124.03 45.78 114.38 47.60 C 106.68 49.05 104.56 49.17 104.22 48.16 C 103.99 47.46 102.36 45.00 100.60 42.70 C 97.30 38.37 93.39 36.25 90.65 37.31 C 89.23 37.85 89.21 38.34 90.49 41.98 C 92.66 48.12 95.00 66.82 95.00 77.99 C 95.00 87.91 95.00 87.91 87.43 82.48 C 83.26 79.49 77.63 75.84 74.93 74.36 C 70.00 71.68 70.00 71.68 70.03 64.09 C 70.05 59.92 70.75 52.90 71.58 48.50 C 74.61 32.42 74.73 33.75 69.87 28.44 C 64.32 22.38 54.56 16.00 50.84 16.00 C 47.43 16.00 47.36 16.76 49.59 29.00 C 50.74 35.29 51.29 47.47 51.69 75.74 C 52.48 131.77 49.71 192.97 45.45 213.58 C 43.64 222.35 43.83 223.60 48.49 233.40 C 53.65 244.25 56.92 246.99 60.25 243.25 Z  M 123.37 214.16 C 132.31 208.87 143.71 199.49 149.60 192.61 C 153.59 187.94 153.59 187.94 160.83 198.88 C 168.70 210.76 170.30 212.55 172.09 211.45 C 173.90 210.33 180.13 196.18 180.22 192.97 C 180.33 189.06 178.10 185.99 170.75 179.90 C 167.31 177.05 164.38 174.42 164.23 174.05 C 164.08 173.68 166.67 168.69 169.98 162.95 C 173.29 157.22 176.00 152.10 176.00 151.57 C 176.00 151.04 174.79 149.35 173.31 147.80 C 171.51 145.92 171.10 144.99 172.06 144.97 C 175.76 144.89 194.23 142.10 194.80 141.54 C 195.88 140.45 193.53 137.67 187.66 133.09 C 182.00 128.68 182.00 128.68 175.29 131.95 C 169.31 134.87 157.00 137.41 157.00 135.73 C 157.00 135.43 158.35 132.18 160.00 128.50 C 161.65 124.82 163.00 120.48 163.00 118.85 C 163.00 116.32 162.37 115.61 158.75 114.02 C 153.58 111.75 141.26 108.41 140.57 109.09 C 140.30 109.36 141.21 113.15 142.60 117.51 C 143.98 121.88 145.38 128.24 145.70 131.67 C 146.25 137.63 146.18 137.91 143.89 138.39 C 141.18 138.95 121.51 140.96 115.58 141.29 C 113.42 141.40 111.48 142.03 111.27 142.67 C 111.06 143.32 112.82 145.86 115.19 148.32 C 119.50 152.79 119.50 152.79 126.50 151.32 C 130.35 150.51 139.49 149.05 146.82 148.08 C 160.14 146.30 160.14 146.30 159.51 148.90 C 158.91 151.37 152.05 166.00 151.50 166.00 C 151.35 166.00 146.57 163.76 140.87 161.01 C 131.43 156.47 127.00 155.05 127.00 156.56 C 127.00 156.87 130.66 161.26 135.12 166.31 C 139.59 171.37 143.46 176.06 143.73 176.75 C 144.66 179.16 128.92 201.20 119.81 210.26 C 114.97 215.07 111.00 219.27 111.00 219.57 C 111.00 220.75 115.79 218.65 123.37 214.16 Z  M 30.62 145.23 C 33.84 143.13 39.68 128.03 44.50 109.39 C 47.11 99.27 47.11 99.27 45.16 93.72 C 42.91 87.30 37.51 79.00 35.59 79.00 C 34.72 79.00 33.53 82.77 32.04 90.25 C 29.52 102.92 26.86 110.18 21.83 118.08 C 17.13 125.46 16.84 126.51 18.33 130.79 C 19.59 134.39 27.67 146.02 28.89 145.98 C 29.23 145.98 30.00 145.64 30.62 145.23 Z  M 173.00 81.61 C 173.00 77.41 173.43 75.05 174.25 74.74 C 174.94 74.48 180.16 73.66 185.87 72.91 C 192.73 72.02 196.41 71.10 196.76 70.19 C 197.05 69.42 195.56 67.11 193.39 64.96 C 189.50 61.11 189.50 61.11 183.50 62.54 C 172.79 65.09 172.87 65.14 173.21 56.77 C 173.50 49.55 173.50 49.55 184.88 47.67 C 194.35 46.11 196.40 46.02 197.11 47.15 C 197.58 47.89 197.98 56.66 197.98 66.62 C 198.00 84.75 198.00 84.75 187.56 86.37 C 172.01 88.80 173.00 89.12 173.00 81.61 Z  M 109.00 91.22 C 109.00 83.19 109.00 83.19 114.25 82.54 C 117.14 82.19 121.41 81.64 123.75 81.33 C 128.00 80.77 128.00 80.77 128.00 88.75 C 128.00 96.72 128.00 96.72 122.25 97.40 C 119.09 97.76 114.81 98.33 112.75 98.66 C 109.00 99.26 109.00 99.26 109.00 91.22 Z  M 109.18 68.34 C 109.29 65.13 109.06 61.12 108.65 59.44 C 107.92 56.37 107.92 56.37 116.82 55.19 C 121.72 54.53 126.24 54.00 126.86 54.00 C 127.62 54.00 128.00 56.83 128.00 62.56 C 128.00 67.27 127.63 70.89 127.17 70.61 C 126.71 70.32 124.35 70.69 121.92 71.42 C 119.49 72.15 115.58 73.07 113.24 73.46 C 108.98 74.18 108.98 74.18 109.18 68.34 Z "/>
</g>
</svg>