<?xml version="1.0" encoding="UTF-8" standalone="no"?>
<!DOCTYPE svg PUBLIC "-//W3C//DTD SVG 1.1//EN" "http://www.w3.org/Graphics/SVG/1.1/DTD/svg11.dtd" >
<svg xmlns="http://www.w3.org/2000/svg" xmlns:xlink="http://www.w3.org/1999/xlink" version="1.1" viewBox="0 0 256 256">
 <g >
 <path fill="currentColor"
d=" M 153.81 241.73 C 154.39 241.03 155.76 237.24 156.85 233.32 C 158.69 226.64 158.79 223.99 158.26 192.61 C 157.78 164.33 157.91 158.99 159.10 158.61 C 159.87 158.37 162.19 157.94 164.25 157.65 C 168.00 157.13 168.00 157.13 167.97 169.81 C 167.93 187.57 166.28 216.86 165.10 220.79 C 163.92 224.73 165.47 229.85 170.25 237.75 C 174.87 245.40 176.37 244.86 179.56 234.39 C 182.19 225.78 182.19 225.78 181.46 199.89 C 181.06 185.65 180.97 174.00 181.27 174.00 C 181.57 174.00 183.04 176.14 184.53 178.75 C 188.37 185.44 215.17 229.33 216.02 230.31 C 216.41 230.76 220.95 228.89 226.11 226.16 C 231.27 223.43 238.43 220.18 242.00 218.93 C 248.66 216.61 251.00 215.33 251.00 214.00 C 251.00 213.59 246.12 210.52 240.16 207.18 C 234.20 203.84 225.53 198.30 220.91 194.87 C 212.80 188.86 181.00 158.56 181.00 156.84 C 181.00 156.38 187.99 156.00 196.53 156.00 C 210.07 156.00 212.14 155.79 212.70 154.34 C 213.32 152.73 210.59 149.63 205.25 145.89 C 203.31 144.53 203.12 143.75 203.67 139.17 C 204.28 134.00 204.28 134.00 215.99 134.00 C 232.52 134.00 243.00 133.00 243.00 131.43 C 243.00 129.71 230.04 118.07 227.35 117.38 C 225.98 117.03 222.75 118.14 218.45 120.42 C 214.58 122.47 210.27 124.00 208.35 124.00 C 206.51 124.00 205.00 123.85 205.00 123.67 C 205.00 123.48 206.80 121.38 209.00 119.00 C 211.25 116.56 213.00 113.66 213.00 112.37 C 213.00 109.52 201.55 97.00 198.95 97.00 C 197.95 97.00 194.82 99.25 192.00 102.00 C 188.20 105.70 186.10 107.00 183.93 107.00 C 181.19 107.00 181.00 106.75 181.00 103.08 C 181.00 99.61 180.41 98.64 175.93 94.72 C 170.87 90.29 170.87 90.29 177.18 89.64 C 180.66 89.28 191.15 88.74 200.50 88.43 C 220.02 87.80 222.00 87.52 222.00 85.44 C 222.00 83.50 214.35 76.04 209.90 73.64 C 206.48 71.80 206.48 71.80 200.49 75.31 C 195.63 78.17 193.09 78.95 187.00 79.46 C 179.50 80.10 179.50 80.10 182.50 77.41 C 192.28 68.68 195.00 65.72 195.00 63.85 C 195.00 62.72 193.61 60.04 191.92 57.89 C 189.73 55.13 189.22 53.88 190.17 53.58 C 190.90 53.35 199.11 52.88 208.42 52.53 C 229.54 51.74 232.42 50.50 226.25 44.86 C 221.59 40.60 210.23 33.00 208.52 33.00 C 206.57 33.00 202.61 34.99 196.80 38.88 C 193.00 41.43 191.19 41.87 181.25 42.65 C 175.06 43.13 170.00 43.34 170.00 43.10 C 170.00 42.86 171.87 37.79 174.15 31.83 C 178.10 21.54 178.22 20.90 176.60 19.11 C 172.68 14.78 149.63 4.97 147.76 6.84 C 147.21 7.39 147.49 9.88 148.47 13.13 C 149.97 18.07 153.00 38.49 153.00 43.63 C 153.00 45.62 152.39 45.87 146.75 46.27 C 97.63 49.72 102.62 50.10 95.54 42.34 C 92.00 38.46 87.69 34.70 85.98 33.99 C 82.90 32.72 82.77 32.79 76.68 38.79 C 71.20 44.19 69.73 45.08 63.70 46.58 C 56.90 48.27 56.90 48.27 53.20 45.13 C 49.30 41.82 38.54 35.80 37.82 36.52 C 37.58 36.75 37.86 40.67 38.44 45.22 C 40.11 58.50 39.65 107.86 37.67 127.50 C 32.88 174.82 27.36 198.28 15.23 222.77 C 11.22 230.86 9.95 234.35 10.73 235.13 C 13.33 237.73 26.88 221.20 34.33 206.35 C 40.59 193.90 47.62 171.04 51.54 150.47 C 51.89 148.66 53.14 148.31 62.71 147.29 C 68.74 146.65 73.89 146.52 74.38 147.00 C 75.58 148.17 73.27 196.63 71.89 199.20 C 70.87 201.11 70.21 201.18 60.52 200.52 C 53.74 200.06 50.01 200.18 49.59 200.86 C 49.23 201.43 52.11 205.37 55.97 209.61 C 59.84 213.85 65.72 221.30 69.05 226.16 C 73.21 232.23 75.73 235.00 77.08 235.00 C 79.07 235.00 83.50 229.03 86.01 222.99 C 86.69 221.34 87.62 220.00 88.07 220.00 C 89.62 220.00 97.75 207.54 102.76 197.50 C 109.38 184.21 112.49 175.49 116.98 157.50 C 120.72 142.50 120.72 142.50 126.61 141.32 C 129.85 140.67 135.54 139.73 139.25 139.24 C 146.00 138.34 146.00 138.34 146.00 144.17 C 146.00 150.00 146.00 150.00 135.67 150.00 C 129.98 150.00 125.05 150.28 124.71 150.62 C 123.92 151.42 127.35 158.22 129.40 159.92 C 130.33 160.69 132.76 161.06 135.48 160.85 C 137.96 160.65 140.00 160.84 140.00 161.27 C 140.00 162.80 133.01 175.89 125.94 187.60 C 116.75 202.83 108.87 213.73 100.59 222.68 C 90.11 234.00 92.30 235.33 105.97 225.97 C 117.61 217.99 129.99 206.25 138.00 195.60 C 144.50 186.95 144.50 186.95 144.83 193.22 C 145.01 196.68 144.39 205.19 143.45 212.15 C 141.50 226.56 142.08 229.89 147.97 238.46 C 151.29 243.28 152.13 243.75 153.81 241.73 Z  M 91.27 131.90 C 91.50 64.30 91.50 64.30 95.44 59.90 C 97.61 57.48 99.67 55.37 100.03 55.22 C 100.38 55.07 102.66 56.71 105.09 58.86 C 109.50 62.78 109.50 62.78 109.38 85.14 C 109.24 109.42 108.28 118.69 102.45 151.67 C 98.70 172.90 95.06 189.03 92.58 195.50 C 91.17 199.15 91.06 193.63 91.27 131.90 Z  M 158.20 143.25 C 158.50 137.50 158.50 137.50 163.25 137.20 C 168.00 136.89 168.00 136.89 168.00 142.34 C 168.00 148.35 167.36 149.00 161.37 149.00 C 157.90 149.00 157.90 149.00 158.20 143.25 Z  M 180.00 141.60 C 180.00 136.19 180.00 136.19 185.00 135.85 C 190.00 135.50 190.00 135.50 190.00 140.05 C 190.00 144.29 189.78 144.68 186.68 145.80 C 180.61 147.99 180.00 147.61 180.00 141.60 Z  M 54.46 132.25 C 54.86 129.09 55.49 122.15 55.85 116.83 C 56.21 111.51 56.73 106.94 57.00 106.67 C 57.27 106.40 61.66 105.86 66.75 105.46 C 76.00 104.74 76.00 104.74 76.00 121.37 C 76.00 130.52 75.62 138.00 75.15 138.00 C 74.69 138.00 73.50 137.10 72.50 136.00 C 71.50 134.90 69.84 134.00 68.81 134.00 C 67.77 134.00 65.16 134.90 63.00 136.00 C 60.84 137.10 57.87 138.00 56.40 138.00 C 53.72 138.00 53.72 138.00 54.46 132.25 Z  M 122.35 126.40 C 122.71 124.25 123.50 116.65 124.10 109.50 C 124.70 102.35 125.49 96.22 125.85 95.87 C 126.21 95.53 130.16 95.01 134.63 94.73 C 142.76 94.21 142.76 94.21 143.97 101.68 C 144.63 105.80 144.87 109.46 144.50 109.83 C 144.14 110.20 139.71 110.60 134.67 110.72 C 129.63 110.84 125.38 110.95 125.22 110.97 C 124.38 111.06 128.24 116.90 130.66 119.20 C 133.24 121.65 133.88 121.81 137.50 120.97 C 144.49 119.35 145.00 119.55 145.00 123.94 C 145.00 126.11 144.65 128.10 144.23 128.36 C 143.80 128.62 138.56 129.16 132.57 129.56 C 121.69 130.29 121.69 130.29 122.35 126.40 Z  M 158.00 123.06 C 158.00 118.49 158.19 118.31 163.50 117.85 C 167.50 117.50 167.50 117.50 167.80 122.25 C 168.11 127.00 168.11 127.00 163.05 127.00 C 158.00 127.00 158.00 127.00 158.00 123.06 Z  M 180.64 122.30 C 181.50 116.13 181.63 116.00 186.52 116.00 C 191.11 116.00 191.11 116.00 190.80 120.75 C 190.50 125.50 190.50 125.50 185.30 125.80 C 180.11 126.10 180.11 126.10 180.64 122.30 Z  M 159.27 104.32 C 159.73 100.19 159.48 99.34 157.11 97.07 C 155.63 95.66 153.54 93.96 152.46 93.31 C 150.82 92.31 151.68 92.11 157.68 92.06 C 165.89 91.99 165.48 91.52 166.56 102.25 C 167.23 109.00 167.23 109.00 162.99 109.00 C 158.74 109.00 158.74 109.00 159.27 104.32 Z  M 72.19 93.37 C 68.89 90.77 68.89 90.77 63.30 92.90 C 60.22 94.08 57.54 94.88 57.34 94.67 C 57.13 94.47 57.42 87.14 57.98 78.40 C 58.54 69.65 58.99 61.54 59.00 60.37 C 59.00 58.49 59.87 58.11 66.65 57.11 C 70.86 56.48 74.51 56.18 74.77 56.43 C 75.34 57.00 76.45 96.00 75.90 95.99 C 75.68 95.98 74.01 94.81 72.19 93.37 Z  M 127.00 75.55 C 127.00 67.10 127.00 67.10 123.50 64.43 C 121.58 62.96 120.00 61.43 120.00 61.03 C 120.00 60.26 132.15 58.00 136.29 58.00 C 138.30 58.00 139.22 59.14 141.79 64.75 C 145.54 72.94 149.00 81.73 149.00 83.04 C 149.00 83.60 144.38 84.00 138.00 84.00 C 127.00 84.00 127.00 84.00 127.00 75.55 Z  M 160.44 79.11 C 161.30 77.45 162.00 75.21 162.00 74.13 C 162.00 71.13 154.02 63.79 146.93 60.28 C 141.36 57.52 140.89 57.08 143.05 56.60 C 146.88 55.76 178.14 53.81 178.70 54.37 C 179.45 55.12 173.31 72.89 170.71 77.50 C 168.62 81.19 168.08 81.52 163.67 81.81 C 158.89 82.11 158.89 82.11 160.44 79.11 Z "/>
</g>
</svg>