<?xml version="1.0" encoding="UTF-8" standalone="no"?>
<!DOCTYPE svg PUBLIC "-//W3C//DTD SVG 1.1//EN" "http://www.w3.org/Graphics/SVG/1.1/DTD/svg11.dtd" >
<svg xmlns="http://www.w3.org/2000/svg" xmlns:xlink="http://www.w3.org/1999/xlink" version="1.1" viewBox="0 0 256 256">
 <g >
 <path fill="currentColor"
d=" M 99.80 110.38 C 100.16 107.89 101.56 107.70 132.00 106.01 C 165.57 104.14 168.00 103.91 168.00 102.61 C 168.00 101.94 166.39 99.84 164.42 97.95 C 160.99 94.65 160.86 94.28 161.47 89.50 C 162.01 85.33 162.87 83.73 166.69 79.83 C 170.54 75.90 171.15 74.75 170.59 72.51 C 169.79 69.32 162.69 62.25 157.58 59.57 C 153.92 57.64 153.92 57.64 147.71 63.66 C 141.50 69.69 141.50 69.69 122.00 71.85 C 100.53 74.23 96.00 74.45 96.00 73.09 C 96.00 71.70 80.75 66.85 79.69 67.91 C 79.15 68.45 79.24 71.57 79.92 75.66 C 80.54 79.42 81.69 87.84 82.49 94.36 C 83.28 100.88 84.48 106.87 85.14 107.67 C 89.22 112.59 99.22 114.44 99.80 110.38 Z  M 108.39 69.42 C 108.73 68.55 109.00 64.08 109.00 59.49 C 109.00 49.65 107.85 50.42 123.89 49.45 C 135.28 48.76 135.28 48.76 134.71 51.13 C 133.27 57.10 132.83 61.18 133.38 63.37 C 133.99 65.82 139.08 68.69 140.86 67.59 C 141.40 67.26 144.14 62.71 146.95 57.49 C 149.77 52.27 152.17 47.96 152.29 47.91 C 152.86 47.69 182.39 46.04 197.19 45.40 C 206.37 45.01 214.42 44.36 215.09 43.95 C 217.19 42.64 215.31 40.25 207.02 33.69 C 193.70 23.16 193.81 23.17 182.49 30.35 C 175.85 34.56 175.06 34.80 166.75 35.21 C 161.94 35.45 158.00 35.48 158.00 35.29 C 158.00 35.10 159.36 32.25 161.02 28.95 C 164.61 21.84 164.27 20.65 157.28 16.21 C 150.46 11.88 141.17 7.50 140.41 8.26 C 140.05 8.62 139.84 13.64 139.93 19.43 C 140.02 25.21 139.56 31.72 138.91 33.89 C 137.73 37.83 137.73 37.83 128.12 38.43 C 122.83 38.76 116.30 39.19 113.62 39.38 C 108.74 39.73 108.74 39.73 109.48 33.12 C 110.84 20.96 111.13 21.84 104.57 18.35 C 98.24 14.99 88.35 11.31 87.61 12.05 C 87.37 12.30 88.24 17.68 89.54 24.00 C 92.94 40.45 92.92 40.64 87.75 41.37 C 85.41 41.70 73.83 42.23 62.00 42.55 C 46.91 42.96 40.59 43.47 40.81 44.25 C 41.24 45.80 46.21 51.93 49.78 55.32 C 52.75 58.13 52.75 58.13 60.12 56.62 C 67.32 55.13 94.11 51.73 94.53 52.24 C 94.65 52.38 95.24 55.42 95.85 59.00 C 96.73 64.20 97.56 66.05 99.99 68.25 C 103.36 71.29 107.45 71.86 108.39 69.42 Z  M 101.00 189.12 C 101.00 183.12 102.13 180.18 104.69 179.54 C 106.44 179.10 135.63 176.40 142.75 176.01 C 145.09 175.89 136.70 163.87 133.38 162.59 C 132.60 162.29 129.47 163.18 126.44 164.57 C 121.87 166.66 109.85 168.95 103.25 168.99 C 102.38 169.00 102.00 167.04 102.00 162.50 C 102.00 156.98 102.26 156.00 103.75 156.00 C 104.71 155.99 112.92 155.10 122.00 154.02 C 131.07 152.93 138.84 152.03 139.25 152.02 C 141.12 151.97 139.58 149.08 135.13 144.31 C 130.30 139.11 130.30 139.11 124.35 141.52 C 120.78 142.96 115.10 144.19 110.16 144.61 C 101.94 145.29 101.94 145.29 102.17 139.28 C 102.34 134.96 101.93 132.54 100.68 130.64 C 98.95 128.00 98.95 128.00 103.23 127.94 C 105.58 127.90 115.15 127.30 124.50 126.60 C 133.85 125.91 141.81 125.60 142.19 125.92 C 143.28 126.83 144.27 186.31 143.22 187.81 C 142.58 188.73 136.43 189.56 122.90 190.55 C 112.23 191.33 102.94 191.98 102.25 191.99 C 101.54 191.99 101.00 190.77 101.00 189.12 Z  M 98.75 97.45 C 98.34 97.02 98.00 93.59 98.00 89.83 C 98.00 83.00 98.00 83.00 101.75 82.99 C 103.81 82.98 113.15 82.08 122.50 81.00 C 147.08 78.15 145.00 77.73 145.00 85.47 C 145.00 91.76 144.90 92.00 141.75 93.68 C 139.96 94.64 134.90 95.75 130.50 96.16 C 114.96 97.60 99.49 98.23 98.75 97.45 Z "/>
</g>
</svg>