<?xml version="1.0" encoding="UTF-8" standalone="no"?>
<!DOCTYPE svg PUBLIC "-//W3C//DTD SVG 1.1//EN" "http://www.w3.org/Graphics/SVG/1.1/DTD/svg11.dtd" >
<svg xmlns="http://www.w3.org/2000/svg" xmlns:xlink="http://www.w3.org/1999/xlink" version="1.1" viewBox="0 0 256 256">
 <g >
 <path fill="currentColor"
d=" M 192.95 233.43 C 198.88 228.07 206.41 212.16 209.47 198.50 C 214.25 177.21 218.42 146.05 220.01 119.66 C 221.02 102.82 221.02 102.82 225.94 97.16 C 233.20 88.81 233.73 86.76 230.10 81.17 C 226.42 75.51 214.25 65.03 211.34 65.01 C 209.77 65.00 207.95 66.86 204.72 71.75 C 202.26 75.46 199.41 79.24 198.38 80.14 C 196.17 82.07 167.07 87.00 157.92 87.00 C 154.98 87.00 154.98 87.00 159.64 77.75 C 165.04 67.05 175.69 42.31 177.35 36.60 C 178.43 32.91 178.35 32.60 175.69 30.60 C 171.43 27.41 154.69 17.97 154.19 18.48 C 153.94 18.72 153.14 23.10 152.39 28.21 C 148.01 58.35 137.52 91.02 122.88 120.23 C 118.81 128.34 118.29 130.44 120.09 131.56 C 121.85 132.64 132.99 120.39 140.43 109.20 C 144.62 102.90 147.78 99.08 148.56 99.38 C 149.26 99.65 154.04 99.26 159.17 98.51 C 173.19 96.45 200.93 93.60 201.48 94.15 C 202.23 94.89 200.16 125.95 198.46 139.50 C 196.26 157.09 193.12 175.01 190.04 187.50 C 187.77 196.75 187.01 198.55 185.28 198.80 C 184.15 198.97 178.63 197.51 173.02 195.55 C 157.62 190.20 155.14 190.80 161.36 198.40 C 165.78 203.79 172.48 214.25 179.04 226.00 C 186.19 238.80 186.70 239.07 192.95 233.43 Z  M 51.83 220.85 C 84.06 208.31 126.10 188.54 127.98 185.03 C 128.68 183.72 128.56 182.88 127.54 182.04 C 126.44 181.12 124.09 181.52 116.82 183.85 C 111.69 185.49 103.90 187.72 99.50 188.81 C 84.93 192.41 86.00 192.36 86.00 189.46 C 86.00 188.04 86.40 187.13 86.90 187.44 C 88.25 188.27 99.64 179.56 107.19 171.91 C 115.63 163.36 119.39 157.80 118.54 155.13 C 117.62 152.24 106.07 141.84 104.18 142.20 C 103.05 142.42 101.69 145.99 99.49 154.57 C 97.79 161.20 94.75 170.10 92.73 174.34 C 86.05 188.42 86.16 188.56 86.65 166.82 C 87.28 139.14 86.50 141.44 95.77 140.16 C 100.02 139.57 106.99 138.79 111.25 138.43 C 116.29 138.00 119.00 137.34 119.00 136.55 C 119.00 134.42 112.77 125.85 110.45 124.80 C 108.71 124.00 106.78 124.35 101.69 126.39 C 98.10 127.82 93.76 129.00 92.06 129.00 C 88.95 129.00 88.95 129.00 89.19 120.38 C 89.41 112.63 89.22 111.60 87.30 110.04 C 85.23 108.36 85.51 108.26 96.83 106.58 C 111.94 104.35 113.00 104.07 113.00 102.31 C 113.00 100.18 107.01 92.14 104.93 91.48 C 103.97 91.17 98.73 92.05 93.30 93.42 C 82.02 96.28 65.03 99.37 64.34 98.68 C 64.09 98.42 67.35 93.78 71.58 88.36 C 75.82 82.94 80.32 76.93 81.59 75.00 C 87.64 65.81 86.84 65.84 94.59 74.57 C 108.57 90.31 109.44 91.15 111.17 90.49 C 113.02 89.78 119.40 71.32 118.83 68.34 C 118.38 66.00 112.90 63.00 102.73 59.51 C 98.20 57.96 94.38 56.60 94.23 56.49 C 94.08 56.38 95.77 53.20 97.98 49.41 C 100.19 45.63 102.00 41.40 102.00 40.02 C 101.99 37.35 90.63 24.01 84.86 19.90 C 80.66 16.91 79.70 18.15 75.98 31.42 C 67.12 62.98 47.05 98.39 15.58 138.00 C 8.31 147.15 6.20 152.00 9.49 152.00 C 12.67 152.00 42.98 123.59 53.22 111.01 C 56.88 106.51 56.88 106.51 59.83 109.34 C 62.49 111.89 63.21 112.09 67.39 111.46 C 72.00 110.77 72.00 110.77 72.20 117.89 C 72.66 134.11 73.55 132.25 64.64 133.63 C 60.32 134.30 51.87 135.16 45.86 135.55 C 35.35 136.23 34.97 136.34 35.59 138.38 C 36.48 141.31 40.87 147.01 42.81 147.76 C 43.69 148.10 49.38 147.38 55.46 146.16 C 61.53 144.95 67.96 143.96 69.75 143.98 C 73.00 144.00 73.00 144.00 73.00 152.48 C 73.00 160.97 73.00 160.97 67.80 163.60 C 62.61 166.23 62.61 166.23 59.57 162.37 C 55.84 157.62 49.94 152.00 48.68 152.00 C 48.11 152.00 48.08 154.06 48.60 157.25 C 49.07 160.14 49.49 168.12 49.54 175.00 C 49.59 181.88 49.71 188.01 49.81 188.63 C 50.07 190.17 59.67 194.19 62.20 193.81 C 63.84 193.56 64.80 191.70 66.98 184.50 C 68.48 179.55 70.33 174.15 71.09 172.50 C 72.46 169.50 72.46 169.50 72.81 175.00 C 73.00 178.03 72.86 183.76 72.49 187.73 C 71.83 194.97 71.83 194.97 67.67 196.09 C 60.98 197.90 30.90 203.00 26.95 203.00 C 20.70 203.00 20.91 204.05 29.37 215.34 C 33.92 221.41 37.83 224.84 40.33 224.96 C 40.78 224.98 45.95 223.13 51.83 220.85 Z  M 165.21 165.11 C 167.62 162.43 170.67 158.21 171.98 155.75 C 174.12 151.70 174.23 150.96 173.03 148.07 C 171.12 143.45 164.97 137.86 153.10 129.94 C 143.29 123.40 140.00 121.87 140.00 123.85 C 140.00 124.32 141.97 128.94 144.38 134.10 C 146.78 139.27 150.65 148.66 152.96 154.97 C 157.67 167.81 158.69 170.00 159.94 170.00 C 160.42 170.00 162.79 167.80 165.21 165.11 Z "/>
</g>
</svg>