<?xml version="1.0" encoding="UTF-8" standalone="no"?>
<!DOCTYPE svg PUBLIC "-//W3C//DTD SVG 1.1//EN" "http://www.w3.org/Graphics/SVG/1.1/DTD/svg11.dtd" >
<svg xmlns="http://www.w3.org/2000/svg" xmlns:xlink="http://www.w3.org/1999/xlink" version="1.1" viewBox="0 0 256 256">
 <g >
 <path fill="currentColor"
d=" M 86.11 239.34 C 92.19 230.50 93.00 226.83 93.00 207.95 C 93.00 190.93 93.00 190.93 95.25 192.11 C 96.49 192.75 103.30 199.10 110.39 206.21 C 124.98 220.84 124.69 220.78 127.37 209.79 C 129.63 200.51 129.49 197.36 126.75 195.61 C 124.49 194.16 113.51 190.63 100.55 187.18 C 96.73 186.16 93.45 184.86 93.27 184.30 C 93.08 183.74 97.12 181.20 102.25 178.65 C 111.26 174.18 122.18 166.34 124.40 162.75 C 125.20 161.47 125.15 160.47 124.23 159.00 C 123.55 157.90 123.40 157.00 123.91 157.00 C 125.89 157.00 128.11 148.44 127.80 141.99 C 127.50 135.64 127.45 135.52 123.50 133.28 C 119.27 130.87 101.01 124.63 94.86 123.49 C 91.87 122.94 91.11 122.30 90.64 119.94 C 90.05 117.00 81.26 107.00 79.27 107.00 C 78.67 107.00 76.51 109.96 74.49 113.59 C 68.07 125.06 56.02 139.99 39.75 156.61 C 31.08 165.48 20.40 175.37 16.03 178.60 C 11.66 181.83 8.44 184.84 8.89 185.29 C 10.80 187.20 34.64 176.05 45.13 168.33 C 50.97 164.02 50.97 164.02 55.03 169.15 C 57.26 171.97 60.26 176.36 61.71 178.89 C 63.16 181.43 65.01 184.29 65.83 185.26 C 67.26 186.94 67.42 186.94 69.31 185.26 C 72.38 182.55 77.00 174.86 77.00 172.46 C 77.00 169.29 74.45 167.49 64.66 163.70 C 55.86 160.30 55.86 160.30 61.18 155.97 C 64.11 153.59 68.61 149.64 71.18 147.18 C 75.86 142.72 75.86 142.72 76.60 146.61 C 77.01 148.75 77.38 158.11 77.42 167.42 C 77.50 184.34 77.50 184.34 73.00 186.98 C 64.74 191.84 44.60 200.71 35.68 203.42 C 30.84 204.90 27.01 206.49 27.18 206.96 C 27.87 208.82 42.19 220.00 43.89 220.00 C 46.08 220.00 57.64 210.56 68.52 199.87 C 72.93 195.54 76.87 192.00 77.27 192.00 C 77.67 192.00 78.00 196.92 78.00 202.93 C 78.00 217.15 77.77 217.41 66.35 216.46 C 61.76 216.08 58.00 216.03 58.00 216.35 C 58.00 216.67 60.28 219.29 63.07 222.17 C 65.86 225.05 70.63 231.14 73.66 235.70 C 77.28 241.15 79.82 244.00 81.04 244.00 C 82.13 244.00 84.23 242.07 86.11 239.34 Z  M 155.60 227.41 C 156.37 225.57 157.00 222.09 157.00 219.67 C 157.00 215.27 157.00 215.27 161.41 214.67 C 163.84 214.33 180.38 213.56 198.16 212.95 C 215.95 212.34 231.08 211.66 231.78 211.44 C 233.65 210.85 231.29 206.76 225.12 199.88 C 222.34 196.79 220.26 194.07 220.49 193.84 C 220.72 193.61 221.87 188.04 223.04 181.46 C 225.18 169.50 225.18 169.50 231.65 162.79 C 239.31 154.84 239.39 155.34 228.59 144.15 C 220.86 136.15 216.95 133.56 213.97 134.51 C 212.91 134.85 209.31 138.20 205.97 141.95 C 200.50 148.11 199.43 148.85 195.20 149.44 C 192.61 149.81 188.97 150.37 187.09 150.69 C 183.68 151.28 183.68 151.28 184.28 129.01 C 184.60 116.75 185.24 106.37 185.69 105.94 C 186.13 105.50 196.40 104.61 208.50 103.95 C 231.46 102.70 235.00 102.10 235.00 99.46 C 235.00 95.42 221.52 83.00 217.14 83.00 C 215.94 83.00 211.47 84.75 207.21 86.90 C 201.70 89.67 197.54 91.00 192.82 91.50 C 186.18 92.21 186.18 92.21 186.68 81.86 C 186.95 76.16 188.04 66.28 189.09 59.89 C 191.95 42.49 191.87 41.75 186.45 37.62 C 183.95 35.71 178.57 32.43 174.49 30.33 C 165.72 25.81 164.33 26.26 165.99 33.09 C 168.48 43.33 170.05 149.29 167.75 151.59 C 167.34 152.00 164.59 152.54 161.65 152.78 C 156.31 153.22 156.29 153.21 155.66 150.06 C 155.11 147.31 154.13 146.48 148.26 143.82 C 141.25 140.63 134.00 137.87 134.00 138.38 C 134.00 138.55 134.88 142.11 135.95 146.29 C 139.84 161.52 140.46 176.64 138.83 217.31 C 138.71 220.35 143.94 226.64 149.43 230.07 C 152.89 232.23 153.74 231.86 155.60 227.41 Z  M 32.53 122.58 C 48.64 114.31 59.19 107.20 71.00 96.68 C 79.18 89.38 80.55 88.50 80.85 90.31 C 81.04 91.47 80.67 94.15 80.04 96.27 C 79.20 99.06 79.18 101.01 79.96 103.37 C 81.33 107.52 88.19 114.30 90.55 113.84 C 93.56 113.26 95.84 104.73 95.92 93.70 C 96.00 83.91 96.00 83.91 109.25 96.04 C 116.54 102.71 124.00 110.05 125.84 112.34 C 127.67 114.63 129.89 116.50 130.76 116.50 C 133.61 116.50 137.00 108.36 137.00 101.51 C 137.00 95.33 137.00 95.33 124.25 89.28 C 117.24 85.95 108.01 81.99 103.75 80.48 C 97.24 78.17 96.00 77.38 96.00 75.51 C 96.00 73.43 96.68 73.22 107.25 72.02 C 113.44 71.32 123.90 70.53 130.50 70.28 C 137.10 70.02 142.93 69.41 143.45 68.91 C 144.59 67.82 139.52 62.33 132.75 57.34 C 128.01 53.83 128.01 53.83 118.75 56.89 C 113.66 58.57 106.39 60.25 102.59 60.63 C 95.69 61.31 95.69 61.31 96.26 53.77 C 96.62 48.95 96.44 45.84 95.75 45.15 C 94.49 43.89 94.53 43.88 104.50 41.55 C 114.82 39.14 120.00 36.98 119.99 35.11 C 119.97 31.81 115.03 23.02 110.97 19.09 C 106.78 15.02 106.78 15.02 100.64 20.34 C 97.26 23.26 92.92 26.81 91.00 28.23 C 87.34 30.92 58.40 44.71 51.50 47.06 C 42.48 50.12 43.78 52.38 54.00 51.42 C 57.58 51.08 64.70 49.92 69.84 48.83 C 74.98 47.74 79.46 47.13 79.79 47.46 C 80.13 47.80 80.43 51.53 80.45 55.77 C 80.50 63.46 80.50 63.46 75.00 64.14 C 57.18 66.34 48.99 67.00 39.56 67.00 C 31.87 67.00 29.00 67.33 29.00 68.23 C 29.00 69.91 35.19 78.86 36.77 79.47 C 37.48 79.74 44.62 79.07 52.66 77.98 C 71.14 75.48 70.36 75.47 68.90 78.18 C 65.82 83.94 37.72 110.34 20.25 123.87 C 17.91 125.69 16.00 127.58 16.00 128.08 C 16.00 130.21 20.77 128.62 32.53 122.58 Z  M 93.48 165.41 C 93.92 158.31 94.26 151.43 94.24 150.12 C 94.18 146.63 91.16 143.20 85.50 140.17 C 82.75 138.70 80.30 137.38 80.06 137.23 C 79.47 136.87 87.21 129.00 88.16 129.00 C 89.29 129.00 108.14 143.40 110.92 146.39 C 112.26 147.83 112.87 149.00 112.29 149.00 C 111.70 149.00 109.58 152.45 107.58 156.66 C 104.03 164.14 96.11 176.19 93.82 177.61 C 92.97 178.14 92.88 175.03 93.48 165.41 Z  M 157.00 182.99 C 157.00 166.05 157.01 166.00 159.25 165.95 C 160.49 165.93 171.40 165.09 183.50 164.09 C 195.60 163.09 205.65 162.40 205.84 162.56 C 206.19 162.86 203.29 187.82 202.45 191.74 C 201.69 195.27 195.15 198.00 186.22 198.51 C 154.28 200.36 157.00 201.81 157.00 182.99 Z "/>
</g>
</svg>