<?xml version="1.0" encoding="UTF-8" standalone="no"?>
<!DOCTYPE svg PUBLIC "-//W3C//DTD SVG 1.1//EN" "http://www.w3.org/Graphics/SVG/1.1/DTD/svg11.dtd" >
<svg xmlns="http://www.w3.org/2000/svg" xmlns:xlink="http://www.w3.org/1999/xlink" version="1.1" viewBox="0 0 256 256">
 <g >
 <path fill="currentColor"
d=" M 161.82 238.75 C 167.71 229.08 170.47 208.89 169.75 180.75 C 169.47 169.89 169.55 161.00 169.93 161.00 C 170.30 161.00 172.16 162.62 174.05 164.59 C 178.50 169.23 196.59 184.17 201.06 186.89 C 208.42 191.38 208.21 192.11 212.55 145.61 C 212.90 141.82 214.72 132.63 216.59 125.19 C 218.47 117.76 220.00 111.57 220.00 111.44 C 220.00 111.13 191.25 95.00 190.69 95.00 C 190.44 95.00 189.75 96.93 189.15 99.30 C 188.07 103.60 188.07 103.60 179.20 105.30 C 174.32 106.23 169.79 107.00 169.13 107.00 C 168.26 107.00 168.00 104.44 168.21 97.76 C 168.50 88.52 168.50 88.52 177.50 86.73 C 185.10 85.21 189.58 85.03 206.35 85.54 C 226.19 86.15 226.19 86.15 225.58 83.32 C 225.24 81.77 223.67 73.97 222.09 66.00 C 220.48 57.85 218.77 51.60 218.19 51.73 C 217.61 51.85 214.98 53.33 212.33 55.01 C 209.68 56.69 203.44 59.37 198.47 60.96 C 187.96 64.32 171.36 67.70 170.34 66.68 C 169.47 65.80 172.61 48.61 175.12 40.50 C 178.18 30.61 178.21 30.68 168.25 27.13 C 163.44 25.42 157.03 23.53 154.00 22.94 C 150.97 22.35 146.36 21.13 143.75 20.24 C 137.00 17.92 135.80 19.37 139.24 25.72 C 140.67 28.35 142.51 33.88 143.33 38.00 C 144.98 46.30 147.48 69.85 146.78 70.56 C 145.76 71.58 120.69 72.45 110.51 71.82 C 104.47 71.45 99.39 71.28 99.22 71.45 C 98.91 71.76 107.03 103.20 107.59 103.86 C 107.76 104.07 110.85 102.58 114.46 100.56 C 118.84 98.11 124.60 96.08 131.76 94.45 C 148.06 90.76 147.00 90.28 147.00 101.31 C 147.00 110.62 147.00 110.62 135.50 112.96 C 124.00 115.29 124.00 115.29 117.17 112.15 C 110.13 108.90 107.00 108.25 107.00 110.02 C 107.00 110.58 108.10 113.17 109.44 115.77 C 114.11 124.82 114.76 148.76 110.56 156.89 C 109.73 158.49 107.85 160.67 106.38 161.74 C 104.14 163.38 103.82 164.16 104.43 166.60 C 105.31 170.14 123.19 188.00 125.86 188.00 C 127.03 188.00 128.29 186.63 129.33 184.25 C 132.70 176.47 133.27 171.25 132.81 152.03 C 132.36 133.15 132.36 133.15 138.63 131.58 C 142.09 130.71 145.44 130.00 146.08 130.00 C 147.25 130.00 147.22 132.24 145.41 183.00 C 144.89 197.39 145.09 200.81 146.93 209.75 C 149.35 221.54 154.26 235.79 157.16 239.47 C 158.25 240.86 159.30 242.00 159.49 242.00 C 159.68 242.00 160.73 240.54 161.82 238.75 Z  M 63.75 202.25 C 75.79 183.77 80.43 175.31 88.48 157.12 C 95.49 141.31 97.00 134.87 93.85 134.23 C 92.85 134.03 88.00 137.84 81.57 143.89 C 60.01 164.16 42.26 177.75 30.78 182.79 C 25.06 185.30 25.06 185.30 39.78 200.58 C 47.88 208.98 54.57 215.89 54.65 215.93 C 54.73 215.97 58.82 209.81 63.75 202.25 Z  M 73.39 126.40 C 75.76 125.50 76.29 120.20 75.05 110.01 C 73.72 99.00 72.01 94.46 68.84 93.43 C 60.80 90.81 27.00 95.99 27.00 99.84 C 27.00 100.35 30.71 102.69 35.25 105.03 C 39.79 107.38 48.90 113.00 55.51 117.53 C 62.11 122.05 68.41 125.99 69.51 126.26 C 70.60 126.54 71.58 126.82 71.67 126.88 C 71.76 126.95 72.54 126.73 73.39 126.40 Z  M 86.06 70.43 C 87.89 68.22 88.61 48.38 87.03 43.60 C 85.32 38.41 82.39 36.94 70.73 35.40 C 55.66 33.40 40.60 33.54 38.45 35.70 C 36.43 37.71 35.63 36.94 54.11 50.77 C 60.92 55.86 69.61 62.73 73.40 66.02 C 80.48 72.15 83.70 73.27 86.06 70.43 Z  M 168.79 140.88 C 168.57 133.52 168.63 127.20 168.94 126.83 C 169.25 126.46 173.89 125.52 179.25 124.75 C 190.52 123.11 189.64 122.11 187.95 134.68 C 185.95 149.58 183.74 152.76 174.73 153.69 C 169.21 154.26 169.21 154.26 168.79 140.88 Z "/>
</g>
</svg>