<?xml version="1.0" encoding="UTF-8" standalone="no"?>
<!DOCTYPE svg PUBLIC "-//W3C//DTD SVG 1.1//EN" "http://www.w3.org/Graphics/SVG/1.1/DTD/svg11.dtd" >
<svg xmlns="http://www.w3.org/2000/svg" xmlns:xlink="http://www.w3.org/1999/xlink" version="1.1" viewBox="0 0 256 256">
 <g >
 <path fill="currentColor"
d=" M 83.49 232.17 C 85.05 228.14 85.99 192.64 85.42 159.50 C 84.80 123.50 84.80 123.50 90.39 131.00 C 93.46 135.12 97.82 142.02 100.07 146.31 C 104.64 155.04 106.45 156.40 109.08 153.15 C 111.17 150.57 115.82 136.79 116.05 132.50 C 116.49 124.20 116.42 124.06 109.75 121.06 C 106.31 119.51 99.45 116.97 94.50 115.41 C 89.55 113.85 85.33 112.46 85.13 112.33 C 84.93 112.20 90.68 104.85 97.91 96.00 C 105.14 87.14 110.83 79.54 110.56 79.10 C 109.75 77.78 85.93 58.73 85.60 59.13 C 85.43 59.33 83.67 62.06 81.69 65.20 C 77.25 72.23 75.39 73.47 65.59 75.98 C 53.28 79.13 42.52 80.14 33.54 79.01 C 29.21 78.46 25.55 78.12 25.41 78.26 C 25.19 78.48 34.30 111.50 35.48 114.74 C 35.77 115.53 38.26 114.21 42.44 111.04 C 48.38 106.55 59.99 100.34 65.82 98.54 C 68.09 97.84 68.11 97.89 66.66 100.66 C 63.58 106.56 43.09 136.82 36.97 144.50 C 33.47 148.90 24.83 158.66 17.78 166.18 C 10.73 173.70 5.31 180.08 5.74 180.34 C 9.64 182.75 38.00 169.96 47.82 161.37 C 50.69 158.86 56.01 153.01 59.64 148.36 C 63.27 143.71 66.35 140.04 66.49 140.20 C 66.63 140.37 66.13 149.28 65.38 160.00 C 64.05 179.16 60.17 202.01 56.92 209.76 C 55.56 213.02 55.56 213.02 64.98 222.48 C 76.92 234.47 81.65 236.95 83.49 232.17 Z  M 104.50 222.42 C 117.43 216.26 130.99 207.03 139.62 198.52 C 147.13 191.12 156.12 178.24 161.08 167.76 C 163.04 163.63 163.87 162.52 163.53 164.50 C 158.17 195.33 161.21 208.04 175.79 215.81 C 184.32 220.35 191.82 222.00 203.96 221.99 C 216.64 221.98 224.78 220.80 235.70 217.37 C 247.62 213.63 247.41 213.89 245.48 205.48 C 241.48 188.08 228.09 150.00 225.97 150.00 C 224.03 150.00 223.18 153.82 221.66 169.39 C 219.75 189.05 218.86 191.30 211.48 195.00 C 207.41 197.04 205.04 197.50 198.50 197.50 C 188.81 197.50 184.10 195.31 182.61 190.13 C 181.10 184.87 183.26 174.22 187.64 165.32 C 189.76 161.02 191.65 157.15 191.84 156.73 C 192.31 155.66 179.99 150.19 173.97 148.80 C 168.36 147.51 168.17 147.00 170.51 139.41 C 171.35 136.71 172.89 128.16 173.94 120.41 C 175.00 112.67 176.53 103.67 177.35 100.41 C 178.16 97.16 179.13 92.62 179.49 90.32 C 180.15 86.13 180.15 86.13 173.33 84.11 C 160.43 80.30 149.96 78.71 148.35 80.32 C 148.00 80.67 148.83 82.66 150.20 84.73 C 154.70 91.54 155.34 95.20 154.71 110.45 C 154.07 126.02 152.12 137.20 148.32 147.00 C 143.30 159.95 132.09 181.66 126.90 188.47 C 121.28 195.87 108.99 208.58 97.65 218.74 C 91.33 224.41 90.03 227.00 93.51 227.00 C 94.28 227.00 99.22 224.94 104.50 222.42 Z  M 139.03 151.95 C 141.71 146.94 144.11 122.78 144.87 93.07 C 145.50 68.64 145.50 68.64 148.39 67.87 C 149.98 67.45 158.01 65.88 166.23 64.39 C 178.92 62.10 181.33 61.90 182.15 63.09 C 183.28 64.74 182.67 132.51 181.50 135.30 C 180.47 137.77 188.14 145.03 195.98 148.99 C 205.86 153.98 206.46 153.46 206.12 140.43 C 205.98 135.38 206.35 126.81 206.93 121.38 C 207.51 115.94 208.66 102.72 209.47 92.00 C 210.77 74.87 212.38 64.93 216.45 49.00 C 217.06 46.62 216.27 46.09 199.53 37.75 C 189.88 32.94 181.76 29.00 181.49 29.00 C 181.22 29.00 181.00 30.97 181.00 33.38 C 181.00 35.79 180.44 38.22 179.75 38.78 C 178.14 40.10 172.94 41.47 154.47 45.46 C 142.22 48.10 138.43 48.55 133.97 47.91 C 118.03 45.62 118.00 45.62 118.00 47.41 C 118.00 48.34 118.67 50.40 119.49 51.99 C 121.97 56.78 124.00 75.33 124.10 93.96 C 124.17 108.50 123.81 113.13 122.04 121.00 C 120.85 126.22 119.46 130.93 118.94 131.45 C 116.92 133.48 118.22 136.83 123.49 143.18 C 128.77 149.54 134.17 153.95 136.71 153.98 C 137.38 153.99 138.42 153.08 139.03 151.95 Z  M 76.62 62.46 C 78.39 59.76 81.90 44.59 81.96 39.34 C 82.01 35.06 77.80 31.64 69.20 28.97 C 62.64 26.93 40.23 23.76 38.75 24.66 C 37.00 25.73 38.54 27.85 48.34 37.90 C 54.02 43.73 61.52 51.88 65.00 56.00 C 73.64 66.25 74.00 66.45 76.62 62.46 Z "/>
</g>
</svg>