<?xml version="1.0" encoding="UTF-8" standalone="no"?>
<!DOCTYPE svg PUBLIC "-//W3C//DTD SVG 1.1//EN" "http://www.w3.org/Graphics/SVG/1.1/DTD/svg11.dtd" >
<svg xmlns="http://www.w3.org/2000/svg" xmlns:xlink="http://www.w3.org/1999/xlink" version="1.1" viewBox="0 0 256 256">
 <g >
 <path fill="currentColor"
d=" M 125.50 231.14 C 143.96 225.49 168.60 222.00 189.99 222.00 C 202.72 222.00 232.17 224.75 239.70 226.64 C 240.97 226.96 242.00 226.94 242.00 226.60 C 242.00 225.73 238.10 197.16 237.45 193.25 C 236.91 189.99 236.91 189.99 233.23 192.49 C 231.21 193.86 227.52 195.66 225.03 196.49 C 219.18 198.43 198.72 203.06 198.22 202.55 C 197.20 201.54 209.95 178.98 216.05 171.00 C 222.94 161.99 222.94 161.99 218.72 159.32 C 216.40 157.86 209.55 153.44 203.49 149.51 C 192.48 142.37 192.48 142.37 190.47 145.43 C 188.57 148.35 188.05 148.53 179.98 149.15 C 175.32 149.51 167.09 149.85 161.69 149.90 C 151.89 150.00 151.89 150.00 153.59 147.12 C 155.50 143.88 153.66 144.24 184.50 141.03 C 194.40 139.99 208.70 138.83 216.28 138.45 C 228.36 137.84 230.00 137.55 229.56 136.13 C 229.29 135.23 227.88 129.32 226.42 123.00 C 224.97 116.67 223.48 111.17 223.11 110.77 C 222.74 110.37 218.21 111.86 213.03 114.09 C 207.86 116.32 199.55 119.21 194.56 120.52 C 184.36 123.19 163.26 126.59 162.37 125.70 C 162.05 125.38 162.54 123.14 163.47 120.72 C 165.13 116.37 165.22 116.30 171.83 115.02 C 175.50 114.31 184.21 113.44 191.18 113.09 C 198.16 112.75 204.12 112.21 204.44 111.89 C 205.12 111.21 202.01 89.83 201.08 88.76 C 200.72 88.36 198.01 88.95 195.05 90.07 C 188.31 92.63 172.98 96.32 172.22 95.55 C 171.91 95.24 172.07 93.31 172.58 91.26 C 173.72 86.63 174.82 86.37 198.35 85.07 C 207.61 84.56 215.36 83.97 215.57 83.76 C 216.10 83.24 210.63 54.29 209.85 53.52 C 209.50 53.17 204.33 55.37 198.36 58.41 C 192.39 61.45 186.60 64.17 185.49 64.46 C 184.39 64.74 189.69 58.61 197.28 50.82 C 205.26 42.63 210.95 35.99 210.78 35.09 C 210.61 34.23 207.72 31.50 204.35 29.01 C 187.09 16.30 183.75 14.00 182.51 14.00 C 181.57 14.00 180.97 16.06 180.54 20.75 C 180.20 24.46 179.70 28.91 179.43 30.64 C 178.86 34.40 171.02 50.40 164.33 61.50 C 159.50 69.50 159.50 69.50 152.00 70.32 C 144.50 71.14 126.71 70.66 117.75 69.40 C 113.00 68.73 113.00 68.73 112.99 73.11 C 112.98 77.50 112.98 77.50 102.26 66.68 C 96.37 60.73 91.42 56.23 91.26 56.68 C 91.10 57.13 89.95 59.29 88.71 61.49 C 86.55 65.31 86.03 65.59 76.48 68.20 C 70.99 69.69 65.96 70.94 65.30 70.96 C 64.12 71.00 71.75 52.74 76.38 44.45 C 77.62 42.22 78.45 39.86 78.23 39.20 C 77.31 36.43 56.41 26.99 45.25 24.31 C 42.57 23.66 42.58 23.58 44.59 31.36 C 46.63 39.20 45.44 49.67 40.07 71.32 C 34.44 94.03 29.99 104.40 14.03 132.04 C 7.78 142.84 6.80 146.00 9.68 146.00 C 12.02 146.00 27.36 130.00 34.00 120.64 C 39.50 112.89 39.50 112.89 40.32 117.69 C 41.79 126.36 41.42 156.88 39.63 174.74 C 37.77 193.18 36.23 200.67 32.96 207.08 C 30.90 211.11 30.90 211.11 40.04 222.55 C 45.07 228.85 49.52 234.00 49.93 234.00 C 51.08 234.00 63.40 217.14 71.71 204.18 C 80.33 190.73 95.55 160.70 94.55 159.09 C 94.18 158.49 93.21 158.00 92.39 158.00 C 90.28 158.00 80.18 165.08 76.00 169.49 C 71.54 174.19 60.06 183.39 59.44 182.77 C 58.97 182.30 62.50 144.77 63.65 138.00 C 63.98 136.07 65.49 131.55 67.00 127.94 C 69.75 121.37 69.75 121.37 57.79 114.94 C 51.21 111.40 45.37 108.22 44.81 107.88 C 44.20 107.51 44.85 105.68 46.43 103.28 C 48.99 99.42 49.51 99.17 64.64 94.60 C 73.21 92.01 80.46 90.12 80.74 90.41 C 81.03 90.70 79.10 97.24 76.45 104.95 C 73.80 112.66 71.94 119.27 72.32 119.65 C 73.89 121.22 79.42 116.57 96.00 99.74 C 105.62 89.97 113.78 81.99 114.13 81.99 C 114.47 82.00 115.32 85.60 116.00 90.00 C 116.68 94.40 117.53 98.01 117.87 98.02 C 118.22 98.03 124.70 96.39 132.27 94.37 C 139.84 92.36 146.29 90.96 146.60 91.26 C 146.90 91.57 146.77 93.77 146.30 96.16 C 145.44 100.50 145.44 100.50 139.47 101.31 C 136.19 101.76 129.56 101.88 124.75 101.57 C 119.94 101.27 116.00 101.25 116.00 101.53 C 116.00 102.37 123.19 126.47 123.55 126.86 C 123.73 127.06 127.09 126.00 131.00 124.50 C 134.91 123.00 138.32 121.98 138.56 122.23 C 138.81 122.47 138.52 124.09 137.92 125.81 C 137.07 128.23 136.11 129.05 133.66 129.42 C 125.84 130.61 118.01 130.88 112.25 130.15 C 108.55 129.69 106.00 129.74 106.00 130.28 C 106.00 131.46 110.24 154.40 110.53 154.79 C 110.65 154.95 113.81 153.93 117.55 152.52 C 121.30 151.11 124.73 150.08 125.18 150.23 C 126.62 150.71 116.24 165.85 107.57 175.92 C 102.97 181.27 92.85 191.41 85.10 198.45 C 71.79 210.53 68.41 215.00 72.58 215.00 C 75.29 215.00 95.73 204.04 103.80 198.26 C 108.03 195.23 114.04 190.55 117.14 187.87 C 120.24 185.19 122.99 183.00 123.26 183.00 C 123.53 183.00 124.33 187.28 125.05 192.50 C 125.77 197.72 126.39 202.00 126.44 202.00 C 126.48 202.00 130.10 200.44 134.47 198.54 C 138.84 196.64 142.56 195.22 142.72 195.39 C 142.89 195.56 142.04 198.43 140.84 201.78 C 138.65 207.86 138.65 207.86 131.08 208.58 C 126.91 208.97 117.20 208.82 109.50 208.26 C 101.80 207.69 95.35 207.36 95.17 207.53 C 94.84 207.83 102.85 236.85 103.63 238.17 C 103.85 238.55 106.61 237.80 109.76 236.53 C 112.92 235.25 120.00 232.82 125.50 231.14 Z  M 140.28 67.00 C 143.38 64.55 149.35 55.23 156.73 41.29 C 163.82 27.89 163.27 27.04 151.25 32.74 C 146.44 35.02 141.37 37.12 139.98 37.41 C 138.60 37.69 134.10 37.05 129.98 35.98 C 125.87 34.91 121.47 34.03 120.20 34.02 C 118.09 34.00 117.97 34.30 118.60 37.75 C 120.79 49.53 128.66 64.53 134.33 67.71 C 137.21 69.33 137.33 69.31 140.28 67.00 Z  M 157.00 205.34 C 157.00 205.01 158.21 202.05 159.70 198.74 C 162.39 192.74 162.39 192.74 169.86 193.37 C 173.97 193.72 177.53 194.20 177.77 194.44 C 178.01 194.68 177.57 196.79 176.79 199.13 C 175.77 202.18 174.68 203.57 172.93 204.03 C 169.26 205.01 157.00 206.01 157.00 205.34 Z  M 177.70 189.00 C 177.33 187.62 177.02 184.14 177.01 181.25 C 177.01 178.36 176.83 176.00 176.62 176.00 C 176.41 176.00 174.57 176.70 172.51 177.56 C 170.46 178.42 168.55 178.88 168.26 178.60 C 167.98 178.31 168.98 175.18 170.48 171.63 C 173.22 165.19 173.22 165.19 179.86 164.22 C 183.51 163.68 186.64 163.37 186.82 163.52 C 186.99 163.67 185.16 170.03 182.75 177.65 C 179.28 188.64 178.23 190.98 177.70 189.00 Z  M 127.71 179.38 C 127.05 178.72 136.95 167.00 138.17 167.00 C 138.56 167.00 139.67 168.32 140.62 169.93 C 142.35 172.86 142.35 172.86 147.17 170.41 C 149.83 169.07 152.00 168.16 152.00 168.39 C 152.00 168.63 151.04 171.34 149.86 174.41 C 147.72 180.00 147.72 180.00 138.03 180.00 C 132.70 180.00 128.05 179.72 127.71 179.38 Z "/>
</g>
</svg>