<?xml version="1.0" encoding="UTF-8" standalone="no"?>
<!DOCTYPE svg PUBLIC "-//W3C//DTD SVG 1.1//EN" "http://www.w3.org/Graphics/SVG/1.1/DTD/svg11.dtd" >
<svg xmlns="http://www.w3.org/2000/svg" xmlns:xlink="http://www.w3.org/1999/xlink" version="1.1" viewBox="0 0 256 256">
 <g >
 <path fill="currentColor"
d=" M 219.65 242.28 C 225.39 239.21 229.72 233.62 231.06 227.56 C 231.76 224.39 232.05 214.28 231.84 200.50 C 231.52 179.87 231.36 178.21 229.18 173.79 C 226.39 168.12 221.96 165.14 215.16 164.33 C 208.41 163.53 203.66 164.58 199.99 167.66 C 194.72 172.09 193.59 175.39 193.02 188.00 C 192.50 199.50 192.50 199.50 189.12 199.82 C 187.27 200.00 185.24 199.64 184.62 199.02 C 183.96 198.36 183.27 192.13 182.94 183.70 C 182.16 163.74 179.61 159.28 167.51 156.74 C 160.88 155.35 151.40 156.87 146.96 160.03 C 141.18 164.14 139.65 168.91 139.19 184.28 C 138.84 195.94 138.51 198.19 137.07 198.96 C 135.98 199.54 134.50 199.44 132.94 198.66 C 130.76 197.57 130.41 196.55 129.68 188.97 C 129.23 184.31 128.53 180.16 128.13 179.75 C 127.21 178.80 111.54 185.06 103.22 189.70 C 94.05 194.82 93.73 195.75 94.17 216.39 C 94.59 235.83 95.33 238.44 101.25 241.33 C 107.13 244.21 119.02 244.79 169.00 244.64 C 215.00 244.50 215.54 244.48 219.65 242.28 Z  M 80.75 195.37 C 82.58 194.88 83.00 194.06 83.00 190.97 C 83.00 188.08 82.08 186.02 79.16 182.33 C 69.79 170.47 66.29 151.63 71.22 139.50 C 73.35 134.24 73.59 132.36 73.20 124.25 C 72.87 117.36 73.22 113.20 74.58 107.96 C 76.34 101.16 76.34 100.77 74.59 96.21 C 73.59 93.62 72.32 89.25 71.78 86.50 C 70.55 80.31 71.40 45.81 72.89 41.04 C 73.53 39.02 73.61 37.21 73.09 36.69 C 72.60 36.20 62.40 35.98 50.35 36.21 C 32.19 36.54 27.78 36.92 24.26 38.41 C 19.07 40.61 14.46 45.68 13.06 50.72 C 11.70 55.61 11.63 171.16 12.98 179.40 C 14.43 188.24 18.54 193.39 25.50 195.07 C 29.15 195.95 77.59 196.22 80.75 195.37 Z  M 105.19 178.38 C 120.42 173.57 123.44 171.76 134.96 160.54 C 140.88 154.77 146.87 149.62 148.27 149.09 C 152.86 147.34 162.39 146.78 168.43 147.90 C 177.54 149.59 182.67 152.52 186.33 158.11 C 188.07 160.78 190.18 162.97 191.02 162.98 C 191.85 162.99 194.30 161.80 196.45 160.34 C 198.60 158.88 203.31 157.06 206.92 156.31 C 210.52 155.55 213.90 154.50 214.43 153.97 C 215.42 152.98 208.36 138.42 204.99 134.50 C 204.04 133.40 202.04 130.36 200.54 127.75 C 199.04 125.14 197.27 123.00 196.61 123.00 C 195.95 123.00 193.65 124.80 191.50 127.00 C 187.11 131.50 185.56 131.91 183.99 128.98 C 182.77 126.71 182.76 126.74 188.78 118.53 C 192.85 112.99 193.14 112.18 192.90 107.03 C 192.21 92.52 192.50 91.37 198.50 85.09 C 204.85 78.43 205.37 75.79 201.30 70.94 C 197.95 66.96 193.42 65.00 187.60 65.00 C 183.98 65.00 182.76 65.49 181.07 67.63 C 179.93 69.08 179.00 70.77 179.01 71.38 C 179.02 72.74 183.12 81.01 186.50 86.50 C 189.26 90.98 189.78 98.99 187.67 104.68 C 184.04 114.54 174.82 121.94 167.81 120.62 C 162.51 119.63 155.76 114.83 150.09 108.01 C 142.47 98.86 139.97 93.22 138.67 82.27 C 137.58 73.10 137.50 72.92 135.03 73.21 C 132.50 73.50 132.50 73.50 132.41 89.50 C 132.34 103.46 131.99 106.76 129.69 115.40 C 126.75 126.41 122.44 136.27 118.97 139.88 C 115.34 143.65 106.20 147.36 99.50 147.79 C 94.30 148.11 92.74 147.76 87.77 145.08 C 84.62 143.39 81.84 142.00 81.59 142.00 C 80.68 142.00 78.85 153.24 78.75 159.39 C 78.67 164.70 79.15 166.61 81.68 171.12 C 85.07 177.15 89.90 181.00 94.10 181.00 C 95.64 181.00 100.63 179.82 105.19 178.38 Z  M 233.98 143.01 C 241.67 139.09 245.58 130.84 244.74 120.36 C 243.88 109.60 241.70 108.02 227.62 107.98 C 218.24 107.95 213.26 105.69 209.03 99.54 C 204.84 93.45 202.11 93.57 200.09 99.94 C 198.18 105.99 199.32 109.77 207.41 124.10 C 215.03 137.58 221.98 145.00 227.00 145.00 C 228.69 145.00 231.84 144.10 233.98 143.01 Z  M 105.98 137.25 C 120.15 130.13 133.04 81.88 121.22 80.18 C 119.23 79.89 118.99 80.30 118.94 84.18 C 118.91 86.56 118.53 90.65 118.09 93.29 C 116.55 102.66 108.44 107.32 94.35 106.91 C 84.89 106.63 84.12 107.43 83.29 118.33 C 82.81 124.70 83.05 126.47 84.91 130.32 C 87.09 134.81 89.81 137.32 93.54 138.27 C 97.71 139.33 102.65 138.92 105.98 137.25 Z  M 176.25 107.80 C 183.16 102.93 180.60 91.36 169.45 77.11 C 163.01 68.88 159.66 67.12 154.83 69.42 C 149.72 71.86 146.63 77.07 147.22 82.25 C 148.64 94.84 163.95 112.53 171.50 110.32 C 172.60 110.00 174.74 108.87 176.25 107.80 Z  M 240.03 95.29 C 244.61 90.16 245.50 85.41 245.50 66.00 C 245.50 48.79 245.45 48.40 242.65 42.70 C 240.69 38.70 238.53 36.06 235.73 34.20 C 231.69 31.53 231.43 31.49 209.92 30.95 C 194.11 30.54 187.75 30.03 186.59 29.08 C 185.72 28.35 184.47 25.95 183.80 23.74 C 182.13 18.16 177.39 13.45 171.98 11.99 C 165.42 10.23 150.48 11.10 145.50 13.54 C 142.31 15.10 140.89 16.75 138.50 21.68 C 136.85 25.08 135.13 28.23 134.67 28.68 C 134.21 29.13 125.21 29.73 114.67 30.00 C 91.76 30.60 90.29 31.13 85.51 40.49 C 82.50 46.37 82.50 46.37 82.50 67.43 C 82.50 85.69 82.74 88.93 84.27 91.73 C 86.58 95.97 90.71 98.00 97.02 98.00 C 106.11 98.00 107.62 96.15 109.08 83.24 C 110.42 71.52 111.51 70.00 118.58 70.00 C 123.37 70.00 124.74 69.53 128.70 66.50 C 133.56 62.79 139.17 61.84 142.81 64.12 C 144.24 65.01 145.80 64.63 150.55 62.24 C 153.82 60.59 158.40 58.93 160.71 58.54 C 164.41 57.92 165.24 58.15 167.51 60.42 C 168.93 61.84 170.41 62.99 170.80 62.97 C 171.18 62.96 173.95 61.39 176.95 59.47 C 183.56 55.26 189.88 54.86 198.54 58.10 C 210.03 62.40 212.21 66.20 213.91 84.95 C 214.68 93.53 215.02 94.62 217.55 96.80 C 220.10 98.99 221.05 99.16 228.75 98.85 C 236.77 98.52 237.30 98.35 240.03 95.29 Z  M 46.90 152.39 C 45.83 151.09 45.63 144.55 45.87 119.72 C 46.04 102.63 46.56 87.67 47.01 86.46 C 47.84 84.28 50.96 83.10 54.15 83.77 C 56.86 84.33 57.82 88.75 58.42 103.50 C 58.74 111.20 59.29 123.85 59.64 131.62 C 59.99 139.38 59.99 146.91 59.63 148.35 C 58.45 153.04 49.74 155.80 46.90 152.39 Z  M 33.93 86.33 C 33.34 84.77 32.18 79.87 31.35 75.44 C 30.53 71.01 29.48 66.78 29.03 66.04 C 27.71 63.91 25.04 65.65 23.36 69.74 C 21.65 73.87 19.22 77.00 17.73 77.00 C 17.14 77.00 16.92 71.75 17.16 63.54 C 17.62 47.69 18.59 45.57 26.58 42.78 C 30.62 41.37 34.63 41.10 48.99 41.28 C 66.47 41.50 66.47 41.50 66.31 60.00 C 66.12 82.40 66.21 81.00 65.07 81.00 C 63.26 81.00 61.04 77.85 59.93 73.70 C 58.65 68.91 57.20 66.76 55.83 67.60 C 55.32 67.92 53.79 70.67 52.45 73.71 C 49.56 80.24 48.11 79.87 45.48 71.93 C 44.58 69.23 43.46 66.79 43.00 66.50 C 42.53 66.21 41.62 68.57 40.99 71.74 C 38.20 85.54 37.42 88.36 36.25 88.75 C 35.57 88.98 34.53 87.89 33.93 86.33 Z  M 89.15 60.07 C 89.68 38.82 90.59 38.08 117.40 36.77 C 138.38 35.75 140.03 35.19 142.56 28.27 C 143.52 25.65 145.38 22.38 146.68 21.00 C 148.82 18.74 149.92 18.47 158.27 18.20 C 170.24 17.82 173.42 19.29 177.14 26.92 C 181.34 35.54 183.29 36.17 207.69 36.78 C 230.21 37.34 232.35 37.91 235.60 44.20 C 237.68 48.22 238.95 70.29 237.17 71.40 C 236.52 71.79 233.07 68.08 228.79 62.38 C 219.83 50.47 219.94 50.60 217.53 49.27 C 215.17 47.96 211.77 49.45 208.08 53.40 C 206.74 54.83 204.92 56.00 204.02 56.00 C 203.12 56.00 200.01 53.97 197.11 51.50 C 190.22 45.62 188.16 45.17 182.79 48.34 C 170.43 55.65 171.53 55.39 165.32 52.55 C 162.26 51.15 158.94 50.00 157.94 50.00 C 156.94 50.00 154.22 52.25 151.90 55.00 C 149.47 57.88 146.85 60.00 145.71 60.00 C 144.63 60.00 142.00 58.42 139.87 56.50 C 134.42 51.58 132.18 51.90 125.57 58.56 C 119.31 64.87 119.26 64.87 113.00 57.75 C 110.71 55.14 108.25 53.00 107.55 53.00 C 104.95 53.00 101.43 56.91 99.71 61.70 C 97.69 67.32 92.59 74.00 90.33 74.00 C 89.02 74.00 88.86 72.03 89.15 60.07 Z "/>
</g>
</svg>