<?xml version="1.0" encoding="UTF-8" standalone="no"?>
<!DOCTYPE svg PUBLIC "-//W3C//DTD SVG 1.1//EN" "http://www.w3.org/Graphics/SVG/1.1/DTD/svg11.dtd" >
<svg xmlns="http://www.w3.org/2000/svg" xmlns:xlink="http://www.w3.org/1999/xlink" version="1.1" viewBox="0 0 256 256">
 <g >
 <path fill="currentColor"
d=" M 73.18 246.03 C 83.58 242.81 86.38 238.28 88.06 221.91 C 89.12 211.58 88.00 191.76 86.07 186.69 C 85.57 185.37 82.92 182.32 80.17 179.90 C 74.85 175.21 59.99 155.15 56.90 148.50 C 54.41 143.14 54.48 135.70 57.07 130.36 C 60.06 124.17 69.75 115.58 76.20 113.40 C 81.81 111.50 92.02 111.05 98.20 112.42 C 106.30 114.23 109.83 110.56 111.10 99.00 C 112.33 87.92 109.78 80.12 103.89 76.95 C 103.00 76.47 98.09 75.16 92.98 74.05 C 82.85 71.84 79.99 70.08 80.02 66.10 C 80.04 61.25 82.41 59.68 92.27 57.97 C 100.56 56.52 107.02 52.59 109.43 47.51 C 113.79 38.32 109.27 17.95 101.90 13.60 C 98.43 11.55 101.91 11.36 57.27 16.07 C 28.34 19.12 17.67 21.33 13.99 25.01 C 11.11 27.89 9.74 34.63 10.20 43.59 C 10.94 57.80 16.32 62.84 31.89 63.91 C 40.13 64.48 40.50 64.61 41.43 67.27 C 43.07 71.95 40.52 73.41 29.60 74.03 C 19.39 74.61 14.32 76.89 11.93 81.98 C 10.10 85.88 9.64 101.75 11.20 106.90 C 13.13 113.28 16.01 114.99 26.40 115.94 C 31.20 116.37 35.61 117.21 36.19 117.79 C 37.93 119.53 35.86 123.81 24.36 142.27 C 9.06 166.83 7.75 171.10 12.59 180.81 C 16.82 189.30 24.43 194.00 33.94 194.00 C 35.67 194.00 37.87 194.87 39.00 196.00 C 40.84 197.84 41.00 199.33 41.00 214.39 C 41.00 232.93 42.25 238.83 47.26 243.95 C 52.60 249.41 60.24 250.02 73.18 246.03 Z  M 227.74 243.57 C 232.86 241.42 237.48 236.40 239.05 231.28 C 241.94 221.82 242.68 156.42 239.99 147.55 C 238.36 142.17 233.68 137.79 226.50 134.93 C 220.50 132.53 220.50 132.53 170.83 132.52 C 143.52 132.51 120.94 132.73 120.67 133.00 C 120.39 133.28 121.92 137.10 124.07 141.50 C 128.91 151.39 129.36 158.54 125.65 166.50 C 122.99 172.21 113.72 181.25 108.64 183.09 C 105.31 184.29 105.31 184.29 104.69 202.40 C 104.07 220.64 104.63 226.44 107.55 232.09 C 109.73 236.32 115.00 242.02 117.94 243.35 C 120.63 244.56 171.37 245.81 205.50 245.51 C 220.25 245.38 224.27 245.03 227.74 243.57 Z  M 102.68 172.94 C 106.16 171.63 112.64 165.50 114.70 161.58 C 116.74 157.69 116.55 152.04 114.22 146.79 C 111.72 141.14 100.67 127.50 95.67 123.87 C 88.40 118.61 78.12 120.68 70.71 128.90 C 65.50 134.66 64.64 137.32 66.04 143.18 C 68.02 151.42 81.46 168.13 89.50 172.35 C 93.01 174.19 98.70 174.44 102.68 172.94 Z  M 221.23 119.28 C 226.98 116.67 231.37 110.34 233.05 102.25 C 234.61 94.75 233.78 39.10 232.03 33.50 C 229.99 27.00 227.40 24.21 221.70 22.37 C 217.26 20.93 210.23 20.62 173.77 20.25 C 131.42 19.81 131.00 19.82 126.52 21.99 C 122.00 24.18 122.00 24.18 122.64 32.44 C 123.42 42.67 122.03 48.99 117.43 55.97 C 114.62 60.24 114.00 62.12 114.00 66.43 C 114.00 70.34 114.49 72.13 115.91 73.42 C 119.22 76.42 122.18 84.90 122.72 92.93 C 123.12 99.00 122.79 101.76 121.06 106.88 C 118.89 113.26 118.89 113.26 121.20 115.72 C 122.46 117.08 124.40 118.68 125.50 119.29 C 128.44 120.91 151.45 121.79 186.00 121.60 C 214.87 121.44 216.75 121.31 221.23 119.28 Z  M 59.18 62.18 C 56.61 59.61 54.94 55.73 52.52 46.75 C 50.92 40.82 50.41 40.00 48.33 40.00 C 46.34 40.00 45.39 41.22 42.57 47.41 C 37.71 58.07 34.21 59.32 32.52 51.00 C 31.62 46.61 29.38 43.00 27.56 43.00 C 26.79 43.00 24.74 44.80 23.00 47.00 C 21.26 49.20 19.21 51.00 18.45 51.00 C 14.46 51.00 14.43 34.64 18.40 28.72 C 20.31 25.88 21.39 25.36 27.53 24.35 C 42.96 21.80 89.72 17.06 93.50 17.65 C 103.50 19.23 106.59 23.54 105.65 34.64 C 104.46 48.73 100.10 54.04 96.13 46.25 C 95.07 44.19 93.25 41.63 92.08 40.57 C 90.23 38.90 89.76 38.83 88.60 40.07 C 87.87 40.86 86.76 44.17 86.13 47.43 C 85.51 50.69 84.26 54.49 83.35 55.86 C 81.71 58.37 81.71 58.37 79.89 56.11 C 78.88 54.87 77.32 51.20 76.40 47.95 C 73.19 36.50 70.10 37.31 67.08 50.38 C 65.86 55.64 64.07 60.92 63.10 62.13 C 61.32 64.32 61.32 64.32 59.18 62.18 Z  M 168.78 201.07 C 144.11 200.36 145.50 201.29 145.50 185.38 C 145.50 175.00 145.70 173.69 147.50 172.36 C 150.30 170.30 195.80 170.76 198.35 172.87 C 199.72 174.01 200.00 176.33 200.00 186.55 C 200.00 200.87 199.40 202.11 192.68 201.82 C 190.38 201.71 179.63 201.38 168.78 201.07 Z  M 159.65 86.06 C 157.53 85.63 155.40 84.66 154.93 83.89 C 152.45 79.92 152.56 63.44 155.08 60.40 C 156.15 59.12 159.04 58.92 173.13 59.19 C 193.67 59.57 192.92 59.04 192.97 73.23 C 193.00 82.71 192.93 83.00 190.30 84.73 C 188.14 86.15 185.20 86.53 175.55 86.67 C 168.92 86.77 161.77 86.49 159.65 86.06 Z  M 120.67 70.33 C 119.14 68.81 120.21 61.96 123.45 52.53 C 125.57 46.36 127.17 39.42 127.60 34.50 C 127.98 30.10 128.79 26.17 129.40 25.77 C 130.00 25.36 149.59 25.02 172.91 25.02 C 215.32 25.00 215.32 25.00 219.42 27.40 C 226.24 31.40 228.00 35.79 228.00 48.83 C 228.00 54.91 227.59 60.13 227.09 60.44 C 225.25 61.58 223.42 59.81 220.12 53.73 C 212.99 40.58 208.03 39.25 206.43 50.05 C 204.71 61.57 200.75 61.01 194.96 48.42 C 190.21 38.08 188.82 37.72 182.15 45.08 C 177.54 50.15 177.54 50.15 173.88 45.86 C 169.57 40.80 168.84 41.08 164.03 49.60 C 161.26 54.50 160.75 54.94 158.90 53.95 C 157.77 53.34 155.92 51.28 154.79 49.37 C 151.78 44.27 150.02 45.34 146.49 54.44 C 144.81 58.79 142.94 62.52 142.36 62.71 C 141.77 62.91 139.98 60.58 138.39 57.54 C 136.80 54.49 135.14 52.00 134.71 52.00 C 134.27 52.00 132.58 54.97 130.96 58.60 C 126.28 69.01 123.04 72.71 120.67 70.33 Z "/>
</g>
</svg>