<?xml version="1.0" encoding="UTF-8" standalone="no"?>
<!DOCTYPE svg PUBLIC "-//W3C//DTD SVG 1.1//EN" "http://www.w3.org/Graphics/SVG/1.1/DTD/svg11.dtd" >
<svg xmlns="http://www.w3.org/2000/svg" xmlns:xlink="http://www.w3.org/1999/xlink" version="1.1" viewBox="0 0 256 256">
 <g >
 <path fill="currentColor"
d=" M 82.54 244.28 C 90.29 241.40 91.22 238.97 92.08 219.10 C 93.06 196.79 94.07 193.85 104.00 184.66 C 110.11 179.00 110.11 179.00 102.49 179.00 C 94.09 179.00 91.00 177.92 91.00 175.00 C 91.00 172.26 93.38 171.34 102.50 170.56 C 116.89 169.34 118.65 167.95 121.54 155.50 C 123.75 145.97 123.69 105.24 121.47 100.93 C 120.63 99.32 119.43 98.00 118.80 98.00 C 118.16 98.00 115.25 99.65 112.32 101.67 C 107.54 104.96 106.20 105.38 99.02 105.79 C 92.06 106.20 90.95 106.03 90.36 104.49 C 89.20 101.48 91.30 99.79 99.52 97.10 C 109.95 93.68 110.76 92.31 111.76 76.42 C 112.50 64.54 112.50 64.54 118.15 61.84 C 126.18 57.99 127.00 56.43 127.00 45.06 C 127.00 35.57 127.00 35.57 121.08 30.03 C 117.82 26.99 113.11 21.71 110.62 18.30 C 105.42 11.21 103.36 10.42 92.06 11.23 C 83.19 11.86 79.71 13.99 76.52 20.74 C 75.13 23.67 73.36 26.31 72.58 26.61 C 70.14 27.55 66.94 25.03 65.05 20.68 C 64.06 18.38 62.03 15.38 60.54 14.00 C 58.06 11.70 57.07 11.50 48.49 11.50 C 37.47 11.50 34.85 12.84 31.25 20.27 C 29.30 24.30 28.43 25.06 24.75 25.97 C 14.08 28.59 11.73 31.76 11.18 44.33 C 10.81 52.99 10.94 53.81 13.14 56.29 C 14.47 57.80 18.34 59.95 22.00 61.23 C 28.50 63.51 28.50 63.51 29.00 75.00 C 29.43 84.79 29.85 87.06 31.84 90.26 C 34.56 94.65 35.73 95.36 44.54 98.09 C 51.78 100.32 53.19 102.02 50.37 105.15 C 47.41 108.44 37.92 107.17 29.00 102.29 C 23.61 99.34 21.82 98.78 20.89 99.71 C 18.33 102.27 16.94 143.96 19.08 153.91 C 20.37 159.95 23.45 164.78 27.50 167.12 C 29.15 168.08 34.73 169.45 39.90 170.18 C 51.28 171.78 53.32 173.54 48.56 177.68 C 45.82 180.06 45.08 180.20 37.56 179.81 C 31.59 179.49 27.98 178.68 23.63 176.69 C 15.84 173.12 12.29 173.14 10.88 176.75 C 9.23 180.98 10.33 192.84 12.81 197.50 C 16.48 204.43 18.86 205.45 32.24 205.83 C 43.45 206.15 44.08 206.28 45.99 208.72 C 47.74 210.94 48.00 212.77 48.00 222.73 C 48.00 238.06 50.02 242.37 58.68 245.62 C 63.58 247.45 75.85 246.76 82.54 244.28 Z  M 221.69 238.04 C 234.35 236.59 241.58 231.77 243.96 223.22 C 245.46 217.79 245.23 204.13 243.53 198.40 C 241.73 192.36 236.73 187.21 231.37 185.90 C 226.69 184.75 138.98 185.71 124.71 187.06 C 119.33 187.57 113.64 188.65 112.07 189.47 C 107.21 191.97 104.55 198.94 104.16 210.18 C 103.57 226.92 107.48 234.83 117.70 237.58 C 123.54 239.15 208.77 239.53 221.69 238.04 Z  M 226.06 172.47 C 229.84 170.52 234.57 164.81 236.12 160.34 C 237.16 157.32 237.45 143.92 237.47 97.50 C 237.50 43.65 237.34 38.00 235.72 32.73 C 233.21 24.62 229.91 21.37 222.23 19.45 C 216.91 18.11 210.06 17.93 177.23 18.27 C 149.30 18.55 137.30 19.03 134.20 19.97 C 129.90 21.27 129.90 21.27 131.94 23.43 C 133.05 24.62 134.91 28.27 136.07 31.55 C 137.76 36.37 138.08 39.13 137.72 46.05 C 137.14 57.27 134.91 62.22 127.65 68.42 C 122.15 73.12 122.00 73.38 122.00 78.37 C 122.00 82.58 122.70 84.64 125.89 89.82 C 131.99 99.73 132.21 101.36 131.80 132.59 C 131.44 160.50 131.44 160.50 128.72 166.37 C 127.22 169.61 126.00 172.63 126.00 173.09 C 126.00 174.41 143.32 174.76 184.96 174.28 C 214.84 173.94 224.00 173.53 226.06 172.47 Z  M 50.45 139.55 C 48.58 137.67 48.00 136.04 48.00 132.59 C 48.00 124.64 51.38 120.53 55.92 122.96 C 59.64 124.95 61.26 135.75 58.44 139.78 C 56.41 142.68 53.50 142.60 50.45 139.55 Z  M 82.20 139.80 C 81.52 139.12 81.00 135.87 81.00 132.32 C 81.00 126.75 81.28 125.86 83.47 124.43 C 85.32 123.22 86.64 123.04 88.72 123.74 C 91.31 124.60 91.52 125.08 91.80 130.81 C 92.17 138.61 90.97 141.00 86.66 141.00 C 84.87 141.00 82.86 140.46 82.20 139.80 Z  M 69.00 71.19 C 65.30 70.63 64.00 69.14 64.00 65.45 C 64.00 60.81 66.21 59.00 71.87 59.00 C 77.41 59.00 79.00 60.24 79.00 64.55 C 79.00 69.33 74.87 72.07 69.00 71.19 Z  M 85.48 65.75 C 85.22 65.06 83.89 61.16 82.51 57.07 C 78.10 44.01 75.69 42.22 71.82 49.10 C 69.92 52.48 65.74 56.00 63.61 56.00 C 63.34 56.00 61.04 54.20 58.50 52.00 C 51.38 45.83 48.71 46.69 44.54 56.49 C 40.79 65.31 39.20 64.94 36.24 54.52 C 34.99 50.15 33.55 46.15 33.03 45.63 C 31.61 44.21 29.23 46.64 28.45 50.32 C 26.93 57.43 22.86 58.12 19.97 51.75 C 15.65 42.23 18.72 34.69 28.00 32.00 C 33.60 30.38 33.66 30.32 39.52 20.78 C 42.18 16.45 46.64 15.33 53.97 17.15 C 59.68 18.56 59.63 18.51 63.70 27.45 C 65.71 31.87 69.19 33.45 74.76 32.48 C 77.54 31.99 78.47 31.02 81.04 25.92 C 84.96 18.16 88.68 15.69 95.36 16.41 C 101.15 17.03 102.29 17.88 106.76 24.85 C 109.47 29.08 111.28 30.67 115.46 32.52 C 118.36 33.81 121.02 35.60 121.37 36.51 C 123.31 41.59 120.88 56.00 118.07 56.00 C 117.50 56.00 116.02 53.89 114.77 51.30 C 112.45 46.50 110.31 44.78 109.61 47.17 C 109.40 47.90 108.71 50.42 108.07 52.76 C 107.10 56.35 106.64 56.87 105.21 56.08 C 104.27 55.56 102.60 53.76 101.50 52.07 C 98.38 47.28 96.32 48.06 94.42 54.75 C 91.94 63.45 90.04 67.00 87.85 67.00 C 86.80 67.00 85.73 66.44 85.48 65.75 Z  M 159.62 130.60 C 154.57 128.71 153.67 127.70 153.67 123.99 C 153.67 118.24 155.47 117.54 171.28 117.16 C 188.64 116.75 199.51 117.65 201.52 119.66 C 203.66 121.80 203.39 127.34 201.03 129.47 C 199.34 131.00 196.57 131.31 181.28 131.65 C 167.40 131.97 162.65 131.74 159.62 130.60 Z  M 161.86 73.13 C 155.84 72.22 153.67 70.44 154.51 67.07 C 155.99 61.14 156.52 61.00 177.93 61.00 C 194.07 61.00 197.95 61.28 199.78 62.56 C 202.73 64.63 202.59 68.10 199.42 71.08 C 196.94 73.40 196.24 73.51 181.67 73.67 C 173.33 73.76 164.41 73.52 161.86 73.13 Z  M 138.77 69.22 C 138.51 68.23 139.64 64.07 141.28 59.97 C 145.12 50.36 145.81 42.20 143.55 32.92 C 142.60 29.03 142.13 25.54 142.50 25.17 C 143.75 23.92 219.02 23.69 223.14 24.92 C 233.13 27.92 236.66 45.23 228.64 51.89 C 227.38 52.93 226.59 52.26 223.62 47.62 C 221.68 44.59 218.89 41.32 217.42 40.35 C 214.82 38.66 214.69 38.67 213.00 40.75 C 212.04 41.94 210.76 46.24 210.15 50.32 C 208.82 59.32 207.51 63.00 205.65 63.00 C 203.67 63.00 202.41 61.23 198.06 52.33 C 194.20 44.43 188.95 38.00 186.35 38.00 C 185.58 38.00 182.60 40.51 179.74 43.59 C 171.61 52.32 169.85 52.64 166.16 46.07 C 163.74 41.77 161.93 40.97 157.37 42.17 C 153.75 43.12 151.47 47.57 147.93 60.59 C 146.74 64.94 145.32 69.06 144.77 69.75 C 143.24 71.63 139.31 71.28 138.77 69.22 Z "/>
</g>
</svg>