<?xml version="1.0" encoding="UTF-8" standalone="no"?>
<!DOCTYPE svg PUBLIC "-//W3C//DTD SVG 1.1//EN" "http://www.w3.org/Graphics/SVG/1.1/DTD/svg11.dtd" >
<svg xmlns="http://www.w3.org/2000/svg" xmlns:xlink="http://www.w3.org/1999/xlink" version="1.1" viewBox="0 0 256 256">
 <g >
 <path fill="currentColor"
d=" M 211.98 242.52 C 214.56 240.04 214.56 240.04 200.03 224.88 C 185.06 209.25 159.00 185.15 159.00 186.92 C 159.00 187.47 157.99 188.87 156.75 190.03 C 154.67 191.97 154.63 192.20 156.24 193.11 C 159.25 194.80 179.33 211.59 183.35 215.78 C 187.19 219.78 187.19 219.78 181.35 220.41 C 165.26 222.13 124.13 225.16 105.50 225.99 C 93.95 226.50 80.57 227.43 75.76 228.04 C 70.95 228.65 66.32 229.00 65.47 228.82 C 64.42 228.60 69.51 221.58 81.72 206.45 C 91.50 194.32 103.55 179.37 108.50 173.24 C 117.50 162.08 117.50 162.08 175.25 162.04 C 233.00 162.00 233.00 162.00 233.00 159.25 C 233.00 156.50 233.00 156.50 128.00 156.50 C 23.00 156.50 23.00 156.50 23.00 159.25 C 23.00 162.00 23.00 162.00 65.50 162.00 C 92.75 162.00 108.00 162.35 108.00 162.99 C 108.00 164.83 78.26 203.55 70.54 211.76 C 66.13 216.45 59.67 221.96 55.41 224.65 C 49.15 228.62 48.08 229.69 48.62 231.43 C 50.41 237.17 51.04 238.12 52.75 237.62 C 58.86 235.84 103.06 231.52 156.96 227.43 C 192.42 224.74 192.42 224.74 196.69 229.62 C 199.03 232.30 202.65 236.85 204.73 239.73 C 206.80 242.60 208.70 244.97 208.95 244.98 C 209.19 244.99 210.55 243.88 211.98 242.52 Z  M 189.00 113.25 C 189.00 110.50 189.00 110.50 130.00 110.77 C 71.00 111.03 71.00 111.03 71.00 113.52 C 71.00 116.00 71.00 116.00 130.00 116.00 C 189.00 116.00 189.00 116.00 189.00 113.25 Z  M 35.15 94.50 C 34.80 77.00 34.80 77.00 128.95 77.00 C 223.09 77.00 223.09 77.00 222.79 94.50 C 222.50 112.00 222.50 112.00 225.50 112.00 C 228.50 112.00 228.50 112.00 228.50 91.50 C 228.50 71.00 228.50 71.00 178.71 71.00 C 128.91 71.00 128.91 71.00 129.21 41.75 C 129.37 25.66 129.89 11.71 130.36 10.75 C 131.10 9.24 130.69 9.00 127.36 9.00 C 123.50 9.00 123.50 9.00 123.50 39.75 C 123.50 70.50 123.50 70.50 75.77 70.76 C 28.04 71.02 28.04 71.02 28.77 75.76 C 29.69 81.76 29.68 104.44 28.75 108.75 C 28.06 111.96 28.10 112.00 31.77 112.00 C 35.50 112.00 35.50 112.00 35.15 94.50 Z  M 93.85 55.43 C 94.50 54.01 94.77 52.44 94.46 51.93 C 93.27 50.01 74.09 36.99 64.63 31.68 C 54.76 26.14 54.76 26.14 52.25 29.11 C 50.88 30.75 49.92 32.24 50.13 32.43 C 50.33 32.62 54.57 34.80 59.55 37.29 C 69.32 42.18 85.34 52.50 88.41 55.90 C 90.93 58.68 92.43 58.55 93.85 55.43 Z  M 179.38 46.11 C 193.61 32.14 199.97 26.59 204.33 24.32 C 207.50 22.67 207.50 22.67 204.00 21.24 C 202.07 20.46 199.77 19.16 198.87 18.36 C 197.41 17.06 196.97 17.37 194.64 21.35 C 193.21 23.79 185.25 32.31 176.95 40.29 C 161.89 54.76 161.86 54.79 164.15 56.39 C 165.41 57.28 166.63 58.00 166.85 58.00 C 167.07 58.00 172.71 52.65 179.38 46.11 Z "/>
</g>
</svg>