<?xml version="1.0" encoding="UTF-8" standalone="no"?>
<!DOCTYPE svg PUBLIC "-//W3C//DTD SVG 1.1//EN" "http://www.w3.org/Graphics/SVG/1.1/DTD/svg11.dtd" >
<svg xmlns="http://www.w3.org/2000/svg" xmlns:xlink="http://www.w3.org/1999/xlink" version="1.1" viewBox="0 0 256 256">
 <g >
 <path fill="currentColor"
d=" M 107.26 238.54 C 123.84 237.44 127.56 235.11 129.04 224.87 C 129.55 221.37 129.97 200.39 129.98 178.26 C 130.00 138.02 130.00 138.02 137.75 134.13 C 150.20 127.87 167.40 120.29 170.89 119.52 C 173.90 118.86 174.07 118.60 173.44 115.66 C 172.57 111.57 172.58 111.58 169.84 113.35 C 167.52 114.84 136.62 129.43 132.26 131.09 C 130.00 131.95 130.00 131.95 130.00 103.48 C 130.00 75.00 130.00 75.00 156.00 75.00 C 182.00 75.00 182.00 75.00 182.00 72.19 C 182.00 69.39 182.00 69.39 155.95 69.82 C 129.90 70.26 129.90 70.26 130.21 44.88 C 130.38 30.92 130.90 18.71 131.36 17.75 C 132.10 16.24 131.69 16.00 128.35 16.00 C 124.49 16.00 124.49 16.00 124.49 42.75 C 124.50 69.50 124.50 69.50 99.25 69.38 C 74.00 69.26 74.00 69.26 74.00 72.13 C 74.00 75.00 74.00 75.00 99.50 75.00 C 125.00 75.00 125.00 75.00 125.00 104.46 C 125.00 133.92 125.00 133.92 120.40 136.61 C 113.41 140.71 80.00 154.95 75.75 155.64 C 73.69 155.98 72.00 156.61 72.00 157.05 C 72.00 158.28 75.44 164.02 76.00 163.71 C 82.68 160.04 120.30 141.96 122.32 141.45 C 125.14 140.75 125.14 140.75 124.79 183.62 C 124.60 207.21 124.06 227.30 123.60 228.29 C 121.90 231.90 117.24 233.20 105.60 233.32 C 99.49 233.39 92.86 233.10 90.87 232.69 C 87.24 231.95 87.23 231.96 87.51 235.23 C 87.66 237.03 87.83 238.83 87.89 239.23 C 87.95 239.64 90.59 239.76 93.75 239.51 C 96.91 239.26 102.99 238.82 107.26 238.54 Z "/>
</g>
</svg>