<?xml version="1.0" encoding="UTF-8" standalone="no"?>
<!DOCTYPE svg PUBLIC "-//W3C//DTD SVG 1.1//EN" "http://www.w3.org/Graphics/SVG/1.1/DTD/svg11.dtd" >
<svg xmlns="http://www.w3.org/2000/svg" xmlns:xlink="http://www.w3.org/1999/xlink" version="1.1" viewBox="0 0 256 256">
 <g >
 <path fill="currentColor"
d=" M 111.78 225.75 C 112.05 210.00 112.05 210.00 131.53 210.00 C 150.33 210.00 151.00 209.93 151.00 208.00 C 151.00 206.07 150.33 206.00 131.50 206.00 C 112.00 206.00 112.00 206.00 112.00 195.87 C 112.00 185.74 112.00 185.74 125.75 186.36 C 133.31 186.70 141.07 187.25 143.00 187.57 C 146.50 188.16 146.50 188.16 146.63 173.17 C 146.77 158.18 146.77 158.18 129.38 158.74 C 112.00 159.30 112.00 159.30 112.00 151.01 C 112.00 142.71 112.00 142.71 124.55 143.25 C 137.10 143.79 137.10 143.79 136.80 133.17 C 136.50 122.54 136.50 122.54 140.50 122.80 C 142.70 122.94 146.19 123.31 148.25 123.61 C 151.75 124.14 152.00 124.01 152.00 121.62 C 152.00 119.06 152.00 119.06 143.85 119.69 C 135.71 120.32 135.71 120.32 136.41 114.09 C 137.12 107.86 137.12 107.86 134.31 108.18 C 131.63 108.48 131.49 108.78 131.20 114.25 C 130.90 120.00 130.90 120.00 109.06 120.00 C 84.76 120.00 84.85 120.03 87.04 113.37 C 88.31 109.54 87.70 108.00 84.94 108.00 C 83.24 108.00 83.00 108.73 83.00 114.00 C 83.00 120.00 83.00 120.00 79.25 119.94 C 77.19 119.91 73.36 119.53 70.75 119.10 C 66.00 118.32 66.00 118.32 66.00 121.23 C 66.00 124.14 66.00 124.14 71.75 123.52 C 83.82 122.20 82.54 121.03 82.23 133.12 C 81.97 143.73 81.97 143.73 94.23 143.62 C 106.50 143.50 106.50 143.50 106.79 151.33 C 107.09 159.16 107.09 159.16 88.54 158.83 C 70.00 158.50 70.00 158.50 70.75 163.50 C 71.70 169.86 71.64 176.06 70.56 182.91 C 69.70 188.30 69.70 188.31 72.10 187.55 C 73.42 187.14 81.81 186.56 90.75 186.28 C 107.00 185.77 107.00 185.77 107.00 195.88 C 107.00 206.00 107.00 206.00 82.50 206.00 C 58.67 206.00 58.00 206.05 58.00 208.00 C 58.00 209.95 58.67 210.00 82.63 210.00 C 107.26 210.00 107.26 210.00 106.53 226.08 C 105.80 242.15 105.80 242.15 108.65 241.83 C 111.50 241.50 111.50 241.50 111.78 225.75 Z  M 209.56 238.52 C 219.02 236.71 221.62 235.11 222.95 230.25 C 223.58 227.95 224.08 205.38 224.24 172.00 C 224.50 117.50 224.50 117.50 198.00 117.73 C 177.07 117.91 171.59 118.22 171.92 119.23 C 172.14 119.93 172.53 131.44 172.78 144.81 C 173.25 170.02 172.18 186.52 169.37 197.50 C 167.24 205.85 161.34 218.02 154.78 227.62 C 149.23 235.74 149.23 235.74 152.47 236.73 C 155.66 237.71 155.76 237.63 159.77 231.61 C 166.99 220.77 172.68 207.20 175.05 195.18 C 176.26 189.00 176.26 189.00 197.63 189.00 C 219.00 189.00 219.00 189.00 219.00 207.37 C 219.00 224.25 218.84 225.94 216.99 228.29 C 214.55 231.39 205.95 234.44 201.92 233.63 C 199.70 233.19 199.00 233.42 199.00 234.59 C 199.00 236.14 200.75 240.00 201.45 240.00 C 201.65 240.00 205.30 239.33 209.56 238.52 Z  M 33.48 214.46 C 36.96 199.88 47.26 165.90 52.95 150.28 C 55.78 142.50 55.78 142.50 52.83 139.81 C 51.03 138.17 49.75 137.59 49.53 138.31 C 49.34 138.97 48.44 142.65 47.53 146.50 C 44.13 160.89 30.51 202.80 24.78 216.50 C 21.86 223.50 21.86 223.50 25.59 226.75 C 27.65 228.54 29.46 229.87 29.62 229.71 C 29.78 229.55 31.52 222.69 33.48 214.46 Z  M 28.93 92.63 C 11.79 81.22 10.90 80.76 9.51 82.58 C 8.72 83.64 8.06 84.95 8.05 85.50 C 8.04 86.05 15.79 91.79 25.27 98.25 C 42.50 110.01 42.50 110.01 44.70 107.30 C 46.90 104.59 46.90 104.59 28.93 92.63 Z  M 153.00 75.00 C 153.00 51.00 153.00 51.00 188.00 51.00 C 223.00 51.00 223.00 51.00 223.00 69.50 C 223.00 88.00 223.00 88.00 226.00 88.00 C 229.00 88.00 229.00 88.00 229.01 68.75 C 229.02 58.16 229.27 48.60 229.57 47.50 C 230.10 45.53 229.62 45.50 191.80 45.50 C 153.50 45.50 153.50 45.50 153.21 36.25 C 152.92 27.00 152.92 27.00 181.72 27.00 C 197.56 27.00 211.97 27.42 213.76 27.93 C 216.93 28.84 217.00 28.79 217.00 25.68 C 217.00 22.50 217.00 22.50 149.50 22.50 C 82.00 22.50 82.00 22.50 82.00 25.00 C 82.00 27.50 82.00 27.50 114.50 27.15 C 147.00 26.80 147.00 26.80 147.00 36.52 C 147.00 46.24 147.00 46.24 111.50 45.84 C 76.00 45.44 76.00 45.44 76.00 67.22 C 76.00 89.00 76.00 89.00 79.00 89.00 C 82.00 89.00 82.00 89.00 82.00 70.00 C 82.00 51.00 82.00 51.00 114.50 51.00 C 147.00 51.00 147.00 51.00 147.00 75.00 C 147.00 99.00 147.00 99.00 150.00 99.00 C 153.00 99.00 153.00 99.00 153.00 75.00 Z  M 130.00 94.00 C 130.00 92.09 129.33 92.00 115.00 92.00 C 100.67 92.00 100.00 92.09 100.00 94.00 C 100.00 95.91 100.67 96.00 115.00 96.00 C 129.33 96.00 130.00 95.91 130.00 94.00 Z  M 206.00 93.08 C 206.00 90.50 206.00 90.50 189.75 90.69 C 173.50 90.88 173.50 90.88 173.20 93.25 C 172.90 95.61 172.90 95.61 189.45 95.64 C 206.00 95.67 206.00 95.67 206.00 93.08 Z  M 131.00 73.25 C 131.00 71.01 130.91 71.00 115.50 71.00 C 100.09 71.00 100.00 71.01 100.00 73.25 C 100.00 75.49 100.10 75.50 115.50 75.50 C 130.91 75.50 131.00 75.49 131.00 73.25 Z  M 205.00 73.00 C 205.00 71.08 204.33 71.00 189.00 71.00 C 176.33 71.00 173.00 71.28 173.00 72.33 C 173.00 73.07 173.30 73.97 173.67 74.33 C 174.03 74.70 181.23 75.00 189.67 75.00 C 204.33 75.00 205.00 74.91 205.00 73.00 Z  M 62.98 42.85 C 63.01 42.02 52.61 33.12 48.00 30.02 C 46.08 28.73 41.30 25.06 37.38 21.88 C 30.27 16.08 30.27 16.08 28.10 18.40 C 25.92 20.71 25.92 20.71 34.21 26.77 C 38.77 30.11 46.32 36.26 50.98 40.44 C 59.47 48.03 59.47 48.03 61.21 45.77 C 62.17 44.52 62.97 43.21 62.98 42.85 Z  M 76.00 172.97 C 76.00 161.95 76.00 161.95 91.25 162.22 C 106.50 162.50 106.50 162.50 106.78 173.25 C 107.07 184.00 107.07 184.00 91.53 184.00 C 76.00 184.00 76.00 184.00 76.00 172.97 Z  M 112.00 173.00 C 112.00 162.00 112.00 162.00 126.50 162.00 C 141.00 162.00 141.00 162.00 141.00 173.00 C 141.00 184.00 141.00 184.00 126.50 184.00 C 112.00 184.00 112.00 184.00 112.00 173.00 Z  M 87.00 131.00 C 87.00 122.00 87.00 122.00 109.00 122.00 C 131.00 122.00 131.00 122.00 131.00 131.00 C 131.00 140.00 131.00 140.00 109.00 140.00 C 87.00 140.00 87.00 140.00 87.00 131.00 Z  M 177.00 170.00 C 177.00 154.00 177.00 154.00 198.00 154.00 C 219.00 154.00 219.00 154.00 219.00 170.00 C 219.00 186.00 219.00 186.00 198.00 186.00 C 177.00 186.00 177.00 186.00 177.00 170.00 Z  M 177.22 136.25 C 177.50 122.50 177.50 122.50 198.25 122.23 C 219.00 121.96 219.00 121.96 219.00 135.98 C 219.00 150.00 219.00 150.00 197.97 150.00 C 176.94 150.00 176.94 150.00 177.22 136.25 Z "/>
</g>
</svg>