<?xml version="1.0" encoding="UTF-8" standalone="no"?>
<!DOCTYPE svg PUBLIC "-//W3C//DTD SVG 1.1//EN" "http://www.w3.org/Graphics/SVG/1.1/DTD/svg11.dtd" >
<svg xmlns="http://www.w3.org/2000/svg" xmlns:xlink="http://www.w3.org/1999/xlink" version="1.1" viewBox="0 0 256 256">
 <g >
 <path fill="currentColor"
d=" M 68.84 235.54 C 68.37 232.54 68.10 202.61 68.24 169.04 C 68.50 108.00 68.50 108.00 73.50 111.55 C 78.58 115.16 87.93 125.15 95.33 134.87 C 99.13 139.86 99.48 140.09 100.36 138.12 C 100.88 136.95 101.69 136.00 102.15 136.00 C 104.98 136.00 101.07 131.27 85.50 115.84 C 68.01 98.50 68.01 98.50 68.00 90.25 C 68.00 82.00 68.00 82.00 89.07 82.00 C 110.13 82.00 110.13 82.00 109.82 79.34 C 109.50 76.68 109.50 76.68 88.75 76.91 C 68.00 77.13 68.00 77.13 68.00 50.07 C 68.00 35.18 68.19 23.00 68.41 23.00 C 68.64 23.00 72.35 22.31 76.66 21.47 C 80.97 20.63 89.79 19.66 96.25 19.32 C 102.71 18.97 108.00 18.37 108.00 17.97 C 108.00 17.27 105.04 9.77 104.55 9.24 C 104.42 9.09 102.55 9.71 100.40 10.61 C 92.26 14.02 60.20 18.24 32.36 19.57 C 18.21 20.25 18.21 20.25 20.16 23.54 C 22.10 26.84 22.10 26.84 29.80 26.36 C 40.40 25.71 56.93 24.08 60.25 23.36 C 63.00 22.77 63.00 22.77 63.00 49.88 C 63.00 77.00 63.00 77.00 40.50 77.00 C 18.00 77.00 18.00 77.00 18.00 79.50 C 18.00 82.00 18.00 82.00 39.50 82.00 C 51.33 82.00 61.00 82.36 61.00 82.81 C 61.00 84.51 54.72 100.81 51.48 107.50 C 40.80 129.59 27.34 150.80 17.61 160.85 C 10.50 168.20 10.50 168.20 13.91 171.06 C 15.79 172.63 17.70 173.69 18.15 173.41 C 19.63 172.49 31.67 154.72 39.08 142.51 C 43.07 135.94 50.08 123.35 54.67 114.53 C 63.01 98.50 63.01 98.50 62.75 169.75 C 62.50 241.00 62.50 241.00 66.10 241.00 C 69.70 241.00 69.70 241.00 68.84 235.54 Z  M 123.78 226.75 C 124.06 214.00 124.06 214.00 177.68 214.00 C 231.31 214.00 231.31 214.00 230.65 227.00 C 229.99 240.00 229.99 240.00 233.25 240.00 C 236.50 240.00 236.50 240.00 236.50 185.75 C 236.50 131.50 236.50 131.50 177.25 131.50 C 118.00 131.50 118.00 131.50 118.00 185.82 C 118.00 240.13 118.00 240.13 120.75 239.82 C 123.50 239.50 123.50 239.50 123.78 226.75 Z  M 224.20 91.00 C 223.27 84.99 223.30 33.79 224.24 27.68 C 224.98 22.86 224.98 22.86 219.24 23.68 C 212.27 24.68 139.32 24.78 133.00 23.80 C 128.50 23.11 128.50 23.11 128.50 59.30 C 128.50 95.50 128.50 95.50 176.70 95.50 C 224.89 95.50 224.89 95.50 224.20 91.00 Z  M 124.00 173.00 C 124.00 137.00 124.00 137.00 177.50 137.00 C 231.00 137.00 231.00 137.00 231.00 173.00 C 231.00 209.00 231.00 209.00 177.50 209.00 C 124.00 209.00 124.00 209.00 124.00 173.00 Z  M 134.00 59.50 C 134.00 29.00 134.00 29.00 175.50 29.00 C 217.00 29.00 217.00 29.00 217.00 59.50 C 217.00 90.00 217.00 90.00 175.50 90.00 C 134.00 90.00 134.00 90.00 134.00 59.50 Z "/>
</g>
</svg>