<?xml version="1.0" encoding="UTF-8" standalone="no"?>
<!DOCTYPE svg PUBLIC "-//W3C//DTD SVG 1.1//EN" "http://www.w3.org/Graphics/SVG/1.1/DTD/svg11.dtd" >
<svg xmlns="http://www.w3.org/2000/svg" xmlns:xlink="http://www.w3.org/1999/xlink" version="1.1" viewBox="0 0 256 256">
 <g >
 <path fill="currentColor"
d=" M 135.15 229.50 C 134.78 215.00 134.78 215.00 170.89 215.00 C 207.00 215.00 207.00 215.00 207.00 229.50 C 207.00 244.00 207.00 244.00 210.00 244.00 C 213.00 244.00 213.00 244.00 213.00 159.00 C 213.00 74.00 213.00 74.00 228.00 74.00 C 243.00 74.00 243.00 74.00 243.00 71.53 C 243.00 69.05 243.00 69.05 228.25 68.78 C 213.50 68.50 213.50 68.50 213.50 44.00 C 213.50 30.52 213.84 17.59 214.26 15.25 C 215.02 11.00 215.02 11.00 211.01 11.00 C 207.00 11.00 207.00 11.00 207.00 40.01 C 207.00 69.03 207.00 69.03 171.25 68.76 C 135.50 68.50 135.50 68.50 135.50 46.00 C 135.50 33.62 135.82 21.14 136.20 18.25 C 136.91 13.00 136.91 13.00 133.20 13.00 C 129.50 13.00 129.50 13.00 129.82 41.00 C 130.14 69.00 130.14 69.00 117.07 69.00 C 104.00 69.00 104.00 69.00 104.00 71.50 C 104.00 74.00 104.00 74.00 117.03 74.00 C 130.06 74.00 130.06 74.00 130.00 158.25 C 129.96 204.59 129.95 242.84 129.97 243.25 C 129.99 243.66 131.24 244.00 132.76 244.00 C 135.53 244.00 135.53 244.00 135.15 229.50 Z  M 41.00 202.53 C 51.82 199.79 71.10 195.20 95.53 189.54 C 97.16 189.16 97.98 190.00 99.71 193.79 C 100.89 196.38 102.37 200.19 103.00 202.25 C 103.64 204.31 104.32 206.00 104.53 206.00 C 104.88 206.00 110.10 203.84 110.81 203.40 C 110.98 203.30 107.34 195.63 102.73 186.36 C 98.12 177.09 93.33 166.95 92.09 163.83 C 89.87 158.24 89.79 158.18 86.92 159.18 C 85.31 159.74 84.00 160.51 84.00 160.89 C 84.00 161.28 86.48 166.07 89.50 171.55 C 92.53 177.02 95.00 182.00 95.00 182.60 C 95.00 183.94 84.09 187.24 70.64 189.99 C 65.22 191.09 60.60 192.00 60.39 192.00 C 60.18 192.00 60.00 179.79 60.00 164.87 C 60.00 137.75 60.00 137.75 74.25 138.32 C 82.09 138.63 89.62 139.17 91.00 139.51 C 93.50 140.13 93.50 140.13 93.50 98.49 C 93.50 56.84 93.50 56.84 90.00 57.43 C 88.08 57.75 80.54 58.29 73.25 58.64 C 60.00 59.26 60.00 59.26 60.02 38.88 C 60.04 27.67 60.44 16.81 60.92 14.75 C 61.79 11.00 61.79 11.00 57.91 11.00 C 54.04 11.00 54.04 11.00 53.77 34.75 C 53.50 58.50 53.50 58.50 42.00 58.46 C 35.67 58.43 27.69 58.03 24.25 57.56 C 18.00 56.72 18.00 56.72 18.75 61.61 C 19.74 68.08 19.72 130.28 18.72 135.86 C 17.94 140.23 17.94 140.23 21.72 139.62 C 23.80 139.29 31.91 138.72 39.75 138.37 C 54.00 137.72 54.00 137.72 54.00 165.79 C 54.00 193.86 54.00 193.86 48.56 195.44 C 40.29 197.84 24.52 200.94 16.94 201.64 C 10.17 202.27 10.17 202.27 11.28 204.89 C 13.41 209.90 13.62 209.97 20.80 207.89 C 24.49 206.82 33.58 204.41 41.00 202.53 Z  M 135.24 174.25 C 135.50 138.50 135.50 138.50 171.25 138.24 C 207.00 137.97 207.00 137.97 207.00 173.99 C 207.00 210.00 207.00 210.00 170.99 210.00 C 134.97 210.00 134.97 210.00 135.24 174.25 Z  M 135.00 103.50 C 135.00 74.00 135.00 74.00 171.00 74.00 C 207.00 74.00 207.00 74.00 207.00 103.50 C 207.00 133.00 207.00 133.00 171.00 133.00 C 135.00 133.00 135.00 133.00 135.00 103.50 Z  M 25.00 98.50 C 25.00 63.00 25.00 63.00 39.50 63.00 C 54.00 63.00 54.00 63.00 54.00 98.50 C 54.00 134.00 54.00 134.00 39.50 134.00 C 25.00 134.00 25.00 134.00 25.00 98.50 Z  M 60.00 98.50 C 60.00 63.00 60.00 63.00 74.00 63.00 C 88.00 63.00 88.00 63.00 88.00 98.50 C 88.00 134.00 88.00 134.00 74.00 134.00 C 60.00 134.00 60.00 134.00 60.00 98.50 Z "/>
</g>
</svg>