<?xml version="1.0" encoding="UTF-8" standalone="no"?>
<!DOCTYPE svg PUBLIC "-//W3C//DTD SVG 1.1//EN" "http://www.w3.org/Graphics/SVG/1.1/DTD/svg11.dtd" >
<svg xmlns="http://www.w3.org/2000/svg" xmlns:xlink="http://www.w3.org/1999/xlink" version="1.1" viewBox="0 0 256 256">
 <g >
 <path fill="currentColor"
d=" M 31.23 136.50 C 30.96 27.00 30.96 27.00 54.98 27.00 C 68.19 27.00 79.00 27.21 79.00 27.47 C 79.00 29.73 61.33 80.48 58.18 87.27 C 54.11 96.05 54.11 96.05 60.80 104.40 C 74.64 121.65 80.92 136.07 81.74 152.50 C 82.79 173.64 75.99 182.16 58.06 182.16 C 50.39 182.16 50.00 182.27 50.00 184.39 C 50.00 185.61 50.60 187.43 51.32 188.43 C 52.54 190.10 53.24 190.14 60.07 189.01 C 68.75 187.58 75.95 184.75 78.89 181.62 C 85.31 174.79 87.96 152.70 84.06 138.46 C 81.01 127.31 74.32 113.91 67.13 104.50 C 63.76 100.10 61.01 96.19 61.00 95.80 C 60.99 94.02 82.20 33.49 84.28 29.35 C 85.07 27.78 86.02 25.26 86.38 23.75 C 87.04 21.00 87.04 21.00 55.47 21.00 C 23.91 21.00 23.91 21.00 24.70 24.75 C 25.69 29.37 25.77 233.46 24.80 240.75 C 24.09 246.00 24.09 246.00 27.80 246.00 C 31.50 246.00 31.50 246.00 31.23 136.50 Z  M 124.00 217.50 C 124.00 192.00 124.00 192.00 170.50 192.00 C 217.00 192.00 217.00 192.00 217.00 208.85 C 217.00 226.73 216.18 231.29 212.64 233.20 C 211.47 233.84 205.70 234.56 199.83 234.80 C 189.15 235.25 189.15 235.25 190.80 238.88 C 191.70 240.87 192.46 242.58 192.47 242.67 C 192.49 242.76 197.12 242.01 202.76 241.00 C 215.08 238.78 219.53 236.39 221.00 231.18 C 221.64 228.90 222.12 207.48 222.27 175.00 C 222.50 122.50 222.50 122.50 170.25 122.50 C 118.00 122.50 118.00 122.50 118.00 182.75 C 118.00 243.00 118.00 243.00 121.00 243.00 C 124.00 243.00 124.00 243.00 124.00 217.50 Z  M 241.00 99.25 C 241.00 96.50 241.00 96.50 208.00 96.79 C 175.00 97.08 175.00 97.08 175.00 82.04 C 175.00 67.00 175.00 67.00 194.50 67.00 C 214.00 67.00 214.00 67.00 214.00 63.91 C 214.00 60.81 214.00 60.81 208.75 61.66 C 201.82 62.77 153.23 62.74 145.25 61.62 C 139.00 60.74 139.00 60.74 139.00 63.87 C 139.00 67.00 139.00 67.00 154.00 67.00 C 169.00 67.00 169.00 67.00 169.00 82.03 C 169.00 97.06 169.00 97.06 139.50 96.78 C 110.00 96.50 110.00 96.50 110.00 99.25 C 110.00 102.00 110.00 102.00 175.50 102.00 C 241.00 102.00 241.00 102.00 241.00 99.25 Z  M 108.99 79.38 C 127.46 65.15 128.26 64.38 138.65 50.86 C 149.32 36.96 149.32 36.96 191.16 37.23 C 233.00 37.50 233.00 37.50 233.00 34.13 C 233.00 31.08 232.79 30.84 230.75 31.54 C 227.94 32.52 154.00 33.40 154.00 32.46 C 154.00 32.09 156.86 27.64 160.36 22.59 C 166.73 13.40 166.73 13.40 163.05 11.38 C 159.37 9.37 159.37 9.37 155.43 16.85 C 146.37 34.10 148.04 33.01 130.77 32.96 C 122.37 32.93 113.59 32.54 111.25 32.09 C 107.05 31.28 107.00 31.30 107.00 34.11 C 107.00 36.95 107.00 36.95 125.02 37.23 C 143.04 37.50 143.04 37.50 136.34 46.00 C 122.66 63.35 102.78 80.06 89.35 85.52 C 85.28 87.18 84.03 88.07 85.18 88.51 C 86.08 88.86 87.09 90.24 87.43 91.57 C 87.76 92.91 88.48 94.00 89.03 94.00 C 89.57 94.00 98.55 87.42 108.99 79.38 Z  M 124.00 174.00 C 124.00 160.00 124.00 160.00 170.50 160.00 C 217.00 160.00 217.00 160.00 217.00 174.00 C 217.00 188.00 217.00 188.00 170.50 188.00 C 124.00 188.00 124.00 188.00 124.00 174.00 Z  M 124.00 141.50 C 124.00 128.00 124.00 128.00 170.50 128.00 C 217.00 128.00 217.00 128.00 217.00 141.50 C 217.00 155.00 217.00 155.00 170.50 155.00 C 124.00 155.00 124.00 155.00 124.00 141.50 Z "/>
</g>
</svg>