<?xml version="1.0" encoding="UTF-8" standalone="no"?>
<!DOCTYPE svg PUBLIC "-//W3C//DTD SVG 1.1//EN" "http://www.w3.org/Graphics/SVG/1.1/DTD/svg11.dtd" >
<svg xmlns="http://www.w3.org/2000/svg" xmlns:xlink="http://www.w3.org/1999/xlink" version="1.1" viewBox="0 0 256 256">
 <g >
 <path fill="currentColor"
d=" M 105.00 233.44 C 126.29 219.27 135.14 199.77 138.33 160.00 C 139.50 145.50 139.50 145.50 150.18 145.22 C 160.85 144.93 160.85 144.93 161.18 183.22 C 161.48 219.68 161.60 221.71 163.60 226.00 C 166.05 231.24 168.20 233.28 172.90 234.86 C 177.28 236.33 193.70 236.34 198.10 234.87 C 205.78 232.30 210.55 224.83 213.34 211.00 C 215.48 200.34 216.48 188.00 215.20 188.00 C 214.63 188.00 213.52 187.75 212.73 187.45 C 211.62 187.02 210.90 188.89 209.55 195.66 C 207.22 207.42 204.41 214.58 200.45 218.91 C 197.20 222.45 197.04 222.50 188.13 222.85 C 179.64 223.17 178.96 223.05 176.64 220.73 C 173.20 217.29 172.85 212.77 173.20 176.50 C 173.50 145.50 173.50 145.50 190.75 145.23 C 208.00 144.95 208.00 144.95 208.00 139.48 C 208.00 134.00 208.00 134.00 155.00 134.00 C 102.00 134.00 102.00 134.00 102.00 139.50 C 102.00 145.00 102.00 145.00 114.15 145.00 C 126.30 145.00 126.30 145.00 125.71 160.25 C 125.00 178.91 122.16 191.20 115.41 204.87 C 111.63 212.55 109.23 215.82 102.15 222.97 C 97.39 227.77 91.79 233.05 89.70 234.70 C 86.19 237.48 86.00 237.90 87.09 240.30 C 88.27 242.90 88.27 242.90 93.39 240.33 C 96.20 238.92 101.42 235.82 105.00 233.44 Z  M 87.10 178.20 C 94.58 173.31 94.58 173.31 94.19 169.16 C 93.97 166.87 93.43 165.00 92.99 165.00 C 92.56 165.00 88.33 166.78 83.60 168.95 C 75.00 172.91 75.00 172.91 75.00 132.49 C 75.00 92.08 75.00 92.08 83.25 91.79 C 91.50 91.50 91.50 91.50 91.80 85.75 C 92.10 80.00 92.10 80.00 83.55 80.00 C 75.00 80.00 75.00 80.00 75.00 47.50 C 75.00 15.00 75.00 15.00 69.01 15.00 C 63.03 15.00 63.03 15.00 62.76 47.25 C 62.50 79.50 62.50 79.50 52.25 79.78 C 42.00 80.07 42.00 80.07 42.00 86.03 C 42.00 92.00 42.00 92.00 52.51 92.00 C 63.02 92.00 63.02 92.00 62.76 135.63 C 62.50 179.27 62.50 179.27 51.75 183.47 C 45.83 185.78 40.77 187.90 40.50 188.17 C 40.04 188.62 42.65 198.57 43.66 200.25 C 44.28 201.27 77.86 184.23 87.10 178.20 Z  M 193.00 94.50 C 193.00 89.00 193.00 89.00 154.00 89.00 C 115.00 89.00 115.00 89.00 115.00 94.50 C 115.00 100.00 115.00 100.00 154.00 100.00 C 193.00 100.00 193.00 100.00 193.00 94.50 Z  M 112.78 65.75 C 113.07 55.00 113.07 55.00 154.50 55.00 C 195.93 55.00 195.93 55.00 196.22 65.75 C 196.50 76.50 196.50 76.50 202.25 76.80 C 208.00 77.10 208.00 77.10 208.00 60.55 C 208.00 44.00 208.00 44.00 181.25 43.92 C 154.50 43.84 154.50 43.84 158.50 41.95 C 160.70 40.91 162.92 39.90 163.44 39.71 C 165.24 39.06 155.64 17.79 152.10 14.59 C 149.82 12.53 142.57 14.49 143.39 16.94 C 143.68 17.80 145.74 23.61 147.96 29.86 C 150.18 36.11 152.00 41.85 152.00 42.61 C 152.00 43.76 147.60 44.00 126.50 44.00 C 101.00 44.00 101.00 44.00 101.00 60.55 C 101.00 77.10 101.00 77.10 106.75 76.80 C 112.50 76.50 112.50 76.50 112.78 65.75 Z "/>
</g>
</svg>