<?xml version="1.0" encoding="UTF-8" standalone="no"?>
<!DOCTYPE svg PUBLIC "-//W3C//DTD SVG 1.1//EN" "http://www.w3.org/Graphics/SVG/1.1/DTD/svg11.dtd" >
<svg xmlns="http://www.w3.org/2000/svg" xmlns:xlink="http://www.w3.org/1999/xlink" version="1.1" viewBox="0 0 256 256">
 <g >
 <path fill="currentColor"
d=" M 161.24 190.25 C 161.50 137.50 161.50 137.50 164.88 147.81 C 171.05 166.61 187.85 197.00 200.56 212.37 C 206.24 219.24 206.24 219.24 211.31 214.16 C 216.39 209.09 216.39 209.09 210.92 203.29 C 199.80 191.52 187.10 173.29 179.64 158.36 C 174.97 149.03 164.00 122.87 164.00 121.06 C 164.00 120.34 171.46 120.00 187.00 120.00 C 210.00 120.00 210.00 120.00 210.00 114.00 C 210.00 108.00 210.00 108.00 185.50 108.00 C 161.00 108.00 161.00 108.00 161.00 86.50 C 161.00 65.00 161.00 65.00 182.00 65.00 C 203.00 65.00 203.00 65.00 203.00 59.52 C 203.00 54.04 203.00 54.04 182.25 53.77 C 161.50 53.50 161.50 53.50 161.23 32.75 C 160.96 12.00 160.96 12.00 154.98 12.00 C 149.00 12.00 149.00 12.00 149.00 33.00 C 149.00 54.00 149.00 54.00 129.50 54.00 C 110.00 54.00 110.00 54.00 110.00 59.50 C 110.00 65.00 110.00 65.00 129.50 65.00 C 149.00 65.00 149.00 65.00 149.00 86.50 C 149.00 108.00 149.00 108.00 126.50 108.00 C 104.00 108.00 104.00 108.00 104.00 114.00 C 104.00 120.00 104.00 120.00 124.00 120.00 C 136.61 120.00 144.00 120.37 144.00 121.00 C 144.00 121.54 141.50 129.08 138.44 137.75 C 128.66 165.42 118.13 185.05 100.42 208.64 C 91.84 220.05 91.84 220.05 94.17 222.01 C 96.50 223.96 96.50 223.96 106.56 213.73 C 112.10 208.10 119.01 199.96 121.93 195.62 C 128.53 185.81 138.55 165.29 144.44 149.50 C 148.92 137.50 148.92 137.50 148.96 190.25 C 149.00 243.00 149.00 243.00 154.99 243.00 C 160.98 243.00 160.98 243.00 161.24 190.25 Z  M 53.24 226.25 C 64.82 213.05 71.51 203.99 75.40 196.25 C 76.85 193.36 78.39 191.00 78.83 191.00 C 79.27 191.00 81.83 193.92 84.52 197.48 C 89.42 203.96 89.42 203.96 91.81 201.73 C 93.12 200.50 95.08 198.26 96.17 196.75 C 98.41 193.61 98.83 194.39 88.69 182.70 C 83.89 177.15 83.89 177.15 86.45 168.76 C 92.94 147.48 97.14 117.74 99.59 75.75 C 100.27 64.00 100.27 64.00 85.14 64.00 C 67.27 64.00 68.91 66.93 72.42 41.21 C 73.75 31.47 75.05 21.60 75.32 19.29 C 75.85 14.65 75.87 14.67 68.31 13.50 C 63.40 12.73 64.08 10.64 61.51 34.50 C 60.62 42.75 59.41 52.76 58.82 56.75 C 57.76 64.00 57.76 64.00 49.38 64.00 C 41.00 64.00 41.00 64.00 41.00 69.96 C 41.00 75.92 41.00 75.92 48.84 76.21 C 56.67 76.50 56.67 76.50 52.41 104.00 C 50.07 119.12 47.18 135.95 45.99 141.39 C 43.83 151.28 43.83 151.28 51.24 158.89 C 55.31 163.08 61.40 169.57 64.75 173.32 C 70.86 180.13 70.86 180.13 67.81 187.32 C 63.68 197.06 58.36 206.09 47.77 221.34 C 39.19 233.67 38.91 234.25 40.58 236.09 C 41.53 237.14 42.45 238.00 42.62 238.00 C 42.79 238.00 47.57 232.71 53.24 226.25 Z  M 67.50 161.69 C 63.65 158.28 58.55 153.90 56.18 151.95 C 51.86 148.41 51.86 148.41 54.82 138.44 C 58.17 127.17 63.37 103.12 65.91 87.19 C 67.62 76.50 67.62 76.50 77.67 76.22 C 87.71 75.93 87.71 75.93 87.30 81.22 C 84.68 115.07 81.47 139.55 77.34 157.25 C 75.96 163.16 74.76 167.97 74.67 167.94 C 74.57 167.90 71.35 165.09 67.50 161.69 Z "/>
</g>
</svg>