<?xml version="1.0" encoding="UTF-8" standalone="no"?>
<!DOCTYPE svg PUBLIC "-//W3C//DTD SVG 1.1//EN" "http://www.w3.org/Graphics/SVG/1.1/DTD/svg11.dtd" >
<svg xmlns="http://www.w3.org/2000/svg" xmlns:xlink="http://www.w3.org/1999/xlink" version="1.1" viewBox="0 0 256 256">
 <g >
 <path fill="currentColor"
d=" M 131.23 219.75 C 131.50 196.50 131.50 196.50 162.75 196.24 C 194.00 195.97 194.00 195.97 194.00 211.76 C 194.00 224.17 193.68 228.01 192.50 229.69 C 190.80 232.12 183.62 234.00 176.04 234.00 C 171.68 234.00 171.24 234.20 171.71 236.00 C 172.45 238.82 183.26 242.00 192.15 242.00 C 198.12 242.00 199.42 241.67 201.46 239.63 C 202.77 238.32 204.32 235.51 204.91 233.38 C 205.62 230.82 205.99 209.91 205.99 171.75 C 206.00 114.00 206.00 114.00 163.00 114.00 C 120.00 114.00 120.00 114.00 120.00 178.50 C 120.00 243.00 120.00 243.00 125.48 243.00 C 130.96 243.00 130.96 243.00 131.23 219.75 Z  M 69.54 238.72 C 71.24 237.26 72.50 234.84 73.05 231.97 C 73.52 229.51 73.93 207.18 73.96 182.34 C 74.00 137.17 74.00 137.17 79.25 133.97 C 82.14 132.21 86.33 129.28 88.56 127.47 C 92.19 124.53 92.57 123.80 92.20 120.59 C 91.97 118.62 91.37 117.00 90.87 117.00 C 90.37 117.00 86.37 118.81 81.98 121.01 C 74.00 125.02 74.00 125.02 74.00 99.05 C 74.00 73.08 74.00 73.08 82.75 72.79 C 91.50 72.50 91.50 72.50 91.80 67.25 C 92.10 62.00 92.10 62.00 83.05 62.00 C 74.00 62.00 74.00 62.00 74.00 37.50 C 74.00 13.00 74.00 13.00 68.02 13.00 C 62.04 13.00 62.04 13.00 61.77 37.25 C 61.50 61.50 61.50 61.50 51.75 61.79 C 42.00 62.07 42.00 62.07 42.00 67.54 C 42.00 73.00 42.00 73.00 52.00 73.00 C 62.00 73.00 62.00 73.00 62.00 101.56 C 62.00 130.11 62.00 130.11 56.75 132.42 C 53.86 133.68 49.48 135.46 47.00 136.37 C 39.90 138.97 39.81 139.09 40.56 144.72 C 40.92 147.48 41.54 150.26 41.93 150.89 C 42.42 151.69 45.30 150.81 51.34 148.02 C 56.12 145.81 60.49 144.00 61.05 144.00 C 61.72 144.00 61.97 158.31 61.78 186.59 C 61.50 229.18 61.50 229.18 59.14 231.09 C 57.36 232.53 55.19 233.00 50.32 233.00 C 44.26 233.00 43.88 233.13 44.18 235.17 C 44.61 238.08 52.48 240.82 60.69 240.92 C 65.77 240.99 67.37 240.59 69.54 238.72 Z  M 89.61 227.56 C 92.23 223.19 96.28 214.87 98.63 209.06 C 108.55 184.56 111.18 165.83 111.12 120.25 C 111.08 89.00 111.08 89.00 152.48 89.00 C 179.00 89.00 194.10 89.36 194.50 90.00 C 194.84 90.55 197.57 91.00 200.56 91.00 C 206.00 91.00 206.00 91.00 206.00 64.02 C 206.00 37.04 206.00 37.04 183.85 36.77 C 161.69 36.50 161.69 36.50 159.57 28.48 C 158.40 24.07 156.39 18.76 155.11 16.68 C 152.99 13.25 152.47 12.95 149.63 13.55 C 147.91 13.91 146.11 14.57 145.64 15.01 C 145.17 15.45 145.49 18.66 146.36 22.16 C 150.37 38.34 152.33 37.00 124.63 37.00 C 100.00 37.00 100.00 37.00 99.98 75.75 C 99.94 138.05 97.54 172.48 91.46 198.00 C 88.03 212.40 86.49 216.96 81.22 228.27 C 76.83 237.71 76.74 238.09 78.59 239.45 C 80.30 240.72 80.72 240.59 82.68 238.18 C 83.89 236.71 87.00 231.93 89.61 227.56 Z  M 131.22 173.25 C 131.50 160.50 131.50 160.50 162.75 160.24 C 194.00 159.97 194.00 159.97 194.00 172.99 C 194.00 186.00 194.00 186.00 162.47 186.00 C 130.94 186.00 130.94 186.00 131.22 173.25 Z  M 131.22 137.75 C 131.50 125.50 131.50 125.50 162.75 125.24 C 194.00 124.97 194.00 124.97 194.00 137.49 C 194.00 150.00 194.00 150.00 162.47 150.00 C 130.94 150.00 130.94 150.00 131.22 137.75 Z  M 111.00 64.58 C 111.00 57.20 111.27 50.45 111.61 49.58 C 112.15 48.18 116.74 48.00 153.11 48.00 C 194.00 48.00 194.00 48.00 194.00 63.00 C 194.00 78.00 194.00 78.00 152.50 78.00 C 111.00 78.00 111.00 78.00 111.00 64.58 Z "/>
</g>
</svg>