<?xml version="1.0" encoding="UTF-8" standalone="no"?>
<!DOCTYPE svg PUBLIC "-//W3C//DTD SVG 1.1//EN" "http://www.w3.org/Graphics/SVG/1.1/DTD/svg11.dtd" >
<svg xmlns="http://www.w3.org/2000/svg" xmlns:xlink="http://www.w3.org/1999/xlink" version="1.1" viewBox="0 0 256 256">
 <g >
 <path fill="currentColor"
d=" M 98.48 236.50 C 106.15 225.83 110.70 215.33 113.60 201.55 C 117.54 182.79 118.12 171.90 118.69 104.25 C 119.26 38.00 119.26 38.00 157.13 38.00 C 195.00 38.00 195.00 38.00 195.00 133.87 C 195.00 227.80 194.96 229.78 193.03 232.24 C 190.69 235.21 185.00 236.83 173.90 237.69 C 167.16 238.21 166.00 238.56 166.00 240.11 C 166.00 241.94 166.67 242.21 178.22 245.06 C 180.81 245.70 186.37 246.05 190.57 245.84 C 197.86 245.47 198.35 245.29 201.53 241.82 C 203.36 239.82 205.33 236.46 205.92 234.34 C 206.65 231.74 206.99 197.64 206.99 128.25 C 207.00 26.00 207.00 26.00 157.00 26.00 C 107.00 26.00 107.00 26.00 106.97 84.75 C 106.93 188.47 105.19 204.58 90.91 233.85 C 85.22 245.49 84.98 246.27 86.69 247.58 C 88.30 248.81 88.81 248.61 91.33 245.73 C 92.89 243.95 96.11 239.80 98.48 236.50 Z  M 79.24 187.75 C 79.50 133.50 79.50 133.50 82.62 139.00 C 84.33 142.03 87.54 147.36 89.75 150.85 C 93.77 157.20 93.77 157.20 97.88 153.49 C 100.15 151.44 102.00 149.44 102.00 149.04 C 102.00 148.63 99.11 144.47 95.58 139.79 C 88.69 130.66 82.29 124.67 80.26 125.46 C 79.28 125.83 79.00 122.37 79.00 109.97 C 79.00 94.00 79.00 94.00 90.00 94.00 C 101.00 94.00 101.00 94.00 101.00 89.00 C 101.00 84.00 101.00 84.00 90.00 84.00 C 79.00 84.00 79.00 84.00 79.00 61.59 C 79.00 39.18 79.00 39.18 83.25 38.53 C 85.59 38.18 89.92 37.42 92.88 36.85 C 98.25 35.81 98.25 35.81 97.59 30.20 C 97.23 27.12 96.78 24.44 96.58 24.25 C 96.39 24.05 91.34 24.81 85.36 25.92 C 79.39 27.03 68.06 28.58 60.19 29.36 C 52.32 30.15 45.64 31.03 45.35 31.32 C 45.06 31.61 45.10 32.73 45.44 33.81 C 45.94 35.40 47.59 35.98 54.28 36.94 C 58.80 37.59 63.52 38.33 64.77 38.58 C 67.04 39.05 67.04 39.05 66.77 61.27 C 66.50 83.50 66.50 83.50 55.25 83.78 C 44.00 84.07 44.00 84.07 44.00 89.03 C 44.00 94.00 44.00 94.00 53.94 94.00 C 59.41 94.00 64.07 94.34 64.31 94.75 C 64.79 95.59 59.47 124.24 55.44 142.50 C 52.34 156.55 48.16 170.17 43.36 181.86 C 40.10 189.79 40.01 190.29 41.71 191.59 C 43.30 192.81 43.81 192.61 46.22 189.81 C 50.77 184.52 56.15 173.25 61.65 157.50 C 66.89 142.50 66.89 142.50 66.94 192.25 C 67.00 242.00 67.00 242.00 72.99 242.00 C 78.98 242.00 78.98 242.00 79.24 187.75 Z  M 180.00 170.98 C 180.00 141.96 180.00 141.96 155.75 142.23 C 131.50 142.50 131.50 142.50 131.23 171.25 C 130.97 200.00 130.97 200.00 155.48 200.00 C 180.00 200.00 180.00 200.00 180.00 170.98 Z  M 189.00 112.50 C 189.00 107.00 189.00 107.00 175.50 107.00 C 162.00 107.00 162.00 107.00 162.00 94.50 C 162.00 82.00 162.00 82.00 173.00 82.00 C 184.00 82.00 184.00 82.00 184.00 76.53 C 184.00 71.07 184.00 71.07 173.25 70.78 C 162.50 70.50 162.50 70.50 162.22 58.75 C 161.94 47.00 161.94 47.00 156.47 47.00 C 151.00 47.00 151.00 47.00 151.00 59.00 C 151.00 71.00 151.00 71.00 139.45 71.00 C 127.90 71.00 127.90 71.00 128.20 76.25 C 128.50 81.50 128.50 81.50 139.75 81.78 C 151.00 82.07 151.00 82.07 151.00 94.53 C 151.00 107.00 151.00 107.00 137.50 107.00 C 124.00 107.00 124.00 107.00 124.00 112.50 C 124.00 118.00 124.00 118.00 156.50 118.00 C 189.00 118.00 189.00 118.00 189.00 112.50 Z  M 142.23 171.25 C 142.50 153.50 142.50 153.50 155.75 153.22 C 169.00 152.94 169.00 152.94 169.00 170.97 C 169.00 189.00 169.00 189.00 155.48 189.00 C 141.95 189.00 141.95 189.00 142.23 171.25 Z "/>
</g>
</svg>