<?xml version="1.0" encoding="UTF-8" standalone="no"?>
<!DOCTYPE svg PUBLIC "-//W3C//DTD SVG 1.1//EN" "http://www.w3.org/Graphics/SVG/1.1/DTD/svg11.dtd" >
<svg xmlns="http://www.w3.org/2000/svg" xmlns:xlink="http://www.w3.org/1999/xlink" version="1.1" viewBox="0 0 256 256">
 <g >
 <path fill="currentColor"
d=" M 210.23 241.31 C 216.95 238.21 224.58 230.29 226.02 224.91 C 226.73 222.31 227.05 215.58 226.85 208.04 C 226.53 196.53 226.28 195.12 223.79 190.89 C 220.64 185.54 215.17 180.44 210.07 178.12 C 204.68 175.67 124.93 175.13 115.75 177.49 C 99.50 181.65 94.00 189.94 94.00 210.29 C 94.00 215.78 94.53 222.03 95.18 224.19 C 96.56 228.81 102.54 235.94 107.73 239.14 C 115.10 243.70 117.90 243.93 163.00 243.71 C 204.38 243.51 205.63 243.44 210.23 241.31 Z  M 65.57 189.53 C 74.76 186.79 82.00 178.38 82.00 170.45 C 82.00 166.82 82.00 166.82 85.08 169.41 C 88.15 172.00 88.15 172.00 162.33 171.99 C 219.61 171.97 237.07 171.69 239.00 170.72 C 243.19 168.63 245.19 163.47 244.71 155.94 C 244.23 148.34 242.23 144.62 237.78 143.07 C 236.09 142.48 228.90 142.00 221.82 142.00 C 209.24 142.00 208.96 141.95 210.00 140.00 C 210.70 138.69 212.09 138.00 214.03 138.00 C 216.05 138.00 218.32 136.80 221.15 134.25 C 227.18 128.82 228.95 124.21 228.97 114.00 C 228.98 103.95 226.49 97.40 220.74 92.35 C 214.09 86.51 214.01 86.50 161.00 86.50 C 109.44 86.50 106.36 86.75 100.59 91.35 C 94.77 95.99 91.81 117.82 95.91 125.79 C 99.65 133.04 106.61 138.00 113.03 138.00 C 114.91 138.00 116.31 138.71 117.00 140.00 C 118.05 141.96 117.76 142.00 103.67 142.00 C 90.02 142.00 89.09 142.13 85.64 144.47 C 82.00 146.94 82.00 146.94 82.00 100.53 C 82.00 74.24 81.60 53.07 81.07 51.68 C 79.44 47.41 73.69 41.77 68.51 39.35 C 63.95 37.23 62.11 37.02 48.22 37.01 C 37.35 37.00 31.97 37.40 29.58 38.40 C 25.49 40.11 18.68 46.12 14.84 51.40 C 12.00 55.30 12.00 55.30 12.00 114.93 C 12.00 180.71 11.50 175.41 18.40 182.84 C 21.56 186.24 25.51 188.70 29.99 190.07 C 34.69 191.49 60.27 191.11 65.57 189.53 Z  M 230.54 79.72 C 235.28 75.64 235.20 63.76 230.39 58.05 C 227.85 55.04 227.85 55.04 204.19 54.77 C 182.57 54.52 180.50 54.35 180.19 52.75 C 179.88 51.12 181.58 51.00 204.91 51.00 C 225.39 51.00 230.68 50.71 233.90 49.42 C 238.55 47.56 241.00 43.28 241.00 37.03 C 241.00 32.32 239.89 29.72 236.19 25.75 C 233.63 23.00 233.63 23.00 206.89 23.00 C 180.16 23.00 180.16 23.00 178.98 19.45 C 177.21 14.07 171.64 10.85 163.05 10.24 C 150.80 9.36 141.99 13.22 140.47 20.14 C 139.84 23.00 139.84 23.00 115.96 23.00 C 92.08 23.00 92.08 23.00 88.04 26.85 C 84.21 30.49 84.00 30.99 84.00 36.62 C 84.00 43.74 85.62 46.47 91.38 49.09 C 95.00 50.73 98.18 50.96 117.75 50.98 C 139.33 51.00 140.00 51.06 140.00 53.00 C 140.00 54.94 139.33 55.00 117.40 55.00 C 94.80 55.00 94.80 55.00 91.40 58.40 C 88.34 61.46 88.00 62.36 88.00 67.45 C 88.00 70.56 88.67 74.40 89.49 75.99 C 92.77 82.32 88.97 82.00 161.67 82.00 C 227.89 82.00 227.89 82.00 230.54 79.72 Z  M 134.25 213.34 C 132.40 212.59 132.67 206.34 134.58 205.61 C 135.45 205.27 147.12 205.00 160.51 205.00 C 181.31 205.00 185.09 205.23 186.43 206.57 C 188.30 208.44 188.46 211.14 186.80 212.80 C 185.93 213.67 178.79 213.98 160.55 213.92 C 146.77 213.88 134.94 213.62 134.25 213.34 Z  M 44.46 152.75 C 44.19 152.06 44.09 133.95 44.24 112.51 C 44.49 75.26 44.58 73.51 46.38 73.17 C 47.41 72.97 48.64 73.41 49.11 74.15 C 50.08 75.67 50.34 149.95 49.39 152.42 C 48.67 154.30 45.14 154.53 44.46 152.75 Z  M 156.00 140.00 C 156.00 138.15 156.67 138.00 165.00 138.00 C 173.33 138.00 174.00 138.15 174.00 140.00 C 174.00 141.85 173.33 142.00 165.00 142.00 C 156.67 142.00 156.00 141.85 156.00 140.00 Z  M 128.00 113.11 C 128.00 112.07 128.71 110.94 129.58 110.61 C 130.45 110.27 144.99 110.00 161.89 110.00 C 186.09 110.00 193.01 110.29 194.46 111.35 C 198.93 114.62 195.49 115.00 161.44 115.00 C 129.30 115.00 128.00 114.93 128.00 113.11 Z "/>
</g>
</svg>