<?xml version="1.0" encoding="UTF-8" standalone="no"?>
<!DOCTYPE svg PUBLIC "-//W3C//DTD SVG 1.1//EN" "http://www.w3.org/Graphics/SVG/1.1/DTD/svg11.dtd" >
<svg xmlns="http://www.w3.org/2000/svg" xmlns:xlink="http://www.w3.org/1999/xlink" version="1.1" viewBox="0 0 256 256">
 <g >
 <path fill="currentColor"
d=" M 40.41 241.37 C 46.39 239.34 51.02 234.77 54.44 227.53 C 57.77 220.51 64.35 194.91 66.41 180.98 C 68.47 167.07 69.96 139.28 69.98 114.25 C 70.00 94.00 70.00 94.00 137.46 94.00 C 202.96 94.00 205.08 93.94 210.39 91.96 C 216.97 89.49 223.40 83.53 226.35 77.16 C 228.27 73.00 228.50 70.77 228.50 56.50 C 228.50 42.17 228.27 40.01 226.32 35.78 C 223.44 29.54 216.26 22.00 210.30 18.95 C 205.50 16.50 205.50 16.50 127.50 16.50 C 49.50 16.50 49.50 16.50 43.79 19.31 C 37.84 22.23 31.55 28.47 27.48 35.50 C 25.17 39.50 25.17 39.50 24.67 97.50 C 24.08 167.25 23.55 172.72 14.51 202.42 C 12.03 210.56 10.00 218.67 10.00 220.43 C 10.00 229.10 17.10 239.82 24.21 241.87 C 29.30 243.34 35.18 243.16 40.41 241.37 Z  M 217.54 240.47 C 224.84 238.60 227.58 236.70 231.65 230.72 C 238.16 221.12 245.40 197.60 244.06 190.39 C 242.92 184.27 239.59 178.85 235.03 175.70 C 231.94 173.57 222.32 173.42 217.53 175.42 C 213.34 177.17 208.67 183.43 206.42 190.32 C 204.03 197.64 201.36 202.65 199.46 203.38 C 195.58 204.87 189.91 204.00 187.45 201.55 C 185.07 199.16 185.00 198.67 185.00 184.27 C 185.00 169.46 185.00 169.46 198.25 162.58 C 217.10 152.80 229.09 145.64 232.14 142.35 C 238.77 135.18 239.82 127.27 235.12 119.85 C 231.01 113.37 225.95 110.51 218.88 110.67 C 212.35 110.82 211.25 111.33 200.50 119.03 C 193.23 124.25 186.97 128.00 185.55 128.00 C 185.25 128.00 184.99 124.74 184.98 120.75 C 184.96 114.77 184.47 112.62 182.23 108.50 C 178.66 101.96 174.00 99.57 164.96 99.65 C 154.33 99.74 147.83 104.21 144.43 113.75 C 142.77 118.38 142.45 201.44 144.05 212.47 C 146.36 228.47 154.06 237.52 168.00 240.61 C 176.37 242.47 210.12 242.37 217.54 240.47 Z  M 89.65 239.69 C 114.95 230.11 132.52 222.31 136.26 218.99 C 140.46 215.27 140.48 215.22 140.84 207.28 C 141.13 200.71 140.83 198.59 139.12 195.24 C 134.88 186.92 128.58 185.12 119.15 189.51 C 116.21 190.88 113.62 192.00 113.40 192.00 C 112.75 192.00 112.94 166.31 113.61 164.58 C 114.09 163.32 115.86 163.00 122.36 163.00 C 136.53 163.00 141.29 158.88 141.80 146.18 C 142.05 139.87 141.74 137.93 140.09 135.29 C 137.09 130.50 130.89 127.75 121.88 127.21 C 114.25 126.76 114.25 126.76 113.76 119.95 C 113.40 114.86 112.53 111.82 110.30 107.88 C 106.34 100.87 101.97 98.57 92.77 98.65 C 83.69 98.73 78.54 101.08 75.68 106.44 C 73.57 110.37 73.48 111.81 72.98 152.00 C 72.54 187.29 72.22 194.10 70.83 197.50 C 69.93 199.70 67.99 204.36 66.51 207.85 C 64.62 212.34 63.79 216.18 63.67 220.93 C 63.52 226.82 63.87 228.25 66.50 232.47 C 68.15 235.13 71.06 238.12 72.98 239.14 C 76.97 241.26 84.82 241.52 89.65 239.69 Z  M 70.00 57.45 C 70.00 55.77 70.54 53.86 71.20 53.20 C 72.10 52.30 85.88 52.00 127.08 52.00 C 174.25 52.00 181.92 52.20 182.99 53.49 C 184.63 55.46 183.61 57.82 180.63 58.95 C 179.29 59.46 153.86 60.01 124.10 60.19 C 70.00 60.50 70.00 60.50 70.00 57.45 Z "/>
</g>
</svg>