<?xml version="1.0" encoding="UTF-8" standalone="no"?>
<!DOCTYPE svg PUBLIC "-//W3C//DTD SVG 1.1//EN" "http://www.w3.org/Graphics/SVG/1.1/DTD/svg11.dtd" >
<svg xmlns="http://www.w3.org/2000/svg" xmlns:xlink="http://www.w3.org/1999/xlink" version="1.1" viewBox="0 0 256 256">
 <g >
 <path fill="currentColor"
d=" M 176.38 244.61 C 182.45 242.08 184.43 237.88 185.00 226.31 C 185.50 216.13 185.50 216.13 194.44 222.01 C 205.62 229.36 214.43 233.87 219.12 234.63 C 226.50 235.83 235.00 228.67 236.37 220.10 C 237.61 212.33 234.08 208.24 219.30 200.32 C 211.53 196.15 209.97 194.96 211.54 194.40 C 217.56 192.26 220.71 190.68 222.73 188.79 C 226.07 185.65 229.00 176.86 229.00 169.96 C 229.00 164.45 229.17 164.00 231.25 164.00 C 234.85 163.99 240.00 160.25 241.56 156.51 C 243.38 152.16 243.41 143.93 241.64 139.67 C 240.11 136.01 236.46 133.24 232.00 132.35 C 229.01 131.75 229.00 131.72 229.00 124.78 C 229.00 116.52 227.34 112.44 222.01 107.63 C 217.23 103.31 211.39 102.00 196.88 102.00 C 186.92 102.00 185.89 101.83 186.19 100.25 C 186.49 98.66 188.69 98.45 210.51 98.00 C 233.54 97.52 234.63 97.41 237.72 95.20 C 244.05 90.69 244.21 79.28 238.04 73.75 C 234.97 71.00 234.97 71.00 218.58 71.00 C 202.20 71.00 202.20 71.00 200.25 67.69 C 198.81 65.25 197.01 63.97 193.40 62.82 C 188.57 61.27 188.79 61.24 210.00 60.85 C 229.03 60.50 231.87 60.23 234.73 58.52 C 239.46 55.70 241.35 50.99 240.76 43.54 C 240.09 35.26 238.08 31.73 232.55 29.13 C 228.21 27.09 226.63 27.00 193.71 27.00 C 159.40 27.00 159.40 27.00 158.14 23.50 C 156.52 19.03 152.59 14.36 148.80 12.39 C 142.99 9.39 122.05 11.46 114.65 15.77 C 112.04 17.28 111.41 18.37 111.00 22.05 C 110.50 26.50 110.50 26.50 76.50 27.00 C 39.14 27.55 37.92 27.74 32.81 33.81 C 28.91 38.45 28.16 47.62 27.57 98.00 C 26.87 157.34 26.40 161.96 17.81 192.45 C 13.46 207.91 12.83 211.27 13.26 216.66 C 13.89 224.47 16.23 228.59 22.38 232.74 C 31.46 238.85 37.21 238.97 43.35 233.19 C 50.95 226.02 53.98 218.83 58.90 196.22 C 64.87 168.77 65.21 164.90 65.88 116.42 C 66.50 71.34 66.50 71.34 69.30 67.67 C 73.45 62.23 76.60 61.00 86.20 61.03 C 93.61 61.06 94.30 61.22 92.61 62.49 C 91.15 63.60 90.85 64.72 91.30 67.46 C 91.87 71.00 91.87 71.00 83.66 71.00 C 71.73 71.00 68.00 74.46 68.00 85.52 C 68.00 96.30 69.87 97.29 91.49 97.99 C 105.68 98.44 107.51 98.70 107.81 100.25 C 108.11 101.83 107.06 102.00 96.82 102.04 C 83.34 102.10 77.48 103.08 74.82 105.74 C 70.48 110.08 71.92 121.39 77.32 125.40 C 79.76 127.22 81.97 127.57 93.81 128.00 C 105.52 128.43 107.52 128.74 107.80 130.16 C 108.08 131.65 106.35 131.86 91.57 132.16 C 75.03 132.50 75.03 132.50 71.82 135.72 C 69.00 138.54 68.55 139.73 68.19 145.37 C 67.71 152.92 69.07 157.78 72.61 161.10 C 75.02 163.38 75.99 163.53 91.25 164.00 C 103.85 164.39 107.44 164.80 107.80 165.91 C 108.20 167.09 106.08 167.20 94.33 166.62 C 80.87 165.96 80.28 166.01 76.95 168.24 C 72.27 171.36 70.00 176.24 70.00 183.19 C 70.00 190.77 72.48 193.81 79.50 194.83 C 84.50 195.55 84.50 195.55 72.72 203.35 C 66.25 207.64 60.29 212.15 59.49 213.38 C 55.50 219.46 57.29 228.42 63.60 233.95 C 71.23 240.65 83.45 236.07 102.71 219.28 C 106.67 215.83 110.16 213.00 110.46 213.00 C 110.76 213.00 111.01 218.06 111.01 224.25 C 111.03 237.05 111.90 239.65 117.01 242.32 C 119.89 243.82 122.05 244.05 129.33 243.63 C 143.75 242.80 143.00 244.25 143.00 216.98 C 143.00 194.00 143.00 194.00 148.00 194.00 C 153.00 194.00 153.00 194.00 153.04 213.25 C 153.09 233.17 153.84 237.96 157.57 242.08 C 160.94 245.80 170.48 247.08 176.38 244.61 Z  M 141.24 165.75 C 141.47 165.05 143.72 164.37 146.33 164.20 C 150.02 163.95 151.00 164.22 151.00 165.45 C 151.00 166.65 149.85 167.00 145.92 167.00 C 142.30 167.00 140.95 166.64 141.24 165.75 Z  M 186.00 165.50 C 186.00 164.39 187.17 164.00 190.50 164.00 C 195.66 164.00 196.50 165.45 191.88 166.38 C 187.16 167.32 186.00 167.15 186.00 165.50 Z  M 141.19 130.25 C 141.44 128.93 142.69 128.42 146.26 128.20 C 150.47 127.92 151.00 128.12 151.00 129.95 C 151.00 131.75 150.38 132.00 145.93 132.00 C 141.64 132.00 140.90 131.73 141.19 130.25 Z  M 185.00 130.00 C 185.00 128.39 185.67 128.00 188.42 128.00 C 192.82 128.00 195.00 128.86 195.00 130.61 C 195.00 131.61 193.61 132.00 190.00 132.00 C 185.67 132.00 185.00 131.73 185.00 130.00 Z  M 141.19 100.25 C 141.44 98.93 142.69 98.42 146.26 98.20 C 150.47 97.92 151.00 98.12 151.00 99.95 C 151.00 101.75 150.38 102.00 145.93 102.00 C 141.64 102.00 140.90 101.73 141.19 100.25 Z  M 131.98 66.25 C 127.80 61.50 127.80 61.50 136.85 61.21 C 141.82 61.06 150.18 61.06 155.41 61.21 C 164.92 61.50 164.92 61.50 161.96 66.25 C 159.00 71.00 159.00 71.00 147.58 71.00 C 136.17 71.00 136.17 71.00 131.98 66.25 Z "/>
</g>
</svg>