<?xml version="1.0" encoding="UTF-8" standalone="no"?>
<!DOCTYPE svg PUBLIC "-//W3C//DTD SVG 1.1//EN" "http://www.w3.org/Graphics/SVG/1.1/DTD/svg11.dtd" >
<svg xmlns="http://www.w3.org/2000/svg" xmlns:xlink="http://www.w3.org/1999/xlink" version="1.1" viewBox="0 0 256 256">
 <g >
 <path fill="currentColor"
d=" M 165.44 240.96 C 177.43 239.82 182.97 237.89 187.20 233.38 C 190.73 229.61 192.42 225.39 196.06 211.27 C 197.71 204.85 199.24 199.43 199.45 199.22 C 199.66 199.01 200.59 202.25 201.51 206.42 C 203.32 214.55 205.81 219.07 210.32 222.41 C 217.15 227.47 234.39 223.14 239.85 215.00 C 243.03 210.26 242.39 204.16 237.04 188.13 C 231.78 172.37 228.94 166.82 224.34 163.31 C 221.00 160.77 219.89 160.50 212.57 160.50 C 205.80 160.50 203.80 160.90 200.15 162.99 C 193.61 166.73 189.60 176.19 191.94 182.35 C 192.53 183.90 192.67 185.00 192.26 184.78 C 183.27 180.20 181.51 179.75 174.56 180.28 C 166.50 180.89 159.29 183.41 158.63 185.84 C 158.38 186.75 157.87 189.28 157.50 191.47 C 157.13 193.65 156.18 196.68 155.39 198.21 C 152.69 203.44 150.87 203.92 132.44 204.22 C 109.36 204.60 110.01 205.03 109.98 189.23 C 109.95 175.56 109.13 171.24 105.61 166.16 C 101.50 160.22 97.71 158.49 89.00 158.56 C 79.93 158.62 76.11 160.37 72.25 166.21 C 69.50 170.36 69.50 170.36 69.50 198.93 C 69.50 225.02 69.67 227.83 71.41 231.34 C 73.95 236.46 79.30 239.83 86.57 240.89 C 95.10 242.14 152.52 242.19 165.44 240.96 Z  M 43.25 234.02 C 47.80 228.70 53.35 217.11 58.09 203.04 C 63.40 187.24 63.09 180.03 56.83 174.27 C 53.70 171.38 43.84 168.00 38.57 168.00 C 30.71 168.00 29.61 169.70 18.79 198.48 C 13.55 212.43 12.85 215.13 13.23 219.77 C 13.61 224.30 14.24 225.66 17.56 229.06 C 22.62 234.24 30.21 238.00 35.62 238.00 C 39.31 238.00 40.28 237.49 43.25 234.02 Z  M 147.94 191.73 C 153.65 188.79 156.26 184.42 156.34 177.67 C 156.39 173.15 155.48 170.70 149.06 158.22 C 144.83 150.00 140.47 142.89 138.78 141.47 C 134.50 137.87 126.56 138.03 118.42 141.88 C 111.21 145.29 108.46 148.44 107.59 154.28 C 107.00 158.18 107.59 159.93 114.03 173.34 C 117.92 181.46 122.23 189.10 123.60 190.30 C 129.38 195.39 139.66 195.99 147.94 191.73 Z  M 192.00 162.54 C 205.85 160.42 213.53 157.52 218.52 152.53 C 225.96 145.09 226.36 142.88 226.77 106.84 C 227.13 75.17 227.13 75.17 232.04 74.49 C 237.87 73.69 244.18 69.48 246.62 64.77 C 248.98 60.22 248.76 51.41 246.17 46.32 C 245.04 44.12 242.50 40.89 240.52 39.16 C 237.52 36.52 236.11 36.00 231.97 36.00 C 227.00 36.00 227.00 36.00 227.00 30.20 C 227.00 25.46 226.45 23.52 223.99 19.64 C 220.03 13.40 214.98 11.05 205.46 11.02 C 192.33 10.98 184.06 18.03 183.19 29.99 C 182.76 36.00 182.76 36.00 160.03 36.00 C 138.04 36.00 137.19 36.07 133.92 38.27 C 129.01 41.58 126.38 46.09 125.63 52.51 C 124.70 60.40 126.23 65.19 130.98 69.25 C 134.91 72.62 134.91 72.62 132.04 74.32 C 130.46 75.25 128.00 77.40 126.58 79.08 C 124.40 81.68 124.00 83.13 124.00 88.53 C 124.00 93.78 124.70 96.50 127.96 103.92 C 132.42 114.05 135.69 119.56 138.98 122.50 C 140.85 124.18 142.62 124.50 149.94 124.50 C 157.85 124.50 159.05 124.24 162.66 121.74 C 167.50 118.38 170.79 112.81 171.65 106.53 C 172.22 102.36 171.84 100.96 168.14 93.68 C 165.86 89.18 162.20 83.14 160.01 80.25 C 156.03 75.00 156.03 75.00 169.52 75.00 C 183.00 75.00 183.00 75.00 183.00 95.57 C 183.00 108.39 182.59 116.89 181.92 118.15 C 180.48 120.83 175.07 123.00 169.78 123.00 C 164.60 123.00 159.37 125.51 156.57 129.33 C 154.89 131.62 154.53 133.49 154.65 139.33 C 154.88 150.60 159.16 159.86 165.40 162.57 C 169.48 164.35 180.23 164.34 192.00 162.54 Z  M 50.59 156.87 C 53.66 155.02 60.87 149.31 66.59 144.19 C 73.28 138.22 77.46 135.16 78.25 135.65 C 78.94 136.06 83.03 139.02 87.34 142.21 C 96.46 148.96 98.20 149.55 104.12 147.99 C 112.34 145.80 123.00 131.34 123.00 122.37 C 123.00 119.30 122.23 117.30 119.92 114.39 C 116.93 110.62 110.75 105.07 106.12 102.00 C 103.86 100.50 103.86 100.50 110.85 86.00 C 120.32 66.33 123.35 52.96 121.57 38.70 C 120.68 31.56 117.73 27.21 111.47 23.77 C 106.50 21.05 106.50 21.05 68.70 21.02 C 27.70 21.00 28.25 20.93 22.80 26.66 C 18.98 30.68 17.00 36.06 17.00 42.40 C 17.00 48.98 18.23 52.56 21.81 56.34 C 27.22 62.06 28.31 62.26 53.18 62.08 C 76.00 61.91 76.00 61.91 75.98 64.70 C 75.96 67.87 70.93 78.51 69.46 78.49 C 68.93 78.48 62.79 75.59 55.81 72.07 C 35.50 61.83 29.16 62.58 22.16 76.03 C 19.10 81.91 18.84 83.08 19.29 88.87 C 19.94 97.14 21.76 99.52 31.30 104.54 C 35.52 106.76 39.46 109.06 40.07 109.67 C 40.86 110.46 39.55 112.01 35.33 115.29 C 19.68 127.45 16.74 135.16 22.98 147.65 C 29.74 161.18 38.56 164.13 50.59 156.87 Z "/>
</g>
</svg>