<?xml version="1.0" encoding="UTF-8" standalone="no"?>
<!DOCTYPE svg PUBLIC "-//W3C//DTD SVG 1.1//EN" "http://www.w3.org/Graphics/SVG/1.1/DTD/svg11.dtd" >
<svg xmlns="http://www.w3.org/2000/svg" xmlns:xlink="http://www.w3.org/1999/xlink" version="1.1" viewBox="0 0 256 256">
 <g >
 <path fill="currentColor"
d=" M 162.00 241.01 C 164.45 240.33 168.77 236.76 176.37 229.13 C 187.24 218.23 187.24 218.23 199.59 227.59 C 212.76 237.57 216.26 239.47 223.50 240.55 C 232.23 241.86 241.14 236.17 244.02 227.44 C 244.76 225.20 245.05 220.95 244.75 216.77 C 244.03 206.62 243.56 206.13 224.24 195.20 C 221.03 193.39 217.12 190.87 215.55 189.62 C 212.69 187.34 212.69 187.34 218.78 174.92 C 227.39 157.36 233.16 139.79 233.32 130.65 C 233.49 121.02 231.32 110.53 228.44 107.12 C 226.14 104.38 226.14 104.38 230.83 100.34 C 239.15 93.17 244.04 80.96 243.96 67.54 C 243.89 56.28 240.11 48.75 231.74 43.21 C 227.86 40.64 226.88 40.47 212.58 40.00 C 197.50 39.50 197.50 39.50 197.00 28.00 C 196.42 14.69 194.88 11.37 187.99 8.61 C 180.64 5.67 164.07 7.03 160.65 10.85 C 158.65 13.09 157.00 22.71 157.00 32.18 C 157.00 40.00 157.00 40.00 143.87 40.00 C 136.54 40.00 128.96 40.53 126.72 41.20 C 120.47 43.07 116.55 47.48 114.11 55.37 C 112.14 61.75 112.00 64.44 112.00 95.11 C 112.00 113.20 111.64 128.00 111.20 128.00 C 110.76 128.00 109.85 127.45 109.18 126.78 C 108.46 126.06 103.97 125.41 97.98 125.17 C 88.00 124.77 88.00 124.77 88.00 116.51 C 88.00 108.25 88.00 108.25 90.92 107.67 C 95.04 106.84 100.97 101.30 103.39 96.00 C 105.22 92.00 105.49 89.10 105.82 69.72 C 106.18 49.08 106.08 47.60 103.92 41.47 C 100.83 32.73 97.22 28.60 90.44 26.06 C 85.40 24.18 82.77 24.00 59.71 24.02 C 27.19 24.05 25.40 24.71 20.40 38.49 C 18.15 44.68 18.00 46.42 18.00 66.42 C 18.00 82.58 18.35 88.75 19.46 91.90 C 24.20 105.34 26.90 107.22 42.47 107.97 C 53.50 108.50 53.50 108.50 53.76 146.65 C 54.02 184.80 54.02 184.80 50.86 185.90 C 49.12 186.50 47.54 187.00 47.35 187.00 C 47.16 187.00 47.00 173.22 47.00 156.39 C 47.00 126.53 46.94 125.67 44.76 121.79 C 41.96 116.81 38.54 115.00 31.95 115.00 C 25.19 115.00 20.82 117.19 18.16 121.92 C 16.06 125.66 16.00 126.78 16.00 159.40 C 16.00 193.03 16.00 193.03 11.35 197.49 C 6.70 201.95 6.70 201.95 7.32 210.22 C 8.14 221.14 9.58 225.80 13.15 229.14 C 16.82 232.57 22.36 233.48 31.00 232.08 C 39.30 230.73 41.29 230.12 53.99 225.03 C 59.76 222.72 69.77 219.32 76.24 217.47 C 82.71 215.63 88.45 213.84 89.00 213.50 C 89.63 213.11 90.00 215.16 90.00 218.97 C 90.00 228.94 93.77 235.54 101.50 239.11 C 108.71 242.44 119.94 241.07 125.32 236.21 C 126.37 235.27 128.56 231.84 130.21 228.58 C 133.20 222.67 133.20 222.67 136.17 228.87 C 141.13 239.20 151.32 243.99 162.00 241.01 Z  M 142.35 199.75 C 143.11 196.68 146.66 179.83 148.06 172.59 C 149.21 166.67 149.21 166.67 152.86 173.59 C 154.86 177.39 157.57 182.00 158.88 183.83 C 161.25 187.17 161.25 187.17 156.88 191.64 C 152.48 196.14 144.47 202.00 142.72 202.00 C 142.20 202.00 142.04 200.99 142.35 199.75 Z  M 101.59 176.10 C 99.27 173.53 94.35 172.54 90.74 173.91 C 88.00 174.95 88.00 174.95 88.00 167.04 C 88.00 159.13 88.00 159.13 98.00 158.82 C 104.23 158.62 107.99 158.88 107.98 159.50 C 107.96 160.05 106.94 164.47 105.70 169.33 C 103.48 178.07 103.44 178.14 101.59 176.10 Z  M 182.72 150.31 C 181.22 148.16 178.40 144.84 176.44 142.95 C 173.16 139.76 172.41 139.50 166.61 139.50 C 161.26 139.50 159.55 139.98 155.10 142.75 C 149.88 145.99 149.88 145.99 150.19 142.25 C 150.50 138.50 150.50 138.50 167.77 138.23 C 178.55 138.06 185.79 138.35 187.02 139.01 C 189.49 140.33 189.54 144.94 187.14 150.37 C 185.43 154.23 185.43 154.23 182.72 150.31 Z  M 206.00 99.31 C 196.45 98.59 196.89 99.12 197.21 88.72 C 197.50 79.50 197.50 79.50 200.50 79.50 C 203.44 79.50 203.49 79.59 203.21 84.13 C 202.97 88.06 203.42 89.40 206.26 93.13 C 209.59 97.50 211.39 100.15 210.81 99.83 C 210.64 99.73 208.47 99.50 206.00 99.31 Z  M 150.00 89.93 C 150.00 80.69 151.02 78.00 154.54 78.00 C 156.99 78.00 157.00 78.04 157.00 88.00 C 157.00 98.00 157.00 98.00 153.50 98.00 C 150.00 98.00 150.00 98.00 150.00 89.93 Z  M 56.67 73.33 C 55.52 72.19 55.94 68.53 57.47 66.35 C 58.27 65.20 60.60 63.47 62.64 62.50 C 66.20 60.81 66.39 60.81 67.74 62.62 C 69.30 64.70 68.84 70.28 66.93 72.59 C 65.74 74.02 57.92 74.59 56.67 73.33 Z "/>
</g>
</svg>