<?xml version="1.0" encoding="UTF-8" standalone="no"?>
<!DOCTYPE svg PUBLIC "-//W3C//DTD SVG 1.1//EN" "http://www.w3.org/Graphics/SVG/1.1/DTD/svg11.dtd" >
<svg xmlns="http://www.w3.org/2000/svg" xmlns:xlink="http://www.w3.org/1999/xlink" version="1.1" viewBox="0 0 256 256">
 <g >
 <path fill="currentColor"
d=" M 231.50 239.70 C 236.08 238.52 238.23 237.32 240.58 234.60 C 248.03 226.02 247.75 212.29 239.97 204.87 C 233.80 198.98 229.85 198.50 204.25 200.51 C 180.84 202.35 164.39 202.12 130.60 199.45 C 109.17 197.76 95.45 195.57 88.00 192.65 C 83.50 190.89 82.14 189.77 80.50 186.50 C 78.62 182.75 78.47 179.92 77.98 141.00 C 77.53 104.29 77.27 99.13 75.75 96.33 C 71.65 88.77 61.63 85.00 43.65 84.26 C 28.24 83.62 21.95 84.77 16.57 89.20 C 11.81 93.13 10.00 97.35 10.00 104.52 C 10.00 115.88 17.67 124.00 28.40 124.00 C 35.92 124.00 36.00 124.34 35.99 153.97 C 35.97 172.51 35.63 180.18 34.71 181.99 C 34.02 183.36 30.10 187.19 26.01 190.49 C 21.91 193.80 16.35 198.63 13.65 201.24 C 8.73 205.98 8.73 205.98 9.22 212.83 C 9.79 220.85 14.21 230.22 19.69 235.04 C 22.47 237.48 23.95 238.00 28.07 238.00 C 33.36 238.00 35.99 236.89 50.48 228.58 C 54.86 226.06 59.06 224.00 59.80 224.00 C 60.54 224.00 65.95 226.23 71.82 228.95 C 83.17 234.20 95.97 238.28 105.00 239.52 C 124.54 242.20 221.19 242.34 231.50 239.70 Z  M 122.96 192.44 C 130.73 188.82 135.89 184.24 141.69 175.83 C 151.36 161.79 153.14 156.20 154.90 134.37 C 156.15 118.81 156.99 116.00 160.39 116.00 C 162.84 116.00 162.84 116.00 163.22 143.75 C 163.91 193.36 165.12 195.00 200.93 195.00 C 219.33 195.00 219.56 194.97 225.61 192.11 C 228.97 190.52 232.72 188.16 233.95 186.86 C 237.09 183.53 240.51 176.43 241.99 170.12 C 243.54 163.55 242.66 151.94 240.35 148.41 C 236.61 142.70 225.01 138.61 220.01 141.24 C 218.64 141.96 215.89 145.24 213.90 148.52 C 211.12 153.12 209.74 154.50 207.92 154.50 C 203.80 154.50 203.03 151.09 203.01 132.75 C 203.00 116.00 203.00 116.00 213.29 116.00 C 230.76 116.00 235.89 111.62 236.80 95.93 C 237.58 82.51 233.86 76.69 223.42 74.98 C 215.90 73.75 104.87 73.73 99.58 74.96 C 94.91 76.04 91.69 78.30 87.59 83.37 C 85.02 86.54 84.50 88.15 84.18 93.90 C 83.75 101.35 85.09 105.19 89.86 110.34 C 94.28 115.10 97.08 116.00 107.39 116.00 C 112.61 116.00 117.07 116.34 117.29 116.75 C 117.52 117.16 117.32 121.72 116.84 126.88 C 115.51 141.39 112.12 147.22 99.30 157.15 C 93.58 161.57 88.98 169.30 89.02 174.45 C 89.07 180.99 95.11 189.46 102.50 193.34 C 107.27 195.85 116.50 195.44 122.96 192.44 Z  M 66.49 68.19 C 68.68 66.67 71.53 63.87 72.82 61.96 C 74.85 58.98 75.12 57.54 74.83 51.47 C 74.51 45.06 74.05 43.74 69.52 36.47 C 60.52 22.01 53.86 16.48 44.01 15.32 C 32.31 13.93 21.86 25.16 23.26 37.61 C 24.01 44.29 28.80 52.68 36.10 60.09 C 48.04 72.22 57.16 74.65 66.49 68.19 Z  M 219.48 58.00 C 226.49 54.48 228.51 50.61 228.37 40.96 C 228.21 30.48 225.72 25.71 218.69 22.44 C 213.50 20.02 213.50 20.02 161.37 20.01 C 105.59 20.00 106.14 19.95 99.63 25.08 C 95.60 28.25 94.00 32.79 94.00 41.07 C 94.00 52.46 96.62 56.28 106.60 59.37 C 110.76 60.66 119.32 60.87 163.00 60.70 C 214.50 60.50 214.50 60.50 219.48 58.00 Z "/>
</g>
</svg>