<?xml version="1.0" encoding="UTF-8" standalone="no"?>
<!DOCTYPE svg PUBLIC "-//W3C//DTD SVG 1.1//EN" "http://www.w3.org/Graphics/SVG/1.1/DTD/svg11.dtd" >
<svg xmlns="http://www.w3.org/2000/svg" xmlns:xlink="http://www.w3.org/1999/xlink" version="1.1" viewBox="0 0 256 256">
 <g >
 <path fill="currentColor"
d=" M 128.85 243.58 C 131.42 242.27 136.26 239.15 139.60 236.64 C 147.09 231.01 163.95 213.62 170.00 205.27 C 172.47 201.86 174.79 199.16 175.14 199.28 C 175.99 199.57 181.45 206.81 191.82 221.39 C 203.00 237.11 207.37 241.44 214.09 243.43 C 223.70 246.29 230.40 244.86 236.63 238.63 C 244.67 230.59 245.06 218.89 237.63 208.20 C 236.22 206.16 230.75 199.32 225.48 193.00 C 216.83 182.61 206.00 166.01 206.00 163.13 C 206.00 162.35 209.87 162.00 218.53 162.00 C 229.87 162.00 231.53 161.77 235.93 159.53 C 244.41 155.24 247.68 148.57 246.69 137.60 C 246.04 130.33 244.03 127.44 236.92 123.50 C 231.57 120.54 231.28 120.50 214.11 120.17 C 196.73 119.83 196.73 119.83 197.48 111.67 C 199.66 88.04 198.03 90.56 211.50 90.00 C 221.83 89.57 224.09 89.16 227.75 87.07 C 233.28 83.90 236.00 78.44 236.00 70.50 C 236.00 62.88 233.34 57.53 227.32 53.00 C 222.76 49.57 222.44 49.49 211.08 49.00 C 199.50 48.50 199.50 48.50 198.87 35.50 C 198.20 21.83 197.63 18.30 195.29 13.67 C 192.05 7.24 177.72 4.83 168.96 9.25 C 165.54 10.98 163.92 12.66 162.02 16.50 C 159.82 20.93 159.49 23.06 159.15 35.30 C 158.82 47.41 158.57 49.06 157.14 48.79 C 155.96 48.56 155.30 46.85 154.77 42.59 C 153.68 33.83 150.75 28.54 145.62 26.06 C 138.53 22.63 133.57 23.41 127.66 28.87 C 123.50 32.73 122.33 35.53 119.97 47.44 C 117.56 59.56 115.78 65.14 109.72 79.58 C 105.50 89.65 105.50 89.65 103.00 84.67 C 98.56 75.84 94.19 74.17 75.27 74.06 C 65.04 74.00 65.04 74.00 66.13 71.61 C 67.19 69.28 67.59 69.21 81.36 68.83 C 94.61 68.47 95.82 68.27 100.61 65.64 C 108.83 61.12 112.15 52.86 109.97 42.34 C 109.14 38.37 107.78 35.66 105.16 32.75 C 100.47 27.56 96.64 26.00 88.53 26.00 C 82.29 26.00 82.00 25.89 82.00 23.58 C 82.00 19.81 76.08 12.79 70.60 10.08 C 67.14 8.36 63.51 7.53 58.11 7.23 C 45.28 6.52 43.39 8.78 32.11 38.27 C 28.91 46.65 24.03 58.00 21.26 63.50 C 15.99 74.00 13.46 83.00 14.56 87.38 C 15.16 89.79 19.81 94.68 23.42 96.70 C 24.27 97.17 25.42 100.02 25.98 103.03 C 26.82 107.56 27.76 109.23 31.44 112.75 C 34.96 116.12 36.62 117.00 39.44 117.00 C 42.99 117.00 43.00 117.01 43.00 121.50 C 43.00 126.00 43.00 126.00 36.75 126.01 C 27.87 126.01 23.74 127.44 19.72 131.89 C 15.17 136.93 13.62 141.84 14.28 149.14 C 14.90 156.03 17.07 160.14 22.34 164.39 C 25.84 167.22 26.94 167.53 34.59 167.85 C 43.00 168.21 43.00 168.21 43.00 182.93 C 43.00 195.96 42.70 198.61 40.40 206.07 C 37.05 216.90 36.89 224.79 39.89 231.50 C 42.67 237.71 45.96 241.23 51.19 243.58 C 55.04 245.32 55.52 245.33 61.74 243.70 C 66.72 242.39 88.85 233.68 100.63 228.39 C 101.28 228.09 102.03 229.27 102.40 231.19 C 103.28 235.70 109.01 243.25 113.13 245.34 C 117.28 247.45 122.33 246.88 128.85 243.58 Z  M 107.19 201.64 C 105.21 196.19 100.78 193.00 95.17 193.00 C 92.59 193.00 89.03 193.42 87.24 193.93 C 84.00 194.86 84.00 194.86 84.00 181.55 C 84.00 168.23 84.00 168.23 90.38 167.83 C 102.17 167.08 108.20 160.57 108.31 148.46 C 108.36 143.52 107.77 141.05 105.44 136.37 C 101.92 129.33 96.57 126.00 88.79 126.00 C 84.00 126.00 84.00 126.00 84.00 122.00 C 84.00 118.03 84.03 118.00 87.80 118.00 C 95.14 118.00 105.00 109.02 105.00 102.34 C 105.00 101.35 106.22 102.54 107.88 105.15 C 111.16 110.32 116.41 113.00 123.27 113.00 C 130.67 113.00 133.70 110.57 138.88 100.50 C 143.50 91.50 143.50 91.50 151.35 91.00 C 159.19 90.50 159.19 90.50 158.44 98.00 C 158.03 102.12 157.42 108.65 157.09 112.50 C 156.50 119.50 156.50 119.50 141.50 120.05 C 125.33 120.65 122.78 121.36 117.86 126.66 C 113.10 131.79 111.76 135.66 112.17 143.01 C 112.64 151.30 115.51 155.58 123.17 159.40 C 127.54 161.57 129.76 162.00 136.70 162.00 C 141.26 162.00 145.00 162.26 145.00 162.59 C 145.00 164.95 132.28 180.77 121.49 191.84 C 108.47 205.19 108.47 205.19 107.19 201.64 Z "/>
</g>
</svg>