<?xml version="1.0" encoding="UTF-8" standalone="no"?>
<!DOCTYPE svg PUBLIC "-//W3C//DTD SVG 1.1//EN" "http://www.w3.org/Graphics/SVG/1.1/DTD/svg11.dtd" >
<svg xmlns="http://www.w3.org/2000/svg" xmlns:xlink="http://www.w3.org/1999/xlink" version="1.1" viewBox="0 0 256 256">
 <g >
 <path fill="currentColor"
d=" M 212.78 236.44 C 215.00 234.89 215.00 234.85 215.00 201.94 C 215.00 169.00 215.00 169.00 219.46 169.00 C 222.86 169.00 224.18 168.53 224.96 167.07 C 227.58 162.18 224.75 158.00 218.85 158.00 C 215.00 158.00 215.00 158.00 215.00 118.04 C 215.00 79.55 214.93 78.03 213.07 77.04 C 211.84 76.38 198.19 76.00 175.62 76.00 C 140.60 76.00 140.09 76.03 138.63 78.12 C 136.77 80.77 137.83 84.05 141.10 85.74 C 142.85 86.63 151.73 86.97 173.75 86.99 C 204.00 87.00 204.00 87.00 204.00 122.50 C 204.00 158.00 204.00 158.00 167.50 158.00 C 131.00 158.00 131.00 158.00 130.98 128.25 C 130.96 97.63 129.39 78.50 126.75 76.82 C 124.57 75.44 120.36 75.94 118.82 77.75 C 117.57 79.22 117.48 81.31 118.27 91.00 C 118.79 97.33 119.27 117.57 119.34 136.00 C 119.49 172.21 118.42 184.56 112.52 214.65 C 111.14 221.72 110.01 228.59 110.00 229.92 C 110.00 235.40 116.59 238.08 119.43 233.75 C 122.08 229.70 128.80 191.90 130.24 173.00 C 130.50 169.50 130.50 169.50 167.25 169.24 C 204.00 168.98 204.00 168.98 204.00 201.49 C 204.00 232.67 204.08 234.08 206.00 236.00 C 208.41 238.41 209.84 238.50 212.78 236.44 Z  M 102.00 221.00 C 103.94 219.06 104.00 217.67 104.00 176.95 C 104.00 125.08 106.14 130.00 83.55 130.00 C 69.33 130.00 67.83 130.17 66.00 132.00 C 63.52 134.48 63.43 138.17 65.79 140.31 C 67.19 141.58 70.21 142.00 79.54 142.22 C 91.50 142.50 91.50 142.50 91.76 180.93 C 91.99 214.95 92.21 219.58 93.67 221.18 C 95.83 223.57 99.51 223.49 102.00 221.00 Z  M 37.98 184.25 C 42.89 178.36 49.79 163.44 52.66 152.50 C 54.98 143.66 55.30 140.47 55.39 125.00 C 55.45 115.38 55.15 104.46 54.72 100.75 C 53.94 94.00 53.94 94.00 78.72 93.98 C 92.35 93.98 104.00 93.64 104.60 93.23 C 107.01 91.62 107.91 88.45 106.66 85.94 C 105.44 83.50 105.44 83.50 74.08 83.50 C 37.55 83.50 39.83 82.78 41.82 93.70 C 44.76 109.82 45.40 120.05 44.21 131.93 C 42.33 150.61 38.15 163.91 30.56 175.35 C 26.67 181.21 26.16 184.02 28.57 186.43 C 31.24 189.10 34.59 188.32 37.98 184.25 Z  M 185.80 136.40 C 186.32 132.81 184.20 129.11 180.79 127.67 C 176.08 125.67 166.37 118.11 160.17 111.60 C 156.21 107.44 154.13 106.00 152.08 106.00 C 149.03 106.00 147.16 108.89 147.77 112.68 C 148.30 115.98 167.62 134.05 173.89 137.10 C 180.13 140.14 185.30 139.83 185.80 136.40 Z  M 94.55 59.55 C 97.41 56.69 97.58 55.27 95.44 52.22 C 93.92 50.05 93.41 50.00 74.27 50.00 C 57.42 50.00 54.40 50.23 52.83 51.65 C 49.74 54.45 50.96 59.86 55.00 61.31 C 55.83 61.60 64.51 61.88 74.30 61.92 C 91.90 62.00 92.12 61.97 94.55 59.55 Z  M 222.37 58.93 C 225.15 56.74 225.81 53.21 223.80 51.20 C 222.90 50.30 211.09 50.00 176.80 50.00 C 151.61 50.00 131.00 49.76 131.00 49.46 C 131.00 49.16 135.05 43.95 140.00 37.89 C 149.47 26.30 150.51 23.68 146.95 20.45 C 144.95 18.65 144.81 18.65 141.42 20.48 C 139.50 21.51 136.48 24.24 134.72 26.55 C 132.95 28.86 127.67 35.36 123.00 40.99 C 118.33 46.62 114.10 51.78 113.60 52.46 C 112.21 54.37 113.71 58.56 116.23 59.77 C 117.78 60.52 134.63 60.89 169.12 60.93 C 218.86 61.00 219.78 60.96 222.37 58.93 Z "/>
</g>
</svg>