<?xml version="1.0" encoding="UTF-8" standalone="no"?>
<!DOCTYPE svg PUBLIC "-//W3C//DTD SVG 1.1//EN" "http://www.w3.org/Graphics/SVG/1.1/DTD/svg11.dtd" >
<svg xmlns="http://www.w3.org/2000/svg" xmlns:xlink="http://www.w3.org/1999/xlink" version="1.1" viewBox="0 0 256 256">
 <g >
 <path fill="currentColor"
d=" M 172.43 240.43 C 173.82 239.04 174.00 232.26 174.00 180.95 C 174.00 123.05 174.00 123.05 171.46 121.38 C 167.89 119.04 164.32 120.76 163.51 125.20 C 163.18 127.02 163.04 153.29 163.21 183.60 C 163.52 242.70 163.46 242.00 168.55 242.00 C 169.82 242.00 171.56 241.29 172.43 240.43 Z  M 97.60 239.23 C 100.83 237.08 101.00 234.08 101.00 179.13 C 101.00 147.93 100.60 123.08 100.08 121.70 C 98.90 118.62 95.24 117.61 92.27 119.56 C 90.00 121.05 90.00 121.05 90.00 179.47 C 90.00 234.06 90.11 237.97 91.75 238.92 C 93.83 240.13 96.08 240.25 97.60 239.23 Z  M 232.08 214.92 C 233.22 213.78 233.89 212.17 233.58 211.34 C 233.26 210.51 233.00 209.46 233.00 209.00 C 233.00 208.53 229.87 206.08 226.05 203.54 C 215.02 196.20 205.78 182.22 201.06 165.71 C 199.14 159.00 199.14 159.00 215.04 159.00 C 229.73 159.00 231.01 158.85 231.96 157.07 C 233.48 154.24 233.23 150.37 231.43 148.57 C 230.11 147.25 226.75 147.00 210.38 147.00 C 191.15 147.00 190.88 147.03 188.50 149.41 C 185.83 152.08 185.86 153.84 188.72 166.00 C 193.70 187.10 205.21 204.32 220.44 213.44 C 227.30 217.55 229.21 217.79 232.08 214.92 Z  M 38.03 211.35 C 54.64 200.23 66.41 183.81 73.99 161.18 C 76.85 152.66 76.96 151.82 75.57 149.13 C 74.75 147.54 73.35 145.96 72.46 145.62 C 71.56 145.28 62.87 145.00 53.14 145.00 C 38.74 145.00 35.03 145.29 33.22 146.56 C 30.83 148.23 30.32 151.87 32.04 155.07 C 32.99 156.84 34.26 157.00 47.66 157.00 C 62.25 157.00 62.25 157.00 61.61 160.19 C 60.11 167.72 51.23 182.92 42.62 192.70 C 40.39 195.23 36.18 198.83 33.28 200.68 C 30.38 202.54 28.00 204.46 28.00 204.95 C 28.00 205.44 27.74 206.50 27.43 207.32 C 26.70 209.21 30.73 213.00 33.47 213.00 C 34.61 213.00 36.67 212.26 38.03 211.35 Z  M 126.78 195.02 C 138.54 186.76 148.74 170.14 149.75 157.57 C 150.19 152.02 149.99 150.99 148.06 149.06 C 145.95 146.95 145.22 146.88 129.89 147.18 C 112.62 147.53 112.05 147.72 112.02 153.18 C 111.99 158.15 114.04 159.00 126.07 159.00 C 132.61 159.00 137.00 159.40 137.00 159.99 C 137.00 160.53 136.14 163.24 135.09 166.00 C 132.55 172.70 123.99 183.06 117.37 187.45 C 112.92 190.41 112.00 191.52 112.00 193.94 C 112.00 197.43 114.29 200.00 117.41 200.00 C 118.66 200.00 122.88 197.76 126.78 195.02 Z  M 135.17 122.35 C 136.90 120.78 137.00 117.86 137.00 70.67 C 137.00 25.54 136.84 20.48 135.35 18.83 C 133.47 16.75 128.99 16.41 127.20 18.20 C 125.47 19.93 125.47 121.07 127.20 122.80 C 128.92 124.52 133.03 124.28 135.17 122.35 Z  M 68.59 109.87 C 85.70 98.04 102.39 74.72 107.12 56.01 C 108.87 49.08 109.00 47.37 107.93 45.38 C 106.66 43.00 106.66 43.00 82.03 43.00 C 64.21 43.00 57.07 43.33 56.20 44.20 C 54.25 46.15 54.72 51.78 56.93 52.96 C 58.06 53.57 66.39 54.00 76.93 54.00 C 98.01 54.00 97.13 53.32 91.23 65.02 C 83.16 81.05 72.31 93.81 60.23 101.51 C 53.53 105.77 51.98 108.46 53.85 112.57 C 55.68 116.59 60.02 115.80 68.59 109.87 Z  M 211.78 109.79 C 213.65 105.86 212.12 104.10 202.95 99.66 C 188.97 92.90 175.19 78.00 168.99 62.97 C 167.34 58.98 166.00 55.34 166.00 54.86 C 166.00 54.39 174.97 54.00 185.93 54.00 C 196.90 54.00 207.02 53.56 208.43 53.02 C 210.48 52.25 211.00 51.37 211.00 48.72 C 211.00 46.90 210.46 44.86 209.80 44.20 C 208.93 43.33 201.35 43.00 181.95 43.00 C 156.56 43.00 155.23 43.09 153.50 45.01 C 151.74 46.95 151.75 47.28 153.88 55.26 C 158.18 71.41 165.47 83.67 178.45 96.58 C 184.66 102.76 188.55 105.65 195.00 108.88 C 205.06 113.92 209.69 114.17 211.78 109.79 Z "/>
</g>
</svg>