<?xml version="1.0" encoding="UTF-8" standalone="no"?>
<!DOCTYPE svg PUBLIC "-//W3C//DTD SVG 1.1//EN" "http://www.w3.org/Graphics/SVG/1.1/DTD/svg11.dtd" >
<svg xmlns="http://www.w3.org/2000/svg" xmlns:xlink="http://www.w3.org/1999/xlink" version="1.1" viewBox="0 0 256 256">
 <g >
 <path fill="currentColor"
d=" M 205.43 229.43 C 206.81 228.05 207.00 222.62 207.00 184.93 C 207.00 143.33 206.94 141.94 205.00 140.00 C 203.08 138.08 201.67 138.00 168.22 138.00 C 128.91 138.00 129.00 137.98 129.00 144.86 C 129.00 146.92 129.54 149.14 130.20 149.80 C 131.08 150.68 139.80 151.00 163.20 151.00 C 195.00 151.00 195.00 151.00 195.00 188.78 C 195.00 221.35 195.21 226.86 196.56 228.78 C 198.41 231.42 203.10 231.76 205.43 229.43 Z  M 85.69 208.75 C 101.74 192.19 114.12 167.53 118.96 142.47 C 120.80 132.91 122.97 110.52 122.99 100.75 C 123.00 97.00 123.00 97.00 169.93 97.00 C 211.26 97.00 217.04 96.81 218.43 95.43 C 220.29 93.57 220.50 88.90 218.80 87.20 C 217.07 85.47 85.93 85.47 84.20 87.20 C 82.64 88.76 82.66 93.17 84.25 95.29 C 85.28 96.67 87.69 97.01 98.00 97.23 C 110.50 97.50 110.50 97.50 110.26 109.00 C 109.77 132.27 105.05 155.12 97.54 170.50 C 91.94 181.99 86.28 190.03 77.22 199.40 C 69.62 207.27 68.67 209.66 71.56 213.78 C 74.49 217.97 77.94 216.75 85.69 208.75 Z  M 41.68 189.75 C 51.67 178.64 63.24 152.31 68.01 129.83 C 71.06 115.42 72.52 88.80 71.12 72.78 C 70.49 65.48 69.69 57.81 69.36 55.75 C 68.74 52.00 68.74 52.00 141.15 52.00 C 221.50 52.00 218.00 52.29 218.00 45.64 C 218.00 43.86 217.46 41.86 216.80 41.20 C 215.06 39.46 57.94 39.46 56.20 41.20 C 54.62 42.78 54.69 46.86 56.45 56.05 C 58.60 67.31 59.44 94.36 58.10 109.03 C 55.54 136.94 47.44 160.40 33.80 179.40 C 30.68 183.75 30.20 188.06 32.57 190.43 C 34.85 192.71 39.31 192.38 41.68 189.75 Z "/>
</g>
</svg>