<?xml version="1.0" encoding="UTF-8" standalone="no"?>
<!DOCTYPE svg PUBLIC "-//W3C//DTD SVG 1.1//EN" "http://www.w3.org/Graphics/SVG/1.1/DTD/svg11.dtd" >
<svg xmlns="http://www.w3.org/2000/svg" xmlns:xlink="http://www.w3.org/1999/xlink" version="1.1" viewBox="0 0 256 256">
 <g >
 <path fill="currentColor"
d=" M 105.71 237.00 C 106.61 235.21 106.97 228.01 106.99 211.75 C 107.00 189.00 107.00 189.00 127.93 189.00 C 145.62 189.00 149.10 188.76 150.43 187.43 C 152.66 185.20 152.45 180.31 150.07 179.04 C 148.91 178.42 139.83 178.00 127.57 178.00 C 107.00 178.00 107.00 178.00 107.00 159.50 C 107.00 141.00 107.00 141.00 126.57 141.00 C 138.14 141.00 146.92 140.58 148.07 139.96 C 149.93 138.96 150.00 137.39 150.00 93.00 C 150.00 48.61 149.93 47.04 148.07 46.04 C 145.16 44.48 86.76 44.64 85.20 46.20 C 83.21 48.19 83.77 52.73 86.22 54.44 C 88.09 55.75 92.42 56.00 113.22 56.00 C 138.00 56.00 138.00 56.00 138.00 93.00 C 138.00 130.00 138.00 130.00 122.50 130.00 C 107.00 130.00 107.00 130.00 107.00 109.22 C 107.00 92.04 106.73 88.06 105.44 86.22 C 103.90 84.02 103.67 84.00 76.44 84.00 C 49.00 84.00 49.00 84.00 49.00 71.07 C 49.00 59.12 49.15 58.09 50.95 57.52 C 57.08 55.57 79.13 38.78 82.69 33.35 C 84.08 31.22 84.07 30.76 82.59 28.50 C 80.89 25.91 75.76 24.96 74.49 27.01 C 73.47 28.67 55.95 41.44 48.46 45.99 C 44.63 48.32 40.71 50.92 39.75 51.77 C 38.13 53.19 38.00 56.60 38.00 96.03 C 38.00 130.41 38.26 138.97 39.33 139.86 C 40.22 140.59 49.90 141.06 68.08 141.23 C 95.50 141.50 95.50 141.50 95.77 159.75 C 96.05 178.00 96.05 178.00 80.13 178.00 C 64.21 178.00 64.21 178.00 68.55 169.57 C 73.93 159.11 74.92 154.67 72.46 151.96 C 68.66 147.76 64.26 150.17 61.52 157.96 C 59.65 163.24 54.73 171.50 51.21 175.25 C 48.88 177.73 47.96 178.00 41.75 178.00 C 33.35 178.00 31.00 179.08 31.00 182.96 C 31.00 188.99 31.08 189.00 65.07 189.00 C 96.00 189.00 96.00 189.00 96.00 213.45 C 96.00 235.67 96.16 238.00 97.75 238.94 C 100.61 240.65 104.33 239.74 105.71 237.00 Z  M 171.90 236.36 C 174.25 234.71 174.25 234.71 173.83 143.86 C 173.40 53.00 173.40 53.00 192.69 53.00 C 211.97 53.00 211.97 53.00 210.11 57.75 C 209.08 60.36 202.70 76.61 195.92 93.85 C 180.38 133.39 179.86 130.38 202.29 130.78 C 210.93 130.93 218.00 131.22 218.00 131.43 C 218.00 131.64 211.03 145.90 202.50 163.13 C 193.97 180.36 187.00 195.28 187.00 196.29 C 187.00 200.00 188.93 202.00 192.51 202.00 C 194.98 202.00 196.37 201.36 197.43 199.75 C 200.26 195.43 233.00 126.63 232.97 125.07 C 232.95 124.21 232.26 122.60 231.43 121.50 C 230.05 119.68 228.54 119.47 214.36 119.18 C 200.37 118.89 198.85 118.69 199.27 117.18 C 199.53 116.26 205.65 100.76 212.87 82.74 C 220.09 64.73 226.00 48.66 226.00 47.03 C 226.00 45.17 225.31 43.70 224.14 43.08 C 223.06 42.49 210.38 42.03 193.49 41.95 C 167.64 41.84 164.48 42.00 162.69 43.53 C 160.77 45.17 160.72 46.06 161.35 64.78 C 161.71 75.53 162.00 117.79 162.00 158.71 C 162.00 233.09 162.00 233.09 164.45 235.55 C 167.34 238.43 168.72 238.58 171.90 236.36 Z  M 49.00 112.48 C 49.00 94.96 49.00 94.96 72.25 95.23 C 95.50 95.50 95.50 95.50 95.77 112.75 C 96.05 130.00 96.05 130.00 72.52 130.00 C 49.00 130.00 49.00 130.00 49.00 112.48 Z "/>
</g>
</svg>