<?xml version="1.0" encoding="UTF-8" standalone="no"?>
<!DOCTYPE svg PUBLIC "-//W3C//DTD SVG 1.1//EN" "http://www.w3.org/Graphics/SVG/1.1/DTD/svg11.dtd" >
<svg xmlns="http://www.w3.org/2000/svg" xmlns:xlink="http://www.w3.org/1999/xlink" version="1.1" viewBox="0 0 256 256">
 <g >
 <path fill="currentColor"
d=" M 216.44 226.78 C 218.66 223.62 218.38 220.53 215.75 219.17 C 214.51 218.52 210.00 217.11 205.73 216.03 C 201.45 214.95 193.80 211.94 188.73 209.33 C 181.17 205.45 177.74 202.85 169.75 194.90 C 164.39 189.56 160.00 184.65 160.00 183.97 C 160.00 183.30 162.65 179.92 165.88 176.47 C 169.19 172.93 172.54 168.16 173.53 165.57 C 175.22 161.15 175.21 160.89 173.44 158.94 C 170.43 155.61 166.99 156.78 163.35 162.35 C 161.60 165.02 158.92 168.52 157.37 170.13 C 154.57 173.06 154.57 173.06 152.18 168.37 C 146.14 156.47 141.54 140.93 138.48 122.00 C 136.47 109.53 136.25 75.92 138.07 58.25 C 139.91 40.34 144.85 42.00 89.68 42.00 C 55.02 42.00 43.10 42.30 42.20 43.20 C 40.21 45.19 40.77 49.73 43.22 51.44 C 45.15 52.79 50.91 53.00 85.97 53.00 C 126.50 53.00 126.50 53.00 126.51 85.75 C 126.52 121.37 127.36 129.18 133.53 150.53 C 141.48 178.06 155.37 199.60 173.52 212.55 C 181.18 218.02 194.11 224.19 203.52 226.87 C 212.63 229.47 214.57 229.45 216.44 226.78 Z  M 40.31 217.61 C 46.45 204.71 51.05 185.96 54.56 159.50 C 56.75 142.99 56.98 112.68 55.09 88.12 C 53.81 71.58 53.44 69.47 51.41 67.12 C 49.15 64.50 49.15 64.50 45.57 66.41 C 41.36 68.66 41.38 68.42 43.65 85.84 C 45.96 103.51 45.98 140.29 43.69 156.71 C 40.99 176.11 37.15 193.46 32.93 205.42 C 28.41 218.23 28.29 219.29 31.06 222.06 C 34.51 225.51 37.15 224.23 40.31 217.61 Z  M 120.07 213.42 C 121.63 211.53 122.51 201.55 121.56 196.49 C 120.73 192.05 117.32 190.08 113.50 191.82 C 111.27 192.83 111.00 193.56 111.00 198.48 C 111.00 204.00 111.00 204.00 103.00 204.00 C 95.00 204.00 95.00 204.00 95.00 190.50 C 95.00 177.00 95.00 177.00 106.81 177.00 C 115.42 177.00 119.14 176.62 120.56 175.58 C 122.38 174.25 122.52 172.57 122.80 149.25 C 123.18 117.65 124.21 119.64 107.09 119.17 C 95.00 118.83 95.00 118.83 95.00 110.64 C 95.00 101.27 93.52 98.00 89.27 98.00 C 84.23 98.00 83.00 100.37 83.00 110.15 C 83.00 119.00 83.00 119.00 74.72 119.00 C 65.11 119.00 62.00 120.45 62.00 124.93 C 62.00 126.49 62.59 128.24 63.30 128.84 C 64.02 129.43 68.63 130.05 73.55 130.21 C 82.50 130.50 82.50 130.50 82.77 148.25 C 83.05 166.00 83.05 166.00 73.77 166.00 C 66.29 166.01 63.87 166.39 61.25 167.99 C 57.65 170.18 57.16 172.41 59.65 175.17 C 61.07 176.74 62.93 177.00 72.65 177.00 C 84.00 177.00 84.00 177.00 84.00 190.50 C 84.00 204.00 84.00 204.00 73.33 204.00 C 64.80 204.00 62.29 204.33 60.83 205.65 C 58.55 207.71 58.48 210.77 60.65 213.17 C 62.18 214.86 64.46 215.00 90.53 215.00 C 115.07 215.00 118.93 214.79 120.07 213.42 Z  M 225.43 187.43 C 226.29 186.56 227.00 184.99 227.00 183.93 C 227.00 182.01 223.74 178.00 222.18 178.00 C 220.26 178.00 211.57 168.03 208.89 162.75 C 206.23 157.51 205.68 157.00 202.69 157.00 C 196.72 157.00 195.40 161.06 198.97 168.45 C 202.22 175.16 217.38 188.85 221.68 188.95 C 222.88 188.98 224.56 188.29 225.43 187.43 Z  M 228.46 148.04 C 230.84 145.42 229.77 141.24 226.41 139.96 C 225.01 139.43 222.10 139.00 219.93 139.00 C 216.00 139.00 216.00 139.00 216.00 90.65 C 216.00 44.93 215.90 42.22 214.15 40.64 C 212.50 39.15 209.21 39.00 182.93 39.23 C 153.56 39.50 153.56 39.50 152.29 42.00 C 151.32 43.92 151.03 56.31 151.01 95.03 C 151.00 139.16 151.20 145.84 152.56 147.78 C 154.11 150.00 154.11 150.00 190.40 150.00 C 225.17 150.00 226.76 149.92 228.46 148.04 Z  M 105.48 90.95 C 115.26 89.83 119.00 88.13 119.00 84.81 C 119.00 79.33 114.40 78.00 102.50 80.04 C 99.20 80.61 89.17 81.46 80.21 81.94 C 70.13 82.48 63.37 83.28 62.46 84.03 C 60.46 85.70 60.62 89.68 62.75 90.92 C 65.04 92.25 93.93 92.28 105.48 90.95 Z  M 95.00 148.46 C 95.00 129.92 95.00 129.92 103.25 130.21 C 111.50 130.50 111.50 130.50 111.77 148.75 C 112.05 167.00 112.05 167.00 103.52 167.00 C 95.00 167.00 95.00 167.00 95.00 148.46 Z  M 162.21 131.75 C 162.50 124.50 162.50 124.50 178.43 124.22 C 188.10 124.06 194.88 123.52 195.68 122.85 C 197.80 121.09 197.28 116.31 194.78 114.56 C 193.00 113.31 189.48 113.00 177.23 113.00 C 161.90 113.00 161.90 113.00 162.20 106.75 C 162.50 100.50 162.50 100.50 178.43 100.22 C 195.47 99.93 197.31 99.42 196.80 95.11 C 196.30 90.86 193.03 90.03 176.75 90.01 C 162.00 90.00 162.00 90.00 162.00 83.50 C 162.00 77.00 162.00 77.00 177.28 77.00 C 189.49 77.00 193.00 76.69 194.78 75.44 C 197.24 73.72 197.72 69.84 195.68 68.15 C 194.88 67.48 188.10 66.94 178.43 66.78 C 162.50 66.50 162.50 66.50 162.21 58.75 C 161.92 51.00 161.92 51.00 183.46 51.00 C 205.00 51.00 205.00 51.00 205.00 95.00 C 205.00 139.00 205.00 139.00 183.46 139.00 C 161.91 139.00 161.91 139.00 162.21 131.75 Z "/>
</g>
</svg>