<?xml version="1.0" encoding="UTF-8" standalone="no"?>
<!DOCTYPE svg PUBLIC "-//W3C//DTD SVG 1.1//EN" "http://www.w3.org/Graphics/SVG/1.1/DTD/svg11.dtd" >
<svg xmlns="http://www.w3.org/2000/svg" xmlns:xlink="http://www.w3.org/1999/xlink" version="1.1" viewBox="0 0 256 256">
 <g >
 <path fill="currentColor"
d=" M 50.00 160.81 C 50.00 66.62 50.00 66.62 54.94 59.06 C 64.01 45.19 75.74 14.57 72.64 12.87 C 70.19 11.52 52.61 8.00 51.98 8.73 C 51.62 9.15 50.28 13.55 49.01 18.50 C 42.62 43.49 27.68 72.00 8.68 95.50 C 2.01 103.76 1.96 103.94 5.46 108.40 C 6.90 110.25 7.07 110.23 11.16 107.40 C 13.47 105.81 18.10 101.29 21.43 97.37 C 27.50 90.24 27.50 90.24 27.76 172.62 C 28.01 255.00 28.01 255.00 39.01 255.00 C 50.00 255.00 50.00 255.00 50.00 160.81 Z  M 216.22 247.86 C 223.16 243.40 228.75 236.64 233.07 227.50 C 240.10 212.58 240.00 214.13 240.00 118.70 C 240.00 33.31 240.00 33.31 237.67 28.91 C 236.39 26.48 233.43 23.15 231.09 21.50 C 226.83 18.50 226.83 18.50 172.16 18.50 C 117.50 18.50 117.50 18.50 111.63 21.25 C 108.40 22.76 105.59 24.00 105.38 24.00 C 105.17 24.00 105.00 22.65 105.00 21.00 C 105.00 18.00 105.00 18.00 93.57 18.00 C 82.13 18.00 82.13 18.00 81.74 102.25 C 81.40 176.15 81.15 187.67 79.65 196.00 C 76.90 211.30 72.15 227.98 68.44 235.34 C 64.99 242.18 64.99 242.18 67.06 245.09 C 68.20 246.69 69.72 248.00 70.42 248.00 C 74.86 248.00 86.59 234.84 92.26 223.50 C 97.49 213.06 101.91 194.80 103.51 177.00 C 104.81 162.52 102.07 164.00 127.55 164.00 C 150.00 164.00 150.00 164.00 150.00 205.00 C 150.00 246.00 150.00 246.00 160.00 246.00 C 170.00 246.00 170.00 246.00 170.00 205.00 C 170.00 164.00 170.00 164.00 193.59 164.00 C 217.17 164.00 217.17 164.00 216.77 189.75 C 216.40 213.17 216.16 216.13 214.09 222.50 C 211.41 230.75 207.64 237.00 202.05 242.45 C 199.82 244.63 198.00 246.73 198.00 247.13 C 198.00 247.52 199.14 249.20 200.54 250.86 C 203.07 253.87 203.10 253.88 207.25 252.41 C 209.54 251.60 213.58 249.55 216.22 247.86 Z  M 105.00 124.50 C 105.00 94.00 105.00 94.00 127.50 94.00 C 150.00 94.00 150.00 94.00 150.00 124.50 C 150.00 155.00 150.00 155.00 127.50 155.00 C 105.00 155.00 105.00 155.00 105.00 124.50 Z  M 170.24 124.75 C 170.50 94.50 170.50 94.50 193.75 94.23 C 217.00 93.96 217.00 93.96 217.00 124.48 C 217.00 155.00 217.00 155.00 193.49 155.00 C 169.97 155.00 169.97 155.00 170.24 124.75 Z  M 105.00 61.05 C 105.00 35.11 105.00 35.11 112.69 31.30 C 120.38 27.50 120.38 27.50 135.19 27.18 C 150.00 26.86 150.00 26.86 150.00 56.93 C 150.00 87.00 150.00 87.00 127.50 87.00 C 105.00 87.00 105.00 87.00 105.00 61.05 Z  M 170.67 86.33 C 170.30 85.97 170.00 72.47 170.00 56.33 C 170.00 27.00 170.00 27.00 191.50 27.00 C 211.67 27.00 213.12 27.12 215.00 29.00 C 216.90 30.90 217.00 32.33 217.00 59.00 C 217.00 87.00 217.00 87.00 194.17 87.00 C 181.61 87.00 171.03 86.70 170.67 86.33 Z "/>
</g>
</svg>