<?xml version="1.0" encoding="UTF-8" standalone="no"?>
<!DOCTYPE svg PUBLIC "-//W3C//DTD SVG 1.1//EN" "http://www.w3.org/Graphics/SVG/1.1/DTD/svg11.dtd" >
<svg xmlns="http://www.w3.org/2000/svg" xmlns:xlink="http://www.w3.org/1999/xlink" version="1.1" viewBox="0 0 256 256">
 <g >
 <path fill="currentColor"
d=" M 233.95 244.80 C 238.13 237.09 238.13 237.09 232.81 235.56 C 224.05 233.03 206.56 229.31 188.00 226.03 C 178.38 224.33 169.41 222.70 168.09 222.41 C 165.92 221.93 166.26 221.53 171.59 218.32 C 182.85 211.55 194.72 200.93 202.41 190.75 C 205.24 187.00 205.24 187.00 223.62 187.00 C 242.00 187.00 242.00 187.00 242.00 182.50 C 242.00 178.00 242.00 178.00 168.49 178.00 C 94.98 178.00 94.98 178.00 99.50 172.25 C 101.99 169.09 105.45 165.03 107.19 163.22 C 109.01 161.33 109.96 159.60 109.42 159.14 C 108.23 158.09 89.15 151.00 87.53 151.00 C 86.84 151.00 82.36 157.07 77.55 164.50 C 68.83 178.00 68.83 178.00 38.91 178.00 C 9.00 178.00 9.00 178.00 9.00 182.50 C 9.00 187.00 9.00 187.00 35.50 187.00 C 50.08 187.00 61.99 187.34 61.99 187.75 C 61.98 188.16 60.17 190.75 57.98 193.50 C 55.78 196.25 51.30 201.98 48.02 206.24 C 42.45 213.47 42.21 214.01 44.28 214.44 C 45.50 214.70 60.45 217.65 77.50 221.01 C 94.55 224.36 108.86 227.46 109.30 227.91 C 110.17 228.77 92.89 234.06 81.50 236.42 C 59.36 241.00 33.96 243.99 17.18 244.00 C 10.37 244.00 10.71 243.58 12.49 249.75 C 13.10 251.90 13.61 252.00 23.32 251.98 C 39.06 251.95 67.76 250.16 80.23 248.43 C 95.27 246.35 106.46 243.83 124.64 238.42 C 139.78 233.92 139.78 233.92 184.14 243.81 C 208.54 249.25 228.78 253.43 229.13 253.10 C 229.48 252.77 231.65 249.03 233.95 244.80 Z  M 239.50 162.84 C 248.03 149.75 248.91 151.69 233.06 148.65 C 216.46 145.47 200.75 141.01 179.30 133.38 C 162.47 127.40 143.34 119.36 142.43 117.89 C 142.11 117.37 163.22 117.00 192.44 117.00 C 243.00 117.00 243.00 117.00 243.00 113.00 C 243.00 109.00 243.00 109.00 204.50 109.00 C 166.01 109.00 166.01 109.00 176.75 103.40 C 187.95 97.56 197.88 90.96 201.79 86.76 C 204.07 84.30 204.07 84.30 196.79 78.84 C 192.78 75.84 189.00 73.08 188.38 72.71 C 187.74 72.33 182.42 76.96 175.88 83.61 C 169.62 89.97 160.61 98.28 155.86 102.09 C 147.48 108.79 147.05 109.00 141.61 109.00 C 136.00 109.00 136.00 109.00 136.00 89.00 C 136.00 69.00 136.00 69.00 126.00 69.00 C 116.00 69.00 116.00 69.00 116.00 89.00 C 116.00 109.00 116.00 109.00 102.80 109.00 C 89.59 109.00 89.59 109.00 93.30 105.21 C 95.33 103.12 97.00 101.09 97.00 100.69 C 97.00 99.32 83.50 91.23 69.86 84.44 C 56.23 77.65 56.23 77.65 71.39 72.57 C 84.99 68.02 98.84 61.37 106.15 55.88 C 108.31 54.26 108.31 54.26 103.59 48.11 C 100.90 44.62 98.39 42.26 97.77 42.64 C 97.18 43.01 93.31 45.73 89.19 48.69 C 79.95 55.32 60.64 65.07 44.00 71.50 C 37.12 74.16 31.37 76.42 31.22 76.53 C 31.07 76.64 31.41 77.95 31.98 79.45 C 32.93 81.95 33.33 82.12 36.89 81.52 C 40.59 80.89 41.29 81.27 53.13 90.14 C 80.70 110.82 81.67 109.00 43.05 109.00 C 9.00 109.00 9.00 109.00 9.00 113.00 C 9.00 117.00 9.00 117.00 48.17 117.00 C 87.35 117.00 87.35 117.00 84.92 119.61 C 75.54 129.71 43.82 145.30 14.66 154.16 C 3.82 157.46 3.82 157.46 4.45 161.44 C 4.80 163.63 5.26 165.59 5.47 165.80 C 5.68 166.01 10.86 165.22 17.00 164.04 C 52.09 157.33 89.32 141.82 111.14 124.84 C 113.15 123.28 115.06 122.00 115.39 122.00 C 115.73 122.00 116.00 130.10 116.00 140.00 C 116.00 158.00 116.00 158.00 126.00 158.00 C 136.00 158.00 136.00 158.00 136.00 142.89 C 136.00 130.76 136.26 127.89 137.32 128.29 C 138.05 128.57 143.57 132.05 149.57 136.01 C 169.07 148.88 190.78 158.04 219.50 165.53 C 226.65 167.40 233.18 168.94 234.00 168.95 C 234.82 168.97 237.30 166.22 239.50 162.84 Z  M 214.81 73.87 C 217.18 69.42 218.91 65.58 218.66 65.33 C 218.41 65.08 212.86 62.71 206.33 60.05 C 192.29 54.35 177.32 49.93 159.67 46.28 C 148.71 44.01 146.72 43.84 145.94 45.06 C 144.48 47.37 144.86 50.01 146.75 50.68 C 152.49 52.72 185.45 68.82 196.00 74.75 C 202.88 78.62 208.95 81.82 209.50 81.87 C 210.05 81.92 212.44 78.32 214.81 73.87 Z  M 32.78 62.43 C 33.06 50.36 33.06 50.36 40.78 45.75 C 54.42 37.60 49.37 38.00 138.49 38.00 C 205.18 38.00 217.92 38.22 219.56 39.42 C 221.31 40.69 221.55 42.49 222.00 57.67 C 222.50 74.50 222.50 74.50 232.84 74.79 C 243.18 75.07 243.18 75.07 242.84 59.12 C 242.50 43.24 242.49 43.15 239.50 38.91 C 237.85 36.57 234.52 33.61 232.09 32.33 C 227.69 30.00 227.69 30.00 186.34 30.00 C 163.60 30.00 145.00 29.74 145.00 29.43 C 145.00 29.12 146.24 27.25 147.75 25.27 C 149.72 22.68 150.12 21.54 149.18 21.23 C 148.46 20.99 142.83 18.32 136.68 15.30 C 120.91 7.55 107.08 1.75 105.69 2.31 C 105.03 2.57 103.72 4.11 102.78 5.75 C 101.05 8.72 101.05 8.72 111.83 17.86 C 117.76 22.88 123.49 27.66 124.56 28.47 C 126.28 29.77 122.45 29.94 90.91 29.97 C 51.61 30.00 50.77 30.11 40.12 36.35 C 36.70 38.36 33.69 40.00 33.45 40.00 C 33.20 40.00 33.00 37.75 33.00 35.00 C 33.00 30.00 33.00 30.00 22.50 30.00 C 12.00 30.00 12.00 30.00 12.00 52.53 C 12.00 75.07 12.00 75.07 22.25 74.78 C 32.50 74.50 32.50 74.50 32.78 62.43 Z  M 122.50 216.38 C 117.00 215.63 102.20 213.89 89.62 212.54 C 77.04 211.18 66.61 209.94 66.45 209.78 C 66.28 209.62 71.11 204.42 77.17 198.23 C 88.19 186.98 88.19 186.98 131.83 187.24 C 175.47 187.50 175.47 187.50 168.99 194.07 C 165.42 197.68 159.80 202.62 156.50 205.05 C 148.76 210.74 135.98 218.03 134.02 217.88 C 133.19 217.82 128.00 217.14 122.50 216.38 Z "/>
</g>
</svg>