<?xml version="1.0" encoding="UTF-8" standalone="no"?>
<!DOCTYPE svg PUBLIC "-//W3C//DTD SVG 1.1//EN" "http://www.w3.org/Graphics/SVG/1.1/DTD/svg11.dtd" >
<svg xmlns="http://www.w3.org/2000/svg" xmlns:xlink="http://www.w3.org/1999/xlink" version="1.1" viewBox="0 0 256 256">
 <g >
 <path fill="currentColor"
d=" M 20.40 248.17 C 26.19 238.64 33.17 221.33 36.49 208.26 C 39.95 194.68 40.23 196.15 33.86 194.39 C 32.62 194.05 30.80 196.60 26.49 204.72 C 18.36 220.03 11.34 231.51 6.39 237.59 C 2.11 242.84 2.11 242.84 9.30 248.36 C 13.26 251.39 16.58 253.90 16.68 253.94 C 16.78 253.97 18.45 251.38 20.40 248.17 Z  M 231.50 242.35 C 236.14 239.85 239.01 236.92 241.63 232.00 C 243.35 228.77 243.52 225.23 243.81 186.50 C 244.03 157.55 243.78 143.32 243.00 140.69 C 242.39 138.59 240.28 135.11 238.33 132.94 C 233.36 127.44 227.85 126.00 211.82 126.00 C 199.00 126.00 199.00 126.00 199.00 95.00 C 199.00 64.00 199.00 64.00 222.00 64.00 C 245.00 64.00 245.00 64.00 245.00 60.00 C 245.00 56.00 245.00 56.00 222.00 56.00 C 199.00 56.00 199.00 56.00 199.00 33.00 C 199.00 10.00 199.00 10.00 188.00 10.00 C 177.00 10.00 177.00 10.00 177.00 68.38 C 177.00 126.75 177.00 126.75 173.87 127.38 C 172.14 127.72 168.54 129.58 165.86 131.50 C 163.19 133.43 160.77 135.00 160.50 135.00 C 160.22 135.00 160.00 132.96 160.00 130.47 C 160.00 125.93 160.00 125.93 149.25 126.22 C 138.50 126.50 138.50 126.50 138.24 184.50 C 138.10 216.40 138.20 243.08 138.48 243.80 C 138.88 244.84 147.66 245.04 183.24 244.80 C 226.35 244.51 227.60 244.44 231.50 242.35 Z  M 48.56 232.75 C 51.12 224.94 55.73 216.21 57.92 215.04 C 60.97 213.41 62.77 214.74 68.02 222.52 C 75.34 233.38 79.73 236.16 83.31 232.21 C 84.20 231.23 86.59 225.94 88.63 220.46 C 92.61 209.76 94.33 207.00 97.02 207.00 C 101.83 207.00 109.68 217.54 113.58 229.23 C 115.00 233.50 116.57 237.00 117.06 237.00 C 118.52 237.00 131.94 228.57 131.97 227.63 C 132.04 225.66 122.72 213.03 117.69 208.27 C 111.67 202.58 106.25 200.50 100.24 201.59 C 93.13 202.88 88.65 206.49 82.10 216.24 C 76.59 224.44 71.93 223.77 64.93 213.79 C 62.65 210.53 59.68 207.45 58.34 206.94 C 53.11 204.95 44.79 211.31 38.14 222.36 C 34.79 227.95 34.79 227.95 38.11 230.72 C 39.93 232.25 42.57 234.50 43.96 235.72 C 45.36 236.94 46.58 237.95 46.67 237.97 C 46.76 237.99 47.61 235.64 48.56 232.75 Z  M 54.64 186.52 C 81.54 183.00 127.26 174.01 128.51 171.99 C 128.80 171.52 128.27 169.54 127.34 167.59 C 126.04 164.85 125.18 164.15 123.58 164.52 C 117.82 165.81 86.06 169.97 81.75 169.99 C 80.16 170.00 80.00 168.65 80.00 155.50 C 80.00 141.00 80.00 141.00 103.56 141.00 C 127.12 141.00 127.12 141.00 126.81 137.25 C 126.50 133.50 126.50 133.50 103.25 133.23 C 80.00 132.96 80.00 132.96 80.00 117.98 C 80.00 103.00 80.00 103.00 92.46 103.00 C 102.49 103.00 105.97 102.61 110.29 100.99 C 117.54 98.28 123.32 93.10 126.62 86.34 C 129.30 80.86 129.38 80.23 129.80 59.12 C 130.47 26.27 128.76 19.78 117.94 14.22 C 113.52 11.94 113.32 11.93 76.96 12.22 C 40.41 12.50 40.41 12.50 35.21 15.20 C 30.00 17.90 30.00 17.90 30.00 14.95 C 30.00 12.00 30.00 12.00 19.50 12.00 C 9.00 12.00 9.00 12.00 9.00 57.48 C 9.00 102.97 9.00 102.97 33.75 103.23 C 58.50 103.50 58.50 103.50 58.78 118.25 C 59.05 133.00 59.05 133.00 35.53 133.00 C 12.00 133.00 12.00 133.00 12.00 137.00 C 12.00 141.00 12.00 141.00 35.50 141.00 C 59.00 141.00 59.00 141.00 59.00 156.38 C 59.00 171.77 59.00 171.77 56.25 172.37 C 54.74 172.71 42.35 173.28 28.73 173.65 C 6.75 174.24 4.02 174.49 4.42 175.91 C 4.67 176.78 5.38 179.53 6.00 182.00 C 8.29 191.22 6.53 190.38 22.01 189.64 C 29.59 189.28 44.27 187.87 54.64 186.52 Z  M 160.00 191.23 C 160.00 146.46 160.00 146.46 163.16 142.62 C 168.95 135.60 172.65 134.65 196.01 134.22 C 215.80 133.85 216.61 133.91 219.26 135.99 C 222.00 138.15 222.00 138.15 222.00 183.03 C 222.00 214.46 221.66 228.65 220.86 230.40 C 218.53 235.51 215.55 236.00 186.60 236.00 C 160.00 236.00 160.00 236.00 160.00 191.23 Z  M 30.04 70.25 C 30.08 45.50 30.08 45.50 32.59 51.50 C 33.96 54.80 37.39 64.25 40.21 72.50 C 43.03 80.75 45.50 87.71 45.71 87.96 C 45.91 88.21 48.71 86.97 51.92 85.21 C 55.13 83.44 58.03 82.00 58.38 82.00 C 58.72 82.00 59.00 84.92 59.00 88.50 C 59.00 95.00 59.00 95.00 44.50 95.00 C 30.00 95.00 30.00 95.00 30.04 70.25 Z  M 80.00 90.12 C 80.00 85.37 80.17 85.09 86.46 79.58 C 92.07 74.65 98.50 67.35 106.78 56.49 C 109.06 53.50 109.06 53.50 108.76 70.50 C 108.43 88.78 108.03 90.37 102.93 93.38 C 100.89 94.58 97.60 95.00 90.10 95.00 C 80.00 95.00 80.00 95.00 80.00 90.12 Z  M 57.51 71.04 C 56.63 68.25 39.65 42.86 37.21 40.67 C 35.60 39.23 34.74 39.07 33.15 39.92 C 30.11 41.55 30.00 41.41 30.00 35.70 C 30.00 30.90 30.35 30.07 33.75 26.75 C 38.89 21.74 43.59 20.00 51.97 20.00 C 59.00 20.00 59.00 20.00 59.00 46.50 C 59.00 61.08 58.81 73.00 58.57 73.00 C 58.33 73.00 57.86 72.12 57.51 71.04 Z  M 80.08 44.75 C 80.00 20.00 80.00 20.00 92.88 20.00 C 103.59 20.00 105.98 20.28 107.12 21.64 C 108.65 23.48 109.81 45.00 108.38 45.00 C 107.92 45.00 104.86 43.34 101.58 41.32 C 98.30 39.30 95.47 38.06 95.29 38.57 C 95.11 39.08 91.63 46.25 87.57 54.50 C 80.17 69.50 80.17 69.50 80.08 44.75 Z "/>
</g>
</svg>