<?xml version="1.0" encoding="UTF-8" standalone="no"?>
<!DOCTYPE svg PUBLIC "-//W3C//DTD SVG 1.1//EN" "http://www.w3.org/Graphics/SVG/1.1/DTD/svg11.dtd" >
<svg xmlns="http://www.w3.org/2000/svg" xmlns:xlink="http://www.w3.org/1999/xlink" version="1.1" viewBox="0 0 256 256">
 <g >
 <path fill="currentColor"
d=" M 84.50 233.42 C 93.30 231.42 103.22 228.76 106.54 227.52 C 131.08 218.31 147.44 203.05 154.84 182.49 C 156.42 178.10 159.65 167.27 162.02 158.43 C 166.08 143.28 166.52 142.23 169.66 140.17 C 171.50 138.97 173.00 137.40 173.00 136.69 C 173.00 135.58 154.56 127.00 152.17 127.00 C 151.69 127.00 151.03 131.84 150.68 137.75 C 148.95 167.72 139.99 191.23 125.12 204.80 C 119.70 209.75 111.38 215.28 103.12 219.44 C 94.93 223.56 74.89 230.53 68.16 231.60 C 63.76 232.29 62.32 233.78 63.37 236.52 C 63.75 237.51 64.77 237.87 66.23 237.55 C 67.48 237.28 75.70 235.42 84.50 233.42 Z  M 221.23 229.57 C 231.91 227.26 234.83 225.46 237.46 219.59 C 239.74 214.50 239.74 214.50 237.42 212.00 C 236.15 210.62 234.42 207.85 233.57 205.83 C 231.69 201.33 229.00 186.33 229.00 180.37 C 229.00 177.15 228.60 176.00 227.50 176.00 C 226.68 176.00 226.00 176.34 225.99 176.75 C 225.90 183.03 222.68 205.77 221.43 208.87 C 218.25 216.84 211.30 220.00 197.00 220.00 C 187.52 220.00 180.34 218.33 178.50 215.69 C 177.30 213.98 177.00 209.86 177.00 194.97 C 177.00 176.39 177.00 176.39 180.50 173.00 C 182.43 171.13 184.00 169.12 184.00 168.53 C 184.00 167.55 166.93 160.95 164.50 160.98 C 163.84 160.99 163.67 171.95 164.00 192.85 C 164.53 226.44 164.55 226.62 169.29 229.15 C 170.36 229.73 173.33 230.59 175.87 231.06 C 182.55 232.29 213.32 231.28 221.23 229.57 Z  M 47.00 201.70 C 53.88 198.07 68.68 190.81 79.90 185.57 C 91.12 180.33 100.50 175.84 100.74 175.59 C 100.98 175.35 100.89 174.24 100.54 173.13 C 99.90 171.11 99.90 171.11 95.28 173.10 C 85.60 177.24 44.04 188.83 18.69 194.45 C 15.54 195.14 15.22 194.30 23.73 207.75 C 27.06 212.99 27.06 212.99 30.78 210.65 C 32.82 209.36 40.12 205.33 47.00 201.70 Z  M 120.75 181.42 C 124.00 180.10 124.00 180.10 124.00 149.05 C 124.00 118.00 124.00 118.00 161.59 118.00 C 199.19 118.00 199.19 118.00 198.84 150.49 C 198.45 187.58 197.32 184.07 208.14 179.31 C 213.78 176.83 213.78 176.83 213.26 149.66 C 212.74 122.50 212.74 122.50 216.87 119.20 C 219.14 117.39 221.00 115.56 221.00 115.13 C 221.00 114.21 205.53 102.99 204.32 103.03 C 203.87 103.05 201.98 105.07 200.13 107.53 C 196.77 112.00 196.77 112.00 161.32 112.00 C 125.87 112.00 125.87 112.00 118.29 108.50 C 114.13 106.58 110.67 105.00 110.61 105.00 C 110.55 105.00 110.49 122.78 110.47 144.50 C 110.45 184.01 110.45 184.01 113.97 183.38 C 115.91 183.03 118.96 182.15 120.75 181.42 Z  M 40.00 158.30 C 47.73 154.63 67.29 148.38 86.00 143.60 C 97.15 140.75 99.50 139.83 99.50 138.33 C 99.50 137.32 99.05 136.57 98.50 136.67 C 91.48 137.83 63.11 141.06 55.20 141.59 C 44.90 142.29 44.90 142.29 58.84 120.90 C 66.51 109.13 76.73 92.53 81.56 84.00 C 93.33 63.21 94.77 61.00 96.58 61.00 C 99.36 61.00 101.96 59.05 101.33 57.42 C 100.78 55.98 83.08 43.44 82.62 44.17 C 82.51 44.35 81.37 47.88 80.10 52.00 C 76.84 62.52 68.00 84.76 66.64 85.86 C 66.01 86.37 58.18 87.11 49.24 87.50 C 32.97 88.23 32.97 88.23 38.92 78.22 C 46.08 66.15 60.32 40.29 65.80 29.40 C 69.02 22.99 70.55 21.06 73.90 19.18 C 76.17 17.90 77.74 16.38 77.38 15.81 C 76.40 14.21 56.61 4.97 55.93 5.79 C 55.60 6.18 54.58 10.10 53.67 14.50 C 49.67 33.75 38.95 64.44 32.13 76.16 C 28.98 81.58 23.67 86.85 18.38 89.81 C 17.07 90.54 17.32 91.65 20.17 97.58 C 21.99 101.39 23.56 104.65 23.65 104.83 C 23.74 105.01 28.22 103.50 33.59 101.49 C 44.70 97.33 62.72 92.39 63.60 93.26 C 64.35 94.02 53.63 112.74 45.26 125.29 C 38.39 135.58 33.31 140.69 26.95 143.69 C 23.12 145.50 23.12 145.50 27.81 153.72 C 30.39 158.24 32.73 161.81 33.00 161.67 C 33.27 161.52 36.42 160.00 40.00 158.30 Z  M 146.04 102.75 C 150.50 100.50 150.50 100.50 151.00 91.36 C 151.50 82.21 151.50 82.21 156.53 76.86 C 162.23 70.79 168.90 62.20 174.49 53.75 C 178.28 48.00 178.28 48.00 209.58 48.00 C 231.35 48.00 241.09 47.66 241.56 46.90 C 242.17 45.92 226.37 28.89 225.02 29.07 C 224.73 29.10 222.11 32.03 219.19 35.57 C 213.88 42.00 213.88 42.00 197.94 42.00 C 189.17 42.00 182.00 41.84 182.00 41.65 C 182.00 41.46 184.66 35.72 187.92 28.90 C 192.62 19.06 194.49 16.14 196.99 14.76 C 198.71 13.80 199.87 12.61 199.56 12.10 C 199.10 11.36 180.58 2.00 179.57 2.00 C 179.41 2.00 178.98 4.59 178.61 7.75 C 176.38 27.10 162.80 62.40 153.11 74.05 C 151.07 76.50 151.07 76.50 151.03 48.30 C 151.00 20.10 151.00 20.10 155.55 16.96 C 158.06 15.24 159.94 13.30 159.73 12.66 C 159.46 11.83 140.78 4.31 138.27 4.03 C 138.14 4.01 137.92 26.73 137.77 54.50 C 137.50 104.74 137.51 105.00 139.54 105.00 C 140.66 105.00 143.58 103.99 146.04 102.75 Z  M 114.97 99.02 C 116.95 97.96 117.00 97.07 117.00 63.65 C 117.00 29.37 117.00 29.37 121.00 27.12 C 125.47 24.61 126.06 22.64 122.86 20.92 C 121.34 20.11 104.31 14.00 103.56 14.00 C 103.53 14.00 103.50 33.62 103.50 57.61 C 103.50 101.22 103.50 101.22 108.22 100.66 C 110.82 100.35 113.86 99.61 114.97 99.02 Z  M 212.76 93.75 C 217.60 88.58 218.37 80.78 214.49 76.17 C 210.45 71.37 182.46 58.20 180.49 60.18 C 180.15 60.52 184.55 65.46 190.27 71.15 C 197.90 78.75 201.42 83.09 203.51 87.50 C 208.03 97.04 209.04 97.72 212.76 93.75 Z "/>
</g>
</svg>