<?xml version="1.0" encoding="UTF-8" standalone="no"?>
<!DOCTYPE svg PUBLIC "-//W3C//DTD SVG 1.1//EN" "http://www.w3.org/Graphics/SVG/1.1/DTD/svg11.dtd" >
<svg xmlns="http://www.w3.org/2000/svg" xmlns:xlink="http://www.w3.org/1999/xlink" version="1.1" viewBox="0 0 256 256">
 <g >
 <path fill="currentColor"
d=" M 140.21 236.52 C 151.32 234.85 154.79 233.58 163.90 227.82 C 170.44 223.69 170.44 223.69 176.03 224.85 C 188.36 227.39 189.58 226.75 208.57 207.65 C 224.46 191.67 230.28 184.40 233.07 177.05 C 235.75 170.00 235.52 165.30 232.13 158.60 C 229.27 152.92 229.27 152.92 233.61 148.09 C 245.94 134.37 248.18 116.49 239.74 99.13 C 237.30 94.11 234.02 90.01 226.21 82.22 C 219.20 75.23 215.44 70.67 214.49 67.99 C 212.84 63.29 200.39 48.67 191.68 41.19 C 182.71 33.47 172.09 27.15 163.24 24.24 C 156.55 22.04 153.26 21.64 139.00 21.27 C 129.93 21.03 119.80 21.27 116.50 21.81 C 111.44 22.62 109.76 22.48 105.71 20.89 C 93.96 16.26 77.09 20.36 61.12 31.72 C 53.16 37.39 34.61 55.65 30.17 62.20 C 28.41 64.78 26.13 69.61 25.10 72.93 C 23.83 76.99 21.78 80.56 18.80 83.88 C 14.70 88.43 12.00 94.25 12.00 98.50 C 12.00 99.47 12.89 101.70 13.98 103.46 C 15.95 106.66 15.95 106.66 12.48 110.02 C 9.48 112.92 9.00 114.04 9.00 118.07 C 9.00 120.65 9.67 124.37 10.50 126.34 C 11.88 129.64 11.84 130.34 10.00 135.00 C 7.21 142.08 7.46 146.08 11.09 152.51 C 14.08 157.81 14.14 158.16 12.92 162.94 C 11.90 166.92 11.90 168.73 12.90 172.19 C 15.43 180.88 21.58 189.43 33.24 200.50 C 46.29 212.90 55.01 219.44 62.04 222.11 C 68.35 224.51 70.13 224.48 75.13 221.93 C 78.88 220.02 79.27 219.99 80.40 221.54 C 81.56 223.12 89.99 227.87 101.86 233.64 C 110.86 238.02 123.84 238.99 140.21 236.52 Z  M 107.12 220.55 C 97.49 218.72 88.24 214.08 81.42 207.67 C 76.86 203.38 75.49 201.26 73.42 195.24 C 72.05 191.24 70.66 185.11 70.33 181.61 C 69.82 176.12 70.06 174.67 72.08 171.07 C 76.11 163.90 84.32 160.66 92.75 162.93 C 98.84 164.57 102.66 168.34 106.57 176.58 C 110.12 184.05 112.05 185.99 119.94 189.99 C 123.96 192.02 125.45 192.19 135.44 191.79 C 149.86 191.21 152.89 189.73 159.29 180.10 C 164.74 171.92 167.06 170.82 173.13 173.56 C 179.16 176.28 181.00 179.21 181.00 186.10 C 181.00 207.57 161.57 220.44 127.50 221.54 C 118.82 221.82 112.05 221.49 107.12 220.55 Z  M 184.78 208.94 C 183.83 208.38 182.60 206.22 182.03 204.12 C 181.20 201.01 181.39 199.14 183.09 193.97 C 185.33 187.13 185.29 180.84 182.96 175.33 C 181.68 172.31 181.79 171.97 185.27 167.72 C 187.27 165.27 190.46 162.53 192.36 161.63 C 198.81 158.58 210.96 160.20 215.17 164.68 C 217.20 166.84 217.50 168.17 217.49 174.83 C 217.47 181.62 217.05 183.36 213.80 190.00 C 209.39 199.02 203.41 205.12 196.21 207.93 C 190.41 210.20 187.40 210.47 184.78 208.94 Z  M 49.28 205.45 C 42.95 202.30 33.95 193.78 31.15 188.29 C 29.99 186.03 28.52 180.96 27.87 177.03 C 26.77 170.41 26.83 169.70 28.70 167.20 C 31.54 163.39 36.02 161.02 41.67 160.35 C 51.96 159.13 57.92 164.81 63.00 180.66 C 66.95 192.97 67.07 200.57 63.41 204.92 C 60.14 208.81 56.30 208.95 49.28 205.45 Z  M 124.92 187.12 C 116.82 185.42 110.01 178.73 110.00 172.49 C 110.00 168.20 115.99 159.73 120.68 157.40 C 123.66 155.92 126.69 155.50 134.50 155.50 C 143.45 155.50 145.10 155.80 150.27 158.33 C 156.86 161.57 159.01 164.74 158.98 171.20 C 158.96 176.70 155.57 182.77 151.02 185.42 C 148.29 187.01 145.52 187.49 138.02 187.66 C 132.79 187.78 126.89 187.54 124.92 187.12 Z  M 151.50 154.99 C 136.86 148.70 131.93 148.73 118.31 155.16 C 111.74 158.27 111.74 158.27 97.62 157.59 C 50.10 155.32 33.98 152.83 27.97 146.82 C 25.42 144.26 25.23 143.64 26.17 140.93 C 28.29 134.87 29.97 134.49 54.96 134.56 C 67.36 134.59 87.62 135.15 100.00 135.81 C 124.36 137.11 143.40 136.29 152.54 133.56 C 159.00 131.62 163.51 127.16 162.61 123.58 C 160.38 114.68 142.81 114.25 81.50 121.59 C 65.55 123.50 48.55 125.09 43.72 125.13 C 33.80 125.19 31.10 124.07 29.01 119.03 C 27.81 116.13 27.93 115.66 30.70 112.21 C 33.18 109.12 34.85 108.20 40.59 106.75 C 48.96 104.62 73.49 103.18 118.00 102.19 C 149.91 101.49 150.59 101.43 155.50 98.99 C 161.37 96.07 162.42 93.14 158.94 89.43 C 153.28 83.42 148.50 83.59 87.11 92.11 C 59.93 95.88 41.35 98.01 37.79 97.77 C 28.91 97.16 26.13 93.52 29.52 86.96 C 32.13 81.91 40.58 78.64 55.30 76.97 C 60.71 76.35 67.63 74.51 75.51 71.60 C 91.71 65.62 97.01 64.83 120.96 64.86 C 154.42 64.89 175.48 68.66 194.83 78.08 C 218.09 89.41 231.04 110.14 225.48 127.15 C 220.64 141.94 215.12 147.83 201.60 152.66 C 197.56 154.10 166.62 159.07 162.57 158.93 C 161.43 158.89 156.45 157.11 151.50 154.99 Z  M 187.50 72.25 C 181.66 69.79 158.55 63.89 148.50 62.29 C 144.31 61.63 143.45 61.12 143.17 59.17 C 142.93 57.47 141.43 56.18 137.67 54.43 C 131.72 51.66 122.89 51.25 109.10 53.11 C 104.58 53.71 100.65 53.99 100.38 53.71 C 100.11 53.44 100.61 51.48 101.51 49.36 C 102.59 46.78 102.93 44.14 102.52 41.38 C 101.92 37.26 101.92 37.26 111.21 35.38 C 117.81 34.05 124.70 33.50 135.00 33.52 C 147.82 33.53 150.66 33.86 159.50 36.34 C 177.88 41.51 189.76 48.83 196.17 58.93 C 199.11 63.57 199.72 67.98 198.02 72.43 C 196.83 75.57 195.32 75.54 187.50 72.25 Z  M 43.83 71.30 C 42.00 69.82 40.32 68.47 40.10 68.32 C 39.88 68.17 41.11 65.18 42.83 61.68 C 47.06 53.10 56.34 43.14 63.27 39.75 C 69.15 36.86 84.74 33.00 90.49 33.00 C 99.07 33.00 101.68 44.00 95.88 55.70 C 92.83 61.86 86.06 65.59 69.06 70.48 C 53.89 74.85 48.42 75.03 43.83 71.30 Z "/>
</g>
</svg>