<?xml version="1.0" encoding="UTF-8" standalone="no"?>
<!DOCTYPE svg PUBLIC "-//W3C//DTD SVG 1.1//EN" "http://www.w3.org/Graphics/SVG/1.1/DTD/svg11.dtd" >
<svg xmlns="http://www.w3.org/2000/svg" xmlns:xlink="http://www.w3.org/1999/xlink" version="1.1" viewBox="0 0 256 256">
 <g >
 <path fill="currentColor"
d=" M 140.50 234.27 C 142.70 233.12 146.24 229.89 148.36 227.09 C 151.64 222.76 152.71 222.00 155.55 222.00 C 157.38 222.00 159.17 221.54 159.52 220.97 C 159.88 220.39 162.29 221.87 165.15 224.44 C 171.31 229.98 175.18 230.90 181.15 228.25 C 191.71 223.55 216.61 201.44 226.45 188.00 C 236.86 173.80 241.54 160.75 240.78 148.03 C 240.28 139.50 238.91 136.28 232.02 127.46 C 227.30 121.42 227.30 121.42 230.66 117.53 C 234.41 113.19 236.47 107.07 235.52 103.12 C 235.17 101.68 233.34 98.16 231.46 95.29 C 228.86 91.33 228.34 89.89 229.33 89.29 C 231.75 87.81 234.00 83.56 233.98 80.53 C 233.92 72.38 225.60 62.33 207.87 48.99 C 178.17 26.62 161.75 20.56 127.50 19.29 C 103.01 18.39 86.97 21.43 68.50 30.48 C 49.11 39.98 24.10 60.96 18.49 72.44 C 15.98 77.55 15.91 78.10 17.17 82.55 C 18.18 86.14 19.26 87.67 21.70 88.98 C 23.58 89.99 24.54 91.07 24.02 91.60 C 23.53 92.09 21.53 95.17 19.57 98.44 C 14.43 107.00 14.68 110.09 21.00 116.18 C 23.74 118.83 25.55 121.00 25.00 121.00 C 22.90 121.00 17.92 129.62 15.27 137.87 C 13.04 144.83 12.50 148.35 12.50 156.08 C 12.50 165.32 12.65 165.94 16.70 174.08 C 25.57 191.86 48.21 218.13 59.26 223.46 C 64.14 225.82 65.94 226.17 71.14 225.80 C 78.05 225.30 79.40 224.17 80.37 218.12 C 80.98 214.28 80.98 214.28 89.48 216.41 C 97.99 218.55 97.99 218.55 103.56 226.28 C 111.08 236.70 111.99 237.13 125.50 236.70 C 134.22 236.42 137.33 235.92 140.50 234.27 Z  M 116.35 220.91 C 112.29 219.73 107.24 213.96 106.60 209.77 C 106.33 207.97 105.88 201.89 105.59 196.25 C 105.08 186.00 105.08 186.00 125.54 186.00 C 146.00 186.00 146.00 186.00 146.00 190.68 C 146.00 197.43 142.24 210.37 138.97 214.88 C 134.63 220.87 125.04 223.43 116.35 220.91 Z  M 175.75 214.92 C 174.79 214.36 173.29 212.52 172.42 210.84 C 170.83 207.78 170.83 207.78 175.79 203.14 C 178.91 200.21 181.20 197.02 181.98 194.50 C 182.67 192.30 184.86 188.09 186.85 185.15 C 190.03 180.44 190.52 178.92 190.84 172.51 C 191.74 154.69 182.60 142.98 164.08 138.23 C 151.68 135.04 86.32 135.67 75.43 139.08 C 67.96 141.41 62.46 151.07 61.41 163.67 C 60.79 171.03 60.96 172.24 63.33 177.41 C 65.93 183.09 65.93 183.09 63.77 187.54 C 61.60 192.00 61.60 192.00 63.80 196.53 C 66.40 201.88 66.56 204.75 64.44 207.78 C 62.61 210.40 58.29 210.72 54.10 208.55 C 48.40 205.60 41.29 196.30 34.82 183.30 C 28.50 170.61 28.50 170.61 28.14 159.24 C 27.72 146.11 29.06 141.15 34.69 134.92 C 44.25 124.34 60.25 119.47 93.50 117.03 C 123.53 114.83 172.26 116.86 188.50 120.98 C 216.50 128.09 227.04 143.47 221.07 168.50 C 218.47 179.37 215.43 186.24 209.62 194.38 C 198.56 209.84 183.12 219.21 175.75 214.92 Z  M 150.25 207.32 C 146.56 206.81 146.46 206.48 148.41 201.27 C 149.19 199.20 150.11 196.25 150.44 194.71 C 150.82 192.98 152.01 191.57 153.59 190.96 C 156.76 189.76 176.01 189.72 177.89 190.91 C 179.63 192.02 178.83 195.49 175.78 199.97 C 171.73 205.92 168.71 207.45 160.70 207.62 C 156.74 207.71 152.04 207.57 150.25 207.32 Z  M 94.00 205.99 C 90.97 205.58 84.12 203.81 78.76 202.07 C 70.84 199.50 68.75 198.41 67.61 196.22 C 66.39 193.89 66.39 193.14 67.62 190.76 C 69.05 188.00 69.05 188.00 81.78 188.10 C 98.61 188.23 99.08 188.39 100.70 194.53 C 101.94 199.23 101.59 207.15 100.16 206.87 C 99.80 206.80 97.03 206.40 94.00 205.99 Z  M 108.50 181.38 C 107.40 181.18 101.42 180.61 95.21 180.10 C 87.89 179.50 83.06 178.62 81.48 177.58 C 77.06 174.69 76.91 166.81 81.24 165.61 C 82.48 165.26 91.83 164.27 102.00 163.40 C 119.47 161.90 121.14 161.92 132.00 163.63 C 143.10 165.39 151.63 165.74 162.83 164.90 C 168.72 164.46 171.00 166.10 171.00 170.79 C 171.00 173.92 165.97 178.60 161.77 179.38 C 150.30 181.50 116.42 182.77 108.50 181.38 Z  M 139.32 160.06 C 135.95 158.53 134.94 157.43 134.10 154.40 C 131.82 146.13 137.45 142.00 151.04 142.00 C 157.91 142.00 160.45 142.44 164.04 144.25 C 168.01 146.26 168.53 146.92 168.81 150.33 C 169.21 155.10 166.98 158.69 162.45 160.58 C 157.41 162.69 144.48 162.40 139.32 160.06 Z  M 78.23 158.56 C 74.11 156.70 70.36 149.00 72.17 146.11 C 74.00 143.16 76.60 142.04 84.28 140.84 C 94.72 139.22 102.63 140.39 106.06 144.07 C 111.00 149.35 110.32 153.74 104.02 157.42 C 99.44 160.09 83.21 160.81 78.23 158.56 Z  M 98.00 111.35 C 98.00 109.13 104.45 86.12 105.57 84.34 C 107.88 80.66 113.11 79.65 125.89 80.42 C 132.23 80.80 138.04 81.62 138.79 82.24 C 141.04 84.11 143.82 90.36 146.48 99.54 C 150.49 113.38 153.04 112.00 123.50 112.00 C 109.47 112.00 98.00 111.71 98.00 111.35 Z  M 174.00 109.46 C 162.72 108.78 153.45 108.18 153.39 108.11 C 153.33 108.05 152.99 105.59 152.65 102.65 C 152.30 99.71 151.36 95.45 150.56 93.18 C 149.76 90.91 149.42 88.89 149.80 88.69 C 151.64 87.73 187.63 91.05 196.50 93.00 C 211.72 96.35 217.00 99.05 217.00 103.50 C 217.00 106.52 214.29 108.70 208.99 109.92 C 203.72 111.13 201.10 111.10 174.00 109.46 Z  M 45.75 106.80 C 41.47 105.66 36.00 101.02 36.00 98.52 C 36.00 97.60 37.27 95.58 38.81 94.03 C 41.81 91.04 46.46 89.73 60.00 88.07 C 68.35 87.05 99.00 85.51 99.00 86.12 C 99.00 86.33 98.10 88.87 97.00 91.76 C 95.90 94.65 94.99 98.48 94.99 100.26 C 94.98 102.04 94.70 104.51 94.37 105.75 C 93.77 108.00 93.77 108.00 71.63 107.90 C 59.46 107.84 47.81 107.35 45.75 106.80 Z  M 167.00 78.85 C 162.88 78.35 132.05 77.82 98.50 77.69 C 32.96 77.42 33.68 77.48 32.38 72.36 C 31.57 69.16 34.09 65.13 42.56 56.13 C 53.63 44.37 63.04 40.09 86.00 36.40 C 101.14 33.96 138.00 33.42 152.26 35.42 C 179.26 39.21 201.17 49.36 212.32 63.23 C 216.51 68.45 216.66 74.36 212.68 77.37 C 210.07 79.34 208.57 79.51 192.18 79.63 C 182.46 79.71 171.12 79.35 167.00 78.85 Z  M 71.68 66.85 C 75.00 65.85 82.00 58.95 82.00 56.69 C 82.00 55.97 81.37 54.52 80.60 53.47 C 78.80 51.00 73.32 51.17 65.39 53.94 C 56.99 56.89 54.50 58.98 54.50 63.11 C 54.50 66.10 54.91 66.63 58.00 67.64 C 61.59 68.81 66.08 68.55 71.68 66.85 Z  M 194.25 67.30 C 196.84 65.85 192.96 59.07 188.09 56.55 C 184.24 54.56 169.85 51.00 165.64 51.00 C 159.65 51.00 156.63 58.63 160.91 62.91 C 164.75 66.75 189.44 70.00 194.25 67.30 Z  M 136.30 60.92 C 138.89 59.73 139.07 59.27 138.80 54.57 C 138.51 49.63 138.40 49.47 134.50 48.18 C 131.95 47.33 127.00 46.97 120.83 47.18 C 112.21 47.47 110.88 47.76 108.58 49.92 C 105.04 53.25 104.85 60.56 108.25 62.04 C 111.31 63.37 132.83 62.51 136.30 60.92 Z "/>
</g>
</svg>