<?xml version="1.0" encoding="UTF-8" standalone="no"?>
<!DOCTYPE svg PUBLIC "-//W3C//DTD SVG 1.1//EN" "http://www.w3.org/Graphics/SVG/1.1/DTD/svg11.dtd" >
<svg xmlns="http://www.w3.org/2000/svg" xmlns:xlink="http://www.w3.org/1999/xlink" version="1.1" viewBox="0 0 256 256">
 <g >
 <path fill="currentColor"
d=" M 142.91 236.93 C 145.81 236.27 150.08 233.77 155.41 229.61 C 159.86 226.14 164.92 222.57 166.65 221.67 C 169.80 220.05 169.80 220.05 171.39 224.03 C 172.80 227.54 173.37 228.00 176.30 228.00 C 182.80 228.00 189.87 223.27 203.10 210.07 C 223.18 190.03 233.93 174.05 232.63 166.16 C 232.15 163.23 232.70 161.21 235.39 156.00 C 239.75 147.56 241.51 136.39 240.66 122.51 C 239.61 105.34 236.68 98.73 223.38 83.47 C 219.87 79.45 217.00 75.91 217.00 75.60 C 217.00 75.30 218.40 74.33 220.11 73.44 C 222.87 72.02 223.15 71.48 222.59 68.67 C 221.45 62.96 213.48 52.40 205.55 46.10 C 192.53 35.76 172.32 24.11 161.50 20.71 C 156.01 18.99 142.08 17.00 135.48 17.00 C 133.13 17.00 128.20 18.27 124.32 19.87 C 117.39 22.72 117.35 22.73 113.93 20.91 C 109.06 18.32 98.19 18.35 93.04 20.98 C 89.82 22.62 88.64 22.77 86.01 21.86 C 81.64 20.33 75.28 21.39 72.35 24.14 C 70.59 25.79 68.95 26.36 66.52 26.15 C 63.78 25.91 61.44 27.00 54.29 31.81 C 43.72 38.91 36.20 46.83 29.70 57.69 C 23.70 67.71 17.37 82.29 15.50 90.36 C 11.96 105.65 10.93 138.73 13.49 154.38 C 14.68 161.63 14.73 164.56 13.76 170.22 C 12.57 177.13 12.58 177.20 15.83 183.47 C 19.75 191.03 27.31 199.59 37.77 208.30 C 52.90 220.90 62.16 225.59 66.91 223.05 C 68.69 222.10 69.73 222.41 73.52 225.01 C 76.00 226.72 79.59 228.77 81.51 229.57 C 84.79 230.94 85.32 230.87 89.96 228.52 C 94.92 226.01 94.92 226.01 98.70 228.57 C 102.05 230.84 103.13 231.07 108.06 230.49 C 112.55 229.97 113.89 230.16 114.99 231.49 C 119.47 236.89 132.28 239.38 142.91 236.93 Z  M 127.05 221.80 C 123.41 219.86 120.78 214.61 120.70 209.12 C 120.56 200.09 128.17 190.91 142.20 183.17 C 151.71 177.92 158.37 170.83 160.54 163.65 C 162.49 157.19 163.96 140.28 163.99 124.00 C 164.01 108.84 165.30 105.22 171.39 103.23 C 174.85 102.10 175.75 102.19 179.55 104.02 C 186.52 107.40 187.44 110.38 187.84 131.00 C 188.33 156.52 185.97 172.91 179.97 185.53 C 173.85 198.42 158.45 215.07 148.40 219.67 C 141.65 222.76 130.88 223.83 127.05 221.80 Z  M 97.61 211.91 C 96.14 210.75 93.97 207.94 92.78 205.66 C 90.81 201.86 90.51 198.92 89.38 171.50 C 87.88 135.22 87.71 88.86 88.99 64.79 C 89.83 48.93 90.19 46.55 92.43 42.13 C 95.75 35.59 99.16 33.00 104.46 33.00 C 111.82 33.00 113.75 37.00 116.31 57.50 C 117.09 63.75 117.31 71.43 116.89 78.00 C 116.52 83.78 116.13 112.35 116.03 141.50 C 115.93 170.65 115.52 196.82 115.12 199.66 C 113.48 211.14 104.56 217.38 97.61 211.91 Z  M 73.45 212.04 C 70.80 210.97 65.87 205.34 62.42 199.45 C 59.93 195.21 59.64 193.58 58.91 179.66 C 56.87 141.30 56.76 121.61 58.42 96.64 C 59.34 82.97 60.75 67.90 61.56 63.14 C 63.33 52.83 67.65 43.39 72.62 39.03 C 76.97 35.21 80.41 35.30 83.40 39.33 C 85.41 42.03 85.48 42.99 85.00 61.83 C 84.20 93.39 84.84 187.86 85.91 195.41 C 86.67 200.76 86.59 203.05 85.53 205.57 C 82.83 212.06 78.80 214.21 73.45 212.04 Z  M 181.95 210.37 C 179.58 204.16 184.46 190.80 192.13 182.47 C 197.53 176.61 200.68 175.00 206.73 175.00 C 216.07 175.00 218.13 179.26 213.36 188.70 C 208.04 199.21 194.73 210.90 186.14 212.62 C 183.40 213.17 182.92 212.91 181.95 210.37 Z  M 45.50 207.10 C 40.81 204.93 36.84 200.84 31.21 192.41 C 27.63 187.05 27.23 185.90 27.92 182.85 C 28.35 180.94 29.52 178.14 30.51 176.63 C 32.25 173.97 32.25 173.43 30.44 161.19 C 26.80 136.54 28.24 98.68 33.63 77.50 C 38.38 58.86 49.68 40.96 56.65 41.02 C 61.20 41.05 61.23 41.43 58.56 65.09 C 57.17 77.41 55.58 93.30 55.02 100.40 C 53.64 117.81 53.71 156.83 55.16 182.66 C 56.25 202.10 56.21 204.03 54.65 206.41 C 52.65 209.47 50.89 209.60 45.50 207.10 Z  M 128.04 173.20 C 126.22 171.37 125.00 168.85 124.55 165.95 C 124.17 163.50 122.94 156.55 121.82 150.50 C 118.55 132.91 120.26 101.75 125.43 84.57 C 127.39 78.06 131.24 73.43 137.31 70.28 C 141.84 67.93 143.94 67.54 153.90 67.18 C 167.23 66.71 178.42 68.22 185.67 71.49 C 199.38 77.66 216.50 93.12 221.87 104.16 C 227.16 115.05 228.41 130.16 225.10 143.09 C 220.88 159.58 214.76 168.00 206.99 168.00 C 199.84 168.00 198.79 163.84 200.40 141.95 C 201.08 132.65 200.91 128.37 199.51 119.95 C 197.54 108.10 196.43 104.94 191.93 98.40 C 188.00 92.69 182.28 89.92 174.20 89.80 C 164.89 89.67 160.96 92.47 156.36 102.53 C 153.73 108.26 153.59 109.38 152.93 130.50 C 152.21 153.12 151.35 158.59 146.84 169.12 C 144.57 174.42 141.95 176.00 135.38 176.00 C 131.75 176.00 130.29 175.44 128.04 173.20 Z  M 168.50 64.32 C 164.13 63.41 158.22 63.03 152.75 63.31 C 147.94 63.55 144.00 63.62 144.00 63.46 C 144.00 61.43 148.60 53.72 151.41 51.03 C 154.72 47.88 155.68 47.53 162.03 47.17 C 167.40 46.86 169.60 47.16 171.60 48.47 C 174.42 50.32 177.44 56.33 178.53 62.25 C 179.34 66.62 179.47 66.59 168.50 64.32 Z  M 190.12 62.04 C 186.37 61.59 183.41 60.70 182.95 59.88 C 177.05 49.33 170.13 44.00 162.33 44.00 C 156.84 44.00 153.76 45.24 148.41 49.63 C 144.01 53.23 144.01 53.23 134.93 51.70 C 129.54 50.79 125.06 49.46 123.92 48.43 C 121.38 46.13 121.40 40.60 123.94 38.06 C 126.81 35.19 131.54 34.66 148.89 35.28 C 172.34 36.11 184.49 39.90 199.04 50.90 C 204.87 55.31 209.07 60.28 207.92 61.40 C 206.94 62.35 196.00 62.75 190.12 62.04 Z "/>
</g>
</svg>