<?xml version="1.0" encoding="UTF-8" standalone="no"?>
<!DOCTYPE svg PUBLIC "-//W3C//DTD SVG 1.1//EN" "http://www.w3.org/Graphics/SVG/1.1/DTD/svg11.dtd" >
<svg xmlns="http://www.w3.org/2000/svg" xmlns:xlink="http://www.w3.org/1999/xlink" version="1.1" viewBox="0 0 256 256">
 <g >
 <path fill="currentColor"
d=" M 103.33 234.07 C 104.68 233.55 108.09 231.09 110.90 228.59 C 116.01 224.05 116.01 224.05 120.76 227.06 C 135.17 236.20 159.54 236.15 178.69 226.94 C 189.16 221.90 199.08 213.89 213.02 199.21 C 224.58 187.04 229.00 181.13 234.65 170.28 C 237.62 164.57 237.99 162.99 237.95 156.18 C 237.91 150.64 237.25 146.82 235.58 142.50 C 233.27 136.50 233.27 136.50 237.38 128.50 C 241.33 120.79 241.48 120.15 241.49 111.00 C 241.51 94.12 236.56 83.53 218.15 61.00 C 200.79 39.76 189.11 30.08 175.06 25.29 C 167.23 22.62 160.94 22.51 155.50 24.94 C 151.50 26.73 151.50 26.73 145.53 23.74 C 139.95 20.94 139.00 20.78 131.02 21.23 C 122.39 21.73 116.26 23.94 110.19 28.77 C 107.91 30.57 107.77 30.55 101.19 27.20 C 94.78 23.95 94.14 23.82 86.00 24.29 C 69.80 25.23 56.60 32.38 39.50 49.49 C 22.33 66.68 14.27 80.93 19.99 84.00 C 21.91 85.02 21.78 85.46 16.80 95.28 C 11.62 105.50 11.62 105.50 11.56 119.00 C 11.49 133.88 12.01 135.65 18.62 143.40 C 21.96 147.31 21.96 147.31 17.23 153.90 C 12.83 160.04 12.50 160.92 12.53 166.50 C 12.56 171.23 13.19 173.65 15.53 177.92 C 21.22 188.30 40.08 204.70 48.84 206.89 C 50.85 207.39 53.62 208.08 55.00 208.42 C 56.47 208.78 58.94 211.11 61.00 214.07 C 64.63 219.30 73.51 226.68 80.47 230.26 C 88.97 234.63 97.92 236.12 103.33 234.07 Z  M 139.76 218.51 C 127.67 215.44 119.83 210.00 116.13 202.11 C 113.67 196.86 113.48 195.41 113.17 179.41 C 112.80 160.33 114.52 146.47 117.79 142.06 C 120.44 138.49 129.20 134.25 137.50 132.50 C 150.27 129.82 170.56 128.60 182.07 129.83 C 202.11 131.96 210.06 136.56 216.21 149.56 C 222.01 161.80 220.13 172.55 208.83 191.81 C 204.16 199.77 194.62 209.12 187.95 212.25 C 176.10 217.83 150.29 221.18 139.76 218.51 Z  M 154.90 194.55 C 160.70 191.55 162.90 184.03 159.01 180.51 C 154.62 176.53 139.51 177.84 138.54 182.29 C 137.01 189.29 137.64 193.92 140.25 194.97 C 143.76 196.38 151.81 196.15 154.90 194.55 Z  M 190.60 190.10 C 194.89 188.14 199.00 182.82 199.00 179.19 C 199.00 176.64 195.43 173.99 192.03 174.02 C 188.70 174.05 181.97 177.19 179.67 179.78 C 177.23 182.52 176.21 189.89 178.10 191.09 C 180.40 192.54 186.23 192.08 190.60 190.10 Z  M 156.39 165.04 C 161.26 163.19 163.59 154.72 160.46 150.25 C 156.90 145.16 144.18 145.33 138.55 150.54 C 134.18 154.59 135.77 162.75 141.36 165.01 C 144.29 166.19 153.31 166.21 156.39 165.04 Z  M 194.40 162.61 C 198.87 160.74 201.00 157.43 201.00 152.35 C 201.00 146.51 197.37 143.55 191.23 144.39 C 184.70 145.27 181.08 147.61 178.94 152.32 C 176.40 157.91 176.52 159.48 179.63 161.93 C 182.76 164.39 189.41 164.69 194.40 162.61 Z  M 84.24 217.67 C 76.32 214.79 66.00 201.92 66.00 194.92 C 66.00 190.14 69.77 185.46 75.65 182.93 C 80.86 180.70 81.55 178.77 81.37 166.90 C 81.12 150.56 77.52 147.24 56.50 143.97 C 41.05 141.57 35.97 139.46 31.45 133.52 C 25.77 126.07 24.30 111.97 28.06 100.82 C 30.42 93.83 35.22 83.98 38.36 79.71 C 42.40 74.21 51.93 71.29 56.98 73.99 C 60.37 75.80 60.34 80.20 56.85 94.00 C 53.30 108.03 53.35 108.68 58.20 112.30 C 60.00 113.64 64.22 114.63 72.43 115.64 C 86.65 117.38 93.97 119.97 99.08 125.08 C 105.71 131.71 108.25 145.89 108.21 176.17 C 108.19 194.83 108.19 194.83 103.98 204.42 C 98.29 217.41 96.92 219.02 91.68 218.92 C 89.38 218.88 86.03 218.32 84.24 217.67 Z  M 43.99 195.07 C 37.14 192.98 31.04 187.93 29.06 182.68 C 26.50 175.89 28.48 164.30 33.19 158.59 C 38.24 152.45 50.95 147.21 57.69 148.47 C 62.60 149.39 67.00 155.75 66.99 161.90 C 66.97 167.97 63.66 183.80 61.43 188.50 C 58.42 194.84 51.64 197.39 43.99 195.07 Z  M 174.72 124.25 C 169.93 118.95 169.69 107.81 174.07 94.13 C 178.20 81.24 179.11 75.90 178.10 70.51 C 177.27 66.05 177.29 66.00 180.00 66.00 C 181.51 66.00 184.13 66.28 185.81 66.61 C 189.51 67.35 191.17 70.90 193.62 83.37 C 195.00 90.42 195.11 93.60 194.24 102.73 C 193.12 114.63 191.04 120.25 186.39 123.91 C 183.06 126.52 176.95 126.70 174.72 124.25 Z  M 204.20 123.51 C 201.13 120.93 199.00 114.93 199.00 108.85 C 199.00 107.05 200.63 101.79 202.62 97.15 C 205.81 89.72 206.17 88.08 205.61 83.36 C 204.71 75.71 202.25 70.18 198.99 68.49 C 197.46 67.71 190.80 65.72 184.17 64.08 C 177.54 62.44 170.36 60.20 168.20 59.10 C 163.23 56.56 160.92 52.02 161.69 46.27 C 162.52 40.05 164.60 38.68 172.39 39.17 C 192.39 40.45 216.93 64.86 223.54 90.08 C 225.80 98.70 225.10 113.92 222.18 119.64 C 218.75 126.37 209.87 128.29 204.20 123.51 Z  M 114.00 121.22 C 111.65 119.94 109.18 117.05 106.50 112.44 C 102.84 106.14 102.50 104.97 102.56 98.53 C 102.66 85.19 104.28 67.49 105.64 64.80 C 106.39 63.31 108.11 58.58 109.47 54.30 C 112.24 45.55 116.61 39.48 121.64 37.38 C 123.56 36.58 128.40 36.01 133.22 36.02 C 142.54 36.05 147.72 37.85 152.20 42.62 C 156.96 47.70 159.40 56.25 157.11 59.85 C 156.64 60.60 152.03 62.07 146.88 63.13 C 138.77 64.79 137.03 65.52 134.00 68.54 C 130.64 71.89 130.50 72.33 130.50 79.27 C 130.50 86.50 130.50 86.50 133.75 87.46 C 135.60 88.00 137.00 89.08 137.00 89.96 C 137.00 90.81 138.19 96.26 139.65 102.07 C 142.88 114.95 142.52 117.18 136.73 120.15 C 130.66 123.28 118.78 123.84 114.00 121.22 Z  M 152.37 119.99 C 148.69 117.60 144.32 111.60 143.06 107.21 C 142.57 105.50 141.86 99.69 141.47 94.30 C 140.32 77.95 142.84 73.00 152.32 73.00 C 156.51 73.00 157.67 73.47 160.50 76.30 C 165.03 80.83 166.16 85.32 166.71 101.00 C 167.16 113.95 167.09 114.64 164.81 118.00 C 161.87 122.34 157.15 123.09 152.37 119.99 Z  M 86.50 113.96 C 83.20 112.97 79.15 112.12 77.50 112.06 C 71.64 111.88 71.66 111.95 74.29 92.40 C 76.26 77.80 76.50 73.67 75.60 70.00 C 74.54 65.68 74.34 65.49 70.49 65.20 C 68.28 65.04 60.48 66.25 53.14 67.89 C 38.19 71.24 35.00 70.99 35.00 66.43 C 35.00 59.81 42.85 50.93 55.09 43.72 C 68.09 36.05 79.17 35.09 89.25 40.76 C 100.16 46.89 101.28 53.25 97.59 88.03 C 96.16 101.49 94.99 113.29 94.99 114.25 C 95.00 116.33 94.32 116.31 86.50 113.96 Z "/>
</g>
</svg>