<?xml version="1.0" encoding="UTF-8" standalone="no"?>
<!DOCTYPE svg PUBLIC "-//W3C//DTD SVG 1.1//EN" "http://www.w3.org/Graphics/SVG/1.1/DTD/svg11.dtd" >
<svg xmlns="http://www.w3.org/2000/svg" xmlns:xlink="http://www.w3.org/1999/xlink" version="1.1" viewBox="0 0 256 256">
 <g >
 <path fill="currentColor"
d=" M 45.55 232.09 C 60.83 227.76 80.30 226.03 121.50 225.34 C 181.99 224.32 210.75 227.69 221.41 237.06 C 224.66 239.91 224.66 239.91 230.07 234.43 C 233.04 231.42 239.61 226.18 244.66 222.79 C 253.85 216.62 253.85 216.62 252.29 213.56 C 249.66 208.42 237.28 190.61 234.56 188.06 C 232.00 185.65 232.00 185.65 232.00 188.31 C 232.00 193.42 228.97 198.97 225.10 200.95 C 221.57 202.75 209.31 205.67 208.58 204.89 C 208.38 204.67 209.77 188.07 211.67 168.00 C 214.14 141.86 215.55 130.84 216.64 129.17 C 217.47 127.88 219.96 126.02 222.17 125.04 C 226.18 123.24 226.18 123.24 222.49 120.43 C 220.46 118.88 218.43 116.62 217.97 115.42 C 216.88 112.57 220.67 67.16 222.55 60.50 C 224.36 54.06 227.51 50.26 232.42 48.58 C 236.34 47.24 236.34 47.24 231.11 41.71 C 228.24 38.67 221.92 32.73 217.06 28.50 C 212.21 24.27 207.65 19.71 206.93 18.37 C 205.62 15.93 205.62 15.93 199.98 21.86 C 196.88 25.12 192.35 28.85 189.92 30.14 C 185.50 32.50 185.50 32.50 126.00 32.50 C 71.50 32.50 66.23 32.35 63.34 30.77 C 59.55 28.70 56.57 21.82 57.18 16.57 C 57.59 13.03 57.59 13.03 55.16 15.27 C 51.75 18.39 43.05 30.23 37.67 39.05 C 33.14 46.48 33.14 46.48 41.59 50.86 C 46.24 53.26 52.31 57.27 55.08 59.76 C 60.11 64.28 60.11 64.28 63.31 61.19 C 68.75 55.92 72.39 55.00 87.72 55.00 C 103.73 55.00 102.49 51.34 98.43 86.74 C 97.10 98.42 96.00 108.65 96.00 109.49 C 96.00 110.77 93.62 111.00 80.07 111.00 C 64.15 111.00 64.15 111.00 57.58 107.58 C 53.97 105.69 49.82 103.21 48.36 102.07 C 45.70 99.98 45.70 99.98 43.00 105.33 C 41.52 108.27 38.28 113.81 35.80 117.64 C 31.30 124.60 31.30 124.60 35.63 126.39 C 38.01 127.37 44.35 130.96 49.73 134.37 C 59.50 140.55 59.50 140.55 63.58 136.28 C 67.65 132.00 67.65 132.00 79.66 132.00 C 86.26 132.00 91.88 132.21 92.13 132.47 C 92.39 132.72 90.82 149.10 88.63 168.85 C 84.11 209.76 86.69 205.97 63.30 205.99 C 40.59 206.01 32.11 201.89 28.85 189.23 C 27.95 185.73 27.50 185.17 26.35 186.12 C 23.00 188.91 10.58 205.49 7.08 211.86 C 3.25 218.82 3.25 218.82 9.25 221.97 C 16.27 225.65 31.99 236.08 33.79 238.25 C 34.88 239.56 35.47 239.33 38.32 236.48 C 40.12 234.68 43.37 232.70 45.55 232.09 Z  M 136.25 203.25 C 117.00 202.96 117.00 202.96 117.08 199.73 C 117.13 197.95 118.82 182.10 120.83 164.50 C 124.50 132.50 124.50 132.50 153.25 132.23 C 179.64 131.99 182.00 132.11 182.00 133.65 C 182.00 136.54 175.95 199.38 175.44 201.75 C 174.98 203.92 174.60 203.99 165.23 203.77 C 159.88 203.65 146.84 203.41 136.25 203.25 Z  M 127.01 108.75 C 127.02 104.34 131.03 72.35 132.65 63.75 C 134.29 55.00 134.29 55.00 162.15 55.00 C 182.88 55.00 190.00 55.30 190.00 56.18 C 190.00 58.46 184.92 106.53 184.44 108.75 C 183.96 111.00 183.96 111.00 155.48 111.00 C 127.00 111.00 127.00 111.00 127.01 108.75 Z "/>
</g>
</svg>