<?xml version="1.0" encoding="UTF-8" standalone="no"?>
<!DOCTYPE svg PUBLIC "-//W3C//DTD SVG 1.1//EN" "http://www.w3.org/Graphics/SVG/1.1/DTD/svg11.dtd" >
<svg xmlns="http://www.w3.org/2000/svg" xmlns:xlink="http://www.w3.org/1999/xlink" version="1.1" viewBox="0 0 256 256">
 <g >
 <path fill="currentColor"
d=" M 188.18 237.23 C 195.87 228.14 195.87 228.14 193.48 226.58 C 189.98 224.28 188.96 219.34 188.30 201.25 C 187.70 185.00 187.70 185.00 198.64 185.00 C 209.58 185.00 209.58 185.00 214.04 189.58 C 216.49 192.10 220.62 195.95 223.20 198.13 C 227.76 201.99 227.99 202.06 230.79 200.61 C 234.55 198.66 248.29 185.22 250.90 180.93 C 252.93 177.59 252.93 177.59 250.02 176.37 C 243.90 173.79 241.00 162.25 241.00 140.49 C 241.00 133.55 241.47 126.98 242.05 125.90 C 242.63 124.82 244.90 122.64 247.09 121.05 C 250.62 118.49 250.85 118.09 249.10 117.53 C 248.01 117.19 245.71 115.29 243.98 113.32 C 240.84 109.74 240.84 109.74 241.17 93.12 C 241.47 77.75 241.69 76.12 244.00 71.50 C 245.88 67.74 247.30 66.24 249.72 65.46 C 252.93 64.42 252.93 64.42 251.09 61.46 C 250.07 59.83 245.88 54.60 241.76 49.83 C 237.65 45.07 233.39 40.04 232.30 38.65 C 230.31 36.13 230.31 36.13 224.53 41.59 C 221.36 44.60 216.67 48.28 214.13 49.78 C 209.89 52.27 208.63 52.50 199.00 52.50 C 188.50 52.50 188.50 52.50 188.70 46.50 C 189.00 37.38 189.82 34.34 192.79 31.29 C 195.50 28.50 195.50 28.50 185.50 18.22 C 175.50 7.94 175.50 7.94 165.00 14.87 C 152.44 23.15 145.63 28.90 148.30 28.96 C 151.73 29.04 155.78 31.94 156.89 35.12 C 157.50 36.87 158.00 41.61 158.00 45.65 C 158.00 53.00 158.00 53.00 146.41 53.00 C 134.83 53.00 134.83 53.00 128.16 47.21 C 117.45 37.90 118.71 38.31 113.27 42.31 C 107.63 46.46 94.00 60.31 94.00 61.89 C 94.00 62.50 94.84 63.00 95.86 63.00 C 98.53 63.00 102.79 67.63 104.04 71.87 C 104.63 73.87 105.52 79.78 106.02 85.00 C 107.24 97.75 107.21 143.17 105.97 154.93 C 104.72 166.79 101.44 174.63 97.02 176.30 C 95.36 176.93 94.00 177.89 94.00 178.45 C 94.00 179.92 116.51 202.00 118.00 202.00 C 118.69 202.00 123.17 198.18 127.94 193.50 C 136.63 185.00 136.63 185.00 147.40 185.00 C 158.16 185.00 158.16 185.00 157.83 202.93 C 157.53 219.16 157.31 221.12 155.44 223.61 C 154.31 225.12 151.91 226.86 150.11 227.46 C 146.83 228.57 146.83 228.57 155.67 236.61 C 160.52 241.04 166.97 246.32 170.00 248.36 C 176.31 252.61 173.95 254.05 188.18 237.23 Z  M 55.96 227.13 C 62.21 220.89 73.54 213.40 86.54 206.94 C 96.57 201.95 96.57 201.95 95.67 192.72 C 95.18 187.65 94.62 183.34 94.44 183.14 C 94.26 182.94 92.62 183.68 90.80 184.80 C 72.87 195.79 43.75 205.34 28.00 205.40 C 19.70 205.43 10.51 203.33 7.09 200.62 C 5.90 199.67 5.78 200.29 6.35 204.55 C 7.05 209.86 12.83 233.15 13.65 233.98 C 13.91 234.25 17.14 234.34 20.81 234.19 C 27.97 233.89 36.71 235.77 42.79 238.91 C 46.50 240.83 46.50 240.83 48.74 236.47 C 49.97 234.08 53.22 229.87 55.96 227.13 Z  M 49.50 180.19 C 58.12 175.99 69.81 172.46 91.08 167.63 C 93.66 167.05 93.66 167.03 92.80 160.27 C 92.32 156.55 91.76 153.01 91.56 152.42 C 91.30 151.66 86.85 151.89 76.85 153.16 C 68.96 154.17 62.14 154.87 61.69 154.72 C 61.24 154.58 66.72 148.72 73.87 141.71 C 83.52 132.23 88.30 128.29 92.49 126.37 C 96.93 124.34 97.98 123.44 97.41 122.15 C 93.86 114.04 92.62 108.56 92.22 99.25 C 91.77 89.00 91.77 89.00 83.64 88.99 C 79.16 88.98 73.86 88.71 71.86 88.38 C 68.22 87.77 68.22 87.77 68.74 92.39 C 69.26 97.00 69.26 97.00 61.05 97.00 C 52.83 97.00 52.83 97.00 55.86 91.75 C 65.86 74.43 83.35 52.49 91.89 46.57 C 94.13 45.02 95.75 43.40 95.48 42.97 C 95.21 42.54 86.21 38.70 75.47 34.45 C 64.73 30.20 53.95 25.45 51.51 23.90 C 47.06 21.08 47.06 21.08 45.30 24.06 C 42.17 29.37 32.18 34.69 20.77 37.14 C 15.82 38.21 15.82 38.21 16.49 41.81 C 17.27 45.97 20.03 51.69 24.18 57.75 C 27.28 62.27 29.15 63.30 28.29 60.00 C 27.07 55.34 34.07 50.00 41.40 50.00 C 43.96 50.00 45.03 50.51 45.49 51.96 C 46.35 54.69 45.17 60.49 42.34 67.30 C 39.40 74.39 29.23 92.74 27.73 93.66 C 25.96 94.76 21.25 88.15 20.24 83.14 C 19.30 78.50 19.30 78.50 14.17 89.17 C 9.68 98.49 3.50 114.90 4.24 115.54 C 4.38 115.66 7.20 117.13 10.50 118.80 C 13.80 120.47 19.63 124.01 23.46 126.67 C 30.43 131.50 30.43 131.50 35.02 126.89 C 38.05 123.86 41.65 121.53 45.56 120.06 C 52.58 117.43 61.78 115.45 62.70 116.36 C 63.69 117.35 55.09 129.30 44.97 141.00 C 31.36 156.74 33.47 155.43 26.26 152.60 C 20.09 150.19 20.09 150.19 19.04 153.34 C 18.46 155.08 15.97 160.04 13.49 164.37 C 11.02 168.69 9.01 172.52 9.01 172.87 C 9.02 173.21 13.03 175.47 17.92 177.89 C 22.82 180.30 29.00 183.95 31.66 186.00 C 36.50 189.73 36.50 189.73 40.00 186.43 C 41.92 184.61 46.20 181.80 49.50 180.19 Z  M 134.23 146.75 C 134.50 126.50 134.50 126.50 146.25 126.22 C 158.00 125.94 158.00 125.94 158.00 146.47 C 158.00 167.00 158.00 167.00 145.98 167.00 C 133.96 167.00 133.96 167.00 134.23 146.75 Z  M 188.23 146.75 C 188.50 126.50 188.50 126.50 200.25 126.22 C 212.00 125.94 212.00 125.94 212.00 143.34 C 212.00 152.92 211.72 162.16 211.38 163.88 C 210.75 167.00 210.75 167.00 199.35 167.00 C 187.96 167.00 187.96 167.00 188.23 146.75 Z  M 134.00 89.50 C 134.00 72.00 134.00 72.00 146.00 72.00 C 158.00 72.00 158.00 72.00 158.00 89.50 C 158.00 107.00 158.00 107.00 146.00 107.00 C 134.00 107.00 134.00 107.00 134.00 89.50 Z  M 188.00 89.50 C 188.00 72.00 188.00 72.00 200.00 72.00 C 212.00 72.00 212.00 72.00 212.00 89.50 C 212.00 107.00 212.00 107.00 200.00 107.00 C 188.00 107.00 188.00 107.00 188.00 89.50 Z "/>
</g>
</svg>