<?xml version="1.0" encoding="UTF-8" standalone="no"?>
<!DOCTYPE svg PUBLIC "-//W3C//DTD SVG 1.1//EN" "http://www.w3.org/Graphics/SVG/1.1/DTD/svg11.dtd" >
<svg xmlns="http://www.w3.org/2000/svg" xmlns:xlink="http://www.w3.org/1999/xlink" version="1.1" viewBox="0 0 256 256">
 <g >
 <path fill="currentColor"
d=" M 117.91 241.80 C 121.77 240.69 132.76 240.25 137.98 241.00 C 141.47 241.50 141.47 241.50 142.24 236.00 C 143.97 223.72 153.77 210.29 164.60 205.32 C 170.25 202.74 170.25 202.74 164.37 199.03 C 157.14 194.47 153.54 193.20 145.65 192.45 C 139.50 191.86 139.50 191.86 136.50 197.01 C 132.84 203.29 123.36 212.53 118.49 214.57 C 112.54 217.05 105.78 214.15 100.34 206.79 C 98.00 203.61 98.00 203.61 98.00 207.69 C 98.00 212.86 102.21 227.52 105.65 234.31 C 109.83 242.56 111.11 244.17 112.90 243.44 C 113.78 243.08 116.03 242.34 117.91 241.80 Z  M 237.33 234.17 C 241.66 225.89 244.61 216.96 245.55 209.34 C 246.27 203.50 246.27 203.50 240.78 208.66 C 233.81 215.24 228.81 216.95 223.70 214.53 C 219.04 212.32 212.00 204.75 207.99 197.63 C 204.48 191.42 204.09 191.28 194.98 193.00 C 189.69 194.01 181.35 197.72 176.98 201.01 C 174.67 202.76 174.67 202.76 179.28 204.80 C 189.28 209.22 197.92 221.68 200.20 234.94 C 201.37 241.77 201.46 241.92 203.95 241.22 C 208.07 240.07 222.16 240.69 226.50 242.23 C 231.56 244.02 232.57 243.27 237.33 234.17 Z  M 55.96 227.13 C 62.21 220.88 73.55 213.40 86.58 206.92 C 96.67 201.90 96.67 201.90 95.89 197.20 C 94.08 186.21 94.95 185.77 104.35 192.88 C 110.80 197.77 110.80 197.77 112.92 194.89 C 114.09 193.31 116.95 191.00 119.27 189.76 C 123.48 187.51 123.74 187.50 167.50 187.50 C 211.26 187.50 211.52 187.51 215.73 189.76 C 218.05 191.00 220.91 193.31 222.08 194.89 C 224.20 197.76 224.20 197.76 232.35 191.92 C 236.83 188.71 242.89 184.91 245.82 183.48 C 251.87 180.51 252.14 181.71 243.00 171.00 C 239.95 167.43 235.74 162.36 233.66 159.75 C 229.47 154.50 228.05 153.81 228.72 157.32 C 229.40 160.86 224.92 165.53 219.57 166.88 C 217.12 167.49 212.61 168.00 209.56 168.00 C 204.00 168.00 204.00 168.00 204.00 153.00 C 204.00 141.00 204.27 138.00 205.36 138.00 C 209.55 138.00 217.74 140.30 219.38 141.93 C 221.24 143.79 221.32 143.77 223.71 140.93 C 225.05 139.34 229.70 136.09 234.05 133.71 C 241.94 129.39 241.94 129.39 238.81 125.44 C 232.55 117.58 216.55 102.22 219.36 106.77 C 220.78 109.07 218.02 114.93 214.67 116.77 C 211.87 118.30 207.52 118.54 177.75 118.80 C 144.00 119.10 144.00 119.10 144.00 112.61 C 144.00 109.04 144.35 105.90 144.78 105.64 C 147.60 103.89 193.97 99.89 212.31 99.81 C 226.11 99.75 226.11 99.75 224.12 97.62 C 221.10 94.41 218.05 86.96 218.02 82.76 C 218.00 79.02 218.00 79.02 223.04 82.12 C 229.11 85.86 240.33 89.95 244.58 89.98 C 247.66 90.00 247.66 90.00 244.73 84.08 C 239.97 74.49 240.91 61.57 246.70 57.02 C 249.25 55.02 249.25 55.02 245.14 48.76 C 240.06 41.00 229.51 28.47 225.50 25.41 C 222.50 23.13 222.50 23.13 222.85 27.60 C 223.30 33.22 221.69 37.19 217.46 40.90 C 213.31 44.55 206.74 46.00 194.45 46.00 C 185.31 46.00 185.00 45.93 185.02 43.75 C 185.05 40.42 188.29 33.87 192.00 29.65 C 193.80 27.61 195.09 25.84 194.88 25.72 C 194.67 25.60 191.35 23.93 187.50 22.02 C 183.65 20.10 178.53 16.57 176.13 14.18 C 171.77 9.82 171.77 9.82 167.57 11.42 C 162.89 13.21 150.38 21.23 145.00 25.89 C 141.50 28.92 141.50 28.92 147.08 28.96 C 154.81 29.02 157.45 31.76 157.48 39.81 C 157.50 45.50 157.50 45.50 145.45 45.44 C 134.64 45.38 132.95 45.13 128.95 42.94 C 123.70 40.06 120.02 33.75 119.97 27.54 C 119.94 23.50 119.94 23.50 113.21 30.50 C 109.51 34.35 103.63 41.45 100.15 46.28 C 93.82 55.07 93.82 55.07 96.53 57.20 C 99.99 59.92 102.00 64.74 102.00 70.32 C 102.00 75.83 100.51 80.29 96.79 85.90 C 93.87 90.30 93.87 90.30 99.76 89.68 C 105.66 89.07 105.66 89.07 107.95 94.59 C 109.21 97.63 111.99 102.44 114.12 105.28 C 118.00 110.45 118.00 110.45 118.00 138.85 C 118.00 167.25 118.00 167.25 114.80 166.61 C 109.65 165.58 107.20 163.40 106.31 159.05 C 105.50 155.06 105.50 155.06 100.00 161.74 C 96.97 165.42 92.20 171.17 89.39 174.52 C 84.27 180.62 84.27 180.62 87.37 182.40 C 90.40 184.14 90.43 184.22 88.49 185.67 C 84.97 188.31 66.73 196.78 59.00 199.36 C 46.49 203.54 31.33 206.27 24.39 205.58 C 18.00 204.95 9.50 202.50 7.09 200.61 C 5.90 199.67 5.79 200.29 6.35 204.55 C 7.05 209.86 12.83 233.15 13.65 233.98 C 13.91 234.25 17.14 234.34 20.81 234.19 C 27.97 233.89 36.71 235.77 42.79 238.91 C 46.50 240.83 46.50 240.83 48.74 236.47 C 49.97 234.08 53.22 229.87 55.96 227.13 Z  M 49.50 180.19 C 58.12 175.99 69.81 172.46 91.08 167.63 C 93.66 167.05 93.66 167.03 92.80 160.27 C 92.32 156.55 91.76 153.01 91.56 152.42 C 91.30 151.66 86.85 151.89 76.85 153.16 C 68.96 154.17 62.14 154.87 61.69 154.72 C 61.24 154.58 66.72 148.72 73.87 141.71 C 83.52 132.23 88.30 128.29 92.49 126.37 C 96.93 124.34 97.98 123.44 97.41 122.15 C 93.86 114.04 92.62 108.56 92.22 99.25 C 91.77 89.00 91.77 89.00 83.64 88.99 C 79.16 88.98 73.86 88.71 71.86 88.38 C 68.22 87.77 68.22 87.77 68.74 92.39 C 69.26 97.00 69.26 97.00 61.05 97.00 C 52.83 97.00 52.83 97.00 55.86 91.75 C 65.86 74.43 83.35 52.49 91.89 46.57 C 94.13 45.02 95.75 43.40 95.48 42.97 C 95.21 42.54 86.21 38.70 75.47 34.45 C 64.73 30.20 53.95 25.45 51.51 23.90 C 47.06 21.08 47.06 21.08 45.30 24.06 C 42.17 29.37 32.18 34.69 20.77 37.14 C 15.82 38.21 15.82 38.21 16.49 41.81 C 17.27 45.97 20.03 51.69 24.18 57.75 C 27.28 62.27 29.15 63.30 28.29 60.00 C 27.07 55.34 34.07 50.00 41.40 50.00 C 43.96 50.00 45.03 50.51 45.49 51.96 C 46.35 54.69 45.17 60.49 42.34 67.30 C 39.40 74.39 29.23 92.74 27.73 93.66 C 25.96 94.76 21.25 88.15 20.24 83.14 C 19.30 78.50 19.30 78.50 14.17 89.17 C 9.68 98.49 3.50 114.90 4.24 115.54 C 4.38 115.66 7.20 117.13 10.50 118.80 C 13.80 120.47 19.63 124.01 23.46 126.67 C 30.43 131.50 30.43 131.50 35.02 126.89 C 38.05 123.86 41.65 121.53 45.56 120.06 C 52.58 117.43 61.78 115.45 62.70 116.36 C 63.69 117.35 55.09 129.30 44.97 141.00 C 31.36 156.74 33.47 155.43 26.26 152.60 C 20.09 150.19 20.09 150.19 19.04 153.34 C 18.46 155.08 15.97 160.04 13.49 164.37 C 11.02 168.69 9.01 172.52 9.01 172.87 C 9.02 173.21 13.03 175.47 17.92 177.89 C 22.82 180.30 29.00 183.95 31.66 186.00 C 36.50 189.73 36.50 189.73 40.00 186.43 C 41.92 184.61 46.20 181.80 49.50 180.19 Z  M 144.22 153.25 C 144.50 138.50 144.50 138.50 160.75 138.23 C 177.00 137.95 177.00 137.95 177.00 152.98 C 177.00 168.00 177.00 168.00 160.47 168.00 C 143.95 168.00 143.95 168.00 144.22 153.25 Z  M 112.00 86.51 C 112.00 86.25 113.46 85.41 115.25 84.66 C 117.04 83.92 119.98 82.06 121.78 80.54 C 124.90 77.91 125.05 77.48 124.78 71.70 C 124.50 65.63 124.50 65.63 128.50 64.77 C 130.70 64.30 151.53 64.05 174.79 64.21 C 221.11 64.53 219.64 64.32 218.52 70.43 C 218.22 72.04 217.87 73.46 217.74 73.59 C 217.61 73.72 214.12 72.67 210.00 71.26 C 203.69 69.10 200.28 68.64 188.50 68.33 C 174.50 67.97 174.50 67.97 179.66 70.39 C 187.53 74.08 188.67 77.97 182.80 81.11 C 179.51 82.87 164.94 84.98 149.00 86.00 C 132.65 87.05 112.00 87.33 112.00 86.51 Z "/>
</g>
</svg>