<?xml version="1.0" encoding="UTF-8" standalone="no"?>
<!DOCTYPE svg PUBLIC "-//W3C//DTD SVG 1.1//EN" "http://www.w3.org/Graphics/SVG/1.1/DTD/svg11.dtd" >
<svg xmlns="http://www.w3.org/2000/svg" xmlns:xlink="http://www.w3.org/1999/xlink" version="1.1" viewBox="0 0 256 256">
 <g >
 <path fill="currentColor"
d=" M 58.27 239.23 C 60.69 235.53 65.45 227.32 68.85 221.00 C 72.25 214.68 77.25 206.55 79.95 202.94 C 84.88 196.37 84.88 196.37 82.19 190.94 C 79.78 186.07 79.46 184.19 79.15 172.76 C 78.80 160.00 78.80 160.00 86.18 160.00 C 94.57 160.00 97.04 161.19 99.03 166.21 C 99.76 168.02 100.45 169.64 100.57 169.82 C 100.70 169.99 102.95 168.50 105.57 166.50 C 108.20 164.49 112.86 161.58 115.94 160.03 C 121.26 157.35 121.69 157.28 124.52 158.75 C 126.16 159.61 130.55 162.69 134.28 165.60 C 141.07 170.89 141.07 170.89 144.46 167.20 C 147.77 163.58 148.00 163.50 155.17 163.50 C 162.50 163.50 162.50 163.50 162.77 187.85 C 163.04 212.20 163.04 212.20 150.27 211.82 C 139.66 211.50 136.82 211.08 133.50 209.31 C 129.28 207.07 126.08 202.65 125.05 197.61 C 124.44 194.59 124.42 194.60 117.89 203.04 C 114.29 207.69 109.91 214.04 108.16 217.15 C 104.97 222.79 104.97 222.79 110.63 225.98 C 113.74 227.74 119.23 232.06 122.84 235.58 C 129.41 241.98 129.41 241.98 131.95 239.61 C 138.35 233.63 139.00 233.53 171.00 233.19 C 209.22 232.79 217.78 233.92 224.76 240.30 C 227.01 242.36 227.01 242.36 236.26 233.31 C 241.34 228.34 247.40 223.31 249.72 222.13 C 253.93 219.99 253.93 219.99 250.58 212.05 C 246.62 202.66 240.70 191.82 238.55 190.04 C 237.28 188.99 236.91 189.09 236.38 190.64 C 230.71 206.96 224.73 211.09 205.75 211.81 C 194.00 212.25 194.00 212.25 194.00 190.75 C 194.00 178.92 194.28 167.84 194.62 166.12 C 195.25 163.00 195.25 163.00 204.28 163.00 C 213.31 163.00 213.31 163.00 216.99 166.87 C 220.67 170.73 220.67 170.73 224.58 167.76 C 227.54 165.51 238.28 158.22 242.86 155.34 C 243.06 155.22 240.92 151.10 238.11 146.19 C 235.30 141.28 233.00 136.75 233.00 136.13 C 233.00 134.44 232.04 134.73 228.35 137.55 C 219.96 143.94 219.89 143.95 181.07 143.98 C 147.58 144.00 145.41 143.89 141.57 141.99 C 139.33 140.89 136.40 139.13 135.05 138.09 C 132.60 136.19 132.60 136.19 136.41 131.55 C 145.15 120.88 165.45 108.96 176.19 108.18 C 181.43 107.80 181.91 107.56 182.19 105.21 C 182.36 103.80 183.00 102.49 183.61 102.29 C 185.59 101.64 199.36 115.54 204.40 123.27 C 209.29 130.78 209.29 130.78 212.89 129.27 C 217.85 127.20 229.40 128.00 235.06 130.80 C 239.07 132.78 239.42 132.81 240.64 131.21 C 242.54 128.71 246.81 115.51 248.33 107.48 C 249.94 98.97 249.55 97.40 242.68 84.50 C 237.78 75.32 237.00 74.38 233.21 73.04 C 230.94 72.24 228.79 71.88 228.44 72.23 C 228.09 72.58 228.35 74.53 229.02 76.56 C 231.32 83.52 228.96 102.00 225.77 102.00 C 223.22 102.00 197.15 81.47 197.05 79.39 C 196.99 78.09 212.87 64.06 219.14 59.89 C 223.96 56.68 232.99 53.00 236.04 53.00 C 238.46 53.00 238.46 52.83 236.03 48.07 C 233.79 43.67 217.21 21.20 214.68 19.13 C 213.18 17.90 213.00 18.05 213.00 20.48 C 213.00 22.20 211.92 24.21 210.05 25.96 C 204.88 30.78 200.01 31.50 172.50 31.50 C 150.32 31.50 147.13 31.30 144.21 29.70 C 140.72 27.80 137.01 22.67 137.00 19.75 C 137.00 18.79 136.60 18.00 136.11 18.00 C 135.62 18.00 130.81 21.99 125.43 26.86 C 115.65 35.72 115.65 35.72 110.96 28.61 C 108.38 24.70 104.93 20.25 103.29 18.71 C 100.31 15.93 100.31 15.93 90.41 18.54 C 82.99 20.49 79.17 21.00 75.20 20.56 C 69.90 19.97 69.90 19.97 70.54 23.35 C 71.37 27.77 69.36 48.04 67.42 54.82 C 66.51 58.03 65.43 59.98 64.70 59.74 C 61.78 58.78 58.60 40.38 59.17 27.71 C 59.50 20.24 59.50 20.24 50.50 19.70 C 45.55 19.40 38.59 18.38 35.04 17.43 C 28.58 15.71 28.58 15.71 24.88 20.01 C 20.99 24.53 13.22 37.45 12.32 40.90 C 11.83 42.76 12.05 42.84 15.14 41.96 C 20.09 40.54 31.57 40.79 35.43 42.41 C 37.93 43.45 38.98 44.64 39.50 47.00 C 40.42 51.20 39.22 59.00 37.64 59.00 C 36.97 59.00 32.40 56.99 27.51 54.53 C 22.61 52.07 18.55 50.16 18.48 50.28 C 18.41 50.40 16.87 53.42 15.06 57.00 C 13.25 60.58 10.69 64.94 9.37 66.70 C 6.97 69.91 6.97 69.91 18.23 75.57 C 24.43 78.69 30.37 81.85 31.43 82.59 C 33.15 83.79 33.72 83.57 36.73 80.47 C 39.76 77.35 40.64 77.00 45.55 77.00 C 51.00 77.00 51.00 77.00 51.00 89.62 C 51.00 102.23 51.00 102.23 44.52 101.82 C 39.38 101.49 36.33 100.54 29.84 97.22 C 25.33 94.91 21.55 93.14 21.44 93.26 C 21.33 93.39 19.78 96.42 18.01 100.00 C 16.23 103.58 13.74 107.89 12.47 109.58 C 10.15 112.66 10.15 112.66 19.18 117.08 C 24.15 119.51 30.04 122.71 32.27 124.19 C 36.34 126.87 36.34 126.87 39.92 122.85 C 42.70 119.74 44.29 118.80 47.00 118.67 C 50.50 118.50 50.50 118.50 50.78 130.85 C 51.06 143.20 51.06 143.20 42.28 142.83 C 31.69 142.37 26.87 140.36 24.53 135.41 C 23.63 133.52 23.21 131.42 23.59 130.74 C 24.99 128.27 15.59 137.69 8.93 145.44 C 2.11 153.38 2.11 153.38 7.56 156.66 C 10.56 158.47 16.33 162.18 20.38 164.92 C 27.75 169.89 27.75 169.89 30.04 167.46 C 33.24 164.05 39.56 161.23 45.75 160.42 C 51.00 159.74 51.00 159.74 50.99 169.12 C 50.97 191.05 47.28 205.43 40.76 209.00 C 34.57 212.39 31.56 205.70 32.30 190.17 C 32.79 179.85 32.79 179.85 30.43 182.06 C 25.17 187.00 16.00 210.35 16.00 218.80 C 16.00 221.61 15.40 221.03 28.41 230.85 C 39.79 239.45 51.96 247.14 53.09 246.45 C 53.52 246.18 55.85 242.93 58.27 239.23 Z  M 117.18 147.08 C 115.49 144.75 113.59 141.30 112.97 139.42 C 112.35 137.54 111.68 136.00 111.49 136.00 C 111.29 136.00 108.78 137.46 105.91 139.25 C 100.99 142.31 100.06 142.52 89.84 142.84 C 79.00 143.18 79.00 143.18 79.00 130.59 C 79.00 119.26 79.18 118.00 80.75 118.00 C 82.74 118.01 88.98 121.58 89.03 122.74 C 89.05 123.16 89.70 124.34 90.47 125.36 C 91.80 127.12 92.17 126.99 97.69 122.75 C 103.44 118.33 110.98 114.00 112.93 114.00 C 113.48 114.00 116.26 117.49 119.11 121.75 C 121.95 126.01 125.42 130.74 126.82 132.25 C 129.37 135.00 129.37 135.00 126.61 140.77 C 125.09 143.95 123.04 147.63 122.05 148.94 C 120.25 151.32 120.25 151.32 117.18 147.08 Z  M 106.66 101.59 C 104.54 97.96 102.66 95.00 102.47 95.00 C 102.29 95.00 99.88 96.40 97.13 98.11 C 93.31 100.48 90.57 101.34 85.56 101.75 C 79.00 102.27 79.00 102.27 79.00 89.64 C 79.00 77.00 79.00 77.00 85.10 77.00 C 90.72 77.00 91.47 77.27 94.65 80.45 C 98.10 83.90 98.10 83.90 104.80 79.58 C 108.48 77.20 113.86 74.07 116.75 72.61 C 119.64 71.16 122.00 69.77 122.00 69.52 C 122.00 69.16 111.43 53.24 110.47 52.18 C 110.31 52.00 108.45 52.99 106.34 54.39 C 102.54 56.90 92.20 60.17 90.75 59.32 C 90.34 59.08 90.00 55.34 90.00 51.01 C 90.00 39.85 91.51 38.66 105.01 39.20 C 111.26 39.45 112.46 39.77 112.24 41.12 C 112.09 42.03 113.62 43.97 115.74 45.55 C 117.81 47.09 123.26 51.51 127.85 55.37 C 135.60 61.88 136.28 62.25 137.28 60.44 C 141.71 52.48 147.27 51.00 172.66 51.00 C 193.65 51.00 192.54 50.33 186.56 59.34 C 175.53 75.96 145.01 98.00 133.02 98.00 C 128.57 98.00 127.86 97.65 124.69 93.96 C 122.78 91.72 120.58 87.58 119.77 84.71 C 118.31 79.50 118.31 79.50 116.14 83.00 C 113.30 87.59 111.82 92.96 111.09 101.34 C 110.50 108.18 110.50 108.18 106.66 101.59 Z "/>
</g>
</svg>