<?xml version="1.0" encoding="UTF-8" standalone="no"?>
<!DOCTYPE svg PUBLIC "-//W3C//DTD SVG 1.1//EN" "http://www.w3.org/Graphics/SVG/1.1/DTD/svg11.dtd" >
<svg xmlns="http://www.w3.org/2000/svg" xmlns:xlink="http://www.w3.org/1999/xlink" version="1.1" viewBox="0 0 256 256">
 <g >
 <path fill="currentColor"
d=" M 73.73 239.56 C 78.79 235.00 78.79 235.00 128.50 235.00 C 178.21 235.00 178.21 235.00 183.27 239.56 C 186.06 242.06 189.10 244.52 190.02 245.01 C 193.40 246.82 205.64 238.20 213.11 228.75 C 217.12 223.67 217.12 223.67 214.02 222.37 C 208.85 220.19 207.53 215.65 207.51 200.00 C 207.50 183.82 209.04 178.31 214.27 175.79 C 217.50 174.24 217.50 174.24 210.92 167.87 C 196.44 153.86 189.00 148.08 189.00 150.86 C 189.00 152.85 182.62 159.67 178.80 161.75 C 175.04 163.81 173.36 164.00 159.41 164.00 C 144.14 164.00 144.14 164.00 143.50 158.75 C 143.15 155.86 143.00 150.80 143.18 147.50 C 143.50 141.50 143.50 141.50 173.00 141.50 C 205.72 141.50 207.53 141.77 214.12 147.73 C 217.21 150.52 218.10 150.91 218.57 149.68 C 219.34 147.66 232.47 138.62 239.05 135.57 C 244.21 133.18 244.21 133.18 238.36 126.83 C 235.14 123.34 229.86 117.45 226.63 113.74 C 223.40 110.03 220.36 107.00 219.88 107.00 C 219.40 107.00 219.00 108.24 219.00 109.77 C 219.00 114.28 215.67 119.25 210.99 121.73 C 206.77 123.95 206.04 124.00 174.82 124.00 C 142.95 124.00 142.95 124.00 143.64 115.75 C 144.78 101.97 144.35 102.55 153.57 102.19 C 163.16 101.81 168.47 103.22 172.12 107.13 C 174.87 110.07 174.87 110.07 180.18 105.99 C 183.11 103.75 188.04 100.71 191.13 99.23 C 196.77 96.55 196.77 96.55 192.21 90.52 C 189.71 87.21 187.17 83.86 186.58 83.07 C 185.99 82.29 189.78 84.50 195.00 87.99 C 200.22 91.48 204.65 94.71 204.83 95.17 C 205.02 95.63 207.72 96.01 210.83 96.02 C 213.95 96.03 221.45 96.70 227.50 97.51 C 233.55 98.32 238.86 98.99 239.31 98.99 C 241.45 99.01 249.34 76.25 250.54 66.56 C 251.28 60.61 251.28 60.61 247.22 63.83 C 232.82 75.23 225.47 73.92 177.00 51.36 C 148.14 37.93 144.63 36.04 144.17 33.64 C 143.61 30.72 146.13 25.89 149.19 24.03 C 152.03 22.30 152.03 22.30 146.77 18.82 C 143.87 16.91 138.41 13.63 134.63 11.52 C 127.77 7.70 127.77 7.70 122.13 10.45 C 119.04 11.96 113.47 15.21 109.76 17.67 C 103.01 22.15 103.01 22.15 106.51 25.44 C 111.87 30.50 111.32 32.85 103.36 38.81 C 83.96 53.34 54.92 67.00 37.08 69.99 C 25.42 71.95 16.60 70.17 7.25 63.96 C 4.58 62.19 4.00 62.08 4.00 63.35 C 4.00 66.52 9.37 81.75 13.04 89.00 C 19.14 101.04 18.39 100.53 26.90 98.59 C 30.89 97.68 38.28 96.90 43.32 96.86 C 52.49 96.77 52.49 96.77 62.00 90.55 C 67.22 87.13 72.12 83.97 72.87 83.53 C 73.63 83.09 71.88 85.73 69.00 89.41 C 66.11 93.08 63.92 96.20 64.13 96.33 C 64.33 96.47 66.94 97.69 69.92 99.04 C 72.91 100.39 78.30 103.44 81.90 105.80 C 88.45 110.10 88.45 110.10 90.40 107.43 C 91.47 105.96 93.83 104.13 95.64 103.38 C 99.52 101.76 112.59 101.53 113.54 103.06 C 113.90 103.65 114.44 108.60 114.74 114.06 C 115.29 124.00 115.29 124.00 82.30 124.00 C 49.91 124.00 49.24 123.96 45.01 121.73 C 40.25 119.21 37.00 114.26 37.00 109.54 C 37.00 106.64 36.73 106.81 28.39 115.02 C 23.66 119.68 17.99 125.73 15.80 128.46 C 11.81 133.41 11.81 133.41 18.16 136.46 C 25.71 140.08 36.62 147.58 37.44 149.70 C 37.90 150.90 38.83 150.48 41.88 147.73 C 48.50 141.75 50.19 141.50 84.00 141.50 C 114.50 141.50 114.50 141.50 114.78 152.75 C 115.07 164.00 115.07 164.00 97.66 164.00 C 80.25 164.00 80.25 164.00 73.00 157.50 C 65.76 151.01 65.76 151.01 61.74 153.25 C 59.53 154.49 53.46 159.53 48.25 164.45 C 38.78 173.40 38.78 173.40 42.64 174.48 C 48.25 176.05 49.32 179.00 49.82 194.23 C 50.28 208.20 49.54 216.88 47.68 219.42 C 47.02 220.33 44.68 221.69 42.49 222.45 C 38.50 223.84 38.50 223.84 47.55 232.67 C 57.17 242.05 64.19 246.50 67.01 244.99 C 67.92 244.51 70.94 242.06 73.73 239.56 Z  M 80.76 199.26 C 80.49 190.59 80.45 183.16 80.69 182.75 C 80.93 182.34 102.70 182.00 129.08 182.00 C 177.05 182.00 177.05 182.00 176.77 198.25 C 176.50 214.50 176.50 214.50 128.88 214.76 C 81.27 215.02 81.27 215.02 80.76 199.26 Z  M 97.00 85.10 C 93.47 84.34 87.01 81.29 83.72 78.82 C 82.12 77.62 84.45 76.06 105.60 64.09 C 132.77 48.72 126.53 48.36 160.77 67.23 C 178.17 76.83 178.96 77.39 177.39 79.13 C 176.48 80.13 173.66 81.97 171.12 83.22 C 166.62 85.44 165.64 85.50 133.50 85.67 C 115.35 85.76 98.92 85.51 97.00 85.10 Z "/>
</g>
</svg>