<?xml version="1.0" encoding="UTF-8" standalone="no"?>
<!DOCTYPE svg PUBLIC "-//W3C//DTD SVG 1.1//EN" "http://www.w3.org/Graphics/SVG/1.1/DTD/svg11.dtd" >
<svg xmlns="http://www.w3.org/2000/svg" xmlns:xlink="http://www.w3.org/1999/xlink" version="1.1" viewBox="0 0 256 256">
 <g >
 <path fill="currentColor"
d=" M 43.39 241.59 C 44.72 239.33 49.73 227.35 54.53 214.99 C 63.41 192.10 66.76 184.60 70.12 180.05 C 71.97 177.54 71.97 177.43 69.75 173.00 C 67.52 168.53 67.50 168.14 67.17 115.50 C 66.93 77.96 67.18 60.52 68.01 55.72 C 69.19 48.95 69.19 48.95 140.85 49.22 C 208.58 49.48 212.69 49.60 216.00 51.37 C 217.93 52.39 220.42 54.07 221.54 55.09 C 223.55 56.92 223.70 56.87 231.04 51.55 C 235.14 48.58 241.08 44.86 244.23 43.30 C 249.97 40.45 249.97 40.45 244.73 32.46 C 238.64 23.17 231.23 13.44 227.86 10.31 C 225.50 8.12 225.50 8.12 225.83 12.81 C 226.10 16.72 225.66 18.18 223.19 21.58 C 221.56 23.83 218.49 26.53 216.37 27.58 C 212.65 29.42 209.37 29.50 133.00 29.50 C 53.50 29.50 53.50 29.50 48.84 26.76 C 42.55 23.06 39.69 18.32 40.17 12.36 C 40.53 7.77 40.53 7.77 35.86 12.85 C 33.29 15.65 28.02 22.99 24.15 29.18 C 17.11 40.43 17.11 40.43 22.81 43.51 C 32.84 48.93 32.82 48.92 34.47 56.17 C 35.57 61.02 36.00 68.56 36.00 83.20 C 35.99 105.66 35.61 107.27 29.06 112.11 C 26.00 114.38 26.00 114.38 29.62 117.36 C 35.55 122.25 36.00 124.41 35.97 147.72 C 35.92 182.39 33.88 202.33 29.87 207.44 C 23.73 215.24 19.86 205.05 23.55 190.80 C 24.41 187.51 24.93 184.29 24.71 183.66 C 23.74 180.83 3.00 217.36 3.00 221.89 C 3.00 224.81 10.09 230.68 28.92 243.34 C 38.46 249.75 38.63 249.73 43.39 241.59 Z "/>
</g>
</svg>