<?xml version="1.0" encoding="UTF-8" standalone="no"?>
<!DOCTYPE svg PUBLIC "-//W3C//DTD SVG 1.1//EN" "http://www.w3.org/Graphics/SVG/1.1/DTD/svg11.dtd" >
<svg xmlns="http://www.w3.org/2000/svg" xmlns:xlink="http://www.w3.org/1999/xlink" version="1.1" viewBox="0 0 256 256">
 <g >
 <path fill="currentColor"
d=" M 57.12 245.68 C 59.84 243.30 65.55 239.49 69.82 237.22 C 84.73 229.28 111.00 222.19 111.00 226.11 C 111.00 228.44 120.07 237.04 127.98 242.23 C 135.07 246.88 135.51 247.03 136.36 245.12 C 136.85 244.01 138.89 242.29 140.88 241.30 C 144.19 239.65 148.00 239.50 185.50 239.50 C 226.22 239.50 226.53 239.52 230.31 241.75 C 232.40 242.99 234.26 244.00 234.44 244.00 C 234.62 244.00 235.30 241.86 235.96 239.25 C 237.64 232.57 243.68 221.47 247.40 218.23 C 250.54 215.50 250.54 215.50 247.55 213.48 C 240.05 208.41 234.58 191.80 236.64 180.35 C 237.21 177.13 238.06 173.64 238.51 172.60 C 239.32 170.72 239.28 170.72 236.04 172.60 C 234.23 173.64 229.49 177.53 225.50 181.23 C 218.26 187.95 218.26 187.95 219.09 192.23 C 220.23 198.12 220.18 203.81 218.96 208.22 C 216.97 215.38 218.52 215.11 181.80 214.79 C 148.82 214.50 148.82 214.50 146.89 212.12 C 145.10 209.90 144.98 208.20 145.23 187.62 C 145.50 165.50 145.50 165.50 177.34 165.24 C 209.19 164.97 209.19 164.97 213.84 168.83 C 224.05 177.29 222.67 177.37 233.74 167.72 C 239.11 163.04 244.36 158.27 245.40 157.11 C 247.28 155.03 247.28 155.00 245.20 155.00 C 241.12 155.00 238.01 152.77 236.90 149.05 C 236.22 146.79 235.94 137.93 236.16 125.42 C 236.53 103.63 237.16 101.03 242.61 98.96 C 244.89 98.09 244.99 97.82 243.71 95.99 C 242.93 94.89 237.50 89.06 231.63 83.04 C 220.95 72.09 220.95 72.09 215.73 77.09 C 210.22 82.35 201.27 87.40 198.47 86.84 C 197.12 86.56 197.60 85.32 201.11 80.07 C 209.86 66.98 223.09 55.00 228.80 55.00 C 230.59 55.00 231.06 54.59 230.61 53.42 C 230.27 52.55 230.00 51.47 230.00 51.01 C 230.00 49.21 222.61 41.52 214.13 34.50 C 209.20 30.42 204.51 26.14 203.70 24.98 C 202.25 22.91 202.17 22.96 199.86 27.10 C 198.56 29.42 195.77 32.71 193.66 34.41 C 190.06 37.31 189.22 37.52 180.16 37.83 C 170.50 38.17 170.50 38.17 175.46 33.09 C 178.41 30.06 180.03 27.68 179.46 27.18 C 173.35 21.90 157.69 12.00 155.43 12.00 C 154.83 12.00 147.85 16.27 139.92 21.48 C 125.50 30.96 125.50 30.96 131.06 30.98 C 138.44 31.01 140.50 32.54 139.60 37.32 C 138.44 43.52 130.34 58.46 126.04 62.34 C 122.08 65.93 122.07 65.93 118.38 64.39 C 116.35 63.54 113.63 62.15 112.33 61.30 C 110.26 59.94 110.16 59.60 111.51 58.62 C 112.86 57.63 112.31 56.04 107.25 46.32 C 101.45 35.15 101.45 35.15 98.97 37.11 C 91.18 43.29 80.69 46.33 69.00 45.83 C 61.50 45.50 61.50 45.50 67.26 39.82 C 73.03 34.14 73.03 34.14 62.36 23.48 C 49.95 11.06 52.97 11.15 34.85 22.72 C 22.67 30.49 22.67 30.49 26.28 31.08 C 33.43 32.24 34.95 36.03 32.53 46.62 C 29.17 61.29 20.77 83.00 18.46 83.00 C 16.26 83.00 14.73 76.62 15.91 72.36 C 16.48 70.30 16.78 68.45 16.58 68.25 C 15.16 66.83 6.99 83.16 4.48 92.43 C 2.76 98.78 2.76 98.78 6.00 104.85 C 9.52 111.46 19.37 123.00 21.48 123.00 C 22.21 123.00 25.09 120.50 27.89 117.43 C 32.69 112.18 33.09 111.95 35.09 113.35 C 37.00 114.69 37.53 114.65 40.36 112.92 C 45.94 109.52 46.00 109.66 46.00 125.50 C 46.00 140.00 46.00 140.00 40.04 140.00 C 33.48 140.00 25.35 137.40 19.53 133.46 C 17.54 132.11 15.59 131.01 15.21 131.02 C 14.82 131.03 13.42 133.52 12.11 136.56 C 10.79 139.60 8.33 144.18 6.64 146.72 C 4.60 149.81 3.98 151.49 4.79 151.76 C 6.47 152.32 16.55 159.96 22.00 164.81 C 26.50 168.81 26.50 168.81 31.06 163.91 C 35.42 159.22 35.86 159.00 40.93 159.00 C 46.24 159.00 46.24 159.00 45.81 178.25 C 45.44 195.10 45.12 198.08 43.28 202.18 C 40.74 207.82 34.37 214.95 29.54 217.55 C 26.16 219.37 24.93 221.00 26.93 221.00 C 27.45 221.00 31.68 224.60 36.33 229.01 C 42.32 234.68 45.77 238.92 48.15 243.51 C 49.99 247.07 51.65 249.99 51.84 250.00 C 52.02 250.00 54.40 248.05 57.12 245.68 Z  M 109.80 215.25 C 107.86 205.30 101.98 187.14 99.45 183.28 C 97.42 180.18 96.58 181.21 95.60 188.03 C 93.84 200.21 82.51 206.47 77.55 198.00 C 75.73 194.90 75.46 192.48 75.17 176.75 C 74.84 159.00 74.84 159.00 78.54 159.00 C 81.48 159.00 83.00 159.76 85.96 162.75 C 88.01 164.81 89.89 167.11 90.13 167.86 C 90.44 168.80 92.86 167.50 97.99 163.64 C 102.07 160.57 107.46 157.03 109.95 155.78 C 112.45 154.53 114.66 153.42 114.85 153.32 C 115.04 153.21 114.07 151.64 112.68 149.82 C 111.30 147.99 108.58 143.01 106.64 138.75 C 103.26 131.32 101.86 129.79 100.49 132.02 C 98.89 134.61 87.28 139.29 81.26 139.77 C 75.00 140.27 75.00 140.27 75.00 125.55 C 75.00 114.23 75.29 110.93 76.25 111.24 C 77.48 111.65 81.50 117.01 82.25 119.25 C 82.47 119.92 86.63 117.63 92.07 113.84 C 97.26 110.23 103.08 106.49 105.00 105.51 C 106.92 104.54 108.62 103.65 108.76 103.53 C 108.99 103.34 98.23 82.00 97.50 81.20 C 97.35 81.03 94.51 82.65 91.20 84.80 C 82.48 90.43 78.69 91.21 61.77 90.83 C 53.74 90.65 46.93 90.26 46.64 89.98 C 46.35 89.69 48.08 84.59 50.47 78.64 C 52.86 72.70 55.04 66.97 55.31 65.92 C 55.77 64.16 56.83 64.00 67.80 64.00 C 79.79 64.00 79.79 64.00 82.81 67.44 C 84.47 69.33 86.29 71.69 86.84 72.68 C 87.80 74.40 87.97 74.38 90.18 72.37 C 93.25 69.57 105.01 61.66 105.40 62.13 C 105.57 62.33 106.25 64.73 106.92 67.46 C 107.59 70.19 109.68 75.77 111.57 79.85 C 113.46 83.94 115.00 87.76 115.00 88.34 C 115.00 88.92 113.79 90.65 112.31 92.20 C 110.41 94.18 110.07 95.00 111.14 95.00 C 111.97 95.00 113.68 96.09 114.93 97.43 C 118.54 101.27 119.13 111.97 118.80 166.84 C 118.50 216.65 118.50 216.65 116.00 220.32 C 114.62 222.34 113.05 223.99 112.50 223.99 C 111.95 223.99 110.73 220.06 109.80 215.25 Z  M 145.07 131.25 C 145.11 121.49 145.45 111.47 145.82 109.00 C 146.50 104.50 146.50 104.50 156.25 104.21 C 166.00 103.93 166.00 103.93 166.00 121.82 C 166.00 131.67 165.71 141.81 165.36 144.36 C 164.73 149.00 164.73 149.00 154.86 149.00 C 145.00 149.00 145.00 149.00 145.07 131.25 Z  M 190.23 126.75 C 190.50 104.50 190.50 104.50 199.25 104.21 C 208.00 103.92 208.00 103.92 208.00 122.60 C 208.00 133.85 207.54 142.80 206.84 145.13 C 205.68 149.00 205.68 149.00 197.82 149.00 C 189.96 149.00 189.96 149.00 190.23 126.75 Z  M 145.31 85.57 C 142.50 83.14 142.50 83.14 145.68 79.82 C 149.02 76.33 159.49 60.17 160.53 56.91 C 161.09 55.15 162.24 55.00 175.02 55.00 C 188.91 55.00 188.91 55.00 181.32 67.25 C 167.29 89.89 169.41 88.00 158.01 88.00 C 148.97 88.00 147.87 87.79 145.31 85.57 Z "/>
</g>
</svg>