<?xml version="1.0" encoding="UTF-8" standalone="no"?>
<!DOCTYPE svg PUBLIC "-//W3C//DTD SVG 1.1//EN" "http://www.w3.org/Graphics/SVG/1.1/DTD/svg11.dtd" >
<svg xmlns="http://www.w3.org/2000/svg" xmlns:xlink="http://www.w3.org/1999/xlink" version="1.1" viewBox="0 0 256 256">
 <g >
 <path fill="currentColor"
d=" M 85.00 240.93 C 88.03 238.88 92.30 235.62 94.50 233.67 C 98.50 230.13 98.50 230.13 96.14 228.43 C 93.97 226.87 91.00 221.45 91.00 219.03 C 91.00 217.89 106.68 217.59 111.86 218.62 C 113.57 218.96 116.05 220.32 117.37 221.64 C 119.77 224.04 119.77 224.04 123.98 220.52 C 126.29 218.58 128.35 217.00 128.54 217.00 C 128.73 217.00 128.62 220.13 128.30 223.96 C 127.72 230.93 127.72 230.93 141.11 237.43 C 148.47 241.00 155.39 244.06 156.49 244.22 C 158.19 244.46 159.38 242.25 164.67 229.07 C 168.20 220.26 172.65 211.10 175.03 207.73 C 179.20 201.82 179.20 201.82 176.67 199.16 C 175.28 197.70 173.84 195.26 173.46 193.75 C 172.78 191.00 172.78 191.00 189.54 191.00 C 206.29 191.00 206.29 191.00 205.69 198.14 C 205.23 203.59 204.57 205.83 202.87 207.64 C 198.69 212.08 189.87 209.92 187.79 203.94 C 187.38 202.75 186.92 202.83 185.19 204.37 C 182.96 206.35 180.55 212.79 179.50 219.61 C 178.87 223.73 178.87 223.73 184.03 224.41 C 186.87 224.79 191.07 225.82 193.35 226.70 C 198.97 228.88 209.73 236.05 213.95 240.42 C 215.84 242.39 217.68 244.00 218.03 244.00 C 218.38 244.00 220.36 241.54 222.43 238.53 C 226.84 232.13 240.33 219.00 242.50 219.00 C 244.80 219.00 244.39 218.21 239.01 212.32 C 231.11 203.68 230.50 200.59 230.50 169.50 C 230.50 144.83 230.61 143.30 232.64 139.50 C 235.10 134.91 237.53 132.53 240.75 131.55 C 243.00 130.86 243.00 130.86 240.11 126.68 C 238.52 124.38 234.97 120.38 232.21 117.78 C 229.46 115.18 225.59 111.17 223.61 108.86 C 221.63 106.55 219.88 104.84 219.72 105.08 C 211.91 116.21 209.84 117.00 188.58 117.00 C 171.79 117.00 171.79 117.00 166.79 112.50 C 164.04 110.03 161.21 108.00 160.50 108.00 C 159.23 108.00 150.75 114.10 144.01 119.86 C 139.87 123.39 139.17 123.05 134.79 115.28 C 131.55 109.54 130.94 109.16 128.87 111.66 C 127.41 113.43 118.34 117.97 116.25 117.99 C 114.26 118.01 114.80 115.18 117.02 113.99 C 118.99 112.94 118.97 112.84 116.27 110.58 C 114.75 109.30 110.65 106.46 107.17 104.26 C 100.83 100.26 100.83 100.26 104.05 97.97 C 106.14 96.48 107.68 95.99 108.45 96.59 C 112.89 100.02 125.88 108.15 127.64 108.61 C 130.77 109.42 135.13 106.79 143.08 99.29 C 150.12 92.64 150.12 92.64 147.71 91.18 C 143.75 88.78 142.82 86.17 142.25 75.85 C 141.71 66.00 141.71 66.00 174.10 66.01 C 191.92 66.02 208.19 66.30 210.25 66.64 C 214.00 67.26 214.00 67.26 214.00 80.09 C 214.00 92.92 214.00 92.92 218.36 95.47 C 225.40 99.60 235.02 103.15 240.78 103.74 C 246.14 104.29 246.14 104.29 243.57 100.51 C 240.23 95.59 238.78 89.99 238.82 82.23 C 238.86 74.73 241.18 67.17 244.58 63.51 C 247.06 60.83 247.06 60.83 240.77 54.66 C 235.09 49.11 226.02 43.29 220.38 41.59 C 218.59 41.05 218.33 41.30 218.71 43.27 C 218.97 44.60 218.38 46.55 217.33 47.84 C 214.54 51.28 205.42 52.07 172.00 51.77 C 142.50 51.50 142.50 51.50 142.20 46.18 C 141.89 40.86 141.89 40.86 164.36 41.18 C 185.85 41.49 186.97 41.60 189.88 43.75 C 191.55 44.99 193.18 46.00 193.50 46.00 C 193.81 46.00 196.99 43.76 200.56 41.03 C 204.12 38.30 209.08 34.86 211.58 33.40 C 216.12 30.74 216.12 30.74 213.64 28.12 C 212.28 26.68 209.99 22.84 208.56 19.59 C 205.97 13.68 205.97 13.68 203.73 15.78 C 200.14 19.15 191.07 22.82 183.38 24.01 C 178.63 24.75 158.63 25.00 123.38 24.77 C 64.80 24.38 66.24 24.53 54.71 17.59 C 48.93 14.10 48.93 14.10 46.62 19.30 C 45.35 22.16 43.13 25.91 41.67 27.63 C 39.03 30.75 39.03 30.75 45.66 34.63 C 49.30 36.76 54.20 40.19 56.54 42.25 C 58.89 44.31 61.09 46.00 61.44 46.00 C 61.79 46.00 63.45 44.99 65.12 43.75 C 68.03 41.60 69.15 41.49 90.64 41.18 C 113.11 40.86 113.11 40.86 112.80 46.18 C 112.50 51.50 112.50 51.50 83.00 51.77 C 49.58 52.07 40.46 51.28 37.67 47.84 C 36.62 46.55 36.03 44.60 36.29 43.27 C 36.66 41.30 36.41 41.04 34.62 41.57 C 29.97 42.94 18.20 50.67 13.24 55.63 C 7.99 60.88 7.99 60.88 10.44 63.53 C 17.88 71.55 18.08 91.06 10.84 101.22 C 8.64 104.32 8.64 104.32 14.11 103.75 C 20.01 103.14 29.56 99.62 36.78 95.39 C 41.28 92.75 41.28 92.75 40.74 81.02 C 40.45 74.57 40.59 68.66 41.06 67.90 C 41.77 66.75 48.40 66.44 77.62 66.19 C 113.31 65.88 113.31 65.88 112.67 76.33 C 112.32 82.08 111.59 87.96 111.04 89.39 C 109.71 92.90 105.54 92.89 101.86 89.36 C 99.16 86.77 99.04 86.76 95.65 88.36 C 90.85 90.64 65.31 90.73 60.96 88.48 C 58.13 87.02 57.83 87.09 52.61 90.56 C 47.19 94.16 47.19 94.16 53.09 99.58 C 56.33 102.56 59.23 105.00 59.53 105.00 C 59.83 105.00 61.40 104.03 63.01 102.84 C 68.22 98.98 88.30 98.99 93.07 102.86 C 95.23 104.61 95.23 104.61 90.12 108.51 C 84.92 112.47 83.88 114.00 86.39 114.00 C 87.70 114.00 89.00 116.03 89.00 118.08 C 89.00 118.59 83.42 119.00 76.50 119.00 C 69.47 119.00 64.00 118.59 64.00 118.07 C 64.00 116.87 66.87 114.00 68.07 114.00 C 68.58 114.00 69.00 113.66 69.00 113.25 C 69.00 112.16 52.38 100.99 50.82 101.04 C 49.03 101.10 34.74 111.19 34.24 112.75 C 34.01 113.44 34.53 114.00 35.38 114.00 C 36.23 114.00 37.41 114.90 38.00 116.00 C 38.84 117.58 38.76 118.00 37.60 118.00 C 34.96 118.00 30.79 116.00 26.74 112.80 C 23.55 110.26 22.62 109.93 21.96 111.08 C 21.51 111.86 19.11 115.40 16.63 118.95 C 12.12 125.41 12.12 125.41 16.00 127.61 C 18.13 128.82 22.26 131.63 25.18 133.86 C 30.49 137.91 30.49 137.91 33.05 135.45 C 35.54 133.07 39.00 132.14 39.00 133.85 C 39.00 136.50 36.55 141.01 34.81 141.56 C 32.96 142.15 33.16 142.59 37.14 146.68 C 39.54 149.14 43.46 152.32 45.85 153.73 C 50.19 156.30 50.19 156.30 54.62 154.15 C 57.06 152.97 60.62 152.00 62.53 152.00 C 65.91 152.00 66.00 152.10 66.00 156.00 C 66.00 160.00 66.00 160.00 56.25 159.99 C 46.50 159.98 46.50 159.98 41.56 156.07 C 36.62 152.15 36.62 152.15 33.04 153.98 C 28.43 156.33 17.00 164.91 17.00 166.02 C 17.00 166.48 18.01 167.18 19.25 167.57 C 22.47 168.57 22.97 169.76 22.98 176.45 C 23.00 181.42 22.60 182.81 20.52 184.98 C 18.04 187.57 18.04 187.57 23.04 191.53 C 25.78 193.72 30.00 196.53 32.40 197.80 C 36.77 200.09 36.77 200.09 40.53 197.55 C 43.98 195.20 45.15 195.00 55.14 195.00 C 66.00 195.00 66.00 195.00 66.00 199.50 C 66.00 204.00 66.00 204.00 55.05 204.00 C 41.26 204.00 35.43 202.77 25.96 197.89 C 21.82 195.75 18.17 194.00 17.85 194.00 C 17.53 194.00 16.48 196.07 15.51 198.61 C 14.55 201.14 12.45 204.70 10.85 206.52 C 7.94 209.83 7.94 209.83 15.25 213.86 C 19.27 216.08 24.35 219.20 26.53 220.79 C 30.50 223.67 30.50 223.67 33.15 221.72 C 36.70 219.11 42.52 218.10 54.27 218.04 C 64.04 218.00 64.04 218.00 62.01 221.99 C 60.60 224.75 58.58 226.68 55.43 228.28 C 50.90 230.59 50.90 230.59 55.20 233.65 C 61.91 238.43 77.07 246.07 78.35 245.33 C 78.98 244.96 81.97 242.98 85.00 240.93 Z  M 166.69 102.75 C 170.03 100.78 171.88 100.50 181.67 100.50 C 191.71 100.50 193.14 100.73 195.90 102.77 C 198.97 105.04 198.97 105.04 205.41 99.77 C 210.80 95.36 211.58 94.35 210.18 93.59 C 209.25 93.10 206.82 91.38 204.77 89.77 C 201.26 87.04 200.90 86.96 198.80 88.43 C 195.60 90.67 167.28 90.71 162.97 88.48 C 160.25 87.08 159.89 87.11 158.08 88.92 C 157.01 89.99 154.95 91.64 153.50 92.59 C 150.88 94.31 150.88 94.31 156.15 99.66 C 159.06 102.60 161.76 105.00 162.16 105.00 C 162.56 105.00 164.60 103.99 166.69 102.75 Z  M 62.44 84.47 C 65.40 82.23 90.14 82.38 94.00 84.66 C 96.74 86.28 96.91 86.24 100.65 83.27 C 102.77 81.59 105.29 79.34 106.26 78.27 C 107.96 76.39 107.85 76.19 103.07 72.16 C 98.13 67.99 98.13 67.99 94.32 70.25 C 90.93 72.25 89.16 72.50 78.50 72.50 C 67.96 72.50 65.98 72.22 62.18 70.23 C 57.86 67.96 57.86 67.96 53.29 71.98 C 50.77 74.19 48.26 76.00 47.71 76.00 C 47.15 76.00 48.45 77.28 50.60 78.85 C 52.74 80.42 55.36 82.67 56.40 83.85 C 58.63 86.36 59.79 86.48 62.44 84.47 Z  M 166.00 84.50 C 169.80 82.33 193.22 82.43 196.96 84.64 C 199.70 86.25 199.80 86.22 205.72 81.48 C 211.70 76.69 211.70 76.69 206.27 72.27 C 201.30 68.22 200.69 67.97 199.13 69.39 C 194.48 73.59 171.70 74.13 164.18 70.21 C 160.44 68.26 160.44 68.26 155.61 72.46 C 150.78 76.65 150.78 76.65 156.12 81.32 C 161.99 86.46 162.37 86.58 166.00 84.50 Z  M 141.93 209.86 C 141.27 208.64 140.96 205.20 141.20 201.86 C 141.44 198.64 141.31 196.00 140.91 196.00 C 140.52 196.00 138.86 197.66 137.24 199.69 C 134.28 203.37 134.28 203.37 133.06 199.69 C 132.39 197.66 131.71 196.00 131.55 196.00 C 131.39 196.00 129.21 197.14 126.72 198.53 C 120.62 201.94 110.44 203.96 99.25 203.98 C 90.00 204.00 90.00 204.00 90.00 199.50 C 90.00 195.00 90.00 195.00 99.88 195.00 C 107.10 195.00 110.07 195.37 110.91 196.39 C 111.55 197.16 113.35 198.32 114.92 198.97 C 117.36 199.98 118.41 199.83 121.99 198.01 C 124.30 196.82 128.14 194.07 130.51 191.88 C 134.82 187.91 134.82 187.91 132.41 185.50 C 130.46 183.56 130.00 182.07 130.02 177.80 C 130.03 172.09 130.51 170.87 133.31 169.34 C 134.92 168.46 134.40 167.66 128.75 162.38 C 121.79 155.87 115.36 151.61 114.53 152.96 C 114.24 153.43 111.90 155.21 109.33 156.91 C 105.17 159.66 103.85 160.00 97.33 160.00 C 90.00 160.00 90.00 160.00 90.00 156.00 C 90.00 152.19 90.15 152.00 93.10 152.00 C 94.80 152.00 97.53 152.95 99.17 154.12 C 102.04 156.17 102.27 156.18 105.90 154.55 C 110.71 152.38 122.14 142.11 119.82 142.05 C 117.37 141.98 115.00 139.22 115.00 136.43 C 115.00 133.49 116.65 133.32 119.45 135.96 C 121.53 137.91 121.55 137.90 126.52 133.96 C 129.26 131.79 133.84 129.04 136.71 127.84 C 139.57 126.65 141.64 125.23 141.32 124.70 C 140.99 124.17 141.35 123.94 142.11 124.17 C 142.87 124.41 144.40 126.38 145.50 128.55 C 147.39 132.29 147.50 134.48 147.50 169.50 C 147.50 189.85 147.15 207.74 146.73 209.25 C 145.81 212.53 143.51 212.83 141.93 209.86 Z  M 47.00 178.00 C 47.00 173.00 47.00 173.00 56.50 173.00 C 66.00 173.00 66.00 173.00 66.00 178.00 C 66.00 183.00 66.00 183.00 56.50 183.00 C 47.00 183.00 47.00 183.00 47.00 178.00 Z  M 90.00 178.00 C 90.00 173.00 90.00 173.00 97.03 173.00 C 104.92 173.00 105.66 173.65 104.56 179.51 C 103.91 183.00 103.91 183.00 96.95 183.00 C 90.00 183.00 90.00 183.00 90.00 178.00 Z  M 173.00 169.50 C 173.00 162.00 173.00 162.00 189.50 162.00 C 206.00 162.00 206.00 162.00 206.00 169.50 C 206.00 177.00 206.00 177.00 189.50 177.00 C 173.00 177.00 173.00 177.00 173.00 169.50 Z  M 173.20 141.25 C 173.50 134.50 173.50 134.50 189.75 134.23 C 206.00 133.95 206.00 133.95 206.00 140.98 C 206.00 148.00 206.00 148.00 189.45 148.00 C 172.91 148.00 172.91 148.00 173.20 141.25 Z  M 64.61 138.42 C 64.27 137.55 64.00 135.51 64.00 133.89 C 64.00 130.94 64.00 130.94 77.24 131.22 C 91.65 131.52 92.04 131.71 90.57 137.58 C 89.97 139.98 89.85 140.00 77.59 140.00 C 67.23 140.00 65.12 139.74 64.61 138.42 Z "/>
</g>
</svg>