<?xml version="1.0" encoding="UTF-8" standalone="no"?>
<!DOCTYPE svg PUBLIC "-//W3C//DTD SVG 1.1//EN" "http://www.w3.org/Graphics/SVG/1.1/DTD/svg11.dtd" >
<svg xmlns="http://www.w3.org/2000/svg" xmlns:xlink="http://www.w3.org/1999/xlink" version="1.1" viewBox="0 0 256 256">
 <g >
 <path fill="currentColor"
d=" M 225.40 239.59 C 229.81 233.41 236.67 226.92 244.00 222.00 C 245.93 220.71 247.67 219.52 247.87 219.37 C 248.07 219.22 246.64 217.59 244.69 215.74 C 242.74 213.90 240.81 211.10 240.41 209.51 C 240.02 207.92 240.11 194.90 240.61 180.56 C 241.65 151.32 242.42 147.94 248.73 144.98 C 251.96 143.47 251.96 143.47 244.86 130.98 C 240.95 124.12 237.63 118.36 237.48 118.18 C 237.33 118.01 234.79 119.23 231.85 120.89 C 222.95 125.91 216.09 126.97 192.25 126.99 C 168.00 127.00 170.11 128.25 171.93 115.00 C 172.42 111.42 173.14 102.30 173.52 94.71 C 174.11 82.90 174.41 81.10 175.64 82.12 C 176.43 82.77 177.78 85.83 178.64 88.92 C 180.20 94.53 180.20 94.53 187.60 94.16 C 191.67 93.95 195.00 94.07 195.00 94.42 C 195.00 94.78 193.88 97.27 192.52 99.96 C 190.18 104.58 187.51 113.84 188.29 114.62 C 188.49 114.82 192.32 115.63 196.82 116.41 C 201.44 117.22 207.66 119.17 211.15 120.92 C 214.54 122.61 217.83 124.00 218.46 124.00 C 219.09 124.00 221.84 122.89 224.57 121.53 C 232.51 117.57 233.16 115.72 234.60 93.04 C 235.29 82.29 236.36 71.78 236.99 69.68 C 238.37 65.07 244.50 58.00 247.12 58.00 C 249.83 58.00 249.47 56.78 245.25 51.72 C 240.66 46.22 237.40 43.51 229.00 38.20 C 222.50 34.10 222.50 34.10 220.68 37.64 C 218.45 41.97 212.77 44.70 205.00 45.17 C 199.50 45.50 199.50 45.50 199.82 42.50 C 200.30 37.89 204.03 31.21 208.22 27.42 C 210.30 25.54 212.00 23.84 212.00 23.63 C 212.00 23.42 210.64 22.98 208.97 22.64 C 207.20 22.29 203.84 19.94 200.88 16.97 C 195.86 11.95 195.78 11.92 192.16 13.09 C 187.15 14.71 179.38 18.66 174.12 22.27 C 169.75 25.27 169.75 25.27 173.52 26.57 C 177.53 27.95 178.64 29.08 179.64 32.84 C 180.46 35.94 178.51 42.22 176.03 44.47 C 174.11 46.21 173.93 46.18 170.53 43.59 C 168.60 42.12 165.68 39.48 164.04 37.73 C 161.07 34.54 161.07 34.54 157.28 38.01 C 148.30 46.23 141.00 53.50 141.00 54.22 C 141.00 54.65 142.03 55.00 143.30 55.00 C 144.56 55.00 146.14 55.54 146.80 56.20 C 148.25 57.65 148.36 75.82 147.05 100.51 C 146.03 119.74 143.86 128.20 139.40 130.23 C 138.08 130.83 137.00 131.63 137.00 132.02 C 137.00 133.69 149.63 146.28 153.68 148.66 C 158.14 151.27 158.14 151.27 162.36 147.14 C 166.58 143.00 166.58 143.00 190.29 143.00 C 214.00 143.00 214.00 143.00 213.99 148.75 C 213.99 151.91 213.70 156.86 213.35 159.75 C 212.72 165.00 212.72 165.00 189.10 165.00 C 176.11 165.00 163.93 164.55 162.02 164.01 C 160.12 163.46 155.91 161.38 152.67 159.38 C 147.95 156.46 146.60 156.01 145.90 157.12 C 145.42 157.88 145.02 158.91 145.02 159.40 C 144.98 161.71 140.94 156.26 138.92 151.17 C 137.68 148.05 136.59 145.38 136.49 145.24 C 136.39 145.10 133.47 146.45 130.00 148.24 C 123.88 151.40 123.24 151.51 109.50 151.84 C 95.31 152.18 95.31 152.18 94.63 140.92 C 94.22 134.13 94.32 129.28 94.90 128.70 C 95.42 128.18 98.65 127.95 102.07 128.20 C 107.70 128.61 108.61 129.00 111.66 132.33 C 115.03 136.01 115.03 136.01 121.27 131.13 C 124.70 128.45 129.53 125.24 132.00 124.01 C 134.47 122.77 136.67 121.60 136.87 121.42 C 137.08 121.24 136.04 119.65 134.57 117.90 C 133.10 116.15 130.76 112.49 129.39 109.77 C 127.68 106.41 126.42 105.01 125.44 105.39 C 121.11 107.05 134.10 94.09 141.88 88.98 C 144.20 87.45 144.20 87.45 142.15 83.98 C 139.22 79.01 135.00 67.42 135.00 64.33 C 135.00 61.71 135.00 61.71 127.14 62.37 C 122.82 62.73 116.98 63.71 114.15 64.55 C 109.02 66.07 109.02 66.07 111.47 69.79 C 114.54 74.45 115.58 80.71 114.06 85.33 C 112.79 89.15 107.12 94.84 101.81 97.61 C 98.50 99.34 98.50 99.34 103.50 101.61 C 106.25 102.86 111.77 104.72 115.76 105.75 C 123.01 107.62 123.01 107.62 119.26 109.56 C 115.88 111.30 112.90 111.53 89.68 111.81 C 64.57 112.12 63.89 112.07 64.88 110.22 C 65.75 108.60 65.35 108.06 62.20 106.51 C 60.16 105.52 56.09 103.94 53.15 103.01 C 47.79 101.32 47.79 101.32 53.46 99.02 C 59.13 96.72 59.13 96.72 56.25 95.32 C 51.55 93.05 46.37 88.30 44.66 84.70 C 42.76 80.70 43.89 74.91 47.28 71.24 C 48.74 69.66 49.06 68.66 48.33 67.93 C 47.13 66.73 33.27 64.09 27.90 64.03 C 24.32 64.00 24.29 64.04 22.59 70.30 C 21.65 73.76 19.45 79.56 17.69 83.17 C 14.50 89.74 14.50 89.74 20.50 92.85 C 23.80 94.56 28.21 97.37 30.31 99.10 C 34.12 102.24 34.12 102.24 29.13 105.60 C 22.42 110.12 22.05 111.00 26.88 111.00 C 31.39 111.00 32.46 112.03 31.58 115.54 C 30.80 118.66 24.47 125.00 22.14 125.00 C 21.15 125.00 18.15 123.89 15.47 122.53 C 12.79 121.18 10.39 120.28 10.13 120.54 C 9.36 121.30 11.81 130.68 14.58 137.60 C 17.12 143.95 17.13 144.09 15.43 148.55 C 14.48 151.03 12.20 155.19 10.35 157.78 C 8.51 160.37 7.00 162.79 7.00 163.15 C 7.00 163.51 8.39 164.29 10.08 164.88 C 13.61 166.11 27.00 174.80 27.00 175.86 C 27.00 176.25 23.80 179.19 19.89 182.38 C 12.78 188.19 12.78 188.19 15.83 190.04 C 20.66 192.98 21.29 195.14 20.80 206.91 C 20.28 219.40 19.34 221.66 14.27 222.61 C 10.56 223.30 10.56 223.30 15.53 227.74 C 18.26 230.17 23.67 234.79 27.55 237.99 C 34.60 243.81 34.60 243.81 43.74 235.90 C 52.88 228.00 52.88 228.00 80.32 228.00 C 103.90 228.00 107.94 228.22 109.04 229.55 C 112.39 233.59 125.14 242.88 126.58 242.33 C 127.43 242.01 131.64 237.67 135.95 232.69 C 143.58 223.87 143.72 223.60 141.78 222.03 C 138.47 219.34 136.93 195.75 139.79 191.41 C 140.18 190.81 141.31 189.89 142.30 189.35 C 143.90 188.47 143.58 187.88 139.30 183.92 C 136.66 181.47 133.00 178.31 131.16 176.89 C 127.83 174.31 127.83 174.31 133.01 170.59 C 140.56 165.16 141.60 164.92 139.47 169.10 C 138.51 170.97 136.84 173.76 135.76 175.31 C 134.67 176.85 133.94 178.24 134.14 178.38 C 134.34 178.53 135.95 179.23 137.72 179.94 C 139.49 180.64 145.11 184.06 150.19 187.53 C 159.44 193.83 159.44 193.83 161.66 190.12 C 162.87 188.08 164.91 185.90 166.19 185.28 C 167.54 184.62 177.35 183.91 189.90 183.56 C 211.29 182.96 211.29 182.96 210.71 190.23 C 209.22 208.72 201.48 216.75 192.63 208.98 C 190.15 206.80 188.85 204.52 187.95 200.79 C 186.71 195.63 186.71 195.63 184.32 198.56 C 180.31 203.50 175.98 213.58 174.45 221.58 C 173.65 225.76 173.00 229.30 173.00 229.45 C 173.00 229.60 175.66 229.75 178.91 229.80 C 192.02 229.99 209.88 236.11 216.29 242.62 C 218.06 244.41 219.80 245.91 220.16 245.94 C 220.53 245.97 222.88 243.11 225.40 239.59 Z  M 90.10 93.64 C 94.82 92.34 99.51 90.82 100.51 90.25 C 102.18 89.32 102.09 89.10 99.42 87.70 C 95.62 85.71 89.68 79.42 87.49 75.07 C 86.00 72.11 85.92 70.93 86.94 66.38 C 87.59 63.49 89.06 59.93 90.21 58.46 C 91.85 56.38 92.02 55.63 91.00 55.00 C 88.74 53.60 102.13 52.75 119.84 53.16 C 136.70 53.54 136.70 53.54 134.36 48.52 C 131.61 42.62 131.26 34.71 133.50 29.35 C 134.33 27.37 135.00 25.43 135.00 25.04 C 135.00 23.59 125.25 19.06 117.97 17.13 C 113.86 16.04 107.12 14.65 103.00 14.04 C 98.88 13.43 93.92 12.69 92.00 12.39 C 88.50 11.84 88.50 11.84 91.69 15.17 C 95.94 19.61 97.17 23.02 95.64 26.10 C 93.83 29.73 90.42 30.88 73.24 33.70 C 59.63 35.93 54.24 36.30 33.36 36.39 C 9.21 36.50 9.21 36.50 10.74 39.50 C 14.83 47.53 21.25 56.14 25.00 58.62 C 29.10 61.33 29.10 61.33 40.80 59.18 C 47.24 57.99 55.76 56.73 59.75 56.37 C 66.99 55.71 66.99 55.71 65.61 60.31 C 64.85 62.84 62.64 67.74 60.70 71.20 C 57.18 77.50 57.18 77.50 62.96 81.23 C 66.14 83.28 70.71 87.42 73.12 90.43 C 75.73 93.70 78.31 95.92 79.51 95.95 C 80.61 95.98 85.38 94.94 90.10 93.64 Z  M 48.00 200.19 C 48.00 192.24 48.39 188.87 49.47 187.44 C 50.28 186.37 50.95 185.15 50.97 184.73 C 50.99 184.30 47.18 181.46 42.50 178.41 C 37.83 175.37 34.00 172.52 34.00 172.10 C 34.00 169.98 40.03 169.00 53.05 169.00 C 67.00 169.00 67.00 169.00 67.00 190.00 C 67.00 211.00 67.00 211.00 57.50 211.00 C 48.00 211.00 48.00 211.00 48.00 200.19 Z  M 95.00 190.00 C 95.00 169.00 95.00 169.00 104.75 169.00 C 112.71 169.01 115.10 169.37 117.75 170.99 C 119.54 172.08 121.00 173.31 121.00 173.74 C 121.00 174.16 119.08 175.72 116.75 177.22 C 114.41 178.72 111.15 181.05 109.50 182.40 C 106.65 184.74 106.59 184.93 108.35 186.24 C 110.62 187.93 111.90 194.15 111.96 203.75 C 112.00 211.00 112.00 211.00 103.50 211.00 C 95.00 211.00 95.00 211.00 95.00 190.00 Z  M 31.00 151.00 C 31.00 150.45 31.40 150.00 31.89 150.00 C 33.49 150.00 42.80 141.04 48.04 134.45 C 53.17 128.00 53.17 128.00 59.47 128.00 C 67.02 128.00 66.97 127.89 66.99 142.25 C 67.00 152.00 67.00 152.00 49.00 152.00 C 37.67 152.00 31.00 151.63 31.00 151.00 Z  M 198.04 101.07 C 196.46 98.11 196.80 96.00 198.85 96.00 C 200.82 96.00 206.18 85.60 207.49 79.27 C 208.15 76.04 208.15 76.04 205.32 77.51 C 200.51 80.02 195.28 79.43 191.84 75.99 C 189.14 73.29 188.90 72.56 189.52 68.89 C 190.19 64.94 190.13 64.82 187.85 65.51 C 186.56 65.90 183.14 67.47 180.25 69.01 C 175.00 71.81 175.00 71.81 175.00 66.90 C 175.00 62.00 175.00 62.00 192.50 62.00 C 208.52 62.00 210.00 62.15 209.96 63.75 C 209.70 74.84 207.06 100.22 206.04 101.46 C 204.20 103.67 199.30 103.43 198.04 101.07 Z "/>
</g>
</svg>