<?xml version="1.0" encoding="UTF-8" standalone="no"?>
<!DOCTYPE svg PUBLIC "-//W3C//DTD SVG 1.1//EN" "http://www.w3.org/Graphics/SVG/1.1/DTD/svg11.dtd" >
<svg xmlns="http://www.w3.org/2000/svg" xmlns:xlink="http://www.w3.org/1999/xlink" version="1.1" viewBox="0 0 256 256">
 <g >
 <path fill="currentColor"
d=" M 83.00 174.50 C 83.00 100.00 83.00 100.00 86.50 100.00 C 90.00 100.00 90.00 100.00 90.00 80.50 C 90.00 61.00 90.00 61.00 86.50 61.00 C 83.00 61.00 83.00 61.00 83.00 34.50 C 83.00 8.00 83.00 8.00 57.50 8.00 C 32.00 8.00 32.00 8.00 31.99 34.25 C 31.97 60.50 31.97 60.50 19.99 78.97 C 8.00 97.44 8.00 97.44 8.00 164.72 C 8.00 232.00 8.00 232.00 16.00 232.00 C 24.00 232.00 24.00 232.00 24.00 165.94 C 24.00 99.88 24.00 99.88 27.75 100.19 C 31.50 100.50 31.50 100.50 31.76 174.75 C 32.01 249.00 32.01 249.00 57.51 249.00 C 83.00 249.00 83.00 249.00 83.00 174.50 Z  M 247.00 227.50 C 247.00 207.00 247.00 207.00 243.00 207.00 C 239.00 207.00 239.00 207.00 239.00 110.50 C 239.00 14.00 239.00 14.00 171.50 14.00 C 104.00 14.00 104.00 14.00 104.00 34.50 C 104.00 55.00 104.00 55.00 111.00 55.00 C 118.00 55.00 118.00 55.00 118.00 61.25 C 118.00 64.69 117.70 75.26 117.34 84.75 C 116.69 102.00 116.69 102.00 110.34 102.00 C 104.00 102.00 104.00 102.00 104.00 122.50 C 104.00 143.00 104.00 143.00 109.00 143.00 C 114.00 143.00 114.00 143.00 114.01 148.75 C 114.02 151.91 113.48 166.31 112.83 180.75 C 111.63 207.00 111.63 207.00 105.82 207.00 C 100.00 207.00 100.00 207.00 100.00 227.50 C 100.00 248.00 100.00 248.00 173.50 248.00 C 247.00 248.00 247.00 248.00 247.00 227.50 Z  M 161.46 203.25 C 161.73 201.19 162.44 187.35 163.04 172.50 C 163.64 157.65 164.32 144.94 164.54 144.25 C 164.82 143.35 167.92 143.00 175.47 143.00 C 186.00 143.00 186.00 143.00 186.00 175.00 C 186.00 207.00 186.00 207.00 173.49 207.00 C 160.98 207.00 160.98 207.00 161.46 203.25 Z  M 166.37 99.25 C 166.65 97.74 167.19 87.16 167.56 75.75 C 168.22 55.00 168.22 55.00 177.11 55.00 C 186.00 55.00 186.00 55.00 186.00 78.50 C 186.00 102.00 186.00 102.00 175.92 102.00 C 165.84 102.00 165.84 102.00 166.37 99.25 Z "/>
</g>
</svg>