<?xml version="1.0" encoding="UTF-8" standalone="no"?>
<!DOCTYPE svg PUBLIC "-//W3C//DTD SVG 1.1//EN" "http://www.w3.org/Graphics/SVG/1.1/DTD/svg11.dtd" >
<svg xmlns="http://www.w3.org/2000/svg" xmlns:xlink="http://www.w3.org/1999/xlink" version="1.1" viewBox="0 0 256 256">
 <g >
 <path fill="currentColor"
d=" M 57.84 230.89 C 77.00 212.78 77.00 212.78 77.00 189.49 C 77.00 166.19 77.00 166.19 82.25 165.52 C 91.52 164.35 90.86 166.16 88.85 147.24 C 87.87 138.03 87.05 129.43 87.04 128.12 C 87.00 125.85 86.78 125.77 82.00 126.41 C 77.00 127.07 77.00 127.07 77.00 108.08 C 77.00 89.10 77.00 89.10 83.25 88.80 C 89.50 88.50 89.50 88.50 89.77 69.25 C 90.04 50.00 90.04 50.00 83.52 50.00 C 77.00 50.00 77.00 50.00 77.00 29.00 C 77.00 8.00 77.00 8.00 50.50 8.00 C 24.00 8.00 24.00 8.00 24.00 29.00 C 24.00 50.00 24.00 50.00 15.50 50.00 C 7.00 50.00 7.00 50.00 7.00 69.50 C 7.00 89.00 7.00 89.00 15.50 89.00 C 24.00 89.00 24.00 89.00 24.00 111.43 C 24.00 137.06 25.18 134.42 13.25 135.53 C 8.83 135.94 6.01 136.65 6.02 137.35 C 6.03 137.98 6.70 146.38 7.50 156.00 C 8.30 165.62 8.97 173.89 8.98 174.36 C 9.00 175.16 14.46 174.72 21.25 173.38 C 24.00 172.84 24.00 172.84 24.00 195.42 C 24.00 218.00 24.00 218.00 18.58 218.00 C 12.38 218.00 13.18 216.52 10.52 233.00 C 9.68 238.22 8.75 243.96 8.45 245.75 C 7.91 249.00 7.91 249.00 23.29 249.00 C 38.68 249.00 38.68 249.00 57.84 230.89 Z  M 225.75 229.84 C 244.00 211.71 244.00 211.71 244.00 180.86 C 244.00 150.00 244.00 150.00 200.44 150.00 C 156.88 150.00 156.88 150.00 161.10 145.00 C 165.31 140.00 165.31 140.00 185.53 140.00 C 205.75 140.00 205.75 140.00 223.30 121.69 C 239.29 105.02 240.89 103.03 241.18 99.44 C 241.48 95.80 241.75 95.48 244.75 95.19 C 248.00 94.87 248.00 94.87 248.00 74.94 C 248.00 55.00 248.00 55.00 244.50 55.00 C 241.00 55.00 241.00 55.00 241.00 32.50 C 241.00 10.00 241.00 10.00 171.00 10.00 C 101.00 10.00 101.00 10.00 101.00 27.00 C 101.00 44.00 101.00 44.00 113.55 44.00 C 126.10 44.00 126.10 44.00 125.80 49.25 C 125.50 54.50 125.50 54.50 110.25 54.78 C 95.00 55.05 95.00 55.05 95.00 75.00 C 95.00 94.95 95.00 94.95 110.25 95.22 C 125.50 95.50 125.50 95.50 125.80 100.75 C 126.10 106.00 126.10 106.00 113.55 106.00 C 101.00 106.00 101.00 106.00 101.00 123.00 C 101.00 140.00 101.00 140.00 107.00 140.00 C 110.30 140.00 113.00 140.25 113.00 140.56 C 113.00 140.87 109.77 144.95 105.83 149.63 C 98.66 158.15 98.66 158.15 102.01 183.57 C 103.85 197.56 105.71 209.00 106.13 209.00 C 106.56 209.00 108.35 207.20 110.12 205.00 C 111.89 202.80 113.71 201.00 114.17 201.00 C 114.63 201.00 115.00 211.57 115.00 224.50 C 115.00 248.00 115.00 248.00 161.25 247.98 C 207.50 247.97 207.50 247.97 225.75 229.84 Z  M 164.00 199.00 C 164.00 185.00 164.00 185.00 179.00 185.00 C 194.00 185.00 194.00 185.00 194.00 199.00 C 194.00 213.00 194.00 213.00 179.00 213.00 C 164.00 213.00 164.00 213.00 164.00 199.00 Z  M 174.20 100.75 C 174.50 95.50 174.50 95.50 186.75 95.22 C 199.00 94.94 199.00 94.94 199.00 100.47 C 199.00 106.00 199.00 106.00 186.45 106.00 C 173.90 106.00 173.90 106.00 174.20 100.75 Z  M 174.67 54.33 C 174.30 53.97 174.00 51.49 174.00 48.83 C 174.00 44.00 174.00 44.00 186.50 44.00 C 199.00 44.00 199.00 44.00 199.00 49.50 C 199.00 55.00 199.00 55.00 187.17 55.00 C 180.66 55.00 175.03 54.70 174.67 54.33 Z "/>
</g>
</svg>