<?xml version="1.0" encoding="UTF-8" standalone="no"?>
<!DOCTYPE svg PUBLIC "-//W3C//DTD SVG 1.1//EN" "http://www.w3.org/Graphics/SVG/1.1/DTD/svg11.dtd" >
<svg xmlns="http://www.w3.org/2000/svg" xmlns:xlink="http://www.w3.org/1999/xlink" version="1.1" viewBox="0 0 256 256">
 <g >
 <path fill="currentColor"
d=" M 57.32 230.91 C 76.00 212.83 76.00 212.83 76.00 189.47 C 76.00 166.12 76.00 166.12 80.75 165.48 C 88.77 164.39 88.84 164.33 88.40 160.21 C 87.72 153.97 86.00 131.05 86.00 128.32 C 86.00 125.81 85.88 125.76 81.00 126.41 C 76.00 127.07 76.00 127.07 76.00 108.08 C 76.00 89.10 76.00 89.10 81.75 88.80 C 87.50 88.50 87.50 88.50 87.77 69.25 C 88.04 50.00 88.04 50.00 82.02 50.00 C 76.00 50.00 76.00 50.00 76.00 29.00 C 76.00 8.00 76.00 8.00 50.00 8.00 C 24.00 8.00 24.00 8.00 24.00 29.00 C 24.00 50.00 24.00 50.00 16.00 50.00 C 8.00 50.00 8.00 50.00 8.00 69.50 C 8.00 89.00 8.00 89.00 16.00 89.00 C 24.00 89.00 24.00 89.00 24.00 111.43 C 24.00 136.99 25.09 134.42 13.75 135.56 C 9.76 135.96 7.01 136.70 7.02 137.37 C 7.03 137.99 7.70 146.38 8.50 156.00 C 9.30 165.62 9.97 173.88 9.98 174.34 C 10.00 175.13 18.35 174.46 22.25 173.36 C 23.88 172.90 24.00 174.42 24.00 195.43 C 24.00 218.00 24.00 218.00 19.08 218.00 C 13.46 218.00 14.16 216.61 11.52 233.00 C 10.68 238.22 9.75 243.96 9.45 245.75 C 8.91 249.00 8.91 249.00 23.77 249.00 C 38.63 249.00 38.63 249.00 57.32 230.91 Z  M 133.00 243.24 C 133.50 237.99 133.50 237.99 142.00 243.47 C 150.50 248.95 150.50 248.95 194.22 248.97 C 242.84 249.00 237.15 251.68 245.12 225.00 C 246.18 221.43 247.30 217.71 247.60 216.75 C 248.10 215.11 246.38 215.00 221.07 215.00 C 194.00 215.00 194.00 215.00 194.00 209.50 C 194.00 204.00 194.00 204.00 218.00 204.00 C 242.00 204.00 242.00 204.00 242.00 189.50 C 242.00 175.00 242.00 175.00 218.00 175.00 C 194.00 175.00 194.00 175.00 194.00 170.50 C 194.00 166.00 194.00 166.00 199.79 166.00 C 205.57 166.00 205.57 166.00 223.97 147.50 C 239.14 132.25 242.87 129.00 245.19 129.00 C 248.00 129.00 248.00 129.00 248.00 112.00 C 248.00 95.00 248.00 95.00 244.50 95.00 C 241.00 95.00 241.00 95.00 241.00 76.52 C 241.00 58.04 241.00 58.04 217.75 57.77 C 194.50 57.50 194.50 57.50 194.19 54.25 C 193.87 51.00 193.87 51.00 220.94 51.00 C 248.00 51.00 248.00 51.00 248.00 34.00 C 248.00 17.00 248.00 17.00 221.00 17.00 C 194.00 17.00 194.00 17.00 194.00 12.50 C 194.00 8.00 194.00 8.00 170.00 8.00 C 146.00 8.00 146.00 8.00 146.00 12.50 C 146.00 17.00 146.00 17.00 118.50 17.00 C 91.00 17.00 91.00 17.00 91.00 34.00 C 91.00 51.00 91.00 51.00 118.50 51.00 C 146.00 51.00 146.00 51.00 146.00 54.50 C 146.00 58.00 146.00 58.00 122.00 58.00 C 98.00 58.00 98.00 58.00 98.00 72.00 C 98.00 86.00 98.00 86.00 122.00 86.00 C 146.00 86.00 146.00 86.00 146.00 90.50 C 146.00 95.00 146.00 95.00 118.50 95.00 C 91.00 95.00 91.00 95.00 91.00 112.00 C 91.00 129.00 91.00 129.00 118.50 129.00 C 146.00 129.00 146.00 129.00 146.00 133.50 C 146.00 138.00 146.00 138.00 122.00 138.00 C 98.00 138.00 98.00 138.00 98.00 152.00 C 98.00 166.00 98.00 166.00 122.00 166.00 C 146.00 166.00 146.00 166.00 146.00 186.00 C 146.00 197.00 145.73 206.00 145.40 206.00 C 145.08 206.00 143.50 205.23 141.90 204.28 C 138.54 202.30 138.48 201.67 140.14 187.01 C 140.77 181.48 141.09 176.76 140.85 176.52 C 140.04 175.71 100.51 171.21 99.91 171.86 C 99.15 172.67 90.61 243.95 91.20 244.53 C 91.71 245.04 128.76 248.86 131.00 248.63 C 132.05 248.53 132.65 246.91 133.00 243.24 Z  M 194.00 133.50 C 194.00 129.00 194.00 129.00 202.00 129.00 C 210.00 129.00 210.00 129.00 210.00 133.50 C 210.00 138.00 210.00 138.00 202.00 138.00 C 194.00 138.00 194.00 138.00 194.00 133.50 Z  M 194.00 90.50 C 194.00 86.00 194.00 86.00 202.00 86.00 C 210.00 86.00 210.00 86.00 210.00 90.50 C 210.00 95.00 210.00 95.00 202.00 95.00 C 194.00 95.00 194.00 95.00 194.00 90.50 Z "/>
</g>
</svg>