<?xml version="1.0" encoding="UTF-8" standalone="no"?>
<!DOCTYPE svg PUBLIC "-//W3C//DTD SVG 1.1//EN" "http://www.w3.org/Graphics/SVG/1.1/DTD/svg11.dtd" >
<svg xmlns="http://www.w3.org/2000/svg" xmlns:xlink="http://www.w3.org/1999/xlink" version="1.1" viewBox="0 0 256 256">
 <g >
 <path fill="currentColor"
d=" M 228.24 231.26 C 246.00 213.52 246.00 213.52 246.00 126.76 C 246.00 40.00 246.00 40.00 207.00 40.00 C 181.94 40.00 168.00 39.65 168.00 39.01 C 168.00 38.47 169.18 35.07 170.62 31.47 C 172.07 27.86 173.08 24.78 172.87 24.62 C 172.13 24.03 124.70 7.97 124.48 8.23 C 123.84 8.99 101.81 79.13 102.13 79.41 C 102.82 80.00 145.49 94.00 146.62 94.00 C 147.23 94.00 148.96 90.63 150.47 86.50 C 153.20 79.00 153.20 79.00 173.10 79.00 C 193.00 79.00 193.00 79.00 192.99 110.75 C 192.98 142.50 192.98 142.50 185.24 145.64 C 180.98 147.37 177.36 148.42 177.20 147.98 C 177.03 147.54 179.20 140.12 182.03 131.50 C 184.86 122.89 186.97 115.63 186.72 115.38 C 186.08 114.75 123.76 94.00 122.49 94.00 C 121.42 94.00 108.21 132.60 109.04 133.30 C 109.29 133.52 121.65 137.87 136.50 142.97 C 151.35 148.08 164.02 152.53 164.66 152.88 C 165.30 153.22 153.15 158.40 137.66 164.39 C 122.17 170.38 109.12 175.63 108.65 176.04 C 108.03 176.60 119.21 215.10 120.47 216.74 C 120.61 216.93 178.39 195.72 190.25 191.12 C 193.00 190.05 193.00 190.05 193.00 201.02 C 193.00 212.00 193.00 212.00 177.17 212.00 C 161.34 212.00 161.34 212.00 156.67 229.34 C 154.10 238.87 152.00 247.20 152.00 247.84 C 152.00 248.69 159.68 249.00 181.24 249.00 C 210.48 249.00 210.48 249.00 228.24 231.26 Z  M 79.84 209.89 C 99.00 191.78 99.00 191.78 99.00 110.39 C 99.00 29.00 99.00 29.00 72.75 29.03 C 46.50 29.06 46.50 29.06 27.75 46.76 C 9.00 64.45 9.00 64.45 9.00 146.23 C 9.00 228.00 9.00 228.00 34.84 228.00 C 60.68 228.00 60.68 228.00 79.84 209.89 Z  M 48.00 169.00 C 48.00 146.00 48.00 146.00 54.00 146.00 C 60.00 146.00 60.00 146.00 60.00 169.00 C 60.00 192.00 60.00 192.00 54.00 192.00 C 48.00 192.00 48.00 192.00 48.00 169.00 Z  M 48.00 87.50 C 48.00 65.00 48.00 65.00 54.00 65.00 C 60.00 65.00 60.00 65.00 60.00 87.50 C 60.00 110.00 60.00 110.00 54.00 110.00 C 48.00 110.00 48.00 110.00 48.00 87.50 Z "/>
</g>
</svg>