<?xml version="1.0" encoding="UTF-8" standalone="no"?>
<!DOCTYPE svg PUBLIC "-//W3C//DTD SVG 1.1//EN" "http://www.w3.org/Graphics/SVG/1.1/DTD/svg11.dtd" >
<svg xmlns="http://www.w3.org/2000/svg" xmlns:xlink="http://www.w3.org/1999/xlink" version="1.1" viewBox="0 0 256 256">
 <g >
 <path fill="currentColor"
d=" M 61.42 230.78 C 79.00 212.55 79.00 212.55 79.00 158.37 C 79.00 104.19 79.00 104.19 84.25 103.48 C 87.14 103.09 89.76 102.62 90.07 102.44 C 90.39 102.25 89.62 94.09 88.36 84.30 C 87.11 74.51 86.06 65.71 86.04 64.75 C 86.01 63.42 85.15 63.00 82.50 63.00 C 79.00 63.00 79.00 63.00 79.00 37.00 C 79.00 11.00 79.00 11.00 47.57 11.00 C 18.50 11.00 16.09 11.13 15.60 12.75 C 14.97 14.84 7.00 48.07 7.00 48.62 C 7.00 48.83 11.95 49.00 18.00 49.00 C 29.00 49.00 29.00 49.00 29.00 61.35 C 29.00 73.71 29.00 73.71 18.00 75.54 C 11.95 76.55 7.01 77.86 7.02 78.44 C 7.12 82.46 10.97 116.30 11.38 116.71 C 11.66 116.99 14.76 116.72 18.28 116.11 C 29.96 114.08 29.10 113.17 28.78 127.23 C 28.50 139.46 28.50 139.46 18.04 141.78 C 12.28 143.05 7.43 144.24 7.25 144.42 C 6.81 144.86 10.75 183.09 11.29 183.62 C 11.66 183.99 22.56 181.78 27.25 180.39 C 28.86 179.91 29.00 181.05 29.00 194.93 C 29.00 210.00 29.00 210.00 21.57 210.00 C 14.14 210.00 14.14 210.00 13.10 215.25 C 11.94 221.08 7.00 248.13 7.00 248.66 C 7.00 248.85 15.29 249.00 25.42 249.00 C 43.83 249.00 43.83 249.00 61.42 230.78 Z  M 248.00 229.00 C 248.00 211.00 248.00 211.00 222.50 211.00 C 197.00 211.00 197.00 211.00 197.00 204.50 C 197.00 198.00 197.00 198.00 221.00 198.00 C 245.00 198.00 245.00 198.00 245.00 179.50 C 245.00 161.00 245.00 161.00 221.00 161.00 C 197.00 161.00 197.00 161.00 197.00 155.00 C 197.00 149.00 197.00 149.00 203.24 149.00 C 209.48 149.00 209.48 149.00 227.74 130.76 C 246.00 112.52 246.00 112.52 246.00 61.26 C 246.00 10.00 246.00 10.00 188.22 10.00 C 130.45 10.00 130.45 10.00 112.22 27.58 C 94.00 45.17 94.00 45.17 94.00 97.08 C 94.00 149.00 94.00 149.00 118.00 149.00 C 142.00 149.00 142.00 149.00 142.00 155.00 C 142.00 161.00 142.00 161.00 118.50 161.00 C 95.00 161.00 95.00 161.00 95.00 179.50 C 95.00 198.00 95.00 198.00 118.50 198.00 C 142.00 198.00 142.00 198.00 142.00 204.50 C 142.00 211.00 142.00 211.00 117.00 211.00 C 92.00 211.00 92.00 211.00 92.00 229.00 C 92.00 247.00 92.00 247.00 170.00 247.00 C 248.00 247.00 248.00 247.00 248.00 229.00 Z  M 136.21 102.25 C 136.50 94.50 136.50 94.50 143.25 94.20 C 150.00 93.91 150.00 93.91 150.00 101.95 C 150.00 110.00 150.00 110.00 142.96 110.00 C 135.92 110.00 135.92 110.00 136.21 102.25 Z  M 189.21 102.25 C 189.50 94.50 189.50 94.50 196.25 94.20 C 203.00 93.91 203.00 93.91 203.00 101.95 C 203.00 110.00 203.00 110.00 195.96 110.00 C 188.92 110.00 188.92 110.00 189.21 102.25 Z  M 136.67 64.33 C 136.30 63.97 136.00 60.37 136.00 56.33 C 136.00 49.00 136.00 49.00 143.00 49.00 C 150.00 49.00 150.00 49.00 150.00 57.00 C 150.00 65.00 150.00 65.00 143.67 65.00 C 140.18 65.00 137.03 64.70 136.67 64.33 Z  M 189.67 64.33 C 189.30 63.97 189.00 60.37 189.00 56.33 C 189.00 49.00 189.00 49.00 196.00 49.00 C 203.00 49.00 203.00 49.00 203.00 57.00 C 203.00 65.00 203.00 65.00 196.67 65.00 C 193.18 65.00 190.03 64.70 189.67 64.33 Z "/>
</g>
</svg>