<?xml version="1.0" encoding="UTF-8" standalone="no"?>
<!DOCTYPE svg PUBLIC "-//W3C//DTD SVG 1.1//EN" "http://www.w3.org/Graphics/SVG/1.1/DTD/svg11.dtd" >
<svg xmlns="http://www.w3.org/2000/svg" xmlns:xlink="http://www.w3.org/1999/xlink" version="1.1" viewBox="0 0 256 256">
 <g >
 <path fill="currentColor"
d=" M 139.51 242.21 C 147.94 237.43 149.81 235.61 150.46 231.54 C 151.30 226.28 158.09 219.68 167.33 215.15 C 175.12 211.33 201.71 204.32 212.09 203.36 C 218.64 202.75 219.22 202.48 223.01 198.38 C 228.30 192.63 228.38 188.96 223.35 182.37 C 218.42 175.91 216.70 168.94 216.59 155.00 C 216.49 142.33 218.25 131.15 221.09 126.44 C 225.49 119.12 227.30 103.51 224.60 96.05 C 223.46 92.89 222.79 92.45 216.84 90.95 C 203.34 87.54 193.51 80.06 184.15 66.07 C 179.69 59.39 178.14 56.12 177.63 52.25 C 176.11 40.78 170.40 29.31 162.81 22.45 C 158.04 18.14 146.94 12.69 138.54 10.53 C 132.41 8.96 115.42 8.45 113.33 9.78 C 112.68 10.19 111.54 12.32 110.78 14.52 C 109.22 19.03 93.89 42.90 87.66 50.50 C 80.47 59.27 69.06 71.25 59.64 79.90 C 49.72 89.03 33.01 102.00 31.19 102.00 C 30.57 102.00 29.07 105.24 27.87 109.19 C 25.95 115.52 25.83 116.93 26.91 120.94 C 28.17 125.66 31.07 129.57 34.01 130.50 C 36.32 131.24 37.79 134.81 39.14 143.03 C 40.27 149.86 40.24 150.08 37.23 155.74 C 32.33 164.98 30.67 172.16 31.25 181.53 C 32.05 194.35 36.61 202.73 46.47 209.53 C 51.74 213.15 51.96 213.21 58.67 212.54 C 77.34 210.69 102.08 219.65 116.96 233.64 C 121.26 237.69 126.07 241.68 127.64 242.50 C 131.37 244.44 135.76 244.33 139.51 242.21 Z  M 128.39 239.10 C 123.03 235.83 121.43 232.40 120.04 221.20 C 119.34 215.54 118.94 210.72 119.17 210.50 C 119.76 209.91 149.23 207.90 149.75 208.41 C 149.98 208.65 149.41 213.72 148.47 219.67 C 146.51 232.07 143.87 237.32 138.47 239.58 C 133.97 241.46 132.12 241.37 128.39 239.10 Z  M 48.95 206.14 C 43.15 202.41 40.54 199.48 38.13 193.99 C 33.67 183.81 34.80 172.62 41.81 157.68 C 45.58 149.63 45.84 149.32 48.70 149.74 C 50.83 150.06 56.61 154.69 69.09 166.09 C 86.50 181.99 86.50 181.99 92.50 181.99 C 95.80 181.99 100.15 181.53 102.17 180.97 C 106.82 179.68 111.71 174.16 112.54 169.27 C 113.82 161.67 111.89 161.94 134.26 166.27 C 147.77 168.88 154.78 170.67 155.33 171.65 C 163.02 185.21 183.90 190.16 197.06 181.56 C 200.56 179.26 200.74 179.25 209.06 180.65 C 216.08 181.83 217.88 182.53 219.75 184.79 C 222.89 188.59 222.67 192.98 219.17 196.33 C 216.35 199.04 216.35 199.04 135.45 204.02 C 90.95 206.76 54.29 209.00 53.97 209.00 C 53.65 209.00 51.39 207.71 48.95 206.14 Z  M 173.99 180.07 C 166.67 177.84 160.42 172.24 157.40 165.21 C 155.10 159.85 155.22 150.47 157.66 145.00 C 161.44 136.52 172.14 129.62 181.50 129.63 C 187.99 129.64 195.45 133.43 200.70 139.39 C 215.17 155.83 203.12 181.33 181.07 180.91 C 178.56 180.87 175.37 180.48 173.99 180.07 Z  M 86.77 176.21 C 79.66 170.54 52.00 145.46 52.00 144.68 C 52.00 144.24 53.60 140.41 55.55 136.18 C 59.45 127.74 64.43 121.90 70.35 118.84 C 74.85 116.52 92.55 114.15 94.07 115.67 C 94.60 116.20 98.32 126.96 102.34 139.57 C 108.88 160.10 109.56 162.97 108.81 166.95 C 107.77 172.54 103.86 176.79 99.07 177.53 C 97.11 177.83 94.30 178.27 92.83 178.50 C 91.00 178.79 89.11 178.07 86.77 176.21 Z  M 130.72 161.51 C 120.94 159.73 112.81 158.10 112.64 157.89 C 112.32 157.47 107.95 114.45 107.98 111.99 C 107.99 111.07 113.97 107.42 123.51 102.51 C 139.02 94.53 139.02 94.53 151.11 106.62 C 163.19 118.70 163.19 118.70 162.47 125.40 C 161.87 131.06 161.21 132.76 158.23 136.30 C 156.29 138.61 153.82 142.47 152.75 144.87 C 150.74 149.39 150.02 158.71 151.38 162.75 C 152.32 165.56 153.19 165.61 130.72 161.51 Z  M 202.48 133.98 C 199.35 130.52 188.93 126.04 182.47 125.38 C 176.43 124.76 176.43 124.76 159.50 108.55 C 142.58 92.34 142.58 92.34 149.54 88.32 C 166.36 78.62 161.23 78.66 192.31 88.03 C 219.55 96.25 219.82 96.36 220.41 99.29 C 222.91 111.80 218.15 126.97 209.69 133.42 C 205.62 136.53 204.84 136.59 202.48 133.98 Z  M 38.03 127.59 C 29.13 124.38 28.57 109.50 37.17 104.60 C 43.02 101.28 55.28 92.82 62.50 87.14 C 83.67 70.47 101.30 47.23 112.13 21.75 C 115.42 14.00 115.42 14.00 124.05 14.00 C 140.05 14.00 154.02 19.04 162.18 27.76 C 170.24 36.38 173.91 46.21 174.20 59.94 C 174.37 67.96 174.27 68.37 171.60 70.51 C 168.81 72.73 117.76 100.72 104.41 107.35 C 97.92 110.57 96.59 110.86 88.82 110.80 C 76.33 110.71 68.37 113.75 59.57 121.96 C 55.38 125.87 53.47 126.89 48.58 127.85 C 41.73 129.18 42.48 129.20 38.03 127.59 Z "/>
</g>
</svg>