<?xml version="1.0" encoding="UTF-8" standalone="no"?>
<!DOCTYPE svg PUBLIC "-//W3C//DTD SVG 1.1//EN" "http://www.w3.org/Graphics/SVG/1.1/DTD/svg11.dtd" >
<svg xmlns="http://www.w3.org/2000/svg" xmlns:xlink="http://www.w3.org/1999/xlink" version="1.1" viewBox="0 0 256 256">
 <g >
 <path fill="currentColor"
d=" M 78.99 237.62 C 82.54 234.42 83.62 234.00 88.28 234.00 C 91.23 234.00 94.45 234.63 95.59 235.43 C 97.38 236.68 105.61 236.24 162.07 231.92 C 226.50 226.98 226.50 226.98 229.26 223.76 C 232.44 220.06 236.00 211.25 236.00 207.08 C 236.00 203.70 233.93 198.46 231.23 195.00 C 228.65 191.70 224.29 183.00 221.51 175.61 C 219.27 169.66 219.27 169.66 221.78 164.17 C 226.90 152.99 225.57 138.83 218.54 129.62 C 215.11 125.13 215.10 125.07 216.08 118.80 C 217.69 108.51 219.95 101.81 223.61 96.45 C 231.92 84.28 227.79 72.46 212.54 64.77 C 195.77 56.32 186.15 48.34 169.75 29.29 C 162.52 20.88 155.96 14.00 155.17 14.00 C 151.77 14.00 140.05 20.93 134.64 26.13 C 127.91 32.61 121.89 34.86 104.50 37.38 C 94.88 38.77 94.42 38.75 92.39 36.87 C 88.75 33.49 80.55 31.00 73.24 31.04 C 67.58 31.07 55.47 33.10 54.52 34.18 C 54.37 34.36 53.08 39.22 51.65 45.00 C 50.05 51.48 47.15 59.33 44.09 65.50 C 38.43 76.92 25.07 97.71 19.86 103.21 C 10.88 112.68 12.22 129.97 22.51 137.22 C 32.45 144.23 43.85 174.69 51.04 213.50 C 54.65 232.99 55.13 234.67 57.72 236.83 C 65.27 243.17 72.56 243.44 78.99 237.62 Z  M 62.78 234.86 C 59.62 232.97 58.92 231.89 58.06 227.57 C 56.01 217.25 42.91 138.75 43.20 138.50 C 43.37 138.36 46.29 136.84 49.69 135.13 C 56.95 131.50 64.73 125.46 74.57 115.82 C 81.65 108.90 81.65 108.90 81.29 149.70 C 81.10 172.14 80.50 192.98 79.97 196.01 C 79.34 199.58 79.34 204.15 79.97 209.01 C 80.50 213.13 80.95 219.32 80.97 222.76 C 81.00 228.46 80.70 229.35 77.75 232.58 C 73.48 237.24 68.15 238.05 62.78 234.86 Z  M 93.80 227.25 C 87.92 221.22 85.19 215.90 83.92 207.96 C 83.04 202.52 83.19 200.73 85.05 194.60 C 87.45 186.72 89.90 181.51 94.09 175.38 C 96.91 171.27 96.91 171.27 109.70 173.71 C 122.43 176.14 122.52 176.18 131.40 182.58 C 138.91 187.98 140.97 189.00 144.41 188.99 C 150.14 188.99 155.45 187.34 158.79 184.53 C 161.64 182.13 161.64 182.13 193.07 187.16 C 210.36 189.93 225.04 192.64 225.70 193.18 C 228.27 195.28 231.00 202.74 231.00 207.64 C 231.00 211.57 230.33 213.67 227.91 217.33 C 226.21 219.90 224.44 222.23 223.97 222.52 C 223.39 222.88 125.04 230.31 98.46 232.00 C 98.44 232.00 96.34 229.86 93.80 227.25 Z  M 119.07 168.25 C 95.80 151.50 95.80 151.50 96.34 146.08 C 97.06 138.97 101.96 129.17 107.14 124.49 C 109.41 122.45 113.66 119.67 116.60 118.33 C 122.90 115.44 136.80 112.40 138.03 113.64 C 139.62 115.24 160.00 170.20 160.00 172.86 C 159.99 176.81 156.40 181.93 152.51 183.56 C 145.02 186.69 144.10 186.27 119.07 168.25 Z  M 182.50 178.73 C 173.62 175.07 167.30 169.15 163.70 161.12 C 160.87 154.79 160.95 145.16 163.90 138.47 C 168.55 127.95 179.90 120.65 191.65 120.63 C 199.32 120.62 209.36 125.19 213.98 130.80 C 229.70 149.85 217.13 178.53 192.57 179.65 C 188.47 179.83 184.24 179.45 182.50 178.73 Z  M 27.50 135.18 C 20.57 130.76 18.00 125.96 18.00 117.43 C 18.00 112.03 18.04 111.96 24.63 105.75 C 39.91 91.34 51.97 67.13 57.45 39.87 C 57.88 37.74 58.83 37.03 62.43 36.12 C 68.74 34.53 78.99 34.73 84.11 36.54 C 89.73 38.52 93.68 42.28 96.55 48.38 C 99.01 53.61 98.94 54.29 95.05 61.89 C 91.43 69.00 88.74 80.73 89.44 86.39 C 90.07 91.50 90.07 91.50 83.67 99.50 C 71.43 114.78 57.11 126.78 43.53 133.13 C 35.06 137.10 31.26 137.58 27.50 135.18 Z  M 105.38 109.56 C 101.57 106.89 96.08 97.61 94.40 91.00 C 93.02 85.55 92.94 83.49 93.91 78.20 C 95.41 70.03 98.25 62.89 102.82 55.76 C 106.85 49.48 106.47 49.60 116.50 51.33 C 123.50 52.54 123.50 52.54 124.27 59.49 C 124.69 63.31 125.37 66.76 125.77 67.15 C 126.17 67.54 139.08 71.46 154.45 75.86 C 181.54 83.61 182.52 83.81 185.94 82.38 C 190.88 80.32 193.68 77.41 195.61 72.35 C 196.52 69.96 197.73 68.00 198.30 68.00 C 198.86 68.00 203.34 68.77 208.23 69.71 C 216.32 71.26 217.46 71.76 220.57 75.21 C 223.50 78.45 224.00 79.73 224.00 83.93 C 224.00 87.94 223.40 89.63 220.72 93.14 C 217.45 97.44 217.45 97.44 164.97 104.17 C 136.11 107.88 111.36 110.93 109.97 110.95 C 108.58 110.98 106.52 110.35 105.38 109.56 Z  M 154.50 71.88 C 141.30 68.03 130.14 64.52 129.69 64.08 C 128.17 62.58 127.09 50.80 128.03 45.87 C 129.44 38.41 132.34 33.75 139.42 27.54 C 147.32 20.60 154.40 17.87 157.05 20.74 C 160.37 24.32 189.66 59.58 191.30 61.97 C 195.93 68.70 189.93 79.08 181.50 78.94 C 179.85 78.91 167.70 75.73 154.50 71.88 Z "/>
</g>
</svg>