<?xml version="1.0" encoding="UTF-8" standalone="no"?>
<!DOCTYPE svg PUBLIC "-//W3C//DTD SVG 1.1//EN" "http://www.w3.org/Graphics/SVG/1.1/DTD/svg11.dtd" >
<svg xmlns="http://www.w3.org/2000/svg" xmlns:xlink="http://www.w3.org/1999/xlink" version="1.1" viewBox="0 0 256 256">
 <g >
 <path fill="currentColor"
d=" M 186.30 242.24 C 193.97 238.65 200.97 231.80 204.68 224.24 C 207.15 219.22 207.50 217.37 207.48 209.50 C 207.46 201.83 207.05 199.63 204.73 194.63 C 202.77 190.41 202.00 187.16 202.00 183.09 C 202.00 171.82 207.33 157.94 212.90 154.69 C 217.23 152.17 226.00 143.06 225.99 141.11 C 225.98 140.23 225.11 136.74 224.05 133.38 C 221.95 126.68 220.57 107.06 219.37 66.77 C 218.70 44.40 218.66 44.05 216.59 44.46 C 210.98 45.58 182.06 45.92 170.78 44.99 C 147.75 43.11 128.10 36.55 122.69 28.96 C 119.17 24.01 112.92 19.67 106.15 17.46 C 94.81 13.74 77.89 17.58 63.39 27.16 C 57.29 31.19 57.29 31.19 56.72 42.85 C 55.68 64.31 48.17 81.14 31.71 98.89 C 23.89 107.32 23.00 109.10 23.01 116.32 C 23.02 130.39 30.56 138.81 46.40 142.45 C 55.05 144.44 62.46 148.42 65.87 152.90 C 68.11 155.84 68.49 157.32 68.45 162.93 C 68.36 173.30 63.18 183.61 50.70 198.25 C 43.62 206.56 42.01 210.34 42.01 218.76 C 42.00 225.45 45.05 232.10 49.86 235.85 C 55.38 240.16 56.99 240.81 59.88 239.92 C 66.38 237.92 86.92 231.07 90.82 229.59 C 101.29 225.64 120.84 225.14 133.26 228.51 C 137.58 229.68 140.11 231.16 143.42 234.47 C 148.09 239.14 155.53 243.41 161.75 244.98 C 168.49 246.68 179.41 245.46 186.30 242.24 Z  M 163.44 241.12 C 154.03 238.69 143.40 229.65 139.04 220.35 C 135.68 213.21 135.96 203.83 139.76 195.69 C 143.81 187.04 148.02 182.61 155.81 178.77 C 161.67 175.89 163.41 175.50 170.48 175.53 C 176.98 175.55 179.54 176.05 184.00 178.14 C 191.10 181.47 196.62 186.95 199.89 193.93 C 202.10 198.64 202.50 200.89 202.50 208.50 C 202.50 216.03 202.10 218.31 200.05 222.47 C 193.48 235.83 176.47 244.49 163.44 241.12 Z  M 54.00 233.47 C 50.09 230.72 46.03 223.10 46.02 218.50 C 46.00 211.81 47.88 208.27 54.28 202.94 C 66.35 192.88 74.53 181.52 83.98 161.70 C 90.09 148.87 93.54 137.66 94.65 127.04 C 95.17 122.11 95.93 119.99 98.03 117.64 C 100.73 114.62 100.74 114.61 110.62 114.88 C 123.77 115.23 133.91 113.47 154.40 107.26 C 156.17 106.73 156.25 107.11 155.58 113.10 C 151.25 151.80 139.80 181.01 121.00 201.28 C 107.58 215.75 90.72 226.31 71.50 232.28 C 58.92 236.19 57.97 236.26 54.00 233.47 Z  M 184.00 154.61 C 178.02 152.30 172.88 148.81 171.98 146.45 C 169.57 140.11 170.21 111.96 173.05 99.28 C 173.61 96.78 173.90 94.56 173.69 94.35 C 173.48 94.15 168.63 96.21 162.90 98.93 C 147.69 106.19 135.67 109.11 118.50 109.75 C 104.50 110.26 104.50 110.26 109.04 105.38 C 118.79 94.88 128.10 76.40 131.51 60.75 C 133.20 53.00 133.20 53.00 166.35 52.99 C 184.58 52.99 202.43 52.71 206.00 52.37 C 212.50 51.76 212.50 51.76 212.58 71.63 C 212.66 89.44 213.05 93.88 216.34 114.50 C 218.37 127.15 220.28 138.48 220.61 139.68 C 221.38 142.54 214.38 149.66 207.47 153.04 C 201.50 155.96 189.56 156.76 184.00 154.61 Z  M 41.84 137.03 C 33.40 134.48 27.90 127.89 27.21 119.49 C 26.54 111.42 27.30 109.70 32.89 106.66 C 43.55 100.86 53.57 85.64 58.06 68.45 C 59.40 63.28 60.33 55.74 60.71 46.91 C 61.28 33.32 61.28 33.32 66.04 30.07 C 77.27 22.41 95.32 18.95 105.86 22.45 C 113.23 24.90 121.05 32.38 125.47 41.20 C 127.42 45.12 129.00 49.78 129.00 51.65 C 129.00 56.12 122.88 74.82 118.73 83.00 C 108.81 102.60 92.44 119.15 73.50 128.73 C 66.44 132.31 50.18 138.00 47.29 137.91 C 45.76 137.87 43.30 137.47 41.84 137.03 Z "/>
</g>
</svg>