<?xml version="1.0" encoding="UTF-8" standalone="no"?>
<!DOCTYPE svg PUBLIC "-//W3C//DTD SVG 1.1//EN" "http://www.w3.org/Graphics/SVG/1.1/DTD/svg11.dtd" >
<svg xmlns="http://www.w3.org/2000/svg" xmlns:xlink="http://www.w3.org/1999/xlink" version="1.1" viewBox="0 0 256 256">
 <g >
 <path fill="currentColor"
d=" M 212.37 238.63 C 223.34 232.20 226.61 227.19 228.04 214.64 C 229.45 202.19 231.22 197.36 235.80 193.44 C 243.21 187.10 244.83 179.98 240.36 173.39 C 237.94 169.82 237.69 168.49 237.24 156.51 C 236.47 136.07 241.10 81.42 244.08 75.86 C 244.65 74.79 245.17 71.71 245.23 69.02 C 245.32 65.14 244.78 63.40 242.62 60.57 C 241.12 58.60 239.11 57.00 238.15 57.00 C 232.44 57.00 218.86 46.53 215.09 39.22 C 212.57 34.33 206.42 28.48 201.78 26.55 C 196.69 24.43 191.40 24.61 184.41 27.13 C 180.42 28.57 175.89 29.30 170.50 29.38 C 163.34 29.49 162.13 29.23 159.00 26.89 C 148.47 19.03 134.56 20.69 124.89 30.95 C 119.72 36.44 113.73 40.12 108.33 41.13 C 105.75 41.61 100.91 43.32 97.57 44.92 C 94.23 46.53 87.90 48.55 83.50 49.42 C 74.59 51.19 51.80 52.94 36.50 53.03 C 26.50 53.09 26.50 53.09 22.80 59.02 C 17.22 67.96 15.74 73.13 15.66 84.00 C 15.59 93.08 15.75 93.81 19.29 100.56 C 22.93 107.50 23.00 107.83 23.00 118.94 C 23.00 125.16 22.31 134.90 21.46 140.60 C 19.57 153.36 12.99 180.32 8.87 192.23 C 5.48 202.01 5.54 205.85 9.17 211.76 C 12.25 216.77 14.33 217.46 26.50 217.48 C 35.84 217.50 38.10 217.83 41.50 219.66 C 46.14 222.16 50.49 226.55 51.43 229.68 C 52.16 232.10 59.28 236.00 62.95 236.00 C 64.22 236.00 66.71 235.10 68.49 234.01 C 74.40 230.35 85.40 228.79 97.63 229.85 C 107.52 230.72 109.04 231.13 114.48 234.42 C 123.18 239.70 126.99 240.51 136.00 239.02 C 142.87 237.89 143.78 237.45 146.94 233.76 C 153.56 226.02 163.20 223.99 172.50 228.38 C 175.25 229.67 178.62 231.96 180.00 233.46 C 182.48 236.17 188.20 239.54 193.00 241.12 C 197.76 242.69 207.60 241.43 212.37 238.63 Z  M 191.81 235.56 C 180.58 231.25 174.09 219.81 176.92 209.30 C 178.55 203.23 183.74 196.18 188.37 193.73 C 193.70 190.91 205.85 190.64 210.64 193.24 C 220.91 198.79 226.49 211.24 222.94 220.68 C 221.01 225.83 216.69 231.10 212.28 233.68 C 206.93 236.82 197.36 237.70 191.81 235.56 Z  M 123.04 233.83 C 118.01 232.38 114.16 229.32 110.88 224.15 C 105.80 216.13 106.22 215.17 121.46 200.07 C 134.93 186.74 134.93 186.74 140.15 187.24 C 144.56 187.66 145.89 188.31 148.69 191.36 C 150.51 193.34 152.00 195.98 152.00 197.20 C 152.00 198.43 149.43 207.18 146.30 216.63 C 140.84 233.12 140.48 233.85 137.67 234.42 C 133.52 235.25 127.08 234.99 123.04 233.83 Z  M 59.23 230.77 C 57.98 230.17 56.75 228.74 56.49 227.59 C 55.67 223.87 39.00 138.34 39.00 137.83 C 39.00 137.56 41.12 135.82 43.71 133.96 C 47.59 131.17 49.33 130.57 53.51 130.57 C 56.30 130.57 60.71 131.38 63.29 132.37 C 68.00 134.17 68.00 134.17 68.05 141.83 C 68.07 146.05 68.71 167.05 69.47 188.50 C 70.84 227.50 70.84 227.50 68.37 229.75 C 65.69 232.18 62.82 232.50 59.23 230.77 Z  M 92.29 224.81 C 90.71 224.04 89.94 222.56 89.57 219.62 C 88.65 212.30 86.71 166.96 87.29 166.38 C 87.59 166.07 92.83 164.56 98.92 163.02 C 110.00 160.22 110.00 160.22 110.00 162.36 C 110.01 168.37 102.59 222.66 101.62 223.65 C 99.93 225.39 94.78 226.02 92.29 224.81 Z  M 74.63 219.17 C 74.29 217.15 74.02 211.31 74.01 206.19 C 74.00 196.88 74.00 196.88 78.75 197.57 C 81.36 197.95 83.56 198.31 83.63 198.38 C 83.77 198.51 84.72 219.99 84.59 220.01 C 84.54 220.02 82.42 220.65 79.87 221.43 C 75.23 222.83 75.23 222.83 74.63 219.17 Z  M 15.86 212.48 C 13.14 211.01 11.00 206.53 11.00 202.33 C 11.00 201.02 12.52 196.92 14.38 193.23 C 24.50 173.06 31.85 145.02 33.60 119.91 C 34.27 110.31 34.27 110.31 51.89 107.64 C 61.57 106.17 70.20 104.98 71.05 104.99 C 72.44 105.00 72.45 106.21 71.21 116.75 C 70.44 123.21 69.62 128.70 69.39 128.93 C 69.16 129.17 66.61 128.75 63.73 127.99 C 52.78 125.11 43.34 126.91 37.51 132.99 C 34.74 135.88 34.74 135.88 39.82 164.10 C 45.65 196.43 46.39 192.55 31.71 206.75 C 23.67 214.52 21.23 215.40 15.86 212.48 Z  M 110.00 198.95 C 110.00 193.97 114.24 160.23 115.17 157.80 C 116.02 155.59 116.69 155.18 118.85 155.55 C 120.31 155.81 146.12 159.17 176.22 163.03 C 206.32 166.89 231.62 170.30 232.45 170.62 C 234.72 171.49 238.00 177.36 238.00 180.56 C 238.00 182.12 236.84 185.07 235.42 187.12 C 232.93 190.71 232.56 190.87 225.35 191.55 C 218.44 192.19 217.50 192.05 212.97 189.58 C 203.61 184.48 192.26 185.40 183.16 192.00 C 179.49 194.65 177.66 195.18 169.22 196.00 C 156.14 197.28 156.00 197.27 156.00 195.25 C 155.98 188.83 147.12 183.00 137.37 183.00 C 131.36 183.00 131.36 183.00 123.11 192.00 C 117.06 198.60 114.21 201.00 112.43 201.00 C 110.65 201.00 110.00 200.45 110.00 198.95 Z  M 212.25 163.57 C 208.82 162.90 205.80 162.13 205.54 161.87 C 205.28 161.61 205.39 144.32 205.78 123.45 C 206.50 85.50 206.50 85.50 221.27 84.10 C 229.39 83.33 236.23 82.89 236.46 83.13 C 236.82 83.49 224.11 155.97 222.50 162.75 C 221.89 165.28 221.21 165.34 212.25 163.57 Z  M 73.00 149.19 C 73.00 134.39 73.00 134.39 91.25 136.25 C 108.29 137.98 109.65 138.27 111.75 140.61 C 113.35 142.39 114.00 144.36 114.00 147.44 C 114.00 155.01 112.71 155.77 92.43 160.10 C 82.57 162.21 74.16 163.95 73.75 163.97 C 73.34 163.99 73.00 157.34 73.00 149.19 Z  M 184.79 160.10 C 182.20 159.72 179.90 159.21 179.67 158.96 C 179.44 158.71 179.04 154.39 178.76 149.36 C 178.26 140.22 178.26 140.22 187.88 139.27 C 193.17 138.75 197.63 138.41 197.78 138.53 C 197.94 138.64 197.25 143.63 196.26 149.62 C 194.22 161.87 194.61 161.51 184.79 160.10 Z  M 153.18 155.98 C 150.26 155.55 147.71 155.04 147.51 154.85 C 147.32 154.65 146.84 151.68 146.45 148.24 C 145.74 142.00 145.74 142.00 152.62 141.99 C 156.40 141.98 160.51 141.70 161.75 141.37 C 163.95 140.78 164.00 140.95 164.00 148.88 C 164.00 158.11 164.69 157.65 153.18 155.98 Z  M 123.52 152.11 C 119.77 151.53 119.51 151.27 118.83 147.30 C 117.61 140.10 113.35 134.00 109.54 134.00 C 107.64 134.00 107.08 132.43 103.71 117.75 C 101.65 108.81 99.98 101.23 99.99 100.91 C 99.99 100.59 103.26 99.75 107.25 99.05 C 115.23 97.65 118.02 95.79 121.10 89.79 C 124.52 83.13 122.74 72.35 117.51 68.01 C 116.62 67.27 110.17 65.72 103.19 64.58 C 90.57 62.51 90.50 62.48 90.18 59.67 C 89.78 56.18 95.33 50.47 102.47 47.01 C 108.87 43.92 119.15 44.49 126.75 48.36 C 132.00 51.03 132.00 51.03 132.00 100.44 C 132.00 127.61 131.73 150.55 131.39 151.42 C 130.76 153.06 130.13 153.12 123.52 152.11 Z  M 135.80 123.00 C 136.06 108.72 136.28 107.00 137.80 106.98 C 138.73 106.97 153.34 109.08 170.25 111.67 C 201.00 116.37 201.00 116.37 201.00 125.16 C 201.00 133.48 200.88 133.99 198.75 134.43 C 196.53 134.89 141.39 139.01 137.50 139.00 C 135.57 139.00 135.51 138.44 135.80 123.00 Z  M 186.00 109.61 C 177.50 108.50 177.50 108.50 177.21 99.09 C 177.05 93.91 177.28 89.34 177.71 88.93 C 178.14 88.52 183.79 87.86 190.25 87.47 C 202.00 86.76 202.00 86.76 201.99 93.63 C 201.99 97.41 201.70 102.86 201.35 105.75 C 200.62 111.81 201.34 111.63 186.00 109.61 Z  M 25.52 102.25 C 21.48 96.78 19.00 89.55 19.00 83.24 C 19.00 75.20 26.35 57.00 29.60 57.00 C 31.16 57.00 109.23 69.68 112.71 70.50 C 113.97 70.80 116.08 72.98 117.60 75.58 C 120.05 79.77 120.18 80.47 119.08 84.12 C 118.43 86.30 116.68 89.36 115.20 90.91 C 112.59 93.64 111.18 93.95 72.50 100.40 C 50.50 104.06 31.72 107.05 30.76 107.03 C 29.80 107.01 27.44 104.86 25.52 102.25 Z  M 148.00 104.12 C 137.50 102.47 137.50 102.47 137.20 97.90 C 136.90 93.33 136.90 93.33 148.70 91.67 C 165.53 89.29 164.00 88.65 164.00 98.00 C 164.00 107.36 165.35 106.84 148.00 104.12 Z  M 136.00 70.50 C 136.00 54.51 136.15 53.00 137.75 52.97 C 140.57 52.93 235.28 61.07 237.71 61.57 C 239.28 61.89 240.28 63.22 241.16 66.13 C 242.24 69.75 242.16 70.67 240.44 73.87 C 238.50 77.50 238.50 77.50 191.00 82.69 C 164.87 85.54 141.81 87.91 139.75 87.94 C 136.00 88.00 136.00 88.00 136.00 70.50 Z  M 193.50 53.20 C 184.70 52.44 177.21 51.53 176.86 51.16 C 176.51 50.80 176.02 47.63 175.79 44.13 C 175.35 37.76 175.35 37.76 179.26 34.93 C 187.50 28.96 197.84 28.35 204.51 33.44 C 210.35 37.90 212.18 41.60 211.42 47.50 C 211.07 50.25 210.49 52.96 210.14 53.53 C 209.70 54.24 204.43 54.13 193.50 53.20 Z  M 148.50 49.61 C 140.39 48.92 134.56 47.93 133.00 46.98 C 131.62 46.14 129.60 44.97 128.50 44.38 C 125.92 42.99 125.36 37.63 127.45 34.44 C 128.32 33.11 131.39 30.67 134.27 29.02 C 142.67 24.20 151.38 25.37 159.75 32.43 C 162.91 35.10 163.00 35.39 163.00 43.09 C 163.00 47.44 162.66 50.94 162.25 50.86 C 161.84 50.78 155.65 50.21 148.50 49.61 Z "/>
</g>
</svg>