<?xml version="1.0" encoding="UTF-8" standalone="no"?>
<!DOCTYPE svg PUBLIC "-//W3C//DTD SVG 1.1//EN" "http://www.w3.org/Graphics/SVG/1.1/DTD/svg11.dtd" >
<svg xmlns="http://www.w3.org/2000/svg" xmlns:xlink="http://www.w3.org/1999/xlink" version="1.1" viewBox="0 0 256 256">
 <g >
 <path fill="currentColor"
d=" M 48.00 241.58 C 71.02 237.21 110.21 234.57 141.00 235.30 C 163.54 235.84 192.73 238.61 201.22 241.01 C 204.47 241.93 205.59 241.73 210.10 239.45 C 227.09 230.84 234.04 214.94 229.38 195.37 C 226.69 184.11 226.67 131.90 229.34 119.00 C 230.95 111.22 230.97 110.13 229.55 106.12 C 226.48 97.46 228.26 77.29 233.05 66.58 C 235.81 60.40 235.28 52.86 231.67 46.70 C 229.49 42.99 228.37 42.22 222.01 40.06 C 211.59 36.53 196.39 27.65 191.05 21.96 C 181.91 12.24 171.44 10.41 159.38 16.44 C 149.93 21.17 140.46 22.65 133.78 20.43 C 130.52 19.35 126.67 18.92 122.58 19.18 C 117.24 19.52 115.62 20.11 111.42 23.30 C 108.71 25.34 104.92 27.74 103.00 28.63 C 97.69 31.08 80.12 34.00 77.25 32.91 C 74.08 31.70 64.40 31.76 59.88 33.02 C 51.70 35.29 45.20 42.36 42.80 51.60 C 41.32 57.32 41.43 57.22 33.00 60.51 C 27.23 62.77 26.14 63.64 23.31 68.33 C 15.37 81.47 11.86 102.12 15.46 114.50 C 18.02 123.30 20.43 127.41 26.91 133.99 C 31.87 139.03 33.03 140.92 34.52 146.42 C 37.29 156.67 36.23 169.81 31.62 182.38 C 29.62 187.81 26.17 194.99 23.94 198.32 C 17.61 207.80 16.45 218.58 20.63 229.03 C 22.55 233.84 28.71 239.37 34.39 241.38 C 39.66 243.25 39.20 243.25 48.00 241.58 Z  M 34.50 235.84 C 24.06 230.42 21.14 222.81 24.13 208.80 C 25.01 204.65 29.24 197.26 43.56 174.84 C 53.62 159.08 62.31 144.53 62.87 142.51 C 64.13 137.93 62.89 134.29 59.65 133.06 C 57.91 132.39 55.05 132.85 49.01 134.74 C 40.75 137.32 40.75 137.32 37.12 135.41 C 30.74 132.05 23.53 124.01 21.02 117.47 C 16.63 106.01 18.21 89.49 25.19 73.88 C 27.91 67.81 28.59 67.00 30.99 67.00 C 32.49 67.00 35.76 66.72 38.24 66.38 C 42.73 65.77 42.78 65.79 43.94 69.32 C 45.47 73.96 52.10 80.72 57.34 83.00 C 63.51 85.68 72.68 86.44 77.73 84.71 C 81.90 83.27 81.90 83.27 82.53 86.14 C 83.03 88.42 82.50 89.84 79.96 93.05 C 75.64 98.51 72.68 108.14 73.52 114.00 C 74.89 123.52 79.14 129.67 85.21 130.90 C 88.27 131.52 88.52 131.88 88.82 136.02 C 88.99 138.47 88.18 144.62 87.01 149.70 C 84.88 158.90 84.85 158.96 73.92 172.71 C 67.89 180.30 60.00 189.76 56.39 193.75 C 52.77 197.74 50.26 201.00 50.81 201.00 C 51.36 201.00 54.88 199.68 58.65 198.07 C 65.50 195.14 65.50 195.14 66.03 199.32 C 66.32 201.62 66.93 204.11 67.40 204.85 C 68.67 206.89 74.45 209.00 78.72 208.99 C 83.77 208.98 93.68 201.56 101.63 191.84 C 107.50 184.65 107.50 184.65 108.12 194.87 C 108.47 200.49 108.92 205.24 109.12 205.43 C 109.33 205.62 112.42 205.34 116.00 204.80 C 124.88 203.48 144.64 204.54 149.56 206.59 C 157.34 209.84 168.32 206.31 180.76 196.54 C 187.26 191.45 187.26 191.45 193.27 197.70 C 203.45 208.30 213.70 211.59 222.26 207.00 C 224.31 205.90 226.28 205.00 226.62 205.00 C 227.51 205.00 226.23 212.61 224.40 218.22 C 222.47 224.14 215.71 231.75 209.29 235.25 C 204.50 237.85 204.26 237.88 199.44 236.42 C 196.72 235.60 189.10 233.85 182.50 232.52 C 148.98 225.81 108.76 226.62 58.96 235.01 C 49.19 236.65 40.59 237.98 39.85 237.96 C 39.11 237.93 36.70 236.98 34.50 235.84 Z  M 73.87 203.49 C 70.76 201.80 69.60 198.18 70.99 194.53 C 71.54 193.09 73.88 189.12 76.21 185.71 C 84.36 173.73 92.68 150.98 93.68 137.94 C 94.27 130.29 94.27 130.29 107.64 128.86 C 121.00 127.43 121.00 127.43 121.00 133.13 C 121.00 156.79 107.90 183.38 88.79 198.49 C 80.25 205.24 78.30 205.90 73.87 203.49 Z  M 206.75 202.93 C 197.61 198.11 184.00 180.32 173.88 160.00 C 169.12 150.45 168.00 147.26 168.00 143.31 C 168.00 139.44 167.28 137.31 164.50 133.00 C 159.90 125.85 159.99 124.61 165.23 123.44 C 173.50 121.60 176.50 112.25 171.36 104.32 C 168.73 100.28 168.65 100.24 160.61 99.37 C 152.50 98.50 152.50 98.50 152.19 95.25 C 151.91 92.41 152.17 92.00 154.25 92.00 C 155.56 92.00 157.86 90.71 159.39 89.11 C 162.46 85.91 170.40 83.02 176.97 82.70 C 181.24 82.50 181.24 82.50 183.61 93.00 C 186.93 107.70 192.17 123.97 199.23 141.50 C 206.54 159.66 209.33 165.38 217.55 179.00 C 225.12 191.55 225.75 193.62 223.45 198.46 C 220.42 204.86 213.77 206.64 206.75 202.93 Z  M 152.75 203.31 C 150.41 202.70 150.51 202.33 154.00 198.35 C 158.33 193.41 161.51 186.63 164.50 175.91 C 167.20 166.22 168.86 162.00 169.98 162.00 C 170.33 162.00 172.58 165.71 174.97 170.25 C 177.37 174.79 180.61 180.38 182.17 182.68 C 183.72 184.98 185.00 187.08 185.00 187.35 C 185.00 188.49 171.93 197.51 165.78 200.61 C 159.40 203.82 156.78 204.36 152.75 203.31 Z  M 112.42 200.08 C 111.66 199.33 112.03 188.57 112.95 184.60 C 114.85 176.43 120.90 174.26 130.72 178.23 C 136.76 180.67 136.76 180.67 139.59 177.13 C 144.36 171.15 144.61 160.90 140.13 155.11 C 138.31 152.75 138.16 152.73 130.49 153.87 C 126.20 154.51 122.50 154.83 122.25 154.58 C 122.00 154.34 122.75 150.11 123.90 145.19 C 125.06 140.28 126.00 134.62 126.00 132.63 C 126.00 128.32 125.57 128.38 140.00 130.62 C 158.25 133.46 160.26 134.12 162.31 138.04 C 164.82 142.82 164.14 161.14 161.05 172.50 C 158.31 182.55 153.02 193.69 149.33 197.16 C 146.53 199.79 146.31 199.83 129.67 200.16 C 120.41 200.35 112.65 200.31 112.42 200.08 Z  M 205.64 145.92 C 203.11 140.65 199.04 130.30 196.60 122.92 C 192.61 110.86 192.24 108.99 193.02 104.50 C 193.49 101.75 193.91 98.99 193.94 98.36 C 194.04 96.43 202.00 93.90 208.05 93.87 C 216.98 93.82 221.20 96.68 225.05 105.39 C 226.62 108.93 227.00 111.17 226.50 113.85 C 225.15 121.11 219.90 135.71 215.12 145.50 C 210.24 155.50 210.24 155.50 205.64 145.92 Z  M 83.83 125.96 C 80.54 124.05 78.00 118.47 78.00 113.17 C 78.00 107.35 81.45 97.15 83.72 96.28 C 86.35 95.27 167.11 105.25 168.64 106.78 C 170.57 108.71 170.33 113.38 168.15 116.07 C 166.40 118.22 164.09 118.61 128.40 122.62 C 86.63 127.33 86.22 127.36 83.83 125.96 Z  M 122.01 95.10 C 117.52 94.50 117.52 94.50 112.08 63.74 C 106.64 32.97 106.64 32.97 110.07 29.37 C 116.97 22.12 124.85 21.09 134.92 26.12 C 138.35 27.83 141.40 29.87 141.70 30.66 C 142.00 31.44 140.30 46.47 137.92 64.04 C 133.59 96.00 133.59 96.00 130.04 95.85 C 128.09 95.77 124.48 95.43 122.01 95.10 Z  M 94.18 92.26 C 89.14 91.91 88.77 91.70 87.35 88.30 C 85.53 83.94 86.10 81.36 90.28 74.96 C 93.50 70.05 93.50 70.05 100.98 70.28 C 108.46 70.50 108.46 70.50 110.17 79.50 C 112.87 93.70 113.09 93.03 105.75 92.82 C 102.31 92.71 97.10 92.46 94.18 92.26 Z  M 140.35 82.97 C 140.71 79.53 141.00 75.87 141.00 74.85 C 141.00 73.24 141.84 73.00 147.50 73.00 C 155.23 73.00 158.00 74.95 158.00 80.39 C 158.00 85.94 155.58 87.75 147.10 88.54 C 139.69 89.23 139.69 89.23 140.35 82.97 Z  M 64.09 80.86 C 58.30 79.80 52.68 75.99 49.26 70.82 C 46.84 67.17 46.50 65.68 46.50 58.91 C 46.50 51.92 46.79 50.77 49.53 46.87 C 54.22 40.18 59.87 36.71 66.89 36.20 C 74.67 35.64 79.38 37.33 84.60 42.55 C 100.92 58.86 86.89 85.06 64.09 80.86 Z  M 163.00 79.01 C 163.00 75.64 160.12 71.00 157.39 69.96 C 156.00 69.43 151.97 69.00 148.43 69.00 C 143.71 69.00 142.00 68.64 142.00 67.65 C 142.00 64.63 145.53 63.21 154.83 62.49 C 163.91 61.79 164.22 61.69 166.08 58.64 C 168.39 54.85 168.62 47.10 166.54 43.08 C 165.05 40.19 162.57 39.04 157.83 39.01 C 155.23 39.00 155.16 38.84 154.83 31.92 C 154.46 23.93 154.81 23.35 162.02 20.08 C 167.24 17.71 174.66 17.41 179.39 19.39 C 181.21 20.15 184.32 22.38 186.28 24.34 C 192.75 30.82 192.38 42.49 185.23 56.98 C 181.38 64.78 171.76 76.00 166.10 79.31 C 163.04 81.09 163.00 81.08 163.00 79.01 Z  M 180.90 72.42 C 186.51 66.28 192.27 55.31 194.14 47.21 C 194.94 43.74 195.85 42.00 196.87 42.00 C 198.73 42.00 221.66 44.93 224.66 45.55 C 226.01 45.83 227.64 47.69 229.02 50.53 C 231.65 55.98 231.16 61.98 227.66 67.18 C 225.42 70.50 225.42 70.50 202.46 74.18 C 189.83 76.21 178.67 77.90 177.65 77.93 C 176.27 77.98 177.08 76.59 180.90 72.42 Z  M 96.31 58.45 C 96.36 53.50 95.80 51.35 93.21 46.58 C 90.69 41.91 90.27 40.36 91.12 38.78 C 92.03 37.07 92.82 36.89 96.84 37.48 C 99.40 37.86 101.79 38.47 102.15 38.83 C 102.89 39.58 107.00 59.29 107.00 62.05 C 107.00 63.48 105.97 63.88 101.63 64.16 C 96.25 64.50 96.25 64.50 96.31 58.45 Z  M 144.00 57.45 C 144.00 56.26 144.29 52.47 144.65 49.03 C 145.31 42.76 145.31 42.76 153.30 43.22 C 162.40 43.75 164.00 44.92 164.00 51.04 C 164.00 56.25 161.87 57.64 152.25 58.70 C 144.19 59.58 144.00 59.56 144.00 57.45 Z "/>
</g>
</svg>