<?xml version="1.0" encoding="UTF-8" standalone="no"?>
<!DOCTYPE svg PUBLIC "-//W3C//DTD SVG 1.1//EN" "http://www.w3.org/Graphics/SVG/1.1/DTD/svg11.dtd" >
<svg xmlns="http://www.w3.org/2000/svg" xmlns:xlink="http://www.w3.org/1999/xlink" version="1.1" viewBox="0 0 256 256">
 <g >
 <path fill="currentColor"
d=" M 226.98 239.01 C 227.99 238.47 229.60 236.00 230.54 233.53 C 232.57 228.22 232.14 224.28 228.53 215.08 C 227.15 211.55 225.07 204.57 223.91 199.58 C 220.64 185.48 220.14 185.29 220.07 198.10 C 219.94 219.23 216.73 221.41 203.26 209.50 C 198.16 204.99 182.30 186.76 181.29 184.26 C 181.02 183.57 183.01 180.42 185.72 177.26 C 188.43 174.09 194.17 166.78 198.47 161.00 C 202.77 155.22 207.83 148.88 209.71 146.89 C 212.80 143.64 213.04 142.95 212.26 139.89 C 211.49 136.94 210.21 135.85 202.28 131.50 C 191.00 125.30 190.00 124.44 190.00 120.96 C 190.00 116.19 189.03 115.12 180.49 110.47 C 171.09 105.34 169.08 103.52 170.84 101.76 C 172.13 100.47 172.38 95.12 171.23 93.38 C 170.83 92.77 168.03 91.02 165.00 89.50 C 161.97 87.98 157.62 85.44 155.32 83.87 C 149.10 79.60 146.44 80.15 151.75 84.60 C 157.30 89.25 157.30 92.08 151.79 104.11 C 147.57 113.31 147.57 113.31 146.20 109.96 C 143.36 102.98 136.88 78.72 137.67 78.00 C 139.87 76.01 168.34 73.00 185.06 73.00 C 187.74 73.00 182.70 69.16 175.93 66.04 C 168.92 62.81 168.92 62.81 156.32 66.42 C 149.39 68.40 142.03 70.29 139.97 70.62 C 136.22 71.22 136.22 71.22 134.60 61.86 C 133.70 56.71 132.64 47.15 132.24 40.60 C 131.55 29.46 131.34 28.59 129.00 26.92 C 126.73 25.30 104.17 20.00 99.54 20.00 C 96.27 20.00 99.10 21.67 105.46 23.48 C 113.83 25.87 118.34 30.53 119.98 38.51 C 120.65 41.80 121.59 45.40 122.06 46.50 C 122.91 48.48 126.00 68.39 126.00 71.87 C 126.00 73.91 119.74 75.53 98.39 79.02 C 83.94 81.38 75.06 81.53 68.41 79.51 C 62.92 77.85 57.05 77.48 58.55 78.90 C 59.07 79.40 65.23 82.37 72.24 85.51 C 84.98 91.22 84.98 91.22 94.74 88.12 C 104.20 85.11 124.67 80.00 127.26 80.00 C 128.07 80.00 129.34 83.99 130.81 91.16 C 132.06 97.29 134.67 107.19 136.59 113.16 C 138.70 119.68 139.78 124.56 139.30 125.42 C 137.09 129.33 124.04 142.61 119.35 145.73 C 116.41 147.69 114.00 149.72 114.00 150.25 C 114.00 152.97 127.77 146.61 136.67 139.80 C 140.24 137.06 143.31 134.98 143.49 135.16 C 144.20 135.88 152.00 154.14 152.00 155.09 C 152.00 157.10 133.64 175.00 127.41 179.06 C 120.95 183.26 119.08 185.70 123.25 184.47 C 129.82 182.54 140.45 176.79 147.84 171.18 C 152.43 167.70 156.29 164.99 156.42 165.17 C 156.55 165.35 158.78 169.46 161.36 174.30 C 166.06 183.10 166.06 183.10 164.12 185.80 C 163.05 187.29 160.67 189.91 158.84 191.63 C 154.58 195.62 135.22 209.94 132.25 211.29 C 128.92 212.81 129.30 215.20 132.75 214.40 C 142.94 212.02 157.60 204.12 167.43 195.69 C 171.36 192.32 171.36 192.32 181.05 203.91 C 197.62 223.72 209.18 233.88 220.00 238.14 C 225.47 240.29 224.76 240.20 226.98 239.01 Z  M 75.12 201.87 C 90.18 194.65 106.69 186.78 111.81 184.38 C 116.93 181.97 120.88 179.61 120.58 179.13 C 120.28 178.64 112.26 180.44 102.77 183.13 C 93.27 185.81 79.20 189.76 71.50 191.90 C 63.80 194.04 54.10 196.81 49.93 198.04 C 40.71 200.78 36.97 200.28 30.67 195.48 C 27.62 193.14 25.89 192.37 25.41 193.14 C 24.68 194.33 44.82 215.00 46.72 215.00 C 47.28 215.00 60.07 209.09 75.12 201.87 Z  M 70.56 168.50 C 71.37 166.57 72.13 165.00 72.26 165.00 C 72.39 164.99 78.12 163.90 85.00 162.57 C 91.88 161.24 100.54 159.84 104.25 159.46 C 111.01 158.77 112.74 157.69 109.00 156.50 C 106.15 155.59 106.45 152.62 110.55 141.30 C 114.47 130.45 117.32 125.63 120.73 124.08 C 123.20 122.95 123.74 121.13 121.75 120.61 C 121.06 120.43 116.56 118.99 111.74 117.40 C 102.99 114.52 102.99 114.52 98.24 116.37 C 83.47 122.15 79.18 123.28 70.22 123.77 C 65.12 124.05 60.76 124.58 60.53 124.95 C 60.30 125.32 63.85 126.84 68.42 128.33 C 76.72 131.03 76.72 131.03 85.95 128.02 C 95.98 124.74 101.00 124.18 101.00 126.35 C 101.00 127.09 100.59 129.01 100.10 130.60 C 99.60 132.20 98.42 136.88 97.48 141.00 C 94.73 153.03 94.49 153.31 83.76 156.35 C 78.62 157.81 73.98 159.00 73.44 159.00 C 71.72 159.00 68.65 143.63 69.29 138.20 C 69.88 133.23 69.88 133.23 65.69 131.67 C 61.25 130.01 43.32 129.06 41.21 130.37 C 38.96 131.76 39.98 133.00 43.37 133.00 C 52.80 133.00 56.28 135.92 57.61 144.97 C 57.97 147.46 59.83 154.00 61.73 159.50 C 66.49 173.25 67.95 174.75 70.56 168.50 Z  M 190.53 56.55 C 193.76 55.20 194.00 54.79 194.00 50.63 C 194.00 45.57 193.25 43.00 191.78 43.00 C 191.23 43.00 183.58 39.81 174.78 35.90 C 160.89 29.74 158.58 28.99 157.34 30.23 C 156.10 31.47 156.44 32.03 159.91 34.44 C 164.59 37.68 182.00 55.43 182.00 56.96 C 182.00 58.45 186.48 58.24 190.53 56.55 Z  M 173.23 172.74 C 171.74 170.88 165.00 157.21 165.00 156.03 C 165.00 155.46 166.95 152.41 169.34 149.25 C 171.73 146.09 176.55 139.56 180.05 134.75 C 183.55 129.94 186.95 126.00 187.60 126.00 C 188.25 126.00 190.19 127.31 191.89 128.90 C 194.08 130.95 195.00 132.72 195.00 134.92 C 195.00 138.22 188.74 151.48 181.86 162.74 C 175.83 172.61 174.43 174.23 173.23 172.74 Z  M 155.62 136.04 C 153.63 131.06 152.00 126.51 152.00 125.94 C 152.00 124.63 166.77 105.99 167.77 106.03 C 169.03 106.09 172.65 109.48 173.85 111.73 C 175.24 114.32 174.94 115.17 167.51 130.07 C 159.03 147.05 159.87 146.64 155.62 136.04 Z "/>
</g>
</svg>