<?xml version="1.0" encoding="UTF-8" standalone="no"?>
<!DOCTYPE svg PUBLIC "-//W3C//DTD SVG 1.1//EN" "http://www.w3.org/Graphics/SVG/1.1/DTD/svg11.dtd" >
<svg xmlns="http://www.w3.org/2000/svg" xmlns:xlink="http://www.w3.org/1999/xlink" version="1.1" viewBox="0 0 256 256">
 <g >
 <path fill="currentColor"
d=" M 157.67 240.49 C 162.60 231.76 163.00 227.26 163.00 180.60 C 163.00 156.21 163.39 136.88 163.89 136.57 C 164.38 136.26 170.79 135.13 178.14 134.05 C 196.38 131.38 202.00 132.79 202.00 140.03 C 202.00 143.71 198.47 157.15 196.09 162.53 C 194.32 166.53 193.76 167.00 190.81 166.99 C 188.74 166.99 184.61 165.33 179.81 162.59 C 175.59 160.18 171.88 158.45 171.58 158.76 C 171.28 159.06 172.83 161.26 175.04 163.66 C 177.25 166.05 182.45 173.18 186.61 179.51 C 190.93 186.08 194.84 191.00 195.74 191.00 C 197.71 191.00 203.58 186.58 205.45 183.68 C 206.22 182.48 207.85 175.43 209.07 168.00 C 212.13 149.34 215.87 142.24 224.12 139.46 C 228.66 137.93 228.90 135.73 224.69 134.21 C 222.84 133.54 219.92 131.24 218.20 129.10 C 216.49 126.97 212.99 124.21 210.44 122.97 C 204.43 120.06 197.65 120.59 178.52 125.45 C 170.83 127.40 164.19 129.00 163.77 129.00 C 162.54 129.00 162.84 104.22 164.08 103.45 C 164.67 103.09 171.65 102.54 179.58 102.25 C 187.51 101.95 194.00 101.43 194.00 101.10 C 194.00 100.77 191.97 99.22 189.50 97.66 C 187.02 96.10 185.00 94.33 185.00 93.75 C 185.00 93.16 187.07 89.14 189.60 84.83 C 194.29 76.83 200.04 71.00 203.23 71.00 C 206.13 71.00 205.41 67.32 202.35 66.55 C 200.90 66.19 196.77 64.12 193.19 61.96 C 183.92 56.37 181.39 56.11 172.96 59.88 C 163.81 63.97 162.99 63.92 163.03 59.25 C 163.08 52.91 164.89 41.03 166.65 35.44 C 169.23 27.26 168.20 26.30 151.87 21.60 C 144.52 19.48 137.26 17.53 135.75 17.26 C 130.87 16.39 132.82 18.62 139.39 21.41 C 150.49 26.13 150.45 26.04 150.81 47.98 C 151.12 66.80 151.12 66.80 143.99 68.00 C 140.08 68.66 136.60 68.93 136.27 68.61 C 135.67 68.00 137.44 52.23 138.53 48.46 C 139.42 45.39 135.62 41.20 131.21 40.40 C 129.17 40.03 123.28 38.22 118.13 36.37 C 108.91 33.05 104.99 32.27 105.01 33.75 C 105.01 34.16 108.12 35.91 111.93 37.63 C 121.50 41.97 123.27 45.42 123.40 60.00 C 123.50 70.50 123.50 70.50 120.11 70.82 C 118.25 71.00 113.68 70.40 109.96 69.49 C 97.26 66.38 97.66 68.10 111.03 74.04 C 123.50 79.58 123.50 79.58 123.78 92.41 C 124.06 105.24 124.06 105.24 114.28 104.69 C 108.90 104.39 103.26 103.83 101.75 103.45 C 99.46 102.88 99.00 103.09 99.00 104.70 C 99.00 106.28 101.18 107.33 111.25 110.56 C 123.50 114.50 123.50 114.50 123.50 126.90 C 123.50 139.31 123.50 139.31 113.56 142.13 C 108.09 143.68 103.48 144.81 103.30 144.64 C 103.13 144.46 104.79 139.51 106.99 133.64 C 112.78 118.24 113.02 119.00 100.35 113.02 C 94.41 110.22 88.33 108.02 86.60 108.05 C 83.70 108.09 83.87 108.29 89.23 111.05 C 97.40 115.27 98.50 117.31 97.06 125.58 C 95.65 133.66 93.40 139.59 90.33 143.33 C 89.05 144.88 88.00 146.91 88.01 147.83 C 88.01 148.77 90.58 151.15 93.86 153.26 C 99.70 157.03 99.70 157.03 110.10 152.03 C 115.82 149.28 120.90 147.02 121.39 147.01 C 122.54 147.00 121.59 157.22 119.48 167.50 C 115.37 187.63 107.70 203.73 96.45 215.88 C 88.33 224.65 88.99 226.19 98.42 220.51 C 118.77 208.25 130.10 186.93 134.29 153.00 C 135.58 142.50 135.58 142.50 141.54 140.83 C 152.32 137.81 151.21 131.92 150.83 189.75 C 150.57 230.38 150.76 240.96 151.82 242.81 C 153.53 245.81 155.00 245.23 157.67 240.49 Z  M 70.72 222.96 C 75.07 214.20 76.00 203.79 76.03 163.12 C 76.06 130.91 76.32 124.16 77.88 116.19 C 79.64 107.20 79.64 106.81 77.88 104.58 C 76.72 103.10 74.60 102.08 71.95 101.72 C 69.69 101.42 67.64 100.97 67.40 100.73 C 67.15 100.49 69.47 96.06 72.54 90.90 C 75.62 85.73 80.85 75.98 84.18 69.23 C 88.41 60.65 91.31 56.06 93.82 54.00 C 97.01 51.37 97.30 50.75 96.45 48.34 C 95.68 46.16 92.84 44.32 81.62 38.77 C 73.98 35.00 67.12 32.04 66.36 32.20 C 65.60 32.37 67.38 34.34 70.40 36.67 C 73.93 39.39 76.02 41.83 76.43 43.68 C 77.61 49.08 72.49 65.48 64.55 81.75 C 57.06 97.09 56.15 98.14 52.18 96.16 C 51.26 95.69 49.38 95.60 48.00 95.95 C 45.69 96.55 45.85 96.74 50.25 98.55 C 52.86 99.62 54.99 100.83 55.00 101.23 C 55.00 102.45 48.01 113.04 41.71 121.35 C 38.43 125.67 31.42 133.72 26.13 139.25 C 16.07 149.74 16.12 150.60 26.50 145.14 C 32.89 141.79 47.69 127.03 55.96 115.77 C 59.49 110.97 62.63 107.30 62.94 107.60 C 63.25 107.91 63.73 134.57 64.01 166.83 C 64.30 199.10 64.90 226.09 65.36 226.80 C 66.69 228.90 68.35 227.71 70.72 222.96 Z  M 136.22 122.91 C 136.50 109.58 136.50 109.58 142.50 108.33 C 145.80 107.65 149.06 107.07 149.75 107.04 C 150.69 107.01 151.00 110.21 151.00 119.84 C 151.00 132.68 151.00 132.68 145.75 133.86 C 142.86 134.51 139.47 135.32 138.22 135.65 C 135.94 136.25 135.94 136.25 136.22 122.91 Z  M 136.00 90.50 C 136.00 83.62 135.90 77.66 135.77 77.25 C 135.54 76.49 146.07 73.23 149.25 73.08 C 150.84 73.01 151.00 74.29 151.00 86.83 C 151.00 100.66 151.00 100.66 145.92 101.83 C 135.52 104.23 136.00 104.78 136.00 90.50 Z  M 163.00 84.22 C 163.00 71.43 163.00 71.43 169.98 70.14 C 181.22 68.06 182.96 69.47 179.80 78.07 C 178.70 81.06 177.14 85.63 176.33 88.23 C 175.04 92.38 174.29 93.22 170.30 94.98 C 162.81 98.30 163.00 98.58 163.00 84.22 Z "/>
</g>
</svg>