<?xml version="1.0" encoding="UTF-8" standalone="no"?>
<!DOCTYPE svg PUBLIC "-//W3C//DTD SVG 1.1//EN" "http://www.w3.org/Graphics/SVG/1.1/DTD/svg11.dtd" >
<svg xmlns="http://www.w3.org/2000/svg" xmlns:xlink="http://www.w3.org/1999/xlink" version="1.1" viewBox="0 0 256 256">
 <g >
 <path fill="currentColor"
d=" M 120.74 239.01 C 122.52 236.29 124.42 232.13 124.96 229.78 C 125.51 227.41 125.96 209.78 125.98 190.21 C 126.00 154.93 126.00 154.93 132.25 161.67 C 156.53 187.88 184.28 216.89 185.53 217.37 C 186.35 217.69 191.86 217.33 197.76 216.57 C 203.67 215.81 213.22 214.90 219.00 214.55 C 224.78 214.20 231.24 213.66 233.36 213.35 C 237.12 212.80 237.18 212.73 235.36 210.96 C 234.02 209.65 230.15 208.68 221.58 207.51 C 200.18 204.59 185.17 198.28 166.90 184.53 C 162.28 181.05 155.83 175.77 152.57 172.79 C 145.64 166.47 142.93 169.13 173.25 152.49 C 193.31 141.48 194.75 140.26 192.23 136.37 C 191.28 134.89 163.73 121.00 161.76 121.00 C 160.92 121.00 159.70 121.65 159.04 122.45 C 158.04 123.65 159.01 124.48 164.85 127.42 C 168.70 129.36 172.10 131.35 172.41 131.85 C 173.36 133.40 160.64 149.23 151.88 157.40 C 143.50 165.21 143.50 165.21 135.25 156.41 C 126.19 146.75 126.12 146.55 128.35 136.04 C 129.50 130.58 129.50 130.58 135.80 128.34 C 154.40 121.70 168.68 109.24 189.95 81.07 C 196.40 72.52 200.30 68.32 203.54 66.42 C 208.51 63.51 208.82 62.00 204.66 60.88 C 203.17 60.48 198.34 58.04 193.92 55.45 C 185.90 50.75 185.90 50.75 180.70 52.32 C 177.84 53.19 171.25 55.54 166.05 57.54 C 160.85 59.55 155.03 61.45 153.12 61.76 C 149.64 62.32 149.64 62.32 151.98 58.41 C 155.31 52.85 161.34 45.00 164.93 41.56 C 167.48 39.12 168.00 37.86 167.99 34.06 C 167.98 29.50 167.98 29.50 154.41 21.25 C 142.16 13.80 136.00 11.35 136.00 13.93 C 136.00 14.44 138.52 16.29 141.59 18.05 C 148.41 21.95 151.28 26.08 150.67 31.11 C 150.14 35.48 140.14 56.65 132.90 68.74 C 130.02 73.56 124.81 80.97 121.33 85.22 C 117.85 89.46 115.00 93.17 115.00 93.47 C 115.00 93.76 115.72 94.00 116.60 94.00 C 118.85 94.00 123.56 90.60 130.31 84.10 C 136.13 78.50 136.13 78.50 138.17 80.99 C 139.30 82.37 142.01 86.75 144.20 90.74 C 148.18 98.00 148.18 98.00 152.47 98.00 C 157.79 98.00 159.21 96.41 158.81 90.91 C 158.51 86.78 158.29 86.54 150.24 81.53 C 139.04 74.55 139.07 74.58 142.27 71.24 C 144.36 69.06 146.79 68.08 153.71 66.66 C 158.55 65.67 164.39 64.44 166.69 63.93 C 172.63 62.61 177.31 62.78 179.50 64.38 C 181.31 65.70 181.26 66.03 177.96 73.63 C 176.08 77.96 171.87 85.51 168.60 90.41 C 162.17 100.05 142.76 120.34 134.63 125.92 C 129.76 129.26 129.76 129.26 127.31 126.13 C 125.96 124.41 123.95 123.00 122.84 123.00 C 121.73 123.00 118.02 122.25 114.59 121.34 C 108.36 119.68 108.36 119.68 108.78 87.09 C 109.12 59.87 109.50 53.06 111.10 45.76 C 113.45 34.97 113.47 32.72 111.25 30.79 C 109.67 29.41 82.14 21.00 79.21 21.00 C 76.29 21.00 78.50 22.77 84.75 25.44 C 88.46 27.02 92.23 28.94 93.12 29.70 C 96.15 32.28 97.12 41.48 96.80 64.89 C 96.55 83.56 96.25 87.42 95.00 88.08 C 94.17 88.51 86.30 92.33 77.50 96.56 C 63.30 103.39 60.82 104.26 55.43 104.38 C 50.35 104.48 48.67 104.05 45.20 101.75 C 37.51 96.66 38.08 98.57 47.65 109.92 C 53.52 116.88 55.89 119.00 57.80 119.00 C 59.41 119.00 66.55 114.42 78.08 106.00 C 87.86 98.85 96.12 93.00 96.43 93.00 C 96.74 93.00 97.00 101.04 97.00 110.87 C 97.00 130.10 97.52 135.00 99.54 135.00 C 101.09 135.00 104.57 129.61 105.54 125.71 C 106.35 122.46 107.61 122.60 110.34 126.25 C 113.36 130.30 113.88 136.22 113.93 167.50 C 113.99 198.57 113.03 211.78 110.43 215.75 C 109.04 217.87 108.24 218.16 105.02 217.73 C 102.93 217.45 98.97 216.08 96.20 214.69 C 93.43 213.30 90.92 212.42 90.61 212.72 C 90.31 213.02 91.96 215.39 94.28 217.97 C 96.60 220.55 101.88 227.45 106.00 233.31 C 114.83 245.83 115.99 246.28 120.74 239.01 Z  M 39.00 215.81 C 60.76 208.96 75.35 197.58 95.21 172.00 C 102.82 162.19 107.49 157.11 110.92 154.91 C 114.02 152.93 113.06 151.43 108.19 150.65 C 106.08 150.31 102.47 148.67 100.18 147.02 C 97.89 145.36 95.33 144.00 94.48 144.00 C 93.63 144.00 90.26 145.35 86.98 147.01 C 76.72 152.19 54.36 156.76 47.18 155.15 C 44.50 154.55 42.80 154.60 42.09 155.31 C 41.34 156.06 43.43 157.37 49.20 159.76 C 56.26 162.69 57.72 162.99 59.94 161.96 C 65.09 159.58 78.46 156.00 82.21 156.00 C 87.53 156.00 87.89 157.88 84.01 165.30 C 72.86 186.65 56.83 202.75 37.47 212.02 C 22.08 219.38 22.72 220.94 39.00 215.81 Z  M 88.09 74.89 C 89.27 73.03 89.23 68.73 88.00 65.51 C 87.20 63.40 83.92 61.41 71.35 55.41 C 62.73 51.30 55.24 48.09 54.69 48.27 C 54.14 48.45 57.17 52.41 61.43 57.05 C 65.69 61.70 71.05 68.13 73.34 71.35 C 77.50 77.19 77.50 77.19 82.36 76.73 C 85.03 76.48 87.61 75.65 88.09 74.89 Z "/>
</g>
</svg>