<?xml version="1.0" encoding="UTF-8" standalone="no"?>
<!DOCTYPE svg PUBLIC "-//W3C//DTD SVG 1.1//EN" "http://www.w3.org/Graphics/SVG/1.1/DTD/svg11.dtd" >
<svg xmlns="http://www.w3.org/2000/svg" xmlns:xlink="http://www.w3.org/1999/xlink" version="1.1" viewBox="0 0 256 256">
 <g >
 <path fill="currentColor"
d=" M 169.36 233.75 C 172.83 227.50 172.83 227.50 173.28 201.00 C 173.62 180.68 174.14 172.57 175.51 166.22 C 177.30 157.94 177.30 157.94 174.97 155.47 C 173.70 154.11 171.72 152.99 170.58 152.99 C 169.43 152.98 165.80 152.12 162.50 151.08 C 156.50 149.18 156.50 149.18 159.50 148.00 C 165.04 145.82 182.43 140.13 189.69 138.14 C 197.69 135.94 197.02 135.64 201.40 143.30 C 205.76 150.94 211.88 151.92 214.59 145.44 C 215.37 143.58 216.00 141.41 216.00 140.61 C 216.00 139.40 210.27 134.13 192.82 119.25 C 191.85 118.42 190.29 118.09 189.12 118.46 C 187.19 119.07 187.29 119.44 191.05 125.58 C 193.77 130.02 194.62 132.20 193.76 132.50 C 190.80 133.55 142.62 143.95 142.29 143.62 C 141.89 143.23 145.59 139.20 179.36 103.21 C 191.39 90.39 203.20 78.26 205.61 76.24 C 211.57 71.26 211.64 67.66 205.90 61.15 C 203.64 58.59 200.15 53.69 198.15 50.26 C 194.89 44.69 191.76 41.90 190.35 43.31 C 190.08 43.58 190.82 45.68 191.99 47.97 C 194.89 53.66 195.52 60.49 193.63 65.73 C 191.85 70.66 185.89 79.78 178.40 89.05 C 173.11 95.59 173.11 95.59 154.50 98.41 C 144.26 99.95 135.69 101.02 135.44 100.78 C 135.02 100.35 144.92 85.50 155.97 70.00 C 158.91 65.88 164.62 58.85 168.66 54.39 C 179.19 42.75 179.11 42.15 165.42 28.81 C 159.60 23.14 154.40 18.34 153.87 18.15 C 153.34 17.96 154.55 20.89 156.55 24.65 C 161.65 34.24 161.21 38.57 153.57 54.28 C 143.37 75.24 128.05 96.22 119.75 100.60 C 115.66 102.76 116.32 105.32 122.00 109.41 C 124.75 111.38 127.31 113.00 127.67 113.00 C 128.04 113.00 131.12 111.89 134.51 110.53 C 141.44 107.76 166.93 100.60 167.58 101.25 C 167.81 101.47 164.47 105.90 160.16 111.08 C 148.90 124.63 132.55 139.93 125.70 143.33 C 117.95 147.17 117.96 149.40 125.75 153.91 C 131.50 157.24 131.50 157.24 142.03 153.78 C 152.56 150.32 152.56 150.32 156.24 152.65 C 158.26 153.93 160.42 155.91 161.03 157.06 C 161.79 158.48 162.04 167.42 161.82 185.37 C 161.54 208.45 161.29 211.92 159.73 214.30 C 158.75 215.78 157.22 217.00 156.33 217.00 C 155.43 217.00 150.98 214.97 146.42 212.48 C 141.86 210.00 137.87 208.40 137.55 208.92 C 137.22 209.45 139.28 212.04 142.11 214.69 C 144.95 217.34 150.87 224.11 155.28 229.75 C 159.69 235.39 163.88 240.00 164.60 240.00 C 165.31 240.00 167.46 237.19 169.36 233.75 Z  M 47.38 219.99 C 50.27 217.19 50.27 217.19 50.38 197.94 C 50.46 185.88 50.13 178.56 49.50 178.36 C 48.95 178.18 47.45 181.29 46.17 185.27 C 44.89 189.25 41.44 197.45 38.50 203.50 C 35.23 210.24 33.52 214.87 34.08 215.45 C 34.59 215.97 35.00 217.18 35.00 218.13 C 35.00 219.08 36.20 220.80 37.66 221.94 C 40.84 224.45 43.32 223.95 47.38 219.99 Z  M 122.44 212.73 C 127.07 210.10 127.82 207.89 130.98 187.33 C 134.20 166.34 133.62 165.29 126.49 179.25 C 120.13 191.72 114.44 201.39 112.55 202.96 C 111.70 203.66 111.00 204.87 111.00 205.64 C 111.00 207.76 115.85 215.00 117.26 214.98 C 117.94 214.97 120.27 213.96 122.44 212.73 Z  M 80.93 201.37 C 82.07 199.92 83.01 198.00 83.01 197.12 C 83.02 196.23 80.50 190.47 77.41 184.32 C 73.47 176.45 71.39 173.30 70.40 173.68 C 68.82 174.28 68.72 177.72 69.92 191.42 C 70.58 198.94 71.06 200.63 72.96 202.17 C 76.09 204.70 78.49 204.46 80.93 201.37 Z  M 228.43 197.43 C 230.87 194.98 230.46 188.35 227.70 185.70 C 221.22 179.48 194.88 162.75 193.58 164.03 C 193.02 164.58 194.92 167.81 198.40 172.22 C 201.55 176.22 207.06 183.89 210.64 189.25 C 217.15 199.00 217.15 199.00 222.00 199.00 C 225.08 199.00 227.43 198.43 228.43 197.43 Z  M 107.86 191.67 C 108.46 190.94 109.62 188.76 110.43 186.83 C 111.90 183.31 111.90 183.31 102.53 173.71 C 95.11 166.11 92.93 164.38 92.05 165.44 C 91.22 166.44 92.11 169.71 95.70 178.77 C 99.51 188.42 100.94 190.97 102.97 191.78 C 106.47 193.17 106.61 193.17 107.86 191.67 Z  M 63.15 158.52 C 69.42 155.50 79.25 151.26 84.99 149.10 C 95.44 145.16 95.44 145.16 97.77 149.08 C 99.85 152.55 100.55 153.00 103.95 153.00 C 107.44 153.00 107.92 152.67 109.31 149.25 C 111.25 144.49 110.95 144.01 99.36 133.35 C 88.65 123.50 86.45 123.37 90.43 132.82 C 91.84 136.19 93.00 139.33 93.00 139.80 C 93.00 140.27 85.46 143.04 76.25 145.96 C 67.04 148.87 58.83 151.51 58.00 151.82 C 57.17 152.12 58.56 149.93 61.09 146.94 C 63.61 143.95 71.08 134.75 77.69 126.50 C 84.29 118.25 92.27 109.09 95.40 106.15 C 98.54 103.20 103.33 98.12 106.05 94.84 C 112.14 87.53 112.41 84.76 107.53 80.03 C 105.62 78.18 101.70 73.36 98.81 69.33 C 94.99 63.98 92.97 62.00 91.34 62.00 C 89.12 62.00 89.13 62.04 92.15 67.75 C 94.70 72.59 95.12 74.33 94.76 78.79 C 94.21 85.50 86.65 100.83 83.55 101.51 C 78.98 102.50 51.83 106.10 51.12 105.81 C 49.79 105.27 74.12 70.69 83.25 60.14 C 89.41 53.03 92.00 49.26 92.00 47.43 C 92.00 45.44 89.54 42.48 81.37 34.67 C 75.53 29.08 70.12 24.35 69.36 24.17 C 68.52 23.98 69.35 26.14 71.45 29.63 C 75.77 36.80 76.43 39.67 74.99 45.17 C 72.90 53.20 62.84 71.40 51.63 87.41 C 41.06 102.51 36.75 106.99 32.75 107.00 C 29.07 107.00 31.01 110.72 36.65 114.47 C 42.30 118.22 42.30 118.22 50.90 115.60 C 58.48 113.28 79.19 108.00 80.68 108.00 C 82.10 108.00 58.06 137.89 51.59 144.18 C 48.79 146.90 44.81 150.01 42.75 151.08 C 37.42 153.86 37.97 155.85 45.27 160.24 C 48.70 162.30 51.56 163.99 51.63 163.99 C 51.70 164.00 56.88 161.53 63.15 158.52 Z "/>
</g>
</svg>