<?xml version="1.0" encoding="UTF-8" standalone="no"?>
<!DOCTYPE svg PUBLIC "-//W3C//DTD SVG 1.1//EN" "http://www.w3.org/Graphics/SVG/1.1/DTD/svg11.dtd" >
<svg xmlns="http://www.w3.org/2000/svg" xmlns:xlink="http://www.w3.org/1999/xlink" version="1.1" viewBox="0 0 256 256">
 <g >
 <path fill="currentColor"
d=" M 195.94 225.00 C 199.38 218.50 199.38 218.50 199.11 145.00 C 198.81 63.88 198.78 64.28 204.73 58.33 C 208.14 54.93 208.54 52.00 205.61 52.00 C 204.81 52.00 202.21 50.53 199.83 48.74 C 193.07 43.65 190.22 42.00 188.19 42.00 C 187.15 42.00 182.07 43.52 176.90 45.39 C 163.18 50.33 143.67 52.53 130.50 50.62 C 127.20 50.14 124.83 50.10 125.24 50.53 C 125.65 50.96 130.15 53.20 135.24 55.51 C 144.15 59.55 144.65 59.65 148.50 58.38 C 150.70 57.66 158.53 55.89 165.89 54.45 C 180.27 51.64 185.28 51.78 187.03 55.05 C 187.74 56.38 187.98 79.88 187.79 128.25 C 187.47 208.07 187.68 205.66 180.97 205.33 C 179.07 205.23 174.04 203.34 169.79 201.13 C 165.48 198.90 161.79 197.53 161.46 198.07 C 161.13 198.59 163.51 202.05 166.74 205.76 C 169.97 209.47 176.38 216.91 180.98 222.29 C 186.06 228.23 189.97 231.96 190.93 231.79 C 191.79 231.62 194.05 228.57 195.94 225.00 Z  M 111.48 220.50 C 114.50 214.50 114.50 214.50 115.00 142.95 C 115.55 64.49 115.11 70.08 121.28 63.28 C 123.25 61.11 123.25 61.03 121.40 60.34 C 120.35 59.95 117.47 57.95 115.00 55.88 C 107.00 49.21 101.93 48.46 93.10 52.65 C 85.41 56.30 66.49 58.51 56.68 56.91 C 52.94 56.30 49.61 56.05 49.30 56.37 C 48.99 56.68 52.80 58.92 57.78 61.34 C 66.83 65.74 66.83 65.74 78.61 62.93 C 89.82 60.26 93.71 59.67 98.71 59.90 C 102.88 60.09 103.10 64.04 102.79 130.76 C 102.52 189.63 102.38 193.73 100.64 197.25 C 98.12 202.31 95.33 202.18 84.66 196.55 C 80.02 194.11 75.96 192.37 75.63 192.70 C 75.31 193.02 77.62 196.05 80.77 199.43 C 83.92 202.80 90.29 210.41 94.92 216.33 C 102.15 225.56 103.71 227.06 105.90 226.80 C 107.91 226.56 109.11 225.21 111.48 220.50 Z  M 69.93 150.08 C 89.82 128.59 95.10 122.00 92.42 122.00 C 92.10 122.00 88.62 124.62 84.67 127.82 C 75.17 135.54 46.00 157.42 41.81 159.97 C 37.46 162.63 34.06 162.53 29.76 159.61 C 27.83 158.30 25.77 157.52 25.19 157.88 C 23.66 158.83 42.03 174.94 44.68 174.97 C 46.25 174.99 53.22 168.13 69.93 150.08 Z  M 159.52 141.58 C 170.78 128.42 179.78 117.45 179.53 117.19 C 178.83 116.50 175.40 118.89 153.84 135.07 C 143.03 143.19 133.27 150.32 132.16 150.92 C 128.96 152.63 125.76 152.20 121.83 149.53 C 118.88 147.52 117.99 147.31 117.10 148.38 C 115.49 150.32 133.40 166.22 136.71 165.80 C 138.35 165.59 145.15 158.36 159.52 141.58 Z  M 72.43 112.43 C 73.29 111.56 74.00 109.57 74.00 107.99 C 74.00 101.84 72.79 100.71 59.09 94.12 C 41.76 85.78 40.12 86.39 50.66 97.28 C 55.04 101.80 59.86 107.16 61.38 109.19 C 63.84 112.47 65.45 113.38 69.68 113.86 C 70.33 113.94 71.56 113.29 72.43 112.43 Z  M 161.35 98.06 C 161.17 91.83 160.08 90.59 153.89 89.60 C 151.65 89.24 145.82 87.38 140.93 85.47 C 132.17 82.05 128.51 81.22 129.17 82.81 C 129.35 83.25 134.45 88.21 140.50 93.82 C 151.50 104.02 151.50 104.02 156.50 103.76 C 161.50 103.50 161.50 103.50 161.35 98.06 Z "/>
</g>
</svg>