<?xml version="1.0" encoding="UTF-8" standalone="no"?>
<!DOCTYPE svg PUBLIC "-//W3C//DTD SVG 1.1//EN" "http://www.w3.org/Graphics/SVG/1.1/DTD/svg11.dtd" >
<svg xmlns="http://www.w3.org/2000/svg" xmlns:xlink="http://www.w3.org/1999/xlink" version="1.1" viewBox="0 0 256 256">
 <g >
 <path fill="currentColor"
d=" M 233.31 238.07 C 235.80 237.12 241.00 229.05 241.00 226.12 C 241.00 225.23 238.07 216.48 234.50 206.68 C 230.92 196.88 227.49 186.86 226.88 184.43 C 225.45 178.76 223.69 178.63 224.46 184.25 C 225.73 193.55 226.98 206.73 226.99 210.78 C 227.01 219.36 221.28 217.34 207.90 204.04 C 197.29 193.50 192.65 186.39 187.58 172.94 C 184.30 164.21 184.30 164.21 193.40 154.85 C 198.40 149.71 205.07 143.47 208.20 141.00 C 214.21 136.26 215.33 133.48 212.43 130.57 C 211.56 129.71 210.01 129.00 208.98 129.00 C 207.95 129.00 203.63 127.20 199.38 125.00 C 195.13 122.80 190.26 121.01 188.57 121.02 C 185.60 121.05 185.67 121.14 190.50 123.77 C 197.91 127.82 197.76 129.62 188.86 142.57 C 181.58 153.16 181.58 153.16 180.29 149.42 C 178.81 145.16 173.00 116.95 173.00 114.06 C 173.00 111.27 179.88 109.43 201.81 106.35 C 203.78 106.07 204.97 105.40 204.74 104.69 C 204.25 103.18 198.41 100.37 192.44 98.77 C 188.24 97.65 187.49 97.74 183.92 99.77 C 181.76 101.00 178.23 103.01 176.07 104.24 C 173.91 105.47 171.91 106.24 171.63 105.96 C 171.35 105.68 170.42 97.76 169.56 88.35 C 167.76 68.60 167.52 41.28 169.09 35.60 C 171.02 28.67 169.91 27.86 152.81 23.62 C 144.54 21.57 137.53 20.14 137.22 20.44 C 136.49 21.18 136.38 21.12 145.00 24.53 C 155.22 28.58 156.05 30.34 157.21 50.43 C 158.07 65.40 160.59 96.36 161.65 105.03 C 162.21 109.56 162.21 109.56 152.45 113.29 C 147.08 115.34 142.49 116.82 142.25 116.59 C 142.02 116.35 142.38 113.67 143.06 110.63 C 144.14 105.79 144.09 104.78 142.62 102.55 C 141.50 100.83 140.05 100.00 138.17 100.00 C 136.64 100.00 132.32 98.97 128.57 97.70 C 121.76 95.40 121.76 95.40 133.13 89.05 C 139.38 85.55 146.19 81.85 148.25 80.82 C 153.37 78.27 153.34 75.15 148.15 71.72 C 146.03 70.31 141.51 66.59 138.12 63.45 C 134.72 60.30 131.72 57.94 131.46 58.21 C 131.19 58.47 132.55 60.67 134.48 63.09 C 138.28 67.87 138.76 70.40 136.45 73.50 C 133.20 77.89 121.09 89.45 114.25 94.71 C 104.78 101.98 104.39 104.21 113.35 99.86 C 118.65 97.29 122.00 97.84 126.13 101.97 C 128.81 104.66 129.00 105.37 129.00 112.80 C 129.00 120.76 129.00 120.76 122.54 122.38 C 118.99 123.27 112.21 124.00 107.47 124.00 C 99.82 124.00 98.89 124.20 99.19 125.74 C 99.64 128.10 121.99 131.78 126.25 130.20 C 129.00 129.17 129.00 129.17 129.00 142.88 C 129.00 156.58 129.00 156.58 117.54 163.33 C 111.23 167.04 105.80 170.51 105.48 171.04 C 104.56 172.51 98.62 172.18 96.44 170.53 C 93.96 168.66 92.77 168.62 93.18 170.43 C 93.61 172.32 106.98 182.00 109.17 182.00 C 110.11 182.00 114.17 179.21 118.19 175.81 C 122.21 172.40 126.33 168.92 127.34 168.07 C 129.12 166.58 129.17 167.07 128.80 182.51 C 128.40 199.40 127.33 204.00 123.81 204.00 C 122.78 204.00 119.28 202.66 116.02 201.01 C 112.77 199.37 109.91 198.36 109.66 198.76 C 109.42 199.17 112.81 204.00 117.20 209.50 C 121.59 215.00 126.32 221.19 127.72 223.25 C 129.12 225.31 131.00 227.00 131.90 227.00 C 132.86 227.00 134.87 224.58 136.77 221.12 C 140.00 215.25 140.00 215.25 140.00 185.87 C 140.01 156.50 140.01 156.50 148.52 149.10 C 153.20 145.02 156.85 141.52 156.63 141.30 C 156.41 141.08 152.86 142.95 148.74 145.45 C 144.62 147.95 140.90 150.00 140.47 150.00 C 139.40 150.00 140.67 124.93 141.80 123.80 C 143.30 122.30 161.20 115.86 162.49 116.36 C 163.16 116.61 163.98 119.53 164.33 122.85 C 165.17 130.89 167.59 142.56 170.65 153.26 C 173.15 162.02 173.15 162.02 170.19 165.76 C 166.11 170.90 157.53 178.90 151.24 183.42 C 145.75 187.37 144.43 189.60 148.25 188.47 C 153.89 186.81 161.10 182.86 168.00 177.66 C 172.12 174.55 175.75 172.00 176.07 172.00 C 176.39 172.00 179.02 177.51 181.91 184.25 C 184.81 190.99 189.26 199.86 191.79 203.96 C 197.78 213.65 211.54 227.49 221.57 233.92 C 230.32 239.53 229.89 239.37 233.31 238.07 Z  M 73.12 199.33 C 83.71 188.16 83.71 188.16 86.50 194.00 C 89.20 199.65 90.83 200.95 95.23 200.99 C 96.24 200.99 97.78 199.40 98.91 197.17 C 100.87 193.33 100.87 193.33 90.68 183.20 C 79.25 171.81 76.44 170.90 80.19 179.78 C 81.39 182.63 82.18 185.15 81.94 185.38 C 81.70 185.61 75.76 189.44 68.75 193.89 C 56.00 201.97 56.00 201.97 56.00 186.53 C 56.00 169.21 55.16 170.34 69.88 167.93 C 78.38 166.54 80.00 166.70 80.00 168.94 C 80.00 170.01 80.40 171.13 80.88 171.43 C 82.17 172.23 86.80 168.28 88.56 164.88 C 90.09 161.93 97.00 129.60 97.00 125.41 C 97.00 124.17 98.58 121.08 100.51 118.56 C 104.02 113.96 104.02 113.96 101.47 112.99 C 100.07 112.46 97.26 110.89 95.23 109.51 C 90.53 106.32 89.21 106.36 82.19 109.90 C 73.41 114.34 64.29 117.00 57.89 117.00 C 54.72 117.00 51.90 117.36 51.63 117.80 C 51.35 118.24 54.84 119.64 59.38 120.91 C 67.62 123.22 67.62 123.22 73.90 120.05 C 77.51 118.23 81.31 117.01 82.84 117.19 C 86.04 117.56 86.03 117.25 83.22 136.50 C 82.10 144.20 80.89 153.05 80.53 156.17 C 79.88 161.85 79.88 161.85 76.59 160.47 C 74.78 159.72 72.90 159.46 72.40 159.90 C 71.59 160.62 57.51 166.00 56.44 166.00 C 56.20 166.00 56.00 161.97 56.00 157.04 C 56.00 148.08 56.00 148.08 62.61 146.04 C 66.24 144.92 71.64 144.00 74.61 144.00 C 77.69 144.00 80.00 143.55 80.00 142.95 C 80.00 142.38 77.68 140.83 74.83 139.51 C 70.02 137.28 69.47 137.22 66.72 138.64 C 65.10 139.48 61.99 140.80 59.81 141.57 C 55.85 142.96 55.85 142.96 56.39 140.23 C 59.19 126.00 58.00 123.13 48.40 120.95 C 42.00 119.50 42.00 119.50 47.85 111.35 C 51.06 106.87 55.85 98.99 58.49 93.85 C 61.12 88.71 63.43 84.33 63.61 84.11 C 63.79 83.90 67.81 87.39 72.54 91.86 C 80.25 99.16 81.53 100.00 85.00 100.00 C 89.38 100.00 90.62 98.08 89.51 93.02 C 88.98 90.61 87.94 89.75 83.68 88.15 C 78.43 86.18 66.84 81.17 66.31 80.65 C 65.99 80.32 75.54 56.13 76.29 55.38 C 77.04 54.63 85.89 60.84 93.23 67.27 C 99.19 72.50 100.30 73.09 102.99 72.50 C 108.02 71.40 109.07 69.68 107.67 64.84 C 106.35 60.29 107.88 60.98 84.75 54.54 C 78.32 52.76 77.76 51.55 81.38 47.35 C 85.19 42.92 83.47 40.02 73.67 34.38 C 69.17 31.80 64.11 28.63 62.41 27.34 C 59.36 25.03 57.00 24.32 57.00 25.71 C 57.00 26.10 59.02 28.28 61.50 30.55 C 67.04 35.64 67.15 37.21 63.02 52.61 C 58.02 71.26 50.82 88.64 40.83 106.17 C 36.29 114.14 34.36 116.69 33.20 116.25 C 32.10 115.82 31.82 116.10 32.25 117.21 C 32.97 119.08 30.16 123.34 19.89 135.95 C 6.90 151.90 12.40 149.77 29.81 132.12 C 40.12 121.66 40.12 121.66 42.80 124.34 C 45.31 126.85 45.47 127.58 45.49 136.26 C 45.50 145.50 45.50 145.50 39.71 145.62 C 36.53 145.69 33.68 145.98 33.40 146.27 C 33.11 146.56 35.83 147.78 39.44 148.98 C 46.00 151.16 46.00 151.16 45.99 174.83 C 45.97 200.16 44.86 208.82 40.99 213.75 C 38.12 217.39 38.56 219.10 43.29 222.68 C 47.50 225.87 47.50 225.87 55.02 218.18 C 59.15 213.96 67.30 205.47 73.12 199.33 Z  M 208.59 80.93 C 210.08 79.69 210.54 71.38 209.23 69.38 C 208.30 67.94 179.01 53.66 178.35 54.32 C 178.08 54.59 181.39 59.02 185.71 64.16 C 190.03 69.30 195.07 75.69 196.91 78.36 C 200.04 82.92 200.46 83.19 203.71 82.66 C 205.62 82.35 207.81 81.57 208.59 80.93 Z "/>
</g>
</svg>