<?xml version="1.0" encoding="UTF-8" standalone="no"?>
<!DOCTYPE svg PUBLIC "-//W3C//DTD SVG 1.1//EN" "http://www.w3.org/Graphics/SVG/1.1/DTD/svg11.dtd" >
<svg xmlns="http://www.w3.org/2000/svg" xmlns:xlink="http://www.w3.org/1999/xlink" version="1.1" viewBox="0 0 256 256">
 <g >
 <path fill="currentColor"
d=" M 228.00 237.48 C 238.18 233.74 246.84 230.39 247.26 230.03 C 248.28 229.16 244.67 218.31 240.05 208.42 C 232.23 191.64 219.01 175.46 206.69 167.58 C 199.82 163.18 189.08 158.47 183.61 157.45 C 179.71 156.72 179.71 156.72 180.44 159.61 C 181.16 162.49 187.00 191.00 187.00 191.66 C 187.00 191.85 177.78 192.00 166.50 192.00 C 155.22 192.00 146.00 191.84 146.00 191.64 C 146.00 191.44 147.31 188.38 148.92 184.84 C 150.52 181.30 153.76 172.24 156.12 164.70 C 160.40 151.00 160.40 151.00 203.20 151.00 C 246.00 151.00 246.00 151.00 246.00 126.50 C 246.00 102.00 246.00 102.00 217.50 102.00 C 189.00 102.00 189.00 102.00 189.00 91.00 C 189.00 80.00 189.00 80.00 214.50 80.00 C 240.00 80.00 240.00 80.00 240.00 55.50 C 240.00 31.00 240.00 31.00 214.50 31.00 C 189.00 31.00 189.00 31.00 189.00 19.50 C 189.00 8.00 189.00 8.00 162.50 8.00 C 136.00 8.00 136.00 8.00 136.00 19.50 C 136.00 31.00 136.00 31.00 111.00 31.00 C 86.00 31.00 86.00 31.00 86.00 55.50 C 86.00 80.00 86.00 80.00 111.00 80.00 C 136.00 80.00 136.00 80.00 136.00 91.00 C 136.00 102.00 136.00 102.00 107.50 102.00 C 79.00 102.00 79.00 102.00 79.00 126.50 C 79.00 151.00 79.00 151.00 91.50 151.00 C 98.38 151.00 104.00 151.39 104.00 151.88 C 104.00 154.92 86.48 202.84 78.01 222.99 C 74.70 230.84 72.00 237.43 72.00 237.62 C 72.00 237.82 99.78 238.10 133.74 238.24 C 195.48 238.50 195.48 238.50 196.31 243.71 C 197.14 248.93 197.14 248.93 203.32 246.60 C 206.72 245.33 217.82 241.22 228.00 237.48 Z  M 56.59 233.62 C 65.01 219.46 68.37 207.02 68.37 190.00 C 68.38 178.98 68.05 176.57 65.64 169.60 C 62.27 159.84 52.08 142.32 50.76 144.01 C 50.55 144.28 49.10 147.88 47.54 152.00 C 41.67 167.48 25.11 197.93 11.78 217.78 C 6.89 225.07 6.89 225.07 16.20 229.43 C 21.31 231.83 30.68 236.28 37.00 239.31 C 48.50 244.82 48.50 244.82 50.80 242.16 C 52.06 240.70 54.67 236.85 56.59 233.62 Z  M 45.40 140.34 C 57.55 137.23 67.81 134.42 68.18 134.09 C 68.56 133.77 68.19 129.90 67.36 125.50 C 65.28 114.50 59.41 102.32 53.21 96.11 C 44.57 87.48 30.69 82.05 17.18 82.01 C 11.49 82.00 10.92 82.18 11.45 83.85 C 13.00 88.73 17.09 111.10 18.97 125.00 C 21.41 142.98 21.95 146.00 22.73 146.00 C 23.04 146.00 33.24 143.45 45.40 140.34 Z  M 48.50 70.75 C 68.50 65.50 68.50 65.50 68.19 62.00 C 66.57 43.34 55.56 25.71 41.27 18.89 C 31.08 14.03 9.99 10.91 11.35 14.48 C 12.44 17.32 16.88 41.65 18.93 56.00 C 22.24 79.27 21.63 77.29 25.31 76.60 C 27.07 76.27 37.50 73.63 48.50 70.75 Z "/>
</g>
</svg>