<?xml version="1.0" encoding="UTF-8" standalone="no"?>
<!DOCTYPE svg PUBLIC "-//W3C//DTD SVG 1.1//EN" "http://www.w3.org/Graphics/SVG/1.1/DTD/svg11.dtd" >
<svg xmlns="http://www.w3.org/2000/svg" xmlns:xlink="http://www.w3.org/1999/xlink" version="1.1" viewBox="0 0 256 256">
 <g >
 <path fill="currentColor"
d=" M 78.00 212.56 C 78.00 176.13 78.00 176.13 83.30 168.22 C 88.20 160.89 93.11 148.77 91.73 147.39 C 91.24 146.90 85.48 148.45 79.25 150.75 C 78.31 151.10 78.00 149.07 78.00 142.61 C 78.00 134.00 78.00 134.00 85.52 134.00 C 93.05 134.00 93.05 134.00 92.77 115.75 C 92.50 97.50 92.50 97.50 85.25 97.21 C 78.00 96.91 78.00 96.91 78.00 85.46 C 78.00 74.00 78.00 74.00 52.00 74.00 C 26.00 74.00 26.00 74.00 26.00 85.50 C 26.00 97.00 26.00 97.00 17.50 97.00 C 9.00 97.00 9.00 97.00 9.00 115.50 C 9.00 134.00 9.00 134.00 17.50 134.00 C 26.00 134.00 26.00 134.00 26.00 147.36 C 26.00 160.73 26.00 160.73 21.36 161.36 C 18.81 161.71 14.76 162.00 12.36 162.00 C 9.96 162.00 8.00 162.12 8.00 162.28 C 8.00 162.98 12.04 191.88 12.56 194.88 C 13.14 198.26 13.14 198.26 17.82 197.70 C 20.39 197.39 23.29 196.84 24.25 196.46 C 25.84 195.85 26.00 196.63 26.00 204.89 C 26.00 214.00 26.00 214.00 19.50 214.00 C 13.00 214.00 13.00 214.00 13.00 231.50 C 13.00 249.00 13.00 249.00 45.50 249.00 C 78.00 249.00 78.00 249.00 78.00 212.56 Z  M 136.50 246.10 C 148.97 243.42 161.04 239.78 171.77 235.47 C 180.05 232.14 180.05 232.14 187.77 235.67 C 194.54 238.76 221.94 247.27 228.04 248.17 C 230.00 248.46 231.16 246.52 238.53 230.50 C 243.09 220.60 246.70 212.37 246.54 212.22 C 246.39 212.06 241.14 210.56 234.88 208.89 C 228.62 207.22 223.18 205.54 222.79 205.17 C 222.40 204.79 223.87 202.23 226.06 199.49 C 231.41 192.81 235.23 186.07 238.93 176.83 C 241.91 169.39 242.00 168.70 242.00 153.08 C 242.00 137.00 242.00 137.00 202.52 137.00 C 163.05 137.00 163.05 137.00 163.61 133.75 C 163.92 131.96 164.35 129.94 164.56 129.25 C 164.85 128.28 173.91 128.00 205.47 128.00 C 246.00 128.00 246.00 128.00 246.00 109.00 C 246.00 90.00 246.00 90.00 237.51 90.00 C 229.03 90.00 229.03 90.00 227.66 86.72 C 225.83 82.35 220.47 77.12 215.52 74.87 C 209.53 72.15 198.89 72.37 192.50 75.35 C 187.35 77.76 180.72 84.17 179.54 87.89 C 178.94 89.75 178.10 90.00 172.43 90.00 C 166.00 90.00 166.00 90.00 166.00 82.00 C 166.00 74.00 166.00 74.00 140.50 74.00 C 115.00 74.00 115.00 74.00 115.00 82.00 C 115.00 90.00 115.00 90.00 107.50 90.00 C 100.00 90.00 100.00 90.00 100.00 109.00 C 100.00 128.00 100.00 128.00 106.00 128.00 C 113.21 128.00 112.87 125.71 109.47 151.40 C 105.56 180.85 100.18 204.83 91.31 232.37 C 90.45 235.03 108.90 225.43 118.88 218.03 C 126.50 212.37 137.72 200.98 140.80 195.77 C 142.68 192.57 143.81 192.28 144.68 194.75 C 145.03 195.71 147.31 199.56 149.77 203.30 C 152.22 207.05 154.06 210.24 153.86 210.41 C 145.65 217.21 125.07 229.81 103.94 240.96 C 88.50 249.11 88.50 249.11 107.50 248.68 C 121.88 248.35 128.93 247.73 136.50 246.10 Z  M 105.80 63.25 C 106.10 58.00 106.10 58.00 128.00 58.00 C 149.90 58.00 149.90 58.00 150.20 63.25 C 150.50 68.50 150.50 68.50 175.25 68.77 C 200.00 69.03 200.00 69.03 200.00 63.52 C 200.00 58.00 200.00 58.00 223.00 58.00 C 246.00 58.00 246.00 58.00 246.00 38.50 C 246.00 19.00 246.00 19.00 223.00 19.00 C 200.00 19.00 200.00 19.00 200.00 13.50 C 200.00 8.00 200.00 8.00 175.00 8.00 C 150.00 8.00 150.00 8.00 150.00 13.50 C 150.00 19.00 150.00 19.00 128.00 19.00 C 106.00 19.00 106.00 19.00 106.00 13.50 C 106.00 8.00 106.00 8.00 80.50 8.00 C 55.00 8.00 55.00 8.00 55.00 13.50 C 55.00 19.00 55.00 19.00 32.00 19.00 C 9.00 19.00 9.00 19.00 9.00 38.50 C 9.00 58.00 9.00 58.00 32.00 58.00 C 55.00 58.00 55.00 58.00 55.00 63.52 C 55.00 69.03 55.00 69.03 80.25 68.77 C 105.50 68.50 105.50 68.50 105.80 63.25 Z  M 167.50 180.22 C 157.50 173.50 157.50 173.50 165.80 173.21 C 170.36 173.05 177.52 173.05 181.70 173.21 C 189.31 173.50 189.31 173.50 184.37 179.93 C 181.65 183.46 178.99 186.49 178.46 186.64 C 177.93 186.80 173.00 183.91 167.50 180.22 Z "/>
</g>
</svg>