<?xml version="1.0" encoding="UTF-8" standalone="no"?>
<!DOCTYPE svg PUBLIC "-//W3C//DTD SVG 1.1//EN" "http://www.w3.org/Graphics/SVG/1.1/DTD/svg11.dtd" >
<svg xmlns="http://www.w3.org/2000/svg" xmlns:xlink="http://www.w3.org/1999/xlink" version="1.1" viewBox="0 0 256 256">
 <g >
 <path fill="currentColor"
d=" M 60.00 197.50 C 60.00 146.00 60.00 146.00 91.50 146.00 C 123.00 146.00 123.00 146.00 123.00 103.50 C 123.00 61.00 123.00 61.00 96.50 61.00 C 70.00 61.00 70.00 61.00 70.00 76.50 C 70.00 92.00 70.00 92.00 75.50 92.00 C 80.94 92.00 81.00 92.03 81.00 95.00 C 81.00 98.00 81.00 98.00 72.50 98.00 C 64.00 98.00 64.00 98.00 64.00 79.50 C 64.00 61.00 64.00 61.00 38.50 61.00 C 13.00 61.00 13.00 61.00 13.00 155.00 C 13.00 249.00 13.00 249.00 36.50 249.00 C 60.00 249.00 60.00 249.00 60.00 197.50 Z  M 242.00 155.00 C 242.00 61.00 242.00 61.00 211.47 61.00 C 180.95 61.00 180.95 61.00 181.22 76.25 C 181.50 91.50 181.50 91.50 186.25 91.80 C 190.77 92.09 191.00 92.25 191.00 95.05 C 191.00 98.00 191.00 98.00 183.00 98.00 C 175.00 98.00 175.00 98.00 175.00 79.50 C 175.00 61.00 175.00 61.00 153.50 61.00 C 132.00 61.00 132.00 61.00 132.00 103.50 C 132.00 146.00 132.00 146.00 163.50 146.00 C 195.00 146.00 195.00 146.00 195.00 178.00 C 195.00 210.00 195.00 210.00 192.00 210.00 C 189.00 210.00 189.00 210.00 189.00 229.50 C 189.00 249.00 189.00 249.00 215.50 249.00 C 242.00 249.00 242.00 249.00 242.00 155.00 Z  M 185.00 237.00 C 185.00 227.00 185.00 227.00 174.00 227.00 C 163.67 227.00 163.00 226.88 163.00 225.00 C 163.00 223.14 163.67 223.00 172.50 223.00 C 182.00 223.00 182.00 223.00 182.00 214.00 C 182.00 205.00 182.00 205.00 172.50 205.00 C 163.67 205.00 163.00 204.86 163.00 203.00 C 163.00 201.14 163.67 201.00 172.50 201.00 C 182.00 201.00 182.00 201.00 182.00 192.00 C 182.00 183.00 182.00 183.00 172.50 183.00 C 163.67 183.00 163.00 182.86 163.00 181.00 C 163.00 179.13 163.67 179.00 173.50 179.00 C 184.00 179.00 184.00 179.00 184.00 169.50 C 184.00 160.00 184.00 160.00 171.64 160.00 C 159.29 160.00 159.29 160.00 158.36 156.75 C 157.43 153.50 157.43 153.50 138.09 153.23 C 117.03 152.93 118.17 152.61 120.49 158.25 C 121.14 159.81 120.51 160.00 114.67 160.00 C 108.13 160.00 108.13 160.00 107.81 156.75 C 107.50 153.50 107.50 153.50 89.33 153.23 C 68.40 152.91 70.61 151.32 69.50 167.50 C 68.91 176.06 66.62 192.70 65.32 197.87 C 64.74 200.16 64.88 200.24 68.36 199.59 C 72.00 198.91 72.00 198.91 72.00 222.95 C 72.00 247.00 72.00 247.00 128.50 247.00 C 185.00 247.00 185.00 247.00 185.00 237.00 Z  M 107.82 51.75 C 108.13 49.00 108.13 49.00 127.50 49.00 C 146.87 49.00 146.87 49.00 147.18 51.75 C 147.50 54.50 147.50 54.50 173.75 54.77 C 200.00 55.03 200.00 55.03 200.00 52.02 C 200.00 49.00 200.00 49.00 222.50 49.00 C 245.00 49.00 245.00 49.00 245.00 31.50 C 245.00 14.00 245.00 14.00 222.50 14.00 C 200.00 14.00 200.00 14.00 200.00 11.00 C 200.00 8.00 200.00 8.00 173.50 8.00 C 147.00 8.00 147.00 8.00 147.00 11.00 C 147.00 14.00 147.00 14.00 127.50 14.00 C 108.00 14.00 108.00 14.00 108.00 11.00 C 108.00 8.00 108.00 8.00 81.50 8.00 C 55.00 8.00 55.00 8.00 55.00 11.00 C 55.00 14.00 55.00 14.00 32.50 14.00 C 10.00 14.00 10.00 14.00 10.00 31.50 C 10.00 49.00 10.00 49.00 32.50 49.00 C 55.00 49.00 55.00 49.00 55.00 52.02 C 55.00 55.03 55.00 55.03 81.25 54.77 C 107.50 54.50 107.50 54.50 107.82 51.75 Z  M 64.00 115.46 C 64.00 111.92 64.00 111.92 72.25 112.21 C 80.50 112.50 80.50 112.50 80.81 115.75 C 81.13 119.00 81.13 119.00 72.56 119.00 C 64.00 119.00 64.00 119.00 64.00 115.46 Z  M 175.19 115.75 C 175.50 112.50 175.50 112.50 183.25 112.21 C 191.00 111.92 191.00 111.92 191.00 115.46 C 191.00 119.00 191.00 119.00 182.94 119.00 C 174.87 119.00 174.87 119.00 175.19 115.75 Z  M 108.00 225.04 C 108.00 223.15 108.61 223.00 116.57 223.00 C 124.20 223.00 125.11 223.19 124.81 224.75 C 124.53 226.22 123.15 226.55 116.24 226.79 C 108.52 227.06 108.00 226.95 108.00 225.04 Z  M 108.00 202.96 C 108.00 201.05 108.52 200.94 116.24 201.21 C 123.15 201.45 124.53 201.78 124.81 203.25 C 125.11 204.81 124.20 205.00 116.57 205.00 C 108.61 205.00 108.00 204.85 108.00 202.96 Z  M 108.00 180.96 C 108.00 179.05 108.52 178.94 116.24 179.21 C 123.15 179.45 124.53 179.78 124.81 181.25 C 125.11 182.81 124.20 183.00 116.57 183.00 C 108.61 183.00 108.00 182.85 108.00 180.96 Z "/>
</g>
</svg>