<?xml version="1.0" encoding="UTF-8" standalone="no"?>
<!DOCTYPE svg PUBLIC "-//W3C//DTD SVG 1.1//EN" "http://www.w3.org/Graphics/SVG/1.1/DTD/svg11.dtd" >
<svg xmlns="http://www.w3.org/2000/svg" xmlns:xlink="http://www.w3.org/1999/xlink" version="1.1" viewBox="0 0 256 256">
 <g >
 <path fill="currentColor"
d=" M 98.76 205.25 C 98.50 161.50 98.50 161.50 75.25 161.23 C 52.00 160.96 52.00 160.96 52.00 180.48 C 52.00 200.00 52.00 200.00 56.00 200.00 C 60.00 200.00 60.00 200.00 60.00 205.50 C 60.00 211.00 60.00 211.00 54.50 211.00 C 49.00 211.00 49.00 211.00 49.00 186.00 C 49.00 161.00 49.00 161.00 29.50 161.00 C 10.00 161.00 10.00 161.00 10.00 205.00 C 10.00 249.00 10.00 249.00 54.51 249.00 C 99.02 249.00 99.02 249.00 98.76 205.25 Z  M 248.00 233.50 C 248.00 218.00 248.00 218.00 225.50 218.00 C 203.67 218.00 203.00 217.94 203.00 216.00 C 203.00 214.07 203.67 214.00 221.50 214.00 C 240.00 214.00 240.00 214.00 240.00 203.00 C 240.00 192.00 240.00 192.00 221.50 192.00 C 203.67 192.00 203.00 191.93 203.00 190.00 C 203.00 188.06 203.67 188.00 224.00 188.00 C 245.00 188.00 245.00 188.00 245.00 172.00 C 245.00 156.00 245.00 156.00 224.00 156.00 C 203.00 156.00 203.00 156.00 203.00 152.00 C 203.00 148.00 203.00 148.00 223.00 148.00 C 243.00 148.00 243.00 148.00 243.00 115.02 C 243.00 82.04 243.00 82.04 223.25 81.77 C 203.50 81.50 203.50 81.50 203.19 78.25 C 202.87 75.00 202.87 75.00 219.94 75.00 C 237.00 75.00 237.00 75.00 237.00 59.50 C 237.00 44.00 237.00 44.00 242.50 44.00 C 248.00 44.00 248.00 44.00 248.00 28.50 C 248.00 13.00 248.00 13.00 242.50 13.00 C 237.30 13.00 237.00 12.86 237.00 10.50 C 237.00 8.00 237.00 8.00 212.50 8.00 C 188.00 8.00 188.00 8.00 188.00 10.50 C 188.00 13.00 188.00 13.00 176.00 13.00 C 164.00 13.00 164.00 13.00 164.00 10.50 C 164.00 8.00 164.00 8.00 140.07 8.00 C 116.14 8.00 116.14 8.00 115.82 10.25 C 115.54 12.21 114.82 12.54 110.25 12.80 C 105.00 13.10 105.00 13.10 105.00 28.55 C 105.00 44.00 105.00 44.00 110.50 44.00 C 116.00 44.00 116.00 44.00 116.00 59.50 C 116.00 75.00 116.00 75.00 133.00 75.00 C 150.00 75.00 150.00 75.00 150.00 78.50 C 150.00 82.00 150.00 82.00 130.50 82.00 C 111.00 82.00 111.00 82.00 111.00 115.00 C 111.00 148.00 111.00 148.00 130.50 148.00 C 150.00 148.00 150.00 148.00 150.00 152.00 C 150.00 156.00 150.00 156.00 129.50 156.00 C 109.00 156.00 109.00 156.00 109.00 172.00 C 109.00 188.00 109.00 188.00 129.50 188.00 C 149.33 188.00 150.00 188.07 150.00 190.00 C 150.00 191.93 149.33 192.00 132.00 192.00 C 114.00 192.00 114.00 192.00 114.00 203.00 C 114.00 214.00 114.00 214.00 132.00 214.00 C 149.33 214.00 150.00 214.07 150.00 216.00 C 150.00 217.94 149.33 218.00 127.50 218.00 C 105.00 218.00 105.00 218.00 105.00 233.50 C 105.00 249.00 105.00 249.00 176.50 249.00 C 248.00 249.00 248.00 249.00 248.00 233.50 Z  M 97.77 135.25 C 97.50 115.50 97.50 115.50 53.75 115.24 C 10.00 114.98 10.00 114.98 10.00 134.99 C 10.00 155.00 10.00 155.00 54.02 155.00 C 98.04 155.00 98.04 155.00 97.77 135.25 Z  M 98.00 93.00 C 98.00 78.00 98.00 78.00 54.00 78.00 C 10.00 78.00 10.00 78.00 10.00 93.00 C 10.00 108.00 10.00 108.00 54.00 108.00 C 98.00 108.00 98.00 108.00 98.00 93.00 Z  M 101.77 49.75 C 102.04 29.00 102.04 29.00 92.64 29.00 C 83.23 29.00 83.23 29.00 80.55 23.52 C 74.29 10.71 58.20 4.78 43.02 9.68 C 36.23 11.87 28.69 18.63 26.44 24.53 C 24.73 29.00 24.73 29.00 15.86 29.00 C 7.00 29.00 7.00 29.00 7.00 50.01 C 7.00 71.02 7.00 71.02 54.25 70.76 C 101.50 70.50 101.50 70.50 101.77 49.75 Z  M 147.19 114.75 C 147.50 110.50 147.50 110.50 152.75 110.20 C 158.00 109.90 158.00 109.90 158.00 114.45 C 158.00 119.00 158.00 119.00 152.44 119.00 C 146.89 119.00 146.89 119.00 147.19 114.75 Z  M 195.19 114.75 C 195.50 110.50 195.50 110.50 200.75 110.20 C 206.00 109.90 206.00 109.90 206.00 114.45 C 206.00 119.00 206.00 119.00 200.44 119.00 C 194.89 119.00 194.89 119.00 195.19 114.75 Z  M 164.67 49.33 C 164.30 48.97 164.00 47.62 164.00 46.33 C 164.00 44.02 164.10 44.00 176.00 44.00 C 188.00 44.00 188.00 44.00 188.00 47.00 C 188.00 50.00 188.00 50.00 176.67 50.00 C 170.43 50.00 165.03 49.70 164.67 49.33 Z "/>
</g>
</svg>