<?xml version="1.0" encoding="UTF-8" standalone="no"?>
<!DOCTYPE svg PUBLIC "-//W3C//DTD SVG 1.1//EN" "http://www.w3.org/Graphics/SVG/1.1/DTD/svg11.dtd" >
<svg xmlns="http://www.w3.org/2000/svg" xmlns:xlink="http://www.w3.org/1999/xlink" version="1.1" viewBox="0 0 256 256">
 <g >
 <path fill="currentColor"
d=" M 79.00 226.00 C 79.00 204.00 79.00 204.00 72.00 204.00 C 65.00 204.00 65.00 204.00 65.00 196.00 C 65.00 188.00 65.00 188.00 72.52 188.00 C 80.04 188.00 80.04 188.00 79.77 165.75 C 79.50 143.50 79.50 143.50 72.25 143.21 C 65.00 142.91 65.00 142.91 65.00 135.46 C 65.00 128.00 65.00 128.00 72.50 128.00 C 80.00 128.00 80.00 128.00 80.00 105.50 C 80.00 83.00 80.00 83.00 44.50 83.00 C 9.00 83.00 9.00 83.00 9.00 105.50 C 9.00 128.00 9.00 128.00 14.50 128.00 C 20.00 128.00 20.00 128.00 20.00 135.50 C 20.00 143.00 20.00 143.00 14.00 143.00 C 8.00 143.00 8.00 143.00 8.00 165.50 C 8.00 188.00 8.00 188.00 14.00 188.00 C 20.00 188.00 20.00 188.00 20.00 218.00 C 20.00 248.00 20.00 248.00 49.50 248.00 C 79.00 248.00 79.00 248.00 79.00 226.00 Z  M 246.00 131.50 C 246.00 15.00 246.00 15.00 192.98 15.00 C 139.97 15.00 139.97 15.00 140.23 43.75 C 140.50 72.50 140.50 72.50 145.25 72.80 C 150.00 73.11 150.00 73.11 150.00 90.55 C 150.00 108.00 150.00 108.00 141.50 108.00 C 133.00 108.00 133.00 108.00 133.00 61.50 C 133.00 15.00 133.00 15.00 110.50 15.00 C 88.00 15.00 88.00 15.00 88.00 131.50 C 88.00 248.00 88.00 248.00 167.00 248.00 C 246.00 248.00 246.00 248.00 246.00 131.50 Z  M 23.18 74.93 C 26.05 73.80 30.45 71.44 32.95 69.69 C 37.50 66.50 37.50 66.50 58.50 66.00 C 79.50 65.50 79.50 65.50 79.77 43.25 C 80.04 21.00 80.04 21.00 68.02 21.00 C 56.00 21.00 56.00 21.00 56.00 14.50 C 56.00 8.00 56.00 8.00 33.66 8.00 C 11.32 8.00 11.32 8.00 10.66 31.25 C 10.06 52.60 8.91 68.04 7.38 75.40 C 6.77 78.30 6.77 78.30 12.37 77.64 C 15.44 77.28 20.31 76.06 23.18 74.93 Z  M 133.23 173.25 C 133.50 155.50 133.50 155.50 141.75 155.21 C 150.00 154.92 150.00 154.92 150.00 172.96 C 150.00 191.00 150.00 191.00 141.48 191.00 C 132.95 191.00 132.95 191.00 133.23 173.25 Z  M 183.00 173.00 C 183.00 155.00 183.00 155.00 191.50 155.00 C 200.00 155.00 200.00 155.00 200.00 173.00 C 200.00 191.00 200.00 191.00 191.50 191.00 C 183.00 191.00 183.00 191.00 183.00 173.00 Z  M 183.00 90.50 C 183.00 73.00 183.00 73.00 191.50 73.00 C 200.00 73.00 200.00 73.00 200.00 90.50 C 200.00 108.00 200.00 108.00 191.50 108.00 C 183.00 108.00 183.00 108.00 183.00 90.50 Z "/>
</g>
</svg>