<?xml version="1.0" encoding="UTF-8" standalone="no"?>
<!DOCTYPE svg PUBLIC "-//W3C//DTD SVG 1.1//EN" "http://www.w3.org/Graphics/SVG/1.1/DTD/svg11.dtd" >
<svg xmlns="http://www.w3.org/2000/svg" xmlns:xlink="http://www.w3.org/1999/xlink" version="1.1" viewBox="0 0 256 256">
 <g >
 <path fill="currentColor"
d=" M 215.21 240.22 C 228.49 235.72 233.67 229.22 237.05 212.84 C 238.85 204.09 238.97 198.60 238.99 126.58 C 239.00 45.43 238.73 39.90 234.47 32.44 C 231.06 26.49 224.16 20.60 217.42 17.89 C 211.50 15.50 211.50 15.50 131.00 15.18 C 46.47 14.84 41.21 15.05 32.24 19.24 C 24.79 22.72 18.94 31.89 17.01 43.11 C 16.25 47.51 16.00 75.84 16.20 134.00 C 16.50 218.50 16.50 218.50 19.30 224.20 C 24.58 234.96 32.42 239.31 52.00 242.37 C 53.38 242.58 89.15 242.70 131.50 242.63 C 208.50 242.50 208.50 242.50 215.21 240.22 Z  M 50.55 231.91 C 41.61 230.58 38.28 229.19 34.36 225.16 C 26.96 217.55 27.50 225.19 27.50 128.97 C 27.50 42.45 27.50 42.45 30.06 37.48 C 32.17 33.38 33.64 31.98 38.49 29.50 C 44.36 26.50 44.36 26.50 127.43 26.50 C 210.50 26.50 210.50 26.50 215.21 28.82 C 221.76 32.05 225.60 36.76 226.94 43.21 C 228.59 51.18 227.91 209.17 226.20 214.18 C 223.84 221.09 218.82 227.34 213.50 230.00 C 208.50 232.50 208.50 232.50 132.50 232.65 C 90.70 232.73 53.82 232.39 50.55 231.91 Z  M 141.22 201.15 C 149.90 198.74 152.60 196.87 155.23 191.45 C 157.28 187.25 157.63 187.00 161.52 187.00 C 168.09 187.00 175.22 184.41 178.64 180.78 C 182.46 176.72 184.00 172.30 184.00 165.35 C 184.00 160.00 184.00 160.00 189.25 159.98 C 196.07 159.95 201.72 157.31 206.23 152.05 C 210.95 146.53 212.40 140.37 211.77 128.41 C 211.37 120.72 210.77 118.04 208.39 113.28 C 205.50 107.50 205.50 107.50 197.08 104.78 C 192.45 103.28 188.19 101.59 187.61 101.01 C 186.88 100.28 187.31 98.60 189.03 95.44 C 191.25 91.39 191.50 89.76 191.50 79.54 C 191.50 67.27 190.74 65.10 184.94 60.83 C 180.71 57.71 169.69 56.87 125.47 56.30 C 83.03 55.75 82.37 55.77 78.27 57.86 C 73.84 60.12 69.85 64.64 68.02 69.46 C 65.74 75.45 65.11 85.69 66.59 92.77 C 67.37 96.47 68.00 99.99 68.00 100.58 C 68.00 101.17 64.45 102.42 60.12 103.35 C 46.01 106.39 40.89 112.26 40.18 126.23 C 39.89 132.05 40.30 135.62 41.86 140.73 C 45.63 153.07 52.95 158.94 64.62 158.98 C 70.74 159.00 70.74 159.00 71.21 166.44 C 71.51 171.04 72.34 174.87 73.39 176.47 C 74.32 177.89 75.98 181.95 77.07 185.48 C 81.61 200.18 87.56 202.78 117.02 202.92 C 131.19 202.98 135.82 202.65 141.22 201.15 Z  M 96.21 192.07 C 91.92 190.98 89.54 188.74 86.90 183.30 C 85.05 179.47 84.85 177.89 85.46 171.70 C 86.78 158.34 89.29 155.67 101.44 154.73 C 109.10 154.14 111.48 152.47 110.07 148.67 C 108.57 144.61 98.04 143.81 89.79 147.13 C 85.76 148.75 81.65 149.36 72.50 149.70 C 61.60 150.10 60.20 149.94 57.18 148.04 C 52.04 144.79 49.72 138.49 50.15 128.95 C 50.55 120.19 52.21 116.96 58.08 113.53 C 61.19 111.70 63.06 111.57 82.52 111.83 C 103.58 112.12 103.58 112.12 107.43 109.06 C 113.14 104.51 114.44 104.95 118.40 112.75 C 124.36 124.52 130.65 128.75 143.67 129.73 C 153.41 130.47 158.12 128.58 168.18 119.90 C 173.33 115.46 177.30 112.85 179.54 112.43 C 184.16 111.56 194.91 113.55 198.00 115.84 C 201.55 118.47 203.24 125.69 202.58 135.37 C 201.98 144.23 199.82 149.04 195.97 150.11 C 194.61 150.49 184.72 150.85 174.00 150.92 C 163.28 150.98 153.86 151.44 153.08 151.93 C 152.04 152.59 151.41 156.48 150.77 166.15 C 149.68 182.61 148.09 186.86 141.83 190.15 C 137.83 192.25 136.06 192.44 118.50 192.66 C 108.05 192.79 98.02 192.52 96.21 192.07 Z  M 160.00 174.14 C 160.00 170.10 162.09 161.56 163.26 160.82 C 163.94 160.38 166.19 160.02 168.25 160.02 C 172.00 160.00 172.00 160.00 172.00 164.57 C 172.00 170.41 170.66 172.82 166.45 174.58 C 161.88 176.50 160.00 176.37 160.00 174.14 Z  M 136.50 118.61 C 132.75 116.98 126.26 109.89 125.41 106.51 C 125.01 104.92 125.58 102.00 126.93 98.68 C 130.54 89.77 128.25 87.74 119.40 92.03 C 103.30 99.83 99.91 101.00 93.36 101.00 C 84.42 101.00 80.41 99.12 77.99 93.79 C 75.42 88.13 75.30 76.91 77.75 72.00 C 80.73 66.03 82.08 65.88 129.95 66.21 C 168.69 66.47 172.79 66.66 175.79 68.30 C 180.40 70.81 182.99 75.49 183.00 81.29 C 183.00 87.48 180.55 92.19 172.33 101.82 C 163.95 111.62 159.50 115.68 154.50 118.06 C 149.82 120.28 140.95 120.55 136.50 118.61 Z "/>
</g>
</svg>