<?xml version="1.0" encoding="UTF-8" standalone="no"?>
<!DOCTYPE svg PUBLIC "-//W3C//DTD SVG 1.1//EN" "http://www.w3.org/Graphics/SVG/1.1/DTD/svg11.dtd" >
<svg xmlns="http://www.w3.org/2000/svg" xmlns:xlink="http://www.w3.org/1999/xlink" version="1.1" viewBox="0 0 256 256">
 <g >
 <path fill="currentColor"
d=" M 166.68 243.97 C 172.29 243.23 176.82 241.81 182.71 238.94 C 190.92 234.94 190.92 234.94 196.21 237.72 C 200.42 239.93 202.83 240.50 208.00 240.50 C 218.03 240.50 223.34 238.51 230.19 232.17 C 238.42 224.54 240.45 220.38 240.48 210.99 C 240.50 203.94 240.23 203.02 236.14 195.85 C 233.73 191.65 229.35 185.44 226.39 182.05 C 223.42 178.65 221.00 175.44 221.00 174.91 C 221.00 174.39 222.10 172.28 223.44 170.23 C 227.79 163.58 228.14 159.77 227.81 121.98 C 227.52 88.49 227.38 86.25 225.42 82.00 C 224.27 79.53 221.68 76.05 219.66 74.27 C 215.47 70.60 215.43 70.63 225.82 69.60 C 236.15 68.58 242.33 62.14 244.14 50.52 C 246.14 37.71 243.20 30.78 234.03 26.66 C 230.33 24.99 226.63 24.51 213.92 24.06 C 198.46 23.50 198.31 23.48 194.61 20.50 C 183.67 11.68 181.94 11.07 165.71 10.29 C 149.74 9.52 142.61 11.36 135.49 18.10 C 128.41 24.80 126.56 25.03 120.28 20.04 C 110.41 12.17 100.06 9.40 83.70 10.24 C 71.67 10.85 67.90 12.22 60.29 18.72 C 54.70 23.50 54.70 23.50 41.10 24.06 C 25.76 24.69 20.42 26.34 15.76 31.88 C 8.63 40.35 9.66 57.98 17.69 65.03 C 22.04 68.86 25.81 70.51 32.28 71.44 C 37.07 72.13 37.07 72.13 32.61 77.09 C 29.37 80.69 27.86 83.42 27.08 87.07 C 25.70 93.50 25.68 151.92 27.06 157.89 C 27.62 160.30 29.20 164.67 30.59 167.59 C 33.10 172.91 33.10 172.91 25.19 186.70 C 14.58 205.21 14.10 206.20 12.96 212.20 C 11.60 219.37 13.69 226.22 19.08 232.35 C 24.55 238.57 30.05 241.62 38.38 243.06 C 51.02 245.25 60.78 242.49 68.64 234.51 C 71.09 232.03 73.59 230.00 74.20 230.00 C 74.81 230.00 76.76 231.70 78.55 233.78 C 82.54 238.44 90.55 242.92 96.80 243.97 C 103.83 245.16 157.68 245.15 166.68 243.97 Z  M 100.34 233.94 C 92.70 232.95 88.89 231.03 85.38 226.43 C 81.60 221.48 81.20 214.88 84.00 204.00 C 85.70 197.41 86.05 194.02 85.55 188.91 C 84.76 180.81 85.68 179.78 93.77 179.61 C 99.50 179.50 99.50 179.50 100.79 185.50 C 104.91 204.68 121.97 220.48 138.50 220.43 C 146.37 220.40 151.81 217.58 159.20 209.71 C 164.37 204.21 165.13 203.74 167.26 204.71 C 169.74 205.84 182.00 223.14 182.00 225.50 C 182.00 228.91 177.51 232.03 170.50 233.50 C 162.75 235.12 111.84 235.44 100.34 233.94 Z  M 38.41 232.17 C 29.21 228.99 22.47 221.62 22.64 214.93 C 22.75 210.93 29.52 197.24 37.52 184.87 C 42.74 176.79 47.64 174.30 56.08 175.42 C 66.79 176.84 73.65 181.77 76.05 189.77 C 77.04 193.09 76.85 194.59 74.54 201.47 C 68.06 220.77 62.21 229.72 54.29 232.42 C 48.38 234.43 44.77 234.37 38.41 232.17 Z  M 201.00 227.76 C 197.60 225.94 194.12 222.22 186.76 212.59 C 176.99 199.78 174.22 194.24 175.34 189.78 C 177.06 182.92 186.39 174.79 194.02 173.50 C 202.86 172.00 212.70 179.88 225.18 198.47 C 230.62 206.57 231.15 207.82 230.68 211.38 C 230.38 213.56 228.86 217.16 227.29 219.39 C 220.54 229.00 209.73 232.44 201.00 227.76 Z  M 129.39 208.10 C 123.06 204.41 115.56 197.02 112.96 191.92 C 111.87 189.79 111.00 186.08 111.00 183.57 C 111.00 179.92 111.61 178.37 114.24 175.38 C 122.80 165.63 134.78 165.61 144.43 175.34 C 158.74 189.78 159.55 198.25 147.39 206.62 C 140.24 211.54 135.89 211.90 129.39 208.10 Z  M 158.31 177.39 C 151.66 169.83 142.25 162.71 135.87 160.43 C 130.29 158.43 125.84 159.11 115.67 163.52 C 111.31 165.41 104.99 167.44 101.62 168.03 C 98.25 168.62 91.65 170.03 86.93 171.16 C 78.37 173.23 78.37 173.23 72.93 170.19 C 66.86 166.79 58.73 165.00 49.37 165.00 C 44.20 165.00 42.63 164.58 40.31 162.59 C 37.50 160.17 37.50 160.17 37.50 125.34 C 37.50 90.50 37.50 90.50 40.00 86.00 C 42.77 81.01 48.96 77.22 55.82 76.30 C 59.04 75.86 60.43 76.30 63.93 78.83 C 69.84 83.12 76.98 84.36 92.00 83.71 C 105.80 83.11 109.98 82.18 115.43 78.49 C 118.57 76.35 120.22 76.00 127.11 76.00 C 134.03 76.00 135.57 76.33 138.32 78.40 C 143.18 82.07 148.23 82.99 163.50 82.99 C 179.05 82.99 183.48 82.15 188.02 78.33 C 190.90 75.91 191.55 75.78 197.77 76.42 C 207.18 77.38 212.20 79.83 214.57 84.62 C 216.33 88.15 216.53 91.30 216.83 119.50 C 217.17 150.75 216.39 161.72 213.54 165.61 C 212.28 167.33 212.05 167.33 207.88 165.45 C 204.89 164.11 201.46 163.52 196.89 163.57 C 187.44 163.68 181.03 167.04 172.15 176.55 C 168.32 180.65 164.95 184.00 164.66 184.00 C 164.37 184.00 161.51 181.03 158.31 177.39 Z  M 110.26 155.93 C 118.38 152.12 125.84 149.00 126.85 149.00 C 127.86 149.00 132.91 151.15 138.09 153.79 C 148.65 159.16 162.36 164.00 167.01 164.00 C 171.44 164.00 175.10 161.80 180.34 155.97 C 186.56 149.05 186.85 146.92 183.45 132.87 C 182.97 130.88 183.56 129.21 185.91 125.97 C 188.78 122.00 189.00 121.10 189.00 113.28 C 189.00 108.66 188.54 104.00 187.97 102.94 C 185.94 99.14 181.12 97.72 168.56 97.20 C 156.81 96.72 156.53 96.65 150.81 92.95 C 143.54 88.25 136.98 86.61 125.50 86.61 C 114.71 86.61 110.02 88.04 104.58 92.98 C 100.52 96.67 100.45 96.69 91.00 96.89 C 79.60 97.13 75.11 98.20 71.01 101.65 C 66.66 105.30 65.00 109.07 65.00 115.25 C 65.00 119.69 65.54 121.34 68.16 124.91 C 71.06 128.84 71.23 129.48 70.16 132.43 C 68.58 136.81 68.70 147.36 70.38 151.28 C 72.24 155.63 77.90 160.84 82.62 162.57 C 88.71 164.80 94.20 163.48 110.26 155.93 Z  M 73.19 73.32 C 71.37 72.43 68.92 70.01 67.73 67.96 C 65.58 64.22 65.58 64.22 49.04 63.84 C 30.23 63.41 26.18 62.19 22.84 55.97 C 20.60 51.78 20.41 43.34 22.46 38.43 C 24.74 32.98 28.31 32.00 45.90 32.00 C 54.13 32.00 61.95 31.59 63.28 31.08 C 64.60 30.58 66.27 28.76 66.99 27.03 C 69.22 21.64 74.60 19.65 88.13 19.19 C 98.14 18.85 100.38 19.07 104.29 20.80 C 106.79 21.91 109.63 24.09 110.60 25.66 C 113.66 30.60 114.76 31.00 125.13 31.00 C 136.77 31.00 139.06 30.26 141.78 25.64 C 145.35 19.59 148.68 18.50 163.50 18.50 C 178.25 18.50 179.59 19.02 184.49 26.75 C 185.97 29.09 187.93 31.07 188.84 31.16 C 189.75 31.24 197.47 31.35 206.00 31.41 C 220.14 31.49 221.88 31.70 225.79 33.79 C 233.65 37.99 236.03 45.93 232.06 54.68 C 229.12 61.15 226.70 61.92 205.94 63.00 C 196.02 63.52 187.36 64.27 186.70 64.67 C 186.04 65.08 184.64 66.50 183.58 67.83 C 182.52 69.16 179.37 71.31 176.58 72.62 C 172.33 74.60 169.90 74.98 161.65 74.99 C 150.04 75.00 146.04 73.54 142.11 67.86 C 139.50 64.08 139.50 64.08 127.16 64.04 C 114.82 64.00 114.82 64.00 110.66 68.27 C 108.18 70.82 104.84 73.04 102.38 73.77 C 96.17 75.63 77.28 75.34 73.19 73.32 Z  M 153.81 152.98 C 151.22 151.93 146.27 149.36 142.81 147.27 C 136.65 143.55 136.49 143.36 136.20 138.82 C 135.70 131.20 133.50 131.44 119.32 140.60 C 106.28 149.03 95.48 154.00 90.23 154.00 C 84.90 154.00 80.83 150.49 78.97 144.30 C 77.09 138.01 78.93 135.24 87.79 131.06 C 97.32 126.56 97.22 124.75 87.38 123.86 C 76.18 122.86 72.47 119.16 74.99 111.52 C 76.95 105.59 79.53 104.62 94.41 104.19 C 107.50 103.81 107.50 103.81 111.56 99.88 C 114.89 96.66 116.68 95.78 121.54 94.99 C 131.21 93.42 141.69 95.77 144.85 100.22 C 146.94 103.17 150.40 104.03 163.95 104.99 C 178.67 106.04 180.00 106.87 180.00 115.09 C 180.00 121.36 178.23 122.58 166.65 124.24 C 161.85 124.93 157.86 125.95 157.78 126.50 C 157.70 127.05 160.53 128.94 164.07 130.69 C 167.61 132.45 171.51 135.06 172.75 136.50 C 176.64 141.02 175.12 149.70 169.78 153.44 C 166.79 155.54 159.58 155.33 153.81 152.98 Z "/>
</g>
</svg>