<?xml version="1.0" encoding="UTF-8" standalone="no"?>
<!DOCTYPE svg PUBLIC "-//W3C//DTD SVG 1.1//EN" "http://www.w3.org/Graphics/SVG/1.1/DTD/svg11.dtd" >
<svg xmlns="http://www.w3.org/2000/svg" xmlns:xlink="http://www.w3.org/1999/xlink" version="1.1" viewBox="0 0 256 256">
 <g >
 <path fill="currentColor"
d=" M 68.18 239.06 C 74.41 237.44 82.17 235.18 85.44 234.05 C 91.38 231.98 91.38 231.98 94.44 234.94 C 99.92 240.24 104.04 241.34 120.14 241.80 C 129.17 242.05 136.84 241.77 140.14 241.05 C 143.45 240.33 160.07 239.71 183.50 239.43 C 204.40 239.18 223.97 238.53 227.00 237.99 C 240.93 235.48 248.81 223.06 246.13 207.83 C 245.55 204.53 243.66 197.99 241.92 193.29 C 238.78 184.75 238.78 184.75 240.88 180.12 C 245.14 170.76 245.84 159.93 244.07 130.90 C 243.24 117.30 243.24 117.30 238.72 110.55 C 233.74 103.13 233.77 104.17 238.21 92.50 C 240.37 86.83 240.50 85.13 240.50 61.50 C 240.50 36.69 240.48 36.47 238.00 32.04 C 234.82 26.37 226.92 20.36 220.96 19.08 C 218.43 18.54 205.12 18.02 191.38 17.93 C 166.40 17.77 166.40 17.77 161.12 20.44 C 155.84 23.11 155.84 23.11 149.17 19.85 C 142.50 16.58 142.50 16.58 123.78 16.21 C 96.90 15.68 91.42 17.26 89.49 26.06 C 88.84 29.02 88.84 29.02 84.51 24.57 C 78.53 18.42 69.36 15.57 57.51 16.19 C 50.34 16.57 48.67 17.02 45.58 19.37 C 41.16 22.74 40.17 24.64 35.02 39.57 C 32.76 46.12 26.39 62.89 20.87 76.82 C 12.42 98.16 10.75 103.30 10.29 109.37 C 9.62 118.17 11.53 122.65 18.57 128.85 C 23.22 132.95 23.22 132.95 20.67 135.98 C 14.55 143.26 16.49 165.86 23.79 172.35 C 26.58 174.82 32.66 176.90 37.25 176.96 C 41.00 177.00 41.00 177.00 41.00 181.80 C 41.00 186.11 40.58 186.99 36.88 190.55 C 34.62 192.72 32.18 195.86 31.47 197.52 C 29.15 202.90 28.66 213.82 30.40 221.27 C 35.07 241.27 43.83 245.39 68.18 239.06 Z  M 46.08 230.24 C 42.69 226.84 38.88 217.21 38.27 210.50 C 37.71 204.28 40.36 199.88 47.00 196.00 C 51.50 193.37 51.50 193.37 51.78 181.58 C 51.97 173.74 51.68 169.32 50.91 168.39 C 50.13 167.45 47.53 167.00 42.85 167.00 C 32.76 167.00 29.62 165.38 27.53 159.08 C 25.81 153.92 25.97 149.27 28.11 142.37 C 29.83 136.80 32.20 135.57 42.34 135.01 C 51.50 134.50 51.50 134.50 51.50 129.57 C 51.50 124.83 51.34 124.55 47.51 122.56 C 42.32 119.87 40.62 116.17 40.58 107.50 C 40.54 99.62 42.35 95.13 46.73 92.26 C 49.07 90.72 51.95 90.51 69.46 90.55 C 82.25 90.59 90.48 91.02 92.20 91.76 C 97.76 94.13 100.56 102.30 99.43 112.86 C 98.58 120.72 96.68 123.00 90.93 123.00 C 84.43 123.00 83.00 124.27 83.00 130.04 C 83.00 135.00 83.00 135.00 89.42 135.00 C 94.84 135.00 96.32 135.40 98.85 137.53 C 103.71 141.62 105.32 147.21 104.03 155.53 C 102.56 165.04 100.38 166.99 91.19 167.02 C 87.51 167.02 83.96 167.38 83.29 167.80 C 81.51 168.93 81.91 187.03 83.73 187.73 C 84.47 188.01 87.60 187.28 90.69 186.10 C 93.77 184.92 96.44 184.11 96.63 184.30 C 96.82 184.49 95.84 186.18 94.45 188.06 C 90.37 193.59 88.00 202.94 88.00 213.48 C 88.00 222.68 87.98 222.77 85.25 223.82 C 81.09 225.43 52.45 233.00 50.53 233.00 C 49.60 233.00 47.60 231.76 46.08 230.24 Z  M 108.62 230.97 C 102.02 228.99 97.02 221.06 96.24 211.34 C 95.80 205.97 96.08 204.54 98.26 200.81 C 101.46 195.36 103.36 193.76 109.16 191.62 C 111.73 190.68 114.13 189.14 114.50 188.20 C 114.87 187.27 115.62 179.76 116.17 171.53 C 117.12 157.26 117.07 156.48 115.22 154.98 C 113.89 153.90 113.06 151.53 112.57 147.45 C 111.46 138.10 110.15 134.25 106.80 130.43 C 103.69 126.88 103.69 126.88 105.38 123.33 C 107.49 118.90 109.40 105.22 108.73 99.29 C 108.41 96.49 107.06 93.21 105.05 90.42 C 103.11 87.71 102.38 86.00 103.19 85.99 C 103.91 85.99 106.19 85.52 108.25 84.95 C 113.65 83.45 115.36 79.65 115.41 69.00 C 115.46 58.74 114.36 56.32 109.24 55.46 C 98.04 53.58 96.00 51.54 96.00 42.25 C 96.00 34.25 97.90 29.64 102.17 27.32 C 105.05 25.75 107.60 25.53 120.99 25.75 C 138.01 26.03 141.95 26.85 145.03 30.77 C 147.00 33.27 147.09 34.56 146.99 59.44 C 146.92 75.23 147.30 86.88 147.94 88.99 C 149.75 94.96 149.26 101.39 146.76 104.62 C 143.24 109.14 140.78 110.89 137.00 111.53 C 131.43 112.48 129.00 113.81 129.00 115.90 C 129.00 119.82 130.12 121.00 133.86 121.02 C 140.63 121.04 140.44 120.38 141.03 147.21 C 141.56 171.50 141.56 171.50 145.28 178.47 C 147.33 182.30 149.00 186.52 149.00 187.86 C 149.00 189.28 147.38 192.03 145.05 194.56 C 142.54 197.28 140.54 200.79 139.56 204.17 C 137.65 210.76 137.54 212.54 138.50 222.22 C 139.27 229.95 139.27 229.95 136.57 230.97 C 133.35 232.20 112.72 232.19 108.62 230.97 Z  M 152.30 228.09 C 150.54 226.99 148.36 224.67 147.46 222.93 C 145.29 218.73 145.38 208.12 147.61 203.40 C 150.28 197.78 153.12 196.50 163.09 196.47 C 172.96 196.43 175.00 195.42 175.00 190.57 C 175.00 185.79 173.20 184.27 165.51 182.51 C 151.82 179.39 150.92 177.60 150.23 151.93 C 149.95 141.71 150.05 130.37 150.44 126.71 C 151.61 115.76 156.28 110.72 167.01 108.81 C 174.78 107.43 176.00 106.63 176.00 102.92 C 176.00 100.27 175.53 99.94 169.00 98.00 C 156.32 94.22 155.50 92.03 155.50 62.00 C 155.50 41.50 155.68 39.14 157.50 35.50 C 160.88 28.73 162.04 28.50 192.07 28.50 C 218.64 28.50 218.64 28.50 222.91 31.32 C 230.43 36.30 231.23 39.57 230.84 63.84 C 230.51 83.76 230.41 84.70 227.84 90.16 C 224.86 96.53 223.89 97.24 215.69 99.06 C 209.61 100.41 207.39 102.51 208.48 105.93 C 209.14 108.01 211.81 108.97 217.04 108.99 C 221.47 109.00 228.78 112.66 231.31 116.14 C 234.26 120.20 234.91 125.80 234.96 147.64 C 234.99 165.38 234.79 168.03 233.25 169.93 C 231.50 172.08 231.50 172.08 225.59 170.04 C 222.34 168.92 218.26 168.00 216.52 168.00 C 210.85 168.00 203.02 170.99 198.88 174.73 C 192.87 180.15 191.67 183.12 192.47 190.55 C 193.18 197.24 195.34 200.46 198.68 199.83 C 200.21 199.53 200.55 198.31 200.80 192.00 C 201.04 185.94 201.51 184.08 203.30 182.17 C 206.68 178.55 210.43 177.00 215.82 177.00 C 222.24 177.00 225.47 179.56 229.04 187.44 C 236.60 204.18 239.04 219.14 235.03 224.24 C 231.49 228.73 227.07 229.27 190.00 229.69 C 156.89 230.07 155.37 230.00 152.30 228.09 Z  M 182.02 153.43 C 183.65 149.17 183.26 135.46 181.47 133.98 C 179.08 131.99 175.42 134.17 174.64 138.04 C 173.66 142.96 173.88 151.90 175.04 154.07 C 176.59 156.97 180.82 156.59 182.02 153.43 Z  M 206.55 152.53 C 208.77 147.21 208.47 137.47 206.00 135.00 C 203.39 132.39 202.56 132.47 200.07 135.63 C 198.47 137.67 198.00 139.71 198.00 144.57 C 198.00 152.94 199.21 156.00 202.53 156.00 C 204.52 156.00 205.43 155.22 206.55 152.53 Z  M 197.99 69.71 C 202.04 67.66 201.93 60.65 197.82 59.13 C 195.04 58.10 185.89 59.57 184.84 61.22 C 183.36 63.56 183.91 68.85 185.75 69.92 C 188.19 71.34 195.00 71.22 197.99 69.71 Z  M 105.08 176.15 C 103.63 173.45 104.29 171.00 106.47 171.00 C 108.10 171.00 108.35 173.24 107.09 176.48 C 106.34 178.39 106.27 178.37 105.08 176.15 Z  M 29.49 125.62 C 15.75 116.29 15.76 112.13 29.63 81.70 C 33.27 73.71 38.23 60.38 40.97 51.23 C 43.65 42.28 46.68 33.51 47.70 31.73 C 50.55 26.80 55.27 24.79 62.70 25.32 C 70.17 25.85 74.31 28.07 78.78 33.93 C 81.72 37.79 82.01 38.73 81.44 42.56 C 80.79 46.85 80.80 46.86 84.15 47.18 C 87.36 47.49 87.51 47.69 87.79 52.00 C 88.15 57.55 91.93 61.23 99.65 63.54 C 105.26 65.22 106.65 67.45 105.38 72.75 C 104.14 77.93 103.88 78.00 86.43 78.00 C 71.71 78.00 69.99 78.18 68.81 79.85 C 67.71 81.40 65.63 81.78 55.80 82.26 C 41.91 82.94 39.39 84.06 35.31 91.43 C 32.85 95.87 32.50 97.55 32.50 105.00 C 32.50 115.82 33.45 120.19 36.61 123.95 C 41.47 129.72 37.06 130.75 29.49 125.62 Z "/>
</g>
</svg>