<?xml version="1.0" encoding="UTF-8" standalone="no"?>
<!DOCTYPE svg PUBLIC "-//W3C//DTD SVG 1.1//EN" "http://www.w3.org/Graphics/SVG/1.1/DTD/svg11.dtd" >
<svg xmlns="http://www.w3.org/2000/svg" xmlns:xlink="http://www.w3.org/1999/xlink" version="1.1" viewBox="0 0 256 256">
 <g >
 <path fill="currentColor"
d=" M 229.32 238.25 C 230.13 235.64 233.31 228.10 236.40 221.50 C 242.01 209.50 242.01 209.50 234.37 208.79 C 230.17 208.39 226.50 207.83 226.21 207.54 C 225.92 207.25 226.37 206.22 227.21 205.26 C 228.05 204.29 229.28 202.47 229.93 201.21 C 231.70 197.79 233.96 178.87 233.98 167.25 C 234.00 157.00 234.00 157.00 188.50 157.00 C 143.67 157.00 143.00 156.97 143.00 155.00 C 143.00 153.03 143.67 153.00 183.00 153.00 C 223.00 153.00 223.00 153.00 223.00 125.00 C 223.00 97.00 223.00 97.00 182.93 97.00 C 145.30 97.00 142.87 96.89 143.19 95.25 C 143.50 93.62 146.50 93.48 186.76 93.24 C 230.00 92.98 230.00 92.98 230.00 80.00 C 230.00 67.02 230.00 67.02 187.00 67.67 C 144.00 68.33 144.00 68.33 144.00 63.16 C 144.00 58.00 144.00 58.00 127.55 58.00 C 111.11 58.00 111.11 58.00 110.80 62.75 C 110.50 67.50 110.50 67.50 66.75 67.33 C 23.00 67.15 23.00 67.15 23.00 80.07 C 23.00 92.98 23.00 92.98 66.75 93.24 C 110.50 93.50 110.50 93.50 110.82 95.78 C 111.15 98.06 111.15 98.06 69.57 97.78 C 28.00 97.50 28.00 97.50 28.00 110.68 C 28.00 123.85 28.00 123.85 69.25 123.68 C 110.50 123.50 110.50 123.50 110.82 125.75 C 111.14 128.00 111.14 128.00 72.07 128.00 C 50.58 128.00 32.99 128.11 32.97 128.25 C 32.67 130.95 28.03 181.82 28.02 182.58 C 28.01 183.35 37.90 183.55 61.75 183.27 C 95.50 182.86 95.50 182.86 90.50 187.37 C 87.75 189.85 83.43 193.02 80.91 194.42 C 71.23 199.76 49.14 204.03 23.33 205.55 C 12.16 206.21 12.16 206.21 15.57 212.85 C 17.44 216.51 20.30 224.16 21.92 229.85 C 23.53 235.54 25.00 240.33 25.18 240.50 C 25.94 241.21 61.06 237.05 66.74 235.57 C 86.85 230.34 103.38 222.37 116.48 211.59 C 125.46 204.20 125.46 204.20 134.63 212.97 C 145.56 223.42 156.16 230.27 167.31 234.08 C 175.65 236.93 195.88 240.39 213.00 241.89 C 229.10 243.30 227.66 243.63 229.32 238.25 Z  M 182.79 59.50 C 182.34 54.00 182.34 54.00 210.67 54.00 C 239.00 54.00 239.00 54.00 239.00 39.97 C 239.00 25.94 239.00 25.94 210.75 26.22 C 182.50 26.50 182.50 26.50 182.84 21.25 C 183.18 16.00 183.18 16.00 166.34 16.00 C 149.50 16.00 149.50 16.00 149.84 21.50 C 150.19 27.00 150.19 27.00 128.09 27.00 C 106.00 27.00 106.00 27.00 106.00 21.50 C 106.00 16.00 106.00 16.00 88.91 16.00 C 71.82 16.00 71.82 16.00 72.16 21.25 C 72.50 26.50 72.50 26.50 44.25 26.24 C 16.00 25.97 16.00 25.97 16.00 39.99 C 16.00 54.00 16.00 54.00 44.35 54.00 C 72.71 54.00 72.71 54.00 72.22 59.02 C 71.74 64.05 71.74 64.05 88.62 63.77 C 105.50 63.50 105.50 63.50 105.80 58.75 C 106.11 54.00 106.11 54.00 128.05 54.00 C 150.00 54.00 150.00 54.00 150.00 59.50 C 150.00 65.00 150.00 65.00 166.62 65.00 C 183.25 65.00 183.25 65.00 182.79 59.50 Z  M 184.36 202.96 C 177.27 201.56 163.98 193.94 155.00 186.13 C 151.50 183.08 151.50 183.08 176.25 183.04 C 199.81 183.00 201.00 183.09 201.00 184.88 C 201.00 188.10 198.44 189.28 192.50 188.79 C 186.15 188.27 186.16 188.25 189.00 196.50 C 191.89 204.89 192.17 204.51 184.36 202.96 Z  M 62.19 155.25 C 62.50 153.66 64.51 153.48 84.88 153.23 C 105.03 152.99 107.17 153.12 106.61 154.56 C 106.28 155.44 106.00 156.35 106.00 156.58 C 106.00 156.81 96.07 157.00 83.93 157.00 C 63.44 157.00 61.88 156.87 62.19 155.25 Z  M 144.18 125.75 C 144.50 123.50 144.50 123.50 167.75 123.23 C 191.00 122.96 191.00 122.96 191.00 125.48 C 191.00 128.00 191.00 128.00 167.43 128.00 C 143.86 128.00 143.86 128.00 144.18 125.75 Z "/>
</g>
</svg>