<?xml version="1.0" encoding="UTF-8" standalone="no"?>
<!DOCTYPE svg PUBLIC "-//W3C//DTD SVG 1.1//EN" "http://www.w3.org/Graphics/SVG/1.1/DTD/svg11.dtd" >
<svg xmlns="http://www.w3.org/2000/svg" xmlns:xlink="http://www.w3.org/1999/xlink" version="1.1" viewBox="0 0 256 256">
 <g >
 <path fill="currentColor"
d=" M 51.27 204.25 C 51.04 168.56 51.05 168.51 52.93 172.50 C 53.96 174.70 56.28 181.00 58.08 186.50 C 59.88 192.00 61.64 196.84 61.99 197.26 C 62.81 198.25 80.10 193.87 86.85 190.97 C 93.50 188.11 101.09 179.91 104.17 172.25 C 106.18 167.25 106.48 164.81 106.44 153.50 C 106.41 141.61 106.13 139.69 103.23 131.00 C 100.18 121.87 92.61 107.25 87.22 100.08 C 84.64 96.67 84.64 96.67 92.00 74.58 C 100.08 50.31 103.94 37.46 103.98 34.70 C 103.99 33.70 101.47 29.77 98.39 25.95 C 92.77 19.00 92.77 19.00 55.14 19.00 C 17.50 19.00 17.50 19.00 17.50 129.50 C 17.50 240.00 17.50 240.00 34.50 240.00 C 51.50 240.00 51.50 240.00 51.27 204.25 Z  M 241.00 219.40 C 241.00 201.80 241.00 201.80 229.41 202.53 C 217.82 203.25 217.82 203.25 218.16 111.88 C 218.50 20.50 218.50 20.50 165.47 20.50 C 112.44 20.50 112.44 20.50 112.84 111.88 C 113.24 203.25 113.24 203.25 101.62 202.53 C 90.00 201.80 90.00 201.80 90.00 219.40 C 90.00 237.00 90.00 237.00 165.50 237.00 C 241.00 237.00 241.00 237.00 241.00 219.40 Z  M 51.00 131.25 C 51.00 114.34 51.30 89.36 51.66 75.75 C 52.32 51.00 52.32 51.00 59.19 51.00 C 64.07 51.00 66.21 51.40 66.59 52.36 C 66.87 53.11 63.92 64.14 60.02 76.88 C 52.92 100.03 52.92 100.03 60.39 111.26 C 70.72 126.81 74.97 137.82 74.99 149.08 C 75.00 154.61 74.64 155.98 72.75 157.76 C 69.37 160.92 65.61 162.00 57.93 162.00 C 51.00 162.00 51.00 162.00 51.00 131.25 Z  M 146.23 186.75 C 146.50 170.50 146.50 170.50 165.75 170.23 C 185.00 169.96 185.00 169.96 185.00 186.48 C 185.00 203.00 185.00 203.00 165.48 203.00 C 145.95 203.00 145.95 203.00 146.23 186.75 Z  M 146.00 125.97 C 146.00 115.63 146.33 111.83 147.25 111.53 C 147.94 111.30 156.71 110.97 166.75 110.79 C 185.00 110.48 185.00 110.48 185.00 125.24 C 185.00 140.00 185.00 140.00 165.50 140.00 C 146.00 140.00 146.00 140.00 146.00 125.97 Z  M 146.00 65.50 C 146.00 51.00 146.00 51.00 165.50 51.00 C 185.00 51.00 185.00 51.00 185.00 65.50 C 185.00 80.00 185.00 80.00 165.50 80.00 C 146.00 80.00 146.00 80.00 146.00 65.50 Z "/>
</g>
</svg>