<?xml version="1.0" encoding="UTF-8" standalone="no"?>
<!DOCTYPE svg PUBLIC "-//W3C//DTD SVG 1.1//EN" "http://www.w3.org/Graphics/SVG/1.1/DTD/svg11.dtd" >
<svg xmlns="http://www.w3.org/2000/svg" xmlns:xlink="http://www.w3.org/1999/xlink" version="1.1" viewBox="0 0 256 256">
 <g >
 <path fill="currentColor"
d=" M 59.68 227.60 C 63.43 222.97 68.60 216.31 71.18 212.78 C 76.77 205.10 86.14 194.23 92.60 187.90 C 97.01 183.59 97.76 181.00 94.60 181.00 C 93.90 181.00 90.67 182.91 87.43 185.25 C 84.18 187.59 78.95 191.07 75.80 193.00 C 65.49 199.29 38.03 218.48 38.01 219.40 C 38.01 219.89 39.91 222.39 42.25 224.95 C 44.59 227.52 47.27 231.05 48.20 232.81 C 49.14 234.56 50.57 236.00 51.38 236.00 C 52.20 236.00 55.93 232.22 59.68 227.60 Z  M 209.82 232.72 C 210.42 231.99 211.55 218.68 212.46 201.47 C 216.21 130.32 217.11 114.89 218.10 104.50 C 218.67 98.45 219.00 91.25 218.82 88.50 C 218.50 83.50 218.50 83.50 202.50 81.78 C 161.48 77.39 140.42 74.74 139.50 73.86 C 138.84 73.23 139.38 71.30 141.07 68.20 C 148.18 55.21 159.67 35.11 161.70 32.11 C 164.50 27.99 164.79 22.37 162.25 21.60 C 157.72 20.23 139.78 17.93 138.00 18.50 C 135.25 19.37 134.13 21.82 132.45 30.60 C 131.66 34.74 128.79 44.96 126.08 53.31 C 123.37 61.67 119.77 73.67 118.07 80.00 C 116.37 86.33 113.88 95.55 112.53 100.50 C 106.67 121.92 108.32 123.33 118.00 105.19 C 121.58 98.50 125.95 90.99 127.73 88.51 C 130.80 84.23 131.20 84.00 135.73 84.05 C 138.35 84.08 148.15 84.98 157.50 86.05 C 166.85 87.13 181.40 88.67 189.84 89.48 C 215.84 91.96 215.17 91.50 213.07 105.79 C 212.37 110.58 211.61 117.42 211.39 121.00 C 211.17 124.58 210.49 132.79 209.89 139.24 C 209.28 145.70 208.50 161.88 208.14 175.20 C 207.50 199.40 207.50 199.40 199.09 205.41 C 194.46 208.72 186.36 213.69 181.09 216.46 C 171.41 221.55 169.18 224.18 174.00 224.84 C 180.50 225.73 202.35 231.13 204.78 232.44 C 208.17 234.28 208.51 234.30 209.82 232.72 Z  M 90.80 168.80 C 92.72 166.88 92.19 164.02 89.75 163.10 C 87.59 162.29 85.32 161.88 64.00 158.45 C 51.81 156.49 47.00 155.19 47.00 153.84 C 47.00 152.46 76.66 121.91 92.39 107.09 C 99.05 100.82 104.66 95.29 104.85 94.80 C 105.98 91.92 103.72 89.15 98.27 86.72 C 95.10 85.31 91.83 84.04 91.00 83.88 C 87.91 83.31 85.32 85.14 83.55 89.15 C 81.73 93.29 81.73 93.29 68.11 92.65 C 52.44 91.92 49.00 91.32 49.00 89.34 C 49.00 87.96 56.07 78.48 77.77 50.76 C 83.42 43.54 87.89 37.15 87.70 36.57 C 87.13 34.81 73.95 30.54 72.31 31.59 C 71.53 32.09 69.87 34.98 68.64 38.00 C 67.40 41.02 63.79 47.75 60.61 52.95 C 57.43 58.15 53.46 65.12 51.79 68.45 C 50.12 71.78 46.11 79.04 42.88 84.59 C 39.65 90.14 37.00 95.39 37.00 96.24 C 37.00 98.24 46.61 100.00 57.58 100.01 C 65.30 100.01 72.44 101.29 73.40 102.84 C 73.99 103.79 63.80 120.35 57.62 128.50 C 46.92 142.61 35.00 159.56 35.00 160.67 C 35.00 162.14 36.69 162.69 45.00 163.91 C 61.37 166.33 78.59 169.09 79.50 169.45 C 81.81 170.36 89.69 169.91 90.80 168.80 Z  M 156.61 148.16 C 163.70 144.94 170.85 141.99 172.50 141.59 C 177.17 140.46 180.00 138.20 180.00 135.60 C 180.00 134.30 179.44 132.80 178.75 132.25 C 178.06 131.71 171.20 128.46 163.50 125.03 C 155.80 121.61 145.86 117.10 141.41 115.02 C 133.30 111.23 130.00 111.07 130.00 114.47 C 130.00 115.51 138.15 145.10 140.55 152.75 C 141.19 154.82 143.16 154.26 156.61 148.16 Z "/>
</g>
</svg>