<?xml version="1.0" encoding="UTF-8" standalone="no"?>
<!DOCTYPE svg PUBLIC "-//W3C//DTD SVG 1.1//EN" "http://www.w3.org/Graphics/SVG/1.1/DTD/svg11.dtd" >
<svg xmlns="http://www.w3.org/2000/svg" xmlns:xlink="http://www.w3.org/1999/xlink" version="1.1" viewBox="0 0 256 256">
 <g >
 <path fill="currentColor"
d=" M 212.38 232.41 C 212.31 228.61 211.76 209.07 211.16 189.00 C 209.38 129.65 207.89 53.59 208.21 37.81 C 208.53 21.78 207.71 18.66 204.21 22.54 C 202.62 24.31 202.51 25.98 203.12 39.50 C 204.26 64.74 205.96 136.68 206.24 170.96 C 206.50 203.42 206.50 203.42 194.50 208.13 C 175.47 215.59 170.20 218.04 169.55 219.72 C 169.22 220.58 169.08 221.33 169.23 221.39 C 169.38 221.45 171.97 222.80 175.00 224.39 C 178.03 225.99 184.10 228.51 188.50 230.00 C 192.90 231.49 199.65 234.33 203.50 236.30 C 207.35 238.28 210.95 239.77 211.50 239.61 C 212.06 239.45 212.45 236.27 212.38 232.41 Z  M 126.62 225.25 C 126.31 222.64 125.30 208.57 124.39 194.00 C 123.47 179.43 122.43 167.17 122.07 166.76 C 121.51 166.13 95.45 162.15 72.50 159.20 C 68.65 158.71 64.86 158.12 64.08 157.90 C 61.26 157.10 60.03 162.11 60.01 174.51 C 60.00 185.56 62.61 223.94 63.43 224.76 C 64.58 225.91 84.95 228.25 99.50 228.91 C 130.39 230.30 127.27 230.72 126.62 225.25 Z  M 161.80 165.80 C 163.29 164.31 163.49 112.33 162.02 110.00 C 161.18 108.67 160.89 108.68 159.49 110.08 C 158.14 111.44 157.85 115.66 157.58 138.79 C 157.26 164.98 157.40 166.54 160.05 166.92 C 160.35 166.96 161.14 166.46 161.80 165.80 Z  M 126.61 148.23 C 127.28 147.79 127.98 141.81 128.37 133.00 C 129.69 103.81 130.29 96.00 131.23 96.00 C 131.76 96.00 133.49 96.92 135.07 98.05 C 138.62 100.58 141.53 99.43 142.47 95.14 C 142.82 93.56 145.08 89.95 147.49 87.12 C 153.89 79.62 156.20 76.14 155.52 75.03 C 154.58 73.50 131.15 62.41 113.43 55.11 C 104.59 51.46 96.32 47.79 95.06 46.96 C 92.78 45.44 92.79 45.42 100.36 38.97 C 104.54 35.41 107.96 31.96 107.98 31.30 C 108.01 29.82 91.81 22.01 87.14 21.25 C 83.21 20.61 81.24 22.47 77.88 30.00 C 76.77 32.48 75.07 35.40 74.10 36.50 C 73.13 37.60 71.56 40.60 70.62 43.17 C 69.67 45.73 67.21 49.78 65.14 52.17 C 59.39 58.79 58.00 61.18 57.99 64.47 C 57.98 68.87 54.34 76.02 44.87 90.29 C 27.27 116.80 25.70 122.87 41.00 105.25 C 44.46 101.26 47.68 98.00 48.15 98.00 C 48.62 98.00 49.01 99.01 49.03 100.25 C 49.10 104.72 53.73 141.06 54.31 141.64 C 54.64 141.97 58.86 142.65 63.70 143.15 C 68.54 143.65 79.92 144.95 89.00 146.03 C 98.08 147.12 106.85 148.16 108.50 148.35 C 114.34 149.03 125.52 148.96 126.61 148.23 Z  M 114.50 225.96 C 112.30 225.50 102.17 224.69 92.00 224.15 C 81.83 223.62 72.25 222.70 70.73 222.11 C 67.40 220.82 66.00 217.53 66.00 211.00 C 66.00 205.56 65.32 206.05 76.50 203.49 C 81.03 202.45 90.28 201.72 102.75 201.41 C 122.00 200.94 122.00 200.94 122.01 204.22 C 122.01 206.02 122.30 211.89 122.66 217.25 C 123.39 228.26 123.75 227.87 114.50 225.96 Z  M 106.50 189.97 C 99.90 188.97 87.91 186.93 79.87 185.43 C 65.23 182.69 65.23 182.69 64.54 174.72 C 64.09 169.66 64.22 166.38 64.87 165.73 C 65.58 165.02 69.93 165.25 78.70 166.45 C 85.74 167.42 97.80 168.72 105.50 169.35 C 119.50 170.50 119.50 170.50 119.78 181.25 C 119.94 187.16 119.71 191.95 119.28 191.89 C 118.85 191.83 113.10 190.96 106.50 189.97 Z  M 97.77 140.60 C 94.62 139.92 91.85 139.17 91.63 138.93 C 91.41 138.70 90.93 136.25 90.56 133.50 C 90.10 130.02 90.29 128.00 91.20 126.86 C 92.72 124.96 102.20 121.12 113.35 117.90 C 124.37 114.72 124.43 114.78 124.78 129.86 C 125.06 142.00 125.06 142.00 114.28 141.92 C 108.35 141.87 100.92 141.28 97.77 140.60 Z  M 67.14 137.95 C 61.99 137.53 57.43 136.80 57.01 136.34 C 56.58 135.88 55.92 131.34 55.54 126.25 C 54.86 117.16 54.89 117.00 57.07 117.00 C 58.29 117.00 63.63 119.92 68.93 123.50 C 79.81 130.84 84.53 132.06 83.38 127.25 C 82.53 123.71 80.45 119.63 73.73 108.28 C 68.27 99.05 68.27 99.05 62.01 105.57 C 58.57 109.15 55.53 111.87 55.27 111.60 C 55.00 111.34 54.55 107.38 54.27 102.80 C 53.75 94.48 53.75 94.48 69.12 94.83 C 77.58 95.03 84.89 95.55 85.36 96.00 C 85.83 96.45 86.46 106.30 86.75 117.91 C 87.37 141.74 89.31 139.76 67.14 137.95 Z  M 91.49 117.95 C 90.76 114.61 91.83 96.84 92.86 95.32 C 93.24 94.75 99.48 94.59 108.49 94.93 C 123.47 95.50 123.47 95.50 124.18 99.50 C 124.57 101.70 124.91 105.41 124.94 107.75 C 124.99 111.40 124.71 112.00 122.94 112.00 C 121.73 112.00 118.63 109.65 115.48 106.34 C 109.16 99.72 109.18 99.71 103.08 109.98 C 99.37 116.23 94.98 121.00 92.94 121.00 C 92.51 121.00 91.86 119.63 91.49 117.95 Z  M 57.89 86.16 C 59.00 84.60 60.68 82.69 61.62 81.91 C 62.56 81.14 69.12 73.65 76.20 65.29 C 83.28 56.92 89.47 49.83 89.95 49.53 C 91.38 48.65 103.02 61.44 109.79 71.32 C 113.25 76.37 117.96 82.41 120.25 84.75 C 124.42 89.00 124.42 89.00 90.14 89.00 C 55.86 89.00 55.86 89.00 57.89 86.16 Z  M 105.97 78.52 C 108.98 76.66 104.27 76.00 87.94 76.00 C 72.98 76.00 70.00 76.24 70.00 77.44 C 70.00 78.40 71.42 79.04 74.25 79.34 C 80.09 79.96 104.67 79.32 105.97 78.52 Z "/>
</g>
</svg>