<?xml version="1.0" encoding="UTF-8" standalone="no"?>
<!DOCTYPE svg PUBLIC "-//W3C//DTD SVG 1.1//EN" "http://www.w3.org/Graphics/SVG/1.1/DTD/svg11.dtd" >
<svg xmlns="http://www.w3.org/2000/svg" xmlns:xlink="http://www.w3.org/1999/xlink" version="1.1" viewBox="0 0 256 256">
 <g >
 <path fill="currentColor"
d=" M 56.08 246.28 C 56.86 244.25 57.33 243.91 57.96 244.93 C 58.44 245.72 59.68 246.06 60.90 245.74 C 62.05 245.43 63.00 245.60 63.00 246.09 C 63.00 247.90 66.92 246.95 68.44 244.78 C 69.68 243.02 70.01 239.43 70.07 227.53 C 70.11 219.26 70.55 211.60 71.05 210.50 C 71.62 209.23 71.89 214.68 71.79 225.50 C 71.61 243.95 72.27 247.00 76.41 247.00 C 81.54 247.00 81.46 247.88 82.00 186.32 C 82.50 128.94 82.50 128.94 88.00 137.09 C 94.43 146.62 96.12 148.00 101.29 148.00 C 106.49 148.00 108.63 146.66 109.98 142.55 C 112.03 136.36 107.45 128.99 90.60 111.28 C 82.00 102.24 82.00 102.24 82.00 88.12 C 82.00 74.00 82.00 74.00 90.53 74.00 C 100.90 74.00 105.61 72.34 106.67 68.32 C 107.65 64.61 107.26 62.96 104.74 60.25 C 102.83 58.20 101.75 58.00 92.33 58.00 C 82.00 58.00 82.00 58.00 81.90 36.75 C 81.79 12.71 81.46 10.50 78.06 10.50 C 75.76 10.50 74.75 11.60 73.53 15.44 C 72.98 17.19 72.73 17.08 71.06 14.34 C 69.01 10.97 65.80 9.61 64.02 11.37 C 63.17 12.21 62.63 12.06 61.89 10.75 C 60.75 8.74 56.97 8.43 55.20 10.20 C 54.39 11.01 53.97 16.09 53.90 25.95 C 53.80 40.50 53.80 40.50 52.44 34.50 C 51.70 31.20 51.06 25.35 51.03 21.50 C 50.94 10.50 47.57 6.61 41.56 10.55 C 39.00 12.23 39.00 12.23 39.00 35.12 C 39.00 58.00 39.00 58.00 25.95 58.00 C 13.44 58.00 12.81 58.10 10.45 60.45 C 7.35 63.56 7.33 67.11 10.41 70.69 C 12.79 73.47 12.98 73.50 25.91 73.83 C 39.00 74.16 39.00 74.16 39.00 84.45 C 39.00 94.18 38.73 95.53 33.94 109.62 C 28.21 126.44 22.66 138.40 14.52 151.48 C 3.69 168.87 3.96 178.00 15.30 178.00 C 21.61 178.00 27.04 172.38 34.01 158.66 C 39.00 148.82 39.00 148.82 39.00 195.72 C 39.00 248.25 38.99 248.18 44.93 244.69 C 47.90 242.94 48.00 242.95 48.00 244.74 C 48.00 249.49 54.40 250.71 56.08 246.28 Z  M 226.37 246.93 C 228.99 244.86 229.00 244.81 229.00 230.54 C 229.00 216.23 229.00 216.23 234.75 215.51 C 237.91 215.12 241.25 214.40 242.17 213.91 C 247.63 210.99 248.61 205.52 244.44 201.34 C 242.03 198.94 241.46 198.82 235.44 199.47 C 229.00 200.16 229.00 200.16 229.00 152.08 C 229.00 104.00 229.00 104.00 235.43 104.00 C 241.18 104.00 242.07 103.72 243.93 101.37 C 246.57 98.01 246.57 93.99 243.93 90.63 C 241.85 88.00 241.85 88.00 173.18 88.02 C 135.40 88.02 104.00 88.36 103.40 88.77 C 101.58 89.98 100.00 93.69 100.00 96.76 C 100.00 101.38 103.46 103.83 110.50 104.19 C 116.50 104.50 116.50 104.50 116.76 156.15 C 117.02 207.80 117.02 207.80 109.76 208.51 C 101.04 209.37 99.65 210.02 98.02 213.94 C 96.43 217.79 97.37 221.54 100.44 223.55 C 102.65 225.00 106.81 224.84 151.67 221.57 C 178.53 219.61 203.31 217.73 206.75 217.39 C 213.00 216.77 213.00 216.77 213.00 229.43 C 213.00 242.19 214.09 247.07 217.23 248.33 C 220.06 249.47 223.88 248.88 226.37 246.93 Z  M 226.83 75.75 C 231.63 59.91 231.95 50.14 228.02 39.72 C 223.51 27.79 215.34 20.84 201.71 17.35 C 195.93 15.87 190.93 15.52 176.50 15.58 C 160.47 15.65 157.45 15.94 148.91 18.23 C 137.28 21.35 130.28 24.78 124.33 30.26 C 117.13 36.90 117.00 37.40 117.00 59.45 C 117.00 79.00 117.00 79.00 171.42 79.00 C 225.84 79.00 225.84 79.00 226.83 75.75 Z  M 69.77 201.25 C 69.26 195.65 69.67 194.48 71.59 196.07 C 73.04 197.28 73.46 201.63 72.39 204.42 C 71.27 207.33 70.21 206.04 69.77 201.25 Z  M 70.67 190.33 C 69.60 189.26 69.91 135.68 71.00 134.00 C 71.64 133.01 71.98 141.16 72.00 158.00 C 72.01 172.03 72.30 185.19 72.64 187.25 C 73.21 190.72 72.37 192.04 70.67 190.33 Z  M 164.00 192.00 C 164.00 180.00 164.00 180.00 188.50 180.00 C 213.00 180.00 213.00 180.00 213.00 190.50 C 213.00 196.28 212.66 201.01 212.25 201.03 C 211.84 201.04 201.60 201.71 189.50 202.51 C 177.40 203.30 166.71 203.97 165.75 203.98 C 164.18 204.00 164.00 202.77 164.00 192.00 Z  M 149.25 200.86 C 147.79 199.39 147.62 194.15 148.96 192.03 C 150.47 189.65 151.13 191.42 150.81 196.95 C 150.56 201.09 150.25 201.87 149.25 200.86 Z  M 155.13 199.73 C 153.39 196.49 153.96 138.63 155.75 136.85 C 156.75 135.85 157.00 142.24 157.00 168.80 C 157.00 187.06 156.85 202.00 156.67 202.00 C 156.49 202.00 155.79 200.98 155.13 199.73 Z  M 164.22 153.25 C 164.50 142.50 164.50 142.50 188.75 142.23 C 213.00 141.96 213.00 141.96 213.00 152.98 C 213.00 164.00 213.00 164.00 188.47 164.00 C 163.93 164.00 163.93 164.00 164.22 153.25 Z  M 164.22 115.25 C 164.50 104.50 164.50 104.50 188.75 104.23 C 213.00 103.96 213.00 103.96 213.00 114.98 C 213.00 126.00 213.00 126.00 188.47 126.00 C 163.93 126.00 163.93 126.00 164.22 115.25 Z  M 144.42 65.65 C 143.53 63.34 144.37 58.70 145.75 58.24 C 146.61 57.96 147.00 59.09 147.00 61.86 C 147.00 65.99 145.43 68.29 144.42 65.65 Z  M 150.48 61.75 C 149.42 57.51 150.41 40.69 151.75 40.25 C 152.70 39.93 153.00 42.70 153.00 51.92 C 153.00 59.15 152.61 64.00 152.02 64.00 C 151.48 64.00 150.79 62.99 150.48 61.75 Z  M 158.67 62.33 C 157.30 60.97 157.96 42.97 159.48 40.03 C 162.86 33.51 172.67 30.00 187.53 30.00 C 195.50 30.00 197.32 30.34 202.02 32.75 C 204.98 34.26 208.65 37.08 210.18 39.01 C 213.59 43.32 216.52 54.40 215.58 59.43 C 214.91 63.00 214.91 63.00 187.12 63.00 C 171.84 63.00 159.03 62.70 158.67 62.33 Z "/>
</g>
</svg>