<?xml version="1.0" encoding="UTF-8" standalone="no"?>
<!DOCTYPE svg PUBLIC "-//W3C//DTD SVG 1.1//EN" "http://www.w3.org/Graphics/SVG/1.1/DTD/svg11.dtd" >
<svg xmlns="http://www.w3.org/2000/svg" xmlns:xlink="http://www.w3.org/1999/xlink" version="1.1" viewBox="0 0 256 256">
 <g >
 <path fill="currentColor"
d=" M 29.06 243.97 C 32.01 242.39 33.86 237.97 38.66 221.06 C 41.09 212.50 46.27 194.78 50.17 181.68 C 58.26 154.46 58.34 152.67 51.69 150.13 C 48.13 148.78 47.81 148.83 45.33 151.10 C 40.71 155.34 37.43 163.93 24.57 205.50 C 17.95 226.87 15.91 236.01 16.91 239.75 C 18.08 244.16 24.53 246.39 29.06 243.97 Z  M 225.63 235.25 C 226.94 222.65 226.68 175.35 225.26 168.50 C 221.07 148.29 206.59 133.68 185.40 128.28 C 175.58 125.78 141.36 125.83 128.50 128.36 C 113.32 131.35 98.66 138.21 88.60 147.05 C 85.00 150.21 85.00 150.21 85.00 196.60 C 85.00 243.00 85.00 243.00 154.91 243.00 C 224.83 243.00 224.83 243.00 225.63 235.25 Z  M 40.78 135.45 C 53.20 130.26 58.41 114.67 51.48 103.45 C 46.86 95.99 41.42 92.65 33.12 92.18 C 24.87 91.71 20.05 93.79 14.60 100.15 C 4.72 111.70 8.54 128.62 22.50 135.10 C 27.42 137.38 35.77 137.54 40.78 135.45 Z  M 98.71 116.02 C 108.63 111.06 118.79 101.90 125.10 92.24 C 132.89 80.33 135.84 69.11 136.88 47.50 C 137.50 34.50 137.50 34.50 143.50 31.50 C 149.00 28.75 150.33 28.50 159.50 28.56 C 171.76 28.62 176.92 30.03 182.12 34.73 C 189.24 41.16 189.41 41.85 190.10 67.50 C 190.78 92.74 191.65 97.46 196.97 104.80 C 201.01 110.38 203.66 111.92 211.41 113.20 C 219.42 114.53 230.43 113.01 236.19 109.78 C 241.11 107.01 244.78 100.02 243.17 96.48 C 242.58 95.17 240.97 93.37 239.60 92.47 C 237.21 90.91 236.76 91.00 228.98 94.51 C 220.48 98.35 218.00 98.48 213.21 95.38 C 209.22 92.80 208.67 89.52 208.05 64.50 C 207.47 40.96 207.40 40.39 204.72 34.89 C 203.20 31.77 199.64 27.06 196.72 24.29 C 187.27 15.36 174.41 12.35 149.72 13.30 C 126.24 14.20 109.49 19.29 101.72 27.89 C 98.40 31.56 98.16 32.31 97.57 40.64 C 97.22 45.51 96.48 52.20 95.92 55.50 C 93.60 69.21 83.57 82.83 70.88 89.50 C 63.72 93.26 63.67 93.31 65.78 95.02 C 66.95 95.97 67.64 97.02 67.31 97.35 C 66.15 98.51 69.28 101.00 71.90 101.00 C 74.73 101.00 88.91 93.38 92.70 89.81 C 93.96 88.63 95.27 87.94 95.61 88.28 C 96.88 89.54 86.00 98.31 77.10 103.20 C 73.23 105.33 72.79 109.00 76.41 109.00 C 78.32 109.00 78.71 109.41 78.29 110.99 C 77.60 113.63 80.41 114.66 84.29 113.20 C 87.29 112.07 87.29 112.07 85.02 114.48 C 83.71 115.87 83.00 117.56 83.34 118.45 C 84.39 121.17 90.29 120.24 98.71 116.02 Z  M 52.00 73.80 C 55.51 72.50 60.79 67.22 63.29 62.50 C 65.92 57.53 66.18 47.93 63.80 43.48 C 56.50 29.82 39.18 26.82 28.13 37.30 C 20.80 44.25 19.09 53.77 23.55 62.72 C 28.89 73.44 40.61 78.00 52.00 73.80 Z  M 123.68 227.35 C 122.65 226.32 122.86 158.00 123.89 158.00 C 125.76 158.00 126.00 162.06 125.98 193.33 C 125.97 222.92 125.54 229.21 123.68 227.35 Z  M 133.46 225.75 C 133.19 225.06 133.09 207.84 133.24 187.50 C 133.50 150.50 133.50 150.50 138.00 148.30 C 155.32 139.82 174.56 138.78 188.61 145.55 C 195.50 148.87 203.17 157.15 205.72 164.03 C 208.84 172.44 210.46 185.92 210.44 203.50 C 210.42 229.77 215.02 227.00 171.42 227.00 C 142.29 227.00 133.83 226.72 133.46 225.75 Z  M 117.85 220.96 C 117.46 215.22 117.72 214.52 119.66 216.13 C 121.42 217.59 121.38 223.44 119.60 224.92 C 118.43 225.88 118.14 225.22 117.85 220.96 Z  M 17.67 113.33 C 17.30 112.97 17.00 111.70 17.00 110.51 C 17.00 106.90 24.57 101.24 27.76 102.46 C 29.09 102.97 28.87 103.55 26.43 105.91 C 24.82 107.48 22.69 109.93 21.70 111.38 C 19.88 114.04 18.87 114.53 17.67 113.33 Z  M 35.69 102.36 C 34.65 101.32 35.97 100.00 38.06 100.00 C 39.13 100.00 40.00 100.67 40.00 101.50 C 40.00 102.98 36.93 103.60 35.69 102.36 Z  M 101.00 105.05 C 101.00 104.56 102.73 102.66 104.84 100.83 C 109.49 96.80 119.67 83.19 122.66 77.00 C 124.16 73.91 124.87 73.15 124.92 74.56 C 125.04 77.54 119.51 86.22 111.18 96.16 C 104.43 104.20 101.00 107.20 101.00 105.05 Z  M 90.00 104.64 C 90.00 103.63 98.14 98.81 98.77 99.44 C 99.81 100.48 94.27 105.00 91.94 105.00 C 90.87 105.00 90.00 104.84 90.00 104.64 Z  M 30.67 52.33 C 28.74 50.41 30.23 46.85 34.15 44.01 C 38.76 40.67 40.51 40.29 41.34 42.45 C 41.68 43.33 41.12 44.14 39.91 44.53 C 38.82 44.88 36.76 46.92 35.33 49.08 C 32.73 53.01 31.91 53.58 30.67 52.33 Z  M 49.25 42.34 C 46.93 41.40 47.98 40.00 51.00 40.00 C 54.21 40.00 55.03 41.39 52.42 42.39 C 51.55 42.73 50.76 42.96 50.67 42.92 C 50.58 42.88 49.94 42.62 49.25 42.34 Z "/>
</g>
</svg>