<?xml version="1.0" encoding="UTF-8" standalone="no"?>
<!DOCTYPE svg PUBLIC "-//W3C//DTD SVG 1.1//EN" "http://www.w3.org/Graphics/SVG/1.1/DTD/svg11.dtd" >
<svg xmlns="http://www.w3.org/2000/svg" xmlns:xlink="http://www.w3.org/1999/xlink" version="1.1" viewBox="0 0 256 256">
 <g >
 <path fill="currentColor"
d=" M 37.93 246.03 C 40.05 244.95 43.64 241.92 45.91 239.28 C 54.08 229.80 65.05 204.98 69.55 185.75 C 70.55 181.49 71.65 178.00 72.00 178.00 C 72.34 178.00 77.09 185.48 82.56 194.62 C 88.02 203.76 93.56 212.08 94.88 213.12 C 98.53 215.99 102.70 215.53 106.10 211.89 C 109.58 208.17 109.68 206.46 106.79 199.69 C 103.02 190.81 98.19 183.33 87.77 170.18 C 82.23 163.21 77.27 156.94 76.73 156.25 C 76.08 155.42 76.49 147.97 77.93 134.25 C 80.79 107.12 80.77 107.19 83.00 106.00 C 88.22 103.21 106.13 71.31 107.58 62.21 C 108.44 56.85 106.29 54.00 101.38 54.00 C 96.91 54.00 95.25 56.02 88.36 69.85 C 82.56 81.50 82.56 81.50 81.86 53.50 C 81.09 22.59 80.63 16.46 78.91 14.39 C 77.66 12.88 74.00 12.47 74.00 13.85 C 74.00 14.84 67.80 14.61 66.09 13.55 C 65.44 13.15 64.25 13.07 63.45 13.38 C 62.25 13.84 61.97 17.71 61.82 35.72 C 61.65 57.50 61.65 57.50 60.95 43.00 C 60.57 35.02 60.19 25.67 60.13 22.22 C 60.03 17.39 59.62 15.79 58.36 15.31 C 57.44 14.96 56.22 15.31 55.61 16.09 C 54.07 18.05 50.65 17.85 49.78 15.75 C 49.39 14.79 48.17 14.00 47.07 14.00 C 45.97 14.00 44.66 14.79 44.15 15.75 C 43.65 16.71 42.99 38.20 42.69 63.50 C 42.00 121.47 40.24 140.27 32.89 168.00 C 29.14 182.18 23.95 194.77 15.44 210.34 C 9.35 221.48 7.99 225.84 10.78 225.26 C 11.52 225.11 11.86 226.35 11.72 228.72 C 11.17 238.00 18.83 229.79 28.95 210.25 C 32.92 202.59 35.00 200.19 35.00 203.28 C 35.00 205.38 28.55 217.95 23.10 226.46 C 18.27 233.99 16.50 240.00 19.10 240.00 C 19.70 240.00 21.50 239.07 23.10 237.93 C 26.42 235.57 26.62 235.90 24.44 240.12 C 23.22 242.48 23.13 243.46 24.06 244.58 C 25.08 245.80 25.72 245.72 28.54 243.98 C 31.83 241.94 31.83 241.94 31.27 244.07 C 30.94 245.33 31.28 246.56 32.11 247.09 C 33.91 248.23 33.49 248.30 37.93 246.03 Z  M 244.55 240.55 C 246.24 238.85 247.00 236.98 247.00 234.50 C 247.00 232.02 246.24 230.15 244.55 228.45 C 242.09 226.00 242.09 226.00 218.55 226.00 C 195.00 226.00 195.00 226.00 195.00 196.50 C 195.00 167.00 195.00 167.00 215.93 167.00 C 236.85 167.00 236.85 167.00 239.02 164.25 C 240.70 162.13 241.07 160.62 240.67 157.61 C 239.66 150.02 244.36 150.53 172.91 150.23 C 108.89 149.96 108.89 149.96 105.94 152.90 C 102.00 156.84 101.87 161.97 105.63 164.93 C 108.10 166.87 109.55 167.00 128.63 167.00 C 149.00 167.00 149.00 167.00 149.00 196.50 C 149.00 226.00 149.00 226.00 125.81 226.00 C 103.39 226.00 102.55 226.07 100.31 228.17 C 97.31 230.99 97.20 236.71 100.07 240.37 C 102.15 243.00 102.15 243.00 172.12 243.00 C 242.09 243.00 242.09 243.00 244.55 240.55 Z  M 142.92 137.41 C 147.90 133.22 147.22 131.29 134.40 113.00 C 128.04 103.92 122.62 95.99 122.35 95.36 C 122.09 94.74 127.30 86.05 133.94 76.05 C 140.79 65.73 146.00 56.87 146.00 55.53 C 146.00 52.68 140.79 48.00 137.61 48.00 C 136.39 48.00 134.65 48.56 133.76 49.25 C 132.86 49.94 125.97 59.68 118.45 70.90 C 105.73 89.88 104.81 91.56 105.28 95.06 C 105.93 99.91 129.97 135.40 134.46 138.14 C 138.44 140.56 139.26 140.49 142.92 137.41 Z  M 187.75 136.36 C 188.99 135.00 190.00 133.04 190.00 132.01 C 190.00 130.25 183.59 120.31 171.27 103.00 C 168.34 98.88 166.11 94.80 166.32 93.95 C 166.53 93.10 171.95 84.67 178.35 75.22 C 184.76 65.76 190.00 57.09 190.00 55.94 C 190.00 53.05 184.71 48.00 181.69 48.00 C 180.33 48.00 178.32 48.79 177.22 49.75 C 176.12 50.71 169.29 60.35 162.05 71.18 C 148.52 91.38 147.35 94.06 149.96 98.93 C 150.66 100.23 156.63 109.14 163.25 118.74 C 178.22 140.47 181.73 142.99 187.75 136.36 Z  M 231.18 136.97 C 233.61 134.54 234.08 133.41 233.55 131.22 C 233.19 129.73 227.82 120.85 221.61 111.49 C 210.32 94.48 210.32 94.48 222.10 76.99 C 235.38 57.27 236.14 54.98 230.92 50.59 C 227.34 47.57 224.05 47.29 221.19 49.75 C 218.47 52.08 196.34 84.95 194.47 89.42 C 193.66 91.35 193.00 93.77 193.00 94.78 C 193.00 96.99 220.19 138.52 222.14 139.30 C 225.38 140.59 228.32 139.83 231.18 136.97 Z  M 37.46 113.95 C 39.27 112.18 39.33 111.53 38.24 105.27 C 36.79 96.85 26.48 64.61 23.89 60.36 C 21.67 56.72 19.01 55.75 15.03 57.14 C 10.35 58.77 9.48 62.53 11.77 71.17 C 15.54 85.32 24.11 112.43 25.26 113.82 C 28.21 117.36 33.92 117.43 37.46 113.95 Z  M 237.08 35.08 C 240.68 31.47 240.85 27.76 237.55 24.45 C 235.09 22.00 235.09 22.00 172.05 22.00 C 110.33 22.00 108.96 22.04 107.00 24.00 C 103.09 27.91 104.78 35.37 110.00 37.29 C 110.83 37.59 139.10 37.88 172.83 37.92 C 234.15 38.00 234.15 38.00 237.08 35.08 Z  M 34.00 235.17 C 34.00 233.31 35.21 231.00 36.18 231.00 C 37.57 231.00 36.74 235.27 35.25 235.76 C 34.56 235.98 34.00 235.72 34.00 235.17 Z  M 41.02 221.12 C 41.01 219.81 42.31 216.44 43.91 213.62 C 50.23 202.48 58.97 176.15 62.54 157.50 C 65.14 143.92 65.66 146.26 63.55 162.07 C 61.42 178.13 49.25 213.00 43.00 221.00 C 41.04 223.50 41.04 223.50 41.02 221.12 Z  M 178.43 223.67 C 177.49 221.24 178.42 214.68 179.75 214.24 C 180.64 213.95 181.00 215.29 181.00 218.86 C 181.00 223.79 179.53 226.54 178.43 223.67 Z  M 185.67 224.33 C 184.83 223.50 184.78 183.74 185.61 181.58 C 187.40 176.90 188.00 182.13 188.00 202.50 C 188.00 223.04 187.65 226.32 185.67 224.33 Z "/>
</g>
</svg>