<?xml version="1.0" encoding="UTF-8" standalone="no"?>
<!DOCTYPE svg PUBLIC "-//W3C//DTD SVG 1.1//EN" "http://www.w3.org/Graphics/SVG/1.1/DTD/svg11.dtd" >
<svg xmlns="http://www.w3.org/2000/svg" xmlns:xlink="http://www.w3.org/1999/xlink" version="1.1" viewBox="0 0 256 256">
 <g >
 <path fill="currentColor"
d=" M 55.07 244.41 C 74.96 238.59 88.79 216.73 91.94 186.09 C 93.59 170.06 90.68 133.86 85.86 110.56 C 83.07 97.07 76.70 75.57 72.45 65.31 C 70.53 60.67 69.27 56.34 69.66 55.69 C 70.04 55.03 71.80 52.70 73.57 50.50 C 88.16 32.31 90.60 26.31 85.35 21.45 C 80.27 16.74 77.61 17.81 67.26 28.70 C 61.77 34.48 57.68 38.03 57.19 37.46 C 56.73 36.93 53.37 32.62 49.72 27.88 C 41.65 17.38 37.80 14.00 33.92 14.00 C 30.19 14.00 30.09 16.12 33.60 20.72 C 37.28 25.55 36.08 25.70 31.60 20.98 C 29.53 18.79 26.98 17.00 25.95 17.00 C 23.74 17.00 24.11 18.50 27.75 24.34 C 29.07 26.46 29.97 28.36 29.76 28.58 C 29.54 28.79 27.62 27.17 25.48 24.98 C 21.43 20.83 19.00 19.92 19.00 22.54 C 19.00 23.45 18.29 23.97 17.29 23.79 C 13.96 23.22 14.95 26.83 19.93 33.40 C 30.05 46.77 28.08 46.26 17.42 32.75 C 14.92 29.59 12.45 27.00 11.91 27.00 C 9.97 27.00 9.80 30.12 11.63 32.21 C 13.13 33.92 13.19 34.23 11.91 33.76 C 11.03 33.44 9.77 33.52 9.10 33.94 C 8.25 34.46 9.85 37.30 14.40 43.33 C 23.36 55.21 29.25 65.99 27.76 67.79 C 27.14 68.54 22.63 72.12 17.76 75.73 C 12.88 79.35 8.24 83.57 7.45 85.11 C 4.37 91.05 6.49 97.29 12.00 98.50 C 16.92 99.58 20.63 98.15 29.01 91.94 C 36.58 86.32 37.00 86.14 38.04 88.08 C 40.30 92.30 44.16 103.58 46.50 112.78 C 48.91 122.31 48.91 122.31 46.90 125.14 C 44.45 128.58 28.03 143.59 18.71 150.91 C 11.49 156.58 9.00 160.14 9.00 164.78 C 9.00 169.93 16.02 174.08 21.33 172.06 C 24.91 170.70 40.15 159.69 47.33 153.28 C 53.50 147.77 53.50 147.77 54.31 159.13 C 55.99 182.87 53.19 210.82 48.14 220.72 C 44.29 228.27 37.68 231.17 33.24 227.25 C 32.16 226.29 30.23 222.86 28.97 219.64 C 25.54 210.87 19.22 207.68 13.77 211.97 C 9.54 215.29 8.46 219.29 10.40 224.37 C 16.33 239.91 37.69 249.49 55.07 244.41 Z  M 245.92 241.41 C 249.80 238.15 250.04 233.95 246.55 230.45 C 244.48 228.39 243.13 228.00 238.07 228.00 C 232.04 228.00 232.04 228.00 231.77 137.25 C 231.50 46.50 231.50 46.50 228.71 40.81 C 225.40 34.07 217.27 26.25 209.75 22.58 C 206.86 21.17 200.69 19.06 196.04 17.89 C 188.55 16.00 185.74 15.81 171.54 16.29 C 153.55 16.90 147.50 18.18 136.06 23.78 C 126.53 28.45 118.83 36.04 114.63 44.89 C 111.50 51.50 111.50 51.50 111.23 139.75 C 110.96 228.00 110.96 228.00 102.43 228.00 C 94.72 228.00 93.68 228.23 91.45 230.45 C 89.91 232.00 89.00 234.05 89.00 236.00 C 89.00 237.95 89.91 240.00 91.45 241.55 C 93.91 244.00 93.91 244.00 168.38 244.00 C 242.85 244.00 242.85 244.00 245.92 241.41 Z  M 80.34 201.25 C 80.67 198.64 81.38 192.90 81.91 188.50 C 82.45 184.10 82.93 172.62 82.98 163.00 C 83.04 148.85 83.29 145.88 84.27 147.50 C 85.11 148.88 85.47 155.36 85.45 168.50 C 85.42 184.87 85.09 188.78 83.12 196.75 C 80.64 206.79 79.39 208.80 80.34 201.25 Z  M 159.00 199.00 C 159.00 170.00 159.00 170.00 187.50 170.00 C 216.00 170.00 216.00 170.00 216.00 199.00 C 216.00 228.00 216.00 228.00 187.50 228.00 C 159.00 228.00 159.00 228.00 159.00 199.00 Z  M 119.57 225.95 C 117.90 221.84 119.38 177.28 121.25 175.41 C 122.13 174.54 122.09 173.35 122.00 201.26 C 121.94 221.70 121.14 229.80 119.57 225.95 Z  M 159.23 127.75 C 159.50 100.50 159.50 100.50 187.75 100.23 C 216.00 99.97 216.00 99.97 216.00 127.48 C 216.00 155.00 216.00 155.00 187.48 155.00 C 158.97 155.00 158.97 155.00 159.23 127.75 Z  M 159.67 84.33 C 158.55 83.22 158.93 52.78 160.12 48.52 C 161.63 43.05 167.29 37.76 174.50 35.06 C 179.42 33.21 181.94 32.88 188.50 33.23 C 200.35 33.86 209.57 39.34 213.93 48.36 C 215.76 52.14 216.00 54.50 216.00 68.82 C 216.00 85.00 216.00 85.00 188.17 85.00 C 172.86 85.00 160.03 84.70 159.67 84.33 Z "/>
</g>
</svg>