<?xml version="1.0" encoding="UTF-8" standalone="no"?>
<!DOCTYPE svg PUBLIC "-//W3C//DTD SVG 1.1//EN" "http://www.w3.org/Graphics/SVG/1.1/DTD/svg11.dtd" >
<svg xmlns="http://www.w3.org/2000/svg" xmlns:xlink="http://www.w3.org/1999/xlink" version="1.1" viewBox="0 0 256 256">
 <g >
 <path fill="currentColor"
d=" M 213.15 246.05 C 229.26 240.00 239.13 225.21 242.56 202.00 C 247.51 168.43 238.18 139.12 219.64 129.99 C 206.75 123.65 182.76 121.47 159.42 124.53 C 152.99 125.37 147.60 125.93 147.44 125.77 C 147.28 125.61 148.00 123.01 149.04 119.99 C 150.08 116.97 150.95 113.58 150.97 112.45 C 151.04 108.04 151.38 108.00 193.63 108.00 C 239.50 108.00 234.08 111.03 235.93 84.38 C 238.33 49.82 231.42 31.43 212.18 21.18 C 199.41 14.37 182.32 11.98 164.00 14.43 C 142.06 17.37 126.31 23.69 117.56 33.04 C 113.00 37.91 113.00 37.91 113.00 72.96 C 113.00 108.00 113.00 108.00 125.00 108.00 C 133.25 108.00 137.00 108.35 137.00 109.13 C 137.00 109.75 134.89 114.26 132.31 119.16 C 127.08 129.07 116.63 142.75 111.71 146.12 C 106.77 149.50 100.99 155.20 99.37 158.30 C 97.53 161.80 98.26 164.20 102.16 167.48 C 104.67 169.60 105.86 169.94 108.86 169.42 C 113.69 168.58 118.67 165.27 125.27 158.52 C 129.35 154.34 137.62 143.56 138.48 141.30 C 138.69 140.75 160.00 138.45 160.00 138.97 C 160.00 140.41 150.40 155.02 145.33 161.29 C 139.65 168.32 126.47 179.89 116.13 186.91 C 106.09 193.73 103.94 198.11 108.07 203.37 C 109.82 205.59 110.93 206.00 115.18 206.00 C 125.02 206.00 137.58 196.73 153.72 177.55 C 163.26 166.22 169.54 156.16 174.25 144.67 C 177.46 136.84 177.46 136.84 181.98 137.49 C 188.62 138.45 191.00 139.12 191.00 140.03 C 191.00 142.56 184.10 159.87 179.80 168.15 C 169.25 188.43 154.73 204.13 135.92 215.59 C 120.07 225.25 117.16 229.59 122.41 235.69 C 124.54 238.17 125.44 238.47 130.00 238.29 C 140.20 237.86 153.41 229.68 166.89 215.43 C 181.14 200.38 190.02 186.14 198.85 164.17 C 201.57 157.40 204.00 151.67 204.24 151.43 C 205.20 150.47 209.17 169.68 210.25 180.51 C 212.44 202.34 208.62 219.60 199.86 227.51 C 194.17 232.65 190.12 232.29 182.00 225.94 C 175.21 220.63 170.25 220.84 167.53 226.57 C 163.69 234.67 171.20 243.80 184.93 247.70 C 191.49 249.57 206.06 248.72 213.15 246.05 Z  M 103.40 228.75 C 106.32 224.20 105.98 220.57 100.00 192.50 C 97.89 182.60 95.89 172.87 95.56 170.87 C 94.85 166.63 90.96 162.00 88.09 162.00 C 84.95 162.00 81.10 164.12 80.43 166.21 C 79.70 168.53 80.66 176.47 82.62 184.29 C 83.42 187.47 84.45 192.06 84.90 194.49 C 85.70 198.80 85.66 198.91 82.86 199.45 C 81.29 199.75 78.65 200.26 77.00 200.58 C 74.00 201.16 74.00 201.16 74.00 173.58 C 74.00 146.00 74.00 146.00 87.40 146.00 C 100.79 146.00 100.79 146.00 101.93 139.48 C 102.55 135.90 103.70 126.59 104.49 118.78 C 106.67 97.00 104.70 81.24 98.43 70.37 C 94.96 64.34 86.83 57.48 80.03 54.85 C 74.11 52.55 74.11 52.55 73.81 32.69 C 73.51 13.19 73.46 12.78 71.14 10.91 C 67.85 8.25 63.43 8.48 60.45 11.45 C 58.02 13.88 58.00 14.10 58.00 32.45 C 58.00 51.00 58.00 51.00 50.55 51.00 C 41.05 51.00 29.65 54.50 20.92 60.10 C 8.78 67.88 10.00 62.62 10.00 107.17 C 10.00 146.00 10.00 146.00 34.00 146.00 C 58.00 146.00 58.00 146.00 58.00 174.39 C 58.00 202.78 58.00 202.78 55.75 203.32 C 54.51 203.61 44.50 205.28 33.50 207.02 C 22.50 208.76 12.49 210.83 11.25 211.62 C 6.70 214.50 9.26 225.00 14.51 225.00 C 16.71 225.00 78.48 216.64 85.61 215.38 C 88.72 214.83 88.72 214.83 89.42 220.97 C 90.28 228.56 92.36 231.00 97.98 231.00 C 101.01 231.00 102.30 230.46 103.40 228.75 Z  M 172.00 231.55 C 172.00 229.94 174.54 226.00 175.58 226.00 C 177.81 226.00 177.72 228.43 175.42 230.24 C 173.22 231.97 172.00 232.44 172.00 231.55 Z  M 237.68 195.90 C 238.68 183.23 239.96 179.48 239.35 191.00 C 239.05 196.78 238.41 201.91 237.94 202.40 C 237.47 202.91 237.35 200.01 237.68 195.90 Z  M 110.00 198.12 C 110.00 195.96 114.53 192.59 116.11 193.57 C 116.75 193.97 116.09 195.34 114.39 197.11 C 111.17 200.47 110.00 200.74 110.00 198.12 Z  M 237.68 171.50 C 237.24 167.65 236.70 163.15 236.47 161.50 C 236.19 159.45 236.54 159.93 237.56 163.00 C 238.38 165.47 238.93 169.97 238.77 173.00 C 238.49 178.50 238.49 178.50 237.68 171.50 Z  M 101.00 161.14 C 101.00 159.65 105.10 156.00 106.77 156.00 C 107.54 156.00 108.01 156.47 107.82 157.05 C 107.30 158.60 101.00 162.38 101.00 161.14 Z  M 151.00 81.50 C 151.00 71.00 151.00 71.00 185.50 71.00 C 220.00 71.00 220.00 71.00 220.00 79.92 C 220.00 84.82 219.73 89.55 219.39 90.42 C 218.86 91.82 214.88 92.00 184.89 92.00 C 151.00 92.00 151.00 92.00 151.00 81.50 Z  M 134.42 88.54 C 133.67 85.53 134.63 81.00 136.02 81.00 C 137.29 81.00 137.30 89.70 136.03 90.48 C 135.50 90.81 134.77 89.94 134.42 88.54 Z  M 141.61 89.42 C 140.82 87.37 140.84 51.20 141.63 48.25 C 143.29 42.04 144.00 48.08 144.00 68.50 C 144.00 88.87 143.40 94.10 141.61 89.42 Z  M 151.67 54.33 C 151.30 53.97 151.00 50.63 151.00 46.92 C 151.00 40.31 151.08 40.11 154.75 37.23 C 160.27 32.90 162.28 32.04 170.79 30.39 C 179.89 28.62 191.36 29.27 200.52 32.09 C 207.88 34.35 213.21 39.42 216.03 46.83 C 219.40 55.72 222.12 55.00 185.17 55.00 C 167.11 55.00 152.03 54.70 151.67 54.33 Z  M 29.84 124.41 C 29.46 118.25 29.57 117.90 31.60 118.68 C 33.58 119.44 33.58 130.00 31.59 130.00 C 30.59 130.00 30.09 128.39 29.84 124.41 Z  M 37.68 129.35 C 36.60 128.27 36.87 94.00 37.95 94.00 C 38.97 94.00 39.92 127.94 38.93 129.27 C 38.62 129.69 38.06 129.73 37.68 129.35 Z  M 47.00 100.12 C 47.00 70.25 47.00 70.25 49.88 69.67 C 51.47 69.36 53.94 68.80 55.38 68.44 C 58.00 67.78 58.00 67.78 58.00 98.89 C 58.00 130.00 58.00 130.00 52.50 130.00 C 47.00 130.00 47.00 130.00 47.00 100.12 Z  M 74.00 99.50 C 74.00 82.72 74.31 69.00 74.69 69.00 C 76.27 69.00 81.83 73.54 83.76 76.41 C 88.29 83.13 89.50 89.46 89.50 106.50 C 89.50 115.30 89.14 124.19 88.70 126.25 C 87.91 130.00 87.91 130.00 80.95 130.00 C 74.00 130.00 74.00 130.00 74.00 99.50 Z "/>
</g>
</svg>