<?xml version="1.0" encoding="UTF-8" standalone="no"?>
<!DOCTYPE svg PUBLIC "-//W3C//DTD SVG 1.1//EN" "http://www.w3.org/Graphics/SVG/1.1/DTD/svg11.dtd" >
<svg xmlns="http://www.w3.org/2000/svg" xmlns:xlink="http://www.w3.org/1999/xlink" version="1.1" viewBox="0 0 256 256">
 <g >
 <path fill="currentColor"
d=" M 169.43 248.43 C 170.29 247.56 171.00 246.42 171.00 245.89 C 171.00 245.31 171.79 245.35 173.00 246.00 C 174.37 246.73 175.60 246.75 176.89 246.06 C 178.30 245.30 179.11 245.42 180.02 246.52 C 181.58 248.40 182.47 248.38 184.43 246.43 C 185.70 245.16 186.02 242.14 186.10 230.68 C 186.15 222.88 186.56 215.38 187.00 214.00 C 187.48 212.49 187.84 217.59 187.90 226.82 C 188.02 244.86 189.02 247.95 194.77 247.98 C 196.30 247.99 197.37 247.16 198.02 245.43 C 198.59 243.96 199.01 228.79 199.02 209.68 C 199.03 176.50 199.03 176.50 204.50 186.76 C 215.85 208.07 230.42 226.66 237.63 229.04 C 241.80 230.42 246.69 229.45 248.01 226.98 C 250.34 222.63 249.15 218.54 243.08 209.91 C 227.78 188.18 219.39 174.97 214.97 165.65 C 210.15 155.48 204.00 139.09 204.00 136.42 C 204.00 135.24 207.26 135.00 223.05 135.00 C 241.93 135.00 242.11 134.98 244.55 132.55 C 247.65 129.44 247.67 125.89 244.59 122.31 C 242.18 119.50 242.18 119.50 220.59 119.19 C 199.00 118.89 199.00 118.89 199.00 107.55 C 199.00 99.40 198.65 96.08 197.75 95.74 C 195.50 94.88 192.07 96.86 191.44 99.38 C 191.10 100.74 190.21 102.09 189.46 102.38 C 188.63 102.70 188.30 102.39 188.61 101.58 C 189.80 98.48 182.27 94.70 179.50 97.00 C 178.31 97.99 177.90 97.91 177.40 96.61 C 176.49 94.22 170.36 94.46 169.04 96.93 C 168.47 98.00 168.00 103.40 168.00 108.93 C 168.00 114.47 167.61 119.00 167.14 119.00 C 166.14 119.00 165.00 111.72 165.00 105.33 C 165.00 99.39 162.68 96.00 158.63 96.02 C 152.99 96.04 152.53 96.92 152.16 108.41 C 151.82 118.89 151.82 118.89 129.99 119.20 C 108.45 119.50 108.12 119.53 105.58 121.92 C 102.35 124.96 102.18 129.49 105.17 132.69 C 107.30 134.95 107.79 135.00 126.17 135.00 C 142.11 135.00 145.00 135.23 145.00 136.48 C 145.00 138.84 140.63 149.80 136.07 158.87 C 131.89 167.17 112.88 196.21 108.47 201.00 C 107.21 202.38 103.89 206.84 101.09 210.93 C 95.24 219.47 94.59 223.32 98.38 226.89 C 101.97 230.26 106.02 229.89 111.76 225.68 C 121.59 218.46 130.80 206.04 145.17 180.63 C 152.00 168.55 152.00 168.55 152.00 205.55 C 152.00 238.10 152.20 242.83 153.63 244.88 C 154.91 246.71 155.87 247.08 158.15 246.62 C 160.25 246.20 161.59 246.59 163.02 248.02 C 165.41 250.41 167.33 250.53 169.43 248.43 Z  M 55.63 222.95 C 78.81 217.55 95.51 213.17 97.00 212.10 C 98.38 211.11 99.64 209.36 99.81 208.22 C 100.27 205.11 97.29 200.11 94.56 199.43 C 92.49 198.91 84.33 200.05 78.75 201.64 C 77.12 202.10 77.00 200.42 77.00 176.07 C 77.00 150.00 77.00 150.00 87.35 150.00 C 98.24 150.00 99.64 149.46 101.38 144.60 C 102.45 141.58 100.12 136.00 97.34 134.94 C 95.98 134.42 90.85 134.00 85.93 134.00 C 77.00 134.00 77.00 134.00 77.00 117.00 C 77.00 100.00 77.00 100.00 86.85 100.00 C 96.70 100.00 96.70 100.00 97.60 87.75 C 98.09 81.01 98.49 68.08 98.48 59.00 C 98.46 43.96 98.24 41.97 96.06 36.50 C 92.90 28.57 85.23 21.00 77.30 17.96 C 70.22 15.26 55.04 14.23 47.00 15.90 C 34.73 18.45 24.52 25.58 20.35 34.50 C 18.07 39.39 18.02 40.17 18.01 69.73 C 18.00 99.96 18.00 99.96 38.75 100.23 C 59.50 100.50 59.50 100.50 59.76 153.23 C 60.02 205.96 60.02 205.96 57.26 206.54 C 49.14 208.26 50.05 213.39 49.76 164.29 C 49.50 120.55 49.50 120.55 46.65 119.54 C 44.20 118.69 43.53 118.87 41.97 120.79 C 40.84 122.18 39.89 122.64 39.49 121.98 C 39.13 121.40 37.96 121.20 36.89 121.53 C 35.82 121.87 35.01 121.78 35.09 121.33 C 35.88 116.80 32.47 114.70 29.76 118.05 C 28.32 119.82 28.00 122.21 28.00 131.05 C 28.00 137.19 27.57 142.15 27.00 142.50 C 26.36 142.89 26.00 139.83 26.00 134.03 C 26.00 126.87 25.68 124.81 24.50 124.36 C 23.68 124.05 23.00 122.99 23.00 122.02 C 23.00 121.04 22.30 119.67 21.45 118.96 C 20.17 117.89 19.61 117.97 18.20 119.37 C 16.66 120.91 16.47 125.41 16.22 168.32 C 15.94 215.58 15.94 215.58 11.72 217.54 C 7.95 219.29 7.47 219.91 7.18 223.36 C 6.80 228.08 9.91 232.00 14.05 232.00 C 15.54 232.00 34.25 227.93 55.63 222.95 Z  M 215.27 94.09 C 220.44 90.89 244.71 67.14 246.36 63.66 C 248.58 58.98 248.43 57.34 245.55 54.45 C 242.60 51.51 237.71 51.22 233.87 53.76 C 232.42 54.72 228.14 58.65 224.37 62.50 C 220.59 66.35 213.33 73.33 208.24 78.00 C 200.26 85.32 198.98 86.94 198.99 89.68 C 199.01 94.39 203.10 97.32 208.45 96.45 C 210.68 96.09 213.74 95.03 215.27 94.09 Z  M 138.35 92.68 C 143.94 88.42 146.30 82.98 145.82 75.45 C 145.34 67.94 142.27 63.28 135.71 60.10 C 128.13 56.43 119.25 57.52 113.66 62.81 C 109.45 66.80 108.00 70.27 108.00 76.39 C 108.00 84.96 110.55 89.74 117.50 94.19 C 122.24 97.22 133.47 96.41 138.35 92.68 Z  M 186.61 82.21 C 190.25 80.25 194.87 74.19 195.57 70.46 C 197.99 57.58 189.52 46.00 177.68 46.00 C 171.78 46.00 168.28 47.38 164.16 51.31 C 159.50 55.77 157.73 59.63 157.64 65.51 C 157.44 79.34 174.10 88.95 186.61 82.21 Z  M 146.86 39.96 C 198.25 37.80 227.09 33.36 233.89 26.57 C 236.71 23.75 237.02 18.59 234.52 16.10 C 232.32 13.90 224.04 14.17 211.50 16.84 C 194.52 20.45 156.47 24.51 117.50 26.88 C 111.45 27.24 105.94 27.90 105.25 28.33 C 103.33 29.54 103.77 34.77 105.97 36.97 C 107.06 38.06 109.20 39.22 110.72 39.56 C 112.25 39.90 113.95 40.33 114.50 40.51 C 116.30 41.11 121.87 41.01 146.86 39.96 Z  M 100.00 219.07 C 100.00 216.55 104.96 212.56 106.36 213.96 C 107.06 214.66 106.47 215.95 104.51 217.99 C 101.16 221.48 100.00 221.76 100.00 219.07 Z  M 185.39 199.58 C 184.36 196.89 185.45 192.53 187.25 192.19 C 188.71 191.91 189.00 192.61 189.00 196.43 C 189.00 199.87 188.62 201.00 187.47 201.00 C 186.63 201.00 185.69 200.36 185.39 199.58 Z  M 42.00 183.58 C 42.00 169.05 42.27 156.45 42.60 155.59 C 44.39 150.94 45.00 157.81 45.00 182.56 C 45.00 206.28 44.80 210.00 43.50 210.00 C 42.20 210.00 42.00 206.40 42.00 183.58 Z  M 34.43 204.67 C 33.41 202.03 34.41 197.50 36.00 197.50 C 37.08 197.50 37.50 198.60 37.50 201.42 C 37.50 205.38 35.51 207.49 34.43 204.67 Z  M 52.00 61.90 C 52.00 38.80 52.00 38.80 55.07 35.93 C 58.53 32.70 63.20 31.50 69.16 32.29 C 74.07 32.95 77.60 36.03 80.32 42.00 C 82.17 46.09 82.34 48.20 82.12 64.95 C 81.98 75.09 81.65 83.75 81.38 84.20 C 81.11 84.64 74.38 85.00 66.44 85.00 C 52.00 85.00 52.00 85.00 52.00 61.90 Z  M 115.00 73.55 C 115.00 70.37 121.49 65.09 123.25 66.85 C 124.12 67.72 123.45 68.98 120.50 72.00 C 115.97 76.64 115.00 76.92 115.00 73.55 Z  M 164.39 62.58 C 163.49 60.22 164.47 58.51 168.47 55.45 C 171.09 53.46 172.39 52.99 173.19 53.79 C 173.98 54.58 173.00 56.16 169.64 59.52 C 165.99 63.17 164.87 63.82 164.39 62.58 Z  M 180.24 54.33 C 178.44 53.61 179.75 52.00 182.14 52.00 C 183.26 52.00 183.99 52.53 183.77 53.19 C 183.30 54.60 181.98 55.02 180.24 54.33 Z "/>
</g>
</svg>