<?xml version="1.0" encoding="UTF-8" standalone="no"?>
<!DOCTYPE svg PUBLIC "-//W3C//DTD SVG 1.1//EN" "http://www.w3.org/Graphics/SVG/1.1/DTD/svg11.dtd" >
<svg xmlns="http://www.w3.org/2000/svg" xmlns:xlink="http://www.w3.org/1999/xlink" version="1.1" viewBox="0 0 256 256">
 <g >
 <path fill="currentColor"
d=" M 189.96 243.81 C 191.08 242.61 192.00 242.11 192.00 242.70 C 192.00 244.37 195.09 245.17 196.63 243.89 C 197.70 243.01 198.00 238.84 198.00 225.02 C 198.00 207.29 198.00 207.29 205.41 206.67 C 223.22 205.16 237.41 195.21 242.98 180.34 C 246.67 170.47 248.15 150.73 245.92 141.00 C 244.48 134.70 236.14 117.55 229.72 107.70 C 224.32 99.42 224.32 99.42 227.76 94.46 C 244.31 70.55 251.57 27.19 240.06 21.03 C 238.83 20.37 223.39 20.00 197.29 20.00 C 151.80 20.00 152.98 19.83 151.04 26.78 C 149.67 31.74 149.60 235.82 150.98 239.43 C 152.11 242.42 155.58 242.91 156.43 240.22 C 156.74 239.24 156.88 229.83 156.75 219.30 C 156.52 201.40 156.90 197.57 158.75 199.41 C 159.16 199.83 159.64 209.67 159.81 221.30 C 160.00 234.31 160.52 242.93 161.18 243.72 C 162.63 245.47 164.98 245.33 167.15 243.36 C 168.82 241.85 169.00 241.85 169.59 243.36 C 170.46 245.63 174.66 245.41 176.73 243.00 C 179.18 240.14 182.63 240.40 183.41 243.50 C 184.20 246.65 187.19 246.79 189.96 243.81 Z  M 80.50 225.90 C 138.98 215.60 143.66 214.62 145.75 212.34 C 146.99 210.99 148.00 209.22 148.00 208.39 C 148.00 205.44 144.91 201.02 142.42 200.39 C 140.28 199.85 115.44 202.97 108.25 204.68 C 106.00 205.22 106.00 205.22 106.00 184.11 C 106.00 163.00 106.00 163.00 123.28 163.00 C 143.64 163.00 145.00 162.54 145.00 155.60 C 145.00 148.07 143.68 147.55 123.40 147.19 C 106.00 146.87 106.00 146.87 106.00 136.00 C 106.00 123.77 104.89 119.02 102.48 121.01 C 101.41 121.90 101.00 124.36 100.98 129.87 C 100.98 134.07 100.53 138.18 100.00 139.00 C 99.33 140.04 99.03 138.01 99.02 132.44 C 99.00 124.64 97.67 120.50 95.19 120.50 C 94.66 120.50 93.35 119.42 92.29 118.10 C 90.73 116.19 89.98 115.91 88.49 116.74 C 87.04 117.56 86.29 117.34 85.00 115.76 C 82.81 113.05 79.50 114.74 78.65 118.99 C 78.04 122.04 78.04 122.04 76.00 120.00 C 74.37 118.37 73.55 118.17 71.98 119.01 C 69.74 120.21 69.63 120.90 69.55 133.90 C 69.51 141.04 69.16 143.42 68.10 143.79 C 66.95 144.18 66.81 143.11 67.32 137.88 C 68.10 129.94 66.84 120.41 64.72 118.29 C 63.25 116.82 62.91 116.83 60.56 118.37 C 58.02 120.03 58.00 120.17 58.00 133.46 C 58.00 146.88 58.00 146.88 37.91 147.19 C 18.18 147.49 17.79 147.54 15.91 149.86 C 13.25 153.15 13.48 157.57 16.45 160.55 C 18.89 162.98 19.04 163.00 38.45 163.00 C 58.00 163.00 58.00 163.00 58.00 187.89 C 58.00 212.78 58.00 212.78 55.75 213.32 C 54.51 213.62 44.28 215.52 33.00 217.54 C 10.22 221.64 8.00 222.63 8.00 228.72 C 8.00 232.71 11.73 237.00 15.20 237.00 C 16.47 237.00 45.85 232.01 80.50 225.90 Z  M 66.62 113.46 C 87.37 111.32 98.66 109.43 111.98 105.90 C 120.09 103.75 123.57 103.20 123.84 104.02 C 124.65 106.45 130.58 112.34 133.41 113.53 C 137.35 115.19 141.60 113.67 143.55 109.91 C 145.43 106.27 144.15 100.39 139.43 91.00 C 135.26 82.70 122.72 65.04 116.22 58.29 C 110.83 52.71 107.27 51.17 103.11 52.62 C 100.93 53.39 100.45 54.24 100.19 57.82 C 99.92 61.58 100.76 63.65 107.06 74.67 C 112.45 84.10 113.91 87.44 112.94 88.04 C 110.63 89.46 88.76 94.89 79.00 96.46 C 73.78 97.30 66.45 97.99 62.73 98.00 C 56.32 98.00 55.90 97.86 54.95 95.36 C 53.20 90.76 56.22 83.39 65.05 70.73 C 69.50 64.36 76.91 54.72 81.53 49.32 C 89.92 39.50 89.92 39.50 115.35 39.00 C 138.56 38.54 140.98 38.33 142.90 36.60 C 146.05 33.74 145.78 27.76 142.37 25.07 C 139.76 23.03 138.96 23.00 76.32 23.00 C 12.91 23.00 12.91 23.00 10.45 25.45 C 7.35 28.56 7.33 32.11 10.41 35.69 C 12.81 38.49 12.88 38.50 27.94 39.00 C 43.06 39.50 43.06 39.50 36.77 48.02 C 22.92 66.80 13.64 90.48 15.44 102.45 C 16.26 107.89 19.94 112.63 24.33 113.90 C 29.36 115.36 50.41 115.14 66.62 113.46 Z  M 184.67 230.33 C 183.61 229.28 183.89 223.00 185.00 223.00 C 185.55 223.00 186.00 224.80 186.00 227.00 C 186.00 231.09 185.83 231.50 184.67 230.33 Z  M 184.67 215.33 C 183.55 214.22 183.88 151.19 185.00 150.50 C 185.66 150.09 186.00 161.16 186.00 182.94 C 186.00 201.12 185.85 216.00 185.67 216.00 C 185.48 216.00 185.03 215.70 184.67 215.33 Z  M 198.00 113.02 C 198.00 37.00 198.00 37.00 212.14 37.00 C 226.28 37.00 226.28 37.00 225.75 45.75 C 224.70 63.16 216.80 80.91 206.16 89.81 C 201.35 93.82 201.00 94.43 201.00 98.61 C 201.00 104.49 202.67 107.50 210.94 116.58 C 222.53 129.29 228.34 142.95 228.35 157.50 C 228.36 163.55 227.84 166.68 226.20 170.33 C 221.69 180.42 215.20 186.06 206.45 187.47 C 204.28 187.83 201.49 188.32 200.25 188.58 C 198.00 189.04 198.00 189.04 198.00 113.02 Z  M 92.00 168.62 C 92.00 150.70 92.37 139.89 93.00 139.50 C 93.66 139.09 94.00 148.64 94.00 167.38 C 94.00 185.30 93.63 196.11 93.00 196.50 C 92.34 196.91 92.00 187.36 92.00 168.62 Z  M 99.83 192.99 C 99.56 190.22 99.84 189.00 100.72 189.00 C 101.51 189.00 102.00 190.32 102.00 192.44 C 102.00 197.34 100.28 197.77 99.83 192.99 Z  M 24.00 88.74 C 24.00 85.60 32.13 69.03 34.86 66.60 C 38.79 63.10 36.99 68.75 32.44 74.22 C 31.20 75.71 29.21 79.87 28.01 83.46 C 25.70 90.40 24.00 92.64 24.00 88.74 Z "/>
</g>
</svg>