<?xml version="1.0" encoding="UTF-8" standalone="no"?>
<!DOCTYPE svg PUBLIC "-//W3C//DTD SVG 1.1//EN" "http://www.w3.org/Graphics/SVG/1.1/DTD/svg11.dtd" >
<svg xmlns="http://www.w3.org/2000/svg" xmlns:xlink="http://www.w3.org/1999/xlink" version="1.1" viewBox="0 0 256 256">
 <g >
 <path fill="currentColor"
d=" M 136.70 242.75 C 143.74 239.31 153.46 234.75 158.30 232.61 C 164.87 229.70 167.47 227.99 168.57 225.87 C 170.36 222.41 169.57 218.51 166.66 216.48 C 164.77 215.15 166.16 215.00 180.53 215.02 C 189.31 215.02 196.00 215.36 195.40 215.77 C 193.57 216.99 192.00 220.69 192.00 223.78 C 192.00 227.18 194.05 229.30 199.54 231.55 C 201.72 232.44 210.08 236.29 218.13 240.09 C 239.42 250.16 248.00 250.60 248.00 241.62 C 248.00 235.76 242.58 232.32 216.50 221.68 C 210.45 219.21 203.93 216.74 202.00 216.20 C 199.37 215.45 203.65 215.18 219.16 215.10 C 239.83 215.00 239.83 215.00 240.66 207.25 C 241.12 202.99 241.48 192.30 241.46 183.50 C 241.35 141.73 230.87 128.37 195.48 124.91 C 182.31 123.63 159.96 124.87 147.92 127.55 C 138.16 129.73 128.74 134.26 123.90 139.10 C 120.00 143.00 120.00 143.00 120.00 179.00 C 120.00 215.00 120.00 215.00 141.75 215.10 C 156.21 215.17 162.28 215.49 159.87 216.06 C 150.54 218.27 119.00 232.30 115.25 235.91 C 112.42 238.63 112.35 242.91 115.07 246.37 C 118.32 250.50 122.13 249.86 136.70 242.75 Z  M 32.04 236.98 C 42.42 231.68 44.91 217.13 36.77 209.28 C 31.00 203.71 24.68 202.60 17.46 205.88 C 6.38 210.91 3.73 223.26 11.81 232.21 C 18.05 239.13 24.74 240.70 32.04 236.98 Z  M 67.19 233.96 C 69.56 231.59 70.11 230.32 69.68 228.21 C 69.01 224.87 58.47 205.34 55.68 202.25 C 53.33 199.65 50.09 199.38 46.07 201.46 C 43.05 203.03 42.00 204.81 42.00 208.41 C 42.00 210.91 55.18 233.79 57.74 235.75 C 60.48 237.84 63.98 237.17 67.19 233.96 Z  M 93.18 231.97 C 96.98 228.18 96.73 227.00 89.26 213.03 C 81.03 197.65 78.31 195.68 71.25 199.99 C 66.25 203.04 66.77 206.67 74.12 220.22 C 77.49 226.42 81.14 232.29 82.23 233.25 C 85.33 235.97 89.69 235.46 93.18 231.97 Z  M 117.60 230.67 C 121.71 227.13 121.07 223.55 114.01 210.67 C 105.65 195.42 103.26 193.71 96.25 197.99 C 91.14 201.10 91.72 204.78 99.56 219.04 C 103.17 225.60 106.88 231.41 107.81 231.95 C 110.70 233.64 114.77 233.10 117.60 230.67 Z  M 64.41 190.98 C 89.59 189.87 111.01 188.53 111.99 188.00 C 114.43 186.70 116.02 181.73 115.11 178.31 C 113.81 173.45 111.30 172.93 92.75 173.65 C 76.00 174.31 76.00 174.31 76.00 163.65 C 76.00 153.00 76.00 153.00 90.92 153.00 C 99.12 153.00 106.60 152.71 107.53 152.35 C 110.20 151.33 111.95 146.16 110.78 142.79 C 109.09 137.94 105.72 137.00 90.05 137.00 C 76.00 137.00 76.00 137.00 76.00 127.50 C 76.00 118.00 76.00 118.00 93.39 118.00 C 110.78 118.00 110.78 118.00 112.14 107.75 C 112.91 101.92 113.46 89.53 113.40 79.00 C 113.32 62.60 113.05 59.76 111.07 54.00 C 105.77 38.62 96.58 28.65 83.23 23.80 C 78.62 22.12 75.25 21.72 66.00 21.76 C 41.92 21.87 23.91 28.58 13.97 41.16 C 10.00 46.18 10.00 46.18 10.00 82.07 C 10.00 117.96 10.00 117.96 33.75 118.23 C 57.50 118.50 57.50 118.50 57.79 127.75 C 58.08 137.00 58.08 137.00 37.46 137.00 C 16.85 137.00 16.85 137.00 13.92 139.92 C 10.47 143.37 10.20 146.71 13.07 150.37 C 15.15 153.00 15.15 153.00 36.57 153.00 C 58.00 153.00 58.00 153.00 58.00 163.88 C 58.00 174.77 58.00 174.77 51.75 175.35 C 48.31 175.67 37.88 176.23 28.58 176.60 C 12.64 177.22 11.51 177.39 9.33 179.58 C 6.18 182.73 6.30 187.03 9.64 190.36 C 12.81 193.54 7.67 193.48 64.41 190.98 Z  M 240.19 116.25 C 240.81 114.74 241.36 109.00 241.41 103.50 C 241.56 86.81 237.69 81.57 220.76 75.52 C 203.12 69.21 186.95 68.60 154.00 72.99 C 138.44 75.07 135.96 75.62 126.25 79.21 C 121.00 81.14 121.00 81.14 121.00 100.07 C 121.00 119.00 121.00 119.00 180.02 119.00 C 239.05 119.00 239.05 119.00 240.19 116.25 Z  M 241.09 61.14 C 243.56 58.09 243.52 54.52 241.00 52.00 C 239.14 50.14 237.67 50.00 220.50 50.00 C 202.00 50.00 202.00 50.00 202.00 45.00 C 202.00 40.00 202.00 40.00 221.55 40.00 C 240.96 40.00 241.11 39.98 243.55 37.55 C 246.58 34.52 246.78 29.78 244.00 27.00 C 242.13 25.13 240.67 25.00 221.91 25.00 C 201.82 25.00 201.82 25.00 202.15 18.64 C 202.51 11.58 201.12 8.70 197.59 9.20 C 196.24 9.39 195.13 10.66 194.44 12.79 C 193.38 16.07 193.38 16.07 192.00 13.51 C 190.46 10.63 186.63 9.23 184.70 10.84 C 183.75 11.62 183.10 11.39 182.20 9.95 C 180.63 7.44 177.80 7.46 175.49 10.01 C 174.08 11.57 173.69 13.56 173.76 18.76 C 173.81 22.47 173.61 24.60 173.33 23.50 C 173.04 22.40 172.40 21.07 171.90 20.55 C 171.41 20.03 171.00 17.75 171.00 15.50 C 171.00 13.25 170.46 10.86 169.80 10.20 C 167.92 8.32 163.85 8.79 161.31 11.17 C 159.41 12.96 159.00 14.38 159.00 19.17 C 159.00 25.00 159.00 25.00 139.83 25.00 C 118.04 25.00 117.00 25.32 117.00 32.08 C 117.00 34.97 117.62 36.34 119.63 37.93 C 122.08 39.85 123.57 40.00 140.63 40.00 C 159.00 40.00 159.00 40.00 159.00 45.00 C 159.00 50.00 159.00 50.00 141.83 50.00 C 122.69 50.00 120.99 50.52 121.02 56.40 C 121.05 64.19 119.38 64.00 182.84 63.73 C 239.18 63.50 239.18 63.50 241.09 61.14 Z  M 144.67 203.33 C 143.41 202.08 144.00 199.00 145.50 199.00 C 146.43 199.00 147.00 199.94 147.00 201.50 C 147.00 203.93 146.03 204.69 144.67 203.33 Z  M 152.67 203.33 C 151.56 202.23 151.88 155.19 153.00 154.50 C 153.66 154.09 154.00 162.49 154.00 178.94 C 154.00 192.72 153.85 204.00 153.67 204.00 C 153.48 204.00 153.03 203.70 152.67 203.33 Z  M 158.00 195.00 C 158.00 190.00 158.00 190.00 191.50 190.00 C 225.00 190.00 225.00 190.00 225.00 195.00 C 225.00 200.00 225.00 200.00 191.50 200.00 C 158.00 200.00 158.00 200.00 158.00 195.00 Z  M 158.19 171.75 C 158.50 167.50 158.50 167.50 190.93 167.24 C 226.24 166.95 224.96 166.74 224.98 172.75 C 225.00 176.00 225.00 176.00 191.44 176.00 C 157.89 176.00 157.89 176.00 158.19 171.75 Z  M 158.00 149.95 C 158.00 144.43 167.01 140.57 182.50 139.45 C 199.57 138.22 214.07 142.08 219.14 149.20 C 221.14 152.00 221.14 152.00 189.57 152.00 C 158.43 152.00 158.00 151.97 158.00 149.95 Z  M 14.10 220.18 C 13.07 218.27 13.13 217.45 14.43 215.47 C 16.18 212.79 19.41 210.74 20.36 211.69 C 20.70 212.04 20.44 212.97 19.77 213.77 C 19.11 214.58 17.84 216.87 16.95 218.87 C 15.35 222.49 15.34 222.49 14.10 220.18 Z  M 25.25 209.75 C 25.88 207.86 29.00 207.59 29.00 209.43 C 29.00 210.35 28.15 211.00 26.92 211.00 C 25.69 211.00 25.01 210.48 25.25 209.75 Z  M 43.00 95.00 C 43.00 87.00 43.00 87.00 46.54 87.00 C 48.49 87.00 51.86 86.09 54.04 84.98 C 58.00 82.96 58.00 82.96 58.00 92.98 C 58.00 103.00 58.00 103.00 50.50 103.00 C 43.00 103.00 43.00 103.00 43.00 95.00 Z  M 76.00 95.50 C 76.00 88.49 76.14 88.00 78.16 88.00 C 80.85 88.00 94.19 74.49 96.71 69.22 C 98.49 65.50 98.49 65.50 99.17 70.00 C 100.06 75.90 100.15 87.81 99.35 96.25 C 98.71 103.00 98.71 103.00 87.36 103.00 C 76.00 103.00 76.00 103.00 76.00 95.50 Z  M 34.64 72.31 C 32.27 69.93 36.25 62.00 39.81 62.00 C 41.43 62.00 41.31 63.50 39.56 64.95 C 38.77 65.60 37.84 67.45 37.49 69.06 C 36.81 72.13 35.71 73.38 34.64 72.31 Z  M 76.00 55.56 C 76.00 45.90 76.36 38.00 76.79 38.00 C 79.15 38.00 88.82 45.06 91.29 48.59 C 94.16 52.69 94.16 52.69 89.53 57.09 C 86.99 59.52 83.31 63.86 81.36 66.75 C 79.40 69.64 77.40 72.25 76.90 72.56 C 76.38 72.88 76.00 65.73 76.00 55.56 Z  M 45.24 61.33 C 43.44 60.61 44.75 59.00 47.14 59.00 C 48.26 59.00 48.99 59.53 48.77 60.19 C 48.30 61.60 46.98 62.02 45.24 61.33 Z  M 54.02 55.94 C 52.10 54.87 48.84 54.00 46.77 54.00 C 43.00 54.00 43.00 54.00 43.00 48.09 C 43.00 42.18 43.00 42.18 47.25 40.18 C 49.59 39.08 52.96 37.87 54.75 37.51 C 58.00 36.84 58.00 36.84 58.00 47.42 C 58.00 53.24 57.89 57.97 57.75 57.94 C 57.61 57.91 55.93 57.01 54.02 55.94 Z  M 139.43 109.67 C 138.36 106.90 139.48 89.67 140.75 89.25 C 141.70 88.93 142.00 91.50 142.00 99.92 C 142.00 106.86 141.62 111.00 140.97 111.00 C 140.40 111.00 139.71 110.40 139.43 109.67 Z  M 145.36 109.49 C 144.76 107.93 146.56 105.00 148.12 105.00 C 148.61 105.00 149.00 106.35 149.00 108.00 C 149.00 111.23 146.43 112.28 145.36 109.49 Z  M 153.00 96.54 C 153.00 88.16 153.31 87.76 160.75 86.63 C 165.00 85.98 165.00 85.98 165.00 94.99 C 165.00 104.00 165.00 104.00 159.00 104.00 C 153.00 104.00 153.00 104.00 153.00 96.54 Z  M 182.00 94.00 C 182.00 84.00 182.00 84.00 188.00 84.00 C 194.00 84.00 194.00 84.00 194.00 94.00 C 194.00 104.00 194.00 104.00 188.00 104.00 C 182.00 104.00 182.00 104.00 182.00 94.00 Z  M 210.00 95.00 C 210.00 85.23 210.18 84.98 215.68 87.07 C 219.69 88.58 222.97 91.87 225.11 96.50 C 228.42 103.68 228.14 104.00 218.50 104.00 C 210.00 104.00 210.00 104.00 210.00 95.00 Z "/>
</g>
</svg>