<?xml version="1.0" encoding="UTF-8" standalone="no"?>
<!DOCTYPE svg PUBLIC "-//W3C//DTD SVG 1.1//EN" "http://www.w3.org/Graphics/SVG/1.1/DTD/svg11.dtd" >
<svg xmlns="http://www.w3.org/2000/svg" xmlns:xlink="http://www.w3.org/1999/xlink" version="1.1" viewBox="0 0 256 256">
 <g >
 <path fill="currentColor"
d=" M 239.69 227.83 C 242.59 225.10 242.65 221.32 239.83 218.31 C 237.65 216.00 237.65 216.00 175.33 216.00 C 113.00 216.00 113.00 216.00 113.00 130.00 C 113.00 44.00 113.00 44.00 174.05 44.00 C 235.09 44.00 235.09 44.00 237.55 41.55 C 240.40 38.69 240.74 34.48 238.35 31.83 C 236.77 30.09 233.33 30.00 169.78 30.00 C 125.57 30.00 102.21 30.35 100.93 31.04 C 99.04 32.05 99.00 34.19 99.00 128.72 C 99.00 225.37 99.00 225.37 101.17 227.69 C 103.35 230.00 103.35 230.00 170.36 230.00 C 237.37 230.00 237.37 230.00 239.69 227.83 Z  M 74.25 220.67 C 78.19 218.74 80.90 216.53 82.85 213.67 C 88.71 205.05 88.45 208.98 88.78 124.94 C 89.08 47.37 89.08 47.37 86.97 44.69 C 85.44 42.75 83.94 42.00 81.58 42.00 C 74.68 42.00 75.09 37.13 74.78 123.09 C 74.52 195.17 74.38 200.78 72.74 203.28 C 70.68 206.42 67.62 208.50 63.75 209.40 C 61.00 210.04 61.00 210.04 61.00 117.15 C 61.00 24.70 60.99 24.26 58.93 21.63 C 56.39 18.41 51.88 18.12 49.00 21.00 C 47.03 22.97 47.00 24.33 47.00 116.50 C 47.00 210.00 47.00 210.00 40.00 210.00 C 33.00 210.00 33.00 210.00 33.00 128.00 C 33.00 47.33 32.97 45.97 31.00 44.00 C 28.43 41.43 23.57 41.43 21.00 44.00 C 19.03 45.97 19.00 47.33 19.00 132.96 C 19.00 219.92 19.00 219.92 21.25 222.02 C 23.42 224.05 24.30 224.11 46.00 223.81 C 68.38 223.50 68.53 223.48 74.25 220.67 Z  M 161.65 200.26 C 163.94 199.05 167.21 196.36 168.93 194.28 C 174.37 187.70 175.00 183.58 175.00 154.39 C 175.00 121.04 177.51 124.00 149.30 124.00 C 129.35 124.00 125.71 124.49 123.77 127.40 C 123.36 128.00 123.02 144.56 123.02 164.19 C 123.00 199.89 123.00 199.89 125.25 201.50 C 127.14 202.86 129.93 203.06 142.50 202.79 C 155.66 202.51 158.01 202.20 161.65 200.26 Z  M 219.12 201.46 C 224.58 199.53 229.39 194.99 232.84 188.50 C 235.50 183.50 235.50 183.50 235.81 155.96 C 236.11 128.81 236.08 128.38 233.95 126.46 C 231.94 124.64 230.22 124.50 209.43 124.50 C 189.30 124.50 186.89 124.68 185.29 126.28 C 183.65 127.92 183.48 131.02 183.21 162.85 C 182.85 206.64 181.25 203.00 200.95 203.00 C 210.83 203.00 215.99 202.56 219.12 201.46 Z  M 214.23 107.44 C 216.76 106.58 220.44 104.30 222.41 102.39 C 228.81 96.17 229.43 94.12 229.83 77.69 C 230.02 69.54 229.93 61.86 229.62 60.61 C 228.51 56.18 226.51 56.00 178.61 56.00 C 133.83 56.00 133.29 56.02 131.40 58.10 C 129.65 60.05 129.50 61.99 129.50 82.95 C 129.50 100.76 129.80 106.05 130.87 107.35 C 132.11 108.83 136.17 109.00 170.94 109.00 C 203.43 109.00 210.38 108.75 214.23 107.44 Z  M 136.23 163.75 C 136.50 138.50 136.50 138.50 148.80 138.22 C 161.11 137.94 161.11 137.94 160.80 160.55 C 160.50 183.17 160.50 183.17 157.23 186.08 C 154.14 188.85 153.50 189.00 144.97 189.00 C 135.97 189.00 135.97 189.00 136.23 163.75 Z  M 197.00 163.50 C 197.00 138.00 197.00 138.00 209.50 138.00 C 222.00 138.00 222.00 138.00 222.00 158.53 C 222.00 187.33 221.11 189.00 205.78 189.00 C 197.00 189.00 197.00 189.00 197.00 163.50 Z  M 143.00 83.00 C 143.00 70.00 143.00 70.00 179.50 70.00 C 216.00 70.00 216.00 70.00 215.96 78.75 C 215.93 88.39 214.95 91.07 210.43 94.05 C 207.69 95.86 205.44 95.99 175.25 95.99 C 143.00 96.00 143.00 96.00 143.00 83.00 Z "/>
</g>
</svg>