<?xml version="1.0" encoding="UTF-8" standalone="no"?>
<!DOCTYPE svg PUBLIC "-//W3C//DTD SVG 1.1//EN" "http://www.w3.org/Graphics/SVG/1.1/DTD/svg11.dtd" >
<svg xmlns="http://www.w3.org/2000/svg" xmlns:xlink="http://www.w3.org/1999/xlink" version="1.1" viewBox="0 0 256 256">
 <g >
 <path fill="currentColor"
d=" M 29.20 230.25 C 31.74 227.30 63.00 152.98 63.00 149.88 C 63.00 145.50 55.89 141.52 52.22 143.84 C 50.37 145.02 18.00 222.37 18.00 225.61 C 18.00 227.11 18.74 229.17 19.65 230.17 C 21.77 232.51 27.21 232.56 29.20 230.25 Z  M 157.90 229.25 C 160.01 227.51 160.02 227.30 160.26 166.00 C 160.50 104.50 160.50 104.50 198.00 104.26 C 234.82 104.02 235.53 103.97 237.25 101.89 C 239.53 99.14 239.47 95.80 237.09 92.86 C 235.18 90.50 235.18 90.50 197.59 90.20 C 160.00 89.91 160.00 89.91 160.00 56.28 C 160.00 26.40 159.82 22.45 158.35 20.83 C 156.37 18.64 151.17 18.43 148.44 20.42 C 146.60 21.77 146.49 23.51 146.21 55.87 C 145.92 89.91 145.92 89.91 109.07 90.20 C 74.46 90.48 72.08 90.62 70.10 92.40 C 67.56 94.71 67.33 99.60 69.65 102.17 C 71.20 103.88 73.75 104.00 108.65 104.00 C 146.00 104.00 146.00 104.00 146.00 165.05 C 146.00 226.09 146.00 226.09 148.45 228.55 C 151.34 231.43 154.93 231.70 157.90 229.25 Z  M 53.37 114.93 C 58.02 111.27 57.03 109.14 43.75 94.29 C 24.09 72.30 24.65 72.81 20.87 73.18 C 16.64 73.59 14.07 77.56 15.53 81.44 C 16.06 82.86 23.17 91.44 31.33 100.51 C 47.21 118.16 48.32 118.89 53.37 114.93 Z  M 55.55 61.55 C 60.42 56.67 59.41 54.58 43.85 37.25 C 36.06 28.59 28.59 20.90 27.25 20.17 C 23.55 18.15 20.11 19.49 18.38 23.63 C 16.48 28.17 16.33 27.93 34.23 48.25 C 49.32 65.37 50.80 66.29 55.55 61.55 Z "/>
</g>
</svg>