<?xml version="1.0" encoding="UTF-8" standalone="no"?>
<!DOCTYPE svg PUBLIC "-//W3C//DTD SVG 1.1//EN" "http://www.w3.org/Graphics/SVG/1.1/DTD/svg11.dtd" >
<svg xmlns="http://www.w3.org/2000/svg" xmlns:xlink="http://www.w3.org/1999/xlink" version="1.1" viewBox="0 0 256 256">
 <g >
 <path fill="currentColor"
d=" M 33.40 229.75 C 35.73 227.66 35.99 226.53 36.92 214.00 C 37.47 206.57 38.17 190.82 38.48 179.00 C 38.79 167.18 39.31 154.00 39.63 149.73 C 40.21 141.97 40.21 141.97 64.86 142.23 C 89.50 142.50 89.50 142.50 89.50 173.50 C 89.50 202.89 89.39 204.71 87.43 208.50 C 85.03 213.15 80.21 216.00 74.75 216.00 C 67.78 216.00 64.37 223.37 69.13 228.13 C 70.97 229.97 72.02 230.18 76.92 229.67 C 91.67 228.12 100.58 219.13 103.01 203.32 C 103.69 198.88 103.96 169.73 103.78 119.85 C 103.51 46.10 103.43 43.13 101.60 41.10 C 99.80 39.12 98.70 39.00 82.85 39.00 C 66.00 39.00 66.00 39.00 66.00 31.45 C 66.00 24.78 65.72 23.63 63.55 21.45 C 60.49 18.40 56.38 18.29 53.31 21.17 C 51.28 23.09 51.00 24.29 51.00 31.17 C 51.00 39.00 51.00 39.00 41.00 39.00 C 25.91 39.00 27.00 36.22 27.00 74.84 C 27.00 92.36 26.71 111.48 26.35 117.34 C 25.70 128.00 25.70 128.00 22.30 128.00 C 13.78 128.00 8.96 134.96 14.00 140.00 C 15.47 141.47 17.33 142.00 21.00 142.00 C 26.00 142.00 26.00 142.00 25.98 147.75 C 25.96 155.46 23.27 210.42 22.42 220.60 C 21.77 228.35 21.84 228.78 24.09 230.35 C 27.33 232.62 30.42 232.42 33.40 229.75 Z  M 127.89 230.25 C 129.90 228.58 130.01 227.50 130.25 207.00 C 130.50 185.50 130.50 185.50 175.75 185.24 C 221.00 184.98 221.00 184.98 221.00 193.12 C 221.00 203.09 219.61 208.04 215.79 211.70 C 213.09 214.29 212.18 214.53 203.44 214.85 C 194.40 215.18 193.91 215.31 191.51 218.17 C 188.37 221.90 188.36 223.45 191.45 226.55 C 193.67 228.76 194.73 229.00 202.27 229.00 C 218.12 229.00 226.28 224.27 232.58 211.45 C 235.50 205.50 235.50 205.50 235.78 144.92 C 236.06 84.80 236.04 84.32 233.97 81.69 C 231.88 79.04 231.88 79.04 207.69 78.77 C 183.50 78.50 183.50 78.50 183.25 50.50 C 183.01 23.37 182.94 22.45 180.89 20.75 C 177.74 18.14 173.52 18.52 171.07 21.63 C 169.09 24.15 169.00 25.46 169.00 51.63 C 169.00 79.00 169.00 79.00 144.83 79.00 C 123.74 79.00 120.42 79.21 118.83 80.65 C 117.09 82.23 117.00 85.87 117.00 155.60 C 117.00 228.89 117.00 228.89 119.22 230.44 C 122.14 232.49 125.28 232.42 127.89 230.25 Z  M 73.04 199.48 C 78.90 196.45 78.41 193.37 68.92 173.25 C 63.13 161.00 63.13 161.00 59.14 161.00 C 54.98 161.00 52.59 162.57 51.49 166.03 C 50.78 168.28 62.47 194.90 65.87 198.75 C 68.21 201.41 69.13 201.50 73.04 199.48 Z  M 144.00 70.00 C 145.10 68.90 146.00 67.09 146.00 65.99 C 146.00 64.88 142.32 55.16 137.83 44.39 C 130.33 26.43 129.38 24.67 126.32 23.21 C 123.17 21.71 122.83 21.74 120.24 23.66 C 118.73 24.78 117.35 26.69 117.17 27.90 C 116.78 30.59 131.56 66.62 134.35 69.75 C 136.85 72.56 141.32 72.68 144.00 70.00 Z  M 217.83 70.25 C 220.37 68.08 235.00 33.08 235.00 29.17 C 235.00 24.33 228.40 20.49 224.77 23.21 C 222.27 25.08 207.00 62.21 207.00 66.43 C 207.00 71.79 213.38 74.04 217.83 70.25 Z  M 40.36 123.36 C 40.71 120.81 41.00 103.93 41.00 85.86 C 41.00 53.00 41.00 53.00 65.50 53.00 C 90.00 53.00 90.00 53.00 90.00 90.50 C 90.00 128.00 90.00 128.00 64.86 128.00 C 39.73 128.00 39.73 128.00 40.36 123.36 Z  M 74.37 108.93 C 75.86 107.75 77.00 105.85 77.00 104.53 C 77.00 103.25 73.92 95.52 70.17 87.35 C 64.46 74.94 62.88 72.34 60.60 71.53 C 57.07 70.28 53.01 72.44 51.75 76.24 C 50.98 78.56 51.82 81.11 57.13 92.63 C 60.60 100.14 64.27 107.34 65.29 108.64 C 67.58 111.55 70.90 111.66 74.37 108.93 Z  M 130.23 155.75 C 130.50 139.50 130.50 139.50 175.75 139.24 C 221.00 138.98 221.00 138.98 221.00 155.49 C 221.00 172.00 221.00 172.00 175.48 172.00 C 129.95 172.00 129.95 172.00 130.23 155.75 Z  M 130.23 108.75 C 130.50 92.50 130.50 92.50 175.75 92.24 C 221.00 91.98 221.00 91.98 221.00 108.49 C 221.00 125.00 221.00 125.00 175.48 125.00 C 129.95 125.00 129.95 125.00 130.23 108.75 Z "/>
</g>
</svg>