<?xml version="1.0" encoding="UTF-8" standalone="no"?>
<!DOCTYPE svg PUBLIC "-//W3C//DTD SVG 1.1//EN" "http://www.w3.org/Graphics/SVG/1.1/DTD/svg11.dtd" >
<svg xmlns="http://www.w3.org/2000/svg" xmlns:xlink="http://www.w3.org/1999/xlink" version="1.1" viewBox="0 0 256 256">
 <g >
 <path fill="currentColor"
d=" M 116.28 228.24 C 119.19 225.62 125.68 211.69 129.50 199.87 C 131.46 193.80 134.08 182.46 135.31 174.67 C 137.56 160.50 137.56 160.50 151.24 160.22 C 164.92 159.94 164.92 159.94 165.21 193.56 C 165.50 227.18 165.50 227.18 167.86 229.09 C 170.91 231.56 174.48 231.52 177.00 229.00 C 178.92 227.08 179.00 225.67 179.00 193.50 C 179.00 160.00 179.00 160.00 208.50 160.00 C 236.67 160.00 238.09 159.91 240.00 158.00 C 242.70 155.30 242.52 151.43 239.55 148.45 C 237.09 146.00 237.09 146.00 208.00 146.00 C 178.90 146.00 178.90 146.00 179.20 139.75 C 179.50 133.50 179.50 133.50 197.50 132.97 C 216.84 132.40 219.56 131.78 225.80 126.52 C 227.61 124.99 230.31 121.44 231.80 118.62 C 234.50 113.50 234.50 113.50 234.80 73.62 C 235.11 33.74 235.11 33.74 232.88 31.37 C 230.65 29.00 230.65 29.00 172.15 29.00 C 119.13 29.00 113.49 29.15 111.83 30.65 C 110.10 32.21 110.00 35.09 110.00 80.83 C 110.00 124.57 110.16 129.52 111.65 131.17 C 113.18 132.85 115.39 133.00 139.15 133.00 C 165.00 133.00 165.00 133.00 165.00 139.50 C 165.00 146.00 165.00 146.00 136.93 146.00 C 104.52 146.00 103.05 146.32 103.02 153.42 C 102.99 158.71 105.28 160.00 114.65 160.00 C 123.00 160.00 123.00 160.00 122.99 162.75 C 122.98 166.75 118.64 185.22 115.54 194.50 C 114.07 198.90 110.87 206.72 108.43 211.88 C 103.22 222.91 102.91 226.00 106.71 228.98 C 109.68 231.33 113.15 231.06 116.28 228.24 Z  M 60.10 223.93 C 80.61 220.59 98.20 217.43 99.18 216.90 C 103.32 214.69 102.04 205.55 97.43 204.39 C 95.50 203.91 76.39 206.71 68.25 208.67 C 66.00 209.22 66.00 209.22 66.00 174.11 C 66.00 139.00 66.00 139.00 81.43 139.00 C 96.85 139.00 96.85 139.00 98.98 136.29 C 100.47 134.40 100.93 132.82 100.49 131.04 C 99.23 125.88 98.09 125.52 81.47 125.18 C 66.00 124.86 66.00 124.86 66.00 110.93 C 66.00 97.00 66.00 97.00 79.00 97.00 C 90.67 97.00 92.21 96.79 94.00 95.00 C 95.10 93.90 96.00 92.52 96.00 91.93 C 96.00 90.43 93.91 86.64 92.60 85.77 C 92.00 85.36 76.56 85.02 58.31 85.02 C 25.13 85.00 25.11 85.00 23.56 87.22 C 21.49 90.17 21.59 93.32 23.79 95.31 C 25.22 96.60 28.28 97.00 38.54 97.22 C 51.50 97.50 51.50 97.50 51.78 111.25 C 52.06 125.00 52.06 125.00 37.48 125.00 C 26.64 125.00 22.17 125.38 20.07 126.46 C 15.46 128.85 14.69 132.98 18.17 136.69 C 20.27 138.92 20.92 139.00 36.17 139.00 C 52.00 139.00 52.00 139.00 52.00 174.92 C 52.00 210.84 52.00 210.84 49.25 211.38 C 47.74 211.67 40.42 212.86 33.00 214.02 C 22.58 215.65 18.99 216.62 17.25 218.24 C 13.06 222.16 15.26 230.00 20.56 230.00 C 21.79 230.00 39.58 227.27 60.10 223.93 Z  M 235.78 228.44 C 237.11 227.51 238.00 225.84 238.00 224.28 C 238.00 222.85 234.60 210.84 230.44 197.59 C 226.28 184.34 222.65 172.72 222.37 171.76 C 221.52 168.81 219.00 167.00 215.76 167.00 C 211.88 167.00 209.00 169.51 209.00 172.90 C 209.00 175.41 224.26 224.68 226.15 228.25 C 227.32 230.47 232.73 230.58 235.78 228.44 Z  M 39.78 198.44 C 41.00 197.59 42.00 195.90 41.99 194.69 C 41.98 193.49 40.22 183.07 38.07 171.54 C 33.98 149.65 33.30 148.00 28.44 148.00 C 25.36 148.00 21.00 151.74 21.00 154.39 C 21.00 155.62 22.60 165.37 24.56 176.06 C 27.35 191.25 28.59 195.99 30.24 197.75 C 32.70 200.37 36.62 200.66 39.78 198.44 Z  M 86.32 197.75 C 88.71 195.99 96.52 154.84 95.00 152.00 C 92.84 147.97 87.41 146.77 84.74 149.75 C 83.80 150.79 81.70 159.17 79.52 170.50 C 77.52 180.95 75.66 190.42 75.38 191.54 C 74.15 196.61 81.90 201.00 86.32 197.75 Z  M 30.76 75.12 C 40.35 66.48 54.16 52.38 58.11 47.20 C 60.63 43.90 60.63 43.90 78.00 61.45 C 89.91 73.48 96.06 79.00 97.55 79.00 C 100.48 79.00 105.00 74.31 105.00 71.27 C 105.00 69.43 100.48 64.24 86.92 50.51 C 68.85 32.19 68.85 32.19 70.51 28.99 C 72.68 24.78 71.77 21.56 67.97 19.99 C 63.42 18.10 61.27 19.57 52.44 30.55 C 44.14 40.86 30.75 55.32 19.59 66.00 C 15.86 69.58 12.40 73.26 11.90 74.18 C 10.64 76.55 12.48 80.86 15.24 81.96 C 20.07 83.90 21.92 83.09 30.76 75.12 Z  M 124.00 104.00 C 124.00 89.00 124.00 89.00 144.50 89.00 C 165.00 89.00 165.00 89.00 165.00 104.00 C 165.00 119.00 165.00 119.00 144.50 119.00 C 124.00 119.00 124.00 119.00 124.00 104.00 Z  M 179.00 104.00 C 179.00 89.00 179.00 89.00 200.11 89.00 C 221.22 89.00 221.22 89.00 220.83 99.75 C 220.53 108.12 220.03 111.12 218.57 113.30 C 215.19 118.37 212.60 119.00 195.05 119.00 C 179.00 119.00 179.00 119.00 179.00 104.00 Z  M 124.00 59.00 C 124.00 43.00 124.00 43.00 144.50 43.00 C 165.00 43.00 165.00 43.00 165.00 59.00 C 165.00 75.00 165.00 75.00 144.50 75.00 C 124.00 75.00 124.00 75.00 124.00 59.00 Z  M 179.67 74.33 C 179.30 73.97 179.00 66.77 179.00 58.33 C 179.00 43.00 179.00 43.00 200.00 43.00 C 221.00 43.00 221.00 43.00 221.00 59.00 C 221.00 75.00 221.00 75.00 200.67 75.00 C 189.48 75.00 180.03 74.70 179.67 74.33 Z "/>
</g>
</svg>