<?xml version="1.0" encoding="UTF-8" standalone="no"?>
<!DOCTYPE svg PUBLIC "-//W3C//DTD SVG 1.1//EN" "http://www.w3.org/Graphics/SVG/1.1/DTD/svg11.dtd" >
<svg xmlns="http://www.w3.org/2000/svg" xmlns:xlink="http://www.w3.org/1999/xlink" version="1.1" viewBox="0 0 256 256">
 <g >
 <path fill="currentColor"
d=" M 225.38 246.25 C 225.97 244.27 233.00 213.90 233.00 213.35 C 233.00 213.16 194.08 213.00 146.50 213.00 C 60.00 213.00 60.00 213.00 60.00 201.00 C 60.00 189.00 60.00 189.00 137.48 189.00 C 214.96 189.00 214.96 189.00 215.46 186.75 C 216.19 183.51 221.00 155.73 221.00 154.79 C 221.00 154.36 219.20 154.00 216.99 154.00 C 212.98 154.00 212.98 154.00 213.58 148.75 C 215.07 135.52 209.15 120.06 198.99 110.65 C 191.80 103.99 179.74 97.80 168.50 95.00 C 146.22 89.45 107.60 90.47 73.52 97.52 C 66.92 98.88 61.18 100.00 60.76 100.00 C 60.34 100.00 60.00 98.20 60.00 96.00 C 60.00 93.47 59.54 92.00 58.75 92.00 C 58.06 92.00 49.50 93.67 39.72 95.73 C 21.94 99.45 21.94 99.45 22.22 162.98 C 22.49 223.08 22.60 226.69 24.39 230.00 C 28.43 237.47 35.77 244.08 42.83 246.60 C 45.75 247.64 64.75 247.92 135.68 247.96 C 219.78 248.00 224.89 247.90 225.38 246.25 Z  M 199.75 86.34 C 218.00 83.61 218.00 83.61 218.00 48.30 C 218.00 20.73 217.73 13.00 216.75 13.00 C 214.83 13.00 185.92 15.99 182.25 16.58 C 179.00 17.09 179.00 17.09 179.00 29.93 C 179.00 42.77 179.00 42.77 165.25 45.39 C 149.06 48.47 139.20 49.87 138.50 49.17 C 138.23 48.89 138.00 39.50 138.00 28.29 C 138.00 7.91 138.00 7.91 134.75 8.51 C 98.41 15.19 101.53 12.91 101.23 33.05 C 101.08 43.17 100.59 51.81 100.15 52.25 C 98.91 53.49 81.58 51.21 75.92 49.06 C 64.09 44.57 59.91 38.22 59.65 24.39 C 59.50 16.00 59.50 16.00 41.37 16.00 C 20.09 16.00 22.03 14.50 22.03 31.00 C 22.03 47.52 25.14 57.71 32.79 66.21 C 51.37 86.85 94.61 90.88 174.25 79.41 C 179.00 78.73 179.00 78.73 179.00 83.86 C 179.00 87.29 179.42 89.01 180.25 89.03 C 180.94 89.05 189.71 87.84 199.75 86.34 Z  M 60.00 144.58 C 60.00 135.17 60.00 135.17 65.15 134.06 C 71.28 132.75 87.88 130.26 93.50 129.82 C 97.50 129.50 97.50 129.50 97.78 141.75 C 98.06 154.00 98.06 154.00 79.03 154.00 C 60.00 154.00 60.00 154.00 60.00 144.58 Z  M 136.00 141.00 C 136.00 128.00 136.00 128.00 139.25 128.02 C 145.09 128.05 155.96 130.85 161.11 133.65 C 166.47 136.57 170.26 141.78 171.35 147.74 C 172.50 154.02 172.56 154.00 153.39 154.00 C 136.00 154.00 136.00 154.00 136.00 141.00 Z "/>
</g>
</svg>