<?xml version="1.0" encoding="UTF-8" standalone="no"?>
<!DOCTYPE svg PUBLIC "-//W3C//DTD SVG 1.1//EN" "http://www.w3.org/Graphics/SVG/1.1/DTD/svg11.dtd" >
<svg xmlns="http://www.w3.org/2000/svg" xmlns:xlink="http://www.w3.org/1999/xlink" version="1.1" viewBox="0 0 256 256">
 <g >
 <path fill="currentColor"
d=" M 230.00 247.10 C 235.73 244.16 241.56 238.62 244.33 233.50 C 246.44 229.61 246.51 228.35 246.79 188.75 C 247.08 148.00 247.08 148.00 206.97 148.00 C 166.86 148.00 166.86 148.00 167.18 145.75 C 167.50 143.50 167.50 143.50 205.69 143.24 C 240.96 143.00 243.91 142.84 244.39 141.24 C 244.67 140.28 245.64 135.45 246.53 130.50 C 247.42 125.55 248.39 120.49 248.68 119.25 C 249.22 117.00 249.22 117.00 208.04 117.00 C 166.86 117.00 166.86 117.00 167.18 114.75 C 167.50 112.50 167.50 112.50 203.73 112.24 C 239.97 111.98 239.97 111.98 240.47 109.74 C 240.74 108.51 241.66 103.22 242.51 98.00 C 243.36 92.78 244.30 87.26 244.60 85.75 C 245.09 83.36 244.85 83.00 242.75 83.00 C 241.42 83.00 240.11 82.78 239.84 82.50 C 239.56 82.23 239.93 79.19 240.65 75.75 C 245.78 51.28 236.55 30.18 217.64 23.15 C 214.82 22.10 210.59 20.92 208.25 20.53 C 205.91 20.14 204.00 19.44 204.00 18.97 C 204.00 18.50 204.93 16.55 206.06 14.63 C 208.12 11.14 208.12 11.14 203.81 10.59 C 199.03 9.99 173.78 8.00 170.86 8.00 C 169.35 8.00 168.98 8.81 168.90 12.25 C 168.85 14.59 168.49 17.62 168.11 18.99 C 167.33 21.80 164.00 23.07 164.00 20.57 C 164.00 19.71 163.85 19.00 163.66 19.00 C 163.17 19.00 133.98 24.86 131.25 25.51 C 129.00 26.04 129.00 26.04 129.00 103.02 C 129.00 180.00 129.00 180.00 169.00 180.00 C 209.00 180.00 209.00 180.00 209.00 187.50 C 209.00 195.00 209.00 195.00 203.23 190.75 C 196.89 186.09 189.34 182.32 188.34 183.32 C 187.99 183.67 189.63 190.72 191.99 198.98 C 196.73 215.56 195.77 214.97 206.25 207.76 C 209.00 205.86 209.00 205.86 209.00 210.93 C 209.00 216.00 209.00 216.00 201.72 216.00 C 194.45 216.00 194.45 216.00 185.74 204.25 C 174.90 189.62 168.05 181.87 168.02 184.21 C 168.01 185.14 169.09 192.79 170.43 201.21 C 171.76 209.62 173.61 222.57 174.53 230.00 C 175.45 237.43 176.28 243.58 176.37 243.69 C 176.46 243.79 179.77 241.43 183.72 238.44 C 187.66 235.46 191.08 233.35 191.32 233.76 C 191.55 234.17 192.51 238.03 193.46 242.35 C 195.18 250.21 195.18 250.21 210.34 249.81 C 223.76 249.46 226.02 249.15 230.00 247.10 Z  M 14.15 243.38 C 29.01 231.22 43.31 213.51 54.70 193.14 C 60.50 182.79 60.50 182.79 61.00 200.14 C 61.46 216.27 61.69 217.90 64.15 223.15 C 71.71 239.28 89.19 246.07 104.19 238.71 C 107.55 237.06 111.89 233.71 114.78 230.55 C 119.69 225.18 119.69 225.18 128.59 237.04 C 133.49 243.56 137.79 248.92 138.14 248.95 C 138.97 249.01 140.73 239.18 142.14 226.50 C 143.29 216.22 142.71 192.48 141.15 186.00 C 140.31 182.50 140.31 182.50 138.48 187.00 C 135.84 193.49 124.81 215.15 124.38 214.71 C 124.17 214.51 124.51 211.67 125.12 208.42 C 126.38 201.69 125.77 186.87 123.94 179.63 C 122.70 174.77 122.70 174.77 120.86 182.03 C 116.99 197.25 108.15 206.01 102.43 200.29 C 98.23 196.09 98.00 193.70 98.00 154.53 C 98.00 111.70 99.17 115.83 87.64 118.14 C 84.51 118.77 81.73 119.06 81.45 118.79 C 80.75 118.08 83.09 93.67 83.95 92.72 C 85.10 91.45 89.89 96.95 90.94 100.74 C 91.47 102.66 91.64 105.53 91.33 107.12 C 90.75 110.00 90.75 110.00 107.74 110.00 C 124.74 110.00 124.74 110.00 125.36 106.25 C 127.17 95.32 125.21 82.82 120.26 73.74 C 114.89 63.88 102.20 55.34 90.03 53.39 C 86.00 52.74 86.00 52.74 86.00 30.37 C 86.00 16.81 85.62 8.00 85.04 8.00 C 83.77 8.00 53.11 12.86 50.25 13.52 C 48.00 14.04 48.00 14.08 48.00 34.92 C 48.00 55.80 48.00 55.80 44.85 56.90 C 40.28 58.50 40.00 58.36 40.00 54.50 C 40.00 50.26 40.80 50.29 22.50 53.83 C 8.50 56.54 8.50 56.54 8.23 84.27 C 7.97 112.00 7.97 112.00 10.73 111.92 C 12.26 111.87 19.35 111.08 26.50 110.16 C 39.50 108.49 39.50 108.49 39.79 100.26 C 40.07 92.40 40.20 91.99 42.59 91.39 C 43.97 91.04 45.27 90.94 45.48 91.15 C 46.22 91.88 42.03 125.47 39.39 140.00 C 34.00 169.65 29.68 184.82 15.65 223.25 C 10.48 237.41 6.48 249.00 6.76 249.00 C 7.05 249.00 10.37 246.47 14.15 243.38 Z  M 161.29 240.05 C 167.18 237.30 172.00 234.78 172.00 234.47 C 172.00 231.27 151.53 185.20 148.93 182.55 C 148.36 181.96 147.96 189.21 147.91 201.55 C 147.85 212.52 147.52 227.03 147.16 233.80 C 146.38 248.29 145.01 247.68 161.29 240.05 Z  M 167.67 82.33 C 167.30 81.97 167.00 80.62 167.00 79.33 C 167.00 77.00 167.00 77.00 183.06 77.00 C 199.12 77.00 199.12 77.00 202.49 69.75 C 205.66 62.94 205.87 62.71 205.91 66.00 C 205.95 69.08 205.48 71.93 203.47 80.75 C 202.97 82.98 202.79 83.00 185.65 83.00 C 176.12 83.00 168.03 82.70 167.67 82.33 Z  M 167.50 54.00 C 166.20 51.89 172.76 50.62 185.22 50.56 C 197.11 50.50 198.08 50.65 200.19 52.75 C 202.44 55.00 202.44 55.00 185.28 55.00 C 174.90 55.00 167.87 54.60 167.50 54.00 Z "/>
</g>
</svg>