<?xml version="1.0" encoding="UTF-8" standalone="no"?>
<!DOCTYPE svg PUBLIC "-//W3C//DTD SVG 1.1//EN" "http://www.w3.org/Graphics/SVG/1.1/DTD/svg11.dtd" >
<svg xmlns="http://www.w3.org/2000/svg" xmlns:xlink="http://www.w3.org/1999/xlink" version="1.1" viewBox="0 0 256 256">
 <g >
 <path fill="currentColor"
d=" M 91.50 246.86 C 101.06 245.47 116.28 241.63 124.50 238.54 C 142.27 231.85 160.63 219.40 169.65 207.92 C 173.38 203.16 174.60 202.19 175.52 203.21 C 184.45 213.06 206.71 237.92 210.71 242.51 C 215.34 247.83 216.09 248.33 217.42 247.00 C 218.24 246.18 225.41 237.62 233.36 228.00 C 247.77 210.54 247.81 210.50 245.66 208.78 C 244.47 207.84 235.18 202.82 225.00 197.64 C 208.45 189.21 200.57 185.52 188.90 180.71 C 185.30 179.23 185.30 179.23 187.30 171.86 C 189.00 165.64 189.38 160.48 189.75 138.44 C 190.19 112.37 190.19 112.37 171.84 114.44 C 153.50 116.50 153.50 116.50 152.96 141.00 C 152.53 160.17 152.03 166.90 150.63 171.94 C 143.44 197.90 123.16 220.93 90.21 240.55 C 84.32 244.06 78.83 247.37 78.00 247.89 C 76.40 248.92 78.41 248.76 91.50 246.86 Z  M 22.50 228.01 C 28.55 226.89 35.86 225.50 38.75 224.92 C 44.00 223.86 44.00 223.86 44.00 143.93 C 44.00 64.00 44.00 64.00 46.13 64.00 C 49.23 64.00 54.43 67.52 56.08 70.73 C 57.25 73.01 57.55 83.91 57.78 132.75 C 58.06 192.00 58.06 192.00 53.03 192.00 C 48.00 192.00 48.00 192.00 48.00 209.50 C 48.00 227.00 48.00 227.00 71.34 227.00 C 94.67 227.00 94.67 227.00 96.84 211.75 C 99.62 192.17 99.61 192.00 96.56 192.00 C 94.12 192.00 94.12 192.00 93.78 125.75 C 93.45 61.50 93.38 59.31 91.34 53.29 C 85.84 37.06 76.87 29.10 61.65 26.96 C 58.27 26.48 52.91 26.45 49.75 26.88 C 44.00 27.67 44.00 27.67 44.00 24.83 C 44.00 23.20 43.47 22.03 42.75 22.06 C 42.06 22.09 33.85 23.81 24.50 25.88 C 7.50 29.64 7.50 29.64 7.25 130.34 C 6.99 231.04 6.99 231.04 9.25 230.54 C 10.49 230.27 16.45 229.13 22.50 228.01 Z  M 139.43 161.50 C 139.38 146.61 138.85 137.36 137.61 129.69 C 136.19 120.94 136.10 118.59 137.12 117.36 C 139.03 115.05 149.28 110.16 155.70 108.49 C 163.10 106.56 177.22 106.58 183.75 108.52 C 191.18 110.72 198.21 116.69 201.65 123.69 C 204.20 128.89 204.54 130.74 204.86 141.42 C 205.19 152.44 203.62 176.22 202.34 179.56 C 201.87 180.78 204.60 181.00 220.35 181.00 C 238.91 181.00 238.91 181.00 239.70 177.25 C 240.14 175.19 240.50 160.90 240.50 145.50 C 240.50 115.27 240.05 111.95 234.44 100.88 C 230.96 94.02 222.18 85.03 214.67 80.63 C 208.12 76.81 208.12 76.81 220.37 64.65 C 228.99 56.11 234.64 49.44 239.41 42.18 C 243.14 36.51 246.04 31.78 245.85 31.68 C 236.17 26.62 209.65 14.02 209.34 14.33 C 209.10 14.57 207.82 20.55 206.49 27.63 C 205.17 34.71 202.35 47.47 200.23 56.00 C 196.38 71.50 196.38 71.50 192.44 71.50 C 188.50 71.50 188.50 71.50 188.24 39.75 C 187.99 10.37 187.84 8.00 186.24 8.02 C 184.94 8.04 152.71 10.75 151.25 10.96 C 151.11 10.98 151.00 25.10 151.00 42.34 C 151.00 73.68 151.00 73.68 146.75 74.93 C 140.26 76.84 130.56 81.69 125.53 85.53 C 121.02 88.97 121.02 88.97 112.98 82.49 C 108.56 78.92 104.72 76.00 104.45 76.00 C 104.17 76.00 104.23 86.24 104.58 98.75 C 105.16 119.17 104.23 150.49 102.37 173.70 C 101.71 181.90 101.71 181.90 108.61 182.27 C 112.40 182.47 120.90 182.61 127.50 182.57 C 139.50 182.50 139.50 182.50 139.43 161.50 Z  M 147.97 49.82 C 148.02 48.54 131.52 37.08 122.50 32.13 C 113.49 27.19 95.21 19.46 94.41 20.26 C 94.18 20.49 97.55 28.06 101.90 37.09 C 106.25 46.12 111.99 59.49 114.65 66.81 C 119.50 80.11 119.50 80.11 133.72 65.31 C 141.54 57.16 147.96 50.19 147.97 49.82 Z "/>
</g>
</svg>