<?xml version="1.0" encoding="UTF-8" standalone="no"?>
<!DOCTYPE svg PUBLIC "-//W3C//DTD SVG 1.1//EN" "http://www.w3.org/Graphics/SVG/1.1/DTD/svg11.dtd" >
<svg xmlns="http://www.w3.org/2000/svg" xmlns:xlink="http://www.w3.org/1999/xlink" version="1.1" viewBox="0 0 256 256">
 <g >
 <path fill="currentColor"
d=" M 176.20 233.96 C 180.53 232.76 189.66 225.85 191.10 222.68 C 192.63 219.32 178.30 180.63 175.37 180.20 C 173.40 179.92 173.26 180.64 172.11 196.70 C 171.44 205.94 170.69 214.51 170.43 215.75 C 169.96 218.00 169.96 218.00 133.92 218.00 C 110.98 218.00 97.16 217.62 95.93 216.96 C 94.42 216.16 94.00 214.85 94.00 211.00 C 94.00 206.08 94.00 206.08 105.75 200.07 C 136.93 184.14 167.59 162.35 187.82 141.74 C 194.14 135.30 194.14 135.30 183.47 128.98 C 173.07 122.83 172.72 122.70 170.18 124.25 C 167.94 125.60 167.61 126.43 167.86 129.90 C 168.14 133.85 167.86 134.26 157.83 144.28 C 145.07 157.03 130.36 168.84 114.00 179.49 C 91.54 194.11 94.07 195.71 93.77 166.71 C 93.50 141.50 93.50 141.50 81.25 141.22 C 69.00 140.94 69.00 140.94 69.00 144.29 C 69.00 146.58 69.80 148.40 71.50 150.00 C 74.00 152.35 74.00 152.35 74.00 177.16 C 74.00 201.98 74.00 201.98 66.10 205.95 C 61.75 208.14 49.49 213.79 38.85 218.52 C 28.21 223.24 19.16 227.44 18.75 227.86 C 18.33 228.27 18.56 229.34 19.25 230.24 C 20.39 231.73 21.96 231.43 36.70 226.94 C 50.20 222.82 65.72 217.54 73.13 214.54 C 74.44 214.01 74.89 214.75 75.43 218.37 C 76.68 226.69 82.22 232.17 91.15 233.93 C 97.52 235.18 171.71 235.21 176.20 233.96 Z  M 34.98 206.17 C 44.12 200.60 49.99 189.65 52.43 173.60 C 55.13 155.87 55.15 155.27 52.99 154.71 C 51.49 154.32 50.34 155.36 47.92 159.29 C 42.86 167.50 30.13 183.87 22.91 191.44 C 16.23 198.45 16.23 198.45 20.73 204.30 C 25.86 210.96 26.89 211.10 34.98 206.17 Z  M 232.50 204.88 C 233.05 204.34 233.49 201.31 233.47 198.15 C 233.37 180.59 213.35 163.26 186.07 157.13 C 178.72 155.48 179.75 158.04 191.15 169.79 C 202.59 181.58 208.66 189.31 216.23 201.69 C 221.23 209.88 221.23 209.88 226.37 207.87 C 229.19 206.76 231.95 205.42 232.50 204.88 Z  M 134.74 149.86 C 140.23 146.72 140.23 146.72 139.61 142.14 C 137.94 129.96 125.41 122.32 103.75 120.27 C 98.47 119.77 98.00 119.89 98.00 121.74 C 98.00 122.91 99.58 124.94 101.75 126.56 C 109.21 132.12 120.17 142.36 124.27 147.62 C 126.58 150.58 128.65 153.00 128.87 153.00 C 129.08 153.00 131.73 151.59 134.74 149.86 Z  M 43.06 131.97 C 44.11 131.40 45.63 129.67 46.43 128.13 C 47.64 125.79 49.89 124.59 59.70 121.04 C 78.85 114.10 102.72 104.51 114.25 99.12 C 123.79 94.66 125.00 93.81 125.00 91.55 C 125.00 90.15 124.52 89.00 123.94 89.00 C 123.36 89.00 117.62 90.32 111.19 91.94 C 98.80 95.06 65.85 102.00 63.43 102.00 C 62.24 102.00 62.00 98.90 62.00 83.50 C 62.00 65.00 62.00 65.00 92.88 65.00 C 120.26 65.00 123.91 64.81 125.11 63.36 C 126.31 61.92 125.81 61.13 120.99 56.79 C 113.44 50.01 104.28 44.52 102.72 45.83 C 102.05 46.38 99.25 49.57 96.50 52.91 C 91.50 58.99 91.50 58.99 76.75 58.99 C 62.00 59.00 62.00 59.00 62.00 39.00 C 62.00 19.00 62.00 19.00 49.50 19.00 C 37.00 19.00 37.00 19.00 37.00 21.41 C 37.00 22.86 38.20 24.83 40.01 26.36 C 43.02 28.89 43.02 28.89 42.76 67.70 C 42.50 106.50 42.50 106.50 35.21 107.39 C 31.21 107.88 28.06 108.61 28.21 109.02 C 30.27 114.28 39.71 132.95 40.32 132.97 C 40.76 132.99 42.00 132.54 43.06 131.97 Z  M 221.34 113.50 C 225.84 111.62 231.65 106.57 233.56 102.88 C 234.95 100.19 234.68 99.21 227.71 81.78 C 221.76 66.89 220.02 63.44 218.31 63.20 C 216.33 62.91 216.19 63.47 215.58 74.20 C 214.14 99.62 217.66 97.00 185.02 97.00 C 159.93 97.00 156.08 96.80 154.92 95.41 C 154.03 94.34 153.59 90.57 153.55 83.84 C 153.50 73.87 153.50 73.87 165.50 69.88 C 178.03 65.72 199.20 55.76 214.41 46.86 C 223.33 41.65 223.33 41.65 219.77 38.58 C 217.81 36.88 213.67 33.30 210.58 30.61 C 205.12 25.86 204.91 25.77 202.98 27.52 C 201.89 28.50 201.00 30.55 201.00 32.07 C 201.00 35.25 197.04 39.07 184.06 48.40 C 175.39 54.64 155.31 67.00 153.86 67.00 C 153.39 67.00 153.00 55.98 153.00 42.50 C 153.00 18.00 153.00 18.00 141.00 18.00 C 129.83 18.00 129.00 18.13 129.00 19.92 C 129.00 20.98 130.08 23.13 131.39 24.69 C 133.78 27.53 133.78 27.53 134.26 62.02 C 134.58 84.65 135.15 97.81 135.94 100.32 C 137.71 105.99 143.39 111.75 148.87 113.44 C 155.82 115.57 216.25 115.63 221.34 113.50 Z "/>
</g>
</svg>