<?xml version="1.0" encoding="UTF-8" standalone="no"?>
<!DOCTYPE svg PUBLIC "-//W3C//DTD SVG 1.1//EN" "http://www.w3.org/Graphics/SVG/1.1/DTD/svg11.dtd" >
<svg xmlns="http://www.w3.org/2000/svg" xmlns:xlink="http://www.w3.org/1999/xlink" version="1.1" viewBox="0 0 256 256">
 <g >
 <path fill="currentColor"
d=" M 92.00 243.39 C 117.51 240.41 136.86 235.18 153.10 226.88 C 162.71 221.97 162.71 221.97 172.80 225.48 C 184.36 229.50 196.64 234.79 209.97 241.49 C 219.26 246.15 219.26 246.15 223.13 242.37 C 225.26 240.29 227.00 238.24 227.00 237.82 C 227.00 235.65 215.14 225.78 208.26 222.21 C 202.06 219.00 188.67 214.01 179.16 211.36 C 178.32 211.13 180.43 208.18 184.77 203.54 C 188.59 199.45 193.89 192.92 196.54 189.05 C 201.35 182.00 201.35 182.00 222.05 182.00 C 239.37 182.00 242.96 181.75 244.02 180.48 C 245.08 179.20 244.64 178.36 241.25 175.23 C 239.03 173.18 234.24 169.61 230.62 167.30 C 224.04 163.10 224.04 163.10 218.77 169.54 C 213.50 175.97 213.50 175.97 177.15 175.99 C 140.81 176.00 140.81 176.00 143.54 171.25 C 145.05 168.64 146.98 165.69 147.85 164.69 C 149.86 162.37 149.26 161.97 137.91 158.14 C 129.65 155.36 129.28 155.32 128.16 157.11 C 127.52 158.14 127.00 160.39 127.00 162.11 C 127.00 163.84 125.62 167.67 123.93 170.63 C 120.85 176.00 120.85 176.00 91.93 176.00 C 76.02 176.00 63.00 176.20 63.00 176.43 C 63.00 176.67 63.44 178.02 63.98 179.43 C 64.95 182.00 64.95 182.00 89.98 182.00 C 103.74 182.00 115.00 182.26 115.00 182.57 C 115.00 183.36 109.89 190.53 105.06 196.50 C 100.75 201.83 99.88 205.54 102.75 206.37 C 103.71 206.65 109.90 208.04 116.50 209.46 C 135.85 213.62 141.99 215.17 142.52 216.03 C 143.21 217.15 124.24 226.23 114.50 229.45 C 105.09 232.56 86.99 237.16 75.00 239.48 C 62.60 241.89 62.82 241.79 64.06 244.12 C 65.26 246.35 67.02 246.30 92.00 243.39 Z  M 29.10 228.81 C 47.73 207.67 59.03 181.69 63.51 149.65 C 65.49 135.49 66.95 103.49 66.98 73.75 C 67.00 50.00 67.00 50.00 153.46 50.00 C 237.88 50.00 239.95 49.95 240.96 48.07 C 241.86 46.39 240.97 45.32 234.06 39.79 C 229.69 36.29 224.33 32.43 222.14 31.20 C 218.16 28.96 218.16 28.96 212.02 36.48 C 205.87 44.00 205.87 44.00 176.20 44.00 C 146.54 44.00 146.54 44.00 150.27 41.46 C 153.87 39.01 154.00 38.73 154.00 33.00 C 154.00 27.82 153.62 26.63 150.96 23.60 C 147.18 19.30 141.48 16.49 130.23 13.40 C 119.76 10.52 120.28 10.54 119.52 12.93 C 119.07 14.35 120.16 16.15 123.60 19.68 C 127.94 24.14 140.00 41.45 140.00 43.22 C 140.00 43.65 123.57 44.00 103.48 44.00 C 66.96 44.00 66.96 44.00 65.82 41.50 C 64.71 39.06 64.43 39.00 53.84 39.00 C 43.16 39.00 43.00 39.03 43.00 41.33 C 43.00 42.60 44.17 44.74 45.61 46.08 C 48.21 48.50 48.21 48.50 47.82 86.25 C 47.48 119.00 47.22 124.21 45.85 125.58 C 44.98 126.45 36.14 131.29 26.20 136.34 C 8.14 145.53 8.14 145.53 14.82 153.70 C 18.49 158.20 21.95 161.76 22.50 161.62 C 23.05 161.47 24.26 159.77 25.18 157.84 C 26.65 154.78 45.79 135.45 46.58 136.24 C 47.21 136.87 43.91 161.53 41.90 171.26 C 37.20 193.98 30.76 211.21 20.56 228.37 C 16.34 235.45 14.62 239.22 15.30 239.90 C 16.80 241.40 20.95 238.07 29.10 228.81 Z  M 76.93 167.97 C 81.25 166.30 87.42 163.22 90.64 161.12 C 97.96 156.34 107.72 146.15 111.57 139.25 C 113.18 136.36 114.84 134.00 115.24 134.00 C 115.65 134.00 121.11 139.15 127.38 145.44 C 138.77 156.88 138.77 156.88 142.99 153.78 C 146.86 150.93 147.16 150.39 146.64 147.20 C 145.88 142.49 141.78 136.54 137.24 133.55 C 133.43 131.04 123.53 128.00 119.18 128.00 C 117.06 128.00 116.86 127.68 117.49 125.25 C 119.65 116.77 120.88 108.15 121.46 97.25 C 122.12 85.00 122.12 85.00 112.06 85.00 C 100.86 85.00 100.13 85.55 104.16 91.00 C 106.16 93.71 106.27 94.67 105.68 104.96 C 104.24 130.17 93.08 149.68 71.88 164.08 C 67.93 166.76 66.26 168.50 66.64 169.51 C 67.41 171.52 67.90 171.45 76.93 167.97 Z  M 162.76 158.56 C 173.43 154.17 182.67 147.52 188.59 139.99 C 191.18 136.70 193.61 134.00 193.99 134.00 C 195.04 134.00 205.79 145.54 212.89 154.30 C 218.86 161.67 219.32 162.02 221.35 160.70 C 222.53 159.93 224.51 158.68 225.75 157.91 C 227.45 156.86 228.00 155.58 228.00 152.71 C 228.00 143.26 218.33 135.06 202.50 131.07 C 199.75 130.37 196.97 129.65 196.33 129.46 C 195.46 129.21 195.53 127.90 196.60 124.35 C 197.75 120.52 202.00 90.41 202.00 86.07 C 202.00 85.38 198.46 85.00 192.00 85.00 C 182.95 85.00 182.00 85.17 182.00 86.85 C 182.00 87.86 182.96 89.55 184.12 90.60 C 186.07 92.35 186.20 93.19 185.65 101.00 C 183.97 124.82 174.74 142.01 157.25 153.85 C 153.81 156.17 151.00 158.25 151.00 158.46 C 151.00 159.89 152.41 162.00 153.36 161.98 C 153.99 161.97 158.22 160.43 162.76 158.56 Z  M 95.00 102.00 C 95.00 74.00 95.00 74.00 112.50 74.00 C 130.00 74.00 130.00 74.00 130.00 99.50 C 130.00 125.00 130.00 125.00 138.50 125.00 C 147.00 125.00 147.00 125.00 147.00 102.53 C 147.00 80.07 147.00 80.07 150.19 76.44 C 154.01 72.09 153.92 71.89 144.63 63.61 C 137.93 57.64 137.93 57.64 132.68 62.82 C 127.44 68.00 127.44 68.00 111.24 68.00 C 95.05 68.00 95.05 68.00 93.50 65.00 C 91.95 62.00 91.93 62.00 82.97 62.00 C 74.00 62.00 74.00 62.00 74.00 64.85 C 74.00 66.42 74.89 68.50 76.00 69.50 C 77.91 71.23 78.00 72.58 78.00 100.65 C 78.00 130.00 78.00 130.00 86.50 130.00 C 95.00 130.00 95.00 130.00 95.00 102.00 Z  M 175.00 102.00 C 175.00 74.00 175.00 74.00 193.00 74.00 C 211.00 74.00 211.00 74.00 211.00 99.50 C 211.00 125.00 211.00 125.00 219.50 125.00 C 228.00 125.00 228.00 125.00 228.00 102.06 C 228.00 88.59 228.39 78.87 228.95 78.53 C 229.48 78.20 230.83 76.65 231.95 75.07 C 233.99 72.20 233.99 72.20 225.99 64.99 C 218.00 57.79 218.00 57.79 213.41 62.89 C 208.81 68.00 208.81 68.00 192.36 68.00 C 175.91 68.00 175.91 68.00 174.20 65.01 C 172.50 62.02 172.47 62.01 163.25 62.01 C 154.21 62.00 154.00 62.05 154.00 64.35 C 154.00 65.63 154.90 67.50 156.00 68.50 C 157.91 70.23 158.00 71.58 158.00 100.15 C 158.00 130.00 158.00 130.00 166.50 130.00 C 175.00 130.00 175.00 130.00 175.00 102.00 Z  M 35.63 105.86 C 40.90 104.54 42.01 102.59 41.99 94.68 C 41.98 88.17 38.62 80.81 33.37 75.81 C 29.42 72.06 16.47 64.00 14.37 64.00 C 11.89 64.00 12.19 67.24 15.16 72.26 C 18.87 78.55 25.02 92.39 27.49 100.00 C 29.44 106.03 29.87 107.00 30.62 107.00 C 30.89 107.00 33.15 106.49 35.63 105.86 Z  M 152.00 205.98 C 150.07 205.53 142.48 204.46 135.12 203.61 C 127.76 202.77 121.60 201.93 121.42 201.75 C 121.25 201.58 124.57 197.07 128.80 191.72 C 136.50 182.01 136.50 182.01 157.81 182.00 C 174.59 182.00 178.96 182.27 178.38 183.25 C 175.65 187.84 165.37 200.38 161.86 203.39 C 157.37 207.24 157.36 207.24 152.00 205.98 Z "/>
</g>
</svg>