<?xml version="1.0" encoding="UTF-8" standalone="no"?>
<!DOCTYPE svg PUBLIC "-//W3C//DTD SVG 1.1//EN" "http://www.w3.org/Graphics/SVG/1.1/DTD/svg11.dtd" >
<svg xmlns="http://www.w3.org/2000/svg" xmlns:xlink="http://www.w3.org/1999/xlink" version="1.1" viewBox="0 0 256 256">
 <g >
 <path fill="currentColor"
d=" M 50.44 243.32 C 72.58 239.94 116.61 225.04 113.37 222.03 C 112.50 221.23 102.03 212.70 98.80 210.17 C 96.32 208.22 93.00 209.60 93.00 212.58 C 93.00 217.21 80.09 223.93 51.00 234.46 C 41.38 237.94 32.04 241.10 30.26 241.47 C 26.74 242.21 25.51 243.40 26.54 245.07 C 27.28 246.27 34.65 245.73 50.44 243.32 Z  M 208.93 240.57 C 212.52 236.87 212.61 234.39 209.34 229.40 C 206.96 225.77 193.32 219.44 182.80 217.09 C 174.34 215.20 144.21 212.46 143.18 213.48 C 141.66 215.01 145.67 217.26 160.12 222.98 C 169.13 226.54 182.80 232.66 190.50 236.56 C 198.20 240.47 204.75 243.74 205.05 243.83 C 205.36 243.92 207.10 242.46 208.93 240.57 Z  M 79.00 211.00 C 79.00 208.00 79.00 208.00 126.50 208.00 C 174.00 208.00 174.00 208.00 174.00 210.50 C 174.00 212.99 174.03 213.00 183.50 213.00 C 193.00 213.00 193.00 213.00 193.00 188.81 C 193.00 165.78 193.10 164.52 195.06 162.44 C 197.11 160.25 197.11 160.25 191.81 155.80 C 188.89 153.35 184.89 150.15 182.93 148.69 C 179.37 146.04 179.37 146.04 175.48 150.02 C 171.59 154.00 171.59 154.00 124.33 154.00 C 78.09 154.00 77.05 153.96 76.00 152.00 C 75.05 150.23 73.91 150.00 65.96 150.00 C 57.00 150.00 57.00 150.00 57.02 153.25 C 57.03 155.04 57.92 157.62 59.00 159.00 C 60.83 161.33 60.96 163.24 60.98 187.75 C 61.00 214.00 61.00 214.00 70.00 214.00 C 79.00 214.00 79.00 214.00 79.00 211.00 Z  M 61.00 145.50 C 61.00 144.18 69.00 144.00 127.00 144.00 C 185.00 144.00 193.00 144.18 193.00 145.50 C 193.00 146.72 194.67 147.00 202.00 147.00 C 211.00 147.00 211.00 147.00 211.00 137.57 C 211.00 128.14 211.00 128.14 214.18 125.87 C 217.37 123.60 217.37 123.60 209.45 116.30 C 205.10 112.29 201.15 109.00 200.68 109.00 C 200.20 109.00 197.98 110.57 195.73 112.50 C 191.64 116.00 191.64 116.00 125.89 116.00 C 61.01 116.00 60.13 115.97 59.50 114.00 C 58.93 112.19 57.99 112.00 49.82 112.00 C 40.78 112.00 40.78 112.00 41.50 115.75 C 41.90 117.81 42.42 125.69 42.66 133.25 C 43.11 147.00 43.11 147.00 52.05 147.00 C 59.34 147.00 61.00 146.72 61.00 145.50 Z  M 198.00 104.85 C 198.00 103.11 190.52 96.55 185.49 93.88 C 181.05 91.53 181.05 91.53 176.74 95.77 C 172.42 100.00 172.42 100.00 154.21 100.00 C 136.00 100.00 136.00 100.00 136.00 94.00 C 136.00 88.00 136.00 88.00 166.38 88.00 C 192.35 88.00 196.94 87.78 198.02 86.48 C 199.08 85.20 198.62 84.33 195.15 81.02 C 192.87 78.86 188.92 75.86 186.36 74.36 C 181.70 71.64 181.70 71.64 177.10 76.85 C 172.50 82.07 172.50 82.07 154.50 81.79 C 136.50 81.50 136.50 81.50 136.21 74.25 C 135.91 67.00 135.91 67.00 125.46 67.00 C 115.15 67.00 115.00 67.03 115.00 69.35 C 115.00 70.63 115.92 72.52 117.05 73.54 C 118.44 74.81 119.00 76.37 118.80 78.45 C 118.50 81.50 118.50 81.50 88.25 81.76 C 56.35 82.04 56.90 81.96 58.61 86.42 C 59.14 87.81 62.77 88.00 89.11 88.00 C 119.00 88.00 119.00 88.00 119.00 94.00 C 119.00 100.00 119.00 100.00 91.00 100.00 C 75.60 100.00 63.01 100.34 63.01 100.75 C 63.02 101.16 63.30 102.51 63.63 103.75 C 64.23 106.00 64.23 106.00 131.12 106.00 C 180.98 106.00 198.00 105.71 198.00 104.85 Z  M 46.00 81.35 C 54.53 79.39 66.45 76.29 72.50 74.46 C 83.18 71.24 104.65 62.75 106.29 61.11 C 106.73 60.67 103.27 57.52 98.59 54.12 C 91.70 49.12 89.60 48.06 87.54 48.58 C 85.56 49.08 85.00 49.85 85.00 52.06 C 85.00 54.28 84.07 55.54 80.75 57.82 C 70.57 64.81 47.98 74.19 27.25 80.04 C 19.62 82.20 17.83 83.48 19.75 85.42 C 20.86 86.55 28.65 85.34 46.00 81.35 Z  M 214.57 82.69 C 218.00 79.74 217.34 77.35 211.32 70.91 C 206.88 66.16 206.88 66.16 216.69 58.77 C 222.09 54.71 229.08 50.35 232.23 49.08 C 237.20 47.09 237.83 46.54 236.98 44.96 C 235.56 42.30 224.08 28.00 223.38 28.00 C 223.05 28.00 219.39 30.70 215.26 34.00 C 207.74 40.00 207.74 40.00 170.62 39.97 C 133.50 39.94 133.50 39.94 136.25 37.88 C 138.59 36.14 139.00 35.11 139.00 30.99 C 139.00 26.89 138.50 25.62 135.75 22.72 C 132.27 19.06 124.63 16.08 113.19 13.91 C 104.13 12.20 103.56 13.52 110.53 20.11 C 115.92 25.21 125.97 37.65 125.99 39.25 C 126.00 39.66 108.26 40.00 86.58 40.00 C 47.15 40.00 47.15 40.00 46.33 34.83 C 45.87 31.99 44.96 29.49 44.31 29.27 C 43.62 29.04 41.37 32.54 39.00 37.50 C 36.73 42.25 31.35 50.78 27.04 56.45 C 19.19 66.78 19.19 66.78 23.02 70.52 C 26.46 73.88 27.20 74.18 30.48 73.57 C 38.17 72.13 44.97 62.64 46.49 51.25 C 47.19 46.00 47.19 46.00 128.58 46.00 C 209.97 46.00 209.97 46.00 207.39 51.75 C 205.97 54.91 204.35 58.74 203.80 60.25 C 202.61 63.52 202.78 63.51 195.74 61.08 C 188.30 58.52 177.16 56.35 162.03 54.51 C 136.18 51.37 134.65 53.07 156.58 60.56 C 175.82 67.13 191.34 73.77 202.00 80.00 C 206.68 82.72 210.81 84.97 211.19 84.98 C 211.58 84.99 213.10 83.96 214.57 82.69 Z  M 79.00 197.00 C 79.00 192.00 79.00 192.00 126.50 192.00 C 174.00 192.00 174.00 192.00 174.00 197.00 C 174.00 202.00 174.00 202.00 126.50 202.00 C 79.00 202.00 79.00 202.00 79.00 197.00 Z  M 79.00 181.00 C 79.00 176.00 79.00 176.00 126.50 176.00 C 174.00 176.00 174.00 176.00 174.00 181.00 C 174.00 186.00 174.00 186.00 126.50 186.00 C 79.00 186.00 79.00 186.00 79.00 181.00 Z  M 79.00 165.00 C 79.00 160.00 79.00 160.00 126.50 160.00 C 174.00 160.00 174.00 160.00 174.00 165.00 C 174.00 170.00 174.00 170.00 126.50 170.00 C 79.00 170.00 79.00 170.00 79.00 165.00 Z  M 61.00 129.98 C 61.00 121.95 61.00 121.95 77.25 122.23 C 93.50 122.50 93.50 122.50 93.79 130.25 C 94.08 138.00 94.08 138.00 77.54 138.00 C 61.00 138.00 61.00 138.00 61.00 129.98 Z  M 111.00 130.00 C 111.00 122.00 111.00 122.00 127.00 122.00 C 143.00 122.00 143.00 122.00 143.00 130.00 C 143.00 138.00 143.00 138.00 127.00 138.00 C 111.00 138.00 111.00 138.00 111.00 130.00 Z  M 161.21 130.25 C 161.50 122.50 161.50 122.50 177.25 122.22 C 193.00 121.95 193.00 121.95 193.00 129.97 C 193.00 138.00 193.00 138.00 176.96 138.00 C 160.92 138.00 160.92 138.00 161.21 130.25 Z "/>
</g>
</svg>