<?xml version="1.0" encoding="UTF-8" standalone="no"?>
<!DOCTYPE svg PUBLIC "-//W3C//DTD SVG 1.1//EN" "http://www.w3.org/Graphics/SVG/1.1/DTD/svg11.dtd" >
<svg xmlns="http://www.w3.org/2000/svg" xmlns:xlink="http://www.w3.org/1999/xlink" version="1.1" viewBox="0 0 256 256">
 <g >
 <path fill="currentColor"
d=" M 38.43 242.86 C 69.61 235.12 91.63 214.50 96.99 188.03 C 98.71 179.50 98.71 179.50 127.36 179.23 C 156.00 178.97 156.00 178.97 156.00 210.98 C 156.00 243.00 156.00 243.00 165.50 243.00 C 175.00 243.00 175.00 243.00 175.00 211.00 C 175.00 179.00 175.00 179.00 207.38 179.00 C 234.50 179.00 239.95 178.76 240.96 177.54 C 241.63 176.74 241.90 175.65 241.57 175.12 C 240.78 173.84 225.65 162.19 220.33 158.76 C 216.16 156.08 216.16 156.08 209.34 164.04 C 202.52 172.00 202.52 172.00 109.17 172.00 C 15.82 172.00 15.82 172.00 17.71 175.25 C 19.61 178.50 19.61 178.50 48.40 178.77 C 77.18 179.03 77.18 179.03 76.51 184.27 C 75.45 192.55 74.06 197.03 70.40 204.00 C 62.74 218.61 52.42 228.06 34.25 237.14 C 28.61 239.96 24.00 242.39 24.00 242.55 C 24.00 242.71 24.27 243.55 24.60 244.41 C 25.26 246.13 25.25 246.13 38.43 242.86 Z  M 73.00 158.00 C 73.00 155.00 73.00 155.00 129.50 155.00 C 185.33 155.00 186.00 155.02 186.00 157.00 C 186.00 158.86 186.67 159.00 195.50 159.00 C 205.00 159.00 205.00 159.00 205.00 129.82 C 205.00 100.65 205.00 100.65 208.25 97.90 C 211.50 95.16 211.50 95.16 207.11 90.65 C 204.70 88.17 200.29 84.46 197.31 82.41 C 191.89 78.68 191.89 78.68 187.16 83.34 C 182.43 88.00 182.43 88.00 127.66 88.00 C 72.90 88.00 72.90 88.00 71.85 85.00 C 70.80 82.00 70.80 82.00 59.90 82.00 C 49.03 82.00 49.00 82.01 49.00 84.42 C 49.00 85.76 50.13 88.18 51.50 89.82 C 54.00 92.79 54.00 92.79 54.00 126.89 C 54.00 161.00 54.00 161.00 63.50 161.00 C 73.00 161.00 73.00 161.00 73.00 158.00 Z  M 26.16 89.87 C 37.59 81.02 54.15 63.38 61.47 52.25 C 64.27 48.00 64.27 48.00 97.51 48.00 C 126.19 48.00 130.93 47.79 132.03 46.46 C 133.62 44.54 130.79 41.37 120.26 33.29 C 112.07 27.01 112.95 26.86 105.50 35.91 C 100.50 41.99 100.50 41.99 84.67 41.99 C 75.96 42.00 68.99 41.66 69.18 41.25 C 69.36 40.84 71.65 36.35 74.26 31.27 C 76.87 26.19 79.00 21.69 78.99 21.27 C 78.99 20.85 73.99 18.75 67.88 16.62 C 58.81 13.45 56.62 13.00 55.90 14.12 C 54.73 15.98 54.83 17.06 56.44 19.97 C 57.63 22.12 57.55 23.07 55.83 27.42 C 50.10 41.97 33.52 70.82 22.45 85.49 C 19.55 89.34 17.39 92.83 17.65 93.24 C 18.62 94.81 20.98 93.87 26.16 89.87 Z  M 96.42 78.60 C 102.94 75.87 103.07 67.00 96.70 60.16 C 92.87 56.05 76.39 49.02 74.02 50.49 C 72.30 51.55 72.82 52.63 77.99 58.67 C 80.73 61.88 84.89 67.97 87.24 72.22 C 89.58 76.47 91.85 79.95 92.28 79.97 C 92.71 79.99 94.58 79.37 96.42 78.60 Z  M 192.87 76.89 C 198.53 74.92 199.48 70.20 195.56 63.52 C 192.57 58.41 187.60 54.88 178.73 51.54 C 170.84 48.58 170.13 48.50 169.37 50.49 C 169.02 51.40 170.63 54.02 173.49 57.20 C 176.08 60.08 180.47 65.93 183.26 70.21 C 186.05 74.50 188.64 78.00 189.02 78.00 C 189.39 78.00 191.13 77.50 192.87 76.89 Z  M 129.91 74.29 C 135.84 69.82 144.76 61.02 150.66 53.80 C 156.23 47.00 156.23 47.00 196.49 47.00 C 229.45 47.00 236.96 46.75 237.90 45.62 C 238.81 44.53 237.47 42.84 231.27 37.28 C 227.00 33.45 222.31 29.55 220.85 28.61 C 218.21 26.91 218.21 26.91 212.04 34.45 C 205.87 42.00 205.87 42.00 183.94 42.00 C 166.68 42.00 162.00 41.72 162.00 40.71 C 162.00 40.00 164.29 35.69 167.10 31.14 C 169.90 26.58 172.04 22.73 171.85 22.57 C 171.66 22.41 166.81 20.17 161.08 17.60 C 151.72 13.40 150.50 13.07 149.12 14.45 C 147.82 15.75 147.78 16.50 148.87 19.51 C 150.37 23.66 149.81 25.85 143.74 39.41 C 138.77 50.52 134.19 58.42 127.29 67.79 C 124.34 71.80 122.20 75.51 122.52 76.04 C 123.56 77.71 126.19 77.09 129.91 74.29 Z  M 73.00 135.98 C 73.00 123.96 73.00 123.96 96.75 124.23 C 120.50 124.50 120.50 124.50 120.78 136.25 C 121.06 148.00 121.06 148.00 97.03 148.00 C 73.00 148.00 73.00 148.00 73.00 135.98 Z  M 139.22 136.25 C 139.50 124.50 139.50 124.50 162.75 124.23 C 186.00 123.96 186.00 123.96 186.00 135.98 C 186.00 148.00 186.00 148.00 162.47 148.00 C 138.94 148.00 138.94 148.00 139.22 136.25 Z  M 73.00 105.48 C 73.00 92.96 73.00 92.96 96.75 93.23 C 120.50 93.50 120.50 93.50 120.78 105.75 C 121.06 118.00 121.06 118.00 97.03 118.00 C 73.00 118.00 73.00 118.00 73.00 105.48 Z  M 139.22 105.75 C 139.50 93.50 139.50 93.50 162.75 93.23 C 186.00 92.96 186.00 92.96 186.00 105.48 C 186.00 118.00 186.00 118.00 162.47 118.00 C 138.94 118.00 138.94 118.00 139.22 105.75 Z "/>
</g>
</svg>