<?xml version="1.0" encoding="UTF-8" standalone="no"?>
<!DOCTYPE svg PUBLIC "-//W3C//DTD SVG 1.1//EN" "http://www.w3.org/Graphics/SVG/1.1/DTD/svg11.dtd" >
<svg xmlns="http://www.w3.org/2000/svg" xmlns:xlink="http://www.w3.org/1999/xlink" version="1.1" viewBox="0 0 256 256">
 <g >
 <path fill="currentColor"
d=" M 212.97 238.25 C 215.61 236.19 218.83 232.96 220.13 231.07 C 222.50 227.65 222.50 227.65 223.00 136.51 C 223.50 45.38 223.50 45.38 227.24 42.09 C 230.99 38.80 230.99 38.80 227.74 35.03 C 225.96 32.95 221.65 28.88 218.18 25.98 C 211.85 20.70 211.85 20.70 205.65 26.85 C 199.45 33.00 199.45 33.00 125.17 33.00 C 50.90 33.00 50.90 33.00 49.44 29.50 C 47.97 26.00 47.97 26.00 37.49 26.00 C 27.00 26.00 27.00 26.00 27.00 28.91 C 27.00 30.92 27.93 32.61 30.00 34.35 C 33.00 36.87 33.00 36.87 33.00 138.44 C 33.00 240.00 33.00 240.00 42.00 240.00 C 51.00 240.00 51.00 240.00 51.00 139.50 C 51.00 39.00 51.00 39.00 128.00 39.00 C 205.00 39.00 205.00 39.00 205.00 129.00 C 205.00 178.50 204.66 218.99 204.25 218.98 C 203.84 218.97 195.40 218.30 185.50 217.51 C 175.60 216.71 166.94 216.04 166.25 216.03 C 165.56 216.01 165.01 216.79 165.02 217.75 C 165.04 219.00 171.06 222.66 186.27 230.65 C 197.95 236.78 207.65 241.84 207.84 241.90 C 208.03 241.95 210.34 240.31 212.97 238.25 Z  M 102.00 182.00 C 102.00 174.00 102.00 174.00 127.00 174.00 C 152.00 174.00 152.00 174.00 152.00 180.50 C 152.00 187.00 152.00 187.00 161.00 187.00 C 170.00 187.00 170.00 187.00 170.00 154.78 C 170.00 122.55 170.00 122.55 174.25 118.77 C 178.50 114.99 178.50 114.99 170.04 106.99 C 165.38 102.60 161.24 99.00 160.83 99.00 C 160.42 99.00 157.98 101.25 155.40 104.00 C 150.73 109.00 150.73 109.00 125.98 109.00 C 101.23 109.00 101.23 109.00 99.59 106.50 C 98.03 104.11 97.52 104.00 87.98 104.00 C 78.00 104.00 78.00 104.00 78.00 106.97 C 78.00 109.11 78.84 110.56 81.00 112.16 C 84.00 114.38 84.00 114.38 84.00 152.19 C 84.00 190.00 84.00 190.00 93.00 190.00 C 102.00 190.00 102.00 190.00 102.00 182.00 Z  M 192.11 76.37 C 193.29 74.95 192.97 74.31 189.62 71.42 C 187.51 69.59 182.48 65.82 178.45 63.03 C 171.12 57.96 171.12 57.96 165.52 64.98 C 159.91 72.00 159.91 72.00 112.46 72.00 C 62.10 72.00 63.85 71.84 65.61 76.42 C 66.15 77.84 72.62 78.00 128.48 78.00 C 184.84 78.00 190.88 77.84 192.11 76.37 Z  M 102.00 142.00 C 102.00 116.00 102.00 116.00 127.00 116.00 C 152.00 116.00 152.00 116.00 152.00 142.00 C 152.00 168.00 152.00 168.00 127.00 168.00 C 102.00 168.00 102.00 168.00 102.00 142.00 Z "/>
</g>
</svg>