<?xml version="1.0" encoding="UTF-8" standalone="no"?>
<!DOCTYPE svg PUBLIC "-//W3C//DTD SVG 1.1//EN" "http://www.w3.org/Graphics/SVG/1.1/DTD/svg11.dtd" >
<svg xmlns="http://www.w3.org/2000/svg" xmlns:xlink="http://www.w3.org/1999/xlink" version="1.1" viewBox="0 0 256 256">
 <g >
 <path fill="currentColor"
d=" M 91.06 173.25 C 91.13 102.25 91.40 97.75 94.54 116.72 C 96.25 127.11 97.15 128.75 101.61 129.59 C 104.65 130.16 105.60 129.86 107.85 127.60 C 110.09 125.35 110.48 124.14 110.38 119.65 C 110.31 116.68 109.32 112.25 108.13 109.55 C 106.96 106.91 106.00 104.58 106.00 104.37 C 106.00 104.17 108.94 104.00 112.53 104.00 C 117.63 104.00 119.20 104.36 119.68 105.62 C 120.54 107.84 116.88 156.99 114.85 170.66 C 113.72 178.27 113.72 178.27 111.86 175.89 C 108.86 172.02 100.25 154.06 97.88 146.72 C 95.16 138.27 93.41 138.44 93.75 147.11 C 94.21 159.23 98.91 176.89 105.23 190.30 C 109.38 199.10 109.38 199.10 106.65 207.49 C 105.15 212.10 101.46 220.88 98.46 226.99 C 92.99 238.14 92.26 240.42 93.86 241.41 C 94.73 241.95 112.91 221.35 116.35 215.92 C 118.24 212.93 118.24 212.93 123.93 218.35 C 132.98 226.98 146.24 232.60 167.73 236.91 C 180.52 239.48 203.95 241.45 205.33 240.07 C 206.02 239.38 205.76 237.34 204.53 233.72 C 201.87 225.89 202.97 220.07 208.19 214.41 C 212.60 209.62 212.87 206.24 208.74 207.41 C 207.51 207.76 198.62 208.32 189.00 208.66 C 169.42 209.35 154.42 208.07 145.24 204.91 C 139.18 202.83 129.00 197.12 129.00 195.80 C 129.00 195.37 130.10 192.20 131.45 188.76 C 134.36 181.32 135.18 178.22 138.57 161.91 C 140.67 151.82 141.33 144.84 142.12 124.50 C 143.00 101.76 143.26 99.32 145.04 97.53 C 146.99 95.57 147.00 95.60 147.00 102.78 C 147.00 110.00 147.00 110.00 154.50 110.00 C 162.00 110.00 162.00 110.00 162.00 138.96 C 162.00 167.91 162.00 167.91 154.75 168.21 C 147.50 168.50 147.50 168.50 147.21 176.75 C 146.92 185.00 146.92 185.00 174.96 185.00 C 203.00 185.00 203.00 185.00 203.00 176.50 C 203.00 168.00 203.00 168.00 194.98 168.00 C 186.97 168.00 186.97 168.00 187.23 139.25 C 187.50 110.50 187.50 110.50 195.75 110.21 C 204.00 109.92 204.00 109.92 204.00 101.46 C 204.00 93.00 204.00 93.00 195.50 93.00 C 187.00 93.00 187.00 93.00 187.00 66.03 C 187.00 35.20 185.74 38.49 199.24 34.06 C 202.95 32.84 206.18 31.51 206.44 31.10 C 206.84 30.45 200.55 24.39 188.74 14.07 C 184.99 10.78 184.99 10.78 181.20 14.20 C 179.12 16.08 175.41 18.98 172.96 20.64 C 166.65 24.93 148.97 34.31 148.36 33.70 C 147.58 32.91 150.90 26.98 154.79 22.22 C 156.71 19.87 158.11 17.81 157.89 17.64 C 157.41 17.25 136.21 10.00 135.57 10.00 C 135.32 10.00 133.85 12.25 132.31 15.00 C 129.50 20.00 129.50 20.00 116.75 20.00 C 104.00 20.00 104.00 20.00 104.00 28.50 C 104.00 37.00 104.00 37.00 114.64 37.00 C 125.28 37.00 125.28 37.00 124.71 42.75 C 124.03 49.72 118.09 68.65 113.25 79.25 C 109.87 86.68 109.58 87.00 106.36 87.00 C 103.00 87.00 103.00 87.00 103.00 93.72 C 103.00 100.44 103.00 100.44 97.00 94.50 C 91.00 88.56 91.00 88.56 91.00 74.83 C 91.00 61.09 91.00 61.09 97.75 60.80 C 104.50 60.50 104.50 60.50 104.79 52.25 C 105.08 44.00 105.08 44.00 98.04 44.00 C 91.00 44.00 91.00 44.00 91.00 27.50 C 91.00 11.00 91.00 11.00 78.52 11.00 C 66.05 11.00 66.05 11.00 65.77 27.25 C 65.50 43.50 65.50 43.50 56.75 43.79 C 48.00 44.08 48.00 44.08 48.00 52.54 C 48.00 61.00 48.00 61.00 57.00 61.00 C 66.00 61.00 66.00 61.00 66.00 68.00 C 66.00 75.00 66.00 75.00 60.07 75.00 C 54.14 75.00 54.14 75.00 53.61 80.25 C 53.32 83.14 52.85 94.95 52.56 106.50 C 52.28 118.05 51.37 133.35 50.54 140.50 C 48.48 158.40 45.25 181.19 44.49 183.16 C 43.39 186.03 45.71 186.09 47.61 183.24 C 48.62 181.73 53.17 173.09 57.72 164.02 C 66.00 147.55 66.00 147.55 66.00 195.27 C 66.00 243.00 66.00 243.00 78.50 243.00 C 91.00 243.00 91.00 243.00 91.06 173.25 Z  M 141.17 86.34 C 132.84 79.75 132.84 79.75 129.13 83.38 C 127.09 85.37 124.41 87.00 123.17 87.00 C 121.03 87.00 121.11 86.73 124.78 81.25 C 131.54 71.17 135.65 63.76 140.03 53.75 C 144.29 44.00 144.29 44.00 153.14 44.00 C 162.00 44.00 162.00 44.00 162.00 68.50 C 162.00 93.00 162.00 93.00 155.75 92.96 C 149.58 92.92 149.39 92.84 141.17 86.34 Z "/>
</g>
</svg>