<?xml version="1.0" encoding="UTF-8" standalone="no"?>
<!DOCTYPE svg PUBLIC "-//W3C//DTD SVG 1.1//EN" "http://www.w3.org/Graphics/SVG/1.1/DTD/svg11.dtd" >
<svg xmlns="http://www.w3.org/2000/svg" xmlns:xlink="http://www.w3.org/1999/xlink" version="1.1" viewBox="0 0 256 256">
 <g >
 <path fill="currentColor"
d=" M 23.00 236.14 C 36.36 226.21 52.01 209.10 65.23 189.99 C 66.91 187.57 66.98 187.55 68.23 189.46 C 68.93 190.54 71.30 195.71 73.51 200.95 C 78.21 212.13 80.52 214.06 86.32 211.64 C 92.01 209.26 98.00 199.85 98.00 193.30 C 97.99 188.34 95.93 185.23 86.08 175.25 C 77.92 166.99 77.92 166.99 82.40 155.75 C 89.98 136.71 99.33 101.86 101.60 84.17 C 102.21 79.35 102.65 78.61 106.26 76.34 C 110.24 73.83 110.24 73.83 106.40 69.90 C 102.28 65.68 84.82 56.38 83.05 57.47 C 82.47 57.82 81.97 60.00 81.93 62.31 C 81.89 64.61 81.55 68.53 81.18 71.00 C 80.50 75.50 80.50 75.50 72.16 76.00 C 63.82 76.50 63.82 76.50 64.39 72.97 C 65.72 64.64 68.88 38.01 69.18 32.57 C 69.50 26.65 69.50 26.65 59.00 21.86 C 48.50 17.07 48.50 17.07 47.31 34.28 C 46.20 50.23 43.24 77.08 42.50 77.82 C 42.33 78.00 34.47 78.41 25.04 78.73 C 7.90 79.31 7.90 79.31 11.67 83.18 C 15.45 87.05 15.45 87.05 28.28 86.37 C 41.11 85.69 41.11 85.69 40.61 88.10 C 40.33 89.42 39.15 95.14 37.99 100.81 C 35.42 113.38 29.75 130.07 22.46 146.54 C 16.45 160.12 15.62 165.19 19.09 167.05 C 23.43 169.37 32.05 162.48 36.54 153.11 C 37.62 150.86 38.74 149.02 39.02 149.01 C 39.80 148.99 52.05 163.51 55.21 168.18 C 57.93 172.19 57.93 172.19 54.07 179.85 C 45.09 197.68 28.69 219.23 10.78 236.71 C 2.47 244.83 1.52 246.10 2.82 247.40 C 4.12 248.70 4.96 248.45 9.90 245.29 C 12.98 243.33 18.88 239.21 23.00 236.14 Z  M 161.09 240.01 C 171.33 233.94 179.34 225.69 180.83 219.71 C 181.50 216.99 181.66 205.85 181.28 188.25 C 180.69 161.00 180.69 161.00 203.35 161.00 C 215.81 161.00 226.00 160.63 226.00 160.18 C 226.00 157.47 210.98 143.00 208.17 143.00 C 207.63 143.00 204.86 145.70 202.00 149.00 C 196.80 155.00 196.80 155.00 149.65 155.04 C 102.50 155.08 102.50 155.08 106.21 158.36 C 109.92 161.65 109.92 161.65 134.39 161.19 C 163.25 160.66 160.44 157.73 159.76 187.72 C 159.26 209.70 158.51 213.17 153.68 215.67 C 150.18 217.47 135.47 217.99 125.75 216.65 C 117.69 215.54 117.91 217.92 126.25 222.11 C 134.88 226.45 139.57 230.38 142.66 235.84 C 147.50 244.39 148.01 245.00 150.36 245.00 C 151.64 245.00 156.47 242.75 161.09 240.01 Z  M 103.23 149.82 C 111.42 145.56 120.40 137.72 122.04 133.38 C 122.95 131.00 122.95 131.00 170.98 131.00 C 197.39 131.00 219.00 131.15 219.00 131.32 C 219.00 131.50 217.89 134.90 216.54 138.87 C 213.50 147.83 214.46 148.61 222.71 143.86 C 225.90 142.04 232.55 138.91 237.50 136.91 C 246.50 133.29 246.50 133.29 246.50 129.39 C 246.50 125.65 246.14 125.23 237.00 118.29 C 231.78 114.32 227.05 111.06 226.50 111.04 C 225.95 111.02 223.93 113.93 222.00 117.50 C 218.50 124.00 218.50 124.00 168.75 124.00 C 137.88 124.00 119.00 123.64 119.00 123.05 C 119.00 121.87 105.33 110.00 103.97 110.00 C 103.44 110.00 103.00 112.17 103.00 114.82 C 103.00 121.55 101.16 130.78 98.98 134.97 C 97.97 136.91 95.09 140.72 92.57 143.42 C 87.89 148.47 87.09 150.69 89.20 152.80 C 91.30 154.90 94.97 154.12 103.23 149.82 Z  M 134.41 112.52 C 136.18 110.76 138.06 107.78 138.60 105.91 C 139.57 102.50 139.57 102.50 177.79 102.24 C 216.00 101.98 216.00 101.98 216.04 89.74 C 216.08 77.59 216.10 77.47 219.10 74.00 C 222.12 70.50 222.12 70.50 216.76 65.50 C 213.82 62.75 209.79 59.64 207.81 58.58 C 204.21 56.66 204.21 56.66 198.50 62.83 C 192.78 69.00 192.78 69.00 167.87 69.00 C 142.97 69.00 142.96 69.00 138.97 66.48 C 134.82 63.86 127.50 60.77 122.73 59.62 C 119.97 58.95 119.97 58.95 120.23 87.20 C 120.50 115.44 120.50 115.44 122.87 116.63 C 126.04 118.20 130.22 116.71 134.41 112.52 Z  M 243.18 51.90 C 245.07 50.89 245.04 50.74 242.42 47.18 C 238.84 42.33 231.20 34.35 227.73 31.84 C 224.97 29.84 224.97 29.84 215.94 37.95 C 206.91 46.05 206.91 46.05 192.20 45.78 C 177.50 45.50 177.50 45.50 177.21 37.59 C 176.92 29.91 177.00 29.60 180.05 26.44 C 183.20 23.20 183.20 23.20 178.84 20.65 C 174.07 17.85 163.38 13.64 158.25 12.54 C 155.00 11.84 155.00 11.84 155.00 29.08 C 155.00 46.32 155.00 46.32 123.25 45.65 C 91.50 44.99 91.50 44.99 96.00 49.24 C 100.50 53.50 100.50 53.50 170.86 53.22 C 217.31 53.04 241.89 52.59 243.18 51.90 Z  M 52.78 149.72 C 46.89 145.75 42.25 142.05 42.47 141.50 C 42.69 140.95 45.17 134.92 47.98 128.09 C 52.44 117.25 57.34 102.20 60.97 88.25 C 62.08 84.00 62.08 84.00 70.87 84.00 C 79.66 84.00 79.66 84.00 78.41 94.29 C 76.73 108.18 75.39 115.39 72.01 129.00 C 69.37 139.60 64.19 157.05 63.71 156.97 C 63.59 156.95 58.68 153.69 52.78 149.72 Z  M 139.00 85.50 C 139.00 75.00 139.00 75.00 167.50 75.00 C 196.00 75.00 196.00 75.00 196.00 85.50 C 196.00 96.00 196.00 96.00 167.50 96.00 C 139.00 96.00 139.00 96.00 139.00 85.50 Z "/>
</g>
</svg>