<?xml version="1.0" encoding="UTF-8" standalone="no"?>
<!DOCTYPE svg PUBLIC "-//W3C//DTD SVG 1.1//EN" "http://www.w3.org/Graphics/SVG/1.1/DTD/svg11.dtd" >
<svg xmlns="http://www.w3.org/2000/svg" xmlns:xlink="http://www.w3.org/1999/xlink" version="1.1" viewBox="0 0 256 256">
 <g >
 <path fill="currentColor"
d=" M 81.34 247.35 C 97.92 244.14 109.36 238.58 119.09 229.00 C 128.60 219.64 134.00 207.13 134.00 194.45 C 134.00 190.00 134.00 190.00 153.50 190.00 C 173.00 190.00 173.00 190.00 173.00 210.58 C 173.00 231.15 173.00 231.15 175.82 233.98 C 179.43 237.59 186.31 238.52 209.00 238.46 C 227.53 238.41 234.77 236.89 240.06 231.94 C 244.13 228.14 243.97 224.34 239.50 219.00 C 236.19 215.04 235.99 214.36 235.76 206.66 C 235.63 202.17 235.65 195.58 235.81 192.01 C 235.98 187.84 235.74 185.87 235.12 186.51 C 234.59 187.05 231.92 194.70 229.17 203.50 C 224.19 219.50 224.19 219.50 219.84 221.44 C 214.63 223.76 201.72 224.17 195.25 222.21 C 191.00 220.92 191.00 220.92 191.00 206.53 C 191.00 192.14 191.00 192.14 194.09 189.73 C 197.02 187.43 197.09 187.23 195.43 185.57 C 193.08 183.22 187.04 179.46 182.69 177.65 C 179.15 176.16 179.14 176.17 176.82 179.57 C 174.50 182.99 174.50 182.99 155.83 182.99 C 137.16 183.00 137.16 183.00 128.86 179.50 C 124.30 177.57 120.04 176.00 119.41 176.00 C 118.65 176.00 118.02 179.83 117.56 187.25 C 116.34 206.91 113.73 215.60 106.32 224.74 C 99.72 232.88 82.40 243.28 69.82 246.64 C 56.01 250.34 63.49 250.80 81.34 247.35 Z  M 47.27 244.37 C 63.69 236.12 75.47 226.76 84.64 214.65 C 94.48 201.66 97.70 190.35 98.70 165.21 C 99.31 149.93 99.31 149.93 102.08 152.58 C 104.79 155.17 104.99 155.21 111.26 154.12 C 114.78 153.50 119.93 153.00 122.69 153.00 C 127.72 153.00 127.72 153.00 128.25 162.18 C 128.64 169.11 129.17 171.65 130.41 172.56 C 135.45 176.24 199.89 174.92 212.73 170.87 C 216.01 169.84 220.00 165.38 220.00 162.75 C 220.00 161.96 219.04 160.45 217.87 159.40 C 214.37 156.27 212.00 149.47 212.00 142.53 C 212.00 136.23 212.00 136.23 216.42 135.56 C 225.37 134.22 224.90 129.43 215.02 121.44 C 211.31 118.45 207.87 116.00 207.38 116.00 C 206.88 116.00 205.36 117.80 204.00 120.00 C 201.53 124.00 201.53 124.00 175.21 124.00 C 148.90 124.00 148.90 124.00 149.20 118.75 C 149.50 113.50 149.50 113.50 175.97 113.23 C 190.52 113.09 202.84 112.56 203.34 112.06 C 204.37 111.03 197.15 101.99 193.30 99.46 C 190.94 97.92 190.69 98.01 185.32 102.43 C 179.77 107.00 179.77 107.00 164.39 107.00 C 155.92 107.00 149.00 106.78 149.00 106.50 C 149.00 106.23 150.63 104.20 152.62 102.00 C 156.24 98.00 156.24 98.00 152.37 96.41 C 143.73 92.86 139.71 90.96 140.10 90.60 C 140.32 90.39 158.05 89.69 179.50 89.05 C 200.95 88.40 219.51 87.62 220.75 87.33 C 221.99 87.03 223.00 86.26 223.00 85.62 C 223.00 84.98 219.22 80.70 214.61 76.11 C 206.21 67.76 206.21 67.76 196.36 70.31 C 170.52 77.00 134.45 81.75 91.49 84.13 C 69.47 85.35 69.47 85.35 65.39 82.40 C 63.15 80.78 59.52 78.64 57.33 77.65 C 53.34 75.85 53.34 75.85 62.98 66.18 C 68.40 60.73 74.56 53.33 77.06 49.26 C 81.42 42.15 81.58 42.02 85.65 42.01 C 89.15 42.00 90.28 42.55 92.93 45.57 C 97.17 50.40 100.07 55.24 103.38 63.00 C 106.11 69.41 108.53 73.00 110.12 73.00 C 111.39 73.00 117.96 66.95 119.19 64.64 C 119.81 63.49 120.65 61.04 121.07 59.19 C 122.11 54.58 118.79 51.10 108.50 46.01 C 100.50 42.05 100.50 42.05 120.28 42.03 C 136.84 42.00 140.16 41.76 140.63 40.51 C 141.35 38.64 137.70 34.27 130.13 27.95 C 124.23 23.02 124.23 23.02 116.73 29.01 C 109.22 35.00 109.22 35.00 97.61 35.00 C 91.23 35.00 86.00 34.77 86.00 34.48 C 86.00 32.93 91.42 26.11 93.56 24.97 C 94.93 24.24 95.90 23.19 95.71 22.64 C 95.37 21.61 76.02 10.56 75.61 11.16 C 75.49 11.35 74.11 14.88 72.56 19.00 C 68.14 30.72 59.71 48.05 54.58 55.98 C 49.34 64.08 34.46 79.88 22.73 89.79 C 17.33 94.35 15.27 96.67 16.00 97.40 C 17.46 98.86 26.20 94.02 48.79 79.22 C 51.22 77.63 51.22 77.63 50.70 123.56 C 50.17 172.00 49.72 177.35 44.96 192.00 C 40.30 206.32 29.18 225.37 17.07 239.77 C 4.47 254.75 17.26 247.49 36.83 228.56 C 50.19 215.64 58.76 202.92 63.54 188.91 C 68.52 174.31 69.15 168.07 69.70 128.25 C 70.22 91.00 70.22 91.00 101.11 91.00 C 132.00 91.00 132.00 91.00 132.00 107.50 C 132.00 124.00 132.00 124.00 115.12 124.00 C 98.23 124.00 98.23 124.00 90.37 119.51 C 86.04 117.04 82.21 115.01 81.86 115.01 C 81.50 115.00 81.00 130.19 80.73 148.75 C 80.19 186.88 79.46 191.82 72.08 207.57 C 67.25 217.87 63.38 223.54 56.15 230.91 C 50.84 236.32 39.44 245.35 36.83 246.22 C 35.77 246.58 36.43 249.00 37.58 249.00 C 37.83 249.00 42.19 246.91 47.27 244.37 Z  M 129.28 74.91 C 144.44 66.32 157.57 55.42 166.12 44.34 C 171.37 37.54 173.76 37.32 178.09 43.25 C 179.80 45.59 183.41 51.91 186.13 57.29 C 188.84 62.68 191.68 67.32 192.44 67.62 C 196.84 69.30 204.00 60.62 204.00 53.59 C 204.00 49.31 200.44 46.28 190.32 41.97 C 183.50 39.05 183.50 39.05 206.13 39.03 C 234.73 38.99 234.41 39.21 223.19 27.77 C 215.13 19.54 215.13 19.54 208.16 26.27 C 201.19 33.00 201.19 33.00 188.10 33.00 C 180.77 33.00 175.00 32.59 175.00 32.08 C 175.00 31.57 176.80 29.62 179.00 27.73 C 181.20 25.85 182.99 23.90 182.98 23.40 C 182.95 21.86 164.58 11.77 164.15 13.06 C 163.93 13.70 160.45 20.81 156.40 28.86 C 148.24 45.10 139.93 56.95 127.96 69.42 C 117.15 80.68 117.38 81.65 129.28 74.91 Z  M 147.25 160.42 C 146.56 160.10 146.00 158.28 146.00 156.39 C 146.00 154.49 146.56 152.74 147.25 152.51 C 147.94 152.27 157.42 151.44 168.33 150.66 C 179.73 149.84 188.64 148.76 189.29 148.11 C 190.64 146.76 183.66 139.21 178.50 136.43 C 175.23 134.67 175.23 134.67 169.08 140.01 C 162.93 145.36 162.93 145.36 154.46 145.81 C 146.31 146.23 146.00 146.17 146.00 144.08 C 146.00 142.89 146.98 140.59 148.18 138.97 C 149.38 137.35 150.16 135.86 149.93 135.66 C 149.69 135.46 147.25 133.99 144.50 132.40 C 139.50 129.50 139.50 129.50 168.90 129.23 C 185.07 129.09 198.49 129.15 198.71 129.37 C 198.93 129.60 197.29 132.76 195.06 136.41 C 191.39 142.40 190.07 146.00 191.55 146.00 C 191.85 146.00 195.37 144.20 199.38 142.00 C 210.01 136.16 210.50 136.41 206.78 145.75 C 202.59 156.29 200.64 158.16 192.80 159.15 C 184.59 160.17 148.87 161.17 147.25 160.42 Z  M 99.00 139.14 C 99.00 129.00 99.00 129.00 113.50 129.00 C 128.00 129.00 128.00 129.00 128.00 137.93 C 128.00 145.58 127.75 146.94 126.25 147.38 C 125.29 147.66 118.76 148.20 111.75 148.58 C 99.00 149.27 99.00 149.27 99.00 139.14 Z "/>
</g>
</svg>