<?xml version="1.0" encoding="UTF-8" standalone="no"?>
<!DOCTYPE svg PUBLIC "-//W3C//DTD SVG 1.1//EN" "http://www.w3.org/Graphics/SVG/1.1/DTD/svg11.dtd" >
<svg xmlns="http://www.w3.org/2000/svg" xmlns:xlink="http://www.w3.org/1999/xlink" version="1.1" viewBox="0 0 256 256">
 <g >
 <path fill="currentColor"
d=" M 137.00 197.00 C 137.00 144.00 137.00 144.00 134.38 144.00 C 132.19 144.00 131.85 143.64 132.26 141.75 C 137.88 116.23 140.00 100.94 140.00 86.04 C 140.00 77.00 140.00 77.00 117.09 77.00 C 94.18 77.00 94.18 77.00 93.58 85.75 C 93.00 94.40 90.50 118.75 89.40 126.50 C 88.84 130.50 88.84 130.50 90.85 128.01 C 91.96 126.65 93.16 125.83 93.52 126.19 C 94.69 127.36 92.99 130.77 90.97 131.30 C 88.68 131.90 88.69 131.88 86.61 143.16 C 85.73 147.92 84.74 152.50 84.42 153.34 C 83.96 154.55 84.76 154.94 88.17 155.19 C 92.50 155.50 92.50 155.50 92.76 193.75 C 92.91 214.79 93.36 232.00 93.76 231.99 C 94.17 231.99 95.28 230.61 96.24 228.93 C 97.20 227.25 98.43 226.15 98.99 226.49 C 100.36 227.34 97.54 232.64 94.99 234.01 C 93.28 234.92 93.00 236.11 93.00 242.54 C 93.00 250.00 93.00 250.00 115.00 250.00 C 137.00 250.00 137.00 250.00 137.00 197.00 Z  M 242.00 219.52 C 242.00 184.71 243.38 187.85 230.83 193.98 C 224.50 197.08 224.50 197.08 229.29 192.59 C 232.26 189.80 234.66 188.32 235.59 188.67 C 236.44 189.00 238.18 188.24 239.55 186.95 C 242.00 184.65 242.00 184.65 242.00 150.33 C 242.00 116.67 242.04 116.00 244.00 116.00 C 245.93 116.00 246.00 115.33 246.00 96.50 C 246.00 77.00 246.00 77.00 231.06 77.00 C 221.38 77.00 215.88 77.38 215.45 78.09 C 214.96 78.87 214.47 78.87 213.69 78.09 C 212.32 76.72 198.34 76.65 197.50 78.00 C 197.16 78.55 196.43 79.00 195.88 79.00 C 195.33 79.00 195.16 78.55 195.50 78.00 C 195.91 77.34 187.51 77.00 171.06 77.00 C 146.00 77.00 146.00 77.00 146.00 96.50 C 146.00 116.00 146.00 116.00 172.00 116.00 C 198.00 116.00 198.00 116.00 198.00 164.50 C 198.00 206.94 197.81 213.00 196.50 213.00 C 195.22 213.00 195.00 215.72 195.00 231.50 C 195.00 250.00 195.00 250.00 218.50 250.00 C 242.00 250.00 242.00 250.00 242.00 219.52 Z  M 190.00 231.00 C 190.00 225.31 189.64 222.98 188.75 222.92 C 187.75 222.86 187.75 222.74 188.75 222.34 C 189.73 221.94 190.00 211.01 190.00 172.40 C 190.00 122.96 190.00 122.96 167.75 123.23 C 145.50 123.50 145.50 123.50 145.24 154.11 C 144.97 184.73 144.97 184.73 147.59 184.23 C 149.74 183.82 150.13 184.06 149.83 185.61 C 149.62 186.70 148.63 187.50 147.48 187.50 C 145.56 187.50 145.49 188.33 145.23 213.25 C 144.97 239.00 144.97 239.00 167.48 239.00 C 190.00 239.00 190.00 239.00 190.00 231.00 Z  M 81.99 129.00 C 81.99 21.00 81.99 21.00 44.49 21.00 C 7.00 21.00 7.00 21.00 7.02 127.54 C 7.04 196.60 7.39 233.88 8.02 233.49 C 9.75 232.42 11.22 234.03 9.93 235.59 C 8.92 236.80 13.96 237.00 45.37 237.00 C 81.98 237.00 81.98 237.00 81.99 129.00 Z  M 158.00 65.50 C 158.00 61.00 158.00 61.00 167.44 61.00 C 176.89 61.00 176.89 61.00 177.19 65.25 C 177.50 69.50 177.50 69.50 191.50 69.71 C 204.89 69.91 205.58 69.83 207.23 67.71 C 208.91 65.56 208.96 65.55 208.98 67.54 C 209.01 70.23 212.65 70.52 214.03 67.94 C 215.37 65.45 216.63 65.47 217.29 68.00 C 217.74 69.72 218.65 70.00 223.91 70.00 C 230.00 70.00 230.00 70.00 230.00 65.50 C 230.00 61.00 230.00 61.00 239.00 61.00 C 248.00 61.00 248.00 61.00 248.00 39.50 C 248.00 18.00 248.00 18.00 239.00 18.00 C 230.00 18.00 230.00 18.00 230.00 13.00 C 230.00 8.00 230.00 8.00 203.50 8.00 C 177.00 8.00 177.00 8.00 177.00 13.04 C 177.00 18.08 177.00 18.08 167.75 17.79 C 158.50 17.50 158.50 17.50 158.20 12.75 C 157.89 8.00 157.89 8.00 132.00 8.00 C 106.11 8.00 106.11 8.00 105.80 12.75 C 105.50 17.50 105.50 17.50 96.75 17.79 C 88.00 18.08 88.00 18.08 88.00 39.54 C 88.00 61.00 88.00 61.00 97.00 61.00 C 106.00 61.00 106.00 61.00 106.00 65.50 C 106.00 70.00 106.00 70.00 132.00 70.00 C 158.00 70.00 158.00 70.00 158.00 65.50 Z  M 104.10 237.56 C 102.65 234.00 103.04 225.81 104.68 225.27 C 106.34 224.72 107.48 233.38 106.27 237.32 C 105.29 240.50 105.29 240.50 104.10 237.56 Z  M 96.41 137.98 C 97.69 128.34 102.06 123.48 101.95 131.81 C 101.90 136.00 99.19 142.13 97.10 142.81 C 95.97 143.18 95.84 142.27 96.41 137.98 Z  M 122.49 89.98 C 122.14 89.42 121.44 89.23 120.93 89.54 C 119.41 90.49 119.88 87.35 121.46 86.04 C 123.44 84.39 125.01 85.58 124.77 88.55 C 124.56 91.10 123.57 91.73 122.49 89.98 Z  M 211.69 219.36 C 210.65 218.32 211.97 217.00 214.06 217.00 C 215.13 217.00 216.00 217.68 216.00 218.50 C 216.00 219.98 212.93 220.60 211.69 219.36 Z  M 202.60 125.41 C 201.85 123.44 202.66 122.00 204.52 122.00 C 206.11 122.00 208.27 125.40 207.30 126.37 C 206.09 127.58 203.21 126.99 202.60 125.41 Z  M 161.61 94.28 C 161.22 93.88 159.38 93.69 157.54 93.85 C 154.80 94.08 154.05 93.72 153.47 91.90 C 152.96 90.29 153.28 89.27 154.61 88.30 C 157.28 86.34 159.07 87.04 161.21 90.87 C 162.99 94.05 163.20 95.87 161.61 94.28 Z  M 164.00 223.50 C 164.68 222.68 166.20 222.01 167.37 222.03 C 169.46 222.06 169.46 222.09 167.56 223.53 C 164.86 225.57 162.30 225.55 164.00 223.50 Z  M 164.23 181.25 C 164.50 153.50 164.50 153.50 167.75 153.19 C 171.00 152.87 171.00 152.87 171.00 180.94 C 171.00 209.00 171.00 209.00 167.48 209.00 C 163.97 209.00 163.97 209.00 164.23 181.25 Z  M 176.25 195.34 C 174.66 194.70 174.63 191.77 176.20 190.20 C 176.86 189.54 178.44 189.00 179.70 189.00 C 181.57 189.00 182.00 189.54 182.00 191.89 C 182.00 195.34 179.68 196.72 176.25 195.34 Z  M 149.67 128.34 C 148.46 127.13 148.97 125.23 150.67 124.57 C 153.24 123.59 154.27 125.44 152.19 127.33 C 151.17 128.25 150.04 128.70 149.67 128.34 Z  M 39.00 128.50 C 39.00 68.00 39.00 68.00 44.00 68.00 C 49.00 68.00 49.00 68.00 49.00 128.50 C 49.00 189.00 49.00 189.00 44.00 189.00 C 39.00 189.00 39.00 189.00 39.00 128.50 Z  M 70.41 186.63 C 69.66 184.68 70.68 183.00 72.63 183.00 C 73.61 183.00 74.03 183.76 73.82 185.17 C 73.43 187.81 71.23 188.75 70.41 186.63 Z  M 72.57 77.11 C 71.66 75.64 74.91 73.51 76.16 74.76 C 76.74 75.34 76.92 76.31 76.55 76.91 C 75.74 78.22 73.33 78.34 72.57 77.11 Z  M 24.00 72.00 C 25.06 70.02 27.06 69.39 28.32 70.65 C 29.10 71.44 26.02 73.92 24.21 73.97 C 23.24 73.99 23.19 73.52 24.00 72.00 Z  M 41.14 44.67 C 39.47 42.65 42.00 39.72 45.06 40.16 C 46.81 40.40 47.58 41.21 47.80 43.03 C 48.05 45.19 47.66 45.60 45.17 45.79 C 43.57 45.91 41.76 45.41 41.14 44.67 Z  M 117.53 35.05 C 117.21 34.53 117.83 33.63 118.91 33.05 C 121.34 31.75 122.00 31.73 122.00 32.96 C 122.00 34.42 118.23 36.19 117.53 35.05 Z  M 169.44 23.56 C 167.59 22.19 167.58 22.04 169.25 20.35 C 170.87 18.70 171.12 18.69 172.64 20.21 C 174.22 21.79 173.94 25.00 172.22 25.00 C 171.76 25.00 170.51 24.35 169.44 23.56 Z "/>
</g>
</svg>