<?xml version="1.0" encoding="UTF-8" standalone="no"?>
<!DOCTYPE svg PUBLIC "-//W3C//DTD SVG 1.1//EN" "http://www.w3.org/Graphics/SVG/1.1/DTD/svg11.dtd" >
<svg xmlns="http://www.w3.org/2000/svg" xmlns:xlink="http://www.w3.org/1999/xlink" version="1.1" viewBox="0 0 256 256">
 <g >
 <path fill="currentColor"
d=" M 83.00 240.62 C 83.00 233.78 82.62 230.93 81.59 230.08 C 80.00 228.76 78.42 217.74 79.56 215.90 C 80.10 215.03 80.67 215.20 81.65 216.54 C 82.79 218.09 83.00 210.68 83.00 169.16 C 83.00 119.94 83.00 119.94 87.00 114.88 C 91.00 109.82 91.00 109.82 90.96 80.16 C 90.91 50.50 90.91 50.50 86.96 55.00 C 83.01 59.50 83.01 59.50 83.00 33.75 C 83.00 8.00 83.00 8.00 58.00 8.00 C 33.00 8.00 33.00 8.00 33.00 53.78 C 33.00 99.56 33.00 99.56 30.00 100.69 C 27.00 101.83 27.00 101.83 27.00 70.41 C 27.00 39.00 27.00 39.00 17.00 39.00 C 7.00 39.00 7.00 39.00 7.00 133.50 C 7.00 228.00 7.00 228.00 17.00 228.00 C 27.00 228.00 27.00 228.00 27.00 192.60 C 27.00 157.20 27.00 157.20 30.00 156.15 C 33.00 155.10 33.00 155.10 33.00 202.55 C 33.00 250.00 33.00 250.00 58.00 250.00 C 83.00 250.00 83.00 250.00 83.00 240.62 Z  M 142.55 239.25 C 145.43 228.69 145.49 227.96 145.99 197.00 C 146.50 165.50 146.50 165.50 195.75 165.24 C 245.00 164.98 245.00 164.98 245.00 120.01 C 245.00 75.04 245.00 75.04 224.25 74.77 C 203.50 74.50 203.50 74.50 203.19 70.25 C 202.89 66.00 202.89 66.00 225.06 66.00 C 247.23 66.00 247.23 66.00 246.59 63.75 C 243.79 54.01 241.12 37.53 238.49 13.75 C 237.86 8.00 237.86 8.00 225.49 8.00 C 218.32 8.00 212.86 8.42 212.50 9.00 C 212.16 9.55 211.21 10.00 210.38 10.00 C 209.56 10.00 209.17 9.53 209.52 8.96 C 210.34 7.64 170.37 8.08 167.59 9.42 C 166.19 10.09 165.87 10.02 166.40 9.16 C 166.96 8.25 159.98 8.03 136.82 8.24 C 106.50 8.50 106.50 8.50 105.79 16.00 C 104.76 26.77 102.21 41.90 99.42 53.84 C 98.09 59.52 97.00 64.59 97.00 65.09 C 97.00 65.61 106.43 66.00 119.00 66.00 C 141.00 66.00 141.00 66.00 141.00 70.50 C 141.00 75.00 141.00 75.00 120.06 75.00 C 99.12 75.00 99.12 75.00 98.77 149.25 C 98.42 223.50 98.42 223.50 95.31 235.00 C 93.60 241.32 91.88 247.29 91.49 248.25 C 90.83 249.89 92.35 250.00 115.20 250.00 C 139.62 250.00 139.62 250.00 142.55 239.25 Z  M 246.00 210.49 C 246.00 170.98 246.00 170.98 198.75 171.24 C 151.50 171.50 151.50 171.50 151.24 210.75 C 150.98 250.00 150.98 250.00 198.49 250.00 C 246.00 250.00 246.00 250.00 246.00 210.49 Z  M 62.57 232.00 C 65.61 226.48 68.69 222.40 69.58 222.69 C 70.15 222.88 71.33 221.57 72.21 219.77 C 73.58 216.93 73.89 216.75 74.54 218.35 C 75.12 219.79 73.79 221.66 68.51 226.85 C 64.79 230.51 62.11 232.82 62.57 232.00 Z  M 15.53 163.64 C 13.72 162.32 13.92 159.00 15.81 159.00 C 17.34 159.00 20.22 162.83 19.54 163.94 C 18.67 165.34 17.76 165.28 15.53 163.64 Z  M 15.19 66.25 C 15.37 65.27 16.62 64.34 18.01 64.15 C 20.47 63.80 20.48 63.81 18.59 65.90 C 16.28 68.46 14.74 68.62 15.19 66.25 Z  M 73.66 60.95 C 72.19 59.79 71.24 58.43 71.55 57.92 C 72.58 56.25 75.91 56.96 77.06 59.11 C 78.79 62.34 76.80 63.42 73.66 60.95 Z  M 210.57 141.43 C 208.35 139.21 208.92 135.58 211.56 135.21 C 214.08 134.85 217.30 138.19 216.83 140.68 C 216.37 143.09 212.68 143.54 210.57 141.43 Z  M 150.19 131.25 C 150.50 127.50 150.50 127.50 164.75 127.22 C 176.23 127.00 179.00 126.67 179.00 125.53 C 179.00 123.00 181.27 122.62 183.07 124.84 C 184.45 126.54 185.90 127.00 189.91 127.00 C 195.00 127.00 195.00 127.00 195.00 131.00 C 195.00 135.00 195.00 135.00 172.44 135.00 C 149.88 135.00 149.88 135.00 150.19 131.25 Z  M 132.54 125.87 C 130.34 123.26 129.95 121.92 130.20 117.85 C 130.37 115.17 130.94 112.87 131.47 112.74 C 132.58 112.46 138.84 124.62 138.93 127.25 C 139.04 130.09 135.44 129.31 132.54 125.87 Z  M 110.48 126.97 C 114.22 120.61 117.36 116.92 118.63 117.41 C 119.52 117.75 120.41 117.06 120.97 115.58 C 122.27 112.17 124.00 111.41 124.00 114.24 C 124.00 115.95 122.03 118.22 116.81 122.52 C 112.85 125.78 110.00 127.78 110.48 126.97 Z  M 150.19 108.25 C 150.50 104.50 150.50 104.50 172.75 104.23 C 195.00 103.96 195.00 103.96 195.00 107.98 C 195.00 112.00 195.00 112.00 172.44 112.00 C 149.88 112.00 149.88 112.00 150.19 108.25 Z  M 156.00 56.94 C 156.00 56.36 156.50 53.89 157.12 51.44 C 158.24 47.00 158.24 47.00 171.04 47.00 C 178.08 47.00 184.55 46.73 185.42 46.39 C 186.46 45.99 187.00 46.34 187.00 47.39 C 187.00 48.28 186.61 49.00 186.12 49.00 C 185.64 49.00 185.47 51.02 185.75 53.50 C 186.26 58.00 186.26 58.00 171.13 58.00 C 161.16 58.00 156.00 57.64 156.00 56.94 Z  M 207.50 52.94 C 209.70 50.51 211.57 48.38 211.65 48.20 C 211.73 48.02 212.07 48.30 212.39 48.82 C 212.71 49.35 210.85 51.48 208.24 53.56 C 203.50 57.34 203.50 57.34 207.50 52.94 Z  M 221.04 55.07 C 219.68 52.54 219.73 50.06 221.21 45.90 C 222.42 42.50 222.42 42.50 223.15 46.50 C 224.76 55.31 223.63 59.91 221.04 55.07 Z  M 192.00 211.00 C 192.00 206.00 192.00 206.00 198.50 206.00 C 205.00 206.00 205.00 206.00 205.00 211.00 C 205.00 216.00 205.00 216.00 198.50 216.00 C 192.00 216.00 192.00 216.00 192.00 211.00 Z  M 199.53 175.05 C 198.76 173.80 202.72 171.71 204.17 172.61 C 204.94 173.08 204.71 173.74 203.46 174.65 C 201.28 176.24 200.33 176.34 199.53 175.05 Z "/>
</g>
</svg>