<?xml version="1.0" encoding="UTF-8" standalone="no"?>
<!DOCTYPE svg PUBLIC "-//W3C//DTD SVG 1.1//EN" "http://www.w3.org/Graphics/SVG/1.1/DTD/svg11.dtd" >
<svg xmlns="http://www.w3.org/2000/svg" xmlns:xlink="http://www.w3.org/1999/xlink" version="1.1" viewBox="0 0 256 256">
 <g >
 <path fill="currentColor"
d=" M 151.42 247.44 C 151.90 245.53 152.53 245.03 153.90 245.47 C 155.27 245.90 156.05 245.28 156.98 243.04 C 157.67 241.38 158.63 240.27 159.12 240.57 C 160.66 241.52 160.07 244.62 158.00 246.50 C 155.13 249.10 155.52 250.00 159.50 250.00 C 163.00 250.00 163.00 250.00 163.00 238.00 C 163.00 226.00 163.00 226.00 205.50 226.00 C 248.00 226.00 248.00 226.00 248.00 211.00 C 248.00 196.00 248.00 196.00 205.50 196.00 C 163.00 196.00 163.00 196.00 163.00 193.50 C 163.00 191.00 163.00 191.00 204.00 191.00 C 245.00 191.00 245.00 191.00 245.00 178.00 C 245.00 165.00 245.00 165.00 234.50 165.00 C 224.79 165.00 224.00 165.15 224.00 166.93 C 224.00 169.13 220.94 171.51 213.01 175.51 C 208.53 177.77 207.79 177.93 208.96 176.39 C 212.89 171.23 215.49 169.02 217.06 169.52 C 218.13 169.86 219.33 169.14 220.39 167.53 C 222.05 165.00 222.05 165.00 217.02 165.00 C 213.71 165.00 211.97 165.43 211.92 166.25 C 211.86 167.25 211.74 167.25 211.34 166.25 C 210.95 165.30 205.11 165.00 186.92 165.00 C 163.67 165.00 163.00 164.94 163.00 163.00 C 163.00 161.03 163.67 161.00 202.50 161.00 C 242.00 161.00 242.00 161.00 242.00 146.01 C 242.00 131.03 242.00 131.03 127.50 131.01 C 13.00 130.99 13.00 130.99 13.00 146.02 C 13.00 161.06 13.00 161.06 41.75 161.00 C 95.01 160.89 91.00 160.73 91.00 163.00 C 91.00 164.93 90.33 165.00 70.50 165.00 C 56.88 165.00 50.00 165.35 50.00 166.05 C 50.00 166.62 51.19 168.20 52.65 169.55 C 55.23 171.94 54.90 172.86 52.09 171.08 C 51.23 170.53 50.00 170.61 48.92 171.28 C 46.61 172.72 44.00 170.65 44.00 167.38 C 44.00 165.00 44.00 165.00 27.00 165.00 C 10.00 165.00 10.00 165.00 10.00 178.00 C 10.00 191.00 10.00 191.00 50.50 191.00 C 91.00 191.00 91.00 191.00 91.00 193.50 C 91.00 196.00 91.00 196.00 48.50 196.00 C 6.00 196.00 6.00 196.00 6.00 211.00 C 6.00 226.00 6.00 226.00 48.50 226.00 C 90.33 226.00 91.00 226.03 91.00 228.00 C 91.00 229.90 90.33 230.00 77.50 230.00 C 64.00 230.00 64.00 230.00 64.00 240.00 C 64.00 250.00 64.00 250.00 107.39 250.00 C 150.78 250.00 150.78 250.00 151.42 247.44 Z  M 109.00 114.44 C 109.00 100.87 109.00 100.87 112.25 101.19 C 115.50 101.50 115.50 101.50 115.78 113.75 C 116.06 126.00 116.06 126.00 133.03 126.00 C 150.00 126.00 150.00 126.00 150.00 102.00 C 150.00 78.00 150.00 78.00 129.50 78.00 C 109.67 78.00 109.00 77.93 109.00 76.00 C 109.00 74.06 109.67 74.00 130.00 74.00 C 151.00 74.00 151.00 74.00 151.00 62.00 C 151.00 50.00 151.00 50.00 130.00 50.00 C 118.45 50.00 109.00 49.65 109.00 49.22 C 109.00 48.79 107.70 47.95 106.11 47.35 C 102.74 46.08 99.52 41.69 100.36 39.51 C 101.18 37.37 105.24 37.64 107.77 40.00 C 109.76 41.85 111.30 42.00 128.96 42.00 C 148.00 42.00 148.00 42.00 148.00 28.00 C 148.00 14.00 148.00 14.00 128.50 14.00 C 109.00 14.00 109.00 14.00 109.00 11.00 C 109.00 8.00 109.00 8.00 81.00 8.00 C 53.00 8.00 53.00 8.00 53.00 11.00 C 53.00 13.75 52.71 14.00 49.59 14.00 C 46.68 14.00 46.26 13.71 46.71 12.00 C 47.22 10.05 46.74 10.00 28.62 10.00 C 10.00 10.00 10.00 10.00 9.98 15.25 C 9.96 20.39 7.69 38.40 6.42 43.45 C 5.78 46.00 5.78 46.00 23.77 46.00 C 40.93 46.00 41.79 45.91 42.29 44.00 C 42.73 42.33 43.65 42.00 47.91 42.00 C 53.00 42.00 53.00 42.00 53.00 46.00 C 53.00 50.00 53.00 50.00 31.50 50.00 C 10.00 50.00 10.00 50.00 10.00 62.00 C 10.00 74.56 10.46 75.70 14.17 72.35 C 15.87 70.81 16.00 70.81 16.00 72.35 C 16.00 73.83 17.96 74.00 34.57 74.00 C 51.72 74.00 53.12 74.13 52.81 75.75 C 52.50 77.34 50.57 77.52 31.74 77.77 C 11.00 78.04 11.00 78.04 11.00 102.02 C 11.00 126.00 11.00 126.00 28.00 126.00 C 45.00 126.00 45.00 126.00 45.00 113.44 C 45.00 100.88 45.00 100.88 48.75 101.19 C 52.50 101.50 52.50 101.50 52.78 114.75 C 53.06 128.00 53.06 128.00 81.03 128.00 C 109.00 128.00 109.00 128.00 109.00 114.44 Z  M 247.00 68.00 C 247.00 8.00 247.00 8.00 217.00 8.00 C 187.00 8.00 187.00 8.00 187.00 45.50 C 187.00 83.00 187.00 83.00 172.00 83.00 C 157.00 83.00 157.00 83.00 157.00 105.50 C 157.00 128.00 157.00 128.00 202.00 128.00 C 247.00 128.00 247.00 128.00 247.00 68.00 Z  M 180.00 44.50 C 180.00 13.00 180.00 13.00 168.50 13.00 C 157.00 13.00 157.00 13.00 157.00 43.83 C 157.00 60.79 157.30 74.97 157.67 75.33 C 158.03 75.70 163.21 76.00 169.17 76.00 C 180.00 76.00 180.00 76.00 180.00 44.50 Z  M 48.43 205.89 C 47.61 204.57 49.73 203.04 52.40 203.02 C 54.25 203.00 54.25 203.07 52.50 205.00 C 50.45 207.27 49.42 207.49 48.43 205.89 Z  M 103.55 195.06 C 101.81 193.14 101.81 193.01 103.50 192.36 C 105.60 191.56 108.50 193.14 108.50 195.10 C 108.50 197.28 105.55 197.26 103.55 195.06 Z  M 230.07 176.75 C 229.12 172.71 229.10 170.81 229.99 168.50 C 231.16 165.50 231.16 165.50 233.08 167.86 C 236.20 171.69 235.38 182.00 231.96 182.00 C 231.61 182.00 230.76 179.64 230.07 176.75 Z  M 17.61 177.42 C 17.34 176.73 17.81 175.90 18.64 175.58 C 20.85 174.74 21.00 174.81 21.00 176.83 C 21.00 178.89 18.35 179.35 17.61 177.42 Z  M 170.44 155.57 C 168.89 154.42 168.75 153.88 169.75 152.87 C 170.75 151.85 171.00 151.85 171.00 152.86 C 171.00 153.55 171.45 153.84 172.00 153.50 C 172.55 153.16 173.00 153.10 173.00 153.36 C 173.00 153.62 173.27 154.55 173.61 155.42 C 174.36 157.39 172.99 157.45 170.44 155.57 Z  M 29.50 116.00 C 31.30 112.69 37.27 104.93 37.69 105.36 C 38.53 106.20 35.21 111.47 31.93 114.50 C 30.15 116.15 29.06 116.83 29.50 116.00 Z  M 38.66 112.30 C 39.45 106.34 40.64 103.00 41.98 103.00 C 43.38 103.00 43.26 104.75 41.47 110.78 C 39.44 117.62 37.84 118.49 38.66 112.30 Z  M 105.69 83.36 C 104.37 82.03 106.25 81.00 109.81 81.12 C 111.93 81.18 112.65 81.44 111.50 81.71 C 110.40 81.98 109.07 82.60 108.55 83.10 C 107.43 84.16 106.57 84.24 105.69 83.36 Z  M 167.75 92.92 C 165.70 91.72 165.39 88.00 167.35 88.00 C 169.23 88.00 172.33 91.65 171.54 92.94 C 170.73 94.24 170.01 94.24 167.75 92.92 Z "/>
</g>
</svg>