<?xml version="1.0" encoding="UTF-8" standalone="no"?>
<!DOCTYPE svg PUBLIC "-//W3C//DTD SVG 1.1//EN" "http://www.w3.org/Graphics/SVG/1.1/DTD/svg11.dtd" >
<svg xmlns="http://www.w3.org/2000/svg" xmlns:xlink="http://www.w3.org/1999/xlink" version="1.1" viewBox="0 0 256 256">
 <g >
 <path fill="currentColor"
d=" M 49.96 244.77 C 52.81 231.45 55.06 214.27 55.66 201.25 C 56.31 187.00 56.31 187.00 62.66 187.00 C 69.00 187.00 69.00 187.00 69.00 194.50 C 69.00 202.00 69.00 202.00 65.50 202.00 C 62.00 202.00 62.00 202.00 62.00 226.02 C 62.00 250.04 62.00 250.04 86.25 249.77 C 110.50 249.50 110.50 249.50 110.76 184.75 C 110.95 137.14 110.72 120.00 109.88 120.00 C 109.07 120.00 109.05 119.64 109.84 118.69 C 110.60 117.78 110.94 100.86 110.97 63.69 C 111.01 10.00 111.01 10.00 62.51 10.00 C 14.00 10.00 14.00 10.00 14.00 104.89 C 14.00 162.91 13.60 203.81 12.97 210.14 C 11.97 220.10 8.58 242.85 7.37 247.68 C 6.78 250.00 6.78 250.00 27.81 250.00 C 48.83 250.00 48.83 250.00 49.96 244.77 Z  M 220.00 236.50 C 220.00 223.00 220.00 223.00 234.00 223.00 C 248.00 223.00 248.00 223.00 248.00 202.50 C 248.00 182.00 248.00 182.00 234.00 182.00 C 220.00 182.00 220.00 182.00 220.00 168.50 C 220.00 155.00 220.00 155.00 202.50 155.00 C 183.43 155.00 183.99 155.20 186.10 149.15 C 187.20 146.00 187.20 146.00 216.10 146.00 C 245.00 146.00 245.00 146.00 245.00 82.00 C 245.00 18.00 245.00 18.00 222.05 18.00 C 199.09 18.00 199.09 18.00 199.69 13.00 C 200.28 8.00 200.28 8.00 172.25 8.00 C 144.22 8.00 144.22 8.00 143.35 12.75 C 142.48 17.50 142.48 17.50 129.74 17.78 C 117.00 18.06 117.00 18.06 117.00 82.03 C 117.00 146.00 117.00 146.00 122.00 146.00 C 125.49 146.00 127.00 146.40 127.00 147.33 C 127.00 148.97 122.61 159.86 119.39 166.21 C 118.08 168.81 117.00 171.17 117.00 171.47 C 117.00 171.76 126.90 172.00 139.00 172.00 C 161.00 172.00 161.00 172.00 161.00 177.00 C 161.00 182.00 161.00 182.00 139.00 182.00 C 117.00 182.00 117.00 182.00 117.00 202.50 C 117.00 223.00 117.00 223.00 139.00 223.00 C 161.00 223.00 161.00 223.00 161.00 236.50 C 161.00 250.00 161.00 250.00 190.50 250.00 C 220.00 250.00 220.00 250.00 220.00 236.50 Z  M 83.00 190.68 C 83.00 189.40 87.27 183.00 88.12 183.00 C 88.63 183.00 89.48 181.88 90.00 180.50 C 90.52 179.12 91.41 178.00 91.98 178.00 C 93.53 178.00 93.37 178.28 88.00 185.00 C 85.25 188.44 83.00 191.00 83.00 190.68 Z  M 56.00 128.95 C 56.00 120.90 56.00 120.90 62.25 121.20 C 68.50 121.50 68.50 121.50 68.79 129.25 C 69.08 137.00 69.08 137.00 62.54 137.00 C 56.00 137.00 56.00 137.00 56.00 128.95 Z  M 90.68 129.60 C 89.88 127.52 92.41 124.56 94.35 125.30 C 95.72 125.83 95.80 126.35 94.83 128.47 C 93.57 131.24 91.52 131.80 90.68 129.60 Z  M 22.00 80.37 C 22.00 79.71 30.55 75.50 32.00 75.44 C 32.83 75.41 34.55 74.81 35.84 74.11 C 37.89 72.99 38.14 73.04 37.84 74.53 C 37.61 75.70 35.07 76.93 29.75 78.46 C 25.49 79.69 22.00 80.55 22.00 80.37 Z  M 56.00 66.05 C 56.00 59.00 56.00 59.00 62.55 59.00 C 69.09 59.00 69.09 59.00 68.80 65.75 C 68.50 72.50 68.50 72.50 62.25 72.80 C 56.00 73.10 56.00 73.10 56.00 66.05 Z  M 103.38 34.55 C 103.07 33.75 103.13 32.60 103.50 32.00 C 104.35 30.62 107.00 32.60 107.00 34.62 C 107.00 36.45 104.09 36.39 103.38 34.55 Z  M 62.00 25.50 C 62.00 24.52 62.96 24.01 64.75 24.03 C 67.38 24.06 67.42 24.13 65.56 25.53 C 63.09 27.40 62.00 27.39 62.00 25.50 Z  M 20.17 20.71 C 18.89 19.16 20.31 16.46 21.89 17.43 C 23.22 18.25 23.35 20.66 22.11 21.43 C 21.63 21.73 20.75 21.41 20.17 20.71 Z  M 191.58 233.75 C 194.07 225.85 194.80 224.50 196.60 224.50 C 198.01 224.50 198.58 223.66 198.81 221.25 C 199.16 217.70 200.08 217.19 201.99 219.49 C 203.02 220.72 202.24 222.27 197.48 228.49 C 194.31 232.62 191.53 236.00 191.29 236.00 C 191.06 236.00 191.18 234.99 191.58 233.75 Z  M 149.49 108.62 C 147.27 107.00 147.08 101.56 149.10 97.88 C 150.39 95.53 150.42 95.56 151.26 99.50 C 153.60 110.47 153.40 111.48 149.49 108.62 Z  M 161.21 101.75 C 161.50 93.50 161.50 93.50 166.75 93.20 C 172.00 92.90 172.00 92.90 172.00 101.45 C 172.00 110.00 172.00 110.00 166.46 110.00 C 160.92 110.00 160.92 110.00 161.21 101.75 Z  M 189.21 101.75 C 189.50 93.50 189.50 93.50 195.75 93.20 C 202.00 92.90 202.00 92.90 202.00 101.45 C 202.00 110.00 202.00 110.00 195.46 110.00 C 188.92 110.00 188.92 110.00 189.21 101.75 Z  M 133.88 104.73 C 136.38 102.12 138.85 100.39 139.63 100.69 C 140.38 100.98 141.00 100.80 141.00 100.30 C 141.00 99.79 141.66 98.51 142.47 97.44 C 143.90 95.55 143.94 95.55 143.97 97.71 C 143.99 99.31 142.40 101.00 138.25 103.79 C 129.61 109.59 129.11 109.70 133.88 104.73 Z  M 161.67 70.33 C 161.30 69.97 161.00 66.14 161.00 61.83 C 161.00 54.00 161.00 54.00 166.50 54.00 C 172.00 54.00 172.00 54.00 172.00 62.50 C 172.00 71.00 172.00 71.00 167.17 71.00 C 164.51 71.00 162.03 70.70 161.67 70.33 Z  M 189.67 70.33 C 189.30 69.97 189.00 66.14 189.00 61.83 C 189.00 54.00 189.00 54.00 195.50 54.00 C 202.00 54.00 202.00 54.00 202.00 62.50 C 202.00 71.00 202.00 71.00 196.17 71.00 C 192.96 71.00 190.03 70.70 189.67 70.33 Z  M 121.96 48.45 C 121.05 47.36 120.99 46.61 121.76 45.84 C 123.04 44.56 125.00 45.56 125.00 47.50 C 125.00 49.64 123.37 50.15 121.96 48.45 Z  M 226.40 34.59 C 226.06 33.70 226.33 32.31 227.01 31.49 C 228.36 29.86 232.00 29.45 232.00 30.92 C 232.00 31.42 232.24 32.47 232.54 33.25 C 232.84 34.03 232.50 34.69 231.79 34.71 C 231.08 34.74 229.72 35.09 228.76 35.48 C 227.59 35.97 226.81 35.67 226.40 34.59 Z "/>
</g>
</svg>