<?xml version="1.0" encoding="UTF-8" standalone="no"?>
<!DOCTYPE svg PUBLIC "-//W3C//DTD SVG 1.1//EN" "http://www.w3.org/Graphics/SVG/1.1/DTD/svg11.dtd" >
<svg xmlns="http://www.w3.org/2000/svg" xmlns:xlink="http://www.w3.org/1999/xlink" version="1.1" viewBox="0 0 256 256">
 <g >
 <path fill="currentColor"
d=" M 44.32 245.75 C 44.61 243.41 45.42 227.89 46.13 211.25 C 47.41 181.00 47.41 181.00 52.21 181.00 C 57.00 181.00 57.00 181.00 57.00 190.50 C 57.00 200.00 57.00 200.00 53.50 200.00 C 50.00 200.00 50.00 200.00 50.00 225.00 C 50.00 250.00 50.00 250.00 72.00 250.00 C 94.00 250.00 94.00 250.00 94.00 129.50 C 94.00 9.00 94.00 9.00 52.00 9.00 C 10.00 9.00 10.00 9.00 9.98 107.25 C 9.96 195.76 9.31 230.67 7.39 245.14 C 6.74 250.00 6.74 250.00 25.27 250.00 C 43.79 250.00 43.79 250.00 44.32 245.75 Z  M 111.35 246.98 C 112.33 245.32 113.55 244.22 114.07 244.54 C 114.58 244.86 116.11 243.85 117.47 242.31 C 119.36 240.16 119.94 239.89 119.97 241.19 C 119.99 242.11 118.31 244.47 116.25 246.43 C 112.50 249.98 112.50 249.98 118.25 249.99 C 124.00 250.00 124.00 250.00 124.00 244.67 C 124.00 237.21 125.30 236.69 126.53 243.65 C 127.56 249.50 127.56 249.50 135.51 249.50 C 143.45 249.50 143.45 249.50 144.70 244.00 C 148.71 226.29 149.00 219.28 149.00 139.97 C 149.00 63.00 149.00 63.00 198.50 63.00 C 248.00 63.00 248.00 63.00 248.00 39.00 C 248.00 15.00 248.00 15.00 232.50 15.00 C 217.00 15.00 217.00 15.00 217.00 11.50 C 217.00 8.00 217.00 8.00 186.00 8.00 C 155.00 8.00 155.00 8.00 155.00 11.50 C 155.00 15.00 155.00 15.00 142.75 15.12 C 136.01 15.18 124.09 15.13 116.25 15.02 C 102.00 14.80 102.00 14.80 102.00 76.90 C 102.00 119.04 102.33 139.00 103.04 139.00 C 103.75 139.00 103.75 139.60 103.04 140.93 C 102.38 142.16 102.00 155.31 101.99 176.68 C 101.98 197.94 101.45 216.23 100.55 225.94 C 99.77 234.43 99.17 241.63 99.22 241.94 C 99.28 242.25 98.80 243.77 98.16 245.32 C 96.34 249.74 96.62 250.00 103.28 250.00 C 109.21 250.00 109.67 249.83 111.35 246.98 Z  M 190.00 190.58 C 190.00 157.81 189.61 131.02 189.13 130.83 C 188.65 130.65 188.84 126.00 189.56 120.50 C 190.98 109.48 194.00 75.93 194.00 71.07 C 194.00 68.00 194.00 68.00 176.67 68.00 C 159.34 68.00 159.34 68.00 158.10 86.25 C 157.01 102.33 156.29 109.64 153.40 134.25 C 152.82 139.18 152.96 140.00 154.36 140.00 C 155.86 140.00 156.00 144.72 156.00 195.00 C 156.00 250.00 156.00 250.00 173.00 250.00 C 190.00 250.00 190.00 250.00 190.00 190.58 Z  M 237.08 248.75 C 237.14 247.75 237.26 247.75 237.66 248.75 C 237.94 249.44 239.70 250.00 241.58 250.00 C 245.00 250.00 245.00 250.00 245.00 186.50 C 245.00 130.72 245.18 123.00 246.50 123.00 C 247.79 123.00 248.00 120.00 248.00 102.00 C 248.00 84.00 247.79 81.00 246.50 81.00 C 245.32 81.00 245.00 79.61 245.00 74.50 C 245.00 68.00 245.00 68.00 224.50 68.00 C 204.00 68.00 204.00 68.00 204.00 74.50 C 204.00 81.00 204.00 81.00 199.50 81.00 C 195.00 81.00 195.00 81.00 195.00 102.00 C 195.00 123.00 195.00 123.00 204.50 123.00 C 214.00 123.00 214.00 123.00 214.00 165.00 C 214.00 207.00 214.00 207.00 206.50 207.00 C 199.00 207.00 199.00 207.00 199.00 228.50 C 199.00 250.00 199.00 250.00 218.00 250.00 C 232.49 250.00 237.02 249.70 237.08 248.75 Z  M 209.67 177.75 C 209.01 152.99 207.77 139.37 206.03 137.63 C 205.39 136.99 205.41 136.21 206.09 135.39 C 206.67 134.70 206.99 132.64 206.82 130.82 C 206.51 127.61 206.34 127.49 201.61 127.19 C 198.92 127.02 196.40 127.24 196.01 127.69 C 195.63 128.14 195.88 134.57 196.58 142.00 C 197.28 149.43 198.18 165.96 198.58 178.75 C 199.32 202.00 199.32 202.00 204.81 202.00 C 210.31 202.00 210.31 202.00 209.67 177.75 Z  M 76.47 198.96 C 76.15 198.43 76.16 197.55 76.50 197.00 C 77.42 195.50 80.00 195.79 80.00 197.39 C 80.00 199.09 77.30 200.29 76.47 198.96 Z  M 47.00 127.95 C 47.00 118.89 47.00 118.89 51.75 119.20 C 56.50 119.50 56.50 119.50 56.79 128.25 C 57.08 137.00 57.08 137.00 52.04 137.00 C 47.00 137.00 47.00 137.00 47.00 127.95 Z  M 79.01 89.51 C 78.01 88.31 78.07 87.91 79.34 87.42 C 81.45 86.61 83.04 87.73 82.35 89.53 C 81.63 91.40 80.57 91.39 79.01 89.51 Z  M 30.24 84.75 C 30.47 84.06 31.97 83.38 33.58 83.23 C 36.37 82.97 36.41 83.02 34.56 84.48 C 32.21 86.32 29.68 86.48 30.24 84.75 Z  M 47.00 65.05 C 47.00 54.00 47.00 54.00 52.03 54.00 C 57.07 54.00 57.07 54.00 56.78 64.75 C 56.50 75.50 56.50 75.50 51.75 75.80 C 47.00 76.11 47.00 76.11 47.00 65.05 Z  M 130.53 102.04 C 128.64 99.94 129.15 96.55 131.25 97.25 C 132.16 97.56 133.30 104.00 132.44 104.00 C 132.37 104.00 131.51 103.12 130.53 102.04 Z  M 125.00 47.16 C 125.00 46.39 129.31 44.00 130.70 44.00 C 131.04 44.00 130.50 44.90 129.50 46.00 C 127.67 48.02 125.00 48.71 125.00 47.16 Z  M 174.52 35.63 C 172.61 34.24 173.18 32.00 175.44 32.00 C 176.16 32.00 177.27 32.62 177.89 33.37 C 179.67 35.52 176.90 37.38 174.52 35.63 Z  M 214.25 230.75 C 214.88 228.86 218.00 228.59 218.00 230.43 C 218.00 231.35 217.15 232.00 215.92 232.00 C 214.69 232.00 214.01 231.48 214.25 230.75 Z "/>
</g>
</svg>