<?xml version="1.0" encoding="UTF-8" standalone="no"?>
<!DOCTYPE svg PUBLIC "-//W3C//DTD SVG 1.1//EN" "http://www.w3.org/Graphics/SVG/1.1/DTD/svg11.dtd" >
<svg xmlns="http://www.w3.org/2000/svg" xmlns:xlink="http://www.w3.org/1999/xlink" version="1.1" viewBox="0 0 256 256">
 <g >
 <path fill="currentColor"
d=" M 38.87 245.75 C 39.48 243.41 40.53 236.44 41.21 230.25 C 42.43 219.00 42.43 219.00 46.22 219.00 C 49.87 219.00 50.00 219.12 50.00 222.50 C 50.00 225.33 49.62 226.00 48.00 226.00 C 46.11 226.00 46.00 226.67 46.00 238.00 C 46.00 250.00 46.00 250.00 63.51 250.00 C 81.02 250.00 81.02 250.00 80.76 188.75 C 80.50 127.50 80.50 127.50 45.34 127.24 C 10.18 126.97 10.18 126.97 9.70 178.24 C 9.27 223.71 8.42 241.77 6.41 248.25 C 5.91 249.87 7.08 250.00 21.81 250.00 C 37.76 250.00 37.76 250.00 38.87 245.75 Z  M 127.50 247.95 C 133.55 247.42 140.41 246.71 142.75 246.38 C 146.60 245.83 147.00 245.97 147.00 247.88 C 147.00 249.92 147.42 249.98 159.91 249.90 C 171.72 249.82 172.86 249.65 173.31 247.91 C 173.97 245.40 176.05 245.46 176.71 248.00 C 177.05 249.29 178.07 250.00 179.62 250.00 C 181.48 250.00 182.00 249.46 182.00 247.56 C 182.00 243.83 183.92 243.47 185.14 246.97 C 186.21 250.05 186.30 250.09 192.34 249.79 C 198.46 249.50 198.46 249.50 199.88 244.00 C 200.94 239.88 201.41 228.87 201.72 200.25 C 202.15 162.00 202.15 162.00 209.07 162.00 C 216.00 162.00 216.00 162.00 216.00 206.00 C 216.00 250.00 216.00 250.00 232.50 250.00 C 249.00 250.00 249.00 250.00 249.00 230.50 C 249.00 211.67 248.93 211.00 247.00 211.00 C 245.03 211.00 245.00 210.33 245.00 168.99 C 245.00 126.98 245.00 126.98 208.75 127.24 C 172.50 127.50 172.50 127.50 171.96 182.00 C 171.54 225.15 171.12 237.65 169.97 242.00 C 168.52 247.50 168.52 247.50 167.97 230.50 C 167.67 221.15 167.08 212.94 166.66 212.25 C 166.12 211.39 162.81 211.00 155.94 211.00 C 146.00 211.00 146.00 211.00 146.00 214.50 C 146.00 216.94 145.55 218.00 144.50 218.00 C 143.37 218.00 143.00 216.78 143.00 213.00 C 143.00 208.00 143.00 208.00 154.50 208.00 C 166.00 208.00 166.00 208.00 166.00 173.00 C 166.00 138.00 166.00 138.00 158.50 138.00 C 151.00 138.00 151.00 138.00 151.00 132.50 C 151.00 127.00 151.00 127.00 126.00 127.00 C 101.00 127.00 101.00 127.00 101.00 132.50 C 101.00 138.00 101.00 138.00 93.50 138.00 C 86.00 138.00 86.00 138.00 86.00 151.92 C 86.00 162.07 86.34 165.99 87.25 166.42 C 88.25 166.88 88.25 167.12 87.25 167.58 C 86.31 168.02 86.00 173.13 86.00 188.08 C 86.00 208.00 86.00 208.00 88.39 208.00 C 89.71 208.00 91.05 207.32 91.36 206.50 C 91.68 205.68 92.74 205.01 93.72 205.03 C 95.36 205.06 95.34 205.18 93.56 206.53 C 91.81 207.86 92.51 208.00 100.81 208.00 C 110.00 208.00 110.00 208.00 110.00 213.87 C 110.00 219.74 110.00 219.74 106.25 220.36 C 104.19 220.70 98.56 220.98 93.75 220.99 C 85.00 221.00 85.00 221.00 85.00 235.64 C 85.00 250.29 85.00 250.29 100.75 249.60 C 109.41 249.23 121.45 248.48 127.50 247.95 Z  M 212.66 204.60 C 212.29 189.53 211.71 175.13 211.36 172.60 C 210.73 168.01 210.72 168.00 206.76 168.00 C 203.14 168.00 202.83 168.20 203.33 170.25 C 204.65 175.61 206.22 207.58 205.75 219.25 C 205.23 232.00 205.23 232.00 209.28 232.00 C 213.32 232.00 213.32 232.00 212.66 204.60 Z  M 243.00 98.00 C 243.00 74.00 243.00 74.00 129.00 74.00 C 15.00 74.00 15.00 74.00 15.00 97.99 C 15.00 121.97 15.00 121.97 129.00 121.99 C 243.00 122.01 243.00 122.01 243.00 98.00 Z  M 245.00 58.00 C 245.00 47.00 245.00 47.00 198.00 47.00 C 163.70 47.00 151.07 47.30 151.25 48.13 C 151.39 48.74 150.87 49.48 150.09 49.76 C 149.11 50.12 148.87 49.77 149.31 48.64 C 149.87 47.18 148.64 47.00 137.91 47.00 C 125.02 47.00 125.13 46.93 129.40 51.99 C 131.50 54.49 131.50 54.49 129.27 52.60 C 127.48 51.09 126.75 50.96 125.57 51.94 C 123.64 53.54 120.53 52.49 118.13 49.44 C 116.25 47.05 115.93 47.00 101.11 47.00 C 86.00 47.00 86.00 47.00 86.00 44.00 C 86.00 41.00 86.00 41.00 167.50 41.00 C 249.00 41.00 249.00 41.00 249.00 27.50 C 249.00 14.00 249.00 14.00 207.00 14.00 C 165.00 14.00 165.00 14.00 165.00 11.00 C 165.00 8.00 165.00 8.00 127.00 8.00 C 89.00 8.00 89.00 8.00 89.00 11.00 C 89.00 14.00 89.00 14.00 47.50 14.00 C 6.00 14.00 6.00 14.00 6.00 27.50 C 6.00 41.00 6.00 41.00 10.50 41.00 C 15.00 41.00 15.00 41.00 15.00 55.00 C 15.00 69.00 15.00 69.00 130.00 69.00 C 245.00 69.00 245.00 69.00 245.00 58.00 Z  M 64.00 211.04 C 64.00 209.94 67.25 208.00 69.09 208.00 C 69.85 208.00 69.63 208.75 68.50 210.00 C 66.61 212.09 64.00 212.69 64.00 211.04 Z  M 42.00 195.50 C 42.00 191.00 42.00 191.00 46.00 191.00 C 50.00 191.00 50.00 191.00 50.00 195.50 C 50.00 200.00 50.00 200.00 46.00 200.00 C 42.00 200.00 42.00 200.00 42.00 195.50 Z  M 69.48 176.97 C 69.10 176.36 67.38 176.21 65.26 176.61 C 60.96 177.42 58.37 175.05 60.07 171.86 C 61.39 169.40 63.16 169.51 66.14 172.25 C 69.04 174.92 71.48 178.00 70.68 178.00 C 70.37 178.00 69.83 177.54 69.48 176.97 Z  M 42.00 166.50 C 42.00 162.00 42.00 162.00 46.00 162.00 C 50.00 162.00 50.00 162.00 50.00 166.50 C 50.00 171.00 50.00 171.00 46.00 171.00 C 42.00 171.00 42.00 171.00 42.00 166.50 Z  M 119.36 200.50 C 118.44 198.10 120.62 196.27 122.78 197.63 C 125.21 199.16 124.92 201.44 122.25 201.82 C 120.86 202.02 119.75 201.51 119.36 200.50 Z  M 224.81 181.37 C 225.37 180.34 227.20 178.19 228.88 176.60 C 231.35 174.24 232.20 173.92 233.38 174.90 C 234.57 175.89 235.08 175.61 236.17 173.38 C 237.91 169.80 240.00 169.14 240.00 172.17 C 240.00 174.06 238.47 175.33 231.90 178.87 C 225.92 182.10 224.06 182.75 224.81 181.37 Z  M 108.00 172.43 C 108.00 165.87 108.00 165.87 110.75 166.18 C 113.39 166.49 113.51 166.76 113.80 172.75 C 114.10 179.00 114.10 179.00 111.05 179.00 C 108.00 179.00 108.00 179.00 108.00 172.43 Z  M 139.20 172.75 C 139.49 166.76 139.61 166.49 142.25 166.18 C 145.00 165.87 145.00 165.87 145.00 172.43 C 145.00 179.00 145.00 179.00 141.95 179.00 C 138.90 179.00 138.90 179.00 139.20 172.75 Z  M 188.00 162.06 C 188.00 161.48 187.29 161.00 186.42 161.00 C 185.55 161.00 184.99 160.52 185.19 159.93 C 185.39 159.33 185.88 158.88 186.28 158.93 C 186.67 158.97 187.68 159.00 188.50 159.00 C 190.18 159.00 190.54 161.55 189.00 162.50 C 188.45 162.84 188.00 162.64 188.00 162.06 Z  M 47.28 118.34 C 47.44 116.10 47.92 115.43 49.12 115.74 C 50.24 116.03 51.10 115.15 51.88 112.92 C 52.50 111.14 53.27 109.94 53.60 110.26 C 54.56 111.22 53.12 114.28 49.99 117.93 C 47.05 121.36 47.05 121.36 47.28 118.34 Z  M 55.51 116.88 C 56.21 112.61 58.88 106.30 58.96 108.70 C 58.98 109.36 58.51 112.17 57.92 114.94 C 56.54 121.38 54.49 123.03 55.51 116.88 Z  M 87.00 97.00 C 87.00 94.00 87.00 94.00 129.50 94.00 C 172.00 94.00 172.00 94.00 172.00 97.00 C 172.00 100.00 172.00 100.00 129.50 100.00 C 87.00 100.00 87.00 100.00 87.00 97.00 Z  M 183.75 97.92 C 181.70 96.72 181.39 93.00 183.35 93.00 C 184.95 93.00 188.00 96.17 188.00 97.83 C 188.00 99.25 186.11 99.30 183.75 97.92 Z  M 121.50 89.00 C 120.37 87.17 122.08 86.00 125.81 86.06 C 128.91 86.12 129.15 86.27 127.35 86.99 C 126.17 87.47 124.91 88.34 124.54 88.93 C 123.71 90.27 122.31 90.31 121.50 89.00 Z  M 28.53 80.05 C 27.65 78.63 28.77 77.00 30.63 77.00 C 31.51 77.00 32.01 77.70 31.82 78.67 C 31.43 80.68 29.44 81.52 28.53 80.05 Z "/>
</g>
</svg>