<?xml version="1.0" encoding="UTF-8" standalone="no"?>
<!DOCTYPE svg PUBLIC "-//W3C//DTD SVG 1.1//EN" "http://www.w3.org/Graphics/SVG/1.1/DTD/svg11.dtd" >
<svg xmlns="http://www.w3.org/2000/svg" xmlns:xlink="http://www.w3.org/1999/xlink" version="1.1" viewBox="0 0 256 256">
 <g >
 <path fill="currentColor"
d=" M 205.80 247.47 C 215.33 245.29 220.05 242.39 222.75 237.03 C 225.00 232.58 225.00 232.58 225.00 178.04 C 225.00 123.50 225.00 123.50 228.56 120.66 C 233.03 117.10 232.99 113.47 228.46 110.83 C 223.78 108.10 207.28 104.09 199.50 103.78 C 192.50 103.50 192.50 103.50 192.79 106.50 C 192.95 108.15 193.34 131.91 193.64 159.30 C 194.07 197.73 193.92 209.79 192.96 212.10 C 190.86 217.17 187.63 218.10 174.77 217.37 C 165.04 216.81 163.29 216.95 162.13 218.35 C 159.95 220.98 161.44 222.67 169.37 226.54 C 179.54 231.49 184.75 236.08 185.58 240.80 C 186.73 247.40 188.39 249.00 194.08 249.00 C 196.84 249.00 202.12 248.31 205.80 247.47 Z  M 101.54 245.48 C 109.47 243.46 112.15 240.56 110.93 235.30 C 109.79 230.39 109.76 225.00 110.87 225.00 C 112.94 225.00 119.86 234.05 121.45 238.84 C 122.41 241.75 124.06 244.50 125.20 245.11 C 129.49 247.40 145.29 242.87 150.24 237.92 C 153.00 235.15 153.00 235.15 153.00 180.61 C 153.00 128.05 153.07 126.03 154.90 125.05 C 156.36 124.27 156.94 124.40 157.40 125.60 C 158.21 127.71 157.97 178.85 157.08 192.00 C 156.25 204.44 157.14 207.23 162.52 209.01 C 166.55 210.34 174.46 209.57 180.18 207.30 C 186.03 204.98 186.18 203.78 185.39 166.34 C 184.70 133.17 184.70 133.17 188.35 128.91 C 193.88 122.44 192.98 118.98 184.90 115.60 C 180.49 113.76 170.28 111.39 162.75 110.47 C 157.00 109.77 157.00 109.77 157.00 113.58 C 157.00 117.39 157.00 117.39 153.75 114.37 C 149.11 110.06 143.03 105.54 139.25 103.61 C 136.33 102.12 135.71 102.10 133.10 103.45 C 131.50 104.28 129.21 106.54 128.01 108.48 C 125.84 112.00 125.84 112.00 117.17 112.00 C 109.75 111.99 107.16 111.49 99.25 108.55 C 85.47 103.41 85.75 103.87 93.64 99.49 C 97.41 97.40 102.45 94.36 104.83 92.74 C 109.17 89.79 109.17 89.79 111.83 92.26 C 114.50 94.73 114.50 94.73 153.50 94.27 C 186.28 93.88 192.68 93.58 193.66 92.34 C 194.65 91.08 195.69 91.45 200.75 94.91 C 208.94 100.50 219.34 105.21 222.63 104.82 C 224.71 104.58 225.90 103.44 227.66 100.00 C 228.93 97.53 230.27 93.75 230.64 91.62 C 231.37 87.30 237.78 79.23 243.87 74.96 C 250.17 70.53 249.32 69.39 239.20 68.67 C 229.69 68.00 209.26 62.67 200.50 58.57 C 197.75 57.29 193.27 54.62 190.54 52.64 C 185.31 48.86 168.00 32.26 168.00 31.04 C 168.00 30.64 169.12 29.81 170.50 29.18 C 174.41 27.40 173.66 24.47 168.51 21.45 C 162.29 17.81 137.77 9.00 131.92 8.30 C 127.25 7.75 127.08 7.82 126.44 10.62 C 125.30 15.53 117.88 36.29 115.75 40.50 C 112.00 47.92 98.81 69.40 88.12 85.48 C 77.50 101.47 77.50 101.47 77.23 81.21 C 76.96 60.96 76.96 60.96 81.01 57.10 C 84.72 53.58 84.97 53.03 83.91 50.70 C 82.48 47.57 76.84 43.46 67.00 38.40 C 54.46 31.94 53.75 32.04 48.02 40.97 C 45.64 44.68 44.17 46.00 42.43 46.00 C 41.06 46.00 35.01 42.39 28.06 37.42 C 21.08 32.43 15.31 28.99 14.28 29.20 C 12.67 29.52 12.55 30.58 13.00 40.53 C 13.81 58.32 13.57 159.64 12.69 170.19 C 11.93 179.40 12.00 180.00 14.08 182.08 C 16.13 184.13 16.90 184.24 25.25 183.64 C 35.52 182.91 39.13 181.54 40.11 178.00 C 40.49 176.62 40.85 170.89 40.90 165.25 C 41.00 155.00 41.00 155.00 44.50 155.00 C 48.00 155.00 48.00 155.00 48.00 162.98 C 48.00 170.38 48.18 171.07 50.50 172.59 C 54.89 175.47 67.75 172.66 73.69 167.52 C 77.33 164.38 77.33 164.38 77.10 136.26 C 76.87 108.39 76.88 108.13 79.02 106.99 C 80.20 106.36 81.31 105.99 81.48 106.17 C 81.65 106.35 82.36 113.24 83.04 121.47 C 83.93 132.17 84.14 151.83 83.77 190.26 C 83.26 244.02 83.26 244.07 85.35 245.53 C 88.04 247.42 94.01 247.40 101.54 245.48 Z  M 110.00 199.50 C 110.00 180.00 110.00 180.00 117.96 180.00 C 125.91 180.00 125.91 180.00 126.21 197.75 C 126.56 219.08 126.60 219.00 116.50 219.00 C 110.00 219.00 110.00 219.00 110.00 199.50 Z  M 110.00 161.50 C 110.00 149.00 110.00 149.00 118.00 149.00 C 126.00 149.00 126.00 149.00 126.00 161.50 C 126.00 174.00 126.00 174.00 118.00 174.00 C 110.00 174.00 110.00 174.00 110.00 161.50 Z  M 41.00 100.50 C 41.00 53.00 41.00 53.00 44.50 53.00 C 48.00 53.00 48.00 53.00 48.00 100.50 C 48.00 148.00 48.00 148.00 44.50 148.00 C 41.00 148.00 41.00 148.00 41.00 100.50 Z  M 110.00 131.00 C 110.00 119.00 110.00 119.00 118.00 119.00 C 126.00 119.00 126.00 119.00 126.00 131.00 C 126.00 143.00 126.00 143.00 118.00 143.00 C 110.00 143.00 110.00 143.00 110.00 131.00 Z  M 121.24 79.92 C 126.04 75.49 135.99 65.03 143.35 56.68 C 161.70 35.86 160.21 36.90 162.47 43.27 C 166.08 53.42 170.78 62.59 176.33 70.27 C 181.35 77.23 181.51 79.53 176.58 74.09 C 175.54 72.94 173.61 72.00 172.30 72.00 C 169.76 72.00 168.32 73.28 160.69 82.31 C 155.88 88.00 155.88 88.00 134.19 87.99 C 112.50 87.98 112.50 87.98 121.24 79.92 Z "/>
</g>
</svg>