<?xml version="1.0" encoding="UTF-8" standalone="no"?>
<!DOCTYPE svg PUBLIC "-//W3C//DTD SVG 1.1//EN" "http://www.w3.org/Graphics/SVG/1.1/DTD/svg11.dtd" >
<svg xmlns="http://www.w3.org/2000/svg" xmlns:xlink="http://www.w3.org/1999/xlink" version="1.1" viewBox="0 0 256 256">
 <g >
 <path fill="currentColor"
d=" M 57.32 243.92 C 67.20 241.39 70.47 239.58 73.32 235.00 C 75.46 231.57 75.51 230.58 76.10 182.78 C 76.50 150.64 77.07 133.62 77.78 132.78 C 78.36 132.07 84.03 127.45 90.38 122.50 C 96.72 117.55 102.17 112.86 102.49 112.08 C 103.85 108.74 100.99 108.69 89.16 111.83 C 82.61 113.58 76.97 115.00 76.63 115.00 C 76.28 115.00 76.00 106.45 76.00 96.00 C 76.00 77.00 76.00 77.00 84.06 77.00 C 88.49 77.00 91.89 77.36 91.62 77.81 C 90.42 79.74 90.16 87.74 91.16 91.71 C 92.72 97.92 95.80 100.00 103.38 99.98 C 115.96 99.95 122.50 92.43 122.50 78.00 C 122.50 73.88 122.13 69.04 121.67 67.25 C 120.84 64.00 120.84 64.00 160.41 64.00 C 199.97 64.00 199.97 64.00 197.90 69.25 C 196.19 73.61 191.91 84.00 191.55 84.69 C 191.49 84.80 187.00 83.79 181.58 82.44 C 169.89 79.55 165.00 79.29 165.00 81.58 C 165.00 82.44 166.22 84.13 167.71 85.33 C 175.64 91.68 181.82 99.04 185.93 107.00 C 195.77 126.09 198.72 129.00 208.20 129.00 C 218.29 128.99 222.99 123.69 223.78 111.39 C 224.24 104.31 224.23 104.26 220.46 100.09 C 217.99 97.35 213.59 94.39 207.74 91.53 C 198.80 87.16 198.80 87.16 203.65 83.61 C 210.87 78.33 215.75 77.00 227.96 77.00 C 242.63 77.00 245.05 75.14 241.48 66.60 C 239.38 61.57 234.09 55.97 224.91 49.05 C 216.73 42.89 212.39 41.19 209.20 42.89 C 208.15 43.45 205.37 46.86 203.03 50.46 C 198.77 57.00 198.77 57.00 185.88 57.00 C 178.80 57.00 173.00 56.66 173.01 56.25 C 173.02 55.84 174.56 53.56 176.44 51.19 C 181.75 44.51 182.21 38.26 178.00 30.00 C 173.39 20.96 158.05 12.44 144.25 11.26 C 138.08 10.73 138.00 10.76 138.00 13.27 C 138.00 14.71 139.52 17.63 141.50 20.00 C 143.43 22.30 145.05 24.26 145.12 24.34 C 145.19 24.43 145.53 30.50 145.87 37.82 C 146.50 51.15 146.50 51.15 150.00 54.05 C 153.50 56.95 153.50 56.95 136.30 56.97 C 119.10 57.00 119.10 57.00 114.70 50.25 C 105.76 36.52 103.34 36.61 102.84 50.68 C 102.57 58.33 102.07 61.13 100.56 63.36 C 98.63 66.21 98.63 66.21 96.57 63.36 C 91.94 56.95 87.70 53.00 85.46 53.00 C 83.05 53.00 79.62 56.55 78.36 60.33 C 77.66 62.46 77.63 62.45 76.92 60.00 C 76.53 58.62 76.15 52.31 76.10 45.97 C 76.00 34.43 76.00 34.43 79.02 32.65 C 80.69 31.66 82.76 29.77 83.64 28.43 C 85.10 26.20 85.09 25.79 83.56 23.45 C 82.64 22.05 80.55 20.09 78.90 19.09 C 74.78 16.58 57.69 12.56 51.00 12.53 C 45.50 12.50 45.50 12.50 46.00 23.50 C 46.27 29.55 46.50 42.38 46.50 52.00 C 46.50 69.50 46.50 69.50 29.50 69.17 C 12.50 68.83 12.50 68.83 16.45 72.92 C 20.41 77.00 20.41 77.00 33.68 77.00 C 46.96 77.00 46.96 77.00 46.35 99.25 C 46.02 111.49 45.46 121.79 45.12 122.15 C 44.35 122.95 21.52 127.00 17.78 127.00 C 13.00 127.00 12.76 129.19 15.50 147.98 C 18.85 171.05 19.40 173.00 22.52 173.00 C 23.22 173.00 28.60 169.13 34.47 164.41 C 40.34 159.68 45.30 155.97 45.47 156.16 C 45.65 156.35 45.96 168.26 46.15 182.64 C 46.59 215.75 47.80 213.53 29.88 212.56 C 19.91 212.03 17.16 212.16 16.78 213.19 C 15.94 215.47 17.07 216.99 21.14 219.07 C 30.44 223.82 36.98 232.87 36.99 241.05 C 37.00 242.45 37.54 244.14 38.20 244.80 C 40.02 246.62 48.22 246.24 57.32 243.92 Z  M 222.00 242.97 C 232.14 240.73 238.53 235.96 242.98 227.32 C 245.68 222.07 244.99 219.07 238.57 208.12 C 232.72 198.15 231.79 193.31 233.25 180.50 C 235.04 164.84 234.95 163.50 232.08 163.50 C 229.84 163.50 229.17 164.90 222.98 182.54 C 215.30 204.44 212.73 208.98 206.14 212.19 C 201.78 214.32 200.01 214.48 177.00 214.83 C 145.83 215.30 141.95 214.37 144.94 207.14 C 146.91 202.38 192.88 156.36 197.61 154.41 C 202.37 152.45 206.00 149.23 206.00 146.97 C 206.00 143.24 189.34 127.72 180.31 123.04 C 175.14 120.35 173.93 120.85 165.39 129.19 C 159.29 135.16 159.29 135.16 134.18 134.83 C 109.08 134.50 109.08 134.50 112.72 138.23 C 116.37 141.96 116.37 141.96 138.82 142.23 C 161.27 142.50 161.27 142.50 151.27 154.50 C 145.76 161.10 134.83 173.25 126.98 181.50 C 109.55 199.79 106.24 204.53 104.72 213.40 C 103.11 222.81 104.64 228.22 110.44 233.60 C 116.92 239.61 127.69 242.08 155.94 244.04 C 172.05 245.16 215.26 244.45 222.00 242.97 Z  M 103.04 133.98 C 115.32 127.78 129.59 117.53 145.50 103.48 C 149.90 99.59 154.93 95.83 156.68 95.11 C 158.43 94.40 160.57 93.03 161.44 92.06 C 162.90 90.45 162.86 90.10 161.02 87.75 C 158.84 84.98 146.04 76.45 138.70 72.89 C 133.33 70.27 131.81 70.96 129.92 76.83 C 128.12 82.45 117.44 103.07 112.11 111.22 C 109.49 115.22 104.35 122.03 100.68 126.34 C 91.19 137.49 91.85 139.63 103.04 133.98 Z "/>
</g>
</svg>