<?xml version="1.0" encoding="UTF-8" standalone="no"?>
<!DOCTYPE svg PUBLIC "-//W3C//DTD SVG 1.1//EN" "http://www.w3.org/Graphics/SVG/1.1/DTD/svg11.dtd" >
<svg xmlns="http://www.w3.org/2000/svg" xmlns:xlink="http://www.w3.org/1999/xlink" version="1.1" viewBox="0 0 256 256">
 <g >
 <path fill="currentColor"
d=" M 166.55 246.52 C 185.31 242.93 191.61 235.17 194.73 211.80 C 196.31 200.00 196.31 200.00 214.57 200.00 C 224.62 200.00 233.55 199.73 234.42 199.39 C 237.23 198.31 236.12 195.28 230.18 187.81 C 223.41 179.29 215.47 172.00 212.96 172.00 C 210.91 172.00 206.78 176.49 200.97 185.04 C 198.69 188.40 196.71 191.01 196.58 190.83 C 196.27 190.40 197.64 159.39 198.53 146.77 C 199.21 137.04 199.21 137.04 221.36 136.77 C 242.92 136.51 243.51 136.45 243.80 134.42 C 244.38 130.34 229.30 111.65 221.62 106.93 C 216.74 103.94 216.48 104.18 201.57 125.42 C 198.11 130.33 198.11 130.33 198.71 111.92 C 199.30 93.50 199.30 93.50 204.15 88.17 C 210.16 81.56 210.56 78.25 205.75 74.70 C 197.24 68.42 184.57 61.71 180.30 61.22 C 175.89 60.73 175.75 60.81 170.13 66.86 C 164.43 73.00 164.43 73.00 130.72 73.00 C 97.01 73.00 97.01 73.00 85.50 68.39 C 79.17 65.86 73.78 63.45 73.52 63.04 C 73.27 62.62 75.28 59.41 78.01 55.89 C 82.95 49.50 82.95 49.50 154.01 49.00 C 231.57 48.45 228.46 48.72 225.44 42.89 C 224.67 41.39 219.64 35.66 214.27 30.16 C 206.44 22.14 203.77 20.02 200.82 19.48 C 195.89 18.58 193.90 20.18 185.06 32.14 C 177.94 41.78 177.94 41.78 133.22 42.20 C 108.62 42.43 88.34 42.51 88.15 42.38 C 87.96 42.25 89.18 40.15 90.85 37.71 C 93.27 34.20 94.85 33.02 98.54 31.99 C 106.50 29.76 106.71 24.47 99.00 20.51 C 95.47 18.70 62.75 8.00 60.74 8.00 C 58.43 8.00 58.03 8.97 51.11 31.16 C 41.31 62.64 34.57 77.99 21.33 98.95 C 15.79 107.72 14.94 110.87 17.53 113.02 C 20.04 115.11 28.67 108.42 46.89 90.27 C 63.28 73.94 63.28 73.94 62.58 85.72 C 62.20 92.20 61.24 104.43 60.44 112.91 C 59.65 121.39 59.00 128.75 59.00 129.28 C 59.00 130.44 15.42 129.69 12.60 128.48 C 10.97 127.79 11.10 128.39 13.55 132.74 C 16.40 137.82 16.40 137.82 37.71 137.26 C 59.01 136.70 59.01 136.70 58.52 139.60 C 58.25 141.19 57.30 147.68 56.43 154.00 C 53.24 176.95 51.74 182.35 47.14 187.57 C 44.86 190.16 43.00 193.17 43.00 194.25 C 43.00 197.29 56.58 210.08 63.85 213.89 C 71.85 218.09 72.88 217.69 80.08 207.61 C 85.50 200.03 85.50 200.03 123.25 200.02 C 144.01 200.01 161.00 200.37 161.00 200.82 C 161.00 203.65 157.45 211.24 155.65 212.26 C 154.24 213.06 146.29 213.65 132.50 213.99 C 112.16 214.48 111.49 214.57 111.20 216.59 C 110.81 219.31 111.86 220.03 122.00 224.03 C 131.40 227.73 137.00 232.31 137.00 236.28 C 137.00 242.25 138.26 245.21 141.40 246.57 C 145.53 248.37 157.01 248.35 166.55 246.52 Z  M 86.07 186.75 C 86.10 183.31 87.34 170.82 88.82 159.00 C 91.50 137.50 91.50 137.50 127.75 137.24 C 164.00 136.98 164.00 136.98 164.02 144.74 C 164.03 149.01 163.49 161.61 162.82 172.75 C 161.61 193.00 161.61 193.00 123.80 193.00 C 86.00 193.00 86.00 193.00 86.07 186.75 Z  M 134.77 188.45 C 145.28 184.06 148.53 174.66 144.04 161.62 C 141.20 153.36 138.69 150.43 131.70 147.15 C 124.17 143.63 109.86 139.73 107.61 140.59 C 106.72 140.94 105.70 142.33 105.36 143.69 C 104.88 145.62 105.51 146.95 108.26 149.83 C 112.98 154.77 114.31 159.55 114.15 170.95 C 113.99 181.76 114.87 184.32 119.91 187.72 C 123.91 190.41 129.43 190.68 134.77 188.45 Z  M 93.00 126.48 C 93.00 122.21 96.77 84.42 97.51 81.25 C 98.04 79.00 98.04 79.00 132.02 79.00 C 166.00 79.00 166.00 79.00 166.00 95.35 C 166.00 104.34 165.71 115.81 165.35 120.85 C 164.70 130.00 164.70 130.00 128.85 130.00 C 93.00 130.00 93.00 130.00 93.00 126.48 Z  M 135.30 126.65 C 139.68 124.82 144.76 118.82 145.56 114.52 C 146.83 107.76 143.88 99.20 138.35 93.58 C 133.63 88.79 120.63 83.27 112.11 82.43 C 104.71 81.71 104.71 81.71 105.43 84.61 C 105.82 86.20 107.53 88.88 109.23 90.57 C 113.64 94.95 114.94 100.33 114.27 111.53 C 113.71 120.91 113.71 120.91 117.26 124.46 C 120.48 127.68 121.32 128.00 126.43 128.00 C 129.53 128.00 133.52 127.39 135.30 126.65 Z "/>
</g>
</svg>