<?xml version="1.0" encoding="UTF-8" standalone="no"?>
<!DOCTYPE svg PUBLIC "-//W3C//DTD SVG 1.1//EN" "http://www.w3.org/Graphics/SVG/1.1/DTD/svg11.dtd" >
<svg xmlns="http://www.w3.org/2000/svg" xmlns:xlink="http://www.w3.org/1999/xlink" version="1.1" viewBox="0 0 256 256">
 <g >
 <path fill="currentColor"
d=" M 23.07 242.86 C 35.37 233.91 43.28 226.74 50.96 217.59 C 63.25 202.96 65.64 197.81 70.27 176.00 C 72.50 165.50 72.50 165.50 91.65 165.23 C 117.27 164.87 117.47 164.61 103.21 150.75 C 98.82 146.49 94.66 143.00 93.96 143.00 C 92.45 143.00 85.79 149.97 82.25 155.25 C 80.34 158.10 79.06 159.00 76.92 159.00 C 74.11 159.00 74.11 159.00 74.15 140.00 C 74.18 121.00 74.18 121.00 88.51 121.00 C 96.39 121.00 103.55 120.73 104.42 120.39 C 106.82 119.47 106.32 116.33 103.03 111.54 C 99.11 105.84 91.24 98.97 89.43 99.67 C 88.65 99.97 85.75 103.31 82.99 107.11 C 79.72 111.60 77.29 114.00 76.01 114.00 C 74.12 114.00 74.05 113.28 74.16 97.08 C 74.28 80.17 74.28 80.17 77.10 78.08 C 79.52 76.29 81.36 76.00 90.21 75.99 C 103.85 75.97 107.97 75.24 108.93 72.66 C 109.57 70.93 109.97 71.38 111.49 75.56 C 116.82 90.15 118.85 92.20 125.71 89.93 C 127.59 89.31 129.36 89.02 129.63 89.30 C 131.12 90.79 109.97 125.41 101.85 134.78 C 98.21 138.98 97.89 144.01 101.25 143.99 C 104.52 143.97 116.35 137.24 125.49 130.20 C 129.85 126.84 133.56 124.22 133.72 124.39 C 134.54 125.21 123.40 152.18 116.81 165.34 C 114.65 169.65 108.61 179.50 103.39 187.22 C 96.33 197.64 93.97 201.92 94.20 203.88 C 95.04 211.19 104.95 204.95 124.85 184.55 C 132.19 177.03 138.34 171.01 138.50 171.18 C 138.67 171.36 139.90 174.23 141.25 177.56 C 142.60 180.89 145.35 186.01 147.35 188.92 C 149.36 191.84 151.00 194.57 151.00 195.00 C 151.00 196.56 126.26 216.30 118.21 221.17 C 113.65 223.93 102.55 229.72 93.55 234.03 C 84.55 238.35 76.88 242.38 76.51 242.98 C 75.19 245.12 78.16 247.00 82.87 247.00 C 93.09 247.00 125.66 237.20 140.87 229.56 C 145.65 227.17 153.57 222.89 158.47 220.07 C 167.39 214.94 167.39 214.94 174.45 221.83 C 178.33 225.63 183.60 230.13 186.16 231.85 C 192.14 235.86 210.81 245.00 213.01 245.00 C 215.23 245.00 217.04 242.80 221.03 235.20 C 224.75 228.10 232.61 220.34 239.38 217.06 C 249.41 212.20 247.75 209.40 233.92 207.86 C 213.37 205.57 190.25 199.39 191.36 196.49 C 192.23 194.22 213.46 168.54 218.82 163.27 C 226.03 156.18 225.76 154.38 216.50 147.28 C 209.09 141.60 198.53 136.00 195.24 136.00 C 192.28 136.00 188.59 139.36 186.53 143.93 C 184.70 148.00 184.70 148.00 170.73 148.00 C 156.77 148.00 156.77 148.00 158.54 145.25 C 163.39 137.70 165.75 135.08 168.40 134.32 C 172.69 133.08 173.87 130.62 171.46 127.95 C 168.42 124.59 162.85 122.16 152.40 119.65 C 142.80 117.34 142.80 117.34 149.15 112.38 C 152.64 109.65 157.60 106.63 160.17 105.66 C 165.70 103.57 167.40 101.82 166.53 99.10 C 165.73 96.57 161.84 94.22 150.54 89.40 C 141.58 85.58 141.58 85.58 170.54 79.84 C 186.47 76.68 200.22 74.07 201.09 74.05 C 202.12 74.02 203.12 75.51 203.93 78.25 C 206.58 87.29 211.24 90.99 220.00 90.99 C 230.62 90.99 235.67 84.98 234.75 73.46 C 234.48 70.13 233.48 65.90 232.52 64.05 C 229.85 58.87 222.03 51.05 217.02 48.53 C 210.86 45.43 195.60 41.14 189.50 40.79 C 184.93 40.52 184.47 40.70 184.17 42.82 C 183.92 44.56 185.21 46.46 189.26 50.32 C 194.56 55.38 198.59 60.75 197.73 61.60 C 197.49 61.84 184.52 61.91 168.90 61.77 C 140.50 61.50 140.50 61.50 156.25 50.20 C 169.62 40.60 172.78 38.77 177.25 38.03 C 184.36 36.85 186.00 36.10 186.00 34.00 C 186.00 29.41 168.84 15.28 159.17 11.91 C 155.21 10.53 153.48 11.72 151.01 17.49 C 148.51 23.31 138.08 36.76 130.73 43.64 C 127.12 47.01 120.85 51.42 116.23 53.82 C 111.75 56.15 107.79 58.53 107.44 59.10 C 107.09 59.67 106.76 61.65 106.70 63.49 C 106.61 66.85 106.61 66.85 100.75 61.43 C 97.52 58.44 94.12 56.01 93.19 56.02 C 92.26 56.03 89.25 58.73 86.50 62.03 C 81.47 68.06 79.11 69.45 74.94 68.83 C 72.83 68.52 73.02 68.12 77.64 63.00 C 80.36 59.98 86.36 52.86 90.96 47.19 C 96.15 40.79 100.76 36.14 103.10 34.95 C 105.17 33.89 107.57 32.02 108.44 30.79 C 109.90 28.70 109.85 28.40 107.75 26.39 C 103.74 22.54 79.46 10.72 77.11 11.46 C 74.78 12.20 74.85 11.98 72.50 27.50 C 70.78 38.90 64.84 63.56 62.99 67.02 C 62.00 68.87 60.85 69.00 46.00 69.00 C 37.24 69.00 25.55 68.49 20.01 67.86 C 14.48 67.23 9.69 66.97 9.38 67.29 C 9.06 67.61 10.27 69.70 12.07 71.93 C 15.33 76.00 15.33 76.00 30.17 76.00 C 45.00 76.00 45.00 76.00 45.00 95.16 C 45.00 114.31 45.00 114.31 30.95 113.67 C 15.83 112.98 16.37 112.75 20.37 118.25 C 22.35 120.97 22.50 121.00 33.69 121.00 C 45.00 121.00 45.00 121.00 45.00 130.85 C 45.00 136.26 44.70 144.87 44.34 149.98 C 43.68 159.27 43.68 159.27 27.59 158.70 C 18.74 158.38 10.42 157.80 9.09 157.40 C 6.73 156.70 6.75 156.77 9.86 161.29 C 13.03 165.90 13.03 165.90 28.63 165.29 C 43.67 164.70 44.22 164.75 43.67 166.59 C 43.36 167.64 42.63 172.05 42.04 176.39 C 40.15 190.49 35.20 206.38 29.60 216.37 C 27.71 219.74 22.75 227.21 18.58 232.96 C 14.41 238.72 11.00 244.14 11.00 245.01 C 11.00 246.59 12.83 249.00 14.02 249.00 C 14.37 249.00 18.44 246.24 23.07 242.86 Z  M 229.96 138.38 C 234.34 134.70 236.29 130.38 236.29 124.37 C 236.29 117.38 231.14 107.86 224.73 103.00 C 217.59 97.58 201.38 92.10 187.88 90.54 C 183.40 90.02 181.92 90.22 180.63 91.52 C 177.83 94.31 178.45 95.29 186.32 100.46 C 194.78 106.02 200.86 114.09 205.42 125.79 C 210.92 139.91 211.97 140.92 221.17 140.97 C 225.86 140.99 227.39 140.54 229.96 138.38 Z  M 51.17 63.39 C 56.60 60.62 60.61 51.84 59.42 45.31 C 57.50 34.78 50.14 26.20 37.68 19.96 C 29.58 15.90 23.00 14.75 23.00 17.38 C 23.00 18.14 24.19 21.36 25.65 24.55 C 27.87 29.40 28.41 32.36 29.00 42.92 C 29.38 49.84 30.16 56.62 30.73 58.00 C 33.65 65.03 43.09 67.52 51.17 63.39 Z  M 157.78 174.35 C 154.17 171.13 150.00 167.02 148.50 165.22 C 145.77 161.94 145.77 161.94 148.52 157.97 C 151.27 154.00 151.27 154.00 166.64 154.00 C 175.09 154.00 182.00 154.19 182.00 154.42 C 182.00 156.27 173.00 170.56 169.14 174.85 C 164.32 180.20 164.32 180.20 157.78 174.35 Z "/>
</g>
</svg>