<?xml version="1.0" encoding="UTF-8" standalone="no"?>
<!DOCTYPE svg PUBLIC "-//W3C//DTD SVG 1.1//EN" "http://www.w3.org/Graphics/SVG/1.1/DTD/svg11.dtd" >
<svg xmlns="http://www.w3.org/2000/svg" xmlns:xlink="http://www.w3.org/1999/xlink" version="1.1" viewBox="0 0 256 256">
 <g >
 <path fill="currentColor"
d=" M 28.50 239.48 C 49.50 225.42 62.63 208.09 66.46 189.41 C 68.25 180.63 69.79 159.33 70.55 132.50 C 70.88 120.95 71.53 110.60 71.99 109.50 C 72.44 108.40 73.08 106.68 73.41 105.68 C 73.75 104.61 74.73 103.99 75.75 104.19 C 77.39 104.51 77.50 107.92 77.50 159.84 C 77.50 224.69 78.86 218.47 64.82 217.72 C 56.39 217.27 54.00 217.88 54.00 220.47 C 54.00 221.06 56.67 223.01 59.94 224.80 C 66.32 228.31 69.28 232.05 71.34 239.19 C 72.54 243.36 72.73 243.51 77.04 243.84 C 87.95 244.66 97.67 239.75 100.15 232.17 C 100.99 229.60 101.47 214.37 101.75 181.55 C 102.14 134.60 102.14 134.60 104.21 137.86 C 106.84 142.01 107.92 152.05 106.87 162.50 C 105.94 171.82 106.91 176.53 110.56 180.48 C 112.82 182.91 113.67 183.18 117.57 182.75 C 122.90 182.14 122.80 181.35 119.41 197.50 C 116.11 213.25 115.55 217.61 116.77 218.36 C 118.79 219.61 126.28 209.69 131.20 199.27 C 138.98 182.78 144.66 164.54 146.55 150.00 C 147.44 143.13 148.35 137.31 148.58 137.08 C 148.81 136.85 149.00 143.15 148.99 151.08 C 148.98 175.16 145.69 190.71 136.91 208.18 C 132.03 217.89 125.90 224.64 112.72 234.80 C 107.35 238.95 103.11 242.83 103.30 243.42 C 104.49 247.04 117.88 242.84 132.57 234.26 C 151.57 223.15 162.22 211.72 167.67 196.60 C 172.12 184.27 173.18 174.47 173.65 141.50 C 173.89 123.90 174.49 108.60 174.96 107.50 C 175.43 106.40 176.07 104.71 176.38 103.75 C 176.75 102.59 177.96 102.00 179.97 102.00 C 183.00 102.00 183.00 102.00 183.00 158.50 C 183.00 225.85 184.46 219.55 169.08 218.46 C 160.98 217.88 159.21 218.01 158.74 219.22 C 157.93 221.34 158.88 222.32 164.83 225.53 C 171.42 229.08 174.82 233.00 175.61 237.94 C 176.57 243.95 177.15 244.38 184.14 244.19 C 192.28 243.96 198.79 241.75 203.63 237.57 C 207.50 234.23 207.50 234.23 208.00 185.86 C 208.50 137.50 208.50 137.50 211.41 144.50 C 214.19 151.21 214.34 152.35 214.94 172.00 C 215.58 193.06 215.92 194.79 220.16 198.62 C 227.66 205.40 240.33 199.65 243.97 187.83 C 246.63 179.14 244.35 163.17 239.29 155.00 C 233.17 145.14 218.76 130.86 211.25 127.21 C 208.00 125.63 208.00 125.63 208.00 117.38 C 208.00 110.54 208.38 108.54 210.25 105.63 C 212.50 102.12 212.50 102.12 228.00 101.81 C 242.76 101.51 243.51 101.40 243.79 99.44 C 244.17 96.83 240.29 91.96 231.19 83.60 C 221.05 74.30 220.04 74.42 211.34 86.00 C 204.57 95.00 204.57 95.00 198.28 95.00 C 192.00 95.00 192.00 95.00 192.00 78.50 C 192.00 62.00 192.00 62.00 208.38 62.00 C 230.77 62.00 231.34 61.17 218.50 47.23 C 207.93 35.75 207.34 35.74 199.02 46.97 C 196.15 50.84 193.40 54.00 192.91 54.00 C 192.41 54.00 192.00 48.17 192.00 41.05 C 192.00 28.10 192.00 28.10 195.50 25.43 C 200.18 21.86 200.17 18.78 195.48 16.56 C 191.56 14.70 170.92 11.71 165.26 12.19 C 161.62 12.50 161.62 12.50 161.89 33.90 C 162.16 55.29 162.16 55.29 146.83 54.67 C 138.40 54.32 129.25 53.75 126.50 53.40 C 121.50 52.76 121.50 52.76 125.96 57.38 C 130.42 62.00 130.42 62.00 146.21 62.00 C 162.00 62.00 162.00 62.00 162.00 78.55 C 162.00 95.09 162.00 95.09 145.00 94.80 C 135.65 94.63 128.00 94.66 128.00 94.86 C 128.00 95.05 129.43 97.02 131.19 99.24 C 134.37 103.26 134.37 103.26 141.10 102.69 C 146.56 102.24 147.95 102.42 148.42 103.65 C 149.07 105.34 149.23 122.00 148.60 122.00 C 148.37 122.00 143.76 121.07 138.35 119.93 C 132.93 118.80 127.83 117.78 127.00 117.68 C 125.74 117.53 125.42 120.00 125.00 132.98 C 124.50 148.47 124.50 148.47 121.19 143.31 C 117.54 137.61 111.50 131.68 105.75 128.14 C 102.00 125.84 102.00 125.84 102.00 117.87 C 102.00 112.68 102.53 108.87 103.53 106.95 C 105.05 104.00 105.05 104.00 117.06 104.00 C 130.31 104.00 131.36 103.49 128.65 98.34 C 125.90 93.11 111.12 80.00 107.98 80.00 C 106.84 80.00 103.65 83.11 99.81 87.98 C 90.41 99.88 90.00 99.52 90.00 79.50 C 90.00 63.00 90.00 63.00 105.42 63.00 C 113.90 63.00 121.55 62.73 122.42 62.39 C 123.29 62.06 124.00 60.64 124.00 59.21 C 124.00 57.31 121.81 54.43 115.69 48.31 C 111.11 43.74 106.56 40.00 105.57 40.00 C 103.71 40.00 98.89 44.52 93.30 51.50 C 90.11 55.50 90.11 55.50 90.06 42.50 C 90.01 29.50 90.01 29.50 92.87 27.58 C 99.52 23.13 99.09 19.64 91.64 17.55 C 85.77 15.91 70.81 14.01 63.70 14.00 C 58.89 14.00 58.89 14.00 59.20 34.75 C 59.50 55.50 59.50 55.50 39.63 55.26 C 17.74 54.99 18.95 54.55 24.38 60.75 C 26.28 62.92 26.98 63.00 43.17 63.00 C 60.00 63.00 60.00 63.00 60.00 80.13 C 60.00 97.25 60.00 97.25 37.06 96.82 C 21.09 96.52 14.31 96.71 14.75 97.44 C 18.72 104.15 18.30 104.00 32.69 104.00 C 46.00 104.00 46.00 104.00 46.00 114.00 C 46.00 119.50 45.63 124.00 45.18 124.00 C 44.72 124.00 41.01 122.86 36.93 121.46 C 32.57 119.98 27.86 119.05 25.53 119.21 C 21.57 119.50 21.57 119.50 21.38 138.50 C 21.24 152.48 20.65 160.54 19.15 169.00 C 18.03 175.32 16.63 184.09 16.03 188.48 C 15.44 192.87 14.20 198.85 13.29 201.76 C 11.73 206.71 11.73 207.16 13.30 208.73 C 14.88 210.30 15.19 210.20 18.34 207.15 C 26.86 198.90 37.03 175.63 42.10 152.80 C 45.50 137.50 45.50 137.50 45.81 148.00 C 46.24 162.45 44.31 186.46 41.99 195.53 C 38.42 209.51 28.53 227.49 20.01 235.50 C 16.30 238.99 14.07 242.94 14.75 244.83 C 15.51 246.99 19.77 245.33 28.50 239.48 Z "/>
</g>
</svg>