<?xml version="1.0" encoding="UTF-8" standalone="no"?>
<!DOCTYPE svg PUBLIC "-//W3C//DTD SVG 1.1//EN" "http://www.w3.org/Graphics/SVG/1.1/DTD/svg11.dtd" >
<svg xmlns="http://www.w3.org/2000/svg" xmlns:xlink="http://www.w3.org/1999/xlink" version="1.1" viewBox="0 0 256 256">
 <g >
 <path fill="currentColor"
d=" M 69.30 241.25 C 83.35 230.53 92.65 221.49 101.30 210.16 C 118.38 187.76 123.63 177.99 133.54 150.15 C 136.73 141.16 139.83 133.62 140.43 133.40 C 141.02 133.18 149.49 131.95 159.25 130.68 C 171.12 129.12 177.00 128.71 177.00 129.43 C 177.00 132.71 172.41 153.65 167.51 172.70 C 160.87 198.50 154.30 219.01 152.67 218.99 C 152.03 218.98 145.44 213.84 138.04 207.56 C 124.05 195.69 124.27 195.79 119.63 199.43 C 117.85 200.82 118.16 201.44 125.69 211.70 C 130.06 217.64 136.40 226.58 139.79 231.56 C 149.07 245.18 152.10 248.42 154.82 247.56 C 158.03 246.54 161.47 240.57 167.49 225.56 C 177.06 201.73 183.85 177.86 189.00 150.00 C 192.45 131.35 193.50 128.54 198.57 124.39 C 201.01 122.39 203.00 120.21 203.00 119.55 C 203.00 117.58 188.34 103.93 186.85 104.50 C 186.10 104.79 184.15 107.05 182.50 109.52 C 180.85 112.00 178.60 114.23 177.50 114.48 C 172.57 115.63 143.81 119.14 143.32 118.66 C 143.03 118.36 143.71 114.38 144.85 109.81 C 145.98 105.24 147.16 100.30 147.46 98.83 C 147.76 97.36 149.19 94.74 150.64 93.02 C 153.28 89.88 153.28 89.88 150.14 86.64 C 148.41 84.86 147.00 83.15 147.00 82.83 C 147.00 81.46 157.58 79.84 188.30 76.49 C 206.34 74.52 222.21 72.49 223.58 71.97 C 226.96 70.68 227.84 68.00 225.42 66.30 C 211.61 56.57 212.04 56.67 198.80 59.90 C 180.59 64.34 172.36 65.54 129.50 69.98 C 108.05 72.19 88.34 74.65 85.70 75.43 C 80.91 76.85 80.91 76.85 86.53 66.31 C 94.77 50.89 97.45 46.82 102.20 42.56 C 106.47 38.73 106.47 38.73 99.14 31.86 C 95.11 28.09 90.96 25.00 89.91 25.00 C 88.75 25.00 86.77 26.89 84.79 29.88 C 81.56 34.76 81.56 34.76 66.03 36.47 C 57.49 37.41 49.89 38.25 49.14 38.34 C 48.31 38.44 45.92 34.24 42.99 27.53 C 40.35 21.50 37.68 16.39 37.05 16.18 C 36.43 15.98 34.84 16.08 33.52 16.41 C 31.48 16.92 31.19 17.48 31.58 20.25 C 33.47 33.65 33.80 62.14 32.85 132.50 C 31.86 206.64 31.71 210.63 29.90 213.21 C 28.86 214.70 28.00 217.50 28.00 219.44 C 28.00 226.00 36.35 245.05 40.11 247.06 C 42.99 248.60 43.90 247.44 45.78 239.85 C 47.05 234.74 47.46 224.47 47.93 187.20 C 48.50 140.91 48.50 140.91 60.00 154.14 C 76.55 173.19 77.39 174.00 80.33 174.00 C 83.42 174.00 86.64 169.05 91.20 157.30 C 95.54 146.13 95.97 135.60 92.61 122.64 C 89.85 111.99 87.46 107.21 80.79 99.01 C 73.25 89.75 73.58 90.75 76.40 85.34 C 80.53 77.40 80.75 77.20 81.87 80.16 C 82.50 81.82 85.17 84.04 89.35 86.38 C 95.85 90.02 95.85 90.02 110.15 87.51 C 131.24 83.81 129.42 83.05 128.68 95.25 C 127.32 117.53 117.35 153.43 104.57 182.01 C 97.07 198.81 93.86 203.79 83.55 214.73 C 76.83 221.85 59.45 237.23 53.14 241.64 C 52.46 242.11 57.16 249.00 58.16 249.00 C 58.70 249.00 63.72 245.51 69.30 241.25 Z  M 153.94 65.03 C 154.93 64.50 157.02 61.01 158.58 57.28 C 160.13 53.55 162.04 49.49 162.81 48.26 C 164.55 45.48 163.78 41.89 160.28 36.50 C 156.98 31.40 142.17 13.39 138.21 9.66 C 135.26 6.87 135.16 6.85 132.53 8.57 C 130.86 9.67 130.05 10.92 130.37 11.91 C 130.66 12.79 133.66 20.70 137.05 29.50 C 140.44 38.30 144.30 49.55 145.63 54.50 C 146.97 59.45 148.81 64.06 149.72 64.75 C 151.72 66.25 151.67 66.25 153.94 65.03 Z  M 64.52 139.34 C 53.59 132.04 51.37 130.91 49.81 131.89 C 48.04 132.99 47.99 131.60 48.24 92.77 C 48.50 52.51 48.50 52.51 62.33 50.67 C 69.94 49.66 76.40 49.07 76.69 49.36 C 76.98 49.65 74.00 58.28 70.07 68.53 C 66.14 78.78 62.66 88.46 62.34 90.04 C 61.85 92.52 62.61 93.85 67.90 99.71 C 77.72 110.58 80.78 121.09 78.91 137.50 C 78.28 143.00 77.68 147.60 77.58 147.72 C 77.48 147.84 71.60 144.07 64.52 139.34 Z "/>
</g>
</svg>