<?xml version="1.0" encoding="UTF-8" standalone="no"?>
<!DOCTYPE svg PUBLIC "-//W3C//DTD SVG 1.1//EN" "http://www.w3.org/Graphics/SVG/1.1/DTD/svg11.dtd" >
<svg xmlns="http://www.w3.org/2000/svg" xmlns:xlink="http://www.w3.org/1999/xlink" version="1.1" viewBox="0 0 256 256">
 <g >
 <path fill="currentColor"
d=" M 98.00 241.20 C 98.00 236.97 97.51 237.00 166.70 237.00 C 231.67 237.00 233.04 237.04 235.00 239.00 C 236.10 240.10 237.00 241.45 237.00 242.00 C 237.00 242.55 237.90 243.00 239.00 243.00 C 240.91 243.00 241.00 242.33 241.00 228.50 C 241.00 214.67 240.91 214.00 239.00 214.00 C 237.90 214.00 237.00 214.45 237.00 215.00 C 237.00 215.55 236.10 216.90 235.00 218.00 C 233.36 219.64 231.67 220.00 225.59 220.00 C 218.18 220.00 218.18 220.00 220.06 213.75 C 223.68 201.73 224.92 199.27 228.04 197.98 C 230.35 197.03 231.00 196.13 231.00 193.88 C 231.00 191.00 231.00 191.00 203.50 191.00 C 176.00 191.00 176.00 191.00 176.00 193.89 C 176.00 196.12 176.56 196.92 178.43 197.39 C 181.99 198.29 182.20 200.48 179.66 210.50 C 177.38 219.50 177.38 219.50 166.89 219.78 C 156.41 220.06 156.41 220.06 154.07 210.35 C 151.72 200.63 151.72 200.63 154.36 198.36 C 155.93 197.02 157.00 195.06 157.00 193.55 C 157.00 191.00 157.00 191.00 130.50 191.00 C 104.00 191.00 104.00 191.00 104.04 193.75 C 104.07 195.74 104.97 197.06 107.29 198.52 C 110.02 200.23 110.82 201.72 112.67 208.52 C 115.92 220.51 116.12 220.00 108.33 220.00 C 101.54 220.00 98.00 218.41 98.00 215.35 C 98.00 214.58 96.93 214.00 95.50 214.00 C 93.00 214.00 93.00 214.00 93.00 228.50 C 93.00 243.00 93.00 243.00 95.50 243.00 C 97.24 243.00 98.00 242.45 98.00 241.20 Z  M 18.00 216.56 C 18.00 215.76 19.01 213.99 20.25 212.62 C 22.32 210.32 24.82 209.75 51.26 205.50 C 67.08 202.95 80.92 201.16 82.01 201.50 C 83.11 201.85 84.47 203.00 85.04 204.07 C 85.63 205.18 87.12 206.00 88.54 206.00 C 91.00 206.00 91.00 206.00 91.00 191.00 C 91.00 176.00 91.00 176.00 88.48 176.00 C 86.72 176.00 85.67 176.74 85.02 178.44 C 83.91 181.38 81.88 182.54 76.25 183.47 C 72.00 184.18 72.00 184.18 72.00 142.45 C 72.00 100.73 72.00 100.73 76.75 101.36 C 80.12 101.81 82.09 102.72 83.54 104.50 C 84.66 105.87 86.57 107.00 87.79 107.00 C 89.97 107.00 90.00 106.78 90.00 93.00 C 90.00 79.22 89.97 79.00 87.79 79.00 C 86.57 79.00 84.66 80.13 83.54 81.50 C 82.09 83.29 80.12 84.19 76.73 84.64 C 71.97 85.28 71.97 85.28 72.23 57.89 C 72.50 30.50 72.50 30.50 75.73 29.00 C 78.39 27.76 78.96 26.93 78.98 24.25 C 79.00 21.00 79.00 21.00 52.00 21.00 C 25.00 21.00 25.00 21.00 25.00 24.50 C 25.00 26.87 25.46 28.00 26.43 28.00 C 27.21 28.00 28.56 28.71 29.43 29.57 C 30.78 30.92 31.00 34.87 31.00 57.51 C 31.00 74.64 30.64 84.11 29.96 84.52 C 29.39 84.88 27.11 84.86 24.90 84.48 C 21.99 83.99 20.56 83.13 19.77 81.40 C 19.07 79.86 17.84 79.00 16.34 79.00 C 14.00 79.00 14.00 79.00 14.00 93.00 C 14.00 107.00 14.00 107.00 16.34 107.00 C 17.85 107.00 19.07 106.13 19.79 104.55 C 20.55 102.89 22.04 101.90 24.45 101.44 C 31.43 100.13 31.00 97.19 31.00 146.42 C 31.00 190.91 31.00 190.91 27.63 191.54 C 22.56 192.49 19.61 191.75 18.51 189.25 C 17.91 187.87 16.65 187.00 15.26 187.00 C 13.01 187.00 13.00 187.07 13.00 202.50 C 13.00 218.00 13.00 218.00 15.50 218.00 C 17.01 218.00 18.00 217.43 18.00 216.56 Z  M 238.00 176.00 C 238.00 174.00 237.50 173.00 236.50 173.00 C 235.68 173.00 234.10 172.10 233.00 171.00 C 231.12 169.12 231.00 167.67 231.00 147.08 C 231.00 135.03 231.28 124.44 231.62 123.54 C 231.96 122.65 233.54 121.26 235.12 120.44 C 237.31 119.30 238.00 118.24 238.00 115.97 C 238.00 113.00 238.00 113.00 167.50 113.00 C 97.00 113.00 97.00 113.00 97.00 115.71 C 97.00 117.47 97.96 119.19 99.75 120.62 C 102.50 122.81 102.50 122.81 102.81 143.65 C 103.17 167.86 102.84 170.66 99.45 172.21 C 97.69 173.01 97.00 174.12 97.00 176.16 C 97.00 179.00 97.00 179.00 167.50 179.00 C 238.00 179.00 238.00 179.00 238.00 176.00 Z  M 101.51 101.78 C 102.06 100.56 103.62 99.26 105.00 98.88 C 108.19 98.01 223.67 97.78 227.96 98.64 C 229.98 99.05 231.57 100.16 232.25 101.64 C 232.93 103.14 234.17 104.00 235.66 104.00 C 238.00 104.00 238.00 104.00 238.00 90.00 C 238.00 76.00 238.00 76.00 235.61 76.00 C 233.88 76.00 233.04 76.71 232.58 78.54 C 232.22 79.98 230.85 81.49 229.41 82.04 C 225.70 83.45 109.21 83.32 105.14 81.90 C 103.15 81.20 101.77 79.92 101.39 78.40 C 101.02 76.92 100.05 76.00 98.89 76.00 C 97.13 76.00 97.00 76.93 97.00 90.00 C 97.00 102.71 97.16 104.00 98.76 104.00 C 99.73 104.00 100.97 103.00 101.51 101.78 Z  M 242.00 65.04 C 242.00 62.98 241.31 61.71 239.75 60.89 C 238.51 60.23 237.17 59.21 236.77 58.60 C 236.36 58.00 236.02 51.31 236.02 43.75 C 236.00 31.32 236.19 29.81 238.00 28.00 C 239.10 26.90 240.45 26.00 241.00 26.00 C 241.55 26.00 242.00 24.65 242.00 23.00 C 242.00 20.00 242.00 20.00 219.50 20.00 C 197.00 20.00 197.00 20.00 197.00 22.76 C 197.00 24.44 197.78 26.01 199.00 26.77 C 200.82 27.90 201.00 29.10 201.00 40.05 C 201.00 52.09 201.00 52.09 194.25 51.80 C 187.50 51.50 187.50 51.50 187.20 40.50 C 186.80 25.81 187.36 23.07 191.07 21.67 C 193.34 20.81 194.00 19.94 194.00 17.78 C 194.00 15.00 194.00 15.00 167.00 15.00 C 140.00 15.00 140.00 15.00 140.00 17.46 C 140.00 19.00 140.85 20.37 142.25 21.11 C 143.49 21.77 144.83 22.79 145.23 23.40 C 145.64 24.00 145.98 30.71 145.98 38.30 C 146.00 52.09 146.00 52.09 139.25 51.80 C 132.50 51.50 132.50 51.50 132.18 45.00 C 131.76 36.40 132.80 28.34 134.57 26.57 C 135.36 25.79 136.00 23.99 136.00 22.57 C 136.00 20.00 136.00 20.00 114.00 20.00 C 92.00 20.00 92.00 20.00 92.00 23.00 C 92.00 24.93 92.51 26.00 93.43 26.00 C 94.21 26.00 95.79 27.19 96.93 28.63 C 98.76 30.96 99.00 32.64 98.99 42.88 C 98.97 56.91 98.56 58.66 94.87 60.57 C 92.69 61.70 92.00 62.76 92.00 65.03 C 92.00 68.00 92.00 68.00 167.00 68.00 C 242.00 68.00 242.00 68.00 242.00 65.04 Z  M 143.23 146.75 C 143.50 130.50 143.50 130.50 166.75 130.23 C 190.00 129.96 190.00 129.96 190.00 146.48 C 190.00 163.00 190.00 163.00 166.48 163.00 C 142.95 163.00 142.95 163.00 143.23 146.75 Z "/>
</g>
</svg>