<?xml version="1.0" encoding="UTF-8" standalone="no"?>
<!DOCTYPE svg PUBLIC "-//W3C//DTD SVG 1.1//EN" "http://www.w3.org/Graphics/SVG/1.1/DTD/svg11.dtd" >
<svg xmlns="http://www.w3.org/2000/svg" xmlns:xlink="http://www.w3.org/1999/xlink" version="1.1" viewBox="0 0 256 256">
 <g >
 <path fill="currentColor"
d=" M 54.00 239.72 C 54.00 237.68 53.24 235.80 52.00 234.73 C 50.07 233.08 50.00 231.78 50.00 196.51 C 50.00 160.00 50.00 160.00 56.00 160.00 C 62.00 160.00 62.00 160.00 62.00 195.56 C 62.00 219.01 61.66 230.91 61.00 230.50 C 60.45 230.16 60.00 229.01 60.00 227.94 C 60.00 226.87 59.33 226.00 58.50 226.00 C 57.28 226.00 57.00 227.61 57.00 234.50 C 57.00 243.00 57.00 243.00 78.00 243.00 C 99.00 243.00 99.00 243.00 99.00 239.74 C 99.00 237.56 98.34 236.07 97.00 235.23 C 95.02 234.00 95.00 232.90 95.00 134.15 C 95.00 34.32 95.00 34.32 97.50 33.18 C 99.20 32.41 100.00 31.24 100.00 29.52 C 100.00 27.00 100.00 27.00 56.50 27.00 C 13.00 27.00 13.00 27.00 13.00 29.76 C 13.00 31.44 13.78 33.01 15.00 33.77 C 16.98 35.00 17.00 36.10 17.00 133.85 C 17.00 231.42 16.97 232.71 15.00 234.50 C 13.76 235.62 13.00 237.58 13.00 239.65 C 13.00 243.00 13.00 243.00 33.50 243.00 C 54.00 243.00 54.00 243.00 54.00 239.72 Z  M 161.22 236.97 C 172.18 230.93 172.18 230.93 183.26 236.97 C 194.35 243.00 194.35 243.00 216.17 243.00 C 238.00 243.00 238.00 243.00 238.00 231.50 C 238.00 220.00 238.00 220.00 235.50 220.00 C 234.00 220.00 233.00 220.57 233.00 221.43 C 233.00 223.79 230.05 226.00 226.90 226.00 C 224.28 226.00 204.06 216.27 204.03 215.00 C 204.02 214.72 208.63 211.99 214.26 208.92 C 224.50 203.33 224.50 203.33 224.78 189.17 C 225.05 175.00 225.05 175.00 227.46 175.00 C 230.12 175.00 233.00 177.37 233.00 179.57 C 233.00 180.43 234.00 181.00 235.50 181.00 C 238.00 181.00 238.00 181.00 238.00 166.50 C 238.00 152.05 237.99 152.00 235.71 152.00 C 233.98 152.00 233.18 152.81 232.46 155.25 C 231.50 158.50 231.50 158.50 193.75 158.76 C 170.48 158.92 156.00 158.66 156.00 158.08 C 156.00 155.41 158.25 151.85 160.48 151.01 C 162.41 150.28 163.00 149.34 163.00 147.02 C 163.00 144.00 163.00 144.00 138.00 144.00 C 113.00 144.00 113.00 144.00 113.00 147.02 C 113.00 149.30 113.60 150.28 115.40 150.96 C 118.14 152.00 118.47 152.45 119.38 156.25 C 120.01 158.89 119.88 159.00 116.17 159.00 C 112.29 159.00 109.97 157.38 108.68 153.75 C 108.34 152.79 107.15 152.00 106.03 152.00 C 104.08 152.00 104.00 152.59 104.00 166.50 C 104.00 181.00 104.00 181.00 106.50 181.00 C 108.04 181.00 109.00 180.43 109.00 179.52 C 109.00 177.33 113.46 174.81 116.69 175.18 C 119.50 175.50 119.50 175.50 119.79 189.50 C 120.07 203.50 120.07 203.50 130.02 209.00 C 135.49 212.03 139.97 214.72 139.97 215.00 C 139.97 216.21 119.90 226.00 117.42 226.00 C 114.43 226.00 111.00 223.51 111.00 221.35 C 111.00 220.58 109.93 220.00 108.50 220.00 C 106.00 220.00 106.00 220.00 106.00 231.50 C 106.00 243.00 106.00 243.00 128.13 243.00 C 150.26 243.00 150.26 243.00 161.22 236.97 Z  M 147.76 134.55 C 147.32 130.62 147.68 129.52 150.88 125.10 C 152.87 122.35 155.73 118.27 157.24 116.05 C 159.98 112.00 159.98 112.00 174.00 112.00 C 188.01 112.00 188.01 112.00 192.62 119.25 C 195.15 123.24 198.19 127.57 199.36 128.89 C 200.87 130.57 201.13 131.41 200.25 131.72 C 199.56 131.97 199.00 133.70 199.00 135.58 C 199.00 139.00 199.00 139.00 220.50 139.00 C 242.00 139.00 242.00 139.00 241.98 135.75 C 241.96 133.07 241.39 132.24 238.73 131.00 C 235.58 129.54 225.13 115.98 225.04 113.25 C 224.97 111.09 229.98 111.89 232.55 114.45 C 233.90 115.80 235.00 117.38 235.00 117.95 C 235.00 118.53 236.12 119.00 237.50 119.00 C 240.00 119.00 240.00 119.00 240.00 104.50 C 240.00 90.75 239.90 90.00 238.04 90.00 C 236.95 90.00 235.54 91.01 234.89 92.25 C 234.23 93.49 233.21 94.83 232.60 95.23 C 232.00 95.64 222.39 95.98 211.25 95.98 C 191.00 96.00 191.00 96.00 191.00 86.50 C 191.00 77.00 191.00 77.00 210.25 77.02 C 220.84 77.02 230.00 77.36 230.60 77.77 C 231.21 78.17 232.23 79.51 232.89 80.75 C 233.54 81.99 234.95 83.00 236.04 83.00 C 237.90 83.00 238.00 82.25 238.00 68.50 C 238.00 54.00 238.00 54.00 235.57 54.00 C 233.99 54.00 232.91 54.72 232.48 56.06 C 232.12 57.19 230.71 58.54 229.35 59.06 C 226.11 60.29 219.00 60.27 219.00 59.04 C 219.00 56.75 228.14 47.17 234.23 43.06 C 240.87 38.59 240.87 38.59 236.18 35.89 C 230.23 32.45 225.07 27.07 220.62 19.66 C 217.12 13.82 217.12 13.82 214.65 18.66 C 211.29 25.24 205.91 31.27 199.96 35.12 C 197.23 36.89 195.00 38.41 195.00 38.50 C 195.00 38.59 197.48 40.38 200.52 42.47 C 205.91 46.18 212.50 53.19 214.91 57.78 C 216.10 60.06 216.10 60.06 203.80 59.78 C 191.50 59.50 191.50 59.50 191.23 42.61 C 191.00 28.72 191.22 25.31 192.50 23.36 C 193.35 22.06 194.71 21.00 195.52 21.00 C 196.54 21.00 197.00 19.92 197.00 17.50 C 197.00 14.00 197.00 14.00 171.00 14.00 C 145.00 14.00 145.00 14.00 145.00 16.95 C 145.00 19.17 145.67 20.21 147.75 21.21 C 150.50 22.53 150.50 22.53 150.77 41.26 C 151.04 60.00 151.04 60.00 139.02 60.00 C 131.98 60.00 127.00 59.60 127.00 59.04 C 127.00 57.24 139.05 45.17 144.04 41.97 C 148.99 38.80 148.99 38.80 143.21 35.06 C 136.77 30.89 131.39 25.09 127.93 18.58 C 125.64 14.25 125.64 14.25 121.96 19.94 C 117.63 26.64 112.18 32.21 106.16 36.07 C 101.83 38.86 101.83 38.86 104.90 40.45 C 110.59 43.39 123.00 56.17 123.00 59.09 C 123.00 59.59 121.08 60.00 118.72 60.00 C 114.17 60.00 110.00 57.82 110.00 55.44 C 110.00 54.57 109.01 54.00 107.50 54.00 C 105.00 54.00 105.00 54.00 105.00 68.50 C 105.00 82.20 105.11 83.00 106.95 83.00 C 108.08 83.00 109.44 81.86 110.21 80.25 C 111.53 77.50 111.53 77.50 131.26 77.23 C 151.00 76.96 151.00 76.96 151.00 86.50 C 151.00 96.04 151.00 96.04 130.26 95.77 C 109.53 95.50 109.53 95.50 108.21 92.75 C 107.44 91.14 106.08 90.00 104.95 90.00 C 103.11 90.00 103.00 90.80 103.00 104.50 C 103.00 119.00 103.00 119.00 105.43 119.00 C 107.18 119.00 107.95 118.38 108.18 116.78 C 108.36 115.55 109.62 113.98 111.00 113.29 C 113.50 112.03 123.00 111.48 123.00 112.59 C 123.00 112.92 120.22 117.04 116.82 121.75 C 112.95 127.11 109.59 130.71 107.82 131.37 C 105.52 132.24 105.00 133.04 105.00 135.72 C 105.00 139.00 105.00 139.00 126.63 139.00 C 148.26 139.00 148.26 139.00 147.76 134.55 Z  M 50.00 122.95 C 50.00 101.90 50.00 101.90 55.75 102.20 C 61.50 102.50 61.50 102.50 61.77 123.25 C 62.04 144.00 62.04 144.00 56.02 144.00 C 50.00 144.00 50.00 144.00 50.00 122.95 Z  M 50.00 65.05 C 50.00 43.00 50.00 43.00 56.02 43.00 C 62.04 43.00 62.04 43.00 61.77 64.75 C 61.50 86.50 61.50 86.50 55.75 86.80 C 50.00 87.10 50.00 87.10 50.00 65.05 Z  M 163.75 192.35 C 156.00 187.89 156.00 187.89 156.00 181.45 C 156.00 175.00 156.00 175.00 171.50 175.00 C 187.00 175.00 187.00 175.00 186.99 181.75 C 186.98 188.50 186.98 188.50 179.64 192.75 C 175.60 195.09 172.12 196.96 171.90 196.91 C 171.68 196.86 168.01 194.81 163.75 192.35 Z "/>
</g>
</svg>