<?xml version="1.0" encoding="UTF-8" standalone="no"?>
<!DOCTYPE svg PUBLIC "-//W3C//DTD SVG 1.1//EN" "http://www.w3.org/Graphics/SVG/1.1/DTD/svg11.dtd" >
<svg xmlns="http://www.w3.org/2000/svg" xmlns:xlink="http://www.w3.org/1999/xlink" version="1.1" viewBox="0 0 256 256">
 <g >
 <path fill="currentColor"
d=" M 96.00 239.72 C 96.00 236.99 95.49 236.25 93.00 235.31 C 90.00 234.17 90.00 234.17 90.00 217.59 C 90.00 201.00 90.00 201.00 104.67 201.00 C 116.92 201.00 119.64 201.27 121.17 202.65 C 122.18 203.57 123.00 204.92 123.00 205.65 C 123.00 206.49 124.16 207.00 126.03 207.00 C 129.05 207.00 129.05 207.00 128.78 192.75 C 128.51 178.82 128.45 178.49 126.25 178.18 C 124.77 177.97 123.77 178.49 123.34 179.68 C 121.55 184.73 120.60 185.00 104.85 185.00 C 90.00 185.00 90.00 185.00 90.00 174.50 C 90.00 164.00 90.00 164.00 109.00 164.00 C 128.00 164.00 128.00 164.00 128.00 160.98 C 128.00 158.73 127.36 157.67 125.50 156.82 C 123.00 155.68 123.00 155.68 123.00 118.31 C 123.00 80.95 123.00 80.95 125.50 80.00 C 127.41 79.28 128.00 78.33 128.00 76.02 C 128.00 73.00 128.00 73.00 109.00 73.00 C 90.00 73.00 90.00 73.00 90.00 62.50 C 90.00 52.00 90.00 52.00 104.85 52.00 C 120.60 52.00 121.55 52.27 123.34 57.32 C 123.77 58.51 124.77 59.03 126.25 58.82 C 128.45 58.51 128.51 58.18 128.78 44.25 C 129.05 30.00 129.05 30.00 126.03 30.00 C 124.06 30.00 123.00 30.50 123.00 31.44 C 123.00 32.24 122.00 33.59 120.78 34.44 C 119.02 35.68 115.58 36.00 104.28 36.00 C 90.00 36.00 90.00 36.00 90.02 30.25 C 90.03 23.89 90.46 22.85 93.75 21.11 C 95.31 20.29 96.00 19.02 96.00 16.96 C 96.00 14.00 96.00 14.00 70.50 14.00 C 45.00 14.00 45.00 14.00 45.00 17.50 C 45.00 19.87 45.46 21.00 46.43 21.00 C 49.48 21.00 51.00 24.02 51.00 30.07 C 51.00 36.00 51.00 36.00 36.50 36.00 C 23.33 36.00 21.82 35.82 20.00 34.00 C 18.90 32.90 18.00 31.55 18.00 31.00 C 18.00 30.45 16.88 30.00 15.50 30.00 C 13.00 30.00 13.00 30.00 13.00 44.50 C 13.00 58.95 13.01 59.00 15.29 59.00 C 17.02 59.00 17.82 58.19 18.54 55.75 C 19.50 52.50 19.50 52.50 35.29 52.22 C 51.07 51.95 51.07 51.95 50.79 62.22 C 50.50 72.50 50.50 72.50 32.25 72.77 C 14.00 73.05 14.00 73.05 14.00 76.41 C 14.00 78.93 14.50 79.90 16.00 80.29 C 17.95 80.80 18.00 81.65 18.00 117.32 C 18.00 137.41 17.73 154.55 17.39 155.42 C 17.06 156.29 16.16 157.00 15.39 157.00 C 14.47 157.00 14.00 158.18 14.00 160.50 C 14.00 164.00 14.00 164.00 32.50 164.00 C 51.00 164.00 51.00 164.00 51.00 174.53 C 51.00 185.05 51.00 185.05 35.75 184.78 C 20.50 184.50 20.50 184.50 19.00 181.27 C 17.97 179.05 16.80 178.04 15.25 178.02 C 13.02 178.00 13.00 178.12 13.00 192.50 C 13.00 207.00 13.00 207.00 15.50 207.00 C 17.00 207.00 18.00 206.43 18.00 205.57 C 18.00 204.79 18.71 203.44 19.57 202.57 C 20.86 201.28 23.83 201.00 36.07 201.00 C 51.00 201.00 51.00 201.00 51.00 216.50 C 51.00 230.67 50.83 232.17 49.00 234.00 C 47.90 235.10 46.55 236.00 46.00 236.00 C 45.45 236.00 45.00 237.57 45.00 239.50 C 45.00 243.00 45.00 243.00 70.50 243.00 C 96.00 243.00 96.00 243.00 96.00 239.72 Z  M 177.00 239.61 C 177.00 237.75 176.33 234.94 175.51 233.36 C 174.27 230.99 174.01 224.73 174.01 196.75 C 174.00 163.00 174.00 163.00 187.00 163.00 C 200.00 163.00 200.00 163.00 200.00 196.50 C 200.00 230.00 200.00 230.00 197.48 230.00 C 195.76 230.00 194.59 229.20 193.82 227.50 C 193.08 225.87 191.86 225.00 190.34 225.00 C 188.06 225.00 188.00 225.23 188.00 234.00 C 188.00 243.00 188.00 243.00 214.50 243.00 C 241.00 243.00 241.00 243.00 241.00 239.65 C 241.00 237.58 240.24 235.62 239.00 234.50 C 237.03 232.71 237.00 231.42 237.00 131.42 C 237.00 40.68 237.16 29.98 238.57 28.57 C 239.44 27.71 240.56 27.00 241.07 27.00 C 241.58 27.00 242.00 25.65 242.00 24.00 C 242.00 21.00 242.00 21.00 187.00 21.00 C 132.00 21.00 132.00 21.00 132.00 23.38 C 132.00 24.83 132.99 26.42 134.50 27.41 C 137.00 29.05 137.00 29.05 137.00 131.51 C 137.00 232.90 136.98 234.00 135.00 235.23 C 133.07 236.44 132.23 240.90 133.67 242.33 C 134.03 242.70 143.93 243.00 155.67 243.00 C 177.00 243.00 177.00 243.00 177.00 239.61 Z  M 57.00 136.47 C 57.00 125.94 57.00 125.94 70.25 126.22 C 83.50 126.50 83.50 126.50 83.78 136.75 C 84.07 147.00 84.07 147.00 70.53 147.00 C 57.00 147.00 57.00 147.00 57.00 136.47 Z  M 57.00 99.50 C 57.00 89.00 57.00 89.00 70.50 89.00 C 84.00 89.00 84.00 89.00 84.00 99.50 C 84.00 110.00 84.00 110.00 70.50 110.00 C 57.00 110.00 57.00 110.00 57.00 99.50 Z  M 174.23 123.75 C 174.50 100.50 174.50 100.50 187.25 100.22 C 200.00 99.94 200.00 99.94 200.00 123.47 C 200.00 147.00 200.00 147.00 186.98 147.00 C 173.96 147.00 173.96 147.00 174.23 123.75 Z  M 174.67 83.33 C 174.30 82.97 174.00 72.39 174.00 59.83 C 174.00 37.00 174.00 37.00 187.00 37.00 C 200.00 37.00 200.00 37.00 200.00 60.50 C 200.00 84.00 200.00 84.00 187.67 84.00 C 180.88 84.00 175.03 83.70 174.67 83.33 Z "/>
</g>
</svg>