<?xml version="1.0" encoding="UTF-8" standalone="no"?>
<!DOCTYPE svg PUBLIC "-//W3C//DTD SVG 1.1//EN" "http://www.w3.org/Graphics/SVG/1.1/DTD/svg11.dtd" >
<svg xmlns="http://www.w3.org/2000/svg" xmlns:xlink="http://www.w3.org/1999/xlink" version="1.1" viewBox="0 0 256 256">
 <g >
 <path fill="currentColor"
d=" M 132.00 230.50 C 132.00 216.00 132.00 216.00 129.50 216.00 C 127.70 216.00 127.00 216.54 127.00 217.93 C 127.00 218.99 126.29 220.56 125.43 221.43 C 124.06 222.80 119.39 223.00 89.43 223.00 C 55.00 223.00 55.00 223.00 55.00 216.00 C 55.00 209.00 55.00 209.00 71.50 209.00 C 88.00 209.00 88.00 209.00 88.00 205.91 C 88.00 203.95 87.21 202.18 85.83 201.06 C 83.66 199.31 83.66 199.31 87.01 188.63 C 88.85 182.76 90.65 178.30 91.01 178.73 C 91.38 179.15 93.33 183.41 95.34 188.18 C 98.32 195.25 98.82 197.33 98.03 199.43 C 97.49 200.84 96.59 202.00 96.02 202.00 C 95.46 202.00 95.00 203.57 95.00 205.50 C 95.00 209.00 95.00 209.00 114.50 209.00 C 134.00 209.00 134.00 209.00 133.96 206.25 C 133.93 204.30 133.03 202.92 130.83 201.50 C 128.08 199.72 126.50 196.23 116.37 169.50 C 110.12 153.00 105.01 138.97 105.00 138.33 C 105.00 137.69 110.42 121.49 117.05 102.33 C 126.08 76.24 129.71 66.95 131.55 65.30 C 133.13 63.88 134.00 62.02 134.00 60.05 C 134.00 57.00 134.00 57.00 113.50 57.00 C 93.00 57.00 93.00 57.00 93.00 59.76 C 93.00 61.44 93.78 63.01 95.00 63.77 C 96.10 64.45 97.01 65.80 97.01 66.76 C 97.02 67.72 94.92 74.51 92.34 81.87 C 87.66 95.23 87.66 95.23 82.83 81.52 C 80.17 73.98 78.00 67.19 78.00 66.43 C 78.00 65.67 79.12 64.31 80.50 63.41 C 82.01 62.42 83.00 60.83 83.00 59.38 C 83.00 57.00 83.00 57.00 69.00 57.00 C 55.00 57.00 55.00 57.00 55.00 49.99 C 55.00 42.97 55.00 42.97 90.24 43.24 C 125.47 43.50 125.47 43.50 126.79 46.25 C 127.56 47.86 128.92 49.00 130.05 49.00 C 131.89 49.00 132.00 48.20 132.00 34.50 C 132.00 20.00 132.00 20.00 129.50 20.00 C 127.68 20.00 127.00 20.54 127.00 21.96 C 127.00 23.05 126.13 24.40 125.07 24.96 C 123.80 25.64 104.11 26.00 68.07 26.00 C 13.00 26.00 13.00 26.00 13.00 29.26 C 13.00 31.69 13.58 32.78 15.25 33.51 C 17.50 34.50 17.50 34.50 17.75 132.17 C 18.01 229.85 18.01 229.85 15.50 231.82 C 13.98 233.02 13.00 234.80 13.00 236.39 C 13.00 239.00 13.00 239.00 68.25 239.02 C 98.64 239.02 124.00 239.36 124.60 239.77 C 125.21 240.17 126.23 241.51 126.89 242.75 C 127.54 243.99 128.95 245.00 130.04 245.00 C 131.90 245.00 132.00 244.25 132.00 230.50 Z  M 183.76 238.57 C 183.31 234.59 183.58 233.83 186.43 231.07 C 189.60 227.99 189.60 227.99 193.00 231.50 C 195.64 234.22 196.13 235.27 195.20 236.20 C 194.54 236.86 194.00 238.66 194.00 240.20 C 194.00 243.00 194.00 243.00 218.00 243.00 C 242.00 243.00 242.00 243.00 242.00 240.22 C 242.00 237.93 241.26 237.10 237.75 235.47 C 234.69 234.05 230.37 229.87 222.29 220.50 C 216.13 213.35 211.07 206.98 211.04 206.35 C 211.02 205.71 216.40 199.57 223.00 192.70 C 235.00 180.22 235.00 180.22 235.00 152.13 C 235.00 124.05 235.00 124.05 237.50 122.41 C 239.21 121.29 240.00 119.86 240.00 117.88 C 240.00 115.00 240.00 115.00 194.25 114.98 C 169.09 114.98 147.97 114.63 147.31 114.21 C 146.66 113.80 145.65 112.20 145.06 110.66 C 144.35 108.80 143.41 107.97 142.25 108.19 C 140.73 108.48 140.46 109.99 140.22 119.76 C 139.93 131.00 139.93 131.00 169.97 131.00 C 200.00 131.00 200.00 131.00 199.96 151.75 C 199.91 172.50 199.91 172.50 195.11 177.87 C 190.30 183.23 190.30 183.23 185.65 177.52 C 181.00 171.82 181.00 171.82 181.00 158.93 C 181.00 146.29 181.05 146.02 183.50 144.41 C 185.02 143.41 186.00 141.83 186.00 140.37 C 186.00 137.96 186.00 137.96 164.26 138.23 C 144.06 138.48 142.50 138.63 142.17 140.34 C 141.97 141.38 142.73 142.82 143.91 143.65 C 145.89 145.04 146.00 146.00 146.00 162.35 C 146.00 179.59 146.00 179.59 157.46 192.54 C 163.77 199.67 168.83 205.83 168.71 206.23 C 168.60 206.64 162.93 213.27 156.13 220.98 C 145.87 232.60 143.10 235.17 139.88 236.03 C 136.80 236.86 136.00 237.55 136.00 239.37 C 136.00 240.63 136.30 241.97 136.67 242.33 C 137.03 242.70 147.89 243.00 160.80 243.00 C 184.26 243.00 184.26 243.00 183.76 238.57 Z  M 187.00 98.50 C 187.00 96.12 186.54 95.00 185.56 95.00 C 184.76 95.00 183.41 94.00 182.56 92.78 C 181.24 90.90 181.00 86.39 181.00 63.78 C 181.00 37.00 181.00 37.00 191.52 37.00 C 202.03 37.00 202.03 37.00 201.77 65.24 C 201.50 93.47 201.50 93.47 198.75 94.79 C 196.67 95.79 196.00 96.83 196.00 99.05 C 196.00 102.00 196.00 102.00 219.00 102.00 C 242.00 102.00 242.00 102.00 242.00 98.50 C 242.00 96.49 241.50 95.00 240.83 95.00 C 240.18 95.00 238.83 94.26 237.83 93.35 C 236.13 91.81 236.00 89.43 236.00 59.85 C 236.00 29.10 236.07 27.97 238.00 26.77 C 239.22 26.01 240.00 24.44 240.00 22.76 C 240.00 20.00 240.00 20.00 190.50 20.00 C 141.00 20.00 141.00 20.00 141.00 22.46 C 141.00 23.91 141.83 25.37 143.01 26.01 C 144.98 27.06 145.02 27.90 144.76 60.28 C 144.50 93.47 144.50 93.47 141.75 94.79 C 139.67 95.79 139.00 96.83 139.00 99.05 C 139.00 102.00 139.00 102.00 163.00 102.00 C 187.00 102.00 187.00 102.00 187.00 98.50 Z  M 55.15 136.50 C 55.14 101.51 55.48 81.25 56.06 82.50 C 56.57 83.60 60.97 95.73 65.85 109.45 C 74.72 134.39 74.72 134.39 65.52 161.95 C 60.46 177.10 56.06 190.18 55.74 191.00 C 55.42 191.82 55.15 167.30 55.15 136.50 Z "/>
</g>
</svg>