<?xml version="1.0" encoding="UTF-8" standalone="no"?>
<!DOCTYPE svg PUBLIC "-//W3C//DTD SVG 1.1//EN" "http://www.w3.org/Graphics/SVG/1.1/DTD/svg11.dtd" >
<svg xmlns="http://www.w3.org/2000/svg" xmlns:xlink="http://www.w3.org/1999/xlink" version="1.1" viewBox="0 0 256 256">
 <g >
 <path fill="currentColor"
d=" M 233.00 239.00 C 233.00 237.35 232.55 236.00 232.00 236.00 C 231.45 236.00 230.10 235.10 229.00 234.00 C 227.07 232.07 227.00 230.67 227.00 196.00 C 227.00 161.33 227.07 159.93 229.00 158.00 C 230.10 156.90 231.45 156.00 232.00 156.00 C 232.55 156.00 233.00 154.43 233.00 152.50 C 233.00 149.00 233.00 149.00 127.50 149.00 C 22.00 149.00 22.00 149.00 22.01 152.25 C 22.01 154.81 22.65 155.86 25.01 157.20 C 28.00 158.91 28.00 158.91 28.00 195.45 C 28.00 230.67 27.93 232.07 26.00 234.00 C 24.90 235.10 23.55 236.00 23.00 236.00 C 22.45 236.00 22.00 237.35 22.00 239.00 C 22.00 242.00 22.00 242.00 127.50 242.00 C 233.00 242.00 233.00 242.00 233.00 239.00 Z  M 242.00 128.50 C 242.00 117.00 242.00 117.00 239.50 117.00 C 237.75 117.00 237.00 117.55 237.00 118.81 C 237.00 119.80 236.44 121.39 235.75 122.33 C 234.63 123.86 232.45 124.02 215.00 123.77 C 195.50 123.50 195.50 123.50 200.50 118.13 C 203.25 115.17 207.60 111.55 210.17 110.09 C 214.85 107.42 214.85 107.42 210.67 104.76 C 208.38 103.30 204.04 99.61 201.03 96.55 C 195.57 91.00 195.57 91.00 208.71 91.00 C 221.54 91.00 221.90 91.06 223.82 93.50 C 224.90 94.88 226.51 96.00 227.39 96.00 C 228.79 96.00 229.00 94.19 229.00 82.00 C 229.00 69.07 228.86 68.00 227.16 68.00 C 226.15 68.00 224.80 69.13 224.17 70.52 C 223.54 71.91 221.86 73.48 220.45 74.02 C 218.94 74.59 203.33 75.00 182.93 75.00 C 155.25 75.00 148.00 74.73 148.00 73.72 C 148.00 71.72 150.96 68.00 152.56 68.00 C 153.49 68.00 154.00 66.95 154.00 65.00 C 154.00 62.00 154.00 62.00 127.50 62.00 C 101.00 62.00 101.00 62.00 101.00 64.45 C 101.00 65.80 102.13 68.03 103.50 69.41 C 104.88 70.78 106.00 72.60 106.00 73.45 C 106.00 74.82 101.96 75.00 71.57 75.00 C 51.50 75.00 36.05 74.59 34.55 74.02 C 33.14 73.48 31.46 71.91 30.83 70.52 C 30.20 69.13 28.85 68.00 27.84 68.00 C 26.14 68.00 26.00 69.07 26.00 82.00 C 26.00 95.33 26.10 96.00 28.00 96.00 C 29.10 96.00 30.00 95.58 30.00 95.07 C 30.00 94.56 30.71 93.44 31.57 92.57 C 32.84 91.30 35.67 91.00 46.28 91.00 C 59.42 91.00 59.42 91.00 54.66 95.84 C 52.04 98.50 47.49 102.20 44.55 104.06 C 39.21 107.44 39.21 107.44 43.59 109.97 C 46.00 111.36 50.51 114.97 53.61 118.00 C 59.25 123.50 59.25 123.50 39.88 123.78 C 21.11 124.05 20.44 123.99 18.75 121.92 C 17.79 120.74 17.00 119.15 17.00 118.39 C 17.00 117.63 16.10 117.00 15.00 117.00 C 13.12 117.00 13.00 117.67 13.00 128.50 C 13.00 140.00 13.00 140.00 127.50 140.00 C 242.00 140.00 242.00 140.00 242.00 128.50 Z  M 102.78 55.00 C 102.99 53.11 102.32 52.09 100.03 50.80 C 97.90 49.60 97.00 48.34 97.00 46.55 C 97.00 44.00 97.00 44.00 127.50 44.00 C 156.96 44.00 158.00 44.07 158.00 45.93 C 158.00 48.20 155.82 50.61 152.94 51.52 C 151.42 52.00 150.96 52.87 151.19 54.84 C 151.50 57.50 151.50 57.50 178.25 57.77 C 205.00 58.03 205.00 58.03 205.00 55.42 C 205.00 53.80 203.85 51.73 202.00 50.00 C 200.35 48.46 199.00 46.47 199.00 45.58 C 199.00 44.13 200.93 43.98 216.75 44.23 C 234.50 44.50 234.50 44.50 236.00 47.73 C 237.03 49.95 238.20 50.96 239.75 50.98 C 241.98 51.00 242.00 50.88 242.00 36.50 C 242.00 22.00 242.00 22.00 239.50 22.00 C 237.99 22.00 237.00 22.57 237.00 23.44 C 237.00 24.24 236.00 25.59 234.78 26.44 C 232.98 27.70 229.34 28.00 215.78 28.00 C 197.04 28.00 196.22 27.63 202.00 21.85 C 203.68 20.16 205.00 17.78 205.00 16.42 C 205.00 14.00 205.00 14.00 178.00 14.00 C 151.00 14.00 151.00 14.00 151.00 16.40 C 151.00 18.09 152.05 19.42 154.50 20.87 C 157.04 22.36 158.00 23.63 158.00 25.47 C 158.00 28.00 158.00 28.00 127.50 28.00 C 97.00 28.00 97.00 28.00 97.00 25.53 C 97.00 23.94 98.07 22.27 100.00 20.84 C 101.83 19.49 103.00 17.72 103.00 16.31 C 103.00 14.00 103.00 14.00 76.50 14.00 C 50.00 14.00 50.00 14.00 50.00 17.00 C 50.00 18.95 50.51 20.00 51.44 20.00 C 53.21 20.00 56.00 23.80 56.00 26.22 C 56.00 27.85 54.65 28.00 39.57 28.00 C 22.14 28.00 18.57 27.36 17.52 24.06 C 17.16 22.92 16.00 22.00 14.93 22.00 C 13.11 22.00 13.00 22.84 13.00 36.50 C 13.00 49.65 13.16 51.00 14.75 50.98 C 15.73 50.97 17.16 49.54 18.00 47.73 C 19.50 44.50 19.50 44.50 37.75 44.23 C 54.02 43.98 56.00 44.13 56.00 45.58 C 56.00 46.47 54.65 48.46 53.00 50.00 C 51.15 51.73 50.00 53.80 50.00 55.42 C 50.00 58.03 50.00 58.03 76.25 57.77 C 102.50 57.50 102.50 57.50 102.78 55.00 Z  M 69.00 196.00 C 69.00 166.00 69.00 166.00 127.50 166.00 C 186.00 166.00 186.00 166.00 186.00 196.00 C 186.00 226.00 186.00 226.00 127.50 226.00 C 69.00 226.00 69.00 226.00 69.00 196.00 Z  M 173.00 215.57 C 173.00 212.98 172.49 211.97 170.94 211.48 C 167.86 210.50 167.00 206.97 167.00 195.36 C 167.00 185.01 167.05 184.80 170.00 181.85 C 171.96 179.88 173.00 177.84 173.00 175.92 C 173.00 173.00 173.00 173.00 127.50 173.00 C 82.00 173.00 82.00 173.00 82.00 175.92 C 82.00 177.84 83.04 179.88 85.00 181.85 C 87.95 184.80 88.00 185.01 88.00 195.36 C 88.00 206.97 87.14 210.50 84.06 211.48 C 82.51 211.97 82.00 212.98 82.00 215.57 C 82.00 219.00 82.00 219.00 127.50 219.00 C 173.00 219.00 173.00 219.00 173.00 215.57 Z  M 71.52 120.57 C 74.44 116.73 79.07 112.98 85.10 109.55 C 89.13 107.27 89.13 107.27 84.33 104.45 C 79.29 101.50 70.00 93.34 70.00 91.86 C 70.00 91.39 78.33 91.00 88.50 91.00 C 107.00 91.00 107.00 91.00 107.00 107.50 C 107.00 124.00 107.00 124.00 87.95 124.00 C 68.90 124.00 68.90 124.00 71.52 120.57 Z  M 147.00 107.50 C 147.00 91.00 147.00 91.00 166.21 91.00 C 185.42 91.00 185.42 91.00 180.46 96.05 C 177.73 98.83 173.36 102.47 170.75 104.15 C 168.14 105.83 166.00 107.34 166.00 107.51 C 166.00 107.67 167.91 108.94 170.25 110.33 C 172.59 111.71 176.96 115.36 179.97 118.42 C 185.43 124.00 185.43 124.00 166.22 124.00 C 147.00 124.00 147.00 124.00 147.00 107.50 Z  M 118.00 196.00 C 118.00 188.00 118.00 188.00 127.50 188.00 C 137.00 188.00 137.00 188.00 137.00 196.00 C 137.00 204.00 137.00 204.00 127.50 204.00 C 118.00 204.00 118.00 204.00 118.00 196.00 Z "/>
</g>
</svg>