<?xml version="1.0" encoding="UTF-8" standalone="no"?>
<!DOCTYPE svg PUBLIC "-//W3C//DTD SVG 1.1//EN" "http://www.w3.org/Graphics/SVG/1.1/DTD/svg11.dtd" >
<svg xmlns="http://www.w3.org/2000/svg" xmlns:xlink="http://www.w3.org/1999/xlink" version="1.1" viewBox="0 0 256 256">
 <g >
 <path fill="currentColor"
d=" M 241.99 240.25 C 241.99 238.27 241.18 237.04 239.10 235.86 C 235.89 234.03 234.70 230.12 233.45 217.33 C 232.81 210.72 232.92 210.07 234.88 208.84 C 236.21 208.01 237.00 206.49 237.00 204.76 C 237.00 202.00 237.00 202.00 212.50 202.00 C 188.00 202.00 188.00 202.00 188.00 205.00 C 188.00 206.65 188.47 208.00 189.05 208.00 C 190.40 208.00 195.00 212.60 195.00 213.95 C 195.00 214.65 187.03 215.00 171.00 215.00 C 147.00 215.00 147.00 215.00 147.00 205.50 C 147.00 196.00 147.00 196.00 190.50 196.00 C 234.00 196.00 234.00 196.00 234.00 193.00 C 234.00 191.35 233.55 190.00 233.00 190.00 C 232.45 190.00 231.10 189.10 230.00 188.00 C 228.14 186.14 228.00 184.68 228.02 167.25 C 228.02 156.94 228.36 148.00 228.77 147.40 C 229.17 146.79 230.51 145.77 231.75 145.11 C 233.31 144.29 234.00 143.02 234.00 140.96 C 234.00 138.00 234.00 138.00 190.59 138.00 C 147.40 138.00 147.19 137.99 147.72 135.96 C 148.01 134.84 149.55 133.25 151.13 132.43 C 153.31 131.30 154.00 130.24 154.00 127.97 C 154.00 125.00 154.00 125.00 127.50 125.00 C 101.00 125.00 101.00 125.00 101.00 127.88 C 101.00 129.82 101.78 131.28 103.37 132.32 C 104.67 133.17 105.98 134.80 106.27 135.94 C 106.81 138.00 106.77 138.00 63.91 138.00 C 21.00 138.00 21.00 138.00 21.00 140.96 C 21.00 143.02 21.69 144.29 23.25 145.11 C 24.49 145.77 25.83 146.79 26.23 147.40 C 26.64 148.00 26.98 156.75 26.98 166.83 C 27.00 185.15 27.00 185.15 24.00 188.15 C 22.32 189.84 21.00 192.22 21.00 193.58 C 21.00 196.00 21.00 196.00 64.00 196.00 C 107.00 196.00 107.00 196.00 107.00 205.50 C 107.00 215.00 107.00 215.00 64.00 215.00 C 22.33 215.00 20.94 214.94 19.00 213.00 C 17.90 211.90 17.00 210.55 17.00 210.00 C 17.00 209.45 16.10 209.00 15.00 209.00 C 13.09 209.00 13.00 209.67 13.00 223.50 C 13.00 237.33 13.09 238.00 15.00 238.00 C 16.10 238.00 17.00 237.55 17.00 237.00 C 17.00 236.45 17.90 235.10 19.00 234.00 C 20.97 232.03 22.33 232.00 109.00 232.00 C 196.79 232.00 197.00 232.00 197.00 234.03 C 197.00 235.15 196.32 236.32 195.50 236.64 C 194.64 236.97 194.00 238.46 194.00 240.11 C 194.00 243.00 194.00 243.00 218.00 243.00 C 242.00 243.00 242.00 243.00 241.99 240.25 Z  M 119.00 119.05 C 119.00 116.83 118.33 115.79 116.25 114.79 C 113.50 113.47 113.50 113.47 113.24 68.27 C 112.98 23.07 112.98 23.07 115.99 20.85 C 117.83 19.49 119.00 17.72 119.00 16.31 C 119.00 14.00 119.00 14.00 92.00 14.00 C 65.00 14.00 65.00 14.00 65.00 16.93 C 65.00 19.01 65.60 20.05 67.06 20.52 C 68.90 21.10 71.00 24.59 71.00 27.07 C 71.00 28.30 23.91 28.30 20.65 27.06 C 19.29 26.54 17.88 25.19 17.52 24.06 C 17.16 22.92 16.00 22.00 14.93 22.00 C 13.11 22.00 13.00 22.84 13.00 36.50 C 13.00 49.65 13.16 51.00 14.75 50.98 C 15.73 50.97 17.16 49.54 18.00 47.73 C 19.50 44.50 19.50 44.50 45.29 44.23 C 71.08 43.97 71.08 43.97 70.79 51.73 C 70.50 59.50 70.50 59.50 50.00 59.79 C 26.03 60.13 23.33 59.81 21.79 56.45 C 21.07 54.87 19.85 54.00 18.34 54.00 C 16.00 54.00 16.00 54.00 16.00 68.50 C 16.00 83.00 16.00 83.00 18.50 83.00 C 20.00 83.00 21.00 82.43 21.00 81.57 C 21.00 80.79 21.71 79.44 22.57 78.57 C 23.91 77.23 27.61 77.00 47.57 77.00 C 71.00 77.00 71.00 77.00 71.00 84.50 C 71.00 92.00 71.00 92.00 45.45 92.00 C 19.91 92.00 19.91 92.00 18.20 89.01 C 17.27 87.36 15.71 86.01 14.75 86.01 C 13.17 86.00 13.00 87.33 13.00 100.00 C 13.00 112.93 13.14 114.00 14.84 114.00 C 15.85 114.00 17.16 112.94 17.75 111.64 C 18.43 110.16 20.02 109.05 22.04 108.64 C 27.56 107.54 69.81 107.89 70.53 109.04 C 71.40 110.46 68.32 115.00 66.48 115.00 C 65.46 115.00 65.00 116.08 65.00 118.50 C 65.00 122.00 65.00 122.00 92.00 122.00 C 119.00 122.00 119.00 122.00 119.00 119.05 Z  M 189.00 118.61 C 189.00 115.85 188.55 115.10 186.57 114.61 C 184.09 113.98 182.36 110.84 183.49 109.01 C 184.19 107.89 226.58 107.57 231.96 108.64 C 233.98 109.05 235.57 110.16 236.25 111.64 C 236.93 113.14 238.17 114.00 239.66 114.00 C 242.00 114.00 242.00 114.00 242.00 100.00 C 242.00 86.15 241.98 86.00 239.75 86.01 C 238.30 86.01 236.89 87.08 235.80 89.01 C 234.09 92.00 234.09 92.00 208.55 92.00 C 183.00 92.00 183.00 92.00 183.00 84.50 C 183.00 77.00 183.00 77.00 206.25 77.02 C 219.04 77.02 230.00 77.36 230.60 77.77 C 231.21 78.17 232.23 79.51 232.89 80.75 C 233.54 81.99 234.95 83.00 236.04 83.00 C 237.90 83.00 238.00 82.25 238.00 68.50 C 238.00 54.00 238.00 54.00 235.50 54.00 C 233.96 54.00 233.00 54.57 233.00 55.48 C 233.00 56.29 231.94 57.65 230.65 58.50 C 228.67 59.79 224.71 60.00 205.90 59.77 C 183.50 59.50 183.50 59.50 183.21 51.73 C 182.92 43.97 182.92 43.97 208.71 44.23 C 234.50 44.50 234.50 44.50 236.00 47.73 C 237.03 49.95 238.20 50.96 239.75 50.98 C 241.98 51.00 242.00 50.88 242.00 36.50 C 242.00 22.00 242.00 22.00 239.57 22.00 C 237.99 22.00 236.91 22.72 236.48 24.06 C 236.12 25.19 234.71 26.54 233.35 27.06 C 231.99 27.58 220.10 28.00 206.93 28.00 C 180.36 28.00 179.96 27.88 186.00 21.85 C 187.68 20.16 189.00 17.78 189.00 16.42 C 189.00 14.00 189.00 14.00 162.00 14.00 C 135.00 14.00 135.00 14.00 135.00 16.40 C 135.00 18.09 136.05 19.42 138.50 20.87 C 142.00 22.93 142.00 22.93 142.00 67.31 C 142.00 108.34 141.87 111.80 140.25 113.19 C 139.29 114.02 137.71 114.98 136.75 115.32 C 135.60 115.72 135.00 116.98 135.00 118.97 C 135.00 122.00 135.00 122.00 162.00 122.00 C 189.00 122.00 189.00 122.00 189.00 118.61 Z  M 68.00 166.48 C 68.00 153.96 68.00 153.96 87.25 154.23 C 106.50 154.50 106.50 154.50 106.78 166.75 C 107.06 179.00 107.06 179.00 87.53 179.00 C 68.00 179.00 68.00 179.00 68.00 166.48 Z  M 147.22 166.75 C 147.50 154.50 147.50 154.50 167.25 154.23 C 187.00 153.96 187.00 153.96 187.00 166.48 C 187.00 179.00 187.00 179.00 166.97 179.00 C 146.94 179.00 146.94 179.00 147.22 166.75 Z "/>
</g>
</svg>