<?xml version="1.0" encoding="UTF-8" standalone="no"?>
<!DOCTYPE svg PUBLIC "-//W3C//DTD SVG 1.1//EN" "http://www.w3.org/Graphics/SVG/1.1/DTD/svg11.dtd" >
<svg xmlns="http://www.w3.org/2000/svg" xmlns:xlink="http://www.w3.org/1999/xlink" version="1.1" viewBox="0 0 256 256">
 <g >
 <path fill="currentColor"
d=" M 242.00 230.50 C 242.00 219.00 242.00 219.00 239.50 219.00 C 238.00 219.00 237.00 219.57 237.00 220.43 C 237.00 221.21 236.29 222.56 235.43 223.43 C 234.03 224.83 224.98 225.00 150.93 225.00 C 68.00 225.00 68.00 225.00 68.00 161.08 C 68.00 125.93 68.29 96.42 68.64 95.51 C 68.99 94.59 70.34 93.44 71.64 92.95 C 73.26 92.33 74.00 91.26 74.00 89.52 C 74.00 87.00 74.00 87.00 49.65 87.00 C 35.25 87.00 24.07 86.57 22.29 85.95 C 20.64 85.38 18.70 83.80 17.97 82.45 C 17.25 81.10 15.84 80.00 14.83 80.00 C 13.14 80.00 13.00 81.11 13.00 94.50 C 13.00 108.06 13.12 109.00 14.89 109.00 C 16.05 109.00 17.02 108.08 17.39 106.60 C 17.99 104.20 23.28 101.44 25.11 102.57 C 25.61 102.88 26.00 131.04 26.00 167.06 C 26.00 229.67 25.96 231.04 24.00 233.00 C 22.90 234.10 21.55 235.00 21.00 235.00 C 20.45 235.00 20.00 236.57 20.00 238.50 C 20.00 242.00 20.00 242.00 131.00 242.00 C 242.00 242.00 242.00 242.00 242.00 230.50 Z  M 130.00 213.01 C 130.00 210.55 129.39 209.77 126.50 208.56 C 123.00 207.10 123.00 207.10 123.00 160.05 C 123.00 113.00 123.00 113.00 159.00 113.00 C 195.00 113.00 195.00 113.00 195.00 156.00 C 195.00 199.00 195.00 199.00 184.08 199.00 C 171.66 199.00 170.20 198.65 168.95 195.36 C 168.33 193.74 167.26 193.00 165.52 193.00 C 163.00 193.00 163.00 193.00 163.00 204.50 C 163.00 216.00 163.00 216.00 202.50 216.00 C 242.00 216.00 242.00 216.00 242.00 212.50 C 242.00 210.13 241.54 209.00 240.57 209.00 C 239.79 209.00 238.44 208.29 237.57 207.43 C 236.19 206.04 236.00 200.01 236.00 156.26 C 236.00 111.51 236.16 106.48 237.65 104.83 C 238.57 103.82 239.92 103.00 240.65 103.00 C 241.53 103.00 242.00 101.77 242.00 99.50 C 242.00 96.00 242.00 96.00 235.50 96.00 C 229.00 96.00 229.00 96.00 229.00 61.45 C 229.00 26.91 229.00 26.91 231.45 24.45 C 232.80 23.10 234.38 22.00 234.95 22.00 C 235.53 22.00 236.00 20.65 236.00 19.00 C 236.00 16.00 236.00 16.00 159.00 16.00 C 82.00 16.00 82.00 16.00 82.00 19.00 C 82.00 20.93 82.51 22.00 83.43 22.00 C 84.21 22.00 85.79 23.19 86.93 24.63 C 88.93 27.18 89.00 28.38 89.00 61.63 C 89.00 96.00 89.00 96.00 82.50 96.00 C 76.00 96.00 76.00 96.00 76.00 99.50 C 76.00 101.88 76.46 103.00 77.44 103.00 C 78.24 103.00 79.59 104.00 80.44 105.22 C 81.80 107.16 82.00 113.69 82.00 156.22 C 82.00 203.67 81.95 205.05 80.00 207.00 C 78.90 208.10 77.55 209.00 77.00 209.00 C 76.45 209.00 76.00 210.57 76.00 212.50 C 76.00 216.00 76.00 216.00 103.00 216.00 C 130.00 216.00 130.00 216.00 130.00 213.01 Z  M 186.00 184.61 C 186.00 183.29 185.32 181.95 184.50 181.64 C 182.25 180.78 182.25 129.86 184.50 128.00 C 185.32 127.32 186.00 125.68 186.00 124.36 C 186.00 121.97 186.00 121.97 158.25 122.23 C 130.65 122.50 130.50 122.51 130.19 124.66 C 129.98 126.13 130.54 127.04 131.94 127.48 C 133.95 128.12 134.00 128.76 134.00 154.53 C 134.00 179.91 133.92 180.97 132.00 182.00 C 130.90 182.59 130.00 183.95 130.00 185.04 C 130.00 186.94 130.83 187.00 158.00 187.00 C 186.00 187.00 186.00 187.00 186.00 184.61 Z  M 47.01 73.33 C 51.04 66.19 58.72 58.02 65.93 53.20 C 68.99 51.16 71.63 49.12 71.80 48.67 C 71.96 48.22 69.48 46.17 66.30 44.11 C 59.33 39.59 51.30 31.02 46.98 23.47 C 43.82 17.94 43.82 17.94 40.09 24.10 C 35.29 32.04 26.66 40.69 19.19 45.05 C 13.29 48.50 13.29 48.50 20.39 53.06 C 28.25 58.10 37.48 67.67 41.13 74.54 C 42.43 76.99 43.57 79.00 43.65 79.00 C 43.74 79.00 45.25 76.45 47.01 73.33 Z  M 130.00 81.50 C 130.00 67.00 130.00 67.00 137.00 67.00 C 144.00 67.00 144.00 67.00 144.00 81.50 C 144.00 96.00 144.00 96.00 137.00 96.00 C 130.00 96.00 130.00 96.00 130.00 81.50 Z  M 174.00 79.57 C 174.00 62.29 174.75 58.14 178.01 57.29 C 179.50 56.90 180.00 55.92 180.00 53.38 C 180.00 50.00 180.00 50.00 155.00 50.00 C 130.00 50.00 130.00 50.00 130.00 41.00 C 130.00 32.00 130.00 32.00 159.00 32.00 C 188.00 32.00 188.00 32.00 188.00 64.00 C 188.00 96.00 188.00 96.00 181.00 96.00 C 174.00 96.00 174.00 96.00 174.00 79.57 Z  M 154.22 153.75 C 154.50 138.50 154.50 138.50 159.25 138.20 C 164.00 137.89 164.00 137.89 164.00 153.45 C 164.00 169.00 164.00 169.00 158.97 169.00 C 153.95 169.00 153.95 169.00 154.22 153.75 Z "/>
</g>
</svg>