<?xml version="1.0" encoding="UTF-8" standalone="no"?>
<!DOCTYPE svg PUBLIC "-//W3C//DTD SVG 1.1//EN" "http://www.w3.org/Graphics/SVG/1.1/DTD/svg11.dtd" >
<svg xmlns="http://www.w3.org/2000/svg" xmlns:xlink="http://www.w3.org/1999/xlink" version="1.1" viewBox="0 0 256 256">
 <g >
 <path fill="currentColor"
d=" M 154.00 240.16 C 154.00 238.10 153.31 237.01 151.48 236.17 C 147.77 234.48 147.00 231.24 147.00 217.43 C 147.00 205.00 147.00 205.00 190.55 205.00 C 234.09 205.00 234.09 205.00 235.80 207.99 C 236.89 209.92 238.30 210.99 239.75 210.99 C 241.98 211.00 242.00 210.87 242.00 196.50 C 242.00 182.00 242.00 182.00 239.50 182.00 C 238.00 182.00 237.00 182.57 237.00 183.43 C 237.00 184.21 236.29 185.56 235.43 186.43 C 234.05 187.81 228.57 188.00 190.39 188.00 C 146.93 188.00 146.93 188.00 147.21 178.25 C 147.50 168.50 147.50 168.50 189.25 168.24 C 231.00 167.98 231.00 167.98 231.00 164.49 C 231.00 162.13 230.54 161.00 229.57 161.00 C 228.79 161.00 227.44 160.29 226.57 159.43 C 225.25 158.11 225.00 154.81 225.00 138.96 C 225.00 120.06 225.00 120.06 228.00 117.84 C 230.28 116.15 231.00 114.83 231.00 112.31 C 231.00 109.00 231.00 109.00 151.00 109.00 C 71.00 109.00 71.00 109.00 71.00 99.50 C 71.00 90.00 71.00 90.00 151.00 90.00 C 231.00 90.00 231.00 90.00 231.00 86.50 C 231.00 83.69 230.61 83.00 229.04 83.00 C 225.58 83.00 225.00 79.80 225.00 60.89 C 225.00 45.33 225.24 42.39 226.65 40.83 C 227.57 39.82 228.92 39.00 229.65 39.00 C 230.53 39.00 231.00 37.77 231.00 35.50 C 231.00 32.00 231.00 32.00 178.00 32.00 C 141.98 32.00 125.00 31.67 125.00 30.96 C 125.00 28.49 129.29 21.83 131.54 20.80 C 133.31 19.99 134.00 18.89 134.00 16.84 C 134.00 14.00 134.00 14.00 107.50 14.00 C 81.00 14.00 81.00 14.00 81.00 16.84 C 81.00 18.90 81.69 19.99 83.50 20.82 C 86.24 22.06 86.58 24.04 84.90 28.85 C 83.80 32.00 83.80 32.00 53.90 32.00 C 24.00 32.00 24.00 32.00 24.00 35.50 C 24.00 37.87 24.46 39.00 25.43 39.00 C 26.21 39.00 27.56 39.71 28.43 40.57 C 29.82 41.96 30.00 48.68 30.00 99.35 C 30.00 149.51 29.81 156.83 28.44 158.78 C 27.59 160.00 26.24 161.00 25.44 161.00 C 24.46 161.00 24.00 162.12 24.00 164.49 C 24.00 167.98 24.00 167.98 65.25 168.24 C 106.50 168.50 106.50 168.50 106.79 178.25 C 107.07 188.00 107.07 188.00 63.86 188.00 C 25.06 188.00 20.47 187.83 18.83 186.35 C 17.82 185.43 17.00 184.08 17.00 183.35 C 17.00 182.61 16.10 182.00 15.00 182.00 C 13.09 182.00 13.00 182.67 13.00 196.50 C 13.00 210.33 13.09 211.00 15.00 211.00 C 16.10 211.00 17.00 210.55 17.00 210.00 C 17.00 209.45 17.90 208.10 19.00 207.00 C 20.94 205.06 22.33 205.00 64.08 205.00 C 107.15 205.00 107.15 205.00 106.83 219.09 C 106.50 233.04 106.47 233.20 103.75 235.54 C 102.09 236.97 101.00 238.91 101.00 240.45 C 101.00 243.00 101.00 243.00 127.50 243.00 C 154.00 243.00 154.00 243.00 154.00 240.16 Z  M 71.00 138.50 C 71.00 126.00 71.00 126.00 127.50 126.00 C 184.00 126.00 184.00 126.00 184.00 138.50 C 184.00 151.00 184.00 151.00 127.50 151.00 C 71.00 151.00 71.00 151.00 71.00 138.50 Z  M 71.00 61.50 C 71.00 49.00 71.00 49.00 127.50 49.00 C 184.00 49.00 184.00 49.00 184.00 61.50 C 184.00 74.00 184.00 74.00 127.50 74.00 C 71.00 74.00 71.00 74.00 71.00 61.50 Z "/>
</g>
</svg>