<?xml version="1.0" encoding="UTF-8" standalone="no"?>
<!DOCTYPE svg PUBLIC "-//W3C//DTD SVG 1.1//EN" "http://www.w3.org/Graphics/SVG/1.1/DTD/svg11.dtd" >
<svg xmlns="http://www.w3.org/2000/svg" xmlns:xlink="http://www.w3.org/1999/xlink" version="1.1" viewBox="0 0 256 256">
 <g >
 <path fill="currentColor"
d=" M 59.00 162.97 C 59.00 111.94 59.00 111.94 68.00 100.73 C 72.95 94.56 77.00 89.18 77.00 88.76 C 77.00 88.34 73.65 88.00 69.57 88.00 C 62.13 88.00 62.13 88.00 40.07 116.46 C 27.93 132.11 18.00 145.18 18.00 145.50 C 18.00 145.82 21.48 145.95 25.73 145.79 C 33.46 145.50 33.46 145.50 39.48 137.62 C 45.50 129.74 45.50 129.74 45.76 171.87 C 46.02 214.00 46.02 214.00 52.51 214.00 C 59.00 214.00 59.00 214.00 59.00 162.97 Z  M 235.00 195.50 C 235.00 177.00 235.00 177.00 228.50 177.00 C 222.00 177.00 222.00 177.00 222.00 189.00 C 222.00 201.00 222.00 201.00 197.00 201.00 C 172.00 201.00 172.00 201.00 172.00 182.50 C 172.00 164.00 172.00 164.00 205.00 164.00 C 238.00 164.00 238.00 164.00 238.00 157.50 C 238.00 151.00 238.00 151.00 204.97 151.00 C 171.94 151.00 171.94 151.00 172.22 138.75 C 172.50 126.50 172.50 126.50 204.25 126.24 C 236.00 125.97 236.00 125.97 236.00 119.49 C 236.00 113.00 236.00 113.00 172.96 113.00 C 110.95 113.00 109.95 112.97 110.96 111.07 C 112.60 108.01 112.38 107.89 105.27 108.20 C 98.54 108.50 98.54 108.50 90.73 121.00 C 86.44 127.88 82.48 134.29 81.93 135.25 C 81.02 136.85 81.57 137.00 88.32 137.00 C 95.72 137.00 95.72 137.00 99.37 131.50 C 103.02 126.00 103.02 126.00 131.01 126.00 C 159.00 126.00 159.00 126.00 159.00 138.50 C 159.00 151.00 159.00 151.00 121.50 151.00 C 84.00 151.00 84.00 151.00 84.00 157.50 C 84.00 164.00 84.00 164.00 121.50 164.00 C 159.00 164.00 159.00 164.00 159.00 182.50 C 159.00 201.00 159.00 201.00 129.50 201.00 C 100.00 201.00 100.00 201.00 100.00 189.00 C 100.00 177.00 100.00 177.00 93.50 177.00 C 87.00 177.00 87.00 177.00 87.00 195.50 C 87.00 214.00 87.00 214.00 161.00 214.00 C 235.00 214.00 235.00 214.00 235.00 195.50 Z  M 54.00 73.95 C 65.28 59.12 75.12 46.09 75.87 45.00 C 77.21 43.05 77.03 43.00 69.37 43.00 C 61.50 43.01 61.50 43.01 40.00 71.16 C 28.17 86.64 18.35 99.69 18.17 100.15 C 17.98 100.62 21.36 100.98 25.67 100.95 C 33.50 100.90 33.50 100.90 54.00 73.95 Z  M 113.00 100.27 C 113.00 99.87 110.91 92.22 108.36 83.27 C 103.72 67.00 103.72 67.00 96.74 67.00 C 90.58 67.00 89.82 67.21 90.24 68.75 C 90.50 69.71 92.66 77.36 95.04 85.75 C 99.37 101.00 99.37 101.00 106.18 101.00 C 109.93 101.00 113.00 100.67 113.00 100.27 Z  M 170.76 99.75 C 170.51 99.06 168.12 91.41 165.44 82.75 C 160.56 67.00 160.56 67.00 153.78 67.00 C 150.05 67.00 147.00 67.33 147.00 67.73 C 147.00 68.13 149.09 75.78 151.64 84.73 C 156.28 101.00 156.28 101.00 163.75 101.00 C 169.29 101.00 171.10 100.68 170.76 99.75 Z  M 223.68 84.00 C 226.58 74.92 228.97 67.39 228.98 67.25 C 228.99 67.11 225.64 67.00 221.54 67.00 C 213.14 67.00 214.85 64.17 207.17 90.79 C 204.20 101.08 204.20 101.08 211.30 100.79 C 218.39 100.50 218.39 100.50 223.68 84.00 Z  M 238.00 54.50 C 238.00 48.00 238.00 48.00 161.00 48.00 C 84.00 48.00 84.00 48.00 84.00 54.50 C 84.00 61.00 84.00 61.00 161.00 61.00 C 238.00 61.00 238.00 61.00 238.00 54.50 Z "/>
</g>
</svg>