<?xml version="1.0" encoding="UTF-8" standalone="no"?>
<!DOCTYPE svg PUBLIC "-//W3C//DTD SVG 1.1//EN" "http://www.w3.org/Graphics/SVG/1.1/DTD/svg11.dtd" >
<svg xmlns="http://www.w3.org/2000/svg" xmlns:xlink="http://www.w3.org/1999/xlink" version="1.1" viewBox="0 0 256 256">
 <g >
 <path fill="currentColor"
d=" M 240.00 207.50 C 240.00 201.00 240.00 201.00 151.33 201.00 C 70.22 201.00 62.50 200.86 60.83 199.35 C 59.18 197.85 59.00 195.83 59.00 178.85 C 59.00 160.00 59.00 160.00 77.05 160.00 C 95.10 160.00 95.10 160.00 94.80 154.25 C 94.50 148.50 94.50 148.50 76.75 148.23 C 59.00 147.95 59.00 147.95 59.00 128.98 C 59.00 110.00 59.00 110.00 74.55 110.00 C 90.10 110.00 90.10 110.00 89.80 103.75 C 89.50 97.50 89.50 97.50 74.25 97.22 C 59.00 96.95 59.00 96.95 59.00 79.00 C 59.00 61.05 59.00 61.05 74.75 60.78 C 90.50 60.50 90.50 60.50 90.80 54.25 C 91.10 48.00 91.10 48.00 53.05 48.00 C 15.00 48.00 15.00 48.00 15.00 54.50 C 15.00 61.00 15.00 61.00 30.50 61.00 C 46.00 61.00 46.00 61.00 46.00 79.00 C 46.00 97.00 46.00 97.00 31.50 97.00 C 17.00 97.00 17.00 97.00 17.00 103.47 C 17.00 109.95 17.00 109.95 31.25 110.22 C 45.50 110.50 45.50 110.50 45.77 129.25 C 46.04 148.00 46.04 148.00 29.02 148.00 C 12.00 148.00 12.00 148.00 12.00 154.00 C 12.00 160.00 12.00 160.00 29.00 160.00 C 46.00 160.00 46.00 160.00 46.00 179.03 C 46.00 199.75 46.61 202.84 51.80 208.37 C 57.24 214.16 52.93 213.92 150.25 213.96 C 240.00 214.00 240.00 214.00 240.00 207.50 Z  M 112.67 188.59 C 116.02 186.07 119.52 182.85 120.45 181.43 C 122.14 178.86 122.14 178.86 126.93 183.34 C 129.56 185.80 133.69 188.87 136.11 190.16 C 140.50 192.50 140.50 192.50 188.75 192.79 C 237.00 193.07 237.00 193.07 237.00 186.54 C 237.00 180.00 237.00 180.00 190.75 179.98 C 138.99 179.95 140.17 180.10 133.10 172.67 C 129.70 169.10 129.70 169.10 133.24 162.30 C 140.47 148.39 144.84 131.40 145.74 113.75 C 146.28 103.00 146.28 103.00 131.60 103.00 C 116.91 103.00 116.91 103.00 131.45 81.58 C 146.00 60.17 146.00 60.17 146.00 53.58 C 146.00 47.00 146.00 47.00 123.50 47.00 C 101.00 47.00 101.00 47.00 101.00 53.47 C 101.00 59.95 101.00 59.95 115.91 60.22 C 130.82 60.50 130.82 60.50 116.91 80.20 C 103.00 99.91 103.00 99.91 103.00 107.95 C 103.00 116.00 103.00 116.00 118.00 116.00 C 133.00 116.00 133.00 116.00 133.00 120.84 C 133.00 127.02 130.01 138.71 125.91 148.56 C 122.70 156.27 122.70 156.27 121.17 153.39 C 120.33 151.80 118.68 147.35 117.50 143.50 C 115.35 136.50 115.35 136.50 109.05 136.20 C 102.76 135.90 102.76 135.90 103.41 139.39 C 104.45 144.90 107.87 154.89 111.29 162.41 C 114.44 169.32 114.44 169.32 107.72 175.47 C 101.00 181.63 101.00 181.63 101.00 188.84 C 101.00 196.05 101.00 196.05 103.79 194.61 C 105.33 193.81 109.32 191.10 112.67 188.59 Z  M 198.00 169.00 C 198.00 164.00 198.00 164.00 217.00 164.00 C 236.00 164.00 236.00 164.00 236.00 158.00 C 236.00 152.00 236.00 152.00 217.00 152.00 C 198.00 152.00 198.00 152.00 198.00 145.00 C 198.00 138.00 198.00 138.00 215.00 138.00 C 232.00 138.00 232.00 138.00 232.00 131.50 C 232.00 125.00 232.00 125.00 214.95 125.00 C 197.89 125.00 197.89 125.00 198.20 120.25 C 198.50 115.50 198.50 115.50 215.25 115.23 C 232.00 114.95 232.00 114.95 232.00 102.98 C 232.00 91.00 232.00 91.00 235.50 91.00 C 239.00 91.00 239.00 91.00 239.00 84.56 C 239.00 78.13 239.00 78.13 235.75 77.81 C 232.50 77.50 232.50 77.50 232.22 65.75 C 231.94 54.00 231.94 54.00 214.97 54.00 C 198.00 54.00 198.00 54.00 198.00 48.50 C 198.00 43.00 198.00 43.00 191.50 43.00 C 185.00 43.00 185.00 43.00 185.00 48.50 C 185.00 54.00 185.00 54.00 168.95 54.00 C 152.90 54.00 152.90 54.00 153.20 60.25 C 153.50 66.50 153.50 66.50 169.25 66.78 C 185.00 67.05 185.00 67.05 185.00 72.53 C 185.00 78.00 185.00 78.00 165.45 78.00 C 145.90 78.00 145.90 78.00 146.20 84.25 C 146.50 90.50 146.50 90.50 165.75 90.77 C 185.00 91.04 185.00 91.04 185.00 96.50 C 185.00 101.95 185.00 101.95 169.25 102.22 C 153.50 102.50 153.50 102.50 153.20 108.75 C 152.90 115.00 152.90 115.00 168.95 115.00 C 185.00 115.00 185.00 115.00 185.00 119.97 C 185.00 124.95 185.00 124.95 169.25 125.22 C 153.50 125.50 153.50 125.50 153.20 131.75 C 152.90 138.00 152.90 138.00 168.95 138.00 C 185.00 138.00 185.00 138.00 185.00 144.98 C 185.00 151.96 185.00 151.96 165.75 152.23 C 146.50 152.50 146.50 152.50 146.20 158.25 C 145.90 164.00 145.90 164.00 165.45 164.00 C 185.00 164.00 185.00 164.00 185.00 169.00 C 185.00 174.00 185.00 174.00 191.50 174.00 C 198.00 174.00 198.00 174.00 198.00 169.00 Z  M 198.00 96.50 C 198.00 91.00 198.00 91.00 208.50 91.00 C 219.00 91.00 219.00 91.00 219.00 96.50 C 219.00 102.00 219.00 102.00 208.50 102.00 C 198.00 102.00 198.00 102.00 198.00 96.50 Z  M 198.67 77.33 C 198.30 76.97 198.00 74.49 198.00 71.83 C 198.00 67.00 198.00 67.00 208.50 67.00 C 219.00 67.00 219.00 67.00 219.00 72.50 C 219.00 78.00 219.00 78.00 209.17 78.00 C 203.76 78.00 199.03 77.70 198.67 77.33 Z "/>
</g>
</svg>