<?xml version="1.0" encoding="UTF-8" standalone="no"?>
<!DOCTYPE svg PUBLIC "-//W3C//DTD SVG 1.1//EN" "http://www.w3.org/Graphics/SVG/1.1/DTD/svg11.dtd" >
<svg xmlns="http://www.w3.org/2000/svg" xmlns:xlink="http://www.w3.org/1999/xlink" version="1.1" viewBox="0 0 256 256">
 <g >
 <path fill="currentColor"
d=" M 57.00 145.63 C 57.00 76.26 57.00 76.26 67.80 61.38 C 73.75 53.20 78.95 45.94 79.36 45.25 C 79.94 44.29 78.29 44.00 72.31 44.00 C 64.50 44.00 64.50 44.00 39.00 79.11 C 24.97 98.42 13.35 114.62 13.17 115.11 C 12.98 115.60 16.36 115.99 20.67 115.97 C 28.50 115.94 28.50 115.94 35.50 106.41 C 42.50 96.88 42.50 96.88 42.76 155.94 C 43.02 215.00 43.02 215.00 50.01 215.00 C 57.00 215.00 57.00 215.00 57.00 145.63 Z  M 152.78 212.45 C 154.83 211.59 157.78 209.68 159.34 208.20 C 165.05 202.77 165.00 203.18 165.00 163.50 C 165.00 126.90 165.00 126.90 158.75 127.20 C 152.50 127.50 152.50 127.50 152.24 162.64 C 152.00 193.74 151.79 197.93 150.34 199.14 C 149.30 200.00 144.99 200.68 138.60 201.00 C 128.50 201.50 128.50 201.50 128.20 207.75 C 127.90 214.00 127.90 214.00 138.48 214.00 C 145.79 214.00 150.22 213.52 152.78 212.45 Z  M 118.74 193.00 C 140.96 183.50 140.96 183.50 140.98 177.25 C 140.99 173.81 140.65 171.00 140.23 171.00 C 139.80 171.00 127.09 176.35 111.98 182.88 C 84.50 194.76 84.50 194.76 84.20 201.36 C 83.91 207.95 83.91 207.95 90.21 205.23 C 93.68 203.73 106.52 198.22 118.74 193.00 Z  M 232.81 198.45 C 232.50 194.87 232.50 194.87 204.50 183.94 C 189.10 177.92 175.92 173.01 175.20 173.00 C 174.25 173.00 173.98 174.61 174.20 179.11 C 174.50 185.22 174.50 185.22 203.50 196.52 C 232.50 207.82 232.50 207.82 232.81 204.93 C 232.98 203.34 232.98 200.43 232.81 198.45 Z  M 141.00 156.61 C 141.00 149.31 143.96 150.54 115.25 145.89 C 107.41 144.63 101.00 143.32 101.00 142.99 C 101.00 142.67 104.13 139.82 107.96 136.68 C 111.78 133.53 117.49 128.04 120.63 124.48 C 126.36 118.00 126.36 118.00 158.78 118.00 C 191.21 118.00 191.21 118.00 203.35 129.61 C 210.03 136.00 215.62 141.53 215.76 141.90 C 216.00 142.52 211.70 143.40 183.25 148.57 C 174.00 150.25 174.00 150.25 174.00 156.63 C 174.00 161.08 174.38 162.99 175.25 162.96 C 175.94 162.94 186.85 161.00 199.50 158.65 C 222.50 154.37 222.50 154.37 222.81 151.19 C 222.99 149.43 223.46 148.00 223.87 148.00 C 224.28 148.00 226.61 149.26 229.05 150.80 C 231.50 152.34 234.06 153.95 234.75 154.36 C 235.71 154.94 235.99 153.30 235.97 147.31 C 235.94 139.50 235.94 139.50 230.72 136.34 C 225.39 133.11 210.77 120.77 210.17 118.99 C 209.96 118.37 214.76 118.00 222.92 118.00 C 236.00 118.00 236.00 118.00 236.00 111.50 C 236.00 105.00 236.00 105.00 185.91 105.00 C 135.82 105.00 135.82 105.00 139.33 98.75 C 142.84 92.50 142.84 92.50 185.42 92.24 C 228.00 91.98 228.00 91.98 228.00 85.49 C 228.00 79.00 228.00 79.00 189.00 79.00 C 144.97 79.00 148.82 79.88 151.57 70.40 C 153.14 65.00 153.14 65.00 192.07 65.00 C 231.00 65.00 231.00 65.00 231.00 58.51 C 231.00 52.02 231.00 52.02 194.25 51.76 C 157.50 51.50 157.50 51.50 157.84 47.25 C 158.17 43.00 158.17 43.00 151.78 43.00 C 145.38 43.00 145.38 43.00 144.44 47.25 C 143.50 51.50 143.50 51.50 113.75 51.76 C 84.00 52.03 84.00 52.03 84.00 58.51 C 84.00 65.00 84.00 65.00 111.61 65.00 C 142.90 65.00 140.47 64.07 136.04 74.41 C 134.07 79.00 134.07 79.00 111.04 79.00 C 88.00 79.00 88.00 79.00 88.00 85.50 C 88.00 92.00 88.00 92.00 107.52 92.00 C 127.04 92.00 127.04 92.00 124.91 96.25 C 120.37 105.29 121.23 105.00 98.83 105.00 C 79.00 105.00 79.00 105.00 79.00 111.47 C 79.00 117.95 79.00 117.95 93.75 118.22 C 108.50 118.50 108.50 118.50 100.22 125.10 C 95.66 128.73 89.02 133.40 85.47 135.48 C 79.00 139.26 79.00 139.26 79.00 147.12 C 79.00 154.97 79.00 154.97 84.75 152.40 C 87.91 150.98 91.03 149.60 91.68 149.33 C 92.38 149.04 92.98 149.98 93.18 151.66 C 93.50 154.49 93.50 154.49 116.00 158.65 C 128.38 160.94 139.06 162.85 139.75 162.90 C 140.63 162.97 141.00 161.11 141.00 156.61 Z "/>
</g>
</svg>