<?xml version="1.0" encoding="UTF-8" standalone="no"?>
<!DOCTYPE svg PUBLIC "-//W3C//DTD SVG 1.1//EN" "http://www.w3.org/Graphics/SVG/1.1/DTD/svg11.dtd" >
<svg xmlns="http://www.w3.org/2000/svg" xmlns:xlink="http://www.w3.org/1999/xlink" version="1.1" viewBox="0 0 256 256">
 <g >
 <path fill="currentColor"
d=" M 49.07 180.22 C 57.28 161.37 64.00 145.49 64.00 144.93 C 64.00 144.31 61.39 144.02 57.34 144.20 C 50.68 144.50 50.68 144.50 35.85 177.50 C 27.69 195.65 20.57 211.53 20.01 212.79 C 19.01 215.08 19.02 215.08 26.57 214.79 C 34.13 214.50 34.13 214.50 49.07 180.22 Z  M 126.17 212.09 C 128.10 210.76 130.76 208.10 132.09 206.17 C 134.50 202.65 134.50 202.62 134.79 170.33 C 135.08 138.00 135.08 138.00 109.43 138.00 C 83.78 138.00 83.78 138.00 84.44 124.75 C 85.50 103.63 82.38 106.00 109.08 106.00 C 132.00 106.00 132.00 106.00 132.00 76.50 C 132.00 47.00 132.00 47.00 100.50 47.00 C 69.00 47.00 69.00 47.00 69.00 53.50 C 69.00 60.00 69.00 60.00 94.50 60.00 C 120.00 60.00 120.00 60.00 120.00 76.50 C 120.00 93.00 120.00 93.00 97.07 93.00 C 74.14 93.00 74.14 93.00 73.60 98.25 C 73.01 103.92 70.98 142.43 70.99 147.73 C 71.00 150.97 71.00 150.97 96.75 151.23 C 122.50 151.50 122.50 151.50 122.80 171.00 C 122.96 181.72 122.82 192.41 122.49 194.74 C 121.44 202.01 121.49 202.00 97.93 202.00 C 77.00 202.00 77.00 202.00 77.00 208.55 C 77.00 215.10 77.00 215.10 99.83 214.80 C 122.07 214.51 122.74 214.44 126.17 212.09 Z  M 197.00 207.50 C 197.00 201.00 197.00 201.00 184.57 201.00 C 166.50 201.00 167.91 204.52 168.24 160.10 C 168.50 124.50 168.50 124.50 181.92 124.50 C 195.33 124.50 195.33 124.50 210.25 169.25 C 225.17 214.00 225.17 214.00 232.19 214.00 C 238.47 214.00 239.14 213.81 238.54 212.25 C 235.62 204.74 209.00 126.41 209.00 125.35 C 209.00 124.27 212.14 124.00 224.50 124.00 C 240.00 124.00 240.00 124.00 240.00 117.50 C 240.00 111.00 240.00 111.00 204.00 111.00 C 168.00 111.00 168.00 111.00 168.00 78.00 C 168.00 45.00 168.00 45.00 161.50 45.00 C 155.00 45.00 155.00 45.00 155.00 77.96 C 155.00 110.93 155.00 110.93 145.25 111.21 C 135.50 111.50 135.50 111.50 135.20 117.75 C 134.90 124.00 134.90 124.00 144.90 124.00 C 154.89 124.00 154.89 124.00 155.19 161.75 C 155.53 203.03 155.42 202.27 161.66 208.19 C 166.71 212.98 170.37 213.92 184.25 213.96 C 197.00 214.00 197.00 214.00 197.00 207.50 Z  M 61.00 132.55 C 61.00 131.69 37.56 95.50 36.53 94.77 C 34.84 93.56 24.00 93.86 24.00 95.12 C 24.00 95.73 29.06 104.50 35.25 114.60 C 46.50 132.97 46.50 132.97 53.75 132.99 C 57.74 132.99 61.00 132.80 61.00 132.55 Z  M 206.63 77.33 C 237.00 61.66 237.00 61.66 237.00 54.83 C 237.00 51.07 236.89 48.00 236.75 48.00 C 236.61 48.01 222.78 55.09 206.00 63.75 C 175.50 79.50 175.50 79.50 175.20 86.25 C 175.04 89.96 175.21 93.00 175.58 93.00 C 175.95 93.00 189.92 85.95 206.63 77.33 Z  M 61.00 82.19 C 61.00 81.74 55.62 73.19 49.04 63.19 C 37.08 45.00 37.08 45.00 30.07 45.00 C 23.07 45.00 23.07 45.00 33.66 61.73 C 39.49 70.94 44.93 79.49 45.75 80.73 C 47.05 82.73 48.06 83.00 54.12 83.00 C 57.90 83.00 61.00 82.63 61.00 82.19 Z "/>
</g>
</svg>