<?xml version="1.0" encoding="UTF-8" standalone="no"?>
<!DOCTYPE svg PUBLIC "-//W3C//DTD SVG 1.1//EN" "http://www.w3.org/Graphics/SVG/1.1/DTD/svg11.dtd" >
<svg xmlns="http://www.w3.org/2000/svg" xmlns:xlink="http://www.w3.org/1999/xlink" version="1.1" viewBox="0 0 256 256">
 <g >
 <path fill="currentColor"
d=" M 236.24 192.55 C 228.86 184.64 218.61 170.65 213.37 161.32 C 210.10 155.50 210.10 155.50 214.11 146.62 C 221.42 130.45 226.34 112.05 231.46 81.75 C 232.08 78.07 232.18 78.00 236.55 78.00 C 241.00 78.00 241.00 78.00 241.00 71.50 C 241.00 65.00 241.00 65.00 214.50 65.00 C 183.81 65.00 186.67 66.52 190.00 52.00 C 191.07 47.33 191.96 43.16 191.97 42.75 C 191.99 42.34 189.07 42.00 185.50 42.00 C 181.93 42.00 179.00 42.23 179.00 42.52 C 179.00 42.80 175.18 60.23 170.50 81.23 C 165.82 102.24 162.00 120.03 162.00 120.76 C 162.00 121.76 163.56 122.02 168.21 121.80 C 174.42 121.50 174.42 121.50 176.07 113.22 C 176.98 108.67 177.94 104.73 178.20 104.47 C 178.45 104.21 180.56 110.64 182.87 118.75 C 185.18 126.86 189.11 138.55 191.61 144.72 C 196.15 155.94 196.15 155.94 190.68 165.22 C 184.13 176.34 177.78 185.17 169.87 194.16 C 164.00 200.83 164.00 200.83 164.00 207.91 C 164.00 212.17 164.42 215.00 165.04 215.00 C 165.62 215.00 170.30 210.93 175.44 205.95 C 184.51 197.18 194.47 184.46 199.87 174.76 C 201.31 172.16 202.77 170.02 203.10 170.01 C 203.43 170.01 206.17 173.71 209.19 178.25 C 217.35 190.51 226.18 201.09 234.81 208.97 C 242.50 215.99 242.50 215.99 242.79 207.93 C 243.08 199.88 243.08 199.88 236.24 192.55 Z  M 153.00 203.00 C 153.00 192.09 153.02 192.00 155.38 192.00 C 156.68 192.00 159.16 191.72 160.88 191.38 C 163.98 190.75 164.00 190.71 164.00 184.45 C 164.00 178.14 164.00 178.14 158.49 178.71 C 152.98 179.28 152.98 179.28 153.24 137.89 C 153.50 96.50 153.50 96.50 158.75 96.20 C 164.00 95.90 164.00 95.90 164.00 89.95 C 164.00 84.00 164.00 84.00 156.50 84.00 C 147.54 84.00 147.97 85.63 151.50 65.00 C 152.86 57.02 153.99 49.94 153.99 49.25 C 154.00 48.27 146.64 48.00 120.50 48.00 C 87.00 48.00 87.00 48.00 87.00 54.50 C 87.00 61.00 87.00 61.00 113.00 61.00 C 137.11 61.00 139.00 61.13 138.95 62.75 C 138.92 63.71 138.13 68.78 137.20 74.00 C 135.50 83.50 135.50 83.50 108.75 83.77 C 82.00 84.03 82.00 84.03 82.00 89.96 C 82.00 95.88 82.00 95.88 85.75 96.19 C 89.50 96.50 89.50 96.50 89.76 140.74 C 90.02 184.97 90.02 184.97 86.01 185.61 C 82.00 186.26 82.00 186.26 82.00 192.72 C 82.00 199.19 82.00 199.19 86.75 198.59 C 89.36 198.26 100.72 197.10 112.00 196.01 C 123.28 194.93 134.19 193.80 136.25 193.51 C 140.00 192.98 140.00 192.98 140.00 203.49 C 140.00 214.00 140.00 214.00 146.50 214.00 C 153.00 214.00 153.00 214.00 153.00 203.00 Z  M 78.00 129.00 C 78.00 51.00 78.00 51.00 46.00 51.00 C 14.00 51.00 14.00 51.00 14.00 129.00 C 14.00 207.00 14.00 207.00 46.00 207.00 C 78.00 207.00 78.00 207.00 78.00 129.00 Z  M 202.20 137.00 C 201.65 135.62 200.22 132.03 199.02 129.00 C 197.26 124.59 193.05 108.38 189.46 92.25 C 189.06 90.44 188.28 90.00 185.48 90.00 C 181.55 90.00 181.37 89.41 183.12 82.44 C 184.24 78.00 184.24 78.00 201.62 78.00 C 216.04 78.00 219.00 78.24 219.00 79.43 C 219.00 80.22 217.89 86.86 216.53 94.18 C 213.79 108.90 210.57 120.63 206.13 132.00 C 203.40 138.98 203.13 139.33 202.20 137.00 Z  M 103.00 174.00 C 103.00 164.00 103.00 164.00 121.50 164.00 C 140.00 164.00 140.00 164.00 140.00 171.95 C 140.00 179.91 140.00 179.91 136.75 180.44 C 133.54 180.97 105.55 184.00 103.87 184.00 C 103.39 184.00 103.00 179.50 103.00 174.00 Z  M 103.00 140.50 C 103.00 130.00 103.00 130.00 121.50 130.00 C 140.00 130.00 140.00 130.00 140.00 140.50 C 140.00 151.00 140.00 151.00 121.50 151.00 C 103.00 151.00 103.00 151.00 103.00 140.50 Z  M 103.00 106.50 C 103.00 96.00 103.00 96.00 121.50 96.00 C 140.00 96.00 140.00 96.00 140.00 106.50 C 140.00 117.00 140.00 117.00 121.50 117.00 C 103.00 117.00 103.00 117.00 103.00 106.50 Z  M 27.00 176.50 C 27.00 159.00 27.00 159.00 46.00 159.00 C 65.00 159.00 65.00 159.00 65.00 176.50 C 65.00 194.00 65.00 194.00 46.00 194.00 C 27.00 194.00 27.00 194.00 27.00 176.50 Z  M 27.00 128.48 C 27.00 110.96 27.00 110.96 45.75 111.23 C 64.50 111.50 64.50 111.50 64.77 128.75 C 65.05 146.00 65.05 146.00 46.02 146.00 C 27.00 146.00 27.00 146.00 27.00 128.48 Z  M 27.00 81.00 C 27.00 64.00 27.00 64.00 46.00 64.00 C 65.00 64.00 65.00 64.00 65.00 81.00 C 65.00 98.00 65.00 98.00 46.00 98.00 C 27.00 98.00 27.00 98.00 27.00 81.00 Z "/>
</g>
</svg>