<?xml version="1.0" encoding="UTF-8" standalone="no"?>
<!DOCTYPE svg PUBLIC "-//W3C//DTD SVG 1.1//EN" "http://www.w3.org/Graphics/SVG/1.1/DTD/svg11.dtd" >
<svg xmlns="http://www.w3.org/2000/svg" xmlns:xlink="http://www.w3.org/1999/xlink" version="1.1" viewBox="0 0 256 256">
 <g >
 <path fill="currentColor"
d=" M 119.76 176.25 C 119.50 137.50 119.50 137.50 98.25 137.23 C 77.00 136.96 77.00 136.96 77.00 124.98 C 77.00 113.00 77.00 113.00 100.05 113.00 C 123.09 113.00 123.09 113.00 122.80 106.25 C 122.50 99.50 122.50 99.50 99.75 99.23 C 77.00 98.96 77.00 98.96 77.00 90.98 C 77.00 83.00 77.00 83.00 70.50 83.00 C 64.00 83.00 64.00 83.00 64.00 91.00 C 64.00 99.00 64.00 99.00 40.50 99.00 C 17.00 99.00 17.00 99.00 17.00 105.98 C 17.00 112.96 17.00 112.96 40.25 113.23 C 63.50 113.50 63.50 113.50 63.78 125.25 C 64.06 137.00 64.06 137.00 42.03 137.00 C 20.00 137.00 20.00 137.00 20.00 176.00 C 20.00 215.00 20.00 215.00 70.01 215.00 C 120.02 215.00 120.02 215.00 119.76 176.25 Z  M 141.76 205.25 C 146.68 194.61 148.76 187.75 149.62 179.37 C 150.28 173.00 150.28 173.00 186.14 173.00 C 222.00 173.00 222.00 173.00 222.00 185.43 C 222.00 195.39 221.69 198.17 220.43 199.43 C 219.18 200.68 216.44 201.00 206.93 201.00 C 195.00 201.00 195.00 201.00 195.00 207.58 C 195.00 214.15 195.00 214.15 208.83 213.83 C 221.89 213.52 222.88 213.35 226.71 210.82 C 229.14 209.20 231.60 206.39 232.88 203.75 C 234.97 199.44 235.00 198.42 235.00 141.68 C 235.00 84.00 235.00 84.00 186.00 84.00 C 137.00 84.00 137.00 84.00 137.00 130.43 C 137.00 167.81 136.71 178.26 135.50 183.98 C 133.85 191.85 129.62 202.48 125.61 208.82 C 124.17 211.10 123.00 213.19 123.00 213.48 C 123.00 213.77 126.31 214.00 130.35 214.00 C 137.71 214.00 137.71 214.00 141.76 205.25 Z  M 73.80 72.75 C 74.10 67.00 74.10 67.00 127.50 67.00 C 180.90 67.00 180.90 67.00 181.20 72.75 C 181.50 78.50 181.50 78.50 187.75 78.80 C 194.00 79.10 194.00 79.10 194.00 73.05 C 194.00 67.00 194.00 67.00 217.50 67.00 C 241.00 67.00 241.00 67.00 241.00 60.52 C 241.00 54.04 241.00 54.04 217.75 53.77 C 194.50 53.50 194.50 53.50 194.20 48.75 C 193.89 44.00 193.89 44.00 187.45 44.00 C 181.00 44.00 181.00 44.00 181.00 49.00 C 181.00 54.00 181.00 54.00 127.50 54.00 C 74.00 54.00 74.00 54.00 74.00 49.00 C 74.00 44.00 74.00 44.00 67.55 44.00 C 61.11 44.00 61.11 44.00 60.80 48.75 C 60.50 53.50 60.50 53.50 37.25 53.77 C 14.00 54.04 14.00 54.04 14.00 60.52 C 14.00 67.00 14.00 67.00 37.50 67.00 C 61.00 67.00 61.00 67.00 61.00 73.05 C 61.00 79.10 61.00 79.10 67.25 78.80 C 73.50 78.50 73.50 78.50 73.80 72.75 Z  M 33.00 175.99 C 33.00 149.98 33.00 149.98 70.25 150.24 C 107.50 150.50 107.50 150.50 107.77 176.25 C 108.03 202.00 108.03 202.00 70.52 202.00 C 33.00 202.00 33.00 202.00 33.00 175.99 Z  M 150.22 147.75 C 150.50 135.50 150.50 135.50 186.25 135.24 C 222.00 134.97 222.00 134.97 222.00 147.49 C 222.00 160.00 222.00 160.00 185.97 160.00 C 149.94 160.00 149.94 160.00 150.22 147.75 Z  M 150.22 108.75 C 150.50 96.50 150.50 96.50 186.25 96.24 C 222.00 95.97 222.00 95.97 222.00 108.49 C 222.00 121.00 222.00 121.00 185.97 121.00 C 149.94 121.00 149.94 121.00 150.22 108.75 Z "/>
</g>
</svg>