<?xml version="1.0" encoding="UTF-8" standalone="no"?>
<!DOCTYPE svg PUBLIC "-//W3C//DTD SVG 1.1//EN" "http://www.w3.org/Graphics/SVG/1.1/DTD/svg11.dtd" >
<svg xmlns="http://www.w3.org/2000/svg" xmlns:xlink="http://www.w3.org/1999/xlink" version="1.1" viewBox="0 0 256 256">
 <g >
 <path fill="currentColor"
d=" M 135.34 206.37 C 145.61 202.08 160.23 194.28 169.53 188.15 C 178.33 182.34 178.33 182.34 187.88 188.73 C 198.44 195.79 221.49 207.44 232.75 211.40 C 240.00 213.96 240.00 213.96 240.00 206.95 C 240.00 201.16 239.69 199.83 238.25 199.34 C 226.78 195.44 197.61 181.06 191.16 176.14 C 188.81 174.35 188.81 174.35 197.66 165.42 C 208.02 154.96 219.64 139.96 223.94 131.49 C 225.61 128.19 226.98 125.16 226.99 124.75 C 226.99 124.34 223.85 124.00 220.00 124.00 C 216.15 124.00 213.00 124.42 213.00 124.93 C 213.00 125.45 210.21 130.06 206.79 135.18 C 201.05 143.80 180.46 166.00 178.21 166.00 C 176.11 166.00 152.05 139.94 147.03 132.23 C 141.67 124.00 141.67 124.00 135.83 124.00 C 132.52 124.00 130.00 124.44 130.00 125.02 C 130.00 125.59 131.56 129.15 133.47 132.95 C 138.16 142.26 150.11 157.88 159.45 166.91 C 165.11 172.38 166.77 174.54 165.81 175.20 C 157.84 180.59 142.77 188.59 131.00 193.70 C 116.50 199.98 116.50 199.98 116.21 206.96 C 115.91 213.94 115.91 213.94 122.55 211.45 C 126.20 210.07 131.95 207.79 135.34 206.37 Z  M 64.00 209.48 C 119.86 205.74 114.00 206.93 114.00 199.29 C 114.00 192.79 114.00 192.79 106.25 193.37 C 101.99 193.69 93.21 194.23 86.75 194.57 C 75.00 195.20 75.00 195.20 75.00 173.60 C 75.00 152.00 75.00 152.00 92.55 152.00 C 110.10 152.00 110.10 152.00 109.80 145.75 C 109.50 139.50 109.50 139.50 92.25 139.23 C 75.00 138.95 75.00 138.95 75.00 124.48 C 75.00 110.00 75.00 110.00 92.00 110.00 C 109.00 110.00 109.00 110.00 109.00 77.00 C 109.00 44.00 109.00 44.00 64.00 44.00 C 19.00 44.00 19.00 44.00 19.00 76.98 C 19.00 109.96 19.00 109.96 40.25 110.23 C 61.50 110.50 61.50 110.50 61.76 153.15 C 62.05 201.15 64.37 195.88 42.25 197.58 C 34.00 198.21 34.00 198.21 34.00 158.60 C 34.00 119.00 34.00 119.00 27.50 119.00 C 21.00 119.00 21.00 119.00 21.00 158.99 C 21.00 198.98 21.00 198.98 17.00 199.62 C 13.00 200.26 13.00 200.26 13.00 206.71 C 13.00 213.17 13.00 213.17 20.25 212.55 C 24.24 212.21 43.92 210.83 64.00 209.48 Z  M 140.01 99.25 C 145.16 88.39 149.55 79.16 149.75 78.75 C 149.95 78.34 147.24 78.00 143.72 78.00 C 137.33 78.00 137.33 78.00 128.06 97.25 C 122.96 107.84 118.57 117.06 118.29 117.75 C 117.92 118.67 119.47 119.00 124.21 119.00 C 130.64 119.00 130.64 119.00 140.01 99.25 Z  M 229.35 101.25 C 224.65 91.49 220.35 82.26 219.80 80.75 C 218.86 78.14 218.48 78.00 212.40 78.00 C 208.88 78.00 206.00 78.25 206.00 78.55 C 206.00 79.07 220.70 110.47 223.65 116.25 C 224.96 118.82 225.47 119.00 231.48 119.00 C 237.91 119.00 237.91 119.00 229.35 101.25 Z  M 237.00 64.00 C 237.00 58.00 237.00 58.00 211.68 58.00 C 186.35 58.00 186.35 58.00 184.00 50.50 C 181.65 43.00 181.65 43.00 174.82 43.00 C 171.07 43.00 168.00 43.38 168.00 43.84 C 168.00 44.31 168.90 47.30 170.00 50.50 C 171.10 53.70 172.00 56.69 172.00 57.16 C 172.00 57.62 159.85 58.00 145.00 58.00 C 118.00 58.00 118.00 58.00 118.00 64.00 C 118.00 70.00 118.00 70.00 177.50 70.00 C 237.00 70.00 237.00 70.00 237.00 64.00 Z  M 32.00 77.00 C 32.00 57.00 32.00 57.00 64.00 57.00 C 96.00 57.00 96.00 57.00 96.00 77.00 C 96.00 97.00 96.00 97.00 64.00 97.00 C 32.00 97.00 32.00 97.00 32.00 77.00 Z "/>
</g>
</svg>