<?xml version="1.0" encoding="UTF-8" standalone="no"?>
<!DOCTYPE svg PUBLIC "-//W3C//DTD SVG 1.1//EN" "http://www.w3.org/Graphics/SVG/1.1/DTD/svg11.dtd" >
<svg xmlns="http://www.w3.org/2000/svg" xmlns:xlink="http://www.w3.org/1999/xlink" version="1.1" viewBox="0 0 256 256">
 <g >
 <path fill="currentColor"
d=" M 221.87 216.69 C 224.28 216.05 226.41 215.06 226.62 214.51 C 227.14 213.08 215.54 127.21 214.71 126.38 C 214.04 125.71 187.32 132.34 186.21 133.46 C 185.77 133.90 197.79 173.09 200.67 180.58 C 201.13 181.77 198.56 182.00 184.61 182.00 C 175.47 182.00 167.99 181.66 167.97 181.25 C 167.95 180.84 172.30 165.15 177.63 146.39 C 187.32 112.28 187.32 112.28 205.16 108.94 C 223.00 105.60 223.00 105.60 223.00 98.80 C 223.00 92.00 223.00 92.00 180.50 92.00 C 138.00 92.00 138.00 92.00 138.00 106.00 C 138.00 115.77 138.34 120.00 139.13 120.00 C 139.76 120.00 143.13 119.47 146.63 118.83 C 150.13 118.18 153.25 117.92 153.57 118.24 C 153.89 118.56 150.89 139.55 146.89 164.89 C 142.89 190.22 139.82 211.15 140.06 211.38 C 140.30 211.62 155.35 208.98 173.50 205.50 C 191.65 202.03 206.77 199.49 207.10 199.85 C 207.42 200.21 209.18 204.69 210.99 209.80 C 213.63 217.25 214.60 218.98 215.89 218.48 C 216.78 218.14 219.47 217.34 221.87 216.69 Z  M 130.00 148.50 C 130.00 80.00 130.00 80.00 118.85 80.00 C 107.70 80.00 107.70 80.00 108.35 71.75 C 108.70 67.21 108.99 62.07 108.99 60.32 C 109.00 56.55 108.94 56.57 122.75 54.97 C 133.00 53.78 133.00 53.78 133.00 46.39 C 133.00 39.00 133.00 39.00 80.50 39.00 C 28.00 39.00 28.00 39.00 28.00 52.82 C 28.00 66.64 28.00 66.64 41.75 64.86 C 62.11 62.22 60.13 61.53 59.79 71.25 C 59.50 79.50 59.50 79.50 45.25 79.78 C 31.00 80.05 31.00 80.05 31.00 148.53 C 31.00 217.00 31.00 217.00 80.50 217.00 C 130.00 217.00 130.00 217.00 130.00 148.50 Z  M 182.00 61.50 C 202.06 58.48 219.04 56.00 219.73 56.00 C 220.66 56.00 221.00 53.69 221.00 47.50 C 221.00 39.00 221.00 39.00 181.00 39.00 C 141.00 39.00 141.00 39.00 141.00 53.00 C 141.00 66.88 141.02 67.00 143.27 67.00 C 144.51 67.00 161.94 64.53 182.00 61.50 Z  M 57.62 198.88 C 56.86 195.06 56.80 189.00 57.53 189.00 C 58.60 189.00 99.57 182.94 101.75 182.46 C 103.91 181.98 104.00 182.22 104.00 188.89 C 104.00 195.82 104.00 195.82 100.25 196.43 C 97.38 196.89 58.98 202.00 58.38 202.00 C 58.31 202.00 57.97 200.59 57.62 198.88 Z  M 55.58 163.75 C 55.13 160.95 49.96 97.91 49.99 95.70 C 49.99 95.25 52.14 95.03 54.75 95.20 C 59.50 95.50 59.50 95.50 59.76 125.64 C 60.03 155.77 60.03 155.77 62.26 156.37 C 65.95 157.36 71.00 157.08 71.00 155.88 C 71.00 154.16 77.97 101.80 78.54 99.25 C 78.94 97.45 79.73 97.00 82.46 97.00 C 84.34 97.00 86.06 97.34 86.28 97.75 C 86.50 98.16 86.11 108.85 85.41 121.50 C 83.27 159.89 82.14 156.00 95.50 156.00 C 107.00 156.00 107.00 156.00 107.00 161.50 C 107.00 167.00 107.00 167.00 81.55 167.00 C 56.09 167.00 56.09 167.00 55.58 163.75 Z  M 103.25 140.29 C 100.52 139.77 100.55 140.72 102.67 118.25 C 104.40 100.00 104.40 100.00 108.20 100.00 C 112.80 100.00 112.67 98.64 110.35 123.25 C 108.56 142.27 108.93 141.39 103.25 140.29 Z  M 81.51 70.75 C 81.90 65.66 82.43 61.16 82.67 60.75 C 82.92 60.34 84.14 60.00 85.38 60.00 C 87.59 60.00 87.63 60.21 87.25 68.75 C 86.77 79.66 86.65 80.00 83.43 80.00 C 80.79 80.00 80.79 80.00 81.51 70.75 Z "/>
</g>
</svg>