<?xml version="1.0" encoding="UTF-8" standalone="no"?>
<!DOCTYPE svg PUBLIC "-//W3C//DTD SVG 1.1//EN" "http://www.w3.org/Graphics/SVG/1.1/DTD/svg11.dtd" >
<svg xmlns="http://www.w3.org/2000/svg" xmlns:xlink="http://www.w3.org/1999/xlink" version="1.1" viewBox="0 0 256 256">
 <g >
 <path fill="currentColor"
d=" M 81.25 205.00 C 97.05 198.68 109.98 193.17 109.99 192.76 C 109.99 192.35 107.98 188.86 105.50 185.00 C 103.03 181.14 101.00 177.80 101.00 177.58 C 101.00 177.36 104.94 176.28 109.75 175.18 C 118.50 173.19 118.50 173.19 150.00 178.48 C 181.50 183.76 181.50 183.76 169.75 183.88 C 163.29 183.95 158.00 184.32 158.00 184.72 C 158.00 185.12 160.58 193.22 163.73 202.72 C 169.46 220.00 169.46 220.00 178.21 220.00 C 188.49 220.00 187.15 222.32 189.60 200.20 C 191.29 184.90 191.29 184.90 193.89 185.42 C 195.33 185.70 202.76 186.87 210.42 188.01 C 220.65 189.53 224.52 189.77 225.04 188.93 C 225.79 187.73 227.16 177.83 226.65 177.32 C 226.49 177.16 213.01 174.22 196.70 170.79 C 180.39 167.36 167.59 164.26 168.27 163.90 C 168.95 163.54 176.25 162.01 184.50 160.50 C 192.75 158.98 199.86 157.42 200.29 157.03 C 200.98 156.41 199.99 150.02 198.40 144.75 C 197.92 143.18 198.73 143.00 206.18 142.99 C 210.76 142.98 216.19 142.70 218.25 142.36 C 222.00 141.74 222.00 141.74 222.00 135.37 C 222.00 129.00 222.00 129.00 185.43 129.00 C 148.87 129.00 148.87 129.00 149.18 126.25 C 149.45 123.91 149.94 123.51 152.50 123.59 C 188.31 124.69 215.86 125.02 216.26 124.35 C 216.54 123.88 217.07 121.67 217.44 119.44 C 218.11 115.39 218.11 115.39 185.77 109.69 C 167.98 106.56 152.70 104.00 151.82 104.00 C 150.55 104.00 150.05 105.55 149.48 111.25 C 149.08 115.24 148.25 118.83 147.63 119.23 C 147.01 119.64 144.59 119.98 142.25 119.98 C 138.53 120.00 138.00 119.73 138.00 117.79 C 138.00 113.82 142.26 82.52 142.89 81.85 C 143.22 81.49 154.88 80.88 168.80 80.48 C 194.09 79.76 194.09 79.76 191.30 84.38 C 189.77 86.92 187.84 89.00 187.01 89.00 C 186.18 89.00 177.07 87.57 166.76 85.83 C 156.45 84.08 147.81 82.85 147.56 83.10 C 147.31 83.36 146.80 87.62 146.42 92.58 C 145.74 101.60 145.74 101.60 180.44 103.43 C 200.48 104.49 215.48 104.89 215.96 104.38 C 216.42 103.90 217.10 101.64 217.46 99.37 C 218.13 95.25 218.13 95.25 213.43 94.54 C 204.37 93.18 204.08 92.13 212.75 92.06 C 221.00 92.00 221.00 92.00 221.00 78.50 C 221.00 65.00 221.00 65.00 183.50 65.00 C 146.00 65.00 146.00 65.00 146.00 60.56 C 146.00 56.12 146.00 56.12 150.25 55.60 C 154.61 55.06 202.11 52.98 209.75 52.99 C 214.00 53.00 214.00 53.00 214.00 45.50 C 214.00 38.00 214.00 38.00 127.00 38.00 C 40.00 38.00 40.00 38.00 40.00 50.26 C 40.00 62.51 40.00 62.51 44.25 62.24 C 46.59 62.09 61.03 61.07 76.35 59.98 C 113.62 57.33 111.00 57.21 111.00 61.50 C 111.00 65.00 111.00 65.00 72.50 65.00 C 34.00 65.00 34.00 65.00 34.00 78.43 C 34.00 91.60 34.04 91.87 36.25 92.18 C 38.20 92.46 38.50 93.09 38.50 97.00 C 38.50 101.50 38.50 101.50 67.50 103.16 C 83.45 104.08 99.54 104.87 103.25 104.91 C 110.00 105.00 110.00 105.00 110.00 100.17 C 110.00 95.35 110.00 95.35 86.50 90.98 C 73.57 88.58 63.00 86.25 63.00 85.81 C 63.00 85.36 65.81 85.00 69.25 85.00 C 72.69 85.00 83.86 84.70 94.07 84.35 C 112.64 83.70 112.64 83.70 114.34 100.10 C 116.65 122.44 116.67 122.00 113.00 122.00 C 110.24 122.00 110.00 121.72 110.00 118.50 C 110.00 116.58 109.66 115.01 109.25 115.02 C 108.84 115.03 93.95 112.47 76.17 109.34 C 51.12 104.93 43.66 103.93 43.06 104.90 C 42.01 106.61 39.86 122.19 40.58 122.92 C 40.90 123.24 55.42 123.90 72.83 124.38 C 101.45 125.18 104.73 125.44 106.88 127.13 C 109.23 128.97 108.57 129.00 71.13 129.00 C 33.00 129.00 33.00 129.00 33.00 140.14 C 33.00 151.27 33.00 151.27 45.62 150.78 C 58.23 150.30 58.23 150.30 57.51 154.90 C 56.11 163.82 55.80 163.30 63.25 164.54 C 66.96 165.16 70.21 165.88 70.47 166.14 C 70.73 166.39 61.44 168.71 49.82 171.28 C 38.21 173.85 28.53 176.14 28.31 176.35 C 27.88 176.78 29.70 189.04 30.28 189.62 C 30.48 189.81 40.06 188.18 51.57 186.00 C 63.08 183.81 73.38 182.02 74.47 182.01 C 75.55 182.01 68.16 187.16 58.04 193.47 C 47.93 199.78 39.27 205.33 38.79 205.81 C 38.31 206.29 39.26 209.62 40.92 213.33 C 43.92 220.00 43.92 220.00 48.22 218.25 C 50.59 217.29 65.45 211.32 81.25 205.00 Z  M 106.50 151.08 C 95.50 148.39 95.50 148.39 107.50 147.70 C 114.10 147.33 127.15 146.80 136.50 146.53 C 153.50 146.04 153.50 146.04 138.00 149.98 C 129.47 152.14 121.38 153.88 120.00 153.85 C 118.62 153.81 112.55 152.57 106.50 151.08 Z "/>
</g>
</svg>