<?xml version="1.0" encoding="UTF-8" standalone="no"?>
<!DOCTYPE svg PUBLIC "-//W3C//DTD SVG 1.1//EN" "http://www.w3.org/Graphics/SVG/1.1/DTD/svg11.dtd" >
<svg xmlns="http://www.w3.org/2000/svg" xmlns:xlink="http://www.w3.org/1999/xlink" version="1.1" viewBox="0 0 275 269">
 <g >
 <path fill="currentColor"
d=" M 83.06 239.48 C 84.95 238.09 87.06 236.21 87.75 235.29 C 89.35 233.15 89.42 214.38 87.88 201.31 C 87.12 194.92 87.08 191.56 87.76 191.14 C 88.44 190.71 88.43 188.84 87.73 185.46 C 86.96 181.73 87.34 164.63 89.20 119.46 C 90.69 83.15 91.35 57.80 90.82 56.76 C 90.34 55.81 88.83 54.74 87.47 54.40 C 86.11 54.06 85.00 53.53 85.00 53.21 C 85.00 52.90 87.49 45.07 90.53 35.82 C 93.57 26.57 96.16 17.31 96.28 15.25 C 96.50 11.50 96.50 11.50 90.07 11.50 C 83.64 11.50 83.64 11.50 79.38 21.26 C 77.04 26.62 71.67 39.90 67.44 50.76 C 61.47 66.12 56.87 75.72 46.72 94.00 C 26.32 130.78 13.83 155.67 14.19 158.80 C 14.48 161.37 14.80 161.51 20.50 161.74 C 28.77 162.08 30.54 160.28 37.58 144.34 C 50.57 114.89 65.41 87.41 70.96 82.50 C 73.22 80.50 73.22 80.50 72.55 118.00 C 72.18 138.62 71.46 170.57 70.95 189.00 C 69.58 238.01 69.47 235.22 72.90 238.89 C 76.42 242.66 78.54 242.78 83.06 239.48 Z  M 197.34 232.75 C 198.68 230.96 201.77 225.68 204.21 221.00 C 206.65 216.32 213.82 203.72 220.16 193.00 C 244.33 152.07 260.00 122.73 260.00 118.41 C 260.00 115.71 255.74 110.01 253.71 110.01 C 251.02 110.00 205.51 125.34 197.61 128.92 C 193.81 130.64 190.49 131.83 190.22 131.56 C 189.96 131.29 192.15 123.07 195.09 113.29 C 198.95 100.49 200.46 93.82 200.47 89.50 C 200.50 83.50 200.50 83.50 196.90 83.20 C 193.83 82.94 192.83 83.43 190.13 86.51 C 185.86 91.37 178.42 106.49 171.94 123.50 C 169.00 131.20 166.51 137.64 166.40 137.82 C 166.29 137.99 159.07 139.67 150.35 141.55 C 122.35 147.58 112.97 151.19 113.03 155.93 C 113.09 161.01 114.93 162.00 124.11 161.96 C 128.72 161.94 137.11 161.36 142.75 160.66 C 151.22 159.62 153.00 159.63 153.00 160.72 C 153.00 162.82 146.17 175.78 132.59 199.41 C 125.66 211.47 120.00 221.78 120.00 222.34 C 120.00 224.54 122.46 230.00 123.45 229.99 C 125.09 229.97 134.52 225.40 138.53 222.67 C 141.53 220.63 142.89 218.40 146.42 209.76 C 151.33 197.71 155.19 190.57 162.58 179.89 C 165.48 175.71 168.37 170.35 169.01 167.98 C 170.89 160.99 179.29 153.45 192.67 146.75 C 203.25 141.46 231.63 131.30 232.74 132.40 C 234.56 134.23 226.02 151.58 218.37 161.61 C 216.36 164.23 212.79 170.84 210.42 176.30 C 201.92 195.88 193.29 206.86 184.58 209.19 C 180.00 210.41 180.00 210.41 180.00 219.96 C 180.01 227.71 180.38 230.11 181.99 232.75 C 183.84 235.78 184.34 236.00 189.43 236.00 C 194.43 236.00 195.11 235.72 197.34 232.75 Z  M 134.40 120.75 C 137.11 116.52 138.27 109.50 138.88 93.62 C 139.50 77.75 139.50 77.75 159.50 71.01 C 170.50 67.31 180.85 63.80 182.50 63.22 C 184.15 62.63 190.68 61.48 197.00 60.65 C 211.60 58.73 220.87 55.85 225.05 51.96 C 228.18 49.02 228.26 48.76 227.65 42.88 C 227.30 39.55 226.76 36.42 226.45 35.91 C 225.37 34.18 218.84 35.01 214.68 37.41 C 205.53 42.69 185.24 48.41 157.68 53.47 C 136.73 57.31 139.00 59.26 139.00 37.37 C 139.00 21.92 138.64 17.21 136.89 9.74 C 134.77 0.74 134.77 0.74 128.80 1.36 C 125.52 1.71 122.35 2.28 121.77 2.64 C 120.61 3.36 121.21 18.75 123.13 37.25 C 124.03 45.97 123.99 48.31 122.92 49.60 C 122.04 50.65 121.52 54.66 121.39 61.35 C 121.28 66.93 120.87 83.09 120.49 97.25 C 119.78 123.00 119.78 123.00 126.37 123.00 C 132.10 123.00 133.14 122.71 134.40 120.75 Z "/>
</g>
</svg>