<?xml version="1.0" encoding="UTF-8" standalone="no"?>
<!DOCTYPE svg PUBLIC "-//W3C//DTD SVG 1.1//EN" "http://www.w3.org/Graphics/SVG/1.1/DTD/svg11.dtd" >
<svg xmlns="http://www.w3.org/2000/svg" xmlns:xlink="http://www.w3.org/1999/xlink" version="1.1" viewBox="0 0 275 256">
 <g >
 <path fill="currentColor"
d=" M 85.39 225.91 C 86.86 224.75 89.06 221.94 90.28 219.66 C 92.47 215.55 92.50 214.92 92.79 167.38 C 93.07 119.27 93.07 119.27 102.29 118.77 C 107.35 118.50 113.08 117.62 115.00 116.83 C 117.50 115.80 119.25 115.66 121.11 116.34 C 122.54 116.86 124.85 117.00 126.23 116.66 C 133.29 114.88 144.79 103.59 154.71 88.67 C 158.84 82.48 159.50 81.91 161.88 82.50 C 165.43 83.40 165.51 83.57 163.63 86.44 C 160.71 90.89 159.00 100.00 159.00 111.03 C 159.00 121.65 159.00 121.65 143.30 122.83 C 134.66 123.47 127.15 124.45 126.60 125.00 C 125.69 125.91 127.31 139.64 128.45 140.78 C 128.66 140.99 135.61 140.31 143.88 139.27 C 156.60 137.67 159.01 137.59 159.47 138.77 C 159.76 139.54 160.00 145.29 160.00 151.56 C 160.00 162.58 159.92 162.98 157.75 163.43 C 156.51 163.69 148.57 165.30 140.11 167.00 C 121.13 170.82 107.05 175.24 102.98 178.67 C 100.32 180.91 99.94 181.82 100.20 185.38 C 100.50 189.50 100.50 189.50 106.00 189.30 C 110.89 189.12 153.59 181.84 158.38 180.36 C 160.19 179.80 160.24 180.48 159.63 197.95 C 158.95 217.60 159.22 219.08 164.34 223.86 C 166.87 226.23 166.87 226.23 172.02 221.88 C 174.86 219.49 177.59 216.77 178.09 215.83 C 179.18 213.79 179.20 200.21 178.12 190.50 C 177.66 186.35 177.74 182.19 178.33 180.29 C 179.22 177.39 179.86 176.97 184.91 175.97 C 197.41 173.50 213.89 169.02 219.27 166.64 C 224.36 164.39 225.00 163.78 225.00 161.19 C 225.00 159.58 224.02 157.02 222.82 155.49 C 220.63 152.72 220.63 152.72 210.07 153.35 C 200.99 153.90 186.99 156.27 179.25 158.57 C 177.00 159.23 177.00 159.21 177.00 147.12 C 177.00 135.00 177.00 135.00 179.88 135.00 C 187.94 135.00 193.00 131.97 193.00 127.14 C 193.00 124.65 192.24 124.02 185.75 121.14 C 173.98 115.92 174.58 116.90 173.99 101.71 C 173.72 94.44 173.52 88.39 173.57 88.26 C 173.61 88.13 184.64 95.21 198.08 103.99 C 211.51 112.78 223.38 119.97 224.45 119.98 C 227.69 120.01 232.00 115.08 232.00 111.34 C 232.00 108.38 231.24 107.52 224.25 102.61 C 219.99 99.61 206.30 90.76 193.83 82.94 C 171.59 68.99 171.18 68.66 172.14 66.12 C 173.76 61.88 183.64 47.57 195.19 32.76 C 206.54 18.20 207.30 16.42 204.47 10.95 C 203.14 8.38 202.40 8.00 198.65 8.00 C 195.60 8.00 193.05 8.84 189.92 10.87 C 185.56 13.71 185.25 13.76 166.50 14.38 C 146.51 15.04 134.65 16.65 128.62 19.51 C 125.01 21.22 125.00 21.25 125.00 27.65 C 125.00 32.41 125.38 34.21 126.49 34.64 C 127.31 34.95 132.69 34.26 138.44 33.10 C 149.90 30.80 174.00 30.08 174.00 32.04 C 174.00 35.55 159.08 57.00 156.64 57.00 C 155.89 57.00 149.52 53.38 142.48 48.95 C 130.68 41.53 129.34 40.93 125.10 41.20 C 120.50 41.50 120.50 41.50 120.19 46.34 C 119.90 50.86 120.14 51.42 123.69 54.59 C 125.79 56.46 131.89 61.00 137.25 64.68 C 142.61 68.35 147.00 71.65 147.00 71.99 C 147.00 73.31 139.69 84.67 132.36 94.72 C 124.72 105.21 124.72 105.21 120.61 104.51 C 118.35 104.12 113.57 103.46 109.99 103.04 C 101.22 102.02 95.56 99.01 93.01 94.03 C 91.21 90.49 91.00 88.15 91.00 71.51 C 91.00 57.82 90.63 52.05 89.59 49.57 C 88.82 47.72 88.57 45.83 89.02 45.36 C 89.48 44.88 89.41 42.25 88.87 39.50 C 88.20 36.08 88.25 31.54 89.03 25.12 C 90.12 16.21 90.07 15.59 88.09 12.91 C 86.94 11.35 86.00 9.61 86.00 9.04 C 86.00 7.24 78.45 7.84 76.69 9.79 C 73.34 13.49 71.97 18.57 72.94 23.69 C 74.32 31.05 75.96 67.12 76.94 112.00 C 77.86 153.87 77.40 166.13 73.50 204.09 C 71.61 222.52 71.54 221.30 74.59 224.92 C 77.69 228.61 81.51 228.96 85.39 225.91 Z  M 53.65 149.90 C 56.12 148.20 59.02 145.38 60.07 143.65 C 62.45 139.75 62.63 131.33 60.47 124.41 C 59.20 120.33 59.05 115.79 59.60 97.48 C 59.97 85.37 59.93 68.81 59.53 60.68 C 58.79 45.90 58.79 45.90 54.24 46.20 C 50.61 46.44 49.28 47.07 47.60 49.32 C 45.66 51.93 45.48 53.64 45.19 72.38 C 45.03 83.51 45.28 94.84 45.75 97.56 C 46.36 101.03 46.24 103.43 45.34 105.63 C 43.95 109.06 42.00 130.04 42.00 141.55 C 42.00 148.64 42.07 148.85 45.25 150.88 C 47.04 152.03 48.64 152.97 48.82 152.98 C 49.00 152.99 51.17 151.61 53.65 149.90 Z "/>
</g>
</svg>