<?xml version="1.0" encoding="UTF-8" standalone="no"?>
<!DOCTYPE svg PUBLIC "-//W3C//DTD SVG 1.1//EN" "http://www.w3.org/Graphics/SVG/1.1/DTD/svg11.dtd" >
<svg xmlns="http://www.w3.org/2000/svg" xmlns:xlink="http://www.w3.org/1999/xlink" version="1.1" viewBox="0 0 275 298">
 <g >
 <path fill="currentColor"
d=" M 65.49 280.00 C 67.19 278.96 69.57 276.33 70.79 274.16 C 74.41 267.72 73.36 263.00 68.30 263.00 C 66.00 263.00 66.00 263.00 66.00 239.39 C 66.00 215.78 66.00 215.78 62.93 210.02 C 61.24 206.84 58.63 202.78 57.12 200.98 C 54.63 197.99 54.06 197.77 50.58 198.42 C 45.43 199.39 42.00 202.97 42.00 207.38 C 42.00 209.29 42.64 211.50 43.42 212.28 C 44.34 213.20 45.59 219.83 46.95 231.10 C 49.77 254.38 52.90 277.95 53.56 280.87 C 54.05 283.04 54.45 283.18 58.25 282.58 C 60.54 282.21 63.80 281.05 65.49 280.00 Z  M 248.42 247.51 C 254.03 241.91 253.99 239.12 248.17 225.60 C 242.35 212.09 237.01 202.22 234.10 199.59 C 232.53 198.17 231.08 197.86 227.94 198.28 C 225.68 198.58 223.67 198.99 223.47 199.19 C 222.88 199.78 227.84 221.81 230.63 231.00 C 236.58 250.56 241.14 254.80 248.42 247.51 Z  M 121.03 194.16 C 133.14 190.49 147.99 184.85 168.06 176.29 C 181.40 170.61 184.00 169.16 184.00 167.40 C 184.00 165.24 182.03 163.05 178.41 161.18 C 174.53 159.18 130.52 171.54 113.47 179.42 C 101.95 184.74 100.00 186.41 100.00 190.99 C 100.00 197.68 100.62 198.32 106.43 197.64 C 109.25 197.31 115.82 195.74 121.03 194.16 Z  M 91.05 144.25 C 94.15 134.73 94.45 132.87 93.72 128.00 C 93.26 124.97 93.02 113.95 93.19 103.50 C 93.50 84.50 93.50 84.50 101.78 72.15 C 114.47 53.25 118.38 44.44 116.03 40.06 C 115.31 38.71 113.93 38.00 112.05 38.00 C 109.61 38.00 107.81 39.64 100.25 48.75 C 81.18 71.74 59.36 100.26 38.15 129.90 C 30.94 139.98 30.00 141.80 30.00 145.65 C 30.00 150.00 30.00 150.00 34.73 150.00 C 37.93 150.00 41.13 149.13 44.59 147.32 C 49.12 144.95 50.03 143.90 52.48 138.28 C 54.01 134.78 56.96 129.27 59.05 126.05 C 63.60 119.01 75.52 106.59 76.91 107.45 C 77.96 108.09 77.92 108.80 75.40 133.19 C 73.78 148.88 73.78 148.88 75.96 151.94 C 77.86 154.61 78.73 155.00 82.85 155.00 C 87.56 155.00 87.56 155.00 91.05 144.25 Z  M 156.73 147.38 C 187.09 137.19 206.25 127.82 207.58 122.54 C 207.89 121.29 208.00 118.75 207.82 116.89 C 207.53 113.86 207.15 113.47 204.16 113.18 C 200.26 112.81 189.97 115.76 178.13 120.64 C 173.52 122.54 169.65 123.96 169.53 123.80 C 169.27 123.47 167.19 79.62 167.41 79.31 C 167.48 79.21 172.71 78.66 179.02 78.10 C 198.90 76.34 205.89 72.87 204.67 65.38 C 204.34 63.34 203.66 61.26 203.15 60.75 C 202.58 60.18 195.76 60.27 185.60 60.96 C 176.45 61.59 168.50 61.81 167.93 61.45 C 166.26 60.43 168.80 40.23 172.18 27.62 C 174.29 19.73 174.29 19.73 181.69 20.29 C 189.09 20.85 189.09 20.85 192.05 16.78 C 195.28 12.32 196.05 5.82 193.74 2.65 C 192.56 1.04 190.59 1.33 164.05 7.02 C 131.49 14.01 110.38 19.30 104.25 22.01 C 100.17 23.81 100.00 24.07 100.00 28.32 C 100.00 30.76 100.56 33.19 101.25 33.71 C 102.08 34.34 109.94 33.23 124.50 30.40 C 136.60 28.05 147.85 25.88 149.50 25.57 C 152.50 25.00 152.50 25.00 152.50 67.75 C 152.50 98.26 152.88 113.17 153.84 119.82 C 154.58 124.95 154.96 129.38 154.67 129.66 C 154.39 129.94 151.36 130.43 147.95 130.74 C 141.74 131.30 141.74 131.30 142.27 102.90 C 142.57 86.96 143.35 71.68 144.04 68.07 C 145.28 61.64 145.28 61.64 141.65 58.32 C 138.72 55.64 137.21 55.00 133.76 55.02 C 126.06 55.04 126.53 52.55 126.22 94.77 C 125.93 132.61 125.93 132.61 119.38 133.73 C 115.53 134.39 111.19 135.93 108.85 137.48 C 105.29 139.83 104.92 140.48 105.19 143.71 C 105.47 146.91 105.94 147.47 109.50 148.71 C 114.39 150.43 128.80 152.77 135.24 152.90 C 138.55 152.97 145.06 151.29 156.73 147.38 Z  M 31.69 118.75 C 34.98 116.51 49.04 96.00 68.35 65.28 C 83.73 40.79 93.00 23.39 93.00 18.99 C 93.00 18.45 90.73 18.00 87.95 18.00 C 81.43 18.00 81.59 17.82 62.53 46.48 C 43.70 74.79 36.76 86.33 28.45 103.17 C 22.27 115.71 21.20 118.87 22.67 120.33 C 24.04 121.71 28.49 120.92 31.69 118.75 Z "/>
</g>
</svg>