<?xml version="1.0" encoding="UTF-8" standalone="no"?>
<!DOCTYPE svg PUBLIC "-//W3C//DTD SVG 1.1//EN" "http://www.w3.org/Graphics/SVG/1.1/DTD/svg11.dtd" >
<svg xmlns="http://www.w3.org/2000/svg" xmlns:xlink="http://www.w3.org/1999/xlink" version="1.1" viewBox="0 0 275 257">
 <g >
 <path fill="currentColor"
d=" M 96.50 229.14 C 102.67 226.20 110.77 218.77 115.64 211.58 C 126.44 195.67 137.48 161.68 143.00 127.36 C 143.74 122.72 144.87 119.44 146.23 117.99 C 150.70 113.18 159.98 110.72 178.31 109.47 C 188.12 108.80 188.12 108.80 187.81 113.61 C 187.50 118.42 187.50 118.42 176.00 120.72 C 156.87 124.55 147.00 128.39 147.00 132.02 C 147.00 132.54 148.27 134.39 149.82 136.12 C 152.64 139.28 152.64 139.28 164.07 137.70 C 170.36 136.83 178.38 135.81 181.90 135.44 C 188.30 134.77 188.30 134.77 187.60 138.13 C 187.22 139.99 186.27 145.72 185.49 150.89 C 184.70 156.05 183.81 160.52 183.51 160.82 C 183.21 161.12 176.11 160.89 167.73 160.31 C 156.73 159.55 152.12 159.56 151.13 160.35 C 150.09 161.18 149.91 163.05 150.37 167.97 C 151.98 184.83 157.70 211.84 160.48 215.64 C 161.61 217.18 162.25 217.26 165.61 216.23 C 168.86 215.23 170.48 215.36 176.20 217.06 C 182.94 219.07 182.94 219.07 195.60 216.46 C 202.56 215.03 212.02 212.62 216.63 211.12 C 225.00 208.40 225.00 208.40 225.00 211.70 C 225.00 215.53 226.16 215.81 230.67 213.06 C 236.57 209.47 241.61 197.71 244.69 180.39 C 246.22 171.83 246.20 170.69 244.51 161.72 C 243.53 156.46 242.44 151.72 242.11 151.19 C 241.73 150.59 235.23 151.27 225.00 152.98 C 196.28 157.78 198.78 157.75 199.50 153.32 C 201.39 141.64 203.38 132.99 205.10 128.98 C 207.03 124.50 207.12 124.44 217.21 121.03 C 231.07 116.34 243.08 110.18 244.95 106.81 C 246.32 104.34 246.26 103.81 244.22 100.18 C 242.73 97.53 242.00 94.54 242.00 91.11 C 242.00 87.00 241.67 86.00 240.33 86.00 C 235.82 86.00 233.47 79.60 236.51 75.58 C 237.81 73.87 237.75 73.52 235.98 72.27 C 234.88 71.51 233.27 69.49 232.39 67.79 C 230.80 64.71 230.80 64.71 220.15 65.37 C 214.29 65.73 208.61 66.14 207.51 66.27 C 205.76 66.47 205.44 65.69 204.80 59.50 C 204.40 55.65 203.48 49.58 202.75 46.00 C 201.42 39.50 201.42 39.50 197.27 39.20 C 193.83 38.94 192.85 39.29 191.59 41.23 C 189.72 44.08 188.05 55.02 188.02 64.58 C 188.00 71.65 188.00 71.65 180.14 72.86 C 168.89 74.58 149.12 76.19 147.97 75.48 C 147.43 75.15 147.00 69.78 147.00 63.42 C 147.00 51.95 147.00 51.95 149.75 50.90 C 151.26 50.33 166.34 45.53 183.25 40.23 C 214.00 30.60 214.00 30.60 214.00 26.30 C 214.00 23.94 213.61 22.00 213.14 22.00 C 208.58 22.00 128.98 38.75 112.83 43.11 C 105.56 45.07 105.00 45.41 105.00 47.86 C 105.01 49.31 106.07 51.83 107.37 53.45 C 109.73 56.40 109.73 56.40 116.23 55.20 C 128.49 52.94 127.62 52.15 128.42 66.25 C 130.01 94.61 129.95 97.12 127.01 121.00 C 124.70 139.76 123.32 147.22 120.13 158.00 C 111.10 188.61 101.64 209.01 92.09 218.50 C 88.53 222.03 88.06 223.05 88.03 227.25 C 87.99 232.91 88.40 233.00 96.50 229.14 Z  M 46.61 219.80 C 53.71 213.10 60.20 203.25 65.52 191.16 C 70.06 180.84 77.64 158.13 78.64 151.82 C 79.17 148.53 79.00 148.00 77.38 148.02 C 76.11 148.03 74.68 149.72 73.00 153.20 C 66.27 167.11 50.93 191.08 40.42 204.10 C 34.01 212.04 34.00 212.06 34.00 218.53 C 34.00 225.00 34.00 225.00 37.56 225.00 C 40.48 225.00 42.11 224.06 46.61 219.80 Z  M 52.68 127.61 C 65.66 125.66 72.35 121.95 70.69 117.64 C 70.14 116.21 67.82 116.00 52.28 116.00 C 36.32 116.01 34.17 116.21 31.25 117.99 C 27.48 120.29 27.15 122.65 30.07 126.37 C 31.88 128.66 32.88 129.00 37.82 128.99 C 40.95 128.99 47.63 128.37 52.68 127.61 Z  M 81.80 70.89 C 82.44 65.42 75.39 60.00 59.39 53.63 C 50.65 50.16 50.05 50.06 44.64 51.14 C 39.30 52.22 39.00 52.44 39.00 55.25 C 39.00 58.95 42.59 65.50 45.76 67.58 C 51.66 71.44 64.75 73.98 77.00 73.63 C 81.07 73.51 81.53 73.25 81.80 70.89 Z  M 195.50 15.14 C 200.50 13.50 200.50 13.50 200.80 8.37 C 201.10 3.25 201.10 3.25 185.80 2.63 C 137.29 0.69 130.44 0.67 127.65 2.49 C 125.45 3.94 125.00 4.97 125.00 8.62 C 125.00 12.11 125.36 13.01 126.75 13.05 C 127.71 13.08 138.85 14.17 151.50 15.48 C 176.22 18.04 186.92 17.96 195.50 15.14 Z  M 176.05 200.84 C 174.29 197.94 172.85 191.22 171.65 180.25 C 171.40 177.91 171.34 176.00 171.52 176.00 C 171.69 176.00 184.98 173.06 201.04 169.46 C 217.10 165.86 230.44 163.10 230.67 163.34 C 231.13 163.79 229.31 183.78 228.41 188.19 C 226.60 197.09 207.31 204.00 184.26 204.00 C 178.27 204.00 177.88 203.85 176.05 200.84 Z  M 205.81 109.47 C 204.24 106.04 205.28 105.35 213.25 104.53 C 219.38 103.90 220.00 104.01 219.96 105.67 C 219.94 106.85 218.24 108.31 215.21 109.77 C 209.19 112.67 207.23 112.60 205.81 109.47 Z  M 145.00 95.95 C 145.00 92.74 149.22 89.33 154.63 88.17 C 157.36 87.59 165.99 86.79 173.80 86.41 C 188.00 85.70 188.00 85.70 188.00 90.16 C 188.00 94.62 188.00 94.62 172.25 96.31 C 163.59 97.25 153.91 98.01 150.75 98.01 C 145.63 98.00 145.00 97.78 145.00 95.95 Z  M 203.42 89.00 C 203.74 87.35 204.26 84.65 204.58 83.00 C 205.16 80.00 205.16 80.00 212.58 80.00 C 220.57 80.00 220.97 80.33 219.02 85.43 C 217.65 89.06 212.35 91.99 207.17 92.00 C 202.90 92.00 202.85 91.96 203.42 89.00 Z "/>
</g>
</svg>