<?xml version="1.0" encoding="UTF-8" standalone="no"?>
<!DOCTYPE svg PUBLIC "-//W3C//DTD SVG 1.1//EN" "http://www.w3.org/Graphics/SVG/1.1/DTD/svg11.dtd" >
<svg xmlns="http://www.w3.org/2000/svg" xmlns:xlink="http://www.w3.org/1999/xlink" version="1.1" viewBox="0 0 275 256">
 <g >
 <path fill="currentColor"
d=" M 102.82 228.48 C 105.26 227.99 105.98 227.40 105.55 226.27 C 105.23 225.43 104.67 212.93 104.32 198.51 C 103.69 172.28 103.69 172.28 112.59 166.41 C 127.85 156.37 131.83 151.58 127.07 149.04 C 124.03 147.41 116.50 147.82 111.01 149.90 C 106.00 151.81 106.00 151.81 106.03 141.65 C 106.05 131.50 106.05 131.50 116.03 126.82 C 126.65 121.83 127.56 120.67 124.37 116.12 C 123.48 114.84 121.35 113.21 119.64 112.49 C 116.83 111.31 116.13 111.42 112.20 113.73 C 109.47 115.33 107.52 115.92 106.92 115.32 C 105.59 113.99 103.26 102.05 102.45 92.45 C 101.78 84.41 101.78 84.41 108.99 81.50 C 120.12 77.02 126.73 72.52 127.53 68.87 C 128.47 64.58 126.95 63.54 119.72 63.52 C 114.45 63.50 112.15 64.14 104.65 67.73 C 95.79 71.97 95.79 71.97 96.37 67.73 C 96.69 65.41 97.25 57.09 97.62 49.25 C 98.28 35.00 98.28 35.00 93.67 35.00 C 87.84 35.00 87.49 35.65 86.13 49.00 C 84.40 66.01 81.19 73.93 74.08 78.73 C 72.22 79.98 69.41 81.00 67.83 81.00 C 65.01 81.00 64.98 80.94 66.37 78.25 C 67.58 75.89 67.59 73.79 66.44 63.50 C 65.69 56.90 65.07 49.21 65.04 46.40 C 64.99 40.57 63.24 41.73 84.00 33.85 C 93.08 30.39 122.96 22.00 126.16 22.00 C 126.95 22.00 127.16 27.45 126.89 40.73 C 126.50 59.46 126.50 59.46 130.50 60.13 C 132.70 60.51 134.84 60.49 135.26 60.10 C 135.68 59.70 137.15 54.46 138.53 48.44 C 141.13 37.14 142.84 16.49 141.59 11.51 C 140.90 8.73 140.90 8.73 133.35 9.42 C 123.14 10.34 101.16 15.98 81.74 22.65 C 72.94 25.67 65.40 27.78 64.97 27.32 C 64.01 26.31 61.00 8.87 61.00 4.32 C 61.00 1.63 60.61 1.00 58.93 1.00 C 55.77 1.00 53.18 2.76 51.47 6.06 C 49.77 9.35 49.85 16.90 51.94 49.00 C 53.16 67.76 54.49 76.48 56.62 79.79 C 58.01 81.94 57.85 82.40 54.05 87.17 C 51.82 89.97 50.00 93.33 50.00 94.63 C 50.00 96.92 50.26 97.00 57.76 97.00 C 64.14 97.00 66.36 96.55 70.28 94.47 C 74.01 92.48 75.15 92.23 75.56 93.30 C 76.41 95.51 73.21 109.16 68.94 121.54 C 65.14 132.57 65.04 133.18 66.55 136.09 C 68.12 139.13 68.12 139.13 78.81 138.41 C 84.69 138.02 90.17 137.65 91.00 137.60 C 92.22 137.52 92.55 139.38 92.78 147.74 C 93.07 157.99 93.07 157.99 89.78 160.01 C 87.98 161.12 83.58 162.95 80.00 164.07 C 74.27 165.87 46.98 171.62 35.25 173.50 C 31.13 174.15 31.00 174.29 31.00 177.90 C 31.00 184.60 32.39 185.41 42.68 184.68 C 54.17 183.87 70.05 180.80 81.71 177.14 C 90.87 174.27 90.87 174.27 92.09 177.21 C 93.29 180.11 92.94 199.61 91.34 218.51 C 90.79 224.99 90.92 226.00 92.32 226.00 C 93.20 226.00 94.42 226.92 95.03 228.05 C 95.69 229.28 96.79 229.91 97.81 229.62 C 98.74 229.36 100.99 228.85 102.82 228.48 Z  M 155.67 220.75 C 160.76 215.37 174.36 197.54 183.88 183.77 C 189.22 176.05 189.22 176.05 194.86 180.15 C 215.04 194.81 239.06 209.27 240.64 207.70 C 241.38 206.95 242.95 199.97 242.98 197.26 C 243.00 195.44 238.75 192.19 220.50 180.00 C 208.12 171.74 198.00 164.68 198.00 164.32 C 198.00 163.20 206.87 149.18 217.72 133.15 C 224.51 123.12 228.01 117.05 227.81 115.65 C 227.63 114.38 226.02 112.71 223.89 111.57 C 220.28 109.64 220.28 109.64 217.51 111.82 C 214.85 113.90 211.43 114.83 212.20 113.25 C 215.66 106.10 218.15 100.03 220.31 93.50 C 222.94 85.55 230.00 60.34 230.00 58.91 C 230.00 58.50 227.03 57.84 223.40 57.45 C 215.41 56.60 212.42 57.40 197.55 64.41 C 186.50 69.63 186.50 69.63 186.85 53.31 C 187.21 37.00 187.21 37.00 182.72 37.00 C 178.24 37.00 178.24 37.00 176.48 46.73 C 172.55 68.56 167.03 83.55 162.58 84.48 C 161.44 84.72 156.90 85.62 152.50 86.48 C 142.33 88.45 132.50 91.69 130.94 93.57 C 129.99 94.72 130.00 97.90 130.98 108.27 C 131.67 115.55 132.46 137.52 132.73 157.09 C 133.15 186.73 132.95 194.90 131.55 205.93 C 129.94 218.52 129.95 219.24 131.62 220.46 C 134.55 222.61 139.99 225.35 140.43 224.90 C 141.32 224.01 144.05 205.88 145.16 193.50 C 145.96 184.57 146.02 178.40 145.35 173.81 C 144.70 169.40 144.71 164.83 145.37 160.40 C 146.31 154.16 145.10 124.42 143.32 109.75 C 142.74 105.00 142.74 105.00 153.12 100.11 C 158.83 97.43 165.01 94.95 166.85 94.62 C 170.20 94.01 170.20 94.01 169.64 98.25 C 169.33 100.59 168.65 106.21 168.13 110.75 C 165.91 130.37 161.48 139.72 153.38 141.87 C 149.92 142.79 149.11 145.99 151.45 149.56 C 152.67 151.43 153.91 152.00 156.77 151.98 C 158.82 151.98 161.14 151.56 161.93 151.07 C 162.97 150.41 165.72 152.17 172.18 157.65 C 177.03 161.77 181.00 165.71 181.00 166.42 C 181.00 168.52 171.23 183.42 158.22 201.17 C 147.31 216.05 146.00 218.27 146.00 221.92 C 146.00 225.54 146.27 226.00 148.35 226.00 C 149.90 226.00 152.42 224.19 155.67 220.75 Z  M 80.07 125.25 C 80.21 121.79 88.52 94.84 89.50 94.67 C 90.77 94.45 92.97 119.91 91.87 122.13 C 91.05 123.78 84.19 127.00 81.48 127.00 C 80.67 127.00 80.03 126.21 80.07 125.25 Z  M 182.86 149.55 C 178.34 146.48 176.26 142.00 179.35 142.00 C 180.10 142.00 185.78 139.51 191.98 136.46 C 198.19 133.42 203.46 131.13 203.70 131.37 C 204.29 131.95 201.45 137.43 197.82 142.74 C 195.35 146.35 188.75 152.00 187.00 152.00 C 186.71 152.00 184.84 150.90 182.86 149.55 Z  M 180.20 112.25 C 181.18 103.04 182.66 93.69 183.49 91.49 C 185.72 85.52 190.15 80.73 196.68 77.26 C 202.19 74.32 211.61 71.27 212.48 72.15 C 212.70 72.37 210.92 80.37 208.52 89.92 C 203.96 108.07 203.89 110.02 207.71 114.23 C 209.14 115.81 209.11 116.01 207.39 116.61 C 203.72 117.87 186.45 125.24 182.79 127.11 C 180.75 128.15 178.93 129.00 178.75 129.00 C 178.56 129.00 179.22 121.46 180.20 112.25 Z "/>
</g>
</svg>