<?xml version="1.0" encoding="UTF-8" standalone="no"?>
<!DOCTYPE svg PUBLIC "-//W3C//DTD SVG 1.1//EN" "http://www.w3.org/Graphics/SVG/1.1/DTD/svg11.dtd" >
<svg xmlns="http://www.w3.org/2000/svg" xmlns:xlink="http://www.w3.org/1999/xlink" version="1.1" viewBox="0 0 275 305">
 <g >
 <path fill="currentColor"
d=" M 63.50 248.13 C 70.55 243.79 79.21 240.00 82.03 240.00 C 82.57 240.00 83.00 242.04 83.00 244.53 C 83.00 247.02 83.66 250.65 84.47 252.59 C 85.83 255.85 86.24 256.10 89.69 255.81 C 96.08 255.28 98.95 248.88 100.89 230.85 C 101.46 225.58 101.34 223.22 100.50 222.50 C 99.85 221.95 98.33 214.57 97.12 206.11 C 92.24 172.02 87.92 152.62 84.79 150.64 C 82.57 149.24 73.75 151.05 66.37 154.43 C 59.95 157.37 59.59 157.03 59.55 148.00 C 59.53 143.46 60.65 139.83 65.98 127.15 C 72.43 111.80 72.43 111.80 83.47 106.30 C 96.08 100.01 100.00 96.84 100.00 92.94 C 100.00 87.64 98.53 87.42 79.68 89.91 C 43.24 94.73 16.56 99.93 7.25 104.02 C 3.14 105.83 3.00 106.04 3.00 110.48 C 3.00 113.66 3.47 115.24 4.52 115.65 C 6.31 116.33 23.50 113.82 40.39 110.40 C 46.93 109.08 52.89 108.00 53.64 108.00 C 54.59 108.00 55.00 109.37 55.00 112.49 C 55.00 116.27 53.03 120.81 42.55 141.24 C 20.24 184.71 2.95 223.19 1.42 232.79 C 0.73 237.12 0.69 237.09 7.62 238.48 C 10.63 239.08 10.78 238.94 11.85 234.66 C 13.80 226.93 19.61 214.32 26.57 202.72 C 33.70 190.86 43.79 176.00 44.72 176.00 C 45.03 176.00 45.06 192.48 44.79 212.62 C 44.30 249.25 44.30 249.25 47.90 252.56 C 51.17 255.58 51.68 255.75 53.50 254.46 C 54.60 253.68 59.10 250.83 63.50 248.13 Z  M 187.61 118.48 C 208.61 111.86 223.17 108.00 227.11 108.00 C 230.00 108.00 230.00 108.00 230.00 100.97 C 230.00 95.46 229.66 93.81 228.41 93.33 C 224.06 91.66 199.22 98.36 181.39 106.00 C 174.99 108.75 169.52 111.00 169.25 111.00 C 168.11 111.00 170.25 100.43 172.13 96.74 C 176.74 87.71 188.77 79.15 206.96 71.96 C 222.63 65.76 221.89 65.52 224.75 77.75 C 227.15 88.00 227.15 88.00 230.54 88.00 C 232.93 88.00 235.01 87.06 237.57 84.81 C 241.20 81.61 241.20 81.61 240.54 74.56 C 239.61 64.70 239.62 63.66 240.97 34.24 C 242.57 -0.62 243.66 1.47 223.93 1.58 C 209.50 1.66 209.50 1.66 196.00 6.26 C 188.57 8.79 177.32 13.08 171.00 15.78 C 159.50 20.70 159.50 20.70 158.21 17.63 C 156.53 13.65 155.43 13.03 150.00 13.03 C 142.38 13.03 142.37 13.07 145.34 27.65 C 149.82 49.64 152.79 69.94 154.95 93.25 C 156.26 107.33 158.74 112.00 164.93 112.00 C 166.74 112.00 167.00 112.62 167.00 116.80 C 167.00 120.80 168.22 124.00 169.74 124.00 C 169.93 124.00 177.97 121.52 187.61 118.48 Z  M 66.00 222.08 C 66.00 215.00 66.00 215.00 62.50 215.00 C 59.00 215.00 59.00 215.00 59.00 198.40 C 59.00 179.58 59.57 177.42 66.16 171.48 C 70.18 167.84 74.63 165.30 75.48 166.14 C 75.90 166.56 80.87 204.65 82.40 219.18 C 83.00 224.86 83.00 224.86 77.75 226.34 C 65.36 229.83 66.00 230.07 66.00 222.08 Z  M 166.26 57.77 C 165.26 46.30 165.32 45.30 167.21 41.60 C 169.92 36.28 178.37 27.43 184.50 23.49 C 193.79 17.51 210.10 13.00 222.44 13.00 C 227.00 13.00 227.00 13.00 227.00 27.16 C 227.00 40.50 226.85 41.58 224.48 45.63 C 219.36 54.36 204.72 61.60 179.33 67.96 C 166.52 71.16 167.50 71.93 166.26 57.77 Z "/>
</g>
</svg>