<?xml version="1.0" encoding="UTF-8" standalone="no"?>
<!DOCTYPE svg PUBLIC "-//W3C//DTD SVG 1.1//EN" "http://www.w3.org/Graphics/SVG/1.1/DTD/svg11.dtd" >
<svg xmlns="http://www.w3.org/2000/svg" xmlns:xlink="http://www.w3.org/1999/xlink" version="1.1" viewBox="0 0 275 292">
 <g >
 <path fill="currentColor"
d=" M 203.23 213.75 C 205.27 209.83 207.05 202.80 210.43 185.30 C 215.47 159.21 223.91 93.28 222.50 91.00 C 220.85 88.33 211.94 90.12 192.74 96.99 C 159.99 108.71 139.38 117.86 124.96 127.09 C 114.78 133.61 113.26 135.42 112.84 141.50 C 112.50 146.50 112.50 146.50 116.50 146.79 C 119.99 147.05 125.55 144.54 160.19 127.04 C 182.03 116.02 200.81 107.00 201.94 107.00 C 203.43 107.00 204.00 107.65 204.00 109.33 C 204.00 113.87 192.51 201.81 190.36 213.75 C 189.78 217.00 189.78 217.00 195.66 217.00 C 201.29 217.00 201.62 216.86 203.23 213.75 Z "/>
</g>
</svg>