<?xml version="1.0" encoding="UTF-8" standalone="no"?>
<!DOCTYPE svg PUBLIC "-//W3C//DTD SVG 1.1//EN" "http://www.w3.org/Graphics/SVG/1.1/DTD/svg11.dtd" >
<svg xmlns="http://www.w3.org/2000/svg" xmlns:xlink="http://www.w3.org/1999/xlink" version="1.1" viewBox="0 0 309 299">
 <g >
 <path fill="currentColor"
d=" M 148.60 246.17 C 153.39 242.69 161.27 234.54 164.65 229.57 C 167.63 225.18 173.67 212.54 174.47 209.00 C 174.94 206.96 174.43 206.11 171.71 204.36 C 168.37 202.22 168.37 202.22 163.24 210.36 C 155.86 222.06 145.83 234.33 140.08 238.72 C 137.35 240.80 135.09 243.07 135.06 243.76 C 134.99 245.24 140.76 248.99 143.10 249.00 C 143.98 249.00 146.45 247.73 148.60 246.17 Z  M 205.73 246.25 C 207.02 241.62 206.41 217.99 204.81 210.69 C 203.43 204.39 203.46 203.16 205.27 194.09 C 207.22 184.29 207.22 184.29 212.33 183.11 C 222.45 180.78 229.51 174.77 230.69 167.51 C 231.02 165.50 231.84 164.00 232.62 164.00 C 233.37 164.00 236.91 166.00 240.49 168.45 C 248.25 173.77 253.66 175.19 255.66 172.45 C 256.40 171.44 257.00 170.13 257.00 169.53 C 257.00 168.94 253.84 164.64 249.99 159.98 C 239.50 147.33 232.11 136.71 228.03 128.43 C 225.12 122.54 223.41 120.38 219.70 117.93 C 213.97 114.13 206.73 106.20 202.90 99.52 C 198.35 91.59 198.50 91.40 209.75 90.66 C 215.11 90.30 223.13 90.01 227.56 90.01 C 237.86 90.00 239.23 89.09 238.81 82.52 C 238.54 78.15 238.13 77.38 235.19 75.68 C 231.93 73.77 231.65 73.77 211.30 75.83 C 193.60 77.61 190.26 77.72 187.48 76.56 C 185.70 75.81 183.98 74.77 183.65 74.24 C 183.32 73.71 183.83 70.90 184.77 68.00 C 186.50 62.72 186.50 62.72 200.00 60.01 C 207.43 58.52 216.09 56.55 219.25 55.62 C 224.32 54.14 225.00 53.64 225.00 51.38 C 225.00 47.81 220.02 41.05 217.38 41.02 C 213.67 40.98 197.97 43.99 194.67 45.37 C 190.52 47.10 186.83 45.68 187.48 42.60 C 188.15 39.46 190.83 14.88 190.82 12.00 C 190.81 10.62 190.14 7.59 189.32 5.25 C 187.85 1.05 187.77 1.00 183.07 1.00 C 178.31 1.00 178.31 1.00 177.16 9.11 C 176.53 13.58 175.53 23.59 174.93 31.36 C 174.11 41.88 173.39 46.13 172.09 47.96 C 167.69 54.17 153.64 57.62 128.00 58.79 C 112.50 59.50 112.50 59.50 112.20 64.19 C 111.90 68.88 111.90 68.88 119.11 71.03 C 127.04 73.40 130.83 73.32 154.84 70.37 C 161.63 69.53 167.41 69.08 167.69 69.36 C 168.48 70.14 163.97 90.22 162.47 92.60 C 161.74 93.76 159.52 95.47 157.54 96.42 C 152.66 98.73 138.01 100.21 134.21 98.77 C 131.86 97.88 130.59 98.04 127.41 99.59 C 123.97 101.27 123.50 101.92 123.50 105.00 C 123.50 108.14 123.97 108.74 128.00 110.83 C 132.22 113.01 133.23 113.12 144.25 112.52 C 154.72 111.95 156.00 112.06 156.00 113.52 C 156.00 116.03 147.77 136.52 142.73 146.54 C 140.25 151.47 136.13 158.33 133.58 161.79 C 128.98 168.03 121.27 174.00 117.80 174.00 C 115.09 174.00 115.58 177.53 118.63 179.93 C 122.07 182.63 122.76 182.57 131.77 178.82 C 139.98 175.41 148.00 168.62 148.00 165.09 C 148.00 162.45 149.49 161.68 151.02 163.53 C 151.93 164.62 152.14 168.40 151.79 177.51 C 151.31 189.98 151.31 189.98 154.71 191.99 C 158.91 194.47 169.16 194.67 179.48 192.49 C 183.31 191.67 187.18 191.24 188.07 191.52 C 189.46 191.96 189.78 194.89 190.36 212.17 C 190.73 223.24 190.78 232.55 190.47 232.86 C 190.16 233.17 189.04 232.88 187.97 232.21 C 186.90 231.55 184.67 231.00 183.01 231.00 C 180.35 231.00 180.00 231.34 180.00 233.93 C 180.00 235.91 180.60 237.06 181.85 237.45 C 182.87 237.78 187.24 240.51 191.57 243.52 C 200.71 249.88 204.51 250.61 205.73 246.25 Z  M 245.85 229.90 C 248.51 228.98 249.00 228.30 249.00 225.58 C 249.00 220.31 242.21 215.74 226.55 210.48 C 220.54 208.47 218.55 208.17 216.90 209.05 C 215.31 209.91 214.97 210.76 215.46 212.71 C 216.92 218.51 224.02 224.22 235.00 228.42 C 242.73 231.37 241.94 231.26 245.85 229.90 Z  M 88.64 127.92 C 99.12 126.46 102.00 124.90 102.00 120.67 C 102.00 113.89 101.34 113.67 82.42 114.26 C 72.29 114.58 63.69 115.35 61.00 116.18 C 57.11 117.39 56.46 117.98 56.20 120.57 C 55.91 123.48 56.13 123.64 63.70 126.19 C 72.46 129.15 77.37 129.49 88.64 127.92 Z  M 166.21 168.38 C 166.50 158.50 166.50 158.50 186.00 157.84 C 213.92 156.89 215.05 156.42 211.07 147.43 C 209.01 142.78 209.01 142.78 188.66 143.51 C 177.47 143.91 167.31 143.92 166.10 143.53 C 164.42 143.00 163.96 142.18 164.19 140.16 C 164.50 137.50 164.50 137.50 180.00 137.00 C 194.43 136.53 195.89 136.31 201.21 133.69 C 208.05 130.34 209.95 130.91 212.43 137.12 C 214.53 142.37 217.51 160.22 216.66 162.45 C 215.22 166.20 187.49 175.41 171.06 177.59 C 165.92 178.27 165.92 178.27 166.21 168.38 Z  M 171.00 122.01 C 171.00 121.43 172.63 114.44 174.62 106.48 C 177.45 95.17 178.60 92.01 179.87 92.06 C 181.74 92.12 183.17 93.85 192.41 107.24 C 197.47 114.56 199.06 117.66 198.82 119.74 C 198.50 122.50 198.50 122.50 184.75 122.78 C 175.63 122.96 171.00 122.70 171.00 122.01 Z "/>
</g>
</svg>