<?xml version="1.0" encoding="UTF-8" standalone="no"?>
<!DOCTYPE svg PUBLIC "-//W3C//DTD SVG 1.1//EN" "http://www.w3.org/Graphics/SVG/1.1/DTD/svg11.dtd" >
<svg xmlns="http://www.w3.org/2000/svg" xmlns:xlink="http://www.w3.org/1999/xlink" version="1.1" viewBox="0 0 275 256">
 <g >
 <path fill="currentColor"
d=" M 187.57 252.40 C 190.02 250.97 191.99 249.07 191.98 248.15 C 191.97 247.24 191.30 239.30 190.51 230.50 C 189.71 221.70 189.05 211.90 189.03 208.73 C 189.00 202.96 189.00 202.96 195.25 198.91 C 198.69 196.69 209.04 191.06 218.25 186.41 C 232.54 179.18 235.00 177.61 235.00 175.66 C 235.00 174.41 234.38 172.53 233.62 171.50 C 232.27 169.66 232.07 169.66 224.37 171.72 C 218.18 173.38 202.55 179.31 190.25 184.67 C 189.30 185.08 189.00 182.85 189.00 175.25 C 189.00 165.29 189.00 165.29 200.75 161.53 C 211.10 158.21 229.36 150.98 230.66 149.67 C 230.92 149.41 230.62 147.29 229.99 144.96 C 228.85 140.72 228.85 140.72 219.17 141.29 C 213.85 141.60 205.03 143.01 199.57 144.42 C 194.11 145.82 189.61 146.87 189.57 146.74 C 189.53 146.61 188.99 145.58 188.37 144.45 C 187.51 142.91 187.54 140.67 188.48 135.45 C 190.15 126.19 190.56 125.39 195.37 122.11 C 203.04 116.88 215.64 113.07 235.11 110.10 C 246.76 108.33 247.32 108.32 249.04 110.04 C 252.23 113.23 252.86 121.78 253.45 169.50 C 253.76 195.35 254.29 219.24 254.62 222.60 C 255.22 228.70 255.22 228.70 248.86 229.90 C 240.28 231.53 232.87 233.93 230.75 235.78 C 228.74 237.53 228.37 242.99 230.25 243.03 C 230.94 243.04 238.93 244.14 248.00 245.48 C 266.97 248.26 266.90 248.28 271.24 240.29 C 273.73 235.72 273.87 234.88 273.02 229.42 C 270.70 214.54 269.75 196.80 269.47 163.00 C 269.11 119.12 267.16 102.16 261.87 96.87 C 260.08 95.08 259.03 94.94 251.69 95.52 C 238.76 96.53 219.73 99.75 204.37 103.53 C 196.59 105.44 189.96 107.00 189.62 107.00 C 189.28 107.00 189.00 103.49 189.00 99.20 C 189.00 91.40 189.00 91.40 194.02 89.59 C 196.78 88.60 200.53 86.77 202.37 85.53 C 204.20 84.28 210.64 81.62 216.69 79.60 C 230.02 75.16 241.54 69.77 245.25 66.24 C 247.31 64.28 248.00 62.67 248.00 59.81 C 248.00 56.00 248.00 56.00 242.60 56.00 C 238.42 56.00 234.80 57.02 226.59 60.53 C 206.80 68.98 186.00 74.87 186.00 72.01 C 186.00 71.40 186.73 69.49 187.62 67.77 C 188.99 65.12 189.07 63.65 188.14 58.07 C 186.53 48.35 184.22 41.37 181.62 38.35 C 179.42 35.79 179.06 35.71 173.91 36.59 C 168.50 37.51 168.50 37.51 168.81 44.50 C 168.99 48.35 169.85 54.88 170.74 59.00 C 172.72 68.25 172.69 69.17 170.17 75.99 C 168.15 81.48 168.15 81.48 152.32 85.07 C 131.78 89.73 121.56 92.62 116.00 95.32 C 111.70 97.40 111.49 97.71 111.19 102.26 C 110.95 106.03 111.25 107.16 112.62 107.68 C 115.37 108.74 129.72 106.28 148.95 101.46 C 158.72 99.01 167.48 97.00 168.41 97.00 C 170.17 97.00 173.00 102.44 173.00 105.83 C 173.00 109.16 169.27 112.64 161.28 116.78 C 153.16 120.98 137.13 127.00 134.06 127.00 C 133.08 127.00 130.57 125.84 128.47 124.42 C 124.92 122.01 124.37 121.92 120.33 123.05 C 117.95 123.71 116.00 124.81 116.00 125.48 C 116.00 126.16 116.89 132.51 117.98 139.60 C 121.44 162.21 124.13 192.78 124.83 217.29 C 125.56 243.29 125.47 242.95 131.65 242.98 C 134.00 243.00 135.57 242.12 137.88 239.48 C 141.86 234.95 142.20 233.36 141.82 221.18 C 141.50 211.06 141.50 211.06 150.04 209.10 C 161.22 206.52 172.00 204.66 172.54 205.21 C 173.69 206.35 172.98 237.87 171.70 242.68 C 170.33 247.87 170.33 247.87 175.41 251.42 C 178.21 253.38 181.09 254.99 181.82 254.99 C 182.55 255.00 185.14 253.83 187.57 252.40 Z  M 258.40 32.11 C 255.58 24.71 245.38 14.93 232.91 7.67 C 227.25 4.37 222.98 4.26 219.43 7.30 C 217.17 9.25 216.86 10.11 217.46 12.80 C 218.07 15.60 220.74 17.75 238.83 30.04 C 259.50 44.08 259.50 44.08 259.82 40.37 C 260.00 38.33 259.36 34.61 258.40 32.11 Z  M 67.04 220.84 C 67.14 206.51 69.84 201.93 81.91 195.65 C 88.11 192.42 101.99 187.00 104.06 187.00 C 106.99 187.00 103.49 191.65 90.75 204.66 C 82.91 212.67 74.36 221.01 71.75 223.20 C 67.00 227.19 67.00 227.19 67.04 220.84 Z  M 139.00 183.65 C 139.00 177.42 139.35 174.99 140.25 174.96 C 140.94 174.94 148.47 174.07 157.00 173.04 C 165.52 172.01 172.62 171.29 172.77 171.44 C 172.92 171.59 173.54 174.52 174.15 177.96 C 175.16 183.70 175.09 184.36 173.23 186.22 C 170.35 189.09 162.19 191.00 149.75 191.70 C 139.00 192.30 139.00 192.30 139.00 183.65 Z  M 137.56 158.10 C 137.19 157.50 136.63 153.95 136.32 150.23 C 135.89 145.14 136.09 143.18 137.12 142.34 C 139.02 140.80 165.82 130.19 169.82 129.39 C 173.07 128.74 173.07 128.74 172.79 139.06 C 172.50 149.39 172.50 149.39 169.35 151.23 C 163.18 154.83 138.80 160.10 137.56 158.10 Z "/>
</g>
</svg>