<?xml version="1.0" encoding="UTF-8" standalone="no"?>
<!DOCTYPE svg PUBLIC "-//W3C//DTD SVG 1.1//EN" "http://www.w3.org/Graphics/SVG/1.1/DTD/svg11.dtd" >
<svg xmlns="http://www.w3.org/2000/svg" xmlns:xlink="http://www.w3.org/1999/xlink" version="1.1" viewBox="0 0 256 256">
 <g >
 <path fill="currentColor"
d=" M 68.87 231.13 C 71.25 228.75 71.41 227.18 74.52 178.00 C 75.93 155.72 77.30 136.05 77.58 134.28 C 78.01 131.49 79.36 130.22 87.39 125.02 C 92.51 121.70 97.52 118.08 98.53 116.97 C 100.30 115.01 100.29 114.87 98.33 112.23 C 95.25 108.09 92.50 108.25 85.85 112.94 C 78.95 117.81 79.45 119.47 81.05 97.15 C 82.71 74.00 81.46 76.39 92.27 75.73 C 103.33 75.05 104.82 74.55 105.66 71.23 C 106.89 66.32 105.25 65.50 94.13 65.50 C 84.00 65.50 84.00 65.50 84.00 45.47 C 84.00 23.75 83.39 21.00 78.57 21.00 C 74.28 21.00 73.86 22.81 73.16 44.71 C 72.50 65.50 72.50 65.50 48.64 66.72 C 33.85 67.48 24.25 68.38 23.39 69.09 C 21.29 70.84 21.72 74.69 24.22 76.44 C 26.08 77.74 30.23 78.00 49.23 78.00 C 72.02 78.00 72.02 78.00 71.53 81.75 C 71.26 83.81 70.53 93.60 69.91 103.50 C 69.29 113.40 68.61 121.78 68.41 122.12 C 68.21 122.46 56.31 129.16 41.98 137.01 C 27.65 144.86 15.49 152.09 14.96 153.07 C 13.76 155.32 15.21 159.48 17.51 160.36 C 20.87 161.66 23.66 160.91 29.01 157.29 C 34.91 153.30 65.83 136.00 67.06 136.00 C 67.47 136.00 67.63 137.69 67.40 139.75 C 67.18 141.81 65.83 159.03 64.41 178.00 C 62.99 196.97 61.63 212.69 61.40 212.93 C 61.16 213.17 56.10 208.55 50.14 202.68 C 44.18 196.81 38.84 192.00 38.28 192.00 C 36.14 192.00 32.00 196.24 32.00 198.44 C 32.00 201.40 35.42 205.62 50.01 220.67 C 62.68 233.74 64.98 235.02 68.87 231.13 Z  M 165.04 228.40 C 165.58 226.97 168.32 210.88 171.12 192.65 C 173.92 174.42 176.27 159.43 176.35 159.35 C 176.43 159.27 186.56 158.27 198.85 157.14 C 212.30 155.90 221.80 154.58 222.71 153.83 C 224.71 152.17 226.08 148.38 225.36 146.51 C 224.62 144.57 219.55 144.57 198.00 146.50 C 188.93 147.31 180.55 147.98 179.38 147.99 C 177.06 148.00 177.04 148.38 180.02 134.45 C 181.51 127.50 180.85 123.52 177.95 121.97 C 172.99 119.32 170.17 124.45 166.94 142.00 C 166.28 145.57 165.23 149.06 164.60 149.73 C 163.89 150.50 156.65 151.54 145.48 152.48 C 121.47 154.50 121.11 154.58 119.93 157.69 C 118.58 161.23 119.64 163.87 122.70 164.64 C 124.12 165.00 133.88 164.37 144.39 163.25 C 154.90 162.14 163.68 161.38 163.89 161.58 C 164.28 161.95 158.17 212.40 157.45 214.74 C 157.18 215.61 154.77 214.93 149.41 212.49 C 138.68 207.60 135.00 208.03 135.00 214.15 C 135.00 216.59 136.31 217.68 146.75 223.94 C 159.76 231.75 163.42 232.64 165.04 228.40 Z  M 97.60 226.85 C 98.64 225.68 106.79 218.46 115.70 210.83 C 132.40 196.52 136.00 192.67 136.00 189.13 C 136.00 186.87 133.30 185.00 130.05 185.00 C 128.78 185.00 122.02 190.37 112.74 198.75 C 90.24 219.06 88.00 221.42 88.00 224.79 C 88.00 228.44 88.60 229.00 92.51 229.00 C 94.50 229.00 96.40 228.20 97.60 226.85 Z  M 226.46 210.39 C 228.28 208.58 227.74 205.47 225.15 202.80 C 223.62 201.23 183.76 186.00 181.17 186.00 C 179.13 186.00 176.00 189.91 176.00 192.46 C 176.00 195.53 176.29 195.69 198.00 204.63 C 216.63 212.31 223.22 213.64 226.46 210.39 Z  M 108.43 155.39 C 109.31 155.05 121.80 142.34 136.18 127.14 C 150.57 111.94 162.72 99.35 163.17 99.17 C 163.63 98.98 173.62 106.02 185.37 114.81 C 197.13 123.60 207.74 131.33 208.95 131.97 C 211.84 133.52 213.55 132.77 215.45 129.10 C 216.69 126.70 216.77 125.59 215.85 123.56 C 215.11 121.95 206.54 115.53 192.35 105.96 C 180.06 97.68 170.00 90.60 170.00 90.23 C 170.00 89.87 172.06 87.48 174.58 84.92 C 177.99 81.45 179.28 79.29 179.65 76.39 C 180.29 71.40 178.31 68.45 174.91 69.32 C 173.42 69.70 159.16 84.67 137.50 108.59 C 106.79 142.51 102.43 147.72 101.93 151.14 C 101.62 153.28 101.58 155.25 101.85 155.51 C 102.53 156.20 106.52 156.12 108.43 155.39 Z  M 140.44 88.45 C 141.60 86.68 142.00 83.42 142.00 75.76 C 142.00 65.45 142.00 65.45 169.25 62.69 C 184.24 61.18 197.05 59.95 197.72 59.97 C 198.46 59.99 197.75 62.04 195.91 65.16 C 194.24 67.99 191.28 73.46 189.34 77.31 C 185.38 85.18 185.70 88.38 190.56 89.60 C 194.17 90.51 195.49 88.92 203.96 73.50 C 207.88 66.35 211.63 59.99 212.30 59.37 C 212.96 58.75 217.27 57.78 221.87 57.21 C 230.96 56.10 232.63 55.12 233.58 50.33 C 234.47 45.89 231.89 44.62 224.99 46.10 C 222.17 46.70 219.61 46.94 219.30 46.63 C 218.98 46.32 220.33 42.35 222.28 37.81 C 224.78 32.02 225.57 29.06 224.94 27.90 C 223.91 25.97 219.59 24.65 217.16 25.52 C 216.25 25.84 213.00 31.15 209.95 37.31 C 204.40 48.50 204.40 48.50 176.95 51.67 C 136.82 56.29 141.53 58.01 140.05 38.25 C 138.66 19.76 137.76 17.00 133.10 17.00 C 128.71 17.00 127.67 19.05 128.38 26.25 C 128.72 29.69 129.28 37.95 129.63 44.61 C 130.26 56.71 130.26 56.71 122.94 57.24 C 115.00 57.80 112.00 59.79 112.00 64.49 C 112.00 68.89 114.71 69.80 124.12 68.55 C 129.73 67.80 129.73 67.80 130.20 75.65 C 131.00 89.24 135.91 95.37 140.44 88.45 Z "/>
</g>
</svg>