<?xml version="1.0" encoding="UTF-8" standalone="no"?>
<!DOCTYPE svg PUBLIC "-//W3C//DTD SVG 1.1//EN" "http://www.w3.org/Graphics/SVG/1.1/DTD/svg11.dtd" >
<svg xmlns="http://www.w3.org/2000/svg" xmlns:xlink="http://www.w3.org/1999/xlink" version="1.1" viewBox="0 0 256 256">
 <g >
 <path fill="currentColor"
d=" M 96.48 229.61 C 98.05 228.04 98.69 226.51 98.33 225.16 C 97.90 223.51 98.37 222.96 100.65 222.45 C 102.22 222.10 111.23 219.80 120.68 217.33 C 133.76 213.92 138.31 213.09 139.77 213.88 C 141.35 214.72 142.26 214.33 144.85 211.66 C 146.58 209.87 148.00 207.46 148.00 206.30 C 148.00 205.13 150.76 196.63 154.12 187.40 C 160.25 170.62 160.25 170.62 158.01 168.81 C 156.78 167.81 155.27 167.00 154.64 166.99 C 154.01 166.99 139.57 165.67 122.55 164.06 C 100.76 162.00 91.05 161.44 89.72 162.15 C 87.60 163.28 87.71 163.34 86.10 160.25 C 84.54 157.25 81.44 157.40 79.36 160.58 C 77.79 162.98 77.78 163.64 79.29 170.33 C 80.19 174.27 81.41 181.10 82.01 185.50 C 83.04 193.06 89.62 228.06 90.52 230.75 C 91.18 232.73 93.88 232.21 96.48 229.61 Z  M 67.56 226.58 C 69.43 225.21 69.51 223.32 69.78 174.08 C 69.94 145.99 70.27 123.00 70.51 123.00 C 70.76 123.00 77.08 127.05 84.55 132.00 C 92.03 136.95 98.79 141.00 99.58 141.00 C 101.18 141.00 105.00 137.51 105.00 136.05 C 105.00 133.14 102.13 130.00 95.81 125.99 C 76.59 113.82 76.63 113.84 73.25 114.37 C 70.00 114.87 70.00 114.87 70.00 99.44 C 70.00 81.70 68.85 83.11 81.34 85.50 C 92.79 87.69 97.53 87.50 99.44 84.78 C 101.38 82.01 101.43 79.60 99.58 78.07 C 98.81 77.42 91.83 76.16 84.08 75.27 C 70.00 73.64 70.00 73.64 70.09 60.07 C 70.13 52.61 70.51 42.45 70.92 37.50 C 71.59 29.31 71.48 28.30 69.66 26.25 C 67.21 23.51 62.47 23.25 61.12 25.78 C 60.59 26.76 59.84 37.11 59.44 48.78 C 58.59 73.54 60.98 71.12 40.50 67.92 C 18.23 64.45 19.55 64.50 17.14 67.07 C 14.59 69.81 14.40 72.26 16.60 74.08 C 17.48 74.82 27.27 77.01 38.35 78.97 C 58.50 82.52 58.50 82.52 59.00 154.30 C 59.43 216.64 59.70 226.20 61.00 227.02 C 63.13 228.37 65.31 228.22 67.56 226.58 Z  M 173.19 224.33 C 174.21 223.40 176.05 222.56 177.27 222.46 C 185.01 221.78 225.76 213.51 226.97 212.38 C 228.16 211.26 228.22 210.42 227.29 207.96 C 226.24 205.18 226.76 203.61 233.55 188.72 C 240.94 172.50 240.94 172.50 238.81 170.88 C 236.67 169.24 225.88 167.56 198.00 164.50 C 179.41 162.46 172.79 162.54 169.96 164.83 C 167.74 166.63 167.67 167.26 166.94 193.51 C 166.53 208.27 166.38 220.95 166.60 221.68 C 166.82 222.40 167.21 223.68 167.47 224.50 C 168.09 226.49 170.90 226.40 173.19 224.33 Z  M 20.79 188.43 C 22.02 187.57 23.87 185.21 24.90 183.18 C 27.37 178.31 54.59 104.45 55.49 100.18 C 56.19 96.85 54.14 93.00 51.66 93.00 C 50.41 93.00 46.00 97.02 46.00 98.17 C 46.00 98.62 39.43 116.20 31.40 137.24 C 11.28 189.95 12.66 185.66 15.04 188.04 C 17.41 190.41 17.92 190.44 20.79 188.43 Z  M 166.50 137.45 C 182.45 136.58 196.53 135.66 197.78 135.41 C 201.23 134.71 205.23 127.52 219.77 95.93 C 234.83 63.18 236.15 59.40 233.72 55.69 C 232.81 54.31 230.59 52.70 228.79 52.12 C 223.17 50.30 144.32 35.00 140.58 35.00 C 133.09 35.00 132.10 43.53 139.25 46.41 C 141.04 47.13 160.50 51.01 182.50 55.03 C 204.50 59.06 222.62 62.42 222.76 62.52 C 222.90 62.61 216.60 76.67 208.76 93.77 C 192.25 129.75 199.10 125.53 155.44 126.60 C 129.39 127.24 129.39 127.24 127.58 83.37 C 125.32 28.42 125.37 28.96 121.57 27.69 C 119.08 26.86 118.38 27.05 116.82 28.97 C 114.37 32.00 114.44 40.60 117.41 93.93 C 119.53 132.05 119.96 136.50 121.58 137.68 C 123.95 139.42 131.27 139.38 166.50 137.45 Z  M 96.54 211.77 C 95.76 209.37 89.80 171.86 90.15 171.53 C 90.63 171.07 146.21 176.88 146.78 177.44 C 147.24 177.91 142.56 191.23 139.32 198.69 C 137.61 202.62 137.19 202.92 132.50 203.55 C 129.75 203.93 121.88 205.91 115.00 207.96 C 97.64 213.14 97.03 213.27 96.54 211.77 Z  M 176.79 193.25 C 177.04 182.94 177.32 174.41 177.41 174.29 C 177.62 174.04 226.19 177.92 227.20 178.26 C 227.90 178.50 217.51 202.80 216.06 204.31 C 215.52 204.87 181.20 211.52 176.42 211.99 C 176.37 212.00 176.54 203.56 176.79 193.25 Z "/>
</g>
</svg>