<?xml version="1.0" encoding="UTF-8" standalone="no"?>
<!DOCTYPE svg PUBLIC "-//W3C//DTD SVG 1.1//EN" "http://www.w3.org/Graphics/SVG/1.1/DTD/svg11.dtd" >
<svg xmlns="http://www.w3.org/2000/svg" xmlns:xlink="http://www.w3.org/1999/xlink" version="1.1" viewBox="0 0 256 256">
 <g >
 <path fill="currentColor"
d=" M 62.31 222.00 C 74.05 208.82 77.14 204.76 77.63 201.80 C 78.35 197.43 75.17 198.28 109.00 193.41 C 140.10 188.94 141.40 188.58 141.81 184.31 C 142.05 181.81 141.57 180.77 139.58 179.46 C 137.36 178.01 136.02 177.94 128.86 178.90 C 124.35 179.51 120.48 179.82 120.26 179.59 C 120.04 179.37 120.65 176.95 121.62 174.21 C 123.39 169.24 123.39 169.24 129.59 168.60 C 140.58 167.47 145.00 164.73 143.49 159.96 C 142.43 156.64 139.65 155.85 132.83 156.95 C 129.41 157.50 126.44 157.77 126.21 157.55 C 125.99 157.32 127.02 153.03 128.50 148.00 C 131.07 139.27 131.11 138.78 129.44 136.93 C 126.38 133.55 119.98 134.92 120.01 138.95 C 120.02 139.80 118.83 144.40 117.38 149.17 C 114.73 157.85 114.73 157.85 110.12 158.41 C 100.33 159.59 74.80 161.14 74.25 160.59 C 73.93 160.27 73.49 155.17 73.27 149.25 C 73.05 143.34 72.38 137.49 71.78 136.27 C 70.26 133.19 67.39 132.51 64.32 134.53 C 61.74 136.22 61.74 136.22 62.21 148.52 C 62.69 160.81 62.69 160.81 59.72 161.41 C 58.09 161.73 54.66 162.00 52.10 162.00 C 44.39 162.00 40.72 166.49 44.35 171.47 C 45.51 173.06 46.57 173.23 51.88 172.67 C 55.27 172.32 59.11 171.76 60.40 171.44 C 62.70 170.86 62.75 171.01 63.23 179.67 C 63.50 184.53 63.64 188.61 63.53 188.75 C 63.42 188.88 57.52 190.17 50.42 191.60 C 43.31 193.03 36.71 194.90 35.75 195.75 C 33.74 197.54 33.43 202.03 35.20 203.80 C 36.99 205.59 46.60 205.25 54.52 203.12 C 64.11 200.55 66.00 200.13 66.00 200.57 C 66.00 200.89 49.67 220.06 43.86 226.55 C 40.83 229.94 40.44 234.44 42.96 236.96 C 44.15 238.15 45.68 238.98 46.37 238.81 C 47.05 238.64 54.23 231.07 62.31 222.00 Z  M 151.63 228.44 C 153.22 226.02 153.20 225.74 151.32 223.19 C 148.26 219.04 122.38 204.78 117.63 204.63 C 112.92 204.47 111.09 206.58 112.54 210.47 C 113.26 212.41 117.49 215.29 129.50 222.02 C 138.30 226.96 146.50 231.00 147.73 231.00 C 149.01 231.00 150.66 229.92 151.63 228.44 Z  M 161.22 202.75 C 165.75 198.76 174.39 191.12 180.41 185.76 C 191.38 176.02 191.38 176.02 193.94 177.70 C 205.96 185.61 227.64 198.00 229.45 198.00 C 233.69 198.00 237.08 191.85 234.44 188.93 C 233.55 187.95 225.44 182.74 216.41 177.34 C 207.38 171.94 200.11 167.18 200.25 166.76 C 200.39 166.34 206.39 159.81 213.58 152.25 C 228.98 136.07 229.79 134.86 227.52 131.39 C 226.63 130.02 224.91 128.49 223.70 127.99 C 219.91 126.40 165.09 118.94 162.22 119.63 C 156.70 120.94 156.06 123.83 160.39 127.89 C 162.26 129.65 166.24 130.40 187.54 133.00 C 201.27 134.68 212.79 136.15 213.14 136.27 C 213.49 136.40 208.29 142.30 201.58 149.38 C 189.38 162.26 189.38 162.26 174.18 154.13 C 165.82 149.66 158.38 146.00 157.66 146.00 C 155.63 146.00 151.78 150.61 152.16 152.60 C 152.36 153.64 158.08 157.73 166.00 162.50 C 173.43 166.97 179.42 170.97 179.32 171.39 C 179.22 171.81 171.46 179.14 162.07 187.67 C 152.68 196.20 145.00 203.71 145.00 204.37 C 145.00 205.02 145.70 206.56 146.56 207.78 C 149.26 211.63 152.33 210.58 161.22 202.75 Z  M 22.51 198.97 C 23.48 196.82 28.22 181.21 33.03 164.28 C 41.79 133.50 41.79 133.50 65.14 126.72 C 77.99 122.98 99.03 117.04 111.91 113.51 C 124.79 109.97 135.76 106.64 136.31 106.09 C 137.38 105.02 138.85 78.89 138.94 59.36 C 138.99 49.06 138.72 46.88 137.18 44.98 C 135.51 42.91 131.69 42.20 89.89 36.21 C 48.69 30.31 44.13 29.83 41.46 31.11 C 37.91 32.80 37.24 35.80 39.79 38.54 C 41.40 40.28 47.49 41.36 84.35 46.51 C 127.04 52.46 127.04 52.46 126.77 75.45 C 126.50 98.44 126.50 98.44 86.11 109.75 C 63.90 115.97 45.57 120.91 45.39 120.72 C 45.20 120.54 48.19 108.53 52.03 94.05 C 59.15 67.15 60.32 59.44 57.44 58.34 C 54.61 57.25 51.40 59.67 49.71 64.15 C 47.12 71.03 14.05 190.38 13.38 195.27 C 12.84 199.21 13.05 199.90 15.45 201.78 C 18.84 204.45 20.31 203.86 22.51 198.97 Z  M 153.92 107.27 C 155.45 103.93 166.00 45.06 166.00 39.91 C 166.00 37.46 165.47 36.01 164.42 35.61 C 161.69 34.56 156.96 34.94 156.49 36.25 C 156.25 36.94 153.56 52.94 150.52 71.80 C 144.55 108.81 144.53 110.00 149.87 110.00 C 151.96 110.00 153.00 109.30 153.92 107.27 Z  M 215.48 100.21 C 232.74 95.92 234.59 95.26 235.94 92.82 C 237.30 90.37 237.27 89.95 235.56 88.07 C 233.03 85.27 230.87 85.43 216.30 89.54 C 209.39 91.48 203.52 92.85 203.24 92.58 C 202.97 92.30 207.75 81.97 213.87 69.63 C 219.99 57.28 225.00 46.21 225.00 45.04 C 225.00 41.81 220.10 40.33 207.00 39.62 C 186.00 38.47 173.19 38.60 171.53 39.97 C 169.69 41.51 169.51 46.37 171.25 47.74 C 171.94 48.29 181.05 49.04 191.49 49.41 C 201.94 49.78 210.78 50.41 211.14 50.79 C 211.49 51.18 206.45 61.40 199.93 73.50 C 187.29 96.94 186.12 100.57 190.22 103.44 C 193.32 105.61 194.14 105.50 215.48 100.21 Z  M 74.00 179.60 C 74.00 171.20 74.00 171.20 86.75 170.58 C 93.76 170.23 102.31 169.70 105.75 169.40 C 110.71 168.96 112.00 169.13 112.00 170.24 C 112.00 171.48 109.09 181.02 108.48 181.80 C 108.29 182.03 75.39 188.00 74.28 188.00 C 74.13 188.00 74.00 184.22 74.00 179.60 Z "/>
</g>
</svg>