<?xml version="1.0" encoding="UTF-8" standalone="no"?>
<!DOCTYPE svg PUBLIC "-//W3C//DTD SVG 1.1//EN" "http://www.w3.org/Graphics/SVG/1.1/DTD/svg11.dtd" >
<svg xmlns="http://www.w3.org/2000/svg" xmlns:xlink="http://www.w3.org/1999/xlink" version="1.1" viewBox="0 0 256 256">
 <g >
 <path fill="currentColor"
d=" M 75.78 212.49 C 82.56 203.70 88.65 195.76 89.33 194.85 C 90.33 193.49 93.83 192.99 108.44 192.09 C 118.27 191.48 126.50 191.17 126.72 191.39 C 126.94 191.61 124.77 197.23 121.89 203.88 C 116.66 215.97 116.66 215.97 111.58 212.92 C 102.24 207.32 97.88 205.66 95.07 206.65 C 92.98 207.38 92.50 208.19 92.50 211.02 C 92.50 214.86 93.65 215.80 109.46 224.85 C 120.68 231.27 120.17 231.64 131.51 208.99 C 142.10 187.83 143.11 183.76 138.25 181.90 C 136.43 181.20 129.28 181.09 117.12 181.56 C 101.64 182.16 98.83 182.06 99.31 180.89 C 99.62 180.12 100.43 177.70 101.12 175.50 C 101.80 173.30 102.42 171.40 102.49 171.28 C 102.60 171.08 148.32 164.00 149.45 164.00 C 150.84 164.00 153.00 160.43 153.00 158.13 C 153.00 152.06 150.33 151.80 131.95 156.05 C 124.70 157.72 118.67 158.96 118.55 158.80 C 117.90 157.89 111.77 134.90 112.10 134.61 C 112.32 134.42 117.45 133.29 123.50 132.11 C 133.33 130.19 134.83 129.61 137.60 126.65 C 140.17 123.92 141.11 123.50 143.04 124.21 C 144.33 124.69 145.95 124.95 146.65 124.79 C 147.35 124.63 151.74 118.92 156.41 112.09 C 164.90 99.68 164.90 99.68 190.19 99.92 C 204.10 100.04 215.60 100.27 215.75 100.41 C 215.95 100.62 187.83 141.36 186.45 142.86 C 186.27 143.05 180.16 139.00 172.88 133.86 C 155.84 121.82 157.30 122.57 154.45 124.44 C 151.28 126.52 151.19 130.92 154.25 133.69 C 155.49 134.81 161.22 138.98 167.00 142.96 C 172.78 146.95 178.05 150.73 178.73 151.37 C 179.69 152.28 176.09 157.37 162.38 174.52 C 138.64 204.19 137.19 206.94 143.64 209.88 C 145.75 210.84 146.68 210.78 148.53 209.57 C 149.79 208.75 159.47 196.84 170.04 183.11 C 189.25 158.14 189.25 158.14 207.11 170.07 C 216.93 176.63 225.50 182.00 226.17 182.00 C 227.98 182.00 232.00 177.88 232.00 176.01 C 232.00 173.36 227.42 169.83 211.25 160.00 C 202.86 154.90 196.00 150.37 196.00 149.93 C 196.00 149.50 203.43 138.42 212.50 125.32 C 229.01 101.50 229.01 101.50 235.15 101.00 C 242.42 100.41 244.01 98.86 242.09 94.23 C 240.91 91.37 240.48 91.19 233.67 90.64 C 229.73 90.31 214.00 89.75 198.73 89.39 C 183.45 89.03 170.74 88.39 170.47 87.96 C 170.21 87.53 174.72 78.42 180.50 67.72 C 186.27 57.02 191.00 47.31 191.00 46.15 C 191.00 44.99 189.90 43.32 188.55 42.44 C 184.63 39.88 181.26 42.57 176.79 51.82 C 169.08 67.79 146.02 108.00 144.58 108.00 C 144.43 108.00 147.22 99.66 150.79 89.46 C 157.86 69.25 157.95 67.98 152.50 64.41 C 150.33 62.99 146.38 62.63 128.45 62.21 C 116.65 61.94 107.00 61.59 107.00 61.42 C 107.00 61.26 110.20 54.63 114.11 46.69 C 121.71 31.26 122.15 28.58 117.29 27.36 C 112.31 26.11 109.83 28.00 106.55 35.55 C 104.87 39.41 101.59 45.78 99.26 49.70 C 96.00 55.18 95.15 57.48 95.58 59.66 C 96.15 62.50 96.15 62.50 86.67 62.18 C 78.82 61.92 76.89 61.53 75.44 59.93 C 73.57 57.86 67.58 57.25 66.49 59.02 C 66.14 59.58 66.78 66.22 67.91 73.77 C 69.04 81.32 71.15 98.30 72.59 111.50 C 74.03 124.70 75.82 136.96 76.56 138.75 C 78.17 142.66 80.67 142.92 91.74 140.33 C 95.72 139.40 99.24 138.91 99.57 139.23 C 100.92 140.59 106.16 160.24 105.36 161.00 C 104.16 162.15 83.11 166.72 73.71 167.86 C 64.91 168.94 63.00 170.04 63.00 174.04 C 63.00 180.77 64.91 181.24 79.30 178.10 C 84.09 177.05 88.00 176.41 88.00 176.66 C 88.00 176.92 81.17 186.89 72.82 198.82 C 64.48 210.74 57.44 221.81 57.19 223.41 C 56.69 226.55 59.15 229.31 61.96 228.77 C 62.79 228.61 69.01 221.28 75.78 212.49 Z  M 26.12 211.25 C 29.99 208.00 60.24 170.38 62.50 166.00 C 64.56 162.02 63.09 159.00 59.10 159.00 C 56.93 159.00 55.68 159.89 53.76 162.79 C 52.38 164.87 43.32 175.92 33.63 187.34 C 23.93 198.76 16.00 208.91 16.00 209.90 C 16.00 211.59 19.08 213.78 21.67 213.93 C 22.32 213.97 24.32 212.76 26.12 211.25 Z  M 59.00 121.00 C 60.41 118.37 59.22 116.25 53.56 111.26 C 48.24 106.58 36.29 98.44 32.75 97.10 C 29.01 95.67 25.79 98.23 26.19 102.31 C 26.46 105.01 27.48 106.00 33.90 109.78 C 37.97 112.18 43.75 116.13 46.74 118.57 C 52.84 123.53 57.18 124.39 59.00 121.00 Z  M 63.59 66.50 C 64.67 62.21 63.30 59.84 52.94 48.00 C 42.62 36.21 39.26 33.72 36.20 35.64 C 33.14 37.55 33.79 40.43 38.78 47.04 C 41.45 50.60 45.48 56.23 47.73 59.57 C 52.56 66.71 55.32 68.88 59.73 68.95 C 62.36 68.99 63.08 68.54 63.59 66.50 Z  M 85.56 129.75 C 85.11 128.26 82.00 103.84 82.00 101.82 C 82.00 100.61 83.97 100.60 95.75 101.71 C 103.31 102.43 112.20 102.90 115.50 102.76 C 121.50 102.50 121.50 102.50 121.80 98.41 C 122.27 92.02 121.40 91.71 99.90 90.61 C 84.13 89.80 80.95 89.39 80.59 88.07 C 80.35 87.21 79.86 83.41 79.49 79.63 C 78.82 72.76 78.82 72.76 111.66 73.50 C 129.72 73.90 144.68 74.39 144.89 74.59 C 145.10 74.78 141.72 85.17 137.38 97.66 C 129.48 120.38 129.48 120.38 108.49 125.66 C 96.94 128.57 87.15 130.96 86.72 130.97 C 86.29 130.99 85.77 130.44 85.56 129.75 Z "/>
</g>
</svg>