<?xml version="1.0" encoding="UTF-8" standalone="no"?>
<!DOCTYPE svg PUBLIC "-//W3C//DTD SVG 1.1//EN" "http://www.w3.org/Graphics/SVG/1.1/DTD/svg11.dtd" >
<svg xmlns="http://www.w3.org/2000/svg" xmlns:xlink="http://www.w3.org/1999/xlink" version="1.1" viewBox="0 0 256 256">
 <g >
 <path fill="currentColor"
d=" M 161.07 225.41 C 162.53 223.66 164.01 212.33 173.00 134.00 C 176.32 105.12 179.22 80.98 179.44 80.35 C 179.67 79.72 181.78 78.88 184.12 78.48 C 186.47 78.08 190.89 76.88 193.94 75.82 C 197.00 74.75 201.91 73.47 204.85 72.97 C 211.74 71.81 213.35 70.49 212.57 66.61 C 211.48 61.15 208.08 60.76 194.51 64.51 C 183.58 67.53 180.67 67.70 181.35 65.25 C 182.22 62.13 184.22 33.62 183.85 29.50 C 183.53 25.86 183.22 25.47 180.45 25.20 C 175.02 24.67 174.40 26.49 173.07 47.00 C 172.42 57.17 171.66 66.65 171.40 68.06 C 170.94 70.55 169.94 70.86 140.30 78.05 C 121.61 82.58 108.76 86.19 107.34 87.31 C 104.81 89.29 104.27 92.87 106.20 94.80 C 108.40 97.00 113.98 96.05 141.15 88.89 C 155.98 84.98 168.35 82.01 168.64 82.31 C 169.12 82.78 163.59 132.63 162.51 137.55 C 162.26 138.69 147.68 152.16 130.06 167.55 C 110.82 184.35 97.58 196.64 96.86 198.37 C 94.19 204.75 100.84 207.11 107.53 202.16 C 109.72 200.55 122.51 189.08 135.97 176.67 C 149.44 164.27 160.61 154.27 160.80 154.47 C 161.38 155.05 153.63 209.00 152.96 209.00 C 152.62 209.00 148.32 206.33 143.42 203.07 C 138.51 199.82 133.30 196.85 131.84 196.49 C 128.18 195.58 125.00 197.49 125.00 200.60 C 125.00 204.76 126.63 206.62 133.73 210.59 C 137.46 212.67 144.23 217.21 148.78 220.69 C 153.33 224.16 157.66 227.00 158.41 227.00 C 159.15 227.00 160.35 226.29 161.07 225.41 Z  M 41.11 219.33 C 45.39 215.40 60.16 204.95 76.94 193.97 C 92.65 183.69 106.55 174.30 107.84 173.09 C 109.96 171.09 110.04 170.70 108.72 168.70 C 107.74 167.21 106.04 166.40 103.47 166.18 C 99.53 165.85 95.67 168.11 77.30 181.52 C 71.10 186.05 71.10 186.05 70.60 182.77 C 70.09 179.46 66.97 133.29 66.99 129.37 C 67.00 127.43 67.85 127.14 76.75 126.06 C 94.11 123.94 97.25 122.31 94.45 116.91 C 92.48 113.10 89.88 112.82 78.28 115.18 C 72.60 116.34 67.66 116.99 67.29 116.63 C 66.93 116.26 66.23 107.31 65.73 96.73 C 65.24 86.15 64.31 75.25 63.67 72.50 C 62.62 68.03 62.19 67.46 59.55 67.16 C 53.52 66.48 53.04 70.53 55.42 101.50 C 56.15 110.85 56.57 118.68 56.37 118.91 C 56.18 119.14 49.67 120.16 41.91 121.18 C 34.16 122.21 26.50 123.72 24.91 124.55 C 19.41 127.39 22.44 134.00 29.24 134.00 C 30.78 134.00 36.19 133.14 41.27 132.09 C 56.80 128.87 57.00 128.85 57.00 130.68 C 57.00 133.01 60.85 180.66 61.45 185.69 C 61.95 189.88 61.95 189.88 45.72 201.59 C 36.80 208.03 29.17 213.79 28.77 214.40 C 26.59 217.66 29.26 226.00 32.48 226.00 C 33.23 226.00 37.12 223.00 41.11 219.33 Z  M 231.43 191.02 C 234.51 189.86 234.88 186.23 232.25 183.22 C 229.01 179.50 189.71 147.84 187.12 146.86 C 183.55 145.50 180.00 147.24 180.00 150.37 C 180.00 152.27 184.41 156.50 201.15 170.64 C 218.56 185.34 227.14 192.00 228.67 192.00 C 228.78 192.00 230.02 191.56 231.43 191.02 Z  M 201.89 119.05 C 209.10 108.08 215.00 98.18 215.00 97.05 C 215.00 94.99 211.77 91.00 210.10 91.00 C 208.46 91.00 203.61 97.41 192.13 114.75 C 183.13 128.34 180.89 132.41 181.36 134.30 C 181.91 136.51 184.99 138.77 187.64 138.93 C 188.27 138.97 194.68 130.02 201.89 119.05 Z  M 150.78 129.44 C 156.27 125.60 153.28 122.80 131.78 111.70 C 110.37 100.64 105.02 99.21 103.47 104.10 C 102.29 107.81 105.68 110.82 117.39 116.42 C 123.63 119.41 131.61 123.62 135.12 125.76 C 144.65 131.59 146.94 132.13 150.78 129.44 Z  M 96.24 60.79 C 98.05 58.72 97.73 54.18 95.68 52.84 C 94.17 51.85 73.21 50.90 48.12 50.69 C 23.62 50.48 22.94 50.64 24.36 56.32 C 25.53 60.96 27.69 61.36 58.00 62.54 C 90.12 63.80 93.77 63.63 96.24 60.79 Z  M 225.80 55.78 C 226.12 53.15 225.12 51.70 214.63 39.75 C 209.67 34.09 208.20 33.00 205.55 33.00 C 201.63 33.00 200.00 34.56 200.00 38.29 C 200.00 40.62 201.73 42.82 209.11 49.84 C 214.12 54.60 218.96 58.78 219.86 59.11 C 222.55 60.12 225.48 58.48 225.80 55.78 Z "/>
</g>
</svg>