<?xml version="1.0" encoding="UTF-8" standalone="no"?>
<!DOCTYPE svg PUBLIC "-//W3C//DTD SVG 1.1//EN" "http://www.w3.org/Graphics/SVG/1.1/DTD/svg11.dtd" >
<svg xmlns="http://www.w3.org/2000/svg" xmlns:xlink="http://www.w3.org/1999/xlink" version="1.1" viewBox="0 0 256 256">
 <g >
 <path fill="currentColor"
d=" M 218.00 225.25 C 225.44 221.53 221.85 215.82 211.69 215.22 C 208.29 215.02 175.38 214.55 138.56 214.18 C 71.62 213.50 71.62 213.50 68.47 199.00 C 65.68 186.13 58.67 160.31 51.42 136.26 C 49.31 129.24 48.49 127.79 45.88 126.44 C 38.81 122.78 38.50 126.08 43.95 147.19 C 46.12 155.61 50.41 173.30 53.49 186.50 C 56.56 199.70 59.30 211.12 59.56 211.88 C 59.96 213.03 57.88 213.14 47.05 212.54 C 32.14 211.72 27.47 212.64 25.91 216.73 C 24.58 220.23 27.00 223.74 31.24 224.46 C 34.98 225.10 128.82 226.60 180.00 226.84 C 211.04 226.98 214.85 226.82 218.00 225.25 Z  M 189.10 211.41 C 191.59 209.16 220.79 145.33 221.55 140.45 C 222.13 136.77 221.96 136.30 219.55 135.20 C 217.84 134.42 211.20 134.00 200.69 134.00 C 182.58 134.00 154.06 132.83 103.50 130.02 C 66.54 127.97 64.78 128.10 64.20 133.06 C 64.02 134.66 64.68 136.31 65.99 137.49 C 67.77 139.10 70.40 139.49 83.79 140.07 C 92.43 140.45 101.25 141.11 103.39 141.52 C 107.28 142.27 107.28 142.27 106.65 155.39 C 106.30 162.60 105.72 177.56 105.36 188.64 C 104.72 208.35 104.75 208.80 106.79 209.89 C 107.93 210.50 109.69 210.99 110.68 210.98 C 115.29 210.95 115.33 210.77 116.95 176.82 C 118.50 144.50 118.50 144.50 141.00 144.87 C 153.38 145.07 163.65 145.37 163.83 145.53 C 164.01 145.69 162.10 153.91 159.58 163.79 C 157.06 173.68 155.00 182.93 155.00 184.36 C 155.00 186.03 155.90 187.54 157.51 188.60 C 160.89 190.81 165.76 188.95 166.60 185.12 C 166.92 183.68 169.47 173.81 172.27 163.19 C 177.35 143.88 177.35 143.88 180.93 144.40 C 182.89 144.68 189.34 145.20 195.25 145.55 C 201.16 145.90 206.00 146.38 206.00 146.62 C 206.00 146.85 204.01 151.01 201.57 155.86 C 196.01 166.94 179.00 207.23 179.00 209.34 C 179.00 212.78 186.00 214.22 189.10 211.41 Z  M 216.50 120.00 C 218.73 118.15 218.32 115.25 215.56 113.45 C 212.89 111.70 164.86 94.32 158.62 92.85 C 154.23 91.81 148.52 93.21 147.62 95.54 C 146.16 99.35 151.14 101.98 179.00 112.05 C 201.24 120.09 207.31 121.92 210.75 121.62 C 213.09 121.41 215.67 120.69 216.50 120.00 Z  M 126.79 91.96 C 144.00 78.18 158.58 65.83 159.18 64.50 C 160.06 62.58 159.94 61.56 158.62 59.54 C 157.70 58.14 156.60 57.00 156.17 57.00 C 154.18 57.00 144.38 64.39 118.50 85.40 C 103.10 97.91 89.88 109.00 89.13 110.06 C 87.96 111.71 88.00 112.35 89.40 114.49 C 90.34 115.93 92.00 117.00 93.28 117.00 C 94.69 117.00 106.95 107.84 126.79 91.96 Z  M 32.32 110.84 C 33.52 110.21 43.16 103.42 53.75 95.75 C 70.72 83.47 73.00 81.49 73.00 79.06 C 73.00 75.58 69.94 72.75 66.63 73.18 C 65.23 73.35 55.29 80.20 44.54 88.39 C 26.41 102.20 25.00 103.50 25.00 106.44 C 25.00 111.53 27.81 113.23 32.32 110.84 Z  M 98.64 86.54 C 100.09 85.53 102.81 78.95 107.59 64.96 C 114.46 44.83 114.46 44.83 117.30 48.01 C 119.98 51.01 120.72 51.25 129.82 52.11 C 135.15 52.62 149.40 53.45 161.50 53.96 C 186.74 55.02 202.94 55.99 204.76 56.56 C 205.55 56.80 203.58 60.22 199.49 65.72 C 195.90 70.55 192.70 75.52 192.37 76.76 C 191.66 79.47 194.35 84.00 196.68 84.00 C 198.98 84.00 204.72 77.67 212.94 66.08 C 222.90 52.04 222.43 48.75 210.31 47.66 C 206.57 47.33 183.93 45.86 160.00 44.40 C 136.07 42.94 116.32 41.59 116.11 41.40 C 115.89 41.21 116.91 37.76 118.38 33.74 C 122.59 22.20 121.93 16.00 116.50 16.00 C 113.44 16.00 112.70 17.16 109.50 27.00 C 107.98 31.68 102.97 45.21 98.37 57.08 C 93.76 68.96 90.00 79.95 90.00 81.51 C 90.00 84.71 92.50 88.00 94.93 88.00 C 95.82 88.00 97.49 87.34 98.64 86.54 Z  M 77.96 49.07 C 79.72 45.79 79.13 43.29 76.00 40.65 C 71.20 36.62 51.47 25.04 48.31 24.41 C 44.40 23.63 40.46 26.71 41.43 29.78 C 42.50 33.15 62.50 46.62 70.84 49.61 C 75.82 51.38 76.76 51.31 77.96 49.07 Z "/>
</g>
</svg>