<?xml version="1.0" encoding="UTF-8" standalone="no"?>
<!DOCTYPE svg PUBLIC "-//W3C//DTD SVG 1.1//EN" "http://www.w3.org/Graphics/SVG/1.1/DTD/svg11.dtd" >
<svg xmlns="http://www.w3.org/2000/svg" xmlns:xlink="http://www.w3.org/1999/xlink" version="1.1" viewBox="0 0 256 256">
 <g >
 <path fill="currentColor"
d=" M 102.89 208.99 C 108.09 201.31 123.45 173.96 142.76 138.00 C 160.04 105.83 174.70 78.99 175.34 78.38 C 176.45 77.30 213.81 73.38 215.76 74.14 C 216.28 74.34 213.34 81.67 209.22 90.43 C 202.97 103.75 201.89 106.79 202.64 108.93 C 203.41 111.11 204.16 111.50 207.51 111.50 C 211.47 111.50 211.47 111.50 222.35 89.53 C 233.71 66.57 234.04 65.30 228.92 63.98 C 227.59 63.63 216.49 64.02 204.25 64.84 C 192.01 65.66 181.73 66.07 181.41 65.74 C 181.08 65.41 184.01 58.92 187.91 51.32 C 191.81 43.71 195.00 36.24 195.00 34.72 C 195.00 31.34 191.31 29.17 188.36 30.81 C 187.34 31.38 182.20 39.86 176.96 49.67 C 167.41 67.50 167.41 67.50 152.80 68.65 C 144.77 69.29 137.25 70.10 136.10 70.47 C 133.53 71.28 133.29 75.14 135.65 77.51 C 137.10 78.96 138.93 79.07 150.25 78.45 C 163.19 77.73 163.19 77.73 161.44 81.12 C 145.87 111.32 120.40 158.34 105.66 184.12 C 95.39 202.06 87.00 217.22 87.00 217.81 C 87.00 219.32 91.20 222.10 92.96 221.77 C 93.76 221.61 98.23 215.87 102.89 208.99 Z  M 197.64 212.48 C 218.33 210.54 235.65 208.72 236.13 208.42 C 238.28 207.09 236.25 201.50 225.35 178.59 C 215.56 158.02 213.26 153.94 210.95 152.98 C 204.22 150.19 200.51 154.51 204.24 160.77 C 206.79 165.06 222.00 198.33 221.60 198.74 C 221.19 199.15 164.74 205.10 164.51 204.76 C 164.41 204.62 165.92 186.93 167.86 165.45 C 170.88 132.15 171.21 125.93 170.11 123.27 C 168.68 119.81 166.70 118.64 163.80 119.56 C 161.34 120.34 160.00 123.93 160.00 129.72 C 160.00 132.25 158.41 151.84 156.46 173.26 C 152.74 214.23 152.75 214.41 157.32 215.30 C 158.52 215.54 159.62 215.79 159.76 215.86 C 159.91 215.94 176.95 214.42 197.64 212.48 Z  M 87.16 205.00 C 89.82 190.93 92.54 177.64 96.46 159.50 C 102.39 132.15 113.23 72.03 112.55 70.27 C 111.94 68.67 104.42 65.24 94.50 62.02 C 90.65 60.77 77.18 56.19 64.56 51.83 C 46.48 45.58 40.66 43.97 37.06 44.20 C 32.78 44.48 32.48 44.69 32.20 47.58 C 31.65 53.19 34.08 54.72 52.53 60.37 C 61.86 63.23 76.59 67.96 85.25 70.87 C 99.12 75.53 101.00 76.42 100.99 78.33 C 100.97 82.30 78.48 196.72 77.50 197.80 C 77.16 198.19 47.77 195.11 47.30 194.63 C 47.10 194.44 46.67 189.14 46.33 182.87 C 45.72 171.46 45.72 171.46 58.11 169.66 C 73.54 167.43 77.12 166.22 78.83 162.65 C 81.93 156.22 78.71 155.71 59.57 159.58 C 52.57 161.00 46.62 161.95 46.35 161.69 C 45.88 161.22 44.08 135.02 44.03 127.92 C 44.00 124.33 44.00 124.33 49.33 125.06 C 52.27 125.46 57.11 126.32 60.08 126.97 C 67.36 128.58 74.98 128.01 76.38 125.76 C 78.29 122.72 74.36 120.03 66.42 118.97 C 62.61 118.46 55.56 117.30 50.75 116.40 C 42.00 114.75 42.00 114.75 42.00 110.13 C 42.00 107.58 40.79 96.95 39.30 86.50 C 36.98 70.22 36.27 67.18 34.34 65.25 C 31.67 62.57 29.74 62.41 27.49 64.66 C 26.41 65.74 26.02 67.22 26.39 68.91 C 28.00 76.37 32.27 125.43 34.44 161.42 C 36.28 191.81 37.26 202.69 38.26 203.69 C 39.81 205.24 70.90 208.89 80.50 208.65 C 86.50 208.50 86.50 208.50 87.16 205.00 Z  M 133.39 121.42 C 134.48 118.58 134.04 110.93 131.07 81.70 C 129.39 65.03 127.65 52.28 126.96 51.45 C 125.38 49.55 120.58 49.59 118.99 51.52 C 118.12 52.57 117.93 54.66 118.40 58.27 C 118.77 61.15 120.12 76.21 121.41 91.75 C 122.89 109.61 124.21 120.55 125.00 121.50 C 126.68 123.52 132.61 123.47 133.39 121.42 Z "/>
</g>
</svg>