<?xml version="1.0" encoding="UTF-8" standalone="no"?>
<!DOCTYPE svg PUBLIC "-//W3C//DTD SVG 1.1//EN" "http://www.w3.org/Graphics/SVG/1.1/DTD/svg11.dtd" >
<svg xmlns="http://www.w3.org/2000/svg" xmlns:xlink="http://www.w3.org/1999/xlink" version="1.1" viewBox="0 0 256 256">
 <g >
 <path fill="currentColor"
d=" M 87.44 232.36 C 102.43 230.05 157.81 222.00 158.72 222.00 C 158.95 222.00 158.85 222.88 158.51 223.96 C 157.46 227.28 159.66 230.00 163.41 230.00 C 165.25 230.00 167.21 229.44 167.76 228.75 C 168.32 228.06 170.56 223.00 172.73 217.50 C 174.91 212.00 181.52 196.11 187.41 182.18 C 194.17 166.20 198.00 155.87 197.81 154.19 C 197.19 148.81 197.61 148.84 130.30 150.06 C 96.31 150.68 66.82 151.61 64.77 152.13 C 59.50 153.45 58.34 156.07 61.42 159.73 C 63.84 162.60 63.84 162.60 62.96 187.55 C 62.48 201.27 61.80 217.40 61.45 223.38 C 60.98 231.45 61.13 234.46 62.03 235.02 C 63.47 235.91 66.30 235.61 87.44 232.36 Z  M 38.44 170.78 C 40.23 168.23 40.35 162.62 39.33 131.09 C 38.75 113.15 38.45 110.45 36.84 108.84 C 34.54 106.54 32.81 106.52 30.11 108.75 C 28.00 110.49 28.00 110.65 28.95 137.74 C 29.91 164.64 30.28 167.23 33.78 171.25 C 35.78 173.54 36.57 173.46 38.44 170.78 Z  M 223.71 153.22 C 228.22 144.27 231.67 136.31 231.38 135.54 C 231.08 134.77 229.41 133.64 227.67 133.03 C 225.93 132.42 185.82 129.50 138.54 126.53 C 63.28 121.82 52.17 121.32 49.29 122.52 C 46.85 123.54 46.00 124.53 46.00 126.33 C 46.00 127.66 46.62 129.27 47.37 129.89 C 48.25 130.63 78.60 132.84 132.62 136.12 C 178.75 138.91 216.60 141.30 216.72 141.41 C 216.85 141.52 215.41 145.19 213.53 149.56 C 208.57 161.06 207.28 166.43 208.98 168.47 C 209.75 169.41 211.43 169.97 212.91 169.80 C 215.17 169.54 216.54 167.43 223.71 153.22 Z  M 133.80 113.47 C 167.16 112.06 192.93 110.57 194.04 109.98 C 195.11 109.41 197.88 106.37 200.20 103.22 C 202.51 100.07 208.82 91.97 214.21 85.21 C 219.59 78.45 224.00 72.68 224.00 72.39 C 224.00 70.99 221.86 68.15 220.28 67.45 C 217.98 66.43 177.21 65.33 109.50 64.47 C 63.39 63.88 55.23 63.98 53.63 65.21 C 51.82 66.60 51.86 67.17 54.90 84.57 C 56.62 94.43 58.19 103.55 58.39 104.83 C 58.65 106.51 58.09 107.46 56.38 108.24 C 54.60 109.05 54.00 110.12 54.00 112.49 C 54.00 114.24 54.34 116.00 54.75 116.41 C 55.16 116.82 59.99 116.88 65.50 116.54 C 71.00 116.19 101.73 114.81 133.80 113.47 Z  M 186.15 59.88 C 187.06 59.42 189.89 56.10 192.45 52.52 C 197.10 46.00 197.10 46.00 210.30 45.99 C 225.79 45.97 228.34 45.15 228.83 40.02 C 229.33 34.77 227.47 34.00 214.31 34.00 C 208.09 34.00 203.00 33.64 203.00 33.19 C 203.00 32.75 203.66 31.51 204.47 30.44 C 206.59 27.63 206.34 24.25 203.91 22.95 C 200.47 21.11 197.50 22.65 193.02 28.58 C 188.79 34.20 188.79 34.20 180.14 33.62 C 175.39 33.30 151.08 32.75 126.12 32.40 C 80.73 31.75 80.73 31.75 81.26 24.06 C 81.55 19.81 81.35 15.59 80.81 14.62 C 79.44 12.17 75.92 11.08 73.29 12.28 C 71.27 13.20 71.05 14.11 70.79 22.39 C 70.50 31.50 70.50 31.50 61.50 31.22 C 56.55 31.07 49.35 30.70 45.50 30.40 C 40.50 30.01 38.02 30.23 36.80 31.18 C 34.34 33.10 33.65 37.14 35.37 39.50 C 36.72 41.34 38.20 41.53 53.67 41.83 C 70.50 42.16 70.50 42.16 70.16 46.49 C 69.74 51.76 72.66 55.54 76.30 54.44 C 79.69 53.41 80.25 52.50 80.77 47.06 C 81.25 42.00 81.25 42.00 86.38 41.98 C 98.01 41.95 175.83 44.14 179.76 44.61 C 184.03 45.13 184.03 45.13 180.65 49.31 C 176.25 54.75 174.87 57.50 175.59 59.37 C 176.57 61.92 181.68 62.16 186.15 59.88 Z  M 73.63 222.47 C 73.28 221.57 73.00 219.09 73.00 216.96 C 73.00 213.32 73.23 213.02 76.75 212.09 C 78.81 211.55 96.68 209.25 116.45 206.98 C 136.22 204.72 153.32 202.37 154.45 201.78 C 158.49 199.66 159.02 197.02 156.00 194.00 C 153.46 191.46 149.90 191.46 136.71 194.00 C 131.00 195.11 116.46 197.12 104.41 198.49 C 92.36 199.85 80.59 201.22 78.25 201.54 C 74.00 202.12 74.00 202.12 74.00 195.69 C 74.00 192.15 74.28 187.83 74.63 186.10 C 75.26 182.96 75.26 182.96 86.88 183.61 C 93.27 183.97 112.82 183.93 130.32 183.52 C 160.71 182.80 162.23 182.67 164.07 180.69 C 166.45 178.14 166.46 177.78 164.14 174.92 C 162.28 172.62 162.28 172.62 118.64 172.89 C 75.00 173.17 75.00 173.17 75.02 168.83 C 75.02 166.45 75.36 163.99 75.77 163.37 C 76.28 162.58 92.52 161.92 130.47 161.17 C 160.15 160.58 184.57 160.24 184.74 160.40 C 184.90 160.57 180.42 171.55 174.77 184.81 C 164.50 208.92 164.50 208.92 156.00 210.93 C 151.32 212.04 132.20 215.21 113.50 217.97 C 94.80 220.74 78.32 223.25 76.88 223.56 C 75.02 223.94 74.07 223.63 73.63 222.47 Z  M 69.56 103.75 C 69.36 103.06 68.42 96.65 67.48 89.50 C 66.54 82.35 65.31 75.93 64.75 75.23 C 63.92 74.20 67.22 74.01 81.61 74.23 C 99.50 74.50 99.50 74.50 104.55 89.17 C 110.53 106.55 112.27 105.00 86.84 105.00 C 74.18 105.00 69.84 104.69 69.56 103.75 Z  M 118.00 100.63 C 118.00 97.86 115.85 89.82 111.30 75.62 C 110.72 73.81 111.61 73.77 139.60 74.48 C 155.50 74.89 168.66 75.37 168.86 75.55 C 169.06 75.74 166.47 79.25 163.11 83.37 C 159.75 87.48 157.00 91.54 157.00 92.40 C 157.00 93.25 158.16 94.71 159.58 95.64 C 163.59 98.27 166.16 96.53 173.77 86.00 C 180.65 76.50 180.65 76.50 193.32 76.22 C 200.30 76.07 206.00 76.23 206.00 76.58 C 206.00 77.16 190.91 98.16 188.83 100.47 C 188.03 101.36 144.16 103.77 125.75 103.93 C 118.00 104.00 118.00 104.00 118.00 100.63 Z "/>
</g>
</svg>