<?xml version="1.0" encoding="UTF-8" standalone="no"?>
<!DOCTYPE svg PUBLIC "-//W3C//DTD SVG 1.1//EN" "http://www.w3.org/Graphics/SVG/1.1/DTD/svg11.dtd" >
<svg xmlns="http://www.w3.org/2000/svg" xmlns:xlink="http://www.w3.org/1999/xlink" version="1.1" viewBox="0 0 256 256">
 <g >
 <path fill="currentColor"
d=" M 230.37 232.93 C 235.74 228.70 232.34 224.35 221.12 221.07 C 217.48 220.01 184.80 211.61 148.50 202.41 C 112.20 193.20 82.10 185.33 81.61 184.90 C 80.73 184.13 82.12 155.55 83.08 154.59 C 83.35 154.32 91.33 152.71 100.82 151.00 C 110.31 149.30 118.69 147.67 119.43 147.39 C 121.05 146.77 121.91 143.00 121.24 139.50 C 120.63 136.26 118.66 136.26 100.55 139.50 C 92.88 140.88 86.19 142.00 85.68 142.00 C 84.78 142.00 85.13 123.54 86.05 122.62 C 86.30 122.37 94.45 120.35 104.16 118.13 C 123.47 113.72 129.40 111.71 128.77 109.76 C 128.35 108.47 116.48 104.99 112.00 104.85 C 108.75 104.74 14.48 124.67 12.04 125.98 C 11.01 126.53 9.98 127.54 9.74 128.24 C 8.97 130.47 11.18 135.12 13.42 135.97 C 14.91 136.54 24.28 134.81 43.54 130.41 C 58.92 126.90 72.28 124.02 73.22 124.02 C 74.55 124.00 74.85 124.64 74.51 126.75 C 74.26 128.26 73.32 141.43 72.41 156.00 C 71.51 170.57 70.66 182.62 70.53 182.76 C 70.23 183.12 48.97 178.17 46.78 177.24 C 45.26 176.59 46.05 174.26 53.46 157.78 C 63.37 135.71 63.79 134.03 59.93 131.96 C 58.32 131.10 57.33 131.21 55.43 132.45 C 53.09 133.99 45.80 147.37 40.97 159.00 C 39.71 162.03 33.10 176.58 26.28 191.35 C 19.47 206.12 14.02 219.17 14.19 220.35 C 14.56 222.94 17.97 223.67 21.96 222.02 C 25.13 220.70 24.89 221.13 33.03 202.50 C 36.39 194.80 39.45 188.21 39.82 187.85 C 40.19 187.49 81.90 197.93 132.50 211.04 C 183.10 224.15 225.23 234.90 226.12 234.94 C 227.00 234.97 228.92 234.07 230.37 232.93 Z  M 183.47 205.75 C 185.88 203.64 186.24 202.06 189.14 181.00 C 190.84 168.62 192.30 158.41 192.40 158.30 C 192.49 158.19 201.06 156.27 211.44 154.04 C 221.83 151.81 230.92 149.48 231.66 148.87 C 233.21 147.58 233.39 144.17 232.02 142.00 C 230.55 139.68 223.20 140.28 207.71 143.96 C 200.12 145.77 193.77 147.08 193.59 146.87 C 193.18 146.41 201.81 70.96 202.46 69.25 C 202.79 68.39 205.48 68.00 211.03 68.00 C 215.49 68.00 220.00 67.53 221.07 66.96 C 223.44 65.69 223.56 62.24 221.34 59.07 C 219.67 56.70 219.67 56.70 193.86 57.39 C 160.26 58.29 135.89 59.71 132.62 60.96 C 130.66 61.70 130.00 62.65 130.02 64.73 C 130.04 68.40 131.12 69.94 134.29 70.79 C 135.73 71.18 148.87 71.10 163.49 70.62 C 178.11 70.13 190.31 69.97 190.60 70.26 C 191.28 70.95 183.12 144.87 182.07 147.50 C 181.37 149.25 177.37 150.25 150.88 155.29 C 112.66 162.57 113.89 162.23 111.58 166.14 C 109.70 169.32 109.70 169.34 111.96 171.17 C 113.24 172.20 115.80 172.99 117.86 172.98 C 119.86 172.98 134.78 170.12 151.00 166.64 C 167.22 163.15 180.63 160.63 180.79 161.04 C 180.96 161.44 179.72 170.27 178.05 180.67 C 175.12 198.95 175.03 203.00 177.48 206.97 C 178.50 208.62 180.69 208.17 183.47 205.75 Z  M 72.60 108.23 C 75.03 106.62 75.83 102.58 78.08 80.64 C 79.78 64.11 80.80 57.63 81.77 57.26 C 82.51 56.97 90.63 57.17 99.81 57.69 C 117.45 58.70 122.50 58.14 123.47 55.08 C 124.21 52.77 122.26 48.33 120.11 47.43 C 119.23 47.06 110.24 46.52 100.14 46.24 C 81.79 45.73 81.79 45.73 82.45 41.61 C 84.26 30.26 84.25 29.58 82.05 27.25 C 79.32 24.36 75.65 24.36 73.77 27.25 C 72.97 28.49 72.03 32.62 71.68 36.43 C 71.33 40.24 70.69 43.64 70.27 43.99 C 69.85 44.34 64.33 44.30 58.00 43.90 C 30.59 42.16 27.00 42.74 27.00 48.95 C 27.00 54.04 28.59 54.46 50.07 55.00 C 60.94 55.27 70.03 55.73 70.26 56.00 C 70.49 56.27 69.20 67.21 67.39 80.31 C 63.76 106.51 63.88 109.01 68.73 108.98 C 70.25 108.98 72.00 108.64 72.60 108.23 Z "/>
</g>
</svg>