<?xml version="1.0" encoding="UTF-8" standalone="no"?>
<!DOCTYPE svg PUBLIC "-//W3C//DTD SVG 1.1//EN" "http://www.w3.org/Graphics/SVG/1.1/DTD/svg11.dtd" >
<svg xmlns="http://www.w3.org/2000/svg" xmlns:xlink="http://www.w3.org/1999/xlink" version="1.1" viewBox="0 0 256 256">
 <g >
 <path fill="currentColor"
d=" M 84.48 229.62 C 85.98 228.00 89.07 226.69 94.10 225.55 C 108.36 222.30 174.49 212.24 178.52 212.70 C 181.69 213.07 182.94 212.73 184.41 211.10 C 185.55 209.84 188.87 199.27 193.00 183.77 C 204.45 140.80 204.53 140.42 203.47 137.42 C 201.54 132.01 199.34 131.36 168.00 126.92 C 151.78 124.62 138.11 122.38 137.64 121.96 C 137.17 121.53 138.70 112.14 141.06 101.09 C 145.33 81.00 145.33 81.00 181.73 81.00 C 204.91 81.00 218.83 80.62 220.07 79.96 C 222.42 78.71 222.73 72.85 220.54 71.03 C 219.49 70.16 209.15 69.66 183.46 69.26 C 147.91 68.69 147.85 68.69 148.44 66.59 C 150.42 59.68 157.05 25.20 156.80 23.15 C 156.39 19.78 151.88 16.56 148.69 17.36 C 146.01 18.04 144.00 22.20 144.00 27.07 C 144.00 28.60 142.20 37.42 140.00 46.67 C 137.80 55.93 135.80 64.40 135.55 65.50 C 135.09 67.48 134.38 67.50 76.19 67.22 C 20.01 66.95 17.19 67.03 15.00 68.80 C 13.22 70.24 12.85 71.26 13.37 73.32 C 14.82 79.12 13.62 79.00 75.87 79.69 C 115.93 80.14 133.01 80.65 133.02 81.41 C 133.03 82.01 131.14 91.16 128.83 101.75 C 125.84 115.38 124.22 121.00 123.24 121.00 C 121.43 121.00 79.16 115.12 76.25 114.47 C 75.01 114.19 74.00 113.36 74.00 112.62 C 74.00 111.88 73.07 110.08 71.93 108.63 C 69.41 105.43 65.78 105.22 62.90 108.10 C 60.53 110.47 60.53 110.39 63.87 130.00 C 65.05 136.93 67.33 160.90 69.00 183.81 C 70.65 206.54 72.45 225.97 73.01 227.01 C 74.35 229.53 77.99 232.00 80.36 232.00 C 81.41 232.00 83.27 230.93 84.48 229.62 Z  M 84.56 212.79 C 83.76 209.11 75.82 128.01 76.18 127.16 C 76.57 126.21 185.61 140.53 188.75 141.94 C 189.99 142.50 191.00 143.63 191.00 144.46 C 191.00 146.64 175.00 199.34 174.04 200.33 C 173.60 200.79 154.84 204.03 132.37 207.54 C 109.89 211.04 90.05 214.17 88.28 214.49 C 85.50 215.00 84.99 214.76 84.56 212.79 Z "/>
</g>
</svg>