<?xml version="1.0" encoding="UTF-8" standalone="no"?>
<!DOCTYPE svg PUBLIC "-//W3C//DTD SVG 1.1//EN" "http://www.w3.org/Graphics/SVG/1.1/DTD/svg11.dtd" >
<svg xmlns="http://www.w3.org/2000/svg" xmlns:xlink="http://www.w3.org/1999/xlink" version="1.1" viewBox="0 0 256 256">
 <g >
 <path fill="currentColor"
d=" M 55.02 227.40 C 59.68 222.68 68.00 214.96 73.50 210.25 C 94.64 192.15 99.75 186.16 97.23 182.40 C 96.50 181.30 92.65 179.00 91.55 179.00 C 91.24 179.00 82.62 186.91 72.40 196.58 C 62.19 206.25 53.62 213.96 53.37 213.71 C 52.92 213.25 56.60 166.51 57.58 160.27 C 58.08 157.03 58.08 157.03 75.29 151.57 C 84.76 148.57 94.40 145.62 96.73 145.02 C 101.88 143.70 103.38 141.39 101.88 137.10 C 101.04 134.67 100.22 134.00 98.12 134.00 C 96.65 134.00 87.38 136.69 77.54 139.99 C 67.69 143.28 59.45 145.78 59.22 145.55 C 58.99 145.32 59.27 141.39 59.86 136.81 C 61.16 126.56 61.62 110.21 60.68 107.44 C 59.99 105.38 59.99 105.38 77.24 107.72 C 86.73 109.00 95.46 109.82 96.63 109.54 C 97.80 109.25 99.01 108.07 99.31 106.90 C 99.91 104.64 98.56 100.03 97.27 99.95 C 96.85 99.92 83.30 98.01 67.17 95.70 C 37.85 91.50 37.85 91.50 48.83 77.48 C 59.81 63.47 59.81 63.47 80.44 60.52 C 91.79 58.90 101.56 57.27 102.16 56.90 C 102.76 56.53 103.31 54.49 103.38 52.36 C 103.50 48.50 103.50 48.50 98.50 48.18 C 95.75 48.01 88.19 48.62 81.70 49.55 C 75.20 50.47 69.66 50.99 69.37 50.71 C 69.09 50.42 72.92 45.04 77.90 38.74 C 87.99 25.96 89.42 23.23 87.99 19.47 C 86.79 16.31 84.57 15.42 81.46 16.84 C 79.36 17.79 64.07 37.78 22.59 93.81 C 13.41 106.21 12.80 107.32 13.63 110.19 C 14.16 112.05 15.47 113.63 16.91 114.16 C 19.04 114.95 20.01 114.30 25.53 108.35 C 31.76 101.65 31.76 101.65 42.00 102.95 C 52.24 104.26 52.24 104.26 51.64 112.88 C 51.30 117.62 50.74 126.82 50.38 133.31 C 49.89 142.01 49.30 145.61 48.11 146.99 C 47.16 148.08 39.23 151.15 28.86 154.43 C 10.92 160.10 10.00 160.64 10.00 165.55 C 10.00 171.09 14.92 170.68 38.71 163.16 C 47.93 160.25 47.93 160.25 47.45 164.38 C 47.19 166.64 46.29 175.47 45.45 184.00 C 44.61 192.53 42.81 206.93 41.45 216.00 C 38.97 232.50 38.97 232.50 41.10 234.25 C 42.27 235.21 43.97 236.00 44.88 236.00 C 45.80 236.00 50.36 232.13 55.02 227.40 Z  M 157.50 220.94 C 233.75 216.48 232.09 216.70 232.82 210.66 C 233.40 205.80 231.25 205.60 197.95 207.40 C 181.32 208.31 167.64 208.92 167.55 208.77 C 167.46 208.62 168.25 202.15 169.30 194.39 C 171.21 180.28 171.21 180.28 190.31 179.57 C 200.82 179.17 210.22 178.42 211.20 177.90 C 212.17 177.37 213.27 175.75 213.64 174.30 C 214.16 172.24 213.78 171.24 211.92 169.73 C 209.85 168.05 208.48 167.88 201.52 168.39 C 170.77 170.63 173.21 171.64 174.79 157.37 C 175.57 150.29 176.28 144.44 176.36 144.36 C 176.44 144.29 182.92 143.74 190.76 143.14 C 198.61 142.55 205.92 141.58 207.01 140.99 C 209.58 139.62 209.56 135.82 206.99 133.49 C 205.06 131.75 204.43 131.74 191.24 133.35 C 183.68 134.27 177.25 135.02 176.94 135.01 C 176.30 135.00 178.93 108.76 179.65 108.03 C 180.06 107.61 212.15 111.88 212.75 112.43 C 212.89 112.56 211.55 116.74 209.78 121.71 C 206.98 129.55 206.74 130.98 207.94 132.43 C 209.85 134.73 213.91 134.03 216.15 131.00 C 218.61 127.68 240.00 70.77 240.00 67.55 C 240.00 66.01 239.08 64.44 237.59 63.46 C 234.62 61.52 120.43 35.00 115.03 35.00 C 111.26 35.00 108.17 36.86 107.85 39.32 C 107.53 41.79 107.33 50.96 106.56 99.00 C 105.79 146.64 105.83 148.56 107.63 150.11 C 110.42 152.51 113.73 153.01 119.40 151.87 C 125.33 150.67 164.33 146.12 164.84 146.56 C 165.46 147.09 162.78 169.48 162.00 170.33 C 161.58 170.79 149.14 171.82 134.37 172.63 C 119.59 173.43 106.49 174.51 105.25 175.02 C 103.65 175.69 103.00 176.79 103.00 178.86 C 103.00 184.31 103.47 184.38 133.22 183.17 C 148.17 182.57 160.59 182.25 160.81 182.47 C 161.38 183.05 157.85 208.35 157.07 209.24 C 156.71 209.65 139.79 210.92 119.46 212.08 C 79.29 214.35 79.00 214.41 79.00 220.19 C 79.00 223.15 81.21 224.78 85.50 224.96 C 86.60 225.00 119.00 223.20 157.50 220.94 Z  M 116.50 121.75 C 116.90 110.61 117.37 101.26 117.54 100.97 C 117.84 100.45 169.15 104.96 169.84 105.56 C 170.03 105.72 169.61 112.46 168.89 120.54 C 167.73 133.76 167.39 135.31 165.55 136.06 C 163.93 136.72 120.10 142.05 116.63 142.01 C 116.15 142.00 116.09 133.05 116.50 121.75 Z  M 196.00 100.10 C 181.95 97.68 180.52 97.25 180.72 95.47 C 181.81 85.87 185.23 61.44 185.53 61.14 C 186.15 60.52 229.04 71.40 228.76 72.11 C 216.08 104.09 216.61 103.00 214.00 102.88 C 212.62 102.82 204.53 101.57 196.00 100.10 Z  M 140.14 92.19 C 116.78 89.60 116.78 89.60 117.50 68.55 C 117.90 56.97 118.39 47.32 118.58 47.11 C 118.78 46.90 131.78 49.37 147.47 52.61 C 173.45 57.97 176.00 58.68 175.96 60.50 C 175.93 61.60 174.91 69.70 173.69 78.50 C 171.05 97.48 174.66 96.01 140.14 92.19 Z "/>
</g>
</svg>