<?xml version="1.0" encoding="UTF-8" standalone="no"?>
<!DOCTYPE svg PUBLIC "-//W3C//DTD SVG 1.1//EN" "http://www.w3.org/Graphics/SVG/1.1/DTD/svg11.dtd" >
<svg xmlns="http://www.w3.org/2000/svg" xmlns:xlink="http://www.w3.org/1999/xlink" version="1.1" viewBox="0 0 256 256">
 <g >
 <path fill="currentColor"
d=" M 87.47 212.36 C 95.74 203.79 103.06 195.48 103.74 193.91 C 104.84 191.38 104.74 190.84 102.80 189.03 C 101.60 187.91 100.02 187.00 99.29 187.00 C 98.55 187.00 92.03 192.63 84.79 199.51 C 77.55 206.40 71.33 211.68 70.97 211.26 C 70.23 210.41 66.61 172.06 67.21 171.46 C 67.42 171.25 72.75 171.50 79.05 172.02 C 101.71 173.89 105.94 173.08 104.53 167.11 C 103.35 162.09 100.75 161.01 89.64 160.89 C 84.06 160.83 76.84 160.49 73.58 160.14 C 67.66 159.50 67.66 159.50 65.39 148.00 C 64.14 141.68 63.09 134.78 63.06 132.68 C 63.03 130.59 62.56 128.05 62.03 127.05 C 61.12 125.36 61.90 125.19 73.78 124.59 C 92.17 123.65 95.88 123.09 96.96 121.07 C 98.41 118.36 96.99 114.90 93.90 113.60 C 90.97 112.37 90.37 112.40 62.50 115.48 C 54.80 116.33 46.25 117.03 43.50 117.03 C 34.64 117.03 31.10 120.45 34.53 125.69 C 36.18 128.21 36.44 128.26 44.04 127.68 C 51.85 127.07 51.85 127.07 52.48 133.79 C 52.82 137.48 53.70 144.55 54.43 149.50 C 55.16 154.45 55.64 158.63 55.50 158.80 C 55.35 158.96 50.34 159.34 44.37 159.64 C 33.24 160.19 27.07 161.44 25.77 163.39 C 25.36 164.00 25.02 165.52 25.02 166.77 C 24.99 170.46 28.90 171.29 43.25 170.64 C 53.95 170.16 56.00 170.30 56.00 171.51 C 56.00 173.63 59.88 214.80 60.53 219.65 C 60.86 222.10 62.12 224.92 63.60 226.52 C 68.10 231.37 70.55 229.93 87.47 212.36 Z  M 110.00 219.09 C 113.58 218.54 141.70 214.65 172.50 210.47 C 220.19 203.98 228.79 202.56 230.49 200.91 C 232.86 198.60 231.86 196.26 227.61 194.17 C 225.32 193.05 222.05 193.16 206.23 194.87 C 195.96 195.98 187.38 196.71 187.15 196.49 C 186.93 196.26 188.53 193.92 190.71 191.29 C 196.92 183.78 203.00 174.30 203.00 172.13 C 203.00 170.12 200.57 167.00 199.01 167.00 C 196.31 167.00 180.26 186.80 175.50 196.00 C 174.61 197.72 172.95 199.06 171.27 199.40 C 165.64 200.57 136.69 205.02 136.46 204.77 C 136.33 204.62 133.18 200.00 129.47 194.50 C 125.76 189.00 121.57 182.80 120.16 180.72 C 117.10 176.19 113.73 175.03 110.96 177.54 C 109.88 178.51 109.00 180.09 109.00 181.03 C 109.00 181.98 112.38 187.73 116.50 193.80 C 120.62 199.88 124.00 205.08 124.00 205.36 C 124.00 205.65 121.86 206.18 119.25 206.55 C 109.05 207.99 100.51 210.13 98.80 211.68 C 96.74 213.55 96.35 219.59 98.25 220.31 C 98.94 220.58 100.40 220.64 101.50 220.45 C 102.60 220.26 106.42 219.65 110.00 219.09 Z  M 137.77 178.57 C 140.77 177.04 153.65 173.70 173.00 169.45 C 189.78 165.77 204.14 162.16 204.93 161.42 C 206.04 160.37 206.11 159.54 205.27 157.69 C 204.32 155.62 205.32 152.78 212.73 136.49 C 222.13 115.81 222.23 114.98 215.39 113.86 C 210.49 113.06 143.09 111.39 133.00 111.82 C 125.50 112.14 125.50 112.14 130.97 106.57 C 136.43 101.00 136.43 101.00 143.47 101.02 C 153.05 101.04 202.32 94.90 203.23 93.57 C 203.64 92.98 203.98 91.32 203.98 89.87 C 204.02 84.57 203.26 84.52 173.53 87.98 C 158.40 89.74 145.61 91.02 145.11 90.84 C 144.61 90.65 151.36 82.20 160.10 72.05 C 170.31 60.20 176.00 52.81 176.00 51.38 C 176.00 49.95 174.83 48.44 172.69 47.11 C 168.92 44.79 143.39 35.62 137.85 34.61 C 133.21 33.77 130.76 35.88 131.20 40.38 C 131.50 43.46 131.70 43.57 146.00 48.40 C 153.97 51.09 160.65 53.42 160.84 53.57 C 161.03 53.72 157.46 58.67 152.91 64.56 C 143.44 76.83 145.40 76.94 136.24 63.64 C 130.82 55.77 129.04 54.75 125.83 57.65 C 122.58 60.59 123.56 64.86 129.50 73.73 C 132.53 78.25 135.00 82.21 135.00 82.54 C 135.00 82.86 128.53 90.90 120.62 100.41 C 103.52 120.96 103.12 121.59 105.65 124.02 C 109.68 127.88 111.75 127.54 117.21 122.07 C 120.02 119.27 122.40 117.09 122.50 117.24 C 122.61 117.38 123.69 129.43 124.91 144.00 C 126.12 158.57 127.61 172.86 128.22 175.75 C 129.51 181.92 130.61 182.24 137.77 178.57 Z  M 30.70 104.63 C 35.20 96.62 56.96 61.87 58.60 60.10 C 58.80 59.88 67.12 63.37 77.09 67.85 C 87.05 72.33 95.99 76.00 96.95 76.00 C 98.92 76.00 101.72 73.25 102.03 71.00 C 102.62 66.72 101.83 66.17 84.00 58.50 C 74.10 54.24 66.00 50.60 66.00 50.41 C 66.00 50.21 68.70 45.94 72.00 40.92 C 75.30 35.89 78.00 31.41 78.00 30.96 C 78.00 29.16 74.69 27.00 71.93 27.00 C 68.37 27.00 66.62 28.67 60.26 38.16 C 49.39 54.37 15.00 109.95 15.00 111.31 C 15.00 114.01 19.45 116.09 23.26 115.18 C 24.24 114.95 27.54 110.27 30.70 104.63 Z  M 235.78 102.44 C 237.00 101.59 238.00 100.05 238.00 99.02 C 238.00 97.99 234.18 92.53 229.50 86.89 C 221.00 76.62 221.00 76.62 224.75 73.59 C 232.36 67.45 239.94 59.43 240.53 56.89 C 240.94 55.16 240.60 53.74 239.50 52.64 C 236.22 49.36 233.83 50.59 224.81 60.22 C 216.49 69.10 216.05 69.41 214.66 67.50 C 213.86 66.40 211.62 63.50 209.68 61.06 C 206.15 56.62 206.15 56.62 211.10 51.20 C 217.17 44.56 222.00 37.66 222.00 35.63 C 222.00 34.79 221.03 33.43 219.85 32.60 C 216.84 30.50 214.87 31.69 206.42 40.77 C 199.34 48.38 199.34 48.38 195.55 44.19 C 191.08 39.24 187.58 38.64 185.81 42.52 C 184.91 44.50 184.96 45.68 186.08 47.98 C 186.86 49.59 196.86 62.86 208.30 77.46 C 230.23 105.44 230.78 105.94 235.78 102.44 Z  M 136.00 144.49 C 135.28 132.11 134.87 121.83 135.09 121.65 C 135.53 121.30 206.32 123.09 206.76 123.47 C 206.98 123.65 194.14 152.81 193.38 153.86 C 193.14 154.19 139.27 166.93 137.91 166.98 C 137.58 166.99 136.72 156.87 136.00 144.49 Z "/>
</g>
</svg>