<?xml version="1.0" encoding="UTF-8" standalone="no"?>
<!DOCTYPE svg PUBLIC "-//W3C//DTD SVG 1.1//EN" "http://www.w3.org/Graphics/SVG/1.1/DTD/svg11.dtd" >
<svg xmlns="http://www.w3.org/2000/svg" xmlns:xlink="http://www.w3.org/1999/xlink" version="1.1" viewBox="0 0 256 256">
 <g >
 <path fill="currentColor"
d=" M 176.04 218.17 C 179.67 215.23 178.00 212.31 166.62 201.73 C 158.20 193.90 155.57 192.00 153.15 192.00 C 150.15 192.00 147.00 194.17 147.00 196.22 C 147.00 196.82 152.04 202.41 158.19 208.65 C 169.98 220.60 171.82 221.58 176.04 218.17 Z  M 207.33 215.19 C 208.24 214.19 209.42 212.05 209.96 210.44 C 211.17 206.83 223.37 52.40 222.60 50.40 C 221.17 46.68 219.17 46.53 142.94 44.44 C 127.78 44.03 114.14 44.00 112.63 44.38 C 110.13 45.01 109.91 45.42 110.19 49.18 C 110.43 52.34 111.16 53.79 113.32 55.40 C 116.08 57.45 117.20 57.51 163.57 57.80 C 189.66 57.97 211.00 58.42 211.01 58.80 C 211.04 60.80 199.85 195.97 199.44 198.64 C 198.95 201.79 198.95 201.79 192.40 197.39 C 185.04 192.46 180.75 191.73 178.95 195.09 C 176.95 198.83 178.72 201.71 186.57 207.52 C 200.22 217.61 203.90 218.97 207.33 215.19 Z  M 61.96 213.55 C 62.89 212.42 62.82 209.96 61.65 202.30 C 60.82 196.91 59.62 188.22 58.98 183.00 C 56.82 165.16 51.96 135.51 50.54 131.50 C 49.77 129.30 47.90 116.25 46.40 102.50 C 43.97 80.30 43.43 77.30 41.58 75.74 C 37.09 71.96 28.89 75.39 31.69 79.88 C 32.34 80.92 33.83 90.26 35.01 100.64 C 36.99 118.24 49.03 198.61 51.01 207.50 C 52.41 213.81 58.81 217.34 61.96 213.55 Z  M 116.58 177.50 C 120.47 162.10 124.20 148.49 124.86 147.25 C 126.39 144.40 124.87 141.20 121.72 140.60 C 120.50 140.37 115.00 139.45 109.50 138.55 C 104.01 137.65 99.15 136.55 98.71 136.11 C 98.27 135.67 99.40 131.30 101.23 126.40 C 104.55 117.50 104.55 117.50 119.89 116.80 C 135.96 116.07 139.00 115.14 139.00 110.97 C 139.00 107.30 136.22 106.48 124.84 106.82 C 114.00 107.14 114.00 107.14 114.00 103.54 C 114.00 100.33 112.66 98.50 101.31 86.23 C 88.24 72.08 83.98 69.11 80.66 71.87 C 77.12 74.80 77.94 76.95 85.97 85.84 C 90.27 90.60 96.32 96.97 99.41 99.98 C 104.14 104.59 104.75 105.57 103.27 106.16 C 102.29 106.55 94.25 106.89 85.40 106.93 C 76.54 106.97 67.92 107.48 66.24 108.07 C 61.23 109.81 60.78 116.40 65.59 117.61 C 66.89 117.94 73.59 118.05 80.48 117.85 C 87.37 117.66 93.00 117.87 93.00 118.33 C 93.00 119.70 68.99 186.05 66.21 192.35 C 63.17 199.27 63.84 201.34 69.29 201.81 C 72.13 202.05 73.19 201.63 74.39 199.81 C 75.22 198.54 79.77 186.52 84.49 173.09 C 89.21 159.67 93.27 148.37 93.51 147.98 C 93.96 147.25 110.99 149.65 111.90 150.57 C 112.18 150.85 110.20 160.06 107.49 171.04 C 102.57 191.00 102.57 191.00 98.00 186.50 C 92.85 181.42 88.85 180.55 86.95 184.09 C 85.09 187.58 86.57 190.24 94.92 198.36 C 102.03 205.28 103.27 206.10 106.20 205.82 C 109.50 205.50 109.50 205.50 116.58 177.50 Z  M 179.17 172.35 C 180.18 171.43 181.00 169.82 181.00 168.75 C 181.00 167.69 177.29 160.95 172.75 153.78 C 164.22 140.29 161.51 137.80 156.45 138.77 C 151.62 139.69 151.94 141.08 160.17 155.00 C 171.24 173.72 174.43 176.64 179.17 172.35 Z  M 133.94 138.03 C 134.93 137.50 141.27 131.09 148.03 123.78 C 154.78 116.48 160.80 110.39 161.40 110.25 C 162.01 110.12 169.69 114.51 178.47 120.00 C 187.25 125.50 195.31 130.00 196.39 130.00 C 198.86 130.00 202.00 127.21 202.00 125.02 C 202.00 122.57 198.97 120.15 184.50 111.00 C 177.35 106.49 171.11 102.42 170.62 101.97 C 170.14 101.51 173.38 97.09 177.87 92.08 C 183.92 85.34 186.00 82.31 185.98 80.26 C 185.97 76.75 185.09 75.45 182.12 74.53 C 179.53 73.72 179.89 73.37 156.21 99.00 C 150.36 105.33 141.17 115.05 135.79 120.61 C 125.59 131.14 124.39 133.57 127.65 137.17 C 129.51 139.22 131.27 139.46 133.94 138.03 Z  M 90.09 57.91 C 92.63 55.37 92.43 54.35 86.40 40.12 C 81.47 28.45 79.40 26.00 74.51 26.00 C 68.21 26.00 68.28 27.54 75.24 43.18 C 79.92 53.70 82.25 57.82 84.05 58.73 C 87.32 60.38 87.66 60.34 90.09 57.91 Z "/>
</g>
</svg>