<?xml version="1.0" encoding="UTF-8" standalone="no"?>
<!DOCTYPE svg PUBLIC "-//W3C//DTD SVG 1.1//EN" "http://www.w3.org/Graphics/SVG/1.1/DTD/svg11.dtd" >
<svg xmlns="http://www.w3.org/2000/svg" xmlns:xlink="http://www.w3.org/1999/xlink" version="1.1" viewBox="0 0 256 256">
 <g >
 <path fill="currentColor"
d=" M 62.30 229.76 C 62.56 229.07 62.53 209.77 62.23 186.88 C 61.69 145.27 61.69 145.27 77.09 141.62 C 94.35 137.54 95.00 137.46 95.00 139.34 C 95.00 141.12 89.10 170.24 88.65 170.69 C 88.45 170.88 87.05 169.24 85.53 167.05 C 84.01 164.86 81.90 162.79 80.84 162.45 C 78.63 161.75 74.00 164.39 74.00 166.35 C 74.00 168.17 85.30 183.39 88.12 185.37 C 91.22 187.54 94.70 187.43 95.93 185.13 C 96.48 184.09 99.15 173.18 101.85 160.87 C 104.56 148.55 107.47 136.82 108.32 134.79 C 109.77 131.32 109.74 130.94 107.86 128.55 C 105.14 125.09 103.33 125.22 81.45 130.50 C 71.18 132.97 62.61 135.00 62.39 135.00 C 62.18 135.00 62.00 126.00 62.00 115.00 C 62.00 95.00 62.00 95.00 75.48 95.00 C 88.75 95.00 88.98 94.96 90.59 92.50 C 92.09 90.21 92.10 89.80 90.64 87.57 C 88.79 84.74 86.39 84.23 79.50 85.17 C 76.75 85.55 71.69 85.89 68.25 85.93 C 62.00 86.00 62.00 86.00 62.00 78.64 C 62.00 74.59 62.29 69.15 62.65 66.54 C 63.30 61.80 63.30 61.80 81.90 62.59 C 102.80 63.48 107.43 63.37 110.13 61.93 C 112.57 60.62 112.51 57.51 110.00 55.00 C 108.12 53.12 106.67 53.00 85.02 53.00 C 58.35 53.00 60.24 54.08 61.36 39.42 C 61.99 31.25 61.95 31.03 59.26 28.54 C 53.70 23.39 52.11 25.68 51.21 40.15 C 50.50 51.50 50.50 51.50 37.07 51.78 C 29.25 51.94 23.08 52.52 22.32 53.15 C 21.59 53.75 21.00 55.30 21.00 56.60 C 21.00 60.74 25.30 62.00 39.45 62.00 C 52.00 62.00 52.00 62.00 52.00 73.88 C 52.00 85.75 52.00 85.75 48.88 86.37 C 47.16 86.72 43.32 87.00 40.34 87.00 C 33.07 87.00 28.00 89.16 28.00 92.25 C 28.00 96.36 29.72 97.00 40.70 97.00 C 51.00 97.00 51.00 97.00 51.22 111.50 C 51.67 141.85 53.73 137.83 35.38 142.44 C 26.52 144.67 18.51 147.14 17.58 147.91 C 15.48 149.68 15.81 155.87 18.08 157.29 C 19.56 158.21 27.17 156.39 46.25 150.55 C 51.00 149.10 51.00 149.10 51.02 156.80 C 51.05 170.98 53.02 227.48 53.53 229.11 C 54.69 232.74 61.01 233.21 62.30 229.76 Z  M 168.40 209.12 C 235.85 194.55 235.00 194.80 235.00 189.29 C 235.00 185.87 231.24 184.44 225.84 185.81 C 223.49 186.41 221.48 186.81 221.38 186.70 C 221.28 186.59 223.39 175.93 226.07 163.00 C 228.75 150.07 230.95 137.83 230.97 135.79 C 231.03 128.83 232.80 128.98 166.86 130.34 C 126.21 131.17 126.21 131.17 125.49 125.84 C 124.66 119.73 121.84 113.54 119.47 112.63 C 118.58 112.29 116.99 112.47 115.93 113.04 C 113.21 114.50 113.36 119.58 117.49 164.00 C 119.41 184.62 120.99 202.93 120.99 204.68 C 121.00 207.70 120.71 207.94 115.25 209.46 C 103.48 212.75 99.52 214.59 99.17 216.94 C 98.83 219.25 101.49 223.03 103.40 222.96 C 104.01 222.94 133.25 216.71 168.40 209.12 Z  M 137.39 102.86 C 137.32 97.93 135.53 84.74 133.03 70.69 C 130.69 57.60 129.03 46.64 129.34 46.33 C 130.03 45.63 215.26 51.11 216.17 51.91 C 216.54 52.23 212.94 62.73 208.17 75.23 C 199.50 97.97 199.50 97.97 177.50 97.99 C 149.65 98.02 145.56 98.47 144.12 101.64 C 143.22 103.61 143.38 104.38 145.01 106.01 C 146.88 107.88 148.39 108.00 170.93 108.00 C 194.87 108.00 194.87 108.00 195.18 110.75 C 195.46 113.11 196.01 113.54 199.09 113.80 C 201.34 113.99 203.13 113.55 203.90 112.62 C 206.48 109.52 229.00 51.91 229.00 48.42 C 229.00 45.37 228.55 44.71 225.65 43.50 C 223.47 42.59 206.83 40.98 177.66 38.87 C 133.02 35.63 133.02 35.63 130.51 37.99 C 128.00 40.35 128.00 40.35 125.54 38.04 C 123.34 35.97 122.76 35.85 120.11 36.95 C 118.48 37.63 116.93 38.74 116.67 39.41 C 116.41 40.09 119.06 56.36 122.56 75.57 C 128.09 105.93 129.20 110.73 131.10 112.28 C 133.02 113.84 133.54 113.88 135.39 112.64 C 137.27 111.37 137.49 110.32 137.39 102.86 Z  M 163.87 78.44 C 197.15 69.01 196.89 69.10 198.58 66.52 C 200.61 63.41 199.00 60.00 195.50 60.00 C 192.77 60.00 144.84 73.20 140.67 75.10 C 136.21 77.14 137.48 84.00 142.32 84.00 C 143.37 84.00 153.07 81.50 163.87 78.44 Z  M 129.68 175.25 C 128.18 158.89 126.96 144.47 126.98 143.21 C 127.00 140.97 127.18 140.93 136.75 141.21 C 146.50 141.50 146.50 141.50 148.15 160.27 C 149.11 171.24 150.30 179.66 151.02 180.52 C 152.69 182.54 154.35 182.38 156.51 179.98 C 158.72 177.54 158.86 172.68 157.21 154.63 C 156.56 147.55 156.25 141.40 156.52 140.97 C 156.96 140.25 183.99 140.83 184.85 141.57 C 185.25 141.91 181.76 158.71 178.86 170.35 C 177.07 177.55 177.04 178.41 178.48 180.60 C 180.18 183.21 184.08 183.81 185.80 181.74 C 186.37 181.05 187.08 179.37 187.37 177.99 C 187.67 176.62 189.79 167.51 192.09 157.75 C 196.27 140.00 196.27 140.00 207.64 140.00 C 213.89 140.00 218.99 140.34 218.98 140.75 C 218.90 143.72 211.19 189.14 210.68 189.65 C 210.25 190.08 135.35 204.77 132.45 205.00 C 132.43 205.00 131.18 191.61 129.68 175.25 Z "/>
</g>
</svg>