<?xml version="1.0" encoding="UTF-8" standalone="no"?>
<!DOCTYPE svg PUBLIC "-//W3C//DTD SVG 1.1//EN" "http://www.w3.org/Graphics/SVG/1.1/DTD/svg11.dtd" >
<svg xmlns="http://www.w3.org/2000/svg" xmlns:xlink="http://www.w3.org/1999/xlink" version="1.1" viewBox="0 0 256 256">
 <g >
 <path fill="currentColor"
d=" M 204.36 226.41 C 211.31 225.10 213.95 224.11 216.56 221.81 C 221.18 217.76 224.10 209.53 224.75 198.78 C 225.62 184.26 222.51 172.89 215.54 165.18 C 212.21 161.49 211.17 160.99 204.43 159.86 C 200.34 159.17 197.01 158.36 197.02 158.05 C 197.02 157.75 201.12 155.73 206.11 153.57 C 211.11 151.42 215.45 149.00 215.75 148.21 C 216.74 145.64 214.57 141.57 211.68 140.55 C 209.45 139.77 207.30 140.14 201.09 142.34 C 190.72 146.03 183.66 146.72 178.49 144.55 C 173.16 142.31 174.07 141.91 193.36 137.90 C 207.18 135.02 209.36 134.31 210.25 132.34 C 211.56 129.47 209.51 124.13 206.71 123.09 C 204.39 122.23 194.56 123.97 181.30 127.58 C 176.09 129.00 171.60 129.93 171.32 129.66 C 170.34 128.67 172.11 125.16 174.34 123.70 C 176.53 122.26 197.28 119.88 220.31 118.42 C 229.76 117.83 230.16 117.71 231.15 115.15 C 232.52 111.61 231.66 103.23 229.73 101.30 C 228.57 100.14 226.26 99.79 220.59 99.90 C 216.41 99.98 213.00 99.82 213.00 99.54 C 213.00 99.27 214.78 98.13 216.97 97.02 C 222.25 94.32 223.44 91.99 221.68 87.77 C 218.71 80.67 214.66 79.78 205.72 84.28 C 202.03 86.14 199.00 87.57 199.00 87.45 C 199.00 87.34 199.74 85.50 200.63 83.37 C 203.24 77.19 202.81 67.59 199.62 60.85 C 198.15 57.75 196.22 54.60 195.33 53.85 C 194.21 52.92 189.43 52.34 180.10 52.00 C 166.50 51.50 166.50 51.50 166.19 47.74 C 165.78 42.79 161.77 40.48 155.15 41.39 C 148.81 42.26 146.14 44.29 145.42 48.78 C 144.82 52.53 144.82 52.53 130.16 54.31 C 112.90 56.41 109.45 57.80 106.00 64.00 C 101.41 72.26 103.25 89.13 109.67 97.74 C 113.38 102.71 114.97 103.20 122.19 101.58 C 125.66 100.80 131.76 99.86 135.75 99.48 C 143.00 98.80 143.00 98.80 143.00 103.40 C 143.00 107.74 142.85 108.00 140.25 108.04 C 138.74 108.06 129.53 109.53 119.78 111.29 C 100.07 114.86 98.00 115.83 98.00 121.54 C 98.00 125.33 100.22 130.57 102.09 131.20 C 102.71 131.40 108.23 130.80 114.36 129.84 C 120.49 128.89 126.85 128.10 128.50 128.09 C 131.50 128.06 131.50 128.06 127.50 130.57 C 125.30 131.95 119.74 135.20 115.14 137.79 C 103.97 144.08 101.65 146.46 102.37 150.87 C 103.23 156.22 109.78 162.00 114.98 162.00 C 116.12 162.00 120.53 159.37 124.78 156.15 C 133.06 149.88 143.54 143.00 144.82 143.00 C 145.25 143.00 146.18 144.60 146.88 146.55 C 147.59 148.50 149.70 151.63 151.57 153.50 C 153.44 155.37 154.64 157.09 154.23 157.33 C 153.83 157.56 150.35 158.07 146.50 158.45 C 126.58 160.43 121.74 162.88 117.85 172.93 C 114.89 180.60 114.06 200.24 116.36 208.16 C 120.36 221.93 126.53 225.73 148.63 228.05 C 160.86 229.32 194.11 228.35 204.36 226.41 Z  M 84.23 182.04 C 95.04 177.95 97.52 171.36 97.45 147.00 C 97.39 129.03 95.95 119.93 91.66 110.56 C 87.05 100.49 78.45 96.90 59.00 96.91 C 41.93 96.93 30.88 100.46 27.51 106.97 C 20.78 119.99 17.97 155.59 22.48 170.67 C 24.50 177.42 28.03 180.32 36.68 182.35 C 47.43 184.86 47.69 184.88 63.50 184.54 C 75.93 184.27 79.48 183.84 84.23 182.04 Z  M 149.53 210.95 C 143.09 209.94 139.59 207.42 138.51 203.00 C 137.91 200.50 137.91 200.50 163.63 200.81 C 177.78 200.99 190.34 200.88 191.55 200.58 C 194.20 199.91 196.46 194.96 195.63 191.65 C 195.30 190.33 194.20 188.24 193.20 187.00 C 191.39 184.77 191.18 184.75 166.44 184.89 C 151.39 184.98 140.90 184.64 140.00 184.04 C 138.67 183.16 138.67 182.74 140.04 180.28 C 142.28 176.22 145.36 175.16 158.82 173.81 C 173.58 172.34 193.35 173.69 197.57 176.45 C 203.11 180.09 206.38 193.09 203.59 200.39 C 201.38 206.20 198.54 208.55 192.00 210.00 C 185.00 211.56 157.37 212.17 149.53 210.95 Z  M 168.00 99.97 C 168.00 97.53 168.53 95.73 169.33 95.43 C 170.07 95.14 174.45 95.05 179.08 95.21 C 187.50 95.50 187.50 95.50 179.80 99.75 C 169.78 105.27 168.00 105.31 168.00 99.97 Z  M 52.01 154.11 C 48.32 153.08 47.03 149.49 47.01 140.19 C 47.00 129.92 48.53 123.52 51.58 121.12 C 54.75 118.62 61.85 117.80 67.15 119.31 C 73.14 121.01 75.14 125.23 75.74 137.38 C 76.29 148.41 75.27 151.57 70.54 153.55 C 66.98 155.03 56.48 155.35 52.01 154.11 Z "/>
</g>
</svg>