<?xml version="1.0" encoding="UTF-8" standalone="no"?>
<!DOCTYPE svg PUBLIC "-//W3C//DTD SVG 1.1//EN" "http://www.w3.org/Graphics/SVG/1.1/DTD/svg11.dtd" >
<svg xmlns="http://www.w3.org/2000/svg" xmlns:xlink="http://www.w3.org/1999/xlink" version="1.1" viewBox="0 0 256 256">
 <g >
 <path fill="currentColor"
d=" M 78.03 228.95 C 88.16 227.69 96.39 224.23 98.65 220.28 C 100.27 217.47 100.27 217.47 103.53 220.73 C 108.12 225.32 112.92 225.28 117.60 220.60 C 120.39 217.81 121.00 216.44 121.00 213.00 C 121.00 209.56 120.39 208.19 117.60 205.40 C 115.17 202.97 113.30 202.00 111.05 202.00 C 106.83 202.00 102.40 204.42 100.48 207.76 C 99.03 210.28 98.95 207.53 99.51 174.05 C 99.85 154.01 100.33 137.28 100.58 136.87 C 100.83 136.46 102.23 137.24 103.69 138.59 C 105.15 139.94 107.39 141.31 108.66 141.63 C 110.98 142.21 110.98 142.21 109.01 144.98 C 102.33 154.36 102.38 184.66 109.08 191.85 C 111.96 194.94 121.05 196.44 137.00 196.46 C 153.18 196.47 160.90 194.86 164.85 190.66 C 171.53 183.55 171.79 156.92 165.29 145.75 C 163.97 143.47 162.08 142.06 158.95 141.02 C 156.50 140.21 154.33 139.44 154.13 139.32 C 153.92 139.19 154.95 137.66 156.42 135.91 C 162.19 129.06 164.28 122.27 161.97 117.94 C 160.56 115.32 153.99 112.10 148.50 111.35 C 146.03 111.01 144.01 110.45 144.02 110.11 C 144.03 109.78 144.92 108.38 146.00 107.00 C 148.98 103.19 148.48 100.25 144.12 95.88 C 141.03 92.80 139.49 92.00 136.60 92.00 C 133.28 92.00 132.03 92.96 122.43 102.89 C 116.64 108.87 109.86 116.41 107.36 119.64 C 104.86 122.86 102.58 125.72 102.30 126.00 C 101.50 126.77 103.06 108.86 104.35 102.42 C 105.90 94.69 107.80 93.48 121.42 91.50 C 129.92 90.26 139.99 89.94 166.84 90.05 C 201.35 90.19 201.35 90.19 203.12 87.85 C 205.75 84.37 206.39 78.87 204.64 74.69 C 203.46 71.86 202.35 70.91 199.33 70.11 C 196.09 69.26 166.48 67.00 158.57 67.00 C 156.06 67.00 156.06 67.00 158.53 63.36 C 161.21 59.41 161.77 53.79 159.89 49.66 C 158.56 46.73 148.63 40.91 133.17 33.99 C 119.45 27.84 117.20 27.33 113.19 29.40 C 105.77 33.24 101.47 44.81 105.65 49.69 C 106.67 50.88 113.78 55.15 121.45 59.17 C 135.39 66.50 135.39 66.50 122.95 67.12 C 99.50 68.29 82.59 71.20 73.88 75.58 C 63.83 80.63 59.92 87.89 55.08 110.50 C 53.34 118.61 50.00 141.80 50.00 145.77 C 50.00 147.07 49.60 146.98 47.75 145.29 C 39.40 137.66 27.52 137.44 18.95 144.77 C 10.85 151.71 8.87 161.34 13.60 170.83 C 18.97 181.61 30.99 185.91 41.90 180.96 C 44.32 179.86 46.40 179.08 46.52 179.23 C 46.63 179.38 46.31 185.35 45.79 192.50 C 44.70 207.42 45.23 218.77 47.16 221.96 C 49.58 225.95 57.69 229.03 68.03 229.88 C 68.87 229.94 73.37 229.53 78.03 228.95 Z  M 138.22 222.22 C 139.86 220.59 139.80 220.02 137.06 211.51 C 135.30 206.04 133.40 202.01 132.20 201.21 C 129.84 199.65 125.80 200.46 123.56 202.93 C 122.17 204.47 122.14 205.11 123.36 208.09 C 124.12 209.97 125.30 213.97 125.98 217.00 C 126.67 220.03 127.96 223.09 128.86 223.81 C 130.89 225.44 135.85 224.60 138.22 222.22 Z  M 156.22 221.23 C 157.85 219.59 157.77 219.01 154.72 210.18 C 151.10 199.73 149.54 198.15 145.09 200.46 C 143.46 201.30 141.88 202.38 141.59 202.86 C 140.72 204.26 145.59 222.12 147.11 223.13 C 149.01 224.39 154.12 223.32 156.22 221.23 Z  M 174.12 221.39 C 176.06 219.63 176.06 219.64 171.69 208.67 C 168.38 200.37 166.57 198.57 162.56 199.57 C 158.11 200.69 157.61 202.33 159.82 208.71 C 160.92 211.90 162.14 216.19 162.52 218.26 C 162.91 220.33 163.96 222.48 164.86 223.02 C 166.96 224.30 171.86 223.44 174.12 221.39 Z  M 205.66 221.94 C 207.20 221.35 208.77 220.37 209.15 219.76 C 209.53 219.14 210.15 214.45 210.54 209.32 C 211.24 200.00 211.24 200.00 216.87 199.94 C 228.35 199.83 233.39 195.74 230.99 188.46 C 228.99 182.39 227.75 181.80 218.87 182.57 C 211.00 183.26 211.00 183.26 211.00 176.87 C 211.00 170.47 211.00 170.47 218.86 170.47 C 227.30 170.47 229.47 169.53 231.13 165.15 C 232.30 162.08 230.54 156.36 228.03 155.02 C 226.99 154.46 222.75 154.31 218.11 154.67 C 210.00 155.30 210.00 155.30 210.00 148.73 C 210.00 141.55 209.24 141.93 226.00 140.75 C 229.19 140.52 229.62 140.11 230.89 136.10 C 232.68 130.44 231.53 126.89 227.48 125.56 C 225.84 125.02 224.36 124.49 224.18 124.39 C 224.01 124.28 224.57 121.82 225.43 118.92 C 227.78 111.02 227.53 109.48 223.60 107.61 C 219.54 105.69 214.63 105.52 213.24 107.25 C 212.69 107.94 211.93 109.62 211.55 111.00 C 211.17 112.38 209.94 115.86 208.82 118.75 C 206.77 124.00 206.77 124.00 200.80 124.00 C 194.97 124.00 194.80 123.92 193.66 120.77 C 193.02 118.99 191.38 115.28 190.00 112.52 C 187.74 107.98 187.14 107.47 183.76 107.19 C 180.85 106.95 179.47 107.44 177.51 109.40 C 174.64 112.27 174.35 115.51 176.50 120.65 C 178.40 125.20 178.45 125.00 175.50 125.00 C 169.91 125.00 166.66 132.86 169.47 139.58 C 171.01 143.26 171.01 143.26 181.50 142.80 C 192.00 142.33 192.00 142.33 192.00 148.58 C 192.00 154.75 191.96 154.85 188.94 155.51 C 187.26 155.88 183.34 156.03 180.23 155.84 C 175.05 155.53 174.47 155.71 173.30 158.00 C 171.63 161.28 171.65 167.46 173.33 168.86 C 174.06 169.47 178.56 170.26 183.33 170.63 C 192.00 171.30 192.00 171.30 192.00 177.54 C 192.00 184.92 191.89 185.00 181.54 185.00 C 172.93 185.00 171.45 186.13 171.59 192.61 C 171.74 199.24 172.89 200.00 182.77 200.00 C 191.30 200.00 191.30 200.00 190.70 208.45 C 190.02 218.15 190.98 220.21 197.00 221.86 C 201.74 223.16 202.44 223.17 205.66 221.94 Z  M 47.52 120.68 C 53.43 114.77 53.16 104.39 46.99 99.99 C 43.64 97.60 35.63 97.06 32.06 98.97 C 26.72 101.83 24.39 110.98 27.48 116.96 C 29.97 121.78 33.68 124.00 39.23 124.00 C 43.53 124.00 44.65 123.55 47.52 120.68 Z  M 123.74 182.25 C 122.88 181.29 121.86 178.81 121.47 176.75 C 120.78 173.00 120.78 173.00 124.89 173.00 C 129.00 173.00 129.00 173.00 129.00 178.50 C 129.00 183.18 128.72 184.00 127.15 184.00 C 126.14 184.00 124.60 183.21 123.74 182.25 Z  M 144.51 179.05 C 143.70 173.19 144.08 172.36 147.94 171.51 C 152.30 170.56 153.50 168.59 152.41 164.20 C 151.58 160.84 151.15 160.47 147.75 160.19 C 144.05 159.88 144.00 159.82 144.00 155.61 C 144.00 153.26 144.25 151.08 144.56 150.78 C 144.86 150.47 146.64 150.69 148.51 151.26 C 151.11 152.06 152.27 153.22 153.48 156.23 C 157.28 165.75 156.26 178.08 151.34 181.95 C 146.95 185.40 145.28 184.69 144.51 179.05 Z  M 121.00 159.55 C 121.00 155.11 123.11 152.06 126.91 151.01 C 132.08 149.57 132.00 149.50 132.00 155.39 C 132.00 161.43 131.39 162.00 124.92 162.00 C 121.43 162.00 121.00 161.73 121.00 159.55 Z  M 123.11 133.86 C 125.53 130.98 128.92 127.11 130.66 125.27 C 133.69 122.05 133.94 121.97 137.07 123.25 C 142.97 125.65 143.11 127.50 137.79 132.47 C 134.03 135.98 132.13 136.99 128.29 137.49 C 125.66 137.83 122.43 138.33 121.11 138.61 C 118.97 139.06 119.17 138.57 123.11 133.86 Z "/>
</g>
</svg>