<?xml version="1.0" encoding="UTF-8" standalone="no"?>
<!DOCTYPE svg PUBLIC "-//W3C//DTD SVG 1.1//EN" "http://www.w3.org/Graphics/SVG/1.1/DTD/svg11.dtd" >
<svg xmlns="http://www.w3.org/2000/svg" xmlns:xlink="http://www.w3.org/1999/xlink" version="1.1" viewBox="0 0 256 256">
 <g >
 <path fill="currentColor"
d=" M 179.25 234.11 C 210.65 233.36 211.02 233.33 213.48 231.02 C 216.58 228.11 217.50 223.55 216.05 218.20 C 214.49 212.39 212.73 211.00 206.93 211.00 C 202.00 211.00 202.00 211.00 202.00 202.68 C 202.00 190.54 197.88 178.44 191.41 171.62 C 186.34 166.27 174.40 162.06 158.19 159.90 C 146.30 158.32 108.19 159.28 96.60 161.45 C 77.04 165.12 65.39 170.36 61.99 177.02 C 58.93 183.02 56.95 193.08 56.78 203.55 C 56.62 213.00 56.62 213.00 50.89 213.00 C 43.70 213.00 42.28 213.55 40.46 217.07 C 37.64 222.53 39.22 231.30 43.27 232.58 C 50.08 234.75 119.53 235.52 179.25 234.11 Z  M 136.14 154.03 C 139.93 152.24 141.00 149.03 141.00 139.51 C 141.00 134.90 141.39 130.88 141.87 130.58 C 142.35 130.28 152.93 129.73 165.38 129.36 C 183.65 128.81 188.26 128.39 189.26 127.19 C 190.00 126.29 190.50 122.71 190.50 118.26 C 190.50 107.29 189.98 107.00 170.54 107.00 C 162.16 107.00 151.86 106.71 147.65 106.35 C 140.00 105.71 140.00 105.71 140.00 99.35 C 140.00 93.00 140.00 93.00 146.75 93.06 C 150.46 93.10 156.88 93.48 161.00 93.91 C 165.40 94.38 169.26 94.32 170.34 93.77 C 174.02 91.90 176.37 84.27 176.44 74.00 C 176.51 62.86 174.86 58.67 169.52 56.44 C 161.83 53.23 85.79 51.90 80.22 54.88 C 77.30 56.44 74.80 62.57 74.28 69.42 C 73.75 76.31 76.08 88.95 78.58 92.76 C 80.18 95.20 80.37 95.23 89.85 94.63 C 95.16 94.29 103.33 93.94 108.00 93.85 C 116.50 93.68 116.50 93.68 116.79 100.21 C 117.09 106.73 117.09 106.73 113.92 107.37 C 112.18 107.71 105.52 108.03 99.13 108.06 C 92.73 108.09 82.87 108.46 77.20 108.88 C 64.01 109.87 62.46 111.08 62.59 120.28 C 62.64 123.98 63.36 127.81 64.35 129.73 C 66.03 132.96 66.03 132.96 86.76 132.44 C 98.17 132.15 108.96 131.74 110.75 131.52 C 114.65 131.05 114.66 131.11 112.03 142.12 C 109.85 151.27 110.11 152.22 115.50 154.68 C 119.10 156.32 132.17 155.91 136.14 154.03 Z  M 83.38 210.40 C 82.31 206.10 83.62 191.64 85.40 188.20 C 87.30 184.51 89.81 182.68 95.92 180.53 C 100.30 178.98 100.30 178.98 99.65 187.24 C 99.30 191.78 99.01 199.44 99.01 204.25 C 99.00 213.00 99.00 213.00 91.52 213.00 C 84.29 213.00 84.02 212.91 83.38 210.40 Z  M 117.64 209.25 C 117.30 207.19 117.02 199.14 117.01 191.38 C 117.00 177.25 117.00 177.25 120.12 176.62 C 121.84 176.28 126.64 176.00 130.78 176.00 C 138.31 176.00 138.31 176.00 137.65 193.61 C 137.28 203.29 136.74 211.62 136.43 212.11 C 136.13 212.60 131.92 213.00 127.07 213.00 C 118.26 213.00 118.26 213.00 117.64 209.25 Z  M 156.00 203.65 C 156.00 199.06 155.71 191.21 155.35 186.21 C 154.61 175.78 153.66 176.33 165.72 180.17 C 172.12 182.20 176.14 185.68 178.19 190.94 C 179.74 194.92 181.12 206.16 180.45 209.23 C 179.84 212.00 179.84 212.00 167.92 212.00 C 156.00 212.00 156.00 212.00 156.00 203.65 Z "/>
</g>
</svg>