<?xml version="1.0" encoding="UTF-8" standalone="no"?>
<!DOCTYPE svg PUBLIC "-//W3C//DTD SVG 1.1//EN" "http://www.w3.org/Graphics/SVG/1.1/DTD/svg11.dtd" >
<svg xmlns="http://www.w3.org/2000/svg" xmlns:xlink="http://www.w3.org/1999/xlink" version="1.1" viewBox="0 0 256 256">
 <g >
 <path fill="currentColor"
d=" M 172.50 242.04 C 180.49 241.16 182.85 240.53 184.22 238.90 C 188.01 234.40 187.33 224.33 182.94 219.94 C 181.16 218.16 179.48 218.00 162.00 218.00 C 143.00 218.00 143.00 218.00 143.00 215.12 C 143.00 212.24 143.00 212.24 162.75 211.51 C 173.61 211.11 183.23 210.40 184.11 209.93 C 188.68 207.51 189.23 195.01 184.97 190.47 C 182.66 188.01 182.61 188.00 162.83 188.00 C 143.67 188.00 143.00 187.93 143.00 186.00 C 143.00 184.77 143.67 183.99 144.75 183.98 C 150.84 183.92 176.29 179.90 178.78 178.61 C 184.81 175.50 188.53 163.51 187.75 149.69 C 187.18 139.57 184.49 130.93 180.38 126.04 C 174.91 119.54 160.42 116.82 131.00 116.74 C 108.65 116.69 83.78 119.10 77.50 121.93 C 68.92 125.79 65.99 132.19 65.25 148.67 C 64.83 158.13 65.08 160.90 66.87 166.81 C 69.36 175.00 73.02 179.40 78.57 180.86 C 81.98 181.76 99.14 183.53 111.50 184.26 C 114.80 184.46 115.56 184.89 115.82 186.75 C 116.14 189.00 116.14 189.00 95.07 189.00 C 75.53 189.00 73.86 189.14 72.06 190.94 C 67.83 195.17 68.67 206.46 73.56 211.06 C 75.87 213.22 76.21 213.25 94.95 212.53 C 114.00 211.80 114.00 211.80 114.00 215.00 C 114.00 218.20 114.00 218.20 95.44 217.85 C 76.89 217.50 76.89 217.50 74.95 220.00 C 67.97 229.01 71.25 241.36 81.09 243.10 C 87.33 244.21 160.48 243.36 172.50 242.04 Z  M 74.00 115.78 C 80.48 115.17 111.48 114.64 145.00 114.56 C 204.50 114.41 204.50 114.41 206.32 108.97 C 208.46 102.56 207.93 98.20 204.54 94.25 C 202.18 91.50 202.18 91.50 183.09 91.19 C 172.59 91.02 164.00 90.74 164.00 90.56 C 164.00 90.39 164.66 88.67 165.46 86.75 C 166.81 83.52 167.30 83.23 172.15 82.76 C 176.53 82.34 177.90 81.69 180.61 78.72 C 184.44 74.55 185.92 70.03 186.57 60.50 C 186.92 55.35 186.58 52.20 185.27 48.58 C 182.33 40.41 181.42 40.09 158.97 39.35 C 139.44 38.70 139.44 38.70 136.13 33.91 C 134.32 31.27 130.58 27.01 127.83 24.44 C 123.39 20.29 122.45 19.83 119.41 20.32 C 114.90 21.05 110.56 24.23 109.03 27.92 C 108.01 30.40 108.07 31.43 109.40 34.11 C 110.29 35.88 110.88 37.45 110.72 37.61 C 110.56 37.77 101.88 38.34 91.43 38.88 C 80.97 39.41 71.24 40.39 69.80 41.04 C 68.36 41.70 65.92 44.53 64.36 47.37 C 61.86 51.91 61.54 53.48 61.59 61.00 C 61.63 67.41 62.22 70.96 63.97 75.44 C 67.32 84.04 69.64 86.00 76.44 86.00 C 81.85 86.00 82.01 86.08 83.49 89.62 C 84.32 91.61 85.00 93.56 85.00 93.94 C 85.00 94.33 76.15 95.14 65.34 95.76 C 41.53 97.11 41.50 97.12 41.50 107.87 C 41.50 112.42 41.99 115.29 42.98 116.47 C 44.58 118.40 46.57 118.35 74.00 115.78 Z  M 96.54 164.53 C 93.81 163.80 90.77 162.19 89.77 160.96 C 88.77 159.73 88.07 158.67 88.22 158.61 C 88.38 158.55 94.58 158.72 102.00 159.00 C 115.50 159.50 115.50 159.50 115.81 162.75 C 116.13 166.00 116.13 166.00 108.81 165.93 C 104.79 165.90 99.27 165.27 96.54 164.53 Z  M 142.00 162.29 C 142.00 158.30 142.00 158.30 155.23 157.71 C 162.51 157.39 168.60 157.26 168.77 157.43 C 168.94 157.60 168.55 158.90 167.90 160.32 C 166.32 163.78 162.30 165.09 151.25 165.73 C 142.00 166.27 142.00 166.27 142.00 162.29 Z  M 88.99 140.02 C 89.57 138.94 90.93 137.57 92.02 136.99 C 94.23 135.80 113.74 133.07 114.51 133.84 C 114.78 134.11 115.00 136.06 115.00 138.17 C 115.00 142.00 115.00 142.00 101.46 142.00 C 88.29 142.00 87.96 141.95 88.99 140.02 Z  M 139.00 137.22 C 139.00 133.44 139.00 133.44 151.02 134.58 C 160.28 135.46 163.51 136.15 165.13 137.61 C 167.22 139.50 167.22 139.50 162.86 140.18 C 160.46 140.55 154.11 140.89 148.75 140.93 C 139.00 141.00 139.00 141.00 139.00 137.22 Z  M 104.71 88.94 C 103.78 86.58 103.19 84.48 103.39 84.27 C 103.60 84.07 113.32 83.63 124.99 83.29 C 146.20 82.68 146.20 82.68 144.12 86.77 C 142.97 89.02 141.68 91.07 141.26 91.33 C 140.84 91.58 132.83 92.12 123.45 92.52 C 106.40 93.24 106.40 93.24 104.71 88.94 Z "/>
</g>
</svg>