<?xml version="1.0" encoding="UTF-8" standalone="no"?>
<!DOCTYPE svg PUBLIC "-//W3C//DTD SVG 1.1//EN" "http://www.w3.org/Graphics/SVG/1.1/DTD/svg11.dtd" >
<svg xmlns="http://www.w3.org/2000/svg" xmlns:xlink="http://www.w3.org/1999/xlink" version="1.1" viewBox="0 0 256 256">
 <g >
 <path fill="currentColor"
d=" M 214.73 225.86 C 219.31 224.44 221.57 221.06 224.92 210.59 C 232.59 186.66 233.74 162.58 227.89 148.96 C 224.99 142.22 218.57 136.54 211.33 134.30 C 206.64 132.85 202.37 132.53 189.50 132.64 C 173.04 132.78 165.52 134.03 153.76 138.59 C 147.59 140.98 146.52 139.96 146.51 131.71 C 146.50 126.26 146.73 125.52 148.36 125.66 C 149.39 125.74 157.33 126.14 166.01 126.53 C 181.79 127.25 181.79 127.25 183.39 124.81 C 184.27 123.47 185.27 120.29 185.62 117.74 C 186.20 113.50 186.00 112.84 183.21 110.05 C 181.53 108.37 179.11 106.97 177.83 106.94 C 176.55 106.90 170.28 106.52 163.90 106.09 C 153.82 105.41 152.01 105.01 150.07 103.07 C 147.54 100.54 142.05 98.00 139.11 98.00 C 135.37 98.00 131.41 102.67 128.15 110.92 C 123.17 123.54 121.77 131.05 122.18 143.00 C 122.49 151.87 122.93 154.17 124.99 157.80 C 129.64 166.00 137.09 168.03 146.50 163.65 C 165.41 154.86 193.40 151.21 200.68 156.59 C 209.22 162.91 206.82 181.39 193.87 209.00 C 191.05 215.00 189.01 220.58 189.32 221.40 C 190.04 223.28 195.40 226.13 200.00 227.08 C 203.87 227.89 209.77 227.40 214.73 225.86 Z  M 70.33 202.10 C 76.53 199.07 77.25 197.35 80.55 177.50 C 82.80 163.93 89.40 129.70 90.37 126.50 C 90.86 124.90 93.85 131.36 95.00 136.52 C 95.75 139.86 95.74 144.64 94.97 152.87 C 92.24 182.01 92.56 186.94 97.55 192.88 C 102.61 198.89 111.59 200.30 123.03 196.87 C 128.16 195.34 130.00 192.06 130.00 184.50 C 130.00 179.91 129.57 178.47 127.56 176.47 C 125.65 174.55 124.46 174.16 122.10 174.63 C 117.54 175.54 114.39 174.36 113.10 171.25 C 112.33 169.38 112.04 161.49 112.23 146.99 C 112.48 126.93 112.36 125.20 110.39 120.95 C 107.52 114.74 102.57 109.34 98.36 107.81 C 95.30 106.71 94.93 106.22 95.49 104.02 C 97.04 97.85 97.13 95.94 96.06 92.69 C 92.74 82.62 78.12 75.00 62.10 75.00 C 55.30 75.00 50.75 76.35 46.25 79.69 C 41.99 82.85 40.39 86.13 37.96 96.73 C 35.11 109.11 34.82 109.63 30.34 110.23 C 28.23 110.52 24.84 111.45 22.81 112.30 C 19.78 113.57 19.00 114.51 18.43 117.52 C 17.66 121.61 19.24 128.12 21.43 129.94 C 22.21 130.59 24.12 131.26 25.68 131.43 C 29.17 131.81 29.34 130.47 22.41 157.94 C 15.46 185.48 15.44 188.29 22.15 195.00 C 28.85 201.70 40.28 205.08 55.00 204.71 C 63.65 204.50 66.35 204.04 70.33 202.10 Z  M 165.42 199.96 C 193.97 194.49 193.59 194.61 194.91 190.84 C 196.46 186.38 196.24 183.12 194.04 178.29 C 191.72 173.16 189.77 172.53 179.22 173.43 C 170.73 174.17 145.38 178.52 140.27 180.13 C 138.49 180.69 136.12 182.30 135.02 183.71 C 130.14 189.90 134.89 204.00 141.85 204.00 C 143.22 204.00 153.83 202.18 165.42 199.96 Z  M 213.66 125.07 C 217.49 123.33 217.91 122.75 218.93 117.84 C 224.99 88.51 222.31 76.21 209.00 72.30 C 204.90 71.10 198.40 70.63 183.54 70.46 C 170.70 70.32 163.45 69.86 163.23 69.18 C 163.04 68.61 163.58 66.78 164.44 65.12 C 165.30 63.46 166.00 61.14 166.00 59.96 C 166.00 57.41 162.89 53.23 159.18 50.78 C 156.11 48.76 149.25 48.48 146.93 50.28 C 144.61 52.08 138.90 61.35 132.98 72.94 C 126.90 84.84 126.72 88.51 131.98 93.25 C 135.50 96.42 137.09 96.59 143.12 94.44 C 163.61 87.13 190.20 85.72 195.14 91.67 C 197.34 94.32 196.58 104.50 193.55 113.00 C 189.65 123.95 189.69 124.29 195.00 125.67 C 201.78 127.43 208.96 127.20 213.66 125.07 Z "/>
</g>
</svg>