<?xml version="1.0" encoding="UTF-8" standalone="no"?>
<!DOCTYPE svg PUBLIC "-//W3C//DTD SVG 1.1//EN" "http://www.w3.org/Graphics/SVG/1.1/DTD/svg11.dtd" >
<svg xmlns="http://www.w3.org/2000/svg" xmlns:xlink="http://www.w3.org/1999/xlink" version="1.1" viewBox="0 0 256 256">
 <g >
 <path fill="currentColor"
d=" M 123.73 227.00 C 131.96 225.93 138.21 223.14 140.63 219.45 C 143.38 215.25 144.97 206.11 144.97 194.50 C 144.97 162.07 135.40 153.56 99.00 153.68 C 82.56 153.74 70.19 155.60 64.51 158.88 C 60.76 161.04 56.37 169.49 54.83 177.50 C 52.95 187.31 53.21 205.51 55.34 212.50 C 58.49 222.85 62.37 225.19 79.27 226.97 C 89.77 228.07 115.33 228.09 123.73 227.00 Z  M 211.30 223.43 C 214.60 220.13 215.42 216.27 213.96 210.83 C 212.47 205.26 211.38 204.00 208.02 204.00 C 204.88 204.00 200.93 200.70 198.53 196.06 C 196.86 192.84 196.86 192.84 209.93 180.07 C 224.14 166.18 225.23 164.10 221.03 158.76 C 218.95 156.12 213.30 153.00 210.60 153.00 C 209.72 153.00 204.72 156.86 199.50 161.58 C 194.27 166.30 189.98 169.56 189.96 168.83 C 189.94 168.10 189.35 162.87 188.66 157.22 C 187.96 151.57 187.60 146.73 187.86 146.47 C 188.12 146.21 193.83 146.00 200.55 146.00 C 212.77 146.00 212.77 146.00 214.28 142.75 C 217.94 134.87 217.20 127.87 212.29 124.02 C 210.30 122.45 208.23 122.00 203.01 122.00 C 199.32 122.00 193.53 121.71 190.15 121.36 C 184.00 120.72 184.00 120.72 183.99 111.61 C 183.99 106.60 183.53 97.33 182.99 91.00 C 182.14 81.24 181.67 79.23 179.88 77.75 C 176.18 74.68 165.18 75.74 162.78 79.40 C 162.38 80.00 162.25 82.75 162.50 85.50 C 162.74 88.25 163.20 97.55 163.51 106.17 C 164.03 120.64 163.94 121.88 162.29 122.35 C 161.30 122.62 151.16 123.16 139.75 123.54 C 119.00 124.22 119.00 124.22 119.00 117.61 C 119.00 111.00 119.00 111.00 132.60 111.00 C 146.20 111.00 146.20 111.00 149.10 107.89 C 153.51 103.18 155.29 95.62 154.83 83.62 C 154.37 71.44 151.91 65.13 146.65 62.64 C 144.85 61.78 137.44 60.52 130.19 59.83 C 117.00 58.57 117.00 58.57 117.00 55.21 C 117.00 52.83 116.15 50.99 114.08 48.92 C 111.65 46.50 110.33 46.00 106.30 46.00 C 99.40 46.00 97.00 47.96 97.00 53.59 C 97.00 56.27 96.50 58.24 95.75 58.50 C 95.06 58.74 86.62 59.32 77.00 59.79 C 66.91 60.29 58.55 61.16 57.25 61.86 C 52.38 64.48 48.00 77.80 48.00 90.00 C 48.00 102.21 51.77 113.26 56.82 115.87 C 57.83 116.40 64.45 116.02 73.50 114.91 C 81.75 113.91 89.96 113.07 91.75 113.04 C 95.00 113.00 95.00 113.00 95.00 118.95 C 95.00 126.12 97.44 125.39 67.75 127.03 C 42.27 128.43 36.37 129.20 34.20 131.38 C 31.88 133.70 32.00 143.33 34.41 147.89 C 36.45 151.75 32.35 151.70 79.50 148.47 C 91.60 147.64 116.00 146.68 133.72 146.32 C 160.95 145.78 166.00 145.90 166.34 147.09 C 166.56 147.87 168.37 156.91 170.37 167.19 C 174.00 185.87 174.00 185.87 166.75 193.24 C 162.76 197.29 158.23 202.46 156.67 204.73 C 153.84 208.83 153.84 208.86 155.57 212.51 C 157.68 216.95 163.61 221.09 168.05 221.22 C 170.80 221.30 172.13 220.40 176.67 215.41 C 182.04 209.50 182.04 209.50 183.77 211.99 C 190.29 221.39 196.84 225.89 204.11 225.96 C 207.77 225.99 209.26 225.47 211.30 223.43 Z  M 218.47 114.01 C 222.42 112.51 226.00 108.12 226.00 104.78 C 226.00 102.55 224.28 99.96 218.76 93.87 C 208.93 83.04 203.28 78.71 200.02 79.52 C 195.45 80.66 190.00 87.31 190.00 91.76 C 190.00 94.36 211.13 115.00 213.79 115.00 C 214.93 115.00 217.04 114.55 218.47 114.01 Z  M 88.00 206.64 C 84.97 205.98 81.95 205.10 81.29 204.69 C 77.70 202.44 76.83 185.18 79.95 178.31 C 81.54 174.79 82.55 173.92 86.17 172.86 C 88.55 172.17 94.78 171.58 100.00 171.56 C 116.85 171.47 121.12 175.60 121.10 191.93 C 121.09 196.91 120.62 201.85 120.05 202.91 C 117.83 207.05 99.65 209.17 88.00 206.64 Z "/>
</g>
</svg>