<?xml version="1.0" encoding="UTF-8" standalone="no"?>
<!DOCTYPE svg PUBLIC "-//W3C//DTD SVG 1.1//EN" "http://www.w3.org/Graphics/SVG/1.1/DTD/svg11.dtd" >
<svg xmlns="http://www.w3.org/2000/svg" xmlns:xlink="http://www.w3.org/1999/xlink" version="1.1" viewBox="0 0 256 256">
 <g >
 <path fill="currentColor"
d=" M 92.33 245.53 C 121.40 238.20 143.27 226.94 157.30 212.06 C 160.95 208.20 164.64 203.66 165.51 201.98 C 167.09 198.93 167.09 198.93 170.29 201.20 C 177.46 206.28 210.84 235.92 218.95 244.39 C 220.84 246.38 222.94 248.00 223.61 248.00 C 225.16 248.00 233.45 237.03 236.59 230.82 C 240.73 222.66 245.13 210.73 244.30 209.94 C 242.20 207.94 219.18 199.00 198.27 192.07 C 185.49 187.84 174.79 184.12 174.48 183.81 C 174.17 183.50 174.81 178.80 175.91 173.37 C 177.06 167.65 178.41 154.60 179.11 142.36 C 180.32 121.21 180.32 121.21 184.16 119.95 C 187.83 118.74 188.00 118.49 188.00 114.34 C 188.00 111.95 187.66 110.00 187.25 109.99 C 186.84 109.99 181.32 109.35 175.00 108.56 C 168.68 107.78 158.21 106.83 151.75 106.44 C 140.00 105.73 140.00 105.73 140.00 126.83 C 140.00 150.75 137.44 175.06 133.95 184.41 C 127.66 201.22 110.86 216.25 81.76 231.08 C 69.87 237.15 69.87 237.15 71.60 239.82 C 72.56 241.30 74.28 243.96 75.42 245.74 C 76.56 247.52 77.73 248.98 78.02 248.99 C 78.30 248.99 84.74 247.44 92.33 245.53 Z  M 54.02 235.45 C 59.47 223.60 64.38 210.23 67.99 197.39 C 71.70 184.19 77.48 155.82 78.97 143.50 C 79.57 138.55 80.24 133.34 80.47 131.92 C 80.84 129.58 80.21 129.01 73.96 125.98 C 70.15 124.14 66.86 122.83 66.63 123.07 C 66.41 123.30 63.80 128.90 60.82 135.50 C 50.09 159.32 33.09 187.52 17.32 207.70 C 9.70 217.44 9.70 217.44 15.60 222.86 C 22.81 229.48 32.77 236.08 42.33 240.56 C 46.27 242.41 49.63 243.94 49.80 243.96 C 49.96 243.98 51.86 240.15 54.02 235.45 Z  M 110.00 196.52 C 115.22 195.71 121.19 194.57 123.25 193.98 C 127.00 192.91 127.00 192.91 127.00 144.95 C 127.00 97.00 127.00 97.00 161.00 97.00 C 195.00 97.00 195.00 97.00 195.00 143.50 C 195.00 190.00 195.00 190.00 205.32 190.00 C 214.30 190.00 221.54 189.25 229.70 187.47 C 231.91 186.99 231.91 186.99 232.23 140.24 C 232.55 93.50 232.55 93.50 235.27 86.08 C 236.77 82.00 237.88 78.57 237.75 78.45 C 236.88 77.69 216.33 67.85 210.77 65.53 C 204.04 62.72 204.04 62.72 198.44 67.33 C 192.41 72.29 189.29 73.31 181.50 72.81 C 176.50 72.50 176.50 72.50 176.21 63.75 C 175.92 55.00 175.92 55.00 207.37 55.00 C 242.79 55.00 238.94 56.51 240.56 41.97 C 241.17 36.45 241.17 36.45 231.84 31.33 C 226.70 28.51 219.75 24.84 216.40 23.16 C 210.29 20.12 210.29 20.12 206.40 24.18 C 200.85 29.95 197.72 31.00 186.03 31.00 C 176.00 31.00 176.00 31.00 176.00 26.57 C 176.00 21.86 176.01 21.85 182.75 20.50 C 185.75 19.89 186.00 19.54 186.00 15.97 C 186.00 12.37 185.77 12.05 182.75 11.57 C 177.67 10.75 141.36 7.00 138.53 7.00 C 136.00 7.00 136.00 7.00 136.00 40.00 C 136.00 73.00 136.00 73.00 132.90 73.00 C 131.20 73.00 127.49 72.33 124.65 71.51 C 119.55 70.05 91.58 64.00 89.88 64.00 C 89.38 64.00 89.00 93.02 89.00 131.00 C 89.00 198.00 89.00 198.00 94.75 197.99 C 97.91 197.99 104.78 197.33 110.00 196.52 Z  M 49.56 131.25 C 58.87 120.36 66.52 108.44 69.35 100.43 C 70.78 96.37 70.78 96.37 66.60 93.73 C 58.85 88.83 43.59 82.12 29.20 77.30 C 13.25 71.95 15.28 71.67 9.06 80.03 C 7.17 82.56 7.17 82.56 17.84 96.20 C 23.70 103.70 32.10 115.71 36.50 122.88 C 40.90 130.06 44.73 135.94 45.00 135.96 C 45.27 135.98 47.33 133.86 49.56 131.25 Z  M 75.84 63.42 C 83.69 54.10 92.00 39.86 92.00 35.75 C 92.00 32.43 69.11 20.69 50.74 14.58 C 44.81 12.61 39.64 11.00 39.24 11.00 C 38.83 11.00 36.57 13.24 34.21 15.99 C 29.91 20.97 29.91 20.97 36.21 28.50 C 42.62 36.17 52.32 50.93 60.71 65.77 C 63.28 70.32 65.86 73.88 66.44 73.69 C 67.02 73.49 71.25 68.87 75.84 63.42 Z "/>
</g>
</svg>