<?xml version="1.0" encoding="UTF-8" standalone="no"?>
<!DOCTYPE svg PUBLIC "-//W3C//DTD SVG 1.1//EN" "http://www.w3.org/Graphics/SVG/1.1/DTD/svg11.dtd" >
<svg xmlns="http://www.w3.org/2000/svg" xmlns:xlink="http://www.w3.org/1999/xlink" version="1.1" viewBox="0 0 256 256">
 <g >
 <path fill="currentColor"
d=" M 223.76 247.51 C 241.72 246.82 242.50 246.19 245.41 230.14 C 246.25 225.54 247.85 220.23 248.97 218.33 C 250.08 216.44 251.00 213.53 251.00 211.86 C 251.00 209.09 250.77 208.89 248.25 209.41 C 236.05 211.95 189.76 214.40 170.00 213.56 C 138.83 212.23 128.25 210.05 122.35 203.75 C 115.58 196.53 116.00 199.95 116.00 151.60 C 116.00 108.86 116.06 107.45 118.23 100.72 C 120.46 93.79 120.46 93.79 117.98 91.78 C 115.56 89.82 100.66 81.89 94.34 79.20 C 91.28 77.90 91.00 78.00 84.98 82.68 C 78.93 87.37 78.57 87.50 70.89 87.85 C 63.00 88.21 63.00 88.21 63.00 91.11 C 63.00 92.70 62.80 94.00 62.55 94.00 C 62.30 94.00 60.15 92.68 57.77 91.08 C 49.35 85.39 38.38 80.06 27.87 76.55 C 22.03 74.60 16.42 73.00 15.41 73.00 C 14.40 73.00 11.67 74.87 9.35 77.15 C 5.11 81.30 5.11 81.30 8.42 85.40 C 14.45 92.89 35.60 123.61 36.93 126.83 C 37.65 128.57 38.59 130.00 39.01 130.00 C 40.42 130.00 50.65 118.30 54.89 111.84 C 57.18 108.35 59.83 103.36 60.76 100.75 C 61.70 98.14 62.81 96.00 63.23 96.00 C 63.66 96.00 64.01 98.36 64.02 101.25 C 64.02 104.14 64.37 107.04 64.80 107.70 C 65.26 108.43 68.71 109.02 73.53 109.20 C 81.50 109.50 81.50 109.50 81.76 153.57 C 82.02 197.64 82.02 197.64 72.43 203.57 C 67.15 206.83 61.44 210.66 59.75 212.07 C 56.66 214.65 56.66 214.65 60.74 223.07 C 65.12 232.10 74.46 247.01 75.73 246.99 C 76.15 246.98 80.10 241.94 84.50 235.78 C 88.90 229.62 94.95 221.71 97.95 218.19 C 103.40 211.80 103.40 211.80 104.58 215.21 C 106.95 222.05 110.38 227.54 115.88 233.31 C 125.96 243.89 134.81 246.89 159.00 247.94 C 174.99 248.63 198.49 248.47 223.76 247.51 Z  M 48.95 232.51 C 55.87 214.81 59.74 196.69 63.91 162.50 C 67.48 133.18 67.79 135.93 60.46 131.98 C 56.97 130.10 53.95 128.77 53.74 129.03 C 53.54 129.29 51.64 133.78 49.53 139.00 C 39.49 163.84 20.41 197.58 7.18 213.91 C 3.61 218.32 3.61 218.32 9.00 223.27 C 16.73 230.38 23.24 235.07 33.50 240.92 C 44.11 246.97 43.08 247.53 48.95 232.51 Z  M 194.50 210.22 C 197.50 209.36 197.50 209.36 197.79 200.68 C 198.08 192.00 198.08 192.00 221.98 192.00 C 245.88 192.00 245.88 192.00 246.49 187.75 C 248.41 174.55 248.88 175.42 234.75 166.00 C 220.62 156.58 220.99 157.70 231.25 155.21 C 234.50 154.43 234.50 154.43 235.00 119.46 C 235.50 84.50 235.50 84.50 238.22 78.05 C 239.71 74.50 240.83 71.51 240.72 71.39 C 239.22 69.98 217.99 58.94 215.89 58.48 C 213.67 57.99 212.24 58.52 209.22 60.94 C 205.34 64.07 199.43 66.39 197.86 65.41 C 197.39 65.12 197.00 62.43 197.00 59.44 C 197.00 54.00 197.00 54.00 219.89 54.00 C 245.63 54.00 242.82 55.26 244.53 42.94 C 245.16 38.49 245.07 38.30 240.84 34.85 C 238.45 32.91 232.68 28.77 228.00 25.65 C 219.50 19.98 219.50 19.98 217.53 22.74 C 216.45 24.26 214.14 26.96 212.38 28.75 C 209.47 31.72 208.67 32.00 203.05 32.00 C 196.89 32.00 196.89 32.00 197.20 27.28 C 197.49 22.72 197.63 22.54 201.30 21.67 C 205.02 20.80 205.10 20.68 204.80 16.65 C 204.50 12.57 204.44 12.51 200.00 11.89 C 197.53 11.55 188.41 10.96 179.75 10.57 C 164.00 9.87 164.00 9.87 164.00 20.94 C 164.00 32.00 164.00 32.00 141.47 32.00 C 118.93 32.00 118.93 32.00 119.22 42.75 C 119.50 53.50 119.50 53.50 141.75 53.77 C 164.00 54.04 164.00 54.04 164.00 60.02 C 164.00 66.33 163.74 66.61 159.42 64.97 C 156.85 63.99 129.97 59.00 127.28 59.00 C 126.26 59.00 126.00 69.35 126.00 110.14 C 126.00 161.27 126.00 161.27 138.66 160.55 C 154.20 159.66 155.76 159.15 156.18 154.80 C 156.47 151.78 156.81 151.47 160.25 151.19 C 164.00 150.88 164.00 150.88 164.00 159.94 C 164.00 169.00 164.00 169.00 141.97 169.00 C 119.93 169.00 119.93 169.00 120.22 180.25 C 120.50 191.50 120.50 191.50 142.25 191.77 C 164.00 192.04 164.00 192.04 164.00 202.17 C 164.00 212.30 164.00 212.30 177.75 211.69 C 185.31 211.36 192.85 210.70 194.50 210.22 Z  M 52.81 68.51 C 59.75 60.93 66.69 50.21 68.98 43.57 C 70.89 38.00 70.89 38.00 64.89 33.92 C 56.19 28.02 38.69 19.27 30.75 16.86 C 26.98 15.71 23.78 14.94 23.63 15.14 C 23.49 15.34 21.76 17.52 19.78 20.00 C 16.19 24.50 16.19 24.50 21.85 32.06 C 24.96 36.22 31.78 47.35 37.00 56.81 C 42.23 66.26 46.79 73.99 47.15 74.00 C 47.51 74.00 50.06 71.53 52.81 68.51 Z  M 89.80 70.37 C 98.78 64.65 104.71 59.26 109.61 52.39 C 112.74 48.01 113.96 45.44 113.53 44.11 C 112.41 40.58 94.76 26.25 81.91 18.45 C 75.96 14.83 75.96 14.83 71.73 17.38 C 69.40 18.78 66.91 20.32 66.20 20.81 C 65.19 21.49 66.26 24.95 71.02 36.38 C 76.58 49.73 82.00 67.39 82.00 72.13 C 82.00 74.79 83.33 74.49 89.80 70.37 Z  M 198.00 160.00 C 198.00 151.00 198.00 151.00 202.00 151.00 C 205.78 151.00 206.00 151.17 206.00 154.00 C 206.00 157.00 206.00 157.00 213.62 157.00 C 221.23 157.00 221.23 157.00 219.45 159.75 C 218.47 161.26 216.06 163.94 214.09 165.71 C 210.88 168.58 209.84 168.92 204.25 168.96 C 198.00 169.00 198.00 169.00 198.00 160.00 Z  M 156.20 124.25 C 156.50 117.50 156.50 117.50 162.25 117.20 C 168.00 116.90 168.00 116.90 168.00 123.95 C 168.00 131.00 168.00 131.00 161.95 131.00 C 155.91 131.00 155.91 131.00 156.20 124.25 Z  M 194.20 124.25 C 194.50 117.50 194.50 117.50 200.25 117.20 C 206.00 116.90 206.00 116.90 206.00 123.95 C 206.00 131.00 206.00 131.00 199.95 131.00 C 193.91 131.00 193.91 131.00 194.20 124.25 Z  M 156.00 92.00 C 156.00 86.00 156.00 86.00 162.00 86.00 C 168.00 86.00 168.00 86.00 168.00 92.00 C 168.00 98.00 168.00 98.00 162.00 98.00 C 156.00 98.00 156.00 98.00 156.00 92.00 Z  M 194.00 92.00 C 194.00 86.00 194.00 86.00 200.00 86.00 C 206.00 86.00 206.00 86.00 206.00 92.00 C 206.00 98.00 206.00 98.00 200.00 98.00 C 194.00 98.00 194.00 98.00 194.00 92.00 Z "/>
</g>
</svg>