<?xml version="1.0" encoding="UTF-8" standalone="no"?>
<!DOCTYPE svg PUBLIC "-//W3C//DTD SVG 1.1//EN" "http://www.w3.org/Graphics/SVG/1.1/DTD/svg11.dtd" >
<svg xmlns="http://www.w3.org/2000/svg" xmlns:xlink="http://www.w3.org/1999/xlink" version="1.1" viewBox="0 0 256 256">
 <g >
 <path fill="currentColor"
d=" M 67.87 249.02 C 72.47 248.49 77.08 247.79 78.11 247.47 C 79.90 246.90 79.99 244.75 80.24 196.78 C 80.50 146.68 80.50 146.68 84.00 159.28 C 87.50 171.88 87.50 171.88 90.33 169.19 C 94.43 165.30 99.05 158.75 104.88 148.54 C 107.70 143.62 110.00 140.35 110.00 141.29 C 110.00 142.85 111.83 143.00 130.50 143.00 C 151.00 143.00 151.00 143.00 151.00 155.00 C 151.00 167.00 151.00 167.00 130.00 167.00 C 109.00 167.00 109.00 167.00 109.00 177.92 C 109.00 183.92 109.27 189.55 109.61 190.42 C 110.13 191.79 112.93 192.00 130.61 192.00 C 151.00 192.00 151.00 192.00 151.00 204.50 C 151.00 217.00 151.00 217.00 123.50 217.00 C 96.00 217.00 96.00 217.00 96.01 227.25 C 96.02 232.89 96.30 238.51 96.63 239.75 C 97.23 242.00 97.23 242.00 172.06 242.00 C 246.88 242.00 246.88 242.00 247.45 237.75 C 249.10 225.63 248.95 225.00 243.50 220.84 C 240.75 218.74 233.34 214.10 227.04 210.51 C 215.57 203.99 215.57 203.99 210.53 208.85 C 203.45 215.69 201.15 217.00 196.28 217.00 C 192.00 217.00 192.00 217.00 192.00 204.50 C 192.00 192.00 192.00 192.00 215.41 192.00 C 241.74 192.00 238.83 193.47 240.55 179.29 C 241.18 174.07 241.18 174.07 229.84 166.70 C 209.99 153.78 211.65 154.44 208.48 158.21 C 204.04 163.48 198.81 166.94 195.25 166.97 C 192.00 167.00 192.00 167.00 192.00 155.00 C 192.00 143.00 192.00 143.00 215.91 143.00 C 242.79 143.00 239.84 144.45 241.53 130.42 C 242.14 125.34 242.14 125.34 233.82 119.77 C 229.24 116.70 222.35 112.46 218.50 110.35 C 211.50 106.50 211.50 106.50 216.00 106.26 C 234.39 105.28 232.86 108.14 233.20 74.18 C 233.52 41.78 233.35 43.16 238.44 30.89 C 238.96 29.63 237.10 28.30 229.80 24.70 C 224.69 22.17 216.52 18.45 211.67 16.43 C 202.83 12.75 202.83 12.75 198.67 16.82 C 196.37 19.05 193.23 21.36 191.68 21.94 C 190.14 22.52 182.12 23.00 173.87 23.00 C 161.29 23.00 157.29 22.61 149.18 20.57 C 140.65 18.42 115.78 13.00 114.48 13.00 C 114.22 13.00 114.00 18.85 114.00 26.00 C 114.00 33.15 113.84 39.00 113.64 39.00 C 113.44 39.00 108.83 34.46 103.39 28.91 C 97.95 23.36 90.48 16.12 86.79 12.84 C 80.08 6.86 80.08 6.86 70.64 12.50 C 59.53 19.12 42.45 26.90 23.27 34.07 C 15.70 36.91 9.20 39.40 8.82 39.62 C 8.45 39.85 9.29 43.44 10.70 47.61 C 13.52 56.02 11.26 55.51 36.28 53.37 C 43.06 52.79 43.06 52.79 42.78 67.15 C 42.50 81.50 42.50 81.50 26.25 81.77 C 7.74 82.09 9.31 80.48 10.65 97.75 C 11.30 106.00 11.30 106.00 21.09 106.00 C 26.48 106.00 31.10 106.35 31.37 106.78 C 32.02 107.85 28.80 126.07 25.64 139.19 C 22.47 152.36 16.30 171.49 11.07 184.32 C 7.14 193.99 7.14 193.99 12.98 198.48 C 18.82 202.98 18.82 202.98 23.97 197.34 C 26.80 194.24 32.24 186.98 36.06 181.20 C 43.00 170.69 43.00 170.69 43.00 210.35 C 43.00 250.00 43.00 250.00 51.25 249.99 C 55.79 249.99 63.26 249.55 67.87 249.02 Z  M 101.00 125.46 C 96.88 121.88 90.46 116.85 86.75 114.29 C 82.58 111.43 80.00 108.95 80.00 107.82 C 80.00 106.14 81.16 106.00 95.36 106.00 C 110.73 106.00 110.73 106.00 112.11 98.25 C 113.50 90.50 113.50 90.50 113.79 99.75 C 114.08 109.00 114.08 109.00 126.71 109.00 C 133.65 109.00 142.16 108.51 145.61 107.91 C 151.65 106.86 151.90 106.70 152.19 103.66 C 152.50 100.50 152.50 100.50 173.75 100.23 C 195.00 99.96 195.00 99.96 195.00 102.98 C 195.00 106.00 195.00 106.00 202.00 106.00 C 205.85 106.00 209.00 106.25 209.00 106.57 C 209.00 108.35 206.45 111.21 202.02 114.39 C 197.00 118.00 197.00 118.00 153.04 118.00 C 109.09 118.00 109.09 118.00 108.79 124.99 C 108.50 131.99 108.50 131.99 101.00 125.46 Z  M 106.50 82.90 C 103.20 80.16 97.46 75.83 93.76 73.29 C 87.01 68.65 87.01 68.65 83.55 72.58 C 80.08 76.50 80.08 76.50 80.04 62.45 C 80.00 48.39 80.00 48.39 89.25 46.62 C 97.57 45.03 98.97 45.00 103.22 46.32 C 107.33 47.60 108.09 47.60 109.13 46.34 C 109.80 45.54 111.16 44.45 112.17 43.91 C 113.92 42.97 114.00 43.93 114.00 65.46 C 114.00 77.86 113.66 87.97 113.25 87.94 C 112.84 87.91 109.80 85.64 106.50 82.90 Z  M 152.67 75.33 C 152.30 74.97 152.00 68.67 152.00 61.33 C 152.00 48.00 152.00 48.00 173.50 48.00 C 195.00 48.00 195.00 48.00 195.00 62.00 C 195.00 76.00 195.00 76.00 174.17 76.00 C 162.71 76.00 153.03 75.70 152.67 75.33 Z "/>
</g>
</svg>