<?xml version="1.0" encoding="UTF-8" standalone="no"?>
<!DOCTYPE svg PUBLIC "-//W3C//DTD SVG 1.1//EN" "http://www.w3.org/Graphics/SVG/1.1/DTD/svg11.dtd" >
<svg xmlns="http://www.w3.org/2000/svg" xmlns:xlink="http://www.w3.org/1999/xlink" version="1.1" viewBox="0 0 256 256">
 <g >
 <path fill="currentColor"
d=" M 35.29 241.11 C 40.73 232.92 58.40 210.88 63.26 206.20 C 66.69 202.91 66.69 202.91 68.52 207.70 C 74.98 224.68 89.08 235.74 111.87 241.69 C 120.55 243.96 124.61 244.31 153.00 245.27 C 185.77 246.38 228.61 245.24 234.21 243.11 C 238.19 241.60 239.80 238.40 242.07 227.41 C 243.20 221.96 245.22 215.21 246.56 212.40 C 247.90 209.60 249.00 205.62 249.00 203.56 C 249.00 199.82 249.00 199.82 245.25 200.43 C 212.46 205.69 131.92 208.28 112.30 204.70 C 96.59 201.83 88.02 196.65 83.87 187.52 C 82.23 183.91 82.04 180.38 82.02 153.26 C 82.00 124.20 82.10 122.65 84.50 113.40 C 85.87 108.11 87.00 103.18 87.00 102.44 C 87.00 101.02 71.22 92.19 59.12 86.85 C 52.03 83.71 51.76 83.67 50.73 85.56 C 50.15 86.63 47.99 89.19 45.95 91.25 C 42.24 95.00 42.24 95.00 26.01 95.00 C 9.79 95.00 9.79 95.00 10.42 103.25 C 12.10 125.10 10.28 123.00 27.60 123.00 C 43.00 123.00 43.00 123.00 43.00 155.42 C 43.00 187.85 43.00 187.85 37.75 190.76 C 27.96 196.20 7.50 208.14 6.76 208.87 C 4.70 210.86 26.65 248.00 29.88 248.00 C 30.34 248.00 32.77 244.90 35.29 241.11 Z  M 176.50 199.69 C 182.50 198.42 182.50 198.42 183.00 158.96 C 183.50 119.50 183.50 119.50 212.71 119.23 C 241.92 118.97 241.92 118.97 242.46 115.73 C 244.02 106.49 245.04 98.71 244.74 98.41 C 244.55 98.22 241.27 96.32 237.45 94.17 C 233.63 92.03 226.25 87.68 221.05 84.50 C 211.60 78.72 211.60 78.72 210.09 81.11 C 209.27 82.43 206.65 85.41 204.28 87.75 C 199.96 92.00 199.96 92.00 191.46 92.00 C 182.96 92.00 182.96 92.00 183.23 72.35 C 183.50 52.69 183.50 52.69 201.80 48.69 C 220.10 44.69 220.10 44.69 224.06 46.91 C 228.57 49.45 230.55 49.12 234.31 45.20 C 236.98 42.42 236.98 42.42 230.61 34.46 C 227.10 30.08 220.02 22.08 214.87 16.67 C 205.50 6.84 205.50 6.84 193.02 12.54 C 167.64 24.13 141.27 33.44 109.50 42.04 C 100.70 44.42 93.32 46.50 93.11 46.66 C 92.64 47.01 96.93 59.20 97.86 60.17 C 98.49 60.83 118.85 59.86 134.25 58.44 C 142.00 57.72 142.00 57.72 142.00 74.86 C 142.00 92.00 142.00 92.00 114.88 92.00 C 87.76 92.00 87.76 92.00 88.45 103.75 C 88.82 110.21 89.36 116.29 89.63 117.25 C 90.09 118.86 92.23 119.00 116.07 119.00 C 142.00 119.00 142.00 119.00 142.00 160.66 C 142.00 202.31 142.00 202.31 156.25 201.63 C 164.09 201.26 173.20 200.38 176.50 199.69 Z  M 69.19 66.25 C 72.77 62.54 77.27 57.02 79.19 54.00 C 83.01 47.97 88.00 37.49 88.00 35.49 C 88.00 32.76 66.02 21.25 48.83 14.99 C 37.16 10.73 37.16 10.73 31.66 15.58 C 26.17 20.43 26.17 20.43 28.10 22.96 C 36.86 34.47 45.27 46.68 52.71 58.73 C 57.54 66.55 61.76 72.96 62.09 72.98 C 62.41 72.99 65.60 69.96 69.19 66.25 Z "/>
</g>
</svg>