<?xml version="1.0" encoding="UTF-8" standalone="no"?>
<!DOCTYPE svg PUBLIC "-//W3C//DTD SVG 1.1//EN" "http://www.w3.org/Graphics/SVG/1.1/DTD/svg11.dtd" >
<svg xmlns="http://www.w3.org/2000/svg" xmlns:xlink="http://www.w3.org/1999/xlink" version="1.1" viewBox="0 0 256 256">
 <g >
 <path fill="currentColor"
d=" M 82.74 217.75 C 87.12 213.21 87.81 210.63 86.91 202.00 C 86.48 197.88 86.10 183.37 86.06 169.77 C 86.00 145.03 86.00 145.03 94.00 135.18 C 101.08 126.46 103.54 122.00 101.27 122.00 C 100.87 122.00 97.27 125.25 93.27 129.22 C 86.63 135.83 86.00 136.23 86.00 133.85 C 86.00 126.43 86.84 125.24 94.13 122.38 C 103.79 118.59 105.49 115.95 99.11 114.67 C 96.39 114.13 93.19 114.70 88.64 116.55 C 86.93 117.24 86.83 116.93 87.50 112.90 C 87.89 110.48 89.78 101.99 91.68 94.04 C 93.85 85.00 94.93 78.42 94.56 76.47 C 93.72 71.98 90.15 69.12 75.50 61.20 C 68.35 57.33 60.81 52.75 58.75 51.03 C 55.00 47.89 55.00 47.89 55.00 51.31 C 55.00 54.87 55.80 56.08 67.20 69.76 C 71.25 74.62 73.21 77.96 73.95 81.29 C 75.32 87.41 77.18 118.23 76.23 119.15 C 73.68 121.64 31.47 130.25 21.25 130.37 C 17.26 130.42 14.00 130.74 14.00 131.10 C 14.00 132.41 22.92 139.92 26.86 141.93 C 29.09 143.07 32.26 144.00 33.89 144.00 C 35.52 144.00 45.47 140.62 56.00 136.50 C 66.53 132.38 75.56 129.00 76.07 129.00 C 76.58 129.00 77.00 132.35 77.00 136.44 C 77.00 143.87 77.00 143.87 70.43 149.69 C 55.38 162.99 36.02 176.00 31.24 176.00 C 30.16 176.00 28.02 175.02 26.50 173.82 C 23.82 171.71 23.69 171.70 22.37 173.51 C 20.47 176.11 20.66 180.08 23.01 186.76 C 25.44 193.69 28.43 196.87 33.23 197.65 C 36.64 198.20 37.25 197.85 43.48 191.78 C 50.09 185.32 50.09 185.32 55.21 190.91 C 64.37 200.91 67.83 205.90 69.44 211.43 C 71.04 216.96 74.63 221.00 77.94 221.00 C 78.86 221.00 81.02 219.54 82.74 217.75 Z  M 235.42 214.39 C 238.74 213.12 237.20 207.84 230.35 197.00 C 223.13 185.58 222.55 184.52 218.47 175.25 C 216.96 171.81 215.34 169.00 214.86 169.00 C 214.39 169.00 214.00 174.96 213.99 182.25 C 213.99 189.54 213.51 197.24 212.92 199.36 C 211.91 202.98 211.66 203.18 208.78 202.61 C 203.13 201.48 187.41 193.34 183.69 189.62 C 176.59 182.53 173.03 171.61 173.03 157.00 C 173.04 141.52 176.88 129.64 184.48 121.58 C 187.55 118.33 188.08 117.16 187.59 114.72 C 187.04 111.94 178.87 98.65 177.01 97.51 C 176.54 97.21 171.98 99.92 166.88 103.53 C 161.79 107.14 154.89 111.71 151.56 113.70 C 148.23 115.69 144.65 118.03 143.60 118.91 C 141.78 120.44 141.73 120.34 142.36 116.00 C 144.93 98.19 146.99 77.98 146.51 75.31 C 145.70 70.84 138.60 64.82 125.10 57.16 C 113.96 50.84 111.00 50.16 111.00 53.92 C 111.00 57.52 113.12 60.66 119.12 65.94 C 126.07 72.06 128.54 76.43 129.95 85.13 C 131.09 92.12 131.21 112.61 130.16 120.50 C 129.50 125.50 129.50 125.50 121.00 127.69 C 116.33 128.89 110.84 129.91 108.81 129.94 C 104.44 130.01 103.39 131.16 105.77 133.25 C 109.18 136.23 114.43 138.23 120.27 138.76 C 126.21 139.30 126.21 139.30 125.56 143.40 C 125.20 145.65 124.41 149.19 123.80 151.25 C 122.68 155.00 122.68 155.00 112.34 155.00 C 106.65 155.00 102.00 155.36 102.00 155.81 C 102.00 156.25 105.66 158.16 110.12 160.05 C 114.59 161.94 118.46 164.05 118.73 164.73 C 119.51 166.77 113.58 178.30 106.06 189.35 C 97.12 202.48 96.93 204.12 104.84 200.08 C 110.48 197.20 120.92 185.47 125.99 176.31 C 129.96 169.14 130.71 168.31 132.38 169.20 C 136.29 171.29 140.24 171.94 142.38 170.84 C 149.78 167.03 151.15 161.49 145.54 158.03 C 143.64 156.85 140.49 155.63 138.54 155.31 C 136.59 155.00 135.00 154.46 134.99 154.12 C 134.99 153.78 135.95 149.19 137.12 143.92 C 139.26 134.33 139.26 134.33 150.44 127.17 C 156.60 123.22 162.09 120.00 162.66 120.00 C 163.33 120.00 163.66 127.96 163.62 143.25 C 163.54 169.30 164.60 176.65 170.04 187.71 C 175.99 199.83 193.33 210.82 213.08 214.98 C 217.53 215.92 232.47 215.53 235.42 214.39 Z  M 73.00 192.80 C 64.63 189.22 51.96 182.65 52.21 182.03 C 52.37 181.62 58.01 175.51 64.75 168.45 C 77.00 155.60 77.00 155.60 77.00 174.80 C 77.00 185.36 76.66 193.97 76.25 193.93 C 75.84 193.90 74.38 193.38 73.00 192.80 Z "/>
</g>
</svg>