<?xml version="1.0" encoding="UTF-8" standalone="no"?>
<!DOCTYPE svg PUBLIC "-//W3C//DTD SVG 1.1//EN" "http://www.w3.org/Graphics/SVG/1.1/DTD/svg11.dtd" >
<svg xmlns="http://www.w3.org/2000/svg" xmlns:xlink="http://www.w3.org/1999/xlink" version="1.1" viewBox="0 0 256 256">
 <g >
 <path fill="currentColor"
d=" M 82.37 220.34 C 95.27 212.63 106.00 202.24 114.49 189.25 C 117.26 185.00 117.26 185.00 121.07 188.45 C 127.32 194.09 130.22 194.39 151.18 191.58 C 173.79 188.54 202.08 186.09 220.16 185.60 C 227.67 185.40 234.31 184.93 234.91 184.56 C 238.03 182.63 233.45 177.83 224.94 174.12 C 220.50 172.18 220.50 172.18 206.26 175.00 C 198.42 176.54 189.69 178.13 186.86 178.52 C 181.70 179.23 181.70 179.23 182.34 175.36 C 182.69 173.24 182.98 166.07 182.99 159.43 C 183.00 147.37 183.00 147.37 197.75 146.11 C 213.47 144.78 216.00 143.84 216.00 139.37 C 216.00 136.63 212.65 134.16 207.27 132.95 C 204.36 132.29 201.58 132.65 195.04 134.55 C 183.38 137.93 183.73 138.03 184.54 131.52 C 185.55 123.43 184.77 121.62 178.76 118.23 C 175.87 116.60 171.18 113.18 168.35 110.63 C 164.02 106.73 161.00 104.96 161.00 106.32 C 161.00 107.56 164.74 117.55 167.08 122.54 C 168.80 126.23 170.02 130.67 170.20 133.99 C 170.50 139.41 170.50 139.41 165.00 140.67 C 161.97 141.36 155.14 142.48 149.81 143.15 C 144.48 143.83 140.35 144.75 140.63 145.21 C 140.91 145.67 143.47 147.38 146.32 149.01 C 152.05 152.30 155.22 152.57 164.50 150.59 C 168.82 149.66 170.68 149.61 171.12 150.40 C 172.13 152.18 173.18 172.52 172.46 176.36 C 171.70 180.43 171.63 180.46 156.50 181.94 C 137.44 183.82 119.00 184.40 119.00 183.14 C 119.00 182.50 121.96 176.06 125.59 168.83 C 129.21 161.60 133.65 152.02 135.46 147.54 C 138.70 139.50 143.00 123.28 143.00 119.11 C 143.00 116.37 138.21 113.41 131.23 111.85 C 124.30 110.30 122.89 111.47 125.87 116.29 C 128.41 120.39 128.53 124.50 126.44 134.63 C 121.00 160.95 104.55 190.09 81.87 213.53 C 76.99 218.57 73.00 222.99 73.00 223.35 C 73.00 224.92 76.69 223.73 82.37 220.34 Z  M 88.21 191.05 C 90.69 189.10 90.69 189.10 90.29 156.30 C 89.89 123.50 89.89 123.50 100.96 134.81 C 109.93 143.99 112.41 146.01 114.07 145.48 C 117.38 144.43 118.38 140.28 116.50 135.37 C 114.49 130.09 112.91 129.08 100.25 124.93 C 90.00 121.57 90.00 121.57 90.00 115.90 C 90.00 110.22 90.00 110.22 97.75 108.16 C 102.01 107.03 106.85 105.79 108.50 105.41 C 110.15 105.03 112.08 104.27 112.78 103.72 C 113.69 103.00 114.70 103.29 116.28 104.73 C 121.90 109.85 128.33 110.30 141.07 106.46 C 166.76 98.73 190.12 94.01 202.68 94.00 C 209.97 94.00 210.93 93.78 211.50 92.01 C 212.34 89.35 211.68 88.48 206.50 85.45 C 200.79 82.10 198.59 82.14 186.00 85.82 C 160.29 93.32 130.09 100.00 121.87 100.00 C 119.16 100.00 114.39 99.10 111.26 98.00 C 104.19 95.52 101.66 95.52 96.14 98.02 C 93.74 99.11 91.55 100.00 91.28 100.00 C 90.06 100.00 91.84 65.30 93.28 60.95 C 95.26 54.96 93.85 51.51 87.43 46.60 C 82.38 42.75 70.28 36.38 69.50 37.17 C 69.24 37.43 70.56 40.76 72.44 44.57 C 78.93 57.78 79.33 59.75 79.97 82.00 C 80.29 93.28 80.30 102.84 79.98 103.25 C 79.15 104.32 47.87 113.03 39.00 114.65 C 32.43 115.86 30.53 115.83 23.73 114.44 C 13.07 112.27 11.95 112.61 15.56 116.89 C 18.77 120.71 26.00 124.40 33.58 126.10 C 38.53 127.21 39.19 127.07 58.40 120.62 C 69.26 116.98 78.85 114.00 79.71 114.00 C 81.11 114.00 81.23 116.87 80.79 140.52 C 80.52 155.11 80.04 167.29 79.74 167.60 C 79.43 167.90 75.09 167.26 70.09 166.18 C 65.09 165.09 61.00 164.31 61.00 164.43 C 61.00 164.56 64.82 169.76 69.50 176.00 C 74.17 182.24 78.00 188.14 78.00 189.12 C 78.00 192.99 84.24 194.17 88.21 191.05 Z  M 23.71 173.87 C 32.07 170.80 44.01 163.51 53.37 155.77 C 57.84 152.07 64.10 146.92 67.28 144.34 C 74.37 138.56 75.04 136.45 71.61 130.59 C 68.94 126.04 62.24 119.74 60.93 120.54 C 60.53 120.79 59.65 123.36 58.97 126.25 C 56.10 138.43 52.48 142.45 16.50 173.36 C 13.67 175.79 13.63 175.94 15.71 175.97 C 16.93 175.99 20.53 175.04 23.71 173.87 Z  M 171.82 84.18 C 175.76 80.24 181.00 70.93 181.00 67.88 C 181.00 62.86 162.55 49.07 151.08 45.51 C 148.85 44.82 148.94 45.09 152.28 49.17 C 158.08 56.25 160.98 63.47 160.99 70.88 C 161.00 74.40 160.49 78.97 159.86 81.06 C 158.24 86.47 159.15 88.00 163.97 88.00 C 167.31 88.00 168.66 87.34 171.82 84.18 Z "/>
</g>
</svg>