<?xml version="1.0" encoding="UTF-8" standalone="no"?>
<!DOCTYPE svg PUBLIC "-//W3C//DTD SVG 1.1//EN" "http://www.w3.org/Graphics/SVG/1.1/DTD/svg11.dtd" >
<svg xmlns="http://www.w3.org/2000/svg" xmlns:xlink="http://www.w3.org/1999/xlink" version="1.1" viewBox="0 0 256 256">
 <g >
 <path fill="currentColor"
d=" M 131.69 204.83 C 132.96 203.63 134.00 202.11 134.00 201.46 C 134.00 200.04 137.26 199.45 152.85 198.04 C 185.91 195.05 200.22 194.02 201.10 194.56 C 202.52 195.44 205.00 193.09 205.00 190.88 C 205.00 189.84 204.10 188.10 203.00 187.00 C 201.90 185.90 201.00 184.74 201.00 184.43 C 201.00 183.17 207.63 174.35 213.15 168.25 C 216.38 164.69 219.28 160.75 219.59 159.50 C 221.15 153.28 209.34 142.00 197.58 138.50 C 194.02 137.43 192.85 137.64 184.58 140.76 C 172.85 145.19 171.91 145.47 156.50 149.08 C 149.35 150.75 140.00 152.39 135.72 152.71 C 130.71 153.08 128.06 153.68 128.28 154.40 C 128.48 155.00 131.08 157.00 134.07 158.83 C 139.27 162.03 139.82 162.14 147.00 161.63 C 151.25 161.33 161.44 159.18 170.50 156.66 C 179.30 154.22 186.84 152.43 187.25 152.67 C 188.68 153.52 187.83 165.55 185.67 175.00 C 183.09 186.30 184.62 185.41 161.00 189.36 C 132.67 194.10 135.73 195.05 133.84 180.85 C 132.21 168.51 132.21 168.51 127.97 164.86 C 123.13 160.70 105.97 150.90 104.78 151.63 C 103.12 152.66 104.12 156.76 106.60 159.08 C 113.04 165.09 118.00 179.54 118.00 192.27 C 118.00 198.52 118.31 199.60 121.08 203.11 C 124.68 207.64 128.10 208.20 131.69 204.83 Z  M 55.23 196.49 C 59.24 193.76 62.67 188.54 65.95 180.17 C 67.09 177.24 72.75 165.37 78.52 153.78 C 84.28 142.19 89.00 131.88 89.00 130.86 C 89.00 127.53 86.34 128.89 81.37 134.75 C 75.21 142.02 47.93 171.40 46.99 171.79 C 44.95 172.61 39.93 155.26 39.82 147.00 C 39.68 136.79 34.31 149.18 33.32 162.00 C 32.43 173.58 36.64 184.69 45.94 195.28 C 47.74 197.33 49.73 199.00 50.37 199.00 C 51.01 199.00 53.20 197.87 55.23 196.49 Z  M 113.87 136.64 C 116.97 134.80 121.97 132.37 125.00 131.24 C 150.31 121.81 158.28 118.96 163.34 117.54 C 170.41 115.55 180.00 111.26 180.00 110.09 C 180.00 108.30 176.76 106.68 173.44 106.81 C 171.53 106.88 164.92 108.51 158.74 110.42 C 139.08 116.51 121.79 121.13 121.14 120.45 C 120.20 119.50 150.52 91.82 158.75 86.12 C 163.53 82.80 163.21 78.78 157.50 70.10 C 152.66 62.76 144.02 54.00 141.61 54.00 C 139.35 54.00 138.66 57.61 138.90 68.15 C 139.12 77.23 138.94 78.18 135.94 84.15 C 134.19 87.64 131.14 92.75 129.16 95.50 C 123.92 102.78 109.52 118.24 104.41 122.07 C 100.04 125.34 100.00 125.42 100.00 131.49 C 100.00 134.91 100.53 138.13 101.20 138.80 C 103.31 140.91 108.08 140.10 113.87 136.64 Z  M 57.68 127.66 C 65.64 121.80 74.02 113.38 78.46 106.78 C 85.14 96.87 83.01 90.23 68.60 76.01 C 60.46 67.98 58.71 66.69 57.24 67.61 C 54.71 69.20 54.63 72.02 56.89 79.69 C 57.99 83.43 59.43 89.42 60.07 93.00 C 61.61 101.49 59.85 108.83 53.01 122.54 C 50.26 128.06 48.00 132.91 48.00 133.32 C 48.00 134.39 50.63 132.84 57.68 127.66 Z  M 201.76 122.75 C 202.92 121.51 204.35 119.23 204.93 117.68 C 206.46 113.65 206.25 105.38 204.53 102.06 C 201.73 96.64 179.19 81.00 174.19 81.00 C 171.39 81.00 171.43 81.35 174.83 86.89 C 179.54 94.54 184.76 109.06 186.44 119.11 C 187.14 123.31 189.53 124.83 195.58 124.93 C 198.57 124.98 200.21 124.40 201.76 122.75 Z "/>
</g>
</svg>