<?xml version="1.0" encoding="UTF-8" standalone="no"?>
<!DOCTYPE svg PUBLIC "-//W3C//DTD SVG 1.1//EN" "http://www.w3.org/Graphics/SVG/1.1/DTD/svg11.dtd" >
<svg xmlns="http://www.w3.org/2000/svg" xmlns:xlink="http://www.w3.org/1999/xlink" version="1.1" viewBox="0 0 256 256">
 <g >
 <path fill="currentColor"
d=" M 198.00 233.00 C 200.69 230.31 200.56 225.13 197.71 220.90 C 195.99 218.34 193.83 216.93 188.96 215.17 C 180.36 212.08 156.61 206.00 153.21 206.02 C 150.83 206.03 151.12 206.38 155.63 208.87 C 166.03 214.60 177.22 223.59 179.54 228.07 C 182.57 233.94 194.01 236.99 198.00 233.00 Z  M 103.88 223.39 C 119.59 220.58 132.54 214.41 140.42 205.98 C 146.62 199.36 148.54 194.73 151.95 178.23 C 153.50 170.68 155.10 163.28 155.49 161.80 C 156.13 159.35 155.70 158.78 150.83 155.67 C 145.62 152.34 137.43 149.00 134.47 149.00 C 132.10 149.00 132.75 150.99 136.67 155.77 C 140.28 160.18 140.34 160.38 140.14 168.35 C 139.60 190.24 132.65 202.14 115.33 210.83 C 107.95 214.53 89.73 220.92 82.00 222.51 C 76.73 223.60 76.11 224.41 80.00 225.15 C 84.37 225.97 93.00 225.33 103.88 223.39 Z  M 173.06 203.97 C 177.15 201.78 178.00 197.97 178.09 181.30 C 178.21 159.62 179.42 143.42 181.34 137.68 C 182.93 132.91 182.92 132.83 180.54 130.62 C 179.21 129.39 175.96 127.23 173.31 125.81 C 168.50 123.24 168.50 123.24 153.00 127.63 C 135.57 132.57 119.95 136.28 119.30 135.63 C 118.57 134.90 123.65 125.62 125.89 123.60 C 128.77 121.00 128.55 119.69 124.70 116.31 C 119.75 111.97 115.28 110.34 112.71 111.95 C 110.48 113.34 97.32 118.00 95.62 118.00 C 95.05 118.00 96.54 116.01 98.92 113.58 C 102.43 110.00 103.14 108.69 102.63 106.68 C 102.10 104.55 102.47 104.03 105.15 103.10 C 106.88 102.49 109.05 102.00 109.97 102.00 C 110.89 102.00 113.97 101.31 116.82 100.46 C 122.96 98.64 123.82 96.00 118.95 93.98 C 116.59 93.00 115.03 92.97 112.08 93.86 C 106.87 95.42 107.00 95.50 107.00 90.97 C 107.00 86.34 106.47 86.65 118.89 84.01 C 128.31 82.01 131.00 80.80 131.00 78.54 C 131.00 76.96 126.66 75.00 123.20 75.01 C 121.72 75.02 118.29 75.69 115.59 76.51 C 108.97 78.52 109.00 78.53 109.00 74.15 C 109.00 70.29 109.00 70.29 119.68 68.40 C 125.55 67.35 130.97 65.88 131.73 65.13 C 133.85 63.01 132.83 60.69 128.82 58.54 C 125.16 56.57 125.16 56.57 118.83 58.80 C 115.35 60.02 111.94 61.02 111.25 61.01 C 109.47 61.00 109.64 52.11 111.50 47.65 C 114.16 41.30 113.53 38.41 108.75 34.88 C 99.77 28.26 86.99 24.90 84.10 28.38 C 82.48 30.33 83.77 32.31 88.14 34.57 C 89.95 35.51 91.31 37.32 92.02 39.76 C 93.56 45.01 95.82 63.34 95.05 64.25 C 94.27 65.15 71.59 70.36 60.75 72.13 C 56.49 72.82 53.00 73.70 53.00 74.07 C 53.00 75.13 62.60 79.00 65.19 78.98 C 66.46 78.97 73.57 77.62 80.99 75.98 C 88.40 74.34 95.07 73.00 95.79 73.00 C 96.73 73.00 97.03 74.24 96.81 77.25 C 96.50 81.50 96.50 81.50 89.50 83.22 C 85.65 84.17 77.55 85.93 71.50 87.13 C 65.45 88.33 60.31 89.46 60.08 89.66 C 59.10 90.47 64.37 94.82 66.97 95.34 C 68.67 95.68 74.99 94.54 82.89 92.45 C 90.09 90.55 96.47 89.00 97.05 89.00 C 97.68 89.00 97.99 90.72 97.81 93.25 C 97.50 97.50 97.50 97.50 80.00 102.81 C 59.89 108.92 28.78 117.00 25.34 117.00 C 22.57 117.00 22.29 119.06 24.75 121.24 C 26.88 123.13 35.17 126.00 38.49 126.00 C 39.82 126.00 50.89 122.39 63.09 117.97 C 75.29 113.55 85.50 110.16 85.78 110.44 C 86.06 110.72 81.83 115.35 76.39 120.73 C 66.06 130.94 50.99 141.89 36.73 149.55 C 29.21 153.58 28.79 153.97 31.82 153.98 C 35.98 154.00 48.13 149.97 56.23 145.88 C 65.34 141.29 79.89 132.10 84.14 128.26 C 87.38 125.33 88.33 124.97 91.37 125.54 C 93.74 125.99 97.33 125.47 102.45 123.95 C 106.62 122.71 110.28 121.95 110.58 122.25 C 111.27 122.94 105.91 133.65 103.21 136.99 C 101.20 139.47 101.20 139.47 96.05 137.62 C 93.22 136.60 90.72 135.94 90.51 136.16 C 89.55 137.11 97.05 156.52 98.49 156.83 C 99.33 157.00 101.53 156.22 103.38 155.08 C 105.23 153.93 107.04 153.00 107.42 153.00 C 107.79 153.00 108.76 154.57 109.56 156.50 C 110.78 159.41 110.85 162.05 109.99 172.25 C 109.42 178.99 108.71 185.85 108.42 187.50 C 108.02 189.74 108.72 191.88 111.20 196.00 C 115.41 202.98 117.63 203.22 120.75 197.04 C 122.87 192.84 123.00 191.35 123.00 171.88 C 123.00 151.18 123.00 151.18 119.92 148.59 C 118.23 147.17 116.21 146.00 115.42 146.00 C 113.67 146.00 113.58 143.95 115.25 141.69 C 116.36 140.18 117.13 140.12 122.22 141.20 C 127.60 142.33 128.95 142.16 145.22 138.35 C 154.72 136.13 162.83 134.59 163.24 134.94 C 165.15 136.59 166.04 148.69 165.96 172.20 C 165.88 197.48 166.12 199.79 169.26 203.75 C 170.45 205.26 170.62 205.27 173.06 203.97 Z  M 219.50 116.90 C 221.91 116.29 224.68 114.91 225.66 113.83 C 227.26 112.06 227.29 111.60 225.97 109.27 C 225.16 107.85 222.03 105.35 219.00 103.71 C 212.30 100.08 201.55 98.30 180.75 97.36 C 172.64 96.99 166.00 96.40 166.00 96.04 C 166.00 95.68 167.61 93.84 169.58 91.95 C 173.91 87.78 180.00 79.67 180.00 78.08 C 180.00 77.44 177.93 74.92 175.41 72.46 C 172.88 70.01 170.97 67.98 171.16 67.95 C 171.35 67.92 176.81 67.50 183.30 67.03 C 195.86 66.11 200.00 64.60 200.00 60.96 C 200.00 58.64 195.04 55.30 190.26 54.39 C 187.74 53.92 183.90 55.03 172.89 59.44 C 165.12 62.55 158.62 64.95 158.44 64.78 C 158.27 64.60 160.34 60.64 163.04 55.98 C 165.74 51.32 167.97 46.40 167.98 45.07 C 168.00 42.24 160.56 34.61 154.81 31.56 C 151.76 29.95 150.89 29.84 149.58 30.94 C 147.56 32.61 147.59 35.02 149.68 41.66 C 151.27 46.71 151.27 47.31 149.56 52.75 C 146.46 62.65 139.90 74.56 129.72 88.81 C 126.45 93.38 124.05 97.39 124.39 97.72 C 126.39 99.72 143.17 87.09 150.15 78.31 C 152.91 74.84 155.70 71.99 156.34 71.99 C 156.98 71.98 158.41 71.73 159.52 71.43 C 161.21 70.98 161.75 71.64 162.93 75.64 C 164.52 81.00 163.89 82.66 157.00 91.46 C 153.50 95.92 153.50 95.92 144.00 96.04 C 135.11 96.15 134.69 96.25 137.50 97.54 C 139.15 98.29 142.47 98.93 144.87 98.95 C 148.74 98.99 149.09 99.18 147.93 100.58 C 147.21 101.45 142.55 104.87 137.56 108.19 C 128.50 114.22 128.50 114.22 133.44 113.52 C 139.89 112.61 146.78 109.84 153.82 105.34 C 159.50 101.70 159.50 101.70 165.50 102.94 C 173.91 104.66 191.10 110.37 200.00 114.40 C 208.08 118.05 212.61 118.63 219.50 116.90 Z "/>
</g>
</svg>