<?xml version="1.0" encoding="UTF-8" standalone="no"?>
<!DOCTYPE svg PUBLIC "-//W3C//DTD SVG 1.1//EN" "http://www.w3.org/Graphics/SVG/1.1/DTD/svg11.dtd" >
<svg xmlns="http://www.w3.org/2000/svg" xmlns:xlink="http://www.w3.org/1999/xlink" version="1.1" viewBox="0 0 256 256">
 <g >
 <path fill="currentColor"
d=" M 198.03 206.20 C 206.91 197.32 203.58 185.27 188.60 172.07 C 181.69 165.99 172.77 159.62 169.33 158.30 C 167.58 157.63 167.57 157.70 169.24 160.05 C 172.01 163.96 177.73 174.30 178.44 176.67 C 178.91 178.24 178.59 178.99 177.29 179.40 C 174.87 180.15 116.50 190.00 114.45 190.00 C 113.56 190.00 112.98 189.59 113.17 189.09 C 113.84 187.23 130.80 172.65 140.00 166.01 C 145.22 162.24 152.99 155.86 157.25 151.83 C 164.35 145.11 165.00 144.17 165.00 140.58 C 165.00 136.90 164.31 135.99 153.35 125.33 C 146.94 119.10 140.89 114.00 139.90 114.00 C 136.44 114.00 136.10 116.93 138.67 124.42 C 143.12 137.37 140.21 145.33 124.98 161.88 C 115.10 172.61 100.92 185.45 96.25 187.89 C 93.53 189.32 93.45 191.23 95.91 196.50 C 99.76 204.74 98.82 204.56 114.01 200.08 C 121.43 197.90 136.28 194.53 147.00 192.59 C 157.72 190.66 169.54 188.44 173.26 187.66 C 177.28 186.82 180.26 186.61 180.60 187.16 C 180.91 187.67 181.26 191.94 181.38 196.66 C 181.57 204.67 181.77 205.40 184.35 207.62 C 188.68 211.35 193.38 210.86 198.03 206.20 Z  M 27.55 201.15 C 44.77 192.82 70.45 173.99 89.83 155.50 C 99.78 146.00 125.85 117.89 129.93 112.26 C 131.92 109.51 133.83 108.08 136.15 107.61 C 152.57 104.27 170.28 101.80 184.50 100.87 C 201.12 99.79 201.79 99.82 214.41 102.38 C 221.51 103.82 228.58 105.00 230.12 105.00 C 233.11 105.00 235.00 102.70 235.00 99.07 C 235.00 95.44 228.45 89.39 221.50 86.61 C 212.03 82.82 208.38 82.48 202.42 84.83 C 197.28 86.86 142.39 99.32 140.95 98.79 C 140.07 98.46 149.90 85.86 156.38 79.00 C 162.25 72.80 164.00 70.00 164.00 66.87 C 164.00 63.79 159.87 59.83 154.13 57.38 C 150.78 55.95 149.80 55.99 141.50 57.84 C 136.55 58.95 127.99 60.59 122.48 61.50 C 113.59 62.96 111.97 62.98 108.23 61.69 C 102.90 59.85 102.58 61.31 107.16 66.52 C 111.89 71.92 117.74 75.44 125.25 77.43 C 133.41 79.60 133.57 80.27 128.48 90.90 C 123.27 101.78 121.64 103.71 117.26 104.25 C 115.19 104.50 105.62 106.33 96.00 108.31 C 75.07 112.62 55.40 115.00 40.75 115.00 C 34.84 115.00 30.00 115.41 30.00 115.91 C 30.00 118.28 36.99 122.25 46.21 125.11 C 58.87 129.05 59.67 128.96 89.50 120.53 C 102.15 116.95 112.87 114.02 113.32 114.01 C 114.64 113.99 102.94 127.69 90.33 140.92 C 72.99 159.12 46.67 181.83 25.95 196.47 C 20.75 200.14 16.35 203.57 16.17 204.07 C 15.47 206.00 19.88 204.87 27.55 201.15 Z "/>
</g>
</svg>