<?xml version="1.0" encoding="UTF-8" standalone="no"?>
<!DOCTYPE svg PUBLIC "-//W3C//DTD SVG 1.1//EN" "http://www.w3.org/Graphics/SVG/1.1/DTD/svg11.dtd" >
<svg xmlns="http://www.w3.org/2000/svg" xmlns:xlink="http://www.w3.org/1999/xlink" version="1.1" viewBox="0 0 256 256">
 <g >
 <path fill="currentColor"
d=" M 98.76 189.77 C 98.50 145.53 98.50 145.53 94.56 144.89 C 92.07 144.49 89.76 143.26 88.31 141.57 C 86.13 139.04 86.00 138.09 86.00 124.39 C 86.00 107.39 86.85 104.69 92.75 103.05 C 94.81 102.48 97.06 102.01 97.75 102.01 C 98.72 102.00 99.00 95.23 99.00 71.50 C 99.00 47.77 98.72 41.00 97.75 40.99 C 97.06 40.99 94.81 40.52 92.75 39.95 C 86.75 38.28 86.00 35.75 86.00 17.05 C 86.00 1.00 86.00 1.00 54.50 1.00 C 23.00 1.00 23.00 1.00 22.99 17.25 C 22.97 36.45 22.52 37.85 15.75 40.00 C 11.01 41.50 11.01 41.50 11.01 71.70 C 11.00 101.91 11.00 101.91 14.42 102.55 C 16.29 102.90 18.88 104.31 20.17 105.67 C 22.37 108.02 22.52 109.02 22.82 123.58 C 23.14 139.01 23.14 139.01 20.15 142.01 C 18.12 144.03 16.16 145.00 14.08 145.00 C 11.00 145.00 11.00 145.00 11.00 189.50 C 11.00 234.00 11.00 234.00 55.01 234.00 C 99.02 234.00 99.02 234.00 98.76 189.77 Z  M 150.63 178.50 C 155.77 123.50 155.77 123.50 155.89 178.75 C 156.00 234.00 156.00 234.00 200.00 234.00 C 244.00 234.00 244.00 234.00 244.00 198.00 C 244.00 162.00 244.00 162.00 230.00 162.00 C 216.00 162.00 216.00 162.00 216.00 168.53 C 216.00 173.66 215.65 175.20 214.36 175.69 C 209.82 177.43 207.45 169.96 210.80 164.50 C 212.30 162.07 215.58 160.27 228.08 154.97 C 243.50 148.43 243.50 148.43 243.77 122.72 C 243.91 108.57 243.69 97.00 243.27 97.00 C 242.85 97.00 236.54 99.48 229.26 102.50 C 211.17 110.01 209.00 109.84 209.00 100.92 C 209.00 97.00 209.00 97.00 183.42 97.00 C 163.40 97.00 157.92 96.73 158.25 95.75 C 159.38 92.33 162.98 92.03 203.75 92.01 C 244.00 92.00 244.00 92.00 244.00 46.50 C 244.00 1.00 244.00 1.00 172.00 1.00 C 100.00 1.00 100.00 1.00 100.00 3.77 C 100.00 5.30 102.24 37.25 104.98 74.77 C 108.51 123.28 109.67 143.75 108.97 145.59 C 108.41 147.04 106.67 148.68 104.99 149.31 C 102.00 150.44 102.00 150.44 102.00 192.24 C 102.00 234.04 102.00 234.04 123.74 233.77 C 145.49 233.50 145.49 233.50 150.63 178.50 Z  M 166.02 51.11 C 164.65 50.73 162.88 49.25 162.07 47.82 C 160.78 45.51 160.80 44.95 162.33 42.62 C 163.95 40.14 164.49 40.00 172.40 40.00 C 181.85 40.00 183.33 40.88 182.82 46.16 C 182.59 48.49 181.77 49.82 180.00 50.71 C 177.34 52.05 170.13 52.26 166.02 51.11 Z "/>
</g>
</svg>