<?xml version="1.0" encoding="UTF-8" standalone="no"?>
<!DOCTYPE svg PUBLIC "-//W3C//DTD SVG 1.1//EN" "http://www.w3.org/Graphics/SVG/1.1/DTD/svg11.dtd" >
<svg xmlns="http://www.w3.org/2000/svg" xmlns:xlink="http://www.w3.org/1999/xlink" version="1.1" viewBox="0 0 256 256">
 <g >
 <path fill="currentColor"
d=" M 76.42 228.10 C 80.07 223.14 81.67 222.00 85.03 222.00 C 87.57 222.00 90.00 225.76 90.00 229.72 C 90.00 233.00 90.00 233.00 99.51 233.00 C 109.02 233.00 109.02 233.00 108.76 192.75 C 108.50 152.50 108.50 152.50 99.25 152.21 C 90.00 151.92 90.00 151.92 90.00 155.40 C 90.00 162.66 86.17 167.32 83.36 163.47 C 81.92 161.51 81.48 150.32 82.77 148.40 C 84.47 145.85 88.37 145.00 98.43 145.00 C 109.00 145.00 109.00 145.00 109.00 83.50 C 109.00 22.00 109.00 22.00 98.13 22.00 C 88.66 22.00 86.93 21.74 84.63 19.93 C 82.16 17.98 82.00 17.34 82.00 9.43 C 82.00 1.00 82.00 1.00 60.00 1.00 C 38.00 1.00 38.00 1.00 38.00 9.05 C 38.00 16.25 37.74 17.35 35.55 19.55 C 33.24 21.86 32.44 22.00 22.05 22.00 C 11.00 22.00 11.00 22.00 11.00 83.41 C 11.00 144.83 11.00 144.83 22.59 145.16 C 33.36 145.48 34.32 145.67 36.09 147.86 C 38.81 151.22 38.72 159.81 35.93 163.37 C 33.90 165.94 33.58 166.00 22.43 166.00 C 11.00 166.00 11.00 166.00 11.00 199.50 C 11.00 233.00 11.00 233.00 41.91 233.00 C 72.83 233.00 72.83 233.00 76.42 228.10 Z  M 244.00 170.50 C 244.00 108.00 244.00 108.00 236.07 108.00 C 227.36 108.00 225.00 106.81 225.00 102.40 C 225.00 99.16 228.19 98.00 237.07 98.00 C 244.00 98.00 244.00 98.00 244.00 86.00 C 244.00 74.00 244.00 74.00 235.62 74.00 C 226.33 74.00 224.30 72.91 225.41 68.51 C 226.02 66.06 226.26 66.00 235.02 66.00 C 244.00 66.00 244.00 66.00 244.00 53.50 C 244.00 41.00 244.00 41.00 237.25 40.99 C 228.40 40.97 226.11 40.27 225.38 37.37 C 224.31 33.10 226.41 32.00 235.62 32.00 C 244.00 32.00 244.00 32.00 244.00 16.50 C 244.00 1.00 244.00 1.00 178.50 1.00 C 113.00 1.00 113.00 1.00 113.00 71.50 C 113.00 142.00 113.00 142.00 150.37 142.00 C 186.65 142.00 187.81 142.06 190.37 144.07 C 193.00 146.15 193.00 146.15 193.00 165.57 C 193.00 183.67 192.86 185.14 191.00 187.00 C 189.07 188.93 187.67 189.00 151.00 189.00 C 113.00 189.00 113.00 189.00 113.00 211.00 C 113.00 233.00 113.00 233.00 178.50 233.00 C 244.00 233.00 244.00 233.00 244.00 170.50 Z  M 129.77 166.25 C 129.50 149.50 129.50 149.50 121.25 149.21 C 113.00 148.92 113.00 148.92 113.00 165.96 C 113.00 183.00 113.00 183.00 121.52 183.00 C 130.05 183.00 130.05 183.00 129.77 166.25 Z  M 149.00 165.96 C 149.00 148.92 149.00 148.92 140.75 149.21 C 132.50 149.50 132.50 149.50 132.23 166.25 C 131.95 183.00 131.95 183.00 140.48 183.00 C 149.00 183.00 149.00 183.00 149.00 165.96 Z  M 169.00 165.96 C 169.00 148.92 169.00 148.92 161.25 149.21 C 153.50 149.50 153.50 149.50 153.23 166.25 C 152.95 183.00 152.95 183.00 160.98 183.00 C 169.00 183.00 169.00 183.00 169.00 165.96 Z  M 190.00 166.00 C 190.00 149.00 190.00 149.00 181.50 149.00 C 173.00 149.00 173.00 149.00 173.00 166.00 C 173.00 183.00 173.00 183.00 181.50 183.00 C 190.00 183.00 190.00 183.00 190.00 166.00 Z  M 37.00 90.99 C 36.39 89.87 36.05 85.16 36.21 80.24 C 36.50 71.50 36.50 71.50 40.15 71.20 C 43.03 70.96 44.15 71.38 45.40 73.17 C 47.56 76.25 47.59 87.72 45.44 90.78 C 43.42 93.67 38.50 93.80 37.00 90.99 Z  M 76.13 91.65 C 75.33 90.69 75.02 87.06 75.21 80.85 C 75.50 71.50 75.50 71.50 79.15 71.20 C 84.19 70.78 86.00 73.51 85.99 81.47 C 85.97 89.23 84.40 92.41 80.39 92.80 C 78.61 92.98 76.83 92.50 76.13 91.65 Z  M 163.49 105.62 C 160.58 101.19 165.31 96.69 170.98 98.49 C 172.77 99.06 173.06 99.82 172.80 103.33 C 172.51 107.35 172.37 107.51 168.81 107.81 C 165.80 108.06 164.82 107.66 163.49 105.62 Z  M 162.83 71.53 C 161.15 67.83 163.25 65.82 168.41 66.20 C 172.35 66.49 172.51 66.64 172.81 70.25 C 173.12 74.00 173.12 74.00 168.54 74.00 C 164.64 74.00 163.79 73.63 162.83 71.53 Z  M 163.57 39.43 C 160.02 35.87 162.87 31.71 168.54 32.18 C 172.24 32.48 172.52 32.73 172.82 35.90 C 173.02 37.94 172.62 39.62 171.82 40.13 C 169.67 41.49 165.26 41.12 163.57 39.43 Z "/>
</g>
</svg>