<?xml version="1.0" encoding="UTF-8" standalone="no"?>
<!DOCTYPE svg PUBLIC "-//W3C//DTD SVG 1.1//EN" "http://www.w3.org/Graphics/SVG/1.1/DTD/svg11.dtd" >
<svg xmlns="http://www.w3.org/2000/svg" xmlns:xlink="http://www.w3.org/1999/xlink" version="1.1" viewBox="0 0 256 256">
 <g >
 <path fill="currentColor"
d=" M 136.18 207.00 C 138.75 192.43 140.89 179.54 140.93 178.36 C 140.99 176.36 140.43 176.19 132.90 175.84 C 125.50 175.51 124.60 175.24 122.40 172.68 C 120.23 170.16 120.00 168.97 120.00 160.50 C 120.00 152.18 120.26 150.83 122.25 148.59 C 125.58 144.86 129.16 144.36 132.37 147.18 C 134.64 149.17 136.73 155.45 147.21 191.75 C 159.41 234.00 159.41 234.00 201.71 234.00 C 244.00 234.00 244.00 234.00 244.00 205.00 C 244.00 176.00 244.00 176.00 232.19 176.00 C 223.83 176.00 219.84 175.60 218.53 174.64 C 214.86 171.96 217.41 170.40 229.16 168.10 C 235.40 166.88 241.29 165.65 242.25 165.37 C 243.84 164.91 244.00 163.11 244.00 146.04 C 244.00 127.22 244.00 127.22 227.91 130.61 C 219.06 132.47 210.25 134.00 208.34 134.00 C 203.86 134.00 201.00 132.44 201.00 129.99 C 201.00 128.15 200.06 128.03 182.96 127.77 C 165.11 127.50 164.93 127.48 166.37 125.50 C 167.79 123.57 169.17 123.49 205.92 123.20 C 244.00 122.91 244.00 122.91 244.00 90.95 C 244.00 59.00 244.00 59.00 206.19 59.00 C 166.49 59.00 163.75 58.71 165.31 54.64 C 165.88 53.16 169.67 53.00 204.97 53.00 C 244.00 53.00 244.00 53.00 244.00 32.50 C 244.00 12.00 244.00 12.00 226.75 11.99 C 206.04 11.97 204.41 11.47 204.69 5.19 C 204.88 1.00 204.88 1.00 127.39 1.00 C 49.91 1.00 49.91 1.00 50.48 4.25 C 51.66 11.04 48.87 12.00 28.07 12.00 C 11.00 12.00 11.00 12.00 11.00 32.50 C 11.00 53.00 11.00 53.00 48.89 53.00 C 88.36 53.00 89.40 53.11 86.94 57.09 C 86.23 58.25 79.53 58.55 48.54 58.78 C 11.00 59.07 11.00 59.07 11.00 91.03 C 11.00 123.00 11.00 123.00 47.17 123.00 C 79.43 123.00 83.54 123.18 85.17 124.65 C 86.18 125.57 87.00 126.69 87.00 127.15 C 87.00 127.62 78.07 128.00 67.15 128.00 C 47.30 128.00 47.30 128.00 39.40 133.68 C 26.55 142.93 24.31 143.97 17.25 143.99 C 11.00 144.00 11.00 144.00 11.00 181.50 C 11.00 219.00 11.00 219.00 20.64 219.00 C 30.28 219.00 30.28 219.00 34.62 215.00 C 41.99 208.20 43.00 209.30 43.00 224.09 C 43.00 234.02 43.00 234.02 87.25 233.76 C 131.50 233.50 131.50 233.50 136.18 207.00 Z  M 78.03 97.19 C 71.83 96.84 70.00 95.76 70.00 92.46 C 70.00 88.50 71.08 87.07 74.60 86.42 C 82.34 84.96 89.11 88.91 87.52 93.95 C 86.61 96.79 84.39 97.55 78.03 97.19 Z  M 166.66 95.66 C 164.78 93.78 165.01 89.66 167.12 87.50 C 168.60 85.99 179.42 86.27 181.35 87.87 C 183.43 89.60 183.57 95.85 181.54 96.62 C 180.73 96.93 177.47 97.26 174.29 97.34 C 169.86 97.46 168.07 97.07 166.66 95.66 Z "/>
</g>
</svg>