<?xml version="1.0" encoding="UTF-8" standalone="no"?>
<!DOCTYPE svg PUBLIC "-//W3C//DTD SVG 1.1//EN" "http://www.w3.org/Graphics/SVG/1.1/DTD/svg11.dtd" >
<svg xmlns="http://www.w3.org/2000/svg" xmlns:xlink="http://www.w3.org/1999/xlink" version="1.1" viewBox="0 0 256 256">
 <g >
 <path fill="currentColor"
d=" M 92.24 198.29 C 92.50 162.58 92.50 162.58 95.11 161.11 C 97.48 159.78 98.09 159.85 101.89 161.82 C 104.18 163.02 106.27 164.00 106.53 164.00 C 106.79 164.00 107.00 156.13 107.00 146.51 C 107.00 129.03 107.00 129.03 103.00 126.50 C 100.54 124.95 99.00 123.22 99.00 122.01 C 99.00 120.72 100.38 119.34 103.00 118.00 C 107.00 115.96 107.00 115.96 107.00 99.48 C 107.00 90.42 106.76 83.00 106.47 83.00 C 106.18 83.00 103.27 84.35 100.00 86.00 C 96.73 87.65 93.59 89.00 93.03 89.00 C 90.34 89.00 92.65 82.95 99.50 72.00 C 107.00 60.02 107.00 60.02 107.00 39.64 C 107.00 19.26 107.00 19.26 102.96 18.72 C 100.74 18.42 98.26 17.63 97.46 16.97 C 95.58 15.41 95.60 10.90 97.50 6.35 C 98.33 4.37 99.00 2.36 99.00 1.88 C 99.00 1.39 81.31 1.00 59.04 1.00 C 19.09 1.00 19.09 1.00 20.54 5.13 C 23.54 13.62 21.92 17.51 14.93 18.63 C 11.00 19.26 11.00 19.26 11.00 43.13 C 11.00 67.00 11.00 67.00 15.00 67.00 C 19.58 67.00 23.00 69.68 22.99 73.25 C 22.98 75.55 21.38 86.76 20.49 90.68 C 19.75 93.94 17.21 96.00 13.93 96.00 C 11.00 96.00 11.00 96.00 11.00 134.50 C 11.00 173.00 11.00 173.00 13.55 173.00 C 14.95 173.00 17.20 174.10 18.55 175.45 C 21.00 177.91 21.00 177.91 21.00 205.95 C 21.00 234.00 21.00 234.00 56.49 234.00 C 91.97 234.00 91.97 234.00 92.24 198.29 Z  M 235.46 227.75 C 236.02 222.06 244.00 115.53 244.00 113.76 C 244.00 113.34 230.84 112.96 214.75 112.92 C 185.50 112.84 185.50 112.84 211.88 103.96 C 226.39 99.07 238.47 94.86 238.72 94.62 C 239.20 94.13 185.21 76.39 180.23 75.40 C 178.12 74.97 169.29 77.34 148.90 83.80 C 133.28 88.74 119.38 93.14 118.00 93.58 C 115.98 94.21 120.84 96.13 143.50 103.62 C 171.50 112.87 171.50 112.87 140.75 112.93 C 110.00 113.00 110.00 113.00 110.00 137.99 C 110.00 162.97 110.00 162.97 140.25 163.24 C 170.50 163.50 170.50 163.50 170.79 166.50 C 170.96 168.15 170.43 170.40 169.63 171.50 C 168.23 173.41 166.83 173.51 139.08 173.79 C 110.00 174.09 110.00 174.09 110.00 204.04 C 110.00 234.00 110.00 234.00 172.42 234.00 C 234.84 234.00 234.84 234.00 235.46 227.75 Z  M 168.77 69.50 C 177.54 57.44 179.97 57.76 189.31 72.25 C 193.02 78.00 193.02 78.00 218.51 78.00 C 244.00 78.00 244.00 78.00 244.00 48.63 C 244.00 19.26 244.00 19.26 240.07 18.63 C 232.87 17.48 231.09 12.66 235.02 4.96 C 237.04 1.00 237.04 1.00 178.02 1.00 C 145.56 1.00 119.00 1.17 119.00 1.37 C 119.00 1.58 119.67 3.66 120.50 6.00 C 123.61 14.81 122.16 17.89 114.50 18.75 C 110.00 19.26 110.00 19.26 110.00 48.63 C 110.00 78.00 110.00 78.00 136.29 78.00 C 162.59 78.00 162.59 78.00 168.77 69.50 Z "/>
</g>
</svg>