<?xml version="1.0" encoding="UTF-8" standalone="no"?>
<!DOCTYPE svg PUBLIC "-//W3C//DTD SVG 1.1//EN" "http://www.w3.org/Graphics/SVG/1.1/DTD/svg11.dtd" >
<svg xmlns="http://www.w3.org/2000/svg" xmlns:xlink="http://www.w3.org/1999/xlink" version="1.1" viewBox="0 0 256 256">
 <g >
 <path fill="currentColor"
d=" M 79.00 167.52 C 79.00 101.05 79.00 101.05 81.43 99.45 C 84.76 97.27 87.61 98.91 89.94 104.32 C 92.27 109.71 91.23 112.00 86.46 112.00 C 83.00 112.00 83.00 112.00 83.00 126.50 C 83.00 141.00 83.00 141.00 87.93 141.00 C 92.47 141.00 96.00 142.69 96.00 144.87 C 96.00 146.82 93.10 148.00 88.30 148.00 C 83.00 148.00 83.00 148.00 83.00 163.00 C 83.00 178.00 83.00 178.00 86.89 178.00 C 92.82 178.00 95.21 180.51 95.78 187.33 C 96.25 193.00 96.25 193.00 127.00 193.00 C 157.75 193.00 157.75 193.00 158.22 187.33 C 158.79 180.51 161.18 178.00 167.11 178.00 C 171.00 178.00 171.00 178.00 171.00 163.00 C 171.00 148.00 171.00 148.00 165.00 148.00 C 161.70 148.00 159.00 147.81 159.00 147.58 C 159.00 147.35 158.75 146.51 158.44 145.71 C 157.43 143.08 160.81 141.00 166.07 141.00 C 171.00 141.00 171.00 141.00 171.00 126.50 C 171.00 112.00 171.00 112.00 168.04 112.00 C 163.78 112.00 162.44 109.07 164.79 104.88 C 167.53 99.96 171.25 97.53 173.88 98.93 C 175.99 100.07 176.00 100.22 176.00 144.58 C 176.00 192.87 175.95 193.33 170.53 195.81 C 168.67 196.65 158.60 197.00 135.95 197.00 C 104.00 197.00 104.00 197.00 104.08 199.75 C 104.12 201.26 105.13 209.47 106.33 218.00 C 108.50 233.50 108.50 233.50 176.25 233.76 C 244.00 234.01 244.00 234.01 244.00 149.54 C 244.00 65.07 244.00 65.07 208.53 64.79 C 176.18 64.53 172.91 64.35 171.30 62.73 C 169.93 61.36 169.78 60.57 170.63 59.23 C 171.62 57.65 174.85 57.48 207.86 57.24 C 244.00 56.98 244.00 56.98 244.00 35.02 C 244.00 13.07 244.00 13.07 209.03 12.79 C 169.84 12.47 171.31 12.76 170.29 5.14 C 169.74 1.00 169.74 1.00 127.50 1.00 C 85.26 1.00 85.26 1.00 84.71 5.14 C 83.69 12.76 85.16 12.47 45.97 12.79 C 11.00 13.07 11.00 13.07 11.00 35.02 C 11.00 56.98 11.00 56.98 47.14 57.24 C 80.15 57.48 83.38 57.65 84.37 59.23 C 85.22 60.57 85.07 61.36 83.70 62.73 C 82.09 64.35 78.82 64.53 46.47 64.79 C 11.00 65.07 11.00 65.07 11.00 149.54 C 11.00 234.00 11.00 234.00 45.00 234.00 C 79.00 234.00 79.00 234.00 79.00 167.52 Z  M 123.20 107.47 C 120.27 101.45 120.37 99.37 123.63 98.56 C 127.68 97.54 132.00 98.83 132.00 101.05 C 132.00 103.71 127.83 112.00 126.50 112.00 C 125.89 112.00 124.41 109.96 123.20 107.47 Z "/>
</g>
</svg>