<?xml version="1.0" encoding="UTF-8" standalone="no"?>
<!DOCTYPE svg PUBLIC "-//W3C//DTD SVG 1.1//EN" "http://www.w3.org/Graphics/SVG/1.1/DTD/svg11.dtd" >
<svg xmlns="http://www.w3.org/2000/svg" xmlns:xlink="http://www.w3.org/1999/xlink" version="1.1" viewBox="0 0 256 256">
 <g >
 <path fill="currentColor"
d=" M 52.00 242.37 C 75.15 235.40 83.06 227.07 86.99 205.50 C 88.15 199.18 90.42 142.54 89.61 140.41 C 89.27 139.53 87.37 139.34 82.96 139.74 C 76.80 140.30 76.80 140.30 77.15 134.40 C 77.50 128.50 77.50 128.50 59.14 128.23 C 40.79 127.95 40.79 127.95 41.42 117.73 C 42.94 93.24 39.96 95.60 68.37 96.31 C 93.50 96.94 93.50 96.94 93.21 62.27 C 93.05 43.19 92.74 27.41 92.52 27.19 C 92.30 26.96 89.56 27.22 86.44 27.76 C 80.77 28.74 80.77 28.74 81.22 23.37 C 81.66 18.00 81.66 18.00 57.49 18.00 C 44.19 18.00 28.52 17.71 22.66 17.35 C 12.00 16.70 12.00 16.70 12.00 20.31 C 12.00 23.90 12.04 23.94 17.00 24.59 C 19.79 24.96 22.00 25.78 22.00 26.43 C 22.00 27.78 16.08 34.48 14.34 35.09 C 13.70 35.32 12.88 37.52 12.51 40.00 C 11.85 44.50 11.85 44.50 39.45 44.20 C 67.06 43.91 67.06 43.91 66.78 58.20 C 66.50 72.50 66.50 72.50 41.75 72.21 C 17.00 71.93 17.00 71.93 16.97 83.21 C 16.96 89.42 16.29 104.40 15.49 116.50 C 14.70 128.60 14.03 139.29 14.02 140.25 C 14.00 141.74 14.97 142.00 20.45 142.00 C 26.89 142.00 26.89 142.00 24.95 147.66 C 23.88 150.77 23.00 153.47 23.00 153.66 C 23.00 153.85 32.00 154.00 43.00 154.00 C 63.00 154.00 63.00 154.00 63.00 163.89 C 63.00 177.71 61.30 192.83 58.84 200.77 C 57.30 205.76 55.70 208.57 52.62 211.65 C 47.69 216.58 44.21 217.66 30.25 218.60 C 24.61 218.98 20.00 219.38 20.00 219.49 C 20.00 219.61 20.49 221.12 21.10 222.85 C 22.13 225.80 22.42 225.96 25.97 225.39 C 30.99 224.59 31.75 226.19 27.90 229.43 C 25.42 231.52 25.03 232.33 25.96 233.45 C 26.97 234.67 27.71 234.66 31.26 233.41 C 35.11 232.05 35.53 232.08 37.33 233.89 C 39.25 235.81 39.22 235.86 34.12 238.44 C 29.40 240.83 29.03 241.27 29.63 243.77 C 29.98 245.27 30.44 246.80 30.64 247.16 C 31.08 247.96 40.42 245.87 52.00 242.37 Z  M 241.82 241.31 C 241.57 239.23 240.77 238.43 238.31 237.80 C 236.28 237.27 234.89 236.17 234.48 234.74 C 234.13 233.51 233.63 231.73 233.37 230.80 C 233.03 229.59 234.04 228.51 236.82 227.09 C 240.21 225.36 241.93 222.92 241.99 219.75 C 241.99 219.34 227.38 219.00 209.50 219.00 C 177.00 219.00 177.00 219.00 177.00 191.35 C 177.00 163.69 177.00 163.69 202.00 164.26 C 225.88 164.81 227.00 164.75 227.00 162.98 C 227.00 159.08 225.09 156.34 221.10 154.54 C 218.84 153.53 217.00 152.18 217.00 151.54 C 217.00 149.34 219.51 147.12 223.00 146.26 C 226.06 145.49 226.54 144.95 226.80 141.94 C 227.09 138.50 227.09 138.50 165.05 138.50 C 103.00 138.50 103.00 138.50 103.00 142.37 C 103.00 145.90 103.21 146.19 105.38 145.78 C 107.38 145.40 108.10 146.03 109.93 149.78 C 111.12 152.24 111.85 154.48 111.56 154.78 C 111.26 155.07 109.33 155.58 107.26 155.92 C 103.68 156.50 103.49 156.72 103.20 160.70 C 102.89 164.88 102.89 164.88 126.45 164.28 C 150.00 163.69 150.00 163.69 150.00 191.34 C 150.00 219.00 150.00 219.00 120.00 219.00 C 90.39 219.00 90.00 219.03 90.00 221.06 C 90.00 222.52 91.26 223.67 94.39 225.05 C 97.93 226.62 98.86 227.57 99.22 230.03 C 99.62 232.79 99.22 233.32 94.83 235.79 C 90.89 238.00 90.00 239.00 90.00 241.25 C 90.00 244.00 90.00 244.00 166.07 244.00 C 242.13 244.00 242.13 244.00 241.82 241.31 Z  M 129.37 124.59 C 137.69 119.42 150.57 110.81 158.00 105.47 C 165.42 100.12 172.08 95.52 172.79 95.25 C 174.15 94.73 194.02 107.58 216.87 123.77 C 230.24 133.24 230.24 133.24 232.60 130.37 C 234.97 127.50 234.97 127.50 230.96 123.84 C 227.27 120.47 227.05 119.99 228.14 117.59 C 229.24 115.18 229.78 115.00 236.05 115.00 C 242.06 115.00 242.94 114.74 244.36 112.57 C 245.94 110.17 245.88 110.09 238.73 104.70 C 234.75 101.71 223.51 94.00 213.75 87.57 C 203.99 81.13 196.00 75.66 196.00 75.40 C 196.00 75.14 200.50 69.72 206.00 63.36 C 217.42 50.14 225.30 39.29 224.46 37.93 C 224.14 37.42 221.66 37.00 218.94 37.00 C 216.22 37.00 214.00 36.56 214.00 36.02 C 214.00 35.47 215.36 32.82 217.02 30.12 C 219.68 25.80 219.90 24.88 218.86 22.60 C 217.68 20.00 217.68 20.00 162.34 20.00 C 107.00 20.00 107.00 20.00 107.00 22.97 C 107.00 25.22 107.69 26.30 109.81 27.40 C 112.04 28.56 115.00 32.56 115.00 34.44 C 115.00 34.63 113.20 35.50 111.00 36.38 C 107.27 37.88 107.00 38.25 107.00 41.98 C 107.00 45.98 107.00 45.98 144.53 46.24 C 182.05 46.50 182.05 46.50 172.43 56.76 C 160.96 69.00 152.24 76.27 135.52 87.54 C 121.23 97.18 112.55 101.77 98.71 107.00 C 88.93 110.71 88.93 110.71 92.53 113.45 C 96.08 116.16 96.22 116.18 102.64 114.97 C 111.52 113.30 112.78 114.59 107.53 119.97 C 104.35 123.23 103.95 124.04 105.29 124.56 C 106.22 124.92 108.20 124.28 109.87 123.09 C 111.49 121.94 113.08 121.00 113.40 121.00 C 114.50 121.00 114.02 123.90 112.34 127.42 C 110.97 130.28 110.90 131.18 111.96 132.45 C 112.67 133.30 113.47 134.00 113.74 134.00 C 114.02 134.00 121.05 129.77 129.37 124.59 Z "/>
</g>
</svg>