<?xml version="1.0" encoding="UTF-8" standalone="no"?>
<!DOCTYPE svg PUBLIC "-//W3C//DTD SVG 1.1//EN" "http://www.w3.org/Graphics/SVG/1.1/DTD/svg11.dtd" >
<svg xmlns="http://www.w3.org/2000/svg" xmlns:xlink="http://www.w3.org/1999/xlink" version="1.1" viewBox="0 0 256 256">
 <g >
 <path fill="currentColor"
d=" M 149.70 243.93 C 173.95 241.91 181.25 239.36 188.59 230.34 C 195.01 222.45 197.37 215.41 197.41 204.00 C 197.44 196.12 197.07 193.80 195.27 190.38 C 191.05 182.40 182.70 177.47 175.29 178.58 C 169.49 179.45 166.79 181.80 160.56 191.39 C 154.32 200.99 152.13 203.14 145.49 206.20 C 138.06 209.62 125.46 209.42 118.44 205.78 C 108.00 200.37 103.94 193.04 102.01 176.13 C 100.89 166.25 98.93 162.63 93.20 159.86 C 87.73 157.21 82.54 157.76 76.20 161.68 C 67.85 166.84 63.65 179.09 63.56 198.58 C 63.50 210.66 63.50 210.66 67.13 216.14 C 74.71 227.57 80.65 233.70 87.22 236.91 C 101.79 244.01 121.80 246.26 149.70 243.93 Z  M 33.56 239.54 C 41.89 236.06 52.33 220.67 54.96 208.00 C 57.90 193.82 57.09 172.21 53.32 164.27 C 48.90 154.94 33.59 156.73 23.97 167.69 C 18.30 174.14 13.05 183.09 10.92 189.93 C 7.95 199.45 7.22 215.81 9.42 223.39 C 13.72 238.15 22.62 244.11 33.56 239.54 Z  M 230.04 235.75 C 236.62 232.43 240.39 226.19 242.39 215.31 C 245.32 199.31 244.25 190.06 237.99 177.31 C 232.86 166.89 225.31 158.43 219.80 156.95 C 213.20 155.17 208.12 156.59 203.34 161.54 C 200.09 164.90 198.91 167.10 198.01 171.46 C 196.88 176.88 196.96 177.32 200.50 185.56 C 205.13 196.35 205.67 201.97 203.21 213.71 C 201.28 222.92 201.28 222.92 205.14 229.38 C 209.49 236.64 211.52 237.80 220.04 237.92 C 223.92 237.98 226.91 237.33 230.04 235.75 Z  M 142.39 200.58 C 156.86 196.23 162.23 183.41 154.75 171.03 C 150.03 163.23 146.18 161.50 133.50 161.50 C 124.69 161.50 122.97 161.80 119.03 164.00 C 112.98 167.39 110.04 172.71 110.02 180.29 C 109.97 196.20 125.21 205.75 142.39 200.58 Z  M 133.00 153.56 C 134.93 153.56 138.41 153.92 140.75 154.36 C 144.15 155.01 145.00 154.89 145.00 153.74 C 145.00 152.95 145.66 150.98 146.47 149.36 C 149.21 143.86 150.92 132.31 152.59 107.87 C 153.98 87.68 154.07 80.76 153.15 67.50 C 151.28 40.87 146.11 23.24 138.46 17.40 C 132.28 12.69 122.47 10.67 117.68 13.12 C 110.37 16.88 104.86 27.98 102.48 43.73 C 99.89 60.93 100.81 111.94 104.07 131.90 C 105.50 140.69 108.00 145.08 114.68 150.52 C 120.20 155.02 120.54 155.14 124.95 154.37 C 127.45 153.94 131.07 153.57 133.00 153.56 Z  M 202.36 145.50 C 214.81 143.32 221.66 140.35 227.66 134.52 C 234.16 128.21 236.38 121.60 235.85 110.11 C 235.54 103.21 235.15 101.94 232.00 97.56 C 228.03 92.04 220.69 86.59 214.88 84.85 C 211.66 83.88 209.27 83.99 201.72 85.42 C 196.65 86.38 185.53 87.70 177.00 88.34 C 161.50 89.50 161.50 89.50 161.20 95.75 C 160.91 101.95 160.93 102.00 163.61 102.00 C 165.10 102.00 168.66 101.26 171.52 100.36 C 178.53 98.15 182.98 99.08 186.92 103.57 C 190.88 108.07 190.87 111.49 186.91 116.29 C 181.90 122.37 179.01 123.37 168.46 122.67 C 159.34 122.08 159.34 122.08 158.42 134.50 C 157.50 146.91 157.50 146.91 161.00 147.36 C 167.37 148.17 193.86 146.98 202.36 145.50 Z  M 101.39 145.94 C 101.70 145.64 101.07 142.71 100.01 139.44 C 98.94 136.17 97.57 130.91 96.96 127.74 C 95.85 121.97 95.85 121.97 86.55 122.62 C 81.43 122.98 76.08 122.99 74.65 122.63 C 71.48 121.83 67.00 115.52 67.00 111.84 C 67.00 108.07 71.24 103.45 76.58 101.42 C 81.13 99.68 83.03 99.82 91.79 102.54 C 94.07 103.25 94.08 103.21 93.79 94.88 C 93.50 86.50 93.50 86.50 82.50 86.30 C 76.45 86.19 65.88 85.58 59.00 84.95 C 46.50 83.80 46.50 83.80 38.32 86.96 C 24.53 92.29 16.37 101.81 15.29 113.82 C 14.65 120.88 16.05 126.22 20.14 132.39 C 25.39 140.33 32.73 143.85 48.44 145.99 C 55.04 146.88 100.49 146.85 101.39 145.94 Z  M 181.62 81.46 C 215.31 76.46 230.41 67.24 230.26 51.77 C 230.19 43.60 226.23 35.88 219.73 31.21 C 209.91 24.16 186.12 18.54 166.46 18.63 C 159.83 18.66 153.19 18.99 151.70 19.36 C 148.99 20.04 148.99 20.04 151.88 25.77 C 153.47 28.92 155.35 33.41 156.04 35.75 C 156.74 38.09 157.62 40.00 157.99 40.00 C 158.36 40.00 161.19 39.49 164.26 38.88 C 172.19 37.28 176.40 38.30 178.94 42.40 C 184.58 51.52 177.21 59.09 163.92 57.82 C 159.79 57.43 159.79 57.43 160.39 61.85 C 160.73 64.29 161.00 70.04 161.00 74.64 C 161.00 83.00 161.00 83.00 166.12 83.00 C 168.94 83.00 175.91 82.31 181.62 81.46 Z  M 94.00 67.39 C 94.00 56.89 93.84 55.85 92.30 56.44 C 79.99 61.16 75.92 60.87 70.51 54.88 C 66.39 50.32 66.34 47.45 70.32 43.15 C 74.56 38.59 77.69 37.68 87.10 38.29 C 95.79 38.86 95.79 38.86 98.96 30.44 C 100.71 25.82 102.56 21.77 103.07 21.46 C 103.58 21.14 104.00 20.39 104.00 19.78 C 104.00 18.32 74.96 19.47 61.92 21.45 C 47.94 23.57 42.03 26.10 34.38 33.26 C 25.78 41.31 22.54 46.88 22.65 53.45 C 22.79 61.44 25.01 65.41 31.86 69.83 C 42.25 76.55 53.14 78.69 77.75 78.88 C 94.00 79.00 94.00 79.00 94.00 67.39 Z "/>
</g>
</svg>