<?xml version="1.0" encoding="UTF-8" standalone="no"?>
<!DOCTYPE svg PUBLIC "-//W3C//DTD SVG 1.1//EN" "http://www.w3.org/Graphics/SVG/1.1/DTD/svg11.dtd" >
<svg xmlns="http://www.w3.org/2000/svg" xmlns:xlink="http://www.w3.org/1999/xlink" version="1.1" viewBox="0 0 256 256">
 <g >
 <path fill="currentColor"
d=" M 55.64 243.21 C 60.81 240.54 66.51 234.09 69.66 227.33 C 74.83 216.26 75.16 212.42 75.95 154.50 C 76.74 96.51 76.76 96.26 82.33 83.89 C 85.81 76.15 90.40 70.34 95.68 66.99 C 108.34 58.96 123.67 57.44 176.57 59.00 C 217.44 60.20 227.17 59.62 235.67 55.46 C 245.31 50.74 247.14 45.76 242.12 37.85 C 238.62 32.34 234.52 29.69 226.12 27.52 C 219.29 25.76 194.04 24.27 189.66 25.37 C 188.12 25.76 185.90 27.70 184.39 29.99 C 182.44 32.93 180.33 34.52 176.14 36.20 C 170.90 38.30 168.98 38.47 149.00 38.48 C 137.18 38.49 125.77 38.13 123.66 37.69 C 121.33 37.19 118.08 35.27 115.39 32.79 C 110.96 28.71 110.96 28.71 102.62 29.29 C 88.01 30.33 76.18 35.88 64.91 47.00 C 57.47 54.34 53.59 61.49 49.63 75.15 C 45.88 88.10 45.01 96.78 44.06 131.16 C 42.96 170.59 43.17 169.85 28.09 187.27 C 24.87 190.99 20.50 197.29 18.39 201.27 C 14.86 207.92 14.56 209.14 14.56 216.50 C 14.57 223.48 14.99 225.36 17.84 231.25 C 23.29 242.53 29.80 246.18 43.50 245.65 C 49.25 245.43 52.66 244.74 55.64 243.21 Z  M 218.46 243.53 C 230.44 240.10 238.69 234.00 241.59 226.41 C 244.14 219.72 243.11 202.81 239.94 199.44 C 236.53 195.81 231.72 194.65 223.08 195.37 C 217.01 195.88 213.91 196.81 207.50 200.02 C 197.22 205.18 193.30 205.90 171.47 206.66 C 143.24 207.64 136.96 206.03 134.12 197.11 C 132.91 193.32 132.94 192.36 134.31 189.49 C 137.56 182.66 146.92 178.61 165.50 175.99 C 175.70 174.55 181.30 173.10 182.23 171.65 C 182.64 171.02 182.98 169.01 182.98 167.18 C 183.01 162.34 184.49 160.29 190.00 157.50 C 192.71 156.13 195.45 154.03 196.09 152.84 C 197.69 149.85 196.69 140.82 193.96 133.50 C 190.91 125.35 186.39 121.27 175.43 116.74 C 162.21 111.28 158.50 110.63 144.48 111.29 C 132.19 111.87 132.19 111.87 124.06 117.90 C 116.25 123.69 111.17 125.98 106.16 125.99 C 102.57 126.00 93.44 134.39 90.52 140.37 C 86.31 148.97 84.91 157.84 84.30 179.69 C 83.65 202.77 84.17 205.57 91.15 216.62 C 99.13 229.26 110.81 237.04 128.58 241.54 C 141.98 244.95 155.31 245.87 186.00 245.53 C 207.32 245.30 213.67 244.91 218.46 243.53 Z  M 226.46 185.91 C 236.94 183.27 240.72 175.09 241.68 153.00 C 242.29 138.99 240.55 103.47 238.97 97.82 C 237.14 91.27 231.90 84.90 225.44 81.38 C 215.58 76.01 208.06 74.95 175.32 74.30 C 146.14 73.72 146.14 73.72 145.57 77.61 C 145.26 79.75 144.33 84.36 143.50 87.85 C 142.68 91.34 142.21 94.54 142.47 94.95 C 142.73 95.37 149.59 95.96 157.72 96.28 C 173.38 96.88 187.63 99.71 195.60 103.81 C 202.98 107.61 208.14 115.17 209.98 124.91 C 211.31 131.92 211.29 147.11 209.94 150.68 C 208.37 154.84 203.14 159.82 199.60 160.53 C 197.89 160.87 195.75 161.36 194.84 161.61 C 192.54 162.26 189.76 169.63 190.52 173.09 C 191.42 177.19 197.88 183.89 202.50 185.51 C 207.32 187.20 220.46 187.42 226.46 185.91 Z  M 29.55 175.80 C 37.38 167.25 42.84 132.51 37.61 124.52 C 35.62 121.49 29.88 119.61 25.27 120.48 C 20.05 121.46 10.32 131.53 5.92 140.49 C 2.62 147.22 2.50 147.87 2.61 158.49 C 2.78 176.56 5.75 180.33 19.36 179.73 C 25.81 179.44 26.43 179.20 29.55 175.80 Z  M 110.92 119.02 C 118.87 116.74 129.71 105.41 136.27 92.51 C 140.35 84.48 141.32 72.85 138.22 69.02 C 136.47 66.86 135.25 66.50 128.53 66.16 C 121.33 65.80 120.38 66.00 113.51 69.40 C 108.90 71.68 103.42 75.60 98.73 79.98 C 89.62 88.49 86.86 94.04 86.29 105.00 C 85.86 113.35 87.01 116.69 91.02 118.72 C 93.98 120.21 106.12 120.40 110.92 119.02 Z  M 32.90 95.07 C 42.03 88.57 45.44 70.34 40.36 55.18 C 35.14 39.57 20.88 35.03 11.63 46.03 C 1.86 57.64 5.80 86.70 18.38 95.86 C 22.24 98.67 28.31 98.34 32.90 95.07 Z  M 164.29 31.98 C 183.44 29.21 189.56 16.03 175.15 8.58 C 165.98 3.84 143.38 2.74 131.30 6.45 C 117.39 10.72 112.03 24.35 122.19 29.60 C 127.47 32.33 152.19 33.73 164.29 31.98 Z  M 139.50 160.07 C 132.44 158.37 129.00 153.80 129.00 146.15 C 129.00 140.24 130.75 137.30 135.70 134.90 C 139.51 133.06 141.44 132.83 150.30 133.17 C 161.67 133.60 165.03 134.92 168.80 140.41 C 172.30 145.53 171.78 150.46 167.25 154.98 C 164.12 158.10 162.41 158.91 156.92 159.86 C 149.68 161.11 144.10 161.18 139.50 160.07 Z "/>
</g>
</svg>