<?xml version="1.0" encoding="UTF-8" standalone="no"?>
<!DOCTYPE svg PUBLIC "-//W3C//DTD SVG 1.1//EN" "http://www.w3.org/Graphics/SVG/1.1/DTD/svg11.dtd" >
<svg xmlns="http://www.w3.org/2000/svg" xmlns:xlink="http://www.w3.org/1999/xlink" version="1.1" viewBox="0 0 256 256">
 <g >
 <path fill="currentColor"
d=" M 172.16 213.57 C 173.89 212.71 176.13 212.00 177.14 212.00 C 178.33 212.00 179.85 210.26 181.48 207.03 C 182.87 204.30 184.00 201.84 184.00 201.56 C 184.00 201.28 182.88 200.31 181.52 199.42 C 179.15 197.87 178.89 197.91 175.94 200.40 C 172.04 203.68 168.70 204.53 164.11 203.39 C 160.50 202.50 160.50 202.50 159.81 192.13 C 159.43 186.43 158.90 181.19 158.63 180.48 C 158.05 178.96 162.49 177.56 164.30 178.69 C 166.12 179.83 167.93 179.93 168.56 178.91 C 168.86 178.41 172.18 178.00 175.92 178.00 C 181.22 178.00 183.30 177.56 185.27 176.00 C 186.67 174.90 188.43 174.00 189.19 174.00 C 189.94 174.00 191.34 173.09 192.30 171.97 C 193.61 170.44 193.79 169.47 193.02 168.05 C 191.50 165.19 187.29 162.22 183.70 161.46 C 181.94 161.08 179.73 160.10 178.79 159.27 C 177.85 158.44 176.44 158.00 175.66 158.30 C 174.88 158.60 173.77 158.37 173.19 157.79 C 172.61 157.21 168.39 156.01 163.82 155.12 C 156.08 153.61 155.49 153.33 155.43 151.00 C 155.31 146.74 154.07 144.35 151.32 143.10 C 148.18 141.67 147.33 142.55 146.37 148.23 C 146.03 150.28 145.24 152.38 144.62 152.90 C 144.00 153.42 139.67 154.06 134.99 154.33 C 130.32 154.61 123.80 155.35 120.50 155.98 C 117.20 156.61 113.09 157.14 111.38 157.14 C 109.10 157.16 107.90 157.82 106.95 159.59 C 105.77 161.79 105.92 162.31 108.51 165.01 C 110.09 166.66 111.85 168.00 112.44 168.00 C 113.44 168.00 126.50 173.22 130.24 175.12 C 131.19 175.60 133.35 176.00 135.04 176.00 C 140.43 176.00 147.07 178.17 148.54 180.42 C 149.31 181.60 150.41 185.85 150.98 189.86 C 151.55 193.88 152.46 197.99 153.01 199.01 C 154.35 201.52 154.29 201.77 152.12 202.94 C 150.80 203.64 148.06 203.49 142.99 202.43 C 139.00 201.60 135.24 201.10 134.62 201.33 C 134.00 201.55 132.27 201.03 130.77 200.17 C 126.94 197.96 122.62 199.52 122.18 203.27 C 122.01 204.77 122.35 206.00 122.93 206.00 C 123.52 206.00 124.00 206.66 124.00 207.46 C 124.00 209.04 134.54 212.76 141.48 213.63 C 143.67 213.91 145.55 214.21 145.65 214.32 C 145.76 214.42 151.06 214.64 157.43 214.82 C 166.44 215.07 169.72 214.79 172.16 213.57 Z  M 74.27 150.59 C 75.05 149.81 76.27 147.77 76.98 146.06 C 78.06 143.43 78.03 142.68 76.76 141.22 C 74.73 138.89 73.93 135.18 73.12 124.30 C 72.74 119.24 72.15 114.81 71.80 114.46 C 70.92 113.59 73.71 104.52 76.61 98.78 C 77.93 96.19 79.00 92.93 79.00 91.53 C 79.00 90.14 79.36 89.00 79.80 89.00 C 81.33 89.00 83.00 82.31 83.00 76.18 C 83.00 69.86 80.97 66.00 77.65 66.00 C 74.66 66.00 70.05 68.28 69.49 70.03 C 69.16 71.06 68.02 72.18 66.95 72.52 C 63.80 73.52 56.40 83.42 51.53 93.16 C 49.04 98.13 47.00 102.97 47.00 103.90 C 47.00 104.84 46.62 106.03 46.16 106.55 C 45.43 107.37 43.39 115.58 42.80 120.00 C 42.27 124.05 46.51 130.19 50.71 131.45 C 52.43 131.96 53.94 131.17 57.45 127.94 C 62.59 123.20 62.46 123.08 63.91 134.00 C 65.89 148.84 69.78 155.08 74.27 150.59 Z  M 169.50 130.00 C 169.84 129.45 171.78 129.00 173.81 128.99 C 175.84 128.98 179.75 128.29 182.50 127.46 C 185.25 126.62 189.53 125.73 192.00 125.48 C 194.47 125.23 196.96 124.40 197.51 123.64 C 198.07 122.88 200.03 121.93 201.86 121.53 C 204.36 120.98 205.53 119.97 206.58 117.46 C 209.33 110.87 205.96 108.77 198.62 112.49 C 195.94 113.85 192.12 115.22 190.12 115.54 C 188.13 115.86 182.00 117.03 176.50 118.13 C 170.93 119.25 163.84 119.99 160.50 119.82 C 154.50 119.50 154.50 119.50 154.67 112.00 C 154.77 107.88 155.17 101.24 155.57 97.25 C 156.29 90.00 156.29 90.00 167.09 90.00 C 173.20 90.00 178.15 89.57 178.50 89.00 C 178.84 88.45 179.95 88.00 180.97 88.00 C 182.00 88.00 184.20 86.27 185.87 84.16 C 188.89 80.35 188.90 80.31 187.20 76.91 C 185.20 72.90 177.54 67.48 171.65 65.92 C 169.37 65.31 166.02 64.18 164.22 63.41 C 162.41 62.63 159.17 62.00 157.03 62.00 C 154.88 62.00 152.80 61.49 152.41 60.86 C 152.02 60.23 151.38 56.36 150.98 52.27 C 150.16 43.96 148.25 40.74 145.23 42.61 C 142.61 44.24 141.06 48.14 140.35 54.90 C 139.72 61.00 139.72 61.00 133.93 61.00 C 128.47 61.00 115.32 62.42 110.15 63.57 C 108.03 64.04 107.86 64.46 108.47 67.79 C 108.84 69.83 109.90 72.25 110.82 73.17 C 112.63 74.96 133.35 83.35 138.81 84.49 C 142.87 85.34 143.58 86.97 146.00 101.00 C 148.85 117.58 149.03 120.05 147.40 120.68 C 146.62 120.98 143.69 120.48 140.90 119.56 C 138.11 118.65 132.82 117.46 129.16 116.92 C 122.82 115.98 117.27 115.05 106.79 113.17 C 101.90 112.30 100.00 113.05 100.00 115.87 C 100.00 118.23 103.10 121.00 105.75 121.00 C 107.09 121.00 109.39 121.67 110.85 122.49 C 117.28 126.09 127.22 128.70 138.00 129.62 C 141.57 129.93 144.69 130.36 144.92 130.59 C 145.83 131.50 168.92 130.94 169.50 130.00 Z  M 55.48 109.06 C 56.48 106.23 56.55 105.02 55.74 104.75 C 55.06 104.52 55.69 102.97 57.31 100.84 C 58.79 98.90 60.00 96.57 60.00 95.66 C 60.00 94.75 60.38 94.00 60.85 94.00 C 61.31 94.00 62.40 92.20 63.27 90.00 C 64.18 87.68 65.50 86.00 66.42 86.00 C 68.16 86.00 68.58 88.52 67.00 89.50 C 66.45 89.84 66.00 91.46 66.00 93.11 C 66.00 94.75 65.26 97.54 64.35 99.29 C 62.72 102.44 55.08 113.00 54.42 113.00 C 54.24 113.00 54.71 111.23 55.48 109.06 Z "/>
</g>
</svg>