<?xml version="1.0" encoding="UTF-8" standalone="no"?>
<!DOCTYPE svg PUBLIC "-//W3C//DTD SVG 1.1//EN" "http://www.w3.org/Graphics/SVG/1.1/DTD/svg11.dtd" >
<svg xmlns="http://www.w3.org/2000/svg" xmlns:xlink="http://www.w3.org/1999/xlink" version="1.1" viewBox="0 0 256 256">
 <g >
 <path fill="currentColor"
d=" M 246.85 194.75 C 248.35 190.55 247.67 185.38 242.46 161.00 C 241.69 157.43 240.86 152.03 240.61 149.00 C 240.36 145.97 239.47 141.89 238.64 139.92 C 237.80 137.95 236.46 132.78 235.67 128.42 C 234.87 124.06 232.14 112.67 229.61 103.09 C 227.07 93.52 225.00 84.48 225.00 83.01 C 225.00 81.54 224.66 80.00 224.25 79.58 C 223.84 79.17 223.50 78.36 223.50 77.77 C 223.50 77.19 222.25 75.78 220.71 74.64 C 218.44 72.94 217.61 72.78 216.21 73.76 C 213.42 75.73 206.71 79.00 205.47 79.00 C 204.83 79.00 201.43 80.88 197.91 83.18 C 189.88 88.42 182.08 92.41 181.32 91.65 C 181.00 91.34 181.31 87.44 182.00 83.00 C 182.69 78.56 182.98 74.64 182.64 74.30 C 182.30 73.96 182.40 73.19 182.86 72.59 C 185.87 68.71 184.05 63.00 179.79 63.00 C 177.06 63.00 175.31 68.06 174.62 78.00 C 173.64 92.14 172.54 97.91 170.44 99.96 C 167.67 102.68 142.00 120.00 140.75 120.00 C 140.18 120.00 138.28 121.65 136.53 123.68 C 132.67 128.15 130.00 127.79 130.01 122.78 C 130.01 120.98 128.58 112.14 126.83 103.15 C 124.01 88.67 123.38 86.68 121.36 85.76 C 119.60 84.95 118.49 85.10 116.49 86.42 C 115.06 87.35 113.75 88.65 113.57 89.31 C 113.39 89.96 112.53 92.97 111.67 96.00 C 108.17 108.29 107.75 112.53 108.34 129.59 C 109.08 150.87 111.32 158.99 119.26 169.25 C 122.77 173.78 126.16 174.21 128.63 170.44 C 129.98 168.39 130.33 165.25 130.41 154.93 C 130.49 143.68 130.72 141.92 132.20 141.44 C 133.13 141.14 134.18 140.02 134.52 138.95 C 134.86 137.88 135.59 137.00 136.15 137.00 C 136.71 137.00 139.55 134.53 142.46 131.50 C 145.62 128.21 148.60 126.00 149.87 126.00 C 151.04 126.00 152.00 125.56 152.00 125.03 C 152.00 124.50 154.36 122.55 157.25 120.70 C 160.14 118.85 163.12 116.58 163.87 115.67 C 164.63 114.75 165.93 114.00 166.77 114.00 C 168.10 114.00 168.22 115.71 167.69 126.75 C 166.69 147.58 163.06 156.61 158.50 149.64 C 157.65 148.34 156.89 145.62 156.81 143.59 C 156.58 137.48 153.14 137.69 150.63 143.97 C 148.43 149.47 149.96 154.23 155.11 157.97 C 159.83 161.38 163.21 162.23 167.98 161.19 C 171.73 160.37 171.86 160.10 175.04 145.75 C 175.74 142.59 176.59 140.01 176.91 140.01 C 177.23 140.02 181.89 144.07 187.26 149.01 C 192.63 153.96 197.90 158.00 198.97 158.00 C 203.49 158.00 205.86 155.86 206.95 150.81 C 207.89 146.42 207.76 145.48 205.75 141.96 C 204.51 139.79 203.01 138.01 202.41 138.01 C 201.81 138.00 200.72 139.81 199.99 142.03 C 199.26 144.24 198.32 145.93 197.91 145.78 C 197.49 145.62 192.84 141.36 187.58 136.29 C 178.00 127.09 178.00 127.09 178.00 122.01 C 178.00 119.22 178.66 115.36 179.47 113.43 C 180.27 111.50 180.70 108.70 180.41 107.21 C 179.93 104.74 180.66 103.97 188.56 98.50 C 193.34 95.20 197.75 92.20 198.37 91.82 C 200.32 90.65 213.19 85.00 213.91 85.00 C 214.95 85.00 217.56 93.85 222.01 112.50 C 224.25 121.85 227.16 133.78 228.48 139.00 C 231.78 152.01 235.79 173.34 236.18 180.00 C 236.50 185.50 236.50 185.50 232.50 185.43 C 228.00 185.35 222.65 182.00 213.07 173.25 C 209.91 170.36 206.80 168.00 206.16 168.00 C 202.12 168.00 209.69 180.31 217.00 185.62 C 225.10 191.51 235.51 195.67 245.27 196.90 C 245.70 196.96 246.41 195.99 246.85 194.75 Z  M 28.94 182.57 C 30.92 180.19 32.93 165.08 31.95 160.00 C 30.68 153.37 30.80 152.20 32.99 150.01 C 34.83 148.17 36.18 148.04 51.24 148.23 C 62.62 148.38 69.06 148.03 72.69 147.05 C 79.14 145.31 80.52 146.22 81.45 152.78 C 81.82 155.38 82.80 159.35 83.64 161.62 C 85.82 167.49 85.16 170.16 81.00 172.27 C 75.85 174.88 62.53 173.92 56.39 170.49 C 53.93 169.12 51.05 168.00 49.96 168.00 C 48.88 168.00 48.00 167.55 48.00 167.01 C 48.00 165.23 43.69 161.00 41.88 161.00 C 37.69 161.00 39.21 166.51 44.22 169.47 C 45.90 170.46 48.05 172.05 49.00 173.00 C 50.68 174.68 55.01 176.46 63.74 179.05 C 66.07 179.74 72.67 180.35 78.41 180.41 C 87.47 180.49 89.22 180.23 91.60 178.45 C 95.94 175.21 96.59 173.60 95.30 169.29 C 93.40 162.92 91.17 153.99 88.87 143.50 C 87.66 138.00 86.21 132.38 85.65 131.00 C 85.09 129.62 84.54 127.83 84.42 127.00 C 84.30 126.17 83.49 123.47 82.62 121.00 C 81.75 118.53 79.94 112.22 78.61 107.00 C 77.27 101.78 75.42 95.03 74.48 92.00 C 72.69 86.17 70.63 69.41 71.45 67.27 C 71.73 66.55 71.19 65.99 70.22 65.97 C 69.27 65.95 67.63 65.28 66.56 64.47 C 63.76 62.35 63.29 62.58 61.95 66.75 C 60.49 71.30 55.78 80.00 54.77 80.00 C 54.37 80.00 53.09 81.87 51.92 84.16 C 50.75 86.44 48.01 90.57 45.83 93.34 C 43.64 96.10 40.94 100.19 39.82 102.43 C 37.81 106.44 33.25 112.00 31.97 112.00 C 31.61 112.00 31.01 104.91 30.64 96.25 C 29.76 75.84 28.54 68.82 25.17 64.98 C 21.38 60.66 17.37 60.87 15.44 65.49 C 13.01 71.30 12.00 77.90 11.52 91.00 C 11.27 97.88 10.78 106.42 10.42 110.00 C 10.07 113.58 9.82 117.17 9.87 118.00 C 9.92 118.83 10.19 124.22 10.46 130.00 C 11.09 143.07 11.49 146.94 12.96 154.50 C 13.60 157.80 14.11 161.79 14.09 163.36 C 14.05 167.29 19.75 181.75 21.82 182.96 C 24.27 184.39 27.58 184.21 28.94 182.57 Z  M 49.00 139.72 C 39.92 139.20 32.33 138.61 32.11 138.42 C 31.43 137.79 34.31 128.53 35.43 127.77 C 37.19 126.56 46.08 126.93 52.50 128.48 C 55.80 129.28 60.38 129.94 62.67 129.96 C 64.97 129.98 69.09 130.52 71.84 131.15 C 75.78 132.06 76.92 132.78 77.26 134.59 C 77.89 137.86 77.02 138.70 72.50 139.22 C 70.30 139.47 67.83 139.90 67.00 140.17 C 66.17 140.44 58.08 140.24 49.00 139.72 Z  M 61.00 120.44 C 56.88 119.69 50.91 118.81 47.75 118.47 C 44.36 118.11 42.00 117.37 41.99 116.68 C 41.97 114.44 48.50 102.11 50.00 101.56 C 51.28 101.08 56.01 94.19 59.59 87.56 C 60.17 86.49 61.09 85.47 61.64 85.29 C 62.93 84.86 71.64 113.07 72.35 120.00 C 72.55 121.98 70.09 122.07 61.00 120.44 Z "/>
</g>
</svg>