<?xml version="1.0" encoding="UTF-8" standalone="no"?>
<!DOCTYPE svg PUBLIC "-//W3C//DTD SVG 1.1//EN" "http://www.w3.org/Graphics/SVG/1.1/DTD/svg11.dtd" >
<svg xmlns="http://www.w3.org/2000/svg" xmlns:xlink="http://www.w3.org/1999/xlink" version="1.1" viewBox="0 0 256 256">
 <g >
 <path fill="currentColor"
d=" M 153.87 239.81 C 154.13 239.10 154.44 239.10 154.89 239.82 C 155.32 240.53 157.83 240.24 162.52 238.96 C 166.36 237.92 170.46 237.05 171.64 237.03 C 172.82 237.01 174.05 236.32 174.36 235.50 C 174.69 234.63 176.19 234.00 177.90 234.00 C 184.63 234.00 187.77 221.97 184.57 208.50 C 183.65 204.65 182.68 200.38 182.41 199.00 C 182.14 197.62 180.16 192.00 178.01 186.50 C 175.86 181.00 173.63 174.67 173.06 172.42 C 171.15 164.98 168.05 164.69 153.87 170.64 C 150.78 171.94 146.84 173.28 145.12 173.63 C 142.00 174.25 142.00 174.25 142.00 166.33 C 142.00 161.49 142.47 157.93 143.20 157.20 C 143.88 156.52 147.11 156.00 150.61 156.00 C 156.32 156.00 157.03 155.75 159.41 152.92 C 162.50 149.25 162.57 148.57 160.11 146.11 C 156.74 142.74 148.14 140.34 138.54 140.08 C 133.61 139.96 127.08 139.21 124.04 138.43 C 117.50 136.76 90.60 132.74 87.00 132.90 C 83.32 133.07 78.34 134.89 76.92 136.59 C 75.90 137.82 76.26 138.67 78.96 141.46 C 80.77 143.32 83.42 145.14 84.85 145.50 C 86.29 145.86 89.73 147.18 92.48 148.44 C 95.24 149.70 98.62 151.07 100.00 151.48 C 101.38 151.90 104.49 153.13 106.92 154.22 C 112.13 156.56 127.31 159.21 130.66 158.37 C 132.99 157.78 133.00 157.81 133.00 167.68 C 133.00 177.58 133.00 177.58 127.48 180.29 C 124.44 181.78 121.79 183.00 121.58 183.00 C 121.37 183.00 120.68 179.96 120.03 176.25 C 118.14 165.38 116.80 161.99 114.14 161.32 C 112.67 160.95 111.46 161.25 110.91 162.11 C 109.60 164.18 109.85 170.73 111.48 177.50 C 113.31 185.06 113.31 185.00 111.45 185.00 C 110.60 185.00 108.89 186.01 107.64 187.25 C 104.65 190.22 93.57 195.43 91.74 194.73 C 90.77 194.36 90.12 191.93 89.72 187.24 C 88.82 176.46 86.53 169.92 82.23 165.79 C 77.73 161.46 75.35 161.90 71.67 167.74 C 69.35 171.41 68.20 176.63 67.33 187.50 C 67.11 190.25 66.68 195.07 66.37 198.21 C 65.67 205.47 67.21 212.65 71.22 220.80 C 75.16 228.80 77.25 229.94 84.03 227.77 C 88.62 226.31 89.14 226.32 91.24 227.91 C 96.50 231.89 101.17 233.83 110.55 235.91 C 116.02 237.12 122.59 238.70 125.14 239.43 C 127.72 240.16 130.38 240.38 131.11 239.93 C 131.84 239.48 132.92 239.52 133.51 240.01 C 134.70 240.99 147.06 241.87 151.00 241.25 C 152.38 241.03 153.67 240.38 153.87 239.81 Z  M 181.59 141.50 C 182.69 139.82 183.03 137.94 182.62 135.75 C 181.83 131.55 181.85 115.80 182.66 110.00 C 183.00 107.53 183.78 105.17 184.39 104.77 C 185.00 104.36 189.40 104.02 194.17 104.02 C 201.96 104.00 203.15 103.74 205.82 101.50 C 208.06 99.61 208.80 98.14 208.80 95.56 C 208.80 91.48 207.24 89.96 200.50 87.54 C 197.75 86.55 195.07 85.35 194.55 84.87 C 194.03 84.39 192.37 84.00 190.87 84.00 C 186.10 84.00 183.23 82.33 182.54 79.16 C 180.97 72.06 175.00 71.31 174.00 78.10 C 173.57 81.01 173.07 81.54 170.50 81.79 C 158.91 82.89 151.00 86.94 151.00 91.77 C 151.00 94.48 162.59 103.00 166.27 103.00 C 168.26 103.00 169.37 103.71 170.18 105.50 C 170.81 106.88 171.69 108.00 172.15 108.00 C 172.60 108.00 173.04 109.01 173.12 110.25 C 173.44 115.12 172.92 132.42 172.43 132.90 C 171.39 133.95 161.37 133.09 158.00 131.66 C 156.07 130.84 152.47 128.57 150.00 126.60 C 145.31 122.86 143.56 122.28 142.46 124.06 C 139.70 128.54 153.39 139.60 162.93 140.60 C 164.89 140.80 168.75 141.60 171.50 142.36 C 178.72 144.37 179.77 144.28 181.59 141.50 Z  M 66.38 120.95 C 70.98 115.49 71.68 108.80 69.34 92.60 C 68.77 88.70 68.77 88.70 79.14 89.37 C 84.84 89.74 91.61 90.56 94.19 91.19 C 98.65 92.29 98.96 92.60 100.53 97.42 C 102.28 102.81 104.52 106.00 106.54 106.00 C 107.22 106.00 108.82 105.16 110.09 104.13 C 112.40 102.26 112.40 102.26 110.60 96.32 C 109.36 92.23 108.28 82.44 107.15 64.94 C 105.50 39.50 105.50 39.50 102.87 39.20 C 99.69 38.83 98.98 40.87 98.47 51.85 C 98.29 55.89 97.92 59.42 97.65 59.68 C 97.39 59.95 96.30 59.69 95.23 59.12 C 94.16 58.55 88.59 57.78 82.84 57.41 C 72.40 56.73 72.40 56.73 70.69 45.80 C 68.34 30.77 64.64 24.00 58.77 24.00 C 56.40 24.00 55.63 24.65 54.33 27.75 C 52.22 32.79 51.96 38.24 53.15 52.50 C 53.77 59.93 54.72 65.39 55.65 66.83 C 59.00 72.02 68.17 72.91 70.30 68.25 C 71.44 65.74 71.44 65.74 82.97 66.31 C 98.78 67.08 98.74 67.06 99.56 73.61 C 100.46 80.81 99.21 82.35 93.06 81.65 C 60.11 77.93 52.16 77.75 48.33 80.61 C 43.85 83.95 44.71 85.28 52.46 86.99 C 59.19 88.47 59.45 88.64 60.17 92.01 C 61.19 96.73 61.66 111.67 60.82 112.51 C 59.37 113.96 55.87 111.67 54.03 108.05 C 52.25 104.58 50.35 103.00 47.92 103.00 C 47.41 103.00 47.00 104.74 47.00 106.86 C 47.00 110.27 47.77 111.52 53.48 117.36 C 57.05 121.03 60.82 124.00 61.89 124.00 C 62.95 124.00 64.98 122.63 66.38 120.95 Z  M 155.00 117.22 C 155.00 113.98 152.51 110.00 150.47 110.00 C 149.69 110.00 145.68 108.66 141.55 107.02 C 137.43 105.38 133.38 104.30 132.57 104.61 C 129.81 105.67 129.61 109.07 132.16 111.62 C 135.23 114.68 147.55 119.94 151.75 119.97 C 154.64 120.00 155.00 119.69 155.00 117.22 Z  M 145.70 89.35 C 147.79 86.79 152.31 81.42 155.75 77.43 C 159.19 73.43 162.00 69.61 162.00 68.94 C 162.00 68.28 163.01 66.69 164.25 65.42 C 165.49 64.15 169.43 59.78 173.00 55.71 C 176.57 51.64 181.61 46.89 184.18 45.16 C 189.60 41.51 191.20 38.27 188.36 36.63 C 182.37 33.17 163.07 28.22 160.86 29.59 C 159.34 30.52 154.00 28.93 154.00 27.54 C 154.00 26.83 154.70 25.66 155.57 24.95 C 157.96 22.96 160.06 18.32 159.37 16.53 C 159.03 15.65 157.19 14.27 155.27 13.47 C 152.16 12.17 151.41 12.19 148.36 13.63 C 141.47 16.90 130.17 32.92 128.35 41.98 C 127.67 45.39 129.71 53.00 131.30 53.00 C 132.63 53.00 136.25 49.07 141.44 41.97 C 145.46 36.47 149.00 35.56 149.00 40.03 C 149.00 42.20 150.54 44.58 155.16 49.51 C 160.73 55.47 161.18 56.25 159.77 57.66 C 157.59 59.84 152.71 58.57 149.27 54.92 C 147.75 53.32 145.49 52.00 144.25 52.00 C 142.41 52.00 142.00 52.55 142.00 55.05 C 142.00 59.50 144.35 63.34 148.42 65.53 C 150.39 66.59 152.00 67.65 152.00 67.89 C 152.00 68.78 143.98 78.64 140.57 81.94 C 137.01 85.38 137.01 85.38 134.09 82.59 C 131.24 79.85 131.16 79.84 130.09 81.83 C 128.16 85.44 131.43 90.66 137.02 92.88 C 141.05 94.49 141.72 94.22 145.70 89.35 Z  M 131.62 231.32 C 125.85 230.59 120.11 229.22 117.84 228.03 C 115.69 226.91 112.71 225.99 111.22 225.97 C 109.72 225.96 105.35 224.81 101.50 223.42 C 97.65 222.03 93.44 220.63 92.14 220.31 C 89.95 219.77 89.81 219.34 90.22 214.35 C 90.76 207.89 92.73 205.48 100.78 201.40 C 103.92 199.82 107.30 197.70 108.30 196.70 C 111.23 193.77 113.23 194.97 114.67 200.50 C 116.40 207.20 116.47 207.00 112.57 207.00 C 108.93 207.00 107.34 209.13 108.58 212.34 C 109.21 213.99 114.73 215.98 118.68 215.99 C 119.89 216.00 121.99 216.43 123.36 216.95 C 128.92 219.06 150.94 223.21 157.35 223.35 C 163.02 223.47 164.36 223.19 165.16 221.70 C 166.82 218.60 165.67 216.77 161.25 215.46 C 158.91 214.78 157.00 214.59 157.00 215.04 C 157.00 216.01 149.74 215.04 149.00 213.97 C 148.72 213.57 146.47 212.93 144.00 212.55 C 141.53 212.17 135.61 210.93 130.85 209.79 C 122.20 207.73 122.20 207.73 122.25 202.62 C 122.28 199.80 121.98 196.37 121.58 194.99 C 120.92 192.71 121.35 192.24 126.45 189.74 C 129.53 188.23 132.43 187.00 132.90 187.00 C 133.38 187.00 135.03 189.50 136.57 192.56 C 138.12 195.62 140.65 198.86 142.19 199.77 C 143.74 200.68 145.00 201.80 145.00 202.26 C 145.00 202.71 145.56 202.99 146.25 202.86 C 146.94 202.74 149.30 203.17 151.50 203.81 C 153.70 204.46 158.32 204.99 161.76 204.99 C 166.69 205.00 168.37 204.59 169.66 203.09 C 173.23 198.92 175.47 203.37 176.41 216.50 C 177.09 225.98 175.87 229.14 171.39 229.51 C 168.11 229.78 146.54 231.96 143.50 232.33 C 142.40 232.47 137.05 232.01 131.62 231.32 Z  M 77.14 211.76 C 74.33 202.83 73.84 199.21 74.49 192.28 C 74.86 188.28 75.54 185.00 75.99 185.00 C 76.45 185.00 77.04 189.61 77.30 195.25 C 77.57 200.89 78.23 207.42 78.76 209.77 C 79.92 214.84 78.61 216.45 77.14 211.76 Z  M 154.75 196.15 C 148.48 193.96 144.00 189.70 144.00 185.93 C 144.00 183.60 144.54 182.91 146.75 182.38 C 148.26 182.01 151.47 180.63 153.88 179.30 C 160.87 175.46 162.81 176.27 166.24 184.50 C 170.29 194.24 170.32 194.36 168.17 195.68 C 164.89 197.70 159.70 197.88 154.75 196.15 Z  M 162.87 44.98 C 156.05 40.36 153.48 38.19 154.11 37.56 C 155.02 36.65 169.51 39.17 171.43 40.57 C 172.82 41.59 172.94 42.25 172.06 43.90 C 169.90 47.92 167.62 48.19 162.87 44.98 Z "/>
</g>
</svg>