<?xml version="1.0" encoding="UTF-8" standalone="no"?>
<!DOCTYPE svg PUBLIC "-//W3C//DTD SVG 1.1//EN" "http://www.w3.org/Graphics/SVG/1.1/DTD/svg11.dtd" >
<svg xmlns="http://www.w3.org/2000/svg" xmlns:xlink="http://www.w3.org/1999/xlink" version="1.1" viewBox="0 0 256 256">
 <g >
 <path fill="currentColor"
d=" M 216.93 209.13 C 217.48 208.10 217.63 206.96 217.25 206.59 C 216.88 206.22 216.02 200.65 215.34 194.21 C 213.30 175.04 212.38 169.46 210.64 165.99 C 209.74 164.18 209.00 161.78 209.00 160.66 C 209.00 158.37 207.75 151.04 204.96 137.00 C 202.39 124.00 201.95 119.55 201.80 104.50 C 201.66 90.31 202.41 85.00 204.54 85.00 C 205.31 85.00 206.45 84.02 207.10 82.82 C 208.14 80.88 207.78 80.18 203.77 76.40 C 200.89 73.67 197.70 71.76 194.89 71.06 C 192.47 70.45 188.58 69.07 186.22 67.98 C 183.87 66.89 180.55 66.00 178.84 66.00 C 177.13 66.00 174.10 65.58 172.12 65.06 C 170.13 64.54 165.77 63.42 162.43 62.56 C 159.08 61.70 152.24 61.00 147.15 61.00 C 139.27 61.00 137.21 61.37 132.93 63.54 C 130.18 64.93 127.16 65.94 126.21 65.79 C 124.90 65.57 124.44 66.32 124.25 69.00 C 124.12 70.92 124.57 73.22 125.26 74.11 C 127.50 76.98 136.27 81.70 146.50 85.54 C 156.78 89.40 169.11 91.34 184.00 91.44 C 187.57 91.46 190.83 91.94 191.23 92.49 C 191.64 93.05 191.99 98.45 192.02 104.50 C 192.10 122.31 193.54 133.76 197.88 151.14 C 203.15 172.24 205.02 182.54 205.47 192.81 C 205.83 201.12 205.83 201.12 203.17 199.37 C 198.24 196.13 182.34 188.30 179.65 187.78 C 177.72 187.41 177.00 187.69 177.00 188.81 C 177.00 190.55 179.83 194.00 181.26 194.00 C 181.78 194.00 183.55 195.12 185.18 196.50 C 186.82 197.88 188.84 199.00 189.68 199.00 C 190.52 199.00 193.46 201.03 196.22 203.51 C 198.98 205.99 202.42 208.26 203.87 208.55 C 205.32 208.84 207.62 209.46 209.00 209.93 C 213.19 211.37 215.88 211.09 216.93 209.13 Z  M 169.54 187.99 C 171.00 187.43 172.43 186.08 172.72 184.98 C 173.00 183.88 174.25 182.72 175.49 182.41 C 180.99 181.03 180.99 171.64 175.51 157.50 C 174.02 153.65 172.41 149.15 171.94 147.50 C 171.47 145.85 169.22 139.32 166.93 133.00 C 164.65 126.67 161.48 116.85 159.88 111.17 C 156.90 100.61 154.59 95.07 152.61 93.77 C 151.07 92.75 147.00 92.81 147.00 93.86 C 147.00 94.33 142.43 97.31 136.85 100.49 C 131.27 103.66 124.48 107.94 121.75 110.00 C 114.24 115.69 104.82 121.00 102.25 121.00 C 99.78 121.00 98.00 117.84 98.00 113.46 C 98.00 110.25 93.46 100.11 91.72 99.45 C 89.76 98.69 85.00 100.70 85.00 102.28 C 85.00 103.00 84.47 104.13 83.83 104.77 C 79.82 108.78 76.67 130.21 77.94 144.85 C 78.91 156.01 81.92 164.48 85.22 165.35 C 87.01 165.81 87.19 166.41 86.64 169.87 C 86.16 172.84 86.41 174.27 87.60 175.46 C 91.13 178.99 105.42 185.00 111.50 185.52 C 113.70 185.70 122.15 186.59 130.28 187.48 C 138.42 188.38 145.84 188.89 146.78 188.62 C 147.73 188.35 150.30 188.53 152.50 189.00 C 157.05 190.00 165.59 189.49 169.54 187.99 Z  M 51.40 174.90 C 53.52 173.23 53.83 172.51 52.92 171.40 C 52.13 170.45 52.08 169.59 52.75 168.75 C 53.37 167.97 53.45 165.41 52.95 162.00 C 52.51 158.97 52.11 151.51 52.07 145.41 C 51.98 130.89 50.12 103.49 48.92 98.86 C 46.92 91.11 38.89 93.85 37.51 102.75 C 37.19 104.81 36.05 109.42 34.97 113.00 C 31.55 124.35 30.69 130.19 30.61 142.50 C 30.54 154.59 30.93 158.09 32.95 163.39 C 34.12 166.45 39.31 173.65 41.86 175.75 C 44.15 177.63 48.41 177.25 51.40 174.90 Z  M 87.60 63.32 C 88.19 60.17 87.83 59.40 83.88 55.29 C 77.35 48.52 68.35 42.16 64.19 41.38 C 62.17 41.00 57.81 39.41 54.51 37.84 C 47.74 34.64 43.88 34.26 41.57 36.57 C 38.91 39.24 39.77 41.62 46.05 48.90 C 57.65 62.34 62.42 64.95 79.00 66.94 C 86.11 67.79 86.82 67.50 87.60 63.32 Z  M 152.62 179.57 C 141.83 178.30 139.05 176.58 138.96 171.14 C 138.93 169.69 138.28 166.73 137.51 164.57 C 136.25 161.03 136.28 160.51 137.81 159.38 C 139.26 158.30 140.02 158.64 143.11 161.81 C 152.13 171.04 154.28 172.46 156.98 171.01 C 160.13 169.33 159.41 166.86 154.00 160.79 C 151.25 157.70 148.99 154.58 148.98 153.84 C 148.97 153.10 148.08 151.38 147.00 150.00 C 143.52 145.55 144.31 144.36 151.19 143.64 C 154.60 143.28 157.77 143.37 158.24 143.84 C 159.42 145.02 166.19 160.88 169.51 170.24 C 173.59 181.74 173.14 181.99 152.62 179.57 Z  M 111.83 175.17 C 108.71 174.25 105.82 173.16 105.41 172.75 C 105.00 172.34 104.10 172.00 103.42 172.00 C 102.73 172.00 100.06 171.10 97.50 170.00 C 92.83 168.00 92.83 168.00 95.37 164.97 C 97.84 162.03 98.27 160.57 99.48 150.99 C 100.05 146.49 100.05 146.49 104.49 146.84 C 108.93 147.20 108.93 147.20 109.22 157.35 C 109.48 166.85 109.64 167.52 111.64 167.81 C 113.43 168.06 114.05 167.25 115.44 162.81 C 116.36 159.89 117.42 155.30 117.80 152.61 C 118.20 149.82 119.19 147.28 120.11 146.70 C 123.19 144.76 124.75 146.61 126.01 153.70 C 127.50 162.03 127.14 164.41 124.32 164.81 C 120.77 165.32 120.62 168.02 123.97 171.47 C 125.64 173.19 127.00 175.14 127.00 175.80 C 127.00 177.53 118.68 177.18 111.83 175.17 Z  M 103.16 134.80 C 109.85 129.01 113.97 126.00 115.21 126.00 C 115.95 126.00 117.59 125.27 118.86 124.38 C 120.13 123.50 121.52 123.16 121.96 123.63 C 123.02 124.80 124.08 134.83 123.20 135.37 C 122.81 135.60 117.55 136.09 111.50 136.45 C 100.50 137.11 100.50 137.11 103.16 134.80 Z  M 134.75 135.24 C 133.27 134.91 133.00 133.67 133.00 127.13 C 133.00 122.50 132.52 118.92 131.81 118.21 C 130.90 117.30 131.17 116.45 132.99 114.51 C 134.29 113.13 135.78 112.00 136.31 112.00 C 136.85 112.00 139.25 111.02 141.66 109.82 C 144.90 108.19 146.32 107.92 147.16 108.76 C 148.40 110.00 153.38 124.86 154.43 130.47 C 155.02 133.64 154.82 134.12 152.54 134.99 C 150.12 135.90 138.54 136.07 134.75 135.24 Z  M 40.82 156.00 C 37.69 149.04 38.27 129.94 41.52 133.18 C 41.82 133.49 41.94 139.08 41.78 145.62 C 41.63 152.15 41.20 156.82 40.82 156.00 Z "/>
</g>
</svg>