<?xml version="1.0" encoding="UTF-8" standalone="no"?>
<!DOCTYPE svg PUBLIC "-//W3C//DTD SVG 1.1//EN" "http://www.w3.org/Graphics/SVG/1.1/DTD/svg11.dtd" >
<svg xmlns="http://www.w3.org/2000/svg" xmlns:xlink="http://www.w3.org/1999/xlink" version="1.1" viewBox="0 0 256 256">
 <g >
 <path fill="currentColor"
d=" M 222.19 237.32 C 224.24 235.31 225.70 233.32 225.44 232.90 C 225.17 232.47 222.93 231.81 220.45 231.44 C 217.97 231.07 214.50 229.79 212.72 228.60 C 206.77 224.61 189.00 196.23 189.00 190.71 C 189.00 187.20 207.72 151.27 215.12 140.56 C 218.91 135.09 222.00 129.56 222.00 128.26 C 222.00 124.80 217.54 120.70 214.73 121.58 C 206.58 124.13 195.28 141.10 186.91 163.36 C 183.00 173.73 183.38 174.28 179.57 152.50 C 175.34 128.28 173.13 109.88 174.40 109.44 C 175.00 109.23 181.70 108.39 189.28 107.58 C 204.20 105.97 205.91 105.28 211.88 98.48 C 215.79 94.03 215.90 92.53 212.25 93.49 C 207.85 94.65 179.78 95.26 175.97 94.28 C 173.21 93.57 172.26 92.66 171.32 89.83 C 169.85 85.40 169.36 53.02 170.44 32.44 C 171.37 14.93 171.01 14.00 163.50 14.00 C 159.80 14.00 158.81 14.45 157.01 16.99 C 153.57 21.82 153.16 28.41 154.66 54.86 C 156.73 91.29 158.52 89.01 139.00 74.84 C 117.84 59.49 118.16 59.65 110.07 60.23 C 99.22 61.01 88.31 67.68 83.91 76.21 C 79.97 83.86 82.24 88.04 93.30 93.48 C 102.18 97.86 114.70 101.03 139.98 105.31 C 159.45 108.60 159.45 108.60 162.03 124.05 C 163.45 132.55 167.47 150.43 170.97 163.78 C 177.33 188.06 177.33 188.06 173.59 208.78 C 169.61 230.87 169.24 239.24 172.20 239.81 C 173.51 240.05 174.28 238.79 175.53 234.31 C 178.13 224.96 184.19 206.57 184.94 205.74 C 185.31 205.32 188.38 210.72 191.75 217.74 C 198.73 232.25 202.14 236.85 208.23 239.92 C 213.74 242.71 217.36 242.03 222.19 237.32 Z  M 77.39 221.04 C 79.66 220.18 83.00 215.50 83.00 213.18 C 83.00 212.67 80.66 212.03 77.81 211.76 C 73.66 211.36 72.17 210.70 70.40 208.47 C 66.45 203.52 64.67 195.77 65.28 186.13 C 65.77 178.27 66.68 175.23 75.53 152.00 C 80.88 137.97 85.72 124.42 86.30 121.87 C 87.91 114.74 86.28 112.07 75.12 103.64 C 69.35 99.28 62.67 93.00 58.31 87.83 C 46.69 74.07 41.05 72.82 35.80 82.87 C 31.04 91.97 32.13 103.28 38.46 110.69 C 43.11 116.12 47.85 118.18 57.79 119.08 C 67.02 119.92 69.00 120.96 69.00 124.97 C 69.00 126.47 66.04 139.35 62.43 153.60 C 54.88 183.36 53.48 195.25 56.34 205.10 C 60.06 217.88 68.63 224.37 77.39 221.04 Z  M 155.65 211.48 C 155.97 210.64 154.37 206.25 152.10 201.73 C 147.42 192.41 146.36 187.38 145.67 170.95 C 145.18 159.39 145.18 159.39 151.88 157.11 C 159.21 154.62 163.63 151.82 162.68 150.29 C 162.34 149.74 158.64 149.01 154.46 148.66 C 150.27 148.30 146.32 147.67 145.67 147.26 C 144.85 146.73 144.50 141.30 144.50 129.08 C 144.50 111.67 144.50 111.67 141.65 110.72 C 139.43 109.98 138.44 110.13 137.15 111.43 C 135.73 112.86 135.52 115.47 135.67 130.05 C 135.77 139.37 135.73 147.00 135.58 147.00 C 134.34 147.00 123.11 142.65 121.30 141.46 C 118.44 139.59 118.27 134.38 120.59 120.20 C 122.53 108.41 121.74 105.00 117.10 105.00 C 114.67 105.00 111.00 107.10 111.00 108.48 C 111.00 108.67 110.33 112.35 109.50 116.66 C 108.68 120.97 108.00 126.90 108.00 129.84 C 108.00 135.19 108.00 135.19 102.95 134.49 C 93.87 133.24 89.00 137.59 89.00 146.95 C 89.00 155.25 94.04 160.00 102.87 160.00 C 107.37 160.00 106.71 157.77 111.58 189.31 C 114.17 206.09 115.84 210.50 119.61 210.50 C 122.44 210.50 122.43 207.46 119.56 194.68 C 117.03 183.40 115.90 162.77 117.75 161.67 C 118.16 161.42 122.76 161.06 127.97 160.86 C 137.44 160.50 137.44 160.50 140.11 179.00 C 143.15 200.07 143.58 202.10 146.13 207.20 C 148.82 212.56 154.29 215.02 155.65 211.48 Z  M 210.41 67.52 C 217.72 60.21 218.02 43.87 210.98 36.83 C 208.66 34.50 207.29 34.00 203.33 34.00 C 194.23 34.01 189.30 39.57 188.27 51.00 C 187.81 56.00 188.12 57.45 190.58 61.97 C 194.32 68.85 197.19 71.00 202.60 71.00 C 206.21 71.00 207.51 70.42 210.41 67.52 Z  M 72.22 62.02 C 73.88 61.97 80.27 55.39 82.06 51.88 C 84.82 46.47 84.55 40.44 81.25 33.93 C 77.83 27.18 73.99 25.00 65.48 25.00 C 57.69 25.00 53.29 27.33 50.19 33.11 C 48.22 36.77 47.90 38.53 48.29 43.69 C 49.31 57.20 57.59 65.25 68.00 62.85 C 69.92 62.41 71.82 62.04 72.22 62.02 Z "/>
</g>
</svg>