<?xml version="1.0" encoding="UTF-8" standalone="no"?>
<!DOCTYPE svg PUBLIC "-//W3C//DTD SVG 1.1//EN" "http://www.w3.org/Graphics/SVG/1.1/DTD/svg11.dtd" >
<svg xmlns="http://www.w3.org/2000/svg" xmlns:xlink="http://www.w3.org/1999/xlink" version="1.1" viewBox="0 0 256 256">
 <g >
 <path fill="currentColor"
d=" M 123.85 237.68 C 124.45 236.96 125.21 233.70 125.55 230.43 C 127.35 212.97 133.26 167.67 134.59 161.10 C 136.50 151.72 141.67 131.01 142.91 127.75 C 143.80 125.40 144.01 125.36 150.66 126.18 C 163.47 127.75 193.47 128.82 201.62 127.99 C 211.14 127.02 218.12 123.91 222.84 118.53 C 227.90 112.76 227.26 111.67 219.25 112.47 C 212.09 113.18 202.48 111.66 190.67 107.95 C 180.93 104.89 181.24 106.02 185.96 90.88 C 192.56 69.72 193.00 67.90 193.00 61.78 C 193.00 56.00 193.00 56.00 199.25 55.99 C 210.64 55.98 230.00 49.98 230.00 46.47 C 230.00 45.69 226.25 45.09 218.68 44.66 C 203.20 43.77 194.57 41.33 173.53 31.85 C 156.76 24.30 154.93 23.70 147.32 23.25 C 140.29 22.83 138.49 23.07 134.57 24.97 C 124.58 29.80 120.14 39.23 125.38 44.47 C 127.48 46.57 145.02 53.00 148.66 53.00 C 149.59 53.00 149.84 56.50 149.70 67.25 C 149.59 75.09 149.87 84.53 150.33 88.22 C 151.15 94.95 151.15 94.95 141.83 94.73 C 133.83 94.55 131.90 94.83 128.29 96.76 C 121.73 100.25 119.00 103.75 119.00 108.66 C 119.00 114.17 122.12 117.84 129.96 121.56 C 133.28 123.14 136.00 124.78 136.00 125.20 C 136.00 125.62 134.90 129.75 133.56 134.38 C 130.45 145.12 126.57 168.40 123.97 192.00 C 122.84 202.18 121.49 213.20 120.97 216.50 C 119.87 223.39 119.68 237.35 120.67 238.33 C 121.67 239.34 122.64 239.14 123.85 237.68 Z  M 84.96 221.02 C 89.71 218.60 99.19 208.18 104.27 199.80 C 110.76 189.08 118.04 163.03 119.85 144.00 C 120.89 133.16 119.68 119.90 117.01 112.77 C 113.28 102.78 100.89 91.33 89.71 87.53 C 84.00 85.59 84.00 85.59 84.10 75.04 C 84.25 59.33 84.08 59.62 93.22 58.88 C 102.77 58.10 109.42 55.12 110.86 50.97 C 111.74 48.44 111.58 47.82 109.72 46.52 C 108.53 45.68 106.74 45.00 105.74 45.00 C 101.49 45.00 87.85 41.55 70.07 35.97 C 58.50 32.34 49.25 30.00 46.49 30.00 C 40.89 30.00 35.79 32.03 33.63 35.12 C 31.35 38.38 31.54 45.74 34.03 49.81 C 36.38 53.68 40.09 55.41 52.50 58.46 C 61.50 60.67 61.50 60.67 61.78 71.35 C 62.00 79.39 61.75 82.13 60.78 82.40 C 60.08 82.59 55.80 83.24 51.28 83.84 C 39.48 85.39 33.75 88.70 29.90 96.21 C 27.37 101.15 27.44 106.18 30.06 108.56 C 32.21 110.50 33.02 110.37 43.63 106.31 C 44.33 106.04 43.88 109.48 42.41 115.55 C 39.23 128.70 37.62 147.44 38.26 163.85 C 39.41 193.64 47.33 210.50 64.50 219.72 C 71.80 223.64 78.93 224.10 84.96 221.02 Z  M 193.94 93.60 C 196.84 88.91 202.97 83.55 208.87 80.57 C 214.20 77.87 218.00 73.84 218.00 70.89 C 218.00 69.88 216.85 68.29 215.43 67.37 C 213.01 65.78 212.61 65.79 208.21 67.62 C 202.72 69.89 197.83 75.83 192.41 86.77 C 189.07 93.50 188.55 97.00 190.89 97.00 C 191.41 97.00 192.78 95.47 193.94 93.60 Z  M 138.33 80.80 C 140.47 77.33 141.36 74.41 141.75 69.58 C 142.26 63.23 142.18 62.97 139.03 60.03 C 131.44 52.94 123.00 58.46 123.00 70.50 C 123.00 76.01 124.40 79.73 127.79 83.29 C 131.67 87.36 134.73 86.64 138.33 80.80 Z  M 167.50 100.83 C 163.65 99.72 159.93 98.27 159.22 97.60 C 157.62 96.06 156.08 84.29 155.32 67.64 C 154.73 54.79 154.73 54.79 166.61 55.44 C 173.15 55.80 180.12 56.33 182.11 56.61 C 185.72 57.13 185.72 57.13 183.86 60.78 C 182.47 63.49 182.00 66.60 182.01 72.96 C 182.02 84.10 178.25 103.03 176.05 102.92 C 175.20 102.88 171.35 101.94 167.50 100.83 Z  M 65.12 211.29 C 53.54 205.58 48.25 182.46 49.40 142.50 C 49.97 122.52 51.66 105.00 53.17 103.50 C 53.49 103.18 55.46 102.64 57.54 102.30 C 61.32 101.69 61.32 101.69 60.64 123.88 C 60.26 136.19 59.29 149.51 58.48 153.79 C 56.56 163.81 56.56 168.00 58.47 168.00 C 59.29 168.00 60.64 166.67 61.48 165.04 C 64.46 159.27 65.83 148.43 66.54 124.84 C 67.26 101.18 67.26 101.18 72.21 100.84 C 74.94 100.65 77.35 100.69 77.58 100.92 C 77.81 101.15 78.00 106.19 78.00 112.13 C 78.00 125.28 80.40 143.32 83.11 150.57 C 85.85 157.89 90.08 161.39 95.35 160.68 C 97.52 160.39 100.20 159.24 101.31 158.13 C 103.07 156.38 103.15 155.89 101.95 154.44 C 101.19 153.52 98.22 151.66 95.36 150.30 C 91.65 148.55 89.69 146.87 88.56 144.49 C 84.77 136.49 82.35 102.57 85.49 101.37 C 87.58 100.56 95.44 105.40 98.45 109.34 C 104.41 117.16 106.57 130.55 105.01 149.93 C 103.09 173.68 96.33 193.01 85.99 204.32 C 78.28 212.76 72.21 214.78 65.12 211.29 Z  M 82.92 185.47 C 100.35 180.80 101.47 179.02 89.50 174.99 C 85.10 173.51 79.15 171.11 76.28 169.65 C 69.26 166.08 66.82 166.26 61.90 170.71 C 58.01 174.23 57.81 174.66 58.30 178.93 C 59.35 188.30 65.88 190.04 82.92 185.47 Z  M 68.01 75.75 C 68.02 71.76 68.30 66.81 68.64 64.75 C 69.26 61.01 69.28 61.00 74.13 61.00 C 79.00 61.00 79.00 61.00 79.00 72.00 C 79.00 83.00 79.00 83.00 73.50 83.00 C 68.00 83.00 68.00 83.00 68.01 75.75 Z "/>
</g>
</svg>