<?xml version="1.0" encoding="UTF-8" standalone="no"?>
<!DOCTYPE svg PUBLIC "-//W3C//DTD SVG 1.1//EN" "http://www.w3.org/Graphics/SVG/1.1/DTD/svg11.dtd" >
<svg xmlns="http://www.w3.org/2000/svg" xmlns:xlink="http://www.w3.org/1999/xlink" version="1.1" viewBox="0 0 256 256">
 <g >
 <path fill="currentColor"
d=" M 133.71 243.20 C 135.81 241.87 138.00 235.26 138.00 230.28 C 138.00 227.65 136.87 217.88 135.50 208.57 C 132.41 187.63 132.41 185.71 135.50 168.45 C 138.62 151.00 138.63 148.94 135.64 146.13 C 131.85 142.57 126.99 142.30 123.26 145.43 C 118.61 149.35 117.65 153.49 118.30 166.91 C 118.78 176.71 119.73 181.73 124.43 199.38 C 131.63 226.36 131.81 233.93 125.33 236.64 C 122.43 237.85 122.10 238.32 122.99 239.98 C 124.87 243.50 130.56 245.20 133.71 243.20 Z  M 91.28 234.65 C 96.15 232.62 101.83 225.64 106.18 216.36 C 110.57 206.99 114.28 193.98 112.95 192.59 C 111.51 191.08 109.40 193.63 102.93 204.70 C 95.74 216.99 91.15 221.93 84.97 224.00 C 80.87 225.37 80.47 225.80 80.20 229.15 C 79.96 232.03 80.38 233.15 82.17 234.40 C 84.95 236.35 87.08 236.41 91.28 234.65 Z  M 211.49 234.82 C 216.09 232.73 214.20 230.58 207.05 229.79 C 187.33 227.61 177.01 220.48 163.69 199.84 C 160.62 195.08 157.09 190.47 155.83 189.60 C 151.14 186.31 146.64 188.53 145.40 194.76 C 143.45 204.49 162.99 223.84 182.17 231.17 C 193.50 235.50 206.46 237.12 211.49 234.82 Z  M 52.69 188.75 C 55.87 184.76 61.33 178.68 64.83 175.22 C 76.02 164.17 97.32 149.01 109.41 143.48 C 117.33 139.86 131.03 135.00 133.34 135.00 C 134.16 135.00 135.80 136.56 136.97 138.46 C 140.60 144.33 148.79 150.79 159.21 156.01 C 164.69 158.75 168.41 161.00 167.46 161.00 C 162.50 161.00 157.15 163.83 150.82 169.81 C 144.66 175.62 138.00 184.12 138.00 186.17 C 138.00 188.14 141.32 186.68 146.56 182.41 C 153.33 176.89 156.48 175.49 165.57 173.93 C 176.61 172.05 177.97 170.58 173.92 164.89 C 171.84 161.97 171.84 161.97 177.17 164.14 C 191.57 170.01 212.75 174.46 218.59 172.85 C 225.62 170.91 221.96 168.62 206.57 165.37 C 198.29 163.61 192.87 161.70 184.54 157.58 C 173.93 152.33 170.29 150.08 152.41 137.82 C 147.97 134.77 143.69 132.05 142.91 131.77 C 141.87 131.39 142.34 130.37 144.75 127.83 C 150.33 121.95 148.33 117.15 138.98 114.00 C 133.50 112.16 133.50 112.16 132.07 100.60 C 131.28 94.24 130.83 88.84 131.07 88.60 C 131.30 88.36 134.83 87.84 138.90 87.44 C 146.30 86.71 146.30 86.71 145.67 90.65 C 144.80 96.08 147.54 99.83 159.18 109.18 C 170.86 118.56 172.96 119.81 186.50 125.33 C 200.91 131.21 206.42 132.70 218.66 134.00 C 229.39 135.14 234.00 134.67 234.00 132.43 C 234.00 130.59 231.41 129.40 225.85 128.67 C 220.24 127.94 210.99 124.83 201.50 120.49 C 196.30 118.12 190.33 113.71 178.26 103.35 C 166.16 92.96 160.68 88.91 156.76 87.49 C 151.50 85.58 151.50 85.58 160.87 83.83 C 176.96 80.83 190.16 75.71 194.88 70.65 C 197.99 67.31 197.12 64.52 193.24 65.38 C 186.41 66.90 168.73 68.90 161.00 69.01 C 149.48 69.19 130.08 66.71 128.86 64.90 C 127.80 63.33 128.56 53.38 130.17 47.90 C 130.94 45.28 130.91 43.71 130.08 42.15 C 128.94 40.03 129.03 40.00 137.71 40.04 C 142.55 40.06 151.00 40.48 156.50 40.98 C 168.27 42.04 174.08 40.98 177.03 37.24 C 181.01 32.18 178.00 23.01 171.13 19.24 C 155.93 10.90 137.53 12.04 109.73 23.06 C 90.24 30.78 72.88 40.55 71.29 44.69 C 70.93 45.62 71.38 46.81 72.36 47.52 C 73.74 48.53 76.33 48.08 86.78 44.99 C 96.70 42.06 102.10 41.07 111.25 40.49 C 117.81 40.08 122.99 40.14 122.99 40.63 C 122.98 41.11 122.31 43.98 121.50 47.00 C 120.69 50.02 120.02 54.86 120.01 57.75 C 120.01 60.64 119.64 63.00 119.20 63.00 C 118.75 63.00 113.69 61.41 107.95 59.46 C 92.65 54.27 72.14 49.01 67.22 49.00 C 61.28 49.00 56.41 51.28 54.03 55.19 C 49.67 62.33 52.42 69.90 61.21 74.96 C 67.95 78.84 87.17 84.93 97.35 86.41 C 105.19 87.56 105.19 87.56 99.85 89.94 C 96.07 91.62 91.70 95.14 84.97 101.91 C 74.08 112.86 38.69 156.55 39.27 158.33 C 39.48 158.97 40.54 159.63 41.62 159.79 C 44.07 160.16 50.53 153.57 67.45 133.50 C 81.36 116.99 88.70 110.19 100.00 103.34 C 104.12 100.84 108.51 97.87 109.75 96.72 C 112.44 94.25 112.68 90.50 110.25 89.08 C 108.90 88.29 109.70 88.05 113.77 88.03 C 118.55 88.00 119.14 88.25 120.04 90.60 C 121.08 93.35 125.00 110.64 125.00 112.51 C 125.00 113.11 122.64 114.43 119.75 115.44 C 106.67 120.02 75.37 146.78 59.38 167.04 C 50.54 178.25 43.64 190.45 44.41 193.52 C 44.76 194.88 45.46 196.00 45.98 196.00 C 46.49 196.00 49.51 192.74 52.69 188.75 Z  M 101.36 187.62 C 103.18 186.86 105.68 184.95 106.93 183.37 C 111.60 177.45 106.87 166.76 98.32 163.94 C 90.76 161.45 84.00 167.14 84.01 176.00 C 84.02 186.00 92.17 191.46 101.36 187.62 Z "/>
</g>
</svg>