<?xml version="1.0" encoding="UTF-8" standalone="no"?>
<!DOCTYPE svg PUBLIC "-//W3C//DTD SVG 1.1//EN" "http://www.w3.org/Graphics/SVG/1.1/DTD/svg11.dtd" >
<svg xmlns="http://www.w3.org/2000/svg" xmlns:xlink="http://www.w3.org/1999/xlink" version="1.1" viewBox="0 0 203 256">
 <g >
 <path fill="currentColor"
d=" M 175.65 219.68 C 185.03 214.92 192.21 204.66 194.87 192.20 C 196.40 185.03 196.43 88.21 194.91 80.80 C 194.31 77.88 191.99 71.67 189.76 67.00 C 184.67 56.33 175.81 47.15 165.40 41.74 C 152.54 35.05 152.26 35.03 86.25 35.01 C 27.00 35.00 27.00 35.00 26.99 95.25 C 26.99 129.28 26.54 159.42 25.97 164.50 C 24.11 181.01 19.41 190.93 10.47 197.24 C 6.02 200.37 6.02 200.37 10.37 208.44 C 14.41 215.92 14.98 216.52 18.19 216.80 C 23.80 217.29 35.97 214.29 43.57 210.55 C 54.80 205.02 63.50 194.60 68.56 180.61 C 70.77 174.50 70.77 174.50 80.39 174.21 C 90.00 173.93 90.00 173.93 90.00 196.96 C 90.00 220.00 90.00 220.00 108.00 220.00 C 126.00 220.00 126.00 220.00 126.03 211.25 C 126.06 202.50 126.06 202.50 128.23 205.50 C 133.86 213.29 143.19 219.57 152.70 221.97 C 159.13 223.59 170.09 222.50 175.65 219.68 Z  M 126.00 183.24 C 126.00 174.00 126.00 174.00 135.14 174.00 C 144.28 174.00 144.28 174.00 143.70 179.58 C 143.39 182.65 142.36 186.33 141.42 187.76 C 139.71 190.36 139.71 190.36 136.98 187.30 C 134.24 184.23 134.24 184.23 130.12 188.35 C 126.00 192.47 126.00 192.47 126.00 183.24 Z  M 74.00 133.96 C 74.00 126.92 74.00 126.92 81.75 127.21 C 89.50 127.50 89.50 127.50 89.80 134.25 C 90.09 141.00 90.09 141.00 82.05 141.00 C 74.00 141.00 74.00 141.00 74.00 133.96 Z  M 126.00 134.00 C 126.00 127.00 126.00 127.00 135.00 127.00 C 144.00 127.00 144.00 127.00 144.00 134.00 C 144.00 141.00 144.00 141.00 135.00 141.00 C 126.00 141.00 126.00 141.00 126.00 134.00 Z  M 74.00 87.50 C 74.00 81.00 74.00 81.00 82.00 81.00 C 90.00 81.00 90.00 81.00 90.00 87.50 C 90.00 94.00 90.00 94.00 82.00 94.00 C 74.00 94.00 74.00 94.00 74.00 87.50 Z  M 126.00 87.50 C 126.00 81.00 126.00 81.00 135.00 81.00 C 144.00 81.00 144.00 81.00 144.00 87.50 C 144.00 94.00 144.00 94.00 135.00 94.00 C 126.00 94.00 126.00 94.00 126.00 87.50 Z "/>
</g>
</svg>