<?xml version="1.0" encoding="UTF-8" standalone="no"?>
<!DOCTYPE svg PUBLIC "-//W3C//DTD SVG 1.1//EN" "http://www.w3.org/Graphics/SVG/1.1/DTD/svg11.dtd" >
<svg xmlns="http://www.w3.org/2000/svg" xmlns:xlink="http://www.w3.org/1999/xlink" version="1.1" viewBox="0 0 247 256">
 <g >
 <path fill="currentColor"
d=" M 40.62 222.47 C 67.91 217.78 85.75 205.59 96.37 184.39 C 106.41 164.33 106.15 142.65 95.56 117.84 C 94.98 116.47 95.84 115.95 100.43 114.93 C 103.85 114.16 106.00 113.16 106.00 112.32 C 106.00 111.57 104.13 103.50 101.85 94.39 C 98.00 78.99 97.56 77.86 95.60 78.31 C 86.65 80.36 87.81 81.02 84.64 72.07 C 83.07 67.63 81.49 64.00 81.14 64.00 C 80.37 64.00 55.65 72.15 55.15 72.57 C 54.96 72.73 55.75 75.38 56.90 78.47 C 59.66 85.83 59.57 86.60 55.85 87.90 C 50.92 89.62 50.58 89.38 48.67 82.70 C 45.88 72.96 46.96 73.30 32.38 77.53 C 25.30 79.58 19.39 81.35 19.25 81.46 C 19.12 81.57 20.10 84.88 21.44 88.81 C 22.77 92.75 23.53 96.17 23.13 96.42 C 22.72 96.67 19.37 97.44 15.68 98.11 C 10.39 99.09 9.07 99.68 9.43 100.93 C 9.67 101.79 11.77 109.47 14.09 118.00 C 16.41 126.53 18.63 133.87 19.03 134.33 C 19.43 134.79 28.32 132.94 38.79 130.23 C 57.82 125.31 57.82 125.31 58.91 127.70 C 59.51 129.02 60.00 130.65 60.00 131.33 C 60.00 132.13 52.43 134.27 38.78 137.34 C 27.11 139.96 17.42 142.25 17.23 142.43 C 16.84 142.83 21.62 161.96 22.28 162.62 C 22.53 162.87 31.44 161.03 42.07 158.54 C 52.70 156.04 62.17 154.00 63.11 154.00 C 64.48 154.00 64.68 154.54 64.11 156.67 C 63.43 159.22 62.29 159.64 40.05 165.66 C 27.21 169.13 16.52 172.15 16.30 172.37 C 15.88 172.79 20.54 191.87 21.23 192.57 C 21.46 192.79 28.58 190.99 37.07 188.56 C 52.50 184.15 52.50 184.15 47.50 188.74 C 44.54 191.46 38.62 195.16 33.00 197.81 C 27.77 200.27 23.40 202.37 23.27 202.46 C 23.06 202.61 27.45 219.59 28.52 222.75 C 29.05 224.34 29.87 224.32 40.62 222.47 Z  M 212.31 220.55 C 224.98 214.55 235.43 200.89 238.53 186.26 C 240.69 176.07 240.64 96.87 238.47 88.53 C 236.32 80.29 232.46 73.61 225.58 66.23 C 214.36 54.20 208.11 51.83 185.57 51.07 C 168.64 50.50 168.64 50.50 168.89 43.75 C 169.32 32.08 171.41 33.00 144.53 33.00 C 121.20 33.00 121.20 33.00 120.82 49.75 C 120.50 63.99 120.13 67.17 118.39 71.00 C 116.49 75.15 111.53 80.49 107.43 82.78 C 105.86 83.66 105.95 84.61 108.57 95.36 C 111.41 107.00 111.41 107.00 118.10 107.00 C 126.38 107.00 135.70 104.22 143.00 99.56 C 148.50 96.05 148.50 96.05 172.30 96.03 C 196.11 96.00 196.11 96.00 195.80 135.25 C 195.50 174.11 195.48 174.55 193.12 179.76 C 190.36 185.87 185.02 191.00 181.42 191.00 C 178.53 191.00 173.45 188.63 170.43 185.88 C 168.37 184.00 168.32 184.03 163.66 189.74 C 158.40 196.18 158.32 197.32 162.66 204.33 C 168.23 213.35 175.84 219.61 184.62 222.43 C 192.23 224.87 205.02 224.00 212.31 220.55 Z  M 164.21 167.45 C 178.78 162.48 186.11 145.36 179.62 131.43 C 174.26 119.93 166.40 114.66 154.59 114.67 C 146.21 114.68 141.02 116.92 135.02 123.10 C 129.27 129.02 127.00 134.41 127.00 142.12 C 127.00 160.88 145.84 173.70 164.21 167.45 Z  M 51.25 66.97 C 71.67 61.46 88.60 56.73 88.86 56.47 C 89.32 56.01 83.45 35.12 82.63 34.29 C 82.11 33.77 8.76 52.95 7.82 53.85 C 7.44 54.21 8.01 58.77 9.09 64.00 C 11.50 75.76 11.89 77.00 13.12 77.00 C 13.66 77.00 30.82 72.49 51.25 66.97 Z "/>
</g>
</svg>