<?xml version="1.0" encoding="UTF-8" standalone="no"?>
<!DOCTYPE svg PUBLIC "-//W3C//DTD SVG 1.1//EN" "http://www.w3.org/Graphics/SVG/1.1/DTD/svg11.dtd" >
<svg xmlns="http://www.w3.org/2000/svg" xmlns:xlink="http://www.w3.org/1999/xlink" version="1.1" viewBox="0 0 237 256">
 <g >
 <path fill="currentColor"
d=" M 190.50 210.15 C 200.37 205.46 206.76 197.12 212.08 181.98 C 214.20 175.92 214.38 173.56 214.76 145.25 C 215.18 115.00 215.18 115.00 222.09 115.00 C 229.00 115.00 229.00 115.00 229.00 91.50 C 229.00 68.00 229.00 68.00 222.00 68.00 C 215.00 68.00 215.00 68.00 215.00 56.00 C 215.00 44.00 215.00 44.00 190.50 44.00 C 166.00 44.00 166.00 44.00 166.00 56.00 C 166.00 68.00 166.00 68.00 140.00 68.00 C 114.00 68.00 114.00 68.00 114.00 91.50 C 114.00 115.00 114.00 115.00 140.06 115.00 C 166.12 115.00 166.12 115.00 165.81 142.80 C 165.54 167.40 165.30 170.90 163.73 173.30 C 161.54 176.63 158.96 176.73 155.35 173.62 C 152.58 171.24 152.58 171.24 147.29 175.81 C 144.38 178.33 142.00 180.98 142.00 181.72 C 142.00 184.83 148.63 195.81 153.76 201.19 C 165.02 212.99 177.90 216.13 190.50 210.15 Z  M 99.58 179.84 C 104.67 174.20 104.67 174.20 117.42 182.11 C 124.44 186.45 130.58 189.76 131.07 189.45 C 132.92 188.31 145.21 171.88 150.42 163.58 C 153.40 158.84 157.54 150.65 159.63 145.37 C 163.24 136.24 163.34 135.72 161.60 134.45 C 158.19 131.96 134.90 118.77 134.55 119.14 C 134.36 119.34 132.36 123.60 130.11 128.61 C 124.98 140.05 118.26 152.23 111.85 161.72 C 106.03 170.34 108.93 171.39 89.23 153.57 C 76.04 141.65 76.04 141.65 75.77 122.07 C 75.50 102.50 75.50 102.50 58.36 102.23 C 41.22 101.95 41.22 101.95 40.78 123.23 C 40.38 142.23 40.09 145.11 38.10 150.24 C 35.55 156.78 33.03 159.00 28.16 159.00 C 25.53 159.00 23.86 158.10 20.78 155.02 C 16.25 150.48 15.70 150.57 9.70 156.77 C 5.89 160.69 5.89 160.69 7.94 166.07 C 12.04 176.87 20.92 186.56 30.30 190.48 C 35.52 192.66 44.48 192.43 49.54 189.98 C 54.30 187.68 62.40 180.07 64.58 175.85 C 65.39 174.28 66.39 173.00 66.79 173.00 C 67.20 173.00 72.03 177.52 77.52 183.04 C 88.76 194.34 86.16 194.72 99.58 179.84 Z  M 36.00 120.98 C 36.00 97.96 36.00 97.96 58.75 98.23 C 81.50 98.50 81.50 98.50 81.77 121.25 C 82.04 144.00 82.04 144.00 95.12 144.00 C 108.21 144.00 108.21 144.00 107.78 116.75 C 107.38 91.11 107.22 89.15 105.01 83.51 C 102.07 75.96 93.87 67.52 85.50 63.43 C 79.50 60.50 79.50 60.50 45.75 60.20 C 12.00 59.90 12.00 59.90 12.00 101.95 C 12.00 144.00 12.00 144.00 24.00 144.00 C 36.00 144.00 36.00 144.00 36.00 120.98 Z "/>
</g>
</svg>