<?xml version="1.0" encoding="UTF-8" standalone="no"?>
<!DOCTYPE svg PUBLIC "-//W3C//DTD SVG 1.1//EN" "http://www.w3.org/Graphics/SVG/1.1/DTD/svg11.dtd" >
<svg xmlns="http://www.w3.org/2000/svg" xmlns:xlink="http://www.w3.org/1999/xlink" version="1.1" viewBox="0 0 225 256">
 <g >
 <path fill="currentColor"
d=" M 198.18 233.74 C 206.07 229.12 210.92 222.72 215.35 211.09 C 217.43 205.61 217.48 204.09 217.78 136.14 C 218.11 59.62 218.28 62.01 211.77 49.75 C 207.76 42.19 201.62 36.67 192.19 32.17 C 184.50 28.50 184.50 28.50 129.25 28.21 C 74.00 27.92 74.00 27.92 74.00 49.96 C 74.00 72.00 74.00 72.00 122.00 72.00 C 170.00 72.00 170.00 72.00 170.00 132.44 C 170.00 192.89 170.00 192.89 167.67 195.60 C 164.73 199.01 160.91 198.36 158.34 193.99 C 157.36 192.35 156.25 191.00 155.85 191.00 C 155.46 191.00 152.38 192.69 149.00 194.75 C 142.86 198.50 142.86 198.50 143.31 202.79 C 144.40 213.13 154.77 227.31 165.06 232.53 C 172.08 236.09 176.38 236.95 185.59 236.64 C 192.22 236.42 194.49 235.90 198.18 233.74 Z  M 57.76 160.75 C 57.50 89.50 57.50 89.50 34.25 89.23 C 11.00 88.96 11.00 88.96 11.00 160.48 C 11.00 232.00 11.00 232.00 34.51 232.00 C 58.01 232.00 58.01 232.00 57.76 160.75 Z  M 131.23 205.89 C 131.50 186.78 131.50 186.78 137.70 184.53 C 149.82 180.14 159.04 170.55 162.47 158.77 C 163.81 154.13 164.06 149.32 163.81 132.30 C 163.51 112.14 163.42 111.32 160.82 105.78 C 157.27 98.20 149.92 90.52 142.52 86.65 C 136.50 83.50 136.50 83.50 100.75 83.20 C 65.00 82.91 65.00 82.91 65.00 134.95 C 65.00 187.00 65.00 187.00 78.50 187.00 C 92.00 187.00 92.00 187.00 92.00 206.00 C 92.00 225.00 92.00 225.00 111.48 225.00 C 130.96 225.00 130.96 225.00 131.23 205.89 Z  M 46.81 70.30 C 59.94 64.10 65.29 48.45 59.04 34.50 C 53.08 21.18 35.44 14.99 22.22 21.58 C 6.51 29.40 2.18 50.50 13.55 63.79 C 22.15 73.83 34.30 76.21 46.81 70.30 Z  M 85.00 154.95 C 85.00 150.89 85.00 150.89 89.75 151.20 C 94.45 151.50 94.50 151.54 94.81 155.25 C 95.12 159.00 95.12 159.00 90.06 159.00 C 85.00 159.00 85.00 159.00 85.00 154.95 Z  M 128.00 155.00 C 128.00 151.00 128.00 151.00 132.50 151.00 C 137.00 151.00 137.00 151.00 137.00 155.00 C 137.00 159.00 137.00 159.00 132.50 159.00 C 128.00 159.00 128.00 159.00 128.00 155.00 Z  M 85.00 123.95 C 85.00 119.89 85.00 119.89 89.75 120.20 C 94.45 120.50 94.50 120.54 94.81 124.25 C 95.12 128.00 95.12 128.00 90.06 128.00 C 85.00 128.00 85.00 128.00 85.00 123.95 Z  M 128.00 124.00 C 128.00 120.00 128.00 120.00 132.50 120.00 C 137.00 120.00 137.00 120.00 137.00 124.00 C 137.00 128.00 137.00 128.00 132.50 128.00 C 128.00 128.00 128.00 128.00 128.00 124.00 Z "/>
</g>
</svg>