<?xml version="1.0" encoding="UTF-8" standalone="no"?>
<!DOCTYPE svg PUBLIC "-//W3C//DTD SVG 1.1//EN" "http://www.w3.org/Graphics/SVG/1.1/DTD/svg11.dtd" >
<svg xmlns="http://www.w3.org/2000/svg" xmlns:xlink="http://www.w3.org/1999/xlink" version="1.1" viewBox="0 0 259 256">
 <g >
 <path fill="currentColor"
d=" M 235.40 236.00 C 242.81 231.55 247.64 225.94 249.52 219.61 C 251.80 211.94 251.62 173.15 249.27 165.86 C 247.20 159.45 241.65 153.48 234.47 149.95 C 229.71 147.61 228.52 147.49 206.75 147.17 C 184.00 146.84 184.00 146.84 184.00 143.42 C 184.00 140.00 184.00 140.00 214.00 140.00 C 244.00 140.00 244.00 140.00 244.00 130.00 C 244.00 120.00 244.00 120.00 213.93 120.00 C 183.87 120.00 183.87 120.00 184.18 117.25 C 184.50 114.50 184.50 114.50 205.00 114.00 C 227.09 113.46 229.31 112.99 235.80 107.52 C 237.61 105.99 240.31 102.44 241.78 99.62 C 244.30 94.81 244.49 93.54 244.82 78.80 C 245.25 59.82 244.11 54.67 237.90 47.62 C 231.00 39.79 227.74 38.61 211.70 38.18 C 204.11 37.97 198.04 37.51 198.20 37.15 C 198.37 36.79 199.68 34.25 201.11 31.50 C 202.54 28.75 204.01 25.27 204.37 23.77 C 204.92 21.48 204.66 20.97 202.76 20.57 C 200.30 20.05 172.83 17.00 170.62 17.00 C 169.63 17.00 169.12 19.13 168.76 24.75 C 168.48 29.01 167.76 33.74 167.15 35.25 C 166.05 38.00 166.05 38.00 155.52 38.00 C 145.00 38.00 145.00 38.00 145.00 106.00 C 145.00 174.00 145.00 174.00 182.50 174.00 C 220.00 174.00 220.00 174.00 220.00 192.00 C 220.00 210.00 220.00 210.00 213.50 210.00 C 207.00 210.00 207.00 210.00 207.00 225.11 C 207.00 240.22 207.00 240.22 218.29 239.86 C 229.12 239.51 229.81 239.36 235.40 236.00 Z  M 114.38 229.02 C 121.46 227.95 127.48 226.86 127.75 226.58 C 128.03 226.31 127.68 218.72 126.99 209.71 C 125.72 193.35 125.72 193.35 133.86 183.67 C 138.34 178.34 142.00 173.58 142.00 173.08 C 142.00 172.07 131.56 149.23 130.71 148.38 C 130.41 148.08 128.44 150.15 126.33 152.98 C 122.50 158.12 122.50 158.12 121.84 153.31 C 121.47 150.67 121.14 146.81 121.09 144.75 C 121.00 141.00 121.00 141.00 129.00 141.00 C 137.00 141.00 137.00 141.00 137.00 118.00 C 137.00 95.00 137.00 95.00 126.50 95.00 C 116.00 95.00 116.00 95.00 116.00 91.50 C 116.00 88.00 116.00 88.00 122.25 88.00 C 129.81 88.00 134.53 85.87 137.82 81.00 C 140.95 76.35 140.61 67.08 137.13 62.18 C 132.65 55.89 122.05 53.04 116.00 56.50 C 114.62 57.29 113.21 57.95 112.87 57.96 C 112.52 57.98 111.92 55.08 111.54 51.50 C 111.12 47.61 110.37 45.00 109.67 44.99 C 105.75 44.96 78.35 48.44 77.64 49.06 C 76.97 49.66 79.73 81.98 81.38 92.75 C 81.71 94.92 81.45 95.00 73.86 95.00 C 66.00 95.00 66.00 95.00 66.00 88.06 C 66.00 81.12 66.00 81.12 69.75 80.81 C 73.23 80.52 73.49 80.28 73.33 77.50 C 73.24 75.85 72.85 68.71 72.48 61.63 C 71.78 48.76 71.78 48.76 47.14 49.41 C 33.59 49.77 20.36 50.32 17.75 50.62 C 13.00 51.19 13.00 51.19 13.00 55.94 C 13.00 58.55 13.29 65.48 13.65 71.34 C 14.30 82.00 14.30 82.00 19.15 82.00 C 24.00 82.00 24.00 82.00 24.00 88.50 C 24.00 95.00 24.00 95.00 16.00 95.00 C 8.00 95.00 8.00 95.00 8.00 118.00 C 8.00 141.00 8.00 141.00 16.00 141.00 C 24.00 141.00 24.00 141.00 24.00 147.93 C 24.00 155.74 24.38 155.40 14.75 156.49 C 11.59 156.85 9.00 157.47 9.00 157.86 C 9.00 159.00 11.95 182.15 12.55 185.79 C 13.08 188.95 13.24 189.05 16.80 188.45 C 18.84 188.11 21.36 187.59 22.41 187.30 C 24.19 186.80 24.27 187.21 23.67 193.58 C 23.31 197.54 22.41 201.02 21.54 201.89 C 20.21 203.22 19.76 203.12 17.49 200.99 C 14.94 198.59 14.94 198.59 10.83 202.70 C 6.72 206.81 6.72 206.81 8.85 210.26 C 11.98 215.32 20.42 222.85 25.44 225.08 C 32.61 228.25 37.69 228.49 44.38 225.97 C 47.62 224.75 51.93 222.25 53.97 220.41 C 60.52 214.49 65.97 199.23 65.99 186.75 C 66.00 183.29 66.22 183.00 68.86 183.00 C 70.43 183.00 73.80 182.71 76.35 182.37 C 80.39 181.81 80.92 181.47 80.53 179.62 C 80.28 178.45 79.56 171.14 78.91 163.36 C 77.74 149.21 77.74 149.21 71.87 149.75 C 66.00 150.28 66.00 150.28 66.00 145.64 C 66.00 141.00 66.00 141.00 75.53 141.00 C 82.26 141.00 85.19 141.37 85.49 142.25 C 85.73 142.94 86.79 153.18 87.86 165.00 C 89.79 186.50 89.79 186.50 85.89 190.14 C 83.75 192.14 78.96 195.03 75.25 196.57 C 71.54 198.10 68.13 199.67 67.69 200.04 C 67.24 200.42 69.48 205.96 72.66 212.36 C 79.12 225.33 78.10 224.77 87.66 220.50 C 92.83 218.19 92.83 218.19 93.53 224.35 C 93.91 227.73 94.44 230.85 94.69 231.28 C 94.95 231.71 96.58 231.81 98.33 231.51 C 100.07 231.20 107.29 230.08 114.38 229.02 Z  M 149.18 228.03 C 159.31 224.90 162.79 220.04 164.94 206.03 C 166.08 198.59 165.45 180.40 164.02 179.51 C 163.63 179.27 159.45 179.35 154.73 179.68 C 146.14 180.29 146.14 180.29 145.82 194.57 C 145.52 207.76 145.33 209.03 143.25 211.24 C 141.33 213.28 141.00 214.73 141.00 221.15 C 141.00 227.54 141.43 230.00 142.56 230.00 C 142.69 230.00 145.67 229.11 149.18 228.03 Z  M 184.88 226.43 C 185.31 226.02 183.23 188.66 182.42 182.25 C 181.88 178.00 181.88 178.00 174.69 178.64 C 170.73 178.99 167.45 179.33 167.39 179.39 C 167.34 179.45 168.32 189.18 169.59 201.00 C 170.86 212.82 171.92 223.78 171.95 225.35 C 172.00 228.20 172.00 228.20 178.25 227.49 C 181.69 227.09 184.67 226.62 184.88 226.43 Z  M 203.82 223.49 C 204.15 223.18 200.40 186.84 199.45 181.23 C 198.90 177.95 198.90 177.95 192.20 178.61 C 188.52 178.98 185.44 179.32 185.37 179.39 C 185.30 179.45 186.06 188.50 187.08 199.50 C 188.09 210.50 188.93 220.78 188.96 222.35 C 189.00 225.20 189.00 225.20 196.25 224.49 C 200.24 224.10 203.64 223.65 203.82 223.49 Z  M 215.00 206.42 C 216.65 206.10 217.99 205.31 217.98 204.67 C 217.93 201.72 215.16 178.83 214.82 178.49 C 214.61 178.27 211.85 178.37 208.70 178.69 C 202.96 179.28 202.96 179.28 203.46 182.39 C 203.73 184.10 204.47 190.58 205.11 196.80 C 206.41 209.44 205.24 208.31 215.00 206.42 Z  M 184.00 92.50 C 184.00 90.00 184.00 90.00 195.50 90.00 C 207.00 90.00 207.00 90.00 207.00 92.50 C 207.00 95.00 207.00 95.00 195.50 95.00 C 184.00 95.00 184.00 95.00 184.00 92.50 Z  M 184.67 75.33 C 184.30 74.97 184.00 73.84 184.00 72.83 C 184.00 71.16 185.02 71.00 195.50 71.00 C 207.00 71.00 207.00 71.00 207.00 73.50 C 207.00 76.00 207.00 76.00 196.17 76.00 C 190.21 76.00 185.03 75.70 184.67 75.33 Z "/>
</g>
</svg>