<?xml version="1.0" encoding="UTF-8" standalone="no"?>
<!DOCTYPE svg PUBLIC "-//W3C//DTD SVG 1.1//EN" "http://www.w3.org/Graphics/SVG/1.1/DTD/svg11.dtd" >
<svg xmlns="http://www.w3.org/2000/svg" xmlns:xlink="http://www.w3.org/1999/xlink" version="1.1" viewBox="0 0 256 256">
 <g >
 <path fill="currentColor"
d=" M 215.60 242.90 C 216.92 241.66 218.00 239.91 218.00 239.00 C 218.00 237.35 201.54 201.17 200.16 199.77 C 199.14 198.73 191.83 200.91 192.53 202.04 C 193.46 203.56 197.00 222.77 197.00 226.34 C 197.00 229.60 197.00 229.60 188.62 228.38 C 175.16 226.42 167.16 221.30 161.74 211.19 C 160.35 208.61 157.34 201.32 155.04 195.00 C 148.55 177.16 149.64 178.83 145.57 180.54 C 140.88 182.49 141.00 182.56 141.00 178.00 C 141.00 174.00 141.00 174.00 136.65 174.00 C 132.30 174.00 132.30 174.00 130.09 186.67 C 127.72 200.22 126.64 203.14 122.65 206.88 C 119.16 210.13 118.55 213.94 120.46 220.52 C 123.25 230.12 127.48 232.34 132.72 226.97 C 135.00 224.65 136.06 222.14 137.29 216.22 C 139.77 204.21 141.00 195.70 141.00 190.47 C 141.00 187.83 141.27 185.93 141.59 186.26 C 141.92 186.59 143.89 193.61 145.97 201.87 C 149.10 214.34 150.37 217.74 153.44 221.92 C 161.66 233.12 175.19 242.69 186.00 244.97 C 188.47 245.49 195.61 245.75 201.85 245.54 C 211.96 245.20 213.47 244.91 215.60 242.90 Z  M 116.44 240.50 C 116.41 238.30 114.41 228.29 112.00 218.25 C 107.63 200.00 107.63 200.00 103.81 200.00 C 100.00 200.00 100.00 200.00 100.00 212.50 C 100.00 223.26 99.78 225.00 98.41 225.00 C 97.53 225.00 92.82 222.93 87.93 220.41 C 80.13 216.38 78.63 215.15 75.66 210.41 C 73.79 207.43 70.13 198.59 67.51 190.75 C 64.89 182.91 62.67 176.40 62.57 176.28 C 62.47 176.15 60.73 176.51 58.69 177.07 C 54.35 178.27 54.27 178.80 56.54 191.14 C 60.21 211.01 65.11 223.90 71.22 229.76 C 77.32 235.61 104.31 245.28 113.00 244.72 C 116.39 244.51 116.50 244.38 116.44 240.50 Z  M 38.23 227.25 C 45.59 218.89 52.00 193.20 52.00 172.06 C 52.00 160.22 52.00 160.22 48.25 159.76 C 44.23 159.28 43.04 160.17 43.02 163.69 C 42.99 166.79 36.00 193.98 34.43 197.08 C 33.71 198.50 31.52 201.58 29.56 203.93 C 27.60 206.27 26.00 209.09 26.00 210.19 C 26.00 211.81 27.92 219.19 30.55 227.75 C 31.12 229.61 36.46 229.26 38.23 227.25 Z  M 180.18 201.75 C 183.55 196.38 187.20 185.94 186.58 183.47 C 186.23 182.07 180.96 175.78 174.87 169.49 C 163.79 158.06 163.79 158.06 160.96 159.52 C 159.40 160.33 157.84 161.45 157.48 162.03 C 157.13 162.60 159.38 167.67 162.49 173.28 C 166.18 179.95 168.96 186.61 170.49 192.45 C 173.40 203.54 176.93 206.93 180.18 201.75 Z  M 224.41 201.75 C 225.22 200.51 226.19 195.56 226.58 190.73 C 227.19 183.02 227.06 181.72 225.44 179.93 C 223.20 177.45 216.17 173.22 200.90 165.16 C 189.30 159.03 189.30 159.03 187.42 162.52 C 185.54 166.01 185.54 166.01 201.17 181.76 C 209.77 190.42 217.53 198.96 218.43 200.75 C 220.33 204.55 222.37 204.90 224.41 201.75 Z  M 90.25 196.12 C 91.58 194.53 93.71 190.67 94.99 187.53 C 97.31 181.81 97.31 181.81 95.26 177.66 C 94.13 175.37 89.95 169.68 85.97 165.00 C 81.99 160.32 78.07 155.49 77.26 154.26 C 75.82 152.07 75.71 152.06 72.78 153.76 C 71.13 154.72 69.56 156.04 69.30 156.69 C 69.05 157.34 70.40 161.39 72.32 165.69 C 75.83 173.57 80.30 187.37 81.53 194.20 C 82.15 197.61 83.16 198.53 86.66 198.88 C 87.30 198.95 88.91 197.70 90.25 196.12 Z  M 124.96 194.25 C 126.56 188.53 127.37 177.49 126.34 175.64 C 125.83 174.73 120.03 169.50 113.46 164.03 C 101.50 154.08 101.50 154.08 98.69 156.87 C 95.87 159.67 95.87 159.67 107.19 178.80 C 117.39 196.05 118.76 197.93 121.20 197.96 C 123.48 197.99 124.07 197.42 124.96 194.25 Z  M 179.05 154.00 C 179.58 153.18 179.77 151.38 179.46 150.00 C 178.94 147.68 162.73 117.59 160.94 115.62 C 160.10 114.69 156.44 115.37 154.08 116.90 C 152.68 117.82 152.92 119.02 158.75 140.25 C 159.18 141.81 158.37 142.00 151.33 142.00 C 129.82 142.00 116.21 132.77 104.71 110.37 C 96.96 95.27 97.14 95.47 92.67 96.95 C 90.65 97.61 89.00 98.56 89.00 99.05 C 89.00 101.11 94.12 115.38 97.29 122.17 C 101.64 131.47 112.26 143.95 119.27 148.01 C 129.97 154.19 139.24 155.88 161.29 155.66 C 174.98 155.53 178.26 155.22 179.05 154.00 Z  M 70.82 145.03 C 77.26 138.59 83.00 119.02 83.00 103.52 C 83.00 95.24 82.91 94.92 80.43 93.98 C 75.05 91.93 73.51 92.63 72.17 97.75 C 67.84 114.25 66.05 118.54 61.04 124.46 C 55.39 131.13 55.00 133.13 58.14 139.29 C 63.16 149.13 65.61 150.24 70.82 145.03 Z  M 198.01 130.49 C 199.58 128.60 200.23 113.74 198.90 110.24 C 198.36 108.82 197.15 107.05 196.21 106.31 C 193.10 103.84 164.70 87.00 163.65 87.00 C 162.25 87.00 158.00 91.09 158.00 92.44 C 158.00 93.05 162.54 98.03 168.09 103.52 C 173.63 109.01 181.28 117.66 185.08 122.75 C 192.25 132.34 195.07 134.03 198.01 130.49 Z  M 141.69 122.59 C 144.28 120.36 144.48 119.67 144.31 113.61 C 144.21 110.00 143.54 105.81 142.81 104.31 C 142.04 102.69 137.06 98.56 130.64 94.21 C 119.79 86.85 119.79 86.85 117.39 89.10 C 116.08 90.34 115.00 91.72 115.00 92.17 C 115.00 92.62 116.51 95.13 118.36 97.75 C 120.20 100.36 124.32 106.91 127.51 112.30 C 132.69 121.06 136.00 125.00 138.17 125.00 C 138.56 125.00 140.15 123.92 141.69 122.59 Z  M 109.12 94.09 C 109.50 92.21 109.42 86.59 108.93 81.59 C 108.45 76.59 108.04 71.79 108.03 70.92 C 108.00 69.59 110.71 69.14 125.05 68.05 C 134.43 67.35 142.35 67.02 142.66 67.32 C 142.96 67.63 142.27 72.31 141.11 77.72 C 139.95 83.14 139.00 88.27 139.00 89.13 C 139.00 90.82 147.19 93.84 147.75 92.35 C 158.18 64.35 154.73 66.74 189.00 63.81 C 206.32 62.33 220.79 61.09 221.14 61.06 C 222.25 60.96 223.07 57.80 222.48 55.93 C 222.17 54.95 218.57 51.58 214.48 48.45 C 207.05 42.76 207.05 42.76 203.16 44.32 C 196.00 47.18 186.60 49.21 174.50 50.48 C 167.90 51.18 162.36 51.62 162.19 51.48 C 162.02 51.33 162.19 48.41 162.58 45.00 C 163.11 40.33 164.13 37.52 166.69 33.72 C 169.45 29.61 169.85 28.43 168.80 27.43 C 165.23 24.03 149.57 11.00 149.07 11.02 C 148.76 11.03 147.42 11.87 146.10 12.89 C 143.71 14.73 143.71 14.73 145.48 21.30 C 146.87 26.43 147.15 30.24 146.76 38.69 C 146.48 44.63 145.95 50.23 145.58 51.11 C 145.02 52.43 141.60 52.97 126.70 54.11 C 108.50 55.50 108.50 55.50 108.21 46.30 C 108.01 39.75 108.37 36.05 109.46 33.43 C 110.31 31.41 111.00 29.43 111.00 29.04 C 111.00 28.64 106.67 25.27 101.38 21.55 C 91.76 14.77 91.76 14.77 88.82 17.72 C 85.88 20.66 85.88 20.66 88.52 26.58 C 90.35 30.68 91.57 36.01 92.51 43.96 C 93.26 50.26 93.64 55.77 93.37 56.21 C 93.10 56.64 87.62 57.03 81.19 57.06 C 64.46 57.16 34.80 58.63 32.81 59.46 C 29.25 60.95 30.38 63.46 37.13 69.00 C 44.72 75.24 40.44 74.92 76.76 71.95 C 96.13 70.37 96.37 70.46 93.65 78.12 C 91.85 83.18 91.85 83.18 94.68 87.27 C 102.39 98.45 107.72 100.97 109.12 94.09 Z "/>
</g>
</svg>