<?xml version="1.0" encoding="UTF-8" standalone="no"?>
<!DOCTYPE svg PUBLIC "-//W3C//DTD SVG 1.1//EN" "http://www.w3.org/Graphics/SVG/1.1/DTD/svg11.dtd" >
<svg xmlns="http://www.w3.org/2000/svg" xmlns:xlink="http://www.w3.org/1999/xlink" version="1.1" viewBox="0 0 256 256">
 <g >
 <path fill="currentColor"
d=" M 77.21 224.75 C 78.20 223.02 78.61 209.14 79.00 164.41 C 79.50 106.31 79.50 106.31 96.00 120.09 C 116.26 137.01 116.93 137.44 119.84 135.40 C 121.30 134.38 121.99 132.85 121.97 130.69 C 121.95 127.83 120.39 126.16 106.87 114.50 C 91.58 101.32 84.41 94.25 85.37 93.29 C 85.66 93.00 90.98 92.84 97.20 92.93 C 107.67 93.09 108.68 93.28 111.02 95.52 C 113.12 97.53 115.22 98.13 123.42 99.04 C 128.85 99.65 134.42 99.86 135.80 99.52 C 138.30 98.89 138.30 98.89 137.69 104.69 C 135.83 122.43 119.01 167.77 102.27 200.19 C 98.17 208.14 96.91 211.52 97.38 213.38 C 98.31 217.10 101.49 217.61 105.82 214.72 C 114.53 208.91 137.37 154.46 147.63 115.07 C 149.64 107.34 151.86 100.96 152.77 100.25 C 153.98 99.31 162.39 98.99 186.44 98.94 C 204.07 98.91 220.30 98.57 222.50 98.18 C 226.07 97.55 226.53 97.14 226.81 94.33 C 227.41 88.19 226.36 88.00 191.40 88.00 C 174.27 88.00 158.82 87.71 157.07 87.36 C 153.90 86.73 153.90 86.73 154.61 77.11 C 155.97 58.82 155.61 36.89 153.88 32.50 C 150.75 24.56 145.92 29.05 145.28 40.50 C 144.26 58.88 141.65 85.67 140.77 86.75 C 140.10 87.58 136.78 88.00 130.90 88.00 C 122.17 88.00 122.03 87.96 120.57 85.13 C 118.63 81.38 116.40 81.00 96.44 81.00 C 81.77 81.00 80.09 80.82 79.64 79.25 C 79.36 78.29 78.58 67.24 77.89 54.69 C 76.80 34.78 76.42 31.76 74.89 30.94 C 72.58 29.70 70.23 30.70 69.42 33.25 C 69.06 34.39 68.48 45.49 68.13 57.91 C 67.50 80.50 67.50 80.50 60.50 81.13 C 56.65 81.47 48.31 81.81 41.97 81.88 C 33.31 81.97 29.89 82.39 28.22 83.56 C 25.43 85.51 25.39 88.13 28.10 90.60 C 29.90 92.23 32.12 92.55 43.60 92.83 C 53.82 93.08 57.00 93.47 57.00 94.47 C 57.00 96.69 49.37 118.05 44.49 129.46 C 38.48 143.55 28.28 163.90 20.88 176.59 C 17.65 182.14 15.00 187.67 15.00 188.86 C 15.00 191.64 19.12 193.70 22.05 192.39 C 26.53 190.39 56.74 131.26 64.54 109.25 C 65.56 106.36 66.69 104.00 67.05 104.00 C 67.41 104.00 67.94 130.70 68.24 163.33 C 68.81 226.70 68.84 227.00 73.71 227.00 C 74.96 227.00 76.49 226.02 77.21 224.75 Z  M 221.42 222.05 C 229.96 220.22 230.00 220.12 230.00 200.88 C 230.00 185.28 229.86 184.00 228.07 183.04 C 222.01 179.79 219.48 184.25 218.73 199.48 C 218.42 205.77 217.88 211.39 217.53 211.96 C 217.11 212.63 209.25 213.00 195.56 213.00 C 174.25 213.00 174.25 213.00 172.16 208.16 C 169.23 201.34 168.05 195.55 168.02 187.79 C 168.00 181.09 168.00 181.09 190.75 157.50 C 203.26 144.52 214.08 132.78 214.81 131.40 C 215.53 130.02 215.98 127.46 215.81 125.70 C 215.56 123.10 215.01 122.44 212.91 122.20 C 210.70 121.94 207.41 124.92 190.51 142.48 C 179.61 153.80 170.20 162.90 169.60 162.70 C 168.88 162.46 168.30 155.49 167.93 142.42 C 167.32 121.32 166.38 116.77 162.49 116.22 C 158.08 115.59 157.53 118.70 157.00 147.36 C 156.50 174.22 156.50 174.22 151.55 178.71 C 148.83 181.17 142.98 185.76 138.55 188.91 C 134.12 192.05 130.36 195.36 130.19 196.25 C 129.80 198.30 133.41 202.00 135.80 202.00 C 136.79 202.00 141.55 199.53 146.37 196.50 C 151.18 193.47 155.49 191.00 155.94 191.00 C 156.39 191.00 157.09 194.89 157.48 199.64 C 158.62 213.31 160.85 217.70 168.66 221.64 C 173.45 224.05 173.74 224.07 195.00 223.59 C 206.82 223.33 218.72 222.63 221.42 222.05 Z  M 216.15 64.57 C 216.76 63.24 216.98 61.10 216.65 59.82 C 215.87 56.82 197.83 36.67 193.55 34.03 C 189.30 31.41 184.41 31.36 183.04 33.93 C 181.14 37.48 181.92 39.60 186.29 42.74 C 188.65 44.43 194.80 50.59 199.97 56.41 C 207.74 65.18 209.85 67.00 212.20 67.00 C 214.24 67.00 215.36 66.31 216.15 64.57 Z "/>
</g>
</svg>