<?xml version="1.0" encoding="UTF-8" standalone="no"?>
<!DOCTYPE svg PUBLIC "-//W3C//DTD SVG 1.1//EN" "http://www.w3.org/Graphics/SVG/1.1/DTD/svg11.dtd" >
<svg xmlns="http://www.w3.org/2000/svg" xmlns:xlink="http://www.w3.org/1999/xlink" version="1.1" viewBox="0 0 256 256">
 <g >
 <path fill="currentColor"
d=" M 215.40 223.25 C 218.76 212.27 226.94 154.14 228.52 130.00 C 229.47 115.53 226.00 78.67 223.44 76.10 C 223.11 75.77 201.49 75.28 175.40 75.00 C 127.97 74.50 127.97 74.50 133.18 68.00 C 136.04 64.42 141.96 57.69 146.34 53.02 C 154.40 44.44 158.97 36.76 158.99 31.75 C 159.00 30.24 158.81 29.00 158.58 29.00 C 158.35 29.00 157.53 28.76 156.75 28.46 C 155.85 28.11 151.79 31.97 145.43 39.21 C 139.98 45.42 130.02 56.21 123.30 63.18 C 115.62 71.15 110.85 76.91 110.47 78.68 C 110.13 80.23 109.44 82.53 108.93 83.80 C 108.28 85.41 108.42 86.92 109.41 88.84 C 110.51 90.95 110.71 94.32 110.28 103.54 C 109.43 122.32 111.90 218.02 113.33 221.00 C 114.44 223.34 115.13 223.54 124.01 224.06 C 129.23 224.37 151.81 224.70 174.18 224.81 C 212.15 224.99 214.90 224.88 215.40 223.25 Z  M 56.52 214.76 C 71.59 203.44 87.00 188.25 87.00 184.72 C 87.00 182.81 86.21 181.64 84.22 180.61 C 80.58 178.73 79.42 179.39 69.50 188.97 C 65.10 193.22 56.33 200.68 50.00 205.56 C 43.67 210.43 38.17 214.89 37.77 215.46 C 36.55 217.18 36.90 219.76 38.57 221.43 C 41.72 224.57 45.14 223.30 56.52 214.76 Z  M 83.07 137.96 C 84.26 137.33 85.00 135.88 84.99 134.21 C 84.98 131.73 83.90 130.98 72.24 125.35 C 65.23 121.97 55.35 116.68 50.28 113.60 C 45.20 110.52 40.59 108.00 40.03 108.00 C 38.49 108.00 35.00 111.79 35.00 113.47 C 35.00 118.21 52.09 128.82 72.00 136.42 C 79.43 139.26 80.40 139.39 83.07 137.96 Z  M 90.33 80.94 C 93.53 76.38 92.65 75.59 66.86 59.99 C 52.36 51.22 49.12 50.36 46.37 54.56 C 44.16 57.93 43.86 57.66 65.15 71.53 C 83.67 83.61 87.47 85.03 90.33 80.94 Z  M 144.25 213.25 C 122.00 212.96 122.00 212.96 122.00 192.48 C 122.00 172.00 122.00 172.00 167.50 172.00 C 213.00 172.00 213.00 172.00 213.00 175.08 C 213.00 179.29 208.12 208.96 206.97 211.75 C 205.94 214.26 211.50 214.13 144.25 213.25 Z  M 121.44 158.70 C 121.17 157.99 121.07 151.13 121.22 143.45 C 121.50 129.50 121.50 129.50 168.91 129.24 C 216.31 128.98 216.31 128.98 215.65 142.24 C 215.29 149.53 214.72 156.51 214.38 157.75 C 213.77 160.00 213.77 160.00 167.85 160.00 C 131.13 160.00 121.84 159.74 121.44 158.70 Z  M 165.00 118.02 C 120.50 117.50 120.50 117.50 120.22 102.83 C 119.95 88.16 119.95 88.16 126.72 87.33 C 130.45 86.87 152.18 86.50 175.00 86.50 C 216.50 86.50 216.50 86.50 216.83 92.50 C 217.01 95.80 216.86 103.11 216.48 108.75 C 215.81 119.00 215.81 119.00 212.65 118.77 C 210.92 118.64 189.48 118.30 165.00 118.02 Z "/>
</g>
</svg>