<?xml version="1.0" encoding="UTF-8" standalone="no"?>
<!DOCTYPE svg PUBLIC "-//W3C//DTD SVG 1.1//EN" "http://www.w3.org/Graphics/SVG/1.1/DTD/svg11.dtd" >
<svg xmlns="http://www.w3.org/2000/svg" xmlns:xlink="http://www.w3.org/1999/xlink" version="1.1" viewBox="0 0 256 256">
 <g >
 <path fill="currentColor"
d=" M 114.84 223.25 C 117.00 221.41 123.70 208.50 129.67 194.68 C 133.29 186.30 135.30 175.06 140.54 134.00 C 141.49 126.58 142.71 119.94 143.26 119.25 C 144.01 118.30 151.89 118.00 176.50 118.00 C 214.10 118.00 210.00 115.42 210.00 139.04 C 210.00 149.93 209.33 158.12 207.46 170.16 C 203.64 194.65 201.18 207.79 199.99 210.01 C 198.51 212.78 194.90 212.54 186.00 209.07 C 181.88 207.47 174.92 205.22 170.53 204.07 C 162.72 202.03 162.53 202.02 160.68 203.88 C 157.49 207.07 159.33 209.64 167.83 213.90 C 180.58 220.28 188.35 222.50 197.96 222.50 C 206.42 222.50 206.42 222.50 209.31 216.86 C 211.53 212.53 212.53 208.57 213.59 199.86 C 214.36 193.61 216.41 180.85 218.16 171.50 C 220.83 157.29 221.35 152.12 221.33 140.00 C 221.32 127.54 220.28 117.22 218.41 110.83 C 217.42 107.46 212.41 107.00 176.92 107.00 C 142.13 107.00 142.13 107.00 141.81 96.40 C 141.54 87.28 141.74 85.67 143.18 84.90 C 144.11 84.40 162.34 83.99 183.68 83.99 C 226.35 83.97 227.50 83.83 227.50 78.50 C 227.50 73.01 227.76 73.03 165.79 73.01 C 109.08 73.00 109.08 73.00 107.04 75.19 C 101.75 80.87 106.86 84.00 121.39 84.00 C 130.84 84.00 130.84 84.00 131.45 86.79 C 132.17 90.06 130.45 128.46 128.99 141.50 C 126.52 163.70 123.84 177.20 119.98 186.86 C 115.75 197.44 109.00 219.03 109.00 221.97 C 109.00 223.61 110.13 224.67 112.14 224.92 C 112.49 224.96 113.70 224.21 114.84 223.25 Z  M 54.23 210.03 C 72.53 204.89 100.41 195.91 102.75 194.40 C 105.90 192.37 105.81 187.69 102.59 186.22 C 100.56 185.30 95.47 186.53 70.49 194.00 C 50.82 199.89 40.34 203.49 39.43 204.69 C 37.15 207.71 37.84 211.07 41.00 212.27 C 43.28 213.14 42.97 213.19 54.23 210.03 Z  M 79.33 162.51 C 89.13 161.14 97.57 159.77 98.08 159.45 C 99.75 158.42 99.13 152.14 97.25 151.14 C 96.15 150.55 89.41 150.71 79.00 151.57 C 69.92 152.31 60.79 152.94 58.71 152.96 C 54.91 153.00 54.91 153.00 60.78 145.25 C 67.91 135.82 83.46 113.82 91.84 101.29 C 98.28 91.66 99.28 88.03 96.49 84.44 C 95.05 82.58 94.77 82.73 89.74 88.26 C 84.50 94.03 84.50 94.03 66.75 94.01 C 46.22 94.00 45.73 93.71 54.73 86.91 C 63.26 80.47 83.13 62.76 88.41 56.89 C 90.95 54.07 93.29 50.68 93.62 49.37 C 94.24 46.89 92.62 44.00 90.61 44.00 C 89.98 44.00 82.49 49.89 73.98 57.08 C 65.47 64.28 53.04 74.40 46.37 79.58 C 39.43 84.96 33.99 89.94 33.66 91.20 C 32.77 94.58 35.04 98.14 40.05 101.23 C 45.46 104.57 53.10 105.99 65.75 105.99 C 70.84 106.00 75.00 106.30 75.00 106.66 C 75.00 107.55 64.94 121.47 51.98 138.50 C 39.72 154.61 39.00 155.80 39.00 159.91 C 39.00 162.47 39.50 163.09 42.25 163.88 C 48.00 165.54 61.06 165.06 79.33 162.51 Z  M 177.43 68.43 C 178.29 67.56 179.00 65.87 179.00 64.66 C 179.00 59.89 161.94 34.23 155.93 29.95 C 154.05 28.61 151.85 27.98 149.76 28.19 C 145.06 28.64 144.89 31.93 149.27 37.30 C 153.18 42.10 163.55 57.46 167.10 63.71 C 170.44 69.57 174.45 71.41 177.43 68.43 Z "/>
</g>
</svg>