<?xml version="1.0" encoding="UTF-8" standalone="no"?>
<!DOCTYPE svg PUBLIC "-//W3C//DTD SVG 1.1//EN" "http://www.w3.org/Graphics/SVG/1.1/DTD/svg11.dtd" >
<svg xmlns="http://www.w3.org/2000/svg" xmlns:xlink="http://www.w3.org/1999/xlink" version="1.1" viewBox="0 0 256 256">
 <g >
 <path fill="currentColor"
d=" M 121.00 218.00 C 122.10 216.90 123.00 215.26 123.00 214.36 C 123.00 211.34 113.68 195.18 111.31 194.10 C 107.22 192.23 105.81 193.62 104.78 200.50 C 104.45 202.69 101.35 203.55 97.40 202.56 C 95.24 202.02 95.00 201.42 95.00 196.60 C 95.00 191.24 95.00 191.24 106.53 190.52 C 118.06 189.80 118.06 189.80 119.94 186.12 C 124.14 177.89 125.07 161.65 121.90 151.85 C 120.43 147.28 117.74 146.00 109.59 146.00 C 106.12 146.00 101.22 145.72 98.69 145.37 C 94.14 144.75 94.10 144.71 93.05 139.79 C 92.46 137.06 92.23 134.44 92.53 133.96 C 93.37 132.60 90.71 129.00 88.87 129.00 C 87.96 129.00 86.24 129.79 85.04 130.76 C 83.28 132.19 82.83 133.70 82.68 138.75 C 82.57 142.69 82.04 145.15 81.24 145.46 C 78.22 146.62 67.10 147.05 62.65 146.18 C 57.81 145.22 57.81 145.22 56.31 148.80 C 53.08 156.53 53.90 180.64 57.60 186.66 C 59.20 189.27 66.32 191.00 75.44 191.00 C 82.59 191.00 83.00 191.41 83.00 198.47 C 83.00 202.53 82.77 202.87 79.22 204.30 C 77.14 205.13 71.63 206.60 66.97 207.57 C 57.33 209.59 56.00 210.31 56.00 213.59 C 56.00 218.08 58.24 218.19 84.68 215.00 C 98.33 213.35 109.75 212.00 110.07 212.00 C 110.38 212.00 111.64 213.80 112.88 216.00 C 115.41 220.50 117.89 221.11 121.00 218.00 Z  M 159.00 215.44 C 164.78 214.67 174.68 214.03 181.01 214.02 C 191.55 214.00 192.63 214.17 193.80 216.05 C 194.75 217.57 195.67 217.93 197.29 217.42 C 200.40 216.45 200.97 215.21 200.98 209.36 C 201.00 202.66 196.58 193.67 193.01 193.16 C 190.00 192.72 188.00 195.30 188.00 199.59 C 188.00 202.77 187.95 202.81 181.97 203.50 C 174.09 204.42 173.00 203.50 173.00 195.98 C 173.00 189.04 173.06 189.00 184.90 189.00 C 193.63 189.00 193.63 189.00 195.73 185.25 C 200.14 177.34 202.93 161.17 201.07 154.25 C 199.23 147.44 198.62 147.10 186.00 145.85 C 179.68 145.22 174.31 144.55 174.08 144.35 C 173.85 144.15 173.40 140.97 173.08 137.28 C 172.56 131.25 172.22 130.41 169.71 129.03 C 167.06 127.57 166.83 127.62 164.98 130.00 C 163.67 131.69 163.03 134.12 163.01 137.50 C 162.95 144.85 162.42 145.28 152.69 145.79 C 144.72 146.21 144.17 146.11 143.53 144.11 C 142.72 141.54 140.01 140.10 129.50 136.64 C 117.24 132.61 104.38 130.02 103.08 131.32 C 101.28 133.12 101.86 135.68 104.47 137.39 C 105.83 138.28 114.04 141.66 122.72 144.91 C 138.50 150.81 138.50 150.81 138.34 154.15 C 137.35 175.15 138.08 185.12 140.87 188.83 C 142.46 190.94 142.92 191.03 147.38 190.03 C 150.01 189.44 154.38 189.25 157.08 189.61 C 162.00 190.26 162.00 190.26 162.00 197.09 C 162.00 203.92 162.00 203.92 158.25 204.91 C 156.19 205.45 151.35 206.41 147.50 207.04 C 140.49 208.18 137.00 210.38 137.00 213.66 C 137.00 215.63 142.94 218.09 146.00 217.40 C 147.38 217.09 153.22 216.21 159.00 215.44 Z  M 148.04 120.93 C 150.07 117.14 147.08 114.70 133.00 108.65 C 125.77 105.54 118.78 103.00 117.48 103.00 C 114.48 103.00 111.74 106.65 113.00 108.99 C 114.63 112.04 138.88 122.90 144.21 122.97 C 145.96 122.99 147.33 122.26 148.04 120.93 Z  M 208.42 117.39 C 210.57 116.57 210.44 111.71 208.22 109.69 C 207.23 108.81 190.98 101.12 172.09 92.61 C 153.20 84.10 137.32 76.72 136.80 76.20 C 136.22 75.62 140.17 72.03 147.34 66.64 C 159.91 57.20 169.51 48.79 171.09 45.83 C 173.73 40.90 170.36 38.94 156.00 37.04 C 144.34 35.49 109.58 29.87 109.15 29.46 C 108.95 29.28 109.55 26.87 110.46 24.11 C 112.70 17.38 112.24 12.50 109.37 12.50 C 107.73 12.50 105.12 15.68 98.26 26.00 C 93.33 33.42 85.17 45.12 80.12 52.00 C 72.18 62.83 70.99 64.97 71.23 68.00 C 71.46 70.98 71.90 71.55 74.22 71.81 C 76.32 72.05 78.08 71.07 81.83 67.56 C 84.51 65.05 87.63 63.00 88.76 63.00 C 91.14 63.00 112.00 76.46 112.00 78.00 C 112.00 81.54 74.81 99.82 54.00 106.49 C 47.42 108.60 44.81 110.67 45.21 113.44 C 45.58 116.06 52.58 117.59 59.45 116.56 C 65.14 115.71 98.84 99.09 113.16 90.08 C 118.48 86.74 123.28 84.00 123.85 84.00 C 125.02 84.00 175.08 105.33 191.50 112.83 C 202.36 117.78 205.32 118.58 208.42 117.39 Z  M 96.00 179.08 C 94.82 178.29 94.50 175.77 94.50 167.29 C 94.50 156.50 94.50 156.50 103.86 156.21 C 113.22 155.92 113.22 155.92 112.85 166.89 C 112.64 172.92 112.12 178.22 111.68 178.65 C 110.47 179.86 97.69 180.21 96.00 179.08 Z  M 66.49 176.96 C 65.71 174.50 65.29 156.34 66.00 155.76 C 67.13 154.83 81.89 156.28 82.27 157.36 C 82.48 157.99 82.46 163.11 82.22 168.75 C 81.77 179.00 81.77 179.00 74.45 179.00 C 67.96 179.00 67.06 178.77 66.49 176.96 Z  M 174.25 178.34 C 173.36 177.98 173.00 174.84 173.00 167.52 C 173.00 155.58 172.62 156.00 183.20 156.00 C 190.23 156.00 190.23 156.00 189.83 166.11 C 189.49 174.60 189.12 176.44 187.52 177.61 C 185.70 178.94 176.93 179.42 174.25 178.34 Z  M 148.88 167.96 C 147.13 156.05 147.29 155.76 155.67 156.20 C 161.50 156.50 161.50 156.50 161.78 167.25 C 162.07 178.00 162.07 178.00 156.21 178.00 C 150.35 178.00 150.35 178.00 148.88 167.96 Z  M 107.75 62.15 C 100.18 57.85 93.69 54.03 93.33 53.66 C 92.96 53.29 94.81 49.84 97.43 45.99 C 100.80 41.07 102.85 38.99 104.36 38.95 C 109.69 38.84 153.99 46.58 154.00 47.63 C 154.00 48.25 152.31 50.05 150.25 51.63 C 143.32 56.94 123.61 70.00 122.55 69.99 C 121.97 69.98 115.31 66.46 107.75 62.15 Z "/>
</g>
</svg>