<?xml version="1.0" encoding="UTF-8" standalone="no"?>
<!DOCTYPE svg PUBLIC "-//W3C//DTD SVG 1.1//EN" "http://www.w3.org/Graphics/SVG/1.1/DTD/svg11.dtd" >
<svg xmlns="http://www.w3.org/2000/svg" xmlns:xlink="http://www.w3.org/1999/xlink" version="1.1" viewBox="0 0 256 256">
 <g >
 <path fill="currentColor"
d=" M 86.82 234.13 C 100.40 229.91 114.98 218.23 123.50 204.76 C 126.49 200.03 126.49 200.03 135.00 208.44 C 141.84 215.21 145.55 217.94 154.00 222.37 C 165.36 228.33 175.68 232.12 187.04 234.51 C 195.21 236.23 197.31 235.49 196.80 231.09 C 196.53 228.73 195.05 227.93 180.50 222.26 C 154.41 212.07 150.85 210.02 140.25 199.10 C 131.00 189.56 131.00 189.56 131.00 179.76 C 131.00 170.27 130.92 169.92 128.50 168.82 C 127.12 168.19 125.85 167.86 125.67 168.09 C 124.06 170.16 115.00 196.54 115.00 199.15 C 115.00 199.77 112.49 203.14 109.42 206.63 C 102.96 213.99 91.63 221.79 81.81 225.65 C 74.59 228.48 72.39 231.35 75.01 234.51 C 76.65 236.48 79.57 236.39 86.82 234.13 Z  M 183.79 203.76 C 187.74 195.52 189.56 159.04 186.65 146.50 C 185.49 141.50 185.49 141.50 140.49 140.86 C 115.75 140.51 90.52 139.93 84.44 139.58 C 73.98 138.98 73.20 139.07 69.94 141.26 C 64.41 144.98 63.76 147.43 63.77 164.39 C 63.78 179.57 66.53 198.53 69.19 201.73 C 70.73 203.58 73.43 203.29 75.46 201.05 C 77.06 199.27 77.12 198.22 76.09 189.30 C 74.71 177.44 74.40 150.19 75.62 149.02 C 76.10 148.56 81.22 148.59 87.00 149.08 C 92.78 149.58 115.46 150.28 137.41 150.64 C 177.31 151.29 177.31 151.29 176.67 177.59 C 176.11 200.94 176.22 204.07 177.64 205.50 C 179.83 207.69 182.23 207.01 183.79 203.76 Z  M 87.69 132.83 C 89.93 130.72 90.00 130.14 90.00 113.45 C 90.00 96.25 90.00 96.25 98.75 94.67 C 103.56 93.81 109.97 92.79 113.00 92.41 C 119.26 91.63 124.00 89.57 124.00 87.63 C 124.00 86.90 123.10 85.50 122.00 84.50 C 120.26 82.93 118.82 82.78 110.75 83.32 C 105.66 83.67 98.69 84.25 95.25 84.62 C 89.00 85.28 89.00 85.28 89.00 74.14 C 89.00 63.00 89.00 63.00 117.14 63.00 C 145.28 63.00 145.28 63.00 144.71 71.25 C 144.38 76.18 143.10 82.52 141.55 87.00 C 137.79 97.88 138.13 97.61 132.17 94.59 C 126.55 91.74 124.01 91.39 122.20 93.20 C 118.92 96.48 122.12 101.04 130.75 105.41 C 134.82 107.46 134.92 109.69 131.34 118.62 C 129.38 123.52 128.95 125.69 129.70 126.88 C 132.56 131.44 137.89 128.28 142.25 119.46 C 144.00 115.91 146.05 113.00 146.80 113.00 C 147.55 113.00 151.79 113.92 156.21 115.05 C 166.11 117.58 169.97 117.35 171.14 114.17 C 172.44 110.62 168.57 107.87 158.82 105.44 C 150.50 103.36 150.50 103.36 150.68 99.43 C 150.78 97.27 152.38 88.30 154.25 79.50 C 157.64 63.50 157.64 63.50 173.43 63.22 C 189.23 62.95 189.23 62.95 188.63 66.22 C 187.34 73.19 186.03 88.91 186.02 97.69 C 186.00 106.86 186.00 106.88 190.28 113.19 C 193.42 117.82 195.80 120.12 199.24 121.84 C 209.64 127.02 217.12 125.15 220.28 116.58 C 222.55 110.42 222.28 102.19 219.75 100.61 C 217.05 98.92 214.87 100.81 211.50 107.77 C 209.67 111.55 207.87 113.98 206.88 113.99 C 204.07 114.01 200.22 110.13 198.45 105.50 C 196.37 100.05 196.94 88.82 200.24 70.64 C 202.17 59.99 202.24 58.52 200.91 56.15 C 198.94 52.64 196.63 52.26 176.37 52.12 C 162.74 52.02 159.00 51.70 158.04 50.55 C 157.38 49.75 156.39 46.04 155.84 42.30 C 153.64 27.31 153.71 27.52 150.91 27.20 C 146.54 26.69 145.75 28.87 145.93 40.99 C 146.06 49.39 145.79 52.02 144.80 52.10 C 140.71 52.42 89.42 51.75 89.04 51.37 C 88.79 51.12 88.34 46.96 88.04 42.11 C 87.71 36.71 86.95 32.64 86.08 31.60 C 84.09 29.20 81.40 27.91 79.72 28.55 C 77.77 29.30 75.80 38.76 76.13 45.75 C 76.40 51.50 76.40 51.50 69.95 52.13 C 66.40 52.48 57.46 52.82 50.08 52.88 C 39.11 52.98 36.32 53.30 34.83 54.65 C 32.23 57.01 32.56 58.72 35.95 60.47 C 38.25 61.66 42.62 62.00 55.70 62.01 C 64.94 62.02 73.46 62.29 74.64 62.60 C 76.63 63.14 76.82 63.96 77.23 74.34 C 77.47 80.48 77.40 85.82 77.07 86.21 C 75.95 87.55 61.53 90.13 52.00 90.70 C 41.14 91.35 36.71 93.01 37.19 96.25 C 37.69 99.71 42.67 100.32 60.30 99.07 C 68.99 98.45 76.53 98.21 77.05 98.53 C 77.57 98.85 78.00 104.70 78.00 111.51 C 78.00 123.91 78.00 123.91 74.75 124.50 C 72.96 124.82 69.38 124.67 66.78 124.18 C 61.50 123.16 58.00 124.66 58.00 127.93 C 58.00 132.14 65.28 134.75 77.44 134.90 C 84.29 134.99 85.69 134.70 87.69 132.83 Z "/>
</g>
</svg>