<?xml version="1.0" encoding="UTF-8" standalone="no"?>
<!DOCTYPE svg PUBLIC "-//W3C//DTD SVG 1.1//EN" "http://www.w3.org/Graphics/SVG/1.1/DTD/svg11.dtd" >
<svg xmlns="http://www.w3.org/2000/svg" xmlns:xlink="http://www.w3.org/1999/xlink" version="1.1" viewBox="0 0 256 256">
 <g >
 <path fill="currentColor"
d=" M 131.96 235.07 C 132.55 233.97 133.00 226.42 133.00 217.70 C 133.00 202.26 133.00 202.26 137.75 201.62 C 140.36 201.27 153.97 200.70 168.00 200.36 C 182.39 200.01 194.04 199.31 194.75 198.75 C 196.65 197.23 196.24 193.20 194.07 192.04 C 192.86 191.39 181.03 191.00 162.57 191.00 C 133.00 191.00 133.00 191.00 133.00 182.00 C 133.00 175.47 133.34 173.00 134.25 173.00 C 153.86 172.95 208.72 170.64 209.70 169.83 C 211.60 168.26 211.29 165.29 209.00 163.00 C 207.21 161.21 205.58 160.99 193.75 160.89 C 186.46 160.84 176.63 160.50 171.91 160.14 C 163.31 159.50 163.31 159.50 164.83 153.00 C 165.67 149.43 166.36 143.24 166.37 139.25 C 166.38 132.00 166.38 132.00 172.44 131.94 C 180.40 131.87 185.41 130.15 185.81 127.35 C 186.00 126.00 185.26 124.60 183.83 123.60 C 181.92 122.25 178.11 122.00 159.91 122.00 C 138.27 122.00 138.27 122.00 133.39 116.75 C 128.50 111.50 128.50 111.50 151.81 110.84 C 174.98 110.19 175.15 110.17 178.99 107.51 C 182.63 104.98 182.90 104.44 183.56 98.25 C 183.95 94.63 184.03 86.75 183.75 80.73 C 183.00 64.89 183.71 65.35 162.31 66.85 C 153.06 67.50 141.99 68.02 137.70 68.01 C 129.90 68.00 129.90 68.00 130.20 62.75 C 130.50 57.50 130.50 57.50 142.00 56.88 C 148.32 56.54 162.74 56.20 174.03 56.13 C 196.86 55.99 199.41 55.37 198.81 50.15 C 198.53 47.75 197.97 47.43 193.00 46.72 C 188.70 46.12 141.06 46.61 132.37 47.35 C 129.79 47.57 128.12 42.07 128.06 33.08 C 128.00 25.29 126.50 22.00 123.00 22.00 C 119.20 22.00 118.08 25.10 117.79 36.54 C 117.50 47.50 117.50 47.50 83.50 48.08 C 64.80 48.39 48.71 49.00 47.75 49.43 C 46.69 49.91 46.00 51.31 46.00 53.01 C 46.00 57.55 49.12 58.00 80.51 58.00 C 96.03 58.00 110.81 58.29 113.36 58.64 C 117.98 59.27 118.00 59.29 118.00 63.17 C 118.00 65.38 117.46 67.26 116.75 67.51 C 116.06 67.76 107.45 68.09 97.61 68.23 C 79.71 68.50 79.71 68.50 77.61 71.32 C 75.72 73.85 75.50 75.49 75.50 86.82 C 75.50 97.56 75.86 100.55 77.87 106.36 C 80.24 113.22 80.24 113.22 98.37 112.54 C 108.34 112.16 117.23 111.65 118.13 111.40 C 119.36 111.05 119.94 111.87 120.47 114.72 C 120.85 116.80 121.87 119.28 122.72 120.23 C 124.01 121.66 124.04 122.04 122.89 122.43 C 119.10 123.71 101.27 125.05 87.45 125.09 C 72.72 125.13 71.83 125.24 69.26 127.45 C 66.96 129.43 66.76 130.00 67.88 131.36 C 69.24 133.00 73.15 134.04 79.09 134.33 C 82.50 134.50 82.50 134.50 83.04 140.50 C 83.33 143.80 84.63 149.99 85.94 154.27 C 87.24 158.54 88.03 162.31 87.69 162.64 C 86.38 163.95 78.02 164.91 67.62 164.96 C 54.82 165.01 49.25 166.36 47.68 169.80 C 46.76 171.82 46.90 172.46 48.54 173.68 C 50.19 174.92 55.99 175.10 85.70 174.82 C 126.10 174.45 121.96 173.28 121.99 185.14 C 122.00 191.77 122.00 191.77 118.75 192.37 C 116.96 192.70 104.87 193.27 91.88 193.63 C 71.81 194.20 67.92 194.55 65.99 196.01 C 64.22 197.34 63.86 198.32 64.38 200.36 C 65.04 203.00 65.04 203.00 93.52 203.00 C 122.00 203.00 122.00 203.00 122.00 217.78 C 122.00 229.53 122.32 233.01 123.56 234.78 C 125.55 237.63 130.50 237.80 131.96 235.07 Z  M 98.05 158.89 C 96.84 156.08 95.27 150.99 94.55 147.59 C 93.84 144.19 92.53 139.99 91.63 138.25 C 90.73 136.52 90.00 134.91 90.00 134.68 C 90.00 134.45 99.79 133.97 111.75 133.62 C 123.71 133.26 138.85 132.69 145.40 132.35 C 157.29 131.73 157.29 131.73 156.59 137.11 C 155.72 143.80 152.04 159.23 151.07 160.27 C 150.47 160.92 111.55 163.91 102.87 163.98 C 100.66 164.00 99.90 163.20 98.05 158.89 Z  M 87.00 90.00 C 87.00 77.00 87.00 77.00 110.34 77.00 C 123.18 77.00 142.53 76.70 153.34 76.34 C 173.00 75.68 173.00 75.68 173.00 87.73 C 173.00 99.78 173.00 99.78 169.46 100.44 C 167.52 100.81 151.88 101.05 134.71 100.99 C 116.64 100.92 100.97 101.32 97.50 101.93 C 86.15 103.93 87.00 104.90 87.00 90.00 Z "/>
</g>
</svg>