<?xml version="1.0" encoding="UTF-8" standalone="no"?>
<!DOCTYPE svg PUBLIC "-//W3C//DTD SVG 1.1//EN" "http://www.w3.org/Graphics/SVG/1.1/DTD/svg11.dtd" >
<svg xmlns="http://www.w3.org/2000/svg" xmlns:xlink="http://www.w3.org/1999/xlink" version="1.1" viewBox="0 0 256 256">
 <g >
 <path fill="currentColor"
d=" M 201.63 231.47 C 204.67 228.42 211.94 213.23 215.04 203.43 C 217.04 197.10 217.13 196.04 215.88 193.43 C 214.38 190.30 210.81 189.08 208.58 190.94 C 207.85 191.54 206.25 195.06 205.00 198.76 C 203.76 202.47 201.42 208.43 199.80 212.00 C 196.84 218.50 196.84 218.50 193.11 214.21 C 189.05 209.55 183.30 199.44 180.17 191.45 C 178.19 186.41 178.19 186.41 185.17 175.95 C 195.43 160.60 201.00 150.28 201.00 146.61 C 201.00 142.85 198.50 138.87 196.59 139.60 C 195.85 139.89 191.02 146.84 185.87 155.06 C 180.72 163.27 176.07 169.85 175.55 169.68 C 173.48 169.00 167.02 134.71 166.69 122.65 C 166.50 115.50 166.50 115.50 187.00 114.92 C 198.28 114.59 208.29 113.98 209.25 113.56 C 211.68 112.48 211.48 107.74 208.90 105.40 C 206.99 103.68 204.77 103.47 185.40 103.18 C 169.83 102.95 163.99 102.54 163.98 101.68 C 163.97 101.03 163.29 94.88 162.48 88.00 C 161.66 81.12 160.53 66.07 159.96 54.55 C 159.36 42.61 158.45 33.04 157.84 32.30 C 156.34 30.50 153.52 30.67 151.87 32.65 C 150.75 34.01 150.57 40.62 150.86 68.65 C 151.22 103.00 151.22 103.00 122.11 103.00 C 93.00 103.00 93.00 103.00 93.01 89.75 C 93.02 82.46 93.29 74.85 93.63 72.83 C 94.23 69.19 94.29 69.16 100.81 68.02 C 104.43 67.39 111.88 66.67 117.36 66.43 C 122.84 66.18 127.92 65.48 128.66 64.87 C 130.63 63.23 130.29 58.57 128.06 56.56 C 126.32 54.98 124.64 54.88 111.07 55.53 C 102.79 55.93 95.68 56.31 95.28 56.38 C 93.82 56.62 92.01 45.29 92.14 36.67 C 92.24 29.90 91.90 27.48 90.72 26.29 C 88.81 24.38 84.51 25.24 83.56 27.71 C 83.19 28.67 82.62 35.44 82.29 42.76 C 81.96 50.08 81.41 56.24 81.08 56.45 C 80.75 56.66 72.38 57.35 62.49 57.98 C 38.71 59.51 38.13 59.61 36.81 62.51 C 35.94 64.43 36.07 65.46 37.46 67.58 C 39.20 70.24 39.20 70.24 60.35 69.87 C 81.50 69.50 81.50 69.50 81.77 86.12 C 82.10 105.78 84.87 103.97 54.25 103.99 C 35.34 104.00 33.87 104.13 32.00 106.00 C 29.63 108.37 29.50 109.93 31.42 112.56 C 32.79 114.43 34.91 114.52 93.13 115.00 C 153.42 115.50 153.42 115.50 156.07 132.00 C 157.53 141.07 160.18 156.03 161.97 165.23 C 165.22 181.96 165.22 181.96 160.47 187.23 C 150.75 198.01 140.28 214.69 141.40 217.60 C 141.94 219.02 145.62 219.47 148.29 218.44 C 149.09 218.14 153.91 213.19 159.00 207.44 C 164.10 201.70 168.57 197.00 168.93 197.00 C 169.30 197.00 170.64 199.14 171.91 201.75 C 178.28 214.89 193.36 234.00 197.35 234.00 C 198.31 234.00 200.23 232.86 201.63 231.47 Z  M 125.19 211.25 C 129.05 207.12 129.98 204.74 131.49 195.21 C 133.86 180.34 134.23 172.82 133.03 164.16 C 131.81 155.33 128.54 143.45 127.07 142.54 C 126.59 142.25 111.31 141.50 93.11 140.88 C 63.21 139.87 59.69 139.92 56.61 141.38 C 54.73 142.27 52.46 143.00 51.55 143.00 C 47.88 143.00 47.11 148.47 47.38 172.57 C 47.69 199.40 49.01 209.08 52.79 212.05 C 55.14 213.90 57.07 214.00 88.95 214.00 C 122.63 214.00 122.63 214.00 125.19 211.25 Z  M 210.80 74.96 C 211.07 71.77 210.18 70.37 201.53 60.34 C 193.87 51.46 191.06 48.91 187.43 47.53 C 183.11 45.88 182.79 45.88 180.94 47.55 C 179.87 48.52 179.00 49.94 179.00 50.72 C 179.00 51.49 184.51 58.16 191.25 65.54 C 202.84 78.25 203.69 78.95 207.00 78.73 C 210.23 78.52 210.52 78.23 210.80 74.96 Z  M 59.67 201.33 C 59.30 200.97 59.00 189.50 59.00 175.85 C 59.00 151.03 59.00 151.03 76.25 151.64 C 125.21 153.36 120.51 150.76 120.46 176.00 C 120.44 188.38 120.11 199.29 119.74 200.25 C 119.12 201.86 116.74 202.00 89.70 202.00 C 73.55 202.00 60.03 201.70 59.67 201.33 Z "/>
</g>
</svg>