<?xml version="1.0" encoding="UTF-8" standalone="no"?>
<!DOCTYPE svg PUBLIC "-//W3C//DTD SVG 1.1//EN" "http://www.w3.org/Graphics/SVG/1.1/DTD/svg11.dtd" >
<svg xmlns="http://www.w3.org/2000/svg" xmlns:xlink="http://www.w3.org/1999/xlink" version="1.1" viewBox="0 0 256 256">
 <g >
 <path fill="currentColor"
d=" M 156.73 225.75 C 161.77 214.61 167.06 202.35 168.49 198.50 C 169.93 194.65 171.45 191.15 171.88 190.72 C 172.31 190.29 176.61 199.96 181.42 212.22 C 196.39 250.31 191.64 246.00 218.61 246.00 C 239.82 246.00 241.88 245.85 241.31 244.36 C 240.96 243.46 234.75 229.40 227.50 213.11 C 214.32 183.50 214.32 183.50 229.66 183.22 C 245.00 182.95 245.00 182.95 245.00 174.97 C 245.00 167.00 245.00 167.00 212.02 167.00 C 179.05 167.00 179.05 167.00 179.90 164.75 C 182.34 158.30 191.46 105.11 192.59 90.75 C 193.28 82.00 193.28 82.00 171.30 82.00 C 149.32 82.00 149.32 82.00 148.16 91.44 C 147.52 96.63 146.97 102.37 146.93 104.19 C 146.85 108.13 146.90 108.23 140.97 92.75 C 136.85 82.00 136.85 82.00 120.92 82.00 C 106.43 82.00 105.00 82.16 104.98 83.75 C 104.97 84.71 107.09 91.69 109.68 99.25 C 114.38 113.00 114.38 113.00 129.69 113.00 C 147.40 113.00 146.19 111.44 143.49 130.72 C 140.88 149.34 141.11 149.26 135.45 133.50 C 130.50 119.69 130.50 119.69 114.52 119.91 C 105.73 120.03 98.44 120.23 98.32 120.34 C 98.21 120.46 99.71 124.80 101.65 129.99 C 103.60 135.18 106.16 143.15 107.34 147.71 C 109.48 156.00 109.48 156.00 123.24 156.00 C 132.24 156.00 137.00 156.37 137.00 157.06 C 137.00 157.64 136.50 160.11 135.88 162.56 C 134.76 167.00 134.76 167.00 116.88 167.00 C 99.00 167.00 99.00 167.00 99.00 175.00 C 99.00 183.00 99.00 183.00 114.50 183.00 C 123.93 183.00 130.00 183.38 130.00 183.98 C 130.00 185.95 125.15 197.75 120.68 206.64 C 116.00 215.97 107.72 230.04 101.46 239.33 C 97.98 244.50 97.98 244.50 113.24 245.04 C 151.38 246.39 146.41 248.59 156.73 225.75 Z  M 30.39 189.25 C 30.73 158.59 31.29 119.21 31.63 101.75 C 32.24 70.00 32.24 70.00 22.62 70.00 C 13.00 70.00 13.00 70.00 12.99 79.75 C 12.96 97.84 11.10 203.33 10.43 224.25 C 9.77 245.00 9.77 245.00 19.76 245.00 C 29.76 245.00 29.76 245.00 30.39 189.25 Z  M 74.00 152.53 C 74.00 60.07 74.00 60.07 84.75 59.78 C 95.50 59.50 95.50 59.50 95.79 51.25 C 96.08 43.00 96.08 43.00 85.04 43.00 C 74.00 43.00 74.00 43.00 74.00 27.50 C 74.00 12.00 74.00 12.00 55.00 12.00 C 36.00 12.00 36.00 12.00 36.00 27.50 C 36.00 43.00 36.00 43.00 24.00 43.00 C 12.00 43.00 12.00 43.00 12.00 51.75 C 12.00 60.50 12.00 60.50 24.15 60.14 C 36.29 59.78 36.29 59.78 35.55 152.39 C 34.81 245.00 34.81 245.00 54.41 245.00 C 74.00 245.00 74.00 245.00 74.00 152.53 Z  M 96.64 213.25 C 96.30 195.79 95.72 156.41 95.36 125.75 C 94.71 70.00 94.71 70.00 85.73 70.00 C 76.74 70.00 76.74 70.00 77.39 144.25 C 77.74 185.09 78.30 224.46 78.64 231.75 C 79.24 245.00 79.24 245.00 88.26 245.00 C 97.28 245.00 97.28 245.00 96.64 213.25 Z  M 237.45 124.75 C 239.42 112.80 243.00 76.63 243.00 68.65 C 243.00 59.03 243.00 59.03 217.75 58.77 C 192.50 58.50 192.50 58.50 192.21 49.12 C 191.92 39.73 191.92 39.73 215.96 40.19 C 240.00 40.65 240.00 40.65 240.00 32.83 C 240.00 25.00 240.00 25.00 216.50 25.00 C 193.00 25.00 193.00 25.00 192.99 20.75 C 192.96 11.33 194.76 12.00 169.38 12.00 C 147.00 12.00 147.00 12.00 147.00 18.50 C 147.00 25.00 147.00 25.00 124.00 25.00 C 101.00 25.00 101.00 25.00 101.00 33.00 C 101.00 41.00 101.00 41.00 124.00 41.00 C 147.00 41.00 147.00 41.00 147.00 49.50 C 147.00 58.00 147.00 58.00 122.50 58.00 C 98.00 58.00 98.00 58.00 98.00 66.00 C 98.00 74.00 98.00 74.00 151.57 74.00 C 205.14 74.00 205.14 74.00 204.48 79.75 C 203.40 89.09 200.21 108.81 198.16 118.75 C 196.26 128.00 196.26 128.00 216.58 128.00 C 236.91 128.00 236.91 128.00 237.45 124.75 Z "/>
</g>
</svg>