<?xml version="1.0" encoding="UTF-8" standalone="no"?>
<!DOCTYPE svg PUBLIC "-//W3C//DTD SVG 1.1//EN" "http://www.w3.org/Graphics/SVG/1.1/DTD/svg11.dtd" >
<svg xmlns="http://www.w3.org/2000/svg" xmlns:xlink="http://www.w3.org/1999/xlink" version="1.1" viewBox="0 0 256 256">
 <g >
 <path fill="currentColor"
d=" M 29.85 241.47 C 33.59 236.71 45.94 210.52 49.40 200.00 C 55.58 181.24 58.39 158.44 59.62 117.25 C 60.31 94.00 60.31 94.00 138.40 94.00 C 210.75 94.00 216.76 93.87 220.00 92.25 C 225.98 89.26 226.46 87.13 226.80 62.26 C 227.08 42.03 226.93 39.63 225.16 35.64 C 221.58 27.54 226.07 27.90 132.50 28.22 C 56.31 28.48 50.27 28.63 47.27 30.27 C 40.39 34.02 40.57 32.47 39.87 93.50 C 39.51 124.78 38.72 152.81 38.06 158.50 C 35.58 179.54 30.89 194.15 19.14 217.36 C 11.03 233.39 10.68 234.34 12.06 236.78 C 13.80 239.87 21.25 244.00 25.08 244.00 C 26.86 244.00 28.57 243.09 29.85 241.47 Z  M 222.00 233.41 C 230.78 229.36 235.22 221.55 239.20 203.23 C 240.30 198.13 240.94 192.90 240.62 191.61 C 239.67 187.85 230.34 185.06 226.07 187.25 C 224.00 188.32 223.32 190.04 221.42 199.10 C 217.37 218.47 216.15 219.35 193.92 218.84 C 172.98 218.36 173.01 218.40 173.01 189.46 C 173.00 171.42 173.00 171.42 181.25 167.66 C 185.79 165.60 200.07 157.74 213.00 150.20 C 236.50 136.48 236.50 136.48 236.82 132.64 C 237.05 129.83 236.45 127.77 234.58 124.94 C 230.19 118.31 229.64 118.34 217.95 125.97 C 208.33 132.25 174.59 152.00 173.48 152.00 C 173.22 152.00 173.00 141.21 173.00 128.02 C 173.00 104.05 173.00 104.05 170.47 102.39 C 167.44 100.40 160.83 100.22 157.45 102.02 C 155.99 102.81 154.80 104.55 154.46 106.41 C 154.15 108.11 154.03 134.47 154.19 165.00 C 154.50 220.50 154.50 220.50 157.00 225.48 C 159.58 230.62 163.39 233.59 169.34 235.08 C 171.08 235.52 182.62 235.79 195.00 235.68 C 215.44 235.51 217.91 235.30 222.00 233.41 Z  M 109.83 232.36 C 121.40 228.37 145.18 218.25 146.80 216.63 C 150.10 213.33 148.60 199.00 144.95 199.00 C 144.32 199.00 138.56 201.10 132.15 203.67 C 118.67 209.07 103.35 214.02 102.55 213.22 C 102.25 212.91 102.00 200.82 102.00 186.33 C 102.00 160.00 102.00 160.00 124.46 160.00 C 150.08 160.00 149.00 160.39 149.00 151.14 C 149.00 142.94 149.19 143.00 123.93 143.00 C 102.00 143.00 102.00 143.00 101.98 124.75 C 101.98 114.71 101.59 105.90 101.13 105.18 C 99.21 102.14 87.36 101.65 84.99 104.51 C 84.29 105.35 84.04 125.51 84.23 166.31 C 84.50 226.00 84.53 226.89 86.60 229.68 C 91.09 235.73 97.80 236.51 109.83 232.36 Z  M 60.00 62.12 C 60.00 50.80 60.32 46.98 61.36 46.12 C 62.35 45.29 82.47 45.06 135.11 45.24 C 207.50 45.50 207.50 45.50 207.50 60.45 C 207.50 75.41 207.50 75.41 205.00 76.11 C 203.62 76.49 170.44 76.85 131.25 76.90 C 60.00 77.00 60.00 77.00 60.00 62.12 Z "/>
</g>
</svg>