<?xml version="1.0" encoding="UTF-8" standalone="no"?>
<!DOCTYPE svg PUBLIC "-//W3C//DTD SVG 1.1//EN" "http://www.w3.org/Graphics/SVG/1.1/DTD/svg11.dtd" >
<svg xmlns="http://www.w3.org/2000/svg" xmlns:xlink="http://www.w3.org/1999/xlink" version="1.1" viewBox="0 0 256 256">
 <g >
 <path fill="currentColor"
d=" M 241.12 232.78 C 242.64 229.93 242.55 222.36 240.97 220.46 C 239.95 219.23 234.49 219.00 206.88 219.00 C 174.00 219.00 174.00 219.00 174.00 206.00 C 174.00 193.00 174.00 193.00 200.38 193.00 C 230.11 193.00 229.33 193.20 229.33 185.50 C 229.33 177.80 230.11 178.00 200.38 178.00 C 174.00 178.00 174.00 178.00 174.00 165.50 C 174.00 153.00 174.00 153.00 189.75 152.99 C 198.41 152.99 207.19 152.52 209.26 151.94 C 215.97 150.08 216.50 148.22 216.50 126.54 C 216.50 105.32 215.98 103.38 209.68 100.90 C 205.48 99.24 140.63 98.39 130.08 99.86 C 123.86 100.72 122.16 101.38 119.58 103.96 C 116.50 107.03 116.50 107.03 116.23 125.77 C 115.93 146.70 116.32 148.39 122.01 151.25 C 124.88 152.68 128.23 153.00 140.75 153.00 C 156.00 153.00 156.00 153.00 156.00 165.50 C 156.00 178.00 156.00 178.00 130.06 178.00 C 104.38 178.00 104.10 178.02 102.56 180.22 C 101.70 181.44 101.00 183.82 101.00 185.50 C 101.00 187.18 101.70 189.56 102.56 190.78 C 104.10 192.98 104.38 193.00 130.06 193.00 C 156.00 193.00 156.00 193.00 156.00 206.00 C 156.00 219.00 156.00 219.00 124.12 219.00 C 88.02 219.00 89.50 218.66 89.50 227.00 C 89.50 235.70 82.83 235.00 166.09 235.00 C 239.93 235.00 239.93 235.00 241.12 232.78 Z  M 76.67 228.77 C 82.65 225.49 82.50 227.97 82.50 132.00 C 82.50 49.34 82.40 44.32 80.68 41.17 C 77.69 35.68 74.56 34.99 52.78 35.06 C 29.67 35.12 27.42 35.67 24.25 41.96 C 22.00 46.42 22.00 46.42 22.01 131.96 C 22.01 185.50 22.38 218.84 23.00 221.07 C 24.16 225.23 27.53 228.73 31.62 230.00 C 33.20 230.50 43.27 230.81 54.00 230.70 C 70.35 230.53 74.01 230.22 76.67 228.77 Z  M 111.13 109.35 C 112.10 108.18 112.65 103.31 113.00 92.60 C 113.50 77.50 113.50 77.50 166.50 77.50 C 219.50 77.50 219.50 77.50 219.76 92.50 C 220.06 110.16 220.50 111.00 229.42 111.00 C 238.34 111.00 238.21 111.35 237.83 88.78 C 237.53 70.78 237.33 68.90 235.43 66.32 C 231.71 61.26 227.73 60.00 215.40 60.00 C 204.31 60.00 204.31 60.00 208.04 56.08 C 211.81 52.12 220.77 39.08 225.12 31.21 C 227.50 26.92 227.50 26.92 223.76 23.46 C 221.02 20.92 219.12 20.00 216.61 20.00 C 213.34 20.00 212.87 20.51 205.55 31.93 C 201.34 38.49 196.57 45.53 194.94 47.57 C 191.51 51.89 191.83 52.64 198.99 57.20 C 203.48 60.06 203.48 60.06 188.99 59.78 C 174.50 59.50 174.50 59.50 174.23 36.78 C 173.97 14.77 173.90 14.01 171.84 12.91 C 168.63 11.20 159.00 12.28 157.35 14.54 C 156.31 15.95 156.00 21.46 156.00 38.19 C 156.00 60.00 156.00 60.00 131.25 60.00 C 95.32 60.00 96.00 59.43 96.00 89.39 C 96.00 111.08 95.93 110.91 104.63 110.97 C 108.20 110.99 110.17 110.50 111.13 109.35 Z  M 135.75 54.48 C 137.54 52.58 139.00 50.38 139.00 49.59 C 139.00 45.80 118.17 19.00 115.22 19.00 C 112.41 19.00 106.08 23.83 105.41 26.49 C 104.95 28.33 105.65 29.97 108.26 33.21 C 110.16 35.57 114.53 41.77 117.98 47.00 C 121.43 52.23 124.98 57.08 125.87 57.79 C 128.25 59.69 132.04 58.42 135.75 54.48 Z  M 133.22 135.26 C 132.28 132.95 132.43 117.24 133.41 116.26 C 134.49 115.18 192.12 114.72 196.15 115.76 C 199.50 116.63 199.50 116.63 199.50 126.56 C 199.50 136.50 199.50 136.50 166.72 136.76 C 136.21 137.01 133.90 136.91 133.22 135.26 Z  M 40.20 212.80 C 39.33 211.93 39.00 204.87 39.00 187.30 C 39.00 163.00 39.00 163.00 53.00 163.00 C 67.00 163.00 67.00 163.00 67.00 186.57 C 67.00 200.90 66.59 210.89 65.96 212.07 C 65.03 213.81 63.77 214.00 53.16 214.00 C 45.35 214.00 41.00 213.60 40.20 212.80 Z  M 39.00 127.47 C 39.00 107.94 39.00 107.94 52.75 108.22 C 66.50 108.50 66.50 108.50 66.77 127.75 C 67.04 147.00 67.04 147.00 53.02 147.00 C 39.00 147.00 39.00 147.00 39.00 127.47 Z  M 39.23 72.25 C 39.50 52.50 39.50 52.50 51.99 52.22 C 62.86 51.97 64.64 52.16 65.74 53.66 C 66.64 54.90 67.00 60.54 67.00 73.69 C 67.00 92.00 67.00 92.00 52.98 92.00 C 38.96 92.00 38.96 92.00 39.23 72.25 Z "/>
</g>
</svg>