<?xml version="1.0" encoding="UTF-8" standalone="no"?>
<!DOCTYPE svg PUBLIC "-//W3C//DTD SVG 1.1//EN" "http://www.w3.org/Graphics/SVG/1.1/DTD/svg11.dtd" >
<svg xmlns="http://www.w3.org/2000/svg" xmlns:xlink="http://www.w3.org/1999/xlink" version="1.1" viewBox="0 0 256 256">
 <g >
 <path fill="currentColor"
d=" M 239.39 241.91 C 243.01 239.06 246.18 232.54 245.81 228.72 C 245.52 225.75 244.68 225.17 229.50 217.53 C 220.70 213.10 210.02 207.11 205.76 204.21 C 191.50 194.52 177.60 182.49 178.36 180.50 C 178.58 179.92 181.33 175.87 184.48 171.49 C 196.27 155.05 204.52 138.23 212.51 114.30 C 218.20 97.29 218.24 95.67 213.04 93.02 C 209.04 90.98 203.50 90.40 201.32 91.78 C 200.66 92.20 197.64 100.05 194.60 109.24 C 191.56 118.43 186.80 130.76 184.02 136.65 C 178.44 148.49 166.38 167.35 164.96 166.47 C 164.46 166.17 161.12 161.51 157.54 156.13 C 149.22 143.63 142.18 128.68 136.94 112.38 C 130.02 90.84 130.85 92.54 127.06 92.17 C 123.08 91.79 115.41 94.48 114.62 96.54 C 114.32 97.33 115.41 102.49 117.05 108.00 C 123.45 129.55 133.93 152.16 146.03 170.48 C 153.28 181.47 153.28 181.47 146.89 187.25 C 133.33 199.53 116.27 210.30 95.00 220.00 C 83.75 225.13 82.47 225.98 82.17 228.47 C 81.67 232.69 82.72 235.61 86.12 239.48 C 88.14 241.78 90.09 243.00 91.77 243.00 C 95.07 243.00 120.61 229.70 133.50 221.27 C 143.79 214.54 155.91 204.89 161.91 198.63 C 165.32 195.07 165.32 195.07 171.82 201.15 C 180.49 209.27 190.97 217.52 201.37 224.44 C 211.19 230.97 233.96 243.97 235.62 243.99 C 236.23 243.99 237.93 243.06 239.39 241.91 Z  M 88.67 221.77 C 94.38 218.64 94.50 217.49 94.50 164.50 C 94.50 120.50 94.35 116.23 92.73 113.27 C 89.67 107.66 86.46 106.75 67.82 106.21 C 51.14 105.73 51.14 105.73 53.23 100.61 C 56.43 92.79 66.56 63.16 68.05 57.25 C 69.38 52.00 69.38 52.00 81.44 51.98 C 88.07 51.98 94.10 51.59 94.82 51.13 C 97.71 49.30 98.35 37.57 95.74 34.25 C 94.98 33.29 85.80 33.00 55.96 33.00 C 17.16 33.00 17.16 33.00 15.96 36.62 C 14.39 41.38 15.27 48.99 17.59 50.69 C 18.89 51.64 23.72 52.00 35.12 52.00 C 50.86 52.00 50.86 52.00 48.33 61.25 C 42.24 83.55 28.17 115.42 15.65 135.25 C 12.62 140.06 9.84 144.93 9.48 146.06 C 7.91 151.00 13.66 164.00 17.42 164.00 C 19.09 164.00 24.35 157.33 29.11 149.19 C 33.00 142.53 33.00 142.53 33.01 177.02 C 33.01 212.37 33.46 217.30 36.96 220.47 C 40.19 223.38 44.56 223.88 65.50 223.68 C 82.35 223.53 86.00 223.23 88.67 221.77 Z  M 144.80 87.80 C 145.60 87.00 146.00 82.64 146.00 74.80 C 146.00 63.00 146.00 63.00 166.00 63.00 C 186.00 63.00 186.00 63.00 186.00 74.43 C 186.00 88.24 186.46 89.00 194.87 89.00 C 198.02 89.00 201.14 88.46 201.80 87.80 C 202.60 87.00 203.00 82.64 203.00 74.80 C 203.00 63.00 203.00 63.00 221.39 63.00 C 237.57 63.00 240.04 62.78 241.99 61.21 C 245.00 58.77 245.91 51.04 243.60 47.52 C 241.95 45.00 241.95 45.00 222.48 45.00 C 203.00 45.00 203.00 45.00 203.00 30.54 C 203.00 17.26 202.84 15.99 201.07 15.04 C 198.17 13.49 190.75 13.79 188.22 15.56 C 186.11 17.04 186.00 17.78 186.00 31.08 C 186.00 45.04 186.00 45.04 166.25 44.77 C 146.50 44.50 146.50 44.50 146.23 30.50 C 145.93 14.50 145.68 14.00 138.00 14.00 C 129.94 14.00 129.55 14.75 129.17 30.92 C 128.85 45.00 128.85 45.00 115.25 45.00 C 99.07 45.00 98.00 45.51 98.00 53.20 C 98.00 57.06 98.52 58.61 100.45 60.55 C 102.81 62.90 103.44 63.00 115.87 63.00 C 128.83 63.00 128.83 63.00 129.16 74.58 C 129.46 84.67 129.75 86.35 131.44 87.58 C 133.81 89.31 143.14 89.46 144.80 87.80 Z  M 51.25 205.34 C 50.28 204.95 50.00 196.04 50.00 165.54 C 50.00 130.21 50.17 126.11 51.65 124.87 C 53.92 122.99 74.33 122.93 76.20 124.80 C 77.91 126.51 78.66 200.89 77.00 204.00 C 76.02 205.83 74.95 205.99 64.21 205.92 C 57.77 205.88 51.94 205.62 51.25 205.34 Z "/>
</g>
</svg>