<?xml version="1.0" encoding="UTF-8" standalone="no"?>
<!DOCTYPE svg PUBLIC "-//W3C//DTD SVG 1.1//EN" "http://www.w3.org/Graphics/SVG/1.1/DTD/svg11.dtd" >
<svg xmlns="http://www.w3.org/2000/svg" xmlns:xlink="http://www.w3.org/1999/xlink" version="1.1" viewBox="0 0 256 256">
 <g >
 <path fill="currentColor"
d=" M 64.69 242.41 C 65.73 240.99 66.00 229.95 66.00 188.76 C 66.00 136.90 66.00 136.90 70.54 140.03 C 73.04 141.75 79.29 147.17 84.42 152.08 C 89.55 156.99 94.45 161.00 95.30 161.00 C 97.67 161.00 102.58 156.42 104.12 152.77 C 105.37 149.81 105.55 151.50 106.00 170.68 C 106.56 194.25 106.83 195.21 114.10 199.50 C 117.27 201.37 119.30 201.50 144.50 201.50 C 184.03 201.50 183.00 202.50 182.99 164.10 C 182.99 138.71 182.36 134.13 178.24 129.77 C 173.73 124.99 170.57 124.50 144.00 124.50 C 120.68 124.50 119.28 124.61 114.98 126.73 C 109.26 129.55 106.89 133.56 106.25 141.46 C 105.75 147.70 105.75 147.70 101.63 143.59 C 93.57 135.56 77.17 123.00 74.75 123.00 C 73.44 123.00 70.95 124.40 69.19 126.12 C 66.00 129.24 66.00 129.24 66.00 123.70 C 66.00 118.77 66.57 117.25 71.17 109.83 C 74.02 105.25 78.63 96.78 81.42 91.00 C 86.26 80.97 86.49 80.13 86.49 72.16 C 86.50 59.27 88.75 60.00 48.86 60.00 C 15.95 60.00 15.95 60.00 14.89 62.75 C 13.58 66.13 14.23 75.63 15.88 77.29 C 16.75 78.15 24.05 78.59 41.55 78.80 C 62.26 79.05 66.00 79.32 66.00 80.57 C 66.00 82.90 57.28 99.70 51.27 108.96 C 42.20 122.92 34.22 132.78 20.77 146.66 C 7.23 160.64 6.44 162.10 9.40 167.80 C 11.59 172.00 15.57 175.27 17.66 174.60 C 18.67 174.28 26.02 167.01 34.00 158.44 C 48.50 142.86 48.50 142.86 49.00 192.51 C 49.50 242.16 49.50 242.16 52.00 243.60 C 55.33 245.52 62.94 244.80 64.69 242.41 Z  M 212.76 237.58 C 219.54 235.43 224.40 231.11 226.69 225.20 C 228.39 220.79 228.50 215.06 228.50 131.00 C 228.50 47.32 228.39 41.29 226.73 38.27 C 222.93 31.32 224.97 31.53 160.50 31.21 C 102.50 30.93 102.50 30.93 100.75 33.07 C 98.42 35.93 98.36 44.64 100.65 47.17 C 102.22 48.90 105.23 49.00 155.33 49.00 C 203.26 49.00 208.52 49.16 210.17 50.65 C 211.91 52.23 212.00 55.99 211.94 130.90 C 211.90 189.05 211.58 210.41 210.69 213.00 C 209.81 215.59 208.33 217.11 205.00 218.83 C 200.66 221.08 199.86 221.15 182.26 220.72 C 167.57 220.36 163.80 220.54 162.88 221.65 C 161.36 223.48 162.47 231.40 164.80 235.41 C 166.31 238.00 167.40 238.61 171.55 239.15 C 180.90 240.38 207.08 239.38 212.76 237.58 Z  M 197.96 93.07 C 199.27 90.63 199.30 83.93 198.02 80.57 C 197.05 78.00 197.05 78.00 148.06 78.00 C 100.65 78.00 99.04 78.06 98.04 79.93 C 96.61 82.59 96.73 92.33 98.20 93.80 C 99.10 94.70 111.57 95.00 148.16 95.00 C 195.35 95.00 196.96 94.94 197.96 93.07 Z  M 69.50 54.08 C 71.37 53.03 72.61 51.46 72.80 49.88 C 73.19 46.62 56.54 13.36 53.78 11.88 C 49.22 9.44 40.00 13.94 40.00 18.59 C 40.00 19.94 41.79 24.60 43.98 28.95 C 46.16 33.30 49.58 40.83 51.56 45.68 C 53.55 50.53 55.88 55.06 56.75 55.73 C 58.73 57.27 65.34 56.41 69.50 54.08 Z  M 125.00 183.00 C 123.15 181.15 123.00 179.67 123.00 163.12 C 123.00 147.72 123.23 145.06 124.65 143.87 C 125.92 142.82 130.47 142.50 144.00 142.50 C 157.52 142.50 162.08 142.82 163.34 143.87 C 164.77 145.06 165.00 147.74 165.00 163.57 C 165.00 181.36 164.94 181.93 162.78 183.44 C 160.98 184.70 157.34 185.00 143.78 185.00 C 128.33 185.00 126.84 184.84 125.00 183.00 Z "/>
</g>
</svg>