<?xml version="1.0" encoding="UTF-8" standalone="no"?>
<!DOCTYPE svg PUBLIC "-//W3C//DTD SVG 1.1//EN" "http://www.w3.org/Graphics/SVG/1.1/DTD/svg11.dtd" >
<svg xmlns="http://www.w3.org/2000/svg" xmlns:xlink="http://www.w3.org/1999/xlink" version="1.1" viewBox="0 0 256 256">
 <g >
 <path fill="currentColor"
d=" M 210.47 233.50 C 212.68 232.39 215.35 229.94 216.47 228.00 C 218.44 224.60 218.50 222.93 218.50 171.50 C 218.50 120.07 218.44 118.40 216.47 115.00 C 215.34 113.05 212.69 110.62 210.47 109.51 C 206.81 107.68 204.01 107.50 174.71 107.16 C 157.23 106.96 141.47 107.06 139.70 107.40 C 137.93 107.73 135.89 108.94 135.18 110.09 C 133.35 113.01 133.46 119.52 135.37 122.44 C 136.97 124.89 136.97 124.89 166.84 125.20 C 190.33 125.43 197.05 125.79 198.35 126.87 C 199.75 128.04 200.00 130.51 200.00 143.12 C 200.00 158.00 200.00 158.00 169.00 158.00 C 139.33 158.00 137.91 158.09 136.00 160.00 C 133.13 162.87 132.99 170.16 135.75 173.25 C 137.17 174.85 140.06 175.00 168.65 175.00 C 200.00 175.00 200.00 175.00 200.00 194.93 C 200.00 211.71 199.75 215.11 198.43 216.43 C 197.03 217.83 189.26 218.00 128.00 218.00 C 66.74 218.00 58.97 217.83 57.57 216.43 C 56.25 215.11 56.00 211.71 56.00 194.93 C 56.00 175.00 56.00 175.00 87.38 175.00 C 121.30 175.00 120.63 175.11 121.01 169.50 C 121.82 157.42 123.53 158.00 86.93 158.00 C 56.00 158.00 56.00 158.00 56.00 144.06 C 56.00 136.39 56.37 129.89 56.82 129.61 C 57.26 129.34 63.06 128.18 69.69 127.05 C 94.65 122.80 115.49 117.37 118.52 114.34 C 121.39 111.47 119.62 101.42 115.68 98.15 C 114.28 96.99 112.34 97.31 102.27 100.37 C 91.96 103.50 72.52 108.14 53.50 112.01 C 44.89 113.77 40.12 116.46 38.42 120.53 C 37.26 123.32 37.00 132.76 37.01 172.72 C 37.01 202.39 37.41 222.92 38.02 225.13 C 39.37 230.01 43.31 233.72 48.35 234.87 C 50.80 235.43 83.97 235.75 129.50 235.66 C 204.34 235.50 206.61 235.44 210.47 233.50 Z  M 193.25 98.00 C 196.44 93.88 203.82 83.47 209.64 74.88 C 221.37 57.55 221.56 56.81 215.20 52.49 C 211.08 49.69 205.90 49.25 203.65 51.50 C 202.82 52.32 197.63 59.70 192.11 67.89 C 186.58 76.08 179.80 85.61 177.03 89.06 C 174.26 92.51 172.00 95.87 172.00 96.53 C 172.00 98.56 175.74 102.62 179.21 104.36 C 184.83 107.16 186.87 106.24 193.25 98.00 Z  M 70.41 98.64 C 72.56 97.46 75.22 95.29 76.32 93.80 C 78.31 91.11 78.31 91.11 74.90 85.46 C 68.36 74.61 53.00 55.04 50.55 54.42 C 47.71 53.71 40.30 56.81 37.63 59.81 C 34.93 62.86 35.83 64.93 45.79 78.50 C 50.63 85.10 55.66 92.30 56.96 94.50 C 61.88 102.81 62.47 102.99 70.41 98.64 Z  M 143.27 93.93 C 145.49 92.10 147.00 89.98 147.00 88.68 C 147.00 85.26 141.91 75.41 134.50 64.50 C 125.67 51.47 124.27 50.00 120.76 50.00 C 115.84 50.00 109.00 54.71 109.00 58.10 C 109.00 59.07 112.99 66.08 117.86 73.68 C 122.73 81.28 127.93 89.64 129.40 92.25 C 131.85 96.59 132.41 97.00 135.81 97.00 C 138.50 97.00 140.59 96.14 143.27 93.93 Z  M 76.50 50.96 C 115.43 49.09 169.49 45.19 209.00 41.41 C 221.61 40.20 225.79 39.45 226.75 38.22 C 229.34 34.89 227.48 25.30 223.61 22.09 C 222.15 20.88 220.02 20.91 208.21 22.33 C 169.42 27.01 91.72 32.68 40.32 34.58 C 22.14 35.25 22.14 35.25 20.90 38.25 C 19.92 40.61 19.91 42.24 20.86 45.88 C 22.47 52.07 24.97 54.08 30.32 53.46 C 32.62 53.19 53.40 52.07 76.50 50.96 Z "/>
</g>
</svg>