<?xml version="1.0" encoding="UTF-8" standalone="no"?>
<!DOCTYPE svg PUBLIC "-//W3C//DTD SVG 1.1//EN" "http://www.w3.org/Graphics/SVG/1.1/DTD/svg11.dtd" >
<svg xmlns="http://www.w3.org/2000/svg" xmlns:xlink="http://www.w3.org/1999/xlink" version="1.1" viewBox="0 0 256 256">
 <g >
 <path fill="currentColor"
d=" M 229.32 235.13 C 237.28 231.21 240.61 224.57 243.67 206.47 C 245.47 195.80 245.47 195.80 243.17 193.93 C 240.29 191.61 234.20 190.39 232.09 191.71 C 231.03 192.38 230.09 195.65 229.24 201.61 C 227.60 213.19 226.59 216.06 222.91 219.59 C 219.87 222.50 219.87 222.50 203.10 222.83 C 177.15 223.34 175.07 222.15 174.20 206.34 C 173.76 198.19 173.76 198.19 193.13 197.81 C 215.02 197.38 218.58 196.51 221.68 190.83 C 223.34 187.79 223.50 184.43 223.50 152.50 C 223.50 112.22 223.56 112.54 214.69 108.12 C 210.34 105.96 208.27 105.70 191.95 105.23 C 174.00 104.71 174.00 104.71 174.00 95.51 C 174.00 86.31 174.00 86.31 190.44 85.69 C 217.23 84.69 217.27 84.64 216.81 55.54 C 216.53 37.80 216.32 35.91 214.44 33.39 C 210.71 28.40 208.58 28.16 166.77 28.08 C 132.95 28.01 127.52 28.21 123.90 29.65 C 117.59 32.18 117.00 34.51 117.00 57.02 C 117.00 84.69 117.11 84.81 142.69 85.74 C 158.00 86.30 158.00 86.30 158.00 95.51 C 158.00 104.71 158.00 104.71 140.58 105.23 C 121.44 105.81 117.59 106.82 113.56 112.32 C 111.57 115.05 111.50 116.35 111.50 151.32 C 111.50 191.49 111.53 191.66 118.00 195.45 C 121.11 197.27 123.53 197.54 139.75 197.85 C 158.00 198.19 158.00 198.19 158.01 204.85 C 158.03 220.53 161.33 230.13 167.98 233.87 C 174.26 237.40 178.63 237.89 202.00 237.69 C 223.45 237.51 224.72 237.39 229.32 235.13 Z  M 103.18 230.81 C 104.65 230.27 106.09 229.21 106.37 228.47 C 107.12 226.52 96.06 178.55 93.01 170.52 C 91.51 166.58 87.73 165.31 82.68 167.06 C 77.16 168.96 77.04 170.62 81.32 185.78 C 85.19 199.51 85.86 198.16 74.50 199.53 C 71.75 199.86 68.26 200.36 66.75 200.64 C 64.00 201.16 64.00 201.16 64.00 175.69 C 64.00 150.23 64.00 150.23 74.46 149.84 C 86.40 149.40 89.09 148.15 92.50 141.44 C 94.38 137.74 94.50 135.52 94.50 105.00 C 94.50 73.60 94.43 72.34 92.29 67.72 C 89.24 61.12 84.61 59.05 72.75 59.02 C 64.00 59.00 64.00 59.00 64.00 38.69 C 64.00 14.96 63.91 14.69 56.29 14.58 C 47.91 14.45 48.00 14.20 48.00 38.12 C 48.00 59.00 48.00 59.00 39.21 59.00 C 28.12 59.00 22.55 61.40 19.50 67.50 C 17.62 71.26 17.50 73.50 17.50 105.00 C 17.50 136.70 17.61 138.68 19.50 141.90 C 23.24 148.24 25.89 149.41 37.54 149.84 C 48.00 150.23 48.00 150.23 48.00 177.03 C 48.00 203.84 48.00 203.84 45.25 204.41 C 41.50 205.19 23.90 207.68 16.24 208.52 C 9.75 209.22 7.00 211.21 7.00 215.20 C 7.00 218.42 10.16 224.92 12.02 225.51 C 13.03 225.83 17.82 225.41 22.68 224.58 C 27.53 223.75 39.72 221.91 49.77 220.48 C 59.82 219.06 72.64 217.02 78.27 215.95 C 83.89 214.88 88.56 214.00 88.65 214.00 C 88.73 214.00 89.31 216.93 89.93 220.52 C 92.12 233.10 93.71 234.34 103.18 230.81 Z  M 129.22 181.44 C 127.15 179.99 127.00 179.13 127.00 168.44 C 127.00 157.00 127.00 157.00 142.50 157.00 C 158.00 157.00 158.00 157.00 158.00 170.00 C 158.00 183.00 158.00 183.00 144.72 183.00 C 134.32 183.00 130.96 182.66 129.22 181.44 Z  M 174.00 170.00 C 174.00 157.00 174.00 157.00 190.50 157.00 C 207.00 157.00 207.00 157.00 207.00 168.00 C 207.00 183.30 207.37 183.00 188.50 183.00 C 174.00 183.00 174.00 183.00 174.00 170.00 Z  M 127.02 133.25 C 127.02 128.44 127.39 123.93 127.84 123.23 C 129.24 121.01 135.17 120.00 146.74 120.00 C 158.00 120.00 158.00 120.00 158.00 131.00 C 158.00 142.00 158.00 142.00 142.50 142.00 C 127.00 142.00 127.00 142.00 127.02 133.25 Z  M 174.22 131.25 C 174.50 120.50 174.50 120.50 188.84 120.50 C 202.70 120.50 203.24 120.58 205.09 122.86 C 206.63 124.77 207.00 126.84 207.00 133.61 C 207.00 142.00 207.00 142.00 190.47 142.00 C 173.93 142.00 173.93 142.00 174.22 131.25 Z  M 137.82 70.29 C 135.32 69.91 135.10 69.45 134.44 63.32 C 133.76 56.96 134.40 45.78 135.55 43.91 C 135.87 43.39 149.18 43.00 166.44 43.00 C 191.12 43.00 196.97 43.26 197.91 44.39 C 198.68 45.32 198.97 49.74 198.78 57.60 C 198.50 69.25 198.46 69.42 196.00 70.11 C 193.37 70.84 142.44 71.00 137.82 70.29 Z  M 34.00 131.00 C 32.11 129.11 32.00 127.67 32.00 104.50 C 32.00 75.50 31.82 76.00 42.00 76.00 C 48.00 76.00 48.00 76.00 48.00 104.50 C 48.00 133.00 48.00 133.00 42.00 133.00 C 37.33 133.00 35.56 132.56 34.00 131.00 Z  M 64.00 104.50 C 64.00 76.00 64.00 76.00 69.93 76.00 C 79.94 76.00 80.32 77.23 79.83 108.15 C 79.44 132.82 79.37 133.00 69.85 133.00 C 64.00 133.00 64.00 133.00 64.00 104.50 Z "/>
</g>
</svg>