<?xml version="1.0" encoding="UTF-8" standalone="no"?>
<!DOCTYPE svg PUBLIC "-//W3C//DTD SVG 1.1//EN" "http://www.w3.org/Graphics/SVG/1.1/DTD/svg11.dtd" >
<svg xmlns="http://www.w3.org/2000/svg" xmlns:xlink="http://www.w3.org/1999/xlink" version="1.1" viewBox="0 0 256 256">
 <g >
 <path fill="currentColor"
d=" M 103.02 239.94 C 115.57 236.49 145.84 224.07 147.50 221.69 C 149.81 218.40 149.40 212.57 146.63 209.36 C 144.27 206.61 144.27 206.61 131.88 210.77 C 114.48 216.61 102.14 220.00 98.29 220.00 C 95.00 220.00 95.00 220.00 95.00 203.03 C 95.00 186.06 95.00 186.06 102.75 180.86 C 107.01 178.00 113.00 173.75 116.06 171.42 C 121.22 167.48 121.71 167.30 122.76 168.99 C 126.47 174.93 140.40 190.02 148.29 196.64 C 160.52 206.91 171.48 213.93 186.28 221.01 C 203.30 229.14 233.68 239.11 237.27 237.73 C 242.09 235.88 246.92 223.83 243.85 221.29 C 243.11 220.68 238.68 219.20 234.00 218.01 C 215.45 213.28 182.00 201.08 182.00 199.04 C 182.00 198.67 183.69 197.58 185.75 196.61 C 194.67 192.41 217.94 177.75 218.51 175.98 C 219.38 173.23 215.55 165.21 212.77 163.94 C 210.70 163.00 208.60 163.95 195.20 171.95 C 186.83 176.94 176.67 182.66 172.62 184.67 C 165.25 188.31 165.25 188.31 159.38 183.77 C 151.08 177.37 136.00 161.16 136.00 158.66 C 136.00 158.30 158.96 158.00 187.02 158.00 C 238.05 158.00 238.05 158.00 239.02 155.43 C 240.47 151.65 240.21 146.75 238.44 144.22 C 236.89 142.00 236.89 142.00 190.51 142.00 C 145.82 142.00 144.11 141.93 143.53 140.10 C 142.68 137.41 132.14 121.83 130.15 120.32 C 128.71 119.22 128.89 119.06 131.55 119.03 C 133.23 119.01 135.14 118.46 135.80 117.80 C 136.68 116.92 137.00 108.87 137.00 87.80 C 137.00 59.00 137.00 59.00 184.50 59.00 C 230.67 59.00 232.06 58.94 234.00 57.00 C 236.20 54.80 236.69 48.94 235.02 44.57 C 234.05 42.00 234.05 42.00 217.45 42.00 C 200.85 42.00 200.85 42.00 202.93 39.37 C 206.38 34.98 205.63 32.72 198.75 26.75 C 191.76 20.68 182.66 13.85 179.24 12.08 C 174.81 9.80 164.11 16.82 165.17 21.31 C 165.35 22.09 170.00 26.11 175.50 30.25 C 192.55 43.08 193.60 42.08 163.42 41.77 C 137.50 41.50 137.50 41.50 137.24 28.50 C 136.94 13.45 136.17 12.00 128.50 12.00 C 120.83 12.00 120.06 13.45 119.76 28.50 C 119.50 41.50 119.50 41.50 71.50 41.74 C 23.97 41.98 23.48 42.01 21.75 44.10 C 19.10 47.31 19.45 53.55 22.45 56.55 C 24.91 59.00 24.91 59.00 72.45 59.00 C 120.00 59.00 120.00 59.00 120.00 88.03 C 120.00 112.91 120.21 117.15 121.50 117.64 C 123.81 118.53 123.27 120.00 120.63 120.00 C 117.67 120.00 112.99 123.59 113.04 125.82 C 113.06 126.75 115.30 130.43 118.03 134.00 C 120.76 137.57 122.99 140.84 122.99 141.25 C 123.00 141.66 100.05 142.00 72.00 142.00 C 22.33 142.00 20.95 142.05 19.00 144.00 C 16.46 146.54 16.32 152.96 18.75 155.90 C 20.48 157.99 21.06 158.02 63.98 158.26 C 107.46 158.50 107.46 158.50 97.48 164.97 C 78.98 176.95 49.95 190.28 21.00 200.05 C 10.48 203.61 7.53 205.94 8.50 209.94 C 9.52 214.14 13.86 220.00 15.95 220.00 C 18.87 220.00 55.12 206.40 66.75 200.95 C 77.00 196.14 77.00 196.14 77.00 213.05 C 77.00 226.44 77.34 230.82 78.65 234.09 C 81.84 242.05 89.05 243.79 103.02 239.94 Z  M 60.50 123.87 C 74.79 120.31 100.78 112.45 106.75 109.89 C 110.35 108.35 111.00 107.63 111.00 105.18 C 111.00 100.99 109.07 96.11 106.97 94.98 C 105.62 94.26 102.15 94.95 93.82 97.58 C 79.46 102.12 51.45 109.23 38.64 111.59 C 30.53 113.09 28.51 113.82 27.24 115.75 C 25.25 118.79 26.94 125.02 30.51 127.83 C 32.85 129.67 33.36 129.69 40.74 128.32 C 45.01 127.52 53.90 125.52 60.50 123.87 Z  M 228.45 123.46 C 230.54 119.05 230.45 114.31 228.25 113.15 C 221.60 109.66 186.63 99.90 165.10 95.52 C 151.38 92.73 150.80 92.84 148.35 98.72 C 146.76 102.52 146.60 106.63 148.00 107.50 C 148.55 107.84 158.56 110.53 170.25 113.48 C 188.69 118.13 220.82 127.50 221.85 128.52 C 222.87 129.54 227.11 126.29 228.45 123.46 Z  M 94.06 92.30 C 97.70 89.23 100.37 83.74 99.52 81.05 C 98.06 76.47 50.42 59.64 45.84 62.08 C 43.34 63.42 40.01 68.87 40.00 71.63 C 40.00 74.62 40.93 75.15 55.29 80.43 C 62.32 83.02 72.89 87.32 78.79 89.99 C 84.68 92.66 89.80 94.88 90.17 94.92 C 90.54 94.97 92.29 93.78 94.06 92.30 Z  M 179.98 90.75 C 189.94 87.26 207.12 79.84 211.75 77.01 C 213.54 75.92 214.99 74.24 214.98 73.26 C 214.94 70.01 211.25 63.30 209.21 62.77 C 208.00 62.45 201.92 64.59 193.85 68.19 C 186.51 71.46 176.00 75.70 170.50 77.62 C 165.00 79.54 160.11 81.49 159.64 81.96 C 158.40 83.20 160.68 89.37 163.52 92.43 C 166.31 95.44 166.66 95.40 179.98 90.75 Z "/>
</g>
</svg>