<?xml version="1.0" encoding="UTF-8" standalone="no"?>
<!DOCTYPE svg PUBLIC "-//W3C//DTD SVG 1.1//EN" "http://www.w3.org/Graphics/SVG/1.1/DTD/svg11.dtd" >
<svg xmlns="http://www.w3.org/2000/svg" xmlns:xlink="http://www.w3.org/1999/xlink" version="1.1" viewBox="0 0 256 256">
 <g >
 <path fill="currentColor"
d=" M 117.24 236.25 C 132.73 214.06 138.29 199.46 142.09 171.00 C 142.71 166.32 143.51 147.88 143.86 130.00 C 144.50 97.50 144.50 97.50 149.79 106.69 C 152.70 111.74 158.90 123.89 163.57 133.69 C 168.24 143.48 172.83 153.07 173.78 155.00 C 176.03 159.57 180.04 160.14 185.23 156.62 C 188.88 154.14 188.88 154.14 189.19 187.82 C 189.48 219.69 189.61 221.75 191.62 226.09 C 194.86 233.09 199.24 235.33 210.68 235.83 C 227.28 236.56 232.66 234.50 237.14 225.73 C 239.95 220.23 243.49 205.61 245.06 193.11 C 246.36 182.74 246.35 182.70 244.07 180.86 C 241.40 178.69 232.80 178.28 231.28 180.25 C 230.74 180.94 229.79 186.92 229.17 193.54 C 227.96 206.30 225.95 214.78 223.80 216.15 C 221.63 217.52 211.55 217.12 209.44 215.58 C 207.55 214.20 207.49 211.82 207.00 126.83 C 206.51 41.05 206.46 39.44 204.45 36.00 C 200.82 29.81 199.45 29.53 170.00 29.19 C 155.43 29.02 141.59 29.16 139.25 29.50 C 133.95 30.28 129.41 34.01 127.91 38.81 C 127.14 41.29 126.50 62.04 125.98 102.00 C 125.17 164.52 124.51 174.28 120.03 190.62 C 118.91 194.72 116.57 201.10 114.85 204.79 C 111.71 211.50 111.71 211.50 110.88 207.05 C 109.44 199.45 109.12 199.35 93.30 201.94 C 85.71 203.18 78.26 204.43 76.75 204.72 C 74.00 205.25 74.00 205.25 74.00 171.12 C 74.00 137.00 74.00 137.00 92.88 137.00 C 113.31 137.00 113.65 136.91 114.01 131.50 C 114.78 119.97 114.85 120.00 92.43 120.00 C 74.00 120.00 74.00 120.00 74.00 108.00 C 74.00 96.00 74.00 96.00 87.38 96.00 C 102.66 96.00 103.33 95.68 103.33 88.50 C 103.33 80.73 104.51 81.00 70.88 81.00 C 54.44 81.00 41.00 80.66 41.00 80.25 C 41.00 79.84 43.61 76.02 46.79 71.77 C 49.98 67.52 55.72 58.86 59.54 52.52 C 63.37 46.19 66.75 41.01 67.05 41.00 C 67.35 41.00 75.90 49.32 86.05 59.49 C 96.20 69.66 105.17 77.98 106.00 77.98 C 109.84 77.99 116.98 70.69 116.99 66.74 C 117.00 64.30 104.42 51.37 90.97 40.00 C 84.79 34.77 78.41 29.37 76.78 27.98 C 73.83 25.46 73.83 25.46 75.62 22.33 C 77.11 19.75 77.19 18.94 76.13 17.66 C 73.00 13.89 62.79 13.14 60.02 16.47 C 59.38 17.25 56.90 21.68 54.52 26.31 C 44.96 44.88 32.82 62.53 18.99 77.95 C 14.59 82.85 11.00 87.73 11.00 88.80 C 11.00 91.38 14.49 95.69 18.10 97.55 C 21.47 99.29 23.03 98.72 27.42 94.11 C 30.34 91.04 30.34 91.04 31.44 93.27 C 32.48 95.34 33.39 95.53 44.53 96.00 C 56.50 96.50 56.50 96.50 56.78 108.25 C 57.06 120.00 57.06 120.00 37.53 120.00 C 19.33 120.00 17.86 120.14 16.00 122.00 C 13.80 124.20 13.31 130.06 14.98 134.43 C 15.95 137.00 15.95 137.00 36.48 137.00 C 57.00 137.00 57.00 137.00 57.00 172.42 C 57.00 207.84 57.00 207.84 54.25 208.40 C 47.96 209.66 32.84 211.96 23.50 213.07 C 18.00 213.72 12.95 214.69 12.28 215.23 C 8.81 217.99 10.84 230.18 14.99 231.50 C 17.10 232.17 38.36 228.94 77.88 221.94 C 93.48 219.18 106.43 217.10 106.64 217.31 C 106.86 217.52 104.33 221.09 101.02 225.24 C 97.71 229.38 95.00 233.64 95.00 234.70 C 95.00 236.65 98.84 240.82 102.50 242.84 C 103.60 243.44 106.15 243.95 108.17 243.97 C 111.62 244.00 112.15 243.55 117.24 236.25 Z  M 45.26 193.81 C 46.78 193.22 48.27 191.78 48.56 190.60 C 49.18 188.13 44.73 174.94 38.45 160.67 C 32.11 146.25 31.62 145.65 26.82 146.30 C 22.84 146.83 19.00 149.34 19.00 151.40 C 19.00 152.01 20.86 156.78 23.13 162.00 C 25.40 167.22 29.02 176.45 31.17 182.50 C 33.33 188.55 35.84 194.06 36.74 194.75 C 38.39 196.00 40.00 195.82 45.26 193.81 Z  M 94.94 190.09 C 97.68 186.23 104.08 172.23 108.56 160.27 C 112.17 150.64 112.17 150.64 109.83 148.84 C 107.36 146.94 101.95 145.52 99.86 146.21 C 98.59 146.64 82.22 180.59 81.28 184.76 C 80.66 187.48 82.47 189.86 86.50 191.61 C 91.02 193.58 92.66 193.29 94.94 190.09 Z  M 188.24 143.98 C 187.84 141.44 166.36 98.86 162.77 93.50 C 159.53 88.65 159.28 88.50 154.71 88.56 C 151.45 88.61 149.05 89.33 146.92 90.90 C 143.85 93.17 143.85 93.17 144.18 72.84 C 144.35 61.65 144.86 51.94 145.31 51.25 C 146.53 49.36 186.31 49.47 187.89 51.36 C 188.70 52.35 188.94 65.68 188.75 99.11 C 188.60 124.63 188.37 144.82 188.24 143.98 Z "/>
</g>
</svg>