<?xml version="1.0" encoding="UTF-8" standalone="no"?>
<!DOCTYPE svg PUBLIC "-//W3C//DTD SVG 1.1//EN" "http://www.w3.org/Graphics/SVG/1.1/DTD/svg11.dtd" >
<svg xmlns="http://www.w3.org/2000/svg" xmlns:xlink="http://www.w3.org/1999/xlink" version="1.1" viewBox="0 0 256 256">
 <g >
 <path fill="currentColor"
d=" M 196.43 237.15 C 209.63 232.41 213.24 224.98 216.99 194.81 C 219.51 174.53 219.17 171.59 213.94 168.52 C 210.76 166.65 208.29 166.46 181.00 166.00 C 146.96 165.42 149.99 166.85 152.25 152.50 C 153.51 144.50 153.51 144.50 192.91 144.24 C 217.60 144.07 232.78 143.60 233.54 142.97 C 236.39 140.60 235.86 130.80 232.77 128.84 C 232.07 128.39 216.17 128.02 197.43 128.02 C 163.36 128.00 163.36 128.00 174.27 117.00 C 185.17 106.00 185.17 106.00 214.03 106.00 C 242.72 106.00 242.90 105.99 244.44 103.78 C 246.56 100.75 246.40 95.72 244.09 92.86 C 242.21 90.54 241.79 90.49 220.55 90.00 C 198.92 89.50 198.92 89.50 203.67 83.00 C 214.99 67.48 232.00 37.96 232.00 33.82 C 232.00 28.31 222.08 23.75 218.52 27.64 C 217.58 28.66 213.87 34.90 210.27 41.50 C 202.71 55.36 191.73 72.33 183.57 82.75 C 177.89 90.00 177.89 90.00 169.94 90.00 C 162.00 90.00 162.00 90.00 162.00 75.00 C 162.00 60.00 162.00 60.00 178.75 59.98 C 187.96 59.98 196.03 59.63 196.69 59.21 C 200.01 57.10 200.64 46.61 197.60 44.08 C 196.88 43.49 189.17 42.93 179.43 42.77 C 162.50 42.50 162.50 42.50 162.23 29.00 C 161.92 13.51 161.66 13.00 153.81 13.00 C 145.76 13.00 145.00 14.47 145.00 30.00 C 145.00 43.00 145.00 43.00 129.04 43.00 C 113.08 43.00 113.08 43.00 111.91 46.90 C 110.46 51.75 111.47 57.64 113.98 58.99 C 115.02 59.54 122.42 60.00 130.43 60.00 C 145.00 60.00 145.00 60.00 145.00 75.00 C 145.00 90.00 145.00 90.00 127.25 90.01 C 105.88 90.03 104.64 90.42 104.20 97.24 C 103.61 106.37 102.16 105.93 134.24 106.23 C 162.43 106.50 162.43 106.50 152.47 115.19 C 137.91 127.89 129.90 134.15 116.98 142.95 C 105.45 150.79 105.45 150.79 102.61 148.34 C 100.51 146.54 98.83 145.97 96.21 146.20 C 92.67 146.50 92.63 146.56 86.98 159.50 C 83.85 166.65 79.82 175.55 78.01 179.27 C 74.78 185.94 74.76 186.07 76.61 188.12 C 79.10 190.87 83.33 193.00 86.30 193.00 C 88.38 193.00 89.47 191.36 94.73 180.25 C 98.06 173.24 101.83 164.57 103.12 161.00 C 104.65 156.74 105.59 155.19 105.83 156.50 C 106.46 159.90 110.09 163.00 113.43 163.00 C 115.67 163.00 118.84 161.25 125.01 156.60 C 129.68 153.08 133.67 150.36 133.88 150.57 C 134.09 150.77 133.71 155.12 133.03 160.24 C 131.46 172.12 132.56 177.16 137.29 179.74 C 140.10 181.28 144.10 181.54 169.67 181.81 C 192.00 182.04 199.10 182.41 199.92 183.40 C 201.79 185.65 198.50 206.50 195.25 213.00 C 190.51 222.49 185.22 223.64 154.00 222.00 C 144.50 221.50 144.50 221.50 144.20 227.12 C 143.95 231.95 144.27 233.17 146.50 235.82 C 149.65 239.56 151.92 239.86 174.50 239.52 C 187.91 239.33 191.46 238.94 196.43 237.15 Z  M 41.76 227.48 C 82.90 221.84 111.32 217.11 112.78 215.65 C 114.64 213.79 114.60 204.17 112.73 202.30 C 111.44 201.01 109.03 201.21 92.88 203.98 C 82.77 205.71 73.49 207.37 72.25 207.67 C 70.00 208.22 70.00 208.22 70.00 172.61 C 70.00 137.00 70.00 137.00 88.05 137.00 C 106.10 137.00 106.10 137.00 107.58 133.46 C 109.30 129.35 108.07 122.62 105.41 121.60 C 104.54 121.27 96.22 121.00 86.92 121.00 C 70.00 121.00 70.00 121.00 70.00 109.00 C 70.00 97.00 70.00 97.00 83.95 97.00 C 97.91 97.00 97.91 97.00 98.92 93.31 C 99.97 89.53 99.49 85.47 97.74 83.25 C 96.99 82.30 89.89 82.00 68.38 82.00 C 50.44 82.00 40.00 81.64 40.00 81.02 C 40.00 80.48 42.36 76.72 45.25 72.67 C 48.14 68.62 53.65 60.06 57.50 53.66 C 61.35 47.25 64.78 42.12 65.12 42.25 C 65.46 42.39 73.09 50.26 82.08 59.75 C 94.12 72.46 99.03 77.00 100.74 77.00 C 103.95 77.00 107.57 74.44 110.06 70.41 C 112.15 67.02 112.15 67.02 110.10 64.14 C 108.98 62.56 99.95 53.38 90.04 43.74 C 72.03 26.20 72.03 26.20 73.13 23.06 C 74.50 19.14 72.53 16.54 66.93 14.86 C 60.60 12.96 58.38 14.20 55.09 21.46 C 47.10 39.08 30.07 65.90 17.97 79.89 C 14.14 84.33 11.00 88.81 11.00 89.85 C 11.00 93.98 19.00 100.70 22.38 99.41 C 23.22 99.09 25.10 97.24 26.58 95.31 C 29.26 91.79 29.26 91.79 31.38 94.38 C 33.34 96.77 34.19 96.99 42.50 97.23 C 51.50 97.50 51.50 97.50 51.78 109.25 C 52.06 121.00 52.06 121.00 34.60 121.00 C 17.15 121.00 17.15 121.00 15.07 123.63 C 12.83 126.49 12.43 130.38 13.98 134.43 C 14.95 137.00 14.95 137.00 33.48 137.00 C 52.00 137.00 52.00 137.00 52.00 173.42 C 52.00 209.84 52.00 209.84 49.25 210.42 C 46.12 211.08 15.61 215.00 13.62 215.00 C 11.85 215.00 10.00 219.36 10.00 223.55 C 10.00 226.89 12.76 231.00 15.01 231.00 C 15.56 231.00 27.60 229.41 41.76 227.48 Z  M 43.00 194.05 C 44.38 193.09 45.64 191.37 45.81 190.24 C 46.13 188.11 39.09 169.60 32.47 155.16 C 28.70 146.96 28.59 146.83 25.57 147.42 C 21.82 148.16 17.61 151.13 17.18 153.36 C 17.00 154.26 18.74 159.62 21.06 165.25 C 23.37 170.89 26.80 179.78 28.68 185.00 C 30.56 190.22 32.82 195.05 33.71 195.73 C 35.63 197.19 39.53 196.48 43.00 194.05 Z "/>
</g>
</svg>