<?xml version="1.0" encoding="UTF-8" standalone="no"?>
<!DOCTYPE svg PUBLIC "-//W3C//DTD SVG 1.1//EN" "http://www.w3.org/Graphics/SVG/1.1/DTD/svg11.dtd" >
<svg xmlns="http://www.w3.org/2000/svg" xmlns:xlink="http://www.w3.org/1999/xlink" version="1.1" viewBox="0 0 256 256">
 <g >
 <path fill="currentColor"
d=" M 111.75 241.94 C 113.50 241.33 115.05 239.94 115.39 238.69 C 115.71 237.48 115.98 228.81 115.99 219.42 C 116.00 202.34 116.00 202.34 120.52 206.67 C 123.00 209.05 125.81 211.00 126.77 210.99 C 129.03 210.99 147.26 195.74 154.28 187.98 C 157.30 184.65 161.19 179.24 162.94 175.96 C 164.69 172.68 166.43 170.00 166.81 170.01 C 167.19 170.01 175.15 177.20 184.50 185.98 C 193.85 194.76 202.32 201.96 203.33 201.97 C 205.73 202.01 210.72 196.95 211.56 193.63 C 211.92 192.18 211.94 189.90 211.60 188.56 C 210.94 185.91 193.79 169.83 179.90 158.83 C 171.30 152.02 171.30 152.02 172.17 146.26 C 172.65 143.09 173.26 139.90 173.53 139.16 C 173.91 138.08 177.79 137.88 193.09 138.16 C 210.76 138.47 212.27 138.65 213.62 140.49 C 214.84 142.16 215.02 148.20 214.79 178.17 C 214.40 226.32 217.00 223.16 179.00 221.68 C 174.50 221.50 174.50 221.50 174.51 227.74 C 174.52 233.21 174.86 234.31 177.28 236.74 C 180.04 239.50 180.04 239.50 196.77 239.50 C 212.11 239.50 213.91 239.31 218.49 237.20 C 224.55 234.41 227.65 231.62 229.83 227.00 C 231.26 223.95 231.52 217.98 231.79 180.79 C 231.99 152.48 231.74 136.73 231.02 134.09 C 229.58 128.74 225.69 124.31 221.19 122.91 C 219.13 122.26 207.86 121.54 195.72 121.27 C 173.94 120.78 173.94 120.78 174.22 108.14 C 174.50 95.50 174.50 95.50 194.00 95.00 C 215.77 94.44 216.94 94.11 219.48 87.75 C 220.69 84.74 221.00 79.16 221.00 60.73 C 221.00 34.49 220.45 31.97 214.00 28.75 C 210.82 27.16 206.37 27.00 165.50 27.02 C 123.44 27.04 120.23 27.17 116.31 28.94 C 110.18 31.73 109.81 33.83 110.18 63.73 C 110.60 96.91 108.46 94.39 136.52 94.81 C 157.00 95.11 157.00 95.11 157.00 107.95 C 157.00 120.79 157.00 120.79 134.25 121.18 C 113.54 121.54 111.07 121.77 106.72 123.75 C 102.93 125.47 101.54 126.80 99.99 130.21 C 98.14 134.29 98.04 137.13 98.02 187.30 C 98.00 240.10 98.00 240.10 101.25 241.51 C 105.20 243.23 107.75 243.33 111.75 241.94 Z  M 59.50 229.49 C 66.18 226.26 82.32 215.75 88.36 210.69 C 93.15 206.68 93.21 206.57 92.75 201.74 C 92.31 197.16 89.68 192.06 87.35 191.28 C 86.79 191.10 82.99 193.37 78.91 196.34 C 74.84 199.31 68.91 203.39 65.75 205.40 C 60.00 209.06 60.00 209.06 60.00 183.03 C 60.00 157.00 60.00 157.00 74.88 157.00 C 90.79 157.00 91.15 156.89 92.39 151.71 C 93.25 148.12 91.44 141.38 89.41 140.60 C 88.54 140.27 81.57 140.00 73.92 140.00 C 60.00 140.00 60.00 140.00 60.00 124.00 C 60.00 108.00 60.00 108.00 74.46 108.00 C 88.92 108.00 88.92 108.00 90.00 103.99 C 91.53 98.31 90.37 93.09 87.31 91.93 C 85.97 91.42 72.30 91.00 56.93 91.00 C 41.57 91.00 29.00 90.80 29.00 90.55 C 29.00 90.30 30.30 88.17 31.89 85.80 C 33.48 83.44 36.73 77.56 39.11 72.75 C 43.45 64.00 43.45 64.00 67.61 64.00 C 96.37 64.00 96.29 64.03 96.29 54.70 C 96.29 45.78 96.89 46.00 72.77 46.00 C 53.17 46.00 51.84 45.88 52.54 44.25 C 55.10 38.28 61.00 21.79 61.00 20.59 C 61.00 16.87 51.19 12.76 47.30 14.84 C 46.10 15.48 43.45 20.95 40.10 29.68 C 33.06 48.04 22.29 69.81 14.40 81.61 C 10.88 86.87 8.00 91.98 8.00 92.96 C 8.00 97.37 16.46 103.96 19.75 102.12 C 21.14 101.34 21.64 101.75 22.48 104.33 C 23.50 107.50 23.50 107.50 32.50 108.00 C 41.50 108.50 41.50 108.50 41.78 124.25 C 42.05 140.00 42.05 140.00 28.78 140.02 C 21.47 140.02 15.00 140.36 14.40 140.77 C 11.25 142.87 10.08 149.45 11.98 154.43 C 12.95 157.00 12.95 157.00 27.48 157.00 C 42.00 157.00 42.00 157.00 42.00 190.53 C 42.00 226.68 42.42 230.01 47.21 231.97 C 50.10 233.16 53.19 232.54 59.50 229.49 Z  M 116.02 169.44 C 116.02 153.61 116.44 140.85 116.98 140.00 C 117.75 138.77 121.39 138.44 137.09 138.17 C 156.25 137.84 156.25 137.84 155.54 142.60 C 154.59 148.89 150.10 161.45 146.73 167.20 C 142.79 173.91 135.07 181.99 126.24 188.61 C 121.98 191.80 117.94 195.08 117.25 195.90 C 116.24 197.09 116.00 191.92 116.02 169.44 Z  M 131.50 79.31 C 127.19 78.18 127.00 77.40 127.00 61.08 C 127.00 50.22 127.37 45.03 128.20 44.20 C 129.92 42.48 200.08 42.48 201.80 44.20 C 203.27 45.67 203.47 75.71 202.02 78.00 C 201.21 79.28 196.11 79.52 167.29 79.66 C 148.70 79.75 132.60 79.59 131.50 79.31 Z "/>
</g>
</svg>