<?xml version="1.0" encoding="UTF-8" standalone="no"?>
<!DOCTYPE svg PUBLIC "-//W3C//DTD SVG 1.1//EN" "http://www.w3.org/Graphics/SVG/1.1/DTD/svg11.dtd" >
<svg xmlns="http://www.w3.org/2000/svg" xmlns:xlink="http://www.w3.org/1999/xlink" version="1.1" viewBox="0 0 256 256">
 <g >
 <path fill="currentColor"
d=" M 48.00 234.11 C 48.00 230.24 49.80 197.35 50.52 188.25 C 51.08 181.00 51.08 181.00 34.04 181.00 C 24.67 181.00 16.99 181.34 16.98 181.75 C 16.97 182.16 16.30 193.97 15.50 208.00 C 14.70 222.03 14.03 234.29 14.02 235.25 C 14.00 236.85 15.47 237.00 31.00 237.00 C 48.00 237.00 48.00 237.00 48.00 234.11 Z  M 240.98 235.25 C 240.97 234.29 240.30 222.03 239.50 208.00 C 238.70 193.97 238.03 182.16 238.02 181.75 C 238.01 181.34 230.12 181.00 220.49 181.00 C 202.98 181.00 202.98 181.00 203.52 186.25 C 204.18 192.78 207.00 232.21 207.00 234.97 C 207.00 236.93 207.59 237.00 224.00 237.00 C 239.53 237.00 241.00 236.85 240.98 235.25 Z  M 183.00 228.50 C 183.00 221.00 183.00 221.00 148.02 221.00 C 113.04 221.00 113.04 221.00 112.77 201.25 C 112.50 181.50 112.50 181.50 95.75 181.23 C 79.00 180.95 79.00 180.95 79.00 208.48 C 79.00 236.00 79.00 236.00 131.00 236.00 C 183.00 236.00 183.00 236.00 183.00 228.50 Z  M 176.57 198.25 C 175.48 179.02 177.62 181.00 157.92 181.00 C 138.53 181.00 140.40 178.90 141.65 199.34 C 142.30 210.00 142.30 210.00 159.77 210.00 C 177.24 210.00 177.24 210.00 176.57 198.25 Z  M 239.00 131.50 C 239.00 94.00 239.00 94.00 127.50 94.00 C 16.00 94.00 16.00 94.00 16.00 131.50 C 16.00 169.00 16.00 169.00 127.50 169.00 C 239.00 169.00 239.00 169.00 239.00 131.50 Z  M 245.00 75.00 C 245.00 68.00 245.00 68.00 229.50 68.00 C 212.00 68.00 212.56 68.32 215.50 60.00 C 216.32 57.66 217.00 55.58 217.00 55.37 C 217.00 55.17 209.37 55.00 200.04 55.00 C 183.07 55.00 183.07 55.00 181.23 61.25 C 179.39 67.50 179.39 67.50 127.59 67.50 C 75.79 67.50 75.79 67.50 73.29 61.25 C 70.79 55.00 70.79 55.00 54.39 55.00 C 45.38 55.00 38.00 55.15 38.00 55.34 C 38.00 55.53 38.86 58.19 39.92 61.26 C 40.97 64.32 41.57 67.09 41.25 67.42 C 40.93 67.74 33.77 68.00 25.33 68.00 C 10.00 68.00 10.00 68.00 10.00 75.00 C 10.00 82.00 10.00 82.00 127.50 82.00 C 245.00 82.00 245.00 82.00 245.00 75.00 Z  M 245.00 37.01 C 245.00 30.02 245.00 30.02 195.75 29.76 C 146.50 29.50 146.50 29.50 146.19 25.25 C 145.89 21.00 145.89 21.00 128.00 21.00 C 110.11 21.00 110.11 21.00 109.81 25.25 C 109.50 29.50 109.50 29.50 59.75 29.76 C 10.00 30.02 10.00 30.02 10.00 37.01 C 10.00 44.00 10.00 44.00 127.50 44.00 C 245.00 44.00 245.00 44.00 245.00 37.01 Z  M 51.00 147.00 C 51.00 139.00 51.00 139.00 127.00 139.00 C 203.00 139.00 203.00 139.00 203.00 147.00 C 203.00 155.00 203.00 155.00 127.00 155.00 C 51.00 155.00 51.00 155.00 51.00 147.00 Z  M 51.00 116.50 C 51.00 108.00 51.00 108.00 127.00 108.00 C 203.00 108.00 203.00 108.00 203.00 116.50 C 203.00 125.00 203.00 125.00 127.00 125.00 C 51.00 125.00 51.00 125.00 51.00 116.50 Z "/>
</g>
</svg>