<?xml version="1.0" encoding="UTF-8" standalone="no"?>
<!DOCTYPE svg PUBLIC "-//W3C//DTD SVG 1.1//EN" "http://www.w3.org/Graphics/SVG/1.1/DTD/svg11.dtd" >
<svg xmlns="http://www.w3.org/2000/svg" xmlns:xlink="http://www.w3.org/1999/xlink" version="1.1" viewBox="0 0 256 256">
 <g >
 <path fill="currentColor"
d=" M 243.00 226.50 C 243.00 217.00 243.00 217.00 225.50 217.00 C 208.00 217.00 208.00 217.00 208.00 220.00 C 208.00 223.00 208.00 223.00 174.00 223.00 C 140.00 223.00 140.00 223.00 140.00 216.00 C 140.00 209.00 140.00 209.00 191.50 209.00 C 243.00 209.00 243.00 209.00 243.00 190.00 C 243.00 171.00 243.00 171.00 191.50 171.00 C 140.00 171.00 140.00 171.00 140.00 165.50 C 140.00 160.00 140.00 160.00 123.00 160.00 C 106.00 160.00 106.00 160.00 106.00 165.50 C 106.00 171.00 106.00 171.00 59.00 171.00 C 12.00 171.00 12.00 171.00 12.00 190.00 C 12.00 209.00 12.00 209.00 59.00 209.00 C 106.00 209.00 106.00 209.00 106.00 216.00 C 106.00 223.00 106.00 223.00 58.00 223.00 C 10.00 223.00 10.00 223.00 10.00 229.50 C 10.00 236.00 10.00 236.00 126.50 236.00 C 243.00 236.00 243.00 236.00 243.00 226.50 Z  M 47.00 147.49 C 47.00 131.97 47.00 131.97 78.75 132.24 C 110.50 132.50 110.50 132.50 110.80 137.75 C 111.10 143.00 111.10 143.00 87.55 143.00 C 64.00 143.00 64.00 143.00 64.00 148.00 C 64.00 153.00 64.00 153.00 126.50 153.00 C 189.00 153.00 189.00 153.00 189.00 144.97 C 189.00 136.94 189.00 136.94 175.25 137.22 C 161.50 137.50 161.50 137.50 161.18 140.25 C 160.87 143.00 160.87 143.00 151.88 143.00 C 142.90 143.00 142.90 143.00 143.20 137.75 C 143.50 132.50 143.50 132.50 175.75 132.24 C 208.00 131.97 208.00 131.97 208.00 139.99 C 208.00 148.00 208.00 148.00 201.50 148.00 C 195.00 148.00 195.00 148.00 195.00 155.00 C 195.00 162.00 195.00 162.00 219.00 162.00 C 243.00 162.00 243.00 162.00 243.00 140.00 C 243.00 118.00 243.00 118.00 192.95 118.00 C 142.89 118.00 142.89 118.00 143.20 113.25 C 143.50 108.50 143.50 108.50 191.75 108.24 C 240.00 107.98 240.00 107.98 240.00 84.49 C 240.00 61.00 240.00 61.00 127.50 61.00 C 15.00 61.00 15.00 61.00 15.00 84.49 C 15.00 107.98 15.00 107.98 62.75 108.24 C 110.50 108.50 110.50 108.50 110.80 113.25 C 111.11 118.00 111.11 118.00 61.55 118.00 C 12.00 118.00 12.00 118.00 12.00 140.50 C 12.00 163.00 12.00 163.00 29.50 163.00 C 47.00 163.00 47.00 163.00 47.00 147.49 Z  M 67.80 49.25 C 68.10 43.00 68.10 43.00 127.50 43.00 C 186.90 43.00 186.90 43.00 187.20 49.25 C 187.50 55.50 187.50 55.50 204.25 55.77 C 221.00 56.05 221.00 56.05 221.00 49.52 C 221.00 43.00 221.00 43.00 234.00 43.00 C 247.00 43.00 247.00 43.00 247.00 36.50 C 247.00 30.00 247.00 30.00 234.00 30.00 C 221.00 30.00 221.00 30.00 221.00 25.50 C 221.00 21.00 221.00 21.00 204.00 21.00 C 187.00 21.00 187.00 21.00 187.00 25.50 C 187.00 30.00 187.00 30.00 127.50 30.00 C 68.00 30.00 68.00 30.00 68.00 25.50 C 68.00 21.00 68.00 21.00 51.00 21.00 C 34.00 21.00 34.00 21.00 34.00 25.50 C 34.00 30.00 34.00 30.00 21.00 30.00 C 8.00 30.00 8.00 30.00 8.00 36.50 C 8.00 43.00 8.00 43.00 21.00 43.00 C 34.00 43.00 34.00 43.00 34.00 49.52 C 34.00 56.05 34.00 56.05 50.75 55.77 C 67.50 55.50 67.50 55.50 67.80 49.25 Z  M 46.00 189.50 C 46.00 183.00 46.00 183.00 76.00 183.00 C 106.00 183.00 106.00 183.00 106.00 189.50 C 106.00 196.00 106.00 196.00 76.00 196.00 C 46.00 196.00 46.00 196.00 46.00 189.50 Z  M 140.20 189.75 C 140.50 183.50 140.50 183.50 174.25 183.24 C 208.00 182.97 208.00 182.97 208.00 189.49 C 208.00 196.00 208.00 196.00 173.95 196.00 C 139.90 196.00 139.90 196.00 140.20 189.75 Z  M 50.00 92.99 C 50.00 88.97 50.00 88.97 80.25 89.24 C 110.50 89.50 110.50 89.50 110.81 93.25 C 111.12 97.00 111.12 97.00 80.56 97.00 C 50.00 97.00 50.00 97.00 50.00 92.99 Z  M 143.19 93.25 C 143.50 89.50 143.50 89.50 174.25 89.24 C 205.00 88.97 205.00 88.97 205.00 92.99 C 205.00 97.00 205.00 97.00 173.94 97.00 C 142.88 97.00 142.88 97.00 143.19 93.25 Z  M 50.00 75.01 C 50.00 71.00 50.00 71.00 80.56 71.00 C 111.12 71.00 111.12 71.00 110.81 74.75 C 110.50 78.50 110.50 78.50 80.25 78.76 C 50.00 79.03 50.00 79.03 50.00 75.01 Z  M 143.67 78.33 C 143.30 77.97 143.00 76.17 143.00 74.33 C 143.00 71.00 143.00 71.00 174.00 71.00 C 205.00 71.00 205.00 71.00 205.00 75.00 C 205.00 79.00 205.00 79.00 174.67 79.00 C 157.98 79.00 144.03 78.70 143.67 78.33 Z "/>
</g>
</svg>