<?xml version="1.0" encoding="UTF-8" standalone="no"?>
<!DOCTYPE svg PUBLIC "-//W3C//DTD SVG 1.1//EN" "http://www.w3.org/Graphics/SVG/1.1/DTD/svg11.dtd" >
<svg xmlns="http://www.w3.org/2000/svg" xmlns:xlink="http://www.w3.org/1999/xlink" version="1.1" viewBox="0 0 256 256">
 <g >
 <path fill="currentColor"
d=" M 175.00 228.50 C 175.00 220.00 175.00 220.00 210.00 220.00 C 245.00 220.00 245.00 220.00 245.00 164.50 C 245.00 109.00 245.00 109.00 237.93 109.00 C 231.67 109.00 230.92 108.80 231.38 107.25 C 233.83 98.91 245.00 34.77 245.00 29.04 C 245.00 22.00 245.00 22.00 193.50 22.00 C 142.00 22.00 142.00 22.00 142.00 129.50 C 142.00 237.00 142.00 237.00 158.50 237.00 C 175.00 237.00 175.00 237.00 175.00 228.50 Z  M 85.00 200.00 C 85.00 164.00 85.00 164.00 106.00 164.00 C 127.00 164.00 127.00 164.00 127.00 156.50 C 127.00 149.00 127.00 149.00 106.00 149.00 C 85.00 149.00 85.00 149.00 85.00 126.50 C 85.00 104.00 85.00 104.00 106.00 104.00 C 127.00 104.00 127.00 104.00 127.00 97.00 C 127.00 90.00 127.00 90.00 106.00 90.00 C 85.00 90.00 85.00 90.00 85.00 67.00 C 85.00 44.00 85.00 44.00 106.00 44.00 C 127.00 44.00 127.00 44.00 127.00 37.00 C 127.00 30.00 127.00 30.00 106.00 30.00 C 85.00 30.00 85.00 30.00 85.00 25.50 C 85.00 21.00 85.00 21.00 67.50 21.00 C 50.00 21.00 50.00 21.00 50.00 25.50 C 50.00 30.00 50.00 30.00 29.00 30.00 C 8.00 30.00 8.00 30.00 8.00 37.00 C 8.00 44.00 8.00 44.00 29.02 44.00 C 50.04 44.00 50.04 44.00 49.77 66.75 C 49.50 89.50 49.50 89.50 28.75 89.77 C 8.00 90.04 8.00 90.04 8.00 97.00 C 8.00 103.96 8.00 103.96 28.75 104.23 C 49.50 104.50 49.50 104.50 49.77 126.75 C 50.04 149.00 50.04 149.00 29.02 149.00 C 8.00 149.00 8.00 149.00 8.00 156.50 C 8.00 164.00 8.00 164.00 29.00 164.00 C 50.00 164.00 50.00 164.00 50.00 192.50 C 50.00 221.00 50.00 221.00 29.00 221.00 C 8.00 221.00 8.00 221.00 8.00 228.50 C 8.00 236.00 8.00 236.00 46.50 236.00 C 85.00 236.00 85.00 236.00 85.00 200.00 Z  M 175.00 121.00 C 175.00 36.00 175.00 36.00 193.00 36.00 C 202.90 36.00 211.00 36.11 210.99 36.25 C 210.99 36.39 207.47 54.39 203.17 76.25 C 195.35 116.00 195.35 116.00 203.17 116.00 C 211.00 116.00 211.00 116.00 211.00 161.00 C 211.00 206.00 211.00 206.00 193.00 206.00 C 175.00 206.00 175.00 206.00 175.00 121.00 Z "/>
</g>
</svg>