<?xml version="1.0" encoding="UTF-8" standalone="no"?>
<!DOCTYPE svg PUBLIC "-//W3C//DTD SVG 1.1//EN" "http://www.w3.org/Graphics/SVG/1.1/DTD/svg11.dtd" >
<svg xmlns="http://www.w3.org/2000/svg" xmlns:xlink="http://www.w3.org/1999/xlink" version="1.1" viewBox="0 0 256 256">
 <g >
 <path fill="currentColor"
d=" M 43.00 149.00 C 43.00 61.00 43.00 61.00 27.00 61.00 C 11.00 61.00 11.00 61.00 11.00 149.00 C 11.00 237.00 11.00 237.00 27.00 237.00 C 43.00 237.00 43.00 237.00 43.00 149.00 Z  M 244.00 129.00 C 244.00 22.00 244.00 22.00 154.00 22.00 C 64.00 22.00 64.00 22.00 64.00 29.00 C 64.00 36.00 64.00 36.00 138.00 36.00 C 212.00 36.00 212.00 36.00 212.00 128.50 C 212.00 221.00 212.00 221.00 181.50 221.00 C 151.00 221.00 151.00 221.00 151.00 228.50 C 151.00 236.00 151.00 236.00 197.50 236.00 C 244.00 236.00 244.00 236.00 244.00 129.00 Z  M 86.00 167.25 C 86.01 147.04 86.30 125.42 86.66 119.21 C 87.31 107.92 87.31 107.92 94.41 108.21 C 101.50 108.50 101.50 108.50 101.76 149.25 C 102.02 190.00 102.02 190.00 98.01 190.00 C 94.00 190.00 94.00 190.00 94.00 197.00 C 94.00 204.00 94.00 204.00 109.51 204.00 C 125.02 204.00 125.02 204.00 124.76 148.75 C 124.50 93.50 124.50 93.50 105.75 93.23 C 87.00 92.96 87.00 92.96 87.00 84.48 C 87.00 76.00 87.00 76.00 106.50 76.00 C 126.00 76.00 126.00 76.00 126.00 69.00 C 126.00 62.00 126.00 62.00 115.00 62.00 C 104.00 62.00 104.00 62.00 104.00 57.50 C 104.00 53.00 104.00 53.00 92.06 53.00 C 80.11 53.00 80.11 53.00 79.81 57.25 C 79.50 61.50 79.50 61.50 67.75 61.78 C 56.00 62.06 56.00 62.06 56.00 69.03 C 56.00 76.00 56.00 76.00 60.61 76.00 C 65.22 76.00 65.22 76.00 64.63 89.75 C 64.30 97.31 63.74 122.96 63.39 146.75 C 62.76 190.00 62.76 190.00 59.88 190.00 C 57.00 190.00 57.00 190.00 57.00 197.00 C 57.00 204.00 57.00 204.00 71.50 204.00 C 86.00 204.00 86.00 204.00 86.00 167.25 Z  M 197.00 197.00 C 197.00 190.00 197.00 190.00 190.16 190.00 C 183.31 190.00 183.31 190.00 174.65 177.00 C 165.99 164.00 165.99 164.00 152.00 164.00 C 144.30 164.00 138.00 164.23 138.00 164.52 C 138.00 164.81 144.14 173.81 151.65 184.52 C 165.31 204.00 165.31 204.00 181.15 204.00 C 197.00 204.00 197.00 204.00 197.00 197.00 Z  M 197.00 150.00 C 197.00 143.00 197.00 143.00 190.07 143.00 C 183.15 143.00 183.15 143.00 174.73 130.75 C 166.32 118.50 166.32 118.50 152.16 118.22 C 144.37 118.07 138.00 118.22 138.00 118.56 C 138.00 118.90 144.12 127.69 151.59 138.09 C 165.18 157.00 165.18 157.00 181.09 157.00 C 197.00 157.00 197.00 157.00 197.00 150.00 Z  M 157.38 104.87 C 157.72 103.16 158.00 94.16 158.00 84.87 C 158.00 68.00 158.00 68.00 165.86 68.00 C 173.72 68.00 173.72 68.00 174.35 73.25 C 174.70 76.14 174.99 85.14 174.99 93.25 C 175.00 108.00 175.00 108.00 186.61 108.00 C 198.22 108.00 198.22 108.00 197.59 88.25 C 196.37 49.92 200.14 54.00 165.95 54.00 C 136.06 54.00 136.06 54.00 135.78 81.00 C 135.50 108.00 135.50 108.00 146.12 108.00 C 156.75 108.00 156.75 108.00 157.38 104.87 Z  M 50.00 35.00 C 50.00 23.00 50.00 23.00 32.00 23.00 C 14.00 23.00 14.00 23.00 14.00 35.00 C 14.00 47.00 14.00 47.00 32.00 47.00 C 50.00 47.00 50.00 47.00 50.00 35.00 Z "/>
</g>
</svg>