<?xml version="1.0" encoding="UTF-8" standalone="no"?>
<!DOCTYPE svg PUBLIC "-//W3C//DTD SVG 1.1//EN" "http://www.w3.org/Graphics/SVG/1.1/DTD/svg11.dtd" >
<svg xmlns="http://www.w3.org/2000/svg" xmlns:xlink="http://www.w3.org/1999/xlink" version="1.1" viewBox="0 0 249 256">
 <g >
 <path fill="currentColor"
d=" M 122.61 230.52 C 134.35 227.04 145.56 216.47 154.96 200.01 C 159.51 192.05 161.66 189.12 162.23 190.11 C 174.83 211.67 178.61 216.48 188.47 223.51 C 196.46 229.22 201.57 231.00 209.92 231.00 C 218.85 231.00 226.20 226.85 229.83 219.75 C 233.39 212.80 233.88 203.14 231.09 194.88 C 229.91 191.37 228.29 187.65 227.51 186.61 C 226.14 184.81 226.03 184.84 224.84 187.44 C 223.34 190.74 217.30 194.00 212.70 194.00 C 207.05 194.00 199.93 191.31 192.91 186.51 C 186.47 182.11 179.99 174.68 181.38 173.29 C 181.75 172.92 187.80 172.59 194.82 172.56 C 208.81 172.49 210.79 173.12 216.05 179.29 C 218.59 182.27 218.59 182.27 221.45 178.89 C 228.20 170.89 230.01 160.29 225.73 153.92 C 222.86 149.67 217.84 146.25 213.14 145.36 C 209.96 144.75 193.45 145.87 178.71 147.68 C 173.91 148.27 173.91 148.27 174.21 140.39 C 174.50 132.50 174.50 132.50 178.18 132.19 C 184.36 131.68 189.85 133.70 192.04 137.30 C 193.11 139.06 194.16 140.95 194.37 141.50 C 194.90 142.91 201.64 136.29 202.98 133.05 C 204.07 130.42 204.31 130.36 212.30 130.43 C 219.77 130.49 220.94 130.23 225.50 127.42 C 233.90 122.26 236.98 115.90 236.99 103.77 C 237.00 97.04 237.00 97.04 232.30 100.02 C 229.34 101.90 226.30 102.99 224.05 102.98 C 220.44 102.97 212.95 99.41 212.29 97.39 C 212.07 96.73 214.48 95.77 218.19 95.04 C 228.32 93.05 234.55 88.98 236.88 82.84 C 239.11 76.93 233.83 67.19 226.62 63.91 C 220.68 61.22 219.26 61.41 219.76 64.82 C 220.05 66.80 219.42 68.54 217.61 70.68 C 214.36 74.55 204.46 79.86 203.08 78.48 C 201.31 76.71 198.99 64.93 200.32 64.49 C 200.97 64.27 203.52 63.58 205.98 62.95 C 217.83 59.91 225.00 53.73 225.00 46.57 C 225.00 40.65 221.75 36.14 215.07 32.75 C 207.55 28.94 206.00 29.09 206.00 33.62 C 206.00 36.49 205.20 38.04 202.12 41.12 C 199.98 43.25 197.79 45.00 197.24 45.00 C 196.69 45.00 195.67 43.54 194.96 41.75 C 191.94 34.07 184.67 28.00 178.51 28.00 C 175.37 28.00 169.26 30.47 166.65 32.79 C 163.65 35.45 161.04 42.05 161.04 47.00 C 161.03 51.86 162.26 55.00 163.43 53.11 C 164.85 50.82 168.98 51.92 170.92 55.11 C 173.08 58.67 176.15 70.30 178.47 83.77 C 179.35 88.87 180.93 95.81 181.98 99.20 C 183.04 102.58 183.67 105.72 183.39 106.18 C 183.11 106.63 180.91 107.00 178.49 107.00 C 176.08 107.00 168.02 108.57 160.57 110.50 C 152.25 112.65 144.66 114.00 140.89 114.00 C 134.75 114.00 134.75 114.00 138.66 109.75 C 140.81 107.41 144.71 101.09 147.33 95.71 C 165.78 57.73 161.95 32.00 137.84 32.00 C 133.06 32.00 128.45 33.07 118.05 36.61 C 106.76 40.45 103.92 41.07 101.00 40.36 C 98.00 39.62 97.46 39.04 97.19 36.25 C 96.82 32.41 95.76 32.25 90.79 35.26 C 77.93 43.04 76.97 60.92 89.07 67.31 C 91.73 68.72 94.07 69.03 99.50 68.71 C 107.17 68.25 110.29 67.08 119.93 61.03 C 123.47 58.81 127.62 57.00 129.15 57.00 C 134.13 57.00 134.96 61.97 131.23 69.50 C 130.41 71.15 129.63 72.64 129.49 72.80 C 129.34 72.97 127.71 72.19 125.86 71.06 C 122.13 68.78 114.92 68.32 110.32 70.06 C 106.87 71.37 102.30 75.57 100.41 79.20 C 98.60 82.66 98.48 90.38 100.25 89.65 C 106.91 86.89 108.70 86.77 113.35 88.83 C 115.91 89.96 118.00 91.55 118.00 92.36 C 118.00 94.50 111.17 99.57 106.35 101.01 C 99.05 103.20 92.97 100.53 89.20 93.50 C 87.36 90.07 84.52 98.00 84.51 106.58 C 84.50 112.71 84.90 114.31 87.52 118.53 C 91.49 124.96 98.86 129.00 106.61 129.00 C 110.68 129.00 112.00 129.36 112.00 130.47 C 112.00 132.48 117.69 138.79 121.10 140.55 C 125.04 142.59 133.05 142.35 139.74 140.00 C 142.87 138.90 145.80 138.00 146.26 138.00 C 146.71 138.00 146.96 141.25 146.79 145.23 C 146.50 152.46 146.50 152.46 139.50 153.63 C 135.65 154.28 128.90 155.09 124.50 155.44 C 114.06 156.27 111.62 155.13 111.19 149.22 C 110.90 145.19 110.76 145.02 108.19 145.62 C 104.04 146.60 99.37 149.75 95.68 154.06 C 88.92 161.96 88.56 171.53 94.79 177.58 C 100.56 183.19 108.21 184.25 123.42 181.58 C 127.86 180.80 133.20 179.92 135.28 179.64 C 139.07 179.11 139.07 179.11 134.28 183.50 C 127.28 189.92 120.90 193.11 113.79 193.75 C 106.63 194.40 102.40 192.63 99.54 187.80 C 97.72 184.72 97.72 184.72 95.88 187.11 C 93.61 190.07 91.22 197.02 90.40 203.06 C 87.80 222.20 104.04 236.04 122.61 230.52 Z  M 30.15 193.42 C 32.27 192.33 36.35 191.79 43.38 191.67 C 52.75 191.51 54.08 191.23 60.49 188.08 C 77.74 179.59 85.48 164.75 85.29 140.50 C 85.00 101.29 67.77 82.70 38.01 89.50 C 27.56 91.88 24.39 90.61 29.08 85.92 C 31.87 83.13 31.09 82.66 25.03 83.50 C 18.78 84.36 11.42 89.11 8.78 94.00 C 6.29 98.60 6.96 104.31 10.42 107.92 C 12.95 110.56 13.00 110.88 13.00 125.19 C 13.00 142.72 11.32 173.29 9.93 181.24 C 8.74 187.96 9.56 190.15 14.31 193.05 C 18.24 195.44 25.90 195.62 30.15 193.42 Z  M 35.00 161.25 C 35.00 152.50 35.00 152.50 42.25 152.79 C 48.14 153.02 50.11 152.69 52.77 151.04 C 58.64 147.39 59.66 139.72 55.41 131.20 C 52.63 125.61 51.50 124.86 50.51 127.97 C 49.42 131.42 45.09 134.00 40.42 134.00 C 38.06 134.00 35.85 133.56 35.52 133.03 C 35.19 132.50 34.65 127.59 34.31 122.13 C 33.71 112.19 33.71 112.19 40.27 111.49 C 51.85 110.25 57.37 113.85 60.71 124.82 C 62.76 131.53 62.98 147.26 61.12 153.81 C 58.65 162.47 48.12 170.00 38.46 170.00 C 35.00 170.00 35.00 170.00 35.00 161.25 Z "/>
</g>
</svg>