<?xml version="1.0" encoding="UTF-8" standalone="no"?>
<!DOCTYPE svg PUBLIC "-//W3C//DTD SVG 1.1//EN" "http://www.w3.org/Graphics/SVG/1.1/DTD/svg11.dtd" >
<svg xmlns="http://www.w3.org/2000/svg" xmlns:xlink="http://www.w3.org/1999/xlink" version="1.1" viewBox="0 0 243 256">
 <g >
 <path fill="currentColor"
d=" M 165.66 238.92 C 172.28 235.72 177.95 227.61 180.64 217.50 C 182.50 210.53 182.40 182.33 180.42 156.50 C 178.68 133.74 178.93 131.40 183.44 128.45 C 185.47 127.12 186.57 127.00 189.03 127.86 C 191.53 128.73 192.20 128.65 192.68 127.40 C 193.78 124.53 192.07 115.80 189.57 111.53 C 180.81 96.59 163.12 94.76 153.29 107.79 C 147.22 115.84 146.56 122.61 148.87 152.82 C 150.59 175.28 149.97 202.72 147.61 209.12 C 145.13 215.82 142.11 218.32 137.07 217.83 C 133.10 217.46 133.00 217.53 133.00 220.54 C 133.00 222.25 134.24 226.08 135.75 229.07 C 141.15 239.73 154.74 244.21 165.66 238.92 Z  M 62.87 235.24 C 66.76 233.41 71.49 227.33 73.08 222.11 C 75.01 215.78 75.36 187.71 73.66 176.51 C 72.82 171.02 72.31 166.36 72.52 166.15 C 72.73 165.94 74.44 166.73 76.33 167.89 C 80.41 170.42 82.49 174.82 81.62 179.13 C 81.00 182.26 81.00 182.26 85.09 181.60 C 95.64 179.91 102.35 172.92 102.14 163.82 C 101.94 154.81 96.01 148.45 85.47 145.92 C 82.74 145.26 79.94 144.58 79.26 144.40 C 78.44 144.18 79.20 142.12 81.52 138.28 C 85.51 131.71 90.45 117.23 92.21 107.00 C 93.22 101.06 93.16 99.34 91.72 94.79 C 88.55 84.77 80.44 78.07 71.41 78.02 C 67.18 78.00 58.83 80.49 52.97 83.51 C 48.95 85.60 42.12 85.63 38.16 83.58 C 34.85 81.87 32.55 77.16 33.24 73.51 C 33.63 71.47 33.33 71.00 31.61 71.02 C 28.20 71.06 21.76 74.44 18.13 78.10 C 13.33 82.94 11.05 88.46 11.02 95.28 C 10.98 105.76 15.11 112.11 23.57 114.56 C 29.24 116.21 32.71 115.77 43.20 112.04 C 52.48 108.75 57.34 112.07 54.66 119.86 C 49.35 135.27 38.22 141.11 28.99 133.34 C 27.31 131.92 25.26 129.16 24.44 127.21 C 22.96 123.65 22.96 123.65 19.49 127.01 C 12.68 133.61 11.17 144.55 15.82 153.62 C 19.22 160.27 26.58 165.27 34.91 166.60 C 39.00 167.26 39.00 167.26 39.00 179.38 C 38.99 186.06 38.27 195.54 37.39 200.50 C 34.65 215.88 34.49 223.09 36.79 227.59 C 39.30 232.50 41.84 234.81 46.68 236.59 C 51.07 238.20 57.76 237.64 62.87 235.24 Z  M 123.42 212.91 C 132.52 206.68 135.11 196.87 134.93 169.18 C 134.79 146.21 135.28 144.00 140.48 144.00 C 143.74 144.00 144.00 143.77 144.00 140.95 C 144.00 136.72 141.65 132.60 137.40 129.35 C 134.54 127.18 132.68 126.59 128.48 126.55 C 121.21 126.48 115.65 130.38 111.51 138.47 C 108.65 144.05 108.50 144.97 108.50 156.43 C 108.50 163.07 108.72 172.78 108.99 178.00 C 109.70 191.56 106.95 197.17 101.39 193.52 C 98.17 191.41 98.00 191.52 98.01 195.75 C 98.02 204.24 102.20 211.81 108.45 214.65 C 112.58 216.52 119.29 215.74 123.42 212.91 Z  M 222.58 214.10 C 224.82 213.08 227.60 211.05 228.75 209.59 C 231.21 206.46 233.27 197.92 232.40 194.46 C 231.81 192.12 231.71 192.10 228.77 193.62 C 225.91 195.10 225.62 195.06 223.62 193.06 C 221.59 191.04 221.50 190.01 221.50 169.72 C 221.50 148.50 221.50 148.50 218.51 143.11 C 214.30 135.49 209.46 132.50 201.39 132.50 C 195.80 132.50 194.79 132.82 191.98 135.50 C 188.36 138.94 186.54 142.12 185.54 146.75 C 184.84 149.99 184.86 150.00 188.80 150.00 C 195.34 150.00 195.50 150.58 195.50 174.41 C 195.50 193.90 195.66 195.85 197.65 200.10 C 201.72 208.81 209.92 215.88 216.00 215.93 C 217.38 215.95 220.34 215.12 222.58 214.10 Z  M 128.77 112.45 C 136.90 109.06 141.35 101.66 142.95 88.93 C 143.52 84.35 144.38 80.22 144.84 79.76 C 145.31 79.29 157.35 78.64 171.60 78.30 C 197.50 77.70 197.50 77.70 200.75 80.44 C 202.54 81.95 204.00 84.06 204.00 85.14 C 204.00 88.17 201.25 92.79 199.02 93.49 C 196.49 94.30 195.31 93.55 192.97 89.70 C 191.09 86.62 191.09 86.62 189.91 89.56 C 186.72 97.50 189.56 106.71 196.53 111.02 C 208.29 118.29 225.29 110.86 229.52 96.61 C 231.52 89.87 231.43 76.61 229.33 70.46 C 227.03 63.71 220.06 56.92 212.44 54.02 C 205.40 51.34 200.80 51.21 172.05 52.80 C 160.80 53.43 151.43 53.76 151.22 53.55 C 150.38 52.72 154.87 44.34 157.58 41.66 C 160.08 39.19 160.97 38.90 164.36 39.44 C 168.27 40.07 168.27 40.07 167.61 35.94 C 166.33 27.94 159.95 19.45 153.32 16.93 C 144.93 13.74 132.33 17.75 127.17 25.25 C 123.76 30.22 119.37 45.28 115.51 65.30 C 112.95 78.57 111.71 82.56 109.28 85.25 C 107.56 87.14 101.52 87.66 100.50 86.00 C 100.16 85.45 99.40 85.00 98.80 85.00 C 96.74 85.00 98.62 96.53 101.57 101.95 C 106.87 111.69 119.20 116.45 128.77 112.45 Z  M 65.38 74.04 C 66.76 73.52 68.66 71.93 69.59 70.51 C 71.21 68.03 71.18 67.74 68.64 63.08 C 65.15 56.67 65.15 51.81 68.63 49.07 C 70.08 47.93 72.05 47.00 73.00 47.00 C 75.28 47.00 80.00 50.76 80.00 52.57 C 80.00 55.30 81.71 53.97 83.60 49.77 C 88.52 38.83 82.98 25.23 71.68 20.51 C 66.17 18.21 55.97 17.47 50.58 18.98 C 37.91 22.52 30.39 37.51 34.38 51.24 C 36.74 59.36 41.57 65.93 48.00 69.78 C 56.14 74.64 60.80 75.79 65.38 74.04 Z "/>
</g>
</svg>