<?xml version="1.0" encoding="UTF-8" standalone="no"?>
<!DOCTYPE svg PUBLIC "-//W3C//DTD SVG 1.1//EN" "http://www.w3.org/Graphics/SVG/1.1/DTD/svg11.dtd" >
<svg xmlns="http://www.w3.org/2000/svg" xmlns:xlink="http://www.w3.org/1999/xlink" version="1.1" viewBox="0 0 248 256">
 <g >
 <path fill="currentColor"
d=" M 51.76 232.02 C 54.32 230.86 56.81 228.75 58.02 226.70 C 60.02 223.30 60.02 223.30 69.76 222.68 C 90.28 221.38 105.70 214.41 110.57 204.24 C 114.24 196.59 114.20 186.44 110.48 178.60 C 109.63 176.81 106.60 173.00 103.75 170.14 C 99.51 165.87 97.32 164.55 91.65 162.82 C 85.42 160.93 83.24 160.79 70.11 161.37 C 62.07 161.73 53.02 162.29 49.99 162.62 C 45.46 163.10 44.05 162.86 42.11 161.29 C 40.07 159.64 39.90 159.05 40.90 157.18 C 41.67 155.75 43.02 155.00 44.82 155.00 C 46.33 155.00 50.02 154.32 53.03 153.50 C 73.84 147.77 81.76 146.04 84.50 146.60 C 87.97 147.32 91.00 149.69 91.00 151.69 C 91.00 154.11 94.54 151.41 97.78 146.52 C 101.78 140.48 102.72 134.11 100.32 129.28 C 97.79 124.21 94.30 121.98 87.94 121.38 C 82.10 120.84 78.05 121.78 64.18 126.92 C 51.25 131.70 44.04 130.79 45.24 124.51 C 45.85 121.33 43.55 121.17 37.99 124.01 C 29.25 128.46 23.97 137.04 25.55 144.22 C 25.92 145.90 28.12 149.17 30.44 151.49 C 34.67 155.72 34.67 155.72 31.40 156.90 C 29.61 157.55 26.76 159.65 25.07 161.57 C 20.75 166.49 20.77 172.68 25.14 179.55 C 28.27 184.50 28.27 184.50 27.04 203.73 C 25.85 222.08 25.89 223.12 27.70 226.23 C 31.91 233.44 42.85 236.07 51.76 232.02 Z  M 184.77 231.45 C 189.23 229.59 192.66 226.53 194.72 222.57 C 196.01 220.07 196.15 216.18 195.60 196.57 C 195.24 183.88 194.67 170.17 194.34 166.09 C 193.74 158.69 193.74 158.69 204.81 159.27 C 218.66 160.00 224.47 162.18 225.75 167.10 C 226.59 170.36 226.59 170.36 230.86 166.51 C 237.10 160.87 238.37 157.84 238.44 148.43 C 238.49 141.13 238.24 140.02 235.76 136.76 C 234.20 134.71 230.52 131.93 227.26 130.33 C 221.73 127.61 220.91 127.50 206.75 127.50 C 192.00 127.50 192.00 127.50 192.00 118.40 C 192.00 113.40 191.71 105.19 191.35 100.15 C 190.70 91.00 190.70 91.00 197.53 91.00 C 209.63 91.00 220.00 95.17 220.00 100.04 C 220.00 103.11 221.99 102.37 226.54 97.62 C 231.45 92.49 233.49 85.90 232.78 77.42 C 231.97 67.56 224.20 61.10 210.62 58.99 C 202.48 57.72 191.60 58.73 170.26 62.70 C 162.43 64.16 155.73 65.06 155.37 64.70 C 155.01 64.34 155.31 61.23 156.04 57.77 C 157.70 49.93 161.48 45.55 166.03 46.22 C 169.60 46.74 169.82 45.37 167.11 39.50 C 162.69 29.93 152.30 25.85 140.62 29.09 C 135.65 30.47 127.90 38.18 126.13 43.50 C 125.40 45.70 124.45 54.70 124.03 63.50 C 123.20 80.87 121.97 86.66 118.26 90.67 C 116.07 93.02 115.35 93.21 110.43 92.70 C 105.00 92.14 105.00 92.14 105.00 95.60 C 105.00 106.71 114.93 116.02 126.71 115.98 C 137.05 115.94 146.74 109.46 151.50 99.41 C 153.23 95.75 154.65 94.00 155.90 94.00 C 158.27 94.00 158.69 96.77 159.58 118.10 C 160.39 137.49 161.71 135.70 145.89 136.68 C 136.97 137.23 136.12 137.12 134.14 135.14 C 132.67 133.67 132.00 131.75 132.00 129.00 C 132.00 124.51 131.05 124.11 125.69 126.36 C 117.92 129.60 111.04 140.37 110.28 150.48 C 109.12 165.84 122.23 173.71 140.07 168.38 C 143.06 167.48 148.82 165.96 152.88 164.98 C 160.27 163.21 160.27 163.21 159.71 183.36 C 159.41 194.44 158.60 207.38 157.91 212.12 C 156.75 220.17 156.80 221.00 158.67 224.62 C 161.54 230.18 166.91 232.96 174.78 232.98 C 178.24 232.99 182.73 232.30 184.77 231.45 Z  M 61.10 114.51 C 84.07 107.84 89.12 107.66 90.58 113.47 C 90.93 114.86 91.60 116.00 92.06 116.00 C 94.06 116.00 99.96 106.53 101.08 101.54 C 102.13 96.84 102.05 95.77 100.38 92.36 C 97.56 86.57 91.35 83.68 83.50 84.50 C 80.20 84.84 74.58 86.43 71.00 88.04 C 63.60 91.37 57.35 92.94 51.37 92.98 C 46.60 93.00 44.54 91.17 45.24 87.51 C 45.81 84.52 44.56 84.32 39.22 86.55 C 27.08 91.61 21.68 106.65 29.40 113.91 C 35.69 119.82 42.37 119.94 61.10 114.51 Z  M 55.50 78.42 C 73.39 73.27 86.56 71.74 93.60 73.99 C 97.83 75.35 103.00 79.58 103.00 81.69 C 103.00 84.26 104.99 82.92 108.87 77.75 C 116.23 67.93 116.70 59.99 110.32 52.93 C 105.48 47.57 98.45 45.50 88.24 46.43 C 80.83 47.10 80.83 47.10 81.67 44.80 C 83.17 40.66 82.57 34.24 80.41 31.35 C 77.01 26.80 73.67 24.94 66.78 23.75 C 58.28 22.30 53.39 23.65 48.97 28.69 C 45.46 32.69 45.51 31.84 47.62 51.25 C 48.25 57.00 48.25 57.00 44.77 57.00 C 37.22 57.00 31.93 52.96 33.64 48.51 C 34.08 47.36 33.46 47.00 31.07 47.00 C 24.09 47.00 14.68 54.84 13.39 61.73 C 10.94 74.79 20.38 84.78 34.00 83.53 C 37.02 83.25 46.70 80.95 55.50 78.42 Z  M 58.67 197.88 C 58.31 196.57 58.02 193.66 58.01 191.40 C 58.00 187.30 58.00 187.30 69.14 186.62 C 78.79 186.04 80.53 186.17 82.14 187.63 C 87.56 192.53 79.55 198.73 66.53 199.72 C 59.55 200.25 59.28 200.18 58.67 197.88 Z "/>
</g>
</svg>