<?xml version="1.0" encoding="UTF-8" standalone="no"?>
<!DOCTYPE svg PUBLIC "-//W3C//DTD SVG 1.1//EN" "http://www.w3.org/Graphics/SVG/1.1/DTD/svg11.dtd" >
<svg xmlns="http://www.w3.org/2000/svg" xmlns:xlink="http://www.w3.org/1999/xlink" version="1.1" viewBox="0 0 256 256">
 <g >
 <path fill="currentColor"
d=" M 72.47 224.56 C 78.98 221.37 84.36 215.61 87.83 208.12 C 89.94 203.54 90.49 200.65 90.80 192.50 C 91.00 187.00 90.78 181.47 90.30 180.22 C 89.46 178.00 89.35 178.04 86.47 181.89 C 80.94 189.27 74.77 191.06 71.07 186.37 C 67.34 181.62 68.44 170.58 74.78 149.00 C 78.03 137.96 78.46 135.21 78.48 125.43 C 78.50 115.07 78.33 114.10 75.82 110.30 C 70.50 102.26 61.04 100.18 47.24 104.00 C 35.12 107.36 32.76 106.54 31.56 98.55 C 31.18 96.05 30.44 94.00 29.91 94.00 C 27.36 94.00 21.12 97.47 17.67 100.80 C 9.56 108.62 7.09 118.68 11.02 127.83 C 14.92 136.89 21.43 140.03 31.01 137.49 C 37.71 135.70 42.20 135.60 43.80 137.20 C 45.80 139.20 45.16 147.16 42.04 159.17 C 35.69 183.65 34.17 200.98 37.51 211.03 C 39.60 217.33 46.98 225.33 52.15 226.91 C 57.46 228.54 66.47 227.50 72.47 224.56 Z  M 67.50 90.14 C 72.74 87.75 74.21 85.84 73.82 81.86 C 73.57 79.33 72.48 77.81 69.00 75.20 C 63.10 70.75 61.28 67.16 62.92 63.20 C 65.20 57.70 72.43 56.34 76.69 60.60 C 79.30 63.21 79.30 63.21 78.75 57.17 C 78.07 49.63 73.92 41.68 68.68 37.88 C 58.10 30.21 39.99 32.53 31.04 42.69 C 21.03 54.07 21.82 71.80 32.79 82.00 C 40.61 89.26 46.98 92.00 55.95 91.98 C 61.08 91.96 64.78 91.37 67.50 90.14 Z "/>
</g>
</svg>