<?xml version="1.0" encoding="UTF-8" standalone="no"?>
<!DOCTYPE svg PUBLIC "-//W3C//DTD SVG 1.1//EN" "http://www.w3.org/Graphics/SVG/1.1/DTD/svg11.dtd" >
<svg xmlns="http://www.w3.org/2000/svg" xmlns:xlink="http://www.w3.org/1999/xlink" version="1.1" viewBox="0 0 256 256">
 <g >
 <path fill="currentColor"
d=" M 245.00 218.50 C 245.00 194.00 245.00 194.00 162.50 194.00 C 80.00 194.00 80.00 194.00 80.00 218.50 C 80.00 243.00 80.00 243.00 162.50 243.00 C 245.00 243.00 245.00 243.00 245.00 218.50 Z  M 45.50 203.99 C 58.15 201.25 69.51 198.77 70.75 198.48 C 72.75 198.02 73.00 197.34 73.00 192.48 C 73.00 187.00 73.00 187.00 90.00 187.00 C 105.37 187.00 107.00 186.84 107.00 185.29 C 107.00 183.08 100.98 148.78 100.44 147.90 C 100.22 147.54 97.21 147.85 93.77 148.59 C 90.32 149.32 87.16 149.95 86.75 149.96 C 86.34 149.98 86.00 140.10 86.00 128.00 C 86.00 106.00 86.00 106.00 94.50 106.00 C 103.00 106.00 103.00 106.00 103.00 82.00 C 103.00 58.00 103.00 58.00 94.00 58.00 C 85.00 58.00 85.00 58.00 85.00 36.50 C 85.00 15.00 85.00 15.00 61.52 15.00 C 38.04 15.00 38.04 15.00 37.77 36.25 C 37.50 57.50 37.50 57.50 24.75 57.78 C 12.00 58.06 12.00 58.06 12.00 82.03 C 12.00 106.00 12.00 106.00 25.00 106.00 C 38.00 106.00 38.00 106.00 38.00 130.98 C 38.00 155.96 38.00 155.96 35.75 156.49 C 34.51 156.78 27.91 158.15 21.08 159.52 C 14.24 160.89 8.51 162.16 8.33 162.34 C 8.07 162.60 15.37 198.75 17.51 207.76 C 17.92 209.50 18.56 209.91 20.27 209.50 C 21.50 209.21 32.85 206.73 45.50 203.99 Z  M 234.00 103.50 C 234.00 24.00 234.00 24.00 165.50 24.00 C 97.00 24.00 97.00 24.00 97.00 37.00 C 97.00 50.00 97.00 50.00 104.00 50.00 C 111.00 50.00 111.00 50.00 111.00 81.50 C 111.00 113.00 111.00 113.00 104.00 113.00 C 97.00 113.00 97.00 113.00 97.00 127.00 C 97.00 142.26 96.69 141.61 103.26 140.08 C 105.32 139.60 107.20 139.52 107.44 139.90 C 107.67 140.28 109.58 150.13 111.68 161.80 C 115.49 183.00 115.49 183.00 174.74 183.00 C 234.00 183.00 234.00 183.00 234.00 103.50 Z  M 144.21 133.25 C 144.50 124.50 144.50 124.50 164.75 124.23 C 185.00 123.96 185.00 123.96 185.00 132.98 C 185.00 142.00 185.00 142.00 164.46 142.00 C 143.92 142.00 143.92 142.00 144.21 133.25 Z  M 144.00 78.50 C 144.00 70.00 144.00 70.00 164.50 70.00 C 185.00 70.00 185.00 70.00 185.00 78.50 C 185.00 87.00 185.00 87.00 164.50 87.00 C 144.00 87.00 144.00 87.00 144.00 78.50 Z "/>
</g>
</svg>