<?xml version="1.0" encoding="UTF-8" standalone="no"?>
<!DOCTYPE svg PUBLIC "-//W3C//DTD SVG 1.1//EN" "http://www.w3.org/Graphics/SVG/1.1/DTD/svg11.dtd" >
<svg xmlns="http://www.w3.org/2000/svg" xmlns:xlink="http://www.w3.org/1999/xlink" version="1.1" viewBox="0 0 256 256">
 <g >
 <path fill="currentColor"
d=" M 226.63 244.75 C 228.10 241.86 232.36 233.07 236.10 225.20 C 242.91 210.91 242.91 210.91 235.21 207.37 C 230.97 205.43 225.70 203.11 223.50 202.23 C 218.42 200.19 210.00 195.08 210.00 194.03 C 210.00 193.59 215.15 188.57 221.45 182.87 C 232.90 172.50 232.90 172.50 219.71 159.25 C 212.46 151.96 206.22 146.00 205.85 146.00 C 205.48 146.00 199.62 150.34 192.84 155.65 C 186.05 160.96 179.99 165.69 179.36 166.18 C 178.15 167.12 171.68 162.40 172.21 160.96 C 172.58 159.97 205.02 134.00 205.89 134.00 C 206.24 134.00 211.47 138.95 217.50 145.00 C 228.47 156.00 228.47 156.00 235.73 156.00 C 243.00 156.00 243.00 156.00 243.00 134.00 C 243.00 112.00 243.00 112.00 223.22 112.00 C 203.44 112.00 203.44 112.00 198.06 122.25 C 195.10 127.89 192.56 132.66 192.40 132.86 C 191.94 133.44 143.00 109.73 143.00 108.93 C 143.00 108.53 144.12 106.25 145.49 103.85 C 147.73 99.93 147.98 98.39 147.99 88.30 C 148.00 77.11 148.00 77.11 152.66 76.80 C 157.31 76.50 157.31 76.50 163.99 63.75 C 167.66 56.74 170.91 50.75 171.22 50.44 C 171.53 50.14 182.61 54.94 195.84 61.11 C 217.00 70.99 219.78 72.55 218.95 74.10 C 218.43 75.07 218.00 76.12 218.00 76.43 C 218.00 76.75 222.50 77.00 228.00 77.00 C 238.00 77.00 238.00 77.00 238.00 52.51 C 238.00 28.02 238.00 28.02 193.25 27.76 C 148.50 27.50 148.50 27.50 148.21 19.25 C 147.92 11.00 147.92 11.00 125.50 11.00 C 103.08 11.00 103.08 11.00 102.79 19.25 C 102.50 27.50 102.50 27.50 58.25 27.76 C 14.00 28.02 14.00 28.02 14.00 52.61 C 14.00 77.19 14.00 77.19 23.25 76.80 C 32.50 76.41 32.50 76.41 54.86 63.12 C 67.16 55.81 77.59 50.20 78.04 50.66 C 78.49 51.12 82.17 57.12 86.23 64.00 C 93.60 76.50 93.60 76.50 98.30 76.80 C 103.00 77.11 103.00 77.11 103.00 85.16 C 103.00 92.85 103.20 93.57 107.50 101.21 C 109.98 105.61 112.00 109.55 112.00 109.95 C 112.00 111.37 63.79 136.29 63.14 135.21 C 62.79 134.63 59.80 129.17 56.50 123.08 C 50.50 112.01 50.50 112.01 30.75 112.01 C 11.00 112.00 11.00 112.00 11.00 134.00 C 11.00 156.00 11.00 156.00 27.00 156.00 C 43.00 156.00 43.00 156.00 43.00 174.37 C 43.00 184.48 42.71 194.19 42.36 195.95 C 42.01 197.71 40.20 200.76 38.35 202.73 C 34.98 206.30 34.98 206.30 40.61 224.40 C 43.71 234.36 46.53 242.78 46.87 243.13 C 47.53 243.78 127.61 225.72 128.65 224.69 C 129.09 224.24 120.35 184.34 119.57 183.29 C 119.42 183.08 96.48 189.08 92.14 190.45 C 90.01 191.13 90.00 191.07 90.00 173.57 C 90.00 156.00 90.00 156.00 102.31 156.00 C 114.61 156.00 114.61 156.00 118.06 163.23 C 123.55 174.76 142.00 201.68 149.90 209.69 C 159.54 219.48 167.31 224.80 183.10 232.45 C 192.97 237.23 220.41 249.04 223.73 249.94 C 223.86 249.97 225.17 247.64 226.63 244.75 Z  M 84.10 116.89 C 93.40 111.88 101.00 107.29 101.00 106.70 C 101.00 104.11 76.43 63.00 73.97 61.48 C 73.27 61.05 43.09 77.62 41.20 79.48 C 41.03 79.64 43.90 84.65 47.59 90.60 C 51.27 96.56 56.93 106.96 60.18 113.71 C 63.43 120.47 66.34 126.00 66.64 126.00 C 66.95 126.00 74.81 121.90 84.10 116.89 Z  M 198.76 104.25 C 207.81 85.66 211.27 77.94 210.76 77.43 C 210.62 77.29 202.65 73.46 193.05 68.94 C 182.05 63.75 175.45 61.14 175.21 61.88 C 174.99 62.52 170.13 72.43 164.41 83.90 C 158.68 95.37 154.00 105.19 154.00 105.72 C 154.00 106.53 187.40 122.98 189.06 123.00 C 189.37 123.00 193.74 114.56 198.76 104.25 Z "/>
</g>
</svg>