<?xml version="1.0" encoding="UTF-8" standalone="no"?>
<!DOCTYPE svg PUBLIC "-//W3C//DTD SVG 1.1//EN" "http://www.w3.org/Graphics/SVG/1.1/DTD/svg11.dtd" >
<svg xmlns="http://www.w3.org/2000/svg" xmlns:xlink="http://www.w3.org/1999/xlink" version="1.1" viewBox="0 0 256 256">
 <g >
 <path fill="currentColor"
d=" M 232.92 231.63 C 239.14 221.46 244.21 212.80 244.20 212.39 C 244.18 211.98 236.82 208.21 227.83 204.01 C 199.07 190.56 172.82 175.25 146.63 156.65 C 139.54 151.62 133.56 147.60 133.33 147.71 C 132.61 148.08 108.01 179.47 108.03 180.00 C 108.04 180.28 111.07 182.64 114.77 185.26 C 121.50 190.03 121.50 190.03 129.00 189.32 C 142.69 188.02 141.38 187.25 142.37 197.21 C 143.23 205.92 143.23 205.92 171.37 222.71 C 199.94 239.75 220.05 250.97 221.06 250.42 C 221.36 250.26 226.70 241.80 232.92 231.63 Z  M 95.44 241.97 C 118.51 239.76 137.58 237.76 137.82 237.52 C 138.50 236.83 135.78 196.98 135.01 196.51 C 134.63 196.27 126.04 196.96 115.91 198.04 C 105.79 199.11 97.39 200.00 97.25 200.00 C 97.11 200.00 97.00 192.12 97.00 182.50 C 97.00 165.00 97.00 165.00 103.84 165.00 C 110.68 165.00 110.68 165.00 121.40 151.42 C 128.05 143.00 132.63 138.03 133.45 138.34 C 134.18 138.62 142.71 144.73 152.40 151.93 C 170.02 165.00 170.02 165.00 205.51 165.00 C 241.00 165.00 241.00 165.00 241.00 145.00 C 241.00 125.00 241.00 125.00 169.02 125.00 C 97.05 125.00 97.05 125.00 96.77 107.25 C 96.50 89.50 96.50 89.50 74.75 89.23 C 53.00 88.96 53.00 88.96 53.00 80.98 C 53.00 73.00 53.00 73.00 50.00 73.00 C 47.00 73.00 47.00 73.00 47.00 99.00 C 47.00 125.00 47.00 125.00 28.50 125.00 C 10.00 125.00 10.00 125.00 10.00 145.00 C 10.00 165.00 10.00 165.00 28.50 165.00 C 47.00 165.00 47.00 165.00 47.00 183.55 C 47.00 201.61 46.94 202.15 44.69 204.30 C 43.42 205.51 41.59 206.95 40.62 207.50 C 38.95 208.44 39.03 209.45 41.94 225.50 C 43.64 234.85 45.26 243.52 45.54 244.76 C 45.98 246.73 46.51 246.95 49.77 246.50 C 51.82 246.21 72.37 244.17 95.44 241.97 Z  M 200.77 108.88 C 213.27 103.31 223.64 98.64 223.80 98.50 C 224.05 98.27 205.52 67.35 204.38 66.09 C 204.18 65.86 202.88 66.19 201.50 66.82 C 199.09 67.92 199.00 68.29 199.00 77.48 C 199.00 87.00 199.00 87.00 173.67 87.00 C 148.34 87.00 148.34 87.00 131.50 94.00 C 122.24 97.85 114.49 101.18 114.26 101.40 C 114.04 101.63 116.43 105.68 119.58 110.40 C 125.30 119.00 125.30 119.00 151.67 119.00 C 178.03 119.00 178.03 119.00 200.77 108.88 Z  M 111.00 71.00 C 111.00 62.00 111.00 62.00 126.50 62.00 C 142.00 62.00 142.00 62.00 142.00 70.50 C 142.00 79.00 142.00 79.00 166.50 79.00 C 191.00 79.00 191.00 79.00 191.00 70.50 C 191.00 62.00 191.00 62.00 216.00 62.00 C 241.00 62.00 241.00 62.00 241.00 41.50 C 241.00 21.00 241.00 21.00 216.00 21.00 C 191.00 21.00 191.00 21.00 191.00 14.50 C 191.00 8.00 191.00 8.00 166.50 8.00 C 142.00 8.00 142.00 8.00 142.00 14.50 C 142.00 21.00 142.00 21.00 126.50 21.00 C 111.00 21.00 111.00 21.00 111.00 14.50 C 111.00 8.00 111.00 8.00 86.00 8.00 C 61.00 8.00 61.00 8.00 61.00 14.50 C 61.00 21.00 61.00 21.00 36.50 21.00 C 12.00 21.00 12.00 21.00 12.00 41.50 C 12.00 62.00 12.00 62.00 36.50 62.00 C 61.00 62.00 61.00 62.00 61.00 71.00 C 61.00 80.00 61.00 80.00 86.00 80.00 C 111.00 80.00 111.00 80.00 111.00 71.00 Z "/>
</g>
</svg>