<?xml version="1.0" encoding="UTF-8" standalone="no"?>
<!DOCTYPE svg PUBLIC "-//W3C//DTD SVG 1.1//EN" "http://www.w3.org/Graphics/SVG/1.1/DTD/svg11.dtd" >
<svg xmlns="http://www.w3.org/2000/svg" xmlns:xlink="http://www.w3.org/1999/xlink" version="1.1" viewBox="0 0 256 256">
 <g >
 <path fill="currentColor"
d=" M 85.00 225.00 C 85.00 206.00 85.00 206.00 105.53 206.00 C 126.05 206.00 126.05 206.00 125.78 190.75 C 125.50 175.50 125.50 175.50 105.25 175.23 C 85.00 174.96 85.00 174.96 85.00 171.48 C 85.00 168.00 85.00 168.00 100.51 168.00 C 116.03 168.00 116.03 168.00 115.76 133.83 C 115.56 107.58 115.21 99.57 114.25 99.25 C 113.39 98.96 113.00 100.09 113.00 102.92 C 113.00 107.00 113.00 107.00 99.00 107.00 C 85.00 107.00 85.00 107.00 85.00 103.00 C 85.00 99.00 85.00 99.00 95.50 99.00 C 106.00 99.00 106.00 99.00 106.00 81.04 C 106.00 63.09 106.00 63.09 113.25 62.79 C 120.50 62.50 120.50 62.50 120.77 45.25 C 121.05 28.00 121.05 28.00 113.52 28.00 C 106.00 28.00 106.00 28.00 106.00 21.00 C 106.00 14.00 106.00 14.00 89.05 14.00 C 72.09 14.00 72.09 14.00 71.80 20.75 C 71.50 27.50 71.50 27.50 66.25 27.80 C 61.00 28.10 61.00 28.10 61.00 21.05 C 61.00 14.00 61.00 14.00 44.00 14.00 C 27.00 14.00 27.00 14.00 27.00 21.00 C 27.00 28.00 27.00 28.00 19.00 28.00 C 11.00 28.00 11.00 28.00 11.00 45.50 C 11.00 63.00 11.00 63.00 19.00 63.00 C 27.00 63.00 27.00 63.00 27.00 80.96 C 27.00 98.93 27.00 98.93 36.75 99.21 C 46.50 99.50 46.50 99.50 46.81 103.25 C 47.12 107.00 47.12 107.00 33.56 107.00 C 20.00 107.00 20.00 107.00 20.00 103.00 C 20.00 99.67 19.67 99.00 18.00 99.00 C 16.04 99.00 16.00 99.67 16.00 133.50 C 16.00 168.00 16.00 168.00 31.50 168.00 C 47.00 168.00 47.00 168.00 47.00 171.50 C 47.00 175.00 47.00 175.00 27.50 175.00 C 8.00 175.00 8.00 175.00 8.00 190.50 C 8.00 206.00 8.00 206.00 27.50 206.00 C 47.00 206.00 47.00 206.00 47.00 225.00 C 47.00 244.00 47.00 244.00 66.00 244.00 C 85.00 244.00 85.00 244.00 85.00 225.00 Z  M 218.03 239.25 C 226.97 235.65 234.84 226.43 240.56 212.87 C 243.24 206.50 251.28 176.95 250.53 176.20 C 250.31 175.98 239.87 172.54 227.32 168.56 C 204.50 161.31 204.50 161.31 200.94 172.07 C 196.93 184.19 193.18 190.60 189.23 192.10 C 187.65 192.70 179.26 192.99 168.81 192.81 C 153.37 192.54 150.83 192.27 149.28 190.72 C 147.70 189.13 147.50 186.82 147.50 169.72 C 147.50 150.50 147.50 150.50 190.25 150.24 C 233.00 149.98 233.00 149.98 233.00 81.99 C 233.00 14.00 233.00 14.00 174.00 14.00 C 115.00 14.00 115.00 14.00 115.00 17.50 C 115.00 21.00 115.00 21.00 121.50 21.00 C 128.00 21.00 128.00 21.00 128.00 45.50 C 128.00 70.00 128.00 70.00 120.50 70.00 C 113.00 70.00 113.00 70.00 113.00 80.95 C 113.00 91.90 113.00 91.90 118.25 92.20 C 123.50 92.50 123.50 92.50 123.76 130.25 C 124.02 168.00 124.02 168.00 128.51 168.00 C 133.00 168.00 133.00 168.00 133.00 190.00 C 133.00 212.00 133.00 212.00 118.50 212.00 C 104.00 212.00 104.00 212.00 104.02 217.25 C 104.07 229.26 113.12 238.49 127.22 240.92 C 130.12 241.42 150.50 241.75 172.50 241.65 C 211.29 241.47 212.67 241.40 218.03 239.25 Z  M 44.00 131.50 C 44.00 122.00 44.00 122.00 49.50 122.00 C 55.00 122.00 55.00 122.00 55.00 131.50 C 55.00 141.00 55.00 141.00 49.50 141.00 C 44.00 141.00 44.00 141.00 44.00 131.50 Z  M 76.00 131.45 C 76.00 121.90 76.00 121.90 81.75 122.20 C 87.50 122.50 87.50 122.50 87.79 131.75 C 88.08 141.00 88.08 141.00 82.04 141.00 C 76.00 141.00 76.00 141.00 76.00 131.45 Z  M 59.00 66.54 C 59.00 61.00 59.00 61.00 66.55 61.00 C 74.10 61.00 74.10 61.00 73.80 66.25 C 73.50 71.50 73.50 71.50 66.25 71.79 C 59.00 72.09 59.00 72.09 59.00 66.54 Z  M 141.00 83.50 C 141.00 60.00 141.00 60.00 148.50 60.00 C 156.00 60.00 156.00 60.00 156.00 83.50 C 156.00 107.00 156.00 107.00 148.50 107.00 C 141.00 107.00 141.00 107.00 141.00 83.50 Z  M 183.00 83.50 C 183.00 60.00 183.00 60.00 190.00 60.00 C 197.00 60.00 197.00 60.00 197.00 83.50 C 197.00 107.00 197.00 107.00 190.00 107.00 C 183.00 107.00 183.00 107.00 183.00 83.50 Z "/>
</g>
</svg>