<?xml version="1.0" encoding="UTF-8" standalone="no"?>
<!DOCTYPE svg PUBLIC "-//W3C//DTD SVG 1.1//EN" "http://www.w3.org/Graphics/SVG/1.1/DTD/svg11.dtd" >
<svg xmlns="http://www.w3.org/2000/svg" xmlns:xlink="http://www.w3.org/1999/xlink" version="1.1" viewBox="0 0 256 256">
 <g >
 <path fill="currentColor"
d=" M 104.88 241.53 C 123.79 238.53 139.49 235.84 139.76 235.57 C 140.17 235.16 135.07 199.12 134.47 198.23 C 134.38 198.08 129.43 198.65 123.47 199.48 C 117.52 200.32 112.51 201.00 112.33 201.00 C 112.15 201.00 112.00 198.75 112.00 196.00 C 112.00 191.00 112.00 191.00 127.50 191.00 C 143.00 191.00 143.00 191.00 143.00 173.50 C 143.00 156.00 143.00 156.00 127.55 156.00 C 112.09 156.00 112.09 156.00 111.80 149.25 C 111.50 142.50 111.50 142.50 91.25 142.23 C 75.43 142.02 70.98 142.24 70.92 143.23 C 70.87 143.93 70.51 155.97 70.12 170.00 C 69.30 199.02 69.02 200.15 61.49 204.56 C 59.02 206.00 57.00 207.35 57.00 207.54 C 57.00 208.19 65.12 245.50 65.54 246.77 C 65.79 247.54 66.87 247.84 68.23 247.52 C 69.48 247.23 85.97 244.54 104.88 241.53 Z  M 50.89 218.26 C 46.88 201.29 46.87 200.06 50.85 200.02 C 53.71 199.98 58.78 196.78 60.06 194.20 C 60.96 192.37 61.52 185.80 61.79 173.75 C 62.19 156.00 62.19 156.00 56.60 156.00 C 51.00 156.00 51.00 156.00 51.00 112.03 C 51.00 68.06 51.00 68.06 63.75 67.78 C 76.50 67.50 76.50 67.50 76.79 58.75 C 77.08 50.00 77.08 50.00 132.50 50.00 C 187.92 50.00 187.92 50.00 188.21 58.75 C 188.50 67.50 188.50 67.50 213.25 67.77 C 238.00 68.03 238.00 68.03 238.00 48.52 C 238.00 29.00 238.00 29.00 199.70 29.00 C 161.41 29.00 161.41 29.00 158.50 21.00 C 155.59 13.00 155.59 13.00 129.99 13.00 C 104.39 13.00 104.39 13.00 101.94 20.75 C 99.50 28.50 99.50 28.50 62.88 28.76 C 26.25 29.02 26.25 29.02 25.72 69.76 C 25.23 107.09 23.71 135.97 20.92 161.00 C 19.28 175.76 12.43 208.41 8.61 219.72 C 5.15 229.94 5.15 229.94 19.83 234.55 C 27.90 237.08 38.55 240.43 43.50 242.00 C 52.50 244.85 52.50 244.85 53.66 239.87 C 54.71 235.31 54.47 233.46 50.89 218.26 Z  M 215.07 243.89 C 223.44 242.10 226.75 238.25 236.50 218.95 C 244.99 202.13 244.99 202.13 235.25 196.92 C 229.89 194.06 221.83 189.74 217.35 187.33 C 209.19 182.94 209.19 182.94 203.89 191.58 C 193.37 208.73 189.06 210.38 189.01 197.26 C 189.00 193.12 189.09 193.01 193.25 191.94 C 197.02 190.97 198.10 189.95 202.81 182.97 C 208.13 175.10 208.13 175.10 214.69 179.12 C 221.26 183.13 221.26 183.13 229.21 180.36 C 233.59 178.84 237.78 177.12 238.52 176.55 C 239.62 175.69 239.17 173.67 236.03 165.50 C 232.20 155.50 232.20 155.50 214.85 155.50 C 205.31 155.50 195.59 155.88 193.25 156.34 C 189.00 157.18 189.00 157.18 189.00 149.57 C 189.00 141.96 189.00 141.96 168.25 142.23 C 147.50 142.50 147.50 142.50 147.18 145.25 C 146.93 147.46 147.27 148.00 148.93 148.00 C 150.97 148.00 151.00 148.40 151.00 173.00 C 151.00 197.89 150.99 198.00 148.86 198.00 C 146.72 198.00 146.72 198.09 147.30 215.75 C 147.62 225.51 148.27 234.82 148.74 236.43 C 149.91 240.38 153.60 242.94 159.56 243.94 C 167.12 245.20 209.12 245.17 215.07 243.89 Z  M 62.00 141.48 C 62.00 134.97 62.00 134.97 90.75 135.23 C 119.50 135.50 119.50 135.50 119.80 141.75 C 120.10 148.00 120.10 148.00 130.00 148.00 C 139.90 148.00 139.90 148.00 140.20 141.75 C 140.50 135.50 140.50 135.50 168.25 135.23 C 196.00 134.97 196.00 134.97 196.00 141.48 C 196.00 148.00 196.00 148.00 213.00 148.00 C 230.00 148.00 230.00 148.00 230.00 111.50 C 230.00 75.00 230.00 75.00 205.00 75.00 C 180.00 75.00 180.00 75.00 180.00 66.50 C 180.00 58.00 180.00 58.00 159.50 58.00 C 139.00 58.00 139.00 58.00 139.00 66.50 C 139.00 75.00 139.00 75.00 132.00 75.00 C 125.00 75.00 125.00 75.00 125.00 66.50 C 125.00 58.00 125.00 58.00 105.00 58.00 C 85.00 58.00 85.00 58.00 85.00 66.50 C 85.00 75.00 85.00 75.00 72.00 75.00 C 59.00 75.00 59.00 75.00 59.00 90.47 C 59.00 105.94 59.00 105.94 71.75 106.22 C 84.50 106.50 84.50 106.50 84.81 110.25 C 85.12 114.00 85.12 114.00 72.06 114.00 C 59.00 114.00 59.00 114.00 59.00 131.00 C 59.00 145.44 59.23 148.00 60.50 148.00 C 61.68 148.00 62.00 146.61 62.00 141.48 Z  M 125.00 111.50 C 125.00 106.00 125.00 106.00 132.00 106.00 C 139.00 106.00 139.00 106.00 139.00 111.50 C 139.00 117.00 139.00 117.00 132.00 117.00 C 125.00 117.00 125.00 117.00 125.00 111.50 Z  M 178.20 111.75 C 178.50 106.50 178.50 106.50 185.75 106.21 C 193.00 105.91 193.00 105.91 193.00 111.46 C 193.00 117.00 193.00 117.00 185.45 117.00 C 177.90 117.00 177.90 117.00 178.20 111.75 Z "/>
</g>
</svg>