<?xml version="1.0" encoding="UTF-8" standalone="no"?>
<!DOCTYPE svg PUBLIC "-//W3C//DTD SVG 1.1//EN" "http://www.w3.org/Graphics/SVG/1.1/DTD/svg11.dtd" >
<svg xmlns="http://www.w3.org/2000/svg" xmlns:xlink="http://www.w3.org/1999/xlink" version="1.1" viewBox="0 0 256 256">
 <g >
 <path fill="currentColor"
d=" M 61.00 242.45 C 76.73 240.66 88.33 237.87 95.87 234.07 C 99.86 232.05 105.63 227.32 113.88 219.28 C 126.01 207.46 126.01 207.46 135.26 216.07 C 140.34 220.80 146.30 225.80 148.50 227.16 C 157.58 232.81 174.81 238.52 190.00 240.93 C 197.71 242.14 234.16 245.18 234.69 244.64 C 234.89 244.44 235.95 238.96 237.05 232.47 C 238.90 221.45 241.29 209.99 242.64 205.62 C 243.19 203.84 242.67 203.78 231.86 204.43 C 209.56 205.77 191.21 202.68 176.09 195.04 C 167.31 190.61 155.42 180.74 152.89 175.79 C 150.05 170.22 149.43 161.37 150.97 148.40 C 151.65 142.61 152.00 137.66 151.74 137.40 C 151.47 137.14 148.50 136.41 145.13 135.79 C 141.76 135.16 139.00 134.37 139.00 134.03 C 139.00 133.06 156.08 127.75 156.82 128.48 C 157.84 129.50 160.87 145.98 160.94 150.87 C 161.00 155.23 161.00 155.23 167.53 154.53 C 173.80 153.86 186.32 151.11 190.50 149.49 C 192.50 148.71 189.18 152.55 176.05 166.24 C 172.22 170.22 169.97 173.31 170.54 173.79 C 171.07 174.23 173.75 176.38 176.50 178.55 C 179.25 180.72 184.88 185.66 189.00 189.52 C 193.12 193.39 197.23 197.11 198.13 197.80 C 199.53 198.87 200.91 197.71 208.23 189.27 C 215.32 181.09 228.86 163.55 231.32 159.35 C 231.75 158.62 228.93 156.42 223.75 153.43 C 217.26 149.69 207.84 143.42 204.07 140.33 C 203.83 140.13 204.38 138.42 205.29 136.52 C 206.20 134.62 207.49 130.05 208.17 126.37 C 209.41 119.68 209.41 119.68 216.09 127.03 C 222.78 134.38 222.78 134.38 233.77 123.94 C 244.77 113.50 244.77 113.50 240.65 108.58 C 236.63 103.78 221.77 90.24 217.21 87.23 C 215.06 85.81 214.72 85.89 212.05 88.45 C 209.21 91.17 209.19 91.17 208.51 89.02 C 208.13 87.83 207.97 86.73 208.16 86.59 C 208.35 86.44 213.22 83.80 219.00 80.72 C 234.62 72.40 233.82 73.88 227.71 64.44 C 224.85 60.00 221.32 54.88 219.87 53.06 C 217.25 49.74 217.25 49.74 208.98 54.39 C 204.43 56.95 200.59 58.92 200.45 58.77 C 200.00 58.31 195.00 46.78 195.00 46.22 C 195.00 45.54 233.57 46.90 235.52 47.65 C 236.79 48.13 237.00 45.86 237.00 31.86 C 237.00 15.50 237.00 15.50 182.98 15.50 C 128.95 15.50 128.95 15.50 129.23 30.50 C 129.50 45.50 129.50 45.50 145.50 46.00 C 161.50 46.50 161.50 46.50 152.50 48.25 C 147.55 49.22 140.41 50.00 136.62 50.00 C 128.74 50.00 129.12 48.26 133.13 65.75 C 135.25 75.00 135.25 75.00 139.87 74.99 C 145.90 74.97 161.80 71.67 165.78 69.61 C 169.25 67.82 171.00 67.57 171.00 68.85 C 171.00 70.82 156.55 76.16 144.42 78.68 C 137.31 80.16 131.35 81.47 131.16 81.61 C 130.33 82.20 138.56 105.00 139.61 105.00 C 143.49 105.00 159.88 99.15 167.75 94.96 C 178.24 89.36 180.12 90.03 170.82 96.04 C 166.58 98.78 159.33 101.76 147.68 105.54 C 132.01 110.64 126.75 111.81 131.91 109.05 C 133.06 108.43 134.00 107.51 134.00 107.01 C 134.00 105.83 119.91 87.11 117.16 84.63 C 115.11 82.79 115.01 82.83 109.34 87.88 C 104.09 92.57 101.02 94.17 100.99 92.25 C 100.98 91.84 100.72 90.55 100.41 89.39 C 99.92 87.57 101.66 86.13 112.92 79.01 C 120.11 74.47 126.00 70.53 126.00 70.26 C 126.00 69.60 109.87 49.04 108.86 48.42 C 108.43 48.14 104.14 50.42 99.34 53.46 C 94.54 56.51 90.27 59.00 89.85 59.00 C 89.43 59.00 88.79 57.42 88.43 55.49 C 88.07 53.56 86.87 50.83 85.76 49.42 C 83.74 46.86 83.74 46.86 104.12 47.09 C 124.50 47.31 124.50 47.31 124.77 31.41 C 125.05 15.50 125.05 15.50 71.02 15.50 C 17.00 15.50 17.00 15.50 17.00 31.25 C 17.00 47.00 17.00 47.00 32.50 47.00 C 53.53 47.00 52.93 48.52 30.50 52.04 C 26.65 52.65 22.95 53.32 22.28 53.53 C 21.41 53.80 21.89 55.90 23.93 60.71 C 25.51 64.44 27.38 69.46 28.09 71.85 C 28.80 74.25 29.97 76.43 30.69 76.71 C 32.18 77.28 43.78 74.62 51.94 71.83 C 55.75 70.53 57.69 70.29 58.43 71.03 C 59.17 71.77 59.04 72.37 57.99 73.04 C 55.44 74.69 38.92 79.73 30.00 81.58 C 25.32 82.56 21.40 83.41 21.28 83.48 C 20.87 83.72 29.15 104.50 30.01 105.39 C 31.11 106.52 49.83 100.12 59.09 95.45 C 62.86 93.55 66.19 92.00 66.48 92.00 C 66.76 92.00 67.00 92.89 67.00 93.98 C 67.00 96.86 60.55 99.74 38.85 106.52 C 20.21 112.36 20.21 112.36 22.56 115.93 C 23.86 117.89 26.09 122.65 27.53 126.50 C 28.97 130.35 30.53 133.89 30.99 134.37 C 31.47 134.86 34.43 134.36 37.77 133.24 C 43.69 131.23 43.69 131.23 45.86 138.87 C 47.05 143.07 48.28 148.07 48.58 150.00 C 49.83 157.92 49.88 158.00 53.08 158.00 C 54.75 158.00 55.87 158.40 55.57 158.89 C 55.27 159.37 50.29 162.57 44.50 166.00 C 33.98 172.23 33.98 172.23 37.71 177.36 C 42.69 184.23 49.09 193.95 51.26 197.94 C 53.01 201.18 53.01 201.18 57.76 198.44 C 69.17 191.84 78.33 184.66 90.38 172.89 C 97.48 165.95 103.00 159.81 102.64 159.23 C 102.29 158.66 99.64 156.82 96.75 155.15 C 88.21 150.19 88.49 150.68 91.97 146.89 C 95.90 142.63 103.00 128.63 103.01 125.13 C 103.02 123.69 103.30 120.81 103.64 118.75 C 104.26 115.01 104.26 115.01 107.76 119.50 C 109.69 121.98 111.54 124.00 111.88 124.00 C 112.22 123.99 115.20 121.59 118.50 118.65 C 128.40 109.85 128.24 109.85 131.83 118.28 C 134.97 125.65 137.24 133.09 136.57 133.76 C 136.36 133.97 130.26 133.05 123.01 131.72 C 113.96 130.07 109.71 129.65 109.48 130.40 C 109.29 131.01 108.62 136.90 107.98 143.50 C 106.03 163.83 100.83 175.02 87.20 188.26 C 79.02 196.21 73.33 199.50 63.70 201.87 C 58.16 203.24 33.97 204.95 19.84 204.98 C 10.18 205.00 10.18 205.00 13.55 214.43 C 16.46 222.58 18.85 231.04 21.44 242.36 C 22.09 245.22 22.09 245.22 35.30 244.54 C 42.56 244.17 54.12 243.23 61.00 242.45 Z  M 58.50 125.97 C 67.93 122.53 69.00 122.41 69.00 124.80 C 69.00 128.16 66.87 129.00 58.55 128.94 C 50.50 128.89 50.50 128.89 58.50 125.97 Z  M 165.08 125.65 C 165.31 125.46 168.50 123.74 172.17 121.81 C 178.43 118.53 178.74 118.46 177.27 120.71 C 175.33 123.67 170.98 126.00 167.38 126.00 C 165.89 126.00 164.85 125.84 165.08 125.65 Z "/>
</g>
</svg>