<?xml version="1.0" encoding="UTF-8" standalone="no"?>
<!DOCTYPE svg PUBLIC "-//W3C//DTD SVG 1.1//EN" "http://www.w3.org/Graphics/SVG/1.1/DTD/svg11.dtd" >
<svg xmlns="http://www.w3.org/2000/svg" xmlns:xlink="http://www.w3.org/1999/xlink" version="1.1" viewBox="0 0 256 256">
 <g >
 <path fill="currentColor"
d=" M 211.31 246.42 C 224.93 244.20 231.70 239.64 233.92 231.20 C 234.48 229.06 235.02 201.51 235.20 165.73 C 235.50 103.95 235.50 103.95 218.66 104.23 C 201.83 104.50 201.83 104.50 201.95 156.14 C 202.07 203.55 201.94 207.92 200.38 209.48 C 198.96 210.90 197.10 211.12 189.34 210.84 C 182.86 210.60 180.00 210.85 180.00 211.63 C 180.00 212.25 181.55 217.04 183.44 222.26 C 186.10 229.61 190.00 245.31 190.00 248.66 C 190.00 249.27 200.76 248.14 211.31 246.42 Z  M 147.26 241.56 C 158.91 239.28 162.44 236.99 165.46 229.75 C 166.79 226.57 167.00 217.72 167.00 165.28 C 167.00 104.50 167.00 104.50 130.75 104.50 C 94.50 104.50 94.50 104.50 94.50 173.75 C 94.50 243.00 94.50 243.00 110.75 243.00 C 127.00 243.00 127.00 243.00 127.00 220.00 C 127.00 197.00 127.00 197.00 131.00 197.00 C 135.00 197.00 135.00 197.00 134.98 202.25 C 134.97 208.78 134.01 210.43 130.61 209.78 C 129.17 209.50 128.00 209.64 128.00 210.07 C 128.00 212.06 131.04 224.93 132.44 228.88 C 133.30 231.28 134.00 235.37 134.00 237.96 C 134.00 243.35 134.48 244.14 137.40 243.52 C 138.55 243.28 142.99 242.40 147.26 241.56 Z  M 53.73 210.98 C 72.69 207.14 88.44 204.00 88.72 204.00 C 89.00 204.00 88.96 200.29 88.62 195.75 C 88.29 191.21 88.35 181.95 88.76 175.17 C 89.17 168.39 89.39 162.72 89.24 162.57 C 89.09 162.43 85.71 162.89 81.74 163.60 C 77.76 164.31 73.94 164.92 73.25 164.95 C 72.30 164.99 72.00 161.29 72.00 149.67 C 72.00 134.33 72.00 134.33 80.00 134.79 C 88.00 135.26 88.00 135.26 88.00 113.63 C 88.00 92.00 88.00 92.00 80.00 92.00 C 72.00 92.00 72.00 92.00 72.00 81.50 C 72.00 71.00 72.00 71.00 75.31 71.00 C 77.63 71.00 79.40 71.82 81.21 73.75 C 84.19 76.92 92.35 89.34 96.00 96.26 C 97.37 98.87 98.95 100.99 99.50 100.99 C 100.05 100.98 104.10 99.41 108.49 97.49 C 112.88 95.57 116.60 94.00 116.74 94.00 C 116.88 94.00 117.00 95.58 117.00 97.50 C 117.00 101.00 117.00 101.00 163.00 101.00 C 209.00 101.00 209.00 101.00 209.00 97.00 C 209.00 94.80 209.26 93.00 209.58 93.00 C 209.90 93.00 213.24 94.35 217.00 96.00 C 220.76 97.65 224.21 98.99 224.67 98.98 C 225.13 98.96 227.73 94.88 230.45 89.89 C 233.17 84.91 238.19 76.51 241.60 71.22 C 247.81 61.61 247.81 61.61 238.16 57.95 C 219.89 51.04 203.42 41.66 188.33 29.59 C 181.17 23.85 181.17 23.85 182.58 20.47 C 184.19 16.61 185.82 17.30 169.50 14.97 C 165.10 14.35 157.50 12.96 152.62 11.88 C 147.73 10.81 143.61 10.06 143.47 10.22 C 143.32 10.37 140.80 14.10 137.86 18.50 C 127.86 33.49 115.60 44.44 97.75 54.33 C 93.00 56.96 93.00 56.96 93.00 42.23 C 93.00 27.50 93.00 27.50 51.50 27.50 C 10.00 27.50 10.00 27.50 10.00 49.25 C 10.00 71.00 10.00 71.00 21.50 71.00 C 33.00 71.00 33.00 71.00 33.00 81.57 C 33.00 92.15 33.00 92.15 24.50 91.82 C 16.00 91.50 16.00 91.50 16.00 113.39 C 16.00 135.28 16.00 135.28 24.50 134.75 C 33.00 134.22 33.00 134.22 33.00 153.06 C 33.00 171.91 33.00 171.91 29.25 172.95 C 27.19 173.52 21.98 174.28 17.68 174.64 C 10.38 175.26 9.89 175.44 10.37 177.40 C 10.84 179.32 14.38 204.54 15.62 214.83 C 16.03 218.22 16.48 219.03 17.70 218.56 C 18.56 218.23 34.77 214.82 53.73 210.98 Z  M 198.50 160.97 C 198.50 114.95 198.50 114.95 184.71 115.22 C 170.92 115.50 170.92 115.50 170.71 161.25 C 170.50 207.00 170.50 207.00 184.50 207.00 C 198.50 207.00 198.50 207.00 198.50 160.97 Z  M 127.00 170.00 C 127.00 167.17 127.22 167.00 131.00 167.00 C 134.78 167.00 135.00 167.17 135.00 170.00 C 135.00 172.83 134.78 173.00 131.00 173.00 C 127.22 173.00 127.00 172.83 127.00 170.00 Z  M 127.00 141.50 C 127.00 138.08 127.10 138.00 131.00 138.00 C 134.90 138.00 135.00 138.08 135.00 141.50 C 135.00 144.92 134.90 145.00 131.00 145.00 C 127.10 145.00 127.00 144.92 127.00 141.50 Z  M 151.00 67.21 C 151.00 66.77 152.98 64.47 155.41 62.09 C 160.30 57.29 159.52 57.20 167.30 63.50 C 169.33 65.15 171.00 66.84 171.00 67.25 C 171.00 67.66 166.50 68.00 161.00 68.00 C 155.50 68.00 151.00 67.64 151.00 67.21 Z "/>
</g>
</svg>