<?xml version="1.0" encoding="UTF-8" standalone="no"?>
<!DOCTYPE svg PUBLIC "-//W3C//DTD SVG 1.1//EN" "http://www.w3.org/Graphics/SVG/1.1/DTD/svg11.dtd" >
<svg xmlns="http://www.w3.org/2000/svg" xmlns:xlink="http://www.w3.org/1999/xlink" version="1.1" viewBox="0 0 256 256">
 <g >
 <path fill="currentColor"
d=" M 157.00 232.42 C 185.90 221.98 182.97 227.03 181.46 190.35 C 180.79 174.20 180.79 174.20 166.70 180.60 C 158.95 184.12 152.40 187.00 152.15 187.00 C 151.90 187.00 151.94 163.60 152.24 135.00 C 152.79 83.00 152.79 83.00 111.39 83.00 C 70.00 83.00 70.00 83.00 70.00 106.51 C 70.00 130.03 70.00 130.03 88.25 129.76 C 106.50 129.50 106.50 129.50 106.80 158.50 C 106.96 174.45 106.81 189.92 106.46 192.88 C 105.82 198.27 103.88 201.29 99.47 203.75 C 97.57 204.82 97.61 205.15 101.20 216.18 C 103.23 222.40 106.09 232.00 107.55 237.50 C 109.02 243.00 110.41 247.82 110.65 248.21 C 111.08 248.94 113.81 248.01 157.00 232.42 Z  M 146.75 63.80 C 162.00 48.47 162.00 48.47 149.75 36.38 C 143.01 29.74 133.57 20.85 128.76 16.64 C 120.01 8.98 120.01 8.98 108.76 20.34 C 102.57 26.58 95.09 33.70 92.15 36.16 C 86.79 40.61 86.79 40.61 99.79 52.27 C 106.94 58.69 116.27 67.76 120.52 72.43 C 126.62 79.13 128.60 80.74 129.88 80.03 C 130.77 79.53 138.36 72.23 146.75 63.80 Z "/>
</g>
</svg>