<?xml version="1.0" encoding="UTF-8" standalone="no"?>
<!DOCTYPE svg PUBLIC "-//W3C//DTD SVG 1.1//EN" "http://www.w3.org/Graphics/SVG/1.1/DTD/svg11.dtd" >
<svg xmlns="http://www.w3.org/2000/svg" xmlns:xlink="http://www.w3.org/1999/xlink" version="1.1" viewBox="0 0 256 256">
 <g >
 <path fill="currentColor"
d=" M 113.93 243.86 C 118.01 242.83 122.16 241.26 123.14 240.38 C 127.36 236.55 127.50 234.34 127.50 170.52 C 127.50 109.54 127.50 109.54 123.14 109.85 C 120.74 110.03 118.94 109.79 119.15 109.33 C 119.35 108.88 121.25 105.14 123.38 101.04 C 125.50 96.94 126.85 93.44 126.37 93.27 C 125.89 93.09 121.45 90.72 116.50 88.00 C 107.50 83.05 107.50 83.05 118.75 83.02 C 130.00 83.00 130.00 83.00 130.00 65.50 C 130.00 48.67 129.92 48.00 128.00 48.00 C 125.51 48.00 125.48 48.43 128.66 37.84 C 130.12 32.97 131.13 28.84 130.91 28.66 C 130.12 28.05 107.76 20.91 107.56 21.20 C 107.44 21.37 105.59 26.90 103.44 33.50 C 99.63 45.15 99.51 45.37 99.19 41.00 C 99.00 38.52 99.00 31.21 99.18 24.75 C 99.50 13.00 99.50 13.00 86.77 13.00 C 74.05 13.00 74.05 13.00 73.77 30.25 C 73.50 47.50 73.50 47.50 70.63 47.83 C 67.77 48.16 67.77 48.16 68.15 30.58 C 68.54 13.00 68.54 13.00 56.27 13.00 C 44.00 13.00 44.00 13.00 43.90 29.75 C 43.80 46.50 43.80 46.50 39.48 33.16 C 37.10 25.82 34.97 19.64 34.75 19.42 C 34.28 18.95 12.84 25.95 11.75 26.93 C 11.13 27.49 14.60 39.13 17.50 46.25 C 18.07 47.65 17.70 48.00 15.61 48.00 C 13.00 48.00 13.00 48.00 13.00 65.46 C 13.00 82.93 13.00 82.93 22.75 83.21 C 32.50 83.50 32.50 83.50 23.80 88.52 C 15.11 93.54 15.11 93.54 19.17 100.52 C 24.99 110.52 24.96 110.30 20.40 109.87 C 16.50 109.49 16.50 109.49 16.50 177.75 C 16.50 246.00 16.50 246.00 30.59 246.00 C 44.68 246.00 44.68 246.00 44.20 225.50 C 43.73 204.99 43.73 204.99 49.25 207.43 C 54.78 209.88 54.78 209.88 56.23 206.19 C 57.58 202.78 57.66 203.65 57.20 217.75 C 56.71 233.00 56.71 233.00 71.10 233.00 C 85.50 233.00 85.50 233.00 85.29 215.75 C 85.13 202.29 85.33 199.16 86.18 201.50 C 86.78 203.15 87.39 204.64 87.54 204.82 C 87.68 204.99 90.60 203.72 94.02 201.99 C 100.25 198.84 100.25 198.84 99.82 204.84 C 99.23 212.94 97.90 214.38 91.68 213.65 C 87.38 213.14 86.85 213.28 87.28 214.78 C 88.64 219.47 90.06 226.43 91.48 235.39 C 92.35 240.83 93.29 245.66 93.57 246.12 C 94.30 247.29 105.03 246.09 113.93 243.86 Z  M 216.77 244.41 C 224.95 242.60 230.28 239.81 233.41 235.71 C 239.21 228.10 239.00 231.14 239.00 155.03 C 239.00 85.00 239.00 85.00 220.50 85.00 C 202.00 85.00 202.00 85.00 202.00 80.50 C 202.00 76.00 202.00 76.00 222.50 76.00 C 243.00 76.00 243.00 76.00 243.00 57.91 C 243.00 39.81 243.00 39.81 237.49 40.16 C 231.97 40.50 231.97 40.50 237.50 35.65 C 243.03 30.81 243.03 30.81 236.77 23.83 C 233.32 19.99 229.32 15.46 227.88 13.74 C 225.25 10.63 225.25 10.63 220.88 14.03 C 212.20 20.78 205.00 27.32 205.00 28.46 C 205.00 29.10 206.39 30.95 208.09 32.56 C 209.79 34.18 212.07 36.74 213.16 38.25 C 215.14 41.00 215.14 41.00 208.51 41.00 C 201.88 41.00 201.88 41.00 202.58 26.50 C 203.29 12.00 203.29 12.00 186.14 12.00 C 169.00 12.00 169.00 12.00 169.00 26.56 C 169.00 41.13 169.00 41.13 151.00 40.42 C 133.00 39.71 133.00 39.71 133.00 57.85 C 133.00 76.00 133.00 76.00 151.00 76.00 C 169.00 76.00 169.00 76.00 169.00 80.48 C 169.00 84.95 169.00 84.95 151.25 85.23 C 133.50 85.50 133.50 85.50 133.50 165.00 C 133.50 244.50 133.50 244.50 149.25 244.78 C 165.00 245.05 165.00 245.05 165.00 221.03 C 165.00 197.00 165.00 197.00 167.63 197.00 C 170.25 197.00 170.25 197.00 169.82 211.50 C 169.38 226.00 169.38 226.00 182.60 226.00 C 195.81 226.00 195.81 226.00 197.44 230.75 C 198.33 233.36 199.34 238.09 199.68 241.27 C 200.29 247.03 200.29 247.03 205.39 246.42 C 208.20 246.08 213.32 245.17 216.77 244.41 Z  M 44.09 161.25 C 44.00 144.00 44.00 144.00 51.00 144.00 C 58.00 144.00 58.00 144.00 58.00 149.50 C 58.00 155.45 58.02 155.44 53.27 154.08 C 50.13 153.18 50.05 153.24 49.42 156.83 C 49.07 158.85 47.75 164.55 46.48 169.50 C 44.18 178.50 44.18 178.50 44.09 161.25 Z  M 98.18 167.00 C 97.45 164.53 95.93 159.93 94.81 156.79 C 92.76 151.08 92.76 151.08 88.88 153.06 C 85.00 155.04 85.00 155.04 85.00 149.52 C 85.00 144.00 85.00 144.00 92.03 144.00 C 96.89 144.00 99.22 144.40 99.56 145.31 C 99.84 146.02 99.94 152.21 99.78 159.06 C 99.51 171.18 99.47 171.38 98.18 167.00 Z  M 50.25 106.87 C 52.86 105.16 55.00 103.34 55.00 102.82 C 55.00 102.31 52.32 97.61 49.04 92.40 C 44.81 85.68 43.46 82.76 44.40 82.40 C 45.13 82.12 48.37 82.03 51.61 82.20 C 57.50 82.50 57.50 82.50 57.78 96.25 C 58.06 110.00 58.06 110.00 51.78 109.99 C 45.50 109.98 45.50 109.98 50.25 106.87 Z  M 85.00 96.00 C 85.00 82.00 85.00 82.00 91.50 82.00 C 95.08 82.00 98.00 82.24 98.00 82.54 C 98.00 83.50 93.97 91.01 89.83 97.78 C 85.39 105.03 85.25 104.10 91.50 108.49 C 93.35 109.79 93.19 109.90 89.25 109.95 C 85.00 110.00 85.00 110.00 85.00 96.00 Z  M 202.00 204.12 C 202.00 197.15 202.06 197.00 204.55 197.00 C 207.02 197.00 207.09 197.18 206.80 202.63 C 206.56 207.17 206.06 208.56 204.25 209.76 C 202.00 211.24 202.00 211.24 202.00 204.12 Z  M 165.00 162.00 C 165.00 157.33 165.17 157.00 167.50 157.00 C 169.83 157.00 170.00 157.33 170.00 162.00 C 170.00 166.67 169.83 167.00 167.50 167.00 C 165.17 167.00 165.00 166.67 165.00 162.00 Z  M 202.00 162.00 C 202.00 157.33 202.17 157.00 204.50 157.00 C 206.83 157.00 207.00 157.33 207.00 162.00 C 207.00 166.67 206.83 167.00 204.50 167.00 C 202.17 167.00 202.00 166.67 202.00 162.00 Z  M 165.20 123.25 C 165.46 119.20 165.83 118.45 167.75 118.18 C 169.83 117.89 170.00 118.25 170.00 122.93 C 170.00 127.70 169.85 128.00 167.45 128.00 C 165.02 128.00 164.91 127.76 165.20 123.25 Z  M 202.00 123.00 C 202.00 118.33 202.17 118.00 204.50 118.00 C 206.83 118.00 207.00 118.33 207.00 123.00 C 207.00 127.67 206.83 128.00 204.50 128.00 C 202.17 128.00 202.00 127.67 202.00 123.00 Z "/>
</g>
</svg>