<?xml version="1.0" encoding="UTF-8" standalone="no"?>
<!DOCTYPE svg PUBLIC "-//W3C//DTD SVG 1.1//EN" "http://www.w3.org/Graphics/SVG/1.1/DTD/svg11.dtd" >
<svg xmlns="http://www.w3.org/2000/svg" xmlns:xlink="http://www.w3.org/1999/xlink" version="1.1" viewBox="0 0 275 256">
 <g >
 <path fill="currentColor"
d=" M 199.26 245.19 C 201.50 242.95 201.50 242.95 201.85 199.07 C 202.19 155.20 202.19 155.20 206.85 154.53 C 216.74 153.12 231.41 149.84 234.14 148.43 C 243.88 143.39 226.96 137.31 211.93 140.45 C 207.84 141.30 204.16 142.00 203.75 142.00 C 202.83 142.00 202.77 126.00 203.64 111.77 C 204.29 101.23 204.29 101.23 221.61 100.51 C 234.42 99.98 239.23 99.43 240.08 98.41 C 241.82 96.31 240.43 94.08 236.26 92.29 C 231.99 90.46 231.25 90.46 177.94 91.70 C 146.72 92.42 142.05 92.74 139.72 94.26 C 138.15 95.29 137.29 96.59 137.61 97.43 C 138.65 100.14 144.55 101.27 160.25 101.75 C 176.00 102.24 176.00 102.24 175.91 111.37 C 175.78 124.89 174.54 145.79 173.83 146.51 C 173.08 147.25 163.83 148.47 147.90 149.93 C 130.38 151.54 126.10 153.82 133.25 157.72 C 136.00 159.23 138.98 159.49 152.50 159.43 C 161.30 159.40 169.71 159.06 171.18 158.68 C 173.86 158.00 173.86 158.00 174.18 199.75 C 174.42 231.23 174.81 242.05 175.77 243.73 C 177.48 246.71 182.10 247.97 190.26 247.68 C 195.72 247.48 197.44 247.01 199.26 245.19 Z  M 68.66 221.23 C 71.92 218.62 76.66 210.50 80.03 201.76 C 82.88 194.37 89.07 166.02 90.45 154.00 C 92.05 140.08 91.17 141.40 99.82 140.05 C 115.06 137.66 125.00 134.65 125.00 132.41 C 125.00 128.53 112.76 126.62 101.74 128.79 C 97.48 129.63 93.72 130.05 93.39 129.72 C 93.06 129.39 93.27 122.23 93.85 113.81 C 94.86 99.28 94.82 98.42 93.02 96.89 C 91.23 95.37 91.53 95.24 98.10 94.63 C 101.93 94.27 110.47 93.69 117.06 93.33 C 129.85 92.65 132.66 91.67 131.59 88.27 C 129.78 82.59 118.82 81.71 84.81 84.48 C 54.21 86.98 43.50 88.93 43.50 92.00 C 43.50 95.08 49.94 97.00 60.30 97.00 C 70.09 97.00 70.09 97.00 69.42 107.25 C 69.05 112.89 68.47 121.10 68.13 125.50 C 67.41 134.66 69.47 133.49 48.88 136.41 C 37.00 138.10 32.77 139.59 33.22 141.92 C 33.39 142.78 34.87 144.13 36.51 144.93 C 40.31 146.76 53.90 147.50 60.72 146.24 C 63.60 145.71 66.10 145.43 66.29 145.62 C 66.47 145.81 65.60 153.40 64.34 162.50 C 62.35 176.93 61.21 181.51 55.50 198.27 C 51.90 208.85 48.68 218.28 48.36 219.24 C 47.53 221.70 51.05 222.86 59.50 222.91 C 64.68 222.94 67.06 222.51 68.66 221.23 Z  M 203.56 83.58 C 205.33 82.29 205.53 80.61 205.85 64.67 C 206.19 47.17 206.19 47.17 203.40 45.34 C 201.21 43.90 198.19 43.43 189.51 43.17 C 173.50 42.69 173.75 42.40 173.72 61.23 C 173.68 83.36 174.83 84.89 191.56 84.96 C 198.72 84.99 202.18 84.59 203.56 83.58 Z  M 99.72 80.38 C 103.91 79.25 108.01 61.98 109.18 40.53 C 109.48 35.02 109.31 34.47 107.00 33.30 C 103.49 31.52 85.59 31.56 83.80 33.35 C 82.97 34.17 81.36 42.93 79.61 56.05 C 76.77 77.40 76.77 77.40 79.00 79.20 C 80.74 80.61 83.00 81.00 89.36 80.99 C 93.84 80.98 98.50 80.71 99.72 80.38 Z "/>
</g>
</svg>