<?xml version="1.0" encoding="UTF-8" standalone="no"?>
<!DOCTYPE svg PUBLIC "-//W3C//DTD SVG 1.1//EN" "http://www.w3.org/Graphics/SVG/1.1/DTD/svg11.dtd" >
<svg xmlns="http://www.w3.org/2000/svg" xmlns:xlink="http://www.w3.org/1999/xlink" version="1.1" viewBox="0 0 275 256">
 <g >
 <path fill="currentColor"
d=" M 215.63 235.53 C 223.83 231.48 227.43 227.78 229.10 221.70 C 229.73 219.39 231.09 215.61 232.11 213.29 C 236.12 204.22 242.98 162.45 241.13 158.39 C 240.40 156.79 240.43 156.02 241.21 155.76 C 242.00 155.50 242.02 154.85 241.27 153.52 C 240.49 152.12 240.58 151.28 241.63 150.22 C 242.64 149.22 242.99 146.72 242.84 141.65 C 242.72 137.72 243.64 127.99 244.86 120.04 C 246.09 112.08 247.28 100.61 247.50 94.54 C 247.72 88.47 248.40 79.07 249.02 73.65 C 249.63 68.23 249.92 63.59 249.67 63.33 C 249.41 63.08 245.93 61.76 241.94 60.41 C 233.38 57.52 223.05 56.25 214.00 56.98 C 208.38 57.43 207.46 57.78 207.20 59.58 C 206.92 61.58 205.96 61.72 185.20 62.95 C 173.27 63.65 157.54 64.42 150.25 64.67 C 138.63 65.05 137.00 65.32 137.00 66.80 C 137.01 69.81 140.86 74.92 143.72 75.72 C 147.41 76.75 172.00 76.71 195.25 75.63 C 214.00 74.76 214.00 74.76 213.93 89.63 C 213.89 97.81 213.50 105.40 213.05 106.50 C 212.59 107.64 212.68 109.04 213.25 109.75 C 213.91 110.58 213.91 111.42 213.22 112.25 C 212.60 113.01 212.00 125.49 211.70 144.00 C 211.29 169.09 210.83 176.45 209.13 185.50 C 205.96 202.37 203.57 210.56 201.91 210.16 C 201.14 209.98 195.54 208.57 189.48 207.04 C 173.12 202.90 170.00 202.48 170.00 204.41 C 170.00 205.29 170.56 206.00 171.24 206.00 C 171.92 206.00 174.83 207.19 177.70 208.65 C 182.66 211.15 183.05 211.64 185.11 217.90 C 188.49 228.14 191.63 234.72 194.52 237.61 C 196.94 240.03 197.66 240.21 202.79 239.68 C 206.27 239.32 211.16 237.74 215.63 235.53 Z  M 33.07 228.96 C 34.46 228.22 35.00 228.25 35.00 229.09 C 35.00 229.92 36.50 230.06 40.13 229.58 C 49.46 228.34 81.19 219.92 101.32 213.34 C 122.54 206.40 123.99 206.31 124.01 211.87 C 124.02 213.32 124.29 216.13 124.62 218.12 C 125.22 221.74 125.22 221.74 134.86 222.25 C 143.12 222.69 145.05 222.48 148.38 220.80 C 152.26 218.83 152.26 218.83 151.76 212.16 C 151.16 204.29 147.97 196.60 142.33 189.50 C 140.15 186.75 137.81 182.93 137.15 181.00 C 135.01 174.85 131.08 169.94 126.68 167.94 C 121.57 165.62 118.66 165.52 115.56 167.55 C 113.98 168.59 112.97 168.76 112.53 168.05 C 111.70 166.70 104.45 166.69 101.93 168.04 C 99.15 169.53 99.55 172.19 103.06 175.56 C 106.30 178.66 116.00 193.17 116.00 194.92 C 116.00 196.67 109.96 199.21 107.35 198.55 C 105.94 198.20 101.68 198.95 97.21 200.34 C 85.54 203.98 72.04 207.37 71.48 206.81 C 70.42 205.76 78.67 192.64 82.74 188.89 C 85.08 186.73 87.00 184.63 87.01 184.23 C 87.02 181.77 89.41 175.59 90.93 174.07 C 91.91 173.09 93.69 169.10 94.87 165.21 C 96.05 161.32 98.14 156.80 99.51 155.17 C 100.88 153.54 102.00 151.38 102.00 150.36 C 102.01 148.15 105.27 142.50 108.56 138.99 C 109.85 137.61 113.58 130.40 116.83 122.97 C 120.09 115.54 124.64 105.70 126.94 101.11 C 131.14 92.77 131.14 92.77 128.89 90.39 C 126.78 88.13 125.99 88.00 114.88 88.00 C 103.10 88.00 103.10 88.00 100.57 91.32 C 97.61 95.20 86.57 118.11 85.55 122.50 C 84.53 126.89 81.28 129.84 75.63 131.52 C 68.15 133.74 65.00 133.51 65.01 130.75 C 65.03 127.60 70.60 115.18 76.86 104.34 C 83.36 93.08 89.63 77.63 94.89 59.94 C 100.59 40.77 101.12 42.83 90.00 40.82 C 84.78 39.87 78.67 39.08 76.43 39.05 C 72.38 39.00 72.36 39.02 70.67 44.38 C 69.74 47.34 69.27 50.54 69.63 51.48 C 69.99 52.43 69.88 53.49 69.37 53.85 C 68.87 54.21 66.70 59.00 64.55 64.50 C 53.75 92.21 37.09 126.03 30.38 133.87 C 28.52 136.04 27.02 138.20 27.04 138.66 C 27.06 139.12 28.43 141.07 30.07 143.00 C 33.06 146.50 33.06 146.50 48.78 146.50 C 59.92 146.50 65.46 146.10 67.78 145.12 C 69.59 144.35 71.30 143.97 71.60 144.27 C 72.61 145.28 59.93 173.72 54.00 183.76 C 46.49 196.45 39.64 205.56 30.70 214.69 C 23.05 222.52 23.17 221.81 28.38 227.75 C 30.66 230.35 30.53 230.32 33.07 228.96 Z "/>
</g>
</svg>