<?xml version="1.0" encoding="UTF-8" standalone="no"?>
<!DOCTYPE svg PUBLIC "-//W3C//DTD SVG 1.1//EN" "http://www.w3.org/Graphics/SVG/1.1/DTD/svg11.dtd" >
<svg xmlns="http://www.w3.org/2000/svg" xmlns:xlink="http://www.w3.org/1999/xlink" version="1.1" viewBox="0 0 275 256">
 <g >
 <path fill="currentColor"
d=" M 62.59 226.96 C 65.55 225.69 67.57 225.30 67.95 225.93 C 68.54 226.87 82.30 224.55 90.74 222.09 C 92.53 221.57 96.47 221.40 99.49 221.71 C 103.57 222.13 105.00 221.95 105.00 221.01 C 105.00 220.10 106.37 219.88 109.94 220.22 C 112.65 220.48 115.45 220.34 116.15 219.90 C 116.86 219.47 118.00 219.59 118.70 220.16 C 119.58 220.89 121.40 220.89 124.73 220.14 C 127.35 219.56 131.75 219.06 134.50 219.04 C 137.25 219.03 141.75 218.99 144.50 218.97 C 147.25 218.94 152.65 219.62 156.50 220.47 C 160.50 221.36 170.13 222.19 179.00 222.40 C 187.75 222.62 200.33 223.69 207.90 224.87 C 218.65 226.54 222.59 226.76 227.90 226.00 C 231.53 225.47 234.84 225.03 235.25 225.02 C 236.75 224.98 236.06 216.24 234.51 215.64 C 232.05 214.70 210.72 212.16 191.03 210.47 C 180.87 209.60 172.39 208.72 172.18 208.52 C 171.98 208.31 172.27 205.99 172.83 203.36 C 173.45 200.43 173.49 197.92 172.93 196.87 C 172.28 195.66 173.78 189.56 178.08 175.83 C 187.57 145.59 191.14 129.86 190.79 119.90 C 190.50 111.69 190.46 111.58 187.21 109.69 C 182.38 106.87 176.12 105.65 174.29 107.18 C 173.47 107.85 171.57 108.32 170.07 108.20 C 168.57 108.09 165.19 108.64 162.57 109.43 C 159.95 110.22 157.21 110.63 156.49 110.36 C 155.76 110.08 149.00 110.84 141.47 112.04 C 129.44 113.96 119.92 114.26 118.42 112.75 C 117.92 112.25 124.82 81.56 127.54 72.21 C 129.08 66.92 129.08 66.92 145.79 66.82 C 154.98 66.77 170.53 66.45 180.34 66.11 C 197.53 65.52 198.25 65.41 200.09 63.14 C 203.66 58.73 202.04 54.94 195.50 52.45 C 191.45 50.90 189.58 50.84 177.24 51.86 C 147.62 54.31 138.34 54.78 122.50 54.63 C 117.55 54.58 109.45 54.60 104.50 54.67 C 99.55 54.73 94.38 54.77 93.00 54.74 C 91.62 54.71 89.15 54.71 87.50 54.74 C 81.93 54.83 72.55 54.80 63.50 54.65 C 52.33 54.46 47.75 56.03 48.20 59.86 C 48.60 63.26 53.63 66.57 60.57 68.02 C 64.56 68.84 68.89 68.86 76.68 68.07 C 82.55 67.48 89.74 67.00 92.67 67.00 C 97.62 67.00 98.00 67.17 98.00 69.38 C 98.00 73.60 86.07 132.88 81.29 152.40 C 75.97 174.15 76.02 174.59 84.24 178.82 C 88.74 181.13 89.11 181.17 92.31 179.66 C 96.76 177.55 112.79 174.80 116.25 175.56 C 117.76 175.89 119.00 175.75 119.00 175.24 C 119.00 173.55 123.98 172.02 132.78 171.02 C 146.11 169.49 145.00 168.92 145.00 177.25 C 145.01 183.09 143.18 196.09 141.42 202.69 C 140.62 205.72 136.15 206.82 120.00 207.96 C 84.84 210.46 38.00 217.88 38.00 220.95 C 38.00 221.44 38.79 223.21 39.75 224.88 C 41.37 227.70 41.95 227.94 48.00 228.26 C 51.57 228.45 55.25 228.70 56.17 228.80 C 57.08 228.91 59.97 228.08 62.59 226.96 Z  M 110.44 158.55 C 109.64 154.29 114.77 131.53 117.45 127.44 C 118.79 125.38 119.85 125.00 124.12 125.00 C 126.90 125.00 133.64 124.09 139.09 122.98 C 151.68 120.42 161.99 119.81 162.67 121.59 C 163.84 124.63 157.22 148.60 154.22 152.19 C 150.56 156.56 137.07 160.29 120.32 161.55 C 111.14 162.25 111.14 162.25 110.44 158.55 Z "/>
</g>
</svg>