<?xml version="1.0" encoding="UTF-8" standalone="no"?>
<!DOCTYPE svg PUBLIC "-//W3C//DTD SVG 1.1//EN" "http://www.w3.org/Graphics/SVG/1.1/DTD/svg11.dtd" >
<svg xmlns="http://www.w3.org/2000/svg" xmlns:xlink="http://www.w3.org/1999/xlink" version="1.1" viewBox="0 0 256 256">
 <g >
 <path fill="currentColor"
d=" M 158.82 238.46 C 170.28 236.72 182.17 233.50 193.99 228.94 C 207.12 223.88 210.19 220.88 208.62 214.63 C 207.85 211.54 204.27 208.00 201.92 208.00 C 200.82 208.00 195.50 210.03 190.09 212.51 C 180.50 216.91 170.03 220.12 160.84 221.50 C 156.30 222.18 156.30 222.18 151.62 214.34 C 147.03 206.65 142.96 195.88 143.04 191.64 C 143.08 189.70 143.22 189.75 144.56 192.22 C 146.38 195.58 148.90 197.00 153.03 197.00 C 155.67 197.00 157.55 195.63 164.35 188.74 C 173.94 179.02 182.57 174.03 195.13 170.93 C 205.83 168.28 208.00 166.90 208.00 162.73 C 207.99 158.78 204.87 153.41 202.06 152.52 C 199.61 151.74 191.21 154.04 181.67 158.08 C 168.20 163.80 148.45 178.77 144.58 186.20 C 142.86 189.50 142.86 189.50 143.38 181.00 C 144.08 169.61 148.91 152.62 151.58 152.18 C 156.90 151.31 170.23 146.44 175.84 143.33 C 185.10 138.18 201.12 125.81 206.85 119.38 C 214.41 110.89 217.87 103.54 220.60 90.15 C 223.48 76.06 223.56 69.25 221.02 57.74 C 218.50 46.35 216.15 41.21 210.84 35.44 C 199.79 23.45 181.11 14.79 160.20 11.96 C 148.56 10.39 129.67 11.25 117.92 13.90 C 101.76 17.55 76.96 27.98 63.19 36.93 C 39.55 52.29 29.62 76.11 35.90 102.38 C 40.76 122.72 47.80 130.51 72.25 142.62 C 82.00 147.45 82.00 147.45 82.00 158.73 C 82.00 164.93 81.62 170.00 81.16 170.00 C 78.16 170.00 70.28 166.68 67.93 164.43 C 64.36 161.02 60.98 161.68 58.08 166.37 C 55.29 170.88 55.44 174.53 58.53 177.62 C 62.34 181.43 73.72 186.27 79.15 186.39 C 83.80 186.50 83.80 186.50 85.92 194.50 C 87.09 198.90 89.65 206.69 91.62 211.81 C 93.59 216.94 94.96 221.37 94.67 221.67 C 93.76 222.57 77.27 220.03 70.70 217.97 C 62.84 215.51 60.49 215.51 58.00 218.00 C 55.34 220.66 55.32 226.89 57.95 229.71 C 61.37 233.39 73.63 236.35 96.00 238.92 C 101.22 239.52 107.08 240.19 109.00 240.42 C 116.19 241.26 148.87 239.98 158.82 238.46 Z  M 115.57 224.24 C 115.26 223.92 115.00 222.67 115.00 221.46 C 115.00 220.24 114.29 218.66 113.42 217.94 C 111.06 215.97 107.65 208.63 104.16 198.00 C 99.18 182.82 98.03 176.42 98.01 163.90 C 98.00 152.29 98.00 152.29 103.25 153.68 C 106.14 154.44 113.60 155.34 119.83 155.69 C 130.71 156.29 131.13 156.40 130.56 158.41 C 126.07 174.33 125.78 176.38 126.17 189.59 C 126.55 202.83 126.55 202.83 131.70 213.16 C 134.52 218.85 136.76 223.55 136.67 223.61 C 135.99 224.09 116.01 224.68 115.57 224.24 Z  M 101.56 137.35 C 91.75 135.25 84.09 131.91 74.64 125.62 C 64.48 118.86 56.72 110.76 53.20 103.25 C 50.86 98.27 50.50 96.23 50.50 88.01 C 50.50 78.88 50.59 78.48 53.00 77.34 C 54.38 76.69 61.35 75.67 68.50 75.08 C 82.27 73.94 92.08 74.58 104.38 77.43 C 118.27 80.66 123.39 78.78 122.80 70.70 C 122.54 67.01 122.07 66.30 119.00 64.83 C 113.47 62.19 89.66 59.00 75.53 59.00 C 68.64 59.00 63.00 58.66 63.01 58.25 C 63.02 56.96 83.70 44.01 91.47 40.42 C 100.19 36.39 117.77 31.71 130.71 29.97 C 164.46 25.43 194.58 36.07 203.83 55.80 C 206.23 60.92 206.50 62.62 206.46 72.50 C 206.42 82.06 206.07 84.31 203.80 89.69 C 200.13 98.39 194.69 106.26 186.13 115.24 C 169.69 132.49 151.83 139.10 122.12 138.92 C 114.16 138.87 105.61 138.22 101.56 137.35 Z "/>
</g>
</svg>