<?xml version="1.0" encoding="UTF-8" standalone="no"?>
<!DOCTYPE svg PUBLIC "-//W3C//DTD SVG 1.1//EN" "http://www.w3.org/Graphics/SVG/1.1/DTD/svg11.dtd" >
<svg xmlns="http://www.w3.org/2000/svg" xmlns:xlink="http://www.w3.org/1999/xlink" version="1.1" viewBox="0 0 256 256">
 <g >
 <path fill="currentColor"
d=" M 219.70 234.80 C 225.10 229.57 223.83 222.83 217.18 221.44 C 207.68 219.46 205.08 218.50 200.81 215.36 C 196.09 211.89 195.74 211.25 193.44 201.73 C 192.60 198.26 189.47 196.00 185.53 196.02 C 181.33 196.04 180.29 196.92 178.49 202.03 C 174.53 213.26 184.20 227.60 201.00 235.42 C 204.55 237.07 208.26 237.98 211.45 237.99 C 215.67 238.00 216.89 237.53 219.70 234.80 Z  M 139.33 228.08 C 148.10 223.63 156.57 216.74 160.10 211.19 C 165.81 202.20 162.34 191.67 154.25 193.44 C 150.32 194.31 147.00 197.50 147.00 200.42 C 147.00 203.88 140.27 209.43 130.73 213.85 C 126.20 215.94 121.88 218.41 121.12 219.33 C 119.57 221.23 120.28 228.42 122.26 230.81 C 124.09 233.02 132.14 231.74 139.33 228.08 Z  M 32.51 219.75 C 35.64 216.31 40.96 209.33 44.35 204.23 C 49.31 196.76 50.57 195.41 50.84 197.23 C 51.34 200.58 54.55 203.56 59.82 205.56 C 62.40 206.53 66.18 208.38 68.23 209.66 C 73.25 212.81 77.45 212.70 80.55 209.35 C 83.87 205.77 83.85 200.69 80.51 197.60 C 79.15 196.33 73.61 193.80 68.21 191.97 C 58.94 188.84 58.23 188.74 55.34 190.18 C 52.27 191.71 52.27 191.71 58.64 178.47 C 70.86 153.06 76.18 130.60 76.22 104.25 C 76.23 96.41 76.55 90.00 76.92 90.00 C 77.29 90.00 78.09 90.49 78.70 91.10 C 80.54 92.94 83.73 91.13 87.34 86.20 C 91.69 80.26 93.69 75.44 95.05 67.64 C 96.36 60.14 95.33 56.74 91.09 54.55 C 84.22 50.99 78.02 53.52 77.98 59.90 C 77.95 64.01 76.48 71.17 74.83 75.32 C 73.72 78.09 73.66 78.01 71.53 71.29 C 68.41 61.48 58.27 42.44 54.28 38.94 C 48.06 33.48 40.00 35.96 40.00 43.34 C 40.00 45.58 41.39 48.82 44.16 53.09 C 50.21 62.41 53.71 70.68 56.73 82.79 C 58.96 91.77 59.39 95.68 59.38 107.00 C 59.36 128.80 57.12 138.08 45.19 165.91 C 37.37 184.16 31.44 194.48 22.35 205.65 C 16.39 212.97 16.00 213.77 16.00 218.57 C 16.00 224.28 17.58 225.80 23.67 225.93 C 26.31 225.99 27.76 224.98 32.51 219.75 Z  M 184.66 186.44 C 210.45 181.11 230.40 160.61 238.62 131.00 C 243.01 115.18 239.49 80.64 231.91 65.10 C 225.23 51.42 208.54 38.80 188.07 31.96 C 179.51 29.10 177.85 28.86 170.07 29.37 C 165.36 29.67 161.05 29.95 160.50 29.97 C 159.95 30.00 157.03 29.75 154.00 29.42 C 147.20 28.67 138.35 31.72 128.24 38.31 C 107.91 51.54 100.58 68.94 100.57 104.00 C 100.56 121.18 100.63 121.68 103.90 131.50 C 114.23 162.47 121.00 171.62 140.56 181.08 C 154.54 187.85 169.19 189.63 184.66 186.44 Z  M 39.89 116.36 C 43.38 113.92 42.25 108.95 35.68 97.86 C 32.63 92.71 28.87 85.80 27.32 82.50 C 24.59 76.69 24.37 76.49 20.30 76.20 C 7.83 75.29 9.71 89.07 25.23 112.25 C 28.90 117.74 29.27 118.00 33.31 118.00 C 35.65 118.00 38.61 117.26 39.89 116.36 Z  M 155.29 170.62 C 142.01 166.25 128.76 152.96 122.27 137.50 C 114.52 119.01 114.23 86.41 121.68 69.78 C 124.94 62.52 132.47 55.30 141.60 50.70 C 153.27 44.82 157.45 43.98 169.75 45.00 C 192.73 46.91 205.63 55.35 215.45 74.90 C 221.67 87.29 224.08 95.81 224.68 107.50 C 225.62 125.70 220.86 139.50 209.39 151.90 C 197.10 165.17 185.37 170.89 169.00 171.59 C 162.58 171.87 158.13 171.55 155.29 170.62 Z "/>
</g>
</svg>