<?xml version="1.0" encoding="UTF-8" standalone="no"?>
<!DOCTYPE svg PUBLIC "-//W3C//DTD SVG 1.1//EN" "http://www.w3.org/Graphics/SVG/1.1/DTD/svg11.dtd" >
<svg xmlns="http://www.w3.org/2000/svg" xmlns:xlink="http://www.w3.org/1999/xlink" version="1.1" viewBox="0 0 256 256">
 <g >
 <path fill="currentColor"
d=" M 175.50 244.58 C 186.39 242.18 190.85 240.18 192.52 236.96 C 194.64 232.86 194.40 227.40 192.00 225.00 C 189.45 222.45 188.60 222.49 180.78 225.43 C 170.95 229.13 159.63 230.97 150.79 230.30 C 142.81 229.70 142.06 229.14 142.01 223.84 C 142.00 222.42 142.43 222.33 144.87 223.26 C 147.21 224.14 148.73 223.94 153.12 222.20 C 156.08 221.02 161.54 219.08 165.26 217.89 C 174.17 215.02 177.22 212.21 176.81 207.24 C 176.55 204.11 175.91 203.19 172.89 201.57 C 169.28 199.63 169.28 199.63 156.89 203.92 C 150.08 206.27 143.50 208.83 142.29 209.60 C 139.20 211.55 139.00 211.43 139.00 207.60 C 139.00 204.32 139.18 204.16 144.25 202.98 C 165.89 197.97 182.31 184.88 191.89 165.00 C 195.20 158.13 195.49 156.79 195.43 149.00 C 195.33 137.06 192.34 131.92 180.50 123.32 C 177.50 121.14 177.50 121.14 179.47 117.45 C 180.55 115.43 182.09 113.52 182.89 113.21 C 186.51 111.82 211.40 127.62 221.49 137.71 C 225.85 142.07 227.40 143.00 230.26 143.00 C 232.30 143.00 234.86 142.11 236.48 140.84 C 238.89 138.95 239.16 138.18 238.69 134.59 C 238.25 131.28 237.23 129.68 233.33 126.22 C 225.70 119.45 211.28 109.48 201.77 104.40 C 196.41 101.54 193.29 99.31 193.70 98.62 C 194.06 98.00 196.30 95.00 198.68 91.94 C 201.86 87.84 203.00 85.47 203.00 82.94 C 202.99 78.68 199.66 73.00 197.18 73.00 C 194.42 73.00 186.69 79.43 184.27 83.74 C 183.10 85.82 180.99 88.60 179.58 89.93 C 177.01 92.34 177.01 92.34 165.19 90.53 C 151.64 88.45 145.33 88.93 142.23 92.29 C 139.88 94.83 139.30 97.40 140.27 101.08 C 141.17 104.47 144.78 106.00 151.91 106.00 C 159.51 106.00 167.00 107.05 167.00 108.12 C 167.00 108.58 165.01 111.04 162.58 113.58 C 158.26 118.09 158.05 118.18 153.83 117.41 C 148.07 116.37 136.90 116.67 130.23 118.06 C 127.27 118.67 124.68 119.01 124.48 118.82 C 124.29 118.62 126.13 115.34 128.58 111.54 C 137.08 98.33 139.60 82.09 134.53 73.21 C 128.62 62.88 119.56 54.62 111.00 51.78 C 106.59 50.32 106.50 50.20 106.68 46.21 C 106.78 43.97 108.07 39.29 109.53 35.82 C 115.82 20.94 115.72 21.38 113.50 17.23 C 111.82 14.09 110.91 13.45 107.79 13.19 C 102.73 12.77 100.15 14.40 97.93 19.43 C 95.68 24.52 93.00 35.39 92.13 42.99 C 91.66 47.11 91.06 48.56 89.75 48.81 C 87.62 49.22 87.44 45.16 89.08 33.36 C 91.09 18.96 88.44 12.63 80.66 13.20 C 76.60 13.49 76.46 13.63 74.75 18.78 C 73.72 21.87 72.69 29.31 72.25 36.71 C 71.50 49.36 71.50 49.36 68.50 50.17 C 64.79 51.17 64.29 50.58 58.58 38.45 C 52.72 26.00 48.67 23.05 42.07 26.46 C 35.81 29.70 36.31 31.95 48.76 56.13 C 48.94 56.48 46.70 58.11 43.79 59.76 C 40.88 61.41 36.83 64.39 34.80 66.38 C 32.76 68.37 30.85 70.00 30.55 70.00 C 30.25 70.00 30.00 66.83 30.00 62.95 C 30.00 52.64 27.68 48.98 21.17 49.02 C 15.60 49.05 14.00 52.27 14.00 63.43 C 14.00 74.23 16.68 99.64 18.63 107.37 C 20.81 115.96 25.83 128.15 28.30 130.80 C 31.30 134.02 37.52 133.55 40.23 129.91 C 42.14 127.34 42.13 127.25 39.97 120.11 C 38.14 114.11 37.85 111.20 38.22 102.70 C 38.71 91.24 41.12 84.35 46.96 77.70 C 50.44 73.74 60.13 68.60 66.25 67.47 C 70.00 66.78 70.00 66.78 69.97 71.64 C 69.94 76.13 69.82 76.35 68.47 74.56 C 67.66 73.49 67.00 72.25 67.00 71.81 C 67.00 70.51 58.55 70.88 56.73 72.25 C 53.27 74.86 44.02 98.11 44.01 104.25 C 43.99 110.19 52.57 113.43 56.89 109.11 C 58.91 107.09 62.33 98.68 64.49 90.39 C 65.88 85.06 67.93 81.00 69.24 81.00 C 70.25 81.00 70.16 84.88 68.93 94.00 C 68.23 99.22 68.28 106.52 69.08 118.00 C 70.27 135.18 71.13 138.00 75.15 138.00 C 77.40 138.00 77.42 138.29 75.40 142.19 C 72.63 147.56 70.05 156.36 70.04 160.50 C 70.03 165.28 73.04 177.30 75.29 181.50 C 76.17 183.15 77.93 185.71 79.20 187.20 C 82.00 190.48 95.81 200.00 97.77 200.00 C 98.54 200.00 96.95 201.76 94.22 203.92 C 91.49 206.08 87.11 211.14 84.48 215.17 C 81.85 219.20 78.12 224.86 76.19 227.74 C 72.85 232.73 72.74 233.17 73.87 236.96 C 75.91 243.77 82.58 246.25 86.72 241.75 C 87.86 240.51 90.40 236.27 92.37 232.32 C 94.34 228.38 96.35 224.90 96.84 224.60 C 97.32 224.30 98.53 225.84 99.51 228.02 C 100.68 230.62 102.88 232.98 105.90 234.88 C 112.32 238.93 127.77 244.88 134.70 245.97 C 142.83 247.25 167.13 246.42 175.50 244.58 Z  M 201.37 70.89 C 214.37 69.53 224.21 66.93 233.52 62.39 C 242.14 58.19 247.00 54.14 247.00 51.18 C 247.00 47.81 242.23 43.00 238.89 43.00 C 237.28 43.00 231.58 45.18 226.23 47.85 C 214.40 53.74 210.36 54.79 194.69 56.01 C 162.42 58.52 149.97 55.86 151.63 46.81 C 152.63 41.41 156.43 35.80 162.91 30.16 C 168.46 25.33 169.00 24.51 169.00 20.87 C 169.00 14.25 166.62 11.04 161.69 11.02 C 155.57 10.98 136.83 33.94 135.33 43.31 C 134.97 45.62 134.68 47.62 134.70 47.76 C 134.73 47.91 135.05 50.73 135.42 54.03 C 135.99 59.05 136.66 60.59 139.48 63.41 C 147.78 71.72 168.94 74.27 201.37 70.89 Z  M 119.88 224.05 C 117.34 223.09 113.24 220.74 110.76 218.85 C 106.25 215.41 106.25 215.41 111.12 210.58 C 113.81 207.92 116.00 205.35 116.00 204.87 C 116.00 204.39 117.83 204.00 120.06 204.00 C 124.12 204.00 124.12 204.00 123.45 210.78 C 123.06 214.77 123.23 219.17 123.87 221.47 C 124.46 223.63 124.85 225.48 124.72 225.60 C 124.60 225.72 122.42 225.02 119.88 224.05 Z  M 111.13 187.99 C 97.64 185.13 88.89 174.84 87.34 159.97 C 86.62 153.04 88.30 149.60 94.91 144.44 C 98.35 141.76 100.26 141.00 103.55 141.00 C 105.86 141.00 110.69 139.90 114.27 138.55 C 129.84 132.69 154.03 130.98 166.14 134.87 C 175.25 137.81 180.00 142.92 179.99 149.75 C 179.97 159.51 172.71 169.38 158.68 178.71 C 148.39 185.56 139.78 188.20 126.50 188.59 C 120.45 188.77 113.53 188.50 111.13 187.99 Z  M 86.63 125.34 C 85.62 117.93 85.98 84.13 87.04 86.78 C 88.42 90.21 93.16 93.93 96.19 93.97 C 100.08 94.01 104.33 90.01 104.33 86.32 C 104.33 82.70 101.09 75.72 97.28 71.17 C 94.99 68.43 93.73 67.80 90.25 67.67 C 84.36 67.44 84.51 65.00 90.41 65.00 C 96.92 65.00 105.82 68.12 112.79 72.86 C 120.05 77.79 121.20 79.60 121.15 86.05 C 121.11 91.53 119.65 94.81 113.24 103.86 C 108.38 110.73 106.34 116.91 107.95 119.91 C 108.82 121.53 108.40 121.81 104.31 122.37 C 101.76 122.72 96.89 124.57 93.47 126.48 C 87.26 129.95 87.26 129.95 86.63 125.34 Z "/>
</g>
</svg>