<?xml version="1.0" encoding="UTF-8" standalone="no"?>
<!DOCTYPE svg PUBLIC "-//W3C//DTD SVG 1.1//EN" "http://www.w3.org/Graphics/SVG/1.1/DTD/svg11.dtd" >
<svg xmlns="http://www.w3.org/2000/svg" xmlns:xlink="http://www.w3.org/1999/xlink" version="1.1" viewBox="0 0 256 256">
 <g >
 <path fill="currentColor"
d=" M 169.50 240.97 C 188.86 239.74 195.07 238.83 210.00 235.02 C 216.32 233.41 223.95 231.78 226.95 231.39 C 235.86 230.24 239.15 225.07 235.48 217.96 C 234.65 216.35 232.86 214.75 231.51 214.41 C 230.09 214.06 222.87 215.30 214.28 217.39 C 192.88 222.60 182.72 223.88 152.60 225.18 C 116.75 226.72 107.15 225.78 83.23 218.33 C 74.96 215.75 74.96 215.75 79.49 210.90 C 85.40 204.59 86.09 202.49 85.36 193.22 C 84.46 181.94 81.61 178.33 70.66 174.62 C 69.05 174.07 69.44 173.26 73.75 168.25 C 100.77 136.84 108.65 115.66 105.03 84.16 C 103.20 68.32 96.66 59.40 81.25 51.76 C 72.93 47.63 72.33 47.49 61.54 47.17 C 43.52 46.63 30.65 51.19 19.93 61.91 C 12.73 69.11 9.58 75.04 10.37 79.91 C 11.09 84.31 13.24 86.00 18.12 86.00 C 21.49 86.00 22.32 85.42 26.40 80.23 C 31.52 73.71 38.51 68.03 45.06 65.06 C 50.28 62.69 62.81 62.27 69.38 64.23 C 75.12 65.94 81.02 72.23 85.62 81.54 C 89.39 89.18 89.49 89.67 89.28 98.98 C 88.97 113.03 84.66 125.51 75.13 140.00 C 73.14 143.03 64.42 152.79 55.75 161.70 C 47.09 170.61 40.00 178.39 40.00 179.00 C 40.00 180.59 43.08 186.37 44.39 187.23 C 45.00 187.64 48.88 187.98 53.00 187.99 C 73.83 188.05 75.52 195.84 57.35 208.10 C 48.54 214.05 47.22 216.20 49.30 221.18 C 50.69 224.49 51.54 224.99 63.64 229.44 C 84.13 237.00 96.95 239.75 119.00 241.33 C 129.66 242.09 154.71 241.92 169.50 240.97 Z  M 194.50 212.59 C 206.05 209.64 216.44 204.70 219.34 200.77 C 221.02 198.50 221.21 197.42 220.43 194.36 C 219.90 192.27 218.32 189.81 216.75 188.65 C 214.00 186.61 214.00 186.61 210.25 188.87 C 202.30 193.65 186.80 199.13 185.34 197.67 C 184.96 197.29 187.39 191.53 188.48 190.23 C 188.61 190.07 192.04 189.03 196.11 187.91 C 200.17 186.78 204.51 184.92 205.75 183.76 C 208.80 180.90 208.84 174.86 205.81 172.04 C 203.36 169.76 201.39 169.52 197.43 171.03 C 192.90 172.75 191.00 171.47 191.00 166.68 C 191.01 162.50 191.01 162.50 200.25 160.73 C 205.34 159.75 211.97 157.73 215.00 156.23 C 220.93 153.29 221.73 151.71 220.53 145.32 C 219.52 139.93 216.60 139.40 204.55 142.42 C 189.96 146.08 178.29 147.32 164.02 146.73 C 149.71 146.13 144.07 144.66 136.27 139.48 C 129.81 135.19 126.96 135.38 123.97 140.28 C 119.81 147.10 122.51 151.55 133.94 156.70 C 146.77 162.48 152.87 164.00 163.20 164.00 C 172.85 164.00 173.07 164.05 174.02 166.57 C 174.56 167.98 175.00 170.29 175.00 171.71 C 175.00 174.29 175.00 174.29 167.67 173.67 C 163.63 173.33 155.20 171.44 148.93 169.48 C 142.47 167.45 136.55 166.15 135.28 166.47 C 131.47 167.42 129.59 171.39 130.61 176.28 C 131.34 179.72 132.15 180.81 135.00 182.20 C 140.58 184.90 155.94 189.05 162.78 189.70 C 166.24 190.03 168.91 190.57 168.72 190.90 C 168.53 191.23 167.50 193.41 166.44 195.74 C 164.16 200.73 165.37 200.60 145.50 197.98 C 137.25 196.90 129.45 196.01 128.17 196.00 C 124.48 196.00 120.00 201.17 120.00 205.44 C 120.00 208.54 120.44 209.22 123.25 210.42 C 136.72 216.17 175.78 217.36 194.50 212.59 Z  M 199.00 134.10 C 218.21 127.49 229.67 118.54 236.39 104.89 C 243.93 89.57 244.70 74.66 238.99 54.51 C 233.25 34.29 226.77 24.53 215.70 19.46 C 212.70 18.09 205.10 16.22 197.77 15.04 C 183.58 12.77 179.78 12.56 177.24 13.94 C 176.28 14.45 171.38 15.58 166.35 16.44 C 147.78 19.61 137.12 24.63 128.14 34.43 C 123.03 40.01 114.92 56.51 112.60 66.06 C 110.73 73.72 110.53 85.66 112.12 93.20 C 113.74 100.80 117.14 106.96 123.56 113.90 C 133.36 124.48 144.68 131.39 158.18 135.03 C 168.55 137.82 189.57 137.35 199.00 134.10 Z  M 59.50 41.91 C 61.20 40.24 61.55 38.36 61.83 29.21 C 62.13 19.45 61.97 18.23 60.01 15.74 C 58.27 13.52 57.04 13.00 53.62 13.00 C 46.28 13.00 45.53 14.23 45.28 26.67 C 45.16 32.63 45.55 38.72 46.13 40.20 C 48.06 45.07 55.33 46.00 59.50 41.91 Z  M 165.50 119.96 C 149.71 116.72 139.23 108.74 131.97 94.43 C 128.61 87.80 128.50 87.24 128.50 76.05 C 128.50 65.48 128.73 64.08 131.15 59.50 C 134.95 52.33 144.80 41.02 150.03 37.81 C 156.88 33.59 166.00 31.64 175.50 32.34 C 179.90 32.67 185.28 32.53 187.45 32.03 C 190.59 31.31 193.10 31.62 199.78 33.55 C 204.39 34.89 209.44 36.89 210.99 37.99 C 214.97 40.83 220.86 50.09 224.28 58.91 C 227.01 65.93 227.18 67.15 226.80 77.46 C 226.45 87.19 226.07 89.15 223.57 93.99 C 217.98 104.77 204.16 115.26 190.07 119.40 C 184.33 121.09 172.34 121.36 165.50 119.96 Z "/>
</g>
</svg>