<?xml version="1.0" encoding="UTF-8" standalone="no"?>
<!DOCTYPE svg PUBLIC "-//W3C//DTD SVG 1.1//EN" "http://www.w3.org/Graphics/SVG/1.1/DTD/svg11.dtd" >
<svg xmlns="http://www.w3.org/2000/svg" xmlns:xlink="http://www.w3.org/1999/xlink" version="1.1" viewBox="0 0 256 256">
 <g >
 <path fill="currentColor"
d=" M 45.72 238.33 C 51.07 235.79 54.64 229.89 58.91 216.52 C 63.41 202.45 64.38 196.97 67.39 168.50 C 69.60 147.50 69.60 147.50 71.37 151.14 C 73.87 156.33 79.87 163.04 83.28 164.48 C 86.20 165.70 86.20 165.70 83.71 167.60 C 82.34 168.65 80.47 169.95 79.56 170.50 C 78.10 171.38 78.45 172.25 82.45 177.73 C 86.86 183.78 91.23 186.93 97.18 188.36 C 102.93 189.74 111.43 184.22 117.73 175.02 C 122.19 168.50 122.19 168.50 121.34 178.50 C 120.88 184.00 120.54 193.68 120.60 200.00 C 120.71 213.67 122.56 219.86 129.61 230.23 C 134.18 236.95 134.18 236.95 143.34 228.86 C 154.22 219.24 159.83 215.83 170.30 212.49 C 180.29 209.30 188.43 209.33 199.20 212.59 C 201.63 213.33 204.41 207.36 206.45 197.00 C 209.35 182.34 212.82 170.30 215.92 164.15 C 218.91 158.23 218.91 158.23 213.42 154.58 C 207.54 150.67 204.38 146.47 203.39 141.24 C 203.05 139.45 202.39 137.74 201.92 137.45 C 201.45 137.16 199.15 137.90 196.80 139.10 C 192.12 141.49 175.00 143.20 175.00 141.28 C 175.00 138.22 180.21 115.37 181.52 112.68 C 185.18 105.15 187.22 104.11 199.73 103.39 C 216.80 102.40 221.43 99.79 226.80 88.09 C 229.60 82.00 231.04 69.76 229.10 68.56 C 228.47 68.17 224.25 70.15 219.73 72.96 C 209.72 79.16 192.60 87.71 188.50 88.55 C 185.50 89.16 185.50 89.16 188.00 87.06 C 189.38 85.91 194.10 82.76 198.50 80.06 C 207.24 74.71 210.34 71.88 211.86 67.88 C 212.89 65.15 212.14 60.00 210.16 56.30 C 208.65 53.47 204.17 50.00 202.03 50.00 C 200.34 50.00 198.00 53.78 198.00 56.51 C 198.00 58.29 187.23 79.57 185.66 80.87 C 184.79 81.59 184.59 80.19 184.84 75.34 C 185.28 66.89 184.58 64.42 180.76 60.93 C 177.61 58.05 177.61 58.05 179.99 55.51 C 183.08 52.22 191.23 48.39 198.98 46.58 C 202.35 45.79 205.76 44.61 206.56 43.95 C 210.04 41.06 206.05 30.20 200.53 27.58 C 194.74 24.84 189.86 25.57 177.19 31.11 C 163.29 37.18 150.81 40.53 135.95 42.18 C 126.30 43.26 124.21 43.20 117.79 41.66 C 110.91 40.00 110.47 40.00 109.27 41.65 C 108.57 42.61 108.00 46.15 108.00 49.55 C 108.00 63.24 111.43 71.72 118.86 76.41 C 122.52 78.72 122.74 79.16 123.28 85.16 C 123.77 90.59 124.29 91.87 126.94 94.24 C 129.63 96.64 130.86 97.00 136.38 97.00 C 145.23 97.00 148.36 94.36 151.43 84.31 C 152.06 82.23 151.82 82.12 146.80 82.24 C 143.88 82.31 140.16 81.81 138.53 81.12 C 135.56 79.88 135.56 79.88 140.53 77.15 C 143.26 75.64 147.51 72.95 149.96 71.16 C 157.95 65.34 161.35 68.44 160.73 81.00 C 160.32 89.30 158.76 93.41 155.00 96.13 C 151.19 98.88 140.03 100.24 127.45 99.46 C 116.41 98.79 116.41 98.79 113.80 102.72 C 108.12 111.31 103.88 121.07 104.19 124.83 C 104.66 130.46 107.64 130.18 119.00 123.44 C 135.26 113.80 134.60 113.91 129.73 121.74 C 127.08 126.00 120.02 133.96 110.63 143.28 C 102.43 151.41 95.61 157.94 95.45 157.78 C 95.30 157.63 96.26 154.28 97.58 150.34 C 99.75 143.88 102.69 124.42 101.84 122.12 C 101.65 121.61 98.61 122.95 95.07 125.10 C 81.12 133.56 70.79 127.92 72.26 112.64 C 72.82 106.85 71.65 108.06 91.46 92.74 C 106.06 81.47 108.17 78.72 106.84 72.76 C 104.41 61.83 98.03 53.23 94.16 55.67 C 93.26 56.24 90.91 60.48 88.93 65.10 C 85.59 72.91 74.47 92.00 73.26 92.00 C 72.61 92.00 73.80 78.21 74.99 72.00 C 76.95 61.82 79.30 37.32 78.59 34.50 C 77.62 30.63 70.23 23.56 65.53 22.01 C 60.73 20.43 55.38 21.48 53.47 24.40 C 52.18 26.37 52.10 28.92 52.93 42.10 C 53.46 50.57 54.21 65.83 54.59 76.01 C 55.24 93.58 55.17 94.74 53.19 98.64 C 50.81 103.28 49.17 103.98 40.50 103.96 C 33.08 103.95 27.62 101.61 23.14 96.51 C 20.58 93.60 19.60 93.02 18.96 94.07 C 17.54 96.36 16.69 107.89 17.31 116.43 C 18.59 134.27 21.47 140.00 29.15 140.00 C 32.95 140.00 33.91 139.46 38.46 134.75 C 41.25 131.86 45.65 125.90 48.23 121.50 C 50.82 117.10 53.36 112.83 53.88 112.00 C 54.52 110.99 54.69 112.29 54.41 116.00 C 51.97 148.32 50.54 155.76 44.10 169.52 C 40.00 178.27 35.34 184.26 30.77 186.62 C 28.90 187.58 24.78 188.18 19.38 188.25 C 10.92 188.37 10.92 188.37 11.45 190.93 C 11.74 192.34 12.66 197.51 13.49 202.42 C 18.01 228.96 25.01 239.99 37.35 240.00 C 40.02 240.00 43.78 239.25 45.72 238.33 Z  M 226.47 131.58 C 232.01 129.26 239.81 116.88 241.54 107.63 C 242.34 103.36 241.89 103.25 232.50 105.52 C 228.50 106.48 220.89 106.97 209.72 106.98 C 190.28 107.00 190.13 107.08 194.25 115.37 C 197.72 122.37 203.11 128.35 208.23 130.88 C 213.26 133.38 221.42 133.69 226.47 131.58 Z  M 143.06 201.57 C 141.48 199.67 141.41 194.83 142.92 191.20 C 144.22 188.06 147.60 186.00 151.47 186.00 C 156.26 186.00 157.00 186.89 157.00 192.65 C 157.00 197.25 156.59 198.47 154.35 200.55 C 151.33 203.35 145.01 203.92 143.06 201.57 Z  M 172.99 194.98 C 169.82 189.06 181.58 180.41 186.91 184.73 C 189.09 186.49 189.13 186.75 187.72 190.14 C 185.35 195.81 175.22 199.14 172.99 194.98 Z  M 146.57 172.43 C 144.52 170.38 144.59 169.18 147.00 165.23 C 151.25 158.26 157.00 158.77 157.00 166.12 C 157.00 172.65 150.64 176.49 146.57 172.43 Z  M 177.11 168.09 C 175.95 167.36 176.08 166.60 177.86 163.72 C 180.51 159.43 185.11 157.30 188.84 158.61 C 191.02 159.38 191.50 160.17 191.50 162.99 C 191.50 165.67 190.94 166.73 189.00 167.71 C 186.12 169.16 179.16 169.38 177.11 168.09 Z  M 151.00 140.36 C 146.54 138.92 140.00 135.52 140.00 134.64 C 140.00 130.43 153.93 113.00 157.30 113.00 C 158.61 113.00 157.22 123.05 155.01 129.47 C 153.23 134.63 153.24 134.86 155.08 137.89 C 156.97 141.00 156.97 141.00 154.74 140.92 C 153.51 140.88 151.82 140.62 151.00 140.36 Z "/>
</g>
</svg>