<?xml version="1.0" encoding="UTF-8" standalone="no"?>
<!DOCTYPE svg PUBLIC "-//W3C//DTD SVG 1.1//EN" "http://www.w3.org/Graphics/SVG/1.1/DTD/svg11.dtd" >
<svg xmlns="http://www.w3.org/2000/svg" xmlns:xlink="http://www.w3.org/1999/xlink" version="1.1" viewBox="0 0 256 256">
 <g >
 <path fill="currentColor"
d=" M 83.41 225.00 C 83.91 224.18 86.67 220.57 89.54 217.00 C 96.56 208.27 102.75 198.51 103.37 195.20 C 103.64 193.72 104.15 190.39 104.49 187.81 C 105.10 183.15 105.15 183.10 110.30 181.59 C 115.86 179.96 122.34 175.13 129.34 167.40 C 131.81 164.67 134.11 162.95 134.76 163.35 C 136.67 164.53 137.23 172.27 136.27 184.23 C 134.70 203.73 137.10 215.68 144.26 224.14 C 146.50 226.78 146.50 226.78 156.93 219.35 C 172.04 208.59 181.19 204.37 194.00 202.27 C 199.78 201.32 204.83 200.08 205.23 199.52 C 205.64 198.96 205.98 196.70 206.00 194.50 C 206.08 184.43 210.21 173.59 218.96 160.50 C 221.54 156.65 223.94 153.00 224.29 152.40 C 224.67 151.75 221.67 149.17 217.06 146.16 C 211.05 142.25 208.74 140.08 207.34 137.04 C 206.33 134.85 205.03 133.04 204.47 133.03 C 203.90 133.01 200.75 133.95 197.47 135.11 C 188.94 138.13 167.91 139.00 161.61 136.59 C 159.17 135.66 156.91 134.21 156.58 133.36 C 155.32 130.06 171.01 118.68 178.34 117.58 C 184.55 116.65 194.98 118.54 205.71 122.56 C 216.30 126.52 221.55 126.84 227.98 123.92 C 233.43 121.45 235.54 119.64 238.64 114.75 C 242.77 108.26 245.39 93.80 243.39 88.58 C 242.38 85.95 238.50 86.75 224.67 92.41 C 217.40 95.39 208.54 98.75 204.98 99.88 C 197.67 102.19 180.06 105.39 179.22 104.56 C 178.92 104.25 179.20 102.86 179.84 101.46 C 180.48 100.05 181.00 98.06 181.00 97.03 C 181.00 94.39 170.21 86.02 166.79 86.01 C 163.56 86.00 162.99 86.59 158.20 94.95 C 156.03 98.72 153.20 102.15 151.35 103.23 C 146.77 105.90 127.93 106.71 118.50 104.64 C 111.50 103.11 111.50 103.11 108.00 105.89 C 104.56 108.62 97.06 120.93 94.39 128.22 C 93.44 130.83 93.32 132.70 93.99 134.47 C 95.55 138.59 100.40 137.85 114.11 131.41 C 125.50 126.06 134.26 123.04 138.45 123.01 C 140.06 123.00 139.71 123.72 136.45 127.10 C 125.17 138.80 101.22 150.30 72.20 157.97 C 67.52 159.20 67.51 159.26 70.56 166.73 C 72.19 170.70 80.42 179.65 84.30 181.66 C 85.88 182.47 89.92 183.45 93.28 183.82 C 99.38 184.50 99.38 184.50 95.95 188.41 C 89.06 196.25 77.51 199.18 70.98 194.75 C 64.72 190.49 63.49 186.41 63.54 170.00 C 63.58 157.44 63.88 154.75 65.80 149.91 C 69.58 140.41 75.08 132.53 86.25 120.62 C 92.16 114.32 97.00 108.93 97.00 108.65 C 97.00 108.36 95.56 105.82 93.80 102.99 C 90.98 98.45 90.56 96.82 90.19 89.03 C 89.77 80.22 89.77 80.22 75.63 79.79 C 59.29 79.30 52.49 77.42 31.63 67.59 C 17.56 60.97 14.82 60.63 12.87 65.25 C 11.12 69.40 11.15 83.74 12.93 90.89 C 14.62 97.71 21.49 105.25 27.50 106.89 C 33.80 108.62 44.63 108.21 52.69 105.95 C 56.72 104.82 60.46 104.17 61.01 104.50 C 63.06 105.77 61.80 109.89 55.04 123.99 C 47.51 139.68 37.92 164.94 35.39 175.76 C 34.25 180.61 33.92 185.87 34.20 194.50 C 34.54 204.81 34.96 207.30 37.21 212.18 C 43.17 225.12 59.84 237.61 74.88 240.40 C 81.50 241.63 81.50 241.63 82.00 234.06 C 82.28 229.90 82.91 225.82 83.41 225.00 Z  M 154.57 89.02 C 153.66 79.77 155.36 76.00 161.83 72.93 C 168.18 69.91 179.92 69.07 182.31 71.45 C 184.78 73.92 184.39 79.47 181.41 84.57 C 179.24 88.26 179.06 89.09 180.32 89.57 C 182.76 90.51 187.91 87.21 195.97 79.53 C 200.13 75.56 204.61 71.74 205.91 71.05 C 207.53 70.18 211.51 69.89 218.39 70.14 C 228.50 70.50 228.50 70.50 228.80 65.94 C 229.02 62.47 228.58 60.73 226.92 58.62 C 224.82 55.96 224.45 55.87 216.87 56.18 C 212.54 56.36 209.00 56.09 209.00 55.59 C 209.00 55.09 210.32 52.61 211.93 50.09 C 216.47 42.97 216.73 40.58 213.34 37.19 C 210.09 33.94 198.54 29.69 194.29 30.18 C 191.24 30.53 191.44 30.00 188.54 45.44 C 187.72 49.80 186.35 54.08 185.49 54.94 C 184.24 56.19 181.93 56.44 173.96 56.22 C 157.49 55.77 156.12 54.49 158.08 41.36 C 159.26 33.40 159.22 32.77 157.33 30.21 C 153.96 25.65 147.82 22.91 139.61 22.29 C 131.07 21.64 127.73 22.27 124.97 25.03 C 121.93 28.07 122.53 32.21 127.03 39.17 C 131.17 45.57 132.75 49.59 131.58 50.75 C 131.22 51.11 127.11 49.52 122.45 47.20 C 109.78 40.92 106.40 41.70 103.43 51.56 C 101.41 58.27 101.61 66.31 103.90 70.81 C 106.96 76.79 111.24 78.32 126.30 78.80 C 139.10 79.20 139.10 79.20 140.66 83.11 C 142.32 87.26 151.19 96.00 153.74 96.00 C 155.02 96.00 155.15 94.90 154.57 89.02 Z  M 77.00 55.26 C 82.79 53.36 100.19 41.72 98.89 40.62 C 98.68 40.44 92.42 37.38 85.00 33.83 C 77.58 30.28 67.24 24.59 62.04 21.19 C 50.87 13.89 47.59 13.32 43.63 18.03 C 40.53 21.71 39.57 26.30 40.27 34.04 C 40.97 41.73 44.83 50.01 49.32 53.43 C 55.26 57.96 66.51 58.70 77.00 55.26 Z  M 168.83 183.97 C 166.31 182.50 163.64 174.60 164.30 170.56 C 165.80 161.28 170.11 157.21 179.36 156.35 C 189.71 155.39 195.22 161.61 192.95 171.70 C 191.63 177.61 188.57 181.87 184.38 183.61 C 180.58 185.20 171.31 185.41 168.83 183.97 Z "/>
</g>
</svg>