<?xml version="1.0" encoding="UTF-8" standalone="no"?>
<!DOCTYPE svg PUBLIC "-//W3C//DTD SVG 1.1//EN" "http://www.w3.org/Graphics/SVG/1.1/DTD/svg11.dtd" >
<svg xmlns="http://www.w3.org/2000/svg" xmlns:xlink="http://www.w3.org/1999/xlink" version="1.1" viewBox="0 0 255 256">
 <g >
 <path fill="currentColor"
d=" M 78.34 217.25 C 81.71 204.82 82.04 199.01 80.86 173.50 C 79.76 149.93 79.81 147.91 81.68 138.25 C 82.77 132.61 83.29 128.00 82.83 128.00 C 80.89 128.00 82.28 122.40 86.13 114.73 C 88.40 110.20 94.48 99.48 99.63 90.89 C 104.78 82.31 109.00 74.80 109.00 74.20 C 109.00 71.13 106.70 72.66 102.52 78.52 C 97.86 85.05 97.86 85.05 96.06 82.83 C 94.40 80.78 93.89 80.69 89.55 81.68 C 85.85 82.53 84.74 82.48 84.35 81.47 C 84.08 80.76 85.01 73.89 86.43 66.20 C 87.84 58.51 89.00 51.53 89.00 50.69 C 89.00 48.09 83.99 43.04 78.62 40.21 C 74.04 37.81 72.42 37.52 63.30 37.51 C 49.69 37.50 48.27 38.83 57.33 43.07 C 63.79 46.09 64.04 46.35 65.44 51.34 C 67.09 57.28 68.80 71.12 69.21 82.00 C 69.50 89.50 69.50 89.50 59.00 92.19 C 53.22 93.68 45.94 94.91 42.81 94.94 C 39.68 94.98 36.86 95.41 36.55 95.91 C 35.85 97.05 44.49 103.47 49.59 105.60 C 52.35 106.75 55.74 107.10 61.95 106.85 C 70.50 106.50 70.50 106.50 71.39 111.11 C 72.28 115.72 72.28 115.72 61.45 131.61 C 55.49 140.35 48.05 150.90 44.92 155.05 C 36.77 165.84 31.00 175.01 31.00 177.18 C 31.00 178.31 32.84 180.21 35.70 182.02 C 39.56 184.47 41.46 185.00 46.37 185.00 C 52.15 185.00 52.48 185.15 56.67 189.52 C 59.29 192.25 62.95 198.08 65.94 204.27 C 71.01 214.78 74.03 219.00 76.47 219.00 C 77.24 219.00 78.08 218.21 78.34 217.25 Z  M 93.19 168.62 C 97.42 166.77 107.09 161.43 114.69 156.75 C 122.28 152.08 130.43 147.27 132.80 146.08 C 142.26 141.30 148.00 133.79 148.00 126.17 C 148.00 118.89 143.86 116.80 129.71 116.93 C 119.92 117.02 119.92 117.02 113.21 122.15 C 99.83 132.38 97.65 135.71 104.95 134.73 C 107.23 134.43 109.57 134.70 110.50 135.37 C 111.91 136.41 111.51 137.37 107.14 143.52 C 104.42 147.36 97.87 154.77 92.59 159.98 C 79.60 172.82 79.72 174.50 93.19 168.62 Z  M 63.25 174.46 C 60.91 173.04 59.00 171.54 59.00 171.12 C 59.00 168.94 69.84 141.55 70.84 141.22 C 71.69 140.94 72.00 145.36 72.00 157.92 C 72.00 167.31 72.01 175.34 72.03 175.75 C 72.11 177.55 67.15 176.82 63.25 174.46 Z  M 82.01 101.46 C 82.02 99.19 82.83 97.98 85.50 96.25 C 92.33 91.83 92.85 93.77 86.50 100.00 C 82.00 104.42 82.00 104.42 82.01 101.46 Z "/>
</g>
</svg>