<?xml version="1.0" encoding="UTF-8" standalone="no"?>
<!DOCTYPE svg PUBLIC "-//W3C//DTD SVG 1.1//EN" "http://www.w3.org/Graphics/SVG/1.1/DTD/svg11.dtd" >
<svg xmlns="http://www.w3.org/2000/svg" xmlns:xlink="http://www.w3.org/1999/xlink" version="1.1" viewBox="0 0 250 256">
 <g >
 <path fill="currentColor"
d=" M 216.00 215.25 C 220.83 212.84 221.28 208.53 217.19 203.85 C 212.22 198.14 207.58 186.49 207.82 180.28 C 207.94 176.88 206.96 176.09 205.26 178.25 C 204.72 178.94 203.28 182.83 202.06 186.90 C 200.60 191.81 198.84 195.31 196.86 197.29 C 193.98 200.17 193.64 200.26 187.19 199.66 C 177.43 198.76 167.89 193.78 160.22 185.57 C 151.78 176.55 148.31 166.73 147.75 150.30 C 147.40 140.07 147.59 139.98 161.32 143.82 C 173.58 147.25 176.93 147.62 180.32 145.88 C 183.78 144.09 187.00 140.80 187.00 139.03 C 187.00 137.28 179.80 129.90 176.39 128.16 C 174.46 127.17 162.12 129.12 148.61 132.55 C 145.72 133.29 145.72 133.29 146.44 123.89 C 146.84 118.73 147.60 114.05 148.14 113.50 C 148.72 112.91 156.47 112.50 167.19 112.50 C 182.65 112.50 185.41 112.27 186.28 110.90 C 189.07 106.52 182.37 99.53 173.89 97.98 C 170.44 97.35 168.23 97.84 159.83 101.12 C 154.34 103.25 149.48 105.00 149.02 105.00 C 146.87 105.00 151.49 78.93 156.06 65.34 C 158.22 58.88 160.00 52.29 160.00 50.70 C 160.00 46.89 154.69 41.56 149.45 40.11 C 145.24 38.94 130.22 38.59 127.58 39.61 C 125.41 40.44 125.60 41.74 128.01 42.50 C 130.33 43.24 132.66 47.34 134.83 54.50 C 136.04 58.51 136.40 67.13 136.64 98.00 C 137.06 152.10 138.92 168.91 146.04 182.84 C 150.88 192.30 157.60 199.09 168.87 205.90 C 182.55 214.15 190.83 216.70 204.50 216.89 C 210.29 216.97 213.47 216.51 216.00 215.25 Z  M 79.52 187.25 C 88.10 178.20 96.19 154.35 97.54 134.17 C 98.26 123.28 100.67 111.74 104.30 101.74 C 107.25 93.63 106.17 92.06 101.30 97.37 C 97.92 101.06 97.92 101.06 96.57 97.78 C 95.82 95.98 94.67 91.80 94.01 88.50 C 93.34 85.20 91.89 81.02 90.79 79.21 C 88.58 75.59 79.79 70.02 76.25 70.01 C 73.26 70.00 73.36 71.62 76.96 82.21 C 79.63 90.08 82.83 107.51 81.78 108.55 C 81.55 108.79 79.85 107.86 78.00 106.50 C 71.95 102.03 69.66 102.24 57.09 108.41 C 50.86 111.47 46.38 114.17 47.13 114.41 C 47.88 114.65 50.30 115.13 52.50 115.47 C 54.70 115.82 58.71 116.81 61.40 117.68 C 65.08 118.87 68.27 119.10 74.15 118.61 C 82.00 117.95 82.00 117.95 82.00 120.84 C 82.00 125.28 67.36 138.97 59.41 141.96 C 50.53 145.30 47.89 145.49 42.59 143.14 C 37.34 140.82 35.80 141.85 38.07 146.17 C 42.15 153.96 48.71 159.00 54.74 159.00 C 59.07 159.00 69.25 153.54 75.40 147.92 C 78.36 145.21 81.05 143.00 81.39 143.00 C 82.70 143.00 81.90 149.91 79.90 155.82 C 77.79 162.07 75.16 165.00 71.65 165.00 C 69.86 165.00 69.77 165.67 70.20 175.25 C 70.45 180.89 71.20 186.51 71.86 187.75 C 73.49 190.77 76.36 190.59 79.52 187.25 Z "/>
</g>
</svg>