<?xml version="1.0" encoding="UTF-8" standalone="no"?>
<!DOCTYPE svg PUBLIC "-//W3C//DTD SVG 1.1//EN" "http://www.w3.org/Graphics/SVG/1.1/DTD/svg11.dtd" >
<svg xmlns="http://www.w3.org/2000/svg" xmlns:xlink="http://www.w3.org/1999/xlink" version="1.1" viewBox="0 0 250 256">
 <g >
 <path fill="currentColor"
d=" M 38.63 227.09 C 42.91 224.48 48.33 218.91 53.71 211.62 C 59.79 203.36 62.10 198.55 66.47 185.00 C 70.28 173.18 78.99 139.76 78.99 136.89 C 79.00 136.01 82.60 132.03 87.00 128.06 C 91.40 124.09 95.00 120.42 95.00 119.92 C 95.00 118.42 92.19 118.86 87.96 121.02 C 83.29 123.40 83.44 124.27 85.87 108.71 C 87.39 98.97 88.15 96.44 90.23 94.21 C 95.08 89.01 95.40 87.39 92.36 83.41 C 90.23 80.62 89.93 79.66 90.97 79.02 C 95.61 76.15 145.33 64.77 163.00 62.54 C 176.48 60.83 184.34 58.94 187.48 56.64 C 189.12 55.44 189.29 54.72 188.47 52.35 C 186.81 47.53 181.71 45.84 167.11 45.24 C 153.41 44.69 152.54 44.89 145.96 50.16 C 144.01 51.72 136.81 55.00 129.96 57.44 C 119.81 61.06 114.16 62.36 99.50 64.45 C 78.82 67.39 59.96 69.02 55.25 68.28 C 51.19 67.65 51.02 69.17 54.75 72.68 C 58.15 75.88 62.07 77.55 68.27 78.44 C 75.17 79.44 76.43 81.73 74.97 90.65 C 73.11 101.99 72.24 104.00 69.17 104.03 C 60.49 104.13 41.87 106.00 40.09 106.95 C 33.68 110.38 44.05 117.57 59.73 120.58 C 63.98 121.39 67.83 122.43 68.30 122.90 C 68.76 123.36 69.00 125.25 68.82 127.09 C 68.52 130.26 68.11 130.59 61.00 133.26 C 49.63 137.54 30.26 143.00 26.48 143.00 C 21.53 143.00 21.46 144.43 26.24 148.31 C 33.11 153.90 37.24 155.99 41.35 156.00 C 45.37 156.00 53.21 152.58 58.63 148.46 C 60.35 147.16 61.98 146.31 62.25 146.59 C 62.53 146.86 61.46 153.32 59.87 160.94 C 55.23 183.28 45.97 207.76 36.66 222.32 C 34.65 225.47 33.00 228.26 33.00 228.52 C 33.00 229.57 35.66 228.89 38.63 227.09 Z  M 98.02 224.59 C 101.01 223.81 103.73 223.34 104.06 223.54 C 104.38 223.74 116.99 222.58 132.07 220.97 C 148.37 219.23 165.18 218.03 173.50 218.01 C 188.55 217.97 192.27 217.06 192.81 213.28 C 193.99 205.08 177.82 199.48 159.92 201.89 C 155.38 202.50 151.46 202.80 151.21 202.55 C 150.96 202.30 151.30 199.19 151.97 195.65 C 153.19 189.21 153.19 189.21 161.88 186.10 C 172.90 182.16 175.21 180.58 174.81 177.25 C 174.33 173.32 170.37 171.05 162.74 170.34 C 156.22 169.73 156.00 169.62 156.00 166.98 C 156.00 164.80 154.93 163.51 150.75 160.65 C 144.49 156.36 137.36 153.70 134.25 154.47 C 133.01 154.78 132.00 154.79 132.00 154.48 C 132.00 154.17 133.75 151.57 135.89 148.71 C 138.03 145.84 140.78 141.49 142.02 139.03 C 144.26 134.56 144.26 134.56 162.38 153.03 C 172.35 163.19 183.95 175.78 188.16 181.00 C 196.25 191.05 203.63 197.39 209.77 199.58 C 215.46 201.61 241.00 201.11 241.00 198.97 C 241.00 198.56 236.23 195.44 230.40 192.04 C 216.38 183.86 197.07 170.78 184.09 160.68 C 172.99 152.05 153.00 133.16 153.00 131.31 C 153.00 130.70 154.61 129.57 156.58 128.78 C 159.83 127.49 161.44 127.59 173.59 129.86 C 186.27 132.22 187.21 132.27 190.42 130.74 C 192.30 129.84 194.14 128.14 194.52 126.95 C 195.74 123.10 192.99 121.74 181.79 120.67 C 171.50 119.68 171.50 119.68 178.25 112.95 C 183.05 108.15 185.00 105.47 185.00 103.66 C 185.00 100.41 183.92 99.79 176.00 98.42 C 170.96 97.56 168.72 97.59 166.00 98.57 C 164.07 99.27 160.83 100.12 158.78 100.46 C 156.59 100.82 154.42 101.99 153.52 103.28 C 152.09 105.31 152.14 105.60 154.14 107.11 C 156.99 109.25 156.27 114.03 151.99 121.53 C 147.10 130.07 146.47 129.03 146.69 112.79 C 146.88 98.58 146.88 98.58 155.19 95.97 C 169.96 91.33 173.28 88.19 167.45 84.38 C 165.29 82.96 163.25 82.81 154.08 83.36 C 143.26 84.02 143.26 84.02 142.63 80.08 C 141.63 73.80 138.47 72.00 128.49 72.00 C 118.98 72.00 118.02 72.64 117.25 79.50 C 116.81 83.42 116.98 84.00 118.62 84.00 C 121.28 84.01 127.00 87.69 127.00 89.40 C 127.00 91.06 121.55 93.03 107.60 96.40 C 102.23 97.70 97.38 99.22 96.81 99.79 C 94.46 102.14 100.52 103.39 116.25 103.82 C 132.00 104.24 132.00 104.24 131.98 114.37 C 131.97 126.54 131.47 127.71 126.96 126.14 C 125.17 125.51 122.60 125.00 121.24 125.00 C 119.28 125.00 118.94 124.65 119.54 123.25 C 119.95 122.29 120.85 119.47 121.54 117.00 C 123.20 111.05 122.03 109.89 113.34 108.84 C 105.40 107.88 100.30 108.99 97.14 112.35 C 94.92 114.72 94.92 114.72 97.21 116.18 C 98.47 116.99 100.29 117.94 101.25 118.29 C 105.11 119.71 102.67 124.24 92.13 135.25 C 88.58 138.96 86.33 142.00 87.13 142.00 C 90.33 142.00 100.74 138.76 104.76 136.51 C 108.93 134.18 109.16 134.16 114.27 135.69 C 117.15 136.56 121.41 137.32 123.75 137.38 C 126.09 137.45 128.00 137.75 128.00 138.05 C 128.00 138.36 126.72 140.61 125.15 143.05 C 118.82 152.93 104.15 164.24 87.16 172.35 C 80.17 175.68 79.00 176.54 81.08 176.79 C 86.18 177.40 98.31 173.99 108.92 168.95 C 119.53 163.91 119.80 163.84 122.81 165.40 C 126.99 167.56 129.00 170.73 129.00 175.14 C 129.00 179.30 129.59 178.98 114.50 183.01 C 94.30 188.40 84.00 192.05 84.01 193.78 C 84.02 196.20 93.77 196.44 113.77 194.52 C 122.42 193.69 129.81 193.01 130.19 193.00 C 130.57 193.00 130.88 196.03 130.88 199.74 C 130.88 208.17 129.87 209.38 120.59 212.06 C 106.84 216.05 92.37 221.05 90.20 222.57 C 85.23 226.05 88.80 226.98 98.02 224.59 Z  M 146.95 41.70 C 152.45 39.07 149.93 32.19 142.23 28.78 C 138.24 27.01 136.43 26.83 128.56 27.41 C 116.83 28.27 99.60 30.81 96.18 32.18 C 93.51 33.24 93.52 33.26 98.89 35.66 C 104.55 38.21 116.18 41.64 123.92 43.05 C 129.73 44.11 143.60 43.30 146.95 41.70 Z "/>
</g>
</svg>