<?xml version="1.0" encoding="UTF-8" standalone="no"?>
<!DOCTYPE svg PUBLIC "-//W3C//DTD SVG 1.1//EN" "http://www.w3.org/Graphics/SVG/1.1/DTD/svg11.dtd" >
<svg xmlns="http://www.w3.org/2000/svg" xmlns:xlink="http://www.w3.org/1999/xlink" version="1.1" viewBox="0 0 250 256">
 <g >
 <path fill="currentColor"
d=" M 191.37 230.37 C 191.29 228.64 189.75 224.98 187.95 222.22 C 184.70 217.26 184.49 217.14 168.77 210.91 C 160.03 207.45 152.68 204.30 152.44 203.90 C 151.83 202.92 163.94 194.05 166.93 193.30 C 168.27 192.97 176.68 193.48 185.62 194.44 C 203.25 196.33 206.04 196.11 213.29 192.21 C 218.57 189.38 218.93 187.78 214.96 184.82 C 209.73 180.92 202.39 179.90 187.34 180.98 C 167.51 182.41 168.00 182.45 168.00 179.53 C 168.00 176.15 162.83 170.55 157.86 168.56 C 154.03 167.03 153.62 167.03 151.90 168.59 C 150.36 169.98 150.16 171.20 150.66 176.02 C 151.19 181.14 151.03 181.91 149.23 182.88 C 146.95 184.10 128.01 187.35 127.30 186.64 C 127.05 186.39 128.68 182.84 130.92 178.76 C 133.17 174.67 135.00 170.60 135.00 169.70 C 135.00 168.63 136.45 167.70 139.25 166.96 C 149.74 164.21 157.94 161.57 163.25 159.25 C 168.28 157.04 169.00 156.38 169.00 153.92 C 169.00 152.38 168.49 150.81 167.88 150.42 C 167.23 150.02 168.31 149.19 170.44 148.46 C 180.31 145.07 180.57 137.93 171.00 132.95 C 169.62 132.23 166.08 130.89 163.13 129.98 C 157.76 128.31 157.76 128.31 150.33 132.15 C 146.24 134.27 141.54 136.00 139.89 136.00 C 137.03 136.00 136.89 135.81 137.19 132.31 C 137.49 128.72 137.66 128.57 143.00 127.28 C 146.03 126.54 151.54 125.04 155.25 123.94 C 161.62 122.05 162.00 121.78 162.00 118.97 C 162.00 117.32 161.10 115.10 159.97 113.97 C 158.02 112.02 158.01 111.86 159.72 109.60 C 161.01 107.88 163.22 106.94 167.99 106.06 C 175.97 104.60 183.00 101.60 183.00 99.68 C 183.00 96.62 180.19 95.73 172.01 96.21 C 164.03 96.67 164.03 96.67 168.01 93.26 C 172.50 89.41 173.07 86.67 169.75 84.81 C 167.17 83.36 145.31 83.00 140.50 84.33 C 137.77 85.08 137.39 84.88 136.38 82.19 C 135.61 80.17 134.12 78.81 131.68 77.93 C 128.76 76.87 128.04 76.07 127.80 73.57 C 127.36 69.03 122.64 67.00 112.54 67.00 C 104.58 67.00 104.58 67.00 109.54 61.92 C 114.24 57.11 114.73 56.86 118.75 57.30 C 123.85 57.85 126.00 59.42 126.00 62.62 C 126.00 64.31 126.56 65.00 127.95 65.00 C 130.17 65.00 141.53 59.20 153.75 51.84 C 162.34 46.66 166.00 46.14 166.00 50.09 C 166.00 52.67 168.95 53.70 178.60 54.46 C 188.18 55.22 191.50 53.97 191.50 49.58 C 191.50 45.69 187.89 43.18 180.17 41.72 C 175.25 40.78 174.10 40.22 174.61 39.02 C 176.40 34.81 176.11 33.27 173.05 30.70 C 165.18 24.08 148.00 24.35 148.00 31.10 C 148.00 32.08 148.45 33.16 149.00 33.50 C 150.95 34.71 149.95 37.80 146.25 41.95 C 142.64 46.00 142.25 46.18 136.00 46.43 C 132.43 46.57 128.07 47.03 126.32 47.45 C 123.19 48.21 123.13 48.15 122.82 44.39 C 122.54 41.09 121.94 40.23 118.50 38.29 C 115.10 36.37 113.01 36.03 104.55 36.02 C 94.70 36.00 94.56 36.03 91.30 39.20 C 86.88 43.48 86.91 46.00 91.38 46.00 C 98.74 46.00 97.94 51.88 89.31 61.09 C 85.57 65.10 81.65 67.66 71.55 72.73 C 59.66 78.68 58.74 79.34 60.48 80.61 C 64.58 83.61 77.19 81.80 90.32 76.34 C 99.14 72.67 99.14 72.67 107.12 76.56 C 116.71 81.24 118.09 82.63 118.73 88.27 C 119.22 92.62 119.22 92.62 107.58 96.93 C 95.95 101.24 95.95 101.24 92.17 98.62 C 88.58 96.13 83.00 95.05 83.00 96.84 C 83.00 97.30 85.25 101.42 88.00 106.00 C 92.27 113.10 93.93 117.00 92.69 117.00 C 92.53 117.00 86.17 118.36 78.57 120.02 C 57.47 124.63 56.84 125.96 75.66 126.10 C 82.17 126.14 89.07 125.69 90.99 125.09 C 95.72 123.62 95.67 123.60 96.34 126.94 C 96.66 128.56 98.25 131.37 99.87 133.18 C 102.81 136.47 102.81 136.47 107.65 135.11 C 114.82 133.10 122.13 131.80 122.75 132.41 C 123.04 132.71 122.89 135.29 122.39 138.14 C 121.50 143.33 121.50 143.33 114.50 145.67 C 102.53 149.67 97.00 152.18 97.00 153.62 C 97.00 155.47 100.57 155.36 111.35 153.16 C 121.51 151.08 122.02 151.38 119.85 158.20 C 118.32 163.00 113.39 167.00 109.01 167.00 C 106.13 167.00 97.17 161.61 87.74 154.21 C 84.57 151.72 81.70 149.97 81.35 150.32 C 81.00 150.66 81.51 153.77 82.48 157.22 C 85.90 169.47 91.26 177.00 96.54 177.00 C 97.78 177.00 101.21 175.88 104.15 174.51 C 110.86 171.39 112.00 171.38 112.00 174.48 C 112.00 176.29 112.67 177.13 114.50 177.59 C 117.32 178.30 117.48 178.86 115.85 182.42 C 114.55 185.29 115.56 184.95 81.50 193.85 C 68.85 197.16 53.33 200.60 47.00 201.51 C 40.67 202.42 35.10 203.55 34.60 204.03 C 34.09 204.53 35.26 205.63 37.38 206.64 C 40.68 208.22 41.92 208.27 49.77 207.15 C 54.57 206.46 67.05 204.06 77.50 201.81 C 87.95 199.56 97.17 197.67 98.00 197.61 C 98.90 197.55 99.61 198.50 99.78 200.00 C 100.55 206.85 100.36 206.70 109.74 208.01 C 121.23 209.62 122.11 210.15 117.76 212.84 C 113.03 215.76 97.53 222.86 85.75 227.50 C 75.76 231.43 73.00 233.76 79.75 232.55 C 96.61 229.53 118.93 223.47 134.06 217.82 C 139.62 215.75 139.62 215.75 154.06 222.04 C 171.54 229.67 184.46 234.05 188.50 233.74 C 191.18 233.53 191.49 233.16 191.37 230.37 Z  M 172.45 72.59 C 175.18 71.44 176.00 70.52 176.00 68.59 C 176.00 64.52 173.00 63.66 161.07 64.31 C 144.77 65.20 142.87 66.40 150.76 70.79 C 158.31 74.99 165.30 75.57 172.45 72.59 Z  M 127.00 200.86 C 118.18 199.05 117.71 198.89 118.61 198.02 C 119.10 197.55 121.53 197.04 124.00 196.90 C 126.47 196.76 130.10 195.87 132.05 194.91 C 134.00 193.95 137.26 192.85 139.30 192.47 C 144.48 191.50 144.21 193.77 138.58 198.38 C 133.85 202.26 133.82 202.26 127.00 200.86 Z  M 136.08 152.15 C 134.28 148.79 140.85 143.00 146.47 143.00 C 149.00 143.00 148.24 144.60 143.42 149.42 C 138.32 154.52 137.51 154.82 136.08 152.15 Z  M 109.54 122.41 C 108.60 120.99 107.99 119.68 108.17 119.49 C 108.68 118.99 121.90 116.00 123.63 116.00 C 124.61 116.00 125.03 116.76 124.82 118.15 C 124.58 119.78 123.28 120.65 119.50 121.73 C 116.75 122.52 114.07 123.58 113.55 124.08 C 112.08 125.50 111.37 125.21 109.54 122.41 Z  M 139.18 114.86 C 139.36 113.69 140.51 112.06 141.75 111.24 C 143.94 109.79 144.00 109.85 144.00 113.38 C 144.00 116.60 143.72 117.00 141.43 117.00 C 139.37 117.00 138.92 116.57 139.18 114.86 Z  M 103.03 109.06 C 102.31 107.34 101.90 105.79 102.12 105.60 C 103.03 104.82 118.67 100.00 120.32 100.00 C 121.71 100.00 122.06 100.64 121.82 102.75 C 121.56 104.96 120.43 106.03 116.00 108.24 C 112.97 109.74 109.11 111.25 107.41 111.58 C 104.65 112.12 104.18 111.85 103.03 109.06 Z  M 140.18 98.25 C 140.37 96.63 141.11 95.50 141.99 95.50 C 143.93 95.50 144.59 99.01 142.85 100.11 C 140.54 101.58 139.86 101.10 140.18 98.25 Z "/>
</g>
</svg>