<?xml version="1.0" encoding="UTF-8" standalone="no"?>
<!DOCTYPE svg PUBLIC "-//W3C//DTD SVG 1.1//EN" "http://www.w3.org/Graphics/SVG/1.1/DTD/svg11.dtd" >
<svg xmlns="http://www.w3.org/2000/svg" xmlns:xlink="http://www.w3.org/1999/xlink" version="1.1" viewBox="0 0 250 256">
 <g >
 <path fill="currentColor"
d=" M 154.43 224.43 C 155.29 223.56 156.00 221.80 156.00 220.50 C 156.00 218.15 156.00 218.15 182.30 217.82 C 205.44 217.54 208.92 217.29 211.30 215.73 C 215.54 212.94 214.98 208.92 209.62 203.73 C 205.81 200.04 205.38 199.21 206.28 197.25 C 206.84 196.01 207.82 195.00 208.46 195.00 C 209.09 195.00 211.09 193.47 212.90 191.60 C 215.73 188.68 216.10 187.74 215.50 185.01 C 214.51 180.47 207.34 173.33 203.00 172.55 C 198.87 171.80 190.87 173.86 173.00 180.26 C 166.12 182.73 157.24 185.58 153.25 186.59 C 149.26 187.61 146.00 188.76 146.00 189.15 C 146.00 194.45 164.32 195.55 177.40 191.04 C 181.83 189.51 183.64 189.28 184.65 190.12 C 186.75 191.87 186.27 196.67 183.75 199.05 C 178.01 204.46 161.89 212.00 156.05 212.00 C 155.04 212.00 153.81 210.11 152.65 206.75 C 149.98 199.04 144.77 191.59 140.69 189.66 C 137.16 187.98 128.47 187.61 122.50 188.87 C 120.17 189.37 119.43 190.12 119.18 192.25 C 119.01 193.76 119.27 195.00 119.76 195.00 C 120.25 195.00 122.69 196.34 125.17 197.99 C 128.36 200.10 131.15 203.39 134.75 209.28 C 140.20 218.20 147.74 226.00 150.91 226.00 C 151.98 226.00 153.56 225.29 154.43 224.43 Z  M 40.43 214.43 C 41.30 213.55 42.00 211.18 42.00 209.07 C 42.00 204.55 39.25 201.19 32.90 197.95 C 27.63 195.26 14.84 190.82 14.21 191.46 C 13.39 192.27 23.76 205.48 29.40 210.81 C 35.10 216.21 37.77 217.09 40.43 214.43 Z  M 74.17 193.35 C 77.76 190.10 75.72 184.56 68.63 178.32 C 63.68 173.97 57.39 170.27 56.48 171.18 C 55.39 172.27 62.17 188.12 65.21 191.59 C 68.50 195.33 71.36 195.89 74.17 193.35 Z  M 164.91 176.32 C 176.30 171.66 180.77 169.30 185.50 165.48 C 193.54 158.98 194.85 158.67 208.05 160.05 C 220.63 161.36 228.07 161.02 230.50 159.00 C 232.66 157.20 232.39 151.39 230.03 149.03 C 227.01 146.01 224.06 145.71 214.13 147.42 C 209.11 148.29 204.65 149.00 204.22 149.00 C 203.80 149.00 203.61 147.26 203.82 145.13 C 204.26 140.50 202.47 136.75 197.59 132.05 C 195.61 130.16 194.00 127.88 194.00 126.99 C 194.00 124.66 188.90 120.12 185.06 119.02 C 182.57 118.30 181.03 118.45 178.77 119.62 C 175.09 121.52 173.74 120.45 174.18 116.01 C 174.47 113.07 175.03 112.57 180.22 110.63 C 187.22 108.02 190.00 105.76 190.00 102.66 C 190.00 98.20 186.72 96.55 178.44 96.86 C 171.00 97.14 171.00 97.14 171.00 93.79 C 171.00 91.95 170.28 89.42 169.40 88.16 C 168.52 86.90 167.95 85.75 168.15 85.60 C 168.34 85.46 174.91 83.72 182.73 81.73 C 202.79 76.65 204.17 75.78 202.53 69.28 C 201.90 66.76 201.77 66.73 194.70 67.26 C 190.39 67.59 182.47 69.42 175.00 71.81 C 168.12 74.01 155.07 78.07 146.00 80.83 C 136.93 83.59 127.25 86.82 124.50 88.00 C 119.70 90.06 119.58 90.21 121.50 91.67 C 123.14 92.91 125.57 93.08 135.00 92.57 C 141.32 92.23 148.35 91.70 150.60 91.39 C 154.65 90.83 154.73 90.88 156.35 94.93 C 159.16 101.94 159.04 102.12 145.84 110.02 C 134.71 116.67 133.83 117.40 135.54 118.65 C 137.47 120.06 142.44 119.85 152.30 117.93 C 159.93 116.45 160.68 116.64 161.39 120.21 C 162.27 124.61 160.70 125.86 147.28 131.47 C 134.20 136.94 130.35 139.51 132.08 141.60 C 133.74 143.60 140.74 143.35 150.55 140.93 C 155.18 139.79 159.36 139.11 159.85 139.41 C 160.33 139.71 160.98 141.82 161.29 144.11 C 162.29 151.59 166.51 152.85 169.66 146.63 C 172.18 141.65 173.81 140.24 176.49 140.75 C 177.84 141.01 179.45 141.84 180.08 142.60 C 181.87 144.75 180.29 150.76 177.46 152.62 C 174.34 154.66 163.45 157.53 153.04 159.05 C 144.96 160.24 144.96 160.24 137.02 151.87 C 129.09 143.50 129.09 143.50 129.05 147.93 C 129.02 150.37 129.74 155.00 130.64 158.21 C 131.54 161.43 132.05 164.29 131.77 164.57 C 131.48 164.85 126.01 165.82 119.61 166.72 C 108.14 168.33 107.92 168.32 104.24 166.27 C 102.18 165.13 96.69 163.03 92.04 161.61 C 79.63 157.83 79.50 159.18 91.19 170.56 C 100.68 179.81 103.58 181.41 105.86 178.67 C 106.62 177.75 109.01 177.44 113.65 177.64 C 117.70 177.81 123.84 177.15 129.16 175.96 C 134.01 174.88 139.72 174.00 141.85 174.00 C 144.24 174.00 146.73 173.22 148.31 171.97 C 151.60 169.38 160.53 165.40 164.75 164.64 C 169.37 163.80 168.99 166.08 163.95 169.41 C 158.79 172.83 152.00 178.95 152.00 180.18 C 152.00 181.37 154.26 180.69 164.91 176.32 Z  M 68.92 161.36 C 94.53 148.02 101.20 142.76 98.35 138.17 C 97.33 136.52 87.85 129.45 85.69 128.73 C 85.08 128.53 90.34 121.53 97.37 113.19 C 109.13 99.25 110.11 97.77 109.50 94.99 C 109.07 93.04 107.79 91.42 105.88 90.44 C 102.33 88.60 90.97 87.10 88.25 88.10 C 87.18 88.50 84.24 91.72 81.71 95.26 C 79.19 98.79 74.62 103.97 71.57 106.76 C 64.65 113.09 51.00 120.17 51.00 117.44 C 51.00 116.10 68.06 95.71 76.06 87.50 C 91.69 71.45 93.18 67.18 85.58 60.18 C 81.14 56.09 68.41 49.00 65.50 49.00 C 64.64 49.00 61.37 50.29 58.22 51.86 C 55.07 53.43 51.94 54.52 51.25 54.28 C 50.56 54.03 50.00 54.32 50.00 54.93 C 50.00 55.53 52.26 57.41 55.02 59.10 C 57.77 60.80 60.45 62.97 60.96 63.92 C 61.60 65.12 61.01 68.64 59.03 75.38 C 52.98 96.07 47.32 107.41 38.71 116.10 C 32.22 122.65 32.22 122.65 32.22 130.34 C 32.22 137.37 32.44 138.20 34.75 140.01 C 39.03 143.39 41.73 142.55 53.00 134.38 C 58.78 130.19 65.18 125.69 67.23 124.38 C 69.28 123.07 73.00 118.90 75.50 115.11 C 80.62 107.33 83.71 104.06 82.12 108.10 C 76.63 122.03 69.37 132.56 57.50 143.79 C 48.00 152.79 48.00 152.79 48.00 160.73 C 48.00 165.09 48.30 168.97 48.67 169.33 C 50.12 170.79 52.97 169.67 68.92 161.36 Z  M 142.55 73.35 C 143.90 71.90 145.00 69.96 145.00 69.05 C 145.00 68.14 146.80 63.67 149.00 59.12 C 152.63 51.62 153.94 47.00 152.43 47.00 C 152.12 47.00 150.41 48.11 148.63 49.47 C 146.85 50.83 143.76 52.62 141.77 53.45 C 138.23 54.93 137.90 54.87 127.32 50.49 C 121.37 48.03 116.16 46.01 115.75 46.01 C 114.10 45.99 115.21 49.37 119.25 56.64 C 126.07 68.92 132.56 75.15 139.30 75.91 C 139.74 75.96 141.20 74.81 142.55 73.35 Z  M 173.25 65.39 C 182.22 58.78 187.50 56.38 195.93 55.08 C 204.09 53.81 212.61 49.82 213.56 46.80 C 213.95 45.60 213.22 43.67 211.58 41.51 C 208.74 37.79 191.81 26.00 189.31 26.00 C 187.50 26.00 171.70 34.18 168.00 37.03 C 165.50 38.96 165.50 38.96 171.50 38.99 C 179.15 39.04 182.00 39.82 181.99 41.87 C 181.97 44.75 177.43 53.28 171.64 61.31 C 163.97 71.94 164.06 72.17 173.25 65.39 Z  M 73.11 143.47 C 77.15 138.12 79.19 137.09 79.78 140.10 C 80.03 141.38 71.32 149.00 69.61 149.00 C 69.24 149.00 70.82 146.51 73.11 143.47 Z "/>
</g>
</svg>