<?xml version="1.0" encoding="UTF-8" standalone="no"?>
<!DOCTYPE svg PUBLIC "-//W3C//DTD SVG 1.1//EN" "http://www.w3.org/Graphics/SVG/1.1/DTD/svg11.dtd" >
<svg xmlns="http://www.w3.org/2000/svg" xmlns:xlink="http://www.w3.org/1999/xlink" version="1.1" viewBox="0 0 250 256">
 <g >
 <path fill="currentColor"
d=" M 207.58 245.03 C 219.72 242.83 228.63 240.41 229.46 239.07 C 229.76 238.58 222.19 234.38 212.64 229.72 C 203.09 225.07 189.25 217.76 181.89 213.49 C 166.40 204.51 136.00 184.21 136.00 182.86 C 136.00 182.35 139.64 177.79 144.08 172.72 C 153.67 161.78 164.00 146.57 164.00 143.38 C 164.00 140.23 160.41 136.38 154.50 133.19 C 149.50 130.50 149.50 130.50 149.00 118.75 C 148.72 112.28 148.80 107.00 149.17 107.00 C 150.86 107.00 159.84 111.40 162.84 113.69 C 165.65 115.84 166.12 116.75 165.75 119.37 C 165.50 121.09 164.96 123.31 164.53 124.29 C 163.85 125.86 164.47 125.77 169.50 123.54 C 172.66 122.14 176.43 121.00 177.87 120.99 C 182.09 120.99 187.97 119.03 190.06 116.94 C 192.40 114.60 192.66 108.38 190.54 105.36 C 187.33 100.78 173.09 97.10 157.00 96.69 C 149.50 96.50 149.50 96.50 149.22 85.88 C 148.94 75.55 149.00 75.23 151.22 74.64 C 154.80 73.68 166.44 73.91 179.00 75.19 C 198.94 77.21 201.60 76.43 202.70 68.21 C 203.17 64.69 202.88 63.79 200.55 61.64 C 197.18 58.51 189.97 56.00 184.37 56.00 C 178.29 56.00 162.80 59.15 138.00 65.43 C 95.20 76.26 68.17 80.97 43.50 81.90 C 27.50 82.50 27.50 82.50 32.29 85.65 C 43.83 93.25 63.12 93.99 86.67 87.74 C 99.85 84.25 99.85 84.25 100.53 89.22 C 101.39 95.44 100.37 105.86 98.22 112.83 C 96.71 117.77 96.70 118.37 98.21 120.83 C 99.11 122.30 101.47 126.76 103.46 130.75 C 106.13 136.11 107.59 138.00 109.06 138.00 C 112.39 138.00 113.06 133.72 113.29 110.91 C 113.49 90.23 113.41 89.22 111.75 90.73 C 110.12 92.20 110.00 92.11 109.99 89.40 C 109.98 87.81 109.72 85.56 109.41 84.40 C 108.91 82.54 109.64 82.06 115.67 80.21 C 119.43 79.06 124.60 77.93 127.17 77.69 C 132.71 77.18 132.39 76.49 134.01 92.50 C 135.58 108.01 134.98 133.08 133.00 134.82 C 128.95 138.37 114.83 143.99 105.00 145.97 C 89.53 149.08 89.84 148.89 96.08 151.55 C 103.34 154.65 112.19 155.49 122.09 154.05 C 126.55 153.40 130.83 152.62 131.60 152.32 C 135.36 150.88 130.35 161.81 123.81 169.33 C 120.50 173.14 120.50 173.14 111.00 168.66 C 105.78 166.20 99.25 163.41 96.50 162.47 C 90.50 160.41 77.00 159.24 77.00 160.78 C 77.00 161.35 80.93 163.94 85.72 166.54 C 95.31 171.72 110.00 181.07 110.00 181.99 C 110.00 184.17 87.88 198.04 72.25 205.65 C 66.06 208.67 61.00 211.40 61.00 211.71 C 61.00 212.03 64.77 212.01 69.38 211.65 C 83.24 210.59 101.56 204.46 116.34 195.94 C 120.10 193.77 123.65 192.00 124.22 192.00 C 126.25 192.00 154.68 216.58 167.84 229.71 C 175.18 237.04 182.13 243.54 183.29 244.15 C 189.43 247.44 193.42 247.58 207.58 245.03 Z  M 76.74 133.67 C 81.50 128.51 83.38 123.49 83.43 115.89 C 83.46 111.37 82.89 109.35 80.44 105.40 C 76.23 98.58 74.63 98.60 73.09 105.48 C 72.41 108.53 70.25 114.22 68.30 118.12 C 65.28 124.16 64.85 125.87 65.36 129.65 C 66.69 139.31 70.35 140.60 76.74 133.67 Z  M 127.58 52.87 C 130.92 52.30 135.42 50.85 137.58 49.65 C 140.77 47.86 141.56 46.82 141.83 44.05 C 142.23 39.81 140.61 36.70 136.25 33.38 C 133.04 30.93 120.46 26.10 113.19 24.53 C 109.87 23.81 109.87 23.81 112.54 29.09 C 118.13 40.10 118.28 41.27 114.92 47.66 C 110.82 55.45 111.25 55.63 127.58 52.87 Z "/>
</g>
</svg>