<?xml version="1.0" encoding="UTF-8" standalone="no"?>
<!DOCTYPE svg PUBLIC "-//W3C//DTD SVG 1.1//EN" "http://www.w3.org/Graphics/SVG/1.1/DTD/svg11.dtd" >
<svg xmlns="http://www.w3.org/2000/svg" xmlns:xlink="http://www.w3.org/1999/xlink" version="1.1" viewBox="0 0 250 256">
 <g >
 <path fill="currentColor"
d=" M 210.43 221.00 C 212.55 214.99 212.91 202.21 212.11 161.50 C 211.89 150.50 212.06 133.35 212.47 123.39 C 213.38 101.66 212.31 96.07 206.03 89.79 C 202.24 86.00 202.24 86.00 192.17 86.00 C 182.10 86.00 182.10 86.00 183.65 82.25 C 186.67 74.94 188.70 73.71 201.48 71.47 C 213.11 69.43 219.48 67.31 223.06 64.30 C 225.77 62.02 226.13 61.18 225.65 58.24 C 225.35 56.36 224.57 54.19 223.93 53.41 C 221.77 50.81 214.69 51.86 199.90 56.98 C 186.70 61.55 185.40 61.82 184.25 60.29 C 183.56 59.37 183.00 57.61 183.00 56.39 C 183.00 53.33 178.60 48.35 173.62 45.78 C 167.88 42.82 154.72 42.09 149.72 44.46 C 145.67 46.39 143.52 50.65 145.37 53.11 C 145.99 53.94 148.50 55.41 150.94 56.38 C 158.36 59.32 161.00 61.69 161.00 65.42 C 161.00 68.60 160.71 68.84 151.75 72.80 C 146.66 75.05 135.75 78.77 127.50 81.06 C 119.25 83.35 111.85 85.58 111.05 86.02 C 110.12 86.52 111.75 87.08 115.55 87.56 C 122.41 88.43 136.62 86.90 148.86 83.98 C 153.41 82.89 157.80 82.00 158.63 82.00 C 163.43 82.00 145.49 102.30 133.07 110.92 C 126.70 115.34 126.70 115.34 127.37 112.42 C 128.99 105.28 129.26 98.02 127.96 96.45 C 125.73 93.77 121.31 92.00 115.22 91.37 C 110.45 90.87 108.64 91.14 105.24 92.88 C 102.95 94.05 99.90 95.00 98.45 95.00 C 95.99 95.00 96.13 94.75 100.66 91.12 C 103.32 88.99 107.05 85.61 108.95 83.62 C 112.04 80.37 112.92 80.00 117.56 80.00 C 123.07 80.00 128.00 77.31 128.00 74.31 C 128.00 71.68 122.83 63.12 120.19 61.39 C 118.18 60.07 116.28 59.87 110.76 60.39 C 104.94 60.93 103.12 61.58 99.28 64.51 C 95.20 67.63 93.00 68.72 93.00 67.63 C 93.00 67.42 93.68 65.34 94.50 63.00 C 96.56 57.16 96.39 55.30 93.55 52.45 C 91.31 50.22 90.32 50.00 82.30 50.02 C 72.33 50.05 66.77 51.93 63.17 56.51 C 60.31 60.14 60.42 60.67 64.03 60.67 C 69.49 60.67 69.68 62.24 65.12 69.91 C 57.56 82.64 45.25 96.54 32.50 106.73 C 26.78 111.31 30.20 110.93 40.27 105.87 C 50.34 100.81 71.23 87.68 76.00 83.41 C 77.92 81.68 80.94 79.54 82.70 78.64 C 86.24 76.83 92.54 76.45 93.49 77.99 C 94.87 80.22 89.93 87.10 79.77 97.09 C 73.85 102.92 69.00 108.03 69.00 108.46 C 69.00 108.88 71.48 108.92 74.52 108.54 C 80.04 107.85 80.04 107.85 81.65 111.68 C 84.90 119.39 85.04 120.86 82.71 122.49 C 79.67 124.62 77.46 124.37 74.69 121.60 C 73.20 120.11 70.07 118.74 66.40 117.97 C 60.38 116.72 43.33 116.34 42.23 117.43 C 40.76 118.91 43.63 123.41 46.53 124.16 C 53.14 125.87 60.00 137.41 60.00 146.83 C 60.00 154.78 66.14 166.00 70.49 166.00 C 72.44 166.00 73.47 164.78 76.13 159.39 C 78.12 155.34 80.32 152.36 81.80 151.68 C 83.94 150.71 84.51 150.95 86.93 153.91 C 90.32 158.07 93.01 157.53 96.50 152.00 C 97.83 149.89 99.84 147.90 100.96 147.58 C 102.08 147.26 103.90 146.74 105.00 146.43 C 106.73 145.94 107.00 146.34 107.00 149.43 C 107.00 152.49 107.33 153.00 109.31 153.00 C 114.75 153.00 121.78 140.27 124.75 125.07 C 126.40 116.58 126.62 116.12 128.77 116.66 C 130.29 117.04 134.35 115.64 141.04 112.43 C 147.74 109.22 151.37 107.97 152.04 108.64 C 155.79 112.39 156.11 147.19 152.59 167.27 C 150.34 180.10 150.28 181.36 151.67 186.67 C 153.46 193.51 156.86 201.00 158.18 201.00 C 160.57 201.00 162.90 198.71 164.53 194.78 C 165.88 191.51 166.45 186.24 166.97 172.50 C 167.60 155.76 168.24 150.98 169.86 151.01 C 170.21 151.02 173.35 151.92 176.84 153.01 C 187.68 156.41 196.00 155.25 196.00 150.35 C 196.00 149.51 196.56 149.02 197.25 149.25 C 198.19 149.56 198.57 155.04 198.77 171.12 C 199.12 199.21 199.90 198.08 184.86 191.32 C 178.61 188.51 173.29 186.41 173.03 186.66 C 172.77 186.91 174.47 188.94 176.81 191.17 C 179.15 193.39 181.91 196.86 182.93 198.86 C 187.78 208.35 204.08 227.32 206.94 226.78 C 207.82 226.62 209.35 224.09 210.43 221.00 Z  M 83.19 189.07 C 93.26 183.06 103.97 176.56 107.00 174.63 C 114.52 169.82 123.32 161.92 122.29 160.89 C 121.16 159.76 114.76 161.60 108.00 164.99 C 104.97 166.51 99.35 168.69 95.50 169.82 C 89.10 171.70 50.29 185.22 38.58 189.64 C 35.88 190.66 33.64 191.95 33.61 192.50 C 33.52 194.11 38.60 196.08 47.86 198.04 C 63.11 201.25 62.54 201.40 83.19 189.07 Z  M 195.35 144.46 C 194.06 141.12 188.90 139.63 179.32 139.85 C 170.13 140.07 170.13 140.07 169.45 135.53 C 169.02 132.67 169.18 130.48 169.88 129.64 C 170.58 128.80 174.42 128.06 180.16 127.65 C 190.09 126.94 195.28 124.87 195.79 121.39 C 196.52 116.45 186.27 113.33 175.73 115.29 C 169.22 116.50 169.03 116.39 166.61 110.13 C 165.00 105.97 165.01 105.65 166.71 103.73 C 169.88 100.15 176.39 97.96 184.54 97.72 C 191.45 97.52 192.34 97.72 194.06 99.83 C 197.37 103.91 198.23 109.06 198.73 127.75 C 199.17 144.20 199.06 146.00 197.58 146.00 C 196.68 146.00 195.67 145.31 195.35 144.46 Z  M 78.70 142.37 C 78.32 141.98 78.00 140.01 78.00 137.99 C 78.00 134.99 78.48 134.10 80.65 133.11 C 82.28 132.37 83.66 132.26 84.23 132.83 C 85.44 134.04 86.98 140.90 86.15 141.39 C 84.56 142.32 79.34 143.00 78.70 142.37 Z  M 96.18 133.47 C 96.47 130.06 96.89 129.55 100.46 128.33 C 104.94 126.78 108.57 123.74 109.31 120.92 C 110.03 118.18 108.37 117.50 101.00 117.50 C 94.50 117.50 94.50 117.50 94.20 112.33 C 93.86 106.40 94.64 105.82 103.14 105.69 C 108.50 105.61 112.43 108.25 113.24 112.47 C 113.89 115.86 111.52 129.67 109.97 131.53 C 108.13 133.76 104.12 135.70 99.65 136.54 C 95.86 137.25 95.86 137.25 96.18 133.47 Z "/>
</g>
</svg>