<?xml version="1.0" encoding="UTF-8" standalone="no"?>
<!DOCTYPE svg PUBLIC "-//W3C//DTD SVG 1.1//EN" "http://www.w3.org/Graphics/SVG/1.1/DTD/svg11.dtd" >
<svg xmlns="http://www.w3.org/2000/svg" xmlns:xlink="http://www.w3.org/1999/xlink" version="1.1" viewBox="0 0 256 256">
 <g >
 <path fill="currentColor"
d=" M 201.97 227.83 C 210.68 223.56 221.40 212.75 225.74 203.85 C 230.69 193.70 232.32 185.33 231.65 173.50 C 229.89 142.72 214.86 122.81 188.14 115.88 C 176.54 112.87 154.23 112.84 143.68 115.82 C 139.37 117.04 134.12 118.92 131.99 120.00 C 128.13 121.97 128.13 121.97 127.43 113.93 C 126.62 104.60 124.77 101.32 120.92 102.34 C 115.77 103.71 115.65 104.05 115.90 116.44 C 116.18 130.69 114.95 137.16 110.00 147.50 C 106.30 155.24 99.37 163.44 93.00 167.64 C 85.97 172.28 86.47 179.00 93.84 179.00 C 96.85 179.00 107.21 170.70 112.12 164.37 C 114.53 161.25 119.00 153.71 122.05 147.61 C 128.63 134.47 131.90 131.48 143.92 127.59 C 148.31 126.16 152.22 125.00 152.59 125.00 C 153.95 125.00 151.87 136.60 148.91 145.45 C 143.54 161.53 136.45 171.89 122.55 183.96 C 113.28 192.00 111.39 195.57 114.56 199.07 C 115.52 200.13 117.34 201.00 118.60 201.00 C 123.03 201.00 140.72 184.16 148.33 172.69 C 155.69 161.60 162.10 144.11 163.57 131.08 C 163.95 127.71 164.60 124.74 165.02 124.49 C 166.01 123.88 180.05 125.67 185.24 127.06 C 189.28 128.15 189.28 128.15 188.71 135.33 C 187.89 145.66 183.80 158.73 177.07 172.52 C 167.03 193.09 157.02 203.75 140.33 211.62 C 130.78 216.12 128.94 218.15 130.97 221.94 C 133.00 225.74 135.23 226.08 142.19 223.64 C 155.27 219.07 164.66 211.61 175.50 197.16 C 186.86 182.02 196.11 160.05 199.34 140.50 C 200.66 132.50 200.66 132.50 206.68 138.62 C 214.02 146.09 216.39 150.79 218.97 163.04 C 221.59 175.44 221.51 180.29 218.53 189.70 C 215.86 198.17 212.25 204.50 206.43 210.95 C 200.97 216.99 197.24 219.31 191.03 220.55 C 186.78 221.40 185.17 222.24 184.06 224.21 C 182.77 226.49 182.81 227.07 184.41 229.51 C 186.06 232.03 186.57 232.19 190.85 231.62 C 193.41 231.28 198.41 229.57 201.97 227.83 Z  M 52.29 175.43 C 74.75 172.25 96.92 161.20 104.71 149.32 C 107.93 144.40 100.94 140.04 96.07 143.93 C 86.84 151.31 72.45 158.88 70.84 157.19 C 67.79 153.99 63.01 103.86 64.51 90.87 C 65.23 84.74 65.23 84.74 72.86 85.42 C 77.06 85.80 83.65 86.81 87.50 87.68 C 99.38 90.35 102.18 90.48 103.67 88.43 C 105.51 85.92 105.33 82.61 103.25 80.74 C 100.64 78.40 90.91 76.20 77.21 74.86 C 65.00 73.66 65.00 73.66 65.00 62.48 C 65.00 56.32 65.47 45.55 66.04 38.54 C 66.77 29.55 66.76 25.41 66.00 24.51 C 64.26 22.40 60.09 22.10 57.84 23.93 C 55.92 25.48 55.73 27.14 54.92 48.85 C 54.45 61.64 53.79 72.53 53.47 73.05 C 53.15 73.57 50.10 74.00 46.69 74.00 C 38.83 74.01 23.31 76.50 21.43 78.06 C 19.36 79.77 19.67 82.51 22.25 85.43 C 24.50 87.98 24.50 87.98 32.50 86.53 C 36.90 85.72 43.24 85.05 46.59 85.03 C 52.68 85.00 52.68 85.00 53.32 103.75 C 54.00 123.94 56.03 142.30 58.94 154.51 C 60.24 159.95 60.44 162.27 59.63 162.55 C 54.48 164.36 46.56 165.33 35.77 165.48 C 25.00 165.63 22.73 165.93 21.02 167.48 C 17.36 170.80 19.22 176.04 24.50 177.25 C 27.40 177.92 40.98 177.03 52.29 175.43 Z  M 192.20 100.89 C 205.22 98.18 218.71 88.53 223.43 78.56 C 230.78 63.03 228.04 39.93 217.45 28.15 C 207.46 17.05 195.23 12.58 175.00 12.65 C 155.76 12.72 138.61 17.63 124.90 26.98 C 121.55 29.27 118.70 31.00 118.56 30.82 C 118.42 30.64 117.25 28.57 115.95 26.22 C 113.19 21.21 110.15 20.02 106.39 22.48 C 103.32 24.49 103.40 25.02 108.47 37.24 C 116.46 56.49 117.01 74.82 109.95 86.81 C 108.88 88.63 108.00 90.73 108.00 91.49 C 108.00 93.76 110.96 96.00 113.97 96.00 C 116.29 96.00 117.38 95.07 120.09 90.75 C 121.90 87.86 123.47 85.36 123.57 85.20 C 123.68 85.03 126.33 86.69 129.46 88.89 C 136.21 93.62 147.92 98.67 156.41 100.52 C 163.95 102.16 185.08 102.38 192.20 100.89 Z  M 156.11 88.96 C 146.14 86.34 139.70 83.21 132.30 77.38 C 126.09 72.50 126.09 72.50 126.05 65.86 C 126.02 62.21 125.29 55.46 124.41 50.86 C 122.82 42.50 122.82 42.50 126.66 39.17 C 132.05 34.49 141.12 29.61 150.50 26.35 C 157.85 23.79 159.71 23.57 173.50 23.55 C 190.31 23.52 196.43 25.00 203.92 30.93 C 212.29 37.57 217.84 51.08 216.53 61.63 C 215.70 68.24 210.90 78.07 206.81 81.51 C 196.22 90.42 174.10 93.67 156.11 88.96 Z  M 186.78 61.37 C 192.39 60.20 194.41 59.30 195.64 57.43 C 197.52 54.56 196.98 52.69 193.63 50.49 C 191.34 48.99 190.79 49.00 186.33 50.56 C 179.31 53.01 154.71 52.97 146.86 50.49 C 143.76 49.51 140.51 48.98 139.64 49.31 C 137.23 50.23 136.53 54.63 138.34 57.40 C 142.03 63.02 168.44 65.19 186.78 61.37 Z "/>
</g>
</svg>