<?xml version="1.0" encoding="UTF-8" standalone="no"?>
<!DOCTYPE svg PUBLIC "-//W3C//DTD SVG 1.1//EN" "http://www.w3.org/Graphics/SVG/1.1/DTD/svg11.dtd" >
<svg xmlns="http://www.w3.org/2000/svg" xmlns:xlink="http://www.w3.org/1999/xlink" version="1.1" viewBox="0 0 256 256">
 <g >
 <path fill="currentColor"
d=" M 240.64 221.11 C 242.21 217.94 240.99 214.84 237.49 213.12 C 233.74 211.28 216.54 208.44 200.52 207.02 C 193.38 206.38 187.47 205.78 187.40 205.68 C 187.33 205.58 187.69 199.88 188.21 193.00 C 188.73 186.12 189.24 170.04 189.33 157.25 C 189.50 134.00 189.50 134.00 192.00 134.03 C 198.43 134.09 215.22 136.14 221.67 137.65 C 228.40 139.22 229.01 139.22 231.42 137.64 C 234.68 135.51 234.84 131.60 231.75 129.57 C 228.09 127.18 218.88 125.20 205.78 124.00 C 199.03 123.38 192.56 122.69 191.40 122.46 C 189.46 122.07 189.22 120.99 188.11 107.27 C 186.79 90.97 183.75 68.73 181.59 59.61 C 180.20 53.72 180.20 53.72 189.35 54.30 C 199.91 54.98 211.44 57.82 220.76 62.05 C 228.80 65.69 231.44 65.78 233.62 62.46 C 236.24 58.46 234.22 55.43 226.65 51.99 C 216.58 47.43 191.64 42.00 180.75 42.00 C 177.48 42.00 177.48 42.00 174.62 30.78 C 169.30 9.90 166.01 4.31 160.49 6.82 C 156.91 8.45 156.42 12.14 158.94 18.35 C 160.82 22.99 166.00 40.40 166.00 42.09 C 166.00 42.43 162.22 42.97 157.59 43.30 C 152.47 43.66 146.31 44.90 141.84 46.48 C 137.80 47.91 133.78 49.32 132.90 49.61 C 131.49 50.09 131.22 48.18 130.66 33.83 C 130.31 24.85 129.61 15.49 129.11 13.04 C 127.58 5.61 122.53 3.30 117.78 7.85 C 116.18 9.40 116.17 10.03 117.69 18.00 C 118.77 23.68 119.34 32.47 119.40 44.50 C 119.49 60.50 119.24 63.38 117.19 70.46 C 113.23 84.15 107.32 93.10 96.25 102.16 C 92.64 105.12 92.07 108.32 94.65 111.17 C 98.21 115.10 103.68 112.43 113.04 102.21 C 120.38 94.21 126.26 82.73 128.74 71.59 C 130.50 63.68 130.50 63.68 136.69 60.77 C 143.08 57.77 158.78 54.04 165.08 54.01 C 168.67 54.00 168.67 54.00 170.84 65.25 C 173.21 77.50 175.45 95.71 176.54 111.65 C 177.24 121.80 177.24 121.80 167.37 122.43 C 149.23 123.61 137.59 124.97 127.08 127.16 C 113.68 129.95 110.13 133.13 115.00 138.00 C 117.53 140.53 118.29 140.51 134.28 137.57 C 145.24 135.55 168.73 133.00 176.31 133.00 C 178.17 133.00 178.21 134.03 177.77 167.75 C 177.52 186.86 176.97 203.29 176.55 204.25 C 175.87 205.80 174.15 206.00 161.50 206.00 C 145.29 206.00 131.86 207.15 114.57 210.03 C 101.36 212.23 98.48 213.75 99.51 217.96 C 100.82 223.30 101.66 223.47 115.67 221.14 C 134.98 217.94 156.72 216.67 181.00 217.32 C 204.61 217.96 215.87 219.11 226.50 221.98 C 235.57 224.42 239.10 224.21 240.64 221.11 Z  M 102.16 203.86 C 102.45 201.47 101.68 200.81 93.67 196.62 C 86.81 193.03 71.56 183.58 69.12 181.41 C 68.91 181.23 70.13 178.91 71.83 176.26 C 85.31 155.26 90.97 126.31 90.99 78.25 C 91.00 58.11 90.76 58.75 97.42 61.53 C 100.49 62.82 101.53 62.85 103.80 61.77 C 106.76 60.35 107.71 57.19 106.07 54.14 C 105.45 52.97 102.37 51.29 98.51 50.00 C 92.00 47.84 92.00 47.84 92.00 39.64 C 92.00 30.36 90.51 27.00 86.38 27.00 C 81.02 27.00 80.00 28.46 80.00 36.15 C 80.00 43.23 80.00 43.23 74.25 42.37 C 71.09 41.89 63.92 41.50 58.33 41.50 C 48.15 41.50 48.15 41.50 48.53 39.00 C 48.74 37.62 49.14 34.00 49.44 30.95 C 49.73 27.89 50.25 24.01 50.58 22.33 C 51.67 16.92 45.22 12.84 41.77 16.75 C 39.87 18.90 39.05 22.62 38.05 33.58 C 37.62 38.24 37.10 42.24 36.88 42.45 C 36.66 42.67 32.50 43.54 27.63 44.39 C 22.76 45.24 18.15 46.46 17.39 47.09 C 15.30 48.82 15.71 52.38 18.28 54.79 C 20.41 56.79 21.01 56.87 27.36 55.88 C 31.09 55.30 34.31 54.98 34.51 55.18 C 34.71 55.38 34.46 59.58 33.96 64.52 C 32.18 81.98 31.62 122.87 32.97 136.57 C 35.00 157.25 36.71 161.98 47.03 175.44 C 49.76 179.01 52.00 182.34 52.00 182.84 C 52.00 185.93 32.23 197.42 24.83 198.63 C 22.71 198.98 20.04 200.39 18.53 201.97 C 16.20 204.40 16.04 205.00 17.11 207.33 C 17.76 208.78 19.08 210.21 20.04 210.51 C 25.54 212.26 48.38 202.15 56.08 194.55 C 60.66 190.04 60.66 190.04 64.65 192.97 C 66.84 194.58 75.35 199.50 83.55 203.89 C 98.47 211.88 98.47 211.88 100.15 209.19 C 101.07 207.71 101.98 205.31 102.16 203.86 Z  M 55.16 168.12 C 45.29 154.04 42.51 141.25 42.55 110.00 C 42.57 90.59 45.25 58.34 47.15 54.75 C 47.93 53.26 49.46 53.02 57.29 53.11 C 62.35 53.17 69.42 53.73 73.00 54.36 C 79.50 55.50 79.50 55.50 79.45 82.50 C 79.40 112.24 78.36 123.34 73.98 140.73 C 71.41 150.90 64.44 167.65 60.82 172.33 C 59.50 174.04 59.11 173.75 55.16 168.12 Z "/>
</g>
</svg>