<?xml version="1.0" encoding="UTF-8" standalone="no"?>
<!DOCTYPE svg PUBLIC "-//W3C//DTD SVG 1.1//EN" "http://www.w3.org/Graphics/SVG/1.1/DTD/svg11.dtd" >
<svg xmlns="http://www.w3.org/2000/svg" xmlns:xlink="http://www.w3.org/1999/xlink" version="1.1" viewBox="0 0 256 256">
 <g >
 <path fill="currentColor"
d=" M 115.37 228.49 C 118.56 227.66 123.15 225.61 125.58 223.94 C 129.28 221.40 130.00 220.37 130.00 217.65 C 130.00 211.02 126.83 210.51 117.26 215.60 C 111.26 218.80 109.91 219.15 105.23 218.67 C 96.39 217.78 91.00 213.06 91.00 206.22 C 91.00 204.74 92.22 201.11 93.72 198.16 C 96.43 192.79 96.43 192.79 100.81 193.39 C 103.22 193.72 115.47 194.29 128.04 194.65 C 150.89 195.31 150.89 195.31 152.07 198.16 C 153.71 202.13 163.75 211.17 171.77 215.91 C 180.07 220.81 191.46 224.69 200.02 225.54 C 210.88 226.61 230.45 221.30 233.65 216.42 C 235.10 214.20 235.09 213.79 233.53 211.40 C 232.08 209.19 231.29 208.88 228.16 209.31 C 226.15 209.58 222.03 210.73 219.00 211.87 C 213.32 214.00 198.85 214.83 196.24 213.17 C 195.36 212.61 197.09 210.34 202.08 205.49 C 208.31 199.45 209.10 198.27 208.61 195.81 C 207.98 192.65 207.81 192.72 216.54 192.59 C 224.14 192.48 228.00 190.26 228.00 186.00 C 228.00 180.95 224.71 179.65 215.33 180.99 C 204.24 182.58 170.00 183.57 170.00 182.30 C 170.00 181.75 170.47 179.95 171.05 178.29 C 172.07 175.36 172.30 175.27 180.30 174.65 C 184.81 174.30 192.41 174.01 197.18 174.01 C 203.73 174.00 206.24 173.61 207.43 172.43 C 209.62 170.24 209.39 167.56 206.75 164.54 C 204.50 161.97 204.50 161.97 192.00 162.96 C 171.66 164.58 173.00 164.85 173.00 159.14 C 173.00 154.29 173.00 154.29 180.25 153.63 C 198.63 151.96 204.39 150.75 207.19 147.95 C 209.04 146.11 209.71 144.61 209.33 143.17 C 208.26 139.06 207.11 138.91 189.55 140.57 C 180.35 141.44 172.68 142.01 172.51 141.83 C 172.34 141.65 172.04 140.38 171.85 139.00 C 171.51 136.55 171.66 136.49 179.95 135.80 C 190.00 134.97 196.78 132.93 203.29 128.79 C 208.80 125.28 211.01 121.70 210.98 116.30 C 210.88 98.62 189.39 91.28 159.02 98.54 C 147.87 101.21 147.85 101.21 145.68 99.23 C 140.50 94.52 136.62 94.60 134.01 99.49 C 132.43 102.43 131.98 101.75 139.75 108.06 C 141.67 109.62 141.25 113.17 138.50 118.58 C 135.58 124.35 135.39 126.67 137.65 129.17 C 139.40 131.10 143.48 131.64 144.45 130.08 C 144.77 129.57 146.93 130.21 149.26 131.50 C 151.59 132.79 155.07 134.14 157.00 134.49 C 160.21 135.08 160.52 135.44 160.77 138.95 C 161.00 142.34 160.73 142.85 158.41 143.43 C 155.14 144.25 113.95 144.29 106.79 143.48 C 97.90 142.47 97.29 142.22 96.70 139.26 C 96.39 137.74 95.86 135.78 95.52 134.90 C 95.00 133.55 96.04 133.21 102.26 132.74 C 119.42 131.44 128.25 123.12 124.96 111.37 C 120.61 95.81 98.01 91.24 74.76 101.21 C 70.01 103.24 70.01 103.24 68.26 101.18 C 65.33 97.74 60.76 97.92 58.37 101.56 C 56.78 103.98 56.80 104.31 58.85 107.94 C 61.67 112.96 61.57 116.57 58.50 120.59 C 55.58 124.42 55.36 126.64 57.65 129.17 C 59.98 131.74 63.51 131.45 66.27 128.46 C 68.62 125.93 68.62 125.93 73.06 128.40 C 75.50 129.76 79.65 131.40 82.27 132.06 C 86.13 133.02 86.82 133.51 85.90 134.62 C 85.28 135.37 85.00 136.89 85.29 137.99 C 85.95 140.52 85.30 140.52 73.87 137.97 C 63.93 135.76 61.71 135.98 59.45 139.43 C 56.15 144.47 59.63 146.73 75.75 150.02 C 87.00 152.32 87.00 152.32 87.00 156.77 C 87.00 161.22 87.00 161.22 83.25 160.59 C 81.19 160.24 75.05 158.98 69.61 157.79 C 59.73 155.62 59.73 155.62 57.86 157.92 C 55.55 160.78 55.52 162.20 57.75 164.89 C 59.09 166.51 62.55 167.62 72.50 169.63 C 79.65 171.08 85.63 172.37 85.78 172.50 C 85.94 172.63 85.76 174.64 85.39 176.97 C 84.71 181.21 84.71 181.21 77.11 180.53 C 72.92 180.16 63.31 179.00 55.75 177.96 C 48.19 176.92 41.41 176.29 40.70 176.56 C 39.98 176.84 38.67 178.29 37.78 179.80 C 34.71 184.99 37.97 187.03 52.43 188.97 C 56.79 189.55 60.51 190.18 60.70 190.36 C 61.63 191.29 56.22 196.36 52.03 198.49 C 45.84 201.62 32.88 205.00 27.03 205.00 C 18.81 205.00 14.84 210.89 20.55 214.62 C 25.34 217.76 45.58 214.78 56.27 209.36 C 62.69 206.11 69.25 199.99 71.38 195.27 C 73.05 191.56 73.15 191.51 78.04 191.85 C 80.77 192.04 83.00 192.32 83.00 192.47 C 83.00 192.62 82.33 194.66 81.50 197.00 C 76.76 210.44 82.62 223.76 95.20 228.10 C 101.71 230.35 107.78 230.47 115.37 228.49 Z  M 228.96 91.07 C 230.63 87.96 230.17 85.15 227.75 83.63 C 225.20 82.03 207.19 78.59 193.00 77.00 C 187.78 76.41 172.93 75.67 160.00 75.35 C 144.62 74.97 135.81 74.36 134.50 73.58 C 133.40 72.93 130.59 71.79 128.26 71.04 C 125.93 70.30 123.28 68.86 122.36 67.84 C 120.47 65.75 116.00 65.40 114.20 67.20 C 113.54 67.86 113.00 69.83 113.00 71.59 C 113.00 74.77 113.00 74.77 97.75 75.45 C 71.70 76.60 34.05 80.61 30.87 82.58 C 29.42 83.48 29.90 88.75 31.57 90.43 C 33.58 92.44 35.33 92.41 55.66 90.04 C 64.92 88.96 79.03 87.59 87.00 87.00 C 105.70 85.61 154.50 85.60 172.50 86.99 C 186.87 88.10 218.17 91.88 218.92 92.60 C 219.15 92.82 221.27 93.00 223.63 93.00 C 226.86 93.00 228.19 92.52 228.96 91.07 Z  M 178.54 64.43 C 199.26 61.73 215.64 55.37 220.57 48.10 C 225.23 41.26 222.98 32.67 214.59 25.28 C 200.61 12.98 180.87 8.57 140.00 8.62 C 106.30 8.66 80.07 12.31 61.95 19.48 C 57.39 21.29 57.39 21.29 53.22 18.53 C 48.62 15.48 46.93 15.65 44.48 19.40 C 42.23 22.82 43.36 25.63 47.92 27.96 C 53.12 30.61 58.00 36.39 58.00 39.90 C 58.00 44.05 54.65 47.62 48.99 49.50 C 43.12 51.45 40.91 54.03 41.91 57.76 C 43.16 62.41 47.00 62.69 54.98 58.71 C 61.93 55.25 61.93 55.25 68.59 57.10 C 77.32 59.52 97.47 62.51 118.00 64.45 C 145.02 66.99 158.89 66.98 178.54 64.43 Z  M 173.41 204.11 C 169.61 201.42 165.93 198.27 165.24 197.11 C 164.01 195.05 164.14 195.00 170.74 194.96 C 174.46 194.94 182.00 194.53 187.49 194.04 C 192.98 193.55 197.63 193.30 197.82 193.48 C 198.56 194.22 190.58 202.08 186.42 204.71 C 183.99 206.24 182.00 207.84 182.00 208.25 C 182.00 209.77 180.15 208.88 173.41 204.11 Z  M 99.19 182.27 C 96.04 181.88 95.91 181.70 96.54 178.68 C 96.91 176.93 97.50 175.21 97.86 174.85 C 98.21 174.49 103.22 174.64 109.00 175.20 C 114.78 175.75 128.63 176.00 139.80 175.76 C 157.12 175.39 160.01 175.53 159.54 176.75 C 159.24 177.54 158.72 179.27 158.39 180.59 C 157.78 183.00 157.78 183.00 130.14 182.84 C 114.94 182.75 101.01 182.50 99.19 182.27 Z  M 124.92 163.96 C 98.77 163.05 98.05 162.84 98.02 156.13 C 98.00 153.09 98.22 152.84 100.25 153.49 C 101.49 153.88 115.78 154.40 132.00 154.63 C 161.50 155.06 161.50 155.06 161.81 159.03 C 162.08 162.53 161.80 163.12 159.49 164.00 C 156.70 165.06 156.51 165.06 124.92 163.96 Z  M 161.50 123.39 C 160.40 123.13 157.59 122.22 155.25 121.37 C 151.36 119.97 151.00 119.54 151.00 116.37 C 151.00 113.39 151.47 112.70 154.27 111.53 C 159.62 109.30 173.68 107.00 181.86 107.02 C 190.75 107.05 197.35 109.48 199.13 113.39 C 200.77 116.99 199.63 118.83 194.26 121.25 C 190.31 123.03 187.30 123.43 176.50 123.64 C 169.35 123.77 162.60 123.66 161.50 123.39 Z  M 82.41 120.24 C 80.15 119.28 77.23 117.70 75.91 116.71 C 73.50 114.92 73.50 114.92 75.97 113.04 C 79.74 110.17 87.70 107.90 96.00 107.33 C 104.94 106.72 110.39 108.27 113.36 112.27 C 115.42 115.04 115.42 115.04 112.19 118.27 C 108.98 121.49 108.93 121.50 97.73 121.74 C 88.90 121.93 85.62 121.60 82.41 120.24 Z  M 126.50 54.34 C 124.85 54.14 117.65 53.27 110.50 52.41 C 94.27 50.45 82.19 48.40 74.75 46.33 C 69.12 44.77 69.00 44.66 68.96 41.12 C 68.93 39.13 68.28 35.72 67.50 33.54 C 66.73 31.36 66.18 29.51 66.30 29.44 C 66.41 29.36 71.28 28.12 77.12 26.68 C 96.71 21.83 105.29 20.82 131.09 20.28 C 167.54 19.51 186.21 21.79 199.80 28.64 C 207.75 32.65 212.27 37.08 211.80 40.39 C 211.13 45.07 193.30 51.84 176.03 53.96 C 168.23 54.92 133.48 55.18 126.50 54.34 Z  M 164.44 42.33 C 169.83 41.85 171.91 41.18 173.69 39.40 C 176.67 36.43 176.60 35.45 173.19 32.04 C 170.39 29.23 170.39 29.23 162.94 30.78 C 157.28 31.96 150.73 32.25 135.50 32.00 C 89.58 31.24 92.54 31.02 92.19 35.19 C 91.70 41.18 93.47 41.75 116.00 42.86 C 134.95 43.80 150.21 43.63 164.44 42.33 Z "/>
</g>
</svg>