<?xml version="1.0" encoding="UTF-8" standalone="no"?>
<!DOCTYPE svg PUBLIC "-//W3C//DTD SVG 1.1//EN" "http://www.w3.org/Graphics/SVG/1.1/DTD/svg11.dtd" >
<svg xmlns="http://www.w3.org/2000/svg" xmlns:xlink="http://www.w3.org/1999/xlink" version="1.1" viewBox="0 0 256 256">
 <g >
 <path fill="currentColor"
d=" M 188.47 226.49 C 203.19 223.37 226.95 208.52 229.98 200.55 C 230.91 198.11 230.75 197.36 228.86 195.35 C 227.64 194.06 226.02 193.00 225.26 193.00 C 224.49 193.00 220.97 195.59 217.44 198.75 C 203.52 211.21 192.00 216.00 175.95 216.00 C 143.78 216.00 124.64 195.51 120.87 157.02 C 120.27 150.90 119.98 145.68 120.24 145.43 C 120.49 145.18 123.17 146.10 126.19 147.49 C 135.28 151.65 146.62 154.04 162.92 155.23 C 181.32 156.57 191.18 155.50 203.24 150.85 C 220.14 144.33 231.95 127.33 231.99 109.45 C 232.01 100.00 223.00 87.16 211.74 80.58 C 206.22 77.35 190.33 72.54 179.79 70.90 C 165.55 68.68 148.14 71.81 132.25 79.46 C 123.00 83.91 123.00 83.91 123.00 80.71 C 123.01 76.02 126.69 51.67 128.66 43.26 C 129.76 38.57 130.91 35.87 131.93 35.59 C 132.79 35.36 141.60 34.62 151.50 33.95 C 167.36 32.87 171.21 32.93 183.89 34.45 C 200.96 36.49 210.28 38.80 222.46 43.98 C 231.84 47.98 233.85 48.01 235.91 44.16 C 238.31 39.68 231.37 34.31 217.00 29.57 C 198.02 23.31 174.93 21.09 147.52 22.89 C 121.88 24.58 107.80 26.55 106.25 28.67 C 104.51 31.05 104.69 34.55 106.65 36.50 C 107.94 37.79 109.34 38.00 113.15 37.48 C 115.82 37.11 118.00 37.19 118.00 37.66 C 118.00 38.12 116.88 45.25 115.50 53.50 C 109.87 87.28 107.11 126.67 108.82 148.96 C 110.01 164.47 113.34 181.98 116.51 189.44 C 118.69 194.57 125.32 204.30 130.45 209.90 C 143.49 224.14 167.34 230.96 188.47 226.49 Z  M 67.44 210.74 C 71.03 205.25 73.98 174.68 73.99 142.64 C 74.00 119.78 74.00 119.78 76.75 120.47 C 84.73 122.46 89.18 127.93 91.39 138.47 C 92.86 145.49 93.95 146.96 97.69 146.98 C 102.59 147.02 104.21 140.44 101.52 131.39 C 98.24 120.34 90.11 112.52 78.97 109.68 C 73.50 108.28 73.50 108.28 72.73 100.39 C 72.30 96.05 71.29 86.82 70.48 79.89 C 69.66 72.95 69.00 66.54 69.00 65.64 C 69.00 63.24 78.70 63.47 88.59 66.11 C 92.94 67.26 97.42 68.42 98.54 68.68 C 99.68 68.94 101.53 68.34 102.71 67.33 C 104.36 65.90 104.71 64.76 104.29 62.15 C 103.85 59.46 103.02 58.49 100.12 57.27 C 94.40 54.87 77.97 51.82 72.71 52.17 C 67.24 52.55 67.74 53.41 65.96 40.50 C 65.35 36.10 63.55 26.43 61.95 19.00 C 59.57 7.99 58.58 5.10 56.56 3.33 C 53.67 0.81 50.54 1.22 48.53 4.38 C 47.38 6.20 47.53 7.84 49.63 16.00 C 51.92 24.96 55.54 43.93 56.20 50.47 C 56.49 53.32 56.29 53.48 51.50 54.26 C 42.45 55.74 28.12 60.21 26.42 62.09 C 24.59 64.11 24.19 68.59 25.70 70.10 C 26.86 71.26 31.72 71.49 34.62 70.53 C 36.44 69.93 36.83 70.31 37.34 73.17 C 39.67 86.10 38.61 120.22 35.47 133.77 C 32.80 145.30 28.60 151.00 22.78 151.00 C 19.46 151.00 16.00 154.15 16.00 157.17 C 16.00 165.05 28.60 164.82 36.12 156.79 C 40.41 152.22 45.60 141.15 47.69 132.10 C 49.07 126.13 49.45 119.89 49.47 103.00 C 49.49 91.17 49.15 78.07 48.72 73.87 C 47.94 66.24 47.94 66.24 52.56 65.54 C 55.10 65.16 57.33 65.00 57.51 65.18 C 58.06 65.72 59.87 83.48 61.48 104.00 C 64.20 138.84 63.33 173.75 59.10 198.93 C 57.42 208.97 57.42 209.42 59.18 211.18 C 61.70 213.70 65.63 213.49 67.44 210.74 Z  M 157.26 144.02 C 146.17 143.03 135.94 140.09 126.60 135.21 C 119.71 131.60 119.71 131.60 120.33 117.24 C 120.68 108.94 121.49 101.76 122.23 100.21 C 124.99 94.45 142.91 86.06 158.11 83.41 C 170.05 81.33 180.53 81.95 193.00 85.47 C 208.09 89.72 216.90 96.42 219.59 105.68 C 221.98 113.89 219.50 122.55 212.36 130.89 C 202.80 142.06 184.40 146.45 157.26 144.02 Z "/>
</g>
</svg>