<?xml version="1.0" encoding="UTF-8" standalone="no"?>
<!DOCTYPE svg PUBLIC "-//W3C//DTD SVG 1.1//EN" "http://www.w3.org/Graphics/SVG/1.1/DTD/svg11.dtd" >
<svg xmlns="http://www.w3.org/2000/svg" xmlns:xlink="http://www.w3.org/1999/xlink" version="1.1" viewBox="0 0 256 256">
 <g >
 <path fill="currentColor"
d=" M 183.40 226.59 C 207.76 213.89 221.53 191.95 226.44 158.00 C 230.74 128.24 230.49 87.46 225.91 70.91 C 220.19 50.25 209.37 38.21 191.71 32.84 C 185.67 31.01 183.09 30.82 170.66 31.26 C 157.84 31.72 152.75 32.59 145.64 35.53 C 143.85 36.27 143.81 35.69 144.51 21.65 C 145.32 5.49 144.93 4.00 139.90 4.00 C 135.66 4.00 134.32 7.06 133.55 18.50 C 132.71 31.00 131.39 40.76 129.48 48.50 C 127.26 57.52 118.71 74.09 113.24 79.99 C 108.65 84.94 108.43 85.05 106.24 83.49 C 102.35 80.71 100.73 76.11 100.22 66.39 C 99.88 60.00 100.10 57.06 100.93 56.55 C 101.58 56.14 105.72 57.07 110.13 58.61 C 118.42 61.49 120.10 61.38 122.39 57.74 C 123.08 56.65 123.10 55.17 122.44 53.30 C 121.59 50.86 120.27 50.12 112.23 47.56 C 103.18 44.69 103.00 44.57 103.00 41.50 C 103.00 38.19 105.66 28.20 106.99 26.50 C 109.13 23.77 104.31 18.46 100.54 19.40 C 97.39 20.19 96.78 21.45 94.03 32.75 C 92.79 37.84 91.45 42.00 91.05 42.00 C 90.65 42.00 85.86 41.33 80.41 40.51 C 74.96 39.68 64.99 39.01 58.25 39.01 C 51.51 39.00 46.00 38.76 46.00 38.46 C 46.00 36.96 50.72 28.93 54.13 24.62 C 56.26 21.94 58.00 19.26 58.00 18.68 C 58.00 16.73 53.67 13.00 51.40 13.00 C 48.31 13.00 43.93 18.55 38.24 29.67 C 33.16 39.61 32.61 40.00 23.70 40.00 C 16.84 40.00 13.80 44.80 18.00 49.00 C 19.50 50.50 21.33 51.00 25.37 51.00 C 30.74 51.00 30.74 51.00 29.82 55.75 C 27.98 65.28 31.09 76.66 37.48 83.76 C 42.37 89.21 50.67 93.72 57.52 94.66 C 62.10 95.29 62.10 95.29 61.80 99.76 C 61.50 104.23 61.50 104.23 51.00 107.93 C 45.22 109.97 39.52 112.17 38.32 112.82 C 35.36 114.42 35.34 114.41 34.15 111.00 C 32.92 107.47 29.20 105.48 25.53 106.40 C 21.41 107.44 20.92 110.56 23.73 118.00 C 26.31 124.85 27.71 136.43 26.63 142.15 C 26.28 144.01 24.20 147.72 22.00 150.38 C 19.80 153.04 18.00 155.62 18.00 156.11 C 18.00 157.92 22.08 161.00 24.47 161.00 C 25.82 161.00 28.47 159.65 30.35 158.00 C 33.77 155.00 33.77 155.00 40.37 158.09 C 44.00 159.78 49.88 161.67 53.44 162.28 C 59.90 163.39 59.90 163.39 60.42 168.44 C 61.71 181.26 61.73 183.00 60.63 182.99 C 57.02 182.98 39.62 179.86 35.90 178.56 C 27.30 175.57 23.22 177.15 24.50 182.99 C 24.87 184.68 26.15 186.71 27.35 187.49 C 30.62 189.63 45.34 192.88 55.16 193.62 C 63.84 194.28 63.84 194.28 66.00 202.89 C 69.53 216.97 72.29 223.36 75.32 224.43 C 77.38 225.17 78.39 224.96 80.05 223.45 C 82.49 221.24 82.43 220.59 78.37 205.25 C 76.88 199.62 75.86 194.80 76.11 194.55 C 76.36 194.30 81.50 193.38 87.53 192.49 C 99.48 190.74 108.11 188.74 114.15 186.32 C 118.48 184.59 119.69 181.94 118.08 177.71 C 116.80 174.35 113.98 174.21 105.50 177.08 C 97.64 179.73 75.11 183.54 74.06 182.39 C 73.62 181.90 72.98 177.36 72.64 172.31 C 72.03 163.12 72.03 163.12 76.77 162.45 C 91.06 160.44 97.46 158.92 101.37 156.63 C 105.24 154.36 111.32 148.53 113.62 144.89 C 114.80 143.02 122.64 139.31 127.13 138.49 C 130.77 137.82 130.77 137.82 132.03 146.66 C 134.86 166.40 128.39 180.19 112.25 188.79 C 104.66 192.83 103.37 194.33 104.58 197.71 C 106.35 202.66 108.24 202.82 116.61 198.67 C 138.29 187.94 147.17 169.08 142.85 142.93 C 142.22 139.10 142.00 135.66 142.37 135.30 C 142.74 134.93 145.73 134.43 149.02 134.19 C 155.00 133.76 155.00 133.76 154.99 145.13 C 154.97 169.17 152.17 188.53 146.57 203.42 C 143.55 211.43 143.45 212.73 145.65 215.17 C 147.97 217.73 151.50 217.45 153.79 214.53 C 156.53 211.05 162.63 192.06 164.16 182.25 C 165.56 173.24 165.60 173.20 172.32 175.07 C 177.88 176.62 183.57 182.20 185.50 187.99 C 186.38 190.66 187.74 193.37 188.52 194.02 C 190.35 195.53 194.87 194.09 196.60 191.45 C 199.32 187.29 191.75 172.87 184.06 167.54 C 180.26 164.91 171.79 162.00 167.93 162.00 C 166.47 162.00 166.33 160.48 166.68 148.25 C 167.08 134.50 167.08 134.50 175.79 134.70 C 181.02 134.82 187.70 135.77 192.50 137.08 C 196.90 138.28 201.57 139.31 202.87 139.38 C 205.80 139.53 209.39 135.18 208.42 132.66 C 206.77 128.35 190.99 123.50 175.03 122.40 C 165.00 121.71 165.00 121.71 165.00 117.48 C 165.00 113.33 165.13 113.17 170.61 110.40 C 178.07 106.62 184.37 100.94 186.92 95.67 C 191.25 86.72 188.55 70.93 182.43 69.39 C 178.78 68.48 175.71 72.15 176.49 76.50 C 178.30 86.50 178.22 88.45 175.81 92.00 C 173.83 94.92 165.19 100.89 162.83 100.98 C 162.46 100.99 161.86 99.54 161.50 97.75 C 160.26 91.59 155.78 77.49 153.88 73.77 C 151.75 69.60 148.40 68.18 145.00 70.00 C 142.26 71.47 142.56 74.54 146.78 88.00 C 148.41 93.22 150.07 98.96 150.46 100.75 C 151.14 103.91 151.06 104.00 147.83 103.99 C 142.70 103.99 137.13 102.11 136.01 100.02 C 135.46 98.98 135.00 96.05 135.00 93.50 C 135.00 87.66 133.60 85.00 130.54 85.00 C 124.38 85.00 121.90 96.02 126.10 104.70 C 129.15 111.02 135.03 114.18 144.86 114.79 C 152.92 115.30 153.96 115.91 153.98 120.11 C 154.00 122.47 153.54 122.79 149.36 123.36 C 146.81 123.71 142.65 124.03 140.11 124.06 C 136.18 124.11 128.34 125.86 120.47 128.45 C 118.74 129.02 118.28 128.49 117.29 124.80 C 114.90 115.86 106.24 107.35 96.59 104.46 C 93.79 103.62 87.32 102.66 82.20 102.31 C 74.72 101.81 73.01 101.41 73.45 100.26 C 73.75 99.48 74.00 97.82 74.00 96.58 C 74.00 94.78 74.87 94.06 78.25 93.07 C 80.59 92.38 84.94 90.51 87.91 88.92 C 93.32 86.02 93.32 86.02 97.36 90.26 C 99.58 92.59 101.89 95.40 102.48 96.50 C 103.07 97.60 104.79 99.09 106.29 99.81 C 108.71 100.97 109.36 100.88 111.97 99.02 C 120.09 93.24 133.83 71.64 138.39 57.50 C 140.25 51.70 144.52 47.79 152.38 44.69 C 156.35 43.12 160.54 42.57 171.00 42.24 C 182.97 41.86 185.14 42.05 190.15 43.94 C 207.49 50.47 215.55 64.63 218.07 93.00 C 219.61 110.40 217.61 146.37 214.09 164.50 C 212.80 171.15 206.92 186.74 203.46 192.71 C 199.09 200.24 185.50 213.19 178.50 216.50 C 168.75 221.12 167.32 223.15 170.56 227.78 C 172.71 230.85 175.76 230.57 183.40 226.59 Z  M 50.00 149.12 C 46.98 148.15 43.18 146.65 41.57 145.80 C 38.65 144.26 38.63 144.21 38.52 134.62 C 38.40 124.99 38.40 124.99 48.63 121.00 C 59.95 116.57 61.50 116.26 60.61 118.58 C 60.27 119.45 60.00 127.10 60.00 135.58 C 60.00 153.29 60.57 152.52 50.00 149.12 Z  M 71.01 134.90 C 71.03 112.06 70.18 113.64 82.16 114.22 C 90.53 114.63 92.89 115.14 97.74 117.62 C 105.18 121.42 108.35 125.92 107.71 131.74 C 107.17 136.71 103.50 141.98 98.09 145.56 C 93.17 148.82 89.23 149.88 79.25 150.66 C 71.00 151.30 71.00 151.30 71.01 134.90 Z  M 54.12 82.36 C 48.24 80.20 42.40 74.19 40.94 68.80 C 39.75 64.42 40.12 53.23 41.53 50.95 C 42.45 49.46 68.42 50.34 81.38 52.31 C 89.27 53.50 89.27 53.50 89.07 63.97 C 88.97 69.73 88.40 75.02 87.81 75.73 C 87.22 76.44 83.76 78.45 80.12 80.19 C 72.02 84.06 61.22 84.96 54.12 82.36 Z "/>
</g>
</svg>