<?xml version="1.0" encoding="UTF-8" standalone="no"?>
<!DOCTYPE svg PUBLIC "-//W3C//DTD SVG 1.1//EN" "http://www.w3.org/Graphics/SVG/1.1/DTD/svg11.dtd" >
<svg xmlns="http://www.w3.org/2000/svg" xmlns:xlink="http://www.w3.org/1999/xlink" version="1.1" viewBox="0 0 256 257">
 <g >
 <path fill="currentColor"
d=" M 208.24 228.03 C 216.86 225.34 226.40 218.81 230.59 212.73 C 234.40 207.20 237.73 198.81 239.20 191.00 C 240.69 183.09 239.56 164.85 237.10 157.00 C 232.89 143.58 224.29 133.74 214.31 130.95 C 208.70 129.38 198.06 130.16 187.15 132.96 C 174.14 136.29 165.69 133.94 161.74 125.89 C 158.98 120.26 157.73 107.11 158.44 91.17 C 159.46 68.24 162.41 55.02 168.60 45.67 C 171.07 41.94 171.17 41.40 169.86 39.05 C 165.96 32.06 157.81 38.52 153.59 51.95 C 148.16 69.23 147.55 74.01 147.52 99.00 C 147.50 127.09 148.18 130.16 156.38 138.56 C 164.47 146.86 170.88 147.73 191.89 143.40 C 199.08 141.92 206.26 141.00 208.60 141.26 C 213.68 141.83 218.21 145.09 222.10 150.96 C 226.92 158.24 228.43 164.88 228.46 179.00 C 228.50 195.25 226.76 201.36 220.32 207.62 C 207.89 219.71 192.50 222.86 174.90 216.93 C 167.12 214.31 163.34 214.79 162.40 218.53 C 161.63 221.60 163.11 223.50 168.32 226.16 C 178.36 231.28 195.26 232.07 208.24 228.03 Z  M 74.98 221.25 C 79.40 219.03 82.68 214.12 84.76 206.63 C 86.40 200.75 86.40 200.75 95.46 201.22 C 106.28 201.79 111.77 203.95 117.45 209.88 C 121.50 214.09 123.66 214.79 127.07 212.96 C 128.38 212.26 129.00 210.87 129.00 208.60 C 129.00 205.91 128.07 204.40 124.16 200.74 C 121.49 198.25 117.92 195.49 116.21 194.61 C 111.21 192.02 101.09 190.03 92.87 190.01 C 85.77 190.00 85.20 189.84 84.75 187.75 C 84.48 186.51 83.95 184.78 83.58 183.89 C 83.02 182.57 84.03 182.06 89.17 181.05 C 108.67 177.21 121.53 166.76 125.46 151.54 C 131.49 128.21 119.32 105.92 95.78 97.18 C 79.28 91.05 57.39 94.86 44.64 106.09 C 40.03 110.14 40.03 110.14 37.69 107.42 C 35.87 105.31 34.78 104.84 32.84 105.32 C 28.44 106.43 27.80 109.87 30.54 117.66 C 32.32 122.70 32.96 126.63 32.98 132.62 C 33.01 142.88 31.23 147.98 25.49 154.12 C 20.61 159.33 20.25 160.48 22.47 163.65 C 24.63 166.74 27.57 167.13 30.63 164.72 C 33.29 162.63 33.29 162.63 35.40 165.14 C 36.55 166.52 38.96 168.66 40.75 169.90 C 46.40 173.79 44.90 179.41 35.70 188.86 C 29.67 195.05 21.61 199.97 17.47 199.99 C 14.39 200.01 11.00 202.84 11.00 205.40 C 11.00 215.38 29.78 210.90 43.21 197.72 C 48.84 192.19 52.21 186.79 54.36 179.82 C 54.84 178.28 55.54 178.32 63.16 180.32 C 71.37 182.48 71.45 182.54 72.64 186.50 C 74.18 191.63 74.32 202.78 72.89 206.87 C 71.66 210.40 69.39 212.00 65.60 212.00 C 61.40 212.00 59.39 218.25 62.57 221.43 C 64.65 223.51 70.65 223.42 74.98 221.25 Z  M 193.12 183.56 C 202.17 181.64 211.79 176.70 212.57 173.57 C 214.37 166.40 209.80 164.55 201.29 169.01 C 189.61 175.13 169.82 175.31 148.18 169.50 C 136.95 166.49 135.81 166.45 133.54 168.96 C 130.88 171.90 132.20 175.35 136.73 177.30 C 151.90 183.85 178.07 186.75 193.12 183.56 Z  M 219.68 120.60 C 230.80 110.60 237.15 87.96 233.60 71.00 C 231.06 58.89 228.08 52.08 223.05 46.88 C 216.94 40.57 210.29 38.51 196.00 38.50 C 186.29 38.50 185.00 38.74 178.83 41.66 C 170.66 45.53 168.23 48.62 170.18 52.68 C 171.98 56.44 174.03 56.62 180.25 53.58 C 190.50 48.58 203.01 47.91 210.90 51.96 C 219.15 56.19 222.10 62.32 222.78 76.67 C 223.56 93.40 218.95 106.92 210.01 114.11 C 203.85 119.06 204.71 125.00 211.59 125.00 C 213.96 125.00 216.05 123.86 219.68 120.60 Z  M 143.81 110.92 C 146.66 106.36 138.68 91.33 128.66 82.40 C 122.97 77.33 122.97 77.33 124.91 72.91 C 127.53 66.98 128.48 57.26 126.77 54.00 C 125.26 51.14 120.03 50.06 118.22 52.24 C 117.61 52.97 116.67 57.10 116.13 61.42 C 114.75 72.61 114.33 72.85 102.88 69.01 C 97.72 67.28 87.65 64.90 80.50 63.72 C 73.35 62.54 67.39 61.53 67.26 61.46 C 67.13 61.40 68.60 58.23 70.52 54.43 C 72.45 50.62 74.55 45.81 75.17 43.75 C 76.32 40.00 76.32 40.00 85.11 40.00 C 96.45 40.00 115.10 42.46 122.13 44.87 C 125.16 45.91 130.42 48.22 133.83 49.99 C 139.75 53.07 140.13 53.14 142.51 51.58 C 145.65 49.53 145.76 45.79 142.75 42.97 C 141.51 41.81 136.90 39.09 132.50 36.92 C 123.35 32.41 112.71 30.41 92.17 29.33 C 80.28 28.71 79.87 28.61 80.45 26.59 C 80.77 25.44 81.52 20.72 82.11 16.10 C 83.35 6.42 82.54 3.42 78.38 2.38 C 73.61 1.18 72.64 2.79 71.36 14.10 C 70.72 19.82 69.90 25.22 69.54 26.10 C 69.01 27.42 66.31 27.80 53.70 28.31 C 34.74 29.08 18.80 32.91 17.50 37.01 C 16.74 39.41 18.89 43.83 21.17 44.55 C 22.19 44.88 25.84 44.15 29.27 42.93 C 34.21 41.17 38.45 40.61 49.75 40.23 C 57.59 39.96 64.00 40.04 64.00 40.40 C 64.00 41.92 55.41 57.96 51.89 63.00 C 45.05 72.81 45.06 72.81 43.82 70.61 C 41.34 66.25 35.64 61.09 29.92 58.04 C 24.79 55.30 23.41 54.95 21.42 55.85 C 20.12 56.45 18.75 58.15 18.38 59.63 C 17.65 62.53 17.76 62.65 26.02 68.38 C 30.30 71.34 36.00 78.32 36.00 80.59 C 36.00 81.30 32.00 84.49 27.12 87.69 C 22.23 90.89 17.77 94.45 17.20 95.61 C 15.85 98.38 17.79 102.39 20.70 102.81 C 25.90 103.56 40.55 93.49 51.87 81.39 C 60.01 72.70 60.01 72.70 70.25 73.32 C 88.34 74.42 104.11 79.57 117.74 88.82 C 125.07 93.80 128.56 97.82 131.80 105.00 C 133.17 108.03 134.73 111.06 135.27 111.75 C 136.88 113.81 142.34 113.28 143.81 110.92 Z  M 205.20 102.46 C 205.98 100.75 206.05 99.05 205.42 97.24 C 204.50 94.64 203.43 94.12 195.80 92.54 C 191.43 91.64 181.23 81.51 179.81 76.65 C 178.41 71.86 177.53 71.04 173.77 71.02 C 169.83 70.99 167.75 74.52 169.01 79.07 C 171.40 87.74 179.16 96.03 190.37 101.93 C 197.94 105.91 203.54 106.11 205.20 102.46 Z  M 172.44 29.37 C 186.41 26.72 196.78 21.41 204.31 13.08 C 210.11 6.66 208.95 1.00 201.82 1.00 C 200.36 1.00 198.44 2.33 196.63 4.60 C 190.36 12.45 177.26 17.89 159.50 20.00 C 149.48 21.19 147.68 21.86 145.97 25.05 C 145.29 26.32 145.69 27.46 147.53 29.44 C 149.91 32.01 150.32 32.09 157.26 31.50 C 161.24 31.16 168.07 30.20 172.44 29.37 Z  M 66.00 169.97 C 55.73 167.80 45.35 161.93 42.52 156.67 C 40.99 153.82 40.92 153.02 42.07 150.93 C 42.92 149.38 43.56 143.67 43.82 135.22 C 44.23 121.94 44.23 121.94 48.51 117.54 C 53.60 112.31 60.10 108.85 69.06 106.63 C 77.30 104.58 81.22 104.58 88.07 106.61 C 100.65 110.34 107.88 116.19 112.70 126.50 C 115.08 131.59 115.50 133.78 115.50 141.00 C 115.50 148.47 115.17 150.07 112.76 154.17 C 109.46 159.77 100.56 166.42 93.50 168.55 C 87.26 170.44 71.97 171.23 66.00 169.97 Z  M 90.54 141.45 C 93.82 140.60 97.51 139.24 98.75 138.43 C 101.56 136.59 101.66 132.91 98.97 130.47 C 97.14 128.82 96.46 128.76 91.98 129.91 C 85.64 131.53 76.04 131.41 64.00 129.54 C 55.08 128.16 54.35 128.18 52.00 129.89 C 46.68 133.74 49.41 139.94 56.47 140.04 C 58.14 140.07 62.20 140.70 65.50 141.44 C 73.73 143.30 83.42 143.30 90.54 141.45 Z "/>
</g>
</svg>