<?xml version="1.0" encoding="UTF-8" standalone="no"?>
<!DOCTYPE svg PUBLIC "-//W3C//DTD SVG 1.1//EN" "http://www.w3.org/Graphics/SVG/1.1/DTD/svg11.dtd" >
<svg xmlns="http://www.w3.org/2000/svg" xmlns:xlink="http://www.w3.org/1999/xlink" version="1.1" viewBox="0 0 256 256">
 <g >
 <path fill="currentColor"
d=" M 114.50 239.94 C 147.95 235.78 173.86 225.87 197.71 208.14 C 205.89 202.05 219.20 188.56 224.81 180.66 C 228.12 176.00 228.12 176.00 196.46 176.00 C 164.80 176.00 164.80 176.00 172.65 169.60 C 188.87 156.37 187.91 157.61 184.56 154.09 C 182.95 152.39 181.15 151.01 180.56 151.03 C 179.98 151.05 175.45 154.68 170.50 159.10 C 165.55 163.53 157.22 170.01 152.00 173.51 C 142.03 180.18 118.98 191.00 108.12 194.11 C 104.60 195.11 101.57 196.10 101.38 196.29 C 100.84 196.82 104.20 205.00 104.95 205.00 C 106.35 205.00 121.78 200.16 126.60 198.21 C 131.69 196.15 131.69 196.15 142.46 208.48 C 148.38 215.26 153.20 221.17 153.18 221.63 C 153.15 222.08 147.81 223.93 141.31 225.75 C 126.13 229.98 92.59 234.34 82.64 233.38 C 75.78 232.72 75.78 232.72 76.50 237.11 C 76.90 239.52 77.45 241.86 77.71 242.31 C 78.35 243.39 95.91 242.26 114.50 239.94 Z  M 27.00 185.00 C 27.00 171.00 27.00 171.00 44.00 171.00 C 61.00 171.00 61.00 171.00 61.00 181.50 C 61.00 192.00 61.00 192.00 66.00 192.00 C 71.00 192.00 71.00 192.00 71.00 120.00 C 71.00 48.00 71.00 48.00 44.50 48.00 C 18.00 48.00 18.00 48.00 18.00 123.50 C 18.00 199.00 18.00 199.00 22.50 199.00 C 27.00 199.00 27.00 199.00 27.00 185.00 Z  M 101.29 175.93 C 148.31 164.10 171.03 152.94 193.61 130.54 C 208.61 115.66 210.94 117.00 170.06 117.00 C 135.05 117.00 135.05 117.00 143.57 108.82 C 152.10 100.63 152.10 100.63 148.65 97.18 C 145.20 93.73 145.20 93.73 134.79 104.12 C 121.97 116.91 110.02 125.51 95.00 132.75 C 88.67 135.80 83.36 138.41 83.18 138.55 C 83.00 138.69 83.90 140.42 85.18 142.38 C 87.94 146.63 87.79 146.66 101.24 139.80 C 106.60 137.06 111.37 134.98 111.86 135.16 C 113.14 135.65 133.34 157.00 132.89 157.38 C 131.21 158.78 100.20 166.29 88.70 168.08 C 83.22 168.93 81.04 169.66 81.38 170.54 C 81.64 171.23 82.41 173.64 83.09 175.90 C 83.76 178.15 84.49 180.00 84.70 180.00 C 84.92 180.00 92.38 178.17 101.29 175.93 Z  M 230.89 111.75 C 233.39 105.07 233.52 105.34 227.30 104.61 C 208.71 102.42 179.44 91.72 162.67 80.99 C 157.84 77.89 157.84 77.89 170.92 65.35 C 178.11 58.46 184.00 52.48 184.00 52.07 C 184.00 51.66 182.34 50.14 180.32 48.70 C 176.64 46.08 176.64 46.08 168.07 54.86 C 160.11 63.03 151.04 71.00 149.73 71.00 C 148.75 71.00 136.75 58.12 132.70 52.71 C 130.56 49.84 128.66 47.35 128.49 47.18 C 128.03 46.69 120.00 52.16 120.00 52.96 C 120.00 53.34 124.98 58.89 131.06 65.30 C 142.12 76.95 142.12 76.95 136.81 80.34 C 123.72 88.71 98.81 99.03 82.25 102.96 C 79.36 103.64 77.00 104.44 77.00 104.73 C 77.00 105.03 77.53 107.04 78.18 109.21 C 79.33 113.05 79.46 113.14 82.93 112.49 C 88.89 111.39 107.61 105.08 118.60 100.48 C 127.61 96.71 135.44 92.65 147.58 85.48 C 150.67 83.65 150.67 83.65 156.81 87.39 C 164.71 92.18 183.38 101.01 193.00 104.49 C 200.88 107.35 225.24 113.88 228.27 113.96 C 229.25 113.98 230.43 112.99 230.89 111.75 Z  M 114.86 47.50 C 127.49 37.05 137.87 28.27 137.92 27.98 C 137.96 27.69 136.61 25.77 134.91 23.70 C 131.82 19.95 131.82 19.95 123.83 27.23 C 112.39 37.65 101.45 46.74 91.59 54.05 C 83.00 60.41 83.00 60.41 86.23 63.73 C 88.00 65.56 90.00 66.93 90.66 66.78 C 91.33 66.63 102.22 57.95 114.86 47.50 Z  M 220.82 60.68 C 224.04 57.37 224.04 57.37 219.74 54.28 C 217.37 52.58 206.68 44.40 195.99 36.09 C 176.54 21.00 176.54 21.00 173.08 24.45 C 169.62 27.91 169.62 27.91 172.53 30.21 C 185.68 40.56 216.52 64.00 217.00 64.00 C 217.34 64.00 219.05 62.51 220.82 60.68 Z  M 151.59 205.23 C 145.21 198.27 140.00 192.33 140.01 192.04 C 140.01 191.74 142.65 189.81 145.86 187.73 C 151.71 183.97 151.71 183.97 180.50 184.23 C 209.29 184.50 209.29 184.50 202.20 191.66 C 194.33 199.60 186.18 205.73 175.21 211.95 C 162.69 219.04 164.77 219.63 151.59 205.23 Z  M 27.00 109.50 C 27.00 57.00 27.00 57.00 44.00 57.00 C 61.00 57.00 61.00 57.00 61.00 109.50 C 61.00 162.00 61.00 162.00 44.00 162.00 C 27.00 162.00 27.00 162.00 27.00 109.50 Z  M 131.19 141.69 C 114.56 125.02 113.18 125.99 153.58 126.05 C 184.50 126.09 184.50 126.09 178.50 131.64 C 171.65 137.97 159.39 146.34 150.28 150.89 C 146.86 152.60 143.92 154.00 143.76 154.00 C 143.60 154.00 137.95 148.46 131.19 141.69 Z "/>
</g>
</svg>