<?xml version="1.0" encoding="UTF-8" standalone="no"?>
<!DOCTYPE svg PUBLIC "-//W3C//DTD SVG 1.1//EN" "http://www.w3.org/Graphics/SVG/1.1/DTD/svg11.dtd" >
<svg xmlns="http://www.w3.org/2000/svg" xmlns:xlink="http://www.w3.org/1999/xlink" version="1.1" viewBox="0 0 256 256">
 <g >
 <path fill="currentColor"
d=" M 78.00 212.98 C 78.00 182.96 78.00 182.96 99.75 183.23 C 121.50 183.50 121.50 183.50 121.77 204.75 C 122.04 226.00 122.04 226.00 126.00 226.00 C 129.96 226.00 129.96 226.00 130.23 204.75 C 130.50 183.50 130.50 183.50 149.25 183.23 C 168.00 182.96 168.00 182.96 168.00 204.48 C 168.00 226.00 168.00 226.00 173.00 226.00 C 178.00 226.00 178.00 226.00 178.00 204.50 C 178.00 183.00 178.00 183.00 197.89 183.00 C 217.79 183.00 217.79 183.00 218.51 198.46 C 219.52 219.90 218.35 226.57 213.14 229.02 C 211.69 229.70 206.15 230.49 200.84 230.76 C 191.17 231.26 191.17 231.26 191.72 236.88 C 192.03 239.97 192.37 242.62 192.49 242.77 C 192.61 242.92 197.16 242.56 202.60 241.97 C 214.80 240.66 221.83 237.61 225.20 232.20 C 227.50 228.50 227.50 228.50 227.80 178.75 C 228.10 129.00 228.10 129.00 148.05 129.00 C 68.00 129.00 68.00 129.00 68.00 186.00 C 68.00 243.00 68.00 243.00 73.00 243.00 C 78.00 243.00 78.00 243.00 78.00 212.98 Z  M 37.49 209.18 C 48.51 194.49 57.38 174.26 62.04 153.17 C 63.78 145.27 64.98 133.85 66.59 109.75 C 67.18 101.00 67.18 101.00 142.59 101.00 C 218.00 101.00 218.00 101.00 218.00 75.50 C 218.00 50.00 218.00 50.00 137.55 50.00 C 57.11 50.00 57.11 50.00 57.69 81.25 C 58.47 123.37 56.48 143.30 49.39 164.60 C 42.46 185.45 35.36 197.61 22.20 211.19 C 12.81 220.88 12.81 220.88 17.66 223.95 C 22.50 227.02 22.50 227.02 26.78 222.37 C 29.14 219.82 33.96 213.88 37.49 209.18 Z  M 159.01 44.49 C 161.96 41.45 162.22 40.80 160.96 39.61 C 160.15 38.85 153.00 32.54 145.05 25.58 C 130.60 12.93 130.60 12.93 126.61 16.92 C 122.62 20.91 122.62 20.91 125.56 23.21 C 131.12 27.54 148.50 42.73 150.92 45.36 C 154.07 48.79 154.93 48.70 159.01 44.49 Z  M 78.00 155.98 C 78.00 137.96 78.00 137.96 99.75 138.23 C 121.50 138.50 121.50 138.50 121.77 156.25 C 122.05 174.00 122.05 174.00 100.02 174.00 C 78.00 174.00 78.00 174.00 78.00 155.98 Z  M 130.23 156.25 C 130.50 138.50 130.50 138.50 149.25 138.23 C 168.00 137.96 168.00 137.96 168.00 155.98 C 168.00 174.00 168.00 174.00 148.98 174.00 C 129.95 174.00 129.95 174.00 130.23 156.25 Z  M 178.23 156.25 C 178.50 138.50 178.50 138.50 198.75 138.23 C 219.00 137.96 219.00 137.96 219.00 155.98 C 219.00 174.00 219.00 174.00 198.48 174.00 C 177.95 174.00 177.95 174.00 178.23 156.25 Z  M 67.00 75.50 C 67.00 59.00 67.00 59.00 138.00 59.00 C 209.00 59.00 209.00 59.00 209.00 75.50 C 209.00 92.00 209.00 92.00 138.00 92.00 C 67.00 92.00 67.00 92.00 67.00 75.50 Z "/>
</g>
</svg>