<?xml version="1.0" encoding="UTF-8" standalone="no"?>
<!DOCTYPE svg PUBLIC "-//W3C//DTD SVG 1.1//EN" "http://www.w3.org/Graphics/SVG/1.1/DTD/svg11.dtd" >
<svg xmlns="http://www.w3.org/2000/svg" xmlns:xlink="http://www.w3.org/1999/xlink" version="1.1" viewBox="0 0 256 256">
 <g >
 <path fill="currentColor"
d=" M 123.98 215.01 C 124.99 214.47 126.61 211.88 127.58 209.26 C 128.54 206.64 129.71 204.07 130.17 203.55 C 133.25 200.04 128.30 173.49 123.86 169.75 C 120.27 166.73 118.64 167.45 119.38 171.75 C 121.84 186.14 120.97 192.83 115.94 198.29 C 112.99 201.50 112.99 201.50 110.99 199.13 C 106.80 194.17 103.69 178.40 102.11 154.00 C 101.73 148.22 100.99 142.77 100.46 141.89 C 98.27 138.22 90.08 130.00 88.62 130.00 C 86.13 130.00 85.69 134.06 86.27 151.36 C 86.93 170.66 89.44 181.86 96.34 196.18 C 101.15 206.19 105.71 212.07 110.50 214.48 C 113.91 216.20 121.23 216.48 123.98 215.01 Z  M 174.34 214.06 C 180.59 211.68 184.84 202.66 188.97 183.00 C 191.21 172.34 191.79 148.22 189.93 143.32 C 188.67 139.99 181.30 130.00 180.11 130.00 C 179.66 130.00 179.90 133.49 180.65 137.75 C 182.09 145.90 182.00 147.30 178.88 166.50 C 176.58 180.67 174.51 187.67 171.71 190.74 C 170.04 192.57 169.40 192.75 168.17 191.74 C 163.73 188.07 161.78 177.09 161.92 156.50 C 161.94 153.20 160.94 143.53 159.70 135.00 C 158.46 126.47 157.74 118.15 158.10 116.50 C 159.09 112.01 159.12 101.10 158.15 99.18 C 157.62 98.12 158.01 95.15 159.21 91.17 C 161.80 82.57 163.26 82.01 183.22 81.98 C 198.42 81.96 216.99 80.11 222.26 78.10 C 223.78 77.52 225.53 75.93 226.15 74.57 C 227.67 71.24 231.76 70.00 241.26 70.00 C 249.22 70.00 249.22 70.00 248.54 67.25 C 248.16 65.74 247.51 64.14 247.07 63.69 C 245.44 62.01 232.82 60.99 214.50 61.05 C 181.38 61.16 184.16 61.49 187.56 57.92 C 189.91 55.47 191.15 54.92 193.75 55.22 C 195.71 55.45 197.00 55.15 197.00 54.48 C 197.00 52.88 182.96 41.03 180.26 40.35 C 176.77 39.47 173.23 40.76 169.42 44.28 C 164.83 48.52 163.88 53.62 166.90 57.86 C 169.34 61.29 168.91 61.78 162.58 62.64 C 158.39 63.22 158.00 63.09 158.00 61.17 C 158.00 60.02 158.72 56.94 159.61 54.33 C 161.22 49.59 161.22 49.59 158.39 47.33 C 156.84 46.09 152.72 43.63 149.24 41.87 C 141.03 37.70 140.46 38.25 138.73 52.01 C 137.42 62.50 137.42 62.50 102.96 63.23 C 40.73 64.54 12.52 65.49 11.25 66.31 C 9.03 67.75 9.94 69.40 15.79 74.61 C 20.99 79.24 22.11 79.78 27.52 80.33 C 30.81 80.66 37.77 81.43 43.00 82.04 C 48.23 82.66 71.85 83.46 95.50 83.83 C 138.50 84.50 138.50 84.50 138.56 91.00 C 138.60 94.58 139.42 108.53 140.40 122.00 C 142.59 152.35 148.75 186.62 153.80 196.56 C 158.16 205.13 162.25 210.87 165.59 213.07 C 168.85 215.22 170.73 215.43 174.34 214.06 Z  M 83.00 181.97 C 83.00 181.40 81.83 178.63 80.41 175.82 C 78.10 171.27 77.83 169.61 77.92 160.61 C 77.99 153.82 78.65 148.45 79.91 144.27 C 81.80 138.04 81.80 138.04 78.15 135.79 C 76.14 134.55 72.85 132.05 70.83 130.23 C 67.17 126.92 67.17 126.92 64.70 130.21 C 59.79 136.76 59.20 138.92 59.42 149.50 C 59.69 162.19 61.71 167.01 70.17 175.16 C 73.54 178.41 77.02 181.49 77.90 182.00 C 80.06 183.26 83.00 183.24 83.00 181.97 Z  M 139.00 171.56 C 139.00 171.32 137.21 167.83 135.01 163.81 C 130.30 155.17 129.92 150.59 133.12 141.12 C 134.62 136.68 135.93 134.53 137.62 133.76 C 138.93 133.17 140.00 132.40 140.00 132.06 C 140.00 129.62 130.24 119.00 127.99 119.00 C 125.79 119.00 120.67 124.60 117.99 129.94 C 114.60 136.70 115.48 146.17 120.48 156.82 C 122.56 161.27 125.29 165.86 126.53 167.03 C 129.03 169.38 139.00 173.00 139.00 171.56 Z  M 110.00 133.43 C 110.00 128.72 109.52 123.97 108.94 122.88 C 108.07 121.27 108.57 119.63 111.54 114.20 C 116.30 105.48 117.71 104.00 121.24 104.00 C 125.43 104.00 124.49 102.46 115.93 95.25 C 107.69 88.32 105.04 87.64 100.38 91.23 C 93.40 96.62 90.88 102.45 90.80 113.43 C 90.75 120.41 91.17 122.69 93.41 127.58 C 98.10 137.83 102.04 141.78 107.75 141.94 C 109.91 142.00 110.00 141.67 110.00 133.43 Z "/>
</g>
</svg>