<?xml version="1.0" encoding="UTF-8" standalone="no"?>
<!DOCTYPE svg PUBLIC "-//W3C//DTD SVG 1.1//EN" "http://www.w3.org/Graphics/SVG/1.1/DTD/svg11.dtd" >
<svg xmlns="http://www.w3.org/2000/svg" xmlns:xlink="http://www.w3.org/1999/xlink" version="1.1" viewBox="0 0 256 256">
 <g >
 <path fill="currentColor"
d=" M 73.43 208.59 C 76.25 206.72 79.21 203.98 80.00 202.51 C 80.78 201.04 83.31 198.73 85.62 197.38 C 87.93 196.02 90.11 194.16 90.46 193.23 C 91.85 189.61 87.50 163.45 82.91 147.78 C 80.93 141.06 80.93 141.06 83.22 136.28 C 84.98 132.59 86.58 130.93 90.26 129.00 C 95.59 126.20 96.53 124.52 95.00 120.51 C 94.04 117.96 93.66 117.80 90.23 118.46 C 79.49 120.52 77.90 120.66 77.21 119.60 C 76.82 118.99 76.35 110.65 76.16 101.05 C 75.77 80.77 75.67 81.00 85.24 81.00 C 90.29 81.00 91.43 80.63 93.55 78.35 C 94.90 76.90 96.00 75.11 96.00 74.39 C 96.00 73.66 92.40 70.76 88.00 67.94 C 83.60 65.12 80.00 62.61 80.00 62.38 C 80.00 62.14 81.33 59.30 82.97 56.07 C 85.93 50.19 85.93 50.19 82.96 46.44 C 78.82 41.24 73.96 37.86 71.10 38.21 C 67.31 38.67 64.87 43.11 62.58 53.69 C 60.46 63.50 60.46 63.50 36.48 64.07 C 6.22 64.78 3.90 65.72 11.75 74.06 C 15.19 77.72 16.24 78.19 24.50 79.74 C 34.09 81.54 37.34 81.69 51.50 81.00 C 60.50 80.56 60.50 80.56 61.27 86.03 C 61.69 89.04 61.79 96.22 61.50 102.00 C 61.13 109.20 61.40 114.30 62.34 118.22 C 63.78 124.16 63.64 125.00 61.23 125.00 C 60.45 125.00 58.22 125.75 56.29 126.67 C 52.90 128.28 52.63 128.25 48.53 126.02 C 43.59 123.32 42.00 123.88 42.00 128.34 C 42.00 132.85 44.44 135.83 50.38 138.60 C 55.95 141.19 60.00 141.61 63.15 139.92 C 64.26 139.32 65.32 138.99 65.49 139.17 C 65.67 139.35 66.71 149.54 67.81 161.80 C 69.80 184.11 69.80 184.11 67.64 192.30 C 65.48 200.50 65.48 200.50 61.01 200.50 C 55.08 200.50 54.21 203.22 59.43 205.41 C 61.73 206.37 63.00 207.57 63.00 208.78 C 63.00 213.15 66.66 213.08 73.43 208.59 Z  M 143.00 206.82 C 166.14 208.24 170.65 208.15 179.14 206.09 C 183.89 204.94 188.50 204.00 189.39 204.00 C 192.42 204.00 191.03 200.16 186.75 196.71 C 178.18 189.80 178.45 189.87 166.96 191.05 C 151.04 192.69 152.20 194.00 152.69 174.78 C 153.07 159.78 153.27 158.34 155.27 156.21 C 157.30 154.05 157.94 153.94 165.16 154.57 C 174.92 155.43 188.00 154.29 188.00 152.59 C 188.00 150.70 181.16 143.13 177.95 141.47 C 176.03 140.48 172.02 140.00 165.64 140.00 C 156.19 140.00 156.19 140.00 156.72 129.75 C 157.05 123.48 157.76 118.92 158.56 118.00 C 159.27 117.17 160.35 115.20 160.96 113.62 C 162.00 110.87 162.26 110.76 166.68 111.37 C 169.22 111.72 175.40 111.52 180.40 110.93 C 188.33 109.99 189.88 109.48 192.45 106.96 C 195.40 104.07 195.40 104.07 191.20 100.08 C 188.58 97.58 185.63 95.83 183.30 95.40 C 178.88 94.57 114.60 95.64 111.00 96.60 C 108.81 97.18 109.07 96.67 113.00 92.55 C 117.22 88.14 120.39 85.75 142.00 70.73 C 150.41 64.89 150.56 64.83 156.00 65.41 C 159.03 65.74 163.53 66.41 166.00 66.91 C 168.47 67.41 173.43 68.33 177.00 68.95 C 180.57 69.57 184.75 70.98 186.29 72.09 C 187.90 73.26 189.85 73.87 190.92 73.53 C 192.07 73.16 192.98 73.52 193.35 74.47 C 193.67 75.31 194.70 76.00 195.64 76.00 C 197.80 76.00 213.07 84.20 219.13 88.62 C 221.68 90.48 224.39 92.00 225.15 92.00 C 225.91 92.00 226.97 92.98 227.51 94.17 C 228.95 97.34 233.00 99.92 237.00 100.23 C 240.45 100.50 240.50 100.44 240.38 96.73 C 240.23 91.84 239.17 90.73 222.77 78.45 C 206.08 65.95 201.95 63.59 186.20 57.49 C 176.77 53.84 174.03 52.37 174.47 51.23 C 174.80 50.36 173.30 47.43 170.90 44.25 C 166.76 38.77 166.76 38.77 161.57 39.20 C 146.37 40.46 120.09 60.11 105.64 81.02 C 94.45 97.19 88.21 107.39 88.71 108.69 C 89.67 111.19 92.36 109.97 99.08 104.00 C 106.23 97.65 108.00 96.83 108.00 99.89 C 108.00 102.81 113.17 107.68 117.56 108.89 C 119.73 109.50 125.66 109.99 130.75 109.99 C 140.00 110.00 140.00 110.00 140.00 115.85 C 140.00 119.06 139.71 125.81 139.35 130.85 C 138.70 140.00 138.70 140.00 127.78 140.00 C 116.88 140.00 113.00 140.89 113.00 143.40 C 113.00 145.89 117.02 149.85 120.77 151.05 C 122.82 151.71 125.28 152.93 126.22 153.76 C 127.52 154.89 129.19 155.10 132.90 154.61 C 135.62 154.25 138.06 154.30 138.31 154.73 C 138.57 155.15 139.10 163.71 139.50 173.75 C 140.23 192.00 140.23 192.00 125.62 192.00 C 113.43 192.00 111.00 191.76 111.00 190.53 C 111.00 189.64 111.59 189.29 112.50 189.64 C 114.80 190.52 114.28 188.31 111.78 186.56 C 106.83 183.09 103.36 186.19 104.31 193.24 C 105.33 200.86 113.13 206.09 125.00 207.11 C 129.12 207.46 134.30 207.51 136.50 207.21 C 138.70 206.91 141.62 206.74 143.00 206.82 Z "/>
</g>
</svg>