<?xml version="1.0" encoding="UTF-8" standalone="no"?>
<!DOCTYPE svg PUBLIC "-//W3C//DTD SVG 1.1//EN" "http://www.w3.org/Graphics/SVG/1.1/DTD/svg11.dtd" >
<svg xmlns="http://www.w3.org/2000/svg" xmlns:xlink="http://www.w3.org/1999/xlink" version="1.1" viewBox="0 0 256 256">
 <g >
 <path fill="currentColor"
d=" M 81.08 214.00 C 81.58 214.00 83.34 212.14 84.99 209.86 C 86.63 207.58 89.72 204.44 91.85 202.88 C 97.42 198.78 101.44 189.54 100.71 182.47 C 100.41 179.60 99.72 176.40 99.18 175.37 C 98.64 174.34 97.67 168.85 97.04 163.18 C 96.40 157.50 94.95 149.40 93.81 145.18 C 90.15 131.60 90.13 131.80 95.90 125.70 C 98.70 122.74 101.00 119.80 101.00 119.18 C 101.00 118.55 99.91 117.33 98.58 116.46 C 96.41 115.04 95.85 115.03 93.26 116.37 C 90.36 117.86 90.36 117.86 89.02 107.31 C 87.96 98.98 87.93 95.17 88.84 89.27 C 89.48 85.16 90.25 81.40 90.56 80.90 C 90.87 80.41 94.66 80.00 98.99 80.00 C 106.66 80.00 106.92 79.92 109.46 76.75 C 112.07 73.50 112.07 73.50 111.58 84.00 C 109.99 118.72 109.27 158.60 110.09 167.50 C 111.18 179.52 116.84 197.69 120.87 202.15 C 124.09 205.71 129.60 206.79 149.15 207.68 C 160.37 208.19 163.51 208.01 166.79 206.70 C 170.58 205.18 170.87 205.20 172.55 207.05 C 174.34 209.03 178.00 209.74 178.00 208.10 C 178.00 207.29 179.54 206.37 189.63 201.13 C 193.94 198.89 197.00 194.14 197.00 189.70 C 197.00 187.68 196.14 182.75 195.09 178.76 C 193.77 173.74 192.99 166.34 192.57 154.77 C 191.97 138.26 191.99 137.98 194.48 133.22 C 195.87 130.57 197.89 124.37 198.98 119.45 C 200.07 114.53 202.31 107.22 203.95 103.21 C 206.84 96.18 217.16 79.01 221.43 74.13 C 225.30 69.70 237.19 62.00 240.16 62.00 C 241.75 62.00 243.00 61.46 243.00 60.77 C 243.00 58.57 229.76 47.00 227.24 47.00 C 225.95 47.00 221.82 48.59 218.06 50.54 C 207.88 55.81 206.01 56.15 198.73 54.07 C 195.28 53.08 188.41 51.69 183.48 50.97 C 164.65 48.25 128.44 49.86 118.00 53.88 C 111.68 56.32 109.74 56.48 107.03 54.79 C 104.46 53.18 103.26 54.52 105.27 56.74 C 106.91 58.56 111.00 67.41 111.00 69.15 C 111.00 70.72 106.99 69.11 100.43 64.90 C 97.09 62.75 93.78 61.00 93.06 61.00 C 92.19 61.00 91.98 60.26 92.42 58.75 C 92.78 57.51 93.34 54.92 93.67 53.00 C 94.00 51.08 95.17 48.50 96.28 47.28 C 98.71 44.59 97.50 42.49 92.94 41.49 C 91.34 41.13 89.17 39.76 88.12 38.42 C 85.31 34.85 79.95 35.08 76.73 38.90 C 73.86 42.32 70.64 54.10 71.51 58.05 C 71.88 59.71 71.65 61.10 70.94 61.54 C 70.29 61.94 58.45 62.20 44.63 62.12 C 18.47 61.97 14.92 62.45 14.19 66.25 C 14.01 67.20 15.89 70.11 18.49 72.88 C 24.41 79.22 29.32 80.59 41.81 79.40 C 46.59 78.94 51.17 78.67 52.00 78.80 C 52.83 78.92 57.10 79.35 61.50 79.76 C 69.50 80.50 69.50 80.50 70.12 88.50 C 71.08 100.77 72.90 116.02 73.53 117.04 C 74.95 119.35 71.92 121.82 66.81 122.53 C 61.66 123.23 61.54 123.19 58.42 119.48 C 54.87 115.25 53.67 115.46 51.48 120.69 C 49.53 125.38 49.61 127.32 51.97 131.95 C 55.37 138.61 58.06 140.00 67.55 140.00 C 75.82 140.00 75.82 140.00 76.38 143.75 C 76.68 145.81 77.20 152.00 77.52 157.50 C 77.84 163.00 78.55 170.66 79.09 174.53 C 79.92 180.51 79.78 182.53 78.13 188.03 C 77.07 191.59 75.91 196.19 75.55 198.25 C 74.91 202.00 74.91 202.00 69.49 202.00 C 63.60 202.00 62.77 203.66 67.56 205.84 C 69.16 206.57 70.00 207.78 70.00 209.36 C 70.00 210.68 70.56 212.22 71.25 212.78 C 72.72 213.99 76.94 214.87 78.83 214.36 C 79.56 214.16 80.57 214.00 81.08 214.00 Z  M 129.87 189.35 C 128.30 187.46 127.25 171.36 126.39 135.86 C 125.84 113.23 125.84 113.23 128.10 111.64 C 129.72 110.51 130.72 110.36 131.63 111.11 C 132.32 111.68 133.93 112.07 135.20 111.97 C 142.60 111.36 143.00 111.62 143.00 117.00 C 143.00 122.00 143.00 122.00 138.58 122.00 C 132.50 122.00 131.15 122.70 129.46 126.74 C 125.81 135.49 130.05 157.57 137.47 168.41 C 139.71 171.67 142.09 174.53 142.77 174.76 C 144.78 175.43 144.23 168.87 141.91 164.46 C 139.95 160.75 138.01 150.94 137.66 143.00 C 137.52 139.89 137.78 139.50 140.00 139.50 C 142.27 139.50 142.55 139.99 143.19 145.00 C 143.57 148.03 144.59 152.48 145.45 154.90 C 146.31 157.32 147.27 161.82 147.58 164.90 C 148.16 170.71 150.67 179.01 151.83 178.98 C 155.39 178.90 156.16 174.31 155.15 159.00 C 154.27 145.44 155.98 117.87 158.02 112.94 C 159.13 110.27 159.43 110.18 168.33 109.78 C 173.37 109.56 177.89 109.70 178.37 110.11 C 178.85 110.51 178.67 113.19 177.95 116.17 C 177.25 119.10 176.59 126.45 176.49 132.50 C 176.39 138.55 175.95 144.32 175.52 145.32 C 175.09 146.32 175.30 155.54 175.99 165.82 C 176.68 176.09 177.08 185.62 176.87 187.00 C 176.52 189.38 176.09 189.53 168.00 190.15 C 163.32 190.51 153.14 190.85 145.37 190.90 C 133.38 190.99 131.04 190.75 129.87 189.35 Z  M 170.65 165.75 C 169.74 158.89 170.01 139.10 171.05 136.38 C 172.90 131.50 172.20 127.04 169.08 123.92 C 165.47 120.32 163.73 120.25 161.10 123.60 C 158.20 127.28 157.53 132.31 158.91 139.92 C 160.49 148.63 165.54 164.92 167.53 167.75 C 170.04 171.31 171.28 170.52 170.65 165.75 Z  M 176.68 98.39 C 173.00 94.97 172.61 94.85 166.38 95.17 C 159.91 95.50 159.91 95.50 160.53 93.00 C 160.88 91.62 161.69 90.19 162.33 89.82 C 167.26 86.95 167.22 86.79 160.29 80.75 C 156.65 77.59 153.11 75.00 152.42 75.00 C 151.72 75.00 149.66 76.46 147.83 78.25 C 144.78 81.23 144.46 82.12 144.00 89.00 C 143.50 96.50 143.50 96.50 136.33 96.50 C 132.39 96.50 128.93 96.27 128.65 95.99 C 128.37 95.71 128.62 93.23 129.20 90.49 C 129.99 86.79 129.95 83.88 129.02 79.20 C 128.33 75.74 128.00 72.67 128.28 72.38 C 129.23 71.43 140.42 68.82 147.50 67.89 C 151.35 67.39 161.45 66.75 169.95 66.47 C 178.44 66.20 187.13 65.50 189.25 64.93 C 193.11 63.89 197.00 64.41 197.00 65.97 C 197.00 66.42 195.50 69.03 193.66 71.76 C 190.00 77.21 183.57 92.45 182.47 98.30 C 182.09 100.33 181.49 101.99 181.14 101.97 C 180.79 101.96 178.78 100.35 176.68 98.39 Z "/>
</g>
</svg>