<?xml version="1.0" encoding="UTF-8" standalone="no"?>
<!DOCTYPE svg PUBLIC "-//W3C//DTD SVG 1.1//EN" "http://www.w3.org/Graphics/SVG/1.1/DTD/svg11.dtd" >
<svg xmlns="http://www.w3.org/2000/svg" xmlns:xlink="http://www.w3.org/1999/xlink" version="1.1" viewBox="0 0 256 256">
 <g >
 <path fill="currentColor"
d=" M 66.65 159.50 C 68.54 153.19 68.28 147.20 65.98 143.97 C 64.87 142.41 63.27 139.19 62.44 136.82 C 61.60 134.45 59.55 131.10 57.88 129.38 C 54.85 126.25 54.85 126.25 58.17 125.75 C 60.00 125.48 68.70 125.86 77.50 126.60 C 86.30 127.35 98.65 127.97 104.94 127.98 C 111.23 127.99 118.93 128.53 122.05 129.17 C 126.55 130.10 128.69 130.07 132.46 129.01 C 135.08 128.28 140.43 127.61 144.36 127.51 C 155.65 127.25 183.09 125.07 184.27 124.33 C 184.99 123.89 185.06 124.29 184.48 125.59 C 183.34 128.13 182.64 147.09 183.47 152.68 C 183.98 156.02 184.73 157.37 186.54 158.20 C 189.95 159.75 191.28 158.32 196.42 147.61 C 199.67 140.85 202.41 136.87 207.05 132.19 C 215.95 123.21 221.08 120.86 233.50 120.11 C 243.50 119.50 243.50 119.50 243.22 116.00 C 243.06 114.08 242.38 112.32 241.72 112.09 C 241.05 111.87 237.57 108.56 233.98 104.75 C 228.46 98.88 226.77 97.69 222.98 96.99 C 216.35 95.77 211.16 97.15 202.46 102.43 C 194.65 107.17 194.65 107.17 181.58 107.06 C 165.65 106.92 122.47 108.61 118.96 109.51 C 117.56 109.86 111.37 109.68 105.20 109.11 C 90.21 107.71 50.71 109.37 43.35 111.71 C 38.28 113.32 38.11 113.31 30.63 110.58 C 24.97 108.51 22.09 107.98 19.25 108.46 C 12.67 109.57 12.64 109.73 17.07 120.05 C 19.30 125.25 21.54 130.51 22.04 131.75 C 23.05 134.22 25.47 134.59 30.80 133.06 C 34.93 131.87 44.90 135.18 49.16 139.15 C 51.67 141.50 52.00 142.49 52.00 147.84 C 52.00 155.71 53.09 158.30 57.70 161.46 C 62.86 164.98 65.15 164.48 66.65 159.50 Z "/>
</g>
</svg>