<?xml version="1.0" encoding="UTF-8" standalone="no"?>
<!DOCTYPE svg PUBLIC "-//W3C//DTD SVG 1.1//EN" "http://www.w3.org/Graphics/SVG/1.1/DTD/svg11.dtd" >
<svg xmlns="http://www.w3.org/2000/svg" xmlns:xlink="http://www.w3.org/1999/xlink" version="1.1" viewBox="0 0 256 256">
 <g >
 <path fill="currentColor"
d=" M 123.81 211.41 C 127.60 209.86 131.92 206.78 136.11 202.64 C 138.84 199.95 139.00 199.32 138.96 191.64 C 138.95 187.16 138.21 179.22 137.32 174.00 C 135.38 162.48 135.19 153.41 136.85 151.75 C 137.99 150.61 140.73 150.25 161.00 148.52 C 170.08 147.75 178.95 145.29 179.70 143.33 C 180.49 141.27 176.42 137.35 170.56 134.51 C 165.54 132.09 165.40 132.08 151.75 133.21 C 144.19 133.83 137.77 134.10 137.47 133.80 C 137.17 133.51 137.86 130.77 139.00 127.72 C 141.07 122.18 141.07 122.18 135.43 116.84 C 132.32 113.90 129.05 111.50 128.15 111.50 C 126.01 111.50 120.16 120.53 119.42 124.99 C 118.06 133.20 117.84 133.45 111.45 134.14 C 108.21 134.49 99.69 135.10 92.52 135.48 C 80.52 136.12 79.26 136.38 76.53 138.73 C 73.57 141.28 73.57 141.28 76.98 144.12 C 82.44 148.68 87.92 149.92 102.36 149.86 C 111.90 149.82 115.57 150.15 116.56 151.15 C 117.40 152.01 118.33 157.86 119.13 167.31 C 120.45 183.02 119.72 190.73 116.28 197.46 C 114.29 201.34 113.06 202.15 110.16 201.47 C 107.23 200.78 103.98 201.76 104.07 203.32 C 104.10 203.97 106.88 206.64 110.25 209.26 C 116.66 214.25 116.80 214.27 123.81 211.41 Z  M 93.09 196.16 C 92.54 195.15 90.73 192.86 89.07 191.07 C 86.28 188.09 86.10 187.49 86.92 183.84 C 88.67 176.06 95.23 172.06 106.30 172.02 C 113.10 172.00 113.10 172.00 110.52 168.61 C 106.06 162.77 100.58 159.67 93.86 159.18 C 88.56 158.80 87.08 159.15 80.69 162.31 C 68.89 168.15 67.36 170.66 70.40 179.17 C 73.12 186.78 80.28 193.55 88.88 196.62 C 93.75 198.36 94.23 198.31 93.09 196.16 Z  M 178.96 194.55 C 180.71 192.44 179.33 189.17 174.82 184.71 C 171.84 181.75 171.06 180.33 171.54 178.67 C 172.51 175.32 175.64 173.18 180.64 172.43 C 185.19 171.75 185.19 171.75 179.38 165.88 C 172.43 158.85 168.51 157.24 162.62 158.98 C 156.61 160.75 152.38 163.64 151.20 166.76 C 146.56 179.08 151.05 187.53 165.36 193.39 C 172.35 196.25 177.20 196.66 178.96 194.55 Z  M 59.72 144.75 C 68.12 133.08 88.19 115.60 99.56 110.05 C 101.80 108.96 104.50 107.11 105.56 105.93 C 106.63 104.75 109.75 102.64 112.50 101.25 C 117.13 98.90 117.91 98.79 123.00 99.81 C 126.03 100.42 130.97 101.22 134.00 101.60 C 137.03 101.97 141.07 103.06 143.00 104.02 C 144.93 104.98 149.43 106.57 153.00 107.54 C 156.57 108.51 162.20 110.86 165.50 112.76 C 174.22 117.77 189.29 130.19 193.11 135.50 C 195.75 139.18 196.92 140.03 198.95 139.80 C 200.98 139.56 201.56 138.88 201.80 136.45 C 202.19 132.46 192.69 118.88 181.50 107.42 C 174.69 100.44 172.07 98.55 163.85 94.62 C 154.85 90.32 147.83 88.06 138.75 86.54 C 135.68 86.02 134.26 84.92 130.97 80.45 C 127.19 75.34 126.67 75.00 122.72 75.01 C 113.35 75.04 91.24 89.41 74.34 106.46 C 63.37 117.54 61.75 119.65 57.70 128.13 C 50.23 143.80 49.38 149.00 54.30 149.00 C 55.93 149.00 57.61 147.69 59.72 144.75 Z  M 94.00 83.01 C 94.00 82.47 93.46 80.00 92.79 77.52 C 91.84 73.94 91.85 72.75 92.85 71.76 C 93.79 70.81 100.91 70.50 121.80 70.50 C 137.04 70.50 150.40 70.14 151.51 69.70 C 153.25 69.00 153.94 69.75 156.75 75.45 C 159.91 81.85 160.07 82.00 163.88 82.00 C 167.78 82.00 167.78 82.00 169.09 75.42 C 170.40 68.83 170.40 68.83 174.45 69.36 C 176.68 69.66 183.00 69.46 188.50 68.92 C 194.00 68.39 203.00 67.52 208.50 66.98 C 230.72 64.83 233.18 64.08 231.05 60.09 C 229.43 57.07 231.31 56.62 240.97 57.70 C 248.22 58.52 249.05 58.43 249.55 56.84 C 249.86 55.87 249.60 54.11 248.97 52.94 C 247.83 50.81 247.69 50.80 214.04 51.15 C 180.26 51.50 180.26 51.50 177.49 47.83 C 175.97 45.81 172.82 42.27 170.48 39.98 C 165.31 34.91 164.50 35.17 157.15 44.22 C 154.34 47.67 151.18 51.04 150.11 51.71 C 148.09 52.96 98.51 53.84 97.31 52.64 C 96.98 52.32 97.79 51.12 99.11 49.99 C 101.44 47.98 101.45 47.90 99.55 46.71 C 98.48 46.05 95.46 43.54 92.83 41.14 C 88.94 37.58 87.57 36.89 85.50 37.41 C 81.80 38.34 75.06 44.80 73.37 49.04 C 71.90 52.70 71.90 52.70 48.38 53.41 C 18.95 54.30 4.00 56.72 4.00 60.59 C 4.00 62.25 8.56 65.42 13.03 66.87 C 14.97 67.50 22.17 68.19 29.03 68.42 C 35.89 68.65 44.20 69.25 47.50 69.77 C 50.89 70.30 54.51 70.34 55.82 69.85 C 57.09 69.38 61.88 69.00 66.47 69.00 C 74.81 69.00 74.81 69.00 77.85 74.38 C 81.76 81.32 85.18 84.00 90.13 84.00 C 92.26 84.00 94.00 83.56 94.00 83.01 Z "/>
</g>
</svg>