<?xml version="1.0" encoding="UTF-8" standalone="no"?>
<!DOCTYPE svg PUBLIC "-//W3C//DTD SVG 1.1//EN" "http://www.w3.org/Graphics/SVG/1.1/DTD/svg11.dtd" >
<svg xmlns="http://www.w3.org/2000/svg" xmlns:xlink="http://www.w3.org/1999/xlink" version="1.1" viewBox="0 0 256 256">
 <g >
 <path fill="currentColor"
d=" M 121.25 191.25 C 121.64 176.88 122.29 171.52 125.81 153.50 C 128.07 141.95 130.39 130.93 130.96 129.01 C 131.53 127.09 132.00 123.39 132.00 120.80 C 132.00 114.21 133.62 111.14 137.40 110.55 C 139.11 110.29 152.29 109.92 166.71 109.73 C 189.62 109.43 193.15 109.17 194.79 107.69 C 195.82 106.76 197.22 106.00 197.90 106.00 C 200.38 106.00 198.47 102.50 195.83 102.19 C 192.56 101.81 191.49 99.42 193.34 96.61 C 194.11 95.45 199.18 89.93 204.62 84.34 C 213.87 74.83 215.23 73.83 226.00 68.66 C 232.32 65.62 238.74 62.83 240.25 62.46 C 245.92 61.06 243.31 57.52 231.23 50.19 C 224.93 46.37 224.04 46.32 216.42 49.36 C 210.85 51.59 208.40 51.80 175.00 52.98 C 155.47 53.67 136.48 54.16 132.79 54.05 C 123.86 53.81 116.42 56.81 117.42 60.25 C 119.04 65.81 119.07 69.02 117.55 76.50 C 115.53 86.47 113.23 126.72 112.36 167.52 C 111.63 201.46 111.94 205.63 115.31 206.99 C 120.82 209.21 120.76 209.35 121.25 191.25 Z  M 174.94 202.88 C 182.08 198.12 183.43 196.33 185.56 188.92 C 186.42 185.94 188.93 179.88 191.15 175.44 C 193.80 170.14 195.06 166.39 194.84 164.46 C 194.52 161.69 193.90 162.25 184.00 174.15 C 178.22 181.10 172.29 188.35 170.82 190.26 C 169.34 192.16 166.35 194.61 164.16 195.69 C 158.54 198.47 155.98 196.89 151.40 187.81 C 148.38 181.81 147.92 180.04 148.44 176.53 C 148.95 173.13 148.70 172.04 147.06 170.55 C 145.95 169.55 145.29 168.34 145.58 167.86 C 145.88 167.39 146.43 164.20 146.81 160.79 C 147.49 154.66 147.54 154.58 151.08 153.84 C 153.05 153.44 162.56 152.69 172.21 152.18 C 187.75 151.37 190.24 150.99 193.91 148.93 C 200.82 145.04 200.71 139.77 193.58 132.96 C 183.49 123.36 171.22 115.44 169.33 117.33 C 167.86 118.80 170.37 122.97 174.23 125.48 C 180.61 129.63 183.00 132.10 183.00 134.57 C 183.00 135.79 182.29 137.06 181.42 137.39 C 180.55 137.73 172.53 138.00 163.60 138.00 C 147.37 138.00 147.37 138.00 145.69 134.47 C 144.76 132.52 144.00 129.65 144.00 128.09 C 144.00 126.52 143.38 124.73 142.61 124.09 C 140.54 122.37 136.09 124.73 135.39 127.92 C 135.08 129.34 134.62 131.17 134.36 131.99 C 133.24 135.48 134.06 149.75 135.90 158.76 C 137.00 164.12 138.18 171.10 138.52 174.29 C 139.74 185.44 150.28 202.04 158.39 205.57 C 164.06 208.04 168.23 207.36 174.94 202.88 Z  M 101.57 198.36 C 103.96 196.79 103.99 196.65 102.31 194.79 C 99.35 191.52 98.01 184.20 97.24 167.00 C 95.40 125.86 96.95 105.73 103.88 80.68 C 105.53 74.73 107.28 69.33 107.78 68.68 C 110.36 65.33 109.79 64.15 102.30 57.42 C 94.74 50.63 94.74 50.63 90.83 54.81 C 86.20 59.78 84.12 60.02 72.98 56.91 C 66.43 55.09 63.51 54.88 49.50 55.26 C 35.62 55.64 32.57 56.03 26.49 58.21 C 19.57 60.68 16.13 60.64 14.54 58.07 C 14.18 57.48 13.13 57.00 12.21 57.00 C 11.20 57.00 14.25 60.73 20.00 66.50 C 25.20 71.72 30.03 76.00 30.73 76.00 C 31.43 76.00 32.00 76.47 32.00 77.04 C 32.00 77.62 34.05 80.28 36.57 82.97 C 40.06 86.70 42.06 90.28 45.09 98.17 C 50.63 112.63 54.64 127.02 55.93 137.08 C 56.53 141.80 58.39 151.93 60.05 159.58 C 61.71 167.24 63.46 176.60 63.95 180.39 C 64.78 186.77 65.20 187.63 69.59 192.10 C 76.37 198.97 78.88 199.95 89.79 199.98 C 96.73 199.99 99.70 199.59 101.57 198.36 Z  M 136.37 90.09 C 137.31 84.24 140.37 77.78 143.89 74.27 C 148.58 69.58 154.59 68.60 173.30 69.47 C 188.88 70.21 188.88 70.21 186.25 75.85 C 184.57 79.44 183.47 83.78 183.22 87.75 C 182.83 94.00 182.83 94.00 159.29 94.00 C 135.74 94.00 135.74 94.00 136.37 90.09 Z  M 74.43 184.10 C 72.67 183.33 72.34 182.22 72.18 176.61 C 72.08 172.95 71.14 167.76 70.06 164.92 C 68.27 160.21 68.24 159.56 69.67 156.57 C 71.07 153.62 71.07 153.03 69.61 150.21 C 67.78 146.68 67.49 139.82 69.04 136.92 C 69.83 135.44 69.59 133.86 68.04 130.36 C 66.71 127.36 66.00 123.61 66.00 119.62 C 65.99 115.67 65.11 111.02 63.52 106.50 C 62.16 102.65 61.03 98.57 61.02 97.42 C 61.00 95.12 53.53 80.76 50.07 76.36 C 47.86 73.55 47.86 73.55 50.68 72.78 C 52.23 72.35 59.70 71.24 67.27 70.31 C 79.26 68.83 81.22 68.80 82.41 70.06 C 83.42 71.13 84.07 78.49 84.96 99.00 C 85.61 114.12 87.38 139.10 88.88 154.50 C 91.07 176.96 91.36 182.66 90.33 183.29 C 88.34 184.51 76.74 185.10 74.43 184.10 Z "/>
</g>
</svg>