<?xml version="1.0" encoding="UTF-8" standalone="no"?>
<!DOCTYPE svg PUBLIC "-//W3C//DTD SVG 1.1//EN" "http://www.w3.org/Graphics/SVG/1.1/DTD/svg11.dtd" >
<svg xmlns="http://www.w3.org/2000/svg" xmlns:xlink="http://www.w3.org/1999/xlink" version="1.1" viewBox="0 0 256 256">
 <g >
 <path fill="currentColor"
d=" M 173.16 240.39 C 178.65 237.61 180.00 234.56 180.00 224.90 C 180.00 219.11 179.41 214.42 178.29 211.28 C 176.63 206.63 175.93 188.74 177.35 187.31 C 178.02 186.65 183.32 187.79 196.50 191.42 C 214.22 196.30 231.38 194.04 238.34 185.92 C 244.05 179.24 245.17 170.77 242.82 151.83 C 241.78 143.38 241.84 141.40 243.31 136.10 C 245.41 128.57 245.41 126.57 243.39 120.63 C 241.55 115.23 239.28 113.42 231.90 111.47 C 227.49 110.31 225.68 110.31 220.19 111.46 C 214.05 112.74 211.00 112.63 211.00 111.11 C 211.00 110.06 214.90 104.92 222.59 95.86 C 231.50 85.35 232.00 84.36 232.00 77.50 C 232.00 66.21 228.86 64.45 210.56 65.48 C 194.50 66.39 188.56 66.40 174.50 65.54 C 164.75 64.94 163.10 65.08 160.00 66.78 C 152.53 70.88 150.47 77.63 153.42 88.35 C 154.48 92.19 155.03 104.55 155.61 137.00 C 156.83 205.31 156.83 205.24 153.83 214.00 C 150.16 224.72 149.87 226.45 150.91 231.08 C 153.13 240.97 163.46 245.29 173.16 240.39 Z  M 133.89 223.58 C 135.69 222.25 138.28 219.67 139.64 217.83 C 142.38 214.15 142.42 212.34 140.12 194.50 C 139.33 188.38 139.06 169.96 139.30 137.00 C 139.65 88.14 140.16 80.46 143.53 73.94 C 146.60 68.01 144.63 57.95 139.78 54.78 C 133.79 50.85 125.88 51.32 118.80 56.01 C 114.08 59.14 98.76 62.89 95.62 61.68 C 93.21 60.76 93.45 47.25 96.00 40.00 C 98.65 32.47 98.48 29.97 95.02 25.19 C 90.79 19.35 87.09 17.70 79.35 18.19 C 72.02 18.66 68.66 20.66 65.27 26.59 C 62.30 31.79 62.38 37.09 65.52 42.45 C 67.40 45.65 68.20 48.78 68.66 54.74 C 69.58 66.69 68.79 69.45 63.56 72.52 C 59.14 75.11 48.85 77.40 45.88 76.46 C 44.80 76.12 44.03 74.29 43.61 71.08 C 42.46 62.46 36.62 58.22 27.32 59.27 C 21.54 59.92 18.35 62.98 16.38 69.77 C 15.02 74.46 14.99 76.21 16.17 83.81 C 17.22 90.63 17.40 103.67 16.96 144.50 C 16.43 194.98 16.35 196.67 14.21 202.41 C 10.38 212.64 11.64 218.75 18.24 222.12 C 22.96 224.53 25.08 224.66 36.50 223.25 C 47.76 221.85 115.20 223.10 119.00 224.77 C 123.55 226.78 130.29 226.24 133.89 223.58 Z  M 201.00 169.88 C 199.62 169.34 195.65 167.04 192.17 164.78 C 188.69 162.51 184.19 160.39 182.17 160.06 C 176.38 159.13 175.73 155.04 176.47 124.50 C 177.12 97.68 177.79 92.40 180.88 89.90 C 182.79 88.35 197.42 86.52 199.18 87.61 C 200.31 88.31 194.59 98.30 188.22 106.78 C 180.36 117.22 178.52 123.24 181.45 128.90 C 184.44 134.68 187.05 135.49 202.98 135.60 C 219.45 135.70 217.73 134.25 219.96 149.87 C 221.24 158.81 220.10 164.05 216.00 168.16 C 213.63 170.52 212.34 170.99 208.33 170.94 C 205.67 170.90 202.38 170.43 201.00 169.88 Z  M 101.60 203.00 C 92.03 202.05 91.64 201.40 92.39 187.50 C 92.72 181.45 92.99 170.10 93.00 162.29 C 93.00 148.07 93.00 148.07 102.52 138.82 C 113.38 128.28 117.76 125.07 118.41 127.16 C 119.28 129.90 119.89 187.68 119.11 192.34 C 118.25 197.44 114.35 202.38 110.50 203.24 C 109.40 203.49 105.40 203.38 101.60 203.00 Z  M 45.01 200.11 C 39.19 198.49 41.25 195.19 57.89 179.50 C 68.50 169.50 68.50 169.50 69.69 180.50 C 71.74 199.42 70.69 201.06 56.53 200.90 C 51.56 200.85 46.38 200.49 45.01 200.11 Z  M 40.64 158.85 C 39.81 150.92 39.83 118.10 40.66 111.14 C 41.21 106.56 41.75 105.51 44.40 103.88 C 46.11 102.83 49.30 101.49 51.50 100.89 C 53.70 100.29 55.95 99.52 56.50 99.17 C 58.60 97.86 67.48 95.18 68.22 95.64 C 68.65 95.90 68.98 104.75 68.96 115.31 C 68.92 131.44 68.64 135.01 67.21 137.70 C 65.91 140.14 42.48 165.00 41.48 165.00 C 41.37 165.00 41.00 162.23 40.64 158.85 Z  M 93.00 102.02 C 93.00 89.43 93.10 88.81 95.45 86.45 C 96.80 85.10 98.62 84.00 99.48 84.00 C 100.34 84.00 103.61 83.10 106.74 82.00 C 113.60 79.59 114.41 79.55 116.43 81.57 C 118.56 83.71 118.40 87.83 116.02 91.74 C 113.66 95.60 99.74 110.34 95.79 113.15 C 93.00 115.14 93.00 115.14 93.00 102.02 Z "/>
</g>
</svg>