<?xml version="1.0" encoding="UTF-8" standalone="no"?>
<!DOCTYPE svg PUBLIC "-//W3C//DTD SVG 1.1//EN" "http://www.w3.org/Graphics/SVG/1.1/DTD/svg11.dtd" >
<svg xmlns="http://www.w3.org/2000/svg" xmlns:xlink="http://www.w3.org/1999/xlink" version="1.1" viewBox="0 0 256 256">
 <g >
 <path fill="currentColor"
d=" M 211.81 233.85 C 215.28 232.17 216.68 230.71 218.28 227.10 C 220.10 223.00 220.20 221.81 219.23 216.14 C 218.08 209.45 215.81 206.01 210.80 203.40 C 207.13 201.50 203.77 201.63 194.44 204.08 C 187.76 205.84 184.28 206.11 172.50 205.80 C 160.23 205.48 157.82 205.13 153.00 202.97 C 145.72 199.70 136.44 199.54 132.32 202.60 C 125.74 207.51 123.41 218.37 127.35 225.79 C 131.08 232.82 138.62 235.08 150.49 232.71 C 162.29 230.36 187.73 231.06 194.00 233.91 C 199.86 236.57 206.23 236.55 211.81 233.85 Z  M 51.27 227.94 C 53.44 227.34 57.11 224.90 59.90 222.20 C 67.87 214.49 80.01 208.03 89.43 206.49 C 97.40 205.18 103.27 195.43 101.05 187.18 C 99.35 180.86 92.36 176.00 84.98 176.00 C 79.74 176.00 77.79 177.05 70.82 183.64 C 62.43 191.57 62.00 191.27 62.00 177.58 C 62.00 171.30 62.27 165.45 62.61 164.58 C 63.50 162.26 72.66 162.49 78.14 164.98 C 85.66 168.39 91.59 167.31 96.98 161.53 C 99.07 159.30 99.53 157.68 99.84 151.45 C 100.21 144.09 100.19 143.99 96.71 140.51 C 93.37 137.17 92.87 137.00 86.35 137.04 C 82.31 137.06 78.48 137.66 77.00 138.50 C 75.62 139.29 71.85 139.95 68.62 139.96 C 62.74 140.00 62.74 140.00 63.26 135.41 C 63.99 128.89 64.88 128.32 71.76 129.94 C 84.93 133.02 90.82 131.96 95.43 125.67 C 99.25 120.45 97.48 109.46 92.01 104.51 C 89.18 101.95 79.74 101.91 74.14 104.44 C 70.56 106.05 68.67 106.10 50.87 105.06 C 40.22 104.44 28.99 103.69 25.92 103.38 C 15.94 102.40 10.26 106.49 9.26 115.37 C 8.62 121.11 11.17 126.42 16.16 129.73 C 20.18 132.38 21.89 132.44 35.25 130.36 C 39.00 129.78 39.00 129.78 39.00 134.78 C 39.00 141.01 37.41 141.86 31.31 138.91 C 27.84 137.23 25.60 136.86 20.89 137.20 C 15.62 137.58 14.47 138.07 11.29 141.25 C 8.24 144.29 7.61 145.69 7.23 150.21 C 6.37 160.63 11.70 166.99 21.30 167.00 C 23.94 167.00 27.46 166.30 29.12 165.44 C 30.78 164.58 33.34 164.02 34.82 164.19 C 37.50 164.50 37.50 164.50 37.16 182.00 C 36.83 199.50 36.83 199.50 33.70 203.96 C 31.22 207.49 30.49 209.70 30.18 214.48 C 29.83 220.04 30.03 220.76 32.65 223.40 C 37.86 228.66 43.63 230.06 51.27 227.94 Z  M 226.95 184.03 C 234.98 179.93 237.67 173.57 236.43 161.59 C 235.43 151.91 235.07 134.63 234.96 90.66 C 234.89 63.68 235.18 56.30 236.56 49.34 C 238.57 39.21 238.02 34.69 234.29 30.72 C 228.42 24.48 219.42 23.23 210.99 27.51 C 208.27 28.88 203.90 30.43 201.27 30.95 C 173.19 36.44 149.16 40.30 145.90 39.84 C 143.78 39.54 143.50 38.98 143.46 35.00 C 143.41 29.29 141.03 25.67 135.60 23.05 C 128.47 19.60 120.54 20.96 116.29 26.36 C 114.29 28.90 114.24 30.15 114.11 86.73 C 113.96 147.08 113.80 151.43 111.30 159.35 C 109.35 165.53 109.98 174.13 112.64 177.79 C 113.72 179.28 116.70 181.55 119.26 182.83 C 123.62 185.02 124.36 185.10 131.12 184.05 C 140.90 182.53 200.52 182.94 207.97 184.58 C 216.45 186.44 222.56 186.26 226.95 184.03 Z  M 93.84 96.35 C 98.87 93.09 101.94 80.50 99.03 75.05 C 95.86 69.14 85.22 67.18 76.86 70.98 C 73.44 72.53 70.29 72.96 62.31 72.98 C 56.70 72.99 51.87 72.59 51.56 72.10 C 51.25 71.60 52.12 69.24 53.49 66.85 C 56.51 61.56 56.62 58.75 53.98 54.47 C 50.26 48.45 41.52 44.46 35.62 46.09 C 31.95 47.11 27.00 52.06 27.00 54.72 C 27.00 55.59 26.04 58.93 24.87 62.14 C 23.06 67.09 22.01 68.44 18.03 70.88 C 8.61 76.68 7.41 87.58 15.39 94.94 C 17.61 96.99 18.93 97.35 23.76 97.19 C 63.56 95.93 76.00 95.97 81.12 97.38 C 86.94 98.98 90.18 98.72 93.84 96.35 Z  M 147.14 158.01 C 142.64 156.94 140.95 155.04 140.34 150.39 C 139.49 143.91 141.05 141.60 148.17 138.72 C 151.65 137.31 162.95 132.05 173.28 127.03 C 183.61 122.00 193.87 117.25 196.09 116.47 C 198.32 115.68 201.41 114.13 202.97 113.02 C 207.96 109.47 208.72 110.16 209.41 118.75 C 209.75 123.01 210.13 132.43 210.26 139.67 C 210.62 159.76 212.81 158.46 178.39 158.66 C 163.05 158.74 148.99 158.45 147.14 158.01 Z  M 139.55 91.25 C 140.12 73.02 140.49 69.24 141.86 67.92 C 142.86 66.96 149.40 65.25 158.50 63.58 C 166.75 62.07 177.32 59.99 182.00 58.98 C 186.68 57.96 194.08 56.60 198.46 55.96 C 206.16 54.83 206.47 54.86 208.21 57.01 C 209.58 58.71 210.00 61.00 210.00 66.86 C 210.00 77.38 208.36 80.26 199.50 85.30 C 187.18 92.31 174.62 98.67 170.50 99.98 C 168.30 100.68 165.82 101.80 165.00 102.47 C 161.83 105.05 144.13 113.00 141.56 113.00 C 138.87 113.00 138.87 113.00 139.55 91.25 Z "/>
</g>
</svg>