<?xml version="1.0" encoding="UTF-8" standalone="no"?>
<!DOCTYPE svg PUBLIC "-//W3C//DTD SVG 1.1//EN" "http://www.w3.org/Graphics/SVG/1.1/DTD/svg11.dtd" >
<svg xmlns="http://www.w3.org/2000/svg" xmlns:xlink="http://www.w3.org/1999/xlink" version="1.1" viewBox="0 0 256 256">
 <g >
 <path fill="currentColor"
d=" M 155.66 242.50 C 163.14 240.55 184.03 240.53 194.11 242.46 C 202.57 244.08 207.68 243.32 211.04 239.96 C 213.89 237.11 214.46 233.31 213.16 225.76 C 211.73 217.38 211.68 211.47 213.02 208.96 C 213.63 207.82 216.38 206.38 219.77 205.40 C 226.71 203.42 228.68 201.82 230.14 196.93 C 231.08 193.78 230.96 192.59 229.38 189.35 C 226.90 184.27 220.23 180.69 214.38 181.30 C 210.26 181.72 210.26 181.72 211.63 179.11 C 212.63 177.18 212.83 174.14 212.39 167.50 C 211.87 159.74 212.08 157.76 213.93 153.12 C 216.41 146.89 215.71 142.96 211.39 138.90 C 208.54 136.21 206.82 136.14 179.50 137.51 C 166.24 138.18 165.40 138.11 163.67 136.19 C 160.72 132.93 161.85 129.72 166.50 128.16 C 172.59 126.12 188.91 127.08 197.01 129.95 C 202.72 131.98 204.01 132.12 207.79 131.08 C 210.15 130.43 213.48 128.65 215.19 127.12 C 217.79 124.80 218.38 123.43 218.74 118.92 C 219.10 114.42 218.78 112.91 216.80 110.00 C 212.34 103.43 204.07 101.97 195.23 106.18 C 190.90 108.24 188.77 108.45 169.84 108.78 C 143.27 109.25 142.30 108.85 140.48 96.72 C 139.82 92.33 139.96 91.98 143.40 88.95 C 145.39 87.20 147.29 84.59 147.63 83.14 C 148.53 79.28 158.86 69.00 161.85 69.00 C 164.14 69.00 164.23 69.25 163.77 74.06 C 163.47 77.15 162.39 80.33 161.00 82.21 C 159.57 84.15 158.73 86.70 158.73 89.11 C 158.73 101.23 174.52 106.16 185.03 97.33 C 187.69 95.08 188.00 94.23 187.96 89.16 C 187.95 86.05 187.29 82.38 186.50 81.00 C 185.44 79.14 185.06 74.59 185.04 63.29 C 185.00 48.96 185.12 48.01 187.05 46.97 C 188.64 46.12 190.43 46.34 195.11 47.96 C 202.55 50.53 207.67 49.53 212.69 44.51 C 216.33 40.87 216.88 37.60 214.59 33.16 C 211.95 28.06 207.35 27.00 192.71 28.13 C 187.22 28.55 185.64 27.18 186.46 22.69 C 187.07 19.38 185.10 14.23 182.26 11.71 C 177.47 7.44 167.71 8.36 162.50 13.56 C 159.12 16.95 159.05 17.18 159.66 22.99 C 160.68 32.75 159.07 33.49 144.78 29.81 C 136.07 27.56 136.07 27.56 133.28 29.62 C 129.39 32.50 127.77 36.25 128.57 40.52 C 129.71 46.60 131.86 48.29 139.10 48.79 C 145.78 49.26 148.00 50.24 148.00 52.72 C 148.00 54.95 134.98 67.97 132.06 68.67 C 123.13 70.81 118.36 76.24 119.49 82.95 C 120.10 86.55 119.99 86.75 117.07 87.34 C 110.18 88.71 107.80 99.00 112.96 105.04 C 114.59 106.94 115.94 108.78 115.96 109.12 C 115.98 109.46 102.61 109.94 86.25 110.20 C 56.75 110.66 56.46 110.65 51.50 108.34 C 48.75 107.06 45.13 106.02 43.46 106.01 C 38.47 105.99 31.87 109.99 29.63 114.40 C 27.65 118.30 27.65 118.30 29.77 124.90 C 32.92 134.70 32.91 134.49 33.01 162.00 C 33.13 194.54 32.50 202.40 29.44 207.00 C 23.15 216.45 23.50 224.47 30.47 230.98 C 32.70 233.06 34.12 233.47 39.31 233.48 C 46.66 233.50 50.57 231.77 53.71 227.10 C 56.67 222.71 56.73 215.91 53.87 209.44 C 52.06 205.35 51.82 203.36 52.27 196.22 C 52.55 191.59 53.22 187.38 53.74 186.86 C 54.27 186.33 56.61 185.83 58.96 185.74 C 62.40 185.60 63.61 186.04 65.21 188.01 C 67.05 190.28 67.16 191.63 66.76 206.48 C 66.45 218.04 65.87 223.70 64.68 226.82 C 63.24 230.62 63.21 231.56 64.43 234.50 C 67.22 241.16 75.97 243.78 83.07 240.08 C 90.12 236.41 98.76 234.97 112.68 235.16 C 126.76 235.36 129.05 234.73 131.49 230.02 C 134.88 223.46 132.06 214.33 126.04 212.38 C 122.59 211.27 122.59 211.27 125.70 209.65 C 132.62 206.08 134.66 200.23 131.05 194.31 C 127.42 188.37 123.51 187.88 108.00 191.44 C 99.18 193.47 92.61 192.92 89.38 189.89 C 86.72 187.38 87.18 185.55 90.82 184.16 C 94.83 182.62 128.88 181.60 132.30 182.91 C 137.14 184.77 138.32 189.48 137.57 203.97 C 137.22 210.86 136.41 220.46 135.77 225.30 C 134.73 233.17 134.79 234.45 136.35 237.35 C 139.84 243.83 145.14 245.24 155.66 242.50 Z  M 92.47 97.90 C 95.56 95.18 96.00 94.22 95.99 90.15 C 95.99 87.59 95.50 83.75 94.91 81.62 C 93.35 76.01 95.12 74.42 101.11 76.03 C 108.78 78.11 113.13 77.54 116.25 74.04 C 119.33 70.60 119.71 67.28 117.53 63.06 C 115.74 59.61 111.53 58.00 104.26 58.00 C 97.89 58.00 93.00 55.23 93.00 51.63 C 93.00 46.86 97.93 45.66 105.57 48.58 C 113.93 51.77 123.00 46.61 123.00 38.67 C 123.00 32.18 120.21 30.00 111.89 30.00 C 108.17 30.00 103.98 30.44 102.57 30.97 C 98.44 32.54 97.32 31.41 96.74 25.11 C 96.06 17.59 93.90 13.51 89.85 12.10 C 84.56 10.25 76.61 12.46 72.61 16.88 C 71.06 18.59 70.82 19.96 71.28 24.40 C 71.74 28.90 71.52 30.13 69.97 31.53 C 68.21 33.12 67.70 33.10 61.30 31.18 C 47.82 27.14 44.95 27.31 39.75 32.52 C 36.59 35.68 36.20 39.54 38.56 44.13 C 40.70 48.25 45.04 49.90 52.12 49.26 C 55.28 48.97 58.60 49.02 59.49 49.36 C 60.98 49.93 60.96 50.26 59.31 53.06 C 56.99 57.00 48.15 63.68 42.75 65.59 C 34.95 68.34 31.92 73.19 34.02 79.57 C 34.63 81.42 36.49 84.07 38.14 85.47 C 40.63 87.56 42.19 88.00 47.14 88.00 C 50.44 88.00 53.92 87.58 54.88 87.07 C 55.84 86.55 59.44 82.73 62.88 78.57 C 66.69 73.97 69.89 71.00 71.05 71.00 C 74.13 71.00 74.59 75.45 72.14 81.38 C 66.94 93.92 70.87 100.87 83.22 100.96 C 88.21 100.99 89.38 100.61 92.47 97.90 Z  M 213.78 83.44 C 218.72 79.98 220.31 73.03 217.33 67.99 C 215.19 64.36 212.10 63.00 206.03 63.00 C 194.47 63.00 189.04 76.17 197.77 83.03 C 200.94 85.52 210.46 85.77 213.78 83.44 Z  M 163.50 222.35 C 160.86 221.62 158.00 219.02 158.00 217.37 C 158.00 213.83 171.83 209.99 186.00 209.60 C 189.50 209.50 189.50 209.50 189.80 214.69 C 190.06 219.18 189.80 220.03 187.90 221.05 C 185.57 222.30 166.90 223.29 163.50 222.35 Z  M 88.75 217.92 C 86.25 216.46 86.59 213.32 89.57 210.34 C 92.05 207.86 92.47 207.79 101.32 208.28 C 106.37 208.56 112.28 209.33 114.46 210.00 C 118.43 211.21 118.43 211.21 114.46 212.66 C 96.27 219.32 92.49 220.10 88.75 217.92 Z  M 157.96 193.45 C 156.07 191.17 156.38 186.34 158.58 183.88 C 160.42 181.83 161.07 181.76 173.64 182.36 C 180.87 182.70 189.11 183.47 191.95 184.08 C 194.79 184.69 199.12 185.03 201.56 184.84 C 205.95 184.49 205.98 184.51 203.75 186.21 C 201.37 188.04 199.24 188.56 178.24 192.51 C 162.78 195.41 159.71 195.56 157.96 193.45 Z  M 53.46 162.95 C 51.44 160.72 51.63 159.37 54.22 157.56 C 55.91 156.37 59.13 156.00 67.66 156.00 C 79.62 156.00 83.32 156.80 84.40 159.60 C 85.71 163.01 83.01 163.80 68.71 164.19 C 56.98 164.50 54.69 164.32 53.46 162.95 Z  M 116.50 164.08 C 110.91 163.54 110.48 163.32 110.19 160.82 C 109.96 158.87 110.49 157.81 112.13 156.93 C 115.07 155.36 130.52 154.52 135.00 155.70 C 137.91 156.46 138.55 157.12 138.80 159.62 C 139.09 162.49 138.85 162.69 133.97 163.82 C 128.68 165.04 126.68 165.07 116.50 164.08 Z  M 163.61 163.46 C 161.51 161.37 161.58 160.42 164.00 158.00 C 165.64 156.36 167.33 156.00 173.43 156.00 C 183.69 156.00 186.22 157.07 185.81 161.25 C 185.50 164.50 185.50 164.50 175.36 164.78 C 167.11 165.01 164.91 164.77 163.61 163.46 Z  M 64.28 138.07 C 53.87 137.43 51.28 136.02 52.38 131.61 C 53.31 127.90 55.69 127.06 67.28 126.35 C 79.91 125.58 84.50 126.31 86.53 129.41 C 89.16 133.42 87.10 136.60 81.01 137.90 C 78.20 138.51 75.36 138.92 74.70 138.82 C 74.04 138.73 69.35 138.39 64.28 138.07 Z  M 108.57 136.08 C 106.25 133.52 106.92 129.84 110.00 128.29 C 112.56 127.00 132.48 126.49 136.65 127.60 C 139.08 128.26 140.37 133.33 138.85 136.25 C 138.04 137.79 136.26 138.00 124.12 138.00 C 111.78 138.00 110.13 137.80 108.57 136.08 Z "/>
</g>
</svg>