<?xml version="1.0" encoding="UTF-8" standalone="no"?>
<!DOCTYPE svg PUBLIC "-//W3C//DTD SVG 1.1//EN" "http://www.w3.org/Graphics/SVG/1.1/DTD/svg11.dtd" >
<svg xmlns="http://www.w3.org/2000/svg" xmlns:xlink="http://www.w3.org/1999/xlink" version="1.1" viewBox="0 0 256 256">
 <g >
 <path fill="currentColor"
d=" M 58.53 227.50 C 73.11 223.64 82.54 222.72 124.86 221.02 C 162.13 219.52 195.78 219.75 205.50 221.56 C 222.97 224.83 229.10 224.42 230.54 219.88 C 232.03 215.17 221.88 204.89 213.82 202.96 C 209.02 201.81 197.02 202.05 180.25 203.64 C 175.87 204.06 174.00 203.89 174.00 203.08 C 174.00 202.45 175.42 198.26 177.15 193.76 C 179.31 188.17 181.67 184.12 184.65 180.94 C 187.04 178.38 189.00 175.98 189.00 175.59 C 189.00 173.93 178.14 164.60 174.25 162.91 C 171.91 161.90 170.00 160.79 170.00 160.44 C 170.00 160.10 170.90 158.67 172.00 157.27 C 174.75 153.77 174.51 151.46 170.65 144.50 C 166.40 136.85 160.95 133.27 151.28 131.77 C 143.22 130.52 139.39 131.19 138.50 134.01 C 137.42 137.40 142.40 146.56 148.45 152.33 C 151.50 155.24 154.00 157.89 154.00 158.22 C 154.00 159.34 127.69 165.12 116.04 166.57 C 102.06 168.31 87.11 168.41 76.73 166.83 C 69.46 165.72 68.77 165.78 66.23 167.67 C 64.73 168.79 63.36 170.82 63.20 172.20 C 63.03 173.58 64.66 179.38 66.83 185.10 C 70.71 195.39 74.79 210.55 73.90 211.43 C 73.65 211.68 62.66 212.41 49.47 213.05 C 36.29 213.70 24.71 214.64 23.75 215.15 C 22.79 215.65 22.00 216.89 22.00 217.89 C 22.00 220.48 27.50 227.71 31.28 230.09 C 35.42 232.70 40.82 232.18 58.53 227.50 Z  M 112.85 163.48 C 116.27 160.59 118.00 154.44 118.00 145.12 C 118.00 139.39 118.02 139.35 120.75 139.74 C 123.99 140.21 133.06 134.64 139.80 128.04 C 142.94 124.97 144.56 124.03 145.80 124.59 C 146.74 125.01 153.13 125.54 160.01 125.77 C 176.66 126.33 188.08 124.42 194.49 120.00 C 201.73 115.03 201.71 112.45 194.40 108.27 C 189.08 105.22 183.52 105.38 167.76 109.02 C 160.58 110.68 154.59 111.92 154.45 111.77 C 154.32 111.62 156.86 107.03 160.10 101.56 C 163.35 96.09 166.00 90.81 166.00 89.83 C 166.00 87.44 162.82 85.50 154.00 82.50 C 145.67 79.67 141.26 79.36 138.44 81.42 C 136.79 82.62 136.50 84.10 136.47 91.17 C 136.44 98.52 135.99 100.56 132.65 108.50 C 130.56 113.45 126.55 121.03 123.74 125.35 C 119.20 132.30 118.53 132.95 117.82 131.04 C 117.16 129.25 116.55 105.37 116.99 98.50 C 117.16 95.76 110.70 90.33 104.75 88.22 C 99.99 86.53 99.92 86.44 100.50 82.99 C 101.01 79.97 100.60 78.89 97.55 75.33 C 94.15 71.36 87.41 68.00 82.82 68.00 C 80.47 68.00 80.51 67.73 83.53 62.95 C 86.06 58.94 86.06 58.94 91.28 59.72 C 94.15 60.15 101.22 60.50 107.00 60.49 C 115.75 60.49 118.08 60.15 121.00 58.44 C 126.02 55.51 126.26 51.48 121.69 46.63 C 117.84 42.55 114.21 41.97 107.38 44.35 C 105.24 45.09 101.82 45.96 99.76 46.28 C 96.01 46.87 96.01 46.87 97.51 43.99 C 98.33 42.40 99.00 40.26 99.00 39.22 C 99.00 35.15 90.65 30.13 82.49 29.29 C 71.79 28.18 66.65 30.94 69.16 36.45 C 70.09 38.49 69.98 40.24 68.62 45.13 C 66.27 53.60 58.75 68.72 52.89 76.75 C 47.76 83.79 46.95 86.38 49.58 87.39 C 53.47 88.89 56.75 87.78 63.40 82.73 C 67.20 79.86 71.05 76.94 71.96 76.26 C 73.38 75.19 74.07 75.73 77.05 80.26 C 79.49 83.96 81.90 86.19 85.25 87.86 C 88.20 89.32 90.00 90.87 90.00 91.96 C 90.00 92.92 91.21 95.91 92.68 98.60 C 95.13 103.09 95.39 104.64 95.74 117.00 C 95.95 124.42 95.70 135.45 95.18 141.50 C 94.27 151.98 94.34 152.73 96.57 157.50 C 100.45 165.79 107.16 168.26 112.85 163.48 Z  M 79.99 153.01 C 81.01 152.46 82.30 150.55 82.87 148.76 C 83.82 145.73 85.74 116.31 85.31 111.24 C 85.04 108.08 81.39 103.26 77.89 101.44 C 73.54 99.19 65.49 99.08 63.32 101.25 C 61.65 102.92 61.66 103.43 63.39 111.98 C 64.85 119.21 65.06 123.18 64.48 132.42 C 63.81 143.16 63.91 144.11 65.97 147.44 C 69.72 153.52 75.06 155.64 79.99 153.01 Z  M 171.76 75.57 C 175.50 72.13 175.50 72.13 173.62 68.62 C 172.59 66.69 170.79 64.22 169.62 63.13 C 166.59 60.30 157.61 57.00 152.96 57.00 C 148.40 57.00 148.10 56.16 151.31 52.42 C 153.39 50.00 153.87 49.86 156.01 51.01 C 159.11 52.66 180.53 51.63 187.79 49.47 C 195.28 47.24 198.71 42.07 196.02 37.04 C 193.03 31.45 176.82 31.76 161.33 37.70 C 160.24 38.12 160.04 37.67 160.51 35.81 C 161.60 31.47 158.51 29.21 148.50 27.01 C 136.11 24.30 133.19 24.37 132.03 27.43 C 131.45 28.93 131.46 31.13 132.05 33.18 C 132.57 35.00 133.00 37.63 133.00 39.02 C 133.00 43.03 126.61 55.32 120.03 63.96 C 116.71 68.32 114.00 72.57 114.00 73.42 C 114.00 74.26 115.15 75.70 116.55 76.62 C 120.38 79.14 125.58 77.10 135.24 69.31 C 140.44 65.11 143.56 63.18 143.83 64.00 C 144.62 66.37 151.12 72.89 155.75 75.96 C 162.18 80.22 166.83 80.11 171.76 75.57 Z  M 93.54 208.75 C 92.55 205.66 89.87 183.02 90.39 182.18 C 90.71 181.66 91.79 181.03 92.80 180.76 C 94.43 180.34 94.75 181.39 95.78 190.62 C 96.50 197.05 97.71 202.46 98.97 204.94 C 100.09 207.13 101.00 209.16 101.00 209.46 C 101.00 210.61 93.92 209.93 93.54 208.75 Z  M 119.08 207.50 C 118.00 198.25 115.74 187.47 114.07 183.61 C 112.90 180.92 112.09 178.58 112.26 178.41 C 113.06 177.61 124.59 176.26 125.25 176.89 C 126.46 178.03 124.12 193.49 121.56 201.30 C 120.26 205.26 119.14 208.05 119.08 207.50 Z  M 140.00 206.20 C 140.00 205.76 140.39 204.97 140.87 204.45 C 141.34 203.93 142.94 200.12 144.42 196.00 C 145.90 191.88 148.08 186.60 149.26 184.29 C 151.42 180.07 151.42 180.07 149.21 177.72 C 146.15 174.46 146.42 173.83 150.75 174.19 C 154.31 174.48 154.52 174.70 154.81 178.30 C 155.06 181.35 152.29 195.06 149.37 205.25 C 148.99 206.58 147.80 207.00 144.43 207.00 C 141.99 207.00 140.00 206.64 140.00 206.20 Z "/>
</g>
</svg>