<?xml version="1.0" encoding="UTF-8" standalone="no"?>
<!DOCTYPE svg PUBLIC "-//W3C//DTD SVG 1.1//EN" "http://www.w3.org/Graphics/SVG/1.1/DTD/svg11.dtd" >
<svg xmlns="http://www.w3.org/2000/svg" xmlns:xlink="http://www.w3.org/1999/xlink" version="1.1" viewBox="0 0 256 256">
 <g >
 <path fill="currentColor"
d=" M 106.64 220.54 C 107.79 219.74 109.31 217.60 110.03 215.79 C 110.76 213.98 111.41 212.39 111.49 212.26 C 111.87 211.66 147.43 209.04 163.79 208.42 C 179.71 207.81 182.41 207.47 184.54 205.79 C 187.65 203.34 187.64 201.52 184.46 196.95 C 182.14 193.59 182.00 192.82 182.81 187.64 C 183.30 184.53 184.48 181.13 185.43 180.08 C 186.38 179.02 188.50 175.31 190.14 171.83 C 191.78 168.35 194.95 163.62 197.19 161.33 C 200.56 157.87 201.14 156.71 200.59 154.52 C 199.36 149.59 191.51 143.10 180.67 138.03 C 161.11 128.89 162.77 129.10 149.25 133.87 C 136.72 138.28 126.37 140.46 112.56 141.58 C 105.59 142.15 104.00 142.02 104.01 140.89 C 104.01 140.12 111.10 126.90 119.76 111.50 C 135.50 83.50 135.50 83.50 145.50 82.81 C 151.00 82.43 171.25 81.98 190.50 81.81 C 227.10 81.48 229.65 81.18 232.31 76.90 C 234.65 73.12 229.58 64.56 223.03 61.25 C 217.18 58.29 204.00 58.22 188.00 61.05 C 176.14 63.14 152.99 65.95 147.24 65.98 C 143.98 66.00 143.98 66.00 146.99 60.67 C 151.18 53.25 150.96 50.58 145.75 45.76 C 140.25 40.67 126.56 34.00 121.61 34.00 C 113.97 34.00 113.05 35.76 115.20 46.18 C 116.14 50.76 116.12 53.60 115.11 59.74 C 114.40 64.01 113.43 67.91 112.94 68.42 C 111.99 69.41 75.25 72.40 45.00 73.95 C 34.83 74.47 26.32 74.92 26.11 74.95 C 25.90 74.98 26.00 77.34 26.34 80.20 C 27.10 86.66 29.53 89.28 37.24 91.99 C 44.69 94.61 50.76 94.52 66.53 91.58 C 79.96 89.06 103.66 86.33 104.53 87.19 C 105.08 87.74 95.79 108.49 88.50 123.00 C 81.90 136.15 63.62 162.12 50.87 176.49 C 40.79 187.85 34.06 194.04 24.19 201.04 C 20.67 203.54 19.93 204.60 20.19 206.80 C 20.66 210.89 24.98 210.81 36.14 206.51 C 53.75 199.73 62.94 192.98 76.79 176.66 C 84.49 167.58 84.49 167.58 87.67 187.54 C 92.07 215.21 92.66 217.59 95.70 219.98 C 98.72 222.35 103.69 222.60 106.64 220.54 Z  M 111.55 195.75 C 110.85 193.54 108.71 158.96 109.23 158.44 C 110.16 157.50 150.45 150.01 154.56 150.01 C 161.86 150.00 162.42 151.08 161.65 163.67 C 160.91 175.85 158.80 185.45 156.21 188.36 C 153.21 191.72 148.50 192.94 130.55 194.99 C 109.78 197.37 112.02 197.28 111.55 195.75 Z "/>
</g>
</svg>