<?xml version="1.0" encoding="UTF-8" standalone="no"?>
<!DOCTYPE svg PUBLIC "-//W3C//DTD SVG 1.1//EN" "http://www.w3.org/Graphics/SVG/1.1/DTD/svg11.dtd" >
<svg xmlns="http://www.w3.org/2000/svg" xmlns:xlink="http://www.w3.org/1999/xlink" version="1.1" viewBox="0 0 256 256">
 <g >
 <path fill="currentColor"
d=" M 210.98 230.93 C 218.28 229.75 226.14 225.69 232.09 220.03 C 236.97 215.39 237.04 213.04 232.53 205.95 C 229.39 201.03 229.04 199.77 228.97 193.00 C 228.85 183.04 227.66 176.23 225.68 174.25 C 224.38 172.96 223.32 172.82 220.34 173.57 C 216.63 174.50 216.63 174.50 212.90 188.20 C 210.85 195.73 208.36 203.28 207.36 204.97 C 205.09 208.82 201.84 209.74 187.44 210.61 C 169.22 211.71 161.94 209.90 156.83 202.99 C 154.09 199.29 152.84 189.87 153.58 178.37 C 154.22 168.24 154.22 168.24 165.03 166.08 C 183.30 162.44 192.86 161.04 209.85 159.50 C 232.13 157.48 234.68 156.01 229.48 148.14 C 226.37 143.45 222.84 141.58 214.12 140.01 C 206.25 138.60 205.09 138.79 178.32 146.07 C 166.39 149.31 156.52 151.86 156.39 151.72 C 156.25 151.59 156.60 149.34 157.15 146.74 C 158.03 142.60 157.90 141.57 156.07 138.62 C 153.98 135.23 153.98 135.23 160.48 134.54 C 164.05 134.16 167.23 133.44 167.53 132.96 C 167.83 132.47 169.52 132.96 171.29 134.03 C 174.45 135.96 180.27 136.60 183.47 135.37 C 185.45 134.62 189.54 126.66 195.66 111.70 C 201.71 96.90 206.35 87.79 211.14 81.31 C 214.28 77.07 214.87 75.62 214.07 74.13 C 211.15 68.67 194.42 58.03 187.55 57.25 C 183.80 56.83 182.14 57.31 176.63 60.39 C 170.43 63.86 152.31 69.40 149.17 68.79 C 146.27 68.23 166.19 46.04 174.25 40.85 C 176.86 39.17 179.00 37.19 179.00 36.44 C 179.00 34.73 171.61 29.63 164.24 26.25 C 160.21 24.41 156.29 23.51 150.89 23.20 C 144.02 22.80 143.02 22.98 141.04 24.96 C 139.66 26.34 139.09 27.77 139.51 28.83 C 139.87 29.75 140.37 32.75 140.62 35.50 C 141.03 39.99 140.38 42.08 134.29 55.93 C 126.26 74.18 125.96 74.41 114.75 71.51 C 109.04 70.02 107.21 69.92 103.94 70.90 C 100.66 71.88 100.00 72.52 100.00 74.70 C 100.00 76.14 101.31 79.39 102.91 81.91 C 105.73 86.35 116.19 119.26 118.97 132.44 C 120.70 140.60 124.33 144.27 130.25 143.85 C 134.50 143.54 134.50 143.54 134.50 150.46 C 134.50 158.80 138.47 157.30 98.87 163.97 C 82.88 166.67 69.57 169.10 69.28 169.38 C 68.53 170.14 72.37 174.72 76.57 178.05 C 82.20 182.53 91.50 184.41 96.03 181.98 C 97.08 181.42 105.94 179.03 115.72 176.68 C 133.50 172.39 133.50 172.39 133.54 188.94 C 133.59 206.85 134.92 214.08 139.43 221.01 C 142.27 225.38 150.01 229.69 157.11 230.87 C 164.77 232.14 203.26 232.19 210.98 230.93 Z  M 49.54 161.58 C 50.41 160.25 51.39 156.66 51.70 153.62 C 52.27 148.08 52.27 148.08 59.39 146.54 C 63.30 145.69 71.00 144.14 76.50 143.09 C 88.98 140.70 91.47 139.74 93.59 136.51 C 95.24 133.99 95.20 133.83 91.98 129.82 C 88.68 125.72 88.68 125.72 91.34 117.55 C 92.80 113.06 95.63 106.71 97.63 103.44 C 105.01 91.38 104.66 92.22 103.00 90.66 C 102.17 89.88 96.85 87.16 91.17 84.62 C 78.74 79.06 74.57 78.71 69.78 82.81 C 63.38 88.30 59.78 90.26 52.68 92.10 C 43.43 94.50 39.78 94.47 32.18 91.90 C 27.34 90.27 25.15 90.01 22.24 90.71 C 18.68 91.57 18.50 91.80 18.57 95.61 C 18.61 97.81 20.48 104.54 22.73 110.56 C 26.75 121.31 28.02 126.53 31.97 148.50 C 34.32 161.56 36.14 164.00 43.53 164.00 C 47.11 164.00 48.26 163.54 49.54 161.58 Z  M 136.65 118.75 C 135.49 109.10 135.29 109.46 141.46 109.84 C 144.47 110.03 149.08 109.69 151.71 109.09 C 161.47 106.88 170.01 104.23 172.36 102.69 C 174.77 101.10 174.77 101.10 172.95 108.21 C 171.94 112.11 170.49 115.94 169.71 116.71 C 168.66 117.77 141.55 123.97 137.89 124.00 C 137.55 124.00 136.99 121.64 136.65 118.75 Z  M 173.68 94.26 C 172.61 92.24 170.94 90.81 169.23 90.43 C 167.73 90.10 165.98 89.67 165.33 89.48 C 162.95 88.76 150.24 91.08 142.28 93.70 C 137.76 95.18 133.84 96.17 133.56 95.90 C 133.29 95.62 132.77 92.92 132.42 89.89 C 131.77 84.38 131.77 84.38 150.63 80.22 C 161.01 77.92 171.41 75.75 173.75 75.39 C 178.00 74.74 178.00 74.74 177.95 79.62 C 177.93 82.30 177.34 87.42 176.66 91.00 C 175.41 97.50 175.41 97.50 173.68 94.26 Z  M 50.55 131.82 C 50.02 129.44 47.00 107.59 47.00 106.10 C 47.00 105.65 50.49 104.71 54.75 104.03 C 59.01 103.34 63.69 102.17 65.15 101.42 C 69.95 98.95 70.38 101.21 67.61 114.29 C 66.26 120.64 64.66 126.76 64.05 127.90 C 62.78 130.27 58.97 132.44 54.29 133.45 C 51.47 134.06 51.01 133.85 50.55 131.82 Z "/>
</g>
</svg>