<?xml version="1.0" encoding="UTF-8" standalone="no"?>
<!DOCTYPE svg PUBLIC "-//W3C//DTD SVG 1.1//EN" "http://www.w3.org/Graphics/SVG/1.1/DTD/svg11.dtd" >
<svg xmlns="http://www.w3.org/2000/svg" xmlns:xlink="http://www.w3.org/1999/xlink" version="1.1" viewBox="0 0 256 256">
 <g >
 <path fill="currentColor"
d=" M 237.00 192.50 C 237.00 138.00 237.00 138.00 128.00 138.00 C 19.00 138.00 19.00 138.00 19.00 192.50 C 19.00 247.00 19.00 247.00 128.00 247.00 C 237.00 247.00 237.00 247.00 237.00 192.50 Z  M 229.00 119.50 C 229.00 115.00 229.00 115.00 238.00 115.00 C 247.00 115.00 247.00 115.00 247.00 91.50 C 247.00 68.00 247.00 68.00 241.16 68.00 C 235.32 68.00 235.32 68.00 219.91 41.52 C 204.50 15.04 204.50 15.04 129.50 15.03 C 54.50 15.02 54.50 15.02 38.60 41.51 C 22.70 68.00 22.70 68.00 16.35 68.00 C 10.00 68.00 10.00 68.00 10.00 91.50 C 10.00 115.00 10.00 115.00 18.50 115.00 C 27.00 115.00 27.00 115.00 27.00 119.50 C 27.00 124.00 27.00 124.00 128.00 124.00 C 229.00 124.00 229.00 124.00 229.00 119.50 Z  M 77.00 193.00 C 77.00 178.00 77.00 178.00 129.00 178.00 C 181.00 178.00 181.00 178.00 181.00 193.00 C 181.00 208.00 181.00 208.00 129.00 208.00 C 77.00 208.00 77.00 208.00 77.00 193.00 Z  M 80.61 73.50 C 89.24 62.00 89.24 62.00 127.50 62.00 C 165.76 62.00 165.76 62.00 174.39 73.50 C 183.03 85.00 183.03 85.00 127.50 85.00 C 71.97 85.00 71.97 85.00 80.61 73.50 Z "/>
</g>
</svg>