<?xml version="1.0" encoding="UTF-8" standalone="no"?>
<!DOCTYPE svg PUBLIC "-//W3C//DTD SVG 1.1//EN" "http://www.w3.org/Graphics/SVG/1.1/DTD/svg11.dtd" >
<svg xmlns="http://www.w3.org/2000/svg" xmlns:xlink="http://www.w3.org/1999/xlink" version="1.1" viewBox="0 0 256 256">
 <g >
 <path fill="currentColor"
d=" M 199.00 155.00 C 199.00 61.00 199.00 61.00 203.00 61.00 C 207.00 61.00 207.00 61.00 207.00 122.00 C 207.00 183.00 207.00 183.00 204.35 183.00 C 201.70 183.00 201.70 183.00 202.35 193.66 C 202.71 199.52 203.00 209.64 203.00 216.16 C 203.00 228.00 203.00 228.00 222.00 228.00 C 241.00 228.00 241.00 228.00 241.00 124.00 C 241.00 20.00 241.00 20.00 202.50 20.00 C 164.00 20.00 164.00 20.00 164.00 134.50 C 164.00 249.00 164.00 249.00 181.50 249.00 C 199.00 249.00 199.00 249.00 199.00 155.00 Z  M 79.00 231.65 C 79.00 223.20 79.29 213.53 79.64 210.15 C 80.28 204.00 80.28 204.00 73.14 204.00 C 66.00 204.00 66.00 204.00 66.00 188.50 C 66.00 173.00 66.00 173.00 73.02 173.00 C 80.04 173.00 80.04 173.00 79.77 153.25 C 79.50 133.50 79.50 133.50 72.75 133.20 C 66.00 132.91 66.00 132.91 66.00 125.45 C 66.00 118.00 66.00 118.00 71.52 118.00 C 77.04 118.00 77.04 118.00 76.77 98.75 C 76.50 79.50 76.50 79.50 43.75 79.24 C 11.00 78.97 11.00 78.97 11.00 98.49 C 11.00 118.00 11.00 118.00 17.00 118.00 C 23.00 118.00 23.00 118.00 23.00 125.50 C 23.00 133.00 23.00 133.00 16.00 133.00 C 9.00 133.00 9.00 133.00 9.00 153.00 C 9.00 173.00 9.00 173.00 16.00 173.00 C 23.00 173.00 23.00 173.00 23.00 210.00 C 23.00 247.00 23.00 247.00 51.00 247.00 C 79.00 247.00 79.00 247.00 79.00 231.65 Z  M 159.00 154.50 C 159.00 62.00 159.00 62.00 142.50 62.00 C 126.00 62.00 126.00 62.00 126.00 112.50 C 126.00 162.33 125.97 163.00 124.00 163.00 C 122.03 163.00 122.00 162.33 122.00 111.03 C 122.00 59.05 122.00 59.05 137.22 58.78 C 152.45 58.50 152.45 58.50 157.67 39.50 C 160.55 29.05 163.18 19.26 163.53 17.75 C 164.16 15.00 164.16 15.00 141.14 15.00 C 118.13 15.00 118.13 15.00 116.86 18.50 C 115.60 22.00 115.60 22.00 100.80 22.00 C 86.00 22.00 86.00 22.00 86.00 112.50 C 86.00 203.00 86.00 203.00 106.00 203.00 C 126.00 203.00 126.00 203.00 126.00 205.50 C 126.00 208.00 126.00 208.00 106.00 208.00 C 86.00 208.00 86.00 208.00 86.00 227.50 C 86.00 247.00 86.00 247.00 122.50 247.00 C 159.00 247.00 159.00 247.00 159.00 154.50 Z  M 44.08 69.50 C 45.66 64.50 45.66 64.50 63.58 64.00 C 81.50 63.50 81.50 63.50 81.77 44.75 C 82.04 26.00 82.04 26.00 68.52 26.00 C 58.35 26.00 55.01 25.69 55.04 24.75 C 55.05 24.06 55.68 20.68 56.42 17.23 C 57.76 10.96 57.76 10.96 38.19 11.23 C 18.62 11.50 18.62 11.50 16.76 19.00 C 12.81 34.89 13.21 34.00 9.96 34.00 C 7.00 34.00 7.00 34.00 7.00 54.52 C 7.00 75.05 7.00 75.05 24.75 74.77 C 42.50 74.50 42.50 74.50 44.08 69.50 Z "/>
</g>
</svg>