<?xml version="1.0" encoding="UTF-8" standalone="no"?>
<!DOCTYPE svg PUBLIC "-//W3C//DTD SVG 1.1//EN" "http://www.w3.org/Graphics/SVG/1.1/DTD/svg11.dtd" >
<svg xmlns="http://www.w3.org/2000/svg" xmlns:xlink="http://www.w3.org/1999/xlink" version="1.1" viewBox="0 0 256 256">
 <g >
 <path fill="currentColor"
d=" M 43.00 203.49 C 43.00 158.97 43.00 158.97 76.25 159.24 C 109.50 159.50 109.50 159.50 109.76 189.25 C 110.03 219.00 110.03 219.00 107.01 219.00 C 104.00 219.00 104.00 219.00 104.00 205.00 C 104.00 191.59 104.09 191.00 106.03 191.00 C 107.97 191.00 108.05 190.49 107.78 180.25 C 107.50 169.50 107.50 169.50 104.39 169.20 C 101.76 168.94 101.09 168.29 99.98 164.95 C 98.68 161.00 98.68 161.00 88.34 161.00 C 82.65 161.00 78.01 161.34 78.02 161.75 C 78.03 162.16 78.88 165.76 79.92 169.75 C 81.80 177.00 81.80 177.00 76.40 177.00 C 73.43 177.00 71.00 176.66 71.00 176.25 C 71.00 175.84 71.63 172.22 72.39 168.22 C 73.78 160.94 73.78 160.94 62.68 161.22 C 51.57 161.50 51.57 161.50 50.69 165.25 C 50.05 167.96 49.27 169.00 47.90 169.00 C 46.15 169.00 46.00 169.86 46.00 180.00 C 46.00 186.67 46.39 191.00 47.00 191.00 C 47.63 191.00 48.00 198.50 48.00 211.50 C 48.00 232.00 48.00 232.00 70.50 232.00 C 93.00 232.00 93.00 232.00 93.00 238.42 C 93.00 248.81 90.87 248.00 118.11 248.00 C 142.00 248.00 142.00 248.00 142.00 188.00 C 142.00 128.00 142.00 128.00 77.00 128.00 C 12.00 128.00 12.00 128.00 12.00 188.00 C 12.00 248.00 12.00 248.00 27.50 248.00 C 43.00 248.00 43.00 248.00 43.00 203.49 Z  M 243.00 185.50 C 243.00 126.00 243.00 126.00 210.50 126.00 C 178.00 126.00 178.00 126.00 178.00 90.50 C 178.00 55.00 178.00 55.00 192.00 55.00 C 206.00 55.00 206.00 55.00 206.00 78.00 C 206.00 101.00 206.00 101.00 196.56 101.00 C 191.37 101.00 186.95 101.34 186.73 101.75 C 186.52 102.16 187.00 107.34 187.79 113.25 C 189.23 124.00 189.23 124.00 214.62 124.00 C 240.00 124.00 240.00 124.00 240.00 74.00 C 240.00 24.00 240.00 24.00 223.43 24.00 C 208.12 24.00 206.90 23.87 207.38 22.25 C 207.66 21.29 208.19 18.81 208.56 16.75 C 209.22 13.00 209.22 13.00 188.69 13.00 C 168.15 13.00 168.15 13.00 167.32 18.25 C 166.48 23.50 166.48 23.50 155.74 23.78 C 145.00 24.07 145.00 24.07 145.00 92.53 C 145.00 161.00 145.00 161.00 174.00 161.00 C 203.00 161.00 203.00 161.00 203.00 186.00 C 203.00 211.00 203.00 211.00 185.43 211.00 C 169.18 211.00 167.90 211.13 168.35 212.75 C 168.62 213.71 169.40 221.36 170.07 229.75 C 171.30 245.00 171.30 245.00 207.15 245.00 C 243.00 245.00 243.00 245.00 243.00 185.50 Z  M 200.00 185.98 C 200.00 168.97 200.00 168.97 173.25 169.23 C 146.50 169.50 146.50 169.50 146.23 186.25 C 145.95 203.00 145.95 203.00 172.98 203.00 C 200.00 203.00 200.00 203.00 200.00 185.98 Z  M 51.27 115.86 C 59.50 104.73 59.50 104.73 59.74 109.61 C 60.65 128.42 58.55 127.00 85.58 127.00 C 110.00 127.00 110.00 127.00 110.00 107.43 C 110.00 89.32 110.13 87.88 111.75 88.19 C 113.27 88.48 113.54 89.96 113.78 99.26 C 114.07 110.00 114.07 110.00 128.03 110.00 C 142.00 110.00 142.00 110.00 142.00 85.00 C 142.00 60.00 142.00 60.00 136.00 60.00 C 132.70 60.00 130.00 59.76 130.00 59.48 C 130.00 59.19 131.57 55.82 133.50 52.00 C 137.00 45.05 137.00 45.05 137.00 30.02 C 137.00 15.00 137.00 15.00 77.00 15.00 C 17.00 15.00 17.00 15.00 17.00 29.99 C 17.00 44.98 17.00 44.98 56.58 45.24 C 96.15 45.50 96.15 45.50 91.31 52.00 C 86.67 58.23 86.27 58.51 81.78 58.80 C 77.08 59.11 77.08 59.11 74.03 53.05 C 70.97 47.00 70.97 47.00 51.99 47.00 C 41.54 47.00 33.00 47.15 33.00 47.34 C 33.00 47.53 33.86 50.19 34.92 53.26 C 35.97 56.32 36.57 59.09 36.25 59.42 C 35.93 59.74 30.34 60.00 23.83 60.00 C 12.00 60.00 12.00 60.00 12.00 74.00 C 12.00 88.00 12.00 88.00 21.50 88.00 C 26.73 88.00 31.00 88.32 31.00 88.71 C 31.00 89.10 29.33 91.12 27.30 93.21 C 23.85 96.74 23.19 97.00 17.80 97.00 C 12.00 97.00 12.00 97.00 12.00 112.00 C 12.00 127.00 12.00 127.00 27.52 127.00 C 43.04 127.00 43.04 127.00 51.27 115.86 Z  M 205.00 97.15 C 205.00 95.62 200.98 65.55 200.46 63.25 C 199.98 61.10 199.52 61.00 190.01 61.00 C 180.05 61.00 180.05 61.00 180.52 63.75 C 181.07 66.99 184.00 94.63 184.00 96.63 C 184.00 97.70 186.27 98.00 194.50 98.00 C 200.28 98.00 205.00 97.62 205.00 97.15 Z  M 71.00 205.00 C 71.00 198.00 71.00 198.00 76.00 198.00 C 81.00 198.00 81.00 198.00 81.00 205.00 C 81.00 212.00 81.00 212.00 76.00 212.00 C 71.00 212.00 71.00 212.00 71.00 205.00 Z  M 69.12 93.00 C 70.89 90.80 72.71 89.00 73.17 89.00 C 73.63 89.00 74.00 90.80 74.00 93.00 C 74.00 97.00 74.00 97.00 69.95 97.00 C 65.91 97.00 65.91 97.00 69.12 93.00 Z "/>
</g>
</svg>