<?xml version="1.0" encoding="UTF-8" standalone="no"?>
<!DOCTYPE svg PUBLIC "-//W3C//DTD SVG 1.1//EN" "http://www.w3.org/Graphics/SVG/1.1/DTD/svg11.dtd" >
<svg xmlns="http://www.w3.org/2000/svg" xmlns:xlink="http://www.w3.org/1999/xlink" version="1.1" viewBox="0 0 256 256">
 <g >
 <path fill="currentColor"
d=" M 113.61 229.79 C 115.20 227.98 117.83 224.40 119.45 221.84 C 122.40 217.18 122.40 217.18 126.72 220.15 C 129.10 221.79 134.03 224.52 137.67 226.23 C 143.38 228.90 145.49 229.34 152.82 229.42 C 161.35 229.50 161.35 229.50 163.15 222.50 C 164.14 218.65 164.84 215.12 164.70 214.66 C 164.56 214.20 162.01 212.97 159.05 211.93 C 152.93 209.77 141.84 203.61 134.65 198.37 C 130.06 195.02 129.83 194.64 130.38 191.17 C 131.62 183.25 132.07 167.04 131.31 158.00 C 130.50 148.50 130.50 148.50 122.00 148.86 C 117.33 149.06 113.34 149.37 113.14 149.55 C 112.94 149.74 112.41 154.75 111.95 160.69 C 110.24 183.11 105.10 198.40 93.24 216.35 C 88.31 223.81 88.22 223.29 95.00 226.99 C 96.92 228.04 100.49 230.24 102.93 231.89 C 107.92 235.27 108.99 235.06 113.61 229.79 Z  M 165.31 191.78 C 169.53 188.78 175.41 179.17 177.42 172.00 C 178.37 168.60 178.96 165.63 178.73 165.39 C 178.49 165.16 174.55 163.45 169.96 161.60 C 161.63 158.24 161.63 158.24 158.47 165.49 C 156.74 169.48 153.45 176.00 151.16 179.96 C 148.87 183.93 147.01 187.47 147.02 187.84 C 147.03 188.20 149.39 189.93 152.27 191.68 C 158.04 195.20 160.49 195.21 165.31 191.78 Z  M 86.83 185.33 C 91.60 183.31 95.65 181.55 95.83 181.42 C 96.01 181.28 94.12 177.65 91.64 173.34 C 89.15 169.03 86.15 162.96 84.96 159.86 C 82.83 154.28 82.77 154.22 79.65 155.04 C 77.92 155.50 74.59 156.37 72.25 156.97 C 68.21 158.02 68.00 158.26 68.01 161.79 C 68.03 167.34 70.51 175.74 74.21 182.74 C 76.02 186.17 77.65 188.99 77.83 188.99 C 78.01 189.00 82.06 187.35 86.83 185.33 Z  M 196.50 151.13 C 198.30 150.14 200.60 147.30 202.25 144.05 C 209.71 129.38 201.94 103.63 184.46 85.11 C 180.91 81.34 178.00 77.92 178.00 77.51 C 178.00 77.10 179.30 75.28 180.89 73.47 C 182.49 71.66 185.05 67.93 186.59 65.19 C 189.39 60.21 189.39 60.21 200.28 60.28 C 208.15 60.33 211.39 59.99 211.96 59.06 C 213.15 57.14 214.13 48.71 213.26 47.97 C 211.90 46.82 145.35 38.32 144.48 39.19 C 144.31 39.36 143.85 42.69 143.47 46.60 C 142.77 53.70 142.77 53.70 148.14 54.37 C 151.09 54.74 157.78 55.85 163.00 56.83 C 172.50 58.62 172.50 58.62 166.00 63.41 C 158.58 68.90 152.77 71.98 145.25 74.44 C 142.36 75.39 140.00 76.53 140.00 76.98 C 140.00 78.54 148.25 95.00 149.03 95.00 C 149.46 95.00 152.89 93.61 156.66 91.91 C 163.50 88.83 163.50 88.83 169.28 95.08 C 178.50 105.06 184.00 118.30 184.00 130.51 C 184.00 136.16 182.29 137.58 177.42 135.97 C 174.43 134.99 173.60 135.02 172.86 136.13 C 168.02 143.49 167.80 144.05 169.08 145.59 C 172.13 149.27 185.80 154.23 190.50 153.36 C 192.15 153.05 194.85 152.05 196.50 151.13 Z  M 155.85 147.58 C 159.39 145.75 165.59 138.95 169.90 132.19 C 173.29 126.88 173.29 126.88 169.44 122.94 C 167.32 120.77 165.12 119.01 164.55 119.03 C 163.97 119.05 161.47 121.08 159.00 123.55 C 156.53 126.02 151.01 129.85 146.75 132.07 C 142.49 134.29 139.00 136.34 139.00 136.64 C 139.00 136.94 140.87 139.84 143.14 143.09 C 147.68 149.55 150.27 150.47 155.85 147.58 Z  M 49.50 139.11 C 57.16 135.41 61.44 132.15 65.04 127.26 C 67.91 123.35 67.91 123.35 63.42 116.65 C 58.92 109.94 58.92 109.94 53.55 114.68 C 50.59 117.29 44.79 121.26 40.66 123.51 C 33.14 127.59 33.14 127.59 37.32 134.78 C 39.62 138.74 41.95 141.98 42.50 141.98 C 43.05 141.99 46.20 140.70 49.50 139.11 Z  M 92.18 140.83 C 102.46 137.75 106.27 125.46 102.50 107.50 C 99.55 93.45 90.49 80.07 76.72 69.42 C 72.94 66.50 72.94 66.50 75.19 61.21 C 77.43 55.91 77.43 55.91 82.97 56.69 C 89.89 57.67 109.49 57.37 113.50 56.22 C 116.48 55.37 116.50 55.32 116.79 47.18 C 117.08 39.04 117.07 39.00 114.58 39.00 C 110.29 39.00 54.81 36.09 48.75 35.55 C 43.00 35.03 43.00 35.03 43.00 41.41 C 43.00 47.78 43.00 47.78 46.75 49.26 C 48.81 50.07 52.86 51.33 55.75 52.06 C 58.64 52.78 61.00 53.65 61.00 53.99 C 61.00 55.91 41.11 71.34 33.71 75.16 C 30.92 76.60 30.92 76.60 36.62 83.80 C 39.75 87.76 42.71 91.00 43.20 91.00 C 44.73 91.00 52.32 86.89 57.25 83.38 C 59.87 81.52 62.40 80.00 62.89 80.00 C 65.61 80.00 78.88 98.59 81.54 106.11 C 82.34 108.39 83.00 112.86 83.00 116.05 C 83.00 123.84 81.43 125.43 74.44 124.71 C 69.29 124.17 69.26 124.18 67.10 128.04 C 64.40 132.83 65.19 134.43 72.41 138.87 C 78.06 142.35 84.86 143.02 92.18 140.83 Z  M 143.35 126.43 C 149.25 123.48 153.64 119.56 158.72 112.68 C 162.27 107.86 162.27 107.86 158.49 103.99 C 154.71 100.12 154.71 100.12 151.61 102.48 C 148.70 104.68 133.19 111.98 131.34 112.02 C 130.88 112.02 129.88 112.42 129.12 112.91 C 128.01 113.61 128.57 115.29 131.94 121.39 C 134.25 125.58 136.61 129.00 137.17 129.00 C 137.74 129.00 140.52 127.84 143.35 126.43 Z  M 233.17 115.60 C 234.73 111.80 236.00 108.58 236.00 108.43 C 236.00 108.28 234.54 107.84 232.75 107.46 C 230.96 107.07 227.08 105.86 224.12 104.76 C 218.74 102.76 218.74 102.76 223.25 98.91 C 227.78 95.04 232.84 86.33 231.32 85.04 C 228.78 82.91 219.88 77.01 219.25 77.05 C 218.84 77.07 214.15 83.04 208.83 90.30 C 199.16 103.50 199.16 103.50 202.33 106.85 C 209.31 114.22 224.64 123.37 228.92 122.72 C 229.70 122.60 231.62 119.39 233.17 115.60 Z  M 37.56 118.49 C 43.65 114.88 48.05 110.60 53.04 103.41 C 55.88 99.32 55.88 99.32 51.48 95.65 C 47.09 91.98 47.09 91.98 39.80 96.92 C 35.78 99.63 29.69 102.90 26.26 104.18 C 20.02 106.51 20.02 106.51 24.76 114.25 C 27.37 118.51 29.98 122.00 30.56 122.00 C 31.14 122.00 34.29 120.42 37.56 118.49 Z  M 133.34 102.23 C 134.80 98.50 136.00 95.18 136.00 94.84 C 136.00 94.51 134.04 93.74 131.65 93.14 C 129.26 92.54 125.43 91.25 123.14 90.27 C 118.98 88.50 118.98 88.50 123.71 85.00 C 128.39 81.53 133.00 75.82 133.00 73.50 C 133.00 72.47 122.05 64.00 120.72 64.00 C 120.01 64.00 101.00 88.81 101.00 89.74 C 101.00 90.53 109.03 98.53 113.66 102.36 C 116.14 104.41 126.71 108.94 129.09 108.98 C 130.14 108.99 131.59 106.68 133.34 102.23 Z "/>
</g>
</svg>