<?xml version="1.0" encoding="UTF-8" standalone="no"?>
<!DOCTYPE svg PUBLIC "-//W3C//DTD SVG 1.1//EN" "http://www.w3.org/Graphics/SVG/1.1/DTD/svg11.dtd" >
<svg xmlns="http://www.w3.org/2000/svg" xmlns:xlink="http://www.w3.org/1999/xlink" version="1.1" viewBox="0 0 256 256">
 <g >
 <path fill="currentColor"
d=" M 183.13 237.25 C 186.16 229.51 188.30 215.02 188.40 201.55 C 188.52 185.53 190.38 187.23 167.50 182.49 C 160.90 181.12 154.60 179.79 153.50 179.54 C 151.67 179.13 151.53 178.41 151.82 171.19 C 152.14 163.28 152.14 163.28 146.01 161.74 C 139.88 160.19 139.88 160.19 138.94 162.66 C 138.42 164.02 138.00 165.31 138.00 165.53 C 138.00 165.75 137.04 168.48 135.88 171.60 C 133.75 177.28 133.75 177.28 125.63 176.49 C 121.16 176.06 115.48 175.66 113.00 175.60 C 108.51 175.50 108.51 175.50 107.14 183.30 C 106.39 187.60 106.02 191.35 106.32 191.66 C 106.63 191.96 110.59 192.62 115.13 193.13 C 119.67 193.64 123.59 194.26 123.84 194.50 C 124.67 195.34 115.84 205.90 108.34 213.02 C 100.86 220.13 100.86 220.13 104.68 224.70 C 106.78 227.22 109.45 230.43 110.62 231.84 C 112.73 234.41 112.73 234.41 119.19 231.23 C 129.70 226.05 140.49 212.93 145.12 199.69 C 146.61 195.42 144.87 195.66 160.83 197.57 C 166.16 198.21 166.16 198.21 165.46 210.36 C 165.07 217.03 164.34 223.29 163.84 224.25 C 163.15 225.58 161.67 226.00 157.71 226.00 C 152.50 226.00 152.50 226.00 152.83 232.44 C 153.23 240.10 152.25 239.67 169.77 239.86 C 182.05 240.00 182.05 240.00 183.13 237.25 Z  M 67.62 183.56 C 75.03 169.65 82.12 145.83 85.94 122.00 C 88.31 107.26 90.99 82.26 91.02 74.78 C 91.04 66.65 91.21 66.54 102.14 67.97 C 118.26 70.08 164.28 70.45 180.88 68.60 C 188.79 67.72 195.65 67.00 196.13 67.00 C 196.61 67.00 197.00 63.92 197.00 60.15 C 197.00 53.30 197.00 53.30 173.25 52.68 C 133.88 51.64 99.66 49.38 77.70 46.37 C 73.26 45.76 73.26 45.76 72.61 55.63 C 72.25 61.06 71.70 68.09 71.38 71.26 C 70.80 77.01 70.80 77.01 67.80 74.49 C 64.20 71.46 49.45 64.18 46.11 63.78 C 43.93 63.52 43.45 64.34 40.37 73.46 C 38.51 78.94 37.00 83.72 37.00 84.08 C 37.00 84.45 38.86 85.04 41.13 85.40 C 47.79 86.47 57.13 89.92 62.34 93.24 C 66.34 95.79 67.35 96.08 68.15 94.91 C 68.84 93.91 68.96 94.38 68.59 96.50 C 68.29 98.15 67.56 102.46 66.95 106.07 C 65.86 112.63 65.86 112.63 49.68 115.84 C 40.78 117.61 32.66 119.04 31.64 119.03 C 30.21 119.01 29.91 119.52 30.34 121.25 C 30.65 122.49 31.21 125.40 31.58 127.73 C 31.95 130.06 32.94 132.53 33.78 133.23 C 34.77 134.06 39.62 134.62 47.65 134.85 C 54.44 135.05 60.00 135.56 60.00 135.99 C 60.00 137.99 51.40 161.41 46.54 172.63 C 42.21 182.63 41.43 185.23 42.60 185.68 C 47.60 187.59 61.66 191.76 62.49 191.57 C 63.03 191.45 65.34 187.84 67.62 183.56 Z  M 205.89 172.95 C 208.79 166.44 212.79 154.00 214.45 146.31 C 215.10 143.26 214.96 143.07 211.32 142.13 C 205.54 140.65 197.39 139.18 188.50 138.02 C 180.39 136.96 134.50 134.03 125.71 134.01 C 121.09 134.00 120.93 133.91 121.21 131.25 C 121.50 128.52 121.44 128.49 112.00 126.93 C 106.78 126.06 102.23 125.49 101.89 125.65 C 101.56 125.81 100.73 129.44 100.06 133.72 C 99.39 138.00 97.50 146.85 95.87 153.40 C 94.23 159.94 93.26 165.63 93.70 166.04 C 94.14 166.44 97.14 167.53 100.38 168.45 C 106.25 170.13 106.25 170.13 109.25 167.31 C 112.46 164.30 118.00 153.73 118.00 150.62 C 118.00 148.97 118.53 148.82 122.25 149.37 C 133.34 151.04 157.16 153.06 172.75 153.65 C 182.24 154.02 190.00 154.48 190.00 154.67 C 190.00 154.87 189.54 155.81 188.98 156.76 C 187.95 158.52 184.27 168.83 183.36 172.50 C 182.93 174.25 183.96 174.83 191.69 177.15 C 196.53 178.60 201.00 179.84 201.62 179.90 C 202.23 179.95 204.15 176.83 205.89 172.95 Z  M 183.53 126.25 C 183.94 125.29 184.55 121.35 184.89 117.50 C 185.50 110.50 185.50 110.50 197.75 110.22 C 210.00 109.94 210.00 109.94 210.00 106.11 C 210.00 104.00 209.71 100.19 209.36 97.64 C 208.73 93.00 208.73 93.00 196.97 93.00 C 183.94 93.00 184.00 93.03 184.00 86.09 C 184.00 82.35 184.00 82.35 177.63 81.17 C 168.69 79.53 169.00 79.39 169.00 84.92 C 169.00 93.23 169.39 93.00 155.37 93.00 C 141.30 93.00 142.00 93.44 140.57 83.71 C 139.86 78.92 139.86 78.92 132.68 79.21 C 125.50 79.50 125.50 79.50 125.20 85.72 C 124.91 91.94 124.91 91.94 112.20 92.22 C 99.50 92.50 99.50 92.50 98.65 98.82 C 98.19 102.30 97.96 105.30 98.15 105.49 C 98.34 105.68 104.35 106.43 111.50 107.17 C 124.50 108.52 124.50 108.52 124.81 114.48 C 124.98 117.77 125.65 120.79 126.31 121.21 C 126.96 121.63 131.21 121.98 135.75 121.98 C 144.00 122.00 144.00 122.00 144.00 116.00 C 144.00 110.00 144.00 110.00 155.12 110.00 C 166.23 110.00 166.23 110.00 165.52 116.75 C 165.13 120.46 164.74 123.93 164.65 124.45 C 164.57 124.97 167.43 125.93 171.00 126.58 C 180.55 128.31 182.68 128.25 183.53 126.25 Z  M 136.35 44.80 C 151.18 34.45 151.01 36.24 138.37 23.60 C 126.91 12.14 126.91 12.14 120.97 15.82 C 117.70 17.84 115.02 20.21 115.01 21.07 C 114.99 24.12 130.19 47.00 132.24 47.00 C 132.76 47.00 134.61 46.01 136.35 44.80 Z "/>
</g>
</svg>