<?xml version="1.0" encoding="UTF-8" standalone="no"?>
<!DOCTYPE svg PUBLIC "-//W3C//DTD SVG 1.1//EN" "http://www.w3.org/Graphics/SVG/1.1/DTD/svg11.dtd" >
<svg xmlns="http://www.w3.org/2000/svg" xmlns:xlink="http://www.w3.org/1999/xlink" version="1.1" viewBox="0 0 256 256">
 <g >
 <path fill="currentColor"
d=" M 153.67 200.55 C 156.66 197.24 160.32 192.62 161.80 190.27 C 163.29 187.92 164.75 186.00 165.06 186.00 C 165.36 186.00 166.40 187.77 167.35 189.94 C 171.72 199.83 186.92 208.88 199.86 209.29 C 206.50 209.50 206.50 209.50 211.23 200.38 C 215.95 191.25 215.95 191.25 208.23 188.49 C 200.50 185.73 178.19 175.07 174.53 172.40 C 172.62 171.00 172.62 170.86 174.44 164.24 C 179.74 144.94 180.83 139.62 181.47 129.91 C 182.17 119.31 182.17 119.31 176.42 118.16 C 167.17 116.30 167.51 116.10 164.50 125.17 C 157.30 146.90 141.12 173.66 125.16 190.25 C 121.59 193.96 118.90 197.24 119.19 197.52 C 119.47 197.81 123.89 201.17 129.00 205.00 C 138.30 211.96 138.30 211.96 143.27 209.26 C 146.00 207.77 150.68 203.85 153.67 200.55 Z  M 101.10 191.99 C 104.69 190.99 104.69 190.99 105.86 181.25 C 110.14 145.59 110.17 102.30 105.92 71.25 C 104.79 63.00 104.79 63.00 73.65 63.02 C 56.52 63.02 41.95 63.38 41.29 63.80 C 40.49 64.31 39.70 70.27 39.00 81.04 C 37.59 102.50 32.26 145.60 30.00 153.76 C 28.74 158.30 28.56 160.26 29.36 160.52 C 32.08 161.40 45.69 165.00 46.29 165.00 C 47.31 165.00 50.17 159.07 52.06 153.00 C 53.77 147.50 53.77 147.50 65.93 147.22 C 78.09 146.94 78.09 146.94 77.79 139.72 C 77.50 132.50 77.50 132.50 66.77 132.22 C 56.04 131.93 56.04 131.93 56.58 125.72 C 57.60 114.07 56.57 115.00 68.56 115.00 C 79.09 115.00 79.09 115.00 78.79 107.75 C 78.50 100.50 78.50 100.50 68.75 100.21 C 59.00 99.93 59.00 99.93 59.00 88.94 C 59.00 77.94 59.00 77.94 72.75 78.22 C 86.50 78.50 86.50 78.50 86.44 109.00 C 86.41 125.78 85.79 147.43 85.06 157.13 C 83.75 174.75 83.75 174.75 78.62 175.37 C 75.81 175.71 71.10 175.99 68.16 175.99 C 62.81 176.00 62.81 176.00 63.48 181.25 C 64.50 189.27 64.83 189.88 68.81 190.92 C 76.90 193.03 95.18 193.63 101.10 191.99 Z  M 223.36 122.16 C 225.82 119.44 229.63 109.09 232.54 97.23 C 233.96 91.48 234.97 86.65 234.81 86.49 C 232.80 84.58 191.56 78.13 163.79 75.39 C 157.09 74.73 157.09 74.73 157.68 63.62 C 158.28 52.50 158.28 52.50 151.07 50.65 C 147.11 49.63 143.73 48.96 143.57 49.15 C 143.40 49.34 142.49 51.98 141.53 55.00 C 139.15 62.50 128.94 81.83 122.38 91.22 C 119.42 95.46 117.00 99.14 117.00 99.38 C 117.00 99.63 121.33 102.16 126.62 105.02 C 135.50 109.80 136.45 110.10 138.75 108.87 C 141.86 107.20 147.08 100.88 150.00 95.25 C 151.59 92.19 152.82 91.00 154.42 91.00 C 155.65 91.00 164.04 92.09 173.07 93.41 C 182.11 94.74 193.66 96.15 198.75 96.54 C 203.84 96.94 207.98 97.54 207.96 97.88 C 207.94 98.22 206.41 102.92 204.58 108.33 C 202.32 114.98 201.61 118.30 202.38 118.59 C 206.16 120.04 218.76 123.82 220.10 123.90 C 220.97 123.96 222.44 123.17 223.36 122.16 Z "/>
</g>
</svg>