<?xml version="1.0" encoding="UTF-8" standalone="no"?>
<!DOCTYPE svg PUBLIC "-//W3C//DTD SVG 1.1//EN" "http://www.w3.org/Graphics/SVG/1.1/DTD/svg11.dtd" >
<svg xmlns="http://www.w3.org/2000/svg" xmlns:xlink="http://www.w3.org/1999/xlink" version="1.1" viewBox="0 0 256 256">
 <g >
 <path fill="currentColor"
d=" M 131.50 248.08 C 134.50 247.38 134.50 247.38 134.79 238.69 C 135.08 230.00 135.08 230.00 137.89 230.00 C 139.43 230.00 157.98 230.49 179.10 231.09 C 200.22 231.69 222.11 231.87 227.75 231.50 C 239.34 230.72 238.83 231.31 237.35 220.57 C 236.74 216.09 236.58 215.89 234.10 216.51 C 232.67 216.87 210.01 216.84 183.75 216.44 C 136.00 215.71 136.00 215.71 136.00 211.86 C 136.00 208.00 136.00 208.00 184.85 208.00 C 233.69 208.00 233.69 208.00 234.34 196.75 C 235.82 171.13 235.04 163.58 230.34 157.99 C 225.15 151.82 216.91 149.32 191.00 146.05 C 171.05 143.53 102.87 140.85 90.00 142.07 C 81.42 142.89 56.19 144.44 32.75 145.58 C 20.00 146.20 20.00 146.20 20.00 176.17 C 20.00 206.14 20.00 206.14 37.25 205.47 C 52.89 204.86 94.52 206.06 112.75 207.64 C 120.00 208.28 120.00 208.28 120.00 212.14 C 120.00 216.00 120.00 216.00 68.00 216.00 C 16.00 216.00 16.00 216.00 16.00 223.63 C 16.00 231.27 16.00 231.27 23.25 230.65 C 27.24 230.31 50.78 229.73 75.57 229.36 C 120.63 228.69 120.63 228.69 120.19 237.81 C 119.95 242.83 120.01 247.60 120.33 248.41 C 120.90 249.91 124.15 249.81 131.50 248.08 Z  M 38.00 138.50 C 38.00 136.00 38.00 136.00 126.48 136.00 C 214.96 136.00 214.96 136.00 215.60 138.56 C 216.22 141.03 216.43 141.09 221.87 140.43 C 231.64 139.25 231.00 140.96 231.00 115.93 C 231.00 91.50 230.37 88.18 225.37 86.22 C 220.37 84.26 213.94 82.85 197.50 80.11 C 181.50 77.44 181.50 77.44 181.19 73.10 C 180.87 68.75 180.87 68.75 204.19 69.50 C 217.01 69.91 228.62 70.30 230.00 70.37 C 232.15 70.48 232.55 70.02 232.83 67.07 C 233.01 65.18 232.87 62.14 232.53 60.32 C 231.91 57.00 231.91 57.00 125.09 57.00 C 18.27 57.00 18.27 57.00 17.64 61.64 C 16.33 71.15 14.40 70.34 36.50 69.51 C 56.00 68.78 56.00 68.78 56.01 71.64 C 56.02 73.21 56.30 75.51 56.63 76.75 C 57.23 79.00 57.23 79.00 38.48 79.00 C 19.73 79.00 19.73 79.00 20.35 93.25 C 20.69 101.09 21.26 115.04 21.62 124.25 C 22.27 141.00 22.27 141.00 30.13 141.00 C 37.86 141.00 38.00 140.95 38.00 138.50 Z  M 216.99 50.17 C 216.99 49.80 216.12 46.64 215.05 43.15 C 213.12 36.79 213.12 36.79 223.31 37.47 C 228.91 37.84 234.25 38.35 235.16 38.61 C 236.44 38.97 236.94 38.17 237.41 35.04 C 239.35 21.81 240.48 23.28 227.82 22.62 C 221.59 22.29 197.67 21.74 174.65 21.39 C 127.86 20.69 132.59 21.78 134.60 12.14 C 135.29 8.83 133.63 8.04 125.93 8.01 C 121.37 8.00 121.37 8.00 116.66 27.75 C 114.07 38.61 111.96 47.79 111.98 48.15 C 112.00 48.78 123.10 51.00 126.20 51.00 C 127.33 51.00 128.23 48.71 129.53 42.48 C 131.64 32.42 131.82 32.32 144.36 33.50 C 148.84 33.92 162.61 34.54 174.98 34.88 C 197.46 35.50 197.46 35.50 199.12 42.67 C 200.04 46.62 201.01 50.22 201.29 50.67 C 201.89 51.64 217.00 51.16 216.99 50.17 Z  M 78.99 48.17 C 78.98 47.25 78.31 44.02 77.50 41.00 C 76.69 37.98 76.02 35.18 76.01 34.78 C 76.01 34.39 80.61 33.94 86.25 33.78 C 96.50 33.50 96.50 33.50 96.80 26.11 C 97.09 18.72 97.09 18.72 68.55 19.21 C 52.85 19.49 40.00 19.53 40.00 19.31 C 40.00 19.08 40.68 17.58 41.51 15.97 C 42.96 13.17 42.93 13.02 40.76 12.53 C 39.52 12.24 36.06 11.90 33.08 11.76 C 27.66 11.50 27.66 11.50 22.84 27.92 C 20.18 36.95 18.12 44.44 18.26 44.57 C 18.39 44.69 21.73 45.20 25.69 45.71 C 32.88 46.62 32.88 46.62 34.23 41.06 C 35.59 35.50 35.59 35.50 47.68 35.22 C 59.77 34.94 59.77 34.94 61.52 42.22 C 62.49 46.22 63.39 49.73 63.54 50.00 C 63.68 50.27 67.22 50.35 71.40 50.17 C 77.71 49.90 79.00 49.56 78.99 48.17 Z  M 147.50 196.30 C 134.24 196.00 57.57 192.38 43.75 191.41 C 35.00 190.79 35.00 190.79 35.00 187.89 C 35.00 186.30 35.40 185.00 35.89 185.00 C 36.38 185.00 43.18 184.33 50.99 183.50 C 63.89 182.14 71.96 182.19 139.34 184.00 C 180.13 185.10 214.74 186.00 216.25 186.00 C 218.92 186.00 219.00 186.17 219.00 191.50 C 219.00 197.00 219.00 197.00 189.25 196.78 C 172.89 196.67 154.10 196.45 147.50 196.30 Z  M 165.50 169.94 C 82.15 166.13 70.56 165.87 57.00 167.49 C 41.82 169.30 35.78 169.38 34.20 167.80 C 32.85 166.45 32.64 163.11 33.79 161.30 C 34.27 160.55 45.24 158.95 63.53 156.97 C 94.79 153.60 94.09 153.61 148.50 155.84 C 180.28 157.14 184.09 157.57 200.50 161.61 C 218.16 165.97 219.00 166.32 219.00 169.48 C 219.00 171.95 218.87 172.00 211.75 171.86 C 207.76 171.79 186.95 170.92 165.50 169.94 Z  M 44.33 121.09 C 40.39 120.76 36.85 120.19 36.48 119.81 C 35.40 118.73 34.77 94.65 35.79 93.18 C 36.74 91.81 55.89 89.77 57.18 90.90 C 57.55 91.23 58.35 97.12 58.95 104.00 C 59.56 110.88 60.25 117.74 60.50 119.25 C 60.94 121.94 60.85 122.00 56.23 121.84 C 53.63 121.75 48.27 121.41 44.33 121.09 Z  M 186.25 121.29 C 183.00 120.87 183.00 120.87 183.00 111.58 C 183.00 106.46 182.71 100.19 182.36 97.64 C 181.73 93.00 181.73 93.00 186.46 93.00 C 189.06 93.00 196.96 94.19 204.02 95.65 C 215.01 97.93 216.93 98.61 217.41 100.40 C 218.28 103.64 217.93 110.97 216.65 116.50 C 215.49 121.50 215.49 121.50 202.49 121.60 C 195.35 121.66 188.04 121.52 186.25 121.29 Z  M 74.57 118.75 C 74.01 116.05 71.99 95.38 72.00 92.38 C 72.00 90.32 72.55 90.24 93.43 89.38 C 105.84 88.87 125.83 88.87 140.88 89.39 C 171.15 90.42 167.51 87.93 168.57 108.25 C 169.24 121.00 169.24 121.00 122.14 121.00 C 75.04 121.00 75.04 121.00 74.57 118.75 Z  M 71.00 72.61 C 71.00 68.22 71.00 68.22 93.47 67.49 C 105.82 67.09 127.31 67.15 141.22 67.63 C 166.50 68.50 166.50 68.50 166.81 72.75 C 167.11 77.00 167.11 77.00 119.06 77.00 C 71.00 77.00 71.00 77.00 71.00 72.61 Z "/>
</g>
</svg>