<?xml version="1.0" encoding="UTF-8" standalone="no"?>
<!DOCTYPE svg PUBLIC "-//W3C//DTD SVG 1.1//EN" "http://www.w3.org/Graphics/SVG/1.1/DTD/svg11.dtd" >
<svg xmlns="http://www.w3.org/2000/svg" xmlns:xlink="http://www.w3.org/1999/xlink" version="1.1" viewBox="0 0 256 256">
 <g >
 <path fill="currentColor"
d=" M 211.38 242.51 C 225.13 239.60 230.34 235.16 234.72 222.61 C 236.35 217.94 236.46 214.05 236.02 177.50 C 235.31 118.24 235.40 91.19 236.38 64.84 C 236.86 51.83 236.95 39.56 236.58 37.57 C 235.75 33.17 231.01 27.55 225.92 24.96 C 223.84 23.90 218.40 21.95 213.82 20.64 C 201.92 17.20 158.15 15.13 137.48 17.02 C 129.79 17.73 118.70 18.22 112.82 18.13 C 106.26 18.02 101.90 18.36 101.50 19.01 C 101.14 19.58 101.16 22.94 101.53 26.47 C 102.22 32.89 102.22 32.89 145.86 32.29 C 190.83 31.67 199.17 32.10 212.33 35.71 C 215.91 36.69 218.67 38.11 219.50 39.40 C 221.86 43.10 222.13 53.78 220.67 86.50 C 219.63 109.99 219.50 124.22 220.17 140.00 C 220.68 151.82 220.96 174.57 220.80 190.55 C 220.53 216.55 220.31 219.88 218.70 222.34 C 215.78 226.79 211.22 228.99 204.90 229.00 C 201.81 229.00 196.53 229.29 193.15 229.64 C 187.00 230.28 187.00 230.28 187.00 236.44 C 187.00 240.01 187.53 243.15 188.25 243.90 C 189.74 245.44 200.60 244.79 211.38 242.51 Z  M 49.94 237.39 C 55.13 235.50 66.22 231.24 74.58 227.94 C 89.78 221.92 89.78 221.92 87.78 215.21 C 86.68 211.52 85.69 208.39 85.57 208.26 C 85.45 208.13 80.13 209.77 73.75 211.92 C 62.14 215.82 62.14 215.82 61.59 209.66 C 60.87 201.70 59.22 155.72 58.46 122.53 C 58.07 105.70 58.31 90.11 59.12 78.27 C 59.91 66.84 60.03 59.65 59.44 59.09 C 58.92 58.60 55.18 57.88 51.12 57.49 C 43.74 56.77 43.74 56.77 44.36 130.14 C 44.71 170.49 45.26 207.55 45.60 212.50 C 46.21 221.50 46.21 221.50 39.85 224.29 C 36.36 225.82 32.68 227.69 31.68 228.45 C 29.95 229.76 29.94 229.99 31.56 233.16 C 34.81 239.51 37.14 242.16 38.86 241.48 C 39.76 241.12 44.75 239.28 49.94 237.39 Z  M 112.44 228.78 C 113.30 227.56 114.00 225.81 114.00 224.89 C 114.00 223.79 115.12 223.02 117.25 222.64 C 127.78 220.76 140.15 220.12 160.88 220.37 C 184.27 220.66 184.27 220.66 185.67 223.33 C 187.23 226.32 190.61 226.79 197.25 224.95 C 201.67 223.72 201.54 225.08 199.55 201.50 C 198.40 187.94 198.41 180.62 199.62 153.50 C 200.40 135.90 201.54 114.04 202.15 104.93 C 203.45 85.49 203.30 84.94 195.50 81.37 C 185.13 76.62 173.06 75.01 140.04 73.97 C 109.59 73.02 109.59 73.02 107.53 70.43 C 105.58 67.98 105.14 67.89 99.23 68.55 C 93.00 69.26 93.00 69.26 93.08 74.88 C 93.13 77.97 93.78 89.72 94.52 101.00 C 95.27 112.28 96.59 141.75 97.46 166.50 C 98.33 191.25 99.30 215.64 99.61 220.70 C 100.18 229.89 100.18 229.89 104.34 230.27 C 106.63 230.48 109.04 230.73 109.69 230.83 C 110.35 230.92 111.59 230.00 112.44 228.78 Z  M 27.43 59.45 C 32.58 45.50 32.58 45.50 50.16 45.23 C 60.37 45.07 68.87 45.38 70.42 45.97 C 73.68 47.21 76.00 52.31 76.00 58.22 C 76.00 62.50 76.00 62.50 83.75 62.00 C 91.50 61.50 91.50 61.50 91.19 55.00 C 90.74 45.66 89.47 41.77 85.05 36.18 C 79.41 29.05 75.44 27.86 55.25 27.25 C 46.31 26.98 39.02 26.48 39.04 26.13 C 39.05 25.78 39.71 24.38 40.50 23.00 C 41.29 21.62 41.95 19.98 41.96 19.35 C 42.01 17.79 27.16 12.44 26.01 13.60 C 25.52 14.09 21.74 23.96 17.62 35.52 C 13.50 47.08 9.19 58.73 8.04 61.41 C 6.89 64.09 6.07 66.39 6.22 66.52 C 7.50 67.64 20.70 73.84 21.39 73.65 C 21.88 73.52 24.60 67.13 27.43 59.45 Z  M 207.93 57.13 C 209.32 51.11 209.30 50.69 207.51 49.38 C 206.47 48.62 204.24 48.00 202.56 47.99 C 200.88 47.99 194.55 47.32 188.50 46.50 C 174.15 44.57 108.71 43.29 104.75 44.86 C 102.13 45.90 102.00 46.27 102.00 52.73 C 102.00 59.50 102.00 59.50 127.25 59.68 C 143.12 59.79 160.31 60.58 173.50 61.81 C 185.05 62.89 197.19 63.71 200.48 63.63 C 206.47 63.50 206.47 63.50 207.93 57.13 Z  M 114.60 206.88 C 114.36 206.12 113.67 188.85 113.07 168.50 C 111.80 125.83 111.50 120.29 109.42 102.11 C 108.32 92.52 108.19 88.41 108.96 87.64 C 109.68 86.92 116.98 86.63 130.77 86.78 C 149.09 86.98 153.58 87.38 169.38 90.20 C 187.27 93.40 187.27 93.40 186.64 112.45 C 186.30 122.93 185.59 135.55 185.08 140.50 C 184.56 145.45 184.11 158.09 184.07 168.60 C 184.03 179.10 183.71 191.75 183.36 196.70 C 182.72 205.71 182.72 205.71 153.61 206.40 C 137.60 206.78 122.37 207.35 119.77 207.67 C 116.23 208.10 114.92 207.90 114.60 206.88 Z "/>
</g>
</svg>