<?xml version="1.0" encoding="UTF-8" standalone="no"?>
<!DOCTYPE svg PUBLIC "-//W3C//DTD SVG 1.1//EN" "http://www.w3.org/Graphics/SVG/1.1/DTD/svg11.dtd" >
<svg xmlns="http://www.w3.org/2000/svg" xmlns:xlink="http://www.w3.org/1999/xlink" version="1.1" viewBox="0 0 256 256">
 <g >
 <path fill="currentColor"
d=" M 228.09 240.75 C 235.91 236.06 236.96 230.72 234.69 207.26 C 233.37 193.73 232.88 191.44 230.25 186.76 C 227.89 182.57 226.18 180.94 221.89 178.77 C 214.74 175.14 210.41 174.56 170.31 171.86 C 136.12 169.56 136.12 169.56 134.87 167.03 C 133.39 164.03 132.36 139.23 131.40 83.30 C 130.72 44.11 130.72 44.11 133.11 43.60 C 149.02 40.21 172.83 40.17 191.84 43.51 C 207.80 46.31 211.21 47.66 214.04 52.30 C 215.83 55.24 215.98 57.34 215.89 78.00 C 215.84 90.38 215.50 109.79 215.15 121.15 C 214.58 139.10 214.26 142.05 212.69 143.79 C 209.87 146.90 205.21 147.11 199.78 144.38 C 197.19 143.07 194.66 142.00 194.17 142.00 C 192.80 142.00 186.76 153.92 187.34 155.46 C 187.63 156.20 190.91 158.31 194.64 160.14 C 200.04 162.80 202.93 163.56 208.85 163.86 C 218.80 164.36 223.39 162.89 226.47 158.21 C 231.83 150.09 232.29 145.43 232.72 95.50 C 233.12 49.50 233.12 49.50 230.73 45.00 C 229.42 42.52 226.55 39.13 224.36 37.45 C 215.09 30.36 193.24 26.65 160.25 26.56 C 149.11 26.53 140.00 26.38 140.00 26.23 C 140.00 26.08 141.22 24.12 142.71 21.86 C 145.42 17.77 145.42 17.77 141.72 14.39 C 138.68 11.60 137.24 11.00 133.58 11.00 C 129.55 11.00 128.81 11.40 125.71 15.25 C 119.98 22.36 110.00 37.82 110.00 39.58 C 110.00 40.49 111.33 42.75 112.95 44.60 C 115.91 47.96 115.91 47.96 115.31 75.23 C 114.58 109.23 117.71 171.59 120.64 181.34 C 121.64 184.67 127.11 186.00 139.72 185.99 C 155.20 185.98 200.27 188.77 206.00 190.09 C 216.18 192.44 218.74 196.88 219.65 213.76 C 220.22 224.37 220.10 225.76 218.46 227.40 C 217.04 228.82 215.70 229.09 212.42 228.64 C 208.02 228.04 201.63 225.50 198.91 223.28 C 197.51 222.13 196.94 222.82 194.25 228.91 C 191.18 235.84 191.18 235.84 196.78 239.55 C 205.72 245.49 219.32 246.01 228.09 240.75 Z  M 94.50 239.75 C 94.73 239.06 95.45 210.60 96.09 176.50 C 96.73 142.40 97.31 112.47 97.37 110.00 C 97.51 104.04 95.39 99.25 91.77 97.38 C 89.51 96.21 76.68 94.16 70.75 94.02 C 70.34 94.01 70.00 91.30 70.00 88.00 C 70.00 82.00 70.00 82.00 88.33 82.00 C 98.42 82.00 106.85 81.81 107.08 81.59 C 107.31 81.36 107.35 77.99 107.17 74.09 C 106.84 67.00 106.84 67.00 88.42 67.00 C 70.00 67.00 70.00 67.00 70.00 51.02 C 70.00 35.25 70.03 35.03 72.25 34.57 C 73.49 34.32 81.25 33.58 89.50 32.95 C 97.75 32.31 104.72 31.66 105.00 31.49 C 105.28 31.33 105.35 27.78 105.17 23.60 C 104.84 16.00 104.84 16.00 101.67 16.06 C 94.58 16.19 19.04 22.62 18.52 23.14 C 17.99 23.67 19.54 36.95 20.19 37.45 C 20.36 37.58 26.35 37.12 33.50 36.41 C 56.37 34.16 54.09 32.56 53.78 50.75 C 53.50 66.50 53.50 66.50 32.75 66.77 C 12.00 67.04 12.00 67.04 12.00 74.62 C 12.00 82.21 12.00 82.21 33.00 81.48 C 54.00 80.75 54.00 80.75 54.00 87.37 C 54.00 94.00 54.00 94.00 48.12 94.00 C 43.07 94.00 42.16 93.71 41.71 92.00 C 41.24 90.20 40.35 90.00 32.59 90.00 C 24.00 90.00 24.00 90.00 24.00 110.85 C 24.00 141.65 22.18 206.52 20.87 221.94 C 19.75 235.29 19.75 235.38 21.98 237.19 C 24.60 239.31 27.48 239.42 38.53 237.82 C 46.56 236.66 69.98 237.72 85.00 239.91 C 93.25 241.12 94.03 241.11 94.50 239.75 Z  M 197.38 217.10 C 204.19 216.25 206.00 214.52 206.00 208.83 C 206.00 205.94 205.43 204.68 203.60 203.48 C 201.51 202.11 199.60 202.04 188.54 203.00 C 176.27 204.05 175.36 203.99 160.18 201.08 C 146.45 198.44 110.03 193.53 109.49 194.24 C 108.09 196.06 105.92 204.47 106.17 207.09 C 106.50 210.50 106.50 210.50 120.00 211.20 C 127.42 211.59 141.38 213.22 151.00 214.83 C 168.99 217.85 185.05 218.64 197.38 217.10 Z  M 184.28 124.39 C 187.70 122.96 190.64 121.65 190.82 121.49 C 191.00 121.33 184.95 107.65 177.38 91.10 C 163.61 61.00 163.61 61.00 160.27 61.00 C 155.19 61.00 149.66 63.62 150.25 65.75 C 150.99 68.45 177.18 127.00 177.65 127.00 C 177.87 127.00 180.86 125.83 184.28 124.39 Z  M 50.25 222.25 C 38.00 221.94 38.00 221.94 38.03 216.22 C 38.04 212.02 40.83 111.99 40.98 110.23 C 40.99 110.08 49.66 110.08 60.25 110.23 C 79.50 110.50 79.50 110.50 79.76 166.75 C 80.02 223.00 80.02 223.00 71.26 222.78 C 66.44 222.66 56.99 222.43 50.25 222.25 Z "/>
</g>
</svg>