<?xml version="1.0" encoding="UTF-8" standalone="no"?>
<!DOCTYPE svg PUBLIC "-//W3C//DTD SVG 1.1//EN" "http://www.w3.org/Graphics/SVG/1.1/DTD/svg11.dtd" >
<svg xmlns="http://www.w3.org/2000/svg" xmlns:xlink="http://www.w3.org/1999/xlink" version="1.1" viewBox="0 0 256 256">
 <g >
 <path fill="currentColor"
d=" M 183.28 247.48 C 192.84 245.08 194.76 244.08 199.00 239.26 C 206.44 230.81 208.24 222.37 210.04 187.50 C 210.95 169.81 211.38 166.34 212.77 165.50 C 216.05 163.51 220.15 158.96 219.76 157.75 C 219.04 155.48 201.58 143.05 199.10 143.03 C 197.57 143.01 195.30 144.46 192.87 147.02 C 189.05 151.03 189.05 151.03 161.77 150.77 C 134.83 150.50 134.54 150.48 138.21 148.72 C 145.26 145.34 144.25 143.33 133.47 139.32 C 126.14 136.60 126.14 136.60 128.62 134.30 C 131.08 132.02 131.38 132.00 156.66 132.00 C 182.21 132.00 182.21 132.00 181.83 136.00 C 181.45 140.01 181.45 140.01 184.74 139.39 C 186.55 139.05 191.06 138.01 194.77 137.07 C 201.50 135.37 201.50 135.37 201.13 111.43 C 200.77 87.50 200.77 87.50 203.94 85.18 C 206.11 83.59 207.02 82.17 206.81 80.71 C 206.32 77.30 191.77 67.00 187.45 67.00 C 186.56 67.00 184.43 68.58 182.73 70.50 C 179.63 74.00 179.63 74.00 158.73 74.00 C 137.84 74.00 137.84 74.00 126.29 70.50 C 115.08 67.10 108.00 66.09 108.00 67.88 C 108.00 68.36 108.79 70.50 109.75 72.63 C 111.31 76.08 111.48 79.86 111.32 107.37 C 111.13 138.25 111.13 138.25 115.57 137.75 C 118.00 137.47 120.00 137.57 120.00 137.97 C 120.00 140.76 103.69 162.06 95.22 170.33 C 90.84 174.61 90.18 174.95 89.43 173.33 C 88.97 172.32 88.42 146.59 88.22 116.15 C 87.84 60.79 87.84 60.79 91.67 57.28 C 95.49 53.78 95.49 53.78 89.50 48.46 C 86.20 45.53 82.27 42.41 80.77 41.53 C 78.10 39.94 77.97 39.99 73.66 43.96 C 69.72 47.59 68.75 48.00 64.13 48.00 C 59.96 48.00 57.36 47.15 50.45 43.50 C 41.42 38.74 35.18 37.51 36.50 40.75 C 39.00 46.86 39.19 53.17 38.85 118.81 C 38.50 188.20 38.50 188.20 42.90 187.60 C 45.32 187.27 49.03 186.53 51.15 185.96 C 54.96 184.93 55.00 184.87 55.00 179.96 C 55.00 175.00 55.00 175.00 63.33 175.00 C 71.65 175.00 71.65 175.00 71.21 178.00 C 70.97 179.65 71.19 181.00 71.70 181.00 C 72.20 181.00 76.42 179.63 81.06 177.96 C 89.50 174.91 89.50 174.91 85.69 178.46 C 83.60 180.41 82.14 182.43 82.46 182.94 C 83.18 184.11 91.37 181.36 99.73 177.14 C 103.15 175.41 106.41 174.00 106.97 174.00 C 107.64 174.00 108.00 180.01 108.00 190.97 C 108.00 207.95 108.00 207.95 105.00 209.50 C 103.35 210.35 102.00 211.23 102.00 211.44 C 102.00 211.66 101.74 212.50 101.43 213.32 C 100.80 214.95 116.09 228.00 118.62 228.00 C 119.41 228.00 121.27 225.98 122.76 223.51 C 125.47 219.03 125.47 219.03 153.97 218.76 C 187.50 218.45 186.99 218.67 177.25 208.93 C 169.93 201.61 167.61 201.30 162.73 207.00 C 159.31 211.00 159.31 211.00 142.15 211.00 C 125.00 211.00 125.00 211.00 125.00 195.17 C 125.00 179.59 125.04 179.31 127.50 177.00 C 128.88 175.71 130.00 174.05 130.00 173.31 C 130.00 172.58 127.41 170.75 124.25 169.25 C 121.09 167.75 118.35 166.45 118.17 166.35 C 117.99 166.25 119.56 164.57 121.67 162.61 C 125.50 159.05 125.50 159.05 158.39 159.03 C 191.28 159.00 191.28 159.00 190.71 177.25 C 190.12 196.04 188.12 211.37 185.44 217.81 C 181.09 228.21 173.75 230.61 154.50 227.94 C 148.74 227.14 146.51 227.17 145.43 228.06 C 143.46 229.69 143.64 231.00 145.82 231.00 C 149.38 231.00 161.80 234.74 166.08 237.10 C 169.62 239.05 170.81 240.48 172.46 244.76 C 173.76 248.12 174.96 249.85 175.78 249.53 C 176.49 249.26 179.86 248.34 183.28 247.48 Z  M 147.66 193.29 C 157.94 183.08 157.94 183.08 160.83 185.51 C 162.42 186.85 165.41 190.59 167.47 193.82 C 172.83 202.23 178.17 204.97 182.17 201.35 C 185.82 198.04 183.70 189.28 178.35 185.53 C 176.58 184.29 169.68 182.10 162.73 180.56 C 160.31 180.03 160.09 179.69 161.04 177.93 C 161.63 176.82 163.67 175.17 165.58 174.26 C 167.48 173.35 168.89 172.14 168.71 171.56 C 168.53 170.98 163.98 168.25 158.61 165.51 C 149.15 160.67 148.78 160.58 147.41 162.45 C 146.64 163.51 146.00 165.66 146.00 167.23 C 146.00 171.24 139.74 187.02 134.42 196.44 C 126.23 210.94 131.05 209.79 147.66 193.29 Z  M 139.25 63.87 C 143.00 62.92 143.00 62.92 143.00 55.96 C 143.00 49.00 143.00 49.00 156.10 49.00 C 169.21 49.00 169.21 49.00 168.85 57.60 C 168.50 66.19 168.50 66.19 173.13 65.58 C 175.68 65.24 180.13 64.26 183.01 63.40 C 188.26 61.84 188.26 61.84 187.75 55.42 C 187.23 49.00 187.23 49.00 202.92 49.00 C 224.33 49.00 224.60 48.75 214.09 38.71 C 209.35 34.18 205.17 31.00 203.95 31.00 C 202.77 31.00 200.11 32.95 197.74 35.55 C 194.31 39.32 193.08 40.05 190.55 39.80 C 187.60 39.51 187.49 39.32 187.19 34.05 C 186.89 28.82 187.03 28.47 190.69 25.37 C 195.91 20.95 194.77 19.52 181.89 14.24 C 171.39 9.94 167.07 9.25 167.99 12.02 C 168.26 12.84 168.63 19.48 168.80 26.78 C 169.11 40.06 169.11 40.06 156.30 39.78 C 143.50 39.50 143.50 39.50 143.21 31.87 C 142.92 24.24 142.92 24.24 146.46 22.16 C 153.28 18.13 150.61 15.14 136.20 10.61 C 127.38 7.84 123.00 7.32 123.00 9.06 C 123.00 9.65 123.69 12.24 124.54 14.83 C 125.61 18.11 125.99 22.55 125.79 29.52 C 125.50 39.50 125.50 39.50 110.69 39.28 C 95.89 39.06 95.89 39.06 99.09 44.78 C 103.40 52.47 103.51 52.55 106.41 50.65 C 108.22 49.46 111.18 49.00 116.96 49.00 C 125.00 49.00 125.00 49.00 125.00 57.35 C 125.00 65.71 125.00 65.71 130.25 65.26 C 133.14 65.02 137.19 64.39 139.25 63.87 Z  M 55.24 111.25 C 55.50 57.50 55.50 57.50 63.75 57.21 C 72.00 56.92 72.00 56.92 72.00 110.96 C 72.00 165.00 72.00 165.00 63.49 165.00 C 54.98 165.00 54.98 165.00 55.24 111.25 Z  M 130.00 115.50 C 130.00 107.00 130.00 107.00 156.00 107.00 C 182.00 107.00 182.00 107.00 182.00 115.50 C 182.00 124.00 182.00 124.00 156.00 124.00 C 130.00 124.00 130.00 124.00 130.00 115.50 Z  M 130.00 92.22 C 130.00 80.52 128.83 81.00 157.56 81.00 C 182.00 81.00 182.00 81.00 182.00 90.00 C 182.00 99.00 182.00 99.00 156.00 99.00 C 130.00 99.00 130.00 99.00 130.00 92.22 Z "/>
</g>
</svg>