<?xml version="1.0" encoding="UTF-8" standalone="no"?>
<!DOCTYPE svg PUBLIC "-//W3C//DTD SVG 1.1//EN" "http://www.w3.org/Graphics/SVG/1.1/DTD/svg11.dtd" >
<svg xmlns="http://www.w3.org/2000/svg" xmlns:xlink="http://www.w3.org/1999/xlink" version="1.1" viewBox="0 0 256 256">
 <g >
 <path fill="currentColor"
d=" M 135.80 245.41 C 141.11 243.91 141.11 243.91 140.40 211.57 C 140.01 193.79 140.01 178.43 140.38 177.44 C 140.88 176.14 142.52 178.82 146.47 187.38 C 154.37 204.57 168.91 221.58 187.79 235.74 C 196.07 241.96 196.07 241.96 201.56 237.50 C 208.58 231.78 212.20 229.92 219.00 228.54 C 222.14 227.90 224.50 226.88 224.50 226.17 C 224.50 225.48 217.85 222.28 209.71 219.05 C 187.52 210.25 168.88 198.58 154.76 184.65 C 146.50 176.50 146.50 176.50 181.42 176.00 C 204.72 175.67 216.45 175.15 216.69 174.44 C 217.21 172.86 202.52 159.00 200.31 159.00 C 199.26 159.00 196.65 160.80 194.50 163.00 C 190.59 167.00 190.59 167.00 165.30 167.00 C 144.82 167.00 140.00 166.74 140.00 165.66 C 140.00 164.92 141.12 163.81 142.50 163.18 C 146.42 161.39 145.47 159.42 139.50 157.00 C 136.47 155.77 134.00 154.40 134.00 153.95 C 134.00 153.50 138.84 150.21 144.75 146.64 C 157.53 138.92 160.12 136.97 171.52 126.52 C 180.23 118.55 180.23 118.55 182.60 121.52 C 183.91 123.16 187.71 129.45 191.05 135.50 C 194.40 141.55 197.67 147.21 198.32 148.09 C 201.74 152.68 209.37 153.37 213.08 149.42 C 215.07 147.30 215.49 145.82 215.46 141.17 C 215.40 132.71 212.20 127.20 200.26 115.02 C 194.62 109.25 190.00 104.20 190.00 103.79 C 190.00 103.38 193.59 96.62 197.97 88.77 C 203.77 78.39 206.77 74.04 208.97 72.80 C 210.64 71.86 212.00 70.45 212.00 69.67 C 212.00 68.12 203.65 61.38 198.00 58.37 C 194.50 56.50 194.50 56.50 210.49 56.00 C 224.07 55.58 226.52 55.26 226.78 53.90 C 227.12 52.14 213.72 34.49 211.35 33.58 C 210.37 33.20 207.59 35.42 203.29 40.00 C 196.73 47.00 196.73 47.00 184.24 47.00 C 171.75 47.00 171.75 47.00 172.34 44.07 C 172.66 42.45 174.31 37.53 176.02 33.12 C 178.50 26.66 179.78 24.68 182.55 22.97 C 188.49 19.30 186.93 17.24 174.22 11.95 C 170.18 10.27 164.66 8.63 161.94 8.31 C 157.00 7.72 157.00 7.72 156.99 17.11 C 156.98 28.87 152.48 49.52 144.59 74.00 C 138.59 92.61 137.27 98.00 138.71 98.00 C 140.02 98.00 143.26 94.29 146.47 89.12 C 149.18 84.75 149.18 84.75 154.67 90.12 C 157.69 93.08 161.98 97.66 164.22 100.30 C 167.90 104.66 168.17 105.34 167.10 107.68 C 164.88 112.56 148.55 133.52 140.28 142.10 C 135.73 146.83 132.00 151.22 132.00 151.85 C 132.00 153.29 130.77 153.29 123.67 151.86 C 118.00 150.72 118.00 150.72 120.43 148.48 C 123.88 145.28 128.82 135.01 130.99 126.52 C 132.09 122.24 133.31 111.90 133.96 101.38 C 135.07 83.50 135.07 83.50 138.54 80.24 C 140.44 78.44 142.00 76.55 142.00 76.03 C 142.00 74.89 127.19 63.50 123.54 61.84 C 121.11 60.73 120.59 60.98 116.18 65.32 C 111.43 70.00 111.43 70.00 97.09 70.00 C 84.36 70.00 82.90 69.83 84.02 68.48 C 84.72 67.64 84.99 66.65 84.62 66.29 C 84.25 65.92 79.35 64.42 73.73 62.95 C 68.10 61.48 62.81 59.98 61.97 59.61 C 60.81 59.11 59.56 60.82 56.77 66.73 C 52.69 75.37 42.78 89.01 33.21 99.16 C 29.75 102.83 27.33 106.09 27.84 106.40 C 28.34 106.71 33.12 104.46 38.46 101.40 C 43.79 98.33 48.46 96.13 48.83 96.50 C 49.20 96.87 49.47 106.36 49.43 117.59 C 49.38 131.53 49.69 137.98 50.43 137.94 C 51.02 137.90 54.42 137.32 58.00 136.64 C 64.50 135.41 64.50 135.41 64.80 130.17 C 65.11 124.93 65.11 124.93 74.30 125.21 C 83.50 125.50 83.50 125.50 83.82 128.25 C 84.19 131.50 84.56 131.54 93.00 129.16 C 99.50 127.32 99.50 127.32 99.77 114.41 C 100.02 102.66 100.24 101.36 102.14 99.91 C 103.56 98.83 104.03 97.68 103.61 96.35 C 102.93 94.20 91.93 86.00 89.74 86.00 C 88.99 86.00 87.38 87.35 86.16 89.00 C 83.94 92.00 83.94 92.00 73.72 91.92 C 68.10 91.88 61.74 91.32 59.59 90.67 C 55.68 89.49 55.68 89.49 63.31 83.74 C 70.94 78.00 70.94 78.00 93.12 78.00 C 115.31 78.00 115.31 78.00 114.70 91.75 C 114.11 104.96 112.05 120.08 109.94 126.60 C 109.39 128.31 107.79 130.78 106.39 132.10 C 104.08 134.28 102.85 134.53 93.17 134.78 C 76.05 135.23 74.60 136.13 84.93 139.89 C 92.04 142.49 94.46 145.24 96.11 152.60 C 97.32 158.03 97.37 158.08 100.42 157.42 C 102.11 157.06 106.36 155.69 109.85 154.39 C 113.35 153.08 116.58 152.24 117.03 152.52 C 117.86 153.03 118.39 155.20 119.54 162.81 C 120.20 167.12 120.20 167.12 76.69 166.81 C 47.87 166.60 33.39 166.84 33.79 167.50 C 34.28 168.31 40.52 177.33 41.69 178.91 C 41.85 179.14 42.81 178.57 43.82 177.66 C 45.45 176.19 49.16 176.00 76.53 176.00 C 107.41 176.00 107.41 176.00 103.45 180.09 C 96.81 186.96 78.08 202.38 66.96 210.14 C 61.16 214.19 49.60 221.32 41.26 226.00 C 27.09 233.94 23.37 237.00 27.88 237.00 C 31.06 237.00 54.84 228.47 67.72 222.71 C 81.51 216.54 95.30 208.94 108.86 200.04 C 113.92 196.72 118.55 194.00 119.16 194.00 C 119.96 194.00 120.07 201.75 119.54 221.93 C 118.72 253.02 117.10 250.68 135.80 245.41 Z  M 113.03 58.48 C 115.82 57.04 116.00 56.59 116.00 50.97 C 116.00 45.00 116.00 45.00 129.81 45.00 C 140.32 45.00 144.08 44.65 145.56 43.55 C 147.41 42.17 147.16 41.76 140.27 34.82 C 133.03 27.55 133.03 27.55 128.73 31.78 C 125.04 35.39 123.82 36.00 120.21 36.00 C 116.00 36.00 116.00 36.00 116.00 27.91 C 116.00 21.33 116.37 19.34 118.00 17.27 C 120.38 14.24 120.51 12.67 118.51 11.01 C 116.51 9.35 96.15 3.94 95.55 4.92 C 95.29 5.34 95.57 7.45 96.18 9.59 C 96.79 11.74 97.34 18.45 97.39 24.50 C 97.50 35.50 97.50 35.50 89.25 35.79 C 81.00 36.08 81.00 36.08 81.00 28.71 C 81.00 22.16 81.27 21.09 83.49 19.01 C 86.12 16.54 85.72 14.99 81.93 12.96 C 79.90 11.87 60.74 6.92 60.30 7.37 C 60.13 7.54 60.44 8.99 60.99 10.59 C 62.19 14.07 64.00 34.12 63.23 35.40 C 62.92 35.92 55.58 36.02 45.89 35.64 C 29.09 34.98 29.09 34.98 33.25 41.02 C 36.36 45.51 37.81 46.86 38.96 46.30 C 39.81 45.88 45.56 45.39 51.75 45.21 C 63.00 44.88 63.00 44.88 63.00 50.94 C 63.00 58.00 62.87 57.95 74.48 55.16 C 81.46 53.48 81.46 53.48 81.15 49.24 C 80.85 45.00 80.85 45.00 89.42 45.00 C 98.00 45.00 98.00 45.00 98.00 53.33 C 98.00 61.67 98.00 61.67 104.03 60.84 C 107.35 60.39 111.40 59.33 113.03 58.48 Z  M 65.21 108.25 C 65.50 100.50 65.50 100.50 74.50 100.50 C 83.50 100.50 83.50 100.50 83.79 108.25 C 84.08 116.00 84.08 116.00 74.50 116.00 C 64.92 116.00 64.92 116.00 65.21 108.25 Z  M 162.66 88.40 C 154.88 84.45 151.98 82.49 152.38 81.45 C 152.68 80.66 156.13 74.61 160.04 68.01 C 167.14 56.00 167.14 56.00 177.57 56.00 C 185.43 56.00 188.00 56.32 188.00 57.29 C 188.00 62.71 176.08 94.12 174.08 93.95 C 173.76 93.92 168.62 91.42 162.66 88.40 Z "/>
</g>
</svg>