<?xml version="1.0" encoding="UTF-8" standalone="no"?>
<!DOCTYPE svg PUBLIC "-//W3C//DTD SVG 1.1//EN" "http://www.w3.org/Graphics/SVG/1.1/DTD/svg11.dtd" >
<svg xmlns="http://www.w3.org/2000/svg" xmlns:xlink="http://www.w3.org/1999/xlink" version="1.1" viewBox="0 0 256 256">
 <g >
 <path fill="currentColor"
d=" M 224.09 248.27 C 224.92 246.08 224.61 244.04 222.51 237.85 C 218.77 226.86 218.90 217.86 223.05 199.44 C 227.59 179.26 225.57 178.26 218.12 197.00 C 213.27 209.19 209.06 217.18 207.17 217.79 C 205.33 218.38 197.15 209.65 192.73 202.38 C 186.62 192.32 185.77 187.56 185.26 160.50 C 184.68 129.78 185.98 120.27 191.45 115.24 C 193.40 113.44 195.00 111.61 195.00 111.16 C 195.00 108.86 174.77 94.77 172.63 95.59 C 171.88 95.88 169.80 98.14 168.02 100.62 C 164.79 105.12 164.79 105.12 107.89 104.81 C 76.60 104.64 51.00 104.73 51.00 105.01 C 51.00 105.42 57.38 115.38 58.58 116.85 C 58.74 117.05 59.90 116.48 61.16 115.60 C 63.18 114.18 69.30 114.00 114.66 114.00 C 165.88 114.00 165.88 114.00 165.32 140.75 C 164.72 169.00 165.79 187.87 168.58 198.50 C 170.79 206.93 176.03 217.31 182.16 225.40 C 191.40 237.60 210.77 251.00 219.17 251.00 C 222.48 251.00 223.20 250.60 224.09 248.27 Z  M 40.78 241.84 C 46.71 237.88 55.10 231.06 59.55 226.59 C 75.50 210.55 80.18 195.92 82.57 154.64 C 83.23 143.26 83.38 142.64 86.34 139.27 C 89.42 135.76 89.42 135.76 87.20 133.96 C 83.78 131.19 64.35 124.31 63.20 125.46 C 62.98 125.69 63.31 130.52 63.95 136.19 C 65.32 148.38 64.03 175.05 61.47 187.57 C 57.14 208.75 50.19 222.59 35.58 239.11 C 29.20 246.33 27.58 249.00 29.59 249.00 C 29.85 249.00 34.89 245.78 40.78 241.84 Z  M 141.02 243.96 C 145.13 242.83 149.24 241.69 150.14 241.42 C 151.64 240.98 151.74 236.81 151.27 192.72 C 150.76 144.50 150.76 144.50 153.88 141.56 C 155.60 139.95 157.00 138.10 157.00 137.45 C 157.00 135.15 133.38 126.03 131.09 127.45 C 130.50 127.81 130.50 129.26 131.07 131.26 C 131.59 133.07 132.00 159.02 132.00 190.24 C 132.00 220.91 132.35 246.00 132.77 246.00 C 133.19 246.00 136.91 245.08 141.02 243.96 Z  M 104.00 243.06 C 105.92 242.55 109.41 241.63 111.75 241.03 C 116.00 239.92 116.00 239.92 116.00 192.14 C 116.00 144.35 116.00 144.35 118.50 142.00 C 123.55 137.25 121.91 135.64 106.19 129.93 C 94.83 125.81 93.54 126.11 96.14 132.27 C 97.22 134.82 97.50 144.28 97.50 177.50 C 97.50 200.60 97.11 225.01 96.64 231.75 C 95.78 244.00 95.78 244.00 98.14 243.99 C 99.44 243.99 102.08 243.57 104.00 243.06 Z  M 46.18 92.52 C 50.04 89.28 69.75 66.21 76.34 57.23 C 80.17 52.00 80.17 52.00 146.00 52.00 C 182.21 52.00 212.55 51.73 213.42 51.39 C 214.29 51.06 215.00 50.05 215.00 49.14 C 215.00 46.85 198.90 29.99 196.71 30.00 C 195.73 30.00 191.81 32.92 188.00 36.50 C 181.08 43.00 181.08 43.00 134.04 43.00 C 108.17 43.00 87.00 42.77 87.00 42.49 C 87.00 40.53 98.96 23.60 101.64 21.77 C 107.02 18.10 106.68 17.26 98.23 13.39 C 87.52 8.47 77.94 4.92 77.00 5.50 C 76.56 5.77 75.64 8.36 74.95 11.25 C 72.28 22.52 62.80 48.43 57.46 59.07 C 51.89 70.19 40.98 88.54 36.28 94.70 C 31.02 101.59 36.94 100.30 46.18 92.52 Z  M 82.44 82.47 C 84.10 81.22 92.79 81.00 141.22 81.00 C 193.81 81.00 198.11 80.87 198.72 79.30 C 199.20 78.04 197.19 75.57 190.97 69.80 C 186.35 65.51 181.94 62.00 181.17 62.00 C 180.40 62.00 177.04 64.53 173.71 67.61 C 167.64 73.22 167.64 73.22 119.46 72.85 C 71.27 72.48 71.27 72.48 75.33 78.24 C 77.57 81.41 79.64 83.99 79.95 83.97 C 80.25 83.95 81.37 83.28 82.44 82.47 Z "/>
</g>
</svg>