<?xml version="1.0" encoding="UTF-8" standalone="no"?>
<!DOCTYPE svg PUBLIC "-//W3C//DTD SVG 1.1//EN" "http://www.w3.org/Graphics/SVG/1.1/DTD/svg11.dtd" >
<svg xmlns="http://www.w3.org/2000/svg" xmlns:xlink="http://www.w3.org/1999/xlink" version="1.1" viewBox="0 0 256 256">
 <g >
 <path fill="currentColor"
d=" M 143.50 248.53 C 145.70 248.17 149.19 247.44 151.25 246.90 C 155.00 245.92 155.00 245.92 155.00 236.46 C 155.00 227.00 155.00 227.00 189.30 227.00 C 223.33 227.00 226.00 226.76 226.00 223.69 C 226.00 222.05 211.70 208.00 210.03 208.00 C 209.13 208.00 205.87 210.25 202.79 213.00 C 199.70 215.75 196.24 218.00 195.09 218.00 C 193.03 218.00 193.00 217.64 193.00 196.53 C 193.00 175.06 193.00 175.06 206.75 174.78 C 219.74 174.52 220.52 174.39 220.79 172.45 C 221.14 170.04 209.21 158.00 206.48 158.00 C 205.54 158.00 202.63 159.80 200.00 162.00 C 197.37 164.20 194.72 166.00 194.11 166.00 C 193.34 166.00 193.00 160.94 193.00 149.53 C 193.00 133.06 193.00 133.06 206.75 132.78 C 219.88 132.51 220.51 132.41 220.80 130.39 C 221.02 128.86 219.25 126.57 214.41 122.14 C 210.72 118.76 207.07 116.00 206.28 116.00 C 205.50 116.00 202.72 117.80 200.12 120.00 C 197.51 122.20 194.84 124.00 194.19 124.00 C 193.32 124.00 193.00 119.60 193.00 107.67 C 193.00 86.42 192.36 87.18 210.45 86.78 C 219.75 86.58 223.45 86.15 223.76 85.23 C 224.27 83.68 210.22 69.00 208.22 69.00 C 207.43 69.00 204.32 71.25 201.31 74.00 C 195.84 79.00 195.84 79.00 178.26 79.00 C 161.23 79.00 160.54 78.92 156.34 76.46 C 153.95 75.06 152.00 73.47 152.00 72.94 C 152.00 72.40 153.75 68.48 155.88 64.23 C 158.01 59.98 162.08 49.75 164.91 41.50 C 169.13 29.21 170.63 26.03 173.19 23.89 C 176.89 20.81 176.56 18.93 171.78 15.99 C 168.48 13.96 150.58 8.00 147.77 8.00 C 146.55 8.00 146.12 10.20 145.54 19.25 C 144.74 31.80 140.77 52.14 135.44 71.00 C 128.52 95.48 121.02 117.64 116.54 126.82 C 111.46 137.24 111.27 138.02 113.75 137.96 C 115.98 137.90 123.35 128.16 130.19 116.26 C 135.50 107.01 135.50 107.01 135.76 178.57 C 136.00 246.06 136.11 250.10 137.76 249.65 C 138.72 249.39 141.30 248.88 143.50 248.53 Z  M 63.69 228.57 C 67.04 224.68 66.80 215.58 62.87 198.29 C 59.78 184.68 59.75 184.33 60.83 171.85 C 62.90 148.07 67.89 119.15 76.85 79.00 C 79.64 66.50 79.64 66.50 81.46 71.25 C 83.26 75.96 84.31 76.93 85.50 75.00 C 85.84 74.45 90.39 74.00 95.69 74.00 C 105.26 74.00 105.26 74.00 104.59 79.02 C 104.23 81.78 102.37 90.66 100.48 98.77 C 98.58 106.87 97.02 113.95 97.01 114.50 C 97.01 115.05 94.33 110.78 91.07 105.00 C 84.82 93.94 79.66 87.04 78.50 88.18 C 78.12 88.55 79.69 94.18 81.99 100.68 C 84.29 107.18 87.43 117.41 88.97 123.41 C 91.77 134.33 91.77 134.33 89.45 142.91 C 86.70 153.14 77.47 180.08 72.63 192.00 C 69.38 200.03 68.93 202.78 71.09 201.45 C 73.10 200.20 82.80 184.89 89.66 172.11 C 96.85 158.72 96.85 158.72 97.85 162.61 C 98.40 164.75 99.57 172.35 100.46 179.50 C 101.34 186.65 102.49 194.10 103.01 196.06 C 105.41 204.99 115.15 207.19 119.16 199.70 C 120.96 196.34 121.76 186.85 120.90 179.13 C 119.93 170.51 118.60 166.09 111.81 148.88 C 106.84 136.26 106.84 136.26 111.93 120.52 C 114.73 111.87 118.40 99.33 120.08 92.65 C 122.69 82.26 123.63 79.99 126.56 76.96 C 128.45 75.01 130.00 72.74 130.00 71.90 C 130.00 70.16 114.46 58.00 112.23 58.00 C 111.41 58.00 108.93 59.64 106.71 61.64 C 102.68 65.28 102.68 65.28 92.17 64.64 C 86.39 64.29 81.45 63.79 81.20 63.53 C 80.94 63.27 81.44 59.20 82.31 54.47 C 83.82 46.23 83.73 43.00 81.98 43.00 C 80.87 43.00 73.10 67.02 58.05 117.00 C 50.11 143.35 42.52 165.88 41.10 167.30 C 40.58 167.82 37.54 168.53 34.34 168.87 C 27.01 169.66 26.42 171.53 32.36 175.12 C 35.39 176.95 37.40 179.20 39.06 182.62 C 41.18 186.97 41.51 189.41 42.09 205.00 C 42.77 222.95 43.40 226.31 46.64 229.12 C 49.47 231.58 51.06 231.98 56.44 231.60 C 60.31 231.33 61.88 230.68 63.69 228.57 Z  M 50.97 111.52 C 57.26 108.26 57.16 95.67 50.78 88.40 C 45.14 81.98 28.00 73.36 28.00 76.95 C 28.00 77.61 29.09 80.02 30.42 82.32 C 33.09 86.92 35.48 94.83 36.51 102.41 C 37.69 111.14 44.00 115.12 50.97 111.52 Z  M 195.97 67.52 C 199.90 65.09 201.86 54.20 199.46 48.19 C 196.88 41.75 177.61 25.06 175.36 27.31 C 175.01 27.65 175.69 30.17 176.86 32.90 C 178.56 36.85 179.00 39.89 179.01 47.69 C 179.01 53.08 179.46 59.11 180.00 61.07 C 181.09 65.00 184.39 68.57 187.50 69.21 C 189.51 69.62 194.03 68.72 195.97 67.52 Z  M 62.01 56.00 C 62.47 56.00 64.22 54.85 65.89 53.44 C 71.86 48.41 70.83 38.41 63.64 31.50 C 59.32 27.36 42.67 18.48 37.15 17.38 C 33.34 16.62 32.84 18.64 36.11 21.60 C 39.20 24.39 42.64 31.71 45.52 41.66 C 46.92 46.49 49.04 51.47 50.23 52.74 C 52.50 55.16 57.58 57.10 59.83 56.41 C 60.56 56.18 61.54 56.00 62.01 56.00 Z  M 155.00 196.50 C 155.00 175.00 155.00 175.00 165.00 175.00 C 175.00 175.00 175.00 175.00 175.00 196.50 C 175.00 218.00 175.00 218.00 165.00 218.00 C 155.00 218.00 155.00 218.00 155.00 196.50 Z  M 155.23 149.75 C 155.50 133.50 155.50 133.50 165.25 133.21 C 175.00 132.93 175.00 132.93 175.00 149.46 C 175.00 166.00 175.00 166.00 164.98 166.00 C 154.95 166.00 154.95 166.00 155.23 149.75 Z  M 155.00 107.06 C 155.00 86.67 154.80 87.00 167.22 87.00 C 175.00 87.00 175.00 87.00 175.00 105.50 C 175.00 124.00 175.00 124.00 165.00 124.00 C 155.00 124.00 155.00 124.00 155.00 107.06 Z "/>
</g>
</svg>