<?xml version="1.0" encoding="UTF-8" standalone="no"?>
<!DOCTYPE svg PUBLIC "-//W3C//DTD SVG 1.1//EN" "http://www.w3.org/Graphics/SVG/1.1/DTD/svg11.dtd" >
<svg xmlns="http://www.w3.org/2000/svg" xmlns:xlink="http://www.w3.org/1999/xlink" version="1.1" viewBox="0 0 256 256">
 <g >
 <path fill="currentColor"
d=" M 111.54 237.07 C 129.28 226.08 147.61 208.65 158.67 192.26 C 164.84 183.12 164.84 183.12 165.17 205.31 C 165.54 229.89 166.13 232.47 172.07 235.54 C 176.24 237.69 189.95 238.49 199.00 237.09 C 207.49 235.79 216.12 232.03 218.21 228.72 C 219.81 226.18 224.15 215.81 223.76 215.45 C 223.62 215.32 221.80 214.50 219.71 213.64 C 214.80 211.60 213.43 208.19 212.52 195.75 C 211.99 188.37 211.47 186.00 210.41 186.00 C 209.63 186.00 209.00 186.73 209.00 187.61 C 209.00 189.35 204.52 208.45 202.90 213.65 C 202.26 215.70 200.88 217.22 198.94 218.02 C 194.96 219.67 187.01 218.73 185.31 216.41 C 184.32 215.05 184.00 208.90 184.00 191.00 C 184.00 167.37 184.00 167.37 187.04 164.46 C 191.33 160.36 190.60 158.28 183.59 154.60 C 180.34 152.90 177.71 151.16 177.75 150.74 C 178.64 141.62 177.63 142.06 198.33 141.77 C 221.95 141.44 221.99 141.40 210.70 129.54 C 202.22 120.65 201.92 120.63 195.33 128.52 C 191.82 132.71 191.26 133.00 186.66 133.00 C 181.75 133.00 181.75 133.00 182.44 129.75 C 184.01 122.42 187.97 87.20 188.00 80.41 C 188.00 79.81 189.12 78.81 190.50 78.18 C 194.08 76.55 193.60 74.45 188.85 71.01 C 184.70 68.00 184.70 68.00 197.60 67.99 C 211.89 67.97 215.00 67.48 215.00 65.27 C 215.00 64.44 212.25 60.67 208.90 56.88 C 201.25 48.26 199.68 48.08 193.21 55.12 C 188.50 60.23 188.50 60.23 167.50 59.62 C 155.95 59.29 144.51 58.73 142.09 58.39 C 137.67 57.76 137.67 57.76 140.95 63.63 C 145.28 71.39 145.60 71.67 147.85 69.64 C 149.40 68.23 151.36 67.97 158.62 68.21 C 167.50 68.50 167.50 68.50 167.83 74.00 C 168.28 81.62 165.25 116.94 163.39 125.75 C 161.86 133.00 161.86 133.00 156.93 133.00 C 151.00 133.00 151.21 134.59 154.16 112.17 C 156.04 97.93 156.63 95.46 158.66 93.43 C 161.29 90.80 161.63 88.76 159.69 87.15 C 156.78 84.75 138.00 81.70 138.00 83.63 C 138.00 83.98 138.51 85.98 139.14 88.07 C 140.71 93.32 136.58 127.48 134.00 130.50 C 131.84 133.04 131.00 135.42 131.84 136.62 C 133.38 138.80 143.52 146.09 145.83 146.67 C 147.77 147.16 148.86 146.70 150.62 144.65 C 152.31 142.69 153.85 142.00 156.53 142.00 C 160.10 142.00 160.15 142.05 159.45 145.25 C 157.99 151.97 151.70 168.64 147.32 177.41 C 135.49 201.09 122.72 219.37 108.99 232.30 C 104.04 236.95 100.00 241.04 100.00 241.38 C 100.00 243.13 104.41 241.49 111.54 237.07 Z  M 38.10 230.50 C 47.96 219.22 56.04 204.04 61.81 185.96 C 67.72 167.46 68.02 163.85 69.11 98.00 C 70.00 43.84 70.27 37.37 71.74 36.25 C 73.02 35.28 89.16 35.00 144.57 35.00 C 203.27 35.00 215.95 34.76 216.88 33.64 C 217.74 32.60 217.39 31.38 215.36 28.39 C 211.54 22.75 203.95 14.04 201.90 12.95 C 199.24 11.52 197.73 12.54 192.11 19.56 C 186.94 26.00 186.94 26.00 131.67 26.00 C 76.40 26.00 76.40 26.00 68.28 22.02 C 58.31 17.13 47.64 13.54 45.50 14.36 C 44.19 14.86 44.12 15.36 45.09 17.17 C 48.60 23.73 48.93 29.72 48.95 87.50 C 48.97 158.88 47.67 180.32 41.92 203.18 C 39.40 213.21 34.50 227.05 31.90 231.44 C 29.99 234.68 30.06 237.51 32.02 236.80 C 32.48 236.64 35.22 233.80 38.10 230.50 Z  M 97.41 217.22 C 101.01 211.31 107.00 202.68 110.71 198.04 C 117.46 189.60 117.46 189.60 118.52 193.36 C 119.74 197.71 121.32 198.98 125.50 198.95 C 133.74 198.91 137.70 187.55 133.05 177.30 C 130.93 172.63 122.50 165.81 112.78 160.89 C 103.97 156.44 102.97 157.19 107.97 164.46 C 110.93 168.75 115.01 177.98 114.98 180.29 C 114.97 181.40 98.28 193.00 96.70 193.00 C 96.31 193.00 96.00 181.28 96.00 166.96 C 96.00 140.92 96.00 140.92 103.75 141.21 C 111.50 141.50 111.50 141.50 111.81 145.75 C 111.98 148.09 112.36 150.00 112.67 150.00 C 112.97 150.00 116.99 149.01 121.61 147.80 C 130.00 145.60 130.00 145.60 130.00 106.97 C 130.00 68.35 130.00 68.35 132.50 66.00 C 133.88 64.71 135.00 62.88 135.00 61.93 C 135.00 60.35 121.43 49.00 119.53 49.00 C 119.08 49.00 116.54 51.02 113.90 53.50 C 107.99 59.02 104.80 59.29 95.17 55.09 C 87.35 51.67 77.09 48.57 76.29 49.38 C 75.98 49.69 76.35 52.09 77.11 54.72 C 78.24 58.59 78.50 72.46 78.50 127.50 C 78.50 195.50 78.50 195.50 76.29 199.92 C 75.08 202.34 74.36 204.82 74.69 205.42 C 79.67 214.31 89.35 228.90 90.01 228.50 C 90.47 228.21 93.81 223.13 97.41 217.22 Z  M 96.00 117.46 C 96.00 101.92 96.00 101.92 103.75 102.21 C 111.50 102.50 111.50 102.50 111.78 117.75 C 112.05 133.00 112.05 133.00 104.03 133.00 C 96.00 133.00 96.00 133.00 96.00 117.46 Z  M 96.00 81.70 C 96.00 73.47 96.40 69.00 97.20 68.20 C 97.90 67.50 101.24 67.00 105.20 67.00 C 112.00 67.00 112.00 67.00 112.00 80.50 C 112.00 94.00 112.00 94.00 104.00 94.00 C 96.00 94.00 96.00 94.00 96.00 81.70 Z "/>
</g>
</svg>