<?xml version="1.0" encoding="UTF-8" standalone="no"?>
<!DOCTYPE svg PUBLIC "-//W3C//DTD SVG 1.1//EN" "http://www.w3.org/Graphics/SVG/1.1/DTD/svg11.dtd" >
<svg xmlns="http://www.w3.org/2000/svg" xmlns:xlink="http://www.w3.org/1999/xlink" version="1.1" viewBox="0 0 267 256">
 <g >
 <path fill="currentColor"
d=" M 129.78 247.45 C 134.47 245.49 138.64 241.56 141.09 236.79 C 142.87 233.33 143.00 230.52 143.00 195.51 C 143.00 166.34 143.28 157.84 144.25 157.52 C 144.94 157.29 161.23 156.44 180.45 155.62 C 217.02 154.07 217.57 154.11 221.25 158.31 C 222.84 160.12 223.00 163.27 223.00 192.54 C 223.00 224.78 223.00 224.78 220.47 225.42 C 215.09 226.77 212.23 236.67 215.43 242.85 C 218.09 248.00 226.15 249.52 234.03 246.37 C 238.67 244.51 244.42 237.70 246.07 232.10 C 246.76 229.76 247.02 215.71 246.81 192.00 C 246.51 156.96 246.41 155.31 244.32 150.78 C 241.62 144.93 233.81 136.45 228.74 133.87 C 221.84 130.34 217.03 130.14 178.78 131.75 C 141.89 133.30 141.89 133.30 138.20 129.76 C 128.91 120.87 117.03 120.00 108.19 127.57 C 100.84 133.86 100.90 133.40 101.22 187.16 C 101.50 234.83 101.50 234.83 104.51 239.16 C 108.10 244.35 116.47 249.00 122.21 249.00 C 124.33 249.00 127.74 248.30 129.78 247.45 Z  M 190.70 244.90 C 193.59 243.51 195.86 241.39 197.51 238.57 C 199.86 234.57 200.00 233.48 200.00 219.66 C 200.00 205.00 200.00 205.00 203.55 205.00 C 211.52 205.00 216.63 199.26 215.73 191.29 C 215.21 186.65 212.91 183.31 209.31 181.93 C 207.36 181.19 207.22 180.72 208.06 177.80 C 210.46 169.43 207.36 164.00 200.18 164.00 C 194.81 164.00 191.62 166.81 188.83 174.01 C 187.36 177.80 185.93 180.00 184.94 180.00 C 184.00 180.00 182.21 177.57 180.50 174.00 C 176.05 164.70 171.90 161.89 165.65 163.95 C 163.82 164.55 161.05 166.38 159.49 168.01 C 157.09 170.52 156.68 171.74 156.77 176.08 C 156.87 180.37 156.49 181.54 154.39 183.34 C 151.36 185.96 149.86 191.89 151.09 196.37 C 152.42 201.17 156.09 204.14 161.44 204.75 C 166.00 205.26 166.00 205.26 166.04 218.38 C 166.10 236.38 167.99 241.21 176.50 245.12 C 181.73 247.52 185.40 247.47 190.70 244.90 Z  M 56.71 194.98 C 85.00 185.18 88.86 183.58 91.75 180.50 C 94.19 177.90 95.00 176.12 95.00 173.38 C 95.00 168.52 91.81 163.61 87.25 161.45 C 83.83 159.83 83.19 159.81 79.27 161.22 C 75.00 162.75 75.00 162.75 75.00 139.35 C 75.00 115.96 75.00 115.96 81.59 116.23 C 87.70 116.48 88.34 116.30 90.55 113.74 C 96.96 106.29 95.78 98.01 87.76 94.13 C 85.34 92.96 81.52 92.00 79.26 92.00 C 75.15 92.00 75.15 92.00 74.82 66.25 C 74.47 37.89 74.40 37.53 67.84 31.36 C 62.33 26.18 58.50 24.74 51.46 25.18 C 43.98 25.66 38.43 28.89 34.26 35.18 C 31.50 39.35 31.50 39.35 31.20 63.54 C 30.90 87.73 30.90 87.73 24.93 88.35 C 14.38 89.45 11.00 92.67 11.00 101.62 C 11.00 105.27 11.56 106.71 13.85 109.00 C 16.24 111.40 17.83 111.96 23.85 112.55 C 31.00 113.26 31.00 113.26 31.00 145.63 C 31.00 163.43 31.11 178.30 31.25 178.66 C 31.39 179.02 28.35 180.37 24.50 181.65 C 13.37 185.36 9.55 191.36 13.48 198.96 C 15.42 202.71 19.68 206.00 22.59 206.00 C 23.87 206.00 39.22 201.04 56.71 194.98 Z  M 141.61 116.36 C 145.50 113.72 145.50 113.72 179.85 113.92 C 219.36 114.16 221.20 113.87 228.69 106.22 C 235.44 99.32 237.24 93.08 236.84 78.00 C 236.52 66.18 236.33 65.20 233.40 60.00 C 229.86 53.71 222.47 47.53 216.50 45.85 C 213.60 45.04 203.32 44.99 179.00 45.66 C 145.50 46.60 145.50 46.60 141.29 43.63 C 133.64 38.25 122.55 38.94 115.36 45.26 C 108.37 51.40 108.00 53.11 108.00 79.50 C 108.00 105.74 108.29 107.11 115.16 113.69 C 119.65 117.99 122.23 118.86 130.61 118.94 C 136.71 118.99 138.28 118.62 141.61 116.36 Z  M 245.05 32.25 C 249.03 28.69 249.98 22.88 247.46 17.56 C 244.16 10.61 248.59 11.03 171.23 10.32 C 101.17 9.67 101.17 9.67 98.09 12.76 C 95.59 15.26 95.00 16.67 95.00 20.17 C 95.01 25.03 97.66 30.17 101.20 32.19 C 102.98 33.21 115.24 33.62 156.00 34.02 C 184.88 34.30 216.03 34.64 225.23 34.77 C 241.97 35.00 241.97 35.00 245.05 32.25 Z  M 166.00 89.04 C 151.50 88.50 151.50 88.50 151.21 79.84 C 150.92 71.18 150.92 71.18 153.71 70.63 C 155.25 70.34 168.33 69.79 182.78 69.42 C 214.39 68.61 213.00 68.13 213.00 79.79 C 213.00 85.75 212.64 87.55 211.25 88.61 C 209.40 90.01 195.54 90.15 166.00 89.04 Z "/>
</g>
</svg>