<?xml version="1.0" encoding="UTF-8" standalone="no"?>
<!DOCTYPE svg PUBLIC "-//W3C//DTD SVG 1.1//EN" "http://www.w3.org/Graphics/SVG/1.1/DTD/svg11.dtd" >
<svg xmlns="http://www.w3.org/2000/svg" xmlns:xlink="http://www.w3.org/1999/xlink" version="1.1" viewBox="0 0 276 256">
 <g >
 <path fill="currentColor"
d=" M 227.32 245.93 C 232.20 244.57 238.79 238.64 241.13 233.50 C 242.71 230.05 242.96 226.66 242.98 208.78 C 243.00 188.05 243.00 188.05 245.75 186.61 C 249.78 184.50 254.87 179.17 257.19 174.63 C 261.58 166.03 257.27 153.57 247.90 147.74 C 243.00 144.70 243.00 144.70 243.00 86.96 C 243.00 29.23 243.00 29.23 240.21 23.88 C 236.36 16.52 230.86 12.76 223.11 12.20 C 213.12 11.48 206.04 15.18 201.76 23.38 C 200.05 26.64 199.51 29.73 199.19 38.25 C 198.96 44.16 198.63 49.00 198.45 49.00 C 198.26 49.00 193.72 46.43 188.35 43.28 C 179.89 38.33 177.78 37.52 172.54 37.23 C 165.28 36.82 161.09 38.69 156.57 44.34 C 153.79 47.83 153.50 48.85 153.50 55.34 C 153.50 65.89 155.21 68.08 171.30 78.20 C 184.50 86.50 184.50 86.50 191.75 86.50 C 199.00 86.50 199.00 86.50 199.00 116.70 C 199.00 146.91 199.00 146.91 195.75 147.41 C 193.96 147.68 183.72 148.53 173.00 149.29 C 152.74 150.73 149.47 151.53 144.15 156.37 C 137.49 162.42 135.39 175.04 139.84 182.25 C 143.22 187.71 149.41 192.80 153.65 193.59 C 157.12 194.24 186.45 192.63 195.25 191.31 C 199.00 190.74 199.00 190.74 199.00 208.43 C 199.00 229.50 199.82 233.52 205.38 239.60 C 211.41 246.20 218.74 248.31 227.32 245.93 Z  M 51.51 243.14 C 56.55 240.84 61.57 235.19 62.94 230.28 C 63.52 228.20 63.99 220.09 63.99 212.25 C 64.00 198.00 64.00 198.00 69.50 198.00 C 75.00 198.00 75.00 198.00 75.00 215.48 C 75.00 232.97 75.00 232.97 77.75 236.02 C 81.57 240.25 86.40 240.90 91.00 237.80 C 96.01 234.41 96.88 230.81 96.94 213.25 C 97.00 198.00 97.00 198.00 103.00 198.00 C 109.00 198.00 109.00 198.00 109.00 209.62 C 109.00 221.10 108.97 221.28 106.00 224.65 C 98.87 232.77 104.57 245.00 115.47 245.00 C 118.28 245.00 120.03 244.09 123.67 240.75 C 132.38 232.76 131.95 236.41 131.97 169.50 C 131.98 110.50 131.98 110.50 129.65 105.50 C 127.53 100.96 122.07 95.07 117.60 92.50 C 116.00 91.58 116.12 90.95 119.17 84.50 C 121.80 78.91 122.54 75.94 122.84 69.77 C 123.19 62.43 123.03 61.71 119.51 55.27 C 114.63 46.33 111.70 43.33 104.50 39.88 C 99.04 37.26 97.53 37.00 87.75 37.00 C 77.00 37.00 77.00 37.00 77.00 33.74 C 77.00 21.50 67.74 12.00 55.81 12.00 C 51.52 12.00 49.42 12.62 45.72 14.97 C 41.52 17.63 40.46 19.14 35.39 29.72 C 32.28 36.20 28.28 43.13 26.49 45.12 C 20.52 51.77 19.57 60.32 23.87 68.75 C 28.95 78.70 41.62 82.34 51.32 76.66 C 55.63 74.13 65.00 64.70 65.00 62.89 C 65.00 62.40 71.72 62.00 79.93 62.00 C 92.16 62.00 95.14 62.28 96.43 63.57 C 99.53 66.68 99.25 69.34 94.81 78.55 C 90.50 87.50 90.50 87.50 74.22 87.77 C 58.38 88.04 57.83 87.98 53.63 85.52 C 50.33 83.59 47.93 83.00 43.36 83.00 C 35.19 83.00 29.35 86.65 25.65 94.08 C 23.00 99.39 23.00 99.39 23.00 164.23 C 23.00 234.62 22.85 232.63 28.61 238.39 C 34.92 244.71 43.94 246.57 51.51 243.14 Z  M 190.47 132.90 C 193.56 130.18 194.00 129.22 194.00 125.15 C 193.99 116.93 192.13 115.19 173.13 105.59 C 153.74 95.80 150.41 95.10 144.94 99.70 C 140.51 103.43 138.82 107.77 140.06 112.26 C 140.60 114.20 141.61 116.26 142.32 116.85 C 143.02 117.43 151.45 121.97 161.05 126.94 C 181.41 137.46 184.54 138.10 190.47 132.90 Z  M 64.00 165.50 C 64.00 157.00 64.00 157.00 69.50 157.00 C 75.00 157.00 75.00 157.00 75.00 165.50 C 75.00 174.00 75.00 174.00 69.50 174.00 C 64.00 174.00 64.00 174.00 64.00 165.50 Z  M 97.00 165.45 C 97.00 156.90 97.00 156.90 102.75 157.20 C 108.50 157.50 108.50 157.50 108.79 165.75 C 109.08 174.00 109.08 174.00 103.04 174.00 C 97.00 174.00 97.00 174.00 97.00 165.45 Z  M 64.00 121.95 C 64.00 110.90 64.00 110.90 69.25 111.20 C 74.50 111.50 74.50 111.50 74.78 122.25 C 75.07 133.00 75.07 133.00 69.53 133.00 C 64.00 133.00 64.00 133.00 64.00 121.95 Z  M 97.00 122.00 C 97.00 109.82 97.06 109.73 103.78 112.07 C 107.66 113.43 109.00 117.04 109.00 126.15 C 109.00 133.00 109.00 133.00 103.00 133.00 C 97.00 133.00 97.00 133.00 97.00 122.00 Z "/>
</g>
</svg>