<?xml version="1.0" encoding="UTF-8" standalone="no"?>
<!DOCTYPE svg PUBLIC "-//W3C//DTD SVG 1.1//EN" "http://www.w3.org/Graphics/SVG/1.1/DTD/svg11.dtd" >
<svg xmlns="http://www.w3.org/2000/svg" xmlns:xlink="http://www.w3.org/1999/xlink" version="1.1" viewBox="0 0 268 256">
 <g >
 <path fill="currentColor"
d=" M 112.67 244.48 C 116.82 242.41 123.11 236.03 147.62 208.99 C 189.39 162.92 186.42 169.77 186.79 118.48 C 187.08 78.19 187.08 78.19 210.29 77.84 C 232.88 77.51 233.62 77.43 237.95 75.00 C 253.72 66.15 253.76 44.61 238.01 36.29 C 233.86 34.09 232.74 34.00 210.47 34.00 C 187.25 34.00 187.25 34.00 186.80 28.56 C 185.19 9.22 159.79 1.89 148.74 17.58 C 147.09 19.91 145.50 24.04 144.81 27.75 C 143.65 34.00 143.65 34.00 121.29 34.00 C 96.97 34.00 94.31 34.47 88.62 39.80 C 82.17 45.85 80.05 57.27 83.97 64.93 C 86.85 70.58 93.30 75.68 99.16 76.94 C 101.88 77.52 113.08 78.00 124.05 78.00 C 144.00 78.00 144.00 78.00 144.00 113.41 C 144.00 148.81 144.00 148.81 113.96 181.94 C 97.44 200.16 83.49 216.21 82.96 217.60 C 81.44 221.60 81.83 230.84 83.69 234.75 C 88.88 245.70 101.63 249.98 112.67 244.48 Z  M 244.85 244.47 C 248.19 241.66 249.50 237.49 248.58 232.60 C 248.16 230.35 241.80 221.84 227.91 204.92 C 204.35 176.25 201.61 173.29 197.84 172.47 C 193.84 171.59 188.50 173.61 185.53 177.14 C 182.47 180.78 182.12 187.18 184.76 191.07 C 188.05 195.93 228.14 242.96 230.70 244.98 C 234.46 247.94 241.01 247.70 244.85 244.47 Z  M 64.38 231.83 C 73.41 224.39 75.76 214.15 70.69 204.29 C 68.01 199.09 68.01 199.09 72.43 196.05 C 78.57 191.83 81.00 188.43 80.99 184.12 C 80.97 179.31 79.19 176.04 75.09 173.28 C 70.72 170.33 66.18 170.39 61.69 173.44 C 58.29 175.75 58.06 175.78 57.50 174.00 C 56.58 171.09 50.46 166.22 46.28 165.06 C 41.59 163.76 34.92 163.70 31.68 164.93 C 24.68 167.59 18.07 176.91 18.02 184.17 C 17.99 188.70 30.04 222.00 33.51 227.02 C 38.15 233.70 48.99 237.69 57.13 235.70 C 59.13 235.22 62.40 233.47 64.38 231.83 Z  M 59.25 156.57 C 70.24 152.65 76.33 141.87 73.83 130.74 C 72.95 126.83 60.31 106.27 55.64 101.15 C 52.56 97.78 46.60 94.98 41.10 94.33 C 26.16 92.56 12.72 111.00 19.47 124.00 C 21.80 128.48 34.49 146.62 37.90 150.34 C 41.66 154.44 48.54 157.77 53.50 157.87 C 54.60 157.89 57.19 157.31 59.25 156.57 Z  M 103.62 152.38 C 107.81 150.39 110.19 147.12 112.44 140.25 C 113.39 137.36 114.33 135.00 114.53 135.00 C 114.74 135.00 116.94 138.15 119.43 142.00 C 124.04 149.13 124.85 149.62 131.00 149.10 C 132.38 148.98 134.61 147.78 135.98 146.44 C 140.31 142.17 139.39 138.29 130.50 123.13 C 122.65 109.75 122.65 109.75 124.00 105.13 C 127.37 93.54 125.37 85.77 118.02 81.85 C 110.76 77.99 100.59 80.96 97.01 87.99 C 94.40 93.11 81.00 135.19 81.00 138.26 C 81.00 149.57 93.32 157.26 103.62 152.38 Z  M 218.79 150.29 C 222.15 147.57 223.14 145.76 226.59 136.03 C 226.92 135.10 228.41 136.87 230.67 140.88 C 235.21 148.95 238.84 150.85 245.00 148.38 C 253.53 144.97 253.19 140.66 243.00 123.13 C 235.01 109.36 235.01 109.36 237.11 103.15 C 238.54 98.91 239.00 95.81 238.56 93.44 C 237.81 89.49 233.08 83.61 228.90 81.45 C 223.09 78.44 215.31 80.25 211.12 85.57 C 208.08 89.44 193.71 133.54 193.77 138.82 C 193.92 151.57 208.78 158.38 218.79 150.29 Z  M 66.18 82.24 C 69.94 79.64 71.28 77.87 73.02 73.25 C 76.62 63.67 75.78 60.49 65.41 44.44 C 55.57 29.21 51.94 25.80 43.57 23.93 C 32.03 21.35 21.72 28.44 18.14 41.43 C 16.39 47.80 18.25 52.33 28.83 67.56 C 40.56 84.43 43.22 86.32 54.50 85.80 C 60.46 85.52 62.19 84.99 66.18 82.24 Z "/>
</g>
</svg>