<?xml version="1.0" encoding="UTF-8" standalone="no"?>
<!DOCTYPE svg PUBLIC "-//W3C//DTD SVG 1.1//EN" "http://www.w3.org/Graphics/SVG/1.1/DTD/svg11.dtd" >
<svg xmlns="http://www.w3.org/2000/svg" xmlns:xlink="http://www.w3.org/1999/xlink" version="1.1" viewBox="0 0 273 256">
 <g >
 <path fill="currentColor"
d=" M 127.27 245.92 C 128.64 245.30 132.11 240.68 135.57 234.88 C 142.10 223.91 141.20 224.21 146.17 231.29 C 147.09 232.60 151.76 235.66 156.55 238.08 C 165.26 242.50 165.26 242.50 206.56 242.81 C 242.63 243.08 248.25 242.92 250.92 241.54 C 258.07 237.85 258.91 228.05 252.58 222.25 C 249.03 219.00 249.03 219.00 210.76 218.99 C 186.26 218.99 171.09 218.60 168.58 217.90 C 166.42 217.30 163.38 215.54 161.83 213.98 C 159.00 211.15 159.00 211.15 159.00 160.04 C 159.00 119.16 158.73 108.28 157.64 105.67 C 156.89 103.88 154.07 100.47 151.39 98.11 C 146.57 93.87 146.41 93.81 140.26 94.20 C 134.93 94.54 133.54 95.05 130.76 97.70 C 128.60 99.75 126.00 101.04 123.05 101.52 C 120.18 101.99 117.61 103.24 115.80 105.04 C 113.41 107.44 113.00 108.65 113.00 113.39 C 113.00 118.14 113.43 119.43 116.05 122.40 C 117.72 124.31 120.09 126.01 121.30 126.19 C 123.50 126.50 123.50 126.50 123.76 169.46 C 124.02 212.42 124.02 212.42 118.39 220.88 C 114.92 226.10 112.57 230.79 112.25 233.15 C 111.01 242.45 119.34 249.54 127.27 245.92 Z  M 70.27 234.65 C 99.35 229.99 100.08 229.74 105.27 222.39 C 108.80 217.41 109.53 212.86 107.99 205.41 C 106.97 200.50 105.98 198.71 102.10 194.82 C 99.53 192.25 96.16 189.83 94.60 189.44 C 90.44 188.39 38.41 195.76 34.00 198.01 C 24.79 202.72 20.80 213.54 24.01 225.09 C 25.95 232.08 34.19 239.01 40.50 238.96 C 42.15 238.95 55.55 237.01 70.27 234.65 Z  M 221.68 211.93 C 228.57 209.32 232.94 201.90 232.98 192.75 C 233.00 187.00 233.00 187.00 238.53 187.00 C 245.34 187.00 249.79 185.23 253.21 181.16 C 258.84 174.48 259.37 165.18 254.55 157.90 C 251.23 152.87 245.39 150.05 238.25 150.02 C 233.00 150.00 233.00 150.00 233.00 142.50 C 233.00 135.00 233.00 135.00 239.98 135.00 C 246.21 135.00 247.31 134.70 250.08 132.22 C 252.45 130.10 253.31 128.37 253.66 124.97 C 254.58 116.10 248.31 110.00 238.27 110.00 C 233.00 110.00 233.00 110.00 233.00 101.47 C 233.00 85.96 226.96 78.00 215.20 78.00 C 209.00 78.00 204.41 80.93 201.04 87.04 C 199.05 90.64 198.49 93.29 198.17 100.75 C 197.77 109.76 197.70 110.00 195.34 110.00 C 194.00 110.00 191.87 108.96 190.60 107.69 C 186.87 103.96 186.63 99.40 189.46 86.00 C 190.86 79.38 192.00 73.78 192.00 73.55 C 192.00 73.31 203.59 72.98 217.75 72.81 C 242.61 72.51 243.63 72.42 247.20 70.20 C 253.13 66.51 255.50 61.75 255.50 53.50 C 255.50 47.85 255.04 45.75 253.10 42.65 C 248.52 35.27 247.43 35.01 221.64 35.00 C 200.29 35.00 198.83 34.89 199.46 33.25 C 199.83 32.29 200.39 27.90 200.70 23.50 C 201.25 15.63 201.21 15.44 198.23 12.25 C 194.16 7.89 188.49 7.70 183.97 11.75 C 181.27 14.17 180.69 15.70 179.14 24.49 C 177.39 34.48 177.39 34.48 173.94 35.06 C 169.32 35.83 166.45 37.77 163.38 42.19 C 157.59 50.52 158.33 60.33 165.28 67.28 C 169.24 71.24 169.24 71.24 167.13 85.37 C 164.71 101.52 165.19 107.79 169.52 116.64 C 174.27 126.34 186.37 135.00 195.18 135.00 C 198.00 135.00 198.00 135.00 198.00 142.50 C 198.00 150.00 198.00 150.00 188.21 150.00 C 176.91 150.00 171.07 152.16 167.39 157.70 C 161.41 166.72 164.97 180.91 174.34 185.36 C 176.84 186.54 180.61 187.00 187.90 187.00 C 198.00 187.00 198.00 187.00 198.00 192.03 C 198.00 206.21 210.05 216.34 221.68 211.93 Z  M 44.40 186.50 C 48.03 184.04 48.39 184.00 68.35 184.00 C 88.61 184.00 88.61 184.00 93.05 181.13 C 99.36 177.05 104.54 171.31 107.14 165.50 C 109.19 160.93 109.42 158.63 109.80 138.50 C 110.05 124.92 109.79 114.25 109.11 110.61 C 107.73 103.18 104.23 95.47 100.11 90.77 C 96.92 87.14 96.92 87.14 99.48 81.05 C 102.91 72.89 103.47 67.69 101.65 60.82 C 99.72 53.51 98.56 51.34 94.13 46.67 C 88.60 40.83 86.31 40.00 75.69 40.00 C 66.27 40.00 66.27 40.00 65.76 33.54 C 64.90 22.93 58.90 15.13 50.26 13.40 C 46.11 12.57 38.92 15.91 35.77 20.13 C 31.82 25.41 20.99 47.27 20.35 51.25 C 19.46 56.72 21.70 64.29 25.54 68.77 C 29.85 73.81 33.67 75.38 40.07 74.77 C 44.06 74.38 45.83 73.59 48.55 70.95 C 50.44 69.12 52.24 66.81 52.56 65.81 C 53.08 64.17 54.52 64.00 67.60 64.00 C 79.57 64.00 82.16 64.26 82.64 65.51 C 82.96 66.34 81.93 70.73 80.36 75.26 C 77.50 83.50 77.50 83.50 63.18 83.78 C 48.86 84.06 48.86 84.06 45.04 81.03 C 37.58 75.12 28.78 77.86 24.39 87.46 C 21.92 92.86 21.92 92.86 22.21 135.25 C 22.50 177.65 22.50 177.65 25.31 181.90 C 30.06 189.07 37.85 190.95 44.40 186.50 Z  M 146.62 77.94 C 152.34 75.17 156.00 68.10 156.00 59.84 C 156.00 54.82 155.17 52.33 149.67 40.74 C 142.94 26.58 140.57 23.77 133.85 21.96 C 126.10 19.87 118.64 23.94 114.43 32.55 C 110.92 39.72 111.35 43.23 117.54 58.00 C 123.33 71.82 125.57 75.08 131.20 77.87 C 136.61 80.55 141.19 80.57 146.62 77.94 Z  M 53.00 152.00 C 53.00 145.00 53.00 145.00 56.50 145.00 C 60.00 145.00 60.00 145.00 60.00 152.00 C 60.00 159.00 60.00 159.00 56.50 159.00 C 53.00 159.00 53.00 159.00 53.00 152.00 Z  M 80.00 151.95 C 80.00 144.89 80.00 144.89 84.75 145.20 C 89.50 145.50 89.50 145.50 89.80 149.55 C 90.19 154.83 87.15 159.00 82.93 159.00 C 80.00 159.00 80.00 159.00 80.00 151.95 Z  M 53.00 113.94 C 53.00 106.87 53.00 106.87 56.25 107.19 C 59.50 107.50 59.50 107.50 59.80 114.25 C 60.09 121.00 60.09 121.00 56.55 121.00 C 53.00 121.00 53.00 121.00 53.00 113.94 Z  M 80.00 113.88 C 80.00 106.75 80.00 106.75 83.24 107.40 C 87.82 108.31 89.21 110.13 89.77 115.93 C 90.25 121.00 90.25 121.00 85.13 121.00 C 80.00 121.00 80.00 121.00 80.00 113.88 Z "/>
</g>
</svg>