<?xml version="1.0" encoding="UTF-8" standalone="no"?>
<!DOCTYPE svg PUBLIC "-//W3C//DTD SVG 1.1//EN" "http://www.w3.org/Graphics/SVG/1.1/DTD/svg11.dtd" >
<svg xmlns="http://www.w3.org/2000/svg" xmlns:xlink="http://www.w3.org/1999/xlink" version="1.1" viewBox="0 0 262 256">
 <g >
 <path fill="currentColor"
d=" M 112.60 246.61 C 115.87 245.08 118.46 242.99 119.85 240.75 C 124.07 233.91 121.73 222.79 115.05 218.04 C 112.00 215.86 103.57 214.02 96.65 214.01 C 84.37 213.99 76.35 226.93 81.90 237.81 C 84.54 242.98 87.52 244.98 95.92 247.17 C 104.70 249.46 106.61 249.40 112.60 246.61 Z  M 168.06 245.58 C 172.59 242.58 175.00 237.64 175.00 231.33 C 175.00 220.65 168.84 215.46 154.88 214.39 C 148.13 213.87 145.78 214.06 143.32 215.33 C 134.05 220.13 130.37 233.12 136.20 240.53 C 138.72 243.73 142.50 245.67 149.74 247.49 C 157.02 249.32 163.42 248.65 168.06 245.58 Z  M 230.81 246.97 C 234.15 244.94 237.00 239.86 237.00 235.94 C 237.00 232.86 234.17 228.53 230.88 226.59 C 229.32 225.66 221.18 222.85 212.81 220.35 C 195.23 215.08 190.20 214.91 186.29 219.45 C 183.41 222.80 182.60 226.03 183.47 230.70 C 184.68 237.12 187.92 239.00 206.61 244.13 C 215.90 246.68 224.40 248.82 225.50 248.88 C 226.60 248.94 228.99 248.08 230.81 246.97 Z  M 49.82 243.88 C 66.68 238.80 68.30 237.99 70.43 233.51 C 71.84 230.54 71.93 229.32 70.98 226.44 C 69.39 221.61 65.49 217.27 62.10 216.52 C 58.81 215.80 34.61 222.84 29.48 226.01 C 24.27 229.23 22.72 234.62 25.46 239.93 C 27.21 243.31 32.55 248.00 34.64 248.00 C 35.46 248.00 42.29 246.15 49.82 243.88 Z  M 227.97 209.72 C 231.72 207.82 235.00 202.28 235.00 197.84 C 235.00 194.83 234.24 193.14 231.58 190.24 C 228.16 186.50 228.16 186.50 193.08 186.21 C 158.00 185.93 158.00 185.93 158.00 182.96 C 158.00 180.00 158.00 180.00 185.60 180.00 C 213.20 180.00 213.20 180.00 216.60 176.60 C 222.38 170.82 220.84 162.50 213.40 159.39 C 210.84 158.32 204.02 158.00 183.97 158.00 C 157.87 158.00 157.87 158.00 158.19 154.75 C 158.50 151.50 158.50 151.50 182.50 151.00 C 203.28 150.57 207.00 150.25 210.26 148.63 C 218.27 144.65 222.94 136.11 222.98 125.40 C 223.01 114.54 217.86 105.78 209.00 101.61 C 204.59 99.54 203.05 99.49 130.50 98.85 C 89.80 98.49 55.15 98.17 53.50 98.13 C 49.05 98.04 43.89 101.13 40.50 105.92 C 37.59 110.04 37.49 110.56 37.17 123.33 C 36.70 141.52 38.59 146.71 47.27 151.14 C 50.71 152.89 52.28 153.10 57.42 152.47 C 60.76 152.05 74.97 151.67 89.00 151.61 C 114.50 151.50 114.50 151.50 114.81 154.71 C 115.12 157.92 115.12 157.92 80.98 158.21 C 46.83 158.50 46.83 158.50 43.92 161.77 C 39.88 166.28 39.88 171.72 43.92 176.23 C 46.83 179.50 46.83 179.50 80.67 180.00 C 114.50 180.50 114.50 180.50 114.81 183.22 C 115.13 185.94 115.13 185.94 73.99 186.22 C 32.84 186.50 32.84 186.50 29.42 190.24 C 26.76 193.14 26.00 194.83 26.00 197.84 C 26.00 202.28 29.28 207.82 33.03 209.72 C 36.63 211.54 224.37 211.54 227.97 209.72 Z  M 35.84 95.32 C 38.61 93.57 43.02 84.43 43.64 79.18 C 44.76 69.74 34.37 63.65 25.22 68.39 C 21.63 70.24 17.86 78.33 17.24 85.50 C 16.89 89.54 17.22 91.03 18.96 93.24 C 22.65 97.90 30.28 98.84 35.84 95.32 Z  M 118.60 91.60 C 123.93 86.27 123.39 83.21 115.75 75.36 C 108.02 67.42 104.18 66.29 99.19 70.49 C 94.43 74.50 94.78 78.56 100.53 86.04 C 108.35 96.20 112.67 97.53 118.60 91.60 Z  M 235.35 92.66 C 239.77 89.98 244.68 83.22 245.53 78.63 C 245.85 76.91 245.98 64.70 245.81 51.50 C 245.52 29.44 245.33 27.18 243.41 23.50 C 237.78 12.71 222.76 9.62 211.87 17.01 C 207.50 19.96 207.50 19.96 187.48 19.98 C 167.45 20.00 167.45 20.00 165.53 16.43 C 163.00 11.72 159.18 9.12 153.71 8.37 C 148.23 7.62 142.48 9.34 138.65 12.87 C 134.11 17.07 126.00 34.08 126.00 39.42 C 126.00 47.54 129.30 52.79 136.50 56.11 C 145.58 60.30 155.54 57.11 160.08 48.56 C 162.50 44.00 162.50 44.00 182.75 44.00 C 203.00 44.00 203.00 44.00 203.00 58.00 C 203.00 72.00 203.00 72.00 200.45 72.00 C 193.80 72.00 188.20 78.91 189.44 85.56 C 189.79 87.41 191.44 90.29 193.11 91.96 C 196.15 95.00 196.15 95.00 213.83 94.99 C 230.57 94.99 231.70 94.87 235.35 92.66 Z  M 171.06 81.95 C 179.18 75.88 186.08 70.22 186.41 69.38 C 186.73 68.53 187.00 65.86 187.00 63.43 C 187.00 59.98 186.37 58.33 184.08 55.77 C 181.55 52.93 180.53 52.50 176.31 52.50 C 171.83 52.50 170.50 53.18 158.58 61.50 C 141.26 73.60 139.00 75.78 139.00 80.42 C 139.00 88.70 145.51 94.57 153.40 93.41 C 155.09 93.17 162.50 88.36 171.06 81.95 Z  M 81.68 89.39 C 87.44 84.76 90.06 79.29 90.72 70.50 C 91.29 63.00 91.29 63.00 100.89 62.99 C 112.70 62.99 117.12 61.84 120.44 57.89 C 123.45 54.32 123.93 47.77 121.44 44.22 C 118.48 39.99 114.90 39.00 102.55 39.00 C 91.00 39.00 91.00 39.00 91.00 36.00 C 91.00 33.00 91.00 33.00 97.98 33.00 C 110.20 33.00 117.06 28.41 117.18 20.16 C 117.25 15.16 115.85 12.69 111.40 9.94 C 107.78 7.70 107.78 7.70 68.75 8.83 C 25.72 10.07 26.15 10.00 23.42 16.55 C 21.58 20.94 21.62 24.37 23.57 28.13 C 25.74 32.33 30.41 34.00 39.97 34.00 C 47.87 34.00 48.00 34.04 48.00 36.50 C 48.00 39.00 48.00 39.00 36.45 39.00 C 23.38 39.00 20.04 40.08 17.41 45.18 C 15.31 49.24 16.08 55.39 19.09 58.60 C 22.21 61.92 26.87 62.99 38.25 62.99 C 48.00 63.00 48.00 63.00 48.02 69.75 C 48.05 77.47 50.17 83.06 54.62 87.13 C 59.95 92.00 62.94 93.05 70.68 92.75 C 76.97 92.50 78.32 92.09 81.68 89.39 Z  M 76.00 125.00 C 76.00 119.00 76.00 119.00 80.05 119.00 C 83.69 119.00 84.24 119.34 85.48 122.31 C 86.24 124.12 87.17 126.82 87.54 128.31 C 88.22 131.00 88.22 131.00 82.11 131.00 C 76.00 131.00 76.00 131.00 76.00 125.00 Z  M 106.68 125.66 C 105.76 122.73 105.00 120.00 105.00 119.61 C 105.00 119.21 107.14 119.03 109.75 119.20 C 114.50 119.50 114.50 119.50 114.80 125.25 C 115.10 131.00 115.10 131.00 111.73 131.00 C 108.54 131.00 108.28 130.72 106.68 125.66 Z  M 158.00 125.00 C 158.00 119.00 158.00 119.00 163.00 119.00 C 165.75 119.00 168.00 119.30 168.00 119.66 C 168.00 120.03 167.24 122.73 166.32 125.66 C 164.73 130.70 164.45 131.00 161.32 131.00 C 158.00 131.00 158.00 131.00 158.00 125.00 Z  M 185.00 130.34 C 185.00 129.97 185.76 127.27 186.68 124.34 C 188.37 119.00 188.37 119.00 194.53 119.00 C 199.23 119.00 201.08 119.43 202.35 120.83 C 204.27 122.96 204.53 128.07 202.80 129.80 C 201.54 131.06 185.00 131.56 185.00 130.34 Z "/>
</g>
</svg>