<?xml version="1.0" encoding="UTF-8" standalone="no"?>
<!DOCTYPE svg PUBLIC "-//W3C//DTD SVG 1.1//EN" "http://www.w3.org/Graphics/SVG/1.1/DTD/svg11.dtd" >
<svg xmlns="http://www.w3.org/2000/svg" xmlns:xlink="http://www.w3.org/1999/xlink" version="1.1" viewBox="0 0 256 256">
 <g >
 <path fill="currentColor"
d=" M 167.05 240.16 C 169.74 237.98 170.82 231.93 170.93 218.37 C 171.00 209.23 171.00 209.23 176.25 208.63 C 179.14 208.29 194.55 206.86 210.50 205.45 C 233.90 203.37 239.98 202.53 242.00 201.09 C 246.83 197.63 245.22 189.18 239.30 186.92 C 237.44 186.22 227.61 186.82 204.74 189.02 C 187.16 190.72 172.68 191.97 172.57 191.81 C 172.45 191.64 172.55 186.44 172.79 180.25 C 173.22 169.00 173.22 169.00 182.86 168.94 C 199.26 168.83 206.56 167.76 209.46 165.04 C 212.77 161.92 212.85 157.10 209.63 153.36 C 206.90 150.18 206.00 150.10 186.97 151.32 C 174.44 152.13 174.44 152.13 174.84 141.50 C 175.20 131.63 175.08 130.71 173.02 128.52 C 170.03 125.34 166.71 124.68 162.50 126.43 C 157.89 128.36 157.00 131.02 157.00 142.93 C 157.00 152.72 157.00 152.72 151.75 153.35 C 148.86 153.70 142.63 153.99 137.90 153.99 C 124.20 154.01 121.00 155.89 121.00 163.91 C 121.00 167.14 121.51 168.29 123.55 169.63 C 125.76 171.07 128.13 171.22 141.05 170.73 C 156.00 170.15 156.00 170.15 155.98 180.33 C 155.98 185.92 155.59 191.10 155.13 191.82 C 154.55 192.74 146.64 193.90 129.06 195.63 C 115.18 197.00 102.76 198.52 101.46 199.01 C 95.68 201.21 94.95 209.38 100.19 213.29 C 102.80 215.24 103.15 215.24 123.67 213.61 C 135.13 212.69 146.68 211.69 149.35 211.37 C 154.19 210.79 154.19 210.79 153.99 222.14 C 153.71 237.22 153.65 236.74 156.45 239.55 C 159.41 242.50 163.85 242.76 167.05 240.16 Z  M 69.02 237.49 C 74.23 234.80 74.25 234.44 71.52 202.29 C 70.14 185.93 69.00 171.76 69.00 170.80 C 69.00 169.43 72.17 168.05 83.75 164.37 C 91.86 161.80 99.30 159.20 100.29 158.60 C 105.83 155.20 101.96 143.98 95.25 144.01 C 93.74 144.02 86.89 145.80 80.04 147.97 C 73.19 150.14 67.37 151.71 67.11 151.44 C 66.66 150.99 62.13 101.34 62.04 95.90 C 62.00 93.33 62.11 93.29 74.75 91.57 C 81.76 90.62 89.18 89.41 91.23 88.89 C 96.90 87.44 98.33 83.60 95.45 77.54 C 92.92 72.21 91.00 71.90 75.56 74.28 C 65.25 75.87 61.68 76.10 61.13 75.22 C 60.73 74.57 59.34 62.69 58.04 48.81 C 55.86 25.50 55.50 23.41 53.38 21.29 C 50.28 18.19 45.00 18.23 41.34 21.38 C 38.57 23.76 38.57 23.76 40.92 48.63 C 42.21 62.31 43.32 74.62 43.38 76.00 C 43.50 78.44 43.22 78.54 32.18 80.11 C 18.50 82.05 15.65 83.68 15.20 89.80 C 14.60 97.83 18.70 99.23 35.76 96.85 C 40.31 96.21 44.23 95.90 44.48 96.14 C 45.28 96.95 50.82 156.48 50.15 157.15 C 49.79 157.51 43.42 159.68 36.00 161.97 C 20.27 166.82 17.71 168.73 18.20 175.27 C 18.42 178.28 19.18 179.81 21.21 181.32 C 23.92 183.33 23.92 183.33 37.71 179.28 C 45.29 177.06 51.60 175.52 51.72 175.87 C 51.85 176.22 53.08 189.32 54.47 205.00 C 56.98 233.50 56.98 233.50 60.01 236.25 C 63.47 239.40 64.94 239.60 69.02 237.49 Z  M 126.33 131.58 C 135.22 128.60 148.55 123.65 155.95 120.58 C 163.34 117.51 169.95 115.00 170.64 115.00 C 171.33 115.00 185.04 119.72 201.09 125.50 C 217.15 131.28 231.72 136.00 233.47 136.00 C 239.73 136.00 244.30 126.91 240.34 122.31 C 239.17 120.94 230.29 117.17 216.00 111.95 C 203.62 107.44 192.90 103.42 192.16 103.03 C 191.24 102.54 193.03 100.68 197.87 97.10 C 207.31 90.10 214.21 82.35 218.17 74.30 C 222.48 65.56 222.77 56.01 219.04 45.69 C 212.14 26.56 197.32 21.36 161.49 25.51 C 146.72 27.22 127.03 30.74 109.59 34.78 C 99.51 37.12 97.38 37.95 95.67 40.24 C 93.87 42.65 93.79 43.36 94.89 47.01 C 96.89 53.70 98.52 53.92 117.32 50.06 C 153.28 42.69 170.05 40.54 183.78 41.56 C 199.04 42.68 205.02 47.33 204.98 58.00 C 204.95 64.43 201.87 70.36 195.20 76.85 C 189.11 82.77 171.78 95.00 169.47 95.00 C 168.73 95.00 154.97 90.26 138.89 84.46 C 107.37 73.10 105.86 72.83 101.93 77.81 C 99.36 81.08 99.94 85.56 103.30 88.53 C 104.57 89.65 114.94 93.87 126.34 97.92 C 137.74 101.96 146.90 105.43 146.70 105.63 C 145.14 107.19 124.05 114.74 113.50 117.53 C 99.93 121.10 96.00 123.48 96.00 128.11 C 96.00 130.66 98.58 135.67 100.23 136.33 C 104.18 137.92 111.26 136.63 126.33 131.58 Z "/>
</g>
</svg>