<?xml version="1.0" encoding="UTF-8" standalone="no"?>
<!DOCTYPE svg PUBLIC "-//W3C//DTD SVG 1.1//EN" "http://www.w3.org/Graphics/SVG/1.1/DTD/svg11.dtd" >
<svg xmlns="http://www.w3.org/2000/svg" xmlns:xlink="http://www.w3.org/1999/xlink" version="1.1" viewBox="0 0 256 256">
 <g >
 <path fill="currentColor"
d=" M 230.63 240.69 C 235.84 238.00 236.60 232.28 232.36 227.85 C 229.71 225.09 229.71 225.09 218.55 225.69 C 206.61 226.33 199.29 225.66 196.60 223.70 C 195.09 222.59 195.35 221.64 199.42 213.27 C 209.69 192.18 209.43 181.45 198.49 173.79 C 190.78 168.38 185.59 167.88 125.50 166.78 C 95.25 166.22 70.36 165.64 70.18 165.48 C 70.00 165.32 70.79 163.36 71.93 161.13 C 74.01 157.06 74.01 157.06 81.75 157.58 C 93.23 158.34 217.29 164.00 222.56 164.00 C 228.35 164.00 232.00 160.77 232.00 155.66 C 232.00 150.66 229.31 147.89 223.96 147.37 C 218.55 146.84 46.06 138.12 33.84 137.76 C 25.87 137.52 24.97 137.69 22.59 139.92 C 19.27 143.03 19.13 147.90 22.25 151.43 C 24.33 153.78 25.48 154.05 37.40 154.98 C 44.49 155.54 51.35 156.00 52.65 156.00 C 53.94 156.00 55.00 156.51 55.00 157.13 C 55.00 157.76 52.02 165.29 48.37 173.88 C 44.73 182.47 40.19 194.00 38.28 199.50 C 35.25 208.26 34.90 210.24 35.48 215.50 C 36.49 224.66 38.96 229.31 44.58 232.60 C 53.03 237.55 62.38 238.88 94.00 239.61 C 122.35 240.26 122.51 240.25 125.25 238.06 C 128.84 235.19 129.12 228.82 125.83 225.31 C 123.67 223.02 123.46 223.00 99.08 222.98 C 85.56 222.97 71.48 222.52 67.80 221.99 C 60.12 220.88 53.39 218.45 52.65 216.53 C 51.74 214.16 55.09 200.70 58.84 191.66 C 62.50 182.83 62.50 182.83 88.00 182.99 C 102.03 183.08 128.57 183.51 147.00 183.95 C 179.67 184.73 184.95 185.28 188.85 188.35 C 191.12 190.13 189.61 195.87 183.54 208.58 C 177.12 222.02 176.83 225.13 181.36 231.97 C 184.27 236.36 192.07 240.64 199.65 242.02 C 207.43 243.42 226.96 242.59 230.63 240.69 Z  M 163.67 223.61 C 165.87 221.71 166.45 220.36 166.45 217.12 C 166.45 214.75 165.80 212.37 164.90 211.47 C 163.10 209.67 79.88 184.05 75.75 184.02 C 69.79 183.98 65.95 192.78 69.72 197.83 C 71.46 200.16 76.67 201.93 113.48 212.70 C 136.46 219.43 155.51 225.17 155.80 225.47 C 157.09 226.76 161.11 225.81 163.67 223.61 Z  M 193.57 120.95 C 216.08 112.67 235.51 105.24 236.75 104.43 C 240.32 102.09 239.89 95.93 235.92 92.59 C 234.23 91.17 232.10 90.00 231.18 90.00 C 230.27 90.00 211.29 96.35 189.01 104.11 C 155.63 115.74 148.02 118.73 145.75 121.13 C 141.21 125.92 142.82 132.56 149.03 134.69 C 150.94 135.35 152.53 135.91 152.57 135.94 C 152.61 135.97 171.06 129.23 193.57 120.95 Z  M 82.36 131.02 C 111.26 129.15 128.74 127.63 129.61 126.91 C 131.78 125.11 131.36 118.63 128.94 116.44 C 127.15 114.83 125.46 114.61 116.31 114.85 C 105.75 115.13 105.75 115.13 106.47 110.32 C 107.43 103.94 107.64 103.70 111.87 104.44 C 122.10 106.23 122.49 106.22 124.37 104.14 C 126.77 101.50 128.22 88.97 127.00 81.49 C 125.85 74.46 123.23 70.78 117.24 67.84 C 112.64 65.57 111.80 65.51 89.00 65.69 C 76.07 65.79 59.67 66.50 52.55 67.26 C 41.92 68.40 39.14 68.42 37.01 67.36 C 33.96 65.84 29.17 66.79 27.63 69.22 C 26.14 71.59 29.77 101.56 31.75 103.21 C 32.56 103.88 35.31 104.67 37.86 104.97 C 41.84 105.42 42.55 105.85 42.84 107.94 C 43.03 109.29 44.27 111.97 45.58 113.91 C 46.90 115.84 47.64 117.74 47.24 118.13 C 46.83 118.52 41.85 118.98 36.16 119.17 C 26.71 119.47 25.66 119.70 23.91 121.86 C 21.39 124.98 21.49 128.83 24.17 131.69 C 26.96 134.66 25.84 134.67 82.36 131.02 Z  M 191.98 78.47 C 214.24 68.85 233.32 60.13 234.37 59.08 C 237.18 56.27 236.98 49.21 234.03 46.82 C 232.79 45.82 230.59 45.00 229.14 45.01 C 225.37 45.02 144.89 80.51 142.75 83.10 C 138.80 87.89 142.32 96.02 148.32 95.98 C 150.19 95.97 168.17 88.76 191.98 78.47 Z  M 113.40 58.86 C 116.30 57.54 118.06 53.39 116.97 50.46 C 115.44 46.31 113.57 45.79 98.01 45.24 C 83.00 44.71 83.00 44.71 83.00 40.35 C 83.00 35.17 80.97 35.41 107.45 37.42 C 117.32 38.17 126.09 38.54 126.95 38.24 C 130.12 37.13 132.00 34.62 132.00 31.50 C 132.00 25.64 130.50 25.16 107.42 23.52 C 95.92 22.70 85.49 22.02 84.25 22.01 C 82.36 22.00 82.00 21.46 82.00 18.58 C 82.00 14.31 77.83 9.00 74.49 9.00 C 73.20 9.00 70.77 10.17 69.08 11.59 C 66.59 13.69 66.00 14.94 66.00 18.18 C 66.00 22.18 66.00 22.18 62.25 21.63 C 60.19 21.33 50.48 20.55 40.67 19.90 C 23.47 18.76 22.75 18.79 20.17 20.71 C 18.31 22.10 17.41 23.78 17.19 26.29 C 16.71 31.97 18.63 32.60 40.50 33.92 C 50.95 34.55 61.21 35.32 63.30 35.63 C 66.99 36.18 67.10 36.31 66.80 39.85 C 66.50 43.50 66.50 43.50 51.36 43.14 C 37.04 42.81 36.10 42.90 34.11 44.89 C 31.41 47.59 31.40 52.14 34.07 54.57 C 36.39 56.66 34.18 56.47 78.50 58.43 C 94.45 59.14 108.27 59.78 109.20 59.86 C 110.14 59.94 112.03 59.49 113.40 58.86 Z  M 192.00 42.50 C 215.10 34.60 227.31 29.94 228.95 28.38 C 234.26 23.34 230.08 13.43 222.78 13.74 C 220.98 13.82 204.43 19.31 186.00 25.95 C 150.62 38.69 148.00 40.06 148.00 45.83 C 148.00 50.38 153.06 55.59 156.50 54.58 C 157.05 54.42 173.03 48.98 192.00 42.50 Z  M 61.16 111.25 C 56.94 105.50 56.94 105.50 74.22 105.00 C 83.72 104.72 91.67 104.59 91.87 104.70 C 92.07 104.82 91.94 107.36 91.56 110.35 C 90.74 116.93 90.65 116.97 75.94 116.99 C 65.38 117.00 65.38 117.00 61.16 111.25 Z  M 42.43 88.58 C 41.03 83.00 41.64 82.62 54.01 81.32 C 60.33 80.66 75.43 79.80 87.56 79.40 C 109.61 78.69 109.61 78.69 111.81 81.48 C 114.38 84.75 114.71 89.52 112.42 90.39 C 111.55 90.73 95.58 91.00 76.94 91.00 C 43.04 91.00 43.04 91.00 42.43 88.58 Z "/>
</g>
</svg>