<?xml version="1.0" encoding="UTF-8" standalone="no"?>
<!DOCTYPE svg PUBLIC "-//W3C//DTD SVG 1.1//EN" "http://www.w3.org/Graphics/SVG/1.1/DTD/svg11.dtd" >
<svg xmlns="http://www.w3.org/2000/svg" xmlns:xlink="http://www.w3.org/1999/xlink" version="1.1" viewBox="0 0 256 256">
 <g >
 <path fill="currentColor"
d=" M 178.00 230.45 C 243.40 226.66 242.80 226.74 245.19 221.49 C 246.00 219.69 245.95 218.30 244.99 215.97 C 243.04 211.27 239.90 209.64 234.41 210.46 C 229.81 211.15 229.81 211.15 230.38 208.33 C 230.69 206.77 231.46 198.08 232.08 189.01 C 233.21 172.62 232.73 159.07 230.85 154.10 C 229.49 150.49 225.25 146.22 220.50 143.67 C 215.13 140.79 200.11 140.88 188.50 143.86 C 184.10 144.99 174.20 147.27 166.50 148.93 C 158.80 150.59 148.68 153.12 144.00 154.56 C 139.32 155.99 132.80 157.28 129.49 157.42 C 122.93 157.70 119.60 159.01 118.03 161.94 C 117.29 163.32 118.14 170.76 121.16 189.43 C 123.44 203.51 125.07 215.26 124.79 215.54 C 124.50 215.83 121.85 216.33 118.89 216.66 C 111.70 217.46 109.00 219.92 109.00 225.67 C 109.00 230.33 111.53 234.00 114.75 234.00 C 115.71 234.01 144.18 232.40 178.00 230.45 Z  M 101.42 228.85 C 102.84 228.21 104.37 226.35 104.92 224.60 C 106.51 219.53 106.78 85.65 105.21 79.50 C 102.83 70.21 99.26 64.24 94.37 61.37 C 90.10 58.87 89.41 58.77 79.54 59.30 C 71.79 59.71 64.77 61.00 51.63 64.42 C 41.97 66.94 32.06 69.00 29.61 69.00 C 24.78 69.00 22.39 70.60 21.41 74.49 C 21.09 75.77 21.52 89.10 22.36 104.10 C 23.20 119.09 23.67 131.73 23.39 132.18 C 23.11 132.63 21.90 133.00 20.69 133.00 C 19.49 133.01 17.04 133.90 15.25 134.99 C 12.39 136.73 12.00 137.49 12.00 141.31 C 12.00 147.31 15.22 150.38 20.93 149.83 C 24.47 149.50 25.00 149.71 25.03 151.47 C 25.04 152.59 25.71 161.82 26.50 172.00 C 27.29 182.18 27.96 191.31 27.97 192.30 C 27.99 193.28 29.10 195.20 30.45 196.55 C 34.78 200.87 40.91 199.44 44.38 193.29 C 44.76 192.63 44.33 182.14 43.43 169.98 C 42.53 157.82 41.96 147.72 42.15 147.53 C 42.98 146.72 89.15 141.43 89.56 142.09 C 89.81 142.50 89.71 152.09 89.35 163.42 C 88.70 183.41 88.63 183.93 86.96 181.25 C 85.04 178.16 65.46 155.99 60.92 151.75 C 57.07 148.16 52.47 148.08 48.74 151.54 C 44.66 155.33 44.99 159.85 49.75 165.25 C 65.18 182.74 71.55 189.80 73.67 191.75 C 77.03 194.85 82.00 194.71 85.92 191.41 C 89.00 188.82 89.00 188.82 89.00 207.34 C 89.00 225.85 89.00 225.85 91.63 227.93 C 94.59 230.26 97.70 230.55 101.42 228.85 Z  M 175.12 141.81 C 180.20 138.96 181.35 137.04 183.51 127.86 C 184.97 121.67 185.13 119.06 184.32 114.07 C 183.78 110.68 183.59 107.75 183.91 107.56 C 184.24 107.36 194.85 106.87 207.50 106.47 C 220.15 106.07 231.62 105.32 233.00 104.80 C 240.04 102.17 242.26 95.17 237.55 90.45 C 234.60 87.50 233.32 87.46 203.68 89.18 C 185.71 90.22 182.73 90.19 181.94 88.94 C 180.11 86.04 181.25 84.38 189.15 78.50 C 198.25 71.72 204.07 65.05 207.89 57.00 C 210.14 52.25 210.50 50.18 210.50 41.84 C 210.50 32.71 210.33 31.94 207.49 27.89 C 202.89 21.35 199.17 19.64 188.54 19.19 C 178.03 18.75 167.65 21.02 144.59 28.80 C 132.60 32.85 130.42 33.92 128.84 36.50 C 126.25 40.74 126.55 43.71 129.92 47.08 C 133.76 50.91 135.96 50.79 147.73 46.13 C 160.61 41.02 180.27 36.00 187.37 36.00 C 192.42 36.00 193.15 36.26 193.95 38.37 C 194.99 41.10 194.09 45.90 191.53 51.29 C 189.31 55.97 178.07 66.41 171.85 69.57 C 169.29 70.87 166.24 73.15 165.07 74.64 C 163.18 77.03 163.02 78.14 163.60 84.50 C 164.25 91.67 164.25 91.67 141.18 92.61 C 118.83 93.52 118.03 93.62 115.55 95.95 C 111.98 99.31 112.13 103.79 115.93 107.43 C 118.86 110.24 118.86 110.24 141.68 109.51 C 154.23 109.11 164.95 108.72 165.50 108.64 C 166.09 108.56 166.62 112.32 166.79 117.75 C 166.96 123.20 166.68 127.00 166.11 127.00 C 165.59 127.00 163.77 128.17 162.08 129.59 C 157.99 133.02 157.94 137.09 161.92 141.08 C 165.51 144.66 169.64 144.89 175.12 141.81 Z  M 59.00 47.76 C 83.30 31.62 87.02 28.49 86.97 24.23 C 86.91 19.34 81.88 15.31 77.27 16.47 C 74.49 17.16 28.72 46.03 25.55 49.08 C 20.04 54.39 26.35 64.98 34.00 63.26 C 35.38 62.96 46.62 55.98 59.00 47.76 Z  M 139.71 195.75 C 136.38 172.56 136.38 173.00 139.25 172.99 C 140.49 172.98 143.62 172.34 146.20 171.55 C 151.94 169.81 151.62 169.11 152.55 185.50 C 153.27 198.12 153.90 200.42 157.37 203.23 C 162.71 207.56 172.64 202.70 171.45 196.33 C 170.72 192.41 167.17 166.52 167.35 166.43 C 167.43 166.39 170.96 165.43 175.18 164.29 C 182.86 162.23 182.86 162.23 183.40 165.86 C 183.69 167.86 184.24 176.46 184.61 184.97 C 185.27 200.32 185.30 200.45 188.18 203.33 C 190.60 205.75 191.61 206.13 194.29 205.59 C 196.06 205.24 198.58 203.87 199.91 202.54 C 202.32 200.13 202.32 200.13 201.25 179.82 C 200.67 168.64 200.38 159.30 200.62 159.06 C 200.85 158.82 203.69 158.43 206.92 158.20 C 212.41 157.80 212.92 157.95 214.55 160.44 C 216.12 162.84 216.23 165.07 215.66 182.80 C 215.08 200.41 214.11 210.22 212.81 211.52 C 212.47 211.87 150.97 214.97 143.99 214.99 C 142.78 215.00 141.91 211.06 139.71 195.75 Z  M 40.59 124.75 C 39.98 119.02 38.00 90.15 38.00 87.03 C 38.00 85.65 39.07 84.80 41.75 84.05 C 47.41 82.48 48.57 82.77 45.69 85.03 C 39.59 89.82 41.22 93.62 56.49 110.25 C 67.91 122.68 68.30 123.00 72.38 123.00 C 79.70 123.00 83.39 118.21 80.76 112.12 C 80.07 110.50 74.06 103.52 67.41 96.60 C 58.26 87.07 54.54 83.86 52.08 83.37 C 49.17 82.78 49.81 82.46 58.16 80.32 C 63.30 79.00 71.49 77.22 76.37 76.36 C 88.91 74.16 88.21 72.88 89.21 100.22 C 89.65 112.45 89.87 122.90 89.69 123.43 C 89.42 124.25 50.03 129.79 43.32 129.95 C 41.42 129.99 41.07 129.33 40.59 124.75 Z "/>
</g>
</svg>