<?xml version="1.0" encoding="UTF-8" standalone="no"?>
<!DOCTYPE svg PUBLIC "-//W3C//DTD SVG 1.1//EN" "http://www.w3.org/Graphics/SVG/1.1/DTD/svg11.dtd" >
<svg xmlns="http://www.w3.org/2000/svg" xmlns:xlink="http://www.w3.org/1999/xlink" version="1.1" viewBox="0 0 256 256">
 <g >
 <path fill="currentColor"
d=" M 230.62 241.80 C 236.17 238.87 239.49 235.42 243.76 228.16 C 246.50 223.50 246.50 223.50 246.50 202.91 C 246.50 182.33 246.50 182.33 242.86 176.41 C 235.78 164.89 227.57 161.00 210.32 161.00 C 200.00 161.00 200.00 161.00 200.00 155.50 C 200.00 150.00 200.00 150.00 224.00 150.00 C 248.00 150.00 248.00 150.00 248.00 139.50 C 248.00 129.00 248.00 129.00 223.95 129.00 C 199.90 129.00 199.90 129.00 200.20 123.75 C 200.50 118.50 200.50 118.50 222.25 118.23 C 244.00 117.96 244.00 117.96 244.00 107.98 C 244.00 98.00 244.00 98.00 222.00 98.00 C 200.00 98.00 200.00 98.00 200.00 93.00 C 200.00 88.00 200.00 88.00 223.00 88.00 C 246.00 88.00 246.00 88.00 246.00 77.52 C 246.00 67.04 246.00 67.04 223.25 66.77 C 200.50 66.50 200.50 66.50 200.19 63.25 C 199.87 60.00 199.87 60.00 175.94 60.00 C 152.00 60.00 152.00 60.00 152.00 63.50 C 152.00 67.00 152.00 67.00 130.00 67.00 C 108.00 67.00 108.00 67.00 108.00 77.50 C 108.00 88.00 108.00 88.00 130.00 88.00 C 152.00 88.00 152.00 88.00 152.00 93.00 C 152.00 98.00 152.00 98.00 131.00 98.00 C 110.00 98.00 110.00 98.00 110.00 108.00 C 110.00 118.00 110.00 118.00 131.00 118.00 C 152.00 118.00 152.00 118.00 152.00 123.50 C 152.00 129.00 152.00 129.00 129.00 129.00 C 106.00 129.00 106.00 129.00 106.00 139.50 C 106.00 150.00 106.00 150.00 129.00 150.00 C 152.00 150.00 152.00 150.00 152.00 155.38 C 152.00 160.75 152.00 160.75 140.25 161.21 C 126.33 161.75 121.22 163.67 115.03 170.71 C 107.46 179.30 107.00 181.15 107.00 203.05 C 107.00 222.19 107.04 222.55 109.71 227.84 C 113.13 234.59 120.78 241.55 126.86 243.45 C 130.67 244.64 139.87 244.86 178.50 244.70 C 225.50 244.50 225.50 244.50 230.62 241.80 Z  M 77.32 234.04 C 82.88 231.20 88.84 225.10 92.18 218.85 C 94.50 214.50 94.50 214.50 94.50 128.50 C 94.50 42.50 94.50 42.50 91.84 37.46 C 88.61 31.34 81.42 24.52 75.40 21.85 C 71.36 20.07 69.07 19.92 50.23 20.19 C 32.03 20.46 29.01 20.74 25.50 22.47 C 19.38 25.48 12.47 33.13 10.05 39.58 C 7.98 45.14 7.96 45.98 8.23 130.35 C 8.48 210.76 8.60 215.69 10.33 218.86 C 14.29 226.12 23.17 233.97 29.76 236.04 C 31.27 236.51 41.50 236.81 52.50 236.70 C 71.57 236.51 72.72 236.39 77.32 234.04 Z  M 154.00 50.00 C 154.00 46.00 154.00 46.00 176.50 46.00 C 199.00 46.00 199.00 46.00 199.00 50.00 C 199.00 54.00 199.00 54.00 223.00 54.00 C 247.00 54.00 247.00 54.00 247.00 50.04 C 247.00 40.84 239.87 29.09 231.64 24.74 C 228.10 22.87 225.52 22.50 213.75 22.18 C 200.00 21.81 200.00 21.81 200.00 15.40 C 200.00 9.00 200.00 9.00 176.00 9.00 C 152.00 9.00 152.00 9.00 152.00 15.50 C 152.00 22.00 152.00 22.00 141.18 22.00 C 134.31 22.00 128.45 22.57 125.13 23.56 C 115.60 26.38 108.00 36.83 107.18 48.24 C 106.76 54.00 106.76 54.00 130.38 54.00 C 154.00 54.00 154.00 54.00 154.00 50.00 Z  M 154.00 203.00 C 154.00 185.00 154.00 185.00 176.50 185.00 C 199.00 185.00 199.00 185.00 199.00 203.00 C 199.00 221.00 199.00 221.00 176.50 221.00 C 154.00 221.00 154.00 221.00 154.00 203.00 Z  M 46.00 129.00 C 46.00 45.00 46.00 45.00 51.00 45.00 C 56.00 45.00 56.00 45.00 56.00 129.00 C 56.00 213.00 56.00 213.00 51.00 213.00 C 46.00 213.00 46.00 213.00 46.00 129.00 Z "/>
</g>
</svg>