<?xml version="1.0" encoding="UTF-8" standalone="no"?>
<!DOCTYPE svg PUBLIC "-//W3C//DTD SVG 1.1//EN" "http://www.w3.org/Graphics/SVG/1.1/DTD/svg11.dtd" >
<svg xmlns="http://www.w3.org/2000/svg" xmlns:xlink="http://www.w3.org/1999/xlink" version="1.1" viewBox="0 0 256 256">
 <g >
 <path fill="currentColor"
d=" M 79.00 156.03 C 79.00 63.06 79.00 63.06 90.75 62.78 C 102.50 62.50 102.50 62.50 102.78 50.75 C 103.06 39.00 103.06 39.00 91.03 39.00 C 79.00 39.00 79.00 39.00 79.00 23.50 C 79.00 8.00 79.00 8.00 55.00 8.00 C 31.00 8.00 31.00 8.00 31.00 23.50 C 31.00 39.00 31.00 39.00 19.00 39.00 C 7.00 39.00 7.00 39.00 7.00 51.00 C 7.00 63.00 7.00 63.00 19.00 63.00 C 31.00 63.00 31.00 63.00 31.00 156.00 C 31.00 249.00 31.00 249.00 55.00 249.00 C 79.00 249.00 79.00 249.00 79.00 156.03 Z  M 151.00 170.50 C 151.00 92.00 151.00 92.00 177.50 92.00 C 204.00 92.00 204.00 92.00 204.00 158.50 C 204.00 225.00 204.00 225.00 201.50 225.00 C 199.00 225.00 199.00 225.00 199.00 237.12 C 199.00 249.23 199.00 249.23 212.25 248.81 C 227.87 248.32 232.18 246.84 238.68 239.75 C 246.15 231.61 246.00 233.27 246.00 158.50 C 246.00 85.27 246.05 85.93 239.63 78.42 C 237.75 76.23 233.81 73.10 230.86 71.47 C 226.02 68.79 224.37 68.45 214.00 68.00 C 202.50 67.50 202.50 67.50 202.21 58.75 C 201.92 50.00 201.92 50.00 225.46 50.00 C 249.00 50.00 249.00 50.00 249.00 37.50 C 249.00 25.00 249.00 25.00 225.50 25.00 C 202.00 25.00 202.00 25.00 202.00 16.50 C 202.00 8.00 202.00 8.00 177.50 8.00 C 153.00 8.00 153.00 8.00 153.00 16.50 C 153.00 25.00 153.00 25.00 130.00 25.00 C 107.00 25.00 107.00 25.00 107.00 37.50 C 107.00 50.00 107.00 50.00 130.00 50.00 C 153.00 50.00 153.00 50.00 153.00 59.00 C 153.00 68.00 153.00 68.00 142.25 68.01 C 133.02 68.02 130.79 68.36 126.50 70.39 C 120.39 73.29 113.80 79.96 111.08 86.00 C 109.09 90.40 109.04 92.26 109.02 169.75 C 109.00 249.00 109.00 249.00 130.00 249.00 C 151.00 249.00 151.00 249.00 151.00 170.50 Z  M 193.00 230.00 C 193.00 213.00 193.00 213.00 196.00 213.00 C 199.00 213.00 199.00 213.00 199.00 201.00 C 199.00 189.00 199.00 189.00 196.00 189.00 C 193.00 189.00 193.00 189.00 193.00 175.00 C 193.00 161.00 193.00 161.00 196.00 161.00 C 199.00 161.00 199.00 161.00 199.00 148.98 C 199.00 136.96 199.00 136.96 177.75 137.23 C 156.50 137.50 156.50 137.50 156.22 149.25 C 155.94 161.00 155.94 161.00 158.97 161.00 C 162.00 161.00 162.00 161.00 162.00 175.00 C 162.00 189.00 162.00 189.00 159.00 189.00 C 156.00 189.00 156.00 189.00 156.00 201.00 C 156.00 213.00 156.00 213.00 159.00 213.00 C 162.00 213.00 162.00 213.00 162.00 230.00 C 162.00 247.00 162.00 247.00 177.50 247.00 C 193.00 247.00 193.00 247.00 193.00 230.00 Z  M 24.00 236.25 C 24.01 229.19 26.90 109.53 27.52 90.75 C 28.14 72.00 28.14 72.00 19.07 72.00 C 10.00 72.00 10.00 72.00 9.98 75.75 C 9.96 77.81 9.30 113.02 8.50 154.00 C 7.70 194.98 7.04 231.09 7.02 234.25 C 7.00 240.00 7.00 240.00 15.50 240.00 C 24.00 240.00 24.00 240.00 24.00 236.25 Z  M 102.29 228.75 C 101.54 203.74 99.00 89.88 99.00 81.25 C 99.00 72.00 99.00 72.00 90.50 72.00 C 82.00 72.00 82.00 72.00 81.98 80.75 C 81.95 99.39 84.09 220.04 84.63 229.75 C 85.19 240.00 85.19 240.00 93.91 240.00 C 102.63 240.00 102.63 240.00 102.29 228.75 Z  M 175.57 118.75 C 175.21 111.46 174.67 103.79 174.36 101.71 C 173.81 97.92 173.81 97.92 165.66 98.21 C 158.63 98.46 157.51 98.74 157.58 100.25 C 157.63 101.21 157.74 108.75 157.83 117.00 C 158.00 132.00 158.00 132.00 167.11 132.00 C 176.22 132.00 176.22 132.00 175.57 118.75 Z  M 196.37 128.25 C 196.67 126.19 197.21 118.54 197.57 111.25 C 198.22 98.00 198.22 98.00 189.58 98.00 C 183.54 98.00 180.82 98.38 180.54 99.25 C 180.33 99.94 179.95 107.59 179.70 116.25 C 179.25 132.00 179.25 132.00 187.53 132.00 C 195.82 132.00 195.82 132.00 196.37 128.25 Z "/>
</g>
</svg>