<?xml version="1.0" encoding="UTF-8" standalone="no"?>
<!DOCTYPE svg PUBLIC "-//W3C//DTD SVG 1.1//EN" "http://www.w3.org/Graphics/SVG/1.1/DTD/svg11.dtd" >
<svg xmlns="http://www.w3.org/2000/svg" xmlns:xlink="http://www.w3.org/1999/xlink" version="1.1" viewBox="0 0 256 256">
 <g >
 <path fill="currentColor"
d=" M 82.24 198.80 C 82.50 148.60 82.50 148.60 95.00 167.55 C 107.50 186.50 107.50 186.50 107.76 155.76 C 108.03 125.02 108.03 125.02 98.01 109.52 C 92.51 101.00 88.00 93.83 88.00 93.59 C 88.00 93.35 91.43 89.18 95.62 84.33 C 105.34 73.08 107.45 68.66 107.45 59.50 C 107.45 45.54 98.33 33.76 85.75 31.46 C 82.00 30.78 82.00 30.78 82.00 19.39 C 82.00 8.00 82.00 8.00 57.50 8.00 C 33.00 8.00 33.00 8.00 33.00 19.50 C 33.00 31.00 33.00 31.00 20.00 31.00 C 7.00 31.00 7.00 31.00 7.00 42.98 C 7.00 54.97 7.00 54.97 34.96 55.23 C 62.92 55.50 62.92 55.50 34.96 87.47 C 7.00 119.45 7.00 119.45 7.00 150.27 C 7.00 181.09 7.00 181.09 19.75 166.88 C 32.50 152.66 32.50 152.66 32.76 200.83 C 33.02 249.00 33.02 249.00 57.50 249.00 C 81.98 249.00 81.98 249.00 82.24 198.80 Z  M 187.00 225.50 C 187.00 202.00 187.00 202.00 216.50 202.00 C 246.00 202.00 246.00 202.00 246.00 189.50 C 246.00 177.00 246.00 177.00 216.48 177.00 C 186.97 177.00 186.97 177.00 187.23 151.75 C 187.50 126.50 187.50 126.50 216.75 126.23 C 246.00 125.97 246.00 125.97 246.00 113.48 C 246.00 101.00 246.00 101.00 216.50 101.00 C 187.00 101.00 187.00 101.00 187.00 77.00 C 187.00 53.00 187.00 53.00 217.50 53.00 C 248.00 53.00 248.00 53.00 248.00 41.00 C 248.00 29.00 248.00 29.00 204.00 29.00 C 166.42 29.00 160.00 28.79 160.00 27.56 C 160.00 26.77 160.90 22.39 161.99 17.81 C 163.09 13.24 163.99 9.16 163.99 8.75 C 164.00 8.34 152.82 8.00 139.16 8.00 C 114.31 8.00 114.31 8.00 112.16 15.87 C 110.97 20.20 110.00 25.07 110.00 26.69 C 110.00 32.00 112.89 39.51 116.58 43.83 C 120.99 48.97 126.00 51.67 132.85 52.58 C 138.00 53.26 138.00 53.26 138.00 150.46 C 138.00 203.92 138.30 247.97 138.67 248.33 C 139.03 248.70 150.06 249.00 163.17 249.00 C 187.00 249.00 187.00 249.00 187.00 225.50 Z "/>
</g>
</svg>