<?xml version="1.0" encoding="UTF-8" standalone="no"?>
<!DOCTYPE svg PUBLIC "-//W3C//DTD SVG 1.1//EN" "http://www.w3.org/Graphics/SVG/1.1/DTD/svg11.dtd" >
<svg xmlns="http://www.w3.org/2000/svg" xmlns:xlink="http://www.w3.org/1999/xlink" version="1.1" viewBox="0 0 256 256">
 <g >
 <path fill="currentColor"
d=" M 97.00 237.00 C 97.00 225.00 97.00 225.00 87.00 225.00 C 77.00 225.00 77.00 225.00 77.00 197.50 C 77.00 170.00 77.00 170.00 87.03 170.00 C 97.06 170.00 97.06 170.00 96.78 158.25 C 96.50 146.50 96.50 146.50 86.75 146.21 C 77.00 145.93 77.00 145.93 77.00 128.46 C 77.00 111.00 77.00 111.00 87.00 111.00 C 97.00 111.00 97.00 111.00 97.00 99.00 C 97.00 87.00 97.00 87.00 52.00 87.00 C 7.00 87.00 7.00 87.00 7.00 99.00 C 7.00 111.00 7.00 111.00 17.50 111.00 C 28.00 111.00 28.00 111.00 28.00 128.50 C 28.00 146.00 28.00 146.00 17.50 146.00 C 7.00 146.00 7.00 146.00 7.00 158.00 C 7.00 170.00 7.00 170.00 17.50 170.00 C 28.00 170.00 28.00 170.00 28.00 197.37 C 28.00 226.72 28.27 228.72 33.38 236.81 C 36.70 242.08 42.01 246.04 47.82 247.61 C 50.88 248.43 60.20 248.89 74.75 248.93 C 97.00 249.00 97.00 249.00 97.00 237.00 Z  M 153.00 224.50 C 153.00 200.00 153.00 200.00 175.50 200.00 C 198.00 200.00 198.00 200.00 198.00 212.50 C 198.00 225.00 198.00 225.00 190.00 225.00 C 182.00 225.00 182.00 225.00 182.00 237.00 C 182.00 249.00 182.00 249.00 201.82 249.00 C 225.31 249.00 229.81 248.06 236.68 241.72 C 239.16 239.44 242.38 235.31 243.84 232.54 C 246.50 227.50 246.50 227.50 246.50 161.50 C 246.50 99.76 246.38 95.26 244.69 91.86 C 241.79 86.03 236.63 80.67 230.86 77.47 C 225.93 74.74 224.50 74.46 213.00 74.00 C 200.50 73.50 200.50 73.50 200.24 40.75 C 199.97 8.00 199.97 8.00 175.49 8.00 C 151.00 8.00 151.00 8.00 151.00 41.00 C 151.00 74.00 151.00 74.00 139.25 74.02 C 129.92 74.04 126.65 74.43 123.36 75.92 C 117.32 78.67 111.02 84.79 108.35 90.50 C 106.02 95.50 106.02 95.50 106.01 172.25 C 106.00 249.00 106.00 249.00 129.50 249.00 C 153.00 249.00 153.00 249.00 153.00 224.50 Z  M 54.60 75.59 C 54.90 74.81 55.93 69.75 56.88 64.34 C 58.61 54.50 58.61 54.50 77.56 54.00 C 96.50 53.50 96.50 53.50 96.78 41.75 C 97.06 30.00 97.06 30.00 80.03 30.00 C 67.05 30.00 63.01 29.70 63.04 28.75 C 63.07 28.06 63.91 23.11 64.91 17.75 C 66.73 8.00 66.73 8.00 42.44 8.00 C 18.16 8.00 18.16 8.00 17.58 10.75 C 17.01 13.47 7.00 75.74 7.00 76.57 C 7.00 76.81 17.59 77.00 30.53 77.00 C 49.86 77.00 54.16 76.75 54.60 75.59 Z  M 147.02 65.25 C 147.03 64.29 146.03 52.36 144.80 38.75 C 142.55 14.00 142.55 14.00 123.27 14.00 C 105.59 14.00 104.00 14.14 103.99 15.75 C 103.98 18.23 109.11 64.24 109.56 65.75 C 109.84 66.69 114.51 67.00 128.47 67.00 C 145.44 67.00 147.00 66.85 147.02 65.25 Z  M 243.40 62.25 C 243.72 59.64 244.67 49.85 245.51 40.50 C 246.35 31.15 247.30 21.36 247.61 18.75 C 248.19 14.00 248.19 14.00 228.59 14.00 C 209.00 14.00 209.00 14.00 208.96 16.25 C 208.94 17.49 208.10 29.07 207.08 42.00 C 206.07 54.93 205.44 65.84 205.68 66.25 C 205.92 66.66 214.37 67.00 224.47 67.00 C 242.81 67.00 242.81 67.00 243.40 62.25 Z  M 153.22 162.75 C 153.50 149.50 153.50 149.50 175.75 149.23 C 198.00 148.96 198.00 148.96 198.00 162.48 C 198.00 176.00 198.00 176.00 175.47 176.00 C 152.94 176.00 152.94 176.00 153.22 162.75 Z  M 153.22 111.25 C 153.50 97.50 153.50 97.50 175.75 97.23 C 198.00 96.96 198.00 96.96 198.00 110.98 C 198.00 125.00 198.00 125.00 175.47 125.00 C 152.94 125.00 152.94 125.00 153.22 111.25 Z "/>
</g>
</svg>