<?xml version="1.0" encoding="UTF-8" standalone="no"?>
<!DOCTYPE svg PUBLIC "-//W3C//DTD SVG 1.1//EN" "http://www.w3.org/Graphics/SVG/1.1/DTD/svg11.dtd" >
<svg xmlns="http://www.w3.org/2000/svg" xmlns:xlink="http://www.w3.org/1999/xlink" version="1.1" viewBox="0 0 256 256">
 <g >
 <path fill="currentColor"
d=" M 67.00 227.00 C 67.00 205.00 67.00 205.00 127.50 205.00 C 188.00 205.00 188.00 205.00 188.00 215.00 C 188.00 225.00 188.00 225.00 167.50 225.00 C 147.00 225.00 147.00 225.00 147.00 237.00 C 147.00 249.00 147.00 249.00 179.32 249.00 C 218.37 249.00 219.60 248.78 228.11 240.09 C 237.20 230.81 237.14 231.23 236.79 183.86 C 236.52 146.93 236.34 143.21 234.67 140.14 C 231.70 134.69 224.96 128.02 219.54 125.16 C 214.50 122.50 214.50 122.50 127.50 122.50 C 40.50 122.50 40.50 122.50 35.46 125.16 C 30.04 128.02 23.30 134.69 20.33 140.14 C 18.63 143.26 18.48 147.29 18.22 196.25 C 17.93 249.00 17.93 249.00 42.47 249.00 C 67.00 249.00 67.00 249.00 67.00 227.00 Z  M 248.00 99.51 C 248.00 88.02 248.00 88.02 199.75 87.76 C 151.50 87.50 151.50 87.50 151.20 82.75 C 150.89 78.00 150.89 78.00 191.95 78.00 C 233.00 78.00 233.00 78.00 233.00 65.51 C 233.00 53.02 233.00 53.02 192.25 52.76 C 151.50 52.50 151.50 52.50 151.20 47.75 C 150.89 43.00 150.89 43.00 196.45 43.00 C 242.00 43.00 242.00 43.00 242.00 31.01 C 242.00 19.02 242.00 19.02 196.75 18.76 C 151.50 18.50 151.50 18.50 151.20 13.75 C 150.89 9.00 150.89 9.00 127.50 9.00 C 104.11 9.00 104.11 9.00 103.80 13.75 C 103.50 18.50 103.50 18.50 58.25 18.76 C 13.00 19.02 13.00 19.02 13.00 31.01 C 13.00 43.00 13.00 43.00 58.55 43.00 C 104.11 43.00 104.11 43.00 103.80 47.75 C 103.50 52.50 103.50 52.50 62.75 52.76 C 22.00 53.02 22.00 53.02 22.00 65.51 C 22.00 78.00 22.00 78.00 63.05 78.00 C 104.11 78.00 104.11 78.00 103.80 82.75 C 103.50 87.50 103.50 87.50 55.25 87.76 C 7.00 88.02 7.00 88.02 7.00 99.51 C 7.00 111.00 7.00 111.00 127.50 111.00 C 248.00 111.00 248.00 111.00 248.00 99.51 Z  M 67.00 163.98 C 67.00 146.95 67.00 146.95 85.25 147.23 C 103.50 147.50 103.50 147.50 103.77 164.25 C 104.05 181.00 104.05 181.00 85.52 181.00 C 67.00 181.00 67.00 181.00 67.00 163.98 Z  M 151.23 164.25 C 151.50 147.50 151.50 147.50 169.75 147.23 C 188.00 146.95 188.00 146.95 188.00 163.98 C 188.00 181.00 188.00 181.00 169.48 181.00 C 150.95 181.00 150.95 181.00 151.23 164.25 Z "/>
</g>
</svg>