<?xml version="1.0" encoding="UTF-8" standalone="no"?>
<!DOCTYPE svg PUBLIC "-//W3C//DTD SVG 1.1//EN" "http://www.w3.org/Graphics/SVG/1.1/DTD/svg11.dtd" >
<svg xmlns="http://www.w3.org/2000/svg" xmlns:xlink="http://www.w3.org/1999/xlink" version="1.1" viewBox="0 0 256 256">
 <g >
 <path fill="currentColor"
d=" M 99.31 237.75 C 100.81 231.56 102.03 226.16 102.02 225.75 C 102.01 225.34 96.60 225.00 90.01 225.00 C 78.01 225.00 78.01 225.00 77.76 158.75 C 77.50 92.50 77.50 92.50 53.23 92.23 C 28.96 91.96 28.96 91.96 29.23 159.73 C 29.50 227.50 29.50 227.50 31.77 232.10 C 34.27 237.19 40.02 243.42 44.22 245.60 C 49.31 248.25 54.50 248.80 75.54 248.90 C 96.59 249.00 96.59 249.00 99.31 237.75 Z  M 172.39 237.44 C 180.28 225.96 180.28 225.96 187.29 237.48 C 194.29 249.00 194.29 249.00 221.66 249.00 C 249.03 249.00 249.03 249.00 246.65 245.24 C 245.35 243.18 239.06 233.50 232.67 223.74 C 221.06 206.00 221.06 206.00 207.53 206.00 C 200.09 206.00 194.00 205.76 194.00 205.46 C 194.00 205.17 194.73 203.82 195.62 202.46 C 197.23 200.00 197.23 200.00 222.62 200.00 C 248.00 200.00 248.00 200.00 248.00 187.50 C 248.00 175.00 248.00 175.00 224.00 175.00 C 200.00 175.00 200.00 175.00 200.00 169.00 C 200.00 163.00 200.00 163.00 211.34 163.00 C 221.98 163.00 223.06 162.81 228.78 159.95 C 235.83 156.43 240.31 151.74 243.69 144.36 C 246.07 139.18 246.09 138.86 245.79 110.81 C 245.53 85.63 245.30 82.09 243.65 78.77 C 240.68 72.81 234.39 66.37 228.79 63.58 C 223.61 61.00 223.61 61.00 179.05 61.01 C 134.50 61.02 134.50 61.02 129.50 63.39 C 123.39 66.29 116.80 72.96 114.08 79.00 C 112.19 83.18 112.04 85.52 112.02 112.05 C 112.00 140.61 112.00 140.61 114.55 145.72 C 117.53 151.70 124.37 158.36 130.31 161.05 C 133.39 162.45 136.82 162.96 143.25 162.98 C 152.00 163.00 152.00 163.00 152.00 169.00 C 152.00 175.00 152.00 175.00 131.00 175.00 C 110.00 175.00 110.00 175.00 110.00 187.47 C 110.00 199.95 110.00 199.95 125.50 200.22 C 141.01 200.50 141.01 200.50 126.68 222.00 C 118.80 233.82 111.54 244.74 110.56 246.25 C 108.77 249.00 108.77 249.00 136.63 248.96 C 164.50 248.92 164.50 248.92 172.39 237.44 Z  M 53.73 83.00 C 54.65 69.19 56.23 51.21 56.64 49.75 C 56.91 48.79 57.78 48.00 58.57 48.00 C 59.76 48.00 60.00 51.24 60.00 67.52 C 60.00 87.04 60.00 87.04 82.25 86.77 C 104.50 86.50 104.50 86.50 104.48 66.50 C 104.45 43.91 103.80 41.21 96.43 33.06 C 89.98 25.91 86.39 24.62 71.75 24.18 C 59.00 23.80 59.00 23.80 59.02 19.65 C 59.04 17.37 59.44 13.81 59.92 11.75 C 60.79 8.00 60.79 8.00 36.39 8.00 C 22.98 8.00 12.00 8.11 11.99 8.25 C 11.99 8.39 10.87 25.60 9.50 46.50 C 8.14 67.40 7.02 85.07 7.01 85.77 C 7.00 86.76 11.99 86.98 30.25 86.77 C 53.50 86.50 53.50 86.50 53.73 83.00 Z  M 169.00 50.00 C 169.00 44.00 169.00 44.00 178.45 44.00 C 187.90 44.00 187.90 44.00 188.20 49.75 C 188.50 55.50 188.50 55.50 212.75 55.77 C 237.00 56.04 237.00 56.04 237.00 50.02 C 237.00 44.00 237.00 44.00 243.00 44.00 C 249.00 44.00 249.00 44.00 249.00 32.00 C 249.00 20.00 249.00 20.00 243.00 20.00 C 237.00 20.00 237.00 20.00 237.00 14.00 C 237.00 8.00 237.00 8.00 212.50 8.00 C 188.00 8.00 188.00 8.00 188.00 14.00 C 188.00 20.00 188.00 20.00 178.50 20.00 C 169.00 20.00 169.00 20.00 169.00 14.00 C 169.00 8.00 169.00 8.00 145.05 8.00 C 121.10 8.00 121.10 8.00 120.80 13.75 C 120.50 19.50 120.50 19.50 114.75 19.80 C 109.00 20.10 109.00 20.10 109.00 32.05 C 109.00 44.00 109.00 44.00 115.00 44.00 C 121.00 44.00 121.00 44.00 121.00 50.00 C 121.00 56.00 121.00 56.00 145.00 56.00 C 169.00 56.00 169.00 56.00 169.00 50.00 Z  M 160.21 131.75 C 160.50 124.50 160.50 124.50 178.75 124.23 C 197.00 123.95 197.00 123.95 197.00 131.48 C 197.00 139.00 197.00 139.00 178.46 139.00 C 159.91 139.00 159.91 139.00 160.21 131.75 Z  M 160.00 92.00 C 160.00 85.00 160.00 85.00 178.50 85.00 C 197.00 85.00 197.00 85.00 197.00 92.00 C 197.00 99.00 197.00 99.00 178.50 99.00 C 160.00 99.00 160.00 99.00 160.00 92.00 Z "/>
</g>
</svg>