<?xml version="1.0" encoding="UTF-8" standalone="no"?>
<!DOCTYPE svg PUBLIC "-//W3C//DTD SVG 1.1//EN" "http://www.w3.org/Graphics/SVG/1.1/DTD/svg11.dtd" >
<svg xmlns="http://www.w3.org/2000/svg" xmlns:xlink="http://www.w3.org/1999/xlink" version="1.1" viewBox="0 0 256 256">
 <g >
 <path fill="currentColor"
d=" M 61.00 129.00 C 61.00 8.00 61.00 8.00 56.50 8.00 C 52.00 8.00 52.00 8.00 52.00 129.00 C 52.00 250.00 52.00 250.00 56.50 250.00 C 61.00 250.00 61.00 250.00 61.00 129.00 Z  M 123.76 170.75 C 124.01 92.00 124.01 92.00 136.51 92.00 C 149.00 92.00 149.00 92.00 149.00 87.50 C 149.00 83.00 149.00 83.00 136.50 83.00 C 124.00 83.00 124.00 83.00 124.00 63.00 C 124.00 43.00 124.00 43.00 135.00 43.00 C 146.00 43.00 146.00 43.00 146.00 33.50 C 146.00 24.00 146.00 24.00 141.50 24.00 C 137.00 24.00 137.00 24.00 137.00 29.00 C 137.00 34.00 137.00 34.00 113.50 34.00 C 90.00 34.00 90.00 34.00 90.00 38.50 C 90.00 43.00 90.00 43.00 102.52 43.00 C 115.04 43.00 115.04 43.00 114.77 62.75 C 114.50 82.50 114.50 82.50 101.75 82.78 C 89.00 83.06 89.00 83.06 89.00 87.53 C 89.00 92.00 89.00 92.00 102.00 92.00 C 115.00 92.00 115.00 92.00 115.00 171.06 C 115.00 250.11 115.00 250.11 119.25 249.81 C 123.50 249.50 123.50 249.50 123.76 170.75 Z  M 187.00 125.50 C 187.00 9.00 187.00 9.00 182.50 9.00 C 178.00 9.00 178.00 9.00 178.00 121.50 C 178.00 234.00 178.00 234.00 165.00 234.00 C 152.00 234.00 152.00 234.00 152.00 238.00 C 152.00 242.00 152.00 242.00 169.50 242.00 C 187.00 242.00 187.00 242.00 187.00 125.50 Z  M 228.00 236.50 C 228.00 232.00 228.00 232.00 220.50 232.00 C 213.00 232.00 213.00 232.00 213.00 193.00 C 213.00 154.00 213.00 154.00 208.00 154.00 C 203.00 154.00 203.00 154.00 203.00 197.50 C 203.00 241.00 203.00 241.00 215.50 241.00 C 228.00 241.00 228.00 241.00 228.00 236.50 Z  M 101.76 150.25 C 101.50 108.50 101.50 108.50 97.25 108.19 C 93.00 107.89 93.00 107.89 93.00 145.94 C 93.00 184.00 93.00 184.00 86.00 184.00 C 79.00 184.00 79.00 184.00 79.00 188.00 C 79.00 192.00 79.00 192.00 90.51 192.00 C 102.02 192.00 102.02 192.00 101.76 150.25 Z  M 161.00 188.00 C 161.00 184.00 161.00 184.00 153.00 184.00 C 145.00 184.00 145.00 184.00 145.00 146.44 C 145.00 108.88 145.00 108.88 141.25 109.19 C 137.50 109.50 137.50 109.50 137.24 150.75 C 136.98 192.00 136.98 192.00 148.99 192.00 C 161.00 192.00 161.00 192.00 161.00 188.00 Z  M 40.00 103.00 C 40.00 60.00 40.00 60.00 35.50 60.00 C 31.00 60.00 31.00 60.00 31.00 103.00 C 31.00 146.00 31.00 146.00 35.50 146.00 C 40.00 146.00 40.00 146.00 40.00 103.00 Z  M 81.00 97.50 C 81.00 57.00 81.00 57.00 77.00 57.00 C 73.00 57.00 73.00 57.00 73.00 97.50 C 73.00 138.00 73.00 138.00 77.00 138.00 C 81.00 138.00 81.00 138.00 81.00 97.50 Z  M 165.00 87.50 C 165.00 53.00 165.00 53.00 160.50 53.00 C 156.00 53.00 156.00 53.00 156.00 87.50 C 156.00 122.00 156.00 122.00 160.50 122.00 C 165.00 122.00 165.00 122.00 165.00 87.50 Z  M 217.00 86.00 C 217.00 50.00 217.00 50.00 212.50 50.00 C 208.00 50.00 208.00 50.00 208.00 81.45 C 208.00 112.89 208.00 112.89 203.25 113.20 C 198.50 113.50 198.50 113.50 198.19 117.75 C 197.89 122.00 197.89 122.00 207.44 122.00 C 217.00 122.00 217.00 122.00 217.00 86.00 Z "/>
</g>
</svg>