<?xml version="1.0" encoding="UTF-8" standalone="no"?>
<!DOCTYPE svg PUBLIC "-//W3C//DTD SVG 1.1//EN" "http://www.w3.org/Graphics/SVG/1.1/DTD/svg11.dtd" >
<svg xmlns="http://www.w3.org/2000/svg" xmlns:xlink="http://www.w3.org/1999/xlink" version="1.1" viewBox="0 0 256 256">
 <g >
 <path fill="currentColor"
d=" M 102.00 137.00 C 102.00 36.00 102.00 36.00 161.00 36.00 C 220.00 36.00 220.00 36.00 220.00 31.00 C 220.00 26.00 220.00 26.00 156.50 26.00 C 93.00 26.00 93.00 26.00 93.00 127.00 C 93.00 228.00 93.00 228.00 78.50 228.00 C 64.00 228.00 64.00 228.00 64.00 233.00 C 64.00 238.00 64.00 238.00 83.00 238.00 C 102.00 238.00 102.00 238.00 102.00 137.00 Z  M 225.00 225.50 C 225.00 221.00 225.00 221.00 196.00 221.00 C 167.00 221.00 167.00 221.00 167.00 197.00 C 167.00 173.00 167.00 173.00 191.00 173.00 C 215.00 173.00 215.00 173.00 215.00 168.50 C 215.00 164.00 215.00 164.00 191.00 164.00 C 167.00 164.00 167.00 164.00 167.00 146.94 C 167.00 129.89 167.00 129.89 162.75 130.19 C 158.50 130.50 158.50 130.50 158.23 147.25 C 157.95 164.00 157.95 164.00 136.98 164.00 C 116.00 164.00 116.00 164.00 116.00 168.50 C 116.00 173.00 116.00 173.00 137.00 173.00 C 158.00 173.00 158.00 173.00 158.00 197.00 C 158.00 221.00 158.00 221.00 133.00 221.00 C 108.00 221.00 108.00 221.00 108.00 225.50 C 108.00 230.00 108.00 230.00 166.50 230.00 C 225.00 230.00 225.00 230.00 225.00 225.50 Z  M 82.00 195.50 C 82.00 191.00 82.00 191.00 55.50 191.00 C 29.00 191.00 29.00 191.00 29.00 195.50 C 29.00 200.00 29.00 200.00 55.50 200.00 C 82.00 200.00 82.00 200.00 82.00 195.50 Z  M 220.00 117.50 C 220.00 113.00 220.00 113.00 193.00 113.00 C 166.00 113.00 166.00 113.00 166.00 95.00 C 166.00 77.00 166.00 77.00 188.50 77.00 C 211.00 77.00 211.00 77.00 211.00 72.02 C 211.00 67.04 211.00 67.04 188.75 66.77 C 166.50 66.50 166.50 66.50 166.22 53.75 C 165.94 41.00 165.94 41.00 161.47 41.00 C 157.00 41.00 157.00 41.00 157.00 54.00 C 157.00 67.00 157.00 67.00 137.50 67.00 C 118.00 67.00 118.00 67.00 118.00 72.00 C 118.00 77.00 118.00 77.00 137.50 77.00 C 157.00 77.00 157.00 77.00 157.00 95.00 C 157.00 113.00 157.00 113.00 133.00 113.00 C 109.00 113.00 109.00 113.00 109.00 117.50 C 109.00 122.00 109.00 122.00 164.50 122.00 C 220.00 122.00 220.00 122.00 220.00 117.50 Z  M 77.81 100.75 C 77.50 96.50 77.50 96.50 53.75 96.23 C 30.00 95.96 30.00 95.96 30.00 100.48 C 30.00 105.00 30.00 105.00 54.06 105.00 C 78.11 105.00 78.11 105.00 77.81 100.75 Z  M 79.80 37.75 C 80.11 33.00 80.11 33.00 55.05 33.00 C 30.00 33.00 30.00 33.00 30.00 38.02 C 30.00 43.03 30.00 43.03 54.75 42.77 C 79.50 42.50 79.50 42.50 79.80 37.75 Z "/>
</g>
</svg>