<?xml version="1.0" encoding="UTF-8" standalone="no"?>
<!DOCTYPE svg PUBLIC "-//W3C//DTD SVG 1.1//EN" "http://www.w3.org/Graphics/SVG/1.1/DTD/svg11.dtd" >
<svg xmlns="http://www.w3.org/2000/svg" xmlns:xlink="http://www.w3.org/1999/xlink" version="1.1" viewBox="0 0 256 256">
 <g >
 <path fill="currentColor"
d=" M 130.24 186.25 C 130.50 124.50 130.50 124.50 165.25 124.24 C 200.00 123.97 200.00 123.97 200.00 178.99 C 200.00 234.00 200.00 234.00 185.00 234.00 C 170.00 234.00 170.00 234.00 170.00 239.00 C 170.00 244.00 170.00 244.00 190.00 244.00 C 210.00 244.00 210.00 244.00 210.00 179.50 C 210.00 115.00 210.00 115.00 166.00 115.00 C 122.00 115.00 122.00 115.00 122.00 181.50 C 122.00 248.00 122.00 248.00 125.99 248.00 C 129.98 248.00 129.98 248.00 130.24 186.25 Z  M 50.00 205.00 C 50.00 194.00 50.00 194.00 69.50 194.00 C 89.00 194.00 89.00 194.00 89.00 204.00 C 89.00 214.00 89.00 214.00 94.00 214.00 C 99.00 214.00 99.00 214.00 99.00 123.50 C 99.00 33.00 99.00 33.00 70.00 33.00 C 41.00 33.00 41.00 33.00 41.00 124.50 C 41.00 216.00 41.00 216.00 45.50 216.00 C 50.00 216.00 50.00 216.00 50.00 205.00 Z  M 192.00 178.48 C 192.00 173.97 192.00 173.97 165.75 174.23 C 139.50 174.50 139.50 174.50 139.19 178.75 C 138.89 183.00 138.89 183.00 165.44 183.00 C 192.00 183.00 192.00 183.00 192.00 178.48 Z  M 192.00 149.48 C 192.00 144.97 192.00 144.97 165.75 145.23 C 139.50 145.50 139.50 145.50 139.19 149.75 C 138.89 154.00 138.89 154.00 165.44 154.00 C 192.00 154.00 192.00 154.00 192.00 149.48 Z  M 228.00 93.50 C 228.00 89.00 228.00 89.00 197.50 89.00 C 167.00 89.00 167.00 89.00 167.00 78.50 C 167.00 68.00 167.00 68.00 187.50 68.00 C 208.00 68.00 208.00 68.00 208.00 64.02 C 208.00 60.04 208.00 60.04 187.75 59.77 C 167.50 59.50 167.50 59.50 167.21 50.75 C 166.92 42.00 166.92 42.00 192.46 42.00 C 218.00 42.00 218.00 42.00 218.00 37.52 C 218.00 33.03 218.00 33.03 192.75 32.77 C 167.50 32.50 167.50 32.50 167.22 20.25 C 166.94 8.00 166.94 8.00 162.47 8.00 C 158.00 8.00 158.00 8.00 158.00 20.50 C 158.00 33.00 158.00 33.00 136.00 33.00 C 114.00 33.00 114.00 33.00 114.00 37.50 C 114.00 42.00 114.00 42.00 136.00 42.00 C 158.00 42.00 158.00 42.00 158.00 51.00 C 158.00 60.00 158.00 60.00 138.50 60.00 C 119.00 60.00 119.00 60.00 119.00 64.00 C 119.00 68.00 119.00 68.00 138.50 68.00 C 158.00 68.00 158.00 68.00 158.00 78.50 C 158.00 89.00 158.00 89.00 133.00 89.00 C 108.00 89.00 108.00 89.00 108.00 93.50 C 108.00 98.00 108.00 98.00 168.00 98.00 C 228.00 98.00 228.00 98.00 228.00 93.50 Z  M 50.00 114.00 C 50.00 43.00 50.00 43.00 69.50 43.00 C 89.00 43.00 89.00 43.00 89.00 114.00 C 89.00 185.00 89.00 185.00 69.50 185.00 C 50.00 185.00 50.00 185.00 50.00 114.00 Z  M 81.81 128.75 C 81.50 124.50 81.50 124.50 69.25 124.22 C 57.00 123.94 57.00 123.94 57.00 128.47 C 57.00 133.00 57.00 133.00 69.56 133.00 C 82.11 133.00 82.11 133.00 81.81 128.75 Z  M 81.81 83.25 C 82.11 79.00 82.11 79.00 69.56 79.00 C 57.00 79.00 57.00 79.00 57.00 83.53 C 57.00 88.06 57.00 88.06 69.25 87.78 C 81.50 87.50 81.50 87.50 81.81 83.25 Z "/>
</g>
</svg>