<?xml version="1.0" encoding="UTF-8" standalone="no"?>
<!DOCTYPE svg PUBLIC "-//W3C//DTD SVG 1.1//EN" "http://www.w3.org/Graphics/SVG/1.1/DTD/svg11.dtd" >
<svg xmlns="http://www.w3.org/2000/svg" xmlns:xlink="http://www.w3.org/1999/xlink" version="1.1" viewBox="0 0 256 256">
 <g >
 <path fill="currentColor"
d=" M 232.00 233.50 C 232.00 229.00 232.00 229.00 214.00 229.00 C 196.00 229.00 196.00 229.00 196.00 143.00 C 196.00 57.00 196.00 57.00 121.50 57.00 C 47.00 57.00 47.00 57.00 47.00 61.50 C 47.00 66.00 47.00 66.00 116.50 66.00 C 186.00 66.00 186.00 66.00 186.00 147.50 C 186.00 229.00 186.00 229.00 119.00 229.00 C 52.00 229.00 52.00 229.00 52.00 212.00 C 52.00 195.00 52.00 195.00 47.50 195.00 C 43.00 195.00 43.00 195.00 43.00 216.50 C 43.00 238.00 43.00 238.00 137.50 238.00 C 232.00 238.00 232.00 238.00 232.00 233.50 Z  M 131.00 27.50 C 131.00 8.00 131.00 8.00 126.50 8.00 C 122.00 8.00 122.00 8.00 122.00 27.50 C 122.00 47.00 122.00 47.00 126.50 47.00 C 131.00 47.00 131.00 47.00 131.00 27.50 Z "/>
</g>
</svg>