<?xml version="1.0" encoding="UTF-8" standalone="no"?>
<!DOCTYPE svg PUBLIC "-//W3C//DTD SVG 1.1//EN" "http://www.w3.org/Graphics/SVG/1.1/DTD/svg11.dtd" >
<svg xmlns="http://www.w3.org/2000/svg" xmlns:xlink="http://www.w3.org/1999/xlink" version="1.1" viewBox="0 0 256 256">
 <g >
 <path fill="currentColor"
d=" M 209.00 143.00 C 209.00 42.00 209.00 42.00 136.00 42.00 C 63.00 42.00 63.00 42.00 63.00 24.50 C 63.00 7.00 63.00 7.00 58.01 7.00 C 53.02 7.00 53.02 7.00 52.76 43.75 C 52.50 80.50 52.50 80.50 35.25 80.77 C 18.00 81.05 18.00 81.05 18.00 85.54 C 18.00 90.04 18.00 90.04 40.25 89.77 C 62.50 89.50 62.50 89.50 62.77 70.75 C 63.04 52.00 63.04 52.00 131.52 52.00 C 200.00 52.00 200.00 52.00 200.00 143.00 C 200.00 234.00 200.00 234.00 156.00 234.00 C 112.00 234.00 112.00 234.00 112.00 239.00 C 112.00 244.00 112.00 244.00 160.50 244.00 C 209.00 244.00 209.00 244.00 209.00 143.00 Z  M 174.00 168.00 C 174.00 163.00 174.00 163.00 115.50 163.00 C 57.00 163.00 57.00 163.00 57.00 168.00 C 57.00 173.00 57.00 173.00 115.50 173.00 C 174.00 173.00 174.00 173.00 174.00 168.00 Z  M 118.00 109.00 C 118.00 80.00 118.00 80.00 113.50 80.00 C 109.00 80.00 109.00 80.00 109.00 109.00 C 109.00 138.00 109.00 138.00 113.50 138.00 C 118.00 138.00 118.00 138.00 118.00 109.00 Z "/>
</g>
</svg>