<?xml version="1.0" encoding="UTF-8" standalone="no"?>
<!DOCTYPE svg PUBLIC "-//W3C//DTD SVG 1.1//EN" "http://www.w3.org/Graphics/SVG/1.1/DTD/svg11.dtd" >
<svg xmlns="http://www.w3.org/2000/svg" xmlns:xlink="http://www.w3.org/1999/xlink" version="1.1" viewBox="0 0 256 256">
 <g >
 <path fill="currentColor"
d=" M 158.00 212.00 C 158.00 177.00 158.00 177.00 132.50 177.00 C 107.00 177.00 107.00 177.00 107.00 183.50 C 107.00 190.00 107.00 190.00 112.00 190.00 C 115.78 190.00 117.00 189.63 117.00 188.50 C 117.00 187.23 119.39 187.00 132.54 187.00 C 148.08 187.00 148.08 187.00 148.00 216.25 C 147.95 232.34 147.94 245.84 147.96 246.25 C 147.98 246.66 150.25 247.00 153.00 247.00 C 158.00 247.00 158.00 247.00 158.00 212.00 Z  M 178.42 217.00 C 177.70 187.00 177.70 187.00 192.35 187.00 C 206.33 187.00 207.00 187.09 207.00 189.00 C 207.00 190.73 207.67 191.00 212.00 191.00 C 217.00 191.00 217.00 191.00 217.00 184.00 C 217.00 177.00 217.00 177.00 192.00 177.00 C 167.00 177.00 167.00 177.00 167.00 212.00 C 167.00 247.00 167.00 247.00 173.07 247.00 C 179.14 247.00 179.14 247.00 178.42 217.00 Z  M 53.00 165.76 C 53.00 86.51 53.00 86.51 47.36 96.01 C 41.81 105.35 33.37 116.69 24.66 126.50 C 20.22 131.49 20.22 131.49 23.14 137.27 C 26.06 143.06 26.06 143.06 29.83 138.70 C 31.90 136.30 35.83 131.50 38.55 128.03 C 42.99 122.36 43.54 121.96 43.86 124.11 C 44.06 125.42 44.04 153.16 43.82 185.75 C 43.41 245.00 43.41 245.00 48.20 245.00 C 53.00 245.00 53.00 245.00 53.00 165.76 Z  M 72.25 162.26 C 72.05 92.53 71.79 79.45 70.61 79.01 C 69.52 78.61 70.38 75.61 74.46 65.50 C 80.85 49.70 91.00 22.05 91.00 20.48 C 91.00 19.86 88.72 18.82 85.92 18.17 C 79.38 16.66 79.00 16.69 79.00 18.62 C 79.00 21.85 64.92 62.78 61.07 70.73 C 57.23 78.68 57.18 78.89 59.32 79.19 C 61.50 79.50 61.50 79.50 61.76 162.25 C 62.01 245.00 62.01 245.00 67.26 245.00 C 72.50 245.00 72.50 245.00 72.25 162.26 Z  M 236.50 124.51 C 236.50 58.03 236.50 58.03 207.50 57.76 C 178.50 57.50 178.50 57.50 178.81 36.25 C 179.13 15.00 179.13 15.00 173.05 15.00 C 166.97 15.00 166.97 15.00 167.23 41.25 C 167.50 67.50 167.50 67.50 196.75 67.77 C 226.00 68.03 226.00 68.03 226.00 129.52 C 226.00 191.00 226.00 191.00 231.25 191.00 C 236.50 191.00 236.50 191.00 236.50 124.51 Z  M 98.00 129.00 C 98.00 68.00 98.00 68.00 128.00 68.00 C 158.00 68.00 158.00 68.00 158.00 41.50 C 158.00 15.00 158.00 15.00 152.75 15.00 C 147.50 15.00 147.50 15.00 147.81 36.50 C 148.11 58.00 148.11 58.00 117.81 58.00 C 87.50 58.00 87.50 58.00 87.50 124.00 C 87.50 190.00 87.50 190.00 92.75 190.00 C 98.00 190.00 98.00 190.00 98.00 129.00 Z  M 158.00 147.00 C 158.00 125.00 158.00 125.00 132.50 125.00 C 107.00 125.00 107.00 125.00 107.00 147.00 C 107.00 169.00 107.00 169.00 132.50 169.00 C 158.00 169.00 158.00 169.00 158.00 147.00 Z  M 217.00 146.98 C 217.00 124.97 217.00 124.97 192.25 125.23 C 167.50 125.50 167.50 125.50 167.23 147.25 C 166.96 169.00 166.96 169.00 191.98 169.00 C 217.00 169.00 217.00 169.00 217.00 146.98 Z  M 23.45 113.19 C 38.85 95.37 44.95 85.72 53.61 65.47 C 59.56 51.57 64.64 36.98 68.33 23.22 C 70.81 13.95 70.81 13.95 67.16 12.42 C 60.10 9.47 59.90 9.61 57.87 18.91 C 55.26 30.89 45.69 58.67 40.89 68.21 C 33.42 83.08 25.78 94.30 16.82 103.57 C 8.05 112.65 8.05 112.65 11.27 117.31 C 13.05 119.88 14.80 121.98 15.17 121.99 C 15.53 122.00 19.26 118.03 23.45 113.19 Z  M 158.00 96.00 C 158.00 75.00 158.00 75.00 132.50 75.00 C 107.00 75.00 107.00 75.00 107.00 96.00 C 107.00 117.00 107.00 117.00 132.50 117.00 C 158.00 117.00 158.00 117.00 158.00 96.00 Z  M 217.00 95.98 C 217.00 74.97 217.00 74.97 192.25 75.23 C 167.50 75.50 167.50 75.50 167.23 96.25 C 166.96 117.00 166.96 117.00 191.98 117.00 C 217.00 117.00 217.00 117.00 217.00 95.98 Z  M 117.00 147.00 C 117.00 135.00 117.00 135.00 132.50 135.00 C 148.00 135.00 148.00 135.00 148.00 147.00 C 148.00 159.00 148.00 159.00 132.50 159.00 C 117.00 159.00 117.00 159.00 117.00 147.00 Z  M 178.00 147.00 C 178.00 135.00 178.00 135.00 192.50 135.00 C 207.00 135.00 207.00 135.00 207.00 147.00 C 207.00 159.00 207.00 159.00 192.50 159.00 C 178.00 159.00 178.00 159.00 178.00 147.00 Z  M 117.00 96.50 C 117.00 85.00 117.00 85.00 132.50 85.00 C 148.00 85.00 148.00 85.00 148.00 96.50 C 148.00 108.00 148.00 108.00 132.50 108.00 C 117.00 108.00 117.00 108.00 117.00 96.50 Z  M 178.22 96.75 C 178.50 85.50 178.50 85.50 192.75 85.22 C 207.00 84.95 207.00 84.95 207.00 96.47 C 207.00 108.00 207.00 108.00 192.47 108.00 C 177.93 108.00 177.93 108.00 178.22 96.75 Z "/>
</g>
</svg>