<?xml version="1.0" encoding="UTF-8" standalone="no"?>
<!DOCTYPE svg PUBLIC "-//W3C//DTD SVG 1.1//EN" "http://www.w3.org/Graphics/SVG/1.1/DTD/svg11.dtd" >
<svg xmlns="http://www.w3.org/2000/svg" xmlns:xlink="http://www.w3.org/1999/xlink" version="1.1" viewBox="0 0 256 256">
 <g >
 <path fill="currentColor"
d=" M 102.17 140.00 C 101.84 37.00 101.84 37.00 165.92 37.00 C 230.00 37.00 230.00 37.00 230.00 140.00 C 230.00 243.00 230.00 243.00 235.75 243.00 C 241.50 243.00 241.50 243.00 241.50 135.25 C 241.50 27.50 241.50 27.50 166.50 27.50 C 91.50 27.50 91.50 27.50 91.50 135.25 C 91.50 243.00 91.50 243.00 97.00 243.00 C 102.50 243.00 102.50 243.00 102.17 140.00 Z  M 120.82 240.25 C 121.14 238.00 121.14 238.00 165.57 238.00 C 210.00 238.00 210.00 238.00 210.00 240.50 C 210.00 242.89 210.27 243.00 216.00 243.00 C 222.00 243.00 222.00 243.00 222.00 236.00 C 222.00 229.00 222.00 229.00 166.50 229.00 C 111.00 229.00 111.00 229.00 111.00 236.05 C 111.00 243.11 111.00 243.11 115.75 242.80 C 119.80 242.54 120.55 242.17 120.82 240.25 Z  M 42.86 232.06 C 51.79 216.96 74.04 170.22 80.09 153.82 C 82.93 146.14 82.93 146.14 78.44 144.42 C 75.97 143.48 73.79 142.89 73.58 143.11 C 73.37 143.32 69.75 151.82 65.54 162.00 C 55.84 185.44 42.99 211.66 34.99 224.34 C 28.78 234.18 28.78 234.18 32.09 237.59 C 33.90 239.46 35.88 241.00 36.48 241.00 C 37.07 241.00 39.94 236.98 42.86 232.06 Z  M 28.16 215.75 C 37.93 201.02 48.16 180.40 58.90 153.76 C 66.86 134.03 66.86 134.03 63.20 131.01 C 61.19 129.36 59.29 128.00 58.98 128.00 C 58.66 128.00 57.46 130.81 56.30 134.25 C 47.34 160.75 28.42 199.24 16.62 214.95 C 11.75 221.44 11.75 221.44 15.54 224.72 C 17.63 226.52 19.49 228.00 19.68 228.00 C 19.87 228.00 23.69 222.49 28.16 215.75 Z  M 222.00 133.00 C 222.00 46.00 222.00 46.00 166.50 46.00 C 111.00 46.00 111.00 46.00 111.00 85.50 C 111.00 125.00 111.00 125.00 157.00 125.00 C 203.00 125.00 203.00 125.00 203.00 120.00 C 203.00 115.00 203.00 115.00 162.00 115.00 C 121.00 115.00 121.00 115.00 121.00 85.00 C 121.00 55.00 121.00 55.00 165.50 55.00 C 210.00 55.00 210.00 55.00 210.00 133.00 C 210.00 211.00 210.00 211.00 165.50 211.00 C 121.00 211.00 121.00 211.00 121.00 176.87 C 121.00 142.75 121.00 142.75 162.00 143.18 C 203.00 143.60 203.00 143.60 203.00 138.30 C 203.00 133.00 203.00 133.00 157.00 133.00 C 111.00 133.00 111.00 133.00 111.00 176.50 C 111.00 220.00 111.00 220.00 166.50 220.00 C 222.00 220.00 222.00 220.00 222.00 133.00 Z  M 52.24 116.18 C 53.98 113.23 53.98 113.23 46.24 107.28 C 37.17 100.30 17.46 87.00 16.19 87.00 C 15.24 87.00 11.42 94.80 12.09 95.36 C 12.32 95.54 15.28 97.55 18.68 99.83 C 22.08 102.11 29.90 108.04 36.07 113.01 C 48.36 122.91 48.28 122.90 52.24 116.18 Z  M 61.81 99.93 C 63.95 96.35 63.95 96.35 57.22 91.30 C 49.04 85.16 25.92 69.72 25.59 70.17 C 25.45 70.35 24.28 72.27 22.98 74.43 C 20.73 78.16 20.71 78.41 22.43 79.43 C 25.88 81.46 52.47 100.22 55.37 102.66 C 58.52 105.31 58.63 105.26 61.81 99.93 Z  M 73.91 58.80 C 75.61 56.49 77.00 54.28 77.00 53.87 C 77.00 53.05 51.96 35.70 43.97 30.98 C 38.17 27.56 37.30 27.80 33.74 33.86 C 31.98 36.85 31.98 36.85 39.24 40.86 C 47.74 45.55 58.64 53.18 65.00 58.88 C 67.47 61.10 69.80 62.93 70.16 62.96 C 70.53 62.98 72.22 61.11 73.91 58.80 Z  M 84.03 42.96 C 87.18 38.98 87.20 38.88 85.37 36.85 C 83.24 34.49 49.15 11.43 48.76 12.08 C 43.52 20.70 43.30 20.17 55.30 28.28 C 61.46 32.45 69.42 38.33 73.00 41.36 C 76.58 44.39 79.80 46.90 80.17 46.93 C 80.53 46.97 82.27 45.18 84.03 42.96 Z "/>
</g>
</svg>