<?xml version="1.0" encoding="UTF-8" standalone="no"?>
<!DOCTYPE svg PUBLIC "-//W3C//DTD SVG 1.1//EN" "http://www.w3.org/Graphics/SVG/1.1/DTD/svg11.dtd" >
<svg xmlns="http://www.w3.org/2000/svg" xmlns:xlink="http://www.w3.org/1999/xlink" version="1.1" viewBox="0 0 256 256">
 <g >
 <path fill="currentColor"
d=" M 232.45 243.77 C 234.01 240.03 234.01 240.03 226.76 236.39 C 204.70 225.33 187.03 208.01 170.51 181.25 C 167.37 176.16 164.67 172.00 164.50 172.00 C 164.34 172.00 162.37 177.79 160.12 184.87 C 152.56 208.62 144.82 216.14 110.00 233.53 C 104.78 236.14 100.34 238.42 100.14 238.59 C 99.83 238.85 101.48 241.75 104.78 246.73 C 105.79 248.25 119.10 243.51 125.36 239.40 C 140.91 229.18 155.95 214.13 162.46 202.28 C 167.41 193.27 167.41 193.27 175.05 204.88 C 182.83 216.70 191.84 226.45 202.00 234.05 C 208.54 238.94 229.10 249.30 230.16 248.24 C 230.56 247.83 231.60 245.82 232.45 243.77 Z  M 42.29 233.48 C 49.76 223.79 59.28 207.14 63.29 196.76 C 64.50 193.61 65.77 191.02 66.10 191.01 C 66.72 191.00 84.90 211.33 88.78 216.38 C 91.52 219.94 91.62 222.00 89.06 222.00 C 85.69 222.00 86.04 223.40 90.64 228.27 C 95.11 233.00 95.11 233.00 105.43 228.12 C 129.26 216.89 143.30 204.37 152.39 186.26 C 154.71 181.64 158.00 169.43 158.00 165.43 C 158.00 164.22 152.87 164.00 124.00 164.00 C 90.00 164.00 90.00 164.00 90.00 169.00 C 90.00 174.00 90.00 174.00 117.50 174.00 C 133.05 174.00 145.00 174.39 145.00 174.90 C 145.00 177.65 138.60 190.84 135.00 195.50 C 130.46 201.38 119.79 209.97 111.00 214.82 C 105.97 217.60 93.30 221.63 92.40 220.74 C 92.20 220.53 93.60 218.84 95.51 216.99 C 97.43 215.13 99.00 213.25 99.00 212.82 C 99.00 211.30 78.99 188.17 73.81 183.70 C 68.56 179.19 68.56 179.19 69.73 172.34 C 70.38 168.58 71.64 152.90 72.53 137.50 C 74.16 109.50 74.16 109.50 80.71 92.50 C 88.40 72.56 91.00 65.18 91.00 63.36 C 91.00 62.19 83.18 57.39 82.56 58.18 C 82.42 58.36 81.82 60.98 81.23 64.00 C 80.65 67.03 79.02 72.42 77.63 76.00 C 75.09 82.50 75.09 82.50 75.29 46.75 C 75.50 11.00 75.50 11.00 69.75 11.00 C 64.00 11.00 64.00 11.00 63.98 63.25 C 63.94 136.73 62.78 155.78 56.91 178.67 C 51.83 198.52 42.78 217.41 31.86 230.98 C 27.21 236.75 27.21 236.75 30.34 239.87 C 32.06 241.59 33.80 243.00 34.20 243.00 C 34.61 243.00 38.25 238.71 42.29 233.48 Z  M 243.71 222.77 C 245.13 221.20 245.10 220.98 243.39 220.38 C 235.86 217.73 224.40 212.58 219.02 209.43 C 207.14 202.47 190.43 184.54 188.44 176.63 C 187.78 174.00 187.78 174.00 215.89 174.00 C 244.00 174.00 244.00 174.00 244.00 169.00 C 244.00 164.00 244.00 164.00 208.00 164.00 C 188.09 164.00 172.00 164.39 172.00 164.88 C 172.00 166.86 181.24 185.46 184.91 190.86 C 193.20 203.07 207.01 214.88 226.65 226.57 C 237.37 232.94 237.37 232.94 239.76 228.72 C 241.08 226.40 242.86 223.72 243.71 222.77 Z  M 30.39 218.07 C 46.33 195.92 52.83 174.53 55.01 137.00 C 55.54 127.92 55.98 95.92 55.99 65.88 C 56.00 11.26 56.00 11.26 52.25 10.64 C 44.02 9.28 44.77 2.93 45.56 67.25 C 46.27 125.62 45.73 143.27 42.44 168.35 C 40.70 181.66 39.60 185.88 35.96 193.24 C 31.39 202.46 27.24 207.96 18.14 216.85 C 11.54 223.29 9.93 225.39 11.05 226.04 C 11.85 226.51 14.07 228.02 16.00 229.40 C 19.50 231.91 19.50 231.91 22.19 228.81 C 23.67 227.11 27.36 222.27 30.39 218.07 Z  M 110.40 203.11 C 112.24 201.08 112.22 200.98 109.50 197.27 C 107.98 195.20 100.64 187.52 93.18 180.20 C 79.63 166.91 79.63 166.91 76.69 169.85 C 73.74 172.80 73.74 172.80 82.86 182.02 C 87.88 187.09 94.99 194.76 98.67 199.06 C 105.76 207.33 106.38 207.55 110.40 203.11 Z  M 113.00 117.52 C 113.00 79.03 113.00 79.03 139.22 78.77 C 165.44 78.50 165.44 78.50 172.78 65.50 C 176.82 58.35 181.23 50.59 182.60 48.25 C 185.08 44.00 185.08 44.00 158.72 44.00 C 132.35 44.00 132.35 44.00 125.93 52.03 C 122.39 56.44 117.80 61.24 115.73 62.68 C 112.30 65.06 112.10 65.45 113.48 66.98 C 114.32 67.90 115.00 68.96 115.00 69.33 C 115.00 70.77 107.71 69.89 104.00 68.00 C 101.84 66.90 99.72 66.00 99.29 66.00 C 98.86 66.00 96.97 70.39 95.10 75.75 C 93.23 81.11 89.23 91.26 86.22 98.29 C 83.21 105.32 80.92 111.17 81.13 111.29 C 81.35 111.41 83.16 113.00 85.15 114.84 C 88.79 118.18 88.79 118.18 95.98 99.84 C 99.93 89.75 103.36 81.31 103.59 81.08 C 103.81 80.85 104.00 95.65 104.00 113.97 C 104.00 147.27 104.00 147.27 97.00 146.77 C 90.00 146.27 90.00 146.27 90.00 151.13 C 90.00 156.00 90.00 156.00 101.50 156.00 C 113.00 156.00 113.00 156.00 113.00 117.52 Z  M 159.76 120.75 C 160.03 86.00 160.03 86.00 140.51 86.00 C 121.00 86.00 121.00 86.00 121.00 121.02 C 121.00 156.04 121.00 156.04 140.25 155.77 C 159.50 155.50 159.50 155.50 159.76 120.75 Z  M 209.00 120.98 C 209.00 85.96 209.00 85.96 188.75 86.23 C 168.50 86.50 168.50 86.50 167.92 119.50 C 167.60 137.65 166.99 153.29 166.56 154.25 C 165.84 155.89 167.19 156.00 187.39 156.00 C 209.00 156.00 209.00 156.00 209.00 120.98 Z  M 244.00 151.11 C 244.00 146.22 244.00 146.22 235.38 146.76 C 226.76 147.30 226.76 147.30 227.16 108.65 C 227.56 70.00 227.56 70.00 209.28 70.00 C 199.23 70.00 191.00 69.62 191.00 69.15 C 191.00 68.69 195.30 61.67 200.55 53.56 C 210.09 38.81 210.09 38.81 205.93 33.40 C 201.76 28.00 201.76 28.00 177.88 28.00 C 160.35 28.00 154.00 27.69 154.00 26.83 C 154.00 26.19 155.57 22.80 157.50 19.31 C 161.39 12.21 161.45 12.33 153.49 10.60 C 150.50 9.95 150.46 10.00 144.24 22.48 C 140.81 29.38 138.00 35.24 138.00 35.51 C 138.00 35.78 147.16 36.00 158.35 36.00 C 186.57 36.00 193.75 36.68 195.63 39.55 C 197.02 41.68 196.51 42.70 185.99 58.98 C 179.87 68.43 174.63 76.80 174.33 77.58 C 173.87 78.78 177.15 79.00 195.39 79.00 C 217.00 79.00 217.00 79.00 217.00 117.50 C 217.00 156.00 217.00 156.00 230.50 156.00 C 244.00 156.00 244.00 156.00 244.00 151.11 Z  M 16.18 139.56 C 20.73 138.79 20.69 138.97 21.98 116.00 C 23.43 90.35 23.31 64.03 21.75 63.55 C 21.06 63.34 18.70 62.92 16.50 62.61 C 12.50 62.06 12.50 62.06 12.45 90.78 C 12.41 116.30 11.37 132.67 9.36 139.35 C 8.93 140.78 9.22 141.08 10.65 140.69 C 11.67 140.40 14.15 139.90 16.18 139.56 Z  M 37.34 135.25 C 39.18 120.71 40.08 102.20 39.81 84.50 C 39.50 64.50 39.50 64.50 35.46 64.20 C 31.41 63.91 31.41 63.91 29.68 96.70 C 27.43 139.31 27.42 138.75 30.25 139.29 C 36.36 140.47 36.71 140.27 37.34 135.25 Z  M 114.11 54.25 C 118.27 49.99 123.15 44.57 124.95 42.21 C 131.50 33.64 142.90 10.40 141.26 8.94 C 140.62 8.38 132.06 6.00 130.67 6.00 C 130.42 6.00 129.92 7.69 129.56 9.75 C 129.20 11.81 126.41 18.63 123.36 24.90 C 118.84 34.20 116.59 37.54 111.16 42.99 C 107.50 46.66 103.19 50.57 101.59 51.69 C 98.67 53.71 98.67 53.71 102.00 57.86 C 103.84 60.14 105.61 62.00 105.94 62.00 C 106.27 62.00 109.95 58.51 114.11 54.25 Z  M 124.17 69.10 C 124.35 68.61 127.32 64.79 130.76 60.60 C 137.03 53.00 137.03 53.00 153.58 53.00 C 170.13 53.00 170.13 53.00 168.01 56.75 C 166.85 58.81 164.34 62.64 162.44 65.25 C 158.98 70.00 158.98 70.00 141.41 70.00 C 131.48 70.00 123.98 69.61 124.17 69.10 Z  M 130.23 121.25 C 130.50 95.50 130.50 95.50 140.87 95.21 C 151.24 94.93 151.24 94.93 150.55 119.21 C 150.17 132.57 149.63 144.29 149.36 145.25 C 148.93 146.76 147.56 147.00 139.42 147.00 C 129.97 147.00 129.97 147.00 130.23 121.25 Z  M 176.72 122.25 C 176.95 108.64 177.32 96.94 177.54 96.25 C 177.83 95.35 181.02 95.00 188.97 95.00 C 200.00 95.00 200.00 95.00 200.00 121.00 C 200.00 147.00 200.00 147.00 188.15 147.00 C 176.30 147.00 176.30 147.00 176.72 122.25 Z "/>
</g>
</svg>