<?xml version="1.0" encoding="UTF-8" standalone="no"?>
<!DOCTYPE svg PUBLIC "-//W3C//DTD SVG 1.1//EN" "http://www.w3.org/Graphics/SVG/1.1/DTD/svg11.dtd" >
<svg xmlns="http://www.w3.org/2000/svg" xmlns:xlink="http://www.w3.org/1999/xlink" version="1.1" viewBox="0 0 256 256">
 <g >
 <path fill="currentColor"
d=" M 204.34 243.93 C 223.36 240.85 227.71 237.89 229.94 226.53 C 230.53 223.49 231.04 181.03 231.21 119.25 C 231.50 17.00 231.50 17.00 226.25 17.00 C 221.00 17.00 221.00 17.00 221.00 116.68 C 221.00 215.71 220.99 216.40 218.91 220.68 C 215.09 228.58 209.99 230.85 189.75 233.70 C 176.73 235.52 177.29 235.05 178.64 243.26 C 179.27 247.03 179.27 247.03 185.88 246.44 C 189.52 246.12 197.83 244.99 204.34 243.93 Z  M 42.34 227.10 C 52.45 219.79 61.38 210.58 71.32 197.19 C 79.87 185.68 85.72 176.13 89.06 168.19 C 90.86 163.93 91.54 163.13 92.50 164.19 C 94.32 166.18 114.32 202.64 117.48 209.74 C 120.26 215.98 120.26 215.98 123.88 213.93 C 132.19 209.22 132.02 209.96 127.08 200.72 C 106.66 162.52 91.73 136.84 90.64 138.07 C 90.44 138.31 88.37 143.00 86.05 148.50 C 71.67 182.64 57.16 201.14 27.13 223.63 C 26.42 224.16 32.09 233.00 33.14 233.00 C 33.72 233.00 37.86 230.35 42.34 227.10 Z  M 193.50 223.41 C 203.18 222.55 208.68 220.02 210.53 215.57 C 211.79 212.57 212.00 197.97 212.00 114.53 C 212.00 17.00 212.00 17.00 206.75 17.00 C 201.50 17.00 201.50 17.00 201.50 112.64 C 201.50 224.70 203.67 212.37 183.94 212.45 C 172.37 212.50 171.93 212.58 172.54 214.50 C 172.88 215.60 173.66 218.45 174.27 220.83 C 175.37 225.15 175.37 225.15 180.94 224.60 C 184.00 224.29 189.65 223.76 193.50 223.41 Z  M 29.31 210.82 C 40.71 202.21 53.61 188.98 59.83 179.50 C 66.11 169.93 76.46 149.83 81.29 137.83 C 84.78 129.16 84.78 129.16 77.96 117.83 C 74.21 111.60 62.22 93.81 51.32 78.30 C 40.42 62.80 30.99 49.30 30.37 48.30 C 29.29 46.59 29.00 46.63 24.62 48.98 C 22.08 50.34 20.00 51.54 20.00 51.65 C 20.00 52.28 38.48 80.74 53.78 103.67 C 71.74 130.59 71.74 130.59 68.07 140.04 C 61.49 156.97 49.47 176.29 37.97 188.40 C 32.86 193.78 28.65 196.99 21.55 200.92 C 12.00 206.21 12.00 206.21 15.25 210.19 C 17.04 212.38 18.95 214.81 19.49 215.59 C 20.04 216.36 20.63 217.00 20.80 217.00 C 20.98 217.00 24.80 214.22 29.31 210.82 Z  M 149.00 198.87 C 149.00 197.71 138.92 180.59 121.94 152.94 C 113.18 138.66 106.00 126.59 106.00 126.12 C 106.00 125.65 107.85 120.37 110.12 114.39 C 115.32 100.63 116.60 96.21 124.49 65.00 C 131.56 37.04 133.81 25.39 132.40 24.04 C 131.91 23.56 129.41 22.86 126.85 22.48 C 122.20 21.80 122.20 21.80 119.52 33.65 C 111.33 69.79 102.63 103.13 95.90 124.14 C 94.75 127.72 94.88 128.04 103.71 142.64 C 108.65 150.81 118.44 168.16 125.47 181.18 C 138.24 204.86 138.24 204.86 143.62 202.22 C 146.58 200.77 149.00 199.26 149.00 198.87 Z  M 164.00 115.00 C 164.00 43.00 164.00 43.00 158.75 43.00 C 153.50 43.00 153.50 43.00 153.50 115.00 C 153.50 187.00 153.50 187.00 158.75 187.00 C 164.00 187.00 164.00 187.00 164.00 115.00 Z  M 183.00 115.00 C 183.00 43.00 183.00 43.00 178.00 43.00 C 173.00 43.00 173.00 43.00 173.00 115.00 C 173.00 187.00 173.00 187.00 178.00 187.00 C 183.00 187.00 183.00 187.00 183.00 115.00 Z  M 95.37 96.00 C 102.07 74.65 105.07 62.41 109.60 38.00 C 113.36 17.77 113.48 18.91 107.50 17.35 C 104.75 16.63 102.24 16.03 101.93 16.02 C 101.62 16.01 100.35 22.90 99.12 31.32 C 97.89 39.75 95.83 50.67 94.56 55.57 C 91.86 65.94 84.14 92.19 83.65 92.68 C 83.46 92.87 80.69 89.08 77.49 84.26 C 67.28 68.89 46.85 39.57 45.02 37.65 C 43.30 35.86 43.13 35.89 39.14 38.52 C 36.88 40.02 35.26 41.61 35.54 42.06 C 35.82 42.51 44.89 55.39 55.70 70.69 C 66.51 85.99 78.27 102.99 81.85 108.49 C 85.42 113.98 88.48 118.03 88.65 117.49 C 88.81 116.94 91.84 107.28 95.37 96.00 Z "/>
</g>
</svg>