<?xml version="1.0" encoding="UTF-8" standalone="no"?>
<!DOCTYPE svg PUBLIC "-//W3C//DTD SVG 1.1//EN" "http://www.w3.org/Graphics/SVG/1.1/DTD/svg11.dtd" >
<svg xmlns="http://www.w3.org/2000/svg" xmlns:xlink="http://www.w3.org/1999/xlink" version="1.1" viewBox="0 0 256 256">
 <g >
 <path fill="currentColor"
d=" M 185.00 245.93 C 202.50 242.48 215.14 234.30 220.74 222.81 C 226.18 211.64 226.79 205.35 227.44 153.50 C 227.76 127.65 228.30 103.24 228.65 99.25 C 229.27 92.00 229.27 92.00 158.61 92.00 C 87.95 92.00 87.95 92.00 89.47 89.05 C 90.31 87.43 91.00 85.91 91.00 85.67 C 91.00 85.21 82.81 83.00 81.14 83.00 C 80.60 83.00 77.90 86.94 75.14 91.75 C 70.11 100.50 70.11 100.50 143.62 100.76 C 217.13 101.01 217.13 101.01 216.80 152.26 C 216.47 202.90 216.44 203.58 214.15 209.96 C 210.86 219.14 207.30 224.78 202.96 227.64 C 197.31 231.39 186.32 234.74 173.76 236.56 C 167.57 237.45 162.19 238.48 161.82 238.84 C 161.45 239.20 161.64 241.65 162.25 244.28 C 163.35 249.06 163.35 249.06 169.43 248.43 C 172.77 248.09 179.77 246.97 185.00 245.93 Z  M 176.50 227.42 C 188.73 225.43 193.99 223.55 198.72 219.51 C 203.72 215.22 206.53 208.78 207.87 198.50 C 208.44 194.10 209.14 171.94 209.42 149.25 C 209.94 108.00 209.94 108.00 138.11 108.00 C 66.29 108.00 66.29 108.00 57.74 119.25 C 53.04 125.44 44.93 135.02 39.71 140.54 C 30.22 150.58 30.22 150.58 33.73 154.40 C 37.23 158.23 37.23 158.23 46.72 148.86 C 51.94 143.71 59.98 134.44 64.60 128.25 C 72.99 117.00 72.99 117.00 135.65 117.00 C 198.30 117.00 198.30 117.00 197.73 156.25 C 197.01 205.49 196.16 210.27 187.50 214.10 C 184.19 215.57 179.74 216.19 169.04 216.67 C 159.44 217.11 155.09 217.66 155.40 218.41 C 155.65 219.01 156.66 221.89 157.63 224.80 C 159.64 230.84 157.38 230.53 176.50 227.42 Z  M 165.50 171.00 C 165.50 134.50 165.50 134.50 116.75 134.50 C 68.00 134.50 68.00 134.50 68.00 171.00 C 68.00 207.50 68.00 207.50 116.75 207.50 C 165.50 207.50 165.50 207.50 165.50 171.00 Z  M 35.15 133.25 C 46.26 121.83 55.90 110.18 61.57 101.33 C 66.47 93.66 75.01 78.39 74.96 77.36 C 74.93 76.67 71.19 74.59 63.93 71.22 C 63.60 71.07 62.49 73.74 61.45 77.16 C 56.92 92.11 37.28 118.49 21.98 130.15 C 15.03 135.46 15.03 135.46 19.22 139.73 C 21.53 142.08 23.70 144.00 24.05 144.00 C 24.40 144.00 29.39 139.16 35.15 133.25 Z  M 155.00 69.00 C 155.00 54.00 155.00 54.00 125.50 54.00 C 96.00 54.00 96.00 54.00 96.00 67.50 C 96.00 81.00 96.00 81.00 101.50 81.00 C 107.00 81.00 107.00 81.00 107.00 72.50 C 107.00 64.00 107.00 64.00 126.00 64.00 C 145.00 64.00 145.00 64.00 145.00 74.00 C 145.00 84.00 145.00 84.00 150.00 84.00 C 155.00 84.00 155.00 84.00 155.00 69.00 Z  M 174.45 74.00 C 173.74 64.00 173.74 64.00 205.37 64.00 C 237.00 64.00 237.00 64.00 237.00 59.00 C 237.00 54.00 237.00 54.00 200.00 54.00 C 163.00 54.00 163.00 54.00 163.00 69.00 C 163.00 84.00 163.00 84.00 169.08 84.00 C 175.16 84.00 175.16 84.00 174.45 74.00 Z  M 88.00 67.50 C 88.00 54.00 88.00 54.00 52.00 54.00 C 16.00 54.00 16.00 54.00 16.00 59.00 C 16.00 64.00 16.00 64.00 47.00 64.00 C 78.00 64.00 78.00 64.00 78.00 70.06 C 78.00 77.65 80.03 80.92 84.75 80.97 C 88.00 81.00 88.00 81.00 88.00 67.50 Z  M 87.78 30.25 C 88.05 15.00 88.05 15.00 83.06 15.00 C 78.07 15.00 78.07 15.00 77.78 25.75 C 77.50 36.50 77.50 36.50 46.75 36.41 C 16.00 36.32 16.00 36.32 16.00 41.17 C 16.00 46.03 16.00 46.03 51.75 45.76 C 87.50 45.50 87.50 45.50 87.78 30.25 Z  M 155.00 30.50 C 155.00 15.00 155.00 15.00 149.75 15.00 C 144.50 15.00 144.50 15.00 144.81 26.00 C 145.12 37.00 145.12 37.00 126.00 37.00 C 106.88 37.00 106.88 37.00 107.19 26.00 C 107.50 15.00 107.50 15.00 101.75 15.00 C 96.00 15.00 96.00 15.00 96.00 30.50 C 96.00 46.00 96.00 46.00 125.50 46.00 C 155.00 46.00 155.00 46.00 155.00 30.50 Z  M 237.00 41.05 C 237.00 36.10 237.00 36.10 205.75 36.30 C 174.50 36.50 174.50 36.50 174.80 25.75 C 175.11 15.00 175.11 15.00 169.05 15.00 C 163.00 15.00 163.00 15.00 163.00 29.83 C 163.00 37.99 163.30 44.97 163.67 45.33 C 164.03 45.70 180.68 46.00 200.67 46.00 C 237.00 46.00 237.00 46.00 237.00 41.05 Z  M 78.00 170.00 C 78.00 142.00 78.00 142.00 116.50 142.00 C 155.00 142.00 155.00 142.00 155.00 170.00 C 155.00 198.00 155.00 198.00 116.50 198.00 C 78.00 198.00 78.00 198.00 78.00 170.00 Z  M 148.00 170.50 C 148.00 150.00 148.00 150.00 117.00 150.00 C 86.00 150.00 86.00 150.00 86.00 170.50 C 86.00 191.00 86.00 191.00 117.00 191.00 C 148.00 191.00 148.00 191.00 148.00 170.50 Z  M 96.00 170.50 C 96.00 158.00 96.00 158.00 117.00 158.00 C 138.00 158.00 138.00 158.00 138.00 170.50 C 138.00 183.00 138.00 183.00 117.00 183.00 C 96.00 183.00 96.00 183.00 96.00 170.50 Z "/>
</g>
</svg>