<?xml version="1.0" encoding="UTF-8" standalone="no"?>
<!DOCTYPE svg PUBLIC "-//W3C//DTD SVG 1.1//EN" "http://www.w3.org/Graphics/SVG/1.1/DTD/svg11.dtd" >
<svg xmlns="http://www.w3.org/2000/svg" xmlns:xlink="http://www.w3.org/1999/xlink" version="1.1" viewBox="0 0 187 256">
 <g >
 <path fill="currentColor"
d=" M 105.45 218.50 C 106.18 213.62 105.68 212.00 103.44 212.00 C 102.65 212.00 102.00 211.50 102.00 210.89 C 102.00 210.28 102.67 210.05 103.50 210.36 C 104.33 210.68 105.03 210.61 105.06 210.22 C 105.97 199.37 105.95 192.09 105.00 191.50 C 104.22 191.02 104.34 190.46 105.40 189.65 C 106.63 188.71 106.96 185.34 107.14 171.50 C 107.48 146.22 107.74 144.00 110.35 143.99 C 113.81 143.96 117.36 141.68 118.11 138.99 C 118.77 136.62 118.81 136.61 118.90 138.75 C 118.99 140.67 119.55 141.00 122.75 140.99 C 130.15 140.96 130.98 140.33 131.14 134.63 C 131.28 129.50 131.28 129.50 132.32 134.32 C 133.17 138.25 133.70 139.05 135.18 138.66 C 139.75 137.47 137.15 139.83 113.13 158.62 C 111.89 159.59 114.48 164.30 116.81 165.31 C 118.42 166.01 119.42 167.14 119.24 168.04 C 119.07 168.89 120.41 171.27 122.22 173.33 C 125.26 176.79 125.74 176.99 128.75 176.10 C 130.54 175.57 132.00 175.51 132.00 175.96 C 132.00 176.41 130.88 177.07 129.50 177.41 C 128.12 177.76 127.00 178.45 127.00 178.94 C 127.00 179.99 130.34 184.21 137.45 192.13 C 140.23 195.22 145.34 201.66 148.82 206.44 C 156.02 216.34 153.39 216.74 170.94 203.07 C 175.57 199.46 179.82 196.20 180.38 195.82 C 181.46 195.10 176.22 186.60 171.10 180.77 C 169.45 178.89 166.59 175.13 164.74 172.43 C 162.89 169.72 159.92 165.39 158.15 162.81 C 156.38 160.23 154.13 157.86 153.14 157.55 C 152.16 157.23 150.71 155.52 149.93 153.74 C 148.90 151.41 147.91 150.56 146.40 150.71 C 144.25 150.93 143.56 149.94 141.01 143.00 C 139.23 138.14 139.23 138.11 144.92 113.58 C 147.71 101.52 150.00 91.17 150.00 90.58 C 149.99 89.99 146.81 86.01 142.92 81.75 C 139.02 77.49 136.27 74.00 136.79 74.00 C 137.32 74.00 138.05 72.54 138.42 70.75 C 139.06 67.69 139.18 67.61 140.51 69.39 C 141.29 70.43 142.09 71.77 142.29 72.36 C 142.53 73.10 143.92 73.02 146.75 72.08 C 149.98 71.02 151.82 70.97 155.37 71.86 C 165.62 74.44 173.64 72.40 172.41 67.51 C 172.09 66.21 172.27 64.33 172.83 63.34 C 173.74 61.71 173.91 61.79 174.51 64.17 C 174.87 65.62 174.68 67.73 174.09 68.84 C 173.18 70.53 173.34 70.97 175.07 71.52 C 177.89 72.42 182.00 71.27 182.00 69.59 C 182.00 68.17 175.14 61.00 173.78 61.00 C 173.35 61.00 173.00 60.25 173.00 59.33 C 173.00 57.26 170.15 54.00 168.35 54.00 C 167.51 54.00 167.00 55.17 167.00 57.08 C 167.00 59.13 166.58 60.01 165.75 59.71 C 164.44 59.23 164.43 59.11 165.54 54.70 C 166.14 52.31 165.57 51.28 161.26 46.97 C 156.29 42.00 156.29 42.00 144.61 42.00 C 133.44 42.00 132.90 42.10 132.02 44.25 C 131.10 46.50 131.10 46.50 130.40 44.12 C 129.70 41.73 129.70 41.73 114.94 42.44 C 100.19 43.14 100.19 43.14 96.91 38.32 C 95.11 35.67 92.09 31.59 90.20 29.25 C 86.76 25.00 86.76 25.00 79.77 25.00 C 73.91 25.00 72.88 25.25 73.37 26.53 C 73.76 27.53 73.18 28.36 71.73 28.91 C 70.50 29.38 67.33 32.08 64.68 34.91 C 60.62 39.25 59.95 40.51 60.46 42.83 C 61.05 45.51 60.90 45.62 55.03 46.83 C 51.72 47.52 49.00 48.31 49.00 48.59 C 49.00 48.88 49.93 51.15 51.06 53.64 C 53.13 58.17 53.13 58.17 61.81 57.49 C 71.06 56.76 73.11 55.64 72.38 51.70 C 72.13 50.33 72.55 50.73 73.49 52.75 C 74.32 54.54 75.57 55.99 76.25 55.98 C 78.66 55.96 80.07 54.36 79.41 52.42 C 78.90 50.92 79.14 51.01 80.49 52.83 C 81.47 54.14 81.85 55.54 81.37 56.02 C 80.89 56.48 74.69 57.69 67.58 58.69 C 48.12 61.44 50.19 62.79 73.21 62.35 C 98.18 61.88 151.39 59.91 151.87 59.45 C 152.08 59.25 151.97 58.37 151.64 57.50 C 151.10 56.09 147.97 56.00 122.12 56.62 C 93.21 57.31 93.21 57.31 87.79 48.90 C 84.80 44.28 81.57 39.71 80.61 38.75 C 78.94 37.08 78.95 37.00 80.85 37.00 C 81.94 37.00 83.66 36.74 84.67 36.42 C 86.39 35.87 86.39 35.93 84.61 37.38 C 82.89 38.79 82.86 39.13 84.23 41.21 C 85.05 42.47 87.81 45.81 90.34 48.62 C 94.96 53.75 94.96 53.75 108.73 53.25 C 116.30 52.97 123.34 52.31 124.36 51.78 C 125.60 51.14 126.58 51.18 127.31 51.91 C 128.65 53.25 137.94 53.33 140.00 52.02 C 141.24 51.23 141.28 50.71 140.25 49.04 C 138.75 46.62 138.62 44.00 140.00 44.00 C 140.55 44.00 141.00 44.92 141.00 46.05 C 141.00 48.96 145.56 53.20 148.27 52.82 C 149.87 52.59 150.40 51.94 150.15 50.52 C 149.84 48.74 150.05 48.79 152.19 51.02 C 155.40 54.35 158.00 58.59 158.00 60.46 C 158.00 61.76 156.08 62.00 145.62 62.00 C 133.24 62.00 133.24 62.00 132.00 65.00 C 131.32 66.65 130.36 68.00 129.88 68.00 C 128.70 68.00 128.77 67.34 130.21 65.03 C 130.88 63.96 131.18 62.84 130.87 62.54 C 130.57 62.24 119.65 62.35 106.60 62.79 C 88.25 63.41 82.68 63.90 82.02 64.96 C 81.56 65.71 80.89 68.27 80.53 70.64 C 80.18 73.01 79.43 75.23 78.88 75.58 C 77.27 76.57 76.75 75.34 77.88 73.22 C 78.45 72.15 79.17 69.86 79.48 68.14 C 80.03 65.00 80.03 65.00 71.26 65.01 C 66.44 65.01 58.77 65.30 54.20 65.66 C 47.13 66.21 46.00 66.54 46.56 67.90 C 48.20 71.84 48.29 73.26 46.90 72.80 C 46.13 72.54 45.50 71.24 45.50 69.91 C 45.50 67.50 45.50 67.50 29.50 67.77 C 14.17 68.03 3.00 68.75 3.00 69.49 C 3.00 70.99 4.46 73.00 5.54 73.00 C 6.27 73.00 7.01 74.24 7.18 75.75 C 7.44 78.00 7.96 78.46 10.00 78.31 C 15.82 77.86 30.04 77.71 30.41 78.09 C 30.62 78.31 29.76 85.25 28.47 93.50 C 27.19 101.75 26.13 109.62 26.12 111.00 C 26.10 112.38 25.18 118.22 24.08 124.00 C 22.97 129.78 22.08 135.62 22.09 137.00 C 22.11 139.16 22.27 139.27 23.24 137.86 C 24.26 136.36 24.49 136.38 25.93 138.13 C 27.12 139.59 29.67 140.30 36.45 141.06 C 41.37 141.61 45.58 142.25 45.81 142.47 C 46.03 142.70 44.68 143.52 42.81 144.30 C 38.55 146.08 34.16 151.07 21.41 168.62 C 7.07 188.35 7.85 186.61 11.86 189.99 C 13.86 191.68 14.93 193.31 14.50 194.00 C 13.65 195.38 12.34 194.32 10.60 190.83 C 9.30 188.21 6.68 187.71 6.24 190.00 C 5.90 191.78 25.46 215.00 27.30 215.00 C 29.11 215.00 32.00 209.71 32.02 206.35 C 32.02 204.78 32.44 202.85 32.95 202.05 C 33.66 200.92 34.02 201.21 34.56 203.39 C 35.18 205.86 35.43 206.00 36.76 204.67 C 38.08 203.35 38.73 203.35 42.38 204.65 C 44.64 205.45 47.85 206.25 49.50 206.42 C 51.15 206.58 54.12 207.40 56.09 208.24 C 58.07 209.08 65.27 211.39 72.09 213.37 C 78.92 215.35 88.55 218.29 93.50 219.89 C 98.45 221.50 103.01 222.86 103.64 222.91 C 104.26 222.96 105.08 220.98 105.45 218.50 Z  M 19.96 61.43 C 20.77 61.14 27.07 60.48 33.96 59.96 C 49.26 58.82 51.50 58.31 49.85 56.32 C 49.20 55.53 48.51 53.48 48.32 51.77 C 48.13 50.05 47.83 48.50 47.65 48.31 C 47.47 48.13 44.43 48.43 40.91 48.98 C 37.38 49.53 31.35 50.21 27.50 50.48 C 18.97 51.09 4.96 53.83 3.25 55.23 C 1.77 56.44 1.68 58.02 2.91 61.26 C 3.80 63.61 3.99 63.64 11.16 62.81 C 15.20 62.34 19.16 61.72 19.96 61.43 Z  M 92.92 211.03 C 92.38 207.83 87.69 205.07 85.33 206.57 C 84.03 207.38 83.22 207.22 81.88 205.88 C 80.01 204.01 66.19 199.47 65.25 200.42 C 64.94 200.73 64.19 200.58 63.59 200.08 C 62.99 199.58 59.58 198.42 56.00 197.50 C 49.50 195.82 49.50 195.82 46.25 199.57 C 44.46 201.64 42.69 203.03 42.32 202.65 C 41.94 202.28 43.00 200.51 44.66 198.74 C 46.32 196.96 48.22 194.15 48.88 192.50 C 49.53 190.85 50.85 188.48 51.81 187.23 C 53.54 184.96 53.54 184.96 62.02 186.52 C 66.68 187.39 71.85 188.48 73.50 188.96 C 75.15 189.44 78.08 190.09 80.00 190.41 C 83.50 191.00 83.50 191.00 83.28 176.25 C 83.15 168.14 83.04 156.03 83.03 149.34 C 83.00 137.18 83.00 137.18 73.75 135.56 C 68.66 134.67 58.95 133.11 52.17 132.10 C 38.75 130.10 38.10 130.28 39.41 135.50 C 39.88 137.36 39.64 138.00 38.50 138.00 C 37.37 138.00 37.09 137.28 37.45 135.28 C 37.73 133.77 37.29 131.57 36.47 130.31 C 35.16 128.32 35.17 126.85 36.51 117.78 C 37.34 112.12 38.74 103.67 39.62 99.00 C 40.49 94.33 41.34 89.15 41.50 87.50 C 41.65 85.85 41.83 84.16 41.89 83.75 C 42.05 82.69 45.77 82.82 46.44 83.91 C 46.75 84.41 46.10 84.58 45.00 84.29 C 43.90 84.00 43.01 84.16 43.01 84.63 C 43.02 85.11 41.85 94.64 40.41 105.82 C 38.97 116.99 38.05 126.38 38.35 126.68 C 38.65 126.99 40.96 127.47 43.47 127.75 C 48.04 128.26 48.04 128.26 47.77 115.98 C 47.55 105.76 47.75 103.63 49.00 103.27 C 50.06 102.97 50.15 103.10 49.30 103.70 C 48.36 104.37 48.39 106.30 49.44 112.34 C 50.64 119.24 52.00 123.40 52.00 120.17 C 52.00 119.53 52.45 119.00 53.00 119.00 C 53.55 119.00 54.00 119.90 54.00 121.00 C 54.00 122.81 54.67 123.00 60.87 123.00 C 66.30 123.00 68.28 122.57 70.37 120.93 C 72.76 119.05 73.45 119.13 73.12 121.25 C 72.95 122.31 83.39 122.17 90.47 121.01 C 93.75 120.47 96.80 120.40 97.24 120.84 C 97.69 121.29 87.94 122.93 75.58 124.50 C 63.21 126.07 53.29 127.66 53.52 128.03 C 53.75 128.40 56.99 129.00 60.72 129.36 C 79.80 131.21 85.29 132.00 86.58 133.07 C 87.75 134.03 88.00 139.51 88.00 163.69 C 88.00 181.11 87.60 193.88 87.01 194.97 C 86.10 196.69 85.70 196.71 81.26 195.36 C 78.64 194.57 71.81 192.80 66.07 191.44 C 57.84 189.48 55.47 189.23 54.84 190.23 C 54.35 191.00 54.68 191.98 55.67 192.72 C 57.09 193.78 90.45 205.02 92.14 205.01 C 92.49 205.00 93.15 196.11 93.61 185.25 C 94.07 174.25 94.67 167.49 94.97 170.00 C 95.50 174.50 95.50 174.50 96.66 171.50 C 97.29 169.85 98.13 167.60 98.51 166.50 C 99.18 164.58 99.26 164.60 100.31 166.86 C 101.17 168.72 101.09 169.47 99.94 170.36 C 96.01 173.40 94.74 177.14 95.24 184.18 C 95.56 188.55 96.33 191.71 97.37 192.85 C 99.15 194.82 99.57 198.00 98.05 198.00 C 97.53 198.00 96.64 197.21 96.08 196.25 C 95.29 194.90 95.04 195.76 94.97 200.00 C 94.92 203.03 94.54 207.30 94.11 209.50 C 93.47 212.80 93.26 213.07 92.92 211.03 Z  M 22.12 195.32 C 18.73 190.73 18.73 190.73 20.54 187.61 C 25.27 179.45 42.64 158.31 43.72 159.39 C 44.36 160.02 36.79 172.94 30.36 182.22 C 24.57 190.55 24.33 191.20 26.31 192.84 C 28.16 194.38 37.57 184.52 48.02 170.08 C 56.29 158.65 56.29 158.65 54.03 156.83 C 52.79 155.82 51.04 154.99 50.14 154.97 C 48.69 154.94 48.70 154.82 50.24 153.92 C 51.88 152.97 51.88 152.75 50.32 150.36 C 49.40 148.96 48.53 146.67 48.38 145.26 C 48.23 143.86 47.63 142.23 47.05 141.65 C 45.71 140.31 45.67 136.00 47.00 136.00 C 47.55 136.00 48.00 136.88 48.00 137.95 C 48.00 139.02 49.13 142.01 50.50 144.60 C 51.88 147.18 53.00 149.75 53.00 150.30 C 53.00 150.86 54.80 152.85 57.00 154.73 C 60.77 157.96 60.91 158.28 59.50 160.30 C 57.60 163.01 57.60 164.00 59.50 164.00 C 60.33 164.00 61.00 164.50 61.00 165.12 C 61.00 165.78 60.09 166.00 58.75 165.64 C 56.96 165.18 55.31 166.23 50.75 170.75 C 47.59 173.88 45.00 176.96 45.00 177.60 C 45.00 178.24 46.01 179.04 47.25 179.38 C 49.10 179.89 49.24 180.17 48.02 180.95 C 47.02 181.60 46.04 181.44 44.95 180.46 C 43.55 179.19 43.06 179.34 40.84 181.76 C 36.70 186.26 32.68 192.02 33.27 192.61 C 33.77 193.11 26.79 200.05 25.88 199.96 C 25.67 199.94 23.98 197.85 22.12 195.32 Z  M 148.56 190.47 C 144.34 185.23 140.52 181.18 140.06 181.46 C 139.60 181.75 138.69 181.33 138.04 180.55 C 137.39 179.76 136.14 179.39 135.26 179.73 C 134.21 180.13 133.92 179.95 134.39 179.17 C 134.79 178.53 135.77 178.00 136.56 178.00 C 138.64 178.00 138.40 177.17 134.45 170.63 C 132.51 167.40 131.07 164.60 131.27 164.40 C 131.69 163.98 150.63 184.86 155.14 190.73 C 157.78 194.15 158.66 194.72 160.17 193.91 C 161.18 193.37 162.00 192.45 162.00 191.87 C 162.00 190.36 158.51 185.53 152.00 178.00 C 148.91 174.43 144.19 168.57 141.51 165.00 C 138.84 161.43 136.50 158.31 136.31 158.07 C 136.13 157.83 134.41 158.39 132.49 159.30 C 129.48 160.74 129.00 160.76 129.00 159.48 C 129.00 158.67 129.42 158.00 129.93 158.00 C 130.44 158.00 131.00 157.26 131.18 156.36 C 131.38 155.36 132.72 154.59 134.66 154.38 C 137.59 154.06 138.31 154.67 144.50 162.77 C 148.18 167.57 152.49 172.33 154.09 173.35 C 157.28 175.38 157.56 176.04 155.88 177.72 C 155.04 178.56 155.89 180.20 159.13 184.05 C 163.50 189.24 163.50 189.24 164.09 185.87 C 164.54 183.35 164.70 184.05 164.76 188.63 C 164.83 194.19 164.62 194.85 162.39 195.87 C 161.05 196.48 159.68 197.66 159.36 198.49 C 158.23 201.44 156.12 199.88 148.56 190.47 Z  M 76.01 178.55 C 74.62 177.78 73.26 177.57 72.96 178.07 C 72.63 178.60 71.02 178.58 69.03 178.01 C 67.18 177.48 64.73 177.26 63.58 177.52 C 62.16 177.85 60.93 177.21 59.71 175.51 C 57.92 173.02 57.92 173.02 60.60 173.24 C 62.61 173.40 63.92 172.61 65.89 170.03 C 67.32 168.14 69.50 165.45 70.72 164.05 C 72.94 161.50 72.94 161.50 72.97 168.25 C 72.99 172.95 73.38 175.01 74.25 175.03 C 75.59 175.07 80.00 178.43 80.00 179.41 C 80.00 180.33 78.72 180.05 76.01 178.55 Z  M 77.00 168.52 C 77.00 168.16 77.52 166.90 78.16 165.71 C 78.79 164.52 79.40 161.76 79.50 159.58 C 79.60 157.39 80.21 155.43 80.84 155.22 C 82.28 154.74 82.25 156.07 80.65 162.94 C 79.95 165.93 78.84 168.55 78.19 168.77 C 77.53 168.99 77.00 168.87 77.00 168.52 Z  M 35.03 160.37 C 35.01 159.75 35.67 158.68 36.50 158.00 C 37.33 157.32 38.00 156.14 38.00 155.38 C 38.00 154.62 38.45 154.00 39.00 154.00 C 39.55 154.00 40.00 154.42 40.00 154.94 C 40.00 156.32 35.07 161.71 35.03 160.37 Z  M 67.66 148.94 C 62.83 145.00 62.83 145.00 66.81 145.00 C 69.65 145.00 70.97 144.51 71.45 143.28 C 72.01 141.80 72.24 141.77 73.04 143.03 C 74.15 144.78 74.32 153.03 73.25 152.94 C 72.84 152.90 70.32 151.10 67.66 148.94 Z  M 95.20 141.79 C 94.97 131.71 93.40 132.75 115.17 128.59 C 121.79 127.32 127.56 125.72 127.98 125.03 C 128.93 123.49 134.00 98.40 134.00 95.24 C 134.00 92.68 123.54 80.68 120.89 80.19 C 119.96 80.03 106.40 82.39 90.74 85.44 C 62.03 91.05 51.54 92.54 66.75 88.85 C 74.84 86.88 74.99 86.79 74.34 84.20 C 73.67 81.55 73.67 81.55 76.47 83.39 C 79.04 85.07 79.86 85.11 86.73 83.89 C 94.79 82.46 98.00 80.03 98.00 75.37 C 98.00 72.72 99.74 72.17 100.65 74.54 C 100.98 75.38 100.51 76.88 99.62 77.87 C 96.26 81.58 98.22 81.92 106.75 79.09 C 109.91 78.04 113.74 76.91 115.25 76.57 C 116.76 76.24 118.00 75.30 118.00 74.48 C 118.00 73.67 118.50 73.00 119.11 73.00 C 119.72 73.00 119.95 73.67 119.64 74.50 C 119.26 75.49 119.67 76.00 120.84 76.00 C 121.81 76.00 124.13 77.58 126.00 79.50 C 127.87 81.42 129.98 83.00 130.70 83.00 C 131.41 83.00 132.00 83.50 132.00 84.12 C 132.00 84.73 133.35 86.77 135.00 88.65 C 138.23 92.33 138.76 95.86 137.02 101.94 C 135.75 106.36 136.41 106.90 139.50 104.00 C 143.32 100.41 142.47 103.21 138.50 107.30 C 134.86 111.04 134.11 113.42 136.25 114.42 C 137.25 114.88 137.25 115.12 136.25 115.58 C 135.56 115.90 135.00 116.97 135.00 117.96 C 135.00 118.95 134.32 120.32 133.50 121.00 C 132.68 121.68 132.00 123.02 132.00 123.97 C 132.00 125.84 129.01 129.00 127.24 129.00 C 126.64 129.00 125.45 129.70 124.60 130.55 C 123.50 131.65 122.53 131.82 121.27 131.15 C 119.48 130.20 113.14 130.84 101.79 133.11 C 96.08 134.26 96.08 134.26 95.74 142.38 C 95.41 150.50 95.41 150.50 95.20 141.79 Z  M 58.30 144.46 C 57.08 142.56 56.47 141.00 56.94 141.00 C 57.40 141.00 58.05 141.68 58.36 142.50 C 58.68 143.32 59.63 144.00 60.47 144.00 C 61.33 144.00 62.00 144.87 62.00 146.00 C 62.00 148.89 60.81 148.40 58.30 144.46 Z  M 29.25 131.78 C 28.01 131.18 27.00 130.02 27.00 129.19 C 27.00 127.91 27.27 127.93 28.83 129.35 C 29.83 130.26 31.18 131.00 31.83 131.00 C 32.47 131.00 33.00 131.45 33.00 132.00 C 33.00 133.23 32.16 133.18 29.25 131.78 Z  M 31.04 119.93 C 31.65 118.79 32.23 115.86 32.32 113.42 C 32.42 110.98 32.95 109.10 33.50 109.24 C 34.57 109.52 34.56 111.01 33.44 117.75 C 33.00 120.40 32.21 122.00 31.33 122.00 C 30.22 122.00 30.16 121.57 31.04 119.93 Z  M 104.00 119.34 C 104.00 118.69 103.44 117.97 102.75 117.74 C 102.06 117.51 105.55 117.36 110.50 117.41 C 119.50 117.50 119.50 117.50 119.59 113.38 C 119.64 111.12 119.97 108.53 120.31 107.63 C 120.71 106.58 120.42 106.00 119.47 106.00 C 118.34 106.00 118.01 104.65 118.03 100.25 C 118.06 94.98 118.19 94.66 119.53 96.44 C 120.96 98.33 121.00 98.32 121.00 96.05 C 121.00 93.80 120.79 93.74 115.17 94.32 C 107.10 95.17 105.80 95.76 107.02 98.03 C 108.73 101.23 108.09 101.46 105.18 98.68 C 102.92 96.51 101.76 96.10 99.29 96.59 C 96.22 97.21 96.22 97.22 97.84 100.04 C 98.73 101.60 99.10 103.23 98.66 103.68 C 98.21 104.12 97.46 103.81 96.99 102.99 C 93.91 97.62 93.64 97.51 86.86 98.75 C 83.36 99.39 74.65 100.11 67.50 100.34 C 54.82 100.74 54.65 100.72 60.50 99.43 C 67.42 97.90 112.16 90.41 119.29 89.58 C 123.13 89.14 124.20 89.35 124.70 90.66 C 125.17 91.89 122.28 118.61 121.62 119.09 C 121.55 119.13 117.56 119.47 112.75 119.84 C 106.35 120.33 104.00 120.20 104.00 119.34 Z  M 83.30 112.78 C 83.67 111.74 83.29 110.70 82.33 110.17 C 81.05 109.45 81.29 109.14 83.62 108.54 C 85.21 108.13 88.53 107.64 91.00 107.46 C 93.47 107.28 98.88 106.88 103.00 106.56 C 108.13 106.17 109.81 106.29 108.32 106.94 C 107.12 107.46 102.17 108.19 97.32 108.56 C 89.73 109.15 88.10 109.61 85.60 111.87 C 83.55 113.73 82.87 113.99 83.30 112.78 Z  M 138.50 88.00 C 138.16 87.45 136.90 86.95 135.69 86.88 C 133.88 86.79 133.82 86.69 135.33 86.30 C 137.74 85.67 142.00 86.78 142.00 88.02 C 142.00 89.30 139.30 89.29 138.50 88.00 Z  M 59.67 82.83 C 58.66 81.73 58.03 80.64 58.27 80.39 C 59.08 79.59 61.53 81.01 62.78 83.02 C 64.47 85.73 62.20 85.59 59.67 82.83 Z  M 57.00 77.00 C 57.00 76.42 59.84 76.05 63.75 76.12 C 68.97 76.21 69.82 76.41 67.50 77.00 C 63.02 78.14 57.00 78.14 57.00 77.00 Z  M 58.16 52.00 C 56.94 50.35 56.33 49.00 56.80 49.00 C 57.79 49.00 62.00 53.30 62.00 54.31 C 62.00 55.87 60.24 54.81 58.16 52.00 Z  M 90.75 41.31 C 89.79 41.06 89.00 40.38 89.00 39.81 C 89.00 39.22 89.97 39.03 91.25 39.37 C 92.49 39.70 93.84 39.98 94.25 39.99 C 94.66 39.99 95.00 40.45 95.00 41.00 C 95.00 42.03 93.82 42.11 90.75 41.31 Z "/>
</g>
</svg>