<?xml version="1.0" encoding="UTF-8" standalone="no"?>
<!DOCTYPE svg PUBLIC "-//W3C//DTD SVG 1.1//EN" "http://www.w3.org/Graphics/SVG/1.1/DTD/svg11.dtd" >
<svg xmlns="http://www.w3.org/2000/svg" xmlns:xlink="http://www.w3.org/1999/xlink" version="1.1" viewBox="0 0 187 256">
 <g >
 <path fill="currentColor"
d=" M 147.00 218.42 C 151.68 214.26 155.89 210.02 156.36 209.01 C 156.84 208.00 158.08 206.95 159.11 206.68 C 162.54 205.79 161.10 203.46 152.00 195.11 C 147.05 190.57 143.00 186.27 143.00 185.55 C 143.00 184.84 147.95 172.93 154.00 159.09 C 160.05 145.25 165.00 133.60 165.00 133.19 C 165.00 131.67 158.97 125.90 158.00 126.50 C 157.45 126.84 157.00 128.22 157.00 129.56 C 157.00 130.90 156.66 132.00 156.24 132.00 C 155.83 132.00 155.65 129.97 155.84 127.50 C 156.07 124.63 155.80 123.00 155.08 123.00 C 154.47 123.00 151.32 120.24 148.10 116.86 C 142.24 110.72 142.24 110.72 136.95 111.23 C 133.86 111.53 131.20 112.37 130.54 113.27 C 129.83 114.25 128.48 114.62 126.79 114.30 C 125.34 114.02 119.59 114.56 114.01 115.50 C 108.43 116.44 103.59 116.92 103.24 116.58 C 101.77 115.10 106.01 113.03 112.50 112.05 C 128.03 109.73 127.03 110.42 124.25 103.94 C 122.70 100.34 122.21 99.95 120.00 100.55 C 118.62 100.93 114.41 101.44 110.63 101.70 C 104.94 102.09 103.68 102.50 103.27 104.09 C 102.67 106.38 101.00 106.64 101.00 104.44 C 101.00 103.28 100.17 102.95 97.77 103.19 C 94.61 103.49 94.50 103.67 92.36 112.05 C 91.16 116.75 89.86 122.78 89.45 125.46 C 88.73 130.31 88.73 130.31 96.01 129.64 C 104.17 128.88 118.56 126.49 121.28 125.45 C 122.52 124.97 122.88 124.12 122.47 122.63 C 121.91 120.62 121.98 120.64 123.79 122.88 C 125.60 125.13 125.99 125.20 131.60 124.23 C 137.50 123.21 137.50 123.21 143.75 128.69 C 150.01 134.17 151.16 136.68 148.99 140.00 C 148.27 141.09 148.16 140.68 148.56 138.50 C 149.06 135.85 148.44 134.84 143.31 129.85 C 137.50 124.20 137.50 124.20 112.72 128.73 C 99.09 131.23 87.65 132.98 87.30 132.63 C 86.65 131.98 91.31 107.93 92.91 103.74 C 93.73 101.57 95.06 101.22 112.65 98.63 C 138.42 94.82 148.09 92.95 147.43 91.89 C 147.13 91.40 137.80 91.00 126.69 90.99 C 115.59 90.99 104.14 90.70 101.25 90.35 C 95.07 89.61 95.06 89.57 97.83 76.00 C 99.56 67.50 99.56 67.50 104.74 65.77 C 107.58 64.82 114.93 63.16 121.07 62.07 C 127.21 60.99 132.50 59.83 132.83 59.50 C 133.16 59.17 132.95 58.14 132.36 57.20 C 131.51 55.86 129.22 55.38 121.40 54.94 C 115.95 54.64 113.08 54.26 115.00 54.09 C 116.92 53.93 119.62 53.44 121.00 52.99 C 123.50 52.18 123.50 52.18 121.25 51.47 C 120.01 51.08 119.00 50.33 119.00 49.80 C 119.00 48.50 125.09 49.86 127.08 51.61 C 127.95 52.38 129.38 53.00 130.26 53.00 C 131.74 53.00 136.00 57.41 136.00 58.95 C 136.00 60.09 129.10 63.00 126.41 63.00 C 123.56 63.00 115.53 64.74 112.50 66.01 C 111.40 66.47 109.38 67.10 108.00 67.42 C 102.78 68.62 100.94 71.16 99.76 78.79 C 99.15 82.75 98.84 86.16 99.07 86.38 C 99.31 86.61 105.95 86.95 113.83 87.14 C 128.07 87.50 128.17 87.49 129.44 85.11 C 130.72 82.73 130.72 82.73 131.38 85.36 C 132.04 88.00 132.04 88.00 154.52 88.00 C 177.00 88.00 177.00 88.00 177.00 83.50 C 177.00 79.40 176.78 79.00 174.57 79.00 C 172.83 79.00 172.03 79.64 171.75 81.25 C 171.37 83.45 171.33 83.44 170.25 80.87 C 169.17 78.31 168.88 78.24 157.82 77.72 C 151.59 77.44 140.82 77.12 133.87 77.03 C 121.25 76.85 121.25 76.85 120.58 80.43 C 120.21 82.39 119.43 84.00 118.85 84.00 C 118.26 84.00 118.06 83.29 118.39 82.42 C 118.73 81.55 119.00 79.78 119.00 78.49 C 119.00 76.34 119.80 75.96 128.75 73.97 C 150.69 69.08 155.27 67.95 156.85 67.03 C 157.80 66.47 157.98 66.05 157.26 66.03 C 156.58 66.01 155.42 64.54 154.67 62.75 C 153.92 60.96 152.53 58.85 151.58 58.06 C 150.07 56.82 149.73 56.82 148.94 58.06 C 148.26 59.14 148.03 58.83 148.02 56.86 C 148.00 54.00 143.12 48.00 140.82 48.00 C 139.04 48.00 136.00 44.44 136.00 42.36 C 136.00 40.92 134.69 40.82 124.10 41.45 C 112.19 42.16 112.19 42.16 111.48 38.83 C 111.08 37.00 109.64 32.69 108.27 29.25 C 105.79 23.00 105.79 23.00 100.89 23.00 C 96.00 23.00 96.00 23.00 96.00 27.00 C 96.00 29.22 95.51 31.00 94.91 31.00 C 94.20 31.00 94.06 29.63 94.50 27.00 C 95.18 23.00 95.18 23.00 91.21 23.00 C 86.52 23.00 85.79 23.80 84.07 30.87 C 82.98 35.32 82.98 36.37 84.09 37.05 C 85.15 37.71 84.97 38.78 83.14 42.44 C 81.00 46.72 79.00 48.39 79.00 45.89 C 79.00 45.13 77.48 44.99 74.25 45.45 C 66.57 46.55 61.89 48.01 62.57 49.11 C 62.98 49.77 61.94 49.89 59.60 49.45 C 57.62 49.08 54.42 49.07 52.50 49.43 C 49.00 50.09 49.00 50.09 49.00 61.93 C 49.00 75.51 48.15 74.48 60.14 75.63 C 66.24 76.22 66.88 76.09 67.93 74.13 C 68.56 72.96 69.52 72.00 70.07 72.00 C 70.72 72.00 70.71 72.67 70.04 73.93 C 68.65 76.52 68.73 77.00 70.50 77.00 C 71.33 77.00 72.00 77.34 72.00 77.76 C 72.00 78.57 64.96 81.00 62.59 81.00 C 61.80 81.00 59.81 82.13 58.16 83.51 C 56.13 85.23 55.04 85.63 54.76 84.78 C 54.44 83.81 52.82 83.90 47.42 85.19 C 37.15 87.66 35.00 88.66 35.00 90.98 C 35.00 92.18 34.34 93.00 33.38 93.00 C 31.98 93.00 31.95 92.77 33.13 91.34 C 34.39 89.81 34.05 89.73 29.00 90.32 C 22.14 91.12 11.86 94.21 14.25 94.75 C 15.21 94.97 16.00 95.56 16.00 96.07 C 16.00 97.28 15.32 97.24 12.83 95.91 C 11.62 95.26 10.42 95.18 9.89 95.71 C 9.36 96.24 14.01 100.71 21.25 106.63 C 36.37 118.99 35.97 118.76 37.65 116.46 C 38.86 114.81 39.00 114.80 39.00 116.31 C 39.00 118.18 42.19 118.48 50.27 117.38 C 54.70 116.77 54.82 116.65 55.19 112.83 C 55.71 107.30 55.11 106.78 49.10 107.58 C 45.29 108.09 44.03 108.64 44.41 109.64 C 44.70 110.39 44.50 111.00 43.97 111.00 C 43.44 111.00 43.00 110.63 43.00 110.19 C 43.00 109.74 41.54 108.62 39.75 107.70 C 37.96 106.78 35.41 105.24 34.08 104.28 C 31.67 102.53 31.67 102.53 32.41 105.51 C 32.82 107.14 33.51 108.71 33.93 108.99 C 35.26 109.87 37.19 114.14 36.55 114.78 C 35.49 115.84 31.91 111.45 31.62 108.73 C 31.47 107.29 30.77 105.42 30.06 104.57 C 28.78 103.03 29.25 99.83 30.72 100.15 C 31.15 100.24 32.17 100.06 33.00 99.75 C 35.14 98.94 41.44 97.37 58.00 93.51 C 81.43 88.05 81.23 88.14 82.67 83.14 C 83.36 80.78 84.05 76.77 84.21 74.22 C 84.58 68.32 83.51 67.74 68.00 65.51 C 54.22 63.53 52.00 63.04 52.00 61.96 C 52.00 60.84 54.37 60.26 61.50 59.63 C 66.92 59.15 67.14 59.20 63.75 60.15 C 61.69 60.73 60.00 61.54 60.00 61.96 C 60.00 62.37 65.96 63.51 73.25 64.49 C 80.54 65.47 86.82 66.55 87.22 66.90 C 88.59 68.11 85.93 87.39 84.16 89.12 C 83.25 90.00 73.54 93.06 62.59 95.91 C 51.63 98.76 41.96 101.50 41.09 102.01 C 39.16 103.14 45.55 103.16 66.00 102.09 C 73.97 101.68 81.00 101.71 81.61 102.17 C 82.40 102.77 81.90 106.92 79.87 116.75 C 76.12 134.81 76.13 134.99 81.13 139.49 C 84.55 142.59 85.78 143.13 88.38 142.69 C 114.49 138.22 134.05 134.83 136.25 134.39 C 138.46 133.95 139.00 134.21 139.00 135.69 C 139.00 137.28 118.71 179.28 116.25 182.77 C 115.56 183.75 112.34 182.91 102.00 179.07 C 88.96 174.23 86.96 173.86 87.03 176.31 C 87.05 176.96 98.09 184.63 111.57 193.34 C 135.68 208.94 136.10 209.16 138.53 207.57 C 139.89 206.68 141.00 205.35 141.00 204.62 C 141.00 203.88 137.88 200.63 134.06 197.39 C 130.25 194.15 127.10 190.69 127.06 189.71 C 127.03 188.73 127.90 186.16 129.00 184.00 C 130.10 181.84 131.00 179.64 131.00 179.11 C 131.00 177.70 147.22 141.88 147.66 142.32 C 147.86 142.52 146.71 145.80 145.10 149.59 C 133.26 177.61 129.00 187.95 129.00 188.69 C 129.00 189.16 132.38 192.60 136.50 196.34 C 140.62 200.07 144.00 203.64 144.00 204.27 C 144.00 206.17 137.74 212.00 135.70 212.00 C 134.65 212.00 132.15 210.71 130.14 209.13 C 121.97 202.68 95.98 187.19 94.14 187.67 C 92.79 188.03 91.65 187.17 90.06 184.60 C 88.85 182.63 86.54 180.25 84.93 179.30 C 81.41 177.22 81.27 176.00 84.25 173.32 C 88.11 169.84 88.65 169.86 98.63 173.68 C 105.41 176.27 108.49 177.04 108.77 176.20 C 109.03 175.42 109.80 175.77 110.92 177.15 C 111.93 178.40 113.18 179.01 113.86 178.59 C 115.41 177.63 120.00 168.53 120.00 166.41 C 120.00 165.51 121.53 162.23 123.40 159.13 C 127.08 153.05 133.00 141.15 133.00 139.84 C 133.00 139.10 124.02 139.83 123.07 140.65 C 122.84 140.85 123.51 141.65 124.57 142.43 C 127.33 144.44 125.52 145.61 122.25 143.92 C 120.74 143.14 119.25 142.17 118.95 141.76 C 118.65 141.36 116.85 141.49 114.95 142.05 C 113.05 142.62 109.92 143.29 108.00 143.54 C 106.08 143.79 99.88 144.73 94.24 145.64 C 83.98 147.30 83.98 147.30 78.24 142.77 C 72.98 138.62 72.45 137.84 71.89 133.37 C 71.55 130.64 71.72 127.94 72.28 127.23 C 72.83 126.53 73.00 125.67 72.66 125.32 C 72.31 124.98 72.81 124.12 73.77 123.41 C 75.15 122.38 75.27 121.75 74.37 120.31 C 73.52 118.94 73.56 117.87 74.56 115.93 C 75.28 114.51 76.01 111.62 76.18 109.51 C 76.50 105.67 76.50 105.67 70.00 105.88 C 66.42 105.99 62.04 106.34 60.25 106.65 C 57.09 107.21 57.00 107.36 57.00 112.24 C 57.00 117.26 57.00 117.26 60.89 116.74 C 64.68 116.23 64.79 116.30 65.34 119.72 C 65.71 122.01 65.38 124.02 64.37 125.56 C 63.52 126.85 63.12 128.38 63.47 128.95 C 63.83 129.53 63.41 131.00 62.56 132.22 C 60.83 134.69 60.43 141.00 62.00 141.00 C 62.55 141.00 63.00 141.66 63.00 142.46 C 63.00 144.40 67.24 146.77 67.79 145.14 C 68.35 143.45 70.00 144.81 70.00 146.96 C 70.00 148.79 76.20 155.00 78.03 155.00 C 79.52 155.00 79.18 152.39 77.50 151.00 C 75.89 149.66 75.43 146.00 76.87 146.00 C 77.35 146.00 78.32 148.14 79.02 150.75 C 79.73 153.36 80.91 156.21 81.65 157.08 C 83.37 159.09 83.38 161.00 81.67 161.00 C 80.95 161.00 79.33 162.09 78.08 163.42 C 76.24 165.37 75.94 166.47 76.52 169.17 C 76.91 171.00 77.69 173.07 78.26 173.77 C 78.82 174.47 78.97 175.36 78.59 175.75 C 77.70 176.64 76.04 174.04 76.02 171.72 C 75.98 168.10 72.94 168.64 68.43 173.07 C 65.99 175.46 64.00 177.96 64.00 178.62 C 64.00 179.28 70.86 183.98 79.25 189.06 C 87.64 194.13 99.03 201.39 104.58 205.18 C 110.75 209.40 115.25 211.84 116.20 211.48 C 117.22 211.09 117.93 211.61 118.30 213.03 C 118.65 214.37 119.49 215.05 120.55 214.84 C 121.48 214.65 123.65 215.73 125.37 217.23 C 133.77 224.56 135.61 225.94 137.00 225.97 C 137.82 225.98 142.32 222.58 147.00 218.42 Z  M 135.00 108.91 C 136.13 108.11 136.19 107.72 135.25 107.34 C 134.56 107.06 134.00 106.41 134.00 105.89 C 134.00 105.38 135.12 105.69 136.49 106.59 C 138.07 107.62 140.18 108.04 142.24 107.73 C 144.03 107.45 151.35 106.50 158.50 105.60 C 179.40 102.99 178.00 103.51 178.00 98.36 C 178.00 95.39 177.52 93.75 176.53 93.37 C 175.71 93.06 167.05 94.03 157.28 95.54 C 147.50 97.04 136.50 98.54 132.83 98.89 C 125.21 99.60 124.42 100.05 125.92 102.85 C 126.51 103.96 127.00 105.77 127.00 106.86 C 127.00 109.61 132.14 110.93 135.00 108.91 Z  M 134.00 222.10 C 131.99 221.54 131.83 221.28 133.15 220.77 C 135.15 220.00 139.00 220.89 139.00 222.12 C 139.00 223.12 137.62 223.11 134.00 222.10 Z  M 148.71 208.00 C 148.42 206.90 148.62 205.73 149.15 205.41 C 149.68 205.08 149.82 203.45 149.45 201.78 C 148.99 199.68 149.13 198.96 149.89 199.43 C 151.20 200.24 151.41 210.00 150.12 210.00 C 149.63 210.00 149.00 209.10 148.71 208.00 Z  M 138.00 185.50 C 138.00 184.68 138.45 184.00 139.00 184.00 C 139.55 184.00 140.00 183.10 140.00 182.00 C 140.00 180.90 140.45 180.00 141.00 180.00 C 142.32 180.00 142.26 181.04 140.75 184.29 C 139.38 187.25 138.00 187.85 138.00 185.50 Z  M 109.41 171.51 C 110.24 168.18 107.81 165.00 104.40 165.00 C 103.15 165.00 101.88 164.62 101.59 164.15 C 101.12 163.38 99.28 162.59 89.60 159.01 C 86.96 158.03 86.86 157.83 88.44 156.67 C 90.02 155.51 90.04 155.28 88.59 154.07 C 87.72 153.35 87.00 152.28 87.00 151.69 C 87.00 151.10 88.26 151.84 89.80 153.31 C 93.18 156.54 98.11 156.89 100.90 154.10 C 102.28 152.72 103.10 152.50 103.90 153.30 C 104.68 154.08 106.44 154.10 110.04 153.36 C 113.65 152.62 114.96 152.64 114.65 153.41 C 114.41 154.01 113.43 156.44 112.48 158.81 C 111.10 162.23 110.97 163.59 111.87 165.31 C 113.20 167.87 112.08 173.14 110.05 173.82 C 109.05 174.15 108.89 173.57 109.41 171.51 Z  M 94.02 121.81 C 94.02 120.54 94.47 118.83 95.00 118.00 C 95.74 116.86 95.97 117.26 95.98 119.69 C 95.99 121.45 95.55 123.16 95.00 123.50 C 94.44 123.84 94.01 123.10 94.02 121.81 Z  M 113.00 123.00 C 113.00 122.45 113.90 121.10 115.00 120.00 C 116.85 118.15 117.00 118.13 117.00 119.80 C 117.00 121.65 115.21 124.00 113.80 124.00 C 113.36 124.00 113.00 123.55 113.00 123.00 Z  M 20.43 98.25 C 20.85 93.58 22.35 93.76 22.47 98.50 C 22.52 100.65 22.08 102.00 21.33 102.00 C 20.51 102.00 20.21 100.73 20.43 98.25 Z  M 44.00 92.58 C 44.00 91.71 44.45 91.00 45.00 91.00 C 45.55 91.00 46.00 90.07 46.00 88.94 C 46.00 87.81 46.45 87.16 47.00 87.50 C 47.66 87.91 47.60 88.88 46.83 90.31 C 46.19 91.51 45.77 92.71 45.91 92.97 C 46.04 93.24 45.67 93.61 45.08 93.81 C 44.48 94.01 44.00 93.45 44.00 92.58 Z  M 108.50 84.25 C 109.33 82.23 109.69 79.84 109.87 75.25 C 110.02 71.54 111.56 70.88 112.18 74.25 C 112.72 77.16 110.20 86.00 108.83 86.00 C 108.23 86.00 108.09 85.26 108.50 84.25 Z  M 76.68 82.25 C 76.43 81.84 75.94 79.92 75.59 78.00 C 74.94 74.50 74.94 74.50 76.97 78.43 C 78.09 80.59 79.00 82.50 79.00 82.68 C 79.00 83.33 77.10 82.98 76.68 82.25 Z  M 120.00 73.48 C 120.01 71.75 124.79 66.47 125.61 67.28 C 126.04 67.71 124.96 69.50 123.20 71.26 C 121.44 73.02 120.00 74.02 120.00 73.48 Z  M 74.25 57.36 C 75.21 57.08 76.00 56.21 76.00 55.43 C 76.00 54.64 76.45 54.00 77.00 54.00 C 77.55 54.00 78.00 54.45 78.00 55.00 C 78.00 55.55 79.20 56.00 80.67 56.00 C 84.73 56.00 83.09 56.68 77.50 57.30 C 74.75 57.61 73.29 57.64 74.25 57.36 Z  M 67.63 55.48 C 67.28 54.57 67.39 53.12 67.88 52.25 C 68.63 50.92 68.87 51.02 69.48 52.94 C 70.33 55.62 68.60 58.00 67.63 55.48 Z  M 168.00 97.50 C 165.61 96.13 165.59 96.07 167.67 96.04 C 170.47 95.99 173.00 96.97 173.00 98.11 C 173.00 99.40 170.87 99.14 168.00 97.50 Z "/>
</g>
</svg>