<?xml version="1.0" encoding="UTF-8" standalone="no"?>
<!DOCTYPE svg PUBLIC "-//W3C//DTD SVG 1.1//EN" "http://www.w3.org/Graphics/SVG/1.1/DTD/svg11.dtd" >
<svg xmlns="http://www.w3.org/2000/svg" xmlns:xlink="http://www.w3.org/1999/xlink" version="1.1" viewBox="0 0 189 256">
 <g >
 <path fill="currentColor"
d=" M 164.05 218.75 C 164.02 218.34 164.00 215.84 164.00 213.21 C 164.00 208.42 164.00 208.42 154.25 203.61 C 148.89 200.97 143.65 197.67 142.61 196.28 C 140.83 193.90 140.82 193.58 142.36 190.97 C 143.26 189.44 144.00 187.20 144.00 185.98 C 144.00 183.92 143.69 183.82 139.37 184.47 C 131.63 185.63 131.90 185.23 132.21 195.32 C 132.50 204.39 132.50 204.39 135.80 206.32 C 139.35 208.39 141.06 207.98 139.03 205.54 C 137.63 203.85 138.42 200.52 139.99 201.50 C 140.55 201.84 141.00 202.97 141.00 204.00 C 141.00 207.08 145.00 210.72 153.50 215.41 C 160.97 219.52 164.18 220.54 164.05 218.75 Z  M 36.94 203.75 C 36.91 203.61 36.74 198.95 36.55 193.38 C 36.15 181.20 35.47 178.36 33.37 180.11 C 32.41 180.90 32.12 182.26 32.51 184.06 C 33.15 186.97 31.53 188.93 29.88 187.28 C 29.28 186.68 29.35 185.25 30.07 183.41 C 31.11 180.79 31.48 179.13 31.87 175.25 C 31.94 174.56 32.67 174.00 33.50 174.00 C 34.33 174.00 35.00 173.55 35.00 173.00 C 35.00 172.45 34.33 172.00 33.50 172.00 C 31.80 172.00 31.49 170.43 33.00 169.50 C 34.65 168.48 34.13 166.00 32.25 165.98 C 30.82 165.97 30.76 165.80 31.92 165.07 C 33.10 164.32 33.17 162.99 32.29 157.33 C 31.71 153.57 31.28 149.15 31.33 147.50 C 31.38 145.85 30.58 136.02 29.54 125.65 C 27.68 107.13 27.62 106.85 25.85 109.15 C 24.86 110.44 24.00 112.17 23.94 113.00 C 23.88 113.87 23.64 114.02 23.37 113.36 C 23.12 112.73 22.00 112.45 20.89 112.74 C 17.81 113.54 13.00 108.44 13.00 104.37 C 13.00 102.58 12.55 100.84 12.00 100.50 C 11.45 100.16 11.04 99.35 11.08 98.69 C 11.14 97.83 11.30 97.85 11.66 98.75 C 12.72 101.38 14.95 99.80 17.37 94.69 C 21.38 86.20 23.67 79.63 23.26 77.80 C 23.05 76.87 23.35 75.21 23.94 74.11 C 24.65 72.79 24.67 71.91 24.00 71.50 C 22.71 70.70 22.70 69.00 24.00 69.00 C 24.55 69.00 25.00 69.67 25.00 70.50 C 25.00 71.33 25.60 72.00 26.34 72.00 C 27.68 72.00 33.00 59.89 33.00 56.83 C 33.00 55.35 35.78 53.45 36.66 54.33 C 36.86 54.53 32.50 66.08 26.96 80.00 C 20.48 96.27 17.24 105.64 17.86 106.26 C 18.48 106.88 20.51 105.94 23.56 103.61 C 31.08 97.87 30.93 97.67 32.95 116.00 C 35.05 135.12 36.99 160.73 37.00 169.50 C 37.01 177.94 38.38 193.38 39.62 199.00 C 40.17 201.50 40.17 201.50 41.98 199.27 C 43.69 197.16 43.76 193.38 43.27 123.77 C 42.95 77.46 43.12 48.56 43.75 45.23 C 44.30 42.28 44.35 39.72 43.87 39.42 C 43.39 39.12 43.00 38.36 43.00 37.73 C 43.00 37.06 43.70 37.27 44.66 38.23 C 46.54 40.11 47.33 44.68 45.93 45.54 C 45.42 45.86 45.00 48.77 45.00 52.01 C 45.00 56.31 45.42 58.14 46.56 58.78 C 47.98 59.57 47.98 59.77 46.56 60.95 C 44.36 62.78 44.34 74.53 46.54 75.38 C 47.75 75.84 47.85 76.40 47.02 77.96 C 46.35 79.21 46.10 85.79 46.35 95.87 C 46.73 111.65 46.76 111.84 49.94 117.40 C 52.48 121.84 52.82 123.00 51.56 123.00 C 50.69 123.00 49.18 121.70 48.22 120.12 C 46.47 117.25 46.47 117.27 46.23 127.87 C 46.10 133.72 45.71 141.15 45.36 144.38 C 44.84 149.25 45.02 150.43 46.38 151.19 C 47.85 152.02 47.87 152.28 46.51 153.63 C 45.48 154.67 45.00 157.16 45.00 161.57 C 45.00 167.51 45.17 168.00 47.17 168.00 C 49.35 168.00 49.35 168.00 47.17 170.31 C 45.18 172.44 45.00 173.67 45.00 185.21 C 45.00 197.79 45.00 197.79 41.47 200.90 C 38.25 203.72 37.10 204.44 36.94 203.75 Z  M 48.00 194.63 C 48.00 194.42 49.14 191.84 50.54 188.88 C 53.09 183.46 53.19 184.32 50.80 191.25 C 50.09 193.31 49.17 195.00 48.76 195.00 C 48.34 195.00 48.00 194.83 48.00 194.63 Z  M 79.61 182.00 C 74.31 177.11 73.87 175.29 77.75 174.43 C 79.26 174.10 80.82 173.75 81.20 173.66 C 81.59 173.57 84.58 168.05 87.86 161.39 C 93.81 149.27 93.81 149.27 84.66 145.09 C 79.62 142.79 74.62 140.25 73.55 139.45 C 71.67 138.04 71.72 137.87 75.30 134.20 C 77.42 132.04 79.03 129.36 79.08 127.96 C 79.16 125.66 79.25 125.70 80.55 128.67 C 81.32 130.42 82.94 132.55 84.17 133.40 C 86.17 134.81 86.55 134.81 88.09 133.41 C 89.14 132.47 90.04 132.26 90.42 132.87 C 90.76 133.41 90.58 134.14 90.02 134.49 C 88.28 135.56 88.87 136.47 92.57 138.47 C 96.42 140.54 97.43 140.03 98.48 135.50 C 100.66 126.11 104.59 105.93 104.31 105.64 C 104.11 105.44 102.05 105.65 99.72 106.11 C 97.40 106.56 92.97 106.67 89.88 106.35 C 84.37 105.78 84.22 105.84 81.41 109.35 C 79.84 111.31 76.30 116.62 73.53 121.13 C 70.76 125.64 67.98 129.51 67.34 129.72 C 66.04 130.15 61.00 125.13 61.00 123.41 C 61.00 122.80 59.62 120.39 57.93 118.06 C 54.39 113.18 54.95 111.08 58.64 115.37 C 61.00 118.11 61.17 118.16 62.51 116.37 C 64.84 113.25 88.00 67.34 88.00 65.83 C 88.00 64.41 81.87 62.77 71.75 61.48 C 69.14 61.15 67.00 60.46 67.00 59.94 C 67.00 59.42 67.68 59.00 68.51 59.00 C 69.34 59.00 70.79 58.10 71.73 57.00 C 72.67 55.90 74.24 55.00 75.22 55.00 C 78.03 55.00 77.30 56.45 73.82 57.76 C 72.06 58.42 70.98 59.31 71.40 59.73 C 71.82 60.15 75.97 61.01 80.63 61.64 C 85.30 62.26 89.37 63.03 89.68 63.35 C 90.00 63.67 86.65 71.93 82.24 81.71 C 68.92 111.24 64.80 121.13 65.51 121.83 C 66.45 122.77 73.83 113.12 79.61 103.37 C 80.58 101.73 82.42 101.44 94.46 101.00 C 102.02 100.72 108.71 100.81 109.32 101.20 C 110.15 101.71 110.13 103.03 109.26 106.20 C 108.61 108.56 105.95 118.49 103.36 128.25 C 100.76 138.01 98.15 146.00 97.56 146.00 C 96.97 146.00 92.79 143.53 88.29 140.51 C 83.35 137.21 79.48 135.26 78.55 135.62 C 77.70 135.95 77.00 136.51 77.00 136.87 C 77.00 137.65 82.33 140.90 90.00 144.80 C 93.02 146.34 95.64 148.37 95.82 149.31 C 96.00 150.25 92.91 156.64 88.95 163.51 C 82.92 173.98 81.37 176.00 79.38 176.00 C 76.16 176.00 76.38 177.01 80.48 180.98 C 83.95 184.35 83.95 184.35 88.30 174.92 C 90.69 169.74 98.42 152.10 105.48 135.72 C 119.69 102.70 119.19 105.39 112.59 97.53 C 109.26 93.56 109.26 93.56 100.29 95.28 C 90.09 97.24 85.00 97.47 85.00 95.97 C 85.00 95.40 92.88 85.77 102.50 74.57 C 112.12 63.37 120.00 53.78 120.00 53.26 C 120.00 52.74 119.18 51.57 118.18 50.66 C 116.53 49.17 115.44 49.14 106.68 50.35 C 96.20 51.80 95.85 51.65 97.96 46.50 C 98.73 44.61 98.84 44.64 99.80 47.08 C 100.82 49.66 100.82 49.66 108.66 48.32 C 112.97 47.58 117.28 46.73 118.24 46.42 C 119.46 46.04 119.82 46.30 119.45 47.27 C 119.15 48.05 119.60 49.26 120.45 49.96 C 123.69 52.65 123.69 52.65 101.76 79.31 C 94.91 87.64 93.23 92.00 96.88 92.00 C 97.91 92.00 99.22 91.44 99.79 90.75 C 100.45 89.95 102.69 89.63 105.99 89.85 C 110.88 90.18 111.33 90.46 114.68 95.12 C 116.63 97.83 120.20 101.20 122.61 102.62 C 127.46 105.46 128.17 106.49 124.75 105.70 C 122.71 105.24 121.94 106.40 116.62 117.84 C 113.39 124.80 110.35 131.18 109.87 132.00 C 108.68 134.02 108.02 135.46 101.54 150.38 C 96.26 162.50 96.02 163.39 97.47 165.59 C 99.67 168.96 99.40 170.67 96.99 168.49 C 95.89 167.50 94.82 166.86 94.61 167.09 C 94.40 167.32 92.40 171.10 90.16 175.50 C 84.13 187.33 84.89 186.87 79.61 182.00 Z  M 91.75 181.25 C 91.17 176.57 91.77 175.59 92.62 179.84 C 92.97 181.58 93.64 183.00 94.12 183.00 C 94.61 183.00 95.00 183.45 95.00 184.00 C 95.00 184.55 94.37 185.00 93.61 185.00 C 92.75 185.00 92.04 183.56 91.75 181.25 Z  M 174.68 182.93 C 173.72 179.36 173.86 175.80 174.93 176.46 C 175.44 176.77 176.62 176.01 177.55 174.77 C 179.01 172.81 179.15 172.77 178.53 174.50 C 178.14 175.60 177.69 177.40 177.52 178.50 C 177.36 179.60 176.80 181.59 176.28 182.93 C 175.33 185.35 175.33 185.35 174.68 182.93 Z  M 177.61 155.89 C 176.49 152.30 176.25 149.96 176.97 149.52 C 177.39 149.26 178.01 150.69 178.34 152.72 C 178.94 156.38 178.44 158.54 177.61 155.89 Z  M 74.86 150.09 C 73.56 149.03 72.87 147.80 73.33 147.34 C 73.79 146.88 74.74 147.29 75.44 148.25 C 76.15 149.21 77.23 150.00 77.86 150.00 C 78.49 150.00 79.00 150.45 79.00 151.00 C 79.00 152.54 77.46 152.20 74.86 150.09 Z  M 107.03 147.25 C 107.05 146.29 107.72 144.63 108.53 143.56 C 110.13 141.44 110.46 142.68 109.37 146.75 C 108.66 149.41 106.99 149.77 107.03 147.25 Z  M 56.26 137.49 C 55.02 136.85 54.24 136.09 54.53 135.80 C 55.23 135.10 59.91 136.05 60.51 137.01 C 61.36 138.38 58.57 138.69 56.26 137.49 Z  M 89.35 126.66 C 89.79 125.42 89.27 124.22 87.75 122.97 C 85.21 120.89 85.85 118.84 89.89 116.15 C 92.18 114.64 92.18 114.64 91.44 119.57 C 90.76 124.10 90.83 124.38 92.37 123.10 C 95.47 120.54 95.01 122.61 91.84 125.57 C 89.59 127.67 88.88 127.98 89.35 126.66 Z  M 57.08 87.80 C 57.00 71.09 57.00 71.09 62.25 71.69 C 71.52 72.73 71.50 72.68 66.34 83.56 C 63.14 90.32 61.99 93.84 62.43 95.57 C 62.77 96.91 62.69 97.96 62.27 97.89 C 60.40 97.58 59.61 98.10 60.78 98.85 C 62.42 99.88 61.20 103.29 59.44 102.61 C 58.72 102.34 57.91 102.65 57.64 103.31 C 57.38 103.96 57.12 96.98 57.08 87.80 Z  M 152.00 102.13 C 152.00 101.57 152.48 100.82 153.07 100.46 C 153.66 100.09 154.55 98.83 155.05 97.65 C 155.81 95.86 155.92 96.09 155.73 98.99 C 155.57 101.41 154.96 102.59 153.75 102.82 C 152.79 103.00 152.00 102.69 152.00 102.13 Z  M 133.46 90.25 C 133.84 88.74 134.62 87.05 135.21 86.50 C 135.95 85.80 136.08 86.25 135.65 88.00 C 135.31 89.38 135.02 91.06 135.01 91.75 C 135.01 92.44 134.50 93.00 133.89 93.00 C 133.18 93.00 133.03 92.00 133.46 90.25 Z  M 176.74 63.25 C 176.53 62.84 176.67 61.15 177.06 59.50 C 177.45 57.85 177.82 57.17 177.90 58.00 C 177.97 58.83 178.30 60.51 178.63 61.75 C 179.19 63.82 177.65 65.04 176.74 63.25 Z  M 59.23 55.55 C 57.33 53.36 57.26 52.00 59.05 52.00 C 60.26 52.00 63.03 56.86 62.14 57.41 C 61.68 57.70 60.37 56.86 59.23 55.55 Z  M 172.00 38.56 C 172.00 36.05 172.45 34.00 173.00 34.00 C 173.55 34.00 174.00 35.77 174.00 37.94 C 174.00 40.11 173.55 42.16 173.00 42.50 C 172.39 42.88 172.00 41.34 172.00 38.56 Z  M 35.00 40.20 C 35.00 38.75 37.48 34.02 38.25 34.01 C 39.33 34.00 39.19 34.73 37.47 38.05 C 35.98 40.94 35.00 41.79 35.00 40.20 Z  M 152.00 212.50 C 151.32 211.68 151.09 211.00 151.49 211.00 C 151.89 211.00 151.16 210.11 149.86 209.03 C 148.56 207.95 148.04 207.05 148.71 207.03 C 150.27 206.99 154.00 210.98 154.00 212.69 C 154.00 214.39 153.53 214.34 152.00 212.50 Z "/>
</g>
</svg>