<?xml version="1.0" encoding="UTF-8" standalone="no"?>
<!DOCTYPE svg PUBLIC "-//W3C//DTD SVG 1.1//EN" "http://www.w3.org/Graphics/SVG/1.1/DTD/svg11.dtd" >
<svg xmlns="http://www.w3.org/2000/svg" xmlns:xlink="http://www.w3.org/1999/xlink" version="1.1" viewBox="0 0 205 256">
 <g >
 <path fill="currentColor"
d=" M 111.19 224.91 C 114.52 224.05 114.91 223.59 115.19 220.23 C 115.55 215.91 117.58 216.05 117.34 220.38 C 117.18 223.25 117.19 223.26 122.05 222.68 C 124.73 222.36 128.66 221.58 130.78 220.95 C 134.64 219.79 134.64 219.79 136.29 209.48 C 137.21 203.80 138.64 197.21 139.47 194.83 C 140.31 192.45 141.28 188.14 141.63 185.25 C 142.23 180.35 142.13 180.00 140.14 180.00 C 138.96 180.00 138.00 179.54 138.00 178.98 C 138.00 178.41 139.04 178.22 140.39 178.56 C 142.67 179.13 142.82 178.86 143.48 173.17 C 144.18 167.17 144.18 167.17 149.09 165.06 C 153.03 163.36 154.00 162.47 154.00 160.53 C 154.00 159.20 154.48 157.82 155.06 157.46 C 155.79 157.01 156.06 159.46 155.91 165.15 C 155.71 172.31 156.12 174.71 158.76 182.00 C 160.46 186.68 162.16 192.19 162.53 194.25 C 163.04 197.02 163.72 198.00 165.11 198.00 C 166.15 198.00 167.00 197.50 167.00 196.89 C 167.00 196.29 168.31 197.19 169.90 198.89 C 173.35 202.58 174.76 202.78 175.92 199.75 C 176.76 197.55 176.80 197.57 177.53 200.36 C 178.43 203.81 184.70 207.10 186.10 204.84 C 186.71 203.85 187.66 204.26 190.03 206.52 C 193.16 209.50 193.16 209.50 195.64 206.50 C 200.80 200.25 204.00 195.06 204.00 192.94 C 204.00 189.96 197.14 172.77 195.40 171.39 C 194.63 170.78 194.00 169.58 194.00 168.73 C 194.00 167.87 191.37 159.98 188.16 151.19 C 182.32 135.21 182.32 135.21 185.21 132.86 C 186.79 131.56 190.38 127.88 193.18 124.67 C 198.28 118.84 198.28 118.84 196.01 108.05 C 194.00 98.48 193.53 97.31 191.85 97.75 C 190.17 98.19 190.07 97.94 190.98 95.56 C 191.54 94.08 192.00 92.75 192.00 92.61 C 192.00 91.81 182.53 92.90 182.26 93.73 C 182.08 94.27 181.24 95.57 180.39 96.61 C 178.93 98.41 178.88 98.38 179.53 96.00 C 181.65 88.17 181.55 87.84 174.67 81.24 C 171.10 77.81 167.74 75.00 167.21 75.00 C 165.56 75.00 164.25 77.34 163.56 81.53 C 162.99 85.02 163.24 85.88 165.45 87.95 C 166.85 89.27 168.00 90.86 168.00 91.48 C 168.00 92.09 165.97 93.59 163.50 94.79 C 159.05 96.95 157.59 99.00 160.50 99.00 C 161.32 99.00 162.00 99.47 162.00 100.04 C 162.00 100.75 161.40 100.75 160.07 100.04 C 159.00 99.47 157.40 99.00 156.52 99.00 C 154.78 99.00 130.02 110.12 126.17 112.63 C 123.91 114.10 123.89 114.22 125.62 116.13 C 126.86 117.50 128.14 117.93 129.79 117.52 C 131.75 117.02 132.06 117.24 131.58 118.75 C 131.17 120.05 132.44 121.99 136.00 125.50 C 138.84 128.30 141.00 131.33 141.00 132.52 C 141.00 133.67 139.62 140.89 137.94 148.56 C 136.26 156.22 135.07 163.50 135.30 164.72 C 135.52 165.93 135.27 167.08 134.73 167.26 C 133.65 167.62 129.03 186.92 129.01 191.14 C 129.01 192.60 129.69 194.05 130.52 194.37 C 131.82 194.87 131.76 195.24 130.12 196.88 C 129.05 197.95 127.64 201.27 126.97 204.27 C 125.76 209.67 125.70 209.73 120.53 211.36 C 117.67 212.26 114.20 213.00 112.83 213.00 C 111.46 213.00 110.03 213.30 109.66 213.67 C 109.30 214.04 107.45 214.50 105.57 214.69 C 102.59 215.00 101.41 214.36 96.62 209.85 C 93.58 206.99 91.34 204.26 91.64 203.78 C 91.94 203.30 92.75 203.38 93.45 203.96 C 94.41 204.76 95.32 204.15 97.11 201.52 C 98.86 198.95 100.17 198.06 102.00 198.18 C 104.41 198.34 111.92 195.07 115.00 192.53 C 116.48 191.30 123.00 188.79 123.00 189.44 C 123.00 189.63 118.76 192.34 113.58 195.48 C 107.04 199.44 103.55 200.99 102.18 200.56 C 100.77 200.11 99.60 200.69 98.10 202.60 C 95.28 206.19 95.43 207.04 99.43 210.24 C 102.86 212.97 102.86 212.97 112.68 210.69 C 122.50 208.41 122.50 208.41 124.13 201.95 C 125.02 198.40 126.00 193.47 126.31 191.00 C 126.61 188.52 127.41 184.53 128.09 182.11 C 129.02 178.78 129.04 177.29 128.16 175.88 C 126.64 173.45 126.70 173.00 128.50 173.00 C 129.66 173.00 130.00 171.68 130.00 167.08 C 130.00 163.83 130.23 160.55 130.52 159.80 C 130.81 159.05 130.42 157.59 129.66 156.54 C 128.34 154.75 127.36 155.31 111.88 166.66 C 102.87 173.28 94.04 179.53 92.25 180.56 C 90.46 181.59 89.00 183.14 89.00 184.02 C 89.00 184.89 88.49 186.11 87.86 186.74 C 87.24 187.36 86.60 189.59 86.45 191.69 C 86.29 193.78 85.69 196.74 85.11 198.25 C 84.05 201.01 84.63 207.00 85.96 207.00 C 86.35 207.00 87.14 208.54 87.72 210.42 C 88.51 213.01 88.48 213.74 87.58 213.39 C 85.75 212.69 82.76 207.07 83.37 205.48 C 84.44 202.68 82.33 203.17 80.59 206.12 C 78.43 209.77 78.48 209.84 90.50 220.20 C 98.38 226.99 98.57 227.09 103.00 226.48 C 105.47 226.15 109.16 225.44 111.19 224.91 Z  M 160.29 86.11 C 160.87 85.53 161.68 81.55 162.09 77.27 C 162.49 73.00 163.53 67.04 164.41 64.03 C 166.41 57.17 166.42 54.10 164.47 53.35 C 163.53 52.99 163.16 52.06 163.52 50.94 C 163.92 49.69 161.38 45.36 155.31 36.96 C 146.52 24.81 146.52 24.81 141.51 25.47 C 131.89 26.74 127.00 28.13 127.00 29.58 C 127.00 30.36 126.55 31.00 126.00 31.00 C 125.45 31.00 125.00 30.55 125.00 30.00 C 125.00 28.54 118.01 28.77 117.54 30.25 C 117.33 30.94 116.86 33.68 116.50 36.35 C 115.85 41.19 115.85 41.19 119.17 40.52 C 121.00 40.14 123.24 38.98 124.15 37.93 C 125.39 36.50 125.92 36.36 126.30 37.35 C 126.69 38.35 128.10 38.48 132.15 37.91 C 142.69 36.41 142.13 36.14 148.51 45.73 C 154.32 54.46 154.32 54.46 152.16 65.55 C 150.97 71.65 150.00 78.19 150.00 80.10 C 150.00 82.00 149.25 84.62 148.34 85.93 C 146.67 88.31 146.67 88.31 152.95 87.74 C 156.41 87.42 159.71 86.69 160.29 86.11 Z  M 53.22 202.34 C 52.69 201.33 51.97 198.86 51.61 196.85 C 51.24 194.84 50.05 192.06 48.96 190.67 C 47.86 189.28 47.38 187.88 47.90 187.56 C 48.41 187.25 49.04 187.55 49.30 188.24 C 49.62 189.12 49.98 188.98 50.47 187.81 C 51.62 185.02 48.85 180.54 45.74 180.18 C 44.23 180.01 43.00 179.44 43.00 178.91 C 43.00 178.39 44.12 178.24 45.49 178.59 C 48.29 179.29 49.72 177.23 48.50 174.25 C 48.10 173.29 47.72 169.45 47.64 165.71 C 47.54 161.02 47.06 158.65 46.06 158.04 C 45.00 157.38 44.91 156.81 45.72 155.83 C 46.51 154.86 46.44 152.20 45.46 146.09 C 44.72 141.46 44.14 137.41 44.17 137.09 C 44.48 134.25 43.66 134.09 42.50 136.77 C 41.72 138.56 40.09 140.40 38.88 140.85 C 37.01 141.54 36.93 141.76 38.34 142.30 C 39.25 142.65 40.00 143.40 40.00 143.97 C 40.00 145.46 37.01 145.24 36.97 143.75 C 36.95 143.06 35.91 143.67 34.65 145.10 C 32.20 147.88 27.97 149.21 25.82 147.89 C 24.79 147.25 24.77 146.83 25.75 145.85 C 26.73 144.87 26.57 144.17 24.95 142.45 C 22.92 140.29 22.92 140.29 29.96 122.03 C 33.83 111.98 37.00 103.68 37.00 103.57 C 37.00 103.46 35.42 102.76 33.50 102.00 C 31.58 101.24 30.00 100.23 30.00 99.75 C 30.00 99.27 30.37 99.11 30.82 99.39 C 31.27 99.67 32.87 100.12 34.37 100.39 C 36.50 100.78 37.28 100.41 37.94 98.69 C 38.41 97.49 39.76 94.08 40.93 91.13 C 43.06 85.76 43.06 85.76 37.60 86.44 C 31.73 87.18 28.11 85.99 24.67 82.18 C 22.89 80.22 22.90 80.10 24.76 78.24 C 25.82 77.18 28.45 76.03 30.59 75.68 C 34.50 75.04 34.50 75.04 30.14 77.64 C 25.79 80.24 25.79 80.24 28.34 82.79 C 30.88 85.33 30.91 85.34 37.98 84.00 C 42.82 83.09 45.39 82.99 46.09 83.69 C 47.05 84.65 42.56 99.58 32.07 130.38 C 27.50 143.77 29.12 144.61 37.48 133.17 C 44.09 124.14 45.29 123.04 46.49 124.98 C 47.62 126.82 49.91 147.47 51.47 170.00 C 53.12 193.81 53.75 199.00 54.99 199.00 C 57.37 199.00 57.54 194.45 56.39 161.50 C 54.78 115.22 54.76 112.00 56.13 112.00 C 56.75 112.00 60.35 115.15 64.14 119.00 C 67.92 122.85 71.40 126.00 71.88 126.00 C 72.36 126.00 73.27 125.38 73.89 124.63 C 74.75 123.59 74.66 122.96 73.50 122.00 C 72.66 121.30 67.89 116.31 62.91 110.90 C 53.84 101.06 53.84 101.06 54.54 91.12 C 55.24 81.18 55.24 81.18 60.12 78.53 C 62.81 77.07 65.00 75.56 65.00 75.17 C 65.00 74.78 62.97 73.35 60.49 72.00 C 58.02 70.64 55.80 68.85 55.57 68.02 C 55.35 67.18 54.37 63.01 53.40 58.75 C 51.69 51.23 50.07 48.67 49.93 53.25 C 49.89 54.49 49.46 56.40 48.98 57.50 C 48.42 58.77 48.32 57.31 48.69 53.50 C 49.32 47.03 50.57 43.62 51.99 44.49 C 52.47 44.79 53.64 48.52 54.57 52.77 C 56.47 61.45 58.82 68.00 60.01 68.00 C 60.45 68.00 60.58 67.10 60.29 66.00 C 60.00 64.88 60.26 64.00 60.88 64.00 C 61.50 64.00 62.00 64.83 62.00 65.85 C 62.00 68.09 64.28 70.18 69.25 72.49 C 72.50 73.99 74.48 77.00 72.23 77.00 C 71.33 77.00 68.62 87.95 69.33 88.66 C 69.59 88.93 71.64 88.21 73.87 87.07 C 76.66 85.64 77.75 84.52 77.36 83.50 C 77.04 82.67 77.28 82.00 77.89 82.00 C 78.50 82.00 79.00 82.65 79.00 83.43 C 79.00 84.25 80.18 85.00 81.75 85.18 C 84.21 85.47 84.55 85.98 85.00 90.00 C 85.51 94.50 85.51 94.50 86.70 91.25 C 87.36 89.46 88.37 88.00 88.95 88.00 C 90.82 88.00 90.06 91.13 87.44 94.26 C 85.10 97.04 84.90 97.98 85.14 105.15 C 85.29 109.47 85.71 113.00 86.08 113.00 C 87.09 113.00 89.37 118.96 88.64 119.69 C 87.61 120.72 83.88 116.75 84.46 115.24 C 84.77 114.44 82.88 111.65 80.02 108.67 C 76.43 104.94 75.04 104.00 75.02 105.31 C 75.01 106.30 74.55 106.84 74.00 106.50 C 73.45 106.16 73.00 105.17 73.00 104.29 C 73.00 102.58 68.06 91.83 66.89 91.00 C 66.50 90.72 66.76 88.25 67.46 85.50 C 68.64 80.91 68.60 80.47 66.95 80.19 C 65.96 80.02 63.27 80.84 60.98 82.01 C 57.54 83.77 56.91 84.52 57.39 86.32 C 57.71 87.52 57.98 91.28 57.99 94.68 C 58.00 100.85 58.00 100.85 68.70 112.55 C 79.40 124.26 79.40 124.26 76.18 127.13 C 74.41 128.71 72.52 130.00 71.98 130.00 C 71.43 130.00 67.80 126.74 63.91 122.75 C 56.84 115.50 56.84 115.50 57.43 145.90 C 57.99 174.82 58.55 185.64 59.66 189.00 C 60.74 192.25 61.02 204.00 60.02 204.00 C 59.46 204.00 59.05 203.66 59.12 203.25 C 59.60 200.19 58.85 199.80 56.59 201.92 C 54.29 204.08 54.12 204.10 53.22 202.34 Z  M 78.87 169.24 C 80.10 166.94 83.87 163.54 84.50 164.17 C 85.06 164.73 79.67 171.00 78.63 171.00 C 78.24 171.00 78.35 170.21 78.87 169.24 Z  M 60.58 167.00 C 59.69 164.61 60.40 157.48 61.50 157.75 C 62.70 158.04 63.00 164.89 61.91 167.00 C 61.22 168.33 61.07 168.33 60.58 167.00 Z  M 69.60 149.41 C 68.61 146.82 68.92 143.81 70.14 144.21 C 71.50 144.67 72.22 149.74 71.03 150.48 C 70.58 150.76 69.94 150.28 69.60 149.41 Z  M 79.25 148.64 C 76.13 147.09 76.43 145.84 79.75 146.56 C 84.27 147.56 85.00 147.89 85.00 148.97 C 85.00 150.26 82.20 150.10 79.25 148.64 Z  M 19.00 136.17 C 19.00 135.71 19.32 135.01 19.72 134.61 C 20.45 133.88 20.53 133.35 20.83 126.75 C 21.03 122.23 23.00 121.68 23.00 126.13 C 23.00 130.03 20.97 137.00 19.84 137.00 C 19.38 137.00 19.00 136.62 19.00 136.17 Z  M 64.75 99.92 C 63.00 98.90 62.34 96.98 63.75 97.02 C 64.16 97.03 65.62 97.92 67.00 99.00 C 69.67 101.09 67.96 101.79 64.75 99.92 Z  M 78.84 75.30 C 80.27 72.62 82.69 70.73 84.09 71.20 C 84.72 71.41 83.56 72.86 81.51 74.42 C 78.59 76.66 78.01 76.84 78.84 75.30 Z  M 109.12 70.25 C 104.75 69.87 104.75 69.87 105.37 65.30 C 105.72 62.78 106.00 59.88 106.00 58.86 C 106.00 57.84 106.48 57.00 107.07 57.00 C 107.79 57.00 107.92 58.83 107.46 62.50 C 106.77 68.00 106.77 68.00 109.76 68.00 C 111.41 68.00 113.28 67.37 113.92 66.60 C 114.71 65.65 116.32 65.37 118.98 65.72 C 121.12 66.01 124.49 65.94 126.47 65.57 C 129.95 64.92 130.05 64.78 129.42 61.45 C 129.00 59.20 129.16 58.00 129.89 58.00 C 130.50 58.00 131.00 59.09 131.00 60.43 C 131.00 63.10 133.61 66.30 135.32 65.73 C 135.91 65.53 137.28 62.13 138.35 58.18 C 139.42 54.23 140.68 51.00 141.15 51.00 C 141.62 51.00 142.00 55.04 142.00 59.98 C 142.00 68.49 141.88 68.99 139.75 69.42 C 136.45 70.09 114.22 70.69 109.12 70.25 Z  M 120.04 57.75 C 120.47 52.45 120.16 52.00 116.25 52.08 C 114.19 52.12 113.06 52.38 113.75 52.66 C 114.44 52.94 115.00 53.59 115.00 54.11 C 115.00 54.63 113.64 54.35 111.97 53.48 C 110.30 52.62 108.46 52.21 107.87 52.58 C 107.23 52.98 106.95 52.50 107.17 51.38 C 107.65 48.87 111.10 48.26 125.75 48.12 C 141.92 47.96 142.09 50.08 126.00 51.25 C 122.64 51.49 122.49 51.67 122.19 55.75 C 122.02 58.09 121.43 60.00 120.87 60.00 C 120.31 60.00 119.94 58.99 120.04 57.75 Z  M 93.00 40.45 C 90.50 38.98 90.50 38.98 94.00 39.24 C 95.92 39.38 97.42 39.94 97.33 40.48 C 97.04 42.04 95.68 42.03 93.00 40.45 Z  M 125.00 217.40 C 125.00 216.18 131.33 210.94 132.37 211.29 C 132.97 211.49 132.23 212.46 130.73 213.44 C 129.23 214.43 128.00 215.85 128.00 216.62 C 128.00 217.38 127.33 218.00 126.50 218.00 C 125.67 218.00 125.00 217.73 125.00 217.40 Z  M 181.30 193.69 C 176.79 191.93 172.57 189.97 171.92 189.32 C 171.26 188.66 169.72 184.63 168.49 180.36 C 166.28 172.71 164.01 169.59 163.98 174.17 C 163.98 175.45 163.53 177.18 163.00 178.00 C 162.30 179.09 162.03 178.21 162.02 174.83 C 162.01 172.27 162.48 170.01 163.06 169.81 C 163.81 169.56 163.81 168.64 163.06 166.66 C 162.48 165.13 161.99 162.21 161.99 160.18 C 161.98 156.57 159.64 146.31 158.59 145.26 C 158.30 144.97 155.93 146.11 153.33 147.80 C 150.73 149.49 148.23 150.64 147.77 150.36 C 147.31 150.07 149.67 148.00 153.01 145.75 C 158.22 142.26 159.29 141.87 160.43 143.08 C 162.21 144.97 165.32 153.62 170.10 169.95 C 172.43 177.92 174.89 184.32 176.14 185.65 C 178.20 187.84 186.87 191.46 187.81 190.52 C 188.07 190.26 186.89 186.33 185.18 181.77 C 180.30 168.74 168.99 135.61 169.05 134.50 C 169.08 133.95 170.16 136.34 171.45 139.81 C 173.97 146.60 174.53 147.49 176.33 147.52 C 176.97 147.53 177.35 148.38 177.18 149.40 C 177.00 150.42 180.11 159.03 184.10 168.53 C 189.68 181.84 191.69 185.67 192.85 185.23 C 194.01 184.78 194.16 185.08 193.51 186.58 C 193.05 187.63 192.71 189.62 192.75 190.99 C 192.82 193.66 191.38 197.04 190.21 196.94 C 189.82 196.90 185.81 195.44 181.30 193.69 Z  M 107.00 183.05 C 107.00 182.13 117.10 176.77 117.70 177.37 C 117.93 177.60 115.62 179.14 112.56 180.80 C 109.50 182.45 107.00 183.46 107.00 183.05 Z  M 118.00 175.12 C 118.00 174.64 118.67 173.68 119.50 173.00 C 120.33 172.32 121.00 171.11 121.00 170.32 C 121.00 169.53 121.45 169.16 122.00 169.50 C 122.62 169.89 122.43 171.20 121.47 173.06 C 120.03 175.83 118.00 177.04 118.00 175.12 Z  M 141.12 160.17 C 139.88 158.43 139.27 157.00 139.78 157.00 C 141.27 157.00 144.24 160.78 143.79 162.12 C 143.56 162.83 142.44 162.02 141.12 160.17 Z  M 142.00 144.12 C 142.00 143.56 142.61 142.74 143.35 142.30 C 144.10 141.86 144.98 140.82 145.31 140.00 C 145.64 139.18 145.78 139.85 145.62 141.50 C 145.44 143.35 144.69 144.62 143.67 144.82 C 142.75 145.00 142.00 144.69 142.00 144.12 Z  M 152.03 138.25 C 154.80 135.64 160.02 131.03 163.62 128.00 C 179.34 114.78 178.55 115.78 177.14 111.07 C 175.62 106.01 173.66 105.05 170.72 107.91 C 167.89 110.66 162.89 114.73 156.01 119.90 C 150.57 123.99 150.57 123.99 146.76 120.27 C 142.95 116.55 142.95 116.55 148.19 114.24 C 151.07 112.96 153.67 111.58 153.96 111.16 C 154.26 110.74 156.44 109.84 158.81 109.14 C 164.33 107.53 167.34 104.58 166.73 101.38 C 166.05 97.82 167.72 97.45 168.50 100.99 C 169.24 104.36 170.51 104.65 175.50 102.56 C 178.72 101.22 178.87 101.24 177.84 102.89 C 177.00 104.23 177.16 105.57 178.55 108.57 C 179.54 110.73 180.50 112.69 180.69 112.93 C 180.87 113.16 182.31 112.41 183.89 111.24 C 186.75 109.13 186.75 109.13 189.55 112.05 C 192.56 115.19 192.24 117.43 189.18 114.66 C 186.79 112.50 186.00 112.56 186.00 114.92 C 186.00 115.98 183.69 119.37 180.86 122.46 C 176.08 127.69 175.80 128.27 176.91 130.70 C 177.73 132.49 177.77 133.63 177.06 134.34 C 176.35 135.05 175.67 134.36 174.89 132.12 C 173.76 128.88 173.76 128.88 171.57 130.94 C 168.34 133.97 167.54 133.45 170.04 129.94 C 171.24 128.26 172.02 126.69 171.78 126.44 C 171.54 126.20 166.23 129.83 160.00 134.50 C 153.76 139.18 148.28 143.00 147.82 143.00 C 147.36 143.00 149.26 140.86 152.03 138.25 Z  M 154.67 73.33 C 153.67 72.33 153.89 66.71 155.00 65.00 C 155.69 63.93 155.97 64.99 155.98 68.75 C 156.00 74.06 155.87 74.53 154.67 73.33 Z "/>
</g>
</svg>