<?xml version="1.0" encoding="UTF-8" standalone="no"?>
<!DOCTYPE svg PUBLIC "-//W3C//DTD SVG 1.1//EN" "http://www.w3.org/Graphics/SVG/1.1/DTD/svg11.dtd" >
<svg xmlns="http://www.w3.org/2000/svg" xmlns:xlink="http://www.w3.org/1999/xlink" version="1.1" viewBox="0 0 194 256">
 <g >
 <path fill="currentColor"
d=" M 145.50 190.00 C 135.61 180.10 127.20 172.00 126.80 172.00 C 126.40 172.00 125.16 172.98 124.04 174.19 C 122.70 175.62 122.00 175.90 122.00 175.00 C 122.00 174.25 122.89 172.68 123.98 171.52 C 125.96 169.42 125.96 169.42 117.01 160.51 C 112.09 155.61 107.86 151.81 107.62 152.05 C 106.51 153.16 89.00 181.42 89.00 182.10 C 89.00 182.52 89.90 183.15 91.00 183.50 C 92.10 183.85 93.00 184.55 93.00 185.07 C 93.00 186.35 91.64 186.24 90.24 184.84 C 88.66 183.26 86.56 185.10 82.20 191.92 C 79.33 196.39 78.93 197.65 79.87 199.17 C 81.22 201.32 80.41 201.47 76.71 199.75 C 75.23 199.06 74.18 198.05 74.38 197.50 C 74.57 196.95 74.04 195.29 73.19 193.81 C 71.97 191.69 71.84 190.11 72.57 186.31 C 73.38 182.15 73.80 181.53 75.75 181.74 C 78.05 181.98 78.81 180.62 77.00 179.50 C 75.34 178.48 75.88 177.15 77.75 177.64 C 80.03 178.23 83.46 169.63 81.57 168.06 C 79.63 166.45 77.58 157.02 78.89 155.71 C 79.70 154.90 80.00 155.30 80.00 157.25 C 80.00 160.34 81.92 165.00 83.20 165.00 C 84.60 165.00 88.18 155.78 87.17 154.77 C 86.67 154.27 82.76 153.60 78.49 153.28 C 70.71 152.69 70.71 152.69 71.37 155.34 C 71.88 157.38 71.67 158.00 70.46 158.00 C 69.39 158.00 68.98 157.27 69.19 155.75 C 69.44 153.90 68.97 153.45 66.50 153.20 C 63.48 152.90 58.08 149.58 59.05 148.62 C 59.33 148.34 64.05 146.81 69.53 145.23 C 79.50 142.36 79.50 142.36 79.15 134.93 C 78.97 130.84 78.40 127.07 77.90 126.55 C 77.35 125.96 77.00 126.25 77.00 127.30 C 77.00 128.23 76.55 129.00 76.00 129.00 C 74.40 129.00 74.85 126.58 76.75 124.95 C 78.21 123.70 78.45 122.09 78.17 115.11 C 77.88 107.88 77.58 106.70 75.92 106.27 C 73.52 105.64 73.40 104.00 75.75 104.00 C 77.30 104.00 77.44 103.18 77.00 96.75 C 76.55 90.24 76.28 89.47 74.32 89.19 C 73.12 89.02 70.75 89.59 69.07 90.46 C 66.00 92.05 66.00 92.05 66.01 89.28 C 66.01 87.75 66.30 84.11 66.65 81.20 C 67.29 75.89 67.29 75.89 70.40 78.77 C 72.10 80.35 74.72 82.39 76.21 83.32 C 78.19 84.54 79.46 86.76 80.96 91.60 C 82.08 95.24 83.00 99.49 83.00 101.05 C 83.00 102.61 83.39 104.12 83.86 104.41 C 84.33 104.70 84.96 107.32 85.26 110.22 C 86.15 118.85 89.15 134.00 89.96 134.00 C 91.13 134.00 101.82 103.61 100.98 102.67 C 100.58 102.22 98.46 102.38 96.27 103.04 C 93.21 103.95 91.79 103.96 90.09 103.05 C 85.66 100.68 88.00 98.66 99.50 94.91 C 110.50 91.33 110.50 91.33 110.81 87.66 C 111.18 83.33 110.73 83.21 106.41 86.50 C 104.61 87.87 102.41 89.00 101.54 89.00 C 98.70 89.00 98.61 86.02 101.35 83.16 C 103.44 80.97 104.00 79.33 104.19 74.72 C 104.46 68.28 106.00 66.81 106.00 73.00 C 106.00 75.20 106.29 77.00 106.64 77.00 C 108.01 77.00 124.00 61.72 124.00 60.41 C 124.00 59.26 121.16 59.00 108.60 59.00 C 93.20 59.00 93.20 59.00 88.03 64.66 C 82.99 70.17 82.73 70.96 84.55 75.39 C 85.86 78.60 82.74 76.72 80.56 72.99 C 78.90 70.14 78.85 69.73 80.22 70.26 C 81.43 70.72 82.94 69.16 86.10 64.19 C 88.45 60.51 91.04 56.94 91.87 56.25 C 92.97 55.34 98.92 55.00 113.69 55.00 C 137.37 55.00 137.34 54.99 128.75 63.85 C 123.50 69.27 123.50 69.27 129.85 64.89 C 133.35 62.47 137.85 59.04 139.85 57.26 C 143.50 54.01 143.50 54.01 139.50 50.52 C 137.30 48.60 134.60 47.03 133.50 47.03 C 132.40 47.03 124.30 48.14 115.50 49.49 C 106.70 50.85 98.04 51.97 96.25 51.98 C 93.06 52.00 93.00 51.91 93.00 47.50 C 93.00 45.02 92.61 43.00 92.13 43.00 C 91.65 43.00 88.88 46.61 85.98 51.03 C 83.08 55.45 80.37 59.27 79.95 59.53 C 79.53 59.79 80.05 57.74 81.10 54.99 C 82.14 52.23 83.00 49.04 83.00 47.90 C 83.00 46.75 83.79 45.60 84.75 45.33 C 85.71 45.07 87.72 42.86 89.21 40.43 C 91.27 37.06 92.53 36.00 94.47 36.00 C 96.97 36.00 97.01 36.11 96.37 41.48 C 95.82 46.19 95.98 47.06 97.53 47.65 C 98.58 48.05 100.58 47.63 102.29 46.65 C 104.40 45.44 105.60 45.25 106.51 46.01 C 107.73 47.02 122.42 46.41 124.34 45.27 C 125.22 44.75 124.84 41.90 123.47 38.61 C 122.91 37.27 123.06 36.85 123.97 37.16 C 124.68 37.39 125.77 39.14 126.38 41.04 C 127.58 44.74 130.91 46.15 133.46 44.03 C 134.92 42.82 140.00 43.65 140.00 45.11 C 140.00 45.60 139.46 46.00 138.80 46.00 C 138.14 46.00 139.37 47.84 141.55 50.10 C 145.50 54.20 145.50 54.20 141.64 57.35 C 113.36 80.42 114.53 79.32 113.91 83.52 C 112.85 90.78 112.11 91.80 106.65 93.62 C 103.82 94.55 98.80 96.60 95.50 98.15 C 89.50 100.99 89.50 100.99 96.75 100.39 C 103.25 99.86 104.00 99.98 104.00 101.57 C 104.00 105.12 91.59 143.22 90.27 143.73 C 88.30 144.48 88.14 144.12 86.16 134.94 C 83.99 124.85 82.67 125.88 83.15 137.27 C 83.50 145.41 83.50 145.41 79.20 147.02 C 74.89 148.62 74.89 148.62 83.59 149.79 C 88.37 150.42 92.50 151.17 92.78 151.44 C 93.37 152.04 82.36 181.51 80.33 184.78 C 79.55 186.04 78.14 186.94 77.20 186.78 C 74.95 186.41 74.33 191.20 76.42 192.93 C 77.72 194.01 80.00 191.07 92.55 172.09 C 100.59 159.94 107.52 150.00 107.95 150.00 C 108.38 150.00 116.48 158.09 125.94 167.97 C 135.41 177.85 147.86 190.30 153.62 195.63 C 164.09 205.33 164.09 205.33 166.79 203.31 C 168.28 202.19 169.50 200.83 169.50 200.27 C 169.50 199.26 136.38 168.87 128.00 162.20 C 120.96 156.59 115.00 150.70 115.00 149.35 C 115.00 147.49 115.68 147.24 133.66 142.44 C 142.84 139.99 150.55 137.78 150.80 137.53 C 151.05 137.28 150.08 136.54 148.63 135.88 C 147.18 135.22 146.00 133.97 146.00 133.10 C 146.00 132.23 148.29 124.13 151.09 115.11 C 156.18 98.70 156.18 98.70 150.16 92.68 C 144.14 86.66 144.14 86.66 137.32 86.72 C 130.50 86.78 130.50 86.78 136.43 86.12 C 139.68 85.75 142.51 84.96 142.71 84.36 C 142.91 83.76 144.52 84.69 146.29 86.41 C 148.05 88.14 151.51 91.18 153.96 93.19 C 158.41 96.82 158.41 96.82 155.71 106.40 C 154.22 111.67 153.00 117.61 153.00 119.59 C 153.00 121.67 152.16 124.25 151.00 125.73 C 147.97 129.59 148.39 132.59 152.15 133.90 C 157.03 135.60 159.24 135.34 158.54 133.14 C 157.85 130.94 158.80 128.00 160.22 128.00 C 161.17 128.00 161.02 129.93 159.42 137.83 C 158.89 140.46 158.35 141.06 156.88 140.68 C 154.91 140.16 144.83 142.48 141.67 144.17 C 139.99 145.08 139.97 145.31 141.42 146.91 C 143.11 148.78 143.53 151.00 142.19 151.00 C 141.74 151.00 140.42 149.70 139.25 148.12 C 137.12 145.24 137.12 145.24 130.57 147.05 C 121.74 149.50 121.21 149.96 125.05 151.82 C 126.84 152.69 127.79 153.57 127.15 153.78 C 126.52 153.99 126.00 154.51 126.00 154.92 C 126.00 155.81 169.20 195.75 172.70 198.10 C 175.08 199.70 175.08 199.70 169.59 203.85 C 166.56 206.13 163.95 208.00 163.78 208.00 C 163.62 208.00 155.39 199.90 145.50 190.00 Z  M 22.86 204.45 C 22.25 200.42 22.31 197.00 22.97 197.00 C 24.15 197.00 24.93 203.34 23.89 204.45 C 23.33 205.05 22.95 205.05 22.86 204.45 Z  M 13.99 197.99 C 12.64 196.97 11.90 195.77 12.35 195.32 C 12.80 194.87 13.69 195.22 14.33 196.10 C 14.97 196.98 15.88 197.73 16.33 197.77 C 17.67 197.87 18.21 198.75 17.29 199.32 C 16.82 199.61 15.34 199.01 13.99 197.99 Z  M 139.50 196.00 C 139.01 195.21 139.29 194.26 140.23 193.57 C 141.08 192.96 141.99 191.56 142.27 190.48 C 142.67 188.89 142.79 189.00 142.88 191.06 C 143.03 194.38 140.65 197.86 139.50 196.00 Z  M 16.06 189.81 C 13.70 186.82 13.67 186.63 15.31 183.78 C 16.24 182.16 17.00 180.01 17.00 179.00 C 17.00 175.74 18.12 173.86 19.42 174.93 C 20.27 175.64 22.82 173.05 28.50 165.71 C 32.84 160.09 38.10 153.60 40.20 151.27 C 42.29 148.95 44.00 146.68 44.00 146.24 C 44.00 145.79 45.43 144.58 47.18 143.55 C 50.37 141.67 50.37 141.67 47.98 145.59 C 46.04 148.76 45.94 149.22 47.46 148.00 C 48.49 147.18 50.61 144.74 52.17 142.60 C 56.34 136.86 55.66 138.72 49.41 150.17 C 43.14 161.64 40.47 165.70 33.18 174.79 C 30.41 178.25 27.85 182.41 27.49 184.05 C 27.13 185.68 26.45 186.78 25.98 186.49 C 25.51 186.20 23.92 187.55 22.45 189.48 C 20.97 191.42 19.48 192.98 19.13 192.94 C 18.78 192.91 17.40 191.50 16.06 189.81 Z  M 23.91 184.13 C 26.11 180.90 29.32 175.83 31.06 172.88 C 34.10 167.69 34.12 167.58 31.61 169.92 C 30.18 171.25 29.21 172.54 29.45 172.78 C 29.69 173.02 28.58 174.32 26.99 175.67 C 21.74 180.08 17.80 185.79 18.50 187.98 C 18.85 189.09 19.31 190.00 19.53 190.00 C 19.75 190.00 21.72 187.36 23.91 184.13 Z  M 67.00 180.12 C 67.00 179.64 67.67 178.68 68.50 178.00 C 69.33 177.32 70.00 176.14 70.00 175.38 C 70.00 174.62 70.45 174.00 71.00 174.00 C 72.34 174.00 72.27 174.58 70.47 178.05 C 69.04 180.83 67.00 182.05 67.00 180.12 Z  M 104.15 167.02 C 104.21 164.28 104.65 162.28 105.13 162.58 C 106.33 163.32 106.23 172.00 105.02 172.00 C 104.48 172.00 104.09 169.76 104.15 167.02 Z  M 62.96 139.07 C 64.28 136.61 64.30 132.31 63.01 131.50 C 62.46 131.17 61.57 130.07 61.03 129.06 C 60.25 127.61 60.41 127.26 61.78 127.37 C 63.31 127.49 63.51 126.27 63.55 116.43 C 63.58 110.34 64.12 104.04 64.76 102.43 C 65.39 100.82 66.09 98.38 66.32 97.00 C 66.60 95.26 66.77 95.64 66.86 98.25 C 66.96 100.99 67.44 102.00 68.62 102.00 C 69.97 102.00 70.03 102.26 68.97 103.54 C 67.99 104.72 67.84 108.59 68.34 120.04 C 68.87 132.35 68.74 135.00 67.62 135.00 C 66.87 135.00 65.98 136.35 65.65 138.00 C 65.29 139.80 64.42 141.00 63.49 141.00 C 62.26 141.00 62.15 140.59 62.96 139.07 Z  M 72.03 138.75 C 72.07 137.36 74.39 134.00 75.31 134.00 C 75.63 134.00 75.43 135.35 74.85 137.00 C 73.81 139.99 71.97 141.13 72.03 138.75 Z  M 107.45 119.75 C 107.65 99.50 107.65 99.50 115.57 98.30 C 123.58 97.10 141.78 96.45 142.67 97.34 C 142.94 97.61 142.46 99.10 141.62 100.66 C 140.08 103.50 140.08 103.50 140.04 100.70 C 140.00 98.02 139.85 97.94 136.25 98.61 C 134.19 98.99 131.53 99.93 130.34 100.71 C 129.16 101.48 127.95 101.72 127.66 101.25 C 127.08 100.32 112.78 101.40 110.99 102.50 C 110.22 102.98 110.26 103.61 111.12 104.65 C 112.10 105.82 112.06 106.05 110.92 105.81 C 109.75 105.55 109.45 108.20 109.22 120.75 C 109.06 129.84 109.33 136.00 109.89 136.00 C 111.88 136.00 114.00 134.73 114.00 133.55 C 114.00 132.87 114.84 131.55 115.87 130.62 C 117.65 129.01 117.71 129.05 117.25 131.46 C 116.70 134.34 118.59 134.84 122.32 132.80 C 123.52 132.14 125.43 131.71 126.56 131.85 C 130.24 132.29 134.00 130.24 134.04 127.77 C 134.05 126.52 134.71 124.38 135.50 123.00 C 137.16 120.10 137.45 116.00 136.00 116.00 C 135.45 116.00 135.00 115.52 135.00 114.93 C 135.00 114.34 135.84 114.13 136.89 114.47 C 138.47 114.97 139.29 113.87 141.86 107.78 C 144.03 102.64 144.95 101.27 144.97 103.11 C 145.01 106.25 137.62 132.79 136.37 133.99 C 135.51 134.82 111.71 140.00 108.76 140.00 C 107.45 140.00 107.27 137.26 107.45 119.75 Z  M 166.04 139.33 C 166.05 138.88 166.74 137.38 167.55 136.00 C 169.03 133.50 169.03 133.50 168.77 136.42 C 168.62 138.03 167.94 139.53 167.25 139.76 C 166.56 139.98 166.02 139.79 166.04 139.33 Z  M 57.23 120.02 C 57.29 117.26 57.71 115.00 58.17 115.00 C 59.32 115.00 59.22 123.75 58.06 124.47 C 57.51 124.80 57.16 122.95 57.23 120.02 Z  M 34.79 122.25 C 33.95 121.29 33.44 120.02 33.65 119.43 C 34.35 117.53 30.66 115.36 24.50 114.06 C 16.19 112.29 14.90 111.67 18.70 111.24 C 22.17 110.85 23.61 108.48 22.50 105.00 C 22.14 103.85 22.32 103.00 22.93 103.00 C 23.52 103.00 24.00 104.29 24.00 105.88 C 24.00 109.62 26.22 111.41 29.93 110.66 C 31.69 110.31 33.01 110.52 33.23 111.19 C 33.45 111.85 37.48 112.55 42.97 112.90 C 49.13 113.30 52.48 113.93 52.75 114.75 C 53.03 115.60 51.98 116.00 49.47 116.00 C 46.04 116.00 45.83 116.17 46.41 118.50 C 47.17 121.53 46.39 121.69 44.16 118.97 C 42.03 116.36 35.00 115.04 35.00 117.25 C 35.00 118.08 35.67 119.32 36.50 120.00 C 38.11 121.34 38.55 124.00 37.15 124.00 C 36.69 124.00 35.62 123.21 34.79 122.25 Z  M 129.22 121.55 C 126.96 118.69 126.00 118.34 126.00 120.39 C 126.00 121.70 123.97 123.00 121.92 123.00 C 121.41 123.00 121.00 120.60 121.00 117.66 C 121.00 112.94 121.29 112.19 123.49 111.19 C 127.17 109.51 129.00 110.66 129.00 114.64 C 129.00 116.53 129.74 119.19 130.64 120.57 C 132.85 123.95 131.73 124.74 129.22 121.55 Z  M 16.47 118.25 C 17.25 115.15 17.75 114.42 18.55 115.22 C 19.41 116.07 17.90 121.00 16.78 121.00 C 16.19 121.00 16.07 119.88 16.47 118.25 Z  M 116.10 109.25 C 116.15 108.29 116.56 106.38 117.00 105.00 C 117.68 102.88 117.82 103.14 117.90 106.75 C 117.96 109.09 117.55 111.00 117.00 111.00 C 116.45 111.00 116.04 110.21 116.10 109.25 Z  M 14.22 104.44 C 10.92 102.13 11.53 100.83 14.99 102.80 C 16.64 103.73 17.99 104.84 17.99 105.25 C 18.00 106.43 16.64 106.14 14.22 104.44 Z  M 48.29 84.78 C 48.55 83.55 37.15 77.03 34.70 77.01 C 33.71 77.01 31.86 78.12 30.59 79.50 C 27.13 83.23 26.50 82.52 29.63 78.42 C 31.24 76.30 31.95 74.57 31.37 74.17 C 26.02 70.56 21.10 66.57 21.50 66.17 C 21.77 65.90 28.75 68.98 37.00 73.03 C 47.58 78.22 52.32 80.08 53.07 79.33 C 53.65 78.75 53.99 76.34 53.81 73.97 C 53.50 69.67 53.50 69.67 43.50 66.15 C 36.48 63.68 31.91 62.66 28.15 62.73 C 23.15 62.82 22.94 62.73 24.92 61.35 C 26.08 60.53 26.77 59.44 26.46 58.93 C 24.81 56.27 33.27 58.64 43.39 63.68 C 54.79 69.36 54.79 69.36 55.25 76.43 C 55.49 80.32 55.30 83.94 54.81 84.48 C 53.65 85.79 48.02 86.04 48.29 84.78 Z  M 122.00 81.21 C 122.00 80.11 127.85 74.52 128.42 75.09 C 128.66 75.33 127.32 76.99 125.43 78.79 C 123.54 80.58 122.00 81.67 122.00 81.21 Z  M 69.30 60.50 C 69.35 58.58 69.71 57.00 70.09 57.00 C 70.47 57.00 70.97 58.58 71.19 60.50 C 71.46 62.78 71.18 64.00 70.40 64.00 C 69.67 64.00 69.24 62.61 69.30 60.50 Z "/>
</g>
</svg>