<?xml version="1.0" encoding="UTF-8" standalone="no"?>
<!DOCTYPE svg PUBLIC "-//W3C//DTD SVG 1.1//EN" "http://www.w3.org/Graphics/SVG/1.1/DTD/svg11.dtd" >
<svg xmlns="http://www.w3.org/2000/svg" xmlns:xlink="http://www.w3.org/1999/xlink" version="1.1" viewBox="0 0 204 256">
 <g >
 <path fill="currentColor"
d=" M 182.69 218.62 C 182.43 217.95 175.64 208.30 167.61 197.18 C 159.57 186.06 153.00 176.37 153.00 175.64 C 153.00 174.91 158.22 170.83 164.60 166.58 C 170.98 162.34 176.00 158.66 175.75 158.42 C 175.51 158.18 169.58 160.69 162.58 164.00 C 147.89 170.94 149.78 171.25 139.72 160.26 C 134.07 154.09 132.82 151.35 135.25 150.50 C 140.49 148.66 142.22 147.89 141.89 147.58 C 141.67 147.37 131.82 148.28 120.00 149.58 C 108.17 150.89 97.94 151.97 97.25 151.98 C 95.08 152.02 95.90 153.85 98.23 154.18 C 99.82 154.41 100.94 155.78 102.17 159.00 C 103.89 163.50 103.89 163.50 103.95 159.73 C 104.01 155.11 105.59 154.33 116.85 153.39 C 124.69 152.74 124.69 152.74 124.23 155.87 C 123.73 159.28 122.00 160.20 122.00 157.06 C 122.00 154.15 121.07 154.04 114.25 156.14 C 108.00 158.07 108.00 158.07 108.00 175.37 C 108.00 184.88 108.30 192.97 108.68 193.34 C 109.56 194.23 114.00 190.04 114.00 188.33 C 114.00 187.60 114.45 187.00 115.00 187.00 C 115.55 187.00 116.00 187.68 116.00 188.50 C 116.00 190.92 117.57 190.25 120.96 186.39 C 122.70 184.41 124.37 183.03 124.66 183.33 C 125.69 184.36 133.18 179.69 134.25 177.35 C 135.39 174.85 133.83 167.99 131.44 165.00 C 130.78 164.18 129.94 161.25 129.58 158.50 C 128.91 153.50 128.91 153.50 132.60 160.00 C 137.40 168.45 141.00 176.57 141.00 178.95 C 141.00 180.41 137.18 182.73 124.50 188.97 C 110.01 196.10 108.00 197.38 108.00 199.48 C 108.00 200.80 108.37 202.11 108.82 202.39 C 109.27 202.67 117.04 197.97 126.07 191.95 C 135.11 185.93 142.75 181.00 143.05 181.00 C 143.63 181.00 168.77 209.08 175.46 217.20 C 178.74 221.17 179.63 221.73 181.24 220.87 C 182.30 220.31 182.94 219.30 182.69 218.62 Z  M 101.75 213.25 C 99.01 210.17 96.90 200.00 99.00 200.00 C 99.55 200.00 100.00 201.17 100.00 202.61 C 100.00 204.04 101.12 206.55 102.50 208.18 C 106.31 212.71 105.59 217.57 101.75 213.25 Z  M 143.46 196.93 C 143.09 196.34 142.17 196.11 141.40 196.40 C 140.63 196.70 140.00 196.50 140.00 195.97 C 140.00 194.88 143.01 194.68 145.42 195.61 C 146.29 195.94 147.00 196.62 147.00 197.11 C 147.00 198.36 144.26 198.22 143.46 196.93 Z  M 16.90 194.20 C 13.77 191.41 13.77 191.41 17.93 184.61 C 20.83 179.88 21.79 177.45 21.10 176.62 C 20.48 175.87 20.46 174.89 21.06 173.97 C 21.83 172.76 22.15 172.74 22.87 173.84 C 23.49 174.81 25.59 172.35 30.33 165.11 C 36.72 155.36 48.76 139.00 49.55 139.00 C 49.76 139.00 49.65 139.79 49.30 140.75 C 48.73 142.32 48.88 142.31 50.83 140.60 C 52.02 139.55 53.00 138.87 53.00 139.10 C 52.99 139.32 51.66 142.78 50.03 146.78 C 46.96 154.31 44.03 159.63 35.17 173.74 C 32.32 178.28 30.08 182.33 30.19 182.74 C 30.46 183.81 21.81 197.00 20.83 197.00 C 20.39 197.00 18.62 195.74 16.90 194.20 Z  M 28.96 180.93 C 33.03 173.13 35.25 168.00 34.55 168.00 C 34.33 168.00 30.48 173.20 26.00 179.56 C 19.09 189.36 18.05 191.35 19.14 192.67 C 20.27 194.03 20.69 193.87 22.71 191.36 C 23.98 189.78 26.79 185.10 28.96 180.93 Z  M 6.62 193.20 C 6.03 192.23 8.70 183.95 10.05 182.57 C 12.08 180.49 12.11 183.17 10.11 187.02 C 8.93 189.28 8.20 191.52 8.50 192.00 C 8.79 192.47 8.61 193.13 8.09 193.45 C 7.56 193.77 6.91 193.66 6.62 193.20 Z  M 62.25 161.40 C 59.88 158.69 59.28 156.59 61.05 157.18 C 62.43 157.64 66.45 164.01 65.35 163.98 C 64.88 163.97 63.49 162.81 62.25 161.40 Z  M 65.03 146.25 C 65.05 145.84 65.71 144.65 66.50 143.60 C 67.29 142.56 67.70 141.32 67.41 140.85 C 67.12 140.38 67.36 140.00 67.94 140.00 C 69.29 140.00 69.30 142.57 67.96 145.07 C 66.96 146.95 64.97 147.75 65.03 146.25 Z  M 53.98 144.25 C 54.52 143.29 55.32 141.01 55.75 139.19 C 56.18 137.37 56.97 135.89 57.51 135.90 C 59.45 135.94 59.09 139.96 56.88 142.95 C 54.47 146.21 52.32 147.17 53.98 144.25 Z  M 149.51 140.47 C 150.60 135.53 150.94 134.85 151.99 135.50 C 153.66 136.53 153.13 139.57 150.93 141.57 C 148.86 143.43 148.85 143.43 149.51 140.47 Z  M 92.03 134.25 C 92.06 131.43 92.68 130.05 94.54 128.70 C 97.23 126.74 97.04 126.56 99.22 133.00 C 100.12 135.64 98.11 138.00 94.96 138.00 C 92.20 138.00 92.00 137.75 92.03 134.25 Z  M 129.49 136.39 C 131.08 132.70 130.63 129.51 128.50 129.30 C 127.40 129.19 122.56 128.81 117.75 128.46 C 112.93 128.11 109.22 127.45 109.50 127.00 C 109.78 126.55 110.86 126.41 111.90 126.68 C 112.95 126.96 117.62 126.02 122.30 124.59 C 126.97 123.17 132.63 122.00 134.87 122.00 C 137.12 122.00 140.66 121.38 142.73 120.62 C 144.80 119.86 149.31 118.82 152.75 118.32 C 158.99 117.40 159.00 117.40 162.19 120.70 C 164.26 122.83 165.05 124.35 164.43 124.97 C 163.89 125.51 157.00 126.62 149.10 127.45 C 141.21 128.29 134.15 129.46 133.43 130.06 C 132.71 130.66 131.98 132.54 131.81 134.25 C 131.64 135.95 130.87 137.55 130.09 137.81 C 129.04 138.15 128.89 137.79 129.49 136.39 Z  M 151.97 123.43 C 156.63 123.13 160.65 122.68 160.91 122.42 C 161.17 122.16 160.73 121.30 159.93 120.51 C 158.67 119.24 157.25 119.31 148.81 121.04 C 137.50 123.35 131.82 125.35 139.00 124.50 C 141.47 124.20 147.31 123.72 151.97 123.43 Z  M 44.00 135.50 C 44.00 134.68 44.45 134.00 45.00 134.00 C 45.55 134.00 46.00 133.10 46.00 132.00 C 46.00 130.90 46.45 130.00 47.00 130.00 C 48.24 130.00 48.24 130.01 46.90 133.85 C 45.76 137.12 44.00 138.12 44.00 135.50 Z  M 138.00 136.00 C 138.00 135.45 138.45 135.00 139.00 135.00 C 139.55 135.00 140.00 134.13 140.00 133.06 C 140.00 131.99 140.45 130.84 141.00 130.50 C 142.31 129.69 142.29 132.60 140.96 135.07 C 139.87 137.11 138.00 137.70 138.00 136.00 Z  M 108.25 135.29 C 107.01 135.06 106.00 134.49 106.00 134.05 C 106.00 132.81 112.36 133.58 112.79 134.87 C 113.17 136.01 112.36 136.09 108.25 135.29 Z  M 61.45 124.93 C 58.57 121.74 55.13 120.70 51.88 122.05 C 50.16 122.76 49.34 123.71 49.67 124.59 C 50.03 125.53 49.50 126.00 48.07 126.00 C 46.24 126.00 46.08 125.71 47.00 124.00 C 48.32 121.54 52.32 118.82 54.04 119.21 C 54.74 119.37 58.06 115.95 61.41 111.61 C 66.54 104.96 67.55 104.07 67.83 105.97 C 68.02 107.22 67.68 108.72 67.08 109.32 C 66.49 109.91 65.99 112.22 65.98 114.45 C 65.98 116.68 65.39 120.43 64.68 122.80 C 63.40 127.10 63.40 127.10 61.45 124.93 Z  M 34.21 108.44 C 29.65 107.09 23.35 104.63 20.21 102.96 C 14.50 99.94 14.50 99.94 20.25 100.54 C 23.41 100.87 26.00 100.86 26.00 100.52 C 26.00 99.38 16.89 95.83 15.43 96.39 C 13.74 97.04 13.54 95.86 15.08 94.32 C 16.58 92.82 22.78 94.36 30.11 98.06 C 35.24 100.64 36.57 100.94 39.54 100.12 C 41.62 99.54 43.00 99.53 43.00 100.08 C 43.00 100.59 42.35 101.00 41.56 101.00 C 38.02 101.00 39.44 103.06 44.61 105.42 C 49.39 107.61 50.06 108.23 49.00 109.50 C 47.29 111.56 43.92 111.31 34.21 108.44 Z  M 47.75 104.31 C 45.39 103.70 45.52 102.00 47.92 102.00 C 50.53 102.00 53.00 103.02 53.00 104.11 C 53.00 105.03 50.82 105.11 47.75 104.31 Z  M 143.00 104.34 C 142.18 104.07 140.87 103.64 140.11 103.40 C 139.34 103.15 138.96 102.71 139.25 102.41 C 140.08 101.58 147.00 103.10 147.00 104.11 C 147.00 105.06 145.43 105.15 143.00 104.34 Z  M 80.22 102.63 C 76.05 100.57 78.04 98.89 85.00 98.61 C 94.27 98.23 141.00 91.78 141.00 90.89 C 141.00 90.47 140.10 89.85 139.00 89.50 C 136.47 88.70 136.49 88.17 139.57 78.50 C 141.23 73.30 143.19 69.39 145.17 67.34 C 148.22 64.18 148.22 64.18 144.86 64.34 C 141.50 64.50 141.50 64.50 141.54 59.50 C 141.59 52.23 142.31 51.00 146.53 51.00 C 148.76 51.00 149.87 51.39 149.47 52.04 C 149.12 52.61 147.97 52.81 146.92 52.47 C 145.24 51.94 145.00 52.38 145.00 55.93 C 145.00 59.50 145.28 60.00 147.28 60.00 C 148.53 60.00 150.61 60.74 151.91 61.65 C 154.16 63.22 154.35 63.19 156.14 60.90 C 158.72 57.58 159.51 54.04 158.14 51.85 C 157.11 50.20 157.32 50.00 159.99 50.00 C 162.61 50.00 163.00 50.36 162.99 52.75 C 162.99 54.26 160.03 62.25 156.42 70.50 C 147.45 91.01 147.70 89.45 153.55 88.65 C 156.23 88.28 158.81 87.59 159.29 87.11 C 160.24 86.16 168.98 54.47 168.99 51.94 C 169.00 50.85 166.26 49.50 159.93 47.48 C 154.94 45.88 150.64 44.22 150.37 43.79 C 149.70 42.71 152.37 42.79 153.55 43.88 C 154.07 44.36 157.88 45.50 162.00 46.40 C 172.69 48.74 172.53 48.58 171.08 56.15 C 170.41 59.64 169.61 63.51 169.32 64.75 C 168.94 66.34 169.23 67.00 170.32 67.00 C 171.96 67.00 172.79 70.05 172.15 73.75 C 171.94 74.99 171.09 76.00 170.27 76.00 C 168.79 76.00 168.84 74.76 170.49 70.75 C 170.99 69.55 170.75 69.00 169.74 69.00 C 168.86 69.00 168.03 70.31 167.68 72.25 C 166.17 80.74 164.03 89.37 163.24 90.16 C 162.76 90.64 154.75 91.93 145.43 93.03 C 121.61 95.85 115.70 96.95 114.19 98.85 C 112.98 100.38 112.81 100.37 111.89 98.75 C 110.68 96.61 107.46 96.51 103.65 98.50 C 102.08 99.32 100.39 99.74 99.89 99.43 C 98.18 98.37 90.00 100.18 90.00 101.61 C 90.00 102.38 89.56 103.00 89.03 103.00 C 88.50 103.00 88.32 102.33 88.64 101.50 C 89.09 100.33 88.38 100.00 85.41 100.00 C 82.45 100.00 81.87 100.27 82.80 101.20 C 85.42 103.82 84.11 104.55 80.22 102.63 Z  M 143.02 84.25 C 143.03 82.08 143.24 81.82 144.03 83.00 C 144.90 84.29 145.25 84.23 146.56 82.50 C 147.40 81.40 148.34 79.50 148.64 78.29 C 149.32 75.58 147.00 70.00 145.20 70.00 C 143.56 70.00 141.46 74.95 140.23 81.75 C 139.36 86.55 139.43 87.00 141.14 87.00 C 142.50 87.00 143.00 86.26 143.02 84.25 Z  M 153.00 69.00 C 153.00 67.89 152.33 67.00 151.50 67.00 C 150.67 67.00 150.00 67.89 150.00 69.00 C 150.00 70.11 150.67 71.00 151.50 71.00 C 152.33 71.00 153.00 70.11 153.00 69.00 Z  M 66.61 102.18 C 66.29 101.66 62.31 99.76 57.76 97.95 C 53.22 96.15 49.32 94.52 49.09 94.34 C 48.86 94.16 49.54 93.04 50.59 91.86 C 51.96 90.31 52.15 89.58 51.25 89.27 C 50.56 89.03 50.00 87.84 50.00 86.62 C 50.00 85.40 49.46 83.86 48.80 83.20 C 47.87 82.27 47.87 82.00 48.82 82.00 C 49.50 82.00 50.46 83.08 50.96 84.40 C 52.59 88.68 54.00 88.43 59.57 82.93 C 62.53 80.01 65.19 77.85 65.47 78.14 C 66.79 79.46 67.71 88.47 66.84 91.60 C 66.24 93.79 66.27 96.32 66.93 98.69 C 67.93 102.32 67.77 104.06 66.61 102.18 Z  M 7.88 95.30 C 9.60 90.92 12.00 88.39 12.00 90.96 C 12.00 92.82 8.03 100.00 7.00 100.00 C 6.47 100.00 6.87 97.88 7.88 95.30 Z  M 83.51 95.75 C 83.28 95.06 82.13 89.10 80.95 82.50 C 79.78 75.90 78.58 70.28 78.29 70.00 C 78.00 69.72 78.04 74.00 78.37 79.50 C 78.96 89.13 78.93 89.32 77.65 84.50 C 76.91 81.75 76.22 77.70 76.11 75.50 C 76.01 73.30 75.49 67.45 74.98 62.50 C 74.46 57.55 74.03 51.14 74.02 48.25 C 74.00 43.78 74.28 43.00 75.87 43.00 C 77.36 43.00 77.88 44.02 78.41 48.00 C 78.77 50.75 79.32 53.00 79.63 53.00 C 79.94 53.00 83.91 49.79 88.46 45.86 C 94.95 40.25 96.62 38.28 96.21 36.69 C 95.79 35.08 96.04 34.80 97.42 35.33 C 98.38 35.70 99.79 36.00 100.56 36.00 C 101.32 36.00 102.64 37.33 103.48 38.95 C 104.72 41.35 105.53 41.84 107.84 41.55 C 109.40 41.35 112.21 41.53 114.09 41.94 C 117.50 42.70 117.50 42.70 113.50 43.42 C 111.30 43.81 108.31 44.35 106.86 44.62 C 104.75 45.01 103.77 44.48 101.98 41.97 C 99.75 38.83 99.75 38.83 95.29 43.17 C 92.84 45.55 89.89 48.81 88.74 50.41 C 86.39 53.66 85.59 53.55 95.87 51.40 C 98.71 50.81 98.75 50.86 100.43 58.15 C 101.36 62.19 102.27 66.29 102.47 67.25 C 102.68 68.33 101.22 70.40 98.66 72.65 C 96.37 74.65 95.40 75.94 96.50 75.50 C 97.60 75.07 99.67 74.51 101.11 74.27 C 103.57 73.84 103.80 74.17 105.36 80.36 C 108.22 91.77 108.35 91.59 95.29 94.93 C 85.86 97.33 84.09 97.46 83.51 95.75 Z  M 93.01 87.75 C 94.93 83.78 95.03 83.71 94.46 86.75 C 93.90 89.68 94.08 90.00 96.23 90.00 C 100.29 90.00 102.14 87.94 101.40 84.23 C 100.75 80.99 100.70 80.97 96.12 81.57 C 91.91 82.12 91.25 81.91 88.64 79.17 C 87.02 77.46 86.09 75.66 86.50 75.00 C 86.90 74.36 89.59 72.32 92.49 70.47 C 97.75 67.10 97.75 67.10 96.92 62.80 C 96.46 60.43 96.07 58.16 96.04 57.75 C 95.98 56.66 91.12 56.84 86.61 58.09 C 83.57 58.93 82.55 58.89 81.92 57.86 C 80.30 55.25 79.85 57.98 81.00 63.48 C 81.64 66.59 82.82 69.38 83.61 69.68 C 84.47 70.01 84.83 70.97 84.50 72.01 C 84.19 72.98 84.57 75.61 85.34 77.85 C 86.11 80.09 86.52 83.05 86.26 84.44 C 84.75 92.32 89.63 94.71 93.01 87.75 Z  M 114.75 88.92 C 113.60 88.25 113.05 86.80 113.14 84.70 C 113.24 82.27 113.38 82.05 113.71 83.80 C 114.12 85.91 114.60 86.07 119.65 85.80 C 125.15 85.50 125.15 85.50 127.00 80.01 C 128.02 76.99 128.74 74.41 128.60 74.27 C 128.46 74.12 124.89 74.56 120.67 75.23 C 113.50 76.37 112.99 76.62 112.90 78.98 C 112.81 80.97 112.58 80.70 111.78 77.70 C 111.23 75.60 111.06 73.60 111.41 73.25 C 111.77 72.90 116.05 72.42 120.93 72.19 C 129.35 71.79 129.87 71.88 131.02 74.04 C 131.80 75.49 132.02 78.21 131.62 81.57 C 130.63 90.02 130.64 90.00 123.14 89.97 C 119.49 89.95 115.71 89.48 114.75 88.92 Z  M 40.00 84.12 C 40.00 83.64 40.69 82.67 41.54 81.97 C 42.87 80.87 41.89 79.48 34.24 71.60 C 24.93 62.01 18.46 54.21 19.20 53.47 C 19.75 52.92 30.61 61.83 39.33 69.99 C 45.86 76.10 45.89 76.12 48.46 74.43 C 51.77 72.26 51.04 71.35 40.50 64.47 C 36.10 61.60 30.72 57.40 28.55 55.13 C 26.10 52.58 23.69 51.00 22.24 51.00 C 20.92 51.00 20.15 50.56 20.50 50.00 C 21.60 48.22 25.09 48.93 31.13 52.15 C 34.43 53.91 37.58 56.41 38.27 57.82 C 40.11 61.61 42.00 61.74 42.00 58.08 C 42.00 56.39 42.34 55.00 42.75 55.00 C 43.16 55.00 43.46 56.85 43.42 59.11 C 43.35 62.45 43.99 63.94 46.83 67.11 C 48.76 69.25 50.75 71.00 51.28 71.00 C 52.17 71.00 51.58 65.69 50.33 62.43 C 50.03 61.64 50.22 61.00 50.76 61.00 C 51.99 61.00 58.40 73.93 57.58 74.75 C 57.24 75.09 56.43 74.83 55.78 74.18 C 53.86 72.26 52.66 72.82 49.69 77.02 C 48.14 79.21 46.23 81.00 45.44 81.00 C 44.66 81.00 43.45 81.90 42.77 83.00 C 41.48 85.07 40.00 85.66 40.00 84.12 Z  M 110.29 66.79 C 109.73 66.08 109.01 63.48 108.69 61.00 C 108.10 56.50 108.10 56.50 109.41 60.00 C 110.67 63.36 110.92 63.49 115.41 63.33 C 117.98 63.24 120.69 62.68 121.41 62.07 C 122.14 61.47 123.58 61.05 124.62 61.15 C 131.57 61.78 133.67 59.19 128.70 56.12 C 126.11 54.53 123.88 54.17 117.00 54.28 C 112.33 54.35 108.17 54.88 107.77 55.46 C 107.35 56.05 107.02 55.63 107.02 54.49 C 106.99 51.34 109.79 50.37 119.74 50.11 C 129.84 49.84 132.16 50.43 129.31 52.53 C 127.84 53.61 127.74 54.11 128.77 55.16 C 129.79 56.19 130.45 56.20 132.02 55.22 C 133.89 54.05 134.00 54.25 134.00 58.96 C 134.00 64.80 133.05 65.59 124.92 66.49 C 121.94 66.82 117.66 67.31 115.40 67.58 C 112.73 67.90 110.95 67.63 110.29 66.79 Z  M 65.00 53.41 C 65.00 53.08 65.90 51.67 67.00 50.27 C 69.10 47.60 69.73 48.77 67.96 52.07 C 67.01 53.86 65.00 54.76 65.00 53.41 Z  M 130.71 36.89 C 131.37 31.73 131.79 31.04 133.03 33.03 C 134.10 34.72 133.38 37.88 131.47 39.89 C 130.37 41.04 130.25 40.54 130.71 36.89 Z  M 120.06 171.46 C 120.13 166.50 120.13 166.50 121.76 169.77 C 123.27 172.81 123.26 173.16 121.69 174.74 C 120.10 176.33 120.00 176.13 120.06 171.46 Z "/>
</g>
</svg>