<?xml version="1.0" encoding="UTF-8" standalone="no"?>
<!DOCTYPE svg PUBLIC "-//W3C//DTD SVG 1.1//EN" "http://www.w3.org/Graphics/SVG/1.1/DTD/svg11.dtd" >
<svg xmlns="http://www.w3.org/2000/svg" xmlns:xlink="http://www.w3.org/1999/xlink" version="1.1" viewBox="0 0 193 256">
 <g >
 <path fill="currentColor"
d=" M 171.80 188.24 C 171.97 185.36 171.89 183.00 171.64 183.00 C 169.93 183.00 155.01 189.35 155.51 189.86 C 156.41 190.77 168.20 193.86 170.00 193.65 C 171.08 193.53 171.59 192.00 171.80 188.24 Z  M 56.48 151.86 C 79.87 143.59 84.88 141.32 77.50 142.36 C 75.30 142.67 68.89 143.21 63.25 143.57 C 53.00 144.22 53.00 144.22 53.00 141.85 C 53.00 140.55 53.44 137.95 53.98 136.07 C 54.52 134.19 54.59 132.17 54.14 131.58 C 53.69 130.99 53.90 129.41 54.60 128.07 C 55.69 125.97 55.80 126.69 55.36 133.32 C 54.78 142.17 54.42 141.94 65.44 139.86 C 77.81 137.53 78.74 137.16 79.55 134.24 C 80.30 131.50 80.30 131.50 81.34 134.25 C 81.92 135.76 82.64 137.00 82.95 137.00 C 83.27 137.00 86.42 131.49 89.95 124.75 C 93.49 118.01 98.32 109.66 100.69 106.19 C 107.64 96.01 106.51 94.79 92.66 97.46 C 86.53 98.64 82.65 99.96 80.84 101.48 C 79.36 102.73 73.86 105.26 68.62 107.11 C 62.28 109.35 58.76 111.15 58.11 112.49 C 57.21 114.34 57.13 114.30 57.07 111.86 C 57.01 109.49 57.79 108.90 64.75 106.07 C 69.01 104.33 73.62 102.27 75.00 101.49 C 77.21 100.24 77.27 100.07 75.50 100.07 C 74.40 100.07 70.58 100.71 67.00 101.50 C 54.10 104.34 55.00 105.53 55.00 85.56 C 55.00 68.13 55.00 68.13 57.92 67.81 C 60.85 67.50 60.85 67.50 58.93 65.15 C 57.13 62.94 56.58 62.84 50.01 63.50 C 41.77 64.33 40.39 66.45 47.55 67.25 C 50.05 67.53 52.28 67.95 52.51 68.17 C 53.05 68.72 48.47 102.43 47.67 103.72 C 47.33 104.28 44.35 105.26 41.06 105.91 C 37.76 106.56 34.84 107.44 34.58 107.88 C 34.31 108.31 36.83 109.17 40.18 109.80 C 43.52 110.42 46.44 111.10 46.65 111.32 C 47.51 112.18 44.72 145.58 43.68 146.86 C 43.08 147.60 39.97 149.98 36.79 152.14 C 33.61 154.31 31.00 156.25 31.00 156.46 C 31.00 157.51 32.29 160.00 32.84 160.00 C 33.18 160.00 43.82 156.34 56.48 151.86 Z  M 109.28 173.25 C 109.84 170.30 108.68 157.95 107.49 154.25 C 106.95 152.57 107.16 152.00 108.33 152.00 C 109.54 152.00 109.97 153.32 110.20 157.67 C 110.73 167.76 112.56 165.00 115.58 149.54 C 117.18 141.31 118.89 135.00 119.52 135.00 C 120.12 135.00 123.45 136.11 126.90 137.46 C 134.17 140.31 133.63 139.01 125.20 133.34 C 122.07 131.23 118.95 128.82 118.28 128.00 C 117.43 126.95 117.05 121.07 117.03 108.25 C 117.00 89.99 117.00 89.99 121.50 88.79 C 126.73 87.39 127.24 86.20 122.98 85.35 C 121.32 85.01 119.74 84.38 119.46 83.94 C 118.78 82.83 116.04 63.22 116.02 59.25 C 116.00 56.30 116.28 56.00 119.00 56.00 C 120.65 56.00 122.00 56.45 122.00 57.00 C 122.00 58.99 124.67 57.93 127.80 54.70 C 129.56 52.89 131.00 51.09 131.00 50.70 C 131.00 50.32 126.84 49.95 121.75 49.88 C 112.57 49.77 112.54 49.76 118.00 48.82 C 124.29 47.73 131.65 48.25 133.29 49.89 C 134.12 50.72 133.12 52.32 129.49 56.01 C 124.50 61.08 122.35 61.95 120.20 59.80 C 119.27 58.87 119.00 59.26 119.01 61.55 C 119.03 68.49 121.04 81.41 122.23 82.15 C 122.93 82.59 125.86 83.48 128.75 84.13 C 134.79 85.50 135.79 87.88 131.07 89.67 C 128.84 90.51 127.88 91.75 127.04 94.84 C 125.49 100.62 123.88 101.13 124.64 95.61 C 125.22 91.39 125.13 91.15 123.13 91.68 C 121.22 92.18 121.00 92.94 121.00 99.04 C 121.00 105.54 121.15 105.97 124.25 108.42 C 126.53 110.22 127.00 110.98 125.81 110.99 C 124.88 111.00 123.84 110.55 123.50 110.00 C 121.84 107.31 121.00 109.76 121.00 117.31 C 121.00 125.52 121.04 125.65 124.25 128.06 C 126.04 129.40 129.13 131.24 131.13 132.14 C 133.12 133.05 135.06 134.29 135.44 134.90 C 135.81 135.50 136.71 136.00 137.43 136.00 C 139.34 136.00 146.00 142.37 146.00 144.20 C 146.00 145.05 145.38 146.27 144.63 146.89 C 143.57 147.77 140.82 146.89 132.45 142.98 C 126.50 140.20 120.98 138.18 120.19 138.48 C 119.16 138.88 118.90 140.01 119.29 142.40 C 119.59 144.25 119.49 146.15 119.06 146.63 C 118.63 147.11 117.30 151.55 116.10 156.50 C 112.55 171.19 111.01 176.00 109.85 176.00 C 109.19 176.00 108.96 174.90 109.28 173.25 Z  M 95.20 153.25 C 95.94 151.72 97.81 147.42 98.78 145.00 C 99.66 142.82 99.88 142.73 100.50 144.26 C 100.94 145.33 100.51 147.08 99.39 148.76 C 98.38 150.27 97.68 152.06 97.82 152.75 C 97.97 153.44 97.36 154.00 96.46 154.00 C 95.57 154.00 95.00 153.66 95.20 153.25 Z  M 107.31 141.94 C 105.95 130.09 105.00 129.21 99.75 135.00 C 97.51 137.47 96.29 138.60 97.04 137.50 C 99.90 133.30 103.44 130.00 105.08 130.00 C 106.97 130.00 107.50 132.11 108.59 143.75 C 109.55 154.14 108.55 152.71 107.31 141.94 Z  M 157.62 135.25 C 157.30 132.64 156.75 125.65 156.39 119.73 C 156.03 113.81 155.39 108.74 154.96 108.48 C 154.54 108.21 154.58 106.54 155.07 104.75 C 155.55 102.96 156.23 93.96 156.58 84.75 C 156.93 75.54 157.52 68.00 157.90 68.00 C 158.28 68.00 159.59 74.30 160.82 82.00 C 163.28 97.35 163.78 99.26 165.10 98.44 C 165.59 98.13 165.55 99.07 165.00 100.51 C 163.76 103.77 163.69 112.56 164.90 114.82 C 165.39 115.74 166.13 119.61 166.53 123.40 C 167.25 130.11 167.21 130.29 165.13 129.74 C 163.50 129.32 163.00 129.64 163.00 131.13 C 163.00 133.80 160.31 140.00 159.15 140.00 C 158.63 140.00 157.94 137.86 157.62 135.25 Z  M 163.50 123.75 C 165.18 119.24 165.18 118.77 163.55 114.50 C 162.61 112.03 161.42 110.00 160.92 110.00 C 160.41 110.00 160.00 114.59 160.00 120.20 C 160.00 130.99 160.59 131.59 163.50 123.75 Z  M 35.03 137.94 C 35.07 136.37 37.34 133.00 38.36 133.00 C 39.64 133.00 38.95 135.13 37.00 137.23 C 35.60 138.73 35.01 138.94 35.03 137.94 Z  M 146.47 130.97 C 145.46 129.85 143.03 127.98 141.07 126.81 C 139.10 125.64 136.04 123.32 134.25 121.65 C 131.06 118.67 131.00 118.44 131.00 109.89 C 131.00 101.17 131.00 101.17 135.75 99.49 C 144.05 96.55 145.00 96.07 145.02 94.77 C 145.03 93.82 145.25 93.85 145.91 94.88 C 146.39 95.64 146.54 102.67 146.25 110.50 C 145.68 125.59 146.05 128.91 148.57 131.43 C 149.44 132.29 149.73 133.00 149.23 133.00 C 148.72 133.00 147.48 132.09 146.47 130.97 Z  M 151.56 123.06 C 149.96 121.39 148.96 119.70 149.35 119.31 C 150.31 118.35 155.34 123.49 154.85 124.94 C 154.63 125.60 153.22 124.80 151.56 123.06 Z  M 39.03 96.83 C 39.08 94.98 41.84 91.50 42.63 92.30 C 42.99 92.66 42.66 93.71 41.89 94.63 C 41.13 95.55 40.65 96.56 40.83 96.88 C 41.00 97.19 40.67 97.61 40.08 97.81 C 39.48 98.01 39.01 97.57 39.03 96.83 Z  M 185.99 95.25 C 185.98 94.29 185.75 92.38 185.48 91.00 C 185.04 88.79 185.15 88.85 186.44 91.50 C 188.18 95.06 188.38 97.00 187.00 97.00 C 186.45 97.00 185.99 96.21 185.99 95.25 Z  M 136.00 86.20 C 136.00 85.21 140.30 81.00 141.31 81.00 C 142.87 81.00 141.81 82.76 139.00 84.84 C 137.35 86.06 136.00 86.67 136.00 86.20 Z  M 143.45 77.07 C 142.93 76.56 140.03 75.52 137.00 74.76 C 130.80 73.21 129.42 70.74 132.96 67.54 C 134.08 66.52 135.02 65.20 135.05 64.60 C 135.07 63.99 137.10 62.55 139.55 61.40 C 144.00 59.30 144.00 59.30 144.00 66.59 C 144.00 70.60 144.45 74.16 145.00 74.50 C 146.19 75.23 146.35 78.00 145.20 78.00 C 144.76 78.00 143.97 77.58 143.45 77.07 Z  M 167.44 62.57 C 165.58 61.20 165.58 61.11 167.33 60.43 C 168.56 59.96 169.87 60.42 171.31 61.86 C 173.42 63.98 173.42 64.00 171.41 64.00 C 170.30 64.00 168.51 63.36 167.44 62.57 Z  M 85.75 50.42 C 87.54 49.01 89.00 47.21 89.00 46.43 C 89.00 45.64 89.45 45.00 90.00 45.00 C 91.31 45.00 91.26 45.57 89.75 48.22 C 87.78 51.69 86.29 53.00 84.32 52.99 C 82.93 52.98 83.26 52.38 85.75 50.42 Z  M 139.12 49.23 C 138.50 48.07 138.00 46.14 138.00 44.93 C 138.00 42.80 138.06 42.81 140.06 45.35 C 141.55 47.24 141.86 48.43 141.18 49.64 C 140.33 51.16 140.13 51.12 139.12 49.23 Z  M 129.06 45.00 C 129.05 44.17 129.92 42.38 131.00 41.00 C 132.47 39.12 132.96 38.90 132.98 40.14 C 132.99 41.04 132.11 42.84 131.03 44.14 C 129.66 45.79 129.06 46.05 129.06 45.00 Z  M 69.75 129.31 C 68.54 129.00 68.00 127.87 68.01 125.68 C 68.04 119.09 68.74 118.27 76.60 115.62 C 80.67 114.26 83.99 113.44 83.99 113.82 C 83.98 114.19 82.86 116.46 81.49 118.85 C 80.12 121.25 78.99 123.72 78.99 124.35 C 78.98 125.32 72.56 130.23 71.76 129.88 C 71.62 129.82 70.71 129.56 69.75 129.31 Z  M 90.25 111.78 C 87.17 110.29 87.42 109.03 90.68 109.62 C 94.14 110.25 95.17 110.91 94.46 112.07 C 93.75 113.21 93.13 113.17 90.25 111.78 Z "/>
</g>
</svg>