<?xml version="1.0" encoding="UTF-8" standalone="no"?>
<!DOCTYPE svg PUBLIC "-//W3C//DTD SVG 1.1//EN" "http://www.w3.org/Graphics/SVG/1.1/DTD/svg11.dtd" >
<svg xmlns="http://www.w3.org/2000/svg" xmlns:xlink="http://www.w3.org/1999/xlink" version="1.1" viewBox="0 0 212 256">
 <g >
 <path fill="currentColor"
d=" M 176.71 224.85 C 176.51 223.28 176.81 222.37 177.44 222.61 C 178.02 222.84 180.70 218.18 183.39 212.26 C 186.08 206.34 190.69 196.19 193.63 189.70 C 196.58 183.21 199.26 176.81 199.60 175.47 C 200.07 173.58 198.90 171.10 194.35 164.39 C 188.50 155.74 188.50 155.74 191.48 153.62 C 196.34 150.16 200.00 145.93 200.00 143.77 C 200.00 142.11 200.26 141.97 201.46 142.97 C 202.91 144.17 203.05 144.11 209.80 139.44 C 209.97 139.33 208.86 135.08 207.34 130.01 C 205.15 122.69 204.11 120.61 202.29 119.92 C 201.03 119.44 200.00 118.60 200.00 118.04 C 200.00 116.92 198.00 116.32 190.13 115.10 C 185.49 114.37 184.54 114.51 183.16 116.13 C 180.96 118.69 179.84 118.48 180.56 115.63 C 181.08 113.53 180.73 113.17 177.50 112.57 C 173.66 111.85 171.00 113.10 171.00 115.62 C 171.00 116.38 170.50 117.00 169.89 117.00 C 169.21 117.00 169.02 116.04 169.42 114.48 C 169.92 112.46 169.59 111.77 167.77 111.04 C 165.91 110.29 165.83 110.12 167.35 110.06 C 168.36 110.03 170.39 109.37 171.85 108.60 C 173.31 107.84 179.89 106.00 186.49 104.52 C 200.42 101.39 205.00 99.68 205.00 97.61 C 205.00 96.79 205.52 95.80 206.16 95.40 C 206.95 94.91 207.14 95.37 206.75 96.84 C 206.29 98.61 206.62 99.00 208.59 99.00 C 209.92 99.00 211.00 98.62 211.00 98.16 C 211.00 96.79 201.28 89.00 199.57 89.00 C 198.71 89.00 198.00 88.17 198.00 87.15 C 198.00 84.71 194.47 81.60 192.54 82.35 C 191.41 82.78 191.00 82.28 191.00 80.47 C 191.00 78.39 191.48 78.00 194.00 78.00 C 196.50 78.00 197.00 77.60 197.00 75.61 C 197.00 74.29 196.32 72.95 195.50 72.64 C 194.68 72.32 194.00 71.60 194.00 71.03 C 194.00 70.46 194.68 70.00 195.50 70.00 C 196.32 70.00 197.00 69.27 197.00 68.38 C 197.00 67.00 196.18 66.87 191.34 67.48 C 184.14 68.38 183.00 68.84 183.67 70.58 C 184.40 72.47 182.50 72.38 179.44 70.37 C 176.66 68.55 171.13 68.84 158.50 71.47 C 154.65 72.27 146.19 73.45 139.70 74.09 C 132.07 74.84 127.38 75.76 126.45 76.70 C 125.58 77.57 125.00 80.11 125.00 83.07 C 125.00 87.82 125.11 88.00 127.83 88.00 C 131.60 88.00 132.36 87.05 130.35 84.83 C 128.10 82.35 129.49 82.49 132.00 85.00 C 136.38 89.38 145.22 86.57 148.95 79.60 C 149.90 77.81 151.16 77.00 152.97 77.00 C 156.40 77.00 158.00 78.70 158.00 82.34 C 158.00 85.28 158.00 85.28 168.75 84.60 C 179.51 83.92 179.51 83.92 183.96 88.46 C 186.69 91.24 188.04 93.33 187.45 93.88 C 186.93 94.36 179.97 96.19 172.00 97.93 C 156.00 101.43 153.00 102.79 153.00 106.55 C 153.00 108.04 152.29 109.31 151.25 109.68 C 150.29 110.01 148.72 111.24 147.77 112.39 C 146.01 114.54 145.40 117.16 146.75 116.79 C 147.16 116.68 149.02 117.40 150.88 118.39 C 152.74 119.38 155.33 119.98 156.65 119.73 C 157.97 119.47 159.27 119.62 159.53 120.06 C 160.14 121.04 170.55 123.43 182.90 125.43 C 193.11 127.08 196.00 128.74 196.00 132.96 C 196.00 136.41 193.80 141.11 192.42 140.60 C 191.12 140.11 178.00 149.57 178.00 150.99 C 178.00 151.55 178.68 152.00 179.50 152.00 C 180.32 152.00 181.00 152.45 181.00 153.00 C 181.00 153.56 179.59 153.89 177.86 153.75 C 176.13 153.61 174.54 153.98 174.33 154.58 C 173.90 155.78 177.09 159.37 181.55 162.70 C 183.68 164.29 184.16 165.14 183.27 165.75 C 182.34 166.38 182.66 167.50 184.52 170.24 C 185.88 172.25 187.00 174.77 187.00 175.85 C 187.00 176.92 183.81 184.71 179.92 193.15 C 167.69 219.65 167.81 219.30 169.50 223.36 C 170.31 225.28 171.46 227.16 172.05 227.53 C 172.65 227.90 172.91 228.79 172.64 229.50 C 171.71 231.92 173.41 232.11 175.24 229.80 C 176.26 228.50 176.90 226.35 176.71 224.85 Z  M 157.78 224.99 C 164.50 222.93 164.50 222.93 174.78 199.72 C 180.43 186.95 185.04 176.00 185.03 175.38 C 185.01 174.58 174.25 158.49 171.62 155.31 C 171.53 155.21 163.37 155.99 153.48 157.05 C 143.59 158.10 134.65 158.97 133.62 158.98 C 131.90 159.00 131.80 158.43 132.42 152.09 C 132.80 148.29 132.74 144.97 132.30 144.70 C 131.61 144.29 106.26 161.40 103.50 164.15 C 101.96 165.68 106.69 169.00 110.42 169.00 C 112.18 169.00 114.43 169.59 115.42 170.32 C 117.50 171.84 116.78 172.82 96.69 196.31 C 86.68 208.02 85.83 209.32 86.93 211.31 C 87.58 212.52 89.19 214.29 90.50 215.25 C 92.87 217.00 92.87 217.00 100.79 206.75 C 105.14 201.11 109.33 195.47 110.10 194.21 C 110.87 192.95 113.56 189.72 116.08 187.03 C 118.60 184.34 122.20 179.89 124.08 177.13 C 125.96 174.38 128.50 171.86 129.73 171.55 C 133.27 170.63 173.30 165.97 173.75 166.42 C 174.08 166.75 152.35 207.88 148.41 214.38 C 147.39 216.06 146.77 215.91 139.30 212.15 C 130.81 207.88 129.00 207.98 129.00 212.69 C 129.00 214.46 131.16 216.42 138.75 221.49 C 144.11 225.08 149.08 227.80 149.78 227.53 C 150.49 227.26 154.09 226.11 157.78 224.99 Z  M 183.75 142.20 C 192.31 135.33 194.63 132.13 192.15 130.59 C 191.69 130.31 182.13 128.26 170.90 126.04 C 159.68 123.83 148.25 121.54 145.50 120.96 C 138.96 119.58 139.32 119.56 126.07 122.00 C 113.25 124.36 110.04 125.53 114.01 126.37 C 116.65 126.94 178.63 134.03 180.75 134.01 C 182.95 133.99 182.11 135.94 177.00 142.69 C 168.84 153.47 169.78 153.40 183.75 142.20 Z  M 131.01 115.49 C 131.70 114.65 132.99 114.09 133.87 114.24 C 135.02 114.43 135.81 113.13 136.71 109.53 C 138.10 103.95 137.43 102.53 134.00 103.80 C 132.44 104.38 132.06 104.92 132.85 105.40 C 133.50 105.81 133.76 106.58 133.43 107.12 C 133.05 107.73 132.29 107.65 131.39 106.91 C 129.33 105.20 128.48 106.57 129.81 109.48 C 130.80 111.66 130.61 112.28 128.23 114.49 C 125.67 116.86 125.64 117.00 127.64 117.00 C 128.80 117.00 130.32 116.32 131.01 115.49 Z  M 132.66 8.57 C 132.33 7.71 131.65 7.00 131.14 7.00 C 129.59 7.00 128.85 10.29 130.21 11.13 C 131.88 12.16 133.43 10.56 132.66 8.57 Z  M 84.19 226.04 C 82.98 224.41 82.00 222.77 82.00 222.39 C 82.00 221.37 86.02 225.18 87.13 227.24 C 88.66 230.10 86.56 229.25 84.19 226.04 Z  M 38.52 216.29 C 34.87 211.38 34.87 211.40 36.62 203.00 C 37.12 200.64 36.90 200.00 35.62 200.00 C 34.73 200.00 34.00 199.52 34.00 198.93 C 34.00 198.32 34.85 198.14 36.00 198.50 C 38.28 199.22 40.00 195.98 40.00 190.97 C 40.00 189.18 40.70 187.69 41.84 187.09 C 43.22 186.35 44.07 183.70 45.30 176.35 C 46.19 170.98 46.78 166.44 46.60 166.27 C 45.88 165.55 35.57 171.61 31.78 174.97 C 27.71 178.58 27.71 178.58 30.38 181.47 C 32.13 183.36 32.71 184.69 32.07 185.33 C 30.67 186.73 28.26 184.48 27.52 181.07 C 26.74 177.56 21.83 172.77 18.85 172.62 C 16.94 172.52 16.56 171.90 16.45 168.75 C 16.33 165.22 17.38 163.65 18.21 166.13 C 18.46 166.88 19.91 166.58 22.54 165.23 C 27.31 162.80 29.51 160.42 30.38 156.75 C 31.14 153.57 33.00 153.04 33.00 156.00 C 33.00 157.10 33.24 158.00 33.52 158.00 C 34.05 158.00 48.21 151.03 48.84 150.46 C 49.49 149.87 51.95 131.62 51.45 131.12 C 51.18 130.85 47.93 131.57 44.23 132.73 C 40.53 133.89 35.92 135.16 34.00 135.55 C 30.52 136.25 23.27 141.66 23.75 143.20 C 23.89 143.64 23.31 144.00 22.46 144.00 C 20.60 144.00 21.74 141.45 24.88 138.61 C 26.44 137.20 26.70 136.31 25.97 134.94 C 24.61 132.40 24.59 132.41 28.75 132.35 C 30.81 132.32 36.66 130.84 41.75 129.08 C 50.29 126.10 50.91 125.71 49.93 123.87 C 48.18 120.60 46.71 120.73 37.97 124.96 C 33.37 127.18 28.46 129.00 27.05 129.00 C 24.73 128.99 24.90 128.72 28.89 126.08 C 31.31 124.47 35.28 122.40 37.72 121.47 C 42.16 119.77 42.16 119.77 39.39 116.89 C 37.87 115.30 37.08 114.00 37.64 114.00 C 38.20 114.00 39.71 115.13 41.00 116.50 C 42.29 117.88 44.06 119.01 44.92 119.02 C 45.79 119.03 47.62 119.92 49.00 121.00 C 52.59 123.81 54.34 123.58 53.73 120.38 C 53.46 118.93 53.68 116.13 54.23 114.15 C 54.77 112.16 56.02 106.03 57.00 100.52 C 57.98 95.01 58.83 91.81 58.89 93.42 C 59.07 98.18 59.93 95.89 61.92 85.39 C 64.53 71.65 64.42 77.84 61.56 105.18 C 60.22 118.01 59.15 129.62 59.19 131.00 C 59.22 132.38 58.52 137.10 57.63 141.50 C 54.34 157.84 52.01 174.71 52.44 179.04 C 52.95 184.17 52.20 188.24 50.89 187.43 C 49.67 186.68 48.23 190.79 47.08 198.27 C 46.17 204.20 46.15 204.10 46.68 196.00 C 47.23 187.50 47.23 187.50 44.68 190.23 C 43.18 191.84 41.05 196.52 39.48 201.64 C 36.60 211.09 36.73 212.08 41.59 217.31 C 42.90 218.73 43.55 220.16 43.03 220.48 C 42.50 220.81 40.47 218.92 38.52 216.29 Z  M 37.43 165.98 C 49.75 158.62 51.37 157.41 50.58 156.13 C 50.21 155.54 45.91 157.44 40.23 160.70 C 27.81 167.83 24.84 169.93 25.55 171.08 C 26.43 172.51 26.72 172.38 37.43 165.98 Z  M 75.06 210.25 C 75.10 209.84 76.18 207.25 77.48 204.50 C 79.47 200.26 79.85 199.90 79.92 202.13 C 79.96 203.57 79.33 205.32 78.50 206.00 C 77.67 206.68 77.00 208.09 77.00 209.12 C 77.00 210.16 76.55 211.00 76.00 211.00 C 75.45 211.00 75.03 210.66 75.06 210.25 Z  M 119.86 200.50 C 119.53 199.95 118.97 197.70 118.62 195.50 C 117.98 191.50 117.98 191.50 119.53 194.95 C 120.95 198.12 121.23 202.80 119.86 200.50 Z  M 129.75 200.31 C 126.83 199.55 127.79 197.91 130.75 198.61 C 134.20 199.42 136.12 201.04 133.45 200.88 C 132.38 200.82 130.71 200.56 129.75 200.31 Z  M 136.50 196.00 C 133.75 194.37 131.05 192.88 130.50 192.69 C 129.96 192.49 130.74 190.72 132.25 188.73 C 133.76 186.75 135.00 184.91 135.00 184.63 C 135.00 184.35 133.65 182.65 132.00 180.84 C 130.35 179.03 129.01 177.09 129.03 176.53 C 129.04 175.96 130.65 177.21 132.59 179.30 C 135.75 182.70 136.57 183.08 140.31 182.80 C 143.85 182.55 144.50 182.16 144.53 180.30 C 144.57 177.04 145.67 176.54 146.40 179.45 C 146.80 181.06 147.74 182.00 148.94 182.00 C 150.77 182.00 150.76 182.14 148.75 186.25 C 147.60 188.59 146.03 191.62 145.27 193.00 C 144.50 194.38 143.63 196.29 143.32 197.25 C 142.60 199.53 142.38 199.49 136.50 196.00 Z  M 38.00 180.50 C 37.26 179.12 36.29 178.00 35.83 178.00 C 35.37 178.00 35.00 177.47 35.00 176.81 C 35.00 176.16 36.35 176.92 38.00 178.50 C 40.97 181.35 41.77 183.00 40.17 183.00 C 39.71 183.00 38.74 181.88 38.00 180.50 Z  M 91.33 154.22 C 90.69 153.82 89.84 152.22 89.46 150.68 C 89.07 149.14 87.71 147.20 86.44 146.37 C 85.16 145.53 84.35 144.25 84.63 143.52 C 84.91 142.80 84.43 139.82 83.57 136.92 C 82.71 134.01 82.00 131.38 82.00 131.07 C 82.02 129.66 87.33 137.04 90.00 142.18 C 93.37 148.65 94.50 149.66 96.51 147.99 C 97.73 146.98 97.55 146.05 95.33 141.65 C 93.15 137.33 86.62 126.45 85.40 125.11 C 85.21 124.89 84.36 125.28 83.52 125.98 C 82.43 126.89 82.00 126.92 82.00 126.09 C 82.00 124.23 85.11 120.00 86.48 120.00 C 87.70 120.00 90.92 126.59 94.47 136.32 C 95.43 138.98 96.82 141.38 97.55 141.66 C 98.28 141.94 99.18 143.52 99.54 145.18 C 100.10 147.71 99.67 148.75 96.90 151.60 C 93.37 155.24 93.12 155.36 91.33 154.22 Z  M 82.00 153.00 C 80.86 152.26 81.26 152.03 83.69 152.02 C 85.45 152.01 87.16 152.45 87.50 153.00 C 88.29 154.28 83.98 154.28 82.00 153.00 Z  M 62.02 147.75 C 62.05 146.38 65.94 141.01 65.98 142.30 C 66.01 143.38 63.07 149.00 62.47 149.00 C 62.21 149.00 62.01 148.44 62.02 147.75 Z  M 155.00 148.39 C 155.00 148.06 156.12 146.45 157.50 144.82 C 160.22 141.59 160.98 143.16 158.44 146.78 C 157.00 148.84 155.00 149.78 155.00 148.39 Z  M 116.00 143.49 C 116.00 142.45 120.36 137.00 121.19 137.00 C 123.05 137.00 121.79 139.78 119.00 141.84 C 117.35 143.06 116.00 143.80 116.00 143.49 Z  M 98.21 135.80 C 98.29 132.66 98.72 130.33 99.18 130.61 C 100.31 131.31 100.19 138.16 99.01 140.00 C 98.35 141.04 98.10 139.76 98.21 135.80 Z  M 75.56 136.78 C 74.70 135.56 74.00 133.78 74.00 132.82 C 74.00 131.87 73.47 129.94 72.83 128.52 C 71.93 126.55 71.93 125.67 72.83 124.77 C 73.72 123.88 74.02 123.94 74.08 125.05 C 74.24 128.17 74.91 130.18 76.91 133.58 C 78.06 135.52 79.00 137.54 79.00 138.06 C 79.00 139.74 77.15 139.05 75.56 136.78 Z  M 63.86 126.25 C 63.22 122.87 63.34 119.00 64.09 119.00 C 64.59 119.00 65.00 120.80 65.00 123.00 C 65.00 126.46 64.28 128.49 63.86 126.25 Z  M 71.01 118.42 C 71.02 115.30 72.75 103.36 73.51 101.22 C 74.07 99.62 78.49 101.67 81.39 104.88 C 83.24 106.92 83.23 107.01 80.39 110.73 C 78.81 112.80 77.64 115.06 77.80 115.75 C 77.96 116.44 77.53 117.00 76.86 117.00 C 76.18 117.00 74.59 117.98 73.31 119.17 C 71.00 121.35 71.00 121.35 71.01 118.42 Z  M 87.03 116.25 C 87.07 114.22 89.44 110.77 90.24 111.57 C 90.96 112.29 88.78 118.00 87.78 118.00 C 87.35 118.00 87.01 117.21 87.03 116.25 Z  M 66.03 106.75 C 66.07 105.10 68.83 101.49 69.52 102.18 C 70.34 103.00 68.19 108.00 67.02 108.00 C 66.46 108.00 66.01 107.44 66.03 106.75 Z  M 69.00 96.27 C 69.00 95.62 70.17 93.92 71.59 92.50 C 73.02 91.07 74.62 88.35 75.14 86.45 C 75.95 83.51 76.53 83.00 79.05 83.00 C 80.67 83.00 82.00 83.35 82.00 83.78 C 82.00 84.21 79.08 87.46 75.50 91.00 C 71.92 94.54 69.00 96.91 69.00 96.27 Z  M 50.00 92.21 C 50.00 91.13 50.58 89.76 51.30 89.17 C 52.30 88.33 52.58 88.68 52.55 90.71 C 52.49 93.74 50.00 95.20 50.00 92.21 Z  M 69.75 75.31 C 67.66 74.76 67.40 73.00 69.42 73.00 C 71.59 73.00 74.00 74.11 74.00 75.11 C 74.00 76.03 72.75 76.09 69.75 75.31 Z  M 113.00 62.28 C 113.00 60.90 115.43 56.02 116.12 56.01 C 117.26 55.99 115.47 62.34 114.22 62.76 C 113.55 62.98 113.00 62.77 113.00 62.28 Z  M 83.75 60.64 C 79.97 59.23 80.28 57.61 84.18 58.39 C 87.92 59.13 88.71 59.73 87.43 60.85 C 86.92 61.31 85.26 61.21 83.75 60.64 Z  M 166.13 59.65 C 165.41 58.79 165.13 57.60 165.50 57.00 C 165.87 56.40 165.63 55.26 164.96 54.46 C 164.27 53.62 164.18 53.00 164.76 53.00 C 165.98 53.00 168.35 58.46 167.81 60.06 C 167.55 60.84 167.00 60.71 166.13 59.65 Z  M 176.44 59.53 C 174.77 58.27 174.73 58.06 176.17 58.03 C 178.52 57.99 181.00 59.05 181.00 60.11 C 181.00 61.47 178.61 61.17 176.44 59.53 Z  M 116.00 50.28 C 116.01 48.71 120.68 43.73 121.77 44.11 C 122.40 44.32 121.35 45.97 119.45 47.78 C 117.55 49.58 116.00 50.70 116.00 50.28 Z  M 180.55 211.08 C 180.18 210.47 180.86 208.75 182.07 207.24 C 184.28 204.50 184.28 204.50 183.57 207.50 C 182.72 211.10 181.47 212.58 180.55 211.08 Z  M 164.10 74.92 C 162.79 74.39 161.97 73.70 162.28 73.38 C 163.14 72.53 169.00 74.01 169.00 75.08 C 169.00 76.22 167.23 76.16 164.10 74.92 Z "/>
</g>
</svg>