<?xml version="1.0" encoding="UTF-8" standalone="no"?>
<!DOCTYPE svg PUBLIC "-//W3C//DTD SVG 1.1//EN" "http://www.w3.org/Graphics/SVG/1.1/DTD/svg11.dtd" >
<svg xmlns="http://www.w3.org/2000/svg" xmlns:xlink="http://www.w3.org/1999/xlink" version="1.1" viewBox="0 0 204 256">
 <g >
 <path fill="currentColor"
d=" M 152.89 189.09 C 154.00 188.39 153.88 188.01 152.27 187.14 C 150.12 185.99 149.00 186.52 149.00 188.67 C 149.00 190.19 150.84 190.39 152.89 189.09 Z  M 80.42 84.29 C 82.02 79.59 82.02 79.59 79.26 77.32 C 68.36 68.35 65.22 68.00 63.20 75.54 C 62.52 78.07 62.23 80.56 62.54 81.07 C 62.86 81.58 64.71 82.00 66.67 82.00 C 69.32 82.00 70.08 81.64 69.67 80.58 C 69.37 79.80 69.80 78.91 70.63 78.59 C 71.45 78.27 71.85 77.56 71.50 77.01 C 71.16 76.45 71.36 76.00 71.94 76.00 C 73.15 76.00 73.34 77.32 72.30 78.37 C 70.32 80.35 71.10 83.90 74.06 86.39 C 75.76 87.83 77.53 89.00 77.98 89.00 C 78.44 89.00 79.53 86.88 80.42 84.29 Z  M 58.75 187.24 C 55.96 185.51 55.16 184.00 57.03 184.00 C 57.60 184.00 58.33 184.70 58.66 185.56 C 58.99 186.41 59.88 186.88 60.63 186.59 C 61.41 186.29 62.00 186.70 62.00 187.53 C 62.00 189.32 62.12 189.33 58.75 187.24 Z  M 154.23 172.25 C 154.75 169.64 155.39 166.43 155.64 165.13 C 156.57 160.31 157.22 164.13 156.54 170.45 C 156.08 174.75 155.40 177.00 154.56 177.00 C 153.56 177.00 153.49 175.94 154.23 172.25 Z  M 162.25 175.34 C 161.41 175.00 161.00 172.41 161.00 167.42 C 161.00 159.87 161.98 158.23 164.11 162.21 C 165.29 164.41 165.29 164.41 167.97 161.21 C 169.44 159.44 171.26 158.00 172.01 158.00 C 172.84 158.00 172.30 159.12 170.63 160.86 C 168.80 162.77 167.76 165.10 167.48 167.86 C 167.05 172.14 165.47 176.06 164.21 175.92 C 163.82 175.88 162.94 175.62 162.25 175.34 Z  M 28.00 172.37 C 28.00 170.74 27.52 168.92 26.93 168.33 C 26.18 167.58 26.49 167.11 27.99 166.71 C 29.74 166.26 29.91 166.41 28.93 167.58 C 28.29 168.36 28.17 169.00 28.67 169.00 C 29.77 169.00 29.83 173.51 28.75 174.58 C 28.34 175.00 28.00 174.00 28.00 172.37 Z  M 18.03 168.31 C 18.07 166.25 20.70 162.37 21.52 163.18 C 22.24 163.91 20.39 168.64 19.06 169.46 C 18.46 169.83 18.01 169.34 18.03 168.31 Z  M 12.03 155.25 C 12.09 153.82 14.98 150.65 15.63 151.30 C 15.99 151.66 15.77 152.57 15.15 153.32 C 14.53 154.07 14.31 154.98 14.68 155.34 C 15.04 155.70 14.58 156.00 13.67 156.00 C 12.75 156.00 12.01 155.66 12.03 155.25 Z  M 23.99 133.25 C 23.99 127.89 23.54 119.67 23.00 115.00 C 22.46 110.33 22.28 105.06 22.61 103.31 C 23.16 100.32 23.53 100.08 28.35 99.48 C 31.18 99.12 35.08 98.99 37.00 99.18 C 40.29 99.51 40.06 99.68 33.25 101.96 C 26.00 104.39 26.00 104.39 26.00 108.70 C 26.00 113.21 26.90 114.03 29.04 111.46 C 29.89 110.43 30.65 110.25 31.31 110.91 C 31.97 111.57 31.25 112.90 29.15 114.86 C 26.08 117.73 26.00 118.02 26.10 126.15 C 26.27 140.68 27.96 142.72 32.30 133.63 C 35.39 127.13 37.07 126.74 35.00 133.00 C 34.27 135.21 33.91 137.24 34.18 137.52 C 34.46 137.80 36.34 137.34 38.35 136.50 C 42.00 134.97 42.00 134.97 42.00 128.64 C 42.00 125.16 42.30 118.14 42.66 113.06 C 43.62 99.52 45.01 103.98 45.71 122.85 C 46.38 140.97 47.38 139.10 35.68 141.57 C 23.43 144.14 24.00 144.55 23.99 133.25 Z  M 9.75 139.92 C 7.40 138.55 7.53 137.00 10.00 137.00 C 11.33 137.00 12.00 137.67 12.00 139.00 C 12.00 141.29 12.06 141.27 9.75 139.92 Z  M 54.50 115.58 C 54.50 104.36 54.77 94.90 55.10 94.56 C 55.44 94.23 58.59 93.61 62.10 93.19 C 68.50 92.42 68.50 92.42 68.50 96.21 C 68.50 98.31 68.05 99.84 67.50 99.64 C 66.95 99.44 66.61 98.32 66.74 97.14 C 67.01 94.71 65.10 94.37 60.40 96.01 C 57.71 96.95 57.50 97.39 57.46 102.26 C 57.44 105.14 57.03 113.24 56.56 120.25 C 55.95 129.43 56.02 133.00 56.82 133.00 C 57.43 133.00 60.42 132.07 63.46 130.93 C 68.89 128.90 69.00 128.78 69.00 124.92 C 69.00 121.26 68.86 121.07 67.05 122.20 C 64.39 123.86 62.99 122.21 65.50 120.38 C 66.60 119.57 67.54 118.60 67.59 118.21 C 67.63 117.82 67.93 116.83 68.26 116.00 C 68.58 115.17 69.35 110.22 69.97 105.00 C 70.60 99.78 71.46 95.14 71.90 94.70 C 72.81 93.79 73.99 109.30 73.99 122.22 C 74.00 130.74 73.93 130.98 71.25 132.35 C 68.45 133.78 59.29 136.00 56.20 136.00 C 54.66 136.00 54.50 134.14 54.50 115.58 Z  M 117.00 127.49 C 117.00 124.29 117.34 122.00 117.75 122.42 C 118.16 122.83 118.50 124.82 118.50 126.83 C 118.50 130.42 118.58 130.50 122.23 130.39 C 124.28 130.33 126.59 129.76 127.35 129.13 C 128.12 128.48 133.78 127.75 140.12 127.47 C 156.57 126.73 156.96 126.53 156.98 118.75 C 156.99 116.13 157.47 114.00 158.04 114.00 C 158.70 114.00 158.98 116.85 158.79 121.73 C 158.50 129.46 158.50 129.46 151.50 130.68 C 147.65 131.36 138.31 132.22 130.75 132.61 C 117.00 133.31 117.00 133.31 117.00 127.49 Z  M 169.75 127.43 C 169.34 127.01 169.00 125.71 169.00 124.53 C 169.00 123.36 168.51 121.91 167.91 121.31 C 167.17 120.57 167.15 120.02 167.86 119.58 C 168.43 119.23 169.40 119.88 170.01 121.02 C 171.21 123.26 170.99 128.69 169.75 127.43 Z  M 87.13 106.90 C 85.83 105.25 85.00 103.67 85.28 103.39 C 85.92 102.74 91.00 107.76 91.00 109.05 C 91.00 110.76 89.55 109.95 87.13 106.90 Z  M 119.75 95.31 C 118.58 95.01 118.00 93.87 118.00 91.90 C 118.00 88.12 120.09 87.30 131.66 86.54 C 136.52 86.22 143.76 85.72 147.75 85.44 C 155.59 84.87 157.77 86.31 150.75 87.41 C 143.01 88.63 139.00 90.04 139.00 91.54 C 139.00 93.47 137.37 93.41 136.62 91.46 C 135.77 89.25 119.50 89.75 119.50 91.99 C 119.50 92.80 120.40 93.63 121.50 93.83 C 124.29 94.34 125.90 96.03 123.45 95.88 C 122.38 95.82 120.71 95.56 119.75 95.31 Z  M 172.53 89.25 C 172.94 88.29 173.80 86.05 174.45 84.27 C 175.97 80.11 177.00 79.10 177.00 81.78 C 177.00 82.94 176.06 85.49 174.90 87.44 C 172.71 91.16 171.25 92.27 172.53 89.25 Z  M 121.75 78.75 C 121.48 77.51 120.93 75.71 120.52 74.75 C 120.12 73.79 120.21 73.00 120.73 73.00 C 121.82 73.00 124.00 77.38 124.00 79.55 C 124.00 81.84 122.28 81.24 121.75 78.75 Z  M 104.75 46.61 C 103.79 45.88 103.00 44.99 103.00 44.64 C 103.00 43.36 105.13 44.05 107.23 46.00 C 109.71 48.31 107.66 48.81 104.75 46.61 Z "/>
</g>
</svg>