<?xml version="1.0" encoding="UTF-8" standalone="no"?>
<!DOCTYPE svg PUBLIC "-//W3C//DTD SVG 1.1//EN" "http://www.w3.org/Graphics/SVG/1.1/DTD/svg11.dtd" >
<svg xmlns="http://www.w3.org/2000/svg" xmlns:xlink="http://www.w3.org/1999/xlink" version="1.1" viewBox="0 0 187 256">
 <g >
 <path fill="currentColor"
d=" M 160.00 231.89 C 160.00 230.53 160.48 229.97 161.36 230.31 C 163.06 230.96 173.62 222.78 174.45 220.15 C 174.79 219.08 176.07 217.93 177.29 217.59 C 178.50 217.26 180.58 216.07 181.90 214.96 C 184.23 213.00 184.24 212.90 182.40 211.50 C 181.35 210.71 178.11 208.81 175.19 207.28 C 169.88 204.50 169.88 204.50 168.03 206.75 C 165.47 209.86 164.39 209.58 166.51 206.35 C 168.20 203.77 168.18 203.64 165.87 201.83 C 164.57 200.81 156.19 195.60 147.25 190.25 C 138.31 184.90 131.00 180.29 131.00 180.00 C 131.00 179.72 133.01 177.03 135.47 174.04 C 138.96 169.79 139.82 168.03 139.39 166.05 C 138.95 164.01 139.06 163.80 139.95 165.00 C 140.88 166.25 142.13 165.37 147.53 159.64 C 151.09 155.86 154.00 152.15 154.00 151.39 C 154.00 150.62 154.45 150.00 155.00 150.00 C 156.51 150.00 156.20 144.29 154.51 141.02 C 153.69 139.44 152.08 137.84 150.94 137.48 C 149.79 137.12 149.07 136.60 149.34 136.33 C 149.61 136.06 150.80 136.36 151.99 137.00 C 153.95 138.04 154.13 137.93 153.83 135.84 C 153.56 133.92 152.41 133.23 147.13 131.81 C 143.62 130.86 140.55 129.88 140.29 129.63 C 140.04 129.37 142.46 128.87 145.67 128.51 C 153.87 127.59 153.72 127.71 154.51 121.82 C 155.39 115.32 155.86 114.43 157.35 116.46 C 158.27 117.72 159.39 113.54 162.87 95.77 C 165.27 83.52 167.85 72.03 168.61 70.23 C 171.06 64.40 171.45 56.77 169.48 52.93 C 166.68 47.48 163.60 46.37 162.02 50.25 C 161.10 52.50 161.10 52.50 160.43 50.25 C 160.07 49.01 159.48 47.97 159.13 47.94 C 158.79 47.90 150.97 47.34 141.76 46.68 C 128.37 45.72 124.93 45.74 124.55 46.74 C 124.00 48.16 121.00 48.48 121.00 47.11 C 121.00 46.63 118.41 45.84 115.25 45.36 C 109.50 44.50 109.50 44.50 108.77 30.70 C 108.37 23.11 107.65 16.20 107.17 15.35 C 106.47 14.09 104.00 15.89 94.40 24.68 C 87.78 30.74 81.69 37.21 80.67 39.28 C 78.75 43.18 76.41 44.45 77.50 41.00 C 77.95 39.59 77.60 38.79 76.32 38.33 C 75.32 37.96 72.56 36.35 70.19 34.74 C 67.10 32.65 65.18 31.99 63.44 32.43 C 62.10 32.76 61.00 33.52 61.00 34.10 C 61.00 34.74 59.90 34.92 58.22 34.55 C 55.29 33.90 28.60 39.07 25.05 40.97 C 23.92 41.58 23.00 42.52 23.00 43.07 C 23.00 44.11 23.75 44.45 28.25 45.44 C 29.76 45.77 31.00 46.48 31.00 47.02 C 31.00 48.46 28.74 48.22 25.04 46.37 C 21.77 44.74 21.77 44.74 16.38 50.62 C 10.36 57.18 7.61 61.55 8.34 63.43 C 8.60 64.12 8.41 65.32 7.91 66.09 C 7.13 67.29 6.86 67.28 6.04 66.01 C 5.30 64.86 4.81 64.79 3.90 65.70 C 2.56 67.04 5.32 74.02 17.12 99.15 C 20.90 107.21 24.00 114.27 24.00 114.84 C 24.00 115.42 24.82 116.47 25.83 117.19 C 26.84 117.91 28.17 120.56 28.80 123.08 C 29.43 125.60 30.62 128.97 31.45 130.56 C 33.22 133.98 32.70 134.43 25.89 135.42 C 23.35 135.78 20.50 136.65 19.55 137.34 C 18.01 138.46 18.60 139.23 25.12 144.55 C 42.62 158.85 41.78 156.34 35.48 175.39 C 32.16 185.42 30.18 192.93 30.60 193.89 C 31.00 194.77 31.23 195.89 31.12 196.38 C 31.01 196.86 31.54 197.98 32.31 198.88 C 34.35 201.27 35.05 203.82 33.77 204.24 C 33.15 204.45 32.99 205.18 33.41 205.86 C 33.95 206.72 34.55 206.79 35.42 206.07 C 36.32 205.32 36.63 205.51 36.58 206.77 C 36.53 207.72 39.73 211.58 43.68 215.35 C 50.87 222.20 50.87 222.20 54.68 220.98 C 59.56 219.42 60.29 218.70 60.45 215.29 C 60.53 213.76 60.96 211.43 61.40 210.11 C 62.17 207.88 62.04 207.77 59.36 208.42 C 57.79 208.80 56.02 209.74 55.43 210.50 C 54.57 211.62 52.75 210.28 46.18 203.68 C 39.06 196.52 36.00 192.65 38.89 194.43 C 39.38 194.73 40.78 192.51 42.00 189.49 C 43.23 186.47 44.63 184.00 45.13 184.00 C 45.62 184.00 47.25 185.78 48.76 187.96 C 50.27 190.14 51.89 191.94 52.38 191.96 C 52.86 191.98 57.13 190.49 61.88 188.64 C 66.62 186.80 72.30 184.78 74.50 184.15 C 82.24 181.94 82.23 181.60 74.05 174.07 C 69.39 169.77 66.06 167.42 65.13 167.78 C 64.09 168.18 63.83 167.88 64.26 166.77 C 64.99 164.87 53.92 153.92 46.75 149.46 C 43.51 147.44 42.00 145.83 42.00 144.38 C 42.00 142.58 42.93 142.08 48.25 141.03 C 56.05 139.50 58.86 138.16 56.89 136.91 C 55.98 136.33 55.91 136.03 56.69 136.02 C 57.35 136.01 58.16 136.45 58.50 137.00 C 59.37 138.41 62.37 138.25 69.94 136.38 C 77.50 134.52 79.54 133.06 80.36 128.95 C 80.68 127.33 81.41 126.00 81.97 126.00 C 83.46 126.00 83.23 128.31 81.53 130.56 C 79.46 133.30 79.65 134.19 82.25 133.82 C 84.21 133.54 84.54 132.82 84.80 128.25 C 85.08 123.44 84.89 122.91 82.62 122.05 C 81.26 121.53 78.42 120.97 76.32 120.80 C 72.77 120.52 72.43 120.73 71.54 123.75 C 71.02 125.54 70.23 127.00 69.79 127.00 C 68.62 127.00 68.83 124.57 70.11 123.29 C 71.62 121.78 70.55 120.34 67.48 119.75 C 64.57 119.20 62.00 121.97 62.00 125.66 C 62.00 127.88 60.36 129.70 59.31 128.64 C 59.00 128.34 59.10 127.28 59.51 126.29 C 60.18 124.72 60.41 121.88 60.10 119.12 C 60.05 118.63 57.80 118.23 55.12 118.23 C 52.43 118.23 49.39 117.75 48.37 117.15 C 46.66 116.17 46.78 115.97 49.66 114.85 C 52.36 113.81 52.89 113.03 53.26 109.56 C 53.53 107.01 53.12 104.49 52.15 102.78 C 51.30 101.29 50.83 99.83 51.11 99.55 C 52.40 98.26 61.00 98.60 61.00 99.93 C 61.00 100.45 59.76 101.01 58.25 101.18 C 55.62 101.49 55.50 101.74 55.42 107.25 C 55.36 111.32 55.72 113.00 56.63 113.00 C 58.29 113.00 73.95 109.35 80.67 107.41 C 85.50 106.00 85.88 105.66 86.47 102.16 C 86.82 100.09 87.15 95.65 87.19 92.28 C 87.24 88.92 87.68 85.56 88.17 84.83 C 88.69 84.05 88.78 88.24 88.40 95.00 C 88.05 101.33 87.47 106.79 87.13 107.15 C 86.78 107.50 80.44 109.44 73.04 111.44 C 65.63 113.45 59.39 115.28 59.17 115.50 C 58.51 116.16 62.82 116.78 75.31 117.81 C 81.80 118.35 87.28 118.95 87.47 119.14 C 87.67 119.34 87.98 123.05 88.17 127.40 C 88.50 135.30 88.50 135.30 73.50 139.02 C 49.53 144.95 49.68 144.90 51.05 146.56 C 51.71 147.35 53.33 148.00 54.65 148.00 C 56.21 148.00 57.36 148.79 57.94 150.25 C 58.43 151.49 64.73 158.06 71.94 164.85 C 84.61 176.78 89.08 182.35 87.34 184.04 C 86.01 185.33 72.37 190.52 61.18 193.99 C 50.93 197.18 50.93 197.18 48.88 194.58 C 47.76 193.15 46.43 192.24 45.92 192.55 C 43.95 193.77 45.18 196.76 49.32 200.82 C 53.64 205.06 53.64 205.06 75.63 196.93 C 97.63 188.81 97.63 188.81 127.03 203.51 C 149.09 214.55 156.81 217.98 157.96 217.25 C 158.81 216.72 159.50 215.79 159.50 215.19 C 159.50 214.59 151.62 209.23 142.00 203.28 C 118.00 188.45 111.00 183.75 111.02 182.54 C 111.04 181.97 118.01 173.45 126.52 163.60 C 135.04 153.76 142.00 145.36 142.00 144.95 C 142.00 144.53 136.94 143.03 130.75 141.61 C 124.56 140.19 115.00 138.00 109.50 136.74 C 99.50 134.46 99.50 134.46 99.19 129.63 C 98.96 125.98 99.20 124.91 100.19 125.27 C 100.91 125.53 101.33 126.37 101.11 127.12 C 99.65 132.35 99.78 132.97 102.64 134.08 C 104.21 134.70 107.35 135.33 109.60 135.49 C 111.86 135.64 114.56 136.21 115.60 136.75 C 116.65 137.29 120.20 138.01 123.50 138.37 C 126.80 138.72 132.65 139.80 136.50 140.76 C 146.67 143.29 146.51 144.19 133.31 158.95 C 118.65 175.35 113.55 181.95 114.66 183.06 C 116.55 184.95 145.56 202.00 146.88 202.00 C 147.90 202.00 148.11 201.08 147.69 198.50 C 147.38 196.57 147.52 195.00 148.01 195.00 C 148.49 195.00 149.03 197.10 149.20 199.66 C 149.50 204.28 149.56 204.36 156.04 207.91 C 166.59 213.71 166.10 213.24 165.39 216.80 C 164.82 219.66 163.00 221.40 163.00 219.08 C 163.00 218.58 161.27 219.11 159.16 220.27 C 155.33 222.37 155.33 222.37 152.13 220.09 C 150.37 218.84 140.14 213.56 129.38 208.36 C 113.80 200.81 109.55 199.13 108.42 200.07 C 107.30 201.00 107.00 200.92 107.00 199.71 C 107.00 198.86 104.96 197.03 102.47 195.64 C 97.95 193.11 97.95 193.11 91.35 195.59 C 84.17 198.29 78.79 200.87 78.00 201.99 C 75.64 205.32 71.80 209.13 71.30 208.63 C 70.96 208.29 71.50 207.11 72.50 206.00 C 75.17 203.05 73.89 202.68 68.40 204.84 C 64.24 206.48 63.52 207.16 63.39 209.63 C 63.30 211.21 62.90 213.79 62.48 215.36 C 61.78 218.03 61.89 218.17 64.11 217.51 C 65.43 217.11 67.62 216.06 69.00 215.17 C 70.38 214.28 71.87 213.67 72.33 213.81 C 72.79 213.94 78.33 211.99 84.63 209.47 C 97.18 204.45 97.86 204.44 107.21 209.14 C 111.98 211.53 112.85 211.48 114.06 208.75 C 114.96 206.70 115.00 206.74 114.50 209.25 C 114.05 211.55 114.48 212.32 117.16 213.95 C 118.92 215.02 120.74 215.66 121.20 215.38 C 121.66 215.09 123.40 216.00 125.06 217.40 C 129.88 221.46 148.21 230.27 149.04 228.93 C 149.87 227.59 154.49 230.23 155.38 232.56 C 156.28 234.89 160.00 234.35 160.00 231.89 Z  M 30.86 200.04 C 29.89 197.25 29.57 197.01 28.77 198.45 C 28.09 199.67 28.31 200.69 29.57 202.08 C 31.88 204.63 32.26 204.04 30.86 200.04 Z  M 158.00 123.00 C 158.00 121.35 157.79 120.00 157.54 120.00 C 156.58 120.00 154.93 124.08 155.51 125.02 C 156.72 126.97 158.00 125.93 158.00 123.00 Z  M 132.57 218.10 C 131.50 217.68 131.08 217.07 131.64 216.72 C 132.95 215.91 137.00 216.97 137.00 218.12 C 137.00 219.16 135.25 219.16 132.57 218.10 Z  M 42.00 181.50 C 42.00 180.68 42.40 180.00 42.88 180.00 C 43.37 180.00 44.03 179.01 44.34 177.79 C 44.66 176.58 45.17 175.83 45.46 176.13 C 46.25 176.91 43.98 183.00 42.90 183.00 C 42.41 183.00 42.00 182.32 42.00 181.50 Z  M 125.48 180.75 C 125.87 179.51 126.42 177.26 126.71 175.74 C 127.44 171.86 129.00 171.28 129.00 174.88 C 129.00 176.53 128.55 178.16 128.00 178.50 C 127.45 178.84 127.00 179.99 127.00 181.06 C 127.00 182.13 126.50 183.00 125.88 183.00 C 125.18 183.00 125.03 182.16 125.48 180.75 Z  M 54.82 178.25 C 54.01 177.29 52.15 174.42 50.70 171.87 C 49.24 169.32 47.30 166.95 46.38 166.59 C 45.47 166.24 44.99 165.68 45.32 165.34 C 45.66 165.01 45.48 163.90 44.93 162.87 C 43.45 160.10 45.44 160.50 49.22 163.75 C 56.00 169.56 63.00 176.32 63.00 177.05 C 63.00 177.62 57.76 180.00 56.51 180.00 C 56.40 180.00 55.64 179.21 54.82 178.25 Z  M 81.35 163.46 C 72.08 156.01 64.37 149.56 64.22 149.11 C 63.59 147.32 111.27 144.19 119.54 145.49 C 123.89 146.17 124.19 146.36 122.00 147.06 C 120.62 147.49 116.01 148.15 111.73 148.51 C 107.26 148.89 103.38 149.76 102.58 150.56 C 101.40 151.74 101.11 151.73 100.63 150.47 C 100.22 149.40 98.42 149.00 94.03 149.00 C 87.99 149.00 86.98 149.58 89.18 151.78 C 89.83 152.43 90.06 153.27 89.69 153.64 C 89.32 154.01 87.91 153.12 86.56 151.66 C 84.09 148.99 79.68 148.09 78.50 150.01 C 78.15 150.56 78.58 151.72 79.44 152.58 C 80.30 153.44 81.00 155.08 81.00 156.23 C 81.00 158.24 80.93 158.25 79.02 156.52 C 77.94 155.54 77.28 154.35 77.57 153.89 C 77.86 153.42 77.61 152.13 77.01 151.02 C 76.17 149.46 74.92 149.00 71.46 149.00 C 69.01 149.00 67.00 149.39 67.00 149.87 C 67.00 150.34 70.17 152.86 74.04 155.46 C 79.77 159.30 81.35 159.95 82.54 158.97 C 83.64 158.05 84.00 158.04 84.00 158.93 C 84.00 160.54 89.58 165.60 94.73 168.65 C 98.96 171.17 98.96 171.17 101.90 169.07 C 103.52 167.92 105.97 165.63 107.36 163.99 C 108.74 162.34 110.17 161.00 110.54 161.00 C 110.91 161.00 115.72 157.61 121.24 153.47 C 126.75 149.32 131.48 146.15 131.75 146.42 C 132.86 147.53 101.25 177.00 98.94 177.00 C 98.53 177.00 90.61 170.91 81.35 163.46 Z  M 100.02 157.33 C 100.02 156.32 100.47 154.82 101.00 154.00 C 101.78 152.79 101.97 152.93 101.98 154.75 C 101.99 155.99 102.03 157.33 102.08 157.72 C 102.12 158.12 101.67 158.61 101.08 158.81 C 100.48 159.01 100.01 158.34 100.02 157.33 Z  M 25.00 139.49 C 22.53 138.06 22.55 138.05 26.00 138.65 C 29.98 139.35 32.47 141.02 29.45 140.96 C 28.38 140.95 26.38 140.28 25.00 139.49 Z  M 41.80 135.59 C 39.52 132.46 40.75 131.41 43.13 134.44 C 44.16 135.75 45.00 137.08 45.00 137.41 C 45.00 138.71 43.41 137.81 41.80 135.59 Z  M 135.65 135.90 C 134.66 134.75 134.11 133.56 134.42 133.24 C 135.09 132.58 139.00 135.92 139.00 137.15 C 139.00 138.63 137.51 138.07 135.65 135.90 Z  M 132.70 125.57 C 131.37 124.56 131.24 124.09 132.20 123.76 C 134.17 123.10 137.13 124.11 136.73 125.31 C 136.18 126.97 134.67 127.06 132.70 125.57 Z  M 38.60 125.28 C 37.32 124.95 37.09 124.56 37.89 124.07 C 39.45 123.10 38.06 119.43 33.55 112.65 C 31.67 109.81 27.91 101.19 25.19 93.50 C 17.76 72.49 17.50 72.07 14.50 76.25 C 12.94 78.42 12.90 78.34 13.50 74.00 C 14.04 70.05 15.05 68.58 21.72 62.00 C 28.70 55.12 29.02 54.91 25.63 59.50 C 17.84 70.02 17.55 66.55 28.12 89.01 C 33.28 99.98 37.79 108.96 38.14 108.98 C 38.50 108.99 37.26 101.72 35.40 92.82 C 33.54 83.93 32.24 76.43 32.51 76.16 C 32.78 75.89 33.00 76.42 33.00 77.33 C 33.00 78.25 33.56 79.00 34.25 79.00 C 35.08 79.00 35.52 80.76 35.56 84.25 C 35.60 87.78 36.78 92.46 39.15 98.50 C 43.93 110.69 47.10 123.50 45.68 124.92 C 44.58 126.02 42.00 126.15 38.60 125.28 Z  M 121.00 122.97 C 121.00 119.28 118.88 118.23 114.65 119.82 C 112.29 120.72 111.43 120.70 110.83 119.74 C 110.24 118.79 114.17 118.14 127.48 116.97 C 137.05 116.13 145.06 115.23 145.27 114.97 C 145.75 114.37 156.03 63.94 156.01 62.25 C 156.00 61.40 154.20 61.00 150.38 61.00 C 145.08 61.00 144.79 61.13 145.24 63.25 C 145.51 64.49 146.32 68.30 147.06 71.72 C 147.79 75.14 148.11 78.22 147.78 78.55 C 147.44 78.89 142.07 79.75 135.83 80.47 C 129.60 81.18 124.72 81.85 125.00 81.95 C 125.28 82.06 130.13 82.73 135.80 83.45 C 141.46 84.17 146.36 85.02 146.68 85.35 C 147.00 85.67 146.41 90.34 145.36 95.72 C 143.45 105.50 143.45 105.50 135.52 105.80 C 131.16 105.96 127.03 106.56 126.34 107.13 C 125.65 107.70 124.54 107.83 123.87 107.42 C 123.21 107.01 117.34 106.78 110.83 106.91 C 99.00 107.15 99.00 107.15 99.00 94.19 C 99.00 79.92 98.43 81.14 106.25 78.63 C 107.61 78.19 108.00 76.94 108.00 73.03 C 108.00 70.26 108.40 68.00 108.88 68.00 C 110.27 68.00 111.00 72.14 109.95 74.10 C 109.43 75.07 109.00 76.63 109.00 77.56 C 109.00 78.93 109.62 79.13 112.25 78.62 C 114.04 78.28 116.25 77.10 117.16 76.00 C 119.29 73.44 119.95 73.47 119.27 76.09 C 118.73 78.14 118.92 78.17 129.11 77.54 C 143.13 76.67 144.00 76.44 144.00 73.63 C 144.00 66.27 141.05 63.74 130.86 62.39 C 126.05 61.75 125.78 61.85 122.45 65.49 C 120.55 67.56 119.00 68.66 119.00 67.93 C 119.00 67.20 120.20 65.36 121.66 63.83 C 123.65 61.75 123.96 60.95 122.91 60.61 C 122.13 60.36 119.81 59.63 117.75 59.00 C 115.69 58.36 114.00 57.43 114.00 56.92 C 114.00 55.69 131.60 55.82 141.00 57.13 C 152.08 58.67 154.54 58.69 154.25 57.25 C 154.11 56.56 154.27 56.00 154.59 56.00 C 155.59 56.00 158.93 60.43 158.97 61.81 C 158.99 62.52 156.69 74.00 153.87 87.31 C 151.05 100.61 148.63 112.40 148.50 113.50 C 148.37 114.60 148.20 115.80 148.13 116.16 C 148.06 116.52 142.15 117.14 135.00 117.54 C 121.16 118.30 121.05 118.36 122.98 123.43 C 123.75 125.47 123.65 126.00 122.48 126.00 C 121.50 126.00 121.00 124.97 121.00 122.97 Z  M 107.53 103.95 C 107.98 103.23 108.59 103.24 109.50 104.00 C 110.24 104.62 113.42 104.97 116.67 104.80 C 122.50 104.50 122.50 104.50 122.17 100.00 C 121.83 95.31 123.51 95.22 124.17 99.90 C 124.62 103.14 127.41 104.85 129.82 103.35 C 130.86 102.70 133.60 102.43 136.18 102.72 C 141.35 103.30 141.36 103.27 142.60 92.71 C 143.16 87.98 143.02 87.00 141.76 87.00 C 140.93 87.00 139.68 87.67 139.00 88.50 C 137.44 90.38 136.00 90.43 136.00 88.61 C 136.00 85.73 129.68 85.07 126.83 87.65 C 125.11 89.21 125.00 89.18 125.00 87.29 C 125.00 85.44 124.13 85.21 114.28 84.55 C 108.39 84.16 102.76 83.41 101.78 82.88 C 100.19 82.03 100.00 82.43 100.01 86.71 C 100.01 89.35 100.30 94.54 100.65 98.25 C 101.27 104.82 101.36 105.00 104.09 105.00 C 105.62 105.00 107.17 104.53 107.53 103.95 Z  M 18.56 97.10 C 17.80 95.88 19.05 90.00 20.07 90.00 C 20.52 90.00 20.82 91.80 20.73 94.00 C 20.58 97.83 19.75 99.02 18.56 97.10 Z  M 71.75 93.31 C 70.79 93.06 70.00 92.47 70.00 92.01 C 70.00 91.25 76.90 92.64 77.92 93.60 C 78.46 94.12 74.02 93.90 71.75 93.31 Z  M 61.59 90.14 C 60.70 88.71 46.01 87.74 44.48 89.02 C 43.45 89.87 42.62 89.62 40.98 87.98 C 39.80 86.80 38.98 85.74 39.17 85.63 C 41.94 83.91 47.25 83.63 60.41 84.50 C 72.35 85.29 75.50 85.80 75.50 86.93 C 75.50 87.71 74.38 88.65 73.00 89.02 C 67.72 90.41 62.10 90.97 61.59 90.14 Z  M 86.87 79.80 C 84.30 77.17 84.29 77.10 86.37 76.80 C 88.86 76.45 89.91 72.20 87.84 70.88 C 86.79 70.22 86.78 70.03 87.78 70.02 C 89.61 69.99 90.16 72.04 89.81 77.62 C 89.50 82.50 89.50 82.50 86.87 79.80 Z  M 74.00 76.58 C 74.00 74.00 74.00 74.00 63.25 73.97 C 56.20 73.95 53.04 73.62 54.08 73.02 C 56.20 71.78 75.22 65.00 76.58 65.00 C 77.32 65.00 77.42 66.80 76.89 70.68 C 76.47 73.81 76.21 76.79 76.31 77.31 C 76.42 77.83 75.94 78.46 75.25 78.71 C 74.45 79.00 74.00 78.23 74.00 76.58 Z  M 30.02 69.00 C 30.01 67.98 35.23 65.47 46.25 61.20 C 55.19 57.74 64.28 54.12 66.44 53.15 C 70.39 51.40 70.39 51.40 66.56 49.04 C 62.74 46.67 62.74 46.67 51.33 48.46 C 45.05 49.45 39.69 50.02 39.41 49.75 C 39.13 49.47 40.17 48.93 41.70 48.56 C 50.88 46.31 55.00 44.73 55.00 43.43 C 55.00 41.80 57.57 41.49 58.50 43.00 C 58.84 43.55 60.89 44.00 63.06 44.00 C 65.44 44.00 67.73 44.69 68.84 45.75 C 69.86 46.71 72.05 48.23 73.71 49.13 C 75.91 50.31 76.92 51.74 77.41 54.38 C 77.78 56.37 78.41 58.00 78.80 58.00 C 80.03 58.00 82.10 62.03 81.43 63.11 C 80.61 64.44 76.99 61.23 77.54 59.66 C 77.76 59.02 77.29 57.64 76.49 56.59 C 75.17 54.85 74.64 54.79 70.77 55.92 C 68.42 56.61 65.01 58.03 63.19 59.09 C 61.37 60.14 58.64 61.00 57.11 61.00 C 53.44 61.00 31.71 67.90 30.77 69.36 C 30.27 70.13 30.03 70.01 30.02 69.00 Z  M 100.60 65.17 C 100.25 64.59 100.26 62.26 100.62 59.98 C 101.32 55.57 102.97 56.29 102.97 61.00 C 102.97 64.09 101.52 66.65 100.60 65.17 Z  M 90.16 64.23 C 90.07 63.53 88.84 61.13 87.43 58.89 C 86.01 56.64 85.00 54.67 85.18 54.50 C 85.36 54.32 86.77 55.20 88.32 56.44 C 90.65 58.30 91.08 59.30 90.73 62.10 C 90.51 63.97 90.25 64.93 90.16 64.23 Z  M 42.21 42.32 C 40.95 40.90 40.18 39.49 40.49 39.18 C 41.32 38.35 45.30 42.60 44.87 43.85 C 44.67 44.43 43.47 43.74 42.21 42.32 Z  M 89.00 42.12 C 89.00 41.64 89.67 40.69 90.49 40.01 C 91.31 39.33 91.73 38.37 91.43 37.89 C 91.13 37.40 91.36 37.00 91.94 37.00 C 93.28 37.00 93.29 38.58 91.96 41.07 C 90.91 43.03 89.00 43.72 89.00 42.12 Z  M 113.00 93.88 C 113.00 91.27 113.36 89.97 113.91 90.55 C 115.39 92.09 115.63 97.28 114.25 97.75 C 113.38 98.04 113.00 96.87 113.00 93.88 Z  M 104.75 91.61 C 102.93 90.23 102.45 88.98 103.75 89.02 C 104.16 89.03 105.62 89.92 107.00 91.00 C 108.65 92.29 108.99 92.95 108.00 92.95 C 107.17 92.94 105.71 92.34 104.75 91.61 Z "/>
</g>
</svg>