<?xml version="1.0" encoding="UTF-8" standalone="no"?>
<!DOCTYPE svg PUBLIC "-//W3C//DTD SVG 1.1//EN" "http://www.w3.org/Graphics/SVG/1.1/DTD/svg11.dtd" >
<svg xmlns="http://www.w3.org/2000/svg" xmlns:xlink="http://www.w3.org/1999/xlink" version="1.1" viewBox="0 0 233 256">
 <g >
 <path fill="currentColor"
d=" M 53.04 205.96 C 51.13 204.33 48.77 203.00 47.79 203.00 C 46.80 203.00 46.00 202.55 46.00 202.00 C 46.00 200.73 48.69 200.69 49.46 201.94 C 49.81 202.50 51.42 202.30 53.44 201.46 C 57.09 199.94 74.00 190.38 75.26 189.13 C 75.68 188.72 75.38 184.58 74.60 179.94 C 73.82 175.30 72.64 166.78 71.97 161.00 C 71.30 155.22 70.52 150.10 70.23 149.61 C 69.95 149.13 68.91 149.79 67.93 151.10 C 66.94 152.40 65.85 153.18 65.50 152.83 C 64.74 152.07 66.98 147.83 68.75 146.70 C 69.44 146.26 70.00 144.99 70.00 143.88 C 70.00 139.96 68.13 138.19 62.76 137.05 C 53.83 135.14 44.00 131.96 44.00 130.98 C 44.00 129.01 49.31 126.73 58.99 124.55 C 64.52 123.30 69.28 122.06 69.55 121.78 C 69.82 121.51 70.73 118.00 71.57 113.98 C 72.81 108.03 72.85 106.52 71.80 105.85 C 69.98 104.70 67.76 104.80 68.50 106.00 C 69.39 107.43 68.29 107.23 65.61 105.48 C 64.33 104.64 60.25 103.32 56.54 102.54 C 52.83 101.77 49.55 100.88 49.24 100.57 C 48.93 100.26 49.18 98.90 49.80 97.54 C 51.09 94.71 49.83 93.29 47.99 95.51 C 46.11 97.78 44.36 97.31 41.91 93.87 C 40.14 91.39 39.91 90.40 40.82 89.12 C 41.45 88.23 44.20 83.95 46.94 79.61 C 50.82 73.46 51.71 71.32 50.96 69.92 C 49.59 67.36 49.77 66.70 51.63 67.41 C 52.52 67.75 53.89 67.51 54.67 66.86 C 55.45 66.22 53.29 71.39 49.87 78.37 C 44.94 88.42 43.91 91.31 44.89 92.28 C 45.86 93.24 46.31 93.18 47.02 92.00 C 53.51 81.17 73.00 53.43 74.29 53.18 C 75.40 52.97 82.52 59.13 94.42 70.60 C 104.55 80.35 113.88 88.90 115.16 89.59 C 116.97 90.56 117.42 91.52 117.17 93.92 C 116.95 96.05 117.28 97.00 118.25 97.00 C 119.02 97.00 126.37 89.33 134.58 79.95 C 156.03 55.44 157.37 53.98 158.67 53.99 C 159.50 54.00 204.26 101.42 207.70 105.93 C 208.18 106.56 213.31 102.58 213.76 101.23 C 213.97 100.60 209.31 95.14 203.40 89.09 C 197.50 83.04 192.40 77.73 192.07 77.29 C 191.74 76.86 184.46 69.61 175.89 61.19 C 160.30 45.88 160.30 45.88 142.53 64.94 C 132.75 75.42 124.00 84.00 123.08 84.00 C 121.70 84.00 107.56 72.53 97.00 62.83 C 82.36 49.40 76.04 44.00 74.95 44.00 C 74.24 44.00 72.72 44.77 71.58 45.71 C 70.44 46.65 70.72 46.12 72.21 44.52 C 74.92 41.62 74.92 41.62 78.53 44.19 C 80.51 45.60 91.08 54.01 102.00 62.88 C 112.93 71.75 122.30 79.00 122.82 79.00 C 123.34 79.00 126.52 76.06 129.89 72.46 C 133.95 68.12 136.00 65.10 136.00 63.46 C 136.00 60.97 137.52 60.05 138.21 62.13 C 138.56 63.17 144.21 57.64 154.86 45.86 C 157.87 42.53 159.76 41.26 161.53 41.36 C 162.89 41.44 164.00 41.91 164.00 42.41 C 164.00 42.90 165.13 44.80 166.52 46.62 C 168.25 48.89 169.56 49.72 170.69 49.29 C 171.94 48.81 172.19 49.06 171.70 50.33 C 171.29 51.41 172.14 53.23 174.13 55.50 C 176.69 58.41 177.91 59.01 181.35 59.06 C 184.85 59.12 185.15 59.27 183.25 60.03 C 182.01 60.53 181.00 61.36 181.00 61.87 C 181.00 62.39 184.96 67.01 189.81 72.15 C 197.61 80.43 201.01 84.12 213.47 97.84 C 216.50 101.17 216.50 101.17 213.04 104.09 C 211.13 105.69 209.16 107.00 208.66 107.00 C 208.15 107.00 205.97 105.40 203.80 103.44 C 200.79 100.72 199.54 100.13 198.53 100.97 C 197.80 101.58 197.43 102.91 197.69 103.93 C 198.09 105.47 197.41 105.92 193.84 106.52 C 191.45 106.92 188.38 107.71 187.00 108.28 C 185.62 108.85 184.05 109.37 183.50 109.43 C 182.27 109.59 176.11 110.98 173.78 111.63 C 170.93 112.43 169.97 118.28 171.25 127.06 C 172.39 134.91 172.39 134.91 176.95 134.33 C 179.45 134.02 182.58 133.08 183.90 132.26 C 186.05 130.92 186.25 130.92 185.73 132.26 C 185.38 133.18 186.36 134.90 188.22 136.64 C 191.10 139.33 191.25 139.37 190.74 137.25 C 189.82 133.49 191.76 133.73 193.01 137.53 C 194.46 141.93 193.89 143.56 190.61 144.38 C 189.21 144.73 184.67 146.57 180.53 148.45 C 173.00 151.89 173.00 151.89 173.00 166.86 C 173.00 175.10 173.27 182.55 173.61 183.42 C 174.57 185.92 178.00 185.40 178.02 182.75 C 178.02 181.51 178.42 179.89 178.89 179.14 C 180.11 177.22 181.22 179.32 180.82 182.77 C 180.53 185.27 180.81 185.53 184.25 185.81 C 186.42 185.99 188.00 185.67 188.00 185.06 C 188.00 184.48 188.45 184.00 189.00 184.00 C 189.55 184.00 189.89 184.56 189.75 185.25 C 189.58 186.11 191.07 186.53 194.50 186.58 C 197.25 186.63 201.53 187.28 204.00 188.03 C 207.82 189.18 208.12 189.44 206.00 189.78 C 202.86 190.27 198.35 194.46 197.56 197.61 C 197.23 198.92 196.52 200.00 195.98 200.00 C 194.73 200.00 194.75 199.65 196.17 196.52 C 196.89 194.95 196.99 193.59 196.42 193.02 C 195.07 191.67 163.82 197.84 162.28 199.77 C 161.33 200.96 160.75 201.04 159.64 200.12 C 158.59 199.24 156.97 199.21 153.36 200.00 C 145.94 201.61 145.26 201.93 147.00 203.00 C 149.51 204.55 147.20 205.33 144.01 204.01 C 142.24 203.27 139.19 202.98 136.75 203.31 C 133.55 203.74 131.74 203.38 129.27 201.85 C 123.66 198.39 124.84 196.60 135.50 192.47 C 143.50 189.37 145.00 188.45 145.00 186.60 C 145.00 185.39 144.47 183.87 143.82 183.22 C 143.17 182.57 142.98 181.69 143.40 181.27 C 144.44 180.23 146.99 183.87 146.36 185.50 C 145.47 187.82 148.09 188.26 152.09 186.46 C 155.91 184.74 156.00 184.58 156.00 179.50 C 156.00 176.64 155.71 170.21 155.35 165.20 C 154.62 154.90 155.56 155.77 143.75 154.43 C 138.00 153.77 138.00 153.77 138.00 157.88 C 138.00 160.15 137.52 162.00 136.92 162.00 C 136.31 162.00 135.99 160.61 136.17 158.79 C 136.44 156.20 136.00 155.30 133.91 154.12 C 129.99 151.92 128.00 153.21 128.00 157.93 C 128.00 162.64 129.99 164.17 135.76 163.91 C 137.82 163.81 140.74 164.07 142.25 164.48 C 144.82 165.17 145.00 165.01 145.00 162.11 C 145.00 160.40 145.45 159.00 146.00 159.00 C 146.55 159.00 147.00 160.11 147.00 161.46 C 147.00 162.82 148.15 166.00 149.56 168.52 C 150.97 171.05 151.99 173.52 151.81 174.03 C 151.22 175.76 148.86 173.28 147.42 169.40 C 145.98 165.50 145.98 165.50 146.24 171.75 C 146.50 178.01 146.50 178.01 141.85 179.55 C 138.67 180.61 137.01 181.78 136.59 183.30 C 136.01 185.34 135.87 185.38 134.64 183.78 C 133.40 182.16 132.84 182.23 125.91 184.89 C 113.33 189.71 114.00 189.68 114.00 185.40 C 114.00 183.32 113.26 180.84 112.35 179.83 C 110.80 178.12 110.98 177.65 115.47 171.94 C 119.85 166.36 120.18 165.55 119.60 161.89 C 119.25 159.70 118.53 157.14 118.00 156.21 C 117.48 155.27 116.55 152.54 115.95 150.14 C 114.77 145.39 110.68 140.80 108.42 141.67 C 107.64 141.97 107.00 141.67 107.00 141.00 C 107.00 140.19 107.87 140.00 109.63 140.44 C 111.79 140.99 112.14 140.81 111.62 139.46 C 110.05 135.37 109.72 132.71 110.87 133.42 C 112.43 134.38 118.37 132.36 120.29 130.21 C 121.70 128.64 121.24 127.84 114.91 120.60 C 111.11 116.25 108.00 112.31 108.00 111.85 C 108.00 109.88 110.86 111.27 114.51 115.01 C 118.42 119.01 118.42 119.01 122.99 114.51 C 125.51 112.03 127.89 110.00 128.28 110.00 C 128.68 110.00 129.00 111.56 129.00 113.47 C 129.00 116.93 129.02 116.95 136.75 119.29 C 143.16 121.24 144.56 122.03 144.83 123.90 C 145.04 125.37 145.65 125.96 146.58 125.61 C 147.36 125.31 148.00 125.64 148.00 126.34 C 148.00 128.20 142.70 133.00 140.65 133.00 C 139.69 133.00 137.58 133.68 135.96 134.52 C 133.16 135.97 132.41 137.48 131.78 142.92 C 131.63 144.25 130.87 145.55 130.10 145.81 C 129.04 146.16 128.87 145.69 129.43 143.88 C 131.44 137.34 131.40 136.92 128.87 137.85 C 127.04 138.52 126.43 139.59 126.18 142.51 C 126.00 144.60 126.12 147.35 126.44 148.62 C 127.02 150.93 127.02 150.93 130.40 148.71 C 132.25 147.50 135.18 145.73 136.90 144.79 C 138.62 143.85 139.95 142.72 139.86 142.29 C 139.76 141.86 140.21 140.38 140.85 139.00 C 141.95 136.62 141.98 136.66 141.43 139.75 C 140.69 143.82 141.91 143.93 149.50 140.46 C 155.06 137.91 155.06 137.91 154.78 125.25 C 154.50 112.59 154.50 112.59 148.00 111.30 C 144.43 110.59 140.45 109.46 139.17 108.79 C 137.89 108.12 135.80 107.66 134.52 107.77 C 132.34 107.95 130.25 105.56 131.79 104.64 C 134.29 103.16 158.00 99.90 158.00 101.04 C 158.00 101.42 155.07 102.02 151.49 102.39 C 143.31 103.23 138.95 104.73 141.01 106.01 C 141.81 106.50 145.51 107.45 149.24 108.11 C 152.97 108.78 156.53 109.94 157.15 110.68 C 157.86 111.54 158.32 117.46 158.39 126.70 C 158.50 141.36 158.50 141.36 150.54 144.56 C 140.82 148.47 139.88 150.00 147.17 150.01 C 150.10 150.01 154.19 150.48 156.25 151.05 C 160.00 152.09 160.00 152.09 160.00 170.02 C 160.00 190.89 161.83 188.21 143.25 194.50 C 132.70 198.07 129.44 200.00 133.95 200.00 C 138.62 200.00 190.90 192.33 198.75 190.49 C 204.18 189.22 200.02 188.23 187.46 187.80 C 177.47 187.46 173.53 186.96 172.47 185.90 C 171.38 184.81 170.90 180.56 170.53 168.55 C 170.25 159.80 169.79 151.92 169.51 151.03 C 169.12 149.80 171.01 148.51 177.50 145.59 C 182.17 143.48 186.00 141.43 186.00 141.03 C 186.00 140.64 185.21 139.61 184.25 138.76 C 182.78 137.47 181.49 137.39 176.23 138.25 C 172.77 138.82 169.73 139.07 169.47 138.80 C 168.86 138.19 167.22 124.44 166.81 116.51 C 166.50 110.53 166.50 110.53 180.25 107.60 C 191.30 105.25 194.00 104.34 194.00 102.99 C 194.00 99.60 190.69 98.00 183.66 98.00 C 176.98 98.00 176.98 98.00 177.62 92.25 C 178.26 86.47 179.35 84.02 180.69 85.35 C 181.08 85.75 180.71 87.97 179.86 90.29 C 177.87 95.68 178.39 97.00 182.47 97.00 C 185.01 97.00 185.93 96.48 186.49 94.75 C 186.89 93.51 187.17 92.16 187.11 91.75 C 187.05 91.34 187.50 91.00 188.12 91.00 C 188.78 91.00 189.03 92.05 188.74 93.57 C 188.36 95.58 188.75 96.34 190.53 97.01 C 191.78 97.49 193.10 98.35 193.46 98.94 C 193.82 99.52 194.77 100.00 195.56 100.00 C 198.83 100.00 196.50 96.23 187.90 87.63 C 182.90 82.63 177.92 77.29 176.83 75.77 C 174.04 71.85 173.00 72.32 173.00 77.50 C 173.00 81.71 171.74 83.57 170.80 80.75 C 170.16 78.85 170.57 73.51 171.45 72.07 C 172.43 70.49 161.64 60.00 159.03 60.00 C 158.05 60.00 155.10 62.50 152.49 65.56 C 147.97 70.85 147.81 71.26 149.12 73.74 C 153.05 81.17 152.79 80.99 155.55 77.94 C 157.13 76.20 157.22 75.58 156.14 73.85 C 153.34 69.37 156.41 70.96 162.80 77.30 C 166.51 80.99 170.10 84.00 170.78 84.00 C 172.88 84.00 172.11 85.76 169.75 86.32 C 168.51 86.62 163.68 87.41 159.00 88.07 C 147.81 89.65 145.70 90.47 146.47 92.92 C 146.81 93.97 146.63 95.11 146.07 95.46 C 145.51 95.80 144.78 94.83 144.45 93.29 C 144.11 91.76 143.66 89.94 143.45 89.25 C 143.24 88.56 143.87 88.00 144.86 88.00 C 145.84 88.00 147.72 86.86 149.03 85.46 C 151.42 82.93 151.42 82.93 148.98 78.46 C 147.64 76.01 146.25 74.00 145.89 74.00 C 144.15 74.00 138.25 82.91 137.70 86.37 C 137.03 90.59 136.39 91.72 135.29 90.62 C 134.90 90.23 135.15 88.99 135.86 87.86 C 138.84 83.08 135.70 85.51 127.98 93.96 C 123.35 99.02 118.92 103.00 117.90 103.00 C 116.89 103.00 115.53 104.01 114.87 105.25 C 114.18 106.53 113.49 106.98 113.27 106.30 C 113.05 105.65 113.39 104.15 114.01 102.97 C 114.94 101.25 114.83 100.47 113.45 98.95 C 112.45 97.84 111.97 96.20 112.29 94.98 C 112.74 93.29 112.02 92.50 108.47 90.77 C 106.07 89.60 104.30 88.32 104.55 87.92 C 104.80 87.51 103.57 85.98 101.82 84.50 C 98.64 81.83 98.64 81.83 96.84 84.16 C 95.46 85.96 95.04 86.12 95.02 84.87 C 95.01 83.98 95.70 82.66 96.56 81.95 C 97.92 80.82 96.74 79.27 87.33 69.83 C 81.39 63.87 75.97 59.00 75.29 59.00 C 73.93 59.00 66.37 68.12 64.70 71.77 C 63.86 73.60 64.03 74.33 65.58 75.58 C 67.41 77.07 67.38 77.11 64.86 76.58 C 62.58 76.09 61.69 76.73 58.28 81.26 C 52.83 88.49 51.73 90.80 52.43 93.59 C 52.89 95.41 53.72 96.00 55.82 96.00 C 57.35 96.00 59.03 95.60 59.55 95.12 C 60.75 94.00 71.00 93.04 71.00 94.04 C 71.00 94.45 66.73 95.59 61.51 96.57 C 56.30 97.56 52.28 98.62 52.60 98.93 C 52.91 99.24 58.10 100.24 64.14 101.14 C 70.18 102.05 75.39 103.06 75.72 103.39 C 76.74 104.41 74.01 123.37 72.72 124.23 C 72.05 124.68 68.23 126.03 64.23 127.23 C 60.24 128.43 57.12 129.86 57.30 130.41 C 57.49 130.96 60.98 132.25 65.06 133.28 C 69.14 134.31 72.56 135.23 72.66 135.33 C 73.00 135.67 77.84 172.36 78.49 179.50 C 78.84 183.35 79.33 187.23 79.59 188.12 C 79.93 189.32 77.05 191.52 68.53 196.55 C 57.85 202.85 55.56 204.99 57.92 206.45 C 58.43 206.76 67.27 203.19 77.58 198.50 C 87.89 193.82 96.44 190.11 96.60 190.26 C 96.75 190.42 93.53 192.26 89.44 194.37 C 82.61 197.88 79.82 201.00 83.50 201.00 C 84.33 201.00 85.00 201.45 85.00 202.00 C 85.00 203.41 83.79 203.24 81.30 201.50 C 79.33 200.12 78.40 200.34 69.21 204.50 C 63.74 206.98 58.64 208.98 57.88 208.96 C 57.12 208.94 54.94 207.59 53.04 205.96 Z  M 175.35 202.01 C 172.81 200.98 171.61 199.36 172.84 198.60 C 173.32 198.30 174.75 199.17 176.03 200.53 C 178.56 203.22 178.53 203.29 175.35 202.01 Z  M 101.02 198.75 C 101.06 196.34 105.23 188.49 105.74 189.86 C 106.02 190.61 105.26 193.20 104.05 195.61 C 101.81 200.10 100.98 200.96 101.02 198.75 Z  M 206.00 198.50 C 206.00 197.68 206.73 197.00 207.62 197.00 C 208.74 197.00 209.07 196.39 208.71 195.00 C 208.36 193.67 208.68 193.00 209.66 193.00 C 210.73 193.00 210.94 193.62 210.44 195.25 C 209.16 199.46 206.00 201.76 206.00 198.50 Z  M 64.04 189.03 C 63.29 188.56 62.08 188.42 61.34 188.70 C 60.56 189.00 60.00 188.53 60.00 187.57 C 60.00 186.23 60.37 186.13 62.02 187.01 C 63.13 187.61 64.45 187.84 64.95 187.53 C 65.45 187.22 66.13 187.39 66.45 187.91 C 67.28 189.27 65.65 190.02 64.04 189.03 Z  M 99.56 188.50 C 101.48 187.02 101.48 186.98 99.56 185.50 C 97.90 184.22 97.86 184.00 99.27 184.00 C 100.18 184.00 101.40 184.88 101.98 185.96 C 102.82 187.53 102.64 188.12 101.08 188.96 C 98.21 190.49 97.33 190.23 99.56 188.50 Z  M 83.36 187.77 C 82.94 187.09 82.41 174.76 82.17 160.37 C 81.75 134.20 81.75 134.20 89.92 129.48 C 94.41 126.89 97.91 124.26 97.69 123.64 C 97.43 122.90 94.61 122.56 89.65 122.68 C 82.00 122.87 82.00 122.87 82.00 113.47 C 82.00 102.88 80.80 104.00 95.50 100.89 C 98.80 100.19 102.23 98.81 103.12 97.81 C 105.18 95.51 105.65 95.54 106.29 98.01 C 106.64 99.34 106.17 100.37 104.91 101.05 C 103.86 101.61 103.00 102.95 103.00 104.04 C 103.00 105.12 102.50 106.00 101.89 106.00 C 101.28 106.00 101.06 105.28 101.40 104.41 C 102.49 101.56 101.14 101.22 94.45 102.62 C 84.89 104.62 84.17 105.17 84.43 110.23 C 84.99 121.31 84.42 120.31 89.75 119.56 C 97.03 118.53 97.84 118.11 98.30 115.20 C 98.72 112.50 98.72 112.50 99.51 114.89 C 99.95 116.20 101.36 119.26 102.65 121.69 C 105.09 126.28 105.64 128.52 104.11 127.57 C 101.70 126.08 90.00 133.23 90.00 136.19 C 90.00 137.18 89.33 138.00 88.50 138.00 C 87.67 138.00 87.00 137.30 87.00 136.44 C 87.00 135.58 86.55 135.16 86.00 135.50 C 85.45 135.84 85.00 139.88 85.00 144.49 C 85.00 152.85 85.00 152.85 88.00 152.47 C 91.81 151.99 91.79 152.54 87.92 154.54 C 84.84 156.13 84.84 156.13 85.44 167.82 C 85.77 174.24 86.08 181.19 86.12 183.25 C 86.18 186.01 86.64 187.02 87.85 187.07 C 89.15 187.13 89.07 187.32 87.50 188.00 C 84.71 189.20 84.22 189.17 83.36 187.77 Z  M 57.58 180.75 C 55.35 177.35 50.88 166.87 51.21 165.87 C 51.37 165.38 53.76 167.89 56.50 171.45 C 59.25 175.01 61.95 177.78 62.50 177.61 C 63.08 177.42 63.42 173.95 63.32 169.40 C 63.14 161.50 63.14 161.50 64.69 165.50 C 65.54 167.70 66.19 170.50 66.13 171.72 C 66.08 172.94 66.46 175.07 66.98 176.46 C 68.94 181.61 60.62 185.41 57.58 180.75 Z  M 90.45 179.94 C 88.63 177.94 88.65 177.66 91.03 168.19 C 92.37 162.86 93.33 157.71 93.17 156.75 C 93.01 155.79 93.35 155.00 93.94 155.00 C 94.61 155.00 95.00 158.31 95.00 164.00 C 95.00 168.95 95.38 173.00 95.85 173.00 C 96.33 173.00 99.03 170.55 101.87 167.54 C 107.03 162.09 107.03 162.09 103.31 154.58 C 99.70 147.27 99.54 147.11 97.63 148.78 C 95.89 150.30 95.73 150.31 96.25 148.88 C 96.57 147.99 97.15 145.16 97.54 142.60 C 98.12 138.71 98.47 138.14 99.67 139.14 C 101.90 140.99 102.82 143.19 105.40 152.83 C 107.80 161.78 107.80 161.78 104.81 167.02 C 100.32 174.88 94.97 182.00 93.56 182.00 C 92.87 182.00 91.47 181.08 90.45 179.94 Z  M 50.00 161.54 C 50.00 161.05 50.61 159.95 51.36 159.08 C 52.12 158.21 53.70 154.26 54.88 150.30 C 56.06 146.34 57.47 142.83 58.01 142.49 C 59.27 141.71 59.28 144.13 58.03 147.43 C 57.20 149.62 57.41 150.22 59.53 151.61 C 60.89 152.50 62.00 154.17 62.00 155.33 C 62.00 157.31 61.90 157.33 60.29 155.72 C 58.67 154.10 58.33 154.24 54.29 158.21 C 51.93 160.52 50.00 162.02 50.00 161.54 Z  M 110.08 122.11 C 107.78 118.88 107.16 115.94 109.25 118.21 C 113.17 122.45 114.05 123.85 113.14 124.41 C 112.60 124.75 111.22 123.71 110.08 122.11 Z  M 89.70 114.27 C 88.90 112.86 89.11 106.71 89.93 107.61 C 91.28 109.09 92.07 113.84 91.07 114.46 C 90.56 114.77 89.94 114.69 89.70 114.27 Z  M 48.25 110.29 C 47.01 110.06 46.00 109.39 46.00 108.81 C 46.00 107.56 51.93 108.53 53.42 110.02 C 54.44 111.04 52.61 111.13 48.25 110.29 Z  M 92.25 96.29 C 89.73 95.81 89.16 94.00 91.53 94.00 C 92.37 94.00 93.51 92.99 94.06 91.75 C 94.92 89.79 94.99 89.91 94.57 92.68 C 94.26 94.64 94.54 96.05 95.29 96.35 C 96.71 96.93 95.42 96.90 92.25 96.29 Z  M 84.17 88.96 C 84.26 86.73 84.67 84.70 85.09 84.44 C 86.29 83.70 87.15 87.55 86.43 90.41 C 85.43 94.40 84.00 93.47 84.17 88.96 Z  M 76.07 81.04 C 75.31 80.57 74.03 80.44 73.22 80.74 C 72.05 81.19 71.98 80.93 72.86 79.40 C 75.01 75.63 77.96 72.48 77.98 73.92 C 77.99 74.70 78.68 76.09 79.51 77.01 C 80.86 78.50 80.83 78.84 79.24 80.29 C 78.10 81.32 76.95 81.59 76.07 81.04 Z  M 190.23 63.55 C 187.33 61.95 186.13 60.76 188.03 61.36 C 188.84 61.62 190.74 62.10 192.25 62.44 C 193.76 62.77 195.00 63.48 195.00 64.02 C 195.00 65.30 193.06 65.11 190.23 63.55 Z  M 53.00 59.55 C 53.00 59.21 53.78 57.74 54.73 56.28 C 55.69 54.83 56.52 53.16 56.58 52.57 C 56.64 51.98 56.76 50.94 56.85 50.25 C 56.93 49.56 57.45 49.00 58.00 49.00 C 59.52 49.00 59.20 52.59 57.56 53.95 C 56.77 54.61 55.98 56.09 55.81 57.24 C 55.54 59.08 53.00 61.17 53.00 59.55 Z "/>
</g>
</svg>