<?xml version="1.0" encoding="UTF-8" standalone="no"?>
<!DOCTYPE svg PUBLIC "-//W3C//DTD SVG 1.1//EN" "http://www.w3.org/Graphics/SVG/1.1/DTD/svg11.dtd" >
<svg xmlns="http://www.w3.org/2000/svg" xmlns:xlink="http://www.w3.org/1999/xlink" version="1.1" viewBox="0 0 256 256">
 <g >
 <path fill="currentColor"
d=" M 104.28 241.95 C 110.90 239.77 120.18 235.94 124.91 233.43 C 133.86 228.68 151.96 216.86 160.40 210.26 C 165.30 206.42 165.30 206.42 176.90 218.05 C 189.22 230.39 200.18 239.12 208.72 243.39 C 217.94 248.00 220.55 246.74 224.16 235.91 C 227.04 227.28 232.00 219.93 240.73 211.36 C 251.41 200.88 250.46 197.81 235.41 194.17 C 221.65 190.84 213.75 186.44 202.65 175.93 C 193.06 166.86 193.06 166.86 195.12 161.68 C 202.22 143.86 213.92 102.50 220.07 73.50 C 223.25 58.50 223.25 58.50 228.12 53.31 C 234.88 46.12 234.81 43.35 227.73 36.56 C 221.54 30.63 202.58 19.13 197.68 18.34 C 192.90 17.56 190.69 19.08 184.80 27.18 C 179.64 34.27 179.64 34.27 142.82 33.79 C 122.57 33.53 106.00 33.42 106.00 33.55 C 106.00 33.68 108.18 38.45 110.84 44.15 C 115.67 54.50 115.67 54.50 120.69 54.17 C 125.71 53.83 125.71 53.83 126.39 66.16 C 127.73 90.21 132.78 129.46 136.22 142.50 C 137.38 146.90 140.05 155.12 142.16 160.76 C 144.27 166.41 146.00 171.82 146.00 172.78 C 146.00 175.68 130.26 195.74 119.53 206.52 C 109.32 216.77 93.43 229.71 87.04 232.98 C 82.44 235.34 78.00 239.49 78.00 241.45 C 78.00 242.30 78.95 243.95 80.11 245.11 C 82.92 247.92 88.22 247.22 104.28 241.95 Z  M 28.26 242.74 C 38.73 236.86 52.18 226.67 62.58 216.74 C 72.83 206.95 72.83 206.95 74.92 209.89 C 80.70 218.00 96.43 219.52 103.88 212.68 C 109.76 207.30 111.76 195.46 108.13 187.50 C 106.40 183.69 99.77 176.76 96.97 175.82 C 95.97 175.49 96.40 173.58 98.71 167.94 C 105.60 151.12 108.62 139.02 113.40 109.03 C 116.04 92.49 117.21 87.39 118.76 85.68 C 124.25 79.65 124.22 76.24 118.63 71.33 C 112.74 66.18 98.80 58.00 94.76 57.35 C 91.82 56.88 90.97 57.38 86.17 62.41 C 82.08 66.70 80.16 68.00 77.92 68.00 C 76.31 68.00 75.00 67.88 75.00 67.73 C 75.00 67.59 76.32 59.62 77.94 50.04 C 80.83 32.87 80.93 32.56 84.34 29.55 C 91.30 23.42 90.89 19.49 82.95 16.07 C 76.54 13.31 47.23 8.56 45.50 10.00 C 44.80 10.58 43.93 14.53 43.56 18.78 C 43.20 23.02 41.81 34.15 40.49 43.50 C 39.16 52.85 37.95 62.52 37.79 65.00 C 37.50 69.50 37.50 69.50 24.36 69.78 C 11.23 70.06 11.23 70.06 16.36 79.57 C 21.50 89.09 21.50 89.09 28.00 88.80 C 34.42 88.50 34.50 88.53 34.18 91.00 C 33.31 97.71 26.48 131.05 23.52 143.00 C 18.91 161.60 17.76 167.68 18.45 169.84 C 18.85 171.11 20.77 172.08 24.59 172.93 C 31.25 174.42 46.03 181.68 51.24 186.02 C 54.98 189.13 54.98 189.13 51.37 194.81 C 43.47 207.28 36.03 216.85 26.25 227.13 C 20.61 233.05 16.00 238.72 16.00 239.73 C 16.00 242.34 18.81 246.00 20.81 245.99 C 21.74 245.98 25.09 244.52 28.26 242.74 Z  M 161.41 122.40 C 155.84 110.22 152.31 100.96 149.55 91.32 C 146.90 82.07 142.00 59.05 142.00 55.86 C 142.00 54.11 143.15 54.00 161.50 54.00 C 172.22 54.00 181.00 54.38 181.00 54.84 C 181.00 55.31 179.63 64.42 177.96 75.09 C 175.39 91.48 166.99 128.34 165.49 129.85 C 165.23 130.10 163.40 126.75 161.41 122.40 Z  M 57.25 165.18 C 56.28 164.56 56.65 161.40 58.94 150.94 C 60.55 143.55 63.72 127.83 65.97 116.00 C 71.90 84.91 71.11 87.00 76.86 87.00 C 81.65 87.00 81.65 87.00 80.33 97.25 C 77.19 121.71 73.67 138.26 67.36 158.25 C 64.97 165.80 64.83 166.00 61.71 165.98 C 59.94 165.98 57.94 165.61 57.25 165.18 Z "/>
</g>
</svg>