<?xml version="1.0" encoding="UTF-8" standalone="no"?>
<!DOCTYPE svg PUBLIC "-//W3C//DTD SVG 1.1//EN" "http://www.w3.org/Graphics/SVG/1.1/DTD/svg11.dtd" >
<svg xmlns="http://www.w3.org/2000/svg" xmlns:xlink="http://www.w3.org/1999/xlink" version="1.1" viewBox="0 0 256 256">
 <g >
 <path fill="currentColor"
d=" M 26.37 242.34 C 36.02 238.14 50.69 227.99 60.61 218.66 C 69.70 210.09 69.70 210.09 75.40 218.48 C 82.21 228.51 86.24 231.00 95.61 231.00 C 100.59 231.00 102.49 230.45 106.97 227.75 C 113.84 223.60 116.31 219.08 116.20 210.90 C 116.08 202.50 113.66 198.91 101.81 189.50 C 96.26 185.10 91.26 181.20 90.69 180.84 C 90.02 180.40 90.45 178.13 91.92 174.34 C 97.32 160.38 99.96 151.95 101.40 144.00 C 102.75 136.59 107.00 99.15 107.00 94.73 C 107.00 93.84 108.80 91.04 111.00 88.50 C 117.17 81.38 116.41 79.29 104.81 71.30 C 95.59 64.96 88.13 61.00 85.39 61.00 C 84.14 61.00 81.35 63.06 78.54 66.07 C 75.93 68.85 73.59 70.92 73.33 70.67 C 73.08 70.41 73.78 65.32 74.90 59.35 C 79.51 34.70 79.05 36.19 82.93 33.33 C 89.84 28.24 90.11 26.47 84.47 22.98 C 79.77 20.08 63.69 16.20 53.02 15.39 C 44.60 14.76 44.00 14.84 44.00 16.61 C 43.98 24.34 38.56 70.29 37.44 72.09 C 37.14 72.59 31.06 73.00 23.94 73.00 C 16.82 73.00 11.00 73.27 11.00 73.59 C 11.00 73.92 13.36 78.44 16.25 83.63 C 21.50 93.08 21.50 93.08 26.00 92.37 C 34.84 90.99 35.54 91.15 35.19 94.50 C 34.64 99.87 21.87 156.08 19.91 161.77 C 17.72 168.13 17.43 174.29 19.25 175.77 C 19.94 176.32 24.01 177.73 28.29 178.90 C 35.63 180.89 47.47 186.21 51.16 189.17 C 52.68 190.38 52.47 191.09 48.66 197.23 C 41.12 209.43 35.64 216.36 24.75 227.45 C 18.84 233.47 14.00 239.01 14.00 239.76 C 14.00 242.38 16.08 245.00 18.16 245.00 C 19.31 245.00 23.01 243.80 26.37 242.34 Z  M 147.36 244.03 C 150.97 243.44 154.52 242.08 156.61 240.48 C 159.99 237.90 160.00 237.88 160.00 229.45 C 160.00 221.00 160.00 221.00 174.40 221.00 C 188.81 221.00 188.81 221.00 189.15 230.58 C 189.61 243.23 189.76 243.35 204.50 242.73 C 217.09 242.20 221.17 240.85 225.65 235.74 C 228.77 232.19 228.77 232.19 228.24 197.67 C 227.71 163.14 227.71 163.14 231.85 158.43 C 234.13 155.84 236.00 152.83 236.00 151.74 C 236.00 148.95 230.52 144.27 219.77 137.88 C 208.41 131.14 204.72 129.60 201.70 130.36 C 200.31 130.71 197.16 133.97 193.93 138.41 C 188.50 145.87 188.50 145.87 174.61 145.94 C 160.73 146.00 160.73 146.00 142.44 139.00 C 132.38 135.15 123.55 132.23 122.82 132.51 C 121.74 132.93 121.56 142.84 121.84 186.76 C 122.21 244.64 122.08 243.28 127.35 244.31 C 131.50 245.12 141.56 244.98 147.36 244.03 Z  M 233.56 128.12 C 235.25 127.10 238.17 123.85 240.06 120.90 C 243.09 116.18 243.54 114.61 243.86 107.69 C 244.20 100.34 243.99 99.36 240.67 92.66 C 238.72 88.72 234.81 82.91 231.98 79.75 C 226.09 73.16 210.49 62.43 201.09 58.51 C 194.71 55.85 194.68 55.85 192.09 57.77 C 188.17 60.69 188.42 63.08 193.43 70.24 C 195.93 73.81 199.09 79.16 200.46 82.12 C 202.96 87.50 202.96 87.50 181.73 87.80 C 170.05 87.96 158.56 87.82 156.19 87.48 C 151.87 86.86 151.87 86.86 154.64 83.18 C 159.46 76.77 180.61 52.67 185.14 48.41 C 187.54 46.16 191.66 43.09 194.31 41.58 C 202.60 36.87 202.80 31.54 194.89 26.31 C 190.81 23.61 176.54 18.31 164.28 14.96 C 154.72 12.33 153.53 12.77 152.48 19.31 C 152.11 21.61 149.61 30.25 146.92 38.50 C 139.68 60.71 129.58 77.87 119.48 85.12 C 117.03 86.88 114.79 89.08 114.49 90.02 C 114.19 90.97 115.03 95.28 116.36 99.62 C 117.68 103.95 119.97 111.46 121.43 116.30 C 122.90 121.14 124.98 125.98 126.06 127.06 C 127.92 128.92 128.21 128.94 131.76 127.40 C 133.82 126.51 138.88 124.73 143.00 123.44 C 152.60 120.44 203.08 107.00 204.74 107.00 C 205.57 107.00 206.00 108.60 206.01 111.75 C 206.02 118.48 209.79 126.15 214.12 128.29 C 218.91 130.65 229.57 130.56 233.56 128.12 Z  M 55.22 170.16 C 54.22 169.52 54.92 164.66 58.51 147.42 C 61.02 135.37 64.71 117.49 66.70 107.71 C 69.66 93.11 70.60 89.97 71.91 90.23 C 73.92 90.62 73.69 97.82 70.93 120.50 C 68.60 139.63 66.59 151.06 63.88 160.50 C 62.77 164.35 61.64 168.29 61.37 169.25 C 60.84 171.07 57.46 171.58 55.22 170.16 Z  M 161.00 184.00 C 161.00 165.00 161.00 165.00 175.00 165.00 C 189.00 165.00 189.00 165.00 189.00 184.00 C 189.00 203.00 189.00 203.00 175.00 203.00 C 161.00 203.00 161.00 203.00 161.00 184.00 Z "/>
</g>
</svg>