<?xml version="1.0" encoding="UTF-8" standalone="no"?>
<!DOCTYPE svg PUBLIC "-//W3C//DTD SVG 1.1//EN" "http://www.w3.org/Graphics/SVG/1.1/DTD/svg11.dtd" >
<svg xmlns="http://www.w3.org/2000/svg" xmlns:xlink="http://www.w3.org/1999/xlink" version="1.1" viewBox="0 0 256 256">
 <g >
 <path fill="currentColor"
d=" M 68.06 245.49 C 70.52 244.66 73.13 243.03 73.85 241.88 C 74.89 240.20 75.16 223.69 75.19 158.64 C 75.21 102.96 75.52 79.82 76.17 84.91 C 77.30 93.75 79.15 97.75 82.52 98.60 C 85.73 99.40 91.28 98.35 97.17 95.82 C 104.10 92.85 105.50 93.47 105.14 99.31 C 104.70 106.42 105.59 107.00 116.97 107.00 C 131.75 107.00 137.36 104.47 136.80 98.05 C 136.50 94.50 136.50 94.50 156.30 94.23 C 176.10 93.96 176.10 93.96 175.88 99.61 C 175.57 107.17 176.78 108.01 187.94 107.98 C 194.14 107.96 197.64 107.44 200.63 106.08 C 205.37 103.93 206.17 102.91 206.96 98.03 C 207.53 94.50 207.53 94.50 225.47 94.23 C 244.39 93.94 244.95 93.79 244.98 89.14 C 245.01 85.46 239.10 75.29 233.50 69.37 C 226.57 62.04 224.86 62.16 217.54 70.50 C 213.47 75.13 211.14 77.00 209.42 77.00 C 206.12 77.00 206.38 75.82 210.61 71.59 C 214.00 68.20 214.13 67.83 212.75 65.74 C 211.93 64.51 209.15 62.71 206.57 61.74 C 201.13 59.71 185.50 57.01 179.12 57.00 C 174.74 57.00 174.74 57.00 175.40 61.25 C 178.03 78.20 179.50 77.00 156.07 77.00 C 134.86 77.00 134.86 77.00 138.68 72.52 C 142.07 68.54 142.84 68.11 145.50 68.68 C 150.04 69.65 163.95 69.17 167.76 67.92 C 171.64 66.63 173.00 63.92 173.00 57.43 C 173.00 53.00 173.00 53.00 199.25 52.99 C 227.72 52.97 230.25 52.56 230.80 47.89 C 231.40 42.78 214.17 21.00 209.53 21.00 C 208.68 21.00 204.43 24.39 200.09 28.54 C 192.20 36.08 192.20 36.08 182.85 35.79 C 173.50 35.50 173.50 35.50 173.18 32.70 C 172.94 30.62 173.79 28.87 176.49 25.88 C 183.25 18.40 179.65 15.11 161.17 11.91 C 147.52 9.55 140.43 9.44 139.61 11.58 C 139.27 12.45 139.00 18.30 139.00 24.58 C 139.00 36.00 139.00 36.00 121.94 36.00 C 112.56 36.00 101.72 35.51 97.86 34.91 C 94.00 34.31 90.65 34.02 90.41 34.26 C 90.17 34.50 91.99 39.04 94.45 44.35 C 98.93 54.00 98.93 54.00 118.97 54.00 C 139.00 54.00 139.00 54.00 139.00 58.62 C 139.00 62.92 138.85 63.19 136.75 62.62 C 129.28 60.59 112.49 57.93 108.82 58.19 C 104.50 58.50 104.50 58.50 104.78 67.75 C 105.09 78.09 103.91 79.70 100.57 73.50 C 97.71 68.19 88.87 62.33 78.75 59.06 C 75.00 57.84 75.00 57.84 75.00 45.10 C 75.00 32.90 75.11 32.25 77.42 30.08 C 78.75 28.83 80.41 26.43 81.10 24.75 C 82.29 21.89 82.18 21.56 79.43 19.33 C 74.18 15.09 64.78 12.77 50.63 12.24 C 37.75 11.76 37.75 11.76 38.36 18.63 C 38.70 22.41 39.22 39.00 39.51 55.50 C 40.05 85.50 40.05 85.50 37.88 80.00 C 36.68 76.97 34.20 72.14 32.36 69.25 C 29.59 64.89 28.53 64.00 26.12 64.00 C 22.56 64.00 22.00 65.29 22.00 73.42 C 22.00 82.13 19.97 88.01 14.25 95.84 C 6.27 106.79 4.83 114.27 9.62 119.96 C 13.45 124.52 17.06 126.00 24.20 125.98 C 31.14 125.95 33.20 124.88 37.47 119.06 C 40.00 115.61 40.00 115.61 40.01 163.56 C 40.01 190.82 39.51 218.10 38.84 226.80 C 37.54 243.88 37.62 244.17 44.28 246.74 C 48.34 248.31 61.89 247.60 68.06 245.49 Z  M 224.98 244.75 C 232.54 240.89 235.41 232.37 232.52 222.38 C 230.29 214.69 225.07 209.65 213.14 203.68 C 204.11 199.16 204.11 199.16 208.31 198.51 C 215.36 197.42 218.88 195.97 220.98 193.29 C 222.88 190.88 223.00 189.27 223.02 165.62 C 223.04 140.50 223.04 140.50 226.02 136.10 C 227.66 133.68 229.00 130.91 229.00 129.94 C 229.00 125.76 204.69 108.67 198.74 108.67 C 196.25 108.67 194.59 109.79 190.36 114.33 C 185.09 120.00 185.09 120.00 157.79 119.98 C 130.50 119.97 130.50 119.97 114.60 113.48 C 105.85 109.92 97.58 107.00 96.20 107.00 C 93.71 107.00 93.71 107.00 94.36 117.25 C 96.07 144.31 96.25 162.12 95.00 180.04 C 93.76 197.68 93.79 199.04 95.46 201.57 C 97.23 204.28 97.23 204.28 108.97 203.74 C 117.11 203.37 121.70 202.69 123.95 201.53 C 125.73 200.61 127.41 200.07 127.68 200.34 C 128.61 201.27 117.00 215.50 112.75 218.64 C 110.41 220.37 104.90 223.77 100.50 226.20 C 82.81 235.95 78.61 240.73 84.40 244.53 C 86.77 246.08 87.69 246.05 99.14 244.02 C 118.14 240.65 131.61 234.94 146.50 223.97 C 151.48 220.29 159.10 212.61 162.20 208.15 C 163.83 205.79 163.83 205.79 169.73 208.94 C 178.38 213.55 185.23 220.03 191.47 229.49 C 197.39 238.49 202.76 243.68 208.14 245.63 C 213.56 247.59 220.08 247.25 224.98 244.75 Z  M 176.71 194.00 C 173.53 193.59 170.68 193.02 170.39 192.72 C 170.10 192.43 170.74 189.34 171.81 185.85 C 172.89 182.36 174.32 176.80 175.00 173.50 C 175.89 169.17 177.18 166.46 179.62 163.75 C 181.48 161.68 183.00 159.11 183.00 158.02 C 183.00 153.66 172.04 149.90 153.59 147.92 C 138.65 146.33 139.00 146.05 139.00 159.56 C 139.00 171.05 137.07 181.95 133.80 188.89 C 131.63 193.50 131.63 193.50 130.81 178.00 C 130.35 169.47 130.10 156.88 130.24 150.00 C 130.50 137.50 130.50 137.50 158.75 137.23 C 187.00 136.97 187.00 136.97 186.99 162.23 C 186.98 190.40 186.57 195.07 184.12 194.87 C 183.23 194.80 179.90 194.40 176.71 194.00 Z "/>
</g>
</svg>