<?xml version="1.0" encoding="UTF-8" standalone="no"?>
<!DOCTYPE svg PUBLIC "-//W3C//DTD SVG 1.1//EN" "http://www.w3.org/Graphics/SVG/1.1/DTD/svg11.dtd" >
<svg xmlns="http://www.w3.org/2000/svg" xmlns:xlink="http://www.w3.org/1999/xlink" version="1.1" viewBox="0 0 256 256">
 <g >
 <path fill="currentColor"
d=" M 66.22 245.51 C 75.06 243.68 79.55 241.46 82.67 237.36 C 87.85 230.57 87.91 229.93 87.96 179.81 C 88.00 133.12 88.00 133.12 93.75 128.69 C 101.25 122.93 109.05 118.00 110.70 118.00 C 112.49 118.00 112.58 209.31 110.81 229.37 C 109.58 243.25 109.58 243.25 112.49 245.75 C 115.34 248.20 115.67 248.24 128.50 247.80 C 145.47 247.23 149.25 245.69 150.00 239.08 C 150.48 234.79 150.73 234.52 157.87 230.31 C 161.92 227.92 168.44 223.47 172.36 220.42 C 179.49 214.89 179.49 214.89 182.38 218.49 C 189.27 227.08 210.74 240.61 216.22 239.82 C 218.56 239.48 219.83 237.45 222.52 229.73 C 224.96 222.71 229.95 216.06 235.56 212.34 C 244.96 206.09 244.57 206.53 243.49 203.51 C 242.63 201.12 241.38 200.45 234.00 198.37 C 224.96 195.83 209.11 188.46 208.34 186.43 C 208.08 185.77 209.90 181.18 212.37 176.25 C 214.85 171.32 218.70 162.91 220.93 157.56 C 224.26 149.54 225.85 147.04 229.99 143.32 C 236.74 137.25 236.87 133.97 230.55 128.15 C 221.76 120.05 203.65 109.67 199.22 110.19 C 197.45 110.40 195.28 112.18 192.55 115.68 C 188.50 120.85 188.50 120.85 168.75 120.93 C 149.00 121.00 149.00 121.00 149.00 84.00 C 149.00 47.00 149.00 47.00 166.50 47.00 C 186.62 47.00 184.79 45.48 183.04 60.76 C 181.29 75.90 178.01 79.02 165.86 77.05 C 156.91 75.59 156.06 75.70 155.04 78.39 C 153.39 82.73 154.80 84.69 161.67 87.61 C 170.16 91.22 172.00 93.62 172.00 101.13 C 172.00 109.03 173.91 111.00 181.55 111.00 C 189.02 111.00 200.46 108.34 206.16 105.28 C 211.29 102.53 216.26 96.36 218.53 89.93 C 219.33 87.63 220.96 77.15 222.13 66.63 C 224.26 47.54 224.27 47.49 227.63 43.75 C 229.49 41.67 231.00 38.91 231.00 37.58 C 231.00 33.78 224.13 28.73 211.31 23.09 C 197.82 17.15 192.75 15.50 190.55 16.34 C 189.68 16.68 187.12 19.89 184.87 23.48 C 180.78 30.00 180.78 30.00 164.47 30.00 C 148.16 30.00 148.16 30.00 131.84 22.46 C 122.04 17.93 114.52 15.03 113.01 15.21 C 110.52 15.50 110.50 15.57 110.50 25.50 C 110.50 31.00 110.85 41.74 111.28 49.36 C 112.06 63.22 112.06 63.22 107.39 59.11 C 104.82 56.85 102.14 55.00 101.44 55.00 C 100.74 55.00 97.54 57.24 94.33 59.98 C 88.50 64.96 88.50 64.96 88.22 50.28 C 87.98 37.73 88.17 35.48 89.53 34.72 C 93.19 32.67 97.83 27.80 98.45 25.36 C 99.32 21.87 96.18 18.55 90.11 16.55 C 84.80 14.80 64.84 11.28 55.10 10.37 C 45.97 9.52 45.73 9.90 47.04 23.10 C 47.61 28.82 47.95 40.70 47.79 49.50 C 47.50 65.50 47.50 65.50 30.21 65.16 C 12.93 64.83 12.93 64.83 17.71 74.48 C 22.50 84.14 22.50 84.14 35.00 83.82 C 47.50 83.50 47.50 83.50 47.77 101.25 C 47.92 111.01 47.92 119.03 47.77 119.06 C 47.62 119.09 39.97 120.15 30.77 121.42 C 21.56 122.69 13.31 124.33 12.43 125.06 C 10.23 126.88 10.72 129.41 17.27 150.31 C 23.25 169.40 24.95 173.00 27.98 173.00 C 29.05 173.00 33.56 170.53 38.00 167.50 C 42.44 164.47 46.51 162.00 47.04 162.00 C 48.49 162.00 48.29 202.27 46.83 205.48 C 45.27 208.90 42.72 209.39 29.87 208.71 C 18.42 208.11 15.98 208.83 16.02 212.82 C 16.04 215.65 17.26 216.67 23.90 219.46 C 35.61 224.38 37.27 226.33 38.43 236.50 C 39.37 244.71 39.84 245.99 42.34 247.06 C 44.96 248.19 57.03 247.41 66.22 245.51 Z  M 149.24 178.63 C 149.40 154.16 149.86 139.98 150.48 139.95 C 151.03 139.93 152.67 146.12 154.13 153.70 C 157.27 169.98 160.29 182.03 163.12 189.60 C 165.17 195.07 165.17 195.07 158.52 204.97 C 154.86 210.41 151.22 215.40 150.42 216.06 C 149.16 217.11 149.01 212.26 149.24 178.63 Z  M 178.29 154.76 C 174.81 151.14 168.00 141.30 168.00 139.90 C 168.00 139.40 172.05 139.00 177.00 139.00 C 187.49 139.00 187.15 138.41 183.69 150.26 C 181.42 158.03 181.42 158.03 178.29 154.76 Z  M 88.00 96.97 C 88.00 82.94 88.00 82.94 99.75 83.22 C 111.50 83.50 111.50 83.50 111.78 94.16 C 112.07 104.82 112.07 104.82 107.28 106.36 C 101.49 108.23 90.63 111.00 89.11 111.00 C 88.35 111.00 88.00 106.55 88.00 96.97 Z "/>
</g>
</svg>