<?xml version="1.0" encoding="UTF-8" standalone="no"?>
<!DOCTYPE svg PUBLIC "-//W3C//DTD SVG 1.1//EN" "http://www.w3.org/Graphics/SVG/1.1/DTD/svg11.dtd" >
<svg xmlns="http://www.w3.org/2000/svg" xmlns:xlink="http://www.w3.org/1999/xlink" version="1.1" viewBox="0 0 256 256">
 <g >
 <path fill="currentColor"
d=" M 212.43 249.35 C 222.67 245.74 226.17 236.35 222.35 222.74 C 219.65 213.13 213.22 208.38 199.37 205.75 C 193.25 204.59 190.76 203.00 195.07 203.00 C 197.83 203.00 201.12 201.24 203.23 198.63 C 204.70 196.82 204.96 194.18 204.98 181.10 C 205.00 165.69 205.00 165.69 209.00 162.00 C 211.43 159.75 213.00 157.41 213.00 156.01 C 213.00 153.70 206.56 146.60 200.50 142.23 C 197.50 140.06 197.50 140.06 219.68 140.03 C 241.85 140.00 241.85 140.00 243.85 137.47 C 245.42 135.47 245.66 134.30 244.98 131.93 C 242.93 124.77 228.06 109.00 223.35 109.00 C 219.56 109.00 217.86 110.28 211.48 117.94 C 205.60 125.00 205.60 125.00 174.75 125.00 C 143.90 125.00 143.90 125.00 144.20 119.75 C 144.50 114.50 144.50 114.50 156.33 114.22 C 168.16 113.94 168.16 113.94 167.83 117.20 C 167.55 119.98 167.94 120.68 170.45 121.88 C 172.89 123.06 175.33 123.11 184.73 122.19 C 201.94 120.50 204.72 118.12 203.69 105.88 C 203.12 98.98 203.22 98.51 206.04 94.94 C 210.87 88.85 209.92 86.06 200.94 79.96 C 192.62 74.31 185.19 71.02 180.73 71.01 C 177.57 71.00 176.28 71.72 172.65 75.50 C 168.34 80.00 168.34 80.00 156.48 80.00 C 144.61 80.00 144.61 80.00 147.85 76.66 C 149.63 74.82 151.44 72.00 151.86 70.41 C 152.53 67.89 153.17 67.46 156.57 67.22 C 163.01 66.76 177.14 63.97 180.83 62.43 C 184.19 61.02 184.25 60.91 183.77 56.00 C 183.29 51.00 183.29 51.00 212.57 51.00 C 228.66 51.00 242.58 50.71 243.49 50.36 C 246.23 49.31 247.17 45.35 245.58 41.54 C 244.05 37.88 229.26 20.87 225.41 18.35 C 221.60 15.85 218.31 17.45 209.45 26.11 C 201.28 34.08 201.28 34.08 192.47 33.79 C 187.31 33.62 183.51 33.05 183.30 32.42 C 183.11 31.83 184.31 29.63 185.97 27.53 C 187.64 25.44 189.00 22.90 189.00 21.89 C 189.00 18.53 181.07 15.56 162.70 12.06 C 150.27 9.69 143.05 9.39 142.89 11.25 C 142.83 11.94 142.87 17.34 142.98 23.25 C 143.19 34.00 143.19 34.00 127.59 34.00 C 109.99 34.00 109.64 33.81 114.85 27.14 C 116.42 25.14 117.94 22.82 118.22 22.00 C 118.97 19.79 117.32 17.22 114.07 15.54 C 109.97 13.42 88.93 9.83 79.50 9.65 C 71.50 9.50 71.50 9.50 71.50 21.50 C 71.50 33.50 71.50 33.50 41.38 33.41 C 11.27 33.31 11.27 33.31 15.50 42.22 C 19.73 51.13 19.73 51.13 45.74 51.03 C 71.75 50.94 71.75 50.94 70.85 55.72 C 69.72 61.63 70.39 64.60 73.17 66.09 C 76.44 67.84 94.84 67.48 101.54 65.53 C 104.66 64.62 107.36 64.03 107.55 64.21 C 107.73 64.39 108.19 68.02 108.58 72.27 C 109.28 80.00 109.28 80.00 96.24 80.00 C 83.21 80.00 83.21 80.00 70.86 74.00 C 64.06 70.71 56.97 67.72 55.09 67.36 C 49.34 66.27 48.83 67.98 49.62 85.70 C 50.09 96.34 49.90 103.71 48.98 110.12 C 47.67 119.31 47.67 119.31 50.08 121.26 C 52.27 123.04 53.70 123.18 65.49 122.78 C 79.88 122.29 83.23 121.27 85.07 116.84 C 86.27 113.94 86.27 113.94 97.88 114.22 C 109.50 114.50 109.50 114.50 109.80 119.78 C 110.11 125.05 110.11 125.05 59.11 124.78 C 8.12 124.50 8.12 124.50 11.11 129.50 C 12.75 132.25 14.79 135.88 15.64 137.57 C 17.19 140.63 17.19 140.63 31.00 140.19 C 44.81 139.75 44.81 139.75 45.55 146.62 C 45.96 150.41 45.99 165.26 45.61 179.63 C 45.11 198.86 45.25 206.45 46.11 208.35 C 49.50 215.77 74.44 214.94 83.20 207.11 C 86.36 204.29 86.36 204.29 86.11 184.15 C 85.86 164.00 85.86 164.00 93.87 164.00 C 101.89 164.00 101.89 164.00 102.19 168.25 C 103.30 183.62 97.93 198.09 87.49 207.86 C 76.75 217.91 58.85 227.16 39.04 232.90 C 25.12 236.93 20.92 240.29 23.95 244.98 C 26.40 248.78 67.41 246.19 89.00 240.88 C 105.39 236.84 120.60 228.09 128.10 218.37 C 130.38 215.42 132.34 213.00 132.47 213.00 C 132.59 213.00 135.13 213.84 138.12 214.87 C 149.97 218.95 163.30 227.05 175.64 237.69 C 192.13 251.90 199.02 254.08 212.43 249.35 Z  M 152.15 201.25 C 140.52 200.98 138.89 200.74 139.41 199.37 C 139.74 198.51 140.51 194.61 141.11 190.70 C 141.97 185.19 142.98 182.60 145.61 179.15 C 147.47 176.71 149.00 173.73 149.00 172.53 C 149.00 169.93 145.65 166.66 141.50 165.21 C 139.11 164.37 141.22 164.14 151.81 164.08 C 165.12 164.00 165.12 164.00 164.90 180.43 C 164.71 194.40 164.93 197.24 166.36 199.43 C 167.54 201.23 167.66 201.93 166.77 201.78 C 166.07 201.66 159.49 201.42 152.15 201.25 Z  M 83.95 143.53 C 78.50 140.05 78.50 140.05 125.95 140.03 C 173.39 140.00 173.39 140.00 170.00 143.50 C 166.61 147.00 166.61 147.00 128.01 147.00 C 89.41 147.00 89.41 147.00 83.95 143.53 Z  M 86.00 96.97 C 86.00 93.94 86.00 93.94 97.75 94.22 C 109.50 94.50 109.50 94.50 109.82 97.25 C 110.13 100.00 110.13 100.00 98.07 100.00 C 86.00 100.00 86.00 100.00 86.00 96.97 Z  M 144.18 97.25 C 144.50 94.50 144.50 94.50 156.25 94.22 C 168.00 93.94 168.00 93.94 168.00 96.97 C 168.00 100.00 168.00 100.00 155.93 100.00 C 143.87 100.00 143.87 100.00 144.18 97.25 Z  M 130.00 60.95 C 124.78 59.93 118.87 59.08 116.88 59.05 C 113.63 59.01 113.18 58.67 112.62 55.88 C 112.28 54.16 112.00 52.36 112.00 51.88 C 112.00 51.39 118.93 51.00 127.39 51.00 C 142.78 51.00 142.78 51.00 142.64 56.99 C 142.48 63.90 143.51 63.58 130.00 60.95 Z "/>
</g>
</svg>