<?xml version="1.0" encoding="UTF-8" standalone="no"?>
<!DOCTYPE svg PUBLIC "-//W3C//DTD SVG 1.1//EN" "http://www.w3.org/Graphics/SVG/1.1/DTD/svg11.dtd" >
<svg xmlns="http://www.w3.org/2000/svg" xmlns:xlink="http://www.w3.org/1999/xlink" version="1.1" viewBox="0 0 256 256">
 <g >
 <path fill="currentColor"
d=" M 49.27 242.96 C 59.29 239.65 71.55 235.85 76.50 234.53 C 81.45 233.21 93.38 230.04 103.00 227.48 C 122.23 222.36 125.00 221.12 125.00 217.59 C 125.00 214.46 122.51 213.89 112.25 214.67 C 107.71 215.01 104.00 215.03 104.00 214.70 C 104.00 213.34 113.38 207.78 117.97 206.42 C 120.69 205.61 123.19 204.51 123.52 203.97 C 124.77 201.94 122.67 198.74 118.21 195.92 C 113.89 193.18 113.78 193.00 116.37 193.00 C 120.73 193.00 123.00 191.29 123.00 188.02 C 123.00 182.98 124.44 183.92 128.94 191.89 C 133.31 199.64 133.31 199.64 144.15 199.19 C 155.00 198.74 155.00 198.74 155.00 214.87 C 155.00 231.00 155.00 231.00 152.39 231.00 C 150.29 231.00 149.93 230.66 150.55 229.25 C 153.29 222.92 152.11 215.66 147.44 210.20 C 143.24 205.30 132.58 199.69 128.37 200.17 C 125.82 200.46 125.54 200.83 125.88 203.50 C 126.09 205.15 126.31 211.45 126.38 217.50 C 126.45 223.55 126.91 229.13 127.40 229.90 C 128.17 231.09 126.35 231.22 115.60 230.76 C 108.62 230.45 103.04 230.53 103.20 230.92 C 107.77 241.90 110.66 246.93 112.00 246.26 C 112.83 245.84 141.62 245.39 176.00 245.25 C 210.38 245.12 239.51 244.77 240.75 244.48 C 246.07 243.25 240.63 230.15 231.43 222.07 C 226.12 217.41 223.48 217.91 215.66 225.08 C 211.75 228.66 208.32 231.02 207.31 230.82 C 206.06 230.58 207.43 228.86 212.37 224.50 C 216.10 221.20 220.58 217.82 222.32 216.99 C 224.22 216.10 225.63 214.60 225.81 213.29 C 226.08 211.41 224.79 210.46 216.81 206.67 C 211.69 204.23 205.74 201.62 203.58 200.87 C 199.66 199.50 199.66 199.50 207.48 199.00 C 216.70 198.41 218.02 197.27 215.67 191.97 C 214.83 190.06 213.11 186.97 211.87 185.09 C 209.60 181.68 209.60 181.68 214.26 184.41 C 221.18 188.47 223.55 187.78 228.81 180.24 C 231.20 176.79 235.72 171.96 238.83 169.49 C 249.01 161.43 249.85 159.85 246.00 156.00 C 244.33 154.33 242.67 154.00 235.96 154.00 C 221.58 154.00 204.99 149.12 194.86 141.90 C 192.07 139.92 191.99 139.67 193.52 137.97 C 195.92 135.32 194.97 131.88 191.10 129.28 C 187.70 127.00 187.70 127.00 206.77 127.00 C 217.26 127.00 226.58 126.71 227.49 126.36 C 229.94 125.42 231.22 121.31 229.89 118.68 C 228.28 115.53 214.98 102.11 211.80 100.43 C 207.00 97.89 205.18 98.64 198.22 106.00 C 191.60 113.00 191.60 113.00 185.85 113.00 C 180.09 113.00 180.09 113.00 184.90 108.50 C 187.54 106.02 190.62 104.00 191.74 104.00 C 192.86 104.00 194.84 103.13 196.14 102.06 C 198.05 100.49 198.29 99.78 197.40 98.31 C 196.80 97.32 194.91 96.03 193.20 95.47 C 187.47 93.55 188.61 93.00 198.31 93.00 C 207.66 93.00 207.98 92.92 208.56 90.61 C 208.91 89.22 208.47 86.87 207.51 85.01 C 206.60 83.25 206.00 81.68 206.18 81.51 C 206.35 81.34 209.20 82.05 212.50 83.09 C 220.72 85.67 224.60 85.57 226.33 82.75 C 227.08 81.51 229.01 76.92 230.60 72.55 C 232.95 66.09 234.68 63.34 239.75 57.92 C 246.04 51.21 247.40 47.80 244.80 45.20 C 243.98 44.38 239.02 44.00 229.05 43.99 C 213.63 43.97 182.91 41.78 172.64 39.96 C 162.63 38.19 154.87 36.01 148.66 33.25 C 142.88 30.67 142.84 30.63 145.00 29.00 C 150.65 24.74 142.82 17.98 127.71 14.08 C 123.19 12.91 117.13 11.02 114.24 9.88 C 103.77 5.74 103.62 5.81 88.50 21.67 C 67.39 43.80 46.71 59.45 24.39 70.15 C 10.19 76.96 8.96 78.05 11.08 81.85 C 13.15 85.54 15.72 85.57 30.45 82.05 C 37.47 80.37 43.61 79.00 44.10 79.00 C 44.59 79.00 47.08 82.15 49.64 86.00 C 54.29 93.00 54.29 93.00 62.18 93.00 C 68.32 93.00 70.19 93.34 70.65 94.52 C 70.97 95.36 70.91 99.88 70.52 104.57 C 69.81 113.10 69.81 113.10 45.00 112.80 C 20.18 112.50 20.18 112.50 22.64 116.50 C 23.99 118.70 26.08 122.22 27.30 124.32 C 29.50 128.14 29.50 128.14 38.75 127.48 C 50.12 126.66 50.17 126.78 42.90 139.54 C 36.26 151.22 29.12 160.48 18.56 171.15 C 10.97 178.82 10.00 180.21 10.00 183.43 C 10.00 187.83 11.65 188.70 16.18 186.68 C 18.01 185.86 20.94 184.73 22.71 184.17 C 25.91 183.14 25.91 183.14 27.87 188.32 C 29.44 192.47 30.24 193.45 31.91 193.26 C 34.31 192.99 34.27 192.77 34.40 206.00 C 34.50 215.50 34.50 215.50 26.66 215.40 C 20.70 215.32 18.69 215.64 18.27 216.73 C 17.97 217.52 19.45 224.30 21.56 231.79 C 25.10 244.33 27.39 249.00 30.02 249.00 C 30.57 249.00 39.24 246.28 49.27 242.96 Z  M 187.10 215.25 C 187.00 199.00 187.00 199.00 191.54 199.00 C 195.71 199.00 195.99 199.15 195.04 200.93 C 194.47 202.00 194.00 204.47 194.00 206.43 C 194.00 208.38 192.92 213.25 191.61 217.24 C 190.29 221.23 188.76 226.07 188.21 228.00 C 187.43 230.73 187.18 227.92 187.10 215.25 Z  M 56.03 211.75 C 57.09 209.41 57.97 206.20 57.98 204.62 C 58.00 201.43 54.78 195.56 52.17 194.04 C 50.91 193.30 51.68 193.05 55.25 193.03 C 60.00 193.00 60.00 193.00 60.00 204.50 C 60.00 216.00 60.00 216.00 57.05 216.00 C 54.10 216.00 54.10 216.00 56.03 211.75 Z  M 92.08 199.75 C 92.00 193.23 92.09 193.00 94.45 193.00 C 96.89 193.00 96.89 193.00 95.10 198.25 C 94.11 201.14 93.05 204.18 92.73 205.00 C 92.42 205.82 92.12 203.46 92.08 199.75 Z  M 130.16 183.31 C 129.29 182.96 130.22 181.93 132.73 180.43 C 135.70 178.66 138.85 177.93 145.82 177.41 C 155.00 176.71 155.00 176.71 155.00 180.36 C 155.00 184.00 155.00 184.00 143.25 183.92 C 136.79 183.88 130.89 183.60 130.16 183.31 Z  M 187.00 180.50 C 187.00 177.00 187.00 177.00 193.64 177.00 C 200.28 177.00 200.28 177.00 195.89 180.49 C 193.48 182.41 190.49 183.98 189.25 183.99 C 187.34 184.00 187.00 183.47 187.00 180.50 Z  M 40.56 178.26 C 34.61 177.89 34.61 177.89 38.79 175.40 C 42.01 173.48 44.92 172.77 51.48 172.30 C 60.00 171.70 60.00 171.70 60.00 175.35 C 60.00 179.00 60.00 179.00 53.25 178.81 C 49.54 178.71 43.83 178.46 40.56 178.26 Z  M 92.00 175.50 C 92.00 172.08 92.10 172.00 96.00 172.00 C 98.20 172.00 100.00 172.24 100.00 172.54 C 100.00 174.16 95.36 179.00 93.81 179.00 C 92.41 179.00 92.00 178.21 92.00 175.50 Z  M 114.21 172.97 C 112.58 170.35 113.61 168.33 116.92 167.67 C 120.95 166.86 125.68 162.51 127.05 158.34 C 130.41 148.16 120.68 137.92 104.41 134.52 C 99.66 133.52 97.45 132.48 95.62 130.34 C 93.17 127.50 93.17 127.50 120.74 127.23 C 135.90 127.09 148.57 127.24 148.90 127.56 C 150.87 129.54 131.96 159.10 122.17 169.33 C 117.11 174.61 115.66 175.28 114.21 172.97 Z  M 160.17 162.08 C 160.45 161.29 173.44 150.48 177.69 147.50 C 179.46 146.26 182.00 149.29 182.00 152.63 C 182.00 153.87 182.43 155.15 182.96 155.48 C 183.49 155.80 182.20 157.63 180.09 159.54 C 176.37 162.90 176.01 163.00 168.05 163.00 C 163.46 163.00 159.98 162.59 160.17 162.08 Z  M 73.00 150.05 C 77.12 146.22 81.15 143.07 81.95 143.05 C 83.59 142.99 91.00 147.88 91.00 149.02 C 91.00 149.43 89.20 151.39 87.00 153.38 C 83.04 156.96 82.89 157.00 74.25 157.00 C 65.50 157.00 65.50 157.00 73.00 150.05 Z  M 102.60 109.03 C 104.27 104.18 103.29 100.97 98.69 96.20 C 95.51 92.90 95.51 92.90 102.50 93.20 C 109.50 93.50 109.50 93.50 109.79 103.25 C 110.07 113.00 110.07 113.00 105.65 113.00 C 101.23 113.00 101.23 113.00 102.60 109.03 Z  M 148.21 103.25 C 148.50 93.50 148.50 93.50 154.75 93.20 C 160.37 92.93 162.65 93.86 160.16 95.40 C 159.69 95.69 157.83 99.77 156.01 104.46 C 153.15 111.88 152.40 113.00 150.32 113.00 C 147.94 113.00 147.93 112.95 148.21 103.25 Z  M 50.00 77.58 C 50.00 77.35 53.71 75.93 58.25 74.43 C 62.79 72.93 70.05 70.20 74.40 68.38 C 78.74 66.55 82.68 65.30 83.15 65.59 C 83.63 65.89 84.70 67.45 85.53 69.06 C 87.05 72.00 87.05 72.00 98.53 72.00 C 110.00 72.00 110.00 72.00 110.00 75.00 C 110.00 78.00 110.00 78.00 80.00 78.00 C 63.50 78.00 50.00 77.81 50.00 77.58 Z  M 148.00 75.00 C 148.00 72.00 148.00 72.00 161.53 72.00 C 175.07 72.00 175.07 72.00 171.65 75.00 C 168.34 77.91 167.93 78.00 158.12 78.00 C 148.00 78.00 148.00 78.00 148.00 75.00 Z  M 101.04 55.66 C 101.84 54.93 107.22 51.49 113.00 48.02 C 118.78 44.55 124.85 40.75 126.50 39.58 C 129.50 37.44 129.50 37.44 137.38 45.16 C 145.26 52.87 145.26 52.87 141.88 54.93 C 138.77 56.83 136.93 56.99 119.04 57.00 C 102.73 57.00 99.81 56.78 101.04 55.66 Z "/>
</g>
</svg>