<?xml version="1.0" encoding="UTF-8" standalone="no"?>
<!DOCTYPE svg PUBLIC "-//W3C//DTD SVG 1.1//EN" "http://www.w3.org/Graphics/SVG/1.1/DTD/svg11.dtd" >
<svg xmlns="http://www.w3.org/2000/svg" xmlns:xlink="http://www.w3.org/1999/xlink" version="1.1" viewBox="0 0 256 256">
 <g >
 <path fill="currentColor"
d=" M 200.22 244.72 C 208.35 239.95 208.05 241.58 207.33 207.05 C 206.69 176.50 206.69 176.50 209.85 170.92 C 211.58 167.85 213.00 164.41 213.00 163.27 C 213.00 160.42 208.14 156.41 195.19 148.61 C 182.53 140.99 177.74 138.78 175.61 139.59 C 174.79 139.91 171.60 143.51 168.53 147.59 C 162.95 155.00 162.95 155.00 127.34 155.00 C 91.73 155.00 91.73 155.00 75.61 149.87 C 66.13 146.85 57.45 144.70 54.51 144.62 C 49.52 144.50 49.52 144.50 49.51 192.00 C 49.50 245.58 49.39 244.73 56.37 246.46 C 61.10 247.62 81.17 244.96 86.41 242.47 C 90.42 240.57 92.00 237.01 92.00 229.85 C 92.00 225.00 92.00 225.00 128.35 225.00 C 164.70 225.00 164.70 225.00 165.34 233.24 C 166.37 246.61 168.33 248.01 185.51 247.67 C 194.43 247.49 196.04 247.17 200.22 244.72 Z  M 237.62 131.51 C 240.95 130.75 242.46 126.01 240.68 121.88 C 238.61 117.08 229.11 106.00 221.97 100.06 C 212.95 92.55 210.58 93.06 197.35 105.35 C 190.20 112.00 190.20 112.00 169.58 112.00 C 148.95 112.00 148.95 112.00 149.23 95.75 C 149.50 79.50 149.50 79.50 181.10 79.00 C 216.62 78.44 216.59 78.44 215.71 71.88 C 214.89 65.75 203.84 51.61 194.60 44.85 C 188.05 40.06 186.04 40.71 175.51 51.04 C 166.29 60.09 166.29 60.09 157.89 59.79 C 149.50 59.50 149.50 59.50 149.22 47.23 C 148.95 35.57 149.07 34.74 151.54 30.53 C 153.26 27.59 154.03 24.99 153.82 22.80 C 153.39 18.40 149.49 16.55 136.50 14.60 C 131.00 13.77 124.25 12.40 121.50 11.56 C 118.75 10.71 114.38 10.02 111.79 10.01 C 105.17 10.00 104.65 11.35 106.51 23.66 C 108.04 33.88 108.56 58.61 107.25 59.24 C 106.84 59.44 103.69 59.43 100.25 59.21 C 92.33 58.72 92.25 57.65 99.57 50.38 C 104.79 45.21 105.06 44.71 103.74 42.68 C 102.97 41.48 100.35 39.50 97.92 38.28 C 88.82 33.70 66.40 24.73 62.86 24.25 C 58.32 23.65 57.41 25.04 56.48 34.05 C 55.60 42.54 48.76 72.95 44.99 85.14 C 43.35 90.44 40.21 98.69 38.01 103.47 C 34.01 112.17 34.01 112.17 22.50 111.84 C 16.18 111.65 11.00 111.57 11.00 111.65 C 11.00 111.73 12.30 114.88 13.90 118.65 C 15.49 122.42 17.45 127.08 18.24 129.00 C 19.69 132.50 19.69 132.50 127.59 132.25 C 186.94 132.11 236.46 131.78 237.62 131.51 Z  M 92.00 190.00 C 92.00 175.00 92.00 175.00 128.50 175.00 C 165.00 175.00 165.00 175.00 165.00 190.00 C 165.00 205.00 165.00 205.00 128.50 205.00 C 92.00 205.00 92.00 205.00 92.00 190.00 Z  M 54.00 111.19 C 54.00 110.74 55.38 109.05 57.07 107.44 C 58.76 105.82 65.16 98.06 71.30 90.20 C 80.49 78.41 82.64 76.16 83.56 77.41 C 84.42 78.59 87.27 79.00 96.09 79.22 C 107.50 79.50 107.50 79.50 107.77 95.75 C 108.05 112.00 108.05 112.00 81.02 112.00 C 66.16 112.00 54.00 111.63 54.00 111.19 Z "/>
</g>
</svg>