<?xml version="1.0" encoding="UTF-8" standalone="no"?>
<!DOCTYPE svg PUBLIC "-//W3C//DTD SVG 1.1//EN" "http://www.w3.org/Graphics/SVG/1.1/DTD/svg11.dtd" >
<svg xmlns="http://www.w3.org/2000/svg" xmlns:xlink="http://www.w3.org/1999/xlink" version="1.1" viewBox="0 0 256 256">
 <g >
 <path fill="currentColor"
d=" M 250.00 130.00 C 250.00 9.00 250.00 9.00 186.25 9.00 C 151.19 9.00 97.19 9.30 66.25 9.66 C 10.00 10.33 10.00 10.33 10.00 130.66 C 10.00 251.00 10.00 251.00 130.00 251.00 C 250.00 251.00 250.00 251.00 250.00 130.00 Z  M 64.00 198.61 C 64.00 190.21 64.00 190.21 80.75 189.59 C 89.96 189.25 101.33 188.68 106.00 188.33 C 114.50 187.69 114.50 187.69 110.76 186.09 C 108.70 185.22 106.99 184.05 106.96 183.50 C 106.94 182.95 111.53 153.59 117.18 118.25 C 127.44 54.00 127.44 54.00 130.72 54.00 C 134.00 54.00 134.00 54.00 134.00 120.34 C 134.00 186.68 134.00 186.68 152.16 187.34 C 162.15 187.70 176.10 188.00 183.16 188.00 C 196.00 188.00 196.00 188.00 196.00 197.50 C 196.00 207.00 196.00 207.00 130.00 207.00 C 64.00 207.00 64.00 207.00 64.00 198.61 Z  M 28.66 202.40 C 27.16 199.26 27.03 196.58 27.63 179.91 C 28.01 169.50 28.50 161.17 28.73 161.40 C 29.20 161.87 31.06 205.27 30.63 205.70 C 30.48 205.85 29.59 204.37 28.66 202.40 Z  M 183.00 98.00 C 183.00 54.00 183.00 54.00 189.50 54.00 C 196.00 54.00 196.00 54.00 196.00 98.00 C 196.00 142.00 196.00 142.00 189.50 142.00 C 183.00 142.00 183.00 142.00 183.00 98.00 Z  M 64.14 98.36 C 63.98 49.53 63.10 54.00 72.90 54.00 C 78.63 54.00 78.63 54.00 71.91 95.25 C 68.21 117.94 64.98 137.62 64.73 139.00 C 64.48 140.38 64.21 122.09 64.14 98.36 Z "/>
</g>
</svg>