<?xml version="1.0" encoding="UTF-8" standalone="no"?>
<!DOCTYPE svg PUBLIC "-//W3C//DTD SVG 1.1//EN" "http://www.w3.org/Graphics/SVG/1.1/DTD/svg11.dtd" >
<svg xmlns="http://www.w3.org/2000/svg" xmlns:xlink="http://www.w3.org/1999/xlink" version="1.1" viewBox="0 0 256 256">
 <g >
 <path fill="currentColor"
d=" M 76.95 231.45 C 101.39 221.18 122.09 212.52 122.95 212.20 C 123.80 211.88 122.09 214.40 119.15 217.81 C 113.57 224.26 113.42 224.66 117.20 222.97 C 119.04 222.15 131.09 224.68 177.00 235.50 C 208.62 242.95 235.24 249.28 236.14 249.56 C 237.05 249.84 238.09 251.06 238.46 252.28 C 239.31 255.08 238.85 256.26 247.06 230.20 C 251.84 215.02 253.27 209.35 252.03 210.47 C 250.43 211.92 247.41 211.43 215.89 204.61 C 181.50 197.17 181.50 197.17 193.09 197.08 C 199.46 197.04 214.11 196.71 225.64 196.35 C 246.61 195.69 246.61 195.69 248.64 198.91 C 250.68 202.12 250.68 202.12 251.34 183.31 C 251.70 172.96 251.98 161.35 251.97 157.50 C 251.95 150.65 251.91 150.56 250.33 153.10 C 248.72 155.69 248.72 155.69 230.70 156.35 C 207.64 157.18 160.00 157.20 160.00 156.37 C 160.00 156.02 160.51 154.02 161.14 151.92 C 162.07 148.83 163.05 147.80 166.27 146.51 C 168.46 145.63 170.08 144.79 169.87 144.63 C 169.67 144.47 163.65 144.67 156.50 145.08 C 137.08 146.19 130.43 146.17 131.61 144.99 C 132.17 144.43 156.67 139.19 186.06 133.34 C 215.45 127.49 239.89 122.36 240.36 121.94 C 240.83 121.53 243.64 101.53 246.61 77.51 C 252.00 33.83 252.00 33.83 243.25 24.34 C 234.50 14.84 234.50 14.84 214.25 15.35 C 197.54 15.77 194.00 15.62 194.00 14.49 C 194.00 12.81 195.43 11.84 200.00 10.39 C 202.31 9.66 202.99 9.10 202.00 8.72 C 201.18 8.41 189.03 6.96 175.00 5.50 C 160.97 4.04 147.47 2.60 145.00 2.28 C 140.50 1.72 140.50 1.72 142.75 4.17 C 143.99 5.52 145.00 6.89 145.00 7.20 C 145.00 8.35 122.12 56.28 121.08 57.32 C 120.31 58.09 120.00 51.62 120.00 34.70 C 120.00 21.66 120.36 11.00 120.81 11.00 C 121.25 11.00 122.49 10.34 123.56 9.53 C 125.28 8.23 121.18 8.07 88.00 8.09 C 50.74 8.11 50.53 8.12 55.00 9.93 C 59.50 11.75 59.50 11.75 59.79 20.04 C 59.99 25.49 59.69 28.57 58.94 29.04 C 58.30 29.43 50.83 25.62 42.15 20.47 C 26.95 11.46 26.49 11.09 26.00 7.47 C 25.53 3.94 24.86 5.03 13.74 27.62 C 7.26 40.75 1.98 51.85 1.99 52.27 C 1.99 52.70 3.13 52.31 4.50 51.41 C 6.96 49.79 7.26 49.92 21.99 59.13 C 33.86 66.55 36.98 68.96 36.99 70.69 C 37.02 75.93 39.36 72.89 48.49 55.74 C 53.84 45.71 58.61 37.07 59.10 36.55 C 59.63 35.99 60.00 41.92 59.99 51.05 C 59.98 66.50 59.98 66.50 35.97 79.00 C 22.76 85.88 11.38 91.63 10.69 91.78 C 9.99 91.94 8.45 90.14 7.25 87.78 C 5.07 83.50 5.07 83.50 5.55 87.50 C 5.82 89.70 7.16 102.53 8.52 116.00 C 9.89 129.47 11.29 142.07 11.64 144.00 C 12.26 147.50 12.26 147.50 13.61 144.31 C 14.80 141.50 17.59 139.79 36.93 130.06 C 49.02 123.98 59.15 119.00 59.45 119.00 C 59.75 119.00 60.00 123.27 60.00 128.50 C 60.00 138.00 60.00 138.00 55.25 140.98 C 50.50 143.96 50.50 143.96 80.00 143.88 C 96.22 143.84 113.33 143.50 118.00 143.14 C 126.50 142.48 126.50 142.48 123.25 140.72 C 120.00 138.95 120.00 138.95 120.10 120.72 C 120.20 102.50 120.20 102.50 123.55 121.00 C 127.50 142.79 127.71 145.95 125.25 146.12 C 124.29 146.19 115.62 146.53 106.00 146.88 C 88.52 147.51 88.50 147.51 92.25 149.20 C 96.30 151.03 96.57 151.65 94.91 155.30 C 93.84 157.65 93.50 157.70 76.66 158.34 C 53.20 159.23 6.01 159.17 5.98 158.25 C 5.97 157.84 5.04 156.38 3.93 155.00 C 1.90 152.50 1.90 152.50 2.47 166.50 C 2.78 174.20 3.30 186.08 3.62 192.89 C 4.22 205.28 4.22 205.28 6.21 202.14 C 8.20 199.00 8.20 199.00 25.35 199.04 C 42.50 199.08 42.50 199.08 25.64 205.59 C 9.42 211.85 8.70 212.03 6.31 210.47 C 4.94 209.57 3.63 209.04 3.39 209.28 C 3.15 209.51 8.89 219.64 16.13 231.77 C 28.56 252.57 29.40 253.73 30.91 251.97 C 31.78 250.95 52.50 241.71 76.95 231.45 Z  M 36.54 232.13 C 38.66 230.17 71.26 210.92 71.70 211.37 C 73.24 212.91 68.42 216.18 52.94 224.11 C 43.40 229.01 36.02 232.61 36.54 232.13 Z  M 203.50 172.45 C 216.15 171.75 230.10 170.97 234.50 170.73 C 242.50 170.29 242.50 170.29 237.00 172.08 C 232.26 173.63 227.96 173.87 206.00 173.80 C 180.50 173.73 180.50 173.73 203.50 172.45 Z  M 121.62 95.54 C 120.30 93.53 120.00 90.15 120.00 77.47 C 120.00 63.06 120.13 61.91 121.75 62.42 C 122.71 62.73 130.70 65.39 139.50 68.33 C 155.49 73.67 155.49 73.67 144.00 77.46 C 137.67 79.54 132.07 81.64 131.55 82.12 C 131.00 82.64 132.58 83.00 135.35 83.00 C 139.78 83.00 140.20 83.22 141.48 86.31 C 144.97 94.64 145.12 94.40 135.22 96.30 C 123.82 98.48 123.53 98.47 121.62 95.54 Z  M 182.09 84.75 C 181.62 83.51 180.10 79.72 178.72 76.33 C 176.20 70.16 176.20 70.16 178.60 67.90 C 182.57 64.17 181.37 63.96 173.84 67.07 C 169.90 68.69 166.50 69.83 166.28 69.61 C 166.06 69.39 167.68 65.62 169.88 61.23 C 172.72 55.59 174.56 53.08 176.20 52.64 C 179.82 51.67 195.00 51.90 195.00 52.92 C 195.00 54.31 191.02 82.16 190.46 84.75 C 190.06 86.56 189.28 87.00 186.46 87.00 C 183.74 87.00 182.76 86.49 182.09 84.75 Z  M 101.28 46.00 C 101.19 37.71 101.47 33.27 102.00 34.50 C 102.75 36.25 102.89 36.12 103.08 33.50 C 103.34 29.86 104.78 40.75 104.79 46.50 C 104.80 50.50 104.80 50.50 103.52 46.00 C 102.24 41.50 102.24 41.50 101.83 50.50 C 101.48 58.05 101.39 57.33 101.28 46.00 Z  M 228.73 46.18 C 229.24 36.98 229.13 36.16 227.39 35.72 C 226.25 35.42 226.79 35.19 228.75 35.12 C 230.54 35.05 232.00 35.23 232.00 35.51 C 232.00 36.95 228.82 55.51 228.53 55.81 C 228.34 56.00 228.43 51.66 228.73 46.18 Z "/>
</g>
</svg>