<?xml version="1.0" encoding="UTF-8" standalone="no"?>
<!DOCTYPE svg PUBLIC "-//W3C//DTD SVG 1.1//EN" "http://www.w3.org/Graphics/SVG/1.1/DTD/svg11.dtd" >
<svg xmlns="http://www.w3.org/2000/svg" xmlns:xlink="http://www.w3.org/1999/xlink" version="1.1" viewBox="0 0 256 256">
 <g >
 <path fill="currentColor"
d=" M 174.50 254.01 C 172.43 252.64 171.57 251.33 171.74 249.76 C 171.87 248.52 176.94 208.32 182.99 160.44 C 189.05 112.55 194.00 73.06 194.00 72.69 C 194.00 72.31 196.25 72.00 199.00 72.00 C 203.09 72.00 204.00 72.32 204.02 73.75 C 204.06 78.46 198.89 196.33 198.40 201.75 C 197.84 208.00 197.84 208.00 192.50 208.00 C 187.35 208.00 187.13 207.89 186.48 204.93 C 186.11 203.24 185.67 202.00 185.49 202.18 C 185.32 202.36 184.46 212.62 183.58 225.00 C 182.69 237.38 181.77 249.02 181.53 250.89 C 181.08 254.27 181.08 254.27 183.36 252.14 C 185.57 250.05 186.38 250.00 215.21 250.00 C 244.79 250.00 244.79 250.00 245.44 234.75 C 245.92 223.35 251.99 31.03 252.00 26.75 C 252.00 26.34 240.04 26.00 225.43 26.00 C 200.61 26.00 198.90 25.88 199.34 24.25 C 199.61 23.29 200.37 19.41 201.05 15.64 C 202.23 9.01 202.40 8.72 206.25 7.00 C 210.24 5.21 210.24 5.21 198.87 4.63 C 192.62 4.30 176.93 3.82 164.00 3.54 C 143.67 3.11 140.97 3.23 144.00 4.38 C 147.50 5.72 147.50 5.72 147.22 14.61 C 147.07 19.50 146.75 24.06 146.51 24.75 C 145.87 26.54 133.00 26.49 133.00 24.69 C 133.00 23.97 132.40 22.57 131.67 21.57 C 130.55 20.03 130.07 23.86 128.52 47.13 C 127.52 62.18 126.56 74.67 126.38 74.88 C 126.11 75.22 111.66 67.62 86.00 53.64 C 79.06 49.86 78.62 49.74 80.14 52.07 C 81.73 54.52 81.60 54.91 74.81 67.54 C 70.98 74.67 67.28 81.09 66.58 81.81 C 65.79 82.62 63.58 83.00 60.80 82.81 C 56.29 82.50 56.29 82.50 69.90 53.75 C 83.50 25.01 83.50 25.01 87.50 24.97 C 93.07 24.93 92.22 24.53 62.92 13.64 C 48.94 8.44 36.62 3.84 35.55 3.41 C 33.71 2.68 33.72 2.80 35.76 5.66 C 37.92 8.70 37.92 8.70 19.46 52.07 C 1.00 95.44 1.00 95.44 4.86 115.74 C 6.98 126.91 8.97 136.31 9.29 136.63 C 9.61 136.95 15.53 136.82 22.44 136.35 C 29.35 135.87 35.00 135.78 35.00 136.13 C 35.00 136.76 1.26 196.07 0.43 196.91 C 0.19 197.14 -0.00 152.93 -0.00 98.67 C 0.00 0.00 0.00 0.00 128.00 0.00 C 256.00 0.00 256.00 0.00 256.00 128.00 C 256.00 256.00 256.00 256.00 216.75 255.99 C 179.32 255.99 177.36 255.89 174.50 254.01 Z  M 122.03 225.42 C 122.05 224.36 120.84 202.70 119.34 177.29 C 116.70 132.36 116.68 131.01 118.47 129.04 C 120.74 126.52 120.37 126.50 108.65 128.55 C 103.79 129.41 99.42 129.97 98.95 129.80 C 98.47 129.64 104.42 118.36 112.15 104.75 C 125.44 81.37 126.38 80.00 129.11 80.00 C 132.35 80.00 132.75 79.27 130.45 77.58 C 129.51 76.90 129.15 75.76 129.55 74.72 C 130.54 72.14 140.00 72.22 140.00 74.81 C 140.00 78.27 122.90 226.43 122.45 226.88 C 122.20 227.13 122.01 226.47 122.03 225.42 Z  M 29.35 215.24 C 29.74 214.62 29.06 213.83 27.76 213.42 C 25.87 212.81 26.58 212.33 32.17 210.44 C 43.02 206.77 43.75 206.72 38.50 209.99 C 33.50 213.11 33.50 213.11 37.50 212.58 C 48.26 211.14 62.16 209.82 62.55 210.21 C 62.78 210.45 55.90 211.69 47.24 212.96 C 38.58 214.24 30.86 215.52 30.09 215.81 C 29.23 216.13 28.94 215.91 29.35 215.24 Z  M 155.10 210.50 C 155.00 208.52 160.74 152.89 161.34 150.00 C 161.52 149.11 162.38 149.97 163.45 152.13 C 165.25 155.74 165.23 155.90 160.23 184.13 C 157.46 199.73 155.15 211.60 155.10 210.50 Z  M 67.19 183.90 C 68.60 181.48 71.21 176.89 72.99 173.70 C 74.78 170.52 76.35 168.04 76.49 168.20 C 76.62 168.37 76.97 172.41 77.25 177.20 C 77.84 186.99 78.79 185.84 68.57 187.61 C 64.64 188.29 64.64 188.29 67.19 183.90 Z  M 232.00 90.50 C 231.85 82.25 231.45 68.30 231.11 59.50 C 230.50 43.50 230.50 43.50 226.00 42.97 C 221.50 42.45 221.50 42.45 228.37 41.18 C 232.14 40.47 235.41 40.07 235.62 40.29 C 235.83 40.50 235.17 55.26 234.14 73.09 C 232.31 104.81 232.26 105.18 232.00 90.50 Z  M 41.05 45.77 C 40.99 44.85 45.89 31.77 46.54 31.13 C 46.80 30.86 46.73 32.19 46.37 34.07 C 45.76 37.26 41.15 47.39 41.05 45.77 Z "/>
</g>
</svg>