<?xml version="1.0" encoding="UTF-8" standalone="no"?>
<!DOCTYPE svg PUBLIC "-//W3C//DTD SVG 1.1//EN" "http://www.w3.org/Graphics/SVG/1.1/DTD/svg11.dtd" >
<svg xmlns="http://www.w3.org/2000/svg" xmlns:xlink="http://www.w3.org/1999/xlink" version="1.1" viewBox="0 0 256 256">
 <g >
 <path fill="currentColor"
d=" M 189.53 237.00 C 190.52 228.47 191.61 220.42 191.96 219.10 C 192.36 217.57 193.40 222.00 194.86 231.47 C 197.13 246.23 197.13 246.23 194.82 248.70 C 192.50 251.16 192.50 251.16 195.00 250.61 C 196.38 250.30 208.75 248.66 222.50 246.95 C 245.49 244.10 255.56 242.26 249.25 242.07 C 248.01 242.03 246.99 241.89 246.98 241.75 C 246.98 241.61 244.74 228.24 242.02 212.03 C 237.07 182.55 237.07 182.55 239.15 180.34 C 241.07 178.30 241.08 178.16 239.36 178.56 C 237.43 179.01 186.62 187.00 185.70 187.00 C 185.42 187.00 185.42 186.10 185.71 185.00 C 186.28 182.83 185.05 182.35 183.32 184.08 C 182.54 184.86 177.63 184.72 165.87 183.56 C 143.35 181.34 142.17 181.13 141.78 179.17 C 141.49 177.75 135.93 206.78 135.98 209.44 C 135.99 209.96 136.56 209.62 137.25 208.70 C 138.42 207.13 139.86 207.18 158.96 209.53 C 171.47 211.07 179.72 212.53 180.19 213.28 C 182.20 216.44 183.44 216.41 141.25 214.39 C 133.05 213.99 128.99 213.42 128.98 212.65 C 128.97 212.02 129.74 205.99 130.70 199.25 C 132.14 189.09 132.75 186.90 134.29 186.41 C 135.31 186.08 135.96 185.63 135.73 185.40 C 135.50 185.16 123.65 183.87 109.40 182.52 C 95.16 181.18 81.70 179.86 79.50 179.61 C 75.50 179.15 75.50 179.15 78.14 181.32 C 80.73 183.47 80.76 183.61 79.76 190.50 C 79.21 194.35 78.66 197.61 78.54 197.75 C 78.43 197.89 66.51 194.40 52.06 190.00 C 37.61 185.60 25.54 182.00 25.24 182.00 C 24.94 182.00 25.39 182.79 26.24 183.75 C 27.67 185.36 26.90 187.57 16.99 210.50 C 8.92 229.15 5.59 235.80 3.87 236.70 C 2.14 237.60 1.93 238.02 3.04 238.40 C 5.49 239.25 56.34 252.00 57.25 252.00 C 57.73 252.00 56.95 250.99 55.52 249.75 C 52.94 247.50 52.94 247.50 63.26 223.50 C 72.61 201.78 73.83 199.47 76.13 199.20 C 78.67 198.90 78.67 198.90 75.27 222.56 C 73.41 235.57 72.03 246.36 72.21 246.54 C 72.39 246.72 97.70 247.78 128.46 248.90 C 177.78 250.69 184.49 251.12 185.29 252.56 C 186.94 255.51 187.71 252.70 189.53 237.00 Z  M 71.81 178.01 C 72.53 178.01 72.84 177.55 72.50 177.01 C 72.10 176.35 82.77 176.24 103.79 176.67 C 135.68 177.32 135.68 177.32 136.33 174.91 C 136.68 173.58 136.98 147.86 136.99 117.75 C 137.00 63.00 137.00 63.00 126.83 63.00 C 121.24 63.00 116.90 62.77 117.18 62.49 C 117.63 62.04 142.38 57.02 144.22 57.01 C 144.62 57.00 145.07 63.64 145.22 71.75 C 145.50 86.50 145.50 86.50 197.50 86.76 C 249.50 87.02 249.50 87.02 251.23 89.26 C 252.93 91.46 252.96 91.41 252.98 86.00 C 253.00 82.97 253.28 73.30 253.62 64.50 C 254.23 48.50 254.23 48.50 251.37 51.70 C 248.50 54.90 248.50 54.90 225.00 55.18 C 201.50 55.47 201.50 55.47 201.50 51.53 C 201.50 47.60 201.50 47.60 224.28 43.65 C 247.05 39.70 247.05 39.70 249.65 42.10 C 252.02 44.29 252.20 44.32 251.69 42.50 C 251.39 41.40 249.92 32.85 248.42 23.50 C 246.93 14.15 245.32 6.07 244.85 5.55 C 244.34 4.98 243.99 5.17 243.98 6.05 C 243.98 6.85 243.63 8.04 243.21 8.70 C 242.79 9.35 234.14 11.27 223.97 12.95 C 213.81 14.64 204.49 16.24 203.25 16.53 C 201.15 17.01 201.00 16.71 201.00 11.97 C 201.00 7.23 201.20 6.82 204.17 5.57 C 207.00 4.38 204.76 4.16 183.92 3.54 C 171.04 3.16 155.78 2.99 150.00 3.17 C 140.23 3.48 139.69 3.60 142.25 4.91 C 145.00 6.32 145.00 6.32 145.00 24.86 C 145.00 35.06 144.62 42.97 144.16 42.45 C 143.44 41.63 128.63 17.87 126.54 14.18 C 126.10 13.39 126.54 12.30 127.65 11.46 C 129.82 9.80 130.13 9.77 100.50 14.03 C 90.05 15.53 81.38 16.66 81.24 16.54 C 80.26 15.69 86.37 11.00 88.45 11.00 C 89.85 11.00 91.00 10.64 91.00 10.20 C 91.00 9.76 78.51 7.91 63.25 6.09 C 47.99 4.27 34.15 2.60 32.50 2.37 C 29.66 1.97 29.62 2.02 31.75 3.13 C 32.99 3.78 34.00 4.68 34.00 5.14 C 34.00 5.75 14.72 31.44 5.88 42.60 C 5.33 43.29 7.43 47.05 11.58 52.81 C 17.46 60.97 18.42 61.88 20.82 61.48 C 22.29 61.24 41.45 59.84 63.39 58.36 C 102.49 55.72 103.31 55.71 104.67 57.56 C 105.43 58.61 105.93 60.15 105.77 60.98 C 105.52 62.30 99.74 62.60 62.49 63.28 C 38.84 63.71 17.52 64.31 15.11 64.61 C 10.72 65.17 10.72 65.17 11.45 120.54 C 12.19 175.92 12.19 175.92 8.84 177.45 C 5.78 178.86 8.23 178.95 38.00 178.51 C 55.88 178.24 71.09 178.02 71.81 178.01 Z  M 253.84 146.00 C 253.94 136.85 253.89 136.60 252.32 139.11 C 250.86 141.48 249.93 141.79 242.60 142.36 C 238.15 142.70 226.96 142.99 217.75 142.99 C 201.00 143.00 201.00 143.00 201.00 138.17 C 201.00 133.34 201.00 133.34 223.75 129.33 C 246.50 125.33 246.50 125.33 249.36 127.91 C 252.22 130.50 252.22 130.50 251.63 127.50 C 251.30 125.85 249.87 117.30 248.45 108.50 C 245.41 89.67 245.05 88.40 243.90 92.53 C 243.06 95.55 243.06 95.55 223.28 98.79 C 212.40 100.57 202.91 102.02 202.19 102.01 C 201.31 102.00 200.98 100.92 201.19 98.75 C 201.46 95.88 202.03 95.32 206.00 94.00 C 210.39 92.54 210.00 92.48 190.50 91.89 C 179.50 91.55 163.53 91.23 155.00 91.18 C 140.73 91.09 139.72 91.20 142.25 92.57 C 145.00 94.06 145.00 94.06 145.00 134.20 C 145.00 174.33 145.00 174.33 197.53 173.67 C 250.05 173.02 250.05 173.02 251.28 175.73 C 252.36 178.12 252.57 177.09 253.12 166.97 C 253.46 160.66 253.78 151.22 253.84 146.00 Z  M 221.60 216.54 C 219.55 206.81 219.03 202.41 219.69 200.44 C 220.42 198.24 221.04 200.75 222.89 213.43 C 224.16 222.07 225.02 229.32 224.81 229.53 C 224.59 229.74 223.15 223.89 221.60 216.54 Z  M 35.37 220.00 C 37.74 211.32 44.74 199.05 45.74 201.83 C 45.88 202.20 44.39 206.55 42.45 211.50 C 40.51 216.45 39.16 219.26 39.46 217.75 C 39.76 216.24 40.23 213.76 40.51 212.25 C 40.82 210.59 39.82 211.88 37.99 215.50 C 36.32 218.80 35.14 220.82 35.37 220.00 Z  M 182.52 213.25 C 183.13 209.71 185.00 191.62 185.00 189.32 C 185.00 187.71 185.16 187.73 186.86 189.53 C 188.09 190.83 189.32 195.00 190.47 201.75 C 192.21 212.01 192.21 212.01 189.85 213.97 C 188.56 215.05 186.27 215.95 184.78 215.97 C 182.35 216.00 182.10 215.70 182.52 213.25 Z  M 65.75 173.92 C 64.23 173.04 64.00 171.25 64.00 160.41 C 64.00 147.92 64.00 147.92 73.25 148.21 C 82.50 148.50 82.50 148.50 82.82 151.25 C 83.13 153.95 83.04 154.00 77.67 154.00 C 73.42 154.00 72.05 153.61 71.47 152.25 C 70.18 149.22 69.21 154.54 69.10 165.25 C 69.04 170.61 68.66 174.99 68.25 174.97 C 67.84 174.95 66.71 174.48 65.75 173.92 Z  M 26.15 161.40 C 25.90 154.39 27.25 141.79 28.10 143.16 C 28.68 144.09 29.17 143.77 29.89 141.98 C 30.65 140.05 30.86 141.28 30.80 147.50 C 30.76 151.90 30.53 154.49 30.29 153.25 C 29.48 149.01 28.28 151.00 27.28 158.25 C 26.51 163.87 26.26 164.58 26.15 161.40 Z  M 63.00 125.00 C 63.00 122.00 63.00 122.00 71.50 121.85 C 76.17 121.77 80.56 121.66 81.25 121.60 C 81.94 121.55 82.64 122.68 82.80 124.12 C 83.18 127.39 81.38 127.97 70.75 127.99 C 63.00 128.00 63.00 128.00 63.00 125.00 Z  M 63.00 96.50 C 63.00 94.00 63.00 94.00 73.00 94.00 C 83.00 94.00 83.00 94.00 83.00 96.50 C 83.00 99.00 83.00 99.00 73.00 99.00 C 63.00 99.00 63.00 99.00 63.00 96.50 Z  M 116.37 86.25 C 115.50 76.50 115.50 76.50 108.50 75.93 C 101.50 75.35 101.50 75.35 109.75 75.18 C 118.00 75.00 118.00 75.00 118.00 85.50 C 118.00 91.28 117.83 96.00 117.62 96.00 C 117.41 96.00 116.85 91.61 116.37 86.25 Z  M 164.13 43.19 C 164.05 32.82 164.37 26.11 164.92 26.45 C 165.43 26.77 166.08 26.23 166.35 25.26 C 167.02 22.94 165.95 45.68 165.00 54.00 C 164.44 58.96 164.23 56.40 164.13 43.19 Z  M 53.00 46.69 C 55.53 45.72 58.87 45.53 65.00 46.02 C 72.19 46.59 72.64 46.71 67.90 46.85 C 64.81 46.93 59.41 47.23 55.90 47.52 C 49.70 48.02 49.61 47.99 53.00 46.69 Z  M 121.82 37.20 C 113.32 23.00 112.57 21.62 113.79 22.37 C 114.50 22.81 115.02 22.57 115.05 21.81 C 115.08 21.09 117.81 25.84 121.11 32.36 C 124.42 38.88 126.97 44.37 126.77 44.56 C 126.58 44.75 124.35 41.44 121.82 37.20 Z  M 68.05 32.31 C 69.87 29.95 77.17 20.75 78.08 19.65 C 78.67 18.95 87.00 29.88 87.00 31.36 C 87.00 31.62 83.51 32.12 79.25 32.46 C 74.99 32.81 70.41 33.33 69.08 33.61 C 66.86 34.08 66.77 33.97 68.05 32.31 Z  M 167.50 159.00 C 166.25 158.46 170.20 158.16 178.00 158.20 C 187.75 158.25 189.40 158.44 185.50 159.05 C 178.83 160.08 169.97 160.06 167.50 159.00 Z "/>
</g>
</svg>