<?xml version="1.0" encoding="UTF-8" standalone="no"?>
<!DOCTYPE svg PUBLIC "-//W3C//DTD SVG 1.1//EN" "http://www.w3.org/Graphics/SVG/1.1/DTD/svg11.dtd" >
<svg xmlns="http://www.w3.org/2000/svg" xmlns:xlink="http://www.w3.org/1999/xlink" version="1.1" viewBox="0 0 256 256">
 <g >
 <path fill="currentColor"
d=" M 41.65 250.02 C 56.42 249.47 70.41 249.01 72.75 249.01 C 77.00 249.00 77.00 249.00 77.00 240.00 C 77.00 235.05 77.11 231.00 77.25 231.01 C 77.39 231.02 89.86 233.44 104.96 236.39 C 127.88 240.87 132.05 241.46 130.15 239.92 C 128.40 238.50 127.95 237.25 128.19 234.50 C 128.50 230.92 128.50 230.92 143.38 242.96 C 151.57 249.58 158.48 255.00 158.75 255.00 C 159.02 255.00 159.00 254.10 158.71 253.01 C 158.28 251.37 160.74 249.26 172.73 240.98 C 187.26 230.93 187.26 230.93 213.25 240.72 C 230.86 247.35 239.44 251.06 239.88 252.24 C 240.30 253.36 242.93 246.79 247.22 233.88 C 251.99 219.52 253.39 214.24 252.11 215.40 C 250.45 216.91 249.35 216.68 236.66 212.26 C 229.15 209.64 223.01 207.25 223.00 206.93 C 223.00 206.62 229.73 201.78 237.95 196.16 C 246.18 190.55 253.10 185.63 253.34 185.23 C 253.72 184.60 234.35 147.91 233.00 146.69 C 232.72 146.45 215.18 147.30 194.00 148.58 C 143.33 151.66 147.60 151.74 148.39 147.78 C 148.75 146.01 149.37 144.26 149.77 143.89 C 150.17 143.52 172.89 143.02 200.25 142.77 C 250.00 142.31 250.00 142.31 251.98 145.41 C 253.97 148.50 253.97 148.50 253.94 126.00 C 253.92 105.48 253.79 103.74 252.43 106.25 C 250.94 109.00 250.94 109.00 204.47 109.00 C 172.25 109.00 158.00 108.67 158.00 107.93 C 158.00 107.35 158.47 106.00 159.04 104.93 C 160.03 103.07 161.58 103.00 202.95 103.00 C 245.83 103.00 245.83 103.00 247.88 105.75 C 249.94 108.50 249.94 108.50 249.90 88.50 C 249.87 69.39 249.80 68.65 248.25 71.75 C 246.80 74.67 246.19 75.00 242.32 75.00 C 239.34 75.00 238.00 74.58 238.00 73.64 C 238.00 71.96 247.84 47.97 249.23 46.25 C 249.79 45.56 251.20 44.96 252.37 44.92 C 253.54 44.88 249.57 43.16 243.55 41.10 C 231.65 37.04 231.43 36.00 242.47 36.00 C 247.41 36.00 248.92 36.36 249.42 37.64 C 250.80 41.25 250.98 37.73 250.02 25.90 C 248.19 3.29 248.07 2.62 246.17 4.34 C 244.80 5.57 232.70 6.39 179.00 8.90 C 142.97 10.58 110.12 12.21 105.99 12.53 C 98.49 13.09 98.49 13.09 96.65 9.98 C 95.63 8.26 94.57 7.09 94.29 7.37 C 93.75 7.92 95.89 42.55 96.61 44.89 C 96.95 45.99 97.44 45.91 99.03 44.47 C 100.52 43.12 103.10 42.58 109.26 42.31 C 117.50 41.95 117.50 41.95 105.82 46.74 C 99.39 49.38 93.80 51.86 93.40 52.27 C 93.00 52.67 94.28 53.00 96.25 53.00 C 99.70 53.00 100.07 53.37 106.41 63.33 C 110.04 69.01 113.00 73.96 113.00 74.33 C 113.00 74.70 110.22 75.00 106.81 75.00 C 101.84 75.00 100.18 74.57 98.31 72.83 C 96.00 70.65 96.00 70.65 96.00 89.50 C 96.00 108.35 96.00 108.35 98.31 106.17 C 99.93 104.66 101.89 104.00 104.81 104.00 C 109.01 104.00 109.52 104.48 108.39 107.42 C 107.51 109.71 95.38 109.66 92.83 107.35 C 91.06 105.75 91.00 106.37 91.00 125.51 C 91.00 136.41 90.77 145.10 90.48 144.81 C 90.02 144.36 84.06 112.08 83.96 109.50 C 83.94 108.95 83.31 109.90 82.57 111.60 C 81.27 114.58 78.34 116.67 77.13 115.47 C 76.81 115.15 76.38 108.84 76.16 101.44 C 75.77 88.00 75.77 88.00 81.26 88.00 C 85.83 88.00 87.02 88.38 88.33 90.25 C 89.77 92.32 89.90 90.28 89.91 65.00 C 89.93 37.97 89.90 37.54 88.06 39.75 C 86.56 41.54 85.15 42.00 81.09 42.00 C 76.00 42.00 76.00 42.00 76.00 25.30 C 76.00 8.61 76.00 8.61 78.69 5.80 C 81.37 3.00 81.37 3.00 65.35 3.00 C 56.53 3.00 41.76 3.30 32.52 3.66 C 15.73 4.32 15.73 4.32 18.36 6.25 C 21.00 8.17 21.00 8.17 21.00 25.58 C 21.00 43.00 21.00 43.00 15.03 43.00 C 9.40 43.00 8.96 42.83 7.50 40.00 C 6.65 38.35 5.74 37.00 5.47 37.00 C 5.21 37.00 5.02 49.71 5.04 65.25 C 5.08 90.87 5.22 93.24 6.57 90.75 C 7.96 88.19 8.50 88.00 14.55 88.00 C 21.04 88.00 21.04 88.00 20.77 108.21 C 20.50 128.43 20.50 128.43 13.82 130.34 C 7.13 132.25 7.13 132.25 4.41 130.11 C 2.92 128.93 1.59 128.09 1.46 128.24 C 0.96 128.79 10.54 183.88 11.25 184.59 C 11.66 185.00 12.01 184.25 12.02 182.92 C 12.04 179.40 13.05 178.37 17.25 177.60 C 21.00 176.91 21.00 176.91 21.00 190.95 C 21.00 198.68 20.61 205.00 20.12 205.00 C 19.64 205.00 17.87 205.28 16.18 205.61 C 13.48 206.15 12.85 205.82 11.00 202.86 C 8.88 199.50 8.88 199.50 9.46 215.00 C 9.78 223.53 10.30 236.11 10.63 242.97 C 11.21 255.14 11.27 255.39 13.01 253.23 C 14.74 251.10 15.77 250.99 41.65 250.02 Z  M 60.70 220.00 C 60.28 213.12 59.72 204.12 59.46 200.00 C 58.97 192.50 58.97 192.50 60.95 196.77 C 62.78 200.70 62.88 202.28 62.19 216.77 C 61.45 232.50 61.45 232.50 60.70 220.00 Z  M 77.00 196.61 C 77.00 164.21 77.00 164.21 83.75 162.67 C 89.94 161.25 90.60 161.26 91.75 162.75 C 93.31 164.79 93.32 163.85 91.86 154.98 C 90.87 148.97 90.93 147.75 92.38 145.54 C 94.29 142.63 99.00 141.96 99.00 144.59 C 99.00 148.35 80.66 227.57 79.63 228.23 C 79.01 228.64 78.16 228.98 77.75 228.98 C 77.34 228.99 77.00 214.42 77.00 196.61 Z  M 131.31 220.75 C 131.60 219.51 133.55 210.96 135.64 201.75 C 139.44 185.01 139.44 185.00 142.22 185.00 C 143.75 185.00 145.00 185.37 145.00 185.82 C 145.00 186.27 142.97 193.05 140.50 200.89 C 138.03 208.73 136.00 215.35 136.00 215.61 C 136.00 215.86 136.87 215.61 137.93 215.04 C 138.99 214.47 140.57 214.28 141.44 214.61 C 142.61 215.07 141.63 216.22 137.59 219.11 C 131.29 223.62 130.59 223.80 131.31 220.75 Z  M 102.15 215.50 C 102.14 214.40 103.15 207.65 104.39 200.50 C 106.66 187.50 106.66 187.50 108.02 191.84 C 109.31 195.97 109.20 196.71 105.77 206.84 C 103.79 212.70 102.16 216.60 102.15 215.50 Z  M 170.00 187.70 C 161.50 184.53 161.50 184.53 167.00 183.88 C 170.03 183.52 176.71 182.98 181.85 182.67 C 191.19 182.12 191.19 182.12 185.35 186.53 C 182.13 188.96 179.28 190.93 179.00 190.91 C 178.72 190.89 174.68 189.45 170.00 187.70 Z  M 208.50 131.09 C 204.50 130.46 204.50 130.46 209.39 129.73 C 216.07 128.73 220.41 128.81 221.55 129.95 C 222.08 130.48 226.11 131.06 230.50 131.25 C 235.36 131.46 233.39 131.62 225.50 131.66 C 218.35 131.69 210.70 131.43 208.50 131.09 Z  M 135.32 73.88 C 137.21 72.78 156.83 66.00 158.12 66.00 C 159.20 66.00 161.24 72.80 160.51 73.98 C 160.13 74.59 154.61 74.99 146.69 74.97 C 136.90 74.95 133.97 74.67 135.32 73.88 Z  M 169.00 74.55 C 169.00 73.99 198.09 64.75 198.48 65.18 C 198.64 65.36 198.38 66.51 197.92 67.75 C 197.22 69.58 196.27 70.01 192.78 70.07 C 188.23 70.14 188.27 70.18 196.00 73.39 C 199.28 74.75 198.56 74.84 184.25 74.92 C 175.86 74.96 169.00 74.80 169.00 74.55 Z  M 150.75 59.75 C 148.33 56.86 144.01 51.58 141.16 48.00 C 135.97 41.50 135.97 41.50 140.55 40.72 C 143.07 40.28 149.71 40.06 155.32 40.22 C 165.50 40.50 165.50 40.50 154.06 43.44 C 147.76 45.05 143.04 46.47 143.56 46.60 C 144.08 46.72 145.67 47.08 147.10 47.39 C 149.20 47.85 150.41 49.52 153.35 55.94 C 155.36 60.33 157.00 64.16 157.00 64.46 C 157.00 66.16 154.62 64.37 150.75 59.75 Z  M 199.37 60.86 C 196.40 57.06 186.92 39.74 187.50 39.17 C 187.86 38.81 193.30 38.35 199.59 38.15 C 212.20 37.75 211.94 35.73 202.11 58.36 C 200.79 61.39 200.20 61.93 199.37 60.86 Z  M 174.16 52.73 C 170.82 47.50 170.82 47.50 173.78 50.56 C 176.25 53.11 178.94 58.05 177.82 57.98 C 177.64 57.97 176.00 55.61 174.16 52.73 Z  M 131.50 20.03 C 140.30 19.00 150.20 17.92 153.50 17.61 C 159.50 17.06 159.50 17.06 155.42 18.91 C 152.13 20.41 147.91 20.88 133.42 21.33 C 115.50 21.88 115.50 21.88 131.50 20.03 Z "/>
</g>
</svg>