<?xml version="1.0" encoding="UTF-8" standalone="no"?>
<!DOCTYPE svg PUBLIC "-//W3C//DTD SVG 1.1//EN" "http://www.w3.org/Graphics/SVG/1.1/DTD/svg11.dtd" >
<svg xmlns="http://www.w3.org/2000/svg" xmlns:xlink="http://www.w3.org/1999/xlink" version="1.1" viewBox="0 0 256 256">
 <g >
 <path fill="currentColor"
d=" M 246.50 229.15 C 245.77 206.74 245.77 206.74 243.79 209.87 C 241.80 213.00 241.80 213.00 220.90 213.00 C 200.00 213.00 200.00 213.00 200.00 207.50 C 200.00 202.00 200.00 202.00 223.90 202.00 C 247.80 202.00 247.80 202.00 249.88 205.25 C 251.97 208.50 251.97 208.50 251.98 201.50 C 251.99 197.65 251.70 186.74 251.34 177.24 C 250.68 159.99 250.68 159.99 248.86 162.99 C 247.73 164.84 246.20 166.00 244.87 166.00 C 242.83 166.00 242.75 165.68 243.36 159.85 C 243.71 156.47 244.00 152.20 244.00 150.35 C 244.00 147.32 244.28 147.00 246.90 147.00 C 249.08 147.00 250.32 147.81 251.88 150.25 C 253.97 153.50 253.97 153.50 253.92 128.50 C 253.87 104.78 253.79 103.67 252.25 106.75 C 250.90 109.48 250.08 110.00 247.17 110.00 C 243.71 110.00 243.71 110.00 244.35 103.25 C 244.70 99.54 244.99 95.26 244.99 93.75 C 245.00 89.81 248.19 90.11 250.25 94.25 C 251.84 97.44 251.87 97.29 251.82 86.50 C 251.79 80.45 251.48 69.42 251.13 62.00 C 250.50 48.50 250.50 48.50 248.72 51.75 C 246.95 55.00 246.95 55.00 223.47 55.00 C 200.00 55.00 200.00 55.00 200.00 49.59 C 200.00 44.18 200.00 44.18 203.75 43.63 C 205.81 43.33 215.29 42.79 224.80 42.42 C 240.95 41.81 242.21 41.89 243.59 43.63 C 244.92 45.30 245.02 44.22 244.52 33.50 C 243.30 7.18 242.87 2.80 241.65 4.37 C 240.69 5.61 231.62 6.10 185.50 7.41 C 155.25 8.26 125.03 9.23 118.34 9.55 C 106.44 10.13 106.17 10.10 105.48 7.94 C 103.80 2.66 103.03 9.63 103.04 30.00 C 103.04 51.25 103.07 51.47 104.93 49.05 C 106.80 46.62 106.93 46.60 127.90 46.18 C 149.00 45.75 149.00 45.75 149.00 50.38 C 149.00 55.00 149.00 55.00 124.98 55.00 C 100.96 55.00 100.96 55.00 99.75 52.35 C 98.54 49.70 98.54 49.70 97.87 52.10 C 97.50 53.42 97.18 63.95 97.17 75.50 C 97.14 91.30 97.40 95.94 98.22 94.25 C 99.03 92.58 100.17 92.00 102.65 92.00 C 106.00 92.00 106.00 92.00 106.00 101.00 C 106.00 110.00 106.00 110.00 101.57 110.00 C 97.86 110.00 97.01 109.63 96.37 107.75 C 95.65 105.61 95.58 105.65 94.92 108.50 C 94.55 110.15 94.18 120.67 94.12 131.88 C 94.00 152.27 94.00 152.27 96.11 149.58 C 97.83 147.40 98.91 146.95 101.86 147.20 C 105.50 147.50 105.50 147.50 105.79 156.75 C 106.08 166.00 106.08 166.00 103.06 166.00 C 100.60 166.00 99.91 165.49 99.33 163.25 C 98.62 160.50 98.62 160.50 97.91 163.00 C 97.52 164.38 97.18 174.95 97.17 186.50 C 97.14 202.30 97.40 206.94 98.22 205.25 C 99.30 203.01 99.39 203.00 123.71 203.00 C 148.11 203.00 148.11 203.00 147.80 207.75 C 147.50 212.50 147.50 212.50 126.36 212.77 C 105.23 213.04 105.23 213.04 104.50 210.27 C 102.93 204.32 102.14 211.69 102.10 232.50 C 102.07 249.91 102.29 253.21 103.36 251.79 C 104.55 250.22 110.24 250.03 173.18 249.38 C 241.70 248.68 241.70 248.68 244.10 251.93 C 246.08 254.62 246.56 254.87 246.87 253.38 C 247.07 252.38 246.90 241.48 246.50 229.15 Z  M 82.00 253.12 C 82.00 252.64 81.33 251.68 80.50 251.00 C 79.20 249.92 79.00 242.94 79.00 199.38 C 79.00 171.67 79.34 149.01 79.75 149.03 C 81.42 149.10 83.91 151.79 85.33 155.05 C 86.16 156.95 86.87 157.82 86.92 157.00 C 86.96 156.18 88.13 144.03 89.50 130.00 C 90.87 115.97 92.00 103.18 92.00 101.56 C 92.00 98.88 91.88 98.78 90.68 100.42 C 89.43 102.14 89.14 102.12 84.18 99.98 C 79.00 97.75 79.00 97.75 79.00 87.38 C 79.00 77.00 79.00 77.00 85.38 77.00 C 90.72 77.00 91.98 77.34 93.13 79.07 C 94.30 80.84 94.33 77.67 93.32 57.82 C 92.67 45.00 91.99 32.48 91.80 30.00 C 91.47 25.50 91.47 25.50 90.07 28.25 C 88.84 30.68 88.11 31.00 83.84 31.00 C 79.00 31.00 79.00 31.00 79.02 18.75 C 79.03 6.50 79.03 6.50 82.27 4.17 C 85.50 1.85 85.50 1.85 64.50 2.44 C 52.95 2.76 38.79 3.30 33.03 3.63 C 22.56 4.22 22.56 4.22 26.28 7.21 C 30.00 10.19 30.00 10.19 30.00 20.60 C 30.00 31.00 30.00 31.00 18.00 31.00 C 6.01 31.00 6.01 31.00 4.65 27.75 C 3.44 24.86 3.21 27.68 2.52 53.29 C 2.10 69.13 2.00 82.33 2.30 82.64 C 2.60 82.94 3.57 81.79 4.45 80.09 C 6.05 77.00 6.05 77.00 18.08 77.00 C 30.10 77.00 30.10 77.00 29.42 83.25 C 29.04 86.69 28.58 89.68 28.39 89.90 C 28.19 90.12 23.28 89.73 17.46 89.04 C 11.64 88.35 6.65 88.02 6.36 88.31 C 6.07 88.59 6.55 89.91 7.42 91.23 C 8.85 93.42 8.77 99.63 6.48 162.48 C 4.94 204.91 3.58 231.81 2.93 232.58 C 1.68 234.09 2.60 234.41 13.00 236.00 C 17.12 236.63 21.32 237.38 22.31 237.66 C 23.85 238.10 23.95 237.89 23.00 236.34 C 22.14 234.95 22.61 217.51 24.89 165.63 C 26.55 127.75 28.16 96.51 28.46 96.21 C 28.76 95.91 29.00 130.25 29.00 172.52 C 29.00 249.37 29.00 249.37 26.83 251.69 C 24.65 254.00 24.65 254.00 53.33 254.00 C 69.11 254.00 82.00 253.61 82.00 253.12 Z  M 213.00 240.08 C 221.50 238.24 221.50 238.24 214.00 237.82 C 207.60 237.46 208.18 237.37 217.92 237.20 C 224.20 237.09 228.99 237.34 228.58 237.75 C 228.16 238.16 229.55 239.03 231.66 239.67 C 235.45 240.83 235.42 240.85 228.50 240.93 C 224.65 240.97 217.68 241.22 213.00 241.47 C 204.50 241.92 204.50 241.92 213.00 240.08 Z  M 116.50 185.00 C 109.50 184.35 109.50 184.35 115.10 184.18 C 118.18 184.08 124.25 183.75 128.60 183.44 C 135.98 182.92 136.34 182.98 134.00 184.41 C 131.40 185.99 128.32 186.09 116.50 185.00 Z  M 140.21 156.75 C 140.50 147.50 140.50 147.50 144.25 147.19 C 148.00 146.88 148.00 146.88 148.00 156.44 C 148.00 166.00 148.00 166.00 143.96 166.00 C 139.92 166.00 139.92 166.00 140.21 156.75 Z  M 200.00 156.50 C 200.00 147.00 200.00 147.00 204.00 147.00 C 208.00 147.00 208.00 147.00 208.00 156.50 C 208.00 166.00 208.00 166.00 204.00 166.00 C 200.00 166.00 200.00 166.00 200.00 156.50 Z  M 163.02 125.50 C 162.80 122.53 162.79 122.53 162.00 125.00 C 161.24 127.39 161.19 127.36 161.10 124.31 C 161.00 120.97 162.41 119.08 163.41 121.24 C 163.72 121.93 163.73 121.50 163.43 120.27 C 163.13 119.04 163.34 117.24 163.91 116.27 C 164.78 114.78 164.93 114.97 164.91 117.50 C 164.90 119.15 164.51 122.30 164.06 124.50 C 163.29 128.20 163.21 128.28 163.02 125.50 Z  M 141.00 101.06 C 141.00 92.00 141.00 92.00 145.04 92.00 C 149.08 92.00 149.08 92.00 148.79 100.75 C 148.50 109.50 148.50 109.50 144.75 109.81 C 141.00 110.12 141.00 110.12 141.00 101.06 Z  M 200.00 101.00 C 200.00 92.00 200.00 92.00 204.50 92.00 C 209.00 92.00 209.00 92.00 209.00 96.36 C 209.00 98.76 208.71 102.81 208.36 105.36 C 207.73 109.97 207.70 110.00 203.86 110.00 C 200.00 110.00 200.00 110.00 200.00 101.00 Z  M 131.00 22.05 C 119.50 21.50 119.50 21.50 131.50 20.74 C 162.73 18.75 160.99 18.74 156.50 20.92 C 152.29 22.95 151.02 23.01 131.00 22.05 Z  M 44.74 238.00 C 44.34 234.97 44.07 229.57 44.13 226.00 C 44.24 219.50 44.24 219.50 45.48 226.00 C 46.72 232.50 46.72 232.50 47.15 220.50 C 47.57 208.53 47.57 208.54 47.77 224.50 C 47.89 234.31 47.62 239.95 47.07 239.08 C 46.39 238.01 46.08 238.39 45.82 240.58 C 45.56 242.71 45.27 242.02 44.74 238.00 Z  M 19.00 62.72 C 15.50 61.62 15.50 61.62 21.00 60.91 C 24.02 60.52 28.07 60.19 30.00 60.17 C 33.50 60.15 33.50 60.15 30.32 61.33 C 28.57 61.97 26.81 62.84 26.41 63.25 C 25.44 64.23 23.31 64.07 19.00 62.72 Z "/>
</g>
</svg>