<?xml version="1.0" encoding="UTF-8" standalone="no"?>
<!DOCTYPE svg PUBLIC "-//W3C//DTD SVG 1.1//EN" "http://www.w3.org/Graphics/SVG/1.1/DTD/svg11.dtd" >
<svg xmlns="http://www.w3.org/2000/svg" xmlns:xlink="http://www.w3.org/1999/xlink" version="1.1" viewBox="0 0 256 256">
 <g >
 <path fill="currentColor"
d=" M 119.01 252.37 C 157.00 253.06 157.00 253.06 157.00 248.03 C 157.00 245.26 157.43 243.00 157.95 243.00 C 160.35 243.00 229.10 248.05 233.81 248.57 C 238.03 249.04 239.30 249.60 239.96 251.33 C 241.13 254.36 241.52 252.98 243.96 237.00 C 245.10 229.57 246.28 222.39 246.59 221.03 C 247.13 218.63 247.09 218.61 245.20 220.32 C 243.40 221.95 241.92 222.00 224.88 220.99 C 196.51 219.32 196.57 218.99 225.83 215.93 C 240.31 214.42 252.37 212.96 252.64 212.69 C 252.91 212.42 251.54 211.67 249.58 211.03 C 247.63 210.38 245.75 209.40 245.41 208.85 C 245.06 208.30 241.93 197.19 238.45 184.18 C 232.11 160.52 232.11 160.52 234.15 158.34 C 236.19 156.16 236.19 156.16 232.35 156.59 C 226.94 157.20 189.72 160.01 187.96 159.95 C 185.02 159.85 205.61 152.10 208.95 152.05 C 215.72 151.95 210.20 150.27 187.50 145.51 C 174.85 142.85 163.60 140.33 162.50 139.90 C 161.40 139.48 179.89 139.10 203.59 139.06 C 246.68 139.00 246.68 139.00 247.34 113.34 C 247.70 99.22 248.00 82.97 248.00 77.22 C 248.00 66.77 248.00 66.77 192.75 67.43 C 162.36 67.79 135.81 68.33 133.75 68.63 C 130.00 69.18 130.00 69.18 130.00 104.09 C 130.00 139.00 130.00 139.00 135.20 139.00 C 138.11 139.00 139.98 139.37 139.45 139.84 C 138.93 140.31 130.04 144.15 119.70 148.39 C 102.03 155.62 100.50 156.07 94.42 155.79 C 87.96 155.50 87.96 155.50 95.03 151.25 C 98.93 148.91 104.13 146.49 106.59 145.87 C 109.06 145.25 110.95 144.61 110.79 144.46 C 110.63 144.30 99.03 143.19 85.00 142.00 C 70.97 140.81 59.31 139.65 59.08 139.42 C 58.85 139.19 73.58 139.00 91.81 139.00 C 124.95 139.00 124.95 139.00 125.23 102.88 C 125.50 66.76 125.50 66.76 70.50 67.41 C 40.25 67.77 13.32 68.33 10.65 68.64 C 5.26 69.28 5.50 65.03 7.62 122.75 C 8.21 139.00 8.21 139.00 24.02 139.00 C 39.59 139.00 43.00 139.37 43.00 141.07 C 43.00 141.55 36.03 147.62 27.50 154.58 C 18.98 161.54 12.00 167.30 12.00 167.39 C 12.00 167.47 13.51 171.14 15.35 175.52 C 18.70 183.50 18.70 183.50 25.57 184.00 C 32.44 184.50 32.44 184.50 19.97 189.39 C 13.11 192.08 7.18 194.56 6.78 194.91 C 6.12 195.49 12.04 215.37 13.22 216.56 C 13.50 216.84 26.47 216.38 42.03 215.53 C 57.60 214.69 70.56 214.23 70.83 214.50 C 71.11 214.78 71.08 215.25 70.78 215.56 C 70.47 215.86 55.68 218.54 37.90 221.52 C 7.94 226.53 5.44 226.80 3.78 225.30 C 2.79 224.41 1.83 223.86 1.64 224.09 C 1.45 224.32 2.69 231.04 4.40 239.03 C 7.50 253.57 7.50 253.57 10.00 252.77 C 11.96 252.14 75.71 241.00 77.34 241.00 C 77.55 241.00 77.51 244.26 77.23 248.25 C 76.72 255.50 76.72 255.50 78.87 253.59 C 80.93 251.75 82.49 251.71 119.01 252.37 Z  M 242.38 49.25 C 242.71 41.69 243.27 28.41 243.61 19.75 C 244.24 4.00 244.24 4.00 186.37 4.00 C 154.54 4.00 102.46 4.30 70.64 4.67 C 12.79 5.33 12.79 5.33 13.41 21.42 C 13.75 30.26 14.30 43.24 14.63 50.25 C 15.22 63.00 15.22 63.00 128.50 63.00 C 241.78 63.00 241.78 63.00 242.38 49.25 Z  M 75.74 223.60 C 74.21 218.70 73.09 214.59 73.24 214.46 C 73.38 214.33 78.11 213.90 83.75 213.50 C 94.00 212.78 94.00 212.78 94.00 220.53 C 94.00 228.27 94.00 228.27 89.36 227.64 C 86.81 227.29 84.14 227.00 83.43 227.00 C 82.72 227.00 81.83 226.05 81.47 224.90 C 80.53 221.95 79.19 223.76 78.82 228.50 C 78.52 232.30 78.36 232.05 75.74 223.60 Z  M 175.50 216.89 C 155.85 214.81 157.00 215.08 157.00 212.43 C 157.00 210.19 157.38 210.00 161.84 210.00 C 164.51 210.00 171.47 209.71 177.31 209.35 C 187.94 208.70 187.94 208.70 188.99 211.48 C 189.57 213.01 189.78 215.10 189.46 216.13 C 188.80 218.20 188.16 218.23 175.50 216.89 Z  M 103.50 203.13 C 108.06 202.55 107.62 202.43 98.50 201.75 C 93.00 201.34 82.46 201.01 75.08 201.01 C 51.57 201.00 61.46 200.27 92.50 199.73 C 109.00 199.44 121.15 199.44 119.50 199.73 C 116.50 200.25 116.50 200.25 120.50 201.52 C 124.50 202.79 124.50 202.79 120.40 202.90 C 118.15 202.95 112.30 203.17 107.40 203.39 C 102.09 203.62 100.52 203.52 103.50 203.13 Z  M 223.78 187.74 C 221.24 179.36 219.26 172.41 219.38 172.28 C 220.06 171.60 230.00 195.46 229.98 197.75 C 229.94 205.00 228.12 202.05 223.78 187.74 Z  M 150.90 173.46 C 163.22 168.80 173.82 165.00 174.45 165.00 C 175.54 165.00 180.36 177.97 179.56 178.77 C 179.19 179.15 135.89 181.96 131.00 181.93 C 129.62 181.92 138.58 178.11 150.90 173.46 Z  M 45.61 118.42 C 45.27 117.55 45.00 115.72 45.00 114.35 C 45.00 112.16 45.37 111.91 48.25 112.19 C 51.22 112.47 51.53 112.83 51.81 116.25 C 52.10 119.81 51.97 120.00 49.17 120.00 C 47.40 120.00 45.97 119.37 45.61 118.42 Z  M 167.81 116.47 C 167.32 112.26 167.51 112.00 171.17 112.00 C 173.81 112.00 174.00 112.27 174.00 116.00 C 174.00 119.74 173.82 120.00 171.11 120.00 C 168.55 120.00 168.17 119.60 167.81 116.47 Z  M 79.00 115.50 C 79.00 112.50 79.33 112.00 81.33 112.00 C 84.42 112.00 84.74 112.44 84.21 115.99 C 83.87 118.37 83.27 119.00 81.39 119.00 C 79.33 119.00 79.00 118.52 79.00 115.50 Z  M 201.19 115.75 C 201.45 113.04 201.96 112.45 204.25 112.18 C 206.80 111.89 207.00 112.13 207.00 115.43 C 207.00 118.75 206.78 119.00 203.94 119.00 C 201.08 119.00 200.89 118.78 201.19 115.75 Z  M 111.94 92.50 C 111.50 76.50 111.50 76.50 106.50 75.91 C 101.50 75.31 101.50 75.31 107.50 75.16 C 113.50 75.00 113.50 75.00 113.23 87.75 C 112.79 108.20 112.41 109.63 111.94 92.50 Z  M 45.00 92.50 C 45.00 89.17 45.17 89.00 48.50 89.00 C 51.83 89.00 52.00 89.17 52.00 92.50 C 52.00 95.83 51.83 96.00 48.50 96.00 C 45.17 96.00 45.00 95.83 45.00 92.50 Z  M 79.00 92.00 C 79.00 88.15 79.12 88.00 82.28 88.00 C 85.50 88.00 85.55 88.07 85.17 92.00 C 84.82 95.66 84.54 96.00 81.89 96.00 C 79.18 96.00 79.00 95.75 79.00 92.00 Z  M 167.00 92.50 C 167.00 89.17 167.17 89.00 170.50 89.00 C 173.83 89.00 174.00 89.17 174.00 92.50 C 174.00 95.83 173.83 96.00 170.50 96.00 C 167.17 96.00 167.00 95.83 167.00 92.50 Z  M 201.00 92.00 C 201.00 88.10 201.08 88.00 204.50 88.00 C 207.92 88.00 208.00 88.10 208.00 92.00 C 208.00 95.90 207.92 96.00 204.50 96.00 C 201.08 96.00 201.00 95.90 201.00 92.00 Z  M 231.67 84.33 C 231.30 83.97 231.00 82.64 231.00 81.39 C 231.00 79.39 230.42 79.06 226.25 78.74 C 221.55 78.36 221.56 78.36 227.25 78.18 C 233.00 78.00 233.00 78.00 233.00 81.50 C 233.00 85.10 232.82 85.48 231.67 84.33 Z  M 32.17 45.50 C 32.15 39.06 32.45 36.21 33.00 37.50 C 33.61 38.91 33.93 37.44 34.09 32.50 C 34.32 25.50 34.32 25.50 35.05 34.50 C 35.46 39.45 35.82 45.98 35.86 49.00 C 35.93 53.65 35.76 54.19 34.77 52.50 C 33.64 50.56 33.58 50.58 32.90 53.00 C 32.51 54.40 32.19 51.10 32.17 45.50 Z  M 68.69 45.36 C 68.31 44.98 68.00 44.07 68.00 43.33 C 68.00 42.28 71.43 42.00 84.57 42.00 C 99.82 42.00 101.12 42.14 100.81 43.75 C 100.51 45.31 98.81 45.53 84.93 45.77 C 76.38 45.93 69.07 45.74 68.69 45.36 Z  M 156.67 44.33 C 156.30 43.97 156.00 43.07 156.00 42.33 C 156.00 41.28 159.33 41.00 172.00 41.00 C 187.33 41.00 188.00 41.08 188.00 43.00 C 188.00 44.91 187.33 45.00 172.67 45.00 C 164.23 45.00 157.03 44.70 156.67 44.33 Z  M 67.00 26.42 C 67.00 24.00 67.00 24.00 83.50 24.00 C 97.65 24.00 100.00 24.22 100.00 25.53 C 100.00 27.67 99.35 27.78 82.25 28.34 C 67.00 28.85 67.00 28.85 67.00 26.42 Z  M 224.00 25.00 C 223.95 17.01 223.46 16.31 217.16 15.23 C 211.50 14.26 211.50 14.26 218.75 14.13 C 226.00 14.00 226.00 14.00 225.98 20.25 C 225.98 23.69 225.53 27.18 225.00 28.00 C 224.29 29.09 224.02 28.28 224.00 25.00 Z  M 156.67 27.33 C 156.30 26.97 156.00 25.84 156.00 24.83 C 156.00 23.13 157.17 23.00 172.50 23.00 C 189.00 23.00 189.00 23.00 189.00 25.50 C 189.00 28.00 189.00 28.00 173.17 28.00 C 164.46 28.00 157.03 27.70 156.67 27.33 Z "/>
</g>
</svg>