<?xml version="1.0" encoding="UTF-8" standalone="no"?>
<!DOCTYPE svg PUBLIC "-//W3C//DTD SVG 1.1//EN" "http://www.w3.org/Graphics/SVG/1.1/DTD/svg11.dtd" >
<svg xmlns="http://www.w3.org/2000/svg" xmlns:xlink="http://www.w3.org/1999/xlink" version="1.1" viewBox="0 0 256 256">
 <g >
 <path fill="currentColor"
d=" M 206.25 253.25 C 203.07 251.67 203.00 251.49 203.00 244.98 C 203.00 238.31 203.00 238.31 218.75 237.66 C 227.41 237.30 238.20 237.01 242.72 237.00 C 250.63 237.00 250.99 237.10 252.52 239.75 C 254.00 242.31 254.07 241.23 253.55 224.09 C 253.25 213.96 252.97 202.94 252.92 199.59 C 252.85 193.50 252.85 193.50 251.59 197.00 C 250.32 200.50 250.32 200.50 226.66 200.77 C 203.00 201.04 203.00 201.04 203.00 197.52 C 203.00 194.00 203.00 194.00 222.84 194.00 C 242.68 194.00 242.68 194.00 243.34 169.25 C 243.70 155.64 244.00 138.92 244.00 132.10 C 244.00 119.69 244.00 119.69 231.25 120.34 C 224.24 120.70 192.96 120.99 161.75 121.00 C 105.00 121.00 105.00 121.00 105.01 152.75 C 105.01 170.21 105.30 186.86 105.65 189.75 C 106.28 195.00 106.28 195.00 127.64 195.00 C 149.00 195.00 149.00 195.00 149.00 197.84 C 149.00 200.69 149.00 200.69 133.25 201.34 C 124.59 201.70 113.56 201.99 108.75 202.00 C 101.09 202.00 100.00 201.78 99.98 200.25 C 99.97 198.75 99.83 198.72 99.00 200.00 C 98.45 200.84 98.04 210.26 98.05 221.50 C 98.06 238.34 98.27 241.22 99.39 239.75 C 100.59 238.17 103.04 238.00 124.86 238.00 C 149.00 238.00 149.00 238.00 149.00 244.97 C 149.00 251.54 148.84 252.02 146.25 253.43 C 143.77 254.78 146.69 254.92 176.50 254.90 C 207.58 254.87 209.31 254.78 206.25 253.25 Z  M 57.40 245.98 C 89.27 240.32 91.41 240.06 93.15 241.63 C 94.78 243.11 95.00 243.13 95.00 241.74 C 95.00 239.50 87.00 190.66 86.56 190.22 C 86.35 190.02 85.89 191.22 85.53 192.88 C 85.14 194.65 84.06 196.14 82.93 196.45 C 81.87 196.75 80.10 197.26 79.00 197.57 C 77.18 198.08 77.00 197.66 77.00 192.71 C 77.00 187.28 77.00 187.28 82.74 186.60 C 85.90 186.23 88.61 186.33 88.77 186.82 C 88.94 187.31 89.76 188.57 90.61 189.61 C 92.02 191.35 92.09 191.06 91.58 186.00 C 91.27 182.97 91.00 170.38 90.97 158.00 C 90.94 138.51 90.75 135.83 89.57 137.95 C 87.92 140.93 85.80 141.84 80.25 141.93 C 76.00 142.00 76.00 142.00 76.00 134.09 C 76.00 126.19 76.00 126.19 81.75 125.78 C 86.40 125.46 87.79 125.73 89.01 127.20 C 90.66 129.18 90.68 123.89 89.15 91.00 C 88.52 77.22 88.41 76.65 86.98 79.50 C 85.48 82.50 85.48 82.50 65.74 83.92 C 54.89 84.70 45.74 85.08 45.42 84.75 C 45.10 84.43 45.86 80.96 47.12 77.05 C 49.78 68.81 48.09 69.55 67.55 68.07 C 87.75 66.53 87.68 66.53 89.41 69.75 C 90.75 72.25 90.91 70.31 91.19 48.50 C 91.36 35.30 91.28 22.95 91.00 21.06 C 90.50 17.63 90.50 17.63 88.59 21.19 C 86.68 24.74 86.68 24.74 77.09 25.26 C 71.82 25.54 67.40 25.68 67.27 25.57 C 67.14 25.46 67.58 23.92 68.25 22.14 C 69.07 19.99 70.30 18.75 71.98 18.41 C 80.80 16.62 80.64 16.56 50.40 9.84 C 33.95 6.19 20.31 3.39 20.07 3.62 C 19.83 3.84 21.06 5.50 22.81 7.30 C 25.98 10.58 25.98 10.58 15.56 37.88 C 9.83 52.90 5.00 65.31 4.82 65.45 C 4.64 65.59 3.66 66.16 2.63 66.71 C 0.52 67.84 1.11 68.21 23.50 80.09 C 35.50 86.46 35.50 86.46 26.50 87.64 C 11.93 89.56 10.30 89.43 8.55 86.25 C 7.18 83.75 7.09 85.25 7.65 103.00 C 7.98 113.72 8.55 126.10 8.90 130.50 C 9.56 138.50 9.56 138.50 11.30 135.25 C 12.67 132.70 13.69 132.00 16.03 132.00 C 19.00 132.00 19.00 132.00 19.00 138.98 C 19.00 145.53 18.85 146.00 16.58 146.57 C 12.56 147.58 10.74 146.67 9.41 143.00 C 8.23 139.71 8.15 140.03 8.08 148.50 C 8.04 153.45 8.30 166.64 8.66 177.82 C 9.24 195.71 9.48 197.77 10.61 195.07 C 11.71 192.46 12.44 192.00 15.45 192.00 C 19.00 192.00 19.00 192.00 19.00 222.52 C 19.00 253.04 19.00 253.04 21.25 252.52 C 22.49 252.23 38.75 249.29 57.40 245.98 Z  M 238.25 114.34 C 248.00 113.70 248.00 113.70 248.00 83.85 C 248.00 54.00 248.00 54.00 234.00 54.00 C 220.00 54.00 220.00 54.00 220.00 48.50 C 220.00 43.00 220.00 43.00 235.01 43.00 C 250.03 43.00 250.03 43.00 252.08 46.25 C 254.12 49.50 254.12 49.50 253.58 38.00 C 251.80 0.69 252.02 2.46 249.64 5.26 C 247.50 7.79 247.50 7.79 174.72 8.38 C 101.94 8.96 101.94 8.96 100.77 6.39 C 99.71 4.07 99.52 4.00 98.87 5.66 C 98.47 6.67 98.14 17.17 98.15 29.00 C 98.16 44.56 98.44 49.74 99.16 47.75 C 100.17 45.00 100.17 45.00 114.08 45.00 C 128.00 45.00 128.00 45.00 128.00 49.50 C 128.00 54.00 128.00 54.00 114.50 54.00 C 101.00 54.00 101.00 54.00 101.00 79.86 C 101.00 94.08 101.29 107.81 101.64 110.36 C 102.27 115.00 102.27 115.00 165.39 114.99 C 200.10 114.99 232.89 114.70 238.25 114.34 Z  M 108.00 228.00 C 106.17 226.82 118.99 226.78 126.50 227.95 C 130.66 228.60 129.64 228.75 120.50 228.85 C 114.45 228.92 108.83 228.53 108.00 228.00 Z  M 155.19 170.75 C 155.50 167.50 155.50 167.50 175.25 167.23 C 195.00 166.96 195.00 166.96 195.00 170.48 C 195.00 174.00 195.00 174.00 174.94 174.00 C 154.87 174.00 154.87 174.00 155.19 170.75 Z  M 154.19 147.75 C 154.50 144.50 154.50 144.50 175.25 144.23 C 196.00 143.96 196.00 143.96 196.00 146.83 C 196.00 149.69 195.96 149.71 188.35 150.35 C 184.14 150.71 174.66 151.00 167.29 151.00 C 153.87 151.00 153.87 151.00 154.19 147.75 Z  M 226.76 140.00 C 226.36 138.62 226.02 136.26 226.01 134.75 C 226.00 132.00 226.00 132.00 217.75 131.83 C 209.50 131.66 209.50 131.66 218.50 131.05 C 223.45 130.72 227.64 130.52 227.80 130.61 C 227.97 130.70 227.97 133.41 227.80 136.64 C 227.57 141.06 227.32 141.89 226.76 140.00 Z  M 31.51 215.80 C 31.95 206.21 32.81 198.14 33.62 196.05 C 34.92 192.70 34.97 192.67 34.54 195.50 C 34.29 197.15 33.55 206.04 32.89 215.25 C 32.24 224.46 31.49 232.00 31.24 232.00 C 30.98 232.00 31.10 224.71 31.51 215.80 Z  M 22.32 51.00 C 23.60 46.05 35.51 16.02 35.82 16.96 C 36.06 17.67 36.72 17.42 37.58 16.30 C 38.33 15.31 35.59 22.15 31.48 31.50 C 23.69 49.23 21.68 53.52 22.32 51.00 Z  M 133.00 83.50 C 133.00 77.00 133.00 77.00 137.00 77.00 C 141.00 77.00 141.00 77.00 141.00 83.50 C 141.00 90.00 141.00 90.00 137.00 90.00 C 133.00 90.00 133.00 90.00 133.00 83.50 Z  M 170.00 85.08 C 170.00 82.38 169.73 79.45 169.39 78.58 C 168.89 77.27 169.65 77.00 173.89 77.00 C 179.00 77.00 179.00 77.00 179.00 83.50 C 179.00 90.00 179.00 90.00 174.50 90.00 C 170.00 90.00 170.00 90.00 170.00 85.08 Z  M 208.00 83.00 C 208.00 76.00 208.00 76.00 211.50 76.00 C 215.00 76.00 215.00 76.00 215.00 83.00 C 215.00 90.00 215.00 90.00 211.50 90.00 C 208.00 90.00 208.00 90.00 208.00 83.00 Z  M 234.75 73.43 C 234.34 73.01 234.00 71.18 234.00 69.35 C 234.00 65.48 233.16 65.14 222.50 64.75 C 215.50 64.50 215.50 64.50 225.29 63.63 C 230.68 63.15 235.32 62.99 235.60 63.27 C 235.88 63.55 235.97 66.12 235.81 68.98 C 235.64 71.84 235.16 73.84 234.75 73.43 Z  M 169.67 53.33 C 169.30 52.97 169.00 50.72 169.00 48.33 C 169.00 44.00 169.00 44.00 174.00 44.00 C 179.00 44.00 179.00 44.00 179.00 49.00 C 179.00 54.00 179.00 54.00 174.67 54.00 C 172.28 54.00 170.03 53.70 169.67 53.33 Z "/>
</g>
</svg>