<?xml version="1.0" encoding="UTF-8" standalone="no"?>
<!DOCTYPE svg PUBLIC "-//W3C//DTD SVG 1.1//EN" "http://www.w3.org/Graphics/SVG/1.1/DTD/svg11.dtd" >
<svg xmlns="http://www.w3.org/2000/svg" xmlns:xlink="http://www.w3.org/1999/xlink" version="1.1" viewBox="0 0 256 256">
 <g >
 <path fill="currentColor"
d=" M 42.51 252.01 C 40.77 250.09 40.94 249.48 48.51 231.26 C 52.79 220.94 56.65 211.82 57.08 211.00 C 57.51 210.18 57.60 218.86 57.28 230.29 C 56.69 251.08 56.69 251.08 153.68 250.38 C 250.66 249.68 250.66 249.68 252.39 252.09 C 254.04 254.41 254.09 253.99 253.52 241.50 C 253.19 234.35 252.83 223.32 252.71 217.00 C 252.54 207.84 252.17 205.19 250.87 204.00 C 249.97 203.18 245.51 196.20 240.94 188.50 C 236.38 180.80 232.04 173.56 231.31 172.40 C 230.09 170.50 230.43 169.70 235.02 163.76 C 240.07 157.22 240.07 157.22 246.95 117.86 C 250.73 96.21 253.65 78.32 253.44 78.11 C 253.23 77.89 237.97 78.31 219.53 79.03 C 201.09 79.75 185.86 80.15 185.69 79.92 C 185.52 79.69 185.56 77.19 185.78 74.37 C 186.17 69.33 186.25 69.22 189.84 68.63 C 191.85 68.29 206.14 68.02 221.60 68.01 C 249.64 68.00 249.70 68.00 250.68 70.21 C 251.64 72.37 252.99 51.34 253.00 34.03 C 253.00 27.88 252.92 27.67 251.44 29.78 C 250.59 31.00 249.01 32.00 247.94 32.00 C 246.87 32.00 246.00 31.89 245.99 31.75 C 245.99 31.61 245.10 26.35 244.02 20.05 C 242.19 9.45 242.17 8.47 243.68 6.80 C 245.19 5.13 245.18 5.00 243.53 5.00 C 239.68 5.00 207.24 7.10 203.12 7.61 C 198.74 8.16 198.74 8.16 201.70 9.96 C 204.25 11.52 204.90 12.85 206.37 19.67 C 207.31 24.01 208.34 28.57 208.65 29.79 C 209.22 31.96 209.05 32.00 199.64 32.00 C 190.04 32.00 190.04 32.00 190.61 27.75 C 190.92 25.41 191.70 19.24 192.34 14.04 C 193.42 5.20 193.66 4.54 196.00 3.98 C 199.29 3.18 177.16 1.98 160.59 2.06 C 151.74 2.11 148.23 2.42 149.75 3.03 C 152.38 4.09 152.44 5.20 150.68 21.50 C 149.49 32.50 149.49 32.50 145.36 32.80 C 141.51 33.08 141.15 32.88 139.94 29.80 C 138.70 26.61 138.63 26.81 137.95 35.50 C 136.34 55.86 135.90 72.54 137.01 70.75 C 137.71 69.63 139.35 69.00 141.55 69.00 C 144.44 69.00 145.00 69.36 145.00 71.21 C 145.00 73.87 136.10 173.86 135.67 176.00 C 135.50 176.82 134.79 174.21 134.08 170.19 C 133.38 166.17 133.03 162.01 133.31 160.94 C 133.94 158.52 133.28 158.52 126.82 160.98 C 123.96 162.06 121.43 162.76 121.20 162.53 C 120.97 162.30 121.18 160.41 121.67 158.34 C 122.33 155.53 123.18 154.43 125.02 154.00 C 128.20 153.24 127.10 152.68 118.00 150.39 C 110.50 148.50 110.50 148.50 119.09 148.21 C 127.67 147.93 127.67 147.93 128.34 99.80 C 128.70 73.33 129.00 44.25 129.00 35.18 C 129.00 18.69 129.00 18.69 112.50 19.28 C 103.43 19.60 96.00 19.59 96.00 19.25 C 96.00 18.92 96.55 17.12 97.23 15.25 C 98.12 12.79 99.21 11.71 101.23 11.30 C 102.75 11.00 104.00 10.44 104.00 10.07 C 104.00 9.70 90.84 7.69 74.75 5.60 C 58.66 3.52 44.15 1.61 42.50 1.35 C 39.50 0.89 39.50 0.89 42.23 2.46 C 44.95 4.04 44.95 4.04 43.11 8.77 C 42.10 11.37 40.75 15.12 40.11 17.10 C 38.94 20.70 38.94 20.70 21.39 21.27 C 11.73 21.58 3.63 22.04 3.38 22.28 C 2.81 22.85 6.85 149.18 7.46 149.79 C 7.70 150.03 14.71 149.69 23.03 149.03 C 31.35 148.37 38.29 147.98 38.45 148.16 C 38.60 148.35 30.99 167.12 21.52 189.87 C 10.53 216.31 3.64 231.62 2.45 232.29 C 0.89 233.16 3.99 234.99 21.55 243.57 C 33.07 249.21 42.91 253.86 43.40 253.91 C 43.90 253.96 43.50 253.11 42.51 252.01 Z  M 176.56 237.10 C 175.71 235.72 178.65 234.98 184.33 235.16 C 188.89 235.30 189.09 235.39 186.00 235.90 C 183.80 236.27 186.78 236.69 194.00 237.04 C 205.50 237.60 205.50 237.60 191.31 237.80 C 183.50 237.91 176.87 237.60 176.56 237.10 Z  M 23.17 216.18 C 34.00 189.67 34.45 188.78 35.24 191.86 C 35.91 194.43 35.14 196.47 29.90 205.94 C 26.54 212.02 23.57 217.00 23.31 217.00 C 23.05 217.00 22.98 216.63 23.17 216.18 Z  M 94.00 208.00 C 94.00 201.49 95.10 200.44 97.44 204.75 C 100.47 210.34 99.70 210.21 112.95 207.51 C 119.73 206.13 125.49 205.00 125.75 205.00 C 126.01 205.00 126.04 206.56 125.81 208.47 C 125.45 211.55 125.64 211.88 127.45 211.42 C 140.96 208.03 143.37 207.20 141.75 206.52 C 140.74 206.10 140.00 204.72 140.00 203.25 C 140.00 200.72 140.02 200.71 146.75 201.35 C 150.46 201.70 155.21 201.99 157.31 201.99 C 161.79 202.00 161.45 203.21 156.19 205.92 C 152.57 207.78 152.55 207.83 155.00 208.43 C 156.38 208.76 163.12 209.84 170.00 210.82 C 182.50 212.61 182.50 212.61 151.50 213.30 C 134.45 213.68 114.54 214.00 107.25 214.00 C 94.00 214.00 94.00 214.00 94.00 208.00 Z  M 196.00 212.11 C 196.00 210.94 205.03 200.00 206.00 200.00 C 206.42 200.00 208.14 202.12 209.83 204.71 C 212.10 208.20 212.62 209.76 211.82 210.71 C 210.98 211.73 211.36 211.89 213.63 211.47 C 220.10 210.29 250.46 206.13 250.73 206.39 C 250.88 206.55 250.51 208.10 249.91 209.84 C 248.80 213.00 248.80 213.00 222.40 213.00 C 207.75 213.00 196.00 212.61 196.00 212.11 Z  M 175.67 170.25 C 176.37 162.69 177.07 155.60 177.22 154.50 C 177.42 153.07 178.85 154.68 182.33 160.27 C 187.16 168.03 187.16 168.03 181.33 175.98 C 178.12 180.36 175.25 183.95 174.95 183.97 C 174.65 183.99 174.98 177.81 175.67 170.25 Z  M 117.10 180.75 C 117.15 179.51 117.73 176.25 118.38 173.50 C 119.57 168.50 119.57 168.50 120.94 174.84 C 122.12 180.27 122.11 181.32 120.91 182.08 C 118.49 183.61 117.00 183.09 117.10 180.75 Z  M 97.11 173.32 C 96.99 164.39 98.10 160.00 100.48 160.00 C 102.44 160.00 102.39 160.65 99.57 172.00 C 97.22 181.50 97.22 181.50 97.11 173.32 Z  M 87.75 158.03 C 84.04 157.65 80.75 157.08 80.43 156.77 C 80.12 156.45 80.80 154.35 81.95 152.10 C 84.04 148.00 84.04 148.00 94.52 148.00 C 101.22 148.00 105.00 148.38 105.00 149.06 C 105.00 149.64 104.50 152.11 103.88 154.56 C 102.77 158.95 102.72 159.00 98.63 158.86 C 96.36 158.78 91.46 158.41 87.75 158.03 Z  M 234.13 135.50 C 234.09 132.48 236.62 119.05 237.35 118.31 C 237.71 117.96 238.00 118.28 238.00 119.02 C 238.00 119.92 238.53 119.72 239.55 118.44 C 241.07 116.55 241.09 116.55 240.51 118.67 C 238.76 125.05 234.15 137.22 234.13 135.50 Z  M 149.20 129.00 C 149.14 124.97 151.67 99.61 151.87 102.25 C 152.05 104.68 153.48 104.44 154.82 101.75 C 155.73 99.94 155.83 100.74 155.34 105.78 C 155.01 109.24 154.39 113.51 153.97 115.28 C 153.20 118.50 153.20 118.50 152.98 115.50 C 152.85 113.85 151.96 117.00 151.00 122.50 C 150.04 128.00 149.23 130.93 149.20 129.00 Z  M 203.25 127.04 C 201.14 123.35 201.11 123.04 202.75 122.08 C 205.31 120.59 203.36 120.77 192.50 123.00 C 179.69 125.64 180.20 125.71 180.92 121.25 C 181.36 118.52 182.07 117.43 183.51 117.23 C 184.61 117.08 191.27 116.38 198.32 115.67 C 211.08 114.38 211.13 114.39 210.56 116.44 C 210.24 117.57 209.25 121.31 208.37 124.75 C 207.48 128.19 206.47 131.00 206.13 130.99 C 205.78 130.99 204.49 129.21 203.25 127.04 Z  M 37.00 104.94 C 37.00 98.87 37.00 98.87 40.25 99.19 C 43.46 99.50 43.50 99.57 43.80 105.25 C 44.10 111.00 44.10 111.00 40.55 111.00 C 37.00 111.00 37.00 111.00 37.00 104.94 Z  M 85.01 106.31 C 85.04 99.42 85.88 97.86 89.38 98.20 C 92.46 98.50 92.50 98.57 92.50 104.00 C 92.50 109.50 92.50 109.50 88.75 109.81 C 85.02 110.12 85.00 110.10 85.01 106.31 Z  M 104.23 53.25 C 104.00 36.00 104.00 36.00 95.75 35.85 C 87.50 35.70 87.50 35.70 95.78 34.71 C 100.33 34.17 104.28 33.94 104.55 34.22 C 104.82 34.49 104.91 42.77 104.75 52.61 C 104.45 70.50 104.45 70.50 104.23 53.25 Z  M 36.20 62.25 C 36.50 56.50 36.50 56.50 40.89 56.19 C 45.28 55.87 45.28 55.87 44.64 59.06 C 44.29 60.81 44.00 63.54 44.00 65.13 C 44.00 67.82 43.74 68.00 39.95 68.00 C 35.90 68.00 35.90 68.00 36.20 62.25 Z  M 86.00 61.06 C 86.00 55.00 86.00 55.00 90.05 55.00 C 94.10 55.00 94.10 55.00 93.80 60.75 C 93.50 66.50 93.50 66.50 89.75 66.81 C 86.00 67.12 86.00 67.12 86.00 61.06 Z  M 223.50 57.00 C 218.00 56.66 215.12 56.30 217.10 56.19 C 219.07 56.09 224.92 55.74 230.10 55.43 C 238.75 54.91 239.34 54.99 237.56 56.43 C 236.49 57.29 235.14 57.91 234.56 57.81 C 233.98 57.70 229.00 57.34 223.50 57.00 Z "/>
</g>
</svg>