<?xml version="1.0" encoding="UTF-8" standalone="no"?>
<!DOCTYPE svg PUBLIC "-//W3C//DTD SVG 1.1//EN" "http://www.w3.org/Graphics/SVG/1.1/DTD/svg11.dtd" >
<svg xmlns="http://www.w3.org/2000/svg" xmlns:xlink="http://www.w3.org/1999/xlink" version="1.1" viewBox="0 0 256 256">
 <g >
 <path fill="currentColor"
d=" M 42.54 252.05 C 40.83 250.16 41.05 249.41 48.57 230.56 C 52.85 219.82 56.46 211.13 56.58 211.26 C 56.70 211.39 56.42 218.03 55.95 226.00 C 55.49 233.97 55.08 242.88 55.05 245.79 C 55.00 251.07 55.00 251.07 152.33 250.38 C 249.66 249.68 249.66 249.68 251.38 252.09 C 253.07 254.45 253.10 254.38 252.52 248.50 C 249.82 220.97 249.47 209.38 250.10 169.00 C 250.47 145.62 250.82 111.76 250.88 93.75 C 251.00 61.00 251.00 61.00 232.00 61.00 C 213.00 61.00 213.00 61.00 213.00 56.14 C 213.00 51.27 213.00 51.27 217.64 50.64 C 220.19 50.29 228.67 50.00 236.49 50.00 C 250.23 50.00 250.73 50.07 251.78 52.25 C 252.59 53.93 252.87 48.34 252.88 30.00 C 252.89 7.45 252.77 5.68 251.33 7.75 C 249.76 10.00 249.76 10.00 191.79 10.00 C 133.82 10.00 133.82 10.00 131.94 7.75 C 130.10 5.54 130.07 5.91 130.03 30.25 C 130.01 43.86 130.29 55.00 130.64 55.00 C 130.99 55.00 131.85 54.22 132.54 53.27 C 133.64 51.77 136.16 51.49 151.40 51.16 C 169.00 50.77 169.00 50.77 169.00 55.89 C 169.00 61.00 169.00 61.00 150.50 61.00 C 132.00 61.00 132.00 61.00 132.00 125.17 C 132.00 160.46 131.76 189.09 131.46 188.80 C 130.51 187.84 126.85 164.57 127.29 162.25 C 127.80 159.60 128.00 159.62 121.05 161.48 C 118.05 162.27 115.39 162.72 115.13 162.47 C 114.14 161.47 117.06 157.00 118.73 156.97 C 119.70 156.95 116.67 155.26 112.00 153.22 C 103.50 149.50 103.50 149.50 112.82 148.84 C 117.95 148.48 122.29 148.03 122.46 147.84 C 122.63 147.65 123.16 118.52 123.64 83.10 C 124.50 18.71 124.50 18.71 107.75 19.28 C 98.54 19.59 91.00 19.57 91.00 19.24 C 91.00 18.91 91.55 17.12 92.23 15.25 C 93.12 12.79 94.21 11.71 96.23 11.30 C 97.75 11.00 99.00 10.46 99.00 10.11 C 99.00 9.76 85.84 7.96 69.75 6.12 C 53.66 4.27 39.15 2.54 37.50 2.26 C 34.50 1.75 34.50 1.75 36.64 3.99 C 38.79 6.23 38.79 6.23 36.35 13.47 C 33.92 20.71 33.92 20.71 18.90 21.24 C 10.65 21.54 3.67 22.00 3.40 22.27 C 2.95 22.72 5.13 100.20 6.57 134.72 C 7.21 149.95 7.21 149.95 21.48 150.22 C 35.76 150.50 35.76 150.50 19.99 190.90 C 9.78 217.05 3.58 231.65 2.41 232.31 C 0.91 233.15 4.25 235.12 21.55 243.57 C 33.07 249.21 42.91 253.86 43.40 253.91 C 43.90 253.96 43.51 253.12 42.54 252.05 Z  M 20.01 218.75 C 20.01 218.61 22.67 211.75 25.92 203.50 C 29.74 193.79 32.03 189.12 32.41 190.25 C 32.73 191.21 33.21 192.67 33.46 193.49 C 33.72 194.31 30.96 200.38 27.34 206.99 C 21.72 217.25 19.97 220.06 20.01 218.75 Z  M 91.00 208.53 C 91.00 205.49 91.38 203.00 91.85 203.00 C 92.31 203.00 93.51 204.80 94.50 207.00 C 95.49 209.20 96.49 211.00 96.72 211.00 C 96.95 211.00 101.49 209.92 106.82 208.61 C 123.99 204.37 122.16 204.29 121.81 209.22 C 121.50 213.50 121.50 213.50 106.25 213.78 C 91.00 214.05 91.00 214.05 91.00 208.53 Z  M 127.50 212.07 C 130.85 210.46 133.95 210.13 146.50 210.01 C 158.20 209.90 161.00 209.62 159.22 208.77 C 157.03 207.71 156.95 207.25 157.22 197.08 C 157.39 190.78 157.90 186.55 158.50 186.62 C 159.05 186.68 161.06 187.03 162.97 187.39 C 165.38 187.84 166.12 187.72 165.39 186.99 C 164.66 186.26 164.75 182.54 165.69 174.72 C 166.43 168.55 167.18 163.06 167.35 162.52 C 167.52 161.98 168.23 167.01 168.93 173.70 C 169.63 180.39 169.91 186.33 169.56 186.90 C 169.19 187.50 170.78 187.37 173.46 186.56 C 178.00 185.20 178.00 185.20 178.00 196.07 C 178.00 206.90 177.99 206.94 175.25 208.43 C 172.73 209.80 174.00 209.92 190.81 209.96 C 201.86 209.98 208.89 209.63 208.54 209.07 C 207.33 207.10 210.70 206.84 228.55 207.54 C 246.79 208.26 248.21 208.59 246.23 211.64 C 245.71 212.45 228.35 212.94 184.50 213.38 C 123.82 213.99 123.52 213.98 127.50 212.07 Z  M 205.25 208.25 C 204.31 207.94 204.00 203.17 204.00 188.99 C 204.00 170.14 204.00 170.14 207.24 171.07 C 211.88 172.40 213.00 172.23 212.83 170.25 C 212.45 165.76 213.10 161.00 214.09 161.00 C 214.79 161.00 215.06 162.98 214.84 166.50 C 214.47 172.43 214.47 172.42 220.25 171.08 C 223.83 170.25 224.00 170.33 224.00 172.75 C 224.00 175.29 223.99 175.29 216.91 174.70 C 213.02 174.37 209.20 173.58 208.44 172.95 C 207.26 171.97 207.00 174.61 206.77 190.23 C 206.56 204.44 206.21 208.57 205.25 208.25 Z  M 111.08 181.25 C 111.13 180.29 111.93 176.35 112.87 172.50 C 114.58 165.50 114.58 165.50 115.95 173.34 C 117.12 180.06 117.11 181.32 115.91 182.08 C 113.54 183.58 110.99 183.14 111.08 181.25 Z  M 93.09 173.82 C 92.99 165.35 94.14 161.00 96.48 161.00 C 98.46 161.00 98.40 161.82 95.57 172.50 C 93.18 181.50 93.18 181.50 93.09 173.82 Z  M 189.26 161.50 C 189.25 151.60 189.44 144.29 189.69 145.26 C 189.94 146.23 190.62 146.74 191.19 146.38 C 191.90 145.94 191.99 148.39 191.47 154.12 C 191.05 158.73 190.39 166.32 190.00 171.00 C 189.43 177.86 189.29 176.03 189.26 161.50 Z  M 85.33 158.10 C 81.94 157.77 78.88 157.21 78.52 156.86 C 78.17 156.51 78.56 154.59 79.39 152.61 C 80.90 149.00 80.90 149.00 90.45 149.00 C 100.98 149.00 100.78 148.85 99.38 155.88 C 98.68 159.34 98.50 159.37 85.33 158.10 Z  M 204.23 128.93 C 204.50 101.50 204.50 101.50 214.25 101.21 C 224.00 100.93 224.00 100.93 223.88 125.21 C 223.76 149.50 223.76 149.50 221.45 128.00 C 220.18 116.17 219.38 105.67 219.67 104.65 C 220.14 103.02 219.80 102.88 216.87 103.53 C 211.27 104.76 205.40 106.80 207.16 106.90 C 208.94 107.01 209.41 109.00 210.60 121.36 C 211.24 128.02 211.20 128.20 209.13 127.54 C 207.50 127.02 207.15 127.22 207.59 128.39 C 208.15 129.83 205.20 155.03 204.37 155.93 C 204.15 156.17 204.09 144.02 204.23 128.93 Z  M 158.35 128.50 C 158.50 101.50 158.50 101.50 168.25 101.21 C 178.00 100.93 178.00 100.93 177.87 126.21 C 177.74 151.50 177.74 151.50 175.53 128.50 C 173.91 111.70 173.61 105.12 174.41 104.08 C 175.29 102.93 175.11 102.76 173.50 103.22 C 172.40 103.52 169.34 104.38 166.70 105.11 C 162.67 106.23 161.97 106.77 162.37 108.47 C 162.63 109.59 163.16 113.99 163.54 118.25 C 164.11 124.66 163.99 126.00 162.79 126.00 C 161.80 126.00 161.45 126.87 161.68 128.75 C 161.86 130.26 161.16 136.90 160.11 143.50 C 158.21 155.50 158.21 155.50 158.35 128.50 Z  M 34.64 109.25 C 34.30 107.19 34.02 103.81 34.01 101.75 C 34.00 98.13 34.12 98.00 37.50 98.00 C 41.00 98.00 41.00 98.00 41.00 105.50 C 41.00 113.00 41.00 113.00 38.13 113.00 C 35.59 113.00 35.19 112.57 34.64 109.25 Z  M 83.00 103.44 C 83.00 94.88 83.00 94.88 86.75 95.19 C 90.50 95.50 90.50 95.50 90.79 103.75 C 91.08 112.00 91.08 112.00 87.04 112.00 C 83.00 112.00 83.00 112.00 83.00 103.44 Z  M 33.64 66.36 C 33.29 63.81 33.00 59.98 33.00 57.86 C 33.00 54.00 33.00 54.00 37.50 54.00 C 42.00 54.00 42.00 54.00 42.00 62.50 C 42.00 71.00 42.00 71.00 38.14 71.00 C 34.30 71.00 34.27 70.97 33.64 66.36 Z  M 83.00 61.00 C 83.00 53.00 83.00 53.00 87.30 53.00 C 91.59 53.00 91.59 53.00 91.23 59.75 C 90.75 68.74 90.62 69.00 86.53 69.00 C 83.00 69.00 83.00 69.00 83.00 61.00 Z  M 101.00 44.77 C 101.00 36.78 100.54 36.02 95.67 35.98 C 94.48 35.98 92.83 35.53 92.00 35.00 C 90.95 34.32 92.45 34.03 97.05 34.02 C 103.60 34.00 103.60 34.00 102.76 42.70 C 102.30 47.49 101.72 51.62 101.46 51.87 C 101.21 52.13 101.00 48.93 101.00 44.77 Z  M 221.00 21.00 C 218.69 20.51 221.25 20.26 228.50 20.25 C 236.83 20.23 238.53 20.43 235.50 21.06 C 230.77 22.04 225.83 22.02 221.00 21.00 Z "/>
</g>
</svg>