<?xml version="1.0" encoding="UTF-8" standalone="no"?>
<!DOCTYPE svg PUBLIC "-//W3C//DTD SVG 1.1//EN" "http://www.w3.org/Graphics/SVG/1.1/DTD/svg11.dtd" >
<svg xmlns="http://www.w3.org/2000/svg" xmlns:xlink="http://www.w3.org/1999/xlink" version="1.1" viewBox="0 0 256 256">
 <g >
 <path fill="currentColor"
d=" M 253.48 102.29 C 252.94 82.59 252.44 75.31 251.77 77.28 C 250.81 80.06 250.81 80.06 237.16 79.78 C 223.50 79.50 223.50 79.50 223.21 70.80 C 222.92 62.10 222.92 62.10 226.21 61.50 C 228.02 61.16 233.27 61.03 237.87 61.20 C 246.25 61.50 246.25 61.50 247.96 65.89 C 249.67 70.28 249.67 70.28 250.33 48.39 C 250.70 36.35 250.98 22.45 250.96 17.50 C 250.92 8.50 250.92 8.50 248.36 12.75 C 245.80 17.00 245.80 17.00 239.65 17.01 C 236.27 17.01 231.11 17.30 228.19 17.65 C 222.89 18.29 222.89 18.29 223.19 12.97 C 223.50 7.66 223.50 7.66 228.00 6.08 C 232.50 4.50 232.50 4.50 218.00 3.88 C 210.03 3.53 192.70 3.20 179.50 3.14 C 155.50 3.03 155.50 3.03 159.74 5.77 C 163.84 8.41 163.99 8.67 163.99 13.75 C 164.00 19.00 164.00 19.00 149.00 19.00 C 137.69 19.00 133.99 18.69 133.95 17.75 C 133.93 17.06 133.29 15.15 132.54 13.50 C 131.34 10.88 131.17 14.28 131.18 40.50 C 131.20 62.30 131.48 69.47 132.20 66.75 C 133.20 63.00 133.20 63.00 148.60 63.00 C 164.00 63.00 164.00 63.00 164.00 72.00 C 164.00 81.00 164.00 81.00 147.50 81.00 C 138.43 81.00 130.70 81.11 130.34 81.25 C 129.98 81.39 129.19 80.07 128.59 78.32 C 127.99 76.57 127.16 74.81 126.75 74.41 C 126.34 74.00 126.01 86.23 126.02 101.58 C 126.04 128.20 126.12 129.40 127.77 127.34 C 129.49 125.19 129.73 125.17 182.50 124.56 C 211.65 124.22 238.50 123.69 242.17 123.38 C 248.83 122.81 248.83 122.81 251.15 126.84 C 252.42 129.05 253.64 130.69 253.86 130.48 C 254.07 130.26 253.90 117.58 253.48 102.29 Z  M 98.28 242.77 C 97.39 241.64 90.00 205.19 90.00 201.92 C 90.00 201.10 90.34 200.96 90.90 201.55 C 91.94 202.66 100.41 242.92 99.74 243.59 C 99.49 243.84 98.83 243.47 98.28 242.77 Z  M 217.50 239.02 C 219.30 238.56 213.71 238.14 203.50 237.96 C 186.50 237.66 186.50 237.66 207.36 236.70 C 221.59 236.05 228.42 236.07 228.86 236.77 C 229.21 237.34 230.62 238.01 232.00 238.26 C 233.38 238.52 231.98 238.79 228.89 238.86 C 225.80 238.94 221.30 239.17 218.89 239.38 C 215.43 239.69 215.13 239.61 217.50 239.02 Z  M 25.56 231.50 C 26.23 227.18 26.65 226.32 27.62 227.29 C 27.97 227.63 27.50 229.62 26.59 231.71 C 24.94 235.50 24.94 235.50 25.56 231.50 Z  M 114.93 227.27 C 113.59 224.13 112.34 221.16 112.13 220.68 C 111.93 220.20 112.64 220.27 113.70 220.84 C 115.39 221.74 118.73 231.60 117.70 232.64 C 117.51 232.82 116.26 230.41 114.93 227.27 Z  M 25.00 196.98 C 17.46 194.20 15.34 193.08 17.50 193.03 C 19.15 192.99 35.34 192.32 53.49 191.55 C 71.63 190.77 86.60 190.27 86.76 190.42 C 87.02 190.69 83.43 192.38 69.53 198.53 C 63.73 201.09 63.73 201.09 64.24 196.52 C 64.76 191.95 64.76 191.95 61.63 192.47 C 59.91 192.75 54.67 193.44 50.00 194.01 C 34.78 195.85 33.48 196.13 35.33 197.17 C 36.98 198.09 37.71 201.07 36.25 200.93 C 35.84 200.88 30.78 199.11 25.00 196.98 Z  M 89.58 199.25 C 88.45 198.12 89.00 190.94 90.25 190.55 C 92.43 189.88 113.45 188.88 112.85 189.48 C 111.54 190.80 90.12 199.79 89.58 199.25 Z  M 44.00 149.50 C 44.00 145.41 44.22 145.00 46.42 145.00 C 47.75 145.00 49.55 144.73 50.42 144.39 C 51.73 143.89 52.00 144.65 52.00 148.89 C 52.00 154.00 52.00 154.00 48.00 154.00 C 44.00 154.00 44.00 154.00 44.00 149.50 Z  M 77.00 148.11 C 77.00 143.21 77.00 143.21 81.05 142.82 C 83.28 142.61 85.31 142.64 85.55 142.89 C 85.80 143.13 86.00 145.51 86.00 148.17 C 86.00 153.00 86.00 153.00 81.50 153.00 C 77.00 153.00 77.00 153.00 77.00 148.11 Z  M 42.00 108.50 C 42.00 102.89 42.00 102.89 46.25 103.19 C 50.50 103.50 50.50 103.50 50.50 108.50 C 50.50 113.50 50.50 113.50 46.25 113.81 C 42.00 114.11 42.00 114.11 42.00 108.50 Z  M 77.00 106.95 C 77.00 101.89 77.00 101.89 81.75 102.20 C 86.50 102.50 86.50 102.50 86.80 107.25 C 87.11 112.00 87.11 112.00 82.05 112.00 C 77.00 112.00 77.00 112.00 77.00 106.95 Z  M 112.20 88.25 C 112.00 78.00 112.00 78.00 97.75 77.87 C 83.50 77.73 83.50 77.73 92.00 76.84 C 96.67 76.34 103.42 76.07 107.00 76.22 C 113.50 76.50 113.50 76.50 112.95 87.50 C 112.40 98.50 112.40 98.50 112.20 88.25 Z  M 50.86 65.36 C 48.85 63.21 48.85 63.21 51.01 55.86 C 52.20 51.81 53.70 47.99 54.34 47.36 C 55.99 45.75 70.00 44.54 70.00 46.01 C 70.00 46.62 68.81 51.57 67.36 56.98 C 64.72 66.84 64.72 66.84 58.79 67.17 C 53.78 67.45 52.57 67.17 50.86 65.36 Z  M 158.50 111.00 C 154.18 110.60 160.12 110.32 174.00 110.28 C 186.56 110.23 195.40 110.55 194.00 111.00 C 191.08 111.94 168.63 111.94 158.50 111.00 Z  M 172.88 72.00 C 172.54 67.47 172.78 65.06 173.69 64.04 C 174.80 62.79 174.99 63.02 174.91 65.54 C 174.86 67.17 174.50 70.75 174.10 73.50 C 173.37 78.50 173.37 78.50 172.88 72.00 Z "/>
</g>
</svg>