<?xml version="1.0" encoding="UTF-8" standalone="no"?>
<!DOCTYPE svg PUBLIC "-//W3C//DTD SVG 1.1//EN" "http://www.w3.org/Graphics/SVG/1.1/DTD/svg11.dtd" >
<svg xmlns="http://www.w3.org/2000/svg" xmlns:xlink="http://www.w3.org/1999/xlink" version="1.1" viewBox="0 0 293 256">
 <g >
 <path fill="currentColor"
d=" M 247.68 216.90 C 281.32 188.50 280.99 188.86 277.35 184.83 C 275.94 183.28 274.06 183.00 265.10 182.97 C 254.09 182.94 252.33 182.39 250.16 178.32 C 249.33 176.76 249.00 164.40 249.00 135.19 C 249.00 98.32 248.84 94.11 247.35 92.87 C 246.00 91.75 237.15 91.50 199.27 91.50 C 154.46 91.50 152.79 91.57 151.42 93.44 C 150.25 95.04 150.00 102.24 150.00 134.11 C 150.00 155.41 149.72 173.56 149.38 174.46 C 148.19 177.54 143.45 179.00 134.55 179.00 C 127.33 179.00 125.69 179.31 124.00 181.00 C 121.42 183.58 121.48 185.32 124.25 188.32 C 125.49 189.66 137.07 198.30 150.00 207.53 C 162.93 216.76 174.08 224.76 174.78 225.30 C 175.63 225.96 176.88 225.92 178.53 225.17 C 181.00 224.04 181.00 224.04 181.00 175.54 C 181.00 127.03 181.00 127.03 183.92 123.77 C 186.82 120.52 186.89 120.50 197.48 120.16 C 209.50 119.77 212.21 120.21 215.03 123.03 C 216.94 124.94 217.00 126.57 217.00 179.07 C 217.00 214.42 217.36 233.80 218.04 235.07 C 220.31 239.31 223.29 237.49 247.68 216.90 Z  M 118.02 213.43 C 118.63 211.85 119.00 183.16 119.00 138.66 C 119.00 74.92 118.82 66.18 117.44 64.22 C 115.89 62.00 115.89 62.00 73.14 62.00 C 41.23 62.00 30.10 62.30 29.20 63.20 C 28.30 64.10 28.00 75.14 28.00 106.75 C 28.00 149.09 28.00 149.09 25.55 151.55 C 24.01 153.08 21.95 154.00 20.05 154.00 C 16.92 154.00 13.00 156.95 13.00 159.31 C 13.00 160.03 13.56 161.33 14.25 162.20 C 16.15 164.59 51.81 190.00 53.27 190.00 C 53.98 190.00 55.56 189.30 56.78 188.44 C 58.81 187.02 59.00 186.07 59.00 177.52 C 59.00 168.58 59.12 168.05 61.63 166.07 C 65.23 163.24 80.60 163.02 83.89 165.75 C 87.10 168.42 87.59 172.98 85.01 176.27 C 82.97 178.86 82.41 179.00 74.50 179.00 C 65.19 179.00 62.66 180.30 63.20 184.80 C 63.45 186.96 67.13 189.56 87.00 201.67 C 112.46 217.17 116.08 218.55 118.02 213.43 Z  M 268.00 74.71 C 270.41 73.49 270.51 73.06 270.78 62.22 C 270.95 55.60 270.63 50.17 270.00 49.00 C 268.95 47.03 267.85 47.00 199.43 47.00 C 134.19 47.00 129.89 47.11 129.22 48.75 C 128.82 49.71 128.50 55.60 128.50 61.83 C 128.50 71.89 128.72 73.32 130.44 74.58 C 133.15 76.56 264.09 76.68 268.00 74.71 Z  M 212.78 37.44 C 214.88 35.97 215.00 35.19 215.00 22.64 C 215.00 13.68 214.61 9.01 213.80 8.20 C 212.99 7.39 208.50 7.00 200.13 7.00 C 183.55 7.00 184.00 6.57 184.00 22.43 C 184.00 39.27 183.76 39.00 198.83 39.00 C 207.82 39.00 211.07 38.64 212.78 37.44 Z  M 59.67 135.33 C 58.21 133.87 59.05 129.05 60.93 128.04 C 62.00 127.47 67.61 127.00 73.41 127.00 C 83.48 127.00 84.03 127.11 85.55 129.43 C 86.79 131.33 86.90 132.33 86.04 133.93 C 85.01 135.85 84.04 136.00 72.63 136.00 C 65.87 136.00 60.03 135.70 59.67 135.33 Z  M 59.41 97.50 C 58.11 92.31 58.87 92.00 72.90 92.00 C 84.90 92.00 85.91 92.15 86.49 93.96 C 86.83 95.04 86.62 96.84 86.02 97.96 C 85.01 99.85 83.98 100.00 72.48 100.00 C 60.05 100.00 60.04 100.00 59.41 97.50 Z "/>
</g>
</svg>