<?xml version="1.0" encoding="UTF-8" standalone="no"?>
<!DOCTYPE svg PUBLIC "-//W3C//DTD SVG 1.1//EN" "http://www.w3.org/Graphics/SVG/1.1/DTD/svg11.dtd" >
<svg xmlns="http://www.w3.org/2000/svg" xmlns:xlink="http://www.w3.org/1999/xlink" version="1.1" viewBox="0 0 254 256">
 <g >
 <path fill="currentColor"
d=" M 212.00 221.34 C 234.94 206.05 240.00 202.27 240.00 200.41 C 240.00 195.78 237.81 195.00 224.88 195.00 C 213.50 195.00 212.79 194.88 210.45 192.55 C 208.06 190.15 208.00 189.73 208.00 174.37 C 208.00 154.04 208.77 155.00 192.35 155.00 C 181.33 155.00 179.78 155.22 178.00 157.00 C 176.07 158.93 176.00 160.33 176.00 197.28 C 176.00 238.95 176.14 240.00 181.56 240.00 C 183.07 240.00 194.75 232.84 212.00 221.34 Z  M 124.46 236.84 C 128.72 234.89 129.12 230.86 128.80 192.88 C 128.51 159.53 128.41 157.77 126.56 156.42 C 124.29 154.76 101.51 154.40 99.00 155.98 C 97.80 156.73 97.40 160.25 97.00 173.55 C 96.50 190.18 96.50 190.18 93.69 192.59 C 91.17 194.76 89.96 195.00 81.69 195.02 C 76.64 195.02 72.00 195.36 71.40 195.77 C 69.70 196.90 67.84 200.93 68.51 202.02 C 69.56 203.72 119.16 238.00 120.56 238.00 C 121.30 238.00 123.05 237.48 124.46 236.84 Z  M 165.80 218.80 C 167.50 217.10 167.50 170.90 165.80 169.20 C 163.98 167.38 140.98 167.57 138.44 169.42 C 136.62 170.75 136.50 172.22 136.50 193.77 C 136.50 211.73 136.80 217.05 137.87 218.35 C 139.02 219.73 141.35 220.00 151.92 220.00 C 160.45 220.00 164.99 219.61 165.80 218.80 Z  M 62.07 184.02 C 90.23 164.48 89.73 164.91 88.20 161.54 C 87.08 159.08 86.75 159.00 77.48 159.00 C 68.65 159.00 67.72 158.81 65.45 156.55 C 63.00 154.09 63.00 154.09 63.00 130.24 C 63.00 111.23 62.71 105.99 61.58 104.44 C 60.27 102.64 58.60 102.48 38.99 102.19 C 11.48 101.79 13.00 100.93 13.00 116.90 C 13.00 125.18 13.38 129.06 14.25 129.76 C 14.94 130.31 18.11 130.96 21.31 131.21 C 25.53 131.55 27.72 132.27 29.31 133.86 C 31.45 136.00 31.51 136.80 32.00 167.56 C 32.53 200.74 32.67 201.70 37.07 200.65 C 37.93 200.45 49.18 192.97 62.07 184.02 Z  M 208.80 146.80 C 209.60 146.00 210.00 141.55 210.00 133.36 C 210.00 121.84 209.87 121.02 207.78 119.56 C 205.88 118.22 200.84 118.00 172.89 118.00 C 142.63 118.00 140.05 117.86 137.94 116.16 C 134.94 113.72 134.90 108.66 137.86 105.69 C 140.04 103.52 140.39 103.50 180.24 103.21 C 210.26 102.99 220.63 102.61 221.20 101.71 C 222.19 100.15 222.21 76.87 221.22 75.32 C 220.68 74.48 213.49 74.04 196.26 73.82 C 173.11 73.51 171.96 73.41 169.92 71.37 C 168.75 70.20 167.49 67.72 167.11 65.87 C 166.42 62.50 166.42 62.50 152.20 62.22 C 136.44 61.91 137.18 61.61 135.58 69.15 C 134.67 73.39 131.01 74.00 106.55 74.00 C 90.66 74.00 84.06 74.34 83.20 75.20 C 82.40 76.00 82.00 80.42 82.00 88.50 C 82.00 96.58 82.40 101.00 83.20 101.80 C 83.86 102.46 86.67 103.00 89.45 103.01 C 92.23 103.01 96.22 103.49 98.33 104.07 C 104.21 105.71 105.00 108.65 105.00 128.77 C 105.00 140.53 105.36 145.96 106.20 146.80 C 107.93 148.53 207.07 148.53 208.80 146.80 Z  M 72.50 80.00 C 73.80 78.56 74.06 77.48 73.40 76.11 C 72.43 74.07 32.34 31.72 30.84 31.16 C 30.34 30.97 29.27 31.36 28.47 32.03 C 26.48 33.68 26.28 76.71 28.25 79.19 C 30.23 81.70 31.44 81.84 51.60 81.92 C 69.47 81.99 70.81 81.87 72.50 80.00 Z  M 135.71 59.38 C 137.35 58.94 138.33 57.39 139.48 53.42 C 140.38 50.33 141.86 47.61 142.96 47.02 C 144.01 46.46 148.27 46.00 152.43 46.00 C 161.10 46.00 164.00 47.76 164.00 53.00 C 164.00 54.67 164.89 56.89 166.00 58.00 C 167.77 59.77 169.33 60.00 179.78 60.00 C 192.44 60.00 196.00 58.88 196.00 54.88 C 196.00 52.40 197.80 48.90 199.91 47.28 C 200.88 46.54 205.02 46.05 210.55 46.03 C 216.22 46.01 220.05 45.55 220.80 44.80 C 222.46 43.14 222.46 19.86 220.80 18.20 C 220.05 17.45 216.29 17.00 210.72 17.00 C 202.25 17.00 201.71 16.87 198.92 14.08 C 197.32 12.47 196.00 10.08 196.00 8.78 C 196.00 4.48 194.44 4.00 180.37 4.00 C 166.38 4.00 164.00 4.73 164.00 8.99 C 164.00 14.27 159.82 17.01 151.80 16.99 C 144.49 16.96 141.81 15.37 140.00 9.98 C 139.18 7.51 138.05 5.17 137.50 4.77 C 136.95 4.36 130.88 4.03 124.00 4.03 C 117.12 4.03 111.00 4.36 110.39 4.77 C 109.79 5.17 108.98 7.17 108.61 9.21 C 107.47 15.39 104.36 17.00 93.57 17.00 C 87.77 17.00 83.96 17.44 83.20 18.20 C 82.41 18.99 82.00 23.28 82.00 30.87 C 82.00 45.86 82.11 46.00 94.48 46.00 C 102.75 46.00 103.86 46.22 105.81 48.30 C 107.00 49.56 108.26 52.05 108.62 53.83 C 109.65 58.99 112.08 60.00 123.47 59.99 C 128.99 59.98 134.49 59.71 135.71 59.38 Z "/>
</g>
</svg>