<?xml version="1.0" encoding="UTF-8" standalone="no"?>
<!DOCTYPE svg PUBLIC "-//W3C//DTD SVG 1.1//EN" "http://www.w3.org/Graphics/SVG/1.1/DTD/svg11.dtd" >
<svg xmlns="http://www.w3.org/2000/svg" xmlns:xlink="http://www.w3.org/1999/xlink" version="1.1" viewBox="0 0 222 269">
 <g >
 <path fill="currentColor"
d=" M 173.42 230.39 C 174.82 229.86 175.00 225.77 175.00 194.72 C 175.00 163.50 174.82 159.46 173.35 157.83 C 171.87 156.20 169.91 156.00 155.45 156.00 C 141.57 156.00 139.13 155.77 138.61 154.42 C 137.44 151.37 138.05 149.85 144.08 140.88 C 147.46 135.86 149.91 131.21 149.60 130.41 C 148.51 127.56 143.57 127.00 119.59 127.00 C 97.70 127.00 95.16 126.83 93.83 125.25 C 93.02 124.29 92.29 122.44 92.23 121.14 C 92.16 119.84 91.82 118.49 91.47 118.14 C 91.12 117.79 84.23 117.36 76.14 117.18 C 62.34 116.88 61.28 116.99 58.70 119.02 C 55.80 121.30 42.00 143.75 42.00 146.18 C 42.00 149.83 43.64 150.00 79.16 150.00 C 111.26 150.00 114.00 150.13 114.83 151.75 C 116.97 155.92 116.35 156.00 81.75 156.00 C 52.36 156.00 48.45 156.19 46.83 157.65 C 45.12 159.20 45.00 161.66 45.00 193.95 C 45.00 219.57 45.31 228.91 46.20 229.80 C 47.11 230.71 62.56 231.00 109.62 231.00 C 143.84 231.00 172.55 230.73 173.42 230.39 Z  M 188.72 116.50 C 209.16 88.08 208.44 89.25 207.21 86.57 C 206.23 84.40 205.44 84.18 197.49 83.86 C 190.33 83.56 188.59 83.16 187.42 81.56 C 186.26 79.97 186.00 73.37 186.00 45.34 C 186.00 12.48 185.92 11.03 184.07 10.04 C 182.91 9.42 173.85 9.00 161.64 9.00 C 143.89 9.00 140.92 9.22 139.48 10.66 C 138.10 12.04 137.88 14.06 138.16 22.74 C 138.57 35.29 139.14 36.00 148.76 36.00 C 155.12 36.00 155.13 36.00 154.82 38.75 C 154.51 41.38 154.24 41.51 148.26 41.80 C 143.12 42.04 141.82 42.47 140.90 44.19 C 139.45 46.89 140.31 55.95 142.11 57.09 C 142.88 57.57 146.09 57.98 149.25 57.98 C 154.22 58.00 155.00 58.26 155.00 59.89 C 155.00 62.32 153.12 63.00 146.44 63.00 C 141.48 63.00 140.99 63.21 140.40 65.56 C 139.69 68.38 140.39 76.72 141.42 77.75 C 141.78 78.12 144.98 78.60 148.54 78.82 C 153.91 79.16 155.00 79.53 155.00 81.01 C 155.00 81.99 154.29 83.06 153.42 83.39 C 151.35 84.19 64.65 84.19 62.58 83.39 C 61.71 83.06 61.00 81.93 61.00 80.89 C 61.00 79.25 61.78 79.00 66.93 79.00 C 74.51 79.00 76.00 77.63 76.00 70.63 C 76.00 67.75 75.46 64.86 74.80 64.20 C 74.14 63.54 71.48 63.00 68.88 63.00 C 62.88 63.00 61.00 62.26 61.00 59.89 C 61.00 58.26 61.77 58.00 66.67 58.00 C 74.23 58.00 76.00 56.38 76.00 49.47 C 76.00 46.43 75.46 43.80 74.72 43.18 C 74.01 42.59 70.75 41.97 67.47 41.81 C 61.85 41.52 61.50 41.35 61.50 39.00 C 61.50 36.63 61.84 36.47 68.33 36.00 C 77.84 35.30 78.00 34.99 78.00 17.43 C 78.00 0.65 77.49 -0.43 70.95 2.52 C 68.74 3.52 65.52 5.38 63.78 6.67 C 60.81 8.85 59.72 9.00 46.51 9.00 C 36.87 9.00 32.02 9.38 31.20 10.20 C 30.31 11.09 30.00 20.36 30.00 45.70 C 30.00 78.67 29.92 80.08 28.00 82.00 C 26.54 83.46 24.67 84.00 21.07 84.00 C 13.07 84.00 13.00 84.20 13.00 105.95 C 13.00 120.77 13.29 125.00 14.39 125.91 C 15.32 126.68 20.13 126.97 29.12 126.78 C 43.95 126.47 42.33 127.38 44.85 118.00 C 45.24 116.53 46.96 114.77 49.01 113.73 C 52.24 112.10 56.60 111.99 107.67 112.23 C 162.84 112.50 162.84 112.50 165.42 114.92 C 167.74 117.10 168.00 118.09 168.00 124.71 C 168.00 131.40 168.20 132.15 170.25 132.99 C 175.02 134.95 176.24 133.86 188.72 116.50 Z  M 104.54 77.25 C 105.41 76.01 106.85 75.00 107.74 75.00 C 108.64 75.00 110.45 76.01 111.76 77.25 C 113.83 79.19 115.46 79.55 123.62 79.85 C 134.10 80.23 138.00 79.63 138.00 77.63 C 138.00 76.90 134.85 73.30 131.00 69.64 C 122.01 61.09 121.98 60.02 130.51 52.21 C 139.55 43.93 138.99 43.00 125.05 43.00 C 117.23 43.00 113.44 43.43 111.12 44.59 C 108.20 46.05 107.72 46.05 105.50 44.59 C 102.36 42.53 80.44 42.24 79.72 44.25 C 79.47 44.94 82.36 48.71 86.13 52.64 C 89.91 56.57 93.00 60.36 93.00 61.06 C 93.00 61.76 89.40 65.70 84.99 69.81 C 74.50 79.61 74.91 80.28 91.17 79.83 C 102.08 79.52 103.08 79.33 104.54 77.25 Z  M 104.41 37.50 C 105.31 36.12 106.76 35.00 107.63 35.00 C 108.50 35.00 110.55 36.12 112.18 37.50 C 114.97 39.85 115.85 40.00 126.58 40.00 C 140.71 40.00 140.97 39.39 131.00 29.50 C 126.56 25.10 124.00 21.75 124.00 20.36 C 124.00 18.92 126.29 16.10 130.64 12.17 C 139.91 3.80 139.36 3.00 124.36 3.00 C 114.68 3.00 112.33 3.30 110.75 4.72 C 108.95 6.36 108.69 6.36 105.84 4.72 C 103.48 3.37 100.40 3.00 91.39 3.00 C 76.88 3.00 76.26 3.83 84.90 11.64 C 94.42 20.27 94.41 19.78 85.20 29.31 C 80.83 33.81 77.46 38.06 77.71 38.75 C 78.04 39.66 81.54 40.00 90.47 40.00 C 102.49 40.00 102.81 39.94 104.41 37.50 Z  M 76.67 206.33 C 75.43 205.10 75.99 202.22 77.58 201.61 C 78.45 201.27 82.26 201.00 86.05 201.00 C 91.93 201.00 93.09 201.29 94.01 203.02 C 94.61 204.13 94.82 205.48 94.49 206.02 C 93.82 207.11 77.72 207.39 76.67 206.33 Z  M 126.18 204.29 C 126.50 201.50 126.50 201.50 135.00 201.50 C 143.40 201.50 143.50 201.53 143.50 204.00 C 143.50 206.46 143.34 206.51 134.68 206.79 C 125.86 207.08 125.86 207.08 126.18 204.29 Z  M 76.38 184.55 C 75.31 181.75 77.14 181.00 85.02 181.00 C 91.72 181.00 93.08 181.29 93.93 182.87 C 94.48 183.90 94.65 185.02 94.30 185.37 C 93.95 185.72 89.90 186.00 85.30 186.00 C 78.91 186.00 76.81 185.66 76.38 184.55 Z  M 126.00 184.11 C 126.00 181.65 127.88 181.00 135.00 181.00 C 142.12 181.00 144.00 181.65 144.00 184.11 C 144.00 185.82 143.16 186.00 135.00 186.00 C 126.84 186.00 126.00 185.82 126.00 184.11 Z "/>
</g>
</svg>