<?xml version="1.0" encoding="UTF-8" standalone="no"?>
<!DOCTYPE svg PUBLIC "-//W3C//DTD SVG 1.1//EN" "http://www.w3.org/Graphics/SVG/1.1/DTD/svg11.dtd" >
<svg xmlns="http://www.w3.org/2000/svg" xmlns:xlink="http://www.w3.org/1999/xlink" version="1.1" viewBox="0 0 314 256">
 <g >
 <path fill="currentColor"
d=" M 271.17 239.35 C 272.89 237.79 273.00 234.98 273.00 191.40 C 273.00 136.65 274.63 142.00 258.00 142.00 C 245.82 142.00 243.00 143.15 243.00 148.12 C 243.00 149.78 242.53 152.00 241.96 153.07 C 240.98 154.91 239.57 155.00 211.02 155.00 C 181.25 155.00 181.11 154.99 179.56 152.78 C 178.70 151.56 178.00 149.45 178.00 148.11 C 178.00 142.96 175.73 142.00 163.54 142.00 C 155.49 142.00 151.84 142.39 150.44 143.42 C 148.62 144.75 148.48 146.44 148.20 170.14 C 147.94 191.69 147.66 195.72 146.29 197.23 C 144.96 198.70 142.98 199.00 134.47 199.00 C 122.94 199.00 120.90 199.98 122.58 204.71 C 123.68 207.82 170.10 240.00 173.48 240.00 C 176.80 240.00 178.00 238.01 178.00 232.52 C 178.00 229.55 178.64 226.53 179.56 225.22 C 181.11 223.01 181.27 223.00 210.49 223.00 C 244.36 223.00 243.00 222.63 243.00 231.74 C 243.00 240.41 243.94 241.00 257.83 241.00 C 267.14 241.00 269.69 240.68 271.17 239.35 Z  M 33.17 211.35 C 34.74 209.93 35.00 208.07 35.00 198.35 C 35.00 183.87 34.37 183.00 23.83 183.00 C 13.35 183.00 13.00 183.48 13.00 198.08 C 13.00 212.76 13.17 213.00 23.74 213.00 C 29.41 213.00 31.81 212.58 33.17 211.35 Z  M 61.44 210.78 C 62.62 209.10 63.00 205.91 63.00 197.78 C 63.00 183.82 62.35 183.00 51.33 183.00 C 40.28 183.00 40.00 183.37 40.00 198.08 C 40.00 212.92 40.07 213.00 51.51 213.00 C 59.03 213.00 60.05 212.77 61.44 210.78 Z  M 90.44 210.78 C 92.34 208.06 92.65 190.10 90.85 186.68 C 89.10 183.36 88.11 183.03 79.82 183.02 C 69.12 182.99 69.00 183.16 69.00 198.37 C 69.00 206.55 69.40 211.00 70.20 211.80 C 70.95 212.55 74.68 213.00 80.14 213.00 C 88.04 213.00 89.04 212.79 90.44 210.78 Z  M 117.13 211.35 C 118.05 210.25 118.61 206.19 118.83 199.09 C 119.13 189.46 118.97 188.23 117.01 185.74 C 115.03 183.22 114.29 183.00 107.86 183.00 C 96.88 183.00 97.00 182.83 97.00 197.84 C 97.00 206.43 97.39 210.99 98.20 211.80 C 98.94 212.54 102.55 213.00 107.58 213.00 C 113.96 213.00 116.06 212.64 117.13 211.35 Z  M 112.02 174.43 C 113.32 171.02 113.32 92.98 112.02 89.57 C 111.06 87.02 110.97 87.00 99.56 87.00 C 89.22 87.00 87.97 86.81 87.04 85.07 C 86.47 84.00 86.00 82.50 86.00 81.73 C 86.00 80.97 90.05 74.61 95.00 67.61 C 99.95 60.61 104.00 54.32 104.00 53.64 C 104.00 50.35 101.69 50.00 80.02 50.00 C 54.04 50.00 53.43 49.80 54.28 41.56 C 55.15 33.12 54.95 33.00 39.57 33.00 C 29.91 33.00 25.95 33.35 25.17 34.29 C 24.58 35.00 22.42 44.52 20.37 55.44 C 15.59 80.89 14.01 79.00 40.08 79.00 C 58.43 79.00 58.96 79.06 60.10 81.18 C 61.09 83.04 60.93 83.64 59.02 85.18 C 57.04 86.79 54.68 87.00 38.59 87.00 C 25.78 87.00 20.05 87.35 19.20 88.20 C 18.30 89.10 18.00 100.12 18.00 131.63 C 18.00 168.68 18.19 174.05 19.57 175.43 C 20.95 176.81 26.56 177.00 66.10 177.00 C 111.05 177.00 111.05 177.00 112.02 174.43 Z  M 180.86 138.67 C 181.59 137.79 182.06 128.26 182.23 110.53 C 182.47 86.44 182.67 83.61 184.22 82.63 C 185.62 81.75 186.60 82.19 189.47 84.97 C 193.00 88.39 193.00 88.39 193.00 109.62 C 193.00 127.59 193.24 131.10 194.57 132.43 C 195.83 133.69 198.59 134.00 208.37 134.00 C 216.55 134.00 221.00 133.60 221.80 132.80 C 222.66 131.94 223.00 125.68 223.00 110.96 C 223.00 90.33 223.00 90.33 226.63 85.66 C 230.69 80.46 230.41 80.61 233.07 82.04 C 234.90 83.02 235.00 84.39 235.00 108.96 C 235.00 131.17 235.22 135.08 236.57 136.43 C 237.44 137.29 238.67 137.96 239.32 137.92 C 239.97 137.87 247.70 133.94 256.50 129.17 C 271.68 120.94 272.50 120.34 272.50 117.50 C 272.50 115.06 271.94 114.31 269.50 113.50 C 264.05 111.68 264.00 111.56 264.00 100.44 C 264.00 92.09 264.28 90.00 265.42 90.00 C 266.31 90.00 267.64 92.68 269.01 97.25 C 270.20 101.24 273.07 110.58 275.37 118.00 C 279.56 131.50 279.56 131.50 289.66 131.78 C 298.29 132.03 299.85 131.83 300.39 130.42 C 300.74 129.51 298.55 120.75 295.51 110.95 C 292.48 101.16 290.00 92.52 290.00 91.75 C 290.00 90.99 291.46 89.72 293.25 88.93 C 296.50 87.50 296.50 87.50 296.77 71.89 C 297.01 58.72 296.81 56.08 295.48 54.99 C 294.16 53.89 293.43 54.16 290.71 56.78 C 288.94 58.48 286.23 60.35 284.68 60.94 C 281.41 62.17 252.11 62.36 250.22 61.16 C 249.49 60.69 249.06 58.89 249.22 56.92 C 249.50 53.50 249.50 53.50 237.00 53.21 C 230.12 53.05 223.60 53.15 222.50 53.42 C 221.39 53.69 218.78 56.20 216.69 59.00 C 212.88 64.11 209.24 66.41 206.60 65.40 C 205.82 65.10 203.09 62.19 200.52 58.93 C 195.87 53.00 195.87 53.00 181.60 53.00 C 173.75 53.00 167.06 53.27 166.73 53.60 C 166.40 53.93 166.56 55.34 167.09 56.72 C 168.96 61.66 167.76 61.94 143.14 62.23 C 120.50 62.50 120.50 62.50 120.50 74.96 C 120.50 87.42 120.50 87.42 123.50 88.96 C 125.15 89.81 126.60 90.52 126.71 90.55 C 126.83 90.57 124.70 99.52 121.99 110.44 C 119.28 121.35 117.30 130.67 117.59 131.14 C 117.88 131.61 122.30 132.00 127.40 132.00 C 135.00 132.00 136.97 131.68 138.21 130.25 C 139.05 129.29 141.93 119.84 144.61 109.25 C 148.62 93.46 149.81 90.01 151.25 90.00 C 152.82 90.00 153.00 91.24 153.00 102.03 C 153.00 110.78 152.66 114.17 151.75 114.45 C 151.06 114.66 149.29 115.10 147.82 115.42 C 144.95 116.04 143.49 118.83 144.45 121.85 C 145.06 123.77 175.08 139.93 178.13 139.97 C 179.02 139.99 180.25 139.40 180.86 138.67 Z  M 287.00 47.00 C 288.75 45.25 289.00 43.67 289.00 34.20 C 289.00 27.13 288.59 22.99 287.80 22.20 C 286.92 21.32 278.80 21.00 257.49 21.00 C 235.20 21.00 227.97 20.70 226.61 19.70 C 225.43 18.84 224.59 16.39 224.13 12.45 C 223.74 9.18 223.08 5.94 222.65 5.25 C 222.11 4.36 218.38 4.00 209.77 4.00 C 195.28 4.00 194.00 4.66 194.00 12.08 C 194.00 16.05 193.55 17.21 191.37 18.93 C 188.84 20.92 187.55 21.00 159.84 21.00 C 130.95 21.00 130.95 21.00 129.89 23.75 C 128.42 27.54 129.18 45.31 130.90 47.38 C 132.12 48.85 139.50 49.00 208.62 49.00 C 283.67 49.00 285.03 48.97 287.00 47.00 Z  M 178.95 191.91 C 177.71 189.59 178.50 184.94 180.33 183.78 C 180.97 183.37 194.59 183.02 210.60 183.02 C 237.52 183.00 239.81 183.14 241.35 184.83 C 243.28 186.97 243.52 191.08 241.80 192.80 C 240.92 193.68 232.54 194.00 210.34 194.00 C 180.64 194.00 180.05 193.96 178.95 191.91 Z  M 49.20 148.80 C 46.60 146.20 49.16 140.00 52.83 140.00 C 54.47 140.00 58.00 143.71 58.00 145.43 C 58.00 149.10 51.85 151.45 49.20 148.80 Z  M 75.20 148.80 C 72.08 145.68 75.78 139.16 79.93 140.48 C 81.07 140.84 82.48 142.04 83.07 143.13 C 85.37 147.43 78.66 152.26 75.20 148.80 Z  M 49.20 122.80 C 47.29 120.89 47.80 117.25 50.22 115.56 C 51.44 114.70 52.79 114.00 53.22 114.00 C 54.55 114.00 58.00 117.92 58.00 119.43 C 58.00 123.10 51.85 125.45 49.20 122.80 Z  M 75.20 122.80 C 71.74 119.34 76.57 112.63 80.87 114.93 C 81.96 115.52 83.16 116.93 83.52 118.07 C 84.84 122.22 78.32 125.92 75.20 122.80 Z "/>
</g>
</svg>