<?xml version="1.0" encoding="UTF-8" standalone="no"?>
<!DOCTYPE svg PUBLIC "-//W3C//DTD SVG 1.1//EN" "http://www.w3.org/Graphics/SVG/1.1/DTD/svg11.dtd" >
<svg xmlns="http://www.w3.org/2000/svg" xmlns:xlink="http://www.w3.org/1999/xlink" version="1.1" viewBox="0 0 264 256">
 <g >
 <path fill="currentColor"
d=" M 233.18 231.46 C 238.40 229.68 241.84 226.38 245.16 220.00 C 247.50 215.50 247.50 215.50 247.22 169.75 C 246.93 124.00 246.93 124.00 249.40 124.00 C 251.85 124.00 251.83 123.92 246.18 111.53 C 243.06 104.67 240.25 99.05 239.94 99.03 C 239.63 99.01 237.85 101.02 236.00 103.50 C 233.19 107.25 232.08 108.00 229.31 108.00 C 226.00 108.00 226.00 108.00 226.00 95.16 C 226.00 88.10 225.70 74.82 225.34 65.66 C 224.69 49.00 224.69 49.00 228.84 49.00 C 231.13 49.00 233.00 48.80 233.00 48.55 C 233.00 48.18 226.76 30.32 224.45 24.07 C 224.08 23.05 222.58 23.97 219.17 27.34 C 214.40 32.03 214.40 32.03 180.45 31.76 C 146.50 31.50 146.50 31.50 146.00 27.31 C 145.50 23.12 145.50 23.12 129.18 30.31 C 112.87 37.50 112.87 37.50 118.45 42.50 C 124.03 47.50 124.03 47.50 124.01 78.56 C 124.00 109.62 124.00 109.62 112.41 112.98 C 100.82 116.35 100.82 116.35 105.85 120.92 C 110.87 125.50 110.87 125.50 111.73 169.00 C 112.31 198.76 112.25 213.61 111.54 216.00 C 110.79 218.49 109.41 220.08 106.75 221.50 C 104.02 222.96 103.00 224.15 103.00 225.91 C 103.00 228.31 103.00 228.31 117.25 227.66 C 125.09 227.30 134.31 227.01 137.75 227.00 C 143.66 227.00 144.00 226.87 144.00 224.62 C 144.00 222.79 143.32 222.11 141.05 221.66 C 139.37 221.32 137.31 219.88 136.30 218.33 C 134.66 215.83 134.46 211.75 134.00 172.17 C 133.67 143.65 133.84 128.64 134.50 128.43 C 135.61 128.09 224.34 125.23 224.77 125.53 C 225.50 126.02 227.17 205.37 226.55 209.54 C 225.63 215.65 221.15 220.69 218.09 219.05 C 215.24 217.52 214.70 214.65 216.47 210.41 C 218.43 205.73 217.77 203.56 213.87 201.95 C 207.85 199.45 202.20 204.06 201.28 212.24 C 200.35 220.50 205.96 228.81 214.50 231.79 C 218.99 233.36 228.06 233.20 233.18 231.46 Z  M 55.16 220.55 C 79.24 215.45 90.46 200.07 96.87 163.35 C 99.19 150.11 99.92 148.52 104.50 146.86 C 107.38 145.82 108.00 145.09 108.00 142.77 C 108.00 141.21 107.44 139.73 106.75 139.49 C 106.06 139.24 97.30 138.22 87.28 137.22 C 71.91 135.69 68.98 135.62 68.53 136.78 C 67.36 139.83 68.06 141.80 70.53 142.42 C 72.08 142.81 73.69 144.37 74.69 146.49 C 76.22 149.67 76.21 150.79 74.60 162.13 C 71.98 180.65 66.35 192.28 57.19 198.09 C 43.87 206.54 27.69 195.17 34.45 182.10 C 36.30 178.53 42.33 173.21 45.41 172.43 C 48.71 171.60 53.55 174.35 55.15 177.98 C 57.41 183.07 60.46 181.38 61.51 174.45 C 63.38 162.08 46.27 154.57 32.20 161.59 C 26.38 164.49 21.12 170.08 17.77 176.92 C 14.53 183.54 14.09 195.15 16.84 201.36 C 21.20 211.24 28.63 217.60 39.03 220.40 C 45.96 222.26 47.06 222.27 55.16 220.55 Z  M 176.00 197.98 C 176.00 196.77 175.05 195.59 173.64 195.05 C 172.34 194.56 171.00 193.44 170.67 192.58 C 170.17 191.28 170.90 191.00 174.78 190.99 C 177.38 190.99 181.97 190.69 185.00 190.33 C 190.05 189.72 190.39 189.81 189.13 191.34 C 188.37 192.25 187.14 193.00 186.38 193.00 C 185.57 193.00 185.00 194.04 185.00 195.50 C 185.00 198.00 185.00 198.00 201.00 198.00 C 214.59 198.00 217.00 197.77 217.00 196.49 C 217.00 195.66 215.88 194.01 214.51 192.82 C 211.59 190.28 211.28 188.61 210.57 171.75 C 210.04 159.00 210.04 159.00 212.77 158.98 C 218.15 158.95 218.25 158.19 214.35 146.45 C 212.35 140.43 210.55 135.31 210.34 135.07 C 210.14 134.83 208.41 136.15 206.50 138.00 C 203.04 141.36 203.04 141.36 186.52 141.81 C 170.00 142.26 170.00 142.26 170.00 138.63 C 170.00 136.63 169.64 135.00 169.20 135.00 C 168.10 135.00 144.81 142.86 144.25 143.42 C 144.00 143.66 144.97 145.40 146.40 147.28 C 149.00 150.69 149.00 150.69 149.00 170.84 C 149.00 189.67 148.87 191.13 147.00 193.00 C 145.90 194.10 144.55 195.00 144.00 195.00 C 143.45 195.00 143.00 196.12 143.00 197.50 C 143.00 200.00 143.00 200.00 159.50 200.00 C 175.40 200.00 176.00 199.93 176.00 197.98 Z  M 37.80 134.19 C 40.75 132.28 42.77 128.35 43.61 122.85 C 44.63 116.21 46.67 113.05 51.32 110.94 C 56.31 108.68 64.99 108.42 68.80 110.42 C 72.73 112.49 80.39 120.73 83.74 126.50 C 86.18 130.70 87.11 131.50 89.57 131.50 C 92.20 131.50 92.53 131.14 92.80 127.98 C 93.03 125.24 92.16 123.02 88.91 117.98 C 81.43 106.40 78.27 103.24 70.17 99.24 C 63.20 95.80 61.93 95.50 54.05 95.51 C 43.42 95.53 38.22 97.80 31.19 105.48 C 24.77 112.50 22.62 117.16 22.55 124.17 C 22.45 134.85 29.55 139.51 37.80 134.19 Z  M 36.70 91.04 C 40.49 88.73 42.69 84.84 43.61 78.85 C 44.57 72.59 46.43 69.50 50.36 67.63 C 54.19 65.82 63.46 65.47 67.46 66.99 C 71.49 68.52 79.70 76.74 83.05 82.59 C 86.24 88.16 89.12 89.98 91.55 87.96 C 94.92 85.16 92.05 78.29 82.31 65.87 C 72.45 53.30 53.10 48.81 39.25 55.87 C 34.56 58.26 27.88 65.35 25.02 70.97 C 17.88 84.96 25.42 97.92 36.70 91.04 Z  M 147.22 99.75 C 147.50 88.50 147.50 88.50 157.62 88.22 C 169.57 87.88 168.96 87.16 168.99 101.75 C 169.00 111.00 169.00 111.00 157.97 111.00 C 146.93 111.00 146.93 111.00 147.22 99.75 Z  M 190.00 98.54 C 190.00 87.00 190.00 87.00 193.11 87.00 C 195.65 87.00 196.10 86.68 195.56 85.25 C 195.20 84.29 192.79 78.41 190.20 72.19 C 185.50 60.88 185.50 60.88 181.00 65.89 C 176.50 70.91 176.50 70.91 161.75 71.59 C 147.00 72.27 147.00 72.27 147.00 62.22 C 147.00 56.69 146.73 51.45 146.39 50.58 C 145.85 49.16 148.75 49.00 174.78 49.00 C 203.78 49.00 203.78 49.00 204.46 67.25 C 204.84 77.29 205.00 90.90 204.82 97.50 C 204.50 109.50 204.50 109.50 197.25 109.79 C 190.00 110.09 190.00 110.09 190.00 98.54 Z  M 170.00 166.50 C 170.00 159.00 170.00 159.00 180.50 159.00 C 191.00 159.00 191.00 159.00 191.00 166.50 C 191.00 174.00 191.00 174.00 180.50 174.00 C 170.00 174.00 170.00 174.00 170.00 166.50 Z "/>
</g>
</svg>