<?xml version="1.0" encoding="UTF-8" standalone="no"?>
<!DOCTYPE svg PUBLIC "-//W3C//DTD SVG 1.1//EN" "http://www.w3.org/Graphics/SVG/1.1/DTD/svg11.dtd" >
<svg xmlns="http://www.w3.org/2000/svg" xmlns:xlink="http://www.w3.org/1999/xlink" version="1.1" viewBox="0 0 226 256">
 <g >
 <path fill="currentColor"
d=" M 168.43 247.33 C 186.13 242.93 195.77 232.71 196.79 217.27 C 197.52 206.11 194.05 199.33 185.60 195.39 C 176.47 191.14 164.74 192.69 158.14 199.02 C 155.06 201.97 151.02 210.70 151.01 214.44 C 151.00 218.05 154.51 222.00 157.74 222.00 C 161.38 222.00 163.59 220.41 165.02 216.79 C 167.99 209.29 174.15 206.52 177.44 211.22 C 181.06 216.38 177.73 223.91 170.40 227.15 C 162.62 230.59 143.43 229.45 133.15 224.93 C 128.80 223.02 128.80 223.02 132.86 218.17 C 138.57 211.35 145.37 200.04 148.02 192.95 C 150.27 186.94 150.27 186.94 168.63 187.62 C 178.73 188.00 187.00 188.08 187.00 187.79 C 187.00 187.50 185.20 182.48 183.00 176.62 C 180.80 170.77 179.00 165.59 179.00 165.13 C 179.00 164.67 182.54 164.04 186.87 163.75 C 206.02 162.43 218.18 149.83 215.02 134.58 C 213.72 128.35 208.24 121.29 202.63 118.63 C 198.36 116.60 189.83 116.52 186.07 118.46 C 182.05 120.54 178.19 125.48 177.43 129.51 C 176.62 133.83 179.50 139.85 183.40 142.00 C 185.94 143.40 186.24 143.35 187.97 141.25 C 189.54 139.34 189.65 138.53 188.68 135.97 C 187.20 132.05 188.66 129.60 192.74 129.20 C 196.72 128.80 200.00 132.75 200.00 137.96 C 200.00 144.80 193.52 147.94 183.72 145.86 C 170.06 142.97 157.37 132.68 143.64 113.38 C 141.64 110.56 140.00 108.09 140.00 107.88 C 140.00 107.67 153.95 107.64 171.00 107.80 C 188.05 107.97 202.00 107.92 202.00 107.69 C 202.00 106.92 196.95 84.52 196.46 83.16 C 196.16 82.28 194.53 83.43 191.75 86.48 C 187.69 90.94 187.29 91.14 182.76 90.83 C 178.03 90.50 178.03 90.50 187.51 78.23 C 192.73 71.49 197.00 65.76 197.00 65.52 C 197.00 65.27 196.06 64.57 194.92 63.96 C 193.31 63.09 192.46 63.16 191.17 64.27 C 187.23 67.64 183.30 67.11 177.78 62.47 C 174.85 60.00 174.85 60.00 190.92 60.00 C 207.00 60.00 207.00 60.00 207.00 57.48 C 207.00 55.73 206.26 54.67 204.60 54.04 C 201.53 52.87 201.12 52.15 200.36 46.58 C 199.73 42.00 199.73 42.00 204.36 42.00 C 206.91 42.00 209.00 41.87 209.00 41.71 C 209.00 41.56 206.62 35.49 203.71 28.24 C 198.42 15.06 198.42 15.06 193.46 19.92 C 188.50 24.78 188.50 24.78 158.25 25.30 C 128.00 25.81 128.00 25.81 128.00 15.78 C 128.00 5.75 128.00 5.75 125.25 6.28 C 123.74 6.57 114.96 8.08 105.75 9.64 C 96.54 11.20 89.01 12.71 89.01 12.99 C 89.02 13.27 92.65 15.45 97.07 17.83 C 102.84 20.93 105.03 22.63 104.80 23.83 C 104.46 25.59 103.69 25.64 57.12 27.35 C 42.74 27.88 42.74 27.88 43.32 22.94 C 43.64 20.22 43.74 18.00 43.53 18.00 C 42.82 18.00 14.55 29.12 14.09 29.58 C 13.83 29.83 15.51 31.96 17.81 34.31 C 22.38 38.96 22.99 41.91 20.93 49.33 C 20.13 52.20 19.14 53.41 16.93 54.17 C 14.84 54.90 14.00 55.85 14.00 57.49 C 14.00 59.76 14.24 59.80 28.75 60.51 C 36.86 60.91 43.85 61.44 44.28 61.70 C 44.71 61.95 43.91 63.07 42.50 64.18 C 39.24 66.74 33.71 66.95 31.13 64.62 C 29.55 63.19 28.76 63.06 27.06 63.97 C 24.55 65.31 24.31 64.84 33.86 77.00 C 37.97 82.22 41.76 87.06 42.29 87.75 C 43.03 88.72 41.56 89.00 35.59 89.00 C 30.34 89.00 27.82 88.61 27.55 87.75 C 27.34 87.06 26.90 85.26 26.56 83.75 C 26.12 81.71 25.36 81.00 23.63 81.00 C 21.38 81.00 21.28 81.35 20.65 91.66 C 20.29 97.52 20.00 104.94 20.00 108.16 C 20.00 113.72 20.12 114.00 22.50 114.00 C 24.33 114.00 25.00 113.47 25.00 112.00 C 25.00 110.90 25.90 109.10 27.00 108.00 C 28.90 106.10 30.33 106.00 57.00 106.00 C 73.98 106.00 85.00 106.37 85.00 106.95 C 85.00 108.63 75.33 119.58 68.60 125.52 C 53.44 138.91 46.12 143.00 37.27 143.00 C 27.19 143.00 23.03 136.39 27.99 128.25 C 31.99 121.69 38.21 125.09 37.76 133.59 C 37.52 138.05 37.71 138.53 39.81 138.83 C 43.28 139.32 46.78 136.48 48.09 132.09 C 49.58 127.13 48.77 123.94 44.89 119.53 C 40.60 114.64 35.61 113.29 28.29 115.05 C 18.05 117.51 12.00 125.47 12.00 136.50 C 12.00 147.08 18.47 155.49 28.78 158.27 C 33.06 159.43 33.06 159.43 32.38 176.22 C 31.69 193.00 31.69 193.00 34.35 193.00 C 36.22 193.00 37.00 192.48 37.00 191.22 C 37.00 188.61 39.83 185.01 42.76 183.90 C 44.30 183.32 50.80 183.20 59.05 183.61 C 72.78 184.29 72.78 184.29 74.57 190.89 C 77.91 203.27 82.16 212.37 88.30 220.30 C 89.92 222.38 91.07 224.24 90.87 224.41 C 89.60 225.50 78.43 228.93 72.70 229.99 C 57.73 232.76 44.00 227.41 44.00 218.82 C 44.00 211.64 49.63 207.16 54.92 210.13 C 57.37 211.50 58.30 213.35 59.45 219.14 C 60.96 226.69 70.00 220.67 70.00 212.11 C 70.00 202.36 61.50 195.07 50.07 195.02 C 43.33 194.99 37.40 197.71 32.62 203.00 C 28.50 207.56 26.67 213.18 26.57 221.52 C 26.51 226.71 26.96 228.27 29.85 232.77 C 33.30 238.14 38.08 242.49 43.68 245.36 C 56.03 251.67 88.87 248.82 105.02 240.04 C 108.54 238.13 108.54 238.13 114.61 241.05 C 122.04 244.61 130.13 246.74 142.83 248.47 C 153.26 249.90 159.14 249.63 168.43 247.33 Z  M 106.31 209.75 C 105.18 208.51 103.53 206.34 102.63 204.93 C 100.85 202.11 96.00 188.48 96.00 186.28 C 96.00 185.15 98.53 185.03 110.25 185.59 C 118.09 185.96 124.64 186.39 124.82 186.54 C 125.55 187.15 119.80 197.05 114.53 204.25 C 111.41 208.51 108.75 212.00 108.61 212.00 C 108.46 212.00 107.43 210.99 106.31 209.75 Z  M 122.50 168.95 C 110.95 168.58 99.98 168.22 98.11 168.14 C 94.72 168.00 94.72 168.00 95.40 159.68 C 96.08 151.36 96.08 151.36 81.79 153.62 C 73.93 154.87 66.90 155.91 66.16 155.94 C 65.34 155.98 66.19 157.86 68.41 160.88 C 70.39 163.57 72.00 166.05 72.00 166.38 C 72.00 166.72 65.90 167.00 58.45 167.00 C 48.26 167.00 44.17 166.62 41.95 165.47 C 40.33 164.64 39.00 163.55 39.00 163.06 C 39.00 162.57 38.73 161.45 38.39 160.58 C 37.88 159.23 38.81 159.00 44.70 159.00 C 50.71 159.00 52.68 158.48 59.88 155.00 C 75.88 147.26 87.58 138.18 97.88 125.50 C 101.13 121.50 101.13 121.50 100.69 128.07 C 100.12 136.69 98.98 138.57 92.98 140.70 C 89.08 142.09 88.00 142.94 88.00 144.64 C 88.00 147.33 90.32 147.66 115.25 148.57 C 132.79 149.21 133.00 149.19 133.00 147.13 C 133.00 145.73 132.17 144.83 130.48 144.41 C 125.45 143.14 124.00 139.71 124.01 129.12 C 124.02 119.50 124.02 119.50 127.14 124.94 C 134.06 137.02 155.43 155.26 169.46 161.07 C 175.03 163.38 175.03 163.38 171.82 166.69 C 168.61 170.00 168.61 170.00 156.05 169.81 C 149.15 169.71 134.05 169.32 122.50 168.95 Z  M 150.46 88.31 C 151.72 83.29 153.89 79.00 155.20 78.95 C 155.91 78.93 157.80 78.35 159.39 77.67 C 162.29 76.44 162.29 76.44 151.64 68.72 C 145.79 64.47 140.83 61.00 140.63 61.00 C 140.42 61.00 137.89 67.53 135.00 75.50 C 129.89 89.58 129.66 90.00 126.87 90.00 C 124.00 90.00 124.00 90.00 124.00 69.50 C 124.00 51.37 123.81 49.00 122.40 49.00 C 120.45 49.00 96.05 52.95 94.13 53.58 C 93.19 53.89 94.05 55.41 96.88 58.49 C 101.00 62.96 101.00 62.96 101.00 76.48 C 101.00 90.00 101.00 90.00 96.67 90.00 C 92.34 90.00 92.34 90.00 88.09 76.44 C 85.76 68.99 83.53 63.02 83.14 63.19 C 82.74 63.36 77.56 66.86 71.62 70.97 C 60.82 78.43 60.82 78.43 65.51 80.00 C 68.41 80.97 70.72 82.51 71.57 84.04 C 74.21 88.82 73.84 89.00 61.00 89.00 C 49.00 89.00 49.00 89.00 49.00 86.53 C 49.00 82.99 53.13 78.83 67.88 67.50 C 75.04 62.00 80.92 57.06 80.95 56.53 C 80.98 55.99 78.50 53.03 75.44 49.94 C 69.87 44.31 69.87 44.31 82.09 43.66 C 88.81 43.30 107.84 43.00 124.38 43.00 C 154.45 43.00 154.45 43.00 147.60 49.90 C 140.75 56.81 140.75 56.81 154.59 67.65 C 173.23 82.26 173.13 82.15 172.85 87.00 C 172.61 91.00 172.61 91.00 161.20 91.00 C 149.78 91.00 149.78 91.00 150.46 88.31 Z  M 46.61 55.92 C 42.79 53.59 42.03 52.24 42.02 47.75 C 42.00 44.00 42.00 44.00 51.36 44.00 C 60.72 44.00 60.72 44.00 60.25 46.47 C 59.99 47.84 57.48 50.90 54.64 53.32 C 49.50 57.69 49.50 57.69 46.61 55.92 Z  M 167.50 52.82 C 163.79 49.85 162.35 47.93 161.91 45.40 C 161.31 42.00 161.31 42.00 170.16 42.00 C 179.00 42.00 179.00 42.00 179.00 47.48 C 179.00 52.50 178.79 53.01 176.49 53.59 C 175.11 53.94 173.64 54.81 173.24 55.52 C 172.69 56.48 171.19 55.77 167.50 52.82 Z "/>
</g>
</svg>