<?xml version="1.0" encoding="UTF-8" standalone="no"?>
<!DOCTYPE svg PUBLIC "-//W3C//DTD SVG 1.1//EN" "http://www.w3.org/Graphics/SVG/1.1/DTD/svg11.dtd" >
<svg xmlns="http://www.w3.org/2000/svg" xmlns:xlink="http://www.w3.org/1999/xlink" version="1.1" viewBox="0 0 238 256">
 <g >
 <path fill="currentColor"
d=" M 60.76 245.15 C 72.62 241.46 80.78 233.03 84.66 220.47 C 86.20 215.47 86.46 211.71 86.23 197.36 C 85.96 180.23 85.96 180.23 89.23 179.65 C 91.03 179.33 97.98 178.32 104.69 177.39 C 111.39 176.46 117.37 175.39 117.99 175.01 C 119.02 174.37 113.42 158.49 109.56 151.13 C 108.26 148.64 108.26 148.64 104.57 153.77 C 100.57 159.34 100.21 159.53 91.88 160.47 C 86.61 161.07 86.22 160.97 85.64 158.81 C 85.31 157.54 85.02 153.52 85.01 149.88 C 85.00 143.25 85.00 143.25 99.48 142.82 C 107.44 142.58 114.22 142.11 114.55 141.78 C 115.07 141.26 106.20 115.00 105.50 115.00 C 105.36 115.00 103.37 117.47 101.09 120.50 C 96.94 126.00 96.94 126.00 91.10 126.00 C 85.27 126.00 85.27 126.00 84.64 121.36 C 84.29 118.81 84.00 111.16 84.00 104.36 C 84.00 96.14 83.64 92.00 82.92 92.00 C 82.32 92.00 75.29 93.90 67.29 96.23 C 52.75 100.46 52.75 100.46 57.88 104.98 C 63.00 109.50 63.00 109.50 63.00 117.63 C 63.00 127.29 63.49 126.97 48.88 126.99 C 37.41 127.00 34.41 125.44 33.37 118.93 C 32.85 115.64 32.36 115.00 30.37 115.00 C 28.02 115.00 28.00 115.07 28.11 125.75 C 28.16 131.66 28.50 140.55 28.86 145.50 C 29.44 153.66 29.70 154.53 31.61 154.80 C 33.37 155.05 33.83 154.45 34.34 151.28 C 35.51 143.93 36.29 143.54 50.42 143.17 C 63.00 142.84 63.00 142.84 63.00 153.31 C 63.00 161.31 62.67 163.91 61.62 164.32 C 57.81 165.78 39.16 168.26 36.68 167.64 C 35.08 167.23 33.14 165.66 32.18 163.97 C 30.51 161.03 26.99 159.86 27.01 162.25 C 27.05 166.25 29.94 194.27 30.35 194.69 C 31.47 195.80 35.00 193.73 35.00 191.96 C 35.00 188.76 39.30 186.96 51.63 184.98 C 58.12 183.94 63.53 183.20 63.67 183.33 C 63.80 183.47 64.04 190.99 64.21 200.04 C 64.48 215.11 64.32 216.84 62.41 220.50 C 58.05 228.86 48.34 231.68 42.08 226.41 C 39.62 224.34 39.00 223.04 39.00 219.97 C 39.00 215.69 42.10 211.31 45.50 210.80 C 47.24 210.54 47.50 211.07 47.50 214.88 C 47.50 219.86 49.26 221.65 53.17 220.67 C 56.02 219.96 57.85 216.55 58.58 210.62 C 59.19 205.58 57.62 202.34 53.09 199.28 C 43.66 192.92 28.28 200.42 24.62 213.15 C 22.11 221.90 22.50 227.60 26.03 233.75 C 32.56 245.14 46.30 249.65 60.76 245.15 Z  M 226.00 195.18 C 226.00 164.44 225.60 144.17 224.92 140.43 C 221.52 121.83 206.40 106.46 187.09 101.98 C 176.36 99.49 160.88 101.94 148.97 108.01 C 143.20 110.96 133.21 121.14 129.77 127.57 C 124.17 138.07 124.00 140.04 124.00 193.79 C 124.00 231.65 124.28 243.07 125.20 242.77 C 125.85 242.55 126.73 241.09 127.15 239.52 C 127.57 237.95 128.50 236.30 129.21 235.85 C 129.92 235.40 150.39 235.02 174.69 235.02 C 218.89 235.00 218.89 235.00 220.44 237.22 C 221.30 238.44 222.00 240.47 222.00 241.72 C 222.00 243.33 222.59 244.00 224.00 244.00 C 225.97 244.00 226.00 243.33 226.00 195.18 Z  M 54.00 94.05 C 64.83 88.48 71.37 80.46 76.42 66.62 C 79.20 59.00 79.20 59.00 84.58 59.00 C 89.97 59.00 89.97 59.00 92.35 63.75 C 95.92 70.88 96.51 75.49 94.15 77.85 C 93.09 78.91 91.48 80.19 90.57 80.70 C 88.95 81.61 89.30 85.00 91.02 85.00 C 93.38 85.00 123.00 72.64 122.98 71.66 C 122.95 69.21 121.24 67.79 119.12 68.46 C 115.58 69.58 113.43 68.20 110.58 62.97 C 108.56 59.26 108.20 57.88 109.18 57.56 C 109.91 57.33 115.80 56.83 122.29 56.47 C 136.03 55.69 135.43 57.44 127.66 40.87 C 122.47 29.83 122.47 29.83 118.52 35.28 C 114.57 40.74 114.57 40.74 99.53 41.71 C 91.27 42.25 84.35 42.57 84.16 42.42 C 83.37 41.80 86.28 30.87 88.30 26.87 C 90.00 23.49 91.18 22.39 93.50 22.00 C 96.00 21.57 96.55 20.97 96.81 18.34 C 97.07 15.58 96.76 15.11 94.31 14.62 C 86.90 13.13 59.84 9.98 58.98 10.51 C 57.20 11.61 57.96 14.19 61.11 17.78 C 64.62 21.78 64.60 20.61 61.58 44.00 C 59.71 58.48 58.09 63.66 53.10 71.08 C 45.87 81.86 34.70 84.14 28.25 76.16 C 26.72 74.27 26.63 69.10 28.07 65.32 C 29.92 60.42 32.95 58.00 37.23 58.00 C 40.88 58.00 41.23 58.28 43.13 62.56 C 45.37 67.63 47.24 68.88 49.62 66.90 C 51.73 65.15 50.94 57.74 48.26 54.14 C 41.45 45.01 26.63 45.54 18.47 55.21 C 12.33 62.48 10.15 73.64 13.37 81.35 C 15.53 86.50 21.02 92.09 26.49 94.71 C 30.88 96.80 32.62 97.05 40.50 96.73 C 47.45 96.45 50.53 95.84 54.00 94.05 Z  M 206.50 94.62 C 218.12 89.12 223.15 77.10 218.03 67.05 C 214.01 59.17 207.24 56.46 199.85 59.76 C 194.34 62.23 192.07 64.79 191.32 69.40 C 190.16 76.56 196.89 79.90 199.56 73.50 C 200.67 70.85 201.62 70.00 203.48 70.00 C 208.24 70.00 209.06 76.41 204.88 80.90 C 203.65 82.22 201.69 83.00 199.61 83.00 C 191.73 83.00 185.08 73.91 184.23 61.95 C 183.75 55.31 183.75 55.31 188.52 54.65 C 191.14 54.29 199.52 54.00 207.14 54.00 C 214.76 54.00 221.00 53.81 221.00 53.59 C 221.00 53.09 211.18 30.10 210.48 28.97 C 210.21 28.53 207.85 30.34 205.24 33.01 C 200.50 37.85 200.50 37.85 181.63 38.26 C 162.75 38.67 162.75 38.67 163.27 32.21 C 163.87 24.72 166.11 20.97 170.83 19.54 C 173.53 18.73 174.00 18.11 174.00 15.39 C 174.00 12.23 173.93 12.19 168.25 11.63 C 165.09 11.32 155.86 10.78 147.75 10.43 C 134.21 9.84 133.00 9.93 133.00 11.51 C 133.00 12.46 134.30 14.72 135.90 16.53 C 140.02 21.23 141.49 30.61 140.08 43.21 C 138.01 61.78 132.44 70.96 116.72 81.73 C 111.63 85.21 110.58 88.44 113.57 91.43 C 117.63 95.48 123.57 94.09 135.19 86.37 C 144.12 80.44 150.34 73.30 154.81 63.85 C 158.27 56.54 158.70 56.05 161.69 56.03 C 164.75 56.00 164.90 56.19 165.46 60.75 C 167.29 75.51 171.57 86.05 177.63 90.67 C 186.09 97.12 197.81 98.72 206.50 94.62 Z  M 144.02 188.25 C 144.05 147.05 145.15 140.37 153.48 131.16 C 167.09 116.09 191.40 119.43 199.91 137.54 C 203.56 145.29 203.95 149.86 203.98 184.75 C 204.00 219.00 204.00 219.00 174.00 219.00 C 144.00 219.00 144.00 219.00 144.02 188.25 Z "/>
</g>
</svg>