<?xml version="1.0" encoding="UTF-8" standalone="no"?>
<!DOCTYPE svg PUBLIC "-//W3C//DTD SVG 1.1//EN" "http://www.w3.org/Graphics/SVG/1.1/DTD/svg11.dtd" >
<svg xmlns="http://www.w3.org/2000/svg" xmlns:xlink="http://www.w3.org/1999/xlink" version="1.1" viewBox="0 0 244 256">
 <g >
 <path fill="currentColor"
d=" M 94.00 223.50 C 94.00 221.97 93.43 221.00 92.53 221.00 C 89.68 221.00 84.18 217.69 83.10 215.31 C 81.93 212.75 81.49 171.00 82.63 171.00 C 84.39 171.00 94.16 177.43 95.11 179.21 C 95.72 180.35 95.97 182.79 95.67 184.64 C 95.25 187.25 95.54 188.22 97.00 189.00 C 98.03 189.55 99.05 190.00 99.27 190.00 C 99.49 190.00 103.16 182.56 107.44 173.48 C 113.79 159.97 114.98 156.68 113.98 155.48 C 112.24 153.37 110.69 153.64 108.00 156.50 C 106.71 157.88 104.77 159.00 103.69 159.00 C 102.61 159.00 97.29 156.42 91.86 153.27 C 83.31 148.30 82.00 147.19 82.00 144.90 C 82.00 142.26 82.00 142.26 98.98 141.81 C 108.32 141.57 116.24 141.10 116.57 140.76 C 117.30 140.03 112.08 117.00 111.19 117.00 C 110.85 117.00 108.63 118.91 106.25 121.25 C 101.92 125.50 101.92 125.50 91.96 125.84 C 82.00 126.19 82.00 126.19 82.00 118.59 C 82.00 111.00 82.00 111.00 92.94 111.00 C 98.98 111.00 104.15 110.56 104.49 110.02 C 104.82 109.49 102.74 103.58 99.87 96.89 C 94.65 84.73 94.65 84.73 90.27 89.36 C 87.86 91.91 85.01 94.00 83.95 94.00 C 82.19 94.00 82.00 93.26 82.00 86.40 C 82.00 78.79 82.00 78.79 96.50 79.52 C 104.47 79.92 111.00 79.90 111.00 79.49 C 111.00 79.08 109.34 73.09 107.31 66.19 C 103.62 53.64 103.62 53.64 99.06 58.59 C 94.50 63.55 94.50 63.55 87.75 63.19 C 81.00 62.83 81.00 62.83 81.00 47.41 C 81.00 38.94 80.66 32.01 80.25 32.02 C 79.84 32.03 72.65 34.19 64.27 36.83 C 49.04 41.63 49.04 41.63 53.56 46.06 C 58.02 50.44 58.08 50.58 57.79 56.41 C 57.50 62.33 57.50 62.33 49.50 62.11 C 37.94 61.80 34.43 60.67 33.09 56.84 C 32.49 55.11 32.00 52.87 32.00 51.85 C 32.00 50.54 31.27 50.00 29.50 50.00 C 27.00 50.00 27.00 50.00 27.00 70.07 C 27.00 90.14 27.00 90.14 29.23 89.82 C 31.00 89.57 31.60 88.61 32.19 85.14 C 33.39 78.11 33.82 77.90 46.40 78.22 C 57.50 78.50 57.50 78.50 57.50 87.00 C 57.50 95.50 57.50 95.50 50.00 95.80 C 43.32 96.07 42.31 95.86 40.75 93.94 C 39.79 92.75 39.00 90.93 39.00 89.89 C 39.00 88.67 38.29 88.00 37.00 88.00 C 35.17 88.00 35.00 88.67 35.00 95.85 C 35.00 100.16 35.29 107.81 35.65 112.85 C 36.21 120.78 36.54 122.00 38.11 122.00 C 39.38 122.00 40.25 120.80 40.99 118.03 C 41.93 114.55 42.56 113.93 46.09 112.98 C 48.31 112.38 52.00 112.03 54.31 112.20 C 58.50 112.50 58.50 112.50 58.79 119.75 C 59.09 127.00 59.09 127.00 47.57 127.00 C 34.63 127.00 33.95 126.63 32.57 118.75 C 32.02 115.61 31.51 115.00 29.45 115.00 C 27.00 115.00 27.00 115.00 27.00 135.00 C 27.00 155.00 27.00 155.00 29.32 155.00 C 31.23 155.00 31.91 154.14 33.07 150.26 C 34.97 143.98 37.09 143.03 49.38 143.01 C 59.25 143.00 59.25 143.00 58.76 148.15 C 58.14 154.60 48.31 174.54 42.99 180.14 C 39.75 183.54 38.76 184.00 34.65 184.00 C 29.04 184.00 26.00 181.51 26.00 176.92 C 26.00 169.87 36.57 164.76 39.20 170.54 C 41.26 175.06 45.91 171.77 44.64 166.70 C 43.59 162.52 39.85 159.14 34.86 157.85 C 30.86 156.81 29.56 156.90 25.36 158.48 C 15.84 162.08 11.22 170.53 12.21 182.51 C 12.81 189.71 16.00 194.17 23.38 198.11 C 28.63 200.92 29.91 201.20 35.42 200.76 C 42.54 200.19 45.87 198.67 53.33 192.59 C 58.70 188.22 58.70 188.22 59.35 200.16 C 60.14 214.96 59.12 218.32 53.33 219.93 C 51.22 220.51 48.94 220.99 48.25 220.99 C 47.56 221.00 47.00 222.12 47.00 223.50 C 47.00 226.00 47.00 226.00 70.50 226.00 C 94.00 226.00 94.00 226.00 94.00 223.50 Z  M 155.00 221.70 C 155.00 219.89 153.94 218.95 150.06 217.31 C 146.00 215.59 144.95 214.62 144.21 211.86 C 143.71 210.01 143.43 208.34 143.58 208.15 C 143.73 207.96 156.72 208.14 172.44 208.54 C 195.84 209.14 200.82 209.51 199.93 210.59 C 199.33 211.31 197.30 212.41 195.42 213.03 C 192.78 213.90 192.00 214.71 192.00 216.58 C 192.00 218.84 192.36 219.00 197.34 219.00 C 200.28 219.00 209.50 219.30 217.84 219.66 C 233.00 220.31 233.00 220.31 232.98 217.91 C 232.96 216.19 232.04 215.07 229.75 214.00 C 227.88 213.12 226.26 211.46 225.87 210.00 C 225.50 208.62 225.15 196.59 225.10 183.25 C 225.00 159.00 225.00 159.00 228.43 159.00 C 231.85 159.00 231.85 159.00 227.29 145.25 C 224.77 137.69 222.52 131.28 222.26 131.00 C 222.01 130.72 219.94 132.64 217.65 135.26 C 213.50 140.02 213.50 140.02 178.22 140.01 C 142.93 140.00 142.93 140.00 143.22 129.75 C 143.50 119.50 143.50 119.50 177.00 118.94 C 195.43 118.64 211.51 118.74 212.75 119.17 C 214.04 119.62 215.00 120.78 215.00 121.89 C 215.00 124.90 216.07 127.00 217.61 127.00 C 218.75 127.00 219.00 123.36 219.00 106.55 C 219.00 83.44 218.26 78.47 213.34 68.36 C 205.22 51.66 189.36 42.02 170.00 42.02 C 148.87 42.02 132.09 53.69 123.67 74.22 C 121.54 79.40 121.49 80.70 121.00 145.00 C 120.61 195.62 120.21 211.01 119.22 212.74 C 117.75 215.31 113.06 218.00 110.05 218.00 C 108.54 218.00 108.00 218.65 108.00 220.47 C 108.00 222.94 108.00 222.94 120.25 223.25 C 156.46 224.18 155.00 224.25 155.00 221.70 Z  M 154.72 189.25 C 142.95 188.94 142.95 188.94 143.22 174.22 C 143.50 159.50 143.50 159.50 172.75 159.23 C 202.00 158.97 202.00 158.97 202.00 174.48 C 202.00 190.00 202.00 190.00 184.25 189.78 C 174.49 189.67 161.20 189.43 154.72 189.25 Z  M 144.01 100.75 C 144.01 99.51 144.47 94.51 145.03 89.64 C 147.17 70.98 156.13 61.00 170.76 61.00 C 181.69 61.00 191.74 69.65 195.49 82.28 C 197.58 89.32 197.54 101.58 195.42 102.39 C 194.55 102.73 182.62 103.00 168.92 103.00 C 144.00 103.00 144.00 103.00 144.01 100.75 Z "/>
</g>
</svg>