<?xml version="1.0" encoding="UTF-8" standalone="no"?>
<!DOCTYPE svg PUBLIC "-//W3C//DTD SVG 1.1//EN" "http://www.w3.org/Graphics/SVG/1.1/DTD/svg11.dtd" >
<svg xmlns="http://www.w3.org/2000/svg" xmlns:xlink="http://www.w3.org/1999/xlink" version="1.1" viewBox="0 0 346 256">
 <g >
 <path fill="currentColor"
d=" M 168.51 237.97 C 169.81 232.01 167.31 232.23 242.62 231.45 C 311.73 230.73 311.73 230.73 306.72 218.29 C 301.71 205.86 301.71 205.86 297.07 210.43 C 292.43 215.00 292.43 215.00 269.72 215.00 C 247.00 215.00 247.00 215.00 247.00 202.02 C 247.00 189.04 247.00 189.04 267.36 188.77 C 287.72 188.50 287.72 188.50 283.11 176.32 C 280.57 169.63 278.23 163.88 277.90 163.55 C 277.56 163.23 275.42 164.99 273.13 167.48 C 268.96 172.00 268.96 172.00 258.11 172.00 C 247.26 172.00 247.26 172.00 246.53 154.18 C 245.81 136.36 245.81 136.36 228.32 141.10 C 218.69 143.71 210.62 146.05 210.38 146.29 C 210.13 146.53 213.10 148.61 216.97 150.91 C 224.00 155.09 224.00 155.09 224.00 163.04 C 224.00 171.00 224.00 171.00 210.25 170.99 C 194.59 170.97 192.07 170.21 190.38 164.97 C 189.52 162.33 188.62 161.42 186.63 161.18 C 184.00 160.87 184.00 160.87 183.99 172.18 C 183.99 178.41 183.70 185.86 183.35 188.75 C 182.76 193.66 182.86 194.00 184.88 194.00 C 186.19 194.00 187.47 193.06 188.13 191.61 C 190.06 187.38 193.07 186.81 209.19 187.57 C 224.00 188.28 224.00 188.28 224.00 201.53 C 224.00 214.78 224.00 214.78 201.55 215.51 C 173.46 216.43 172.45 216.26 169.87 210.44 C 168.51 207.37 167.30 206.00 165.95 206.00 C 164.11 206.00 164.00 206.78 163.99 219.75 C 163.98 227.31 163.70 235.19 163.36 237.25 C 162.78 240.77 162.90 241.00 165.29 241.00 C 167.32 241.00 167.98 240.38 168.51 237.97 Z  M 40.35 237.92 C 48.95 235.53 56.55 224.04 60.01 208.19 C 61.95 199.29 64.11 196.00 67.99 196.00 C 68.97 196.00 70.00 195.10 70.29 194.00 C 70.58 192.90 70.52 192.00 70.16 192.00 C 69.48 192.00 46.65 188.42 41.81 187.55 C 37.47 186.78 37.06 190.32 41.06 194.06 C 44.20 196.99 44.26 197.20 43.62 203.39 C 42.36 215.67 37.52 224.00 31.65 224.00 C 25.07 224.00 22.41 215.62 28.33 213.55 C 30.77 212.69 31.41 212.89 32.95 214.94 C 35.02 217.67 38.00 217.18 38.00 214.10 C 38.00 208.57 33.34 204.00 27.71 204.00 C 23.71 204.00 16.86 208.27 14.86 212.01 C 9.98 221.10 14.43 231.39 25.50 236.62 C 31.01 239.22 34.55 239.53 40.35 237.92 Z  M 87.00 234.98 C 102.25 232.17 102.00 232.27 102.00 229.43 C 102.00 227.56 101.47 227.00 99.69 227.00 C 94.78 227.00 92.83 223.09 91.45 210.48 C 90.89 205.33 91.11 203.92 93.02 200.69 C 94.25 198.61 95.04 196.71 94.79 196.46 C 94.15 195.82 73.67 192.99 73.19 193.48 C 72.98 193.69 73.78 200.90 74.97 209.49 C 77.35 226.72 77.12 230.17 73.45 231.84 C 69.84 233.49 70.27 238.64 73.93 237.56 C 74.79 237.30 80.67 236.14 87.00 234.98 Z  M 128.00 229.55 C 130.31 228.73 131.61 227.58 131.82 226.15 C 132.09 224.35 131.64 224.00 129.07 224.00 C 124.56 224.00 122.66 221.40 120.04 211.64 C 117.79 203.29 117.76 202.72 119.34 199.41 C 120.25 197.50 121.00 195.72 121.00 195.47 C 121.00 195.21 116.22 195.00 110.38 195.00 C 100.76 195.00 99.81 195.16 100.24 196.75 C 100.50 197.71 102.66 204.88 105.02 212.67 C 109.76 228.25 109.79 226.50 104.59 233.50 C 104.09 234.18 103.95 235.43 104.28 236.29 C 104.80 237.64 106.24 237.37 114.69 234.32 C 120.09 232.38 126.08 230.23 128.00 229.55 Z  M 146.08 218.43 C 152.91 215.37 158.85 212.52 159.28 212.10 C 160.98 210.44 158.76 208.00 155.55 208.00 C 151.40 208.00 149.93 206.23 146.51 197.13 C 144.11 190.75 143.88 189.29 144.84 186.18 C 145.44 184.21 145.84 182.53 145.72 182.44 C 145.33 182.15 125.85 186.82 125.34 187.33 C 125.07 187.60 127.35 193.10 130.42 199.56 C 136.13 211.58 137.22 216.74 134.50 219.00 C 133.23 220.05 132.31 224.00 133.33 224.00 C 133.51 224.00 139.25 221.50 146.08 218.43 Z  M 109.07 189.42 C 123.01 185.37 137.39 173.27 143.62 160.33 C 146.98 153.35 147.45 151.41 147.95 142.50 C 148.50 132.50 148.50 132.50 188.20 131.97 C 210.03 131.67 228.09 131.22 228.33 130.97 C 228.84 130.41 219.72 106.03 219.00 106.01 C 218.72 106.01 217.22 108.03 215.66 110.50 C 212.82 115.00 212.82 115.00 206.86 115.00 C 200.90 115.00 200.90 115.00 201.20 108.75 C 201.50 102.50 201.50 102.50 211.75 102.22 C 221.77 101.94 222.00 101.88 222.00 99.57 C 222.00 97.88 221.28 97.04 219.46 96.58 C 216.15 95.75 215.00 92.48 215.00 83.93 C 215.00 77.00 215.00 77.00 218.11 77.00 C 220.19 77.00 221.05 76.59 220.73 75.75 C 220.08 74.08 210.69 53.60 210.35 53.13 C 210.21 52.93 208.20 54.15 205.90 55.85 C 203.59 57.54 201.32 58.70 200.85 58.41 C 200.38 58.12 200.00 54.98 200.00 51.44 C 200.00 45.00 200.00 45.00 212.61 45.00 C 222.28 45.00 225.10 44.71 224.74 43.75 C 224.48 43.06 222.10 36.76 219.45 29.75 C 216.81 22.74 214.31 17.00 213.91 17.00 C 213.51 17.00 211.56 19.26 209.58 22.02 C 205.97 27.04 205.97 27.04 184.74 26.77 C 163.50 26.50 163.50 26.50 163.00 22.82 C 162.50 19.14 162.50 19.14 148.00 24.70 C 140.03 27.76 133.32 30.43 133.10 30.62 C 132.88 30.81 134.68 32.72 137.10 34.87 C 141.50 38.77 141.50 38.77 142.15 62.63 C 142.50 75.76 142.84 92.99 142.90 100.92 C 143.00 115.34 143.00 115.34 139.93 110.71 C 136.24 105.13 127.47 96.95 121.36 93.37 C 118.91 91.93 117.07 90.48 117.27 90.13 C 117.46 89.78 119.38 85.79 121.53 81.25 C 125.41 73.06 125.46 73.00 129.22 73.00 C 131.30 73.00 133.00 72.71 133.00 72.35 C 133.00 71.46 125.86 47.58 125.47 47.16 C 125.30 46.97 123.21 48.57 120.83 50.71 C 116.50 54.61 116.50 54.61 102.70 53.67 C 88.90 52.73 88.90 52.73 89.54 49.62 C 89.89 47.90 91.25 44.12 92.55 41.22 C 94.41 37.08 95.70 35.60 98.52 34.43 C 101.56 33.16 102.08 32.50 101.81 30.24 C 101.51 27.62 101.08 27.45 85.00 23.82 C 75.92 21.77 67.94 20.28 67.25 20.52 C 65.20 21.21 65.83 24.49 68.48 26.99 C 72.21 30.49 72.42 34.27 69.50 45.50 C 65.02 62.72 60.33 71.08 53.45 74.12 C 48.26 76.42 43.73 75.74 40.97 72.23 C 38.57 69.18 38.46 66.26 40.65 63.83 C 43.05 61.18 45.97 61.58 49.54 65.04 C 52.30 67.72 52.84 67.90 53.96 66.55 C 55.96 64.14 54.39 58.50 50.89 55.56 C 48.53 53.57 46.75 53.00 42.93 53.00 C 38.68 53.00 37.46 53.49 34.02 56.60 C 23.38 66.21 27.79 84.43 42.22 90.45 C 47.51 92.65 57.18 92.46 61.90 90.05 C 66.19 87.86 73.38 80.27 78.16 72.90 C 79.91 70.20 81.96 68.00 82.73 68.00 C 83.49 68.00 88.37 68.52 93.56 69.16 C 104.13 70.46 104.31 70.67 101.02 77.43 C 97.44 84.80 94.62 87.00 88.71 87.02 C 72.52 87.09 53.38 100.58 45.28 117.63 C 41.88 124.78 41.59 126.14 41.22 136.42 C 40.91 145.39 41.20 148.66 42.77 153.60 C 47.73 169.27 63.51 184.56 79.40 189.11 C 87.30 191.37 101.83 191.53 109.07 189.42 Z  M 264.67 127.98 C 268.06 126.31 272.29 123.59 274.08 121.93 C 277.32 118.90 277.32 118.90 280.91 122.40 C 286.73 128.07 293.16 130.47 302.50 130.46 C 312.56 130.45 319.35 127.68 324.96 121.31 C 333.73 111.34 334.32 97.68 326.42 87.60 C 321.18 80.90 315.72 79.51 306.69 82.59 C 300.31 84.76 297.00 88.88 297.00 94.63 C 297.00 100.20 299.28 104.78 302.46 105.58 C 306.08 106.49 307.03 105.35 306.84 100.35 C 306.59 93.74 310.17 91.86 313.93 96.63 C 316.36 99.72 316.53 102.08 314.60 105.80 C 311.14 112.50 304.93 114.53 298.29 111.15 C 294.50 109.22 289.00 103.83 289.00 102.05 C 289.00 101.61 290.14 98.67 291.54 95.51 C 295.23 87.16 298.47 75.22 300.91 61.00 C 304.05 42.64 303.52 44.00 307.52 44.00 C 309.75 44.00 311.00 43.52 311.00 42.67 C 311.00 41.35 304.07 23.74 302.32 20.61 C 301.56 19.25 300.75 19.67 297.10 23.40 C 292.77 27.81 292.77 27.81 266.64 27.26 C 252.26 26.96 239.46 26.34 238.20 25.87 C 236.93 25.40 235.43 23.66 234.85 22.01 C 234.08 19.79 233.17 19.00 231.40 19.00 C 229.00 19.00 229.00 19.00 229.00 36.00 C 229.00 53.00 229.00 53.00 231.50 53.00 C 233.35 53.00 234.00 52.47 234.00 50.95 C 234.00 49.83 235.10 47.80 236.45 46.45 C 238.91 44.00 238.91 44.00 261.27 44.00 C 283.62 44.00 283.62 44.00 280.85 59.12 C 276.20 84.47 277.51 84.06 265.50 63.99 C 259.84 54.54 254.82 46.43 254.35 45.97 C 253.61 45.25 235.04 65.55 234.17 68.05 C 233.98 68.58 236.42 69.01 239.67 69.02 C 242.88 69.02 245.99 69.36 246.59 69.77 C 247.18 70.17 251.76 77.45 256.77 85.95 C 265.86 101.39 265.86 101.39 261.80 106.23 C 257.13 111.82 253.47 114.00 248.80 114.00 C 242.26 113.99 236.91 106.20 240.94 102.56 C 242.47 101.17 243.88 100.97 248.18 101.50 C 252.77 102.08 253.91 101.86 256.31 99.97 C 259.96 97.10 259.71 92.60 255.74 89.65 C 251.64 86.60 241.57 86.15 236.42 88.80 C 228.58 92.81 226.00 97.48 226.00 107.60 C 226.00 117.18 230.25 124.12 238.72 128.39 C 247.28 132.71 255.26 132.58 264.67 127.98 Z  M 78.39 174.05 C 71.71 170.22 65.57 163.15 63.03 156.36 C 59.42 146.69 59.20 146.89 72.75 147.22 C 84.50 147.50 84.50 147.50 84.78 162.25 C 84.93 170.36 84.70 177.00 84.28 176.99 C 83.85 176.99 81.20 175.66 78.39 174.05 Z  M 105.00 161.97 C 105.00 147.00 105.00 147.00 117.00 147.00 C 130.84 147.00 130.68 146.85 126.44 155.96 C 123.23 162.85 118.07 169.18 112.69 172.83 C 104.61 178.30 105.00 178.85 105.00 161.97 Z  M 123.47 129.40 C 118.78 120.79 118.78 120.79 114.11 125.40 C 111.38 128.08 108.51 130.00 107.22 130.00 C 105.03 130.00 105.00 129.82 105.00 115.00 C 105.00 105.34 105.37 100.00 106.03 100.00 C 106.60 100.00 109.23 101.10 111.87 102.44 C 121.51 107.32 127.99 118.14 128.79 130.70 C 129.05 134.71 129.02 138.00 128.71 138.00 C 128.41 138.00 126.05 134.13 123.47 129.40 Z  M 61.47 126.31 C 62.59 120.35 66.44 113.80 71.74 108.84 C 76.51 104.38 81.77 101.00 83.95 101.00 C 84.63 101.00 85.00 106.04 85.00 115.50 C 85.00 130.00 85.00 130.00 72.89 130.00 C 60.78 130.00 60.78 130.00 61.47 126.31 Z  M 164.84 108.91 C 164.65 105.57 164.69 102.64 164.92 102.41 C 165.15 102.19 168.36 102.00 172.05 102.00 C 179.61 102.00 179.96 102.39 179.99 110.75 C 180.00 115.00 180.00 115.00 172.59 115.00 C 165.18 115.00 165.18 115.00 164.84 108.91 Z  M 164.00 81.50 C 164.00 78.00 164.00 78.00 179.00 78.00 C 194.00 78.00 194.00 78.00 194.00 81.50 C 194.00 85.00 194.00 85.00 179.00 85.00 C 164.00 85.00 164.00 85.00 164.00 81.50 Z  M 164.54 58.75 C 164.32 58.06 163.97 54.69 163.75 51.25 C 163.37 45.00 163.37 45.00 171.19 45.00 C 179.00 45.00 179.00 45.00 179.00 52.50 C 179.00 60.00 179.00 60.00 171.97 60.00 C 167.22 60.00 164.81 59.59 164.54 58.75 Z "/>
</g>
</svg>