<?xml version="1.0" encoding="UTF-8" standalone="no"?>
<!DOCTYPE svg PUBLIC "-//W3C//DTD SVG 1.1//EN" "http://www.w3.org/Graphics/SVG/1.1/DTD/svg11.dtd" >
<svg xmlns="http://www.w3.org/2000/svg" xmlns:xlink="http://www.w3.org/1999/xlink" version="1.1" viewBox="0 0 256 256">
 <g >
 <path fill="currentColor"
d=" M 214.78 246.44 C 219.19 243.35 216.30 231.63 208.51 221.01 C 204.73 215.86 204.73 215.86 208.11 216.41 C 209.98 216.71 216.66 217.46 222.96 218.08 C 234.43 219.21 234.43 219.21 237.27 216.02 C 240.70 212.18 240.60 208.51 237.00 205.87 C 233.98 203.66 223.51 202.42 195.84 201.01 C 160.53 199.20 114.56 200.32 91.00 203.56 C 81.06 204.93 79.19 205.49 77.21 207.67 C 75.66 209.39 75.12 210.88 75.55 212.35 C 76.59 215.97 79.66 219.51 81.63 219.36 C 82.66 219.28 89.58 218.50 97.00 217.62 C 104.42 216.74 110.84 216.01 111.25 216.01 C 113.45 215.98 111.46 220.80 107.75 224.51 C 104.68 227.57 101.84 229.25 97.50 230.55 C 89.60 232.93 87.58 234.81 88.48 238.92 C 88.86 240.65 90.28 242.79 91.63 243.68 C 93.74 245.06 94.70 245.11 98.30 244.05 C 104.90 242.10 113.73 237.04 118.04 232.72 C 121.73 229.04 125.00 221.63 125.00 216.97 C 125.00 215.51 126.91 215.23 140.38 214.74 C 148.84 214.43 162.22 214.43 170.13 214.73 C 184.50 215.29 184.50 215.29 189.43 219.39 C 196.17 224.99 202.69 234.14 204.57 240.61 C 206.66 247.78 210.08 249.74 214.78 246.44 Z  M 43.43 239.37 C 50.70 236.89 57.98 229.01 63.42 217.75 C 71.29 201.45 74.21 185.30 74.32 157.50 C 74.45 120.84 67.01 94.97 51.50 78.22 C 43.01 69.05 36.83 65.78 26.93 65.20 C 19.79 64.79 19.17 64.92 17.64 67.10 C 13.71 72.72 17.73 79.00 25.26 79.00 C 39.57 79.00 52.87 100.78 57.94 132.50 C 58.56 136.35 59.14 149.18 59.24 161.00 C 59.43 184.24 58.68 189.81 53.50 203.62 C 49.13 215.29 40.60 226.00 35.69 226.00 C 31.38 226.00 30.83 216.43 34.46 204.55 C 36.90 196.57 39.74 191.52 46.50 183.17 C 50.62 178.07 50.91 174.82 47.55 171.45 C 42.59 166.50 38.14 168.72 30.65 179.88 C 22.08 192.65 17.00 206.16 17.00 216.16 C 17.00 228.12 20.74 235.62 28.46 239.12 C 33.48 241.40 37.28 241.46 43.43 239.37 Z  M 204.98 192.53 C 220.75 188.61 236.05 177.68 238.79 168.38 C 243.58 152.08 231.84 137.20 208.56 130.07 C 191.77 124.93 165.10 123.48 144.13 126.56 C 132.08 128.33 115.10 133.64 107.14 138.12 C 101.81 141.13 101.77 141.13 99.64 139.20 C 94.61 134.63 90.16 133.84 87.03 136.97 C 82.96 141.04 83.32 143.59 88.77 149.35 C 94.98 155.92 98.11 161.91 98.33 167.65 C 98.48 171.66 98.11 172.44 94.25 176.00 C 91.91 178.15 90.00 180.55 90.00 181.31 C 90.00 182.08 91.03 184.23 92.28 186.10 C 95.60 191.05 99.93 191.27 104.48 186.72 C 106.76 184.44 108.32 183.59 109.19 184.15 C 115.14 187.97 135.67 192.43 154.50 194.00 C 169.54 195.25 197.27 194.44 204.98 192.53 Z  M 200.96 115.51 C 220.94 111.01 237.72 98.38 242.03 84.60 C 245.14 74.68 240.54 60.99 231.74 53.98 C 215.39 40.96 185.84 34.14 150.81 35.29 C 132.63 35.89 125.56 37.11 114.41 41.57 C 108.07 44.11 108.07 44.11 105.03 41.86 C 101.41 39.19 97.85 39.96 94.78 44.08 C 92.93 46.57 92.92 46.90 94.53 53.08 C 97.80 65.65 96.17 81.80 90.51 92.98 C 87.47 98.99 87.35 101.93 90.04 104.81 C 92.46 107.41 97.54 107.72 100.07 105.43 C 101.65 104.00 102.23 104.08 106.65 106.31 C 118.29 112.17 131.35 115.74 146.00 117.05 C 160.21 118.33 192.47 117.42 200.96 115.51 Z  M 71.55 70.55 C 74.51 67.58 74.57 66.06 72.03 57.86 C 65.66 37.24 43.16 19.00 24.11 19.00 C 18.71 19.00 17.94 19.28 15.59 22.08 C 12.49 25.76 12.34 27.89 14.96 31.23 C 16.58 33.29 18.04 33.81 23.31 34.23 C 38.08 35.42 54.13 48.85 58.66 63.82 C 60.72 70.62 61.48 71.75 64.32 72.30 C 68.53 73.12 69.11 72.98 71.55 70.55 Z  M 111.60 33.99 C 128.30 32.67 151.01 28.87 167.97 24.55 C 181.92 21.00 184.54 19.47 183.42 15.55 C 182.59 12.61 178.39 9.10 176.29 9.57 C 175.31 9.79 169.93 11.10 164.34 12.48 C 142.79 17.80 132.94 19.28 100.53 22.02 C 93.40 22.62 86.99 23.59 86.28 24.18 C 84.13 25.97 84.70 31.68 87.22 33.44 C 89.83 35.27 94.08 35.36 111.60 33.99 Z  M 148.50 178.45 C 134.12 176.85 123.20 174.63 117.58 172.14 C 114.18 170.63 113.41 169.78 113.22 167.30 C 113.09 165.64 112.32 162.08 111.51 159.39 C 110.69 156.70 110.02 154.17 110.01 153.77 C 109.96 150.38 142.85 141.01 154.82 141.00 C 157.84 141.00 158.00 141.14 156.57 142.57 C 154.75 144.39 154.49 149.09 156.11 150.71 C 158.32 152.92 155.89 153.70 144.88 154.33 C 132.16 155.06 129.00 156.36 129.00 160.87 C 129.00 162.42 129.90 164.50 131.00 165.50 C 132.81 167.13 134.36 167.25 146.86 166.68 C 160.73 166.05 160.73 166.05 161.30 171.59 C 161.61 174.64 162.40 177.78 163.06 178.57 C 164.47 180.28 165.04 180.28 148.50 178.45 Z  M 174.35 178.17 C 175.39 177.02 176.00 174.61 176.00 171.67 C 176.00 166.21 175.68 166.29 190.34 168.09 C 195.20 168.69 200.21 168.91 201.49 168.59 C 204.36 167.87 206.44 162.69 204.96 159.92 C 203.26 156.75 200.55 156.00 186.60 154.83 C 173.42 153.72 173.13 153.64 172.50 151.16 C 171.79 148.32 168.52 143.21 166.09 141.14 C 163.55 138.97 188.46 140.31 198.20 142.87 C 213.52 146.90 225.00 154.49 225.00 160.62 C 225.00 170.59 204.45 180.00 182.69 180.00 C 173.07 180.00 172.75 179.93 174.35 178.17 Z  M 144.61 101.99 C 133.52 100.62 123.84 98.16 117.46 95.09 C 107.84 90.46 107.60 90.16 109.07 84.95 C 109.76 82.50 110.59 75.78 110.91 70.00 C 111.50 59.50 111.50 59.50 118.00 56.27 C 133.14 48.74 166.99 47.74 193.71 54.01 C 213.15 58.58 226.18 66.10 227.58 73.55 C 229.77 85.22 219.72 94.90 199.50 100.60 C 192.60 102.55 156.57 103.46 144.61 101.99 Z  M 185.31 94.93 C 202.59 92.36 208.21 89.32 206.07 83.70 C 204.45 79.42 201.76 78.64 194.69 80.39 C 178.69 84.35 151.69 84.96 143.33 81.55 C 135.24 78.25 137.05 74.41 148.05 71.56 C 156.44 69.38 173.53 69.79 185.95 72.46 C 190.05 73.34 194.01 73.83 194.75 73.54 C 196.45 72.89 198.95 67.03 198.27 65.27 C 196.93 61.77 182.94 58.39 165.51 57.36 C 153.39 56.64 145.70 57.92 137.21 62.08 C 129.27 65.97 125.68 70.89 125.57 78.00 C 125.51 82.09 125.98 83.37 128.50 86.02 C 135.27 93.15 144.86 95.80 164.31 95.92 C 171.90 95.96 181.35 95.52 185.31 94.93 Z "/>
</g>
</svg>