<?xml version="1.0" encoding="UTF-8" standalone="no"?>
<!DOCTYPE svg PUBLIC "-//W3C//DTD SVG 1.1//EN" "http://www.w3.org/Graphics/SVG/1.1/DTD/svg11.dtd" >
<svg xmlns="http://www.w3.org/2000/svg" xmlns:xlink="http://www.w3.org/1999/xlink" version="1.1" viewBox="0 0 256 256">
 <g >
 <path fill="currentColor"
d=" M 89.00 135.90 C 89.00 65.81 89.00 65.81 82.34 58.90 C 75.67 52.00 75.67 52.00 66.57 52.00 C 57.48 52.00 57.48 52.00 51.74 61.23 C 46.00 70.45 46.00 70.45 46.00 61.23 C 46.00 52.00 46.00 52.00 29.00 52.00 C 12.00 52.00 12.00 52.00 12.00 129.00 C 12.00 206.00 12.00 206.00 50.50 206.00 C 89.00 206.00 89.00 206.00 89.00 135.90 Z  M 238.00 186.50 C 238.00 167.01 238.00 167.01 230.87 159.50 C 223.75 152.00 223.75 152.00 195.12 152.00 C 166.50 152.01 166.50 152.01 158.50 162.47 C 154.10 168.23 150.16 172.95 149.75 172.97 C 149.34 172.99 149.00 168.28 149.00 162.50 C 149.00 152.00 149.00 152.00 142.25 151.92 C 135.50 151.84 135.50 151.84 148.00 149.46 C 154.88 148.15 164.81 145.80 170.09 144.23 C 179.67 141.37 179.67 141.37 205.09 146.67 C 219.06 149.58 230.95 151.96 231.50 151.95 C 232.32 151.94 238.89 143.97 244.72 135.94 C 245.81 134.43 244.36 133.84 229.97 129.96 C 221.18 127.59 214.03 125.40 214.06 125.08 C 214.10 124.76 217.27 122.25 221.11 119.50 C 224.96 116.75 231.24 111.22 235.09 107.21 C 243.07 98.88 243.24 100.88 233.56 89.70 C 228.62 84.00 228.62 84.00 191.69 84.00 C 155.49 84.00 154.78 83.96 155.28 82.04 C 155.76 80.21 155.18 80.05 147.15 79.79 C 138.54 79.50 138.50 79.49 138.18 76.75 C 137.87 74.00 137.87 74.00 168.35 74.00 C 185.12 74.00 199.58 74.29 200.49 74.64 C 201.41 74.99 202.56 76.34 203.05 77.64 C 203.95 80.00 203.95 80.00 224.98 80.00 C 246.00 80.00 246.00 80.00 246.00 73.75 C 245.99 67.50 245.99 67.50 238.25 60.75 C 230.50 54.00 230.50 54.00 210.92 54.00 C 191.34 54.00 191.34 54.00 189.00 49.00 C 186.66 44.00 186.66 44.00 161.83 44.00 C 148.17 44.00 137.00 44.24 137.00 44.53 C 137.00 44.82 137.68 46.68 138.50 48.65 C 139.32 50.63 140.00 52.64 140.00 53.12 C 140.00 53.60 129.88 54.00 117.50 54.00 C 95.00 54.00 95.00 54.00 95.00 68.00 C 95.00 82.00 95.00 82.00 104.58 82.00 C 109.85 82.00 114.01 82.34 113.82 82.75 C 113.63 83.16 110.22 89.91 106.23 97.75 C 98.99 112.00 98.99 112.00 115.19 112.00 C 124.20 112.00 130.98 112.38 130.45 112.85 C 129.93 113.32 124.10 115.83 117.50 118.43 C 110.90 121.03 105.14 123.51 104.70 123.93 C 104.26 124.35 108.92 125.70 115.06 126.92 C 131.32 130.16 131.69 130.40 123.27 132.30 C 119.35 133.19 111.05 134.88 104.82 136.06 C 98.60 137.25 93.36 138.34 93.20 138.49 C 93.03 138.64 94.83 142.66 97.18 147.41 C 100.64 154.38 101.86 155.99 103.48 155.77 C 105.45 155.51 105.51 156.09 105.77 180.75 C 106.03 206.00 106.03 206.00 172.02 206.00 C 238.00 206.00 238.00 206.00 238.00 186.50 Z  M 46.00 128.50 C 46.00 74.00 46.00 74.00 48.83 74.00 C 50.49 74.00 52.55 74.95 53.83 76.31 C 56.00 78.63 56.00 78.63 56.00 130.81 C 56.00 183.00 56.00 183.00 51.00 183.00 C 46.00 183.00 46.00 183.00 46.00 128.50 Z  M 149.20 179.25 C 149.50 174.50 149.50 174.50 170.91 174.23 C 191.77 173.97 192.39 174.02 194.66 176.15 C 196.04 177.45 197.00 179.51 197.00 181.17 C 197.00 184.00 197.00 184.00 172.95 184.00 C 148.89 184.00 148.89 184.00 149.20 179.25 Z  M 159.00 110.36 C 152.68 108.47 146.26 107.08 144.75 107.29 C 141.58 107.71 141.41 107.28 143.56 104.22 C 145.08 102.04 145.53 102.00 166.53 102.00 C 185.13 102.00 187.86 102.20 187.36 103.50 C 186.56 105.59 174.27 114.02 172.20 113.90 C 171.27 113.84 165.32 112.25 159.00 110.36 Z "/>
</g>
</svg>