<?xml version="1.0" encoding="UTF-8" standalone="no"?>
<!DOCTYPE svg PUBLIC "-//W3C//DTD SVG 1.1//EN" "http://www.w3.org/Graphics/SVG/1.1/DTD/svg11.dtd" >
<svg xmlns="http://www.w3.org/2000/svg" xmlns:xlink="http://www.w3.org/1999/xlink" version="1.1" viewBox="0 0 256 256">
 <g >
 <path fill="currentColor"
d=" M 70.00 185.57 C 70.00 158.14 70.00 158.14 75.75 157.01 C 78.91 156.39 82.06 155.70 82.75 155.47 C 83.66 155.17 84.00 151.65 84.00 142.40 C 84.00 129.74 84.00 129.74 77.00 130.43 C 70.00 131.12 70.00 131.12 70.00 113.56 C 70.00 96.00 70.00 96.00 77.00 96.00 C 84.00 96.00 84.00 96.00 84.00 83.00 C 84.00 70.00 84.00 70.00 77.00 70.00 C 70.00 70.00 70.00 70.00 70.00 59.00 C 70.00 48.00 70.00 48.00 49.00 48.00 C 28.00 48.00 28.00 48.00 28.00 59.00 C 28.00 70.00 28.00 70.00 19.00 70.00 C 10.00 70.00 10.00 70.00 10.00 82.96 C 10.00 95.92 10.00 95.92 18.75 96.21 C 27.50 96.50 27.50 96.50 27.50 117.50 C 27.50 138.50 27.50 138.50 17.25 139.89 C 7.00 141.27 7.00 141.27 7.00 154.64 C 7.00 162.26 7.40 168.00 7.93 168.00 C 8.81 168.00 20.77 165.64 25.75 164.48 C 28.00 163.96 28.00 163.96 28.00 178.45 C 28.00 192.93 28.00 192.93 18.06 193.22 C 8.12 193.50 8.12 193.50 12.66 201.00 C 15.15 205.12 17.83 209.51 18.62 210.75 C 20.04 212.99 20.21 213.00 45.02 213.00 C 70.00 213.00 70.00 213.00 70.00 185.57 Z  M 190.41 209.75 C 190.66 208.51 191.23 205.03 191.69 202.00 C 192.52 196.50 192.52 196.50 196.83 204.25 C 201.14 212.00 201.14 212.00 223.57 212.00 C 246.00 212.00 246.00 212.00 246.00 139.12 C 246.00 66.24 246.00 66.24 239.63 60.65 C 233.25 55.05 233.25 55.05 217.88 54.78 C 202.50 54.50 202.50 54.50 202.84 50.25 C 203.17 46.00 203.17 46.00 184.09 46.00 C 165.00 46.00 165.00 46.00 165.00 50.50 C 165.00 55.00 165.00 55.00 158.47 55.00 C 151.93 55.00 151.93 55.00 152.22 65.75 C 152.50 76.50 152.50 76.50 157.75 76.80 C 163.00 77.10 163.00 77.10 163.00 82.58 C 163.00 86.57 162.58 88.22 161.47 88.65 C 160.64 88.97 153.77 88.50 146.22 87.61 C 128.12 85.46 128.35 85.45 127.53 88.75 C 127.16 90.26 125.05 96.11 122.85 101.75 C 118.85 112.00 118.85 112.00 114.87 112.00 C 112.67 112.00 111.08 111.66 111.32 111.25 C 111.56 110.84 113.69 107.35 116.04 103.50 C 125.72 87.64 140.45 54.12 138.56 52.23 C 137.89 51.56 111.41 49.16 103.45 49.05 C 99.39 49.00 99.39 49.00 97.08 58.58 C 95.00 67.23 84.00 100.71 79.53 112.02 C 77.74 116.53 77.74 116.53 82.62 125.26 C 87.50 133.99 87.50 133.99 97.75 134.00 C 103.39 134.00 108.00 134.39 108.00 134.86 C 108.00 136.83 100.05 152.72 90.25 170.33 C 79.78 189.16 79.78 189.16 83.09 193.83 C 93.38 208.34 90.83 206.92 106.59 206.96 C 120.67 207.00 120.67 207.00 124.59 202.04 C 126.74 199.31 128.80 197.06 129.16 197.04 C 129.52 197.02 130.12 199.25 130.50 202.00 C 131.19 207.00 131.19 207.00 142.09 207.00 C 153.00 207.00 153.00 207.00 153.00 209.50 C 153.00 212.00 153.00 212.00 171.48 212.00 C 189.85 212.00 189.96 211.99 190.41 209.75 Z  M 192.54 186.75 C 192.82 184.41 194.88 158.88 197.11 130.00 C 199.35 101.12 201.37 77.31 201.59 77.08 C 201.82 76.85 203.13 77.71 204.50 79.00 C 207.00 81.35 207.00 81.35 207.00 136.17 C 207.00 191.00 207.00 191.00 199.52 191.00 C 192.04 191.00 192.04 191.00 192.54 186.75 Z  M 120.25 178.86 C 124.74 172.14 125.03 172.23 126.46 180.75 C 127.18 185.00 127.18 185.00 121.66 185.00 C 116.15 185.00 116.15 185.00 120.25 178.86 Z  M 154.66 178.00 C 154.25 176.07 153.13 169.78 152.17 164.00 C 150.44 153.50 150.44 153.50 143.66 153.20 C 136.88 152.91 136.88 152.91 140.63 146.20 C 146.63 135.48 152.76 122.77 157.02 112.26 C 159.19 106.89 160.97 103.36 160.98 104.40 C 161.00 106.26 156.28 172.52 155.71 178.50 C 155.42 181.50 155.42 181.50 154.66 178.00 Z "/>
</g>
</svg>