<?xml version="1.0" encoding="UTF-8" standalone="no"?>
<!DOCTYPE svg PUBLIC "-//W3C//DTD SVG 1.1//EN" "http://www.w3.org/Graphics/SVG/1.1/DTD/svg11.dtd" >
<svg xmlns="http://www.w3.org/2000/svg" xmlns:xlink="http://www.w3.org/1999/xlink" version="1.1" viewBox="0 0 256 256">
 <g >
 <path fill="currentColor"
d=" M 73.76 149.75 C 73.50 91.50 73.50 91.50 69.81 91.00 C 66.12 90.50 66.12 90.50 75.05 68.50 C 79.96 56.40 83.98 46.15 83.99 45.73 C 83.99 45.31 73.11 45.08 59.81 45.23 C 35.61 45.50 35.61 45.50 23.90 74.75 C 12.18 104.00 12.18 104.00 20.09 104.00 C 28.00 104.00 28.00 104.00 28.00 156.00 C 28.00 208.00 28.00 208.00 51.01 208.00 C 74.02 208.00 74.02 208.00 73.76 149.75 Z  M 187.00 165.83 C 187.00 143.19 187.21 124.88 187.47 125.14 C 187.86 125.52 204.00 200.15 204.00 201.56 C 204.00 201.80 213.27 202.00 224.61 202.00 C 245.22 202.00 245.22 202.00 244.66 199.75 C 244.35 198.51 241.83 186.70 239.07 173.50 C 236.30 160.30 233.79 148.49 233.50 147.25 C 232.99 145.11 233.25 145.00 238.98 145.00 C 245.00 145.00 245.00 145.00 245.00 133.50 C 245.00 122.00 245.00 122.00 215.94 122.00 C 186.88 122.00 186.88 122.00 187.19 118.25 C 187.50 114.50 187.50 114.50 211.75 114.23 C 236.00 113.96 236.00 113.96 236.00 90.25 C 236.00 66.54 236.00 66.54 226.77 57.27 C 217.54 48.00 217.54 48.00 184.84 48.00 C 152.15 48.00 152.15 48.00 142.82 59.25 C 133.50 70.50 133.50 70.50 133.22 59.25 C 132.93 48.00 132.93 48.00 110.97 48.00 C 89.00 48.00 89.00 48.00 89.00 81.00 C 89.00 114.00 89.00 114.00 113.50 114.00 C 138.00 114.00 138.00 114.00 138.00 118.00 C 138.00 122.00 138.00 122.00 110.00 122.00 C 82.00 122.00 82.00 122.00 82.00 134.00 C 82.00 146.00 82.00 146.00 87.00 146.00 C 91.10 146.00 92.00 146.32 92.00 147.75 C 92.00 148.71 89.52 160.97 86.50 175.00 C 83.48 189.03 81.00 200.84 81.00 201.25 C 81.00 201.66 90.14 202.00 101.30 202.00 C 121.60 202.00 121.60 202.00 127.55 174.25 C 133.11 148.33 133.65 146.48 135.75 146.18 C 138.00 145.86 138.00 145.86 138.00 176.43 C 138.00 207.00 138.00 207.00 162.50 207.00 C 187.00 207.00 187.00 207.00 187.00 165.83 Z  M 133.00 81.00 C 133.00 71.00 133.00 71.00 157.29 71.00 C 181.58 71.00 181.58 71.00 185.79 75.29 C 189.74 79.32 190.00 79.92 190.00 85.29 C 190.00 91.00 190.00 91.00 161.50 91.00 C 133.00 91.00 133.00 91.00 133.00 81.00 Z "/>
</g>
</svg>