<?xml version="1.0" encoding="UTF-8" standalone="no"?>
<!DOCTYPE svg PUBLIC "-//W3C//DTD SVG 1.1//EN" "http://www.w3.org/Graphics/SVG/1.1/DTD/svg11.dtd" >
<svg xmlns="http://www.w3.org/2000/svg" xmlns:xlink="http://www.w3.org/1999/xlink" version="1.1" viewBox="0 0 256 256">
 <g >
 <path fill="currentColor"
d=" M 186.00 208.27 C 192.09 204.76 200.65 198.07 205.45 193.10 C 207.63 190.84 209.67 189.00 210.00 189.00 C 210.33 189.00 212.79 193.84 215.47 199.75 C 218.15 205.66 220.60 210.81 220.92 211.19 C 221.24 211.56 225.78 210.37 231.00 208.54 C 237.85 206.14 240.42 204.79 240.23 203.70 C 240.08 202.86 236.41 193.48 232.08 182.84 C 224.20 163.50 224.20 163.50 227.66 153.21 C 233.63 135.40 237.15 115.31 238.60 90.75 C 239.29 79.00 239.29 79.00 242.65 79.00 C 246.00 79.00 246.00 79.00 246.00 68.52 C 246.00 58.04 246.00 58.04 225.75 57.77 C 212.99 57.60 205.55 57.13 205.62 56.50 C 205.69 55.95 206.03 53.59 206.38 51.25 C 207.02 47.00 207.02 47.00 191.60 47.00 C 176.17 47.00 176.17 47.00 171.08 68.04 C 168.29 79.61 166.00 89.51 166.00 90.04 C 166.00 90.60 170.86 91.00 177.70 91.00 C 184.13 91.00 188.97 91.37 188.45 91.83 C 187.93 92.29 183.34 94.37 178.25 96.47 C 173.16 98.56 169.00 100.63 169.00 101.06 C 169.00 101.49 174.88 114.49 182.06 129.94 C 191.24 149.68 194.93 158.65 194.47 160.09 C 194.11 161.21 191.15 166.13 187.89 171.01 C 182.11 179.65 174.30 187.64 168.07 191.31 C 165.00 193.11 165.00 193.11 165.00 181.44 C 165.00 169.77 165.00 169.77 160.75 163.91 C 156.50 158.06 156.50 158.06 141.25 158.03 C 125.54 158.00 124.95 157.83 127.04 153.93 C 128.01 152.12 129.33 152.00 149.04 152.00 C 170.00 152.00 170.00 152.00 170.00 143.00 C 170.00 134.00 170.00 134.00 159.10 134.00 C 148.20 134.00 148.20 134.00 147.31 130.25 C 146.43 126.50 146.43 126.50 127.62 126.23 C 108.82 125.96 108.82 125.96 109.50 129.98 C 110.18 134.00 110.18 134.00 97.59 134.00 C 85.00 134.00 85.00 134.00 85.00 143.00 C 85.00 152.00 85.00 152.00 90.00 152.00 C 93.32 152.00 95.01 152.42 95.02 153.25 C 95.03 153.94 92.66 164.81 89.77 177.41 C 84.50 200.32 84.50 200.32 84.22 189.09 C 83.93 177.86 83.93 177.86 81.22 178.41 C 78.76 178.91 14.54 188.00 13.46 188.00 C 13.21 188.00 13.00 193.40 13.00 200.00 C 13.00 206.60 13.15 212.00 13.34 212.00 C 13.65 212.00 71.69 203.78 80.32 202.51 C 83.65 202.03 84.08 202.19 83.65 203.73 C 81.17 212.50 80.32 212.00 97.72 212.00 C 113.59 212.00 113.59 212.00 117.55 193.75 C 121.50 175.50 121.50 175.50 126.35 175.19 C 132.96 174.77 133.93 176.24 133.97 186.75 C 134.00 195.00 134.00 195.00 126.50 195.00 C 122.38 195.00 119.00 195.26 119.00 195.58 C 119.00 195.90 120.91 199.72 123.25 204.07 C 127.50 211.97 127.50 211.97 146.21 211.99 C 164.92 212.00 164.92 212.00 165.21 204.25 C 165.50 196.50 165.50 196.50 170.82 204.70 C 176.81 213.94 176.38 213.84 186.00 208.27 Z  M 80.78 159.25 C 80.50 146.50 80.50 146.50 67.75 146.22 C 60.74 146.07 55.00 145.69 55.00 145.38 C 55.00 145.07 57.46 142.09 60.47 138.77 C 68.17 130.26 76.18 118.00 81.97 105.87 C 86.92 95.50 86.92 95.50 86.96 109.75 C 87.00 124.00 87.00 124.00 126.00 124.00 C 165.00 124.00 165.00 124.00 165.00 95.11 C 165.00 66.23 165.00 66.23 160.38 60.61 C 155.76 55.00 155.76 55.00 149.25 55.00 C 142.09 55.00 142.29 55.34 144.59 47.25 C 145.23 45.00 145.23 45.00 126.28 45.00 C 107.34 45.00 107.34 45.00 106.42 49.75 C 105.50 54.50 105.50 54.50 96.25 54.79 C 87.00 55.08 87.00 55.08 87.00 71.10 C 87.00 89.88 88.71 88.84 71.77 80.37 C 65.86 77.42 60.63 75.00 60.14 75.00 C 59.65 75.00 58.99 76.29 58.68 77.87 C 58.36 79.45 56.31 84.63 54.12 89.37 C 50.13 98.00 50.13 98.00 46.06 98.00 C 43.83 98.00 42.00 97.70 42.00 97.34 C 42.00 96.98 43.05 95.30 44.33 93.59 C 50.85 84.95 62.00 61.42 62.00 56.31 C 62.00 54.68 59.74 53.69 47.95 50.16 C 34.17 46.03 32.00 45.80 32.00 48.42 C 32.00 51.03 23.57 74.82 18.34 86.98 C 12.97 99.47 12.97 99.47 14.50 107.98 C 17.13 122.58 15.67 121.00 26.52 121.00 C 32.72 121.00 36.00 121.38 36.00 122.10 C 36.00 123.48 33.10 127.64 25.97 136.50 C 16.18 148.65 16.62 147.25 19.03 158.62 C 20.18 164.06 21.35 169.29 21.63 170.25 C 22.10 171.87 24.40 172.00 51.60 172.00 C 81.06 172.00 81.06 172.00 80.78 159.25 Z  M 201.10 106.35 C 197.08 96.19 195.95 92.30 196.70 91.11 C 197.24 90.22 198.26 87.14 198.95 84.25 C 200.20 79.00 200.20 79.00 206.25 79.00 C 212.30 79.00 212.30 79.00 211.64 87.75 C 210.77 99.21 207.84 120.00 207.09 119.99 C 206.77 119.99 204.07 113.85 201.10 106.35 Z  M 116.00 101.50 C 116.00 97.00 116.00 97.00 125.50 97.00 C 135.00 97.00 135.00 97.00 135.00 101.50 C 135.00 106.00 135.00 106.00 125.50 106.00 C 116.00 106.00 116.00 106.00 116.00 101.50 Z  M 116.00 77.00 C 116.00 73.00 116.00 73.00 124.35 73.00 C 133.37 73.00 136.00 74.31 136.00 78.83 C 136.00 80.91 135.60 81.00 126.00 81.00 C 116.00 81.00 116.00 81.00 116.00 77.00 Z "/>
</g>
</svg>