<?xml version="1.0" encoding="UTF-8" standalone="no"?>
<!DOCTYPE svg PUBLIC "-//W3C//DTD SVG 1.1//EN" "http://www.w3.org/Graphics/SVG/1.1/DTD/svg11.dtd" >
<svg xmlns="http://www.w3.org/2000/svg" xmlns:xlink="http://www.w3.org/1999/xlink" version="1.1" viewBox="0 0 256 256">
 <g >
 <path fill="currentColor"
d=" M 248.00 200.00 C 248.00 188.00 248.00 188.00 158.00 188.00 C 68.00 188.00 68.00 188.00 67.97 150.25 C 67.93 112.50 67.93 112.50 59.09 103.25 C 50.25 94.00 50.25 94.00 29.12 94.00 C 8.00 94.00 8.00 94.00 8.00 106.00 C 8.00 118.00 8.00 118.00 11.20 118.00 C 13.45 118.00 15.39 118.95 17.70 121.20 C 21.00 124.39 21.00 124.39 21.00 156.20 C 21.00 188.00 21.00 188.00 13.98 188.00 C 6.96 188.00 6.96 188.00 15.00 200.00 C 23.04 212.00 23.04 212.00 135.52 212.00 C 248.00 212.00 248.00 212.00 248.00 200.00 Z  M 244.00 173.50 C 244.00 163.00 244.00 163.00 212.50 163.00 C 181.67 163.00 181.00 162.96 181.00 161.00 C 181.00 159.05 181.67 159.00 209.50 159.00 C 238.00 159.00 238.00 159.00 238.00 150.00 C 238.00 141.00 238.00 141.00 209.43 141.00 C 182.75 141.00 180.88 140.88 181.19 139.25 C 181.50 137.64 183.88 137.48 211.76 137.24 C 242.00 136.97 242.00 136.97 242.00 126.49 C 242.00 116.00 242.00 116.00 158.00 116.00 C 74.00 116.00 74.00 116.00 74.00 126.50 C 74.00 137.00 74.00 137.00 104.00 137.00 C 133.33 137.00 134.00 137.04 134.00 139.00 C 134.00 140.95 133.33 141.00 106.00 141.00 C 78.00 141.00 78.00 141.00 78.00 150.00 C 78.00 159.00 78.00 159.00 106.00 159.00 C 133.33 159.00 134.00 159.05 134.00 161.00 C 134.00 162.96 133.33 163.00 103.50 163.00 C 73.00 163.00 73.00 163.00 73.00 173.50 C 73.00 184.00 73.00 184.00 158.50 184.00 C 244.00 184.00 244.00 184.00 244.00 173.50 Z  M 238.00 88.90 C 238.00 64.80 238.00 64.80 231.38 57.40 C 224.75 50.00 224.75 50.00 201.27 50.00 C 177.78 50.00 177.78 50.00 178.41 47.50 C 179.04 45.00 179.04 45.00 156.17 45.00 C 133.30 45.00 133.30 45.00 129.14 56.25 C 126.86 62.44 124.99 67.84 124.99 68.25 C 125.00 68.66 139.56 69.00 157.35 69.00 C 188.42 69.00 189.76 69.08 191.50 71.00 C 193.31 73.00 193.25 73.00 158.65 73.00 C 124.00 73.00 124.00 73.00 124.00 62.00 C 124.00 51.00 124.00 51.00 101.50 51.00 C 79.00 51.00 79.00 51.00 79.00 82.00 C 79.00 113.00 79.00 113.00 158.50 113.00 C 238.00 113.00 238.00 113.00 238.00 88.90 Z  M 68.00 84.74 C 68.00 83.37 55.51 48.17 54.75 47.42 C 54.50 47.17 43.70 47.08 30.75 47.23 C 7.20 47.50 7.20 47.50 12.61 62.50 C 15.58 70.75 18.72 79.41 19.59 81.75 C 21.17 86.00 21.17 86.00 44.58 86.00 C 62.75 86.00 68.00 85.72 68.00 84.74 Z  M 124.00 90.50 C 124.00 89.20 128.50 89.00 158.50 89.00 C 188.50 89.00 193.00 89.20 193.00 90.50 C 193.00 91.80 188.50 92.00 158.50 92.00 C 128.50 92.00 124.00 91.80 124.00 90.50 Z "/>
</g>
</svg>