<?xml version="1.0" encoding="UTF-8" standalone="no"?>
<!DOCTYPE svg PUBLIC "-//W3C//DTD SVG 1.1//EN" "http://www.w3.org/Graphics/SVG/1.1/DTD/svg11.dtd" >
<svg xmlns="http://www.w3.org/2000/svg" xmlns:xlink="http://www.w3.org/1999/xlink" version="1.1" viewBox="0 0 256 256">
 <g >
 <path fill="currentColor"
d=" M 235.00 225.63 C 235.00 216.77 235.00 216.77 232.25 217.48 C 230.74 217.88 208.45 218.42 182.72 218.70 C 135.94 219.20 135.94 219.20 136.22 206.35 C 136.50 193.50 136.50 193.50 176.25 193.50 C 216.00 193.50 216.00 193.50 216.00 185.50 C 216.00 177.50 216.00 177.50 176.25 177.79 C 136.50 178.09 136.50 178.09 136.81 169.29 C 137.13 160.50 137.13 160.50 127.56 160.50 C 118.00 160.50 118.00 160.50 118.00 169.29 C 118.00 178.09 118.00 178.09 78.50 177.79 C 39.00 177.50 39.00 177.50 39.00 185.51 C 39.00 193.52 39.00 193.52 78.75 193.51 C 118.50 193.50 118.50 193.50 118.78 206.34 C 119.06 219.18 119.06 219.18 72.28 218.70 C 46.55 218.43 24.26 217.89 22.75 217.49 C 20.00 216.77 20.00 216.77 20.00 225.63 C 20.00 234.50 20.00 234.50 127.50 234.50 C 235.00 234.50 235.00 234.50 235.00 225.63 Z  M 127.00 153.50 C 170.73 153.50 210.89 153.83 216.25 154.22 C 226.00 154.95 226.00 154.95 226.00 146.45 C 226.00 138.16 225.95 137.97 223.75 138.48 C 220.19 139.29 204.06 139.52 168.72 139.25 C 135.94 139.00 135.94 139.00 136.22 126.75 C 136.50 114.50 136.50 114.50 166.62 114.50 C 196.73 114.51 196.73 114.51 196.22 108.09 C 195.79 102.84 195.95 101.78 197.10 102.26 C 197.87 102.59 203.00 104.86 208.50 107.31 C 217.76 111.44 235.90 118.00 238.04 118.00 C 238.55 118.00 240.39 115.19 242.12 111.75 C 243.85 108.31 246.13 104.40 247.18 103.06 C 249.09 100.62 249.09 100.62 238.79 98.33 C 210.46 92.02 182.96 77.97 167.18 61.73 C 162.87 57.29 162.87 57.29 192.18 56.82 C 208.31 56.57 224.76 56.62 228.75 56.94 C 236.00 57.52 236.00 57.52 236.00 49.01 C 236.00 40.50 236.00 40.50 181.50 40.82 C 151.53 40.99 127.00 40.95 127.00 40.73 C 127.00 39.85 136.43 21.34 138.14 18.88 C 139.95 16.26 139.95 16.26 131.23 15.12 C 126.43 14.49 121.60 13.74 120.50 13.44 C 118.81 12.99 118.13 13.88 116.13 19.20 C 114.82 22.67 111.90 29.02 109.64 33.32 C 105.54 41.15 105.54 41.15 62.77 40.82 C 20.00 40.50 20.00 40.50 20.00 49.00 C 20.00 57.50 20.00 57.50 57.25 57.27 C 94.50 57.05 94.50 57.05 88.00 63.09 C 72.49 77.51 49.31 89.74 15.90 101.13 C 6.30 104.40 6.30 104.40 11.22 111.94 C 13.93 116.09 16.29 119.62 16.46 119.80 C 17.04 120.37 36.29 112.83 46.88 107.87 C 52.60 105.19 57.44 103.00 57.64 103.00 C 57.84 103.00 58.00 105.72 58.00 109.05 C 58.00 115.10 58.00 115.10 88.25 114.80 C 118.50 114.50 118.50 114.50 118.78 126.75 C 119.06 139.00 119.06 139.00 86.28 139.25 C 50.52 139.52 33.74 139.29 30.25 138.48 C 28.05 137.97 28.00 138.16 28.00 146.45 C 28.00 154.95 28.00 154.95 37.75 154.22 C 43.11 153.83 83.27 153.50 127.00 153.50 Z  M 66.00 97.93 C 66.83 97.40 71.43 94.62 76.24 91.74 C 88.61 84.32 101.13 74.00 108.86 64.86 C 115.50 57.01 115.50 57.01 128.81 57.00 C 142.12 57.00 142.12 57.00 153.16 68.49 C 164.71 80.51 174.55 88.53 185.79 95.10 C 192.47 99.00 192.47 99.00 164.08 99.00 C 135.69 99.00 135.69 99.00 136.31 86.00 C 136.93 73.00 136.93 73.00 127.41 73.00 C 117.89 73.00 117.89 73.00 118.19 86.00 C 118.50 99.00 118.50 99.00 91.50 98.94 C 73.98 98.90 65.03 98.55 66.00 97.93 Z "/>
</g>
</svg>