<?xml version="1.0" encoding="UTF-8" standalone="no"?>
<!DOCTYPE svg PUBLIC "-//W3C//DTD SVG 1.1//EN" "http://www.w3.org/Graphics/SVG/1.1/DTD/svg11.dtd" >
<svg xmlns="http://www.w3.org/2000/svg" xmlns:xlink="http://www.w3.org/1999/xlink" version="1.1" viewBox="0 0 256 256">
 <g >
 <path fill="currentColor"
d=" M 133.00 237.32 C 133.00 230.00 133.00 230.00 170.13 230.00 C 207.26 230.00 207.26 230.00 206.79 237.30 C 206.33 244.61 206.33 244.61 216.15 244.61 C 225.97 244.61 225.97 244.61 225.24 239.05 C 224.27 231.76 224.28 168.94 225.25 162.50 C 226.00 157.50 226.00 157.50 176.38 157.79 C 136.24 158.02 126.86 157.83 127.31 156.79 C 127.61 156.08 129.95 150.78 132.51 145.00 C 135.06 139.22 137.58 133.43 138.11 132.13 C 139.07 129.76 139.07 129.76 180.56 130.16 C 217.55 130.52 221.97 130.40 221.33 129.03 C 220.94 128.19 220.44 118.61 220.22 107.75 C 219.82 88.00 219.82 88.00 232.41 88.00 C 245.00 88.00 245.00 88.00 245.00 79.93 C 245.00 71.85 245.00 71.85 232.75 72.10 C 220.50 72.34 220.50 72.34 220.50 55.92 C 220.50 46.89 220.80 37.25 221.17 34.50 C 221.85 29.50 221.85 29.50 157.92 29.50 C 94.00 29.50 94.00 29.50 94.00 37.50 C 94.00 45.50 94.00 45.50 112.12 45.17 C 130.23 44.83 130.23 44.83 129.50 58.17 C 129.10 65.50 128.57 71.84 128.33 72.25 C 128.08 72.66 119.14 73.00 108.46 73.00 C 86.20 73.00 87.47 73.66 88.15 62.41 C 88.50 56.73 88.50 56.73 76.81 57.27 C 65.12 57.81 65.12 57.81 64.81 38.65 C 64.64 28.12 64.79 18.04 65.14 16.25 C 65.79 13.00 65.79 13.00 55.79 13.00 C 46.62 13.00 45.85 13.15 46.59 14.75 C 47.03 15.71 47.57 25.91 47.78 37.40 C 48.18 58.30 48.18 58.30 31.59 57.75 C 15.00 57.21 15.00 57.21 15.00 66.85 C 15.00 76.50 15.00 76.50 31.52 76.20 C 48.03 75.91 48.03 75.91 47.77 102.70 C 47.50 129.50 47.50 129.50 39.00 132.69 C 34.33 134.44 25.41 137.35 19.20 139.15 C 9.06 142.10 7.94 142.64 8.39 144.47 C 8.67 145.58 9.21 150.01 9.59 154.30 C 10.05 159.42 10.67 161.94 11.39 161.62 C 12.00 161.35 20.02 157.72 29.21 153.56 C 38.40 149.40 46.39 146.00 46.96 146.00 C 47.66 146.00 48.00 155.52 48.00 174.82 C 48.00 216.58 47.61 217.50 30.03 217.50 C 19.28 217.50 19.28 217.50 21.61 220.55 C 23.09 222.49 24.18 225.68 24.61 229.30 C 25.28 235.00 25.28 235.00 32.59 235.00 C 45.69 235.00 55.93 231.72 59.80 226.27 C 62.27 222.81 65.00 213.78 65.00 209.10 C 65.00 205.56 65.00 205.56 71.34 211.84 C 77.67 218.12 77.67 218.12 90.09 205.21 C 96.91 198.12 104.97 189.11 108.00 185.19 C 111.03 181.28 113.89 178.06 114.37 178.04 C 114.85 178.02 115.06 192.89 114.85 211.32 C 114.46 244.64 114.46 244.64 123.73 244.64 C 133.00 244.64 133.00 244.64 133.00 237.32 Z  M 132.23 193.75 C 132.50 173.50 132.50 173.50 169.75 173.24 C 207.00 172.98 207.00 172.98 207.00 193.49 C 207.00 214.00 207.00 214.00 169.48 214.00 C 131.96 214.00 131.96 214.00 132.23 193.75 Z  M 65.00 170.13 C 65.00 138.26 65.00 138.26 76.74 133.85 C 88.49 129.44 88.49 129.44 88.01 125.47 C 87.75 123.29 87.53 119.36 87.53 116.75 C 87.52 114.14 87.47 112.00 87.42 112.00 C 87.37 112.00 82.64 114.47 76.91 117.48 C 71.19 120.49 66.16 122.97 65.75 122.98 C 65.34 122.99 65.00 112.43 65.00 99.50 C 65.00 76.00 65.00 76.00 76.00 76.00 C 87.00 76.00 87.00 76.00 87.00 82.00 C 87.00 88.00 87.00 88.00 107.14 88.00 C 127.29 88.00 127.29 88.00 126.62 95.25 C 126.25 99.24 125.44 105.29 124.81 108.70 C 123.67 114.90 123.67 114.90 118.28 115.57 C 115.32 115.94 108.19 115.84 102.44 115.36 C 92.00 114.47 92.00 114.47 92.00 122.89 C 92.00 131.31 92.00 131.31 105.60 130.69 C 119.20 130.08 119.20 130.08 118.56 132.79 C 117.21 138.52 107.75 155.89 101.29 164.50 C 94.74 173.23 67.55 202.00 65.85 202.00 C 65.38 202.00 65.00 187.66 65.00 170.13 Z  M 143.38 108.75 C 143.75 105.31 144.33 99.24 144.67 95.25 C 145.29 88.00 145.29 88.00 174.15 88.00 C 203.00 88.00 203.00 88.00 203.00 101.50 C 203.00 115.00 203.00 115.00 172.86 115.00 C 142.72 115.00 142.72 115.00 143.38 108.75 Z  M 146.81 72.25 C 146.64 71.84 146.64 65.54 146.81 58.25 C 147.11 45.00 147.11 45.00 175.06 45.00 C 203.00 45.00 203.00 45.00 203.00 59.00 C 203.00 73.00 203.00 73.00 175.06 73.00 C 159.69 73.00 146.98 72.66 146.81 72.25 Z "/>
</g>
</svg>