<?xml version="1.0" encoding="UTF-8" standalone="no"?>
<!DOCTYPE svg PUBLIC "-//W3C//DTD SVG 1.1//EN" "http://www.w3.org/Graphics/SVG/1.1/DTD/svg11.dtd" >
<svg xmlns="http://www.w3.org/2000/svg" xmlns:xlink="http://www.w3.org/1999/xlink" version="1.1" viewBox="0 0 256 256">
 <g >
 <path fill="currentColor"
d=" M 100.46 236.26 C 118.47 230.00 127.90 225.89 136.43 220.58 C 143.75 216.01 143.75 216.01 150.13 218.90 C 167.44 226.73 185.47 231.38 214.00 235.38 C 244.43 239.64 241.63 239.65 243.05 235.27 C 243.72 233.20 245.33 229.40 246.61 226.83 C 249.29 221.49 250.40 222.03 232.50 219.99 C 217.76 218.30 195.04 215.03 186.73 213.39 C 176.53 211.38 156.00 204.37 156.00 202.89 C 156.00 202.53 157.38 199.28 159.07 195.67 C 162.16 189.07 165.96 173.37 165.99 167.13 C 166.00 163.76 166.00 163.76 191.25 164.37 C 205.14 164.70 218.30 165.24 220.50 165.57 C 224.50 166.16 224.50 166.16 224.50 117.17 C 224.50 68.18 224.50 68.18 195.50 68.34 C 166.50 68.50 166.50 68.50 166.22 56.75 C 165.94 45.00 165.94 45.00 191.22 44.75 C 219.52 44.47 236.39 44.74 239.75 45.52 C 241.96 46.03 242.00 45.87 242.00 36.77 C 242.00 27.50 242.00 27.50 164.00 27.50 C 86.00 27.50 86.00 27.50 86.00 36.50 C 86.00 45.50 86.00 45.50 118.00 45.20 C 150.00 44.90 150.00 44.90 150.00 57.03 C 150.00 69.17 150.00 69.17 122.75 68.83 C 95.50 68.50 95.50 68.50 95.50 117.29 C 95.50 165.58 95.52 166.08 97.50 165.62 C 98.60 165.36 102.20 164.87 105.50 164.53 C 111.50 163.90 111.50 163.90 105.63 169.41 C 99.76 174.93 99.76 174.93 104.84 181.78 C 107.64 185.55 114.02 192.59 119.03 197.42 C 124.04 202.25 127.99 206.32 127.82 206.48 C 127.64 206.63 125.03 208.13 122.00 209.82 C 112.74 214.98 99.37 218.86 64.21 226.56 C 61.94 227.05 61.96 227.11 65.44 231.36 C 67.38 233.72 69.88 237.72 70.99 240.25 C 73.02 244.84 73.02 244.84 80.26 242.80 C 84.24 241.68 93.33 238.73 100.46 236.26 Z  M 62.30 242.10 C 61.86 241.22 61.37 202.38 61.22 155.80 C 60.94 71.10 60.94 71.10 69.05 51.80 C 73.51 41.18 78.68 29.72 80.53 26.32 C 83.89 20.13 83.89 20.13 78.20 19.43 C 75.06 19.04 70.50 18.13 68.05 17.40 C 65.60 16.67 63.39 16.28 63.14 16.53 C 62.89 16.77 60.14 24.52 57.03 33.74 C 44.13 71.93 28.36 102.87 10.49 125.08 C 5.19 131.65 5.19 131.65 8.62 134.39 C 10.51 135.90 13.79 139.33 15.92 142.02 C 19.47 146.51 19.90 146.77 21.25 145.20 C 23.98 142.03 33.40 127.55 39.27 117.50 C 45.10 107.50 45.10 107.50 44.63 172.00 C 44.37 207.48 43.85 238.10 43.49 240.05 C 42.83 243.61 42.83 243.61 52.96 243.65 C 61.93 243.69 63.01 243.51 62.30 242.10 Z  M 135.41 190.22 C 127.61 184.04 113.00 167.32 113.00 164.57 C 113.00 164.26 121.10 164.00 131.00 164.00 C 149.00 164.00 149.00 164.00 149.00 166.39 C 149.00 170.29 144.02 188.27 142.10 191.31 C 140.32 194.11 140.32 194.11 135.41 190.22 Z  M 113.00 136.50 C 113.00 124.00 113.00 124.00 131.50 124.00 C 150.00 124.00 150.00 124.00 150.00 136.50 C 150.00 149.00 150.00 149.00 131.50 149.00 C 113.00 149.00 113.00 149.00 113.00 136.50 Z  M 166.22 136.75 C 166.50 124.50 166.50 124.50 186.75 124.23 C 207.00 123.96 207.00 123.96 207.00 136.48 C 207.00 149.00 207.00 149.00 186.47 149.00 C 165.94 149.00 165.94 149.00 166.22 136.75 Z  M 113.00 97.00 C 113.00 85.00 113.00 85.00 131.50 85.00 C 150.00 85.00 150.00 85.00 150.00 97.00 C 150.00 109.00 150.00 109.00 131.50 109.00 C 113.00 109.00 113.00 109.00 113.00 97.00 Z  M 166.00 97.00 C 166.00 85.00 166.00 85.00 186.50 85.00 C 207.00 85.00 207.00 85.00 207.00 97.00 C 207.00 109.00 207.00 109.00 186.50 109.00 C 166.00 109.00 166.00 109.00 166.00 97.00 Z "/>
</g>
</svg>