<?xml version="1.0" encoding="UTF-8" standalone="no"?>
<!DOCTYPE svg PUBLIC "-//W3C//DTD SVG 1.1//EN" "http://www.w3.org/Graphics/SVG/1.1/DTD/svg11.dtd" >
<svg xmlns="http://www.w3.org/2000/svg" xmlns:xlink="http://www.w3.org/1999/xlink" version="1.1" viewBox="0 0 256 256">
 <g >
 <path fill="currentColor"
d=" M 75.38 236.10 C 93.42 220.76 112.95 198.72 125.67 179.32 C 132.76 168.50 142.07 149.16 146.10 136.83 C 149.36 126.90 149.36 126.90 153.19 137.70 C 161.59 161.39 175.66 185.82 192.24 205.50 C 202.12 217.22 227.80 242.21 229.54 241.79 C 230.20 241.63 234.50 237.95 239.10 233.61 C 247.46 225.72 247.46 225.72 245.11 224.16 C 224.15 210.24 200.95 187.18 187.57 166.97 C 173.55 145.80 162.05 116.48 159.22 94.75 C 158.34 88.00 158.34 88.00 181.42 87.75 C 194.11 87.61 211.14 87.61 219.25 87.74 C 234.00 87.98 234.00 87.98 234.00 78.74 C 234.00 69.50 234.00 69.50 195.75 69.50 C 157.50 69.50 157.50 69.50 157.50 42.25 C 157.50 15.00 157.50 15.00 147.96 15.00 C 138.41 15.00 138.41 15.00 138.83 42.62 C 139.25 70.24 139.25 70.24 110.62 69.84 C 82.00 69.43 82.00 69.43 82.00 78.71 C 82.00 88.00 82.00 88.00 110.00 88.00 C 142.20 88.00 139.24 86.45 136.53 101.85 C 129.78 140.17 112.60 171.82 83.09 200.25 C 74.02 208.99 56.39 223.32 50.30 226.90 C 49.12 227.60 48.87 228.23 49.57 228.73 C 54.81 232.48 62.74 239.31 63.76 240.96 C 64.45 242.08 65.52 243.00 66.14 243.00 C 66.75 243.00 70.91 239.89 75.38 236.10 Z  M 36.56 231.75 C 39.41 223.16 47.47 203.71 60.41 174.19 C 64.58 164.67 68.00 156.55 68.00 156.14 C 68.00 155.50 58.05 151.03 53.00 149.38 C 51.88 149.02 50.74 150.93 48.60 156.70 C 42.75 172.50 32.62 195.98 24.03 213.67 C 15.22 231.84 15.22 231.84 20.86 233.98 C 23.96 235.16 28.07 236.97 30.00 238.02 C 31.93 239.06 33.58 239.94 33.67 239.96 C 33.76 239.98 35.06 236.29 36.56 231.75 Z  M 165.40 222.50 C 168.19 220.50 168.19 220.50 160.84 210.36 C 156.81 204.78 149.94 195.90 145.60 190.63 C 137.69 181.04 137.69 181.04 133.93 184.44 C 131.86 186.32 128.89 188.64 127.33 189.62 C 125.77 190.60 124.32 191.52 124.11 191.67 C 123.89 191.83 126.74 195.16 130.44 199.08 C 138.02 207.12 147.56 219.65 151.68 226.97 C 154.43 231.86 154.43 231.86 158.52 228.18 C 160.77 226.16 163.86 223.60 165.40 222.50 Z  M 64.56 126.01 C 67.00 122.05 68.99 118.52 68.97 118.16 C 68.86 115.99 22.19 85.00 19.04 85.00 C 18.60 85.00 17.72 86.25 17.09 87.78 C 16.46 89.31 14.62 92.56 13.00 95.00 C 10.06 99.44 10.06 99.44 13.28 101.39 C 22.97 107.26 45.50 122.68 51.98 127.88 C 56.09 131.18 59.61 133.73 59.79 133.54 C 59.97 133.36 62.12 129.97 64.56 126.01 Z  M 74.07 62.99 C 77.44 57.32 78.01 55.71 77.03 54.53 C 74.10 51.01 49.66 33.31 37.85 26.17 C 34.20 23.96 34.20 23.96 30.99 29.23 C 29.23 32.13 26.91 35.46 25.84 36.62 C 23.89 38.75 23.89 38.75 29.69 42.02 C 37.58 46.46 59.31 61.60 64.38 66.19 C 66.65 68.24 68.82 69.94 69.21 69.96 C 69.59 69.98 71.78 66.85 74.07 62.99 Z "/>
</g>
</svg>