<?xml version="1.0" encoding="UTF-8" standalone="no"?>
<!DOCTYPE svg PUBLIC "-//W3C//DTD SVG 1.1//EN" "http://www.w3.org/Graphics/SVG/1.1/DTD/svg11.dtd" >
<svg xmlns="http://www.w3.org/2000/svg" xmlns:xlink="http://www.w3.org/1999/xlink" version="1.1" viewBox="0 0 256 256">
 <g >
 <path fill="currentColor"
d=" M 54.29 239.08 C 53.86 238.21 53.37 206.11 53.21 167.75 C 52.92 98.00 52.92 98.00 128.49 98.00 C 204.06 98.00 204.06 98.00 203.78 156.75 C 203.46 224.82 204.03 220.77 194.29 223.60 C 190.14 224.81 186.27 225.12 179.93 224.76 C 171.24 224.26 171.24 224.26 173.62 227.77 C 175.34 230.31 176.00 232.66 176.00 236.29 C 176.00 241.30 176.00 241.30 184.75 240.63 C 205.11 239.07 213.59 235.85 217.98 228.00 C 220.50 223.50 220.50 223.50 221.00 153.00 C 221.28 114.22 221.45 82.38 221.40 82.23 C 221.34 82.08 215.91 82.45 209.34 83.05 C 196.15 84.25 42.94 83.76 37.28 82.50 C 34.07 81.78 34.07 81.78 34.78 87.14 C 35.73 94.24 35.71 221.09 34.76 232.08 C 34.01 240.67 34.01 240.67 44.55 240.67 C 53.83 240.67 54.99 240.48 54.29 239.08 Z  M 101.16 211.50 C 100.81 206.00 100.81 206.00 128.01 206.00 C 155.20 206.00 155.20 206.00 154.84 210.50 C 154.49 215.00 154.49 215.00 164.39 215.00 C 174.28 215.00 174.28 215.00 173.64 208.85 C 173.29 205.47 173.00 191.05 173.00 176.79 C 173.00 159.56 172.66 151.09 171.99 151.51 C 171.43 151.85 151.86 152.13 128.50 152.13 C 105.14 152.13 85.57 151.85 85.01 151.51 C 84.34 151.09 84.00 159.89 84.00 177.79 C 84.00 192.60 83.71 207.47 83.36 210.85 C 82.72 217.00 82.72 217.00 92.11 217.00 C 101.50 217.00 101.50 217.00 101.16 211.50 Z  M 128.50 133.50 C 149.40 133.50 171.34 133.83 177.25 134.24 C 188.00 134.98 188.00 134.98 188.00 126.43 C 188.00 120.37 187.67 118.08 186.88 118.57 C 185.42 119.48 71.58 119.48 70.12 118.57 C 69.33 118.08 69.00 120.37 69.00 126.43 C 69.00 134.98 69.00 134.98 79.75 134.24 C 85.66 133.83 107.60 133.50 128.50 133.50 Z  M 36.06 74.75 C 39.99 70.21 45.53 63.25 48.36 59.27 C 53.50 52.05 53.50 52.05 66.00 52.10 C 78.50 52.15 78.50 52.15 74.31 53.76 C 70.12 55.37 70.12 55.37 74.93 60.93 C 77.57 64.00 81.22 68.97 83.04 72.00 C 84.86 75.03 86.47 77.66 86.61 77.85 C 87.03 78.43 100.00 71.78 100.00 70.97 C 100.00 70.01 91.51 58.32 88.34 54.90 C 85.92 52.31 85.92 52.31 100.21 51.71 C 108.07 51.39 117.99 51.44 122.25 51.84 C 130.00 52.55 130.00 52.55 130.00 44.03 C 130.00 35.50 130.00 35.50 96.36 35.84 C 62.71 36.19 62.71 36.19 66.55 31.34 C 68.66 28.68 72.39 24.39 74.85 21.81 C 79.31 17.12 79.31 17.12 76.41 16.52 C 74.81 16.19 69.95 15.03 65.60 13.94 C 61.26 12.85 57.66 12.08 57.60 12.23 C 49.58 31.97 30.33 57.91 15.05 69.56 C 10.04 73.38 10.04 73.38 18.77 78.10 C 23.57 80.69 27.81 82.86 28.20 82.91 C 28.58 82.96 32.12 79.29 36.06 74.75 Z  M 146.00 64.71 C 154.50 52.03 154.50 52.03 168.50 52.03 C 182.50 52.03 182.50 52.03 179.00 54.20 C 177.07 55.39 175.35 56.47 175.17 56.60 C 174.99 56.72 177.85 59.90 181.53 63.66 C 185.21 67.42 189.36 72.19 190.74 74.25 C 192.13 76.31 193.40 78.00 193.56 78.00 C 193.72 78.00 196.58 76.38 199.92 74.39 C 205.98 70.78 205.98 70.78 204.09 68.14 C 203.06 66.69 199.49 62.53 196.16 58.91 C 190.11 52.31 190.11 52.31 208.30 51.74 C 218.31 51.42 229.99 51.48 234.25 51.86 C 242.00 52.55 242.00 52.55 242.00 44.03 C 242.00 35.50 242.00 35.50 203.00 35.84 C 170.71 36.12 164.00 35.95 164.00 34.83 C 164.00 33.10 170.37 23.45 174.17 19.41 C 177.09 16.32 177.09 16.32 168.79 15.14 C 164.23 14.50 159.56 13.72 158.41 13.41 C 156.66 12.94 156.04 13.61 154.52 17.68 C 149.07 32.17 138.15 49.28 126.15 62.10 C 118.09 70.71 118.09 70.71 126.80 74.22 C 131.58 76.16 135.95 77.66 136.50 77.56 C 137.05 77.46 141.32 71.68 146.00 64.71 Z  M 101.00 179.00 C 101.00 167.00 101.00 167.00 128.50 167.00 C 156.00 167.00 156.00 167.00 156.00 179.00 C 156.00 191.00 156.00 191.00 128.50 191.00 C 101.00 191.00 101.00 191.00 101.00 179.00 Z "/>
</g>
</svg>