<?xml version="1.0" encoding="UTF-8" standalone="no"?>
<!DOCTYPE svg PUBLIC "-//W3C//DTD SVG 1.1//EN" "http://www.w3.org/Graphics/SVG/1.1/DTD/svg11.dtd" >
<svg xmlns="http://www.w3.org/2000/svg" xmlns:xlink="http://www.w3.org/1999/xlink" version="1.1" viewBox="0 0 256 256">
 <g >
 <path fill="currentColor"
d=" M 119.66 235.79 C 119.33 231.48 119.34 218.47 119.69 206.88 C 120.32 185.81 120.32 185.81 173.91 186.33 C 203.39 186.61 228.96 187.15 230.75 187.53 C 234.00 188.23 234.00 188.23 234.00 178.36 C 234.00 168.50 234.00 168.50 177.00 168.78 C 120.00 169.06 120.00 169.06 120.00 147.96 C 120.00 126.86 120.00 126.86 172.00 127.18 C 224.00 127.50 224.00 127.50 224.00 118.23 C 224.00 108.95 224.00 108.95 215.75 109.72 C 211.21 110.15 205.25 110.49 202.50 110.47 C 113.21 110.10 120.00 111.82 120.00 89.61 C 120.00 69.22 120.00 69.22 175.25 68.86 C 205.64 68.66 233.31 68.73 236.75 69.02 C 243.00 69.55 243.00 69.55 243.00 60.52 C 243.00 51.50 243.00 51.50 162.00 51.80 C 117.45 51.96 81.00 51.85 81.00 51.55 C 81.00 50.71 95.97 23.86 98.16 20.78 C 100.09 18.06 100.09 18.06 97.30 17.48 C 93.51 16.68 83.99 14.30 81.38 13.49 C 79.66 12.96 79.13 13.35 78.57 15.56 C 77.40 20.23 66.53 44.04 61.02 54.00 C 48.64 76.40 36.71 92.33 19.67 109.25 C 13.71 115.16 9.29 120.00 9.83 120.00 C 10.38 120.00 14.47 122.70 18.92 126.00 C 27.01 132.00 27.01 132.00 30.71 127.90 C 41.03 116.48 57.98 92.64 67.07 76.76 C 71.50 69.02 71.50 69.02 86.80 69.01 C 102.10 69.00 102.10 69.00 101.80 156.32 C 101.50 243.64 101.50 243.64 110.88 243.64 C 120.27 243.64 120.27 243.64 119.66 235.79 Z "/>
</g>
</svg>