<?xml version="1.0" encoding="UTF-8" standalone="no"?>
<!DOCTYPE svg PUBLIC "-//W3C//DTD SVG 1.1//EN" "http://www.w3.org/Graphics/SVG/1.1/DTD/svg11.dtd" >
<svg xmlns="http://www.w3.org/2000/svg" xmlns:xlink="http://www.w3.org/1999/xlink" version="1.1" viewBox="0 0 256 256">
 <g >
 <path fill="currentColor"
d=" M 146.45 236.55 C 146.13 233.77 145.67 230.49 145.42 229.25 C 144.96 227.00 144.96 227.00 174.05 227.00 C 203.14 227.00 203.14 227.00 202.49 232.75 C 202.13 235.91 201.64 239.21 201.41 240.07 C 201.04 241.41 202.35 241.64 210.57 241.64 C 220.16 241.64 220.16 241.64 219.47 239.07 C 218.21 234.41 217.75 167.42 218.91 158.77 C 219.51 154.31 219.89 150.63 219.75 150.58 C 219.61 150.54 201.50 150.72 179.50 151.00 C 157.50 151.28 137.33 151.24 134.69 150.92 C 129.87 150.34 129.87 150.34 130.19 195.97 C 130.50 241.60 130.50 241.60 138.76 241.60 C 147.02 241.60 147.02 241.60 146.45 236.55 Z  M 48.17 217.85 C 47.85 198.00 47.85 198.00 67.04 198.00 C 86.23 198.00 86.23 198.00 85.84 207.84 C 85.34 220.14 84.04 222.57 77.41 223.57 C 74.87 223.95 70.31 224.00 67.28 223.69 C 61.76 223.12 61.76 223.12 63.82 225.31 C 66.29 227.95 68.00 232.20 68.00 235.70 C 68.00 238.28 68.00 238.28 76.75 237.60 C 88.27 236.71 95.60 233.31 98.50 227.50 C 100.42 223.67 100.51 221.34 100.65 172.50 C 100.80 121.50 100.80 121.50 70.65 122.04 C 54.07 122.34 38.70 122.31 36.50 121.99 C 32.50 121.39 32.50 121.39 32.50 179.55 C 32.50 237.70 32.50 237.70 40.50 237.70 C 48.50 237.70 48.50 237.70 48.17 217.85 Z  M 133.93 142.38 C 149.45 135.00 161.54 127.97 170.16 121.31 C 174.87 117.67 177.77 116.05 178.53 116.62 C 179.16 117.10 182.79 119.88 186.59 122.79 C 194.67 128.99 208.93 136.13 224.75 141.90 C 230.93 144.15 236.24 146.00 236.55 146.00 C 236.85 146.00 237.80 144.32 238.66 142.27 C 239.52 140.22 241.49 136.70 243.04 134.44 C 245.87 130.33 245.87 130.33 236.37 127.64 C 219.31 122.82 197.29 113.10 189.93 107.14 C 187.70 105.34 187.70 105.34 193.83 97.63 C 203.48 85.49 213.62 66.87 220.30 49.00 C 222.26 43.77 224.12 38.82 224.45 37.99 C 224.96 36.65 221.34 36.52 193.52 36.85 C 173.83 37.09 162.00 36.87 162.00 36.27 C 162.00 34.74 169.91 22.81 173.24 19.30 C 176.29 16.11 176.29 16.11 173.89 15.63 C 172.58 15.37 168.35 14.44 164.51 13.56 C 158.96 12.29 157.43 12.22 157.10 13.23 C 156.88 13.93 153.84 20.12 150.36 27.00 C 142.77 41.98 130.74 58.51 119.35 69.61 C 109.90 78.82 109.84 77.79 120.17 84.30 C 125.84 87.87 125.84 87.87 130.17 83.19 C 132.55 80.61 135.85 76.79 137.51 74.69 C 140.51 70.89 140.51 70.89 144.42 77.69 C 149.04 85.74 153.98 92.57 160.90 100.49 C 163.68 103.66 165.73 106.62 165.46 107.07 C 163.06 110.94 135.41 125.43 117.75 132.06 C 109.01 135.34 109.01 135.34 111.49 138.42 C 112.86 140.11 114.96 143.19 116.18 145.26 C 118.80 149.74 118.26 149.83 133.93 142.38 Z  M 27.18 118.99 C 26.86 103.98 26.86 103.98 65.68 104.24 C 104.50 104.50 104.50 104.50 104.78 116.75 C 105.06 129.00 105.06 129.00 112.03 129.00 C 118.99 129.00 118.99 129.00 118.74 110.00 C 118.50 91.00 118.50 91.00 111.75 91.00 C 105.00 91.00 105.00 91.00 104.75 65.25 C 104.61 51.09 104.63 35.90 104.78 31.50 C 105.05 23.50 105.05 23.50 66.27 23.50 C 27.50 23.50 27.50 23.50 27.50 57.50 C 27.50 91.50 27.50 91.50 20.25 91.30 C 13.00 91.10 13.00 91.10 12.99 110.30 C 12.98 120.86 12.70 130.51 12.37 131.75 C 11.78 133.94 11.96 134.00 19.63 134.00 C 27.50 134.00 27.50 134.00 27.18 118.99 Z  M 145.23 189.75 C 145.50 166.50 145.50 166.50 174.25 166.23 C 203.00 165.97 203.00 165.97 203.00 189.48 C 203.00 213.00 203.00 213.00 173.98 213.00 C 144.96 213.00 144.96 213.00 145.23 189.75 Z  M 48.00 176.00 C 48.00 166.00 48.00 166.00 67.00 166.00 C 86.00 166.00 86.00 166.00 86.00 176.00 C 86.00 186.00 86.00 186.00 67.00 186.00 C 48.00 186.00 48.00 186.00 48.00 176.00 Z  M 48.00 144.48 C 48.00 134.96 48.00 134.96 66.75 135.23 C 85.50 135.50 85.50 135.50 85.79 144.75 C 86.08 154.00 86.08 154.00 67.04 154.00 C 48.00 154.00 48.00 154.00 48.00 144.48 Z  M 169.91 88.75 C 160.87 78.28 150.00 60.76 150.00 56.66 C 150.00 53.25 152.39 52.96 178.90 53.23 C 205.05 53.50 205.05 53.50 201.03 61.83 C 198.81 66.41 195.05 73.16 192.67 76.83 C 187.68 84.53 178.34 96.00 177.05 96.00 C 176.57 96.00 173.36 92.74 169.91 88.75 Z  M 42.00 79.50 C 42.00 68.00 42.00 68.00 52.00 68.00 C 62.00 68.00 62.00 68.00 62.00 79.50 C 62.00 91.00 62.00 91.00 52.00 91.00 C 42.00 91.00 42.00 91.00 42.00 79.50 Z  M 75.78 77.75 C 75.51 70.46 75.59 62.13 75.97 59.23 C 76.65 53.96 76.65 53.96 59.32 54.63 C 42.00 55.31 42.00 55.31 42.00 46.15 C 42.00 37.00 42.00 37.00 66.50 37.00 C 91.00 37.00 91.00 37.00 91.00 64.00 C 91.00 91.00 91.00 91.00 83.64 91.00 C 76.28 91.00 76.28 91.00 75.78 77.75 Z "/>
</g>
</svg>