<?xml version="1.0" encoding="UTF-8" standalone="no"?>
<!DOCTYPE svg PUBLIC "-//W3C//DTD SVG 1.1//EN" "http://www.w3.org/Graphics/SVG/1.1/DTD/svg11.dtd" >
<svg xmlns="http://www.w3.org/2000/svg" xmlns:xlink="http://www.w3.org/1999/xlink" version="1.1" viewBox="0 0 256 256">
 <g >
 <path fill="currentColor"
d=" M 107.00 228.45 C 122.40 225.92 140.08 220.94 148.25 216.84 C 151.99 214.96 151.99 214.96 159.25 219.07 C 168.51 224.32 179.44 227.99 187.98 228.70 C 203.71 230.02 215.01 220.88 211.84 209.40 C 209.80 202.00 203.55 198.40 191.00 197.39 C 178.87 196.42 179.18 196.90 185.54 189.04 C 196.62 175.33 203.57 160.07 206.06 144.05 C 207.35 135.74 206.10 129.86 202.16 125.66 C 196.79 119.93 195.16 119.56 173.87 119.18 C 154.25 118.82 154.25 118.82 155.61 114.29 C 159.66 100.85 147.59 90.92 134.46 96.88 C 128.74 99.48 125.36 103.94 123.96 110.74 C 121.18 124.24 118.65 131.94 114.74 138.81 C 110.95 145.46 104.47 152.62 99.45 155.69 C 97.75 156.73 98.05 156.89 101.82 156.94 C 106.81 157.01 118.39 153.35 127.11 148.95 C 136.28 144.32 138.83 146.19 137.53 156.60 C 136.67 163.48 137.34 165.43 141.42 167.95 C 151.27 174.04 163.18 166.04 161.32 154.58 C 160.13 147.28 150.46 141.28 141.73 142.44 C 136.75 143.10 136.75 143.10 143.11 137.05 C 149.47 131.00 149.47 131.00 160.65 131.00 C 166.80 131.00 172.49 131.25 173.30 131.56 C 174.55 132.04 174.42 133.71 172.41 143.21 C 171.12 149.31 169.09 157.27 167.91 160.90 C 165.63 167.87 158.26 182.84 155.11 186.92 C 153.24 189.33 153.24 189.33 148.37 186.52 C 139.68 181.50 134.21 177.03 131.19 172.47 C 128.96 169.11 127.98 168.32 127.20 169.26 C 125.00 171.91 130.08 188.01 136.14 197.56 C 137.78 200.15 138.76 202.58 138.31 202.96 C 137.87 203.34 134.80 205.93 131.50 208.71 C 124.86 214.32 112.74 221.11 100.50 226.09 C 91.17 229.88 88.97 231.41 94.00 230.58 C 95.92 230.27 101.78 229.31 107.00 228.45 Z  M 81.69 215.34 C 83.61 214.43 86.38 211.88 87.84 209.67 C 90.50 205.65 90.50 205.65 90.81 170.76 C 91.12 135.86 91.12 135.86 94.52 131.41 C 102.47 120.99 101.62 109.42 92.59 105.04 C 85.74 101.73 78.20 102.60 73.19 107.30 C 71.92 108.49 69.15 113.16 67.03 117.68 C 61.60 129.27 52.26 138.04 42.13 141.08 C 39.83 141.77 38.10 142.82 38.29 143.42 C 38.83 145.08 47.94 147.83 53.21 147.92 C 57.91 148.00 57.91 148.00 58.21 177.25 C 58.50 206.31 58.52 206.52 60.90 209.87 C 65.40 216.17 74.75 218.64 81.69 215.34 Z  M 189.29 81.35 C 200.84 79.44 202.73 65.00 191.42 65.00 C 189.47 65.00 187.28 65.94 185.59 67.50 C 182.90 70.00 182.90 70.00 123.78 70.00 C 70.17 70.00 64.49 70.15 62.83 71.65 C 59.52 74.65 61.12 79.49 66.00 81.29 C 68.10 82.06 184.65 82.12 189.29 81.35 Z  M 139.31 56.99 C 146.62 51.98 148.28 44.18 143.92 35.38 C 140.33 28.14 135.70 25.79 126.00 26.29 C 120.76 26.55 117.14 27.36 114.00 28.95 C 106.60 32.71 103.79 36.00 108.00 36.00 C 111.27 36.00 113.75 39.45 114.95 45.66 C 116.54 53.83 117.49 55.71 121.23 58.06 C 125.71 60.87 134.39 60.36 139.31 56.99 Z "/>
</g>
</svg>