<?xml version="1.0" encoding="UTF-8" standalone="no"?>
<!DOCTYPE svg PUBLIC "-//W3C//DTD SVG 1.1//EN" "http://www.w3.org/Graphics/SVG/1.1/DTD/svg11.dtd" >
<svg xmlns="http://www.w3.org/2000/svg" xmlns:xlink="http://www.w3.org/1999/xlink" version="1.1" viewBox="0 0 256 256">
 <g >
 <path fill="currentColor"
d=" M 220.99 216.51 C 224.84 214.51 227.00 211.24 227.00 207.40 C 227.00 203.67 225.39 202.10 220.84 201.37 C 218.04 200.92 217.02 201.34 214.56 203.92 C 211.63 207.00 211.63 207.00 198.31 207.00 C 185.00 207.00 185.00 207.00 185.00 190.00 C 185.00 173.00 185.00 173.00 196.60 173.00 C 208.20 173.00 208.20 173.00 211.60 169.60 C 217.00 164.20 215.92 157.70 209.39 156.42 C 206.86 155.92 205.64 156.38 202.76 158.90 C 199.52 161.75 198.65 162.00 192.09 162.00 C 184.95 162.00 184.95 162.00 185.23 144.25 C 185.50 126.50 185.50 126.50 197.50 126.00 C 210.37 125.46 213.12 124.59 218.41 119.34 C 223.69 114.11 224.00 112.22 224.00 85.00 C 224.00 66.24 223.66 59.13 222.65 56.72 C 220.84 52.38 213.99 46.37 209.31 45.00 C 206.71 44.24 193.09 43.98 166.33 44.19 C 127.17 44.50 127.17 44.50 122.84 47.54 C 120.46 49.21 117.51 52.36 116.27 54.54 C 114.11 58.37 114.03 59.39 114.03 85.00 C 114.03 110.61 114.11 111.63 116.27 115.46 C 117.51 117.64 120.46 120.79 122.84 122.46 C 127.01 125.39 127.61 125.51 139.58 125.83 C 152.00 126.16 152.00 126.16 152.00 144.08 C 152.00 162.00 152.00 162.00 139.43 162.00 C 132.52 162.00 126.00 162.47 124.93 163.04 C 122.80 164.17 122.38 167.97 124.04 171.07 C 124.98 172.83 126.25 173.00 138.54 173.00 C 152.00 173.00 152.00 173.00 152.00 190.00 C 152.00 207.00 152.00 207.00 133.43 207.00 C 122.55 207.00 114.07 207.43 112.93 208.04 C 110.55 209.31 110.34 214.20 112.57 216.43 C 113.96 217.82 120.20 218.00 166.12 218.00 C 210.28 218.00 218.53 217.78 220.99 216.51 Z  M 74.01 186.75 C 75.83 185.51 78.26 183.23 79.41 181.68 C 81.42 178.97 81.51 177.53 81.80 145.43 C 81.97 127.04 82.33 112.00 82.62 112.00 C 86.10 112.00 88.98 117.89 88.99 125.03 C 89.01 132.19 95.61 136.45 102.35 133.63 C 107.13 131.63 109.34 127.15 108.80 120.55 C 107.80 108.55 96.78 102.50 85.96 108.02 C 82.00 110.04 82.00 110.04 81.98 95.77 C 81.95 75.27 79.19 69.96 68.21 69.26 C 61.54 68.83 57.22 70.95 53.99 76.24 C 52.08 79.38 52.01 81.37 52.00 129.10 C 52.00 178.70 52.00 178.70 54.25 182.00 C 58.88 188.79 67.85 190.94 74.01 186.75 Z  M 36.21 146.30 C 37.78 144.79 40.24 141.17 41.66 138.25 C 43.94 133.59 44.20 132.07 43.76 125.72 C 43.19 117.58 40.43 109.51 35.89 102.64 C 32.67 97.78 30.38 96.47 31.55 100.15 C 33.89 107.54 31.62 114.85 23.04 127.50 C 17.44 135.76 16.37 140.04 18.70 144.81 C 21.94 151.44 30.12 152.13 36.21 146.30 Z  M 142.04 113.07 C 141.47 112.00 141.00 106.60 141.00 101.07 C 141.00 91.00 141.00 91.00 146.50 91.00 C 152.00 91.00 152.00 91.00 152.00 103.00 C 152.00 115.00 152.00 115.00 147.54 115.00 C 144.14 115.00 142.82 114.53 142.04 113.07 Z  M 185.00 103.05 C 185.00 91.00 185.00 91.00 190.53 91.00 C 196.06 91.00 196.06 91.00 195.78 102.75 C 195.50 114.50 195.50 114.50 190.25 114.80 C 185.00 115.10 185.00 115.10 185.00 103.05 Z  M 141.67 79.33 C 140.63 78.30 140.88 60.44 141.98 57.57 C 142.82 55.33 143.54 55.00 147.48 55.00 C 152.00 55.00 152.00 55.00 152.00 67.50 C 152.00 80.00 152.00 80.00 147.17 80.00 C 144.51 80.00 142.03 79.70 141.67 79.33 Z  M 185.67 79.33 C 185.30 78.97 185.00 73.34 185.00 66.83 C 185.00 55.00 185.00 55.00 189.89 55.00 C 193.43 55.00 194.95 55.44 195.39 56.58 C 195.73 57.45 196.00 63.08 196.00 69.08 C 196.00 80.00 196.00 80.00 191.17 80.00 C 188.51 80.00 186.03 79.70 185.67 79.33 Z "/>
</g>
</svg>