<?xml version="1.0" encoding="UTF-8" standalone="no"?>
<!DOCTYPE svg PUBLIC "-//W3C//DTD SVG 1.1//EN" "http://www.w3.org/Graphics/SVG/1.1/DTD/svg11.dtd" >
<svg xmlns="http://www.w3.org/2000/svg" xmlns:xlink="http://www.w3.org/1999/xlink" version="1.1" viewBox="0 0 256 256">
 <g >
 <path fill="currentColor"
d=" M 154.59 231.70 C 164.21 229.20 171.00 221.21 171.00 212.38 C 171.00 204.13 164.34 195.13 155.50 191.44 C 151.59 189.80 150.87 190.92 153.53 194.44 C 155.46 196.99 155.41 202.45 153.43 204.43 C 151.12 206.74 148.58 207.12 137.50 206.79 C 127.50 206.50 127.50 206.50 126.79 195.11 C 125.93 181.41 123.83 177.14 116.28 173.80 C 108.43 170.33 101.33 172.52 96.25 179.99 C 94.15 183.07 94.00 184.36 94.01 198.90 C 94.02 213.23 94.21 214.92 96.40 219.62 C 98.98 225.15 103.76 229.44 109.75 231.57 C 114.88 233.41 147.65 233.50 154.59 231.70 Z  M 74.32 202.55 C 79.30 200.77 81.87 198.40 84.12 193.50 C 87.85 185.37 85.70 175.98 78.51 169.01 C 75.00 165.61 75.00 165.61 75.00 168.28 C 75.00 171.67 72.25 173.46 64.74 174.98 C 57.64 176.42 53.40 179.79 51.96 185.16 C 49.96 192.56 53.06 198.76 60.42 202.10 C 65.24 204.29 69.09 204.41 74.32 202.55 Z  M 199.01 199.75 C 204.39 196.09 206.39 192.64 206.31 187.18 C 206.13 175.30 196.49 168.20 181.95 169.24 C 176.60 169.62 173.78 170.49 168.52 173.38 C 164.85 175.39 162.14 176.58 162.50 176.01 C 162.85 175.44 162.43 172.54 161.56 169.57 C 158.73 159.81 150.93 155.82 138.70 157.87 C 134.96 158.50 130.12 159.92 127.95 161.03 C 123.21 163.44 122.68 166.00 126.93 166.00 C 130.48 166.00 133.51 169.48 135.10 175.38 C 137.02 182.51 138.67 184.71 143.51 186.56 C 147.40 188.04 148.67 188.12 152.16 187.07 C 154.42 186.39 157.84 184.31 159.76 182.44 C 163.68 178.64 168.90 177.18 172.58 178.85 C 175.46 180.17 178.99 185.60 179.00 188.73 C 179.01 199.33 190.41 205.60 199.01 199.75 Z  M 113.83 147.12 C 120.67 142.25 120.47 143.93 120.79 88.27 C 120.99 54.83 120.73 36.71 120.02 34.06 C 117.03 22.96 105.51 17.77 95.88 23.19 C 89.69 26.66 88.57 29.14 88.00 40.50 C 87.50 50.50 87.50 50.50 74.07 50.78 C 66.25 50.94 60.08 51.52 59.32 52.15 C 57.16 53.94 57.80 57.70 60.63 59.93 C 62.98 61.77 64.64 62.00 75.67 62.00 C 88.08 62.00 88.08 62.00 87.79 71.25 C 87.50 80.50 87.50 80.50 76.04 80.78 C 63.58 81.09 61.00 82.11 61.00 86.71 C 61.00 90.42 66.05 92.00 77.97 92.00 C 88.00 92.00 88.00 92.00 88.00 102.00 C 88.00 112.00 88.00 112.00 74.22 112.00 C 59.25 112.00 56.00 112.96 56.00 117.37 C 56.00 122.46 57.41 122.95 73.00 123.23 C 87.50 123.50 87.50 123.50 88.01 132.01 C 88.59 141.62 90.53 145.49 96.22 148.39 C 100.84 150.75 109.62 150.12 113.83 147.12 Z  M 164.12 147.81 C 170.06 144.48 171.43 141.73 172.00 132.00 C 172.50 123.50 172.50 123.50 186.50 122.98 C 194.20 122.69 201.26 122.09 202.19 121.64 C 207.00 119.34 208.51 111.49 204.81 108.04 C 201.66 105.10 197.90 105.46 194.50 109.00 C 191.69 111.93 191.41 112.00 181.81 112.00 C 172.00 112.00 172.00 112.00 172.00 102.00 C 172.00 92.00 172.00 92.00 179.75 91.96 C 194.79 91.87 201.00 89.06 201.00 82.33 C 201.00 75.24 193.84 72.74 187.89 77.75 C 185.11 80.08 183.71 80.50 178.56 80.50 C 172.50 80.50 172.50 80.50 172.21 71.25 C 171.92 62.00 171.92 62.00 182.72 62.00 C 194.79 62.00 199.23 61.08 202.66 57.85 C 205.86 54.85 205.81 49.71 202.55 46.45 C 199.09 42.99 195.74 43.32 191.52 47.54 C 188.01 51.06 187.93 51.08 180.24 50.79 C 172.50 50.50 172.50 50.50 172.00 40.82 C 171.60 33.12 171.08 30.57 169.44 28.38 C 166.15 23.98 162.57 21.82 157.67 21.27 C 151.62 20.58 148.73 21.42 144.58 25.07 C 139.02 29.95 138.81 32.33 139.18 88.50 C 139.50 138.50 139.50 138.50 141.90 142.35 C 143.21 144.47 145.69 147.06 147.40 148.10 C 151.71 150.73 159.16 150.60 164.12 147.81 Z "/>
</g>
</svg>