<?xml version="1.0" encoding="UTF-8" standalone="no"?>
<!DOCTYPE svg PUBLIC "-//W3C//DTD SVG 1.1//EN" "http://www.w3.org/Graphics/SVG/1.1/DTD/svg11.dtd" >
<svg xmlns="http://www.w3.org/2000/svg" xmlns:xlink="http://www.w3.org/1999/xlink" version="1.1" viewBox="0 0 256 256">
 <g >
 <path fill="currentColor"
d=" M 165.32 234.93 C 169.93 233.65 176.20 228.20 178.40 223.58 C 179.59 221.06 180.00 217.14 180.00 208.28 C 180.00 197.25 179.79 195.95 177.25 190.95 C 175.02 186.57 173.56 185.06 169.53 183.02 C 164.56 180.50 164.56 180.50 130.03 180.20 C 91.69 179.86 89.21 180.15 83.52 185.68 C 77.24 191.78 76.00 195.47 76.00 208.06 C 76.00 216.51 76.41 220.07 77.72 222.82 C 80.07 227.77 86.24 233.73 90.21 234.87 C 94.86 236.21 160.52 236.26 165.32 234.93 Z  M 190.02 167.49 C 194.99 164.92 196.49 159.57 193.44 155.22 C 191.25 152.09 186.08 152.22 183.00 155.50 C 180.65 158.00 180.65 158.00 120.15 158.00 C 65.26 158.00 59.49 158.15 57.83 159.65 C 55.75 161.53 55.41 166.01 57.20 167.80 C 58.11 168.71 74.03 169.00 122.75 169.00 C 178.19 169.00 187.50 168.79 190.02 167.49 Z  M 118.70 149.04 C 124.15 145.72 126.41 138.83 124.06 132.67 C 123.30 130.65 123.46 130.11 124.96 129.72 C 130.72 128.22 133.29 131.02 134.56 140.17 C 135.32 145.66 138.14 148.79 143.40 149.98 C 150.78 151.64 159.13 147.23 160.51 140.94 C 162.02 134.09 156.19 124.21 149.31 121.94 C 142.61 119.73 130.71 122.53 124.81 127.72 C 123.30 129.04 122.77 128.93 119.81 126.69 C 113.31 121.77 105.67 121.20 97.93 125.07 C 92.38 127.85 91.49 129.43 94.41 131.35 C 96.19 132.51 97.17 134.50 98.04 138.69 C 99.74 146.87 103.97 151.00 110.65 151.00 C 113.69 150.99 116.69 150.27 118.70 149.04 Z  M 173.94 109.56 C 177.96 105.71 178.13 101.04 174.37 98.07 C 170.64 95.14 167.31 95.45 164.19 99.00 C 161.55 102.00 161.55 102.00 121.53 102.01 C 78.83 102.03 76.83 102.24 76.17 106.86 C 75.99 108.13 76.63 110.04 77.60 111.11 C 79.30 112.99 80.87 113.05 125.12 112.78 C 170.87 112.50 170.87 112.50 173.94 109.56 Z  M 137.97 94.25 C 142.97 91.72 145.49 86.79 145.40 79.70 C 145.31 73.46 143.72 70.37 138.61 66.56 C 136.31 64.85 134.39 64.50 127.17 64.52 C 117.96 64.55 112.71 66.34 108.60 70.89 C 106.72 72.97 106.72 73.00 108.69 73.00 C 111.79 73.00 114.08 76.31 116.11 83.72 C 118.62 92.87 121.97 96.00 129.27 96.00 C 132.26 96.00 135.98 95.25 137.97 94.25 Z  M 104.70 64.83 C 109.02 62.22 111.73 57.55 112.56 51.24 C 113.26 46.00 113.26 46.00 127.50 46.00 C 141.74 46.00 141.74 46.00 142.39 50.88 C 143.47 59.03 148.97 65.29 156.58 67.03 C 167.03 69.41 177.00 61.36 177.00 50.55 C 177.00 46.00 177.00 46.00 184.75 45.99 C 194.30 45.99 198.97 44.76 202.38 41.35 C 205.66 38.07 205.72 34.63 202.55 31.45 C 199.23 28.13 195.53 28.33 191.29 32.05 C 188.23 34.73 187.20 35.06 182.66 34.80 C 177.50 34.50 177.50 34.50 176.99 28.81 C 176.19 19.78 170.75 14.07 162.19 13.24 C 159.46 12.98 155.63 13.30 153.67 13.95 C 147.22 16.07 142.02 24.23 142.01 32.25 C 142.00 35.00 142.00 35.00 127.50 35.00 C 113.00 35.00 113.00 35.00 112.99 32.25 C 112.98 24.63 108.09 16.52 101.99 14.00 C 97.96 12.33 89.51 13.23 86.24 15.67 C 81.56 19.16 79.54 22.84 79.01 28.81 C 78.50 34.50 78.50 34.50 66.21 35.00 C 56.77 35.38 53.70 35.85 52.98 37.00 C 51.36 39.56 51.89 41.77 54.63 43.93 C 56.93 45.74 58.66 46.00 68.13 46.00 C 79.00 46.00 79.00 46.00 79.00 50.55 C 79.00 63.89 93.18 71.77 104.70 64.83 Z  M 111.69 224.36 C 110.42 223.09 110.89 193.51 112.20 192.20 C 114.03 190.37 142.37 190.54 143.90 192.38 C 144.69 193.33 144.97 198.65 144.78 209.13 C 144.50 224.50 144.50 224.50 128.44 224.77 C 119.61 224.92 112.07 224.74 111.69 224.36 Z "/>
</g>
</svg>