<?xml version="1.0" encoding="UTF-8" standalone="no"?>
<!DOCTYPE svg PUBLIC "-//W3C//DTD SVG 1.1//EN" "http://www.w3.org/Graphics/SVG/1.1/DTD/svg11.dtd" >
<svg xmlns="http://www.w3.org/2000/svg" xmlns:xlink="http://www.w3.org/1999/xlink" version="1.1" viewBox="0 0 256 256">
 <g >
 <path fill="currentColor"
d=" M 189.75 224.42 C 194.98 222.30 199.90 218.03 202.80 213.09 C 205.50 208.50 205.50 208.50 205.80 170.75 C 206.09 133.00 206.09 133.00 218.09 133.00 C 233.65 133.00 238.00 130.94 238.00 123.57 C 238.00 117.35 229.51 114.70 225.00 119.50 C 222.65 122.00 222.65 122.00 180.26 122.00 C 138.11 122.00 134.88 122.23 132.77 125.40 C 131.38 127.47 132.00 130.93 133.93 131.96 C 135.04 132.56 142.93 133.00 152.43 133.00 C 169.00 133.00 169.00 133.00 169.00 167.81 C 169.00 204.43 168.84 205.75 164.50 206.14 C 159.66 206.57 157.62 205.72 152.96 201.36 C 147.07 195.86 146.55 197.18 151.06 206.11 C 159.61 223.05 175.08 230.37 189.75 224.42 Z  M 103.39 208.20 C 110.79 203.86 112.61 195.41 107.93 187.03 C 104.67 181.18 99.47 178.50 91.37 178.50 C 85.88 178.50 84.65 178.91 79.56 182.41 C 73.88 186.33 73.88 186.33 76.83 187.57 C 79.99 188.90 81.42 191.99 82.60 200.00 C 83.36 205.12 85.18 207.67 89.50 209.64 C 93.07 211.28 99.23 210.63 103.39 208.20 Z  M 55.10 208.86 C 67.34 204.76 70.24 190.22 62.52 171.75 C 61.84 170.12 62.99 170.00 78.93 170.00 C 97.91 170.00 100.85 169.35 105.22 164.15 C 109.69 158.84 110.13 153.61 109.80 109.84 C 109.53 74.13 109.30 69.14 107.80 66.40 C 105.37 61.96 99.59 57.20 95.77 56.49 C 93.97 56.16 82.11 56.02 69.42 56.19 C 46.34 56.50 46.34 56.50 42.66 59.31 C 40.64 60.85 38.09 63.87 36.99 66.02 C 35.09 69.74 35.00 71.94 35.02 112.71 C 35.04 152.09 35.19 155.82 36.88 159.50 C 40.08 166.46 46.18 170.00 54.99 170.00 C 59.98 170.00 60.03 170.03 59.44 172.75 C 57.61 181.12 55.11 183.00 45.80 183.00 C 36.95 183.00 32.00 187.42 32.00 195.32 C 32.00 206.18 43.31 212.81 55.10 208.86 Z  M 146.22 96.96 C 153.28 95.00 159.00 88.09 159.00 81.53 C 159.00 79.00 159.00 79.00 187.39 79.00 C 218.90 79.00 217.00 78.56 217.00 85.86 C 217.00 87.89 216.33 90.52 215.50 91.69 C 214.08 93.72 214.21 93.92 218.32 95.91 C 226.37 99.81 238.13 97.94 243.68 91.88 C 250.68 84.25 249.05 69.29 240.66 64.10 C 234.73 60.44 224.03 61.65 220.05 66.43 C 218.93 67.79 214.74 68.00 188.53 68.00 C 158.30 68.00 158.30 68.00 155.19 63.00 C 151.82 57.58 150.32 56.79 149.82 60.15 C 149.33 63.41 145.24 65.85 137.57 67.45 C 128.80 69.28 125.02 72.63 124.28 79.23 C 123.58 85.38 126.67 92.26 131.16 94.58 C 137.78 98.00 140.75 98.47 146.22 96.96 Z  M 194.72 52.38 C 196.25 51.24 198.55 48.78 199.84 46.91 C 203.24 41.94 202.61 32.74 198.45 26.86 C 192.56 18.51 180.66 15.93 171.00 20.91 C 163.91 24.56 159.78 29.00 163.46 29.00 C 165.49 29.00 166.98 32.13 169.15 40.96 C 170.65 47.09 171.68 49.13 174.60 51.86 C 178.09 55.10 178.43 55.20 185.07 54.83 C 189.99 54.55 192.73 53.85 194.72 52.38 Z  M 65.25 158.34 C 64.34 157.97 64.00 154.41 64.00 145.38 C 64.00 132.92 64.00 132.92 72.25 133.21 C 80.50 133.50 80.50 133.50 80.79 144.38 C 81.14 157.89 80.45 159.04 72.10 158.92 C 69.02 158.88 65.94 158.62 65.25 158.34 Z  M 64.00 110.96 C 64.00 99.92 64.00 99.92 72.25 100.21 C 80.50 100.50 80.50 100.50 80.78 111.25 C 81.07 122.00 81.07 122.00 72.53 122.00 C 64.00 122.00 64.00 122.00 64.00 110.96 Z  M 64.22 78.25 C 64.50 67.50 64.50 67.50 71.34 67.20 C 75.52 67.02 78.73 67.36 79.59 68.07 C 80.63 68.94 81.00 71.84 81.00 79.12 C 81.00 89.00 81.00 89.00 72.47 89.00 C 63.93 89.00 63.93 89.00 64.22 78.25 Z "/>
</g>
</svg>