<?xml version="1.0" encoding="UTF-8" standalone="no"?>
<!DOCTYPE svg PUBLIC "-//W3C//DTD SVG 1.1//EN" "http://www.w3.org/Graphics/SVG/1.1/DTD/svg11.dtd" >
<svg xmlns="http://www.w3.org/2000/svg" xmlns:xlink="http://www.w3.org/1999/xlink" version="1.1" viewBox="0 0 256 256">
 <g >
 <path fill="currentColor"
d=" M 119.35 215.50 C 121.08 214.67 123.62 212.34 125.00 210.32 C 127.45 206.72 127.51 206.22 127.85 184.32 C 128.19 161.99 128.19 161.99 130.85 161.41 C 136.98 160.06 143.00 157.77 143.00 156.78 C 143.00 156.07 140.53 155.95 135.50 156.40 C 128.00 157.08 128.00 157.08 128.00 112.17 C 128.00 67.26 128.00 67.26 133.92 66.59 C 141.78 65.70 145.00 63.19 145.00 57.97 C 145.00 51.63 138.39 47.42 134.95 51.57 C 131.34 55.91 130.32 56.00 82.62 56.00 C 33.17 56.00 34.00 55.91 34.00 61.51 C 34.00 64.75 37.57 67.00 42.72 67.00 C 47.00 67.00 47.00 67.00 47.00 115.42 C 47.00 163.84 47.00 163.84 42.25 165.45 C 36.85 167.29 35.12 168.47 32.70 171.97 C 27.99 178.82 33.82 188.00 42.89 188.00 C 44.53 188.00 57.15 184.62 70.93 180.50 C 84.72 176.38 96.67 173.00 97.50 173.00 C 98.78 173.00 99.00 175.57 99.00 190.25 C 99.01 205.78 99.21 207.83 101.02 210.81 C 104.47 216.47 112.84 218.61 119.35 215.50 Z  M 153.73 186.96 C 159.91 185.41 168.92 182.40 173.75 180.27 C 182.53 176.39 182.53 176.39 187.02 179.23 C 193.75 183.49 206.38 187.32 214.00 187.42 C 219.21 187.48 221.26 187.02 224.35 185.10 C 229.28 182.04 231.99 177.57 231.99 172.50 C 231.99 164.30 226.80 159.85 213.75 156.86 C 210.59 156.14 208.00 155.24 208.00 154.86 C 208.00 154.48 209.58 151.77 211.52 148.84 C 218.41 138.39 225.66 114.98 224.41 107.19 C 222.99 98.30 215.61 90.62 206.86 88.93 C 200.74 87.75 156.68 87.79 153.55 88.98 C 150.03 90.32 148.32 94.22 149.82 97.50 C 150.96 100.00 150.96 100.00 169.04 100.00 C 178.99 100.00 187.94 100.43 188.93 100.96 C 190.65 101.88 190.65 102.38 188.98 113.21 C 186.66 128.31 182.67 143.00 180.89 143.00 C 178.89 143.00 169.26 134.00 162.81 126.09 C 158.79 121.16 155.36 117.52 155.18 118.01 C 154.62 119.59 158.92 137.75 161.45 144.46 C 162.80 148.04 165.09 153.00 166.53 155.47 C 169.17 159.96 169.17 159.96 167.06 162.92 C 163.17 168.38 153.29 176.45 142.60 182.89 C 136.77 186.41 132.00 189.71 132.00 190.24 C 132.00 191.58 140.38 190.31 153.73 186.96 Z  M 77.00 147.97 C 77.00 135.93 77.00 135.93 87.75 136.22 C 98.50 136.50 98.50 136.50 98.78 147.61 C 99.06 158.72 99.06 158.72 94.39 159.36 C 91.82 159.71 86.86 160.00 83.36 160.00 C 77.00 160.00 77.00 160.00 77.00 147.97 Z  M 77.00 113.97 C 77.00 102.93 77.00 102.93 87.75 103.22 C 98.50 103.50 98.50 103.50 98.78 114.25 C 99.07 125.00 99.07 125.00 88.03 125.00 C 77.00 125.00 77.00 125.00 77.00 113.97 Z  M 77.00 79.00 C 77.00 67.00 77.00 67.00 88.00 67.00 C 99.00 67.00 99.00 67.00 99.00 79.00 C 99.00 91.00 99.00 91.00 88.00 91.00 C 77.00 91.00 77.00 91.00 77.00 79.00 Z "/>
</g>
</svg>