<?xml version="1.0" encoding="UTF-8" standalone="no"?>
<!DOCTYPE svg PUBLIC "-//W3C//DTD SVG 1.1//EN" "http://www.w3.org/Graphics/SVG/1.1/DTD/svg11.dtd" >
<svg xmlns="http://www.w3.org/2000/svg" xmlns:xlink="http://www.w3.org/1999/xlink" version="1.1" viewBox="0 0 256 256">
 <g >
 <path fill="currentColor"
d=" M 82.00 157.53 C 82.00 72.05 82.00 72.05 96.25 71.78 C 110.50 71.50 110.50 71.50 110.80 64.75 C 111.09 58.00 111.09 58.00 96.57 58.00 C 82.05 58.00 82.05 58.00 81.77 40.33 C 81.50 22.67 81.50 22.67 62.50 17.84 C 52.05 15.18 43.25 13.01 42.95 13.00 C 42.65 13.00 41.37 15.12 40.11 17.72 C 37.81 22.44 37.81 22.44 41.41 25.73 C 45.00 29.03 45.00 29.03 45.00 43.51 C 45.00 58.00 45.00 58.00 29.00 58.00 C 13.00 58.00 13.00 58.00 13.00 65.00 C 13.00 72.00 13.00 72.00 29.00 72.00 C 45.00 72.00 45.00 72.00 45.00 157.50 C 45.00 243.00 45.00 243.00 63.50 243.00 C 82.00 243.00 82.00 243.00 82.00 157.53 Z  M 243.00 236.50 C 243.00 230.00 243.00 230.00 219.00 230.00 C 195.00 230.00 195.00 230.00 195.00 189.50 C 195.00 149.00 195.00 149.00 215.50 149.00 C 236.00 149.00 236.00 149.00 236.00 142.50 C 236.00 136.00 236.00 136.00 215.50 136.00 C 195.00 136.00 195.00 136.00 195.00 101.50 C 195.00 67.00 195.00 67.00 217.50 67.00 C 240.00 67.00 240.00 67.00 240.00 60.00 C 240.00 53.00 240.00 53.00 218.64 53.00 C 197.28 53.00 197.28 53.00 193.00 38.01 C 190.65 29.76 188.22 22.62 187.61 22.15 C 186.10 20.97 148.17 12.77 147.16 13.40 C 146.71 13.68 145.53 15.72 144.53 17.94 C 142.71 21.97 142.71 21.97 146.80 25.74 C 150.47 29.12 151.20 30.62 153.94 40.55 C 155.62 46.62 157.00 51.91 157.00 52.30 C 157.00 52.68 147.32 53.00 135.50 53.00 C 114.00 53.00 114.00 53.00 114.00 60.00 C 114.00 67.00 114.00 67.00 135.50 67.00 C 157.00 67.00 157.00 67.00 157.00 101.50 C 157.00 136.00 157.00 136.00 137.50 136.00 C 118.00 136.00 118.00 136.00 118.00 142.50 C 118.00 149.00 118.00 149.00 137.50 149.00 C 157.00 149.00 157.00 149.00 157.00 189.50 C 157.00 230.00 157.00 230.00 134.00 230.00 C 111.00 230.00 111.00 230.00 111.00 236.50 C 111.00 243.00 111.00 243.00 177.00 243.00 C 243.00 243.00 243.00 243.00 243.00 236.50 Z  M 32.02 220.75 C 32.03 219.51 33.57 190.15 35.44 155.50 C 37.32 120.85 38.55 92.20 38.18 91.83 C 37.53 91.19 20.84 87.00 18.95 87.00 C 18.45 87.00 17.35 88.35 16.50 89.99 C 15.07 92.77 15.10 93.28 16.94 96.89 C 18.93 100.79 18.93 100.79 15.48 160.65 C 13.58 193.57 12.02 221.06 12.01 221.75 C 12.00 222.67 14.66 223.00 22.00 223.00 C 31.70 223.00 32.00 222.93 32.02 220.75 Z  M 111.08 162.05 C 107.73 102.58 107.69 101.01 109.46 97.09 C 111.00 93.66 111.09 92.62 110.01 90.04 C 109.32 88.37 108.25 87.00 107.63 86.99 C 107.01 86.99 102.11 87.97 96.75 89.16 C 88.25 91.05 87.00 91.60 86.98 93.42 C 86.93 97.66 94.16 218.58 94.59 220.75 C 95.02 222.90 95.48 223.00 104.77 223.00 C 114.51 223.00 114.51 223.00 111.08 162.05 Z "/>
</g>
</svg>