<?xml version="1.0" encoding="UTF-8" standalone="no"?>
<!DOCTYPE svg PUBLIC "-//W3C//DTD SVG 1.1//EN" "http://www.w3.org/Graphics/SVG/1.1/DTD/svg11.dtd" >
<svg xmlns="http://www.w3.org/2000/svg" xmlns:xlink="http://www.w3.org/1999/xlink" version="1.1" viewBox="0 0 256 256">
 <g >
 <path fill="currentColor"
d=" M 53.10 221.56 C 57.14 209.76 60.64 200.31 60.87 200.54 C 61.10 200.77 64.07 210.31 67.46 221.73 C 73.63 242.50 73.63 242.50 90.81 242.77 C 102.97 242.97 108.00 242.72 108.00 241.93 C 108.00 241.32 101.70 218.91 94.00 192.14 C 80.00 143.47 80.00 143.47 80.00 82.30 C 80.00 24.91 79.89 21.10 78.25 20.62 C 76.07 19.97 45.36 14.00 44.23 14.00 C 43.77 14.00 42.37 16.12 41.11 18.72 C 38.82 23.43 38.82 23.43 42.92 26.97 C 47.03 30.50 47.03 30.50 47.02 85.64 C 47.00 140.79 47.00 140.79 28.59 190.14 C 18.47 217.29 9.87 240.29 9.48 241.25 C 8.83 242.88 10.07 243.00 27.26 243.00 C 45.74 243.00 45.74 243.00 53.10 221.56 Z  M 147.00 237.00 C 147.00 231.00 147.00 231.00 176.00 231.00 C 205.00 231.00 205.00 231.00 205.00 237.00 C 205.00 243.00 205.00 243.00 222.00 243.00 C 239.00 243.00 239.00 243.00 239.00 154.75 C 239.00 66.50 239.00 66.50 223.75 62.21 C 215.36 59.85 207.52 57.66 206.32 57.36 C 204.49 56.89 203.73 57.60 201.68 61.65 C 199.22 66.50 199.22 66.50 202.11 69.96 C 205.00 73.42 205.00 73.42 205.00 145.71 C 205.00 218.00 205.00 218.00 200.00 218.00 C 195.01 218.00 195.01 218.00 194.75 119.83 C 194.50 21.66 194.50 21.66 178.16 17.39 C 153.71 11.00 156.41 11.11 153.83 16.42 C 151.61 20.98 151.61 20.98 154.30 23.80 C 157.00 26.61 157.00 26.61 157.00 122.30 C 157.00 218.00 157.00 218.00 152.00 218.00 C 147.00 218.00 147.00 218.00 147.00 142.21 C 147.00 66.42 147.00 66.42 130.75 62.18 C 121.81 59.85 114.23 57.96 113.91 57.97 C 113.58 57.99 112.50 60.71 111.50 64.01 C 109.68 70.01 109.68 70.03 111.84 72.33 C 114.00 74.63 114.00 74.63 114.00 158.81 C 114.00 243.00 114.00 243.00 130.50 243.00 C 147.00 243.00 147.00 243.00 147.00 237.00 Z  M 41.54 123.25 C 41.23 120.09 40.05 101.30 38.92 81.50 C 37.79 61.70 36.55 45.23 36.18 44.91 C 35.04 43.92 14.89 40.78 14.19 41.48 C 13.83 41.84 12.97 44.02 12.28 46.32 C 10.99 50.66 11.26 51.27 15.69 53.82 C 16.50 54.30 17.36 63.74 18.43 84.00 C 21.07 134.17 19.55 129.00 31.65 129.00 C 42.10 129.00 42.10 129.00 41.54 123.25 Z  M 105.07 124.25 C 105.11 121.64 106.13 105.02 107.33 87.31 C 109.45 56.30 109.62 55.03 111.91 52.60 C 114.15 50.21 114.21 49.82 113.01 45.54 C 112.31 43.04 111.33 41.00 110.82 41.00 C 110.32 41.00 105.39 41.75 99.86 42.67 C 91.47 44.06 89.67 44.68 88.98 46.42 C 88.31 48.09 82.92 120.82 82.98 127.25 C 83.00 128.81 84.20 129.00 94.00 129.00 C 105.00 129.00 105.00 129.00 105.07 124.25 Z "/>
</g>
</svg>