<?xml version="1.0" encoding="UTF-8" standalone="no"?>
<!DOCTYPE svg PUBLIC "-//W3C//DTD SVG 1.1//EN" "http://www.w3.org/Graphics/SVG/1.1/DTD/svg11.dtd" >
<svg xmlns="http://www.w3.org/2000/svg" xmlns:xlink="http://www.w3.org/1999/xlink" version="1.1" viewBox="0 0 256 256">
 <g >
 <path fill="currentColor"
d=" M 38.04 241.25 C 38.06 240.29 39.14 227.57 40.45 213.00 C 41.75 198.43 42.72 186.40 42.61 186.28 C 42.49 186.16 36.92 183.37 30.24 180.08 C 18.09 174.10 18.09 174.10 15.01 177.99 C 11.98 181.81 11.95 181.95 13.46 185.55 C 14.86 188.92 14.78 191.40 12.50 215.36 C 11.13 229.74 10.01 241.84 10.00 242.25 C 10.00 242.66 16.30 243.00 24.00 243.00 C 36.65 243.00 38.00 242.83 38.04 241.25 Z  M 73.62 236.25 C 73.30 232.54 72.75 218.83 72.40 205.79 C 71.76 182.08 71.76 182.08 65.13 179.90 C 61.48 178.70 56.39 176.90 53.81 175.90 C 49.11 174.07 49.11 174.07 45.97 178.03 C 42.83 182.00 42.83 182.00 44.92 185.37 C 46.77 188.37 47.00 190.30 47.00 203.12 C 47.01 211.03 47.30 223.24 47.66 230.25 C 48.31 243.00 48.31 243.00 61.26 243.00 C 74.20 243.00 74.20 243.00 73.62 236.25 Z  M 105.63 240.25 C 105.34 238.74 104.80 225.03 104.43 209.80 C 103.76 182.09 103.76 182.09 91.96 178.15 C 80.16 174.20 80.16 174.20 78.28 176.35 C 73.70 181.60 73.67 181.72 75.80 185.22 C 77.59 188.15 77.88 190.92 78.44 211.00 C 78.79 223.38 79.33 235.64 79.63 238.25 C 80.19 243.00 80.19 243.00 93.17 243.00 C 106.16 243.00 106.16 243.00 105.63 240.25 Z  M 149.00 238.50 C 149.00 234.00 149.00 234.00 173.00 234.00 C 197.00 234.00 197.00 234.00 197.00 238.50 C 197.00 243.00 197.00 243.00 216.00 243.00 C 235.00 243.00 235.00 243.00 235.00 200.23 C 235.00 157.46 235.00 157.46 238.01 153.81 C 241.01 150.16 241.01 150.16 224.65 141.08 C 215.65 136.09 207.81 132.00 207.24 132.00 C 206.66 132.00 204.30 134.25 202.00 137.00 C 197.81 142.00 197.81 142.00 170.96 142.00 C 144.10 142.00 144.10 142.00 128.86 138.50 C 120.47 136.57 112.79 135.00 111.79 135.00 C 110.63 135.00 109.19 136.62 107.79 139.50 C 105.60 144.00 105.60 144.00 108.80 147.30 C 112.00 150.60 112.00 150.60 112.00 196.80 C 112.00 243.00 112.00 243.00 130.50 243.00 C 149.00 243.00 149.00 243.00 149.00 238.50 Z  M 69.43 161.60 C 72.00 152.74 72.37 153.11 60.63 152.78 C 50.25 152.50 50.25 152.50 58.15 139.50 C 62.49 132.35 66.41 126.37 66.87 126.22 C 67.32 126.06 69.45 135.06 71.60 146.22 C 75.51 166.50 75.51 166.50 89.76 166.78 C 101.78 167.01 104.00 166.82 104.00 165.58 C 104.00 163.76 94.99 119.80 94.44 118.90 C 94.22 118.55 89.87 117.46 84.77 116.49 C 79.67 115.51 75.35 114.59 75.17 114.44 C 74.98 114.29 80.70 104.55 87.86 92.80 C 95.03 81.05 101.16 70.75 101.48 69.91 C 101.92 68.75 98.85 66.88 88.55 62.06 C 73.81 55.16 74.15 55.17 69.87 61.19 C 68.22 63.50 68.01 64.60 68.80 66.86 C 69.67 69.36 69.06 70.82 63.05 80.58 C 56.31 91.50 56.31 91.50 51.15 91.80 C 45.99 92.10 45.99 92.10 65.99 59.03 C 77.00 40.84 86.00 25.63 86.00 25.23 C 85.99 24.64 55.35 13.00 53.79 13.00 C 53.54 13.00 51.87 14.82 50.08 17.05 C 47.04 20.83 46.93 21.24 48.33 23.38 C 49.76 25.57 48.98 27.26 31.92 59.04 C 14.13 92.18 14.00 92.46 14.00 98.71 C 14.00 105.00 14.00 105.00 28.50 105.00 C 36.48 105.00 43.00 105.40 43.00 105.89 C 43.00 106.38 36.25 117.67 28.00 130.97 C 13.08 155.03 13.00 155.18 13.00 161.08 C 13.00 167.00 13.00 167.00 40.43 167.00 C 67.86 167.00 67.86 167.00 69.43 161.60 Z  M 245.00 115.00 C 245.00 108.00 245.00 108.00 173.00 108.00 C 101.00 108.00 101.00 108.00 101.00 115.00 C 101.00 122.00 101.00 122.00 173.00 122.00 C 245.00 122.00 245.00 122.00 245.00 115.00 Z  M 144.48 91.25 C 147.39 85.50 147.39 85.50 148.31 91.25 C 149.23 97.00 149.23 97.00 161.11 97.00 C 167.65 97.00 173.00 96.66 172.99 96.25 C 172.99 95.84 171.48 87.85 169.64 78.50 C 166.29 61.50 166.29 61.50 157.39 59.81 C 144.91 57.44 145.28 57.37 142.75 62.59 C 140.53 67.14 140.53 67.18 142.50 68.62 C 143.62 69.44 145.01 72.34 145.70 75.28 C 147.81 84.32 148.06 84.00 139.00 84.00 C 134.60 84.00 131.00 83.66 130.99 83.25 C 130.99 82.84 134.43 74.50 138.63 64.72 C 142.83 54.94 146.10 46.81 145.88 46.65 C 145.42 46.30 117.77 39.95 116.85 39.98 C 116.49 39.99 115.24 41.62 114.07 43.60 C 112.26 46.68 112.11 47.67 113.07 50.35 C 114.08 53.18 113.63 55.03 108.60 68.39 C 103.79 81.18 103.00 84.26 103.00 90.14 C 103.00 97.00 103.00 97.00 122.29 97.00 C 141.58 97.00 141.58 97.00 144.48 91.25 Z  M 216.19 91.75 C 218.92 86.25 219.33 86.40 220.47 93.25 C 221.09 97.00 221.09 97.00 232.56 97.00 C 243.95 97.00 244.03 96.98 243.53 94.75 C 243.24 93.51 241.67 85.58 240.04 77.11 C 238.40 68.65 236.94 61.63 236.78 61.52 C 236.33 61.17 219.62 58.00 218.27 58.00 C 217.59 58.00 215.91 60.22 214.53 62.94 C 212.09 67.76 212.08 67.89 214.01 68.50 C 215.10 68.85 216.22 70.12 216.49 71.32 C 217.95 77.79 218.95 82.59 218.98 83.25 C 218.99 83.66 215.40 84.00 211.00 84.00 C 206.01 84.00 203.00 83.60 203.00 82.93 C 203.00 82.35 206.11 74.59 209.92 65.68 C 213.72 56.78 216.99 48.86 217.17 48.07 C 217.42 47.00 214.10 45.82 204.00 43.36 C 196.57 41.55 190.00 40.06 189.38 40.04 C 188.77 40.02 187.15 41.69 185.78 43.76 C 183.29 47.51 183.29 47.51 185.25 50.14 C 187.21 52.76 187.21 52.76 180.61 69.04 C 175.08 82.67 174.00 86.27 174.00 91.16 C 174.00 97.00 174.00 97.00 193.79 97.00 C 213.59 97.00 213.59 97.00 216.19 91.75 Z  M 242.00 30.50 C 242.00 24.00 242.00 24.00 172.50 24.00 C 103.00 24.00 103.00 24.00 103.00 30.50 C 103.00 37.00 103.00 37.00 172.50 37.00 C 242.00 37.00 242.00 37.00 242.00 30.50 Z  M 149.00 207.00 C 149.00 194.00 149.00 194.00 173.00 194.00 C 197.00 194.00 197.00 194.00 197.00 207.00 C 197.00 220.00 197.00 220.00 173.00 220.00 C 149.00 220.00 149.00 220.00 149.00 207.00 Z  M 149.22 168.25 C 149.50 156.50 149.50 156.50 173.25 156.23 C 197.00 155.96 197.00 155.96 197.00 167.98 C 197.00 180.00 197.00 180.00 172.97 180.00 C 148.94 180.00 148.94 180.00 149.22 168.25 Z "/>
</g>
</svg>