<?xml version="1.0" encoding="UTF-8" standalone="no"?>
<!DOCTYPE svg PUBLIC "-//W3C//DTD SVG 1.1//EN" "http://www.w3.org/Graphics/SVG/1.1/DTD/svg11.dtd" >
<svg xmlns="http://www.w3.org/2000/svg" xmlns:xlink="http://www.w3.org/1999/xlink" version="1.1" viewBox="0 0 256 256">
 <g >
 <path fill="currentColor"
d=" M 87.83 232.60 C 89.57 226.88 91.00 221.70 91.00 221.10 C 91.00 220.37 87.59 220.00 81.00 220.00 C 71.00 220.00 71.00 220.00 71.00 165.15 C 71.00 111.58 71.05 110.27 73.00 108.50 C 74.10 107.50 75.00 106.32 75.00 105.88 C 75.00 105.16 57.53 91.62 48.16 85.07 C 44.82 82.74 44.82 82.74 38.63 88.87 C 32.45 95.00 32.45 95.00 22.22 95.00 C 12.00 95.00 12.00 95.00 12.00 101.50 C 12.00 108.00 12.00 108.00 22.50 108.00 C 33.00 108.00 33.00 108.00 33.00 175.50 C 33.00 243.00 33.00 243.00 58.83 243.00 C 84.66 243.00 84.66 243.00 87.83 232.60 Z  M 190.00 220.50 C 190.00 198.00 190.00 198.00 217.50 198.00 C 245.00 198.00 245.00 198.00 245.00 191.00 C 245.00 184.00 245.00 184.00 217.50 184.00 C 190.00 184.00 190.00 184.00 190.00 169.00 C 190.00 154.00 190.00 154.00 213.50 154.00 C 237.00 154.00 237.00 154.00 237.00 147.50 C 237.00 141.00 237.00 141.00 213.50 141.00 C 190.00 141.00 190.00 141.00 190.00 126.21 C 190.00 111.42 190.00 111.42 171.89 106.97 C 153.79 102.53 153.79 102.53 151.39 105.51 C 147.90 109.87 147.62 111.66 149.93 114.91 C 151.74 117.44 152.00 119.29 152.00 129.40 C 152.00 141.00 152.00 141.00 140.00 141.00 C 133.40 141.00 128.00 140.86 128.00 140.68 C 128.00 140.50 133.60 129.59 140.44 116.43 C 152.89 92.50 152.89 92.50 196.44 92.24 C 240.00 91.98 240.00 91.98 240.00 84.99 C 240.00 78.00 240.00 78.00 200.50 78.00 C 178.78 78.00 161.00 77.62 161.00 77.15 C 161.00 76.68 163.52 71.70 166.60 66.08 C 169.68 60.46 172.04 55.75 171.85 55.60 C 171.35 55.21 132.63 43.98 131.83 43.99 C 131.46 44.00 130.17 45.60 128.96 47.57 C 126.82 51.04 126.80 51.23 128.48 54.95 C 130.20 58.77 130.20 58.77 125.35 68.13 C 120.50 77.50 120.50 77.50 103.25 77.77 C 86.00 78.05 86.00 78.05 86.00 85.02 C 86.00 92.00 86.00 92.00 99.58 92.00 C 107.05 92.00 113.02 92.35 112.83 92.77 C 112.65 93.19 106.99 104.17 100.25 117.17 C 88.21 140.40 88.00 140.91 88.00 147.40 C 88.00 154.00 88.00 154.00 120.00 154.00 C 152.00 154.00 152.00 154.00 152.00 169.00 C 152.00 184.00 152.00 184.00 117.50 184.00 C 83.00 184.00 83.00 184.00 83.00 191.00 C 83.00 198.00 83.00 198.00 117.50 198.00 C 152.00 198.00 152.00 198.00 152.00 220.50 C 152.00 243.00 152.00 243.00 171.00 243.00 C 190.00 243.00 190.00 243.00 190.00 220.50 Z  M 119.78 54.75 C 120.06 41.00 120.06 41.00 162.50 41.00 C 204.94 41.00 204.94 41.00 205.22 54.75 C 205.50 68.50 205.50 68.50 223.25 68.77 C 241.00 69.05 241.00 69.05 241.00 54.41 C 241.00 39.76 241.00 39.76 244.09 36.24 C 247.18 32.72 247.18 32.72 231.34 23.34 C 215.50 13.96 215.50 13.96 209.50 20.50 C 203.50 27.04 203.50 27.04 160.09 27.02 C 116.69 27.00 116.69 27.00 101.16 22.91 C 85.64 18.82 85.64 18.82 83.77 21.16 C 78.56 27.69 78.56 27.69 81.40 31.06 C 83.98 34.13 84.00 34.26 84.00 51.60 C 84.00 69.05 84.00 69.05 101.75 68.77 C 119.50 68.50 119.50 68.50 119.78 54.75 Z  M 71.93 62.25 C 71.89 61.29 69.08 52.43 65.68 42.56 C 59.50 24.62 59.50 24.62 40.64 19.32 C 30.27 16.40 21.38 14.27 20.88 14.57 C 20.39 14.88 19.12 16.79 18.07 18.81 C 16.15 22.50 16.15 22.50 19.46 26.00 C 22.09 28.79 23.92 33.00 28.46 46.75 C 34.17 64.00 34.17 64.00 53.08 64.00 C 70.46 64.00 71.99 63.86 71.93 62.25 Z "/>
</g>
</svg>