<?xml version="1.0" encoding="UTF-8" standalone="no"?>
<!DOCTYPE svg PUBLIC "-//W3C//DTD SVG 1.1//EN" "http://www.w3.org/Graphics/SVG/1.1/DTD/svg11.dtd" >
<svg xmlns="http://www.w3.org/2000/svg" xmlns:xlink="http://www.w3.org/1999/xlink" version="1.1" viewBox="0 0 256 256">
 <g >
 <path fill="currentColor"
d=" M 65.30 233.10 C 91.59 227.68 113.34 222.99 113.64 222.70 C 114.14 222.19 112.01 211.00 111.40 211.00 C 111.16 211.00 108.23 211.64 95.25 214.54 C 93.00 215.04 93.00 215.04 93.00 186.52 C 93.00 158.00 93.00 158.00 101.55 158.00 C 110.10 158.00 110.10 158.00 109.80 151.75 C 109.50 145.50 109.50 145.50 101.25 145.21 C 93.00 144.92 93.00 144.92 93.00 125.46 C 93.00 106.00 93.00 106.00 100.50 106.00 C 108.00 106.00 108.00 106.00 108.00 72.13 C 108.00 39.10 108.05 38.20 110.13 35.56 C 111.30 34.07 111.86 32.51 111.38 32.08 C 110.31 31.14 82.14 14.00 81.65 14.00 C 81.47 14.00 79.15 16.70 76.50 20.00 C 71.69 26.00 71.69 26.00 60.59 26.00 C 50.88 25.99 47.60 25.49 34.21 22.00 C 25.80 19.80 18.60 18.01 18.21 18.02 C 17.82 18.03 16.24 19.83 14.69 22.01 C 11.88 25.98 11.88 25.98 14.44 29.33 C 17.00 32.69 17.00 32.69 17.00 69.32 C 17.00 105.96 17.00 105.96 36.75 106.23 C 56.50 106.50 56.50 106.50 56.76 164.17 C 57.02 221.84 57.02 221.84 53.76 222.49 C 51.97 222.85 49.71 223.37 48.75 223.64 C 47.10 224.11 47.00 221.35 47.00 175.78 C 47.00 127.43 47.00 127.43 33.75 124.19 C 26.46 122.41 20.02 120.97 19.44 120.98 C 18.85 120.99 17.60 122.62 16.66 124.59 C 15.01 128.04 15.02 128.30 16.97 131.46 C 18.93 134.63 19.00 136.28 19.00 181.83 C 19.00 228.92 19.00 228.92 14.90 230.03 C 10.86 231.11 10.81 231.19 11.44 234.82 C 13.00 243.94 13.04 244.03 15.33 243.48 C 16.52 243.19 39.01 238.52 65.30 233.10 Z  M 241.64 236.25 C 243.97 230.00 243.97 230.00 200.47 230.00 C 156.97 230.00 156.97 230.00 157.23 200.75 C 157.50 171.50 157.50 171.50 177.25 171.23 C 197.00 170.96 197.00 170.96 197.00 175.98 C 197.00 181.00 197.00 181.00 215.00 181.00 C 233.00 181.00 233.00 181.00 233.00 141.39 C 233.00 101.79 233.00 101.79 235.95 98.06 C 238.90 94.33 238.90 94.33 223.78 84.42 C 215.46 78.96 208.23 74.33 207.72 74.13 C 207.21 73.93 204.23 76.30 201.10 79.41 C 195.40 85.05 195.40 85.05 176.45 84.77 C 157.50 84.50 157.50 84.50 157.23 62.25 C 156.96 40.00 156.96 40.00 198.98 40.00 C 241.00 40.00 241.00 40.00 241.00 33.00 C 241.00 26.00 241.00 26.00 197.77 26.00 C 154.55 26.00 154.55 26.00 136.64 21.44 C 126.79 18.92 118.40 17.24 118.01 17.69 C 117.61 18.13 116.25 20.38 114.99 22.69 C 112.70 26.88 112.70 26.88 115.85 29.53 C 119.00 32.18 119.00 32.18 119.00 137.60 C 119.00 243.02 119.00 243.02 179.15 242.76 C 239.30 242.50 239.30 242.50 241.64 236.25 Z  M 53.00 66.50 C 53.00 40.00 53.00 40.00 62.50 40.00 C 72.00 40.00 72.00 40.00 72.00 66.50 C 72.00 93.00 72.00 93.00 62.50 93.00 C 53.00 93.00 53.00 93.00 53.00 66.50 Z  M 157.24 128.25 C 157.50 98.50 157.50 98.50 177.25 98.23 C 197.00 97.96 197.00 97.96 197.00 127.98 C 197.00 158.00 197.00 158.00 176.99 158.00 C 156.97 158.00 156.97 158.00 157.24 128.25 Z "/>
</g>
</svg>