<?xml version="1.0" encoding="UTF-8" standalone="no"?>
<!DOCTYPE svg PUBLIC "-//W3C//DTD SVG 1.1//EN" "http://www.w3.org/Graphics/SVG/1.1/DTD/svg11.dtd" >
<svg xmlns="http://www.w3.org/2000/svg" xmlns:xlink="http://www.w3.org/1999/xlink" version="1.1" viewBox="0 0 256 256">
 <g >
 <path fill="currentColor"
d=" M 58.91 236.01 C 81.14 232.70 99.36 230.00 99.41 230.00 C 99.46 230.00 99.35 227.08 99.16 223.50 C 98.98 219.93 98.53 217.01 98.16 217.03 C 97.80 217.05 92.78 217.71 87.00 218.50 C 81.22 219.29 76.16 219.95 75.75 219.97 C 75.34 219.99 75.00 200.88 75.00 177.50 C 75.00 135.00 75.00 135.00 88.55 135.00 C 102.10 135.00 102.10 135.00 101.80 128.75 C 101.50 122.50 101.50 122.50 88.25 122.22 C 75.00 121.94 75.00 121.94 75.00 109.47 C 75.00 97.00 75.00 97.00 85.50 97.00 C 96.00 97.00 96.00 97.00 96.00 91.00 C 96.00 85.00 96.00 85.00 57.50 85.00 C 19.00 85.00 19.00 85.00 19.00 90.97 C 19.00 96.93 19.00 96.93 29.25 97.22 C 39.50 97.50 39.50 97.50 39.78 109.75 C 40.06 122.00 40.06 122.00 26.53 122.00 C 13.00 122.00 13.00 122.00 13.00 128.50 C 13.00 135.00 13.00 135.00 26.50 135.00 C 40.00 135.00 40.00 135.00 40.00 180.50 C 40.00 205.53 39.85 226.00 39.67 226.00 C 38.93 226.00 17.23 229.02 14.15 229.55 C 10.91 230.11 10.82 230.25 11.43 233.81 C 13.07 243.31 12.99 243.16 15.84 242.57 C 17.30 242.26 36.69 239.31 58.91 236.01 Z  M 157.47 225.93 C 169.10 212.68 172.67 209.18 173.47 210.24 C 174.04 210.99 180.51 218.67 187.86 227.30 C 201.23 243.00 201.23 243.00 224.16 243.00 C 247.09 243.00 247.09 243.00 228.30 221.06 C 209.50 199.13 209.50 199.13 202.00 198.95 C 197.88 198.85 191.69 198.48 188.26 198.13 C 182.02 197.50 182.02 197.50 186.09 192.75 C 190.16 188.00 190.16 188.00 216.08 188.00 C 242.00 188.00 242.00 188.00 242.00 181.00 C 242.00 174.00 242.00 174.00 216.00 174.00 C 190.00 174.00 190.00 174.00 190.00 164.00 C 190.00 154.00 190.00 154.00 194.50 154.00 C 198.83 154.00 199.00 154.11 199.00 157.00 C 199.00 160.00 199.00 160.00 217.00 160.00 C 235.00 160.00 235.00 160.00 235.04 125.75 C 235.08 91.50 235.08 91.50 238.05 88.03 C 241.01 84.56 241.01 84.56 227.78 76.03 C 215.39 68.04 214.75 67.48 217.77 67.19 C 221.00 66.87 221.00 66.87 221.00 58.94 C 221.00 51.00 221.00 51.00 231.50 51.00 C 242.00 51.00 242.00 51.00 242.00 44.00 C 242.00 37.00 242.00 37.00 231.54 37.00 C 221.08 37.00 221.08 37.00 220.79 28.81 C 220.50 20.62 220.50 20.62 203.50 16.34 C 194.15 13.98 186.20 12.04 185.84 12.03 C 185.47 12.01 184.08 13.95 182.75 16.34 C 180.33 20.67 180.33 20.67 182.66 23.59 C 184.44 25.81 184.99 27.75 185.00 31.78 C 185.00 37.06 185.00 37.06 172.75 36.78 C 160.50 36.50 160.50 36.50 160.00 28.52 C 159.50 20.55 159.50 20.55 145.15 16.83 C 123.33 11.18 125.68 11.24 122.99 16.30 C 120.67 20.69 120.67 20.69 123.39 24.27 C 125.58 27.14 126.06 28.71 125.81 32.17 C 125.50 36.50 125.50 36.50 114.75 36.78 C 104.00 37.07 104.00 37.07 104.00 44.03 C 104.00 51.00 104.00 51.00 115.00 51.00 C 126.00 51.00 126.00 51.00 126.00 59.00 C 126.00 67.00 126.00 67.00 143.00 67.00 C 160.00 67.00 160.00 67.00 160.00 59.00 C 160.00 51.00 160.00 51.00 172.46 51.00 C 184.92 51.00 184.92 51.00 185.21 58.75 C 185.50 66.50 185.50 66.50 195.48 67.00 C 205.46 67.50 205.46 67.50 201.61 71.75 C 197.77 76.00 197.77 76.00 172.13 76.02 C 146.50 76.04 146.50 76.04 129.14 71.34 C 111.79 66.63 111.79 66.63 109.94 69.06 C 105.72 74.63 105.59 75.50 108.39 79.62 C 111.00 83.46 111.00 83.46 111.00 121.73 C 111.00 160.00 111.00 160.00 128.43 160.00 C 145.87 160.00 145.87 160.00 146.18 157.25 C 146.46 154.86 146.99 154.46 150.25 154.19 C 154.00 153.88 154.00 153.88 154.00 163.94 C 154.00 174.00 154.00 174.00 129.00 174.00 C 104.00 174.00 104.00 174.00 104.00 180.98 C 104.00 187.96 104.00 187.96 124.57 188.23 C 145.13 188.50 145.13 188.50 124.98 212.00 C 113.89 224.93 103.47 237.19 101.83 239.25 C 98.83 243.00 98.83 243.00 120.67 242.99 C 142.50 242.98 142.50 242.98 157.47 225.93 Z  M 36.49 203.75 C 35.83 196.40 33.00 154.46 33.00 151.98 C 33.00 150.70 30.93 149.69 24.75 147.93 C 20.21 146.64 16.30 145.64 16.06 145.72 C 15.82 145.79 14.81 147.93 13.81 150.47 C 12.00 155.09 12.00 155.09 14.46 157.30 C 16.82 159.41 16.97 160.26 17.95 177.50 C 20.00 213.19 18.96 210.00 28.61 210.00 C 37.06 210.00 37.06 210.00 36.49 203.75 Z  M 95.05 206.25 C 95.07 204.19 95.89 192.73 96.86 180.78 C 98.33 162.80 98.95 158.72 100.46 157.05 C 102.20 155.12 102.21 154.83 100.56 150.51 C 99.61 148.03 98.36 146.00 97.78 146.00 C 97.19 146.00 93.63 146.92 89.87 148.04 C 84.45 149.65 82.92 150.54 82.56 152.29 C 82.09 154.58 77.95 205.15 77.98 208.25 C 78.00 209.78 79.08 210.00 86.50 210.00 C 95.00 210.00 95.00 210.00 95.05 206.25 Z  M 49.55 56.38 C 54.74 40.01 56.85 35.51 58.55 37.21 C 58.80 37.47 61.42 45.96 64.36 56.09 C 69.72 74.50 69.72 74.50 86.86 74.77 C 99.33 74.97 104.00 74.73 104.00 73.89 C 104.00 73.25 100.55 61.54 96.34 47.85 C 88.67 22.97 88.67 22.97 57.19 23.24 C 25.71 23.50 25.71 23.50 18.94 46.86 C 15.21 59.70 11.89 71.29 11.56 72.61 C 10.96 75.00 10.96 75.00 27.31 75.00 C 43.66 75.00 43.66 75.00 49.55 56.38 Z  M 146.21 130.75 C 146.50 121.50 146.50 121.50 172.75 121.23 C 199.00 120.97 199.00 120.97 199.00 130.48 C 199.00 140.00 199.00 140.00 172.46 140.00 C 145.92 140.00 145.92 140.00 146.21 130.75 Z  M 146.00 99.00 C 146.00 90.00 146.00 90.00 172.50 90.00 C 199.00 90.00 199.00 90.00 199.00 99.00 C 199.00 108.00 199.00 108.00 172.50 108.00 C 146.00 108.00 146.00 108.00 146.00 99.00 Z "/>
</g>
</svg>