<?xml version="1.0" encoding="UTF-8" standalone="no"?>
<!DOCTYPE svg PUBLIC "-//W3C//DTD SVG 1.1//EN" "http://www.w3.org/Graphics/SVG/1.1/DTD/svg11.dtd" >
<svg xmlns="http://www.w3.org/2000/svg" xmlns:xlink="http://www.w3.org/1999/xlink" version="1.1" viewBox="0 0 256 256">
 <g >
 <path fill="currentColor"
d=" M 98.26 229.83 C 117.03 216.69 117.03 216.69 116.76 181.59 C 116.50 146.50 116.50 146.50 87.25 146.23 C 58.00 145.97 58.00 145.97 58.00 126.48 C 58.00 107.00 58.00 107.00 70.25 106.98 C 82.50 106.97 82.50 106.97 100.00 93.73 C 117.50 80.50 117.50 80.50 117.76 47.75 C 118.03 15.00 118.03 15.00 67.01 15.00 C 16.00 15.00 16.00 15.00 16.00 28.50 C 16.00 42.00 16.00 42.00 46.50 42.00 C 77.00 42.00 77.00 42.00 77.00 61.00 C 77.00 80.00 77.00 80.00 47.50 80.00 C 18.00 80.00 18.00 80.00 18.00 126.50 C 18.00 173.00 18.00 173.00 47.50 173.00 C 77.00 173.00 77.00 173.00 77.00 195.00 C 77.00 217.00 77.00 217.00 51.50 217.00 C 26.00 217.00 26.00 217.00 26.00 230.00 C 26.00 243.00 26.00 243.00 52.75 242.99 C 79.50 242.98 79.50 242.98 98.26 229.83 Z  M 241.64 239.75 C 241.32 237.96 236.99 208.60 232.00 174.50 C 227.02 140.40 222.70 111.26 222.39 109.75 C 221.84 107.00 221.84 107.00 204.59 107.00 C 195.10 107.00 187.12 107.21 186.86 107.48 C 186.60 107.74 189.69 131.42 193.73 160.10 C 197.78 188.78 200.91 212.43 200.69 212.65 C 200.47 212.86 190.88 212.92 179.37 212.77 C 158.44 212.50 158.44 212.50 173.68 115.50 C 182.06 62.15 188.94 17.94 188.96 17.25 C 188.99 16.29 184.45 16.00 169.50 16.00 C 154.33 16.00 150.00 16.28 150.00 17.28 C 150.00 17.98 143.70 60.84 136.01 112.53 C 122.46 203.50 122.02 207.02 122.01 222.76 C 122.00 239.03 122.00 239.03 157.71 238.76 C 193.42 238.50 193.42 238.50 197.37 229.25 C 199.54 224.16 201.62 220.00 201.99 220.00 C 202.35 220.00 203.20 223.71 203.87 228.25 C 206.34 244.92 203.69 243.00 224.22 243.00 C 242.22 243.00 242.22 243.00 241.64 239.75 Z "/>
</g>
</svg>