<?xml version="1.0" encoding="UTF-8" standalone="no"?>
<!DOCTYPE svg PUBLIC "-//W3C//DTD SVG 1.1//EN" "http://www.w3.org/Graphics/SVG/1.1/DTD/svg11.dtd" >
<svg xmlns="http://www.w3.org/2000/svg" xmlns:xlink="http://www.w3.org/1999/xlink" version="1.1" viewBox="0 0 256 256">
 <g >
 <path fill="currentColor"
d=" M 234.54 227.00 C 240.73 213.50 240.73 213.50 228.37 213.22 C 219.47 213.02 215.99 212.60 215.98 211.72 C 215.96 211.05 214.64 198.12 213.04 183.00 C 210.14 155.50 210.14 155.50 225.72 127.00 C 234.29 111.32 241.49 98.16 241.71 97.75 C 241.94 97.34 234.71 97.00 225.66 97.00 C 209.20 97.00 209.20 97.00 207.21 100.13 C 205.23 103.26 205.23 103.26 204.58 93.88 C 204.21 88.72 203.67 82.83 203.38 80.78 C 202.83 77.06 202.83 77.06 216.47 76.78 C 230.11 76.50 230.11 76.50 236.49 63.25 C 242.87 50.00 242.87 50.00 221.99 50.00 C 210.51 50.00 200.90 49.65 200.64 49.22 C 200.37 48.79 199.66 41.93 199.05 33.97 C 197.25 10.37 199.62 13.00 180.16 13.00 C 163.41 13.00 163.41 13.00 165.15 28.75 C 167.70 51.93 168.04 50.00 161.47 50.00 C 155.94 50.00 155.94 50.00 156.22 63.25 C 156.50 76.50 156.50 76.50 163.00 77.00 C 169.50 77.50 169.50 77.50 172.89 115.50 C 176.27 153.50 176.27 153.50 164.58 174.82 C 158.15 186.54 152.64 196.78 152.34 197.57 C 151.87 198.77 154.12 199.00 166.37 199.00 C 180.70 199.00 180.97 199.04 181.42 201.25 C 181.91 203.64 185.00 236.52 185.00 239.36 C 185.00 240.89 186.92 241.02 206.67 240.77 C 228.34 240.50 228.34 240.50 234.54 227.00 Z  M 146.50 230.27 C 149.25 224.93 151.65 220.20 151.83 219.78 C 152.02 219.35 143.80 219.00 133.58 219.00 C 115.00 219.00 115.00 219.00 115.00 214.00 C 115.00 209.00 115.00 209.00 128.75 208.99 C 142.50 208.97 142.50 208.97 146.22 199.74 C 148.27 194.66 150.23 189.71 150.58 188.75 C 151.17 187.12 149.93 187.00 133.11 187.00 C 115.00 187.00 115.00 187.00 115.00 182.50 C 115.00 178.00 115.00 178.00 128.25 177.98 C 141.50 177.97 141.50 177.97 146.75 168.07 C 149.64 162.63 152.00 157.91 152.00 157.59 C 152.00 157.27 143.68 157.00 133.50 157.00 C 115.00 157.00 115.00 157.00 115.00 152.00 C 115.00 147.00 115.00 147.00 129.30 147.00 C 143.60 147.00 143.60 147.00 147.80 136.65 C 150.11 130.95 152.00 126.00 152.00 125.65 C 152.00 125.29 144.61 125.00 135.58 125.00 C 119.16 125.00 119.16 125.00 117.11 121.68 C 113.93 116.53 111.78 115.08 105.69 113.95 C 97.47 112.43 92.66 113.99 86.75 120.09 C 81.99 125.00 81.99 125.00 74.47 125.00 C 66.95 125.00 66.95 125.00 68.47 122.05 C 69.31 120.43 70.00 118.62 70.00 118.03 C 70.00 117.29 64.28 117.04 51.88 117.23 C 33.77 117.50 33.77 117.50 24.99 137.00 C 16.22 156.50 16.22 156.50 22.11 156.80 C 28.00 157.10 28.00 157.10 28.00 198.55 C 28.00 240.00 28.00 240.00 84.75 240.00 C 141.50 239.99 141.50 239.99 146.50 230.27 Z  M 66.50 105.15 C 81.50 98.45 81.50 98.45 81.76 57.73 C 82.02 17.00 82.02 17.00 48.01 17.00 C 14.00 17.00 14.00 17.00 14.00 28.50 C 14.00 40.00 14.00 40.00 32.00 40.00 C 50.00 40.00 50.00 40.00 50.00 76.00 C 50.00 95.80 50.34 111.97 50.75 111.93 C 51.16 111.89 58.25 108.84 66.50 105.15 Z  M 136.75 102.48 C 152.00 95.62 152.00 95.62 152.00 56.31 C 152.00 17.00 152.00 17.00 119.50 17.00 C 87.00 17.00 87.00 17.00 87.00 28.50 C 87.00 40.00 87.00 40.00 103.50 40.00 C 120.00 40.00 120.00 40.00 120.00 75.06 C 120.00 94.34 120.34 109.94 120.75 109.73 C 121.16 109.52 128.36 106.25 136.75 102.48 Z  M 42.16 92.03 C 44.27 85.73 46.00 79.99 46.00 79.28 C 46.00 78.31 43.02 78.00 33.57 78.00 C 21.15 78.00 21.15 78.00 18.16 85.75 C 16.51 90.01 14.23 95.88 13.09 98.78 C 11.01 104.06 11.01 104.06 24.67 103.78 C 38.32 103.50 38.32 103.50 42.16 92.03 Z  M 113.92 91.75 C 116.16 85.01 118.00 79.15 118.00 78.72 C 118.00 78.29 112.29 78.07 105.31 78.22 C 92.61 78.50 92.61 78.50 87.81 90.98 C 85.16 97.85 83.00 103.59 83.00 103.73 C 83.00 103.88 89.04 104.00 96.42 104.00 C 109.83 104.00 109.83 104.00 113.92 91.75 Z  M 46.20 70.47 C 46.69 69.97 40.52 47.18 39.66 46.32 C 39.45 46.11 33.19 46.07 25.76 46.22 C 12.25 46.50 12.25 46.50 16.16 58.75 C 20.07 71.00 20.07 71.00 32.87 71.00 C 39.91 71.00 45.91 70.76 46.20 70.47 Z  M 118.00 69.80 C 118.00 69.13 116.33 63.51 114.28 57.30 C 110.57 46.00 110.57 46.00 97.18 46.00 C 86.88 46.00 83.90 46.29 84.26 47.25 C 84.52 47.94 85.95 52.48 87.43 57.35 C 92.09 72.65 89.97 71.00 104.98 71.00 C 114.47 71.00 118.00 70.67 118.00 69.80 Z  M 230.13 44.42 C 242.40 38.14 241.72 19.49 228.98 12.99 C 215.17 5.94 198.93 20.06 204.40 34.37 C 208.43 44.92 220.18 49.51 230.13 44.42 Z  M 61.00 214.00 C 61.00 209.00 61.00 209.00 71.50 209.00 C 82.00 209.00 82.00 209.00 82.00 214.00 C 82.00 219.00 82.00 219.00 71.50 219.00 C 61.00 219.00 61.00 219.00 61.00 214.00 Z  M 61.00 182.50 C 61.00 178.00 61.00 178.00 71.50 178.00 C 82.00 178.00 82.00 178.00 82.00 182.50 C 82.00 187.00 82.00 187.00 71.50 187.00 C 61.00 187.00 61.00 187.00 61.00 182.50 Z  M 61.00 152.00 C 61.00 147.00 61.00 147.00 71.50 147.00 C 82.00 147.00 82.00 147.00 82.00 152.00 C 82.00 157.00 82.00 157.00 71.50 157.00 C 61.00 157.00 61.00 157.00 61.00 152.00 Z "/>
</g>
</svg>