<?xml version="1.0" encoding="UTF-8" standalone="no"?>
<!DOCTYPE svg PUBLIC "-//W3C//DTD SVG 1.1//EN" "http://www.w3.org/Graphics/SVG/1.1/DTD/svg11.dtd" >
<svg xmlns="http://www.w3.org/2000/svg" xmlns:xlink="http://www.w3.org/1999/xlink" version="1.1" viewBox="0 0 256 256">
 <g >
 <path fill="currentColor"
d=" M 194.25 238.94 C 198.00 237.92 198.00 237.92 198.00 219.48 C 198.00 201.04 198.00 201.04 217.15 200.77 C 236.30 200.50 236.30 200.50 242.07 187.00 C 247.85 173.50 247.85 173.50 222.92 173.23 C 198.00 172.97 198.00 172.97 198.00 154.00 C 198.00 135.04 198.00 135.04 218.20 134.77 C 238.39 134.50 238.39 134.50 243.69 121.00 C 246.60 113.58 248.99 107.39 248.99 107.25 C 249.00 107.11 218.85 107.00 182.00 107.00 C 115.00 107.00 115.00 107.00 115.00 121.00 C 115.00 135.00 115.00 135.00 137.00 135.00 C 159.00 135.00 159.00 135.00 159.00 154.00 C 159.00 173.00 159.00 173.00 137.50 173.00 C 116.00 173.00 116.00 173.00 116.00 187.00 C 116.00 201.00 116.00 201.00 137.50 201.00 C 159.00 201.00 159.00 201.00 159.00 224.33 C 159.00 237.17 159.24 247.91 159.53 248.20 C 159.82 248.49 166.91 246.75 175.28 244.34 C 183.65 241.93 192.19 239.50 194.25 238.94 Z  M 68.75 238.58 C 81.00 233.83 81.00 233.83 81.00 155.95 C 81.00 78.08 81.00 78.08 90.25 77.79 C 99.50 77.50 99.50 77.50 104.18 64.00 C 106.76 56.58 108.89 49.94 108.93 49.25 C 108.98 48.31 105.57 48.00 95.00 48.00 C 81.00 48.00 81.00 48.00 81.00 31.00 C 81.00 14.00 81.00 14.00 64.52 14.00 C 48.05 14.00 48.05 14.00 47.77 30.75 C 47.50 47.50 47.50 47.50 32.25 47.78 C 17.00 48.05 17.00 48.05 17.00 63.03 C 17.00 78.00 17.00 78.00 32.50 78.00 C 48.00 78.00 48.00 78.00 48.00 162.46 C 48.00 246.93 48.00 246.93 52.25 245.13 C 54.59 244.14 62.01 241.19 68.75 238.58 Z  M 40.03 237.75 C 40.05 235.96 41.58 202.78 43.43 164.00 C 45.27 125.22 46.58 93.16 46.33 92.75 C 46.09 92.34 40.55 92.00 34.04 92.00 C 22.20 92.00 22.20 92.00 21.58 98.75 C 21.08 104.13 12.00 238.46 12.00 240.46 C 12.00 240.76 18.30 241.00 26.00 241.00 C 40.00 241.00 40.00 241.00 40.03 237.75 Z  M 114.03 234.25 C 114.07 227.07 107.89 94.69 107.45 93.25 C 107.17 92.34 103.78 92.00 95.03 92.00 C 83.00 92.00 83.00 92.00 82.98 96.25 C 82.93 105.11 87.10 228.74 87.61 233.75 C 88.14 239.00 88.14 239.00 101.07 239.00 C 114.00 239.00 114.00 239.00 114.03 234.25 Z  M 172.78 94.75 C 171.99 93.51 167.38 85.86 162.54 77.75 C 153.74 63.00 153.74 63.00 135.75 63.00 C 117.77 63.00 117.77 63.00 119.23 65.25 C 120.04 66.49 124.85 74.14 129.92 82.25 C 139.15 97.00 139.15 97.00 156.69 97.00 C 174.23 97.00 174.23 97.00 172.78 94.75 Z  M 232.76 78.50 C 240.99 62.00 240.99 62.00 223.50 62.00 C 206.01 62.00 206.01 62.00 198.01 77.99 C 193.60 86.78 190.00 94.21 190.00 94.49 C 190.00 94.77 197.77 95.00 207.26 95.00 C 224.53 95.00 224.53 95.00 232.76 78.50 Z  M 244.51 36.25 C 249.83 23.00 249.83 23.00 225.51 23.00 C 201.19 23.00 201.19 23.00 198.68 18.75 C 193.73 10.35 186.91 6.00 178.68 6.00 C 169.58 6.00 162.42 10.27 158.47 18.06 C 155.97 23.00 155.97 23.00 133.48 23.00 C 111.00 23.00 111.00 23.00 111.00 36.51 C 111.00 50.01 111.00 50.01 175.10 49.76 C 239.19 49.50 239.19 49.50 244.51 36.25 Z "/>
</g>
</svg>