<?xml version="1.0" encoding="UTF-8" standalone="no"?>
<!DOCTYPE svg PUBLIC "-//W3C//DTD SVG 1.1//EN" "http://www.w3.org/Graphics/SVG/1.1/DTD/svg11.dtd" >
<svg xmlns="http://www.w3.org/2000/svg" xmlns:xlink="http://www.w3.org/1999/xlink" version="1.1" viewBox="0 0 256 256">
 <g >
 <path fill="currentColor"
d=" M 234.53 227.00 C 240.81 212.50 240.81 212.50 211.41 212.24 C 182.00 211.97 182.00 211.97 182.00 174.49 C 182.00 137.00 182.00 137.00 184.43 137.00 C 186.02 137.00 187.10 136.28 187.52 134.92 C 188.93 130.50 195.28 117.55 195.57 118.50 C 195.75 119.05 197.07 123.44 198.51 128.25 C 201.12 137.00 201.12 137.00 222.06 137.00 C 233.58 137.00 242.98 136.89 242.96 136.75 C 242.94 136.61 236.28 114.90 228.17 88.50 C 213.40 40.50 213.40 40.50 192.20 40.23 C 179.35 40.07 171.00 40.33 171.00 40.91 C 171.00 41.43 175.49 56.15 180.97 73.62 C 186.46 91.09 190.81 105.53 190.63 105.70 C 190.46 105.87 162.65 105.90 128.83 105.76 C 67.35 105.50 67.35 105.50 97.23 60.00 C 113.67 34.97 127.55 13.71 128.09 12.75 C 129.01 11.11 127.67 11.00 105.79 11.02 C 82.50 11.04 82.50 11.04 50.25 59.58 C 18.00 108.12 18.00 108.12 18.00 122.56 C 18.00 137.00 18.00 137.00 78.00 137.00 C 138.00 137.00 138.00 137.00 138.00 188.83 C 138.00 217.34 138.30 240.97 138.68 241.34 C 139.05 241.72 159.36 241.90 183.80 241.76 C 228.26 241.50 228.26 241.50 234.53 227.00 Z  M 83.83 191.75 C 97.13 164.66 108.01 142.16 108.00 141.75 C 108.00 141.34 97.40 141.00 84.45 141.00 C 60.89 141.00 60.89 141.00 42.33 178.75 C 32.12 199.51 21.14 222.01 17.94 228.75 C 12.10 241.00 12.10 241.00 35.88 241.00 C 59.66 241.00 59.66 241.00 83.83 191.75 Z "/>
</g>
</svg>