<?xml version="1.0" encoding="UTF-8" standalone="no"?>
<!DOCTYPE svg PUBLIC "-//W3C//DTD SVG 1.1//EN" "http://www.w3.org/Graphics/SVG/1.1/DTD/svg11.dtd" >
<svg xmlns="http://www.w3.org/2000/svg" xmlns:xlink="http://www.w3.org/1999/xlink" version="1.1" viewBox="0 0 256 256">
 <g >
 <path fill="currentColor"
d=" M 144.24 232.26 C 157.00 219.53 157.00 219.53 157.00 162.76 C 157.00 106.00 157.00 106.00 149.00 106.00 C 141.00 106.00 141.00 106.00 141.00 85.56 C 141.00 65.11 141.00 65.11 145.25 64.81 C 149.50 64.50 149.50 64.50 156.20 52.00 C 162.91 39.50 162.91 39.50 152.20 39.00 C 141.50 38.50 141.50 38.50 141.22 25.25 C 140.94 12.00 140.94 12.00 124.50 12.00 C 108.06 12.00 108.06 12.00 107.78 25.25 C 107.50 38.50 107.50 38.50 97.25 38.78 C 87.00 39.07 87.00 39.07 87.00 52.03 C 87.00 65.00 87.00 65.00 97.50 65.00 C 108.00 65.00 108.00 65.00 108.00 85.50 C 108.00 106.00 108.00 106.00 97.50 106.00 C 87.00 106.00 87.00 106.00 87.00 175.50 C 87.00 245.00 87.00 245.00 109.24 245.00 C 131.47 245.00 131.47 245.00 144.24 232.26 Z  M 182.60 240.08 C 195.50 235.15 195.50 235.15 195.76 198.08 C 196.02 161.00 196.02 161.00 202.51 161.00 C 209.00 161.00 209.00 161.00 209.00 190.50 C 209.00 220.00 209.00 220.00 205.50 220.00 C 202.00 220.00 202.00 220.00 202.00 232.50 C 202.00 245.00 202.00 245.00 208.24 245.00 C 214.47 245.00 214.47 245.00 226.74 232.77 C 239.00 220.53 239.00 220.53 239.00 117.77 C 239.00 15.00 239.00 15.00 203.00 15.00 C 167.00 15.00 167.00 15.00 167.00 130.00 C 167.00 225.93 167.22 245.00 168.35 245.00 C 169.09 245.00 175.51 242.78 182.60 240.08 Z  M 56.81 226.89 C 74.00 210.77 74.00 210.77 74.00 138.63 C 74.00 66.49 74.00 66.49 80.37 49.50 C 83.88 40.15 88.38 28.59 90.37 23.81 C 92.37 19.03 94.00 14.86 94.00 14.56 C 94.00 14.25 86.69 14.00 77.74 14.00 C 61.49 14.00 61.49 14.00 59.08 20.25 C 53.36 35.07 54.11 34.71 50.95 24.16 C 49.41 19.02 47.96 14.62 47.72 14.39 C 47.48 14.15 39.40 14.08 29.77 14.23 C 12.25 14.50 12.25 14.50 23.13 41.91 C 29.11 56.98 34.00 69.92 34.00 70.66 C 34.00 71.68 31.95 72.00 25.50 72.00 C 17.00 72.00 17.00 72.00 17.00 84.97 C 17.00 97.93 17.00 97.93 28.25 98.22 C 39.50 98.50 39.50 98.50 39.77 120.75 C 40.04 143.00 40.04 143.00 28.52 143.00 C 17.00 143.00 17.00 143.00 17.00 157.00 C 17.00 171.00 17.00 171.00 28.50 171.00 C 40.00 171.00 40.00 171.00 40.00 193.50 C 40.00 216.00 40.00 216.00 29.50 216.00 C 19.00 216.00 19.00 216.00 19.00 229.50 C 19.00 243.00 19.00 243.00 29.31 243.00 C 39.62 243.00 39.62 243.00 56.81 226.89 Z  M 116.00 175.00 C 116.00 131.00 116.00 131.00 122.00 131.00 C 128.00 131.00 128.00 131.00 128.00 175.00 C 128.00 219.00 128.00 219.00 122.00 219.00 C 116.00 219.00 116.00 219.00 116.00 175.00 Z  M 196.23 117.75 C 196.50 100.50 196.50 100.50 202.75 100.20 C 209.00 99.90 209.00 99.90 209.00 117.45 C 209.00 135.00 209.00 135.00 202.48 135.00 C 195.95 135.00 195.95 135.00 196.23 117.75 Z  M 196.67 74.33 C 196.30 73.97 196.00 66.32 196.00 57.33 C 196.00 41.00 196.00 41.00 202.50 41.00 C 209.00 41.00 209.00 41.00 209.00 58.00 C 209.00 75.00 209.00 75.00 203.17 75.00 C 199.96 75.00 197.03 74.70 196.67 74.33 Z "/>
</g>
</svg>