<?xml version="1.0" encoding="UTF-8" standalone="no"?>
<!DOCTYPE svg PUBLIC "-//W3C//DTD SVG 1.1//EN" "http://www.w3.org/Graphics/SVG/1.1/DTD/svg11.dtd" >
<svg xmlns="http://www.w3.org/2000/svg" xmlns:xlink="http://www.w3.org/1999/xlink" version="1.1" viewBox="0 0 256 256">
 <g >
 <path fill="currentColor"
d=" M 218.56 226.47 C 239.00 211.94 239.00 211.94 239.00 189.97 C 239.00 168.00 239.00 168.00 128.00 168.00 C 17.00 168.00 17.00 168.00 17.00 204.50 C 17.00 241.00 17.00 241.00 107.56 241.00 C 198.11 241.00 198.11 241.00 218.56 226.47 Z  M 83.91 134.50 C 104.97 108.00 104.97 108.00 150.99 108.00 C 197.00 108.00 197.00 108.00 197.00 121.48 C 197.00 134.96 197.00 134.96 173.75 135.23 C 150.50 135.50 150.50 135.50 150.22 147.75 C 149.94 160.00 149.94 160.00 175.22 160.00 C 200.50 160.00 200.50 160.00 219.72 146.25 C 238.93 132.50 238.93 132.50 238.97 107.75 C 239.00 83.00 239.00 83.00 127.00 83.00 C 15.00 83.00 15.00 83.00 15.00 95.50 C 15.00 108.00 15.00 108.00 36.50 108.00 C 48.33 108.00 57.99 108.34 57.99 108.75 C 57.98 109.16 48.30 121.09 36.47 135.25 C 14.97 161.00 14.97 161.00 38.91 161.00 C 62.84 161.00 62.84 161.00 83.91 134.50 Z  M 240.18 74.48 C 240.47 74.20 236.73 66.21 231.88 56.73 C 227.03 47.26 223.05 39.18 223.03 38.80 C 223.01 38.41 225.50 37.96 228.56 37.80 C 234.62 37.47 233.87 38.53 242.51 18.25 C 243.90 15.00 243.90 15.00 200.09 15.00 C 156.29 15.00 156.29 15.00 143.63 43.75 C 136.67 59.56 130.98 72.85 130.99 73.27 C 130.99 73.70 139.39 73.92 149.65 73.77 C 170.63 73.47 167.07 76.57 178.93 48.25 C 185.08 33.56 185.62 33.73 194.93 53.41 C 206.32 77.51 203.08 75.00 222.82 75.00 C 232.09 75.00 239.90 74.77 240.18 74.48 Z  M 53.36 71.75 C 54.13 70.51 57.85 62.63 61.63 54.22 C 67.11 42.03 68.86 39.00 70.31 39.22 C 71.58 39.42 74.40 44.50 79.89 56.50 C 87.67 73.50 87.67 73.50 105.83 73.77 C 117.86 73.95 124.00 73.70 124.00 73.01 C 124.00 72.44 120.40 64.79 116.00 56.00 C 111.60 47.21 108.00 39.82 108.00 39.56 C 108.00 39.31 110.59 38.96 113.75 38.80 C 119.50 38.50 119.50 38.50 124.22 27.50 C 126.81 21.45 128.95 16.16 128.97 15.75 C 128.99 15.34 109.31 15.02 85.25 15.03 C 41.50 15.07 41.50 15.07 28.36 43.98 C 21.14 59.88 15.48 73.14 15.78 73.45 C 16.08 73.75 24.35 74.00 34.14 74.00 C 51.53 74.00 51.99 73.95 53.36 71.75 Z  M 59.00 204.50 C 59.00 192.00 59.00 192.00 128.00 192.00 C 197.00 192.00 197.00 192.00 197.00 204.50 C 197.00 217.00 197.00 217.00 128.00 217.00 C 59.00 217.00 59.00 217.00 59.00 204.50 Z "/>
</g>
</svg>