<?xml version="1.0" encoding="UTF-8" standalone="no"?>
<!DOCTYPE svg PUBLIC "-//W3C//DTD SVG 1.1//EN" "http://www.w3.org/Graphics/SVG/1.1/DTD/svg11.dtd" >
<svg xmlns="http://www.w3.org/2000/svg" xmlns:xlink="http://www.w3.org/1999/xlink" version="1.1" viewBox="0 0 256 256">
 <g >
 <path fill="currentColor"
d=" M 233.53 227.00 C 240.77 211.50 240.77 211.50 214.89 211.23 C 189.00 210.97 189.00 210.97 189.00 128.50 C 189.00 46.04 189.00 46.04 209.12 45.77 C 229.24 45.50 229.24 45.50 233.71 35.50 C 236.17 30.00 239.24 23.14 240.53 20.25 C 242.89 15.00 242.89 15.00 170.94 15.00 C 99.00 15.00 99.00 15.00 99.00 30.50 C 99.00 46.00 99.00 46.00 123.00 46.00 C 147.00 46.00 147.00 46.00 147.00 128.50 C 147.00 211.00 147.00 211.00 122.50 211.00 C 98.00 211.00 98.00 211.00 98.00 227.01 C 98.00 243.01 98.00 243.01 162.15 242.76 C 226.29 242.50 226.29 242.50 233.53 227.00 Z  M 84.33 227.67 C 88.00 219.79 91.00 213.04 91.00 212.67 C 91.00 212.30 86.50 212.00 81.01 212.00 C 71.01 212.00 71.01 212.00 70.76 146.25 C 70.50 80.50 70.50 80.50 43.25 80.23 C 16.00 79.97 16.00 79.97 16.00 94.98 C 16.00 110.00 16.00 110.00 23.00 110.00 C 30.00 110.00 30.00 110.00 30.00 176.00 C 30.00 242.00 30.00 242.00 53.83 242.00 C 77.67 242.00 77.67 242.00 84.33 227.67 Z  M 60.57 58.53 C 81.72 49.14 80.14 20.31 58.06 12.52 C 42.56 7.05 26.63 17.84 25.20 34.78 C 24.17 46.81 33.23 58.65 45.18 60.89 C 50.62 61.91 54.17 61.36 60.57 58.53 Z "/>
</g>
</svg>