<?xml version="1.0" encoding="UTF-8" standalone="no"?>
<!DOCTYPE svg PUBLIC "-//W3C//DTD SVG 1.1//EN" "http://www.w3.org/Graphics/SVG/1.1/DTD/svg11.dtd" >
<svg xmlns="http://www.w3.org/2000/svg" xmlns:xlink="http://www.w3.org/1999/xlink" version="1.1" viewBox="0 0 256 256">
 <g >
 <path fill="currentColor"
d=" M 78.28 214.94 C 83.89 213.38 88.31 208.90 92.78 200.24 C 104.06 178.39 108.45 157.48 110.00 118.10 C 110.53 104.68 111.15 93.52 111.37 93.29 C 111.59 93.07 119.03 92.62 127.89 92.29 C 144.00 91.69 144.00 91.69 144.00 97.23 C 144.00 102.77 144.00 102.77 136.46 103.47 C 128.35 104.23 126.00 103.41 126.00 99.81 C 126.00 97.91 125.92 97.92 123.07 99.95 C 116.58 104.57 113.77 113.74 118.13 116.07 C 119.44 116.77 122.59 116.98 126.38 116.62 C 129.74 116.30 134.95 115.94 137.95 115.82 C 143.40 115.60 143.40 115.60 144.48 122.05 C 145.88 130.41 147.95 133.33 154.85 136.72 C 160.42 139.46 160.75 139.50 179.50 139.50 C 194.88 139.50 199.59 139.16 204.24 137.72 C 212.43 135.19 216.33 130.96 218.60 122.16 C 220.35 115.35 220.47 115.18 224.04 114.61 C 227.56 114.05 237.00 106.98 237.00 104.92 C 237.00 104.41 235.67 104.00 234.04 104.00 C 229.70 104.00 228.61 101.24 229.42 92.33 C 230.23 83.37 228.61 79.18 222.68 74.88 C 218.08 71.55 217.02 71.31 217.61 73.75 C 218.69 78.27 217.65 78.44 190.82 78.12 C 176.90 77.96 165.18 77.61 164.76 77.35 C 164.34 77.09 164.00 74.44 164.00 71.46 C 164.00 66.43 164.19 65.99 166.64 65.37 C 168.10 65.01 179.76 64.95 192.56 65.24 C 208.62 65.61 216.17 65.43 216.92 64.68 C 220.19 61.41 216.35 50.61 210.66 47.10 C 206.42 44.48 206.53 44.46 206.34 47.70 C 206.07 52.42 204.56 52.73 184.27 52.30 C 165.50 51.90 165.50 51.90 165.50 46.86 C 165.50 40.52 162.93 38.00 156.45 38.00 C 150.61 38.00 147.21 39.43 142.75 43.76 C 138.74 47.66 138.15 49.00 140.43 49.00 C 141.21 49.00 142.56 49.71 143.43 50.57 C 144.69 51.84 145.00 54.65 145.00 65.01 C 145.00 77.88 145.00 77.88 125.75 78.19 C 115.16 78.36 105.96 78.13 105.31 77.68 C 104.65 77.22 103.98 75.73 103.81 74.35 C 103.50 71.84 103.50 71.84 100.09 74.17 C 95.49 77.32 93.05 80.82 91.90 85.94 C 91.21 89.03 91.27 90.62 92.13 91.65 C 93.70 93.55 92.58 129.43 90.49 143.97 C 85.40 179.40 75.39 195.51 57.09 197.68 C 52.18 198.26 52.18 198.26 56.26 201.38 C 58.51 203.10 61.76 206.53 63.50 209.00 C 68.19 215.69 71.21 216.90 78.28 214.94 Z  M 116.96 213.89 C 121.11 213.36 142.05 212.66 163.50 212.33 C 202.27 211.75 223.51 212.59 233.52 215.11 C 248.45 218.87 248.81 201.29 233.99 192.63 C 230.81 190.77 230.79 190.77 231.45 192.84 C 231.81 193.99 231.62 195.84 231.02 196.96 C 230.03 198.82 228.98 199.00 219.21 198.99 C 213.32 198.99 205.46 198.70 201.75 198.35 C 195.00 197.71 195.00 197.71 195.00 192.50 C 195.00 187.28 195.00 187.28 200.25 186.73 C 212.14 185.48 222.15 179.51 228.17 170.05 C 232.97 162.51 231.16 158.00 223.31 158.00 C 220.91 158.00 217.49 157.40 215.72 156.66 C 212.50 155.31 212.50 155.31 212.48 161.42 C 212.46 170.58 206.98 178.86 197.78 183.61 C 194.80 185.15 194.80 185.15 195.15 165.69 C 195.47 147.97 195.34 146.04 193.68 144.20 C 189.61 139.69 180.97 140.83 175.15 146.65 C 171.68 150.12 171.68 150.12 174.68 151.95 C 177.68 153.78 177.68 153.78 178.34 166.64 C 179.16 182.77 179.18 194.37 178.39 196.42 C 177.91 197.69 176.11 198.00 169.24 198.00 C 160.70 198.00 160.70 198.00 161.39 172.25 C 162.15 143.78 161.98 142.81 156.05 141.51 C 152.53 140.74 146.20 143.41 141.01 147.85 C 137.52 150.84 137.52 150.84 140.19 151.51 C 141.65 151.88 143.18 152.93 143.57 153.84 C 143.96 154.75 144.50 162.18 144.77 170.35 C 145.25 185.21 145.25 185.21 143.04 184.02 C 138.96 181.84 132.88 175.68 130.74 171.57 C 129.29 168.77 128.61 165.55 128.57 161.26 C 128.53 157.82 128.28 155.02 128.00 155.04 C 127.72 155.06 126.38 155.71 125.00 156.50 C 123.62 157.29 120.36 157.95 117.75 157.96 C 112.65 158.00 109.00 160.42 109.00 163.76 C 109.00 166.61 115.16 175.16 119.72 178.62 C 124.73 182.43 133.61 185.93 140.29 186.72 C 145.09 187.29 145.09 187.29 144.80 192.39 C 144.50 197.50 144.50 197.50 129.00 198.22 C 115.17 198.86 113.36 198.76 112.25 197.27 C 111.56 196.36 111.25 194.79 111.56 193.80 C 112.30 191.48 111.50 191.53 107.36 194.09 C 101.36 197.79 96.98 208.47 99.77 212.59 C 101.17 214.67 104.52 215.98 106.96 215.42 C 108.32 215.11 112.82 214.42 116.96 213.89 Z  M 43.50 181.58 C 64.65 177.21 82.21 161.73 86.59 143.59 C 87.28 140.76 87.14 140.81 81.06 145.87 C 77.63 148.72 72.16 152.40 68.91 154.04 C 63.00 157.03 63.00 157.03 63.00 132.44 C 63.00 107.84 63.00 107.84 70.25 108.34 C 74.24 108.62 79.19 109.15 81.26 109.53 C 93.74 111.82 93.59 93.97 81.06 86.67 C 77.92 84.84 77.92 84.84 78.53 87.28 C 79.32 90.40 76.55 93.38 73.60 92.59 C 72.45 92.28 69.52 92.02 67.09 92.01 C 62.68 92.00 62.68 92.00 63.35 72.25 C 63.72 61.39 64.29 50.62 64.63 48.33 C 65.16 44.69 64.90 43.80 62.55 41.46 C 60.13 39.04 59.30 38.81 54.15 39.18 C 47.62 39.66 40.71 43.70 37.75 48.80 C 36.07 51.69 36.07 51.79 37.81 51.34 C 38.80 51.08 40.71 51.76 42.06 52.84 C 44.49 54.81 44.50 54.92 44.50 73.16 C 44.50 91.50 44.50 91.50 37.00 92.10 C 32.88 92.43 28.96 92.51 28.31 92.27 C 27.65 92.02 26.97 90.19 26.81 88.18 C 26.50 84.53 26.50 84.53 22.19 88.44 C 16.75 93.36 15.00 96.74 15.00 102.30 C 15.00 108.96 17.30 110.58 24.73 109.17 C 27.90 108.57 33.65 107.98 37.50 107.87 C 44.50 107.66 44.50 107.66 44.13 135.08 C 43.92 150.16 43.55 162.72 43.29 163.00 C 43.04 163.28 37.81 163.50 31.67 163.50 C 22.22 163.49 19.75 163.15 15.63 161.25 C 10.77 159.01 10.77 159.01 11.58 161.26 C 12.03 162.49 12.42 167.47 12.45 172.33 C 12.52 183.95 13.00 184.36 26.00 183.70 C 31.23 183.44 39.10 182.48 43.50 181.58 Z  M 167.31 125.99 C 164.50 124.86 162.22 121.33 161.82 117.50 C 161.50 114.50 161.50 114.50 168.50 114.19 C 172.35 114.01 181.51 114.37 188.86 114.97 C 204.36 116.25 205.00 116.02 205.00 109.25 C 205.00 105.26 204.50 104.23 200.63 100.37 C 195.73 95.46 194.07 94.89 194.73 98.34 C 195.54 102.62 193.18 103.66 184.39 102.86 C 180.05 102.46 172.96 102.11 168.64 102.07 C 161.91 102.01 160.87 101.77 161.39 100.42 C 161.73 99.55 162.00 97.30 162.00 95.42 C 162.00 92.00 162.00 92.00 175.84 92.00 C 183.46 92.00 194.48 92.29 200.34 92.65 C 211.00 93.30 211.00 93.30 211.00 101.22 C 211.00 110.26 211.93 112.65 216.17 114.43 C 219.18 115.69 219.18 115.69 215.34 118.70 C 209.76 123.07 208.31 123.67 199.10 125.42 C 190.21 127.11 170.94 127.45 167.31 125.99 Z "/>
</g>
</svg>