<?xml version="1.0" encoding="UTF-8" standalone="no"?>
<!DOCTYPE svg PUBLIC "-//W3C//DTD SVG 1.1//EN" "http://www.w3.org/Graphics/SVG/1.1/DTD/svg11.dtd" >
<svg xmlns="http://www.w3.org/2000/svg" xmlns:xlink="http://www.w3.org/1999/xlink" version="1.1" viewBox="0 0 256 256">
 <g >
 <path fill="currentColor"
d=" M 163.72 219.03 C 167.71 216.59 168.32 214.30 167.59 204.35 C 167.27 200.03 166.77 178.05 166.48 155.50 C 165.94 114.50 165.94 114.50 171.79 125.59 C 182.56 146.00 197.26 166.55 208.33 176.67 C 215.11 182.87 224.65 188.00 229.39 188.00 C 233.65 188.00 235.79 186.14 239.07 179.58 C 240.36 176.99 242.83 173.21 244.56 171.18 C 247.71 167.50 247.71 167.50 241.60 167.43 C 226.95 167.26 207.95 152.12 191.73 127.70 C 185.79 118.76 176.00 101.74 176.00 100.36 C 176.00 99.32 199.17 100.42 211.00 102.03 C 228.63 104.42 227.50 104.45 229.86 101.45 C 234.10 96.06 231.88 88.77 223.77 81.48 C 221.03 79.02 218.47 77.00 218.09 77.00 C 217.71 77.00 217.58 78.49 217.79 80.31 C 218.38 85.34 216.95 85.87 205.50 84.93 C 200.00 84.47 189.11 84.08 181.31 84.05 C 173.50 84.02 166.92 83.66 166.68 83.25 C 166.44 82.84 166.68 74.62 167.23 65.00 C 168.59 40.96 168.58 40.91 165.50 38.25 C 159.90 33.43 150.35 36.09 143.87 44.28 C 139.96 49.23 139.96 49.23 143.23 50.87 C 146.50 52.50 146.50 52.50 146.78 68.25 C 147.05 84.00 147.05 84.00 133.28 84.07 C 125.70 84.11 115.45 84.50 110.50 84.94 C 105.55 85.37 100.96 85.53 100.30 85.28 C 99.65 85.03 98.97 83.02 98.80 80.82 C 98.50 76.80 98.50 76.80 94.50 79.98 C 85.30 87.29 82.36 96.45 87.56 101.65 C 89.61 103.70 90.75 104.09 93.31 103.62 C 98.67 102.64 113.83 101.21 126.90 100.47 C 139.30 99.76 139.30 99.76 133.51 110.63 C 118.77 138.28 102.68 157.03 86.12 165.86 C 80.06 169.08 73.32 170.63 71.28 169.25 C 70.34 168.61 70.39 167.21 71.53 162.96 C 72.33 159.96 73.26 153.68 73.60 149.00 C 74.21 140.50 74.21 140.50 69.36 148.78 C 57.72 168.62 41.41 180.88 26.19 181.22 C 22.75 181.30 20.11 180.68 17.56 179.17 C 15.54 177.98 13.73 177.00 13.54 177.00 C 13.34 177.00 13.68 178.60 14.28 180.56 C 15.09 183.19 15.06 185.64 14.19 189.87 C 12.52 197.94 12.69 200.41 15.07 202.57 C 18.02 205.23 29.19 205.76 35.84 203.55 C 47.10 199.81 61.02 187.10 66.84 175.25 C 68.26 172.36 69.72 170.00 70.09 170.00 C 71.20 170.00 75.54 176.15 78.36 181.71 C 81.32 187.57 83.29 189.00 88.37 189.00 C 91.11 189.00 93.66 187.66 100.04 182.85 C 113.92 172.39 128.26 153.84 140.88 130.00 C 146.97 118.50 146.97 118.50 146.93 152.50 C 146.89 189.03 146.25 199.57 143.94 201.12 C 143.15 201.65 139.50 201.94 135.83 201.76 C 128.27 201.40 128.25 201.50 134.32 208.55 C 143.43 219.12 156.14 223.65 163.72 219.03 Z  M 46.57 131.91 C 54.24 130.51 62.57 126.04 68.10 120.37 C 72.50 115.85 72.50 115.85 68.50 116.67 C 66.30 117.13 59.05 117.46 52.39 117.42 C 41.66 117.35 39.72 117.07 35.44 114.92 C 29.56 111.98 26.60 108.15 26.60 103.49 C 26.60 101.57 26.48 100.00 26.33 100.00 C 26.17 100.00 25.36 101.34 24.51 102.98 C 23.66 104.62 20.55 107.74 17.60 109.92 C 11.99 114.07 9.74 118.07 11.04 121.59 C 13.99 129.56 31.55 134.66 46.57 131.91 Z  M 80.58 78.03 C 87.95 74.41 87.79 73.05 80.00 73.00 C 70.45 72.95 60.57 69.00 56.83 63.77 C 54.91 61.08 54.50 59.23 54.50 53.37 C 54.50 46.25 54.50 46.25 52.12 48.12 C 50.81 49.15 46.57 50.94 42.70 52.09 C 35.51 54.23 30.00 58.29 30.00 61.46 C 30.00 66.59 36.35 74.61 43.18 78.09 C 49.21 81.17 53.83 81.94 64.22 81.62 C 72.83 81.34 74.69 80.94 80.58 78.03 Z "/>
</g>
</svg>