<?xml version="1.0" encoding="UTF-8" standalone="no"?>
<!DOCTYPE svg PUBLIC "-//W3C//DTD SVG 1.1//EN" "http://www.w3.org/Graphics/SVG/1.1/DTD/svg11.dtd" >
<svg xmlns="http://www.w3.org/2000/svg" xmlns:xlink="http://www.w3.org/1999/xlink" version="1.1" viewBox="0 0 256 256">
 <g >
 <path fill="currentColor"
d=" M 163.14 219.09 C 165.21 217.41 165.49 216.35 165.46 210.34 C 165.43 206.58 165.02 199.94 164.55 195.60 C 163.68 187.69 163.68 187.69 190.16 188.41 C 204.72 188.80 220.88 189.61 226.07 190.20 C 239.78 191.77 242.60 191.67 244.95 189.55 C 249.14 185.75 246.54 177.88 239.33 172.59 C 233.94 168.64 231.55 168.02 232.44 170.80 C 232.75 171.79 232.44 173.36 231.75 174.29 C 230.59 175.86 228.11 175.90 197.18 174.81 C 164.27 173.64 163.87 173.60 164.42 171.57 C 164.72 170.43 164.98 167.98 164.99 166.11 C 165.00 162.73 165.00 162.73 177.75 163.44 C 184.76 163.83 197.25 164.79 205.50 165.57 C 213.75 166.35 220.84 167.00 221.25 167.00 C 223.54 167.01 226.00 162.70 226.00 158.69 C 226.00 154.24 224.25 151.82 218.03 147.65 C 214.71 145.44 214.00 145.56 214.00 148.38 C 214.00 152.35 212.23 152.91 201.73 152.29 C 192.00 151.71 192.00 151.71 192.00 145.10 C 192.00 138.50 192.00 138.50 200.75 138.80 C 208.88 139.07 220.26 140.20 229.31 141.63 C 232.42 142.12 233.58 141.81 235.56 139.94 C 240.08 135.70 237.74 128.72 229.88 123.03 C 225.08 119.55 224.00 119.29 224.64 121.75 C 224.89 122.71 224.49 124.32 223.76 125.32 C 222.49 127.05 221.09 127.09 195.96 126.07 C 181.41 125.48 168.24 125.00 166.70 125.00 C 163.95 125.00 163.90 124.89 164.20 119.89 C 164.50 114.78 164.50 114.78 178.33 114.94 C 185.94 115.03 196.74 115.58 202.33 116.17 C 207.92 116.76 214.03 117.27 215.89 117.29 C 224.77 117.41 223.59 105.68 214.08 99.27 C 210.03 96.54 209.04 96.43 209.64 98.75 C 209.89 99.71 209.49 101.33 208.75 102.34 C 207.52 104.01 205.79 104.16 189.45 104.05 C 179.58 103.99 169.81 103.67 167.75 103.34 C 164.01 102.75 164.00 102.73 164.00 97.87 C 164.00 93.00 164.00 93.00 185.25 93.03 C 202.35 93.06 206.88 93.35 208.44 94.53 C 210.94 96.42 217.29 96.42 220.95 94.53 C 222.52 93.72 225.45 91.13 227.47 88.78 C 231.14 84.50 231.14 84.50 228.64 84.19 C 227.27 84.02 225.61 83.23 224.95 82.44 C 223.30 80.45 222.38 63.50 223.87 62.58 C 227.19 60.53 223.05 50.47 217.26 46.53 C 212.63 43.38 212.25 43.39 212.25 46.58 C 212.25 47.99 211.76 49.64 211.15 50.25 C 209.89 51.51 100.09 51.50 98.87 50.24 C 98.48 49.83 98.01 48.23 97.83 46.67 C 97.50 43.84 97.50 43.84 94.09 46.17 C 92.22 47.45 89.82 49.66 88.77 51.08 C 86.27 54.45 84.56 61.96 85.96 63.36 C 87.45 64.85 87.28 80.25 85.75 82.25 C 85.06 83.14 83.24 84.02 81.70 84.19 C 78.90 84.50 78.90 84.50 81.49 88.00 C 86.74 95.09 96.66 98.22 102.29 94.56 C 103.99 93.45 109.19 93.04 124.75 92.81 C 145.00 92.50 145.00 92.50 145.00 97.75 C 145.00 103.00 145.00 103.00 133.25 103.09 C 126.79 103.13 117.45 103.51 112.50 103.91 C 102.50 104.73 101.00 104.21 101.00 99.88 C 101.00 98.29 100.77 97.00 100.48 97.00 C 100.19 97.00 98.27 98.12 96.20 99.48 C 86.55 105.87 86.03 119.28 95.50 117.59 C 102.72 116.31 116.59 115.10 130.25 114.57 C 145.00 113.99 145.00 113.99 145.00 119.39 C 145.00 124.79 145.00 124.79 128.25 125.45 C 119.04 125.82 105.65 126.20 98.50 126.31 C 85.50 126.50 85.50 126.50 85.19 123.25 C 85.01 121.46 84.61 120.00 84.28 120.00 C 82.83 120.00 76.65 125.52 74.92 128.37 C 70.61 135.43 73.89 142.74 80.85 141.60 C 82.86 141.27 91.25 140.56 99.50 140.03 C 107.75 139.49 115.62 138.93 117.00 138.78 C 119.42 138.51 119.51 138.72 119.79 145.11 C 120.09 151.72 120.09 151.72 116.29 152.35 C 111.43 153.16 100.63 153.18 98.58 152.39 C 97.64 152.03 97.00 150.61 97.00 148.89 C 97.00 145.45 97.00 145.45 91.92 148.04 C 82.60 152.80 81.13 164.49 89.60 166.61 C 90.95 166.95 96.88 166.52 102.78 165.65 C 108.67 164.78 120.59 163.76 129.25 163.40 C 145.00 162.73 145.00 162.73 145.00 168.16 C 145.00 173.59 145.00 173.59 113.41 174.80 C 96.04 175.47 81.42 175.76 80.91 175.45 C 80.41 175.14 80.00 173.56 80.00 171.94 C 80.00 170.32 79.63 169.00 79.18 169.00 C 77.62 169.00 69.94 176.21 68.47 179.05 C 66.51 182.85 66.61 187.47 68.70 189.56 C 70.15 191.01 71.62 191.16 78.45 190.59 C 91.30 189.51 122.55 188.08 134.25 188.04 C 145.00 188.00 145.00 188.00 145.00 195.50 C 145.00 201.80 144.66 203.34 142.89 205.11 C 141.12 206.88 139.89 207.16 135.44 206.79 C 130.62 206.39 130.20 206.51 131.05 208.08 C 132.75 211.28 140.29 216.97 145.42 218.94 C 152.18 221.54 160.03 221.61 163.14 219.09 Z  M 30.47 205.47 C 47.21 201.11 60.82 187.79 67.17 169.56 C 69.45 163.01 69.97 159.81 69.96 152.50 C 69.94 143.50 69.94 143.50 65.98 151.00 C 57.00 168.04 44.94 178.07 29.80 181.11 C 24.92 182.09 23.74 181.98 19.64 180.16 C 14.99 178.11 14.99 178.11 15.62 182.01 C 15.96 184.16 15.69 188.82 15.02 192.37 C 13.62 199.82 14.73 203.55 19.00 205.71 C 22.23 207.34 23.38 207.31 30.47 205.47 Z  M 54.05 130.81 C 57.11 129.42 61.28 126.82 63.32 125.03 C 67.39 121.45 71.49 116.15 70.75 115.42 C 70.49 115.16 67.65 115.64 64.43 116.48 C 56.87 118.45 44.49 118.44 38.88 116.46 C 32.78 114.30 28.11 109.51 27.32 104.59 C 26.73 100.90 26.62 100.79 25.79 103.04 C 24.59 106.29 22.26 108.78 17.71 111.67 C 15.63 112.99 13.49 115.20 12.97 116.58 C 10.95 121.89 16.66 129.08 25.59 132.48 C 31.88 134.88 47.07 133.98 54.05 130.81 Z  M 66.15 80.03 C 69.65 78.95 74.06 76.93 75.95 75.53 C 79.39 73.00 79.39 73.00 75.74 73.00 C 66.04 73.00 56.66 69.43 51.06 63.60 C 47.98 60.39 47.57 59.29 47.06 52.90 C 46.51 45.86 46.48 45.80 44.63 47.84 C 43.61 48.98 39.90 50.87 36.40 52.03 C 29.70 54.26 25.98 57.61 26.02 61.38 C 26.06 64.86 29.52 71.28 33.31 74.88 C 40.47 81.69 53.95 83.80 66.15 80.03 Z  M 136.20 144.75 C 136.50 138.50 136.50 138.50 155.25 138.23 C 174.00 137.96 174.00 137.96 174.00 144.48 C 174.00 151.00 174.00 151.00 154.95 151.00 C 135.90 151.00 135.90 151.00 136.20 144.75 Z  M 105.00 73.66 C 105.00 65.25 105.00 65.25 108.12 64.62 C 109.84 64.28 115.26 64.00 120.16 64.00 C 129.08 64.00 129.08 64.00 128.79 72.75 C 128.50 81.50 128.50 81.50 116.75 81.78 C 105.00 82.06 105.00 82.06 105.00 73.66 Z  M 143.42 80.66 C 143.14 79.93 143.04 75.76 143.21 71.41 C 143.50 63.50 143.50 63.50 154.92 63.22 C 163.38 63.00 166.55 63.26 167.15 64.22 C 168.10 65.71 168.25 76.46 167.37 79.75 C 166.79 81.92 166.34 82.00 155.35 82.00 C 146.74 82.00 143.81 81.67 143.42 80.66 Z  M 182.67 81.33 C 182.30 80.97 182.00 76.92 182.00 72.33 C 182.00 64.00 182.00 64.00 194.00 64.00 C 206.00 64.00 206.00 64.00 206.00 73.00 C 206.00 82.00 206.00 82.00 194.67 82.00 C 188.43 82.00 183.03 81.70 182.67 81.33 Z "/>
</g>
</svg>