<?xml version="1.0" encoding="UTF-8" standalone="no"?>
<!DOCTYPE svg PUBLIC "-//W3C//DTD SVG 1.1//EN" "http://www.w3.org/Graphics/SVG/1.1/DTD/svg11.dtd" >
<svg xmlns="http://www.w3.org/2000/svg" xmlns:xlink="http://www.w3.org/1999/xlink" version="1.1" viewBox="0 0 256 256">
 <g >
 <path fill="currentColor"
d=" M 137.75 218.02 C 138.92 216.92 140.33 215.24 140.87 214.27 C 141.78 212.64 144.19 212.50 171.07 212.50 C 198.78 212.50 200.34 212.60 201.39 214.41 C 204.21 219.28 206.04 220.27 211.07 219.68 C 218.88 218.75 225.60 214.55 228.65 208.69 C 230.11 205.89 230.11 205.89 226.71 206.53 C 224.16 207.01 222.86 206.71 221.50 205.36 C 219.82 203.68 219.75 201.86 220.39 178.81 C 221.04 155.26 220.98 153.87 219.06 150.13 C 217.96 147.96 215.86 145.25 214.39 144.09 C 211.09 141.50 211.83 141.49 220.00 144.09 C 223.57 145.23 229.05 146.22 232.16 146.31 C 239.04 146.50 241.21 144.90 243.52 137.94 C 244.40 135.28 246.04 131.95 247.16 130.52 C 249.21 127.92 249.21 127.92 242.84 128.58 C 235.17 129.36 224.20 127.79 214.39 124.49 C 206.30 121.78 187.00 113.05 187.01 112.11 C 187.01 111.77 188.57 110.44 190.48 109.14 C 196.15 105.28 208.44 91.79 214.42 82.86 C 221.33 72.53 221.74 68.78 216.75 61.45 C 214.96 58.82 212.55 56.05 211.38 55.30 C 209.42 54.03 209.30 54.10 209.69 56.22 C 209.92 57.47 209.53 59.28 208.81 60.23 C 207.60 61.82 206.87 61.85 199.50 60.57 C 195.10 59.81 185.65 58.63 178.50 57.96 C 171.35 57.29 165.38 56.64 165.24 56.52 C 165.10 56.41 165.66 54.39 166.49 52.03 C 168.69 45.80 168.41 41.59 165.59 38.31 C 163.55 35.94 162.47 35.53 158.71 35.67 C 156.25 35.76 152.36 36.80 150.07 37.97 C 145.89 40.09 145.89 40.09 148.08 41.87 C 150.11 43.51 150.18 43.93 149.02 47.57 C 145.24 59.37 135.90 72.74 125.37 81.43 C 117.44 87.97 111.16 91.13 104.86 91.77 C 100.22 92.23 100.22 92.23 102.54 95.65 C 103.81 97.53 105.15 100.40 105.51 102.03 C 106.32 105.74 109.45 108.00 113.76 108.00 C 117.49 108.00 125.69 104.17 131.14 99.87 C 133.15 98.29 135.12 97.00 135.53 97.00 C 135.94 97.00 139.03 99.39 142.39 102.31 C 145.75 105.23 150.23 108.91 152.34 110.50 C 156.19 113.38 156.19 113.38 148.84 117.06 C 133.94 124.52 113.41 129.92 104.87 128.62 C 100.23 127.91 100.23 127.91 100.31 123.04 C 100.39 117.48 97.22 111.72 92.06 108.04 C 89.00 105.86 89.00 105.86 89.00 108.81 C 89.00 110.43 88.44 112.15 87.75 112.64 C 87.06 113.13 80.13 113.37 72.35 113.19 C 58.19 112.85 58.19 112.85 61.12 104.82 C 62.74 100.41 65.32 91.78 66.87 85.65 C 69.69 74.50 69.69 74.50 76.59 74.16 C 80.39 73.98 87.33 74.39 92.00 75.08 C 96.67 75.77 101.62 76.26 102.98 76.16 C 106.87 75.88 109.25 72.81 109.18 68.14 C 109.11 62.66 106.64 57.82 101.65 53.30 C 97.50 49.55 97.50 49.55 96.92 53.86 C 96.21 59.16 94.82 60.10 89.02 59.20 C 84.03 58.43 46.58 58.27 38.19 58.99 C 32.10 59.51 30.75 58.40 31.26 53.33 C 31.53 50.63 31.33 50.29 29.91 51.05 C 26.40 52.93 19.05 62.22 18.42 65.57 C 16.74 74.54 21.16 77.64 32.50 75.44 C 36.35 74.69 42.25 74.06 45.62 74.04 C 51.73 74.00 51.73 74.00 50.30 80.25 C 45.50 101.15 35.01 121.17 22.94 132.46 C 17.52 137.52 14.50 139.00 9.53 139.00 C 6.19 139.00 6.19 139.00 10.49 145.75 C 16.90 155.85 18.53 157.34 22.33 156.60 C 24.07 156.26 28.16 154.16 31.41 151.94 C 37.31 147.89 37.31 147.89 36.66 159.19 C 36.30 165.41 36.01 173.76 36.00 177.75 C 36.00 183.72 35.64 185.36 33.95 187.05 C 32.62 188.38 31.21 188.88 29.95 188.48 C 27.63 187.75 27.55 188.23 29.40 191.80 C 32.26 197.28 39.71 202.00 45.52 202.00 C 48.86 202.00 54.00 199.33 54.00 197.61 C 54.00 195.80 59.31 195.02 71.75 195.01 C 79.97 195.00 82.00 195.28 82.00 196.43 C 82.00 198.70 86.98 202.00 90.40 202.00 C 95.17 202.00 100.15 198.85 103.75 193.55 C 107.62 187.87 107.73 187.14 104.69 187.72 C 99.86 188.64 99.53 186.83 99.18 157.72 C 98.98 141.60 99.23 130.37 99.80 129.80 C 100.83 128.77 106.00 138.16 106.00 141.05 C 106.00 141.96 107.15 143.95 108.56 145.48 C 110.86 147.95 111.63 148.18 115.81 147.70 C 118.39 147.39 121.62 146.81 122.98 146.40 C 125.46 145.65 125.46 145.65 123.53 148.57 C 121.76 151.27 121.60 153.56 121.55 177.70 C 121.51 196.72 121.17 204.22 120.30 205.10 C 119.63 205.76 117.72 206.27 116.05 206.22 C 114.37 206.17 113.00 206.64 113.00 207.25 C 113.00 209.24 122.47 217.55 126.03 218.69 C 131.48 220.43 135.41 220.20 137.75 218.02 Z  M 141.00 180.06 C 141.00 167.60 141.33 162.91 142.25 162.31 C 144.02 161.18 174.08 160.65 188.72 161.49 C 201.00 162.20 201.00 162.20 201.00 179.60 C 201.00 197.00 201.00 197.00 171.00 197.00 C 141.00 197.00 141.00 197.00 141.00 180.06 Z  M 58.25 181.28 C 55.00 180.87 55.00 180.87 55.00 154.41 C 55.00 127.94 55.00 127.94 67.75 128.22 C 80.50 128.50 80.50 128.50 80.77 154.61 C 81.03 180.72 81.03 180.72 75.77 181.35 C 70.32 182.00 63.89 181.98 58.25 181.28 Z  M 136.23 146.83 C 133.72 144.32 135.27 142.94 146.75 137.49 C 153.21 134.42 161.56 130.07 165.29 127.82 C 172.08 123.72 172.08 123.72 185.79 130.21 C 193.33 133.78 200.95 137.27 202.72 137.96 C 206.32 139.36 207.40 141.56 206.42 145.47 C 205.76 148.11 205.76 148.11 193.63 147.30 C 178.34 146.29 163.73 146.28 148.98 147.28 C 140.33 147.86 137.15 147.75 136.23 146.83 Z  M 162.41 98.13 C 158.61 95.45 153.52 91.50 151.11 89.34 C 146.71 85.42 146.71 85.42 151.61 78.61 C 156.50 71.80 156.50 71.80 168.00 72.44 C 182.31 73.23 198.00 75.04 198.00 75.89 C 198.00 78.86 173.33 103.00 170.28 103.00 C 169.75 103.00 166.21 100.81 162.41 98.13 Z "/>
</g>
</svg>