<?xml version="1.0" encoding="UTF-8" standalone="no"?>
<!DOCTYPE svg PUBLIC "-//W3C//DTD SVG 1.1//EN" "http://www.w3.org/Graphics/SVG/1.1/DTD/svg11.dtd" >
<svg xmlns="http://www.w3.org/2000/svg" xmlns:xlink="http://www.w3.org/1999/xlink" version="1.1" viewBox="0 0 256 256">
 <g >
 <path fill="currentColor"
d=" M 154.33 217.64 C 160.05 215.25 166.37 205.67 170.44 193.25 C 171.39 190.36 172.49 188.00 172.88 188.00 C 173.28 188.00 175.16 189.62 177.05 191.60 C 189.03 204.10 215.00 216.00 230.30 216.00 C 239.30 216.00 239.98 215.32 243.42 202.91 C 244.27 199.83 245.90 196.12 247.05 194.66 C 249.57 191.46 249.51 191.45 243.46 194.12 C 239.23 195.99 237.37 196.18 227.59 195.74 C 220.74 195.43 214.21 194.51 210.50 193.33 C 204.50 191.42 204.50 191.42 204.22 175.55 C 203.95 159.69 203.95 159.69 215.78 160.33 C 225.54 160.85 227.99 160.69 229.80 159.42 C 234.06 156.44 231.95 147.80 225.61 142.23 C 223.59 140.46 221.61 139.00 221.22 139.00 C 220.82 139.00 220.45 140.40 220.39 142.11 C 220.25 145.84 218.51 147.14 215.27 145.91 C 213.95 145.41 210.87 145.00 208.43 145.00 C 204.00 145.00 204.00 145.00 204.00 131.47 C 204.00 115.85 203.62 116.40 213.58 117.47 C 220.12 118.17 220.12 118.17 219.44 121.34 C 218.45 125.91 216.21 130.04 212.69 133.75 C 209.61 137.00 209.61 137.00 213.55 136.99 C 218.78 136.98 226.90 133.10 230.39 128.95 C 233.66 125.07 238.01 115.70 237.98 112.63 C 237.94 108.95 234.46 102.61 230.62 99.24 C 228.59 97.46 226.59 96.00 226.17 96.00 C 225.74 96.00 225.40 97.57 225.40 99.50 C 225.40 104.34 223.98 105.54 219.93 104.12 C 218.15 103.51 215.04 103.00 213.02 103.00 C 210.99 103.00 209.05 102.72 208.71 102.38 C 208.37 102.04 209.94 99.03 212.20 95.70 C 218.07 87.06 229.00 63.74 229.00 59.85 C 229.00 55.06 225.43 48.57 221.16 45.61 C 219.09 44.18 217.15 43.00 216.86 43.00 C 216.57 43.00 216.37 44.85 216.41 47.10 C 216.50 51.20 216.50 51.20 194.69 51.17 C 171.26 51.14 169.34 50.76 170.45 46.32 C 171.14 43.59 170.84 43.52 166.99 45.51 C 160.31 48.96 156.38 61.44 160.52 66.02 C 162.64 68.36 161.66 68.36 177.50 66.08 C 186.29 64.81 208.69 64.69 209.44 65.91 C 210.15 67.05 199.94 87.44 196.64 91.49 C 194.21 94.48 194.21 94.48 192.11 91.99 C 187.92 87.03 183.70 77.24 184.35 73.99 C 184.93 71.09 184.86 71.01 182.73 72.18 C 181.50 72.85 178.06 73.91 175.07 74.52 C 172.08 75.13 169.20 76.32 168.68 77.15 C 166.02 81.36 171.52 91.38 180.03 97.83 C 182.49 99.70 184.63 101.56 184.78 101.96 C 184.94 102.36 180.70 102.98 175.37 103.33 C 164.35 104.05 162.48 103.35 163.39 98.81 C 164.10 95.23 163.33 95.28 158.71 99.09 C 154.06 102.92 151.94 106.90 151.73 112.17 C 151.49 118.16 154.61 120.43 162.00 119.65 C 182.67 117.46 187.42 117.08 187.93 117.59 C 188.75 118.41 189.28 171.67 188.51 176.78 C 187.87 181.05 187.87 181.05 181.63 175.57 C 175.39 170.09 175.39 170.09 176.12 163.30 C 176.52 159.56 177.16 150.88 177.53 144.00 C 178.22 131.50 178.22 131.50 175.64 129.10 C 173.09 126.74 173.00 126.73 168.70 128.37 C 166.30 129.29 163.10 131.33 161.58 132.92 C 158.88 135.74 158.86 135.82 160.91 136.47 C 162.82 137.08 163.00 137.88 163.00 145.94 C 163.00 156.85 160.91 169.13 156.96 181.48 C 152.91 194.11 149.49 198.51 140.14 203.15 C 133.67 206.35 133.06 206.88 135.09 207.53 C 136.36 207.93 139.67 210.39 142.45 212.99 C 146.69 216.96 148.57 218.30 150.78 218.92 C 150.94 218.96 152.53 218.39 154.33 217.64 Z  M 92.84 215.39 C 103.44 210.11 113.39 198.46 119.02 184.74 C 121.38 178.97 121.38 178.97 124.81 185.47 C 126.70 189.04 130.23 193.80 132.66 196.04 C 136.43 199.51 137.63 200.07 140.79 199.81 C 143.84 199.55 144.79 198.92 146.14 196.21 C 147.05 194.40 148.96 191.14 150.41 188.96 C 153.03 185.00 153.03 185.00 149.83 185.00 C 144.33 185.00 138.45 181.38 134.69 175.69 C 132.80 172.83 130.98 169.57 130.62 168.44 C 130.01 166.45 130.22 166.41 136.74 167.14 C 140.46 167.56 145.07 168.38 146.99 168.95 C 151.93 170.43 153.33 170.28 155.81 167.96 C 160.22 163.86 157.47 153.92 150.63 149.23 C 146.43 146.35 146.26 146.40 146.81 150.16 C 147.27 153.31 147.27 153.31 137.44 152.62 C 132.02 152.24 127.42 151.75 127.20 151.53 C 126.68 151.02 128.94 133.90 129.68 132.71 C 129.99 132.21 131.87 132.08 133.87 132.41 C 145.78 134.40 147.65 134.33 149.36 131.89 C 152.82 126.96 150.47 119.75 143.74 114.62 C 139.68 111.52 138.59 111.34 139.25 113.86 C 140.31 117.90 138.38 119.00 130.20 118.99 C 125.97 118.99 120.22 118.71 117.43 118.37 C 112.35 117.76 112.35 117.76 112.43 110.99 C 112.50 104.21 112.50 104.21 126.50 103.81 C 138.40 103.46 141.12 103.08 144.62 101.24 C 153.02 96.85 156.43 89.12 155.80 75.85 C 155.50 69.50 155.50 69.50 152.81 74.59 C 149.45 80.96 144.27 85.58 138.85 87.04 C 136.49 87.68 129.71 88.02 123.26 87.83 C 110.05 87.45 109.00 86.79 109.00 78.96 C 109.00 74.30 109.00 74.30 118.28 73.69 C 132.47 72.76 143.62 68.49 148.72 62.04 C 151.74 58.21 148.66 51.00 144.00 51.00 C 142.90 51.00 140.20 49.37 138.00 47.38 C 134.00 43.77 134.00 43.77 134.00 46.52 C 134.00 53.31 124.16 60.94 113.25 62.61 C 108.32 63.36 108.45 63.78 110.12 52.57 C 111.80 41.23 109.98 37.00 103.38 37.00 C 98.82 37.00 94.71 39.21 91.55 43.34 C 88.69 47.09 88.37 48.18 90.34 47.42 C 93.60 46.17 94.30 49.64 93.62 63.77 C 92.83 80.20 94.00 92.18 96.75 95.88 C 97.82 97.32 100.37 99.45 102.43 100.62 C 106.18 102.74 106.18 102.74 102.73 103.39 C 100.83 103.75 98.52 104.87 97.59 105.90 C 96.03 107.63 96.03 107.80 97.58 108.39 C 99.69 109.20 98.94 114.94 95.78 122.28 C 93.44 127.73 86.75 133.00 82.18 133.00 C 79.81 133.00 79.77 132.87 80.46 127.25 C 81.96 115.06 80.72 111.25 73.62 106.19 C 70.50 103.96 70.50 103.96 70.00 107.23 C 69.50 110.50 69.50 110.50 61.50 110.80 C 57.11 110.96 52.51 110.84 51.28 110.53 C 49.31 110.04 49.18 109.67 50.12 107.24 C 50.71 105.73 52.89 97.75 54.97 89.50 C 59.35 72.11 58.10 73.12 72.59 75.23 C 84.00 76.89 86.06 76.44 87.80 71.86 C 89.87 66.42 87.93 60.64 82.15 55.02 C 77.50 50.50 77.50 50.50 77.18 54.00 C 77.00 55.92 76.51 57.85 76.09 58.29 C 74.79 59.62 32.20 59.60 30.86 58.26 C 30.22 57.62 29.73 55.69 29.78 53.97 C 29.87 50.98 29.78 50.90 27.69 52.27 C 21.33 56.44 16.71 66.44 18.63 71.90 C 20.12 76.12 23.57 77.16 30.55 75.49 C 33.82 74.71 38.14 74.06 40.15 74.04 C 43.80 74.00 43.80 74.00 42.29 80.75 C 38.32 98.48 30.90 116.93 23.00 128.76 C 18.98 134.78 11.16 141.00 7.62 141.00 C 6.21 141.00 6.42 141.67 8.78 144.75 C 10.36 146.81 12.88 150.19 14.38 152.25 C 18.22 157.54 21.30 157.33 27.98 151.33 C 33.17 146.66 33.17 146.66 32.49 163.08 C 31.87 178.05 31.63 179.66 29.71 181.32 C 28.56 182.32 26.83 182.93 25.87 182.68 C 21.79 181.61 28.94 192.88 34.00 195.50 C 38.72 197.94 41.89 197.39 45.56 193.50 C 48.73 190.15 49.16 190.00 55.86 190.00 C 62.29 190.00 63.09 190.24 65.85 193.00 C 69.28 196.43 72.51 196.80 77.64 194.36 C 82.45 192.08 89.99 180.92 85.58 182.61 C 84.80 182.91 83.22 182.65 82.08 182.04 C 80.06 180.96 80.00 180.20 80.00 157.41 C 80.00 132.00 80.30 130.91 84.60 140.63 C 86.77 145.54 87.25 146.00 90.24 146.00 C 92.97 146.00 94.55 144.89 100.00 139.14 C 105.35 133.50 107.18 132.20 110.25 131.84 C 113.96 131.41 114.00 131.44 113.99 134.95 C 113.99 136.90 113.70 141.54 113.35 145.25 C 112.71 152.00 112.71 152.00 107.61 152.02 C 104.80 152.04 100.83 152.44 98.78 152.91 C 94.65 153.87 93.41 153.07 92.85 149.05 C 92.50 146.61 92.50 146.61 88.86 149.81 C 84.50 153.65 82.00 158.55 82.00 163.28 C 82.00 168.41 85.35 169.54 96.20 168.08 C 100.76 167.47 105.51 166.70 106.75 166.37 C 109.88 165.53 109.66 167.18 105.45 175.96 C 100.83 185.61 96.22 191.78 90.69 195.76 C 85.87 199.21 76.00 202.32 73.21 201.26 C 72.03 200.81 72.37 201.64 74.29 203.92 C 75.82 205.75 77.75 208.86 78.58 210.83 C 81.85 218.67 84.53 219.53 92.84 215.39 Z  M 48.00 150.50 C 48.00 125.00 48.00 125.00 56.50 125.00 C 65.00 125.00 65.00 125.00 65.00 150.50 C 65.00 176.00 65.00 176.00 56.50 176.00 C 48.00 176.00 48.00 176.00 48.00 150.50 Z "/>
</g>
</svg>