<?xml version="1.0" encoding="UTF-8" standalone="no"?>
<!DOCTYPE svg PUBLIC "-//W3C//DTD SVG 1.1//EN" "http://www.w3.org/Graphics/SVG/1.1/DTD/svg11.dtd" >
<svg xmlns="http://www.w3.org/2000/svg" xmlns:xlink="http://www.w3.org/1999/xlink" version="1.1" viewBox="0 0 256 256">
 <g >
 <path fill="currentColor"
d=" M 207.07 219.96 C 208.14 219.39 210.35 216.26 212.00 213.01 C 213.64 209.75 216.34 205.54 218.00 203.65 C 221.01 200.22 221.01 200.22 212.59 200.75 C 205.57 201.18 202.32 200.81 193.09 198.52 C 186.99 197.01 182.00 195.48 182.00 195.12 C 182.00 194.77 184.53 192.46 187.63 189.99 C 197.62 182.03 205.69 172.11 217.25 153.64 C 220.46 148.51 220.90 142.30 218.33 138.38 C 216.75 135.97 208.41 129.00 207.11 129.00 C 206.77 129.00 206.40 130.46 206.27 132.25 C 205.95 136.86 204.12 137.81 197.28 136.93 C 184.74 135.31 159.72 134.90 141.05 136.00 C 122.92 137.08 121.50 137.04 120.32 135.42 C 119.62 134.46 119.31 132.62 119.63 131.34 C 119.95 130.05 119.91 129.00 119.54 129.00 C 117.73 129.00 109.94 135.36 108.09 138.35 C 105.28 142.90 105.30 149.30 108.13 152.13 C 110.06 154.06 110.94 154.20 117.38 153.57 C 143.56 151.04 180.30 150.19 192.33 151.84 C 197.17 152.50 197.17 152.50 192.22 159.00 C 187.09 165.73 170.45 182.35 165.75 185.43 C 163.12 187.15 162.96 187.13 157.28 183.88 C 154.10 182.06 147.09 177.77 141.69 174.35 C 130.42 167.20 127.39 166.23 123.18 168.41 C 118.90 170.62 116.82 178.00 118.60 184.63 C 119.11 186.54 119.48 186.65 122.12 185.65 C 125.46 184.39 124.51 183.93 139.16 193.77 C 157.33 205.96 191.53 220.94 201.32 220.98 C 203.41 220.99 206.00 220.53 207.07 219.96 Z  M 42.81 175.00 C 45.45 172.00 45.45 172.00 58.75 172.00 C 71.81 172.00 72.07 172.04 72.95 174.36 C 74.00 177.12 75.85 178.00 80.63 178.00 C 86.37 178.00 91.75 174.16 96.32 166.79 C 98.57 163.15 98.44 162.20 95.75 162.70 C 94.51 162.93 92.71 162.53 91.73 161.81 C 90.10 160.60 89.99 158.24 90.23 131.50 C 90.50 102.50 90.50 102.50 94.30 110.00 C 96.40 114.12 98.85 118.06 99.75 118.75 C 104.29 122.22 115.69 118.30 128.13 108.98 C 137.42 102.03 152.41 86.04 159.86 75.14 C 163.36 70.02 166.55 66.20 166.94 66.66 C 167.33 67.12 169.85 70.65 172.54 74.50 C 187.05 95.29 219.08 120.97 230.53 120.99 C 235.97 121.00 238.64 118.87 241.61 112.16 C 242.98 109.04 245.20 105.36 246.53 103.97 C 248.95 101.44 248.95 101.44 241.72 101.44 C 235.73 101.44 233.37 100.90 227.82 98.30 C 214.48 92.05 201.07 81.56 189.38 68.23 C 177.72 54.93 174.55 49.75 174.88 44.49 C 175.28 37.94 172.57 35.65 165.08 36.19 C 161.45 36.45 158.02 37.44 155.64 38.91 C 152.08 41.11 151.98 41.32 153.58 43.09 C 157.64 47.58 150.27 61.58 136.06 76.33 C 121.25 91.72 106.94 100.74 95.75 101.76 C 89.90 102.29 89.90 102.29 90.12 86.89 C 90.37 69.74 89.80 67.54 83.79 62.46 C 80.50 59.69 80.50 59.69 80.18 63.09 C 80.00 64.97 79.47 66.89 79.01 67.37 C 78.54 67.85 69.49 68.24 58.89 68.23 C 41.28 68.22 39.52 68.06 38.27 66.36 C 37.52 65.34 37.16 63.49 37.47 62.25 C 38.20 59.36 37.63 59.42 33.37 62.66 C 26.52 67.89 26.68 66.69 26.56 115.35 C 26.46 159.21 26.46 159.21 24.04 161.17 C 22.71 162.25 20.80 162.92 19.81 162.66 C 17.27 162.00 17.53 163.08 21.25 168.61 C 25.59 175.07 30.11 178.00 35.74 178.00 C 39.42 178.00 40.63 177.49 42.81 175.00 Z  M 190.56 122.48 C 194.50 120.77 194.50 120.77 188.74 119.41 C 181.31 117.65 177.40 115.64 172.67 111.14 C 167.26 106.01 165.61 102.55 166.86 98.97 C 167.86 96.10 167.86 96.10 164.68 97.50 C 162.93 98.27 159.42 99.16 156.89 99.49 C 151.40 100.19 147.91 103.37 147.79 107.77 C 147.45 119.73 175.03 129.21 190.56 122.48 Z  M 47.74 156.28 C 44.98 155.86 44.98 155.86 45.24 119.68 C 45.50 83.50 45.50 83.50 58.50 83.50 C 71.50 83.50 71.50 83.50 71.76 119.62 C 72.02 155.73 72.02 155.73 68.26 156.36 C 64.25 157.02 52.32 156.98 47.74 156.28 Z "/>
</g>
</svg>