<?xml version="1.0" encoding="UTF-8" standalone="no"?>
<!DOCTYPE svg PUBLIC "-//W3C//DTD SVG 1.1//EN" "http://www.w3.org/Graphics/SVG/1.1/DTD/svg11.dtd" >
<svg xmlns="http://www.w3.org/2000/svg" xmlns:xlink="http://www.w3.org/1999/xlink" version="1.1" viewBox="0 0 256 256">
 <g >
 <path fill="currentColor"
d=" M 84.62 226.25 C 86.40 223.60 86.93 220.91 87.49 211.75 C 87.87 205.56 88.09 196.90 87.98 192.50 C 87.87 188.10 88.10 179.55 88.51 173.50 C 88.91 167.45 89.08 158.68 88.88 154.00 C 87.99 133.42 89.64 102.00 91.61 102.00 C 92.33 102.00 93.41 102.90 94.00 104.00 C 94.85 105.59 96.09 106.00 100.04 106.00 C 105.83 106.00 105.64 105.23 104.04 121.64 C 103.52 127.06 102.80 140.28 102.46 151.00 C 102.12 161.72 101.70 172.64 101.53 175.25 C 101.37 177.86 101.63 180.00 102.12 180.00 C 102.60 180.00 103.00 181.04 103.00 182.31 C 103.00 183.58 103.66 185.49 104.47 186.56 C 105.28 187.63 105.95 189.29 105.97 190.25 C 105.99 191.21 106.38 192.00 106.84 192.00 C 107.30 192.00 108.19 193.12 108.82 194.50 C 110.11 197.33 112.15 197.70 114.36 195.50 C 115.18 194.68 116.28 194.00 116.80 194.00 C 118.00 194.00 118.70 183.78 119.31 157.50 C 119.58 145.95 120.21 135.15 120.72 133.50 C 121.52 130.93 121.88 132.14 123.23 142.00 C 124.09 148.32 125.30 154.62 125.90 156.00 C 127.96 160.67 133.49 167.22 137.14 169.32 C 140.22 171.10 141.17 171.24 143.39 170.23 C 145.33 169.35 146.00 168.30 146.00 166.14 C 146.00 164.55 146.56 162.79 147.25 162.23 C 147.94 161.68 152.78 160.90 158.00 160.51 C 167.73 159.78 174.00 157.42 174.00 154.49 C 174.00 152.72 171.23 150.00 169.43 150.00 C 168.64 150.00 168.00 149.55 168.00 149.00 C 168.00 148.45 168.68 148.00 169.50 148.00 C 170.32 148.00 171.00 147.64 171.00 147.20 C 171.00 146.76 172.58 145.83 174.50 145.14 C 176.43 144.44 179.24 142.84 180.75 141.57 C 182.26 140.31 184.62 138.94 186.00 138.53 C 189.29 137.56 193.00 135.18 193.00 134.05 C 193.00 133.56 191.81 131.74 190.36 130.02 C 187.48 126.59 172.55 118.57 170.52 119.36 C 169.82 119.62 167.96 119.16 166.37 118.32 C 164.30 117.23 160.17 116.78 151.50 116.73 C 139.63 116.65 139.41 116.69 131.23 120.47 C 126.68 122.57 122.73 124.06 122.44 123.78 C 122.16 123.49 122.23 116.75 122.60 108.81 C 123.29 94.36 123.29 94.36 125.39 96.25 C 133.62 103.65 136.12 105.00 141.54 105.00 C 145.15 105.00 148.02 104.33 150.40 102.93 C 152.33 101.79 157.63 100.20 162.17 99.41 C 166.71 98.62 170.86 97.54 171.39 97.01 C 173.53 94.87 166.23 89.60 158.00 87.33 C 151.02 85.41 144.88 85.76 137.60 88.50 C 133.94 89.87 129.26 91.00 127.20 91.00 C 123.56 91.00 123.39 90.84 122.13 86.25 C 121.41 83.64 120.66 80.96 120.46 80.29 C 120.07 79.00 114.32 75.22 109.63 73.18 C 107.01 72.04 106.83 72.09 107.62 73.72 C 108.75 76.07 108.27 88.80 106.92 92.12 C 105.98 94.47 105.60 94.63 103.43 93.62 C 102.09 93.01 100.71 91.60 100.35 90.50 C 100.00 89.40 98.01 86.93 95.94 85.00 C 92.17 81.50 92.17 81.50 91.29 64.50 C 90.33 45.86 91.05 47.92 80.67 33.79 C 79.58 32.30 76.73 30.41 74.34 29.60 C 70.00 28.12 70.00 28.12 70.00 31.54 C 70.00 33.42 70.70 38.46 71.57 42.73 C 72.77 48.73 72.95 52.78 72.32 60.50 C 71.55 69.86 71.37 70.48 69.40 70.21 C 66.78 69.85 66.28 70.48 60.49 81.50 C 57.90 86.45 55.37 90.93 54.88 91.45 C 54.33 92.05 52.80 91.99 50.75 91.29 C 42.34 88.41 42.72 88.22 45.02 94.04 C 47.06 99.23 47.06 99.23 43.00 107.86 C 40.77 112.61 38.31 117.85 37.53 119.50 C 34.19 126.65 33.89 133.45 36.71 138.24 C 37.85 140.17 39.08 142.66 39.43 143.77 C 40.16 146.08 45.50 147.49 48.84 146.25 C 50.99 145.46 59.40 129.74 58.28 128.61 C 57.97 128.30 58.19 127.47 58.78 126.77 C 61.09 123.98 66.28 107.32 67.95 97.34 C 68.61 93.40 69.81 89.35 70.62 88.34 C 71.91 86.71 71.99 88.42 71.34 103.00 C 70.93 112.08 70.71 129.85 70.87 142.50 C 71.02 155.27 70.69 167.76 70.13 170.59 C 69.57 173.38 68.58 183.38 67.93 192.80 C 66.86 208.14 66.91 210.29 68.37 213.37 C 69.27 215.26 70.00 217.76 70.00 218.92 C 70.00 220.09 71.88 223.08 74.17 225.57 C 79.06 230.87 81.41 231.02 84.62 226.25 Z  M 198.57 223.55 C 205.57 219.91 211.00 212.20 211.00 205.87 C 211.00 204.28 211.92 201.03 213.03 198.65 C 215.89 192.57 216.81 185.46 216.52 171.54 C 216.12 152.09 214.94 132.73 213.97 129.50 C 213.47 127.85 213.10 124.25 213.15 121.50 C 213.25 116.38 213.11 114.69 210.53 90.50 C 207.83 65.22 208.20 66.39 200.90 59.81 C 197.38 56.63 193.80 54.03 192.95 54.02 C 192.10 54.01 190.92 53.52 190.34 52.94 C 187.90 50.50 174.71 48.76 163.50 49.39 C 143.32 50.53 132.86 52.08 124.91 55.11 C 120.74 56.70 116.85 58.00 116.25 58.00 C 114.15 58.00 115.69 61.11 119.95 65.45 C 125.06 70.66 128.22 71.74 131.69 69.47 C 135.82 66.76 143.73 64.89 150.29 65.06 C 153.71 65.15 157.62 64.78 159.00 64.24 C 162.50 62.85 177.22 61.67 180.89 62.48 C 184.54 63.28 185.47 65.88 187.02 79.50 C 189.26 99.20 190.21 105.77 191.75 112.00 C 192.76 116.09 193.45 123.88 193.60 133.00 C 193.74 140.97 194.12 150.88 194.45 155.00 C 195.16 163.80 193.59 185.03 192.04 187.67 C 191.45 188.68 190.36 191.30 189.62 193.50 C 188.58 196.61 187.75 197.52 185.89 197.61 C 181.52 197.81 181.00 197.99 181.00 199.35 C 181.00 200.08 181.92 201.52 183.04 202.53 C 184.15 203.54 184.87 204.91 184.62 205.56 C 184.36 206.21 185.23 208.94 186.55 211.62 C 187.86 214.31 188.95 217.03 188.97 217.67 C 189.00 218.68 194.59 225.00 195.46 225.00 C 195.63 225.00 197.03 224.35 198.57 223.55 Z  M 140.08 147.14 C 139.48 146.04 139.00 143.63 139.00 141.80 C 139.00 139.87 137.92 136.88 136.45 134.72 C 133.53 130.42 133.22 130.66 144.00 128.86 C 152.41 127.45 159.52 127.19 160.59 128.26 C 160.99 128.65 160.00 130.94 158.40 133.34 C 156.81 135.75 154.15 139.76 152.50 142.27 C 150.59 145.16 148.59 146.98 147.00 147.27 C 145.62 147.51 143.75 148.04 142.83 148.44 C 141.68 148.93 140.81 148.52 140.08 147.14 Z "/>
</g>
</svg>