<?xml version="1.0" encoding="UTF-8" standalone="no"?>
<!DOCTYPE svg PUBLIC "-//W3C//DTD SVG 1.1//EN" "http://www.w3.org/Graphics/SVG/1.1/DTD/svg11.dtd" >
<svg xmlns="http://www.w3.org/2000/svg" xmlns:xlink="http://www.w3.org/1999/xlink" version="1.1" viewBox="0 0 256 256">
 <g >
 <path fill="currentColor"
d=" M 239.13 242.75 C 239.21 242.06 239.35 240.05 239.45 238.28 C 239.55 236.52 240.45 234.16 241.45 233.05 C 242.90 231.45 243.03 230.74 242.07 229.59 C 240.77 228.02 226.77 218.66 209.02 207.50 C 202.90 203.65 196.00 199.04 193.70 197.25 C 191.39 195.47 187.10 192.39 184.16 190.41 C 178.96 186.92 178.87 186.78 180.91 185.35 C 182.06 184.55 183.00 183.40 183.00 182.80 C 183.00 182.20 184.35 180.43 186.00 178.85 C 187.65 177.27 189.00 175.30 189.00 174.46 C 189.00 173.62 189.62 172.70 190.38 172.41 C 191.13 172.12 191.76 170.90 191.77 169.69 C 191.79 168.49 192.74 165.33 193.90 162.67 C 195.05 160.01 196.00 157.29 196.00 156.63 C 196.00 155.96 193.97 153.43 191.50 151.00 C 189.03 148.57 187.00 146.97 187.00 147.45 C 187.00 147.92 186.10 147.50 185.00 146.50 C 183.85 145.46 183.00 145.18 183.00 145.85 C 183.00 146.72 182.51 146.71 181.06 145.80 C 179.48 144.82 178.77 144.89 177.31 146.16 C 176.00 147.30 172.36 147.90 164.23 148.34 C 158.02 148.68 152.09 149.42 151.04 149.98 C 149.99 150.54 147.07 151.00 144.54 151.00 C 140.56 151.00 139.82 151.33 139.00 153.50 C 138.42 155.03 137.26 156.00 136.02 156.00 C 133.69 156.00 133.40 154.74 135.36 153.12 C 136.10 152.50 137.97 150.00 139.51 147.58 C 142.60 142.68 146.71 141.00 155.61 141.00 C 158.49 141.00 165.22 139.36 172.91 136.79 C 184.52 132.91 186.34 132.58 196.24 132.54 C 208.04 132.50 209.06 131.96 206.54 127.07 C 205.19 124.46 205.23 124.20 207.22 123.32 C 209.26 122.40 209.21 122.26 205.73 119.61 C 202.79 117.37 200.74 116.75 194.70 116.29 C 189.69 115.92 187.06 116.10 186.58 116.87 C 186.20 117.49 184.74 118.00 183.36 118.00 C 181.97 118.00 177.94 118.67 174.41 119.50 C 170.89 120.33 165.11 121.67 161.59 122.50 C 158.06 123.32 154.98 124.00 154.75 124.00 C 154.52 124.00 154.54 121.59 154.78 118.64 C 155.11 114.69 154.78 112.59 153.53 110.68 C 151.35 107.36 151.92 106.56 157.59 104.98 C 161.34 103.92 163.78 103.91 170.36 104.92 C 184.31 107.05 185.00 107.20 185.00 108.11 C 185.00 109.50 188.63 109.15 189.88 107.65 C 190.49 106.91 191.26 104.32 191.59 101.90 C 192.12 97.92 191.85 97.15 188.84 93.81 C 185.19 89.76 181.59 88.03 176.68 87.94 C 173.50 87.89 173.50 87.89 176.43 85.69 C 183.88 80.10 197.44 66.86 198.65 63.98 C 200.53 59.52 199.35 53.46 195.82 49.45 C 192.22 45.35 181.25 41.18 180.34 43.56 C 180.03 44.37 180.34 45.71 181.03 46.54 C 182.10 47.82 181.06 49.33 174.40 56.24 C 164.99 66.00 160.77 69.76 161.56 67.69 C 161.88 66.87 161.66 65.91 161.07 65.54 C 160.48 65.18 159.99 63.45 159.98 61.69 C 159.96 57.36 158.50 55.72 152.22 53.01 C 149.54 51.86 138.00 51.99 138.00 53.17 C 138.00 54.97 150.32 69.97 152.34 70.63 C 153.53 71.02 155.78 71.25 157.35 71.15 C 160.20 70.95 160.20 70.95 158.35 73.33 C 157.33 74.64 153.68 79.49 150.22 84.10 C 143.63 92.91 142.45 93.82 137.36 93.93 C 133.97 94.01 133.00 92.71 133.00 88.12 C 133.00 86.62 132.53 84.93 131.96 84.36 C 131.38 83.78 130.48 79.17 129.96 74.11 C 128.86 63.51 127.68 60.75 122.06 55.67 C 118.51 52.47 117.39 52.01 113.25 52.12 C 110.64 52.18 109.29 52.44 110.25 52.69 C 111.21 52.94 112.00 53.76 112.00 54.50 C 112.00 55.25 113.01 56.00 114.25 56.18 C 116.43 56.49 116.50 56.84 116.50 68.00 C 116.50 78.02 116.78 79.95 118.65 83.00 C 119.84 84.92 121.10 87.93 121.47 89.68 C 121.83 91.43 122.77 93.40 123.56 94.05 C 125.67 95.80 125.32 97.56 122.49 99.42 C 119.27 101.52 119.98 105.12 124.39 109.06 C 126.79 111.20 128.25 111.75 130.75 111.43 C 134.24 110.98 134.68 111.79 132.89 115.32 C 130.54 119.91 124.62 128.00 123.58 128.02 C 119.10 128.12 97.58 130.07 95.63 130.56 C 93.19 131.17 93.19 131.17 93.03 108.33 C 92.81 77.20 92.58 73.26 90.64 67.50 C 88.05 59.82 87.25 58.67 82.32 55.55 C 77.41 52.44 71.92 51.85 63.16 53.48 C 57.57 54.52 56.82 56.53 60.85 59.68 C 62.58 61.04 64.00 62.56 64.00 63.06 C 64.00 63.56 65.54 65.44 67.43 67.24 C 70.87 70.50 70.87 70.50 71.96 86.50 C 72.56 95.30 73.26 103.77 73.52 105.33 C 73.84 107.29 73.60 108.03 72.74 107.75 C 72.06 107.53 71.36 105.46 71.19 103.16 C 70.68 96.23 64.88 94.38 50.30 96.49 C 45.11 97.24 45.11 97.24 45.29 88.73 C 45.47 80.21 45.47 80.21 41.12 73.79 C 38.14 69.39 35.62 66.87 33.13 65.79 C 31.13 64.92 29.33 64.37 29.12 64.56 C 28.91 64.76 30.21 67.22 32.01 70.02 C 35.28 75.11 35.28 75.11 33.03 82.30 C 31.05 88.65 30.70 92.66 30.03 116.37 C 29.43 137.31 29.55 144.19 30.57 147.55 C 31.57 150.88 31.59 152.09 30.68 152.85 C 28.74 154.46 24.27 155.25 23.57 154.12 C 23.17 153.47 22.17 153.83 20.93 155.07 C 19.83 156.17 19.18 157.48 19.48 157.97 C 19.78 158.46 19.54 159.17 18.94 159.54 C 18.23 159.98 18.60 161.01 20.02 162.52 C 21.50 164.10 21.98 165.49 21.53 166.92 C 21.06 168.38 21.37 169.20 22.53 169.65 C 23.70 170.10 24.04 171.06 23.68 172.89 C 23.30 174.86 23.78 175.95 25.67 177.36 C 28.99 179.83 32.89 178.99 39.26 174.41 C 42.00 172.44 45.99 170.21 48.12 169.46 C 53.69 167.49 65.08 160.64 68.00 157.50 C 71.50 153.73 75.94 151.54 77.30 152.90 C 78.31 153.91 78.41 156.57 77.98 171.76 C 77.77 179.24 80.54 188.13 82.95 187.75 C 83.80 187.61 85.92 185.39 87.65 182.81 C 90.96 177.89 91.52 174.08 92.35 150.50 C 92.49 146.65 92.69 143.05 92.80 142.50 C 93.12 140.93 115.97 140.75 116.57 142.31 C 117.02 143.50 109.89 155.37 103.02 164.85 C 101.29 167.25 99.47 170.26 98.98 171.55 C 98.49 172.85 96.84 175.84 95.31 178.20 C 92.35 182.78 76.03 215.31 76.46 215.77 C 77.28 216.66 79.89 214.40 82.50 210.55 C 84.15 208.11 86.40 205.87 87.50 205.57 C 88.60 205.27 91.27 202.53 93.44 199.48 C 99.06 191.59 116.97 173.66 118.57 174.32 C 118.81 174.42 121.37 170.90 124.25 166.50 C 129.53 158.46 133.49 155.54 132.83 160.18 C 132.63 161.54 131.68 162.63 130.50 162.85 C 127.58 163.38 126.00 164.96 126.00 167.32 C 126.00 169.72 134.35 177.94 140.03 181.14 C 143.10 182.86 144.05 184.14 144.96 187.76 C 145.58 190.23 145.96 192.34 145.80 192.46 C 145.63 192.58 143.46 194.05 140.97 195.74 C 138.47 197.42 135.55 199.99 134.47 201.44 C 133.38 202.89 130.15 205.40 127.29 207.03 C 122.94 209.49 121.63 209.81 119.42 208.97 C 116.85 207.99 116.78 208.06 117.23 211.11 C 117.59 213.54 117.28 214.38 115.92 214.73 C 113.58 215.34 112.78 217.58 114.42 218.93 C 115.70 219.99 122.71 218.21 125.41 216.14 C 126.01 215.68 127.34 215.01 128.36 214.64 C 129.76 214.14 130.08 214.36 129.64 215.49 C 129.21 216.63 130.24 216.40 133.80 214.60 C 138.39 212.28 143.55 210.61 149.26 209.61 C 150.78 209.35 153.20 208.20 154.65 207.06 C 156.09 205.93 157.60 205.00 158.01 205.00 C 159.58 205.00 174.72 215.50 182.41 221.93 C 191.72 229.72 200.67 236.00 202.46 236.00 C 203.14 236.00 204.49 236.89 205.47 237.97 C 206.81 239.45 207.70 239.70 209.06 238.97 C 210.05 238.44 212.59 238.01 214.68 238.02 C 218.65 238.04 235.41 242.08 236.63 243.30 C 237.73 244.40 238.99 244.12 239.13 242.75 Z  M 135.79 49.88 C 136.00 50.50 136.59 50.75 137.10 50.44 C 137.61 50.12 139.22 49.65 140.66 49.38 C 142.11 49.12 144.23 48.25 145.37 47.45 C 146.51 46.65 148.41 46.00 149.59 46.00 C 150.77 46.00 154.73 43.99 158.40 41.53 C 163.21 38.30 166.50 36.87 170.23 36.37 C 177.44 35.42 180.44 32.35 179.69 26.72 C 179.14 22.60 177.70 20.88 170.31 15.50 C 164.90 11.56 164.32 11.64 155.91 17.56 C 147.57 23.44 133.91 36.32 127.67 44.20 C 124.11 48.70 124.02 49.00 125.64 50.89 C 127.33 52.86 127.35 52.86 131.37 50.81 C 134.07 49.43 135.54 49.12 135.79 49.88 Z  M 158.93 172.42 C 158.22 171.56 155.80 169.93 153.57 168.80 C 151.33 167.68 149.30 166.57 149.06 166.35 C 148.20 165.57 153.55 162.51 156.00 162.39 C 158.44 162.28 163.74 160.61 167.25 158.86 C 169.90 157.53 169.45 159.51 165.48 166.61 C 161.39 173.91 160.69 174.54 158.93 172.42 Z  M 69.32 151.29 C 70.22 149.84 75.93 147.60 76.72 148.38 C 77.78 149.44 75.67 150.92 72.06 151.64 C 69.86 152.08 68.91 151.96 69.32 151.29 Z  M 44.34 137.75 C 44.83 132.66 45.18 125.46 45.11 121.75 C 44.97 115.00 44.97 115.00 47.95 115.00 C 49.59 115.00 53.48 114.04 56.61 112.87 C 62.48 110.68 71.57 110.17 73.34 111.94 C 74.52 113.12 76.13 139.18 75.09 140.28 C 74.68 140.70 73.03 141.22 71.42 141.44 C 69.82 141.65 63.47 142.99 57.32 144.41 C 51.17 145.83 45.53 147.00 44.79 147.00 C 43.68 147.00 43.60 145.31 44.34 137.75 Z  M 72.00 144.98 C 70.67 144.11 70.67 143.89 72.00 143.02 C 74.32 141.49 75.72 141.81 76.29 144.00 C 76.87 146.21 74.65 146.72 72.00 144.98 Z "/>
</g>
</svg>