<?xml version="1.0" encoding="UTF-8" standalone="no"?>
<!DOCTYPE svg PUBLIC "-//W3C//DTD SVG 1.1//EN" "http://www.w3.org/Graphics/SVG/1.1/DTD/svg11.dtd" >
<svg xmlns="http://www.w3.org/2000/svg" xmlns:xlink="http://www.w3.org/1999/xlink" version="1.1" viewBox="0 0 256 256">
 <g >
 <path fill="currentColor"
d=" M 219.99 241.52 C 220.73 239.57 220.46 238.33 218.73 235.72 C 214.51 229.36 197.42 216.52 194.62 217.59 C 193.85 217.89 191.66 216.76 189.76 215.09 C 186.77 212.47 185.88 212.17 183.25 212.93 C 181.14 213.53 177.30 213.23 170.85 211.94 C 165.71 210.91 155.95 209.76 149.17 209.38 C 137.25 208.71 136.87 208.62 137.54 206.59 C 137.93 205.44 138.34 203.17 138.47 201.55 C 138.69 198.59 138.69 198.59 154.82 196.34 C 163.69 195.11 171.86 193.61 172.98 193.01 C 175.18 191.83 175.57 190.47 174.00 189.50 C 173.45 189.16 173.00 187.99 173.00 186.91 C 173.00 185.71 171.62 184.12 169.50 182.87 C 167.50 181.69 166.00 180.01 166.00 178.95 C 166.00 177.59 164.99 176.91 162.25 176.41 C 160.19 176.04 157.28 175.12 155.80 174.37 C 152.34 172.62 149.46 172.64 142.34 174.50 C 139.17 175.33 135.84 176.00 134.93 176.00 C 133.41 176.00 124.32 164.35 125.17 163.49 C 126.28 162.38 151.25 159.68 152.45 160.54 C 153.18 161.07 155.36 162.76 157.30 164.31 C 159.25 165.85 163.01 167.93 165.67 168.93 C 168.33 169.94 171.29 171.08 172.25 171.49 C 173.49 172.00 174.00 171.75 174.00 170.61 C 174.00 169.72 174.42 169.00 174.94 169.00 C 175.46 169.00 176.18 166.98 176.55 164.51 C 177.33 159.33 177.65 159.78 160.60 141.92 C 150.28 131.10 146.88 128.45 144.49 129.36 C 143.75 129.65 142.57 129.18 141.86 128.33 C 140.71 126.94 141.46 126.84 149.04 127.38 C 153.69 127.71 159.93 128.26 162.90 128.60 C 168.29 129.21 168.29 129.21 167.63 125.89 C 167.26 124.07 165.73 121.29 164.23 119.72 C 160.42 115.74 153.05 111.00 150.66 111.00 C 149.56 111.00 148.89 110.78 149.16 110.50 C 149.56 110.10 166.02 109.06 174.23 108.90 C 176.98 108.85 177.22 107.35 175.13 103.28 C 171.65 96.54 167.07 93.02 160.93 92.39 C 152.70 91.54 152.17 91.18 155.83 88.96 C 157.60 87.88 159.83 87.00 160.79 87.00 C 161.75 87.00 164.19 85.88 166.21 84.50 C 168.24 83.12 170.39 82.00 171.00 82.00 C 171.60 82.00 173.39 81.33 174.97 80.52 C 179.19 78.33 196.10 77.71 199.88 79.59 C 201.85 80.57 204.15 80.84 206.91 80.40 C 210.82 79.77 211.00 79.59 211.00 76.12 C 210.99 74.13 210.03 70.92 208.86 69.00 C 205.77 63.92 194.24 53.21 190.34 51.81 C 188.50 51.14 187.00 50.22 187.00 49.76 C 187.00 49.29 186.43 49.04 185.74 49.20 C 185.05 49.36 181.56 48.14 177.99 46.50 C 171.50 43.50 171.50 43.50 148.83 43.50 C 126.17 43.50 126.17 43.50 125.02 39.67 C 123.61 34.97 111.19 21.66 104.10 17.25 C 99.15 14.17 99.15 14.17 98.47 18.20 C 97.91 21.47 98.20 22.78 100.01 25.22 C 102.59 28.71 102.64 29.69 100.84 40.90 C 99.49 49.30 99.49 49.30 93.19 51.02 C 79.24 54.84 76.78 57.31 81.67 62.59 C 84.18 65.29 89.39 65.80 94.90 63.89 C 97.57 62.95 98.41 63.06 100.03 64.52 C 101.58 65.93 102.25 66.04 103.44 65.05 C 104.25 64.38 105.36 64.11 105.92 64.45 C 106.47 64.79 107.72 64.66 108.71 64.16 C 110.30 63.35 118.36 61.55 132.00 58.97 C 140.42 57.38 170.84 58.50 172.82 60.48 C 173.14 60.80 168.25 66.24 161.95 72.55 C 151.21 83.33 150.44 83.90 149.59 81.77 C 142.42 63.91 142.79 64.57 139.73 64.33 C 138.31 64.22 135.79 63.43 134.13 62.57 C 132.46 61.70 129.95 61.00 128.55 61.00 C 125.14 61.00 125.18 63.81 128.67 69.07 C 130.78 72.26 131.47 74.80 132.00 81.30 C 132.72 90.15 134.96 95.77 139.40 99.92 C 140.83 101.26 142.00 103.02 142.00 103.85 C 142.00 104.67 142.74 106.17 143.65 107.17 C 145.23 108.91 145.13 109.00 141.49 109.00 C 139.40 109.00 131.10 110.57 123.06 112.49 C 108.09 116.06 94.34 117.95 83.22 117.98 C 76.13 118.00 74.97 119.11 76.98 123.95 C 78.19 126.86 83.57 131.09 87.76 132.42 C 88.99 132.82 90.00 133.75 90.00 134.50 C 90.00 138.38 87.19 141.53 76.79 149.30 C 70.57 153.95 63.60 159.80 61.30 162.29 C 57.29 166.64 57.14 167.03 57.60 172.07 C 57.86 174.95 58.31 177.69 58.60 178.15 C 59.61 179.80 62.54 178.97 63.51 176.75 C 65.09 173.16 76.76 170.39 84.06 171.87 C 91.49 173.38 97.07 173.29 100.60 171.62 C 107.24 168.45 108.33 168.67 112.31 174.01 C 115.94 178.87 115.97 178.97 113.75 179.48 C 103.07 181.96 95.62 183.00 88.49 183.00 C 83.89 183.00 79.89 183.36 79.62 183.81 C 78.32 185.90 81.55 193.71 85.17 197.25 C 87.28 199.31 89.34 201.03 89.75 201.06 C 99.77 201.82 106.52 202.23 110.75 202.35 C 115.03 202.47 116.00 202.82 116.00 204.25 C 116.00 205.21 115.59 206.00 115.10 206.00 C 114.60 206.00 113.74 207.31 113.18 208.91 C 112.23 211.64 111.74 211.86 105.33 212.47 C 89.87 213.94 74.77 216.27 62.55 219.05 C 55.43 220.67 48.15 222.00 46.37 222.00 C 43.46 222.00 39.99 224.08 40.00 225.82 C 40.01 226.19 40.86 227.90 41.90 229.60 C 44.52 233.89 50.01 237.05 55.19 237.24 C 64.02 237.56 93.46 235.77 95.93 234.76 C 97.35 234.19 100.75 233.57 103.50 233.40 C 106.25 233.23 116.15 232.59 125.50 231.97 C 144.13 230.74 160.92 230.50 171.00 231.30 C 179.06 231.95 193.98 236.32 199.84 239.75 C 203.69 242.01 206.49 242.65 217.77 243.86 C 218.48 243.94 219.47 242.88 219.99 241.52 Z  M 86.85 110.20 C 96.25 109.38 95.60 109.87 105.13 96.50 C 109.42 90.49 110.05 89.01 109.59 86.04 C 108.49 78.86 101.86 72.49 91.23 68.37 C 86.20 66.42 85.11 67.00 87.36 70.43 C 90.36 75.00 88.90 79.00 84.22 79.00 C 82.21 79.00 81.89 79.43 82.15 81.86 C 82.46 84.83 78.93 90.43 74.13 94.56 C 71.54 96.79 70.15 104.49 71.42 109.55 C 72.02 111.93 72.43 112.15 75.30 111.57 C 77.06 111.22 82.26 110.60 86.85 110.20 Z  M 65.50 103.22 C 66.60 102.27 69.25 97.75 71.38 93.17 C 74.94 85.55 75.22 84.34 74.66 79.00 C 73.21 65.10 67.61 57.71 53.58 51.17 C 48.68 48.88 44.42 47.25 44.12 47.54 C 43.09 48.58 48.53 57.10 53.11 61.61 C 57.74 66.17 57.74 66.17 55.87 72.18 C 52.92 81.66 52.57 87.62 54.49 95.50 C 55.43 99.35 56.92 103.06 57.79 103.75 C 59.99 105.48 63.12 105.26 65.50 103.22 Z  M 103.00 149.58 C 103.00 147.88 104.63 145.76 108.43 142.52 C 113.46 138.22 113.81 137.63 113.30 134.44 C 112.74 131.00 112.74 131.00 117.22 131.00 C 119.69 131.00 124.42 130.72 127.75 130.37 C 133.78 129.74 133.78 129.74 134.52 133.12 C 134.92 134.98 136.55 138.14 138.13 140.14 C 139.71 142.15 141.00 144.27 141.00 144.85 C 141.00 146.16 137.22 146.76 125.00 147.38 C 119.12 147.68 113.25 148.66 109.59 149.93 C 106.34 151.07 103.53 152.00 103.34 152.00 C 103.15 152.00 103.00 150.91 103.00 149.58 Z "/>
</g>
</svg>