<?xml version="1.0" encoding="UTF-8" standalone="no"?>
<!DOCTYPE svg PUBLIC "-//W3C//DTD SVG 1.1//EN" "http://www.w3.org/Graphics/SVG/1.1/DTD/svg11.dtd" >
<svg xmlns="http://www.w3.org/2000/svg" xmlns:xlink="http://www.w3.org/1999/xlink" version="1.1" viewBox="0 0 256 256">
 <g >
 <path fill="currentColor"
d=" M 194.10 209.85 C 197.01 208.98 197.87 208.23 197.71 206.72 C 197.56 205.28 198.41 204.42 200.80 203.59 C 205.05 202.13 205.97 200.57 205.98 194.72 C 206.01 187.80 202.35 181.43 192.74 171.62 C 180.48 159.11 176.40 153.93 172.01 145.30 C 167.03 135.48 161.68 129.56 156.52 128.13 C 154.37 127.54 152.40 127.27 152.14 127.53 C 151.87 127.79 151.77 133.07 151.90 139.25 C 152.09 148.45 152.57 151.59 154.54 156.48 C 155.87 159.76 156.62 162.73 156.22 163.08 C 155.52 163.69 138.52 166.82 120.77 169.61 C 115.96 170.37 108.88 171.86 105.03 172.92 C 96.99 175.15 95.97 174.57 98.47 169.16 C 100.16 165.51 109.07 157.33 113.28 155.57 C 114.50 155.06 117.39 153.83 119.70 152.82 C 122.00 151.82 124.32 151.00 124.85 151.00 C 126.91 151.00 134.66 142.20 137.77 136.33 C 140.68 130.83 141.94 129.60 149.26 125.08 C 154.61 121.78 158.60 120.00 160.65 120.00 C 163.18 120.00 164.72 119.00 168.31 115.00 C 170.78 112.25 173.48 110.00 174.30 110.00 C 176.54 110.00 177.19 107.11 175.50 104.70 C 174.67 103.52 174.00 101.74 174.00 100.75 C 174.00 99.19 171.28 94.57 165.48 86.25 C 163.32 83.16 158.65 83.30 154.64 86.57 C 146.28 93.41 115.30 124.80 104.28 137.60 C 94.27 149.21 81.83 168.31 78.80 176.69 C 77.72 179.65 77.10 179.99 70.07 181.48 C 57.41 184.17 51.54 186.30 51.16 188.34 C 50.73 190.65 59.24 198.80 62.91 199.62 C 64.34 199.93 67.08 200.91 69.00 201.80 C 73.80 204.01 91.43 204.44 95.25 202.44 C 96.76 201.65 99.24 200.37 100.75 199.60 C 102.26 198.82 106.60 197.95 110.39 197.65 C 114.19 197.35 120.04 196.01 123.39 194.68 C 132.38 191.11 136.27 190.00 139.77 190.00 C 144.41 190.00 153.28 187.96 155.00 186.50 C 155.82 185.80 157.96 184.91 159.74 184.53 C 161.52 184.16 163.23 183.43 163.54 182.93 C 163.86 182.42 165.03 181.52 166.15 180.92 C 167.96 179.95 168.11 180.07 167.53 181.92 C 167.13 183.18 167.66 185.70 168.86 188.25 C 169.96 190.59 171.10 193.64 171.39 195.03 C 171.69 196.42 173.52 199.41 175.46 201.69 C 177.41 203.96 179.00 206.20 179.01 206.66 C 179.01 207.39 186.92 210.62 189.38 210.90 C 189.87 210.95 191.99 210.48 194.10 209.85 Z  M 58.50 123.85 C 62.32 122.13 74.84 113.93 82.03 108.44 C 85.08 106.12 90.59 102.84 94.30 101.17 C 98.00 99.49 102.93 96.57 105.26 94.69 C 107.59 92.80 111.49 90.02 113.92 88.51 C 116.36 87.00 120.41 83.84 122.92 81.50 C 125.44 79.16 128.93 76.93 130.68 76.56 C 134.34 75.77 135.46 74.62 136.40 70.69 C 137.12 67.65 143.31 64.06 147.89 64.02 C 150.13 64.00 150.24 63.73 149.67 59.62 C 149.34 57.22 147.63 52.83 145.86 49.87 C 144.09 46.92 142.05 43.51 141.33 42.30 C 140.61 41.09 138.40 39.65 136.43 39.11 C 133.04 38.17 132.66 38.32 129.73 41.65 C 128.02 43.60 125.54 45.60 124.22 46.11 C 122.89 46.61 121.60 47.81 121.35 48.77 C 121.10 49.73 115.89 55.02 109.78 60.51 C 86.64 81.31 59.42 110.63 53.36 121.28 C 50.22 126.80 50.22 126.80 52.86 126.00 C 54.31 125.56 56.85 124.59 58.50 123.85 Z "/>
</g>
</svg>