<?xml version="1.0" encoding="UTF-8" standalone="no"?>
<!DOCTYPE svg PUBLIC "-//W3C//DTD SVG 1.1//EN" "http://www.w3.org/Graphics/SVG/1.1/DTD/svg11.dtd" >
<svg xmlns="http://www.w3.org/2000/svg" xmlns:xlink="http://www.w3.org/1999/xlink" version="1.1" viewBox="0 0 256 256">
 <g >
 <path fill="currentColor"
d=" M 236.08 243.08 C 239.86 239.30 239.93 234.37 236.46 217.13 C 228.24 176.25 221.28 163.83 211.37 172.36 C 208.63 174.72 208.63 174.72 211.20 185.11 C 212.62 190.82 215.01 199.71 216.52 204.86 C 218.67 212.23 218.98 214.39 217.97 215.02 C 215.73 216.40 178.22 221.56 177.28 220.61 C 177.01 220.35 179.24 216.16 182.22 211.32 C 185.20 206.47 189.59 198.90 191.98 194.50 C 194.36 190.10 199.57 180.88 203.55 174.00 C 218.26 148.62 232.69 116.76 233.72 107.43 C 234.13 103.77 233.82 103.05 230.64 100.26 C 224.51 94.87 219.63 97.95 215.42 109.87 C 213.93 114.07 210.46 122.34 207.70 128.25 C 203.06 138.21 202.43 139.07 199.10 140.03 C 193.96 141.50 179.06 143.39 178.32 142.66 C 177.99 142.32 180.42 137.87 183.73 132.77 C 192.05 119.96 201.20 101.52 208.55 82.75 C 212.37 73.00 212.37 73.00 223.93 72.99 C 230.29 72.99 237.12 72.54 239.09 71.99 C 244.90 70.38 246.84 63.61 242.93 58.63 C 240.85 56.00 240.85 56.00 220.93 56.00 C 209.97 56.00 201.00 55.61 201.00 55.13 C 201.00 54.66 201.96 53.05 203.12 51.57 C 204.29 50.08 208.79 43.18 213.12 36.24 C 221.69 22.51 222.56 19.25 218.93 14.63 C 217.32 12.59 215.98 12.00 212.95 12.00 C 209.45 12.00 208.63 12.53 205.04 17.06 C 202.84 19.85 198.49 26.71 195.36 32.31 C 192.24 37.92 187.73 45.55 185.35 49.28 C 181.00 56.06 181.00 56.06 167.25 55.78 C 158.81 55.61 153.55 55.11 153.64 54.50 C 153.72 53.95 154.07 52.13 154.42 50.46 C 155.08 47.35 152.98 43.92 137.74 23.19 C 129.89 12.50 121.24 10.93 118.57 19.70 C 117.74 22.42 119.66 26.27 126.46 35.50 C 132.86 44.20 140.00 54.71 140.00 55.45 C 140.00 55.75 131.48 56.00 121.07 56.00 C 102.15 56.00 102.15 56.00 100.07 58.63 C 97.34 62.11 97.30 68.30 100.00 71.00 C 101.75 72.75 103.33 73.00 112.50 73.00 C 118.27 73.00 123.00 73.32 123.00 73.70 C 123.00 76.06 116.29 97.55 113.90 102.84 C 109.83 111.87 101.53 125.10 97.46 129.04 C 94.00 132.39 94.00 132.39 94.00 91.27 C 94.00 50.15 94.00 50.15 91.41 47.08 C 88.55 43.67 84.70 43.03 81.44 45.42 C 79.56 46.80 79.49 49.09 79.00 125.37 C 78.63 184.22 78.20 204.20 77.31 205.09 C 76.65 205.75 73.84 206.50 71.06 206.77 C 66.00 207.25 66.00 207.25 65.98 112.88 C 65.98 60.97 65.64 18.00 65.23 17.40 C 62.79 13.73 55.08 12.92 52.00 16.00 C 50.03 17.97 50.00 19.33 50.00 113.41 C 50.00 208.82 50.00 208.82 46.04 209.49 C 43.87 209.86 41.12 209.86 39.95 209.48 C 35.02 207.92 35.00 207.51 35.00 126.17 C 35.00 50.90 34.98 50.25 32.93 47.63 C 29.99 43.89 24.00 43.91 21.05 47.67 C 18.94 50.34 18.94 50.34 19.22 132.92 C 19.54 227.13 19.00 221.29 27.65 224.63 C 31.89 226.26 35.41 226.50 55.50 226.49 C 70.84 226.48 79.83 226.07 82.50 225.25 C 86.42 224.04 86.56 224.09 89.70 227.51 C 93.44 231.59 94.88 231.74 109.00 229.46 C 116.95 228.18 143.52 221.87 147.75 220.26 C 149.52 219.59 149.31 225.01 147.47 227.44 C 143.62 232.52 146.97 240.24 153.60 241.57 C 159.39 242.73 203.83 236.55 215.24 233.00 C 222.26 230.82 222.56 230.99 223.59 237.77 C 224.28 242.34 227.67 246.00 231.21 246.00 C 232.28 246.00 234.47 244.68 236.08 243.08 Z  M 112.00 210.65 C 112.00 210.45 116.31 203.36 121.57 194.89 C 132.62 177.12 154.55 133.25 161.49 115.00 C 167.42 99.43 167.88 94.02 163.59 90.32 C 161.33 88.38 159.99 87.95 157.65 88.42 C 153.45 89.26 151.49 91.33 149.18 97.33 C 148.09 100.17 144.84 108.66 141.97 116.20 C 136.08 131.64 137.56 130.40 123.74 131.57 C 115.99 132.24 115.99 132.24 124.43 115.87 C 129.08 106.87 134.25 95.77 135.93 91.21 C 143.31 71.15 140.04 73.00 168.12 73.00 C 181.81 73.00 193.00 73.15 193.00 73.32 C 193.00 76.05 186.14 91.83 178.89 105.78 C 167.80 127.12 162.87 134.99 155.58 142.91 C 147.96 151.20 146.95 156.40 152.20 160.31 C 154.89 162.31 154.93 162.31 174.35 160.39 C 193.81 158.46 193.81 158.46 192.51 160.98 C 189.78 166.24 164.78 209.54 163.98 210.38 C 163.52 210.86 162.63 209.28 162.01 206.88 C 161.38 204.47 159.14 197.10 157.03 190.50 C 154.93 183.90 152.89 177.02 152.51 175.21 C 151.02 168.11 142.78 165.41 138.03 170.47 C 135.21 173.47 135.50 177.83 139.43 191.36 C 142.69 202.59 142.67 203.79 139.25 205.10 C 133.69 207.22 112.00 211.64 112.00 210.65 Z  M 94.00 177.42 C 94.00 147.50 94.00 147.50 110.50 147.50 C 119.58 147.50 127.00 147.65 127.00 147.83 C 127.00 148.01 123.64 155.14 119.53 163.68 C 113.89 175.37 98.10 202.49 94.35 206.92 C 94.16 207.15 94.00 193.87 94.00 177.42 Z "/>
</g>
</svg>