<?xml version="1.0" encoding="UTF-8" standalone="no"?>
<!DOCTYPE svg PUBLIC "-//W3C//DTD SVG 1.1//EN" "http://www.w3.org/Graphics/SVG/1.1/DTD/svg11.dtd" >
<svg xmlns="http://www.w3.org/2000/svg" xmlns:xlink="http://www.w3.org/1999/xlink" version="1.1" viewBox="0 0 256 256">
 <g >
 <path fill="currentColor"
d=" M 219.64 246.91 C 225.19 244.16 228.38 239.93 230.56 232.46 C 231.84 228.05 232.02 218.09 231.78 165.39 C 231.50 103.50 231.50 103.50 229.11 99.00 C 225.04 91.36 222.02 88.16 216.15 85.27 C 210.55 82.52 210.31 82.50 187.25 82.14 C 164.00 81.79 164.00 81.79 164.00 48.04 C 164.00 14.29 164.00 14.29 161.55 11.65 C 158.25 8.09 152.30 7.98 148.31 11.41 C 145.50 13.82 145.50 13.82 145.20 47.82 C 144.90 81.81 144.90 81.81 122.70 82.24 C 97.88 82.73 94.33 83.46 87.18 89.58 C 84.46 91.91 82.45 94.86 81.06 98.56 C 79.05 103.93 79.00 105.85 79.00 170.90 C 79.00 237.00 79.02 237.76 81.07 240.37 C 82.28 241.90 84.14 243.00 85.54 243.00 C 89.21 243.00 94.68 240.00 95.90 237.31 C 96.66 235.65 97.00 215.57 97.00 172.20 C 97.01 111.82 97.08 109.38 98.96 106.30 C 100.36 104.01 101.97 102.88 104.70 102.30 C 106.79 101.86 130.35 101.50 157.04 101.50 C 211.56 101.50 209.87 101.28 211.94 108.74 C 212.61 111.14 212.99 132.60 212.99 168.23 C 213.00 223.97 213.00 223.97 210.13 227.18 C 207.55 230.06 206.59 230.43 200.59 230.81 C 196.47 231.08 190.73 230.57 185.57 229.49 C 172.84 226.81 167.00 228.91 167.00 236.15 C 167.00 244.97 180.70 250.15 202.64 249.61 C 213.10 249.36 215.46 248.98 219.64 246.91 Z  M 49.44 244.00 C 51.48 241.97 51.51 241.08 52.00 159.22 C 52.50 76.50 52.50 76.50 59.13 63.50 C 70.53 41.14 75.97 26.77 75.99 18.97 C 76.00 12.93 73.87 10.00 69.48 10.00 C 63.82 10.00 60.11 14.75 54.53 29.11 C 49.23 42.77 35.98 69.68 30.71 77.50 C 28.86 80.25 23.44 87.90 18.67 94.50 C 13.90 101.10 9.03 108.46 7.86 110.85 C 5.86 114.92 5.82 115.41 7.29 118.47 C 11.33 126.95 22.60 122.76 31.36 109.52 C 34.00 105.54 34.00 105.54 34.00 173.34 C 34.00 241.15 34.00 241.15 37.05 244.20 C 39.67 246.82 40.60 247.16 43.74 246.66 C 45.74 246.33 48.31 245.14 49.44 244.00 Z  M 179.48 202.41 C 182.59 200.78 184.34 198.70 187.48 192.91 C 191.50 185.50 191.50 185.50 191.50 161.50 C 191.50 137.50 191.50 137.50 188.13 131.28 C 185.38 126.22 183.89 124.64 180.13 122.79 C 175.91 120.73 173.80 120.49 156.41 120.16 C 134.11 119.73 128.12 120.63 122.56 125.21 C 115.49 131.04 115.04 133.20 115.04 161.50 C 115.04 184.53 115.20 186.86 117.08 191.00 C 120.25 197.98 124.49 201.71 131.99 204.10 C 133.37 204.54 143.72 204.81 155.00 204.70 C 173.62 204.52 175.86 204.31 179.48 202.41 Z  M 125.57 71.92 C 128.17 69.05 127.94 63.53 124.96 57.54 C 122.09 51.76 105.90 34.45 99.24 30.04 C 90.08 23.97 82.59 27.52 85.94 36.35 C 87.32 39.97 104.11 62.00 110.42 68.46 C 115.17 73.32 116.31 74.00 119.76 74.00 C 122.47 74.00 124.27 73.35 125.57 71.92 Z  M 196.34 72.63 C 201.04 70.67 205.56 64.92 213.45 50.86 C 218.94 41.10 220.46 37.46 220.80 33.34 C 221.18 28.79 220.92 27.83 218.67 25.58 C 216.08 22.99 215.04 22.96 210.17 25.30 C 208.88 25.92 205.06 30.94 201.67 36.45 C 198.29 41.96 192.72 50.37 189.30 55.12 C 182.11 65.14 181.09 67.97 183.41 71.51 C 184.70 73.48 185.89 74.00 189.06 74.00 C 191.26 74.00 194.54 73.38 196.34 72.63 Z  M 136.32 186.99 C 132.03 185.27 131.50 182.64 131.50 163.00 C 131.50 152.82 131.84 143.28 132.26 141.79 C 133.40 137.70 138.01 136.78 155.34 137.17 C 175.18 137.61 174.00 136.09 174.00 161.16 C 174.00 181.85 173.28 185.18 168.39 187.04 C 165.26 188.23 139.29 188.19 136.32 186.99 Z "/>
</g>
</svg>