<?xml version="1.0" encoding="UTF-8" standalone="no"?>
<!DOCTYPE svg PUBLIC "-//W3C//DTD SVG 1.1//EN" "http://www.w3.org/Graphics/SVG/1.1/DTD/svg11.dtd" >
<svg xmlns="http://www.w3.org/2000/svg" xmlns:xlink="http://www.w3.org/1999/xlink" version="1.1" viewBox="0 0 256 256">
 <g >
 <path fill="currentColor"
d=" M 225.15 245.35 C 228.71 241.94 234.16 232.29 236.36 225.50 C 237.83 220.93 242.45 194.15 243.72 182.77 C 244.21 178.39 244.00 177.80 240.72 174.52 C 236.91 170.71 233.75 170.09 230.34 172.48 C 227.95 174.15 226.34 180.03 222.53 200.87 C 220.99 209.31 219.45 214.95 218.36 216.16 C 216.70 217.99 216.56 218.00 214.95 216.29 C 213.34 214.58 208.65 198.37 204.90 181.57 C 202.84 172.37 202.02 174.68 214.04 155.84 C 224.53 139.39 236.00 116.64 236.00 112.29 C 236.00 110.03 235.14 108.45 232.84 106.52 C 226.34 101.05 222.58 104.51 208.33 129.05 C 202.95 138.31 198.46 145.80 198.36 145.69 C 197.21 144.51 192.78 111.81 191.57 95.50 C 190.71 83.95 189.80 72.37 189.55 69.76 C 188.98 63.84 187.84 64.14 212.55 63.78 C 228.79 63.54 231.99 63.24 234.30 61.73 C 237.21 59.82 237.82 56.29 236.05 51.63 C 234.30 47.04 231.93 46.53 209.50 46.00 C 188.50 45.50 188.50 45.50 187.76 37.50 C 186.18 20.51 185.14 14.67 183.23 12.09 C 179.41 6.96 172.50 6.78 169.26 11.72 C 167.28 14.74 166.88 25.98 168.31 38.71 C 169.11 45.91 169.11 45.91 129.31 46.21 C 91.59 46.48 89.32 46.60 86.10 48.50 C 81.79 51.04 79.14 54.60 77.85 59.58 C 77.29 61.73 76.47 83.75 76.03 108.50 C 75.28 151.00 75.09 154.19 72.69 166.00 C 68.38 187.21 67.08 191.96 60.94 208.84 C 54.55 226.43 53.85 230.85 56.97 233.97 C 61.54 238.54 67.87 237.75 71.39 232.18 C 76.77 223.65 87.92 191.75 89.97 179.00 C 92.62 162.58 94.18 138.01 94.68 105.00 C 95.10 76.70 95.50 69.04 96.64 67.24 C 98.06 64.97 98.06 64.97 133.76 65.24 C 169.46 65.50 169.46 65.50 172.71 100.00 C 174.49 118.97 177.15 141.25 178.62 149.50 C 180.08 157.75 181.48 165.65 181.72 167.05 C 182.07 169.04 180.76 171.33 175.73 177.55 C 163.24 192.99 151.48 203.11 125.50 220.77 C 113.94 228.62 111.91 236.01 120.12 240.43 C 123.70 242.35 123.71 242.35 129.92 240.03 C 141.30 235.78 155.98 225.01 172.66 208.71 C 181.11 200.45 188.20 193.88 188.41 194.10 C 188.62 194.32 190.93 202.15 193.54 211.50 C 198.30 228.57 202.20 238.44 206.19 243.51 C 210.96 249.58 219.84 250.44 225.15 245.35 Z  M 28.52 235.85 C 33.57 231.42 39.51 218.42 47.88 193.50 C 55.40 171.12 58.84 157.84 61.46 141.10 C 63.73 126.63 62.51 122.31 55.52 120.01 C 53.35 119.29 51.44 119.26 49.69 119.93 C 45.18 121.64 44.61 123.41 37.98 156.24 C 34.75 172.28 32.42 179.57 23.16 202.67 C 13.70 226.26 12.66 229.76 14.08 233.19 C 15.38 236.34 19.21 238.90 22.72 238.96 C 23.93 238.98 26.55 237.58 28.52 235.85 Z  M 151.75 188.67 C 156.35 187.00 160.77 182.50 162.05 178.18 C 162.76 175.80 163.03 165.59 162.82 149.32 C 162.38 114.61 163.14 115.50 133.96 115.50 C 112.80 115.50 111.29 115.95 107.94 123.33 C 106.25 127.04 106.04 130.10 106.02 151.07 C 106.00 169.79 106.32 175.58 107.55 179.20 C 109.31 184.36 112.41 187.71 116.62 188.97 C 120.99 190.27 147.96 190.04 151.75 188.67 Z  M 47.04 112.17 C 50.43 109.42 50.77 101.58 47.99 90.43 C 44.74 77.45 34.65 47.27 30.67 38.66 C 26.25 29.09 24.15 27.00 18.95 27.00 C 13.95 27.00 10.00 30.45 10.00 34.82 C 10.00 38.35 15.19 56.14 18.55 64.12 C 19.88 67.29 23.04 77.45 25.57 86.69 C 30.11 103.27 33.38 110.96 36.77 112.93 C 39.52 114.54 44.58 114.16 47.04 112.17 Z  M 164.55 96.55 C 168.04 93.05 167.86 88.00 164.08 83.77 C 161.17 80.50 161.17 80.50 136.73 80.17 C 121.67 79.97 110.78 80.25 108.37 80.90 C 101.52 82.75 98.55 91.76 103.17 96.69 C 105.35 99.00 105.36 99.00 133.72 99.00 C 162.09 99.00 162.09 99.00 164.55 96.55 Z  M 226.67 41.42 C 230.38 37.71 229.46 32.62 223.49 23.88 C 216.29 13.34 210.59 9.00 203.96 9.00 C 197.11 9.00 196.15 18.43 202.34 24.92 C 204.22 26.89 207.42 30.75 209.45 33.50 C 214.21 39.96 218.91 43.94 221.80 43.97 C 223.06 43.99 225.25 42.84 226.67 41.42 Z  M 125.25 171.34 C 123.73 170.73 123.47 137.38 124.97 135.02 C 126.17 133.12 139.81 132.29 142.87 133.93 C 144.92 135.03 145.00 135.75 145.00 152.34 C 145.00 164.43 144.64 169.96 143.80 170.80 C 142.62 171.98 127.91 172.41 125.25 171.34 Z "/>
</g>
</svg>