<?xml version="1.0" encoding="UTF-8" standalone="no"?>
<!DOCTYPE svg PUBLIC "-//W3C//DTD SVG 1.1//EN" "http://www.w3.org/Graphics/SVG/1.1/DTD/svg11.dtd" >
<svg xmlns="http://www.w3.org/2000/svg" xmlns:xlink="http://www.w3.org/1999/xlink" version="1.1" viewBox="0 0 256 256">
 <g >
 <path fill="currentColor"
d=" M 230.13 221.25 C 229.61 220.28 225.95 215.44 221.99 210.50 C 213.31 199.64 213.66 200.30 204.86 178.23 C 196.97 158.45 192.67 151.27 185.42 145.75 C 176.40 138.89 170.23 137.88 147.25 139.51 C 137.00 140.23 137.00 140.23 137.00 136.77 C 137.00 133.31 137.00 133.31 157.11 133.80 C 177.22 134.28 177.22 134.28 176.86 111.74 C 176.50 89.19 176.50 89.19 189.66 87.42 C 202.82 85.66 202.82 85.66 203.34 82.58 C 203.63 80.88 205.24 74.55 206.93 68.50 C 213.80 43.77 211.04 42.12 178.48 51.43 C 168.04 54.41 156.28 57.17 152.36 57.55 C 145.44 58.22 145.19 58.16 144.49 55.87 C 141.82 47.16 138.91 43.19 131.36 37.97 C 124.27 33.07 123.50 32.77 120.13 33.60 C 116.50 34.50 116.50 34.50 115.90 42.57 C 115.41 49.11 114.65 51.86 111.90 57.07 C 108.50 63.50 108.50 63.50 91.19 64.50 C 81.68 65.05 71.66 65.34 68.93 65.15 C 63.97 64.81 63.97 64.81 59.95 57.92 C 54.55 48.66 52.17 46.21 47.88 45.46 C 44.25 44.82 44.25 44.82 46.24 50.66 C 47.92 55.61 48.15 58.25 47.71 68.00 C 47.41 74.85 46.55 81.28 45.59 83.91 C 44.70 86.33 44.13 88.46 44.30 88.64 C 45.14 89.47 70.06 93.28 70.67 92.67 C 71.05 92.28 70.37 89.17 69.17 85.74 C 65.27 74.63 64.92 74.97 79.75 75.62 C 89.54 76.04 96.09 75.69 108.00 74.09 C 116.53 72.94 134.58 70.66 148.12 69.02 C 161.66 67.38 173.47 65.76 174.37 65.41 C 175.27 65.07 177.13 65.07 178.50 65.41 C 180.43 65.89 181.00 66.68 181.00 68.86 C 181.00 71.68 175.44 84.00 174.17 84.00 C 173.80 84.00 171.03 83.02 168.00 81.82 C 159.85 78.59 150.82 79.07 119.32 84.40 C 104.36 86.93 91.51 89.00 90.76 89.00 C 90.00 89.00 87.96 86.97 86.21 84.50 C 83.88 81.20 82.37 80.00 80.52 80.00 C 78.00 80.00 78.00 80.00 77.99 92.75 C 77.97 105.16 77.86 105.85 73.58 118.50 C 71.16 125.65 68.85 132.34 68.44 133.36 C 67.73 135.15 68.49 135.19 88.10 134.57 C 99.32 134.21 110.70 133.66 113.40 133.35 C 118.29 132.77 118.29 132.77 117.60 137.10 C 117.22 139.48 116.77 141.57 116.59 141.74 C 116.42 141.91 110.48 143.63 103.39 145.56 C 96.30 147.49 86.98 150.22 82.69 151.63 C 78.39 153.05 74.75 154.05 74.60 153.85 C 74.46 153.66 73.31 150.70 72.06 147.28 C 69.78 141.06 69.78 141.06 67.07 142.46 C 64.54 143.77 64.26 144.61 62.80 155.03 C 61.47 164.61 60.58 167.54 56.56 175.64 C 51.50 185.84 41.17 200.14 30.46 211.79 C 26.77 215.81 23.92 219.24 24.13 219.43 C 24.41 219.68 53.58 213.00 71.60 208.56 C 73.51 208.08 73.81 206.84 75.06 194.27 C 75.82 186.70 76.30 176.80 76.14 172.29 C 75.85 164.41 75.94 164.05 78.17 163.49 C 79.45 163.17 87.70 160.96 96.50 158.58 C 105.30 156.21 112.65 154.39 112.84 154.55 C 113.02 154.71 111.99 156.87 110.54 159.34 C 107.70 164.18 107.86 164.12 94.75 165.59 C 88.03 166.34 88.35 165.00 90.33 184.00 C 91.37 193.98 91.76 195.46 93.26 195.21 C 95.89 194.76 123.74 184.57 130.00 181.77 C 133.03 180.41 139.21 176.26 143.75 172.54 C 153.57 164.50 155.00 164.50 155.00 172.53 C 155.00 178.74 154.40 180.21 148.84 187.59 C 146.73 190.39 145.00 192.93 145.00 193.24 C 145.00 193.55 147.81 194.11 151.25 194.48 C 154.69 194.86 161.76 195.78 166.96 196.54 C 172.16 197.30 176.56 197.77 176.74 197.60 C 177.43 196.90 165.91 166.47 163.68 163.09 C 159.86 157.32 157.22 156.39 150.23 158.36 C 140.73 161.02 139.30 160.72 138.49 155.93 C 138.11 153.70 137.99 151.67 138.22 151.44 C 138.97 150.69 164.32 152.95 167.70 154.07 C 172.19 155.55 174.48 159.17 177.51 169.60 C 181.41 182.99 183.00 191.41 183.01 198.82 C 183.04 209.83 182.64 209.40 195.46 212.43 C 203.96 214.44 222.29 219.87 230.79 222.90 C 230.94 222.95 230.65 222.21 230.13 221.25 Z  M 98.99 122.75 C 98.98 122.06 98.70 119.80 98.35 117.71 C 97.73 113.93 97.73 113.93 108.61 114.21 C 119.50 114.50 119.50 114.50 119.80 119.25 C 120.11 124.00 120.11 124.00 109.55 124.00 C 101.78 124.00 99.00 123.67 98.99 122.75 Z  M 134.54 119.41 C 134.16 116.88 134.00 114.68 134.17 114.51 C 134.35 114.34 138.66 114.04 143.75 113.85 C 153.00 113.50 153.00 113.50 153.00 118.13 C 153.00 123.58 152.27 123.96 141.86 123.99 C 135.23 124.00 135.23 124.00 134.54 119.41 Z  M 94.56 101.38 C 94.20 99.94 94.04 98.64 94.20 98.50 C 94.66 98.09 114.82 95.00 117.04 95.00 C 118.70 95.00 119.00 95.70 119.00 99.50 C 119.00 104.00 119.00 104.00 107.11 104.00 C 95.22 104.00 95.22 104.00 94.56 101.38 Z  M 129.48 98.94 C 128.55 96.15 127.98 93.68 128.21 93.46 C 129.04 92.63 145.83 91.74 148.41 92.39 C 151.36 93.13 154.99 98.29 155.00 101.75 C 155.00 103.96 154.78 104.00 143.08 104.00 C 131.16 104.00 131.16 104.00 129.48 98.94 Z "/>
</g>
</svg>