<?xml version="1.0" encoding="UTF-8" standalone="no"?>
<!DOCTYPE svg PUBLIC "-//W3C//DTD SVG 1.1//EN" "http://www.w3.org/Graphics/SVG/1.1/DTD/svg11.dtd" >
<svg xmlns="http://www.w3.org/2000/svg" xmlns:xlink="http://www.w3.org/1999/xlink" version="1.1" viewBox="0 0 256 256">
 <g >
 <path fill="currentColor"
d=" M 58.17 216.57 C 65.83 214.90 65.83 214.90 70.06 207.70 C 72.39 203.74 74.34 200.43 74.40 200.35 C 74.45 200.27 82.42 199.19 92.10 197.96 C 109.71 195.71 109.71 195.71 111.18 179.60 C 111.99 170.75 112.39 160.57 112.07 157.00 C 111.51 150.65 111.44 150.50 108.63 150.50 C 105.98 150.50 105.48 151.16 101.98 159.30 C 99.89 164.14 96.68 170.60 94.84 173.67 C 91.46 179.29 79.51 193.00 77.98 193.00 C 77.53 193.00 78.26 189.51 79.61 185.25 C 83.34 173.51 85.73 161.73 86.97 149.00 C 88.57 132.55 88.56 132.56 95.49 124.63 C 104.47 114.33 106.11 111.38 104.72 108.12 C 104.10 106.68 103.52 105.37 103.42 105.20 C 103.32 105.04 100.34 106.50 96.79 108.45 C 89.20 112.62 87.00 112.91 87.00 109.75 C 87.00 107.88 83.54 93.68 81.36 86.62 C 80.81 84.84 81.33 84.78 92.18 85.46 C 103.57 86.17 103.57 86.17 103.04 80.84 C 102.50 75.50 102.50 75.50 89.12 74.00 C 75.74 72.50 75.74 72.50 73.12 67.29 C 71.68 64.43 66.09 54.87 60.69 46.04 C 50.88 30.00 50.88 30.00 46.42 30.00 C 41.95 30.00 41.95 30.00 47.55 40.25 C 54.44 52.85 59.62 63.64 60.53 67.27 C 61.09 69.51 60.89 70.00 59.36 69.98 C 57.60 69.96 43.11 66.83 38.25 65.42 C 36.00 64.77 36.00 64.77 38.38 71.13 C 40.53 76.87 41.15 77.63 44.63 78.82 C 46.76 79.54 52.04 80.65 56.36 81.28 C 62.99 82.26 64.35 82.78 65.06 84.66 C 66.48 88.39 70.00 107.86 70.00 111.98 C 70.00 116.55 70.38 116.39 56.14 118.05 C 45.77 119.25 45.77 119.25 46.40 123.38 C 46.74 125.64 47.31 135.02 47.66 144.21 C 48.30 160.93 48.30 160.93 56.90 154.95 C 61.62 151.66 65.62 149.36 65.78 149.84 C 66.17 151.02 57.93 174.20 54.69 181.00 C 51.68 187.34 42.74 198.78 28.77 214.15 C 23.40 220.07 19.00 225.09 19.00 225.32 C 19.00 225.54 26.09 224.04 34.75 221.98 C 43.41 219.92 53.95 217.49 58.17 216.57 Z  M 218.82 216.25 C 209.49 205.26 201.35 194.80 191.58 181.25 C 185.13 172.31 179.33 165.01 178.68 165.02 C 175.11 165.06 174.88 166.50 176.96 175.82 C 178.08 180.86 179.00 187.96 179.00 191.60 C 179.00 198.22 179.00 198.22 175.75 197.64 C 173.96 197.32 167.24 196.76 160.81 196.39 C 149.38 195.73 149.10 195.66 148.19 193.11 C 142.48 177.20 139.90 170.54 134.99 159.00 C 130.07 147.45 128.90 145.46 126.87 145.24 C 122.48 144.76 122.05 145.93 121.00 161.06 C 119.79 178.43 117.01 192.24 112.98 200.85 C 111.34 204.36 110.00 207.40 110.00 207.61 C 110.00 207.83 117.09 208.00 125.75 208.00 C 152.52 208.01 187.72 211.19 207.50 215.38 C 213.55 216.67 218.91 217.78 219.40 217.86 C 219.90 217.94 219.64 217.21 218.82 216.25 Z  M 220.40 181.25 C 198.41 148.75 199.32 149.90 196.59 151.14 C 194.29 152.19 194.29 152.19 199.77 174.09 C 205.15 195.61 205.30 196.00 207.87 196.07 C 209.32 196.11 215.45 197.63 221.50 199.45 C 227.55 201.26 233.09 202.80 233.81 202.87 C 234.53 202.94 228.49 193.21 220.40 181.25 Z  M 175.00 183.62 C 175.00 182.96 156.80 148.53 155.99 147.65 C 155.55 147.18 153.92 147.08 152.35 147.42 C 149.50 148.05 149.50 148.05 149.50 164.97 C 149.50 181.90 149.50 181.90 155.50 182.45 C 158.80 182.76 163.07 183.16 165.00 183.34 C 170.84 183.90 175.00 184.02 175.00 183.62 Z  M 199.46 123.75 C 200.36 99.67 201.91 89.88 208.03 69.50 C 212.27 55.40 213.08 51.50 212.75 46.67 C 212.51 43.06 211.82 40.50 210.93 39.94 C 206.79 37.31 194.53 39.73 152.26 51.48 C 135.40 56.16 121.12 60.00 120.53 60.00 C 119.94 60.00 117.30 55.68 114.68 50.40 C 109.91 40.79 109.91 40.79 106.21 41.49 C 104.17 41.87 102.38 42.30 102.23 42.44 C 102.08 42.59 103.29 47.88 104.92 54.19 C 109.43 71.68 110.37 81.02 109.62 101.00 C 109.05 116.48 108.41 122.13 105.50 137.24 C 104.78 140.97 104.78 140.97 136.64 141.25 C 154.16 141.40 175.31 141.64 183.63 141.76 C 198.77 142.00 198.77 142.00 199.46 123.75 Z  M 132.00 127.00 C 132.00 124.00 132.00 124.00 141.46 124.00 C 152.13 124.00 150.54 125.65 154.37 110.65 C 156.03 104.13 157.00 102.45 157.00 106.08 C 157.00 107.40 157.56 112.03 158.24 116.36 C 159.48 124.23 159.48 124.23 167.31 123.78 C 174.87 123.34 175.13 123.40 174.59 125.41 C 174.28 126.56 174.02 128.06 174.01 128.75 C 174.00 129.71 169.13 130.00 153.00 130.00 C 132.00 130.00 132.00 130.00 132.00 127.00 Z  M 130.10 106.75 C 129.05 96.58 127.24 85.90 124.29 72.42 C 123.89 70.60 124.73 70.08 131.17 68.19 C 143.63 64.54 175.19 57.00 180.72 56.35 C 190.37 55.21 190.96 58.04 185.12 77.54 C 182.99 84.67 179.99 96.01 178.45 102.75 C 176.92 109.49 175.37 115.00 175.00 115.00 C 174.64 115.00 173.25 112.66 171.92 109.79 C 170.59 106.93 167.77 102.39 165.66 99.71 C 163.55 97.03 161.98 94.69 162.16 94.51 C 162.35 94.33 165.62 93.80 169.44 93.34 C 176.37 92.50 176.37 92.50 177.67 87.50 C 178.38 84.75 178.97 82.11 178.98 81.63 C 178.99 81.15 174.76 81.08 169.50 81.47 C 158.58 82.29 159.03 82.80 161.52 72.50 C 163.43 64.60 163.55 65.00 159.13 65.00 C 155.25 65.00 155.25 65.00 152.35 74.25 C 149.44 83.50 149.44 83.50 140.47 84.00 C 131.50 84.50 131.50 84.50 131.20 89.25 C 130.89 94.00 130.89 94.00 137.95 94.00 C 141.83 94.00 145.00 94.22 145.00 94.50 C 145.00 94.77 142.99 99.55 140.54 105.12 C 136.42 114.50 133.65 119.00 132.03 119.00 C 131.67 119.00 130.80 113.49 130.10 106.75 Z "/>
</g>
</svg>