<?xml version="1.0" encoding="UTF-8" standalone="no"?>
<!DOCTYPE svg PUBLIC "-//W3C//DTD SVG 1.1//EN" "http://www.w3.org/Graphics/SVG/1.1/DTD/svg11.dtd" >
<svg xmlns="http://www.w3.org/2000/svg" xmlns:xlink="http://www.w3.org/1999/xlink" version="1.1" viewBox="0 0 256 256">
 <g >
 <path fill="currentColor"
d=" M 17.12 224.43 C 19.53 223.57 26.22 221.79 32.00 220.47 C 37.78 219.15 45.88 217.01 50.00 215.71 C 58.78 212.95 59.06 212.62 69.68 192.46 C 77.28 178.03 75.45 179.37 90.16 177.50 C 94.81 176.91 94.81 176.91 97.90 169.20 C 102.55 157.58 110.94 125.67 111.98 115.63 C 113.17 104.19 114.26 103.04 113.49 114.04 C 110.78 152.69 108.37 165.42 100.19 184.14 C 98.38 188.29 90.35 202.11 85.66 209.16 C 83.88 211.83 83.88 211.83 87.69 211.34 C 89.79 211.08 100.50 210.33 111.50 209.68 C 131.50 208.50 131.50 208.50 131.82 161.00 C 132.11 118.33 132.29 113.96 133.56 118.00 C 134.33 120.47 134.98 124.66 134.98 127.31 C 134.99 129.95 135.52 135.24 136.15 139.06 C 137.29 146.00 137.29 146.00 144.28 146.00 C 151.28 146.00 151.28 146.00 150.60 151.71 C 148.72 167.78 143.60 193.12 140.79 200.29 C 139.12 204.57 137.91 208.24 138.12 208.43 C 138.33 208.63 147.28 209.29 158.00 209.92 C 168.72 210.54 179.26 211.31 181.40 211.64 C 184.93 212.17 185.22 212.05 184.50 210.36 C 176.01 190.58 172.40 168.84 171.80 134.00 C 171.50 116.50 171.50 116.50 178.62 116.21 C 185.32 115.93 185.78 116.05 186.35 118.21 C 186.69 119.47 187.48 130.62 188.10 143.00 C 188.98 160.32 190.15 171.02 193.17 189.47 C 195.33 202.65 197.29 213.62 197.53 213.86 C 198.13 214.46 235.57 223.55 240.84 224.37 C 245.18 225.05 245.18 225.05 240.20 219.28 C 227.90 205.03 213.84 178.00 207.90 157.18 C 206.22 151.31 202.86 140.27 200.42 132.65 C 197.99 125.04 196.00 118.21 196.00 117.48 C 196.00 116.52 198.54 115.95 205.04 115.44 C 215.05 114.66 215.27 114.50 216.39 107.14 C 217.06 102.77 217.06 102.77 213.28 103.32 C 207.39 104.17 172.03 106.37 171.59 105.91 C 171.37 105.68 170.56 98.59 169.80 90.14 C 168.84 79.58 168.73 74.69 169.45 74.49 C 170.03 74.33 177.70 73.23 186.50 72.05 C 195.30 70.86 207.14 68.90 212.81 67.70 C 223.13 65.50 223.13 65.50 230.95 47.50 C 235.25 37.60 238.66 29.38 238.53 29.22 C 237.72 28.31 228.38 33.64 222.00 38.67 C 217.88 41.92 213.02 45.61 211.22 46.88 C 206.46 50.22 171.90 65.99 169.32 65.99 C 167.37 66.00 166.99 65.16 165.85 58.41 C 164.58 50.81 164.58 50.81 160.63 51.44 C 158.47 51.79 156.31 52.31 155.85 52.60 C 155.38 52.88 154.96 63.10 154.91 75.31 C 154.85 87.51 154.29 104.25 153.66 112.50 C 152.50 127.50 152.50 127.50 148.27 119.83 C 145.94 115.61 140.88 108.75 137.02 104.59 C 131.13 98.23 130.00 96.46 130.00 93.54 C 130.00 90.07 130.00 90.07 140.25 89.78 C 150.50 89.50 150.50 89.50 150.80 84.75 C 151.11 80.00 151.11 80.00 140.79 80.00 C 130.47 80.00 130.47 80.00 128.86 76.25 C 127.98 74.19 126.44 68.99 125.43 64.69 C 124.29 59.82 121.65 53.25 118.38 47.19 C 113.16 37.50 113.16 37.50 108.87 37.79 C 106.51 37.95 104.38 38.28 104.14 38.53 C 103.89 38.77 104.88 43.59 106.34 49.24 C 109.07 59.84 110.95 71.00 110.98 76.86 C 111.00 80.22 111.00 80.22 96.89 79.49 C 82.78 78.76 82.78 78.76 83.51 83.13 C 83.91 85.53 84.39 87.78 84.59 88.12 C 84.79 88.46 89.52 89.06 95.11 89.46 C 105.25 90.18 105.25 90.18 104.61 95.66 C 103.72 103.25 95.71 126.87 90.40 137.59 C 85.98 146.50 85.98 146.50 86.48 131.30 C 86.76 122.95 86.65 115.90 86.24 115.65 C 85.83 115.40 84.19 115.04 82.59 114.85 C 79.75 114.51 79.65 114.65 78.37 121.00 C 75.14 136.93 63.52 163.33 52.17 180.50 C 46.17 189.59 29.79 208.25 17.73 219.75 C 14.12 223.19 11.53 226.00 11.96 226.00 C 12.39 226.00 14.72 225.30 17.12 224.43 Z  M 74.55 113.75 C 74.18 110.73 72.21 105.07 69.91 100.42 C 64.00 88.46 52.86 75.81 50.41 78.26 C 50.16 78.50 50.93 82.71 52.10 87.60 C 53.86 94.92 54.14 98.39 53.69 107.19 C 53.06 119.65 51.96 118.64 66.34 118.86 C 75.19 119.00 75.19 119.00 74.55 113.75 Z  M 82.00 71.37 C 82.00 69.35 75.08 59.37 68.80 52.31 C 55.93 37.85 46.01 30.00 40.61 30.00 C 38.12 30.00 38.12 30.00 42.53 37.84 C 46.45 44.82 50.89 56.60 52.45 64.18 C 53.01 66.91 54.63 67.46 73.50 71.36 C 76.79 72.03 82.00 72.04 82.00 71.37 Z "/>
</g>
</svg>