<?xml version="1.0" encoding="UTF-8" standalone="no"?>
<!DOCTYPE svg PUBLIC "-//W3C//DTD SVG 1.1//EN" "http://www.w3.org/Graphics/SVG/1.1/DTD/svg11.dtd" >
<svg xmlns="http://www.w3.org/2000/svg" xmlns:xlink="http://www.w3.org/1999/xlink" version="1.1" viewBox="0 0 256 256">
 <g >
 <path fill="currentColor"
d=" M 32.50 222.17 C 40.20 219.94 50.84 217.14 56.15 215.96 C 65.81 213.80 65.81 213.80 72.11 203.24 C 88.08 176.47 94.99 145.52 92.13 113.50 C 91.50 106.50 91.50 106.50 88.28 106.19 C 84.59 105.83 84.90 105.05 82.58 120.57 C 80.76 132.73 76.72 144.62 69.18 160.00 C 59.86 179.02 53.51 187.52 33.03 208.40 C 22.84 218.80 15.40 227.06 16.50 226.76 C 17.60 226.46 24.80 224.40 32.50 222.17 Z  M 216.87 194.86 C 205.12 182.69 190.21 167.77 183.73 161.71 C 177.26 155.65 172.09 150.60 172.23 150.48 C 172.38 150.36 180.15 151.09 189.50 152.10 C 198.85 153.11 207.12 153.95 207.89 153.96 C 208.98 153.99 209.16 152.72 208.73 147.92 C 208.42 144.58 207.90 141.57 207.57 141.24 C 207.24 140.91 198.54 140.25 188.23 139.79 C 177.93 139.32 166.74 138.70 163.36 138.40 C 157.23 137.86 157.23 137.86 155.61 132.12 C 154.73 128.96 154.00 125.84 154.00 125.18 C 154.00 124.31 160.06 124.00 177.50 124.00 C 201.00 124.00 201.00 124.00 201.00 120.78 C 201.00 119.02 202.60 109.25 204.57 99.09 C 208.00 81.31 208.33 75.72 206.37 68.78 C 205.49 65.65 199.86 65.02 187.97 66.72 C 181.91 67.59 176.79 68.12 176.58 67.90 C 176.37 67.68 176.04 65.05 175.85 62.06 C 175.50 56.61 175.50 56.61 184.50 55.33 C 192.83 54.14 220.82 47.77 225.57 45.98 C 227.54 45.24 234.10 35.42 235.44 31.20 C 236.04 29.31 235.77 29.33 229.28 31.72 C 200.68 42.25 175.76 45.94 128.17 46.71 C 94.85 47.25 94.85 47.25 95.54 52.37 C 95.92 55.19 96.43 57.84 96.67 58.25 C 96.92 58.66 104.63 59.01 113.81 59.01 C 122.99 59.02 131.51 59.30 132.75 59.63 C 134.88 60.20 135.00 60.74 135.00 69.48 C 135.00 78.73 135.00 78.73 127.45 81.48 C 123.30 83.00 119.76 84.07 119.57 83.87 C 119.39 83.67 118.11 81.25 116.73 78.49 C 112.54 70.15 110.92 68.64 107.07 69.48 C 103.84 70.19 103.78 70.30 104.40 74.36 C 104.75 76.63 105.30 84.35 105.63 91.50 C 106.15 102.75 105.94 105.60 104.11 112.67 C 100.51 126.58 98.53 125.34 123.50 124.81 C 145.00 124.35 145.00 124.35 145.00 131.03 C 145.00 137.70 145.00 137.70 136.75 138.35 C 132.21 138.70 122.56 138.99 115.31 138.99 C 108.05 139.00 101.91 139.34 101.66 139.75 C 101.40 140.16 100.87 142.64 100.48 145.25 C 99.77 150.00 99.77 150.00 117.39 150.00 C 127.07 150.00 135.00 150.30 135.00 150.66 C 135.00 151.02 132.44 154.74 129.31 158.91 C 120.83 170.21 109.55 180.75 92.64 193.16 C 79.82 202.57 78.04 204.18 81.00 203.71 C 82.92 203.40 93.35 202.58 104.16 201.88 C 123.81 200.61 123.81 200.61 127.31 194.56 C 131.51 187.27 136.13 178.14 140.72 168.00 C 144.12 160.50 144.12 160.50 143.66 168.50 C 142.97 180.39 137.35 195.14 129.69 205.19 C 126.23 209.71 126.23 209.71 142.37 210.42 C 151.24 210.81 163.88 211.75 170.46 212.52 C 177.04 213.28 182.59 213.74 182.79 213.54 C 183.00 213.34 182.68 212.27 182.09 211.17 C 180.76 208.68 163.06 160.38 162.28 157.10 C 161.88 155.42 162.06 154.92 162.88 155.42 C 163.52 155.82 171.70 167.58 181.06 181.56 C 193.01 199.40 198.74 207.13 200.29 207.48 C 201.50 207.76 205.65 208.46 209.50 209.05 C 213.35 209.64 220.78 211.60 226.00 213.41 C 231.22 215.22 236.12 216.77 236.87 216.85 C 237.62 216.93 228.62 207.04 216.87 194.86 Z  M 79.00 120.02 C 79.00 117.18 74.43 105.43 70.82 99.00 C 66.44 91.20 58.13 81.00 56.16 81.02 C 52.24 81.05 51.87 82.27 53.48 89.89 C 55.38 98.93 55.38 103.98 53.50 111.00 C 52.69 114.03 52.02 117.48 52.01 118.68 C 52.00 121.35 53.51 121.64 68.25 121.85 C 78.34 121.99 79.00 121.88 79.00 120.02 Z  M 85.00 72.70 C 85.00 70.59 75.62 56.98 69.57 50.32 C 63.83 44.00 50.25 32.22 46.32 30.15 C 43.73 28.79 42.95 28.75 41.16 29.88 C 40.10 30.55 40.78 32.44 44.30 38.65 C 51.04 50.53 54.00 58.22 54.00 63.87 C 54.00 68.80 54.00 68.80 61.75 70.53 C 76.88 73.91 85.00 74.67 85.00 72.70 Z  M 124.16 104.75 C 122.96 99.11 121.98 94.00 121.99 93.38 C 122.00 92.33 133.76 88.43 134.55 89.22 C 134.96 89.63 133.32 106.66 132.38 111.75 C 131.87 114.47 131.34 115.00 129.06 115.00 C 126.41 115.00 126.27 114.71 124.16 104.75 Z  M 150.65 105.75 C 150.30 101.21 150.01 94.95 150.01 91.84 C 150.00 86.19 150.00 86.19 155.06 85.49 C 157.85 85.11 160.41 85.08 160.76 85.43 C 161.50 86.16 158.62 101.02 156.25 108.75 C 155.14 112.34 154.11 114.00 152.97 114.00 C 151.59 114.00 151.18 112.53 150.65 105.75 Z  M 175.70 113.25 C 175.47 112.84 175.55 105.53 175.89 97.00 C 176.50 81.50 176.50 81.50 179.06 81.20 C 180.47 81.04 182.83 81.36 184.31 81.93 C 187.59 83.18 187.80 85.90 185.12 92.71 C 183.50 96.84 182.46 101.01 180.40 111.75 C 179.98 113.91 176.66 114.97 175.70 113.25 Z  M 145.60 67.53 C 144.64 63.42 144.13 59.60 144.48 59.03 C 144.85 58.43 149.35 58.00 155.17 58.00 C 165.23 58.00 165.23 58.00 164.56 63.75 C 163.51 72.67 163.61 72.54 156.62 73.83 C 147.11 75.58 147.56 75.84 145.60 67.53 Z "/>
</g>
</svg>