<?xml version="1.0" encoding="UTF-8" standalone="no"?>
<!DOCTYPE svg PUBLIC "-//W3C//DTD SVG 1.1//EN" "http://www.w3.org/Graphics/SVG/1.1/DTD/svg11.dtd" >
<svg xmlns="http://www.w3.org/2000/svg" xmlns:xlink="http://www.w3.org/1999/xlink" version="1.1" viewBox="0 0 256 256">
 <g >
 <path fill="currentColor"
d=" M 234.69 221.20 C 232.67 219.13 219.84 203.95 206.19 187.47 C 186.09 163.21 180.90 157.50 178.93 157.50 C 177.11 157.50 176.54 158.00 176.66 159.50 C 176.75 160.60 180.05 169.98 183.98 180.35 C 187.91 190.72 190.97 199.36 190.78 199.55 C 190.59 199.74 184.60 199.03 177.47 197.97 C 170.34 196.91 164.22 196.04 163.87 196.02 C 162.92 195.99 158.99 186.40 157.36 180.12 C 155.91 174.57 155.91 174.57 159.81 169.03 C 165.20 161.38 167.28 157.02 170.84 145.88 C 175.23 132.11 181.19 107.94 180.58 106.35 C 179.41 103.29 176.36 105.19 171.99 111.69 C 166.61 119.71 158.28 128.41 151.68 132.91 C 149.03 134.71 146.71 136.04 146.53 135.85 C 146.35 135.66 144.59 131.19 142.62 125.91 C 137.58 112.41 134.05 105.00 132.68 105.02 C 128.79 105.07 128.49 106.46 128.82 122.71 C 129.28 145.68 125.79 173.86 120.95 186.12 C 119.90 188.78 117.46 194.11 115.52 197.96 C 113.58 201.80 112.00 205.11 112.00 205.32 C 112.00 205.52 120.95 205.97 131.89 206.32 C 164.95 207.39 175.56 209.15 219.50 220.84 C 229.40 223.47 237.70 225.48 237.94 225.30 C 238.17 225.11 236.72 223.27 234.69 221.20 Z  M 73.67 209.09 C 80.37 208.49 88.48 208.00 91.70 208.00 C 97.57 208.00 97.57 208.00 101.21 196.75 C 106.70 179.78 110.78 149.56 108.92 139.60 C 106.77 128.11 102.30 122.87 93.50 121.55 C 89.79 121.00 72.21 123.83 62.40 126.57 C 60.43 127.12 60.27 126.67 59.68 118.95 C 58.99 110.05 55.81 97.30 51.03 84.22 C 49.36 79.67 48.00 75.80 48.00 75.63 C 48.00 74.94 56.10 72.94 56.90 73.44 C 58.50 74.43 59.98 82.78 60.13 91.66 C 60.22 96.85 60.74 100.80 61.39 101.23 C 62.00 101.64 65.99 101.98 70.25 101.98 C 74.51 101.99 78.00 102.30 78.00 102.66 C 78.00 103.03 76.19 106.63 73.97 110.66 C 69.95 118.00 69.95 118.00 84.84 118.00 C 99.74 118.00 99.74 118.00 100.87 112.25 C 103.74 97.56 103.18 82.58 99.27 70.19 C 96.48 61.34 89.74 57.02 78.70 57.01 C 74.22 57.00 73.82 56.79 72.80 53.87 C 72.20 52.14 69.54 46.29 66.89 40.87 C 62.06 31.00 62.06 31.00 58.17 31.00 C 54.27 31.00 54.27 31.00 53.06 38.54 C 51.86 45.96 45.70 60.34 42.63 62.89 C 41.54 63.80 39.76 62.31 33.88 55.55 C 28.75 49.66 25.81 47.06 24.23 47.03 C 21.97 47.00 21.97 47.00 24.59 52.18 C 28.76 60.40 33.86 74.29 36.01 83.25 C 39.56 98.06 38.53 116.76 33.00 138.18 C 31.40 144.36 30.21 149.54 30.35 149.68 C 30.49 149.82 35.08 148.18 40.55 146.03 C 63.65 136.97 78.39 134.36 83.03 138.50 C 84.27 139.60 85.88 141.93 86.63 143.69 C 87.81 146.49 87.73 147.66 85.97 153.36 C 83.91 160.02 77.69 171.91 70.71 182.50 C 68.54 185.80 61.00 194.14 53.96 201.03 C 41.16 213.56 41.16 213.56 51.33 211.87 C 56.92 210.94 66.98 209.69 73.67 209.09 Z  M 32.50 191.71 C 40.20 187.32 50.19 181.06 54.70 177.82 C 64.95 170.46 79.01 157.34 78.98 155.15 C 78.95 151.13 77.70 151.13 65.17 155.10 C 51.27 159.51 38.55 162.00 29.87 162.00 C 26.64 162.00 24.00 162.18 24.00 162.39 C 24.00 166.35 17.34 192.75 14.41 200.37 C 13.55 202.61 12.72 203.01 32.50 191.71 Z  M 131.81 93.82 C 131.50 84.63 131.50 84.63 155.00 76.82 C 177.57 69.32 183.00 67.97 183.00 69.87 C 183.00 72.88 178.97 80.94 172.81 90.27 C 168.90 96.19 165.95 101.29 166.26 101.60 C 166.57 101.90 173.17 101.35 180.93 100.37 C 195.04 98.58 195.04 98.58 196.09 94.54 C 196.66 92.32 199.80 82.81 203.07 73.42 C 209.31 55.45 209.95 52.04 207.48 49.99 C 205.18 48.07 195.76 49.30 185.33 52.89 C 180.34 54.60 175.98 56.00 175.63 56.00 C 175.28 56.00 175.00 54.13 175.00 51.84 C 175.00 46.26 171.44 40.46 165.05 35.61 C 159.92 31.73 159.92 31.73 156.50 33.57 C 154.14 34.84 152.87 36.37 152.43 38.46 C 150.77 46.42 143.65 66.28 141.69 68.41 C 139.88 70.38 131.62 74.00 128.93 74.00 C 128.54 74.00 125.68 70.85 122.57 67.00 C 118.34 61.77 116.29 60.00 114.46 60.00 C 113.11 60.00 111.99 60.56 111.98 61.25 C 111.85 70.70 107.64 92.97 104.36 101.50 C 103.87 102.79 105.77 103.00 117.95 103.00 C 132.12 103.00 132.12 103.00 131.81 93.82 Z  M 78.26 93.85 C 77.59 92.01 73.66 86.00 69.53 80.50 C 62.02 70.50 62.02 70.50 65.76 69.81 C 71.81 68.69 78.49 68.90 80.37 70.28 C 84.27 73.14 84.49 84.91 80.80 93.96 C 79.47 97.20 79.47 97.20 78.26 93.85 Z "/>
</g>
</svg>