<?xml version="1.0" encoding="UTF-8" standalone="no"?>
<!DOCTYPE svg PUBLIC "-//W3C//DTD SVG 1.1//EN" "http://www.w3.org/Graphics/SVG/1.1/DTD/svg11.dtd" >
<svg xmlns="http://www.w3.org/2000/svg" xmlns:xlink="http://www.w3.org/1999/xlink" version="1.1" viewBox="0 0 256 256">
 <g >
 <path fill="currentColor"
d=" M 187.00 197.50 C 187.00 146.00 187.00 146.00 216.00 146.00 C 245.00 146.00 245.00 146.00 245.00 136.00 C 245.00 126.00 245.00 126.00 215.93 126.00 C 186.87 126.00 186.87 126.00 187.42 109.75 C 187.72 100.81 188.23 89.67 188.55 85.00 C 189.08 77.20 188.94 76.20 186.78 73.00 C 183.48 68.08 177.85 66.18 172.82 68.30 C 170.58 69.23 168.48 71.11 167.47 73.06 C 165.58 76.72 165.51 78.93 166.53 106.25 C 167.26 126.00 167.26 126.00 150.88 125.98 C 141.87 125.97 131.38 125.51 127.57 124.96 C 121.24 124.04 120.25 124.15 116.07 126.23 C 110.72 128.89 109.04 131.74 109.01 138.19 C 108.98 147.85 116.55 151.04 131.31 147.59 C 135.88 146.52 142.88 146.00 152.56 146.00 C 167.00 146.00 167.00 146.00 167.00 197.50 C 167.00 249.00 167.00 249.00 177.00 249.00 C 187.00 249.00 187.00 249.00 187.00 197.50 Z  M 72.25 182.75 C 71.76 118.50 71.76 118.50 81.40 131.50 C 86.70 138.65 91.22 144.50 91.45 144.50 C 91.67 144.50 93.24 142.59 94.93 140.26 C 97.39 136.86 98.78 135.90 102.02 135.38 C 104.23 135.03 106.23 134.43 106.47 134.05 C 106.70 133.68 99.04 123.56 89.44 111.56 C 72.84 90.79 72.00 89.54 72.00 85.37 C 72.00 81.00 72.00 81.00 87.50 81.00 C 103.00 81.00 103.00 81.00 103.00 71.50 C 103.00 62.00 103.00 62.00 87.50 62.00 C 72.00 62.00 72.00 62.00 72.00 51.62 C 72.00 45.79 72.69 38.19 73.58 34.26 C 76.26 22.40 72.72 15.29 63.62 14.26 C 56.53 13.46 54.13 14.49 51.96 19.29 C 49.57 24.54 49.35 34.85 51.54 39.07 C 52.68 41.28 53.00 44.53 52.79 51.77 C 52.50 61.50 52.50 61.50 47.00 61.40 C 43.98 61.35 37.59 60.94 32.81 60.51 C 23.20 59.63 19.15 60.60 16.68 64.37 C 12.70 70.44 13.97 78.90 19.27 81.64 C 22.36 83.24 31.48 83.15 46.25 81.37 C 49.68 80.96 51.00 81.14 51.00 82.04 C 51.00 84.12 20.04 143.88 14.84 151.84 C 9.58 159.90 8.82 163.82 11.52 169.03 C 14.29 174.40 22.98 176.81 27.67 173.52 C 30.60 171.47 34.43 164.65 36.98 156.96 C 38.16 153.41 42.21 144.20 45.97 136.50 C 52.82 122.50 52.82 122.50 52.91 184.75 C 53.00 247.00 53.00 247.00 62.87 247.00 C 72.73 247.00 72.73 247.00 72.25 182.75 Z  M 130.49 88.50 C 139.27 64.00 139.27 64.00 179.39 64.08 C 201.45 64.13 222.02 64.48 225.10 64.87 C 235.56 66.18 239.97 63.41 240.77 55.03 C 241.66 45.77 236.28 41.44 225.14 42.43 C 221.49 42.76 202.19 43.28 182.25 43.60 C 150.16 44.11 146.00 44.00 146.00 42.64 C 146.00 41.81 146.48 40.82 147.07 40.46 C 147.65 40.10 149.45 37.98 151.07 35.75 C 154.85 30.52 155.20 22.79 151.83 18.51 C 145.90 10.97 132.49 11.29 128.46 19.07 C 127.60 20.75 126.52 25.35 126.06 29.31 C 125.45 34.60 121.87 45.82 112.49 71.79 C 105.47 91.19 99.91 107.21 100.12 107.38 C 100.77 107.91 118.40 112.77 120.10 112.89 C 121.32 112.97 123.84 107.05 130.49 88.50 Z  M 172.00 192.50 C 172.00 141.00 172.00 141.00 155.00 141.00 C 138.00 141.00 138.00 141.00 138.00 136.00 C 138.00 131.00 138.00 131.00 155.00 131.00 C 172.00 131.00 172.00 131.00 172.00 113.65 C 172.00 96.31 172.00 96.31 176.50 96.40 C 181.00 96.50 181.00 96.50 181.00 113.75 C 181.00 131.00 181.00 131.00 210.00 131.00 C 239.00 131.00 239.00 131.00 239.00 136.00 C 239.00 141.00 239.00 141.00 210.00 141.00 C 181.00 141.00 181.00 141.00 181.00 192.50 C 181.00 244.00 181.00 244.00 176.50 244.00 C 172.00 244.00 172.00 244.00 172.00 192.50 Z  M 57.76 159.25 C 57.50 76.50 57.50 76.50 49.88 76.21 C 42.26 75.92 42.26 75.92 42.36 72.00 C 42.46 68.08 42.46 68.08 49.98 67.79 C 57.50 67.50 57.50 67.50 57.78 53.88 C 58.05 40.25 58.05 40.25 62.53 40.16 C 67.00 40.07 67.00 40.07 67.00 54.04 C 67.00 68.00 67.00 68.00 82.50 68.00 C 98.00 68.00 98.00 68.00 98.00 72.00 C 98.00 76.00 98.00 76.00 82.50 76.00 C 67.00 76.00 67.00 76.00 67.00 159.00 C 67.00 242.00 67.00 242.00 62.51 242.00 C 58.01 242.00 58.01 242.00 57.76 159.25 Z  M 30.57 149.08 C 29.59 148.00 28.01 146.97 27.05 146.81 C 25.60 146.55 27.52 141.87 38.40 119.16 C 51.50 91.81 51.50 91.81 51.79 100.23 C 52.07 108.65 52.07 108.65 42.91 129.07 C 37.87 140.31 33.44 149.85 33.05 150.27 C 32.67 150.70 31.55 150.16 30.57 149.08 Z  M 82.74 122.92 C 73.52 110.39 73.00 109.42 73.00 104.74 C 73.00 99.79 73.00 99.79 85.50 115.15 C 96.79 129.02 97.78 130.55 95.78 131.04 C 94.56 131.33 93.33 132.59 93.03 133.87 C 92.57 135.83 91.07 134.23 82.74 122.92 Z  M 111.75 103.80 C 109.69 103.25 108.00 102.44 108.00 102.00 C 108.00 101.14 129.98 38.69 130.45 38.22 C 130.69 37.98 139.93 40.09 140.79 40.58 C 141.60 41.04 117.57 104.98 116.62 104.90 C 116.00 104.84 113.81 104.35 111.75 103.80 Z  M 141.00 57.03 C 141.00 56.50 141.76 54.48 142.69 52.53 C 144.37 49.00 144.37 49.00 178.14 49.00 C 211.92 49.00 211.92 49.00 211.79 51.75 C 211.72 53.26 212.01 55.29 212.44 56.25 C 213.17 57.90 211.12 58.00 177.11 58.00 C 154.55 58.00 141.00 57.64 141.00 57.03 Z "/>
</g>
</svg>