<?xml version="1.0" encoding="UTF-8" standalone="no"?>
<!DOCTYPE svg PUBLIC "-//W3C//DTD SVG 1.1//EN" "http://www.w3.org/Graphics/SVG/1.1/DTD/svg11.dtd" >
<svg xmlns="http://www.w3.org/2000/svg" xmlns:xlink="http://www.w3.org/1999/xlink" version="1.1" viewBox="0 0 256 256">
 <g >
 <path fill="currentColor"
d=" M 190.74 234.75 C 192.82 232.52 192.83 232.18 191.95 201.50 C 191.47 184.45 190.90 166.40 190.68 161.38 C 190.29 152.26 190.29 152.26 201.90 148.62 C 208.28 146.62 215.97 144.46 219.00 143.83 C 226.18 142.31 226.91 141.52 223.00 139.50 C 216.75 136.27 205.81 136.64 191.40 140.58 C 189.47 141.11 189.25 140.64 188.65 134.89 C 187.92 127.92 185.77 124.71 180.28 122.37 C 173.94 119.67 169.31 121.53 173.57 125.06 C 176.24 127.27 178.69 133.23 179.35 139.09 C 179.98 144.68 179.98 144.68 168.74 147.93 C 150.59 153.17 147.00 154.33 147.00 154.97 C 147.00 155.30 148.41 156.40 150.13 157.42 C 153.88 159.63 162.19 159.21 173.75 156.23 C 181.00 154.35 181.00 154.35 181.00 184.09 C 181.00 213.82 181.00 213.82 178.09 216.27 C 175.73 218.26 173.57 218.87 166.85 219.45 C 159.44 220.10 158.73 220.33 160.41 221.56 C 161.44 222.31 165.10 223.87 168.53 225.01 C 171.96 226.15 175.61 228.03 176.63 229.19 C 179.18 232.06 186.04 237.00 187.48 237.00 C 188.12 237.00 189.59 235.99 190.74 234.75 Z  M 105.70 216.95 C 109.19 212.79 118.70 206.47 127.72 202.30 C 131.83 200.41 135.29 199.00 135.42 199.18 C 135.55 199.35 136.24 200.97 136.95 202.76 C 138.56 206.80 142.21 208.02 145.04 205.46 C 146.49 204.15 147.00 202.39 147.00 198.71 C 147.00 194.19 146.61 193.35 142.75 189.51 C 139.36 186.13 137.52 185.14 133.63 184.56 C 126.89 183.57 125.39 185.21 129.76 188.81 C 131.55 190.29 133.01 192.00 133.01 192.61 C 133.00 194.10 118.32 200.74 112.09 202.07 C 106.36 203.30 102.56 202.04 103.40 199.19 C 103.68 198.26 104.15 196.26 104.45 194.75 C 104.75 193.24 105.24 190.85 105.53 189.45 C 105.95 187.45 107.65 186.13 113.25 183.45 C 119.20 180.60 121.58 180.00 127.02 180.00 C 130.64 180.00 134.06 180.46 134.63 181.03 C 135.94 182.34 138.04 177.67 141.61 165.50 C 143.61 158.66 144.28 154.10 144.37 146.50 C 144.50 136.50 144.50 136.50 140.78 134.68 C 138.73 133.68 134.54 132.60 131.46 132.28 C 125.97 131.72 125.81 131.77 121.69 135.81 C 117.50 139.92 117.50 139.92 105.50 140.35 C 98.90 140.59 93.34 140.83 93.14 140.89 C 92.95 140.95 94.15 142.27 95.81 143.82 C 99.84 147.58 100.39 151.90 99.78 174.90 C 99.31 192.98 99.20 193.71 96.15 200.98 C 94.42 205.10 93.00 209.04 93.00 209.76 C 93.00 211.02 101.36 220.00 102.54 220.00 C 102.86 220.00 104.29 218.63 105.70 216.95 Z  M 173.19 186.25 C 176.03 182.95 176.07 180.97 173.38 176.39 C 170.82 172.01 165.39 167.00 163.21 167.00 C 162.61 167.00 160.63 166.14 158.81 165.10 C 155.02 162.92 149.51 161.57 148.06 162.46 C 147.52 162.80 148.86 164.69 151.05 166.66 C 153.24 168.64 156.60 173.24 158.53 176.88 C 163.51 186.30 169.73 190.28 173.19 186.25 Z  M 139.18 125.55 C 171.46 117.76 183.82 115.00 186.36 115.00 C 189.62 115.00 192.04 110.88 190.35 108.20 C 189.49 106.84 190.45 105.76 195.92 101.92 C 205.35 95.30 205.67 94.80 203.52 90.05 C 202.55 87.90 200.53 84.96 199.02 83.52 C 196.60 81.20 195.20 80.82 187.35 80.31 C 180.66 79.88 177.03 80.14 172.81 81.37 C 169.72 82.26 166.87 83.00 166.48 83.00 C 166.08 83.00 168.33 81.00 171.48 78.56 C 185.20 67.91 186.03 60.23 174.23 53.30 C 170.65 51.19 169.71 51.00 168.39 52.09 C 167.16 53.11 166.96 54.52 167.47 58.57 C 168.11 63.75 168.11 63.75 160.64 73.62 C 156.53 79.06 152.11 84.48 150.83 85.67 C 149.21 87.18 141.68 89.71 126.23 93.92 C 113.98 97.27 103.74 100.00 103.48 100.00 C 103.22 100.00 103.00 100.51 103.00 101.13 C 103.00 101.93 106.96 102.13 116.79 101.82 C 130.57 101.38 130.57 101.38 130.16 107.94 C 129.64 116.45 127.09 121.60 122.95 122.51 C 121.25 122.88 119.78 123.03 119.68 122.85 C 119.58 122.66 118.19 119.88 116.59 116.67 C 114.72 112.94 112.09 109.63 109.27 107.48 C 104.22 103.63 95.96 100.56 93.09 101.47 C 91.40 102.01 92.14 103.09 98.42 109.30 C 103.34 114.15 106.13 117.80 106.99 120.50 C 108.75 126.03 109.87 127.15 113.42 126.93 C 115.12 126.82 117.62 127.21 119.00 127.80 C 122.72 129.40 123.63 129.30 139.18 125.55 Z  M 45.90 124.19 C 47.84 120.38 47.84 120.38 62.41 118.12 C 70.42 116.87 80.40 115.59 84.58 115.27 C 89.79 114.88 92.35 114.25 92.72 113.29 C 93.74 110.63 91.25 107.45 85.87 104.57 C 82.92 102.99 80.41 101.63 80.29 101.55 C 80.18 101.48 82.76 96.06 86.03 89.52 C 91.57 78.45 91.91 77.38 90.97 73.91 C 89.75 69.34 84.95 64.00 82.07 64.00 C 80.91 64.00 76.92 65.52 73.23 67.39 C 69.53 69.25 62.48 72.19 57.57 73.92 C 52.66 75.65 46.52 78.22 43.94 79.63 C 40.14 81.70 38.83 81.98 37.18 81.10 C 34.20 79.50 31.53 79.75 28.92 81.87 C 26.61 83.73 26.61 83.73 30.73 86.33 C 34.38 88.64 34.96 89.54 35.92 94.46 C 38.11 105.68 38.95 110.68 39.97 118.35 C 41.45 129.51 42.61 130.65 45.90 124.19 Z  M 121.80 90.80 C 123.81 88.79 123.21 83.35 120.64 80.37 C 118.68 78.08 117.15 77.51 111.39 76.87 C 101.83 75.81 94.00 75.83 94.00 76.91 C 94.00 79.19 106.22 87.00 115.50 90.66 C 119.44 92.22 120.36 92.24 121.80 90.80 Z  M 147.00 81.44 C 147.00 76.13 146.77 75.64 141.95 70.54 C 136.37 64.64 131.60 62.00 129.78 63.82 C 126.72 66.88 139.91 87.00 144.97 87.00 C 146.77 87.00 147.00 86.36 147.00 81.44 Z  M 124.20 58.55 C 129.31 57.22 139.57 54.56 147.00 52.64 C 154.43 50.72 164.78 48.62 170.00 47.99 C 187.13 45.90 194.00 43.35 194.00 39.07 C 194.00 36.05 179.73 31.73 165.33 30.39 C 158.24 29.74 158.24 29.74 157.09 33.23 C 156.06 36.36 154.90 37.22 146.22 41.30 C 135.86 46.17 108.18 55.92 98.67 58.05 C 95.51 58.76 93.29 59.67 93.72 60.08 C 96.38 62.63 111.38 61.87 124.20 58.55 Z  M 107.49 172.90 C 107.88 169.93 108.50 167.21 108.85 166.85 C 109.61 166.09 123.59 162.22 129.75 161.06 C 134.00 160.26 134.00 160.26 134.00 165.52 C 134.00 170.77 134.00 170.77 129.48 171.45 C 126.81 171.85 123.89 173.12 122.34 174.56 C 120.31 176.44 118.61 177.00 114.94 177.00 C 112.31 177.00 109.40 177.29 108.47 177.65 C 106.95 178.23 106.85 177.73 107.49 172.90 Z  M 109.99 156.75 C 109.98 154.96 109.70 151.81 109.36 149.75 C 108.74 146.00 108.74 146.00 112.77 146.00 C 114.99 146.00 119.21 144.88 122.15 143.51 C 131.03 139.38 134.00 140.61 134.00 148.43 C 134.00 151.49 133.67 152.00 131.69 152.00 C 127.95 152.00 117.35 155.95 115.45 158.06 C 112.60 161.21 110.00 160.59 109.99 156.75 Z  M 137.00 118.20 C 138.92 116.65 139.30 115.14 139.75 107.33 C 140.26 98.25 140.26 98.25 146.12 96.63 C 154.31 94.35 155.00 94.46 155.00 98.04 C 155.00 101.89 152.28 107.13 146.96 113.50 C 142.56 118.77 140.97 119.82 137.14 119.93 C 134.78 120.00 134.78 120.00 137.00 118.20 Z  M 155.97 111.20 C 162.82 105.87 167.00 100.79 167.00 97.80 C 167.00 96.18 166.35 94.69 165.50 94.36 C 162.55 93.23 164.10 92.19 170.33 91.10 C 178.26 89.72 184.56 89.69 187.05 91.03 C 188.85 91.99 188.63 92.55 183.73 99.66 C 178.49 107.27 178.49 107.27 168.50 109.62 C 163.00 110.91 157.72 112.43 156.76 112.99 C 153.20 115.07 152.63 113.79 155.97 111.20 Z  M 47.99 113.86 C 47.95 112.56 43.09 90.20 42.57 88.94 C 42.06 87.69 44.11 86.64 52.85 83.69 C 66.60 79.03 72.05 78.19 74.25 80.39 C 77.13 83.28 77.46 91.72 74.94 98.44 C 71.86 106.67 69.89 108.28 59.89 110.79 C 55.19 111.97 50.59 113.22 49.67 113.57 C 48.75 113.93 48.00 114.05 47.99 113.86 Z "/>
</g>
</svg>