<?xml version="1.0" encoding="UTF-8" standalone="no"?>
<!DOCTYPE svg PUBLIC "-//W3C//DTD SVG 1.1//EN" "http://www.w3.org/Graphics/SVG/1.1/DTD/svg11.dtd" >
<svg xmlns="http://www.w3.org/2000/svg" xmlns:xlink="http://www.w3.org/1999/xlink" version="1.1" viewBox="0 0 256 256">
 <g >
 <path fill="currentColor"
d=" M 141.13 224.87 C 143.29 222.71 143.31 222.18 141.77 210.50 C 141.52 208.66 142.25 208.45 151.00 207.89 C 156.22 207.56 167.60 206.32 176.29 205.14 C 199.28 202.02 205.05 202.22 216.14 206.50 C 227.24 210.79 236.07 211.31 240.37 207.93 C 245.99 203.50 243.69 200.42 229.36 193.18 C 226.03 191.50 221.85 188.91 220.09 187.42 C 216.87 184.72 216.87 184.72 214.19 186.70 C 209.12 190.45 205.17 191.96 196.43 193.48 C 191.62 194.32 187.51 194.85 187.31 194.65 C 186.90 194.24 190.93 180.98 194.58 170.69 C 195.91 166.95 197.00 162.85 197.00 161.59 C 197.00 159.57 197.79 159.13 203.65 157.90 C 208.92 156.79 210.74 155.91 212.40 153.65 C 214.50 150.80 214.50 150.80 211.00 147.65 C 204.81 142.07 203.84 140.53 204.87 137.89 C 205.37 136.58 208.09 132.89 210.89 129.69 C 218.20 121.38 217.93 118.46 209.27 111.91 C 203.05 107.22 196.61 104.84 193.37 106.05 C 192.19 106.49 188.37 109.52 184.87 112.78 C 177.79 119.37 175.20 121.00 171.87 121.00 C 169.70 121.00 169.73 120.87 172.74 117.75 C 176.57 113.78 177.69 110.96 179.09 101.68 C 179.69 97.73 181.04 91.36 182.09 87.52 C 183.14 83.68 184.00 79.52 184.00 78.27 C 184.00 76.11 184.37 76.00 191.57 76.00 C 197.93 76.00 199.86 75.58 203.59 73.39 C 215.49 66.42 208.84 61.00 188.42 61.00 C 178.61 61.00 173.56 62.68 171.81 66.52 C 169.76 71.02 166.35 72.00 152.70 72.00 C 141.58 72.00 140.12 71.80 138.50 70.00 C 136.06 67.30 132.43 67.48 129.45 70.45 C 126.28 73.63 126.20 78.98 129.25 83.88 C 131.50 87.50 131.50 87.50 131.53 152.52 C 131.56 198.10 131.90 218.43 132.69 220.52 C 133.31 222.16 134.07 224.29 134.37 225.25 C 135.14 227.64 138.55 227.45 141.13 224.87 Z  M 66.07 217.40 C 72.07 212.83 85.24 199.27 89.70 193.07 C 92.44 189.26 92.44 189.26 99.11 199.09 C 102.78 204.50 107.93 211.44 110.55 214.51 C 114.70 219.37 115.52 219.91 116.76 218.66 C 117.55 217.87 118.77 214.51 119.46 211.19 C 120.72 205.15 120.72 205.15 110.36 191.92 C 104.66 184.64 100.00 178.49 100.00 178.25 C 100.00 178.01 102.97 173.09 106.59 167.31 C 114.58 154.58 129.00 127.02 129.00 124.48 C 129.00 119.12 113.24 100.96 108.64 101.03 C 107.46 101.05 102.25 102.83 97.05 105.00 C 91.85 107.16 87.44 108.77 87.25 108.58 C 87.06 108.39 89.59 99.97 92.87 89.87 C 96.15 79.77 99.33 67.93 99.94 63.57 C 101.01 55.78 100.98 55.58 98.34 51.77 C 93.41 44.65 78.27 32.35 76.59 34.09 C 76.37 34.32 77.52 38.44 79.13 43.26 C 82.07 52.01 82.07 52.01 80.99 69.76 C 79.80 89.31 77.51 109.52 76.06 113.35 C 75.35 115.21 70.98 117.99 58.51 124.51 C 37.79 135.35 28.24 139.50 18.42 141.96 C 9.95 144.07 7.51 145.52 10.58 146.62 C 11.64 146.99 13.49 148.19 14.70 149.28 C 16.91 151.26 16.92 151.26 25.32 148.64 C 29.95 147.20 41.85 141.96 51.76 137.01 C 61.68 132.05 70.11 128.00 70.51 128.00 C 71.81 128.00 69.94 133.44 66.95 138.32 C 65.33 140.97 64.00 143.59 64.00 144.15 C 64.00 145.76 70.23 156.44 78.46 168.97 C 82.61 175.27 86.00 180.82 86.00 181.29 C 86.00 182.35 82.61 187.36 68.83 206.67 C 62.87 215.02 58.00 222.13 58.00 222.48 C 58.00 223.35 59.54 222.38 66.07 217.40 Z  M 143.77 198.62 C 142.01 196.87 140.99 176.40 141.03 143.50 C 141.05 121.50 141.05 121.50 144.53 125.24 C 148.00 128.97 148.00 128.97 148.00 141.68 C 148.00 157.46 149.49 165.66 152.50 166.41 C 153.67 166.70 159.54 166.10 165.56 165.06 C 176.50 163.18 176.50 163.18 179.36 165.84 C 182.16 168.44 182.21 168.67 181.67 176.56 C 180.91 187.85 179.22 193.97 176.61 194.95 C 175.45 195.38 170.90 196.06 166.50 196.46 C 158.71 197.16 150.18 198.51 146.86 199.55 C 145.95 199.84 144.56 199.42 143.77 198.62 Z  M 161.58 157.75 C 163.01 153.79 162.22 143.65 159.98 137.16 C 158.78 133.70 157.96 130.72 158.15 130.53 C 158.34 130.34 166.46 127.59 176.18 124.41 C 198.04 117.27 197.53 117.11 196.71 130.79 C 196.37 136.46 195.57 141.00 194.68 142.37 C 192.83 145.19 177.25 156.58 172.56 158.54 C 170.64 159.34 167.20 160.00 164.92 160.00 C 161.04 160.00 160.82 159.85 161.58 157.75 Z  M 149.39 120.89 C 147.83 119.26 145.53 117.67 144.28 117.35 C 142.24 116.84 142.00 116.19 142.04 111.14 C 142.06 108.04 142.47 101.06 142.95 95.63 C 143.78 86.38 144.04 85.56 147.11 82.38 C 150.24 79.16 150.73 79.00 157.58 79.00 C 164.70 79.00 164.80 79.04 168.38 83.00 C 171.37 86.31 172.00 87.76 172.00 91.34 C 172.00 96.55 168.95 108.92 165.95 115.90 C 164.02 120.38 163.36 121.02 160.14 121.54 C 158.14 121.86 155.54 122.52 154.37 122.99 C 152.67 123.68 151.65 123.25 149.39 120.89 Z  M 86.81 160.71 C 79.66 149.08 78.34 144.21 79.86 135.00 C 81.66 124.11 82.14 123.35 87.99 122.10 C 95.88 120.40 99.07 120.77 104.75 124.03 C 110.92 127.57 111.27 129.26 107.93 139.28 C 106.09 144.79 94.96 167.35 93.17 169.21 C 92.79 169.60 89.93 165.78 86.81 160.71 Z "/>
</g>
</svg>