<?xml version="1.0" encoding="UTF-8" standalone="no"?>
<!DOCTYPE svg PUBLIC "-//W3C//DTD SVG 1.1//EN" "http://www.w3.org/Graphics/SVG/1.1/DTD/svg11.dtd" >
<svg xmlns="http://www.w3.org/2000/svg" xmlns:xlink="http://www.w3.org/1999/xlink" version="1.1" viewBox="0 0 256 256">
 <g >
 <path fill="currentColor"
d=" M 224.50 230.60 C 229.45 229.83 234.61 228.78 235.96 228.25 C 238.21 227.38 237.96 227.19 232.96 226.03 C 226.18 224.45 212.97 219.10 202.79 213.82 C 197.13 210.88 192.10 206.99 183.89 199.18 C 172.34 188.18 156.00 169.95 156.00 168.05 C 156.00 167.45 158.19 162.58 160.86 157.23 C 170.16 138.60 175.08 118.57 171.00 115.98 C 168.57 114.45 162.59 115.81 140.75 122.88 C 134.29 124.97 129.01 126.42 129.02 126.09 C 129.10 123.40 138.01 98.57 139.11 97.96 C 142.42 96.10 157.21 93.11 166.22 92.46 C 171.56 92.08 176.71 91.20 177.65 90.52 C 179.15 89.42 179.20 88.89 178.02 86.06 C 175.07 78.92 170.46 78.57 152.01 84.09 C 146.40 85.77 141.58 86.91 141.30 86.63 C 141.01 86.35 142.47 79.23 144.53 70.81 C 146.59 62.39 148.48 52.58 148.74 49.00 C 149.17 42.94 148.98 42.21 146.07 38.21 C 142.16 32.86 138.84 31.45 133.75 32.96 C 129.56 34.21 128.55 37.40 132.00 38.50 C 133.87 39.09 134.00 40.00 133.98 52.82 C 133.96 66.36 133.09 75.48 130.81 85.85 C 129.46 92.01 131.56 90.73 107.18 100.32 C 90.86 106.75 90.86 106.75 94.50 109.00 C 98.94 111.75 102.58 111.42 116.10 107.07 C 121.22 105.43 125.57 104.23 125.76 104.42 C 126.36 105.02 121.99 121.00 117.55 134.50 C 107.74 164.29 97.53 184.08 85.24 197.13 C 81.32 201.30 82.20 202.78 87.31 200.64 C 92.84 198.33 99.17 193.25 102.79 188.21 C 106.96 182.41 114.96 166.66 118.00 158.25 C 119.25 154.81 120.80 152.00 121.46 152.00 C 122.11 152.00 125.99 154.29 130.07 157.09 C 137.27 162.03 141.89 166.45 141.96 168.49 C 141.98 169.04 140.49 171.74 138.64 174.49 C 136.79 177.25 133.65 182.01 131.66 185.07 C 128.32 190.22 122.03 196.74 111.14 206.34 C 108.22 208.93 107.12 210.52 107.80 211.20 C 110.04 213.44 127.51 201.93 135.06 193.24 C 136.85 191.18 141.13 186.49 144.57 182.82 C 150.84 176.14 150.84 176.14 161.68 188.82 C 167.65 195.79 176.45 206.75 181.23 213.16 C 192.97 228.88 197.43 231.90 209.00 231.95 C 212.57 231.97 219.55 231.36 224.50 230.60 Z  M 77.47 204.75 C 77.88 194.71 78.51 173.62 78.86 157.87 C 79.50 129.24 79.50 129.24 84.46 123.94 C 89.79 118.24 89.35 116.42 83.48 119.88 C 80.00 121.93 80.00 121.93 80.01 114.22 C 80.01 109.97 80.30 103.50 80.64 99.83 C 81.27 93.16 81.27 93.16 89.81 89.94 C 98.35 86.72 98.35 86.72 93.92 84.40 C 91.40 83.09 87.67 82.07 85.25 82.05 C 81.00 82.00 81.00 82.00 81.00 69.07 C 81.00 61.96 81.48 52.67 82.07 48.43 C 82.66 44.19 82.89 39.70 82.58 38.46 C 82.27 37.21 79.87 34.76 77.26 33.02 C 73.13 30.26 71.83 29.89 67.43 30.24 C 64.64 30.45 61.32 31.36 60.06 32.25 C 57.76 33.86 57.76 33.86 61.69 34.92 C 66.06 36.09 69.32 39.05 70.93 43.32 C 71.55 44.95 72.00 54.09 72.00 65.09 C 72.00 83.80 71.97 84.05 69.75 84.97 C 60.49 88.76 47.39 93.94 35.63 98.47 C 23.56 103.10 22.02 103.94 23.81 104.90 C 29.09 107.73 44.04 105.75 61.81 99.87 C 66.94 98.18 71.30 96.97 71.52 97.19 C 71.74 97.41 71.64 104.70 71.30 113.40 C 70.70 128.74 70.60 129.29 68.09 131.69 C 62.64 136.91 44.65 148.99 39.20 151.09 C 33.84 153.16 31.86 153.38 24.50 152.76 C 21.98 152.54 21.53 152.84 21.71 154.62 C 22.17 159.13 26.18 167.85 29.66 171.92 C 33.31 176.17 33.31 176.17 51.90 157.60 C 70.50 139.02 70.50 139.02 70.25 153.76 C 70.12 161.87 69.73 174.01 69.40 180.75 C 68.69 195.26 68.51 195.39 58.38 189.00 C 54.90 186.80 51.89 185.00 51.70 185.00 C 51.50 185.00 51.54 186.30 51.77 187.88 C 52.00 189.47 54.36 193.45 57.01 196.72 C 59.66 200.00 63.70 206.46 65.98 211.08 C 70.63 220.50 72.53 223.00 75.02 223.00 C 76.54 223.00 76.81 221.00 77.47 204.75 Z  M 198.69 73.35 C 200.82 70.09 199.79 64.44 196.42 60.92 C 191.47 55.75 184.68 53.55 173.85 53.60 C 166.50 53.63 163.57 54.05 161.60 55.34 C 158.32 57.49 158.27 59.00 161.49 59.00 C 165.86 59.00 173.81 62.66 178.61 66.89 C 189.88 76.81 195.29 78.55 198.69 73.35 Z  M 145.51 158.01 C 144.22 155.93 135.58 151.65 129.46 150.06 C 125.94 149.14 122.85 148.19 122.60 147.93 C 122.34 147.68 123.14 144.33 124.37 140.48 C 126.61 133.50 126.61 133.50 135.05 130.85 C 149.17 126.43 151.72 126.03 153.48 127.97 C 154.31 128.90 155.00 131.45 155.00 133.65 C 155.00 140.90 149.25 159.00 146.95 159.00 C 146.49 159.00 145.84 158.56 145.51 158.01 Z "/>
</g>
</svg>