<?xml version="1.0" encoding="UTF-8" standalone="no"?>
<!DOCTYPE svg PUBLIC "-//W3C//DTD SVG 1.1//EN" "http://www.w3.org/Graphics/SVG/1.1/DTD/svg11.dtd" >
<svg xmlns="http://www.w3.org/2000/svg" xmlns:xlink="http://www.w3.org/1999/xlink" version="1.1" viewBox="0 0 256 256">
 <g >
 <path fill="currentColor"
d=" M 119.29 186.25 C 119.08 156.94 119.15 155.62 120.79 157.98 C 126.03 165.58 126.86 166.04 138.00 167.53 C 151.14 169.29 151.00 169.29 151.00 167.58 C 151.00 164.76 140.40 156.81 129.79 151.68 C 119.14 146.53 119.08 146.48 119.04 142.89 C 119.00 139.36 119.11 139.26 123.43 138.67 C 128.42 137.98 138.24 131.77 143.13 126.20 C 145.84 123.11 146.41 122.87 148.63 123.88 C 149.98 124.49 152.05 125.00 153.21 125.00 C 156.55 125.00 164.72 130.75 165.44 133.60 C 168.02 143.90 152.46 182.32 140.04 196.30 C 136.72 200.04 134.00 203.55 134.00 204.11 C 134.00 206.24 144.74 199.22 151.02 193.00 C 158.19 185.88 161.98 179.43 168.50 163.23 C 172.68 152.83 172.68 152.83 176.94 157.66 C 181.58 162.94 184.09 167.01 195.62 187.97 C 205.18 205.34 208.34 208.77 217.55 211.77 C 223.30 213.64 226.70 214.03 237.22 214.01 C 248.08 214.00 249.85 213.78 249.36 212.51 C 248.59 210.49 237.86 203.50 224.59 196.37 C 214.29 190.83 212.98 189.75 201.10 177.00 C 194.17 169.57 185.21 160.17 181.17 156.09 C 173.82 148.69 173.82 148.69 175.41 143.03 C 177.67 135.00 177.44 133.12 173.47 126.52 C 170.79 122.06 170.25 120.46 171.22 119.84 C 171.92 119.40 172.88 119.02 173.34 119.02 C 173.80 119.01 177.82 117.40 182.28 115.44 C 193.58 110.47 200.43 108.78 203.55 110.20 C 204.90 110.82 206.00 111.94 206.00 112.69 C 206.00 115.23 200.89 124.17 197.51 127.55 C 194.29 130.77 192.29 134.62 193.30 135.64 C 193.57 135.91 197.77 135.18 202.64 134.02 C 217.42 130.51 229.00 124.18 229.00 119.62 C 229.00 116.32 224.00 109.28 216.62 102.19 C 209.06 94.93 206.30 94.31 202.78 99.10 C 201.53 100.80 198.93 103.00 197.00 103.98 C 192.52 106.26 170.68 113.55 165.68 114.44 C 161.94 115.10 161.89 115.07 163.09 112.81 C 163.76 111.54 166.09 107.86 168.27 104.63 C 178.31 89.77 186.00 69.61 186.00 58.13 C 186.00 50.13 182.79 40.10 178.30 34.06 C 176.85 32.10 175.62 30.44 175.58 30.37 C 175.54 30.31 174.55 29.96 173.39 29.60 C 172.05 29.19 170.48 29.60 169.11 30.73 C 166.94 32.50 166.94 32.50 170.69 38.48 C 174.15 43.99 174.43 45.00 174.33 51.48 C 174.26 55.64 172.91 63.80 171.01 71.50 C 167.75 84.76 157.73 115.73 156.30 117.02 C 155.86 117.41 153.94 118.03 152.03 118.39 C 148.56 119.04 148.56 119.04 152.28 115.23 C 157.07 110.32 157.20 107.00 152.75 103.67 C 144.75 97.68 138.95 96.72 127.50 99.48 C 118.47 101.66 119.00 102.15 119.00 91.70 C 119.00 82.39 119.00 82.39 126.59 81.12 C 136.04 79.53 144.00 77.20 144.00 76.03 C 144.00 75.55 142.31 73.73 140.25 71.99 C 136.76 69.06 136.12 68.88 131.00 69.43 C 127.97 69.75 124.04 70.29 122.25 70.62 C 119.00 71.23 119.00 71.23 119.00 58.63 C 119.00 51.70 119.51 44.11 120.14 41.76 C 121.15 37.96 121.02 36.97 118.89 32.56 C 115.34 25.23 114.02 24.84 108.67 29.55 C 106.20 31.72 104.15 33.91 104.09 34.41 C 104.04 34.91 105.46 37.60 107.25 40.38 C 110.46 45.38 110.50 45.62 110.83 59.24 C 111.15 73.04 111.15 73.04 107.82 74.43 C 105.99 75.20 100.73 76.40 96.14 77.10 C 86.98 78.50 85.40 79.85 88.86 83.31 C 91.23 85.68 95.35 85.99 105.29 84.55 C 111.07 83.72 111.07 83.72 110.79 94.07 C 110.50 104.42 110.50 104.42 100.00 107.74 C 93.01 109.95 87.83 111.00 84.50 110.87 C 77.32 110.60 75.00 110.87 75.00 111.97 C 75.00 112.50 76.77 115.68 78.94 119.03 C 81.11 122.39 82.64 125.78 82.34 126.57 C 82.03 127.36 82.22 128.00 82.76 128.00 C 83.30 128.00 84.98 129.88 86.49 132.17 C 89.25 136.34 89.25 136.34 86.39 138.42 C 84.81 139.56 82.61 141.40 81.51 142.50 C 79.50 144.50 79.50 144.50 83.73 144.81 C 86.06 144.98 92.02 144.41 96.98 143.56 C 101.94 142.70 106.49 142.00 107.08 142.00 C 108.57 142.00 104.83 147.99 97.38 157.50 C 87.93 169.58 80.56 176.89 69.25 185.38 C 63.61 189.61 59.00 193.51 59.00 194.04 C 59.00 196.30 67.73 194.91 74.77 191.54 C 90.10 184.20 98.82 176.47 105.83 164.02 C 109.50 157.50 109.50 157.50 110.00 184.00 C 110.40 205.38 110.79 210.90 112.00 212.58 C 113.56 214.74 116.78 216.92 118.50 216.97 C 119.15 216.99 119.42 206.24 119.29 186.25 Z  M 48.40 209.75 C 49.19 208.51 51.62 203.00 53.79 197.50 C 55.96 192.00 61.68 178.72 66.50 168.00 C 75.78 147.32 82.02 131.91 81.97 129.79 C 81.92 127.84 80.54 130.55 76.63 140.25 C 74.72 144.98 70.80 152.37 67.92 156.68 C 59.29 169.57 50.91 181.00 50.09 181.00 C 48.46 181.00 47.00 175.65 47.00 169.70 C 47.00 166.29 47.88 158.10 48.95 151.50 C 53.41 124.11 53.01 120.85 44.68 116.14 C 33.29 109.68 23.21 108.22 30.63 114.09 C 35.40 117.87 39.67 124.05 41.05 129.19 C 43.91 139.80 45.02 170.12 42.92 179.94 C 42.12 183.66 41.08 185.52 38.92 187.06 C 35.72 189.34 35.25 191.88 37.40 195.29 C 38.17 196.50 39.31 199.96 39.93 202.96 C 41.68 211.35 45.44 214.37 48.40 209.75 Z  M 57.50 88.00 C 59.65 85.80 62.11 84.00 62.97 84.00 C 63.83 84.00 66.24 85.16 68.33 86.57 C 73.03 89.77 74.56 88.83 75.48 82.16 C 75.97 78.57 75.60 75.98 73.97 71.46 C 72.17 66.51 70.36 64.11 63.26 57.25 C 55.03 49.30 54.54 49.00 50.02 49.00 C 47.44 49.00 45.04 49.29 44.68 49.66 C 44.32 50.02 46.05 52.69 48.54 55.60 C 54.64 62.74 56.00 66.41 56.00 75.76 C 56.00 81.60 55.50 84.57 54.00 87.50 C 51.73 91.96 51.72 92.00 52.80 92.00 C 53.24 92.00 55.35 90.20 57.50 88.00 Z  M 93.02 125.84 C 91.81 121.36 90.59 117.08 90.30 116.34 C 89.93 115.38 90.74 115.00 93.14 114.99 C 94.99 114.99 99.42 114.09 103.00 113.00 C 106.58 111.91 109.72 111.01 110.00 111.01 C 110.28 111.00 110.28 115.59 110.00 121.21 C 109.50 131.43 109.50 131.43 103.50 132.67 C 100.20 133.35 96.99 133.93 96.36 133.96 C 95.73 133.98 94.23 130.33 93.02 125.84 Z  M 119.00 118.70 C 119.00 107.25 119.00 107.25 122.12 106.62 C 127.30 105.59 131.93 105.91 135.05 107.53 C 137.55 108.82 138.00 109.65 138.00 112.94 C 138.00 115.07 137.04 119.32 135.88 122.37 C 133.80 127.81 133.66 127.93 129.13 128.52 C 126.58 128.86 123.26 129.36 121.75 129.64 C 119.00 130.16 119.00 130.16 119.00 118.70 Z "/>
</g>
</svg>