<?xml version="1.0" encoding="UTF-8" standalone="no"?>
<!DOCTYPE svg PUBLIC "-//W3C//DTD SVG 1.1//EN" "http://www.w3.org/Graphics/SVG/1.1/DTD/svg11.dtd" >
<svg xmlns="http://www.w3.org/2000/svg" xmlns:xlink="http://www.w3.org/1999/xlink" version="1.1" viewBox="0 0 256 256">
 <g >
 <path fill="currentColor"
d=" M 225.37 223.93 C 227.46 222.28 228.00 221.00 228.00 217.68 C 227.99 212.12 225.35 208.08 219.13 204.08 C 216.31 202.27 213.97 200.50 213.93 200.15 C 212.97 191.08 212.47 157.46 213.08 142.00 C 213.94 119.65 215.14 107.56 217.63 96.01 C 219.24 88.51 219.24 88.51 213.49 83.28 C 210.32 80.40 205.83 77.13 203.50 76.00 C 198.74 73.70 185.93 71.00 179.66 70.99 C 175.70 70.98 175.38 70.75 172.90 66.07 C 170.31 61.18 170.31 61.15 172.40 60.59 C 173.55 60.28 176.34 60.02 178.59 60.01 C 180.84 60.01 190.74 59.10 200.59 58.01 C 210.44 56.91 221.65 56.01 225.50 55.99 C 238.46 55.95 245.48 48.94 236.81 44.70 C 230.42 41.57 221.05 41.48 207.08 44.41 C 195.91 46.75 172.76 50.20 159.50 51.50 C 148.12 52.62 131.00 55.40 131.00 56.14 C 131.00 57.76 135.27 59.12 143.16 60.02 C 147.62 60.53 151.37 61.07 151.48 61.22 C 151.59 61.37 153.55 64.02 155.84 67.09 C 158.13 70.17 160.00 73.53 160.00 74.57 C 160.00 75.62 155.93 80.54 150.90 85.60 C 141.80 94.74 141.80 94.74 140.94 135.12 C 140.46 157.33 139.77 177.03 139.40 178.90 C 138.73 182.29 138.73 182.29 144.10 181.58 C 147.05 181.19 149.82 180.34 150.26 179.68 C 150.70 179.03 150.93 175.73 150.78 172.34 C 150.50 166.18 150.50 166.18 156.77 163.09 C 160.22 161.39 164.19 160.00 165.61 160.00 C 168.07 160.00 168.15 160.17 167.47 164.25 C 166.62 169.35 165.78 171.07 156.62 186.45 C 150.20 197.22 148.46 199.32 138.75 207.90 C 125.51 219.60 125.22 220.31 134.81 217.46 C 144.45 214.60 162.30 201.82 170.17 192.14 C 174.27 187.10 174.27 187.10 184.13 194.70 C 189.56 198.88 194.00 202.64 194.00 203.05 C 194.00 204.37 213.33 224.18 215.45 225.04 C 219.00 226.48 222.64 226.07 225.37 223.93 Z  M 15.69 193.47 C 24.64 187.60 51.28 157.35 56.38 147.25 C 57.84 144.36 59.39 142.00 59.83 142.00 C 63.81 142.00 65.98 150.08 65.99 164.96 C 66.00 173.42 66.00 173.42 71.68 178.71 C 79.42 185.91 82.61 185.58 84.41 177.39 C 84.99 174.79 85.54 174.35 88.29 174.32 C 94.31 174.27 109.11 170.73 112.30 168.58 C 114.04 167.40 115.92 165.17 116.47 163.61 C 117.31 161.21 117.13 160.52 115.22 158.97 C 113.98 157.98 112.48 156.99 111.87 156.79 C 111.26 156.59 113.29 152.52 116.43 147.65 C 125.05 134.30 133.00 119.76 133.00 117.38 C 133.00 114.09 127.39 109.25 122.63 108.42 C 116.49 107.35 103.99 107.66 99.01 109.00 C 96.60 109.65 92.04 111.94 88.87 114.09 C 83.88 117.48 82.37 118.00 77.55 118.00 C 74.50 118.00 72.00 117.71 72.00 117.36 C 72.00 117.01 76.80 107.45 82.66 96.11 C 93.68 74.80 98.89 66.25 103.39 62.08 C 104.91 60.66 106.00 58.57 106.00 57.05 C 106.00 55.41 107.11 53.47 109.00 51.81 C 112.61 48.64 112.74 46.98 109.66 43.39 C 106.23 39.41 102.30 39.98 85.74 46.85 C 67.87 54.27 62.77 55.92 54.84 56.83 C 48.69 57.54 48.57 57.61 51.00 59.03 C 52.81 60.08 57.69 60.58 68.66 60.83 C 83.68 61.17 83.83 61.20 84.42 63.56 C 87.10 74.21 61.52 125.04 33.67 164.44 C 24.50 177.40 11.73 193.25 8.81 195.29 C 6.55 196.86 6.57 196.87 9.87 195.98 C 11.73 195.48 14.35 194.35 15.69 193.47 Z  M 191.00 190.39 C 184.12 187.45 177.94 185.04 177.25 185.02 C 176.56 185.01 176.00 184.63 176.00 184.18 C 176.00 181.85 183.02 163.89 184.95 161.28 C 188.21 156.87 187.40 153.80 182.56 152.21 C 173.20 149.16 159.23 148.45 151.25 150.62 C 149.10 151.21 149.00 150.97 149.00 145.29 C 149.00 139.35 149.00 139.35 156.75 138.19 C 161.01 137.55 169.65 136.56 175.95 135.98 C 182.25 135.40 187.63 134.71 187.89 134.44 C 188.16 134.18 187.94 132.73 187.42 131.23 C 186.05 127.35 177.88 123.05 171.78 123.02 C 167.78 123.00 159.94 125.31 149.70 129.51 C 148.06 130.19 147.92 129.71 148.20 124.41 C 148.56 117.37 147.93 117.63 168.29 116.16 C 182.18 115.17 186.32 113.94 187.67 110.42 C 188.48 108.31 186.30 103.67 183.75 102.08 C 180.66 100.15 170.64 100.53 160.35 102.98 C 155.59 104.11 151.45 104.79 151.15 104.48 C 150.37 103.71 152.83 94.94 154.57 92.26 C 155.37 91.03 157.87 89.09 160.12 87.94 C 163.58 86.18 164.66 86.03 167.03 87.01 C 169.19 87.91 172.89 87.89 182.82 86.94 C 189.95 86.26 196.44 85.95 197.24 86.26 C 199.24 87.03 199.81 94.63 201.00 136.50 C 201.55 155.75 202.46 176.86 203.01 183.40 C 203.57 189.95 203.91 195.40 203.76 195.51 C 203.62 195.63 197.88 193.32 191.00 190.39 Z  M 78.74 156.91 C 77.22 152.95 73.45 145.49 70.38 140.34 C 65.31 131.85 64.91 130.77 66.15 128.90 C 67.39 127.03 68.62 126.82 79.01 126.67 C 90.50 126.50 90.50 126.50 96.83 122.05 C 103.93 117.06 105.19 117.17 108.31 123.07 C 111.29 128.73 110.18 135.36 104.24 147.31 C 97.96 159.94 95.31 163.00 90.67 163.00 C 88.79 163.00 85.96 163.25 84.38 163.55 C 81.60 164.08 81.40 163.84 78.74 156.91 Z "/>
</g>
</svg>