<?xml version="1.0" encoding="UTF-8" standalone="no"?>
<!DOCTYPE svg PUBLIC "-//W3C//DTD SVG 1.1//EN" "http://www.w3.org/Graphics/SVG/1.1/DTD/svg11.dtd" >
<svg xmlns="http://www.w3.org/2000/svg" xmlns:xlink="http://www.w3.org/1999/xlink" version="1.1" viewBox="0 0 256 256">
 <g >
 <path fill="currentColor"
d=" M 201.39 224.46 C 208.11 223.08 213.00 220.82 213.00 219.09 C 213.00 218.62 210.41 217.92 207.25 217.54 C 197.55 216.36 178.18 212.02 170.65 209.33 C 156.30 204.21 146.05 198.13 138.13 190.06 C 134.07 185.92 129.63 181.07 128.26 179.27 C 125.77 176.00 125.77 176.00 128.33 169.09 C 129.74 165.29 132.04 157.52 133.44 151.84 C 134.91 145.86 136.68 140.99 137.63 140.29 C 138.53 139.63 142.25 138.16 145.88 137.03 C 154.93 134.23 159.00 131.63 159.00 128.64 C 159.00 124.43 156.57 123.48 146.43 123.70 C 139.19 123.86 135.90 124.43 131.34 126.35 C 121.74 130.37 91.45 138.95 86.75 138.98 C 85.24 138.99 84.00 139.37 84.00 139.83 C 84.00 141.72 93.45 148.46 94.87 147.58 C 95.32 147.30 97.86 150.96 100.53 155.71 C 103.19 160.45 106.86 166.29 108.69 168.68 C 110.51 171.06 112.00 173.29 112.00 173.62 C 112.00 173.95 109.65 177.17 106.78 180.77 C 101.19 187.80 87.73 197.44 71.12 206.32 C 63.55 210.36 62.94 210.90 64.81 211.90 C 69.50 214.41 81.81 212.24 92.56 207.01 C 99.24 203.76 108.67 196.85 116.73 189.31 C 121.97 184.41 121.97 184.41 126.86 190.52 C 129.55 193.87 134.19 199.30 137.15 202.56 C 140.12 205.83 144.45 211.06 146.76 214.19 C 153.76 223.64 156.78 225.39 167.42 226.13 C 178.97 226.93 192.57 226.26 201.39 224.46 Z  M 61.25 149.25 C 63.26 147.19 65.60 143.83 66.45 141.78 C 68.18 137.62 68.58 123.65 67.07 119.69 C 66.16 117.29 66.27 117.23 73.82 116.02 C 78.05 115.35 92.07 112.11 105.00 108.83 C 123.03 104.25 128.90 103.11 130.24 103.93 C 133.44 105.90 137.07 105.02 145.50 100.25 C 147.78 98.95 169.10 95.00 173.81 95.00 C 175.87 95.00 177.28 95.66 177.96 96.93 C 179.49 99.79 179.22 105.73 177.40 109.58 C 175.43 113.71 168.95 119.72 165.53 120.58 C 162.65 121.30 162.25 122.50 164.58 123.39 C 166.98 124.32 177.71 124.11 185.00 122.99 C 199.46 120.79 198.28 121.33 197.52 117.19 C 196.70 112.73 191.64 102.41 188.66 99.11 C 187.47 97.79 184.50 95.43 182.05 93.86 C 177.89 91.18 176.95 91.00 167.19 91.00 C 156.77 91.00 156.77 91.00 158.38 88.54 C 160.76 84.91 160.37 80.56 157.03 73.57 C 153.94 67.09 144.50 57.00 141.53 57.00 C 138.95 57.00 138.66 59.71 140.91 62.87 C 144.78 68.31 143.30 79.45 137.37 89.43 C 134.45 94.35 134.45 94.35 118.97 97.58 C 110.46 99.35 94.36 103.13 83.20 105.97 C 62.89 111.13 62.89 111.13 60.87 108.56 C 57.68 104.51 56.67 106.34 57.27 115.04 C 57.76 122.26 57.55 123.38 54.30 131.15 C 50.40 140.47 49.79 146.50 52.36 150.42 C 54.67 153.96 56.95 153.66 61.25 149.25 Z  M 98.98 94.53 C 103.94 88.55 92.18 67.11 84.54 68.21 C 79.28 68.96 83.25 83.15 90.94 91.13 C 95.97 96.35 97.07 96.82 98.98 94.53 Z  M 125.80 80.36 C 126.03 76.30 125.46 73.86 123.08 68.82 C 119.87 62.03 114.87 56.34 113.08 57.45 C 111.25 58.58 111.87 68.17 114.21 74.84 C 116.84 82.33 120.09 86.27 123.26 85.82 C 125.20 85.54 125.54 84.81 125.80 80.36 Z  M 109.50 55.02 C 123.58 54.04 131.17 52.54 145.95 47.81 C 157.64 44.08 163.00 41.45 163.00 39.43 C 163.00 35.37 155.70 31.60 145.50 30.40 C 139.66 29.72 137.32 30.59 130.61 35.92 C 124.64 40.66 117.25 43.08 98.00 46.58 C 90.03 48.03 83.29 49.41 83.04 49.65 C 81.79 50.84 85.17 53.63 89.10 54.67 C 94.58 56.12 93.88 56.11 109.50 55.02 Z  M 108.68 154.89 C 104.40 149.88 101.03 145.65 101.20 145.50 C 102.30 144.51 123.10 136.00 124.42 136.00 C 126.86 136.00 127.37 138.47 126.04 143.77 C 124.82 148.65 117.95 164.00 117.00 164.00 C 116.70 164.00 112.96 159.90 108.68 154.89 Z "/>
</g>
</svg>