<?xml version="1.0" encoding="UTF-8" standalone="no"?>
<!DOCTYPE svg PUBLIC "-//W3C//DTD SVG 1.1//EN" "http://www.w3.org/Graphics/SVG/1.1/DTD/svg11.dtd" >
<svg xmlns="http://www.w3.org/2000/svg" xmlns:xlink="http://www.w3.org/1999/xlink" version="1.1" viewBox="0 0 256 256">
 <g >
 <path fill="currentColor"
d=" M 90.34 213.75 C 94.70 207.95 100.13 195.89 101.63 188.68 C 102.44 184.81 103.32 181.29 103.59 180.86 C 104.47 179.43 107.96 156.58 107.99 152.00 C 108.05 144.27 108.56 143.54 115.95 140.66 C 119.70 139.20 123.00 138.00 123.30 138.00 C 123.60 138.00 123.99 146.66 124.17 157.25 C 124.50 176.19 124.55 176.59 127.36 182.00 C 132.32 191.53 134.58 193.77 144.09 198.54 C 154.80 203.93 162.81 205.94 177.50 206.94 C 196.06 208.21 221.60 205.42 241.18 199.97 C 245.99 198.63 247.48 194.48 246.71 184.59 C 245.81 172.98 238.61 154.00 235.12 154.00 C 234.67 154.00 234.00 160.07 233.63 167.50 C 233.25 174.92 232.40 182.68 231.72 184.74 C 229.51 191.49 218.16 196.31 199.39 198.45 C 188.37 199.71 158.36 195.75 151.20 192.10 C 145.50 189.19 135.26 178.83 132.96 173.65 C 130.29 167.62 128.79 135.18 131.10 133.43 C 132.44 132.42 150.64 124.00 151.50 124.00 C 151.73 124.00 151.64 134.01 151.30 146.25 C 150.75 165.94 150.85 168.36 152.17 167.26 C 154.01 165.75 157.59 158.57 158.54 154.50 C 158.93 152.85 159.53 144.30 159.87 135.50 C 160.50 119.50 160.50 119.50 165.50 117.84 C 168.25 116.93 172.17 115.87 174.21 115.49 C 177.63 114.85 177.96 115.00 178.58 117.46 C 179.36 120.59 177.56 135.93 175.39 144.50 C 174.56 147.80 172.37 153.56 170.52 157.29 C 167.37 163.69 167.30 164.04 169.34 163.41 C 176.27 161.28 181.88 155.52 192.27 139.87 C 198.05 131.18 209.00 112.28 209.00 111.02 C 209.00 110.15 188.84 95.96 184.34 93.66 C 181.21 92.06 181.08 92.09 172.84 96.62 C 168.25 99.14 164.07 101.60 163.55 102.10 C 161.11 104.42 160.72 102.50 161.30 90.98 C 161.63 84.37 162.26 78.41 162.69 77.73 C 164.10 75.54 165.97 69.56 165.98 67.21 C 166.01 64.15 157.96 55.64 152.59 53.04 C 148.20 50.92 143.51 50.37 142.58 51.87 C 142.28 52.35 143.89 57.64 146.15 63.62 C 150.68 75.61 151.89 82.99 151.96 99.14 C 152.00 109.77 152.00 109.77 141.46 116.89 C 135.66 120.80 130.48 124.00 129.94 124.00 C 129.39 124.00 128.55 122.94 128.06 121.66 C 127.08 119.08 124.34 116.00 123.02 116.00 C 122.56 116.00 122.43 118.69 122.73 121.98 C 123.27 127.96 123.27 127.96 116.89 130.98 C 113.37 132.64 110.02 134.00 109.43 134.00 C 108.84 134.00 107.84 131.26 107.22 127.90 C 105.89 120.75 105.00 119.45 100.91 118.63 C 97.57 117.96 87.77 120.82 82.12 124.11 C 80.27 125.20 78.53 125.86 78.25 125.59 C 77.98 125.31 78.07 122.60 78.45 119.57 C 79.12 114.17 79.24 114.01 83.14 112.84 C 85.72 112.07 88.54 110.05 91.07 107.18 C 97.79 99.55 95.89 97.31 85.41 100.49 C 82.71 101.31 80.39 101.98 80.25 101.99 C 80.11 102.00 80.00 100.18 80.00 97.95 C 80.00 94.23 80.60 93.31 87.39 86.70 C 94.00 80.25 94.84 79.00 95.46 74.69 C 96.31 68.71 94.91 66.57 90.72 67.41 C 89.13 67.72 86.52 68.92 84.92 70.06 C 82.00 72.14 82.00 72.14 82.00 69.90 C 82.00 68.67 81.31 66.89 80.46 65.96 C 79.05 64.40 79.31 63.80 83.37 59.04 C 87.94 53.69 89.80 49.40 88.23 47.83 C 87.71 47.31 82.76 50.29 76.42 54.93 C 60.99 66.22 61.62 65.97 57.73 62.35 C 53.02 57.97 44.98 52.52 38.09 49.04 C 34.77 47.37 31.84 46.00 31.56 46.00 C 31.29 46.00 30.59 46.90 30.00 47.99 C 28.68 50.47 30.44 54.19 34.98 58.50 C 42.34 65.49 43.06 69.01 44.54 105.50 C 45.17 121.05 43.87 149.58 42.34 153.55 C 41.35 156.13 44.51 155.11 48.73 151.50 C 50.98 149.57 53.46 148.00 54.25 148.00 C 55.04 148.00 58.35 146.29 61.59 144.21 C 73.15 136.79 84.22 130.84 87.45 130.31 C 90.09 129.89 91.33 130.34 93.84 132.64 C 96.38 134.97 97.14 136.70 97.97 142.00 C 99.93 154.54 98.78 173.24 96.59 164.51 C 95.80 161.34 90.52 155.32 86.90 153.45 C 84.02 151.96 73.98 151.41 74.02 152.75 C 74.04 153.16 75.50 154.21 77.27 155.08 C 79.05 155.96 81.03 157.71 81.67 158.99 C 82.31 160.26 84.77 163.08 87.14 165.24 C 90.68 168.47 92.02 169.10 94.72 168.78 C 96.52 168.57 97.99 168.65 97.98 168.95 C 97.91 170.33 94.02 181.05 92.55 183.91 C 90.00 188.83 86.64 189.55 76.25 187.42 C 72.69 186.69 73.62 188.64 78.41 191.94 C 83.37 195.35 84.00 197.26 84.23 209.76 C 84.34 215.97 84.61 217.00 86.13 217.00 C 87.10 217.00 89.00 215.54 90.34 213.75 Z  M 24.80 183.80 C 26.35 182.25 26.32 176.18 24.74 173.08 C 24.06 171.75 21.93 169.81 20.00 168.77 C 18.07 167.73 15.57 165.77 14.44 164.41 C 12.29 161.83 11.00 162.10 11.00 165.13 C 11.00 168.55 15.22 178.18 18.21 181.58 C 21.41 185.23 22.88 185.72 24.80 183.80 Z  M 46.03 177.47 C 47.04 176.25 47.05 175.11 46.09 171.89 C 45.12 168.65 44.14 167.54 41.19 166.33 C 39.16 165.50 36.30 163.68 34.83 162.30 C 33.36 160.91 31.68 160.08 31.08 160.45 C 29.02 161.72 30.02 164.81 34.43 170.80 C 40.35 178.84 43.42 180.61 46.03 177.47 Z  M 73.00 170.84 C 73.00 166.92 70.78 162.83 66.84 159.52 C 62.33 155.73 59.77 154.95 55.59 156.10 C 51.46 157.24 51.05 158.44 54.25 160.09 C 55.49 160.73 59.49 164.35 63.13 168.14 C 70.29 175.57 73.00 176.31 73.00 170.84 Z  M 53.34 135.24 C 53.70 131.35 54.24 127.55 54.53 126.79 C 55.04 125.46 69.03 118.00 71.02 118.00 C 71.56 118.00 72.00 120.67 72.00 123.93 C 72.00 129.47 71.78 130.04 68.56 132.68 C 66.67 134.23 62.32 137.03 58.90 138.90 C 52.68 142.31 52.68 142.31 53.34 135.24 Z  M 56.65 106.70 C 56.93 102.74 57.34 98.94 57.55 98.25 C 57.82 97.40 60.30 97.00 65.41 97.00 C 72.87 97.00 72.87 97.00 72.31 100.75 C 71.62 105.34 71.17 105.79 62.81 110.29 C 56.13 113.89 56.13 113.89 56.65 106.70 Z  M 59.02 83.25 C 59.02 80.64 59.36 78.00 59.77 77.39 C 60.48 76.32 70.10 71.71 70.52 72.24 C 71.76 73.79 73.00 77.37 73.00 79.41 C 73.00 81.44 71.92 82.58 67.75 84.97 C 60.19 89.30 59.00 89.07 59.02 83.25 Z "/>
</g>
</svg>