<?xml version="1.0" encoding="UTF-8" standalone="no"?>
<!DOCTYPE svg PUBLIC "-//W3C//DTD SVG 1.1//EN" "http://www.w3.org/Graphics/SVG/1.1/DTD/svg11.dtd" >
<svg xmlns="http://www.w3.org/2000/svg" xmlns:xlink="http://www.w3.org/1999/xlink" version="1.1" viewBox="0 0 256 256">
 <g >
 <path fill="currentColor"
d=" M 150.74 234.75 C 152.62 232.37 153.25 221.32 153.87 179.50 C 154.50 137.50 154.50 137.50 157.65 137.19 C 161.94 136.78 166.88 141.25 172.24 150.38 C 179.96 163.54 194.68 185.48 197.60 188.16 C 202.09 192.29 207.75 193.32 221.40 192.51 C 227.94 192.12 235.12 191.16 237.35 190.38 C 241.37 188.96 245.00 186.38 245.00 184.94 C 245.00 183.96 232.14 178.61 219.79 174.44 C 203.03 168.78 199.16 166.18 181.50 148.74 C 168.96 136.36 165.82 132.75 167.00 132.06 C 171.90 129.17 186.73 118.03 191.95 113.30 C 200.48 105.59 202.41 101.48 201.67 92.66 C 201.05 85.22 198.48 80.27 192.74 75.44 C 187.83 71.30 187.50 71.89 187.50 84.75 C 187.50 96.50 187.50 96.50 184.07 101.44 C 181.18 105.61 165.10 125.06 161.60 128.62 C 161.00 129.24 159.01 130.02 157.19 130.36 C 153.87 130.98 153.87 130.98 154.19 113.11 C 154.50 95.24 154.50 95.24 159.26 90.15 C 163.94 85.15 164.00 85.00 162.69 81.78 C 161.07 77.79 155.75 74.00 151.77 74.00 C 149.90 74.00 147.30 75.26 144.60 77.47 C 136.81 83.86 121.87 89.14 107.41 90.62 C 103.08 91.06 101.00 91.71 101.00 92.60 C 101.00 97.15 113.21 96.87 133.61 91.86 C 140.94 90.06 147.21 88.88 147.57 89.23 C 147.92 89.58 147.70 102.84 147.07 118.69 C 143.93 198.76 143.80 200.26 139.73 201.63 C 136.72 202.65 134.60 202.24 128.19 199.41 C 122.57 196.92 119.00 196.33 119.00 197.90 C 119.00 198.85 122.63 201.98 129.88 207.29 C 133.56 209.99 134.68 211.69 136.97 218.00 C 141.59 230.76 144.81 236.00 148.03 236.00 C 148.98 236.00 150.20 235.44 150.74 234.75 Z  M 98.20 191.69 C 102.70 189.81 107.66 183.30 116.98 167.05 C 125.41 152.35 129.69 146.33 133.91 143.22 C 136.69 141.17 137.00 140.41 137.00 135.59 C 137.00 130.06 135.13 124.19 132.75 122.21 C 131.70 121.33 130.12 121.73 125.94 123.92 C 119.34 127.37 99.10 133.65 89.50 135.23 C 85.65 135.86 82.32 136.51 82.10 136.67 C 81.88 136.83 82.96 138.77 84.49 140.98 C 88.63 146.95 89.55 146.86 107.68 138.61 C 123.88 131.23 126.00 130.55 126.00 132.76 C 126.00 136.36 115.92 156.61 108.46 168.00 C 103.63 175.38 92.90 187.05 88.00 190.27 C 85.87 191.67 85.72 192.07 87.00 192.99 C 88.78 194.28 93.25 193.76 98.20 191.69 Z  M 41.10 140.59 C 42.27 137.37 42.27 137.37 56.88 135.10 C 64.92 133.85 74.88 132.58 79.00 132.28 C 86.51 131.73 90.00 130.70 90.00 129.04 C 90.00 127.07 84.68 122.03 80.44 119.97 C 75.93 117.79 75.93 117.79 82.49 105.33 C 88.86 93.23 89.01 92.76 87.94 88.78 C 85.41 79.37 78.01 76.56 69.25 81.70 C 66.72 83.18 59.33 86.54 52.83 89.15 C 46.33 91.76 39.50 94.62 37.66 95.49 C 35.13 96.69 33.35 96.86 30.36 96.19 C 26.41 95.30 22.74 95.99 21.60 97.84 C 21.26 98.38 22.71 100.19 24.81 101.85 C 29.45 105.53 31.35 111.42 33.68 129.45 C 35.56 143.94 36.42 146.73 38.49 145.01 C 39.29 144.35 40.46 142.36 41.10 140.59 Z  M 156.96 53.38 C 160.63 50.30 163.00 46.07 163.00 42.64 C 163.00 39.92 159.01 36.06 153.12 33.07 C 145.10 29.00 121.10 22.49 127.16 26.03 C 128.07 26.56 132.23 32.13 136.41 38.39 C 143.86 49.58 149.71 56.00 152.46 56.00 C 153.22 56.00 155.25 54.82 156.96 53.38 Z  M 42.65 128.32 C 42.36 127.32 41.40 122.55 40.52 117.71 C 39.64 112.88 38.47 107.74 37.92 106.29 C 36.66 102.96 36.77 102.89 50.23 98.50 C 61.70 94.76 68.96 94.05 70.97 96.46 C 71.64 97.27 72.26 100.76 72.34 104.21 C 72.47 109.41 71.95 111.67 69.30 117.26 C 65.73 124.79 65.24 125.11 53.36 127.56 C 49.25 128.41 45.29 129.34 44.54 129.62 C 43.78 129.92 42.95 129.34 42.65 128.32 Z "/>
</g>
</svg>