<?xml version="1.0" encoding="UTF-8" standalone="no"?>
<!DOCTYPE svg PUBLIC "-//W3C//DTD SVG 1.1//EN" "http://www.w3.org/Graphics/SVG/1.1/DTD/svg11.dtd" >
<svg xmlns="http://www.w3.org/2000/svg" xmlns:xlink="http://www.w3.org/1999/xlink" version="1.1" viewBox="0 0 256 256">
 <g >
 <path fill="currentColor"
d=" M 45.00 213.50 C 45.00 184.00 45.00 184.00 49.50 184.00 C 54.00 184.00 54.00 184.00 54.00 213.50 C 54.00 243.00 54.00 243.00 64.00 243.00 C 74.00 243.00 74.00 243.00 74.00 213.50 C 74.00 184.00 74.00 184.00 78.50 184.00 C 83.00 184.00 83.00 184.00 82.92 201.75 C 82.84 219.50 82.84 219.50 80.00 211.50 C 77.16 203.50 77.16 203.50 77.08 223.25 C 77.00 243.00 77.00 243.00 95.00 243.00 C 113.00 243.00 113.00 243.00 113.00 159.00 C 113.00 75.00 113.00 75.00 106.50 75.00 C 102.92 75.00 100.00 74.58 100.00 74.06 C 100.00 73.55 101.35 67.45 103.00 60.50 C 105.34 50.67 106.00 45.56 106.00 37.44 C 106.00 27.00 106.00 27.00 82.39 27.00 C 58.77 27.00 58.77 27.00 59.44 22.25 C 59.81 19.64 60.34 16.71 60.62 15.75 C 61.10 14.13 59.81 14.00 43.18 14.00 C 25.38 14.00 25.21 14.02 24.68 16.25 C 24.38 17.49 23.42 23.68 22.54 30.00 C 20.03 48.09 20.17 47.98 16.46 35.00 C 13.17 23.50 13.17 23.50 13.08 44.75 C 13.00 66.00 13.00 66.00 32.90 66.00 C 52.79 66.00 52.79 66.00 54.15 58.25 C 55.50 50.50 55.50 50.50 63.16 50.21 C 70.83 49.92 70.83 49.92 67.66 62.21 C 64.50 74.50 64.50 74.50 39.75 74.77 C 15.00 75.03 15.00 75.03 15.00 159.02 C 15.00 243.00 15.00 243.00 30.00 243.00 C 45.00 243.00 45.00 243.00 45.00 213.50 Z  M 150.52 226.75 C 155.50 210.50 155.50 210.50 155.77 226.78 C 156.05 243.06 156.05 243.06 169.70 242.78 C 183.35 242.50 183.35 242.50 191.64 215.00 C 196.21 199.88 199.95 187.16 199.97 186.75 C 199.99 186.34 194.23 186.00 187.19 186.00 C 174.37 186.00 174.37 186.00 168.50 204.54 C 165.25 214.81 162.32 222.51 161.94 221.79 C 161.56 221.08 160.21 216.96 158.95 212.64 C 156.54 204.41 156.52 204.86 159.73 193.75 C 160.19 192.15 159.12 192.00 146.87 192.00 C 133.50 192.00 133.50 192.00 129.07 207.68 C 125.85 219.09 124.43 222.84 123.86 221.43 C 123.42 220.37 121.97 215.90 120.62 211.50 C 118.17 203.50 118.17 203.50 118.08 223.25 C 118.00 243.00 118.00 243.00 131.77 243.00 C 145.53 243.00 145.53 243.00 150.52 226.75 Z  M 242.00 201.50 C 242.00 160.00 242.00 160.00 202.00 160.00 C 180.00 160.00 162.00 159.69 162.00 159.32 C 162.00 158.95 162.54 157.15 163.20 155.33 C 164.39 152.03 164.39 152.03 198.85 151.76 C 233.30 151.50 233.30 151.50 237.65 141.10 C 240.04 135.37 242.00 130.53 242.00 130.34 C 242.00 130.14 216.25 130.10 184.79 130.24 C 127.58 130.50 127.58 130.50 123.33 140.50 C 120.99 146.00 119.06 150.84 119.04 151.25 C 119.02 151.66 121.47 152.00 124.50 152.00 C 127.53 152.00 130.01 152.34 130.01 152.75 C 130.02 153.16 128.80 157.02 127.31 161.32 C 124.60 169.15 124.60 169.15 121.35 162.82 C 118.10 156.50 118.10 156.50 118.05 172.75 C 118.00 189.00 118.00 189.00 134.34 189.00 C 150.68 189.00 150.68 189.00 152.00 185.00 C 153.32 181.00 153.32 181.00 180.66 181.00 C 208.00 181.00 208.00 181.00 207.97 203.75 C 207.93 226.50 207.93 226.50 201.99 220.25 C 198.72 216.81 195.81 214.00 195.53 214.00 C 195.24 214.00 195.00 220.53 195.00 228.50 C 195.00 243.00 195.00 243.00 218.50 243.00 C 242.00 243.00 242.00 243.00 242.00 201.50 Z  M 238.00 88.50 C 238.00 54.00 238.00 54.00 180.00 54.00 C 122.00 54.00 122.00 54.00 122.00 88.50 C 122.00 123.00 122.00 123.00 180.00 123.00 C 238.00 123.00 238.00 123.00 238.00 88.50 Z  M 162.82 45.76 C 163.13 43.03 163.13 43.03 198.14 42.76 C 233.15 42.50 233.15 42.50 237.45 32.00 C 241.76 21.50 241.76 21.50 205.27 21.24 C 168.78 20.98 168.78 20.98 169.44 17.49 C 170.09 14.00 170.09 14.00 149.74 14.00 C 129.39 14.00 129.39 14.00 127.07 21.23 C 124.74 28.46 124.74 28.46 121.37 24.56 C 118.00 20.67 118.00 20.67 118.00 34.85 C 118.00 49.04 118.00 49.04 140.25 48.77 C 162.50 48.50 162.50 48.50 162.82 45.76 Z  M 45.00 148.50 C 45.00 136.00 45.00 136.00 49.50 136.00 C 54.00 136.00 54.00 136.00 54.00 148.50 C 54.00 161.00 54.00 161.00 49.50 161.00 C 45.00 161.00 45.00 161.00 45.00 148.50 Z  M 74.00 148.44 C 74.00 135.89 74.00 135.89 78.25 136.19 C 82.50 136.50 82.50 136.50 82.78 148.75 C 83.06 161.00 83.06 161.00 78.53 161.00 C 74.00 161.00 74.00 161.00 74.00 148.44 Z  M 45.00 104.94 C 45.00 96.89 45.00 96.89 49.25 97.19 C 53.50 97.50 53.50 97.50 53.79 105.25 C 54.08 113.00 54.08 113.00 49.54 113.00 C 45.00 113.00 45.00 113.00 45.00 104.94 Z  M 74.00 104.94 C 74.00 96.89 74.00 96.89 78.25 97.19 C 82.50 97.50 82.50 97.50 82.79 105.25 C 83.08 113.00 83.08 113.00 78.54 113.00 C 74.00 113.00 74.00 113.00 74.00 104.94 Z  M 160.19 99.75 C 160.50 96.50 160.50 96.50 180.25 96.23 C 200.00 95.96 200.00 95.96 200.00 99.48 C 200.00 103.00 200.00 103.00 179.94 103.00 C 159.87 103.00 159.87 103.00 160.19 99.75 Z  M 160.67 80.33 C 160.30 79.97 160.00 78.17 160.00 76.33 C 160.00 73.00 160.00 73.00 180.00 73.00 C 200.00 73.00 200.00 73.00 200.00 77.00 C 200.00 81.00 200.00 81.00 180.67 81.00 C 170.03 81.00 161.03 80.70 160.67 80.33 Z "/>
</g>
</svg>