<?xml version="1.0" encoding="UTF-8" standalone="no"?>
<!DOCTYPE svg PUBLIC "-//W3C//DTD SVG 1.1//EN" "http://www.w3.org/Graphics/SVG/1.1/DTD/svg11.dtd" >
<svg xmlns="http://www.w3.org/2000/svg" xmlns:xlink="http://www.w3.org/1999/xlink" version="1.1" viewBox="0 0 256 256">
 <g >
 <path fill="currentColor"
d=" M 87.00 227.50 C 87.00 212.00 87.00 212.00 98.32 212.00 C 109.65 212.00 109.65 212.00 114.32 200.23 C 116.90 193.76 119.00 188.14 119.00 187.73 C 119.00 187.33 111.80 187.00 103.00 187.00 C 87.00 187.00 87.00 187.00 87.00 179.50 C 87.00 172.00 87.00 172.00 102.50 172.00 C 118.00 172.00 118.00 172.00 118.00 122.50 C 118.00 73.00 118.00 73.00 102.50 73.00 C 87.00 73.00 87.00 73.00 87.00 66.03 C 87.00 59.07 87.00 59.07 98.25 58.78 C 109.50 58.50 109.50 58.50 114.21 47.00 C 116.80 40.67 118.94 35.16 118.96 34.75 C 118.98 34.34 111.80 34.00 103.00 34.00 C 87.00 34.00 87.00 34.00 87.00 24.00 C 87.00 14.00 87.00 14.00 66.50 14.00 C 46.00 14.00 46.00 14.00 46.00 23.97 C 46.00 33.94 46.00 33.94 33.83 34.22 C 21.65 34.50 21.65 34.50 17.84 45.00 C 15.74 50.78 13.76 56.29 13.44 57.25 C 12.91 58.87 14.10 59.00 29.48 59.00 C 46.09 59.00 46.09 59.00 45.80 65.75 C 45.50 72.50 45.50 72.50 30.25 72.78 C 15.00 73.05 15.00 73.05 15.00 122.53 C 15.00 172.00 15.00 172.00 30.50 172.00 C 46.00 172.00 46.00 172.00 46.00 179.47 C 46.00 186.94 46.00 186.94 33.90 187.22 C 21.79 187.50 21.79 187.50 17.41 199.50 C 15.01 206.10 13.03 211.61 13.02 211.75 C 13.01 211.89 20.43 212.00 29.50 212.00 C 46.00 212.00 46.00 212.00 46.00 227.50 C 46.00 243.00 46.00 243.00 66.50 243.00 C 87.00 243.00 87.00 243.00 87.00 227.50 Z  M 235.00 143.50 C 235.00 44.00 235.00 44.00 237.40 44.00 C 240.01 44.00 239.79 44.96 241.60 25.75 C 242.23 19.00 242.23 19.00 185.82 19.00 C 129.41 19.00 129.41 19.00 125.19 30.75 C 122.87 37.21 120.98 42.84 120.98 43.25 C 120.99 43.66 138.10 44.00 159.00 44.00 C 197.00 44.00 197.00 44.00 197.00 131.58 C 197.00 219.17 197.00 219.17 193.25 216.17 C 191.19 214.52 187.72 211.33 185.55 209.08 C 183.37 206.84 181.24 205.00 180.80 205.00 C 180.36 205.00 180.00 213.55 180.00 224.00 C 180.00 243.00 180.00 243.00 207.50 243.00 C 235.00 243.00 235.00 243.00 235.00 143.50 Z  M 186.00 129.00 C 186.00 59.00 186.00 59.00 156.00 59.00 C 126.00 59.00 126.00 59.00 126.00 129.00 C 126.00 199.00 126.00 199.00 156.00 199.00 C 186.00 199.00 186.00 199.00 186.00 129.00 Z  M 38.00 141.50 C 38.00 134.00 38.00 134.00 44.50 134.00 C 51.00 134.00 51.00 134.00 51.00 141.50 C 51.00 149.00 51.00 149.00 44.50 149.00 C 38.00 149.00 38.00 149.00 38.00 141.50 Z  M 82.00 141.45 C 82.00 133.90 82.00 133.90 87.75 134.20 C 93.50 134.50 93.50 134.50 93.79 141.75 C 94.09 149.00 94.09 149.00 88.04 149.00 C 82.00 149.00 82.00 149.00 82.00 141.45 Z  M 38.00 102.95 C 38.00 94.90 38.00 94.90 44.25 95.20 C 50.50 95.50 50.50 95.50 50.79 103.25 C 51.08 111.00 51.08 111.00 44.54 111.00 C 38.00 111.00 38.00 111.00 38.00 102.95 Z  M 82.00 102.95 C 82.00 94.90 82.00 94.90 87.75 95.20 C 93.50 95.50 93.50 95.50 93.79 103.25 C 94.08 111.00 94.08 111.00 88.04 111.00 C 82.00 111.00 82.00 111.00 82.00 102.95 Z  M 151.00 129.00 C 151.00 82.00 151.00 82.00 156.00 82.00 C 161.00 82.00 161.00 82.00 161.00 129.00 C 161.00 176.00 161.00 176.00 156.00 176.00 C 151.00 176.00 151.00 176.00 151.00 129.00 Z "/>
</g>
</svg>