<?xml version="1.0" encoding="UTF-8" standalone="no"?>
<!DOCTYPE svg PUBLIC "-//W3C//DTD SVG 1.1//EN" "http://www.w3.org/Graphics/SVG/1.1/DTD/svg11.dtd" >
<svg xmlns="http://www.w3.org/2000/svg" xmlns:xlink="http://www.w3.org/1999/xlink" version="1.1" viewBox="0 0 256 256">
 <g >
 <path fill="currentColor"
d=" M 145.53 236.43 C 157.12 230.78 173.14 220.31 184.23 211.13 C 191.70 204.96 193.16 203.24 194.31 199.30 C 195.65 194.70 195.65 194.70 199.73 202.10 C 206.36 214.13 213.60 224.62 219.39 230.61 C 224.82 236.22 224.82 236.22 228.03 234.36 C 236.52 229.43 247.30 209.54 249.52 194.70 C 250.17 190.38 250.17 190.38 241.29 190.80 C 232.41 191.23 232.41 191.23 227.18 185.51 C 220.70 178.41 211.36 164.28 202.61 148.32 C 192.95 130.69 194.03 131.61 184.60 132.92 C 176.77 134.01 167.51 137.28 168.17 138.73 C 168.36 139.15 172.28 147.15 176.89 156.50 C 190.38 183.91 193.96 191.91 193.02 192.49 C 192.24 192.97 164.89 199.00 163.49 199.00 C 163.21 199.00 163.09 182.46 163.24 162.25 C 163.50 125.50 163.50 125.50 201.00 125.50 C 238.50 125.50 238.50 125.50 241.61 116.00 C 243.32 110.78 245.04 104.75 245.43 102.62 C 246.06 99.15 245.95 98.81 244.35 99.42 C 243.36 99.80 224.66 100.38 202.78 100.71 C 163.00 101.32 163.00 101.32 163.00 95.96 C 163.00 90.61 163.00 90.61 166.43 93.93 C 169.63 97.04 170.06 97.17 173.17 96.09 C 178.08 94.38 200.54 81.82 210.66 75.12 C 220.39 68.69 234.70 56.64 237.27 52.70 C 238.85 50.30 238.81 50.03 236.13 46.35 C 234.60 44.23 230.83 40.21 227.76 37.41 C 222.26 32.38 211.16 24.48 210.55 25.15 C 210.38 25.34 209.10 27.75 207.71 30.50 C 203.39 39.03 195.30 49.66 184.91 60.45 C 175.04 70.69 164.64 78.97 163.31 77.64 C 162.93 77.26 163.13 65.16 163.75 50.75 C 164.50 33.08 164.54 24.33 163.86 23.91 C 162.62 23.15 139.39 20.98 132.50 20.99 C 127.50 21.00 127.50 21.00 127.81 60.50 C 128.13 100.00 128.13 100.00 118.06 100.00 C 110.69 100.00 107.99 100.33 107.97 101.25 C 107.96 101.94 109.61 107.79 111.65 114.25 C 115.35 126.00 115.35 126.00 121.68 126.00 C 128.00 126.00 128.00 126.00 128.00 161.45 C 128.00 199.65 127.83 201.00 122.81 203.60 C 120.49 204.80 120.00 205.70 120.00 208.82 C 120.00 215.89 125.53 232.05 130.61 239.80 C 132.44 242.60 133.29 242.41 145.53 236.43 Z  M 89.54 235.25 C 89.15 233.74 88.65 211.57 88.41 186.00 C 87.99 139.50 87.99 139.50 90.50 147.79 C 93.17 156.63 96.56 164.00 99.75 167.93 C 101.70 170.35 101.70 170.35 104.84 168.12 C 111.69 163.23 120.23 149.75 123.37 138.85 C 125.83 130.32 125.82 130.30 119.17 129.82 C 112.06 129.30 105.05 126.01 95.50 118.70 C 88.50 113.34 88.50 113.34 88.22 100.56 C 87.94 87.78 87.94 87.78 99.86 88.49 C 111.78 89.21 111.78 89.21 113.98 83.35 C 115.88 78.28 119.00 64.89 119.00 61.77 C 119.00 61.05 114.02 60.88 103.44 61.24 C 87.88 61.76 87.88 61.76 88.52 43.63 C 88.87 33.66 89.33 24.94 89.54 24.27 C 89.75 23.59 89.15 22.62 88.21 22.12 C 86.28 21.09 65.06 19.00 56.55 19.00 C 50.95 19.00 50.95 19.00 51.57 26.75 C 51.91 31.01 52.25 40.58 52.34 48.00 C 52.50 61.50 52.50 61.50 45.50 61.16 C 41.65 60.97 33.12 60.21 26.54 59.45 C 19.96 58.70 14.37 58.30 14.12 58.55 C 12.92 59.75 20.00 88.36 22.00 90.39 C 22.51 90.90 28.28 90.59 35.80 89.64 C 52.24 87.55 53.00 87.56 53.00 89.82 C 53.00 95.35 36.45 122.74 26.39 133.86 C 19.97 140.96 18.64 141.24 9.55 137.51 C 6.28 136.16 3.40 135.27 3.14 135.52 C 2.31 136.36 6.06 153.33 9.05 162.27 C 12.83 173.60 18.62 185.26 22.74 189.86 C 26.00 193.50 26.00 193.50 29.08 190.00 C 32.93 185.62 41.65 167.89 46.90 153.76 C 49.10 147.85 51.39 142.22 52.00 141.26 C 54.29 137.59 52.11 215.17 49.46 231.16 C 48.85 234.82 48.85 234.82 54.18 235.92 C 61.89 237.50 64.15 237.68 77.87 237.85 C 90.23 238.00 90.23 238.00 89.54 235.25 Z "/>
</g>
</svg>