<?xml version="1.0" encoding="UTF-8" standalone="no"?>
<!DOCTYPE svg PUBLIC "-//W3C//DTD SVG 1.1//EN" "http://www.w3.org/Graphics/SVG/1.1/DTD/svg11.dtd" >
<svg xmlns="http://www.w3.org/2000/svg" xmlns:xlink="http://www.w3.org/1999/xlink" version="1.1" viewBox="0 0 256 256">
 <g >
 <path fill="currentColor"
d=" M 232.19 240.25 C 231.27 235.24 231.30 150.33 232.23 136.90 C 232.96 126.31 232.96 126.31 227.25 127.20 C 224.10 127.70 190.79 127.97 153.23 127.80 C 84.92 127.50 84.92 127.50 85.71 138.50 C 86.15 144.55 86.47 165.25 86.44 184.50 C 86.38 212.99 86.05 221.25 84.66 228.89 C 83.72 234.06 83.11 238.44 83.31 238.64 C 84.41 239.74 95.33 241.05 108.30 241.64 C 123.09 242.31 123.09 242.31 122.40 229.16 C 121.70 216.00 121.70 216.00 157.85 216.00 C 186.11 216.00 194.00 216.27 193.99 217.25 C 193.98 218.99 189.43 228.59 187.00 231.99 C 185.90 233.54 185.00 235.28 185.00 235.87 C 185.00 238.56 210.21 243.27 227.69 243.83 C 232.87 244.00 232.87 244.00 232.19 240.25 Z  M 42.06 230.06 C 50.89 220.77 64.52 195.10 70.48 176.50 C 73.72 166.37 77.20 150.09 76.34 149.07 C 76.13 148.83 73.84 150.15 71.23 151.99 C 61.27 159.06 43.10 170.92 33.70 176.49 C 23.90 182.30 23.90 182.30 16.70 181.03 C 12.74 180.33 8.71 179.35 7.75 178.85 C 5.48 177.66 5.44 179.74 7.60 187.07 C 12.69 204.40 31.25 233.59 37.40 233.95 C 37.90 233.98 40.00 232.23 42.06 230.06 Z  M 36.41 145.60 C 49.71 136.11 76.00 108.75 76.00 104.40 C 76.00 103.33 74.29 103.00 68.75 102.98 C 61.43 102.96 39.10 100.92 24.65 98.95 C 20.33 98.36 16.53 98.13 16.22 98.45 C 15.21 99.46 18.01 119.77 20.51 129.63 C 23.22 140.32 27.29 150.00 29.07 150.00 C 29.72 150.00 33.02 148.02 36.41 145.60 Z  M 158.00 117.50 C 184.12 117.50 212.13 117.90 220.23 118.39 C 234.97 119.29 234.97 119.29 234.23 109.39 C 233.29 96.71 233.28 47.43 234.22 34.86 C 234.93 25.23 234.93 25.23 226.22 25.66 C 221.42 25.90 212.25 26.52 205.83 27.05 C 186.70 28.61 125.24 28.23 102.18 26.41 C 91.01 25.52 81.67 25.00 81.43 25.23 C 81.20 25.47 81.50 33.95 82.12 44.08 C 83.20 61.82 82.75 102.21 81.34 113.88 C 80.69 119.26 80.69 119.26 95.60 118.38 C 103.79 117.90 131.88 117.50 158.00 117.50 Z  M 41.50 78.10 C 44.25 76.51 49.88 72.32 54.00 68.79 C 64.42 59.87 81.13 40.80 79.75 39.41 C 79.45 39.12 76.13 38.44 72.36 37.91 C 65.07 36.88 28.04 30.29 24.25 29.34 C 22.27 28.85 22.00 29.16 22.00 32.01 C 22.00 37.43 24.97 56.06 27.08 63.91 C 29.91 74.39 32.92 81.00 34.87 80.99 C 35.77 80.99 38.75 79.68 41.50 78.10 Z  M 122.00 189.00 C 122.00 183.00 122.00 183.00 158.50 183.00 C 195.00 183.00 195.00 183.00 195.00 189.00 C 195.00 195.00 195.00 195.00 158.50 195.00 C 122.00 195.00 122.00 195.00 122.00 189.00 Z  M 122.20 156.25 C 122.50 150.50 122.50 150.50 158.75 150.24 C 195.00 149.98 195.00 149.98 195.00 155.99 C 195.00 162.00 195.00 162.00 158.45 162.00 C 121.90 162.00 121.90 162.00 122.20 156.25 Z  M 113.00 88.50 C 113.00 84.00 113.00 84.00 127.50 84.00 C 142.00 84.00 142.00 84.00 142.00 88.50 C 142.00 93.00 142.00 93.00 127.50 93.00 C 113.00 93.00 113.00 93.00 113.00 88.50 Z  M 174.00 88.50 C 174.00 84.00 174.00 84.00 188.00 84.00 C 202.00 84.00 202.00 84.00 202.00 88.50 C 202.00 93.00 202.00 93.00 188.00 93.00 C 174.00 93.00 174.00 93.00 174.00 88.50 Z  M 113.00 57.50 C 113.00 51.00 113.00 51.00 127.50 51.00 C 142.00 51.00 142.00 51.00 142.00 57.50 C 142.00 64.00 142.00 64.00 127.50 64.00 C 113.00 64.00 113.00 64.00 113.00 57.50 Z  M 174.67 63.33 C 174.30 62.97 174.00 60.04 174.00 56.83 C 174.00 51.00 174.00 51.00 188.00 51.00 C 202.00 51.00 202.00 51.00 202.00 57.50 C 202.00 64.00 202.00 64.00 188.67 64.00 C 181.33 64.00 175.03 63.70 174.67 63.33 Z "/>
</g>
</svg>