<?xml version="1.0" encoding="UTF-8" standalone="no"?>
<!DOCTYPE svg PUBLIC "-//W3C//DTD SVG 1.1//EN" "http://www.w3.org/Graphics/SVG/1.1/DTD/svg11.dtd" >
<svg xmlns="http://www.w3.org/2000/svg" xmlns:xlink="http://www.w3.org/1999/xlink" version="1.1" viewBox="0 0 256 256">
 <g >
 <path fill="currentColor"
d=" M 64.12 233.00 C 71.32 216.14 74.24 199.11 76.09 163.17 C 77.68 132.44 75.74 113.62 68.35 88.09 C 65.92 79.68 65.92 79.68 69.21 76.23 C 71.02 74.32 76.42 69.72 81.20 66.00 C 89.51 59.54 90.31 59.15 98.70 57.61 C 108.57 55.80 123.55 55.46 124.52 57.02 C 125.33 58.34 120.56 72.82 116.91 80.13 C 114.10 85.75 114.10 85.75 108.30 86.19 C 105.11 86.44 100.31 87.62 97.63 88.82 C 92.85 90.95 92.79 91.04 94.38 93.25 C 99.08 99.77 107.00 118.46 107.00 123.04 C 107.00 124.88 97.90 129.37 87.63 132.60 C 81.76 134.44 81.76 134.44 82.25 140.55 C 82.60 144.92 83.89 149.04 86.79 155.08 C 92.65 167.26 91.73 166.67 99.11 162.96 C 102.63 161.19 106.69 158.90 108.15 157.87 C 109.61 156.84 110.97 156.00 111.16 156.00 C 111.35 156.00 111.17 162.38 110.75 170.17 C 109.86 187.00 107.58 202.15 105.21 207.00 C 103.52 210.46 103.42 210.50 97.49 210.34 C 94.18 210.26 88.87 209.51 85.70 208.68 C 79.92 207.17 79.92 207.17 80.57 209.33 C 82.30 215.05 87.87 223.59 92.81 228.11 C 99.34 234.08 105.29 237.24 115.10 239.96 C 122.01 241.88 122.46 241.89 124.29 240.24 C 133.15 232.22 137.77 210.18 138.72 171.50 C 139.13 154.91 139.56 149.20 140.27 151.00 C 144.13 160.80 147.51 166.26 152.60 170.92 C 155.66 173.71 158.60 176.00 159.14 176.00 C 160.82 176.00 164.96 165.61 166.95 156.37 C 170.90 138.04 173.17 119.43 173.71 100.83 C 174.23 83.24 174.14 81.91 172.14 77.83 C 170.98 75.45 168.99 72.21 167.72 70.64 C 165.41 67.78 165.41 67.78 162.09 83.14 C 158.29 100.72 152.62 118.84 148.18 127.65 C 145.05 133.84 140.47 140.00 139.00 140.00 C 138.55 140.00 137.90 138.31 137.56 136.25 C 136.98 132.69 137.28 132.15 143.47 125.61 C 150.53 118.15 152.32 114.06 151.80 106.52 C 151.50 102.15 151.50 102.15 142.04 107.58 C 136.83 110.56 132.23 113.00 131.80 113.00 C 131.38 113.00 129.88 110.72 128.47 107.94 C 125.91 102.88 125.91 102.88 130.80 97.19 C 138.69 88.02 142.36 82.32 149.59 68.00 C 156.40 54.50 156.40 54.50 156.81 42.69 C 157.21 30.88 157.21 30.88 148.36 31.67 C 132.72 33.07 99.52 32.52 88.76 30.67 C 83.40 29.75 78.73 29.00 78.37 29.00 C 78.02 29.00 78.02 31.88 78.38 35.40 C 79.04 41.81 79.04 41.81 70.39 37.36 C 65.64 34.92 61.32 33.06 60.79 33.24 C 60.26 33.41 58.98 35.97 57.94 38.91 C 56.90 41.86 55.32 45.39 54.42 46.76 C 52.79 49.25 52.79 49.25 48.78 42.87 C 46.57 39.37 42.68 33.91 40.13 30.75 C 36.22 25.91 35.00 25.01 32.27 25.00 C 29.52 25.00 17.89 28.72 14.94 30.54 C 14.42 30.86 15.28 33.01 16.85 35.31 C 21.41 41.99 27.85 54.21 31.51 63.17 C 35.43 72.75 35.61 72.26 25.86 79.49 C 20.23 83.67 20.23 83.67 13.43 82.85 C 9.69 82.40 6.41 82.25 6.14 82.52 C 5.20 83.46 7.93 95.22 10.16 99.85 C 12.80 105.33 22.08 115.00 24.68 114.99 C 25.68 114.98 30.30 112.07 34.93 108.51 C 39.57 104.95 43.51 102.18 43.69 102.36 C 43.87 102.53 44.65 107.55 45.43 113.52 C 46.86 124.35 46.86 124.35 41.29 130.70 C 38.23 134.19 33.04 139.06 29.76 141.52 C 24.69 145.33 23.11 146.00 19.14 146.00 C 16.58 146.00 12.97 145.56 11.11 145.03 C 7.73 144.06 7.73 144.06 8.40 149.77 C 9.59 159.83 15.53 170.32 22.97 175.48 C 26.87 178.18 26.87 178.18 31.19 175.18 C 33.56 173.53 37.30 170.31 39.50 168.01 C 41.70 165.72 44.26 163.43 45.19 162.92 C 46.65 162.12 46.81 162.44 46.43 165.25 C 46.19 167.04 45.33 173.90 44.52 180.50 C 42.74 194.98 40.80 201.90 37.39 205.95 C 34.26 209.66 30.83 209.86 17.50 207.11 C 12.55 206.08 8.38 205.34 8.24 205.47 C 8.10 205.59 9.42 208.47 11.17 211.87 C 16.75 222.68 29.56 234.85 39.61 238.88 C 43.80 240.56 51.62 241.84 56.49 241.66 C 60.49 241.50 60.49 241.50 64.12 233.00 Z  M 207.80 238.25 C 209.29 234.96 209.44 231.66 209.03 211.50 C 208.30 175.30 208.42 38.07 209.20 32.28 C 209.90 27.07 209.90 27.07 206.20 25.94 C 204.16 25.33 196.61 24.58 189.40 24.29 C 176.31 23.75 176.31 23.75 177.18 30.23 C 177.65 33.80 177.92 73.44 177.77 118.33 C 177.50 199.95 177.50 199.95 175.29 202.16 C 172.58 204.86 164.79 205.63 154.50 204.21 C 150.65 203.67 147.35 203.37 147.17 203.53 C 146.64 204.00 149.04 208.10 152.92 213.35 C 157.66 219.77 170.79 230.25 179.52 234.59 C 185.00 237.31 199.40 241.41 205.30 241.93 C 205.74 241.97 206.87 240.31 207.80 238.25 Z  M 235.91 170.29 C 240.73 164.44 245.69 154.18 248.61 143.98 C 250.75 136.54 251.03 134.51 249.96 134.15 C 242.97 131.82 228.55 103.35 222.02 79.00 C 220.77 74.33 219.56 69.86 219.34 69.08 C 218.75 67.03 216.80 70.12 214.04 77.50 C 212.01 82.94 211.86 84.57 212.46 95.00 C 213.36 110.52 215.37 125.45 219.02 143.83 C 222.22 159.89 223.97 166.02 227.15 172.27 C 228.77 175.48 229.34 175.89 230.95 175.03 C 231.99 174.47 234.22 172.34 235.91 170.29 Z "/>
</g>
</svg>