<?xml version="1.0" encoding="UTF-8" standalone="no"?>
<!DOCTYPE svg PUBLIC "-//W3C//DTD SVG 1.1//EN" "http://www.w3.org/Graphics/SVG/1.1/DTD/svg11.dtd" >
<svg xmlns="http://www.w3.org/2000/svg" xmlns:xlink="http://www.w3.org/1999/xlink" version="1.1" viewBox="0 0 256 256">
 <g >
 <path fill="currentColor"
d=" M 127.22 198.52 C 126.79 165.33 126.93 158.98 128.11 158.60 C 128.87 158.36 131.89 157.88 134.82 157.54 C 140.14 156.91 140.14 156.91 139.92 195.13 C 139.65 239.43 138.06 234.76 153.79 235.73 C 163.08 236.30 163.08 236.30 162.43 225.90 C 162.07 220.18 161.71 202.45 161.64 186.50 C 161.50 157.50 161.50 157.50 167.75 157.20 C 174.00 156.90 174.00 156.90 173.93 187.20 C 173.89 203.87 173.54 220.98 173.15 225.23 C 172.45 232.96 172.45 232.96 175.47 234.07 C 177.14 234.68 182.51 235.43 187.41 235.74 C 196.31 236.30 196.31 236.30 195.64 228.90 C 195.28 224.83 194.68 207.21 194.33 189.75 C 193.68 158.00 193.68 158.00 200.19 158.00 C 206.71 158.00 206.71 158.00 207.35 165.65 C 208.36 177.55 208.11 212.12 206.98 218.09 C 206.42 221.04 204.84 225.16 203.46 227.24 C 200.95 231.03 200.95 231.03 203.57 232.03 C 210.10 234.51 221.90 237.00 230.09 237.61 C 239.04 238.29 239.04 238.29 238.27 230.90 C 237.29 221.49 237.26 147.32 238.23 140.00 C 238.96 134.50 238.96 134.50 225.73 135.15 C 218.45 135.50 202.26 135.84 189.74 135.90 C 166.99 136.00 166.99 136.00 169.86 132.04 C 171.43 129.86 173.31 126.67 174.02 124.94 C 175.32 121.80 175.32 121.80 191.91 122.41 C 201.04 122.75 214.02 123.29 220.76 123.61 C 233.02 124.20 233.02 124.20 235.37 118.85 C 237.62 113.75 241.50 100.05 240.82 99.59 C 240.64 99.48 229.47 99.77 216.00 100.25 C 202.53 100.72 170.01 100.84 143.75 100.51 C 117.49 100.18 96.01 100.27 96.01 100.71 C 96.07 103.47 99.36 115.28 101.20 119.31 C 103.40 124.12 103.40 124.12 117.45 123.53 C 125.18 123.21 134.14 122.70 137.37 122.41 C 143.25 121.87 143.25 121.87 142.58 125.41 C 142.22 127.36 141.23 130.61 140.38 132.63 C 138.84 136.31 138.84 136.31 120.17 135.64 C 109.90 135.27 100.19 134.69 98.59 134.34 C 95.69 133.71 95.69 133.71 96.59 150.60 C 97.68 170.93 97.79 216.49 96.77 227.21 C 96.03 234.93 96.03 234.93 99.77 235.96 C 104.86 237.36 107.99 237.68 118.61 237.85 C 127.72 238.00 127.72 238.00 127.22 198.52 Z  M 54.00 216.22 C 60.88 212.08 71.77 205.17 78.20 200.86 C 88.50 193.97 89.96 192.63 90.41 189.76 C 90.68 187.97 91.16 184.89 91.46 182.93 C 91.77 180.96 91.77 179.11 91.47 178.80 C 91.16 178.49 84.97 179.75 77.71 181.60 C 70.44 183.44 64.42 184.96 64.31 184.98 C 64.21 184.99 65.91 181.15 68.08 176.45 C 73.14 165.49 85.78 128.23 90.01 111.77 C 93.74 97.27 93.78 97.44 85.81 93.40 C 81.24 91.09 63.34 86.33 62.46 87.20 C 62.24 87.43 61.56 92.09 60.95 97.56 C 59.12 114.02 54.29 138.86 48.54 161.30 C 41.36 189.34 41.21 189.80 39.22 190.42 C 35.92 191.45 23.46 192.96 18.12 192.98 C 12.74 193.00 12.74 193.00 13.41 198.06 C 14.52 206.41 21.74 224.67 25.73 229.21 C 27.13 230.80 27.70 230.67 34.36 227.32 C 38.29 225.35 47.12 220.35 54.00 216.22 Z  M 34.67 152.25 C 40.08 145.41 48.28 122.86 52.31 103.75 C 53.67 97.29 54.60 92.00 54.37 92.00 C 54.14 92.00 51.08 94.26 47.56 97.03 C 40.85 102.30 30.46 107.55 20.75 110.57 C 16.37 111.94 15.00 112.82 15.00 114.29 C 15.00 119.83 25.06 144.10 30.29 151.18 C 32.74 154.50 32.86 154.53 34.67 152.25 Z  M 234.58 85.50 C 233.28 74.32 232.82 38.38 233.90 32.58 C 234.50 29.33 234.77 26.44 234.50 26.16 C 233.67 25.34 223.19 24.11 210.82 23.39 C 199.14 22.71 199.14 22.71 200.05 26.60 C 200.55 28.75 200.96 39.18 200.98 49.79 C 201.00 69.07 201.00 69.07 191.25 68.79 C 181.50 68.50 181.50 68.50 181.50 57.50 C 181.50 51.45 181.72 40.43 182.00 33.02 C 182.50 19.54 182.50 19.54 178.50 18.84 C 176.30 18.46 169.55 17.83 163.50 17.44 C 152.50 16.74 152.50 16.74 152.85 42.91 C 153.20 69.07 153.20 69.07 143.35 68.79 C 133.50 68.50 133.50 68.50 133.56 47.26 C 133.61 28.86 133.41 25.95 132.06 25.54 C 129.60 24.81 110.30 23.00 104.89 23.00 C 99.99 23.00 99.99 23.00 100.75 34.75 C 101.71 49.83 101.72 75.64 100.75 84.00 C 100.00 90.50 100.00 90.50 167.58 90.50 C 235.16 90.50 235.16 90.50 234.58 85.50 Z  M 94.88 67.00 C 96.53 61.77 98.18 55.54 98.54 53.14 C 99.21 48.78 99.21 48.78 93.36 49.35 C 90.14 49.67 83.03 50.22 77.56 50.57 C 67.81 51.20 67.64 51.18 69.06 49.26 C 69.85 48.19 73.31 43.60 76.75 39.07 C 80.19 34.53 83.00 30.24 83.00 29.52 C 83.00 28.74 79.04 26.95 73.25 25.12 C 56.17 19.70 34.02 17.01 35.36 20.51 C 35.89 21.87 38.93 37.79 40.50 47.37 C 41.20 51.65 42.41 51.53 19.31 49.36 C 13.11 48.78 13.11 48.78 16.52 61.92 C 18.39 69.15 20.12 75.39 20.37 75.78 C 20.61 76.18 36.80 76.50 56.34 76.50 C 91.88 76.50 91.88 76.50 94.88 67.00 Z "/>
</g>
</svg>