<?xml version="1.0" encoding="UTF-8" standalone="no"?>
<!DOCTYPE svg PUBLIC "-//W3C//DTD SVG 1.1//EN" "http://www.w3.org/Graphics/SVG/1.1/DTD/svg11.dtd" >
<svg xmlns="http://www.w3.org/2000/svg" xmlns:xlink="http://www.w3.org/1999/xlink" version="1.1" viewBox="0 0 256 256">
 <g >
 <path fill="currentColor"
d=" M 177.54 229.75 C 177.22 223.01 176.72 214.24 176.44 210.25 C 176.15 206.26 176.18 203.00 176.50 203.00 C 176.82 203.00 178.83 203.89 180.97 204.98 C 189.16 209.16 216.84 215.76 221.39 214.62 C 224.75 213.77 232.48 205.44 235.95 198.93 C 241.55 188.43 243.57 170.66 240.39 159.93 C 237.28 149.47 227.00 132.09 217.66 121.50 C 213.25 116.51 213.25 116.51 219.07 105.50 C 222.28 99.45 228.02 86.17 231.84 76.00 C 238.46 58.38 238.86 56.79 240.41 42.60 C 241.30 34.40 241.83 27.49 241.58 27.25 C 241.33 27.00 232.88 27.29 222.81 27.90 C 198.46 29.37 179.90 29.25 160.50 27.49 C 151.70 26.70 144.28 26.03 144.00 26.02 C 143.72 26.01 143.65 65.26 143.83 113.25 C 144.14 194.58 143.67 217.41 141.32 234.67 C 140.75 238.84 140.75 238.84 145.13 239.49 C 151.16 240.39 166.40 241.69 172.81 241.86 C 178.12 242.00 178.12 242.00 177.54 229.75 Z  M 124.20 148.50 C 123.90 57.00 123.90 57.00 127.48 57.00 C 130.44 57.00 131.23 56.54 132.07 54.30 C 134.26 48.56 139.12 29.79 138.57 29.23 C 138.25 28.91 130.22 29.18 120.74 29.83 C 98.59 31.35 50.41 31.35 28.26 29.83 C 18.78 29.18 10.75 28.92 10.42 29.25 C 9.45 30.22 11.99 40.94 15.18 49.25 C 17.91 56.37 18.37 57.00 20.96 57.00 C 23.03 57.00 23.93 57.59 24.37 59.25 C 25.16 62.19 25.16 177.81 24.37 180.75 C 23.81 182.84 23.21 183.00 15.88 183.00 C 8.00 183.00 8.00 183.00 8.00 185.84 C 8.00 193.69 15.02 212.98 20.01 218.88 C 22.03 221.26 22.03 221.26 34.26 217.00 C 49.53 211.68 63.86 205.59 79.14 197.93 C 85.65 194.67 91.49 192.00 92.14 192.00 C 93.84 192.00 92.60 219.57 90.48 228.82 C 89.56 232.85 88.98 236.31 89.19 236.52 C 90.31 237.65 106.78 239.80 115.00 239.89 C 124.50 240.00 124.50 240.00 124.20 148.50 Z  M 176.01 124.75 C 176.01 92.71 176.30 63.46 176.65 59.75 C 177.29 53.00 177.29 53.00 192.64 53.00 C 201.09 53.00 208.00 53.31 208.00 53.70 C 208.00 57.85 192.87 110.35 190.09 115.86 C 188.25 119.50 188.25 119.50 196.15 133.50 C 205.47 150.02 209.50 161.44 208.75 169.21 C 208.34 173.53 207.68 174.91 204.72 177.61 C 200.21 181.76 195.63 182.99 184.75 182.99 C 176.00 183.00 176.00 183.00 176.01 124.75 Z  M 56.00 164.57 C 56.00 148.95 56.00 148.95 74.25 149.23 C 92.50 149.50 92.50 149.50 92.78 161.17 C 93.03 171.64 92.88 172.90 91.28 173.40 C 87.77 174.49 66.39 178.83 61.25 179.50 C 56.00 180.19 56.00 180.19 56.00 164.57 Z  M 56.00 114.98 C 56.00 101.95 56.00 101.95 74.25 102.23 C 92.50 102.50 92.50 102.50 92.78 115.25 C 93.06 128.00 93.06 128.00 74.53 128.00 C 56.00 128.00 56.00 128.00 56.00 114.98 Z  M 56.22 68.27 C 56.50 55.50 56.50 55.50 74.78 55.23 C 93.06 54.95 93.06 54.95 92.78 67.73 C 92.50 80.50 92.50 80.50 74.22 80.77 C 55.94 81.05 55.94 81.05 56.22 68.27 Z "/>
</g>
</svg>