<?xml version="1.0" encoding="UTF-8" standalone="no"?>
<!DOCTYPE svg PUBLIC "-//W3C//DTD SVG 1.1//EN" "http://www.w3.org/Graphics/SVG/1.1/DTD/svg11.dtd" >
<svg xmlns="http://www.w3.org/2000/svg" xmlns:xlink="http://www.w3.org/1999/xlink" version="1.1" viewBox="0 0 256 256">
 <g >
 <path fill="currentColor"
d=" M 54.79 232.36 C 61.22 228.71 69.41 223.75 72.99 221.35 C 79.50 216.98 79.50 216.98 80.10 220.55 C 80.85 224.99 83.70 228.91 87.99 231.42 C 90.84 233.09 94.30 233.45 113.89 234.15 C 143.29 235.19 175.67 236.90 179.62 237.61 C 182.26 238.09 183.28 237.62 186.24 234.57 C 191.60 229.05 193.51 221.91 193.47 207.50 C 193.45 198.06 192.95 193.79 191.16 187.50 C 188.36 177.71 180.09 160.33 176.75 157.21 C 174.29 154.93 174.29 154.93 173.60 163.21 C 172.15 180.61 166.93 195.67 160.69 200.42 C 155.96 204.03 150.33 204.95 132.83 204.98 C 117.41 205.00 117.10 204.96 114.08 202.41 C 111.81 200.51 111.00 198.97 111.00 196.60 C 111.00 193.75 113.29 191.07 130.81 173.44 C 151.70 152.41 167.16 133.98 179.74 115.09 C 187.35 103.69 187.35 103.69 184.42 101.35 C 178.51 96.61 159.84 88.00 155.47 88.00 C 154.78 88.00 154.04 89.92 153.75 92.50 C 153.07 98.53 146.62 111.63 139.39 121.67 C 132.10 131.77 116.74 149.54 114.02 150.99 C 112.04 152.05 112.00 151.80 112.00 137.15 C 112.00 122.24 112.00 122.24 107.53 121.11 C 102.45 119.83 76.00 118.35 76.00 119.34 C 76.00 119.70 76.65 123.94 77.45 128.75 C 78.28 133.78 79.02 146.41 79.20 158.43 C 79.50 179.36 79.50 179.36 71.50 184.22 C 59.07 191.77 38.15 202.00 35.18 201.98 C 33.71 201.97 29.18 201.10 25.12 200.05 C 17.75 198.13 17.75 198.13 18.36 202.64 C 19.39 210.13 27.53 224.54 35.09 232.23 C 38.75 235.95 42.04 239.00 42.41 239.00 C 42.78 239.00 48.35 236.01 54.79 232.36 Z  M 216.79 203.10 C 225.15 198.83 235.39 187.28 241.25 175.50 C 245.10 167.77 245.48 166.00 243.26 166.00 C 242.23 166.00 239.06 164.84 236.20 163.41 C 226.44 158.55 215.57 143.79 207.10 123.88 C 204.84 118.59 203.00 113.75 203.00 113.13 C 203.00 110.44 198.91 112.40 194.27 117.31 C 186.20 125.84 185.68 127.41 187.03 138.82 C 189.86 162.71 200.69 192.52 210.25 202.75 C 212.77 205.45 212.25 205.43 216.79 203.10 Z  M 49.47 186.05 C 56.46 176.52 61.88 158.52 64.02 137.68 C 65.06 127.63 65.01 125.82 63.60 122.87 C 61.28 117.97 53.06 107.81 51.77 108.24 C 51.17 108.44 49.83 111.73 48.79 115.55 C 43.14 136.44 30.00 152.05 17.79 152.37 C 14.05 152.46 13.96 152.55 14.57 155.48 C 17.46 169.33 35.55 190.65 44.66 190.96 C 45.31 190.98 47.47 188.77 49.47 186.05 Z  M 124.17 108.03 C 131.26 100.65 139.83 85.60 138.66 82.56 C 138.20 81.36 136.50 81.00 131.28 80.98 C 124.20 80.96 113.90 79.12 105.77 76.42 C 101.32 74.94 101.00 74.61 101.00 71.42 C 101.00 68.00 101.00 68.00 127.26 68.00 C 153.52 68.00 153.52 68.00 155.20 77.14 C 156.13 82.17 157.34 86.74 157.89 87.29 C 158.44 87.84 162.29 88.51 166.45 88.78 C 173.59 89.24 174.00 89.15 174.00 87.18 C 174.00 86.04 175.16 81.42 176.59 76.91 C 179.17 68.72 179.17 68.72 197.84 69.59 C 208.10 70.06 219.86 70.46 223.96 70.47 C 231.43 70.50 231.43 70.50 233.21 65.71 C 234.92 61.13 239.18 39.84 238.52 39.19 C 238.35 39.02 235.57 39.34 232.35 39.90 C 229.13 40.46 219.75 41.40 211.50 41.99 C 203.25 42.57 194.99 43.24 193.15 43.48 C 189.98 43.88 189.84 43.77 190.46 41.31 C 190.97 39.28 195.84 28.28 197.73 24.90 C 198.76 23.06 180.70 19.44 165.41 18.43 C 150.21 17.43 151.00 16.68 151.00 32.07 C 151.00 45.00 151.00 45.00 128.00 45.00 C 105.00 45.00 105.00 45.00 105.00 38.15 C 105.00 34.38 104.71 28.53 104.36 25.15 C 103.72 19.00 103.72 19.00 92.11 19.01 C 85.72 19.01 77.58 19.48 74.00 20.05 C 66.53 21.25 56.83 24.09 57.23 24.98 C 57.38 25.31 59.52 29.47 61.98 34.22 C 64.45 38.98 66.20 43.13 65.88 43.45 C 65.38 43.96 56.81 43.58 23.25 41.59 C 17.30 41.23 16.00 41.42 16.00 42.65 C 16.00 44.97 20.89 63.67 22.63 68.03 C 24.15 71.83 24.30 71.92 28.35 71.46 C 42.59 69.81 75.92 68.27 76.03 69.25 C 76.04 69.39 77.54 74.00 79.36 79.50 C 82.67 89.50 82.67 89.50 88.24 89.17 C 93.80 88.85 93.80 88.85 97.15 95.14 C 101.07 102.51 112.61 115.00 115.50 115.00 C 116.64 115.00 120.32 112.04 124.17 108.03 Z "/>
</g>
</svg>