<?xml version="1.0" encoding="UTF-8" standalone="no"?>
<!DOCTYPE svg PUBLIC "-//W3C//DTD SVG 1.1//EN" "http://www.w3.org/Graphics/SVG/1.1/DTD/svg11.dtd" >
<svg xmlns="http://www.w3.org/2000/svg" xmlns:xlink="http://www.w3.org/1999/xlink" version="1.1" viewBox="0 0 256 256">
 <g >
 <path fill="currentColor"
d=" M 33.32 240.84 C 34.52 240.21 39.75 235.67 44.94 230.77 C 57.18 219.21 58.43 218.58 67.67 219.42 C 77.16 220.28 113.48 226.04 137.00 230.41 C 164.38 235.51 187.49 238.67 218.01 241.50 C 224.36 242.09 224.59 242.03 227.88 238.82 C 236.17 230.71 246.58 209.71 248.61 197.01 C 249.27 192.91 249.27 192.91 245.76 194.98 C 240.17 198.28 227.33 202.62 216.00 205.05 C 206.65 207.05 203.83 207.22 189.82 206.65 C 175.62 206.06 131.41 202.72 121.50 201.49 C 105.79 199.53 73.50 194.84 73.12 194.45 C 71.79 193.12 71.11 168.64 71.98 153.50 C 72.80 139.28 75.38 114.11 76.38 110.51 C 76.53 109.97 77.86 111.92 79.33 114.84 C 83.00 122.16 88.74 130.65 93.17 135.30 C 96.73 139.04 96.97 139.14 99.16 137.60 C 100.42 136.72 101.71 136.00 102.04 136.00 C 102.36 136.00 103.95 140.33 105.56 145.62 C 108.50 155.24 108.50 155.24 119.31 154.60 C 125.25 154.25 132.79 153.68 136.06 153.34 C 142.00 152.72 142.00 152.72 142.00 160.86 C 142.00 169.00 142.00 169.00 124.75 168.89 C 115.26 168.83 101.28 168.49 93.67 168.14 C 77.66 167.40 78.69 165.65 84.22 184.23 C 87.41 194.97 87.41 194.97 92.96 194.30 C 99.52 193.51 197.70 193.28 219.92 194.00 C 235.35 194.50 235.35 194.50 236.67 189.50 C 238.29 183.36 242.00 165.65 241.71 165.43 C 241.60 165.34 237.45 165.89 232.50 166.64 C 227.55 167.40 213.02 168.30 200.21 168.65 C 176.91 169.29 176.91 169.29 177.21 161.39 C 177.50 153.50 177.50 153.50 187.00 153.98 C 192.22 154.24 199.38 154.47 202.89 154.48 C 209.29 154.50 209.29 154.50 211.57 146.16 C 212.82 141.57 214.07 137.60 214.34 137.33 C 214.61 137.06 216.01 137.62 217.46 138.56 C 220.03 140.25 220.16 140.23 223.15 137.39 C 227.44 133.34 233.73 123.89 236.97 116.64 C 241.96 105.46 242.88 106.39 226.12 105.60 C 210.59 104.87 199.84 103.09 191.79 99.92 C 186.86 97.97 186.86 97.97 187.53 100.24 C 188.80 104.47 195.06 114.95 200.04 121.15 C 202.77 124.55 205.00 127.64 205.00 128.02 C 205.00 128.91 193.63 129.98 184.18 129.99 C 177.69 130.00 176.92 129.80 177.36 128.25 C 177.64 127.29 178.01 121.78 178.18 116.00 C 178.50 105.50 178.50 105.50 172.00 104.76 C 168.43 104.36 160.03 103.68 153.35 103.25 C 141.21 102.48 141.21 102.48 141.76 116.40 C 142.31 130.32 142.31 130.32 127.67 129.72 C 119.61 129.40 112.55 128.84 111.98 128.49 C 111.38 128.12 112.98 125.61 115.81 122.52 C 123.04 114.61 132.25 99.86 130.81 98.49 C 130.64 98.33 126.66 99.48 121.97 101.06 C 113.23 103.99 98.10 106.00 84.75 106.00 C 78.42 106.00 78.00 105.86 78.00 103.75 C 78.00 101.50 78.00 101.50 53.75 101.43 C 39.81 101.39 26.36 100.85 22.11 100.15 C 18.05 99.49 14.48 99.18 14.19 99.48 C 13.40 100.26 15.68 116.29 17.74 124.50 C 19.73 132.43 18.71 131.98 31.82 130.62 C 39.14 129.86 39.14 129.86 38.33 134.68 C 37.36 140.44 37.41 178.23 38.41 189.65 C 39.11 197.72 39.11 197.72 28.28 201.36 C 22.32 203.36 15.77 205.00 13.72 205.00 C 9.12 205.00 8.98 206.24 12.49 215.57 C 16.48 226.18 21.03 233.86 25.82 238.07 C 30.90 242.54 30.43 242.37 33.32 240.84 Z  M 160.00 94.50 C 173.47 94.50 197.09 94.72 212.48 95.00 C 240.47 95.50 240.47 95.50 242.64 89.41 C 243.84 86.07 245.48 79.82 246.27 75.54 C 247.73 67.74 247.73 67.74 242.11 68.31 C 228.15 69.73 180.24 72.31 178.71 71.72 C 177.33 71.19 177.00 69.76 177.00 64.38 C 177.00 57.69 177.00 57.69 195.25 58.40 C 205.29 58.79 214.78 59.20 216.34 59.31 C 219.11 59.49 219.27 59.23 222.47 49.00 C 224.28 43.22 226.09 36.98 226.49 35.12 C 227.22 31.74 227.22 31.74 222.86 32.33 C 220.46 32.65 209.34 33.21 198.14 33.59 C 177.78 34.26 177.78 34.26 178.14 26.93 C 178.50 19.59 178.50 19.59 175.00 18.76 C 173.07 18.31 164.68 17.67 156.35 17.33 C 141.20 16.72 141.20 16.72 141.75 25.50 C 142.30 34.28 142.30 34.28 120.90 33.60 C 109.13 33.23 97.53 32.66 95.11 32.33 C 90.73 31.73 90.73 31.73 91.45 35.62 C 91.85 37.75 93.62 44.00 95.40 49.50 C 98.56 59.28 98.69 59.50 101.56 59.32 C 103.18 59.22 112.94 58.81 123.25 58.41 C 142.00 57.69 142.00 57.69 142.00 64.98 C 142.00 72.28 142.00 72.28 127.25 71.65 C 119.14 71.30 103.32 70.72 92.10 70.36 C 68.60 69.60 70.62 67.62 76.22 85.86 C 79.41 96.23 79.41 96.23 107.45 95.36 C 122.88 94.89 146.53 94.50 160.00 94.50 Z  M 37.50 75.90 C 50.59 73.68 75.39 64.42 77.53 60.95 C 78.08 60.06 76.66 58.09 73.09 54.80 C 66.68 48.92 44.71 32.33 39.24 29.26 C 35.27 27.03 35.27 27.03 34.60 35.76 C 33.84 45.78 29.47 68.87 27.40 73.87 C 26.63 75.73 26.00 77.35 26.00 77.48 C 26.00 77.76 28.91 77.36 37.50 75.90 Z "/>
</g>
</svg>