<?xml version="1.0" encoding="UTF-8" standalone="no"?>
<!DOCTYPE svg PUBLIC "-//W3C//DTD SVG 1.1//EN" "http://www.w3.org/Graphics/SVG/1.1/DTD/svg11.dtd" >
<svg xmlns="http://www.w3.org/2000/svg" xmlns:xlink="http://www.w3.org/1999/xlink" version="1.1" viewBox="0 0 256 256">
 <g >
 <path fill="currentColor"
d=" M 33.32 240.84 C 34.52 240.21 39.75 235.67 44.94 230.77 C 57.18 219.21 58.43 218.58 67.67 219.42 C 77.16 220.28 113.48 226.04 137.00 230.41 C 164.38 235.51 187.49 238.67 218.01 241.50 C 224.36 242.09 224.59 242.03 227.88 238.82 C 236.17 230.71 246.58 209.71 248.61 197.01 C 249.27 192.91 249.27 192.91 245.76 194.98 C 240.17 198.28 227.33 202.62 216.00 205.05 C 206.62 207.06 203.86 207.22 189.51 206.63 C 164.64 205.61 118.71 201.41 95.04 198.00 C 83.23 196.30 73.33 194.66 73.04 194.37 C 72.74 194.07 72.51 182.73 72.53 169.16 C 72.57 145.04 73.51 133.68 77.36 111.34 C 78.59 104.17 78.59 104.17 49.05 103.70 C 32.80 103.44 18.20 102.88 16.61 102.47 C 13.71 101.71 13.71 101.71 14.40 108.61 C 14.77 112.40 16.08 119.55 17.29 124.50 C 19.79 134.70 18.58 134.00 31.50 132.66 C 38.50 131.93 38.50 131.93 38.50 164.93 C 38.50 197.93 38.50 197.93 27.97 201.46 C 22.18 203.41 15.77 205.00 13.72 205.00 C 9.12 205.00 8.98 206.24 12.49 215.57 C 16.48 226.18 21.03 233.86 25.82 238.07 C 30.90 242.54 30.43 242.37 33.32 240.84 Z  M 179.61 194.87 C 178.93 186.74 178.93 186.74 200.72 187.53 C 212.70 187.97 224.03 188.36 225.91 188.41 C 228.97 188.49 229.54 188.05 231.60 184.00 C 233.65 179.94 237.51 167.01 236.79 166.58 C 236.63 166.48 231.10 166.72 224.50 167.11 C 217.90 167.50 204.74 167.86 195.25 167.91 C 178.00 168.00 178.00 168.00 178.00 163.00 C 178.00 158.00 178.00 158.00 187.25 157.99 C 192.34 157.98 204.02 158.50 213.21 159.14 C 226.38 160.07 230.23 160.05 231.40 159.08 C 232.83 157.90 237.23 145.69 238.46 139.50 C 239.05 136.50 239.05 136.50 228.78 137.14 C 223.12 137.50 209.46 137.84 198.41 137.89 C 178.31 138.00 178.31 138.00 178.93 134.25 C 179.54 130.50 179.54 130.50 188.52 130.50 C 193.46 130.50 203.88 130.83 211.68 131.23 C 225.87 131.96 225.87 131.96 225.18 128.23 C 224.26 123.20 224.31 92.35 225.25 88.13 C 226.00 84.77 226.00 84.77 204.75 85.63 C 177.25 86.76 121.50 86.75 103.16 85.62 C 88.82 84.73 88.82 84.73 89.66 95.12 C 90.72 108.28 90.72 116.68 89.65 125.40 C 88.81 132.30 88.81 132.30 100.15 131.67 C 106.39 131.33 118.81 130.74 127.75 130.37 C 144.00 129.70 144.00 129.70 144.00 133.85 C 144.00 138.00 144.00 138.00 121.75 137.89 C 109.51 137.84 94.85 137.50 89.17 137.14 C 78.85 136.50 78.85 136.50 79.43 139.50 C 79.74 141.15 81.47 146.43 83.25 151.24 C 85.63 157.65 86.97 159.98 88.25 159.99 C 90.70 160.00 90.45 161.05 87.04 165.04 C 82.84 169.95 83.21 174.82 88.75 187.32 C 90.92 192.20 91.67 193.05 93.42 192.62 C 101.64 190.59 121.46 187.81 131.35 187.30 C 143.19 186.68 143.19 186.68 142.49 193.28 C 141.78 199.87 141.78 199.87 145.14 200.45 C 155.90 202.32 160.54 202.78 169.89 202.88 C 180.29 203.00 180.29 203.00 179.61 194.87 Z  M 46.16 78.56 C 60.51 74.84 80.16 65.92 79.94 63.24 C 79.80 61.52 48.80 37.50 41.21 33.24 C 37.24 31.00 37.24 31.00 36.54 39.75 C 35.75 49.67 31.93 70.38 29.71 76.75 C 28.23 81.00 28.23 81.00 32.51 81.00 C 34.86 81.00 41.00 79.90 46.16 78.56 Z  M 161.00 79.50 C 197.03 79.50 227.96 79.83 229.74 80.22 C 232.76 80.90 233.12 80.69 234.86 77.22 C 236.73 73.48 239.28 65.96 240.45 60.65 C 241.08 57.85 241.03 57.82 237.29 58.36 C 235.21 58.66 230.00 59.19 225.72 59.54 C 217.95 60.18 217.95 60.18 218.58 55.84 C 218.93 53.45 220.26 46.55 221.53 40.51 C 222.81 34.46 223.71 29.38 223.55 29.22 C 223.39 29.05 216.78 29.38 208.88 29.95 C 200.97 30.52 187.39 30.98 178.71 30.99 C 162.91 31.00 162.91 31.00 163.21 27.25 C 163.50 23.50 163.50 23.50 156.50 21.73 C 152.65 20.75 145.34 19.67 140.25 19.33 C 131.00 18.70 131.00 18.70 131.00 24.38 C 131.00 28.41 130.58 30.22 129.56 30.62 C 128.76 30.92 120.35 30.69 110.87 30.11 C 101.38 29.52 93.42 29.25 93.16 29.50 C 92.46 30.20 95.69 42.51 97.86 47.42 C 99.79 51.78 99.79 51.78 112.95 51.24 C 126.11 50.71 126.11 50.71 125.42 53.60 C 124.05 59.29 123.25 60.00 118.21 59.96 C 115.62 59.94 106.30 59.53 97.51 59.04 C 88.71 58.55 81.33 58.33 81.11 58.56 C 80.61 59.06 84.13 69.86 86.88 76.23 C 88.85 80.82 89.02 80.94 92.21 80.23 C 94.02 79.83 124.97 79.50 161.00 79.50 Z  M 121.93 164.39 C 123.58 161.60 123.80 160.47 122.91 159.39 C 121.94 158.22 123.57 158.00 133.38 158.00 C 145.00 158.00 145.00 158.00 145.00 163.00 C 145.00 168.00 145.00 168.00 132.40 168.00 C 119.80 168.00 119.80 168.00 121.93 164.39 Z  M 121.25 112.34 C 120.51 112.04 120.00 110.01 120.00 107.42 C 120.00 103.00 120.00 103.00 157.00 103.00 C 194.00 103.00 194.00 103.00 194.00 108.00 C 194.00 113.00 194.00 113.00 158.25 112.92 C 138.59 112.88 121.94 112.62 121.25 112.34 Z  M 155.00 58.12 C 155.00 57.09 155.28 54.84 155.62 53.12 C 156.25 50.00 156.25 50.00 172.62 50.00 C 189.00 50.00 189.00 50.00 188.99 52.75 C 188.98 54.26 188.70 56.51 188.37 57.75 C 187.78 59.97 187.53 60.00 171.38 60.00 C 156.03 60.00 155.00 59.88 155.00 58.12 Z "/>
</g>
</svg>