<?xml version="1.0" encoding="UTF-8" standalone="no"?>
<!DOCTYPE svg PUBLIC "-//W3C//DTD SVG 1.1//EN" "http://www.w3.org/Graphics/SVG/1.1/DTD/svg11.dtd" >
<svg xmlns="http://www.w3.org/2000/svg" xmlns:xlink="http://www.w3.org/1999/xlink" version="1.1" viewBox="0 0 256 256">
 <g >
 <path fill="currentColor"
d=" M 54.61 235.75 C 54.27 233.96 53.70 209.55 53.35 181.50 C 52.71 130.50 52.71 130.50 56.90 134.29 C 59.20 136.37 62.63 138.81 64.51 139.71 C 67.79 141.27 68.27 141.23 76.03 138.67 C 84.22 135.97 100.21 128.41 105.13 124.91 C 107.47 123.24 109.55 123.01 121.65 123.09 C 129.27 123.14 137.75 123.48 140.50 123.86 C 145.50 124.54 145.50 124.54 141.03 127.42 C 138.57 129.01 132.78 132.12 128.17 134.33 C 119.78 138.35 119.78 138.35 125.64 140.43 C 131.27 142.43 131.52 142.66 132.03 146.51 C 132.87 152.75 136.96 162.01 138.87 161.95 C 139.76 161.92 145.45 161.52 151.50 161.05 C 159.51 160.43 162.70 160.51 163.23 161.35 C 163.64 161.98 163.98 164.71 163.98 167.41 C 164.00 172.31 164.00 172.31 149.68 171.69 C 141.80 171.35 134.53 170.76 133.52 170.37 C 131.90 169.75 131.76 170.05 132.34 172.93 C 132.69 174.72 134.39 179.13 136.11 182.72 C 139.23 189.26 139.23 189.26 151.61 188.55 C 164.00 187.85 164.00 187.85 164.00 194.42 C 164.00 201.00 164.00 201.00 128.00 201.00 C 92.00 201.00 92.00 201.00 92.00 194.38 C 92.00 187.75 92.00 187.75 104.04 188.18 C 116.08 188.61 116.08 188.61 119.05 182.40 C 120.68 178.98 122.27 174.89 122.59 173.31 C 123.16 170.43 123.16 170.43 115.33 171.15 C 111.02 171.54 103.99 171.89 99.70 171.93 C 91.90 172.00 91.90 172.00 92.20 165.75 C 92.50 159.50 92.50 159.50 103.33 158.73 C 120.19 157.53 124.52 156.71 124.37 154.75 C 124.10 151.41 118.89 144.06 113.53 139.48 C 108.04 134.79 108.04 134.79 105.05 137.30 C 99.84 141.69 80.91 146.96 70.29 146.99 C 64.08 147.00 64.08 147.00 64.79 153.75 C 65.73 162.70 65.70 198.00 64.73 210.22 C 63.96 219.94 63.96 219.94 72.23 219.22 C 83.01 218.28 176.45 218.28 185.38 219.22 C 192.25 219.95 192.25 219.95 191.38 211.72 C 190.29 201.53 190.23 164.91 191.28 151.61 C 192.06 141.73 192.06 141.73 188.28 142.38 C 181.43 143.55 159.51 144.30 154.46 143.54 C 149.50 142.79 149.50 142.79 155.58 139.65 C 158.93 137.92 166.22 133.57 171.79 130.00 C 182.71 122.98 182.38 123.48 183.53 112.39 C 184.16 106.27 184.16 106.27 155.84 106.78 C 130.12 107.25 127.63 107.15 128.82 105.72 C 130.36 103.86 129.45 103.24 119.68 99.48 C 113.50 97.10 113.50 97.10 117.58 97.05 C 121.66 97.00 121.66 97.00 120.74 90.25 C 120.23 86.54 119.97 70.35 120.16 54.27 C 120.50 25.05 120.50 25.05 110.00 25.77 C 95.90 26.75 43.05 26.70 30.15 25.70 C 19.81 24.90 19.81 24.90 20.45 30.70 C 20.81 33.89 21.33 73.29 21.62 118.26 C 22.05 187.31 21.89 202.57 20.58 216.38 C 19.73 225.38 18.78 233.42 18.46 234.25 C 17.98 235.49 19.83 235.94 29.19 236.88 C 46.18 238.58 47.19 238.67 51.36 238.84 C 55.20 239.00 55.22 238.98 54.61 235.75 Z  M 234.31 229.25 C 233.30 217.12 233.23 36.26 234.23 29.76 C 234.96 25.02 234.96 25.02 222.73 25.76 C 207.06 26.71 158.65 26.72 145.00 25.77 C 134.50 25.05 134.50 25.05 134.50 61.14 C 134.50 97.23 134.50 97.23 142.50 96.64 C 146.90 96.31 162.09 95.74 176.25 95.37 C 202.00 94.70 202.00 94.70 201.98 150.10 C 201.96 189.24 201.55 209.66 200.59 219.67 C 199.84 227.46 198.95 234.27 198.63 234.79 C 198.27 235.37 203.36 236.24 211.27 236.96 C 218.55 237.62 225.18 238.30 226.00 238.47 C 226.82 238.63 229.21 238.82 231.31 238.88 C 235.12 239.00 235.12 239.00 234.31 229.25 Z  M 53.00 111.50 C 53.00 95.00 53.00 95.00 72.50 95.00 C 94.55 95.00 94.25 94.87 89.08 102.38 C 85.32 107.85 79.48 113.09 71.16 118.45 C 64.91 122.48 54.72 128.00 53.53 128.00 C 53.24 128.00 53.00 120.58 53.00 111.50 Z  M 63.75 78.27 C 53.00 77.93 53.00 77.93 53.00 73.47 C 53.00 69.00 53.00 69.00 71.55 69.00 C 90.11 69.00 90.11 69.00 89.80 73.75 C 89.50 78.50 89.50 78.50 82.00 78.56 C 77.88 78.59 69.66 78.46 63.75 78.27 Z  M 54.00 48.52 C 54.00 44.00 54.00 44.00 72.06 44.00 C 90.11 44.00 90.11 44.00 89.81 48.25 C 89.50 52.50 89.50 52.50 71.75 52.77 C 54.00 53.05 54.00 53.05 54.00 48.52 Z  M 166.67 78.33 C 166.30 77.97 166.00 75.72 166.00 73.33 C 166.00 69.00 166.00 69.00 184.00 69.00 C 202.00 69.00 202.00 69.00 202.00 73.35 C 202.00 77.70 202.00 77.70 193.75 78.35 C 182.96 79.19 167.51 79.18 166.67 78.33 Z  M 166.67 52.33 C 166.30 51.97 166.00 49.94 166.00 47.83 C 166.00 44.00 166.00 44.00 183.50 44.00 C 201.00 44.00 201.00 44.00 201.00 48.50 C 201.00 53.00 201.00 53.00 184.17 53.00 C 174.91 53.00 167.03 52.70 166.67 52.33 Z "/>
</g>
</svg>