<?xml version="1.0" encoding="UTF-8" standalone="no"?>
<!DOCTYPE svg PUBLIC "-//W3C//DTD SVG 1.1//EN" "http://www.w3.org/Graphics/SVG/1.1/DTD/svg11.dtd" >
<svg xmlns="http://www.w3.org/2000/svg" xmlns:xlink="http://www.w3.org/1999/xlink" version="1.1" viewBox="0 0 256 256">
 <g >
 <path fill="currentColor"
d=" M 234.32 230.25 C 233.30 215.60 233.23 38.28 234.25 31.64 C 234.99 26.77 234.99 26.77 231.75 27.37 C 225.57 28.50 140.43 29.16 121.50 28.22 C 111.05 27.70 102.36 27.40 102.18 27.54 C 102.01 27.69 103.58 33.98 105.69 41.52 C 109.51 55.23 109.51 55.23 155.15 55.06 C 200.80 54.89 200.80 54.89 201.46 66.20 C 201.83 72.41 201.99 108.33 201.82 146.00 C 201.50 214.50 201.50 214.50 198.12 221.00 C 196.27 224.57 193.83 228.80 192.71 230.39 C 190.71 233.22 190.70 233.31 192.56 234.67 C 196.18 237.31 204.85 239.25 222.50 241.34 C 224.15 241.54 227.67 241.77 230.32 241.85 C 235.14 242.00 235.14 242.00 234.32 230.25 Z  M 54.29 231.25 C 53.55 222.23 53.23 112.86 53.85 80.00 C 54.19 61.50 54.19 61.50 49.44 60.29 C 46.83 59.62 39.10 58.77 32.25 58.39 C 19.82 57.70 19.82 57.70 20.41 64.60 C 20.73 68.39 21.26 98.50 21.58 131.50 C 22.06 180.95 21.89 195.10 20.58 212.00 C 19.71 223.28 18.74 233.47 18.41 234.67 C 17.86 236.66 18.28 236.89 23.66 237.55 C 26.87 237.94 31.52 238.60 34.00 239.01 C 36.48 239.43 42.22 239.82 46.76 239.88 C 55.01 240.00 55.01 240.00 54.29 231.25 Z  M 127.50 221.50 C 153.90 221.50 179.21 221.82 183.74 222.22 C 191.98 222.94 191.98 222.94 191.24 212.22 C 190.29 198.45 190.28 141.67 191.23 128.00 C 191.95 117.50 191.95 117.50 171.73 117.84 C 151.50 118.17 151.50 118.17 161.72 111.84 C 191.57 93.32 188.34 96.65 189.56 83.12 C 190.23 75.74 190.23 75.74 183.86 76.35 C 180.36 76.69 168.05 77.25 156.50 77.60 C 135.50 78.23 135.50 78.23 139.25 74.32 C 141.31 72.17 143.00 70.07 143.00 69.66 C 143.00 68.04 128.06 61.92 119.50 60.03 C 108.33 57.56 106.09 57.52 105.38 59.75 C 103.33 66.24 100.66 70.36 94.51 76.50 C 87.68 83.33 74.76 92.76 64.33 98.55 C 59.16 101.42 59.16 101.42 61.18 104.25 C 62.29 105.81 65.64 108.93 68.63 111.19 C 74.01 115.25 74.12 115.28 78.28 114.03 C 83.22 112.55 99.73 104.39 106.60 100.04 C 111.39 97.00 111.39 97.00 126.70 97.00 C 135.11 97.00 142.00 97.36 142.00 97.81 C 142.00 98.59 130.11 105.93 123.10 109.48 C 119.01 111.55 119.65 112.14 129.11 115.00 C 135.72 117.00 135.72 117.00 136.28 122.75 C 136.58 125.91 137.80 131.57 138.98 135.32 C 141.02 141.80 141.25 142.11 143.81 141.63 C 145.29 141.35 149.09 140.84 152.25 140.49 C 158.00 139.86 158.00 139.86 158.00 148.93 C 158.00 158.00 158.00 158.00 152.25 157.93 C 149.09 157.89 144.14 157.52 141.25 157.11 C 136.47 156.43 136.00 156.53 136.00 158.28 C 136.00 161.27 138.94 171.97 141.23 177.30 C 143.29 182.11 143.29 182.11 148.90 181.47 C 151.98 181.12 155.29 180.62 156.25 180.35 C 157.83 179.91 158.00 180.80 158.00 189.43 C 158.00 199.00 158.00 199.00 127.50 199.00 C 97.00 199.00 97.00 199.00 97.00 189.37 C 97.00 179.74 97.00 179.74 102.25 180.43 C 105.14 180.80 108.44 181.34 109.60 181.63 C 111.33 182.05 112.05 181.31 113.76 177.32 C 116.06 171.96 119.00 161.27 119.00 158.26 C 119.00 156.50 118.56 156.39 114.25 157.10 C 111.64 157.53 106.74 157.91 103.36 157.94 C 96.17 158.01 96.00 157.79 96.00 148.50 C 96.00 139.93 96.48 139.00 100.86 139.00 C 107.96 139.00 121.00 136.73 121.00 135.48 C 121.00 132.70 113.76 120.11 109.30 115.13 C 104.49 109.76 104.49 109.76 98.49 113.88 C 91.89 118.41 81.54 121.56 69.69 122.66 C 62.81 123.31 62.81 123.31 63.65 133.40 C 64.70 145.92 64.76 195.41 63.75 211.22 C 62.99 222.94 62.99 222.94 71.25 222.22 C 75.79 221.82 101.10 221.50 127.50 221.50 Z  M 72.51 63.16 C 77.28 60.25 88.75 48.12 93.55 40.91 C 99.83 31.48 99.87 31.25 95.33 30.44 C 93.23 30.07 83.13 27.79 72.91 25.38 C 62.68 22.97 54.02 21.00 53.66 21.00 C 51.33 21.00 57.15 48.46 61.13 56.27 C 65.97 65.77 67.11 66.45 72.51 63.16 Z "/>
</g>
</svg>