<?xml version="1.0" encoding="UTF-8" standalone="no"?>
<!DOCTYPE svg PUBLIC "-//W3C//DTD SVG 1.1//EN" "http://www.w3.org/Graphics/SVG/1.1/DTD/svg11.dtd" >
<svg xmlns="http://www.w3.org/2000/svg" xmlns:xlink="http://www.w3.org/1999/xlink" version="1.1" viewBox="0 0 256 256">
 <g >
 <path fill="currentColor"
d=" M 222.00 232.81 C 228.52 230.85 231.80 228.11 234.70 222.20 C 237.50 216.50 237.50 216.50 238.00 176.00 C 238.50 136.32 238.55 135.40 240.80 130.74 C 242.82 126.56 242.94 125.65 241.80 123.28 C 239.54 118.59 224.48 108.27 216.91 106.22 C 211.76 104.83 207.62 106.85 204.24 112.42 C 201.50 116.94 201.50 116.94 193.75 116.97 C 186.00 117.00 186.00 117.00 186.00 112.00 C 186.00 104.95 184.24 103.52 173.87 102.10 C 169.27 101.47 163.93 100.86 162.00 100.73 C 159.66 100.58 158.50 100.00 158.50 99.00 C 158.50 97.79 160.34 97.44 167.94 97.21 C 177.39 96.92 177.39 96.92 179.77 99.96 C 182.08 102.91 182.38 103.00 190.32 102.96 C 202.54 102.91 211.88 100.84 214.70 97.56 C 216.85 95.06 217.00 94.03 217.00 81.44 C 217.00 68.00 217.00 68.00 229.93 68.00 C 247.02 68.00 250.15 66.72 248.57 60.41 C 247.79 57.32 239.67 48.40 235.83 46.41 C 231.42 44.13 229.04 44.70 225.11 49.00 C 222.94 51.38 220.55 53.00 219.23 53.00 C 217.06 53.00 217.00 52.70 217.00 42.19 C 217.00 35.05 216.58 30.85 215.75 29.81 C 214.37 28.09 200.93 25.39 188.42 24.33 C 178.09 23.46 178.00 23.60 178.00 40.23 C 178.00 53.08 178.00 53.08 169.25 52.79 C 160.50 52.50 160.50 52.50 160.21 42.04 C 159.88 29.93 159.21 28.69 152.17 27.11 C 145.14 25.54 128.97 23.78 125.00 24.16 C 121.50 24.50 121.50 24.50 121.00 38.50 C 120.50 52.50 120.50 52.50 108.50 53.00 C 96.58 53.50 96.47 53.48 92.16 50.62 C 86.59 46.92 72.57 41.00 69.37 41.00 C 66.61 41.00 63.33 44.11 60.46 49.44 C 58.74 52.64 58.13 53.00 54.40 53.00 C 51.84 53.00 49.74 52.40 48.94 51.43 C 46.76 48.81 40.47 46.08 30.45 43.41 C 13.62 38.93 15.50 28.26 15.50 128.33 C 15.50 213.13 15.55 215.19 17.44 216.58 C 20.18 218.58 26.70 218.34 36.52 215.88 C 46.86 213.29 49.68 210.88 50.61 203.88 C 51.26 199.00 51.26 199.00 55.63 199.00 C 60.00 199.00 60.00 199.00 60.00 203.55 C 60.00 207.04 60.57 208.66 62.45 210.55 C 65.30 213.39 65.33 213.39 78.43 211.52 C 89.73 209.90 92.49 208.11 94.05 201.41 C 94.54 199.26 94.97 168.25 94.98 132.50 C 95.01 70.20 95.09 67.38 96.93 64.60 C 98.84 61.70 98.84 61.70 99.17 64.60 C 99.50 67.50 99.50 67.50 110.25 67.78 C 121.00 68.07 121.00 68.07 121.00 84.53 C 121.00 106.17 120.41 105.45 137.63 104.78 C 150.00 104.31 150.00 104.31 150.00 110.65 C 150.00 117.00 150.00 117.00 141.65 117.00 C 134.75 117.00 133.02 116.68 131.60 115.11 C 126.79 109.79 107.76 104.76 103.25 107.62 C 101.00 109.05 101.00 109.05 101.00 168.46 C 101.00 204.19 101.38 228.88 101.96 230.41 C 103.26 233.81 106.86 234.55 114.90 233.09 C 125.40 231.18 129.06 229.81 132.64 226.43 C 136.00 223.26 136.00 223.26 136.00 206.13 C 136.00 189.00 136.00 189.00 139.71 183.84 C 143.43 178.67 143.43 178.67 144.47 183.58 C 145.46 188.30 145.65 188.51 149.16 188.80 C 152.81 189.11 152.81 189.11 153.17 206.80 C 153.56 225.75 154.21 228.51 158.52 229.59 C 160.99 230.21 170.27 228.91 177.25 226.96 C 182.02 225.62 184.00 221.96 184.00 214.48 C 184.00 209.12 184.10 208.90 186.25 209.54 C 190.86 210.91 192.36 213.55 193.13 221.63 C 194.00 230.65 195.69 232.97 202.20 234.09 C 207.23 234.94 217.01 234.31 222.00 232.81 Z  M 184.00 193.68 C 184.00 187.88 184.33 186.92 187.95 182.07 C 191.89 176.78 191.89 176.78 192.20 182.64 C 192.50 188.50 192.50 188.50 197.25 188.50 C 202.00 188.50 202.00 188.50 202.00 193.05 C 202.00 195.55 201.46 198.14 200.80 198.80 C 200.07 199.53 196.53 200.00 191.80 200.00 C 184.00 200.00 184.00 200.00 184.00 193.68 Z  M 51.00 168.50 C 51.00 154.00 51.00 154.00 55.50 154.00 C 60.00 154.00 60.00 154.00 60.00 168.50 C 60.00 183.00 60.00 183.00 55.50 183.00 C 51.00 183.00 51.00 183.00 51.00 168.50 Z  M 136.23 148.25 C 136.50 131.50 136.50 131.50 144.75 131.21 C 153.00 130.92 153.00 130.92 152.99 140.71 C 152.99 150.50 152.99 150.50 148.90 143.69 C 145.63 138.24 144.39 136.95 142.66 137.19 C 140.66 137.48 140.52 137.98 140.81 144.20 C 141.02 148.85 140.48 153.04 139.02 157.95 C 137.86 161.83 136.70 165.00 136.43 165.00 C 136.17 165.00 136.08 157.46 136.23 148.25 Z  M 184.27 147.50 C 184.50 131.50 184.50 131.50 193.25 131.21 C 202.00 130.92 202.00 130.92 201.99 141.71 C 201.98 152.50 201.98 152.50 199.32 148.00 C 193.24 137.74 190.70 135.63 187.15 137.89 C 186.04 138.59 186.02 139.71 187.03 144.24 C 188.01 148.62 188.00 150.84 187.00 155.12 C 184.62 165.30 184.03 163.66 184.27 147.50 Z  M 51.00 124.94 C 51.00 109.89 51.00 109.89 55.25 110.19 C 59.50 110.50 59.50 110.50 59.78 125.25 C 60.05 140.00 60.05 140.00 55.53 140.00 C 51.00 140.00 51.00 140.00 51.00 124.94 Z  M 51.00 82.00 C 51.00 68.00 51.00 68.00 55.50 68.00 C 60.00 68.00 60.00 68.00 60.00 82.00 C 60.00 96.00 60.00 96.00 55.50 96.00 C 51.00 96.00 51.00 96.00 51.00 82.00 Z  M 160.67 83.33 C 160.30 82.97 160.00 79.37 160.00 75.33 C 160.00 68.00 160.00 68.00 169.00 68.00 C 178.00 68.00 178.00 68.00 178.00 76.00 C 178.00 84.00 178.00 84.00 169.67 84.00 C 165.08 84.00 161.03 83.70 160.67 83.33 Z "/>
</g>
</svg>