<?xml version="1.0" encoding="UTF-8" standalone="no"?>
<!DOCTYPE svg PUBLIC "-//W3C//DTD SVG 1.1//EN" "http://www.w3.org/Graphics/SVG/1.1/DTD/svg11.dtd" >
<svg xmlns="http://www.w3.org/2000/svg" xmlns:xlink="http://www.w3.org/1999/xlink" version="1.1" viewBox="0 0 256 256">
 <g >
 <path fill="currentColor"
d=" M 54.01 233.61 C 64.60 231.89 69.33 229.96 71.67 226.38 C 73.33 223.85 73.55 220.29 74.00 188.05 C 74.28 168.50 74.83 153.40 75.22 154.50 C 75.62 155.60 76.65 159.86 77.51 163.98 C 78.37 168.09 79.70 172.42 80.47 173.60 C 82.44 176.60 86.32 177.09 90.08 174.80 C 91.81 173.75 93.49 173.15 93.80 173.47 C 95.36 175.02 86.00 206.73 79.33 222.50 C 75.95 230.50 75.95 230.50 78.66 232.69 C 82.29 235.61 83.01 235.16 97.05 221.08 C 108.60 209.50 108.60 209.50 112.28 215.26 C 118.50 225.02 121.73 225.05 133.53 215.43 C 139.34 210.70 139.34 210.70 141.17 212.96 C 142.28 214.33 143.00 216.85 143.01 219.36 C 143.02 226.48 144.74 230.81 148.29 232.65 C 152.81 234.99 171.55 234.90 178.50 232.51 C 189.54 228.72 191.94 223.75 192.00 204.50 C 192.04 190.50 192.04 190.50 197.43 201.54 C 207.76 222.73 219.12 232.80 226.70 227.50 C 227.88 226.67 229.15 224.60 229.52 222.89 C 230.39 218.95 236.05 212.64 241.67 209.35 C 244.05 207.95 246.01 206.52 246.01 206.15 C 246.02 205.79 246.28 204.55 246.59 203.39 C 247.08 201.58 246.02 200.65 239.33 197.00 C 229.97 191.90 218.83 184.57 216.49 181.99 C 214.88 180.21 214.98 180.08 218.65 179.05 C 220.77 178.45 225.65 176.29 229.50 174.23 C 239.22 169.05 239.27 167.63 230.07 159.00 C 222.96 152.33 222.96 152.33 224.48 148.70 C 225.50 146.27 226.00 141.74 226.00 135.07 C 226.00 125.07 226.00 125.07 236.23 124.78 C 246.24 124.51 246.48 124.44 247.37 121.89 C 248.57 118.47 244.99 111.13 239.86 106.49 C 235.56 102.60 233.23 102.74 229.55 107.12 C 226.51 110.74 226.00 110.73 226.00 107.05 C 226.00 105.23 226.96 103.13 228.50 101.59 C 232.82 97.27 231.99 93.22 225.52 87.11 C 219.75 81.65 211.24 77.03 206.94 77.01 C 204.30 77.00 200.24 80.56 198.05 84.81 C 196.28 88.25 192.58 87.42 192.23 83.50 C 191.69 77.63 190.99 76.24 187.76 74.65 C 184.68 73.13 186.00 73.04 211.53 73.02 C 234.35 73.00 238.90 72.76 240.78 71.44 C 245.43 68.18 242.23 59.95 233.08 51.69 C 227.38 46.54 224.81 46.78 218.81 53.00 C 213.99 58.00 213.99 58.00 201.50 58.00 C 194.62 58.00 189.00 57.82 189.00 57.59 C 189.00 57.36 190.35 54.33 192.00 50.84 C 195.63 43.16 195.72 41.01 192.57 37.27 C 187.79 31.59 167.94 24.11 153.23 22.45 C 147.37 21.78 147.33 21.80 146.08 24.81 C 144.90 27.65 145.11 28.32 149.29 35.20 C 153.58 42.27 161.00 56.38 161.00 57.48 C 161.00 57.76 155.43 58.00 148.62 58.00 C 138.38 58.00 136.01 57.72 134.89 56.36 C 133.00 54.10 126.90 51.62 117.01 49.12 C 107.90 46.82 101.98 46.42 100.39 48.01 C 99.71 48.69 97.43 48.24 93.44 46.64 C 85.15 43.33 82.41 42.79 81.23 44.26 C 80.69 44.94 79.51 49.10 78.61 53.50 C 77.71 57.90 76.35 63.75 75.58 66.50 C 74.23 71.31 74.18 70.85 74.09 54.40 C 74.04 44.69 73.52 35.92 72.89 34.11 C 70.97 28.59 58.30 24.04 44.79 24.01 C 39.16 24.00 37.90 24.31 37.04 25.93 C 36.44 27.04 35.99 35.07 35.97 44.68 C 35.94 61.50 35.94 61.50 33.80 58.50 C 32.63 56.85 28.94 52.88 25.59 49.67 C 20.28 44.58 19.14 43.92 16.58 44.43 C 14.97 44.76 13.50 45.17 13.32 45.34 C 13.15 45.52 13.65 50.13 14.44 55.58 C 15.22 61.04 16.38 71.35 17.00 78.50 C 18.33 93.74 19.63 96.56 25.23 96.40 C 27.14 96.34 30.18 95.56 32.00 94.65 C 33.82 93.74 35.46 93.00 35.65 93.00 C 35.84 93.00 36.00 95.03 36.00 97.50 C 36.00 102.00 36.00 102.00 22.42 102.00 C 7.25 102.00 8.27 101.07 11.12 112.25 C 12.08 116.00 12.08 116.00 20.04 116.00 C 24.42 116.00 28.00 116.15 28.00 116.33 C 28.00 116.50 27.08 121.79 25.95 128.08 C 22.89 145.06 17.55 165.51 11.47 183.50 C 6.05 199.50 6.05 199.50 8.47 201.92 C 10.88 204.34 10.88 204.34 16.49 200.01 C 19.58 197.62 25.23 192.33 29.05 188.24 C 36.00 180.80 36.00 180.80 36.01 203.15 C 36.01 225.99 36.77 232.18 39.79 233.94 C 42.08 235.28 44.01 235.23 54.01 233.61 Z  M 150.28 197.34 C 154.50 191.69 154.50 191.69 154.81 195.92 C 155.19 201.12 153.76 203.00 149.41 203.00 C 146.06 203.00 146.06 203.00 150.28 197.34 Z  M 123.47 185.27 C 123.86 184.30 125.09 181.03 126.21 178.00 C 127.33 174.97 128.57 172.14 128.97 171.71 C 129.36 171.27 130.58 173.35 131.68 176.34 C 133.68 181.76 133.68 181.76 130.99 183.35 C 129.51 184.22 127.06 185.41 125.54 185.99 C 123.08 186.92 122.85 186.84 123.47 185.27 Z  M 154.00 167.97 C 154.00 161.72 151.65 158.44 144.85 155.21 C 141.36 153.55 137.73 151.95 136.78 151.64 C 135.25 151.15 135.13 149.85 135.62 139.29 C 135.92 132.81 136.34 126.94 136.55 126.25 C 136.82 125.37 139.62 125.00 145.97 125.00 C 155.00 125.00 155.00 125.00 155.00 130.00 C 155.00 135.00 155.00 135.00 146.50 135.00 C 136.89 135.00 137.29 134.53 138.64 144.36 C 139.27 149.00 139.27 149.00 147.14 149.00 C 155.00 149.00 155.00 149.00 155.00 160.00 C 155.00 166.05 154.78 171.00 154.50 171.00 C 154.22 171.00 154.00 169.64 154.00 167.97 Z  M 199.79 166.23 C 195.54 161.27 192.00 154.84 192.00 152.07 C 192.00 149.33 192.32 149.00 195.00 149.00 C 197.00 149.00 198.00 149.50 198.00 150.50 C 198.00 151.32 198.92 152.92 200.04 154.04 C 201.66 155.66 202.81 155.94 205.64 155.41 C 209.11 154.76 209.18 154.80 208.00 157.00 C 207.33 158.25 205.55 161.22 204.03 163.61 C 201.48 167.64 201.16 167.83 199.79 166.23 Z  M 91.20 137.71 C 87.19 133.67 81.68 129.04 78.97 127.43 C 74.30 124.66 74.04 124.27 74.02 120.25 C 74.00 116.00 74.00 116.00 87.00 116.00 C 100.00 116.00 100.00 116.00 99.91 125.75 C 99.86 131.11 99.53 137.65 99.16 140.28 C 98.50 145.07 98.50 145.07 91.20 137.71 Z  M 192.20 130.25 C 192.46 126.20 192.83 125.45 194.75 125.18 C 196.83 124.89 197.00 125.25 197.00 129.93 C 197.00 134.70 196.85 135.00 194.45 135.00 C 192.02 135.00 191.91 134.76 192.20 130.25 Z  M 137.00 91.50 C 137.00 73.00 137.00 73.00 146.62 73.00 C 156.10 73.00 156.22 73.03 155.63 75.25 C 155.30 76.49 155.02 79.64 155.01 82.25 C 155.00 87.00 155.00 87.00 147.50 87.00 C 139.10 87.00 139.43 86.60 140.64 95.36 C 141.27 100.00 141.27 100.00 148.14 100.00 C 155.00 100.00 155.00 100.00 155.00 105.00 C 155.00 110.00 155.00 110.00 146.00 110.00 C 137.00 110.00 137.00 110.00 137.00 91.50 Z  M 192.20 105.25 C 192.46 101.20 192.83 100.45 194.75 100.18 C 196.83 99.89 197.00 100.25 197.00 104.93 C 197.00 109.70 196.85 110.00 194.45 110.00 C 192.02 110.00 191.91 109.76 192.20 105.25 Z  M 95.70 98.55 C 90.66 92.51 87.46 92.37 83.00 98.00 C 80.60 101.03 79.12 102.00 76.92 102.00 C 72.23 102.00 73.31 99.50 81.89 90.43 C 86.23 85.85 91.97 78.81 94.64 74.80 C 99.50 67.50 99.50 67.50 99.79 76.80 C 99.95 81.92 99.95 89.93 99.79 94.60 C 99.50 103.10 99.50 103.10 95.70 98.55 Z "/>
</g>
</svg>