<?xml version="1.0" encoding="UTF-8" standalone="no"?>
<!DOCTYPE svg PUBLIC "-//W3C//DTD SVG 1.1//EN" "http://www.w3.org/Graphics/SVG/1.1/DTD/svg11.dtd" >
<svg xmlns="http://www.w3.org/2000/svg" xmlns:xlink="http://www.w3.org/1999/xlink" version="1.1" viewBox="0 0 256 256">
 <g >
 <path fill="currentColor"
d=" M 41.50 234.43 C 73.35 230.28 102.01 218.39 115.96 203.55 C 117.27 202.15 118.72 201.00 119.17 201.00 C 119.63 201.00 120.00 205.84 120.00 211.75 C 120.00 224.22 121.42 228.23 127.00 231.47 C 130.36 233.42 132.34 233.51 178.00 233.80 C 204.12 233.97 226.95 233.84 228.72 233.51 C 230.49 233.19 233.26 231.81 234.88 230.45 C 237.30 228.41 238.04 226.71 239.01 220.93 C 240.71 210.83 239.52 205.27 235.00 202.22 C 233.07 200.93 230.96 198.85 230.30 197.60 C 229.04 195.19 227.00 178.12 227.00 169.89 C 227.00 165.90 226.68 165.00 225.25 164.99 C 224.29 164.98 222.55 164.72 221.40 164.41 C 219.50 163.90 219.17 164.47 218.06 170.11 C 216.08 180.16 212.00 193.34 210.28 195.24 C 208.85 196.82 206.34 197.00 185.38 197.00 C 163.36 197.00 162.01 196.89 161.04 195.07 C 160.43 193.94 159.99 185.50 159.98 174.82 C 159.98 164.74 159.64 156.00 159.23 155.40 C 158.02 153.58 154.77 152.24 149.74 151.48 C 147.12 151.09 144.73 150.37 144.42 149.87 C 144.12 149.38 144.39 144.60 145.03 139.24 C 146.56 126.44 146.50 123.07 144.71 121.28 C 142.04 118.61 105.87 112.78 104.61 114.82 C 104.28 115.35 103.34 120.90 102.52 127.14 C 98.75 155.81 90.00 174.87 72.50 192.55 C 60.77 204.40 49.88 211.88 28.75 222.59 C 20.64 226.70 14.00 230.21 14.00 230.38 C 14.00 230.56 14.50 232.14 15.11 233.90 C 16.23 237.10 16.23 237.10 23.36 236.48 C 27.29 236.14 35.45 235.22 41.50 234.43 Z  M 64.93 183.94 C 72.84 182.66 80.03 179.66 83.15 176.34 C 85.50 173.84 85.50 173.84 85.80 141.42 C 86.10 109.00 86.10 109.00 125.05 109.00 C 164.00 109.00 164.00 109.00 164.02 140.25 C 164.05 172.44 164.59 178.46 167.70 180.82 C 169.99 182.57 191.66 181.80 200.37 179.65 C 210.94 177.05 210.46 178.80 210.79 142.33 C 211.06 112.69 211.20 110.56 213.04 108.22 C 214.12 106.85 215.00 104.22 215.00 102.37 C 215.00 99.59 214.30 98.50 210.89 96.04 C 205.42 92.07 193.23 87.51 184.00 85.97 C 176.50 84.71 176.50 84.71 180.60 82.96 C 185.39 80.91 188.00 75.81 188.00 68.48 C 188.00 64.00 188.00 64.00 213.75 63.99 C 241.74 63.97 244.25 63.55 244.80 58.85 C 245.03 56.89 243.72 54.61 239.57 49.71 C 233.59 42.66 228.60 39.00 224.98 39.00 C 223.50 39.00 220.92 40.93 217.59 44.53 C 212.48 50.07 212.48 50.07 200.49 49.78 C 188.50 49.50 188.50 49.50 188.21 41.03 C 188.00 35.09 187.45 32.05 186.35 30.84 C 184.22 28.48 173.37 26.17 157.85 24.76 C 143.83 23.49 142.06 23.84 140.87 28.09 C 140.50 29.42 140.15 34.89 140.10 40.25 C 140.00 50.00 140.00 50.00 125.50 50.00 C 111.00 50.00 111.00 50.00 111.00 42.55 C 111.00 33.58 109.73 30.39 105.60 29.05 C 99.44 27.04 81.12 24.92 72.41 25.21 C 63.50 25.50 63.50 25.50 63.00 37.50 C 62.50 49.50 62.50 49.50 37.67 49.77 C 12.83 50.04 12.83 50.04 13.47 54.27 C 15.11 65.14 12.12 64.00 39.08 64.00 C 63.00 64.00 63.00 64.00 63.00 71.03 C 63.00 82.70 65.77 86.66 74.23 87.11 C 79.01 87.36 101.21 84.96 102.98 84.00 C 107.08 81.79 109.24 77.99 110.33 71.07 C 111.44 64.00 111.44 64.00 125.58 64.00 C 139.72 64.00 139.72 64.00 140.41 71.56 C 140.79 75.71 141.58 80.18 142.18 81.49 C 143.88 85.23 148.38 86.49 159.61 86.40 C 169.73 86.31 169.73 86.31 167.11 90.63 C 164.50 94.94 164.50 94.94 124.91 94.97 C 85.32 95.00 85.32 95.00 79.41 92.13 C 76.16 90.55 70.73 88.52 67.35 87.61 C 59.29 85.44 43.03 83.93 40.75 85.14 C 39.12 86.01 39.00 89.31 39.00 132.60 C 39.00 178.95 39.21 182.10 42.40 184.23 C 44.02 185.32 57.53 185.14 64.93 183.94 Z "/>
</g>
</svg>