<?xml version="1.0" encoding="UTF-8" standalone="no"?>
<!DOCTYPE svg PUBLIC "-//W3C//DTD SVG 1.1//EN" "http://www.w3.org/Graphics/SVG/1.1/DTD/svg11.dtd" >
<svg xmlns="http://www.w3.org/2000/svg" xmlns:xlink="http://www.w3.org/1999/xlink" version="1.1" viewBox="0 0 256 256">
 <g >
 <path fill="currentColor"
d=" M 166.59 234.92 C 170.85 234.33 176.74 232.95 179.68 231.85 C 187.81 228.80 188.00 228.13 188.00 202.05 C 188.00 180.00 188.00 180.00 216.07 180.00 C 233.50 180.00 244.86 179.61 246.07 178.96 C 249.97 176.87 247.64 170.47 240.14 162.67 C 231.39 153.57 227.69 153.14 221.21 160.50 C 217.25 165.00 217.25 165.00 202.62 165.00 C 188.00 165.00 188.00 165.00 187.98 156.75 C 187.97 147.55 187.75 146.96 183.50 144.69 C 180.68 143.18 182.14 143.08 207.70 143.04 C 236.88 143.00 239.09 142.67 241.50 137.99 C 242.27 136.52 243.17 130.09 243.57 123.28 C 244.35 109.88 245.07 111.89 236.75 104.26 C 235.29 102.91 235.00 100.85 235.00 91.76 C 235.00 80.88 235.00 80.88 231.34 81.19 C 227.68 81.50 227.68 81.50 225.03 90.00 C 222.21 99.02 220.39 103.04 218.60 104.23 C 218.00 104.64 214.03 104.98 209.79 104.98 C 201.16 105.00 200.00 104.15 200.00 97.79 C 200.00 94.61 200.39 94.25 207.75 90.62 C 212.01 88.52 219.10 84.42 223.50 81.49 C 240.03 70.51 242.26 66.75 236.99 58.79 C 232.44 51.94 220.78 40.00 218.63 40.00 C 217.60 40.00 212.99 43.68 208.38 48.18 C 200.00 56.35 200.00 56.35 200.00 45.29 C 200.00 36.14 199.69 33.84 198.21 32.01 C 195.97 29.24 181.59 25.20 170.90 24.34 C 159.47 23.42 160.00 21.69 160.00 59.63 C 160.00 90.82 160.00 90.82 153.57 95.41 C 150.03 97.94 146.88 100.00 146.57 100.00 C 146.26 100.00 146.00 92.27 146.00 82.82 C 146.00 65.63 146.00 65.63 151.41 56.57 C 157.91 45.68 158.55 43.75 156.94 39.86 C 155.95 37.45 153.75 35.95 145.60 32.06 C 130.19 24.72 126.42 23.49 123.44 24.84 C 122.07 25.47 120.66 26.77 120.32 27.74 C 117.79 34.83 106.60 63.65 104.73 67.89 C 102.42 73.13 102.42 73.13 99.18 68.13 C 95.21 62.00 90.61 58.00 87.54 58.00 C 86.12 58.00 83.85 59.53 81.62 62.00 C 78.71 65.22 77.32 66.00 74.50 66.00 C 72.58 66.00 71.00 65.68 71.00 65.29 C 71.00 64.90 72.87 58.91 75.16 51.98 C 79.75 38.08 79.76 35.47 75.22 32.79 C 71.44 30.56 45.94 24.00 41.04 24.00 C 35.61 24.00 32.63 27.77 31.03 36.68 C 27.14 58.32 18.06 89.00 8.62 112.41 C 5.08 121.19 5.08 121.19 7.23 124.09 C 8.41 125.69 9.76 127.00 10.22 127.00 C 11.77 127.00 21.41 121.82 28.13 117.38 C 31.78 114.97 35.05 113.00 35.38 113.00 C 35.72 113.00 36.00 118.40 36.00 125.00 C 36.00 137.00 36.00 137.00 23.00 137.00 C 15.85 137.00 10.00 137.34 10.01 137.75 C 10.01 138.16 10.41 140.07 10.91 142.00 C 11.40 143.93 12.08 146.74 12.42 148.25 C 13.04 151.00 13.04 151.00 24.54 151.00 C 36.04 151.00 36.04 151.00 35.77 170.21 C 35.50 189.42 35.50 189.42 28.58 191.58 C 17.69 194.98 17.40 196.16 23.68 211.76 C 27.30 220.73 32.78 229.28 36.03 231.02 C 39.92 233.10 44.47 232.07 52.05 227.41 C 66.37 218.58 77.38 208.17 89.87 191.67 C 97.87 181.10 99.46 177.46 98.08 172.86 C 96.94 169.05 96.94 169.05 91.97 171.03 C 75.23 177.67 77.00 178.50 77.00 163.99 C 77.00 151.00 77.00 151.00 89.93 151.00 C 103.48 151.00 106.00 150.24 106.00 146.16 C 106.00 143.81 96.92 132.88 93.15 130.71 C 90.05 128.92 90.05 128.92 85.66 132.96 C 83.25 135.18 80.31 137.00 79.14 137.00 C 77.07 137.00 77.00 136.59 77.00 125.00 C 77.00 113.00 77.00 113.00 87.80 113.00 C 99.72 113.00 101.00 112.46 101.00 107.42 C 101.00 105.13 101.70 103.77 103.46 102.62 C 104.82 101.73 106.17 101.00 106.46 101.00 C 106.76 101.00 107.00 110.42 107.00 121.93 C 107.00 142.26 107.64 147.51 110.31 149.22 C 112.73 150.76 127.91 148.34 140.09 144.47 C 141.89 143.90 142.00 144.49 142.00 154.43 C 142.00 165.00 142.00 165.00 121.38 165.00 C 100.77 165.00 100.77 165.00 101.49 171.75 C 101.88 175.46 102.41 178.84 102.66 179.25 C 102.91 179.66 111.87 180.00 122.56 180.00 C 142.00 180.00 142.00 180.00 142.00 204.43 C 142.00 218.06 142.44 230.02 142.99 231.46 C 143.53 232.89 144.99 234.46 146.24 234.96 C 149.36 236.22 157.39 236.20 166.59 234.92 Z  M 156.50 138.55 C 152.10 137.87 147.92 137.52 147.22 137.77 C 146.21 138.14 146.00 135.20 146.22 123.88 C 146.50 109.53 146.50 109.53 150.00 108.88 C 151.93 108.52 154.96 107.89 156.75 107.49 C 160.00 106.75 160.00 106.75 160.00 115.33 C 160.00 126.25 161.51 133.27 164.68 137.03 C 167.48 140.36 167.79 140.30 156.50 138.55 Z  M 51.00 97.51 C 51.00 97.24 52.54 95.00 54.42 92.54 C 56.30 90.07 58.86 86.24 60.10 84.03 C 62.37 80.00 62.37 80.00 79.60 80.00 C 89.08 80.00 97.58 79.71 98.49 79.37 C 100.30 78.67 100.28 78.73 95.03 90.32 C 92.88 95.05 92.81 95.11 90.46 93.57 C 86.87 91.21 83.45 91.67 79.65 95.00 C 76.24 97.99 76.21 98.00 63.62 98.00 C 56.68 98.00 51.00 97.78 51.00 97.51 Z "/>
</g>
</svg>