<?xml version="1.0" encoding="UTF-8" standalone="no"?>
<!DOCTYPE svg PUBLIC "-//W3C//DTD SVG 1.1//EN" "http://www.w3.org/Graphics/SVG/1.1/DTD/svg11.dtd" >
<svg xmlns="http://www.w3.org/2000/svg" xmlns:xlink="http://www.w3.org/1999/xlink" version="1.1" viewBox="0 0 256 256">
 <g >
 <path fill="currentColor"
d=" M 198.19 244.06 C 201.94 241.12 205.77 233.37 204.24 231.84 C 203.28 230.88 202.27 230.98 199.48 232.31 C 195.08 234.41 193.57 234.43 191.57 232.43 C 189.20 230.06 189.56 229.08 195.56 221.63 C 203.80 211.39 206.00 206.46 206.00 198.22 C 206.00 192.73 205.60 190.95 203.97 189.20 C 201.07 186.09 198.02 185.64 192.94 187.56 C 187.42 189.65 168.95 194.52 163.25 195.38 C 159.00 196.02 159.00 196.02 159.00 192.50 C 159.00 187.26 162.29 185.82 184.05 181.49 C 202.98 177.73 202.98 177.73 203.82 174.61 C 204.28 172.90 204.31 168.12 203.89 164.00 C 203.47 159.88 203.10 153.32 203.06 149.43 C 202.94 135.90 198.26 128.49 188.00 125.62 C 181.64 123.84 165.20 121.37 153.20 120.38 C 148.63 120.01 145.26 119.37 145.70 118.95 C 146.72 118.00 167.16 113.50 177.00 112.06 C 181.12 111.46 195.23 110.58 208.34 110.10 C 223.35 109.55 232.59 108.81 233.29 108.11 C 233.90 107.50 234.40 105.41 234.40 103.48 C 234.40 96.64 228.51 94.15 219.01 96.96 C 217.09 97.53 207.28 98.00 197.21 98.00 C 184.89 98.00 173.02 98.69 160.91 100.12 C 151.01 101.29 142.67 102.00 142.37 101.71 C 142.08 101.41 142.32 100.26 142.92 99.15 C 143.51 98.04 144.00 95.62 144.00 93.77 C 144.00 91.91 144.54 89.86 145.20 89.20 C 146.81 87.59 193.54 87.57 208.33 89.17 C 220.86 90.53 220.96 90.47 220.98 82.50 C 221.00 74.91 218.16 59.00 215.99 54.50 C 213.58 49.51 207.92 43.61 202.58 40.53 C 197.06 37.35 182.94 32.78 168.99 29.66 C 147.01 24.75 136.37 23.88 87.00 22.91 C 61.42 22.42 37.85 21.74 34.62 21.40 C 27.92 20.72 27.04 21.38 27.02 27.10 C 27.00 31.11 31.19 37.77 35.52 40.61 C 36.93 41.53 38.51 43.09 39.04 44.08 C 39.69 45.29 39.19 54.90 37.53 73.19 C 36.16 88.21 34.60 112.20 34.05 126.50 C 33.51 140.80 32.54 163.07 31.90 176.00 C 30.69 200.33 31.11 205.00 34.46 205.00 C 35.95 205.00 44.48 188.58 47.94 179.04 C 49.28 175.38 50.79 173.75 56.53 169.81 C 60.36 167.19 64.30 165.03 65.27 165.02 C 67.55 165.00 68.47 167.42 72.54 184.00 C 76.75 201.18 83.48 220.15 86.54 223.45 C 89.40 226.54 91.33 226.67 94.07 223.93 C 96.58 221.42 96.43 220.49 90.53 202.00 C 88.16 194.57 85.66 186.03 84.98 183.00 C 84.30 179.97 82.39 174.26 80.75 170.29 C 79.10 166.32 77.99 162.46 78.28 161.71 C 78.57 160.96 83.69 158.18 89.65 155.53 C 114.12 144.68 115.15 144.10 114.81 141.28 C 114.64 139.86 113.23 137.75 111.67 136.60 C 109.19 134.76 107.48 134.50 97.67 134.52 C 85.73 134.55 86.92 134.19 53.11 147.76 C 51.99 148.22 51.85 147.23 52.41 142.41 C 53.68 131.29 53.80 131.00 57.37 131.00 C 62.53 131.00 71.15 128.40 92.32 120.45 C 103.25 116.35 112.59 113.00 113.09 113.00 C 113.59 113.00 114.02 115.14 114.04 117.75 C 114.11 124.47 115.51 130.94 117.29 132.72 C 118.66 134.08 119.17 133.97 122.25 131.62 C 124.14 130.18 126.16 129.00 126.73 129.00 C 127.30 129.00 128.08 131.59 128.47 134.75 C 130.52 151.59 131.99 157.02 136.63 165.02 C 140.47 171.63 141.10 173.42 140.42 175.73 C 139.97 177.25 139.57 187.52 139.55 198.55 C 139.51 216.11 139.72 218.93 141.27 221.30 C 142.41 223.02 143.94 224.00 145.51 224.00 C 147.56 224.00 148.57 222.83 151.44 217.11 C 154.91 210.23 154.91 210.23 161.09 209.14 C 167.45 208.02 169.00 208.25 169.00 210.31 C 169.01 210.96 170.58 214.56 172.50 218.31 C 174.43 222.06 176.00 225.76 176.00 226.54 C 176.00 228.73 171.35 229.40 165.41 228.07 C 162.45 227.40 159.63 227.11 159.13 227.42 C 157.63 228.35 156.79 236.74 157.98 238.96 C 159.45 241.71 162.78 241.57 172.40 238.37 C 180.31 235.73 180.31 235.73 184.41 240.28 C 190.03 246.53 193.76 247.55 198.19 244.06 Z  M 179.49 210.99 C 174.87 206.25 175.16 205.82 184.25 204.03 C 187.52 203.39 190.86 202.61 191.66 202.30 C 192.57 201.95 191.78 204.18 189.60 208.12 C 187.65 211.63 185.48 214.63 184.76 214.78 C 184.05 214.93 181.67 213.23 179.49 210.99 Z  M 159.47 173.20 C 159.17 171.72 158.27 168.21 157.46 165.41 C 156.66 162.61 156.00 159.80 156.00 159.16 C 156.00 158.32 160.86 158.00 173.46 158.00 C 189.71 158.00 191.00 158.14 191.96 159.93 C 193.65 163.08 193.22 166.80 191.09 167.47 C 190.04 167.80 185.88 168.45 181.84 168.90 C 177.48 169.39 171.56 170.99 167.26 172.82 C 160.01 175.90 160.01 175.90 159.47 173.20 Z  M 169.50 144.96 C 163.45 144.57 157.75 144.20 156.83 144.13 C 154.96 143.98 150.63 137.62 151.21 135.86 C 151.47 135.09 156.78 134.69 168.03 134.61 C 184.48 134.48 184.48 134.48 187.79 137.39 C 189.61 138.99 191.77 141.58 192.58 143.15 C 194.05 146.00 194.05 146.00 187.28 145.83 C 183.55 145.74 175.55 145.34 169.50 144.96 Z  M 108.86 101.56 C 105.76 98.68 104.22 98.07 98.36 97.40 C 85.87 95.98 76.87 96.92 58.63 101.55 C 55.77 102.27 55.77 102.27 56.50 94.89 C 57.49 84.82 58.04 84.00 63.79 83.99 C 68.54 83.98 118.16 89.07 118.89 89.64 C 119.48 90.11 113.90 105.00 113.15 104.97 C 112.79 104.96 110.86 103.42 108.86 101.56 Z  M 134.43 72.87 C 117.42 72.52 100.58 71.77 97.00 71.19 C 93.42 70.62 83.19 69.83 74.25 69.45 C 58.00 68.74 58.00 68.74 58.00 58.87 C 58.00 49.00 58.00 49.00 68.75 49.03 C 89.27 49.10 168.54 52.04 175.39 53.00 C 183.43 54.12 192.46 56.33 197.39 58.39 C 201.10 59.94 203.57 63.63 204.15 68.47 C 204.48 71.29 204.27 71.48 200.00 72.17 C 193.05 73.30 168.42 73.56 134.43 72.87 Z "/>
</g>
</svg>