<?xml version="1.0" encoding="UTF-8" standalone="no"?>
<!DOCTYPE svg PUBLIC "-//W3C//DTD SVG 1.1//EN" "http://www.w3.org/Graphics/SVG/1.1/DTD/svg11.dtd" >
<svg xmlns="http://www.w3.org/2000/svg" xmlns:xlink="http://www.w3.org/1999/xlink" version="1.1" viewBox="0 0 256 256">
 <g >
 <path fill="currentColor"
d=" M 153.77 237.45 C 161.19 234.35 165.01 229.18 176.21 207.10 C 184.78 190.23 187.61 182.01 185.94 178.89 C 184.70 176.57 184.76 176.57 180.21 178.92 C 175.75 181.22 170.14 187.04 163.25 196.50 C 151.87 212.11 139.79 219.64 134.54 214.40 C 131.72 211.58 129.36 205.89 124.04 189.16 C 121.19 180.17 117.27 169.15 115.32 164.66 C 111.84 156.61 111.78 156.25 111.06 138.00 C 110.28 117.93 109.85 116.25 104.37 111.64 C 101.25 109.01 100.71 108.88 97.97 110.01 C 96.22 110.74 94.72 112.25 94.37 113.65 C 94.04 114.97 94.00 125.15 94.27 136.27 C 94.71 153.92 95.16 158.34 97.86 170.92 C 102.77 193.83 106.82 204.30 115.51 216.50 C 120.88 224.04 132.78 235.57 137.17 237.47 C 141.57 239.39 149.16 239.38 153.77 237.45 Z  M 85.41 217.10 C 87.01 215.33 87.02 214.81 85.57 209.92 C 84.71 207.01 84.00 202.68 84.00 200.28 C 84.00 197.89 82.02 185.03 79.59 171.71 C 77.17 158.40 74.42 142.78 73.48 137.00 C 70.79 120.43 65.33 110.74 57.99 109.50 C 55.80 109.13 53.76 108.42 53.45 107.91 C 52.45 106.30 49.10 106.94 48.04 108.93 C 45.53 113.61 48.55 150.29 53.09 170.38 C 55.93 182.97 57.14 186.22 64.25 200.34 C 71.00 213.77 72.70 216.40 75.36 217.56 C 79.79 219.48 83.40 219.32 85.41 217.10 Z  M 215.68 169.43 C 221.91 164.68 223.14 161.65 222.80 151.85 C 222.44 141.60 221.89 140.77 212.01 135.57 C 204.23 131.48 202.50 131.65 197.13 137.02 C 192.63 141.53 190.65 145.79 190.63 151.04 C 190.62 154.84 191.43 156.79 195.62 163.04 C 198.38 167.14 201.73 171.08 203.07 171.78 C 206.42 173.56 211.52 172.61 215.68 169.43 Z  M 162.16 160.35 C 166.56 156.39 164.76 149.26 154.49 129.95 C 146.59 115.07 144.60 112.79 139.35 112.62 C 135.52 112.50 135.50 112.52 135.19 116.73 C 134.99 119.58 136.02 124.33 138.35 131.23 C 140.26 136.88 142.78 144.59 143.96 148.36 C 145.13 152.13 146.84 156.35 147.75 157.74 C 150.99 162.69 158.13 163.98 162.16 160.35 Z  M 123.62 112.37 C 124.44 109.11 123.58 105.01 118.27 87.00 C 110.71 61.37 109.94 58.01 110.82 54.61 C 111.60 51.58 111.79 51.49 118.06 51.20 C 121.60 51.03 129.90 51.64 136.50 52.56 C 156.51 55.34 173.23 54.79 203.27 50.35 C 213.25 48.87 214.42 48.46 219.04 44.78 C 228.48 37.26 227.81 35.00 214.67 29.93 C 208.31 27.48 205.67 26.94 202.06 27.38 C 171.26 31.13 119.40 30.28 93.50 25.61 C 85.80 24.22 75.22 21.77 70.00 20.17 C 55.81 15.81 54.52 15.62 52.52 17.62 C 50.12 20.02 51.16 25.51 54.71 29.23 C 58.68 33.39 75.24 42.53 85.52 46.23 C 95.93 49.99 96.23 50.44 98.50 66.71 C 99.33 72.64 100.69 79.84 101.52 82.71 C 105.02 94.76 113.26 111.04 117.69 114.64 C 119.76 116.33 122.93 115.11 123.62 112.37 Z  M 179.50 91.98 C 189.33 89.81 191.00 88.54 191.00 83.26 C 191.00 76.86 187.54 72.57 177.56 66.57 C 170.49 62.32 165.84 61.95 160.99 65.25 C 153.12 70.61 151.60 77.22 156.36 85.35 C 159.59 90.87 163.56 93.93 167.50 93.95 C 169.15 93.95 174.55 93.07 179.50 91.98 Z "/>
</g>
</svg>