<?xml version="1.0" encoding="UTF-8" standalone="no"?>
<!DOCTYPE svg PUBLIC "-//W3C//DTD SVG 1.1//EN" "http://www.w3.org/Graphics/SVG/1.1/DTD/svg11.dtd" >
<svg xmlns="http://www.w3.org/2000/svg" xmlns:xlink="http://www.w3.org/1999/xlink" version="1.1" viewBox="0 0 256 256">
 <g >
 <path fill="currentColor"
d=" M 192.96 223.07 C 194.58 220.04 197.00 201.74 197.00 192.51 C 197.00 183.66 198.11 181.75 200.77 186.00 C 201.46 187.10 206.63 193.74 212.27 200.75 C 217.90 207.76 223.84 215.30 225.45 217.50 C 229.30 222.73 230.25 223.30 231.75 221.29 C 233.70 218.69 233.23 216.06 230.61 214.87 C 229.30 214.27 227.76 212.82 227.20 211.64 C 226.64 210.46 224.54 206.07 222.53 201.87 C 220.52 197.67 216.91 191.93 214.50 189.11 C 204.25 177.10 203.50 174.78 208.12 169.52 C 209.91 167.47 214.91 163.12 219.21 159.84 C 229.43 152.06 230.47 150.46 228.96 144.83 C 227.74 140.26 226.37 138.00 224.82 138.00 C 224.30 138.00 221.54 140.19 218.69 142.86 C 215.84 145.54 211.47 148.97 209.00 150.48 C 206.53 152.00 203.30 154.36 201.83 155.73 C 196.81 160.41 196.64 159.34 197.51 127.60 C 198.81 80.27 198.82 80.56 196.39 77.32 C 194.04 74.17 191.36 73.23 189.64 74.96 C 188.87 75.74 188.47 82.36 188.41 95.31 C 188.36 105.86 187.97 126.21 187.54 140.53 C 186.75 166.56 186.75 166.56 176.13 172.17 C 162.95 179.14 141.17 186.42 135.71 185.69 C 130.57 185.00 127.58 182.84 124.52 177.62 C 118.32 167.05 117.41 145.09 121.50 105.00 C 122.87 91.53 124.00 80.16 124.00 79.75 C 124.00 79.34 125.74 79.00 127.87 79.00 C 134.04 79.00 147.87 76.28 155.73 73.53 C 159.71 72.14 163.63 71.00 164.44 71.00 C 165.26 71.00 171.45 69.03 178.21 66.63 C 184.97 64.22 197.93 59.90 207.00 57.02 C 234.75 48.21 239.00 45.52 239.00 36.77 C 239.00 32.04 237.06 29.84 229.50 26.00 C 223.25 22.83 222.60 22.70 218.68 23.82 C 216.38 24.48 208.20 26.32 200.50 27.93 C 192.80 29.53 181.55 32.19 175.50 33.85 C 169.45 35.50 162.03 37.15 159.00 37.51 C 155.97 37.87 149.90 39.26 145.50 40.59 C 137.54 42.99 133.33 43.66 108.50 46.45 C 97.42 47.70 95.24 48.23 93.75 50.07 C 91.48 52.86 91.53 56.66 93.89 61.29 C 94.93 63.33 95.72 65.00 95.64 64.99 C 95.56 64.98 93.29 64.31 90.59 63.49 C 87.89 62.67 83.73 62.00 81.34 62.00 C 77.00 62.00 77.00 62.00 77.05 58.25 C 77.08 56.19 77.48 50.90 77.95 46.51 C 78.74 38.90 78.65 38.24 75.98 33.01 C 72.83 26.82 69.61 23.00 67.53 23.00 C 65.44 23.00 62.21 28.12 61.05 33.26 C 60.49 35.76 59.61 45.17 59.10 54.16 C 58.58 63.15 57.72 71.65 57.18 73.06 C 55.97 76.21 51.38 79.77 41.83 84.98 C 35.29 88.54 33.75 88.97 27.56 88.99 C 18.63 89.00 15.99 91.05 16.02 97.92 C 16.06 106.78 21.77 114.65 29.92 117.10 C 33.76 118.24 33.76 118.24 34.31 138.87 C 34.80 157.39 35.21 161.14 38.30 175.55 C 41.87 192.19 43.12 195.61 47.55 200.88 C 50.46 204.33 52.46 204.84 53.41 202.38 C 53.75 201.49 52.63 192.62 50.92 182.68 C 48.08 166.16 47.84 163.15 48.23 148.04 C 48.71 129.52 50.00 123.71 53.75 123.18 C 55.38 122.95 56.00 123.37 56.00 124.68 C 56.02 132.58 59.86 162.45 63.95 186.50 C 68.89 215.50 68.89 215.50 72.16 218.25 C 76.13 221.59 76.55 221.62 78.49 218.66 C 79.87 216.55 79.87 215.87 78.46 211.91 C 76.81 207.24 73.37 180.29 74.31 179.36 C 74.61 179.05 79.01 181.77 84.09 185.40 C 89.16 189.03 94.13 192.00 95.12 192.00 C 97.83 192.00 99.29 188.32 98.76 182.82 C 98.14 176.36 94.94 172.73 90.57 173.55 C 87.79 174.07 87.13 173.64 83.56 168.96 C 81.40 166.12 77.96 162.45 75.91 160.81 C 73.53 158.89 71.97 156.67 71.59 154.62 C 70.75 150.17 74.73 115.43 76.45 112.09 C 77.23 110.58 79.59 108.22 81.68 106.85 C 87.70 102.90 98.58 97.00 99.85 97.00 C 100.65 97.00 101.00 100.57 101.00 108.90 C 101.00 124.54 105.35 165.73 107.85 173.76 C 110.41 181.98 114.94 188.87 122.01 195.27 C 127.77 200.50 127.77 200.50 128.98 210.00 C 129.64 215.22 130.53 220.18 130.95 221.00 C 132.11 223.29 134.32 223.28 136.78 220.99 C 138.68 219.22 139.00 217.88 139.00 211.63 C 139.00 204.35 139.00 204.35 145.70 203.11 C 153.29 201.71 163.03 197.46 177.29 189.33 C 182.67 186.26 187.25 183.92 187.47 184.14 C 187.69 184.36 188.17 190.60 188.54 198.02 C 189.22 211.50 189.22 211.50 186.02 214.72 C 183.00 217.76 182.89 218.14 183.99 221.46 C 185.89 227.22 190.32 228.01 192.96 223.07 Z "/>
</g>
</svg>