<?xml version="1.0" encoding="UTF-8" standalone="no"?>
<!DOCTYPE svg PUBLIC "-//W3C//DTD SVG 1.1//EN" "http://www.w3.org/Graphics/SVG/1.1/DTD/svg11.dtd" >
<svg xmlns="http://www.w3.org/2000/svg" xmlns:xlink="http://www.w3.org/1999/xlink" version="1.1" viewBox="0 0 256 256">
 <g >
 <path fill="currentColor"
d=" M 155.90 231.08 C 156.92 230.44 157.13 229.00 156.69 225.78 C 155.58 217.63 154.64 216.34 148.05 213.94 C 144.72 212.73 142.00 211.13 142.00 210.39 C 142.00 207.97 161.81 199.17 162.47 201.30 C 162.68 201.96 163.13 205.78 163.49 209.78 C 164.41 220.22 166.48 226.38 170.09 229.42 C 171.78 230.84 173.96 232.00 174.95 232.00 C 178.75 232.00 179.19 229.78 178.88 212.28 C 178.72 203.04 178.91 194.96 179.30 194.32 C 179.93 193.30 189.13 190.15 195.91 188.64 C 199.53 187.83 202.34 189.69 201.50 192.34 C 201.12 193.53 200.03 198.30 199.09 202.95 C 197.56 210.46 197.04 211.59 194.44 213.03 C 186.66 217.32 193.46 227.11 203.09 225.49 C 210.00 224.32 210.61 223.22 216.07 202.00 C 221.08 182.50 221.08 182.50 217.08 178.75 C 211.98 173.98 210.04 173.96 192.00 178.50 C 184.36 180.43 177.85 182.00 177.55 182.00 C 177.25 182.00 177.00 179.36 177.00 176.13 C 177.00 170.26 177.00 170.26 198.62 162.88 C 217.25 156.52 220.36 155.16 221.16 153.07 C 222.96 148.34 218.84 142.52 211.49 139.41 C 205.98 137.08 192.31 137.05 184.50 139.35 C 181.20 140.32 177.77 141.32 176.88 141.58 C 175.73 141.92 175.09 141.22 174.68 139.17 C 174.23 136.88 173.09 135.85 169.12 134.15 C 160.42 130.40 159.00 131.53 159.00 142.19 C 159.00 147.41 157.50 150.00 154.48 150.00 C 149.89 150.00 133.52 155.94 128.20 159.54 C 119.52 165.40 117.16 171.33 120.61 178.60 C 122.02 181.56 122.70 182.00 125.86 181.97 C 130.98 181.92 147.51 179.36 153.64 177.66 C 158.78 176.24 158.78 176.24 159.74 181.06 C 160.26 183.71 160.42 186.31 160.09 186.84 C 159.77 187.37 152.75 190.07 144.50 192.85 C 129.50 197.89 129.50 197.89 127.00 195.97 C 115.17 186.87 109.87 184.53 107.20 187.20 C 104.32 190.08 106.65 195.23 115.50 205.52 C 123.02 214.26 125.94 216.96 134.70 223.24 C 146.06 231.37 151.98 233.56 155.90 231.08 Z  M 87.67 220.01 C 97.18 220.00 98.05 219.83 100.96 217.38 C 109.65 210.07 109.11 198.76 99.79 192.72 C 92.39 187.92 83.62 189.31 73.82 196.83 C 66.81 202.21 61.00 209.94 61.00 213.89 C 61.00 215.35 61.74 217.61 62.65 218.91 C 64.18 221.10 64.75 221.22 70.90 220.64 C 74.53 220.29 82.08 220.01 87.67 220.01 Z  M 105.69 180.91 C 110.13 178.76 114.00 174.77 114.00 172.34 C 114.00 169.65 108.28 168.82 84.50 168.01 C 71.30 167.56 59.60 166.87 58.50 166.48 C 57.40 166.08 54.52 164.84 52.09 163.71 C 48.16 161.89 47.41 161.82 45.19 163.08 C 40.82 165.57 38.63 169.38 39.71 172.65 C 40.33 174.51 41.47 175.62 42.99 175.84 C 44.28 176.03 47.17 177.35 49.41 178.77 C 53.10 181.11 55.13 181.49 70.00 182.62 C 90.37 184.16 99.92 183.70 105.69 180.91 Z  M 119.14 160.98 C 126.78 158.85 126.84 153.85 119.27 149.77 C 116.65 148.35 108.20 145.26 100.50 142.91 C 92.80 140.56 86.07 138.26 85.54 137.81 C 84.96 137.31 85.46 136.37 86.79 135.43 C 91.46 132.16 88.88 125.93 73.92 104.30 C 67.27 94.70 61.98 86.69 62.17 86.51 C 62.35 86.34 68.43 85.87 75.67 85.47 C 88.84 84.75 88.84 84.75 94.04 101.13 C 102.14 126.65 108.74 138.00 115.48 138.00 C 120.91 138.00 121.54 136.18 119.24 127.25 C 118.14 122.99 115.17 113.61 112.65 106.41 C 110.13 99.21 107.77 91.38 107.39 89.03 C 106.70 84.74 106.70 84.74 116.60 85.48 C 122.05 85.88 126.77 86.38 127.11 86.58 C 127.45 86.78 128.97 93.37 130.50 101.22 C 133.39 116.15 136.36 123.57 140.84 127.09 C 143.97 129.55 146.23 129.51 148.54 126.95 C 150.32 124.99 150.33 124.60 148.69 116.70 C 146.63 106.77 146.64 107.00 148.53 107.00 C 149.37 107.00 160.88 109.48 174.10 112.50 C 191.96 116.59 198.61 117.75 200.00 117.00 C 201.03 116.45 202.97 116.00 204.31 116.00 C 207.27 116.00 208.36 114.74 209.96 109.50 C 210.63 107.30 212.98 101.62 215.19 96.88 C 219.20 88.27 219.21 88.24 217.53 84.70 C 215.73 80.92 211.72 78.72 204.43 77.50 C 202.27 77.15 195.78 75.92 190.00 74.79 C 184.22 73.65 171.85 71.77 162.50 70.61 C 145.50 68.50 145.50 68.50 145.50 63.51 C 145.50 58.52 145.50 58.52 174.78 55.41 C 201.78 52.54 204.25 52.12 206.53 49.97 C 208.53 48.09 209.00 46.68 209.00 42.58 C 209.00 36.16 206.50 31.15 202.00 28.53 C 197.86 26.13 188.67 25.95 141.50 27.38 C 110.49 28.31 99.27 27.69 80.21 24.00 C 67.46 21.52 61.68 21.51 56.33 23.94 C 51.46 26.15 50.00 28.41 50.00 33.74 C 50.00 38.64 50.75 39.50 60.50 45.77 C 69.96 51.86 72.65 52.88 93.00 58.19 C 105.22 61.37 110.36 62.24 117.30 62.28 C 125.63 62.33 126.08 62.44 125.80 64.42 C 125.51 66.40 124.81 66.52 111.00 66.83 C 97.35 67.15 79.15 66.08 63.67 64.06 C 57.45 63.24 56.33 62.72 51.00 58.08 C 46.13 53.84 44.51 53.00 41.27 53.00 C 36.89 53.00 33.40 55.57 32.41 59.51 C 31.56 62.91 33.50 70.48 38.69 84.00 C 44.27 98.51 46.34 102.06 56.83 115.00 C 61.52 120.78 65.80 126.09 66.35 126.81 C 67.83 128.75 63.13 127.39 54.36 123.34 C 44.37 118.72 40.12 118.81 36.07 123.73 C 34.38 125.78 33.00 128.19 33.00 129.09 C 33.00 132.64 37.69 136.20 53.81 144.87 C 73.58 155.51 78.15 157.56 87.50 160.04 C 95.36 162.12 113.13 162.65 119.14 160.98 Z  M 183.80 130.33 C 189.35 124.15 181.14 113.11 173.21 116.10 C 169.66 117.44 164.00 122.94 164.00 125.06 C 164.00 127.27 167.73 131.94 170.39 133.06 C 174.09 134.63 181.26 133.17 183.80 130.33 Z  M 178.00 99.07 C 163.79 96.65 147.01 91.44 145.49 88.99 C 144.60 87.55 148.45 86.83 160.00 86.28 C 170.44 85.79 172.42 85.99 181.50 88.50 C 187.00 90.02 193.97 91.54 197.00 91.88 C 201.76 92.42 202.54 92.81 202.83 94.81 C 203.01 96.08 202.43 98.21 201.55 99.56 C 199.57 102.58 198.45 102.56 178.00 99.07 Z "/>
</g>
</svg>