<?xml version="1.0" encoding="UTF-8" standalone="no"?>
<!DOCTYPE svg PUBLIC "-//W3C//DTD SVG 1.1//EN" "http://www.w3.org/Graphics/SVG/1.1/DTD/svg11.dtd" >
<svg xmlns="http://www.w3.org/2000/svg" xmlns:xlink="http://www.w3.org/1999/xlink" version="1.1" viewBox="0 0 256 256">
 <g >
 <path fill="currentColor"
d=" M 87.58 246.40 C 96.90 241.97 101.59 231.52 100.76 216.99 C 99.85 200.94 96.66 199.91 86.23 212.29 C 82.39 216.85 76.72 222.33 73.62 224.46 C 68.79 227.79 68.00 228.78 68.00 231.51 C 68.00 235.85 70.49 243.78 72.59 246.09 C 74.78 248.52 82.77 248.68 87.58 246.40 Z  M 228.76 242.95 C 239.27 237.77 238.55 243.37 238.19 169.83 C 237.92 114.77 238.08 105.46 239.42 100.97 C 241.90 92.61 240.55 91.57 223.00 88.42 C 213.06 86.63 203.21 86.67 190.74 88.53 C 171.40 91.43 170.52 91.92 172.71 98.54 C 174.10 102.74 174.34 108.34 174.27 135.00 C 174.16 179.13 171.27 200.90 164.51 208.69 C 162.69 210.79 160.88 212.19 160.50 211.81 C 159.83 211.16 158.44 167.83 157.81 128.00 C 157.56 112.36 157.81 108.47 159.39 102.81 C 160.42 99.14 161.01 95.47 160.70 94.67 C 159.92 92.64 143.52 88.92 132.50 88.28 C 123.30 87.75 106.41 89.16 99.83 91.01 C 97.81 91.58 95.14 92.87 93.90 93.88 C 91.64 95.71 91.64 95.71 93.45 101.61 C 95.03 106.75 95.34 113.04 95.91 151.00 C 96.26 174.93 96.90 195.06 97.33 195.75 C 98.64 197.83 101.22 197.18 106.71 193.40 C 112.80 189.21 116.97 188.06 126.21 188.02 C 134.55 187.99 134.69 188.21 135.59 202.18 C 136.27 212.64 136.27 212.64 133.50 214.82 C 130.50 217.18 124.18 217.78 122.29 215.89 C 119.55 213.15 116.00 220.12 116.00 228.22 C 116.01 238.11 122.45 243.82 132.29 242.65 C 137.08 242.08 147.07 237.86 151.75 234.41 C 153.98 232.77 154.00 232.80 154.00 236.42 C 154.00 242.01 157.50 245.00 164.05 245.00 C 170.88 245.00 175.44 242.68 179.12 237.33 C 183.70 230.67 185.53 225.87 190.51 207.42 C 193.26 197.26 195.74 190.00 196.73 189.25 C 198.52 187.89 210.73 187.54 212.69 188.79 C 215.03 190.28 216.00 195.31 216.00 205.99 C 216.00 220.44 215.37 221.14 204.69 218.46 C 202.53 217.92 201.88 218.32 200.41 221.16 C 199.46 223.00 198.47 227.68 198.22 231.56 C 197.80 237.98 197.98 238.87 200.25 241.51 C 203.80 245.63 208.32 247.06 216.00 246.50 C 220.52 246.17 224.40 245.09 228.76 242.95 Z  M 66.03 183.95 C 75.56 182.77 80.46 180.75 83.32 176.83 C 85.17 174.30 85.21 173.59 84.02 164.33 C 83.33 158.92 81.96 150.45 80.97 145.50 C 79.99 140.55 78.87 132.90 78.50 128.50 C 77.62 118.31 74.37 102.74 71.97 97.25 C 70.24 93.29 67.85 91.81 66.57 93.89 C 65.31 95.93 62.91 110.08 61.00 126.72 C 59.88 136.50 58.48 146.61 57.89 149.20 C 56.52 155.24 53.10 159.00 48.98 159.00 C 40.66 159.00 39.42 155.34 38.58 128.50 C 38.23 116.95 38.32 99.27 38.78 89.20 C 39.63 70.90 39.63 70.90 42.72 67.82 C 45.39 65.15 46.27 64.83 49.34 65.40 C 53.32 66.15 56.59 69.53 61.16 77.62 C 65.16 84.72 66.52 85.75 68.95 83.55 C 70.94 81.74 79.70 61.30 82.34 52.28 C 83.87 47.07 83.87 47.07 80.96 44.62 C 75.66 40.16 71.87 39.50 51.50 39.50 C 36.13 39.50 31.09 39.86 25.11 41.39 C 15.92 43.74 13.58 45.82 14.41 50.85 C 16.61 64.25 17.14 79.31 16.57 112.50 C 16.00 144.83 15.46 155.15 13.37 172.78 C 12.58 179.44 14.21 181.50 21.36 182.93 C 31.85 185.01 53.47 185.51 66.03 183.95 Z  M 227.00 73.01 C 230.57 72.40 234.03 71.36 234.67 70.70 C 235.54 69.81 235.61 66.53 234.94 58.00 C 234.43 51.67 234.30 42.20 234.64 36.95 C 235.14 29.16 234.95 26.81 233.61 24.21 C 231.41 19.95 228.26 18.04 222.38 17.41 C 218.54 16.99 216.80 17.32 214.19 18.96 C 209.28 22.05 208.00 26.18 208.00 38.90 C 208.00 51.52 207.49 52.50 200.43 53.56 C 196.11 54.21 187.66 53.57 184.51 52.36 C 182.06 51.43 181.01 45.16 181.01 31.46 C 181.00 18.55 180.97 18.39 178.11 14.96 C 175.31 11.61 174.99 11.50 168.13 11.50 C 161.45 11.50 160.85 11.69 157.77 14.77 C 154.50 18.04 154.50 18.04 154.00 33.99 C 153.60 46.81 153.19 50.25 151.90 51.53 C 149.77 53.66 136.93 54.62 131.25 53.08 C 127.00 51.92 127.00 51.92 126.94 41.71 C 126.82 20.48 125.15 17.54 113.65 18.19 C 107.61 18.53 106.46 18.92 104.38 21.35 C 102.08 24.01 102.00 24.69 102.00 40.39 C 102.00 49.34 101.48 59.28 100.83 62.47 C 99.77 67.78 99.83 68.40 101.55 69.66 C 104.72 71.98 110.98 73.30 122.50 74.07 C 138.62 75.16 219.24 74.34 227.00 73.01 Z  M 119.57 166.43 C 118.50 165.36 118.00 162.99 118.00 159.00 C 118.00 153.87 118.32 152.89 120.63 151.07 C 123.79 148.59 129.62 148.34 132.78 150.56 C 134.68 151.89 135.00 153.03 135.00 158.49 C 135.00 166.59 133.74 168.00 126.50 168.00 C 122.96 168.00 120.61 167.47 119.57 166.43 Z  M 198.00 166.00 C 194.33 162.33 196.12 151.67 200.69 149.93 C 204.45 148.50 211.31 148.83 213.78 150.56 C 215.63 151.86 216.00 153.06 216.00 157.83 C 216.00 166.36 214.46 168.00 206.44 168.00 C 201.33 168.00 199.59 167.59 198.00 166.00 Z  M 120.20 125.80 C 118.42 124.02 118.65 113.53 120.50 112.00 C 123.05 109.88 130.63 109.53 133.48 111.40 C 135.69 112.84 136.00 113.75 136.00 118.82 C 136.00 122.00 135.46 125.14 134.80 125.80 C 134.13 126.47 130.91 127.00 127.50 127.00 C 124.09 127.00 120.87 126.47 120.20 125.80 Z  M 197.87 125.35 C 195.93 123.01 196.10 114.47 198.12 112.45 C 199.08 111.49 202.17 110.61 205.78 110.29 C 211.38 109.78 212.03 109.94 214.54 112.44 C 216.84 114.75 217.16 115.75 216.71 119.15 C 215.85 125.53 213.83 127.00 205.97 127.00 C 200.93 127.00 198.90 126.58 197.87 125.35 Z "/>
</g>
</svg>