<?xml version="1.0" encoding="UTF-8" standalone="no"?>
<!DOCTYPE svg PUBLIC "-//W3C//DTD SVG 1.1//EN" "http://www.w3.org/Graphics/SVG/1.1/DTD/svg11.dtd" >
<svg xmlns="http://www.w3.org/2000/svg" xmlns:xlink="http://www.w3.org/1999/xlink" version="1.1" viewBox="0 0 256 256">
 <g >
 <path fill="currentColor"
d=" M 234.82 242.97 C 239.52 240.11 242.36 233.30 241.78 226.30 C 241.53 223.33 240.64 220.21 239.80 219.37 C 238.84 218.41 234.42 217.37 227.88 216.57 C 221.42 215.78 215.99 214.51 213.50 213.21 C 207.96 210.31 190.70 195.33 189.57 192.44 C 188.29 189.17 190.80 186.56 199.00 182.62 C 202.57 180.90 205.46 179.05 205.40 178.50 C 205.21 176.56 197.71 173.23 189.65 171.50 C 179.66 169.36 176.21 167.68 174.93 164.32 C 173.61 160.84 174.64 158.09 177.70 156.92 C 179.24 156.34 189.29 156.23 203.50 156.64 C 226.78 157.31 226.78 157.31 229.31 154.78 C 232.53 151.56 233.61 144.96 231.81 139.50 C 229.87 133.60 227.56 133.12 200.87 133.06 C 176.25 133.00 175.01 132.72 176.90 127.77 C 178.22 124.29 182.58 123.89 210.84 124.66 C 231.76 125.23 234.88 125.11 237.72 123.65 C 242.81 121.02 243.99 114.21 240.83 105.82 C 239.11 101.27 234.01 100.00 217.48 100.00 C 209.52 100.00 203.00 99.76 203.00 99.47 C 203.00 99.17 204.12 96.71 205.50 94.00 C 208.21 88.65 208.57 85.94 206.96 82.93 C 205.96 81.06 206.41 81.00 220.90 81.00 C 229.13 81.00 237.02 80.56 238.43 80.02 C 242.29 78.56 245.00 73.37 244.96 67.50 C 244.92 58.80 241.05 56.00 229.08 56.00 C 220.61 56.00 220.61 56.00 223.72 52.75 C 227.61 48.70 234.97 35.28 234.99 32.22 C 235.02 26.89 232.26 23.01 226.61 20.42 C 220.14 17.46 217.12 17.88 213.45 22.24 C 209.81 26.57 207.40 31.66 205.35 39.38 C 203.73 45.43 203.70 46.38 205.05 48.78 C 205.88 50.25 208.11 52.53 210.03 53.85 C 213.50 56.25 213.50 56.25 206.56 55.65 C 202.31 55.28 199.01 54.43 198.06 53.49 C 196.80 52.24 196.40 48.38 196.00 33.67 C 195.45 13.68 194.72 11.00 189.20 8.87 C 185.85 7.58 178.43 8.49 175.23 10.58 C 170.81 13.48 170.00 17.49 170.00 36.35 C 170.00 55.44 169.82 56.05 164.07 56.22 C 162.38 56.27 160.10 55.49 159.00 54.50 C 157.14 52.82 157.00 51.41 157.00 34.52 C 157.00 16.97 156.92 16.28 154.75 14.24 C 151.64 11.33 147.70 10.00 142.16 10.00 C 136.28 10.00 133.33 11.99 132.11 16.79 C 131.59 18.83 130.85 28.05 130.47 37.27 C 129.87 52.07 129.57 54.16 127.96 55.02 C 126.95 55.56 119.11 56.00 110.53 56.00 C 97.72 56.00 94.48 56.30 92.41 57.65 C 88.90 59.95 87.00 64.11 87.00 69.52 C 87.00 79.50 89.95 81.00 109.61 81.00 C 123.79 81.00 124.25 81.06 122.65 82.83 C 120.46 85.25 120.36 95.22 122.50 97.00 C 123.33 97.68 124.00 98.60 124.00 99.03 C 124.00 99.46 117.66 99.96 109.92 100.15 C 95.84 100.50 95.84 100.50 92.42 104.24 C 89.46 107.47 89.00 108.66 89.00 113.09 C 89.00 117.58 89.42 118.62 92.45 121.65 C 95.91 125.11 95.91 125.11 119.20 124.80 C 132.02 124.64 143.44 124.85 144.60 125.27 C 147.11 126.19 149.20 130.32 148.31 132.63 C 147.96 133.53 144.02 135.97 139.55 138.03 C 127.06 143.80 126.80 145.27 137.49 149.93 C 143.98 152.75 147.00 155.67 147.00 159.10 C 147.00 164.84 146.24 165.00 118.86 165.00 C 93.12 165.00 91.77 165.18 87.25 169.30 C 83.09 173.08 84.77 186.22 89.71 188.63 C 90.70 189.10 101.14 189.72 112.92 190.00 C 128.54 190.36 134.45 190.83 134.74 191.72 C 135.54 194.13 125.65 202.49 117.00 206.71 C 105.36 212.38 99.92 214.05 90.06 214.97 C 79.32 215.97 78.00 217.27 78.00 226.86 C 78.00 238.45 82.92 244.00 93.19 244.00 C 106.20 244.00 139.57 226.20 153.97 211.57 C 157.53 207.96 160.96 205.00 161.60 205.00 C 162.23 205.00 165.78 208.38 169.47 212.51 C 181.00 225.38 196.87 237.00 208.56 241.10 C 220.81 245.41 229.77 246.05 234.82 242.97 Z  M 241.65 188.53 C 246.08 185.43 248.38 176.44 245.92 171.85 C 244.62 169.43 239.20 167.00 235.08 167.00 C 230.65 167.00 215.58 172.75 213.10 175.39 C 210.36 178.31 211.08 180.11 216.08 182.92 C 227.67 189.44 237.33 191.56 241.65 188.53 Z  M 66.99 176.93 C 75.51 175.55 78.20 174.13 79.15 170.54 C 80.05 167.17 75.67 112.07 73.53 99.85 C 71.98 90.98 69.23 84.50 67.01 84.50 C 62.87 84.50 58.52 101.49 56.58 125.26 C 54.72 147.94 52.93 152.59 46.33 151.82 C 41.15 151.22 41.03 150.18 41.01 104.15 C 41.00 61.80 41.00 61.80 44.40 58.40 C 49.93 52.87 50.79 53.37 58.00 66.26 C 63.10 75.37 65.16 77.27 67.47 74.96 C 69.26 73.17 78.57 52.56 80.69 45.71 C 82.52 39.80 81.78 38.65 74.63 36.36 C 70.91 35.17 64.33 34.59 50.71 34.25 C 30.24 33.74 25.06 34.44 18.75 38.57 C 14.41 41.41 14.21 42.77 16.48 53.50 C 18.50 63.02 18.43 104.42 16.34 138.50 C 14.03 176.22 14.01 175.18 17.00 176.70 C 20.15 178.30 57.48 178.47 66.99 176.93 Z  M 109.32 154.87 C 114.15 152.39 122.00 145.65 122.00 144.00 C 122.00 142.05 113.90 137.77 106.48 135.78 C 100.77 134.26 97.43 135.73 95.35 140.70 C 91.48 149.97 100.69 159.32 109.32 154.87 Z  M 121.91 50.43 C 123.59 49.01 125.48 46.13 126.11 44.02 C 127.97 37.83 126.57 33.73 120.30 26.95 C 113.56 19.68 110.59 18.00 104.45 18.00 C 100.50 18.00 99.29 18.51 96.40 21.40 C 93.69 24.11 93.00 25.60 93.00 28.70 C 93.00 35.29 102.22 47.83 109.49 51.14 C 115.00 53.64 118.31 53.45 121.91 50.43 Z  M 151.53 97.91 C 152.69 94.25 150.99 89.00 147.33 84.94 C 143.77 81.00 143.77 81.00 160.30 81.00 C 169.40 81.00 177.55 81.27 178.42 81.61 C 180.78 82.51 180.33 86.54 177.38 91.00 C 175.66 93.61 174.92 95.82 175.24 97.48 C 175.72 100.00 175.72 100.00 163.29 100.00 C 151.15 100.00 150.88 99.95 151.53 97.91 Z "/>
</g>
</svg>