<?xml version="1.0" encoding="UTF-8" standalone="no"?>
<!DOCTYPE svg PUBLIC "-//W3C//DTD SVG 1.1//EN" "http://www.w3.org/Graphics/SVG/1.1/DTD/svg11.dtd" >
<svg xmlns="http://www.w3.org/2000/svg" xmlns:xlink="http://www.w3.org/1999/xlink" version="1.1" viewBox="0 0 256 256">
 <g >
 <path fill="currentColor"
d=" M 129.77 246.45 C 137.55 243.20 138.00 242.19 138.00 227.95 C 138.00 220.97 138.29 213.79 138.65 212.01 C 139.29 208.80 139.34 208.78 143.90 209.39 C 146.43 209.72 153.54 210.29 159.69 210.65 C 172.41 211.38 171.21 212.24 172.44 201.58 C 172.75 198.87 173.27 196.40 173.59 196.08 C 173.90 195.76 188.51 195.28 206.06 195.00 C 237.38 194.51 237.99 194.46 240.18 192.27 C 241.89 190.56 242.50 188.57 242.81 183.70 C 243.17 178.05 242.94 177.04 240.69 174.43 C 238.17 171.50 238.17 171.50 189.05 171.00 C 146.95 170.57 139.79 170.29 139.00 169.01 C 138.01 167.40 138.68 163.13 140.18 161.50 C 140.74 160.89 156.00 160.29 179.80 159.96 C 218.08 159.42 223.17 158.96 225.09 155.86 C 225.43 155.30 225.12 152.06 224.39 148.67 C 222.62 140.39 222.69 125.95 224.54 118.08 C 225.48 114.10 225.70 111.30 225.12 110.72 C 223.67 109.27 208.60 107.92 185.56 107.18 C 163.05 106.45 161.98 106.15 165.39 101.48 C 166.77 99.60 168.40 99.48 198.90 99.00 C 230.97 98.50 230.97 98.50 234.15 95.31 C 239.70 89.76 237.92 82.18 230.25 78.78 C 225.56 76.70 225.13 76.69 197.50 77.89 C 182.10 78.55 161.18 79.75 151.00 80.54 C 140.82 81.33 125.08 82.43 116.00 82.99 C 80.03 85.21 74.95 87.12 81.75 95.84 C 86.15 101.49 86.93 103.27 85.88 105.23 C 85.03 106.81 83.17 107.00 68.13 107.00 C 51.50 107.00 32.62 108.98 30.67 110.93 C 30.05 111.55 30.11 113.92 30.85 117.62 C 32.37 125.19 32.25 138.83 30.58 147.47 C 29.04 155.43 29.26 156.60 32.43 157.39 C 38.30 158.87 59.73 159.98 82.25 159.99 C 105.87 160.00 107.09 160.09 109.05 162.05 C 111.32 164.32 110.96 167.59 108.21 169.75 C 106.99 170.71 96.59 171.00 64.06 171.00 C 23.68 171.01 21.34 171.11 18.31 172.95 C 14.06 175.54 12.83 178.14 13.20 183.75 C 13.46 187.81 13.96 188.74 16.90 190.72 C 20.24 192.96 20.76 193.00 49.09 193.00 C 79.98 193.00 81.85 193.32 76.43 197.63 C 65.90 206.03 36.55 217.57 23.06 218.62 C 11.93 219.48 12.00 219.44 12.00 224.39 C 12.00 233.58 17.27 242.40 23.46 243.56 C 25.17 243.88 30.47 243.46 35.24 242.63 C 49.64 240.12 85.05 224.91 99.61 214.99 C 103.64 212.25 107.56 210.00 108.34 210.00 C 110.26 210.00 110.98 215.20 110.99 229.35 C 111.00 241.20 111.00 241.20 114.40 244.60 C 117.17 247.37 118.57 248.00 121.93 248.00 C 124.20 248.00 127.73 247.30 129.77 246.45 Z  M 231.28 243.62 C 237.99 240.75 243.00 232.32 243.00 223.91 C 243.00 219.50 240.52 217.47 236.14 218.32 C 233.94 218.74 215.72 217.11 181.39 213.40 C 174.15 212.62 173.18 213.48 175.58 218.53 C 180.14 228.13 189.92 235.27 205.57 240.40 C 219.58 244.99 226.16 245.82 231.28 243.62 Z  M 60.58 96.15 C 71.86 93.76 76.67 91.51 74.94 89.43 C 73.13 87.25 62.32 82.37 55.31 80.57 C 51.91 79.69 44.37 78.50 38.55 77.91 C 25.94 76.64 21.84 77.57 18.93 82.35 C 15.88 87.34 16.40 91.60 20.55 95.75 C 24.09 99.29 24.09 99.29 37.80 98.69 C 45.33 98.35 55.59 97.21 60.58 96.15 Z  M 197.80 73.03 C 204.20 68.39 204.83 66.20 202.47 56.84 C 201.80 54.18 201.80 54.18 217.20 53.84 C 234.58 53.46 237.00 52.64 239.66 46.27 C 241.00 43.05 240.99 42.26 239.50 38.36 C 236.28 29.94 236.52 30.00 204.95 30.00 C 189.67 30.00 176.45 29.73 175.58 29.39 C 174.38 28.93 174.00 27.34 174.00 22.80 C 174.00 12.84 168.62 8.00 157.55 8.00 C 150.01 8.00 148.01 10.08 144.50 21.60 C 140.08 36.07 132.85 48.15 126.57 51.53 C 120.25 54.93 120.78 60.45 128.11 67.61 C 131.90 71.31 132.41 71.50 138.47 71.50 C 145.84 71.50 147.96 70.07 153.65 61.28 C 157.65 55.09 159.40 54.00 165.30 54.00 C 171.00 54.00 174.21 56.50 177.94 63.85 C 181.04 69.98 184.09 73.32 188.00 74.88 C 191.98 76.46 193.44 76.19 197.80 73.03 Z  M 38.83 73.08 C 42.80 71.06 49.93 63.92 52.01 59.89 C 54.25 55.57 57.27 53.00 60.12 53.00 C 63.52 53.00 64.93 54.90 69.00 65.01 C 72.40 73.44 74.25 75.00 80.81 75.00 C 85.97 75.00 91.17 72.00 93.26 67.82 C 94.88 64.58 94.90 63.96 93.48 59.95 C 91.14 53.32 91.56 53.00 102.72 52.99 C 119.02 52.99 124.00 50.25 124.00 41.30 C 124.00 31.01 121.53 30.00 96.30 29.98 C 85.41 29.98 75.94 29.61 75.25 29.18 C 74.28 28.56 74.36 27.49 75.63 24.25 C 77.17 20.33 77.15 19.92 75.29 16.31 C 72.41 10.73 67.85 8.00 61.40 8.00 C 52.09 8.00 51.41 8.66 41.45 27.50 C 34.65 40.34 27.84 47.88 21.27 49.82 C 16.08 51.35 14.62 53.78 15.54 59.32 C 16.73 66.50 19.37 70.23 25.50 73.42 C 29.53 75.52 34.29 75.40 38.83 73.08 Z  M 57.41 138.63 C 57.11 137.85 57.01 135.49 57.18 133.39 C 57.58 128.66 58.79 128.24 72.56 128.10 C 84.88 127.98 86.27 128.71 85.82 135.04 C 85.50 139.50 85.50 139.50 71.73 139.78 C 60.56 140.00 57.86 139.79 57.41 138.63 Z  M 113.67 139.33 C 113.30 138.97 113.00 136.71 113.00 134.31 C 113.00 128.84 114.78 127.99 126.32 128.01 C 136.79 128.03 139.39 129.27 139.82 134.42 C 140.02 136.85 139.64 138.61 138.82 139.13 C 137.26 140.12 114.64 140.30 113.67 139.33 Z  M 165.97 137.94 C 164.53 135.25 165.67 130.25 168.02 128.99 C 170.47 127.68 191.60 127.71 194.07 129.04 C 196.30 130.23 196.79 136.81 194.80 138.80 C 193.99 139.61 189.32 140.00 180.34 140.00 C 167.97 140.00 167.00 139.86 165.97 137.94 Z  M 114.16 106.12 C 111.98 104.74 113.18 100.67 116.00 99.89 C 119.85 98.83 133.56 98.88 136.43 99.98 C 138.41 100.73 139.00 101.65 139.00 103.98 C 139.00 107.00 139.00 107.00 127.25 106.98 C 120.79 106.98 114.90 106.59 114.16 106.12 Z "/>
</g>
</svg>