<?xml version="1.0" encoding="UTF-8" standalone="no"?>
<!DOCTYPE svg PUBLIC "-//W3C//DTD SVG 1.1//EN" "http://www.w3.org/Graphics/SVG/1.1/DTD/svg11.dtd" >
<svg xmlns="http://www.w3.org/2000/svg" xmlns:xlink="http://www.w3.org/1999/xlink" version="1.1" viewBox="0 0 256 256">
 <g >
 <path fill="currentColor"
d=" M 210.88 246.53 C 217.42 244.81 220.55 242.79 223.04 238.70 C 224.84 235.75 224.99 233.52 225.00 210.47 C 225.00 180.81 224.94 181.00 233.61 181.00 C 243.46 181.00 247.81 176.54 245.97 168.34 C 244.64 162.44 241.02 160.14 232.53 159.79 C 225.50 159.50 225.50 159.50 224.93 152.10 C 224.43 145.69 223.99 144.39 221.67 142.39 C 216.21 137.69 206.42 138.17 202.60 143.32 C 201.14 145.27 200.35 148.19 200.00 152.82 C 199.50 159.50 199.50 159.50 180.32 160.00 C 162.93 160.45 160.88 160.69 158.37 162.57 C 153.65 166.10 153.05 173.93 157.22 177.70 C 158.92 179.24 161.70 179.57 176.85 180.00 C 194.65 180.51 198.10 181.20 199.38 184.55 C 200.59 187.71 200.07 223.53 198.80 224.80 C 198.14 225.46 195.28 226.00 192.44 226.00 C 188.22 226.00 186.80 226.47 184.70 228.57 C 178.81 234.46 181.16 243.82 189.50 247.65 C 192.95 249.24 202.50 248.74 210.88 246.53 Z  M 143.63 245.36 C 150.94 241.73 151.50 240.01 151.50 221.18 C 151.50 212.01 151.30 195.95 151.05 185.50 C 150.66 169.22 150.87 165.48 152.46 159.38 C 153.48 155.47 154.05 151.58 153.73 150.74 C 153.41 149.90 150.57 147.96 147.42 146.42 C 142.45 143.98 140.23 143.56 130.49 143.19 C 119.29 142.76 119.29 142.76 119.39 136.99 C 119.50 131.22 119.50 131.22 128.10 130.04 C 141.34 128.23 146.79 123.75 143.99 116.97 C 143.28 115.25 141.62 113.14 140.31 112.28 C 137.88 110.69 131.95 111.23 110.13 115.01 C 103.46 116.17 101.00 115.09 101.00 110.99 C 101.00 105.72 104.40 104.88 124.95 105.07 C 134.77 105.16 143.27 104.95 143.83 104.61 C 144.39 104.26 145.15 102.58 145.53 100.88 C 146.83 94.96 145.40 94.54 123.03 94.18 C 107.04 93.92 102.88 93.56 101.90 92.38 C 99.10 89.01 102.25 88.50 125.90 88.50 C 142.91 88.50 149.08 88.82 150.23 89.78 C 151.46 90.80 151.85 94.25 152.17 107.28 C 152.63 126.15 153.39 128.26 161.18 132.50 C 167.93 136.18 176.79 136.92 201.00 135.83 C 227.37 134.65 232.93 133.20 240.59 125.54 C 246.64 119.49 247.76 116.49 246.08 110.86 C 244.17 104.49 236.73 101.15 231.45 104.29 C 230.33 104.95 226.86 107.45 223.75 109.83 C 215.82 115.91 211.36 117.00 194.42 117.00 C 178.82 117.00 177.00 116.68 177.00 113.95 C 177.00 111.31 178.34 110.79 187.40 109.88 C 201.96 108.43 212.22 106.15 214.70 103.81 C 218.49 100.25 217.29 93.82 212.49 91.99 C 210.13 91.10 197.70 92.54 184.82 95.20 C 180.27 96.14 178.84 96.11 177.57 95.06 C 175.48 93.32 175.57 90.39 177.75 89.50 C 178.71 89.10 188.05 88.41 198.50 87.97 C 227.60 86.72 228.40 86.39 227.37 76.28 C 226.93 72.04 227.15 68.56 228.03 65.92 C 228.98 63.03 229.04 61.64 228.24 60.84 C 225.58 58.18 215.85 56.78 195.21 56.08 C 178.11 55.50 173.63 55.05 172.39 53.82 C 171.01 52.44 171.02 52.12 172.50 50.64 C 173.95 49.19 177.67 49.00 204.42 49.00 C 222.99 49.00 235.87 48.59 237.71 47.95 C 243.16 46.05 244.72 38.63 240.55 34.45 C 238.09 32.00 238.09 32.00 202.49 32.00 C 180.03 32.00 165.28 31.60 162.54 30.91 C 158.96 30.00 157.26 28.66 152.88 23.26 C 146.32 15.17 142.93 13.01 136.83 13.00 C 131.00 13.00 127.69 15.58 123.50 23.38 C 121.40 27.30 119.60 29.31 117.50 30.10 C 115.66 30.79 101.36 31.52 80.50 31.99 C 44.32 32.79 39.55 33.42 33.52 38.17 C 30.48 40.56 30.50 39.77 32.99 58.00 C 33.55 62.12 34.46 78.32 35.00 94.00 C 35.99 122.80 37.20 132.60 40.33 137.38 C 43.50 142.22 46.20 140.31 50.82 129.95 C 54.59 121.52 56.82 112.24 57.64 101.52 C 58.47 90.77 59.71 88.93 66.63 88.26 C 70.93 87.85 72.05 88.14 74.57 90.31 C 77.46 92.80 77.50 92.95 77.20 101.94 C 77.03 106.95 76.25 113.17 75.46 115.77 C 73.64 121.77 73.62 127.15 75.40 131.41 C 77.31 135.98 78.44 136.50 86.50 136.50 C 93.28 136.50 93.51 136.58 93.80 139.09 C 94.19 142.44 92.94 143.30 84.50 145.47 C 74.66 148.00 71.39 149.48 69.62 152.18 C 68.22 154.32 68.26 155.21 70.02 162.01 C 71.48 167.62 71.94 172.64 71.88 182.00 C 71.77 198.54 71.54 199.27 65.96 200.22 C 60.82 201.09 59.00 203.04 59.00 207.67 C 59.00 212.73 62.43 214.00 76.20 214.02 C 88.75 214.03 91.72 214.86 87.88 217.29 C 83.98 219.75 67.84 225.84 61.96 227.07 C 58.96 227.70 56.15 228.54 55.72 228.94 C 55.29 229.34 54.89 231.78 54.84 234.36 C 54.68 242.39 60.66 246.68 69.42 244.82 C 76.17 243.38 98.58 231.75 112.35 222.54 C 118.85 218.19 124.66 214.98 125.69 215.17 C 127.05 215.43 127.58 216.61 127.81 219.91 C 128.17 224.87 127.18 225.96 122.31 225.98 C 113.10 226.03 109.24 240.07 116.78 246.07 C 119.28 248.05 120.33 248.19 129.69 247.73 C 136.79 247.37 141.02 246.66 143.63 245.36 Z  M 29.80 239.94 C 37.24 236.23 40.16 232.91 45.16 222.50 C 49.87 212.71 51.80 204.03 52.61 189.00 C 53.60 170.89 48.96 149.31 44.27 150.17 C 41.19 150.74 37.14 160.90 32.40 179.98 C 26.46 203.84 25.04 206.60 13.20 217.29 C 10.89 219.37 9.00 221.69 9.00 222.43 C 9.00 226.31 13.48 237.63 16.02 240.17 C 19.62 243.77 22.22 243.73 29.80 239.94 Z  M 188.22 215.08 C 191.80 211.07 191.87 206.14 188.44 199.26 C 183.46 189.26 174.11 183.73 168.46 187.44 C 167.06 188.35 165.18 190.66 164.27 192.56 C 162.69 195.87 162.72 196.36 164.92 203.26 C 167.40 211.06 170.93 216.59 174.36 218.06 C 175.53 218.57 178.51 218.80 180.97 218.59 C 184.43 218.29 186.06 217.49 188.22 215.08 Z  M 96.43 199.23 C 94.68 198.04 94.07 195.33 95.28 194.12 C 96.47 192.93 122.50 192.49 125.42 193.61 C 127.29 194.33 127.49 197.11 125.80 198.80 C 124.47 200.13 98.31 200.52 96.43 199.23 Z  M 95.56 180.30 C 94.27 176.93 97.61 176.00 110.94 176.01 C 125.99 176.03 128.22 176.47 127.80 179.38 C 127.51 181.42 126.93 181.51 111.87 181.77 C 97.76 182.02 96.17 181.88 95.56 180.30 Z  M 95.48 162.92 C 94.32 159.27 96.45 158.52 108.85 158.17 C 123.30 157.77 127.50 158.64 127.50 162.06 C 127.50 164.50 127.50 164.50 111.83 164.78 C 96.60 165.04 96.13 164.99 95.48 162.92 Z  M 60.31 73.36 C 59.96 72.46 60.14 71.00 60.70 70.11 C 61.55 68.77 64.20 68.45 76.61 68.21 C 93.32 67.89 96.00 68.25 96.00 70.82 C 96.00 74.58 94.13 75.00 77.27 75.00 C 63.07 75.00 60.86 74.79 60.31 73.36 Z  M 120.67 74.33 C 120.30 73.97 120.00 72.63 120.00 71.35 C 120.00 68.29 122.10 67.85 134.89 68.21 C 143.29 68.44 145.49 68.82 146.34 70.17 C 147.10 71.37 147.02 72.27 146.07 73.42 C 145.01 74.70 142.51 75.00 133.04 75.00 C 126.60 75.00 121.03 74.70 120.67 74.33 Z  M 171.61 73.43 C 171.28 72.56 171.48 70.98 172.05 69.90 C 173.03 68.08 174.08 67.96 187.19 68.22 C 199.06 68.46 201.45 68.76 202.33 70.17 C 203.10 71.37 203.02 72.27 202.07 73.42 C 200.12 75.76 172.51 75.77 171.61 73.43 Z  M 64.00 55.34 C 60.46 54.62 59.45 53.36 60.96 51.54 C 62.02 50.27 65.07 50.00 78.50 50.00 C 95.21 50.00 98.07 50.65 96.02 53.97 C 95.35 55.05 91.85 55.43 80.83 55.61 C 72.95 55.74 65.38 55.62 64.00 55.34 Z  M 123.69 55.28 C 121.31 54.92 120.93 54.44 121.19 52.18 C 121.50 49.50 121.50 49.50 134.00 49.50 C 146.50 49.50 146.50 49.50 146.50 51.99 C 146.50 53.95 145.86 54.62 143.50 55.12 C 140.16 55.84 128.04 55.93 123.69 55.28 Z "/>
</g>
</svg>