<?xml version="1.0" encoding="UTF-8" standalone="no"?>
<!DOCTYPE svg PUBLIC "-//W3C//DTD SVG 1.1//EN" "http://www.w3.org/Graphics/SVG/1.1/DTD/svg11.dtd" >
<svg xmlns="http://www.w3.org/2000/svg" xmlns:xlink="http://www.w3.org/1999/xlink" version="1.1" viewBox="0 0 256 256">
 <g >
 <path fill="currentColor"
d=" M 117.33 208.25 C 118.83 189.14 120.04 172.26 120.03 170.75 C 120.00 168.00 120.00 168.00 108.52 168.00 C 97.41 168.00 97.02 168.07 96.58 170.25 C 96.12 172.52 91.94 236.58 91.98 240.75 C 92.00 242.95 92.25 243.00 103.30 243.00 C 114.60 243.00 114.60 243.00 117.33 208.25 Z  M 150.92 238.75 C 150.88 236.41 149.64 219.65 148.17 201.50 C 145.50 168.50 145.50 168.50 133.75 168.22 C 122.00 167.94 122.00 167.94 121.99 170.72 C 121.97 174.80 127.10 240.28 127.55 241.75 C 127.83 242.66 131.12 243.00 139.47 243.00 C 151.00 243.00 151.00 243.00 150.92 238.75 Z  M 181.00 240.79 C 181.00 237.24 176.00 174.83 175.43 171.25 C 174.91 168.00 174.91 168.00 163.45 168.00 C 149.86 168.00 150.94 163.29 154.51 206.98 C 155.88 223.75 157.00 238.71 157.00 240.23 C 157.00 243.00 157.00 243.00 169.00 243.00 C 180.72 243.00 181.00 242.95 181.00 240.79 Z  M 239.00 192.00 C 239.00 141.00 239.00 141.00 214.47 141.00 C 189.93 141.00 189.93 141.00 190.22 130.25 C 190.50 119.50 190.50 119.50 209.75 119.23 C 229.00 118.96 229.00 118.96 229.00 105.98 C 229.00 98.84 228.87 93.00 228.71 93.00 C 228.54 93.00 226.70 95.25 224.60 98.00 C 220.78 103.00 220.78 103.00 205.39 103.00 C 190.00 103.00 190.00 103.00 190.00 92.50 C 190.00 82.00 190.00 82.00 209.50 82.00 C 229.00 82.00 229.00 82.00 229.00 67.81 C 229.00 53.62 229.00 53.62 224.38 59.84 C 219.76 66.05 219.76 66.05 205.13 65.78 C 190.50 65.50 190.50 65.50 190.22 53.75 C 189.94 42.00 189.94 42.00 214.47 42.00 C 239.00 42.00 239.00 42.00 239.00 28.50 C 239.00 21.07 238.83 15.00 238.62 15.00 C 238.41 15.00 236.37 17.48 234.09 20.50 C 229.94 26.00 229.94 26.00 165.47 26.00 C 101.00 26.00 101.00 26.00 101.00 91.50 C 101.00 157.00 101.00 157.00 155.50 157.00 C 210.00 157.00 210.00 157.00 210.00 192.00 C 210.00 227.00 210.00 227.00 198.00 227.00 C 186.00 227.00 186.00 227.00 186.00 235.00 C 186.00 243.00 186.00 243.00 212.50 243.00 C 239.00 243.00 239.00 243.00 239.00 192.00 Z  M 87.00 129.00 C 87.00 27.00 87.00 27.00 51.50 27.00 C 16.00 27.00 16.00 27.00 16.00 129.00 C 16.00 231.00 16.00 231.00 51.50 231.00 C 87.00 231.00 87.00 231.00 87.00 129.00 Z  M 208.00 219.52 C 208.00 216.59 204.96 176.41 204.43 172.25 C 203.88 168.00 203.88 168.00 192.46 168.00 C 181.04 168.00 181.04 168.00 181.54 172.25 C 182.16 177.50 185.00 215.66 185.00 218.75 C 185.00 220.95 185.24 221.00 196.50 221.00 C 206.00 221.00 208.00 220.74 208.00 219.52 Z  M 130.00 130.00 C 130.00 119.00 130.00 119.00 145.50 119.00 C 161.00 119.00 161.00 119.00 161.00 130.00 C 161.00 141.00 161.00 141.00 145.50 141.00 C 130.00 141.00 130.00 141.00 130.00 130.00 Z  M 130.00 92.50 C 130.00 82.00 130.00 82.00 145.50 82.00 C 161.00 82.00 161.00 82.00 161.00 92.50 C 161.00 103.00 161.00 103.00 145.50 103.00 C 130.00 103.00 130.00 103.00 130.00 92.50 Z  M 130.00 54.00 C 130.00 42.00 130.00 42.00 145.50 42.00 C 161.00 42.00 161.00 42.00 161.00 54.00 C 161.00 66.00 161.00 66.00 145.50 66.00 C 130.00 66.00 130.00 66.00 130.00 54.00 Z  M 45.00 129.00 C 45.00 43.00 45.00 43.00 51.50 43.00 C 58.00 43.00 58.00 43.00 58.00 129.00 C 58.00 215.00 58.00 215.00 51.50 215.00 C 45.00 215.00 45.00 215.00 45.00 129.00 Z "/>
</g>
</svg>