<?xml version="1.0" encoding="UTF-8" standalone="no"?>
<!DOCTYPE svg PUBLIC "-//W3C//DTD SVG 1.1//EN" "http://www.w3.org/Graphics/SVG/1.1/DTD/svg11.dtd" >
<svg xmlns="http://www.w3.org/2000/svg" xmlns:xlink="http://www.w3.org/1999/xlink" version="1.1" viewBox="0 0 256 256">
 <g >
 <path fill="currentColor"
d=" M 66.00 195.08 C 66.00 147.17 66.00 147.17 77.50 139.61 C 89.00 132.04 89.00 132.04 89.00 122.42 C 89.00 111.16 89.88 111.36 77.27 119.78 C 72.45 123.01 67.94 125.97 67.25 126.38 C 66.26 126.96 66.00 121.73 66.00 101.56 C 66.00 76.00 66.00 76.00 77.03 76.00 C 85.18 76.00 88.19 75.66 88.56 74.69 C 88.84 73.98 88.94 67.84 88.78 61.06 C 88.50 48.74 88.50 48.74 84.01 54.37 C 79.52 60.00 79.52 60.00 72.76 60.00 C 66.00 60.00 66.00 60.00 66.00 37.00 C 66.00 14.00 66.00 14.00 51.00 14.00 C 36.00 14.00 36.00 14.00 36.00 37.00 C 36.00 60.00 36.00 60.00 24.50 60.00 C 13.00 60.00 13.00 60.00 13.00 68.00 C 13.00 76.00 13.00 76.00 24.51 76.00 C 36.03 76.00 36.03 76.00 35.76 110.74 C 35.50 145.48 35.50 145.48 24.25 152.33 C 13.00 159.17 13.00 159.17 13.00 169.62 C 13.00 180.06 13.00 180.06 18.75 176.39 C 21.91 174.36 26.74 171.20 29.49 169.36 C 32.23 167.51 34.82 166.00 35.24 166.00 C 35.66 166.00 36.00 179.72 36.00 196.50 C 36.00 227.00 36.00 227.00 24.50 227.00 C 13.00 227.00 13.00 227.00 13.00 235.00 C 13.00 243.00 13.00 243.00 39.50 243.00 C 66.00 243.00 66.00 243.00 66.00 195.08 Z  M 146.00 208.05 C 158.38 188.83 168.80 173.08 169.16 173.05 C 169.52 173.02 179.14 188.75 190.53 208.00 C 211.24 243.00 211.24 243.00 226.65 243.00 C 241.04 243.00 242.00 242.88 241.09 241.25 C 240.55 240.29 230.05 222.62 217.76 202.00 C 195.42 164.50 195.42 164.50 185.21 164.22 C 179.60 164.06 175.00 163.71 175.00 163.44 C 175.00 163.18 176.18 161.17 177.63 158.98 C 180.27 155.00 180.27 155.00 211.13 155.00 C 242.00 155.00 242.00 155.00 242.00 142.00 C 242.00 134.85 241.82 129.00 241.61 129.00 C 241.39 129.00 239.50 131.25 237.40 134.00 C 233.59 139.00 233.59 139.00 208.29 139.00 C 183.00 139.00 183.00 139.00 183.00 100.00 C 183.00 61.00 183.00 61.00 211.50 61.00 C 240.00 61.00 240.00 61.00 240.00 47.41 C 240.00 33.82 240.00 33.82 235.43 39.43 C 230.86 45.04 230.86 45.04 207.18 44.77 C 183.50 44.50 183.50 44.50 183.22 29.25 C 182.95 14.00 182.95 14.00 167.97 14.00 C 153.00 14.00 153.00 14.00 153.00 29.50 C 153.00 45.00 153.00 45.00 125.00 45.00 C 97.00 45.00 97.00 45.00 97.00 53.00 C 97.00 61.00 97.00 61.00 125.00 61.00 C 153.00 61.00 153.00 61.00 153.00 100.00 C 153.00 139.00 153.00 139.00 124.00 139.00 C 95.00 139.00 95.00 139.00 95.00 147.00 C 95.00 155.00 95.00 155.00 122.00 155.00 C 136.85 155.00 149.00 155.20 149.00 155.45 C 149.00 155.70 137.24 174.03 122.86 196.20 C 108.48 218.36 95.83 237.96 94.76 239.75 C 92.80 243.00 92.80 243.00 108.15 242.99 C 123.50 242.98 123.50 242.98 146.00 208.05 Z  M 140.01 125.25 C 140.02 124.84 137.69 113.14 134.84 99.25 C 129.66 74.00 129.66 74.00 116.33 74.00 C 109.00 74.00 103.00 74.34 102.99 74.75 C 102.99 75.16 105.35 86.86 108.23 100.75 C 113.48 126.00 113.48 126.00 126.74 126.00 C 134.03 126.00 140.01 125.66 140.01 125.25 Z  M 228.09 102.50 C 230.70 89.85 233.09 78.26 233.39 76.75 C 233.95 74.00 233.95 74.00 220.47 74.00 C 213.06 74.00 207.00 74.18 207.00 74.41 C 207.00 74.87 197.28 121.51 196.61 124.28 C 196.20 125.93 197.17 126.03 209.76 125.78 C 223.35 125.50 223.35 125.50 228.09 102.50 Z "/>
</g>
</svg>