<?xml version="1.0" encoding="UTF-8" standalone="no"?>
<!DOCTYPE svg PUBLIC "-//W3C//DTD SVG 1.1//EN" "http://www.w3.org/Graphics/SVG/1.1/DTD/svg11.dtd" >
<svg xmlns="http://www.w3.org/2000/svg" xmlns:xlink="http://www.w3.org/1999/xlink" version="1.1" viewBox="0 0 256 256">
 <g >
 <path fill="currentColor"
d=" M 136.76 212.23 C 147.00 181.46 147.00 181.46 147.00 110.73 C 147.00 40.00 147.00 40.00 171.50 40.00 C 196.00 40.00 196.00 40.00 196.00 141.50 C 196.00 243.00 196.00 243.00 219.00 243.00 C 242.00 243.00 242.00 243.00 241.98 229.75 C 241.95 216.50 241.95 216.50 237.39 221.75 C 233.33 226.41 232.38 227.00 228.91 227.00 C 225.00 227.00 225.00 227.00 225.00 125.50 C 225.00 24.00 225.00 24.00 172.00 24.00 C 119.00 24.00 119.00 24.00 119.00 100.81 C 119.00 177.63 119.00 177.63 108.50 209.72 C 102.72 227.37 98.00 242.08 98.00 242.40 C 98.00 242.73 104.42 243.00 112.26 243.00 C 126.52 243.00 126.52 243.00 136.76 212.23 Z  M 55.00 211.00 C 75.62 206.61 93.51 202.78 94.75 202.49 C 96.85 202.00 97.00 201.44 97.00 193.96 C 97.00 186.18 96.94 185.98 94.75 186.49 C 90.69 187.45 69.71 192.00 69.35 192.00 C 69.16 192.00 69.00 177.60 69.00 160.00 C 69.00 128.00 69.00 128.00 80.50 128.00 C 92.00 128.00 92.00 128.00 92.00 114.50 C 92.00 107.08 91.83 101.00 91.62 101.00 C 91.41 101.00 89.37 103.47 87.09 106.50 C 82.94 112.00 82.94 112.00 75.97 112.00 C 69.00 112.00 69.00 112.00 69.00 84.53 C 69.00 57.06 69.00 57.06 81.75 56.78 C 94.50 56.50 94.50 56.50 94.78 43.25 C 94.93 35.96 94.71 30.00 94.28 30.01 C 93.85 30.01 91.92 32.48 90.00 35.50 C 86.50 40.99 86.50 40.99 49.75 40.99 C 13.00 41.00 13.00 41.00 13.00 49.00 C 13.00 57.00 13.00 57.00 26.00 57.00 C 39.00 57.00 39.00 57.00 39.00 84.50 C 39.00 112.00 39.00 112.00 28.00 112.00 C 17.00 112.00 17.00 112.00 17.00 120.00 C 17.00 128.00 17.00 128.00 28.00 128.00 C 39.00 128.00 39.00 128.00 39.00 163.48 C 39.00 198.96 39.00 198.96 36.75 199.44 C 32.90 200.27 13.74 204.00 13.36 204.00 C 13.16 204.00 13.00 207.61 13.00 212.02 C 13.00 219.82 13.06 220.02 15.25 219.51 C 16.49 219.22 34.38 215.39 55.00 211.00 Z "/>
</g>
</svg>