<?xml version="1.0" encoding="UTF-8" standalone="no"?>
<!DOCTYPE svg PUBLIC "-//W3C//DTD SVG 1.1//EN" "http://www.w3.org/Graphics/SVG/1.1/DTD/svg11.dtd" >
<svg xmlns="http://www.w3.org/2000/svg" xmlns:xlink="http://www.w3.org/1999/xlink" version="1.1" viewBox="0 0 256 256">
 <g >
 <path fill="currentColor"
d=" M 185.00 214.42 C 185.00 196.72 185.36 185.96 185.95 186.17 C 186.48 186.35 198.71 196.62 213.13 209.00 C 227.55 221.38 239.72 231.65 240.17 231.83 C 240.63 232.02 241.00 225.62 241.00 217.63 C 241.00 203.09 241.00 203.09 212.96 177.97 C 184.93 152.85 184.93 152.85 185.21 143.17 C 185.50 133.50 185.50 133.50 213.75 133.23 C 242.00 132.97 242.00 132.97 242.00 119.73 C 241.99 106.50 241.99 106.50 239.46 109.50 C 238.07 111.15 236.23 113.51 235.35 114.75 C 233.79 116.98 233.54 117.00 209.38 117.00 C 185.00 117.00 185.00 117.00 185.00 94.50 C 185.00 72.00 185.00 72.00 210.50 72.00 C 236.00 72.00 236.00 72.00 236.00 58.39 C 236.00 44.77 236.00 44.77 231.36 50.40 C 226.72 56.04 226.72 56.04 206.11 55.77 C 185.50 55.50 185.50 55.50 185.23 34.75 C 184.96 14.00 184.96 14.00 170.48 14.00 C 156.00 14.00 156.00 14.00 156.00 35.03 C 156.00 56.06 156.00 56.06 143.25 55.78 C 130.50 55.50 130.50 55.50 130.22 44.25 C 129.93 33.00 129.93 33.00 116.97 33.00 C 104.00 33.00 104.00 33.00 104.00 52.50 C 104.00 72.00 104.00 72.00 130.00 72.00 C 156.00 72.00 156.00 72.00 156.00 94.50 C 156.00 117.00 156.00 117.00 127.50 117.00 C 99.00 117.00 99.00 117.00 99.00 125.00 C 99.00 133.00 99.00 133.00 127.50 133.00 C 156.00 133.00 156.00 133.00 156.00 143.34 C 156.00 153.67 156.00 153.67 128.53 178.09 C 101.05 202.50 101.05 202.50 101.03 217.31 C 101.01 226.53 101.36 231.89 101.96 231.52 C 102.49 231.20 114.75 220.79 129.21 208.39 C 155.50 185.86 155.50 185.86 155.77 214.43 C 156.03 243.00 156.03 243.00 170.52 243.00 C 185.00 243.00 185.00 243.00 185.00 214.42 Z  M 53.00 224.51 C 73.08 220.32 90.51 216.64 91.75 216.34 C 93.90 215.81 94.00 215.32 94.00 205.78 C 94.00 197.05 93.80 195.86 92.41 196.40 C 91.14 196.88 69.60 201.00 68.33 201.00 C 68.15 201.00 68.00 186.15 68.00 168.00 C 68.00 135.00 68.00 135.00 78.50 135.00 C 89.00 135.00 89.00 135.00 88.98 121.75 C 88.95 108.50 88.95 108.50 84.39 113.75 C 79.84 118.98 79.79 119.00 73.91 119.00 C 68.00 119.00 68.00 119.00 68.00 86.50 C 68.00 54.00 68.00 54.00 80.53 54.00 C 89.92 54.00 93.19 53.67 93.56 52.69 C 93.84 51.98 93.94 45.84 93.78 39.06 C 93.50 26.74 93.50 26.74 89.01 32.37 C 84.52 38.00 84.52 38.00 48.76 38.00 C 13.00 38.00 13.00 38.00 13.00 46.00 C 13.00 54.00 13.00 54.00 26.00 54.00 C 39.00 54.00 39.00 54.00 39.00 86.50 C 39.00 119.00 39.00 119.00 28.00 119.00 C 17.00 119.00 17.00 119.00 17.00 127.00 C 17.00 135.00 17.00 135.00 28.00 135.00 C 39.00 135.00 39.00 135.00 39.00 171.42 C 39.00 207.84 39.00 207.84 35.75 208.88 C 32.91 209.78 15.79 212.99 13.75 213.00 C 13.34 213.00 13.00 217.53 13.00 223.07 C 13.00 232.18 13.17 233.09 14.75 232.63 C 15.71 232.35 32.92 228.69 53.00 224.51 Z "/>
</g>
</svg>