<?xml version="1.0" encoding="UTF-8" standalone="no"?>
<!DOCTYPE svg PUBLIC "-//W3C//DTD SVG 1.1//EN" "http://www.w3.org/Graphics/SVG/1.1/DTD/svg11.dtd" >
<svg xmlns="http://www.w3.org/2000/svg" xmlns:xlink="http://www.w3.org/1999/xlink" version="1.1" viewBox="0 0 256 256">
 <g >
 <path fill="currentColor"
d=" M 60.81 225.19 C 78.58 218.60 93.34 213.00 93.60 212.73 C 93.87 212.47 93.95 208.40 93.79 203.70 C 93.50 195.15 93.50 195.15 53.50 209.96 C 13.50 224.76 13.50 224.76 13.21 233.82 C 12.93 242.89 12.93 242.89 20.71 240.03 C 25.00 238.46 43.04 231.78 60.81 225.19 Z  M 148.89 217.58 C 168.29 192.17 168.29 192.17 172.44 197.33 C 174.72 200.18 183.72 211.61 192.43 222.75 C 208.28 243.00 208.28 243.00 225.26 243.00 C 242.24 243.00 242.24 243.00 238.80 238.75 C 222.46 218.60 186.00 171.96 186.00 171.21 C 186.00 170.69 196.35 156.89 209.00 140.54 C 221.65 124.20 232.00 110.41 232.00 109.91 C 232.00 109.40 225.08 109.00 216.25 109.01 C 200.50 109.02 200.50 109.02 184.56 129.02 C 173.68 142.68 168.30 148.70 167.60 148.00 C 167.04 147.44 160.03 138.54 152.03 128.24 C 137.49 109.50 137.49 109.50 121.15 109.22 C 112.17 109.07 104.97 109.33 105.16 109.81 C 105.35 110.28 115.85 124.05 128.50 140.40 C 141.15 156.76 151.45 170.69 151.39 171.37 C 151.34 172.04 139.39 187.87 124.86 206.55 C 110.32 225.22 98.08 241.06 97.65 241.75 C 97.05 242.73 100.40 243.00 113.19 242.99 C 129.50 242.99 129.50 242.99 148.89 217.58 Z  M 93.97 170.75 C 93.94 157.50 93.94 157.50 89.22 162.77 C 84.50 168.04 84.50 168.04 76.75 168.02 C 72.49 168.01 69.00 167.79 69.00 167.54 C 69.00 167.29 75.30 143.02 83.00 113.61 C 90.70 84.19 97.00 59.64 97.00 59.04 C 97.00 58.29 92.56 58.03 82.75 58.22 C 67.24 58.52 69.22 55.13 57.65 101.25 C 56.99 103.90 56.72 104.00 50.41 104.00 C 44.65 104.00 43.93 103.79 44.36 102.25 C 44.64 101.29 49.19 81.60 54.47 58.50 C 59.75 35.40 64.27 15.93 64.52 15.22 C 64.86 14.22 61.85 14.01 50.31 14.22 C 35.67 14.50 35.67 14.50 24.87 65.00 C 18.92 92.78 13.81 116.51 13.51 117.75 C 12.96 120.00 12.96 120.00 31.98 120.00 C 49.45 120.00 51.00 120.14 51.00 121.76 C 51.00 122.72 48.79 131.61 46.09 141.51 C 43.39 151.40 40.68 161.41 40.05 163.75 C 38.92 168.00 38.92 168.00 25.96 168.00 C 13.00 168.00 13.00 168.00 13.00 176.00 C 13.00 184.00 13.00 184.00 53.50 184.00 C 94.00 184.00 94.00 184.00 93.97 170.75 Z  M 141.89 80.49 C 147.98 70.87 153.70 61.87 154.60 60.49 C 156.23 58.00 156.23 58.00 141.75 58.00 C 127.27 58.00 127.27 58.00 115.38 76.67 C 108.85 86.93 103.14 95.93 102.70 96.67 C 102.05 97.75 104.58 98.00 116.36 98.00 C 130.82 98.00 130.82 98.00 141.89 80.49 Z  M 239.00 97.43 C 239.00 97.11 233.04 88.12 225.75 77.45 C 212.50 58.04 212.50 58.04 198.19 58.02 C 187.02 58.00 184.04 58.27 184.61 59.25 C 186.24 62.06 208.42 94.63 209.81 96.25 C 211.10 97.76 213.21 98.00 225.15 98.00 C 232.77 98.00 239.00 97.74 239.00 97.43 Z  M 241.00 36.41 C 241.00 22.82 241.00 22.82 236.45 28.41 C 231.89 34.00 231.89 34.00 208.45 34.00 C 185.00 34.00 185.00 34.00 185.00 24.00 C 185.00 14.00 185.00 14.00 170.50 14.00 C 156.00 14.00 156.00 14.00 156.00 24.00 C 156.00 34.00 156.00 34.00 128.50 34.00 C 101.00 34.00 101.00 34.00 101.00 42.00 C 101.00 50.00 101.00 50.00 171.00 50.00 C 241.00 50.00 241.00 50.00 241.00 36.41 Z "/>
</g>
</svg>