<?xml version="1.0" encoding="UTF-8" standalone="no"?>
<!DOCTYPE svg PUBLIC "-//W3C//DTD SVG 1.1//EN" "http://www.w3.org/Graphics/SVG/1.1/DTD/svg11.dtd" >
<svg xmlns="http://www.w3.org/2000/svg" xmlns:xlink="http://www.w3.org/1999/xlink" version="1.1" viewBox="0 0 256 256">
 <g >
 <path fill="currentColor"
d=" M 45.00 140.50 C 45.00 38.00 45.00 38.00 53.44 38.00 C 61.87 38.00 61.87 38.00 61.42 41.25 C 60.88 45.08 53.00 122.49 53.00 123.92 C 53.00 124.46 55.36 125.03 58.25 125.20 C 63.50 125.50 63.50 125.50 63.76 161.25 C 64.03 197.00 64.03 197.00 57.51 197.00 C 51.00 197.00 51.00 197.00 51.00 205.00 C 51.00 213.00 51.00 213.00 72.01 213.00 C 93.02 213.00 93.02 213.00 92.76 161.25 C 92.50 109.50 92.50 109.50 88.13 109.19 C 83.75 108.87 83.75 108.87 84.42 102.19 C 84.79 98.51 86.78 78.96 88.85 58.75 C 92.60 22.00 92.60 22.00 53.80 22.00 C 15.00 22.00 15.00 22.00 15.00 132.50 C 15.00 243.00 15.00 243.00 30.00 243.00 C 45.00 243.00 45.00 243.00 45.00 140.50 Z  M 170.50 222.50 C 177.10 211.25 182.81 202.03 183.19 202.02 C 183.56 202.01 189.13 211.22 195.56 222.50 C 207.25 243.00 207.25 243.00 223.22 243.00 C 239.20 243.00 239.20 243.00 236.98 239.25 C 222.15 214.18 199.56 174.39 199.78 173.71 C 199.93 173.23 208.66 158.36 219.18 140.66 C 229.69 122.97 238.48 108.16 238.71 107.75 C 238.93 107.34 232.21 107.00 223.78 107.00 C 208.43 107.00 208.43 107.00 167.97 174.09 C 145.71 211.00 127.35 241.60 127.17 242.09 C 126.98 242.61 133.62 242.99 142.67 242.98 C 158.50 242.97 158.50 242.97 170.50 222.50 Z  M 163.97 149.75 C 181.27 120.46 198.68 90.99 202.67 84.25 C 209.92 72.00 209.92 72.00 194.51 72.00 C 179.10 72.00 179.10 72.00 167.41 91.50 C 155.73 111.00 155.73 111.00 146.86 111.00 C 141.99 111.00 138.00 110.83 138.00 110.62 C 138.00 110.41 143.67 98.71 150.61 84.62 C 163.21 59.00 163.21 59.00 201.11 59.00 C 239.00 59.00 239.00 59.00 239.00 44.81 C 239.00 30.62 239.00 30.62 234.40 36.81 C 229.80 43.00 229.80 43.00 208.40 43.00 C 187.00 43.00 187.00 43.00 187.00 28.50 C 187.00 14.00 187.00 14.00 172.50 14.00 C 158.00 14.00 158.00 14.00 158.00 28.50 C 158.00 43.00 158.00 43.00 131.00 43.00 C 104.00 43.00 104.00 43.00 104.00 51.00 C 104.00 59.00 104.00 59.00 119.00 59.00 C 127.25 59.00 134.00 59.16 134.00 59.36 C 134.00 59.56 126.80 74.71 118.00 93.03 C 109.20 111.35 102.00 126.49 102.00 126.67 C 102.00 126.85 111.90 127.00 124.00 127.00 C 136.10 127.00 146.00 127.25 146.00 127.55 C 146.00 127.85 136.62 143.93 125.15 163.30 C 113.69 182.66 103.77 199.51 103.12 200.75 C 101.93 203.00 101.93 203.00 117.22 203.00 C 132.51 203.00 132.51 203.00 163.97 149.75 Z "/>
</g>
</svg>