<?xml version="1.0" encoding="UTF-8" standalone="no"?>
<!DOCTYPE svg PUBLIC "-//W3C//DTD SVG 1.1//EN" "http://www.w3.org/Graphics/SVG/1.1/DTD/svg11.dtd" >
<svg xmlns="http://www.w3.org/2000/svg" xmlns:xlink="http://www.w3.org/1999/xlink" version="1.1" viewBox="0 0 256 256">
 <g >
 <path fill="currentColor"
d=" M 42.00 242.64 C 42.00 242.44 45.15 228.30 49.00 211.21 C 56.00 180.15 56.00 180.15 56.00 134.57 C 56.00 89.00 56.00 89.00 67.50 89.00 C 79.00 89.00 79.00 89.00 79.00 166.02 C 79.00 243.04 79.00 243.04 100.75 242.77 C 122.50 242.50 122.50 242.50 122.78 229.75 C 122.93 222.74 122.69 217.00 122.24 217.00 C 121.78 217.00 119.70 219.25 117.60 222.00 C 114.57 225.97 113.19 227.00 110.89 227.00 C 108.00 227.00 108.00 227.00 108.00 150.00 C 108.00 73.00 108.00 73.00 67.50 73.00 C 27.00 73.00 27.00 73.00 27.00 126.31 C 27.00 179.62 27.00 179.62 20.00 211.00 C 16.15 228.26 13.00 242.52 13.00 242.69 C 13.00 242.86 19.52 243.00 27.50 243.00 C 35.48 243.00 42.00 242.84 42.00 242.64 Z  M 240.00 229.96 C 240.00 216.92 240.00 216.92 221.00 204.45 C 202.00 191.98 202.00 191.98 202.00 139.99 C 202.00 88.00 202.00 88.00 187.00 88.00 C 172.00 88.00 172.00 88.00 171.97 140.25 C 171.95 192.50 171.95 192.50 152.47 204.90 C 133.00 217.29 133.00 217.29 133.00 229.65 C 133.00 237.20 133.39 242.00 134.00 242.00 C 134.55 242.00 145.94 235.31 159.32 227.13 C 172.70 218.95 184.51 211.80 185.57 211.23 C 187.19 210.36 191.68 212.81 213.50 226.51 C 227.80 235.48 239.61 242.86 239.75 242.91 C 239.89 242.96 240.00 237.13 240.00 229.96 Z  M 161.00 133.50 C 161.00 79.00 161.00 79.00 187.00 79.00 C 213.00 79.00 213.00 79.00 213.00 133.50 C 213.00 188.00 213.00 188.00 226.50 188.00 C 240.00 188.00 240.00 188.00 240.00 125.50 C 240.00 63.00 240.00 63.00 220.00 63.00 C 197.74 63.00 198.96 63.45 200.94 56.00 C 201.45 54.08 202.37 50.59 202.97 48.25 C 204.08 44.00 204.08 44.00 222.54 44.00 C 241.00 44.00 241.00 44.00 241.00 30.41 C 241.00 16.82 241.00 16.82 236.45 22.41 C 231.89 28.00 231.89 28.00 181.90 28.00 C 131.92 28.00 131.92 28.00 132.21 35.75 C 132.50 43.50 132.50 43.50 153.75 43.77 C 165.44 43.92 174.99 44.37 174.98 44.77 C 174.98 45.17 173.92 49.33 172.63 54.00 C 170.30 62.50 170.30 62.50 152.15 62.77 C 134.00 63.05 134.00 63.05 134.00 125.52 C 134.00 188.00 134.00 188.00 147.50 188.00 C 161.00 188.00 161.00 188.00 161.00 133.50 Z  M 120.78 42.75 C 120.94 35.43 120.67 30.00 120.14 30.00 C 119.63 30.00 117.50 32.25 115.40 35.00 C 111.59 40.00 111.59 40.00 96.29 40.00 C 81.00 40.00 81.00 40.00 81.00 27.00 C 81.00 14.00 81.00 14.00 66.50 14.00 C 52.00 14.00 52.00 14.00 52.00 27.00 C 52.00 40.00 52.00 40.00 33.50 40.00 C 15.00 40.00 15.00 40.00 15.00 48.01 C 15.00 56.02 15.00 56.02 67.75 55.76 C 120.50 55.50 120.50 55.50 120.78 42.75 Z "/>
</g>
</svg>