<?xml version="1.0" encoding="UTF-8" standalone="no"?>
<!DOCTYPE svg PUBLIC "-//W3C//DTD SVG 1.1//EN" "http://www.w3.org/Graphics/SVG/1.1/DTD/svg11.dtd" >
<svg xmlns="http://www.w3.org/2000/svg" xmlns:xlink="http://www.w3.org/1999/xlink" version="1.1" viewBox="0 0 256 256">
 <g >
 <path fill="currentColor"
d=" M 63.92 227.75 C 81.13 212.50 81.13 212.50 64.00 212.23 C 46.88 211.95 46.88 211.95 30.52 226.73 C 21.52 234.85 14.13 241.84 14.08 242.25 C 14.04 242.66 21.36 243.00 30.36 243.00 C 46.72 243.00 46.72 243.00 63.92 227.75 Z  M 142.00 223.50 C 142.00 204.00 142.00 204.00 190.50 204.00 C 239.00 204.00 239.00 204.00 239.00 192.00 C 239.00 185.40 238.83 180.00 238.63 180.00 C 238.43 180.00 237.07 181.80 235.62 184.00 C 232.97 188.00 232.97 188.00 123.99 188.00 C 15.00 188.00 15.00 188.00 15.00 196.00 C 15.00 204.00 15.00 204.00 64.00 204.00 C 113.00 204.00 113.00 204.00 113.00 215.50 C 113.00 227.00 113.00 227.00 102.50 227.00 C 92.00 227.00 92.00 227.00 92.00 235.00 C 92.00 243.00 92.00 243.00 117.00 243.00 C 142.00 243.00 142.00 243.00 142.00 223.50 Z  M 240.92 242.25 C 240.87 241.84 233.48 234.85 224.48 226.73 C 208.12 211.95 208.12 211.95 191.00 212.23 C 173.87 212.50 173.87 212.50 191.08 227.75 C 208.28 243.00 208.28 243.00 224.64 243.00 C 233.64 243.00 240.96 242.66 240.92 242.25 Z  M 218.00 170.00 C 218.00 163.00 218.00 163.00 227.00 163.00 C 236.00 163.00 236.00 163.00 236.00 148.50 C 236.00 134.00 236.00 134.00 189.00 134.00 C 142.67 134.00 142.00 133.97 142.00 132.00 C 142.00 130.09 141.33 130.00 127.50 130.00 C 113.67 130.00 113.00 130.09 113.00 132.00 C 113.00 133.97 112.33 134.00 65.50 134.00 C 18.00 134.00 18.00 134.00 18.00 148.50 C 18.00 163.00 18.00 163.00 27.50 163.00 C 37.00 163.00 37.00 163.00 37.00 170.00 C 37.00 177.00 37.00 177.00 127.50 177.00 C 218.00 177.00 218.00 177.00 218.00 170.00 Z  M 138.52 123.05 C 138.18 121.98 136.20 116.92 134.13 111.80 C 130.36 102.50 130.36 102.50 116.06 102.22 C 101.77 101.94 101.77 101.94 102.40 104.47 C 103.04 107.00 103.04 107.00 74.95 107.00 C 43.61 107.00 46.32 107.71 49.11 100.25 C 49.95 98.00 49.95 98.00 92.98 98.00 C 136.00 98.00 136.00 98.00 136.00 86.30 C 136.00 79.87 135.63 75.03 135.18 75.55 C 134.73 76.07 132.89 78.41 131.09 80.75 C 127.83 85.00 127.83 85.00 89.92 85.00 C 52.00 85.00 52.00 85.00 52.00 81.00 C 52.00 77.00 52.00 77.00 91.50 77.00 C 131.00 77.00 131.00 77.00 131.00 66.80 C 131.00 56.59 131.00 56.59 127.21 60.30 C 123.42 64.00 123.42 64.00 87.71 64.00 C 52.00 64.00 52.00 64.00 52.00 60.00 C 52.00 56.00 52.00 56.00 91.50 56.00 C 131.00 56.00 131.00 56.00 131.00 46.50 C 131.00 41.27 130.63 37.00 130.19 37.00 C 129.74 37.00 128.08 38.35 126.50 40.00 C 123.63 43.00 123.63 43.00 87.81 43.00 C 52.00 43.00 52.00 43.00 52.00 38.50 C 52.00 34.00 52.00 34.00 94.00 34.00 C 136.00 34.00 136.00 34.00 136.00 23.95 C 136.00 13.90 136.00 13.90 132.66 16.45 C 129.31 19.00 129.31 19.00 76.17 19.00 C 23.03 19.00 23.03 19.00 22.76 51.75 C 22.50 84.50 22.50 84.50 17.75 84.80 C 13.00 85.11 13.00 85.11 13.00 91.55 C 13.00 98.00 13.00 98.00 16.33 98.00 C 18.17 98.00 19.91 98.24 20.21 98.54 C 20.66 98.99 17.65 110.38 14.60 119.75 C 13.87 122.00 13.87 122.00 60.81 122.00 C 101.32 122.00 107.93 122.21 109.00 123.50 C 110.00 124.71 113.07 125.00 124.69 125.00 C 138.54 125.00 139.11 124.92 138.52 123.05 Z  M 193.75 113.80 C 242.00 107.50 242.00 107.50 242.00 98.25 C 242.00 89.00 242.00 89.00 239.25 89.07 C 237.74 89.11 215.80 92.14 190.50 95.82 C 144.50 102.50 144.50 102.50 144.21 111.25 C 144.05 116.06 144.28 120.02 144.71 120.05 C 145.14 120.08 167.21 117.27 193.75 113.80 Z  M 194.75 77.36 C 242.00 70.66 242.00 70.66 242.00 61.33 C 242.00 53.10 241.79 52.00 240.25 52.03 C 239.29 52.05 217.35 55.10 191.50 58.81 C 144.50 65.56 144.50 65.56 144.21 74.78 C 143.95 83.06 144.11 84.00 145.71 84.03 C 146.70 84.05 168.76 81.05 194.75 77.36 Z  M 240.75 34.03 C 241.66 34.01 242.00 31.42 242.00 24.50 C 242.00 19.27 241.66 15.00 241.25 15.00 C 239.95 14.99 148.61 28.01 146.25 28.54 C 144.12 29.01 144.00 29.53 144.00 37.85 C 144.00 42.70 144.22 46.89 144.49 47.16 C 144.76 47.43 166.25 44.59 192.24 40.86 C 218.23 37.12 240.06 34.05 240.75 34.03 Z  M 48.00 155.50 C 48.00 151.00 48.00 151.00 127.50 151.00 C 207.00 151.00 207.00 151.00 207.00 155.50 C 207.00 160.00 207.00 160.00 127.50 160.00 C 48.00 160.00 48.00 160.00 48.00 155.50 Z "/>
</g>
</svg>