<?xml version="1.0" encoding="UTF-8" standalone="no"?>
<!DOCTYPE svg PUBLIC "-//W3C//DTD SVG 1.1//EN" "http://www.w3.org/Graphics/SVG/1.1/DTD/svg11.dtd" >
<svg xmlns="http://www.w3.org/2000/svg" xmlns:xlink="http://www.w3.org/1999/xlink" version="1.1" viewBox="0 0 256 256">
 <g >
 <path fill="currentColor"
d=" M 54.63 199.75 C 65.50 156.50 65.50 156.50 65.76 199.75 C 66.02 243.00 66.02 243.00 154.01 243.00 C 242.00 243.00 242.00 243.00 241.98 229.75 C 241.95 216.50 241.95 216.50 237.39 221.75 C 232.82 227.00 232.82 227.00 163.91 227.00 C 95.00 227.00 95.00 227.00 95.00 190.00 C 95.00 153.00 95.00 153.00 109.00 153.00 C 123.00 153.00 123.00 153.00 123.00 92.00 C 123.00 31.00 123.00 31.00 94.50 31.00 C 78.82 31.00 66.00 30.75 66.00 30.45 C 66.00 30.14 67.35 26.72 69.00 22.84 C 70.65 18.96 72.00 15.38 72.00 14.87 C 72.00 14.33 66.00 14.06 57.77 14.22 C 43.54 14.50 43.54 14.50 40.13 22.75 C 36.72 31.00 36.72 31.00 25.36 31.00 C 14.00 31.00 14.00 31.00 14.00 92.00 C 14.00 153.00 14.00 153.00 25.61 153.00 C 34.48 153.00 37.10 153.29 36.74 154.25 C 36.47 154.94 31.23 174.40 25.09 197.50 C 18.94 220.60 13.68 240.29 13.39 241.25 C 12.91 242.86 14.07 243.00 28.31 243.00 C 43.76 243.00 43.76 243.00 54.63 199.75 Z  M 131.90 208.25 C 131.84 204.54 131.28 193.40 130.65 183.50 C 129.50 165.50 129.50 165.50 125.20 165.19 C 120.90 164.88 120.90 164.88 121.20 180.44 C 121.50 196.00 121.50 196.00 118.60 196.00 C 115.70 196.00 115.70 196.00 116.36 187.75 C 118.61 159.45 119.23 162.00 110.17 162.00 C 102.54 162.00 102.01 162.14 101.59 164.25 C 101.11 166.66 98.97 203.32 98.99 208.75 C 99.00 212.00 99.00 212.00 111.00 212.00 C 121.00 212.00 123.00 212.25 123.00 213.50 C 123.00 214.61 124.17 215.00 127.50 215.00 C 132.00 215.00 132.00 215.00 131.90 208.25 Z  M 161.00 124.50 C 161.00 36.00 161.00 36.00 187.00 36.00 C 213.00 36.00 213.00 36.00 213.00 116.50 C 213.00 197.00 213.00 197.00 200.50 197.00 C 188.00 197.00 188.00 197.00 188.00 205.00 C 188.00 213.00 188.00 213.00 213.50 213.00 C 239.00 213.00 239.00 213.00 239.00 116.50 C 239.00 20.00 239.00 20.00 187.00 20.00 C 135.00 20.00 135.00 20.00 135.00 116.50 C 135.00 213.00 135.00 213.00 148.00 213.00 C 161.00 213.00 161.00 213.00 161.00 124.50 Z  M 208.96 172.25 C 208.92 161.50 208.92 161.50 205.71 165.25 C 203.06 168.35 201.85 169.00 198.75 169.00 C 195.00 169.00 195.00 169.00 195.00 150.50 C 195.00 132.00 195.00 132.00 202.00 132.00 C 209.00 132.00 209.00 132.00 208.97 121.25 C 208.93 110.50 208.93 110.50 205.87 114.25 C 204.18 116.31 201.95 118.00 200.90 118.00 C 199.17 118.00 199.00 117.17 199.00 108.47 C 199.00 98.93 199.00 98.93 187.75 99.22 C 176.50 99.50 176.50 99.50 176.21 108.70 C 175.93 117.89 175.93 117.89 171.21 118.20 C 166.50 118.50 166.50 118.50 166.20 125.25 C 165.91 131.89 165.95 132.00 168.45 132.00 C 171.00 132.00 171.00 132.00 171.00 157.50 C 171.00 183.00 171.00 183.00 190.00 183.00 C 209.00 183.00 209.00 183.00 208.96 172.25 Z  M 209.00 86.00 C 209.00 80.57 208.68 79.00 207.56 79.00 C 206.77 79.00 205.91 78.66 205.66 78.25 C 205.41 77.84 205.82 71.65 206.58 64.50 C 207.34 57.35 207.97 50.71 207.98 49.75 C 208.00 48.23 206.96 48.00 200.00 48.00 C 192.39 48.00 192.00 48.11 191.95 50.25 C 191.81 55.91 189.23 78.11 188.63 78.70 C 187.02 80.31 186.07 76.67 185.03 65.00 C 183.37 46.32 184.39 48.00 174.68 48.00 C 166.40 48.00 166.40 48.00 167.63 60.25 C 169.32 77.05 169.31 79.00 167.50 79.00 C 166.31 79.00 166.00 80.44 166.00 86.00 C 166.00 93.00 166.00 93.00 187.50 93.00 C 209.00 93.00 209.00 93.00 209.00 86.00 Z  M 43.00 117.95 C 43.00 98.90 43.00 98.90 48.25 99.20 C 53.50 99.50 53.50 99.50 53.77 118.25 C 54.04 137.00 54.04 137.00 48.52 137.00 C 43.00 137.00 43.00 137.00 43.00 117.95 Z  M 83.00 117.95 C 83.00 98.90 83.00 98.90 88.25 99.20 C 93.50 99.50 93.50 99.50 93.77 118.25 C 94.04 137.00 94.04 137.00 88.52 137.00 C 83.00 137.00 83.00 137.00 83.00 117.95 Z  M 43.00 65.55 C 43.00 47.00 43.00 47.00 48.52 47.00 C 54.05 47.00 54.05 47.00 53.77 65.25 C 53.50 83.50 53.50 83.50 48.25 83.80 C 43.00 84.10 43.00 84.10 43.00 65.55 Z  M 83.00 65.55 C 83.00 47.00 83.00 47.00 88.52 47.00 C 94.05 47.00 94.05 47.00 93.77 65.25 C 93.50 83.50 93.50 83.50 88.25 83.80 C 83.00 84.10 83.00 84.10 83.00 65.55 Z "/>
</g>
</svg>