<?xml version="1.0" encoding="UTF-8" standalone="no"?>
<!DOCTYPE svg PUBLIC "-//W3C//DTD SVG 1.1//EN" "http://www.w3.org/Graphics/SVG/1.1/DTD/svg11.dtd" >
<svg xmlns="http://www.w3.org/2000/svg" xmlns:xlink="http://www.w3.org/1999/xlink" version="1.1" viewBox="0 0 256 256">
 <g >
 <path fill="currentColor"
d=" M 241.34 235.07 C 247.19 230.80 247.19 230.80 236.79 220.15 C 231.08 214.29 224.96 207.64 223.20 205.36 C 220.01 201.23 220.01 201.23 222.44 195.74 C 223.77 192.72 226.22 185.81 227.88 180.38 C 233.89 160.73 235.92 145.83 236.11 120.00 C 236.18 110.38 236.52 98.00 236.87 92.50 C 237.50 82.58 237.52 82.50 240.18 82.19 C 243.16 81.85 243.21 81.72 245.00 68.50 C 245.60 64.10 246.33 59.26 246.62 57.75 C 247.16 55.00 247.16 55.00 226.75 55.00 C 215.52 55.00 206.10 54.77 205.82 54.49 C 205.55 54.21 205.90 50.95 206.62 47.24 C 207.34 43.53 207.94 39.94 207.96 39.25 C 207.99 38.31 204.78 38.00 195.14 38.00 C 188.07 38.00 180.25 38.28 177.77 38.62 C 173.26 39.24 173.26 39.24 172.65 45.03 C 171.82 53.02 166.62 68.77 161.37 79.25 C 158.95 84.06 156.80 88.00 156.59 88.00 C 156.38 88.00 154.67 86.47 152.79 84.59 C 148.03 79.83 142.79 78.63 129.90 79.35 C 124.07 79.67 118.02 80.42 116.46 81.01 C 114.17 81.89 113.47 81.80 112.77 80.55 C 112.05 79.27 109.49 79.00 97.89 79.00 C 83.88 79.00 83.88 79.00 84.19 105.25 C 84.44 125.63 84.83 132.13 85.95 134.32 C 88.73 139.79 90.14 140.00 123.25 140.00 C 153.60 140.00 153.60 140.00 155.81 129.25 C 158.47 116.29 158.46 117.00 156.00 117.00 C 154.90 117.00 154.00 116.89 154.01 116.75 C 154.02 116.61 154.69 114.29 155.51 111.59 C 156.33 108.89 157.00 105.40 157.00 103.84 C 157.00 100.56 157.68 100.40 162.32 102.61 C 165.53 104.15 165.71 104.51 165.87 109.86 C 166.45 129.34 174.63 166.81 183.38 190.11 C 185.84 196.65 186.60 199.88 185.96 201.08 C 184.31 204.16 168.94 217.78 160.44 223.70 C 155.86 226.89 152.09 229.72 152.07 230.00 C 152.05 230.28 156.83 233.50 162.70 237.17 C 173.37 243.84 173.37 243.84 178.44 241.29 C 185.19 237.88 191.32 233.71 198.10 227.91 C 203.70 223.13 203.70 223.13 208.60 228.15 C 211.29 230.91 216.80 235.84 220.83 239.10 C 228.17 245.04 228.17 245.04 231.83 242.19 C 233.85 240.62 238.13 237.41 241.34 235.07 Z  M 134.53 237.97 C 141.88 234.23 144.00 229.51 144.00 216.83 C 144.00 207.09 144.00 207.09 151.19 206.79 C 158.38 206.50 158.38 206.50 160.67 197.50 C 161.92 192.55 162.96 187.94 162.98 187.25 C 162.99 186.35 160.73 186.00 154.92 186.00 C 146.84 186.00 146.84 186.00 151.44 180.75 C 159.10 172.01 162.02 160.37 157.84 155.30 C 153.46 149.99 135.31 147.42 113.85 149.05 C 91.09 150.78 76.55 153.29 77.27 155.36 C 77.48 155.99 79.20 160.66 81.08 165.74 C 84.96 176.24 84.04 175.77 96.50 173.52 C 105.71 171.85 112.87 171.63 114.94 172.94 C 116.79 174.11 115.46 177.27 110.97 182.38 C 107.79 186.00 107.79 186.00 93.34 186.00 C 77.09 186.00 78.19 184.67 81.37 200.50 C 82.58 206.50 82.58 206.50 93.29 206.78 C 104.00 207.07 104.00 207.07 104.00 209.97 C 104.00 211.56 103.56 214.02 103.02 215.43 C 102.09 217.89 101.72 218.00 94.02 218.00 C 89.61 218.00 86.00 218.34 86.00 218.75 C 86.01 219.58 90.75 237.70 91.52 239.84 C 91.91 240.92 95.74 241.12 110.78 240.84 C 128.53 240.52 129.83 240.36 134.53 237.97 Z  M 78.63 226.75 C 80.56 213.50 80.56 213.50 71.28 213.21 C 62.00 212.93 62.00 212.93 62.00 150.46 C 62.00 88.00 62.00 88.00 68.50 88.00 C 74.56 88.00 75.00 87.85 75.06 85.75 C 75.09 84.51 75.68 78.44 76.37 72.25 C 77.63 61.00 77.63 61.00 69.81 61.00 C 62.00 61.00 62.00 61.00 62.00 49.50 C 62.00 38.00 62.00 38.00 42.00 38.00 C 22.00 38.00 22.00 38.00 22.00 49.50 C 22.00 61.00 22.00 61.00 15.00 61.00 C 11.15 61.00 8.00 61.34 8.01 61.75 C 8.01 62.16 8.68 68.12 9.50 75.00 C 10.32 81.88 10.99 87.61 10.99 87.75 C 11.00 87.89 13.47 88.00 16.50 88.00 C 22.00 88.00 22.00 88.00 22.00 150.50 C 22.00 213.00 22.00 213.00 13.50 213.00 C 8.82 213.00 5.00 213.34 5.01 213.75 C 5.01 214.16 5.68 220.12 6.50 227.00 C 7.32 233.88 7.99 239.61 7.99 239.75 C 8.00 239.89 23.46 240.00 42.35 240.00 C 76.71 240.00 76.71 240.00 78.63 226.75 Z  M 159.66 62.50 C 160.90 56.45 161.93 50.95 161.95 50.28 C 161.99 49.43 159.00 48.99 151.75 48.78 C 142.03 48.51 141.48 48.39 141.18 46.28 C 140.77 43.38 135.89 39.34 131.22 38.04 C 125.84 36.55 115.15 36.77 109.37 38.48 C 104.13 40.04 100.45 43.14 99.84 46.50 C 99.51 48.33 98.57 48.52 88.74 48.78 C 82.83 48.94 78.00 49.44 78.00 49.89 C 78.00 50.98 81.99 71.13 82.53 72.76 C 82.86 73.75 90.90 73.97 120.18 73.76 C 157.41 73.50 157.41 73.50 159.66 62.50 Z  M 202.25 159.93 C 200.41 155.49 197.19 139.01 195.51 125.50 C 194.62 118.35 193.67 111.04 193.40 109.25 C 192.91 106.00 192.91 106.00 182.95 106.00 C 177.48 106.00 173.02 105.66 173.04 105.25 C 173.06 104.84 175.56 102.78 178.59 100.67 C 181.83 98.42 186.36 93.78 189.59 89.42 C 195.08 82.00 195.08 82.00 200.38 82.00 C 205.68 82.00 205.68 82.00 206.35 107.75 C 206.98 131.92 206.29 147.37 204.10 158.50 C 203.32 162.44 203.30 162.46 202.25 159.93 Z  M 113.09 104.25 C 113.18 91.50 113.18 91.50 115.75 97.25 C 118.26 102.89 118.39 103.00 122.40 103.02 C 129.22 103.04 130.07 104.62 127.52 112.57 C 126.94 114.39 127.44 114.77 131.68 115.68 C 136.09 116.64 135.50 116.74 124.75 116.86 C 113.00 117.00 113.00 117.00 113.09 104.25 Z "/>
</g>
</svg>