<?xml version="1.0" encoding="UTF-8" standalone="no"?>
<!DOCTYPE svg PUBLIC "-//W3C//DTD SVG 1.1//EN" "http://www.w3.org/Graphics/SVG/1.1/DTD/svg11.dtd" >
<svg xmlns="http://www.w3.org/2000/svg" xmlns:xlink="http://www.w3.org/1999/xlink" version="1.1" viewBox="0 0 256 256">
 <g >
 <path fill="currentColor"
d=" M 134.97 238.47 C 166.73 232.25 196.11 220.63 214.40 207.06 C 226.89 197.78 237.77 184.90 241.16 175.36 C 244.12 167.03 244.80 153.39 242.55 147.50 C 237.68 134.74 223.41 129.46 190.75 128.32 C 180.99 127.98 173.00 127.56 173.00 127.38 C 173.00 127.21 173.76 125.48 174.68 123.55 C 176.36 120.03 176.36 120.03 207.87 119.76 C 239.38 119.50 239.38 119.50 242.01 109.00 C 243.46 103.22 244.96 97.26 245.34 95.75 C 245.95 93.33 245.75 93.00 243.69 93.00 C 241.35 93.00 241.35 93.00 243.66 82.75 C 246.32 71.00 246.74 57.66 244.62 52.72 C 242.67 48.16 237.26 43.36 232.00 41.49 C 229.52 40.62 222.55 39.42 216.50 38.84 C 202.23 37.45 161.90 38.55 148.05 40.69 C 140.31 41.89 137.50 42.01 137.22 41.16 C 136.95 40.35 132.30 40.00 121.87 40.00 C 106.90 40.00 106.90 40.00 107.20 74.25 C 107.48 106.40 107.62 108.71 109.50 111.90 C 112.99 117.82 116.18 119.45 125.07 119.85 C 129.43 120.05 133.00 120.42 133.00 120.68 C 133.00 120.93 131.57 123.25 129.83 125.82 C 122.78 136.24 116.14 143.67 108.52 149.70 C 100.50 156.04 100.50 156.04 100.00 124.27 C 99.50 92.50 99.50 92.50 90.25 92.21 C 81.00 91.92 81.00 91.92 81.00 156.96 C 81.00 222.00 81.00 222.00 90.77 222.00 C 100.53 222.00 100.53 222.00 108.52 232.01 C 115.44 240.68 116.83 241.95 119.00 241.56 C 120.38 241.31 127.56 239.92 134.97 238.47 Z  M 77.00 160.50 C 77.00 82.00 77.00 82.00 88.35 82.00 C 99.70 82.00 99.70 82.00 101.85 69.69 C 103.03 62.92 104.00 56.62 104.00 55.69 C 104.00 54.19 102.51 54.00 90.50 54.00 C 77.00 54.00 77.00 54.00 77.00 45.00 C 77.00 36.00 77.00 36.00 58.50 36.00 C 40.00 36.00 40.00 36.00 40.00 45.00 C 40.00 54.00 40.00 54.00 22.98 54.00 C 5.96 54.00 5.96 54.00 6.47 56.25 C 6.76 57.49 7.92 63.00 9.05 68.50 C 10.19 74.00 11.35 79.27 11.62 80.22 C 12.05 81.73 13.86 81.98 25.81 82.22 C 39.50 82.50 39.50 82.50 39.76 160.75 C 40.01 239.00 40.01 239.00 58.51 239.00 C 77.00 239.00 77.00 239.00 77.00 160.50 Z  M 26.35 220.73 C 27.41 216.51 29.94 193.57 30.96 179.00 C 32.45 157.59 34.44 95.59 33.70 93.67 C 33.16 92.26 31.47 92.00 23.03 92.00 C 13.00 92.00 13.00 92.00 13.00 116.45 C 13.00 141.81 11.93 167.62 9.49 200.95 C 8.71 211.65 8.19 220.53 8.35 220.68 C 8.62 220.95 20.44 222.59 24.14 222.87 C 25.08 222.95 26.03 222.02 26.35 220.73 Z  M 100.00 189.39 C 100.00 158.83 100.00 158.83 104.25 162.46 C 118.04 174.23 116.08 173.39 123.16 170.52 C 126.65 169.11 133.00 165.93 137.29 163.44 C 141.57 160.96 145.46 159.17 145.93 159.45 C 146.39 159.74 151.44 159.27 157.14 158.39 C 164.76 157.23 170.81 156.98 180.00 157.46 C 193.28 158.14 199.20 159.89 199.84 163.32 C 200.83 168.69 190.16 182.42 177.50 192.07 C 169.14 198.44 168.52 198.77 170.01 195.98 C 170.74 194.63 171.05 191.20 170.81 187.38 C 170.06 175.63 162.30 168.48 150.31 168.52 C 145.05 168.53 143.47 168.99 139.81 171.56 C 133.94 175.68 130.86 181.50 130.86 188.44 C 130.86 197.43 135.82 204.68 143.26 206.53 C 144.78 206.91 146.24 207.57 146.50 208.00 C 147.24 209.19 120.30 216.27 103.25 219.36 C 100.00 219.95 100.00 219.95 100.00 189.39 Z  M 137.00 78.00 C 137.00 69.75 137.25 63.00 137.55 63.00 C 137.86 63.00 138.57 64.35 139.15 66.00 C 139.92 68.21 140.83 69.00 142.60 69.00 C 145.00 69.00 145.00 69.00 145.00 81.00 C 145.00 93.00 145.00 93.00 141.00 93.00 C 137.00 93.00 137.00 93.00 137.00 78.00 Z  M 172.00 79.00 C 172.00 65.00 172.00 65.00 176.00 65.00 C 180.00 65.00 180.00 65.00 180.00 79.00 C 180.00 93.00 180.00 93.00 176.00 93.00 C 172.00 93.00 172.00 93.00 172.00 79.00 Z  M 207.00 79.37 C 207.00 65.74 207.00 65.74 210.59 66.32 C 212.56 66.64 214.81 67.43 215.59 68.07 C 217.55 69.70 217.35 74.69 215.04 82.12 C 213.96 85.58 213.18 88.49 213.29 88.58 C 213.41 88.67 214.96 89.49 216.75 90.40 C 218.54 91.31 220.00 92.26 220.00 92.53 C 220.00 92.79 217.07 93.00 213.50 93.00 C 207.00 93.00 207.00 93.00 207.00 79.37 Z "/>
</g>
</svg>