<?xml version="1.0" encoding="UTF-8" standalone="no"?>
<!DOCTYPE svg PUBLIC "-//W3C//DTD SVG 1.1//EN" "http://www.w3.org/Graphics/SVG/1.1/DTD/svg11.dtd" >
<svg xmlns="http://www.w3.org/2000/svg" xmlns:xlink="http://www.w3.org/1999/xlink" version="1.1" viewBox="0 0 256 256">
 <g >
 <path fill="currentColor"
d=" M 45.99 231.79 C 53.52 225.47 63.58 212.78 67.92 204.12 C 72.14 195.71 76.00 183.81 78.50 171.50 C 80.73 160.50 80.73 160.50 59.72 160.23 C 48.16 160.08 38.53 160.13 38.32 160.34 C 38.11 160.55 36.86 165.18 35.54 170.61 C 30.85 189.92 22.51 209.63 12.46 225.17 C 8.14 231.85 8.14 231.85 15.32 234.43 C 33.43 240.95 33.22 240.91 36.34 239.12 C 37.90 238.23 42.24 234.93 45.99 231.79 Z  M 216.98 236.08 C 224.99 233.59 229.39 230.54 233.00 224.97 C 238.25 216.85 239.24 210.32 238.82 186.60 C 238.48 167.23 238.26 165.09 236.17 160.50 C 233.07 153.69 229.52 150.26 223.54 148.30 C 219.37 146.93 212.67 146.57 184.69 146.24 C 158.00 145.92 150.77 145.56 150.37 144.53 C 150.09 143.80 153.16 138.68 157.18 133.14 C 164.50 123.06 164.50 123.06 202.68 123.03 C 238.16 123.00 240.90 122.88 241.40 121.25 C 241.95 119.42 247.00 96.15 247.00 95.42 C 247.00 95.19 210.32 95.00 165.50 95.00 C 88.53 95.00 84.00 95.10 84.05 96.75 C 84.07 97.71 85.09 103.90 86.31 110.50 C 88.52 122.50 88.52 122.50 101.76 122.78 C 109.04 122.93 115.00 123.32 115.00 123.64 C 115.00 123.97 111.23 129.32 106.62 135.54 C 97.41 147.96 95.25 153.50 96.45 161.53 C 97.28 167.02 100.65 171.19 106.25 173.64 C 110.08 175.31 114.39 175.54 150.22 176.00 C 198.70 176.61 194.51 175.00 194.48 193.02 C 194.45 206.49 194.00 207.52 187.39 209.05 C 185.25 209.55 165.80 209.96 144.18 209.98 C 111.79 210.00 104.91 210.24 105.18 211.34 C 105.35 212.08 107.30 218.38 109.50 225.34 C 113.50 238.00 113.50 238.00 162.16 238.00 C 207.30 238.00 211.27 237.86 216.98 236.08 Z  M 72.39 142.33 C 77.40 139.22 81.86 136.36 82.31 135.97 C 82.75 135.59 80.11 132.41 76.43 128.89 C 67.48 120.34 60.60 111.14 56.16 101.78 C 52.50 94.05 52.50 94.05 31.25 94.03 C 19.56 94.01 10.00 94.15 10.00 94.34 C 10.00 95.84 14.38 106.81 17.25 112.50 C 24.60 127.07 33.71 136.78 45.43 142.51 C 50.55 145.01 58.77 147.71 61.89 147.91 C 62.66 147.96 67.38 145.45 72.39 142.33 Z  M 58.81 76.41 C 77.02 67.33 75.27 44.30 55.84 37.44 C 53.59 36.65 48.69 36.00 44.96 36.00 C 39.26 36.00 37.17 36.52 31.88 39.26 C 17.00 46.96 14.65 63.22 27.01 73.01 C 32.45 77.32 37.37 78.85 46.05 78.93 C 52.27 78.99 54.53 78.54 58.81 76.41 Z  M 233.47 65.75 C 233.76 64.51 234.89 59.23 236.00 54.00 C 237.11 48.77 238.24 43.49 238.53 42.25 C 239.04 40.00 239.04 40.00 164.52 40.00 C 123.53 40.00 90.00 40.34 90.00 40.75 C 90.00 41.94 94.08 65.37 94.53 66.75 C 94.85 67.73 109.62 68.00 163.95 68.00 C 232.96 68.00 232.96 68.00 233.47 65.75 Z "/>
</g>
</svg>