<?xml version="1.0" encoding="UTF-8" standalone="no"?>
<!DOCTYPE svg PUBLIC "-//W3C//DTD SVG 1.1//EN" "http://www.w3.org/Graphics/SVG/1.1/DTD/svg11.dtd" >
<svg xmlns="http://www.w3.org/2000/svg" xmlns:xlink="http://www.w3.org/1999/xlink" version="1.1" viewBox="0 0 256 256">
 <g >
 <path fill="currentColor"
d=" M 62.76 173.25 C 62.50 106.50 62.50 106.50 56.87 106.20 C 51.24 105.91 51.24 105.91 54.05 100.70 C 59.33 90.89 66.74 67.28 70.91 46.93 C 72.74 38.00 72.74 38.00 52.42 38.00 C 32.09 38.00 32.09 38.00 31.49 41.75 C 27.94 63.77 20.74 86.74 11.45 105.64 C 7.90 112.87 5.00 118.97 5.00 119.20 C 5.00 119.43 9.05 120.92 14.00 122.50 C 23.00 125.38 23.00 125.38 23.00 182.69 C 23.00 240.00 23.00 240.00 43.01 240.00 C 63.01 240.00 63.01 240.00 62.76 173.25 Z  M 149.19 229.52 C 153.69 213.18 153.65 214.00 150.08 214.00 C 146.43 214.00 146.47 214.34 148.91 201.50 C 152.95 180.27 153.58 148.65 150.08 142.17 C 148.51 139.25 144.62 136.29 140.50 134.87 C 134.91 132.95 107.73 133.12 98.82 135.13 C 92.50 136.55 92.11 136.53 91.66 134.82 C 91.24 133.22 90.02 133.00 81.59 133.00 C 72.00 133.00 72.00 133.00 72.04 178.75 C 72.08 219.21 72.28 225.07 73.79 229.42 C 75.65 234.78 78.85 237.75 84.12 239.01 C 85.98 239.45 100.76 239.74 116.97 239.66 C 146.44 239.50 146.44 239.50 149.19 229.52 Z  M 237.60 228.25 C 239.61 221.79 241.48 215.94 241.74 215.25 C 242.07 214.37 240.97 214.00 238.04 214.00 C 234.54 214.00 233.95 213.72 234.37 212.25 C 237.45 201.50 239.98 178.17 239.99 160.50 C 239.99 143.02 237.97 138.55 228.61 135.28 C 219.75 132.19 188.73 133.10 179.28 136.72 C 178.49 137.03 178.00 136.40 178.00 135.07 C 178.00 133.01 177.64 132.94 168.25 133.21 C 158.50 133.50 158.50 133.50 158.21 174.00 C 157.80 231.52 158.69 236.22 170.50 239.07 C 172.15 239.47 187.10 239.84 203.72 239.90 C 233.93 240.00 233.93 240.00 237.60 228.25 Z  M 232.45 121.75 C 233.19 118.34 236.00 102.44 236.00 101.67 C 236.00 101.30 234.47 101.00 232.59 101.00 C 229.18 101.00 229.18 101.00 230.60 95.75 C 235.42 77.83 237.25 57.92 234.64 51.67 C 232.98 47.70 227.98 43.35 222.28 40.91 C 205.30 33.63 165.65 33.65 125.50 40.97 C 112.24 43.38 112.00 43.39 112.00 41.50 C 112.00 40.22 109.39 40.00 94.50 40.00 C 77.00 40.00 77.00 40.00 77.00 72.63 C 77.00 108.02 77.30 110.48 82.32 116.57 C 88.68 124.29 85.04 123.95 162.73 123.98 C 231.96 124.00 231.96 124.00 232.45 121.75 Z  M 92.00 207.50 C 92.00 201.00 92.00 201.00 97.00 201.00 C 102.00 201.00 102.00 201.00 102.00 207.50 C 102.00 214.00 102.00 214.00 97.00 214.00 C 92.00 214.00 92.00 214.00 92.00 207.50 Z  M 122.00 207.50 C 122.00 201.00 122.00 201.00 126.01 201.00 C 130.02 201.00 130.02 201.00 129.76 206.68 C 129.52 211.98 129.67 212.41 132.00 213.08 C 133.73 213.58 132.57 213.83 128.25 213.90 C 122.00 214.00 122.00 214.00 122.00 207.50 Z  M 92.00 161.50 C 92.00 154.07 92.20 148.00 92.45 148.00 C 92.70 148.00 93.68 150.47 94.63 153.50 C 96.19 158.45 96.64 159.00 99.18 159.00 C 102.00 159.00 102.00 159.00 102.00 167.00 C 102.00 175.00 102.00 175.00 97.00 175.00 C 92.00 175.00 92.00 175.00 92.00 161.50 Z  M 122.00 166.00 C 122.00 156.05 122.22 155.79 128.75 158.06 C 132.26 159.29 132.97 161.15 132.99 169.25 C 133.00 175.00 133.00 175.00 127.50 175.00 C 122.00 175.00 122.00 175.00 122.00 166.00 Z  M 178.00 207.50 C 178.00 201.00 178.00 201.00 183.50 201.00 C 189.00 201.00 189.00 201.00 189.00 207.50 C 189.00 214.00 189.00 214.00 183.50 214.00 C 178.00 214.00 178.00 214.00 178.00 207.50 Z  M 209.00 207.50 C 209.00 201.00 209.00 201.00 213.05 201.00 C 217.09 201.00 217.09 201.00 216.46 204.75 C 216.11 206.81 215.62 209.27 215.36 210.21 C 215.02 211.46 215.78 212.17 218.20 212.87 C 221.20 213.73 220.92 213.83 215.25 213.91 C 209.00 214.00 209.00 214.00 209.00 207.50 Z  M 178.07 161.75 C 178.13 147.50 178.13 147.50 180.73 153.34 C 183.13 158.73 183.55 159.15 186.17 158.76 C 189.00 158.35 189.00 158.35 189.00 167.17 C 189.00 176.00 189.00 176.00 183.50 176.00 C 178.00 176.00 178.00 176.00 178.07 161.75 Z  M 209.00 166.37 C 209.00 156.74 209.00 156.74 212.59 157.32 C 218.37 158.26 219.00 159.32 219.00 168.12 C 219.00 176.00 219.00 176.00 214.00 176.00 C 209.00 176.00 209.00 176.00 209.00 166.37 Z  M 112.00 95.50 C 112.00 90.00 112.00 90.00 123.00 90.00 C 134.00 90.00 134.00 90.00 134.00 95.50 C 134.00 101.00 134.00 101.00 123.00 101.00 C 112.00 101.00 112.00 101.00 112.00 95.50 Z  M 175.20 95.75 C 175.50 90.50 175.50 90.50 186.77 90.22 C 198.03 89.93 198.03 89.93 197.42 93.76 C 196.81 97.59 196.81 97.59 201.65 99.20 C 206.50 100.81 206.50 100.81 190.70 100.90 C 174.90 101.00 174.90 101.00 175.20 95.75 Z  M 112.00 61.50 C 112.00 55.72 112.15 51.00 112.34 51.00 C 112.53 51.00 113.92 54.15 115.43 58.00 C 116.94 61.85 118.70 65.00 119.34 64.99 C 119.98 64.98 122.71 64.31 125.41 63.49 C 133.49 61.04 134.00 61.25 134.00 67.00 C 134.00 72.00 134.00 72.00 123.00 72.00 C 112.00 72.00 112.00 72.00 112.00 61.50 Z  M 175.67 71.33 C 175.30 70.97 175.00 68.04 175.00 64.83 C 175.00 59.00 175.00 59.00 183.75 59.06 C 188.56 59.09 194.07 59.65 195.99 60.31 C 200.02 61.68 202.38 65.65 201.42 69.45 C 200.78 72.00 200.78 72.00 188.56 72.00 C 181.83 72.00 176.03 71.70 175.67 71.33 Z "/>
</g>
</svg>