<?xml version="1.0" encoding="UTF-8" standalone="no"?>
<!DOCTYPE svg PUBLIC "-//W3C//DTD SVG 1.1//EN" "http://www.w3.org/Graphics/SVG/1.1/DTD/svg11.dtd" >
<svg xmlns="http://www.w3.org/2000/svg" xmlns:xlink="http://www.w3.org/1999/xlink" version="1.1" viewBox="0 0 256 256">
 <g >
 <path fill="currentColor"
d=" M 43.42 228.50 C 52.31 210.35 55.18 190.50 56.64 137.12 C 57.32 111.91 57.32 111.91 62.91 112.20 C 68.50 112.50 68.50 112.50 69.02 128.50 C 69.49 142.64 69.81 145.00 71.83 148.83 C 73.47 151.93 75.30 153.69 78.31 155.05 C 82.15 156.80 85.21 156.96 114.53 156.98 C 146.56 157.00 146.56 157.00 148.29 150.25 C 149.24 146.54 150.01 143.16 150.01 142.75 C 150.00 142.34 141.24 142.00 130.54 142.00 C 112.31 142.00 111.00 141.88 110.04 140.07 C 107.37 135.09 107.69 135.00 127.00 135.00 C 145.00 135.00 145.00 135.00 145.01 132.75 C 145.01 131.51 145.30 128.14 145.65 125.25 C 146.28 120.00 146.28 120.00 127.64 120.00 C 109.00 120.00 109.00 120.00 109.00 116.00 C 109.00 112.00 109.00 112.00 131.36 112.00 C 153.73 112.00 153.73 112.00 154.21 126.92 C 154.64 140.43 154.93 142.34 157.30 147.18 C 161.97 156.74 160.82 156.50 202.93 156.50 C 239.37 156.50 239.37 156.50 240.51 152.00 C 243.39 140.72 245.95 142.00 220.45 142.00 C 207.13 142.00 197.09 141.58 195.98 140.99 C 194.13 140.00 192.02 134.44 192.01 130.55 C 192.00 128.90 192.52 129.11 195.46 131.96 C 198.91 135.31 198.91 135.31 212.19 133.55 C 228.47 131.40 234.67 129.22 239.42 123.95 C 241.39 121.78 243.00 119.55 243.00 119.00 C 243.00 118.40 239.02 118.00 233.11 118.00 C 225.08 118.00 220.66 118.66 209.57 121.50 C 191.00 126.26 191.84 126.39 192.20 118.75 C 192.50 112.50 192.50 112.50 214.86 112.00 C 237.21 111.50 237.21 111.50 239.46 105.50 C 243.36 95.10 243.38 95.00 241.09 95.00 C 239.31 95.00 239.18 94.67 240.02 92.43 C 240.56 91.02 241.00 87.84 241.00 85.36 C 241.00 79.56 237.48 75.82 229.96 73.58 C 224.76 72.04 204.98 70.20 188.50 69.73 C 181.05 69.52 180.48 69.35 180.18 67.25 C 179.86 65.00 179.86 65.00 211.35 65.00 C 247.20 65.00 242.73 66.59 245.03 53.00 C 245.64 49.42 246.38 45.49 246.68 44.25 C 247.22 42.00 247.22 42.00 206.08 42.00 C 164.94 42.00 164.94 42.00 161.98 38.63 C 160.35 36.77 156.65 34.18 153.76 32.88 C 149.20 30.82 146.97 30.50 137.00 30.50 C 127.12 30.50 124.78 30.83 120.38 32.82 C 117.57 34.09 113.77 36.68 111.94 38.57 C 108.61 42.00 108.61 42.00 82.80 42.00 C 57.00 42.00 57.00 42.00 57.00 39.50 C 57.00 37.00 57.00 37.00 37.12 37.00 C 17.24 37.00 17.24 37.00 16.68 103.75 C 16.04 181.53 14.94 198.68 8.99 224.49 C 7.97 228.88 7.30 232.63 7.49 232.82 C 7.68 233.01 14.06 234.89 21.67 237.00 C 35.50 240.83 35.50 240.83 37.75 238.17 C 38.98 236.70 41.54 232.35 43.42 228.50 Z  M 236.50 235.25 C 241.17 232.64 245.00 230.21 245.00 229.87 C 245.00 229.52 241.29 226.52 236.75 223.21 C 232.21 219.90 226.95 215.57 225.05 213.59 C 221.61 210.00 221.61 210.00 200.80 210.00 C 188.97 210.00 180.00 210.39 180.00 210.91 C 180.00 213.31 188.60 222.24 195.00 226.50 C 204.17 232.60 220.41 239.46 226.75 239.91 C 227.43 239.96 231.82 237.86 236.50 235.25 Z  M 173.00 221.50 C 173.00 204.00 173.00 204.00 205.92 204.00 C 238.84 204.00 238.84 204.00 239.40 201.25 C 240.00 198.27 243.00 179.35 243.00 178.51 C 243.00 178.23 239.39 178.00 234.99 178.00 C 226.97 178.00 226.97 178.00 229.33 174.25 C 235.05 165.14 236.66 166.00 213.98 166.00 C 193.89 166.00 193.89 166.00 191.19 171.97 C 188.50 177.93 188.50 177.93 180.75 177.97 C 173.00 178.00 173.00 178.00 173.00 170.48 C 173.00 162.96 173.00 162.96 153.25 163.23 C 133.50 163.50 133.50 163.50 133.21 170.75 C 132.91 178.00 132.91 178.00 125.96 178.00 C 119.01 178.00 119.01 178.00 115.26 172.00 C 111.51 166.00 111.51 166.00 91.75 166.00 C 80.89 166.00 72.00 166.30 72.00 166.67 C 72.00 167.04 73.35 169.74 75.01 172.67 C 78.02 178.00 78.02 178.00 69.51 178.00 C 63.33 178.00 61.02 178.34 61.06 179.25 C 61.10 179.94 62.13 185.68 63.35 192.00 C 65.57 203.50 65.57 203.50 99.29 203.76 C 133.00 204.03 133.00 204.03 133.00 220.85 C 133.00 230.10 133.30 237.97 133.67 238.33 C 134.03 238.70 143.03 239.00 153.67 239.00 C 173.00 239.00 173.00 239.00 173.00 221.50 Z  M 88.12 234.41 C 100.21 230.20 104.77 228.01 111.27 223.27 C 115.33 220.32 122.00 212.42 122.00 210.57 C 122.00 210.26 112.60 210.00 101.11 210.00 C 80.23 210.00 80.23 210.00 74.02 215.98 C 70.61 219.27 65.11 223.76 61.81 225.97 C 58.18 228.39 56.33 230.18 57.15 230.47 C 57.89 230.74 62.77 232.52 68.00 234.43 C 73.22 236.34 77.57 237.92 77.65 237.95 C 77.74 237.98 82.45 236.38 88.12 234.41 Z  M 57.12 89.25 C 57.18 86.09 57.44 84.32 57.70 85.33 C 58.13 86.97 59.20 87.13 68.34 86.88 C 78.50 86.60 78.50 86.60 78.81 90.80 C 79.11 95.00 79.11 95.00 68.06 95.00 C 57.00 95.00 57.00 95.00 57.12 89.25 Z  M 120.00 90.00 C 120.00 85.00 120.00 85.00 130.00 85.00 C 140.00 85.00 140.00 85.00 140.00 90.00 C 140.00 95.00 140.00 95.00 130.00 95.00 C 120.00 95.00 120.00 95.00 120.00 90.00 Z  M 180.20 90.25 C 180.50 85.50 180.50 85.50 189.00 85.84 C 198.95 86.23 202.35 87.77 201.42 91.46 C 200.87 93.65 201.17 93.90 204.66 94.27 C 206.77 94.48 202.06 94.74 194.20 94.83 C 179.89 95.00 179.89 95.00 180.20 90.25 Z  M 57.10 60.78 C 57.19 51.18 57.35 50.09 58.20 53.50 C 61.37 66.32 60.01 65.00 70.10 65.00 C 79.13 65.00 79.13 65.00 78.81 68.25 C 78.50 71.50 78.50 71.50 67.75 71.78 C 57.00 72.07 57.00 72.07 57.10 60.78 Z  M 120.00 67.50 C 120.00 65.00 120.00 65.00 130.00 65.00 C 140.00 65.00 140.00 65.00 140.00 67.50 C 140.00 70.00 140.00 70.00 130.00 70.00 C 120.00 70.00 120.00 70.00 120.00 67.50 Z "/>
</g>
</svg>