<?xml version="1.0" encoding="UTF-8" standalone="no"?>
<!DOCTYPE svg PUBLIC "-//W3C//DTD SVG 1.1//EN" "http://www.w3.org/Graphics/SVG/1.1/DTD/svg11.dtd" >
<svg xmlns="http://www.w3.org/2000/svg" xmlns:xlink="http://www.w3.org/1999/xlink" version="1.1" viewBox="0 0 256 256">
 <g >
 <path fill="currentColor"
d=" M 95.00 214.50 C 95.00 183.00 95.00 183.00 132.50 183.00 C 170.00 183.00 170.00 183.00 170.00 204.42 C 170.00 225.85 170.00 225.85 152.25 218.56 C 142.49 214.55 132.85 210.57 130.83 209.72 C 128.81 208.87 126.90 208.43 126.58 208.75 C 125.39 209.94 125.98 225.74 127.25 226.76 C 127.94 227.32 138.63 231.87 151.01 236.89 C 173.52 246.00 173.52 246.00 197.26 246.00 C 221.00 246.00 221.00 246.00 221.00 159.50 C 221.00 73.00 221.00 73.00 166.50 73.00 C 136.52 73.00 112.00 72.70 112.00 72.34 C 112.00 71.98 114.29 65.91 117.10 58.84 C 122.20 46.00 122.20 46.00 181.10 46.00 C 240.00 46.00 240.00 46.00 240.00 37.00 C 240.00 28.00 240.00 28.00 185.00 28.00 C 139.63 28.00 130.00 27.76 130.00 26.66 C 130.00 25.92 130.90 22.70 132.00 19.50 C 133.10 16.30 134.00 13.31 134.00 12.84 C 134.00 12.38 121.04 12.00 105.20 12.00 C 76.40 12.00 76.40 12.00 74.61 17.25 C 70.50 29.34 74.46 28.00 42.88 28.00 C 15.00 28.00 15.00 28.00 15.00 37.00 C 15.00 46.00 15.00 46.00 39.07 46.00 C 63.13 46.00 63.13 46.00 62.43 48.25 C 59.78 56.64 30.48 115.13 17.21 138.50 C 13.24 145.50 13.24 145.50 28.62 145.78 C 44.00 146.05 44.00 146.05 44.00 196.03 C 44.00 246.00 44.00 246.00 69.50 246.00 C 95.00 246.00 95.00 246.00 95.00 214.50 Z  M 95.00 151.00 C 95.00 136.00 95.00 136.00 132.50 136.00 C 170.00 136.00 170.00 136.00 170.00 151.00 C 170.00 166.00 170.00 166.00 132.50 166.00 C 95.00 166.00 95.00 166.00 95.00 151.00 Z  M 95.00 115.29 C 95.00 113.10 96.89 107.17 99.63 100.79 C 104.27 90.00 104.27 90.00 137.13 90.00 C 170.00 90.00 170.00 90.00 170.00 104.50 C 170.00 119.00 170.00 119.00 132.50 119.00 C 95.00 119.00 95.00 119.00 95.00 115.29 Z "/>
</g>
</svg>