<?xml version="1.0" encoding="UTF-8" standalone="no"?>
<!DOCTYPE svg PUBLIC "-//W3C//DTD SVG 1.1//EN" "http://www.w3.org/Graphics/SVG/1.1/DTD/svg11.dtd" >
<svg xmlns="http://www.w3.org/2000/svg" xmlns:xlink="http://www.w3.org/1999/xlink" version="1.1" viewBox="0 0 256 256">
 <g >
 <path fill="currentColor"
d=" M 50.00 243.62 C 50.00 242.32 50.28 239.87 50.62 238.17 C 51.23 235.10 51.23 235.10 57.98 240.55 C 64.72 246.00 64.72 246.00 83.86 246.00 C 103.00 246.00 103.00 246.00 103.00 130.50 C 103.00 15.00 103.00 15.00 59.10 15.00 C 15.21 15.00 15.21 15.00 14.70 103.75 C 14.16 196.75 13.23 220.80 9.35 242.75 C 8.78 246.00 8.78 246.00 29.39 246.00 C 50.00 246.00 50.00 246.00 50.00 243.62 Z  M 196.22 233.44 C 196.50 220.89 196.50 220.89 200.50 223.92 C 204.50 226.94 204.50 226.94 222.75 226.97 C 241.00 227.00 241.00 227.00 241.00 145.02 C 241.00 63.04 241.00 63.04 219.75 62.77 C 198.50 62.50 198.50 62.50 198.21 53.25 C 197.92 44.00 197.92 44.00 220.96 44.00 C 244.00 44.00 244.00 44.00 244.00 36.00 C 244.00 28.00 244.00 28.00 221.00 28.00 C 198.00 28.00 198.00 28.00 198.00 20.00 C 198.00 12.00 198.00 12.00 175.50 12.00 C 153.00 12.00 153.00 12.00 153.00 20.00 C 153.00 28.00 153.00 28.00 130.50 28.00 C 108.00 28.00 108.00 28.00 108.00 36.00 C 108.00 44.00 108.00 44.00 130.50 44.00 C 153.00 44.00 153.00 44.00 153.00 53.50 C 153.00 63.00 153.00 63.00 132.50 63.00 C 112.00 63.00 112.00 63.00 112.00 145.00 C 112.00 227.00 112.00 227.00 129.50 227.00 C 147.00 227.00 147.00 227.00 147.00 153.00 C 147.00 79.00 147.00 79.00 151.00 79.00 C 155.00 79.00 155.00 79.00 155.00 162.50 C 155.00 246.00 155.00 246.00 175.47 246.00 C 195.94 246.00 195.94 246.00 196.22 233.44 Z  M 58.62 221.82 C 52.75 217.74 52.75 217.74 53.32 211.62 C 53.64 208.25 54.45 195.94 55.13 184.25 C 56.36 163.00 56.36 163.00 60.68 163.00 C 65.00 163.00 65.00 163.00 65.00 194.50 C 65.00 211.82 64.89 225.98 64.75 225.95 C 64.61 225.92 61.86 224.06 58.62 221.82 Z  M 56.00 123.94 C 56.00 99.89 56.00 99.89 60.25 100.19 C 64.50 100.50 64.50 100.50 64.77 124.25 C 65.04 148.00 65.04 148.00 60.52 148.00 C 56.00 148.00 56.00 148.00 56.00 123.94 Z  M 56.00 58.06 C 56.00 30.00 56.00 30.00 60.52 30.00 C 65.03 30.00 65.03 30.00 64.77 57.75 C 64.50 85.50 64.50 85.50 60.25 85.81 C 56.00 86.11 56.00 86.11 56.00 58.06 Z  M 199.75 205.87 C 196.00 202.81 196.00 202.81 196.00 140.90 C 196.00 79.00 196.00 79.00 200.00 79.00 C 204.00 79.00 204.00 79.00 204.00 144.00 C 204.00 179.75 203.89 208.98 203.75 208.97 C 203.61 208.95 201.81 207.55 199.75 205.87 Z "/>
</g>
</svg>