<?xml version="1.0" encoding="UTF-8" standalone="no"?>
<!DOCTYPE svg PUBLIC "-//W3C//DTD SVG 1.1//EN" "http://www.w3.org/Graphics/SVG/1.1/DTD/svg11.dtd" >
<svg xmlns="http://www.w3.org/2000/svg" xmlns:xlink="http://www.w3.org/1999/xlink" version="1.1" viewBox="0 0 256 256">
 <g >
 <path fill="currentColor"
d=" M 47.40 243.75 C 49.47 236.33 52.14 222.62 53.95 210.00 C 55.10 202.03 56.25 194.26 56.50 192.75 C 56.95 190.00 56.95 190.00 39.05 190.00 C 21.16 190.00 21.16 190.00 20.62 192.75 C 20.32 194.26 19.14 201.12 17.99 208.00 C 16.02 219.89 11.45 241.66 10.32 244.62 C 9.88 245.76 12.95 246.00 28.28 246.00 C 46.60 246.00 46.77 245.98 47.40 243.75 Z  M 142.82 235.50 C 143.70 228.85 144.37 205.93 144.82 167.00 C 145.50 108.50 145.50 108.50 149.25 108.19 C 153.00 107.88 153.00 107.88 153.00 176.94 C 153.00 246.00 153.00 246.00 170.11 246.00 C 187.22 246.00 187.22 246.00 198.14 237.48 C 204.82 232.26 209.20 229.46 209.44 230.23 C 209.66 230.93 210.60 234.76 211.53 238.75 C 213.22 246.00 213.22 246.00 229.68 246.00 C 244.88 246.00 246.10 245.87 245.63 244.25 C 241.68 230.65 229.53 165.98 230.74 165.02 C 231.16 164.68 234.94 161.83 239.16 158.67 C 250.11 150.46 249.82 151.23 244.81 143.60 C 242.44 139.99 240.19 137.03 239.81 137.02 C 239.43 137.01 236.52 139.27 233.35 142.05 C 227.88 146.83 227.54 146.98 226.79 144.95 C 225.66 141.89 221.08 109.68 221.65 108.76 C 221.91 108.34 227.27 108.00 233.56 108.00 C 245.00 108.00 245.00 108.00 245.00 100.00 C 245.00 92.00 245.00 92.00 195.00 92.00 C 145.00 92.00 145.00 92.00 145.00 62.00 C 145.00 32.00 145.00 32.00 194.00 32.00 C 243.00 32.00 243.00 32.00 243.00 24.00 C 243.00 16.00 243.00 16.00 176.00 16.00 C 109.00 16.00 109.00 16.00 108.98 93.75 C 108.96 173.75 108.05 209.20 105.59 226.33 C 104.81 231.73 103.97 236.36 103.73 236.61 C 103.48 236.85 102.34 231.08 101.19 223.78 C 100.04 216.48 98.11 205.89 96.91 200.25 C 94.73 190.00 94.73 190.00 77.36 190.00 C 67.26 190.00 60.00 190.39 60.00 190.93 C 60.00 191.45 60.64 194.94 61.42 198.68 C 62.20 202.43 64.01 213.60 65.45 223.50 C 66.89 233.40 68.29 242.52 68.56 243.76 C 69.04 246.02 69.04 246.02 105.27 245.76 C 141.50 245.50 141.50 245.50 142.82 235.50 Z  M 102.00 100.00 C 102.00 15.00 102.00 15.00 59.00 15.00 C 16.00 15.00 16.00 15.00 16.00 100.00 C 16.00 185.00 16.00 185.00 59.00 185.00 C 102.00 185.00 102.00 185.00 102.00 100.00 Z  M 232.00 62.00 C 232.00 54.00 232.00 54.00 190.50 54.00 C 149.00 54.00 149.00 54.00 149.00 61.33 C 149.00 65.37 149.30 68.97 149.67 69.33 C 150.03 69.70 168.71 70.00 191.17 70.00 C 232.00 70.00 232.00 70.00 232.00 62.00 Z  M 187.24 167.87 C 187.50 108.50 187.50 108.50 189.69 108.19 C 192.31 107.82 192.23 107.45 194.48 131.50 C 196.48 152.84 200.16 180.13 203.57 198.78 C 205.01 206.68 206.04 213.24 205.85 213.36 C 205.26 213.73 193.69 222.22 190.24 224.81 C 186.98 227.25 186.98 227.25 187.24 167.87 Z  M 53.00 150.95 C 53.00 132.91 53.00 132.91 59.75 133.20 C 66.50 133.50 66.50 133.50 66.77 151.25 C 67.05 169.00 67.05 169.00 60.02 169.00 C 53.00 169.00 53.00 169.00 53.00 150.95 Z  M 53.00 100.00 C 53.00 83.00 53.00 83.00 60.00 83.00 C 67.00 83.00 67.00 83.00 67.00 100.00 C 67.00 117.00 67.00 117.00 60.00 117.00 C 53.00 117.00 53.00 117.00 53.00 100.00 Z  M 53.00 49.05 C 53.00 31.00 53.00 31.00 60.02 31.00 C 67.05 31.00 67.05 31.00 66.77 48.75 C 66.50 66.50 66.50 66.50 59.75 66.80 C 53.00 67.09 53.00 67.09 53.00 49.05 Z "/>
</g>
</svg>