<?xml version="1.0" encoding="UTF-8" standalone="no"?>
<!DOCTYPE svg PUBLIC "-//W3C//DTD SVG 1.1//EN" "http://www.w3.org/Graphics/SVG/1.1/DTD/svg11.dtd" >
<svg xmlns="http://www.w3.org/2000/svg" xmlns:xlink="http://www.w3.org/1999/xlink" version="1.1" viewBox="0 0 256 256">
 <g >
 <path fill="currentColor"
d=" M 110.76 195.25 C 110.50 144.50 110.50 144.50 102.75 144.21 C 95.00 143.92 95.00 143.92 95.00 129.96 C 95.00 116.00 95.00 116.00 103.04 116.00 C 111.09 116.00 111.09 116.00 110.79 108.75 C 110.50 101.50 110.50 101.50 102.75 101.21 C 95.00 100.92 95.00 100.92 95.00 87.50 C 95.00 74.08 95.00 74.08 102.75 73.79 C 110.50 73.50 110.50 73.50 110.79 66.25 C 111.09 59.00 111.09 59.00 103.04 59.00 C 95.00 59.00 95.00 59.00 95.00 45.04 C 95.00 31.08 95.00 31.08 102.75 30.79 C 110.50 30.50 110.50 30.50 110.79 22.75 C 111.08 15.00 111.08 15.00 62.54 15.00 C 14.00 15.00 14.00 15.00 14.00 87.50 C 14.00 160.00 14.00 160.00 46.00 160.00 C 78.00 160.00 78.00 160.00 78.00 194.21 C 78.00 226.64 77.91 228.34 76.27 226.70 C 74.78 225.21 74.45 221.92 73.89 202.74 C 73.53 190.51 72.90 177.46 72.50 173.75 C 71.77 167.00 71.77 167.00 65.75 167.00 C 59.73 167.00 59.73 167.00 60.40 178.25 C 61.45 195.95 62.96 228.97 62.98 234.75 C 63.00 240.00 63.00 240.00 67.98 240.00 C 72.11 240.00 73.53 240.51 76.23 242.97 C 79.50 245.94 79.50 245.94 95.26 245.97 C 111.02 246.00 111.02 246.00 110.76 195.25 Z  M 241.00 130.50 C 241.00 15.00 241.00 15.00 179.50 15.00 C 118.00 15.00 118.00 15.00 118.00 130.50 C 118.00 246.00 118.00 246.00 179.50 246.00 C 241.00 246.00 241.00 246.00 241.00 130.50 Z  M 25.01 238.25 C 25.02 237.29 25.69 224.80 26.50 210.50 C 27.30 196.20 27.97 180.56 27.98 175.75 C 28.00 167.00 28.00 167.00 21.50 167.00 C 15.00 167.00 15.00 167.00 14.99 171.25 C 14.97 178.36 12.09 230.18 11.43 235.25 C 10.81 240.00 10.81 240.00 17.91 240.00 C 23.99 240.00 25.00 239.75 25.01 238.25 Z  M 43.99 233.25 C 43.98 226.57 42.67 198.49 41.40 177.75 C 40.74 167.00 40.74 167.00 35.23 167.00 C 29.71 167.00 29.71 167.00 30.34 176.75 C 30.69 182.11 31.27 198.54 31.64 213.25 C 32.31 240.00 32.31 240.00 38.15 240.00 C 44.00 240.00 44.00 240.00 43.99 233.25 Z  M 58.97 233.25 C 58.94 226.46 57.67 199.16 56.41 178.25 C 55.73 167.00 55.73 167.00 50.23 167.00 C 44.73 167.00 44.73 167.00 45.35 178.25 C 45.70 184.44 46.28 200.86 46.64 214.75 C 47.30 240.00 47.30 240.00 53.15 240.00 C 59.00 240.00 59.00 240.00 58.97 233.25 Z  M 49.00 129.95 C 49.00 115.90 49.00 115.90 55.25 116.20 C 61.50 116.50 61.50 116.50 61.78 130.25 C 62.06 144.00 62.06 144.00 55.53 144.00 C 49.00 144.00 49.00 144.00 49.00 129.95 Z  M 49.00 87.50 C 49.00 74.00 49.00 74.00 55.50 74.00 C 62.00 74.00 62.00 74.00 62.00 87.50 C 62.00 101.00 62.00 101.00 55.50 101.00 C 49.00 101.00 49.00 101.00 49.00 87.50 Z  M 49.00 45.05 C 49.00 31.00 49.00 31.00 55.53 31.00 C 62.06 31.00 62.06 31.00 61.78 44.75 C 61.50 58.50 61.50 58.50 55.25 58.80 C 49.00 59.10 49.00 59.10 49.00 45.05 Z  M 149.23 206.25 C 149.50 182.50 149.50 182.50 159.71 182.22 C 169.92 181.93 169.92 181.93 170.44 178.72 C 171.94 169.31 174.29 112.10 174.74 74.25 C 175.24 31.00 175.24 31.00 178.12 31.00 C 181.00 31.00 181.00 31.00 181.00 106.50 C 181.00 182.00 181.00 182.00 194.50 182.00 C 208.00 182.00 208.00 182.00 208.00 206.00 C 208.00 230.00 208.00 230.00 178.48 230.00 C 148.96 230.00 148.96 230.00 149.23 206.25 Z  M 149.00 102.17 C 149.00 31.00 149.00 31.00 152.00 31.00 C 155.00 31.00 155.00 31.00 155.13 39.25 C 155.45 58.76 154.84 98.08 153.91 117.50 C 152.81 140.50 150.30 172.03 149.50 172.83 C 149.23 173.11 149.00 141.31 149.00 102.17 Z  M 202.00 99.00 C 202.00 31.00 202.00 31.00 205.00 31.00 C 208.00 31.00 208.00 31.00 208.00 99.00 C 208.00 167.00 208.00 167.00 205.00 167.00 C 202.00 167.00 202.00 167.00 202.00 99.00 Z "/>
</g>
</svg>