<?xml version="1.0" encoding="UTF-8" standalone="no"?>
<!DOCTYPE svg PUBLIC "-//W3C//DTD SVG 1.1//EN" "http://www.w3.org/Graphics/SVG/1.1/DTD/svg11.dtd" >
<svg xmlns="http://www.w3.org/2000/svg" xmlns:xlink="http://www.w3.org/1999/xlink" version="1.1" viewBox="0 0 256 256">
 <g >
 <path fill="currentColor"
d=" M 148.43 245.11 C 149.38 243.58 155.77 206.22 158.49 186.39 C 159.91 176.00 161.39 165.34 161.78 162.70 C 162.50 157.90 162.50 157.90 169.85 175.53 C 178.34 195.88 179.19 190.44 162.14 225.00 C 156.85 235.72 152.37 244.84 152.18 245.25 C 151.99 245.66 159.70 246.00 169.31 246.00 C 186.78 246.00 186.78 246.00 190.99 237.91 C 195.19 229.82 195.19 229.82 200.18 237.91 C 205.18 246.00 205.18 246.00 224.62 246.00 C 244.07 246.00 244.07 246.00 242.88 243.75 C 242.22 242.51 237.51 234.00 232.40 224.84 C 227.29 215.67 221.07 204.11 218.58 199.15 C 214.05 190.14 214.05 190.14 216.51 184.57 C 220.96 174.50 227.81 152.90 234.46 127.93 C 240.13 106.65 241.00 102.21 241.00 94.68 C 241.00 86.00 241.00 86.00 206.67 86.00 C 187.78 86.00 172.11 85.77 171.83 85.50 C 171.55 85.22 171.67 82.40 172.10 79.25 C 172.53 76.09 173.17 70.91 173.51 67.75 C 174.14 62.00 174.14 62.00 209.07 62.00 C 244.00 62.00 244.00 62.00 244.00 53.50 C 244.00 45.00 244.00 45.00 210.17 45.00 C 191.56 45.00 176.12 44.79 175.86 44.53 C 175.61 44.27 176.19 37.63 177.16 29.78 C 178.14 21.93 178.95 14.71 178.97 13.75 C 179.00 12.15 177.47 12.00 160.65 12.00 C 142.30 12.00 142.30 12.00 140.40 28.25 C 138.50 44.50 138.50 44.50 126.75 44.78 C 115.00 45.06 115.00 45.06 115.00 53.53 C 115.00 62.00 115.00 62.00 125.50 62.00 C 136.00 62.00 136.00 62.00 135.99 65.25 C 135.96 79.59 119.88 202.22 114.01 233.00 C 112.90 238.77 112.00 244.06 112.00 244.75 C 112.00 245.70 116.24 246.00 129.94 246.00 C 139.81 246.00 148.13 245.60 148.43 245.11 Z  M 66.24 240.97 C 90.30 239.34 110.44 238.00 110.99 238.00 C 111.58 238.00 112.00 234.69 112.00 230.00 C 112.00 225.60 111.66 222.00 111.25 222.00 C 110.84 222.01 88.00 223.36 60.50 225.00 C 33.00 226.64 10.39 227.99 10.25 228.00 C 10.11 228.00 10.00 231.86 10.00 236.58 C 10.00 245.16 10.00 245.16 16.25 244.55 C 19.69 244.21 42.19 242.60 66.24 240.97 Z  M 115.00 142.00 C 115.00 71.00 115.00 71.00 105.50 71.00 C 100.28 71.00 96.00 70.63 96.00 70.18 C 96.00 69.73 96.65 67.14 97.44 64.43 C 100.09 55.36 104.00 32.63 104.00 26.28 C 104.00 20.00 104.00 20.00 83.00 20.00 C 62.00 20.00 62.00 20.00 62.00 15.98 C 62.00 11.95 62.00 11.95 44.29 12.23 C 26.59 12.50 26.59 12.50 22.49 29.00 C 20.24 38.08 16.51 49.94 14.20 55.37 C 11.89 60.79 10.00 65.41 10.00 65.62 C 10.00 65.83 18.70 66.00 29.34 66.00 C 50.45 66.00 48.14 68.26 56.91 39.00 C 57.60 36.71 58.21 36.48 64.19 36.21 C 70.71 35.92 70.71 35.92 69.90 41.04 C 68.88 47.51 66.60 55.61 63.36 64.25 C 60.83 71.00 60.83 71.00 37.41 71.00 C 14.00 71.00 14.00 71.00 14.00 142.00 C 14.00 213.00 14.00 213.00 64.50 213.00 C 115.00 213.00 115.00 213.00 115.00 142.00 Z  M 236.43 36.25 C 235.43 30.60 231.29 14.28 230.54 13.06 C 230.12 12.38 224.02 12.00 213.58 12.00 C 197.28 12.00 197.28 12.00 199.07 18.75 C 200.05 22.46 201.38 28.76 202.02 32.75 C 203.18 40.00 203.18 40.00 220.14 40.00 C 237.09 40.00 237.09 40.00 236.43 36.25 Z  M 188.34 130.75 C 182.28 114.50 182.28 114.50 175.38 114.21 C 168.48 113.92 168.48 113.92 168.99 108.21 C 169.50 102.50 169.50 102.50 188.75 102.23 C 200.68 102.06 208.00 102.32 208.00 102.92 C 208.00 107.14 196.38 147.00 195.15 147.00 C 194.74 147.00 191.67 139.69 188.34 130.75 Z  M 45.00 171.00 C 45.00 144.00 45.00 144.00 48.50 144.00 C 52.00 144.00 52.00 144.00 52.00 171.00 C 52.00 198.00 52.00 198.00 48.50 198.00 C 45.00 198.00 45.00 198.00 45.00 171.00 Z  M 79.00 170.93 C 79.00 143.87 79.00 143.87 81.75 144.18 C 84.50 144.50 84.50 144.50 84.77 171.25 C 85.03 198.00 85.03 198.00 82.02 198.00 C 79.00 198.00 79.00 198.00 79.00 170.93 Z  M 45.00 107.50 C 45.00 86.00 45.00 86.00 48.50 86.00 C 52.00 86.00 52.00 86.00 52.00 107.50 C 52.00 129.00 52.00 129.00 48.50 129.00 C 45.00 129.00 45.00 129.00 45.00 107.50 Z  M 79.00 107.50 C 79.00 86.00 79.00 86.00 82.00 86.00 C 85.00 86.00 85.00 86.00 85.00 107.50 C 85.00 129.00 85.00 129.00 82.00 129.00 C 79.00 129.00 79.00 129.00 79.00 107.50 Z "/>
</g>
</svg>