<?xml version="1.0" encoding="UTF-8" standalone="no"?>
<!DOCTYPE svg PUBLIC "-//W3C//DTD SVG 1.1//EN" "http://www.w3.org/Graphics/SVG/1.1/DTD/svg11.dtd" >
<svg xmlns="http://www.w3.org/2000/svg" xmlns:xlink="http://www.w3.org/1999/xlink" version="1.1" viewBox="0 0 256 256">
 <g >
 <path fill="currentColor"
d=" M 240.00 242.55 C 240.00 238.69 239.64 237.94 237.26 236.80 C 232.75 234.63 231.50 230.76 231.50 218.95 C 231.50 207.40 232.79 203.79 237.55 201.98 C 239.65 201.18 240.00 200.41 240.00 196.52 C 240.00 192.00 240.00 192.00 172.50 192.00 C 105.00 192.00 105.00 192.00 105.00 196.18 C 105.00 199.60 105.55 200.82 108.04 202.93 C 110.52 205.04 111.26 206.67 112.10 212.00 C 113.91 223.43 111.49 235.07 107.01 236.50 C 105.35 237.02 105.00 238.00 105.00 242.07 C 105.00 247.00 105.00 247.00 172.50 247.00 C 240.00 247.00 240.00 247.00 240.00 242.55 Z  M 95.00 231.54 C 95.00 228.10 94.54 226.82 93.01 226.01 C 87.82 223.23 87.95 225.62 88.23 134.44 C 88.50 49.84 88.50 49.84 91.75 46.93 C 94.39 44.57 95.00 43.28 95.00 40.01 C 95.00 36.00 95.00 36.00 51.00 36.00 C 7.00 36.00 7.00 36.00 7.01 40.25 C 7.01 43.90 7.43 44.74 9.94 46.16 C 11.87 47.27 13.22 49.12 13.92 51.66 C 15.40 56.99 15.40 216.01 13.92 221.34 C 13.22 223.88 11.87 225.73 9.94 226.84 C 7.52 228.21 7.01 229.15 7.01 232.25 C 7.00 236.00 7.00 236.00 51.00 236.00 C 95.00 236.00 95.00 236.00 95.00 231.54 Z  M 248.00 177.50 C 248.00 172.00 248.00 172.00 232.98 172.00 C 216.01 172.00 216.70 172.59 221.21 161.85 C 223.58 156.21 226.56 153.26 231.66 151.51 C 235.18 150.31 235.53 149.86 235.81 146.10 C 236.11 142.00 236.11 142.00 210.56 142.00 C 185.00 142.00 185.00 142.00 185.00 146.02 C 185.00 149.30 185.43 150.21 187.29 150.92 C 192.42 152.87 193.08 157.32 189.84 168.13 C 188.68 172.00 188.68 172.00 172.04 172.00 C 155.40 172.00 155.40 172.00 153.60 164.75 C 151.34 155.70 151.68 152.91 155.25 151.20 C 157.56 150.10 158.00 149.26 158.00 145.95 C 158.00 142.00 158.00 142.00 133.50 142.00 C 109.00 142.00 109.00 142.00 109.00 146.50 C 109.00 149.61 109.42 151.00 110.35 151.00 C 113.39 151.00 119.59 156.83 122.13 162.08 C 127.34 172.84 128.24 172.00 111.57 172.00 C 97.00 172.00 97.00 172.00 97.00 177.50 C 97.00 183.00 97.00 183.00 172.50 183.00 C 248.00 183.00 248.00 183.00 248.00 177.50 Z  M 238.00 129.57 C 238.00 126.14 237.58 125.00 236.16 124.55 C 235.15 124.23 233.23 122.81 231.91 121.40 C 229.69 119.04 229.50 118.04 229.50 108.67 C 229.50 96.95 230.84 92.68 235.11 90.79 C 237.64 89.67 238.00 88.99 238.00 85.26 C 238.00 81.00 238.00 81.00 172.50 81.00 C 107.00 81.00 107.00 81.00 107.00 85.43 C 107.00 88.92 107.41 89.99 108.91 90.47 C 109.96 90.80 111.34 91.70 111.98 92.47 C 113.76 94.62 115.03 105.76 114.33 113.00 C 113.78 118.67 113.27 119.91 110.35 122.68 C 107.62 125.28 107.00 126.62 107.00 129.93 C 107.00 134.00 107.00 134.00 172.50 134.00 C 238.00 134.00 238.00 134.00 238.00 129.57 Z  M 238.00 67.02 C 238.00 62.03 238.00 62.03 213.25 61.77 C 188.50 61.50 188.50 61.50 188.21 52.75 C 187.92 44.00 187.92 44.00 216.96 44.00 C 246.00 44.00 246.00 44.00 246.00 38.50 C 246.00 33.00 246.00 33.00 216.92 33.00 C 187.84 33.00 187.84 33.00 188.52 29.75 C 189.51 25.02 191.64 22.14 195.55 20.28 C 198.70 18.77 199.00 18.25 199.00 14.31 C 199.00 10.00 199.00 10.00 172.00 10.00 C 145.00 10.00 145.00 10.00 145.00 13.97 C 145.00 17.40 145.42 18.17 148.08 19.54 C 149.94 20.51 151.91 22.78 153.06 25.32 C 156.78 33.52 158.53 33.00 127.00 33.00 C 99.00 33.00 99.00 33.00 99.00 38.50 C 99.00 44.00 99.00 44.00 127.00 44.00 C 155.00 44.00 155.00 44.00 155.00 53.00 C 155.00 62.00 155.00 62.00 130.50 62.00 C 106.00 62.00 106.00 62.00 106.00 67.00 C 106.00 72.00 106.00 72.00 172.00 72.00 C 238.00 72.00 238.00 72.00 238.00 67.02 Z  M 144.00 219.50 C 144.00 203.00 144.00 203.00 171.50 203.00 C 199.00 203.00 199.00 203.00 199.00 219.50 C 199.00 236.00 199.00 236.00 171.50 236.00 C 144.00 236.00 144.00 236.00 144.00 219.50 Z  M 46.00 136.50 C 46.00 47.00 46.00 47.00 52.00 47.00 C 58.00 47.00 58.00 47.00 58.00 136.50 C 58.00 226.00 58.00 226.00 52.00 226.00 C 46.00 226.00 46.00 226.00 46.00 136.50 Z  M 146.00 107.50 C 146.00 92.00 146.00 92.00 172.00 92.00 C 198.00 92.00 198.00 92.00 198.00 107.50 C 198.00 123.00 198.00 123.00 172.00 123.00 C 146.00 123.00 146.00 123.00 146.00 107.50 Z "/>
</g>
</svg>