<?xml version="1.0" encoding="UTF-8" standalone="no"?>
<!DOCTYPE svg PUBLIC "-//W3C//DTD SVG 1.1//EN" "http://www.w3.org/Graphics/SVG/1.1/DTD/svg11.dtd" >
<svg xmlns="http://www.w3.org/2000/svg" xmlns:xlink="http://www.w3.org/1999/xlink" version="1.1" viewBox="0 0 256 256">
 <g >
 <path fill="currentColor"
d=" M 79.00 243.20 C 79.00 239.60 78.74 239.29 74.11 237.33 C 64.86 233.42 65.54 239.58 65.22 156.29 C 64.95 83.00 64.95 83.00 56.47 83.00 C 51.81 83.00 48.00 82.72 48.00 82.37 C 48.00 82.02 50.95 71.35 54.56 58.65 C 63.18 28.29 66.07 23.04 74.97 21.62 C 78.98 20.98 79.00 20.96 79.00 16.49 C 79.00 12.00 79.00 12.00 51.50 12.00 C 24.00 12.00 24.00 12.00 24.01 16.25 C 24.01 19.96 24.41 20.73 27.13 22.28 C 30.10 23.96 30.22 24.28 29.67 28.78 C 29.35 31.37 24.17 50.82 18.16 72.00 C 7.23 110.50 7.23 110.50 19.65 110.78 C 32.08 111.06 32.08 111.06 31.79 169.28 C 31.46 236.41 31.82 233.56 23.02 237.28 C 18.25 239.29 18.00 239.58 18.00 243.20 C 18.00 247.00 18.00 247.00 48.50 247.00 C 79.00 247.00 79.00 247.00 79.00 243.20 Z  M 239.06 234.00 C 241.69 227.12 243.54 221.22 243.17 220.89 C 242.80 220.55 241.04 219.78 239.24 219.19 C 236.08 218.13 235.93 218.21 233.99 222.02 C 230.90 228.08 226.32 232.71 221.70 234.46 C 218.05 235.84 211.78 236.01 174.00 235.77 C 130.50 235.50 130.50 235.50 130.50 179.50 C 130.50 123.50 130.50 123.50 159.75 123.23 C 189.00 122.97 189.00 122.97 189.00 157.48 C 189.00 192.00 189.00 192.00 175.71 192.00 C 158.91 192.00 155.30 190.55 150.11 181.75 C 146.62 175.83 144.85 174.92 141.54 177.35 C 139.78 178.63 139.92 179.26 144.52 190.85 C 149.35 203.00 149.35 203.00 190.18 203.00 C 231.00 203.00 231.00 203.00 231.00 198.69 C 231.00 195.03 230.53 194.03 227.91 192.09 C 222.41 188.03 222.00 185.64 222.00 158.00 C 222.00 130.24 222.51 127.32 227.95 124.23 C 230.73 122.65 230.99 122.05 230.99 117.25 C 231.00 112.00 231.00 112.00 158.50 112.00 C 86.00 112.00 86.00 112.00 86.01 116.75 C 86.02 121.32 86.17 121.56 89.93 123.14 C 97.55 126.34 97.46 125.76 97.82 175.50 C 97.99 199.70 97.83 221.97 97.46 225.00 C 96.90 229.67 96.21 231.06 92.90 234.21 C 89.48 237.46 89.00 238.48 89.00 242.47 C 89.00 247.01 89.00 247.01 161.63 246.76 C 234.26 246.50 234.26 246.50 239.06 234.00 Z  M 128.80 98.25 C 128.53 93.89 128.27 93.47 125.74 93.18 C 123.14 92.88 124.06 91.69 141.10 73.42 C 151.07 62.73 159.57 53.76 160.00 53.50 C 160.42 53.24 168.99 61.91 179.04 72.76 C 196.89 92.04 197.25 92.51 194.41 93.01 C 191.73 93.47 191.48 93.89 191.20 98.26 C 190.89 103.00 190.89 103.00 218.45 103.00 C 246.00 103.00 246.00 103.00 246.00 90.50 C 246.00 78.00 246.00 78.00 242.50 78.00 C 239.84 78.00 238.99 78.42 238.98 79.75 C 238.94 82.42 235.15 90.22 234.07 89.84 C 233.54 89.65 220.30 75.57 204.64 58.53 C 176.17 27.57 176.17 27.57 177.67 24.67 C 178.54 22.98 180.79 21.10 183.07 20.14 C 186.63 18.65 186.98 18.16 186.99 14.75 C 187.00 11.00 187.00 11.00 159.50 11.00 C 132.00 11.00 132.00 11.00 132.00 14.54 C 132.00 17.77 132.38 18.24 136.43 19.97 C 140.83 21.86 143.41 24.88 142.81 27.45 C 142.64 28.19 130.35 41.97 115.50 58.08 C 100.65 74.18 87.94 88.06 87.25 88.93 C 86.13 90.33 85.78 90.24 83.99 88.13 C 82.89 86.83 81.71 84.01 81.36 81.88 C 80.81 78.42 80.44 78.00 77.87 78.00 C 75.00 78.00 75.00 78.00 75.00 90.50 C 75.00 103.00 75.00 103.00 102.05 103.00 C 129.11 103.00 129.11 103.00 128.80 98.25 Z "/>
</g>
</svg>