<?xml version="1.0" encoding="UTF-8" standalone="no"?>
<!DOCTYPE svg PUBLIC "-//W3C//DTD SVG 1.1//EN" "http://www.w3.org/Graphics/SVG/1.1/DTD/svg11.dtd" >
<svg xmlns="http://www.w3.org/2000/svg" xmlns:xlink="http://www.w3.org/1999/xlink" version="1.1" viewBox="0 0 256 256">
 <g >
 <path fill="currentColor"
d=" M 78.00 243.58 C 78.00 240.60 77.62 240.07 75.04 239.51 C 73.10 239.08 71.29 237.59 69.79 235.18 C 67.50 231.50 67.50 231.50 67.23 149.28 C 66.96 67.06 66.96 67.06 79.73 66.78 C 92.50 66.50 92.50 66.50 92.80 61.25 C 93.10 56.00 93.10 56.00 80.05 56.00 C 67.00 56.00 67.00 56.00 67.00 40.45 C 67.00 22.67 67.79 19.93 73.49 17.87 C 76.54 16.77 77.00 16.16 77.00 13.30 C 77.00 10.00 77.00 10.00 51.50 10.00 C 26.00 10.00 26.00 10.00 26.00 13.31 C 26.00 16.13 26.54 16.89 29.56 18.32 C 35.02 20.93 36.00 24.45 36.00 41.47 C 36.00 56.00 36.00 56.00 23.00 56.00 C 10.00 56.00 10.00 56.00 10.00 61.50 C 10.00 67.00 10.00 67.00 23.03 67.00 C 36.06 67.00 36.06 67.00 35.78 148.25 C 35.47 239.17 35.78 235.23 28.56 238.68 C 25.54 240.11 25.00 240.87 25.00 243.69 C 25.00 247.00 25.00 247.00 51.50 247.00 C 78.00 247.00 78.00 247.00 78.00 243.58 Z  M 246.00 240.50 C 246.00 235.00 246.00 235.00 170.50 235.00 C 95.00 235.00 95.00 235.00 95.00 240.50 C 95.00 246.00 95.00 246.00 170.50 246.00 C 246.00 246.00 246.00 246.00 246.00 240.50 Z  M 240.00 221.07 C 240.00 218.03 239.55 216.99 238.03 216.51 C 236.94 216.16 235.14 214.72 234.03 213.31 C 232.12 210.88 232.00 209.32 232.00 187.09 C 232.00 161.49 232.29 159.98 237.60 157.96 C 239.65 157.18 240.00 156.38 240.00 152.52 C 240.00 148.00 240.00 148.00 171.00 148.00 C 102.00 148.00 102.00 148.00 102.00 152.89 C 102.00 157.31 102.25 157.85 104.57 158.43 C 109.48 159.66 110.17 163.69 109.82 188.98 C 109.48 213.22 109.28 214.18 104.29 216.08 C 102.43 216.79 102.00 217.70 102.00 220.98 C 102.00 225.00 102.00 225.00 171.00 225.00 C 240.00 225.00 240.00 225.00 240.00 221.07 Z  M 34.00 218.16 C 34.00 216.11 33.31 215.01 31.53 214.19 C 30.17 213.57 28.75 211.87 28.38 210.40 C 27.75 207.87 30.32 114.09 31.63 92.25 C 32.24 82.00 32.24 82.00 23.73 82.00 C 15.23 82.00 15.23 82.00 14.60 98.75 C 14.26 107.96 13.52 135.75 12.97 160.50 C 12.41 185.25 11.72 206.94 11.44 208.71 C 11.16 210.47 9.82 212.79 8.46 213.85 C 6.97 215.02 6.00 216.82 6.00 218.39 C 6.00 221.00 6.00 221.00 20.00 221.00 C 34.00 221.00 34.00 221.00 34.00 218.16 Z  M 97.00 218.10 C 97.00 215.77 96.40 214.99 94.00 214.15 C 92.18 213.52 90.99 212.39 90.98 211.30 C 90.96 210.31 90.30 185.43 89.50 156.00 C 88.70 126.58 88.04 97.89 88.02 92.25 C 88.00 82.00 88.00 82.00 79.50 82.00 C 71.00 82.00 71.00 82.00 71.01 87.75 C 71.02 90.91 71.90 119.07 72.97 150.33 C 74.04 181.59 74.65 208.49 74.33 210.12 C 74.00 211.74 72.90 213.52 71.87 214.07 C 70.69 214.70 70.00 216.16 70.00 218.04 C 70.00 221.00 70.00 221.00 83.50 221.00 C 97.00 221.00 97.00 221.00 97.00 218.10 Z  M 243.00 134.00 C 243.00 131.80 242.55 130.00 242.00 130.00 C 241.45 130.00 240.10 129.10 239.00 128.00 C 237.09 126.09 237.00 124.67 237.00 97.00 C 237.00 69.33 237.09 67.91 239.00 66.00 C 240.10 64.90 241.45 64.00 242.00 64.00 C 242.55 64.00 243.00 61.98 243.00 59.50 C 243.00 55.00 243.00 55.00 171.00 55.00 C 99.00 55.00 99.00 55.00 99.00 59.43 C 99.00 62.92 99.41 63.99 100.92 64.47 C 104.40 65.58 105.00 70.31 104.99 96.40 C 104.99 122.72 104.29 128.46 100.97 129.51 C 99.45 129.99 99.00 131.03 99.00 134.07 C 99.00 138.00 99.00 138.00 171.00 138.00 C 243.00 138.00 243.00 138.00 243.00 134.00 Z  M 245.00 40.50 C 245.00 35.00 245.00 35.00 215.91 35.00 C 186.82 35.00 186.82 35.00 187.51 30.75 C 188.63 23.84 190.12 21.64 194.76 20.03 C 198.74 18.65 199.00 18.33 199.00 14.78 C 199.00 11.00 199.00 11.00 170.44 11.00 C 141.88 11.00 141.88 11.00 142.19 14.67 C 142.47 18.02 142.88 18.47 146.77 19.76 C 151.77 21.42 154.00 24.87 154.00 30.95 C 154.00 35.00 154.00 35.00 125.50 35.00 C 97.00 35.00 97.00 35.00 97.00 40.50 C 97.00 46.00 97.00 46.00 171.00 46.00 C 245.00 46.00 245.00 46.00 245.00 40.50 Z  M 142.00 203.50 C 142.00 192.00 142.00 192.00 170.50 192.00 C 199.00 192.00 199.00 192.00 199.00 203.50 C 199.00 215.00 199.00 215.00 170.50 215.00 C 142.00 215.00 142.00 215.00 142.00 203.50 Z  M 142.22 170.75 C 142.50 159.50 142.50 159.50 170.75 159.23 C 199.00 158.97 199.00 158.97 199.00 170.48 C 199.00 182.00 199.00 182.00 170.47 182.00 C 141.93 182.00 141.93 182.00 142.22 170.75 Z  M 132.00 97.00 C 132.00 66.00 132.00 66.00 170.50 66.00 C 209.00 66.00 209.00 66.00 209.00 97.00 C 209.00 128.00 209.00 128.00 170.50 128.00 C 132.00 128.00 132.00 128.00 132.00 97.00 Z  M 204.00 116.00 C 204.00 113.80 203.58 112.00 203.07 112.00 C 202.56 112.00 201.44 111.29 200.57 110.43 C 199.33 109.18 199.00 106.48 199.00 97.36 C 199.00 85.75 199.86 82.00 202.54 82.00 C 203.58 82.00 204.00 80.85 204.00 78.00 C 204.00 74.00 204.00 74.00 170.50 74.00 C 137.00 74.00 137.00 74.00 137.00 77.52 C 137.00 80.31 137.52 81.28 139.50 82.18 C 141.99 83.32 142.00 83.38 142.00 97.00 C 142.00 110.62 141.99 110.68 139.50 111.82 C 137.52 112.72 137.00 113.69 137.00 116.48 C 137.00 120.00 137.00 120.00 170.50 120.00 C 204.00 120.00 204.00 120.00 204.00 116.00 Z  M 166.00 97.00 C 166.00 85.00 166.00 85.00 170.00 85.00 C 174.00 85.00 174.00 85.00 174.00 97.00 C 174.00 109.00 174.00 109.00 170.00 109.00 C 166.00 109.00 166.00 109.00 166.00 97.00 Z "/>
</g>
</svg>