<?xml version="1.0" encoding="UTF-8" standalone="no"?>
<!DOCTYPE svg PUBLIC "-//W3C//DTD SVG 1.1//EN" "http://www.w3.org/Graphics/SVG/1.1/DTD/svg11.dtd" >
<svg xmlns="http://www.w3.org/2000/svg" xmlns:xlink="http://www.w3.org/1999/xlink" version="1.1" viewBox="0 0 256 256">
 <g >
 <path fill="currentColor"
d=" M 56.00 242.75 C 56.00 239.12 55.51 238.11 52.63 235.81 C 50.77 234.33 49.00 231.85 48.69 230.31 C 48.25 228.10 55.14 173.32 57.45 160.75 C 57.95 158.00 57.95 158.00 43.05 158.00 C 28.16 158.00 28.16 158.00 27.60 160.75 C 27.29 162.26 24.80 177.80 22.06 195.27 C 19.31 212.75 16.33 228.61 15.43 230.51 C 14.53 232.41 12.26 234.91 10.39 236.07 C 7.36 237.94 7.00 238.64 7.00 242.58 C 7.00 247.00 7.00 247.00 31.50 247.00 C 56.00 247.00 56.00 247.00 56.00 242.75 Z  M 114.81 243.33 C 115.06 240.73 114.63 239.93 112.40 238.83 C 110.90 238.10 108.74 236.23 107.59 234.68 C 105.52 231.88 105.50 231.14 105.23 157.43 C 104.95 83.00 104.95 83.00 100.98 83.00 C 98.03 83.00 97.00 82.59 97.00 81.43 C 97.00 80.56 98.82 68.97 101.04 55.68 C 105.52 28.80 107.17 24.00 113.25 20.08 C 116.35 18.08 117.00 17.09 117.00 14.33 C 117.00 11.00 117.00 11.00 91.00 11.00 C 65.00 11.00 65.00 11.00 65.00 14.75 C 65.00 17.84 65.62 18.99 68.50 21.29 C 71.58 23.75 72.00 24.63 72.00 28.65 C 72.00 31.16 68.85 51.18 65.00 73.14 C 61.15 95.10 58.00 113.25 58.00 113.49 C 58.00 113.72 61.04 114.04 64.75 114.20 C 71.50 114.50 71.50 114.50 71.50 172.00 C 71.50 235.91 71.51 235.84 65.40 238.75 C 62.54 240.11 62.00 240.90 62.00 243.70 C 62.00 247.03 62.00 247.03 88.25 246.77 C 114.50 246.50 114.50 246.50 114.81 243.33 Z  M 220.00 243.08 C 220.00 239.48 219.71 239.06 216.49 238.00 C 214.56 237.36 212.43 235.86 211.74 234.67 C 210.83 233.08 210.42 222.81 210.19 196.25 C 209.89 160.00 209.89 160.00 228.94 160.00 C 248.00 160.00 248.00 160.00 248.00 155.00 C 248.00 150.00 248.00 150.00 228.87 150.00 C 209.74 150.00 209.74 150.00 210.40 145.87 C 211.33 140.07 212.66 138.04 216.58 136.40 C 219.67 135.11 220.00 134.58 220.00 130.97 C 220.00 126.97 220.00 126.97 194.75 127.23 C 169.50 127.50 169.50 127.50 169.19 131.21 C 168.91 134.63 169.16 135.04 172.45 136.41 C 176.34 138.04 178.00 141.07 178.00 146.54 C 178.00 149.96 178.00 149.96 158.75 150.23 C 139.50 150.50 139.50 150.50 139.20 155.25 C 138.89 160.00 138.89 160.00 158.45 160.00 C 178.00 160.00 178.00 160.00 178.00 198.00 C 178.00 236.00 178.00 236.00 175.25 235.98 C 170.45 235.94 164.48 232.52 161.98 228.37 C 160.70 226.24 159.55 224.36 159.43 224.19 C 159.02 223.61 152.00 226.90 152.00 227.68 C 152.00 228.11 153.65 232.63 155.67 237.73 C 159.34 247.00 159.34 247.00 189.67 247.00 C 220.00 247.00 220.00 247.00 220.00 243.08 Z  M 249.00 226.51 C 249.00 223.49 248.55 222.84 245.58 221.60 C 241.30 219.81 240.00 217.43 239.99 211.32 C 239.99 208.67 239.09 197.05 238.00 185.50 C 236.91 173.95 236.01 164.39 236.01 164.25 C 236.00 164.11 231.45 164.00 225.89 164.00 C 215.77 164.00 215.77 164.00 216.34 168.25 C 217.62 177.76 219.26 212.81 218.59 216.36 C 218.08 219.11 217.07 220.62 214.95 221.83 C 212.65 223.14 212.01 224.20 212.01 226.75 C 212.00 230.00 212.00 230.00 230.50 230.00 C 249.00 230.00 249.00 230.00 249.00 226.51 Z  M 139.00 219.18 C 139.00 216.40 138.35 214.80 136.60 213.28 C 134.47 211.42 134.13 210.06 133.51 200.85 C 133.13 195.16 132.98 161.99 133.16 127.15 C 133.50 63.81 133.50 63.81 136.25 61.62 C 138.22 60.04 139.00 58.52 139.00 56.21 C 139.00 53.00 139.00 53.00 124.00 53.00 C 109.00 53.00 109.00 53.00 109.00 56.19 C 109.00 58.11 109.89 60.32 111.25 61.77 C 113.50 64.16 113.50 64.16 113.80 137.58 C 114.10 211.01 114.10 211.01 111.55 213.37 C 109.72 215.06 109.00 216.75 109.00 219.36 C 109.00 223.00 109.00 223.00 124.00 223.00 C 139.00 223.00 139.00 223.00 139.00 219.18 Z  M 175.00 217.98 C 175.00 214.65 174.57 213.76 172.48 212.81 C 171.09 212.17 169.67 210.54 169.33 209.17 C 168.98 207.80 169.45 197.86 170.37 187.09 C 171.29 176.32 172.03 166.71 172.02 165.75 C 172.00 164.20 170.83 164.00 161.69 164.00 C 151.38 164.00 151.38 164.00 149.67 184.25 C 148.73 195.39 147.97 205.81 147.98 207.42 C 148.00 210.81 145.51 214.00 142.85 214.00 C 141.36 214.00 141.00 214.78 141.00 218.00 C 141.00 222.00 141.00 222.00 158.00 222.00 C 175.00 222.00 175.00 222.00 175.00 217.98 Z  M 54.46 128.25 C 52.66 120.69 50.71 111.96 50.14 108.85 C 48.77 101.36 50.08 96.53 54.05 94.48 C 56.65 93.13 57.00 92.42 57.00 88.47 C 57.00 84.00 57.00 84.00 32.00 84.00 C 7.00 84.00 7.00 84.00 7.00 89.00 C 7.00 93.12 7.31 94.00 8.78 94.00 C 11.59 94.00 14.86 96.80 17.04 101.08 C 18.15 103.25 20.87 112.78 23.10 122.26 C 25.33 131.74 27.33 140.06 27.54 140.75 C 27.84 141.68 31.80 142.00 42.84 142.00 C 57.75 142.00 57.75 142.00 54.46 128.25 Z  M 191.00 117.00 C 191.00 113.55 190.70 113.00 188.81 113.00 C 186.87 113.00 187.00 112.71 190.00 110.50 C 194.11 107.47 194.06 107.47 197.50 110.18 C 200.22 112.32 200.23 112.37 198.13 113.15 C 196.51 113.75 196.00 114.77 196.00 117.47 C 196.00 121.00 196.00 121.00 222.50 121.00 C 249.00 121.00 249.00 121.00 249.00 106.94 C 249.00 92.87 249.00 92.87 245.82 93.19 C 242.86 93.48 242.56 93.87 241.44 98.85 C 240.78 101.80 239.35 105.09 238.26 106.18 C 236.30 108.15 236.24 108.13 225.39 100.44 C 219.40 96.20 214.41 92.66 214.30 92.58 C 214.19 92.50 219.47 88.23 226.05 83.09 C 238.00 73.74 238.00 73.74 238.00 52.37 C 238.00 31.00 238.00 31.00 210.00 31.00 C 194.60 31.00 182.00 30.65 182.00 30.23 C 182.00 28.22 187.16 22.23 190.39 20.49 C 193.56 18.78 194.00 18.08 194.00 14.77 C 194.00 11.00 194.00 11.00 169.50 11.00 C 145.00 11.00 145.00 11.00 145.00 14.56 C 145.00 17.30 145.70 18.72 148.00 20.65 C 151.90 23.93 151.83 26.16 147.50 38.29 C 145.57 43.68 144.00 48.75 144.00 49.57 C 144.00 50.83 146.30 51.01 159.22 50.78 C 174.44 50.50 174.44 50.50 175.78 45.75 C 177.12 41.00 177.12 41.00 190.56 41.00 C 204.00 41.00 204.00 41.00 204.00 54.91 C 204.00 68.81 204.00 68.81 198.90 72.48 C 196.10 74.49 193.17 75.90 192.40 75.60 C 191.63 75.30 188.99 73.59 186.54 71.78 C 182.08 68.50 182.08 68.50 182.04 61.75 C 182.00 55.00 182.00 55.00 165.46 55.00 C 148.92 55.00 148.92 55.00 149.21 64.25 C 149.50 73.50 149.50 73.50 160.32 82.12 C 166.26 86.85 171.58 91.18 172.13 91.73 C 172.79 92.39 169.99 95.01 163.81 99.51 C 158.69 103.24 154.35 106.68 154.17 107.15 C 153.52 108.80 151.21 107.97 149.61 105.53 C 148.72 104.17 147.50 100.77 146.90 97.97 C 145.85 93.06 145.70 92.90 142.66 93.19 C 139.50 93.50 139.50 93.50 139.22 107.25 C 138.94 121.00 138.94 121.00 164.97 121.00 C 191.00 121.00 191.00 121.00 191.00 117.00 Z  M 56.28 68.25 C 56.50 67.84 54.98 59.62 52.90 50.00 C 48.24 28.41 48.12 25.72 51.65 22.45 C 53.10 21.10 54.68 20.00 55.15 20.00 C 55.62 20.00 56.00 17.98 56.00 15.50 C 56.00 11.00 56.00 11.00 31.50 11.00 C 7.00 11.00 7.00 11.00 7.00 15.31 C 7.00 19.36 7.23 19.72 10.95 21.36 C 13.12 22.32 15.78 24.54 16.86 26.30 C 17.97 28.11 20.38 37.10 22.41 47.00 C 24.39 56.62 26.24 65.51 26.52 66.75 C 27.03 68.96 27.32 69.00 41.46 69.00 C 49.39 69.00 56.06 68.66 56.28 68.25 Z "/>
</g>
</svg>