<?xml version="1.0" encoding="UTF-8" standalone="no"?>
<!DOCTYPE svg PUBLIC "-//W3C//DTD SVG 1.1//EN" "http://www.w3.org/Graphics/SVG/1.1/DTD/svg11.dtd" >
<svg xmlns="http://www.w3.org/2000/svg" xmlns:xlink="http://www.w3.org/1999/xlink" version="1.1" viewBox="0 0 256 256">
 <g >
 <path fill="currentColor"
d=" M 114.81 241.78 C 115.08 238.55 114.80 237.99 112.65 237.45 C 111.30 237.11 109.13 235.71 107.84 234.34 C 105.50 231.84 105.50 231.84 105.23 148.43 C 104.94 55.53 104.68 59.28 111.46 56.45 C 114.67 55.11 115.00 54.61 115.00 50.99 C 115.00 47.00 115.00 47.00 94.50 47.00 C 74.00 47.00 74.00 47.00 74.00 37.55 C 74.00 32.35 74.51 26.97 75.14 25.60 C 76.19 23.29 81.34 20.00 83.90 20.00 C 84.54 20.00 85.00 18.10 85.00 15.50 C 85.00 11.00 85.00 11.00 57.50 11.00 C 30.00 11.00 30.00 11.00 30.04 15.25 C 30.07 19.25 30.32 19.62 34.29 21.50 C 39.55 24.00 40.87 27.41 40.94 38.75 C 41.00 47.00 41.00 47.00 24.50 47.00 C 8.00 47.00 8.00 47.00 8.02 51.25 C 8.04 55.05 8.38 55.66 11.27 57.00 C 13.44 58.01 14.89 59.65 15.69 62.00 C 17.29 66.67 17.51 225.62 15.94 231.29 C 15.15 234.14 14.02 235.50 11.44 236.73 C 8.41 238.18 8.00 238.82 8.00 242.19 C 8.00 246.02 8.00 246.02 61.25 245.76 C 114.50 245.50 114.50 245.50 114.81 241.78 Z  M 244.00 241.48 C 244.00 237.60 243.65 236.82 241.56 236.02 C 237.57 234.51 237.01 229.89 237.01 198.50 C 237.01 167.23 237.57 162.61 241.56 160.79 C 243.66 159.84 244.00 159.00 244.00 154.84 C 244.00 150.00 244.00 150.00 182.00 150.00 C 120.00 150.00 120.00 150.00 120.00 154.83 C 120.00 158.90 120.38 159.86 122.39 160.94 C 126.74 163.27 127.00 165.39 127.00 198.10 C 127.00 231.17 126.62 234.03 122.01 235.50 C 120.35 236.02 120.00 237.00 120.00 241.07 C 120.00 246.00 120.00 246.00 182.00 246.00 C 244.00 246.00 244.00 246.00 244.00 241.48 Z  M 248.00 125.00 C 248.00 120.00 248.00 120.00 223.00 120.00 C 198.00 120.00 198.00 120.00 198.00 95.50 C 198.00 71.00 198.00 71.00 220.50 71.00 C 243.00 71.00 243.00 71.00 243.00 65.52 C 243.00 60.04 243.00 60.04 220.75 59.77 C 198.50 59.50 198.50 59.50 198.51 45.00 C 198.52 27.24 199.83 23.42 206.75 21.03 C 210.86 19.61 211.00 19.42 211.00 15.28 C 211.00 11.00 211.00 11.00 182.00 11.00 C 153.00 11.00 153.00 11.00 153.00 14.89 C 153.00 18.54 153.30 18.94 157.75 21.14 C 164.12 24.30 164.87 26.83 164.94 45.25 C 165.00 60.00 165.00 60.00 155.50 60.00 C 146.00 60.00 146.00 60.00 146.00 56.90 C 146.00 50.92 149.12 42.64 152.64 39.32 C 155.23 36.86 156.00 35.32 156.00 32.57 C 156.00 29.00 156.00 29.00 137.00 29.00 C 118.00 29.00 118.00 29.00 118.00 32.78 C 118.00 35.32 118.66 37.12 120.00 38.27 C 121.10 39.21 122.00 40.77 122.00 41.74 C 121.99 42.71 120.20 54.52 118.01 68.00 C 115.82 81.47 114.02 93.06 114.01 93.75 C 114.00 94.69 117.23 95.00 126.84 95.00 C 139.68 95.00 139.68 95.00 141.46 83.00 C 143.23 71.00 143.23 71.00 154.12 71.00 C 165.00 71.00 165.00 71.00 165.00 95.50 C 165.00 120.00 165.00 120.00 140.50 120.00 C 116.00 120.00 116.00 120.00 116.00 125.00 C 116.00 130.00 116.00 130.00 182.00 130.00 C 248.00 130.00 248.00 130.00 248.00 125.00 Z  M 50.00 194.00 C 50.00 152.00 50.00 152.00 61.00 152.00 C 72.00 152.00 72.00 152.00 72.00 194.00 C 72.00 236.00 72.00 236.00 61.00 236.00 C 50.00 236.00 50.00 236.00 50.00 194.00 Z  M 50.00 99.50 C 50.00 58.00 50.00 58.00 61.00 58.00 C 72.00 58.00 72.00 58.00 72.00 99.50 C 72.00 141.00 72.00 141.00 61.00 141.00 C 50.00 141.00 50.00 141.00 50.00 99.50 Z  M 160.24 198.25 C 160.50 161.50 160.50 161.50 182.25 161.23 C 204.00 160.96 204.00 160.96 204.00 197.98 C 204.00 235.00 204.00 235.00 181.99 235.00 C 159.98 235.00 159.98 235.00 160.24 198.25 Z "/>
</g>
</svg>