<?xml version="1.0" encoding="UTF-8" standalone="no"?>
<!DOCTYPE svg PUBLIC "-//W3C//DTD SVG 1.1//EN" "http://www.w3.org/Graphics/SVG/1.1/DTD/svg11.dtd" >
<svg xmlns="http://www.w3.org/2000/svg" xmlns:xlink="http://www.w3.org/1999/xlink" version="1.1" viewBox="0 0 256 256">
 <g >
 <path fill="currentColor"
d=" M 111.00 242.62 C 111.00 238.72 110.68 238.11 108.06 237.03 C 106.26 236.28 104.72 234.63 104.06 232.76 C 103.34 230.68 103.00 198.76 103.00 132.80 C 103.00 27.65 102.78 31.79 108.43 29.22 C 110.64 28.21 111.00 27.41 111.00 23.52 C 111.00 19.00 111.00 19.00 59.50 19.00 C 8.00 19.00 8.00 19.00 8.00 24.00 C 8.00 28.31 8.27 29.00 9.98 29.00 C 11.06 29.00 12.75 30.22 13.73 31.71 C 15.39 34.25 15.50 40.34 15.50 133.79 C 15.50 233.17 15.50 233.17 12.69 235.59 C 11.15 236.91 9.24 238.00 8.44 238.00 C 7.43 238.00 7.00 239.18 7.00 242.00 C 7.00 246.00 7.00 246.00 28.00 246.00 C 49.00 246.00 49.00 246.00 49.00 207.00 C 49.00 168.00 49.00 168.00 59.50 168.00 C 70.00 168.00 70.00 168.00 70.00 202.00 C 70.00 230.60 69.78 236.00 68.59 236.00 C 66.52 236.00 62.45 230.75 60.44 225.49 C 59.23 222.32 58.25 221.07 57.26 221.45 C 56.48 221.75 55.31 222.01 54.67 222.02 C 51.10 222.06 51.01 223.55 54.01 234.05 C 55.65 239.80 57.20 245.06 57.46 245.75 C 57.83 246.71 64.16 247.00 84.47 247.00 C 111.00 247.00 111.00 247.00 111.00 242.62 Z  M 246.00 240.50 C 246.00 235.00 246.00 235.00 220.50 235.00 C 195.00 235.00 195.00 235.00 195.00 193.50 C 195.00 152.00 195.00 152.00 218.50 152.00 C 242.00 152.00 242.00 152.00 242.00 146.50 C 242.00 141.00 242.00 141.00 179.00 141.00 C 116.00 141.00 116.00 141.00 116.00 146.50 C 116.00 152.00 116.00 152.00 139.00 152.00 C 162.00 152.00 162.00 152.00 162.00 193.50 C 162.00 235.00 162.00 235.00 138.00 235.00 C 114.00 235.00 114.00 235.00 114.00 240.50 C 114.00 246.00 114.00 246.00 180.00 246.00 C 246.00 246.00 246.00 246.00 246.00 240.50 Z  M 168.00 127.06 C 168.00 122.11 168.00 122.11 164.04 121.81 C 160.08 121.50 160.08 121.50 172.29 105.81 C 179.00 97.18 184.76 90.10 185.09 90.06 C 185.41 90.03 189.05 97.09 193.17 105.75 C 200.67 121.50 200.67 121.50 196.59 122.00 C 192.50 122.50 192.50 122.50 192.20 127.25 C 191.89 132.00 191.89 132.00 219.45 132.00 C 247.00 132.00 247.00 132.00 247.00 118.00 C 247.00 104.00 247.00 104.00 244.00 104.00 C 241.56 104.00 241.00 104.42 240.98 106.25 C 240.95 109.16 237.78 116.12 235.70 117.83 C 234.27 119.02 232.59 116.16 220.17 91.33 C 206.26 63.50 206.26 63.50 219.13 47.17 C 232.00 30.84 232.00 30.84 232.00 23.92 C 232.00 17.00 232.00 17.00 177.50 17.00 C 123.00 17.00 123.00 17.00 123.00 22.49 C 123.00 27.98 123.00 27.98 160.33 28.24 C 197.66 28.50 197.66 28.50 161.43 73.50 C 141.50 98.25 124.64 118.50 123.96 118.50 C 121.89 118.50 119.03 113.76 118.22 109.00 C 117.51 104.85 117.21 104.48 114.23 104.19 C 111.00 103.87 111.00 103.87 111.00 117.94 C 111.00 132.00 111.00 132.00 139.50 132.00 C 168.00 132.00 168.00 132.00 168.00 127.06 Z  M 49.00 125.97 C 49.00 94.93 49.00 94.93 59.25 95.22 C 69.50 95.50 69.50 95.50 69.76 126.25 C 70.03 157.00 70.03 157.00 59.51 157.00 C 49.00 157.00 49.00 157.00 49.00 125.97 Z  M 49.00 58.03 C 49.00 30.00 49.00 30.00 59.52 30.00 C 70.03 30.00 70.03 30.00 69.77 57.75 C 69.50 85.50 69.50 85.50 59.25 85.78 C 49.00 86.07 49.00 86.07 49.00 58.03 Z "/>
</g>
</svg>