<?xml version="1.0" encoding="UTF-8" standalone="no"?>
<!DOCTYPE svg PUBLIC "-//W3C//DTD SVG 1.1//EN" "http://www.w3.org/Graphics/SVG/1.1/DTD/svg11.dtd" >
<svg xmlns="http://www.w3.org/2000/svg" xmlns:xlink="http://www.w3.org/1999/xlink" version="1.1" viewBox="0 0 256 256">
 <g >
 <path fill="currentColor"
d=" M 152.00 240.00 C 152.00 231.00 152.00 231.00 200.50 231.00 C 249.00 231.00 249.00 231.00 249.00 219.00 C 249.00 207.00 249.00 207.00 200.50 207.00 C 152.00 207.00 152.00 207.00 152.00 199.50 C 152.00 192.00 152.00 192.00 179.75 191.98 C 207.50 191.97 207.50 191.97 222.75 176.07 C 238.00 160.16 238.00 160.16 238.00 123.58 C 238.00 87.00 238.00 87.00 158.22 87.00 C 78.44 87.00 78.44 87.00 72.47 97.98 C 66.50 108.95 66.50 108.95 66.22 97.98 C 65.93 87.00 65.93 87.00 41.47 87.00 C 17.00 87.00 17.00 87.00 17.00 139.50 C 17.00 192.00 17.00 192.00 60.50 192.00 C 104.00 192.00 104.00 192.00 104.00 199.50 C 104.00 207.00 104.00 207.00 55.00 207.00 C 6.00 207.00 6.00 207.00 6.00 219.00 C 6.00 231.00 6.00 231.00 55.00 231.00 C 104.00 231.00 104.00 231.00 104.00 240.00 C 104.00 249.00 104.00 249.00 128.00 249.00 C 152.00 249.00 152.00 249.00 152.00 240.00 Z  M 107.72 61.72 C 124.00 45.43 124.00 45.43 124.00 28.22 C 124.00 11.00 124.00 11.00 99.25 11.00 C 74.50 11.00 74.50 11.00 68.50 22.25 C 62.50 33.50 62.50 33.50 62.22 22.25 C 61.93 11.00 61.93 11.00 37.47 11.00 C 13.00 11.00 13.00 11.00 13.00 44.50 C 13.00 78.00 13.00 78.00 52.22 78.00 C 91.43 78.00 91.43 78.00 107.72 61.72 Z  M 226.41 61.80 C 242.00 45.60 242.00 45.60 242.00 28.28 C 242.00 10.96 242.00 10.96 217.88 11.23 C 193.76 11.50 193.76 11.50 187.13 23.00 C 180.50 34.50 180.50 34.50 180.22 22.75 C 179.94 11.00 179.94 11.00 155.47 11.00 C 131.00 11.00 131.00 11.00 131.00 43.83 C 131.00 61.89 131.30 76.97 131.67 77.33 C 132.03 77.70 150.00 78.00 171.58 78.00 C 210.83 78.00 210.83 78.00 226.41 61.80 Z  M 66.00 157.98 C 66.00 148.96 66.00 148.96 84.75 149.23 C 103.50 149.50 103.50 149.50 103.79 158.25 C 104.08 167.00 104.08 167.00 85.04 167.00 C 66.00 167.00 66.00 167.00 66.00 157.98 Z  M 152.21 158.25 C 152.50 149.50 152.50 149.50 170.75 149.23 C 189.00 148.95 189.00 148.95 189.00 157.98 C 189.00 167.00 189.00 167.00 170.46 167.00 C 151.92 167.00 151.92 167.00 152.21 158.25 Z  M 66.00 119.48 C 66.00 110.96 66.00 110.96 84.75 111.23 C 103.50 111.50 103.50 111.50 103.79 119.75 C 104.08 128.00 104.08 128.00 85.04 128.00 C 66.00 128.00 66.00 128.00 66.00 119.48 Z  M 152.21 119.75 C 152.50 111.50 152.50 111.50 170.75 111.23 C 189.00 110.95 189.00 110.95 189.00 119.48 C 189.00 128.00 189.00 128.00 170.46 128.00 C 151.92 128.00 151.92 128.00 152.21 119.75 Z  M 62.00 44.55 C 62.00 35.00 62.00 35.00 68.54 35.00 C 75.08 35.00 75.08 35.00 74.79 44.25 C 74.50 53.50 74.50 53.50 68.25 53.80 C 62.00 54.10 62.00 54.10 62.00 44.55 Z  M 180.67 53.33 C 180.30 52.97 180.00 48.69 180.00 43.83 C 180.00 35.00 180.00 35.00 187.00 35.00 C 194.00 35.00 194.00 35.00 194.00 44.50 C 194.00 54.00 194.00 54.00 187.67 54.00 C 184.18 54.00 181.03 53.70 180.67 53.33 Z "/>
</g>
</svg>