<?xml version="1.0" encoding="UTF-8" standalone="no"?>
<!DOCTYPE svg PUBLIC "-//W3C//DTD SVG 1.1//EN" "http://www.w3.org/Graphics/SVG/1.1/DTD/svg11.dtd" >
<svg xmlns="http://www.w3.org/2000/svg" xmlns:xlink="http://www.w3.org/1999/xlink" version="1.1" viewBox="0 0 256 256">
 <g >
 <path fill="currentColor"
d=" M 53.00 239.00 C 55.76 233.50 58.35 229.01 58.76 229.01 C 59.17 229.02 62.22 233.41 65.53 238.76 C 71.57 248.50 71.57 248.50 88.64 248.77 C 105.71 249.05 105.71 249.05 107.86 238.27 C 110.50 224.98 110.50 225.00 107.75 224.98 C 105.94 224.97 103.42 221.69 94.77 208.12 C 88.87 198.85 83.81 190.65 83.52 189.89 C 83.24 189.12 88.41 179.28 95.00 168.01 C 107.00 147.51 107.00 147.51 107.00 104.37 C 107.00 62.07 107.04 61.22 109.00 60.71 C 110.85 60.23 111.00 59.35 111.00 48.59 C 111.00 37.67 110.88 37.00 109.00 37.00 C 107.09 37.00 107.00 36.33 107.00 22.50 C 107.00 8.00 107.00 8.00 85.00 8.00 C 63.00 8.00 63.00 8.00 63.00 22.50 C 63.00 37.00 63.00 37.00 58.00 37.00 C 53.00 37.00 53.00 37.00 53.00 22.50 C 53.00 8.00 53.00 8.00 32.00 8.00 C 11.00 8.00 11.00 8.00 11.00 22.50 C 11.00 36.33 10.91 37.00 9.00 37.00 C 7.11 37.00 7.00 37.67 7.00 49.00 C 7.00 60.33 7.11 61.00 9.00 61.00 C 10.97 61.00 11.00 61.67 11.01 104.75 C 11.02 148.50 11.02 148.50 22.45 167.77 C 33.89 187.05 33.89 187.05 23.06 205.77 C 13.77 221.84 11.86 224.54 9.62 224.82 C 8.18 224.99 7.00 225.24 7.00 225.36 C 7.00 225.62 10.71 243.15 11.53 246.75 C 12.03 248.98 12.19 249.00 30.01 249.00 C 47.98 249.00 47.98 249.00 53.00 239.00 Z  M 158.74 235.76 C 172.00 222.53 172.00 222.53 172.00 186.26 C 172.00 150.00 172.00 150.00 148.01 150.00 C 124.02 150.00 124.02 150.00 123.76 187.25 C 123.50 224.50 123.50 224.50 119.25 224.81 C 116.91 224.98 115.00 225.41 115.00 225.76 C 115.00 226.12 116.67 231.49 118.72 237.70 C 122.43 249.00 122.43 249.00 133.95 249.00 C 145.47 249.00 145.47 249.00 158.74 235.76 Z  M 239.00 199.50 C 239.00 150.00 239.00 150.00 214.50 150.00 C 190.00 150.00 190.00 150.00 190.00 199.50 C 190.00 249.00 190.00 249.00 214.50 249.00 C 239.00 249.00 239.00 249.00 239.00 199.50 Z  M 170.77 117.25 C 174.22 104.74 177.51 92.81 178.07 90.75 C 178.98 87.41 179.44 87.00 182.30 87.00 C 185.50 87.01 185.50 87.01 191.42 110.25 C 194.68 123.04 197.74 134.97 198.23 136.77 C 199.10 140.04 199.10 140.04 220.68 139.77 C 242.26 139.50 242.26 139.50 245.63 128.01 C 247.48 121.68 249.00 116.40 249.00 116.26 C 249.00 116.12 246.99 116.00 244.53 116.00 C 239.47 116.00 240.45 117.95 234.62 96.25 C 232.14 87.00 232.14 87.00 240.07 87.00 C 248.00 87.00 248.00 87.00 248.00 75.00 C 248.00 63.00 248.00 63.00 217.38 63.00 C 182.33 63.00 185.57 64.76 190.55 48.43 C 193.12 40.00 193.12 40.00 215.48 40.00 C 237.84 40.00 237.84 40.00 238.85 36.75 C 239.41 34.96 241.30 28.32 243.06 22.00 C 244.82 15.68 246.47 9.94 246.74 9.25 C 247.11 8.27 241.88 8.00 222.62 8.00 C 198.03 8.00 198.03 8.00 196.56 11.50 C 195.10 15.00 195.10 15.00 156.55 15.00 C 118.00 15.00 118.00 15.00 118.00 27.50 C 118.00 40.00 118.00 40.00 130.08 40.00 C 143.93 40.00 142.86 38.25 138.71 54.06 C 136.50 62.50 136.50 62.50 125.75 62.78 C 115.00 63.07 115.00 63.07 115.00 75.03 C 115.00 87.00 115.00 87.00 122.00 87.00 C 125.85 87.00 129.00 87.29 129.00 87.66 C 129.00 88.02 127.12 94.54 124.81 102.16 C 120.62 116.00 120.62 116.00 116.31 116.00 C 113.94 116.00 111.99 116.34 111.98 116.75 C 111.97 117.16 113.41 122.56 115.18 128.75 C 118.40 140.00 118.40 140.00 141.45 140.00 C 164.50 140.00 164.50 140.00 170.77 117.25 Z  M 55.25 142.75 C 53.02 138.55 52.99 138.02 53.00 99.75 C 53.00 61.00 53.00 61.00 58.00 61.00 C 63.00 61.00 63.00 61.00 63.00 99.57 C 63.00 138.14 63.00 138.14 60.40 142.57 C 58.98 145.01 57.74 147.00 57.65 147.00 C 57.57 147.00 56.48 145.09 55.25 142.75 Z "/>
</g>
</svg>