<?xml version="1.0" encoding="UTF-8" standalone="no"?>
<!DOCTYPE svg PUBLIC "-//W3C//DTD SVG 1.1//EN" "http://www.w3.org/Graphics/SVG/1.1/DTD/svg11.dtd" >
<svg xmlns="http://www.w3.org/2000/svg" xmlns:xlink="http://www.w3.org/1999/xlink" version="1.1" viewBox="0 0 256 256">
 <g >
 <path fill="currentColor"
d=" M 72.76 173.75 C 72.50 98.50 72.50 98.50 67.20 98.20 C 62.76 97.94 61.98 97.62 62.40 96.20 C 64.42 89.36 85.00 10.08 85.00 9.15 C 85.00 8.26 78.71 8.03 59.85 8.23 C 34.69 8.50 34.69 8.50 24.41 47.00 C 10.88 97.63 12.38 93.00 9.46 93.00 C 6.62 93.00 6.70 92.51 8.01 102.68 C 10.07 118.55 9.04 117.00 17.55 117.00 C 25.00 117.00 25.00 117.00 25.00 183.00 C 25.00 249.00 25.00 249.00 49.01 249.00 C 73.01 249.00 73.01 249.00 72.76 173.75 Z  M 128.74 234.76 C 143.00 220.53 143.00 220.53 143.00 183.26 C 143.00 146.00 143.00 146.00 119.50 146.00 C 96.00 146.00 96.00 146.00 96.00 185.50 C 96.00 225.00 96.00 225.00 89.00 225.00 C 85.15 225.00 82.00 225.26 82.00 225.57 C 82.00 226.26 86.90 245.99 87.51 247.75 C 87.82 248.67 91.49 249.00 101.21 249.00 C 114.47 249.00 114.47 249.00 128.74 234.76 Z  M 236.00 197.50 C 236.00 146.00 236.00 146.00 211.50 146.00 C 187.00 146.00 187.00 146.00 187.00 197.50 C 187.00 249.00 187.00 249.00 211.50 249.00 C 236.00 249.00 236.00 249.00 236.00 197.50 Z  M 148.21 115.25 C 160.00 95.19 163.16 90.50 164.89 90.50 C 166.58 90.50 170.32 95.60 182.86 115.00 C 198.69 139.50 198.69 139.50 220.03 139.50 C 241.37 139.50 241.37 139.50 244.16 128.50 C 245.69 122.45 246.96 117.16 246.97 116.75 C 246.99 116.34 245.09 115.99 242.75 115.97 C 238.50 115.94 238.50 115.94 229.24 103.22 C 219.97 90.50 219.97 90.50 232.49 90.22 C 245.00 89.94 245.00 89.94 245.00 77.97 C 245.00 66.00 245.00 66.00 211.50 66.00 C 193.07 66.00 178.00 65.64 178.00 65.21 C 178.00 64.77 180.87 59.71 184.38 53.96 C 190.77 43.50 190.77 43.50 213.37 43.23 C 235.83 42.96 235.97 42.95 236.50 40.73 C 237.14 38.01 243.00 8.83 243.00 8.34 C 243.00 8.15 232.25 8.00 219.11 8.00 C 195.22 8.00 195.22 8.00 194.56 11.75 C 193.13 19.79 198.74 19.00 142.93 19.00 C 93.00 19.00 93.00 19.00 93.00 30.98 C 93.00 42.96 93.00 42.96 115.01 43.23 C 137.02 43.50 137.02 43.50 130.23 54.50 C 123.43 65.50 123.43 65.50 105.72 65.77 C 88.00 66.05 88.00 66.05 88.00 77.99 C 88.00 89.93 88.00 89.93 98.46 90.22 C 108.93 90.50 108.93 90.50 101.40 103.25 C 93.87 116.00 93.87 116.00 89.94 116.00 C 87.77 116.00 85.99 116.34 85.98 116.75 C 85.97 117.16 87.19 122.56 88.69 128.75 C 91.41 140.00 91.41 140.00 112.54 140.00 C 133.67 140.00 133.67 140.00 148.21 115.25 Z "/>
</g>
</svg>