<?xml version="1.0" encoding="UTF-8" standalone="no"?>
<!DOCTYPE svg PUBLIC "-//W3C//DTD SVG 1.1//EN" "http://www.w3.org/Graphics/SVG/1.1/DTD/svg11.dtd" >
<svg xmlns="http://www.w3.org/2000/svg" xmlns:xlink="http://www.w3.org/1999/xlink" version="1.1" viewBox="0 0 256 256">
 <g >
 <path fill="currentColor"
d=" M 45.28 244.75 C 45.58 242.41 46.87 231.12 48.13 219.66 C 49.49 207.36 50.74 199.57 51.18 200.66 C 51.59 201.67 53.32 212.18 55.02 224.00 C 56.73 235.82 58.35 246.29 58.63 247.25 C 59.08 248.83 60.79 249.00 75.90 249.00 C 92.67 249.00 92.67 249.00 95.13 237.05 C 97.59 225.09 97.59 225.09 95.07 224.80 C 92.57 224.50 92.46 224.06 82.81 177.00 C 73.07 129.50 73.07 129.50 73.04 68.75 C 73.00 8.00 73.00 8.00 51.50 8.00 C 30.00 8.00 30.00 8.00 30.00 67.37 C 30.00 126.74 30.00 126.74 21.05 170.62 C 8.92 230.14 10.16 225.00 7.92 225.00 C 6.86 225.00 6.00 225.11 6.01 225.25 C 6.01 225.39 6.91 230.68 8.00 237.00 C 9.09 243.32 9.99 248.61 9.99 248.75 C 10.00 248.89 17.81 249.00 27.36 249.00 C 44.73 249.00 44.73 249.00 45.28 244.75 Z  M 156.94 219.75 C 166.42 191.00 166.42 191.00 171.71 191.00 C 177.00 191.00 177.00 191.00 177.00 220.00 C 177.00 249.00 177.00 249.00 209.44 249.00 C 241.88 249.00 241.88 249.00 244.49 240.25 C 245.92 235.44 247.53 230.20 248.05 228.60 C 248.57 227.01 249.00 225.54 249.00 225.35 C 249.00 225.16 243.60 225.00 237.00 225.00 C 225.00 225.00 225.00 225.00 225.00 208.00 C 225.00 191.00 225.00 191.00 237.00 191.00 C 249.00 191.00 249.00 191.00 249.00 179.00 C 249.00 167.00 249.00 167.00 176.00 167.00 C 103.00 167.00 103.00 167.00 103.00 179.00 C 103.00 191.00 103.00 191.00 110.50 191.00 C 114.62 191.00 118.00 191.34 118.00 191.75 C 118.00 192.16 115.67 199.81 112.83 208.75 C 107.66 225.00 107.66 225.00 103.83 225.00 C 101.72 225.00 100.00 225.48 100.00 226.07 C 100.00 227.52 105.01 247.21 105.64 248.23 C 105.92 248.68 115.44 248.92 126.81 248.77 C 147.47 248.50 147.47 248.50 156.94 219.75 Z  M 172.00 146.00 C 172.00 134.00 172.00 134.00 163.95 134.00 C 155.90 134.00 155.90 134.00 156.20 128.25 C 156.50 122.50 156.50 122.50 162.75 122.20 C 169.00 121.90 169.00 121.90 169.00 109.95 C 169.00 98.00 169.00 98.00 162.50 98.00 C 156.00 98.00 156.00 98.00 156.00 93.50 C 156.00 89.00 156.00 89.00 137.50 89.00 C 119.00 89.00 119.00 89.00 119.00 93.50 C 119.00 98.00 119.00 98.00 112.50 98.00 C 106.00 98.00 106.00 98.00 106.00 109.95 C 106.00 121.90 106.00 121.90 112.25 122.20 C 118.50 122.50 118.50 122.50 118.80 128.25 C 119.10 134.00 119.10 134.00 111.05 134.00 C 103.00 134.00 103.00 134.00 103.00 146.00 C 103.00 158.00 103.00 158.00 137.50 158.00 C 172.00 158.00 172.00 158.00 172.00 146.00 Z  M 249.00 146.00 C 249.00 134.00 249.00 134.00 241.00 134.00 C 233.00 134.00 233.00 134.00 233.00 128.00 C 233.00 122.00 233.00 122.00 239.50 122.00 C 246.00 122.00 246.00 122.00 246.00 110.00 C 246.00 98.00 246.00 98.00 239.50 98.00 C 233.00 98.00 233.00 98.00 233.00 93.48 C 233.00 88.96 233.00 88.96 214.25 89.23 C 195.50 89.50 195.50 89.50 195.19 93.70 C 194.89 97.91 194.89 97.91 188.69 98.20 C 182.50 98.50 182.50 98.50 182.22 110.25 C 181.94 122.00 181.94 122.00 188.47 122.00 C 195.00 122.00 195.00 122.00 195.00 127.96 C 195.00 133.92 195.00 133.92 187.25 134.21 C 179.50 134.50 179.50 134.50 179.22 146.25 C 178.94 158.00 178.94 158.00 213.97 158.00 C 249.00 158.00 249.00 158.00 249.00 146.00 Z  M 25.00 75.50 C 25.00 15.00 25.00 15.00 17.00 15.00 C 9.00 15.00 9.00 15.00 9.00 75.50 C 9.00 136.00 9.00 136.00 17.00 136.00 C 25.00 136.00 25.00 136.00 25.00 75.50 Z  M 94.00 75.50 C 94.00 15.00 94.00 15.00 86.50 15.00 C 79.00 15.00 79.00 15.00 79.00 75.50 C 79.00 136.00 79.00 136.00 86.50 136.00 C 94.00 136.00 94.00 136.00 94.00 75.50 Z  M 249.00 70.02 C 249.00 58.04 249.00 58.04 224.75 57.77 C 200.50 57.50 200.50 57.50 200.21 49.75 C 199.92 42.00 199.92 42.00 221.96 42.00 C 244.00 42.00 244.00 42.00 244.00 30.00 C 244.00 18.00 244.00 18.00 222.00 18.00 C 200.00 18.00 200.00 18.00 200.00 13.00 C 200.00 8.00 200.00 8.00 175.50 8.00 C 151.00 8.00 151.00 8.00 151.00 13.00 C 151.00 18.00 151.00 18.00 129.50 18.00 C 108.00 18.00 108.00 18.00 108.00 30.00 C 108.00 42.00 108.00 42.00 129.50 42.00 C 151.00 42.00 151.00 42.00 151.00 50.00 C 151.00 58.00 151.00 58.00 127.00 58.00 C 103.00 58.00 103.00 58.00 103.00 70.00 C 103.00 82.00 103.00 82.00 176.00 82.00 C 249.00 82.00 249.00 82.00 249.00 70.02 Z "/>
</g>
</svg>