<?xml version="1.0" encoding="UTF-8" standalone="no"?>
<!DOCTYPE svg PUBLIC "-//W3C//DTD SVG 1.1//EN" "http://www.w3.org/Graphics/SVG/1.1/DTD/svg11.dtd" >
<svg xmlns="http://www.w3.org/2000/svg" xmlns:xlink="http://www.w3.org/1999/xlink" version="1.1" viewBox="0 0 256 256">
 <g >
 <path fill="currentColor"
d=" M 186.00 208.00 C 186.00 167.00 186.00 167.00 197.58 167.00 C 209.16 167.00 209.16 167.00 225.08 151.80 C 241.00 136.60 241.00 136.60 241.00 101.31 C 241.00 66.03 241.00 66.03 213.75 65.77 C 186.50 65.50 186.50 65.50 186.21 57.25 C 185.92 49.00 185.92 49.00 215.96 49.00 C 246.00 49.00 246.00 49.00 246.00 37.00 C 246.00 25.00 246.00 25.00 216.00 25.00 C 186.00 25.00 186.00 25.00 186.00 16.50 C 186.00 8.00 186.00 8.00 161.50 8.00 C 137.00 8.00 137.00 8.00 137.00 16.50 C 137.00 25.00 137.00 25.00 107.50 25.00 C 78.00 25.00 78.00 25.00 78.00 37.00 C 78.00 49.00 78.00 49.00 107.50 49.00 C 137.00 49.00 137.00 49.00 137.00 57.50 C 137.00 65.81 136.95 66.00 134.60 66.00 C 132.59 66.00 131.20 67.75 126.11 76.75 C 120.03 87.50 120.03 87.50 120.02 76.75 C 120.00 66.00 120.00 66.00 101.00 66.00 C 82.00 66.00 82.00 66.00 82.00 116.50 C 82.00 167.00 82.00 167.00 109.50 167.00 C 137.00 167.00 137.00 167.00 137.00 207.33 C 137.00 229.52 137.30 247.97 137.67 248.33 C 138.03 248.70 149.06 249.00 162.17 249.00 C 186.00 249.00 186.00 249.00 186.00 208.00 Z  M 126.80 211.75 C 130.81 192.91 134.06 177.15 134.04 176.73 C 134.02 176.31 124.47 176.08 112.81 176.23 C 88.93 176.53 92.33 172.76 83.94 208.25 C 80.71 221.93 80.68 222.00 77.85 222.00 C 76.28 222.00 75.00 222.26 75.00 222.57 C 75.00 223.26 79.90 242.99 80.51 244.75 C 80.83 245.69 85.69 246.00 100.23 246.00 C 119.53 246.00 119.53 246.00 126.80 211.75 Z  M 243.90 242.25 C 244.44 240.19 245.60 235.57 246.49 232.00 C 247.38 228.43 248.34 224.71 248.62 223.75 C 249.04 222.32 248.50 222.00 245.65 222.00 C 241.73 222.00 242.80 225.23 235.11 190.18 C 233.50 182.85 231.99 176.65 231.74 176.41 C 231.49 176.16 221.85 176.08 210.31 176.23 C 189.33 176.50 189.33 176.50 195.54 205.50 C 198.96 221.45 202.29 237.09 202.95 240.25 C 204.14 246.00 204.14 246.00 223.53 246.00 C 242.92 246.00 242.92 246.00 243.90 242.25 Z  M 62.94 212.75 C 65.26 198.31 69.07 174.69 71.41 160.24 C 73.74 145.80 75.43 133.77 75.16 133.49 C 74.89 133.22 64.43 133.00 51.91 133.00 C 29.16 133.00 29.16 133.00 28.58 135.75 C 28.27 137.26 25.75 152.90 22.98 170.50 C 15.12 220.54 16.63 215.00 10.83 215.00 C 6.57 215.00 5.94 215.25 6.38 216.75 C 6.66 217.71 7.62 221.43 8.51 225.00 C 12.42 240.76 9.04 239.00 35.40 239.00 C 58.72 239.00 58.72 239.00 62.94 212.75 Z  M 72.38 106.53 C 73.82 100.77 75.00 95.40 75.00 94.59 C 75.00 93.54 73.64 93.02 70.30 92.80 C 65.19 92.47 66.21 96.72 53.97 24.75 C 52.82 18.00 52.82 18.00 29.33 18.00 C 5.84 18.00 5.84 18.00 6.42 20.75 C 6.73 22.26 10.37 43.52 14.50 68.00 C 18.63 92.48 22.24 113.51 22.52 114.75 C 23.04 117.00 23.04 117.00 46.40 117.00 C 69.75 117.00 69.75 117.00 72.38 106.53 Z  M 120.00 135.00 C 120.00 127.00 120.00 127.00 128.50 127.00 C 137.00 127.00 137.00 127.00 137.00 135.00 C 137.00 143.00 137.00 143.00 128.50 143.00 C 120.00 143.00 120.00 143.00 120.00 135.00 Z  M 186.21 135.25 C 186.50 127.50 186.50 127.50 195.25 127.21 C 204.00 126.92 204.00 126.92 204.00 134.96 C 204.00 143.00 204.00 143.00 194.96 143.00 C 185.92 143.00 185.92 143.00 186.21 135.25 Z  M 120.00 98.50 C 120.00 91.00 120.00 91.00 128.50 91.00 C 137.00 91.00 137.00 91.00 137.00 98.50 C 137.00 106.00 137.00 106.00 128.50 106.00 C 120.00 106.00 120.00 106.00 120.00 98.50 Z  M 186.00 98.50 C 186.00 91.00 186.00 91.00 195.00 91.00 C 204.00 91.00 204.00 91.00 204.00 98.50 C 204.00 106.00 204.00 106.00 195.00 106.00 C 186.00 106.00 186.00 106.00 186.00 98.50 Z "/>
</g>
</svg>