<?xml version="1.0" encoding="UTF-8" standalone="no"?>
<!DOCTYPE svg PUBLIC "-//W3C//DTD SVG 1.1//EN" "http://www.w3.org/Graphics/SVG/1.1/DTD/svg11.dtd" >
<svg xmlns="http://www.w3.org/2000/svg" xmlns:xlink="http://www.w3.org/1999/xlink" version="1.1" viewBox="0 0 256 256">
 <g >
 <path fill="currentColor"
d=" M 58.00 212.00 C 58.00 175.00 58.00 175.00 65.00 175.00 C 72.00 175.00 72.00 175.00 72.00 200.00 C 72.00 225.00 72.00 225.00 69.50 225.00 C 67.00 225.00 67.00 225.00 67.00 237.00 C 67.00 249.00 67.00 249.00 77.75 248.97 C 88.50 248.95 88.50 248.95 104.79 233.22 C 121.08 217.50 121.08 217.50 121.04 116.23 C 121.00 14.97 121.00 14.97 93.33 15.23 C 65.67 15.50 65.67 15.50 61.91 26.50 C 58.16 37.50 58.16 37.50 58.08 26.25 C 58.00 15.00 58.00 15.00 34.00 15.00 C 10.00 15.00 10.00 15.00 10.00 132.00 C 10.00 249.00 10.00 249.00 34.00 249.00 C 58.00 249.00 58.00 249.00 58.00 212.00 Z  M 179.39 241.92 C 182.63 238.05 185.59 235.25 185.97 235.69 C 198.17 250.14 195.24 249.00 220.13 249.00 C 242.96 249.00 242.96 249.00 243.47 246.75 C 244.40 242.65 248.00 225.60 248.00 225.30 C 248.00 225.13 246.01 225.00 243.59 225.00 C 239.20 225.00 239.10 224.92 228.09 212.60 C 221.99 205.77 217.00 199.71 217.00 199.13 C 217.00 198.55 223.29 190.74 230.97 181.78 C 244.94 165.50 244.94 165.50 244.97 122.77 C 245.00 80.05 245.00 80.05 228.25 79.77 C 211.50 79.50 211.50 79.50 211.22 67.25 C 210.94 55.00 210.94 55.00 229.47 55.00 C 248.00 55.00 248.00 55.00 248.00 43.00 C 248.00 31.00 248.00 31.00 229.50 31.00 C 211.00 31.00 211.00 31.00 211.00 19.50 C 211.00 8.00 211.00 8.00 187.00 8.00 C 163.00 8.00 163.00 8.00 163.00 19.50 C 163.00 31.00 163.00 31.00 144.50 31.00 C 126.00 31.00 126.00 31.00 126.00 43.00 C 126.00 55.00 126.00 55.00 144.50 55.00 C 163.00 55.00 163.00 55.00 163.00 67.50 C 163.00 80.00 163.00 80.00 144.50 80.00 C 126.00 80.00 126.00 80.00 126.00 92.00 C 126.00 104.00 126.00 104.00 161.00 104.00 C 196.00 104.00 196.00 104.00 196.00 128.25 C 195.99 152.50 195.99 152.50 191.27 158.32 C 186.54 164.14 186.54 164.14 180.77 158.17 C 175.00 152.20 175.00 152.20 175.00 130.08 C 175.00 107.96 175.00 107.96 150.75 108.23 C 126.50 108.50 126.50 108.50 126.24 136.50 C 125.97 164.50 125.97 164.50 139.97 181.50 C 147.66 190.85 153.86 198.81 153.73 199.20 C 153.60 199.58 148.35 205.54 142.06 212.45 C 130.80 224.81 130.56 225.00 126.31 225.00 C 123.94 225.00 121.99 225.34 121.98 225.75 C 121.97 226.16 123.19 231.56 124.69 237.75 C 127.41 249.00 127.41 249.00 150.46 248.98 C 173.50 248.96 173.50 248.96 179.39 241.92 Z  M 58.08 139.20 C 58.00 106.91 58.00 106.91 64.75 107.20 C 71.50 107.50 71.50 107.50 71.77 129.19 C 72.04 150.88 72.04 150.88 67.85 151.19 C 63.66 151.50 63.66 151.50 60.91 161.50 C 58.16 171.50 58.16 171.50 58.08 139.20 Z  M 58.09 71.75 C 58.00 40.00 58.00 40.00 65.02 40.00 C 72.04 40.00 72.04 40.00 71.77 61.75 C 71.50 83.50 71.50 83.50 67.47 83.80 C 63.43 84.09 63.43 84.09 60.81 93.80 C 58.18 103.50 58.18 103.50 58.09 71.75 Z "/>
</g>
</svg>