<?xml version="1.0" encoding="UTF-8" standalone="no"?>
<!DOCTYPE svg PUBLIC "-//W3C//DTD SVG 1.1//EN" "http://www.w3.org/Graphics/SVG/1.1/DTD/svg11.dtd" >
<svg xmlns="http://www.w3.org/2000/svg" xmlns:xlink="http://www.w3.org/1999/xlink" version="1.1" viewBox="0 0 256 256">
 <g >
 <path fill="currentColor"
d=" M 151.24 199.25 C 151.50 149.50 151.50 149.50 172.25 149.23 C 193.00 148.96 193.00 148.96 193.00 182.98 C 193.00 217.00 193.00 217.00 185.00 217.00 C 177.00 217.00 177.00 217.00 177.00 229.00 C 177.00 241.00 177.00 241.00 193.74 241.00 C 210.48 241.00 210.48 241.00 226.24 225.26 C 242.00 209.52 242.00 209.52 242.00 167.26 C 242.00 125.00 242.00 125.00 196.46 125.00 C 150.92 125.00 150.92 125.00 151.21 116.75 C 151.50 108.50 151.50 108.50 196.75 108.24 C 242.00 107.98 242.00 107.98 242.00 96.50 C 242.00 85.02 242.00 85.02 196.75 84.76 C 151.50 84.50 151.50 84.50 151.21 76.75 C 150.92 69.00 150.92 69.00 127.50 69.00 C 104.08 69.00 104.08 69.00 103.79 76.75 C 103.50 84.50 103.50 84.50 58.25 84.76 C 13.00 85.02 13.00 85.02 13.00 96.50 C 13.00 107.98 13.00 107.98 58.25 108.24 C 103.50 108.50 103.50 108.50 103.79 116.73 C 104.08 124.95 104.08 124.95 86.87 125.23 C 69.67 125.50 69.67 125.50 65.93 136.50 C 62.20 147.50 62.20 147.50 61.85 136.50 C 61.50 125.50 61.50 125.50 37.25 125.23 C 13.00 124.96 13.00 124.96 13.00 182.98 C 13.00 241.00 13.00 241.00 37.50 241.00 C 62.00 241.00 62.00 241.00 62.00 194.98 C 62.00 148.96 62.00 148.96 82.75 149.23 C 103.50 149.50 103.50 149.50 103.76 199.25 C 104.02 249.00 104.02 249.00 127.50 249.00 C 150.98 249.00 150.98 249.00 151.24 199.25 Z  M 92.79 57.75 C 93.08 49.00 93.08 49.00 127.50 49.00 C 161.92 49.00 161.92 49.00 162.21 57.75 C 162.50 66.50 162.50 66.50 186.25 66.77 C 210.00 67.04 210.00 67.04 210.00 58.02 C 210.00 49.00 210.00 49.00 229.00 49.00 C 248.00 49.00 248.00 49.00 248.00 37.00 C 248.00 25.00 248.00 25.00 229.00 25.00 C 210.00 25.00 210.00 25.00 210.00 16.50 C 210.00 8.00 210.00 8.00 186.00 8.00 C 162.00 8.00 162.00 8.00 162.00 16.50 C 162.00 25.00 162.00 25.00 127.50 25.00 C 93.00 25.00 93.00 25.00 93.00 16.50 C 93.00 8.00 93.00 8.00 69.00 8.00 C 45.00 8.00 45.00 8.00 45.00 16.50 C 45.00 25.00 45.00 25.00 26.00 25.00 C 7.00 25.00 7.00 25.00 7.00 37.00 C 7.00 49.00 7.00 49.00 26.00 49.00 C 45.00 49.00 45.00 49.00 45.00 58.02 C 45.00 67.04 45.00 67.04 68.75 66.77 C 92.50 66.50 92.50 66.50 92.79 57.75 Z "/>
</g>
</svg>