<?xml version="1.0" encoding="UTF-8" standalone="no"?>
<!DOCTYPE svg PUBLIC "-//W3C//DTD SVG 1.1//EN" "http://www.w3.org/Graphics/SVG/1.1/DTD/svg11.dtd" >
<svg xmlns="http://www.w3.org/2000/svg" xmlns:xlink="http://www.w3.org/1999/xlink" version="1.1" viewBox="0 0 256 256">
 <g >
 <path fill="currentColor"
d=" M 81.00 179.36 C 81.00 109.71 81.00 109.71 92.50 87.83 C 104.00 65.95 104.00 65.95 104.00 48.47 C 104.00 31.00 104.00 31.00 92.50 31.00 C 81.00 31.00 81.00 31.00 81.00 19.50 C 81.00 8.00 81.00 8.00 56.50 8.00 C 32.00 8.00 32.00 8.00 32.00 19.50 C 32.00 31.00 32.00 31.00 19.50 31.00 C 7.00 31.00 7.00 31.00 7.00 43.00 C 7.00 55.00 7.00 55.00 32.00 55.00 C 45.75 55.00 56.98 55.34 56.95 55.75 C 56.93 56.16 47.79 73.38 36.64 94.00 C 16.38 131.50 16.38 131.50 11.69 131.80 C 9.11 131.97 7.00 132.20 7.00 132.31 C 7.00 132.42 8.52 137.68 10.37 144.01 C 13.74 155.50 13.74 155.50 22.87 155.79 C 32.00 156.08 32.00 156.08 32.00 202.54 C 32.00 249.00 32.00 249.00 56.50 249.00 C 81.00 249.00 81.00 249.00 81.00 179.36 Z  M 229.25 231.36 C 245.00 215.75 245.00 215.75 245.00 182.87 C 245.00 150.00 245.00 150.00 211.67 150.00 C 178.34 150.00 178.34 150.00 175.53 160.25 C 173.98 165.89 172.34 171.18 171.88 172.00 C 171.41 172.86 171.05 168.47 171.03 161.75 C 171.01 154.21 170.62 150.00 169.95 150.00 C 169.31 150.00 169.01 147.95 169.20 144.75 C 169.50 139.50 169.50 139.50 190.38 139.23 C 211.26 138.96 211.26 138.96 227.13 123.85 C 243.00 108.73 243.00 108.73 243.00 98.37 C 243.00 88.00 243.00 88.00 245.50 88.00 C 248.00 88.00 248.00 88.00 248.00 76.00 C 248.00 64.00 248.00 64.00 245.50 64.00 C 243.00 64.00 243.00 64.00 243.00 38.00 C 243.00 12.00 243.00 12.00 179.50 12.00 C 116.00 12.00 116.00 12.00 116.00 24.00 C 116.00 36.00 116.00 36.00 119.03 36.00 C 122.06 36.00 122.06 36.00 121.78 49.75 C 121.50 63.50 121.50 63.50 117.25 63.81 C 113.00 64.11 113.00 64.11 113.00 76.06 C 113.00 88.00 113.00 88.00 117.50 88.00 C 122.00 88.00 122.00 88.00 122.00 101.50 C 122.00 115.00 122.00 115.00 119.00 115.00 C 116.00 115.00 116.00 115.00 116.00 126.93 C 116.00 138.87 116.00 138.87 118.75 139.18 C 121.50 139.50 121.50 139.50 121.79 149.25 C 122.07 159.00 122.07 159.00 118.04 159.00 C 115.50 159.00 114.00 159.46 114.00 160.23 C 114.00 160.91 114.75 166.52 115.68 172.68 C 117.29 183.48 117.45 183.91 119.93 184.20 C 122.50 184.50 122.50 184.50 122.76 215.75 C 123.03 247.00 123.03 247.00 168.26 246.98 C 213.50 246.97 213.50 246.97 229.25 231.36 Z  M 107.76 202.25 C 107.50 159.50 107.50 159.50 96.25 159.22 C 85.00 158.93 85.00 158.93 85.00 201.97 C 85.00 245.00 85.00 245.00 96.51 245.00 C 108.02 245.00 108.02 245.00 107.76 202.25 Z  M 107.77 130.75 C 107.50 109.50 107.50 109.50 96.25 109.22 C 85.00 108.93 85.00 108.93 85.00 130.47 C 85.00 152.00 85.00 152.00 96.52 152.00 C 108.04 152.00 108.04 152.00 107.77 130.75 Z  M 171.00 199.00 C 171.00 175.00 171.00 175.00 183.50 175.00 C 196.00 175.00 196.00 175.00 196.00 199.00 C 196.00 223.00 196.00 223.00 183.50 223.00 C 171.00 223.00 171.00 223.00 171.00 199.00 Z  M 169.00 101.50 C 169.00 88.00 169.00 88.00 182.50 88.00 C 196.00 88.00 196.00 88.00 196.00 101.50 C 196.00 115.00 196.00 115.00 182.50 115.00 C 169.00 115.00 169.00 115.00 169.00 101.50 Z  M 169.67 63.33 C 169.30 62.97 169.00 56.67 169.00 49.33 C 169.00 36.00 169.00 36.00 182.50 36.00 C 196.00 36.00 196.00 36.00 196.00 50.00 C 196.00 64.00 196.00 64.00 183.17 64.00 C 176.11 64.00 170.03 63.70 169.67 63.33 Z "/>
</g>
</svg>