<?xml version="1.0" encoding="UTF-8" standalone="no"?>
<!DOCTYPE svg PUBLIC "-//W3C//DTD SVG 1.1//EN" "http://www.w3.org/Graphics/SVG/1.1/DTD/svg11.dtd" >
<svg xmlns="http://www.w3.org/2000/svg" xmlns:xlink="http://www.w3.org/1999/xlink" version="1.1" viewBox="0 0 256 256">
 <g >
 <path fill="currentColor"
d=" M 107.00 231.00 C 107.00 213.00 107.00 213.00 124.00 213.00 C 141.00 213.00 141.00 213.00 141.00 201.00 C 141.00 189.00 141.00 189.00 124.00 189.00 C 107.00 189.00 107.00 189.00 107.00 173.00 C 107.00 157.00 107.00 157.00 121.00 157.00 C 135.00 157.00 135.00 157.00 135.00 144.50 C 135.00 132.00 135.00 132.00 121.00 132.00 C 107.00 132.00 107.00 132.00 107.00 101.50 C 107.00 71.00 107.00 71.00 88.50 71.00 C 70.00 71.00 70.00 71.00 70.00 101.50 C 70.00 132.00 70.00 132.00 64.00 132.00 C 59.84 132.00 58.01 131.62 58.04 130.75 C 58.07 130.06 60.23 113.75 62.84 94.50 C 67.60 59.50 67.60 59.50 102.30 59.24 C 137.00 58.97 137.00 58.97 137.00 46.99 C 137.00 35.00 137.00 35.00 104.00 35.00 C 73.23 35.00 71.00 34.88 71.03 33.25 C 71.05 32.29 71.89 26.21 72.89 19.75 C 74.71 8.00 74.71 8.00 51.40 8.00 C 28.09 8.00 28.09 8.00 27.57 11.25 C 26.92 15.28 25.01 32.05 25.00 33.75 C 25.00 34.65 22.73 35.00 17.00 35.00 C 9.00 35.00 9.00 35.00 9.00 47.00 C 9.00 59.00 9.00 59.00 15.05 59.00 C 21.09 59.00 21.09 59.00 20.53 62.25 C 17.64 78.92 12.00 133.01 12.00 144.02 C 12.00 157.00 12.00 157.00 35.00 157.00 C 58.00 157.00 58.00 157.00 58.00 173.00 C 58.00 189.00 58.00 189.00 32.50 189.00 C 7.00 189.00 7.00 189.00 7.00 201.00 C 7.00 213.00 7.00 213.00 32.50 213.00 C 58.00 213.00 58.00 213.00 58.00 231.00 C 58.00 249.00 58.00 249.00 82.50 249.00 C 107.00 249.00 107.00 249.00 107.00 231.00 Z  M 243.66 238.55 C 245.49 233.08 247.25 227.79 247.56 226.80 C 248.10 225.10 246.71 225.00 222.07 225.00 C 196.00 225.00 196.00 225.00 196.00 116.50 C 196.00 8.00 196.00 8.00 172.00 8.00 C 148.00 8.00 148.00 8.00 148.00 128.51 C 148.00 249.02 148.00 249.02 194.16 248.76 C 240.32 248.50 240.32 248.50 243.66 238.55 Z "/>
</g>
</svg>