<?xml version="1.0" encoding="UTF-8" standalone="no"?>
<!DOCTYPE svg PUBLIC "-//W3C//DTD SVG 1.1//EN" "http://www.w3.org/Graphics/SVG/1.1/DTD/svg11.dtd" >
<svg xmlns="http://www.w3.org/2000/svg" xmlns:xlink="http://www.w3.org/1999/xlink" version="1.1" viewBox="0 0 256 256">
 <g >
 <path fill="currentColor"
d=" M 239.53 240.25 C 240.96 235.44 242.55 230.20 243.06 228.60 C 243.58 227.01 244.00 225.56 244.00 225.38 C 244.00 225.20 238.21 224.93 231.13 224.78 C 218.26 224.50 218.26 224.50 232.63 186.50 C 246.99 148.50 246.99 148.50 247.00 136.25 C 247.00 124.00 247.00 124.00 224.00 124.00 C 201.00 124.00 201.00 124.00 201.00 113.48 C 201.00 102.96 201.00 102.96 176.75 103.23 C 152.50 103.50 152.50 103.50 152.22 113.75 C 151.93 124.00 151.93 124.00 130.97 124.00 C 110.00 124.00 110.00 124.00 110.00 136.00 C 110.00 148.00 110.00 148.00 154.11 148.00 C 188.96 148.00 198.12 148.26 197.77 149.25 C 188.27 175.81 174.54 211.88 174.10 211.44 C 173.78 211.11 169.46 199.74 164.51 186.17 C 155.50 161.50 155.50 161.50 133.25 161.23 C 121.01 161.08 111.00 161.30 111.00 161.72 C 111.00 162.13 117.86 181.94 126.24 205.74 C 141.49 249.00 141.49 249.00 189.21 249.00 C 236.94 249.00 236.94 249.00 239.53 240.25 Z  M 103.00 233.50 C 103.00 221.46 102.92 221.00 100.89 221.00 C 98.81 221.00 98.79 220.83 99.47 204.25 C 99.84 195.04 100.37 186.71 100.64 185.75 C 101.09 184.16 100.16 184.00 90.66 184.00 C 78.40 184.00 79.50 182.00 78.42 206.25 C 78.05 214.36 77.36 221.00 76.88 221.00 C 76.40 221.00 76.00 209.97 76.00 196.50 C 76.00 172.00 76.00 172.00 87.53 172.00 C 99.06 172.00 99.06 172.00 98.78 160.25 C 98.50 148.50 98.50 148.50 87.25 148.22 C 76.00 147.93 76.00 147.93 76.00 137.97 C 76.00 128.00 76.00 128.00 88.53 128.00 C 101.06 128.00 101.06 128.00 100.78 116.25 C 100.50 104.50 100.50 104.50 53.75 104.24 C 7.00 103.98 7.00 103.98 7.00 115.99 C 7.00 128.00 7.00 128.00 20.00 128.00 C 33.00 128.00 33.00 128.00 33.00 138.00 C 33.00 148.00 33.00 148.00 21.00 148.00 C 9.00 148.00 9.00 148.00 9.00 160.00 C 9.00 172.00 9.00 172.00 21.00 172.00 C 33.00 172.00 33.00 172.00 33.00 196.50 C 33.00 216.82 32.76 221.00 31.60 221.00 C 30.08 221.00 29.56 216.83 28.43 195.75 C 27.80 184.00 27.80 184.00 17.28 184.00 C 5.56 184.00 6.50 180.94 8.62 212.25 C 9.14 219.86 9.00 221.00 7.61 221.00 C 6.22 221.00 6.00 222.69 6.00 233.50 C 6.00 246.00 6.00 246.00 54.50 246.00 C 103.00 246.00 103.00 246.00 103.00 233.50 Z  M 159.87 79.25 C 168.10 30.77 166.02 35.90 177.36 36.22 C 187.39 36.50 187.39 36.50 191.60 63.37 C 193.91 78.14 196.11 92.22 196.47 94.64 C 197.13 99.04 197.13 99.04 219.72 98.77 C 242.31 98.50 242.31 98.50 245.53 87.50 C 248.75 76.50 248.75 76.50 245.48 76.20 C 242.67 75.93 242.12 75.44 241.63 72.70 C 241.32 70.94 239.24 57.58 237.00 43.00 C 234.77 28.42 232.72 15.49 232.45 14.25 C 231.96 12.00 231.96 12.00 177.20 12.00 C 122.44 12.00 122.44 12.00 117.61 43.25 C 114.96 60.44 112.59 74.84 112.34 75.25 C 112.09 75.66 110.29 76.00 108.33 76.00 C 105.91 76.00 104.94 76.40 105.26 77.25 C 105.51 77.94 107.23 83.11 109.08 88.75 C 112.43 99.00 112.43 99.00 134.47 99.00 C 156.52 99.00 156.52 99.00 159.87 79.25 Z  M 49.06 90.75 C 49.10 89.51 50.14 78.83 51.37 67.00 C 52.83 53.07 53.85 46.56 54.27 48.50 C 54.63 50.15 55.86 59.83 56.99 70.00 C 58.12 80.17 59.27 89.51 59.54 90.75 C 60.04 92.99 60.14 93.00 79.37 93.00 C 98.69 93.00 98.69 93.00 100.35 83.05 C 102.41 70.63 102.40 70.34 100.16 69.75 C 98.76 69.39 98.16 67.96 97.69 63.88 C 97.34 60.92 95.62 48.04 93.87 35.25 C 90.68 12.00 90.68 12.00 54.42 12.00 C 18.16 12.00 18.16 12.00 17.60 14.75 C 17.12 17.17 10.00 68.48 10.00 69.57 C 10.00 69.81 9.10 70.00 8.00 70.00 C 6.90 70.00 6.00 70.19 6.00 70.43 C 6.00 71.21 8.02 86.46 8.56 89.75 C 9.09 93.00 9.09 93.00 29.05 93.00 C 49.00 93.00 49.00 93.00 49.06 90.75 Z "/>
</g>
</svg>