<?xml version="1.0" encoding="UTF-8" standalone="no"?>
<!DOCTYPE svg PUBLIC "-//W3C//DTD SVG 1.1//EN" "http://www.w3.org/Graphics/SVG/1.1/DTD/svg11.dtd" >
<svg xmlns="http://www.w3.org/2000/svg" xmlns:xlink="http://www.w3.org/1999/xlink" version="1.1" viewBox="0 0 256 256">
 <g >
 <path fill="currentColor"
d=" M 101.00 237.00 C 101.00 225.00 101.00 225.00 90.50 225.00 C 80.00 225.00 80.00 225.00 80.00 201.50 C 80.00 178.00 80.00 178.00 90.53 178.00 C 101.06 178.00 101.06 178.00 100.78 165.75 C 100.50 153.50 100.50 153.50 90.25 153.22 C 80.00 152.93 80.00 152.93 80.00 132.97 C 80.00 113.00 80.00 113.00 90.53 113.00 C 101.06 113.00 101.06 113.00 100.78 100.75 C 100.50 88.50 100.50 88.50 55.25 88.24 C 10.00 87.98 10.00 87.98 10.00 100.49 C 10.00 113.00 10.00 113.00 21.00 113.00 C 32.00 113.00 32.00 113.00 32.00 133.00 C 32.00 153.00 32.00 153.00 21.00 153.00 C 10.00 153.00 10.00 153.00 10.00 165.50 C 10.00 178.00 10.00 178.00 21.00 178.00 C 32.00 178.00 32.00 178.00 32.00 213.50 C 32.00 249.00 32.00 249.00 66.50 249.00 C 101.00 249.00 101.00 249.00 101.00 237.00 Z  M 233.74 235.77 C 246.00 223.53 246.00 223.53 246.00 180.77 C 246.00 138.00 246.00 138.00 204.22 138.00 C 162.43 138.00 162.43 138.00 158.47 149.75 C 154.50 161.50 154.50 161.50 154.22 149.75 C 153.94 138.00 153.94 138.00 130.97 138.00 C 108.00 138.00 108.00 138.00 108.00 193.00 C 108.00 248.00 108.00 248.00 164.74 248.00 C 221.47 248.00 221.47 248.00 233.74 235.77 Z  M 249.00 118.50 C 249.00 106.00 249.00 106.00 237.50 106.00 C 226.00 106.00 226.00 106.00 226.00 77.00 C 226.00 48.00 226.00 48.00 236.50 48.00 C 247.00 48.00 247.00 48.00 247.00 36.00 C 247.00 24.00 247.00 24.00 239.53 24.00 C 232.05 24.00 232.05 24.00 235.00 16.00 C 237.95 8.00 237.95 8.00 213.53 8.00 C 189.11 8.00 189.11 8.00 186.77 15.75 C 184.43 23.50 184.43 23.50 176.85 23.79 C 169.27 24.08 169.27 24.08 166.95 16.04 C 164.63 8.00 164.63 8.00 140.31 8.00 C 126.94 8.00 116.00 8.38 116.00 8.84 C 116.00 9.31 116.90 12.30 118.00 15.50 C 120.94 24.05 120.97 24.00 113.50 24.00 C 107.00 24.00 107.00 24.00 107.00 36.00 C 107.00 48.00 107.00 48.00 117.00 48.00 C 127.00 48.00 127.00 48.00 127.00 77.00 C 127.00 106.00 127.00 106.00 116.00 106.00 C 105.00 106.00 105.00 106.00 105.00 118.50 C 105.00 131.00 105.00 131.00 177.00 131.00 C 249.00 131.00 249.00 131.00 249.00 118.50 Z  M 125.03 100.25 C 125.05 99.29 124.05 88.04 122.82 75.25 C 120.58 52.00 120.58 52.00 112.79 52.00 C 107.24 52.00 104.99 52.36 104.98 53.25 C 104.96 53.94 105.97 65.19 107.21 78.25 C 109.48 102.00 109.48 102.00 117.24 102.00 C 123.95 102.00 125.00 101.76 125.03 100.25 Z  M 244.45 97.75 C 244.76 95.41 245.69 86.30 246.50 77.50 C 247.32 68.70 248.25 59.36 248.59 56.75 C 249.19 52.00 249.19 52.00 240.59 52.00 C 235.87 52.00 232.00 52.34 232.00 52.76 C 232.00 54.64 228.98 92.05 228.45 96.75 C 227.86 102.00 227.86 102.00 235.87 102.00 C 243.88 102.00 243.88 102.00 244.45 97.75 Z  M 54.72 80.29 C 55.08 79.35 56.32 73.84 57.48 68.04 C 59.58 57.50 59.58 57.50 80.04 57.00 C 100.50 56.50 100.50 56.50 100.78 44.75 C 101.06 33.00 101.06 33.00 83.03 33.00 C 69.25 33.00 65.01 32.71 65.04 31.75 C 65.06 31.06 66.13 25.44 67.41 19.25 C 69.73 8.00 69.73 8.00 45.88 8.00 C 22.04 8.00 22.04 8.00 21.50 10.25 C 20.69 13.68 12.00 55.98 12.00 56.52 C 12.00 56.79 10.88 57.00 9.50 57.00 C 8.12 57.00 7.00 57.11 7.01 57.25 C 7.01 57.39 7.69 62.88 8.51 69.46 C 9.33 76.04 10.00 81.55 10.00 81.71 C 10.00 81.87 19.91 82.00 32.03 82.00 C 51.88 82.00 54.13 81.83 54.72 80.29 Z  M 154.00 214.50 C 154.00 205.00 154.00 205.00 176.50 205.00 C 199.00 205.00 199.00 205.00 199.00 214.50 C 199.00 224.00 199.00 224.00 176.50 224.00 C 154.00 224.00 154.00 224.00 154.00 214.50 Z  M 154.23 183.25 C 154.50 162.50 154.50 162.50 176.75 162.23 C 199.00 161.96 199.00 161.96 199.00 171.48 C 199.00 181.00 199.00 181.00 180.72 181.00 C 162.43 181.00 162.43 181.00 158.65 192.50 C 156.57 198.82 154.66 204.00 154.41 204.00 C 154.16 204.00 154.08 194.66 154.23 183.25 Z  M 172.00 77.00 C 172.00 48.00 172.00 48.00 176.50 48.00 C 181.00 48.00 181.00 48.00 181.00 77.00 C 181.00 106.00 181.00 106.00 176.50 106.00 C 172.00 106.00 172.00 106.00 172.00 77.00 Z "/>
</g>
</svg>