<?xml version="1.0" encoding="UTF-8" standalone="no"?>
<!DOCTYPE svg PUBLIC "-//W3C//DTD SVG 1.1//EN" "http://www.w3.org/Graphics/SVG/1.1/DTD/svg11.dtd" >
<svg xmlns="http://www.w3.org/2000/svg" xmlns:xlink="http://www.w3.org/1999/xlink" version="1.1" viewBox="0 0 256 256">
 <g >
 <path fill="currentColor"
d=" M 62.00 157.50 C 62.00 66.00 62.00 66.00 37.50 66.00 C 13.00 66.00 13.00 66.00 13.00 157.50 C 13.00 249.00 13.00 249.00 37.50 249.00 C 62.00 249.00 62.00 249.00 62.00 157.50 Z  M 182.13 238.50 C 183.67 233.00 184.95 228.16 184.97 227.75 C 184.99 227.34 177.35 227.00 168.00 227.00 C 151.67 227.00 151.00 226.92 151.00 225.00 C 151.00 223.77 151.67 223.00 152.74 223.00 C 153.69 223.00 161.34 216.14 169.74 207.76 C 185.00 192.52 185.00 192.52 185.00 159.76 C 185.00 127.00 185.00 127.00 168.00 127.00 C 151.00 127.00 151.00 127.00 151.00 124.50 C 151.00 122.00 151.00 122.00 127.00 122.00 C 103.00 122.00 103.00 122.00 103.00 124.44 C 103.00 125.78 102.63 127.11 102.19 127.38 C 101.74 127.66 100.05 132.52 98.44 138.19 C 95.50 148.50 95.50 148.50 95.00 138.00 C 94.50 127.50 94.50 127.50 81.75 127.22 C 69.00 126.94 69.00 126.94 69.00 174.97 C 69.00 223.00 69.00 223.00 86.00 223.00 C 103.00 223.00 103.00 223.00 103.00 236.01 C 103.00 249.02 103.00 249.02 141.17 248.76 C 179.33 248.50 179.33 248.50 182.13 238.50 Z  M 226.25 233.36 C 242.00 217.75 242.00 217.75 242.00 118.87 C 242.00 20.00 242.00 20.00 162.50 20.00 C 83.00 20.00 83.00 20.00 83.00 32.00 C 83.00 44.00 83.00 44.00 138.00 44.00 C 193.00 44.00 193.00 44.00 193.00 134.50 C 193.00 225.00 193.00 225.00 190.00 225.00 C 187.00 225.00 187.00 225.00 187.00 237.00 C 187.00 249.00 187.00 249.00 198.75 248.98 C 210.50 248.97 210.50 248.97 226.25 233.36 Z  M 119.50 106.00 C 123.73 99.40 127.37 94.00 127.58 94.00 C 127.79 94.00 131.58 99.41 136.01 106.02 C 144.07 118.04 144.07 118.04 163.24 117.77 C 184.39 117.47 182.85 118.62 185.48 101.25 C 186.12 97.00 186.12 97.00 182.58 97.00 C 179.45 97.00 178.49 96.32 174.51 91.25 C 169.99 85.50 169.99 85.50 177.50 85.21 C 185.00 84.92 185.00 84.92 185.00 72.46 C 185.00 60.00 185.00 60.00 167.50 60.00 C 157.88 60.00 150.00 59.70 150.00 59.34 C 150.00 58.97 151.14 56.72 152.54 54.34 C 155.08 50.00 155.08 50.00 130.67 50.00 C 106.25 50.00 106.25 50.00 102.87 54.97 C 99.50 59.95 99.50 59.95 84.25 59.97 C 69.00 60.00 69.00 60.00 69.00 72.46 C 69.00 84.91 69.00 84.91 76.07 85.21 C 83.13 85.50 83.13 85.50 79.01 91.25 C 75.60 96.02 74.39 97.00 71.94 97.00 C 70.09 97.00 69.00 97.52 69.00 98.39 C 69.00 99.87 71.84 114.64 72.53 116.75 C 72.84 117.69 77.71 118.00 92.37 118.00 C 111.80 118.00 111.80 118.00 119.50 106.00 Z  M 64.67 42.05 C 66.64 30.10 66.64 30.10 63.67 29.80 C 60.48 29.48 60.84 30.32 56.05 12.25 C 54.92 8.00 54.92 8.00 30.44 8.00 C 5.96 8.00 5.96 8.00 6.49 10.25 C 6.79 11.49 8.82 20.82 11.01 31.00 C 13.21 41.17 15.23 50.51 15.52 51.75 C 16.04 54.00 16.04 54.00 39.37 54.00 C 62.70 54.00 62.70 54.00 64.67 42.05 Z  M 95.00 193.00 C 95.00 187.00 95.00 187.00 99.00 187.00 C 103.00 187.00 103.00 187.00 103.00 193.00 C 103.00 199.00 103.00 199.00 99.00 199.00 C 95.00 199.00 95.00 199.00 95.00 193.00 Z  M 151.00 193.00 C 151.00 187.00 151.00 187.00 155.50 187.00 C 160.00 187.00 160.00 187.00 160.00 193.00 C 160.00 199.00 160.00 199.00 155.50 199.00 C 151.00 199.00 151.00 199.00 151.00 193.00 Z  M 95.10 166.19 C 95.00 150.88 95.00 150.88 98.75 151.19 C 102.50 151.50 102.50 151.50 102.80 157.67 C 103.05 162.88 102.82 163.89 101.35 164.17 C 100.08 164.42 99.00 166.82 97.40 173.00 C 95.19 181.50 95.19 181.50 95.10 166.19 Z  M 151.20 157.75 C 151.50 151.50 151.50 151.50 155.75 151.19 C 160.00 150.89 160.00 150.89 160.00 157.44 C 160.00 164.00 160.00 164.00 155.45 164.00 C 150.90 164.00 150.90 164.00 151.20 157.75 Z "/>
</g>
</svg>