<?xml version="1.0" encoding="UTF-8" standalone="no"?>
<!DOCTYPE svg PUBLIC "-//W3C//DTD SVG 1.1//EN" "http://www.w3.org/Graphics/SVG/1.1/DTD/svg11.dtd" >
<svg xmlns="http://www.w3.org/2000/svg" xmlns:xlink="http://www.w3.org/1999/xlink" version="1.1" viewBox="0 0 256 256">
 <g >
 <path fill="currentColor"
d=" M 41.24 234.26 C 56.00 219.53 56.00 219.53 56.00 210.26 C 56.00 201.00 56.00 201.00 62.00 201.00 C 68.00 201.00 68.00 201.00 68.00 225.00 C 68.00 249.00 68.00 249.00 108.00 249.00 C 148.00 249.00 148.00 249.00 148.00 237.00 C 148.00 225.00 148.00 225.00 132.50 225.00 C 117.00 225.00 117.00 225.00 117.00 213.00 C 117.00 201.00 117.00 201.00 182.50 201.00 C 248.00 201.00 248.00 201.00 248.00 189.00 C 248.00 177.00 248.00 177.00 152.00 177.00 C 56.00 177.00 56.00 177.00 56.00 173.00 C 56.00 169.00 56.00 169.00 150.50 169.00 C 245.00 169.00 245.00 169.00 245.00 157.00 C 245.00 145.00 245.00 145.00 150.50 145.00 C 56.00 145.00 56.00 145.00 56.00 141.50 C 56.00 138.00 56.00 138.00 152.00 138.00 C 248.00 138.00 248.00 138.00 248.00 125.99 C 248.00 113.99 248.00 113.99 155.83 114.24 C 63.67 114.50 63.67 114.50 59.93 125.50 C 56.20 136.50 56.20 136.50 55.85 125.50 C 55.50 114.50 55.50 114.50 32.75 114.23 C 10.00 113.96 10.00 113.96 10.00 169.48 C 10.00 219.23 9.84 225.00 8.43 225.00 C 7.41 225.00 7.04 225.61 7.38 226.75 C 7.66 227.71 8.62 231.43 9.51 235.00 C 13.38 250.60 12.20 249.00 19.78 249.00 C 26.48 249.00 26.48 249.00 41.24 234.26 Z  M 243.53 240.25 C 244.96 235.44 246.55 230.20 247.06 228.60 C 247.58 227.01 248.00 225.54 248.00 225.35 C 248.00 225.16 241.53 225.00 233.62 225.00 C 222.06 225.00 219.00 224.71 218.00 223.50 C 216.90 222.18 218.44 222.00 230.88 222.00 C 245.00 222.00 245.00 222.00 245.00 214.00 C 245.00 206.00 245.00 206.00 196.50 206.00 C 148.00 206.00 148.00 206.00 148.02 209.75 C 148.04 213.23 149.25 214.76 165.11 231.25 C 182.18 249.00 182.18 249.00 211.56 249.00 C 240.94 249.00 240.94 249.00 243.53 240.25 Z  M 60.00 87.50 C 60.00 67.00 60.00 67.00 82.00 67.00 C 104.00 67.00 104.00 67.00 104.00 87.50 C 104.00 108.00 104.00 108.00 127.50 108.00 C 151.00 108.00 151.00 108.00 151.00 87.50 C 151.00 67.00 151.00 67.00 173.00 67.00 C 195.00 67.00 195.00 67.00 195.00 87.50 C 195.00 108.00 195.00 108.00 219.00 108.00 C 243.00 108.00 243.00 108.00 243.00 75.51 C 243.00 43.02 243.00 43.02 197.25 42.76 C 151.50 42.50 151.50 42.50 151.19 39.25 C 150.87 36.00 150.87 36.00 199.44 36.00 C 248.00 36.00 248.00 36.00 248.00 24.00 C 248.00 12.00 248.00 12.00 127.50 12.00 C 7.00 12.00 7.00 12.00 7.00 24.00 C 7.00 36.00 7.00 36.00 55.56 36.00 C 104.13 36.00 104.13 36.00 103.81 39.25 C 103.50 42.50 103.50 42.50 85.46 42.77 C 67.42 43.04 67.42 43.04 63.80 53.77 C 60.17 64.50 60.17 64.50 60.09 53.75 C 60.00 43.00 60.00 43.00 36.00 43.00 C 12.00 43.00 12.00 43.00 12.00 75.50 C 12.00 108.00 12.00 108.00 36.00 108.00 C 60.00 108.00 60.00 108.00 60.00 87.50 Z  M 100.94 106.75 C 100.90 106.06 99.64 102.35 98.14 98.50 C 95.41 91.50 95.41 91.50 78.63 91.23 C 65.41 91.01 61.92 91.22 62.18 92.23 C 62.37 92.93 63.62 96.76 64.96 100.75 C 67.39 108.00 67.39 108.00 84.20 108.00 C 97.01 108.00 100.99 107.70 100.94 106.75 Z  M 193.00 107.69 C 193.00 107.53 191.70 103.81 190.10 99.44 C 187.21 91.50 187.21 91.50 170.60 91.23 C 158.88 91.03 154.00 91.28 154.00 92.07 C 154.00 92.68 155.18 96.52 156.63 100.59 C 159.26 108.00 159.26 108.00 176.13 108.00 C 185.41 108.00 193.00 107.86 193.00 107.69 Z  M 101.00 87.06 C 101.00 86.54 99.82 82.94 98.38 79.06 C 95.77 72.00 95.77 72.00 78.88 72.00 C 69.60 72.00 62.00 72.11 62.00 72.25 C 62.00 72.47 63.45 76.32 66.89 85.25 C 67.95 88.00 67.95 88.00 84.48 88.00 C 94.16 88.00 101.00 87.61 101.00 87.06 Z  M 192.76 86.75 C 192.51 86.06 191.23 82.46 189.91 78.75 C 187.52 72.00 187.52 72.00 170.76 72.00 C 161.54 72.00 154.00 72.34 154.00 72.75 C 154.00 73.72 157.85 83.85 159.11 86.20 C 159.98 87.82 161.71 88.00 176.64 88.00 C 189.47 88.00 193.11 87.72 192.76 86.75 Z "/>
</g>
</svg>