<?xml version="1.0" encoding="UTF-8" standalone="no"?>
<!DOCTYPE svg PUBLIC "-//W3C//DTD SVG 1.1//EN" "http://www.w3.org/Graphics/SVG/1.1/DTD/svg11.dtd" >
<svg xmlns="http://www.w3.org/2000/svg" xmlns:xlink="http://www.w3.org/1999/xlink" version="1.1" viewBox="0 0 256 256">
 <g >
 <path fill="currentColor"
d=" M 235.00 189.49 C 235.00 132.98 235.00 132.98 183.25 133.24 C 131.50 133.50 131.50 133.50 131.21 154.50 C 130.92 175.50 130.92 175.50 120.71 181.55 C 110.50 187.59 110.50 187.59 110.23 216.80 C 109.97 246.00 109.97 246.00 172.48 246.00 C 235.00 246.00 235.00 246.00 235.00 189.49 Z  M 55.00 197.51 C 71.78 193.21 85.88 189.36 86.35 188.94 C 86.82 188.53 82.21 179.09 76.10 167.97 C 70.00 156.84 65.00 147.59 65.00 147.41 C 65.00 147.23 68.37 144.58 72.50 141.53 C 80.00 135.99 80.00 135.99 80.00 107.99 C 80.00 80.00 80.00 80.00 86.00 80.00 C 92.00 80.00 92.00 80.00 92.00 70.00 C 92.00 60.00 92.00 60.00 86.00 60.00 C 80.00 60.00 80.00 60.00 80.00 37.00 C 80.00 14.00 80.00 14.00 57.52 14.00 C 35.04 14.00 35.04 14.00 34.77 36.75 C 34.50 59.50 34.50 59.50 22.75 59.78 C 11.00 60.06 11.00 60.06 11.00 81.03 C 11.00 102.00 11.00 102.00 23.02 102.00 C 35.03 102.00 35.03 102.00 34.77 128.66 C 34.50 155.31 34.50 155.31 23.58 158.16 C 17.57 159.73 12.51 161.15 12.33 161.33 C 12.03 161.63 20.36 200.13 21.63 204.32 C 21.93 205.32 22.70 205.96 23.34 205.73 C 23.98 205.50 38.23 201.80 55.00 197.51 Z  M 109.81 178.19 C 123.00 170.87 123.00 170.87 123.00 147.44 C 123.00 124.00 123.00 124.00 182.00 124.00 C 241.00 124.00 241.00 124.00 241.00 126.50 C 241.00 128.33 241.53 129.00 243.00 129.00 C 244.93 129.00 245.00 128.33 245.00 108.50 C 245.00 88.00 245.00 88.00 231.50 88.00 C 224.07 88.00 218.00 87.78 218.00 87.51 C 218.00 87.24 224.53 76.37 232.51 63.36 C 240.50 50.34 246.91 39.60 246.76 39.49 C 246.35 39.17 209.71 19.54 208.86 19.18 C 208.06 18.85 204.00 26.19 204.00 27.96 C 204.00 28.53 204.68 29.00 205.50 29.00 C 206.80 29.00 207.00 32.72 207.00 56.50 C 207.00 84.00 207.00 84.00 192.50 84.00 C 178.00 84.00 178.00 84.00 178.00 81.00 C 178.00 78.00 178.00 78.00 188.50 78.00 C 199.00 78.00 199.00 78.00 199.00 57.03 C 199.00 36.07 199.00 36.07 188.75 35.78 C 178.50 35.50 178.50 35.50 178.22 23.25 C 177.94 11.00 177.94 11.00 155.47 11.00 C 133.00 11.00 133.00 11.00 133.00 23.50 C 133.00 36.00 133.00 36.00 116.00 36.00 C 99.00 36.00 99.00 36.00 99.00 57.00 C 99.00 78.00 99.00 78.00 116.00 78.00 C 133.00 78.00 133.00 78.00 133.00 83.00 C 133.00 88.00 133.00 88.00 110.50 88.00 C 88.00 88.00 88.00 88.00 88.00 108.46 C 88.00 128.92 88.00 128.92 96.15 129.21 C 104.30 129.50 104.30 129.50 89.58 139.30 C 81.49 144.69 75.01 149.44 75.18 149.85 C 76.59 153.21 95.63 185.94 96.06 185.75 C 96.37 185.61 102.56 182.21 109.81 178.19 Z  M 163.87 215.16 C 157.50 212.58 152.62 208.66 149.02 203.21 C 135.66 183.04 149.20 156.71 173.02 156.54 C 185.53 156.46 198.75 165.70 202.57 177.21 C 206.13 187.93 202.57 201.78 194.42 208.94 C 186.33 216.04 172.82 218.79 163.87 215.16 Z  M 181.71 208.49 C 187.29 206.84 193.12 201.35 195.60 195.42 C 197.56 190.71 197.34 181.33 195.14 176.49 C 192.67 171.06 187.10 166.40 180.83 164.54 C 174.35 162.62 172.65 162.62 166.17 164.54 C 156.55 167.40 150.84 175.60 150.78 186.68 C 150.73 197.26 156.11 205.13 165.75 208.57 C 170.72 210.35 175.54 210.32 181.71 208.49 Z "/>
</g>
</svg>