<?xml version="1.0" encoding="UTF-8" standalone="no"?>
<!DOCTYPE svg PUBLIC "-//W3C//DTD SVG 1.1//EN" "http://www.w3.org/Graphics/SVG/1.1/DTD/svg11.dtd" >
<svg xmlns="http://www.w3.org/2000/svg" xmlns:xlink="http://www.w3.org/1999/xlink" version="1.1" viewBox="0 0 256 256">
 <g >
 <path fill="currentColor"
d=" M 243.00 219.00 C 243.00 195.00 243.00 195.00 198.00 195.00 C 153.00 195.00 153.00 195.00 153.00 143.47 C 153.00 91.94 153.00 91.94 165.02 75.97 C 177.05 60.00 177.05 60.00 208.52 60.00 C 240.00 60.00 240.00 60.00 240.00 37.00 C 240.00 14.00 240.00 14.00 129.16 14.00 C 18.31 14.00 18.31 14.00 17.66 29.16 C 17.30 37.50 17.00 47.85 17.00 52.16 C 17.00 60.00 17.00 60.00 61.56 60.00 C 106.12 60.00 106.12 60.00 101.31 65.60 C 88.20 80.88 57.10 100.20 23.50 113.92 C 16.35 116.84 10.40 119.32 10.27 119.42 C 9.95 119.70 31.01 166.36 31.82 167.17 C 32.66 168.00 70.79 149.32 85.00 141.10 C 90.78 137.76 95.84 135.03 96.25 135.02 C 96.66 135.01 97.00 148.50 97.00 165.00 C 97.00 195.00 97.00 195.00 54.00 195.00 C 11.00 195.00 11.00 195.00 11.00 219.00 C 11.00 243.00 11.00 243.00 127.00 243.00 C 243.00 243.00 243.00 243.00 243.00 219.00 Z  M 215.50 154.45 C 222.19 151.07 226.35 146.62 229.90 139.05 C 233.47 131.42 233.56 119.78 230.09 112.71 C 226.87 106.13 220.53 99.90 213.66 96.54 C 202.79 91.22 187.72 93.65 178.98 102.14 C 173.66 107.30 169.60 116.00 169.71 122.00 C 169.82 128.22 174.74 142.51 178.45 147.37 C 186.50 157.93 202.57 161.00 215.50 154.45 Z "/>
</g>
</svg>