<?xml version="1.0" encoding="UTF-8" standalone="no"?>
<!DOCTYPE svg PUBLIC "-//W3C//DTD SVG 1.1//EN" "http://www.w3.org/Graphics/SVG/1.1/DTD/svg11.dtd" >
<svg xmlns="http://www.w3.org/2000/svg" xmlns:xlink="http://www.w3.org/1999/xlink" version="1.1" viewBox="0 0 256 256">
 <g >
 <path fill="currentColor"
d=" M 231.42 242.75 C 239.09 217.23 243.87 200.54 243.59 200.26 C 243.42 200.08 237.92 199.05 231.39 197.96 C 224.85 196.87 215.90 195.29 211.50 194.43 C 203.44 192.87 185.16 187.35 183.72 186.05 C 183.30 185.66 185.57 182.46 188.77 178.92 C 202.20 164.12 207.04 156.93 219.84 132.88 C 226.02 121.27 226.02 121.27 214.43 108.13 C 202.83 95.00 202.83 95.00 179.86 95.00 C 156.89 95.00 156.89 95.00 157.20 90.25 C 157.50 85.50 157.50 85.50 200.25 85.24 C 243.00 84.98 243.00 84.98 243.00 60.00 C 243.00 35.02 243.00 35.02 200.25 34.76 C 157.50 34.50 157.50 34.50 157.22 23.25 C 156.93 12.00 156.93 12.00 127.50 12.00 C 98.07 12.00 98.07 12.00 97.78 23.25 C 97.50 34.50 97.50 34.50 54.25 34.76 C 11.00 35.02 11.00 35.02 11.00 60.00 C 11.00 84.98 11.00 84.98 54.25 85.24 C 97.50 85.50 97.50 85.50 97.80 90.25 C 98.11 95.00 98.11 95.00 65.55 95.00 C 33.00 95.00 33.00 95.00 33.00 112.37 C 33.00 129.74 33.00 129.74 40.28 141.12 C 49.86 156.09 53.98 161.58 64.94 173.99 C 70.21 179.95 73.70 184.70 73.19 185.21 C 71.67 186.73 42.21 193.71 25.50 196.51 C 16.70 197.99 9.40 199.28 9.29 199.39 C 8.99 199.67 20.64 248.97 21.11 249.44 C 21.33 249.65 29.15 248.30 38.50 246.43 C 74.88 239.15 90.78 234.98 113.07 226.89 C 126.65 221.97 126.65 221.97 135.07 225.86 C 150.70 233.07 174.90 240.00 209.00 247.04 C 219.18 249.14 227.82 250.89 228.22 250.93 C 228.61 250.97 230.05 247.29 231.42 242.75 Z  M 124.82 156.32 C 119.66 152.17 109.96 142.69 108.89 140.75 C 107.99 139.11 109.24 139.00 129.21 139.03 C 150.50 139.05 150.50 139.05 141.45 147.88 C 129.63 159.42 129.05 159.72 124.82 156.32 Z "/>
</g>
</svg>