<?xml version="1.0" encoding="UTF-8" standalone="no"?>
<!DOCTYPE svg PUBLIC "-//W3C//DTD SVG 1.1//EN" "http://www.w3.org/Graphics/SVG/1.1/DTD/svg11.dtd" >
<svg xmlns="http://www.w3.org/2000/svg" xmlns:xlink="http://www.w3.org/1999/xlink" version="1.1" viewBox="0 0 256 256">
 <g >
 <path fill="currentColor"
d=" M 146.00 219.50 C 146.00 197.00 146.00 197.00 137.00 197.00 C 128.00 197.00 128.00 197.00 128.00 125.00 C 128.00 53.00 128.00 53.00 172.50 53.00 C 217.00 53.00 217.00 53.00 217.00 125.00 C 217.00 197.00 217.00 197.00 197.50 197.00 C 178.00 197.00 178.00 197.00 178.00 219.58 C 178.00 242.16 178.00 242.16 201.25 241.83 C 222.32 241.53 224.87 241.31 228.50 239.45 C 233.46 236.92 237.47 229.46 238.96 220.00 C 239.61 215.89 239.99 177.41 239.99 115.25 C 240.00 17.00 240.00 17.00 172.00 17.00 C 104.00 17.00 104.00 17.00 104.00 129.50 C 104.00 242.00 104.00 242.00 125.00 242.00 C 146.00 242.00 146.00 242.00 146.00 219.50 Z  M 46.00 215.00 C 46.00 189.00 46.00 189.00 52.00 189.00 C 58.00 189.00 58.00 189.00 58.00 182.75 C 58.00 176.50 58.00 176.50 52.54 173.65 C 40.80 167.51 35.26 153.41 39.59 140.68 C 41.76 134.31 48.75 126.79 54.97 124.11 C 61.40 121.34 61.73 118.84 55.90 117.09 C 49.94 115.30 43.48 108.91 41.04 102.37 C 35.53 87.65 41.91 71.64 55.32 66.51 C 59.90 64.76 60.00 64.64 60.00 60.36 C 60.00 56.00 60.00 56.00 67.00 56.00 C 74.00 56.00 74.00 56.00 74.00 60.26 C 74.00 64.40 74.15 64.60 79.07 66.93 C 85.19 69.84 89.41 74.71 91.66 81.47 C 96.25 95.28 90.84 109.56 78.53 116.09 C 74.96 117.99 74.00 119.04 74.00 121.06 C 74.00 123.01 74.84 124.03 77.46 125.28 C 82.80 127.83 89.12 134.05 91.26 138.87 C 97.13 152.09 90.48 169.60 77.75 174.46 C 73.24 176.18 73.24 176.18 72.79 184.74 C 72.21 195.83 71.02 197.00 60.39 197.00 C 53.00 197.00 53.00 197.00 53.00 219.00 C 53.00 241.00 53.00 241.00 74.50 241.00 C 96.00 241.00 96.00 241.00 96.00 128.50 C 96.00 16.00 96.00 16.00 58.64 16.00 C 21.29 16.00 21.29 16.00 20.69 86.75 C 19.93 175.57 18.77 191.72 11.02 220.59 C 9.42 226.56 8.23 231.56 8.38 231.71 C 8.63 231.96 43.62 240.68 45.25 240.90 C 45.66 240.95 46.00 229.30 46.00 215.00 Z  M 209.00 145.99 C 209.00 103.98 209.00 103.98 172.25 104.24 C 135.50 104.50 135.50 104.50 135.24 146.25 C 134.98 188.00 134.98 188.00 171.99 188.00 C 209.00 188.00 209.00 188.00 209.00 145.99 Z  M 73.33 168.64 C 77.78 166.78 84.76 158.60 86.08 153.71 C 89.81 139.84 75.23 126.20 60.76 130.05 C 52.95 132.13 46.91 138.32 45.53 145.67 C 44.68 150.23 47.29 159.00 50.72 163.08 C 55.90 169.23 65.97 171.71 73.33 168.64 Z  M 75.48 109.56 C 89.88 101.13 89.77 78.40 75.30 72.35 C 68.68 69.59 57.76 71.24 52.64 75.79 C 49.58 78.51 46.02 87.09 46.01 91.78 C 46.00 96.73 48.14 102.43 51.30 105.87 C 57.03 112.11 68.22 113.82 75.48 109.56 Z  M 210.00 77.50 C 210.00 62.00 210.00 62.00 172.50 62.00 C 135.00 62.00 135.00 62.00 135.00 77.50 C 135.00 93.00 135.00 93.00 172.50 93.00 C 210.00 93.00 210.00 93.00 210.00 77.50 Z  M 163.22 144.75 C 163.50 134.50 163.50 134.50 171.75 134.21 C 180.00 133.92 180.00 133.92 180.00 144.46 C 180.00 155.00 180.00 155.00 171.47 155.00 C 162.93 155.00 162.93 155.00 163.22 144.75 Z "/>
</g>
</svg>