<?xml version="1.0" encoding="UTF-8" standalone="no"?>
<!DOCTYPE svg PUBLIC "-//W3C//DTD SVG 1.1//EN" "http://www.w3.org/Graphics/SVG/1.1/DTD/svg11.dtd" >
<svg xmlns="http://www.w3.org/2000/svg" xmlns:xlink="http://www.w3.org/1999/xlink" version="1.1" viewBox="0 0 256 256">
 <g >
 <path fill="currentColor"
d=" M 116.99 241.51 C 138.37 223.87 148.49 211.78 157.98 192.50 C 165.49 177.24 168.95 165.39 174.63 135.50 C 177.14 122.30 179.40 111.16 179.66 110.75 C 179.91 110.34 184.37 110.00 189.56 110.00 C 199.00 110.00 199.00 110.00 199.00 112.75 C 198.99 114.26 198.09 131.44 196.99 150.93 C 195.47 177.97 194.64 186.90 193.51 188.63 C 191.54 191.64 186.26 192.99 176.47 192.99 C 168.45 193.00 168.43 193.01 166.57 196.25 C 165.55 198.04 162.31 203.17 159.36 207.65 C 154.00 215.81 154.00 215.81 154.00 229.28 C 154.00 242.76 154.00 242.76 177.42 243.49 C 203.70 244.31 213.43 243.71 220.00 240.85 C 232.43 235.45 236.18 224.78 238.94 187.00 C 240.36 167.50 241.76 131.27 242.58 92.77 C 243.26 61.03 243.26 61.03 214.38 60.77 C 185.50 60.50 185.50 60.50 185.88 35.91 C 186.26 11.32 186.26 11.32 176.38 10.66 C 170.95 10.30 159.41 10.01 150.75 10.01 C 135.00 10.00 135.00 10.00 135.00 35.50 C 135.00 61.00 135.00 61.00 116.50 61.00 C 98.00 61.00 98.00 61.00 98.00 85.50 C 98.00 110.00 98.00 110.00 114.00 110.00 C 128.57 110.00 130.00 110.16 129.99 111.75 C 129.98 114.75 126.12 136.17 124.34 143.07 C 122.65 149.64 122.65 149.64 126.97 171.34 C 129.34 183.28 131.01 193.32 130.68 193.66 C 130.34 194.00 119.19 196.45 105.90 199.12 C 81.74 203.97 81.74 203.97 76.62 208.65 C 73.80 211.23 71.06 213.72 70.53 214.19 C 69.94 214.70 76.64 222.13 87.48 232.98 C 102.61 248.13 105.64 250.73 106.95 249.71 C 107.80 249.05 112.32 245.36 116.99 241.51 Z  M 72.78 196.51 C 98.23 191.43 119.34 187.00 119.68 186.65 C 120.25 186.08 112.37 142.41 111.43 140.89 C 111.22 140.54 106.65 141.08 101.27 142.09 C 95.90 143.09 90.94 143.93 90.25 143.96 C 89.27 143.99 89.00 134.16 89.00 98.02 C 89.00 52.05 89.00 52.05 105.75 51.77 C 122.50 51.50 122.50 51.50 122.79 44.25 C 123.09 37.00 123.09 37.00 68.54 37.00 C 14.00 37.00 14.00 37.00 14.00 60.97 C 14.00 84.95 14.00 84.95 28.25 85.22 C 42.50 85.50 42.50 85.50 42.76 118.18 C 43.01 148.67 42.91 150.89 41.26 151.37 C 40.29 151.65 32.98 153.06 25.02 154.50 C 17.06 155.95 10.42 157.25 10.27 157.39 C 10.05 157.62 17.98 198.35 19.50 204.72 C 19.95 206.63 20.49 206.86 23.26 206.34 C 25.04 206.00 47.32 201.58 72.78 196.51 Z "/>
</g>
</svg>