<?xml version="1.0" encoding="UTF-8" standalone="no"?>
<!DOCTYPE svg PUBLIC "-//W3C//DTD SVG 1.1//EN" "http://www.w3.org/Graphics/SVG/1.1/DTD/svg11.dtd" >
<svg xmlns="http://www.w3.org/2000/svg" xmlns:xlink="http://www.w3.org/1999/xlink" version="1.1" viewBox="0 0 256 256">
 <g >
 <path fill="currentColor"
d=" M 141.00 233.34 C 147.75 239.59 151.97 241.77 159.77 243.05 C 162.92 243.57 182.71 243.99 203.75 243.99 C 242.00 244.00 242.00 244.00 242.00 220.50 C 242.00 197.00 242.00 197.00 229.50 197.00 C 217.00 197.00 217.00 197.00 217.00 205.50 C 217.00 214.00 217.00 214.00 191.00 214.00 C 165.00 214.00 165.00 214.00 165.00 205.50 C 165.00 197.18 164.95 197.00 162.58 197.00 C 160.98 197.00 159.03 198.36 156.80 201.05 C 153.43 205.11 153.43 205.11 137.97 187.85 C 129.46 178.36 121.68 169.55 120.67 168.29 C 118.84 165.99 118.85 165.97 126.75 156.74 C 131.09 151.66 137.67 143.45 141.35 138.50 C 148.05 129.50 148.05 129.50 141.52 129.20 C 135.00 128.91 135.00 128.91 135.00 110.95 C 135.00 93.00 135.00 93.00 120.50 93.00 C 106.00 93.00 106.00 93.00 106.00 112.95 C 106.00 132.90 106.00 132.90 111.25 133.20 C 116.50 133.50 116.50 133.50 116.77 161.71 C 117.03 189.93 117.03 189.93 108.26 197.21 C 103.44 201.22 97.02 206.27 93.99 208.44 C 90.97 210.60 88.32 212.51 88.10 212.68 C 87.87 212.84 92.59 220.35 98.58 229.36 C 109.46 245.75 109.46 245.75 122.37 236.90 C 135.28 228.04 135.28 228.04 141.00 233.34 Z  M 97.00 242.39 C 97.00 242.06 92.66 234.84 87.36 226.35 C 79.02 213.00 77.93 210.76 79.25 209.71 C 80.09 209.05 87.37 203.15 95.41 196.61 C 110.04 184.72 110.04 184.72 109.77 162.61 C 109.50 140.50 109.50 140.50 103.75 140.20 C 98.00 139.90 98.00 139.90 98.00 113.45 C 98.00 87.00 98.00 87.00 105.05 87.00 C 112.11 87.00 112.11 87.00 111.80 82.25 C 111.51 77.62 111.34 77.39 105.00 73.19 C 101.42 70.81 94.11 66.16 88.75 62.84 C 83.39 59.52 79.00 56.62 79.00 56.39 C 79.00 56.16 83.95 48.07 90.00 38.41 C 96.05 28.75 101.00 20.66 101.00 20.43 C 101.00 20.19 79.62 20.00 53.50 20.00 C 6.00 20.00 6.00 20.00 6.00 41.00 C 6.00 62.00 6.00 62.00 17.55 62.00 C 29.10 62.00 29.10 62.00 28.80 67.25 C 28.50 72.50 28.50 72.50 19.75 72.79 C 11.00 73.08 11.00 73.08 11.00 158.04 C 11.00 243.00 11.00 243.00 54.00 243.00 C 77.65 243.00 97.00 242.73 97.00 242.39 Z  M 210.00 191.00 C 210.00 182.20 210.31 175.00 210.68 175.00 C 211.05 175.00 214.86 178.41 219.14 182.58 C 226.93 190.16 226.93 190.16 234.64 180.83 C 252.04 159.77 250.88 163.22 243.36 154.87 C 236.03 146.73 218.05 123.93 218.02 122.75 C 218.01 122.34 222.28 122.00 227.50 122.00 C 237.00 122.00 237.00 122.00 237.00 105.00 C 237.00 88.00 237.00 88.00 223.50 88.00 C 210.00 88.00 210.00 88.00 210.00 83.69 C 210.00 79.74 209.64 79.13 205.61 76.29 C 202.44 74.06 200.32 71.37 197.98 66.61 C 194.99 60.54 194.77 59.44 195.21 52.63 C 195.80 43.48 200.52 33.89 206.32 30.08 C 210.00 27.66 210.00 27.66 210.00 19.83 C 210.00 12.00 210.00 12.00 190.50 12.00 C 171.00 12.00 171.00 12.00 171.00 19.37 C 171.00 26.73 171.00 26.73 174.92 29.33 C 183.01 34.68 187.00 43.06 187.00 54.70 C 187.00 62.98 184.77 67.33 177.02 74.15 C 171.44 79.06 171.00 79.75 171.00 83.70 C 171.00 87.95 171.00 87.95 156.75 88.22 C 142.50 88.50 142.50 88.50 142.23 105.21 C 141.95 121.93 141.95 121.93 152.13 122.21 C 162.30 122.50 162.30 122.50 151.83 136.50 C 146.07 144.20 138.59 153.65 135.20 157.50 C 131.81 161.35 129.03 164.77 129.02 165.10 C 129.01 165.43 134.51 171.89 141.24 179.45 C 153.49 193.19 153.49 193.19 162.21 183.85 C 170.93 174.50 170.93 174.50 170.96 190.75 C 171.00 207.00 171.00 207.00 190.50 207.00 C 210.00 207.00 210.00 207.00 210.00 191.00 Z  M 137.40 80.97 C 140.07 76.94 140.07 76.94 136.09 72.22 C 133.90 69.62 131.41 65.82 130.55 63.78 C 128.55 58.99 128.52 45.47 130.50 42.00 C 131.29 40.62 131.95 39.01 131.96 38.40 C 132.01 36.85 108.92 21.66 108.03 22.67 C 106.30 24.62 88.96 54.29 89.32 54.66 C 90.24 55.58 133.55 84.82 134.12 84.91 C 134.46 84.96 135.93 83.19 137.40 80.97 Z  M 166.79 72.09 C 178.19 66.23 182.24 53.53 176.23 42.50 C 169.29 29.77 150.03 28.42 140.82 40.02 C 133.35 49.43 136.62 65.06 147.41 71.53 C 152.63 74.66 161.31 74.91 166.79 72.09 Z  M 233.79 72.10 C 249.31 64.14 248.63 41.81 232.64 34.07 C 227.71 31.68 220.44 31.37 215.72 33.35 C 204.21 38.17 199.51 55.50 206.94 65.76 C 212.54 73.49 225.23 76.49 233.79 72.10 Z  M 45.00 195.00 C 45.00 189.00 45.00 189.00 63.50 189.00 C 82.00 189.00 82.00 189.00 82.00 195.00 C 82.00 201.00 82.00 201.00 63.50 201.00 C 45.00 201.00 45.00 201.00 45.00 195.00 Z  M 37.00 130.50 C 37.00 107.00 37.00 107.00 42.00 107.00 C 47.00 107.00 47.00 107.00 47.00 130.50 C 47.00 154.00 47.00 154.00 42.00 154.00 C 37.00 154.00 37.00 154.00 37.00 130.50 Z  M 60.00 130.45 C 60.00 106.89 60.00 106.89 64.75 107.20 C 69.50 107.50 69.50 107.50 69.77 130.75 C 70.04 154.00 70.04 154.00 65.02 154.00 C 60.00 154.00 60.00 154.00 60.00 130.45 Z  M 82.00 130.45 C 82.00 106.89 82.00 106.89 86.75 107.20 C 91.50 107.50 91.50 107.50 91.77 130.75 C 92.04 154.00 92.04 154.00 87.02 154.00 C 82.00 154.00 82.00 154.00 82.00 130.45 Z  M 60.00 67.55 C 60.00 62.00 60.00 62.00 65.05 62.00 C 70.10 62.00 70.10 62.00 69.80 67.25 C 69.50 72.50 69.50 72.50 64.75 72.80 C 60.00 73.11 60.00 73.11 60.00 67.55 Z "/>
</g>
</svg>