<?xml version="1.0" encoding="UTF-8" standalone="no"?>
<!DOCTYPE svg PUBLIC "-//W3C//DTD SVG 1.1//EN" "http://www.w3.org/Graphics/SVG/1.1/DTD/svg11.dtd" >
<svg xmlns="http://www.w3.org/2000/svg" xmlns:xlink="http://www.w3.org/1999/xlink" version="1.1" viewBox="0 0 256 256">
 <g >
 <path fill="currentColor"
d=" M 60.00 232.00 C 60.00 221.00 60.00 221.00 55.00 221.00 C 50.00 221.00 50.00 221.00 50.00 174.00 C 50.00 127.00 50.00 127.00 54.01 127.00 C 58.03 127.00 58.03 127.00 57.76 95.36 C 57.50 63.73 57.50 63.73 52.08 62.34 C 49.10 61.58 45.22 60.06 43.46 58.98 C 40.70 57.27 38.47 57.00 27.13 57.00 C 14.00 57.00 14.00 57.00 14.00 150.00 C 14.00 243.00 14.00 243.00 37.00 243.00 C 60.00 243.00 60.00 243.00 60.00 232.00 Z  M 225.28 240.10 C 230.44 238.45 235.92 233.40 238.42 228.00 C 240.48 223.54 240.50 222.48 240.78 119.75 C 241.05 16.00 241.05 16.00 169.03 16.00 C 97.00 16.00 97.00 16.00 97.00 31.00 C 97.00 46.00 97.00 46.00 146.50 46.00 C 196.00 46.00 196.00 46.00 196.00 86.50 C 196.00 127.00 196.00 127.00 199.50 127.00 C 203.00 127.00 203.00 127.00 203.00 174.00 C 203.00 221.00 203.00 221.00 180.00 221.00 C 157.00 221.00 157.00 221.00 157.00 231.58 C 157.00 242.17 157.00 242.17 189.25 241.74 C 210.67 241.46 222.77 240.91 225.28 240.10 Z  M 194.00 173.50 C 194.00 134.00 194.00 134.00 126.00 134.00 C 58.00 134.00 58.00 134.00 58.00 173.50 C 58.00 213.00 58.00 213.00 126.00 213.00 C 194.00 213.00 194.00 213.00 194.00 173.50 Z  M 188.00 90.50 C 188.00 54.00 188.00 54.00 135.62 54.00 C 88.91 54.00 83.10 54.17 81.92 55.59 C 80.08 57.81 70.88 62.98 68.75 62.99 C 67.12 63.00 67.00 65.19 67.00 95.00 C 67.00 127.00 67.00 127.00 127.50 127.00 C 188.00 127.00 188.00 127.00 188.00 90.50 Z  M 70.72 52.82 C 75.89 50.41 80.57 44.28 82.63 37.20 C 86.52 23.82 76.40 9.57 62.07 8.27 C 51.84 7.34 44.94 11.12 39.30 20.75 C 34.43 29.06 36.27 40.18 43.86 48.34 C 50.69 55.68 60.92 57.39 70.72 52.82 Z  M 98.00 187.00 C 98.00 183.00 98.00 183.00 124.50 183.00 C 151.00 183.00 151.00 183.00 151.00 187.00 C 151.00 191.00 151.00 191.00 124.50 191.00 C 98.00 191.00 98.00 191.00 98.00 187.00 Z  M 98.00 163.00 C 98.00 159.00 98.00 159.00 124.50 159.00 C 151.00 159.00 151.00 159.00 151.00 163.00 C 151.00 167.00 151.00 167.00 124.50 167.00 C 98.00 167.00 98.00 167.00 98.00 163.00 Z  M 104.00 104.00 C 104.00 100.00 104.00 100.00 126.00 100.00 C 148.00 100.00 148.00 100.00 148.00 104.00 C 148.00 108.00 148.00 108.00 126.00 108.00 C 104.00 108.00 104.00 108.00 104.00 104.00 Z  M 104.00 80.50 C 104.00 77.00 104.00 77.00 126.00 77.00 C 148.00 77.00 148.00 77.00 148.00 80.50 C 148.00 84.00 148.00 84.00 126.00 84.00 C 104.00 84.00 104.00 84.00 104.00 80.50 Z "/>
</g>
</svg>