<?xml version="1.0" encoding="UTF-8" standalone="no"?>
<!DOCTYPE svg PUBLIC "-//W3C//DTD SVG 1.1//EN" "http://www.w3.org/Graphics/SVG/1.1/DTD/svg11.dtd" >
<svg xmlns="http://www.w3.org/2000/svg" xmlns:xlink="http://www.w3.org/1999/xlink" version="1.1" viewBox="0 0 256 256">
 <g >
 <path fill="currentColor"
d=" M 163.48 247.46 C 179.96 246.66 194.33 246.00 195.41 246.00 C 196.53 246.00 191.91 242.29 184.67 237.36 C 171.97 228.72 171.97 228.72 172.46 224.11 C 172.74 221.58 173.47 205.78 174.10 189.00 C 174.72 172.22 175.29 158.44 175.37 158.36 C 176.03 157.67 198.63 156.46 199.03 157.09 C 199.33 157.55 200.59 166.24 201.83 176.41 C 204.09 194.89 204.09 194.89 201.47 200.07 C 200.02 202.91 198.48 204.85 198.03 204.37 C 197.58 203.89 195.29 197.31 192.94 189.75 C 190.59 182.19 188.54 176.12 188.40 176.27 C 188.25 176.42 186.96 186.21 185.54 198.02 C 184.12 209.83 182.72 220.56 182.43 221.87 C 181.90 224.23 181.90 224.23 197.70 223.63 C 206.39 223.29 221.27 222.74 230.77 222.40 C 248.04 221.77 248.04 221.77 242.01 210.44 C 235.98 199.12 235.98 199.12 238.07 172.31 C 239.70 151.46 240.91 142.06 243.51 130.01 C 245.35 121.49 246.70 114.36 246.50 114.17 C 246.30 113.97 240.03 116.55 232.55 119.90 C 218.97 126.00 218.97 126.00 197.87 126.00 C 176.77 126.00 176.77 126.00 177.37 123.75 C 177.70 122.51 177.98 118.58 178.00 115.00 C 178.02 108.50 178.02 108.50 187.63 100.50 C 197.24 92.50 197.24 92.50 184.87 92.26 C 178.07 92.12 158.79 92.35 142.03 92.76 C 111.57 93.50 111.57 93.50 122.78 102.78 C 134.00 112.06 134.00 112.06 134.00 119.03 C 134.00 126.00 134.00 126.00 116.25 125.94 C 106.49 125.91 96.81 125.57 94.74 125.19 C 90.99 124.50 90.99 124.50 100.32 105.00 C 109.64 85.50 109.64 85.50 170.57 83.10 C 204.08 81.77 231.65 80.57 231.83 80.43 C 232.02 80.29 235.49 65.39 239.56 47.33 C 243.62 29.28 247.21 13.38 247.53 12.00 C 247.93 10.27 241.86 15.73 227.80 29.75 C 207.48 50.00 207.48 50.00 167.24 50.00 C 145.11 50.00 127.00 49.68 127.00 49.29 C 127.00 48.90 128.66 44.56 130.69 39.66 C 134.39 30.75 134.39 30.75 145.83 23.13 C 156.80 15.82 157.15 15.48 154.39 14.81 C 150.98 13.98 57.91 7.76 57.34 8.32 C 57.13 8.54 62.59 13.08 69.48 18.42 C 76.37 23.77 82.01 28.67 82.01 29.32 C 82.02 29.97 80.60 34.66 78.85 39.75 C 75.67 49.00 75.67 49.00 57.94 49.00 C 40.21 49.00 40.21 49.00 25.48 34.77 C 12.91 22.64 10.83 20.98 11.35 23.52 C 11.68 25.16 14.00 39.55 16.49 55.50 C 18.98 71.45 21.26 85.57 21.56 86.88 C 22.10 89.25 22.10 89.25 41.05 88.52 C 51.47 88.12 60.00 88.18 60.00 88.65 C 60.01 90.11 30.53 167.96 29.96 167.98 C 29.67 167.99 27.87 161.81 25.96 154.25 C 24.06 146.69 22.37 140.02 22.21 139.43 C 22.05 138.84 25.96 133.45 30.90 127.45 C 35.84 121.46 39.71 116.38 39.50 116.17 C 39.18 115.85 8.04 125.82 7.20 126.52 C 6.80 126.85 9.90 206.23 10.33 206.66 C 10.92 207.25 51.22 209.11 51.75 208.58 C 52.04 208.29 57.41 196.91 63.70 183.28 C 75.36 158.01 77.43 154.18 76.55 159.53 C 76.28 161.16 75.54 172.62 74.91 185.00 C 73.66 209.57 74.25 207.41 66.16 216.91 C 61.81 222.00 61.81 222.00 75.66 221.87 C 83.27 221.79 98.15 221.46 108.73 221.12 C 127.96 220.50 127.96 220.50 122.85 214.52 C 114.89 205.19 115.26 206.57 114.48 183.35 C 113.71 160.18 112.23 162.09 132.00 160.68 C 134.50 160.50 134.50 160.50 135.38 194.34 C 136.26 228.19 136.26 228.19 130.37 234.34 C 113.86 251.61 114.41 250.17 124.50 249.51 C 129.45 249.18 146.99 248.26 163.48 247.46 Z "/>
</g>
</svg>