<?xml version="1.0" encoding="UTF-8" standalone="no"?>
<!DOCTYPE svg PUBLIC "-//W3C//DTD SVG 1.1//EN" "http://www.w3.org/Graphics/SVG/1.1/DTD/svg11.dtd" >
<svg xmlns="http://www.w3.org/2000/svg" xmlns:xlink="http://www.w3.org/1999/xlink" version="1.1" viewBox="0 0 256 256">
 <g >
 <path fill="currentColor"
d=" M 193.94 248.72 C 193.09 248.05 186.22 242.15 178.69 235.60 C 165.00 223.71 165.00 223.71 165.00 193.35 C 165.00 163.00 165.00 163.00 183.50 163.00 C 202.00 163.00 202.00 163.00 202.00 175.46 C 202.00 186.76 201.82 188.03 200.07 188.96 C 199.00 189.53 197.91 190.00 197.64 190.00 C 197.37 190.00 194.15 185.69 190.48 180.43 C 186.81 175.17 183.69 171.00 183.56 171.18 C 183.28 171.54 185.12 215.37 185.43 215.73 C 185.59 215.92 244.50 219.98 247.26 220.00 C 247.67 220.00 245.50 216.11 242.44 211.36 C 236.86 202.72 236.86 202.72 237.59 173.11 C 238.31 143.50 238.31 143.50 242.52 130.00 C 244.84 122.58 246.62 116.36 246.48 116.19 C 246.33 116.02 240.43 118.66 233.36 122.05 C 220.50 128.21 220.50 128.21 200.50 129.56 C 189.50 130.30 178.54 130.92 176.14 130.95 C 171.33 131.01 170.66 131.89 184.81 119.42 C 188.13 116.50 188.13 116.50 155.31 116.84 C 137.27 117.03 122.32 117.36 122.09 117.58 C 121.87 117.80 122.65 121.53 123.84 125.86 C 125.90 133.39 126.00 135.74 126.00 178.65 C 126.00 223.56 126.00 223.56 116.46 235.03 C 106.93 246.50 106.93 246.50 110.57 246.82 C 114.31 247.14 180.07 249.64 190.00 249.83 C 194.50 249.92 195.22 249.71 193.94 248.72 Z  M 28.00 231.59 C 44.19 228.25 45.14 228.17 78.06 227.47 C 111.62 226.75 111.62 226.75 114.34 198.12 C 115.83 182.38 117.04 168.67 117.03 167.65 C 117.01 166.51 112.80 170.76 105.98 178.80 C 93.60 193.40 97.31 191.92 68.91 193.59 C 58.31 194.22 58.31 194.22 57.66 186.46 C 57.30 182.19 57.00 173.63 57.00 167.44 C 57.00 156.19 57.00 156.19 85.00 156.75 C 113.00 157.30 113.00 157.30 113.01 135.40 C 113.02 123.36 113.30 112.49 113.63 111.25 C 114.23 109.00 114.23 109.00 164.87 108.99 C 192.71 108.99 217.89 108.70 220.81 108.34 C 226.13 107.71 226.13 107.71 222.05 103.55 C 217.97 99.39 217.97 99.39 218.64 64.85 C 219.32 30.31 219.32 30.31 227.04 19.41 C 231.29 13.41 234.66 8.37 234.51 8.21 C 234.37 8.05 225.54 9.26 214.88 10.89 C 195.50 13.86 195.50 13.86 121.76 14.39 C 50.73 14.91 47.62 14.85 36.91 12.90 C 30.80 11.78 25.65 11.01 25.48 11.19 C 25.30 11.37 27.82 17.75 31.09 25.37 C 37.02 39.23 37.02 39.23 36.41 66.37 C 35.79 93.50 35.79 93.50 30.34 101.82 C 24.89 110.14 24.89 110.14 66.45 109.82 C 89.30 109.64 108.00 109.71 108.00 109.97 C 108.00 110.23 105.20 113.27 101.78 116.72 C 95.56 123.00 95.56 123.00 68.43 123.00 C 42.26 123.00 40.80 122.90 26.50 120.00 C 18.35 118.35 11.12 117.00 10.43 117.00 C 9.64 117.00 10.97 121.24 14.09 128.61 C 19.00 140.23 19.00 140.23 19.00 173.09 C 19.00 205.96 19.00 205.96 14.90 216.23 C 6.03 238.43 6.71 236.10 9.26 235.52 C 10.49 235.24 18.93 233.47 28.00 231.59 Z  M 77.00 76.65 C 77.00 73.70 77.42 72.96 79.25 72.59 C 81.47 72.14 149.46 69.94 159.81 69.98 C 164.83 70.00 165.41 69.72 170.47 64.94 C 173.41 62.16 176.03 60.25 176.29 60.69 C 176.55 61.14 177.08 65.44 177.47 70.25 C 178.18 79.00 178.18 79.00 131.34 79.01 C 105.58 79.02 82.81 79.30 80.75 79.64 C 77.00 80.26 77.00 80.26 77.00 76.65 Z  M 75.00 51.26 C 75.00 47.21 75.00 47.21 92.25 46.54 C 101.74 46.18 124.35 46.02 142.50 46.19 C 175.50 46.50 175.50 46.50 175.81 50.25 C 176.12 54.00 176.12 54.00 136.22 54.00 C 114.27 54.00 91.52 54.29 85.66 54.65 C 75.00 55.30 75.00 55.30 75.00 51.26 Z "/>
</g>
</svg>