<?xml version="1.0" encoding="UTF-8" standalone="no"?>
<!DOCTYPE svg PUBLIC "-//W3C//DTD SVG 1.1//EN" "http://www.w3.org/Graphics/SVG/1.1/DTD/svg11.dtd" >
<svg xmlns="http://www.w3.org/2000/svg" xmlns:xlink="http://www.w3.org/1999/xlink" version="1.1" viewBox="0 0 256 256">
 <g >
 <path fill="currentColor"
d=" M 92.16 246.49 C 99.13 245.67 105.12 245.00 105.48 245.00 C 105.84 245.00 105.85 245.90 105.50 247.00 C 104.88 248.96 105.32 249.00 127.93 249.00 C 140.62 249.00 151.00 248.69 151.00 248.31 C 151.00 247.94 150.13 244.45 149.06 240.56 C 147.63 235.38 147.04 229.48 146.81 218.34 C 146.50 203.18 146.50 203.18 149.95 202.62 C 151.84 202.31 153.64 202.31 153.95 202.62 C 154.25 202.92 154.50 213.26 154.50 225.59 C 154.50 239.91 154.86 247.98 155.50 247.94 C 156.05 247.90 160.32 246.39 165.00 244.57 C 173.50 241.27 173.50 241.27 173.77 220.64 C 173.92 209.29 174.44 200.00 174.94 200.00 C 175.43 200.00 176.62 199.70 177.57 199.34 C 179.19 198.71 179.26 199.95 178.75 218.09 C 178.28 234.84 177.91 238.16 176.10 242.33 C 174.94 244.99 174.00 247.55 174.00 248.02 C 174.00 248.49 175.91 248.26 178.25 247.49 C 180.59 246.73 185.83 245.15 189.90 243.97 C 197.31 241.82 197.31 241.82 196.72 219.99 C 196.14 198.15 196.14 198.15 200.32 197.52 C 202.62 197.18 205.74 196.66 207.25 196.37 C 210.00 195.84 210.00 195.84 209.91 206.17 C 209.86 211.85 209.53 218.67 209.16 221.32 C 208.50 226.15 208.50 226.15 205.50 215.86 C 202.50 205.57 202.50 205.57 201.86 216.03 C 199.62 252.27 197.42 249.00 224.08 249.00 C 248.02 249.00 248.02 249.00 244.10 241.19 C 240.30 233.65 240.10 232.74 238.11 213.86 C 236.05 194.33 236.05 194.33 241.47 177.45 C 244.45 168.16 246.80 160.49 246.70 160.40 C 246.59 160.31 241.32 161.75 235.00 163.60 C 224.87 166.56 221.56 167.04 207.25 167.64 C 198.31 168.01 191.00 168.03 191.00 167.68 C 191.00 167.34 191.99 165.02 193.20 162.53 C 195.18 158.44 195.74 158.00 198.95 157.96 C 206.88 157.86 243.07 155.27 243.57 154.76 C 244.28 154.06 248.10 121.76 247.54 121.21 C 247.31 120.97 243.61 122.91 239.32 125.51 C 231.52 130.25 231.52 130.25 175.51 129.74 C 119.50 129.24 119.50 129.24 110.64 125.57 C 105.76 123.55 101.60 122.06 101.40 122.27 C 101.19 122.48 103.59 131.28 106.73 141.82 C 113.28 163.81 109.21 161.68 141.50 160.04 C 150.85 159.57 158.65 159.33 158.82 159.50 C 159.00 159.67 158.33 162.11 157.34 164.91 C 155.53 170.00 155.53 170.00 144.02 169.99 C 133.87 169.98 131.16 169.58 121.25 166.63 C 115.06 164.78 110.00 163.44 110.00 163.65 C 110.00 163.86 111.47 167.73 113.27 172.26 C 116.54 180.50 116.54 180.50 114.86 202.00 C 113.94 213.82 113.14 225.49 113.09 227.92 C 113.04 230.35 112.75 232.08 112.45 231.78 C 111.82 231.15 102.00 193.38 102.00 191.58 C 102.00 190.93 104.03 187.62 106.50 184.22 C 108.97 180.81 111.00 177.80 111.00 177.52 C 111.00 177.23 103.58 177.00 94.50 177.00 C 75.35 177.00 77.24 175.22 79.36 191.25 C 80.64 201.00 80.64 201.00 76.82 201.00 C 73.00 201.00 73.00 201.00 73.00 184.63 C 73.00 168.26 73.00 168.26 77.19 167.70 C 79.49 167.39 86.98 167.80 93.83 168.60 C 100.68 169.40 106.45 169.88 106.66 169.67 C 106.87 169.46 104.73 164.39 101.90 158.40 C 96.77 147.50 96.77 147.50 97.82 107.00 C 98.71 72.63 99.20 64.71 101.06 54.71 C 102.27 48.23 103.01 42.67 102.70 42.37 C 102.40 42.07 96.98 45.91 90.67 50.91 C 82.66 57.25 78.38 60.00 76.51 60.00 C 73.82 60.00 73.82 60.00 74.54 47.75 C 74.94 41.01 75.62 34.60 76.05 33.50 C 76.48 32.40 81.58 26.32 87.37 20.00 C 93.16 13.68 97.36 8.39 96.70 8.26 C 94.61 7.84 25.08 14.58 24.39 15.27 C 24.03 15.64 26.87 19.44 30.72 23.72 C 37.70 31.50 37.70 31.50 38.34 45.10 C 38.68 52.58 38.76 58.90 38.51 59.15 C 38.26 59.41 35.68 59.35 32.77 59.03 C 28.59 58.57 25.41 57.15 17.56 52.24 C 12.10 48.83 7.53 46.14 7.40 46.27 C 7.28 46.39 8.70 52.80 10.57 60.50 C 13.96 74.50 13.96 74.50 13.97 112.00 C 13.98 149.50 13.98 149.50 10.53 160.95 C 8.63 167.25 7.21 172.55 7.39 172.72 C 7.56 172.90 11.94 171.91 17.10 170.52 C 22.39 169.11 29.23 168.00 32.75 168.00 C 39.00 168.00 39.00 168.00 39.00 186.44 C 39.00 204.88 39.00 204.88 34.45 205.56 C 31.95 205.93 29.78 206.07 29.63 205.87 C 22.91 196.99 8.59 179.08 8.38 179.29 C 8.02 179.65 13.77 244.11 14.20 244.52 C 14.36 244.68 30.21 241.03 49.42 236.41 C 68.62 231.78 84.48 228.00 84.67 228.00 C 86.13 228.00 84.29 232.27 80.82 236.91 C 78.52 239.98 75.53 243.98 74.17 245.79 C 71.71 249.07 71.71 249.07 75.60 248.52 C 77.75 248.22 85.20 247.30 92.16 246.49 Z  M 201.91 125.18 C 206.31 124.50 206.31 124.50 197.70 118.00 C 189.76 112.01 189.12 111.27 189.52 108.50 C 189.76 106.85 190.45 100.33 191.07 94.00 C 191.68 87.67 192.47 82.21 192.84 81.85 C 193.20 81.49 198.11 80.88 203.75 80.49 C 214.00 79.78 214.00 79.78 214.00 83.48 C 214.00 87.17 214.00 87.17 206.52 86.47 C 199.04 85.77 199.04 85.77 197.95 88.63 C 194.93 96.54 194.92 96.52 204.40 98.51 C 213.00 100.31 213.00 100.31 213.00 105.34 C 213.00 110.37 213.00 110.37 210.22 107.71 C 207.72 105.32 196.53 100.56 194.98 101.23 C 194.64 101.38 195.07 104.42 195.93 108.00 C 197.50 114.50 197.50 114.50 204.75 115.39 C 212.59 116.35 213.28 117.11 210.36 121.57 C 209.47 122.94 208.98 124.31 209.29 124.62 C 209.94 125.27 243.16 120.01 244.17 119.10 C 244.53 118.77 242.86 109.69 240.45 98.93 C 236.07 79.35 236.07 79.35 240.48 62.96 C 242.91 53.94 244.76 46.43 244.59 46.26 C 244.43 46.09 239.61 47.95 233.90 50.39 C 223.50 54.83 223.50 54.83 209.50 55.11 C 195.50 55.40 195.50 55.40 195.85 50.95 C 196.04 48.50 196.41 46.29 196.66 46.03 C 196.91 45.77 205.07 45.16 214.81 44.68 C 224.54 44.19 232.77 43.51 233.11 43.15 C 233.44 42.79 236.23 36.42 239.30 29.00 C 242.37 21.57 245.58 13.82 246.44 11.77 C 248.30 7.35 249.07 7.20 233.81 14.31 C 224.12 18.83 224.12 18.83 172.81 17.79 C 121.50 16.75 121.50 16.75 112.00 12.48 C 106.78 10.13 102.39 8.50 102.26 8.85 C 102.13 9.21 104.38 18.49 107.26 29.48 C 112.50 49.45 112.50 49.45 125.00 48.99 C 131.88 48.73 141.55 48.52 146.50 48.51 C 155.50 48.50 155.50 48.50 155.80 53.16 C 156.10 57.82 156.10 57.82 144.80 58.17 C 134.49 58.48 132.50 58.23 122.07 55.27 C 115.79 53.48 110.49 52.18 110.30 52.37 C 110.11 52.56 111.36 55.81 113.08 59.61 C 116.20 66.50 116.20 66.50 115.55 83.50 C 114.89 100.50 114.89 100.50 110.37 108.35 C 107.89 112.66 106.00 116.30 106.18 116.44 C 106.55 116.71 142.09 123.00 143.28 123.00 C 143.70 123.00 143.33 121.61 142.45 119.91 C 141.57 118.21 141.09 116.58 141.38 116.29 C 141.67 115.99 144.93 116.33 148.63 117.02 C 155.34 118.29 155.34 118.29 151.21 122.15 C 147.08 126.00 147.08 126.00 172.29 125.93 C 186.15 125.89 199.48 125.55 201.91 125.18 Z  M 39.00 116.50 C 39.00 93.00 39.00 93.00 41.53 93.00 C 42.92 93.00 44.24 93.56 44.45 94.25 C 44.66 94.94 45.10 105.51 45.42 117.75 C 46.00 140.00 46.00 140.00 42.50 140.00 C 39.00 140.00 39.00 140.00 39.00 116.50 Z  M 67.00 114.50 C 67.00 91.00 67.00 91.00 69.50 91.00 C 71.89 91.00 72.00 91.26 72.05 97.25 C 72.08 100.69 72.47 110.92 72.93 120.00 C 73.80 137.45 73.70 137.95 69.25 137.98 C 67.00 138.00 67.00 138.00 67.00 114.50 Z  M 157.68 110.64 C 155.42 107.68 153.93 106.92 147.41 105.38 C 140.52 103.76 137.69 101.98 139.35 100.31 C 139.69 99.98 144.05 100.27 149.05 100.95 C 154.05 101.64 158.35 101.98 158.62 101.72 C 158.88 101.45 158.48 98.82 157.74 95.87 C 156.38 90.50 156.38 90.50 148.14 89.00 C 143.61 88.17 139.81 87.05 139.70 86.50 C 139.48 85.42 157.12 83.45 159.33 84.30 C 160.24 84.64 161.07 88.97 161.96 97.98 C 163.10 109.45 163.07 111.35 161.79 112.64 C 160.50 113.93 160.00 113.70 157.68 110.64 Z "/>
</g>
</svg>