<?xml version="1.0" encoding="UTF-8" standalone="no"?>
<!DOCTYPE svg PUBLIC "-//W3C//DTD SVG 1.1//EN" "http://www.w3.org/Graphics/SVG/1.1/DTD/svg11.dtd" >
<svg xmlns="http://www.w3.org/2000/svg" xmlns:xlink="http://www.w3.org/1999/xlink" version="1.1" viewBox="0 0 256 256">
 <g >
 <path fill="currentColor"
d=" M 98.10 243.60 C 92.77 238.21 92.77 238.21 93.18 206.35 C 93.59 174.50 93.59 174.50 97.40 163.19 C 99.49 156.96 100.95 151.62 100.64 151.30 C 100.32 150.99 94.79 152.19 88.33 153.96 C 77.92 156.83 73.85 157.36 52.05 158.71 C 28.37 160.18 27.12 160.16 16.82 158.26 C 4.78 156.05 5.22 154.41 12.92 172.89 C 16.00 180.28 16.00 180.28 16.00 206.63 C 16.00 232.98 16.00 232.98 11.69 239.74 C 9.32 243.46 7.04 247.06 6.63 247.75 C 6.04 248.74 15.90 249.00 54.66 249.00 C 103.43 249.00 103.43 249.00 98.10 243.60 Z  M 237.03 247.75 C 237.05 247.61 239.48 232.65 242.45 214.50 C 245.41 196.35 247.71 181.38 247.57 181.24 C 247.42 181.09 241.53 187.39 234.48 195.24 C 220.00 211.33 222.32 210.13 203.16 211.41 C 192.82 212.10 192.82 212.10 193.36 209.30 C 193.67 207.76 194.21 202.56 194.57 197.75 C 195.24 189.00 195.24 189.00 212.10 189.00 C 228.76 189.00 228.97 188.97 229.52 186.75 C 230.98 180.81 240.82 132.49 240.61 132.28 C 240.48 132.15 234.78 137.16 227.95 143.43 C 214.58 155.68 214.01 155.97 202.68 155.99 C 197.61 156.00 196.93 155.78 197.38 154.25 C 197.66 153.29 198.17 150.47 198.52 148.00 C 199.04 144.38 200.41 142.03 205.53 136.03 C 209.03 131.92 211.81 128.51 211.70 128.44 C 211.59 128.38 196.88 129.12 179.00 130.10 C 161.12 131.08 144.03 131.92 141.00 131.96 C 135.50 132.05 135.50 132.05 144.75 141.08 C 153.91 150.02 154.00 150.15 154.00 154.97 C 154.00 160.62 154.31 160.47 139.96 161.56 C 131.43 162.20 131.43 162.20 121.50 154.15 C 116.04 149.72 111.42 146.25 111.23 146.43 C 111.05 146.62 112.60 156.27 114.69 167.88 C 118.49 189.00 118.49 189.00 137.13 189.00 C 155.61 189.00 155.77 189.02 156.37 191.25 C 157.27 194.61 157.12 214.00 156.20 214.00 C 155.76 214.00 149.39 214.48 142.04 215.07 C 128.67 216.14 128.67 216.14 116.34 203.84 C 109.55 197.07 104.00 191.96 104.00 192.49 C 104.00 193.90 113.00 245.29 113.51 246.75 C 113.84 247.73 127.14 248.00 175.47 248.00 C 209.31 248.00 237.01 247.89 237.03 247.75 Z  M 84.09 147.39 C 92.67 146.81 92.67 146.81 95.85 121.16 C 97.60 107.05 99.02 94.83 99.02 94.01 C 99.01 93.20 95.60 98.03 91.45 104.76 C 86.19 113.27 83.23 117.13 81.70 117.44 C 79.09 117.97 28.65 122.04 24.94 122.02 C 22.93 122.00 20.77 120.05 15.01 113.01 C 10.96 108.07 7.51 104.16 7.34 104.32 C 7.06 104.61 11.33 138.61 12.56 145.87 C 13.13 149.24 13.13 149.24 44.32 148.60 C 61.47 148.25 79.36 147.70 84.09 147.39 Z  M 183.19 122.68 C 215.47 120.91 242.14 119.19 242.47 118.86 C 243.09 118.24 247.24 64.91 246.71 64.38 C 246.55 64.21 241.09 69.91 234.58 77.04 C 222.75 90.00 222.75 90.00 207.93 90.00 C 199.78 90.00 192.93 89.66 192.70 89.25 C 192.46 88.84 192.49 84.56 192.76 79.75 C 193.25 71.00 193.25 71.00 211.11 71.00 C 228.80 71.00 228.97 70.98 229.49 68.75 C 232.49 56.02 241.87 13.54 241.71 13.40 C 241.59 13.30 235.57 18.53 228.33 25.02 C 215.15 36.82 215.15 36.82 207.33 37.49 C 203.02 37.86 198.82 38.23 198.00 38.33 C 196.76 38.47 196.56 37.28 196.87 31.54 C 197.20 25.28 197.62 24.07 201.06 19.56 C 203.16 16.80 204.70 14.37 204.48 14.15 C 204.12 13.79 146.13 10.10 139.65 10.03 C 136.80 10.00 136.80 10.00 142.15 16.03 C 152.46 27.66 153.00 28.63 153.00 35.52 C 153.00 41.75 153.00 41.75 143.25 42.69 C 133.50 43.64 133.50 43.64 123.69 35.72 C 118.29 31.36 113.66 28.01 113.40 28.27 C 113.14 28.53 114.64 38.13 116.74 49.62 C 120.54 70.50 120.54 70.50 137.48 70.78 C 149.49 70.97 154.64 71.41 155.19 72.28 C 155.62 72.95 155.98 76.76 155.98 80.75 C 156.00 88.00 156.00 88.00 141.88 88.00 C 127.76 88.00 127.76 88.00 116.38 78.46 C 110.12 73.22 104.99 69.28 104.99 69.71 C 104.98 70.15 106.87 82.99 109.19 98.25 C 113.41 126.00 113.41 126.00 118.96 125.95 C 122.00 125.92 150.91 124.45 183.19 122.68 Z  M 84.19 105.38 C 86.70 104.90 87.28 103.66 92.94 86.68 C 96.27 76.68 99.00 68.16 99.00 67.74 C 99.00 67.32 94.84 69.10 89.75 71.70 C 80.50 76.42 80.50 76.42 54.12 77.96 C 27.74 79.51 27.74 79.51 18.16 73.80 C 12.89 70.66 8.47 68.20 8.34 68.33 C 8.08 68.58 12.61 99.52 13.62 104.37 C 14.21 107.24 14.21 107.24 47.86 106.57 C 66.36 106.20 82.71 105.67 84.19 105.38 Z  M 97.50 63.75 C 98.05 62.15 103.00 17.71 103.00 14.34 C 103.00 11.81 103.00 11.81 99.57 14.65 C 97.69 16.22 92.85 20.49 88.82 24.14 C 81.68 30.62 81.33 30.80 74.25 31.71 C 65.89 32.78 65.59 34.44 76.68 18.11 C 80.18 12.94 82.86 8.53 82.63 8.30 C 82.19 7.86 37.66 10.65 30.27 11.58 C 26.03 12.12 26.03 12.12 33.06 22.59 C 36.92 28.35 40.32 33.68 40.61 34.44 C 41.02 35.51 39.20 35.96 32.32 36.48 C 27.47 36.85 22.74 37.37 21.81 37.63 C 20.61 37.96 18.29 35.66 13.72 29.60 C 7.31 21.10 7.31 21.10 6.65 36.21 C 6.29 44.52 6.00 54.40 6.00 58.16 C 6.00 65.00 6.00 65.00 51.53 65.00 C 87.06 65.00 97.16 64.73 97.50 63.75 Z  M 48.56 215.81 C 48.23 212.89 47.86 206.30 47.73 201.17 C 47.50 191.83 47.50 191.83 53.75 189.46 C 59.64 187.23 60.00 187.20 60.00 188.94 C 60.00 191.25 61.80 210.23 62.49 215.16 C 62.99 218.81 62.98 218.83 58.75 219.47 C 56.41 219.82 53.30 220.34 51.83 220.62 C 49.26 221.10 49.14 220.92 48.56 215.81 Z "/>
</g>
</svg>