<?xml version="1.0" encoding="UTF-8" standalone="no"?>
<!DOCTYPE svg PUBLIC "-//W3C//DTD SVG 1.1//EN" "http://www.w3.org/Graphics/SVG/1.1/DTD/svg11.dtd" >
<svg xmlns="http://www.w3.org/2000/svg" xmlns:xlink="http://www.w3.org/1999/xlink" version="1.1" viewBox="0 0 256 256">
 <g >
 <path fill="currentColor"
d=" M 108.50 248.98 C 126.50 248.96 126.50 248.96 115.57 243.19 C 109.56 240.02 104.46 236.89 104.24 236.23 C 103.94 235.33 109.86 234.97 128.15 234.77 C 152.46 234.50 152.46 234.50 155.16 216.00 C 158.63 192.17 158.63 192.68 155.22 196.76 C 152.50 200.01 152.50 200.01 146.25 194.43 C 140.00 188.84 140.00 188.84 140.00 171.50 C 140.00 154.17 140.00 154.17 144.00 143.00 C 146.20 136.86 148.00 131.50 148.00 131.09 C 148.00 130.68 140.69 131.38 131.75 132.64 C 122.81 133.89 113.14 134.94 110.25 134.96 C 105.00 135.00 105.00 135.00 105.00 130.50 C 105.00 126.00 105.00 126.00 123.76 126.00 C 142.51 126.00 142.51 126.00 146.34 107.42 C 148.45 97.20 150.00 88.67 149.80 88.47 C 149.60 88.26 144.89 90.79 139.34 94.09 C 129.25 100.08 129.25 100.08 120.49 99.79 C 111.73 99.50 111.73 99.50 118.87 94.59 C 122.79 91.88 125.79 89.46 125.53 89.19 C 124.81 88.48 42.00 91.23 42.00 91.97 C 42.00 92.32 44.68 94.61 47.96 97.05 C 51.24 99.50 53.94 101.84 53.96 102.25 C 53.98 102.66 48.38 103.00 41.50 103.00 C 29.00 103.00 29.00 103.00 19.89 97.94 C 14.88 95.16 10.65 93.02 10.48 93.19 C 10.22 93.45 14.90 117.96 16.51 124.75 C 17.04 126.99 17.10 127.00 37.52 127.00 C 58.00 127.00 58.00 127.00 58.00 129.42 C 58.00 130.75 58.27 132.55 58.61 133.42 C 59.14 134.80 57.95 134.99 49.36 134.94 C 43.94 134.91 34.10 134.30 27.50 133.59 C 20.90 132.88 15.36 132.40 15.19 132.54 C 15.02 132.68 17.15 137.32 19.93 142.87 C 24.99 152.94 24.99 152.94 23.42 171.68 C 21.85 190.41 21.85 190.41 17.87 197.22 C 13.90 204.02 13.90 204.02 10.42 201.37 C 8.51 199.91 6.78 198.90 6.58 199.11 C 6.28 199.42 11.11 223.52 13.53 233.84 C 14.08 236.17 14.08 236.17 37.79 235.48 C 58.33 234.87 61.30 234.97 60.00 236.21 C 59.17 236.99 55.58 240.05 52.00 243.01 C 48.42 245.96 45.05 248.80 44.50 249.32 C 43.88 249.90 52.39 250.02 67.00 249.63 C 79.93 249.29 98.60 249.00 108.50 248.98 Z  M 218.50 247.90 C 232.25 247.31 243.62 246.71 243.76 246.57 C 244.11 246.23 249.06 166.72 248.75 166.44 C 248.61 166.31 244.93 174.27 240.56 184.11 C 236.19 193.96 232.31 201.67 231.95 201.26 C 231.58 200.84 229.21 192.18 226.68 182.00 C 221.70 161.99 221.48 163.21 232.56 148.52 C 234.26 146.28 233.94 146.13 243.08 153.41 C 247.36 156.83 249.06 157.74 248.67 156.41 C 248.36 155.36 244.91 140.55 240.99 123.50 C 237.08 106.45 233.67 91.88 233.42 91.11 C 233.15 90.32 228.38 96.15 222.23 104.78 C 216.33 113.06 211.39 119.73 211.26 119.59 C 210.58 118.91 202.38 81.95 202.82 81.51 C 203.10 81.23 211.58 81.00 221.67 81.00 C 231.75 81.00 240.00 80.89 240.01 80.75 C 240.01 80.61 242.01 69.71 244.46 56.53 C 246.90 43.35 248.81 32.49 248.70 32.39 C 248.59 32.30 243.37 36.89 237.09 42.61 C 225.69 53.00 225.69 53.00 214.09 53.01 C 207.72 53.02 200.89 53.29 198.93 53.61 C 195.36 54.20 195.36 54.20 189.56 31.85 C 186.38 19.56 183.43 9.13 183.02 8.68 C 182.21 7.81 133.52 10.62 128.54 11.83 C 125.58 12.55 125.58 12.55 129.99 15.15 C 134.39 17.75 134.39 17.75 129.45 20.86 C 124.56 23.92 124.33 23.96 111.25 23.98 C 99.07 24.00 98.00 23.85 98.00 22.17 C 98.00 21.04 100.73 18.39 105.10 15.27 C 112.19 10.21 112.19 10.21 100.85 9.62 C 76.39 8.34 39.49 7.92 41.00 8.93 C 41.83 9.48 45.88 11.87 50.00 14.24 C 56.64 18.05 57.54 18.92 57.81 21.77 C 58.13 25.00 58.13 25.00 45.73 25.00 C 33.34 25.00 33.34 25.00 23.43 17.57 C 17.98 13.49 13.43 10.24 13.32 10.35 C 13.16 10.51 18.20 32.34 21.49 45.75 C 22.03 47.98 22.20 48.00 40.02 48.00 C 58.00 48.00 58.00 48.00 58.00 51.50 C 58.00 55.00 58.00 55.00 40.11 55.00 C 22.23 55.00 22.23 55.00 14.03 45.29 C 6.46 36.33 5.88 35.85 6.43 39.04 C 6.76 40.94 8.37 51.27 10.00 62.00 C 11.63 72.72 13.20 82.85 13.48 84.50 C 14.00 87.50 14.00 87.50 72.25 85.83 C 104.29 84.91 136.81 84.13 144.52 84.08 C 158.54 84.00 158.54 84.00 168.39 124.59 C 177.07 160.36 178.09 165.47 176.95 167.59 C 176.24 168.91 175.55 169.88 175.41 169.74 C 175.27 169.60 170.87 160.94 165.64 150.49 C 160.41 140.05 156.10 132.47 156.06 133.66 C 156.03 134.84 158.25 159.30 161.00 188.00 C 163.75 216.70 166.00 240.85 166.00 241.65 C 166.00 244.16 167.45 242.48 178.63 227.01 C 184.59 218.75 189.73 212.00 190.04 212.00 C 190.36 212.00 191.43 215.13 192.42 218.96 C 194.23 225.93 194.23 225.93 185.11 237.46 C 180.10 243.81 176.00 249.26 176.00 249.58 C 176.00 249.89 179.94 249.89 184.75 249.57 C 189.56 249.24 204.75 248.50 218.50 247.90 Z  M 232.32 38.16 C 236.63 33.95 241.94 28.38 244.14 25.78 C 248.13 21.07 248.13 21.07 242.81 22.59 C 239.89 23.42 236.27 24.50 234.77 24.99 C 232.47 25.74 231.74 25.48 230.02 23.30 C 228.91 21.89 228.00 20.40 228.00 19.99 C 228.00 19.58 231.69 16.83 236.20 13.88 C 242.56 9.71 243.92 8.43 242.27 8.19 C 239.05 7.72 190.91 9.76 190.27 10.39 C 189.97 10.69 192.08 16.72 194.95 23.79 C 200.17 36.61 200.18 36.64 198.59 40.44 C 197.72 42.53 197.00 44.76 197.00 45.40 C 197.00 46.24 200.80 46.46 210.75 46.19 C 224.50 45.82 224.50 45.82 232.32 38.16 Z  M 22.00 209.04 C 17.50 205.09 17.50 205.09 24.59 205.04 C 28.49 205.02 38.50 204.70 46.84 204.34 C 62.00 203.69 62.00 203.69 62.00 207.69 C 62.00 211.69 62.00 211.69 49.25 212.34 C 26.78 213.49 27.11 213.53 22.00 209.04 Z  M 104.00 207.63 C 104.00 204.00 104.00 204.00 126.73 204.00 C 149.46 204.00 149.46 204.00 146.48 206.92 C 143.50 209.85 143.50 209.85 123.75 210.56 C 104.00 211.27 104.00 211.27 104.00 207.63 Z  M 56.25 181.29 C 54.53 180.96 54.00 180.17 54.00 177.93 C 54.00 175.00 54.00 175.00 60.50 175.00 C 67.00 175.00 67.00 175.00 67.00 178.50 C 67.00 181.97 66.97 182.00 62.75 181.86 C 60.41 181.79 57.49 181.53 56.25 181.29 Z  M 99.00 178.50 C 99.00 175.20 99.19 175.00 102.35 175.00 C 104.42 175.00 106.38 174.24 107.50 173.00 C 110.24 169.98 110.78 170.50 111.16 176.50 C 111.50 182.00 111.50 182.00 105.25 182.00 C 99.00 182.00 99.00 182.00 99.00 178.50 Z  M 53.00 159.50 C 53.00 156.00 53.00 156.00 59.39 156.00 C 65.78 156.00 65.78 156.00 66.19 159.50 C 66.60 163.00 66.60 163.00 59.80 163.00 C 53.00 163.00 53.00 163.00 53.00 159.50 Z  M 99.00 158.10 C 99.00 154.20 99.00 154.20 103.75 153.77 C 109.72 153.23 110.00 153.39 110.00 157.44 C 110.00 161.07 108.48 161.96 102.25 161.99 C 99.14 162.00 99.00 161.84 99.00 158.10 Z  M 99.00 51.52 C 99.00 49.05 99.00 49.05 116.25 48.77 C 133.50 48.50 133.50 48.50 136.39 35.50 C 137.98 28.35 139.40 22.35 139.55 22.17 C 139.70 21.99 140.91 22.55 142.23 23.42 C 144.24 24.73 145.16 27.25 147.83 38.75 C 149.58 46.31 151.01 52.84 151.01 53.25 C 151.00 53.66 139.30 54.00 125.00 54.00 C 99.00 54.00 99.00 54.00 99.00 51.52 Z "/>
</g>
</svg>