<?xml version="1.0" encoding="UTF-8" standalone="no"?>
<!DOCTYPE svg PUBLIC "-//W3C//DTD SVG 1.1//EN" "http://www.w3.org/Graphics/SVG/1.1/DTD/svg11.dtd" >
<svg xmlns="http://www.w3.org/2000/svg" xmlns:xlink="http://www.w3.org/1999/xlink" version="1.1" viewBox="0 0 256 256">
 <g >
 <path fill="currentColor"
d=" M 115.00 248.10 C 115.00 247.61 113.58 243.90 111.85 239.85 C 108.69 232.50 108.69 232.50 109.94 160.00 C 110.63 120.12 111.41 83.75 111.67 79.17 C 112.16 70.83 112.16 70.83 104.83 75.74 C 100.80 78.44 96.92 80.99 96.22 81.40 C 95.20 82.00 95.00 79.44 95.22 68.84 C 95.50 55.52 95.50 55.52 102.50 54.51 C 109.50 53.50 109.50 53.50 113.71 32.50 C 116.02 20.95 117.82 10.86 117.71 10.08 C 117.58 9.24 113.06 12.56 106.50 18.32 C 95.50 27.97 95.50 27.97 59.84 27.99 C 24.19 28.00 24.19 28.00 16.09 18.98 C 11.64 14.02 8.00 10.19 8.00 10.46 C 8.00 11.42 11.97 53.59 12.53 58.58 C 13.10 63.67 13.10 63.67 17.80 62.89 C 28.17 61.19 27.62 60.73 28.38 71.67 C 28.83 77.94 28.70 81.70 28.02 82.38 C 27.30 83.10 23.89 82.41 16.91 80.12 C 11.38 78.30 6.68 76.98 6.48 77.18 C 6.28 77.38 7.67 84.95 9.56 94.00 C 13.00 110.45 13.00 110.45 12.98 170.47 C 12.96 230.50 12.96 230.50 10.48 238.95 C 9.12 243.60 8.00 247.53 8.00 247.69 C 8.00 247.84 22.96 248.10 41.25 248.25 C 59.54 248.40 83.61 248.63 94.75 248.76 C 106.18 248.90 115.00 248.61 115.00 248.10 Z  M 165.98 248.25 C 165.98 247.84 164.94 243.74 163.67 239.15 C 161.38 230.81 161.38 230.81 171.36 193.40 C 177.86 169.00 181.77 156.00 182.60 156.00 C 184.34 156.00 184.68 159.45 186.58 196.00 C 188.22 227.50 188.22 227.50 185.11 237.10 C 183.40 242.39 182.00 247.22 182.00 247.85 C 182.00 248.69 190.85 249.00 215.00 249.00 C 248.00 249.00 248.00 249.00 247.86 230.25 C 247.79 219.94 247.45 202.56 247.11 191.63 C 246.50 171.76 246.50 171.76 239.59 195.63 C 235.79 208.76 232.41 219.81 232.09 220.19 C 231.60 220.77 218.33 217.66 217.42 216.76 C 217.26 216.59 217.76 204.10 218.53 188.98 C 219.30 173.87 219.95 160.04 219.97 158.25 C 220.00 155.00 220.00 155.00 230.44 155.00 C 240.88 155.00 240.88 155.00 241.47 150.75 C 242.48 143.54 247.92 90.59 247.68 90.35 C 247.56 90.22 242.74 96.18 236.98 103.57 C 231.22 110.97 225.83 117.21 225.00 117.43 C 222.24 118.18 202.91 120.24 202.50 119.83 C 202.27 119.60 202.41 111.79 202.79 102.46 C 203.50 85.50 203.50 85.50 220.50 84.12 C 229.85 83.35 237.63 82.62 237.80 82.48 C 238.26 82.10 247.80 27.54 247.47 27.17 C 247.31 26.99 241.46 33.63 234.47 41.92 C 221.75 57.00 221.75 57.00 213.43 57.00 C 208.86 57.00 204.93 56.66 204.69 56.25 C 204.45 55.84 204.69 49.65 205.21 42.50 C 206.16 29.50 206.16 29.50 216.28 19.28 C 221.85 13.66 226.15 8.82 225.84 8.51 C 225.19 7.85 159.73 12.79 155.74 13.80 C 152.97 14.50 152.97 14.50 158.74 22.83 C 164.50 31.16 164.50 31.16 164.85 43.35 C 165.19 55.53 165.19 55.53 160.60 55.16 C 155.18 54.73 155.30 55.35 157.63 40.40 C 158.53 34.64 159.09 29.79 158.88 29.61 C 157.96 28.85 121.46 15.20 121.16 15.51 C 120.97 15.70 121.98 19.91 123.41 24.86 C 125.84 33.33 126.00 35.20 126.00 55.64 C 126.00 67.88 125.62 76.98 125.14 76.45 C 124.67 75.93 122.75 71.11 120.89 65.75 C 119.02 60.39 117.16 56.00 116.75 56.00 C 116.34 56.00 116.00 66.70 116.00 79.79 C 116.00 103.57 116.00 103.57 133.08 106.37 C 142.48 107.91 150.42 108.92 150.72 108.62 C 151.02 108.32 150.62 105.47 149.84 102.28 C 149.06 99.10 148.66 95.15 148.96 93.50 C 149.50 90.57 149.69 90.48 157.30 89.63 C 161.58 89.15 165.40 89.07 165.79 89.46 C 166.18 89.85 166.50 97.66 166.50 106.83 C 166.50 123.50 166.50 123.50 154.00 124.68 C 133.18 126.63 135.29 127.13 125.02 117.91 C 118.46 112.02 115.99 110.32 115.98 111.66 C 115.96 112.67 116.73 123.35 117.69 135.39 C 119.43 157.27 119.43 157.27 131.71 156.74 C 139.52 156.40 144.00 156.57 144.00 157.20 C 144.00 160.48 132.58 215.96 132.04 215.30 C 131.68 214.86 128.03 205.96 123.94 195.53 C 116.50 176.56 116.50 176.56 116.26 182.53 C 116.12 185.81 116.57 201.78 117.26 218.00 C 118.50 247.50 118.50 247.50 133.50 248.04 C 159.54 248.98 166.00 249.02 165.98 248.25 Z  M 41.64 212.25 C 41.30 210.19 41.02 206.55 41.01 204.17 C 41.00 199.98 41.09 199.86 43.75 200.40 C 45.26 200.70 50.77 201.67 55.99 202.55 C 66.62 204.34 64.02 205.78 78.35 190.16 C 81.02 187.25 83.33 185.01 83.48 185.18 C 83.64 185.36 83.96 192.07 84.19 200.10 C 84.61 214.70 84.61 214.70 69.06 215.35 C 60.50 215.70 50.97 215.99 47.88 216.00 C 42.26 216.00 42.26 216.00 41.64 212.25 Z  M 51.60 174.14 C 40.28 171.40 39.25 170.67 39.07 165.39 C 39.00 163.27 39.00 163.27 48.58 165.22 C 53.86 166.29 58.31 167.02 58.47 166.83 C 58.64 166.65 58.12 162.22 57.31 157.00 C 56.28 150.39 55.97 142.82 56.30 132.13 C 56.78 116.22 57.12 115.05 61.25 115.02 C 62.87 115.00 63.00 116.95 63.00 142.00 C 63.00 156.85 63.11 169.00 63.25 169.00 C 63.39 169.00 67.10 167.88 71.50 166.51 C 82.87 162.98 83.00 163.01 83.00 168.98 C 83.00 174.53 83.73 174.04 72.57 175.97 C 64.91 177.30 64.48 177.26 51.60 174.14 Z  M 37.65 140.36 C 37.29 136.15 37.00 129.62 37.00 125.85 C 37.00 119.00 37.00 119.00 40.50 119.00 C 44.00 119.00 44.00 119.00 44.20 127.00 C 44.64 143.92 44.77 143.03 41.40 145.64 C 38.30 148.03 38.30 148.03 37.65 140.36 Z  M 76.00 123.50 C 76.00 112.00 76.00 112.00 79.00 112.00 C 82.00 112.00 82.00 112.00 82.00 123.50 C 82.00 135.00 82.00 135.00 79.00 135.00 C 76.00 135.00 76.00 135.00 76.00 123.50 Z  M 57.01 76.75 C 57.01 72.76 57.30 67.14 57.65 64.25 C 58.28 59.00 58.28 59.00 62.52 59.00 C 66.76 59.00 66.76 59.00 66.30 70.25 C 66.05 76.44 65.67 82.06 65.45 82.75 C 65.23 83.48 63.38 84.00 61.03 84.00 C 57.00 84.00 57.00 84.00 57.01 76.75 Z "/>
</g>
</svg>