<?xml version="1.0" encoding="UTF-8" standalone="no"?>
<!DOCTYPE svg PUBLIC "-//W3C//DTD SVG 1.1//EN" "http://www.w3.org/Graphics/SVG/1.1/DTD/svg11.dtd" >
<svg xmlns="http://www.w3.org/2000/svg" xmlns:xlink="http://www.w3.org/1999/xlink" version="1.1" viewBox="0 0 256 256">
 <g >
 <path fill="currentColor"
d=" M 85.36 243.62 C 89.65 241.83 92.48 238.14 95.13 230.86 C 96.81 226.25 98.65 223.68 103.58 219.07 C 115.14 208.26 123.98 203.39 133.92 202.35 C 140.72 201.64 150.46 203.91 156.96 207.72 C 166.36 213.22 175.76 224.18 179.59 234.08 C 180.53 236.51 181.60 238.85 181.97 239.27 C 182.34 239.69 184.13 237.89 185.96 235.27 C 187.79 232.65 192.94 226.76 197.40 222.19 C 205.50 213.87 205.50 213.87 199.84 208.57 C 183.58 193.32 167.89 184.72 148.62 180.53 C 145.75 179.90 145.75 179.90 147.75 177.70 C 154.38 170.41 153.22 160.51 144.96 153.97 C 136.26 147.08 125.44 144.31 114.22 146.12 C 106.94 147.28 106.94 147.28 109.78 149.01 C 113.81 151.46 118.44 159.17 121.47 168.47 C 122.89 172.86 124.74 177.48 125.57 178.74 C 126.75 180.55 126.80 181.12 125.78 181.44 C 125.08 181.67 122.70 182.39 120.50 183.05 C 114.26 184.93 102.58 190.85 95.80 195.56 C 89.64 199.85 89.64 199.85 85.07 195.83 C 82.56 193.62 76.79 189.75 72.25 187.22 C 67.71 184.69 64.00 182.29 64.00 181.87 C 64.00 181.46 64.89 177.39 65.98 172.83 C 67.92 164.71 69.82 147.00 68.75 147.00 C 68.45 147.00 66.83 149.14 65.15 151.75 C 61.43 157.54 55.49 163.30 43.00 173.26 C 31.18 182.67 26.54 187.45 24.55 192.22 C 21.21 200.24 23.49 209.58 29.48 212.42 C 37.28 216.13 47.96 212.96 53.32 205.35 C 54.87 203.15 57.63 197.64 59.46 193.10 C 61.29 188.56 63.01 185.22 63.28 185.67 C 63.56 186.13 65.05 190.32 66.60 195.00 C 69.27 203.08 69.40 204.31 69.22 220.00 C 69.04 234.81 69.22 236.80 70.95 239.43 C 74.48 244.79 79.24 246.18 85.36 243.62 Z  M 221.89 201.37 C 224.99 199.19 227.95 192.45 227.98 187.50 C 228.01 181.30 223.18 172.20 216.88 166.59 C 208.89 159.47 201.87 156.62 184.36 153.41 C 182.96 153.15 181.66 151.60 180.57 148.88 C 179.66 146.61 179.12 144.54 179.37 144.29 C 179.63 144.04 186.96 144.98 195.67 146.38 C 224.73 151.06 221.03 151.90 227.43 139.14 C 230.49 133.03 233.00 127.86 233.00 127.65 C 233.00 127.43 230.19 126.95 226.75 126.56 C 219.07 125.71 203.75 122.46 195.01 119.82 C 186.34 117.21 171.86 111.81 172.31 111.36 C 172.51 111.16 178.71 111.69 186.09 112.54 C 193.46 113.39 204.42 113.95 210.44 113.79 C 221.37 113.50 221.37 113.50 224.60 101.52 C 226.38 94.93 227.66 89.25 227.44 88.91 C 227.23 88.57 217.71 88.00 206.28 87.65 C 194.85 87.30 181.90 86.45 177.50 85.76 C 169.50 84.50 169.50 84.50 169.50 81.04 C 169.50 77.57 169.50 77.57 183.00 75.82 C 190.43 74.86 202.85 73.08 210.61 71.88 C 224.73 69.68 224.73 69.68 225.36 61.59 C 225.70 57.14 225.99 51.09 225.99 48.13 C 226.00 43.05 225.88 42.80 223.75 43.39 C 218.05 44.98 193.57 49.03 185.25 49.77 C 177.85 50.42 176.00 50.32 176.00 49.27 C 176.00 48.54 177.57 44.82 179.50 41.00 C 183.52 33.02 183.52 33.00 181.43 33.00 C 178.61 33.00 164.93 26.82 159.15 22.93 C 154.84 20.03 153.33 19.45 152.76 20.47 C 150.78 24.00 144.78 43.86 142.50 54.41 C 134.95 89.33 139.29 130.66 153.83 162.15 C 156.50 167.94 156.50 167.94 164.00 163.32 C 168.12 160.78 173.82 157.67 176.65 156.41 C 181.79 154.12 181.79 154.12 185.74 157.81 C 191.53 163.23 194.68 169.39 197.54 180.95 C 200.96 194.78 204.01 200.45 209.00 202.29 C 212.24 203.48 219.63 202.95 221.89 201.37 Z  M 105.84 144.25 C 116.29 108.28 118.75 89.51 118.16 50.18 C 118.00 39.86 118.00 39.86 110.25 40.14 C 105.99 40.30 99.69 40.05 96.25 39.58 C 90.00 38.74 90.00 38.74 90.00 47.87 C 90.00 56.41 89.87 57.00 87.95 57.00 C 85.06 57.00 59.58 50.50 48.28 46.88 C 43.08 45.21 38.71 43.99 38.59 44.17 C 38.46 44.35 37.33 46.98 36.08 50.00 C 34.83 53.02 32.28 58.26 30.42 61.63 C 27.04 67.75 27.04 67.75 35.77 69.34 C 52.13 72.32 64.49 74.14 76.49 75.35 C 86.07 76.31 88.54 76.87 88.79 78.15 C 89.05 79.50 87.42 79.87 78.30 80.53 C 72.36 80.95 58.64 81.24 47.81 81.17 C 25.54 81.01 27.31 79.68 26.75 97.00 C 26.50 104.50 26.50 104.50 42.50 104.78 C 53.50 104.98 61.94 104.56 69.50 103.43 C 75.55 102.54 82.30 101.59 84.50 101.33 C 88.25 100.89 88.38 100.96 86.57 102.43 C 82.07 106.06 43.96 119.53 30.90 122.10 C 25.47 123.17 24.90 123.51 25.40 125.40 C 25.71 126.55 26.93 131.78 28.11 137.00 C 29.30 142.22 30.62 146.88 31.04 147.35 C 31.87 148.28 52.53 142.03 68.91 135.89 C 74.63 133.74 79.48 132.14 79.67 132.34 C 79.87 132.53 78.38 136.59 76.36 141.36 C 74.34 146.13 72.87 150.17 73.10 150.34 C 73.71 150.82 99.41 161.86 100.09 161.93 C 100.41 161.97 103.00 154.01 105.84 144.25 Z "/>
</g>
</svg>