<?xml version="1.0" encoding="UTF-8" standalone="no"?>
<!DOCTYPE svg PUBLIC "-//W3C//DTD SVG 1.1//EN" "http://www.w3.org/Graphics/SVG/1.1/DTD/svg11.dtd" >
<svg xmlns="http://www.w3.org/2000/svg" xmlns:xlink="http://www.w3.org/1999/xlink" version="1.1" viewBox="0 0 256 256">
 <g >
 <path fill="currentColor"
d=" M 101.50 244.58 C 107.95 242.35 115.25 240.68 122.05 239.90 C 132.60 238.69 132.60 238.69 133.80 225.09 C 135.48 206.25 140.08 185.73 145.65 172.25 C 146.02 171.36 144.89 171.00 141.71 171.00 C 134.92 171.00 120.33 168.20 114.84 165.84 C 112.14 164.68 109.77 163.90 109.55 164.11 C 109.34 164.33 107.28 173.28 104.97 184.00 C 101.49 200.16 100.69 206.01 100.26 218.14 C 99.74 232.77 99.74 232.77 93.60 234.44 C 84.42 236.92 84.52 236.79 86.61 243.43 C 87.96 247.73 88.79 248.99 89.95 248.59 C 90.80 248.29 96.00 246.49 101.50 244.58 Z  M 227.00 238.70 C 231.12 237.35 236.41 235.93 238.75 235.54 C 243.33 234.77 243.47 234.47 242.35 227.70 C 241.66 223.55 242.51 223.75 233.13 225.55 C 230.39 226.08 230.14 225.81 227.67 219.64 C 222.66 207.13 216.78 182.87 215.50 169.38 C 214.82 162.26 214.82 162.26 208.84 164.13 C 205.55 165.15 197.72 166.96 191.45 168.14 C 180.85 170.13 180.07 170.44 180.49 172.39 C 180.75 173.55 181.44 177.43 182.04 181.00 C 185.31 200.56 192.84 225.75 200.55 242.94 C 203.18 248.79 203.18 248.79 211.34 244.96 C 215.83 242.86 222.88 240.04 227.00 238.70 Z  M 59.97 240.92 C 71.80 238.20 84.63 228.98 92.48 217.60 C 96.22 212.17 96.22 212.17 94.57 202.83 C 93.67 197.70 92.60 190.12 92.21 186.00 C 91.50 178.50 91.50 178.50 88.68 183.29 C 85.08 189.42 80.53 194.60 75.60 198.17 C 70.50 201.87 67.99 201.90 68.03 198.25 C 68.07 194.74 71.61 178.78 76.77 158.93 C 82.94 135.16 83.49 130.19 81.01 120.52 C 78.42 110.43 75.59 106.14 69.48 103.10 C 59.96 98.35 44.71 100.55 21.10 110.08 C 14.17 112.88 8.35 115.32 8.18 115.49 C 8.00 115.67 8.57 117.19 9.44 118.88 C 11.65 123.15 14.78 137.04 15.58 146.05 C 16.24 153.60 16.24 153.60 21.79 147.78 C 26.19 143.17 28.46 141.63 32.69 140.40 C 39.52 138.42 43.56 139.25 45.52 143.03 C 46.33 144.61 47.00 146.89 47.00 148.09 C 47.00 149.30 44.04 163.61 40.42 179.89 C 34.30 207.37 33.86 210.16 34.28 218.74 C 34.85 230.73 37.50 236.46 43.99 239.75 C 48.82 242.20 53.06 242.51 59.97 240.92 Z  M 178.49 159.00 C 197.36 154.18 217.54 137.97 236.57 112.37 C 248.38 96.48 248.37 100.17 236.64 80.48 C 223.34 58.16 221.42 55.50 212.84 47.56 C 204.53 39.86 195.36 34.15 186.00 30.83 C 180.34 28.83 177.62 28.53 165.00 28.55 C 151.28 28.57 150.00 28.74 141.15 31.80 C 129.86 35.70 120.85 40.83 111.53 48.68 C 102.20 56.53 94.79 65.52 82.96 83.37 C 73.10 98.24 73.10 98.24 75.94 101.87 C 77.50 103.87 80.70 109.94 83.05 115.36 C 85.39 120.78 88.99 127.33 91.03 129.92 C 97.46 138.05 114.40 149.26 129.00 155.04 C 143.83 160.92 164.53 162.57 178.49 159.00 Z  M 61.93 75.25 C 66.43 72.96 71.56 65.32 73.03 58.74 C 74.63 51.63 73.11 46.25 67.99 40.87 C 64.21 36.90 63.87 36.76 59.06 37.22 C 51.80 37.92 46.44 41.80 43.31 48.64 C 41.15 53.36 40.84 55.24 41.15 62.05 C 41.47 69.00 41.83 70.29 44.13 72.58 C 48.43 76.88 56.39 78.07 61.93 75.25 Z  M 144.51 126.44 C 136.15 124.34 124.78 118.50 119.08 113.39 C 116.44 111.01 112.35 106.10 109.99 102.49 C 106.09 96.49 105.82 95.70 107.01 93.48 C 111.15 85.75 124.20 74.87 134.49 70.57 C 139.54 68.46 139.52 68.45 140.87 72.95 C 145.69 89.03 164.02 90.73 179.44 76.52 C 184.07 72.26 184.58 72.04 187.54 73.01 C 194.57 75.33 206.07 84.22 211.16 91.26 C 213.16 94.03 213.16 94.03 208.64 100.36 C 200.53 111.71 188.99 120.61 176.43 125.18 C 168.74 127.98 153.11 128.59 144.51 126.44 Z "/>
</g>
</svg>