<?xml version="1.0" encoding="UTF-8" standalone="no"?>
<!DOCTYPE svg PUBLIC "-//W3C//DTD SVG 1.1//EN" "http://www.w3.org/Graphics/SVG/1.1/DTD/svg11.dtd" >
<svg xmlns="http://www.w3.org/2000/svg" xmlns:xlink="http://www.w3.org/1999/xlink" version="1.1" viewBox="0 0 256 256">
 <g >
 <path fill="currentColor"
d=" M 235.23 226.45 C 233.69 221.96 233.50 213.12 233.23 132.12 C 232.98 57.01 233.16 41.95 234.35 37.87 C 235.78 33.00 235.78 33.00 232.98 33.00 C 231.44 33.00 226.65 33.67 222.34 34.50 C 211.62 36.55 186.79 36.38 171.69 34.16 C 159.88 32.42 159.88 32.42 160.63 34.46 C 161.87 37.81 162.25 105.85 161.04 109.30 C 160.46 110.96 160.12 112.46 160.28 112.62 C 160.45 112.78 166.64 112.27 174.04 111.48 C 188.44 109.94 203.79 109.60 211.42 110.64 C 216.12 111.29 216.12 111.29 215.76 160.89 C 215.38 214.04 215.24 215.61 209.95 224.75 C 208.07 228.00 208.07 228.00 213.78 228.05 C 216.93 228.07 223.32 228.90 228.00 229.88 C 232.68 230.86 236.60 231.61 236.71 231.54 C 236.83 231.47 236.16 229.18 235.23 226.45 Z  M 96.96 227.75 C 96.95 227.06 96.29 223.57 95.50 220.00 C 94.37 214.85 94.06 202.97 94.04 162.88 C 94.00 112.26 94.00 112.26 101.25 111.81 C 105.24 111.56 116.83 111.65 127.00 112.01 C 137.18 112.36 145.60 112.59 145.72 112.53 C 145.83 112.46 145.45 109.33 144.87 105.58 C 143.41 96.22 144.20 39.53 145.84 35.61 C 146.51 34.02 146.82 32.49 146.53 32.20 C 146.25 31.91 140.72 32.43 134.26 33.34 C 127.08 34.35 115.99 35.00 105.80 35.00 C 91.22 35.00 86.74 34.61 76.40 32.47 C 74.35 32.05 74.33 32.15 75.69 37.27 C 76.83 41.58 77.01 56.59 76.69 122.50 C 76.28 207.96 76.10 211.16 71.14 221.18 C 69.25 225.00 69.25 225.00 74.88 225.08 C 77.97 225.13 83.65 225.97 87.50 226.97 C 96.27 229.23 97.01 229.29 96.96 227.75 Z  M 30.41 206.03 C 37.72 197.57 54.19 184.61 63.00 180.36 C 66.03 178.90 68.61 177.63 68.74 177.53 C 68.87 177.43 66.75 175.05 64.03 172.23 C 61.32 169.41 58.14 165.23 56.97 162.94 C 54.84 158.77 54.84 158.77 52.28 162.63 C 48.36 168.55 45.36 171.54 34.50 180.33 C 25.11 187.93 11.69 196.00 8.45 196.00 C 5.99 196.00 6.82 197.32 12.31 202.14 C 15.22 204.69 18.70 208.86 20.05 211.40 C 22.50 216.02 22.50 216.02 24.50 213.29 C 25.60 211.78 28.26 208.51 30.41 206.03 Z  M 121.50 204.91 C 127.87 203.44 183.34 203.32 191.00 204.76 C 194.03 205.33 196.60 205.71 196.71 205.60 C 196.83 205.49 196.17 203.18 195.24 200.45 C 193.80 196.21 193.55 190.77 193.53 162.50 C 193.51 140.04 193.87 128.30 194.67 125.75 C 196.05 121.31 196.55 121.43 184.76 123.48 C 172.47 125.63 133.16 125.78 122.50 123.73 C 118.10 122.88 114.35 122.34 114.16 122.52 C 113.98 122.69 114.43 125.46 115.16 128.67 C 116.12 132.86 116.50 143.07 116.49 165.00 C 116.47 194.25 116.16 198.20 113.29 205.68 C 112.85 206.84 113.17 207.09 114.60 206.65 C 115.64 206.33 118.75 205.55 121.50 204.91 Z  M 25.49 120.81 C 38.56 119.76 55.10 120.57 60.12 122.49 C 61.26 122.93 61.48 122.20 61.17 118.94 C 60.95 116.68 61.31 112.12 61.96 108.82 C 62.61 105.51 62.99 102.66 62.81 102.48 C 62.63 102.30 59.79 102.78 56.49 103.56 C 48.24 105.50 16.57 105.54 11.87 103.62 C 10.02 102.86 7.49 101.93 6.25 101.55 C 4.13 100.90 4.06 101.03 5.11 103.68 C 5.72 105.23 6.28 110.24 6.36 114.82 C 6.50 123.14 6.50 123.14 9.00 122.53 C 10.38 122.20 17.79 121.43 25.49 120.81 Z  M 68.23 54.69 C 70.56 50.50 70.56 50.50 66.43 50.31 C 62.09 50.10 48.98 46.71 35.58 42.32 C 29.99 40.49 26.42 38.58 23.48 35.87 C 19.30 32.02 19.30 32.02 16.81 41.26 C 15.43 46.34 13.97 51.29 13.55 52.25 C 12.91 53.71 13.32 54.00 16.01 54.00 C 23.53 54.00 52.70 63.69 59.89 68.57 C 63.43 70.98 63.43 70.98 64.67 64.92 C 65.34 61.60 66.95 56.99 68.23 54.69 Z  M 179.42 95.65 C 179.13 94.91 179.04 91.20 179.20 87.40 C 179.50 80.50 179.50 80.50 195.50 80.21 C 204.30 80.06 212.51 80.18 213.75 80.48 C 215.85 81.00 216.00 81.57 216.00 89.02 C 216.00 97.00 216.00 97.00 197.97 97.00 C 183.76 97.00 179.83 96.71 179.42 95.65 Z  M 184.00 66.10 C 179.50 65.50 179.50 65.50 179.50 57.50 C 179.50 49.50 179.50 49.50 196.35 48.68 C 205.62 48.23 213.83 48.11 214.60 48.40 C 215.65 48.80 216.00 51.06 216.00 57.33 C 216.00 65.72 216.00 65.72 209.85 66.36 C 202.79 67.10 190.56 66.97 184.00 66.10 Z  M 94.00 88.50 C 94.00 80.00 94.00 80.00 110.50 80.00 C 127.00 80.00 127.00 80.00 127.00 88.50 C 127.00 97.00 127.00 97.00 110.50 97.00 C 94.00 97.00 94.00 97.00 94.00 88.50 Z  M 97.25 66.28 C 94.00 65.87 94.00 65.87 94.00 57.44 C 94.00 49.00 94.00 49.00 110.50 49.00 C 127.00 49.00 127.00 49.00 127.00 57.36 C 127.00 65.73 127.00 65.73 122.36 66.36 C 117.53 67.03 102.88 66.98 97.25 66.28 Z  M 133.21 189.15 C 132.28 188.56 132.00 185.97 132.21 179.91 C 132.50 171.50 132.50 171.50 142.50 170.82 C 148.00 170.44 158.01 170.39 164.75 170.71 C 177.00 171.29 177.00 171.29 177.00 180.00 C 177.00 188.72 177.00 188.72 170.85 189.36 C 162.07 190.28 134.74 190.12 133.21 189.15 Z  M 133.20 156.16 C 132.28 155.57 131.99 153.16 132.20 147.92 C 132.50 140.59 132.53 140.51 135.50 139.88 C 139.42 139.04 171.83 138.85 174.79 139.64 C 176.97 140.22 177.06 140.64 176.79 148.38 C 176.50 156.50 176.50 156.50 155.50 156.75 C 143.95 156.88 133.92 156.62 133.20 156.16 Z "/>
</g>
</svg>