<?xml version="1.0" encoding="UTF-8" standalone="no"?>
<!DOCTYPE svg PUBLIC "-//W3C//DTD SVG 1.1//EN" "http://www.w3.org/Graphics/SVG/1.1/DTD/svg11.dtd" >
<svg xmlns="http://www.w3.org/2000/svg" xmlns:xlink="http://www.w3.org/1999/xlink" version="1.1" viewBox="0 0 256 256">
 <g >
 <path fill="currentColor"
d=" M 111.50 232.25 C 111.10 231.29 110.54 227.49 110.26 223.80 C 109.74 217.10 109.74 217.10 112.62 216.30 C 114.20 215.86 138.45 215.53 166.50 215.57 C 209.53 215.63 219.30 215.92 229.00 217.38 C 235.32 218.33 241.29 219.34 242.25 219.62 C 243.78 220.07 244.00 219.38 244.00 214.23 C 244.00 210.98 244.64 206.20 245.41 203.62 C 246.71 199.31 246.69 198.96 245.16 199.44 C 239.68 201.17 230.09 202.10 208.65 202.98 C 171.80 204.51 176.00 205.51 176.00 195.15 C 176.00 186.31 176.00 186.31 191.25 186.70 C 207.07 187.11 225.56 188.51 228.13 189.50 C 229.32 189.95 229.81 188.42 230.63 181.78 C 231.18 177.23 231.98 172.76 232.39 171.85 C 233.08 170.34 232.56 170.32 225.82 171.65 C 214.97 173.80 202.02 174.94 188.25 174.97 C 176.00 175.00 176.00 175.00 176.00 167.50 C 176.00 160.00 176.00 160.00 192.06 160.00 C 200.89 160.00 211.35 160.46 215.31 161.01 C 231.69 163.32 229.99 163.52 230.04 159.26 C 230.09 155.30 231.28 148.61 232.43 145.90 C 233.04 144.44 232.47 144.42 226.30 145.65 C 222.56 146.39 209.69 147.30 197.70 147.66 C 175.90 148.31 175.90 148.31 176.20 141.41 C 176.50 134.50 176.50 134.50 200.00 134.84 C 215.40 135.07 225.57 135.66 229.50 136.58 C 232.80 137.34 235.76 137.98 236.08 137.99 C 236.40 137.99 236.69 134.74 236.71 130.75 C 236.74 126.76 237.27 122.21 237.90 120.64 C 238.92 118.07 238.86 117.84 237.27 118.48 C 232.77 120.27 217.72 121.84 198.60 122.51 C 177.70 123.23 177.70 123.23 178.32 120.15 C 178.66 118.46 180.32 115.16 182.01 112.83 C 185.09 108.58 185.09 108.58 177.29 106.49 C 173.01 105.34 168.52 103.86 167.32 103.20 C 164.22 101.50 163.88 101.67 164.60 104.54 C 164.95 105.94 164.42 110.66 163.43 115.04 C 161.62 123.00 161.62 123.00 140.56 122.98 C 128.98 122.98 118.90 122.59 118.17 122.13 C 117.19 121.50 118.09 120.21 121.67 117.12 C 124.33 114.83 127.54 112.69 128.82 112.35 C 130.93 111.80 130.69 111.50 126.20 108.93 C 123.49 107.38 119.41 104.00 117.14 101.42 C 113.01 96.73 113.01 96.73 111.43 100.52 C 108.64 107.20 103.56 113.78 90.61 127.48 C 77.50 141.36 66.52 150.51 61.72 151.56 C 58.94 152.17 58.94 152.17 63.50 155.66 C 66.01 157.57 69.83 161.38 71.99 164.11 C 75.92 169.08 75.92 169.08 77.99 165.01 C 79.96 161.17 89.36 149.91 91.24 149.15 C 91.73 148.95 91.98 164.66 91.81 185.15 C 91.50 221.50 91.50 221.50 88.89 226.12 C 86.28 230.75 86.28 230.75 94.39 231.43 C 98.85 231.80 104.08 232.49 106.00 232.95 C 111.56 234.29 112.30 234.20 111.50 232.25 Z  M 27.42 209.11 C 30.13 205.35 35.28 199.86 38.87 196.89 C 42.46 193.93 47.64 189.52 50.39 187.10 C 53.14 184.69 57.89 181.58 60.95 180.21 C 64.00 178.83 66.61 177.63 66.74 177.53 C 66.87 177.43 64.75 175.05 62.03 172.23 C 59.32 169.41 56.13 165.22 54.96 162.92 C 52.82 158.73 52.82 158.73 50.03 163.62 C 44.77 172.79 24.55 189.56 13.40 193.99 C 10.16 195.28 7.35 196.45 7.16 196.60 C 6.97 196.74 9.22 199.26 12.16 202.20 C 15.10 205.14 18.36 209.45 19.40 211.77 C 20.45 214.10 21.57 215.98 21.90 215.97 C 22.23 215.95 24.71 212.86 27.42 209.11 Z  M 20.22 123.90 C 30.14 122.75 54.91 123.71 59.01 125.41 C 60.25 125.92 60.45 125.22 60.15 121.41 C 59.95 118.87 60.31 114.09 60.96 110.80 C 61.61 107.50 61.99 104.66 61.81 104.48 C 61.63 104.30 58.79 104.78 55.49 105.56 C 45.01 108.02 14.16 107.33 6.73 104.46 C 5.15 103.84 5.08 104.07 6.09 106.64 C 6.71 108.21 7.28 113.22 7.36 117.76 C 7.46 123.79 7.83 125.90 8.72 125.56 C 9.38 125.30 14.56 124.55 20.22 123.90 Z  M 230.17 73.74 C 229.90 44.58 230.10 37.73 231.33 34.18 C 232.81 29.88 232.81 29.88 230.15 30.40 C 217.89 32.79 209.85 33.21 188.50 32.57 C 175.85 32.19 163.61 31.52 161.29 31.08 C 157.08 30.28 157.08 30.28 157.68 38.39 C 158.01 42.85 158.45 46.70 158.67 46.95 C 158.88 47.19 162.78 46.85 167.33 46.20 C 175.85 44.96 207.75 44.56 211.75 45.63 C 213.94 46.22 214.00 46.57 214.00 59.91 C 214.00 73.58 214.00 73.58 192.25 78.99 C 174.23 83.48 168.99 84.40 161.72 84.41 C 154.19 84.41 153.03 84.63 153.59 85.95 C 156.00 91.76 158.00 98.33 158.00 100.48 C 158.00 103.51 158.31 103.56 161.79 101.04 C 164.94 98.76 206.96 88.00 212.70 88.00 C 214.52 88.00 214.41 98.08 212.55 102.53 C 211.10 106.00 211.10 106.00 216.80 106.06 C 219.94 106.09 224.07 106.71 226.00 107.44 C 227.93 108.17 229.72 108.82 230.00 108.88 C 230.28 108.95 230.35 93.13 230.17 73.74 Z  M 146.81 94.00 C 146.29 89.88 146.01 75.25 146.19 61.50 C 146.48 39.76 146.76 36.07 148.32 33.19 C 150.11 29.89 150.11 29.89 146.80 30.46 C 136.20 32.29 128.07 32.96 116.50 32.93 C 100.45 32.88 76.16 31.47 73.59 30.43 C 71.93 29.76 71.77 29.98 72.40 32.08 C 72.79 33.41 73.38 37.35 73.70 40.84 C 74.29 47.18 74.29 47.18 78.89 46.57 C 86.21 45.59 123.73 44.73 127.54 45.44 C 131.00 46.09 131.00 46.09 131.00 59.47 C 131.00 74.78 134.66 72.49 99.00 79.51 C 84.98 82.26 79.23 82.99 75.25 82.50 C 70.01 81.86 70.01 81.86 72.06 86.64 C 73.19 89.28 74.57 93.57 75.13 96.19 C 76.15 100.95 76.15 100.95 78.83 99.03 C 80.30 97.98 83.97 96.66 87.00 96.10 C 90.03 95.54 100.38 93.27 110.00 91.05 C 119.62 88.84 128.29 87.02 129.25 87.01 C 131.50 87.00 131.62 91.89 129.47 96.05 C 127.95 99.00 127.95 99.00 133.72 99.08 C 136.90 99.12 141.30 99.72 143.50 100.41 C 145.70 101.09 147.55 101.62 147.62 101.58 C 147.69 101.54 147.32 98.12 146.81 94.00 Z  M 201.01 65.75 C 201.02 62.86 201.29 59.51 201.62 58.30 C 202.18 56.19 202.05 56.15 198.35 57.18 C 193.89 58.43 167.59 57.56 163.56 56.02 C 161.09 55.08 161.00 55.18 161.00 58.90 C 161.00 61.02 160.72 64.16 160.38 65.88 C 159.75 69.00 159.75 69.00 175.12 69.06 C 183.58 69.09 192.30 69.49 194.50 69.94 C 201.16 71.32 201.00 71.43 201.01 65.75 Z  M 121.00 66.62 C 121.00 64.77 121.27 61.92 121.59 60.30 C 122.18 57.34 122.18 57.34 111.34 57.77 C 100.97 58.18 81.24 56.86 77.93 55.55 C 76.59 55.01 76.36 55.90 76.43 61.46 C 76.50 68.00 76.50 68.00 93.00 68.07 C 102.08 68.11 111.53 68.51 114.00 68.95 C 121.12 70.22 121.00 70.26 121.00 66.62 Z  M 61.98 65.18 C 61.99 64.46 63.55 60.52 65.43 56.43 C 68.74 49.28 68.79 49.00 66.76 49.00 C 65.59 49.00 59.69 47.82 53.63 46.37 C 41.62 43.50 27.02 37.33 22.88 33.37 C 20.25 30.87 20.25 30.87 18.02 39.18 C 16.79 43.76 15.14 48.74 14.36 50.25 C 12.95 53.00 12.95 53.00 17.22 53.01 C 23.33 53.02 51.31 62.32 56.33 66.01 C 60.36 68.98 61.94 68.75 61.98 65.18 Z  M 116.25 203.26 C 110.00 202.90 110.00 202.90 110.00 194.95 C 110.00 187.00 110.00 187.00 121.25 187.00 C 127.44 186.99 138.24 186.70 145.25 186.34 C 158.00 185.69 158.00 185.69 158.00 194.85 C 158.00 204.00 158.00 204.00 140.25 203.81 C 130.49 203.70 119.69 203.45 116.25 203.26 Z  M 116.25 174.26 C 110.00 173.90 110.00 173.90 110.00 167.58 C 110.00 161.26 110.00 161.26 113.75 160.64 C 115.81 160.30 126.61 160.02 137.75 160.01 C 158.00 160.00 158.00 160.00 158.00 167.50 C 158.00 175.00 158.00 175.00 140.25 174.81 C 130.49 174.70 119.69 174.45 116.25 174.26 Z  M 115.75 148.26 C 110.00 147.90 110.00 147.90 110.00 141.45 C 110.00 135.00 110.00 135.00 125.75 134.99 C 134.41 134.99 145.21 134.70 149.75 134.35 C 158.00 133.70 158.00 133.70 158.00 141.35 C 158.00 149.00 158.00 149.00 139.75 148.81 C 129.71 148.71 118.91 148.46 115.75 148.26 Z "/>
</g>
</svg>