<?xml version="1.0" encoding="UTF-8" standalone="no"?>
<!DOCTYPE svg PUBLIC "-//W3C//DTD SVG 1.1//EN" "http://www.w3.org/Graphics/SVG/1.1/DTD/svg11.dtd" >
<svg xmlns="http://www.w3.org/2000/svg" xmlns:xlink="http://www.w3.org/1999/xlink" version="1.1" viewBox="0 0 256 256">
 <g >
 <path fill="currentColor"
d=" M 102.49 226.25 C 104.13 223.64 112.01 214.73 119.99 206.44 C 129.06 197.03 137.80 186.74 143.29 178.97 C 151.54 167.33 163.48 145.50 167.51 134.73 C 169.29 129.96 169.29 129.96 179.98 151.23 C 189.48 170.14 199.03 186.22 214.00 208.50 C 216.58 212.35 220.58 218.93 222.87 223.12 C 227.04 230.75 227.04 230.75 233.77 224.05 C 238.11 219.73 242.70 216.31 246.70 214.42 C 250.11 212.82 252.92 211.19 252.95 210.82 C 252.98 210.44 252.10 209.85 250.99 209.50 C 246.72 208.14 233.03 196.84 222.84 186.25 C 211.17 174.13 199.58 157.64 191.21 141.26 C 185.75 130.56 177.00 109.27 177.00 106.67 C 177.00 105.25 178.01 105.09 184.25 105.49 C 188.24 105.75 197.57 106.20 205.00 106.49 C 217.51 106.98 225.85 107.87 233.64 109.53 C 236.78 110.21 236.78 110.21 237.51 102.85 C 237.92 98.81 238.81 93.32 239.50 90.67 C 240.72 85.95 240.70 85.85 238.63 86.45 C 226.33 90.04 218.24 91.07 197.75 91.67 C 176.00 92.31 176.00 92.31 176.02 68.41 C 176.04 43.96 177.04 34.68 180.39 28.22 C 181.92 25.26 181.92 25.26 168.71 24.76 C 161.44 24.48 154.63 23.89 153.58 23.45 C 151.95 22.78 151.78 22.95 152.48 24.58 C 156.82 34.69 156.93 35.67 156.97 64.25 C 157.00 92.00 157.00 92.00 145.75 92.00 C 133.45 91.99 118.53 89.95 112.57 87.47 C 110.49 86.60 108.59 86.08 108.35 86.32 C 108.11 86.56 108.38 89.62 108.95 93.13 C 109.52 96.63 109.99 101.87 109.99 104.76 C 110.00 110.02 110.00 110.02 114.25 109.44 C 116.59 109.11 120.82 108.41 123.65 107.88 C 129.18 106.83 156.21 105.05 156.95 105.68 C 157.81 106.41 155.07 119.56 152.41 127.50 C 148.74 138.41 141.15 154.40 135.96 162.12 C 123.20 181.11 95.83 200.23 78.03 202.59 C 72.91 203.27 72.91 203.27 76.21 205.26 C 81.48 208.45 93.29 221.10 95.82 226.26 C 97.10 228.87 98.45 231.00 98.82 231.00 C 99.19 231.00 100.84 228.86 102.49 226.25 Z  M 33.50 183.72 C 44.51 182.23 92.41 182.27 99.50 183.77 C 102.25 184.36 104.64 184.69 104.82 184.51 C 105.00 184.33 104.67 182.46 104.08 180.34 C 102.68 175.31 102.59 59.91 103.98 55.06 C 104.52 53.17 104.82 51.49 104.64 51.31 C 104.47 51.13 100.54 51.64 95.91 52.44 C 77.87 55.55 40.05 55.53 17.37 52.38 C 13.24 51.81 13.24 51.81 14.65 57.15 C 15.80 61.53 16.01 73.41 15.77 122.50 C 15.61 155.50 15.11 183.27 14.65 184.21 C 13.71 186.15 16.05 186.08 33.50 183.72 Z  M 207.89 78.46 C 212.22 68.83 222.77 54.19 227.57 51.15 C 231.27 48.80 231.27 48.80 225.39 45.48 C 222.15 43.66 218.40 41.00 217.06 39.57 C 214.63 36.98 214.63 36.98 213.37 39.96 C 210.63 46.49 199.21 63.77 194.43 68.62 C 189.36 73.77 189.36 73.77 195.76 78.50 C 199.28 81.10 202.39 83.86 202.68 84.62 C 203.63 87.08 204.44 86.12 207.89 78.46 Z  M 32.25 168.34 C 31.30 167.96 31.00 162.53 31.00 145.99 C 31.00 124.14 31.00 124.14 36.25 123.50 C 39.14 123.14 43.52 122.99 46.00 123.17 C 50.50 123.50 50.50 123.50 50.80 142.00 C 50.96 152.18 50.82 162.41 50.49 164.75 C 49.88 169.00 49.88 169.00 41.69 168.92 C 37.18 168.88 32.94 168.62 32.25 168.34 Z  M 66.67 168.33 C 66.30 167.97 66.00 157.43 66.00 144.93 C 66.00 122.19 66.00 122.19 72.25 122.71 C 86.71 123.91 85.46 121.76 85.77 146.15 C 86.04 167.72 86.04 167.72 80.77 168.35 C 73.88 169.18 67.50 169.17 66.67 168.33 Z  M 33.75 108.28 C 31.00 107.87 31.00 107.87 31.00 89.05 C 31.00 67.23 29.89 69.04 43.25 69.01 C 51.00 69.00 51.00 69.00 51.00 89.00 C 51.00 109.00 51.00 109.00 43.75 108.85 C 39.76 108.77 35.26 108.51 33.75 108.28 Z  M 66.00 88.96 C 66.00 68.93 66.00 68.93 75.75 69.21 C 85.50 69.50 85.50 69.50 85.77 88.61 C 86.04 107.72 86.04 107.72 81.38 108.36 C 78.82 108.71 74.31 109.00 71.36 109.00 C 66.00 109.00 66.00 109.00 66.00 88.96 Z "/>
</g>
</svg>