<?xml version="1.0" encoding="UTF-8" standalone="no"?>
<!DOCTYPE svg PUBLIC "-//W3C//DTD SVG 1.1//EN" "http://www.w3.org/Graphics/SVG/1.1/DTD/svg11.dtd" >
<svg xmlns="http://www.w3.org/2000/svg" xmlns:xlink="http://www.w3.org/1999/xlink" version="1.1" viewBox="0 0 256 256">
 <g >
 <path fill="currentColor"
d=" M 140.16 228.25 C 138.04 224.18 137.00 211.96 137.00 191.17 C 137.00 178.98 137.34 169.01 137.75 169.02 C 138.16 169.03 142.32 172.24 147.00 176.15 C 151.68 180.06 158.20 185.18 161.50 187.53 C 168.95 192.84 199.46 208.11 215.50 214.55 C 222.10 217.20 228.74 220.21 230.25 221.25 C 232.90 223.07 233.03 223.07 233.62 221.32 C 235.96 214.36 240.64 206.20 244.88 201.72 C 249.85 196.46 249.85 196.46 245.98 196.83 C 238.15 197.58 202.98 191.59 190.26 187.34 C 170.02 180.58 150.55 166.71 140.68 152.01 C 137.00 146.53 137.00 146.53 137.00 124.82 C 137.00 112.88 137.34 102.95 137.75 102.74 C 138.16 102.53 153.12 102.70 171.00 103.12 C 199.55 103.80 224.01 105.61 230.64 107.55 C 232.65 108.14 232.83 107.72 233.51 100.84 C 233.92 96.80 234.80 91.36 235.48 88.75 C 236.15 86.14 236.63 84.00 236.53 84.00 C 236.44 84.00 234.36 84.66 231.93 85.47 C 222.41 88.62 203.99 90.21 170.62 90.73 C 137.74 91.25 137.74 91.25 138.17 85.32 C 138.41 82.06 139.56 77.45 140.73 75.09 C 142.85 70.79 142.85 70.79 139.68 71.29 C 136.62 71.77 122.50 70.61 116.68 69.40 C 113.86 68.81 113.86 68.81 116.08 73.16 C 117.45 75.84 118.48 80.07 118.78 84.25 C 119.27 91.00 119.27 91.00 105.38 90.97 C 84.14 90.93 45.20 89.23 35.35 87.92 C 30.51 87.28 24.79 86.13 22.65 85.38 C 20.50 84.62 18.62 84.00 18.47 84.00 C 18.32 84.00 18.83 86.10 19.60 88.66 C 20.37 91.22 21.00 96.67 21.00 100.78 C 21.00 108.03 21.06 108.22 23.25 107.61 C 32.92 104.92 45.42 103.96 80.50 103.19 C 101.40 102.74 118.84 102.53 119.25 102.74 C 119.66 102.95 120.00 112.44 120.00 123.83 C 120.00 147.81 120.38 146.68 108.12 159.33 C 96.24 171.60 87.62 176.83 67.00 184.30 C 49.22 190.74 32.24 194.25 18.25 194.39 C 12.07 194.45 7.01 194.56 7.00 194.63 C 7.00 194.70 8.56 197.34 10.46 200.51 C 12.37 203.67 15.15 209.46 16.64 213.38 C 18.14 217.29 19.68 220.88 20.07 221.34 C 20.46 221.80 22.51 221.04 24.64 219.64 C 26.76 218.25 36.15 214.11 45.50 210.44 C 65.29 202.68 84.75 193.62 91.65 188.95 C 94.32 187.14 101.48 181.92 107.56 177.33 C 113.64 172.75 119.00 169.00 119.47 169.00 C 120.81 169.00 119.20 206.82 117.60 212.73 C 116.83 215.61 115.04 220.02 113.63 222.54 C 111.48 226.40 111.35 227.02 112.83 226.55 C 114.68 225.97 137.90 228.57 138.80 229.47 C 140.05 230.71 141.00 229.86 140.16 228.25 Z  M 38.50 171.77 C 40.53 168.57 67.52 147.16 69.66 147.06 C 71.25 146.98 85.78 162.70 87.87 166.77 C 89.56 170.04 89.56 170.04 93.20 165.27 C 96.42 161.05 98.57 159.15 106.50 153.49 C 108.45 152.10 108.43 152.06 106.00 152.01 C 100.87 151.90 93.62 147.55 78.64 135.58 C 74.78 132.50 74.78 132.50 75.49 123.52 C 75.87 118.58 76.79 113.37 77.53 111.95 C 78.87 109.36 78.87 109.36 71.18 109.43 C 66.96 109.47 61.79 109.14 59.70 108.69 C 55.89 107.89 55.89 107.89 57.58 111.15 C 59.85 115.55 60.58 125.72 58.97 130.61 C 55.45 141.28 41.87 150.04 26.38 151.62 C 20.08 152.27 20.08 152.27 25.44 158.20 C 28.40 161.46 31.87 166.57 33.16 169.55 C 34.45 172.53 35.73 174.96 36.00 174.94 C 36.27 174.93 37.40 173.50 38.50 171.77 Z  M 220.93 170.42 C 222.26 168.46 226.16 164.78 229.60 162.24 C 235.84 157.62 235.84 157.62 230.67 155.81 C 225.10 153.86 206.08 141.51 199.08 135.29 C 194.79 131.48 194.79 131.48 195.88 122.59 C 196.47 117.71 197.65 112.66 198.48 111.39 C 200.00 109.08 200.00 109.08 193.57 109.68 C 189.82 110.03 185.20 109.78 182.45 109.09 C 179.87 108.44 177.58 108.09 177.37 108.30 C 177.15 108.52 177.65 110.32 178.49 112.31 C 179.48 114.69 180.00 119.23 180.00 125.53 C 180.00 135.12 180.00 135.12 175.75 139.61 C 171.21 144.41 165.26 146.98 153.42 149.23 C 147.35 150.39 147.35 150.39 153.01 155.95 C 156.57 159.45 159.33 163.25 160.47 166.24 C 162.27 170.99 162.27 170.99 166.40 166.74 C 171.61 161.40 188.48 148.59 190.78 148.24 C 192.90 147.92 213.91 167.01 215.93 171.11 C 216.72 172.70 217.62 174.00 217.93 173.99 C 218.24 173.99 219.59 172.38 220.93 170.42 Z  M 97.18 72.00 C 96.75 60.00 96.75 60.00 127.38 60.00 C 158.00 60.00 158.00 60.00 157.96 66.75 C 157.93 70.46 157.26 75.30 156.47 77.50 C 155.68 79.70 155.02 81.55 155.02 81.61 C 155.01 81.68 159.16 81.98 164.25 82.30 C 169.34 82.61 174.59 83.20 175.92 83.60 C 178.02 84.23 178.24 84.07 177.57 82.41 C 177.15 81.36 176.56 75.89 176.26 70.25 C 175.71 60.00 175.71 60.00 179.11 60.01 C 188.46 60.06 229.36 63.49 232.64 64.51 C 234.67 65.14 234.81 64.75 235.50 56.99 C 235.90 52.49 236.78 46.43 237.45 43.52 C 238.68 38.23 238.68 38.23 235.54 39.55 C 229.18 42.21 214.02 44.27 196.00 44.92 C 185.82 45.29 177.10 45.40 176.62 45.16 C 175.29 44.50 176.71 33.80 178.88 28.07 C 180.81 23.00 180.81 23.00 172.15 22.99 C 167.39 22.98 161.75 22.69 159.60 22.33 C 155.71 21.69 155.71 21.69 156.42 24.60 C 156.82 26.19 157.39 31.89 157.69 37.25 C 158.23 47.00 158.23 47.00 127.62 47.00 C 97.00 47.00 97.00 47.00 97.00 38.97 C 97.00 34.06 97.59 29.53 98.51 27.31 C 99.35 25.32 99.91 23.59 99.76 23.47 C 99.62 23.35 94.20 23.03 87.72 22.76 C 76.78 22.30 75.99 22.39 76.51 24.03 C 77.52 27.21 78.99 37.41 78.99 41.28 C 79.00 43.70 78.47 45.27 77.52 45.63 C 74.73 46.70 37.56 44.03 28.50 42.11 C 23.55 41.06 18.74 39.89 17.82 39.52 C 16.27 38.89 16.25 39.25 17.56 44.17 C 18.34 47.10 18.98 53.04 18.99 57.37 C 19.00 65.05 19.05 65.22 21.25 64.59 C 27.46 62.80 43.44 61.13 60.40 60.50 C 79.30 59.80 79.30 59.80 78.74 67.28 C 78.43 71.40 77.46 76.15 76.59 77.83 C 75.71 79.52 75.00 81.15 75.00 81.45 C 75.00 81.75 78.49 82.05 82.75 82.12 C 87.01 82.18 91.85 82.58 93.50 83.00 C 95.15 83.42 96.75 83.82 97.05 83.88 C 97.36 83.95 97.42 78.60 97.18 72.00 Z "/>
</g>
</svg>