<?xml version="1.0" encoding="UTF-8" standalone="no"?>
<!DOCTYPE svg PUBLIC "-//W3C//DTD SVG 1.1//EN" "http://www.w3.org/Graphics/SVG/1.1/DTD/svg11.dtd" >
<svg xmlns="http://www.w3.org/2000/svg" xmlns:xlink="http://www.w3.org/1999/xlink" version="1.1" viewBox="0 0 256 256">
 <g >
 <path fill="currentColor"
d=" M 46.09 222.50 C 62.79 220.34 116.95 218.68 146.44 219.41 C 182.14 220.29 216.35 222.66 221.40 224.60 C 222.42 224.99 222.93 223.44 223.46 218.31 C 224.12 211.84 225.41 204.67 226.63 200.66 C 227.13 199.04 226.93 198.97 224.93 200.04 C 219.82 202.77 200.31 205.10 175.00 206.00 C 130.92 207.57 136.00 209.85 136.00 188.47 C 136.00 172.13 136.20 169.86 137.66 169.30 C 141.37 167.88 192.97 171.41 200.17 173.58 C 201.57 174.00 201.94 172.99 202.51 167.29 C 202.88 163.56 203.78 158.10 204.52 155.17 C 205.74 150.27 205.72 149.90 204.18 150.58 C 198.64 153.03 180.76 155.05 159.21 155.66 C 135.92 156.31 135.92 156.31 136.21 146.41 C 136.50 136.50 136.50 136.50 150.50 136.59 C 162.63 136.68 170.90 137.47 182.25 139.63 C 185.00 140.16 185.00 140.15 185.01 134.33 C 185.01 127.91 186.57 121.00 188.02 121.00 C 192.63 121.00 226.50 137.65 232.00 142.62 C 235.58 145.85 236.05 146.03 236.65 144.36 C 241.09 132.01 244.98 124.24 249.00 119.65 C 250.65 117.77 252.00 116.02 252.00 115.77 C 252.00 115.51 248.29 115.01 243.75 114.67 C 229.57 113.59 192.46 104.84 171.31 97.59 C 160.75 93.97 149.72 89.96 146.81 88.68 C 141.50 86.36 141.50 86.36 150.47 79.72 C 155.40 76.07 163.95 70.37 169.47 67.05 C 174.99 63.72 180.64 60.28 182.04 59.40 C 184.48 57.86 184.95 57.98 194.64 62.73 C 200.18 65.44 206.82 69.43 209.40 71.58 C 211.98 73.74 214.34 75.50 214.65 75.50 C 214.96 75.50 216.26 72.70 217.55 69.28 C 218.83 65.86 221.03 61.38 222.42 59.33 C 225.21 55.22 224.64 54.04 219.81 54.02 C 214.19 53.98 171.59 36.49 163.21 30.78 C 160.85 29.17 158.41 27.02 157.77 26.00 C 156.75 24.36 156.42 24.70 154.91 29.00 C 153.97 31.66 151.81 35.87 150.10 38.35 C 148.40 40.83 147.00 43.06 147.00 43.30 C 147.00 43.54 148.84 43.98 151.09 44.29 C 155.13 44.83 166.02 49.03 165.91 50.00 C 165.88 50.27 161.93 54.01 157.13 58.30 C 147.39 67.03 131.61 78.71 128.41 79.57 C 125.37 80.39 99.78 65.42 86.72 55.19 C 80.95 50.66 80.95 50.66 88.72 47.38 C 93.00 45.58 98.00 44.08 99.83 44.05 C 101.67 44.02 103.00 43.66 102.80 43.25 C 102.60 42.84 100.53 38.70 98.22 34.05 C 95.90 29.41 94.00 25.03 94.00 24.33 C 94.00 23.63 92.02 25.03 89.60 27.45 C 84.99 32.07 78.17 35.64 55.50 45.33 C 43.71 50.38 39.30 51.83 30.66 53.53 C 27.92 54.06 27.87 54.16 29.44 56.29 C 31.07 58.50 36.26 68.96 37.35 72.24 C 37.87 73.80 38.18 73.73 40.36 71.55 C 42.88 69.03 61.98 59.00 64.27 59.00 C 66.23 59.00 90.83 73.17 102.79 81.19 C 113.34 88.27 113.34 88.27 109.92 90.10 C 104.50 93.00 86.69 99.86 76.15 103.11 C 56.58 109.14 19.19 114.88 8.32 113.52 C 5.39 113.16 3.00 113.13 3.00 113.46 C 3.00 113.79 4.06 116.19 5.36 118.78 C 7.82 123.69 11.40 134.18 12.49 139.67 C 13.13 142.85 13.13 142.85 20.49 138.88 C 27.99 134.83 66.81 121.48 67.90 122.57 C 68.23 122.90 68.66 126.95 68.85 131.58 C 69.05 136.21 69.33 140.00 69.49 140.00 C 69.65 140.00 73.32 139.36 77.64 138.58 C 81.96 137.79 92.70 137.01 101.50 136.83 C 117.50 136.50 117.50 136.50 117.79 146.41 C 118.08 156.32 118.08 156.32 95.79 155.66 C 75.55 155.06 59.39 153.21 50.32 150.46 C 48.16 149.81 48.15 149.85 49.57 154.56 C 50.36 157.18 51.00 162.64 51.00 166.69 C 51.00 174.07 51.00 174.07 56.25 173.43 C 59.14 173.07 63.30 172.37 65.50 171.87 C 70.82 170.65 114.11 168.45 116.29 169.28 C 117.82 169.87 118.00 171.92 118.00 188.63 C 118.00 207.32 118.00 207.32 95.75 206.67 C 57.19 205.54 38.67 203.47 30.81 199.40 C 27.86 197.88 27.74 197.89 28.43 199.65 C 29.64 202.73 30.79 216.72 30.23 221.63 C 29.74 225.97 29.83 226.16 31.70 225.16 C 32.79 224.58 39.26 223.38 46.09 222.50 Z  M 201.59 197.70 C 202.25 195.13 203.68 191.51 204.78 189.65 C 206.78 186.26 206.78 186.26 200.91 185.65 C 193.44 184.87 183.82 181.69 177.84 178.04 C 173.19 175.20 173.19 175.20 172.04 179.85 C 171.41 182.41 170.05 186.14 169.02 188.13 C 167.15 191.77 167.15 191.77 171.33 192.41 C 177.64 193.38 191.05 198.02 195.00 200.59 C 196.93 201.85 198.93 202.76 199.45 202.62 C 199.98 202.48 200.94 200.26 201.59 197.70 Z  M 67.70 195.58 C 72.75 194.16 78.99 193.00 81.55 193.00 C 85.62 193.00 86.12 192.78 85.45 191.25 C 82.95 185.48 80.92 178.40 81.34 176.83 C 81.95 174.48 81.70 174.52 77.23 177.43 C 72.88 180.26 68.73 181.39 56.84 183.01 C 48.18 184.18 48.18 184.18 49.47 187.34 C 50.18 189.08 51.07 193.10 51.46 196.28 C 52.15 202.07 52.15 202.07 55.33 200.11 C 57.07 199.04 62.64 197.00 67.70 195.58 Z  M 95.50 123.36 C 93.85 123.18 87.90 122.51 82.28 121.87 C 72.13 120.72 70.44 119.86 75.74 118.53 C 82.47 116.85 98.74 110.21 113.24 103.25 C 128.99 95.68 128.99 95.68 136.24 98.50 C 145.94 102.27 172.02 113.11 179.50 116.49 C 185.24 119.08 185.39 119.24 183.00 120.19 C 177.63 122.34 152.07 123.95 125.50 123.83 C 110.65 123.76 97.15 123.55 95.50 123.36 Z "/>
</g>
</svg>