<?xml version="1.0" encoding="UTF-8" standalone="no"?>
<!DOCTYPE svg PUBLIC "-//W3C//DTD SVG 1.1//EN" "http://www.w3.org/Graphics/SVG/1.1/DTD/svg11.dtd" >
<svg xmlns="http://www.w3.org/2000/svg" xmlns:xlink="http://www.w3.org/1999/xlink" version="1.1" viewBox="0 0 256 256">
 <g >
 <path fill="currentColor"
d=" M 166.98 242.05 C 244.45 242.19 244.45 242.19 245.33 238.84 C 246.43 234.67 245.65 216.25 244.31 214.91 C 243.66 214.26 242.39 214.28 240.60 214.96 C 239.10 215.53 234.97 216.00 231.43 216.00 C 225.00 216.00 225.00 216.00 225.00 150.08 C 225.00 84.15 225.00 84.15 222.44 81.11 C 218.86 76.86 215.04 76.06 194.75 75.33 C 177.00 74.69 177.00 74.69 177.00 67.24 C 177.00 59.80 177.00 59.80 207.55 60.15 C 238.09 60.50 238.09 60.50 239.65 55.12 C 241.48 48.84 241.12 38.97 238.91 34.50 C 237.55 31.76 237.08 31.54 233.46 32.00 C 231.28 32.27 218.47 32.50 205.00 32.50 C 180.50 32.50 180.50 32.50 180.54 28.50 C 180.56 26.30 180.94 22.58 181.38 20.24 C 182.18 15.99 182.16 15.97 178.38 14.38 C 173.79 12.47 155.13 12.86 150.81 14.96 C 148.12 16.26 148.12 16.29 148.71 24.71 C 149.31 33.15 149.31 33.15 121.90 32.70 C 106.83 32.46 93.19 31.91 91.60 31.49 C 88.85 30.75 88.74 30.84 89.56 33.10 C 90.03 34.42 90.45 41.35 90.49 48.50 C 90.54 59.47 90.78 61.43 92.03 61.04 C 92.84 60.79 105.78 60.42 120.80 60.21 C 148.09 59.83 148.09 59.83 147.80 67.17 C 147.50 74.50 147.50 74.50 125.17 74.50 C 102.84 74.50 102.84 74.50 103.57 77.50 C 103.97 79.15 104.47 110.99 104.68 148.25 C 105.07 216.00 105.07 216.00 98.19 216.00 C 94.41 216.00 89.14 215.35 86.49 214.55 C 83.83 213.75 81.37 213.27 81.02 213.49 C 80.55 213.78 80.47 243.31 80.93 244.71 C 80.97 244.82 82.91 244.24 85.25 243.41 C 88.90 242.12 100.42 241.93 166.98 242.05 Z  M 28.45 198.06 C 30.61 195.98 36.32 193.38 48.00 189.16 C 57.08 185.88 68.78 181.34 74.00 179.06 C 84.94 174.30 92.17 172.00 96.16 172.00 C 98.32 172.00 99.11 171.42 99.59 169.48 C 101.01 163.86 97.55 147.13 94.09 142.87 C 92.17 140.50 92.17 140.50 89.10 142.77 C 86.76 144.50 71.89 151.00 70.27 151.00 C 69.58 151.00 70.15 125.07 70.92 121.76 C 71.79 118.02 71.79 118.02 67.64 116.88 C 61.88 115.30 45.09 115.31 42.15 116.90 C 40.10 118.02 39.89 118.64 40.52 121.84 C 40.92 123.85 41.43 133.69 41.66 143.70 C 42.08 161.90 42.08 161.90 30.88 165.45 C 24.71 167.40 17.77 169.00 15.44 169.00 C 9.87 169.00 9.20 170.92 12.96 176.10 C 15.71 179.90 18.49 187.04 20.98 196.75 C 22.30 201.88 24.15 202.21 28.45 198.06 Z  M 59.00 109.37 C 65.88 109.26 71.85 109.14 72.28 109.09 C 72.70 109.04 72.36 107.67 71.53 106.05 C 70.69 104.43 70.00 100.99 70.00 98.41 C 70.00 93.71 70.00 93.71 77.25 94.37 C 81.24 94.74 85.92 95.30 87.66 95.62 C 90.28 96.10 91.04 95.80 92.08 93.85 C 93.81 90.62 93.81 74.63 92.09 68.66 C 90.57 63.40 91.30 63.61 82.50 65.91 C 80.30 66.48 76.59 66.96 74.25 66.98 C 70.00 67.00 70.00 67.00 70.00 44.97 C 70.00 27.81 70.33 22.15 71.47 19.41 C 72.95 15.88 72.95 15.88 69.26 14.34 C 66.48 13.17 62.84 12.88 54.32 13.15 C 40.60 13.59 39.31 14.35 40.98 21.09 C 41.65 23.78 41.96 33.51 41.79 46.00 C 41.50 66.50 41.50 66.50 34.34 66.79 C 30.28 66.96 24.24 66.40 20.41 65.52 C 16.69 64.65 13.30 64.30 12.88 64.72 C 12.45 65.15 12.57 67.53 13.14 70.00 C 14.18 74.55 13.77 89.64 12.49 93.70 C 11.52 96.76 15.17 97.56 20.88 95.54 C 26.75 93.47 40.84 93.42 41.63 95.47 C 41.94 96.28 41.49 99.72 40.63 103.12 C 39.77 106.51 39.33 109.72 39.65 110.25 C 40.00 110.82 41.51 110.87 43.37 110.38 C 45.09 109.92 52.12 109.47 59.00 109.37 Z  M 133.46 214.75 C 133.20 214.06 133.10 188.07 133.24 157.00 C 133.50 100.50 133.50 100.50 162.86 100.23 C 192.22 99.97 192.22 99.97 197.36 95.62 C 205.46 88.77 210.26 87.20 213.00 90.50 C 214.61 92.44 213.06 94.42 207.84 97.08 C 205.76 98.14 202.47 100.41 200.53 102.11 C 197.00 105.21 197.00 105.21 197.00 160.60 C 197.00 216.00 197.00 216.00 165.47 216.00 C 141.17 216.00 133.83 215.71 133.46 214.75 Z  M 144.86 203.82 C 148.65 202.72 184.26 203.26 187.75 204.46 C 189.69 205.13 190.21 204.73 191.50 201.65 C 193.40 197.11 193.44 185.99 191.57 181.52 C 190.21 178.25 189.99 178.14 186.83 179.05 C 181.53 180.57 147.22 180.17 142.63 178.53 C 137.11 176.57 135.63 177.40 136.66 181.89 C 137.12 183.88 137.53 189.78 137.57 195.00 C 137.65 206.62 137.60 206.38 139.75 205.50 C 140.71 205.11 143.01 204.35 144.86 203.82 Z  M 145.55 168.88 C 150.21 167.71 183.86 168.19 187.75 169.49 C 189.68 170.13 190.22 169.72 191.50 166.65 C 193.20 162.58 193.46 153.20 192.02 148.00 C 191.05 144.50 191.05 144.50 168.19 144.84 C 155.19 145.04 143.80 144.76 141.79 144.21 C 136.58 142.77 135.59 143.78 137.03 149.11 C 137.79 151.90 137.99 156.43 137.58 161.55 C 136.91 169.80 137.33 171.47 139.83 170.51 C 140.61 170.21 143.19 169.48 145.55 168.88 Z  M 145.56 134.88 C 150.11 133.73 182.26 134.23 187.25 135.52 C 189.73 136.16 190.16 135.87 191.50 132.65 C 193.20 128.58 193.46 119.20 192.02 114.00 C 191.05 110.50 191.05 110.50 167.27 110.38 C 154.20 110.31 141.93 110.08 140.00 109.88 C 136.75 109.53 136.53 109.68 136.88 112.00 C 137.10 113.38 137.36 119.22 137.47 125.00 C 137.72 137.80 137.63 137.35 139.63 136.59 C 140.52 136.25 143.19 135.48 145.56 134.88 Z "/>
</g>
</svg>