<?xml version="1.0" encoding="UTF-8" standalone="no"?>
<!DOCTYPE svg PUBLIC "-//W3C//DTD SVG 1.1//EN" "http://www.w3.org/Graphics/SVG/1.1/DTD/svg11.dtd" >
<svg xmlns="http://www.w3.org/2000/svg" xmlns:xlink="http://www.w3.org/1999/xlink" version="1.1" viewBox="0 0 256 256">
 <g >
 <path fill="currentColor"
d=" M 61.50 244.50 C 66.45 244.50 72.21 244.81 74.30 245.20 C 78.61 245.98 80.22 244.18 78.16 240.88 C 76.72 238.58 76.53 179.14 77.94 174.22 C 78.78 171.30 78.60 170.78 76.23 169.23 C 74.10 167.84 71.33 167.50 62.04 167.52 C 48.02 167.54 45.34 168.56 46.64 173.34 C 48.03 178.47 47.73 239.11 46.30 241.60 C 44.67 244.43 46.44 246.21 49.93 245.23 C 51.34 244.83 56.55 244.50 61.50 244.50 Z  M 89.50 237.53 C 94.34 235.79 146.27 235.35 152.01 237.01 C 156.90 238.42 158.00 236.57 158.00 226.93 C 158.00 217.93 159.55 215.38 163.08 218.57 C 164.85 220.17 165.09 221.49 164.92 228.58 C 164.81 233.07 165.01 237.20 165.35 237.76 C 165.77 238.44 167.66 238.30 170.95 237.33 C 174.96 236.15 182.21 235.94 208.71 236.20 C 226.74 236.39 242.14 236.75 242.93 237.02 C 246.69 238.29 249.31 223.41 247.07 213.44 C 245.79 207.71 244.35 206.54 240.43 208.03 C 239.02 208.56 227.77 209.00 215.43 209.00 C 193.00 209.00 193.00 209.00 193.00 172.40 C 193.00 135.79 193.00 135.79 212.75 136.36 C 223.61 136.67 233.84 137.06 235.48 137.21 C 238.16 137.47 238.60 137.09 239.82 133.50 C 240.74 130.81 241.04 126.53 240.74 120.47 C 240.25 110.36 238.82 106.37 236.17 107.66 C 235.25 108.10 225.16 108.61 213.75 108.79 C 193.00 109.11 193.00 109.11 193.00 80.46 C 193.00 51.80 193.00 51.80 218.54 52.15 C 244.07 52.50 244.07 52.50 245.54 47.57 C 247.42 41.22 247.28 33.80 245.15 27.50 C 243.50 22.60 243.40 22.51 239.99 23.00 C 238.07 23.27 207.48 23.50 172.00 23.50 C 136.52 23.50 105.95 23.27 104.06 23.00 C 100.63 22.50 100.63 22.50 100.63 38.00 C 100.63 53.50 100.63 53.50 103.07 53.11 C 104.40 52.90 118.69 52.55 134.81 52.32 C 164.13 51.91 164.13 51.91 163.94 88.21 C 163.75 124.50 163.75 124.50 166.13 124.20 C 167.43 124.03 171.30 123.80 174.72 123.70 C 179.91 123.53 181.30 123.86 183.09 125.65 C 184.28 126.83 184.97 128.25 184.63 128.79 C 184.29 129.34 180.03 130.10 175.16 130.49 C 170.30 130.87 165.73 131.55 165.02 131.99 C 164.00 132.62 163.77 140.67 163.93 170.89 C 164.12 209.00 164.12 209.00 152.02 209.00 C 139.92 209.00 139.92 209.00 140.32 150.75 C 140.53 118.71 141.04 91.13 141.44 89.45 C 142.06 86.84 141.82 86.24 139.77 85.30 C 135.85 83.52 120.99 82.66 116.23 83.94 C 112.03 85.07 112.00 85.10 112.00 89.74 C 112.00 92.67 111.65 94.05 111.05 93.45 C 109.57 91.95 100.94 71.09 99.30 65.00 C 98.48 61.98 97.44 59.11 97.00 58.64 C 96.55 58.17 92.43 59.44 87.84 61.46 C 83.25 63.47 78.94 65.37 78.25 65.67 C 77.27 66.10 77.01 61.47 77.02 44.36 C 77.04 32.34 77.45 20.77 77.94 18.66 C 78.80 14.94 78.73 14.79 75.45 13.41 C 73.20 12.48 68.23 12.00 60.69 12.00 C 50.83 12.00 49.08 12.25 47.61 13.88 C 46.16 15.48 46.07 16.40 47.02 20.15 C 47.75 23.07 48.02 36.13 47.81 59.02 C 47.55 87.41 47.24 93.89 46.02 95.73 C 44.70 97.72 44.71 98.14 46.13 99.55 C 47.50 100.93 48.56 100.98 54.11 99.97 C 58.10 99.23 64.01 99.04 69.88 99.47 C 79.26 100.14 79.26 100.14 78.56 97.32 C 78.17 95.77 77.65 92.92 77.40 91.00 C 76.74 85.99 83.24 101.86 84.87 109.25 C 85.74 113.19 86.62 115.00 87.67 115.00 C 88.52 115.00 91.43 113.00 94.15 110.55 C 98.63 106.52 107.83 102.00 111.54 102.00 C 112.80 102.00 113.00 109.22 113.00 155.50 C 113.00 209.00 113.00 209.00 103.25 208.96 C 97.39 208.93 91.91 208.34 89.50 207.47 C 87.30 206.68 85.44 206.02 85.36 206.02 C 84.28 205.90 84.15 210.86 85.08 216.59 C 85.96 222.05 85.96 225.40 85.08 230.43 C 84.45 234.09 84.20 237.51 84.52 238.04 C 85.24 239.20 84.70 239.26 89.50 237.53 Z  M 61.50 160.51 C 64.80 160.52 69.97 160.75 73.00 161.01 C 78.50 161.50 78.50 161.50 78.12 158.50 C 77.53 153.92 77.43 113.77 78.00 111.50 C 78.87 108.03 72.14 105.57 62.00 105.65 C 51.21 105.73 45.37 107.85 46.54 111.25 C 46.96 112.49 47.50 121.76 47.74 131.85 C 48.09 147.04 47.88 151.08 46.51 155.25 C 44.54 161.29 45.39 162.32 51.50 161.22 C 53.70 160.82 58.20 160.51 61.50 160.51 Z  M 40.24 133.50 C 39.02 124.30 39.18 113.99 40.87 92.50 C 41.95 78.75 43.14 66.52 43.52 65.33 C 44.06 63.57 43.58 62.84 40.99 61.49 C 38.42 60.17 35.53 59.90 26.54 60.17 C 13.99 60.54 11.49 61.53 13.01 65.52 C 13.54 66.91 13.56 79.39 13.07 95.69 C 12.32 120.76 12.03 123.98 10.12 128.34 C 8.95 131.00 8.24 133.58 8.54 134.06 C 8.84 134.54 13.23 134.70 18.29 134.41 C 23.36 134.11 29.52 134.31 32.00 134.84 C 38.47 136.24 40.55 135.90 40.24 133.50 Z "/>
</g>
</svg>