<?xml version="1.0" encoding="UTF-8" standalone="no"?>
<!DOCTYPE svg PUBLIC "-//W3C//DTD SVG 1.1//EN" "http://www.w3.org/Graphics/SVG/1.1/DTD/svg11.dtd" >
<svg xmlns="http://www.w3.org/2000/svg" xmlns:xlink="http://www.w3.org/1999/xlink" version="1.1" viewBox="0 0 256 256">
 <g >
 <path fill="currentColor"
d=" M 190.45 243.86 C 196.00 243.03 198.96 243.11 204.34 244.25 C 212.37 245.95 213.00 245.42 210.91 238.73 C 209.16 233.10 208.48 187.99 210.01 179.10 C 210.78 174.59 210.80 172.40 210.05 171.65 C 209.41 171.01 203.66 170.57 195.66 170.54 C 180.30 170.49 178.60 171.12 180.08 176.30 C 180.59 178.05 181.00 192.44 181.00 208.28 C 181.00 230.74 180.69 237.80 179.59 240.43 C 178.06 244.11 179.17 246.53 181.92 245.48 C 182.73 245.17 186.57 244.44 190.45 243.86 Z  M 114.39 241.74 C 114.77 239.71 117.98 234.92 122.92 228.99 C 127.28 223.77 132.26 217.18 133.99 214.33 C 142.51 200.36 147.32 173.70 148.83 132.00 C 149.50 113.50 149.50 113.50 165.25 113.22 C 181.00 112.95 181.00 112.95 181.00 134.83 C 181.00 148.44 180.58 157.92 179.88 159.93 C 179.24 161.76 179.13 163.51 179.63 163.98 C 180.11 164.44 183.80 164.10 187.84 163.22 C 195.01 161.66 203.46 162.16 209.24 164.50 C 211.91 165.58 212.45 162.66 210.61 157.05 C 209.35 153.20 209.00 147.84 209.00 132.46 C 209.00 112.79 209.00 112.79 224.25 113.31 C 232.64 113.59 240.71 114.14 242.19 114.52 C 244.67 115.16 244.93 114.92 245.69 111.35 C 246.13 109.23 246.50 102.91 246.50 97.30 C 246.50 85.75 245.69 83.91 241.48 85.83 C 238.76 87.07 155.72 87.57 151.25 86.37 C 149.03 85.77 149.00 85.55 149.00 68.90 C 149.00 52.21 149.02 52.03 151.25 51.60 C 152.49 51.37 161.38 50.45 171.00 49.57 C 189.26 47.91 229.86 41.73 233.75 40.03 C 239.21 37.64 235.04 25.92 224.97 15.35 C 220.64 10.81 217.23 9.82 215.03 12.46 C 212.02 16.09 193.74 20.66 171.03 23.46 C 156.71 25.23 128.33 25.50 122.66 23.92 C 120.54 23.33 118.64 23.03 118.43 23.24 C 118.22 23.44 118.48 28.31 119.01 34.06 C 120.70 52.49 121.39 100.84 120.05 107.00 C 117.66 118.02 117.37 117.55 126.30 117.15 C 136.98 116.68 139.21 117.33 138.81 120.78 C 138.50 123.50 138.49 123.50 131.00 123.24 C 118.50 122.82 118.99 122.37 119.65 133.76 C 120.06 140.72 119.63 148.06 118.14 159.50 C 115.62 178.88 113.08 188.91 108.19 198.79 C 104.50 206.27 104.50 206.27 104.00 154.20 C 103.50 102.13 103.50 102.13 100.58 99.08 C 95.50 93.78 90.65 92.61 77.04 93.38 C 68.67 93.85 64.94 93.72 64.45 92.93 C 64.07 92.31 65.62 87.90 67.89 83.12 C 71.57 75.38 76.96 57.39 76.99 52.75 C 77.00 51.18 78.23 51.00 88.76 51.00 C 95.22 51.00 101.98 51.42 103.78 51.94 C 106.67 52.77 107.22 52.59 108.67 50.39 C 110.71 47.27 110.90 29.59 108.94 24.86 C 107.67 21.78 107.62 21.77 102.58 22.62 C 99.79 23.09 79.28 23.49 57.00 23.49 C 16.50 23.50 16.50 23.50 16.50 37.54 C 16.50 51.57 16.50 51.57 31.75 51.17 C 47.00 50.76 47.00 50.76 46.44 55.63 C 45.07 67.58 41.28 77.57 36.16 82.69 C 34.42 84.42 33.00 86.48 33.00 87.25 C 33.00 88.12 35.89 89.55 40.62 91.04 C 45.70 92.63 48.73 94.18 49.73 95.70 C 52.61 100.10 48.92 102.73 44.35 99.53 C 41.05 97.22 31.06 93.76 29.45 94.38 C 28.65 94.69 28.00 96.03 28.00 97.36 C 28.00 100.39 21.12 108.85 16.76 111.18 C 14.97 112.13 12.29 112.94 10.82 112.96 C 6.55 113.02 6.21 116.34 10.02 120.68 C 13.76 124.93 16.60 131.20 18.51 139.39 C 20.56 148.18 21.35 148.42 27.12 142.00 C 32.06 136.50 32.06 136.50 31.73 170.50 C 31.45 199.08 31.12 205.44 29.67 210.42 C 28.72 213.67 28.29 216.67 28.72 217.07 C 29.15 217.47 33.10 217.47 37.50 217.07 C 41.90 216.67 48.65 216.67 52.50 217.07 C 59.96 217.84 61.66 217.10 59.90 213.80 C 59.00 212.13 59.55 212.00 67.50 212.00 C 75.91 212.00 76.05 212.04 74.94 214.11 C 73.15 217.46 75.00 218.38 80.95 217.10 C 83.78 216.50 88.21 216.04 90.80 216.10 C 95.50 216.19 95.50 216.19 91.75 217.73 C 89.69 218.58 88.00 219.88 88.00 220.62 C 88.00 221.37 89.85 223.14 92.11 224.57 C 98.94 228.88 104.47 234.61 106.98 239.95 C 108.77 243.79 109.87 245.00 111.56 245.00 C 113.27 245.00 113.92 244.26 114.39 241.74 Z  M 59.00 152.50 C 59.00 119.00 59.00 119.00 65.29 119.00 C 71.45 119.00 71.68 118.90 76.04 114.42 C 81.37 108.95 84.93 106.91 87.85 107.67 C 91.44 108.61 90.32 110.66 83.00 116.50 C 76.00 122.09 76.00 122.09 76.00 154.04 C 76.00 186.00 76.00 186.00 67.50 186.00 C 59.00 186.00 59.00 186.00 59.00 152.50 Z "/>
</g>
</svg>