<?xml version="1.0" encoding="UTF-8" standalone="no"?>
<!DOCTYPE svg PUBLIC "-//W3C//DTD SVG 1.1//EN" "http://www.w3.org/Graphics/SVG/1.1/DTD/svg11.dtd" >
<svg xmlns="http://www.w3.org/2000/svg" xmlns:xlink="http://www.w3.org/1999/xlink" version="1.1" viewBox="0 0 256 256">
 <g >
 <path fill="currentColor"
d=" M 137.50 241.02 C 153.87 239.76 165.32 238.39 180.31 235.90 C 192.13 233.93 192.13 233.93 197.97 237.48 C 204.80 241.63 212.97 243.44 221.46 242.68 C 231.12 241.82 231.79 239.02 225.54 225.50 C 221.95 217.72 216.69 212.20 203.70 202.61 C 192.38 194.25 184.71 190.93 175.20 190.28 C 166.48 189.68 163.73 190.97 164.68 195.23 C 166.40 202.94 169.52 210.24 172.66 213.92 C 176.25 218.11 176.25 218.11 165.87 217.32 C 160.17 216.89 145.60 216.55 133.50 216.56 C 111.30 216.58 109.34 216.80 89.00 221.58 C 87.62 221.91 89.77 220.34 93.78 218.11 C 109.88 209.11 117.71 202.42 122.02 193.97 C 124.80 188.51 124.30 185.90 120.06 183.78 C 116.76 182.14 118.87 182.05 171.56 181.78 C 222.91 181.52 226.73 181.38 230.00 179.64 C 234.79 177.09 240.00 171.98 240.00 169.84 C 240.00 167.06 233.95 160.88 229.00 158.58 C 224.52 156.51 224.03 156.50 130.00 156.86 C 78.03 157.05 33.33 157.61 30.68 158.09 C 22.21 159.64 13.00 165.53 13.00 169.40 C 13.00 170.28 14.78 172.78 16.94 174.94 C 23.69 181.69 25.89 181.99 69.93 182.09 C 108.47 182.18 108.49 182.18 102.00 183.92 C 94.17 186.01 94.91 185.63 72.50 199.33 C 48.29 214.14 35.00 225.01 35.00 230.01 C 35.00 231.27 36.40 232.67 38.97 233.98 C 44.59 236.85 59.18 240.86 68.00 241.96 C 76.70 243.04 118.55 242.48 137.50 241.02 Z  M 210.35 142.92 C 215.17 141.58 223.00 134.55 223.00 131.56 C 223.00 128.67 218.67 124.65 212.50 121.80 C 207.50 119.50 207.50 119.50 129.00 119.50 C 50.50 119.50 50.50 119.50 44.77 122.31 C 38.79 125.25 35.00 129.03 35.00 132.05 C 35.00 134.38 43.02 141.40 47.22 142.74 C 51.83 144.22 205.07 144.39 210.35 142.92 Z  M 173.89 110.00 C 176.85 109.32 181.95 107.21 185.21 105.30 C 188.48 103.38 191.25 101.97 191.37 102.16 C 197.88 112.44 199.13 113.01 203.57 107.75 C 211.20 98.73 214.55 82.13 213.73 57.50 C 213.13 39.75 211.92 32.67 208.66 27.82 C 205.81 23.59 198.80 19.31 192.50 17.94 C 185.33 16.38 100.88 15.48 89.78 16.85 C 79.36 18.13 71.72 21.19 68.84 25.22 C 66.74 28.18 66.74 28.18 64.62 22.93 C 61.80 15.95 59.90 14.81 56.45 18.03 C 52.77 21.47 49.12 27.97 46.76 35.29 C 45.16 40.27 44.67 45.17 44.29 60.00 C 43.87 76.17 44.07 79.67 45.88 87.84 C 47.02 92.98 48.92 99.12 50.10 101.49 C 52.70 106.70 56.76 111.25 58.34 110.73 C 59.51 110.34 63.53 104.91 64.26 102.73 C 64.50 102.01 66.20 102.79 68.70 104.76 C 73.53 108.59 78.61 109.80 94.61 110.97 C 111.47 112.20 167.18 111.52 173.89 110.00 Z  M 67.62 92.23 C 70.84 84.89 71.79 81.40 72.48 74.35 C 73.18 67.19 73.18 67.19 79.36 70.08 C 87.48 73.88 98.07 74.96 127.50 74.98 C 156.71 75.00 170.68 73.75 177.86 70.46 C 180.80 69.12 183.61 68.26 184.11 68.57 C 184.60 68.87 185.01 71.23 185.01 73.81 C 185.02 76.41 186.35 82.29 188.00 87.00 C 189.64 91.67 190.98 95.59 190.99 95.71 C 190.99 95.82 187.47 94.08 183.15 91.84 C 175.31 87.76 175.31 87.76 156.40 86.96 C 135.77 86.09 88.78 87.33 80.00 88.98 C 76.88 89.57 72.66 91.30 70.24 92.99 C 65.99 95.97 65.99 95.97 67.62 92.23 Z  M 179.50 57.02 C 172.26 52.83 164.92 52.02 134.00 52.01 C 96.17 52.00 86.68 53.01 73.90 58.42 C 72.54 59.00 72.22 57.89 71.71 50.74 C 71.39 46.15 70.44 40.41 69.61 37.98 C 68.77 35.56 68.20 33.47 68.33 33.34 C 68.46 33.21 70.58 34.40 73.03 36.00 C 80.28 40.69 87.26 41.38 127.50 41.32 C 164.74 41.27 176.83 40.27 185.55 36.49 C 197.40 31.37 196.58 31.36 192.64 36.52 C 188.68 41.70 186.55 47.01 185.33 54.71 C 184.50 59.92 184.50 59.92 179.50 57.02 Z "/>
</g>
</svg>