<?xml version="1.0" encoding="UTF-8" standalone="no"?>
<!DOCTYPE svg PUBLIC "-//W3C//DTD SVG 1.1//EN" "http://www.w3.org/Graphics/SVG/1.1/DTD/svg11.dtd" >
<svg xmlns="http://www.w3.org/2000/svg" xmlns:xlink="http://www.w3.org/1999/xlink" version="1.1" viewBox="0 0 256 256">
 <g >
 <path fill="currentColor"
d=" M 220.36 238.51 C 227.96 236.90 238.53 231.60 240.72 228.29 C 242.02 226.33 241.84 225.83 238.48 222.11 C 236.47 219.88 232.27 216.81 229.16 215.28 C 223.50 212.50 223.50 212.50 126.50 212.50 C 35.89 212.50 29.16 212.62 24.37 214.29 C 18.95 216.18 11.00 222.67 11.00 225.20 C 11.00 226.03 12.57 228.76 14.48 231.27 C 17.98 235.85 22.82 238.28 30.50 239.30 C 32.15 239.52 74.00 239.76 123.50 239.83 C 198.78 239.94 214.62 239.73 220.36 238.51 Z  M 206.00 149.27 C 212.62 146.59 219.00 141.55 219.00 139.01 C 219.00 136.37 211.62 130.41 205.08 127.76 C 199.50 125.50 199.50 125.50 127.50 125.50 C 47.35 125.50 48.92 125.38 39.82 132.30 C 34.06 136.68 33.74 139.60 38.44 144.80 C 41.75 148.47 44.05 149.54 52.50 151.37 C 53.60 151.60 87.35 151.73 127.50 151.65 C 200.50 151.50 200.50 151.50 206.00 149.27 Z  M 204.83 111.69 C 207.02 108.37 207.56 106.26 207.85 99.89 C 208.32 89.56 205.46 82.82 198.70 78.34 C 194.12 75.31 194.12 75.31 208.43 74.69 C 219.52 74.21 224.03 73.59 228.50 71.91 C 234.62 69.62 242.00 63.79 242.00 61.23 C 242.00 58.64 234.02 52.15 228.12 49.94 C 223.03 48.04 220.83 47.88 203.02 48.18 C 183.50 48.50 183.50 48.50 176.80 52.11 C 170.11 55.71 170.11 55.71 172.06 51.89 C 176.95 42.29 178.38 26.63 175.03 19.25 C 173.30 15.44 172.74 15.00 169.63 15.00 C 167.18 15.00 164.76 16.06 161.45 18.59 C 152.75 25.23 149.41 30.48 141.65 49.70 C 139.17 55.86 133.28 67.26 128.58 75.04 C 123.87 82.82 119.34 91.47 118.51 94.27 C 116.70 100.37 116.53 110.13 118.20 111.80 C 120.30 113.90 126.44 113.12 132.76 109.96 C 141.98 105.36 148.97 97.10 158.88 79.16 C 167.26 63.98 167.26 63.98 171.53 67.92 C 173.89 70.10 177.75 72.42 180.15 73.11 C 182.54 73.80 184.64 74.46 184.82 74.58 C 185.00 74.71 184.17 76.71 182.98 79.03 C 177.90 89.00 179.82 101.99 187.48 109.43 C 192.58 114.39 197.40 116.97 200.18 116.24 C 201.27 115.96 203.36 113.91 204.83 111.69 Z  M 90.93 113.36 C 95.27 107.85 97.31 95.05 94.93 88.24 C 94.28 86.37 91.20 83.05 87.04 79.74 C 80.21 74.30 80.21 74.30 92.86 73.68 C 107.72 72.96 114.00 71.31 120.35 66.46 C 126.13 62.04 126.32 59.67 121.25 54.81 C 114.48 48.32 111.91 47.50 98.50 47.50 C 85.84 47.50 78.46 49.11 72.87 53.10 C 68.66 56.09 68.65 55.41 72.82 49.25 C 79.12 39.94 80.18 37.22 80.66 29.10 C 81.44 15.85 77.56 13.21 65.55 18.83 C 57.97 22.38 54.57 26.36 44.50 43.46 C 39.67 51.66 34.86 58.16 28.98 64.42 C 24.29 69.42 19.51 75.08 18.35 77.00 C 16.17 80.63 13.59 88.15 12.62 93.73 C 11.88 98.01 13.82 99.00 22.97 99.00 C 28.51 99.00 31.12 98.47 34.89 96.56 C 40.61 93.66 50.56 83.21 57.99 72.30 C 60.92 68.01 63.65 64.11 64.07 63.64 C 64.49 63.16 65.60 64.28 66.53 66.14 C 67.47 67.99 69.16 70.52 70.30 71.76 C 72.36 74.01 72.36 74.01 69.53 79.94 C 67.01 85.21 66.77 86.55 67.34 92.18 C 68.32 101.76 72.26 108.72 78.98 112.75 C 85.56 116.69 88.21 116.83 90.93 113.36 Z "/>
</g>
</svg>