<?xml version="1.0" encoding="UTF-8" standalone="no"?>
<!DOCTYPE svg PUBLIC "-//W3C//DTD SVG 1.1//EN" "http://www.w3.org/Graphics/SVG/1.1/DTD/svg11.dtd" >
<svg xmlns="http://www.w3.org/2000/svg" xmlns:xlink="http://www.w3.org/1999/xlink" version="1.1" viewBox="0 0 256 256">
 <g >
 <path fill="currentColor"
d=" M 64.44 242.65 C 72.29 231.26 72.41 230.56 73.03 192.00 C 73.33 173.03 73.69 159.07 73.81 161.00 C 74.17 166.46 77.38 172.46 81.21 174.82 C 84.97 177.14 96.48 180.44 97.85 179.59 C 99.23 178.74 100.06 165.79 98.98 161.90 C 97.42 156.26 92.28 151.11 86.12 149.03 C 80.74 147.22 80.74 147.22 86.30 145.60 C 93.49 143.51 97.43 140.11 99.41 134.31 C 101.01 129.61 101.52 121.51 100.39 118.58 C 100.05 117.68 98.62 117.00 97.07 117.00 C 93.49 117.00 84.28 119.77 81.23 121.77 C 78.02 123.87 74.52 129.53 72.38 136.07 C 70.66 141.35 70.66 141.35 69.03 136.36 C 68.14 133.62 66.39 129.96 65.16 128.23 C 62.92 125.08 62.92 125.08 73.71 110.49 C 86.92 92.64 88.32 90.32 91.06 81.80 C 93.97 72.76 93.52 63.25 90.01 59.52 C 85.99 55.23 82.47 54.82 52.97 55.17 C 25.45 55.50 25.45 55.50 18.94 58.71 C 15.36 60.47 11.32 63.10 9.96 64.55 C 7.50 67.19 7.50 67.19 12.79 72.07 C 20.05 78.76 24.69 80.00 42.52 80.00 C 57.72 80.00 63.27 78.82 72.65 73.57 C 75.04 72.24 77.00 71.27 77.00 71.44 C 77.00 71.60 73.72 74.45 69.70 77.77 C 64.27 82.26 60.12 87.09 53.46 96.65 C 47.70 104.93 39.96 114.20 31.72 122.71 C 17.84 137.04 13.92 143.38 13.65 152.00 C 13.50 156.50 13.50 156.50 21.50 156.44 C 32.03 156.37 37.36 154.02 42.90 147.01 C 47.34 141.39 47.92 141.65 45.34 148.11 C 43.86 151.82 43.75 156.06 44.36 188.50 C 45.06 226.32 45.51 230.27 50.04 239.00 C 52.71 244.15 57.61 249.09 59.37 248.41 C 60.20 248.09 62.48 245.50 64.44 242.65 Z  M 189.70 243.75 C 196.59 236.50 200.00 225.22 200.00 209.70 C 200.00 199.20 200.00 199.20 213.25 198.74 C 220.54 198.48 228.19 197.74 230.26 197.09 C 235.11 195.55 246.41 187.83 246.81 185.77 C 247.00 184.77 244.76 182.51 240.81 179.70 C 230.76 172.55 228.20 171.76 213.29 171.24 C 200.08 170.77 200.08 170.77 198.57 165.58 C 197.74 162.73 194.78 157.15 191.99 153.18 C 186.43 145.26 185.97 145.16 180.88 150.66 C 176.88 155.00 174.96 158.42 173.01 164.73 C 171.23 170.50 171.23 170.50 145.86 171.00 C 120.50 171.50 120.50 171.50 113.49 175.33 C 109.63 177.44 104.90 180.48 102.99 182.09 C 99.50 185.02 99.50 185.02 105.26 190.47 C 113.74 198.51 116.09 199.00 146.18 199.00 C 171.00 199.00 171.00 199.00 171.00 207.91 C 171.00 224.62 174.74 236.86 182.11 244.25 C 183.61 245.76 185.24 247.00 185.73 247.00 C 186.21 247.00 188.00 245.54 189.70 243.75 Z  M 138.50 168.96 C 151.26 167.14 159.44 161.27 168.78 147.25 C 172.28 142.00 172.28 142.00 183.05 142.00 C 195.23 142.00 203.79 139.93 209.46 135.60 C 211.34 134.17 213.25 133.00 213.72 133.00 C 214.19 133.00 216.27 135.28 218.35 138.06 C 220.43 140.85 222.66 142.95 223.32 142.73 C 225.77 141.92 231.03 133.67 233.20 127.21 C 235.31 120.92 235.47 118.53 235.78 89.19 C 236.16 52.58 235.68 49.42 228.65 42.39 C 222.13 35.87 217.78 35.00 191.77 35.00 C 169.90 35.00 169.90 35.00 172.45 31.66 C 176.36 26.52 176.00 19.93 171.47 13.75 C 169.55 11.14 167.18 9.00 166.20 9.00 C 162.91 9.00 153.76 15.37 151.84 18.98 C 149.66 23.12 149.52 28.53 151.50 32.00 C 153.50 35.50 153.42 35.71 149.57 36.98 C 147.69 37.60 143.40 39.88 140.04 42.05 C 136.68 44.22 133.73 46.00 133.49 46.00 C 133.25 46.00 132.31 44.54 131.41 42.75 C 129.14 38.26 125.98 35.00 123.90 35.00 C 121.85 35.00 115.75 41.78 112.66 47.50 C 110.58 51.35 110.49 52.81 110.20 86.85 C 109.95 116.69 110.15 122.92 111.46 126.85 C 113.13 131.87 121.53 143.00 123.64 143.00 C 124.35 143.00 126.80 140.53 129.09 137.50 C 131.37 134.47 133.37 132.00 133.52 132.00 C 134.57 132.00 143.50 138.72 143.50 139.51 C 143.50 140.05 140.35 143.04 136.50 146.14 C 129.35 151.91 126.58 155.05 123.65 160.70 C 119.34 169.05 123.13 171.16 138.50 168.96 Z  M 71.46 46.75 C 75.21 37.75 74.06 25.41 68.92 19.57 C 67.32 17.74 63.73 15.27 60.94 14.07 C 49.53 9.16 44.35 13.32 45.46 26.50 C 46.47 38.35 50.56 44.06 60.94 48.12 C 67.84 50.82 69.87 50.56 71.46 46.75 Z  M 136.59 124.28 C 137.05 123.30 137.59 115.86 137.79 107.75 C 137.98 99.64 138.32 93.00 138.53 93.00 C 138.74 93.00 141.49 94.81 144.65 97.02 C 147.80 99.23 152.10 101.31 154.19 101.65 C 158.41 102.32 158.49 102.60 157.16 112.39 C 156.50 117.28 156.50 117.28 151.00 118.67 C 147.97 119.43 143.31 121.41 140.63 123.06 C 136.90 125.36 135.96 125.65 136.59 124.28 Z  M 206.50 122.99 C 200.91 119.76 191.46 117.00 185.96 117.00 C 182.33 117.00 182.33 117.00 183.17 110.75 C 183.63 107.31 184.19 104.02 184.41 103.43 C 184.62 102.84 187.92 101.80 191.74 101.12 C 198.14 99.97 200.69 98.83 206.75 94.40 C 209.00 92.76 209.00 92.76 209.00 104.72 C 209.00 112.10 209.54 118.47 210.40 121.34 C 211.17 123.90 211.74 125.97 211.65 125.94 C 211.57 125.91 209.25 124.58 206.50 122.99 Z  M 137.79 70.75 C 137.59 62.36 137.03 54.62 136.53 53.55 C 135.70 51.75 135.87 51.77 138.77 53.84 C 144.95 58.24 150.79 60.09 160.67 60.81 C 170.30 61.50 170.30 61.50 167.55 64.77 C 166.03 66.56 163.99 70.16 163.00 72.77 C 161.64 76.38 160.65 77.56 158.86 77.76 C 149.43 78.82 147.67 79.37 143.49 82.56 C 141.01 84.45 138.79 86.00 138.56 86.00 C 138.33 86.00 137.98 79.14 137.79 70.75 Z  M 203.86 82.93 C 201.30 81.26 196.36 79.10 192.87 78.11 C 187.19 76.51 186.43 75.99 185.61 73.13 C 185.10 71.37 182.98 67.98 180.88 65.60 C 177.07 61.28 177.07 61.28 188.29 60.72 C 200.86 60.10 208.83 58.07 213.98 54.18 C 217.46 51.55 217.46 51.55 215.36 54.52 C 210.63 61.26 209.69 64.35 209.09 75.23 C 208.50 85.95 208.50 85.95 203.86 82.93 Z "/>
</g>
</svg>