<?xml version="1.0" encoding="UTF-8" standalone="no"?>
<!DOCTYPE svg PUBLIC "-//W3C//DTD SVG 1.1//EN" "http://www.w3.org/Graphics/SVG/1.1/DTD/svg11.dtd" >
<svg xmlns="http://www.w3.org/2000/svg" xmlns:xlink="http://www.w3.org/1999/xlink" version="1.1" viewBox="0 0 256 256">
 <g >
 <path fill="currentColor"
d=" M 58.71 214.70 C 69.86 202.60 80.59 175.42 84.55 149.19 C 86.52 136.20 90.18 45.01 88.80 43.50 C 87.58 42.17 69.23 42.43 65.78 43.83 C 64.28 44.43 62.79 45.96 62.46 47.21 C 62.10 48.59 58.81 51.58 54.18 54.74 C 38.33 65.55 19.09 83.81 15.25 91.68 C 13.78 94.70 13.83 95.13 16.31 100.18 C 18.80 105.25 27.11 115.00 28.93 115.00 C 29.41 115.00 31.91 111.60 34.50 107.45 C 39.87 98.84 54.34 79.94 58.94 75.55 C 62.02 72.61 62.02 72.61 61.50 93.55 C 61.21 105.07 60.76 120.91 60.49 128.74 C 59.25 164.42 51.32 194.45 39.07 209.83 C 36.74 212.76 35.09 215.42 35.41 215.75 C 36.10 216.43 48.30 218.72 52.12 218.89 C 54.01 218.97 55.85 217.80 58.71 214.70 Z  M 223.28 194.15 C 225.66 192.51 230.48 188.10 233.99 184.35 C 240.37 177.53 240.37 177.53 236.43 176.87 C 210.94 172.58 125.05 172.44 95.25 176.63 C 91.00 177.23 91.00 177.23 91.02 181.86 C 91.05 187.04 94.20 195.02 96.20 194.96 C 96.92 194.93 99.53 194.49 102.00 193.97 C 122.19 189.72 188.04 191.58 209.00 196.98 C 214.20 198.32 218.44 197.48 223.28 194.15 Z  M 162.50 84.50 C 174.60 84.50 191.32 84.87 199.65 85.32 C 214.80 86.14 214.80 86.14 215.95 82.66 C 216.58 80.75 217.19 76.55 217.30 73.34 C 217.50 67.50 217.50 67.50 208.50 66.65 C 196.74 65.54 128.09 65.53 116.50 66.64 C 107.50 67.50 107.50 67.50 107.66 74.00 C 107.74 77.58 108.31 81.77 108.91 83.32 C 110.01 86.15 110.01 86.15 125.25 85.32 C 133.64 84.87 150.40 84.50 162.50 84.50 Z "/>
</g>
</svg>