<?xml version="1.0" encoding="UTF-8" standalone="no"?>
<!DOCTYPE svg PUBLIC "-//W3C//DTD SVG 1.1//EN" "http://www.w3.org/Graphics/SVG/1.1/DTD/svg11.dtd" >
<svg xmlns="http://www.w3.org/2000/svg" xmlns:xlink="http://www.w3.org/1999/xlink" version="1.1" viewBox="0 0 256 256">
 <g >
 <path fill="currentColor"
d=" M 176.71 218.04 C 179.68 216.70 181.13 215.33 181.60 213.44 C 181.97 211.97 182.06 193.27 181.79 171.89 C 181.52 150.52 181.46 132.87 181.65 132.68 C 182.17 132.17 198.28 134.64 206.83 136.54 C 210.87 137.44 215.37 137.89 216.83 137.54 C 221.25 136.48 229.61 130.18 234.56 124.16 C 239.23 118.50 239.23 118.50 230.87 117.78 C 226.26 117.39 213.32 116.60 202.09 116.04 C 190.87 115.48 181.58 114.90 181.46 114.76 C 181.35 114.62 181.03 103.30 180.77 89.60 C 180.30 64.70 180.30 64.70 195.48 65.29 C 203.83 65.62 211.27 66.03 212.01 66.19 C 213.86 66.61 215.97 62.06 216.67 56.17 C 217.13 52.23 216.93 51.19 215.60 50.67 C 214.69 50.33 203.62 49.51 190.99 48.85 C 173.04 47.92 162.87 47.92 144.33 48.88 C 131.30 49.56 120.21 50.37 119.70 50.68 C 117.45 52.08 121.05 66.72 123.57 66.37 C 124.08 66.30 131.62 65.93 140.33 65.55 C 156.16 64.86 156.16 64.86 155.83 89.35 C 155.65 102.82 155.23 114.10 154.91 114.43 C 154.58 114.75 144.91 115.48 133.41 116.04 C 106.09 117.37 106.00 117.39 106.01 121.36 C 106.01 125.33 107.58 131.05 109.31 133.41 C 110.58 135.15 111.17 135.16 122.07 133.68 C 128.36 132.83 138.38 131.88 144.34 131.57 C 155.18 131.01 155.18 131.01 154.88 172.44 C 154.60 211.81 154.68 213.98 156.46 215.96 C 160.23 220.12 169.93 221.12 176.71 218.04 Z  M 45.25 212.01 C 52.54 209.28 61.18 202.08 69.29 191.97 C 73.03 187.31 76.47 183.37 76.94 183.20 C 78.23 182.75 90.93 200.06 91.83 203.50 C 92.90 207.52 94.80 207.65 99.77 204.05 C 104.55 200.59 107.63 195.20 109.03 187.87 C 110.40 180.59 108.11 176.07 98.01 166.13 C 89.82 158.07 89.82 158.07 92.87 149.79 C 98.63 134.12 102.37 118.43 103.77 104.00 C 104.50 96.50 104.50 96.50 108.30 96.19 C 112.81 95.81 113.71 94.15 114.12 85.39 C 114.40 79.50 114.40 79.50 107.45 78.87 C 103.63 78.53 94.54 78.19 87.25 78.12 C 79.96 78.06 74.00 77.66 74.01 77.25 C 74.02 76.84 74.66 74.41 75.43 71.86 C 76.21 69.30 77.36 62.85 78.00 57.52 C 79.05 48.72 78.99 47.65 77.41 45.90 C 75.15 43.40 67.30 41.10 58.45 40.34 C 51.40 39.74 51.40 39.74 50.21 55.62 C 49.56 64.35 48.65 72.85 48.19 74.50 C 47.36 77.50 47.36 77.50 36.93 78.13 C 31.19 78.47 25.04 78.81 23.25 78.88 C 20.55 78.98 20.00 79.39 20.00 81.32 C 20.00 85.25 22.97 92.63 25.53 95.02 C 27.78 97.14 28.55 97.26 36.39 96.70 C 44.83 96.11 44.83 96.11 41.86 107.30 C 40.23 113.46 37.11 123.67 34.94 130.00 C 30.98 141.50 30.98 141.50 33.78 144.00 C 35.33 145.38 41.85 150.95 48.27 156.38 C 59.96 166.27 59.96 166.27 56.81 170.38 C 44.38 186.63 28.50 196.90 17.75 195.65 C 12.21 195.00 11.85 195.88 14.91 202.60 C 19.30 212.27 33.11 216.55 45.25 212.01 Z  M 65.00 140.34 C 61.98 138.44 58.95 136.56 58.27 136.16 C 57.35 135.62 57.78 133.54 59.99 127.85 C 61.61 123.68 64.46 114.47 66.32 107.38 C 69.71 94.50 69.71 94.50 76.58 94.50 C 83.46 94.50 83.46 94.50 83.19 99.00 C 82.79 105.59 80.19 119.47 77.84 127.50 C 75.47 135.65 72.03 144.04 71.13 143.90 C 70.78 143.84 68.03 142.24 65.00 140.34 Z "/>
</g>
</svg>