<?xml version="1.0" encoding="UTF-8" standalone="no"?>
<!DOCTYPE svg PUBLIC "-//W3C//DTD SVG 1.1//EN" "http://www.w3.org/Graphics/SVG/1.1/DTD/svg11.dtd" >
<svg xmlns="http://www.w3.org/2000/svg" xmlns:xlink="http://www.w3.org/1999/xlink" version="1.1" viewBox="0 0 256 256">
 <g >
 <path fill="currentColor"
d=" M 114.14 221.95 C 145.95 218.73 159.96 208.99 159.99 190.10 C 160.00 183.70 160.00 183.70 181.25 184.38 C 192.94 184.76 205.92 185.33 210.11 185.66 C 217.71 186.26 217.71 186.26 218.86 182.98 C 219.49 181.18 220.00 177.58 220.00 174.99 C 220.00 170.27 220.00 170.27 210.75 169.66 C 205.66 169.31 191.24 168.74 178.70 168.37 C 155.89 167.70 155.89 167.70 161.70 164.74 C 169.88 160.57 176.17 155.75 182.04 149.17 C 187.35 143.23 193.65 131.86 192.59 130.14 C 191.52 128.42 181.62 126.74 176.44 127.40 C 167.14 128.59 149.50 129.09 145.22 128.30 C 140.93 127.50 140.93 127.50 153.42 120.05 C 167.64 111.55 164.51 112.01 190.50 114.66 C 219.43 117.62 216.66 117.75 223.70 113.05 C 229.51 109.16 238.00 100.39 238.00 98.27 C 238.00 97.71 228.97 97.06 216.37 96.69 C 204.47 96.35 194.49 95.82 194.19 95.53 C 193.90 95.23 195.50 93.41 197.75 91.48 C 200.01 89.55 203.93 85.20 206.48 81.82 C 210.28 76.77 211.05 75.03 210.80 72.12 C 210.35 66.85 205.68 64.00 197.46 64.00 C 191.74 64.00 191.17 64.20 190.63 66.35 C 190.30 67.64 188.21 70.68 185.97 73.10 C 182.64 76.71 182.05 77.05 182.68 75.00 C 183.11 73.62 183.47 70.47 183.48 68.00 C 183.50 63.50 183.50 63.50 168.00 62.34 C 159.47 61.71 147.44 61.15 141.25 61.09 C 130.00 61.00 130.00 61.00 129.90 56.25 C 129.74 48.47 128.87 46.71 124.02 44.25 C 118.10 41.25 110.85 41.27 105.50 44.29 C 101.53 46.53 101.50 46.61 101.00 53.53 C 100.50 60.50 100.50 60.50 94.00 60.71 C 79.31 61.18 45.37 63.18 43.63 63.67 C 42.01 64.14 41.86 64.86 42.44 69.26 C 42.81 72.04 43.71 75.48 44.45 76.91 C 45.79 79.50 45.79 79.50 61.65 78.33 C 70.37 77.69 83.01 77.13 89.75 77.08 C 102.00 77.00 102.00 77.00 102.00 85.45 C 102.00 93.91 102.00 93.91 98.75 94.41 C 96.96 94.69 81.10 95.17 63.50 95.48 C 45.90 95.79 28.41 96.32 24.63 96.65 C 17.75 97.25 17.75 97.25 18.32 102.01 C 18.63 104.63 19.59 108.47 20.45 110.53 C 22.02 114.29 22.02 114.29 31.26 113.64 C 61.12 111.51 70.33 111.08 97.50 110.52 C 123.44 109.99 127.26 110.10 125.74 111.32 C 122.22 114.15 84.24 130.34 70.07 135.05 C 45.49 143.23 39.80 144.49 27.67 144.50 C 16.85 144.50 16.85 144.50 17.52 148.99 C 18.34 154.48 19.95 157.67 23.66 161.20 C 33.97 170.99 48.26 168.64 91.50 150.02 C 103.50 144.85 103.50 144.85 131.00 144.37 C 158.50 143.89 158.50 143.89 154.53 147.49 C 152.35 149.47 147.75 152.47 144.31 154.17 C 138.25 157.15 137.95 157.20 134.24 155.71 C 132.14 154.87 128.42 153.91 125.96 153.58 C 121.18 152.93 110.87 154.86 110.35 156.51 C 110.18 157.05 112.45 158.54 115.40 159.82 C 118.35 161.10 121.96 163.40 123.43 164.93 C 126.10 167.71 126.10 167.71 101.80 168.38 C 88.43 168.74 72.89 169.32 67.25 169.66 C 57.00 170.27 57.00 170.27 57.01 174.39 C 57.01 176.65 57.50 180.25 58.09 182.39 C 59.17 186.27 59.17 186.27 69.83 185.65 C 75.70 185.30 92.48 184.72 107.11 184.36 C 133.73 183.70 133.73 183.70 134.41 188.27 C 135.68 196.75 131.24 202.66 119.50 208.10 C 113.19 211.03 100.57 214.00 94.48 214.00 C 92.49 214.00 90.00 214.47 88.93 215.04 C 86.51 216.33 86.40 220.55 88.75 221.92 C 91.03 223.25 101.21 223.26 114.14 221.95 Z  M 136.75 93.26 C 129.00 92.92 129.00 92.92 129.00 84.82 C 129.00 76.72 129.00 76.72 140.75 77.35 C 147.21 77.70 158.24 78.28 165.25 78.64 C 172.26 79.00 178.00 79.68 178.00 80.16 C 178.00 80.63 174.06 83.94 169.25 87.50 C 159.54 94.70 161.52 94.35 136.75 93.26 Z "/>
</g>
</svg>