<?xml version="1.0" encoding="UTF-8" standalone="no"?>
<!DOCTYPE svg PUBLIC "-//W3C//DTD SVG 1.1//EN" "http://www.w3.org/Graphics/SVG/1.1/DTD/svg11.dtd" >
<svg xmlns="http://www.w3.org/2000/svg" xmlns:xlink="http://www.w3.org/1999/xlink" version="1.1" viewBox="0 0 256 256">
 <g >
 <path fill="currentColor"
d=" M 45.34 216.98 C 53.64 214.41 59.61 209.90 63.70 203.09 C 68.71 194.75 70.20 186.31 70.76 163.32 C 71.25 143.14 71.25 143.14 78.37 141.97 C 88.90 140.24 88.34 140.65 87.60 135.06 C 87.25 132.37 86.50 128.87 85.95 127.30 C 84.97 124.46 84.90 124.44 77.98 124.83 C 71.00 125.23 71.00 125.23 71.00 108.51 C 71.00 91.79 71.00 91.79 78.93 92.49 C 86.87 93.20 86.87 93.20 87.87 89.35 C 88.42 87.23 89.01 83.49 89.19 81.03 C 89.50 76.57 89.50 76.57 85.50 75.84 C 83.30 75.44 79.14 75.09 76.25 75.06 C 71.00 75.00 71.00 75.00 71.00 61.72 C 71.00 51.31 70.66 47.96 69.44 46.22 C 65.58 40.70 56.16 39.24 51.31 43.41 C 48.53 45.80 48.50 45.95 48.00 60.16 C 47.50 74.50 47.50 74.50 43.50 74.74 C 23.62 75.93 23.00 76.04 23.00 78.55 C 23.00 81.89 25.89 90.15 27.83 92.33 C 29.27 93.95 30.47 94.08 38.75 93.46 C 48.05 92.76 48.05 92.76 47.77 111.51 C 47.50 130.25 47.50 130.25 35.12 134.20 C 22.74 138.15 22.74 138.15 23.39 143.65 C 24.05 149.31 25.77 154.21 28.14 157.22 C 29.40 158.82 30.06 158.66 37.35 154.97 C 41.68 152.79 45.90 151.00 46.75 151.00 C 48.10 151.00 48.22 153.07 47.70 167.75 C 47.36 177.10 46.48 186.71 45.70 189.50 C 42.03 202.64 34.03 211.00 25.13 211.00 C 23.63 211.00 21.86 211.54 21.20 212.20 C 19.64 213.76 19.66 217.25 21.25 218.90 C 22.99 220.71 36.82 219.61 45.34 216.98 Z  M 130.55 215.96 C 132.97 213.68 132.97 213.68 133.24 183.66 C 133.50 153.65 133.50 153.65 137.23 159.69 C 144.54 171.53 151.26 175.32 157.96 171.36 C 163.52 168.08 166.08 159.79 161.93 158.48 C 156.65 156.80 148.17 146.85 138.12 130.52 C 132.89 122.03 132.00 119.91 132.00 115.86 C 132.00 113.25 132.37 110.89 132.82 110.61 C 133.27 110.33 137.37 110.42 141.94 110.80 C 150.23 111.50 150.23 111.50 152.40 119.03 C 155.97 131.44 161.19 138.00 167.48 138.00 C 171.45 138.00 173.89 135.47 174.69 130.50 C 175.16 127.64 174.92 126.53 173.68 125.84 C 170.35 123.98 167.92 110.18 166.43 84.75 C 165.81 74.00 165.81 74.00 162.15 74.02 C 157.96 74.05 151.19 76.85 149.04 79.45 C 148.03 80.67 147.63 83.24 147.76 87.65 C 147.95 94.08 147.95 94.08 140.23 93.79 C 132.50 93.50 132.50 93.50 132.50 80.10 C 132.50 66.70 132.50 66.70 138.50 65.06 C 141.80 64.15 146.30 62.53 148.50 61.46 C 151.83 59.83 152.55 58.94 152.82 56.13 C 153.22 51.93 151.36 47.25 148.98 46.49 C 147.99 46.18 144.48 46.83 141.18 47.94 C 133.25 50.61 120.79 52.72 108.50 53.46 C 103.00 53.79 95.69 54.31 92.25 54.61 C 86.00 55.16 86.00 55.16 86.00 58.83 C 86.00 63.53 88.80 69.10 92.00 70.79 C 93.82 71.74 97.03 71.93 103.78 71.49 C 113.07 70.87 113.07 70.87 112.78 82.19 C 112.50 93.50 112.50 93.50 100.25 94.36 C 88.00 95.22 88.00 95.22 88.01 97.86 C 88.02 101.07 92.05 109.98 94.36 111.89 C 95.72 113.01 97.08 113.06 101.68 112.14 C 104.79 111.51 108.64 111.00 110.23 111.00 C 113.74 111.00 113.86 110.43 106.63 128.50 C 98.01 150.05 86.34 167.71 78.20 171.50 C 74.05 173.43 73.92 173.63 74.38 177.41 C 75.40 185.89 85.48 190.63 92.77 186.06 C 96.44 183.75 101.56 176.29 107.50 164.57 C 111.50 156.68 111.50 156.68 112.04 185.59 C 112.33 201.49 112.67 214.62 112.79 214.76 C 112.90 214.91 114.46 215.95 116.25 217.07 C 120.46 219.71 127.10 219.19 130.55 215.96 Z  M 166.54 212.63 C 175.92 208.27 184.40 196.07 190.14 178.70 C 193.37 168.93 193.37 168.93 197.54 180.77 C 205.10 202.22 210.16 210.47 217.72 213.65 C 227.37 217.71 235.11 212.81 236.63 201.67 C 237.22 197.40 237.16 197.28 234.10 196.67 C 230.28 195.91 222.20 188.54 218.01 182.02 C 213.73 175.35 205.45 156.55 201.51 144.56 C 198.26 134.65 198.22 134.32 199.00 123.00 C 199.44 116.67 200.12 97.78 200.51 81.00 C 201.20 51.11 201.17 50.46 199.17 48.65 C 196.00 45.79 190.10 44.09 183.14 44.04 C 177.85 44.01 176.88 44.25 177.37 45.52 C 177.69 46.36 178.25 66.95 178.61 91.27 C 179.44 147.29 178.53 156.07 170.03 174.50 C 163.71 188.21 153.67 197.00 144.32 197.00 C 138.89 197.00 143.43 209.94 150.02 213.25 C 154.79 215.64 160.54 215.43 166.54 212.63 Z  M 216.19 136.06 C 222.91 130.78 228.54 113.30 229.65 94.30 C 230.21 84.66 230.06 82.74 228.57 80.47 C 226.44 77.21 219.72 74.05 214.87 74.02 C 211.24 74.00 211.24 74.00 210.74 92.75 C 210.19 113.45 208.73 120.84 204.39 124.74 C 202.16 126.76 202.00 127.36 202.90 130.61 C 203.45 132.61 204.67 135.08 205.61 136.12 C 207.83 138.57 213.04 138.55 216.19 136.06 Z "/>
</g>
</svg>