<?xml version="1.0" encoding="UTF-8" standalone="no"?>
<!DOCTYPE svg PUBLIC "-//W3C//DTD SVG 1.1//EN" "http://www.w3.org/Graphics/SVG/1.1/DTD/svg11.dtd" >
<svg xmlns="http://www.w3.org/2000/svg" xmlns:xlink="http://www.w3.org/1999/xlink" version="1.1" viewBox="0 0 256 256">
 <g >
 <path fill="currentColor"
d=" M 51.04 218.99 C 59.47 217.39 66.59 213.57 72.90 207.26 C 85.75 194.41 91.18 174.35 91.26 139.50 C 91.29 121.97 90.09 114.31 84.94 99.15 C 82.00 90.51 82.00 90.51 85.00 86.50 C 93.07 75.74 97.97 63.99 98.30 54.61 C 98.55 47.59 96.38 45.02 89.51 44.25 C 84.44 43.68 83.04 44.62 83.02 48.63 C 83.00 51.11 75.92 65.40 73.01 68.85 C 71.03 71.19 71.03 71.19 63.52 64.28 C 54.82 56.25 48.94 53.00 43.16 53.00 C 39.04 53.00 31.00 55.59 31.00 56.92 C 31.00 57.31 32.91 58.70 35.24 60.01 C 41.52 63.54 47.68 69.62 53.07 77.60 C 57.86 84.70 57.86 84.70 50.41 90.60 C 40.85 98.16 28.06 105.00 23.47 105.00 C 20.82 105.00 20.01 105.42 20.02 106.75 C 20.06 109.92 23.70 116.62 26.62 118.92 C 32.91 123.88 49.05 120.02 61.26 110.65 C 63.88 108.64 66.21 107.00 66.44 107.00 C 66.81 107.00 67.13 109.40 68.43 122.23 C 68.77 125.65 68.26 126.56 62.42 132.87 C 49.97 146.31 34.02 156.38 23.13 157.67 C 19.33 158.12 18.00 158.70 18.01 159.89 C 18.02 163.88 20.26 168.86 23.43 171.94 C 31.55 179.80 44.60 175.88 60.54 160.79 C 67.24 154.45 69.01 153.20 68.61 155.08 C 68.33 156.41 67.81 160.20 67.45 163.50 C 64.87 187.29 53.53 208.55 42.34 210.57 C 37.57 211.43 36.00 212.63 36.00 215.42 C 36.00 220.03 40.24 221.04 51.04 218.99 Z  M 220.78 214.47 C 225.64 212.04 229.59 209.04 233.47 204.86 C 236.57 201.51 238.97 198.64 238.80 198.47 C 238.64 198.31 235.19 197.71 231.15 197.15 C 227.11 196.59 223.66 195.99 223.49 195.82 C 223.32 195.64 223.80 188.30 224.55 179.50 C 226.45 157.34 226.44 145.38 224.51 144.64 C 220.36 143.05 213.25 142.95 209.14 144.42 C 205.32 145.80 202.32 145.85 184.85 144.87 C 170.18 144.04 159.32 144.04 143.71 144.86 C 125.74 145.80 121.89 145.75 118.50 144.53 C 113.67 142.79 110.70 142.68 105.75 144.05 C 102.00 145.09 102.00 145.09 102.07 156.80 C 102.10 163.23 102.67 174.68 103.32 182.22 C 104.66 197.73 105.59 195.97 95.25 197.53 C 91.21 198.14 91.00 198.34 91.00 201.57 C 91.00 206.03 93.75 212.79 95.84 213.45 C 96.76 213.74 100.20 213.54 103.50 213.00 C 116.51 210.87 144.73 209.89 162.37 210.94 C 181.08 212.05 198.51 214.20 206.50 216.39 C 213.51 218.30 212.99 218.37 220.78 214.47 Z  M 160.59 139.89 C 167.47 137.78 173.61 133.70 177.29 128.82 C 180.07 125.13 183.00 117.26 183.00 113.47 C 183.00 110.33 184.66 110.30 203.41 113.05 C 217.32 115.09 217.32 115.09 220.85 112.24 C 225.96 108.10 229.86 102.95 230.57 99.40 C 231.19 96.32 231.19 96.32 219.84 95.66 C 213.60 95.30 202.31 95.01 194.75 95.00 C 182.34 95.00 180.81 94.81 179.00 93.00 C 176.05 90.05 176.52 88.63 181.25 86.33 C 186.29 83.87 200.58 73.42 204.44 69.36 C 207.80 65.83 215.32 54.99 214.79 54.45 C 214.57 54.24 211.61 53.35 208.22 52.48 C 203.93 51.38 201.04 51.16 198.77 51.77 C 196.88 52.28 191.07 52.27 185.00 51.74 C 173.65 50.76 127.35 51.46 120.00 52.73 C 115.93 53.43 115.47 53.79 115.20 56.51 C 115.00 58.57 115.92 61.04 118.11 64.35 C 121.31 69.18 121.31 69.18 125.90 68.56 C 128.43 68.23 141.75 67.69 155.50 67.38 C 180.50 66.81 180.50 66.81 178.02 69.46 C 176.66 70.92 173.62 73.39 171.28 74.94 C 167.45 77.47 166.34 77.72 160.75 77.32 C 155.66 76.96 153.90 77.25 151.25 78.92 C 149.46 80.05 148.00 81.32 148.00 81.76 C 148.00 82.19 149.63 83.42 151.61 84.49 C 155.33 86.49 160.31 92.69 159.40 94.17 C 159.11 94.63 152.00 95.00 143.60 95.00 C 135.19 95.00 122.84 95.29 116.16 95.65 C 104.00 96.31 104.00 96.31 104.02 99.40 C 104.03 101.11 105.05 104.30 106.30 106.50 C 108.57 110.50 108.57 110.50 115.54 110.42 C 119.37 110.37 131.39 109.96 142.25 109.51 C 162.00 108.68 162.00 108.68 161.99 111.09 C 161.99 112.42 160.61 115.89 158.94 118.80 C 155.43 124.93 149.45 129.21 141.02 131.63 C 133.07 133.91 132.53 134.32 132.19 138.28 C 131.91 141.66 132.08 141.89 135.19 142.31 C 140.98 143.10 154.29 141.83 160.59 139.89 Z  M 124.65 186.75 C 124.30 182.21 124.01 174.34 124.01 169.25 C 124.00 160.00 124.00 160.00 127.25 159.99 C 129.04 159.98 132.19 159.70 134.25 159.36 C 138.00 158.74 138.00 158.74 138.00 176.23 C 138.00 193.73 138.00 193.73 133.36 194.36 C 124.93 195.52 125.37 195.90 124.65 186.75 Z  M 192.25 194.28 C 189.00 193.87 189.00 193.87 189.00 176.31 C 189.00 158.75 189.00 158.75 192.12 159.38 C 193.84 159.72 197.22 160.00 199.62 160.00 C 204.00 160.00 204.00 160.00 203.99 175.25 C 203.98 183.64 203.70 191.51 203.37 192.75 C 202.74 195.09 200.86 195.35 192.25 194.28 Z  M 156.23 176.75 C 156.50 159.50 156.50 159.50 163.75 159.21 C 171.00 158.91 171.00 158.91 171.00 176.46 C 171.00 194.00 171.00 194.00 163.48 194.00 C 155.95 194.00 155.95 194.00 156.23 176.75 Z "/>
</g>
</svg>