<?xml version="1.0" encoding="UTF-8" standalone="no"?>
<!DOCTYPE svg PUBLIC "-//W3C//DTD SVG 1.1//EN" "http://www.w3.org/Graphics/SVG/1.1/DTD/svg11.dtd" >
<svg xmlns="http://www.w3.org/2000/svg" xmlns:xlink="http://www.w3.org/1999/xlink" version="1.1" viewBox="0 0 256 256">
 <g >
 <path fill="currentColor"
d=" M 224.06 217.39 C 230.96 215.34 237.51 209.13 238.53 203.67 C 238.92 201.60 239.06 199.73 238.84 199.51 C 238.62 199.29 236.66 199.52 234.47 200.03 C 230.08 201.05 211.04 201.34 208.65 200.42 C 207.47 199.97 207.80 199.26 210.17 197.14 C 212.43 195.12 213.32 193.31 213.70 189.97 C 214.32 184.36 211.95 181.00 205.51 178.35 C 201.09 176.53 199.66 175.00 202.38 175.00 C 203.14 175.00 204.06 173.99 204.43 172.75 C 205.32 169.72 207.37 125.40 206.70 123.66 C 206.41 122.90 204.11 121.76 201.59 121.13 C 197.79 120.17 196.36 120.24 193.25 121.54 C 189.96 122.93 187.26 122.98 171.14 122.00 C 157.60 121.18 147.69 121.18 133.44 122.00 C 119.77 122.80 113.52 122.81 112.12 122.06 C 109.56 120.69 105.13 120.71 101.15 122.10 C 98.00 123.20 98.00 123.20 98.07 134.35 C 98.16 147.93 100.22 173.55 101.31 174.64 C 101.74 175.07 104.53 175.43 107.51 175.43 C 111.72 175.43 113.44 174.94 115.28 173.20 C 117.46 171.16 119.22 170.89 136.86 169.85 C 147.42 169.23 156.32 168.98 156.63 169.30 C 157.94 170.61 154.51 177.39 150.16 182.09 C 145.50 187.13 145.50 187.13 127.27 182.61 C 110.83 178.53 91.73 175.00 86.12 175.00 C 84.57 175.00 84.00 175.62 84.00 177.32 C 84.00 182.53 81.00 189.59 77.28 193.16 C 73.20 197.06 68.11 200.00 65.42 200.00 C 64.05 200.00 63.85 200.66 64.32 203.61 C 66.51 217.10 82.09 220.25 91.00 209.00 C 94.34 204.78 98.98 195.39 98.99 192.81 C 99.00 191.88 99.37 190.89 99.82 190.61 C 101.01 189.88 113.72 192.67 126.44 196.45 C 132.52 198.27 149.88 203.44 165.00 207.95 C 180.12 212.47 195.43 216.76 199.00 217.49 C 208.03 219.33 217.65 219.29 224.06 217.39 Z  M 44.52 208.64 C 57.75 202.48 70.23 181.18 75.38 156.00 C 77.14 147.39 79.00 129.23 79.00 120.64 C 79.00 114.78 79.00 114.78 80.85 117.07 C 82.70 119.35 82.74 119.35 94.10 118.12 C 125.58 114.70 176.04 114.93 199.50 118.60 C 218.24 121.53 217.17 121.56 223.91 117.97 C 227.28 116.17 231.71 112.86 233.75 110.60 C 237.46 106.50 237.46 106.50 225.98 105.76 C 219.67 105.35 207.75 104.67 199.50 104.26 C 187.70 103.66 184.56 103.21 184.78 102.15 C 184.94 101.40 185.13 99.21 185.20 97.27 C 185.33 93.75 185.33 93.75 199.60 94.45 C 213.87 95.16 213.87 95.16 215.43 92.13 C 216.29 90.46 217.00 87.79 217.00 86.19 C 217.00 83.48 216.66 83.22 212.25 82.51 C 209.64 82.09 197.46 81.46 185.18 81.12 C 162.86 80.50 162.86 80.50 161.08 75.25 C 159.31 70.00 159.31 70.00 170.90 70.07 C 177.28 70.11 190.53 70.69 200.34 71.35 C 218.18 72.55 218.18 72.55 219.57 69.86 C 220.34 68.38 221.25 64.69 221.61 61.66 C 222.26 56.14 222.26 56.14 218.88 55.52 C 217.02 55.18 201.10 54.58 183.51 54.20 C 151.52 53.50 151.52 53.50 150.69 48.28 C 149.53 40.98 145.94 38.00 138.32 38.00 C 133.45 38.00 132.47 38.36 129.93 41.07 C 128.35 42.76 126.79 45.80 126.45 47.82 C 126.12 49.84 125.70 51.99 125.52 52.59 C 125.29 53.32 114.29 53.89 91.34 54.34 C 72.73 54.71 56.49 55.28 55.25 55.62 C 52.26 56.43 52.31 59.98 55.40 66.61 C 57.37 70.84 57.91 74.10 58.51 85.36 C 58.93 93.14 58.86 99.00 58.36 99.00 C 57.87 99.00 55.10 97.40 52.19 95.44 C 47.61 92.35 39.04 82.47 37.73 78.76 C 37.00 76.69 30.05 80.96 27.24 85.21 C 25.87 87.28 24.54 90.90 24.27 93.28 C 23.86 96.91 24.21 98.10 26.49 100.80 C 29.82 104.77 41.33 110.41 51.14 112.90 C 58.50 114.76 58.50 114.76 58.80 119.71 C 59.08 124.45 58.93 124.78 55.30 127.27 C 47.64 132.54 34.72 137.97 28.25 138.64 C 22.06 139.28 22.00 139.32 22.01 142.39 C 22.01 147.33 23.86 152.68 26.73 156.09 C 29.30 159.14 29.59 159.23 35.64 158.74 C 39.70 158.42 44.21 157.15 48.51 155.14 C 54.95 152.13 55.10 152.11 54.44 154.27 C 52.71 159.96 44.52 174.13 40.09 179.11 C 34.86 184.98 26.05 190.36 19.75 191.53 C 16.86 192.06 16.00 192.69 16.00 194.27 C 16.00 197.29 20.49 204.44 23.71 206.55 C 31.73 211.81 36.66 212.30 44.52 208.64 Z  M 171.50 192.97 C 167.65 191.97 164.32 191.13 164.10 191.08 C 163.88 191.04 165.54 189.66 167.80 188.03 C 172.54 184.60 174.00 182.29 174.00 178.22 C 174.00 174.95 172.07 172.84 166.97 170.50 C 163.60 168.96 163.82 168.92 174.56 169.33 C 184.75 169.71 185.83 169.94 188.39 172.31 C 189.91 173.72 192.47 175.16 194.08 175.52 C 198.90 176.58 197.83 181.27 191.13 188.33 C 187.09 192.60 183.02 195.06 180.30 194.89 C 179.31 194.82 175.35 193.96 171.50 192.97 Z  M 117.00 155.88 C 117.00 152.26 117.00 152.26 134.02 151.53 C 143.38 151.13 159.13 151.13 169.02 151.53 C 187.00 152.26 187.00 152.26 187.00 155.88 C 187.00 159.50 187.00 159.50 152.00 159.50 C 117.00 159.50 117.00 159.50 117.00 155.88 Z  M 117.00 137.39 C 117.00 134.32 117.07 134.28 123.15 133.64 C 131.06 132.82 158.89 132.82 175.25 133.66 C 187.33 134.27 188.00 134.42 187.98 136.40 C 187.98 137.56 187.64 138.97 187.23 139.55 C 186.75 140.25 174.89 140.58 151.75 140.55 C 117.00 140.50 117.00 140.50 117.00 137.39 Z  M 79.00 88.79 C 79.00 71.30 79.00 71.30 87.25 70.65 C 91.79 70.30 106.16 70.01 119.20 70.01 C 142.90 70.00 142.90 70.00 141.45 73.47 C 140.65 75.38 140.00 77.78 140.00 78.82 C 140.00 80.57 138.69 80.74 120.25 81.33 C 109.39 81.68 97.69 82.26 94.25 82.62 C 88.00 83.28 88.00 83.28 88.00 86.57 C 88.00 88.39 88.45 91.05 89.00 92.50 C 90.00 95.13 90.00 95.13 105.50 94.42 C 121.00 93.71 121.00 93.71 121.00 98.72 C 121.00 103.73 121.00 103.73 108.25 104.39 C 101.24 104.76 91.79 105.33 87.25 105.67 C 79.00 106.28 79.00 106.28 79.00 88.79 Z  M 141.00 99.58 C 141.00 97.70 140.73 95.45 140.39 94.58 C 139.86 93.19 141.29 93.00 152.14 93.00 C 164.50 93.00 164.50 93.00 164.71 98.00 C 164.92 103.00 164.92 103.00 152.96 103.00 C 141.00 103.00 141.00 103.00 141.00 99.58 Z "/>
</g>
</svg>