<?xml version="1.0" encoding="UTF-8" standalone="no"?>
<!DOCTYPE svg PUBLIC "-//W3C//DTD SVG 1.1//EN" "http://www.w3.org/Graphics/SVG/1.1/DTD/svg11.dtd" >
<svg xmlns="http://www.w3.org/2000/svg" xmlns:xlink="http://www.w3.org/1999/xlink" version="1.1" viewBox="0 0 256 256">
 <g >
 <path fill="currentColor"
d=" M 118.54 218.55 C 122.90 216.72 124.00 213.91 124.00 204.52 C 124.00 197.17 124.00 197.17 131.70 196.45 C 139.81 195.69 199.47 196.62 206.76 197.63 C 210.92 198.20 211.05 198.13 212.57 194.49 C 213.42 192.45 214.38 188.62 214.69 185.99 C 215.25 181.20 215.25 181.20 206.38 180.39 C 194.84 179.33 147.43 179.27 134.25 180.30 C 124.00 181.09 124.00 181.09 124.00 172.10 C 124.00 167.16 124.42 162.86 124.92 162.55 C 125.43 162.23 134.20 161.46 144.40 160.82 C 160.49 159.82 165.44 159.90 181.57 161.41 C 191.80 162.37 200.31 163.01 200.48 162.83 C 201.43 161.80 204.00 152.50 204.00 150.09 C 204.00 147.46 203.66 147.21 199.25 146.65 C 178.20 143.95 158.03 143.65 132.75 145.65 C 125.00 146.26 125.00 146.26 125.00 135.63 C 125.00 125.00 125.00 125.00 138.25 125.02 C 154.19 125.03 176.86 126.48 194.30 128.59 C 207.09 130.14 207.09 130.14 211.41 127.61 C 213.78 126.22 217.19 123.40 218.99 121.36 C 222.06 117.86 225.56 111.22 224.75 110.42 C 224.55 110.21 201.18 109.74 172.81 109.36 C 121.24 108.68 121.24 108.68 122.62 105.37 C 124.53 100.80 124.37 95.64 122.25 93.75 C 119.71 91.50 113.21 89.00 109.88 89.00 C 107.53 89.00 107.00 89.43 107.00 91.33 C 107.00 99.17 84.41 119.66 64.00 130.35 C 52.42 136.41 37.26 141.90 30.00 142.66 C 23.09 143.38 22.62 144.38 26.05 151.09 C 28.98 156.84 35.88 161.00 42.49 161.00 C 49.43 161.00 57.59 158.73 66.25 154.39 C 74.50 150.26 88.53 141.34 94.60 136.36 C 96.86 134.51 99.00 133.00 99.35 133.00 C 99.71 133.00 100.06 148.64 100.12 167.75 C 100.19 186.86 100.53 205.65 100.87 209.50 C 101.48 216.27 101.62 216.56 105.00 218.25 C 109.26 220.38 113.91 220.48 118.54 218.55 Z  M 89.70 103.04 C 95.18 99.70 98.79 91.52 95.27 90.38 C 89.43 88.50 87.19 87.09 81.70 81.87 C 75.59 76.06 75.59 76.06 77.97 73.53 C 79.28 72.14 80.66 71.00 81.05 71.00 C 81.43 71.00 83.72 72.82 86.12 75.04 C 95.62 83.79 110.08 87.96 115.13 83.38 C 118.17 80.63 120.00 76.57 120.00 72.57 C 120.00 68.74 120.00 68.74 111.05 67.52 C 106.32 66.87 95.01 61.92 93.15 59.68 C 92.31 58.67 92.44 57.29 93.65 54.20 C 95.15 50.39 95.15 49.88 93.65 47.58 C 92.07 45.17 86.75 43.02 82.35 43.01 C 80.82 43.00 79.87 43.94 79.07 46.22 C 75.65 56.03 47.14 71.92 27.85 74.78 C 22.50 75.57 22.50 75.57 22.69 79.78 C 23.08 88.55 29.02 94.00 38.19 94.00 C 42.62 94.00 45.39 93.15 52.91 89.49 C 58.00 87.01 62.59 85.25 63.10 85.56 C 63.62 85.88 65.16 88.36 66.54 91.07 C 67.91 93.78 70.97 98.03 73.35 100.50 C 77.18 104.51 78.14 105.00 82.08 105.00 C 84.70 104.99 87.80 104.20 89.70 103.04 Z  M 187.39 102.91 C 192.68 98.75 195.10 90.00 190.96 90.00 C 187.12 90.00 177.04 84.01 168.50 76.65 C 164.53 73.23 164.52 73.19 166.41 71.10 C 167.45 69.95 168.63 69.00 169.03 69.00 C 169.43 69.00 173.74 72.23 178.63 76.17 C 195.17 89.54 215.53 97.16 222.49 92.60 C 225.91 90.36 229.72 84.29 230.54 79.79 C 231.27 75.72 231.52 75.88 222.50 74.50 C 210.78 72.71 195.30 66.54 184.47 59.35 C 179.31 55.92 179.26 55.85 179.75 51.54 C 180.17 47.79 179.92 46.99 177.87 45.66 C 176.57 44.81 173.20 43.82 170.38 43.45 C 165.26 42.78 165.26 42.78 164.61 46.26 C 163.05 54.59 140.78 68.39 126.00 70.20 C 121.03 70.80 122.80 80.86 128.54 84.62 C 131.88 86.81 139.50 86.56 146.12 84.05 C 151.36 82.06 151.36 82.06 158.85 90.11 C 171.99 104.26 180.70 108.17 187.39 102.91 Z "/>
</g>
</svg>