<?xml version="1.0" encoding="UTF-8" standalone="no"?>
<!DOCTYPE svg PUBLIC "-//W3C//DTD SVG 1.1//EN" "http://www.w3.org/Graphics/SVG/1.1/DTD/svg11.dtd" >
<svg xmlns="http://www.w3.org/2000/svg" xmlns:xlink="http://www.w3.org/1999/xlink" version="1.1" viewBox="0 0 256 256">
 <g >
 <path fill="currentColor"
d=" M 128.41 214.12 C 144.24 206.32 156.44 185.53 160.99 158.55 C 162.69 148.50 162.69 148.50 173.85 148.59 C 179.99 148.64 185.29 148.96 185.63 149.30 C 186.95 150.61 182.09 164.43 177.27 173.11 C 177.08 173.44 181.56 174.24 187.21 174.88 C 196.62 175.94 207.54 178.21 208.66 179.33 C 209.60 180.26 205.79 187.62 202.70 190.84 C 198.20 195.53 193.10 197.89 184.50 199.26 C 177.29 200.41 177.09 200.51 177.64 202.97 C 178.65 207.50 183.42 214.24 187.00 216.21 C 191.46 218.67 200.76 218.18 206.64 215.18 C 212.35 212.27 219.45 204.00 223.45 195.61 C 226.75 188.68 232.64 171.23 231.88 170.62 C 231.56 170.37 213.03 166.07 205.33 164.45 C 203.15 164.00 203.15 164.00 205.18 158.25 C 207.74 150.96 209.96 140.59 209.98 135.77 C 210.00 132.58 209.62 131.94 207.41 131.39 C 204.43 130.64 206.80 130.62 162.50 131.86 C 143.80 132.38 125.01 133.15 120.75 133.55 C 113.00 134.29 113.00 134.29 113.00 138.21 C 113.00 140.37 113.49 143.04 114.08 144.15 C 115.69 147.15 114.81 147.26 109.91 144.68 C 104.79 141.98 98.28 133.96 97.39 129.24 C 96.62 125.17 96.35 125.01 91.26 125.69 C 83.50 126.73 81.00 132.27 84.50 140.65 C 85.33 142.63 86.00 144.57 86.00 144.97 C 86.00 145.78 71.41 148.00 66.12 148.00 C 62.75 148.00 62.75 148.00 69.67 140.71 C 87.25 122.20 97.91 106.00 98.26 97.26 C 98.47 91.82 95.51 88.58 88.45 86.53 C 80.80 84.30 79.15 84.50 78.44 87.75 C 77.55 91.80 74.10 100.41 72.38 102.87 C 70.74 105.21 67.93 105.48 57.17 104.36 C 51.05 103.72 51.05 103.72 58.91 95.41 C 71.45 82.16 79.34 69.04 81.85 57.27 C 83.66 48.82 81.33 45.32 72.07 42.60 C 62.88 39.89 62.44 40.08 61.05 47.25 C 57.11 67.51 36.85 95.24 23.54 98.58 C 20.89 99.24 20.79 99.48 21.39 103.80 C 21.73 106.29 22.82 109.72 23.80 111.41 C 25.47 114.28 26.11 114.54 32.55 115.09 C 36.37 115.41 43.93 116.23 49.36 116.91 C 54.78 117.58 59.84 117.89 60.61 117.60 C 63.99 116.30 61.24 119.87 50.75 130.41 C 40.11 141.10 30.73 147.97 26.75 147.99 C 23.28 148.01 25.16 158.40 29.25 161.79 C 30.01 162.42 31.95 162.97 33.57 163.01 C 39.09 163.14 85.50 159.14 89.83 158.15 C 93.71 157.28 94.56 157.44 97.83 159.68 C 100.93 161.79 102.35 162.11 106.92 161.75 C 111.45 161.38 112.80 160.79 115.17 158.14 C 116.73 156.39 118.00 154.07 118.00 152.97 C 118.00 151.39 118.48 151.08 120.25 151.51 C 121.49 151.82 126.89 151.46 132.25 150.72 C 142.00 149.37 142.00 149.37 142.00 151.98 C 142.00 156.77 139.02 166.42 135.00 174.63 C 130.46 183.90 123.77 191.88 117.38 195.62 C 112.30 198.60 103.42 199.76 97.75 198.20 C 94.00 197.16 94.00 197.16 94.02 200.83 C 94.05 204.95 96.84 211.80 99.33 213.86 C 105.51 218.98 118.31 219.09 128.41 214.12 Z  M 41.90 211.07 C 48.28 206.53 52.20 196.71 53.50 182.03 C 54.12 175.04 53.97 173.63 52.47 171.97 C 50.10 169.35 44.84 168.49 41.40 170.15 C 38.96 171.34 38.47 172.38 37.41 178.75 C 36.71 182.88 35.06 187.93 33.56 190.49 C 30.82 195.16 24.82 200.00 21.77 200.00 C 17.64 200.00 21.65 209.24 27.08 212.23 C 31.38 214.61 37.62 214.12 41.90 211.07 Z  M 74.46 210.38 C 77.91 209.05 78.80 204.87 79.15 188.34 C 79.47 173.66 79.33 172.03 77.61 170.13 C 74.97 167.20 69.95 166.46 66.15 168.42 C 61.27 170.95 60.67 173.04 61.41 184.92 C 62.53 203.09 63.16 207.16 65.15 209.15 C 66.99 210.99 71.36 211.57 74.46 210.38 Z  M 107.06 193.97 C 109.74 192.54 112.00 187.76 112.00 183.55 C 112.00 180.48 111.68 180.00 109.63 180.00 C 105.80 180.00 102.08 176.35 101.37 171.90 C 100.26 164.95 94.76 162.40 87.47 165.45 C 84.12 166.85 84.00 167.09 84.00 172.27 C 84.00 182.92 88.20 191.18 95.00 193.88 C 98.33 195.20 104.66 195.25 107.06 193.97 Z  M 126.07 126.90 C 130.26 124.67 136.18 119.88 143.24 113.00 C 154.02 102.50 154.02 102.50 154.01 112.80 C 154.00 122.40 154.16 123.26 156.45 125.55 C 158.41 127.50 159.93 128.00 163.95 128.00 C 172.34 128.00 173.47 125.57 174.27 105.67 C 174.50 99.83 174.50 99.83 179.97 106.45 C 187.16 115.16 196.96 123.33 204.96 127.29 C 213.44 131.48 223.70 132.23 228.81 129.03 C 232.08 126.98 235.00 121.86 235.00 118.16 C 235.00 116.71 234.08 116.14 231.10 115.74 C 222.16 114.54 199.63 102.34 189.00 92.95 C 185.50 89.86 185.50 89.86 197.50 90.41 C 204.10 90.72 212.28 91.26 215.68 91.62 C 221.87 92.27 221.87 92.27 223.50 86.64 C 224.40 83.55 224.99 79.78 224.82 78.26 C 224.50 75.53 224.40 75.49 215.50 74.86 C 210.55 74.50 199.44 74.16 190.81 74.11 C 182.18 74.05 174.94 73.66 174.73 73.25 C 174.51 72.84 174.60 69.82 174.92 66.54 C 175.50 60.59 175.50 60.59 187.50 58.93 C 202.91 56.81 210.29 55.24 212.51 53.62 C 214.92 51.85 213.75 45.66 210.36 42.27 C 208.26 40.17 207.25 39.87 204.18 40.40 C 189.52 42.94 155.82 45.00 128.85 45.00 C 113.00 45.00 113.00 45.00 113.00 48.38 C 113.00 53.05 115.42 58.39 118.72 61.03 C 121.41 63.18 122.00 63.22 137.25 62.59 C 153.00 61.94 153.00 61.94 153.00 67.97 C 153.00 74.00 153.00 74.00 139.75 74.00 C 132.46 74.01 121.38 74.30 115.13 74.66 C 103.75 75.32 103.75 75.32 104.28 80.91 C 104.57 83.98 105.31 87.80 105.93 89.39 C 107.05 92.25 107.11 92.27 113.28 91.62 C 116.70 91.26 124.90 90.69 131.50 90.35 C 143.50 89.74 143.50 89.74 140.50 92.96 C 136.50 97.26 120.16 108.10 111.75 112.03 C 108.03 113.77 103.20 115.43 101.00 115.73 C 97.58 116.18 97.00 116.62 97.00 118.68 C 97.00 122.34 99.72 126.85 103.30 129.11 C 108.25 132.23 117.76 131.31 126.07 126.90 Z "/>
</g>
</svg>