<?xml version="1.0" encoding="UTF-8" standalone="no"?>
<!DOCTYPE svg PUBLIC "-//W3C//DTD SVG 1.1//EN" "http://www.w3.org/Graphics/SVG/1.1/DTD/svg11.dtd" >
<svg xmlns="http://www.w3.org/2000/svg" xmlns:xlink="http://www.w3.org/1999/xlink" version="1.1" viewBox="0 0 256 256">
 <g >
 <path fill="currentColor"
d=" M 96.68 219.35 C 98.60 218.44 100.58 216.61 101.08 215.28 C 101.59 213.96 102.01 204.24 102.01 193.68 C 102.02 183.13 102.29 173.52 102.61 172.32 C 103.14 170.35 103.78 170.76 109.30 176.66 C 123.79 192.15 140.49 199.42 150.13 194.43 C 153.54 192.67 156.94 186.22 156.98 181.45 C 157.00 178.48 156.84 178.38 150.56 177.30 C 138.93 175.31 121.02 164.70 107.75 151.94 C 103.00 147.37 103.00 147.37 103.00 127.05 C 103.00 106.72 103.00 106.72 111.75 107.43 C 116.56 107.81 120.75 108.44 121.06 108.81 C 121.37 109.19 121.25 118.68 120.81 129.90 C 119.93 151.98 119.91 151.87 125.34 154.68 C 128.48 156.30 137.34 156.11 138.95 154.39 C 140.26 152.99 143.00 119.74 143.00 105.29 C 143.00 92.60 142.94 92.22 140.75 91.63 C 137.26 90.70 129.41 90.89 126.53 91.99 C 125.00 92.57 119.62 92.71 113.43 92.33 C 102.93 91.69 102.93 91.69 103.22 82.10 C 103.50 72.50 103.50 72.50 122.66 72.23 C 141.82 71.96 141.82 71.96 142.91 68.83 C 143.51 67.11 144.00 64.03 144.00 61.99 C 144.00 58.28 144.00 58.28 138.75 57.65 C 135.86 57.30 126.93 57.01 118.89 57.01 C 104.28 57.00 104.28 57.00 103.66 51.79 C 102.82 44.66 99.11 40.91 92.26 40.25 C 83.77 39.44 77.36 44.31 76.82 52.00 C 76.50 56.50 76.50 56.50 53.51 57.00 C 32.12 57.47 30.50 57.63 30.17 59.36 C 29.65 62.08 32.68 69.35 35.41 71.92 C 37.76 74.12 37.88 74.13 54.85 73.07 C 80.93 71.44 78.00 70.36 78.00 81.53 C 78.00 88.24 77.63 91.20 76.75 91.53 C 74.55 92.36 54.68 92.38 49.31 91.55 C 46.45 91.11 42.51 91.06 40.56 91.42 C 37.00 92.09 37.00 92.09 37.01 102.30 C 37.03 120.04 39.99 155.32 41.60 156.93 C 41.91 157.24 44.94 157.50 48.33 157.50 C 53.23 157.50 55.19 157.01 57.84 155.12 C 60.57 153.17 61.08 152.26 60.62 150.12 C 60.32 148.68 59.76 138.66 59.38 127.85 C 58.69 108.21 58.69 108.21 67.26 107.49 C 71.97 107.10 76.32 107.08 76.92 107.45 C 77.63 107.89 78.00 114.42 78.00 126.68 C 78.00 145.25 78.00 145.25 73.30 151.87 C 59.93 170.72 37.43 187.00 24.75 187.00 C 20.74 187.00 20.74 187.00 21.42 191.22 C 22.72 199.34 29.41 205.00 37.72 205.00 C 42.48 205.00 51.89 200.57 58.80 195.08 C 61.71 192.77 67.34 186.77 71.30 181.76 C 78.50 172.64 78.50 172.64 79.00 194.36 C 79.54 217.85 79.22 216.61 85.50 219.53 C 89.50 221.39 92.49 221.34 96.68 219.35 Z  M 188.16 215.56 C 202.42 212.52 213.63 204.42 218.60 193.57 C 223.78 182.25 223.96 179.43 223.98 111.83 C 223.99 77.36 223.72 48.43 223.38 47.54 C 222.45 45.13 215.62 42.00 211.29 42.00 C 208.32 42.01 202.20 44.48 200.79 46.24 C 200.67 46.38 200.33 76.42 200.04 113.00 C 199.50 179.50 199.50 179.50 197.20 185.20 C 191.82 198.50 176.28 208.94 161.79 208.99 C 157.21 209.00 155.46 211.44 157.03 215.59 C 158.07 218.30 158.07 218.30 169.78 217.65 C 176.23 217.28 184.50 216.35 188.16 215.56 Z  M 177.77 174.93 C 179.46 174.34 181.14 173.10 181.51 172.18 C 181.88 171.26 182.66 149.16 183.25 123.09 C 184.31 75.67 184.31 75.67 180.67 72.34 C 177.79 69.70 176.18 69.00 172.97 69.00 C 167.94 69.00 163.39 71.25 162.37 74.24 C 161.95 75.48 161.73 97.42 161.89 123.00 C 162.12 161.92 162.41 169.88 163.64 171.80 C 166.17 175.75 171.83 177.00 177.77 174.93 Z "/>
</g>
</svg>