<?xml version="1.0" encoding="UTF-8" standalone="no"?>
<!DOCTYPE svg PUBLIC "-//W3C//DTD SVG 1.1//EN" "http://www.w3.org/Graphics/SVG/1.1/DTD/svg11.dtd" >
<svg xmlns="http://www.w3.org/2000/svg" xmlns:xlink="http://www.w3.org/1999/xlink" version="1.1" viewBox="0 0 256 256">
 <g >
 <path fill="currentColor"
d=" M 100.88 217.46 C 106.58 216.59 115.31 214.82 120.26 213.54 C 129.27 211.20 129.27 211.20 145.70 214.56 C 164.43 218.39 183.91 220.49 193.98 219.77 C 203.62 219.08 209.81 215.87 212.75 210.04 C 215.42 204.74 215.82 199.47 213.47 200.37 C 208.17 202.41 178.14 201.83 161.73 199.38 C 157.96 198.82 157.96 198.82 160.73 196.75 C 162.25 195.61 165.53 192.73 168.02 190.35 C 172.54 186.03 172.54 186.03 182.52 187.54 C 209.89 191.69 206.05 191.68 214.44 187.69 C 220.97 184.59 232.00 175.67 230.80 174.47 C 230.58 174.25 220.98 173.60 209.45 173.02 C 180.02 171.55 178.63 171.36 177.47 168.71 C 176.38 166.23 171.56 164.35 165.02 163.84 C 160.84 163.51 160.63 163.63 159.80 166.75 C 158.94 170.00 158.94 170.00 138.47 170.00 C 118.00 170.00 118.00 170.00 118.00 166.45 C 118.00 163.26 117.57 162.70 113.75 160.89 C 109.50 158.88 109.50 158.88 142.00 159.30 C 174.50 159.72 174.50 159.72 178.39 162.36 C 182.53 165.17 190.27 166.00 193.96 164.02 C 196.00 162.93 197.50 155.93 198.61 142.36 C 199.24 134.59 199.17 134.19 197.09 133.53 C 195.89 133.15 187.17 132.69 177.71 132.51 C 168.24 132.32 155.21 131.85 148.75 131.45 C 137.00 130.73 137.00 130.73 137.00 127.92 C 137.00 126.38 137.44 124.85 137.98 124.51 C 139.96 123.29 182.98 125.95 188.07 127.62 C 193.79 129.49 201.47 128.82 202.41 126.37 C 202.74 125.53 203.00 122.90 203.00 120.54 C 203.00 118.18 203.28 114.84 203.62 113.13 C 204.25 110.00 204.25 110.00 212.68 110.00 C 221.10 110.00 221.10 110.00 222.55 106.53 C 225.50 99.49 225.12 99.11 214.75 98.79 C 205.50 98.50 205.50 98.50 205.84 88.89 C 206.19 79.29 206.19 79.29 202.97 78.64 C 198.25 77.70 191.71 77.86 188.40 79.00 C 186.54 79.64 177.05 79.73 162.06 79.25 C 138.62 78.50 138.62 78.50 137.79 75.29 C 136.65 70.87 133.56 69.00 127.41 69.00 C 121.34 69.00 117.30 71.58 116.81 75.77 C 116.50 78.50 116.50 78.50 93.00 79.26 C 77.77 79.75 68.48 79.66 66.60 79.01 C 63.30 77.86 56.77 77.70 52.05 78.64 C 48.85 79.28 48.85 79.28 49.13 88.89 C 49.41 98.50 49.41 98.50 41.21 98.79 C 32.00 99.12 31.56 99.62 34.45 106.53 C 35.90 110.00 35.90 110.00 43.30 110.00 C 50.71 110.00 50.71 110.00 51.27 117.25 C 51.58 121.24 52.14 125.28 52.52 126.22 C 53.45 128.60 59.20 129.48 64.27 128.02 C 70.36 126.27 82.14 125.25 101.00 124.85 C 117.50 124.50 117.50 124.50 117.81 127.75 C 118.12 130.89 118.00 131.00 114.31 131.06 C 101.23 131.27 56.92 133.75 56.37 134.30 C 55.62 135.05 57.67 154.60 59.09 160.15 C 60.18 164.41 61.32 165.00 68.51 165.00 C 72.64 165.00 74.48 164.47 76.67 162.65 C 78.94 160.77 81.13 160.18 87.75 159.68 C 97.12 158.98 97.45 159.33 94.46 166.81 C 92.92 170.66 92.92 170.66 69.21 171.89 C 29.75 173.92 30.00 173.89 30.00 176.68 C 30.00 179.53 32.37 185.49 33.87 186.42 C 34.90 187.06 69.44 185.56 79.38 184.44 C 84.27 183.90 84.27 183.90 81.63 187.02 C 80.18 188.75 79.00 190.51 79.00 190.94 C 79.00 191.71 90.15 197.01 94.85 198.47 C 96.14 198.87 96.82 199.57 96.35 200.03 C 94.90 201.44 76.79 203.00 61.91 203.00 C 47.74 203.00 47.74 203.00 48.29 206.42 C 49.35 212.91 53.63 217.03 61.50 219.14 C 65.80 220.29 88.71 219.31 100.88 217.46 Z  M 165.78 73.76 C 167.03 73.14 168.32 71.59 168.64 70.32 C 169.37 67.41 170.94 67.38 189.47 70.02 C 197.16 71.11 204.63 72.00 206.09 72.00 C 212.84 72.00 233.65 58.00 229.88 55.99 C 229.12 55.58 221.07 54.96 212.00 54.61 C 202.93 54.26 189.99 53.69 183.25 53.35 C 171.00 52.73 171.00 52.73 171.00 48.54 C 171.00 42.30 165.70 38.00 158.02 38.00 C 150.27 38.00 145.59 41.86 145.83 48.05 C 145.99 52.00 145.99 52.00 127.46 52.00 C 108.94 52.00 108.94 52.00 109.15 48.75 C 109.43 44.36 107.75 41.58 103.63 39.63 C 98.63 37.25 92.00 37.53 87.90 40.28 C 84.86 42.33 84.47 43.12 84.20 47.78 C 83.96 51.91 83.54 53.00 82.20 53.00 C 76.56 52.99 33.11 55.18 31.25 55.57 C 28.68 56.11 28.34 58.71 30.13 64.10 C 32.22 70.39 32.44 70.46 46.70 69.19 C 53.74 68.56 65.40 67.76 72.61 67.40 C 85.72 66.76 85.72 66.76 86.33 69.20 C 88.05 76.01 104.22 76.01 106.73 69.19 C 107.07 68.26 107.84 67.17 108.43 66.77 C 109.02 66.36 117.74 66.02 127.80 66.02 C 146.10 66.00 146.10 66.00 147.54 69.43 C 149.15 73.29 150.01 74.00 154.41 75.07 C 157.94 75.92 162.45 75.40 165.78 73.76 Z  M 114.71 191.61 C 109.87 190.31 105.64 188.97 105.30 188.64 C 104.96 188.30 105.91 186.89 107.39 185.51 C 110.02 183.08 110.51 183.00 123.80 183.07 C 131.34 183.11 139.53 183.47 142.00 183.87 C 146.50 184.59 146.50 184.59 137.96 188.78 C 133.27 191.08 128.09 193.19 126.46 193.47 C 124.83 193.75 119.54 192.91 114.71 191.61 Z  M 79.00 146.74 C 79.00 142.18 79.00 142.18 87.25 141.57 C 91.79 141.24 100.45 140.86 106.50 140.74 C 117.50 140.50 117.50 140.50 117.80 145.25 C 118.11 150.00 118.11 150.00 106.21 150.00 C 99.66 150.00 90.86 150.29 86.65 150.65 C 79.00 151.29 79.00 151.29 79.00 146.74 Z  M 151.70 150.25 C 136.89 149.95 136.89 149.95 137.20 145.22 C 137.50 140.50 137.50 140.50 147.50 140.71 C 153.00 140.83 161.66 141.21 166.75 141.56 C 176.00 142.19 176.00 142.19 176.00 146.59 C 176.00 151.00 176.00 151.00 171.25 150.78 C 168.64 150.66 159.84 150.42 151.70 150.25 Z  M 72.00 112.16 C 72.00 108.00 72.00 108.00 92.00 107.81 C 103.00 107.71 113.24 107.60 114.75 107.56 C 117.22 107.51 117.53 107.88 117.81 111.25 C 118.12 115.00 118.12 115.00 108.72 115.00 C 103.55 115.00 93.17 115.29 85.66 115.66 C 72.00 116.31 72.00 116.31 72.00 112.16 Z  M 141.69 115.26 C 136.89 114.89 136.89 114.89 137.19 111.19 C 137.48 107.78 137.76 107.47 141.00 107.15 C 142.93 106.96 153.16 107.12 163.75 107.51 C 183.00 108.22 183.00 108.22 183.00 112.11 C 183.00 116.00 183.00 116.00 164.75 115.82 C 154.71 115.72 144.34 115.47 141.69 115.26 Z  M 71.00 93.17 C 71.00 89.30 71.00 89.30 80.75 88.66 C 86.11 88.30 96.49 88.01 103.81 88.01 C 117.11 88.00 117.11 88.00 116.81 92.25 C 116.50 96.50 116.50 96.50 93.75 96.77 C 71.00 97.04 71.00 97.04 71.00 93.17 Z  M 139.25 96.34 C 138.55 96.05 138.00 94.11 138.00 91.92 C 138.00 88.00 138.00 88.00 151.25 88.01 C 158.54 88.01 168.89 88.30 174.25 88.66 C 184.00 89.30 184.00 89.30 184.00 93.15 C 184.00 97.00 184.00 97.00 162.25 96.92 C 150.29 96.88 139.94 96.62 139.25 96.34 Z "/>
</g>
</svg>