<?xml version="1.0" encoding="UTF-8" standalone="no"?>
<!DOCTYPE svg PUBLIC "-//W3C//DTD SVG 1.1//EN" "http://www.w3.org/Graphics/SVG/1.1/DTD/svg11.dtd" >
<svg xmlns="http://www.w3.org/2000/svg" xmlns:xlink="http://www.w3.org/1999/xlink" version="1.1" viewBox="0 0 256 256">
 <g >
 <path fill="currentColor"
d=" M 171.49 217.60 C 174.00 215.95 174.00 215.95 174.00 195.06 C 174.00 174.16 174.00 174.16 180.42 173.47 C 184.12 173.07 194.95 173.46 206.04 174.37 C 216.61 175.25 225.61 175.74 226.04 175.47 C 227.03 174.86 229.00 165.91 229.00 162.04 C 229.00 159.20 228.92 159.16 221.25 158.34 C 216.99 157.88 204.60 157.50 193.72 157.50 C 173.95 157.50 173.95 157.50 174.22 144.02 C 174.50 130.54 174.50 130.54 179.50 129.71 C 182.72 129.17 190.72 129.43 202.00 130.44 C 211.62 131.30 220.22 132.01 221.10 132.00 C 222.86 132.00 226.00 123.70 226.00 119.06 C 226.00 116.36 225.96 116.35 214.75 114.93 C 208.56 114.14 197.08 113.57 189.22 113.66 C 174.95 113.81 174.95 113.81 175.22 99.16 C 175.50 84.50 175.50 84.50 192.50 84.50 C 201.85 84.50 213.63 84.87 218.68 85.32 C 227.42 86.10 227.91 86.04 228.99 84.03 C 229.61 82.86 230.20 79.34 230.31 76.21 C 230.50 70.50 230.50 70.50 221.00 69.34 C 215.78 68.70 201.26 68.13 188.75 68.09 C 176.24 68.04 166.00 67.73 166.00 67.39 C 166.00 67.06 166.70 64.09 167.55 60.80 C 170.78 48.35 168.35 43.54 158.24 42.34 C 153.21 41.75 153.00 41.82 152.99 44.11 C 152.98 47.92 144.63 67.33 139.39 75.74 C 130.91 89.34 117.59 101.00 110.54 101.00 C 108.49 101.00 108.00 101.49 108.00 103.53 C 108.00 107.66 110.45 112.31 114.51 115.87 C 118.11 119.03 118.65 119.19 124.54 118.82 C 132.35 118.32 137.00 115.42 144.26 106.55 C 149.03 100.71 149.55 100.34 150.12 102.39 C 150.46 103.64 151.07 129.14 151.48 159.08 C 151.91 190.78 152.62 214.26 153.19 215.33 C 155.58 219.84 166.08 221.14 171.49 217.60 Z  M 53.92 215.22 C 56.08 213.62 59.35 212.75 66.13 211.99 C 76.99 210.76 83.78 211.51 85.96 214.19 C 88.08 216.82 94.80 218.16 100.46 217.11 C 103.01 216.63 105.24 216.07 105.42 215.87 C 106.54 214.60 108.21 199.66 109.21 182.12 C 110.31 162.63 110.28 161.68 108.49 160.37 C 106.10 158.62 95.97 158.58 91.72 160.30 C 87.40 162.04 53.31 161.89 47.07 160.10 C 43.03 158.94 36.22 159.21 32.37 160.69 C 30.45 161.43 30.66 178.04 32.86 198.86 C 34.90 218.22 35.00 218.37 44.73 217.78 C 49.14 217.52 51.82 216.77 53.92 215.22 Z  M 69.50 148.50 C 81.60 148.50 94.64 148.72 98.47 149.00 C 105.14 149.48 105.49 149.39 106.63 147.00 C 107.29 145.62 107.98 142.72 108.16 140.55 C 108.49 136.76 108.36 136.57 105.00 135.84 C 95.84 133.83 68.69 132.81 53.24 133.89 C 31.77 135.39 30.00 135.74 30.00 138.45 C 30.00 139.66 30.72 142.77 31.61 145.37 C 33.22 150.10 33.22 150.10 40.36 149.30 C 44.29 148.86 57.40 148.50 69.50 148.50 Z  M 55.65 122.95 C 68.96 121.96 87.14 122.64 100.75 124.64 C 104.85 125.24 105.04 125.15 106.40 121.88 C 107.17 120.02 107.96 116.70 108.15 114.50 C 108.50 110.50 108.50 110.50 97.00 109.27 C 81.88 107.65 51.60 107.53 39.57 109.04 C 28.65 110.42 28.72 110.32 31.57 119.94 C 33.15 125.24 33.15 125.24 37.32 124.62 C 39.62 124.28 47.87 123.53 55.65 122.95 Z  M 39.58 97.44 C 51.84 95.68 96.06 94.95 107.19 96.32 C 113.87 97.15 113.87 97.15 115.44 94.12 C 116.30 92.46 117.00 89.35 117.00 87.21 C 117.00 83.32 117.00 83.32 101.75 82.15 C 82.16 80.66 53.51 80.66 34.75 82.16 C 18.24 83.48 18.73 83.15 21.53 91.07 C 23.18 95.75 25.62 99.00 27.48 99.00 C 28.12 99.00 33.57 98.30 39.58 97.44 Z  M 96.37 73.05 C 99.37 71.91 100.51 69.91 101.36 64.32 C 102.00 60.14 102.00 60.14 96.25 59.52 C 76.14 57.34 59.89 50.90 56.79 43.89 C 55.12 40.11 52.81 40.23 48.33 44.34 C 45.15 47.25 44.63 48.38 44.22 53.32 C 43.64 60.35 45.21 63.06 51.81 66.40 C 59.40 70.25 67.39 72.15 79.36 72.96 C 85.49 73.37 91.26 73.77 92.18 73.85 C 93.11 73.93 95.00 73.57 96.37 73.05 Z  M 55.00 186.84 C 55.00 176.17 55.00 176.17 62.50 175.47 C 66.63 175.08 73.83 175.08 78.50 175.47 C 87.00 176.18 87.00 176.18 86.99 181.84 C 86.99 184.95 86.71 189.75 86.38 192.50 C 85.78 197.50 85.78 197.50 70.39 197.50 C 55.00 197.50 55.00 197.50 55.00 186.84 Z "/>
</g>
</svg>