<?xml version="1.0" encoding="UTF-8" standalone="no"?>
<!DOCTYPE svg PUBLIC "-//W3C//DTD SVG 1.1//EN" "http://www.w3.org/Graphics/SVG/1.1/DTD/svg11.dtd" >
<svg xmlns="http://www.w3.org/2000/svg" xmlns:xlink="http://www.w3.org/1999/xlink" version="1.1" viewBox="0 0 256 256">
 <g >
 <path fill="currentColor"
d=" M 80.92 218.54 C 82.48 217.74 84.02 216.05 84.36 214.79 C 84.70 213.53 84.98 202.70 84.99 190.72 C 85.00 168.95 85.00 168.95 91.11 176.05 C 99.71 186.04 104.44 189.31 109.35 188.67 C 115.92 187.81 121.00 181.21 121.00 173.53 C 121.00 171.15 120.54 170.00 119.58 170.00 C 115.07 170.00 95.76 157.28 91.78 151.69 C 89.64 148.69 89.64 148.69 103.19 149.25 C 116.74 149.82 116.74 149.82 117.87 146.04 C 118.49 143.97 119.00 140.91 119.00 139.25 C 119.00 136.22 119.00 136.22 109.25 135.14 C 103.89 134.55 96.46 133.79 92.75 133.45 C 86.00 132.84 86.00 132.84 86.00 126.28 C 86.00 119.72 86.00 119.72 91.56 120.38 C 94.79 120.76 98.33 121.92 100.00 123.16 C 102.26 124.83 103.77 125.16 107.06 124.72 C 109.36 124.41 111.61 123.78 112.07 123.33 C 113.21 122.18 114.92 92.55 115.24 68.50 C 115.50 48.50 115.50 48.50 111.81 47.59 C 109.00 46.90 107.04 47.10 103.53 48.43 C 97.14 50.88 56.09 50.97 51.45 48.55 C 48.40 46.96 42.27 46.55 38.11 47.67 C 35.71 48.31 35.71 48.31 36.45 65.90 C 36.86 75.58 37.50 92.37 37.88 103.20 C 38.26 114.04 38.89 123.23 39.29 123.63 C 40.98 125.31 49.52 124.49 52.50 122.36 C 54.55 120.90 57.41 120.10 61.50 119.86 C 67.50 119.50 67.50 119.50 67.79 126.14 C 68.09 132.78 68.09 132.78 59.79 133.42 C 31.79 135.57 27.00 136.23 27.00 137.96 C 27.00 140.97 30.07 148.76 31.92 150.43 C 33.56 151.91 35.00 151.94 47.36 150.74 C 57.22 149.79 61.00 149.73 61.00 150.54 C 61.00 152.78 50.64 166.71 43.67 173.83 C 36.46 181.21 28.11 186.97 24.62 186.99 C 23.03 187.00 22.83 187.54 23.31 190.51 C 24.43 197.41 30.87 203.00 37.71 203.00 C 44.40 203.00 56.95 191.38 64.01 178.64 C 67.97 171.50 67.97 171.50 67.99 193.76 C 68.00 216.03 68.00 216.03 71.25 218.01 C 75.13 220.38 77.16 220.49 80.92 218.54 Z  M 139.13 213.62 C 145.54 210.57 155.17 202.81 159.14 197.48 C 164.24 190.64 162.44 182.29 155.35 179.95 C 153.43 179.32 151.76 178.96 151.64 179.15 C 151.51 179.34 150.87 180.74 150.22 182.26 C 149.57 183.78 146.91 186.37 144.32 188.01 C 138.61 191.63 121.12 198.53 115.25 199.49 C 111.59 200.08 111.00 200.52 111.00 202.64 C 111.00 207.44 114.57 212.27 120.50 215.49 C 124.54 217.68 132.22 216.91 139.13 213.62 Z  M 223.80 215.60 C 228.69 213.05 234.00 205.55 234.00 201.18 C 234.00 199.62 233.03 199.13 228.90 198.58 C 216.43 196.93 198.42 187.84 195.99 181.98 C 194.59 178.59 193.99 178.43 190.09 180.46 C 185.88 182.63 183.49 188.34 184.86 192.91 C 186.13 197.17 194.04 206.37 199.94 210.46 C 208.16 216.16 218.46 218.37 223.80 215.60 Z  M 143.11 179.25 C 146.38 176.50 146.38 176.50 173.73 176.50 C 191.84 176.50 201.31 176.86 201.79 177.56 C 204.57 181.68 213.62 183.46 217.48 180.64 C 220.28 178.59 220.81 171.29 221.60 123.34 C 222.32 80.18 222.32 80.18 218.41 79.10 C 213.31 77.68 210.65 77.72 206.72 79.27 C 201.88 81.17 175.43 80.09 175.67 78.00 C 175.77 77.17 176.14 73.01 176.51 68.75 C 177.17 61.00 177.17 61.00 185.34 61.00 C 189.83 61.00 199.24 61.95 206.25 63.12 C 221.18 65.61 222.84 65.26 228.95 58.32 C 232.90 53.83 235.50 48.43 234.12 47.58 C 233.70 47.32 227.46 46.58 220.25 45.95 C 206.08 44.69 134.56 45.27 125.50 46.71 C 120.50 47.50 120.50 47.50 120.65 52.50 C 120.73 55.25 121.30 58.79 121.92 60.37 C 122.98 63.09 123.27 63.21 127.27 62.54 C 145.96 59.42 156.44 59.09 157.39 61.58 C 157.73 62.45 158.00 67.02 158.00 71.73 C 158.00 80.30 158.00 80.30 143.55 79.62 C 121.42 78.58 123.62 75.09 124.44 109.89 C 124.82 126.18 125.52 148.48 125.99 159.46 C 126.97 182.12 126.92 182.00 135.11 182.00 C 138.82 182.00 140.56 181.40 143.11 179.25 Z  M 87.25 106.34 C 86.42 106.00 86.00 103.51 86.00 98.92 C 86.00 92.00 86.00 92.00 91.44 92.00 C 94.43 92.00 97.07 92.34 97.29 92.75 C 97.52 93.16 97.49 96.54 97.24 100.25 C 96.77 107.00 96.77 107.00 92.63 106.92 C 90.36 106.88 87.94 106.62 87.25 106.34 Z  M 55.67 105.33 C 55.30 104.97 55.00 101.82 55.00 98.33 C 55.00 92.00 55.00 92.00 61.00 92.00 C 67.00 92.00 67.00 92.00 67.00 99.00 C 67.00 106.00 67.00 106.00 61.67 106.00 C 58.73 106.00 56.03 105.70 55.67 105.33 Z  M 55.00 72.13 C 55.00 64.00 55.00 64.00 61.00 64.00 C 67.00 64.00 67.00 64.00 67.00 70.94 C 67.00 74.76 66.64 78.11 66.19 78.38 C 65.75 78.66 63.05 79.19 60.19 79.57 C 55.00 80.26 55.00 80.26 55.00 72.13 Z  M 90.25 79.27 C 86.00 78.89 86.00 78.89 86.00 71.44 C 86.00 64.00 86.00 64.00 92.00 64.00 C 98.00 64.00 98.00 64.00 98.00 72.00 C 98.00 79.02 97.79 79.98 96.25 79.83 C 95.29 79.73 92.59 79.48 90.25 79.27 Z  M 145.00 156.39 C 145.00 150.27 145.00 150.27 149.64 149.64 C 155.66 148.81 181.13 148.82 192.85 149.65 C 202.00 150.30 202.00 150.30 202.00 153.52 C 202.00 155.30 201.74 158.04 201.42 159.62 C 200.85 162.50 200.85 162.50 172.92 162.51 C 145.00 162.51 145.00 162.51 145.00 156.39 Z  M 144.21 128.57 C 144.50 122.50 144.50 122.50 156.00 121.78 C 162.32 121.38 175.26 121.33 184.75 121.66 C 202.00 122.27 202.00 122.27 202.00 128.41 C 202.00 134.55 202.00 134.55 172.96 134.59 C 143.91 134.63 143.91 134.63 144.21 128.57 Z  M 144.00 101.88 C 144.00 98.71 144.41 95.86 144.91 95.56 C 146.82 94.37 170.21 93.76 186.25 94.47 C 203.00 95.21 203.00 95.21 203.00 101.36 C 203.00 107.50 203.00 107.50 173.50 107.57 C 144.00 107.64 144.00 107.64 144.00 101.88 Z "/>
</g>
</svg>