<?xml version="1.0" encoding="UTF-8" standalone="no"?>
<!DOCTYPE svg PUBLIC "-//W3C//DTD SVG 1.1//EN" "http://www.w3.org/Graphics/SVG/1.1/DTD/svg11.dtd" >
<svg xmlns="http://www.w3.org/2000/svg" xmlns:xlink="http://www.w3.org/1999/xlink" version="1.1" viewBox="0 0 256 256">
 <g >
 <path fill="currentColor"
d=" M 194.86 244.92 C 198.78 240.71 199.43 235.00 199.54 203.50 C 199.60 187.00 200.24 167.09 200.96 159.26 C 202.41 143.45 202.26 142.84 196.43 140.41 C 194.75 139.70 189.35 138.58 184.43 137.91 C 179.52 137.24 175.32 136.54 175.09 136.36 C 174.87 136.17 176.90 133.65 179.59 130.75 C 182.29 127.85 186.09 123.51 188.03 121.11 C 191.57 116.73 191.57 116.73 196.85 125.34 C 199.75 130.08 203.25 134.84 204.63 135.92 C 208.46 138.94 213.77 140.30 219.40 139.72 C 225.76 139.07 240.93 133.09 242.40 130.65 C 244.00 128.02 238.40 123.49 225.58 117.04 C 219.86 114.16 210.75 108.88 205.34 105.31 C 199.93 101.73 192.91 97.49 189.75 95.89 C 186.59 94.28 184.00 92.54 184.00 92.01 C 184.00 90.86 188.68 88.41 199.21 84.05 C 207.28 80.70 208.72 79.03 207.14 74.88 C 205.48 70.52 200.96 67.15 193.17 64.47 C 188.95 63.02 184.93 61.61 184.23 61.33 C 183.25 60.94 183.11 62.39 183.62 67.86 C 184.28 74.90 184.28 74.90 178.68 80.37 C 175.20 83.77 169.96 87.40 164.84 89.96 C 160.31 92.23 156.02 94.57 155.30 95.16 C 153.03 97.05 153.81 98.87 156.86 98.79 C 158.43 98.74 160.23 99.02 160.86 99.41 C 162.34 100.33 162.33 111.09 160.83 121.47 C 160.19 125.90 159.99 130.84 160.39 132.43 C 160.79 134.02 163.96 138.28 167.43 141.91 C 174.77 149.56 176.51 152.63 177.44 159.52 C 177.82 162.28 178.28 178.93 178.47 196.52 C 178.78 225.65 178.99 229.09 180.90 235.11 C 182.05 238.75 183.93 242.91 185.07 244.36 C 187.64 247.63 192.10 247.88 194.86 244.92 Z  M 99.87 226.58 C 107.85 221.54 115.39 209.95 118.63 197.73 C 120.05 192.37 120.75 191.09 121.97 191.62 C 131.13 195.58 131.37 195.60 139.90 192.72 C 146.09 190.63 149.86 190.00 156.25 190.00 C 162.16 190.00 165.20 189.55 166.78 188.44 C 172.13 184.69 173.95 174.84 169.65 172.89 C 167.76 172.02 164.88 172.53 154.90 175.48 C 148.08 177.50 139.20 180.46 135.17 182.07 C 131.15 183.68 126.48 185.00 124.81 185.00 C 121.77 185.00 121.77 185.00 122.48 178.25 C 122.88 174.54 123.40 171.29 123.64 171.04 C 123.89 170.78 124.96 171.12 126.03 171.79 C 128.81 173.52 131.47 173.29 140.33 170.54 C 144.64 169.20 151.39 167.81 155.33 167.44 C 159.27 167.08 163.50 166.15 164.73 165.38 C 169.03 162.68 172.12 153.18 169.42 150.94 C 167.43 149.28 160.03 150.92 145.50 156.26 C 135.54 159.91 125.70 162.96 123.75 162.99 C 123.34 162.99 123.00 161.75 123.00 160.22 C 123.00 154.01 117.00 149.99 107.78 150.02 C 99.89 150.04 98.93 151.12 103.21 155.16 C 108.08 159.76 108.65 164.05 106.02 176.03 C 103.27 188.54 101.41 194.17 97.43 202.00 C 93.54 209.66 90.44 224.08 92.04 227.08 C 93.40 229.62 95.24 229.50 99.87 226.58 Z  M 56.28 223.70 C 57.11 222.44 59.36 216.70 61.29 210.95 C 63.21 205.20 66.39 196.45 68.35 191.50 C 75.19 174.20 80.20 151.11 77.99 146.99 C 76.35 143.91 75.07 144.88 72.52 151.15 C 67.32 163.92 52.93 186.00 49.80 186.00 C 46.25 186.00 54.48 152.38 63.75 129.00 C 68.59 116.78 69.25 112.82 66.84 110.41 C 66.01 109.59 61.10 107.86 55.92 106.58 C 50.74 105.29 44.76 103.51 42.63 102.62 C 38.95 101.08 35.00 100.48 35.00 101.45 C 35.00 101.70 37.90 107.77 41.44 114.95 C 44.98 122.13 48.18 130.03 48.55 132.51 C 49.49 138.73 46.69 157.50 42.22 175.00 C 39.06 187.33 38.53 191.00 38.62 199.53 C 38.75 210.38 39.66 213.17 45.91 221.75 C 49.59 226.79 53.74 227.57 56.28 223.70 Z  M 88.92 144.89 C 92.31 142.63 96.97 138.58 99.29 135.89 C 101.60 133.20 103.79 131.00 104.15 131.00 C 104.51 131.00 106.45 133.47 108.46 136.50 C 112.28 142.26 113.85 142.94 118.48 140.83 C 123.15 138.70 128.84 126.45 132.06 111.57 C 134.76 99.14 134.62 95.97 131.25 92.75 C 124.58 86.39 116.82 86.29 105.48 92.43 C 100.97 94.86 95.53 97.15 93.39 97.52 C 87.27 98.55 86.00 99.05 86.00 100.38 C 86.00 102.21 93.28 106.00 96.78 106.00 C 99.79 106.00 99.79 106.00 98.86 110.11 C 97.48 116.29 88.87 133.77 84.15 139.97 C 79.94 145.53 78.87 149.00 81.39 149.00 C 82.15 149.00 85.54 147.15 88.92 144.89 Z  M 151.00 143.75 C 151.53 142.51 152.42 134.30 152.99 125.50 C 153.55 116.70 154.28 108.29 154.61 106.81 C 155.21 104.12 153.08 101.12 148.71 98.50 C 147.31 97.66 148.74 95.96 157.90 87.67 C 163.87 82.26 170.15 76.86 171.86 75.67 C 176.63 72.34 176.16 68.78 170.44 64.75 C 165.88 61.53 165.88 61.53 170.69 60.22 C 178.14 58.18 195.96 57.51 202.97 58.99 C 209.45 60.37 212.00 59.54 212.00 56.07 C 212.00 52.98 205.94 46.11 200.06 42.53 C 191.78 37.51 189.35 37.24 181.28 40.50 C 173.68 43.58 158.06 49.00 156.81 49.00 C 156.37 49.00 156.00 45.67 156.00 41.61 C 156.00 30.97 155.03 30.04 142.63 28.76 C 133.41 27.81 105.68 28.98 104.28 30.38 C 102.70 31.97 106.01 34.05 117.13 38.43 C 128.04 42.73 142.28 50.03 143.45 51.92 C 143.68 52.28 135.40 54.99 125.05 57.93 C 107.30 62.98 105.82 63.24 98.87 62.58 C 94.82 62.19 90.49 61.63 89.25 61.33 C 83.80 60.01 90.01 69.17 97.58 73.60 C 102.95 76.75 106.56 76.85 114.72 74.10 C 118.14 72.94 121.37 72.00 121.90 72.00 C 123.30 72.00 134.57 89.16 135.43 92.60 C 135.83 94.19 136.75 96.17 137.47 97.00 C 139.29 99.08 141.04 113.62 140.92 125.62 C 140.82 135.39 142.05 140.95 145.14 144.67 C 146.85 146.73 149.94 146.24 151.00 143.75 Z  M 56.55 83.53 C 62.80 79.42 70.78 74.76 74.30 73.16 C 77.81 71.57 80.98 69.49 81.34 68.54 C 83.01 64.19 73.85 56.31 64.00 53.63 C 53.32 50.72 39.26 50.72 38.29 53.63 C 38.08 54.25 39.85 55.90 42.21 57.28 C 49.58 61.62 51.35 64.18 50.74 69.60 C 50.45 72.18 48.59 77.40 46.61 81.19 C 42.89 88.32 42.20 91.00 44.10 91.00 C 44.70 91.00 50.30 87.64 56.55 83.53 Z  M 173.32 119.92 C 172.41 119.01 173.94 105.92 175.55 100.85 C 176.16 98.91 176.24 98.91 178.20 100.68 C 179.31 101.68 182.05 104.69 184.29 107.36 C 188.37 112.22 188.37 112.22 185.93 114.14 C 181.46 117.69 174.34 120.94 173.32 119.92 Z  M 108.66 125.29 C 107.29 124.94 106.99 124.26 107.47 122.66 C 110.08 114.08 111.93 105.37 111.46 103.88 C 110.87 102.00 115.45 98.12 116.75 99.41 C 117.71 100.38 117.17 114.92 116.02 118.93 C 115.09 122.18 112.30 126.12 111.10 125.88 C 110.77 125.82 109.67 125.55 108.66 125.29 Z  M 143.34 79.37 C 141.05 77.09 136.77 74.07 133.84 72.65 C 130.90 71.23 128.78 70.06 129.12 70.04 C 129.45 70.02 134.85 68.65 141.12 67.01 C 147.38 65.36 152.84 64.01 153.25 64.01 C 155.54 63.99 151.96 78.36 148.75 82.06 C 147.69 83.28 146.87 82.88 143.34 79.37 Z "/>
</g>
</svg>