<?xml version="1.0" encoding="UTF-8" standalone="no"?>
<!DOCTYPE svg PUBLIC "-//W3C//DTD SVG 1.1//EN" "http://www.w3.org/Graphics/SVG/1.1/DTD/svg11.dtd" >
<svg xmlns="http://www.w3.org/2000/svg" xmlns:xlink="http://www.w3.org/1999/xlink" version="1.1" viewBox="0 0 256 256">
 <g >
 <path fill="currentColor"
d=" M 208.72 223.95 C 213.87 220.72 213.85 218.73 208.48 190.00 C 207.19 183.12 205.85 175.03 205.50 172.00 C 204.53 163.63 203.15 160.00 200.94 160.00 C 199.76 160.00 198.88 160.85 198.62 162.25 C 198.39 163.49 197.22 169.90 196.01 176.50 C 192.31 196.69 189.11 201.16 180.96 197.48 C 173.49 194.11 167.89 185.69 165.45 174.14 C 163.86 166.67 164.87 150.17 167.54 139.86 C 169.88 130.81 169.55 128.95 164.75 124.27 C 159.18 118.85 151.38 115.00 145.95 115.00 C 143.31 115.00 139.31 116.13 135.42 117.97 C 121.21 124.68 102.89 129.11 87.65 129.52 C 76.44 129.83 74.74 130.67 77.05 134.79 C 79.02 138.30 88.38 142.09 96.78 142.77 C 100.23 143.05 103.22 143.55 103.43 143.89 C 104.26 145.26 101.81 163.50 100.70 164.19 C 100.04 164.60 93.72 166.33 86.67 168.04 C 74.10 171.08 66.97 171.38 65.45 168.91 C 65.14 168.41 64.23 168.00 63.44 168.00 C 58.65 168.00 68.20 181.66 74.55 183.88 C 78.26 185.18 79.06 185.08 87.50 182.16 C 96.50 179.05 96.50 179.05 96.80 181.32 C 96.96 182.58 96.06 187.85 94.80 193.05 C 91.86 205.18 91.77 215.20 94.56 220.00 C 97.34 224.77 100.33 225.04 104.59 220.91 C 108.97 216.67 110.77 211.02 113.98 191.50 C 116.60 175.50 116.60 175.50 121.05 174.33 C 123.50 173.69 129.89 173.12 135.25 173.08 C 144.52 173.00 145.00 173.10 145.00 175.10 C 145.00 178.50 150.86 195.02 154.04 200.57 C 161.61 213.80 172.44 221.71 187.50 225.02 C 193.18 226.26 206.07 225.62 208.72 223.95 Z  M 56.52 136.15 C 63.81 131.70 68.06 125.78 70.40 116.77 C 71.50 112.54 72.14 111.56 73.64 111.82 C 79.54 112.85 87.29 111.87 102.00 108.23 C 138.33 99.24 178.33 91.93 180.33 93.93 C 181.68 95.28 175.95 102.94 170.17 107.50 C 164.97 111.61 163.57 113.50 164.56 115.09 C 165.22 116.17 169.24 115.67 185.50 112.52 C 192.10 111.24 201.32 109.89 206.00 109.51 C 210.68 109.13 215.06 108.36 215.75 107.79 C 217.62 106.24 217.26 101.17 214.93 96.36 C 212.53 91.41 203.02 82.22 197.39 79.43 C 188.21 74.87 167.96 78.01 106.50 93.49 C 92.75 96.95 79.65 100.09 77.39 100.46 C 73.28 101.13 73.28 101.13 72.77 93.99 C 71.92 82.14 68.45 81.93 62.78 93.39 C 60.77 97.45 56.23 104.57 52.70 109.20 C 43.01 121.90 42.67 122.94 45.53 131.12 C 47.95 138.08 51.04 139.49 56.52 136.15 Z  M 106.07 85.23 C 108.66 82.92 109.28 81.45 109.90 76.25 C 110.30 72.83 110.82 69.86 111.06 69.64 C 112.00 68.79 139.05 62.72 139.58 63.24 C 140.28 63.95 134.95 74.44 131.65 78.85 C 128.96 82.44 129.10 85.00 131.99 85.00 C 135.20 85.00 145.56 77.19 153.35 68.90 C 160.99 60.77 160.99 60.77 177.75 61.37 C 186.96 61.70 196.41 62.25 198.74 62.59 C 204.43 63.42 205.01 61.65 201.99 52.77 C 198.28 41.85 195.65 40.73 179.50 43.13 C 175.33 43.75 171.68 44.02 171.39 43.72 C 171.10 43.43 171.79 41.37 172.93 39.14 C 178.56 28.11 172.95 22.99 155.28 23.01 C 139.85 23.04 137.99 24.25 144.87 29.78 C 149.56 33.55 150.17 36.09 148.05 43.12 C 146.59 48.00 146.06 48.62 142.49 49.80 C 137.72 51.37 123.27 54.55 116.75 55.46 C 112.00 56.12 112.00 56.12 111.99 49.81 C 111.97 42.35 110.67 39.37 106.09 36.28 C 99.70 31.97 83.59 33.97 78.87 39.66 C 77.31 41.54 79.19 42.96 83.23 42.98 C 87.55 43.01 91.95 47.68 93.58 53.98 C 94.36 56.96 94.66 59.72 94.25 60.10 C 92.98 61.29 77.93 64.07 69.45 64.68 C 62.56 65.18 60.69 64.96 56.52 63.11 C 53.42 61.74 51.30 61.30 50.69 61.91 C 49.39 63.21 53.78 70.54 59.75 77.03 C 66.08 83.91 70.46 84.59 80.58 80.26 C 91.21 75.71 94.02 74.69 94.53 75.19 C 94.78 75.45 95.26 77.87 95.58 80.58 C 95.90 83.29 96.34 86.06 96.55 86.75 C 97.25 89.03 102.81 88.15 106.07 85.23 Z  M 117.27 152.81 C 116.64 148.79 115.84 144.54 115.48 143.37 C 114.88 141.40 115.37 141.14 121.66 140.05 C 125.42 139.40 131.84 137.75 135.92 136.39 C 144.91 133.37 146.47 134.08 144.98 140.50 C 144.47 142.70 144.03 146.30 144.01 148.50 C 143.99 150.70 143.63 153.03 143.22 153.68 C 142.80 154.33 137.97 155.80 132.48 156.93 C 126.99 158.07 121.58 159.25 120.46 159.56 C 118.60 160.07 118.31 159.45 117.27 152.81 Z "/>
</g>
</svg>