<?xml version="1.0" encoding="UTF-8" standalone="no"?>
<!DOCTYPE svg PUBLIC "-//W3C//DTD SVG 1.1//EN" "http://www.w3.org/Graphics/SVG/1.1/DTD/svg11.dtd" >
<svg xmlns="http://www.w3.org/2000/svg" xmlns:xlink="http://www.w3.org/1999/xlink" version="1.1" viewBox="0 0 256 256">
 <g >
 <path fill="currentColor"
d=" M 217.24 212.52 C 228.67 210.80 233.57 208.53 237.00 203.38 C 239.36 199.84 239.50 198.89 239.43 186.56 C 239.37 174.82 239.07 172.64 236.43 165.00 C 234.10 158.24 233.10 156.50 231.55 156.50 C 229.98 156.50 228.99 158.31 226.47 165.78 C 221.58 180.31 214.82 185.94 197.24 190.12 C 185.85 192.83 176.01 192.45 172.75 189.20 C 170.82 187.26 170.51 185.89 170.51 179.23 C 170.50 174.98 171.12 168.80 171.88 165.50 C 173.80 157.12 172.33 151.91 167.06 148.42 C 164.84 146.95 163.01 144.84 162.74 143.43 C 162.31 141.17 162.83 140.82 169.89 138.59 C 178.21 135.95 179.75 136.57 175.61 140.89 C 174.17 142.38 173.00 144.11 173.00 144.72 C 173.00 145.34 174.57 149.12 176.50 153.14 C 178.43 157.16 180.00 161.18 180.00 162.09 C 180.00 164.50 184.92 169.00 187.56 169.00 C 190.64 169.00 196.46 162.07 197.88 156.71 C 198.49 154.39 199.43 137.20 199.96 118.50 C 200.49 99.80 201.45 81.03 202.08 76.78 C 202.71 72.53 202.94 67.51 202.59 65.61 C 201.74 61.08 196.62 56.64 187.02 52.11 C 176.90 47.32 171.33 47.23 164.85 51.73 C 156.07 57.83 133.03 66.86 125.01 67.35 C 121.43 67.57 121.27 70.63 124.66 74.16 C 127.44 77.06 127.51 77.40 127.83 90.14 C 128.23 105.95 126.72 123.88 123.78 138.13 C 121.61 148.61 121.61 148.81 123.46 152.91 C 125.23 156.83 131.97 164.00 133.88 164.00 C 135.56 164.00 136.91 161.36 138.20 155.56 C 139.41 150.10 139.76 149.61 143.25 148.40 C 146.71 147.20 147.00 147.25 147.00 148.98 C 147.00 151.64 140.69 163.40 135.75 169.94 C 124.83 184.41 111.95 196.23 100.75 202.06 C 96.49 204.28 93.00 206.74 93.00 207.51 C 93.00 211.62 115.07 212.13 122.67 208.20 C 132.17 203.28 143.74 189.82 152.77 173.18 C 156.65 166.02 156.65 166.02 156.58 182.26 C 156.51 195.94 156.78 199.01 158.25 201.70 C 161.54 207.71 168.42 211.39 179.40 213.00 C 188.18 214.29 207.09 214.05 217.24 212.52 Z  M 41.50 200.73 C 52.47 193.98 95.44 170.85 110.82 163.42 C 120.66 158.66 122.09 157.66 121.82 155.73 C 121.31 152.14 115.82 152.41 99.29 156.87 C 91.15 159.06 83.71 161.16 82.75 161.53 C 81.23 162.13 81.00 161.57 81.00 157.30 C 81.00 152.43 81.07 152.32 91.12 142.08 C 96.68 136.40 101.52 132.18 101.87 132.70 C 102.22 133.21 104.68 136.44 107.35 139.87 C 111.64 145.39 112.56 146.08 115.25 145.81 C 119.67 145.36 121.93 141.73 122.14 134.75 C 122.35 127.60 120.81 125.65 113.10 123.30 C 110.02 122.37 107.36 121.52 107.19 121.41 C 107.02 121.30 108.67 117.45 110.86 112.86 C 115.24 103.64 115.73 101.75 114.72 97.88 C 113.76 94.23 109.50 92.74 99.66 92.61 C 93.24 92.52 90.80 92.90 88.64 94.31 C 85.31 96.50 85.47 97.19 90.00 100.22 C 92.28 101.75 93.61 103.50 93.81 105.24 C 94.32 109.61 89.38 126.31 85.09 134.70 C 81.10 142.50 81.10 142.50 81.05 131.80 C 81.02 125.92 81.68 115.91 82.51 109.55 C 84.24 96.36 83.63 93.39 78.20 88.82 C 75.13 86.23 75.13 86.23 85.31 84.10 C 90.92 82.92 98.86 81.41 102.97 80.73 C 109.46 79.66 110.63 79.14 111.97 76.75 C 114.24 72.67 111.94 69.31 104.13 65.27 C 95.28 60.68 91.80 60.88 82.76 66.52 C 72.08 73.17 56.51 78.99 35.70 84.11 C 29.64 85.60 29.79 87.34 36.37 91.75 C 42.27 95.70 47.34 95.99 54.98 92.82 C 60.90 90.36 60.91 90.36 63.85 98.00 C 65.53 102.36 66.50 122.15 65.54 132.37 C 64.83 140.03 64.83 140.03 62.03 137.68 C 60.49 136.38 57.04 134.73 54.37 134.00 C 51.69 133.28 49.35 132.57 49.18 132.43 C 49.00 132.30 50.23 130.29 51.90 127.97 C 57.03 120.90 57.26 113.53 52.46 110.38 C 49.54 108.47 34.23 104.70 32.34 105.42 C 31.33 105.81 31.36 106.63 32.53 109.42 C 36.48 118.88 32.27 134.37 20.39 154.13 C 13.99 164.76 17.11 165.98 28.19 157.18 C 32.21 153.99 37.45 149.16 39.83 146.45 C 43.26 142.56 44.34 141.84 45.02 143.02 C 45.48 143.83 47.93 147.31 50.45 150.75 C 55.60 157.78 57.64 158.45 61.69 154.40 C 63.23 152.86 64.03 152.47 63.66 153.44 C 63.31 154.34 63.97 157.79 65.12 161.11 C 66.26 164.42 67.04 167.23 66.85 167.36 C 66.66 167.48 60.20 169.59 52.50 172.04 C 38.48 176.50 32.20 177.31 22.00 175.96 C 18.65 175.52 18.49 175.65 18.18 178.84 C 17.77 183.07 21.23 194.56 24.25 199.04 C 28.72 205.68 32.80 206.08 41.50 200.73 Z  M 141.00 131.01 C 141.00 126.02 141.00 126.02 149.82 121.59 C 154.67 119.15 161.20 116.42 164.32 115.51 C 170.76 113.64 172.22 112.45 175.13 106.75 C 176.77 103.53 176.97 102.23 176.12 100.35 C 174.84 97.56 174.56 97.54 166.70 99.58 C 159.16 101.53 154.60 103.82 149.09 108.43 C 143.29 113.27 142.00 113.10 142.00 107.49 C 142.00 103.47 142.36 102.75 145.25 100.98 C 147.04 99.88 152.78 97.35 158.00 95.34 C 163.22 93.34 168.25 91.05 169.17 90.27 C 171.68 88.11 173.56 79.38 171.93 77.41 C 170.16 75.29 167.65 76.07 153.71 83.07 C 147.23 86.33 141.78 89.00 141.60 89.00 C 141.42 89.00 140.99 87.09 140.65 84.75 C 140.31 82.41 139.74 79.49 139.40 78.25 C 138.92 76.56 139.18 76.00 140.46 76.00 C 141.38 76.00 147.28 73.48 153.56 70.41 C 159.84 67.33 166.77 64.57 168.95 64.28 C 172.44 63.81 173.05 64.04 173.93 66.12 C 175.79 70.50 178.00 94.43 178.00 110.12 C 178.00 125.66 178.00 125.66 172.61 125.22 C 166.63 124.72 161.01 126.45 149.04 132.48 C 145.19 134.42 141.81 136.00 141.52 136.00 C 141.24 136.00 141.00 133.75 141.00 131.01 Z "/>
</g>
</svg>