<?xml version="1.0" encoding="UTF-8" standalone="no"?>
<!DOCTYPE svg PUBLIC "-//W3C//DTD SVG 1.1//EN" "http://www.w3.org/Graphics/SVG/1.1/DTD/svg11.dtd" >
<svg xmlns="http://www.w3.org/2000/svg" xmlns:xlink="http://www.w3.org/1999/xlink" version="1.1" viewBox="0 0 256 256">
 <g >
 <path fill="currentColor"
d=" M 163.98 229.17 C 167.56 225.59 170.77 215.41 171.54 205.21 C 171.86 200.97 171.71 190.30 171.21 181.50 C 170.72 172.70 170.43 165.35 170.57 165.17 C 171.36 164.15 182.87 182.25 188.07 192.70 C 198.75 214.13 205.06 216.93 231.45 211.92 C 243.10 209.71 248.00 207.82 248.00 205.55 C 248.00 203.31 240.96 197.90 228.99 190.96 C 211.32 180.72 198.21 171.81 188.53 163.48 C 183.60 159.24 178.53 155.08 177.25 154.25 C 175.98 153.41 175.10 152.57 175.30 152.37 C 176.48 151.19 188.60 149.73 202.00 149.16 C 219.98 148.39 220.45 148.05 214.92 139.70 C 209.16 131.00 203.34 130.12 184.00 135.00 C 177.46 136.65 171.64 138.00 171.06 138.00 C 170.48 138.00 170.00 136.30 170.00 134.22 C 170.00 132.14 169.28 129.42 168.40 128.16 C 167.52 126.90 167.01 125.66 167.27 125.39 C 167.54 125.13 171.75 124.73 176.63 124.50 C 184.68 124.12 185.71 123.84 187.75 121.49 C 189.64 119.30 190.01 117.66 190.09 111.19 C 190.14 106.96 190.70 96.99 191.34 89.04 C 192.71 71.99 191.25 73.31 209.00 73.00 C 223.22 72.75 225.41 72.22 225.80 68.88 C 226.02 67.01 225.02 65.26 222.04 62.28 C 215.47 55.71 208.33 53.44 201.82 55.86 C 200.54 56.33 197.78 57.03 195.68 57.42 C 191.85 58.12 191.85 58.12 192.54 49.81 C 192.92 45.24 193.58 39.52 194.01 37.11 C 195.03 31.37 193.63 27.50 189.98 25.99 C 185.92 24.31 162.58 25.00 160.80 26.85 C 159.73 27.97 159.85 28.41 161.47 29.35 C 168.58 33.49 173.00 43.90 173.00 56.48 C 173.00 63.75 173.00 63.75 161.75 66.82 C 142.84 71.98 145.00 72.30 144.99 64.36 C 144.99 54.29 143.60 50.25 139.46 48.28 C 136.44 46.84 135.06 46.80 127.79 47.91 C 123.26 48.60 118.75 49.60 117.77 50.12 C 115.12 51.54 115.63 53.87 118.75 54.62 C 120.26 54.98 122.06 55.72 122.75 56.26 C 124.39 57.55 128.00 69.34 128.00 73.41 C 128.00 76.49 127.81 76.64 122.19 77.80 C 118.99 78.46 114.77 79.00 112.80 79.00 C 109.78 79.00 109.11 78.59 108.57 76.42 C 107.96 74.00 107.66 73.88 103.71 74.55 C 100.01 75.17 89.00 78.47 83.63 80.57 C 82.18 81.14 82.45 80.36 84.85 77.05 C 86.55 74.71 88.85 70.35 89.97 67.36 C 95.28 53.16 90.60 49.53 63.56 46.85 C 50.01 45.50 39.50 46.40 39.50 48.89 C 39.50 49.66 40.17 50.63 41.00 51.05 C 55.32 58.43 66.95 68.75 69.13 76.03 C 69.77 78.18 71.10 80.81 72.09 81.86 C 73.82 83.72 73.74 83.83 69.19 85.52 C 66.61 86.48 57.02 90.35 47.87 94.13 C 29.41 101.75 25.54 102.41 21.85 98.52 C 20.56 97.15 18.71 96.03 17.75 96.02 C 15.10 95.99 15.44 105.18 18.29 111.00 C 21.41 117.34 24.26 118.12 31.15 114.51 C 48.87 105.24 75.31 95.91 91.66 93.15 C 100.25 91.71 102.51 90.94 104.71 88.74 C 107.37 86.09 107.37 86.09 111.66 90.04 C 116.48 94.48 117.04 94.60 123.00 92.50 C 125.34 91.68 127.64 91.00 128.13 91.00 C 128.61 91.00 129.00 97.28 129.00 104.97 C 129.00 121.62 130.01 124.74 136.31 127.52 C 138.55 128.50 142.36 129.28 144.78 129.24 C 148.85 129.18 149.28 129.43 150.59 132.56 C 151.36 134.42 152.00 137.69 152.00 139.84 C 152.00 143.75 152.00 143.75 143.25 145.37 C 122.30 149.25 117.57 150.00 114.14 150.02 C 106.60 150.05 106.26 153.50 113.22 159.46 C 118.86 164.28 122.67 164.81 132.92 162.17 C 137.55 160.98 141.49 160.15 141.67 160.34 C 141.86 160.52 139.08 164.32 135.50 168.77 C 125.15 181.65 103.92 199.90 94.29 204.18 C 89.16 206.47 88.52 207.37 90.56 209.42 C 92.60 211.46 98.86 211.46 108.79 209.42 C 119.03 207.32 123.41 205.22 130.04 199.23 C 134.54 195.16 146.33 179.12 151.91 169.50 C 152.82 167.93 153.01 170.78 152.78 182.60 C 152.42 201.59 152.62 201.27 141.34 200.56 C 135.99 200.23 133.00 200.41 133.00 201.06 C 133.00 201.62 135.88 205.39 139.41 209.44 C 142.94 213.48 148.12 219.95 150.94 223.82 C 157.69 233.10 159.37 233.79 163.98 229.17 Z  M 59.12 212.50 C 61.53 211.67 64.75 209.53 66.28 207.75 C 69.06 204.51 69.09 204.50 80.46 204.00 C 89.90 203.59 92.35 203.14 94.68 201.44 C 98.43 198.69 100.78 193.73 101.59 186.87 C 102.15 182.08 101.96 180.97 100.30 179.37 C 98.38 177.52 98.39 177.45 101.14 172.49 C 105.12 165.31 106.87 159.86 105.96 157.41 C 104.95 154.68 96.69 149.44 91.00 147.92 C 86.55 146.73 86.42 146.77 79.50 151.22 C 68.19 158.49 57.23 164.17 56.56 163.10 C 56.23 162.56 56.25 160.30 56.60 158.08 C 57.11 154.93 56.91 153.90 55.70 153.44 C 48.73 150.76 40.09 174.02 41.39 192.00 C 42.11 202.06 44.42 209.40 47.66 211.95 C 50.77 214.39 53.26 214.51 59.12 212.50 Z  M 68.06 147.14 C 72.15 145.52 81.12 142.48 88.00 140.39 C 94.88 138.29 100.83 136.11 101.23 135.54 C 102.81 133.31 101.84 130.60 98.12 126.88 C 95.69 124.46 93.30 123.00 91.75 123.00 C 90.39 123.00 85.00 125.02 79.78 127.49 C 68.69 132.75 50.55 138.90 43.72 139.71 C 41.09 140.03 38.69 140.69 38.38 141.19 C 37.42 142.75 40.31 145.24 46.50 148.18 C 53.72 151.59 57.26 151.42 68.06 147.14 Z  M 72.30 124.04 C 77.91 121.85 86.33 118.80 91.00 117.28 C 98.59 114.80 99.53 114.22 99.81 111.87 C 100.04 109.84 99.23 108.51 96.31 106.08 C 90.69 101.43 89.18 101.37 82.11 105.52 C 78.69 107.52 73.85 110.06 71.37 111.16 C 64.89 114.03 51.04 117.95 47.33 117.98 C 39.62 118.03 39.09 120.55 45.75 125.54 C 50.23 128.89 50.83 129.06 56.30 128.56 C 59.54 128.26 66.61 126.26 72.30 124.04 Z  M 142.99 110.26 C 143.50 104.52 143.50 104.52 148.00 103.86 C 150.47 103.51 154.38 102.45 156.68 101.53 C 158.97 100.60 163.58 99.28 166.93 98.59 C 173.00 97.34 173.00 97.34 173.00 100.60 C 173.00 106.48 171.53 108.72 167.32 109.31 C 165.22 109.60 159.68 111.22 155.00 112.90 C 142.67 117.34 142.36 117.27 142.99 110.26 Z  M 168.40 90.09 C 164.29 85.68 164.29 85.68 155.55 89.34 C 144.39 94.01 143.80 94.00 144.19 89.26 C 144.50 85.52 144.50 85.52 158.34 81.68 C 165.96 79.58 172.39 78.05 172.63 78.30 C 172.88 78.55 172.95 82.29 172.79 86.63 C 172.50 94.50 172.50 94.50 168.40 90.09 Z  M 59.18 183.77 C 57.97 180.32 56.98 176.97 56.99 176.33 C 57.00 174.76 78.00 164.78 79.81 165.48 C 80.92 165.91 81.08 167.27 80.56 171.76 C 79.27 182.78 78.83 183.42 70.24 186.63 C 66.02 188.21 62.30 189.62 61.97 189.77 C 61.65 189.92 60.39 187.22 59.18 183.77 Z "/>
</g>
</svg>