<?xml version="1.0" encoding="UTF-8" standalone="no"?>
<!DOCTYPE svg PUBLIC "-//W3C//DTD SVG 1.1//EN" "http://www.w3.org/Graphics/SVG/1.1/DTD/svg11.dtd" >
<svg xmlns="http://www.w3.org/2000/svg" xmlns:xlink="http://www.w3.org/1999/xlink" version="1.1" viewBox="0 0 256 256">
 <g >
 <path fill="currentColor"
d=" M 71.00 205.78 C 71.00 165.57 71.00 165.57 76.58 171.03 C 79.65 174.04 84.45 179.43 87.26 183.00 C 90.06 186.57 92.66 189.86 93.03 190.30 C 93.40 190.74 96.29 187.88 99.47 183.95 C 104.90 177.23 105.16 176.67 103.90 174.32 C 102.05 170.85 85.78 155.47 77.70 149.53 C 71.47 144.96 71.00 144.35 71.00 140.81 C 71.00 137.00 71.00 137.00 86.04 137.00 C 101.08 137.00 101.08 137.00 100.79 128.75 C 100.50 120.50 100.50 120.50 85.75 120.22 C 71.00 119.95 71.00 119.95 71.00 108.47 C 71.00 97.00 71.00 97.00 84.50 97.00 C 98.00 97.00 98.00 97.00 98.00 89.50 C 98.00 82.00 98.00 82.00 84.50 82.00 C 71.00 82.00 71.00 82.00 71.00 71.53 C 71.00 61.05 71.00 61.05 86.25 60.78 C 101.50 60.50 101.50 60.50 101.79 52.25 C 102.08 44.00 102.08 44.00 86.54 44.00 C 71.00 44.00 71.00 44.00 71.00 34.05 C 71.00 28.57 70.52 23.03 69.93 21.74 C 69.22 20.19 65.55 17.74 59.27 14.62 C 49.68 9.85 49.68 9.85 46.18 13.35 C 42.69 16.85 42.69 16.85 46.84 21.81 C 51.00 26.78 51.00 26.78 51.00 35.39 C 51.00 44.00 51.00 44.00 35.00 44.00 C 19.00 44.00 19.00 44.00 19.00 52.50 C 19.00 61.00 19.00 61.00 35.03 61.00 C 51.07 61.00 51.07 61.00 50.78 71.25 C 50.50 81.50 50.50 81.50 37.75 81.78 C 25.00 82.06 25.00 82.06 25.00 89.50 C 25.00 96.94 25.00 96.94 37.75 97.22 C 50.50 97.50 50.50 97.50 50.78 108.75 C 51.07 120.00 51.07 120.00 34.03 120.00 C 17.00 120.00 17.00 120.00 17.00 128.50 C 17.00 137.00 17.00 137.00 32.00 137.00 C 42.74 137.00 47.00 137.33 47.00 138.16 C 47.00 140.24 36.00 160.25 29.49 170.00 C 26.01 175.22 20.43 182.54 17.11 186.26 C 10.52 193.63 10.37 191.96 19.27 210.78 C 19.86 212.03 20.80 212.90 21.36 212.71 C 23.26 212.08 35.93 193.54 43.23 180.71 C 50.50 167.93 50.50 167.93 50.76 206.96 C 51.02 246.00 51.02 246.00 61.01 246.00 C 71.00 246.00 71.00 246.00 71.00 205.78 Z  M 121.50 243.36 C 144.85 239.52 163.89 232.83 180.64 222.56 C 184.78 220.02 184.78 220.02 196.14 225.87 C 202.39 229.09 212.79 234.89 219.26 238.76 C 231.02 245.80 231.02 245.80 235.99 236.65 C 240.85 227.68 240.91 227.47 238.95 226.00 C 237.85 225.18 228.88 220.22 219.01 215.00 C 209.14 209.78 201.05 205.20 201.03 204.83 C 201.01 204.46 202.18 202.76 203.61 201.05 C 208.32 195.46 215.76 182.14 219.59 172.48 C 223.34 163.00 223.34 163.00 232.67 163.00 C 242.00 163.00 242.00 163.00 242.00 154.50 C 242.00 146.00 242.00 146.00 205.00 146.00 C 184.65 146.00 168.00 145.76 168.00 145.47 C 168.00 145.18 169.35 142.27 171.00 139.00 C 175.11 130.86 174.93 129.06 169.74 126.00 C 165.50 123.50 165.50 123.50 173.73 123.21 C 181.96 122.92 181.96 122.92 182.23 103.29 C 182.50 83.67 182.50 83.67 186.12 89.08 C 192.33 98.37 204.72 111.64 213.02 117.89 C 220.63 123.63 233.81 131.63 234.37 130.86 C 234.52 130.66 236.96 126.70 239.79 122.06 C 244.93 113.61 244.93 113.61 236.22 109.00 C 223.60 102.32 214.06 95.79 206.31 88.49 C 199.50 82.09 199.50 82.09 219.25 82.04 C 239.00 82.00 239.00 82.00 239.00 73.50 C 239.00 65.00 239.00 65.00 224.50 65.00 C 216.53 65.00 210.00 64.81 210.00 64.57 C 210.00 64.34 214.97 57.51 221.05 49.39 C 229.44 38.18 232.03 34.02 231.80 32.08 C 231.56 30.03 229.68 28.48 222.19 24.13 C 212.89 18.73 212.89 18.73 209.94 21.55 C 208.32 23.10 207.00 24.85 206.99 25.44 C 206.99 26.02 208.40 27.67 210.14 29.10 C 213.30 31.70 213.30 31.70 209.95 36.60 C 208.10 39.29 202.40 45.82 197.29 51.09 C 192.18 56.37 188.00 60.99 188.00 61.37 C 188.00 61.74 189.24 62.59 190.75 63.24 C 193.48 64.43 193.47 64.44 189.14 64.78 C 181.57 65.38 182.00 66.98 182.00 38.03 C 182.00 12.00 182.00 12.00 172.50 12.00 C 163.00 12.00 163.00 12.00 163.00 38.50 C 163.00 65.00 163.00 65.00 152.00 65.00 C 145.95 65.00 141.00 64.79 141.00 64.54 C 141.00 64.28 143.70 62.24 147.00 60.00 C 150.30 57.76 153.00 55.59 153.00 55.18 C 153.00 54.23 135.38 30.91 130.24 25.06 C 126.34 20.62 126.34 20.62 119.92 25.47 C 116.39 28.14 113.10 30.68 112.60 31.11 C 112.11 31.54 113.93 34.34 116.69 37.35 C 121.20 42.28 136.00 63.04 136.00 64.43 C 136.00 64.74 129.93 65.00 122.50 65.00 C 109.00 65.00 109.00 65.00 109.00 73.50 C 109.00 82.00 109.00 82.00 127.72 82.00 C 146.44 82.00 146.44 82.00 140.01 88.49 C 131.95 96.62 121.06 104.51 109.46 110.61 C 104.53 113.21 100.35 115.44 100.17 115.58 C 99.99 115.72 102.65 119.26 106.09 123.46 C 110.47 128.79 112.82 130.90 113.93 130.50 C 117.96 129.01 132.02 119.86 139.36 113.94 C 146.44 108.24 155.66 98.13 161.20 89.99 C 162.83 87.60 162.90 88.20 162.95 104.75 C 162.98 114.24 162.76 122.00 162.46 122.00 C 162.16 122.00 160.16 121.10 158.00 120.00 C 152.82 117.36 151.89 117.46 148.50 121.00 C 145.62 124.01 145.62 124.01 148.81 127.30 C 150.56 129.11 152.00 130.91 152.00 131.29 C 152.00 131.67 150.59 135.14 148.87 138.99 C 145.73 146.00 145.73 146.00 125.37 146.00 C 105.00 146.00 105.00 146.00 105.00 154.50 C 105.00 163.00 105.00 163.00 120.00 163.00 C 128.25 163.00 135.00 163.28 135.00 163.61 C 135.00 164.50 122.30 183.80 118.77 188.27 C 117.14 190.34 116.02 192.61 116.29 193.30 C 116.55 193.99 119.41 195.39 122.63 196.40 C 135.47 200.41 160.00 209.39 160.00 210.08 C 160.00 211.03 147.46 216.21 138.61 218.91 C 128.33 222.06 120.75 223.68 108.06 225.45 C 101.77 226.33 96.48 227.18 96.31 227.36 C 96.13 227.53 97.68 231.80 99.75 236.85 C 104.01 247.28 101.75 246.60 121.50 243.36 Z  M 162.80 190.66 C 154.16 187.82 146.84 185.23 146.53 184.89 C 146.21 184.56 147.68 181.41 149.80 177.89 C 151.92 174.38 154.71 169.59 156.01 167.25 C 158.37 163.00 158.37 163.00 179.75 163.00 C 201.13 163.00 201.13 163.00 200.46 165.25 C 199.06 169.93 196.03 176.10 192.87 180.72 C 189.36 185.85 180.10 196.06 179.10 195.91 C 178.77 195.85 171.43 193.49 162.80 190.66 Z "/>
</g>
</svg>