<?xml version="1.0" encoding="UTF-8" standalone="no"?>
<!DOCTYPE svg PUBLIC "-//W3C//DTD SVG 1.1//EN" "http://www.w3.org/Graphics/SVG/1.1/DTD/svg11.dtd" >
<svg xmlns="http://www.w3.org/2000/svg" xmlns:xlink="http://www.w3.org/1999/xlink" version="1.1" viewBox="0 0 256 256">
 <g >
 <path fill="currentColor"
d=" M 79.98 241.09 C 81.34 240.12 82.76 238.24 83.13 236.91 C 83.50 235.58 83.85 222.69 83.90 208.25 C 84.00 182.00 84.00 182.00 102.02 182.00 C 120.04 182.00 120.04 182.00 119.77 159.25 C 119.50 136.50 119.50 136.50 74.75 136.24 C 30.00 135.98 30.00 135.98 30.00 158.99 C 30.00 182.00 30.00 182.00 48.00 182.00 C 66.00 182.00 66.00 182.00 65.98 201.75 C 65.98 212.61 65.57 222.12 65.09 222.89 C 64.22 224.26 55.73 224.05 43.26 222.35 C 39.03 221.78 39.03 221.78 43.11 217.14 C 47.56 212.08 53.65 202.26 54.55 198.67 C 54.92 197.19 54.49 195.88 53.31 194.86 C 50.71 192.64 39.42 186.00 38.24 186.00 C 37.69 186.00 36.03 187.58 34.56 189.51 C 31.88 193.03 31.88 193.03 34.94 195.60 C 38.00 198.18 38.00 198.18 34.75 202.72 C 32.96 205.23 26.89 211.62 21.26 216.93 C 11.03 226.59 11.03 226.59 17.03 232.53 C 23.03 238.47 23.03 238.47 30.50 230.73 C 34.60 226.48 38.14 223.00 38.36 223.00 C 38.58 223.00 38.32 225.06 37.78 227.57 C 37.25 230.08 37.05 232.38 37.34 232.67 C 37.63 232.97 42.06 234.11 47.19 235.22 C 56.13 237.16 60.00 239.04 60.00 241.43 C 60.00 242.05 60.68 243.52 61.50 244.70 C 63.00 246.84 63.00 246.84 70.25 244.85 C 74.24 243.75 78.61 242.06 79.98 241.09 Z  M 151.50 233.60 C 162.36 226.26 174.37 214.56 178.98 206.83 C 182.37 201.17 182.37 201.17 191.36 208.83 C 196.31 213.05 206.97 222.91 215.06 230.75 C 223.14 238.59 229.98 245.00 230.25 245.00 C 230.53 245.00 233.56 241.36 237.00 236.92 C 243.25 228.84 243.25 228.84 238.88 224.32 C 232.22 217.47 215.94 203.58 201.90 192.78 C 189.30 183.09 189.30 183.09 190.74 176.30 C 191.76 171.51 192.34 159.65 192.70 136.21 C 193.22 102.92 193.22 102.92 184.36 103.21 C 175.50 103.50 175.50 103.50 174.90 134.00 C 174.31 163.73 173.68 170.19 170.37 180.50 C 165.20 196.55 150.96 211.18 128.50 223.47 C 124.78 225.50 124.14 225.67 126.00 224.13 C 127.38 222.98 128.84 222.03 129.25 222.02 C 129.66 222.01 130.00 221.59 130.00 221.09 C 130.00 219.45 118.52 204.70 111.05 196.73 C 103.14 188.29 104.48 188.13 91.62 199.11 C 91.13 199.53 93.44 202.94 96.75 206.68 C 100.06 210.43 105.63 217.59 109.13 222.58 C 112.64 227.58 115.97 231.51 116.55 231.32 C 117.12 231.13 120.24 234.57 123.48 238.97 C 129.36 246.97 129.36 246.97 135.93 243.33 C 139.54 241.33 146.55 236.95 151.50 233.60 Z  M 154.00 140.00 C 154.00 91.00 154.00 91.00 184.50 91.00 C 215.00 91.00 215.00 91.00 215.00 140.00 C 215.00 189.00 215.00 189.00 224.00 189.00 C 233.00 189.00 233.00 189.00 233.00 131.00 C 233.00 73.00 233.00 73.00 210.00 73.00 C 189.68 73.00 187.00 72.82 187.00 71.42 C 187.00 70.03 188.88 62.03 192.10 49.75 C 193.08 46.00 193.08 46.00 217.54 46.00 C 242.00 46.00 242.00 46.00 242.00 37.00 C 242.00 28.00 242.00 28.00 185.46 28.00 C 128.92 28.00 128.92 28.00 129.21 36.75 C 129.50 45.50 129.50 45.50 151.33 45.77 C 176.40 46.08 174.01 43.86 169.11 62.30 C 166.40 72.50 166.40 72.50 151.20 72.78 C 136.00 73.05 136.00 73.05 136.00 131.03 C 136.00 189.00 136.00 189.00 145.00 189.00 C 154.00 189.00 154.00 189.00 154.00 140.00 Z  M 130.00 114.50 C 130.00 107.00 130.00 107.00 106.50 107.00 C 86.48 107.00 83.00 106.78 83.00 105.53 C 83.00 104.72 81.87 101.51 80.50 98.40 C 79.12 95.29 78.00 92.58 78.00 92.38 C 78.00 92.17 87.45 92.00 99.00 92.00 C 120.00 92.00 120.00 92.00 120.00 58.00 C 120.00 24.00 120.00 24.00 74.00 24.00 C 28.00 24.00 28.00 24.00 28.00 57.97 C 28.00 91.95 28.00 91.95 42.75 92.22 C 57.50 92.50 57.50 92.50 60.70 99.00 C 62.46 102.58 63.92 105.84 63.95 106.25 C 63.98 106.66 52.52 107.00 38.50 107.00 C 13.00 107.00 13.00 107.00 13.00 114.50 C 13.00 122.00 13.00 122.00 71.50 122.00 C 130.00 122.00 130.00 122.00 130.00 114.50 Z  M 48.00 158.48 C 48.00 148.97 48.00 148.97 74.25 149.23 C 100.50 149.50 100.50 149.50 100.79 158.75 C 101.08 168.00 101.08 168.00 74.54 168.00 C 48.00 168.00 48.00 168.00 48.00 158.48 Z  M 46.00 72.02 C 46.00 65.00 46.00 65.00 74.05 65.00 C 102.09 65.00 102.09 65.00 101.80 71.75 C 101.50 78.50 101.50 78.50 73.75 78.77 C 46.00 79.03 46.00 79.03 46.00 72.02 Z  M 46.00 45.02 C 46.00 38.00 46.00 38.00 74.05 38.00 C 102.09 38.00 102.09 38.00 101.80 44.75 C 101.50 51.50 101.50 51.50 73.75 51.77 C 46.00 52.03 46.00 52.03 46.00 45.02 Z "/>
</g>
</svg>