<?xml version="1.0" encoding="UTF-8" standalone="no"?>
<!DOCTYPE svg PUBLIC "-//W3C//DTD SVG 1.1//EN" "http://www.w3.org/Graphics/SVG/1.1/DTD/svg11.dtd" >
<svg xmlns="http://www.w3.org/2000/svg" xmlns:xlink="http://www.w3.org/1999/xlink" version="1.1" viewBox="0 0 256 256">
 <g >
 <path fill="currentColor"
d=" M 214.37 237.05 C 215.92 236.46 218.09 236.45 220.10 237.03 C 222.20 237.63 223.77 237.60 224.56 236.95 C 226.40 235.42 230.78 220.39 231.55 213.00 C 231.92 209.43 233.05 201.53 234.06 195.45 C 235.07 189.37 236.18 180.15 236.52 174.95 C 236.87 169.75 237.79 162.12 238.58 158.00 C 239.36 153.88 240.22 146.11 240.48 140.75 C 240.79 134.38 241.49 130.18 242.49 128.66 C 243.98 126.39 243.91 126.29 240.05 125.02 C 236.97 124.00 229.09 123.82 205.04 124.23 C 187.97 124.52 174.00 124.45 174.00 124.08 C 174.00 123.70 174.44 122.96 174.97 122.43 C 175.50 121.90 176.25 113.93 176.62 104.72 C 177.07 93.74 177.72 87.65 178.51 87.00 C 179.18 86.44 189.15 85.82 201.30 85.59 C 213.18 85.37 223.38 84.88 223.97 84.52 C 224.66 84.09 224.97 79.88 224.83 72.93 C 224.61 62.00 224.61 62.00 219.82 62.00 C 214.68 62.00 195.92 65.71 184.50 68.99 C 180.65 70.10 177.24 71.00 176.91 71.00 C 176.58 71.00 176.01 61.22 175.64 49.27 C 175.10 32.00 174.66 27.23 173.47 26.04 C 172.39 24.96 168.00 24.29 157.50 23.60 C 137.14 22.26 136.47 22.73 139.55 36.00 C 140.57 40.39 141.35 52.23 141.96 72.50 C 142.46 89.00 143.32 106.33 143.87 111.00 C 146.28 131.33 146.66 129.52 139.68 130.78 C 136.28 131.39 130.62 132.18 127.11 132.52 C 118.63 133.33 112.65 135.70 113.56 137.88 C 115.61 142.78 117.33 150.02 119.52 163.00 C 122.88 182.91 127.68 208.13 128.53 210.28 C 129.41 212.51 132.13 214.00 135.32 214.00 C 136.66 214.00 140.63 215.08 144.13 216.39 C 147.63 217.70 154.32 219.56 159.00 220.51 C 163.68 221.45 176.72 225.50 188.00 229.49 C 206.52 236.04 211.12 237.68 211.68 237.92 C 211.79 237.96 212.99 237.57 214.37 237.05 Z  M 100.97 204.11 C 102.63 203.65 103.68 202.44 104.14 200.46 C 105.34 195.38 107.91 174.91 108.54 165.50 C 108.86 160.55 109.61 153.57 110.19 150.00 C 110.78 146.43 111.38 137.43 111.54 130.00 C 111.70 122.58 112.29 115.04 112.85 113.25 C 113.74 110.39 113.60 109.86 111.73 108.85 C 103.98 104.71 86.92 102.87 66.00 103.94 C 57.47 104.37 50.36 104.61 50.19 104.47 C 50.02 104.33 50.62 102.48 51.53 100.36 C 52.43 98.24 54.52 92.71 56.18 88.08 C 57.83 83.44 60.49 77.33 62.09 74.50 C 63.69 71.66 65.00 68.47 65.00 67.42 C 65.01 66.36 65.85 64.12 66.87 62.44 C 68.41 59.92 69.78 59.17 74.62 58.16 C 77.85 57.49 83.42 56.30 87.00 55.51 C 90.58 54.73 97.64 53.61 102.70 53.03 C 112.89 51.86 121.00 48.96 121.00 46.49 C 121.00 40.91 115.09 36.57 110.67 38.88 C 108.55 39.99 93.54 43.17 81.50 45.05 C 78.20 45.57 74.60 46.40 73.50 46.91 C 71.02 48.04 48.20 52.56 33.71 54.79 C 23.71 56.33 22.88 56.63 22.31 58.91 C 21.63 61.60 23.51 65.68 26.18 67.35 C 27.41 68.12 29.32 67.96 33.18 66.78 C 36.11 65.89 40.47 64.85 42.89 64.47 C 47.27 63.78 47.27 63.78 44.14 69.26 C 42.41 72.28 41.00 75.48 41.00 76.37 C 41.00 77.27 40.56 78.00 40.03 78.00 C 39.49 78.00 38.36 80.36 37.52 83.25 C 36.67 86.14 33.95 92.10 31.48 96.50 C 29.00 100.90 22.26 114.08 16.49 125.79 C 6.28 146.53 6.05 147.17 7.36 150.31 C 8.94 154.09 15.01 159.71 18.44 160.57 C 22.92 161.70 24.23 160.69 26.95 154.00 C 29.88 146.79 34.99 137.66 35.70 138.36 C 35.95 138.61 37.44 151.29 39.02 166.53 C 41.67 192.17 42.08 194.52 44.48 198.15 C 45.91 200.31 47.53 201.79 48.08 201.45 C 48.63 201.11 49.63 201.24 50.29 201.74 C 50.96 202.24 57.58 202.75 65.00 202.88 C 72.42 203.00 81.42 203.47 85.00 203.92 C 93.17 204.93 97.82 204.99 100.97 204.11 Z "/>
</g>
</svg>