<?xml version="1.0" encoding="UTF-8" standalone="no"?>
<!DOCTYPE svg PUBLIC "-//W3C//DTD SVG 1.1//EN" "http://www.w3.org/Graphics/SVG/1.1/DTD/svg11.dtd" >
<svg xmlns="http://www.w3.org/2000/svg" xmlns:xlink="http://www.w3.org/1999/xlink" version="1.1" viewBox="0 0 256 256">
 <g >
 <path fill="currentColor"
d=" M 65.00 207.47 C 68.58 206.67 74.77 205.56 78.76 205.01 C 82.75 204.46 88.00 203.56 90.44 203.01 C 92.87 202.47 99.50 201.33 105.18 200.49 C 110.86 199.65 119.65 198.07 124.73 196.98 C 129.81 195.89 135.97 195.00 138.42 195.00 C 140.88 195.00 143.12 194.61 143.41 194.14 C 143.95 193.27 146.83 192.76 161.50 190.92 C 165.90 190.37 174.79 188.81 181.27 187.46 C 198.09 183.94 197.19 183.70 196.39 191.47 C 195.64 198.86 197.37 202.97 201.27 203.04 C 202.50 203.05 204.62 203.71 206.00 204.50 C 209.25 206.36 215.16 206.38 219.53 204.55 C 222.71 203.22 223.00 202.75 223.00 198.91 C 223.00 194.09 224.63 179.05 226.02 171.00 C 227.35 163.34 228.91 147.28 229.43 136.00 C 230.35 116.17 231.16 105.40 231.94 102.50 C 232.69 99.72 233.32 88.16 233.45 75.00 C 233.50 69.50 233.50 69.50 227.50 68.79 C 209.04 66.59 203.54 66.16 202.34 66.83 C 201.29 67.42 200.92 75.67 200.55 107.04 C 200.28 129.58 199.52 151.22 198.79 157.50 C 197.50 168.50 197.50 168.50 190.50 170.15 C 168.70 175.30 158.81 177.28 143.50 179.52 C 134.15 180.89 121.78 183.13 116.00 184.49 C 110.22 185.85 101.00 187.89 95.50 189.03 C 90.00 190.17 83.34 191.58 80.69 192.16 C 78.05 192.74 75.60 192.94 75.26 192.60 C 74.92 192.26 74.32 187.60 73.92 182.24 C 72.92 168.82 71.11 150.88 69.93 142.53 C 69.39 138.70 68.50 128.90 67.95 120.76 C 67.40 112.62 66.26 102.48 65.40 98.23 C 64.54 93.98 63.68 89.15 63.48 87.50 C 63.28 85.85 62.38 78.42 61.48 71.00 C 60.57 63.58 59.76 55.72 59.67 53.53 C 59.43 47.83 57.25 47.03 41.80 47.01 C 28.93 47.00 20.54 48.14 17.60 50.31 C 16.12 51.40 16.16 52.37 18.01 62.00 C 20.79 76.50 21.56 81.57 24.49 104.50 C 25.89 115.50 29.25 137.55 31.96 153.50 C 34.66 169.45 37.15 185.20 37.49 188.50 C 37.83 191.80 38.32 195.55 38.59 196.83 C 38.86 198.13 38.67 198.91 38.15 198.59 C 37.64 198.28 37.00 199.48 36.73 201.26 C 36.02 205.89 38.47 209.68 42.23 209.79 C 43.87 209.83 45.37 210.04 45.58 210.24 C 46.11 210.78 57.41 209.16 65.00 207.47 Z "/>
</g>
</svg>