<?xml version="1.0" encoding="UTF-8" standalone="no"?>
<!DOCTYPE svg PUBLIC "-//W3C//DTD SVG 1.1//EN" "http://www.w3.org/Graphics/SVG/1.1/DTD/svg11.dtd" >
<svg xmlns="http://www.w3.org/2000/svg" xmlns:xlink="http://www.w3.org/1999/xlink" version="1.1" viewBox="0 0 256 256">
 <g >
 <path fill="currentColor"
d=" M 207.50 238.43 C 211.22 231.77 212.32 227.34 213.92 212.50 C 214.45 207.55 215.62 199.23 216.51 194.01 C 217.40 188.79 217.86 183.09 217.54 181.34 C 217.01 178.54 216.31 177.97 211.56 176.48 C 207.34 175.15 205.47 175.01 202.84 175.85 C 201.00 176.43 194.78 177.41 189.00 178.03 C 177.30 179.26 155.87 183.03 143.18 186.09 C 135.09 188.03 118.14 190.51 117.54 189.84 C 117.38 189.65 117.58 187.03 117.98 184.02 C 118.97 176.50 118.07 173.70 114.44 172.95 C 112.82 172.62 110.42 171.77 109.10 171.06 C 107.01 169.94 106.57 170.01 105.61 171.64 C 103.71 174.86 101.12 182.12 99.87 187.68 C 98.95 191.81 98.19 193.14 96.59 193.44 C 95.44 193.66 91.12 194.38 87.00 195.03 C 82.88 195.69 75.22 197.32 70.00 198.66 C 51.72 203.34 53.00 202.80 53.02 205.79 C 53.02 207.28 53.36 209.00 53.77 209.60 C 54.89 211.29 58.92 213.16 60.00 212.50 C 60.53 212.17 64.00 211.27 67.73 210.49 C 71.45 209.71 79.41 207.93 85.42 206.54 C 91.42 205.14 96.47 204.14 96.64 204.31 C 96.81 204.48 96.11 206.84 95.09 209.56 C 94.06 212.28 91.97 218.67 90.45 223.77 C 87.68 233.03 87.68 233.03 89.93 235.42 C 91.47 237.07 94.09 238.15 98.27 238.89 C 101.63 239.48 104.40 239.86 104.44 239.73 C 104.48 239.60 105.53 238.03 106.79 236.24 C 108.41 233.92 109.38 230.47 110.14 224.29 C 111.14 216.12 114.21 202.45 115.30 201.37 C 115.57 201.10 118.66 200.47 122.16 199.98 C 125.67 199.48 130.48 198.39 132.84 197.56 C 137.74 195.83 142.20 195.57 149.77 196.56 C 154.90 197.24 168.01 194.97 170.50 192.98 C 171.05 192.54 173.24 191.85 175.37 191.46 C 179.23 190.73 179.23 190.73 178.52 199.12 C 177.58 210.16 175.44 222.50 173.52 227.94 C 172.11 231.93 172.12 232.48 173.60 234.11 C 175.81 236.56 190.59 243.75 195.50 244.78 C 202.14 246.16 203.62 245.37 207.50 238.43 Z  M 215.87 170.57 C 220.44 168.21 221.01 166.74 222.45 153.85 C 223.21 147.06 224.36 140.15 225.01 138.50 C 225.78 136.54 226.38 124.72 226.73 104.47 C 227.27 73.45 227.27 73.45 222.39 72.24 C 213.11 69.96 203.06 69.70 192.67 71.48 C 187.26 72.41 182.56 72.90 182.23 72.56 C 181.56 71.90 184.35 66.20 189.09 58.57 C 190.78 55.86 193.20 50.91 194.48 47.57 C 195.76 44.23 198.87 37.45 201.39 32.50 C 206.94 21.60 207.22 18.20 202.88 14.55 C 198.00 10.45 194.63 9.07 188.85 8.82 C 182.44 8.54 158.55 11.77 132.50 16.44 C 122.05 18.31 110.18 20.14 106.12 20.50 C 102.07 20.85 97.65 21.56 96.30 22.07 C 94.96 22.59 90.63 23.50 86.68 24.10 C 82.73 24.70 75.90 26.05 71.50 27.09 C 67.10 28.13 61.81 28.99 59.75 28.99 C 56.62 29.00 56.00 29.34 56.00 31.08 C 56.00 32.22 57.32 34.47 58.92 36.08 C 62.62 39.78 66.32 39.86 78.49 36.49 C 83.44 35.12 89.08 34.00 91.03 34.00 C 92.98 34.00 97.08 33.35 100.13 32.56 C 103.18 31.76 111.03 30.64 117.59 30.05 C 124.14 29.47 131.97 28.33 135.00 27.52 C 140.89 25.93 160.92 23.59 161.73 24.39 C 161.99 24.66 158.87 31.77 154.78 40.19 C 147.35 55.50 147.35 55.50 139.68 43.72 C 135.47 37.24 131.35 31.69 130.53 31.38 C 128.13 30.45 112.78 35.89 109.18 38.95 C 106.19 41.48 105.93 42.12 106.55 45.41 C 106.93 47.42 108.39 50.74 109.80 52.78 C 111.22 54.83 114.25 59.88 116.55 64.00 C 118.84 68.12 121.79 73.38 123.09 75.68 C 124.40 77.98 125.21 80.12 124.89 80.44 C 123.77 81.56 74.59 89.00 68.29 89.00 C 66.30 89.00 66.00 88.50 66.00 85.15 C 66.00 82.76 65.34 80.72 64.25 79.74 C 61.92 77.64 47.56 75.00 38.47 75.00 C 31.16 75.00 31.16 75.00 30.13 78.25 C 29.56 80.06 28.89 97.27 28.61 117.20 C 28.14 150.17 28.23 152.94 29.80 153.40 C 30.74 153.67 35.02 154.37 39.32 154.95 C 55.93 157.18 62.46 155.79 61.44 150.22 C 60.56 145.38 62.01 144.52 68.66 145.90 C 72.47 146.69 81.62 147.01 95.00 146.81 C 115.50 146.50 115.50 146.50 115.79 155.69 C 116.07 164.63 116.16 164.96 119.23 167.54 C 122.74 170.49 124.36 170.49 144.92 167.48 C 156.91 165.72 157.56 165.09 157.14 155.83 C 156.81 148.69 156.81 148.69 163.05 149.35 C 166.48 149.71 172.44 150.00 176.28 150.00 C 183.26 150.00 183.26 150.00 182.71 154.14 C 181.83 160.69 183.18 162.75 190.56 166.10 C 197.12 169.07 206.47 171.76 210.80 171.92 C 212.06 171.96 214.35 171.35 215.87 170.57 Z  M 159.35 139.31 C 158.17 139.08 156.94 137.90 156.62 136.69 C 155.77 133.53 155.87 128.20 156.79 127.63 C 157.73 127.05 184.04 128.71 184.73 129.39 C 184.99 129.66 184.89 132.15 184.51 134.94 C 183.81 140.00 183.81 140.00 172.66 139.86 C 166.52 139.79 160.53 139.54 159.35 139.31 Z  M 67.50 137.30 C 63.48 136.36 61.96 131.50 63.67 125.10 C 64.31 122.69 64.31 122.69 88.31 123.30 C 101.51 123.64 112.64 124.27 113.03 124.71 C 113.43 125.14 113.99 128.31 114.28 131.75 C 114.81 138.00 114.81 138.00 92.16 137.88 C 79.69 137.82 68.60 137.56 67.50 137.30 Z  M 165.33 116.08 C 160.84 115.76 156.96 115.28 156.71 115.00 C 156.46 114.72 156.03 109.18 155.76 102.68 C 155.28 91.31 155.34 90.82 157.38 90.10 C 160.92 88.85 182.86 85.73 184.29 86.28 C 186.54 87.14 188.30 97.06 187.82 106.17 C 187.58 110.79 187.04 115.12 186.63 115.79 C 185.84 117.06 180.22 117.14 165.33 116.08 Z  M 68.25 112.28 C 65.16 111.89 65.00 111.66 65.01 107.69 C 65.04 99.80 65.59 99.05 70.85 99.66 C 73.42 99.96 78.86 99.51 83.00 98.66 C 87.12 97.82 94.82 96.81 100.10 96.44 C 111.24 95.64 110.96 95.38 110.99 106.75 C 111.00 113.00 111.00 113.00 91.25 112.84 C 80.39 112.75 70.04 112.50 68.25 112.28 Z "/>
</g>
</svg>