<?xml version="1.0" encoding="UTF-8" standalone="no"?>
<!DOCTYPE svg PUBLIC "-//W3C//DTD SVG 1.1//EN" "http://www.w3.org/Graphics/SVG/1.1/DTD/svg11.dtd" >
<svg xmlns="http://www.w3.org/2000/svg" xmlns:xlink="http://www.w3.org/1999/xlink" version="1.1" viewBox="0 0 256 256">
 <g >
 <path fill="currentColor"
d=" M 218.37 232.10 C 221.60 230.12 228.80 225.12 234.37 221.00 C 241.97 215.37 244.57 212.87 244.79 210.97 C 245.19 207.57 239.45 198.87 228.93 186.93 C 215.27 171.42 205.64 159.92 203.50 156.56 C 198.63 148.91 194.69 144.96 192.57 145.60 C 189.30 146.57 180.97 152.09 175.36 157.00 C 172.53 159.47 168.33 163.02 166.03 164.88 C 163.31 167.06 161.99 168.85 162.27 169.94 C 162.52 170.87 166.85 177.81 171.91 185.36 C 176.97 192.92 183.85 203.69 187.21 209.30 C 194.30 221.14 201.00 230.39 205.20 234.14 C 208.74 237.30 210.29 237.06 218.37 232.10 Z  M 106.62 217.37 C 107.45 215.38 109.02 207.62 110.10 200.12 C 111.19 192.63 112.26 185.82 112.48 185.00 C 112.71 184.18 113.64 174.97 114.55 164.54 C 116.20 145.58 116.20 145.58 113.99 143.79 C 110.56 141.02 98.63 141.53 74.00 145.51 C 62.17 147.42 51.79 148.99 50.93 148.99 C 49.74 149.00 48.94 146.76 47.64 139.75 C 46.69 134.66 44.01 122.17 41.68 112.00 C 36.88 90.99 38.76 93.10 26.00 94.45 C 14.39 95.67 10.00 96.97 10.00 99.15 C 10.00 100.23 12.95 113.06 16.55 127.67 C 20.15 142.28 22.87 154.46 22.59 154.74 C 22.31 155.02 22.73 156.51 23.52 158.04 C 26.44 163.68 32.05 163.88 61.74 159.40 C 66.82 158.63 73.73 158.00 77.10 158.00 C 83.23 158.00 83.23 158.00 82.66 162.25 C 82.34 164.59 81.81 170.10 81.47 174.50 C 81.13 178.90 79.49 188.25 77.83 195.28 C 75.35 205.75 75.03 208.34 76.07 209.59 C 78.33 212.31 85.35 215.78 92.00 217.46 C 95.58 218.36 99.62 219.48 101.00 219.95 C 104.91 221.26 105.01 221.21 106.62 217.37 Z  M 137.00 219.93 C 137.00 219.35 137.79 219.11 138.75 219.41 C 142.38 220.54 143.41 218.08 146.45 201.00 C 147.19 196.88 148.56 190.57 149.51 187.00 C 150.46 183.43 152.10 176.68 153.16 172.00 C 154.22 167.32 155.52 161.81 156.05 159.75 C 156.57 157.69 157.43 154.31 157.95 152.25 C 158.47 150.19 160.04 144.74 161.45 140.14 C 162.85 135.54 164.00 130.81 164.00 129.64 C 163.99 128.46 164.64 125.47 165.44 123.00 C 166.24 120.53 167.63 115.80 168.53 112.50 C 173.53 94.24 171.61 95.87 191.07 93.36 C 200.65 92.12 213.90 90.59 220.50 89.96 C 237.13 88.37 236.73 88.49 237.52 84.90 C 238.12 82.18 237.71 81.33 234.10 77.87 C 230.13 74.05 229.84 73.95 224.75 74.55 C 221.86 74.89 215.00 75.99 209.50 77.01 C 198.41 79.05 176.18 81.51 175.44 80.78 C 175.18 80.52 175.85 77.42 176.94 73.90 C 178.02 70.38 180.54 60.98 182.55 53.00 C 190.31 22.16 190.21 23.97 184.34 21.50 C 181.53 20.32 180.97 20.38 179.15 22.08 C 176.64 24.42 171.34 40.56 165.07 65.00 C 160.32 83.50 160.32 83.50 154.41 84.70 C 151.16 85.35 143.32 86.37 137.00 86.96 C 130.68 87.55 122.69 88.56 119.25 89.20 C 113.10 90.35 113.00 90.42 113.00 93.62 C 113.00 95.41 113.46 98.08 114.02 99.56 C 115.04 102.23 115.13 102.25 122.27 101.69 C 126.25 101.38 132.43 100.69 136.00 100.17 C 139.57 99.64 145.59 98.92 149.36 98.56 C 156.23 97.92 156.23 97.92 155.77 101.21 C 155.15 105.60 143.84 142.42 140.01 152.50 C 138.34 156.90 135.38 166.35 133.44 173.50 C 131.50 180.65 128.35 191.33 126.45 197.23 C 124.55 203.13 123.00 209.52 123.00 211.42 C 123.00 214.61 123.44 215.10 128.75 217.87 C 134.94 221.10 137.00 221.61 137.00 219.93 Z  M 39.87 198.59 C 42.97 197.26 50.22 194.06 56.00 191.48 C 61.78 188.89 69.40 185.55 72.94 184.06 C 76.48 182.57 79.53 180.91 79.71 180.38 C 80.21 178.86 74.78 173.38 72.12 172.71 C 70.41 172.29 66.43 173.76 58.12 177.89 C 51.73 181.06 41.78 185.62 36.00 188.01 C 22.16 193.75 21.96 193.95 25.47 198.55 C 28.67 202.75 30.16 202.75 39.87 198.59 Z  M 99.40 116.25 C 100.81 111.58 102.17 99.22 102.55 87.46 C 103.13 69.78 101.55 38.36 99.98 36.47 C 97.91 33.98 87.34 34.64 75.27 38.00 C 55.23 43.59 39.54 48.70 30.00 52.76 C 24.77 54.98 18.59 57.37 16.25 58.06 C 13.74 58.80 12.00 59.92 12.00 60.79 C 12.00 63.44 16.11 68.99 18.53 69.60 C 21.60 70.37 30.95 68.03 49.23 61.92 C 57.33 59.22 64.58 57.00 65.34 57.00 C 67.32 57.00 68.55 88.67 67.00 99.97 C 66.38 104.51 66.10 108.83 66.38 109.56 C 67.06 111.32 79.97 115.10 87.50 115.75 C 90.80 116.03 94.17 116.64 95.00 117.10 C 97.37 118.42 98.82 118.14 99.40 116.25 Z "/>
</g>
</svg>