<?xml version="1.0" encoding="UTF-8" standalone="no"?>
<!DOCTYPE svg PUBLIC "-//W3C//DTD SVG 1.1//EN" "http://www.w3.org/Graphics/SVG/1.1/DTD/svg11.dtd" >
<svg xmlns="http://www.w3.org/2000/svg" xmlns:xlink="http://www.w3.org/1999/xlink" version="1.1" viewBox="0 0 204 256">
 <g >
 <path fill="currentColor"
d=" M 49.80 245.41 C 56.23 242.21 61.44 236.27 62.90 230.50 C 63.62 227.61 64.00 210.06 64.00 179.01 C 64.00 131.91 64.00 131.91 73.12 120.75 C 78.13 114.60 81.72 109.41 81.08 109.19 C 80.45 108.98 76.53 110.43 72.36 112.41 C 68.20 114.38 64.61 116.00 64.40 116.00 C 64.18 116.00 64.00 108.58 64.00 99.50 C 64.00 83.00 64.00 83.00 70.38 83.00 C 80.08 83.00 82.94 82.15 85.10 78.60 C 86.14 76.90 86.99 74.18 87.00 72.57 C 87.00 68.14 83.32 61.43 78.73 57.50 C 74.47 53.86 71.26 53.19 66.57 54.98 C 64.00 55.95 64.00 55.95 64.00 39.44 C 64.00 22.06 63.06 17.15 59.33 15.20 C 57.73 14.35 43.01 12.00 39.34 12.00 C 38.26 12.00 38.00 16.76 38.00 37.00 C 38.00 62.00 38.00 62.00 22.93 62.00 C 9.06 62.00 7.90 62.14 8.36 63.75 C 8.64 64.71 9.37 68.20 10.00 71.50 C 10.63 74.80 11.35 78.25 11.61 79.17 C 12.36 81.80 17.52 83.00 28.17 83.00 C 38.04 83.00 38.04 83.00 37.77 105.19 C 37.50 127.39 37.50 127.39 21.10 133.17 C 12.08 136.36 4.58 139.09 4.42 139.25 C 3.63 140.04 16.08 166.54 17.36 166.81 C 19.23 167.20 26.04 163.80 32.25 159.38 C 34.87 157.52 37.23 156.00 37.50 156.00 C 37.78 156.00 38.00 168.06 38.00 182.81 C 38.00 203.77 37.70 210.02 36.65 211.47 C 35.45 213.11 34.38 213.24 27.40 212.65 C 23.05 212.29 17.59 211.71 15.25 211.36 C 9.04 210.45 9.87 212.39 17.25 216.03 C 23.63 219.19 30.00 224.45 30.00 226.57 C 30.00 227.22 29.05 229.90 27.89 232.52 C 26.08 236.60 25.94 237.85 26.89 241.03 C 29.04 248.20 40.00 250.30 49.80 245.41 Z  M 171.27 246.42 C 177.14 244.42 184.75 237.76 187.12 232.54 C 188.86 228.72 188.96 223.62 188.98 138.11 C 189.00 47.72 189.00 47.72 193.00 43.38 C 196.25 39.86 197.00 38.31 197.00 35.11 C 197.00 31.84 196.29 30.45 192.75 26.82 C 187.53 21.47 182.25 17.46 179.19 16.53 C 177.34 15.97 175.94 16.72 171.99 20.42 C 167.09 25.00 167.09 25.00 140.12 25.00 C 113.16 25.00 113.16 25.00 110.99 21.49 C 108.13 16.85 106.49 16.10 97.64 15.35 C 90.19 14.72 90.19 14.72 89.72 96.11 C 89.22 184.04 88.97 188.59 83.56 208.30 C 79.69 222.41 73.99 235.90 68.81 243.25 C 66.05 247.16 67.88 246.66 74.64 241.68 C 94.96 226.69 109.20 198.18 111.76 167.35 C 112.50 158.50 112.50 158.50 119.73 158.21 C 126.97 157.91 126.97 157.91 127.23 185.21 C 127.50 212.50 127.50 212.50 134.45 212.17 C 142.09 211.81 146.26 210.16 148.22 206.74 C 149.11 205.18 149.65 197.53 150.00 181.50 C 150.50 158.50 150.50 158.50 157.25 158.20 C 164.00 157.91 164.00 157.91 164.00 186.40 C 164.00 208.09 163.70 215.07 162.75 215.68 C 162.06 216.12 156.18 216.37 149.68 216.22 C 143.18 216.08 138.09 216.34 138.38 216.80 C 138.66 217.26 142.74 219.35 147.45 221.45 C 152.38 223.65 156.00 225.86 156.00 226.68 C 156.00 227.46 155.29 229.47 154.42 231.16 C 152.12 235.60 152.09 242.34 154.36 244.84 C 157.39 248.19 164.21 248.83 171.27 246.42 Z  M 113.00 120.00 C 113.00 101.00 113.00 101.00 120.00 101.00 C 127.00 101.00 127.00 101.00 127.00 120.00 C 127.00 139.00 127.00 139.00 120.00 139.00 C 113.00 139.00 113.00 139.00 113.00 120.00 Z  M 150.23 120.25 C 150.50 101.50 150.50 101.50 157.25 101.20 C 164.00 100.91 164.00 100.91 164.00 119.95 C 164.00 139.00 164.00 139.00 156.98 139.00 C 149.96 139.00 149.96 139.00 150.23 120.25 Z  M 113.00 64.50 C 113.00 46.00 113.00 46.00 120.00 46.00 C 127.00 46.00 127.00 46.00 127.00 64.50 C 127.00 83.00 127.00 83.00 120.00 83.00 C 113.00 83.00 113.00 83.00 113.00 64.50 Z  M 150.67 82.33 C 150.30 81.97 150.00 73.64 150.00 63.83 C 150.00 46.00 150.00 46.00 157.00 46.00 C 164.00 46.00 164.00 46.00 164.00 64.50 C 164.00 83.00 164.00 83.00 157.67 83.00 C 154.18 83.00 151.03 82.70 150.67 82.33 Z "/>
</g>
</svg>