<?xml version="1.0" encoding="UTF-8" standalone="no"?>
<!DOCTYPE svg PUBLIC "-//W3C//DTD SVG 1.1//EN" "http://www.w3.org/Graphics/SVG/1.1/DTD/svg11.dtd" >
<svg xmlns="http://www.w3.org/2000/svg" xmlns:xlink="http://www.w3.org/1999/xlink" version="1.1" viewBox="0 0 204 256">
 <g >
 <path fill="currentColor"
d=" M 47.50 241.12 C 52.04 239.04 56.41 234.96 58.84 230.52 C 60.30 227.86 60.53 222.13 60.79 182.08 C 61.08 136.66 61.08 136.66 64.31 133.08 C 71.00 125.67 84.48 104.91 83.83 103.01 C 83.65 102.48 79.36 104.71 74.30 107.96 C 59.27 117.62 61.00 118.83 61.00 98.66 C 61.00 81.24 61.00 81.24 69.98 80.82 C 77.60 80.45 79.33 80.04 81.38 78.11 C 86.65 73.16 85.51 60.66 79.22 54.56 C 74.76 50.23 71.41 49.98 65.34 53.54 C 61.00 56.08 61.00 56.08 61.00 39.69 C 61.00 24.31 60.86 23.09 58.74 19.94 C 56.34 16.37 54.74 15.80 44.03 14.58 C 38.00 13.90 38.00 13.90 38.00 36.95 C 38.00 60.00 38.00 60.00 25.50 60.00 C 18.62 60.00 13.00 60.20 13.00 60.43 C 13.00 61.21 16.04 75.45 16.57 77.17 C 17.33 79.63 22.36 81.00 30.65 81.00 C 38.00 81.00 38.00 81.00 38.00 105.57 C 38.00 130.14 38.00 130.14 23.64 137.00 C 9.28 143.86 9.28 143.86 16.18 157.43 C 19.97 164.89 23.36 171.00 23.70 171.00 C 24.74 171.00 33.76 164.99 35.05 163.45 C 35.71 162.65 36.64 162.00 37.12 162.00 C 38.39 162.00 38.24 205.69 36.96 208.07 C 35.76 210.32 30.77 210.58 19.57 208.96 C 15.01 208.30 12.31 208.29 11.65 208.95 C 11.00 209.60 11.32 210.16 12.58 210.60 C 19.27 212.91 26.20 216.60 28.61 219.12 C 31.28 221.91 31.35 222.21 30.01 225.27 C 29.24 227.05 28.59 230.68 28.56 233.35 C 28.53 237.44 28.95 238.56 31.32 240.60 C 34.79 243.58 41.64 243.81 47.50 241.12 Z  M 172.84 239.33 C 176.26 237.24 178.23 235.05 180.25 231.07 C 183.00 225.64 183.00 225.64 183.00 174.44 C 183.00 123.24 183.00 123.24 186.94 119.30 C 191.94 114.29 192.89 110.80 190.45 106.28 C 187.78 101.31 176.41 91.00 173.61 91.00 C 171.29 91.00 164.70 95.21 162.13 98.33 C 160.91 99.81 157.78 100.00 134.35 100.00 C 111.51 100.00 107.86 99.79 107.35 98.46 C 106.36 95.89 101.88 94.25 93.75 93.49 C 86.00 92.77 86.00 92.77 86.00 167.45 C 86.00 238.10 86.09 242.11 87.75 241.65 C 88.71 241.39 91.73 240.86 94.46 240.49 C 102.44 239.40 106.71 237.27 107.93 233.77 C 108.54 232.01 109.00 222.66 109.00 211.85 C 109.00 193.00 109.00 193.00 134.50 193.00 C 160.00 193.00 160.00 193.00 160.00 201.80 C 160.00 207.31 159.55 211.05 158.80 211.80 C 157.99 212.61 153.29 213.00 144.22 213.00 C 128.24 213.00 127.47 214.05 140.44 218.09 C 152.29 221.79 152.64 222.19 150.67 229.96 C 148.10 240.09 151.10 243.33 162.34 242.57 C 166.51 242.29 169.52 241.36 172.84 239.33 Z  M 108.72 87.47 C 110.54 86.71 112.29 85.39 112.62 84.55 C 113.13 83.22 116.33 83.00 135.61 83.00 C 158.00 83.00 158.00 83.00 158.00 86.12 C 158.00 89.23 158.00 89.23 164.74 88.51 C 172.68 87.66 178.67 85.48 180.03 82.95 C 180.56 81.95 181.00 72.86 181.00 62.74 C 181.00 44.35 181.00 44.35 183.60 41.92 C 186.36 39.34 190.00 32.98 190.00 30.72 C 190.00 29.05 180.68 19.13 176.25 16.09 C 172.22 13.33 169.89 13.90 164.50 18.99 C 162.30 21.07 159.52 23.27 158.32 23.88 C 156.92 24.60 148.79 25.00 135.74 25.00 C 115.35 25.00 115.35 25.00 112.99 22.49 C 110.49 19.83 106.82 18.59 98.25 17.49 C 93.00 16.81 93.00 16.81 93.00 53.54 C 93.00 90.26 93.00 90.26 99.21 89.56 C 102.62 89.17 106.90 88.23 108.72 87.47 Z  M 109.00 165.00 C 109.00 156.00 109.00 156.00 134.50 156.00 C 160.00 156.00 160.00 156.00 160.00 165.00 C 160.00 174.00 160.00 174.00 134.50 174.00 C 109.00 174.00 109.00 174.00 109.00 165.00 Z  M 109.00 128.00 C 109.00 119.00 109.00 119.00 134.50 119.00 C 160.00 119.00 160.00 119.00 160.00 128.00 C 160.00 137.00 160.00 137.00 134.50 137.00 C 109.00 137.00 109.00 137.00 109.00 128.00 Z  M 115.00 54.50 C 115.00 43.00 115.00 43.00 136.50 43.00 C 158.00 43.00 158.00 43.00 158.00 54.50 C 158.00 66.00 158.00 66.00 136.50 66.00 C 115.00 66.00 115.00 66.00 115.00 54.50 Z "/>
</g>
</svg>