<?xml version="1.0" encoding="UTF-8" standalone="no"?>
<!DOCTYPE svg PUBLIC "-//W3C//DTD SVG 1.1//EN" "http://www.w3.org/Graphics/SVG/1.1/DTD/svg11.dtd" >
<svg xmlns="http://www.w3.org/2000/svg" xmlns:xlink="http://www.w3.org/1999/xlink" version="1.1" viewBox="0 0 204 256">
 <g >
 <path fill="currentColor"
d=" M 69.54 240.75 C 83.32 225.43 89.61 211.53 94.11 186.45 C 96.03 175.75 96.31 169.78 96.75 129.25 C 97.24 84.00 97.24 84.00 129.62 84.00 C 162.00 84.00 162.00 84.00 162.00 86.50 C 162.00 88.88 162.28 89.00 167.75 88.99 C 175.20 88.99 180.66 87.43 183.63 84.46 C 185.94 82.15 186.00 81.64 186.00 65.23 C 186.00 48.37 186.00 48.37 189.09 45.44 C 196.37 38.52 196.75 33.70 190.53 27.48 C 180.83 17.77 175.49 16.67 168.67 22.95 C 166.31 25.13 163.14 27.38 161.62 27.95 C 159.92 28.60 147.07 29.00 127.93 29.00 C 97.42 29.00 97.00 28.97 97.00 26.95 C 97.00 24.05 94.33 19.25 92.04 18.02 C 90.97 17.45 86.70 16.70 82.55 16.34 C 75.00 15.71 75.00 15.71 75.00 65.85 C 75.00 108.18 74.78 116.00 73.60 116.00 C 72.83 116.00 68.28 117.80 63.50 120.00 C 58.72 122.20 54.62 124.00 54.40 124.00 C 54.18 124.00 54.00 115.22 54.00 104.50 C 54.00 85.00 54.00 85.00 58.88 85.00 C 69.87 85.00 73.23 82.60 73.41 74.62 C 73.58 66.52 65.57 58.01 57.75 58.00 C 54.00 58.00 54.00 58.00 54.00 42.07 C 54.00 33.30 53.57 25.00 53.05 23.63 C 51.69 20.05 49.30 19.11 39.59 18.37 C 31.00 17.70 31.00 17.70 31.00 41.35 C 31.00 65.00 31.00 65.00 17.93 65.00 C 5.97 65.00 4.91 65.15 5.36 66.75 C 5.63 67.71 6.15 70.08 6.51 72.00 C 8.36 81.88 8.88 82.87 12.78 83.96 C 14.83 84.52 19.77 84.99 23.77 84.99 C 31.03 85.00 31.03 85.00 30.77 109.74 C 30.50 134.48 30.50 134.48 17.50 139.35 C 10.35 142.03 3.74 144.51 2.81 144.86 C 1.32 145.42 1.72 146.94 6.11 157.50 C 8.85 164.09 11.49 169.89 11.97 170.37 C 13.36 171.76 17.07 170.40 23.83 166.03 C 27.26 163.81 30.28 162.00 30.53 162.00 C 31.52 162.00 30.97 203.18 29.96 205.07 C 28.74 207.35 24.56 207.57 13.84 205.91 C 3.93 204.37 2.81 205.97 11.12 209.80 C 14.63 211.41 18.83 214.15 20.46 215.89 C 23.24 218.86 23.34 219.24 22.12 222.27 C 18.96 230.11 18.71 231.63 20.13 234.61 C 24.96 244.78 42.90 241.79 50.47 229.55 C 53.50 224.66 53.50 224.66 53.78 182.88 C 54.06 141.09 54.06 141.09 58.82 135.80 C 61.44 132.88 65.75 127.91 68.41 124.75 C 71.07 121.59 73.64 119.00 74.12 119.00 C 75.33 119.00 75.23 155.06 73.96 174.52 C 72.28 200.34 68.87 219.68 63.05 236.41 C 61.92 239.66 61.00 243.14 61.00 244.16 C 61.00 247.58 64.73 246.09 69.54 240.75 Z  M 107.50 240.43 C 113.26 239.65 117.75 237.35 118.57 234.78 C 119.09 233.13 121.02 233.00 144.07 233.00 C 169.00 233.00 169.00 233.00 169.00 237.10 C 169.00 241.20 169.00 241.20 175.25 240.55 C 185.21 239.51 186.86 239.00 188.99 236.29 C 190.90 233.86 191.00 232.27 191.00 204.79 C 191.00 175.85 191.00 175.85 188.08 172.92 C 185.75 170.60 184.27 170.00 180.83 169.99 C 178.45 169.98 174.81 169.70 172.75 169.36 C 169.00 168.74 169.00 168.74 169.00 191.87 C 169.00 215.00 169.00 215.00 161.49 215.00 C 153.97 215.00 153.97 215.00 154.24 184.25 C 154.50 153.50 154.50 153.50 160.25 153.20 C 166.00 152.90 166.00 152.90 166.00 156.45 C 166.00 159.90 166.10 160.00 169.86 160.00 C 176.87 160.00 184.41 158.11 186.25 155.89 C 187.81 154.01 188.00 151.17 188.00 129.82 C 188.00 115.31 187.59 105.11 186.97 103.94 C 185.20 100.64 180.58 99.00 173.05 99.00 C 166.00 99.00 166.00 99.00 166.00 117.00 C 166.00 135.00 166.00 135.00 160.00 135.00 C 154.00 135.00 154.00 135.00 154.00 114.56 C 154.00 94.41 153.96 94.07 151.60 91.32 C 149.40 88.76 148.50 88.49 141.10 88.16 C 133.00 87.79 133.00 87.79 133.00 111.39 C 133.00 135.00 133.00 135.00 128.00 135.00 C 123.00 135.00 123.00 135.00 122.97 120.75 C 122.95 111.10 122.54 106.00 121.72 104.95 C 118.79 101.23 115.57 100.00 108.78 100.00 C 102.00 100.00 102.00 100.00 102.00 130.50 C 102.00 161.00 102.00 161.00 105.25 160.96 C 112.07 160.87 117.16 159.24 120.38 156.12 C 123.05 153.53 124.39 153.00 128.30 153.00 C 133.00 153.00 133.00 153.00 133.00 184.00 C 133.00 215.00 133.00 215.00 126.50 215.00 C 120.00 215.00 120.00 215.00 120.00 195.43 C 120.00 183.93 119.58 175.08 118.97 173.94 C 117.40 171.02 113.20 169.34 105.75 168.68 C 99.00 168.08 99.00 168.08 99.00 205.11 C 99.00 239.90 99.11 242.10 100.75 241.62 C 101.71 241.34 104.75 240.81 107.50 240.43 Z  M 97.00 56.50 C 97.00 48.00 97.00 48.00 129.50 48.00 C 162.00 48.00 162.00 48.00 162.00 56.50 C 162.00 65.00 162.00 65.00 129.50 65.00 C 97.00 65.00 97.00 65.00 97.00 56.50 Z "/>
</g>
</svg>