<?xml version="1.0" encoding="UTF-8" standalone="no"?>
<!DOCTYPE svg PUBLIC "-//W3C//DTD SVG 1.1//EN" "http://www.w3.org/Graphics/SVG/1.1/DTD/svg11.dtd" >
<svg xmlns="http://www.w3.org/2000/svg" xmlns:xlink="http://www.w3.org/1999/xlink" version="1.1" viewBox="0 0 204 256">
 <g >
 <path fill="currentColor"
d=" M 183.07 245.92 C 183.94 245.48 185.17 243.38 185.81 241.25 C 187.22 236.54 190.53 233.27 195.66 231.51 C 200.79 229.76 201.23 226.93 196.80 224.17 C 191.62 220.94 181.68 210.22 176.23 202.00 C 170.85 193.86 167.00 186.75 167.00 184.93 C 167.00 184.29 168.60 179.50 170.56 174.28 C 174.98 162.46 180.39 141.38 182.03 129.52 C 183.15 121.40 183.64 120.10 187.14 115.95 C 189.26 113.43 191.00 110.65 191.00 109.76 C 191.00 107.59 186.64 102.55 180.70 97.86 C 173.82 92.42 170.35 92.56 164.65 98.50 C 162.28 100.97 159.82 103.00 159.17 103.00 C 158.32 103.00 158.00 97.62 158.00 83.00 C 158.00 63.00 158.00 63.00 162.00 63.00 C 166.85 63.00 166.83 62.76 163.49 77.48 C 162.12 83.52 161.00 88.58 161.00 88.73 C 161.00 91.51 174.28 80.01 179.57 72.65 C 184.50 65.79 184.09 66.23 189.26 61.92 C 194.05 57.91 194.70 55.28 192.11 50.22 C 189.98 46.04 180.49 37.00 178.23 37.00 C 176.60 37.00 169.44 40.62 165.92 43.22 C 164.46 44.29 162.20 45.02 160.89 44.84 C 158.53 44.50 158.49 44.31 158.00 30.78 C 157.62 20.35 157.14 16.70 155.98 15.55 C 154.65 14.22 146.14 12.00 142.36 12.00 C 141.27 12.00 141.00 15.23 141.00 28.50 C 141.00 45.00 141.00 45.00 137.95 45.00 C 135.62 45.00 134.51 44.30 133.20 42.02 C 132.27 40.38 130.38 38.61 129.00 38.08 C 126.89 37.28 116.89 35.00 115.45 35.00 C 115.20 35.00 115.00 58.74 114.99 87.75 C 114.99 140.50 114.99 140.50 111.09 135.95 C 108.00 132.35 103.09 128.33 98.18 125.38 C 98.00 125.27 99.12 123.26 100.68 120.92 C 103.50 116.65 103.50 116.65 103.80 84.83 C 103.97 67.32 104.50 53.00 104.98 53.00 C 105.46 53.00 107.46 51.48 109.43 49.63 C 113.54 45.76 114.04 42.22 111.16 37.50 C 108.71 33.48 98.88 26.00 96.05 26.00 C 94.80 26.00 91.49 27.91 88.70 30.25 C 83.63 34.50 83.63 34.50 68.23 34.82 C 52.82 35.14 52.82 35.14 53.60 32.82 C 55.63 26.78 55.07 26.01 45.57 21.88 C 40.66 19.75 36.07 18.00 35.36 18.00 C 34.66 18.00 33.59 19.91 32.99 22.25 C 28.66 39.07 22.03 57.23 13.62 75.25 C 11.11 80.61 9.41 85.00 9.84 85.00 C 10.27 85.00 13.18 83.46 16.31 81.57 C 22.00 78.15 22.00 78.15 22.00 93.67 C 22.00 109.19 22.00 109.19 27.25 108.50 C 33.29 107.71 36.57 105.94 37.51 102.97 C 38.57 99.63 41.57 100.90 41.17 104.52 C 40.75 108.23 36.04 119.00 34.83 119.00 C 34.34 119.00 32.36 118.34 30.43 117.54 C 27.01 116.11 26.90 116.13 25.96 118.60 C 25.43 119.99 25.00 121.94 25.00 122.94 C 25.00 127.27 19.81 144.56 15.10 155.95 C 12.29 162.75 10.22 168.55 10.51 168.84 C 10.79 169.13 13.06 167.93 15.54 166.18 C 18.03 164.43 20.27 163.00 20.53 163.00 C 20.79 163.00 21.00 173.13 21.00 185.52 C 21.00 208.04 21.00 208.04 23.75 207.43 C 30.04 206.04 32.83 204.81 35.03 202.47 C 36.44 200.97 38.46 200.00 40.19 200.00 C 42.78 200.00 42.98 200.25 42.43 202.75 C 39.64 215.39 33.46 227.45 25.76 235.32 C 22.59 238.56 20.00 241.59 20.00 242.06 C 20.00 243.66 29.35 240.09 34.55 236.51 C 43.41 230.41 51.03 220.05 56.26 207.00 C 58.87 200.50 58.87 200.50 63.43 200.20 C 68.00 199.89 68.00 199.89 68.00 204.54 C 68.00 209.19 68.00 209.19 73.25 208.50 C 76.28 208.10 79.33 207.00 80.47 205.90 C 82.64 203.81 82.64 203.79 82.24 179.29 C 81.97 163.15 82.27 163.70 73.25 162.69 C 68.00 162.09 68.00 162.09 68.00 173.55 C 68.00 185.00 68.00 185.00 64.35 185.00 C 60.69 185.00 60.69 185.00 61.31 171.38 C 61.92 157.77 61.92 157.77 59.05 154.89 C 56.42 152.27 55.74 152.07 51.33 152.65 C 48.68 153.00 46.38 153.37 46.24 153.48 C 46.10 153.60 45.69 160.73 45.33 169.34 C 44.69 185.00 44.69 185.00 41.34 185.00 C 38.00 185.00 38.00 185.00 38.00 175.95 C 38.00 167.68 37.79 166.70 35.55 164.45 C 33.56 162.47 32.08 162.00 27.83 162.00 C 22.56 162.00 22.56 162.00 28.52 155.98 C 34.47 149.97 34.47 149.97 60.48 150.23 C 86.50 150.50 86.50 150.50 86.77 179.88 C 86.97 202.29 86.73 209.62 85.78 210.77 C 84.73 212.03 82.41 212.19 71.75 211.71 C 63.99 211.37 59.20 211.51 59.54 212.07 C 59.86 212.58 60.78 213.00 61.58 213.00 C 63.62 213.00 76.34 219.50 77.84 221.31 C 78.81 222.48 78.75 223.68 77.55 227.14 C 75.51 232.98 75.61 235.24 78.04 238.33 C 81.98 243.33 91.57 243.07 97.57 237.80 C 104.63 231.61 104.47 232.65 104.81 190.75 C 104.97 169.99 105.47 153.00 105.90 153.00 C 106.34 153.00 108.34 151.40 110.35 149.45 C 114.00 145.90 114.00 145.90 113.99 159.20 C 113.96 191.17 108.91 226.43 102.53 239.13 C 101.14 241.90 100.00 244.58 100.00 245.08 C 100.00 248.31 107.11 242.37 113.29 233.99 C 118.89 226.39 126.16 208.64 128.99 195.69 C 131.12 185.90 133.29 161.90 133.89 141.50 C 134.27 128.37 134.87 120.57 135.50 120.68 C 136.05 120.78 137.04 127.53 137.70 135.68 C 139.10 153.06 140.22 161.44 143.15 176.66 C 145.30 187.82 145.30 187.82 142.09 195.79 C 136.04 210.79 126.77 224.98 114.72 237.66 C 110.86 241.72 107.98 245.31 108.30 245.64 C 110.04 247.38 125.15 238.94 135.16 230.63 C 138.82 227.60 144.22 221.96 147.16 218.11 C 150.10 214.26 152.77 211.09 153.09 211.06 C 153.42 211.02 154.88 214.04 156.34 217.76 C 159.88 226.79 167.09 238.96 171.89 244.00 C 175.88 248.20 177.92 248.55 183.07 245.92 Z  M 152.62 150.31 C 150.81 144.85 146.00 123.92 146.00 121.56 C 146.00 120.32 147.23 120.00 152.00 120.00 C 158.00 120.00 158.00 120.00 157.99 127.25 C 157.99 133.90 155.53 153.80 154.60 154.73 C 154.38 154.95 153.49 152.96 152.62 150.31 Z  M 45.33 132.57 C 45.64 131.79 46.18 129.58 46.53 127.67 C 47.09 124.69 46.88 124.10 45.03 123.51 C 43.01 122.87 43.21 122.47 47.99 117.42 C 50.81 114.44 54.24 109.53 55.63 106.50 C 57.57 102.26 58.64 101.01 60.32 101.03 C 63.80 101.08 66.00 103.39 66.00 106.98 C 66.00 110.25 66.00 110.25 71.52 109.79 C 76.59 109.37 77.09 109.52 77.61 111.57 C 77.92 112.81 77.68 114.73 77.09 115.84 C 76.49 116.96 76.00 119.67 76.00 121.88 C 76.00 126.53 78.57 128.99 83.47 129.02 C 88.30 129.04 89.57 130.40 86.59 132.35 C 83.07 134.66 44.45 134.87 45.33 132.57 Z  M 134.00 83.00 C 134.00 63.00 134.00 63.00 137.50 63.00 C 141.00 63.00 141.00 63.00 141.00 83.00 C 141.00 103.00 141.00 103.00 137.50 103.00 C 134.00 103.00 134.00 103.00 134.00 83.00 Z  M 80.82 83.55 C 80.60 72.20 80.12 66.71 79.26 65.86 C 78.59 65.18 75.34 64.44 72.05 64.20 C 66.07 63.76 66.07 63.76 65.78 75.63 C 65.50 87.50 65.50 87.50 62.59 87.83 C 59.69 88.16 59.69 88.16 60.29 74.14 C 60.85 61.02 60.75 59.96 58.83 57.51 C 57.02 55.21 56.17 54.94 51.64 55.20 C 46.50 55.50 46.50 55.50 45.77 61.00 C 45.36 64.03 44.69 71.22 44.27 77.00 C 43.55 86.86 43.36 87.52 41.25 87.82 C 39.05 88.13 39.00 87.94 39.00 78.20 C 39.00 69.85 38.69 67.87 37.04 65.78 C 35.08 63.29 35.08 63.29 39.29 57.15 C 43.50 51.01 43.50 51.01 64.75 51.00 C 86.00 51.00 86.00 51.00 86.00 73.92 C 86.00 86.52 85.73 97.55 85.39 98.42 C 85.06 99.29 83.96 100.00 82.96 100.00 C 81.28 100.00 81.11 98.69 80.82 83.55 Z "/>
</g>
</svg>