<?xml version="1.0" encoding="UTF-8" standalone="no"?>
<!DOCTYPE svg PUBLIC "-//W3C//DTD SVG 1.1//EN" "http://www.w3.org/Graphics/SVG/1.1/DTD/svg11.dtd" >
<svg xmlns="http://www.w3.org/2000/svg" xmlns:xlink="http://www.w3.org/1999/xlink" version="1.1" viewBox="0 0 204 256">
 <g >
 <path fill="currentColor"
d=" M 107.25 245.93 C 115.92 244.58 119.30 242.25 120.38 236.86 C 120.72 235.15 121.00 227.51 121.00 219.88 C 121.00 206.00 121.00 206.00 153.89 206.00 C 191.60 206.00 190.77 206.18 191.72 197.78 C 192.13 194.14 191.78 192.38 190.10 189.66 C 187.46 185.39 180.52 179.00 178.52 179.00 C 176.27 179.00 168.80 182.12 166.12 184.17 C 163.98 185.81 161.52 186.00 142.37 186.00 C 121.00 186.00 121.00 186.00 121.00 173.50 C 121.00 161.00 121.00 161.00 145.93 161.00 C 170.85 161.00 170.85 161.00 172.93 158.37 C 178.71 151.02 171.83 136.92 161.05 134.01 C 156.53 132.80 153.97 133.56 147.90 137.95 C 143.81 140.92 143.41 141.00 132.35 141.00 C 121.00 141.00 121.00 141.00 121.00 131.07 C 121.00 125.60 120.57 120.00 120.04 118.62 C 118.66 114.97 114.95 112.95 106.75 111.38 C 94.94 109.13 96.00 107.74 96.00 125.50 C 96.00 141.00 96.00 141.00 79.46 141.00 C 64.02 141.00 62.99 140.88 63.87 139.25 C 64.39 138.29 66.03 136.38 67.52 135.00 C 71.35 131.47 81.89 117.82 87.42 109.25 C 92.10 102.00 92.10 102.00 135.46 102.00 C 178.82 102.00 178.82 102.00 181.52 98.80 C 183.90 95.96 184.16 94.96 183.76 90.09 C 183.34 85.04 182.92 84.25 178.55 80.30 C 172.58 74.89 168.58 74.61 160.34 79.00 C 154.72 82.00 154.72 82.00 128.36 82.00 C 113.86 82.00 102.00 81.84 102.00 81.64 C 102.00 81.44 103.57 77.05 105.50 71.89 C 109.11 62.19 109.95 55.04 107.71 53.18 C 106.57 52.23 89.25 48.00 86.50 48.00 C 85.91 48.00 84.87 50.05 84.20 52.56 C 82.83 57.65 74.22 78.81 72.72 80.75 C 71.99 81.69 65.28 82.00 45.31 82.00 C 20.60 82.00 18.90 82.11 19.38 83.75 C 19.66 84.71 20.19 87.30 20.56 89.50 C 20.92 91.70 22.32 95.41 23.65 97.75 C 26.08 102.00 26.08 102.00 44.54 102.00 C 56.54 102.00 63.00 102.36 63.00 103.03 C 63.00 106.09 45.92 131.63 38.18 140.13 C 32.73 146.13 31.00 148.95 31.00 151.81 C 31.00 154.64 39.30 164.89 44.25 168.17 C 50.48 172.31 53.15 171.92 59.43 165.97 C 64.75 160.95 64.75 160.95 80.12 161.22 C 95.50 161.50 95.50 161.50 95.78 173.75 C 96.06 186.00 96.06 186.00 55.03 186.00 C 32.46 186.00 14.00 186.11 14.00 186.25 C 14.00 186.39 14.68 190.10 15.51 194.50 C 17.84 206.86 14.62 206.00 58.61 206.00 C 96.00 206.00 96.00 206.00 96.00 227.07 C 96.00 246.66 96.12 248.10 97.75 247.63 C 98.71 247.35 102.99 246.59 107.25 245.93 Z  M 35.96 65.24 C 36.91 61.84 38.41 53.70 39.62 45.25 C 40.09 42.00 40.09 42.00 97.56 42.00 C 155.02 42.00 155.02 42.00 150.56 50.75 C 148.11 55.56 145.19 60.85 144.06 62.50 C 141.61 66.10 141.50 67.00 143.53 67.00 C 146.88 67.00 170.59 52.66 173.89 48.65 C 174.65 47.73 178.33 45.36 182.06 43.40 C 190.11 39.17 191.91 37.37 192.61 32.87 C 193.27 28.60 190.03 23.60 181.86 16.25 C 174.20 9.37 171.47 9.25 164.34 15.48 C 161.52 17.95 158.01 20.43 156.54 20.98 C 154.85 21.63 132.90 22.00 96.43 22.00 C 39.00 22.00 39.00 22.00 38.99 17.75 C 38.97 11.73 38.04 9.00 36.02 9.00 C 34.73 9.00 33.15 11.82 30.00 19.75 C 24.08 34.65 18.93 45.24 13.47 53.74 C 10.92 57.72 9.01 61.52 9.23 62.18 C 9.86 64.07 31.18 70.89 33.21 69.85 C 34.14 69.37 35.38 67.29 35.96 65.24 Z "/>
</g>
</svg>