<?xml version="1.0" encoding="UTF-8" standalone="no"?>
<!DOCTYPE svg PUBLIC "-//W3C//DTD SVG 1.1//EN" "http://www.w3.org/Graphics/SVG/1.1/DTD/svg11.dtd" >
<svg xmlns="http://www.w3.org/2000/svg" xmlns:xlink="http://www.w3.org/1999/xlink" version="1.1" viewBox="0 0 204 256">
 <g >
 <path fill="currentColor"
d=" M 182.72 236.30 C 188.59 231.62 189.99 229.97 189.99 227.73 C 190.01 221.60 175.58 210.71 158.00 203.58 C 142.83 197.43 141.61 197.67 147.16 205.73 C 153.76 215.33 163.97 233.40 165.58 238.34 C 168.04 245.88 168.66 246.41 172.36 244.07 C 174.06 242.99 178.73 239.50 182.72 236.30 Z  M 29.50 243.45 C 32.25 243.11 35.29 242.61 36.25 242.35 C 40.17 241.26 40.48 238.68 41.00 202.62 C 41.50 167.74 41.50 167.74 46.00 171.19 C 50.81 174.87 50.87 175.11 49.44 184.61 C 48.89 188.25 49.12 188.95 51.54 190.86 C 54.75 193.38 60.45 193.68 65.47 191.58 C 75.37 187.44 81.54 167.51 79.04 147.69 C 76.83 130.14 70.75 116.46 59.91 104.66 C 54.33 98.58 54.33 98.58 59.12 91.52 C 65.39 82.27 71.14 69.16 75.37 54.46 C 78.13 44.85 79.36 42.07 81.81 39.88 C 83.48 38.39 85.58 36.04 86.49 34.66 C 87.96 32.41 87.98 31.86 86.64 29.33 C 84.94 26.08 76.55 17.77 73.32 16.12 C 68.91 13.86 65.65 14.76 61.00 19.50 C 56.58 24.00 56.58 24.00 48.75 24.00 C 42.55 24.00 40.35 23.59 38.21 22.04 C 35.16 19.82 28.37 18.06 22.75 18.02 C 19.00 18.00 19.00 18.00 19.00 131.58 C 19.00 245.16 19.00 245.16 21.75 244.62 C 23.26 244.32 26.75 243.80 29.50 243.45 Z  M 84.00 238.79 C 100.66 233.48 112.49 226.60 123.75 215.69 C 129.82 209.80 131.00 208.13 131.00 205.41 C 131.00 202.38 130.41 201.82 122.38 197.16 C 117.64 194.41 113.20 192.37 112.51 192.63 C 111.82 192.90 108.89 196.75 105.99 201.20 C 99.54 211.10 90.54 220.69 76.66 232.43 C 70.86 237.35 66.36 241.77 66.67 242.27 C 67.42 243.48 72.51 242.46 84.00 238.79 Z  M 170.47 199.05 C 177.02 197.68 179.92 196.58 181.22 194.98 C 182.86 192.95 183.00 189.65 183.00 153.29 C 183.00 113.79 183.00 113.79 187.50 108.79 C 189.97 106.04 192.00 102.87 192.00 101.76 C 192.00 97.00 184.45 89.38 174.51 84.11 C 172.32 82.95 171.17 82.00 171.95 82.00 C 172.73 82.00 174.41 81.02 175.69 79.83 C 177.91 77.73 178.00 77.06 178.00 62.20 C 178.00 46.74 178.00 46.74 182.50 42.55 C 188.05 37.39 188.52 33.38 184.25 27.69 C 180.16 22.23 171.38 16.00 167.78 16.00 C 164.92 16.00 155.00 22.15 155.00 23.92 C 155.00 26.14 148.84 27.00 133.00 27.00 C 116.57 27.00 116.02 26.93 113.73 24.64 C 112.24 23.15 109.65 22.05 106.69 21.64 C 91.37 19.55 93.00 15.95 93.00 51.89 C 93.00 76.91 93.28 84.00 94.25 84.00 C 97.93 84.00 110.33 81.01 112.46 79.62 C 114.53 78.26 118.20 78.00 134.96 78.00 C 155.00 78.00 155.00 78.00 155.00 81.14 C 155.00 84.29 155.00 84.29 162.25 83.62 C 169.50 82.96 169.50 82.96 166.08 85.23 C 164.20 86.48 161.35 88.74 159.76 90.25 C 156.85 93.00 156.85 93.00 132.38 93.00 C 108.59 93.00 107.84 92.94 104.88 90.75 C 102.48 88.98 100.19 88.43 93.92 88.15 C 86.00 87.79 86.00 87.79 86.00 143.96 C 86.00 196.98 86.10 200.11 87.75 199.66 C 88.71 199.39 92.54 198.64 96.26 197.97 C 103.64 196.66 107.69 194.20 108.18 190.73 C 108.50 188.50 108.50 188.50 134.25 188.23 C 160.00 187.97 160.00 187.97 160.00 194.48 C 160.00 198.07 160.34 200.98 160.75 200.96 C 161.16 200.94 165.54 200.08 170.47 199.05 Z  M 41.67 164.33 C 41.30 163.97 41.00 136.52 41.00 103.33 C 41.00 43.00 41.00 43.00 49.00 43.00 C 53.40 43.00 57.00 43.43 57.00 43.95 C 57.00 49.41 49.66 93.67 48.58 94.76 C 48.35 94.98 47.19 94.64 46.00 94.00 C 42.55 92.15 42.56 93.50 46.05 98.58 C 52.52 107.98 56.26 124.07 57.55 148.11 C 58.47 165.25 58.58 165.00 49.60 165.00 C 45.60 165.00 42.03 164.70 41.67 164.33 Z  M 109.00 166.50 C 109.00 161.00 109.00 161.00 134.50 161.00 C 160.00 161.00 160.00 161.00 160.00 166.50 C 160.00 172.00 160.00 172.00 134.50 172.00 C 109.00 172.00 109.00 172.00 109.00 166.50 Z  M 109.00 141.00 C 109.00 136.00 109.00 136.00 134.50 136.00 C 160.00 136.00 160.00 136.00 160.00 141.00 C 160.00 146.00 160.00 146.00 134.50 146.00 C 109.00 146.00 109.00 146.00 109.00 141.00 Z  M 109.00 114.50 C 109.00 109.00 109.00 109.00 134.50 109.00 C 160.00 109.00 160.00 109.00 160.00 114.50 C 160.00 120.00 160.00 120.00 134.50 120.00 C 109.00 120.00 109.00 120.00 109.00 114.50 Z  M 117.00 52.50 C 117.00 43.00 117.00 43.00 136.00 43.00 C 155.00 43.00 155.00 43.00 155.00 52.50 C 155.00 62.00 155.00 62.00 136.00 62.00 C 117.00 62.00 117.00 62.00 117.00 52.50 Z "/>
</g>
</svg>