<?xml version="1.0" encoding="UTF-8" standalone="no"?>
<!DOCTYPE svg PUBLIC "-//W3C//DTD SVG 1.1//EN" "http://www.w3.org/Graphics/SVG/1.1/DTD/svg11.dtd" >
<svg xmlns="http://www.w3.org/2000/svg" xmlns:xlink="http://www.w3.org/1999/xlink" version="1.1" viewBox="0 0 204 256">
 <g >
 <path fill="currentColor"
d=" M 54.50 248.42 C 59.96 247.48 63.65 245.47 65.74 242.28 C 67.28 239.92 67.56 236.07 68.00 211.05 C 68.50 182.50 68.50 182.50 72.21 193.50 C 74.26 199.55 76.21 206.16 76.57 208.20 C 76.92 210.23 77.74 212.64 78.41 213.54 C 79.51 215.04 79.93 215.05 83.28 213.65 C 85.30 212.81 89.21 210.01 91.97 207.43 C 96.98 202.74 96.98 202.74 93.78 196.62 C 90.20 189.79 80.03 179.08 72.75 174.50 C 68.97 172.11 68.00 170.94 68.00 168.75 C 68.00 166.00 68.00 166.00 80.25 165.97 C 93.49 165.93 95.14 165.40 96.97 160.57 C 98.89 155.54 94.88 146.19 88.93 141.78 C 85.64 139.35 82.42 140.09 76.76 144.60 C 74.41 146.46 71.49 147.98 70.25 147.99 C 68.08 148.00 68.00 147.68 68.00 138.67 C 68.00 129.34 68.00 129.34 78.54 127.13 C 92.19 124.27 94.00 123.54 94.00 120.95 C 94.00 119.79 91.86 116.09 89.25 112.72 C 86.64 109.35 84.00 105.94 83.39 105.14 C 82.45 103.89 80.59 104.43 70.89 108.73 C 56.48 115.12 46.50 118.25 29.78 121.64 C 16.10 124.41 13.45 125.42 15.91 126.94 C 18.08 128.29 31.32 130.00 39.54 130.00 C 47.00 130.00 47.00 130.00 47.00 139.00 C 47.00 148.00 47.00 148.00 31.50 148.00 C 22.97 148.00 16.00 148.27 16.00 148.61 C 16.00 151.60 19.60 161.97 21.26 163.75 C 23.20 165.84 24.20 166.00 35.17 166.00 C 47.00 166.00 47.00 166.00 47.00 170.11 C 47.00 174.22 47.00 174.22 43.50 173.61 C 31.96 171.60 33.31 171.18 32.13 177.16 C 31.55 180.10 30.33 186.98 29.43 192.45 C 27.49 204.18 24.37 213.90 18.44 226.69 C 16.06 231.81 14.53 236.00 15.03 236.00 C 16.47 236.00 28.88 225.00 35.39 217.95 C 38.63 214.45 42.57 208.86 44.14 205.54 C 47.00 199.50 47.00 199.50 47.00 224.82 C 47.00 248.46 47.12 250.10 48.75 249.62 C 49.71 249.34 52.30 248.80 54.50 248.42 Z  M 176.03 246.32 C 182.96 241.61 190.00 234.67 190.00 232.54 C 190.00 227.66 172.71 214.67 157.39 208.05 C 148.54 204.22 148.50 204.19 148.84 200.85 C 149.02 199.01 149.38 177.46 149.64 152.97 C 150.09 108.44 150.09 108.44 147.50 106.00 C 145.38 104.01 143.62 103.49 137.95 103.17 C 131.00 102.77 131.00 102.77 131.00 146.23 C 131.00 186.25 130.84 190.29 129.02 197.41 C 127.93 201.67 125.80 207.47 124.27 210.30 C 119.01 220.08 103.25 234.86 90.18 242.26 C 82.71 246.49 84.75 247.61 95.11 244.98 C 117.79 239.21 132.92 229.66 141.97 215.38 C 144.78 210.95 144.78 210.95 152.14 218.88 C 156.19 223.24 161.71 230.56 164.42 235.15 C 171.98 247.97 172.00 248.00 172.80 248.00 C 173.22 248.00 174.67 247.24 176.03 246.32 Z  M 109.31 197.04 C 112.48 196.38 116.29 194.79 117.79 193.51 C 120.50 191.17 120.50 191.17 120.79 141.59 C 121.07 92.00 121.07 92.00 141.04 92.00 C 161.00 92.00 161.00 92.00 161.00 145.61 C 161.00 199.22 161.00 199.22 163.25 198.69 C 164.49 198.41 168.20 197.61 171.50 196.93 C 174.80 196.24 178.51 194.77 179.75 193.67 C 182.00 191.65 182.00 191.65 182.00 141.49 C 182.00 91.33 182.00 91.33 186.00 87.12 C 188.20 84.81 190.00 81.96 190.00 80.79 C 190.00 79.49 187.34 75.99 183.17 71.83 C 174.27 62.93 172.38 62.79 164.00 70.50 C 158.02 76.00 158.02 76.00 147.51 76.00 C 141.73 76.00 137.00 75.83 137.00 75.61 C 137.00 75.40 138.77 72.58 140.93 69.34 C 144.95 63.33 150.00 50.13 150.00 45.65 C 150.00 43.16 150.00 43.16 168.08 42.83 C 184.61 42.53 186.29 42.33 187.58 40.56 C 191.28 35.50 187.38 25.87 179.73 21.14 C 175.29 18.40 171.37 18.43 167.08 21.25 C 165.20 22.49 162.72 24.06 161.58 24.74 C 160.05 25.65 151.03 25.97 127.25 25.99 C 109.51 25.99 95.00 26.31 95.00 26.68 C 95.00 27.05 96.01 30.48 97.23 34.29 C 98.91 39.50 100.05 41.45 101.80 42.11 C 103.08 42.60 109.50 43.00 116.07 43.00 C 128.00 43.00 128.00 43.00 128.00 47.37 C 128.00 53.28 125.31 68.32 123.46 72.74 C 121.96 76.34 121.96 76.34 119.23 73.79 C 115.36 70.19 113.28 69.30 106.75 68.49 C 101.00 67.77 101.00 67.77 101.00 133.49 C 101.00 186.36 101.25 199.12 102.28 198.72 C 102.98 198.46 106.14 197.70 109.31 197.04 Z  M 81.90 98.44 C 84.80 97.58 88.77 95.41 90.72 93.62 C 93.75 90.84 94.27 89.72 94.27 86.00 C 94.27 81.08 91.60 78.00 87.34 78.00 C 84.07 78.00 81.05 71.43 81.02 64.25 C 81.01 61.36 80.59 59.00 80.08 59.00 C 79.58 59.00 78.66 61.36 78.04 64.25 C 76.49 71.55 73.42 77.49 70.53 78.81 C 66.84 80.48 58.67 81.33 53.55 80.56 C 49.81 80.00 48.70 79.33 47.42 76.84 C 46.56 75.18 46.00 73.74 46.18 73.64 C 46.35 73.55 48.98 72.30 52.00 70.87 C 63.20 65.57 74.52 53.82 82.08 39.69 C 86.52 31.38 85.91 30.06 75.86 26.13 C 71.36 24.37 67.32 23.28 66.89 23.71 C 66.46 24.15 64.69 28.55 62.94 33.50 C 59.05 44.53 55.04 52.65 49.62 60.41 C 45.50 66.31 45.50 66.31 45.00 47.91 C 44.67 35.94 44.07 28.74 43.26 27.33 C 41.83 24.83 37.90 23.43 29.75 22.51 C 24.00 21.86 24.00 21.86 24.00 49.22 C 24.00 78.84 24.78 85.00 29.46 92.11 C 30.77 94.09 33.79 96.67 36.17 97.85 C 40.11 99.81 42.11 100.00 58.57 100.00 C 72.05 100.00 77.97 99.60 81.90 98.44 Z "/>
</g>
</svg>