<?xml version="1.0" encoding="UTF-8" standalone="no"?>
<!DOCTYPE svg PUBLIC "-//W3C//DTD SVG 1.1//EN" "http://www.w3.org/Graphics/SVG/1.1/DTD/svg11.dtd" >
<svg xmlns="http://www.w3.org/2000/svg" xmlns:xlink="http://www.w3.org/1999/xlink" version="1.1" viewBox="0 0 256 256">
 <g >
 <path fill="currentColor"
d=" M 188.05 219.20 C 194.94 208.98 195.00 208.84 195.00 202.17 C 195.00 196.58 195.57 194.26 198.36 188.47 C 200.27 184.53 203.01 180.57 204.69 179.35 C 207.14 177.57 207.94 175.88 209.35 169.47 C 210.99 161.98 213.61 126.27 212.59 125.25 C 212.31 124.97 205.99 126.89 198.54 129.50 C 185.00 134.26 185.00 134.26 185.00 143.12 C 185.00 154.71 180.03 180.22 176.16 188.47 C 174.26 192.52 169.80 198.36 162.60 206.24 C 152.97 216.76 152.00 218.16 153.18 219.80 C 153.91 220.81 158.29 226.20 162.93 231.77 C 171.35 241.91 171.35 241.91 176.22 235.70 C 178.90 232.29 184.22 224.86 188.05 219.20 Z  M 136.19 232.00 C 146.47 217.13 149.65 209.25 152.52 191.50 C 153.91 182.92 154.76 180.12 156.40 178.77 C 159.32 176.37 160.32 176.58 159.61 179.43 C 159.04 181.70 159.36 181.93 164.75 183.01 C 167.91 183.65 171.45 184.39 172.61 184.66 C 175.42 185.31 175.62 184.60 177.05 168.88 C 178.08 157.47 178.02 153.52 176.65 142.00 C 175.77 134.57 174.29 125.88 173.36 122.68 C 171.88 117.54 171.43 116.93 169.52 117.41 C 164.78 118.59 156.00 123.23 156.00 124.54 C 156.00 125.30 157.12 129.43 158.49 133.71 C 159.86 138.00 160.98 143.54 160.99 146.03 C 161.00 150.02 160.64 150.78 158.00 152.34 C 155.00 154.11 155.00 154.11 154.92 140.81 C 154.88 133.49 154.53 123.75 154.15 119.17 C 153.77 114.59 153.82 110.61 154.27 110.33 C 154.72 110.05 159.58 109.02 165.07 108.04 C 175.05 106.24 175.05 106.24 174.44 109.47 C 173.86 112.57 174.20 112.99 182.48 119.46 C 187.24 123.17 191.21 126.05 191.31 125.85 C 191.42 125.66 193.66 121.14 196.30 115.81 C 200.82 106.68 201.36 106.03 205.60 104.41 C 212.01 101.96 213.11 103.38 210.11 110.25 C 206.24 119.10 205.58 118.31 218.58 120.32 C 225.01 121.31 230.63 121.76 231.06 121.31 C 232.60 119.71 239.11 96.37 239.68 90.42 C 240.38 83.09 238.51 78.32 233.85 75.57 C 230.69 73.70 225.92 73.72 213.12 75.64 C 208.73 76.30 208.73 76.30 209.42 69.40 C 209.80 65.60 210.34 61.13 210.63 59.46 C 211.15 56.41 211.15 56.41 200.32 54.70 C 194.37 53.75 188.94 52.98 188.25 52.99 C 187.34 53.00 187.00 55.54 187.00 62.34 C 187.00 71.45 185.00 82.12 181.83 89.88 C 180.51 93.12 180.46 92.92 180.83 85.63 C 181.22 78.03 181.21 78.00 178.69 78.00 C 177.29 78.00 174.88 79.03 173.33 80.29 C 171.77 81.55 169.28 83.35 167.79 84.29 C 164.22 86.53 154.82 86.58 151.46 84.38 C 149.36 83.01 148.53 82.95 145.92 84.03 C 144.23 84.73 142.17 86.34 141.34 87.60 C 139.07 91.07 132.01 93.40 126.26 92.58 C 123.64 92.20 120.61 91.81 119.52 91.70 C 118.43 91.59 116.86 90.30 116.02 88.83 C 115.18 87.36 113.67 84.72 112.66 82.95 C 109.95 78.24 110.20 72.13 113.34 66.12 C 114.80 63.32 116.00 60.00 116.00 58.73 C 116.00 56.54 116.64 56.32 128.25 54.61 C 159.41 50.01 172.69 48.92 204.75 48.32 C 222.49 47.98 237.00 47.62 237.00 47.51 C 237.00 47.40 238.35 40.64 240.00 32.49 C 241.65 24.34 242.79 17.46 242.54 17.21 C 241.96 16.63 201.71 19.44 172.50 22.10 C 154.82 23.71 135.94 25.99 113.05 29.29 C 112.08 29.43 111.31 28.03 110.70 25.00 C 110.21 22.52 109.64 20.34 109.45 20.13 C 109.26 19.93 102.96 21.28 95.46 23.12 C 81.82 26.47 81.82 26.47 82.48 30.48 C 88.73 68.30 90.66 98.65 88.99 133.00 C 86.87 176.72 85.05 188.30 77.14 208.48 C 74.34 215.62 72.38 221.76 72.78 222.13 C 73.39 222.70 78.82 225.09 96.62 232.60 C 99.74 233.92 99.74 233.92 104.45 221.82 C 107.03 215.17 109.76 206.52 110.50 202.61 C 111.99 194.78 114.34 168.35 116.02 140.50 C 116.62 130.60 117.30 121.54 117.54 120.38 C 118.02 118.03 120.60 116.74 129.30 114.50 C 138.75 112.06 138.01 110.53 137.93 132.25 C 137.89 142.84 137.53 153.53 137.14 156.00 C 136.49 160.14 136.33 160.33 135.24 158.37 C 134.35 156.76 134.31 153.66 135.09 145.87 C 135.65 140.17 136.20 133.31 136.31 130.64 C 136.50 125.79 136.50 125.79 130.18 123.19 C 124.82 120.98 123.73 120.81 122.96 122.05 C 121.36 124.61 120.12 133.11 119.03 149.02 C 118.12 162.32 118.19 165.29 119.53 169.78 C 121.51 176.44 125.76 181.31 130.95 182.87 C 133.18 183.53 135.00 184.70 135.00 185.45 C 135.00 187.40 129.36 204.40 127.56 207.89 C 126.73 209.49 123.28 214.29 119.91 218.54 C 113.77 226.27 113.77 226.27 116.67 228.54 C 118.28 229.79 122.04 232.86 125.04 235.36 C 128.04 237.85 130.77 239.58 131.10 239.20 C 131.43 238.81 133.72 235.57 136.19 232.00 Z  M 229.62 222.09 C 234.07 220.07 238.04 215.54 240.47 209.73 C 245.08 198.69 238.38 184.29 227.05 180.90 C 214.85 177.24 204.18 186.05 202.40 201.25 C 200.50 217.42 215.17 228.65 229.62 222.09 Z  M 42.44 194.54 C 68.26 189.60 78.43 174.44 80.97 137.13 C 82.89 109.00 82.04 83.88 78.46 62.50 C 74.96 41.62 65.57 33.58 52.40 40.16 C 48.09 42.31 48.09 42.31 37.42 37.67 C 31.55 35.12 26.39 33.26 25.95 33.53 C 25.52 33.80 24.02 37.50 22.62 41.76 C 14.68 66.03 11.99 86.25 12.02 121.74 C 12.03 140.76 12.44 150.38 13.43 155.00 C 14.97 162.19 20.82 181.10 21.86 182.21 C 22.22 182.59 25.58 181.13 29.33 178.96 C 33.08 176.78 36.50 175.00 36.93 175.00 C 37.36 175.00 36.67 179.39 35.39 184.75 C 34.11 190.11 33.04 194.84 33.03 195.25 C 32.99 196.27 33.68 196.22 42.44 194.54 Z  M 135.85 86.57 C 137.37 85.79 139.15 83.97 139.81 82.53 C 141.52 78.76 141.31 69.89 139.44 67.22 C 134.49 60.14 120.46 60.30 117.19 67.47 C 114.40 73.59 116.42 83.08 121.22 86.44 C 124.02 88.40 132.18 88.48 135.85 86.57 Z  M 165.89 80.89 C 169.69 79.56 173.00 73.80 173.00 68.50 C 173.00 64.25 169.78 57.49 167.06 56.03 C 164.43 54.62 157.04 54.76 154.05 56.27 C 148.31 59.17 145.87 69.98 149.40 76.81 C 151.08 80.06 152.80 80.78 161.60 81.86 C 162.21 81.94 164.13 81.50 165.89 80.89 Z  M 223.27 216.62 C 227.39 212.81 227.09 206.90 222.49 201.11 C 218.27 195.80 217.78 190.97 221.22 188.56 C 224.45 186.30 226.50 186.62 230.34 190.00 C 234.96 194.05 236.33 197.79 235.81 204.96 C 235.24 212.86 232.02 216.39 223.52 218.44 C 220.54 219.15 220.54 219.15 223.27 216.62 Z  M 43.63 151.75 C 42.22 144.29 41.85 136.03 41.69 109.00 C 41.50 75.50 41.50 75.50 43.91 71.30 C 48.36 63.52 50.39 64.87 52.70 77.19 C 53.91 83.63 54.23 91.86 54.12 113.82 C 53.94 147.50 53.24 154.10 49.37 158.14 C 47.86 159.71 46.34 161.00 46.00 161.00 C 45.65 161.00 44.58 156.84 43.63 151.75 Z  M 127.44 81.78 C 129.46 78.90 129.42 76.12 127.32 73.80 C 126.03 72.37 125.85 71.32 126.57 69.30 C 127.86 65.65 129.24 65.49 132.87 68.55 C 138.97 73.68 135.31 84.00 127.40 84.00 C 126.06 84.00 126.07 83.74 127.44 81.78 Z  M 159.35 75.17 C 161.42 72.88 161.46 70.62 159.45 68.95 C 156.73 66.70 155.93 64.31 156.98 61.57 C 158.16 58.44 160.79 58.26 164.37 61.07 C 169.78 65.33 166.50 77.00 159.89 77.00 C 157.82 77.00 157.79 76.89 159.35 75.17 Z "/>
</g>
</svg>