<?xml version="1.0" encoding="UTF-8" standalone="no"?>
<!DOCTYPE svg PUBLIC "-//W3C//DTD SVG 1.1//EN" "http://www.w3.org/Graphics/SVG/1.1/DTD/svg11.dtd" >
<svg xmlns="http://www.w3.org/2000/svg" xmlns:xlink="http://www.w3.org/1999/xlink" version="1.1" viewBox="0 0 256 256">
 <g >
 <path fill="currentColor"
d=" M 70.48 242.98 C 85.77 234.96 85.77 234.96 83.40 227.28 C 82.10 223.06 79.70 215.75 78.08 211.05 C 71.39 191.72 73.31 170.81 84.46 141.45 C 86.95 134.88 89.00 129.20 89.00 128.84 C 89.00 128.47 85.66 127.38 81.58 126.42 C 74.16 124.67 74.16 124.67 77.92 120.09 C 83.57 113.20 97.27 91.24 96.60 90.16 C 95.93 89.08 72.30 72.05 70.53 71.37 C 69.90 71.13 67.01 75.24 64.10 80.51 C 61.19 85.77 56.10 93.78 52.78 98.29 C 44.73 109.24 28.58 125.01 17.30 132.94 C 8.13 139.37 8.13 139.37 9.64 142.94 C 10.47 144.90 13.41 151.90 16.18 158.50 C 23.37 175.64 22.49 174.50 26.30 171.80 C 28.06 170.55 32.99 166.72 37.25 163.29 C 41.51 159.85 45.00 157.38 45.00 157.79 C 45.00 158.21 43.59 162.14 41.86 166.52 C 38.97 173.85 38.68 175.69 38.25 189.00 C 37.75 204.71 39.22 216.71 43.08 228.31 C 45.88 236.75 52.82 251.00 54.12 251.00 C 54.70 251.00 62.06 247.39 70.48 242.98 Z  M 134.61 231.62 C 152.89 227.76 170.32 226.69 206.71 227.20 C 238.92 227.64 238.92 227.64 239.47 225.07 C 241.53 215.37 244.86 194.53 244.42 194.09 C 244.12 193.79 229.59 193.53 212.13 193.52 C 180.39 193.50 180.39 193.50 181.64 186.50 C 182.33 182.65 182.92 175.14 182.95 169.81 C 183.00 160.12 183.00 160.12 187.66 159.42 C 190.22 159.04 199.20 159.04 207.62 159.43 C 222.93 160.13 222.93 160.13 223.46 157.81 C 224.12 154.90 229.00 127.41 229.00 126.60 C 229.00 126.27 219.35 126.00 207.57 126.00 C 188.44 126.00 184.26 126.32 168.82 128.94 C 149.17 132.27 138.68 135.12 122.66 141.46 C 103.75 148.95 101.78 149.96 102.46 151.83 C 107.50 165.60 113.72 179.91 114.50 179.57 C 115.05 179.33 120.45 176.91 126.50 174.19 C 132.55 171.48 140.15 168.28 143.39 167.09 C 149.28 164.92 149.28 164.92 148.61 171.71 C 147.26 185.32 144.76 196.94 143.09 197.44 C 142.22 197.69 135.26 199.31 127.64 201.04 C 113.38 204.26 92.16 210.55 90.64 212.00 C 89.90 212.71 96.76 235.56 99.06 240.05 C 99.76 241.40 101.34 241.12 111.22 237.88 C 117.47 235.84 128.00 233.02 134.61 231.62 Z  M 121.06 131.40 C 146.23 122.65 154.33 118.56 168.50 107.49 C 179.77 98.68 180.51 97.66 181.73 89.32 C 184.13 73.02 192.09 63.65 204.76 62.22 C 208.64 61.78 209.32 61.30 211.21 57.61 C 212.63 54.86 213.47 51.02 213.74 46.00 C 214.46 32.73 209.50 26.66 195.18 23.30 C 190.01 22.09 183.75 21.52 176.00 21.55 C 162.55 21.62 153.86 23.60 136.00 30.69 C 126.51 34.46 107.55 43.27 106.12 44.57 C 105.41 45.23 113.39 78.00 114.26 78.00 C 115.65 78.00 139.74 65.55 147.50 60.83 C 153.45 57.21 155.32 56.57 160.00 56.54 C 164.93 56.50 165.53 56.73 165.81 58.71 C 166.54 63.84 156.17 76.92 146.76 82.73 C 137.99 88.14 130.61 91.25 112.50 97.15 C 103.70 100.01 96.36 102.45 96.20 102.57 C 95.63 102.96 106.45 136.00 107.15 136.00 C 107.54 136.00 113.79 133.93 121.06 131.40 Z  M 222.79 116.09 C 237.48 108.52 241.37 89.47 230.72 77.33 C 219.62 64.69 198.37 66.71 190.96 81.12 C 183.56 95.48 187.79 108.74 202.00 115.77 C 207.87 118.68 217.48 118.82 222.79 116.09 Z  M 27.88 99.82 C 43.99 90.11 63.13 71.86 75.53 54.40 C 83.72 42.88 93.00 28.47 93.00 27.29 C 93.00 26.48 62.05 14.51 61.62 15.16 C 61.50 15.35 58.28 20.22 54.47 26.00 C 50.02 32.73 43.77 40.30 37.02 47.09 C 27.86 56.30 23.96 59.34 8.21 69.56 C 7.85 69.79 23.36 101.85 23.88 101.94 C 24.09 101.97 25.89 101.02 27.88 99.82 Z  M 213.90 109.47 C 218.31 104.44 218.10 100.28 213.00 92.00 C 210.58 88.07 209.00 84.27 209.00 82.38 C 209.00 78.59 212.40 74.00 215.20 74.00 C 218.37 74.00 223.43 77.57 226.45 81.93 C 232.64 90.86 231.78 100.12 224.02 108.17 C 219.88 112.47 218.90 113.00 215.08 113.00 C 210.79 113.00 210.79 113.00 213.90 109.47 Z "/>
</g>
</svg>