<?xml version="1.0" encoding="UTF-8" standalone="no"?>
<!DOCTYPE svg PUBLIC "-//W3C//DTD SVG 1.1//EN" "http://www.w3.org/Graphics/SVG/1.1/DTD/svg11.dtd" >
<svg xmlns="http://www.w3.org/2000/svg" xmlns:xlink="http://www.w3.org/1999/xlink" version="1.1" viewBox="0 0 256 256">
 <g >
 <path fill="currentColor"
d=" M 123.50 234.94 C 153.04 227.59 173.12 225.10 224.18 222.43 C 236.86 221.77 236.86 221.77 237.42 218.13 C 238.74 209.58 241.02 188.69 240.68 188.34 C 240.47 188.14 235.17 188.42 228.90 188.97 C 222.63 189.53 212.32 189.99 206.00 190.00 C 199.68 190.00 190.27 190.69 185.11 191.53 C 179.95 192.37 175.64 192.93 175.54 192.78 C 174.17 190.69 171.00 180.02 171.00 177.53 C 171.00 174.23 171.00 174.23 178.25 173.59 C 182.24 173.24 193.12 172.51 202.42 171.97 C 211.73 171.43 219.55 170.78 219.80 170.53 C 220.50 169.84 223.15 142.82 222.58 142.25 C 222.30 141.97 210.96 142.25 197.38 142.88 C 183.81 143.51 172.49 143.82 172.24 143.57 C 171.99 143.32 172.73 140.31 173.88 136.88 C 175.04 133.46 175.88 130.55 175.74 130.43 C 175.61 130.31 169.65 129.70 162.50 129.08 C 155.35 128.46 148.24 127.75 146.69 127.49 C 144.23 127.08 143.70 127.48 142.36 130.69 C 141.52 132.70 140.10 137.76 139.21 141.92 C 138.33 146.09 137.17 149.80 136.63 150.16 C 136.10 150.52 133.67 151.12 131.22 151.49 C 125.13 152.40 101.73 158.87 100.66 159.94 C 100.19 160.41 102.17 167.26 105.15 175.40 C 109.30 186.74 110.84 189.88 112.00 189.43 C 115.20 188.20 133.63 183.12 135.99 182.82 C 138.29 182.53 138.53 182.89 139.13 187.50 C 139.49 190.25 140.10 193.74 140.50 195.25 C 140.89 196.76 141.03 198.00 140.80 198.00 C 138.49 198.00 94.16 207.06 88.69 208.65 C 87.18 209.09 87.37 208.31 89.87 203.84 C 95.92 193.00 96.51 189.14 96.41 161.00 C 96.30 131.17 95.72 126.64 88.43 98.76 C 85.44 87.35 83.00 77.61 83.00 77.12 C 83.00 76.63 86.80 71.79 91.46 66.36 C 96.11 60.94 100.44 55.52 101.09 54.32 C 102.15 52.35 101.25 50.84 91.58 38.58 C 80.89 25.02 80.89 25.02 74.89 32.98 C 71.59 37.37 68.40 41.25 67.81 41.62 C 67.21 41.99 64.46 39.65 61.65 36.39 C 53.75 27.24 40.69 13.93 39.89 14.23 C 39.50 14.38 34.45 19.87 28.68 26.44 C 18.19 38.39 18.19 38.39 25.72 46.94 C 29.86 51.65 35.22 58.42 37.64 62.00 C 42.03 68.50 42.03 68.50 38.77 71.28 C 33.54 75.73 26.94 80.23 20.77 83.54 C 15.03 86.61 15.03 86.61 23.16 101.06 C 27.64 109.00 31.43 115.66 31.59 115.86 C 32.08 116.45 42.51 110.20 49.00 105.42 C 52.35 102.96 55.47 101.17 55.93 101.46 C 56.39 101.74 57.07 103.57 57.44 105.52 C 58.06 108.86 57.78 109.35 52.40 114.28 C 43.28 122.64 30.34 132.76 19.85 139.75 C 10.11 146.23 10.11 146.23 18.08 162.16 C 27.21 180.38 23.02 180.78 49.17 159.25 C 56.68 153.06 63.01 148.00 63.23 148.00 C 63.83 148.00 59.24 177.88 57.95 182.38 C 55.36 191.42 42.80 200.31 26.11 204.91 C 22.04 206.03 18.57 207.10 18.39 207.28 C 18.02 207.65 27.50 241.83 28.15 242.48 C 28.86 243.19 46.11 237.05 54.68 233.03 C 64.07 228.63 71.76 223.73 78.30 217.96 C 82.19 214.55 82.93 214.22 83.38 215.73 C 83.67 216.70 85.55 223.12 87.56 230.00 C 89.57 236.88 91.39 242.79 91.60 243.14 C 91.81 243.50 95.48 242.69 99.74 241.36 C 104.01 240.02 114.70 237.13 123.50 234.94 Z  M 136.35 128.50 C 142.47 126.04 155.47 118.50 160.32 114.59 C 163.14 112.31 163.14 112.31 156.34 98.66 C 149.54 85.01 149.54 85.01 143.02 91.39 C 136.01 98.26 132.61 100.49 130.85 99.41 C 130.11 98.95 129.91 95.78 130.25 89.83 C 130.75 80.95 130.75 80.95 125.13 76.01 C 119.50 71.08 119.50 71.08 119.51 64.79 C 119.53 54.72 120.64 51.31 125.45 46.50 C 128.47 43.47 131.51 41.63 135.53 40.36 C 141.46 38.49 142.70 37.05 144.49 29.89 C 145.09 27.49 144.56 27.18 129.43 21.16 C 120.80 17.73 113.62 15.05 113.47 15.21 C 113.33 15.37 111.34 22.02 109.06 29.98 C 102.46 53.08 101.84 58.34 102.19 88.29 C 102.50 114.50 102.50 114.50 105.45 119.82 C 108.84 125.95 112.49 128.88 118.94 130.67 C 124.37 132.17 128.48 131.66 136.35 128.50 Z  M 214.91 122.84 C 230.98 119.73 238.19 112.77 243.81 95.00 C 248.10 81.41 248.98 82.63 233.44 80.55 C 219.18 78.63 218.06 78.80 218.02 82.86 C 217.99 85.49 213.79 91.70 210.87 93.42 C 206.92 95.75 198.04 96.59 195.76 94.84 C 194.77 94.08 193.74 91.49 193.38 88.86 C 192.84 84.81 193.01 84.13 194.73 83.58 C 197.65 82.66 220.27 67.69 229.23 60.76 C 237.90 54.05 238.36 55.90 224.17 40.08 C 219.31 34.65 219.31 34.65 215.52 38.85 C 211.98 42.77 199.26 52.97 197.88 52.99 C 196.68 53.01 200.17 40.38 203.53 32.56 C 205.41 28.19 206.85 24.55 206.72 24.47 C 205.46 23.68 175.66 13.01 175.41 13.26 C 174.63 14.04 166.99 44.06 166.05 50.04 C 164.20 61.89 162.84 94.69 163.96 100.74 C 167.50 119.87 186.88 128.28 214.91 122.84 Z  M 150.81 75.98 C 154.70 73.60 157.95 67.14 157.98 61.71 C 158.00 57.27 155.30 51.53 151.52 48.00 C 149.16 45.80 147.95 45.50 141.50 45.50 C 135.05 45.50 133.84 45.80 131.49 48.00 C 127.41 51.81 126.00 55.34 126.02 61.70 C 126.04 68.36 128.98 74.67 133.02 76.72 C 137.02 78.74 146.95 78.33 150.81 75.98 Z  M 140.83 70.69 C 143.88 67.44 143.59 63.96 140.00 60.81 C 136.68 57.90 136.17 54.97 138.57 52.57 C 141.14 50.00 144.88 50.68 148.60 54.40 C 151.50 57.30 152.00 58.49 152.00 62.48 C 152.00 68.68 148.06 73.00 142.40 73.00 C 138.65 73.00 138.65 73.00 140.83 70.69 Z "/>
</g>
</svg>