<?xml version="1.0" encoding="UTF-8" standalone="no"?>
<!DOCTYPE svg PUBLIC "-//W3C//DTD SVG 1.1//EN" "http://www.w3.org/Graphics/SVG/1.1/DTD/svg11.dtd" >
<svg xmlns="http://www.w3.org/2000/svg" xmlns:xlink="http://www.w3.org/1999/xlink" version="1.1" viewBox="0 0 256 256">
 <g >
 <path fill="currentColor"
d=" M 217.34 238.00 C 226.68 227.91 231.77 214.22 235.93 188.00 C 239.71 164.15 240.31 152.37 239.64 115.50 C 238.73 65.27 236.87 42.59 233.06 35.11 C 227.15 23.53 212.23 17.03 191.50 17.03 C 175.40 17.03 164.77 20.44 144.55 32.06 C 138.87 35.33 134.01 38.00 133.74 38.00 C 133.48 38.00 132.69 35.98 132.00 33.50 C 131.31 31.02 130.56 29.00 130.34 29.00 C 129.15 29.00 100.00 45.49 100.00 46.17 C 100.00 46.61 101.36 51.22 103.02 56.41 C 106.39 66.92 108.39 83.40 109.60 110.50 C 110.29 126.13 110.38 126.58 113.17 130.06 C 116.69 134.44 118.00 138.79 118.00 146.07 C 118.00 154.24 115.62 160.18 110.39 164.99 C 106.20 168.86 105.85 169.59 104.48 177.46 C 102.67 187.84 97.40 203.99 92.43 214.37 C 88.67 222.23 88.67 222.23 84.81 206.37 C 82.69 197.64 80.23 185.62 79.35 179.66 C 77.74 168.82 77.74 168.82 71.97 163.16 C 66.86 158.14 66.13 156.92 65.53 152.38 C 64.18 142.22 67.61 131.88 73.86 127.26 C 76.56 125.26 76.84 124.54 76.72 119.75 C 76.66 116.84 76.92 113.93 77.32 113.30 C 77.71 112.66 81.57 111.83 85.90 111.45 C 90.23 111.07 94.21 110.48 94.75 110.13 C 95.29 109.78 96.37 102.59 97.14 94.15 C 98.56 78.80 98.56 78.80 89.15 79.50 C 79.75 80.21 79.75 80.21 80.45 72.35 C 80.84 68.03 81.53 62.79 81.99 60.69 C 82.90 56.49 82.45 56.09 75.00 54.51 C 68.12 53.05 68.86 52.36 81.70 48.21 C 88.76 45.93 95.20 43.49 96.03 42.78 C 97.26 41.73 97.46 38.96 97.19 27.19 C 96.85 12.87 96.85 12.87 93.67 13.55 C 86.93 14.99 56.09 25.43 43.61 30.50 C 31.75 35.31 13.05 43.62 12.22 44.44 C 11.66 45.00 25.42 72.00 26.26 72.00 C 26.70 72.00 31.57 69.08 37.07 65.50 C 42.58 61.93 47.28 59.00 47.52 59.00 C 47.76 59.00 47.70 60.24 47.40 61.75 C 47.10 63.26 46.55 69.42 46.18 75.44 C 45.50 86.38 45.50 86.38 42.50 87.08 C 10.78 94.48 7.89 95.27 8.33 96.43 C 8.59 97.11 10.70 103.70 13.00 111.08 C 15.31 118.46 17.49 124.82 17.85 125.21 C 18.22 125.60 23.46 124.35 29.50 122.43 C 35.54 120.51 41.08 119.07 41.81 119.22 C 42.68 119.41 41.70 121.53 38.91 125.50 C 32.40 134.75 23.04 150.16 15.05 164.76 C 7.81 178.02 7.81 178.02 15.12 186.26 C 32.73 206.10 30.10 205.44 37.68 191.97 C 41.37 185.42 44.54 180.21 44.72 180.39 C 44.91 180.57 46.16 186.97 47.52 194.61 C 50.38 210.76 56.93 240.22 57.86 241.12 C 58.21 241.46 63.45 240.21 69.50 238.33 C 75.55 236.46 82.78 234.26 85.57 233.44 C 90.46 232.01 90.63 231.85 90.19 228.81 C 89.72 225.67 89.72 225.67 93.11 227.69 C 94.98 228.81 101.70 232.47 108.06 235.83 C 119.62 241.93 119.62 241.93 123.79 230.48 C 126.09 224.18 128.69 215.08 129.58 210.26 C 130.47 205.44 132.03 197.22 133.04 192.00 C 137.92 166.92 138.42 160.23 138.46 119.50 C 138.48 98.05 138.16 76.22 137.75 71.00 C 137.02 61.78 137.04 61.57 138.75 63.95 C 143.88 71.11 142.61 71.22 153.86 62.66 C 159.44 58.41 163.97 55.52 163.94 56.22 C 163.91 56.92 162.86 62.66 161.61 68.96 C 159.34 80.42 159.34 80.42 151.93 82.28 C 147.86 83.31 144.33 84.34 144.09 84.57 C 143.86 84.81 144.94 89.30 146.49 94.55 C 149.31 104.11 149.31 104.11 154.66 103.44 C 159.81 102.79 160.00 102.86 160.00 105.16 C 160.00 107.32 159.16 107.76 151.00 109.89 C 146.05 111.18 142.00 112.75 142.00 113.37 C 142.00 113.99 143.62 119.36 145.60 125.31 C 148.58 134.25 149.50 136.02 150.85 135.46 C 162.39 130.75 175.79 127.95 194.98 126.25 C 203.45 125.50 203.45 125.50 205.16 115.50 C 206.11 110.00 206.90 104.81 206.94 103.97 C 206.99 102.65 205.76 102.57 197.54 103.34 C 186.33 104.41 184.75 104.02 185.18 100.29 C 185.50 97.53 186.11 97.21 194.17 95.55 C 197.19 94.93 197.51 93.90 198.52 81.78 C 199.17 74.06 199.17 74.06 192.58 74.67 C 184.80 75.40 184.80 75.40 188.45 65.33 C 189.80 61.61 190.82 58.50 190.70 58.42 C 190.59 58.33 186.49 57.08 181.60 55.64 C 176.70 54.21 172.52 52.85 172.29 52.63 C 171.30 51.63 181.91 49.00 186.93 49.00 C 196.30 49.01 202.40 54.44 206.24 66.22 C 210.02 77.79 209.63 122.20 205.41 163.00 C 202.55 190.61 199.98 198.84 190.55 210.50 C 186.99 214.90 184.06 218.98 184.04 219.56 C 184.00 220.69 209.73 244.00 211.02 244.00 C 211.44 244.00 214.29 241.30 217.34 238.00 Z  M 175.78 202.35 C 184.91 199.25 191.47 193.04 196.75 182.50 C 200.77 174.47 202.36 158.31 199.85 150.90 C 196.92 142.23 187.73 134.00 180.96 134.00 C 178.13 134.00 175.80 135.04 171.36 138.30 C 168.14 140.66 164.96 142.93 164.29 143.33 C 163.62 143.74 159.95 142.49 156.07 140.53 C 152.21 138.59 148.64 137.00 148.14 137.00 C 147.64 137.00 145.95 140.94 144.37 145.75 C 141.85 153.46 141.51 155.92 141.55 166.50 C 141.60 179.13 143.04 186.54 147.29 196.02 C 149.50 200.95 149.50 200.95 155.84 196.90 C 159.32 194.67 162.41 193.08 162.70 193.36 C 162.98 193.65 162.78 196.44 162.24 199.55 C 161.27 205.22 161.27 205.22 166.24 204.56 C 168.98 204.20 173.27 203.21 175.78 202.35 Z  M 100.71 164.03 C 105.33 161.22 109.20 153.09 109.27 146.05 C 109.41 131.04 95.89 123.46 81.98 130.75 C 75.21 134.30 73.00 138.24 73.00 146.78 C 73.00 153.73 74.35 157.14 78.66 161.12 C 83.09 165.19 85.05 165.94 91.50 165.97 C 95.74 165.98 98.45 165.42 100.71 164.03 Z  M 164.98 178.43 C 164.44 177.02 164.00 173.69 164.00 171.02 C 164.00 166.84 164.42 165.82 167.08 163.59 C 168.77 162.17 170.72 161.00 171.42 161.00 C 175.24 161.00 178.40 170.51 176.05 174.91 C 174.80 177.24 169.36 180.99 167.23 181.00 C 166.52 181.00 165.51 179.85 164.98 178.43 Z  M 90.00 160.40 C 90.00 159.99 90.77 158.81 91.70 157.78 C 94.22 155.00 93.81 149.82 90.70 145.12 C 87.70 140.60 87.20 135.91 89.51 133.99 C 91.33 132.48 97.21 133.25 100.56 135.44 C 107.10 139.73 104.78 155.93 97.20 158.83 C 92.57 160.61 90.00 161.16 90.00 160.40 Z "/>
</g>
</svg>