<?xml version="1.0" encoding="UTF-8" standalone="no"?>
<!DOCTYPE svg PUBLIC "-//W3C//DTD SVG 1.1//EN" "http://www.w3.org/Graphics/SVG/1.1/DTD/svg11.dtd" >
<svg xmlns="http://www.w3.org/2000/svg" xmlns:xlink="http://www.w3.org/1999/xlink" version="1.1" viewBox="0 0 256 256">
 <g >
 <path fill="currentColor"
d=" M 168.12 232.23 C 172.18 229.01 178.24 223.83 181.58 220.73 C 187.66 215.10 187.66 215.10 191.09 217.93 C 199.07 224.50 229.81 241.68 231.05 240.25 C 231.74 239.45 243.72 209.38 244.21 207.22 C 244.39 206.43 239.00 203.54 230.00 199.63 C 214.68 192.96 208.00 189.39 208.00 187.89 C 208.00 187.39 210.20 183.47 212.88 179.19 C 223.52 162.21 226.83 152.21 227.72 134.35 C 228.22 124.25 228.06 122.76 226.08 118.66 C 223.22 112.77 217.22 107.41 211.81 105.93 C 209.12 105.20 204.26 104.99 198.88 105.36 C 190.25 105.96 190.25 105.96 189.14 100.23 C 188.53 97.08 187.73 90.57 187.37 85.77 C 186.71 77.03 186.71 77.03 191.10 75.04 C 193.52 73.94 197.42 73.03 199.77 73.02 C 203.33 73.00 204.23 73.40 205.15 75.43 C 206.08 77.46 205.75 78.94 203.13 84.54 C 201.41 88.22 200.00 91.57 200.00 92.00 C 200.00 92.61 227.91 103.00 229.55 103.00 C 230.78 103.00 234.47 93.48 237.04 83.69 C 240.71 69.74 240.84 62.42 237.59 53.46 C 232.06 38.21 222.01 34.81 201.01 41.05 C 195.37 42.72 190.51 43.84 190.20 43.53 C 189.25 42.58 193.04 28.27 195.55 23.30 C 196.86 20.71 197.83 18.53 197.72 18.44 C 196.88 17.80 165.80 7.87 165.54 8.15 C 164.83 8.90 160.82 22.83 159.53 29.00 C 158.79 32.58 157.61 40.60 156.91 46.83 C 155.64 58.16 155.64 58.16 149.89 62.58 C 146.74 65.01 143.94 67.00 143.68 67.00 C 143.42 67.00 142.64 63.17 141.94 58.50 C 141.25 53.82 140.41 50.00 140.09 50.00 C 138.06 49.98 110.00 63.61 110.00 64.61 C 110.00 65.29 110.93 69.74 112.06 74.50 C 115.12 87.38 115.80 99.58 114.89 124.68 C 113.88 152.13 112.34 161.82 106.99 174.14 C 104.77 179.26 102.58 183.82 102.11 184.29 C 101.65 184.75 100.95 181.05 100.56 176.07 C 100.07 169.78 99.46 167.00 98.58 167.00 C 97.88 167.00 94.78 167.87 91.68 168.94 C 88.58 170.01 85.85 170.56 85.61 170.18 C 85.38 169.80 84.87 167.82 84.49 165.79 C 83.92 162.74 83.21 161.89 80.48 160.99 C 74.66 159.07 68.97 154.18 66.78 149.23 C 64.90 144.99 64.82 143.86 65.80 135.88 C 67.45 122.50 71.80 115.85 79.85 114.39 C 85.52 113.37 86.66 112.40 87.87 107.59 C 89.50 101.15 89.34 100.41 85.90 98.23 C 82.80 96.27 82.80 96.27 91.34 89.59 C 98.11 84.31 100.41 81.83 102.37 77.68 C 108.76 64.18 109.92 39.72 104.69 28.87 C 101.67 22.63 93.83 14.66 88.51 12.44 C 80.53 9.11 75.15 10.66 59.27 20.90 C 51.80 25.71 51.80 25.71 38.19 20.36 C 30.71 17.42 24.27 15.35 23.89 15.76 C 23.50 16.17 21.69 20.55 19.87 25.50 C 16.58 34.44 16.56 34.61 16.55 52.50 C 16.54 77.84 19.25 89.63 28.09 102.72 C 29.87 105.35 31.46 107.67 31.63 107.89 C 31.80 108.10 36.68 104.84 42.47 100.64 C 48.26 96.44 53.16 93.00 53.34 93.00 C 53.53 93.00 53.33 95.14 52.90 97.75 C 51.62 105.52 51.72 106.00 54.63 106.00 C 57.55 106.00 57.56 104.93 54.49 118.50 C 51.71 130.78 51.48 148.63 53.92 163.50 C 55.09 170.65 56.28 177.24 56.56 178.14 C 56.92 179.30 56.14 180.10 53.92 180.88 C 52.19 181.48 50.42 181.76 50.00 181.50 C 49.58 181.24 48.17 176.86 46.86 171.76 C 43.53 158.69 43.67 139.38 47.19 126.87 C 49.63 118.23 49.63 118.23 38.06 114.59 C 31.70 112.59 26.04 110.96 25.48 110.97 C 24.02 111.01 19.23 125.29 17.94 133.50 C 17.33 137.35 16.84 146.35 16.84 153.50 C 16.84 164.17 17.28 168.07 19.26 175.25 C 21.69 184.00 21.69 184.00 16.34 184.00 C 13.40 184.00 11.00 184.34 11.00 184.75 C 11.02 187.89 14.02 217.36 14.36 217.69 C 15.07 218.40 34.73 216.01 45.92 213.86 C 58.05 211.53 75.35 206.42 85.91 202.05 C 89.98 200.36 93.53 199.19 93.78 199.45 C 94.04 199.70 90.99 204.00 87.00 209.00 C 83.01 214.00 79.92 218.22 80.13 218.37 C 80.33 218.53 84.78 222.01 90.00 226.10 C 110.22 241.93 106.50 241.98 117.36 225.76 C 131.59 204.49 139.13 184.86 143.03 159.00 C 144.23 151.03 145.36 144.34 145.53 144.15 C 145.71 143.96 147.97 146.99 150.55 150.87 C 155.25 157.94 155.25 157.94 158.88 154.87 C 181.16 135.97 187.43 132.92 192.02 138.75 C 193.68 140.85 194.09 142.44 193.74 145.50 C 193.20 150.29 189.11 160.73 185.85 165.61 C 183.50 169.12 183.50 169.12 176.98 162.06 C 173.40 158.18 170.12 155.00 169.70 155.00 C 169.14 155.00 146.26 169.84 144.16 171.57 C 143.42 172.18 145.92 175.35 154.49 184.63 C 163.43 194.32 163.43 194.32 157.97 199.22 C 151.53 205.01 141.35 211.87 133.55 215.69 C 130.48 217.20 128.11 218.83 128.27 219.32 C 128.44 219.81 133.25 225.98 138.98 233.02 C 149.38 245.82 149.38 245.82 155.06 241.96 C 158.19 239.84 164.06 235.46 168.12 232.23 Z  M 100.10 153.71 C 105.11 150.34 108.20 144.09 108.26 137.19 C 108.41 121.39 92.56 113.01 79.89 122.20 C 74.84 125.86 73.00 130.15 73.00 138.32 C 73.00 145.61 75.19 149.86 80.92 153.73 C 85.70 156.95 95.31 156.94 100.10 153.71 Z  M 145.50 107.00 C 145.50 96.55 145.75 88.00 146.05 88.00 C 146.35 88.00 147.64 90.13 148.90 92.73 C 151.20 97.46 151.20 97.46 154.12 94.20 C 157.57 90.33 157.65 90.48 158.45 102.50 C 158.78 107.45 159.15 112.81 159.28 114.42 C 159.47 116.98 158.72 117.86 153.06 121.67 C 149.52 124.05 146.37 126.00 146.06 126.00 C 145.75 126.00 145.50 117.45 145.50 107.00 Z  M 50.50 75.73 C 47.69 68.95 47.51 67.78 47.72 56.91 C 47.85 50.53 48.33 44.28 48.80 43.01 C 49.58 40.89 49.99 41.29 53.48 47.60 C 55.58 51.39 57.41 54.65 57.56 54.83 C 57.70 55.01 59.67 53.14 61.93 50.69 C 66.29 45.97 69.83 44.61 73.83 46.13 C 76.14 47.00 76.24 47.39 75.77 53.32 C 74.81 65.26 67.48 74.00 58.44 74.00 C 56.55 74.00 55.87 74.84 54.81 78.48 C 53.50 82.96 53.50 82.96 50.50 75.73 Z  M 91.56 147.08 C 94.42 142.76 94.17 141.47 89.35 135.67 C 86.50 132.24 86.32 127.93 88.94 125.56 C 90.57 124.08 91.40 123.98 94.27 124.93 C 101.41 127.28 104.41 132.22 102.87 139.12 C 101.55 145.01 99.51 147.89 95.45 149.58 C 89.52 152.06 88.64 151.50 91.56 147.08 Z "/>
</g>
</svg>