<?xml version="1.0" encoding="UTF-8" standalone="no"?>
<!DOCTYPE svg PUBLIC "-//W3C//DTD SVG 1.1//EN" "http://www.w3.org/Graphics/SVG/1.1/DTD/svg11.dtd" >
<svg xmlns="http://www.w3.org/2000/svg" xmlns:xlink="http://www.w3.org/1999/xlink" version="1.1" viewBox="0 0 256 256">
 <g >
 <path fill="currentColor"
d=" M 122.50 229.64 C 124.05 227.28 125.40 220.90 129.10 198.50 C 130.19 191.90 132.37 182.45 133.95 177.50 C 141.07 155.19 143.09 143.08 143.42 120.71 C 143.56 110.93 144.09 102.54 144.59 102.07 C 145.09 101.60 152.93 100.74 162.00 100.15 C 171.07 99.56 185.47 97.98 194.00 96.63 C 202.53 95.29 215.80 93.90 223.50 93.55 C 234.81 93.03 237.74 92.59 238.75 91.26 C 240.61 88.82 240.26 84.55 238.06 82.55 C 236.29 80.95 233.53 80.80 207.81 80.92 C 189.59 81.00 173.44 80.50 162.50 79.53 C 140.75 77.59 128.01 77.54 125.48 79.39 C 123.69 80.70 123.57 82.62 123.38 113.14 C 123.12 153.83 121.71 164.03 113.17 187.09 C 110.60 194.03 109.21 202.41 108.37 216.05 C 107.72 226.59 107.72 226.59 110.94 229.30 C 115.14 232.83 120.31 232.99 122.50 229.64 Z  M 73.50 195.93 C 87.25 194.78 99.62 193.31 101.00 192.66 C 104.41 191.06 104.53 188.56 102.08 170.65 C 100.93 162.32 99.30 147.85 98.45 138.50 C 96.91 121.50 96.91 121.50 99.59 105.08 C 103.94 78.45 103.33 77.73 73.50 74.51 C 53.92 72.40 40.62 72.54 35.41 74.90 C 28.54 78.02 27.91 80.91 27.43 111.15 C 27.21 125.29 26.57 143.97 26.02 152.68 C 23.30 195.28 23.25 193.99 27.76 196.43 C 31.63 198.53 43.80 198.40 73.50 195.93 Z  M 194.41 73.92 C 195.83 72.23 197.00 70.05 197.00 69.07 C 197.00 66.93 182.21 39.68 179.24 36.35 C 176.21 32.95 172.78 33.35 169.10 37.53 C 165.48 41.66 165.37 42.84 167.87 50.12 C 170.98 59.16 174.94 66.06 180.25 71.67 C 186.47 78.24 190.27 78.85 194.41 73.92 Z  M 41.00 170.64 C 41.00 165.49 40.72 159.22 40.37 156.71 C 39.75 152.14 39.75 152.14 55.27 151.82 C 72.40 151.47 74.22 150.84 75.53 144.86 C 77.02 138.08 71.08 135.37 52.00 134.12 C 40.93 133.40 41.70 136.41 45.29 108.00 C 47.50 90.50 47.50 90.50 50.50 90.58 C 55.55 90.70 83.44 96.07 84.50 97.11 C 85.12 97.73 85.63 113.53 85.84 139.05 C 86.17 180.00 86.17 180.00 63.59 180.00 C 41.00 180.00 41.00 180.00 41.00 170.64 Z "/>
</g>
</svg>