<?xml version="1.0" encoding="UTF-8" standalone="no"?>
<!DOCTYPE svg PUBLIC "-//W3C//DTD SVG 1.1//EN" "http://www.w3.org/Graphics/SVG/1.1/DTD/svg11.dtd" >
<svg xmlns="http://www.w3.org/2000/svg" xmlns:xlink="http://www.w3.org/1999/xlink" version="1.1" viewBox="0 0 256 256">
 <g >
 <path fill="currentColor"
d=" M 61.11 234.94 C 63.97 233.41 71.73 222.53 72.52 218.93 C 72.99 216.76 72.71 215.34 71.56 214.06 C 70.01 212.35 70.19 212.24 75.11 211.76 C 83.96 210.91 84.00 210.95 84.00 221.12 C 84.00 230.87 85.54 234.00 90.35 234.00 C 95.09 234.00 96.47 230.80 96.84 218.94 C 97.15 208.82 97.32 208.04 99.34 207.44 C 104.43 205.92 112.91 201.68 113.40 200.39 C 113.70 199.63 113.67 198.31 113.35 197.46 C 112.43 195.06 105.52 192.00 101.04 192.00 C 97.00 192.00 97.00 192.00 97.00 184.04 C 97.00 176.08 97.00 176.08 101.25 174.98 C 113.48 171.83 114.80 170.78 113.41 165.27 C 112.24 160.61 111.64 160.46 88.76 159.06 C 78.71 158.45 68.03 157.70 65.00 157.41 C 60.52 156.97 58.67 157.30 55.00 159.19 C 50.73 161.38 50.48 161.74 50.20 166.23 C 49.74 173.39 51.25 174.08 75.17 177.61 C 78.85 178.15 78.85 178.15 79.17 185.46 C 79.50 192.76 79.50 192.76 66.50 193.20 C 50.16 193.76 47.63 194.75 47.19 200.80 C 46.92 204.55 47.31 205.51 50.34 208.54 C 52.77 210.97 54.71 212.00 56.84 212.00 C 58.51 212.00 60.12 212.38 60.41 212.85 C 60.69 213.31 58.24 216.25 54.96 219.37 C 50.48 223.64 49.01 225.73 49.03 227.77 C 49.10 233.77 55.84 237.76 61.11 234.94 Z  M 132.00 230.00 C 136.24 225.76 133.44 218.79 125.95 214.97 C 120.98 212.44 116.94 212.47 113.63 215.07 C 110.53 217.51 110.09 222.26 112.63 225.89 C 116.43 231.31 128.19 233.81 132.00 230.00 Z  M 231.43 215.63 C 238.44 209.02 235.26 203.74 219.74 196.23 C 214.11 193.50 208.49 190.95 207.25 190.57 C 206.01 190.18 205.00 189.55 205.00 189.17 C 205.00 188.79 208.63 185.37 213.06 181.57 C 222.22 173.73 224.31 170.46 224.42 163.83 C 224.48 160.26 223.96 158.59 222.19 156.70 C 219.88 154.25 219.88 154.25 190.15 154.37 C 163.50 154.49 160.13 154.68 157.71 156.27 C 155.50 157.72 155.00 158.79 155.00 162.12 C 155.00 168.00 157.34 172.13 165.72 181.04 C 174.13 189.98 174.39 189.38 161.50 190.47 C 152.86 191.20 149.43 193.35 149.65 197.91 C 149.82 201.45 152.32 205.80 154.72 206.72 C 156.98 207.59 170.07 205.25 179.45 202.29 C 184.92 200.57 188.76 199.94 191.74 200.27 C 196.17 200.77 198.05 201.82 214.00 212.75 C 219.02 216.19 224.19 219.00 225.49 219.00 C 226.80 219.00 229.45 217.50 231.43 215.63 Z  M 40.55 147.94 C 42.28 146.03 43.44 136.34 43.92 119.90 C 44.00 117.30 44.00 117.30 57.25 116.62 C 64.54 116.24 79.28 115.30 90.00 114.51 C 100.72 113.73 112.65 112.99 116.50 112.87 C 123.49 112.65 123.49 112.65 124.19 116.57 C 124.57 118.73 124.91 122.43 124.94 124.80 C 125.04 132.07 131.79 136.32 137.98 133.01 C 141.40 131.18 143.24 124.05 142.85 114.12 C 142.35 101.16 142.77 101.42 123.21 101.82 C 114.57 102.00 100.30 101.67 91.50 101.09 C 82.70 100.51 66.42 99.97 55.32 99.90 C 37.48 99.78 34.70 99.98 31.33 101.63 C 26.49 104.00 25.03 106.98 25.02 114.50 C 25.01 122.00 29.31 146.46 30.99 148.49 C 32.83 150.71 38.34 150.39 40.55 147.94 Z  M 112.84 144.81 C 117.09 142.70 117.49 142.20 117.34 139.12 C 117.06 133.32 114.65 131.96 102.90 130.96 C 97.18 130.47 84.78 129.94 75.34 129.79 C 59.23 129.52 58.01 129.63 55.34 131.60 C 53.05 133.30 52.44 134.59 52.20 138.34 C 51.94 142.26 52.31 143.40 54.55 145.64 C 57.22 148.31 57.22 148.31 82.70 147.72 C 106.68 147.16 108.45 146.99 112.84 144.81 Z  M 172.43 144.43 C 174.40 142.46 174.73 140.76 175.49 129.00 C 176.06 119.95 177.62 106.70 180.10 89.75 C 181.23 82.00 181.23 82.00 193.41 82.00 C 205.58 82.00 205.58 82.00 206.80 106.04 C 208.39 137.65 208.49 137.87 221.26 139.44 C 230.87 140.62 237.00 137.29 237.00 130.89 C 237.00 128.80 236.20 127.85 233.31 126.48 C 231.28 125.51 228.47 124.42 227.06 124.04 C 224.71 123.42 224.48 122.86 224.20 117.16 C 224.04 113.75 224.60 105.61 225.45 99.06 C 228.11 78.63 227.46 73.33 221.97 70.49 C 218.18 68.52 207.38 66.45 196.07 65.52 C 191.43 65.14 183.81 63.72 179.14 62.37 C 168.99 59.43 166.38 59.59 163.60 63.32 C 161.58 66.03 161.48 67.55 161.00 102.32 C 160.72 122.22 160.86 139.62 161.30 141.00 C 161.73 142.38 162.83 144.06 163.74 144.75 C 166.02 146.48 170.54 146.31 172.43 144.43 Z  M 125.40 92.10 C 129.99 90.97 130.96 89.73 130.98 84.94 C 131.02 77.70 127.12 76.06 109.75 76.02 C 99.00 76.00 99.00 76.00 99.00 57.90 C 99.00 39.81 99.00 39.81 113.75 40.02 C 133.69 40.30 132.72 40.44 134.47 37.05 C 136.55 33.04 136.39 30.44 133.93 28.15 C 131.11 25.53 127.66 24.88 112.58 24.14 C 99.65 23.50 99.65 23.50 98.47 17.57 C 95.56 2.96 82.12 3.48 79.04 18.31 C 77.86 24.00 77.86 24.00 59.18 24.02 C 38.70 24.05 33.39 24.80 30.75 28.06 C 28.11 31.32 28.49 36.62 31.57 39.48 C 35.37 43.00 42.07 44.00 61.91 44.00 C 79.72 44.00 79.72 44.00 81.45 57.75 C 82.39 65.31 83.24 72.17 83.33 73.00 C 83.55 74.99 76.74 75.77 58.00 75.91 C 50.02 75.96 41.88 76.46 39.91 77.01 C 33.71 78.73 31.86 86.95 36.60 91.70 C 39.21 94.30 39.21 94.30 80.35 93.68 C 102.98 93.34 123.25 92.63 125.40 92.10 Z  M 186.10 177.42 C 183.25 174.30 181.14 171.52 181.42 171.25 C 181.89 170.78 200.19 169.14 200.76 169.51 C 200.90 169.60 199.55 171.61 197.76 173.98 C 195.97 176.34 193.77 179.35 192.89 180.68 C 191.28 183.08 191.28 183.08 186.10 177.42 Z "/>
</g>
</svg>