<?xml version="1.0" encoding="UTF-8" standalone="no"?>
<!DOCTYPE svg PUBLIC "-//W3C//DTD SVG 1.1//EN" "http://www.w3.org/Graphics/SVG/1.1/DTD/svg11.dtd" >
<svg xmlns="http://www.w3.org/2000/svg" xmlns:xlink="http://www.w3.org/1999/xlink" version="1.1" viewBox="0 0 256 256">
 <g >
 <path fill="currentColor"
d=" M 59.73 198.75 C 63.81 194.33 65.46 180.72 62.58 175.15 C 61.79 173.64 59.52 171.52 57.51 170.45 C 53.87 168.50 53.87 168.50 49.94 172.71 C 47.18 175.66 46.00 177.81 46.00 179.90 C 46.00 181.53 45.59 183.94 45.10 185.24 C 43.66 189.01 45.44 196.12 48.46 198.72 C 51.95 201.72 56.97 201.73 59.73 198.75 Z  M 28.34 195.16 C 30.53 192.92 33.31 188.32 35.04 184.06 C 39.39 173.37 38.94 169.98 32.64 166.09 C 25.74 161.82 21.47 163.77 16.74 173.35 C 14.79 177.28 12.41 182.93 11.43 185.91 C 9.87 190.70 9.83 191.61 11.11 193.89 C 12.94 197.14 16.49 198.97 21.05 198.99 C 23.85 199.00 25.38 198.20 28.34 195.16 Z  M 92.18 195.13 C 95.00 192.61 95.38 191.67 95.31 187.29 C 95.23 181.99 94.05 178.94 90.63 175.15 C 83.12 166.87 73.98 169.78 74.02 180.44 C 74.06 189.67 79.80 198.00 86.12 198.00 C 87.84 198.00 90.24 196.87 92.18 195.13 Z  M 121.57 185.33 C 122.93 183.86 124.22 181.72 124.44 180.58 C 124.65 179.44 125.34 164.32 125.97 147.00 C 127.64 100.86 125.79 105.59 141.85 106.39 C 149.30 106.76 155.55 107.22 155.73 107.40 C 155.91 107.57 154.85 111.95 153.39 117.11 C 151.39 124.13 149.24 128.80 144.86 135.59 C 138.18 145.95 137.49 149.58 141.45 153.55 C 144.12 156.21 148.47 156.74 151.07 154.72 C 151.94 154.05 155.89 148.66 159.85 142.75 C 163.81 136.84 167.33 132.00 167.68 132.00 C 168.03 132.00 172.41 134.64 177.41 137.87 C 189.55 145.70 192.26 147.00 196.45 147.00 C 202.35 147.00 206.42 140.93 204.39 135.15 C 203.47 132.56 200.58 130.18 188.40 122.00 C 175.63 113.43 174.35 110.78 180.86 106.48 C 185.94 103.11 195.41 102.96 210.56 105.99 C 221.62 108.20 221.62 108.20 222.85 128.35 C 223.53 139.43 224.35 151.09 224.68 154.25 C 225.28 160.00 225.28 160.00 216.39 160.02 C 206.87 160.03 205.92 160.31 204.15 163.68 C 201.52 168.68 204.01 174.96 209.77 177.86 C 211.82 178.89 217.88 180.55 223.23 181.55 C 234.69 183.68 239.19 183.01 242.40 178.68 C 244.45 175.92 244.50 174.90 244.50 135.84 C 244.50 95.83 244.50 95.83 241.85 93.54 C 239.33 91.38 238.16 91.23 219.35 90.71 C 202.09 90.24 190.37 88.86 184.40 86.60 C 183.63 86.30 183.85 82.53 185.13 73.84 C 187.61 56.98 187.55 53.87 184.66 51.15 C 179.31 46.12 171.33 46.49 168.58 51.89 C 167.33 54.34 166.69 57.04 162.37 77.81 C 160.65 86.12 160.65 86.12 137.87 85.41 C 112.50 84.62 111.72 84.78 108.37 91.26 C 106.85 94.18 106.77 97.66 107.46 127.50 C 107.87 145.65 108.13 164.59 108.03 169.60 C 107.83 179.12 109.18 186.50 111.27 187.34 C 114.77 188.76 119.19 187.90 121.57 185.33 Z  M 61.00 148.36 C 76.75 147.68 80.90 146.60 83.61 142.48 C 85.16 140.11 85.23 139.11 84.20 134.14 C 83.55 131.04 81.04 124.45 78.60 119.50 C 76.17 114.55 73.93 109.33 73.61 107.90 C 73.09 105.54 73.43 105.20 77.27 104.11 C 92.77 99.74 93.30 96.91 81.59 81.04 C 78.12 76.34 72.53 68.37 69.16 63.31 C 65.79 58.26 61.47 52.93 59.55 51.47 C 51.67 45.46 42.28 47.87 32.02 58.56 C 25.38 65.47 21.78 72.33 15.90 89.19 C 12.53 98.87 12.53 98.87 14.91 101.41 C 17.79 104.47 21.35 105.67 30.25 106.56 C 36.66 107.20 38.32 108.07 35.93 109.54 C 35.35 109.90 32.34 113.64 29.26 117.85 C 26.18 122.06 21.94 127.40 19.83 129.73 C 16.64 133.25 16.00 134.67 16.00 138.26 C 16.00 147.50 20.98 150.30 36.00 149.53 C 41.78 149.23 53.02 148.71 61.00 148.36 Z  M 45.75 130.69 C 41.49 130.14 38.00 129.29 38.00 128.79 C 38.00 127.95 53.92 108.00 54.59 108.00 C 55.06 108.00 64.63 127.20 65.43 129.75 C 66.11 131.93 65.94 132.00 59.82 131.85 C 56.34 131.76 50.01 131.24 45.75 130.69 Z  M 51.67 88.45 C 45.16 87.16 39.38 85.96 38.82 85.77 C 37.89 85.46 49.74 69.90 51.95 68.53 C 53.02 67.87 55.40 71.41 61.84 83.25 C 64.31 87.80 65.52 90.96 64.78 90.90 C 64.07 90.84 58.17 89.74 51.67 88.45 Z "/>
</g>
</svg>