<?xml version="1.0" encoding="UTF-8" standalone="no"?>
<!DOCTYPE svg PUBLIC "-//W3C//DTD SVG 1.1//EN" "http://www.w3.org/Graphics/SVG/1.1/DTD/svg11.dtd" >
<svg xmlns="http://www.w3.org/2000/svg" xmlns:xlink="http://www.w3.org/1999/xlink" version="1.1" viewBox="0 0 256 256">
 <g >
 <path fill="currentColor"
d=" M 83.00 216.50 C 83.00 186.00 83.00 186.00 110.50 186.00 C 138.00 186.00 138.00 186.00 138.00 195.39 C 138.00 205.93 140.83 204.82 109.25 206.59 C 98.00 207.22 98.00 207.22 98.02 213.86 C 98.02 217.51 98.38 221.05 98.81 221.73 C 99.42 222.69 108.69 222.43 142.00 220.49 C 165.33 219.13 184.72 218.35 185.10 218.76 C 185.47 219.17 186.08 220.51 186.45 221.75 C 186.97 223.46 186.73 224.00 185.44 224.00 C 184.08 224.00 183.87 224.61 184.38 227.12 C 184.72 228.84 185.00 232.41 185.00 235.05 C 185.00 239.86 185.00 239.86 190.25 240.94 C 196.49 242.22 217.37 244.83 228.25 245.68 C 236.00 246.29 236.00 246.29 236.00 208.14 C 236.00 170.00 236.00 170.00 197.45 170.00 C 158.90 170.00 158.90 170.00 159.20 164.25 C 159.50 158.50 159.50 158.50 187.50 157.89 C 202.90 157.55 218.09 157.21 221.25 157.14 C 227.00 157.00 227.00 157.00 227.00 133.75 C 227.00 110.50 227.00 110.50 192.95 110.82 C 158.91 111.14 158.91 111.14 159.20 104.32 C 159.50 97.50 159.50 97.50 195.50 96.67 C 215.30 96.21 231.89 95.46 232.37 94.99 C 232.86 94.53 232.92 91.12 232.53 87.42 C 231.81 80.70 231.81 80.70 206.15 81.41 C 140.57 83.22 107.89 83.94 88.83 83.97 C 77.46 83.99 67.45 84.27 66.58 84.61 C 65.35 85.08 65.00 86.76 65.00 92.26 C 65.00 99.31 65.00 99.31 101.50 98.60 C 138.00 97.89 138.00 97.89 138.00 104.45 C 138.00 111.00 138.00 111.00 104.50 111.00 C 71.00 111.00 71.00 111.00 71.00 134.50 C 71.00 158.00 71.00 158.00 104.50 158.00 C 138.00 158.00 138.00 158.00 138.00 163.84 C 138.00 169.69 138.00 169.69 120.75 170.34 C 111.26 170.70 94.16 171.00 82.75 171.00 C 62.00 171.00 62.00 171.00 62.00 209.00 C 62.00 247.00 62.00 247.00 72.50 247.00 C 83.00 247.00 83.00 247.00 83.00 216.50 Z  M 35.95 235.00 C 49.26 208.66 53.92 174.34 53.98 102.31 C 54.00 74.12 54.00 74.12 58.25 73.62 C 62.24 73.14 201.92 70.94 225.25 70.98 C 236.00 71.00 236.00 71.00 236.00 44.50 C 236.00 18.00 236.00 18.00 221.75 18.04 C 210.01 18.07 32.06 20.79 31.25 20.95 C 31.11 20.98 30.99 46.09 30.98 76.75 C 30.97 107.41 30.53 140.31 30.00 149.86 C 28.14 183.29 21.49 212.84 12.05 229.56 C 9.06 234.87 9.06 234.87 19.28 240.39 C 31.08 246.76 29.80 247.17 35.95 235.00 Z  M 204.32 226.63 C 198.07 225.49 194.92 224.00 198.75 224.00 C 199.90 224.00 201.54 223.73 202.39 223.40 C 203.80 222.86 203.80 222.52 202.39 219.79 C 201.54 218.14 198.67 211.09 196.02 204.14 C 193.37 197.19 190.73 190.28 190.14 188.80 C 189.08 186.09 189.08 186.09 181.88 188.54 C 177.92 189.89 174.52 191.15 174.33 191.34 C 174.14 191.53 174.95 194.02 176.13 196.87 C 177.32 199.72 178.07 202.26 177.81 202.52 C 177.55 202.78 173.21 203.29 168.17 203.65 C 159.00 204.30 159.00 204.30 159.00 194.65 C 159.00 185.00 159.00 185.00 187.00 185.00 C 215.00 185.00 215.00 185.00 215.00 206.50 C 215.00 231.12 216.23 228.80 204.32 226.63 Z  M 92.00 134.50 C 92.00 127.00 92.00 127.00 110.36 127.00 C 120.46 127.00 130.81 126.71 133.36 126.36 C 138.00 125.73 138.00 125.73 138.00 133.86 C 138.00 142.00 138.00 142.00 115.00 142.00 C 92.00 142.00 92.00 142.00 92.00 134.50 Z  M 159.21 134.25 C 159.50 126.50 159.50 126.50 182.75 126.23 C 206.00 125.96 206.00 125.96 206.00 133.98 C 206.00 142.00 206.00 142.00 182.46 142.00 C 158.92 142.00 158.92 142.00 159.21 134.25 Z  M 54.00 47.61 C 54.00 42.87 54.11 38.97 54.25 38.93 C 54.98 38.73 188.57 36.09 200.25 36.05 C 214.00 36.00 214.00 36.00 214.00 44.88 C 214.00 53.76 214.00 53.76 144.75 54.39 C 106.66 54.75 70.66 55.30 64.75 55.63 C 54.00 56.22 54.00 56.22 54.00 47.61 Z "/>
</g>
</svg>