<?xml version="1.0" encoding="UTF-8" standalone="no"?>
<!DOCTYPE svg PUBLIC "-//W3C//DTD SVG 1.1//EN" "http://www.w3.org/Graphics/SVG/1.1/DTD/svg11.dtd" >
<svg xmlns="http://www.w3.org/2000/svg" xmlns:xlink="http://www.w3.org/1999/xlink" version="1.1" viewBox="0 0 256 256">
 <g >
 <path fill="currentColor"
d=" M 139.00 235.50 C 139.00 222.00 139.00 222.00 183.00 222.00 C 227.00 222.00 227.00 222.00 227.00 194.50 C 227.00 167.00 227.00 167.00 182.96 167.00 C 138.92 167.00 138.92 167.00 139.21 159.25 C 139.50 151.50 139.50 151.50 172.00 150.89 C 189.88 150.55 206.64 150.21 209.25 150.14 C 214.00 150.00 214.00 150.00 214.00 123.25 C 214.00 96.50 214.00 96.50 176.50 96.78 C 139.00 97.07 139.00 97.07 139.00 89.53 C 139.00 82.00 139.00 82.00 127.50 82.00 C 116.00 82.00 116.00 82.00 116.00 89.38 C 116.00 96.19 115.83 96.81 113.75 97.37 C 112.51 97.70 95.64 97.98 76.25 97.99 C 41.00 98.00 41.00 98.00 41.00 124.49 C 41.00 150.98 41.00 150.98 78.25 151.24 C 115.50 151.50 115.50 151.50 115.79 159.09 C 116.08 166.68 116.08 166.68 95.79 167.34 C 84.63 167.70 64.81 168.00 51.75 168.00 C 28.00 168.00 28.00 168.00 28.00 195.61 C 28.00 223.23 28.00 223.23 72.00 222.49 C 116.00 221.75 116.00 221.75 116.00 235.37 C 116.00 249.00 116.00 249.00 127.50 249.00 C 139.00 249.00 139.00 249.00 139.00 235.50 Z  M 36.25 96.59 C 66.62 87.59 107.26 75.08 107.76 74.57 C 108.25 74.09 103.56 60.53 102.09 58.14 C 101.44 57.10 98.58 57.67 88.39 60.85 C 81.30 63.07 65.83 67.63 54.00 71.00 C 31.79 77.32 12.71 83.02 12.22 83.47 C 12.06 83.62 12.88 87.28 14.03 91.62 C 16.65 101.49 16.82 102.00 17.46 102.00 C 17.75 102.00 26.21 99.57 36.25 96.59 Z  M 241.15 93.07 C 242.71 88.44 243.87 84.55 243.74 84.43 C 242.68 83.46 153.60 56.00 151.53 56.00 C 150.73 56.00 145.62 72.95 146.24 73.57 C 146.58 73.92 155.97 76.88 167.09 80.15 C 178.21 83.42 198.15 89.63 211.40 93.95 C 224.66 98.27 236.13 101.74 236.91 101.66 C 237.74 101.56 239.49 98.01 241.15 93.07 Z  M 39.78 61.34 C 40.06 50.18 40.06 50.18 49.28 49.63 C 57.75 49.12 186.79 46.93 205.72 46.98 C 213.94 47.00 213.94 47.00 214.22 58.75 C 214.50 70.50 214.50 70.50 225.75 70.78 C 237.00 71.07 237.00 71.07 237.00 48.91 C 237.00 26.75 237.00 26.75 201.25 27.39 C 181.59 27.74 160.32 28.29 153.99 28.61 C 142.49 29.19 142.49 29.19 138.61 18.60 C 135.84 11.05 134.26 8.01 133.11 8.04 C 129.09 8.13 111.96 10.71 111.35 11.32 C 110.97 11.69 111.87 15.54 113.33 19.87 C 114.80 24.20 116.00 27.97 116.00 28.25 C 116.00 28.53 99.01 29.04 78.25 29.39 C 57.49 29.74 35.21 30.30 28.75 30.62 C 17.00 31.22 17.00 31.22 17.00 52.14 C 17.00 73.07 17.00 73.07 28.25 72.78 C 39.50 72.50 39.50 72.50 39.78 61.34 Z  M 50.00 194.99 C 50.00 183.97 50.00 183.97 82.75 184.24 C 115.50 184.50 115.50 184.50 115.78 195.25 C 116.07 206.00 116.07 206.00 83.03 206.00 C 50.00 206.00 50.00 206.00 50.00 194.99 Z  M 139.22 195.25 C 139.50 184.50 139.50 184.50 172.25 184.24 C 205.00 183.97 205.00 183.97 205.00 194.99 C 205.00 206.00 205.00 206.00 171.97 206.00 C 138.93 206.00 138.93 206.00 139.22 195.25 Z  M 63.00 124.48 C 63.00 113.97 63.00 113.97 89.25 114.23 C 115.50 114.50 115.50 114.50 115.78 124.10 C 116.07 133.70 116.07 133.70 109.28 134.35 C 105.55 134.70 93.61 134.99 82.75 134.99 C 63.00 135.00 63.00 135.00 63.00 124.48 Z  M 139.00 124.47 C 139.00 117.74 139.37 114.81 140.25 114.51 C 140.94 114.28 152.86 113.96 166.75 113.79 C 192.00 113.50 192.00 113.50 192.00 123.75 C 192.00 134.00 192.00 134.00 165.50 134.00 C 139.00 134.00 139.00 134.00 139.00 124.47 Z "/>
</g>
</svg>