<?xml version="1.0" encoding="UTF-8" standalone="no"?>
<!DOCTYPE svg PUBLIC "-//W3C//DTD SVG 1.1//EN" "http://www.w3.org/Graphics/SVG/1.1/DTD/svg11.dtd" >
<svg xmlns="http://www.w3.org/2000/svg" xmlns:xlink="http://www.w3.org/1999/xlink" version="1.1" viewBox="0 0 194 256">
 <g >
 <path fill="currentColor"
d=" M 134.42 243.39 C 135.79 242.87 136.00 240.07 136.00 222.39 C 136.00 207.69 136.32 202.00 137.15 202.00 C 137.78 202.00 141.72 204.19 145.90 206.86 C 156.07 213.36 183.95 228.00 186.17 228.00 C 188.00 228.00 190.00 225.21 190.00 222.65 C 190.00 221.77 184.59 218.34 176.56 214.14 C 169.17 210.28 157.01 203.44 149.53 198.94 C 135.93 190.77 135.93 190.77 136.21 182.14 C 136.50 173.50 136.50 173.50 158.92 173.23 C 173.41 173.06 181.81 172.57 182.67 171.86 C 184.46 170.37 184.35 167.49 182.43 165.57 C 181.09 164.24 177.48 164.00 158.40 164.00 C 135.94 164.00 135.94 164.00 136.22 152.25 C 136.50 140.50 136.50 140.50 150.18 140.00 C 165.00 139.46 166.79 138.84 171.44 132.62 C 173.44 129.94 173.51 128.51 173.78 86.12 C 174.06 42.38 174.06 42.38 171.76 38.94 C 167.61 32.73 164.76 32.00 144.62 32.00 C 126.75 32.00 126.75 32.00 127.44 28.75 C 129.85 17.31 129.12 11.98 125.13 12.02 C 121.88 12.05 120.83 13.83 119.95 20.87 C 118.58 31.77 118.36 32.00 109.11 32.00 C 102.66 32.00 100.70 32.40 97.90 34.26 C 91.00 38.86 91.04 38.56 90.98 87.50 C 90.93 128.78 91.04 131.57 92.78 133.96 C 96.43 138.94 100.28 140.00 114.75 140.00 C 128.00 140.00 128.00 140.00 128.00 151.98 C 128.00 163.96 128.00 163.96 105.36 164.23 C 80.61 164.52 79.95 164.69 81.37 170.35 C 82.04 173.00 82.04 173.00 105.02 173.00 C 128.00 173.00 128.00 173.00 128.00 177.64 C 128.00 180.40 127.44 182.73 126.61 183.39 C 125.85 184.00 119.89 188.81 113.36 194.08 C 106.84 199.35 95.65 207.83 88.50 212.91 C 81.35 217.99 75.11 222.84 74.64 223.69 C 73.27 226.12 75.56 230.00 78.37 230.00 C 80.56 230.00 103.18 213.65 121.50 198.83 C 127.50 193.97 127.50 193.97 128.00 217.74 C 128.28 230.81 128.86 242.06 129.31 242.75 C 130.19 244.11 131.96 244.34 134.42 243.39 Z  M 44.38 212.39 C 63.15 209.85 79.06 207.32 79.75 206.77 C 81.38 205.45 81.34 202.85 79.66 200.55 C 78.38 198.80 77.87 198.79 66.41 200.41 C 59.86 201.33 53.04 202.34 51.25 202.66 C 48.00 203.22 48.00 203.22 48.00 165.64 C 48.00 128.05 48.00 128.05 62.64 127.78 C 74.96 127.54 77.45 127.24 78.32 125.85 C 79.09 124.63 78.92 123.52 77.66 121.60 C 75.96 119.01 75.93 119.00 61.98 119.00 C 48.00 119.00 48.00 119.00 48.00 103.00 C 48.00 87.00 48.00 87.00 56.50 87.00 C 63.67 87.00 65.31 86.69 67.00 85.00 C 68.10 83.90 68.99 82.44 68.98 81.75 C 68.94 78.10 67.88 77.96 43.43 78.23 C 19.50 78.50 19.50 78.50 19.24 81.00 C 18.75 85.73 20.18 86.47 30.46 86.85 C 40.00 87.19 40.00 87.19 40.00 103.10 C 40.00 119.00 40.00 119.00 25.72 119.00 C 10.66 119.00 7.00 119.95 7.00 123.86 C 7.00 127.54 8.94 128.00 24.70 128.00 C 40.00 128.00 40.00 128.00 40.00 165.89 C 40.00 203.78 40.00 203.78 37.75 204.32 C 36.51 204.62 29.05 205.85 21.16 207.07 C 7.90 209.12 6.74 209.47 5.70 211.75 C 4.76 213.82 4.88 214.44 6.48 215.61 C 7.53 216.37 8.81 217.00 9.32 217.00 C 9.84 217.00 25.62 214.93 44.38 212.39 Z  M 30.02 187.48 C 31.06 186.23 30.53 182.57 27.09 167.23 C 24.79 156.93 22.47 146.86 21.94 144.86 C 20.86 140.77 18.21 139.47 15.22 141.56 C 13.36 142.86 13.45 143.51 18.27 164.70 C 21.01 176.69 23.69 187.06 24.24 187.75 C 25.61 189.46 28.49 189.32 30.02 187.48 Z  M 64.00 186.75 C 64.53 185.51 66.98 175.50 69.44 164.51 C 73.51 146.33 73.78 144.31 72.43 142.26 C 68.71 136.57 66.52 140.93 61.10 164.85 C 56.80 183.85 56.49 186.06 57.88 187.45 C 60.11 189.68 62.89 189.36 64.00 186.75 Z  M 15.93 73.01 C 19.34 68.61 27.01 57.77 32.99 48.92 C 43.87 32.83 43.87 32.83 46.58 37.16 C 50.03 42.70 75.02 76.28 76.33 77.16 C 77.51 77.94 80.21 77.07 81.23 75.57 C 82.91 73.13 81.56 70.43 72.86 58.76 C 67.83 52.02 60.12 41.10 55.74 34.50 C 51.35 27.90 47.12 21.99 46.34 21.36 C 44.29 19.72 41.13 20.84 39.25 23.88 C 30.60 37.80 19.66 53.50 12.93 61.63 C 1.70 75.18 1.48 75.56 2.84 78.54 C 3.65 80.33 4.75 81.00 6.85 81.00 C 9.29 81.00 10.73 79.73 15.93 73.01 Z  M 101.07 128.37 C 99.28 126.08 99.00 124.34 99.00 115.37 C 99.00 105.00 99.00 105.00 131.50 105.00 C 164.00 105.00 164.00 105.00 164.00 115.78 C 164.00 132.29 166.72 131.00 132.02 131.00 C 103.15 131.00 103.15 131.00 101.07 128.37 Z  M 99.00 85.00 C 99.00 74.00 99.00 74.00 131.50 74.00 C 164.00 74.00 164.00 74.00 164.00 85.00 C 164.00 96.00 164.00 96.00 131.50 96.00 C 99.00 96.00 99.00 96.00 99.00 85.00 Z  M 99.00 55.90 C 99.00 49.11 99.43 46.07 100.72 43.90 C 102.43 41.00 102.43 41.00 131.56 41.00 C 158.51 41.00 160.81 41.14 162.35 42.83 C 163.66 44.28 164.00 46.77 164.00 54.83 C 164.00 65.00 164.00 65.00 131.50 65.00 C 99.00 65.00 99.00 65.00 99.00 55.90 Z "/>
</g>
</svg>