<?xml version="1.0" encoding="UTF-8" standalone="no"?>
<!DOCTYPE svg PUBLIC "-//W3C//DTD SVG 1.1//EN" "http://www.w3.org/Graphics/SVG/1.1/DTD/svg11.dtd" >
<svg xmlns="http://www.w3.org/2000/svg" xmlns:xlink="http://www.w3.org/1999/xlink" version="1.1" viewBox="0 0 194 256">
 <g >
 <path fill="currentColor"
d=" M 147.41 241.50 C 161.62 238.49 169.95 232.80 172.86 224.10 C 173.68 221.66 174.00 194.58 174.00 127.76 C 174.00 23.30 174.57 30.91 166.46 26.98 C 162.76 25.19 160.25 25.00 139.93 25.00 C 114.80 25.00 112.55 25.49 108.27 31.90 C 106.03 35.25 106.00 35.72 106.00 66.50 C 106.00 97.21 106.04 97.76 108.25 101.01 C 113.22 108.31 113.00 108.26 140.40 108.07 C 165.00 107.90 165.00 107.90 165.00 163.48 C 165.00 224.47 165.03 224.19 159.07 227.81 C 157.39 228.83 151.41 230.69 145.76 231.94 C 134.49 234.44 133.00 235.20 133.00 238.42 C 133.00 243.25 136.07 243.90 147.41 241.50 Z  M 25.96 239.07 C 26.65 237.79 27.00 215.18 27.00 172.62 C 27.00 108.10 27.00 108.10 51.33 107.80 C 75.66 107.50 75.66 107.50 79.33 104.70 C 86.47 99.25 86.50 99.08 86.50 65.32 C 86.50 36.27 86.42 35.04 84.41 32.32 C 83.26 30.77 80.80 28.47 78.94 27.20 C 75.61 24.94 75.22 24.91 50.86 25.20 C 26.16 25.50 26.16 25.50 23.45 28.00 C 17.77 33.25 18.00 28.56 18.00 137.14 C 18.00 228.98 18.14 237.50 19.65 239.17 C 21.81 241.55 24.66 241.50 25.96 239.07 Z  M 59.89 199.58 C 71.08 191.24 83.50 178.42 89.52 169.00 C 92.16 164.88 94.42 161.36 94.54 161.20 C 94.67 161.03 104.92 171.04 117.33 183.45 C 129.73 195.85 140.55 206.00 141.36 206.00 C 144.53 206.00 146.00 204.72 146.00 201.96 C 146.00 199.71 144.48 197.75 138.60 192.42 C 134.52 188.73 123.72 177.94 114.59 168.43 C 97.99 151.15 97.99 151.15 99.45 144.83 C 100.84 138.77 102.04 114.69 101.00 113.72 C 99.59 112.40 96.21 112.14 94.79 113.25 C 93.54 114.22 92.96 117.82 92.14 129.50 C 91.01 145.79 89.39 152.09 83.83 161.80 C 79.44 169.47 67.65 181.60 55.00 191.44 C 49.23 195.94 44.37 200.32 44.20 201.19 C 43.80 203.28 46.63 206.00 49.21 206.00 C 50.34 206.00 55.15 203.11 59.89 199.58 Z  M 117.22 97.44 C 115.12 95.97 115.00 95.18 115.00 82.94 C 115.00 70.00 115.00 70.00 140.00 70.00 C 165.00 70.00 165.00 70.00 165.00 84.50 C 165.00 99.00 165.00 99.00 142.22 99.00 C 123.23 99.00 119.08 98.74 117.22 97.44 Z  M 114.77 49.75 C 114.15 32.89 112.35 34.00 140.41 34.00 C 156.34 34.00 162.94 34.34 163.80 35.20 C 164.61 36.01 165.00 40.58 165.00 49.20 C 165.00 62.00 165.00 62.00 140.11 62.00 C 115.21 62.00 115.21 62.00 114.77 49.75 Z  M 27.00 84.50 C 27.00 70.00 27.00 70.00 52.58 70.00 C 78.16 70.00 78.16 70.00 77.83 82.59 C 77.37 100.06 79.17 99.00 49.89 99.00 C 27.00 99.00 27.00 99.00 27.00 84.50 Z  M 27.00 50.47 C 27.00 39.53 27.13 38.78 29.45 36.45 C 31.91 34.00 31.91 34.00 53.43 34.00 C 79.79 34.00 78.21 32.95 77.78 50.13 C 77.50 61.50 77.50 61.50 52.25 61.77 C 27.00 62.03 27.00 62.03 27.00 50.47 Z "/>
</g>
</svg>