<?xml version="1.0" encoding="UTF-8" standalone="no"?>
<!DOCTYPE svg PUBLIC "-//W3C//DTD SVG 1.1//EN" "http://www.w3.org/Graphics/SVG/1.1/DTD/svg11.dtd" >
<svg xmlns="http://www.w3.org/2000/svg" xmlns:xlink="http://www.w3.org/1999/xlink" version="1.1" viewBox="0 0 204 256">
 <g >
 <path fill="currentColor"
d=" M 69.13 173.75 C 69.26 99.50 69.26 99.50 71.91 139.70 C 73.38 161.81 74.85 180.18 75.19 180.52 C 75.76 181.09 89.91 179.51 90.44 178.82 C 90.57 178.64 88.98 156.90 86.90 130.50 C 84.82 104.10 83.09 81.04 83.06 79.25 C 83.00 76.00 83.00 76.00 76.00 76.00 C 69.00 76.00 69.00 76.00 69.00 69.04 C 69.00 62.08 69.00 62.08 78.25 61.79 C 87.50 61.50 87.50 61.50 87.78 47.75 C 88.06 34.00 88.06 34.00 78.53 34.00 C 69.00 34.00 69.00 34.00 69.00 21.00 C 69.00 8.00 69.00 8.00 51.50 8.00 C 34.00 8.00 34.00 8.00 34.00 21.00 C 34.00 34.00 34.00 34.00 23.50 34.00 C 13.00 34.00 13.00 34.00 13.00 48.00 C 13.00 61.55 13.07 62.00 15.10 62.00 C 17.16 62.00 17.19 62.22 16.56 77.75 C 15.53 103.45 11.88 237.22 12.20 237.49 C 12.37 237.63 15.76 238.05 19.75 238.43 C 27.00 239.12 27.00 239.12 27.02 235.81 C 27.09 222.23 32.99 62.68 33.44 62.23 C 33.75 61.92 34.00 103.59 34.00 154.83 C 34.00 248.00 34.00 248.00 51.50 248.00 C 69.00 248.00 69.00 248.00 69.13 173.75 Z  M 192.00 234.00 C 192.00 220.00 192.00 220.00 160.98 220.00 C 129.95 220.00 129.95 220.00 130.23 203.25 C 130.50 186.50 130.50 186.50 149.50 185.95 C 169.78 185.37 172.31 184.85 179.85 179.72 C 187.44 174.56 187.95 172.32 187.98 144.20 C 188.00 116.85 187.93 116.51 180.77 110.70 C 171.49 103.19 173.78 103.54 130.75 103.17 C 92.00 102.84 92.00 102.84 92.00 116.92 C 92.00 131.00 92.00 131.00 121.00 131.00 C 150.00 131.00 150.00 131.00 150.00 143.91 C 150.00 156.82 150.00 156.82 130.75 157.20 C 112.62 157.57 111.18 157.74 106.00 160.15 C 100.49 162.71 94.95 168.37 93.05 173.36 C 92.34 175.24 91.54 214.78 91.94 228.66 C 91.97 229.85 94.05 233.34 96.57 236.42 C 100.82 241.65 106.04 245.25 112.00 247.06 C 113.38 247.48 131.94 247.87 153.25 247.91 C 192.00 248.00 192.00 248.00 192.00 234.00 Z  M 175.51 92.14 C 180.04 90.08 185.02 84.84 187.99 79.01 C 189.87 75.33 190.00 73.14 190.00 44.54 C 190.00 14.00 190.00 14.00 176.50 14.00 C 163.00 14.00 163.00 14.00 163.00 40.57 C 163.00 67.13 163.00 67.13 160.25 66.82 C 157.50 66.50 157.50 66.50 157.23 37.25 C 156.97 8.00 156.97 8.00 140.50 8.00 C 124.03 8.00 124.03 8.00 123.77 37.25 C 123.50 66.50 123.50 66.50 121.25 66.82 C 119.00 67.14 119.00 67.14 119.00 40.57 C 119.00 14.00 119.00 14.00 104.50 14.00 C 90.00 14.00 90.00 14.00 90.00 44.53 C 90.00 74.98 90.01 75.08 92.46 79.92 C 94.86 84.66 101.75 90.77 107.10 92.92 C 108.44 93.45 123.18 93.89 140.50 93.91 C 168.41 93.95 171.90 93.77 175.51 92.14 Z "/>
</g>
</svg>