<?xml version="1.0" encoding="UTF-8" standalone="no"?>
<!DOCTYPE svg PUBLIC "-//W3C//DTD SVG 1.1//EN" "http://www.w3.org/Graphics/SVG/1.1/DTD/svg11.dtd" >
<svg xmlns="http://www.w3.org/2000/svg" xmlns:xlink="http://www.w3.org/1999/xlink" version="1.1" viewBox="0 0 204 256">
 <g >
 <path fill="currentColor"
d=" M 105.52 246.56 C 111.35 244.12 116.82 239.03 118.59 234.40 C 119.59 231.78 120.49 225.36 120.87 218.03 C 121.50 205.97 121.50 205.97 144.92 226.91 C 168.35 247.84 168.35 247.84 179.42 238.79 C 198.41 223.29 196.72 225.06 194.30 223.15 C 193.15 222.24 182.23 212.51 170.05 201.52 C 150.51 183.91 148.10 181.40 149.60 180.31 C 150.53 179.62 158.99 175.16 168.40 170.39 C 177.80 165.62 185.66 161.59 185.86 161.42 C 186.05 161.26 183.01 156.00 179.11 149.74 C 175.20 143.48 172.00 138.05 172.00 137.68 C 172.00 137.30 176.08 137.00 181.07 137.00 C 190.14 137.00 190.14 137.00 189.52 127.75 C 189.18 122.66 188.58 99.15 188.20 75.50 C 187.54 35.82 187.33 32.12 185.49 27.56 C 183.09 21.61 178.76 17.03 172.79 14.14 C 169.08 12.34 166.57 12.00 157.16 12.00 C 145.94 12.00 145.94 12.00 146.22 25.25 C 146.50 38.50 146.50 38.50 149.75 38.81 C 152.61 39.09 153.00 39.48 153.00 42.06 C 153.00 44.67 152.66 45.00 149.97 45.00 C 146.93 45.00 146.93 45.00 147.22 55.25 C 147.50 65.50 147.50 65.50 150.25 65.82 C 152.65 66.09 153.00 66.56 153.00 69.57 C 153.00 72.71 152.75 73.00 150.00 73.00 C 147.00 73.00 147.00 73.00 147.00 85.00 C 147.00 97.00 147.00 97.00 150.00 97.00 C 152.76 97.00 153.00 97.28 153.00 100.50 C 153.00 104.00 153.00 104.00 143.43 104.00 C 133.86 104.00 133.86 104.00 139.43 96.10 C 142.49 91.75 145.00 87.99 145.00 87.75 C 145.00 87.50 142.01 86.03 138.37 84.48 C 131.73 81.66 131.73 81.66 138.62 78.21 C 142.40 76.32 145.66 74.61 145.87 74.43 C 146.07 74.25 143.91 70.90 141.06 66.99 C 138.22 63.08 135.66 59.27 135.37 58.51 C 135.08 57.76 137.42 53.73 140.56 49.55 C 143.71 45.37 146.09 41.76 145.87 41.53 C 145.64 41.31 142.31 39.68 138.48 37.93 C 131.50 34.74 131.50 34.74 137.75 31.87 C 141.19 30.29 144.00 28.77 144.00 28.49 C 144.00 28.02 131.58 10.43 130.04 8.72 C 129.65 8.29 123.09 10.61 115.46 13.87 C 101.59 19.81 101.59 19.81 89.67 13.83 C 83.11 10.55 77.43 8.23 77.04 8.68 C 75.97 9.93 63.48 27.33 62.65 28.71 C 62.18 29.50 63.59 30.78 66.71 32.39 C 71.50 34.85 71.50 34.85 64.50 38.03 C 60.65 39.78 57.35 41.35 57.18 41.51 C 57.00 41.68 59.75 45.82 63.29 50.71 C 69.72 59.60 69.72 59.60 64.30 67.00 C 58.87 74.41 58.87 74.41 65.56 77.78 C 69.24 79.64 71.85 81.50 71.37 81.92 C 70.89 82.34 67.46 83.95 63.75 85.49 C 60.04 87.04 57.00 88.46 57.00 88.67 C 57.00 88.87 59.18 92.06 61.84 95.77 C 64.50 99.47 67.00 103.06 67.40 103.75 C 67.95 104.71 66.12 105.00 59.56 105.00 C 51.00 105.00 51.00 105.00 51.00 100.50 C 51.00 96.37 51.20 96.00 53.50 96.00 C 56.00 96.00 56.00 96.00 56.00 84.50 C 56.00 73.00 56.00 73.00 53.50 73.00 C 51.26 73.00 51.00 72.60 51.00 69.07 C 51.00 65.75 51.35 65.09 53.25 64.82 C 55.44 64.51 55.51 64.15 55.78 50.75 C 56.06 37.00 56.06 37.00 53.53 37.00 C 50.01 37.00 50.36 35.00 54.59 30.95 C 58.23 27.44 61.63 21.77 63.05 16.82 C 63.66 14.69 63.47 13.97 62.17 13.58 C 60.57 13.09 32.04 7.00 31.36 7.00 C 31.17 7.00 30.39 8.53 29.60 10.40 C 28.82 12.28 27.29 14.09 26.20 14.44 C 25.11 14.78 23.01 16.89 21.53 19.13 C 16.04 27.43 16.00 27.81 16.00 73.91 C 16.00 114.60 15.91 116.76 14.00 120.50 C 12.63 123.19 12.00 126.40 12.00 130.71 C 12.00 137.00 12.00 137.00 31.50 137.00 C 51.00 137.00 51.00 137.00 51.00 134.47 C 51.00 131.95 51.00 131.95 66.25 132.22 C 81.50 132.50 81.50 132.50 81.76 176.75 C 82.02 221.00 82.02 221.00 74.51 221.00 C 67.00 221.00 67.00 221.00 67.00 234.50 C 67.00 248.00 67.00 248.00 84.53 248.00 C 97.56 248.00 102.95 247.63 105.52 246.56 Z  M 60.48 212.10 C 78.93 175.08 80.17 171.52 77.61 162.74 C 76.32 158.29 74.94 156.23 70.59 152.26 C 64.09 146.31 62.73 145.89 36.23 141.61 C 15.96 138.33 15.95 138.33 15.48 140.42 C 10.09 163.87 9.21 168.51 10.05 169.03 C 10.59 169.36 17.41 170.64 25.22 171.86 C 33.03 173.08 39.50 174.18 39.60 174.29 C 39.69 174.41 32.66 188.22 23.96 204.99 C 15.26 221.76 8.29 235.62 8.47 235.80 C 8.97 236.31 42.42 245.79 43.16 245.64 C 43.53 245.56 51.32 230.47 60.48 212.10 Z  M 121.00 144.55 C 121.00 132.00 121.00 132.00 136.00 132.00 C 151.00 132.00 151.00 132.00 151.00 134.44 C 151.00 136.45 151.56 136.93 154.25 137.19 C 157.39 137.49 157.24 137.64 150.00 141.61 C 145.88 143.87 137.66 148.28 131.75 151.41 C 121.00 157.11 121.00 157.11 121.00 144.55 Z  M 92.70 100.24 C 101.90 95.60 101.90 95.60 110.41 99.67 C 115.09 101.91 118.64 104.03 118.29 104.37 C 117.95 104.72 109.98 104.97 100.58 104.94 C 83.50 104.88 83.50 104.88 92.70 100.24 Z  M 91.64 61.70 C 82.78 57.50 82.78 57.50 91.69 53.14 C 100.60 48.78 100.60 48.78 110.55 53.80 C 119.85 58.49 120.34 58.88 118.00 59.82 C 116.62 60.37 112.90 61.99 109.72 63.41 C 106.54 64.84 103.17 65.98 102.22 65.95 C 101.27 65.92 96.51 64.01 91.64 61.70 Z "/>
</g>
</svg>