<?xml version="1.0" encoding="UTF-8" standalone="no"?>
<!DOCTYPE svg PUBLIC "-//W3C//DTD SVG 1.1//EN" "http://www.w3.org/Graphics/SVG/1.1/DTD/svg11.dtd" >
<svg xmlns="http://www.w3.org/2000/svg" xmlns:xlink="http://www.w3.org/1999/xlink" version="1.1" viewBox="0 0 204 256">
 <g >
 <path fill="currentColor"
d=" M 63.57 247.32 C 69.66 245.25 79.36 235.99 80.75 230.93 C 81.65 227.63 81.39 103.89 80.48 99.43 C 80.24 98.29 78.41 95.20 76.40 92.58 C 72.32 87.23 62.86 82.00 57.25 82.00 C 55.30 82.00 54.02 81.50 54.04 80.75 C 54.06 80.06 55.56 72.53 57.36 64.00 C 60.64 48.50 60.64 48.50 71.07 48.00 C 81.50 47.50 81.50 47.50 81.78 33.25 C 82.05 19.00 82.05 19.00 48.03 19.00 C 14.00 19.00 14.00 19.00 14.00 33.50 C 14.00 48.00 14.00 48.00 18.97 48.00 C 23.86 48.00 23.94 48.05 23.42 50.75 C 20.95 63.53 12.24 119.58 12.63 120.20 C 12.90 120.64 14.22 121.00 15.56 121.00 C 18.00 121.00 18.00 121.00 18.01 174.75 C 18.01 209.17 18.39 229.86 19.06 232.28 C 20.57 237.71 25.58 242.89 32.49 246.16 C 37.85 248.69 39.58 249.00 48.57 249.00 C 55.37 249.00 60.25 248.46 63.57 247.32 Z  M 178.00 245.89 C 183.65 243.21 186.15 240.55 189.87 233.26 C 192.00 229.08 192.00 229.01 191.99 137.29 C 191.98 45.50 191.98 45.50 189.61 40.50 C 188.31 37.75 185.73 34.06 183.87 32.30 C 178.11 26.84 174.73 26.00 158.42 26.00 C 143.78 26.00 143.78 26.00 144.53 23.25 C 146.34 16.64 146.67 16.89 131.15 12.85 C 123.25 10.80 115.58 8.85 114.10 8.52 C 111.47 7.94 111.32 8.16 108.58 16.75 C 105.83 25.37 105.66 25.62 101.42 27.37 C 96.31 29.48 90.54 35.53 87.87 41.56 C 86.04 45.70 85.98 49.30 86.23 138.70 C 86.50 231.55 86.50 231.55 89.89 236.83 C 93.18 241.96 98.60 245.75 106.00 248.09 C 107.38 248.52 122.90 248.79 140.50 248.69 C 172.50 248.50 172.50 248.50 178.00 245.89 Z  M 47.00 165.93 C 47.00 114.97 47.10 111.87 48.75 112.19 C 50.39 112.51 50.52 116.00 50.76 166.26 C 51.01 219.50 51.00 220.00 49.01 220.00 C 47.02 220.00 47.00 219.41 47.00 165.93 Z  M 116.00 216.98 C 116.00 213.33 116.20 213.01 118.25 213.48 C 129.53 216.08 133.61 216.97 134.25 216.99 C 134.66 216.99 135.02 215.99 135.04 214.75 C 135.06 213.51 135.86 208.45 136.82 203.50 C 138.55 194.50 138.55 194.50 140.93 205.75 C 142.24 211.94 143.58 216.99 143.90 216.99 C 144.41 216.97 148.90 215.98 159.75 213.48 C 161.80 213.01 162.00 213.33 162.00 216.98 C 162.00 221.00 162.00 221.00 139.00 221.00 C 116.00 221.00 116.00 221.00 116.00 216.98 Z  M 155.48 169.23 C 149.46 138.47 149.46 138.47 155.61 107.49 C 161.77 76.50 161.77 76.50 161.88 138.25 C 161.95 172.21 161.89 200.00 161.75 200.00 C 161.61 200.00 158.79 186.15 155.48 169.23 Z  M 116.17 138.50 C 116.18 80.50 116.18 80.50 121.04 103.00 C 129.34 141.38 129.22 135.03 122.22 168.00 C 116.16 196.50 116.16 196.50 116.17 138.50 Z  M 136.66 73.29 C 135.75 68.30 135.00 63.49 135.00 62.61 C 135.00 60.64 133.23 60.61 125.50 62.48 C 116.03 64.77 116.00 64.75 116.00 59.00 C 116.00 54.00 116.00 54.00 139.00 54.00 C 162.00 54.00 162.00 54.00 162.00 59.00 C 162.00 64.76 161.92 64.79 152.50 62.52 C 143.07 60.24 143.53 59.94 141.50 69.75 C 138.71 83.23 138.51 83.38 136.66 73.29 Z "/>
</g>
</svg>