<?xml version="1.0" encoding="UTF-8" standalone="no"?>
<!DOCTYPE svg PUBLIC "-//W3C//DTD SVG 1.1//EN" "http://www.w3.org/Graphics/SVG/1.1/DTD/svg11.dtd" >
<svg xmlns="http://www.w3.org/2000/svg" xmlns:xlink="http://www.w3.org/1999/xlink" version="1.1" viewBox="0 0 204 256">
 <g >
 <path fill="currentColor"
d=" M 71.00 194.42 C 71.00 140.84 71.00 140.84 74.39 142.93 C 77.79 145.03 77.79 145.03 82.99 138.02 C 85.85 134.16 88.38 131.00 88.62 131.00 C 88.85 131.00 89.01 153.33 88.97 180.62 C 88.90 230.24 88.90 230.24 91.42 234.06 C 94.69 239.00 99.39 242.69 106.10 245.59 C 110.98 247.70 113.02 247.92 127.25 247.96 C 143.00 248.00 143.00 248.00 143.00 234.00 C 143.00 220.00 143.00 220.00 135.00 220.00 C 127.00 220.00 127.00 220.00 127.00 176.96 C 127.00 133.92 127.00 133.92 136.23 134.21 C 145.46 134.50 145.46 134.50 151.86 190.00 C 155.39 220.53 158.35 245.61 158.45 245.73 C 158.72 246.08 192.40 242.93 192.81 242.52 C 193.01 242.33 190.43 219.07 187.08 190.83 C 183.73 162.60 180.88 138.38 180.75 137.00 C 180.52 134.65 180.82 134.48 185.75 134.20 C 191.00 133.90 191.00 133.90 191.00 119.95 C 191.00 106.00 191.00 106.00 184.00 106.00 C 177.42 106.00 177.00 105.86 176.95 103.75 C 176.92 102.51 175.43 88.55 173.64 72.73 C 170.39 43.96 170.39 43.96 174.56 41.52 C 180.97 37.76 188.31 29.11 190.78 22.39 C 191.97 19.17 192.62 16.27 192.22 15.94 C 191.37 15.23 154.91 7.73 154.52 8.19 C 154.38 8.36 153.33 10.64 152.19 13.25 C 150.11 18.00 150.11 18.00 129.31 18.01 C 109.55 18.02 108.24 18.14 103.43 20.38 C 92.59 25.43 89.02 30.77 89.01 41.95 C 89.00 47.39 89.00 47.39 86.11 42.84 C 82.12 36.54 79.29 34.14 74.03 32.61 C 69.52 31.30 69.52 31.30 66.29 20.01 C 64.51 13.81 62.89 8.55 62.68 8.34 C 62.46 8.13 54.69 10.37 45.39 13.31 C 33.66 17.03 28.54 19.10 28.62 20.08 C 28.68 20.86 29.44 23.86 30.31 26.75 C 31.89 32.00 31.89 32.00 23.95 32.00 C 16.00 32.00 16.00 32.00 16.00 46.50 C 16.00 61.00 16.00 61.00 33.00 61.00 C 42.35 61.00 50.00 61.23 50.00 61.50 C 50.00 61.78 41.20 79.61 30.44 101.11 C 19.69 122.62 11.02 140.33 11.19 140.47 C 11.36 140.61 16.56 143.78 22.75 147.52 C 34.00 154.32 34.00 154.32 34.00 201.16 C 34.00 248.00 34.00 248.00 52.50 248.00 C 71.00 248.00 71.00 248.00 71.00 194.42 Z  M 78.82 108.15 C 74.04 105.03 69.86 102.19 69.52 101.86 C 69.03 101.36 87.16 63.51 88.58 62.09 C 88.81 61.86 89.00 73.44 89.00 87.83 C 89.00 102.22 88.66 113.96 88.25 113.92 C 87.84 113.87 83.59 111.28 78.82 108.15 Z  M 127.00 76.00 C 127.00 46.00 127.00 46.00 130.77 46.00 C 134.55 46.00 134.55 46.00 137.80 74.75 C 139.59 90.56 141.05 104.06 141.03 104.75 C 141.01 105.63 138.92 106.00 134.00 106.00 C 127.00 106.00 127.00 106.00 127.00 76.00 Z "/>
</g>
</svg>