<?xml version="1.0" encoding="UTF-8" standalone="no"?>
<!DOCTYPE svg PUBLIC "-//W3C//DTD SVG 1.1//EN" "http://www.w3.org/Graphics/SVG/1.1/DTD/svg11.dtd" >
<svg xmlns="http://www.w3.org/2000/svg" xmlns:xlink="http://www.w3.org/1999/xlink" version="1.1" viewBox="0 0 204 256">
 <g >
 <path fill="currentColor"
d=" M 175.45 246.49 C 180.92 245.63 185.59 244.75 185.81 244.52 C 186.03 244.30 184.21 226.43 181.75 204.81 C 177.29 165.50 177.29 165.50 184.20 141.64 C 188.01 128.52 190.98 117.66 190.81 117.50 C 190.64 117.34 186.22 115.90 181.00 114.31 C 171.50 111.41 171.50 111.41 170.48 100.96 C 169.39 89.72 169.59 89.04 174.10 89.02 C 177.81 88.99 183.09 85.11 185.72 80.47 C 188.67 75.26 188.64 70.57 185.45 40.52 C 182.08 8.72 183.01 11.69 176.71 12.46 C 165.16 13.89 166.11 11.14 168.65 35.78 C 171.48 63.39 171.48 63.00 169.06 63.00 C 167.99 63.00 166.91 62.66 166.65 62.24 C 166.39 61.82 164.94 49.78 163.44 35.49 C 161.94 21.19 160.40 9.15 160.02 8.72 C 159.24 7.83 136.66 9.97 134.82 11.11 C 133.90 11.68 134.25 17.39 136.33 35.68 C 137.83 48.78 139.04 60.29 139.03 61.25 C 139.00 62.88 136.78 63.00 106.50 63.00 C 74.00 63.00 74.00 63.00 74.00 76.50 C 74.00 90.00 74.00 90.00 77.00 90.00 C 79.83 90.00 80.00 90.22 80.00 94.00 C 80.00 97.78 79.83 98.00 77.00 98.00 C 74.00 98.00 74.00 98.00 74.00 111.93 C 74.00 125.87 74.00 125.87 76.75 126.18 C 79.31 126.48 79.52 126.85 79.80 131.75 C 80.10 137.00 80.10 137.00 77.05 137.00 C 74.00 137.00 74.00 137.00 74.00 151.00 C 74.00 165.00 74.00 165.00 77.00 165.00 C 79.97 165.00 80.00 165.06 80.00 170.50 C 80.00 175.94 79.97 176.00 77.00 176.00 C 74.00 176.00 74.00 176.00 74.00 190.00 C 74.00 204.00 74.00 204.00 77.00 204.00 C 80.00 204.00 80.00 204.00 80.00 212.00 C 80.00 220.00 80.00 220.00 76.89 220.00 C 73.79 220.00 73.79 220.00 74.45 229.25 C 75.53 244.51 75.37 244.14 80.83 243.50 C 83.40 243.20 98.52 241.83 114.43 240.46 C 130.34 239.09 143.56 237.78 143.79 237.54 C 144.03 237.30 143.84 232.02 143.36 225.80 C 142.50 214.50 142.50 214.50 139.75 214.18 C 137.16 213.89 137.00 213.57 137.00 208.93 C 137.00 204.21 137.12 204.00 139.75 204.01 C 143.02 204.03 153.67 207.23 154.88 208.56 C 155.35 209.08 156.76 218.41 158.02 229.30 C 160.29 249.09 160.29 249.09 162.90 248.57 C 164.33 248.28 169.98 247.34 175.45 246.49 Z  M 60.55 244.00 C 62.05 242.62 64.44 239.03 65.88 236.00 C 68.44 230.60 68.49 230.04 68.81 205.66 C 68.99 191.85 68.67 177.90 68.10 174.24 C 66.75 165.51 62.87 159.21 56.99 156.19 C 52.82 154.05 51.50 153.91 38.32 154.19 C 21.81 154.55 20.45 155.14 15.50 164.08 C 12.50 169.50 12.50 169.50 12.19 199.29 C 11.89 229.08 11.89 229.08 14.49 234.76 C 19.78 246.31 21.62 247.11 42.17 246.76 C 57.32 246.51 57.93 246.42 60.55 244.00 Z  M 66.78 131.75 C 66.50 118.50 66.50 118.50 40.25 118.23 C 14.00 117.97 14.00 117.97 14.00 131.48 C 14.00 145.00 14.00 145.00 40.53 145.00 C 67.06 145.00 67.06 145.00 66.78 131.75 Z  M 66.00 85.00 C 66.00 72.00 66.00 72.00 40.50 72.00 C 15.00 72.00 15.00 72.00 15.00 85.00 C 15.00 98.00 15.00 98.00 40.50 98.00 C 66.00 98.00 66.00 98.00 66.00 85.00 Z  M 87.15 51.25 C 87.23 46.99 87.47 44.85 87.67 46.50 C 88.59 53.88 88.32 53.64 95.47 53.18 C 101.87 52.78 102.00 52.82 102.00 55.25 C 102.00 57.44 102.54 57.80 106.64 58.36 C 116.24 59.68 115.66 60.21 116.57 49.25 C 117.34 39.93 117.41 39.72 118.10 44.50 C 118.50 47.25 118.86 51.70 118.91 54.39 C 119.00 59.29 119.00 59.29 126.19 58.62 C 130.15 58.25 133.58 57.75 133.83 57.50 C 134.07 57.26 133.69 49.11 132.96 39.41 C 131.65 21.75 131.65 21.75 125.83 22.28 C 120.00 22.81 120.00 22.81 120.00 16.92 C 120.00 10.28 119.87 10.18 110.52 9.74 C 105.54 9.50 105.54 9.50 104.31 22.89 C 102.71 40.42 102.51 41.04 101.57 31.12 C 100.77 22.74 100.77 22.74 94.88 23.28 C 88.26 23.88 88.24 23.86 89.90 15.30 C 90.81 10.60 91.22 10.86 80.80 9.43 C 76.42 8.83 76.06 8.95 75.59 11.14 C 75.04 13.73 70.99 53.47 71.00 56.19 C 71.00 57.93 73.36 58.46 82.75 58.83 C 87.00 59.00 87.00 59.00 87.15 51.25 Z  M 67.78 39.25 C 68.06 26.00 68.06 26.00 62.60 26.00 C 56.45 26.00 56.58 26.17 55.51 16.75 C 55.15 13.59 54.38 11.00 53.79 11.00 C 52.07 11.00 26.72 14.08 24.21 14.59 C 22.17 15.01 21.99 15.46 22.55 18.78 C 22.89 20.83 23.39 23.29 23.65 24.25 C 24.07 25.76 23.39 26.00 18.57 26.00 C 13.00 26.00 13.00 26.00 13.00 39.52 C 13.00 53.03 13.00 53.03 40.25 52.77 C 67.50 52.50 67.50 52.50 67.78 39.25 Z  M 107.00 153.50 C 107.00 90.67 107.02 90.00 109.00 90.00 C 110.98 90.00 111.00 90.67 111.00 153.50 C 111.00 216.33 110.98 217.00 109.00 217.00 C 107.02 217.00 107.00 216.33 107.00 153.50 Z  M 143.00 184.20 C 143.00 176.00 143.00 176.00 139.95 176.00 C 136.90 176.00 136.90 176.00 137.20 170.75 C 137.48 165.85 137.69 165.48 140.25 165.18 C 143.00 164.87 143.00 164.87 143.00 150.93 C 143.00 137.00 143.00 137.00 139.95 137.00 C 136.90 137.00 136.90 137.00 137.20 131.75 C 137.48 126.85 137.69 126.48 140.25 126.18 C 143.00 125.87 143.00 125.87 143.10 114.18 C 143.23 98.62 144.02 102.48 148.09 138.76 C 151.37 168.03 151.37 168.03 148.03 179.26 C 146.19 185.44 144.30 190.93 143.84 191.45 C 143.38 191.97 143.00 188.71 143.00 184.20 Z  M 137.00 94.00 C 137.00 90.22 137.17 90.00 140.00 90.00 C 142.83 90.00 143.00 90.22 143.00 94.00 C 143.00 97.78 142.83 98.00 140.00 98.00 C 137.17 98.00 137.00 97.78 137.00 94.00 Z  M 38.00 200.50 C 38.00 181.00 38.00 181.00 40.50 181.00 C 43.00 181.00 43.00 181.00 43.00 200.50 C 43.00 220.00 43.00 220.00 40.50 220.00 C 38.00 220.00 38.00 220.00 38.00 200.50 Z "/>
</g>
</svg>