<?xml version="1.0" encoding="UTF-8" standalone="no"?>
<!DOCTYPE svg PUBLIC "-//W3C//DTD SVG 1.1//EN" "http://www.w3.org/Graphics/SVG/1.1/DTD/svg11.dtd" >
<svg xmlns="http://www.w3.org/2000/svg" xmlns:xlink="http://www.w3.org/1999/xlink" version="1.1" viewBox="0 0 204 256">
 <g >
 <path fill="currentColor"
d=" M 176.71 230.65 C 181.78 226.72 185.83 223.18 185.71 222.79 C 185.60 222.41 172.77 206.54 157.22 187.54 C 141.66 168.54 128.73 152.44 128.49 151.75 C 128.24 151.06 139.79 137.00 154.15 120.50 C 168.65 103.83 181.20 88.50 182.38 86.00 C 184.30 81.93 184.53 79.45 184.82 59.93 C 185.13 38.51 185.12 38.33 182.51 32.43 C 179.47 25.54 176.10 21.68 170.50 18.66 C 166.53 16.51 166.05 16.50 96.25 16.22 C 26.00 15.94 26.00 15.94 26.00 29.97 C 26.00 44.00 26.00 44.00 86.00 44.00 C 146.00 44.00 146.00 44.00 146.00 57.06 C 146.00 70.11 146.00 70.11 124.44 95.07 C 112.57 108.80 102.56 119.84 102.19 119.59 C 101.81 119.35 89.58 104.30 75.00 86.14 C 60.42 67.98 48.22 53.10 47.89 53.06 C 47.44 53.02 19.87 73.81 18.26 75.41 C 18.12 75.55 31.34 91.82 47.63 111.58 C 63.92 131.34 77.46 148.04 77.71 148.69 C 77.96 149.35 64.40 165.87 47.58 185.40 C 16.98 220.92 16.98 220.92 31.89 232.91 C 46.80 244.90 46.80 244.90 73.65 213.76 C 88.42 196.64 100.95 182.03 101.50 181.29 C 102.26 180.28 109.16 187.96 129.93 212.92 C 157.37 245.88 157.37 245.88 162.43 241.84 C 165.22 239.61 171.65 234.58 176.71 230.65 Z "/>
</g>
</svg>