<?xml version="1.0" encoding="UTF-8" standalone="no"?>
<!DOCTYPE svg PUBLIC "-//W3C//DTD SVG 1.1//EN" "http://www.w3.org/Graphics/SVG/1.1/DTD/svg11.dtd" >
<svg xmlns="http://www.w3.org/2000/svg" xmlns:xlink="http://www.w3.org/1999/xlink" version="1.1" viewBox="0 0 204 256">
 <g >
 <path fill="currentColor"
d=" M 80.79 246.10 C 85.68 243.59 88.41 240.55 91.20 234.49 C 93.46 229.59 93.51 228.77 93.80 190.17 C 94.00 164.16 93.73 149.03 93.00 145.51 C 91.73 139.38 87.21 131.98 83.53 130.01 C 81.20 128.77 81.00 128.11 81.00 121.83 C 81.00 115.00 81.00 115.00 86.00 115.00 C 91.00 115.00 91.00 115.00 91.00 101.50 C 91.00 88.00 91.00 88.00 86.00 88.00 C 81.00 88.00 81.00 88.00 81.00 83.05 C 81.00 78.11 81.00 78.11 85.75 77.80 C 90.50 77.50 90.50 77.50 90.78 64.25 C 91.06 51.00 91.06 51.00 86.03 51.00 C 81.00 51.00 81.00 51.00 81.00 45.55 C 81.00 40.10 81.00 40.10 87.25 39.80 C 93.50 39.50 93.50 39.50 93.78 25.75 C 94.06 12.00 94.06 12.00 62.99 12.00 C 33.94 12.00 31.67 12.13 28.02 13.99 C 25.87 15.09 22.97 17.48 21.58 19.31 C 16.02 26.59 16.00 26.84 16.00 83.47 C 16.00 135.68 16.00 135.68 19.04 141.77 C 21.42 146.52 23.12 148.48 26.79 150.68 C 31.47 153.48 31.63 153.50 51.25 153.83 C 71.00 154.15 71.00 154.15 71.00 187.24 C 71.00 205.44 70.70 220.03 70.33 219.67 C 69.97 219.30 68.89 206.64 67.93 191.53 C 65.96 160.34 65.04 156.50 59.52 156.50 C 57.07 156.50 56.15 157.22 54.35 160.50 C 52.17 164.47 49.00 177.53 49.00 182.52 C 49.00 184.00 48.57 184.85 48.00 184.50 C 47.45 184.16 47.00 181.32 46.99 178.19 C 46.99 175.06 46.70 168.86 46.36 164.40 C 45.73 156.30 45.73 156.30 39.54 157.60 C 34.41 158.67 32.01 158.66 25.44 157.52 C 21.08 156.76 17.40 156.27 17.24 156.42 C 16.81 156.86 11.89 233.23 12.28 233.61 C 12.72 234.06 26.34 235.99 26.68 235.66 C 26.82 235.52 27.72 219.68 28.68 200.46 C 29.72 179.73 30.73 166.74 31.17 168.51 C 31.58 170.16 32.62 183.07 33.48 197.21 C 35.06 222.97 36.15 229.30 39.68 233.20 C 42.03 235.80 44.47 235.42 47.34 232.01 C 50.36 228.42 50.62 227.66 52.89 215.78 C 54.67 206.50 54.67 206.50 55.36 216.50 C 55.75 222.00 56.30 228.37 56.58 230.67 C 57.10 234.82 57.11 234.83 60.29 233.92 C 62.05 233.41 63.60 233.00 63.74 233.00 C 63.88 233.00 64.00 236.38 64.00 240.50 C 64.00 248.00 64.00 248.00 70.54 248.00 C 75.00 248.00 78.26 247.40 80.79 246.10 Z  M 137.35 227.92 C 139.75 211.61 140.31 203.85 140.85 179.50 C 141.50 150.50 141.50 150.50 144.25 150.18 C 147.00 149.87 147.00 149.87 147.00 197.93 C 147.00 246.00 147.00 246.00 166.00 246.00 C 185.00 246.00 185.00 246.00 185.00 198.00 C 185.00 150.00 185.00 150.00 188.50 150.00 C 192.00 150.00 192.00 150.00 192.00 136.00 C 192.00 122.00 192.00 122.00 188.50 122.00 C 185.00 122.00 185.00 122.00 185.00 93.00 C 185.00 64.00 185.00 64.00 187.50 64.00 C 190.00 64.00 190.00 64.00 190.00 49.50 C 190.00 35.00 190.00 35.00 187.67 35.00 C 186.38 35.00 185.11 34.77 184.83 34.50 C 184.56 34.22 184.98 29.21 185.77 23.37 C 186.81 15.69 186.90 12.56 186.10 12.06 C 184.95 11.35 151.91 6.73 151.47 7.22 C 151.34 7.37 150.16 13.57 148.85 21.00 C 146.56 34.09 146.41 34.50 143.99 34.50 C 141.60 34.50 141.38 33.94 138.58 21.00 C 136.97 13.57 135.55 7.35 135.41 7.16 C 134.97 6.57 101.55 12.25 100.63 13.07 C 100.14 13.50 100.48 17.73 101.38 22.67 C 103.61 34.78 103.58 35.00 100.00 35.00 C 97.00 35.00 97.00 35.00 97.00 49.00 C 97.00 63.00 97.00 63.00 100.50 63.00 C 104.00 63.00 104.00 63.00 104.00 92.50 C 104.00 122.00 104.00 122.00 100.50 122.00 C 97.00 122.00 97.00 122.00 97.00 135.94 C 97.00 149.87 97.00 149.87 100.25 150.19 C 103.50 150.50 103.50 150.50 103.80 168.50 C 104.05 183.61 103.58 190.96 100.91 214.28 C 99.15 229.55 97.95 242.28 98.23 242.56 C 98.84 243.17 132.06 247.88 133.50 247.56 C 134.05 247.43 135.78 238.60 137.35 227.92 Z  M 42.00 120.45 C 42.00 114.89 42.00 114.89 46.75 115.20 C 51.50 115.50 51.50 115.50 51.80 120.75 C 52.10 126.00 52.10 126.00 47.05 126.00 C 42.00 126.00 42.00 126.00 42.00 120.45 Z  M 42.00 83.05 C 42.00 78.00 42.00 78.00 47.05 78.00 C 52.11 78.00 52.11 78.00 51.80 82.75 C 51.50 87.50 51.50 87.50 46.75 87.80 C 42.00 88.11 42.00 88.11 42.00 83.05 Z  M 42.00 45.50 C 42.00 40.00 42.00 40.00 47.00 40.00 C 52.00 40.00 52.00 40.00 52.00 45.50 C 52.00 51.00 52.00 51.00 47.00 51.00 C 42.00 51.00 42.00 51.00 42.00 45.50 Z  M 140.00 93.00 C 140.00 64.00 140.00 64.00 143.50 64.00 C 147.00 64.00 147.00 64.00 147.00 93.00 C 147.00 122.00 147.00 122.00 143.50 122.00 C 140.00 122.00 140.00 122.00 140.00 93.00 Z "/>
</g>
</svg>