<?xml version="1.0" encoding="UTF-8" standalone="no"?>
<!DOCTYPE svg PUBLIC "-//W3C//DTD SVG 1.1//EN" "http://www.w3.org/Graphics/SVG/1.1/DTD/svg11.dtd" >
<svg xmlns="http://www.w3.org/2000/svg" xmlns:xlink="http://www.w3.org/1999/xlink" version="1.1" viewBox="0 0 256 256">
 <g >
 <path fill="currentColor"
d=" M 79.00 237.50 C 79.00 231.00 79.00 231.00 127.00 231.00 C 175.00 231.00 175.00 231.00 175.00 237.00 C 175.00 243.00 175.00 243.00 180.00 243.00 C 185.00 243.00 185.00 243.00 185.00 209.00 C 185.00 175.00 185.00 175.00 127.50 175.00 C 70.00 175.00 70.00 175.00 70.00 209.50 C 70.00 244.00 70.00 244.00 74.50 244.00 C 79.00 244.00 79.00 244.00 79.00 237.50 Z  M 131.20 157.25 C 131.50 150.50 131.50 150.50 167.75 150.24 C 204.00 149.98 204.00 149.98 204.00 145.49 C 204.00 141.00 204.00 141.00 167.47 141.00 C 130.94 141.00 130.94 141.00 131.22 128.75 C 131.50 116.50 131.50 116.50 159.25 116.23 C 187.00 115.97 187.00 115.97 187.00 111.98 C 187.00 108.00 187.00 108.00 159.00 108.00 C 131.00 108.00 131.00 108.00 131.00 96.50 C 131.00 85.00 131.00 85.00 160.50 85.00 C 190.00 85.00 190.00 85.00 190.00 80.52 C 190.00 76.03 190.00 76.03 160.75 75.77 C 131.50 75.50 131.50 75.50 131.21 67.25 C 130.92 59.00 130.92 59.00 127.00 59.00 C 123.08 59.00 123.08 59.00 122.79 67.25 C 122.50 75.50 122.50 75.50 93.25 75.77 C 64.00 76.03 64.00 76.03 64.00 80.52 C 64.00 85.00 64.00 85.00 93.50 85.00 C 123.00 85.00 123.00 85.00 123.00 96.50 C 123.00 108.00 123.00 108.00 95.00 108.00 C 67.00 108.00 67.00 108.00 67.00 111.98 C 67.00 115.97 67.00 115.97 94.75 116.23 C 122.50 116.50 122.50 116.50 122.78 128.75 C 123.06 141.00 123.06 141.00 87.03 141.00 C 51.00 141.00 51.00 141.00 51.00 145.49 C 51.00 149.97 51.00 149.97 86.75 150.24 C 122.50 150.50 122.50 150.50 122.80 157.25 C 123.09 164.00 123.09 164.00 127.00 164.00 C 130.91 164.00 130.91 164.00 131.20 157.25 Z  M 57.78 57.25 C 58.07 47.00 58.07 47.00 127.00 47.00 C 195.93 47.00 195.93 47.00 196.22 57.25 C 196.50 67.50 196.50 67.50 200.75 67.81 C 205.00 68.11 205.00 68.11 205.00 53.07 C 205.00 38.03 205.00 38.03 169.85 37.76 C 134.70 37.50 134.70 37.50 132.44 29.00 C 128.85 15.48 127.20 12.00 124.36 12.00 C 123.03 12.00 121.70 12.61 121.42 13.35 C 121.13 14.10 121.60 19.04 122.45 24.34 C 123.30 29.64 124.00 34.88 124.00 35.99 C 124.00 37.97 123.40 38.00 86.50 38.00 C 49.00 38.00 49.00 38.00 49.00 53.06 C 49.00 68.11 49.00 68.11 53.25 67.81 C 57.50 67.50 57.50 67.50 57.78 57.25 Z  M 79.00 203.00 C 79.00 184.00 79.00 184.00 127.00 184.00 C 175.00 184.00 175.00 184.00 175.00 203.00 C 175.00 222.00 175.00 222.00 127.00 222.00 C 79.00 222.00 79.00 222.00 79.00 203.00 Z "/>
</g>
</svg>