<?xml version="1.0" encoding="UTF-8" standalone="no"?>
<!DOCTYPE svg PUBLIC "-//W3C//DTD SVG 1.1//EN" "http://www.w3.org/Graphics/SVG/1.1/DTD/svg11.dtd" >
<svg xmlns="http://www.w3.org/2000/svg" xmlns:xlink="http://www.w3.org/1999/xlink" version="1.1" viewBox="0 0 256 256">
 <g >
 <path fill="currentColor"
d=" M 140.50 228.98 C 146.00 226.26 153.43 221.81 157.00 219.10 C 163.50 214.18 163.50 214.18 167.50 217.45 C 173.90 222.68 184.71 229.35 195.73 234.88 C 205.97 240.00 205.97 240.00 208.51 234.99 C 211.05 229.98 211.05 229.98 208.27 228.82 C 193.43 222.60 173.56 211.34 171.47 207.95 C 171.14 207.42 173.55 203.73 176.83 199.74 C 184.01 191.01 190.03 181.74 196.88 168.92 C 201.31 160.63 202.00 158.57 202.00 153.67 C 202.00 148.00 202.00 148.00 183.47 148.00 C 164.95 148.00 164.95 148.00 165.22 132.25 C 165.50 116.50 165.50 116.50 186.25 116.23 C 207.00 115.96 207.00 115.96 207.00 111.98 C 207.00 108.00 207.00 108.00 186.00 108.00 C 165.00 108.00 165.00 108.00 165.00 97.00 C 165.00 86.00 165.00 86.00 160.50 86.00 C 156.00 86.00 156.00 86.00 156.00 97.00 C 156.00 108.00 156.00 108.00 137.50 108.00 C 119.00 108.00 119.00 108.00 119.00 112.00 C 119.00 116.00 119.00 116.00 137.50 116.00 C 156.00 116.00 156.00 116.00 156.00 132.00 C 156.00 148.00 156.00 148.00 137.00 148.00 C 118.00 148.00 118.00 148.00 118.00 152.50 C 118.00 156.91 118.07 157.00 121.25 157.01 C 124.35 157.02 124.68 157.41 128.28 165.26 C 133.43 176.48 142.54 190.98 150.06 199.92 C 156.30 207.35 156.30 207.35 153.40 209.70 C 140.79 219.94 128.24 228.16 116.29 234.00 C 109.81 237.16 107.73 239.40 109.57 241.23 C 110.39 242.06 128.91 234.72 140.50 228.98 Z  M 101.00 199.70 C 101.00 158.41 101.00 158.41 107.00 148.67 C 112.85 139.17 117.00 131.64 117.00 130.53 C 117.00 129.87 110.83 126.01 109.77 126.00 C 109.37 126.00 108.08 127.91 106.90 130.25 C 99.72 144.54 85.12 165.45 74.14 177.19 C 69.96 181.66 68.18 184.30 68.60 185.39 C 68.94 186.28 69.55 187.00 69.95 187.00 C 71.27 187.00 84.43 177.31 87.44 174.11 C 89.05 172.40 90.74 171.00 91.19 171.00 C 91.63 171.00 92.00 186.75 92.00 206.00 C 92.00 241.00 92.00 241.00 96.50 241.00 C 101.00 241.00 101.00 241.00 101.00 199.70 Z  M 49.86 232.25 C 63.62 204.81 67.95 173.75 67.99 102.20 C 68.00 77.89 68.00 77.89 134.00 78.20 C 200.00 78.50 200.00 78.50 200.00 53.25 C 200.00 28.00 200.00 28.00 129.62 28.00 C 59.23 28.00 59.23 28.00 58.69 93.75 C 57.98 179.91 56.75 194.00 47.54 221.50 C 42.72 235.89 42.35 237.63 43.78 238.75 C 44.66 239.44 45.52 240.00 45.68 240.00 C 45.84 240.00 47.73 236.51 49.86 232.25 Z  M 83.82 121.25 C 87.21 119.19 92.73 114.81 96.07 111.53 C 101.76 105.94 113.00 91.11 113.00 89.21 C 113.00 88.73 111.87 87.28 110.48 85.98 C 107.56 83.23 108.48 82.55 98.93 94.50 C 95.41 98.90 88.40 106.78 83.35 112.01 C 75.83 119.80 74.33 121.84 75.13 123.26 C 76.44 125.61 76.74 125.54 83.82 121.25 Z  M 156.38 193.75 C 152.55 189.76 147.81 184.25 145.83 181.50 C 141.90 176.03 132.00 159.06 132.00 157.79 C 132.00 157.36 145.50 157.00 162.00 157.00 C 178.50 157.00 192.00 157.22 192.00 157.49 C 192.00 159.91 165.14 201.00 163.56 201.00 C 163.44 201.00 160.21 197.74 156.38 193.75 Z  M 68.00 52.50 C 68.00 36.00 68.00 36.00 130.00 36.00 C 192.00 36.00 192.00 36.00 192.00 52.50 C 192.00 69.00 192.00 69.00 130.00 69.00 C 68.00 69.00 68.00 69.00 68.00 52.50 Z "/>
</g>
</svg>