<?xml version="1.0" encoding="UTF-8" standalone="no"?>
<!DOCTYPE svg PUBLIC "-//W3C//DTD SVG 1.1//EN" "http://www.w3.org/Graphics/SVG/1.1/DTD/svg11.dtd" >
<svg xmlns="http://www.w3.org/2000/svg" xmlns:xlink="http://www.w3.org/1999/xlink" version="1.1" viewBox="0 0 256 256">
 <g >
 <path fill="currentColor"
d=" M 113.00 149.00 C 113.00 55.00 113.00 55.00 108.50 55.00 C 104.00 55.00 104.00 55.00 104.00 149.00 C 104.00 243.00 104.00 243.00 108.50 243.00 C 113.00 243.00 113.00 243.00 113.00 149.00 Z  M 50.76 229.00 C 53.44 224.32 57.02 217.12 58.72 213.00 C 62.66 203.45 68.65 179.60 70.10 167.69 C 70.71 162.63 71.43 157.82 71.70 157.00 C 72.20 155.44 79.06 168.26 86.52 184.69 C 90.70 193.88 90.70 193.88 94.35 191.28 C 96.36 189.85 98.00 188.26 98.00 187.74 C 98.00 186.28 84.27 162.31 79.11 154.76 C 76.57 151.05 73.88 148.01 73.11 148.01 C 71.99 148.00 71.85 146.56 72.40 140.51 C 73.26 131.06 74.93 62.24 74.97 34.75 C 75.00 14.00 75.00 14.00 70.62 14.00 C 66.24 14.00 66.24 14.00 65.71 69.25 C 65.20 122.08 64.18 148.05 61.95 165.50 C 59.33 186.00 53.74 207.46 46.09 226.45 C 43.05 234.01 42.35 236.72 43.20 237.74 C 44.64 239.48 44.97 239.10 50.76 229.00 Z  M 197.97 237.25 C 199.87 236.29 202.35 233.93 203.47 232.00 C 205.47 228.55 205.50 227.00 205.77 128.25 C 206.04 28.00 206.04 28.00 186.27 28.00 C 175.40 28.01 161.41 28.30 155.20 28.66 C 143.90 29.31 143.90 29.31 144.20 32.91 C 144.50 36.50 144.50 36.50 170.75 36.77 C 197.00 37.03 197.00 37.03 197.00 130.58 C 197.00 195.95 196.67 224.74 195.91 226.16 C 194.24 229.30 187.21 231.85 178.20 232.60 C 167.16 233.52 167.29 235.80 178.50 238.32 C 183.84 239.52 194.65 238.92 197.97 237.25 Z  M 166.38 200.61 C 172.40 198.10 175.77 189.59 177.92 171.50 C 179.39 159.18 179.32 155.00 177.64 155.00 C 176.69 155.00 176.07 157.05 175.60 161.75 C 174.17 176.09 169.42 189.37 164.58 192.54 C 163.01 193.57 160.52 194.01 157.44 193.81 C 153.60 193.56 152.30 192.97 150.60 190.68 C 148.55 187.92 148.49 186.78 148.19 142.37 C 147.89 96.89 147.89 96.89 144.19 97.19 C 140.50 97.50 140.50 97.50 140.50 143.50 C 140.50 188.83 140.53 189.57 142.71 194.28 C 144.28 197.69 145.86 199.47 148.21 200.49 C 152.44 202.33 162.12 202.40 166.38 200.61 Z  M 120.98 167.75 C 124.75 157.37 127.44 146.54 130.05 131.18 C 133.64 110.13 133.66 109.41 130.75 108.63 C 125.39 107.19 125.47 107.02 123.58 123.25 C 122.60 131.64 120.72 144.99 119.40 152.93 C 118.08 160.86 117.00 168.18 117.00 169.18 C 117.00 172.20 119.72 171.23 120.98 167.75 Z  M 191.59 158.39 C 192.92 158.06 194.00 157.22 194.00 156.53 C 194.00 154.14 186.12 127.45 181.97 115.75 C 178.21 105.18 177.55 104.00 175.40 104.00 C 174.08 104.00 173.00 104.44 173.00 104.99 C 173.00 105.53 175.00 113.29 177.45 122.24 C 179.89 131.18 182.61 142.66 183.48 147.75 C 185.41 159.02 185.86 160.27 187.72 159.55 C 188.53 159.24 190.27 158.72 191.59 158.39 Z  M 59.13 110.40 C 60.57 109.56 54.68 82.21 50.21 69.00 C 47.59 61.27 47.08 60.47 44.54 60.17 C 42.06 59.88 41.81 60.10 42.32 62.17 C 43.43 66.61 49.87 99.52 50.50 104.00 C 51.64 111.93 51.81 112.20 55.34 111.44 C 57.08 111.07 58.78 110.60 59.13 110.40 Z  M 87.22 100.49 C 91.51 87.79 96.99 66.71 97.00 62.88 C 97.00 60.74 96.42 60.13 93.90 59.63 C 92.19 59.29 90.45 59.22 90.03 59.48 C 89.61 59.74 88.95 62.33 88.56 65.23 C 88.18 68.13 86.10 79.50 83.94 90.50 C 81.78 101.50 80.01 110.87 80.01 111.32 C 80.00 111.78 80.79 112.00 81.75 111.81 C 82.99 111.57 84.57 108.30 87.22 100.49 Z  M 162.44 96.64 C 165.38 94.28 165.38 94.28 163.57 89.39 C 160.90 82.21 152.33 66.02 149.13 62.13 C 146.90 59.42 145.90 58.90 144.08 59.47 C 141.37 60.33 141.21 59.68 148.44 76.50 C 156.34 94.87 158.26 99.00 158.92 99.00 C 159.24 98.99 160.82 97.93 162.44 96.64 Z  M 130.34 47.44 C 132.91 45.18 133.08 44.66 132.10 41.85 C 130.66 37.73 120.93 23.22 117.28 19.75 C 114.77 17.36 114.15 17.17 112.58 18.32 C 110.89 19.55 111.28 20.62 118.64 34.80 C 122.96 43.13 126.72 49.95 127.00 49.95 C 127.28 49.94 128.78 48.81 130.34 47.44 Z "/>
</g>
</svg>