<?xml version="1.0" encoding="UTF-8" standalone="no"?>
<!DOCTYPE svg PUBLIC "-//W3C//DTD SVG 1.1//EN" "http://www.w3.org/Graphics/SVG/1.1/DTD/svg11.dtd" >
<svg xmlns="http://www.w3.org/2000/svg" xmlns:xlink="http://www.w3.org/1999/xlink" version="1.1" viewBox="0 0 256 256">
 <g >
 <path fill="currentColor"
d=" M 122.79 234.75 C 123.08 227.00 123.08 227.00 157.04 227.00 C 191.00 227.00 191.00 227.00 191.00 235.00 C 191.00 243.00 191.00 243.00 195.50 243.00 C 200.00 243.00 200.00 243.00 200.00 202.50 C 200.00 162.00 200.00 162.00 157.00 162.00 C 114.00 162.00 114.00 162.00 114.00 202.56 C 114.00 243.11 114.00 243.11 118.25 242.81 C 122.50 242.50 122.50 242.50 122.79 234.75 Z  M 80.00 235.00 C 90.99 229.39 94.03 211.70 92.06 164.84 C 90.14 119.11 87.84 101.94 80.43 78.00 C 76.87 66.50 76.87 66.50 83.19 56.91 C 86.66 51.63 91.75 42.95 94.50 37.62 C 99.50 27.93 99.50 27.93 96.16 24.90 C 92.82 21.86 92.82 21.86 85.35 35.54 C 81.25 43.07 76.74 51.03 75.35 53.24 C 72.81 57.26 72.81 57.26 68.84 49.96 C 64.16 41.33 55.93 29.22 52.66 26.15 C 50.40 24.03 50.29 24.02 48.65 25.84 C 47.04 27.61 47.29 28.25 53.65 38.60 C 61.67 51.68 68.14 65.08 67.12 66.48 C 63.01 72.11 54.48 82.77 49.80 88.13 C 44.89 93.75 44.23 94.95 45.47 95.97 C 47.41 97.59 50.92 95.12 62.13 84.25 C 70.76 75.87 70.76 75.87 71.95 79.19 C 72.61 81.01 74.42 89.03 75.99 97.00 C 78.83 111.50 78.83 111.50 74.38 122.11 C 67.19 139.26 55.62 157.39 46.09 166.44 C 42.58 169.77 42.56 169.84 44.46 172.35 C 45.80 174.11 46.05 174.06 50.26 171.17 C 60.04 164.44 69.98 151.10 77.44 134.69 C 80.67 127.59 80.67 127.59 81.32 136.04 C 83.23 160.76 84.17 195.15 83.18 204.22 C 81.03 224.05 76.02 229.27 57.75 230.69 C 51.12 231.21 50.00 231.56 50.00 233.13 C 50.00 234.22 50.91 235.16 52.25 235.44 C 53.49 235.71 55.40 236.11 56.50 236.35 C 57.60 236.58 62.46 236.82 67.29 236.88 C 74.27 236.98 76.89 236.59 80.00 235.00 Z  M 202.00 127.50 C 202.00 123.00 202.00 123.00 157.00 123.00 C 112.00 123.00 112.00 123.00 112.00 127.50 C 112.00 132.00 112.00 132.00 157.00 132.00 C 202.00 132.00 202.00 132.00 202.00 127.50 Z  M 202.00 89.50 C 202.00 85.00 202.00 85.00 157.00 85.00 C 112.00 85.00 112.00 85.00 112.00 89.50 C 112.00 94.00 112.00 94.00 157.00 94.00 C 202.00 94.00 202.00 94.00 202.00 89.50 Z  M 211.00 51.50 C 211.00 47.00 211.00 47.00 158.00 47.00 C 105.00 47.00 105.00 47.00 105.00 51.50 C 105.00 56.00 105.00 56.00 158.00 56.00 C 211.00 56.00 211.00 56.00 211.00 51.50 Z  M 163.38 43.49 C 165.37 42.65 167.00 41.62 167.00 41.18 C 167.00 39.19 159.52 22.00 156.77 17.68 C 154.06 13.43 153.39 12.94 151.10 13.51 C 149.67 13.87 148.31 14.36 148.07 14.59 C 147.28 15.38 157.90 45.00 158.97 45.00 C 159.40 45.00 161.39 44.32 163.38 43.49 Z  M 123.00 194.50 C 123.00 171.00 123.00 171.00 157.00 171.00 C 191.00 171.00 191.00 171.00 191.00 194.50 C 191.00 218.00 191.00 218.00 157.00 218.00 C 123.00 218.00 123.00 218.00 123.00 194.50 Z "/>
</g>
</svg>