<?xml version="1.0" encoding="UTF-8" standalone="no"?>
<!DOCTYPE svg PUBLIC "-//W3C//DTD SVG 1.1//EN" "http://www.w3.org/Graphics/SVG/1.1/DTD/svg11.dtd" >
<svg xmlns="http://www.w3.org/2000/svg" xmlns:xlink="http://www.w3.org/1999/xlink" version="1.1" viewBox="0 0 256 256">
 <g >
 <path fill="currentColor"
d=" M 158.00 194.33 C 158.00 167.57 158.28 145.95 158.62 146.29 C 158.97 146.64 160.74 150.56 162.56 155.01 C 166.89 165.58 174.87 180.51 181.53 190.50 C 187.36 199.24 201.48 215.77 205.18 218.19 C 207.41 219.65 207.63 219.54 210.70 215.46 C 213.91 211.20 213.91 211.20 206.29 204.85 C 194.17 194.74 183.36 181.23 174.13 164.66 C 170.56 158.24 163.00 141.47 163.00 139.96 C 163.00 139.38 172.24 139.00 186.50 139.00 C 210.00 139.00 210.00 139.00 210.00 134.50 C 210.00 130.00 210.00 130.00 184.00 130.00 C 158.00 130.00 158.00 130.00 158.00 112.94 C 158.00 95.89 158.00 95.89 153.75 96.19 C 149.50 96.50 149.50 96.50 149.23 113.25 C 148.95 130.00 148.95 130.00 124.48 130.00 C 100.00 130.00 100.00 130.00 100.00 134.50 C 100.00 139.00 100.00 139.00 120.50 139.00 C 137.54 139.00 141.00 139.24 141.00 140.42 C 141.00 143.57 134.48 160.14 129.30 170.16 C 122.18 183.92 110.72 199.11 98.60 210.81 C 89.83 219.28 89.09 220.29 90.30 222.02 C 91.59 223.85 91.83 223.79 96.79 220.46 C 114.42 208.58 134.59 182.44 145.62 157.18 C 148.98 149.50 148.98 149.50 148.99 196.25 C 149.00 243.00 149.00 243.00 153.50 243.00 C 158.00 243.00 158.00 243.00 158.00 194.33 Z  M 68.00 198.78 C 74.88 196.00 83.99 191.98 88.25 189.85 C 94.80 186.58 96.00 185.59 96.00 183.49 C 96.00 180.33 95.27 180.36 84.50 184.00 C 79.62 185.65 75.48 187.00 75.31 187.00 C 75.14 187.00 75.00 170.80 75.00 151.00 C 75.00 115.00 75.00 115.00 84.06 115.00 C 93.11 115.00 93.11 115.00 92.81 110.75 C 92.50 106.50 92.50 106.50 83.75 106.21 C 75.00 105.92 75.00 105.92 75.00 76.00 C 75.00 46.07 75.00 46.07 84.75 45.79 C 94.50 45.50 94.50 45.50 94.81 41.25 C 95.11 37.00 95.11 37.00 69.56 37.00 C 44.00 37.00 44.00 37.00 44.00 41.50 C 44.00 46.00 44.00 46.00 55.00 46.00 C 66.00 46.00 66.00 46.00 66.00 76.00 C 66.00 106.00 66.00 106.00 55.50 106.00 C 45.00 106.00 45.00 106.00 45.00 110.47 C 45.00 114.93 45.00 114.93 55.25 115.22 C 65.50 115.50 65.50 115.50 65.50 152.92 C 65.50 190.33 65.50 190.33 54.50 194.03 C 43.74 197.64 43.50 197.78 43.71 200.61 C 43.83 202.20 44.17 204.50 44.48 205.73 C 45.11 208.28 42.95 208.92 68.00 198.78 Z  M 116.19 102.03 C 123.65 95.16 133.62 82.65 140.05 72.11 C 143.34 66.73 143.34 66.73 139.92 63.89 C 138.04 62.33 136.20 61.04 135.84 61.03 C 135.47 61.01 133.60 63.82 131.67 67.26 C 126.34 76.80 117.04 90.61 110.06 99.37 C 105.23 105.42 104.10 107.45 105.14 108.11 C 107.55 109.64 108.50 109.11 116.19 102.03 Z  M 203.27 101.59 C 201.21 98.13 182.09 76.38 175.64 70.16 C 168.06 62.85 166.55 62.18 164.63 65.22 C 163.46 67.08 165.56 70.05 184.83 93.82 C 197.25 109.15 197.25 109.15 200.59 105.92 C 202.42 104.14 203.63 102.19 203.27 101.59 Z  M 111.78 54.25 C 112.05 40.00 112.05 40.00 154.00 40.00 C 195.95 40.00 195.95 40.00 196.22 54.25 C 196.50 68.50 196.50 68.50 200.75 68.81 C 205.00 69.11 205.00 69.11 205.00 50.06 C 205.00 31.00 205.00 31.00 154.00 31.00 C 103.00 31.00 103.00 31.00 103.00 50.06 C 103.00 69.11 103.00 69.11 107.25 68.81 C 111.50 68.50 111.50 68.50 111.78 54.25 Z "/>
</g>
</svg>