<?xml version="1.0" encoding="UTF-8" standalone="no"?>
<!DOCTYPE svg PUBLIC "-//W3C//DTD SVG 1.1//EN" "http://www.w3.org/Graphics/SVG/1.1/DTD/svg11.dtd" >
<svg xmlns="http://www.w3.org/2000/svg" xmlns:xlink="http://www.w3.org/1999/xlink" version="1.1" viewBox="0 0 256 256">
 <g >
 <path fill="currentColor"
d=" M 130.50 234.14 C 140.55 227.07 152.37 216.53 158.83 208.90 C 165.44 201.08 165.44 201.08 168.43 204.79 C 177.54 216.09 201.40 238.00 204.61 238.00 C 205.23 238.00 206.97 236.13 208.48 233.85 C 210.98 230.07 211.07 229.62 209.52 228.75 C 201.08 224.03 173.15 197.66 172.20 193.53 C 172.03 192.80 173.27 189.96 174.96 187.22 C 186.29 168.81 201.00 127.93 201.00 114.87 C 201.00 109.00 201.00 109.00 185.00 109.00 C 169.00 109.00 169.00 109.00 169.00 87.00 C 169.00 65.00 169.00 65.00 188.50 65.00 C 208.00 65.00 208.00 65.00 208.00 60.52 C 208.00 56.04 208.00 56.04 188.75 55.77 C 169.50 55.50 169.50 55.50 169.23 34.25 C 168.96 13.00 168.96 13.00 164.48 13.00 C 160.00 13.00 160.00 13.00 160.00 34.50 C 160.00 56.00 160.00 56.00 142.00 56.00 C 124.00 56.00 124.00 56.00 124.00 60.50 C 124.00 65.00 124.00 65.00 142.00 65.00 C 160.00 65.00 160.00 65.00 160.00 87.00 C 160.00 109.00 160.00 109.00 143.00 109.00 C 126.00 109.00 126.00 109.00 126.00 113.43 C 126.00 117.47 126.23 117.90 128.63 118.18 C 131.13 118.49 131.42 119.18 135.01 133.50 C 140.58 155.72 146.34 170.33 156.20 187.31 C 160.15 194.11 160.15 194.11 157.39 197.81 C 149.50 208.36 133.85 224.05 119.58 235.70 C 116.25 238.42 115.86 239.13 116.96 240.45 C 118.40 242.19 120.36 241.28 130.50 234.14 Z  M 61.69 229.53 C 72.87 227.28 116.17 217.56 120.25 216.37 C 121.41 216.04 122.00 214.86 122.00 212.91 C 122.00 210.38 121.68 210.03 119.75 210.45 C 118.51 210.72 112.78 211.63 107.00 212.49 C 101.22 213.34 95.15 214.31 93.50 214.64 C 90.64 215.22 90.57 215.16 92.13 213.37 C 96.29 208.60 111.00 179.42 111.00 175.95 C 111.00 174.86 105.67 172.00 103.66 172.00 C 102.03 172.00 100.38 175.72 95.01 191.50 C 91.84 200.84 86.36 214.88 85.55 215.76 C 85.24 216.10 54.10 221.64 47.69 222.50 C 42.90 223.14 42.88 223.16 43.51 226.32 C 44.77 232.60 45.04 233.03 47.32 232.49 C 48.52 232.21 54.98 230.88 61.69 229.53 Z  M 76.99 207.35 C 77.01 205.45 67.44 185.59 63.66 179.68 C 60.81 175.23 59.72 174.26 58.05 174.70 C 56.90 175.00 55.71 175.65 55.40 176.16 C 54.92 176.93 62.91 198.42 67.49 208.69 C 68.91 211.89 68.91 211.89 72.95 210.19 C 75.16 209.26 76.98 207.98 76.99 207.35 Z  M 115.77 138.25 C 115.50 111.50 115.50 111.50 82.75 111.24 C 50.00 110.97 50.00 110.97 50.00 137.99 C 50.00 165.00 50.00 165.00 83.02 165.00 C 116.03 165.00 116.03 165.00 115.77 138.25 Z  M 116.81 83.25 C 117.11 79.00 117.11 79.00 102.56 79.00 C 88.00 79.00 88.00 79.00 88.00 64.02 C 88.00 49.05 88.00 49.05 104.25 48.77 C 120.50 48.50 120.50 48.50 120.81 44.25 C 121.11 40.00 121.11 40.00 104.56 40.00 C 88.00 40.00 88.00 40.00 88.00 26.50 C 88.00 13.00 88.00 13.00 83.53 13.00 C 79.06 13.00 79.06 13.00 78.78 26.25 C 78.50 39.50 78.50 39.50 61.25 39.77 C 44.00 40.05 44.00 40.05 44.00 44.52 C 44.00 49.00 44.00 49.00 61.53 49.00 C 79.05 49.00 79.05 49.00 78.78 63.75 C 78.50 78.50 78.50 78.50 63.25 78.78 C 48.00 79.05 48.00 79.05 48.00 83.54 C 48.00 88.03 48.00 88.03 82.25 87.76 C 116.50 87.50 116.50 87.50 116.81 83.25 Z  M 160.24 175.48 C 157.49 169.99 153.80 161.45 152.05 156.50 C 148.62 146.78 142.01 122.60 142.00 119.75 C 142.00 118.13 143.86 118.00 167.00 118.00 C 180.75 118.00 192.00 118.35 192.00 118.79 C 192.00 120.15 182.38 148.16 179.14 156.24 C 177.43 160.49 173.61 168.81 170.64 174.72 C 165.25 185.46 165.25 185.46 160.24 175.48 Z  M 59.00 138.48 C 59.00 119.96 59.00 119.96 82.75 120.23 C 106.50 120.50 106.50 120.50 106.77 138.75 C 107.05 157.00 107.05 157.00 83.02 157.00 C 59.00 157.00 59.00 157.00 59.00 138.48 Z "/>
</g>
</svg>