<?xml version="1.0" encoding="UTF-8" standalone="no"?>
<!DOCTYPE svg PUBLIC "-//W3C//DTD SVG 1.1//EN" "http://www.w3.org/Graphics/SVG/1.1/DTD/svg11.dtd" >
<svg xmlns="http://www.w3.org/2000/svg" xmlns:xlink="http://www.w3.org/1999/xlink" version="1.1" viewBox="0 0 256 256">
 <g >
 <path fill="currentColor"
d=" M 70.98 222.75 C 73.61 204.75 74.09 197.31 74.60 167.00 C 75.12 135.50 75.12 135.50 87.81 123.34 C 100.50 111.18 100.50 111.18 98.37 108.34 C 97.19 106.78 95.39 105.57 94.37 105.67 C 93.34 105.76 88.29 107.47 83.14 109.48 C 78.00 111.48 73.54 112.87 73.23 112.56 C 72.92 112.25 72.33 107.84 71.92 102.75 C 71.50 97.66 70.84 92.04 70.46 90.25 C 69.75 87.00 69.75 87.00 84.42 87.00 C 99.10 87.00 99.10 87.00 98.80 81.25 C 98.50 75.50 98.50 75.50 83.58 75.00 C 68.67 74.50 68.67 74.50 66.88 64.00 C 64.77 51.63 62.04 40.76 58.99 32.66 C 56.79 26.82 56.79 26.82 53.15 27.50 C 51.15 27.87 49.13 28.42 48.66 28.71 C 47.84 29.22 48.40 52.32 49.61 67.75 C 50.17 75.00 50.17 75.00 33.59 75.00 C 17.00 75.00 17.00 75.00 17.00 81.00 C 17.00 87.00 17.00 87.00 32.94 87.00 C 41.71 87.00 49.10 87.35 49.36 87.77 C 50.07 88.93 48.08 118.33 47.23 119.12 C 46.83 119.49 39.08 120.82 30.00 122.07 C 20.93 123.32 13.39 124.41 13.25 124.50 C 12.88 124.74 20.67 163.00 21.20 163.53 C 21.74 164.07 32.37 159.86 39.21 156.39 C 41.81 155.08 44.32 154.00 44.80 154.00 C 46.18 154.00 42.27 178.47 39.03 190.16 C 37.40 196.02 33.13 207.44 29.54 215.53 C 25.94 223.63 23.00 230.42 23.00 230.63 C 23.00 230.83 33.52 231.00 46.38 231.00 C 69.77 231.00 69.77 231.00 70.98 222.75 Z  M 114.00 229.33 C 114.00 228.41 115.32 221.77 116.94 214.58 C 121.02 196.47 125.12 156.65 126.27 124.00 C 126.50 117.50 126.50 117.50 177.15 117.24 C 227.79 116.98 227.79 116.98 228.57 101.24 C 229.94 73.72 229.83 71.08 227.00 66.09 C 223.72 60.30 220.76 58.26 213.55 56.83 C 203.57 54.84 187.51 57.06 154.11 65.02 C 138.03 68.86 124.30 72.00 123.60 72.00 C 122.85 72.00 121.80 69.60 121.07 66.25 C 119.91 60.90 116.00 46.86 115.49 46.22 C 115.37 46.06 113.47 46.22 111.27 46.57 C 107.27 47.21 107.27 47.21 107.31 73.86 C 107.39 129.78 98.73 172.21 77.38 220.38 C 74.97 225.81 73.00 230.42 73.00 230.63 C 73.00 230.83 82.22 231.00 93.50 231.00 C 112.00 231.00 114.00 230.84 114.00 229.33 Z  M 166.79 218.00 C 170.61 206.88 174.19 191.41 176.73 175.00 C 177.58 169.50 177.58 169.50 181.17 176.50 C 187.21 188.28 193.40 209.55 195.51 225.75 C 196.19 231.00 196.19 231.00 217.60 231.00 C 239.02 231.00 239.02 231.00 234.88 222.76 C 227.53 208.14 216.52 193.23 199.68 175.11 C 190.76 165.50 190.76 165.50 213.88 165.23 C 237.00 164.96 237.00 164.96 237.00 158.98 C 237.00 153.00 237.00 153.00 207.50 153.00 C 178.00 153.00 178.00 153.00 177.99 148.25 C 177.98 143.18 176.36 127.02 175.47 123.20 C 174.99 121.14 174.44 120.92 170.22 121.20 C 165.50 121.50 165.50 121.50 164.76 128.00 C 164.36 131.57 163.27 138.65 162.35 143.73 C 160.67 152.95 160.67 152.95 144.08 153.23 C 127.50 153.50 127.50 153.50 127.20 159.25 C 126.90 165.00 126.90 165.00 142.02 165.00 C 159.67 165.00 158.58 163.11 150.82 180.29 C 144.54 194.23 140.57 200.69 128.94 215.99 C 123.75 222.82 119.14 229.00 118.69 229.72 C 118.03 230.80 121.95 230.99 140.19 230.77 C 162.50 230.50 162.50 230.50 166.79 218.00 Z  M 220.92 144.28 C 218.81 138.73 213.86 130.37 210.09 125.96 C 206.51 121.78 205.90 121.46 202.24 121.81 C 198.27 122.18 198.27 122.18 197.66 128.02 C 197.13 133.05 195.87 137.27 192.52 145.25 C 191.84 146.87 192.89 147.00 206.87 147.00 C 221.95 147.00 221.95 147.00 220.92 144.28 Z  M 185.42 53.75 C 183.40 47.36 180.60 42.48 176.28 37.84 C 167.56 28.46 161.95 25.55 156.58 27.61 C 155.34 28.08 155.00 29.77 155.00 35.36 C 155.00 41.22 154.46 43.64 152.00 48.84 C 150.35 52.33 149.00 55.36 149.00 55.59 C 149.00 55.82 157.36 56.00 167.57 56.00 C 186.13 56.00 186.13 56.00 185.42 53.75 Z  M 124.47 94.46 C 124.08 89.21 123.93 84.73 124.15 84.52 C 124.99 83.68 141.99 79.12 151.94 77.06 C 175.82 72.12 191.88 70.85 197.01 73.51 C 203.36 76.79 202.49 88.61 195.10 99.35 C 191.90 104.00 191.90 104.00 158.55 104.00 C 125.19 104.00 125.19 104.00 124.47 94.46 Z "/>
</g>
</svg>