<?xml version="1.0" encoding="UTF-8" standalone="no"?>
<!DOCTYPE svg PUBLIC "-//W3C//DTD SVG 1.1//EN" "http://www.w3.org/Graphics/SVG/1.1/DTD/svg11.dtd" >
<svg xmlns="http://www.w3.org/2000/svg" xmlns:xlink="http://www.w3.org/1999/xlink" version="1.1" viewBox="0 0 256 256">
 <g >
 <path fill="currentColor"
d=" M 113.33 221.25 C 116.11 210.85 120.77 184.82 123.65 163.50 C 125.63 148.86 126.10 114.21 124.61 92.75 C 123.73 80.00 123.73 80.00 167.56 80.00 C 192.70 80.00 210.99 80.37 210.45 80.88 C 208.78 82.42 193.79 86.86 184.55 88.56 C 179.63 89.46 165.90 91.40 154.05 92.87 C 132.50 95.55 132.50 95.55 132.18 98.27 C 131.87 101.00 131.87 101.00 150.83 101.00 C 171.71 101.00 171.00 100.77 171.00 107.47 C 171.00 110.77 170.97 110.79 162.79 113.00 C 153.68 115.45 154.33 115.65 149.90 108.98 C 148.45 106.79 147.95 106.66 144.40 107.54 C 140.50 108.50 140.50 108.50 139.84 118.00 C 139.10 128.62 137.72 133.22 133.09 140.51 C 129.93 145.50 129.93 145.50 150.43 145.77 C 170.93 146.04 170.93 146.04 170.84 150.50 C 170.79 152.96 170.24 155.36 169.62 155.85 C 169.01 156.33 162.92 158.58 156.09 160.84 C 142.02 165.51 142.72 165.69 139.50 156.72 C 137.81 152.04 137.58 151.83 134.71 152.41 C 129.27 153.50 129.00 154.21 129.00 167.40 C 129.00 192.39 125.99 207.19 116.32 229.75 C 115.90 230.73 120.32 231.00 136.53 231.00 C 157.28 231.00 157.28 231.00 156.59 222.25 C 155.66 210.19 153.40 197.22 150.31 186.23 C 148.88 181.13 147.97 176.70 148.28 176.39 C 148.59 176.08 153.15 174.57 158.42 173.02 C 168.66 170.03 168.67 170.03 166.97 176.16 C 166.02 179.60 165.66 179.86 160.98 180.50 C 157.58 180.97 156.00 181.65 156.00 182.65 C 156.00 184.34 161.96 208.30 162.52 208.85 C 162.72 209.06 166.85 207.32 171.70 204.99 C 179.03 201.47 181.84 199.38 188.50 192.48 C 196.63 184.07 200.12 182.01 200.79 185.25 C 201.27 187.60 196.77 197.24 192.93 202.09 C 189.83 206.00 189.83 206.00 199.92 206.00 C 205.46 206.00 210.00 206.13 210.00 206.28 C 210.00 207.30 202.88 223.15 201.14 226.00 C 199.97 227.93 199.01 229.84 199.00 230.25 C 199.00 230.66 207.52 231.00 217.93 231.00 C 239.69 231.00 236.92 234.63 239.23 203.00 C 241.65 169.75 240.33 159.16 233.19 154.35 C 227.56 150.56 221.66 149.90 207.86 151.53 C 191.05 153.51 192.00 153.63 192.00 149.50 C 192.00 146.00 192.00 146.00 207.88 146.00 C 226.17 146.00 224.36 147.51 225.59 131.25 C 226.34 121.25 225.35 116.76 221.34 111.99 C 217.25 107.13 211.55 106.03 196.55 107.19 C 189.52 107.73 183.41 107.80 182.96 107.34 C 182.51 106.88 181.84 105.26 181.46 103.75 C 180.78 101.00 180.78 101.00 203.04 101.00 C 225.30 101.00 225.30 101.00 224.73 92.24 C 224.42 87.42 224.01 82.81 223.83 81.99 C 223.58 80.87 224.64 80.43 228.09 80.20 C 232.68 79.90 232.68 79.90 233.92 67.20 C 235.79 48.07 234.01 42.77 224.17 38.16 C 218.72 35.60 217.86 35.50 202.00 35.58 C 186.78 35.66 183.18 36.07 155.50 40.91 C 113.06 48.34 117.76 48.19 115.17 42.18 C 113.98 39.40 113.00 36.63 113.00 36.02 C 113.00 35.14 109.41 27.27 108.53 26.24 C 108.41 26.10 106.22 26.76 103.66 27.71 C 98.31 29.69 98.37 29.43 100.44 42.09 C 102.56 55.00 104.34 96.79 103.70 118.40 C 103.30 131.81 102.54 140.25 101.15 146.72 C 98.93 157.03 88.75 188.75 88.19 187.08 C 88.00 186.49 88.32 178.12 88.92 168.47 C 90.27 146.60 90.29 120.44 88.99 90.00 C 87.26 49.51 85.67 41.36 78.68 37.17 C 70.96 32.54 63.80 33.65 45.75 42.25 C 38.74 45.60 32.84 48.15 32.64 47.92 C 31.97 47.14 27.16 34.52 26.45 31.67 C 25.54 28.01 24.07 27.53 19.57 29.41 C 16.17 30.83 15.94 31.18 16.48 34.22 C 18.08 43.29 19.05 54.80 20.17 78.25 C 21.95 115.49 19.56 157.53 13.96 187.24 C 12.85 193.15 11.68 198.67 11.36 199.49 C 10.86 200.82 15.09 201.00 46.39 201.00 C 65.98 201.00 82.00 201.23 82.00 201.52 C 82.00 202.64 72.59 220.73 70.04 224.50 C 68.56 226.70 67.01 229.06 66.61 229.75 C 66.04 230.73 70.64 231.00 88.30 231.00 C 110.72 231.00 110.72 231.00 113.33 221.25 Z  M 212.51 185.24 C 211.88 180.14 211.18 178.43 208.68 175.99 C 205.20 172.58 203.93 172.41 198.00 174.50 C 195.66 175.32 193.58 176.00 193.37 176.00 C 193.17 176.00 193.00 174.03 193.00 171.63 C 193.00 167.36 193.08 167.25 196.75 166.64 C 198.81 166.30 203.02 166.02 206.10 166.01 C 213.90 166.00 215.56 167.94 215.33 176.86 C 215.23 180.51 214.74 185.30 214.22 187.50 C 213.28 191.50 213.28 191.50 212.51 185.24 Z  M 46.00 161.65 C 46.00 140.84 45.51 129.80 43.95 115.53 C 42.82 105.21 42.12 96.55 42.38 96.28 C 43.24 95.42 49.71 98.02 51.42 99.91 C 54.35 103.15 54.38 108.05 51.53 119.08 C 48.24 131.81 47.44 140.67 48.87 148.33 C 50.14 155.09 54.96 166.46 56.07 165.29 C 56.48 164.86 58.29 160.90 60.08 156.50 C 61.88 152.10 63.62 148.17 63.95 147.77 C 64.81 146.74 63.32 164.52 61.51 176.78 C 60.68 182.43 60.00 187.50 60.00 188.03 C 60.00 188.56 56.85 189.00 53.00 189.00 C 46.00 189.00 46.00 189.00 46.00 161.65 Z  M 60.75 130.94 C 56.34 124.52 56.07 121.45 59.12 112.00 C 61.58 104.38 62.09 92.26 60.17 86.79 C 58.65 82.45 49.44 69.46 48.74 70.67 C 48.48 71.13 47.02 75.33 45.50 80.00 C 43.98 84.67 42.47 88.95 42.15 89.50 C 41.83 90.05 40.39 84.65 38.95 77.50 C 37.51 70.35 36.00 63.37 35.61 61.98 C 34.94 59.61 35.36 59.26 42.70 56.08 C 52.14 51.99 58.92 51.06 62.44 53.37 C 67.28 56.54 68.58 68.37 66.97 94.50 C 66.33 104.95 65.51 118.65 65.15 124.95 C 64.50 136.39 64.50 136.39 60.75 130.94 Z  M 158.62 130.88 C 157.43 124.88 157.77 124.60 168.80 122.39 C 172.00 121.75 172.00 121.75 172.00 127.88 C 172.00 134.00 172.00 134.00 165.62 134.00 C 159.28 134.00 159.25 133.98 158.62 130.88 Z  M 188.13 129.25 C 185.91 119.32 185.82 119.54 191.95 119.19 C 194.94 119.02 198.39 119.13 199.62 119.44 C 202.73 120.22 203.51 124.69 201.44 129.86 C 199.79 133.98 199.76 134.00 194.49 134.00 C 189.20 134.00 189.20 134.00 188.13 129.25 Z  M 122.39 68.26 C 122.09 67.29 121.42 65.47 120.92 64.20 C 119.06 59.55 119.23 59.47 138.25 56.68 C 176.49 51.06 201.28 49.27 203.02 52.00 C 204.37 54.12 204.20 59.74 202.62 65.00 C 201.28 69.50 201.28 69.50 162.11 69.76 C 125.46 70.01 122.91 69.91 122.39 68.26 Z "/>
</g>
</svg>