<?xml version="1.0" encoding="UTF-8" standalone="no"?>
<!DOCTYPE svg PUBLIC "-//W3C//DTD SVG 1.1//EN" "http://www.w3.org/Graphics/SVG/1.1/DTD/svg11.dtd" >
<svg xmlns="http://www.w3.org/2000/svg" xmlns:xlink="http://www.w3.org/1999/xlink" version="1.1" viewBox="0 0 256 256">
 <g >
 <path fill="currentColor"
d=" M 102.23 220.24 C 110.89 195.29 114.15 173.39 114.11 140.50 C 114.09 128.95 113.72 115.90 113.29 111.50 C 112.50 103.50 112.50 103.50 108.01 103.50 C 103.52 103.50 103.52 103.50 102.88 108.00 C 102.20 112.73 95.30 139.71 94.39 141.18 C 92.50 144.24 65.31 161.61 55.27 166.17 C 46.03 170.37 42.58 169.85 44.61 164.57 C 44.95 163.69 49.79 159.21 55.36 154.61 C 69.67 142.80 70.34 141.97 70.43 136.03 C 70.50 131.22 70.29 130.85 64.03 124.53 C 60.47 120.94 57.17 118.00 56.69 118.00 C 55.50 118.00 35.00 130.34 35.00 131.05 C 35.00 131.37 37.23 132.19 39.96 132.89 C 49.10 135.24 53.72 142.56 50.44 149.49 C 48.24 154.11 39.40 161.98 31.90 165.97 C 23.14 170.64 22.21 173.61 26.57 183.00 C 29.87 190.09 33.60 194.00 37.08 194.00 C 40.09 194.00 59.99 179.91 78.25 164.85 C 84.16 159.97 89.00 156.15 89.00 156.36 C 89.00 157.58 79.57 177.72 77.34 181.27 C 69.76 193.33 52.57 212.54 40.40 222.56 C 35.23 226.81 31.00 230.45 31.00 230.65 C 31.00 230.84 46.19 231.00 64.75 230.99 C 98.50 230.99 98.50 230.99 102.23 220.24 Z  M 242.53 226.25 C 242.15 225.29 239.84 219.10 237.40 212.50 C 234.95 205.90 230.59 196.68 227.70 192.00 C 222.60 183.74 222.33 183.49 218.32 183.20 C 213.72 182.86 213.87 182.58 212.46 193.50 C 212.10 196.25 210.39 202.55 208.65 207.50 C 205.50 216.50 205.50 216.50 185.90 216.77 C 166.29 217.04 166.29 217.04 165.61 207.77 C 164.36 190.86 161.91 171.61 159.94 163.17 C 156.78 149.60 154.11 151.00 183.14 151.00 C 208.28 151.00 208.28 151.00 207.60 143.25 C 206.98 136.03 205.62 126.50 204.46 121.25 C 204.09 119.56 203.25 119.00 201.12 119.00 C 198.92 119.00 197.63 119.92 195.48 123.02 C 191.87 128.24 181.44 134.64 167.73 140.04 C 161.81 142.38 156.81 144.11 156.64 143.90 C 156.46 143.68 155.13 139.68 153.68 135.00 C 152.24 130.32 148.46 121.33 145.28 115.00 C 139.63 103.77 139.42 103.49 135.91 103.20 C 132.31 102.90 132.31 102.90 131.69 135.70 C 130.93 176.09 128.39 194.91 120.58 218.18 C 119.16 222.40 118.00 226.34 118.00 226.93 C 118.00 227.68 136.67 228.00 180.61 228.00 C 239.83 228.00 243.18 227.91 242.53 226.25 Z  M 208.00 200.58 C 208.00 198.73 203.09 189.47 199.73 185.00 C 189.10 170.83 177.54 161.00 171.50 161.00 C 168.10 161.00 167.83 161.20 168.41 163.25 C 171.93 175.52 172.23 177.88 171.77 189.25 C 171.29 201.00 171.29 201.00 189.64 201.00 C 199.74 201.00 208.00 200.81 208.00 200.58 Z  M 205.93 107.50 C 203.12 103.92 198.95 99.38 196.66 97.40 C 190.45 92.02 167.64 77.13 157.75 72.00 C 149.07 67.50 149.07 67.50 146.50 70.06 C 143.92 72.62 143.92 72.62 149.80 84.11 C 153.59 91.52 156.48 98.85 157.95 104.80 C 160.22 114.00 160.22 114.00 185.63 114.00 C 211.03 114.00 211.03 114.00 205.93 107.50 Z  M 96.87 103.25 C 102.67 86.94 105.16 74.35 102.88 72.90 C 99.99 71.07 97.71 72.23 89.99 79.45 C 80.76 88.08 73.92 92.27 50.50 103.64 C 33.50 111.89 33.50 111.89 63.63 111.94 C 93.75 112.00 93.75 112.00 96.87 103.25 Z  M 59.36 88.36 C 59.71 85.81 60.00 81.98 60.00 79.86 C 60.00 77.74 60.34 76.00 60.75 76.00 C 61.16 75.99 72.07 74.23 85.00 72.08 C 97.93 69.94 115.70 67.68 124.50 67.07 C 133.30 66.47 147.03 65.48 155.00 64.87 C 162.97 64.27 174.38 63.94 180.33 64.14 C 191.12 64.50 191.18 64.51 194.08 67.77 C 197.65 71.76 197.92 76.59 195.00 84.00 C 193.90 86.79 193.00 89.28 193.00 89.54 C 193.00 89.79 202.52 90.00 214.15 90.00 C 235.29 90.00 235.29 90.00 234.75 80.12 C 234.10 68.42 231.89 62.53 225.80 56.31 C 223.54 54.00 219.40 51.13 216.60 49.91 C 211.61 47.76 210.94 47.73 184.50 48.44 C 169.65 48.85 156.60 49.25 155.50 49.34 C 154.14 49.45 151.35 47.06 146.93 42.00 C 142.74 37.21 137.58 32.73 132.68 29.62 C 125.07 24.77 124.97 24.75 120.64 25.96 C 116.27 27.18 116.27 27.18 115.62 34.15 C 115.05 40.35 111.35 51.58 108.89 54.60 C 108.40 55.21 103.16 56.49 97.25 57.45 C 91.34 58.41 81.15 60.28 74.61 61.60 C 68.07 62.92 61.99 64.00 61.10 64.00 C 60.03 64.00 58.83 62.18 57.63 58.75 C 56.62 55.86 54.46 51.14 52.82 48.25 C 50.35 43.87 49.39 43.00 47.05 43.00 C 43.48 43.00 42.91 43.80 39.58 53.50 C 35.88 64.29 30.72 72.70 21.04 83.75 C 12.94 93.00 12.94 93.00 35.83 93.00 C 58.73 93.00 58.73 93.00 59.36 88.36 Z "/>
</g>
</svg>