<?xml version="1.0" encoding="UTF-8" standalone="no"?>
<!DOCTYPE svg PUBLIC "-//W3C//DTD SVG 1.1//EN" "http://www.w3.org/Graphics/SVG/1.1/DTD/svg11.dtd" >
<svg xmlns="http://www.w3.org/2000/svg" xmlns:xlink="http://www.w3.org/1999/xlink" version="1.1" viewBox="0 0 256 256">
 <g >
 <path fill="currentColor"
d=" M 110.54 225.50 C 111.23 220.00 111.23 220.00 177.62 220.00 C 244.00 220.00 244.00 220.00 244.00 213.50 C 244.00 207.00 244.00 207.00 230.63 207.00 C 217.26 207.00 217.26 207.00 216.56 190.75 C 215.65 169.74 212.69 140.05 209.42 119.25 C 208.91 116.00 208.91 116.00 223.82 116.00 C 238.74 116.00 238.74 116.00 239.36 112.25 C 240.99 102.40 242.05 103.00 223.07 103.00 C 206.14 103.00 206.14 103.00 205.02 97.25 C 201.41 78.85 192.39 47.47 187.02 34.66 C 183.74 26.81 183.74 26.81 179.12 27.50 C 176.58 27.88 174.27 28.34 173.98 28.51 C 173.69 28.69 174.02 33.93 174.71 40.17 C 175.40 46.40 176.26 69.50 176.62 91.50 C 177.35 136.17 176.26 163.07 172.63 190.00 C 170.40 206.50 170.40 206.50 167.37 206.80 C 164.33 207.10 164.33 207.10 163.10 188.41 C 161.52 164.35 157.58 127.71 155.51 117.67 C 153.46 107.80 149.09 95.36 143.21 82.68 C 138.63 72.83 138.63 72.83 134.07 73.51 C 131.55 73.88 129.33 74.35 129.12 74.56 C 128.91 74.76 129.30 79.11 130.00 84.21 C 130.90 90.84 131.11 102.67 130.73 125.50 C 130.19 158.83 129.64 164.54 124.32 192.75 C 121.63 207.00 121.63 207.00 117.17 207.00 C 112.72 207.00 112.72 207.00 113.40 193.75 C 113.78 186.46 114.55 176.45 115.12 171.50 C 116.16 162.50 116.16 162.50 121.70 156.85 C 127.24 151.20 127.24 151.20 124.45 147.70 C 121.65 144.19 121.65 144.19 117.94 146.54 C 115.89 147.83 113.95 148.61 113.61 148.28 C 113.27 147.94 113.00 145.29 113.00 142.38 C 113.00 124.72 102.91 80.08 94.56 60.78 C 93.88 59.23 94.85 59.04 104.66 58.78 C 115.50 58.50 115.50 58.50 115.80 52.25 C 116.10 46.00 116.10 46.00 67.05 46.00 C 18.00 46.00 18.00 46.00 18.00 52.50 C 18.00 59.00 18.00 59.00 26.35 59.00 C 34.71 59.00 34.71 59.00 35.32 66.25 C 38.34 102.02 36.46 134.43 29.91 159.25 C 28.92 163.00 28.92 163.00 19.85 163.00 C 11.70 163.00 10.85 163.17 11.44 164.72 C 11.81 165.66 15.24 175.45 19.06 186.47 C 22.89 197.48 26.23 207.06 26.48 207.74 C 26.80 208.62 30.69 207.67 40.21 204.38 C 55.39 199.12 65.10 194.77 72.99 189.68 C 76.00 187.73 78.65 186.31 78.86 186.53 C 79.89 187.56 74.15 206.80 69.76 217.00 C 67.04 223.32 64.59 229.06 64.30 229.75 C 63.90 230.73 68.78 231.00 86.82 231.00 C 109.86 231.00 109.86 231.00 110.54 225.50 Z  M 65.60 155.75 C 65.31 153.41 64.81 147.22 64.50 142.00 C 63.92 132.50 63.92 132.50 67.21 138.14 C 69.02 141.24 71.43 145.01 72.57 146.51 C 74.64 149.23 74.64 149.23 79.92 142.11 C 82.82 138.20 85.26 135.00 85.34 135.00 C 85.43 135.00 85.28 139.83 85.00 145.74 C 84.50 156.48 84.50 156.48 77.50 158.16 C 66.57 160.78 66.21 160.71 65.60 155.75 Z  M 79.83 123.71 C 77.45 121.89 75.35 119.40 75.18 118.17 C 75.00 116.94 76.24 111.94 77.93 107.06 C 81.45 96.89 81.72 92.18 79.12 86.46 C 77.43 82.74 66.61 70.00 65.14 70.00 C 64.79 70.00 62.73 73.15 60.56 77.00 C 58.40 80.85 56.35 84.00 56.01 84.00 C 55.67 84.00 54.54 80.74 53.52 76.75 C 52.49 72.76 50.61 67.14 49.34 64.25 C 47.03 59.00 47.03 59.00 64.41 59.00 C 81.79 59.00 81.79 59.00 82.92 65.45 C 86.14 83.95 87.65 127.00 85.08 127.00 C 84.57 127.00 82.21 125.52 79.83 123.71 Z  M 62.53 118.48 C 62.14 114.36 61.02 107.06 60.04 102.25 C 59.05 97.44 58.39 93.33 58.58 93.13 C 59.53 92.06 64.74 94.54 67.66 97.46 C 71.89 101.69 71.95 104.93 67.97 115.00 C 66.34 119.12 65.01 123.04 65.00 123.69 C 65.00 124.35 64.60 125.13 64.12 125.43 C 63.63 125.73 62.92 122.60 62.53 118.48 Z "/>
</g>
</svg>