<?xml version="1.0" encoding="UTF-8" standalone="no"?>
<!DOCTYPE svg PUBLIC "-//W3C//DTD SVG 1.1//EN" "http://www.w3.org/Graphics/SVG/1.1/DTD/svg11.dtd" >
<svg xmlns="http://www.w3.org/2000/svg" xmlns:xlink="http://www.w3.org/1999/xlink" version="1.1" viewBox="0 0 256 256">
 <g >
 <path fill="currentColor"
d=" M 86.00 206.47 C 107.72 196.13 125.71 187.49 125.97 187.27 C 126.32 186.99 121.98 178.23 120.49 176.23 C 120.39 176.08 111.57 179.95 100.90 184.83 C 90.23 189.71 81.34 193.57 81.15 193.41 C 80.95 193.26 81.36 179.48 82.04 162.81 C 83.93 117.15 82.02 101.61 73.79 95.64 C 70.30 93.11 61.46 92.36 54.20 93.98 C 46.73 95.65 19.36 106.81 16.25 109.45 C 15.89 109.76 19.16 119.38 19.93 120.25 C 20.29 120.66 24.62 119.34 29.55 117.32 C 34.47 115.30 40.84 113.45 43.69 113.21 C 48.69 112.78 48.96 112.89 51.00 116.13 C 53.53 120.15 53.31 124.34 49.43 147.00 C 44.60 175.14 39.56 194.74 32.82 211.61 C 28.75 221.78 28.75 221.78 31.92 226.38 C 35.09 230.99 35.09 230.99 40.79 228.14 C 43.93 226.57 64.28 216.82 86.00 206.47 Z  M 195.42 225.75 C 196.80 212.94 197.63 181.25 196.93 167.91 C 194.84 127.83 189.31 103.26 175.32 72.00 C 171.75 64.03 168.59 56.94 168.31 56.25 C 167.90 55.26 175.70 55.00 205.39 55.00 C 243.00 55.00 243.00 55.00 243.00 48.50 C 243.00 42.00 243.00 42.00 167.50 42.00 C 92.00 42.00 92.00 42.00 92.00 48.50 C 92.00 55.00 92.00 55.00 122.39 55.00 C 152.77 55.00 152.77 55.00 154.89 66.12 C 158.29 83.97 159.27 99.37 158.71 126.00 C 158.26 147.44 157.87 152.06 155.55 163.00 C 150.75 185.67 143.05 205.44 131.99 223.51 C 129.80 227.10 128.00 230.25 128.00 230.52 C 128.00 230.78 143.04 231.00 161.43 231.00 C 194.86 231.00 194.86 231.00 195.42 225.75 Z  M 89.00 77.36 C 89.00 76.45 88.10 72.70 87.01 69.02 C 83.51 57.29 73.34 44.03 59.21 32.77 C 52.92 27.76 52.92 27.76 48.37 29.04 C 44.19 30.21 43.87 30.52 44.43 32.90 C 47.04 44.06 45.60 61.06 41.01 73.20 C 40.03 75.78 39.48 78.15 39.78 78.45 C 40.09 78.75 51.28 79.00 64.67 79.00 C 86.57 79.00 89.00 78.84 89.00 77.36 Z "/>
</g>
</svg>