<?xml version="1.0" encoding="UTF-8" standalone="no"?>
<!DOCTYPE svg PUBLIC "-//W3C//DTD SVG 1.1//EN" "http://www.w3.org/Graphics/SVG/1.1/DTD/svg11.dtd" >
<svg xmlns="http://www.w3.org/2000/svg" xmlns:xlink="http://www.w3.org/1999/xlink" version="1.1" viewBox="0 0 237 256">
 <g >
 <path fill="currentColor"
d=" M 104.50 224.98 C 143.55 222.27 178.60 219.76 182.40 219.41 C 189.30 218.77 189.30 218.77 188.74 224.88 C 188.19 231.00 188.19 231.00 210.22 231.00 C 232.24 231.00 232.24 231.00 231.61 185.75 C 231.27 160.86 230.71 127.11 230.37 110.75 C 229.76 81.00 229.76 81.00 218.38 81.00 C 207.26 81.00 207.00 81.05 206.96 83.25 C 206.88 87.19 205.24 100.10 204.75 100.58 C 204.49 100.84 198.74 98.57 191.97 95.53 C 185.20 92.49 179.29 90.00 178.84 90.00 C 178.40 90.00 176.62 92.81 174.90 96.25 C 173.17 99.69 171.61 102.67 171.43 102.87 C 170.89 103.46 158.00 100.84 158.00 100.15 C 158.00 99.80 166.10 91.41 176.00 81.50 C 194.01 63.47 194.01 63.47 178.23 56.29 C 169.55 52.34 161.73 48.83 160.85 48.50 C 159.55 48.00 157.76 52.24 150.88 72.19 C 146.27 85.56 142.37 95.55 142.20 94.38 C 142.03 93.21 142.82 78.77 143.95 62.29 C 145.08 45.81 146.00 30.83 146.00 29.01 C 146.00 25.70 146.00 25.70 124.94 26.25 C 113.36 26.54 103.61 27.05 103.29 27.38 C 102.96 27.71 103.55 44.18 104.60 63.99 C 105.64 83.80 106.27 100.00 106.00 100.00 C 105.72 100.00 100.19 97.75 93.70 95.00 C 87.21 92.25 81.57 90.00 81.16 90.00 C 80.76 90.00 78.99 92.92 77.22 96.50 C 73.71 103.63 73.66 103.65 65.14 101.66 C 59.78 100.41 59.78 100.41 78.39 82.32 C 88.63 72.37 97.00 64.02 97.00 63.78 C 97.00 63.14 62.00 47.65 61.63 48.12 C 61.46 48.33 56.96 61.10 51.63 76.50 C 41.94 104.50 41.94 104.50 42.46 95.25 C 42.98 86.00 42.98 86.00 23.43 86.00 C 3.88 86.00 3.88 86.00 4.46 90.25 C 4.78 92.59 8.19 123.52 12.03 159.00 C 15.87 194.48 19.27 225.21 19.60 227.30 C 20.19 231.10 20.19 231.10 26.85 230.51 C 30.51 230.18 65.45 227.69 104.50 224.98 Z  M 156.65 198.91 C 145.74 198.49 136.54 197.87 136.21 197.54 C 135.63 196.96 139.95 111.88 140.59 111.13 C 140.99 110.66 159.00 124.96 159.00 125.75 C 159.00 126.06 155.62 132.74 151.50 140.60 C 147.38 148.45 144.00 155.52 144.00 156.30 C 144.00 157.09 144.99 160.11 146.20 163.02 C 148.39 168.30 148.39 168.30 166.64 167.69 C 187.06 167.01 185.21 166.36 186.51 174.75 C 186.88 177.09 187.38 179.00 187.64 179.00 C 187.89 179.00 189.47 178.29 191.14 177.43 C 192.82 176.56 194.39 176.05 194.63 176.30 C 195.07 176.74 193.37 193.51 192.45 197.75 C 191.89 200.33 192.44 200.31 156.65 198.91 Z  M 73.00 195.44 C 58.42 194.75 45.26 194.14 43.75 194.09 C 41.00 194.00 41.00 194.00 41.14 167.75 C 41.21 153.31 41.55 134.42 41.89 125.77 C 42.50 110.04 42.50 110.04 52.16 117.71 C 61.82 125.38 61.82 125.38 53.77 140.94 C 45.72 156.50 45.72 156.50 48.37 162.41 C 51.03 168.31 51.03 168.31 69.43 167.70 C 87.82 167.09 87.82 167.09 88.53 172.29 C 88.91 175.16 89.41 177.80 89.63 178.17 C 89.85 178.55 94.52 176.78 100.01 174.25 C 105.50 171.73 110.17 169.85 110.38 170.08 C 110.59 170.31 111.16 176.46 111.63 183.75 C 112.64 199.08 117.64 197.56 73.00 195.44 Z  M 62.00 153.70 C 62.00 152.93 107.07 112.73 107.47 113.14 C 108.04 113.73 109.32 152.00 108.77 152.00 C 108.49 152.00 104.52 147.78 99.95 142.62 C 91.64 133.24 91.64 133.24 87.22 134.75 C 82.99 136.19 82.83 136.39 83.48 139.38 C 85.79 150.03 86.20 149.38 75.85 151.35 C 70.71 152.32 65.49 153.37 64.25 153.67 C 63.01 153.97 62.00 153.99 62.00 153.70 Z  M 159.06 153.61 C 162.88 149.76 202.56 114.23 202.79 114.46 C 203.16 114.82 200.05 139.79 199.38 141.93 C 199.06 142.92 197.44 141.89 194.03 138.53 C 189.13 133.70 189.13 133.70 184.65 134.96 C 180.19 136.21 180.17 136.24 180.79 139.86 C 182.40 149.11 182.37 149.16 173.52 151.11 C 162.09 153.62 158.42 154.26 159.06 153.61 Z "/>
</g>
</svg>