<?xml version="1.0" encoding="UTF-8" standalone="no"?>
<!DOCTYPE svg PUBLIC "-//W3C//DTD SVG 1.1//EN" "http://www.w3.org/Graphics/SVG/1.1/DTD/svg11.dtd" >
<svg xmlns="http://www.w3.org/2000/svg" xmlns:xlink="http://www.w3.org/1999/xlink" version="1.1" viewBox="0 0 223 256">
 <g >
 <path fill="currentColor"
d=" M 213.97 231.75 C 213.90 226.87 207.22 143.89 206.87 143.56 C 206.67 143.36 195.70 142.67 182.50 142.01 C 169.30 141.35 157.46 140.51 156.20 140.14 C 153.94 139.48 154.01 139.31 159.03 132.15 C 161.86 128.13 163.99 124.65 163.76 124.43 C 163.15 123.82 124.17 109.00 123.17 109.00 C 122.69 109.00 119.21 115.57 115.44 123.60 C 108.57 138.20 108.57 138.20 94.53 137.55 C 86.81 137.19 79.26 136.66 77.75 136.37 C 75.00 135.84 75.00 135.84 75.00 154.07 C 75.00 172.30 75.00 172.30 84.00 171.71 C 88.95 171.39 93.00 171.47 93.00 171.89 C 93.00 172.30 88.50 182.91 83.00 195.45 C 77.50 207.99 73.00 218.42 73.00 218.62 C 73.00 218.82 77.90 221.44 83.88 224.44 C 94.76 229.90 94.76 229.90 114.63 200.04 C 134.50 170.19 134.50 170.19 150.00 169.56 C 158.53 169.22 168.09 168.68 171.25 168.37 C 178.12 167.69 177.84 165.82 174.16 187.50 C 171.45 203.50 171.45 203.50 164.73 204.41 C 158.00 205.32 158.00 205.32 158.00 214.04 C 158.00 222.77 158.00 222.77 162.62 223.47 C 167.24 224.16 167.24 224.16 166.77 229.08 C 166.29 234.00 166.29 234.00 190.15 234.00 C 214.00 234.00 214.00 234.00 213.97 231.75 Z  M 52.37 196.52 C 62.07 185.80 70.00 176.61 70.00 176.09 C 70.00 175.57 67.26 170.89 63.91 165.68 C 57.82 156.22 57.82 156.22 40.16 164.21 C 30.45 168.60 19.31 173.62 15.42 175.35 C 11.53 177.08 8.25 178.95 8.13 179.50 C 7.87 180.71 32.84 216.00 33.95 216.00 C 34.39 216.00 42.67 207.23 52.37 196.52 Z  M 55.48 143.25 C 55.86 142.29 57.66 137.42 59.47 132.44 C 62.77 123.38 62.77 123.38 41.14 109.44 C 29.24 101.77 19.08 95.50 18.56 95.50 C 17.55 95.50 3.92 141.16 4.68 141.98 C 5.16 142.50 37.12 144.61 48.14 144.85 C 53.62 144.97 54.91 144.69 55.48 143.25 Z  M 216.98 123.75 C 216.91 116.64 214.09 79.75 213.57 79.24 C 213.24 78.91 191.93 79.63 166.23 80.84 C 107.20 83.64 110.80 83.66 111.59 80.50 C 112.22 78.00 112.22 78.00 90.00 78.00 C 67.79 78.00 67.79 78.00 68.43 94.75 C 68.78 103.96 69.33 113.64 69.63 116.25 C 70.19 121.00 70.19 121.00 80.55 121.00 C 90.91 121.00 90.91 121.00 95.55 112.00 C 100.20 103.00 100.20 103.00 104.35 102.98 C 109.25 102.95 182.36 107.19 182.80 107.53 C 182.96 107.65 181.50 111.61 179.55 116.32 C 177.60 121.03 176.00 125.14 176.00 125.44 C 176.00 125.75 185.22 126.00 196.50 126.00 C 217.00 126.00 217.00 126.00 216.98 123.75 Z  M 55.50 87.25 C 57.32 82.78 62.00 68.49 62.00 67.39 C 62.00 66.28 21.37 39.29 18.85 38.74 C 17.95 38.54 3.49 84.92 4.26 85.55 C 4.70 85.90 42.36 88.72 48.64 88.86 C 53.64 88.97 54.92 88.67 55.50 87.25 Z  M 117.91 64.25 C 119.35 58.00 119.35 58.00 132.55 58.00 C 139.81 58.00 147.17 58.28 148.91 58.63 C 152.07 59.26 152.07 59.26 151.41 65.13 C 150.74 71.00 150.74 71.00 171.48 71.00 C 192.22 71.00 192.22 71.00 191.56 68.38 C 189.29 59.33 188.58 60.00 200.38 60.00 C 211.00 60.00 211.00 60.00 211.00 44.35 C 211.00 28.70 211.00 28.70 197.07 29.25 C 183.15 29.81 183.15 29.81 182.32 23.65 C 181.50 17.50 181.50 17.50 170.33 17.22 C 159.17 16.94 159.17 16.94 158.46 23.55 C 158.07 27.18 157.24 30.33 156.63 30.54 C 155.09 31.05 125.60 32.79 125.12 32.39 C 124.91 32.22 125.47 29.15 126.37 25.58 C 127.27 22.01 128.00 18.62 128.00 18.04 C 128.00 17.35 121.05 17.00 107.40 17.00 C 86.80 17.00 86.80 17.00 87.50 24.25 C 87.89 28.24 88.28 31.95 88.36 32.50 C 88.44 33.05 85.80 33.61 82.50 33.74 C 79.20 33.87 74.59 34.24 72.25 34.55 C 68.00 35.12 68.00 35.12 68.00 46.06 C 68.00 57.00 68.00 57.00 80.00 57.00 C 92.00 57.00 92.00 57.00 92.00 62.42 C 92.00 71.36 91.61 71.10 104.85 70.78 C 116.46 70.50 116.46 70.50 117.91 64.25 Z "/>
</g>
</svg>