<?xml version="1.0" encoding="UTF-8" standalone="no"?>
<!DOCTYPE svg PUBLIC "-//W3C//DTD SVG 1.1//EN" "http://www.w3.org/Graphics/SVG/1.1/DTD/svg11.dtd" >
<svg xmlns="http://www.w3.org/2000/svg" xmlns:xlink="http://www.w3.org/1999/xlink" version="1.1" viewBox="0 0 248 264">
 <g >
 <path fill="currentColor"
d=" M 231.44 243.98 C 236.91 243.41 241.52 242.82 241.68 242.65 C 241.93 242.40 235.01 217.52 228.90 196.75 C 226.92 190.00 226.92 190.00 219.96 190.00 C 213.00 190.00 213.00 190.00 213.00 218.06 C 213.00 246.12 213.00 246.12 217.25 245.57 C 219.59 245.26 225.97 244.54 231.44 243.98 Z  M 207.88 233.25 C 207.82 226.79 207.48 218.76 207.13 215.42 C 206.50 209.34 206.50 209.34 183.50 220.15 C 168.66 227.13 160.38 230.52 160.17 229.73 C 147.55 182.85 149.55 186.52 136.50 186.24 C 124.50 185.99 124.50 185.99 108.50 203.57 C 99.70 213.24 92.38 221.47 92.24 221.86 C 92.10 222.25 96.86 227.12 102.82 232.70 C 113.66 242.82 113.66 242.82 122.58 222.50 C 127.49 211.32 131.66 202.33 131.85 202.53 C 132.05 202.72 131.40 211.67 130.42 222.42 C 129.43 233.17 128.85 242.19 129.13 242.46 C 129.55 242.88 172.15 244.32 199.75 244.84 C 208.00 245.00 208.00 245.00 207.88 233.25 Z  M 47.00 232.05 C 47.00 230.48 54.93 161.74 55.49 158.46 C 56.01 155.43 56.01 155.43 45.42 152.83 C 34.83 150.23 34.83 150.23 32.85 154.86 C 31.75 157.41 25.30 172.32 18.50 188.00 C 11.70 203.68 5.99 217.12 5.82 217.87 C 5.59 218.85 11.36 221.24 25.50 226.05 C 47.58 233.55 47.00 233.39 47.00 232.05 Z  M 86.97 227.25 C 86.92 225.81 111.34 51.50 111.65 51.10 C 112.01 50.65 206.93 55.83 211.69 56.57 C 214.87 57.07 214.87 57.07 213.44 60.50 C 212.65 62.39 212.00 64.40 212.00 64.97 C 212.00 65.63 217.04 66.00 226.00 66.00 C 240.00 66.00 240.00 66.00 240.00 60.25 C 239.99 57.09 239.70 49.37 239.33 43.10 C 238.68 31.70 238.68 31.70 198.84 32.25 C 167.22 32.70 159.00 32.55 159.00 31.56 C 159.00 30.86 159.49 28.88 160.10 27.15 C 161.20 24.00 161.20 24.00 200.10 24.00 C 239.00 24.00 239.00 24.00 239.00 13.00 C 239.00 6.26 238.61 2.00 237.99 2.00 C 236.52 2.00 175.28 7.83 170.14 8.46 C 165.94 8.97 165.81 8.90 166.39 6.59 C 166.72 5.27 167.27 3.47 167.60 2.59 C 168.15 1.16 165.88 1.00 145.61 1.00 C 133.13 1.00 123.00 1.40 123.00 1.89 C 123.00 2.37 124.58 9.31 126.50 17.29 C 128.43 25.28 130.00 32.30 130.00 32.90 C 130.00 33.61 127.13 34.00 122.00 34.00 C 115.67 34.00 114.00 33.70 114.00 32.55 C 114.00 31.67 112.70 30.89 110.75 30.59 C 104.45 29.63 72.83 27.83 72.26 28.41 C 71.75 28.92 63.15 210.77 63.04 223.25 C 63.00 228.00 63.00 228.00 75.00 228.00 C 81.60 228.00 86.99 227.66 86.97 227.25 Z  M 179.91 211.01 C 188.30 207.16 195.56 203.77 196.05 203.47 C 197.17 202.77 175.07 182.40 173.60 182.79 C 172.99 182.94 170.13 184.01 167.22 185.16 C 163.35 186.70 162.07 187.69 162.40 188.88 C 162.65 189.77 163.15 196.69 163.53 204.25 C 163.90 211.81 164.31 218.00 164.43 218.00 C 164.56 218.00 171.52 214.85 179.91 211.01 Z  M 237.98 182.75 C 237.91 179.19 232.07 112.75 231.81 112.60 C 231.64 112.51 215.75 112.96 196.50 113.62 C 145.21 115.37 137.00 115.35 137.00 113.47 C 137.00 112.16 135.26 111.98 125.26 112.22 C 113.52 112.50 113.52 112.50 110.33 143.00 C 108.58 159.78 107.11 175.02 107.07 176.87 C 107.00 180.24 107.00 180.24 139.25 179.61 C 156.99 179.26 178.20 178.70 186.40 178.37 C 201.30 177.76 201.30 177.76 200.67 180.88 C 200.05 184.00 200.05 184.00 219.03 184.00 C 233.55 184.00 237.99 183.71 237.98 182.75 Z  M 30.50 129.47 C 42.05 128.61 52.46 127.71 53.64 127.46 C 55.50 127.08 56.03 125.62 57.78 116.26 C 58.89 110.34 59.73 105.45 59.65 105.38 C 58.06 104.06 13.56 80.11 13.26 80.41 C 13.02 80.65 11.31 90.66 9.46 102.67 C 7.61 114.68 5.83 125.96 5.50 127.75 C 4.79 131.68 2.62 131.53 30.50 129.47 Z  M 239.00 95.00 C 239.00 83.00 239.00 83.00 234.63 83.00 C 230.30 83.00 230.25 82.96 229.62 79.00 C 228.98 75.00 228.98 75.00 221.99 75.00 C 215.30 75.00 215.00 75.10 215.00 77.38 C 215.00 78.68 214.73 81.08 214.41 82.70 C 213.82 85.64 213.82 85.64 188.89 87.97 C 175.18 89.25 163.69 90.02 163.35 89.68 C 163.01 89.34 163.30 87.70 163.99 86.03 C 165.24 83.00 165.24 83.00 186.62 83.00 C 208.00 83.00 208.00 83.00 208.00 74.41 C 208.00 65.81 208.00 65.81 188.95 66.16 C 167.93 66.54 169.17 66.93 171.60 60.59 C 172.15 59.17 170.01 59.00 151.11 59.00 C 130.00 59.00 130.00 59.00 130.00 63.00 C 130.00 67.00 130.00 67.00 123.00 67.00 C 116.00 67.00 116.00 67.00 116.00 74.00 C 116.00 81.00 116.00 81.00 123.75 81.02 C 128.01 81.02 132.00 81.36 132.61 81.77 C 133.21 82.17 134.53 87.77 135.53 94.21 C 136.89 102.95 137.75 106.03 138.93 106.34 C 139.79 106.58 162.66 106.82 189.75 106.88 C 239.00 107.00 239.00 107.00 239.00 95.00 Z  M 34.66 59.39 C 57.82 57.68 57.82 57.68 59.49 48.09 C 60.40 42.82 61.23 37.86 61.33 37.08 C 61.43 36.19 52.90 30.89 38.51 22.90 C 25.87 15.89 15.37 10.30 15.18 10.49 C 14.88 10.79 7.11 59.22 7.03 61.27 C 7.01 61.69 8.01 61.83 9.25 61.57 C 10.49 61.31 21.92 60.33 34.66 59.39 Z  M 186.82 164.29 C 184.35 163.91 184.19 163.60 184.71 160.19 C 185.03 158.16 185.33 156.45 185.39 156.40 C 185.45 156.34 189.44 156.74 194.25 157.27 C 201.64 158.09 203.00 158.52 203.00 160.04 C 203.00 164.37 202.02 165.01 195.64 164.85 C 192.26 164.77 188.30 164.52 186.82 164.29 Z  M 152.00 161.33 C 142.77 160.41 142.00 160.08 142.00 157.07 C 142.00 154.22 142.00 154.22 150.75 154.69 C 161.85 155.28 162.00 155.34 162.00 158.97 C 162.00 162.25 161.75 162.30 152.00 161.33 Z  M 194.21 143.63 C 190.75 143.01 187.88 142.15 187.83 141.73 C 187.79 141.31 188.04 139.17 188.39 136.98 C 188.98 133.29 189.26 133.00 192.26 133.01 C 194.04 133.01 197.86 133.30 200.75 133.65 C 205.83 134.26 206.00 134.38 205.99 137.39 C 205.95 145.40 205.49 145.65 194.21 143.63 Z  M 148.00 137.62 C 140.50 136.50 140.50 136.50 140.20 131.96 C 139.91 127.41 139.91 127.41 149.20 128.33 C 154.32 128.83 158.83 129.75 159.23 130.37 C 159.64 130.99 159.98 133.19 159.98 135.25 C 160.00 139.54 160.38 139.47 148.00 137.62 Z "/>
</g>
</svg>