<?xml version="1.0" encoding="UTF-8" standalone="no"?>
<!DOCTYPE svg PUBLIC "-//W3C//DTD SVG 1.1//EN" "http://www.w3.org/Graphics/SVG/1.1/DTD/svg11.dtd" >
<svg xmlns="http://www.w3.org/2000/svg" xmlns:xlink="http://www.w3.org/1999/xlink" version="1.1" viewBox="0 0 254 256">
 <g >
 <path fill="currentColor"
d=" M 241.02 236.50 C 244.39 230.45 247.23 225.11 247.33 224.64 C 247.42 224.17 245.70 223.16 243.50 222.39 C 230.00 217.71 230.64 218.61 235.65 211.44 C 238.13 207.90 239.78 204.99 239.33 204.97 C 238.87 204.96 232.21 204.08 224.52 203.03 C 216.84 201.98 210.44 201.23 210.30 201.37 C 210.17 201.50 210.52 203.32 211.10 205.40 C 211.68 207.48 212.00 209.32 211.82 209.49 C 211.65 209.66 208.12 208.45 204.00 206.80 C 182.65 198.28 184.54 198.38 180.82 205.62 C 177.99 211.14 177.72 212.24 179.00 213.02 C 179.82 213.52 192.43 221.76 207.00 231.32 C 221.57 240.88 233.81 248.43 234.19 248.10 C 234.57 247.77 237.64 242.55 241.02 236.50 Z  M 173.81 241.50 C 173.40 238.00 173.40 238.00 177.70 238.00 C 182.00 238.00 182.00 238.00 182.00 229.60 C 182.00 221.20 182.00 221.20 176.00 220.50 C 170.76 219.89 169.99 219.53 169.95 217.65 C 169.93 216.47 169.33 210.62 168.63 204.66 C 167.36 193.82 167.36 193.82 175.93 194.42 C 195.45 195.78 247.24 198.09 247.72 197.62 C 248.00 197.34 247.90 191.65 247.50 184.99 C 246.77 172.87 246.77 172.87 238.14 173.45 C 233.39 173.78 207.90 174.95 181.50 176.05 C 155.10 177.16 132.94 178.26 132.25 178.50 C 131.42 178.79 131.00 181.13 131.00 185.39 C 131.00 191.84 131.00 191.84 137.50 192.54 C 142.57 193.08 144.00 193.59 144.00 194.87 C 144.00 195.76 142.65 206.40 141.00 218.50 C 139.35 230.60 138.00 241.51 138.00 242.75 C 138.00 245.00 138.00 245.00 156.11 245.00 C 174.22 245.00 174.22 245.00 173.81 241.50 Z  M 125.92 190.25 C 128.31 162.89 130.54 140.22 130.88 139.88 C 131.22 139.54 149.72 139.62 172.00 140.06 C 194.28 140.51 220.26 140.90 229.75 140.93 C 247.00 141.00 247.00 141.00 247.00 130.25 C 247.00 119.50 247.00 119.50 174.75 119.84 C 135.01 120.03 102.28 120.40 102.02 120.66 C 101.36 121.30 98.56 236.90 99.19 237.52 C 99.60 237.93 112.06 239.37 119.54 239.86 C 121.51 240.00 121.72 238.39 125.92 190.25 Z  M 91.36 230.25 C 90.70 218.85 86.00 97.16 86.00 91.51 C 86.00 86.69 86.00 86.69 74.00 87.35 C 33.95 89.53 38.00 89.55 38.00 87.15 C 38.00 85.03 37.75 85.00 20.50 85.00 C 3.01 85.00 3.00 85.00 3.01 87.25 C 3.02 88.49 3.91 121.45 5.00 160.50 C 6.08 199.55 6.97 232.29 6.98 233.25 C 7.00 234.82 8.24 235.00 18.89 235.00 C 30.78 235.00 30.78 235.00 31.42 223.75 C 31.77 217.56 32.32 209.88 32.63 206.68 C 33.21 200.87 33.21 200.87 42.11 201.56 C 51.00 202.26 51.00 202.26 51.00 187.11 C 51.00 171.96 51.00 171.96 48.75 172.43 C 42.31 173.79 35.79 175.00 34.95 175.00 C 33.86 175.00 33.74 169.85 34.64 162.33 C 35.26 157.17 35.26 157.17 41.38 156.51 C 51.65 155.41 51.00 156.19 51.00 144.93 C 51.00 135.00 51.00 135.00 44.75 134.98 C 35.62 134.96 35.57 134.91 36.33 123.44 C 36.68 118.09 37.20 113.47 37.49 113.18 C 37.77 112.89 43.39 113.49 49.97 114.50 C 61.93 116.33 61.93 116.33 61.43 121.92 C 60.84 128.53 56.00 205.06 56.00 207.88 C 56.00 209.37 55.06 209.98 52.00 210.50 C 48.00 211.18 48.00 211.18 48.00 219.09 C 48.00 227.00 48.00 227.00 51.43 227.00 C 54.86 227.00 54.86 227.00 54.29 232.50 C 53.72 238.00 53.72 238.00 72.77 238.00 C 91.81 238.00 91.81 238.00 91.36 230.25 Z  M 184.00 167.00 C 207.93 165.88 230.31 164.71 233.75 164.40 C 240.00 163.84 240.00 163.84 240.00 156.54 C 240.00 149.23 240.00 149.23 199.25 148.58 C 176.84 148.22 153.55 147.83 147.50 147.71 C 136.50 147.50 136.50 147.50 136.22 158.25 C 135.94 168.86 135.96 169.00 138.22 169.01 C 139.47 169.02 160.07 168.11 184.00 167.00 Z  M 180.50 109.14 C 200.30 108.79 216.65 108.84 216.83 109.25 C 217.02 109.66 224.15 110.00 232.68 110.00 C 248.20 110.00 248.20 110.00 247.58 103.25 C 247.24 99.54 246.08 83.45 245.01 67.50 C 243.93 51.55 242.77 35.62 242.43 32.10 C 241.81 25.70 241.81 25.70 222.40 26.26 C 203.00 26.83 203.00 26.83 203.00 17.91 C 203.00 9.00 203.00 9.00 193.50 9.00 C 184.00 9.00 184.00 9.00 184.00 15.37 C 184.00 18.88 183.72 23.17 183.37 24.92 C 182.73 28.08 182.73 28.08 175.62 27.79 C 171.60 27.63 168.56 27.06 168.64 26.50 C 168.72 25.95 169.11 21.79 169.50 17.25 C 170.21 9.00 170.21 9.00 154.85 9.00 C 139.50 9.00 139.50 9.00 139.82 19.00 C 140.13 29.00 140.13 29.00 131.57 29.00 C 123.10 29.00 123.00 28.97 123.00 26.50 C 123.00 24.00 123.00 24.00 113.02 24.00 C 103.47 24.00 103.02 24.10 102.59 26.25 C 102.15 28.46 99.96 94.51 99.99 104.75 C 100.00 110.00 100.00 110.00 122.25 109.89 C 134.49 109.83 160.70 109.50 180.50 109.14 Z  M 206.67 91.33 C 206.30 90.97 206.00 87.59 206.00 83.83 C 206.00 77.00 206.00 77.00 210.54 77.00 C 215.09 77.00 215.09 77.00 214.79 69.75 C 214.50 62.50 214.50 62.50 209.75 62.20 C 205.00 61.89 205.00 61.89 204.99 58.20 C 204.98 56.16 204.69 53.44 204.34 52.15 C 203.71 49.79 203.71 49.79 212.77 50.15 C 217.76 50.34 222.11 50.77 222.44 51.11 C 222.98 51.64 220.00 79.82 218.47 88.75 C 217.92 91.94 217.81 92.00 212.62 92.00 C 209.71 92.00 207.03 91.70 206.67 91.33 Z  M 164.92 88.59 C 164.69 88.36 164.65 85.66 164.84 82.59 C 165.19 77.00 165.19 77.00 173.09 77.00 C 181.00 77.00 181.00 77.00 181.00 83.00 C 181.00 89.00 181.00 89.00 173.17 89.00 C 168.86 89.00 165.15 88.81 164.92 88.59 Z  M 129.60 85.15 C 129.31 84.69 128.77 82.44 128.41 80.15 C 127.74 76.00 127.74 76.00 135.87 76.00 C 144.00 76.00 144.00 76.00 144.00 81.00 C 144.00 86.00 144.00 86.00 137.06 86.00 C 133.24 86.00 129.88 85.62 129.60 85.15 Z  M 174.00 60.00 C 169.88 59.73 166.61 59.16 166.75 58.75 C 166.89 58.34 167.00 55.75 167.00 53.00 C 167.00 48.00 167.00 48.00 173.25 48.02 C 181.57 48.04 182.17 48.53 181.80 55.09 C 181.50 60.50 181.50 60.50 174.00 60.00 Z  M 133.00 57.07 C 125.50 56.50 125.50 56.50 125.20 51.25 C 124.90 46.00 124.90 46.00 131.20 46.01 C 141.50 46.04 142.00 46.34 142.00 52.62 C 142.00 55.58 141.66 57.92 141.25 57.82 C 140.84 57.72 137.12 57.38 133.00 57.07 Z "/>
</g>
</svg>