<?xml version="1.0" encoding="UTF-8" standalone="no"?>
<!DOCTYPE svg PUBLIC "-//W3C//DTD SVG 1.1//EN" "http://www.w3.org/Graphics/SVG/1.1/DTD/svg11.dtd" >
<svg xmlns="http://www.w3.org/2000/svg" xmlns:xlink="http://www.w3.org/1999/xlink" version="1.1" viewBox="0 0 246 256">
 <g >
 <path fill="currentColor"
d=" M 111.00 242.50 C 111.00 232.00 111.00 232.00 105.93 232.00 C 100.85 232.00 100.85 232.00 103.90 228.31 C 105.57 226.27 106.77 224.44 106.55 224.22 C 106.22 223.89 87.23 221.13 84.63 221.03 C 84.15 221.01 83.95 223.70 84.19 227.00 C 84.60 232.63 84.49 233.00 82.45 233.00 C 81.26 233.00 78.14 233.29 75.52 233.65 C 70.77 234.30 70.77 234.30 71.45 226.90 C 72.55 215.13 71.54 216.00 84.07 216.00 C 95.00 216.00 95.00 216.00 95.00 209.65 C 95.00 203.30 95.00 203.30 85.30 202.61 C 79.96 202.24 75.43 201.76 75.22 201.56 C 75.02 201.35 75.24 199.23 75.72 196.84 C 76.59 192.50 76.59 192.50 88.04 192.85 C 99.50 193.20 99.50 193.20 99.15 184.10 C 98.96 179.09 99.05 175.00 99.34 175.00 C 99.64 175.00 101.41 175.90 103.27 177.00 C 106.65 178.99 106.65 178.99 114.93 166.93 C 119.48 160.30 122.98 154.65 122.72 154.38 C 122.45 154.12 112.49 151.32 100.58 148.16 C 78.92 142.41 78.92 142.41 71.44 136.56 C 67.33 133.33 64.09 130.60 64.23 130.49 C 64.46 130.31 125.06 131.47 155.84 132.24 C 166.17 132.50 166.17 132.50 145.08 146.36 C 133.48 153.98 123.74 160.61 123.44 161.10 C 123.03 161.76 128.80 172.99 130.47 174.78 C 130.61 174.94 141.83 170.79 155.40 165.57 C 168.96 160.35 180.66 155.95 181.39 155.79 C 182.12 155.63 188.42 158.65 195.40 162.50 C 207.07 168.94 207.86 169.56 205.29 170.20 C 203.76 170.58 188.79 171.85 172.04 173.02 C 155.29 174.19 141.22 175.36 140.79 175.63 C 140.36 175.90 140.00 178.75 140.00 181.97 C 140.00 188.53 138.53 187.83 156.00 189.59 C 159.57 189.95 162.83 190.75 163.23 191.37 C 163.64 191.99 163.98 194.47 163.98 196.87 C 164.00 201.24 164.00 201.24 154.50 200.53 C 145.00 199.81 145.00 199.81 145.00 209.02 C 145.00 218.22 145.00 218.22 155.88 217.51 C 161.86 217.12 166.99 217.18 167.27 217.65 C 167.54 218.12 168.09 222.15 168.48 226.60 C 169.18 234.70 169.18 234.70 164.43 235.35 C 161.81 235.71 159.49 235.83 159.27 235.60 C 159.05 235.38 160.25 232.75 161.94 229.75 C 165.02 224.30 165.02 224.30 155.86 223.65 C 139.75 222.51 140.41 222.36 138.42 227.58 C 136.67 232.16 136.67 232.16 139.53 234.44 C 142.39 236.72 142.39 236.72 136.65 237.44 C 130.91 238.16 130.91 238.16 131.20 244.33 C 131.50 250.50 131.50 250.50 152.00 251.13 C 163.28 251.48 185.44 252.03 201.25 252.36 C 230.00 252.96 230.00 252.96 230.00 242.48 C 230.00 232.00 230.00 232.00 225.50 232.00 C 223.03 232.00 221.00 231.70 221.00 231.34 C 221.00 230.98 222.15 229.18 223.55 227.34 C 224.95 225.50 225.74 223.99 225.30 223.97 C 224.86 223.95 220.00 223.28 214.50 222.49 C 209.00 221.69 204.17 221.03 203.77 221.02 C 203.36 221.01 203.31 223.63 203.64 226.85 C 204.25 232.70 204.25 232.70 197.50 233.39 C 193.79 233.77 190.65 233.95 190.52 233.79 C 190.40 233.63 190.74 229.56 191.27 224.75 C 192.24 216.00 192.24 216.00 203.12 216.00 C 214.00 216.00 214.00 216.00 214.00 209.63 C 214.00 203.26 214.00 203.26 203.91 202.54 C 194.20 201.85 193.83 201.74 194.39 199.66 C 194.71 198.47 194.98 196.24 194.99 194.71 C 195.00 191.92 195.00 191.92 206.50 192.61 C 218.00 193.29 218.00 193.29 218.00 184.15 C 218.00 179.12 218.28 175.00 218.63 175.00 C 218.98 175.00 220.86 175.99 222.82 177.20 C 224.77 178.40 226.52 178.97 226.71 178.45 C 226.89 177.93 230.38 172.34 234.46 166.02 C 238.54 159.71 241.78 154.45 241.66 154.33 C 241.54 154.20 231.67 151.43 219.73 148.15 C 198.02 142.20 198.02 142.20 190.26 135.78 C 182.50 129.36 182.50 129.36 182.26 123.93 C 182.13 120.94 181.77 116.25 181.47 113.50 C 180.92 108.50 180.92 108.50 171.89 108.82 C 162.86 109.15 162.86 109.15 164.44 106.73 C 166.03 104.31 166.03 104.31 156.06 102.66 C 142.31 100.37 143.15 100.14 142.80 106.25 C 142.50 111.50 142.50 111.50 136.13 111.80 C 129.76 112.10 129.76 112.10 130.48 104.30 C 130.88 100.01 131.41 96.16 131.66 95.75 C 131.91 95.34 136.82 95.00 142.56 95.00 C 153.00 95.00 153.00 95.00 153.00 88.50 C 153.00 82.00 153.00 82.00 143.50 82.00 C 134.00 82.00 134.00 82.00 134.00 76.94 C 134.00 71.88 134.00 71.88 146.00 72.19 C 158.00 72.50 158.00 72.50 158.00 63.25 C 158.00 58.16 158.20 54.00 158.44 54.00 C 158.69 54.00 164.62 56.71 171.63 60.02 C 178.64 63.33 184.74 65.92 185.19 65.77 C 186.65 65.28 205.81 37.52 205.14 36.87 C 204.79 36.52 189.20 32.98 170.50 29.00 C 136.50 21.76 136.50 21.76 126.50 14.07 C 121.00 9.84 115.98 6.07 115.33 5.68 C 114.68 5.29 98.11 14.62 77.33 27.09 C 57.08 39.25 40.35 49.34 40.17 49.51 C 39.55 50.10 47.43 63.00 48.42 63.00 C 48.96 63.00 65.63 56.63 85.45 48.85 C 121.50 34.70 121.50 34.70 135.69 42.08 C 143.49 46.14 149.79 49.53 149.69 49.62 C 149.58 49.70 134.43 50.75 116.00 51.94 C 97.57 53.13 81.49 54.32 80.25 54.57 C 78.20 55.00 78.00 55.61 78.00 61.40 C 78.00 67.75 78.00 67.75 89.75 68.63 C 101.50 69.50 101.50 69.50 101.81 74.87 C 102.11 80.25 102.11 80.25 92.56 79.53 C 83.00 78.81 83.00 78.81 83.00 87.91 C 83.00 97.00 83.00 97.00 93.83 97.00 C 104.65 97.00 104.65 97.00 105.83 103.37 C 107.61 113.04 107.47 114.00 104.25 114.01 C 102.74 114.01 99.11 114.30 96.19 114.66 C 90.88 115.29 90.88 115.29 93.63 109.67 C 95.15 106.58 96.18 103.84 95.92 103.58 C 95.66 103.32 90.07 103.03 83.49 102.94 C 71.54 102.76 71.54 102.76 69.59 107.52 C 67.63 112.28 67.63 112.28 69.77 114.02 C 72.74 116.42 71.67 117.00 64.33 117.00 C 58.00 117.00 58.00 117.00 58.00 120.85 C 58.00 124.69 58.00 124.69 30.51 142.99 C 3.02 161.29 3.02 161.29 6.16 166.90 C 7.88 169.98 9.80 173.06 10.42 173.74 C 11.31 174.71 16.94 172.90 36.53 165.35 C 50.26 160.05 61.95 155.71 62.50 155.69 C 63.05 155.68 69.11 158.77 75.96 162.56 C 87.77 169.09 88.27 169.49 85.46 170.19 C 83.18 170.76 25.82 175.10 21.61 175.02 C 20.78 175.00 21.52 186.85 22.40 187.73 C 22.61 187.94 27.45 188.59 33.14 189.15 C 38.84 189.72 43.55 190.26 43.61 190.34 C 43.68 190.43 44.04 192.93 44.42 195.89 C 45.11 201.28 45.11 201.28 35.55 200.58 C 26.00 199.88 26.00 199.88 26.00 209.05 C 26.00 218.22 26.00 218.22 36.89 217.51 C 47.78 216.80 47.78 216.80 48.44 223.15 C 48.81 226.64 49.34 230.74 49.63 232.25 C 50.06 234.49 49.80 235.00 48.20 235.00 C 47.13 235.00 44.80 235.29 43.04 235.64 C 39.83 236.28 39.83 236.28 42.93 230.14 C 46.03 224.00 46.03 224.00 43.17 224.00 C 41.59 224.00 36.20 223.71 31.17 223.35 C 22.04 222.70 22.04 222.70 20.07 227.10 C 18.10 231.49 18.10 231.49 20.62 234.12 C 23.14 236.75 23.14 236.75 17.57 237.45 C 12.00 238.14 12.00 238.14 12.00 244.57 C 12.00 251.00 12.00 251.00 24.25 251.14 C 30.99 251.21 49.32 251.58 65.00 251.95 C 80.68 252.32 97.44 252.71 102.25 252.81 C 111.00 253.00 111.00 253.00 111.00 242.50 Z "/>
</g>
</svg>