<?xml version="1.0" encoding="UTF-8" standalone="no"?>
<!DOCTYPE svg PUBLIC "-//W3C//DTD SVG 1.1//EN" "http://www.w3.org/Graphics/SVG/1.1/DTD/svg11.dtd" >
<svg xmlns="http://www.w3.org/2000/svg" xmlns:xlink="http://www.w3.org/1999/xlink" version="1.1" viewBox="0 0 256 256">
 <g >
 <path fill="currentColor"
d=" M 69.76 230.47 C 72.03 228.53 74.15 226.10 74.48 225.07 C 75.03 223.34 75.47 223.45 80.00 226.50 C 82.70 228.32 86.65 230.10 88.76 230.46 C 92.47 231.09 95.21 230.76 112.50 227.60 C 126.20 225.10 146.48 223.07 169.94 221.85 C 191.54 220.72 205.18 221.13 229.70 223.65 C 239.44 224.65 245.00 220.79 245.00 213.02 C 245.00 202.69 232.81 189.67 220.57 186.93 C 216.08 185.92 214.43 186.05 208.01 187.86 C 203.95 189.01 200.42 189.76 200.19 189.52 C 199.95 189.28 200.16 174.32 200.65 156.28 C 201.51 124.92 201.65 123.31 203.77 119.87 C 205.40 117.23 206.00 114.71 206.00 110.50 C 206.00 105.05 205.77 104.50 201.75 100.48 C 194.07 92.81 177.71 89.78 166.91 94.04 C 164.07 95.16 161.50 95.83 161.20 95.53 C 160.90 95.23 161.31 92.85 162.12 90.24 C 163.59 85.50 163.59 85.50 170.05 84.79 C 173.60 84.39 183.66 83.80 192.42 83.47 C 212.86 82.71 216.00 81.25 216.00 72.53 C 216.00 63.17 202.87 50.00 193.54 50.00 C 192.16 50.00 186.70 51.38 181.42 53.08 C 176.14 54.77 171.53 55.86 171.18 55.51 C 170.83 55.16 172.00 52.07 173.77 48.65 C 175.84 44.66 177.00 40.98 177.00 38.40 C 177.00 28.12 163.67 20.00 146.80 20.00 C 139.83 20.00 138.63 20.28 136.53 22.38 C 133.92 24.98 134.03 26.50 137.52 36.32 C 138.99 40.45 139.11 42.83 138.37 52.75 C 137.50 64.36 137.50 64.36 123.00 67.06 C 115.03 68.55 106.74 70.08 104.60 70.46 C 99.11 71.43 95.00 75.76 95.00 80.58 C 95.00 83.60 95.72 85.00 98.82 87.94 C 105.09 93.91 113.99 95.46 125.00 92.50 C 133.45 90.23 133.33 90.16 132.52 96.75 C 132.13 99.91 131.67 102.64 131.50 102.82 C 131.34 102.99 129.25 102.61 126.87 101.97 C 117.51 99.45 104.00 101.89 104.00 106.11 C 104.00 107.15 104.34 108.00 104.75 108.01 C 106.62 108.02 109.90 114.99 110.54 120.31 C 110.93 123.50 110.91 142.94 110.51 163.51 C 109.66 206.25 112.04 201.57 90.75 202.30 C 80.00 202.67 80.00 202.67 79.98 196.59 C 79.94 179.46 82.36 133.37 83.71 125.50 C 86.41 109.85 86.41 109.65 83.53 103.25 C 80.87 97.32 80.87 97.32 84.57 91.02 C 86.60 87.56 90.24 80.54 92.66 75.42 C 95.95 68.48 97.90 65.60 100.35 64.09 C 105.08 61.17 107.06 58.66 108.03 54.37 C 109.87 46.21 101.72 35.55 88.59 28.97 C 82.21 25.77 77.67 25.30 70.50 27.10 C 62.91 29.02 61.59 32.18 63.48 44.00 C 65.15 54.54 53.09 84.82 38.80 105.94 C 32.79 114.83 19.84 131.87 12.30 140.82 C 0.52 154.80 1.50 156.26 19.56 151.58 C 34.84 147.61 43.56 144.23 49.23 140.06 C 51.50 138.39 53.51 137.18 53.70 137.37 C 54.36 138.02 51.92 170.49 50.50 180.19 C 49.71 185.52 47.70 193.43 46.03 197.77 C 43.24 205.00 43.07 206.11 44.01 211.06 C 45.18 217.22 48.06 221.99 54.87 229.06 C 60.85 235.27 63.83 235.55 69.76 230.47 Z  M 137.18 196.25 C 137.48 193.65 137.90 193.44 145.00 192.31 C 149.12 191.66 155.34 191.10 158.82 191.06 C 162.29 191.03 166.00 190.53 167.07 189.96 C 168.78 189.05 169.00 189.27 169.00 191.90 C 169.00 193.85 168.40 195.05 167.25 195.42 C 165.79 195.88 140.29 198.96 137.68 198.99 C 137.23 199.00 137.01 197.76 137.18 196.25 Z  M 163.60 173.18 C 158.83 170.71 158.48 170.68 150.60 171.86 C 146.14 172.53 141.22 173.35 139.66 173.67 C 137.13 174.20 136.86 174.02 137.16 171.92 C 137.56 169.18 139.17 168.74 154.81 167.09 C 160.48 166.50 165.99 165.54 167.06 164.97 C 168.88 163.99 169.00 164.30 169.00 169.96 C 169.00 173.28 168.89 175.94 168.75 175.86 C 168.61 175.78 166.29 174.57 163.60 173.18 Z  M 166.19 151.49 C 162.10 147.25 158.10 146.62 147.43 148.54 C 142.20 149.48 137.66 149.99 137.34 149.67 C 136.18 148.51 138.01 145.95 140.72 144.91 C 144.54 143.45 151.95 142.14 161.75 141.20 C 170.00 140.40 170.00 140.40 169.98 145.95 C 169.96 153.27 169.10 154.52 166.19 151.49 Z  M 166.29 127.98 C 161.14 123.36 157.38 123.17 139.93 126.66 C 137.00 127.25 136.86 127.13 137.17 124.39 C 137.50 121.51 137.55 121.49 150.00 119.29 C 167.78 116.15 170.34 117.00 169.81 125.84 C 169.50 130.85 169.50 130.85 166.29 127.98 Z "/>
</g>
</svg>