<?xml version="1.0" encoding="UTF-8" standalone="no"?>
<!DOCTYPE svg PUBLIC "-//W3C//DTD SVG 1.1//EN" "http://www.w3.org/Graphics/SVG/1.1/DTD/svg11.dtd" >
<svg xmlns="http://www.w3.org/2000/svg" xmlns:xlink="http://www.w3.org/1999/xlink" version="1.1" viewBox="0 0 256 256">
 <g >
 <path fill="currentColor"
d=" M 207.81 237.97 C 212.40 235.18 214.39 230.00 213.58 223.02 C 212.58 214.49 209.61 209.34 203.89 206.18 C 201.22 204.71 199.02 203.23 199.01 202.91 C 199.01 202.59 200.13 201.81 201.51 201.18 C 202.89 200.55 205.41 197.89 207.10 195.27 C 210.17 190.50 210.17 190.50 209.51 169.50 C 208.88 149.66 208.96 148.25 210.90 144.00 C 213.72 137.83 213.57 134.43 210.35 131.45 C 208.08 129.34 207.97 129.00 209.57 129.00 C 212.12 129.00 220.88 119.51 224.40 112.92 C 225.99 109.94 229.35 105.66 231.85 103.42 C 235.62 100.03 236.40 98.73 236.40 95.80 C 236.40 91.05 234.07 87.78 226.93 82.53 C 215.63 74.21 204.63 72.03 197.29 76.66 C 194.50 78.42 194.50 78.42 196.33 76.29 C 198.07 74.27 198.08 73.97 196.49 70.62 C 193.54 64.40 184.14 61.24 175.15 63.46 C 172.19 64.19 171.84 64.07 172.16 62.42 C 172.46 60.83 174.95 60.15 189.01 57.79 C 209.30 54.38 210.00 54.11 210.00 49.56 C 210.00 43.25 201.40 35.88 192.34 34.44 C 189.63 34.01 186.94 34.44 183.21 35.91 C 176.36 38.62 175.94 38.56 176.64 35.04 C 177.65 30.00 176.27 27.12 171.33 24.00 C 161.83 17.97 143.25 16.32 138.50 21.07 C 136.50 23.08 136.50 23.08 139.75 28.97 C 142.40 33.77 143.00 35.97 143.00 40.84 C 143.00 47.48 145.15 46.49 117.67 52.52 C 112.96 53.55 108.79 55.13 107.22 56.49 C 104.61 58.73 104.61 58.73 107.42 61.34 C 113.37 66.85 129.64 70.01 139.75 67.61 C 142.54 66.95 143.00 67.11 143.00 68.74 C 143.00 70.27 141.61 70.96 135.75 72.33 C 131.76 73.26 127.55 74.02 126.40 74.01 C 122.60 73.99 118.09 76.13 117.41 78.27 C 116.12 82.35 124.47 86.98 133.14 86.99 C 135.14 87.00 141.05 86.12 146.27 85.05 C 154.75 83.30 190.69 77.95 193.42 78.03 C 194.01 78.05 193.77 78.49 192.88 79.00 C 192.00 79.52 175.12 82.70 155.38 86.06 C 114.27 93.07 111.14 93.18 103.04 87.93 C 96.99 84.01 96.95 83.67 100.12 64.39 C 103.00 46.83 102.87 45.47 97.83 40.33 C 91.67 34.05 85.30 31.58 75.17 31.53 C 68.06 31.51 66.64 31.78 65.42 33.44 C 63.17 36.51 63.74 41.23 67.25 48.64 C 70.50 55.50 70.50 55.50 70.33 72.95 C 70.19 88.40 69.97 90.55 68.39 91.70 C 63.85 95.03 62.96 92.06 65.40 81.69 C 67.07 74.57 66.22 70.08 62.24 65.13 C 58.51 60.49 56.55 59.57 45.04 57.06 C 32.56 54.34 29.51 54.40 26.45 57.45 C 23.12 60.78 23.36 63.78 27.62 72.23 C 32.45 81.82 34.10 91.71 34.08 111.00 C 34.06 149.59 27.50 179.98 12.99 208.66 C 9.19 216.17 6.31 222.70 6.60 223.16 C 7.65 224.85 11.47 223.91 19.87 219.88 C 46.29 207.21 58.12 190.63 60.54 162.89 C 60.91 158.70 61.50 154.81 61.86 154.23 C 62.21 153.66 64.15 152.87 66.17 152.50 C 69.29 151.91 70.00 152.13 70.99 153.98 C 72.86 157.47 70.52 180.64 66.82 195.29 C 64.86 203.06 64.75 204.62 65.86 208.79 C 67.67 215.59 71.53 221.65 76.22 225.04 C 81.53 228.89 85.42 228.87 90.73 224.96 C 97.43 220.04 97.82 217.89 98.29 183.92 C 98.69 154.33 98.69 154.33 101.97 147.21 C 104.00 142.82 105.07 139.14 104.78 137.60 C 104.30 135.11 104.30 135.11 107.90 136.95 C 110.78 138.42 111.80 139.76 113.00 143.64 C 114.82 149.53 114.83 169.30 113.03 176.00 C 112.36 178.47 111.60 181.85 111.33 183.50 C 110.66 187.59 114.64 197.85 118.16 201.15 C 119.72 202.61 121.00 204.11 121.00 204.48 C 121.00 204.86 119.31 207.23 117.25 209.75 C 113.66 214.15 86.88 232.95 82.01 234.50 C 80.74 234.90 80.01 235.84 80.20 236.84 C 80.63 239.09 91.89 239.58 106.00 237.96 C 120.02 236.36 127.25 233.99 134.75 228.52 C 138.19 226.02 143.81 222.52 147.25 220.74 C 155.28 216.57 156.98 213.53 154.25 208.21 C 152.99 205.76 150.67 203.59 147.43 201.81 C 141.50 198.56 141.82 198.40 157.28 197.02 C 163.76 196.44 171.35 195.48 174.14 194.88 C 178.72 193.90 179.43 193.98 181.20 195.76 C 183.17 197.73 183.13 197.74 172.05 198.19 C 158.23 198.76 156.71 199.72 160.71 205.33 C 162.18 207.40 166.34 211.29 169.95 213.96 C 178.50 220.31 181.22 223.26 180.42 225.34 C 180.07 226.26 179.47 227.00 179.08 227.00 C 177.69 227.00 173.97 231.14 174.54 232.06 C 174.86 232.58 177.90 233.01 181.31 233.03 C 186.51 233.06 188.46 233.61 193.50 236.52 C 200.42 240.50 203.20 240.79 207.81 237.97 Z  M 140.18 182.29 C 140.57 180.28 147.10 178.76 163.00 176.99 C 168.78 176.34 174.74 175.22 176.25 174.48 C 178.74 173.28 179.00 173.33 179.00 175.02 C 179.00 177.57 178.62 177.71 168.45 179.04 C 163.53 179.68 155.29 181.06 150.14 182.10 C 138.87 184.39 139.78 184.37 140.18 182.29 Z  M 176.20 165.85 C 173.36 162.41 167.87 160.71 164.16 162.13 C 161.79 163.04 141.79 168.00 140.51 168.00 C 140.23 168.00 140.00 167.17 140.00 166.16 C 140.00 164.29 144.33 163.20 158.50 161.51 C 177.24 159.28 182.66 155.04 174.10 149.28 C 169.56 146.23 163.67 146.32 150.43 149.63 C 140.62 152.09 137.34 152.22 139.57 150.06 C 140.43 149.22 165.68 144.25 174.19 143.24 C 177.70 142.82 177.90 142.96 178.49 146.15 C 178.83 147.99 178.97 153.80 178.80 159.06 C 178.50 168.63 178.50 168.63 176.20 165.85 Z  M 128.50 133.29 C 123.22 132.02 126.87 131.09 151.02 127.55 C 165.35 125.46 177.33 124.00 177.64 124.30 C 178.54 125.21 168.91 127.73 157.81 129.49 C 152.14 130.39 144.19 131.78 140.14 132.57 C 132.53 134.05 131.85 134.09 128.50 133.29 Z  M 98.50 129.40 C 94.41 126.07 84.16 121.00 81.53 121.00 C 80.35 121.00 76.26 122.57 72.44 124.50 C 68.62 126.42 65.16 128.00 64.75 128.00 C 64.34 128.00 64.00 125.08 64.00 121.50 C 64.00 115.00 64.00 115.00 70.46 115.00 C 74.01 115.00 80.78 114.10 85.50 113.00 C 90.22 111.90 94.67 111.00 95.40 111.00 C 96.70 111.00 102.51 129.07 101.82 130.96 C 101.64 131.44 100.15 130.74 98.50 129.40 Z  M 124.63 112.92 C 123.49 107.20 123.64 107.00 128.89 107.00 C 133.78 107.00 133.78 107.00 134.25 110.75 C 134.51 112.81 134.67 114.55 134.61 114.62 C 134.55 114.69 132.42 115.04 129.88 115.41 C 125.31 116.08 125.26 116.05 124.63 112.92 Z  M 154.19 107.37 C 154.50 102.50 154.50 102.50 159.31 102.19 C 164.11 101.89 164.11 101.89 163.43 105.69 C 162.59 110.45 162.35 110.69 157.69 111.54 C 153.88 112.25 153.88 112.25 154.19 107.37 Z  M 183.06 104.89 C 183.58 103.91 184.46 102.83 185.01 102.50 C 185.55 102.16 186.00 100.83 186.00 99.54 C 186.00 97.43 186.52 97.16 191.10 96.85 C 193.90 96.66 196.41 96.85 196.67 97.27 C 196.93 97.70 196.41 99.99 195.50 102.36 C 193.86 106.67 193.86 106.67 187.98 106.67 C 182.66 106.67 182.20 106.50 183.06 104.89 Z "/>
</g>
</svg>