<?xml version="1.0" encoding="UTF-8" standalone="no"?>
<!DOCTYPE svg PUBLIC "-//W3C//DTD SVG 1.1//EN" "http://www.w3.org/Graphics/SVG/1.1/DTD/svg11.dtd" >
<svg xmlns="http://www.w3.org/2000/svg" xmlns:xlink="http://www.w3.org/1999/xlink" version="1.1" viewBox="0 0 256 256">
 <g >
 <path fill="currentColor"
d=" M 159.79 234.32 C 164.37 230.93 168.70 224.42 171.03 217.41 C 173.11 211.17 173.22 209.45 172.75 191.61 C 172.48 181.10 172.72 168.56 173.29 163.74 C 174.33 154.97 174.33 154.97 179.41 155.57 C 182.21 155.89 185.80 156.57 187.40 157.08 C 192.32 158.64 196.82 158.21 197.96 156.07 C 199.55 153.10 199.16 146.95 197.10 142.42 C 195.64 139.21 195.49 137.91 196.37 136.34 C 198.31 132.89 201.36 129.54 205.23 126.61 C 209.57 123.33 211.31 118.58 209.94 113.80 C 207.52 105.37 188.39 93.00 177.77 93.00 C 176.17 93.00 172.98 94.08 170.68 95.40 C 164.97 98.69 153.42 102.69 147.44 103.45 C 144.72 103.80 139.72 104.56 136.31 105.14 C 131.14 106.03 129.28 105.92 124.93 104.48 C 118.84 102.45 111.41 102.88 105.74 105.59 C 101.18 107.76 101.06 109.36 105.01 115.71 C 112.97 128.52 118.60 154.46 114.63 160.11 C 113.74 161.40 113.00 163.17 113.00 164.05 C 113.00 167.67 106.50 175.30 98.89 180.64 C 89.92 186.92 89.56 187.74 89.52 202.00 C 89.50 209.21 89.84 210.97 91.73 213.62 C 93.06 215.49 95.18 216.99 97.01 217.35 C 103.35 218.62 113.94 212.83 118.85 205.41 C 121.71 201.09 121.71 201.09 124.20 203.80 C 129.39 209.44 134.92 218.72 136.54 224.50 C 138.26 230.63 140.94 234.53 144.50 236.10 C 147.84 237.57 156.81 236.53 159.79 234.32 Z  M 68.49 215.92 C 74.92 213.51 76.38 211.67 78.92 202.76 C 81.30 194.45 81.61 193.91 90.87 181.73 C 108.18 158.99 113.88 148.32 109.59 146.67 C 107.87 146.01 102.45 149.40 90.14 158.82 C 85.00 162.76 80.33 165.71 79.78 165.36 C 78.39 164.50 79.75 135.28 81.56 127.25 C 82.34 123.81 84.19 119.16 85.68 116.91 C 90.15 110.15 88.94 100.92 82.85 95.36 C 79.54 92.34 70.54 88.00 67.59 88.00 C 66.23 88.00 62.21 89.82 58.67 92.04 C 50.21 97.35 37.51 102.42 27.26 104.59 C 14.67 107.26 12.68 110.47 17.35 120.51 C 20.47 127.20 25.50 132.30 31.05 134.40 C 35.59 136.12 35.59 136.12 43.00 132.57 C 47.81 130.26 50.76 129.36 51.39 129.99 C 52.02 130.62 51.77 136.14 50.67 145.73 C 49.74 153.85 48.98 163.20 48.98 166.50 C 48.98 171.85 48.60 172.98 45.49 176.89 C 38.29 185.95 38.73 193.62 47.19 206.50 C 52.28 214.25 56.68 217.99 60.71 218.00 C 61.93 218.00 65.43 217.06 68.49 215.92 Z  M 223.49 211.83 C 227.53 208.65 229.96 202.53 229.95 195.50 C 229.95 178.29 223.44 170.97 203.74 166.05 C 187.94 162.09 179.42 161.31 176.93 163.57 C 172.71 167.38 174.76 171.52 187.56 185.00 C 196.26 194.18 196.77 196.46 191.25 201.57 C 186.57 205.89 187.69 206.96 197.00 207.00 C 202.56 207.02 204.37 207.52 209.50 210.48 C 216.50 214.52 219.68 214.82 223.49 211.83 Z  M 129.66 96.51 C 155.88 90.64 170.63 88.87 199.77 88.10 C 226.05 87.41 226.05 87.41 229.19 84.27 C 231.74 81.72 232.33 80.32 232.33 76.81 C 232.33 71.32 229.67 65.73 224.54 60.42 C 221.48 57.25 218.81 55.70 213.50 54.01 C 206.50 51.77 206.50 51.77 197.00 55.45 C 188.24 58.84 177.38 61.95 174.16 61.99 C 173.32 61.99 173.78 60.86 175.41 58.92 C 177.63 56.28 178.00 54.90 177.99 49.17 C 177.99 38.76 176.71 35.60 170.66 31.03 C 162.06 24.54 159.93 24.00 143.01 24.00 C 127.96 24.00 127.96 24.00 126.82 26.50 C 125.41 29.59 127.16 33.20 134.64 42.62 C 140.06 49.43 140.43 51.40 136.90 54.59 C 134.76 56.53 134.35 59.94 136.25 60.11 C 136.94 60.17 141.32 60.28 146.00 60.36 C 152.52 60.47 155.26 60.96 157.77 62.48 C 161.04 64.46 161.04 64.46 143.27 68.17 C 133.50 70.21 122.58 72.16 119.00 72.51 C 112.73 73.12 103.73 74.44 97.50 75.65 C 94.50 76.23 94.50 76.23 96.70 73.85 C 102.84 67.22 103.92 56.90 99.52 46.81 C 96.90 40.80 96.10 39.90 90.57 36.72 C 82.11 31.85 79.42 31.25 63.39 30.65 C 48.33 30.09 47.00 30.42 47.00 34.77 C 47.00 38.25 48.60 40.76 55.51 48.12 C 63.26 56.38 63.95 58.72 60.56 65.25 C 59.15 67.97 58.25 70.60 58.56 71.09 C 58.87 71.59 62.24 72.00 66.06 72.00 C 72.58 72.00 73.23 72.21 76.87 75.50 C 79.34 77.73 81.75 79.00 83.53 79.00 C 86.16 79.00 86.22 79.10 84.65 80.83 C 80.66 85.24 83.39 89.09 94.50 94.74 C 107.08 101.13 108.69 101.21 129.66 96.51 Z  M 127.00 196.74 C 125.62 196.11 124.41 195.57 124.30 195.52 C 124.19 195.47 124.80 193.03 125.66 190.10 C 126.77 186.29 127.11 181.83 126.84 174.46 C 126.46 164.16 126.46 164.16 129.43 163.56 C 131.07 163.24 133.33 162.12 134.45 161.07 C 135.58 160.03 137.61 159.03 138.98 158.84 C 141.27 158.53 141.51 158.91 142.31 164.00 C 143.46 171.37 142.48 194.71 140.95 196.56 C 139.51 198.29 130.69 198.40 127.00 196.74 Z  M 139.51 132.05 C 139.12 129.20 138.95 126.73 139.15 126.55 C 139.34 126.38 145.69 125.19 153.25 123.92 C 169.02 121.26 169.96 121.50 167.99 127.66 C 167.31 129.77 166.48 131.80 166.13 132.17 C 165.41 132.94 152.99 135.56 145.36 136.56 C 140.22 137.23 140.22 137.23 139.51 132.05 Z "/>
</g>
</svg>