<?xml version="1.0" encoding="UTF-8" standalone="no"?>
<!DOCTYPE svg PUBLIC "-//W3C//DTD SVG 1.1//EN" "http://www.w3.org/Graphics/SVG/1.1/DTD/svg11.dtd" >
<svg xmlns="http://www.w3.org/2000/svg" xmlns:xlink="http://www.w3.org/1999/xlink" version="1.1" viewBox="0 0 256 256">
 <g >
 <path fill="currentColor"
d=" M 156.27 233.85 C 160.44 232.18 168.49 222.79 172.20 215.25 C 175.40 208.75 175.50 208.17 175.50 196.02 C 175.50 189.14 174.86 171.97 174.08 157.88 C 172.67 132.25 172.67 132.25 174.90 127.96 C 177.02 123.89 177.09 122.51 175.43 116.88 C 174.64 114.22 188.11 113.53 201.54 115.55 C 213.26 117.31 223.06 117.02 225.70 114.84 C 228.25 112.73 230.95 105.88 230.98 101.48 C 231.01 95.14 223.33 85.00 213.91 78.95 C 208.02 75.16 201.78 75.01 193.29 78.46 C 183.79 82.32 168.16 85.86 147.00 88.95 C 123.12 92.43 95.20 95.53 94.45 94.78 C 93.73 94.07 95.04 79.55 95.95 78.08 C 97.20 76.06 143.24 69.50 170.38 67.48 C 202.06 65.11 202.01 65.12 204.71 61.10 C 207.63 56.76 207.83 47.42 205.13 41.50 C 201.51 33.57 188.02 24.00 180.46 24.00 C 178.47 24.00 174.99 25.08 172.68 26.41 C 164.56 31.11 143.50 36.92 111.09 43.40 C 89.52 47.71 88.55 47.82 85.59 46.23 C 83.38 45.05 79.17 44.46 70.90 44.19 C 59.30 43.80 59.30 43.80 55.65 47.00 C 51.35 50.78 51.00 53.70 54.12 59.54 C 56.96 64.83 57.53 75.77 56.11 97.65 C 54.69 119.61 52.09 134.58 47.20 149.00 C 38.30 175.25 31.90 186.53 11.52 211.89 C 7.56 216.82 7.52 216.96 9.27 219.35 C 10.45 220.97 10.97 220.89 17.13 218.09 C 20.76 216.45 28.85 213.22 35.11 210.93 C 52.49 204.55 57.64 201.61 65.64 193.50 C 77.93 181.04 84.94 163.48 88.85 135.31 C 90.60 122.72 90.68 122.51 93.07 122.83 C 99.91 123.76 109.79 123.30 121.30 121.53 C 132.29 119.83 134.23 119.75 134.99 120.98 C 136.58 123.55 137.15 136.11 136.82 161.15 C 136.41 192.56 137.83 190.33 118.91 189.39 C 111.37 189.02 104.46 188.99 103.55 189.34 C 100.98 190.33 103.01 193.10 114.16 203.80 C 122.60 211.90 124.71 214.59 128.05 221.48 C 130.21 225.95 133.23 230.81 134.76 232.27 C 139.44 236.76 147.50 237.35 156.27 233.85 Z "/>
</g>
</svg>