<?xml version="1.0" encoding="UTF-8" standalone="no"?>
<!DOCTYPE svg PUBLIC "-//W3C//DTD SVG 1.1//EN" "http://www.w3.org/Graphics/SVG/1.1/DTD/svg11.dtd" >
<svg xmlns="http://www.w3.org/2000/svg" xmlns:xlink="http://www.w3.org/1999/xlink" version="1.1" viewBox="0 0 256 256">
 <g >
 <path fill="currentColor"
d=" M 165.25 239.75 C 172.77 231.64 173.39 229.55 173.82 210.75 C 174.20 194.00 174.20 194.00 191.18 194.00 C 208.15 194.00 208.15 194.00 211.08 191.08 C 215.51 186.64 214.97 183.87 208.34 176.92 C 201.51 169.76 197.44 168.27 189.05 169.87 C 177.74 172.03 177.00 171.97 177.00 168.94 C 177.00 166.51 177.44 166.17 181.25 165.64 C 192.04 164.17 200.12 163.91 207.34 164.83 C 216.44 165.99 220.17 165.11 221.86 161.40 C 223.39 158.05 223.30 155.64 221.45 151.23 C 219.46 146.45 216.47 143.30 211.56 140.78 C 208.30 139.11 206.39 138.86 200.56 139.31 C 196.68 139.61 192.42 140.18 191.09 140.59 C 189.09 141.19 189.34 140.71 192.59 137.71 C 196.07 134.51 196.36 133.89 195.25 132.07 C 193.49 129.19 193.61 129.00 197.17 129.00 C 201.57 129.00 204.00 126.50 204.00 121.98 C 204.00 117.07 201.23 113.73 194.54 110.56 C 188.02 107.48 185.11 107.38 177.50 110.00 C 170.23 112.50 169.00 112.50 169.00 110.00 C 169.00 108.33 169.67 108.00 173.05 108.00 C 178.32 108.00 182.00 104.57 182.00 99.66 C 182.00 94.71 179.35 92.12 171.46 89.33 C 165.12 87.10 164.90 86.93 169.00 87.49 C 171.47 87.83 173.93 88.53 174.45 89.05 C 176.49 91.09 180.82 90.04 183.25 86.93 C 184.78 84.98 187.08 83.54 189.58 82.96 C 195.04 81.69 203.75 81.78 207.52 83.14 C 212.07 84.79 217.07 83.49 221.84 79.41 C 226.00 75.84 226.00 75.84 226.00 67.81 C 226.00 59.78 226.00 59.78 221.25 55.38 C 218.64 52.96 213.12 48.62 209.00 45.74 C 201.62 40.58 201.39 40.50 194.50 40.60 C 190.65 40.66 184.35 41.42 180.50 42.28 C 171.97 44.20 142.37 49.03 139.25 49.01 C 136.43 49.00 136.13 45.41 138.88 44.54 C 140.39 44.06 162.40 42.15 167.80 42.03 C 168.51 42.01 170.20 40.81 171.55 39.35 C 176.27 34.26 173.92 25.98 166.25 20.69 C 157.69 14.77 151.26 13.67 143.83 16.86 C 136.94 19.81 85.80 30.00 77.88 30.00 C 74.54 30.00 73.80 30.40 72.93 32.67 C 70.91 38.00 74.37 44.59 81.51 49.01 C 85.33 51.37 94.41 52.11 101.75 50.66 C 105.57 49.91 106.00 50.02 106.00 51.74 C 106.00 53.49 104.49 53.83 89.75 55.43 C 80.81 56.40 73.21 57.38 72.84 57.60 C 72.48 57.82 70.30 56.43 68.00 54.50 C 64.62 51.67 62.97 51.00 59.44 51.00 C 54.19 51.00 51.69 53.23 50.12 59.33 C 48.36 66.14 44.71 71.06 38.88 74.48 C 35.92 76.22 32.94 78.73 32.26 80.07 C 29.26 85.98 32.34 99.08 38.01 104.51 C 45.25 111.44 58.76 104.07 67.98 88.18 C 71.44 82.21 71.44 82.21 74.26 84.36 C 81.27 89.69 84.04 92.35 83.30 93.03 C 82.86 93.43 78.93 94.27 74.56 94.90 C 70.20 95.53 66.49 96.18 66.32 96.34 C 66.16 96.51 65.74 98.05 65.40 99.77 C 64.79 102.81 64.95 102.98 71.45 106.05 C 75.66 108.04 78.55 110.10 79.24 111.62 C 80.07 113.45 80.83 113.87 82.41 113.37 C 85.28 112.46 90.09 112.69 91.18 113.78 C 91.73 114.33 90.38 115.35 87.80 116.33 C 80.63 119.05 77.27 119.40 74.66 117.70 C 70.94 115.26 57.86 113.77 53.28 115.27 C 48.57 116.80 48.20 118.69 50.99 126.98 C 53.02 133.00 53.04 133.47 51.48 141.35 C 49.34 152.24 47.58 157.51 41.88 170.15 C 34.30 186.97 26.25 199.68 14.80 212.89 C 12.71 215.31 11.00 217.89 11.00 218.64 C 11.00 220.93 18.10 220.23 28.16 216.96 C 39.78 213.17 46.83 209.01 53.01 202.28 C 58.48 196.32 58.30 196.16 59.54 208.26 C 60.14 214.09 60.64 215.36 63.19 217.51 C 67.58 221.20 72.32 220.88 76.59 216.61 C 78.45 214.75 80.75 212.92 81.70 212.56 C 82.65 212.20 89.94 211.24 97.90 210.44 C 116.31 208.59 119.76 206.67 116.94 199.85 C 116.23 198.14 114.59 195.48 113.30 193.95 C 110.96 191.16 110.96 191.16 113.95 186.73 C 115.60 184.29 117.63 181.72 118.47 181.02 C 119.36 180.29 120.00 178.14 120.00 175.92 C 120.00 172.09 120.00 172.09 124.79 172.66 C 128.91 173.15 137.07 172.13 143.31 170.34 C 144.89 169.89 145.08 170.38 144.81 174.10 C 144.50 178.33 144.44 178.40 139.50 179.67 C 136.75 180.38 132.57 180.97 130.22 180.98 C 124.48 181.01 119.27 183.32 117.83 186.48 C 116.75 188.84 116.99 189.41 120.57 193.07 C 125.65 198.28 133.08 200.64 140.02 199.27 C 144.79 198.33 144.79 198.33 145.20 212.42 C 145.59 225.98 145.73 226.73 148.87 232.86 C 152.53 239.98 156.29 244.00 159.30 244.00 C 160.40 244.00 163.08 242.09 165.25 239.75 Z  M 80.42 192.66 C 80.14 191.93 79.82 189.35 79.71 186.93 C 79.50 182.54 79.50 182.54 83.80 181.95 C 86.16 181.62 88.34 181.74 88.64 182.22 C 88.93 182.70 88.65 185.28 88.01 187.95 C 87.15 191.55 86.28 192.96 84.67 193.39 C 81.51 194.24 80.99 194.15 80.42 192.66 Z  M 71.18 164.25 C 71.54 161.15 69.70 161.66 99.00 156.53 C 107.53 155.04 115.51 153.18 116.75 152.39 C 119.91 150.38 119.58 146.73 115.87 142.50 C 114.14 140.54 112.91 138.84 113.12 138.72 C 113.34 138.60 114.94 137.21 116.69 135.63 C 119.86 132.76 119.86 132.76 124.43 134.97 C 127.23 136.32 129.00 137.85 129.00 138.90 C 129.00 139.85 130.09 143.41 131.43 146.81 C 134.19 153.87 134.79 153.20 124.50 154.54 C 118.62 155.30 112.95 157.46 111.39 159.54 C 110.40 160.83 109.84 160.83 106.67 159.51 C 101.48 157.34 96.47 157.64 91.68 160.42 C 86.90 163.20 76.08 167.00 72.97 167.00 C 71.27 167.00 70.93 166.48 71.18 164.25 Z  M 155.89 145.15 C 154.39 141.57 154.41 141.10 156.14 137.72 C 157.66 134.76 158.74 133.97 162.24 133.27 C 166.18 132.48 166.52 132.58 166.81 134.63 C 166.98 135.84 165.91 139.24 164.43 142.17 C 160.34 150.28 158.34 150.98 155.89 145.15 Z  M 77.55 140.39 C 77.93 138.25 78.57 136.14 78.98 135.69 C 80.22 134.33 90.65 133.62 91.40 134.84 C 91.78 135.45 91.41 137.24 90.58 138.84 C 89.47 141.00 88.13 141.89 85.29 142.36 C 83.21 142.71 80.46 143.28 79.18 143.63 C 76.97 144.24 76.89 144.09 77.55 140.39 Z  M 143.56 138.10 C 142.08 137.52 142.92 137.08 147.06 136.26 C 153.49 134.98 154.29 135.28 150.14 137.43 C 146.79 139.16 146.38 139.20 143.56 138.10 Z  M 120.23 121.60 C 119.59 120.21 116.47 117.38 113.29 115.32 C 110.10 113.26 107.31 111.44 107.07 111.27 C 106.83 111.10 107.17 110.43 107.82 109.78 C 109.59 108.01 109.24 102.53 107.25 100.73 C 106.29 99.86 101.48 98.13 96.56 96.90 C 85.95 94.24 86.98 93.18 100.25 93.07 C 109.00 93.00 109.00 93.00 109.00 97.30 C 109.00 102.64 113.11 111.23 116.99 113.99 C 122.74 118.09 128.08 116.12 132.73 108.20 C 135.39 103.69 135.52 102.82 136.00 86.58 C 136.41 72.71 136.77 69.58 138.00 69.21 C 139.21 68.84 139.26 69.01 138.25 70.07 C 134.85 73.68 139.78 79.07 149.61 82.50 C 158.34 85.55 157.70 86.87 147.32 87.21 C 139.26 87.47 138.50 87.67 138.50 89.50 C 138.50 90.91 140.19 92.40 144.27 94.56 C 150.50 97.87 150.70 98.99 145.08 99.02 C 138.56 99.04 138.10 100.23 142.26 106.19 C 145.97 111.50 145.97 111.50 143.75 113.18 C 141.52 114.87 141.52 114.87 144.33 115.93 C 145.87 116.52 147.89 117.05 148.82 117.10 C 150.44 117.20 145.85 118.37 132.00 121.40 C 128.43 122.18 124.57 123.12 123.44 123.48 C 121.87 123.98 121.11 123.54 120.23 121.60 Z  M 106.00 79.53 C 104.62 78.77 101.25 77.82 98.50 77.44 C 95.75 77.06 92.62 76.42 91.54 76.02 C 89.93 75.43 90.20 75.19 93.04 74.69 C 94.94 74.36 99.26 73.79 102.63 73.42 C 108.77 72.77 108.77 72.77 109.16 76.88 C 109.60 81.46 109.54 81.51 106.00 79.53 Z  M 176.09 72.61 C 174.30 70.45 166.96 69.01 157.31 68.91 C 150.42 68.85 149.16 68.63 151.50 67.92 C 155.61 66.69 175.12 65.56 178.37 66.38 C 181.26 67.10 181.75 69.42 179.61 72.25 C 178.00 74.36 177.58 74.41 176.09 72.61 Z "/>
</g>
</svg>