<?xml version="1.0" encoding="UTF-8" standalone="no"?>
<!DOCTYPE svg PUBLIC "-//W3C//DTD SVG 1.1//EN" "http://www.w3.org/Graphics/SVG/1.1/DTD/svg11.dtd" >
<svg xmlns="http://www.w3.org/2000/svg" xmlns:xlink="http://www.w3.org/1999/xlink" version="1.1" viewBox="0 0 256 256">
 <g >
 <path fill="currentColor"
d=" M 196.05 231.31 C 204.21 227.29 214.16 216.90 216.94 209.50 C 222.63 194.36 226.55 169.28 228.06 138.50 C 229.18 115.52 230.52 101.02 231.98 96.01 C 235.57 83.71 230.54 76.52 214.51 71.00 C 206.41 68.22 203.84 68.44 191.75 73.00 C 180.86 77.10 168.81 80.33 166.40 79.80 C 164.65 79.41 171.20 69.92 179.75 60.45 C 186.72 52.73 187.30 50.46 184.12 43.46 C 181.79 38.32 177.32 34.57 168.53 30.35 C 160.70 26.59 152.62 25.88 146.57 28.41 C 142.10 30.28 141.00 32.41 142.23 36.86 C 145.86 50.02 130.32 87.00 111.31 110.43 C 106.46 116.40 102.85 119.12 104.75 115.37 C 105.59 113.71 107.88 102.79 112.39 79.00 C 113.76 71.75 115.92 66.04 119.87 59.24 C 121.47 56.49 121.60 55.26 120.76 51.24 C 120.22 48.63 119.31 45.93 118.75 45.23 C 116.91 42.95 97.89 34.00 94.88 34.00 C 93.26 34.00 89.81 35.06 87.22 36.36 C 78.38 40.79 61.10 45.01 45.50 46.55 C 41.65 46.94 37.71 47.66 36.75 48.16 C 32.94 50.14 35.64 60.54 41.34 65.86 C 43.44 67.82 43.68 68.55 42.72 70.07 C 41.82 71.51 41.97 73.03 43.43 77.08 C 46.18 84.74 45.12 99.46 40.55 117.00 C 37.49 128.72 36.62 130.85 33.91 133.16 C 31.34 135.36 30.91 136.30 31.43 138.66 C 32.41 143.07 41.55 154.82 45.46 156.68 C 48.77 158.26 49.10 158.23 54.70 155.73 C 63.83 151.65 74.77 148.34 83.82 146.92 C 92.81 145.51 94.33 146.05 93.76 150.45 C 93.55 152.04 91.48 152.92 82.50 155.25 C 76.45 156.81 63.71 159.44 54.19 161.09 C 44.67 162.74 35.75 164.52 34.37 165.05 C 33.00 165.57 28.58 166.00 24.57 166.00 C 15.95 166.00 12.00 168.19 12.00 172.96 C 12.00 178.70 24.61 194.11 30.53 195.60 C 36.07 196.99 42.32 195.39 50.50 190.48 C 60.64 184.40 88.93 170.60 89.70 171.36 C 90.45 172.12 88.18 183.60 86.45 187.76 C 84.22 193.13 80.13 193.79 63.75 191.43 C 58.38 190.65 57.75 191.63 60.76 196.09 C 61.71 197.51 64.41 201.51 66.74 204.98 C 70.97 211.26 72.98 216.38 72.99 220.85 C 73.00 222.20 74.50 224.70 76.53 226.73 C 79.70 229.90 80.48 230.21 84.28 229.78 C 89.29 229.21 98.41 224.94 103.42 220.80 C 110.94 214.61 113.06 208.77 120.03 175.06 C 122.23 164.37 124.32 155.37 124.65 155.06 C 124.99 154.75 124.95 159.35 124.56 165.28 C 123.86 176.06 123.86 176.06 127.33 179.53 C 129.98 182.18 131.64 183.00 134.32 183.00 C 138.07 183.00 143.43 179.38 144.45 176.17 C 144.90 174.74 147.13 174.20 156.75 173.19 C 163.21 172.52 170.53 172.24 173.00 172.58 C 176.68 173.08 177.99 172.81 180.21 171.05 C 184.12 167.97 184.83 162.97 181.95 158.93 C 179.69 155.75 179.69 155.75 181.86 149.63 C 183.26 145.65 185.21 142.45 187.42 140.50 C 191.87 136.56 192.72 132.41 190.21 126.73 C 188.51 122.90 187.28 121.85 180.23 118.18 C 171.18 113.47 167.64 113.07 161.13 116.03 C 153.38 119.54 140.91 122.25 131.50 122.47 C 126.55 122.58 121.60 123.00 120.50 123.41 C 119.40 123.82 122.33 122.29 127.00 120.02 C 131.68 117.75 137.61 114.11 140.18 111.94 C 145.12 107.78 146.83 107.30 150.23 109.12 C 151.78 109.95 153.65 109.95 157.41 109.12 C 163.78 107.71 185.24 105.02 190.23 105.01 C 195.21 105.00 195.45 106.20 194.67 127.42 C 193.77 151.65 189.62 179.85 185.87 187.23 C 182.69 193.50 179.59 193.46 164.26 186.93 C 154.20 182.65 150.00 181.98 150.00 184.65 C 150.00 185.56 153.40 191.60 157.55 198.08 C 162.57 205.91 165.73 212.07 167.00 216.49 C 169.55 225.40 171.84 229.06 176.56 231.73 C 182.15 234.90 189.09 234.75 196.05 231.31 Z  M 146.83 147.40 C 146.65 143.22 146.72 139.67 147.00 139.52 C 148.64 138.58 155.72 138.12 156.88 138.88 C 158.04 139.64 158.06 140.82 156.95 146.39 C 155.68 152.74 155.49 153.05 152.07 154.00 C 150.10 154.54 148.20 154.99 147.83 154.99 C 147.46 155.00 147.01 151.58 146.83 147.40 Z  M 65.69 125.31 C 65.05 124.27 70.10 102.67 73.65 91.30 C 75.19 86.36 75.98 82.04 75.60 80.56 C 74.81 77.41 69.78 73.71 64.00 72.02 C 59.50 70.71 59.50 70.71 62.79 69.34 C 67.08 67.54 80.27 65.51 82.37 66.31 C 84.76 67.23 84.46 70.73 80.27 90.70 C 76.67 107.88 75.81 117.17 77.41 121.62 C 78.08 123.49 77.71 123.83 74.33 124.44 C 72.23 124.82 69.54 125.37 68.36 125.65 C 67.18 125.93 65.98 125.78 65.69 125.31 Z "/>
</g>
</svg>