<?xml version="1.0" encoding="UTF-8" standalone="no"?>
<!DOCTYPE svg PUBLIC "-//W3C//DTD SVG 1.1//EN" "http://www.w3.org/Graphics/SVG/1.1/DTD/svg11.dtd" >
<svg xmlns="http://www.w3.org/2000/svg" xmlns:xlink="http://www.w3.org/1999/xlink" version="1.1" viewBox="0 0 256 256">
 <g >
 <path fill="currentColor"
d=" M 143.31 223.02 C 151.59 221.08 191.58 218.85 214.50 219.05 C 227.15 219.16 238.22 219.19 239.10 219.13 C 242.10 218.89 246.00 214.29 246.00 210.98 C 246.00 204.27 238.94 195.85 229.53 191.34 C 221.33 187.41 219.30 187.31 203.03 190.07 C 196.31 191.22 190.60 191.93 190.33 191.66 C 190.06 191.40 190.62 188.43 191.56 185.06 C 192.51 181.70 192.95 178.62 192.55 178.22 C 192.15 177.83 197.25 177.02 203.89 176.42 C 217.46 175.21 220.00 173.97 220.00 168.56 C 220.00 160.97 213.31 153.24 204.76 150.94 C 200.42 149.77 197.90 150.20 184.00 154.49 C 175.06 157.25 158.78 161.11 158.26 160.59 C 158.09 160.43 158.91 157.80 160.08 154.75 C 162.20 149.21 162.20 149.21 169.85 148.07 C 191.47 144.84 204.02 143.83 215.88 144.35 C 228.26 144.89 228.26 144.89 231.26 141.90 C 233.92 139.24 234.19 138.41 233.74 134.41 C 232.93 127.17 228.45 121.03 221.46 117.55 C 214.21 113.94 210.92 113.90 198.71 117.32 C 185.85 120.93 171.83 124.16 171.32 123.65 C 171.08 123.41 171.28 121.72 171.75 119.88 C 172.72 116.13 172.13 116.32 190.50 114.10 C 206.93 112.13 206.99 112.11 208.22 109.42 C 210.06 105.38 207.09 100.66 199.76 95.92 C 193.91 92.15 193.12 91.91 187.79 92.34 C 182.75 92.75 182.00 92.57 181.44 90.83 C 181.10 89.74 180.97 88.72 181.16 88.55 C 182.63 87.28 203.19 84.94 208.03 85.50 C 215.43 86.36 218.00 85.12 218.00 80.66 C 218.00 73.72 209.29 64.57 200.81 62.61 C 199.33 62.27 195.53 62.67 192.35 63.50 C 183.72 65.74 183.74 65.37 192.50 60.66 C 196.90 58.30 202.36 55.18 204.64 53.74 C 206.92 52.29 210.81 50.16 213.30 48.99 C 220.29 45.70 221.56 40.51 216.96 33.98 C 215.99 32.59 211.15 29.33 206.22 26.73 C 198.45 22.63 196.47 22.00 191.32 22.00 C 187.80 22.00 184.60 22.57 183.46 23.41 C 181.71 24.69 181.64 25.22 182.77 29.42 C 183.45 31.96 184.00 34.68 184.00 35.48 C 184.00 37.10 175.83 50.86 168.67 61.31 C 166.10 65.06 164.00 68.78 164.00 69.59 C 164.00 70.99 159.20 73.53 158.28 72.61 C 158.04 72.37 158.51 71.12 159.32 69.84 C 162.93 64.14 162.52 55.52 158.34 49.36 C 156.21 46.22 155.95 45.01 156.52 40.85 C 156.89 38.18 157.60 35.75 158.09 35.44 C 158.59 35.13 159.00 34.45 159.00 33.93 C 159.00 33.40 156.31 34.33 153.03 35.99 C 146.01 39.53 143.36 39.70 137.76 37.00 C 132.85 34.63 128.72 34.43 127.01 36.49 C 126.01 37.69 126.17 39.49 127.85 45.66 C 130.88 56.79 140.36 70.25 147.17 73.07 C 150.31 74.37 150.31 74.37 143.91 76.18 C 140.38 77.18 135.70 78.00 133.50 78.00 C 128.40 78.01 122.55 79.63 121.05 81.44 C 119.25 83.61 125.92 90.34 133.59 94.12 C 138.94 96.75 140.78 97.18 145.04 96.77 C 150.11 96.28 150.11 96.28 149.80 99.31 C 149.50 102.33 149.49 102.33 138.00 104.58 C 131.68 105.81 125.73 107.13 124.78 107.51 C 123.17 108.15 123.16 107.98 124.66 104.99 C 125.98 102.34 126.05 101.12 125.09 97.92 C 123.70 93.28 119.61 89.92 111.16 86.49 C 103.75 83.48 99.16 83.36 91.50 86.00 C 88.30 87.10 85.51 88.00 85.30 88.00 C 85.08 88.00 85.04 85.25 85.20 81.88 C 85.50 75.76 85.50 75.76 93.00 73.83 C 97.12 72.76 104.00 71.52 108.29 71.07 C 117.09 70.14 120.00 68.33 120.00 63.80 C 120.00 58.09 115.88 52.92 108.29 49.11 C 102.67 46.29 100.05 46.44 93.00 50.00 C 89.73 51.65 86.82 53.00 86.53 53.00 C 85.51 53.00 86.02 50.03 87.62 46.68 C 89.11 43.54 89.11 43.03 87.53 39.70 C 85.47 35.36 83.92 34.33 73.00 30.08 C 65.51 27.16 63.70 26.82 57.67 27.26 C 48.42 27.92 47.08 29.28 50.04 35.07 C 54.44 43.70 55.92 49.98 57.03 64.80 C 57.64 72.88 57.99 82.88 57.82 87.00 C 57.50 94.50 57.50 94.50 52.05 95.17 C 47.54 95.72 46.18 95.50 44.16 93.92 C 42.23 92.39 40.10 92.00 33.80 92.00 C 29.44 92.00 25.00 92.47 23.93 93.04 C 21.44 94.37 21.47 98.23 24.02 103.86 C 25.75 107.66 26.00 110.42 26.00 125.36 C 26.00 148.80 24.58 162.45 20.96 173.76 C 17.18 185.57 17.16 190.74 20.86 198.50 C 27.20 211.82 34.32 214.32 42.07 205.93 C 45.69 202.01 45.69 202.01 64.09 199.98 C 74.22 198.87 83.62 198.21 85.00 198.52 C 86.80 198.92 88.24 200.61 90.16 204.54 C 92.82 210.00 92.82 210.00 87.41 214.62 C 84.20 217.37 82.00 220.06 82.00 221.25 C 82.00 223.09 82.43 223.20 87.25 222.57 C 97.06 221.29 107.48 218.85 113.79 216.34 C 120.07 213.83 120.07 213.83 123.91 217.30 C 127.37 220.42 130.70 222.02 136.50 223.32 C 137.60 223.57 138.64 223.82 138.81 223.88 C 138.98 223.95 141.00 223.56 143.31 223.02 Z  M 140.76 196.16 C 142.27 194.08 144.57 190.08 145.88 187.27 C 148.11 182.49 148.42 182.23 150.64 183.25 C 152.31 184.01 154.36 184.03 157.49 183.31 C 159.94 182.75 162.19 182.52 162.48 182.81 C 163.57 183.91 162.96 194.78 161.75 195.79 C 161.06 196.36 156.68 197.33 152.00 197.95 C 147.32 198.57 142.27 199.27 140.76 199.51 C 138.03 199.94 138.03 199.94 140.76 196.16 Z  M 50.00 177.63 C 50.00 177.43 51.91 176.01 54.25 174.47 C 56.59 172.93 61.73 168.55 65.68 164.74 C 72.86 157.80 72.86 157.80 75.55 163.15 C 77.02 166.09 78.92 169.29 79.77 170.25 C 81.65 172.38 85.93 172.52 88.56 170.53 C 91.35 168.42 92.00 168.65 91.98 171.75 C 91.96 176.56 90.74 177.44 86.89 175.44 C 83.96 173.93 82.78 173.85 77.88 174.86 C 70.22 176.45 50.00 178.45 50.00 177.63 Z  M 121.00 163.59 C 121.00 154.66 121.16 153.85 122.75 154.48 C 123.71 154.86 125.92 155.41 127.65 155.70 C 130.79 156.23 130.79 156.23 126.74 163.86 C 124.51 168.06 122.31 171.93 121.85 172.45 C 121.38 172.98 121.00 169.02 121.00 163.59 Z  M 50.10 150.42 C 50.15 144.96 50.49 138.06 50.85 135.08 C 51.50 129.66 51.50 129.66 56.71 135.36 C 61.92 141.07 61.92 141.07 56.35 150.28 C 53.28 155.35 50.60 159.69 50.39 159.92 C 50.17 160.15 50.04 155.87 50.10 150.42 Z  M 87.72 143.92 C 83.94 138.96 83.94 138.96 86.48 134.63 C 87.88 132.24 89.91 129.48 91.01 128.49 C 92.99 126.70 93.00 126.77 93.00 137.85 C 93.00 143.98 92.66 148.97 92.25 148.94 C 91.84 148.91 89.80 146.65 87.72 143.92 Z  M 121.02 124.25 C 121.03 113.26 121.70 112.03 125.49 115.99 C 128.35 118.97 137.28 123.00 141.04 123.00 C 143.23 123.00 143.42 123.77 142.10 127.24 C 141.34 129.22 139.89 129.90 133.32 131.31 C 120.36 134.09 121.00 134.46 121.02 124.25 Z  M 61.50 123.36 C 57.65 121.56 53.94 120.06 53.25 120.04 C 52.55 120.02 52.00 118.74 52.00 117.15 C 52.00 114.39 52.24 114.25 58.94 113.15 C 70.26 111.28 70.02 111.18 69.90 117.25 C 69.85 120.14 69.51 123.43 69.15 124.57 C 68.51 126.61 68.35 126.58 61.50 123.36 Z  M 87.56 112.73 C 82.62 109.60 82.62 109.60 85.82 108.77 C 90.24 107.62 93.00 109.26 93.00 113.04 C 93.00 114.67 92.89 115.97 92.75 115.93 C 92.61 115.89 90.28 114.45 87.56 112.73 Z "/>
</g>
</svg>