<?xml version="1.0" encoding="UTF-8" standalone="no"?>
<!DOCTYPE svg PUBLIC "-//W3C//DTD SVG 1.1//EN" "http://www.w3.org/Graphics/SVG/1.1/DTD/svg11.dtd" >
<svg xmlns="http://www.w3.org/2000/svg" xmlns:xlink="http://www.w3.org/1999/xlink" version="1.1" viewBox="0 0 226 256">
 <g >
 <path fill="currentColor"
d=" M 183.06 226.75 C 193.93 216.50 193.93 216.50 193.94 131.00 C 193.95 45.50 193.95 45.50 182.38 33.25 C 170.81 21.00 170.81 21.00 113.32 21.00 C 55.83 21.00 55.83 21.00 43.91 32.16 C 32.00 43.33 32.00 43.33 32.00 129.66 C 32.00 215.99 32.00 215.99 42.75 226.46 C 53.50 236.93 53.50 236.93 112.84 236.97 C 172.19 237.00 172.19 237.00 183.06 226.75 Z  M 55.00 177.00 C 55.00 138.00 55.00 138.00 113.50 138.00 C 172.00 138.00 172.00 138.00 172.00 177.00 C 172.00 216.00 172.00 216.00 113.50 216.00 C 55.00 216.00 55.00 216.00 55.00 177.00 Z  M 55.00 79.50 C 55.00 43.00 55.00 43.00 113.50 43.00 C 172.00 43.00 172.00 43.00 172.00 79.50 C 172.00 116.00 172.00 116.00 113.50 116.00 C 55.00 116.00 55.00 116.00 55.00 79.50 Z "/>
</g>
</svg>