<?xml version="1.0" encoding="UTF-8" standalone="no"?>
<!DOCTYPE svg PUBLIC "-//W3C//DTD SVG 1.1//EN" "http://www.w3.org/Graphics/SVG/1.1/DTD/svg11.dtd" >
<svg xmlns="http://www.w3.org/2000/svg" xmlns:xlink="http://www.w3.org/1999/xlink" version="1.1" viewBox="0 0 226 256">
 <g >
 <path fill="currentColor"
d=" M 81.00 200.31 C 81.00 193.54 80.77 188.00 80.49 188.00 C 80.21 188.00 75.50 192.61 70.03 198.25 C 60.07 208.50 60.07 208.50 60.03 157.02 C 60.00 105.54 60.00 105.54 50.27 95.77 C 40.54 86.00 40.54 86.00 32.27 86.00 C 24.00 86.00 24.00 86.00 24.00 95.46 C 24.00 104.92 24.00 104.92 31.75 105.21 C 39.50 105.50 39.50 105.50 40.00 168.47 C 40.50 231.44 40.50 231.44 49.00 234.16 C 57.50 236.88 57.50 236.88 69.25 224.75 C 81.00 212.61 81.00 212.61 81.00 200.31 Z  M 191.23 223.27 C 201.00 213.54 201.00 213.54 201.00 136.54 C 201.00 59.54 201.00 59.54 191.27 49.77 C 181.54 40.00 181.54 40.00 142.77 40.00 C 121.45 40.00 104.00 39.78 104.00 39.52 C 104.00 39.25 105.80 35.14 108.00 30.38 C 110.20 25.62 112.00 21.56 112.00 21.36 C 112.00 21.16 107.14 21.00 101.21 21.00 C 90.42 21.00 90.42 21.00 86.75 29.75 C 84.72 34.56 82.79 39.25 82.46 40.17 C 82.06 41.26 84.00 45.05 87.95 50.92 C 94.05 60.00 94.05 60.00 138.03 60.00 C 182.00 60.00 182.00 60.00 182.00 136.50 C 182.00 213.00 182.00 213.00 169.50 213.00 C 157.00 213.00 157.00 213.00 157.00 223.00 C 157.00 233.00 157.00 233.00 169.23 233.00 C 181.46 233.00 181.46 233.00 191.23 223.27 Z  M 159.61 190.38 C 170.00 180.75 170.00 180.75 170.00 138.47 C 170.00 96.19 170.00 96.19 160.00 87.10 C 149.99 78.00 149.99 78.00 129.45 78.00 C 108.91 78.00 108.91 78.00 99.46 87.15 C 90.00 96.29 90.00 96.29 90.00 138.38 C 90.00 180.46 90.00 180.46 99.73 190.23 C 109.46 200.00 109.46 200.00 129.34 200.00 C 149.22 200.00 149.22 200.00 159.61 190.38 Z  M 66.00 64.74 C 66.00 63.40 51.42 22.09 50.69 21.36 C 50.45 21.12 45.74 21.06 40.21 21.21 C 30.15 21.50 30.15 21.50 38.08 42.50 C 42.44 54.05 46.21 64.06 46.47 64.75 C 47.14 66.53 66.00 66.52 66.00 64.74 Z  M 109.00 164.50 C 109.00 147.00 109.00 147.00 130.50 147.00 C 152.00 147.00 152.00 147.00 152.00 164.50 C 152.00 182.00 152.00 182.00 130.50 182.00 C 109.00 182.00 109.00 182.00 109.00 164.50 Z  M 109.00 112.50 C 109.00 96.00 109.00 96.00 130.50 96.00 C 152.00 96.00 152.00 96.00 152.00 112.50 C 152.00 129.00 152.00 129.00 130.50 129.00 C 109.00 129.00 109.00 129.00 109.00 112.50 Z "/>
</g>
</svg>