<?xml version="1.0" encoding="UTF-8" standalone="no"?>
<!DOCTYPE svg PUBLIC "-//W3C//DTD SVG 1.1//EN" "http://www.w3.org/Graphics/SVG/1.1/DTD/svg11.dtd" >
<svg xmlns="http://www.w3.org/2000/svg" xmlns:xlink="http://www.w3.org/1999/xlink" version="1.1" viewBox="0 0 226 256">
 <g >
 <path fill="currentColor"
d=" M 74.75 223.16 C 91.00 210.71 91.00 210.71 91.00 198.75 C 91.00 188.71 90.77 186.88 89.55 187.34 C 88.75 187.65 82.08 192.42 74.71 197.95 C 67.35 203.48 61.03 208.00 60.66 208.00 C 60.30 208.00 60.00 197.20 60.00 184.00 C 60.00 160.00 60.00 160.00 75.53 160.00 C 91.07 160.00 91.07 160.00 90.78 149.75 C 90.50 139.50 90.50 139.50 75.25 139.22 C 60.00 138.95 60.00 138.95 60.00 122.97 C 60.00 107.00 60.00 107.00 75.50 107.00 C 91.00 107.00 91.00 107.00 91.00 97.50 C 91.00 88.00 91.00 88.00 54.00 88.00 C 17.00 88.00 17.00 88.00 17.00 97.47 C 17.00 106.93 17.00 106.93 28.25 107.22 C 39.50 107.50 39.50 107.50 39.78 123.25 C 40.05 139.00 40.05 139.00 28.53 139.00 C 17.00 139.00 17.00 139.00 17.00 149.50 C 17.00 160.00 17.00 160.00 28.49 160.00 C 39.97 160.00 39.97 160.00 40.24 192.20 C 40.50 224.40 40.50 224.40 48.50 230.60 C 52.90 234.01 56.95 236.53 57.50 236.20 C 58.05 235.87 65.81 230.00 74.75 223.16 Z  M 171.24 170.75 C 171.50 104.50 171.50 104.50 191.25 104.23 C 211.00 103.96 211.00 103.96 211.00 94.50 C 211.00 85.04 211.00 85.04 191.25 84.77 C 171.50 84.50 171.50 84.50 171.24 52.75 C 170.97 21.00 170.97 21.00 160.99 21.00 C 151.00 21.00 151.00 21.00 151.00 53.00 C 151.00 85.00 151.00 85.00 127.50 85.00 C 104.00 85.00 104.00 85.00 104.00 94.50 C 104.00 104.00 104.00 104.00 127.50 104.00 C 151.00 104.00 151.00 104.00 151.00 170.50 C 151.00 237.00 151.00 237.00 160.99 237.00 C 170.99 237.00 170.99 237.00 171.24 170.75 Z  M 90.79 53.25 C 91.08 44.00 91.08 44.00 63.04 44.00 C 47.62 44.00 35.00 43.77 35.00 43.48 C 35.00 43.20 37.25 38.48 40.00 33.00 C 42.75 27.52 45.00 22.56 45.00 21.98 C 45.00 21.30 41.60 21.03 35.25 21.21 C 25.50 21.50 25.50 21.50 19.77 32.65 C 14.04 43.79 14.04 43.79 18.53 53.41 C 23.03 63.03 23.03 63.03 56.76 62.76 C 90.50 62.50 90.50 62.50 90.79 53.25 Z "/>
</g>
</svg>