<?xml version="1.0" encoding="UTF-8" standalone="no"?>
<!DOCTYPE svg PUBLIC "-//W3C//DTD SVG 1.1//EN" "http://www.w3.org/Graphics/SVG/1.1/DTD/svg11.dtd" >
<svg xmlns="http://www.w3.org/2000/svg" xmlns:xlink="http://www.w3.org/1999/xlink" version="1.1" viewBox="0 0 256 256">
 <g >
 <path fill="currentColor"
d=" M 209.50 230.00 C 212.99 228.25 215.17 226.29 216.73 223.50 C 218.94 219.55 218.97 218.97 218.98 180.75 C 219.00 142.00 219.00 142.00 163.50 142.00 C 108.00 142.00 108.00 142.00 108.00 187.54 C 108.00 233.07 108.00 233.07 156.25 232.79 C 204.50 232.50 204.50 232.50 209.50 230.00 Z  M 29.16 218.52 C 41.26 215.70 74.01 206.41 87.57 201.94 C 96.65 198.95 96.65 198.95 95.68 192.95 C 94.91 188.14 94.40 187.05 93.11 187.45 C 90.88 188.15 66.24 194.00 65.55 194.00 C 65.25 194.00 65.00 179.60 65.00 162.00 C 65.00 130.00 65.00 130.00 78.54 130.00 C 92.08 130.00 92.08 130.00 91.79 122.25 C 91.50 114.50 91.50 114.50 78.25 114.22 C 65.00 113.94 65.00 113.94 65.00 85.00 C 65.00 56.05 65.00 56.05 80.25 55.78 C 95.50 55.50 95.50 55.50 95.79 47.75 C 96.08 40.00 96.08 40.00 54.54 40.00 C 13.00 40.00 13.00 40.00 13.00 48.00 C 13.00 56.00 13.00 56.00 28.00 56.00 C 43.00 56.00 43.00 56.00 43.00 85.00 C 43.00 114.00 43.00 114.00 29.00 114.00 C 15.00 114.00 15.00 114.00 15.00 122.00 C 15.00 130.00 15.00 130.00 29.00 130.00 C 43.00 130.00 43.00 130.00 43.00 164.43 C 43.00 196.36 42.87 198.90 41.25 199.39 C 40.29 199.67 32.77 201.29 24.55 202.99 C 16.33 204.68 9.47 206.20 9.31 206.36 C 9.15 206.52 9.95 209.54 11.09 213.08 C 12.23 216.61 13.35 220.07 13.56 220.77 C 13.80 221.54 14.86 221.84 16.23 221.52 C 17.48 221.23 23.29 219.88 29.16 218.52 Z  M 243.20 105.20 C 245.89 100.39 245.89 100.39 237.70 94.47 C 226.12 86.09 210.45 72.37 201.46 62.73 C 192.43 53.04 181.71 37.27 176.91 26.59 C 173.50 19.00 173.50 19.00 162.95 19.00 C 152.39 19.00 152.39 19.00 148.27 27.75 C 135.34 55.20 116.87 78.59 96.00 93.95 C 91.33 97.39 87.37 100.33 87.21 100.48 C 86.59 101.05 91.26 108.00 92.26 108.00 C 95.58 108.00 119.43 93.10 129.50 84.74 C 139.89 76.11 152.05 61.82 159.10 49.95 C 163.24 42.98 163.24 42.98 167.56 49.99 C 169.94 53.85 173.90 59.62 176.37 62.83 C 182.46 70.75 198.94 86.23 208.83 93.33 C 216.48 98.83 236.97 110.00 239.39 110.00 C 240.00 110.00 241.71 107.84 243.20 105.20 Z  M 208.00 101.00 C 208.00 93.00 208.00 93.00 164.00 93.00 C 120.00 93.00 120.00 93.00 120.00 101.00 C 120.00 109.00 120.00 109.00 164.00 109.00 C 208.00 109.00 208.00 109.00 208.00 101.00 Z  M 129.23 187.75 C 129.50 158.50 129.50 158.50 163.25 158.24 C 197.00 157.97 197.00 157.97 197.00 187.49 C 197.00 217.00 197.00 217.00 162.98 217.00 C 128.97 217.00 128.97 217.00 129.23 187.75 Z "/>
</g>
</svg>