<?xml version="1.0" encoding="UTF-8" standalone="no"?>
<!DOCTYPE svg PUBLIC "-//W3C//DTD SVG 1.1//EN" "http://www.w3.org/Graphics/SVG/1.1/DTD/svg11.dtd" >
<svg xmlns="http://www.w3.org/2000/svg" xmlns:xlink="http://www.w3.org/1999/xlink" version="1.1" viewBox="0 0 256 256">
 <g >
 <path fill="currentColor"
d=" M 108.61 233.75 C 119.78 215.72 127.16 197.31 130.35 179.50 C 133.25 163.31 134.00 149.06 134.00 110.25 C 134.00 72.00 134.00 72.00 179.53 72.00 C 228.11 72.00 229.15 71.90 233.50 67.04 C 235.33 64.99 235.53 63.13 235.81 45.40 C 236.12 26.00 236.12 26.00 176.56 26.00 C 117.00 26.00 117.00 26.00 116.96 60.75 C 116.91 106.86 115.40 158.19 113.57 175.50 C 111.56 194.65 107.43 211.77 100.36 230.34 C 98.51 235.20 97.00 239.34 97.00 239.55 C 97.00 239.86 101.91 242.80 102.69 242.96 C 102.79 242.98 105.46 238.84 108.61 233.75 Z  M 86.83 235.38 C 92.38 232.67 95.20 229.25 97.06 223.00 C 98.13 219.40 100.63 174.35 101.13 149.50 C 101.42 135.50 101.42 135.50 89.21 135.22 C 77.00 134.94 77.00 134.94 77.00 123.97 C 77.00 113.00 77.00 113.00 89.05 113.00 C 101.10 113.00 101.10 113.00 100.80 106.75 C 100.50 100.50 100.50 100.50 88.75 100.22 C 77.00 99.94 77.00 99.94 77.00 89.50 C 77.00 79.06 77.00 79.06 88.75 78.78 C 100.50 78.50 100.50 78.50 100.80 72.25 C 101.10 66.00 101.10 66.00 89.05 66.00 C 77.00 66.00 77.00 66.00 77.00 55.03 C 77.00 44.06 77.00 44.06 90.25 43.78 C 103.50 43.50 103.50 43.50 103.80 36.75 C 104.09 30.00 104.09 30.00 63.05 30.00 C 22.00 30.00 22.00 30.00 22.00 89.50 C 22.00 149.00 22.00 149.00 52.94 149.00 C 69.96 149.00 84.05 149.34 84.27 149.75 C 84.48 150.16 84.45 158.79 84.21 168.92 C 83.97 179.05 83.44 186.70 83.04 185.92 C 82.64 185.14 80.83 178.75 79.01 171.73 C 76.33 161.41 75.39 159.05 74.10 159.41 C 73.22 159.65 71.04 160.15 69.25 160.50 C 67.46 160.86 66.00 161.47 66.00 161.85 C 66.00 162.24 67.34 168.05 68.99 174.78 C 72.04 187.29 74.97 194.30 80.24 201.66 C 82.97 205.48 83.15 206.26 82.50 211.16 C 81.54 218.26 79.68 222.55 76.83 224.17 C 75.25 225.07 71.01 225.47 63.70 225.40 C 52.90 225.31 52.90 225.31 53.20 228.85 C 53.44 231.69 54.19 232.80 56.94 234.40 C 65.85 239.59 77.44 239.97 86.83 235.38 Z  M 157.32 237.55 C 159.42 236.80 161.93 235.47 162.89 234.60 C 165.56 232.18 167.00 224.10 167.00 211.56 C 167.00 200.27 167.00 200.27 174.25 197.89 C 181.50 195.50 181.50 195.50 181.81 191.22 C 182.10 187.19 181.98 186.96 179.81 187.46 C 173.54 188.89 168.42 189.95 167.75 189.98 C 165.64 190.04 167.83 186.86 176.00 178.00 C 184.64 168.63 185.00 168.05 185.00 163.60 C 185.00 158.96 185.00 158.96 161.25 159.23 C 137.50 159.50 137.50 159.50 137.20 164.22 C 136.89 168.95 136.89 168.95 151.96 169.22 C 167.03 169.50 167.03 169.50 159.53 178.00 C 154.21 184.03 152.03 187.28 152.02 189.18 C 152.00 191.93 151.34 192.35 145.50 193.38 C 130.03 196.08 130.73 195.66 131.49 201.84 C 131.88 204.95 132.31 207.62 132.45 207.77 C 132.67 208.00 143.23 206.00 149.75 204.48 C 151.96 203.97 152.00 204.12 152.00 213.42 C 152.00 218.62 151.59 223.95 151.08 225.28 C 149.65 229.04 145.31 230.34 138.43 229.07 C 130.73 227.65 131.00 227.58 131.00 230.96 C 131.00 233.01 131.69 234.30 133.25 235.14 C 140.30 238.93 150.57 239.96 157.32 237.55 Z  M 213.30 236.12 C 218.78 232.74 220.00 228.99 220.00 215.60 C 220.00 204.00 220.00 204.00 232.50 204.00 C 245.00 204.00 245.00 204.00 245.00 198.00 C 245.00 192.00 245.00 192.00 232.50 192.00 C 220.07 192.00 220.00 191.99 220.00 189.66 C 220.00 188.09 223.09 184.06 229.50 177.26 C 238.94 167.25 239.00 167.15 239.00 162.09 C 239.00 157.00 239.00 157.00 215.00 157.00 C 191.00 157.00 191.00 157.00 191.00 162.50 C 191.00 168.00 191.00 168.00 205.58 168.00 C 220.16 168.00 220.16 168.00 212.58 176.24 C 205.94 183.45 205.00 184.94 205.00 188.24 C 205.00 192.00 205.00 192.00 195.00 192.00 C 185.00 192.00 185.00 192.00 185.00 198.00 C 185.00 204.00 185.00 204.00 195.00 204.00 C 205.00 204.00 205.00 204.00 205.00 214.50 C 205.00 223.62 204.74 225.26 203.03 226.97 C 200.22 229.78 197.10 230.30 190.45 229.08 C 182.73 227.65 183.00 227.58 183.00 230.97 C 183.00 233.26 183.69 234.30 185.97 235.48 C 193.82 239.54 207.26 239.86 213.30 236.12 Z  M 11.95 225.06 C 19.51 214.45 25.90 192.17 28.54 167.25 C 29.20 161.00 29.20 161.00 22.16 161.00 C 14.07 161.00 15.33 158.08 12.43 183.50 C 11.55 191.20 9.77 204.01 8.47 211.97 C 6.66 223.02 6.38 226.62 7.30 227.21 C 9.21 228.42 9.74 228.18 11.95 225.06 Z  M 49.68 217.75 C 49.38 216.51 48.16 203.57 46.95 189.00 C 45.75 174.43 44.69 162.41 44.60 162.30 C 44.51 162.19 41.86 162.37 38.72 162.69 C 31.95 163.39 32.26 161.98 34.54 182.00 C 36.27 197.17 38.83 207.76 42.53 215.06 C 44.56 219.07 45.52 220.00 47.63 220.00 C 49.81 220.00 50.13 219.64 49.68 217.75 Z  M 67.58 212.23 C 68.34 211.72 67.48 203.93 64.74 186.50 C 62.59 172.75 60.75 161.43 60.66 161.35 C 60.57 161.27 57.91 161.65 54.75 162.20 C 51.24 162.81 49.00 163.70 49.00 164.49 C 49.00 167.63 52.36 183.06 54.65 190.43 C 57.66 200.10 63.79 213.01 65.37 212.98 C 65.99 212.98 66.99 212.64 67.58 212.23 Z  M 192.02 147.75 C 197.00 145.23 197.75 143.57 197.90 134.75 C 198.00 129.00 198.00 129.00 220.00 129.00 C 242.00 129.00 242.00 129.00 242.00 123.50 C 242.00 118.00 242.00 118.00 220.00 118.00 C 203.07 118.00 198.00 117.71 198.00 116.75 C 198.00 116.06 205.20 111.45 214.00 106.50 C 230.00 97.50 230.00 97.50 230.00 92.25 C 230.00 87.00 230.00 87.00 188.50 87.00 C 147.00 87.00 147.00 87.00 147.00 92.00 C 147.00 97.00 147.00 97.00 175.00 97.00 C 190.40 97.00 202.98 97.34 202.96 97.75 C 202.94 98.16 198.22 101.65 192.47 105.50 C 183.48 111.52 182.02 112.88 182.01 115.23 C 182.00 117.96 182.00 117.96 159.25 118.23 C 136.50 118.50 136.50 118.50 136.20 123.75 C 135.90 129.00 135.90 129.00 158.95 129.00 C 182.00 129.00 182.00 129.00 182.00 133.85 C 182.00 141.76 178.56 143.22 163.50 141.70 C 161.99 141.55 161.50 142.10 161.50 143.96 C 161.50 146.08 162.29 146.68 167.00 148.15 C 175.23 150.73 186.49 150.55 192.02 147.75 Z  M 134.67 59.33 C 134.30 58.97 134.00 54.24 134.00 48.83 C 134.00 39.00 134.00 39.00 176.00 39.00 C 218.00 39.00 218.00 39.00 218.00 49.50 C 218.00 60.00 218.00 60.00 176.67 60.00 C 153.93 60.00 135.03 59.70 134.67 59.33 Z  M 39.00 123.97 C 39.00 112.93 39.00 112.93 49.25 113.22 C 59.50 113.50 59.50 113.50 59.78 124.25 C 60.07 135.00 60.07 135.00 49.53 135.00 C 39.00 135.00 39.00 135.00 39.00 123.97 Z  M 39.00 89.50 C 39.00 79.00 39.00 79.00 49.50 79.00 C 60.00 79.00 60.00 79.00 60.00 89.50 C 60.00 100.00 60.00 100.00 49.50 100.00 C 39.00 100.00 39.00 100.00 39.00 89.50 Z  M 39.00 55.03 C 39.00 44.00 39.00 44.00 49.53 44.00 C 60.07 44.00 60.07 44.00 59.78 54.75 C 59.50 65.50 59.50 65.50 49.25 65.78 C 39.00 66.07 39.00 66.07 39.00 55.03 Z "/>
</g>
</svg>