<?xml version="1.0" encoding="UTF-8" standalone="no"?>
<!DOCTYPE svg PUBLIC "-//W3C//DTD SVG 1.1//EN" "http://www.w3.org/Graphics/SVG/1.1/DTD/svg11.dtd" >
<svg xmlns="http://www.w3.org/2000/svg" xmlns:xlink="http://www.w3.org/1999/xlink" version="1.1" viewBox="0 0 256 256">
 <g >
 <path fill="currentColor"
d=" M 170.50 192.00 C 175.03 190.28 183.04 182.70 185.61 177.70 C 186.97 175.06 188.74 172.65 189.54 172.35 C 190.34 172.04 191.00 171.24 191.00 170.57 C 191.00 169.90 192.41 166.46 194.12 162.93 C 198.23 154.49 199.68 150.26 201.00 142.98 C 202.16 136.60 206.23 123.17 208.27 119.00 C 208.94 117.62 210.95 114.03 212.74 111.00 C 214.53 107.97 216.00 104.13 216.00 102.45 C 216.00 96.18 204.24 83.00 198.65 83.00 C 198.10 83.00 196.85 82.27 195.86 81.38 C 192.42 78.26 184.45 77.30 169.50 78.21 C 147.50 79.54 144.06 79.84 142.86 80.58 C 142.25 80.97 137.41 81.62 132.12 82.04 C 122.51 82.80 95.28 86.54 91.50 87.62 C 90.40 87.94 86.48 89.99 82.79 92.19 C 77.18 95.53 75.47 97.22 72.33 102.59 C 67.85 110.26 66.41 110.55 60.38 105.00 C 58.00 102.80 55.32 101.00 54.43 101.00 C 53.54 101.00 51.61 100.16 50.15 99.14 C 48.69 98.11 45.36 96.34 42.75 95.19 C 38.00 93.11 38.00 93.11 38.00 95.58 C 38.00 96.93 40.10 102.19 42.67 107.27 C 46.78 115.40 47.55 117.99 49.14 129.00 C 50.14 135.88 50.97 143.75 50.99 146.50 C 51.04 155.52 55.66 167.31 62.90 176.90 C 65.46 180.29 75.74 186.00 79.28 186.00 C 80.26 186.00 83.36 184.84 86.17 183.41 C 94.62 179.13 126.23 170.87 139.25 169.53 C 148.49 168.59 151.71 169.41 152.48 172.91 C 152.82 174.44 154.68 177.23 156.62 179.10 C 158.57 180.97 160.81 184.06 161.62 185.96 C 163.16 189.62 165.79 193.00 167.09 193.00 C 167.52 193.00 169.05 192.55 170.50 192.00 Z  M 75.29 164.75 C 72.44 161.02 70.65 127.68 72.97 121.57 C 74.70 117.03 81.76 110.27 85.52 109.56 C 89.39 108.84 93.00 110.29 93.00 112.59 C 93.00 113.42 94.09 115.70 95.41 117.66 C 97.50 120.73 97.68 121.63 96.74 124.35 C 95.31 128.53 91.80 134.03 88.98 136.50 C 82.79 141.93 79.15 151.75 82.20 154.80 C 85.07 157.67 89.60 156.16 97.65 149.66 C 101.97 146.17 107.08 141.52 109.00 139.33 C 119.60 127.28 119.23 127.88 118.60 123.55 C 118.27 121.32 116.54 116.70 114.75 113.27 C 112.17 108.34 111.73 106.69 112.59 105.30 C 114.10 102.88 124.92 98.80 127.88 99.52 C 130.18 100.08 130.24 100.36 129.75 107.29 C 129.16 115.54 130.82 123.31 134.53 129.63 C 136.95 133.77 136.95 133.77 134.52 136.38 C 133.19 137.82 131.62 139.00 131.05 139.00 C 130.47 139.00 130.00 139.64 130.00 140.43 C 130.00 142.52 133.39 143.26 137.61 142.10 C 139.98 141.44 141.92 141.42 143.08 142.04 C 145.73 143.46 148.71 143.21 152.30 141.27 C 154.06 140.31 157.93 138.63 160.90 137.52 C 163.88 136.41 166.75 134.79 167.29 133.92 C 168.73 131.60 167.18 121.18 165.08 119.08 C 164.11 118.11 160.53 116.77 157.11 116.10 C 150.52 114.81 149.15 113.46 150.96 110.07 C 151.83 108.44 151.63 106.54 150.02 101.32 C 148.88 97.65 148.30 94.35 148.73 93.98 C 149.97 92.92 162.29 91.00 167.90 91.00 C 173.91 91.00 178.17 92.57 182.86 96.53 C 186.22 99.36 186.22 99.36 185.53 106.43 C 184.81 113.83 183.77 118.61 179.65 133.50 C 176.41 145.20 173.78 151.19 169.76 156.03 C 166.68 159.75 166.19 159.96 160.90 159.98 C 156.74 160.00 154.03 159.32 150.40 157.38 C 145.86 154.95 144.85 154.80 136.67 155.32 C 131.82 155.63 127.21 156.41 126.44 157.05 C 125.66 157.70 124.29 157.94 123.39 157.59 C 122.48 157.25 121.13 157.48 120.38 158.10 C 119.63 158.73 118.11 159.00 117.01 158.71 C 115.90 158.42 114.73 158.63 114.39 159.17 C 114.06 159.72 112.73 159.90 111.45 159.58 C 110.17 159.26 108.86 159.41 108.54 159.93 C 108.23 160.44 105.39 161.37 102.23 161.99 C 99.08 162.61 94.51 163.77 92.07 164.56 C 86.57 166.35 76.60 166.46 75.29 164.75 Z "/>
</g>
</svg>