<?xml version="1.0" encoding="UTF-8" standalone="no"?>
<!DOCTYPE svg PUBLIC "-//W3C//DTD SVG 1.1//EN" "http://www.w3.org/Graphics/SVG/1.1/DTD/svg11.dtd" >
<svg xmlns="http://www.w3.org/2000/svg" xmlns:xlink="http://www.w3.org/1999/xlink" version="1.1" viewBox="0 0 256 256">
 <g >
 <path fill="currentColor"
d=" M 86.45 212.00 C 85.40 174.26 87.39 157.68 93.96 149.32 C 95.08 147.89 96.00 145.75 96.00 144.56 C 96.00 143.37 97.12 140.86 98.50 139.00 C 101.68 134.69 101.65 133.80 98.35 134.63 C 95.78 135.27 95.71 135.17 96.32 131.90 C 96.66 130.03 97.86 125.16 98.97 121.07 C 100.09 116.98 101.00 112.42 101.00 110.94 C 101.00 105.11 108.60 103.75 115.40 108.37 C 117.53 109.81 119.84 111.00 120.53 111.00 C 122.87 111.00 123.20 115.94 121.10 119.34 C 117.34 125.43 114.66 127.19 109.63 126.88 C 104.64 126.58 102.64 127.43 105.92 128.48 C 107.52 128.98 108.00 129.97 108.00 132.78 C 108.00 135.62 108.80 137.24 111.70 140.21 C 113.83 142.39 116.37 144.00 117.67 144.00 C 120.37 144.00 126.63 138.76 127.59 135.69 C 127.97 134.48 130.29 130.68 132.74 127.23 C 137.20 120.96 137.20 120.96 140.85 123.17 C 142.86 124.39 146.27 126.87 148.43 128.69 C 150.59 130.51 152.74 132.00 153.22 132.00 C 153.69 132.00 154.92 130.02 155.95 127.61 C 158.36 121.99 159.43 121.40 162.64 123.94 C 165.99 126.57 166.62 126.53 170.59 123.50 C 172.39 122.12 174.34 121.00 174.92 121.00 C 175.50 121.00 177.11 119.20 178.50 117.00 C 179.89 114.80 181.46 113.00 181.99 113.00 C 182.52 113.00 186.00 115.62 189.72 118.82 C 193.45 122.02 197.79 125.49 199.37 126.52 C 202.11 128.30 202.30 128.31 203.54 126.62 C 204.25 125.64 205.13 122.69 205.49 120.05 C 206.06 115.94 205.73 114.41 203.18 109.37 C 201.51 106.10 198.94 102.73 197.35 101.76 C 189.18 96.77 189.23 97.50 196.06 83.88 C 201.22 73.59 202.11 71.07 201.62 68.07 C 200.68 62.20 196.12 51.62 193.73 49.77 C 190.71 47.44 185.42 47.50 183.40 49.90 C 181.36 52.35 174.91 58.80 169.90 63.40 C 166.88 66.19 166.00 67.74 166.00 70.30 C 166.00 74.40 167.52 76.00 171.45 76.01 C 173.13 76.02 176.19 76.30 178.25 76.64 C 181.51 77.18 182.00 77.62 182.00 79.98 C 182.00 84.56 179.97 88.97 177.58 89.57 C 176.37 89.87 171.83 89.20 167.50 88.06 C 163.17 86.93 158.58 86.00 157.31 86.00 C 154.55 86.00 154.53 85.80 156.68 80.17 C 158.14 76.36 158.19 74.99 157.11 69.75 C 155.83 63.57 154.67 61.20 149.82 54.88 C 146.49 50.54 142.06 49.26 138.49 51.60 C 137.16 52.47 133.55 56.31 130.45 60.14 C 127.36 63.98 123.29 68.51 121.41 70.22 C 119.54 71.92 118.00 73.81 118.00 74.42 C 118.00 75.02 120.14 76.82 122.75 78.42 C 127.50 81.32 131.96 82.10 135.25 80.59 C 137.81 79.41 137.50 81.70 134.04 89.41 C 131.08 96.00 131.08 96.00 125.79 96.00 C 119.22 96.00 106.25 98.63 103.29 100.56 C 100.57 102.32 100.00 102.36 99.99 100.75 C 99.99 100.06 97.81 97.14 95.15 94.25 C 91.08 89.83 89.75 89.00 86.81 89.00 C 83.53 89.00 76.31 93.08 74.56 95.91 C 73.79 97.15 66.24 102.13 56.28 107.96 C 49.77 111.78 48.65 112.12 44.78 111.47 C 36.99 110.18 32.96 108.04 32.32 104.87 C 31.57 101.11 30.41 101.22 29.62 105.12 C 28.49 110.79 28.96 113.13 32.62 120.10 C 35.63 125.82 37.30 127.70 42.37 131.10 C 46.95 134.16 49.83 135.33 53.78 135.74 C 59.94 136.38 60.83 135.76 69.67 124.75 C 75.32 117.70 75.63 117.48 77.88 118.90 C 80.06 120.28 74.86 132.57 68.90 140.15 C 54.58 158.34 50.41 162.95 46.25 165.17 C 42.35 167.25 39.99 174.35 40.01 183.93 C 40.03 190.98 41.55 195.29 44.19 195.80 C 45.17 195.99 51.95 190.60 60.93 182.50 C 72.65 171.93 76.16 169.25 76.65 170.52 C 76.99 171.42 76.97 176.06 76.60 180.83 C 74.72 205.17 74.70 208.87 76.44 215.24 C 78.91 224.30 85.13 237.38 86.21 235.78 C 86.68 235.08 86.79 224.38 86.45 212.00 Z  M 230.80 211.58 C 231.06 206.64 230.61 204.66 228.10 199.58 C 224.19 191.69 216.89 183.39 213.27 182.72 C 209.48 182.02 198.10 177.17 194.81 174.85 C 193.33 173.80 191.84 172.07 191.50 170.99 C 190.74 168.59 195.02 158.73 199.66 152.21 C 201.50 149.62 203.00 146.30 203.00 144.84 C 203.00 140.94 199.74 134.10 195.63 129.37 C 192.71 126.00 191.17 125.10 187.36 124.53 C 182.74 123.84 182.63 123.89 178.84 128.33 C 176.67 130.86 171.55 134.82 167.12 137.37 C 159.83 141.58 156.49 145.00 158.89 145.80 C 159.44 145.98 161.55 147.45 163.58 149.06 C 168.22 152.75 170.37 152.74 176.00 149.00 C 181.15 145.58 184.54 145.03 183.68 147.75 C 183.38 148.71 182.46 151.89 181.64 154.81 C 180.12 160.23 177.57 165.00 176.19 165.00 C 175.77 165.00 173.66 164.10 171.50 163.00 C 169.34 161.90 165.98 161.00 164.04 160.99 C 162.09 160.98 158.86 160.71 156.86 160.38 C 153.23 159.78 153.23 159.78 153.36 153.07 C 153.48 147.16 153.17 145.93 150.71 142.69 C 149.17 140.68 146.94 138.50 145.73 137.86 C 142.46 136.10 137.06 135.09 136.44 136.10 C 136.13 136.60 135.12 137.01 134.19 137.02 C 133.26 137.03 130.97 139.17 129.10 141.77 C 125.42 146.89 115.65 154.00 112.29 154.00 C 110.17 154.00 108.54 156.45 109.56 158.10 C 109.88 158.61 111.82 159.89 113.88 160.94 C 115.95 161.99 118.22 163.56 118.94 164.43 C 119.66 165.29 121.54 166.00 123.13 166.00 C 125.44 166.00 126.85 164.91 130.24 160.53 C 134.83 154.60 136.95 154.48 134.52 160.29 C 133.69 162.30 133.00 164.83 133.00 165.91 C 133.00 167.00 131.97 169.08 130.72 170.54 C 128.55 173.06 128.23 173.14 124.12 172.03 C 117.53 170.26 103.54 171.27 97.28 173.97 C 94.41 175.21 91.54 176.84 90.91 177.61 C 89.94 178.77 90.78 179.00 95.97 179.00 C 100.44 179.00 102.83 179.51 104.47 180.80 C 106.67 182.53 111.42 184.26 117.25 185.47 C 121.10 186.26 120.76 188.87 116.25 193.19 C 111.41 197.83 107.04 199.98 102.30 200.07 C 98.35 200.14 92.90 201.79 96.15 201.93 C 97.06 201.97 98.27 203.35 98.85 205.00 C 99.74 207.55 100.41 208.00 103.33 208.00 C 105.21 208.00 107.32 208.68 108.00 209.50 C 108.68 210.32 110.10 211.00 111.16 211.00 C 114.78 211.00 123.51 205.75 128.14 200.79 C 133.59 194.96 134.94 195.15 140.01 202.51 C 142.21 205.72 143.78 207.00 145.49 207.00 C 146.81 207.00 148.16 207.45 148.50 208.00 C 149.44 209.52 151.00 209.19 151.00 207.47 C 151.00 206.63 149.65 203.27 148.00 200.00 C 146.35 196.73 145.00 193.17 145.00 192.09 C 145.00 188.58 147.11 188.68 150.12 192.32 C 151.73 194.28 154.05 196.20 155.27 196.58 C 156.50 196.97 158.88 198.34 160.57 199.63 C 163.20 201.63 164.14 201.82 167.07 201.00 C 172.77 199.39 174.84 197.89 179.06 192.30 C 183.10 186.95 183.10 186.95 186.15 188.72 C 187.83 189.70 192.66 193.88 196.88 198.00 C 208.02 208.89 215.21 214.27 221.21 216.21 C 229.63 218.93 230.45 218.53 230.80 211.58 Z  M 96.00 75.16 C 97.38 74.59 100.63 73.84 103.22 73.50 C 112.15 72.34 114.42 65.00 109.25 53.97 C 107.05 49.27 105.73 47.74 102.69 46.37 C 100.59 45.42 98.46 43.86 97.94 42.89 C 96.47 40.14 86.33 36.77 81.81 37.53 C 79.33 37.95 78.00 38.71 78.00 39.71 C 78.00 40.56 79.90 44.77 82.22 49.06 C 86.43 56.87 86.43 56.87 84.71 60.48 C 83.63 62.74 81.13 65.25 77.99 67.19 C 72.75 70.45 71.74 72.00 74.86 72.00 C 75.89 72.00 78.34 73.29 80.32 74.86 C 83.58 77.45 84.36 77.64 88.71 76.95 C 91.34 76.54 94.62 75.73 96.00 75.16 Z  M 153.79 115.25 C 152.95 114.29 151.97 112.26 151.62 110.75 C 151.26 109.24 150.61 108.00 150.17 108.00 C 149.73 108.00 148.41 107.10 147.22 105.99 C 144.74 103.68 144.96 102.74 149.67 95.33 C 152.52 90.85 153.28 90.25 155.34 90.83 C 157.91 91.55 170.00 102.28 170.00 103.83 C 170.00 104.94 157.29 117.00 156.12 117.00 C 155.67 117.00 154.63 116.21 153.79 115.25 Z  M 149.27 188.27 C 142.75 187.68 141.64 185.36 144.35 177.93 C 145.53 174.68 147.04 171.81 147.71 171.56 C 148.38 171.30 151.08 171.69 153.71 172.41 C 156.34 173.14 161.18 174.47 164.45 175.36 C 173.90 177.95 174.06 179.35 165.56 185.25 C 160.04 189.09 159.50 189.19 149.27 188.27 Z "/>
</g>
</svg>