<?xml version="1.0" encoding="UTF-8" standalone="no"?>
<!DOCTYPE svg PUBLIC "-//W3C//DTD SVG 1.1//EN" "http://www.w3.org/Graphics/SVG/1.1/DTD/svg11.dtd" >
<svg xmlns="http://www.w3.org/2000/svg" xmlns:xlink="http://www.w3.org/1999/xlink" version="1.1" viewBox="0 0 256 256">
 <g >
 <path fill="currentColor"
d=" M 89.07 226.41 C 89.78 220.06 89.58 217.09 87.91 209.60 C 86.11 201.52 85.95 198.38 86.51 181.50 C 86.97 167.33 87.55 161.48 88.77 158.50 C 90.76 153.65 99.68 140.08 102.25 138.00 C 103.26 137.18 106.21 132.71 108.80 128.08 C 115.31 116.41 117.73 116.12 115.71 127.24 C 114.84 132.03 114.92 133.27 116.22 134.74 C 117.07 135.71 118.90 138.75 120.28 141.50 C 122.97 146.85 127.23 152.00 128.97 152.00 C 129.56 152.00 132.82 150.87 136.21 149.49 C 139.60 148.11 143.15 147.23 144.09 147.53 C 145.03 147.83 147.67 147.10 149.94 145.91 C 152.22 144.72 154.28 143.94 154.51 144.18 C 154.75 144.41 154.68 146.19 154.37 148.13 C 153.81 151.55 153.55 151.73 146.29 153.87 C 138.60 156.13 138.73 156.03 129.62 166.50 C 127.00 169.50 127.00 169.50 123.03 165.00 C 120.84 162.53 118.78 159.71 118.46 158.75 C 118.08 157.64 116.84 157.00 115.05 157.00 C 112.67 157.00 112.12 157.51 111.57 160.25 C 109.56 170.09 109.50 169.74 114.34 175.90 C 117.67 180.14 119.47 183.73 120.96 189.09 C 123.45 198.09 123.50 199.90 121.25 200.62 C 120.29 200.93 116.88 202.27 113.68 203.59 C 110.49 204.92 106.60 206.00 105.06 206.00 C 101.00 206.00 99.52 208.18 100.89 212.13 C 101.50 213.87 102.00 216.33 102.00 217.58 C 102.00 220.57 104.99 221.48 109.77 219.94 C 111.82 219.28 119.69 216.08 127.26 212.82 C 134.83 209.56 144.06 206.25 147.76 205.46 C 157.29 203.44 176.86 203.51 179.80 205.57 C 181.25 206.59 183.05 206.93 184.88 206.53 C 188.64 205.70 208.46 210.20 218.17 214.09 C 227.22 217.71 230.58 217.69 230.32 214.00 C 230.00 209.38 228.32 203.53 226.32 200.00 C 224.63 197.04 223.57 196.37 219.41 195.62 C 216.71 195.14 211.06 194.83 206.85 194.94 C 202.65 195.05 198.98 194.77 198.71 194.32 C 197.76 192.75 205.25 172.48 208.12 168.86 C 212.44 163.39 212.00 160.10 205.84 151.79 C 203.01 147.96 199.60 144.42 198.28 143.92 C 193.29 142.02 176.14 144.08 175.27 146.68 C 175.06 147.31 173.19 147.56 170.71 147.28 C 166.96 146.87 162.79 148.13 155.83 151.76 C 155.46 151.96 155.40 151.19 155.69 150.07 C 156.36 147.50 161.91 144.00 165.31 144.00 C 166.72 144.00 168.16 143.55 168.50 143.00 C 168.84 142.45 169.95 142.00 170.97 142.00 C 171.99 142.00 175.93 140.21 179.72 138.02 C 183.51 135.84 188.92 133.09 191.74 131.92 C 194.56 130.75 197.14 129.08 197.47 128.22 C 198.59 125.29 196.81 118.22 193.61 112.88 C 190.41 107.56 190.41 107.56 198.84 97.53 C 209.00 85.44 211.65 80.29 210.05 75.70 C 208.75 71.97 203.25 66.00 201.12 66.00 C 200.30 66.00 197.80 66.86 195.57 67.91 C 193.33 68.97 189.52 70.14 187.10 70.53 C 183.08 71.17 182.76 71.06 183.41 69.37 C 187.02 59.97 185.94 51.08 180.38 44.29 C 177.24 40.45 176.42 40.00 172.58 40.00 C 168.40 40.00 168.21 40.15 164.49 46.25 C 162.39 49.69 158.81 56.30 156.52 60.94 C 152.36 69.37 152.36 69.37 149.20 62.62 C 146.19 56.18 145.90 55.88 142.86 56.18 C 139.75 56.49 139.63 56.70 137.32 65.50 C 133.36 80.57 131.98 85.00 131.22 84.99 C 130.82 84.98 129.48 83.41 128.24 81.49 C 127.00 79.57 125.41 78.00 124.70 78.00 C 124.00 78.00 122.39 81.25 121.10 85.25 C 116.03 101.06 101.55 126.95 97.75 126.98 C 95.03 127.01 95.57 122.33 99.04 115.73 C 103.15 107.95 102.54 105.05 95.27 97.66 C 92.20 94.55 88.98 91.95 88.10 91.88 C 82.61 91.49 78.54 94.26 77.47 99.13 C 77.03 101.16 76.24 102.00 74.78 102.00 C 73.65 102.00 72.15 102.78 71.46 103.73 C 70.76 104.68 68.75 105.53 66.98 105.62 C 65.22 105.70 62.59 106.73 61.14 107.88 C 54.81 112.94 45.24 116.96 39.47 116.98 C 35.42 117.01 32.00 114.47 32.00 111.44 C 32.00 107.87 30.25 108.46 28.51 112.62 C 25.98 118.68 26.56 122.15 31.12 128.32 C 35.77 134.59 39.12 136.34 49.85 138.11 C 57.50 139.38 61.55 138.29 63.47 134.45 C 64.87 131.66 74.05 121.00 75.05 121.00 C 77.33 121.00 79.00 124.47 79.00 129.21 C 79.00 139.46 76.06 144.85 63.50 157.58 C 59.12 162.02 55.88 164.30 51.50 166.00 C 48.20 167.28 44.94 168.76 44.25 169.29 C 43.44 169.91 43.00 172.99 43.00 178.10 C 43.00 187.29 45.11 193.74 48.37 194.56 C 51.96 195.46 59.74 191.21 66.93 184.42 C 75.67 176.19 76.33 176.72 75.63 191.42 C 75.36 197.23 74.86 202.41 74.53 202.95 C 73.33 204.90 76.37 217.68 79.72 224.75 C 82.74 231.12 86.57 235.76 87.79 234.54 C 88.02 234.31 88.60 230.65 89.07 226.41 Z  M 66.78 90.75 C 70.39 88.85 71.20 88.72 71.95 89.94 C 73.26 92.03 79.41 89.13 90.27 81.31 C 96.41 76.89 99.94 75.00 102.06 75.00 C 105.75 75.00 112.52 71.68 113.38 69.46 C 114.46 66.65 114.06 61.01 112.58 58.20 C 110.44 54.14 100.07 44.49 95.29 42.10 C 92.74 40.83 89.16 40.00 86.19 40.00 C 80.74 40.00 75.00 41.65 75.00 43.22 C 75.00 44.75 80.00 52.54 84.25 57.63 C 88.53 62.76 88.65 63.35 86.25 67.71 C 83.46 72.79 68.78 86.99 66.32 87.00 C 64.50 87.01 58.94 91.10 59.51 92.02 C 60.43 93.51 62.09 93.22 66.78 90.75 Z  M 137.80 196.27 C 133.60 195.83 133.61 195.85 131.99 184.73 C 130.73 176.12 131.58 171.59 135.04 168.46 C 136.65 167.01 137.46 166.89 139.45 167.80 C 143.38 169.58 145.06 173.22 145.63 181.15 C 145.92 185.19 146.66 189.80 147.26 191.38 C 148.19 193.83 148.07 194.48 146.49 195.63 C 145.46 196.39 143.92 196.92 143.06 196.83 C 142.20 196.74 139.83 196.49 137.80 196.27 Z  M 172.09 192.17 C 171.36 190.80 171.67 189.48 173.31 186.92 C 175.24 183.90 175.50 182.11 175.53 171.64 C 175.56 160.06 175.61 159.76 178.03 158.50 C 179.39 157.79 182.97 157.05 186.00 156.86 C 191.50 156.50 191.50 156.50 191.81 160.76 C 192.01 163.61 190.91 168.79 188.46 176.42 C 184.83 187.75 184.78 187.84 179.84 190.91 C 174.04 194.51 173.40 194.62 172.09 192.17 Z  M 155.87 188.25 C 155.80 187.84 155.84 183.84 155.97 179.36 C 156.09 174.89 155.72 170.34 155.14 169.25 C 153.34 165.89 155.76 163.81 161.04 164.18 C 164.85 164.45 165.55 164.84 165.83 166.85 C 166.35 170.52 162.94 182.15 160.29 185.75 C 158.02 188.84 156.15 189.89 155.87 188.25 Z  M 128.31 131.25 C 128.80 117.16 129.35 112.28 130.96 107.59 C 132.09 104.33 133.00 99.12 133.00 95.95 C 133.00 91.14 137.50 69.08 139.59 63.63 C 142.04 57.23 142.87 71.62 140.93 87.00 C 138.51 106.20 135.89 124.37 135.42 125.13 C 134.64 126.39 137.93 136.70 139.55 138.04 C 142.53 140.52 141.19 142.88 135.03 145.99 C 131.74 147.64 128.75 149.00 128.37 149.00 C 127.99 149.00 127.96 141.01 128.31 131.25 Z  M 149.33 136.42 C 148.67 134.71 150.22 114.79 152.15 100.00 C 152.76 95.33 153.46 87.45 153.69 82.50 C 153.93 77.55 154.77 72.08 155.56 70.35 C 156.35 68.62 157.00 66.87 157.00 66.47 C 157.00 65.51 163.92 51.87 165.21 50.28 C 165.98 49.32 166.87 49.40 169.23 50.62 C 172.09 52.10 172.23 52.44 171.70 56.84 C 171.40 59.40 170.44 62.85 169.58 64.50 C 168.72 66.15 168.01 68.21 168.01 69.08 C 168.00 69.94 166.92 71.66 165.61 72.90 C 163.90 74.50 163.01 76.73 162.53 80.62 C 161.91 85.53 162.17 86.73 165.03 92.30 C 166.79 95.71 168.59 98.89 169.03 99.37 C 169.47 99.85 173.73 96.99 178.48 93.02 C 183.24 89.04 187.40 86.07 187.73 86.40 C 188.83 87.50 180.66 98.19 176.90 100.57 C 171.78 103.79 169.55 110.50 170.48 119.80 C 171.14 126.35 171.09 126.56 168.33 128.56 C 166.77 129.68 163.70 131.43 161.50 132.44 C 159.30 133.45 155.80 135.13 153.73 136.17 C 150.28 137.90 149.91 137.92 149.33 136.42 Z  M 107.05 122.25 C 107.08 121.84 109.31 117.22 112.00 112.00 C 116.18 103.89 116.91 102.96 116.95 105.62 C 117.01 109.47 110.38 123.00 108.43 123.00 C 107.64 123.00 107.02 122.66 107.05 122.25 Z "/>
</g>
</svg>