<?xml version="1.0" encoding="UTF-8" standalone="no"?>
<!DOCTYPE svg PUBLIC "-//W3C//DTD SVG 1.1//EN" "http://www.w3.org/Graphics/SVG/1.1/DTD/svg11.dtd" >
<svg xmlns="http://www.w3.org/2000/svg" xmlns:xlink="http://www.w3.org/1999/xlink" version="1.1" viewBox="0 0 256 256">
 <g >
 <path fill="currentColor"
d=" M 75.14 207.24 C 80.25 201.89 86.47 196.64 91.13 193.74 C 105.03 185.12 108.97 178.31 103.50 172.41 C 102.13 170.92 101.00 168.89 101.00 167.89 C 101.00 166.89 100.08 163.75 98.96 160.90 C 96.92 155.73 96.92 155.73 104.31 144.62 C 108.38 138.50 112.94 131.36 114.45 128.75 C 118.84 121.14 120.24 121.37 121.50 129.92 C 121.87 132.44 123.35 136.66 124.78 139.31 C 127.33 144.02 127.36 144.30 126.19 152.36 C 125.54 156.89 125.00 162.21 125.00 164.18 C 125.00 166.14 124.72 169.16 124.37 170.88 C 123.86 173.44 123.27 174.00 121.07 174.00 C 115.95 174.00 115.03 175.67 114.34 186.14 C 113.76 195.03 113.89 196.03 115.91 198.87 C 117.22 200.71 119.64 202.41 121.94 203.10 C 125.62 204.20 126.20 204.03 135.15 199.19 C 146.25 193.19 155.19 190.59 171.68 188.59 C 183.17 187.20 184.32 187.23 191.91 189.04 C 196.33 190.09 200.64 190.69 201.48 190.37 C 202.33 190.04 204.13 190.51 205.49 191.40 C 206.95 192.36 210.50 193.12 214.18 193.26 C 220.39 193.50 220.39 193.50 221.28 189.12 C 222.63 182.48 220.13 176.90 213.65 172.08 C 207.37 167.40 202.04 166.08 187.15 165.51 C 175.56 165.07 172.95 164.24 173.54 161.21 C 173.72 160.27 174.65 153.75 175.60 146.72 C 177.56 132.35 178.64 130.43 186.84 126.76 C 191.62 124.63 208.34 121.00 213.40 121.00 C 217.35 121.00 219.00 119.46 219.00 115.75 C 219.00 109.06 214.97 104.89 205.34 101.61 C 197.85 99.07 195.00 99.46 195.00 103.03 C 195.00 105.32 192.81 106.00 184.50 106.29 C 178.50 106.50 178.50 106.50 178.57 99.00 C 178.61 94.88 179.56 88.03 180.68 83.78 C 182.71 76.06 182.71 76.06 180.63 71.95 C 179.48 69.69 176.36 65.80 173.69 63.31 C 171.02 60.81 167.49 56.57 165.83 53.89 C 164.18 51.20 162.33 49.00 161.73 49.00 C 159.57 49.00 156.00 53.38 156.00 56.03 C 156.00 57.50 155.53 60.05 154.96 61.70 C 154.09 64.17 154.44 66.35 156.96 74.20 C 159.86 83.28 160.00 84.48 160.00 100.99 C 160.00 118.69 158.47 135.46 156.64 137.83 C 155.66 139.11 154.78 152.16 154.99 162.19 C 155.11 167.43 153.53 169.00 148.15 169.00 C 144.47 169.00 144.13 168.05 145.27 161.05 C 145.77 158.00 145.89 151.47 145.54 146.53 C 144.82 136.57 143.54 133.70 136.33 125.95 C 131.14 120.36 127.67 112.76 128.54 108.82 C 128.88 107.27 128.79 106.00 128.33 106.00 C 126.99 106.01 121.00 111.99 121.00 113.32 C 121.00 115.91 114.89 122.00 112.29 122.00 C 110.62 122.00 105.60 125.13 97.75 131.06 C 86.41 139.65 83.00 141.14 83.00 137.53 C 83.00 134.71 81.23 135.95 74.11 143.75 C 66.22 152.40 65.98 153.26 68.58 163.36 C 70.46 170.63 72.47 173.29 75.42 172.41 C 76.56 172.07 80.50 168.85 84.17 165.26 C 88.28 161.23 91.38 158.93 92.27 159.27 C 94.00 159.94 95.23 167.70 93.98 170.04 C 92.90 172.05 55.00 192.00 52.25 192.00 C 49.48 192.00 45.00 187.53 45.00 184.77 C 45.00 182.21 46.35 179.99 52.44 172.50 C 59.93 163.30 60.37 161.96 60.14 149.22 C 59.89 135.49 60.56 134.04 71.18 125.34 C 78.55 119.32 84.03 115.88 97.05 109.11 C 107.02 103.92 109.50 99.16 104.50 94.81 C 101.05 91.82 101.34 89.65 106.18 82.22 C 113.23 71.41 113.38 58.68 106.52 53.45 C 103.84 51.40 102.19 51.00 96.45 51.00 C 89.93 51.00 89.13 51.27 80.54 56.40 C 73.02 60.89 70.69 62.92 66.70 68.48 C 61.90 75.16 61.90 75.16 57.70 74.47 C 55.39 74.10 52.10 72.94 50.38 71.89 C 47.22 69.97 41.00 69.29 41.00 70.86 C 41.00 71.33 42.58 75.13 44.50 79.30 C 47.50 85.78 48.23 88.90 49.54 100.66 C 50.77 111.79 51.54 115.25 53.57 118.72 C 55.17 121.45 56.79 123.00 58.04 123.00 C 60.85 123.00 60.50 124.37 56.00 131.00 C 53.80 134.24 52.00 137.37 52.00 137.96 C 52.00 138.54 48.56 145.88 44.36 154.26 C 36.17 170.60 34.09 177.07 34.04 186.43 C 33.97 197.37 39.24 203.69 56.25 213.07 C 64.48 217.61 65.56 217.27 75.14 207.24 Z  M 68.02 96.75 C 68.02 95.51 68.44 93.86 68.93 93.08 C 69.52 92.15 69.16 89.94 67.92 86.79 C 65.52 80.70 65.52 79.48 67.97 76.05 C 71.32 71.33 86.61 69.42 89.84 73.31 C 91.00 74.70 89.06 79.78 84.76 86.58 C 82.55 90.08 71.12 99.00 68.84 99.00 C 68.38 99.00 68.01 97.99 68.02 96.75 Z "/>
</g>
</svg>