<?xml version="1.0" encoding="UTF-8" standalone="no"?>
<!DOCTYPE svg PUBLIC "-//W3C//DTD SVG 1.1//EN" "http://www.w3.org/Graphics/SVG/1.1/DTD/svg11.dtd" >
<svg xmlns="http://www.w3.org/2000/svg" xmlns:xlink="http://www.w3.org/1999/xlink" version="1.1" viewBox="0 0 256 256">
 <g >
 <path fill="currentColor"
d=" M 65.41 248.49 C 73.36 246.08 96.38 243.09 112.00 242.44 C 119.97 242.11 133.47 240.74 142.00 239.41 C 150.53 238.07 159.25 236.71 161.38 236.38 C 163.51 236.05 170.80 233.58 177.58 230.89 C 184.36 228.20 190.26 226.03 190.70 226.06 C 191.57 226.12 200.07 236.27 203.79 241.67 C 205.07 243.54 206.94 245.00 208.04 245.00 C 211.03 245.00 214.00 241.42 214.00 237.82 C 214.00 233.76 207.09 213.39 201.91 202.18 C 199.72 197.44 197.24 191.19 196.39 188.28 C 194.68 182.39 194.00 181.86 184.26 178.86 C 180.54 177.72 174.57 175.21 171.00 173.28 C 164.50 169.79 164.50 169.79 190.32 170.26 C 216.02 170.73 216.14 170.72 217.57 168.54 C 219.75 165.20 222.24 146.64 221.72 137.50 C 221.22 128.70 220.15 130.48 240.34 106.66 C 245.76 100.27 250.81 89.26 251.69 81.89 C 252.25 77.28 252.25 77.28 243.87 76.58 C 231.97 75.57 225.05 73.58 212.50 67.53 C 206.45 64.61 198.55 60.85 194.95 59.16 C 185.58 54.77 166.87 42.59 149.50 29.56 C 141.25 23.38 133.55 17.81 132.38 17.19 C 131.22 16.58 130.01 14.81 129.70 13.26 C 128.95 9.50 125.30 5.00 123.00 5.00 C 120.38 5.00 112.19 16.13 109.89 22.82 C 105.62 35.22 95.83 48.09 75.87 67.50 C 47.42 95.17 35.42 104.59 16.06 114.43 C -2.20 123.72 -2.93 126.36 12.40 127.65 C 17.71 128.10 20.86 127.89 23.20 126.92 C 28.39 124.78 51.75 111.38 59.78 105.93 C 63.78 103.22 67.21 101.00 67.39 101.00 C 67.57 101.00 68.00 104.11 68.36 107.92 C 69.28 117.88 70.96 122.42 73.87 122.83 C 75.17 123.02 79.89 122.47 84.37 121.61 C 100.22 118.57 125.99 116.65 153.48 116.47 C 180.46 116.28 180.46 116.28 181.25 112.45 C 182.25 107.63 182.58 107.32 184.74 109.23 C 185.71 110.08 190.73 113.12 195.90 115.97 C 208.11 122.72 213.00 125.83 213.00 126.86 C 213.00 127.86 194.23 128.77 147.50 130.02 C 128.25 130.54 98.55 131.87 81.50 132.98 C 64.45 134.09 47.27 135.00 43.32 135.00 C 32.69 135.00 32.56 135.23 33.35 151.97 C 34.10 167.94 35.58 177.97 37.47 179.88 C 38.60 181.02 40.00 181.05 45.66 180.05 C 49.42 179.39 54.75 178.21 57.50 177.43 C 62.50 176.00 81.14 173.84 81.91 174.59 C 82.82 175.47 79.84 180.10 72.22 189.66 C 64.23 199.69 64.23 199.69 57.93 200.35 C 54.47 200.71 50.59 201.69 49.32 202.53 C 47.16 203.94 47.00 204.72 47.00 213.50 C 47.00 223.19 48.02 227.72 53.70 243.25 C 56.48 250.85 56.95 251.05 65.41 248.49 Z  M 90.54 196.95 C 91.56 195.83 94.98 193.34 98.13 191.42 C 104.03 187.84 105.51 185.47 107.78 176.00 C 108.62 172.50 108.62 172.50 128.56 171.34 C 150.11 170.10 164.40 169.83 162.00 170.71 C 158.05 172.18 158.11 172.96 163.13 183.68 C 165.85 189.49 167.93 194.41 167.74 194.60 C 167.46 194.87 94.89 198.99 90.10 199.00 C 89.03 199.00 89.15 198.50 90.54 196.95 Z  M 94.17 78.81 C 115.66 58.99 113.06 60.00 123.79 67.26 C 129.13 70.88 135.28 75.38 137.46 77.27 C 141.42 80.70 141.42 80.70 125.96 81.37 C 117.46 81.74 105.78 82.28 100.00 82.58 C 89.50 83.12 89.50 83.12 94.17 78.81 Z "/>
</g>
</svg>