<?xml version="1.0" encoding="UTF-8" standalone="no"?>
<!DOCTYPE svg PUBLIC "-//W3C//DTD SVG 1.1//EN" "http://www.w3.org/Graphics/SVG/1.1/DTD/svg11.dtd" >
<svg xmlns="http://www.w3.org/2000/svg" xmlns:xlink="http://www.w3.org/1999/xlink" version="1.1" viewBox="0 0 256 256">
 <g >
 <path fill="currentColor"
d=" M 156.27 249.05 C 173.65 244.77 176.86 243.24 188.63 233.62 C 197.58 226.31 201.64 221.63 205.25 214.47 C 208.61 207.80 209.74 201.89 210.59 186.62 C 211.31 173.76 211.31 173.76 222.40 174.47 C 230.79 175.00 234.29 175.66 236.72 177.15 C 239.93 179.12 239.93 179.12 240.57 176.31 C 240.93 174.76 242.30 169.11 243.63 163.75 C 245.40 156.59 246.10 150.71 246.27 141.58 C 246.40 134.76 246.20 128.87 245.84 128.50 C 245.47 128.14 244.12 128.40 242.84 129.09 C 241.45 129.83 232.87 130.75 221.63 131.35 C 202.75 132.37 202.75 132.37 199.90 128.94 C 198.34 127.05 197.04 125.25 197.03 124.95 C 197.01 124.64 200.61 124.80 205.02 125.30 C 209.44 125.79 213.61 125.98 214.29 125.72 C 215.74 125.16 219.57 113.46 220.41 107.00 C 221.00 102.40 223.40 65.83 224.64 42.50 C 225.64 23.52 225.55 17.15 224.25 15.85 C 223.38 14.98 220.92 14.97 214.30 15.82 C 207.01 16.75 149.55 18.15 107.17 18.43 C 98.09 18.49 96.66 18.74 95.40 20.47 C 94.60 21.56 94.22 23.13 94.55 23.97 C 94.88 24.81 95.54 30.60 96.02 36.83 C 96.87 48.06 98.28 52.40 101.48 53.63 C 102.22 53.92 108.61 53.41 115.67 52.51 C 124.81 51.33 140.37 50.70 169.75 50.29 C 211.00 49.71 211.00 49.71 211.00 52.36 C 211.00 55.00 211.00 55.00 191.75 55.03 C 181.16 55.04 165.53 55.48 157.00 56.01 C 148.47 56.53 133.26 57.03 123.19 57.12 C 107.93 57.25 104.57 57.55 103.06 58.89 C 101.41 60.36 101.32 61.62 102.00 73.00 C 103.13 91.56 104.55 93.41 115.51 90.52 C 125.19 87.97 191.98 84.89 204.30 86.43 C 209.77 87.12 210.00 87.26 210.00 90.07 C 210.00 91.68 209.89 93.02 209.75 93.05 C 209.61 93.07 195.78 93.52 179.00 94.03 C 83.51 96.96 89.87 96.26 91.91 103.62 C 92.50 105.75 92.99 111.03 92.99 115.35 C 93.00 124.57 94.93 129.69 98.75 130.65 C 100.13 131.00 104.69 130.56 108.88 129.67 C 115.76 128.22 124.69 127.43 156.81 125.46 C 167.12 124.83 167.12 124.83 166.42 128.67 C 166.03 130.77 165.34 132.74 164.89 133.04 C 164.43 133.34 155.61 134.15 145.28 134.85 C 134.95 135.55 119.75 136.77 111.50 137.56 C 103.25 138.35 93.03 139.00 88.79 139.00 C 79.52 139.00 79.00 139.57 79.00 149.76 C 79.00 160.01 81.00 178.04 82.55 181.76 C 84.34 186.07 86.23 186.64 90.34 184.10 C 93.18 182.35 104.78 179.50 120.83 176.61 C 124.17 176.02 124.17 176.02 123.33 183.76 C 122.19 194.35 122.36 203.72 123.76 208.50 C 124.94 212.50 124.94 212.50 140.72 212.20 C 149.48 212.04 157.48 211.42 158.70 210.81 C 159.91 210.21 161.55 208.09 162.35 206.11 C 163.15 204.12 164.96 201.42 166.37 200.11 C 169.45 197.23 172.25 189.35 171.82 184.79 C 171.50 181.55 171.33 181.45 160.80 177.96 C 154.91 176.02 149.77 174.11 149.38 173.71 C 148.99 173.32 158.60 173.00 170.75 173.00 C 192.82 173.00 192.82 173.00 193.45 176.75 C 194.26 181.56 192.55 193.47 190.04 200.62 C 186.17 211.63 179.96 218.97 170.43 223.80 C 158.81 229.68 136.32 238.67 127.50 240.96 C 119.18 243.11 117.45 243.89 117.20 245.61 C 116.84 248.09 118.69 249.77 123.74 251.57 C 130.34 253.93 139.35 253.23 156.27 249.05 Z  M 46.33 227.12 C 46.64 225.53 51.56 218.00 57.25 210.37 C 73.00 189.25 74.21 187.31 74.23 183.17 C 74.26 174.15 72.98 160.11 71.80 156.57 C 69.58 149.95 67.81 149.78 61.77 155.63 C 58.87 158.43 52.99 163.28 48.70 166.40 C 44.42 169.53 38.12 174.33 34.70 177.09 C 31.11 179.98 26.71 182.54 24.25 183.16 C 18.40 184.64 18.10 187.89 22.87 198.21 C 24.47 201.67 26.78 207.56 27.99 211.30 C 29.85 217.03 31.16 219.02 36.35 224.04 C 43.26 230.72 45.47 231.40 46.33 227.12 Z  M 26.19 147.12 C 29.21 145.40 37.82 143.10 53.40 139.85 C 60.17 138.43 64.57 135.23 65.49 131.05 C 65.84 129.46 67.51 126.06 69.20 123.51 C 71.65 119.81 72.38 117.49 72.76 112.10 C 73.06 107.95 72.80 104.49 72.09 103.16 C 70.97 101.08 70.50 101.02 59.71 101.61 C 46.01 102.35 24.65 100.72 19.40 98.52 C 13.34 95.99 12.96 97.17 13.40 116.92 C 13.73 131.84 14.03 134.18 16.36 140.31 C 17.79 144.05 19.22 147.54 19.54 148.06 C 20.42 149.49 22.55 149.19 26.19 147.12 Z  M 68.41 76.07 C 69.36 75.29 70.80 73.35 71.62 71.76 C 72.44 70.18 74.61 67.22 76.44 65.19 C 78.58 62.82 80.41 59.21 81.56 55.10 C 83.35 48.71 83.35 48.70 81.18 46.94 C 79.99 45.98 76.65 44.87 73.76 44.49 C 70.87 44.11 67.13 42.96 65.45 41.94 C 63.77 40.92 57.28 37.82 51.03 35.06 C 44.78 32.29 38.59 29.03 37.29 27.80 C 34.57 25.25 32.31 25.99 30.35 30.10 C 25.97 39.26 23.01 61.64 25.04 70.29 C 25.71 73.16 26.62 75.95 27.05 76.50 C 27.53 77.11 35.51 77.50 47.26 77.50 C 62.62 77.50 67.05 77.20 68.41 76.07 Z "/>
</g>
</svg>