<?xml version="1.0" encoding="UTF-8" standalone="no"?>
<!DOCTYPE svg PUBLIC "-//W3C//DTD SVG 1.1//EN" "http://www.w3.org/Graphics/SVG/1.1/DTD/svg11.dtd" >
<svg xmlns="http://www.w3.org/2000/svg" xmlns:xlink="http://www.w3.org/1999/xlink" version="1.1" viewBox="0 0 256 256">
 <g >
 <path fill="currentColor"
d=" M 23.64 248.63 C 26.31 246.22 31.15 240.58 34.39 236.08 C 44.21 222.43 48.05 210.56 50.59 186.00 C 51.47 177.47 52.51 169.64 52.90 168.60 C 53.67 166.54 57.00 178.04 59.01 189.75 C 60.35 197.55 62.40 203.42 64.85 206.54 C 66.68 208.86 66.80 208.88 68.41 207.10 C 71.10 204.13 75.87 190.64 80.08 174.15 C 84.00 158.79 84.00 158.79 83.53 142.36 C 83.04 125.38 81.86 118.00 79.63 118.00 C 78.92 118.00 77.25 120.35 75.92 123.21 C 74.59 126.08 71.20 131.82 68.39 135.96 C 65.58 140.11 62.36 145.30 61.24 147.50 C 60.11 149.70 58.03 152.59 56.60 153.92 C 54.21 156.15 54.00 156.19 54.00 154.42 C 54.02 147.68 56.23 118.49 57.10 113.61 C 59.21 101.68 54.58 89.76 41.29 72.96 C 36.04 66.32 34.52 65.00 32.12 65.00 C 28.12 65.00 26.86 66.84 27.99 71.06 C 28.49 72.95 29.65 80.58 30.55 88.00 C 31.45 95.42 32.81 106.45 33.56 112.50 C 35.19 125.60 35.41 158.90 33.96 175.00 C 31.69 200.38 26.73 223.53 20.45 238.01 C 18.43 242.68 16.14 247.96 15.37 249.75 C 14.01 252.90 14.04 253.00 16.38 253.00 C 17.81 253.00 20.75 251.23 23.64 248.63 Z  M 220.40 249.95 C 222.31 248.27 224.41 245.29 225.06 243.31 C 225.93 240.69 226.31 217.48 226.48 157.11 C 226.70 82.17 226.90 73.29 228.61 61.50 C 230.55 48.12 231.06 31.70 229.68 26.63 C 228.90 23.75 228.90 23.75 222.70 24.52 C 219.29 24.95 205.25 25.39 191.50 25.51 C 177.75 25.64 157.50 26.51 146.50 27.45 C 135.50 28.39 121.55 29.14 115.50 29.12 C 100.18 29.07 100.71 28.78 101.56 36.84 C 102.24 43.29 102.20 43.45 100.38 41.89 C 99.35 41.00 96.25 39.00 93.50 37.44 C 90.75 35.88 86.70 33.20 84.50 31.48 C 82.30 29.75 78.47 27.19 75.99 25.77 C 73.51 24.36 69.99 21.13 68.18 18.60 C 66.36 16.07 64.52 14.00 64.08 14.00 C 62.82 14.00 58.00 18.79 58.00 20.05 C 58.00 20.68 57.12 22.42 56.05 23.92 C 51.94 29.70 45.18 47.56 43.57 56.91 C 42.68 62.05 41.73 66.63 41.46 67.07 C 40.63 68.41 44.30 69.91 46.08 68.96 C 48.10 67.88 52.26 68.99 65.37 74.09 C 70.88 76.24 76.23 78.00 77.26 78.00 C 79.71 78.00 93.53 63.84 96.21 58.59 C 97.35 56.35 99.09 52.27 100.07 49.51 C 101.85 44.50 101.85 44.50 101.98 48.50 C 102.60 67.92 103.90 81.20 105.40 83.49 C 107.30 86.39 108.68 86.53 115.41 84.49 C 123.80 81.95 123.63 81.78 122.85 91.75 C 122.16 100.56 120.59 106.68 113.46 128.24 C 108.79 142.36 109.01 143.04 117.76 141.21 C 125.21 139.65 127.23 138.08 134.79 127.94 C 138.25 123.30 143.53 116.92 146.54 113.77 C 150.00 110.13 152.00 107.17 152.00 105.67 C 152.00 100.87 142.02 90.01 133.16 85.18 C 128.38 82.57 128.07 82.20 130.16 81.69 C 136.29 80.19 163.76 78.91 184.00 79.19 C 206.50 79.50 206.50 79.50 207.14 85.50 C 207.49 88.80 207.88 114.45 207.99 142.50 C 208.11 170.55 208.49 205.94 208.85 221.15 C 209.44 246.40 209.66 248.97 211.40 250.90 C 214.02 253.78 216.32 253.54 220.40 249.95 Z  M 189.14 232.00 C 191.06 229.40 202.54 200.13 204.04 194.01 C 205.74 187.10 206.30 170.44 205.03 165.12 C 204.35 162.30 203.40 159.75 202.91 159.44 C 202.42 159.14 200.38 160.48 198.38 162.42 C 192.12 168.50 186.81 170.44 176.50 170.41 C 166.27 170.39 159.50 168.96 149.63 164.77 C 141.46 161.30 108.30 142.67 105.64 140.05 C 104.62 139.05 102.36 133.34 100.62 127.36 C 97.91 118.05 97.14 116.45 95.23 116.18 C 91.17 115.60 90.77 119.15 91.35 150.50 C 91.64 166.45 92.25 181.27 92.70 183.44 C 93.45 187.07 93.86 187.46 98.11 188.54 C 105.60 190.46 112.81 194.20 125.00 202.50 C 137.27 210.85 141.55 213.02 155.48 217.94 C 167.08 222.03 176.89 227.26 181.07 231.57 C 184.89 235.51 186.48 235.59 189.14 232.00 Z  M 157.27 151.09 C 158.59 150.58 164.36 146.04 170.09 141.00 C 175.81 135.95 182.30 130.69 184.50 129.30 C 189.55 126.12 191.00 124.28 190.99 121.06 C 190.98 115.99 188.80 110.83 183.03 102.24 C 176.13 91.96 170.81 86.47 168.57 87.33 C 166.30 88.20 163.01 94.06 163.00 97.23 C 163.00 101.28 159.19 110.51 149.60 129.72 C 144.87 139.19 141.00 147.37 141.00 147.91 C 141.00 151.26 151.46 153.30 157.27 151.09 Z "/>
</g>
</svg>