<?xml version="1.0" encoding="UTF-8" standalone="no"?>
<!DOCTYPE svg PUBLIC "-//W3C//DTD SVG 1.1//EN" "http://www.w3.org/Graphics/SVG/1.1/DTD/svg11.dtd" >
<svg xmlns="http://www.w3.org/2000/svg" xmlns:xlink="http://www.w3.org/1999/xlink" version="1.1" viewBox="0 0 256 256">
 <g >
 <path fill="currentColor"
d=" M 156.15 249.87 C 159.52 249.15 162.41 247.74 164.20 245.95 C 167.00 243.15 167.00 243.15 167.00 216.10 C 167.00 189.05 167.00 189.05 170.11 187.44 C 172.79 186.06 173.14 185.44 172.63 182.92 C 172.24 180.97 172.46 179.99 173.28 179.97 C 173.95 179.96 182.82 179.31 193.00 178.53 C 203.18 177.75 211.78 177.42 212.13 177.80 C 212.47 178.19 213.53 180.97 214.48 184.00 C 215.42 187.03 217.10 190.29 218.21 191.25 C 220.48 193.23 227.02 193.59 230.15 191.92 C 232.54 190.64 235.01 185.20 234.98 181.28 C 234.95 177.35 231.45 170.09 227.69 166.16 C 221.33 159.50 200.84 151.23 197.52 153.98 C 196.16 155.11 196.56 155.84 200.73 159.92 C 203.36 162.47 206.27 165.94 207.21 167.63 C 208.93 170.69 208.93 170.69 172.71 171.37 C 152.80 171.74 132.22 172.28 127.00 172.56 C 117.50 173.07 117.50 173.07 131.00 168.19 C 154.33 159.75 171.89 151.85 185.07 143.88 C 188.98 141.51 192.16 140.44 196.42 140.04 C 200.02 139.71 202.51 138.98 202.78 138.19 C 203.28 136.66 195.83 129.53 188.26 124.31 C 183.03 120.69 183.03 120.69 174.05 129.34 C 169.11 134.10 164.27 138.00 163.28 138.01 C 158.27 138.04 131.40 135.63 130.79 135.09 C 129.97 134.38 163.32 115.00 165.36 115.00 C 167.96 115.00 173.00 112.79 173.00 111.65 C 173.00 111.02 171.31 109.05 169.25 107.29 C 165.50 104.08 165.50 104.08 204.00 104.02 C 226.80 103.99 243.11 103.58 244.00 103.01 C 245.21 102.23 243.75 100.29 236.38 92.91 C 225.69 82.20 225.36 82.16 218.37 91.06 C 213.70 97.00 213.70 97.00 189.85 97.00 C 166.00 97.00 166.00 97.00 166.00 86.00 C 166.00 75.00 166.00 75.00 191.75 74.98 C 205.91 74.98 218.11 74.58 218.85 74.11 C 219.59 73.64 220.04 72.45 219.85 71.45 C 219.43 69.30 205.63 57.00 203.63 57.00 C 202.86 57.00 200.36 59.49 198.07 62.53 C 193.89 68.06 193.89 68.06 180.20 67.78 C 166.50 67.50 166.50 67.50 166.21 58.25 C 165.92 49.00 165.92 49.00 199.21 48.98 C 217.52 48.98 233.13 48.57 233.90 48.09 C 234.66 47.60 235.04 46.54 234.73 45.73 C 234.07 44.01 218.40 30.00 217.14 30.00 C 216.68 30.00 213.94 32.71 211.06 36.02 C 205.83 42.04 205.83 42.04 186.16 41.77 C 166.50 41.50 166.50 41.50 166.21 32.82 C 165.92 24.15 165.92 24.15 169.46 21.32 C 171.41 19.77 173.00 17.76 173.00 16.85 C 173.00 14.74 164.92 12.69 156.16 12.58 C 149.82 12.50 149.82 12.50 149.96 27.25 C 150.09 42.00 150.09 42.00 120.05 42.00 C 90.00 42.00 90.00 42.00 90.00 44.46 C 90.00 45.88 90.83 47.37 91.93 47.96 C 93.14 48.61 104.50 49.00 121.93 49.00 C 150.00 49.00 150.00 49.00 150.00 58.48 C 150.00 67.97 150.00 67.97 123.26 68.23 C 100.42 68.46 96.49 68.72 96.26 70.00 C 95.52 74.29 96.67 74.49 123.96 74.80 C 150.00 75.09 150.00 75.09 150.00 86.05 C 150.00 97.00 150.00 97.00 116.08 97.00 C 97.43 97.00 81.45 97.27 80.58 97.61 C 79.71 97.94 79.00 99.23 79.00 100.48 C 79.00 102.22 79.73 102.90 82.12 103.37 C 83.84 103.72 99.37 104.00 116.62 104.00 C 134.10 104.00 148.00 104.39 148.00 104.88 C 148.00 107.00 130.00 123.79 124.02 127.25 C 118.58 130.40 116.63 131.00 111.77 131.00 C 108.60 131.00 106.01 131.34 106.01 131.75 C 106.02 132.16 108.00 136.10 110.41 140.50 C 114.05 147.14 115.19 148.48 117.14 148.38 C 118.44 148.31 125.12 147.75 132.00 147.13 C 138.88 146.50 146.71 145.83 149.40 145.63 C 154.30 145.26 154.30 145.26 151.90 147.10 C 147.83 150.22 121.95 162.66 113.50 165.56 C 108.32 167.34 102.59 168.48 97.23 168.78 C 92.68 169.04 88.75 169.59 88.49 170.01 C 87.83 171.08 95.89 188.00 97.05 188.00 C 97.58 188.00 102.40 187.35 107.76 186.56 C 113.12 185.77 122.90 184.65 129.50 184.07 C 136.10 183.48 143.64 182.76 146.25 182.47 C 151.00 181.93 151.00 181.93 151.00 205.84 C 151.00 223.78 150.69 230.00 149.75 230.74 C 147.02 232.89 142.26 233.08 132.79 231.41 C 127.39 230.47 122.66 230.01 122.27 230.39 C 120.76 231.90 124.00 234.61 130.15 237.00 C 138.85 240.37 141.91 242.53 143.56 246.49 C 145.55 251.26 147.38 251.75 156.15 249.87 Z  M 55.04 246.98 C 56.09 246.41 57.44 245.05 58.03 243.95 C 58.78 242.55 59.08 209.15 59.03 133.87 C 58.95 25.80 58.95 25.80 62.47 21.90 C 64.41 19.75 66.00 17.56 66.00 17.03 C 66.00 14.95 61.09 13.64 45.75 11.62 C 42.00 11.13 42.00 11.13 42.00 127.63 C 42.00 206.02 42.34 244.76 43.04 246.07 C 43.82 247.54 45.15 248.00 48.60 248.00 C 51.09 248.00 53.99 247.54 55.04 246.98 Z  M 231.25 239.02 C 233.70 236.30 234.00 235.20 234.00 228.93 C 234.00 220.05 232.54 217.22 225.61 212.62 C 214.47 205.22 185.92 195.89 183.99 199.01 C 182.72 201.07 183.70 202.34 188.55 204.92 C 191.03 206.24 195.80 209.83 199.13 212.91 C 203.96 217.36 206.35 220.75 210.85 229.50 C 214.58 236.76 217.35 240.94 219.00 241.78 C 222.80 243.74 228.07 242.55 231.25 239.02 Z  M 79.65 236.64 C 87.37 233.61 96.97 228.06 114.50 216.48 C 122.20 211.40 130.07 206.90 132.00 206.50 C 137.66 205.31 139.35 204.13 137.90 202.38 C 135.83 199.88 120.28 189.00 118.78 189.00 C 118.00 189.00 116.31 190.89 115.01 193.19 C 111.63 199.22 91.49 219.59 79.91 228.71 C 66.87 238.98 66.78 241.68 79.65 236.64 Z  M 22.95 119.52 C 26.67 117.60 29.59 112.77 31.47 105.42 C 33.49 97.54 33.50 96.45 31.68 82.48 C 29.79 67.99 29.40 66.80 26.62 67.20 C 24.71 67.47 24.44 68.34 23.84 76.15 C 23.07 86.23 20.82 92.03 14.60 100.00 C 9.03 107.13 8.00 109.18 8.00 113.12 C 8.00 119.95 15.73 123.26 22.95 119.52 Z  M 88.29 82.98 C 99.30 74.32 86.99 57.20 68.36 55.27 C 61.87 54.60 61.53 55.67 66.88 59.91 C 71.47 63.54 73.54 67.58 74.49 74.73 C 75.39 81.53 78.08 85.00 82.44 85.00 C 84.25 85.00 86.88 84.09 88.29 82.98 Z "/>
</g>
</svg>