<?xml version="1.0" encoding="UTF-8" standalone="no"?>
<!DOCTYPE svg PUBLIC "-//W3C//DTD SVG 1.1//EN" "http://www.w3.org/Graphics/SVG/1.1/DTD/svg11.dtd" >
<svg xmlns="http://www.w3.org/2000/svg" xmlns:xlink="http://www.w3.org/1999/xlink" version="1.1" viewBox="0 0 256 256">
 <g >
 <path fill="currentColor"
d=" M 194.71 242.90 C 201.55 239.59 202.00 237.94 202.00 216.05 C 202.00 197.00 202.00 197.00 222.75 196.98 C 234.16 196.98 244.16 196.55 244.96 196.05 C 246.21 195.26 246.14 194.79 244.50 192.81 C 239.16 186.40 232.39 180.00 230.94 180.00 C 230.05 180.00 227.78 182.25 225.91 185.00 C 222.50 190.00 222.50 190.00 212.25 190.00 C 202.00 190.00 202.00 190.00 202.00 186.48 C 202.00 183.69 202.52 182.72 204.50 181.82 C 207.74 180.34 207.68 177.68 204.33 175.05 C 201.66 172.95 201.66 172.95 205.08 169.42 C 209.49 164.87 216.60 160.39 220.82 159.51 C 225.53 158.52 225.84 156.46 221.88 152.37 C 217.98 148.33 210.27 143.00 208.34 143.00 C 207.61 143.00 206.00 144.57 204.76 146.49 C 202.50 149.98 202.50 149.98 184.32 149.99 C 169.14 150.00 165.88 150.26 164.57 151.57 C 162.69 153.46 162.62 154.22 164.20 155.80 C 165.05 156.65 170.91 157.00 184.18 157.00 C 202.97 157.00 202.97 157.00 198.88 165.01 C 194.78 173.01 194.78 173.01 190.64 172.76 C 186.50 172.50 186.50 172.50 186.85 181.25 C 187.20 190.00 187.20 190.00 168.16 190.00 C 155.86 190.00 148.89 190.37 148.46 191.06 C 148.11 191.64 148.09 193.21 148.42 194.56 C 149.04 197.00 149.04 197.00 168.02 197.00 C 187.00 197.00 187.00 197.00 187.00 211.43 C 187.00 229.22 186.82 229.53 177.06 228.65 C 173.45 228.32 168.32 227.76 165.65 227.39 C 161.31 226.79 160.84 226.91 161.15 228.53 C 161.40 229.81 163.63 230.99 168.76 232.56 C 176.99 235.07 178.32 235.97 181.65 241.24 C 184.50 245.75 187.93 246.18 194.71 242.90 Z  M 124.40 241.61 C 130.71 238.97 131.00 237.80 131.00 215.41 C 131.00 195.27 131.00 195.27 147.25 188.23 C 157.36 183.85 163.62 180.59 163.82 179.59 C 164.31 177.18 161.92 177.57 146.16 182.51 C 138.27 184.98 131.64 187.00 131.41 187.00 C 131.18 187.00 131.00 185.79 131.00 184.30 C 131.00 182.78 132.11 180.46 133.55 178.95 C 136.10 176.28 136.10 176.28 133.05 175.02 C 131.37 174.33 130.00 173.42 130.00 173.01 C 130.00 172.59 131.98 170.43 134.40 168.20 C 138.37 164.54 143.92 162.02 148.06 162.01 C 148.92 162.00 150.47 161.38 151.51 160.61 C 152.97 159.55 153.19 158.77 152.45 157.24 C 151.42 155.07 138.71 144.00 137.26 144.00 C 136.77 144.00 135.38 145.35 134.16 147.00 C 131.94 150.00 131.94 150.00 114.59 150.00 C 99.98 150.00 97.04 150.25 95.93 151.58 C 94.98 152.73 94.90 153.63 95.67 154.83 C 96.57 156.26 99.14 156.54 113.86 156.77 C 123.29 156.92 131.00 157.35 131.00 157.72 C 131.00 158.09 129.13 161.66 126.85 165.65 C 123.57 171.39 122.16 172.96 120.10 173.20 C 117.50 173.50 117.50 173.50 117.75 182.17 C 117.99 190.84 117.99 190.84 111.25 192.35 C 107.54 193.18 101.58 194.36 98.00 194.97 C 86.74 196.87 86.00 197.10 86.00 198.72 C 86.00 201.38 90.08 214.15 90.81 213.76 C 100.14 208.85 116.64 201.28 117.22 201.64 C 118.18 202.23 118.07 222.56 117.09 226.00 C 116.38 228.48 116.28 228.50 106.19 228.29 C 97.92 228.12 96.00 228.35 96.00 229.51 C 96.00 230.41 98.60 231.73 103.04 233.08 C 110.08 235.22 113.00 237.06 113.00 239.37 C 113.00 242.98 118.51 244.07 124.40 241.61 Z  M 41.04 235.46 C 42.12 234.48 43.49 231.88 44.09 229.67 C 45.05 226.11 44.78 224.47 41.69 215.08 C 37.11 201.18 36.65 196.94 37.94 180.76 C 39.48 161.51 41.68 152.27 52.40 120.00 C 63.45 86.74 72.00 58.77 72.00 55.87 C 72.00 49.48 66.83 59.46 61.07 77.00 C 59.53 81.67 55.24 92.70 51.52 101.50 C 47.81 110.30 41.69 124.92 37.92 134.00 C 34.15 143.07 28.47 155.68 25.29 162.00 C 19.07 174.36 19.39 174.11 11.75 172.63 C 6.43 171.61 6.89 173.08 14.39 181.03 C 22.57 189.70 24.45 194.83 24.19 207.68 C 24.09 212.73 23.55 218.04 23.00 219.49 C 20.55 225.93 22.71 233.65 27.76 236.49 C 31.22 238.44 38.37 237.88 41.04 235.46 Z  M 55.69 226.42 C 80.61 198.22 89.79 177.29 94.94 137.00 C 96.56 124.31 98.95 83.53 98.99 67.75 C 99.00 64.00 99.00 64.00 151.50 64.00 C 204.00 64.00 204.00 64.00 204.00 66.31 C 204.00 70.47 206.17 72.17 211.70 72.34 C 215.46 72.46 217.34 72.00 218.89 70.60 C 220.87 68.80 221.00 67.70 221.00 52.24 C 221.00 36.15 221.06 35.72 223.50 32.82 C 224.87 31.18 226.00 29.49 226.00 29.06 C 226.00 26.55 212.30 17.00 208.70 17.00 C 207.85 17.00 206.09 18.91 204.81 21.25 C 202.46 25.50 202.46 25.50 151.27 25.76 C 100.07 26.02 100.07 26.02 90.34 20.54 C 84.99 17.52 80.42 15.24 80.19 15.47 C 79.96 15.71 80.59 22.11 81.59 29.70 C 85.38 58.43 83.13 132.42 77.43 166.46 C 75.51 177.89 71.28 190.51 65.61 201.70 C 61.05 210.70 52.80 224.39 49.08 229.16 C 46.62 232.30 46.51 233.00 48.44 233.00 C 49.22 233.00 52.49 230.04 55.69 226.42 Z  M 166.04 144.75 C 170.50 142.50 170.50 142.50 171.00 128.00 C 171.50 113.50 171.50 113.50 201.96 113.24 C 220.06 113.08 232.83 112.57 233.41 111.99 C 234.60 110.80 219.14 95.00 216.79 95.00 C 215.93 95.00 213.48 97.70 211.36 100.99 C 207.50 106.98 207.50 106.98 189.25 106.99 C 179.21 107.00 171.00 106.74 171.00 106.43 C 171.00 106.12 172.12 104.40 173.48 102.61 C 175.19 100.38 175.64 99.04 174.93 98.33 C 173.72 97.12 175.57 95.76 184.72 91.14 C 189.27 88.84 192.31 88.00 196.04 88.00 C 200.73 88.00 201.11 87.82 200.82 85.79 C 200.42 83.03 186.30 71.01 183.45 71.00 C 182.33 71.00 179.65 72.80 177.50 75.00 C 173.59 79.00 173.59 79.00 147.49 79.00 C 119.49 79.00 117.45 79.34 118.63 83.75 C 119.23 86.00 119.23 86.00 146.12 86.00 C 162.73 86.00 173.00 86.37 173.00 86.97 C 173.00 87.50 171.60 89.52 169.90 91.47 C 167.45 94.25 166.02 95.01 163.15 95.07 C 156.46 95.20 155.57 96.03 155.87 101.83 C 156.15 107.00 156.15 107.00 129.16 107.00 C 114.31 107.00 101.45 107.27 100.58 107.61 C 99.71 107.94 99.00 109.29 99.00 110.61 C 99.00 113.00 99.00 113.00 127.50 113.00 C 156.00 113.00 156.00 113.00 155.98 121.25 C 155.98 125.79 155.54 130.18 155.02 131.00 C 154.01 132.60 147.83 132.80 139.28 131.52 C 135.32 130.93 134.86 131.05 135.17 132.68 C 135.41 133.90 137.39 135.09 141.25 136.32 C 145.62 137.70 147.87 139.17 150.74 142.53 C 153.85 146.17 155.11 146.94 158.04 146.97 C 159.98 146.99 163.58 145.99 166.04 144.75 Z  M 37.94 105.06 C 39.01 103.99 40.40 101.40 41.02 99.31 C 41.97 96.14 41.85 94.66 40.33 90.50 C 37.85 83.72 32.24 80.81 20.46 80.19 C 11.24 79.71 8.99 80.93 14.22 83.57 C 21.12 87.06 25.00 92.37 25.00 98.32 C 25.00 103.25 28.27 107.00 32.57 107.00 C 34.63 107.00 36.77 106.23 37.94 105.06 Z  M 55.41 46.60 C 58.23 45.42 58.93 44.44 59.93 40.29 C 60.97 35.95 60.86 34.71 59.02 29.78 C 57.78 26.46 55.89 23.50 54.39 22.52 C 48.63 18.75 26.30 16.56 25.27 19.68 C 25.06 20.32 26.83 21.71 29.20 22.77 C 36.03 25.78 39.67 30.10 41.03 36.76 C 43.02 46.47 47.83 49.77 55.41 46.60 Z  M 99.00 45.00 C 99.00 33.00 99.00 33.00 151.50 33.00 C 204.00 33.00 204.00 33.00 204.00 45.00 C 204.00 57.00 204.00 57.00 151.50 57.00 C 99.00 57.00 99.00 57.00 99.00 45.00 Z "/>
</g>
</svg>