<?xml version="1.0" encoding="UTF-8" standalone="no"?>
<!DOCTYPE svg PUBLIC "-//W3C//DTD SVG 1.1//EN" "http://www.w3.org/Graphics/SVG/1.1/DTD/svg11.dtd" >
<svg xmlns="http://www.w3.org/2000/svg" xmlns:xlink="http://www.w3.org/1999/xlink" version="1.1" viewBox="0 0 256 256">
 <g >
 <path fill="currentColor"
d=" M 228.78 235.93 C 232.93 234.48 235.00 231.01 235.00 225.50 C 235.00 219.80 231.21 212.01 226.17 207.37 C 221.73 203.27 200.97 192.96 195.75 192.25 C 190.06 191.47 190.93 193.76 199.09 201.01 C 208.26 209.16 210.50 212.71 212.84 222.79 C 215.72 235.20 220.22 238.91 228.78 235.93 Z  M 38.68 232.15 C 40.78 231.08 43.49 229.13 44.70 227.83 C 49.96 222.20 53.61 208.05 52.52 197.57 C 51.48 187.48 51.02 186.00 48.94 186.00 C 47.68 186.00 46.83 186.93 46.43 188.75 C 43.18 203.49 40.98 206.47 28.96 212.36 C 18.07 217.69 16.30 220.29 18.52 227.76 C 19.69 231.68 20.66 233.09 22.77 233.90 C 26.51 235.35 34.07 234.51 38.68 232.15 Z  M 166.49 232.83 C 175.16 226.01 173.33 212.91 162.34 203.11 C 156.20 197.65 146.78 192.49 144.51 193.36 C 142.19 194.25 142.72 197.77 145.45 199.56 C 148.84 201.78 151.34 210.69 150.76 218.50 C 150.16 226.66 151.41 230.67 155.31 233.05 C 159.47 235.58 163.08 235.51 166.49 232.83 Z  M 100.48 233.01 C 105.84 230.97 108.14 217.34 104.46 209.50 C 102.16 204.62 90.08 192.00 87.71 192.00 C 85.50 192.00 85.56 194.02 88.00 201.81 C 89.80 207.55 89.88 208.95 88.80 217.49 C 87.89 224.71 87.89 227.45 88.80 229.46 C 90.62 233.45 95.45 234.92 100.48 233.01 Z  M 128.93 195.53 C 138.46 192.99 138.42 193.10 139.00 169.22 C 139.50 148.50 139.50 148.50 156.50 142.82 C 180.43 134.83 189.68 132.70 200.98 132.59 C 209.32 132.51 210.51 132.28 210.82 130.68 C 211.01 129.67 210.35 127.91 209.34 126.77 C 206.38 123.42 188.00 110.00 186.37 110.00 C 185.55 110.00 182.82 111.57 180.30 113.50 C 175.71 117.00 175.71 117.00 109.11 117.02 C 72.47 117.02 41.90 117.41 41.16 117.88 C 40.43 118.34 39.98 119.80 40.16 121.11 C 40.50 123.50 40.50 123.50 106.00 124.00 C 167.59 124.47 171.35 124.60 169.00 126.17 C 167.62 127.09 161.34 130.84 155.04 134.51 C 143.58 141.18 143.58 141.18 134.04 137.58 C 128.79 135.60 123.93 133.98 123.24 133.99 C 122.25 134.00 122.11 137.90 122.62 152.25 C 123.07 165.16 122.90 171.78 122.06 174.87 C 120.86 179.25 120.86 179.25 110.68 178.43 C 95.40 177.20 92.50 177.28 92.50 178.91 C 92.50 179.76 95.26 181.23 99.50 182.65 C 106.42 184.96 109.46 187.37 114.30 194.39 C 116.42 197.48 120.44 197.79 128.93 195.53 Z  M 180.55 106.55 C 182.88 104.21 183.00 103.51 183.01 91.80 C 183.01 79.50 183.01 79.50 186.51 77.12 C 190.42 74.46 190.81 73.03 188.25 70.74 C 186.35 69.04 171.96 61.04 170.76 61.01 C 170.36 61.01 168.89 62.80 167.50 65.00 C 164.97 69.00 164.97 69.00 124.72 69.00 C 84.46 69.00 84.46 69.00 76.79 64.51 C 72.57 62.04 68.48 60.26 67.71 60.56 C 66.54 61.01 66.37 64.86 66.72 83.30 C 66.95 95.51 67.32 106.06 67.54 106.75 C 68.05 108.34 76.35 108.41 79.32 106.85 C 82.10 105.39 82.97 104.06 82.98 101.25 C 83.00 99.00 83.00 99.00 124.50 99.00 C 166.00 99.00 166.00 99.00 166.00 102.43 C 166.00 107.11 168.19 109.00 173.62 109.00 C 177.03 109.00 178.67 108.42 180.55 106.55 Z  M 234.80 51.37 C 235.03 49.75 232.94 47.43 226.02 41.62 C 221.02 37.43 216.14 34.00 215.17 34.00 C 214.19 34.00 210.81 37.15 207.64 41.00 C 201.88 48.00 201.88 48.00 109.05 48.00 C 24.24 48.00 16.16 48.14 15.59 49.63 C 13.86 54.14 10.75 54.02 125.88 53.75 C 234.50 53.50 234.50 53.50 234.80 51.37 Z  M 138.93 42.48 C 140.83 40.61 141.44 38.82 141.72 34.29 C 142.15 27.50 140.85 24.49 136.14 21.32 C 132.22 18.67 117.96 13.03 113.27 12.27 C 108.87 11.55 108.89 13.94 113.35 19.40 C 117.98 25.07 119.61 28.52 121.02 35.72 C 122.26 41.98 123.87 44.37 127.50 45.31 C 131.09 46.24 136.45 44.91 138.93 42.48 Z  M 83.00 84.00 C 83.00 76.00 83.00 76.00 124.50 76.00 C 166.00 76.00 166.00 76.00 166.00 84.00 C 166.00 92.00 166.00 92.00 124.50 92.00 C 83.00 92.00 83.00 92.00 83.00 84.00 Z "/>
</g>
</svg>