<?xml version="1.0" encoding="UTF-8" standalone="no"?>
<!DOCTYPE svg PUBLIC "-//W3C//DTD SVG 1.1//EN" "http://www.w3.org/Graphics/SVG/1.1/DTD/svg11.dtd" >
<svg xmlns="http://www.w3.org/2000/svg" xmlns:xlink="http://www.w3.org/1999/xlink" version="1.1" viewBox="0 0 256 256">
 <g >
 <path fill="currentColor"
d=" M 217.78 240.27 C 224.80 237.01 226.89 231.54 229.92 208.50 C 238.21 145.48 242.08 77.99 238.42 60.27 C 234.74 42.46 224.85 32.24 208.11 28.94 C 200.71 27.49 181.22 28.14 162.00 30.50 C 145.47 32.52 140.52 33.55 127.88 37.61 C 111.19 42.96 103.99 50.80 104.01 63.57 C 104.02 68.41 104.64 70.61 107.35 75.50 C 111.15 82.35 115.01 85.36 122.94 87.67 C 128.67 89.34 131.36 88.94 153.25 83.22 C 155.48 82.64 155.51 84.77 153.45 98.87 C 146.11 149.15 130.94 188.55 106.67 220.34 C 102.55 225.74 102.07 229.07 104.97 231.97 C 110.02 237.02 115.57 235.77 121.55 228.23 C 146.80 196.43 163.74 147.73 169.28 91.00 C 170.50 78.51 170.50 78.51 181.50 77.24 C 187.55 76.53 197.08 76.08 202.68 76.23 C 213.69 76.52 216.03 77.47 220.44 83.40 C 222.38 86.01 222.49 87.42 222.38 107.34 C 222.26 130.59 220.69 149.45 215.43 190.96 C 213.22 208.46 211.41 219.25 210.46 220.71 C 208.11 224.29 203.20 223.70 192.23 218.50 C 181.63 213.48 178.48 213.05 174.63 216.07 C 172.58 217.69 172.00 219.02 172.00 222.13 C 172.00 227.12 175.94 231.06 183.99 234.14 C 208.08 243.36 210.27 243.75 217.78 240.27 Z  M 81.05 227.47 C 82.67 226.64 84.02 225.17 84.04 224.22 C 84.06 223.28 84.18 200.83 84.29 174.33 C 84.41 147.84 84.82 125.85 85.21 125.45 C 85.61 125.06 90.66 127.50 96.44 130.87 C 102.22 134.24 107.95 137.00 109.17 137.00 C 112.35 137.00 117.00 132.20 117.00 128.92 C 117.00 127.44 116.21 125.29 115.25 124.16 C 113.29 121.86 93.38 110.61 88.28 108.93 C 85.08 107.87 85.00 107.71 85.04 102.17 C 85.06 99.05 85.92 81.65 86.95 63.50 C 89.03 26.69 89.08 27.19 82.47 24.42 C 78.51 22.77 74.72 23.78 73.03 26.95 C 69.73 33.11 66.22 195.52 68.87 219.38 C 69.91 228.76 73.69 231.28 81.05 227.47 Z  M 42.09 158.67 C 51.02 153.96 54.30 144.13 56.14 116.52 C 58.02 88.21 56.58 80.45 48.41 74.80 C 37.42 67.20 21.47 70.18 16.11 80.84 C 11.68 89.66 6.95 129.75 8.91 141.91 C 9.45 145.26 10.70 149.38 11.69 151.07 C 16.84 159.81 32.52 163.73 42.09 158.67 Z "/>
</g>
</svg>