<?xml version="1.0" encoding="UTF-8" standalone="no"?>
<!DOCTYPE svg PUBLIC "-//W3C//DTD SVG 1.1//EN" "http://www.w3.org/Graphics/SVG/1.1/DTD/svg11.dtd" >
<svg xmlns="http://www.w3.org/2000/svg" xmlns:xlink="http://www.w3.org/1999/xlink" version="1.1" viewBox="0 0 256 256">
 <g >
 <path fill="currentColor"
d=" M 122.01 237.85 C 137.35 224.12 152.00 205.34 152.00 199.39 C 152.00 192.77 142.35 189.38 137.70 194.36 C 136.49 195.67 133.27 200.28 130.54 204.61 C 127.50 209.45 121.21 216.88 114.29 223.82 C 102.03 236.13 100.77 238.77 105.12 243.12 C 108.81 246.81 113.71 245.28 122.01 237.85 Z  M 221.50 240.94 C 232.96 239.60 236.36 238.50 240.59 234.79 C 243.37 232.34 244.00 231.08 244.00 227.90 C 244.00 222.83 237.56 206.82 233.99 202.99 C 230.18 198.91 224.06 198.76 220.45 202.65 C 217.25 206.10 217.36 208.40 220.94 212.92 C 229.01 223.11 227.73 224.95 211.69 226.32 C 198.72 227.42 196.46 227.08 192.53 223.44 C 189.74 220.86 189.72 220.75 190.38 212.19 C 191.02 203.92 194.27 187.76 195.78 185.35 C 196.18 184.72 202.73 183.48 210.38 182.60 C 227.79 180.60 231.53 179.47 236.17 174.83 C 243.14 167.86 243.61 159.71 237.50 151.70 C 231.66 144.06 228.94 143.48 199.50 143.61 C 173.25 143.73 137.73 146.01 122.50 148.57 C 111.13 150.47 105.63 153.10 102.23 158.23 C 97.66 165.13 99.24 175.90 105.54 180.85 C 110.97 185.12 113.97 185.46 147.25 185.48 C 164.71 185.49 179.00 185.63 179.00 185.78 C 179.00 185.93 177.90 191.56 176.55 198.28 C 173.17 215.18 172.58 221.71 173.97 226.88 C 175.44 232.34 181.23 238.63 186.50 240.50 C 191.36 242.22 208.74 242.44 221.50 240.94 Z  M 65.84 234.40 C 67.10 233.52 68.50 231.81 68.96 230.61 C 69.42 229.40 69.33 217.28 68.77 203.67 C 68.20 190.06 67.99 178.67 68.30 178.37 C 68.91 177.76 75.22 181.86 84.19 188.69 C 91.86 194.53 94.80 195.04 99.04 191.26 C 103.15 187.58 103.47 183.20 99.92 179.39 C 96.69 175.94 78.82 164.11 72.25 161.08 C 67.00 158.66 67.00 158.66 67.00 139.45 C 67.00 120.25 67.00 120.25 70.25 119.62 C 72.04 119.27 76.76 118.02 80.73 116.85 C 96.09 112.33 102.95 101.14 99.99 85.45 C 97.41 71.79 90.48 66.00 76.68 66.00 C 69.00 66.00 69.00 66.00 69.00 57.61 C 69.00 52.99 69.48 44.55 70.06 38.86 C 71.12 28.51 71.12 28.51 68.40 26.34 C 63.61 22.52 58.24 22.81 55.99 27.01 C 55.37 28.18 54.44 37.50 53.94 47.73 C 53.43 57.95 52.90 66.39 52.76 66.48 C 52.62 66.56 48.23 67.15 43.00 67.79 C 30.34 69.33 23.73 71.42 19.33 75.29 C 11.22 82.41 8.65 95.42 13.35 105.50 C 18.87 117.31 24.50 120.68 40.31 121.65 C 51.00 122.30 51.00 122.30 51.00 133.31 C 51.00 144.32 51.00 144.32 45.29 151.91 C 38.66 160.73 24.57 175.53 16.64 182.00 C 13.60 184.47 10.87 187.11 10.56 187.84 C 9.55 190.24 13.68 197.93 16.55 199.02 C 20.45 200.50 23.73 198.08 38.39 182.96 C 51.00 169.94 51.00 169.94 51.01 184.22 C 51.01 192.07 51.46 205.93 52.00 215.00 C 52.94 230.89 53.08 231.58 55.55 233.75 C 58.56 236.39 62.63 236.65 65.84 234.40 Z  M 220.44 137.91 C 229.22 135.70 235.90 126.79 240.88 110.64 C 244.70 98.28 242.99 93.00 235.19 93.00 C 229.71 93.00 228.25 94.58 225.93 103.00 C 222.60 115.05 219.00 120.00 213.56 120.00 C 209.79 120.00 199.69 115.23 195.06 111.26 C 191.61 108.31 191.61 108.31 196.56 105.53 C 217.97 93.46 223.00 89.39 223.00 84.10 C 223.00 80.26 219.50 76.00 216.34 76.00 C 214.89 76.00 209.37 78.99 203.28 83.05 C 188.77 92.75 181.27 96.47 179.38 94.90 C 177.48 93.32 171.32 82.23 170.50 78.90 C 169.86 76.31 169.86 76.31 186.18 74.10 C 215.79 70.11 223.28 67.86 229.11 61.22 C 237.46 51.71 236.90 39.15 227.79 31.47 C 221.75 26.38 218.72 25.68 205.50 26.32 C 196.08 26.78 166.70 29.46 161.54 30.34 C 161.01 30.43 160.20 27.35 159.74 23.50 C 158.78 15.53 156.81 13.00 151.56 13.00 C 146.11 13.00 143.92 16.40 143.27 25.91 C 142.96 30.36 142.62 34.00 142.51 34.00 C 141.36 34.00 113.00 40.04 111.50 40.61 C 95.67 46.57 92.45 66.98 105.62 77.84 C 111.74 82.89 116.26 83.40 133.89 81.05 C 154.70 78.27 153.40 78.11 155.48 83.75 C 156.45 86.36 159.00 91.82 161.15 95.89 C 163.30 99.95 164.94 103.39 164.78 103.53 C 163.91 104.34 144.01 110.87 128.10 115.57 C 117.98 118.56 109.11 121.50 108.39 122.09 C 106.15 123.95 105.83 126.77 107.50 129.99 C 109.57 134.00 112.91 135.25 118.30 134.04 C 126.48 132.20 153.65 123.79 164.33 119.79 C 175.15 115.73 175.15 115.73 179.33 119.69 C 188.60 128.50 198.26 134.50 207.40 137.11 C 214.87 139.25 215.08 139.26 220.44 137.91 Z "/>
</g>
</svg>