<?xml version="1.0" encoding="UTF-8" standalone="no"?>
<!DOCTYPE svg PUBLIC "-//W3C//DTD SVG 1.1//EN" "http://www.w3.org/Graphics/SVG/1.1/DTD/svg11.dtd" >
<svg xmlns="http://www.w3.org/2000/svg" xmlns:xlink="http://www.w3.org/1999/xlink" version="1.1" viewBox="0 0 256 256">
 <g >
 <path fill="currentColor"
d=" M 115.62 225.75 C 131.98 208.87 144.32 191.02 152.17 172.89 C 160.27 154.17 164.88 128.53 162.02 118.04 C 160.29 111.68 154.87 106.56 148.41 105.18 C 142.56 103.93 128.41 105.06 118.77 107.56 C 115.47 108.41 112.59 108.92 112.36 108.69 C 112.13 108.46 113.68 102.03 115.81 94.39 C 119.60 80.80 119.74 80.49 122.59 80.22 C 135.62 78.98 150.55 76.63 156.43 74.88 C 169.46 71.02 176.06 60.60 174.58 46.20 C 173.06 31.34 164.86 24.01 148.86 23.20 C 132.25 22.36 101.04 25.92 88.16 30.12 C 79.29 33.02 73.87 41.53 73.21 53.62 C 72.67 63.40 73.93 67.81 78.80 73.20 C 83.46 78.36 88.59 80.88 95.99 81.66 C 100.90 82.17 102.00 82.62 102.00 84.10 C 102.00 87.16 95.30 112.08 92.49 119.50 C 88.65 129.63 81.51 143.05 75.85 150.78 C 69.24 159.82 68.87 161.60 72.86 165.17 C 76.26 168.20 80.52 168.85 83.22 166.75 C 86.05 164.54 95.04 149.82 100.61 138.28 C 106.02 127.06 106.02 127.06 114.26 124.56 C 127.36 120.59 139.69 118.74 142.86 120.26 C 147.24 122.36 148.12 125.57 146.95 135.11 C 143.42 163.99 128.40 191.91 103.59 215.73 C 95.04 223.94 93.00 226.43 93.02 228.70 C 93.04 233.48 96.08 235.92 102.10 235.97 C 105.36 236.00 106.61 235.05 115.62 225.75 Z  M 234.46 231.14 C 236.10 230.20 238.35 227.87 239.46 225.96 C 241.29 222.85 241.53 220.46 241.84 202.50 C 242.26 177.42 240.68 136.32 237.46 88.50 C 234.89 50.35 233.32 31.80 232.39 28.74 C 231.44 25.60 226.50 23.79 222.10 24.97 C 215.61 26.72 215.61 26.72 217.92 47.70 C 221.84 83.23 225.96 156.78 225.99 191.53 C 226.00 212.66 225.41 215.00 220.10 215.00 C 216.39 215.00 206.63 211.59 203.06 209.04 C 199.28 206.35 194.26 206.41 191.31 209.17 C 185.80 214.35 189.96 220.51 203.34 226.98 C 217.95 234.04 227.26 235.28 234.46 231.14 Z  M 35.12 225.40 C 52.11 217.88 76.09 202.84 79.58 197.52 C 80.91 195.49 80.98 194.48 80.01 191.53 C 77.83 184.93 71.76 184.11 64.74 189.47 C 54.06 197.62 33.55 209.49 20.82 214.89 C 15.79 217.02 13.52 219.92 14.50 222.99 C 15.31 225.54 20.69 230.00 22.95 230.00 C 23.93 230.00 29.41 227.93 35.12 225.40 Z  M 120.80 184.86 C 123.73 183.43 126.22 181.16 128.18 178.11 C 130.88 173.91 131.11 172.87 130.80 166.32 C 130.51 160.06 130.08 158.66 127.38 155.32 C 122.97 149.87 118.56 147.57 112.49 147.57 C 101.82 147.57 93.00 156.31 93.00 166.88 C 93.00 181.76 107.64 191.22 120.80 184.86 Z  M 199.68 179.87 C 203.68 178.64 209.33 172.47 211.13 167.38 C 212.19 164.37 212.50 155.51 212.50 128.00 C 212.50 93.72 212.43 92.34 210.34 87.82 C 206.55 79.62 196.99 75.47 186.47 77.44 C 181.35 78.40 174.32 85.10 172.90 90.36 C 171.41 95.91 171.35 144.45 172.82 158.36 C 174.11 170.54 175.88 174.53 181.56 178.04 C 188.00 182.01 191.58 182.38 199.68 179.87 Z  M 52.57 175.24 C 57.76 172.57 63.38 166.36 65.11 161.38 C 65.85 159.25 66.43 154.35 66.41 150.50 C 66.30 134.63 55.78 124.57 39.34 124.64 C 22.34 124.72 10.91 136.86 12.24 153.42 C 13.09 163.98 19.02 172.20 28.58 176.05 C 35.09 178.67 46.66 178.28 52.57 175.24 Z  M 56.76 107.65 C 72.04 103.69 77.07 92.55 71.94 74.02 C 67.60 58.37 54.28 37.41 46.04 33.25 C 37.40 28.89 26.54 31.01 17.96 38.72 C 11.81 44.25 10.00 47.56 10.00 53.28 C 10.00 60.77 16.24 76.92 23.35 87.81 C 31.89 100.91 38.12 106.47 46.00 108.06 C 51.18 109.11 51.14 109.11 56.76 107.65 Z "/>
</g>
</svg>