<?xml version="1.0" encoding="UTF-8" standalone="no"?>
<!DOCTYPE svg PUBLIC "-//W3C//DTD SVG 1.1//EN" "http://www.w3.org/Graphics/SVG/1.1/DTD/svg11.dtd" >
<svg xmlns="http://www.w3.org/2000/svg" xmlns:xlink="http://www.w3.org/1999/xlink" version="1.1" viewBox="0 0 256 256">
 <g >
 <path fill="currentColor"
d=" M 141.42 218.75 C 143.38 213.66 147.61 202.53 150.82 194.00 C 155.87 180.54 157.08 178.20 159.98 176.24 C 161.82 175.00 163.47 174.13 163.65 174.31 C 164.03 174.70 154.52 201.45 152.82 204.75 C 150.36 209.53 153.05 207.84 158.27 201.32 C 164.29 193.80 167.74 190.40 168.53 191.20 C 168.82 191.49 169.39 193.69 169.80 196.10 C 171.15 203.97 175.40 201.89 181.03 190.61 C 185.50 181.67 184.84 177.13 179.16 177.86 C 176.82 178.17 176.82 178.17 179.10 175.08 C 180.91 172.63 182.12 172.00 184.97 172.00 C 186.94 172.00 189.59 172.73 190.86 173.61 C 193.85 175.71 193.27 178.09 187.27 188.37 C 181.08 198.96 175.98 205.23 170.47 209.02 C 166.16 211.99 165.29 213.20 163.57 218.75 C 161.98 223.86 166.78 220.37 182.17 205.25 C 197.57 190.13 219.45 166.02 223.37 159.86 C 225.67 156.26 225.03 150.29 222.09 147.89 C 220.80 146.84 216.19 145.84 208.86 145.03 C 195.57 143.56 195.08 143.41 195.70 141.05 C 195.98 139.96 195.36 138.66 194.12 137.80 C 192.27 136.50 193.20 136.26 204.08 135.24 C 222.17 133.53 231.45 128.37 237.34 116.72 C 243.39 104.78 241.80 98.10 230.22 86.71 C 214.38 71.13 196.37 57.51 179.32 48.20 C 165.55 40.68 162.79 39.58 159.65 40.37 C 156.89 41.07 154.93 44.90 155.68 48.15 C 156.03 49.68 155.01 48.76 152.74 45.50 C 145.79 35.50 135.75 28.00 129.31 28.00 C 124.97 28.00 123.11 29.83 121.38 35.77 C 119.95 40.68 119.87 42.80 120.82 50.50 C 121.43 55.45 122.20 62.42 122.52 66.00 C 123.21 73.73 132.82 103.90 137.28 112.33 C 140.29 118.01 148.79 126.73 154.00 129.48 C 155.38 130.20 160.33 131.60 165.00 132.57 C 169.68 133.55 173.64 134.45 173.82 134.58 C 174.10 134.78 171.96 143.03 171.42 143.81 C 171.30 143.99 164.75 144.53 156.85 145.03 C 140.64 146.04 136.34 147.00 132.10 150.57 C 124.84 156.67 123.97 176.17 129.87 200.31 C 131.59 207.36 133.00 215.76 133.00 218.98 C 133.00 226.07 133.65 228.00 136.03 228.00 C 137.39 228.00 138.73 225.71 141.42 218.75 Z  M 109.31 223.46 C 108.95 219.77 102.06 171.51 100.96 165.00 C 99.00 153.35 94.71 146.11 88.11 143.30 C 84.72 141.86 84.72 141.86 89.11 137.38 C 93.50 132.90 93.50 132.90 94.04 136.74 C 94.34 138.85 95.65 142.36 96.96 144.54 C 100.92 151.14 108.19 161.42 109.83 162.75 C 112.23 164.69 114.71 164.23 115.28 161.75 C 115.56 160.51 117.13 155.68 118.77 151.00 C 121.46 143.35 121.68 141.78 121.03 135.31 C 120.63 131.35 119.55 126.97 118.63 125.56 C 116.94 122.97 108.32 118.00 105.53 118.00 C 102.97 118.00 103.75 115.98 109.96 106.55 C 117.56 95.00 119.17 91.03 119.13 83.90 C 119.10 76.46 115.97 69.10 110.88 64.51 C 107.39 61.36 106.41 61.00 101.25 61.00 C 97.73 61.00 92.48 62.01 87.69 63.60 C 83.39 65.04 79.64 65.97 79.36 65.69 C 79.08 65.41 82.42 60.69 86.79 55.20 C 94.57 45.43 96.88 40.46 95.41 36.63 C 94.68 34.71 90.71 34.56 86.78 36.30 C 83.54 37.73 61.59 54.39 58.01 58.13 C 56.63 59.57 54.61 62.44 53.52 64.51 C 51.54 68.27 51.54 68.27 55.35 71.56 C 59.83 75.43 60.90 74.35 43.50 83.50 C 22.65 94.47 13.99 101.88 14.01 108.75 C 14.02 113.74 17.95 121.94 21.93 125.29 C 27.00 129.55 31.39 129.03 43.96 122.64 C 60.51 114.24 63.49 114.12 59.47 122.06 C 54.46 131.95 46.15 158.47 45.82 165.65 C 45.51 172.18 45.59 172.44 48.15 173.36 C 50.55 174.23 51.55 173.68 58.58 167.66 C 62.85 164.00 66.67 161.00 67.06 161.00 C 67.46 161.00 68.09 162.67 68.47 164.70 C 69.51 170.21 72.38 175.34 80.98 187.00 C 91.33 201.05 98.13 211.34 101.48 218.00 C 103.00 221.03 104.70 224.08 105.28 224.79 C 106.79 226.67 109.53 225.76 109.31 223.46 Z  M 182.02 109.18 C 179.55 108.25 175.43 105.47 172.86 103.00 C 167.51 97.85 165.94 93.58 161.08 71.00 C 159.48 63.58 157.89 56.60 157.55 55.50 C 156.87 53.27 158.22 56.02 161.49 63.50 C 165.94 73.66 172.29 78.67 190.00 85.98 C 195.78 88.37 201.25 90.96 202.17 91.74 C 204.63 93.84 206.35 101.95 205.06 105.35 C 203.00 110.75 191.39 112.68 182.02 109.18 Z "/>
</g>
</svg>