<?xml version="1.0" encoding="UTF-8" standalone="no"?>
<!DOCTYPE svg PUBLIC "-//W3C//DTD SVG 1.1//EN" "http://www.w3.org/Graphics/SVG/1.1/DTD/svg11.dtd" >
<svg xmlns="http://www.w3.org/2000/svg" xmlns:xlink="http://www.w3.org/1999/xlink" version="1.1" viewBox="0 0 256 256">
 <g >
 <path fill="currentColor"
d=" M 150.20 225.47 C 151.47 222.66 149.85 215.80 145.71 206.58 C 144.13 203.07 143.85 201.55 144.71 201.26 C 150.33 199.39 180.68 179.20 190.28 170.95 C 195.97 166.06 202.00 157.44 202.00 154.21 C 202.00 141.87 184.96 138.22 135.43 139.93 C 113.87 140.68 107.38 141.23 103.01 142.68 C 95.82 145.07 93.00 149.05 93.00 156.77 C 93.00 161.76 93.33 162.56 96.79 166.03 C 102.78 172.01 109.06 173.39 127.62 172.76 C 135.96 172.48 143.35 172.60 144.03 173.02 C 146.30 174.42 144.18 178.40 137.74 184.77 C 131.41 191.04 131.41 191.04 125.95 186.95 C 114.48 178.34 102.68 173.11 97.61 174.38 C 94.95 175.05 92.00 179.47 92.00 182.78 C 92.00 183.96 96.26 188.13 103.50 194.04 C 109.83 199.21 115.00 203.67 114.99 203.97 C 114.99 204.26 113.30 205.47 111.24 206.65 C 105.75 209.81 95.55 219.01 95.18 221.15 C 94.63 224.36 99.43 223.35 112.46 217.50 C 119.19 214.47 125.20 212.00 125.79 212.00 C 126.39 212.00 130.17 214.61 134.19 217.80 C 143.41 225.13 147.29 227.93 148.27 227.97 C 148.70 227.99 149.56 226.86 150.20 225.47 Z  M 65.08 178.25 C 67.98 174.54 73.76 167.74 77.93 163.15 C 82.09 158.56 90.23 148.88 96.02 141.65 C 106.54 128.50 106.54 128.50 139.02 129.00 C 156.88 129.28 181.85 129.50 194.50 129.50 C 216.30 129.50 217.80 129.38 223.31 127.16 C 230.71 124.17 237.00 118.35 237.00 114.50 C 237.00 110.27 230.62 104.88 218.75 99.05 C 201.34 90.51 182.73 86.32 157.66 85.30 C 147.69 84.89 142.67 84.30 142.37 83.51 C 142.12 82.86 144.25 78.91 147.10 74.73 C 152.29 67.13 152.29 67.13 151.31 57.23 C 150.27 46.73 148.79 43.52 140.73 34.35 C 133.46 26.07 122.16 24.54 115.55 30.95 C 113.69 32.75 104.83 46.55 95.86 61.61 C 79.55 89.00 79.55 89.00 73.90 89.00 C 70.79 89.00 66.84 89.28 65.13 89.62 C 60.70 90.51 61.02 88.33 66.34 81.26 C 82.83 59.34 86.76 49.00 78.59 49.00 C 70.06 49.00 40.45 75.05 27.97 93.54 C 19.26 106.45 17.98 114.35 23.43 121.50 C 26.89 126.04 30.68 127.02 47.34 127.71 C 61.18 128.29 61.18 128.29 60.73 130.89 C 60.47 132.33 58.41 140.47 56.14 149.00 C 52.89 161.19 52.01 166.26 52.00 172.75 C 52.00 179.67 52.32 181.32 54.00 183.00 C 57.36 186.36 59.45 185.47 65.08 178.25 Z  M 210.17 87.35 C 212.63 85.12 212.47 82.48 209.60 77.59 C 204.30 68.56 172.19 46.53 169.80 50.29 C 169.38 50.95 169.02 53.16 169.02 55.20 C 169.00 59.53 173.98 66.03 186.12 77.54 C 197.11 87.94 205.66 91.43 210.17 87.35 Z "/>
</g>
</svg>