<?xml version="1.0" encoding="UTF-8" standalone="no"?>
<!DOCTYPE svg PUBLIC "-//W3C//DTD SVG 1.1//EN" "http://www.w3.org/Graphics/SVG/1.1/DTD/svg11.dtd" >
<svg xmlns="http://www.w3.org/2000/svg" xmlns:xlink="http://www.w3.org/1999/xlink" version="1.1" viewBox="0 0 256 256">
 <g >
 <path fill="currentColor"
d=" M 152.93 222.43 C 157.55 221.06 159.94 219.18 171.65 207.75 C 189.65 190.17 196.24 182.05 196.39 177.30 C 196.49 173.96 196.22 173.59 193.00 172.72 C 188.00 171.36 161.67 172.55 154.65 174.44 C 144.76 177.12 137.79 180.36 135.62 183.29 C 133.77 185.78 133.55 187.52 133.53 199.79 C 133.51 211.15 133.81 214.07 135.30 216.80 C 139.41 224.33 142.84 225.42 152.93 222.43 Z  M 105.59 217.00 C 111.37 214.07 122.65 204.31 121.54 203.20 C 121.23 202.90 116.37 203.16 110.74 203.79 C 105.11 204.43 97.01 205.25 92.75 205.61 C 85.13 206.26 85.00 206.32 85.00 209.01 C 85.00 212.76 92.79 220.00 96.82 220.00 C 98.39 220.00 102.34 218.65 105.59 217.00 Z  M 112.18 196.70 C 121.78 192.00 124.99 185.30 132.96 153.29 C 138.30 131.87 138.12 125.68 131.86 116.47 C 129.53 113.04 124.87 110.64 110.50 105.45 C 107.75 104.46 105.33 103.52 105.12 103.36 C 104.91 103.20 107.95 97.91 111.89 91.61 C 121.80 75.73 124.40 69.78 124.45 62.83 C 124.56 50.11 114.40 46.07 95.95 51.48 C 91.30 52.84 87.12 53.97 86.66 53.98 C 86.20 53.99 86.94 52.01 88.30 49.57 C 90.20 46.19 90.62 44.37 90.10 41.82 C 89.50 38.86 89.03 38.47 85.71 38.19 C 83.11 37.97 80.42 38.72 76.75 40.69 C 67.18 45.81 23.40 90.61 13.27 105.65 C 9.25 111.60 7.00 116.82 7.00 120.15 C 7.00 123.34 12.42 122.51 16.75 118.67 C 18.81 116.83 26.97 110.25 34.89 104.04 C 46.98 94.54 49.42 93.00 50.19 94.37 C 50.92 95.67 52.76 96.00 59.36 96.00 C 69.50 96.00 71.23 96.98 70.36 102.26 C 69.65 106.54 70.84 106.06 53.50 109.08 C 40.53 111.34 33.59 114.14 28.16 119.32 C 20.95 126.20 20.32 131.41 25.48 141.62 C 29.95 150.45 35.66 157.97 47.63 170.80 C 68.00 192.64 81.71 200.28 99.50 199.71 C 104.81 199.54 107.87 198.81 112.18 196.70 Z  M 192.52 165.63 C 216.30 161.31 225.00 156.71 225.00 148.44 C 225.00 142.74 221.91 141.29 207.97 140.46 C 201.39 140.06 196.00 139.54 196.00 139.30 C 196.00 139.06 197.38 136.86 199.06 134.42 C 200.74 131.98 202.58 128.63 203.15 126.99 C 204.20 124.00 204.20 124.00 214.35 123.99 C 232.84 123.98 241.87 121.33 245.41 114.86 C 249.42 107.53 245.12 102.34 226.07 91.50 C 213.88 84.57 208.00 79.57 208.00 76.16 C 208.00 71.18 197.90 60.48 177.50 43.85 C 161.94 31.16 158.31 29.66 155.73 34.83 C 154.42 37.47 154.69 38.76 159.65 53.58 C 162.58 62.34 164.98 70.23 164.99 71.12 C 165.00 72.50 163.29 72.82 153.75 73.20 C 141.12 73.70 134.44 75.87 131.45 80.43 C 127.50 86.46 132.34 110.13 138.94 117.05 C 143.58 121.91 147.82 122.98 162.50 123.01 C 169.10 123.02 175.00 123.36 175.60 123.77 C 177.85 125.27 179.00 129.04 179.00 134.93 C 179.00 138.27 178.89 141.03 178.75 141.06 C 178.61 141.10 172.64 141.93 165.48 142.91 C 151.47 144.82 145.48 146.94 144.39 150.35 C 142.30 156.89 144.70 165.05 149.31 167.07 C 152.38 168.41 182.75 167.40 192.52 165.63 Z  M 151.67 210.33 C 148.79 207.46 155.68 199.00 160.90 199.00 C 163.46 199.00 164.00 199.40 164.00 201.28 C 164.00 204.30 161.54 207.67 157.99 209.51 C 154.88 211.11 152.73 211.40 151.67 210.33 Z  M 81.22 184.33 C 77.05 182.85 72.18 178.06 67.80 171.15 C 65.91 168.17 65.91 168.17 71.49 169.62 C 74.55 170.42 77.49 170.82 78.00 170.50 C 78.52 170.18 79.57 171.43 80.34 173.28 C 81.12 175.13 82.93 178.51 84.37 180.80 C 88.14 186.76 88.13 186.77 81.22 184.33 Z  M 92.58 184.74 C 91.77 181.87 90.00 172.74 90.00 171.42 C 90.00 170.64 90.84 170.00 91.87 170.00 C 92.91 170.00 95.66 169.33 98.00 168.50 C 102.25 167.00 102.25 167.00 101.59 170.25 C 101.22 172.04 100.65 175.40 100.33 177.73 C 99.84 181.18 99.11 182.33 96.33 183.97 C 93.88 185.41 92.83 185.63 92.58 184.74 Z  M 60.18 158.61 C 58.11 152.89 58.61 151.53 63.89 148.66 C 66.57 147.20 70.28 146.01 72.14 146.03 C 74.98 146.06 75.22 146.22 73.69 147.12 C 72.16 148.00 71.97 149.03 72.45 153.59 C 73.03 159.00 73.03 159.00 69.24 159.00 C 67.15 159.00 64.52 159.64 63.40 160.43 C 61.50 161.77 61.27 161.64 60.18 158.61 Z  M 96.50 160.00 C 94.34 158.90 91.81 158.00 90.86 158.00 C 89.75 158.00 88.25 156.05 86.62 152.49 C 85.23 149.46 83.40 146.71 82.55 146.38 C 81.70 146.05 81.00 145.45 81.00 145.03 C 81.00 144.24 95.21 146.29 98.33 147.54 C 99.33 147.94 100.57 149.37 101.08 150.70 C 102.20 153.67 102.30 162.00 101.21 162.00 C 100.78 162.00 98.66 161.10 96.50 160.00 Z "/>
</g>
</svg>