<?xml version="1.0" encoding="UTF-8" standalone="no"?>
<!DOCTYPE svg PUBLIC "-//W3C//DTD SVG 1.1//EN" "http://www.w3.org/Graphics/SVG/1.1/DTD/svg11.dtd" >
<svg xmlns="http://www.w3.org/2000/svg" xmlns:xlink="http://www.w3.org/1999/xlink" version="1.1" viewBox="0 0 256 256">
 <g >
 <path fill="currentColor"
d=" M 184.43 230.43 C 186.92 227.93 187.31 224.46 185.67 219.30 C 184.83 216.66 183.83 212.93 183.45 211.00 C 182.51 206.24 179.37 200.26 177.25 199.16 C 176.29 198.67 171.00 197.03 165.50 195.52 C 160.00 194.02 153.81 192.31 151.74 191.73 C 146.37 190.23 145.35 188.65 147.55 185.26 C 151.07 179.84 160.22 168.85 161.67 168.30 C 164.46 167.22 196.36 170.89 202.43 172.98 C 205.67 174.09 209.61 175.00 211.19 175.00 C 212.77 175.00 215.07 175.62 216.29 176.37 C 220.04 178.70 228.67 181.34 230.38 180.69 C 232.50 179.87 232.59 171.05 230.53 167.06 C 229.72 165.49 228.76 162.33 228.39 160.03 C 227.52 154.57 225.93 154.01 211.18 153.95 C 182.59 153.84 171.16 152.14 159.36 146.26 C 154.23 143.70 154.23 143.70 150.75 145.85 C 148.48 147.25 145.63 148.00 142.57 148.00 C 137.88 148.00 137.88 148.00 138.19 144.27 C 138.49 140.63 138.64 140.50 144.00 139.23 C 147.03 138.51 155.24 137.65 162.25 137.32 C 175.00 136.71 175.00 136.71 175.00 133.82 C 175.00 130.03 170.74 121.73 167.48 119.16 C 165.12 117.31 164.55 117.25 161.10 118.46 C 159.02 119.20 153.89 120.12 149.71 120.51 C 142.15 121.22 142.09 121.21 141.46 118.69 C 140.61 115.32 141.17 112.88 143.00 111.95 C 145.02 110.91 156.44 107.14 162.00 105.68 C 166.19 104.58 166.52 104.25 166.80 100.87 C 167.03 98.20 166.48 96.51 164.77 94.52 C 162.76 92.18 161.69 91.81 157.09 91.85 C 154.15 91.87 149.33 92.19 146.37 92.56 C 140.94 93.24 140.34 92.87 141.59 89.62 C 141.92 88.77 146.98 86.21 152.84 83.93 C 158.70 81.65 164.29 79.09 165.25 78.24 C 167.62 76.14 167.45 71.85 164.87 68.57 C 162.97 66.14 162.18 65.89 157.12 66.09 C 149.84 66.37 150.04 65.28 158.70 57.50 C 162.37 54.20 169.21 47.82 173.90 43.33 C 181.91 35.65 182.35 35.02 181.17 32.83 C 179.31 29.38 170.17 23.00 167.08 23.00 C 164.05 23.00 158.71 28.12 152.47 37.00 C 150.35 40.02 147.23 44.12 145.55 46.09 C 143.87 48.06 138.97 54.26 134.66 59.85 C 130.34 65.45 126.03 70.45 125.07 70.96 C 124.11 71.48 118.74 72.83 113.14 73.97 C 100.22 76.60 87.84 80.50 84.94 82.84 C 82.70 84.66 82.70 84.66 86.05 90.94 C 87.89 94.39 90.06 97.47 90.87 97.78 C 91.68 98.09 94.49 97.59 97.11 96.66 C 105.41 93.71 110.89 93.03 112.60 94.74 C 113.43 95.57 113.97 97.13 113.80 98.20 C 113.47 100.38 108.63 102.38 89.50 108.31 C 85.93 109.41 85.52 109.86 85.72 112.49 C 85.84 114.11 86.79 116.58 87.84 117.97 C 89.95 120.78 91.76 120.91 106.24 119.31 C 110.50 118.83 114.88 118.78 115.99 119.19 C 120.77 120.96 116.41 128.01 109.36 129.90 C 107.24 130.47 101.08 131.59 95.68 132.40 C 85.14 133.98 83.00 135.00 83.00 138.44 C 83.00 141.99 86.11 150.11 87.70 150.72 C 88.51 151.03 91.49 150.78 94.33 150.18 C 107.35 147.40 112.19 147.91 110.08 151.85 C 108.45 154.90 106.27 155.79 94.80 158.09 C 89.14 159.22 79.62 162.15 73.64 164.60 C 63.09 168.93 51.86 172.36 37.50 175.64 C 22.58 179.05 22.49 179.10 22.60 183.05 C 22.73 188.13 25.06 192.44 27.89 192.84 C 29.20 193.02 32.34 192.05 34.88 190.68 C 39.97 187.94 58.19 182.00 61.53 182.00 C 62.69 182.00 66.98 181.07 71.07 179.93 C 79.42 177.60 93.00 175.99 93.00 177.32 C 93.00 179.29 89.59 183.74 86.41 185.92 C 79.93 190.36 82.76 194.00 92.68 194.00 C 98.51 194.01 111.07 197.61 111.94 199.53 C 113.00 201.85 99.61 208.18 89.65 210.07 C 81.36 211.64 72.01 211.19 66.10 208.95 C 63.07 207.80 60.33 207.27 59.84 207.76 C 58.76 208.84 64.15 217.11 68.11 220.44 C 71.13 222.98 88.16 229.00 92.32 229.00 C 93.59 229.00 95.95 227.62 97.56 225.93 C 100.84 222.52 111.64 216.28 119.92 213.02 C 122.90 211.85 126.57 210.02 128.07 208.95 C 129.58 207.88 131.75 207.00 132.89 207.00 C 135.88 207.00 151.69 213.62 157.00 217.10 C 163.42 221.30 181.37 231.89 182.18 231.95 C 182.55 231.98 183.56 231.29 184.43 230.43 Z  M 104.36 69.06 C 108.13 63.82 113.35 59.34 124.25 52.00 C 130.23 47.98 130.94 47.15 130.97 44.18 C 131.00 40.86 131.00 40.86 122.75 41.56 C 110.28 42.60 91.35 49.01 86.25 53.92 C 82.91 57.12 83.39 60.18 87.78 63.71 C 89.87 65.38 92.68 68.38 94.03 70.37 C 97.51 75.46 99.99 75.15 104.36 69.06 Z  M 122.50 182.02 C 121.40 181.54 119.32 181.11 117.87 181.07 C 116.43 181.03 114.70 180.34 114.03 179.54 C 113.04 178.35 113.33 177.60 115.58 175.52 C 119.43 171.95 135.12 167.76 136.47 169.94 C 136.81 170.50 135.37 173.55 133.27 176.73 C 129.32 182.71 126.84 183.93 122.50 182.02 Z "/>
</g>
</svg>