<?xml version="1.0" encoding="UTF-8" standalone="no"?>
<!DOCTYPE svg PUBLIC "-//W3C//DTD SVG 1.1//EN" "http://www.w3.org/Graphics/SVG/1.1/DTD/svg11.dtd" >
<svg xmlns="http://www.w3.org/2000/svg" xmlns:xlink="http://www.w3.org/1999/xlink" version="1.1" viewBox="0 0 256 256">
 <g >
 <path fill="currentColor"
d=" M 60.31 223.57 C 67.88 222.12 73.87 219.56 84.13 213.39 C 90.06 209.82 91.00 208.30 92.74 199.50 C 93.29 196.75 95.86 189.10 98.47 182.50 C 101.07 175.90 103.64 168.29 104.18 165.59 C 104.98 161.54 106.09 159.80 110.57 155.56 C 117.00 149.48 117.63 146.43 112.99 143.80 C 110.40 142.32 110.00 141.52 109.99 137.80 C 109.98 135.43 109.71 131.90 109.39 129.95 C 108.89 126.95 109.35 125.70 112.38 121.73 C 114.35 119.15 115.72 116.42 115.42 115.66 C 115.13 114.91 113.12 113.75 110.95 113.10 C 105.20 111.38 105.86 109.29 112.40 108.47 C 119.95 107.53 122.93 109.14 125.33 115.50 C 127.11 120.23 127.15 121.72 126.00 143.35 C 124.26 176.06 125.38 187.71 131.95 205.12 C 136.18 216.34 138.40 219.00 143.52 219.00 C 145.34 219.00 150.35 219.69 154.66 220.54 C 167.45 223.06 181.85 223.39 199.00 221.56 C 207.53 220.65 218.55 219.52 223.50 219.04 C 235.67 217.86 236.29 217.56 235.73 213.11 C 235.07 207.81 229.28 186.58 226.29 178.50 C 222.88 169.29 215.60 154.74 213.55 153.04 C 210.34 150.37 209.59 153.24 209.46 168.76 C 209.30 187.96 208.00 191.44 199.45 195.48 C 191.86 199.07 182.40 200.30 166.41 199.78 C 155.05 199.41 152.83 199.06 149.69 197.12 C 144.71 194.04 139.84 187.60 139.00 182.98 C 137.87 176.81 139.18 166.58 141.15 166.21 C 143.70 165.72 161.62 172.76 170.22 177.63 C 174.46 180.03 178.60 182.00 179.41 182.00 C 180.23 182.00 182.08 180.45 183.53 178.55 C 185.93 175.41 186.10 174.60 185.45 169.30 C 184.75 163.58 181.79 156.20 179.62 154.77 C 179.00 154.36 176.25 154.02 173.50 154.00 C 170.75 153.99 166.03 153.31 163.00 152.50 C 159.97 151.69 153.84 151.02 149.37 151.01 C 139.88 151.00 138.49 150.03 138.86 143.71 C 139.18 138.28 140.09 137.37 147.37 135.09 C 150.74 134.04 157.30 131.77 161.95 130.04 C 166.60 128.31 173.80 125.99 177.95 124.88 C 185.54 122.85 189.00 120.81 189.00 118.38 C 189.00 116.23 185.80 109.82 182.18 104.72 C 178.11 98.99 176.71 99.08 170.00 105.55 C 167.53 107.94 161.90 111.85 157.50 114.26 C 141.98 122.73 139.69 122.79 142.71 114.65 C 144.45 109.94 144.45 109.94 141.48 107.56 C 139.84 106.25 138.79 104.89 139.14 104.53 C 139.49 104.18 143.89 103.62 148.91 103.29 C 158.03 102.70 158.03 102.70 161.57 97.10 C 163.52 94.02 168.01 85.58 171.56 78.34 C 175.11 71.11 179.82 62.78 182.04 59.84 C 189.33 50.17 188.91 47.96 178.60 41.77 C 160.08 30.65 152.32 29.83 122.47 35.83 C 111.49 38.04 95.76 40.58 87.52 41.48 C 67.14 43.70 67.57 43.43 67.21 54.15 C 66.71 69.31 68.56 75.29 81.52 100.25 C 86.06 109.00 86.06 109.00 90.48 109.00 C 95.97 109.00 96.94 110.47 95.88 117.19 C 94.88 123.52 92.48 127.42 90.18 126.46 C 89.25 126.07 86.33 124.94 83.67 123.93 C 78.58 122.02 72.00 117.53 72.00 115.98 C 72.00 115.48 71.08 114.58 69.96 113.98 C 68.22 113.05 67.39 113.41 64.36 116.44 C 60.81 119.99 60.81 119.99 61.52 130.75 C 61.91 136.66 62.70 142.08 63.27 142.79 C 64.07 143.79 67.10 143.92 76.53 143.40 C 89.66 142.67 93.45 143.12 94.36 145.49 C 95.40 148.20 93.82 150.11 88.62 152.41 C 85.80 153.65 76.08 158.74 67.00 163.72 C 57.92 168.70 47.46 174.21 43.75 175.96 C 38.33 178.52 37.00 179.59 37.00 181.42 C 37.00 183.74 44.33 195.99 45.73 196.01 C 46.15 196.02 47.46 196.28 48.63 196.60 C 50.29 197.04 52.10 195.83 56.76 191.16 C 60.71 187.20 65.45 183.79 70.63 181.17 C 74.96 178.99 79.59 176.03 80.92 174.60 C 82.26 173.17 83.86 172.00 84.47 172.00 C 86.30 172.00 88.03 174.25 87.11 175.43 C 86.64 176.02 85.46 178.95 84.49 181.95 C 82.09 189.28 74.64 196.55 55.75 210.00 C 47.64 215.78 41.00 221.08 41.00 221.78 C 41.00 225.01 48.93 225.74 60.31 223.57 Z  M 95.57 92.32 C 94.33 89.08 98.46 86.93 114.60 82.40 C 126.96 78.94 131.00 77.38 132.75 75.42 C 135.41 72.43 135.71 67.27 133.47 62.95 C 131.76 59.63 128.71 59.10 124.20 61.34 C 122.72 62.08 115.52 63.73 108.22 65.01 C 93.94 67.51 92.22 67.24 93.36 62.72 C 93.99 60.20 101.02 56.42 109.50 54.06 C 116.01 52.24 137.76 48.00 140.55 48.00 C 150.09 48.00 152.81 60.72 146.57 76.13 C 142.44 86.32 141.72 86.75 123.87 89.48 C 115.42 90.77 107.23 92.31 105.68 92.91 C 101.36 94.58 96.32 94.29 95.57 92.32 Z "/>
</g>
</svg>