<?xml version="1.0" encoding="UTF-8" standalone="no"?>
<!DOCTYPE svg PUBLIC "-//W3C//DTD SVG 1.1//EN" "http://www.w3.org/Graphics/SVG/1.1/DTD/svg11.dtd" >
<svg xmlns="http://www.w3.org/2000/svg" xmlns:xlink="http://www.w3.org/1999/xlink" version="1.1" viewBox="0 0 256 256">
 <g >
 <path fill="currentColor"
d=" M 127.00 232.04 C 129.46 230.31 129.50 230.05 129.77 214.78 C 130.02 201.19 130.28 199.06 131.89 197.60 C 134.09 195.61 169.24 188.60 182.09 187.59 C 191.94 186.82 204.76 189.15 214.58 193.49 C 217.70 194.87 220.36 196.00 220.50 196.00 C 221.28 196.00 222.91 189.75 223.41 184.89 C 223.92 179.92 223.61 178.55 220.74 172.89 C 217.50 166.50 217.50 166.50 211.50 166.69 C 183.50 167.55 180.13 167.43 177.94 165.45 C 176.21 163.88 175.90 162.75 176.34 159.52 C 177.04 154.31 179.05 152.82 188.43 150.61 C 195.62 148.92 196.30 148.54 197.60 145.42 C 198.37 143.58 199.00 140.27 199.00 138.07 C 199.00 132.50 196.97 131.60 186.44 132.48 C 178.40 133.15 178.11 133.09 176.55 130.72 C 175.34 128.86 175.18 127.64 175.93 125.69 C 176.98 122.93 180.39 121.59 189.25 120.48 C 194.24 119.85 199.41 116.42 200.49 113.03 C 201.35 110.32 198.47 104.11 195.91 103.16 C 194.71 102.72 191.66 102.70 189.12 103.12 C 182.02 104.29 178.56 104.14 176.44 102.56 C 174.54 101.14 174.56 101.05 177.08 98.50 C 179.10 96.46 180.94 95.78 185.58 95.36 C 193.39 94.67 196.97 93.22 198.08 90.28 C 199.24 87.23 199.24 80.93 198.09 79.11 C 197.10 77.55 190.01 76.15 182.64 76.06 C 177.89 76.00 177.80 75.94 178.45 73.34 C 178.82 71.87 181.57 67.72 184.56 64.12 C 187.55 60.51 190.00 56.84 190.00 55.96 C 190.00 53.93 173.25 43.82 170.54 44.21 C 168.14 44.56 167.55 45.71 160.41 63.97 C 157.30 71.93 154.10 79.45 153.29 80.69 C 151.20 83.87 139.81 90.00 135.98 90.00 C 133.00 90.00 132.83 89.81 133.44 87.25 C 134.27 83.78 145.95 59.02 151.60 48.75 C 156.62 39.62 157.34 37.64 156.53 35.11 C 155.78 32.74 151.12 30.74 147.36 31.17 C 144.70 31.48 143.55 33.36 131.00 58.03 C 111.24 96.86 105.60 107.00 103.74 107.00 C 103.05 107.00 102.93 103.73 103.38 97.25 C 104.38 82.69 105.92 76.46 109.56 72.18 C 114.22 66.70 115.15 64.53 114.06 61.66 C 113.14 59.25 110.00 57.69 98.59 54.00 C 92.67 52.09 81.76 53.30 70.87 57.08 C 65.72 58.87 58.35 61.05 54.50 61.93 C 48.12 63.39 47.35 63.84 45.83 67.02 C 44.83 69.09 43.72 75.44 43.08 82.67 C 41.52 100.25 41.76 144.22 43.48 157.00 C 45.10 169.09 45.94 167.01 34.25 179.89 C 23.71 191.51 23.61 192.60 32.55 199.50 C 36.12 202.25 39.79 204.50 40.73 204.50 C 41.66 204.50 43.76 202.47 45.40 200.00 C 50.85 191.75 61.99 177.00 62.75 177.01 C 63.16 177.02 65.92 181.26 68.88 186.42 C 73.26 194.07 75.60 196.91 81.38 201.64 C 85.30 204.84 90.58 209.39 93.12 211.75 C 98.11 216.37 100.39 216.55 101.44 212.40 C 101.78 211.05 102.06 191.57 102.07 169.12 C 102.09 128.93 102.12 128.24 104.29 124.29 C 105.51 122.08 107.79 118.76 109.36 116.93 C 111.96 113.89 112.33 113.74 113.47 115.29 C 115.35 117.86 115.97 130.92 116.07 170.50 C 116.17 206.26 116.15 206.57 113.53 216.89 C 110.21 229.98 110.39 233.28 114.50 234.07 C 118.85 234.92 124.13 234.06 127.00 232.04 Z  M 73.50 180.35 C 69.50 178.22 66.00 174.96 66.00 173.34 C 66.00 171.42 78.92 155.00 80.44 155.00 C 81.37 155.00 81.88 157.74 82.28 164.75 C 82.72 172.61 82.50 175.18 81.16 178.00 C 79.23 182.07 77.64 182.55 73.50 180.35 Z  M 131.25 178.34 C 129.54 177.65 129.54 164.62 131.25 163.21 C 132.74 161.97 153.06 157.92 154.21 158.63 C 154.64 158.90 155.00 161.28 155.00 163.92 C 155.00 171.04 152.64 173.43 142.64 176.49 C 134.16 179.07 133.38 179.20 131.25 178.34 Z  M 57.45 150.48 C 56.51 144.21 57.78 141.90 64.81 137.13 C 68.16 134.86 71.01 132.10 71.36 130.80 C 73.31 123.50 70.64 118.00 65.13 118.00 C 62.52 118.00 62.21 117.63 61.70 113.80 C 61.39 111.48 61.32 109.29 61.54 108.93 C 61.77 108.57 64.66 107.74 67.97 107.09 C 74.87 105.73 76.00 104.39 76.00 97.57 C 76.00 91.64 73.54 89.00 68.04 89.00 C 63.95 89.00 61.48 86.71 62.45 83.82 C 62.70 83.10 63.39 80.59 63.99 78.25 C 64.94 74.54 65.73 73.66 70.12 71.44 C 72.90 70.03 76.14 69.02 77.33 69.19 C 79.44 69.49 79.53 70.09 80.57 91.00 C 81.15 102.83 81.42 117.59 81.17 123.81 C 80.72 135.12 80.72 135.12 70.31 144.81 C 64.58 150.14 59.50 154.64 59.02 154.81 C 58.54 154.98 57.83 153.03 57.45 150.48 Z  M 130.27 140.96 C 130.96 133.31 131.67 132.65 141.58 130.45 C 151.76 128.19 152.44 128.44 152.80 134.60 C 152.99 137.88 152.64 140.04 151.80 140.69 C 151.08 141.25 146.64 142.66 141.92 143.82 C 137.20 144.98 132.52 146.25 131.51 146.63 C 129.83 147.28 129.74 146.83 130.27 140.96 Z  M 128.46 115.94 C 128.10 115.35 128.09 113.33 128.44 111.45 C 129.06 108.17 129.40 107.94 137.29 105.54 C 151.46 101.23 151.43 101.23 152.79 105.66 C 153.82 109.01 153.73 109.71 152.10 111.34 C 148.40 115.05 130.11 118.60 128.46 115.94 Z "/>
</g>
</svg>