<?xml version="1.0" encoding="UTF-8" standalone="no"?>
<!DOCTYPE svg PUBLIC "-//W3C//DTD SVG 1.1//EN" "http://www.w3.org/Graphics/SVG/1.1/DTD/svg11.dtd" >
<svg xmlns="http://www.w3.org/2000/svg" xmlns:xlink="http://www.w3.org/1999/xlink" version="1.1" viewBox="0 0 256 256">
 <g >
 <path fill="currentColor"
d=" M 60.16 225.57 C 75.29 218.89 79.51 216.01 81.05 211.34 C 82.54 206.79 86.57 199.14 92.56 189.48 C 94.96 185.62 97.90 180.00 99.11 176.98 C 100.32 173.97 103.28 168.88 105.70 165.69 C 108.62 161.83 109.90 159.26 109.51 158.05 C 108.86 155.98 100.41 152.00 96.69 152.00 C 95.35 152.00 92.84 151.72 91.13 151.38 C 88.37 150.82 88.00 150.36 88.00 147.38 C 88.00 141.37 92.97 138.55 105.50 137.44 C 110.47 137.00 117.00 135.63 124.78 133.40 C 127.14 132.73 120.89 122.61 116.72 120.36 C 114.44 119.13 110.73 120.08 102.06 124.12 C 99.62 125.26 96.20 126.42 94.46 126.70 C 91.79 127.13 91.20 126.86 90.70 124.95 C 89.78 121.44 92.53 117.36 99.26 112.21 C 108.48 105.18 110.00 103.46 110.00 100.08 C 110.00 95.75 107.69 94.87 99.59 96.13 C 91.69 97.36 90.00 96.91 90.00 93.60 C 90.00 90.92 93.78 87.46 104.69 80.15 C 112.83 74.70 114.34 72.57 112.55 69.10 C 109.66 63.50 107.86 62.73 100.85 64.07 C 97.36 64.74 93.78 65.65 92.90 66.10 C 89.69 67.73 89.00 65.02 89.00 50.75 C 89.00 40.51 89.38 36.16 90.47 34.05 C 91.78 31.52 91.77 31.06 90.41 29.93 C 89.57 29.23 86.47 28.46 83.54 28.21 C 79.07 27.84 78.03 28.07 77.19 29.64 C 75.33 33.13 73.83 43.45 73.09 57.88 C 72.45 70.37 72.10 72.45 70.45 73.66 C 68.37 75.18 50.29 81.00 47.64 81.00 C 43.78 81.00 47.78 93.50 52.66 96.70 C 54.90 98.17 55.52 98.15 60.49 96.46 C 64.86 94.97 66.37 94.85 68.44 95.79 C 71.24 97.06 71.59 99.01 69.90 103.85 C 68.89 106.77 68.03 107.24 58.24 110.29 C 52.42 112.10 47.21 114.30 46.66 115.18 C 45.90 116.38 46.39 118.28 48.57 122.64 C 51.30 128.10 51.76 128.52 55.33 128.81 C 57.43 128.99 61.10 128.71 63.49 128.20 C 68.94 127.04 70.23 127.83 69.82 132.08 C 69.56 134.82 68.75 135.87 65.50 137.71 C 58.52 141.64 37.14 151.00 26.64 154.73 C 21.06 156.70 15.94 158.75 15.25 159.28 C 12.77 161.19 13.83 165.64 17.53 168.90 C 19.48 170.60 21.28 172.00 21.53 172.00 C 21.79 172.00 24.75 169.97 28.11 167.50 C 31.47 165.03 35.22 163.00 36.44 163.00 C 37.66 163.00 40.87 161.84 43.58 160.43 C 47.84 158.20 60.04 154.00 62.25 154.00 C 63.83 154.00 62.89 157.28 60.30 160.82 C 58.82 162.84 53.67 168.57 48.87 173.54 C 40.48 182.23 38.39 185.72 39.20 189.67 C 39.75 192.40 48.33 191.65 53.23 188.44 C 55.28 187.10 57.25 186.00 57.61 186.00 C 57.96 186.00 59.92 187.46 61.94 189.25 C 63.97 191.04 66.87 193.40 68.40 194.50 C 70.84 196.26 71.04 196.82 70.13 199.19 C 68.84 202.54 56.59 211.36 44.50 217.62 C 33.37 223.39 30.00 225.72 30.00 227.60 C 30.00 229.99 34.03 231.02 42.00 230.64 C 48.32 230.34 51.17 229.55 60.16 225.57 Z  M 105.00 221.39 C 114.60 216.91 119.24 213.83 125.75 207.59 C 129.93 203.59 131.00 201.92 131.00 199.39 C 131.00 195.56 141.40 179.27 145.89 176.08 C 150.74 172.63 153.47 173.33 160.34 179.82 C 163.73 183.02 168.66 187.37 171.30 189.48 C 177.58 194.51 180.64 199.92 181.99 208.39 C 183.45 217.61 184.12 218.62 189.21 219.33 C 191.57 219.66 196.88 220.61 201.00 221.44 C 215.88 224.44 234.57 226.07 240.25 224.87 C 243.14 224.26 246.29 223.35 247.25 222.85 C 251.33 220.71 248.07 216.04 238.66 210.55 C 236.37 209.22 224.38 203.79 212.00 198.49 C 183.27 186.19 179.08 183.02 167.77 165.00 C 162.69 156.90 161.62 153.22 163.52 150.33 C 166.88 145.21 179.35 139.41 192.06 137.06 C 199.80 135.63 201.48 133.81 200.49 127.94 C 199.80 123.83 195.24 116.73 192.28 115.15 C 190.94 114.43 187.50 115.45 178.53 119.20 C 163.30 125.56 160.37 126.11 159.12 122.82 C 157.99 119.85 159.14 112.96 161.32 109.64 C 162.20 108.29 165.52 105.59 168.71 103.63 C 171.89 101.67 176.66 97.59 179.29 94.56 C 184.08 89.05 184.08 89.05 183.29 81.77 C 182.58 75.21 182.27 74.47 180.19 74.17 C 178.91 73.99 174.57 75.05 170.54 76.52 C 166.51 77.99 162.41 79.03 161.43 78.84 C 158.65 78.31 157.90 73.72 157.94 57.50 C 157.97 39.59 158.53 35.21 161.64 28.13 C 164.61 21.36 164.59 20.61 161.37 18.07 C 159.52 16.62 157.27 16.00 153.89 16.00 C 146.37 16.00 145.87 17.32 144.36 40.87 C 143.67 51.66 143.08 65.70 143.05 72.06 C 143.02 79.68 142.57 84.18 141.75 85.27 C 141.02 86.23 137.22 87.59 132.66 88.52 C 122.88 90.51 120.11 91.55 119.36 93.51 C 118.79 94.99 126.43 109.43 129.83 113.31 C 130.84 114.47 132.52 115.02 134.47 114.85 C 139.31 114.44 140.00 115.44 139.95 122.81 C 139.88 133.83 139.27 134.54 126.18 138.98 C 115.46 142.61 111.00 145.06 111.00 147.30 C 111.00 147.85 112.57 150.22 114.50 152.57 C 116.42 154.91 118.00 157.31 118.00 157.88 C 118.00 159.86 122.30 161.24 126.91 160.74 C 133.06 160.07 134.00 160.57 134.00 164.57 C 134.00 169.31 131.07 176.54 126.30 183.55 C 121.39 190.78 96.20 215.46 91.40 217.75 C 87.96 219.39 86.14 222.81 87.52 225.04 C 88.69 226.92 96.75 225.23 105.00 221.39 Z  M 73.75 177.93 C 69.42 175.65 69.24 174.78 72.10 170.00 C 76.01 163.45 80.32 161.41 83.20 164.75 C 85.86 167.82 86.07 171.22 83.88 175.75 C 81.51 180.64 79.64 181.04 73.75 177.93 Z "/>
</g>
</svg>