<?xml version="1.0" encoding="UTF-8" standalone="no"?>
<!DOCTYPE svg PUBLIC "-//W3C//DTD SVG 1.1//EN" "http://www.w3.org/Graphics/SVG/1.1/DTD/svg11.dtd" >
<svg xmlns="http://www.w3.org/2000/svg" xmlns:xlink="http://www.w3.org/1999/xlink" version="1.1" viewBox="0 0 256 256">
 <g >
 <path fill="currentColor"
d=" M 110.42 243.09 C 113.16 240.06 114.55 232.64 119.03 197.00 C 123.24 163.50 123.24 163.50 127.37 160.01 C 129.64 158.09 133.86 154.32 136.75 151.62 C 139.64 148.92 142.00 146.95 142.00 147.23 C 142.00 147.52 141.32 149.39 140.48 151.39 C 139.12 154.65 139.12 155.33 140.51 158.02 C 141.37 159.67 142.95 161.58 144.03 162.25 C 145.11 162.93 146.00 163.94 146.00 164.49 C 146.00 165.05 141.50 170.30 136.00 176.16 C 126.43 186.37 124.20 190.00 127.53 190.00 C 128.37 190.00 135.22 185.88 142.75 180.83 C 150.28 175.79 156.91 171.67 157.47 171.68 C 158.04 171.68 164.94 175.36 172.81 179.84 C 187.07 187.97 189.00 188.83 189.00 187.08 C 189.00 185.64 182.35 177.20 175.29 169.67 C 171.77 165.91 169.02 162.51 169.19 162.10 C 169.36 161.70 173.14 158.17 177.59 154.27 C 188.11 145.04 190.40 142.22 193.01 135.27 C 196.94 124.83 194.06 115.88 185.06 110.61 C 181.03 108.25 170.45 108.16 164.12 110.43 C 161.72 111.29 159.41 112.00 158.99 112.00 C 158.58 112.00 157.74 110.03 157.14 107.63 C 155.46 100.97 148.06 95.87 144.10 98.65 C 140.08 101.46 137.42 108.24 127.10 142.00 C 126.01 145.57 125.09 148.19 125.06 147.81 C 125.03 147.44 126.20 136.86 127.67 124.31 C 129.33 110.10 130.36 95.85 130.42 86.50 C 130.50 72.04 130.40 71.31 127.79 66.36 C 122.81 56.91 112.60 50.05 103.50 50.04 C 97.22 50.03 94.17 51.55 91.55 56.00 C 89.74 59.10 89.51 61.12 89.55 73.50 C 89.58 81.20 89.91 88.85 90.28 90.50 C 91.12 94.29 90.02 91.88 86.95 83.21 C 84.15 75.29 80.58 71.42 74.63 69.82 C 69.39 68.42 69.80 69.27 67.00 54.17 C 62.75 31.27 58.90 23.22 50.35 19.30 C 37.26 13.31 18.62 12.92 13.03 18.52 C 10.78 20.77 10.52 21.80 10.67 27.78 C 10.80 33.30 12.10 38.06 17.89 54.44 C 21.78 65.41 24.85 74.41 24.73 74.44 C 24.60 74.47 21.80 75.85 18.50 77.50 C 10.44 81.53 8.72 84.80 9.31 95.00 C 10.16 109.44 17.22 125.57 25.00 130.80 C 28.19 132.95 29.37 133.13 38.19 132.83 C 47.88 132.50 47.88 132.50 53.29 147.23 C 58.71 161.96 58.71 161.96 52.43 165.89 C 44.97 170.57 42.85 173.48 42.24 179.89 C 41.83 184.16 42.12 185.06 44.94 188.28 C 49.23 193.16 53.68 194.58 58.47 192.58 C 60.48 191.74 63.38 190.16 64.92 189.06 C 67.72 187.07 67.72 187.07 71.29 196.78 C 73.25 202.13 75.35 208.53 75.97 211.00 C 76.58 213.47 77.79 217.16 78.66 219.19 C 80.79 224.13 79.77 227.61 75.47 230.15 C 71.44 232.53 70.87 235.87 73.97 238.97 C 76.52 241.52 80.09 242.38 85.21 241.70 C 90.12 241.04 93.26 238.19 93.33 234.33 C 93.35 232.77 91.20 218.19 88.54 201.92 C 83.71 172.35 83.71 172.35 89.35 161.82 C 96.16 149.13 96.46 147.00 91.45 147.00 C 89.50 147.00 86.56 147.69 84.93 148.53 C 81.36 150.38 81.69 151.15 79.47 136.04 C 78.22 127.51 78.08 124.47 78.95 124.18 C 81.91 123.20 88.67 117.11 90.21 114.04 C 91.30 111.87 92.08 111.16 92.37 112.07 C 92.61 112.86 95.54 142.71 98.87 178.42 C 105.35 247.86 105.47 248.56 110.42 243.09 Z  M 194.08 237.00 C 202.07 225.28 216.93 181.83 231.57 127.41 C 240.27 95.11 241.97 79.69 238.30 66.57 C 233.62 49.82 214.12 41.74 178.00 41.58 C 157.80 41.49 155.91 42.02 152.11 48.91 C 150.05 52.64 149.71 54.53 149.83 61.40 C 150.01 70.77 153.15 87.06 155.46 90.58 C 158.20 94.76 164.53 98.09 174.59 100.65 C 189.58 104.45 193.88 107.20 196.55 114.68 C 199.61 123.26 197.63 147.66 189.96 196.15 C 185.31 225.51 184.62 228.04 180.48 230.88 C 176.60 233.53 176.20 235.38 178.69 239.03 C 181.14 242.61 182.06 243.05 186.42 242.76 C 189.94 242.53 190.72 241.94 194.08 237.00 Z  M 167.76 231.26 C 169.82 230.20 172.46 227.91 173.63 226.19 C 178.60 218.88 182.63 195.35 180.00 189.00 C 176.93 181.58 169.53 179.00 156.87 180.93 C 146.61 182.49 140.20 184.76 138.79 187.33 C 138.05 188.69 137.65 193.63 137.74 200.50 C 137.94 217.06 142.39 229.46 149.27 232.58 C 153.47 234.49 162.79 233.82 167.76 231.26 Z  M 139.23 54.75 C 143.91 49.75 150.50 40.93 152.86 36.51 C 155.61 31.38 155.71 23.68 153.08 19.37 C 149.06 12.76 138.03 7.00 129.42 7.00 C 120.06 7.00 113.23 11.72 108.14 21.71 C 103.48 30.87 106.73 37.62 121.87 50.15 C 132.65 59.08 134.68 59.62 139.23 54.75 Z  M 154.50 149.34 C 152.85 147.96 150.05 146.19 148.28 145.42 C 145.07 144.00 145.07 144.00 148.19 139.37 C 151.32 134.73 151.32 134.73 152.92 138.12 C 154.30 141.07 155.08 141.56 158.99 142.00 C 164.65 142.63 165.15 144.50 160.78 148.70 C 157.50 151.85 157.50 151.85 154.50 149.34 Z  M 155.13 217.78 C 151.80 216.89 151.76 216.81 152.28 212.25 C 152.88 206.90 155.06 204.77 159.50 205.21 C 162.46 205.50 162.50 205.58 162.50 211.39 C 162.50 218.13 161.06 219.37 155.13 217.78 Z "/>
</g>
</svg>