<?xml version="1.0" encoding="UTF-8" standalone="no"?>
<!DOCTYPE svg PUBLIC "-//W3C//DTD SVG 1.1//EN" "http://www.w3.org/Graphics/SVG/1.1/DTD/svg11.dtd" >
<svg xmlns="http://www.w3.org/2000/svg" xmlns:xlink="http://www.w3.org/1999/xlink" version="1.1" viewBox="0 0 256 256">
 <g >
 <path fill="currentColor"
d=" M 95.48 243.75 C 94.83 238.13 93.00 210.96 93.00 207.06 C 93.00 204.00 93.00 204.00 105.25 204.00 C 111.99 204.00 128.02 203.53 140.88 202.96 C 153.74 202.40 164.50 202.17 164.78 202.45 C 165.66 203.33 163.08 216.77 161.32 220.46 C 160.40 222.39 157.87 225.14 155.70 226.58 C 151.96 229.05 151.79 229.39 152.31 233.26 C 153.27 240.43 158.70 245.04 164.47 243.60 C 169.66 242.29 172.98 237.85 181.71 220.50 C 190.44 203.16 190.44 203.16 194.97 202.51 C 205.64 200.98 210.00 196.78 210.00 188.01 C 210.00 183.58 207.70 181.15 202.77 180.35 C 199.30 179.79 199.30 179.79 206.61 160.37 C 213.68 141.60 224.48 106.82 227.06 94.50 C 227.75 91.20 228.34 84.22 228.38 79.00 C 228.43 70.80 228.08 68.73 225.84 63.89 C 222.88 57.51 218.64 53.82 210.81 50.82 C 205.66 48.85 191.40 47.51 167.50 46.75 C 159.50 46.50 159.50 46.50 158.89 35.69 C 158.29 25.10 158.20 24.80 154.89 21.37 C 153.02 19.44 147.71 15.98 143.08 13.68 C 134.71 9.53 134.57 9.50 123.58 9.50 C 104.49 9.50 97.81 14.04 95.03 28.91 C 94.27 32.94 94.58 36.96 96.52 48.58 C 97.20 52.67 97.20 52.67 91.92 54.94 C 80.67 59.78 76.02 64.84 75.98 72.28 C 75.96 75.43 75.90 75.39 73.02 70.15 C 71.40 67.21 67.65 61.81 64.69 58.14 C 55.93 47.31 48.39 43.12 37.50 43.05 C 30.27 43.00 26.09 45.18 23.67 50.28 C 19.29 59.50 21.82 69.23 44.29 129.69 C 63.68 181.88 63.68 181.88 58.85 183.04 C 56.20 183.67 52.95 185.04 51.63 186.08 C 46.67 189.97 48.07 199.18 54.19 203.04 C 56.99 204.80 58.69 205.06 65.21 204.73 C 72.92 204.34 72.92 204.34 81.08 223.42 C 91.42 247.58 91.64 248.00 94.01 248.00 C 95.72 248.00 95.90 247.47 95.48 243.75 Z  M 90.56 177.90 C 89.38 174.56 77.00 88.98 77.00 84.22 C 77.00 83.27 78.29 85.23 79.87 88.57 C 85.31 100.06 91.13 104.38 103.15 105.85 C 108.50 106.50 108.50 106.50 109.65 112.00 C 111.75 121.97 111.62 122.42 106.25 123.85 C 98.29 125.97 93.28 129.52 90.49 135.01 C 87.12 141.68 87.23 146.64 90.88 151.68 C 94.93 157.27 99.64 159.21 110.52 159.78 C 119.61 160.25 119.61 160.25 121.93 168.67 C 123.21 173.29 124.06 177.27 123.83 177.50 C 123.60 177.73 116.13 178.23 107.23 178.61 C 93.80 179.19 90.97 179.07 90.56 177.90 Z  M 132.00 177.43 C 132.00 176.95 133.46 172.86 135.23 168.35 C 138.47 160.14 138.47 160.14 146.94 158.88 C 158.80 157.11 164.81 153.89 167.91 147.64 C 169.23 144.97 170.51 140.70 170.75 138.14 C 171.14 134.08 170.80 133.00 168.01 129.50 C 163.75 124.14 160.43 122.19 153.93 121.23 C 148.50 120.43 148.50 120.43 148.71 114.54 C 149.02 105.78 149.00 105.80 156.24 106.51 C 172.03 108.07 174.68 111.45 173.69 128.80 C 172.74 145.42 169.86 175.42 169.14 176.20 C 168.18 177.25 132.00 178.45 132.00 177.43 Z "/>
</g>
</svg>