<?xml version="1.0" encoding="UTF-8" standalone="no"?>
<!DOCTYPE svg PUBLIC "-//W3C//DTD SVG 1.1//EN" "http://www.w3.org/Graphics/SVG/1.1/DTD/svg11.dtd" >
<svg xmlns="http://www.w3.org/2000/svg" xmlns:xlink="http://www.w3.org/1999/xlink" version="1.1" viewBox="0 0 256 256">
 <g >
 <path fill="currentColor"
d=" M 121.67 243.57 C 130.68 239.38 131.06 234.00 122.35 234.00 C 117.94 234.00 117.94 234.00 118.59 227.65 C 119.11 222.60 118.90 220.78 117.57 218.74 C 115.64 215.80 115.50 215.92 124.11 212.68 C 139.27 206.98 142.56 203.92 139.63 198.25 C 138.06 195.22 138.06 195.22 158.78 194.57 C 170.18 194.21 181.18 193.67 183.23 193.37 C 190.72 192.29 197.00 185.42 194.37 181.20 C 190.47 174.95 174.21 171.53 153.33 172.56 C 138.95 173.27 138.95 173.27 142.48 168.04 C 146.41 162.20 146.71 160.28 144.43 155.87 C 142.30 151.75 137.56 150.00 128.55 150.00 C 121.04 150.00 121.04 150.00 124.72 143.30 C 127.99 137.36 128.45 135.63 128.79 128.05 C 129.15 120.33 128.95 119.16 126.81 116.00 C 123.84 111.64 118.41 109.64 111.39 110.33 C 103.05 111.14 90.08 115.06 86.92 117.72 C 83.23 120.83 83.19 123.93 86.77 130.50 C 89.50 135.50 89.50 135.50 95.50 136.00 C 102.81 136.62 104.00 137.31 104.00 140.94 C 104.00 144.46 100.71 146.80 94.63 147.64 C 89.23 148.38 86.63 146.25 85.06 139.80 C 82.45 129.10 79.63 121.61 77.17 118.87 C 71.72 112.79 59.61 112.98 56.40 119.20 C 53.23 125.32 56.28 139.04 63.09 149.31 C 65.29 152.65 67.70 154.69 71.82 156.71 C 77.15 159.33 78.30 159.50 90.50 159.50 C 98.12 159.50 104.84 159.00 106.75 158.30 C 110.00 157.10 110.00 157.10 110.00 161.08 C 110.00 164.45 110.68 165.73 114.47 169.53 C 118.92 173.98 118.93 174.00 116.22 174.03 C 104.40 174.16 70.71 176.18 67.50 176.94 C 56.79 179.51 57.56 191.84 68.62 194.91 C 70.78 195.51 81.57 196.01 93.00 196.03 C 113.50 196.07 113.50 196.07 102.46 201.79 C 76.67 215.14 68.19 221.15 71.90 223.44 C 72.39 223.74 78.58 223.10 85.65 222.01 C 92.72 220.91 98.78 220.02 99.13 220.01 C 99.48 220.00 99.95 222.63 100.18 225.83 C 100.75 233.68 104.94 242.23 109.27 244.36 C 113.64 246.52 115.62 246.39 121.67 243.57 Z  M 159.21 241.09 C 158.87 240.22 156.64 236.19 154.25 232.13 C 151.86 228.08 150.10 224.56 150.36 224.31 C 150.61 224.06 154.02 223.19 157.93 222.38 C 171.75 219.52 177.39 215.78 176.82 209.84 C 176.55 207.01 175.81 206.15 172.04 204.25 C 167.33 201.88 160.22 201.28 157.02 202.99 C 155.94 203.57 153.84 207.70 151.95 212.99 C 150.18 217.94 148.45 222.00 148.11 222.00 C 147.78 222.00 146.12 220.36 144.43 218.35 C 141.73 215.12 140.72 214.64 135.83 214.24 C 129.20 213.69 126.00 215.08 126.00 218.52 C 126.00 222.28 130.29 226.19 145.00 235.82 C 157.56 244.04 160.79 245.24 159.21 241.09 Z  M 50.94 166.84 C 51.52 164.12 52.00 159.43 52.00 156.42 C 52.00 153.40 52.69 142.06 53.53 131.22 C 55.30 108.26 55.88 72.79 54.64 62.00 C 53.79 54.50 53.79 54.50 58.14 61.00 C 62.32 67.23 62.73 67.54 68.00 68.58 C 71.31 69.24 75.89 69.36 79.50 68.89 C 96.97 66.64 100.39 66.63 102.38 68.85 C 104.02 70.68 104.10 71.34 103.02 73.95 C 101.36 77.96 93.89 84.72 88.47 87.12 C 86.06 88.18 79.09 89.81 72.98 90.72 C 60.38 92.62 57.00 94.66 57.00 100.41 C 57.00 108.18 62.54 111.00 77.76 111.00 C 96.24 111.00 105.93 107.19 116.48 95.80 C 134.71 76.11 140.10 40.17 126.75 27.25 C 121.85 22.51 116.71 20.78 105.93 20.23 C 97.57 19.81 94.07 20.23 78.43 23.50 C 68.57 25.56 59.38 27.67 58.00 28.19 C 54.08 29.67 51.09 33.01 50.40 36.68 C 49.77 40.03 49.77 40.03 46.79 35.27 C 37.96 21.16 26.27 15.49 17.30 20.96 C 12.59 23.83 11.62 28.58 12.34 45.50 C 13.06 62.51 14.38 69.68 21.48 95.01 C 24.50 105.81 28.13 119.72 29.53 125.92 C 33.70 144.43 42.28 169.40 45.80 173.32 C 47.32 175.01 47.51 175.02 48.66 173.46 C 49.33 172.53 50.36 169.56 50.94 166.84 Z  M 181.36 167.98 C 182.76 166.32 185.61 161.85 187.69 158.04 C 191.47 151.12 191.47 151.12 197.99 150.04 C 209.44 148.13 210.09 147.90 211.24 145.38 C 213.35 140.75 208.62 136.97 197.75 134.57 C 195.50 134.07 195.00 133.42 195.00 130.98 C 195.00 128.00 195.00 128.00 204.75 127.92 C 218.70 127.80 223.02 126.49 225.40 121.62 C 227.71 116.88 226.76 113.13 222.76 111.21 C 221.27 110.50 216.38 109.50 211.89 108.99 C 207.40 108.48 203.54 107.87 203.32 107.65 C 203.09 107.43 204.84 106.10 207.20 104.71 C 209.57 103.32 212.80 100.81 214.39 99.14 C 216.91 96.49 217.21 95.57 216.71 91.90 C 215.88 85.71 212.48 82.72 206.40 82.84 C 198.96 82.99 197.01 85.55 195.75 96.89 C 194.73 106.00 194.73 106.00 183.87 106.00 C 177.89 106.00 173.00 105.76 173.00 105.47 C 173.00 105.17 174.12 102.71 175.50 100.00 C 176.88 97.29 178.00 93.99 178.00 92.67 C 178.00 89.32 174.48 85.20 170.69 84.10 C 167.50 83.18 167.50 83.18 171.00 83.08 C 185.67 82.64 210.37 80.72 217.63 79.45 C 228.21 77.60 233.42 74.92 237.39 69.26 C 242.69 61.71 242.14 49.28 236.33 45.48 C 232.59 43.03 221.54 41.04 211.50 41.01 C 202.50 40.98 202.50 40.98 207.73 37.98 C 210.75 36.25 213.63 33.67 214.56 31.88 C 217.01 27.15 217.51 19.17 215.65 14.71 C 213.30 9.07 209.14 7.63 195.00 7.56 C 185.18 7.51 182.99 7.80 180.00 9.53 C 171.03 14.75 171.24 25.91 180.52 36.75 C 183.91 40.71 183.91 40.71 172.30 41.41 C 160.40 42.12 146.17 44.22 141.65 45.94 C 130.44 50.20 136.70 75.29 150.26 80.46 C 152.59 81.35 157.43 82.45 161.00 82.91 C 164.70 83.39 166.07 83.80 164.17 83.87 C 160.17 84.03 155.00 88.70 155.00 92.17 C 155.01 94.84 158.04 100.26 161.71 104.16 C 164.21 106.83 164.21 106.83 158.36 107.45 C 155.13 107.79 150.53 108.32 148.12 108.62 C 137.23 109.97 134.77 122.23 144.24 128.00 C 147.01 129.70 149.29 129.99 159.45 130.00 C 168.74 130.00 171.13 130.27 170.20 131.20 C 169.54 131.86 169.00 133.18 169.00 134.13 C 169.00 136.30 167.54 136.73 157.21 137.58 C 148.32 138.31 147.00 139.20 147.00 144.41 C 147.00 148.02 151.78 150.18 161.41 150.90 C 169.31 151.50 169.31 151.50 171.48 159.68 C 174.65 171.67 176.76 173.45 181.36 167.98 Z "/>
</g>
</svg>