<?xml version="1.0" encoding="UTF-8" standalone="no"?>
<!DOCTYPE svg PUBLIC "-//W3C//DTD SVG 1.1//EN" "http://www.w3.org/Graphics/SVG/1.1/DTD/svg11.dtd" >
<svg xmlns="http://www.w3.org/2000/svg" xmlns:xlink="http://www.w3.org/1999/xlink" version="1.1" viewBox="0 0 256 256">
 <g >
 <path fill="currentColor"
d=" M 120.27 235.25 C 129.62 224.20 134.73 217.07 136.09 213.18 C 137.60 208.85 134.49 202.08 129.60 199.06 C 126.18 196.95 125.79 196.91 123.51 198.40 C 120.23 200.55 119.35 202.40 116.00 214.30 C 114.41 219.91 112.39 226.53 111.50 229.00 C 109.34 235.02 107.92 242.63 108.63 244.47 C 109.55 246.89 112.18 244.81 120.27 235.25 Z  M 157.82 243.20 C 158.22 240.43 149.64 224.65 146.29 222.02 C 142.87 219.32 139.44 219.47 136.45 222.45 C 133.04 225.86 133.04 232.13 136.45 235.54 C 139.13 238.22 154.89 246.18 156.50 245.66 C 157.05 245.49 157.64 244.38 157.82 243.20 Z  M 101.49 218.68 C 103.92 212.87 109.19 185.75 109.24 178.81 C 109.28 173.49 108.74 170.98 106.57 166.55 C 103.30 159.87 99.13 156.46 92.32 154.88 C 87.25 153.72 87.25 153.72 90.46 150.90 C 93.20 148.50 94.16 146.28 97.00 135.79 C 100.75 121.95 100.20 122.70 116.83 108.67 C 126.54 100.47 130.42 95.02 128.14 92.74 C 127.29 91.89 123.70 91.59 116.37 91.76 C 105.84 92.01 105.84 92.01 106.50 88.76 C 107.29 84.84 108.54 83.77 118.81 78.17 C 127.86 73.24 129.00 71.54 129.00 63.03 C 129.00 55.65 126.40 52.19 117.92 48.30 C 112.00 45.58 112.00 45.58 111.99 39.04 C 111.98 22.22 107.16 17.41 86.00 13.10 C 70.33 9.90 63.75 10.57 57.70 15.98 C 54.50 18.83 54.50 18.83 54.50 29.67 C 54.50 35.62 54.73 41.80 55.00 43.40 C 55.50 46.29 55.50 46.29 44.44 49.02 C 30.30 52.50 25.31 54.74 21.13 59.50 C 17.82 63.27 17.77 63.47 18.20 70.94 C 18.82 81.62 22.27 88.95 28.56 92.94 C 34.95 96.99 41.81 98.20 56.23 97.82 C 66.73 97.55 68.49 97.72 68.76 99.08 C 69.00 100.26 66.49 101.62 58.79 104.46 C 45.85 109.24 39.43 112.45 38.62 114.54 C 36.38 120.38 38.97 131.29 43.66 135.71 C 50.08 141.77 57.78 142.00 69.21 136.49 C 72.05 135.12 74.66 134.00 75.01 134.00 C 75.37 134.00 75.46 135.35 75.21 136.99 C 74.97 138.63 74.40 139.74 73.93 139.46 C 72.70 138.70 70.00 143.25 69.36 147.14 C 68.62 151.74 71.84 155.79 76.86 156.59 C 80.58 157.19 80.58 157.19 80.17 166.74 C 79.70 177.45 80.66 182.90 85.50 197.00 C 91.28 213.82 95.57 222.00 98.62 222.00 C 99.43 222.00 100.73 220.51 101.49 218.68 Z  M 165.64 213.75 C 172.41 206.55 174.37 203.04 178.42 190.94 C 188.40 161.04 180.74 147.64 153.75 147.79 C 142.65 147.85 142.90 148.87 151.40 138.37 C 156.30 132.31 156.30 132.31 163.69 134.65 C 167.75 135.94 172.21 137.00 173.61 137.00 C 176.73 137.00 176.42 135.55 171.07 125.50 C 167.35 118.50 167.35 118.50 174.77 107.00 C 184.12 92.50 184.15 92.47 187.02 94.01 C 189.20 95.18 189.26 95.56 188.67 105.36 C 188.34 110.94 187.77 118.88 187.41 123.00 C 186.03 138.74 190.79 148.66 200.22 149.72 C 206.38 150.42 209.63 149.50 211.58 146.52 C 212.90 144.50 212.98 143.47 212.03 140.60 C 211.40 138.69 209.94 135.93 208.79 134.46 C 206.75 131.87 206.74 131.66 208.37 126.51 C 209.28 123.59 213.94 113.63 218.70 104.36 C 231.49 79.48 231.83 78.74 233.48 72.41 C 235.65 64.07 235.43 58.94 232.72 54.90 C 229.88 50.67 222.30 46.41 214.75 44.82 C 210.35 43.88 209.10 43.23 209.44 42.05 C 211.22 35.95 211.13 32.95 209.10 29.66 C 206.07 24.76 199.29 18.81 193.50 15.97 C 189.48 13.99 186.95 13.51 180.62 13.51 C 172.78 13.50 172.71 13.52 169.65 17.14 C 167.95 19.14 164.46 26.08 161.89 32.56 C 157.22 44.35 157.22 44.35 148.12 47.51 C 143.11 49.25 138.13 51.48 137.05 52.46 C 132.17 56.87 130.97 72.05 134.82 80.49 C 137.84 87.10 140.69 90.00 144.17 90.00 C 147.32 90.00 147.49 90.62 145.88 96.01 C 144.78 99.68 144.66 99.75 138.81 100.28 C 131.97 100.90 129.32 102.75 128.43 107.53 C 127.66 111.65 129.12 114.56 134.22 119.07 C 138.26 122.63 138.26 122.63 135.96 135.79 C 133.66 148.95 133.66 148.95 127.39 151.04 C 116.30 154.73 114.00 158.17 114.03 171.00 C 114.05 178.60 116.36 184.55 120.62 187.95 C 123.35 190.12 124.08 190.21 134.62 189.66 C 146.07 189.07 151.86 189.92 154.02 192.52 C 154.70 193.34 155.65 198.17 156.12 203.26 C 157.35 216.31 157.91 219.00 159.40 219.00 C 160.12 219.00 162.93 216.64 165.64 213.75 Z "/>
</g>
</svg>