<?xml version="1.0" encoding="UTF-8" standalone="no"?>
<!DOCTYPE svg PUBLIC "-//W3C//DTD SVG 1.1//EN" "http://www.w3.org/Graphics/SVG/1.1/DTD/svg11.dtd" >
<svg xmlns="http://www.w3.org/2000/svg" xmlns:xlink="http://www.w3.org/1999/xlink" version="1.1" viewBox="0 0 256 256">
 <g >
 <path fill="currentColor"
d=" M 74.94 239.84 C 75.52 237.12 76.00 233.12 76.00 230.95 C 76.00 227.00 76.00 227.00 83.03 227.00 C 91.05 227.00 91.89 226.22 89.99 220.48 C 88.21 215.08 83.19 213.95 77.42 217.67 C 74.74 219.39 74.00 218.56 74.00 213.80 C 74.00 209.93 74.00 209.93 79.01 210.60 C 83.35 211.17 84.52 210.92 87.92 208.67 C 91.82 206.09 91.82 206.09 92.49 215.30 C 93.78 232.93 93.72 234.00 91.25 236.00 C 88.23 238.45 88.42 240.45 91.90 242.93 C 101.40 249.69 106.33 240.23 107.97 212.06 C 109.12 192.33 107.40 175.87 103.36 167.80 C 100.29 161.69 91.89 157.70 82.21 157.76 C 70.48 157.84 59.75 162.78 56.51 169.61 C 54.28 174.32 52.74 186.07 53.51 192.60 C 55.24 207.41 65.66 241.03 70.32 246.84 C 71.85 248.75 73.60 246.09 74.94 239.84 Z  M 161.38 239.46 C 168.56 231.92 168.56 231.92 180.02 235.88 C 188.28 238.72 191.69 239.50 192.23 238.67 C 193.60 236.51 193.02 235.15 189.75 232.91 C 185.69 230.13 178.00 222.85 178.00 221.78 C 178.00 221.35 181.41 215.87 185.57 209.62 C 193.14 198.26 193.14 198.26 198.65 197.61 C 205.64 196.79 209.56 194.76 212.04 190.70 C 216.13 183.99 212.92 178.59 204.16 177.43 C 199.25 176.78 199.16 176.70 200.13 174.17 C 201.63 170.20 200.48 167.76 195.68 164.75 C 187.86 159.85 183.63 161.58 178.11 171.94 C 174.88 178.00 174.88 178.00 167.69 178.00 C 160.50 178.00 160.50 178.00 160.83 171.59 C 161.15 165.43 161.02 165.03 157.53 161.16 C 150.66 153.57 143.68 154.90 140.09 164.48 C 138.96 167.51 137.52 172.02 136.90 174.50 C 135.91 178.40 135.41 179.00 133.13 179.01 C 128.63 179.02 123.07 181.00 122.01 182.98 C 120.72 185.39 120.74 188.51 122.07 193.33 C 122.89 196.28 123.92 197.49 126.54 198.58 C 128.41 199.36 131.01 200.00 132.33 200.00 C 134.42 200.00 134.81 200.59 135.36 204.59 C 136.80 215.11 141.11 220.43 151.02 223.92 C 153.76 224.88 156.28 225.95 156.62 226.29 C 156.96 226.62 155.83 230.98 154.12 235.97 C 152.40 240.96 151.00 245.49 151.00 246.02 C 151.00 248.72 154.92 246.25 161.38 239.46 Z  M 53.23 166.78 C 56.58 161.70 60.19 157.44 61.89 156.56 C 65.59 154.65 76.18 152.99 86.50 152.71 C 96.39 152.45 99.17 154.09 103.93 163.02 C 109.16 172.84 111.47 172.27 115.35 160.17 C 118.72 149.73 119.04 147.99 119.12 140.08 C 119.19 131.79 117.97 129.59 111.05 125.48 C 108.30 123.84 106.03 122.05 106.02 121.50 C 106.01 120.95 107.36 115.77 109.01 110.00 C 114.91 89.47 117.44 73.17 117.47 55.50 C 117.50 40.23 117.38 39.24 114.84 33.82 C 109.64 22.74 95.39 15.99 77.20 16.01 C 55.50 16.04 47.48 21.67 47.61 36.79 C 47.68 44.13 47.68 44.13 44.67 38.53 C 41.19 32.03 30.52 20.95 25.42 18.53 C 19.33 15.64 14.50 18.02 10.53 25.86 C 6.45 33.94 8.04 46.69 15.32 64.28 C 30.72 101.44 37.53 117.00 40.06 120.74 C 41.68 123.14 42.99 125.42 42.97 125.80 C 42.95 126.19 40.96 127.70 38.54 129.17 C 32.08 133.09 30.51 136.67 30.50 147.50 C 30.50 155.61 30.83 157.19 33.81 163.50 C 37.93 172.22 41.55 176.20 44.98 175.79 C 46.91 175.57 48.84 173.46 53.23 166.78 Z  M 176.73 158.50 C 178.92 151.90 182.65 140.09 185.02 132.25 C 189.33 118.00 189.33 118.00 193.92 117.99 C 200.49 117.99 216.66 115.38 222.39 113.40 C 229.80 110.85 234.15 105.87 236.79 96.96 C 239.64 87.31 238.73 83.37 232.15 76.99 C 226.42 71.44 222.24 70.00 209.73 69.29 C 204.35 68.98 199.79 68.45 199.59 68.12 C 199.40 67.78 200.29 60.30 201.59 51.50 C 204.25 33.40 203.85 29.86 198.15 20.88 C 192.48 11.96 184.68 8.41 172.52 9.18 C 159.42 10.01 157.81 13.53 157.97 41.07 C 158.03 51.84 157.78 62.53 157.41 64.82 C 156.74 69.00 156.74 69.00 151.12 69.02 C 144.45 69.04 133.35 71.25 129.23 73.38 C 122.77 76.72 119.77 92.49 123.87 101.52 C 128.09 110.80 134.28 114.10 151.30 116.12 C 156.91 116.79 161.86 117.65 162.31 118.03 C 162.75 118.41 164.46 130.37 166.10 144.61 C 167.74 158.85 169.31 171.14 169.58 171.93 C 170.55 174.73 172.67 170.73 176.73 158.50 Z  M 217.80 161.33 C 218.14 157.94 211.62 130.96 209.72 127.93 C 209.05 126.86 206.63 125.26 204.35 124.39 C 200.78 123.03 199.78 122.99 197.34 124.15 C 193.59 125.93 190.62 132.00 191.51 136.07 C 192.25 139.42 214.75 165.14 216.50 164.64 C 217.05 164.48 217.64 162.99 217.80 161.33 Z  M 138.22 149.47 C 155.96 139.56 159.49 136.41 158.65 131.26 C 156.81 119.91 145.22 116.83 138.17 125.82 C 134.96 129.91 120.00 155.66 120.00 157.09 C 120.00 159.13 123.65 157.60 138.22 149.47 Z  M 224.52 58.37 C 236.79 54.18 238.35 53.38 240.56 50.13 C 244.12 44.88 243.77 40.86 239.33 35.94 C 234.75 30.88 231.21 29.00 226.22 29.00 C 220.68 29.00 218.75 31.57 212.86 46.87 C 208.74 57.57 208.02 60.32 209.02 61.52 C 209.69 62.33 210.40 63.00 210.59 63.00 C 210.78 63.00 217.05 60.91 224.52 58.37 Z  M 151.80 60.80 C 152.46 60.14 153.00 57.83 153.00 55.66 C 153.00 50.65 149.20 28.25 147.96 25.93 C 147.44 24.96 144.98 23.39 142.48 22.44 C 138.65 20.98 137.31 20.89 133.96 21.89 C 125.34 24.48 119.40 34.51 122.17 41.80 C 123.28 44.69 125.74 46.71 136.50 53.56 C 143.65 58.11 149.75 61.87 150.05 61.92 C 150.35 61.96 151.14 61.46 151.80 60.80 Z  M 73.48 201.96 C 73.12 201.39 73.15 199.05 73.54 196.76 C 74.49 191.13 78.66 187.00 83.40 187.00 C 87.37 187.00 89.17 189.37 90.41 196.25 C 91.09 200.00 91.09 200.00 85.80 200.01 C 82.88 200.01 79.21 200.68 77.64 201.51 C 74.23 203.28 74.29 203.28 73.48 201.96 Z  M 159.25 208.88 C 156.09 206.86 155.36 204.84 156.61 201.58 C 157.05 200.43 158.57 200.00 162.17 200.00 C 166.86 200.00 167.10 200.13 166.45 202.25 C 165.46 205.48 163.16 211.00 162.80 210.98 C 162.64 210.97 161.04 210.03 159.25 208.88 Z  M 54.00 111.89 C 54.00 101.65 54.00 101.65 56.25 103.71 C 57.49 104.84 60.64 106.07 63.25 106.44 C 68.54 107.20 69.69 108.53 70.18 114.45 C 70.50 118.28 70.50 118.28 64.21 119.59 C 60.75 120.30 57.04 121.17 55.96 121.51 C 54.10 122.10 54.00 121.61 54.00 111.89 Z  M 84.39 115.75 C 84.73 114.51 85.70 109.67 86.54 105.00 C 88.74 92.73 87.04 85.04 81.29 81.27 C 77.31 78.66 65.05 78.97 58.60 81.84 C 55.90 83.04 53.50 83.83 53.26 83.59 C 53.02 83.36 52.42 78.06 51.93 71.83 C 51.43 65.60 50.81 58.92 50.55 57.00 C 50.09 53.68 50.22 53.79 53.04 59.00 C 58.02 68.20 62.22 71.38 74.12 74.95 C 86.67 78.71 86.92 78.84 89.75 82.99 C 94.12 89.41 94.85 98.30 92.34 114.25 C 91.77 117.86 91.59 118.00 87.76 118.00 C 84.10 118.00 83.82 117.81 84.39 115.75 Z "/>
</g>
</svg>