<?xml version="1.0" encoding="UTF-8" standalone="no"?>
<!DOCTYPE svg PUBLIC "-//W3C//DTD SVG 1.1//EN" "http://www.w3.org/Graphics/SVG/1.1/DTD/svg11.dtd" >
<svg xmlns="http://www.w3.org/2000/svg" xmlns:xlink="http://www.w3.org/1999/xlink" version="1.1" viewBox="0 0 256 256">
 <g >
 <path fill="currentColor"
d=" M 144.10 237.27 C 160.12 231.82 172.97 218.90 172.99 208.21 C 173.00 203.27 169.99 196.69 166.74 194.57 C 159.85 190.06 132.92 187.02 116.19 188.86 C 86.52 192.12 76.00 197.38 76.00 208.95 C 76.00 214.78 79.90 222.92 84.30 226.28 C 89.52 230.26 101.74 236.02 109.38 238.09 C 118.52 240.57 135.60 240.17 144.10 237.27 Z  M 205.52 197.61 C 207.39 196.24 207.39 196.08 205.60 190.36 C 201.74 178.04 187.89 145.36 183.34 137.84 C 180.73 133.52 176.74 127.88 174.49 125.32 C 170.67 120.97 170.05 120.65 165.44 120.60 C 162.72 120.57 159.21 120.90 157.63 121.32 C 154.76 122.10 154.76 122.10 155.55 117.30 C 156.92 109.04 156.55 107.84 151.16 102.88 C 142.74 95.13 130.15 92.95 123.60 98.10 C 119.38 101.42 116.46 107.47 110.16 126.00 C 106.88 135.62 102.13 149.27 99.60 156.32 C 95.63 167.35 91.24 186.57 92.42 187.76 C 94.58 189.92 122.07 165.14 140.13 144.74 C 147.00 136.99 147.00 136.99 147.00 142.31 C 147.00 146.71 147.66 148.71 150.75 153.78 C 156.33 162.93 164.57 172.43 173.00 179.45 C 182.11 187.03 199.89 199.00 202.05 199.00 C 202.91 199.00 204.48 198.37 205.52 197.61 Z  M 57.57 169.40 C 61.66 167.46 71.77 156.91 78.22 147.85 C 84.72 138.73 85.66 136.50 83.90 134.37 C 78.50 127.83 48.79 123.36 40.01 127.75 C 29.50 133.01 28.52 154.24 38.30 164.87 C 41.07 167.88 47.62 170.95 51.35 170.98 C 52.92 170.99 55.72 170.28 57.57 169.40 Z  M 96.59 108.25 C 101.99 101.24 108.88 91.56 111.90 86.73 C 117.40 77.97 117.40 77.97 119.45 80.38 C 126.55 88.75 138.65 89.54 165.50 83.37 C 178.83 80.31 187.31 80.11 190.94 82.77 C 197.24 87.38 198.42 95.65 194.99 111.05 C 192.79 120.92 193.24 123.52 197.32 124.54 C 200.93 125.45 204.33 123.56 210.42 117.25 C 222.80 104.43 232.76 88.66 238.04 73.50 C 243.33 58.32 241.00 42.91 232.06 33.97 C 225.21 27.11 217.68 24.89 201.26 24.90 C 194.53 24.90 187.56 25.15 185.76 25.44 C 183.97 25.74 173.95 26.69 163.50 27.55 C 147.77 28.84 143.60 29.52 139.25 31.50 C 134.00 33.89 134.00 33.89 134.18 27.59 C 134.43 18.45 130.26 12.28 121.00 8.08 C 114.70 5.23 101.86 5.18 97.24 7.99 C 90.90 11.86 89.12 17.01 84.52 44.79 C 78.00 84.16 75.01 121.59 77.95 126.96 C 79.30 129.42 79.30 129.42 83.04 125.21 C 85.10 122.89 91.20 115.26 96.59 108.25 Z  M 58.39 83.04 C 63.38 81.15 64.26 77.36 63.04 62.97 C 61.16 40.88 56.59 27.74 49.79 24.90 C 45.61 23.15 38.44 23.44 33.13 25.56 C 21.98 30.02 7.78 55.00 10.41 65.51 C 11.38 69.35 17.48 75.53 22.78 78.04 C 27.70 80.37 44.44 83.78 51.68 83.92 C 53.99 83.96 57.00 83.57 58.39 83.04 Z  M 121.67 224.46 C 119.02 223.72 116.21 222.59 115.42 221.94 C 113.49 220.33 113.59 213.58 115.58 211.93 C 117.79 210.10 128.04 209.53 132.47 210.99 C 136.25 212.24 139.99 216.86 140.00 220.30 C 140.00 224.10 129.17 226.56 121.67 224.46 Z "/>
</g>
</svg>