<?xml version="1.0" encoding="UTF-8" standalone="no"?>
<!DOCTYPE svg PUBLIC "-//W3C//DTD SVG 1.1//EN" "http://www.w3.org/Graphics/SVG/1.1/DTD/svg11.dtd" >
<svg xmlns="http://www.w3.org/2000/svg" xmlns:xlink="http://www.w3.org/1999/xlink" version="1.1" viewBox="0 0 306 300">
 <g >
 <path fill="currentColor"
d=" M 112.34 279.43 C 111.49 277.22 112.86 276.20 117.77 275.42 C 121.50 274.82 121.96 274.95 121.40 276.41 C 120.76 278.07 116.06 281.00 114.02 281.00 C 113.42 281.00 112.67 280.29 112.34 279.43 Z  M 127.00 276.44 C 127.00 275.59 127.52 272.82 128.16 270.29 C 129.27 265.87 129.21 265.63 126.66 263.77 C 125.20 262.70 124.00 261.14 124.00 260.30 C 124.00 259.45 126.49 253.97 129.53 248.12 C 135.05 237.49 135.05 237.49 143.28 237.75 C 147.80 237.89 155.03 237.99 159.34 237.98 C 167.17 237.95 167.17 237.95 166.46 241.22 C 163.83 253.36 151.27 267.49 144.91 265.47 C 142.18 264.61 132.04 271.44 130.67 275.06 C 129.50 278.15 127.00 279.10 127.00 276.44 Z  M 112.59 271.75 C 114.23 268.88 116.43 267.00 118.15 267.00 C 120.75 267.00 120.45 268.50 117.37 270.93 C 114.44 273.23 111.46 273.74 112.59 271.75 Z  M 163.00 230.00 C 163.00 229.45 161.65 229.00 160.00 229.00 C 158.00 229.00 157.00 228.50 157.00 227.50 C 157.00 225.67 157.20 225.67 151.97 227.51 C 146.74 229.36 145.61 228.70 149.86 226.28 C 154.62 223.57 153.97 221.75 148.87 223.54 C 144.04 225.25 142.00 225.39 142.00 224.00 C 142.00 223.45 142.68 223.00 143.50 223.00 C 144.32 223.00 145.00 222.34 145.00 221.53 C 145.00 220.64 144.41 220.29 143.50 220.64 C 141.71 221.33 141.69 221.19 143.11 217.12 C 144.31 213.68 144.65 213.66 151.87 216.62 C 155.89 218.27 156.31 218.31 155.50 217.00 C 155.16 216.45 155.33 216.00 155.87 216.00 C 157.39 216.00 161.00 221.04 161.00 223.17 C 161.00 224.71 161.35 224.88 162.85 224.08 C 165.38 222.73 169.00 225.36 169.00 228.56 C 169.00 230.60 168.51 231.00 166.00 231.00 C 164.35 231.00 163.00 230.55 163.00 230.00 Z  M 169.62 208.25 C 169.98 206.74 170.72 204.94 171.26 204.25 C 172.59 202.56 177.00 202.65 177.00 204.37 C 177.00 206.63 172.99 211.00 170.91 211.00 C 169.29 211.00 169.07 210.53 169.62 208.25 Z  M 54.50 206.12 C 50.32 204.27 49.18 201.78 48.83 193.75 C 48.52 186.43 48.62 186.00 50.60 186.00 C 55.75 186.00 66.05 175.51 70.57 165.64 C 72.71 160.95 73.44 160.12 74.59 161.08 C 76.58 162.72 76.34 165.75 74.14 166.92 C 72.05 168.04 68.53 175.60 67.48 181.20 C 66.93 184.16 67.25 185.54 69.05 188.07 C 72.35 192.71 79.63 197.00 84.20 197.00 C 87.52 197.00 88.00 197.29 88.00 199.35 C 88.00 201.42 87.07 201.98 80.37 203.97 C 72.24 206.39 57.81 207.59 54.50 206.12 Z  M 160.00 204.85 C 157.53 203.89 154.26 202.85 152.75 202.53 C 150.40 202.04 150.00 201.47 150.00 198.56 C 150.00 194.67 154.67 166.35 155.54 164.94 C 155.86 164.42 157.17 164.00 158.45 164.00 C 164.01 164.00 181.88 157.08 186.25 153.23 C 188.76 151.02 188.44 148.33 185.58 147.61 C 184.25 147.28 180.70 144.75 177.69 142.00 C 172.40 137.17 172.01 136.99 165.86 136.84 C 159.50 136.68 159.50 136.68 166.50 136.07 C 173.02 135.51 173.97 135.11 180.30 130.23 C 184.04 127.36 187.53 125.00 188.05 125.00 C 188.61 125.00 189.00 131.13 189.00 139.75 C 189.00 154.50 189.00 154.50 183.99 158.81 C 181.24 161.18 178.31 164.44 177.47 166.05 C 176.34 168.25 174.82 169.27 171.41 170.13 C 168.33 170.90 165.11 172.87 161.41 176.26 C 156.28 180.94 155.99 181.46 156.56 184.87 C 157.44 190.22 159.84 196.06 162.65 199.77 C 164.02 201.57 164.99 203.84 164.82 204.82 C 164.51 206.51 164.30 206.51 160.00 204.85 Z  M 93.32 197.40 C 92.65 195.64 94.51 194.04 97.25 194.02 C 99.46 194.00 99.60 197.56 97.42 198.39 C 94.93 199.35 93.98 199.12 93.32 197.40 Z  M 103.00 193.50 C 103.00 187.08 104.20 186.39 105.84 191.87 C 107.50 197.40 107.31 199.00 105.00 199.00 C 103.24 199.00 103.00 198.33 103.00 193.50 Z  M 111.00 195.50 C 111.00 191.39 112.63 190.90 114.03 194.58 C 115.13 197.48 114.59 199.00 112.44 199.00 C 111.46 199.00 111.00 197.88 111.00 195.50 Z  M 166.22 195.44 C 162.44 192.79 163.37 190.84 168.24 191.19 C 171.46 191.43 172.57 191.95 172.84 193.38 C 173.49 196.80 169.80 197.95 166.22 195.44 Z  M 120.00 188.00 C 120.00 185.60 121.13 185.50 125.05 187.53 C 128.97 189.55 128.77 190.00 124.00 190.00 C 120.67 190.00 120.00 189.67 120.00 188.00 Z  M 168.75 187.34 C 166.69 186.49 165.00 185.16 165.00 184.39 C 165.00 181.40 177.24 183.72 179.02 187.04 C 179.98 188.83 179.74 189.00 176.29 188.95 C 174.20 188.92 170.81 188.20 168.75 187.34 Z  M 120.25 181.01 C 116.92 178.98 115.97 177.00 118.32 177.00 C 120.98 177.00 130.54 180.21 131.96 181.59 C 134.42 183.96 124.27 183.46 120.25 181.01 Z  M 91.14 157.83 C 91.44 133.17 91.44 133.17 95.79 132.82 C 98.18 132.63 100.26 132.59 100.41 132.74 C 101.27 133.60 92.63 180.70 91.39 181.95 C 91.09 182.24 90.98 171.39 91.14 157.83 Z  M 171.22 179.44 C 167.82 177.06 168.39 175.00 172.44 175.00 C 175.63 175.00 179.00 177.68 179.00 180.22 C 179.00 181.60 173.52 181.05 171.22 179.44 Z  M 103.19 173.75 C 103.42 171.28 103.98 170.50 105.49 170.50 C 107.83 170.50 108.69 173.46 106.96 175.55 C 104.76 178.20 102.85 177.29 103.19 173.75 Z  M 18.44 173.53 C 16.67 172.19 17.01 172.07 22.50 172.11 C 28.39 172.16 28.45 172.19 25.50 173.54 C 21.63 175.31 20.79 175.31 18.44 173.53 Z  M 73.00 174.11 C 73.00 173.31 78.96 170.00 80.40 170.00 C 80.73 170.00 81.00 171.12 81.00 172.50 C 81.00 174.75 80.60 175.00 77.00 175.00 C 74.80 175.00 73.00 174.60 73.00 174.11 Z  M 123.66 173.87 C 121.96 172.88 122.01 172.71 124.46 171.44 C 127.74 169.73 132.72 170.61 134.07 173.13 C 134.98 174.84 134.65 175.00 130.29 174.97 C 127.65 174.95 124.67 174.46 123.66 173.87 Z  M 183.00 172.62 C 183.00 169.76 184.28 165.00 185.06 165.00 C 186.36 165.00 187.13 168.62 186.43 171.41 C 185.76 174.09 183.00 175.06 183.00 172.62 Z  M 51.04 170.16 C 51.00 167.97 50.65 167.83 45.75 168.07 C 42.86 168.21 39.23 167.81 37.68 167.17 C 36.14 166.52 34.34 165.99 33.68 165.97 C 33.03 165.95 33.35 165.45 34.39 164.84 C 35.49 164.20 38.52 163.98 41.70 164.31 C 48.05 164.96 48.60 163.28 42.60 161.57 C 37.21 160.04 39.24 158.95 46.14 159.67 C 50.03 160.08 52.00 159.92 52.00 159.21 C 52.00 158.62 50.99 157.94 49.75 157.71 C 48.51 157.47 50.09 157.21 53.25 157.14 C 57.63 157.03 59.00 156.64 59.00 155.50 C 59.00 154.64 58.04 153.96 56.75 153.90 C 55.15 153.83 55.47 153.57 57.84 153.00 C 59.68 152.57 62.70 151.40 64.55 150.40 C 66.41 149.40 68.16 148.83 68.46 149.12 C 69.09 149.75 66.14 159.06 64.87 160.45 C 64.35 161.02 64.00 160.72 64.00 159.70 C 64.00 158.77 63.33 158.00 62.50 158.00 C 61.67 158.00 61.00 158.46 61.00 159.03 C 61.00 159.60 59.36 161.50 57.35 163.26 C 55.35 165.02 53.12 167.82 52.39 169.48 C 51.20 172.23 51.07 172.29 51.04 170.16 Z  M 135.00 167.61 C 135.00 166.84 134.32 165.95 133.50 165.64 C 132.00 165.06 131.44 161.89 132.63 160.70 C 132.98 160.35 134.10 160.52 135.13 161.07 C 137.13 162.14 137.88 169.00 136.00 169.00 C 135.45 169.00 135.00 168.37 135.00 167.61 Z  M 0.00 83.20 C 0.00 0.00 0.00 0.00 153.00 0.00 C 306.00 0.00 306.00 0.00 305.93 24.75 C 305.87 47.14 305.74 49.08 304.51 45.14 C 303.76 42.75 302.10 39.67 300.82 38.30 C 296.53 33.70 293.91 33.00 281.05 33.00 C 269.00 33.00 269.00 33.00 269.00 36.50 C 269.00 39.96 268.95 40.00 264.70 40.00 C 260.40 40.00 260.40 40.00 259.34 32.64 C 256.84 15.32 247.63 4.96 232.08 2.01 C 229.14 1.46 220.94 1.00 213.86 1.00 C 201.00 1.00 201.00 1.00 201.00 7.15 C 201.00 11.51 202.31 17.73 205.50 28.55 C 207.98 36.95 210.00 44.03 210.00 44.29 C 210.00 45.66 203.56 45.53 190.76 43.90 C 182.92 42.89 170.31 41.77 162.75 41.39 C 149.00 40.70 149.00 40.70 149.00 48.40 C 149.00 53.34 149.55 57.16 150.52 59.04 C 151.76 61.44 151.99 65.57 151.77 81.24 C 151.50 100.50 151.50 100.50 126.14 100.77 C 102.20 101.02 100.82 100.94 101.55 99.27 C 103.07 95.82 106.90 80.46 106.95 77.60 C 107.02 73.54 113.40 67.64 119.33 66.15 C 121.84 65.52 127.70 65.00 132.37 65.00 C 140.35 65.00 140.98 64.84 142.93 62.37 C 144.49 60.37 145.00 58.29 145.00 53.81 C 145.00 48.06 144.91 47.86 141.68 46.51 C 134.46 43.49 119.67 41.72 99.50 41.46 C 82.36 41.24 78.50 41.47 72.50 43.11 C 68.65 44.17 62.35 45.25 58.50 45.52 C 54.65 45.79 49.02 46.76 46.00 47.68 C 42.98 48.60 38.02 49.27 35.00 49.16 C 31.98 49.06 27.25 49.46 24.50 50.04 C 21.75 50.63 18.49 51.32 17.25 51.58 C 15.18 52.00 15.00 52.59 15.00 58.84 C 15.00 64.62 15.34 65.97 17.26 67.78 C 21.92 72.15 26.70 73.30 42.16 73.79 C 56.82 74.24 56.82 74.24 55.34 79.37 C 53.12 87.04 44.18 105.20 37.07 116.47 C 29.35 128.72 9.56 155.47 0.83 165.45 C 0.37 165.97 0.00 128.96 0.00 83.20 Z  M 112.03 162.45 C 112.00 160.29 116.97 151.76 118.97 150.52 C 119.61 150.12 120.38 150.05 120.69 150.35 C 121.94 151.61 119.67 156.42 115.99 160.33 C 112.68 163.83 112.05 164.17 112.03 162.45 Z  M 120.00 162.72 C 120.00 160.89 122.77 157.19 125.05 155.97 C 126.74 155.07 127.00 155.26 127.00 157.46 C 127.00 160.26 123.85 164.00 121.50 164.00 C 120.67 164.00 120.00 163.43 120.00 162.72 Z  M 108.69 155.35 C 107.33 153.99 108.05 151.06 110.41 148.31 C 113.59 144.62 114.77 146.02 112.87 151.22 C 111.37 155.34 110.01 156.68 108.69 155.35 Z  M 164.00 155.00 C 164.00 154.45 162.40 154.00 160.43 154.00 C 157.13 154.00 156.89 153.80 157.18 151.25 C 157.48 148.65 157.81 148.48 163.25 148.20 C 166.79 148.02 169.00 148.30 169.00 148.95 C 169.00 149.53 170.38 150.00 172.07 150.00 C 176.81 150.00 175.47 152.99 170.00 154.63 C 164.57 156.25 164.00 156.28 164.00 155.00 Z  M 26.01 149.21 C 26.02 148.82 29.08 144.46 32.81 139.51 C 40.03 129.95 44.06 126.66 46.10 128.70 C 46.99 129.59 46.40 130.22 43.63 131.38 C 41.63 132.22 40.00 133.60 40.00 134.45 C 40.00 135.76 41.78 136.00 51.50 136.00 C 64.29 136.00 66.59 134.65 58.30 132.00 C 55.73 131.18 53.44 129.94 53.23 129.25 C 52.47 126.83 57.66 128.01 65.38 132.00 C 69.63 134.20 73.76 136.00 74.55 136.00 C 78.14 136.00 75.28 137.95 66.73 141.33 C 56.61 145.34 48.87 146.60 56.97 142.93 C 61.53 140.86 63.26 139.22 62.38 137.80 C 61.78 136.83 49.01 136.84 43.68 137.81 C 39.86 138.50 39.86 138.50 42.93 141.44 C 46.59 144.94 46.78 146.00 43.72 146.00 C 42.47 146.00 40.37 146.75 39.05 147.68 C 36.69 149.33 25.99 150.59 26.01 149.21 Z  M 136.21 146.10 C 129.09 140.01 117.00 135.86 117.00 139.50 C 117.00 140.32 116.33 141.00 115.50 141.00 C 114.67 141.00 114.00 140.32 114.00 139.50 C 114.00 138.68 113.33 138.00 112.50 138.00 C 110.19 138.00 110.72 136.49 113.57 134.97 C 115.61 133.87 116.29 133.85 116.91 134.85 C 118.06 136.71 122.16 135.43 132.50 129.98 C 146.21 122.75 148.60 122.65 146.02 129.43 C 145.23 131.52 144.39 132.00 141.52 132.00 C 137.09 132.00 136.70 134.56 141.00 135.50 C 144.50 136.27 144.95 137.72 141.83 138.18 C 138.96 138.60 138.19 141.00 140.92 141.00 C 142.06 141.00 143.00 141.38 143.00 141.85 C 143.00 143.50 140.80 149.00 140.15 148.96 C 139.79 148.94 138.02 147.65 136.21 146.10 Z  M 111.00 124.50 C 111.00 119.27 113.06 119.73 114.38 125.25 C 114.93 127.56 114.71 128.00 113.02 128.00 C 111.38 128.00 111.00 127.34 111.00 124.50 Z  M 63.71 123.00 C 63.29 121.41 62.35 121.00 59.06 121.00 C 55.15 121.00 54.99 120.89 56.08 118.85 C 57.18 116.79 57.07 116.73 53.11 117.26 C 49.07 117.80 47.50 116.79 50.56 115.61 C 51.42 115.28 51.85 114.57 51.52 114.03 C 51.18 113.49 51.43 112.06 52.08 110.86 C 53.25 108.67 53.25 108.67 54.98 110.97 C 56.13 112.50 56.95 112.89 57.42 112.14 C 58.56 110.29 59.98 110.83 61.00 113.50 C 61.98 116.08 64.00 116.94 64.00 114.79 C 64.00 112.11 66.93 116.67 67.84 120.75 C 68.74 124.78 68.67 125.00 66.51 125.00 C 65.07 125.00 64.04 124.26 63.71 123.00 Z  M 117.29 122.75 C 114.76 119.98 112.00 114.64 112.00 112.52 C 112.00 109.82 117.74 114.83 120.00 119.51 C 121.10 121.77 122.00 123.94 122.00 124.32 C 122.00 125.80 119.24 124.88 117.29 122.75 Z  M 160.62 122.86 C 159.73 121.59 159.00 120.15 159.00 119.66 C 159.00 118.04 171.89 119.46 173.70 121.27 C 174.63 122.20 175.18 123.14 174.94 123.36 C 174.70 123.59 171.74 124.09 168.37 124.47 C 162.69 125.12 162.11 125.00 160.62 122.86 Z  M 87.00 121.90 C 87.00 119.72 92.97 113.00 94.90 113.00 C 96.73 113.00 96.16 114.91 92.95 119.57 C 89.70 124.30 87.00 125.35 87.00 121.90 Z  M 183.46 120.05 C 177.50 115.82 167.51 110.96 163.42 110.29 C 159.12 109.60 158.43 108.24 159.99 103.54 C 161.26 99.70 161.99 99.37 165.32 101.20 C 166.52 101.87 169.50 102.65 171.94 102.95 C 175.98 103.45 176.46 103.80 177.26 106.90 C 177.79 108.98 180.26 112.38 183.57 115.61 C 191.11 122.98 191.06 125.43 183.46 120.05 Z  M 80.00 116.65 C 80.00 115.01 84.49 110.00 85.95 110.00 C 87.31 110.00 87.28 110.40 85.55 114.53 C 84.57 116.89 83.45 118.00 82.05 118.00 C 80.92 118.00 80.00 117.39 80.00 116.65 Z  M 123.08 115.41 C 119.29 112.22 119.15 110.77 122.68 111.18 C 124.63 111.41 125.73 112.39 126.69 114.75 C 128.28 118.67 127.19 118.87 123.08 115.41 Z  M 71.19 109.75 C 69.99 106.84 67.18 102.26 64.96 99.57 C 62.73 96.88 61.14 94.07 61.42 93.34 C 62.56 90.37 66.90 73.23 67.52 69.25 C 68.18 65.00 68.18 65.00 52.34 64.98 C 36.43 64.95 29.72 64.14 27.63 62.00 C 26.78 61.13 28.72 60.86 35.50 60.88 C 55.64 60.94 58.19 60.65 63.26 57.63 C 71.07 52.98 75.60 52.11 91.98 52.09 C 101.37 52.08 107.80 51.64 109.15 50.92 C 110.96 49.95 111.21 50.01 110.71 51.31 C 110.38 52.16 109.83 54.36 109.49 56.20 C 108.95 59.08 107.97 60.01 102.56 62.81 C 95.57 66.44 88.00 72.47 88.00 74.42 C 88.00 75.11 86.09 76.25 83.75 76.95 C 77.92 78.70 72.19 81.72 69.37 84.54 C 65.24 88.67 66.51 96.57 72.70 105.33 C 75.98 109.97 76.72 113.94 74.44 114.69 C 73.86 114.88 72.40 112.66 71.19 109.75 Z  M 132.67 112.33 C 131.05 110.72 132.33 110.00 136.75 110.04 C 141.50 110.08 141.50 110.08 138.14 111.54 C 134.36 113.18 133.62 113.29 132.67 112.33 Z  M 183.67 108.33 C 183.30 107.97 183.00 106.22 183.00 104.45 C 183.00 101.97 183.51 101.10 185.21 100.66 C 188.20 99.87 188.32 100.18 186.91 104.90 C 185.71 108.92 185.00 109.67 183.67 108.33 Z  M 191.07 105.50 C 191.10 103.30 191.49 99.70 191.94 97.50 C 192.72 93.75 192.78 93.90 192.87 100.00 C 192.92 103.58 192.53 107.17 192.00 108.00 C 191.29 109.10 191.04 108.44 191.07 105.50 Z  M 77.75 101.77 C 73.00 100.78 71.70 99.44 74.47 98.37 C 76.30 97.67 83.97 100.15 84.08 101.47 C 84.18 102.84 83.17 102.89 77.75 101.77 Z  M 169.00 96.48 C 169.00 94.77 172.85 93.00 176.54 93.00 C 178.76 93.00 178.86 93.21 177.82 95.50 C 176.89 97.53 175.96 98.00 172.84 98.00 C 170.07 98.00 169.00 97.58 169.00 96.48 Z  M 81.11 94.99 C 74.92 92.76 74.56 92.52 75.46 91.07 C 76.91 88.72 85.12 90.26 88.34 93.49 C 92.24 97.38 89.40 97.97 81.11 94.99 Z  M 164.00 90.46 C 164.00 88.45 169.27 85.99 175.05 85.31 C 181.35 84.56 181.70 86.38 175.75 88.93 C 169.71 91.52 164.00 92.27 164.00 90.46 Z  M 83.59 86.96 C 80.85 86.14 79.05 84.48 79.02 82.75 C 79.01 82.34 80.35 82.00 82.00 82.00 C 85.16 82.00 89.50 85.38 88.48 87.04 C 87.79 88.14 87.54 88.14 83.59 86.96 Z  M 190.63 82.75 C 189.59 78.86 189.93 78.00 192.50 78.00 C 194.69 78.00 195.00 78.43 195.00 81.50 C 195.00 84.26 194.60 85.00 193.12 85.00 C 192.01 85.00 190.98 84.07 190.63 82.75 Z  M 163.40 82.84 C 162.34 81.12 166.92 77.85 169.91 78.20 C 174.14 78.69 173.76 81.70 169.31 82.93 C 164.53 84.26 164.28 84.25 163.40 82.84 Z  M 93.39 76.78 C 94.04 73.53 95.56 71.22 96.45 72.12 C 97.57 73.24 95.68 80.00 94.24 80.00 C 93.09 80.00 92.90 79.26 93.39 76.78 Z  M 174.42 70.79 C 173.28 70.27 171.59 68.57 170.67 67.02 C 167.40 61.48 169.12 60.35 174.08 64.78 C 177.77 68.08 178.01 72.41 174.42 70.79 Z  M 179.67 65.60 C 175.60 61.53 174.28 57.00 177.16 57.00 C 178.31 57.00 180.20 58.82 182.02 61.70 C 186.89 69.38 185.60 71.53 179.67 65.60 Z  M 186.82 60.37 C 184.87 58.19 182.71 52.99 183.77 53.02 C 184.17 53.03 185.55 53.85 186.83 54.84 C 188.51 56.13 189.07 57.43 188.83 59.44 C 188.51 62.14 188.44 62.17 186.82 60.37 Z  M 197.00 59.11 C 197.00 57.24 198.82 56.00 201.58 56.00 C 203.93 56.00 203.22 59.71 200.75 60.37 C 197.35 61.28 197.00 61.16 197.00 59.11 Z  M 257.00 55.11 C 257.00 54.50 256.14 54.00 255.08 54.00 C 251.31 54.00 249.95 52.95 251.05 50.90 C 251.95 49.22 253.28 49.00 262.45 49.00 C 274.06 49.00 276.00 49.43 276.00 51.98 C 276.00 53.36 274.85 53.88 270.75 54.39 C 267.86 54.75 263.59 55.31 261.25 55.64 C 258.44 56.03 257.00 55.85 257.00 55.11 Z  M 236.64 51.53 C 231.17 49.58 226.18 45.80 221.84 40.30 C 217.76 35.12 217.57 34.05 221.16 36.31 C 222.45 37.12 225.07 38.28 227.00 38.89 C 229.17 39.58 231.45 41.41 233.00 43.68 C 234.38 45.70 237.50 48.63 239.95 50.18 C 244.83 53.28 243.29 53.91 236.64 51.53 Z  M 245.70 43.89 C 244.31 41.81 244.09 40.13 244.61 35.66 C 244.97 32.57 245.69 30.31 246.20 30.62 C 248.06 31.77 248.81 35.79 248.14 41.08 C 247.45 46.50 247.45 46.50 245.70 43.89 Z  M 237.00 42.12 C 237.00 38.67 238.24 34.00 239.16 34.00 C 240.65 34.00 241.26 36.80 240.56 40.51 C 239.87 44.18 237.00 45.49 237.00 42.12 Z  M 225.00 33.15 C 225.00 31.54 228.67 29.00 231.00 29.00 C 233.35 29.00 233.35 29.00 231.00 31.50 C 228.75 33.89 225.00 34.93 225.00 33.15 Z  M 220.99 26.02 C 222.05 24.04 232.56 20.23 233.73 21.40 C 235.06 22.73 230.47 25.95 225.85 26.94 C 219.52 28.30 219.75 28.34 220.99 26.02 Z  M 221.00 19.20 C 221.00 17.67 223.42 16.00 225.64 16.00 C 229.18 16.00 229.30 17.70 225.85 18.90 C 222.11 20.21 221.00 20.28 221.00 19.20 Z "/>
</g>
</svg>