<?xml version="1.0" encoding="UTF-8" standalone="no"?>
<!DOCTYPE svg PUBLIC "-//W3C//DTD SVG 1.1//EN" "http://www.w3.org/Graphics/SVG/1.1/DTD/svg11.dtd" >
<svg xmlns="http://www.w3.org/2000/svg" xmlns:xlink="http://www.w3.org/1999/xlink" version="1.1" viewBox="0 0 281 288">
 <g >
 <path fill="currentColor"
d=" M 37.71 262.86 C 45.39 260.49 51.28 255.30 52.88 249.50 C 54.24 244.60 54.35 231.52 53.06 229.11 C 52.43 227.93 52.57 226.02 53.48 223.38 C 54.23 221.20 55.17 213.49 55.56 206.25 C 56.23 194.00 56.40 193.15 58.07 194.04 C 60.70 195.45 70.47 195.18 78.50 193.49 C 94.39 190.14 104.75 181.91 108.94 169.33 C 110.90 163.45 111.21 160.55 111.13 148.50 C 110.98 125.50 108.41 107.31 104.15 99.07 C 102.65 96.17 101.59 95.15 98.14 93.31 C 97.81 93.13 112.93 43.89 113.54 43.17 C 113.70 42.99 119.86 43.40 127.24 44.09 C 144.21 45.66 160.83 44.18 179.25 39.48 C 181.13 39.01 182.00 39.17 182.00 40.00 C 182.00 42.49 175.88 53.74 170.84 60.50 C 164.04 69.62 141.73 91.84 126.25 104.91 C 114.00 115.26 114.00 115.26 114.00 124.13 C 114.00 133.00 114.00 133.00 121.75 132.99 C 147.59 132.97 170.96 124.74 186.01 110.37 C 193.93 102.80 193.93 102.80 207.21 108.97 C 222.20 115.93 232.58 121.51 233.60 123.16 C 234.08 123.95 232.99 124.08 229.85 123.60 C 226.41 123.09 221.83 123.84 209.46 126.94 C 181.09 134.05 154.04 137.93 143.63 136.38 C 137.85 135.52 136.30 135.66 131.17 137.52 C 127.94 138.68 123.77 140.53 121.90 141.62 C 118.58 143.56 118.49 143.77 118.20 150.95 C 117.93 157.78 118.10 158.49 120.64 161.15 C 123.37 164.00 123.37 164.00 142.69 164.00 C 162.00 164.00 162.00 164.00 161.99 173.25 C 161.98 184.25 160.42 203.22 158.86 211.23 C 157.83 216.55 157.53 216.99 154.62 217.49 C 152.91 217.78 144.30 219.14 135.50 220.52 C 118.86 223.12 106.17 225.46 99.75 227.11 C 96.13 228.04 96.00 228.23 96.00 232.47 C 96.00 240.04 99.70 246.19 106.33 249.65 C 108.83 250.96 109.42 250.96 111.49 249.60 C 113.58 248.23 114.15 248.23 116.85 249.57 C 119.67 250.98 122.81 250.61 163.90 244.05 C 198.08 238.59 208.52 237.25 210.58 238.03 C 212.63 238.81 219.02 238.01 238.87 234.49 C 279.70 227.25 275.00 229.08 275.00 220.43 C 275.00 214.11 274.75 213.00 273.30 213.00 C 272.37 213.00 265.64 210.97 258.34 208.50 C 251.04 206.03 243.60 204.00 241.79 204.00 C 239.92 204.00 234.99 205.78 230.37 208.13 C 223.81 211.45 220.86 212.35 215.16 212.76 C 208.08 213.26 208.08 213.26 208.58 209.88 C 208.85 208.02 209.92 199.97 210.96 192.00 C 214.36 165.95 215.91 159.17 219.40 155.20 C 224.87 148.97 233.73 146.07 252.25 144.44 C 259.00 143.84 259.00 143.84 259.00 137.46 C 259.00 132.18 258.62 130.73 256.81 129.04 C 255.61 127.92 253.58 127.00 252.31 127.00 C 250.51 127.00 250.00 126.45 250.00 124.50 C 250.00 122.34 250.45 122.00 253.30 122.00 C 260.67 122.00 268.94 115.87 273.49 107.04 C 275.27 103.57 275.27 103.57 271.39 100.19 C 266.83 96.22 245.63 81.94 231.87 73.58 C 222.24 67.72 222.24 67.72 228.11 58.41 C 234.80 47.79 242.97 31.86 245.51 24.50 C 248.11 16.94 248.66 6.80 246.58 4.72 C 243.45 1.59 237.21 0.73 222.00 1.32 C 207.06 1.90 185.16 5.75 164.68 11.41 C 157.57 13.38 155.28 13.64 152.83 12.79 C 148.55 11.30 138.48 12.45 129.53 15.46 C 125.37 16.86 121.62 18.00 121.20 18.00 C 120.78 18.00 119.93 16.64 119.30 14.98 C 117.82 11.06 111.72 8.32 101.03 6.76 C 83.90 4.27 68.00 10.37 68.00 19.45 C 68.00 20.78 65.84 21.00 52.61 21.00 C 39.84 21.00 36.06 21.36 30.48 23.08 C 20.94 26.03 19.00 28.27 19.00 36.34 C 19.00 42.77 19.00 42.77 13.34 43.48 C 10.23 43.87 7.08 44.42 6.34 44.70 C 4.54 45.39 4.60 53.96 6.48 65.58 C 7.53 72.07 7.67 75.65 6.97 78.08 C 5.01 84.89 4.84 98.00 6.39 123.35 C 7.76 145.75 7.79 149.47 6.55 151.23 C 5.32 152.99 5.32 153.56 6.57 155.46 C 7.76 157.28 7.82 159.18 6.94 166.58 C 6.35 171.49 5.62 193.62 5.32 215.77 C 4.77 256.05 4.77 256.05 8.36 259.43 C 15.49 266.16 23.86 267.14 37.71 262.86 Z  M 19.00 253.56 C 19.00 250.75 24.32 237.82 25.69 237.29 C 28.28 236.29 28.27 237.90 25.60 246.46 C 23.44 253.38 22.56 255.00 20.97 255.00 C 19.89 255.00 19.00 254.35 19.00 253.56 Z  M 14.00 243.50 C 14.00 239.40 14.21 239.00 16.44 239.00 C 18.88 239.00 18.88 239.00 17.35 243.50 C 16.50 245.97 15.40 248.00 14.91 248.00 C 14.41 248.00 14.00 245.97 14.00 243.50 Z  M 32.32 243.75 C 32.62 242.51 33.68 237.56 34.68 232.75 C 35.80 227.40 36.98 224.01 37.75 224.00 C 38.44 224.00 39.01 224.56 39.01 225.25 C 39.04 228.00 33.55 246.00 32.69 246.00 C 32.18 246.00 32.01 244.99 32.32 243.75 Z  M 123.00 239.11 C 123.00 237.25 123.58 237.00 128.00 237.00 C 133.79 237.00 134.65 238.47 129.43 239.45 C 127.46 239.82 125.21 240.36 124.43 240.67 C 123.47 241.03 123.00 240.52 123.00 239.11 Z  M 17.78 235.25 C 15.41 232.53 14.00 229.36 14.00 226.75 C 14.00 224.44 14.13 224.40 18.50 225.41 C 21.75 226.16 22.88 226.87 22.58 227.98 C 22.36 228.81 21.89 231.19 21.54 233.25 C 20.84 237.42 20.04 237.84 17.78 235.25 Z  M 173.00 228.73 C 173.00 226.86 173.79 226.27 177.50 225.41 C 182.00 224.37 182.00 224.37 182.00 227.68 C 182.00 230.95 181.93 231.00 177.50 231.00 C 173.49 231.00 173.00 230.75 173.00 228.73 Z  M 198.00 227.17 C 198.00 225.14 202.92 221.86 205.50 222.17 C 208.20 222.50 208.20 222.50 206.03 225.25 C 204.54 227.13 202.93 228.00 200.93 228.00 C 199.32 228.00 198.00 227.63 198.00 227.17 Z  M 224.75 224.84 C 220.94 223.45 221.30 222.53 226.25 221.04 C 228.59 220.34 233.53 218.25 237.23 216.39 C 244.62 212.66 247.01 212.08 245.02 214.48 C 244.09 215.60 244.06 216.73 244.89 219.13 C 246.36 223.33 246.31 224.50 244.70 223.17 C 243.77 222.39 241.36 222.63 235.95 224.03 C 227.50 226.22 228.38 226.16 224.75 224.84 Z  M 23.00 217.57 C 23.00 215.56 25.79 213.00 27.98 213.00 C 29.62 213.00 29.70 213.34 28.69 216.00 C 27.89 218.13 26.90 219.00 25.28 219.00 C 23.97 219.00 23.00 218.39 23.00 217.57 Z  M 37.50 216.00 C 35.99 213.08 36.01 213.00 38.27 213.00 C 41.06 213.00 43.00 214.73 43.00 217.20 C 43.00 220.18 39.24 219.36 37.50 216.00 Z  M 169.39 216.47 C 168.48 215.08 167.98 213.69 168.28 213.39 C 169.36 212.30 173.00 215.11 173.00 217.04 C 173.00 219.75 171.37 219.49 169.39 216.47 Z  M 14.76 214.82 C 15.49 212.01 24.23 203.20 24.75 204.75 C 25.54 207.13 21.83 212.73 18.05 214.85 C 14.18 217.03 14.18 217.03 14.76 214.82 Z  M 178.21 215.43 C 176.04 213.92 172.00 207.15 172.00 205.04 C 172.00 203.25 174.56 203.90 176.73 206.25 C 178.42 208.08 182.00 215.12 182.00 216.62 C 182.00 217.44 180.33 216.92 178.21 215.43 Z  M 42.09 207.84 C 40.71 203.87 41.17 203.41 44.97 204.99 C 48.38 206.40 48.39 206.41 46.96 209.07 C 45.43 211.94 43.34 211.41 42.09 207.84 Z  M 182.00 207.92 C 178.55 204.60 178.54 204.54 180.88 204.19 C 183.88 203.73 186.27 206.06 185.84 209.02 C 185.51 211.22 185.40 211.19 182.00 207.92 Z  M 191.00 204.23 C 191.00 203.26 192.08 200.87 193.41 198.92 C 196.35 194.59 199.00 188.41 199.00 185.88 C 199.00 184.85 199.68 184.00 200.50 184.00 C 202.56 184.00 202.48 190.16 200.36 194.30 C 197.76 199.36 192.99 206.00 191.95 206.00 C 191.43 206.00 191.00 205.20 191.00 204.23 Z  M 30.00 191.50 C 30.00 188.28 30.24 188.00 33.00 188.00 C 35.76 188.00 36.00 188.28 36.00 191.50 C 36.00 194.72 35.76 195.00 33.00 195.00 C 30.24 195.00 30.00 194.72 30.00 191.50 Z  M 183.67 194.33 C 181.78 192.45 183.23 191.00 187.00 191.00 C 191.13 191.00 191.87 191.73 189.80 193.80 C 188.51 195.09 184.75 195.42 183.67 194.33 Z  M 175.01 187.25 C 175.03 186.44 183.71 183.22 188.38 182.30 C 192.36 181.52 191.47 183.95 186.94 186.25 C 183.54 187.98 174.99 188.70 175.01 187.25 Z  M 70.96 182.07 C 72.74 178.74 72.22 177.00 69.43 177.00 C 65.82 177.00 63.00 175.26 63.00 173.03 C 63.00 171.83 63.82 171.02 65.25 170.82 C 66.66 170.62 68.03 169.29 68.93 167.25 C 70.32 164.09 70.53 164.00 76.52 164.00 C 79.91 164.00 84.89 163.33 87.59 162.51 C 93.72 160.65 94.00 160.65 94.00 162.53 C 94.00 164.22 85.67 179.45 83.22 182.25 C 82.09 183.54 80.16 184.00 75.81 184.00 C 70.31 184.00 70.00 183.88 70.96 182.07 Z  M 50.00 179.43 C 50.00 176.95 52.43 175.00 55.54 175.00 C 59.98 175.00 59.98 176.69 55.53 178.55 C 51.88 180.08 50.00 180.38 50.00 179.43 Z  M 177.63 178.53 C 178.38 176.56 181.20 175.00 184.00 175.00 C 185.65 175.00 186.07 175.52 185.82 177.25 C 185.55 179.12 184.78 179.55 181.26 179.81 C 177.73 180.06 177.12 179.85 177.63 178.53 Z  M 197.50 176.75 C 195.30 175.10 191.03 172.62 188.00 171.24 C 184.27 169.54 180.58 166.64 176.55 162.23 C 169.38 154.40 166.43 152.94 160.44 154.22 C 158.05 154.73 154.86 155.00 153.34 154.82 C 150.71 154.51 150.83 154.34 156.05 150.81 C 162.22 146.63 168.65 144.37 177.76 143.16 C 182.38 142.55 184.30 142.65 185.05 143.57 C 187.43 146.42 191.00 146.14 196.81 142.64 C 202.75 139.06 208.83 136.74 215.36 135.56 C 221.22 134.51 219.52 136.91 212.96 138.95 C 202.92 142.07 195.00 146.12 195.00 148.13 C 195.00 149.76 198.90 153.19 204.56 156.56 C 206.25 157.56 206.26 158.14 204.75 167.93 C 203.88 173.60 202.79 178.58 202.33 179.00 C 201.87 179.42 199.70 178.41 197.50 176.75 Z  M 32.00 169.46 C 32.00 162.24 32.08 161.97 34.00 163.00 C 37.50 164.87 36.46 177.00 32.80 177.00 C 32.36 177.00 32.00 173.61 32.00 169.46 Z  M 23.00 170.93 C 23.00 168.03 24.80 165.00 26.54 165.00 C 27.58 165.00 28.00 166.15 28.00 169.00 C 28.00 172.60 27.75 173.00 25.50 173.00 C 23.64 173.00 23.00 172.47 23.00 170.93 Z  M 41.00 168.50 C 41.00 166.03 41.45 164.00 42.00 164.00 C 42.55 164.00 43.00 166.03 43.00 168.50 C 43.00 170.97 42.55 173.00 42.00 173.00 C 41.45 173.00 41.00 170.97 41.00 168.50 Z  M 16.00 152.60 C 16.00 138.70 15.78 139.04 33.02 126.07 C 44.81 117.19 44.81 117.19 41.56 109.72 C 39.78 105.61 37.29 100.59 36.04 98.57 C 33.09 93.80 33.97 93.00 37.54 97.21 C 44.16 105.05 47.98 117.89 47.99 132.43 C 48.00 138.92 47.81 139.52 44.96 141.93 C 43.00 143.58 41.74 145.75 41.40 148.00 C 40.94 151.16 41.23 151.72 44.44 153.76 C 46.57 155.11 48.00 156.82 48.00 158.01 C 48.00 159.10 47.76 160.00 47.48 160.00 C 47.19 160.00 43.81 158.42 39.97 156.49 C 33.42 153.18 32.80 153.06 29.75 154.34 C 27.96 155.10 24.14 157.59 21.25 159.88 C 16.00 164.05 16.00 164.05 16.00 152.60 Z  M 56.00 143.00 C 56.00 124.46 56.71 120.48 58.96 126.41 C 60.39 130.16 60.57 136.46 59.64 149.75 C 58.98 159.13 58.45 162.00 57.39 162.00 C 56.25 162.00 56.00 158.55 56.00 143.00 Z  M 129.25 153.97 C 125.49 152.46 126.44 149.56 131.11 148.32 C 134.70 147.36 135.46 147.46 137.11 149.11 C 138.15 150.15 140.12 151.00 141.50 151.00 C 145.79 151.00 144.24 152.78 138.95 153.92 C 133.08 155.18 132.27 155.18 129.25 153.97 Z  M 70.00 149.50 C 70.00 146.41 70.30 146.00 72.57 146.00 C 74.74 146.00 75.03 145.67 74.45 143.85 C 73.84 141.92 74.06 141.76 76.64 142.28 C 78.21 142.60 80.18 143.12 81.01 143.44 C 81.96 143.81 82.88 143.20 83.51 141.76 C 84.87 138.66 90.41 136.22 97.00 135.83 C 102.27 135.51 102.50 135.60 102.50 137.97 C 102.50 140.23 101.15 140.97 86.53 146.72 C 77.75 150.17 70.43 153.00 70.28 153.00 C 70.13 153.00 70.00 151.43 70.00 149.50 Z  M 233.00 134.00 C 233.00 133.44 235.83 133.00 239.50 133.00 C 243.17 133.00 246.00 133.44 246.00 134.00 C 246.00 134.56 243.17 135.00 239.50 135.00 C 235.83 135.00 233.00 134.56 233.00 134.00 Z  M 68.59 124.39 C 68.08 123.03 68.51 122.87 71.32 123.40 C 73.24 123.76 76.33 123.45 78.58 122.66 C 80.74 121.91 85.42 121.01 89.00 120.66 C 96.07 119.97 100.23 121.24 100.81 124.28 C 101.12 125.85 99.76 126.00 85.18 126.00 C 71.41 126.00 69.13 125.78 68.59 124.39 Z  M 21.98 122.48 C 21.28 121.64 20.98 120.68 21.31 120.36 C 22.38 119.29 28.79 121.02 29.37 122.53 C 30.16 124.58 23.69 124.53 21.98 122.48 Z  M 130.00 121.00 C 130.00 120.45 131.24 119.99 132.75 119.98 C 139.95 119.92 150.17 112.13 157.64 101.01 C 160.04 97.44 162.00 94.90 162.00 95.36 C 162.00 95.82 161.06 97.51 159.92 99.12 C 157.47 102.55 154.01 111.96 153.98 115.23 C 153.96 119.43 152.55 120.25 143.86 121.08 C 132.37 122.17 130.00 122.16 130.00 121.00 Z  M 25.75 115.23 C 23.03 114.32 21.00 113.04 21.00 112.22 C 21.00 111.36 21.60 111.02 22.49 111.36 C 23.31 111.67 26.23 112.23 28.99 112.59 C 32.98 113.12 34.00 113.64 34.00 115.13 C 34.00 117.37 32.26 117.39 25.75 115.23 Z  M 77.52 111.50 C 75.88 110.61 73.78 109.07 72.86 108.08 C 71.90 107.05 68.95 105.99 65.94 105.59 C 61.84 105.04 59.95 104.15 57.34 101.54 C 55.51 99.71 54.00 97.22 54.00 96.03 C 54.00 94.32 53.58 94.00 52.00 94.50 C 50.46 94.99 49.77 94.52 48.99 92.46 C 48.17 90.30 47.51 89.90 45.60 90.38 C 43.51 90.91 43.12 90.51 42.23 86.99 C 41.21 83.00 41.21 83.00 44.61 83.00 C 47.29 83.00 48.00 83.40 48.00 84.92 C 48.00 90.08 51.63 92.54 56.98 91.01 C 59.85 90.18 60.05 90.27 59.44 92.19 C 58.87 93.99 59.10 94.19 61.14 93.68 C 67.03 92.22 72.28 91.73 71.67 92.72 C 71.33 93.28 69.68 94.01 68.02 94.35 C 66.24 94.70 65.00 95.58 65.00 96.47 C 65.00 98.25 68.21 98.49 71.12 96.93 C 72.98 95.94 73.07 96.10 72.46 99.34 C 71.81 102.81 71.81 102.81 80.91 104.10 C 87.00 104.96 90.00 105.81 90.00 106.67 C 90.00 107.38 91.24 108.23 92.75 108.56 C 97.85 109.68 98.40 110.00 97.28 111.12 C 96.70 111.70 92.69 112.39 88.36 112.65 C 82.30 113.02 79.82 112.75 77.52 111.50 Z  M 232.50 111.13 C 227.79 108.98 220.35 101.23 219.41 97.51 C 219.05 96.08 218.93 94.75 219.13 94.56 C 219.33 94.36 222.83 95.06 226.91 96.10 C 230.98 97.14 239.20 98.53 245.17 99.20 C 251.15 99.86 255.91 100.70 255.77 101.05 C 255.62 101.41 252.74 104.24 249.37 107.35 C 242.46 113.71 239.57 114.36 232.50 111.13 Z  M 28.25 107.75 C 23.64 106.28 24.22 105.00 29.50 105.00 C 33.33 105.00 34.00 105.30 34.00 107.00 C 34.00 109.20 33.11 109.31 28.25 107.75 Z  M 159.00 108.57 C 159.00 106.78 162.78 105.00 166.57 105.00 C 171.74 105.00 172.33 106.34 167.85 107.90 C 164.76 108.98 159.00 109.42 159.00 108.57 Z  M 23.00 95.53 C 23.00 93.77 26.49 90.00 28.12 90.00 C 30.25 90.00 30.63 92.25 28.75 93.76 C 27.14 95.04 23.00 96.32 23.00 95.53 Z  M 169.39 95.02 C 167.27 94.16 165.49 91.18 166.49 90.17 C 167.18 89.49 172.24 93.23 172.77 94.81 C 173.23 96.18 172.38 96.23 169.39 95.02 Z  M 207.00 94.57 C 207.00 93.79 208.24 92.17 209.75 90.98 C 212.30 88.97 212.53 88.94 212.86 90.60 C 213.06 91.59 212.22 93.21 211.00 94.20 C 208.32 96.37 207.00 96.49 207.00 94.57 Z  M 176.53 91.90 C 173.97 89.65 173.00 87.97 173.00 85.81 C 173.00 81.91 174.62 82.50 178.75 87.91 C 184.12 94.92 182.76 97.36 176.53 91.90 Z  M 16.00 90.90 C 16.00 88.24 19.69 83.00 21.57 83.00 C 23.70 83.00 23.32 87.32 20.93 90.37 C 18.44 93.53 16.00 93.80 16.00 90.90 Z  M 199.00 92.19 C 199.00 91.10 203.69 84.81 205.25 83.83 C 209.06 81.41 208.88 84.48 204.93 89.27 C 202.13 92.66 199.00 94.21 199.00 92.19 Z  M 181.63 85.75 C 179.87 82.96 178.64 79.00 179.53 79.00 C 181.65 79.00 186.00 83.41 186.00 85.57 C 186.00 88.66 183.53 88.77 181.63 85.75 Z  M 195.00 84.07 C 195.00 81.63 195.43 81.00 197.07 81.00 C 198.73 81.00 199.07 81.54 198.82 83.74 C 198.63 85.39 197.81 86.61 196.75 86.81 C 195.39 87.07 195.00 86.46 195.00 84.07 Z  M 74.23 81.28 C 64.97 78.71 64.97 78.71 67.49 75.61 C 68.88 73.90 70.92 70.81 72.03 68.75 C 73.87 65.32 74.40 65.00 78.31 65.00 C 82.55 65.00 82.60 65.04 83.82 69.60 C 84.65 72.71 85.68 74.37 87.02 74.72 C 89.28 75.31 89.44 76.43 87.90 80.85 C 86.59 84.61 86.29 84.62 74.23 81.28 Z  M 38.00 69.50 C 32.13 64.43 25.00 59.71 21.25 58.41 C 20.63 58.20 23.27 52.00 23.98 52.00 C 24.41 52.00 25.29 53.30 25.95 54.88 C 27.87 59.50 32.01 62.69 36.91 63.30 C 39.94 63.68 42.21 64.75 44.19 66.73 C 47.04 69.58 48.44 74.95 46.50 75.64 C 45.95 75.83 42.12 73.07 38.00 69.50 Z  M 192.17 73.25 C 191.18 71.33 189.42 63.65 188.62 57.69 C 188.19 54.49 188.38 53.92 189.80 54.19 C 192.73 54.74 196.85 75.00 194.04 75.00 C 193.50 75.00 192.66 74.21 192.17 73.25 Z  M 16.33 72.57 C 16.64 71.79 17.19 69.53 17.55 67.56 C 18.43 62.88 19.62 62.29 22.57 65.07 C 24.20 66.60 25.00 68.45 25.00 70.67 C 25.00 73.96 24.95 74.00 20.39 74.00 C 16.81 74.00 15.91 73.68 16.33 72.57 Z  M 174.37 71.75 C 174.70 70.51 174.98 69.16 174.99 68.75 C 174.99 68.34 175.90 68.00 177.00 68.00 C 178.56 68.00 179.00 68.67 179.00 71.00 C 179.00 73.57 178.62 74.00 176.38 74.00 C 174.16 74.00 173.86 73.66 174.37 71.75 Z  M 90.70 70.37 C 89.30 68.96 90.06 68.00 92.58 68.00 C 94.21 68.00 95.01 68.47 94.75 69.25 C 94.27 70.70 91.73 71.40 90.70 70.37 Z  M 65.00 65.58 C 65.00 62.10 65.37 61.00 66.56 61.00 C 67.77 61.00 68.05 61.93 67.81 65.17 C 67.37 71.14 65.00 71.49 65.00 65.58 Z  M 184.31 66.00 C 182.25 61.06 181.85 59.00 182.96 59.00 C 184.40 59.00 186.19 63.82 185.72 66.43 C 185.38 68.36 185.29 68.33 184.31 66.00 Z  M 91.44 63.58 C 88.84 61.68 89.99 60.80 94.59 61.18 C 98.20 61.49 98.30 61.58 96.62 63.25 C 94.49 65.37 93.93 65.40 91.44 63.58 Z  M 208.50 58.65 C 202.65 55.93 192.68 45.67 193.42 43.14 C 193.68 42.24 194.19 39.81 194.56 37.75 C 195.17 34.32 195.50 34.00 198.48 34.00 C 201.75 34.00 218.13 37.88 223.18 39.85 C 225.87 40.90 225.87 40.90 220.97 49.05 C 218.28 53.53 215.80 58.06 215.47 59.10 C 214.71 61.48 214.56 61.47 208.50 58.65 Z  M 14.00 57.19 C 14.00 55.10 16.57 51.23 17.40 52.07 C 18.14 52.80 15.80 59.00 14.78 59.00 C 14.35 59.00 14.00 58.19 14.00 57.19 Z  M 39.00 57.48 C 39.00 56.64 40.15 55.51 41.57 54.98 C 45.02 53.66 45.00 53.65 45.00 56.50 C 45.00 58.61 44.53 59.00 42.00 59.00 C 39.98 59.00 39.00 58.50 39.00 57.48 Z  M 95.75 57.93 C 92.67 56.11 93.65 54.00 97.57 54.00 C 100.69 54.00 101.10 54.28 100.82 56.24 C 100.46 58.77 98.35 59.47 95.75 57.93 Z  M 73.75 50.92 C 70.63 49.10 71.74 47.73 75.75 48.44 C 81.56 49.47 83.08 50.07 82.46 51.07 C 81.69 52.30 75.95 52.20 73.75 50.92 Z  M 90.93 45.31 C 90.34 43.77 88.77 41.07 87.43 39.32 C 86.06 37.53 85.00 34.78 85.00 33.03 C 85.00 29.93 85.00 29.93 90.25 30.67 C 96.63 31.57 98.47 31.56 103.08 30.59 C 106.65 29.84 106.65 29.84 105.95 35.77 C 105.57 39.03 104.63 43.00 103.87 44.60 C 102.64 47.18 101.91 47.53 97.24 47.80 C 92.29 48.09 91.93 47.94 90.93 45.31 Z  M 76.00 44.00 C 76.00 43.45 78.03 43.00 80.50 43.00 C 82.97 43.00 85.00 43.45 85.00 44.00 C 85.00 44.55 82.97 45.00 80.50 45.00 C 78.03 45.00 76.00 44.55 76.00 44.00 Z  M 42.75 34.89 C 40.97 33.88 40.28 30.00 41.88 30.00 C 43.31 30.00 45.19 32.79 44.83 34.39 C 44.58 35.51 44.06 35.63 42.75 34.89 Z  M 75.21 31.81 C 77.01 29.10 79.67 27.34 80.59 28.25 C 81.78 29.45 78.04 34.00 75.85 34.00 C 73.92 34.00 73.87 33.83 75.21 31.81 Z  M 152.00 33.22 C 152.00 31.93 155.05 28.00 156.06 28.00 C 157.66 28.00 157.10 32.75 155.42 33.39 C 153.27 34.22 152.00 34.16 152.00 33.22 Z  M 125.22 31.44 C 122.19 29.32 122.43 27.80 125.75 28.18 C 127.72 28.41 128.59 29.14 128.82 30.75 C 129.20 33.40 128.27 33.58 125.22 31.44 Z  M 146.53 29.36 C 147.89 27.36 149.00 25.11 149.00 24.36 C 149.00 23.61 149.90 23.00 151.00 23.00 C 152.10 23.00 153.00 23.26 153.00 23.57 C 153.00 25.12 146.72 33.00 145.48 33.00 C 144.44 33.00 144.73 32.02 146.53 29.36 Z  M 202.00 27.50 C 202.00 25.38 202.46 25.00 205.07 25.00 C 207.65 25.00 208.04 24.69 207.52 23.05 C 207.00 21.42 207.50 21.01 210.70 20.50 C 223.47 18.46 226.59 16.97 224.87 13.76 C 223.86 11.88 224.00 11.78 226.64 12.45 C 230.70 13.47 233.10 13.53 236.25 12.69 C 238.58 12.07 239.00 12.27 239.00 13.97 C 239.00 16.48 233.12 20.87 222.77 26.10 C 216.14 29.45 214.12 30.00 208.52 30.00 C 202.23 30.00 202.00 29.91 202.00 27.50 Z  M 180.20 23.47 C 178.57 20.13 178.32 18.83 179.25 18.51 C 179.94 18.28 183.43 17.37 187.00 16.49 C 190.57 15.61 194.35 14.64 195.40 14.33 C 197.13 13.82 197.09 14.06 195.00 17.00 C 191.28 22.22 185.43 28.00 183.85 28.00 C 183.05 28.00 181.41 25.96 180.20 23.47 Z  M 162.00 23.00 C 162.00 21.44 162.67 21.00 165.00 21.00 C 168.23 21.00 169.20 23.32 166.42 24.39 C 163.53 25.50 162.00 25.02 162.00 23.00 Z "/>
</g>
</svg>