<?xml version="1.0" encoding="UTF-8" standalone="no"?>
<!DOCTYPE svg PUBLIC "-//W3C//DTD SVG 1.1//EN" "http://www.w3.org/Graphics/SVG/1.1/DTD/svg11.dtd" >
<svg xmlns="http://www.w3.org/2000/svg" xmlns:xlink="http://www.w3.org/1999/xlink" version="1.1" viewBox="0 0 281 283">
 <g >
 <path fill="currentColor"
d=" M 126.41 254.09 C 131.02 249.00 131.37 245.21 131.77 195.50 C 132.18 145.41 132.04 143.58 127.35 138.01 C 123.77 133.75 120.32 132.19 112.88 131.45 C 105.14 130.67 81.82 132.44 69.50 134.72 C 57.95 136.87 54.82 136.77 47.50 134.00 C 39.87 131.12 25.52 130.92 12.67 133.52 C 4.54 135.16 3.89 135.47 4.45 137.40 C 4.78 138.56 5.98 145.35 7.11 152.50 C 8.71 162.65 9.27 172.09 9.66 195.50 C 10.15 224.06 10.07 225.78 8.09 231.41 C 5.46 238.85 5.24 249.50 7.65 252.17 C 9.17 253.85 11.34 254.00 33.67 254.00 C 58.04 254.00 58.04 254.00 57.37 251.25 C 57.01 249.74 56.31 247.43 55.83 246.11 C 55.34 244.80 55.14 243.53 55.37 243.30 C 56.74 241.92 67.61 239.79 74.13 239.61 C 81.77 239.40 81.77 239.40 82.63 246.45 C 83.50 253.50 83.50 253.50 101.77 254.10 C 111.82 254.44 120.33 255.00 120.69 255.35 C 121.93 256.60 124.70 255.98 126.41 254.09 Z  M 163.74 246.01 C 166.48 244.35 167.40 244.22 169.60 245.23 C 171.83 246.24 172.41 246.15 173.54 244.61 C 174.76 242.95 175.48 242.90 182.18 243.97 C 186.21 244.62 190.29 245.37 191.25 245.64 C 192.76 246.07 193.00 245.41 193.00 240.93 C 193.00 238.07 193.50 234.05 194.12 232.00 C 195.23 228.27 195.23 228.27 202.77 227.64 C 206.91 227.29 213.76 227.00 217.99 227.00 C 226.92 227.00 226.58 226.64 229.54 239.22 C 231.16 246.14 231.57 246.90 233.43 246.46 C 240.45 244.80 256.92 243.01 265.25 243.01 C 275.00 243.00 275.00 243.00 275.16 239.25 C 275.88 222.84 275.69 217.31 274.31 214.64 C 273.08 212.25 273.01 210.17 273.92 201.83 C 274.64 195.19 274.67 191.26 274.01 190.02 C 273.39 188.86 273.38 188.04 273.97 187.83 C 274.56 187.62 274.53 184.77 273.90 180.19 C 273.11 174.54 273.23 170.14 274.44 160.85 C 275.30 154.23 276.00 146.90 276.00 144.56 C 276.00 132.94 269.41 125.20 255.50 120.49 C 246.50 117.45 241.42 118.20 204.21 128.15 C 184.92 133.30 184.92 133.30 174.04 130.32 C 165.93 128.09 162.69 127.59 161.33 128.36 C 160.32 128.92 154.44 129.58 148.25 129.82 C 137.00 130.25 137.00 130.25 137.02 139.38 C 137.05 161.15 140.83 201.60 144.48 219.34 C 147.30 233.06 150.22 240.96 153.96 244.95 C 157.28 248.51 159.29 248.73 163.74 246.01 Z  M 176.50 111.43 C 181.82 110.38 186.89 110.06 191.63 110.46 C 198.21 111.01 198.79 110.91 199.28 109.03 C 199.74 107.28 200.62 107.00 205.76 107.00 C 211.71 107.00 211.71 107.00 212.35 100.25 C 213.62 86.79 213.08 35.60 211.59 27.84 C 208.53 11.97 202.88 2.82 195.24 1.38 C 191.08 0.60 173.86 2.40 136.99 7.47 C 112.48 10.84 112.48 10.84 104.49 8.83 C 99.27 7.51 91.62 6.63 82.42 6.29 C 69.71 5.81 67.88 5.96 63.70 7.81 C 60.46 9.24 58.89 10.61 58.44 12.37 C 58.10 13.75 59.15 25.15 60.78 37.69 C 63.25 56.69 63.62 62.09 62.97 70.00 C 62.54 75.22 62.15 84.70 62.09 91.06 C 62.00 102.43 62.05 102.67 64.75 105.25 C 68.33 108.66 72.02 110.00 77.89 110.00 C 80.50 110.00 99.90 107.52 121.00 104.50 C 142.10 101.47 160.18 99.00 161.18 99.00 C 162.77 99.00 163.00 99.89 163.00 106.00 C 163.00 112.97 163.01 113.00 165.75 113.00 C 167.26 113.00 172.10 112.29 176.50 111.43 Z  M 32.88 239.09 C 35.84 236.44 38.07 233.71 37.84 233.01 C 37.61 232.32 33.39 230.08 28.46 228.04 C 19.50 224.32 19.50 224.32 19.21 213.95 C 18.93 203.58 18.93 203.58 21.49 205.99 C 25.58 209.83 46.00 241.11 46.00 243.53 C 46.00 243.79 41.84 243.98 36.75 243.96 C 27.50 243.91 27.50 243.91 32.88 239.09 Z  M 93.17 241.13 C 92.41 240.64 91.99 239.05 92.18 237.39 C 92.53 234.50 92.53 234.50 94.26 237.70 C 96.67 242.13 96.35 243.14 93.17 241.13 Z  M 98.81 236.25 C 94.25 231.36 92.33 226.04 95.80 227.89 C 97.81 228.97 103.63 239.00 102.25 239.00 C 101.77 239.00 100.22 237.76 98.81 236.25 Z  M 17.50 234.00 C 18.50 232.90 20.43 232.00 21.81 232.00 C 24.25 232.00 24.26 232.05 22.50 234.00 C 21.50 235.10 19.57 236.00 18.19 236.00 C 15.75 236.00 15.74 235.95 17.50 234.00 Z  M 42.65 229.73 C 37.26 222.41 33.73 215.14 34.38 212.67 C 34.68 211.52 34.08 209.24 33.05 207.55 C 28.77 200.58 26.52 185.31 29.62 184.29 C 30.34 184.05 30.98 186.78 31.45 192.07 C 32.07 199.19 32.91 201.81 38.16 212.86 C 45.36 228.01 48.23 235.01 47.24 234.98 C 46.83 234.98 44.77 232.61 42.65 229.73 Z  M 103.10 230.47 C 99.40 226.25 99.35 226.00 102.25 226.01 C 104.31 226.01 105.41 227.37 107.68 232.75 C 108.73 235.22 106.15 233.93 103.10 230.47 Z  M 112.00 230.41 C 112.00 227.04 118.47 211.98 119.90 212.02 C 122.48 212.08 123.07 214.14 122.79 222.08 C 122.47 231.22 122.15 231.67 114.75 233.40 C 112.14 234.01 112.00 233.86 112.00 230.41 Z  M 51.66 228.75 C 45.13 220.05 33.00 190.03 37.02 192.51 C 39.16 193.84 56.53 232.00 54.99 232.00 C 54.50 232.00 53.00 230.54 51.66 228.75 Z  M 104.00 218.11 C 104.00 216.73 104.98 216.04 107.60 215.55 C 112.19 214.69 113.15 215.65 110.14 218.09 C 107.07 220.58 104.00 220.59 104.00 218.11 Z  M 61.44 214.30 C 60.99 213.31 60.44 201.45 60.22 187.94 C 59.83 163.39 59.83 163.39 68.16 162.19 C 72.75 161.53 77.74 160.71 79.25 160.38 C 82.00 159.77 82.00 159.77 82.00 186.78 C 82.00 213.80 82.00 213.80 74.75 214.45 C 70.76 214.81 66.32 215.33 64.88 215.60 C 62.99 215.96 62.02 215.59 61.44 214.30 Z  M 97.96 212.55 C 99.67 210.49 107.20 207.00 109.94 207.00 C 112.09 207.00 112.14 207.15 110.79 209.19 C 109.18 211.62 104.02 213.81 99.63 213.92 C 97.23 213.99 96.95 213.76 97.96 212.55 Z  M 100.18 204.75 C 100.43 203.03 101.26 202.43 103.74 202.19 C 106.22 201.95 106.86 202.21 106.44 203.30 C 105.96 204.53 101.93 207.00 100.38 207.00 C 100.10 207.00 100.00 205.99 100.18 204.75 Z  M 92.00 196.00 C 92.00 193.20 92.43 192.00 93.43 192.00 C 95.04 192.00 95.77 194.41 95.17 197.75 C 94.45 201.76 92.00 200.40 92.00 196.00 Z  M 45.69 198.25 C 45.46 197.84 44.95 195.78 44.57 193.68 C 44.19 191.58 43.64 189.21 43.33 188.43 C 42.91 187.33 43.74 187.00 46.89 187.00 C 51.58 187.00 51.74 187.46 49.41 194.32 C 47.91 198.71 46.69 200.00 45.69 198.25 Z  M 101.04 193.62 C 100.12 191.19 95.09 187.00 93.10 187.00 C 92.49 187.00 92.00 186.14 92.00 185.08 C 92.00 182.38 97.49 179.38 103.91 178.57 C 106.88 178.20 110.59 177.23 112.16 176.42 C 115.00 174.95 115.00 174.95 115.00 180.11 C 115.00 184.33 114.54 185.69 112.50 187.59 C 110.89 189.08 110.00 190.99 110.00 192.95 C 110.00 195.84 109.79 196.00 105.98 196.00 C 102.66 196.00 101.79 195.58 101.04 193.62 Z  M 115.00 192.58 C 115.00 191.04 120.30 189.45 121.98 190.48 C 122.54 190.83 123.00 191.77 123.00 192.56 C 123.00 193.57 121.82 194.00 119.00 194.00 C 116.21 194.00 115.00 193.57 115.00 192.58 Z  M 23.00 181.14 C 23.00 179.86 23.96 177.46 25.13 175.82 C 27.08 173.08 27.39 172.96 28.85 174.42 C 30.31 175.88 30.13 176.33 26.72 179.74 C 23.22 183.24 23.00 183.33 23.00 181.14 Z  M 39.76 180.93 C 36.84 179.23 35.69 176.17 37.34 174.52 C 38.58 173.28 38.97 173.31 40.32 174.80 C 41.17 175.74 42.33 177.74 42.91 179.25 C 44.05 182.26 43.00 182.82 39.76 180.93 Z  M 45.04 174.39 C 41.91 170.83 39.52 166.15 40.39 165.28 C 42.05 163.62 48.76 170.54 49.61 174.80 C 50.46 179.03 48.99 178.89 45.04 174.39 Z  M 19.00 173.27 C 19.00 171.36 20.02 169.40 21.99 167.51 C 26.01 163.65 26.76 164.90 23.88 170.66 C 21.04 176.33 19.00 177.42 19.00 173.27 Z  M 94.25 164.29 C 92.28 163.92 92.00 163.25 92.00 158.96 C 92.00 155.27 92.33 154.19 93.34 154.58 C 94.08 154.86 98.92 153.25 104.09 151.01 C 111.38 147.84 114.52 146.99 118.00 147.21 C 121.71 147.45 122.55 147.87 122.80 149.61 C 123.04 151.28 122.44 151.86 119.99 152.35 C 118.27 152.70 117.13 153.40 117.45 153.92 C 118.11 154.98 117.47 155.20 106.75 157.48 C 99.08 159.12 96.65 161.15 101.00 162.29 C 102.10 162.58 103.00 163.30 103.00 163.91 C 103.00 164.97 98.76 165.16 94.25 164.29 Z  M 30.19 157.95 C 27.81 156.99 27.91 156.12 30.81 152.75 C 32.88 150.34 35.48 150.56 36.71 153.26 C 37.56 155.14 37.35 155.81 35.43 157.26 C 34.16 158.22 32.98 158.97 32.81 158.94 C 32.64 158.90 31.46 158.46 30.19 157.95 Z  M 47.00 149.38 C 47.00 148.19 47.60 147.93 49.25 148.37 C 50.49 148.70 52.17 149.02 53.00 149.09 C 53.83 149.15 53.38 149.56 52.00 150.00 C 48.08 151.26 47.00 151.12 47.00 149.38 Z  M 70.00 149.43 C 70.00 145.36 74.81 141.94 80.40 142.04 C 82.11 142.07 81.58 142.89 77.50 146.52 C 72.26 151.18 70.00 152.05 70.00 149.43 Z  M 241.00 233.17 C 238.17 231.64 237.44 230.61 237.20 227.76 C 236.91 224.43 237.08 224.21 240.55 223.56 C 242.56 223.18 244.43 223.10 244.70 223.37 C 245.53 224.20 243.98 226.00 242.44 226.00 C 241.65 226.00 241.00 226.41 241.00 226.91 C 241.00 227.81 243.32 228.29 253.75 229.55 C 256.64 229.90 259.25 230.60 259.56 231.09 C 259.87 231.59 261.22 232.00 262.56 232.00 C 263.90 232.00 265.00 232.45 265.00 233.00 C 265.00 233.58 261.57 234.01 256.75 234.01 C 252.21 234.02 247.60 234.26 246.50 234.55 C 245.40 234.83 242.93 234.21 241.00 233.17 Z  M 154.89 223.55 C 154.64 223.31 154.60 221.38 154.80 219.27 C 155.16 215.57 155.46 215.29 163.58 211.13 C 172.00 206.82 172.00 206.82 172.00 200.91 C 172.00 197.43 172.43 195.00 173.06 195.00 C 174.00 195.00 179.51 205.99 178.79 206.43 C 178.63 206.53 176.47 207.48 174.00 208.55 C 171.48 209.64 166.51 213.47 162.72 217.25 C 155.69 224.24 155.63 224.29 154.89 223.55 Z  M 174.00 220.96 C 174.00 220.40 175.29 217.67 176.87 214.91 C 179.52 210.26 179.86 210.00 181.37 211.51 C 182.39 212.53 183.00 214.81 183.00 217.57 C 183.00 222.00 183.00 222.00 178.50 222.00 C 176.03 222.00 174.00 221.53 174.00 220.96 Z  M 262.89 220.35 C 262.13 219.42 258.38 216.64 254.58 214.17 C 248.24 210.06 247.35 209.76 244.08 210.60 C 239.12 211.89 236.00 210.38 236.00 206.70 C 236.00 204.47 236.37 203.98 237.75 204.39 C 244.11 206.27 244.99 206.18 250.01 203.09 C 254.16 200.54 255.44 200.17 257.11 201.06 C 258.65 201.89 259.68 201.78 261.44 200.63 C 263.75 199.12 263.75 199.12 264.24 210.31 C 264.50 216.46 264.63 221.62 264.50 221.77 C 264.38 221.92 263.66 221.29 262.89 220.35 Z  M 212.35 216.46 C 212.02 215.61 211.92 214.76 212.13 214.57 C 212.88 213.89 225.00 216.30 225.00 217.14 C 225.00 217.61 222.29 218.00 218.97 218.00 C 214.45 218.00 212.79 217.61 212.35 216.46 Z  M 157.22 206.44 C 156.00 205.59 155.00 204.23 155.00 203.42 C 155.00 202.23 155.75 202.34 159.00 204.00 C 161.20 205.12 163.00 206.48 163.00 207.02 C 163.00 208.52 159.71 208.19 157.22 206.44 Z  M 193.86 203.91 C 193.67 203.37 191.23 158.54 191.38 158.35 C 191.48 158.22 214.50 153.15 222.64 151.46 C 224.19 151.14 224.97 151.63 225.49 153.26 C 225.89 154.49 226.44 165.89 226.72 178.60 C 227.20 200.28 227.12 201.74 225.41 202.40 C 223.42 203.16 194.09 204.56 193.86 203.91 Z  M 178.09 194.00 C 173.54 184.22 170.65 176.02 171.46 175.21 C 171.71 174.96 172.53 174.99 173.28 175.28 C 175.23 176.02 183.21 197.29 182.82 200.69 C 182.55 203.05 181.80 201.98 178.09 194.00 Z  M 156.35 199.01 C 154.11 198.10 152.47 196.20 153.25 195.41 C 154.13 194.54 163.88 197.15 165.06 198.57 C 166.05 199.77 165.62 199.99 162.37 199.94 C 160.24 199.90 157.53 199.48 156.35 199.01 Z  M 161.25 192.88 C 157.37 191.76 157.18 190.89 160.46 189.37 C 162.37 188.48 163.34 188.55 164.95 189.68 C 167.20 191.25 167.73 194.05 165.75 193.91 C 165.06 193.86 163.04 193.40 161.25 192.88 Z  M 236.00 189.98 C 236.00 186.36 236.23 186.00 238.61 186.00 C 240.61 186.00 241.07 185.62 240.59 184.37 C 240.06 182.99 240.51 182.82 243.48 183.30 C 246.14 183.73 247.00 183.52 247.00 182.44 C 247.00 181.56 246.00 181.00 244.42 181.00 C 242.79 181.00 241.99 180.54 242.25 179.75 C 242.54 178.89 244.69 178.56 249.08 178.71 C 255.50 178.91 255.50 178.91 251.06 177.46 C 243.42 174.97 243.77 173.89 252.02 174.44 C 256.13 174.71 258.71 174.69 257.75 174.39 C 254.57 173.41 255.73 171.00 259.38 171.00 C 264.46 171.00 264.76 173.99 260.38 181.19 C 256.55 187.50 255.88 188.17 256.76 184.81 C 257.33 182.63 257.33 182.63 254.42 184.69 C 251.31 186.88 242.47 191.49 238.44 193.02 C 236.11 193.91 236.00 193.78 236.00 189.98 Z  M 155.00 181.92 C 155.00 181.33 156.45 179.42 158.21 177.67 C 160.70 175.22 161.50 174.86 161.76 176.08 C 162.42 179.31 160.17 183.00 157.52 183.00 C 156.14 183.00 155.00 182.52 155.00 181.92 Z  M 179.25 178.82 C 175.63 173.60 175.43 173.00 177.31 173.00 C 179.32 173.00 183.17 178.81 182.81 181.30 C 182.54 183.21 182.07 182.88 179.25 178.82 Z  M 149.24 179.75 C 147.88 178.07 149.30 174.60 152.15 172.61 C 155.06 170.57 156.00 170.58 156.00 172.63 C 156.00 174.56 152.19 181.00 151.04 181.00 C 150.60 181.00 149.79 180.44 149.24 179.75 Z  M 157.19 159.13 C 153.04 152.86 151.05 148.89 151.18 147.13 C 151.28 145.68 150.83 143.52 150.18 142.32 C 148.74 139.65 148.70 139.00 149.99 139.00 C 151.41 139.00 164.18 164.85 163.75 166.85 C 163.53 167.89 161.13 165.07 157.19 159.13 Z  M 167.85 161.50 C 165.84 158.20 162.47 151.99 160.36 147.71 C 157.10 141.10 156.75 139.77 158.01 138.98 C 160.02 137.71 161.19 139.34 167.19 151.73 C 170.36 158.28 172.02 162.96 171.82 164.73 C 171.52 167.32 171.26 167.10 167.85 161.50 Z  M 236.00 161.65 C 236.00 159.80 235.71 155.53 235.36 152.15 C 234.72 146.00 234.72 146.00 238.66 146.00 C 242.23 146.00 242.71 146.32 243.83 149.40 C 244.50 151.27 247.10 154.68 249.60 156.99 C 252.11 159.29 254.01 161.30 253.83 161.44 C 253.08 162.03 239.93 165.00 238.04 165.00 C 236.39 165.00 236.00 164.36 236.00 161.65 Z  M 147.81 158.50 C 147.38 154.79 147.85 154.25 149.80 156.20 C 151.46 157.86 151.32 162.00 149.61 162.00 C 148.76 162.00 148.06 160.63 147.81 158.50 Z  M 256.67 153.33 C 256.30 152.97 256.00 149.37 256.00 145.33 C 256.00 139.68 256.32 138.00 257.41 138.00 C 259.23 138.00 260.40 144.69 259.50 150.00 C 258.85 153.85 258.08 154.75 256.67 153.33 Z  M 248.53 149.09 C 247.87 147.01 248.81 141.99 249.86 142.02 C 250.21 142.02 251.10 142.41 251.82 142.87 C 252.91 143.56 252.88 144.36 251.63 147.35 C 249.89 151.50 249.38 151.79 248.53 149.09 Z  M 263.62 149.46 C 262.71 147.07 262.87 143.00 263.88 143.00 C 265.50 143.00 267.16 145.87 266.83 148.12 C 266.43 150.85 264.47 151.67 263.62 149.46 Z  M 168.32 143.90 C 167.12 141.22 166.54 138.78 167.03 138.48 C 168.51 137.56 171.16 142.67 170.82 145.81 C 170.51 148.66 170.42 148.59 168.32 143.90 Z  M 180.08 145.74 C 177.05 144.19 176.22 141.99 178.67 142.02 C 182.34 142.07 188.32 143.89 189.85 145.43 C 191.29 146.86 191.03 147.00 186.96 146.99 C 184.51 146.98 181.41 146.41 180.08 145.74 Z  M 216.00 138.98 C 216.00 135.99 220.56 134.13 222.68 136.25 C 224.15 137.72 223.97 137.98 220.52 139.43 C 215.83 141.39 216.00 141.40 216.00 138.98 Z  M 237.00 139.67 C 237.00 138.75 238.30 138.07 240.54 137.81 C 243.33 137.48 244.01 137.72 243.78 138.95 C 243.38 141.04 237.00 141.72 237.00 139.67 Z  M 232.56 133.09 C 234.95 130.59 245.00 128.49 245.00 130.49 C 245.00 132.13 240.66 133.96 235.12 134.66 C 230.50 135.24 230.50 135.24 232.56 133.09 Z  M 177.67 101.33 C 176.12 99.79 177.22 96.66 180.34 93.68 C 182.81 91.33 184.16 88.70 185.53 83.58 C 187.39 76.67 187.39 76.67 182.99 72.88 C 180.57 70.80 177.11 68.30 175.30 67.32 C 172.00 65.55 172.00 65.55 172.00 53.16 C 172.00 40.78 172.00 40.78 174.60 41.43 C 178.58 42.43 185.26 38.64 191.34 31.91 C 195.72 27.08 197.27 26.00 199.85 26.00 C 202.90 26.00 203.00 26.14 203.00 30.30 C 203.00 34.61 203.00 34.61 194.94 37.90 C 190.51 39.71 185.73 42.19 184.32 43.40 C 181.76 45.60 181.76 45.60 191.93 53.30 C 197.53 57.54 202.53 61.00 203.05 61.00 C 203.57 61.00 204.00 64.60 204.00 69.00 C 204.00 77.00 204.00 77.00 201.32 77.00 C 197.94 77.00 191.26 83.74 184.08 94.38 C 178.65 102.43 178.70 102.37 177.67 101.33 Z  M 76.69 100.30 C 75.70 100.04 75.04 99.53 75.23 99.17 C 75.41 98.80 76.18 97.26 76.94 95.75 C 77.70 94.24 78.94 93.00 79.69 93.00 C 81.34 93.00 90.40 88.52 94.25 85.80 C 96.17 84.45 97.00 82.99 97.00 80.98 C 97.00 74.87 94.74 67.81 91.36 63.39 C 88.97 60.25 88.10 58.25 88.54 56.88 C 88.89 55.78 89.47 55.03 89.85 55.19 C 90.22 55.36 93.54 56.61 97.22 57.98 C 103.91 60.45 103.91 60.45 103.71 73.45 C 103.50 86.45 103.50 86.45 108.10 87.12 C 114.17 88.01 119.00 90.57 119.00 92.91 C 119.00 94.43 117.94 94.89 113.25 95.45 C 110.09 95.82 102.00 97.23 95.28 98.56 C 83.28 100.96 80.30 101.23 76.69 100.30 Z  M 200.01 97.25 C 200.04 94.37 201.17 91.00 202.12 91.00 C 202.60 91.00 203.00 92.80 203.00 95.00 C 203.00 97.89 202.58 99.00 201.50 99.00 C 200.68 99.00 200.01 98.21 200.01 97.25 Z  M 122.44 90.52 C 120.76 89.23 120.70 88.90 122.00 87.99 C 123.36 87.04 128.70 87.37 129.80 88.47 C 130.05 88.71 129.98 89.61 129.65 90.46 C 128.90 92.42 124.97 92.45 122.44 90.52 Z  M 169.98 90.48 C 168.28 88.43 169.07 87.86 174.45 87.25 C 178.22 86.83 179.00 87.02 179.00 88.39 C 179.00 89.97 175.37 92.00 172.56 92.00 C 171.84 92.00 170.68 91.31 169.98 90.48 Z  M 145.00 89.65 C 145.00 87.69 148.33 85.00 150.76 85.00 C 153.32 85.00 154.89 88.82 152.86 90.11 C 150.65 91.50 145.00 91.18 145.00 89.65 Z  M 80.09 86.13 C 77.44 85.38 75.16 82.51 76.31 81.36 C 77.35 80.32 86.23 84.81 85.49 86.01 C 84.82 87.11 83.68 87.13 80.09 86.13 Z  M 164.00 84.41 C 164.00 82.40 172.23 78.00 175.99 78.00 C 179.30 78.00 179.30 78.01 177.42 80.09 C 174.91 82.87 172.29 84.20 167.75 85.04 C 164.96 85.56 164.00 85.39 164.00 84.41 Z  M 80.25 77.35 C 73.85 74.73 72.25 73.00 76.25 73.01 C 81.89 73.02 90.00 76.64 90.00 79.15 C 90.00 80.61 86.74 80.00 80.25 77.35 Z  M 112.00 77.37 C 112.00 76.55 112.74 71.12 113.64 65.32 C 114.97 56.81 115.07 53.80 114.14 49.80 C 112.42 42.32 112.65 37.24 114.75 36.59 C 117.64 35.70 133.64 34.17 147.86 33.43 C 158.71 32.86 161.38 32.99 162.09 34.12 C 162.57 34.88 162.98 43.29 162.98 52.80 C 163.00 70.10 163.00 70.10 159.70 71.48 C 155.38 73.29 142.14 75.66 129.00 76.99 C 123.22 77.57 117.04 78.23 115.25 78.46 C 112.84 78.77 112.00 78.48 112.00 77.37 Z  M 84.25 70.26 C 79.93 69.88 78.31 67.59 81.50 66.36 C 83.26 65.69 90.58 68.39 90.33 69.61 C 90.11 70.66 89.52 70.72 84.25 70.26 Z  M 78.00 57.17 C 78.00 56.17 79.19 54.26 80.64 52.92 C 83.29 50.50 83.29 50.50 82.64 53.88 C 82.29 55.73 82.00 57.64 82.00 58.12 C 82.00 58.61 81.10 59.00 80.00 59.00 C 78.73 59.00 78.00 58.33 78.00 57.17 Z  M 72.58 51.34 C 71.87 49.51 75.49 45.00 77.67 45.00 C 79.34 45.00 79.33 45.28 77.55 49.53 C 76.01 53.22 73.63 54.09 72.58 51.34 Z  M 200.00 48.07 C 200.00 47.56 200.79 46.94 201.75 46.69 C 202.71 46.44 201.59 46.18 199.25 46.12 C 196.27 46.03 195.00 45.57 195.00 44.56 C 195.00 42.76 195.59 42.43 200.25 41.59 C 204.00 40.91 204.00 40.91 204.00 44.95 C 204.00 48.33 203.67 49.00 202.00 49.00 C 200.90 49.00 200.00 48.58 200.00 48.07 Z  M 91.59 40.20 C 87.00 35.79 85.69 35.01 84.52 35.98 C 83.34 36.96 82.70 36.56 81.04 33.84 C 78.35 29.42 78.45 29.00 82.15 29.00 C 84.11 29.00 87.39 30.40 90.90 32.74 C 93.98 34.79 96.72 36.42 97.00 36.35 C 97.28 36.29 98.51 35.92 99.75 35.55 C 101.58 34.99 102.00 35.25 102.00 36.93 C 102.00 38.07 102.45 39.00 103.00 39.00 C 103.55 39.00 104.00 40.53 104.00 42.40 C 104.00 45.62 103.82 45.80 100.61 45.71 C 97.93 45.63 96.03 44.47 91.59 40.20 Z  M 175.41 31.51 C 174.76 28.90 175.60 18.06 176.53 17.13 C 177.69 15.98 178.47 18.62 178.82 24.85 C 179.12 30.07 178.85 31.88 177.64 32.88 C 176.31 33.99 175.99 33.79 175.41 31.51 Z  M 183.71 27.43 C 183.37 24.21 183.20 21.47 183.31 21.35 C 183.43 21.23 184.60 21.94 185.91 22.93 C 188.47 24.86 188.40 27.71 185.70 31.40 C 184.44 33.12 184.25 32.74 183.71 27.43 Z  M 80.90 23.89 C 74.94 21.81 71.00 18.85 71.00 16.46 C 71.00 12.96 98.49 15.66 107.01 20.00 C 110.52 21.80 111.00 21.79 126.26 19.78 C 140.94 17.85 142.08 17.82 144.46 19.38 C 149.50 22.69 147.44 23.59 131.61 25.02 C 115.94 26.43 107.46 26.26 106.00 24.50 C 104.39 22.56 95.91 22.58 90.50 24.53 C 88.30 25.32 86.50 25.94 86.50 25.91 C 86.50 25.87 83.98 24.96 80.90 23.89 Z  M 153.00 20.02 C 153.00 19.16 160.02 15.00 161.46 15.00 C 162.61 15.00 161.92 17.93 160.43 19.43 C 158.71 21.14 153.00 21.60 153.00 20.02 Z  M 196.00 19.25 C 192.09 17.29 190.68 14.00 193.75 14.00 C 195.93 14.00 200.39 18.33 199.86 19.93 C 199.63 20.61 198.24 20.37 196.00 19.25 Z "/>
</g>
</svg>