<?xml version="1.0" encoding="UTF-8" standalone="no"?>
<!DOCTYPE svg PUBLIC "-//W3C//DTD SVG 1.1//EN" "http://www.w3.org/Graphics/SVG/1.1/DTD/svg11.dtd" >
<svg xmlns="http://www.w3.org/2000/svg" xmlns:xlink="http://www.w3.org/1999/xlink" version="1.1" viewBox="0 0 256 256">
 <g >
 <path fill="currentColor"
d=" M 144.50 241.51 C 147.80 240.67 154.32 238.12 159.00 235.85 C 175.55 227.82 193.00 206.47 193.00 194.27 C 193.00 190.63 192.46 189.30 190.09 187.09 C 187.23 184.41 181.16 182.00 177.28 182.00 C 172.59 182.00 168.87 184.40 164.06 190.52 C 160.00 195.69 157.71 197.53 151.59 200.55 C 144.10 204.26 144.10 204.26 132.80 203.81 C 116.73 203.16 113.65 201.08 106.52 186.07 C 103.74 180.22 103.07 179.56 96.82 176.41 C 85.37 170.65 73.18 170.86 65.88 176.96 C 62.60 179.70 62.49 180.03 62.15 188.24 C 61.74 198.23 63.80 207.56 67.72 213.50 C 71.07 218.59 84.87 232.26 89.77 235.35 C 94.84 238.56 104.24 241.85 111.50 242.97 C 119.47 244.20 137.03 243.42 144.50 241.51 Z  M 203.09 216.78 C 215.81 208.28 232.00 189.48 235.61 179.00 C 238.27 171.29 233.31 164.61 223.41 162.55 C 219.24 161.69 209.63 165.34 205.46 169.38 C 201.10 173.60 197.55 183.65 197.47 192.00 C 197.41 197.54 196.80 199.68 193.35 206.50 C 189.51 214.07 189.37 214.67 190.65 217.75 C 192.51 222.20 195.29 221.99 203.09 216.78 Z  M 55.60 215.89 C 61.39 209.46 52.53 175.58 43.61 170.07 C 38.18 166.71 28.55 165.31 23.08 167.09 C 12.61 170.47 12.45 185.21 22.74 198.71 C 27.86 205.44 46.54 217.91 51.60 217.97 C 52.75 217.99 54.55 217.05 55.60 215.89 Z  M 143.09 196.66 C 150.39 194.45 159.00 189.78 161.70 186.58 C 164.03 183.81 164.18 183.06 163.57 177.14 C 162.60 167.63 161.55 166.12 152.50 161.27 C 148.65 159.21 146.12 158.60 141.50 158.61 C 133.65 158.63 119.69 162.55 115.81 165.82 C 112.80 168.35 112.77 168.46 113.20 176.50 C 113.66 185.29 114.34 186.77 120.28 191.96 C 126.87 197.71 134.46 199.28 143.09 196.66 Z  M 95.31 166.52 C 103.38 164.81 114.68 159.57 121.08 154.57 C 129.36 148.11 135.06 137.60 136.60 125.95 C 137.29 120.74 137.29 120.74 114.90 121.30 C 99.46 121.69 86.92 122.63 74.54 124.33 C 57.80 126.62 56.44 126.96 54.50 129.39 C 53.36 130.83 51.45 132.00 50.25 132.00 C 46.65 132.00 37.48 135.86 35.13 138.37 C 30.30 143.50 32.01 152.46 38.92 158.28 C 47.90 165.84 77.87 170.22 95.31 166.52 Z  M 204.77 160.49 C 213.56 158.42 220.46 154.66 227.10 148.32 C 234.25 141.50 237.34 134.87 237.27 126.50 C 237.20 117.86 234.81 112.89 227.63 106.43 C 219.51 99.13 208.18 93.63 193.82 90.02 C 173.31 84.87 162.03 83.64 135.00 83.61 C 113.80 83.59 107.94 83.94 91.50 86.24 C 49.69 92.10 34.01 96.45 27.72 103.92 C 25.56 106.48 25.31 107.45 26.01 110.53 C 27.62 117.66 31.53 119.53 47.00 120.56 C 54.90 121.08 60.54 120.59 80.50 117.68 C 108.47 113.60 137.01 112.09 151.00 113.96 C 173.82 117.00 179.57 128.21 164.61 140.46 C 159.74 144.45 159.05 146.67 161.38 150.86 C 163.13 154.02 170.36 158.76 175.41 160.06 C 177.66 160.63 179.95 161.27 180.50 161.47 C 183.16 162.45 199.21 161.80 204.77 160.49 Z  M 230.42 87.08 C 235.45 82.34 233.47 77.50 221.66 65.69 C 215.05 59.08 212.45 57.35 198.85 50.48 C 190.41 46.21 175.91 38.27 166.64 32.82 C 145.68 20.51 140.29 17.78 131.64 15.11 C 124.01 12.76 113.81 12.36 110.10 14.26 C 103.95 17.42 101.91 25.05 105.40 31.80 C 111.27 43.17 143.49 64.98 171.00 76.23 C 198.00 87.27 207.81 90.02 219.17 89.73 C 226.80 89.53 228.15 89.21 230.42 87.08 Z  M 53.86 83.49 C 82.28 77.95 95.56 70.75 101.57 57.63 C 103.85 52.64 103.88 52.26 102.46 46.16 C 100.59 38.12 99.62 36.37 96.02 34.51 C 89.70 31.24 79.61 33.01 60.30 40.77 C 36.33 50.41 26.34 58.03 19.89 71.61 C 16.71 78.31 16.16 80.29 16.94 82.33 C 18.13 85.46 19.25 85.74 31.24 85.88 C 37.97 85.96 44.97 85.22 53.86 83.49 Z "/>
</g>
</svg>