<?xml version="1.0" encoding="UTF-8" standalone="no"?>
<!DOCTYPE svg PUBLIC "-//W3C//DTD SVG 1.1//EN" "http://www.w3.org/Graphics/SVG/1.1/DTD/svg11.dtd" >
<svg xmlns="http://www.w3.org/2000/svg" xmlns:xlink="http://www.w3.org/1999/xlink" version="1.1" viewBox="0 0 256 256">
 <g >
 <path fill="currentColor"
d=" M 136.34 234.97 C 145.20 233.96 159.34 229.09 174.52 221.84 C 180.71 218.89 180.71 218.89 181.30 210.69 C 181.79 203.93 183.97 194.44 186.67 187.43 C 187.08 186.36 186.50 186.28 183.84 187.06 C 167.61 191.76 129.39 195.77 111.42 194.64 C 106.28 194.32 91.26 191.70 76.89 188.61 C 50.76 183.00 32.61 180.36 28.71 181.59 C 27.49 181.97 25.52 182.93 24.32 183.71 C 22.16 185.13 22.16 185.15 24.03 188.32 C 27.41 194.01 51.25 217.68 57.85 221.88 C 75.66 233.23 106.55 238.38 136.34 234.97 Z  M 194.30 223.38 C 202.31 219.31 221.85 200.80 228.33 191.16 C 233.67 183.19 234.66 180.01 233.02 176.05 C 229.04 166.45 210.02 169.09 198.00 180.90 C 193.99 184.84 192.86 186.91 190.10 195.36 C 186.76 205.58 184.21 220.49 185.31 223.36 C 186.11 225.46 190.17 225.47 194.30 223.38 Z  M 150.07 187.41 C 153.06 186.53 155.86 185.48 156.30 185.06 C 157.02 184.37 159.51 162.46 160.71 146.33 C 161.41 136.81 158.36 109.47 155.49 99.55 C 149.63 79.32 145.93 75.99 127.86 74.62 C 120.49 74.06 120.09 74.15 116.46 77.03 C 109.52 82.55 107.19 86.90 101.23 105.50 C 98.80 113.05 98.64 114.91 98.32 138.50 C 98.04 158.64 98.32 165.83 99.76 175.50 C 101.53 187.50 101.53 187.50 106.52 188.09 C 109.26 188.42 118.96 188.76 128.07 188.84 C 140.65 188.96 145.94 188.62 150.07 187.41 Z  M 91.56 172.75 C 91.19 170.96 90.64 162.86 90.33 154.75 C 90.03 146.64 89.66 140.00 89.52 140.00 C 89.37 140.00 87.08 140.96 84.43 142.13 C 80.21 144.00 78.35 144.20 69.55 143.74 C 58.07 143.14 52.19 141.21 48.50 136.81 C 40.83 127.70 52.03 118.63 71.00 118.61 C 78.04 118.60 80.46 119.04 85.12 121.18 C 90.73 123.77 90.73 123.77 91.39 115.00 C 91.76 110.17 93.19 102.30 94.58 97.50 C 95.97 92.70 96.97 88.70 96.81 88.60 C 96.64 88.51 90.65 88.71 83.50 89.06 C 51.98 90.60 20.38 103.05 12.57 117.00 C 9.81 121.94 9.50 123.37 9.50 131.00 C 9.50 142.07 11.63 145.86 22.34 153.88 C 41.30 168.08 62.76 175.58 85.36 175.90 C 92.23 176.00 92.23 176.00 91.56 172.75 Z  M 185.10 169.99 C 210.37 166.28 220.49 162.55 231.21 153.00 C 234.37 150.19 238.07 145.52 240.06 141.83 C 243.10 136.22 243.49 134.64 243.50 128.00 C 243.50 121.54 243.08 119.75 240.50 115.07 C 234.62 104.43 220.01 96.59 199.41 93.00 C 192.86 91.87 184.05 90.22 179.83 89.34 C 165.78 86.42 163.31 89.13 165.57 105.00 C 166.32 110.22 166.95 116.19 166.96 118.25 C 166.98 120.31 167.17 122.00 167.38 122.00 C 167.59 122.00 170.35 120.82 173.51 119.37 C 178.68 117.00 180.10 116.79 187.54 117.25 C 202.78 118.20 211.72 124.49 210.61 133.50 C 210.30 136.07 209.25 138.24 207.68 139.60 C 203.01 143.61 179.12 143.57 169.75 139.54 C 168.14 138.85 168.02 139.61 168.25 149.14 C 168.39 154.84 168.14 162.31 167.70 165.75 C 166.74 173.23 165.36 172.89 185.10 169.99 Z  M 207.37 81.78 C 208.97 79.83 209.16 78.34 208.70 71.50 C 207.80 58.16 202.21 45.86 191.92 34.60 C 182.46 24.25 173.56 20.50 169.40 25.12 C 167.78 26.92 167.53 28.59 167.74 36.49 C 168.29 58.22 174.87 73.81 186.53 81.02 C 193.59 85.38 204.10 85.76 207.37 81.78 Z  M 80.87 81.38 C 88.39 77.63 90.46 73.93 93.13 59.50 C 96.88 39.16 95.79 23.67 90.46 21.62 C 84.63 19.38 73.00 23.52 68.49 29.43 C 65.17 33.78 59.68 45.90 56.97 54.85 C 53.26 67.12 55.50 79.42 62.05 82.73 C 66.37 84.92 75.02 84.29 80.87 81.38 Z  M 230.64 74.50 C 231.86 71.32 229.65 67.28 223.49 61.43 C 217.09 55.35 205.00 46.28 205.00 47.55 C 205.00 47.92 205.94 49.90 207.09 51.95 C 208.24 53.99 210.16 59.88 211.36 65.04 C 213.82 75.66 213.89 75.72 224.28 75.90 C 228.57 75.97 230.21 75.61 230.64 74.50 Z  M 50.02 64.50 C 50.47 57.62 51.13 55.35 54.77 48.27 C 57.10 43.75 59.00 39.80 59.00 39.51 C 59.00 38.65 49.89 43.53 45.48 46.75 C 38.99 51.48 29.00 61.10 27.44 64.11 C 26.65 65.65 26.00 68.02 26.00 69.39 C 26.00 72.35 27.98 72.77 41.00 72.61 C 49.50 72.50 49.50 72.50 50.02 64.50 Z  M 170.00 67.10 C 170.00 66.89 168.61 62.39 166.91 57.10 C 164.82 50.59 163.65 44.58 163.28 38.42 C 162.73 29.34 162.73 29.34 150.68 27.02 C 139.78 24.92 136.93 24.76 120.92 25.34 C 111.18 25.69 102.44 26.28 101.50 26.64 C 100.05 27.19 99.86 28.37 100.22 34.40 C 100.45 38.30 100.07 46.22 99.36 52.00 C 98.65 57.78 98.05 63.62 98.03 65.00 C 98.00 67.50 98.00 67.50 134.00 67.50 C 153.80 67.50 170.00 67.32 170.00 67.10 Z "/>
</g>
</svg>