<?xml version="1.0" encoding="UTF-8" standalone="no"?>
<!DOCTYPE svg PUBLIC "-//W3C//DTD SVG 1.1//EN" "http://www.w3.org/Graphics/SVG/1.1/DTD/svg11.dtd" >
<svg xmlns="http://www.w3.org/2000/svg" xmlns:xlink="http://www.w3.org/1999/xlink" version="1.1" viewBox="0 0 256 256">
 <g >
 <path fill="currentColor"
d=" M 150.22 234.83 C 160.00 227.08 168.44 210.94 168.44 199.97 C 168.44 190.80 165.84 185.70 158.52 180.47 C 153.94 177.21 151.77 174.88 150.61 171.98 C 148.12 165.76 147.54 152.76 149.36 144.18 C 152.23 130.70 156.70 126.48 172.28 122.53 C 181.23 120.26 182.90 120.14 195.22 120.89 C 210.25 121.81 215.33 120.99 225.69 115.95 C 236.19 110.84 239.64 104.46 238.75 91.85 C 237.93 80.17 231.17 68.74 215.02 51.70 C 204.44 40.53 192.24 31.35 179.50 24.98 C 154.98 12.72 141.64 14.36 126.70 31.50 C 116.11 43.66 114.53 47.78 111.00 72.57 C 106.89 101.45 106.78 124.04 110.65 143.90 C 113.51 158.60 113.92 167.13 112.65 185.00 C 111.90 195.56 112.03 197.29 114.32 206.12 C 115.70 211.41 118.01 218.25 119.46 221.32 C 124.08 231.10 135.98 239.63 143.35 238.46 C 144.92 238.21 148.01 236.58 150.22 234.83 Z  M 200.83 221.40 C 207.57 218.04 220.93 205.45 227.14 196.61 C 229.81 192.80 232.00 189.27 232.00 188.77 C 232.00 188.26 229.50 185.23 226.45 182.03 C 221.73 177.09 219.88 173.89 214.10 160.73 C 210.37 152.22 205.82 143.19 204.01 140.66 C 193.43 125.93 176.85 125.56 170.12 139.91 C 167.76 144.95 167.50 146.64 167.54 157.00 C 167.58 169.99 169.37 179.35 174.59 193.80 C 182.18 214.82 187.91 224.00 193.44 224.00 C 194.63 224.00 197.96 222.83 200.83 221.40 Z  M 65.69 221.21 C 67.70 219.93 68.80 215.67 68.13 211.69 C 67.57 208.33 66.36 207.01 57.50 200.15 C 46.02 191.26 43.08 186.99 42.27 178.06 C 41.54 170.00 42.57 165.56 46.11 161.52 C 49.13 158.09 49.13 158.09 47.56 144.59 C 46.70 137.17 46.00 129.39 46.00 127.30 C 46.00 125.21 45.10 121.13 44.00 118.24 C 41.36 111.28 41.46 108.96 44.91 98.76 C 46.51 94.02 48.33 86.85 48.96 82.82 C 50.19 74.84 53.59 66.41 56.90 63.10 C 61.01 58.99 71.00 61.28 71.00 66.34 C 71.00 67.56 67.57 74.18 63.39 81.03 C 47.35 107.29 46.36 113.48 56.27 125.26 C 61.64 131.64 64.56 140.77 63.50 147.83 C 62.94 151.61 61.76 153.50 56.59 158.94 C 44.73 171.42 45.04 184.41 57.49 195.88 C 69.05 206.54 84.99 208.93 94.00 201.35 C 98.60 197.48 100.68 192.51 103.46 178.81 C 105.61 168.15 105.82 165.55 104.95 159.97 C 103.41 150.12 100.33 141.56 94.19 130.00 C 88.99 120.19 88.59 118.96 88.19 111.27 C 87.64 100.88 88.99 95.50 94.58 85.78 C 99.91 76.52 105.22 61.21 105.27 55.00 C 105.29 52.52 104.32 46.90 103.11 42.49 C 101.12 35.26 100.32 33.88 94.84 28.24 C 89.10 22.34 88.52 22.00 84.14 22.02 C 70.51 22.09 45.28 40.73 32.17 60.41 C 24.43 72.02 13.29 95.18 10.95 104.50 C 6.72 121.38 7.33 144.81 12.41 159.72 C 18.72 178.29 34.05 200.25 50.02 213.61 C 58.88 221.03 62.91 222.98 65.69 221.21 Z  M 231.50 158.85 C 239.77 152.61 244.22 144.28 244.38 134.76 C 244.47 129.85 244.11 128.65 241.90 126.44 C 238.36 122.90 232.17 121.61 227.11 123.35 C 221.23 125.38 214.19 129.77 212.36 132.57 C 210.84 134.90 210.89 135.36 213.32 140.77 C 222.11 160.35 224.08 164.07 225.26 163.36 C 225.94 162.96 228.75 160.93 231.50 158.85 Z  M 181.20 85.45 C 154.29 80.54 145.42 75.31 143.50 63.24 C 142.94 59.71 143.26 58.23 145.40 54.58 C 149.21 48.09 153.66 45.75 163.26 45.19 C 167.76 44.93 173.67 45.27 176.86 45.97 C 188.44 48.52 206.26 58.54 211.54 65.47 C 216.82 72.39 215.14 81.55 207.92 85.25 C 203.78 87.37 192.17 87.45 181.20 85.45 Z  M 201.25 76.61 C 202.41 75.73 203.00 73.91 203.00 71.22 C 203.00 65.62 199.61 61.91 190.31 57.31 C 183.58 53.98 181.76 53.54 173.39 53.17 C 162.48 52.69 159.69 53.85 158.13 59.49 C 156.29 66.14 159.57 72.13 166.55 74.88 C 173.83 77.74 198.16 78.96 201.25 76.61 Z "/>
</g>
</svg>