<?xml version="1.0" encoding="UTF-8" standalone="no"?>
<!DOCTYPE svg PUBLIC "-//W3C//DTD SVG 1.1//EN" "http://www.w3.org/Graphics/SVG/1.1/DTD/svg11.dtd" >
<svg xmlns="http://www.w3.org/2000/svg" xmlns:xlink="http://www.w3.org/1999/xlink" version="1.1" viewBox="0 0 256 256">
 <g >
 <path fill="currentColor"
d=" M 69.24 182.78 C 69.50 117.56 69.50 117.56 76.57 124.24 C 80.46 127.91 85.63 133.63 88.05 136.96 C 92.46 143.01 92.46 143.01 96.48 138.30 C 98.69 135.71 100.50 133.33 100.50 133.00 C 100.50 132.67 93.41 125.95 84.75 118.07 C 69.00 103.73 69.00 103.73 69.00 91.72 C 69.00 79.71 69.00 79.71 87.00 80.42 C 105.00 81.13 105.00 81.13 105.00 75.94 C 105.00 70.74 105.00 70.74 86.95 71.47 C 68.90 72.20 68.90 72.20 69.21 46.85 C 69.38 32.91 69.90 20.71 70.36 19.75 C 71.13 18.18 70.57 18.00 64.85 18.00 C 58.49 18.00 58.49 18.00 58.49 44.75 C 58.50 71.50 58.50 71.50 35.75 71.50 C 13.00 71.50 13.00 71.50 13.00 76.01 C 13.00 80.51 13.00 80.51 35.00 80.15 C 60.88 79.72 58.91 78.13 53.45 95.02 C 47.85 112.34 25.30 153.97 14.00 167.84 C 11.16 171.32 8.99 174.28 9.17 174.41 C 9.35 174.54 12.07 175.60 15.20 176.77 C 20.91 178.90 20.91 178.90 25.82 170.20 C 37.60 149.34 42.19 140.74 47.78 129.00 C 60.24 102.83 59.09 97.75 58.78 177.75 C 58.50 248.00 58.50 248.00 63.74 248.00 C 68.99 248.00 68.99 248.00 69.24 182.78 Z  M 111.20 235.00 C 110.74 224.00 110.74 224.00 128.45 224.00 C 146.16 224.00 146.16 224.00 145.88 234.25 C 145.60 244.50 145.60 244.50 151.05 244.79 C 156.50 245.08 156.50 245.08 156.50 192.53 C 156.50 151.03 156.24 140.08 155.26 140.46 C 153.53 141.12 103.40 141.37 102.35 140.72 C 101.88 140.43 101.50 164.00 101.50 193.09 C 101.50 246.00 101.50 246.00 106.57 246.00 C 111.65 246.00 111.65 246.00 111.20 235.00 Z  M 185.63 243.25 C 185.35 242.29 184.82 237.56 184.45 232.75 C 183.76 224.00 183.76 224.00 205.03 224.00 C 226.30 224.00 226.30 224.00 225.69 234.00 C 225.08 244.00 225.08 244.00 230.83 244.00 C 236.58 244.00 236.58 244.00 235.75 234.75 C 234.82 224.32 235.43 149.77 236.51 143.30 C 237.20 139.09 237.20 139.09 233.35 139.80 C 228.21 140.74 185.82 140.70 179.50 139.75 C 174.50 139.00 174.50 139.00 174.50 192.00 C 174.50 245.00 174.50 245.00 180.32 245.00 C 185.38 245.00 186.07 244.77 185.63 243.25 Z  M 170.50 109.52 C 190.85 109.53 210.56 109.93 214.30 110.42 C 221.11 111.30 221.11 111.30 220.30 105.90 C 219.22 98.61 219.28 41.98 220.38 34.64 C 221.26 28.77 221.26 28.77 214.88 29.64 C 206.43 30.78 134.52 30.75 125.15 29.60 C 117.80 28.69 117.80 28.69 118.65 36.60 C 119.77 47.02 119.74 94.49 118.61 103.85 C 117.72 111.20 117.72 111.20 125.61 110.35 C 129.95 109.88 150.15 109.51 170.50 109.52 Z  M 111.00 182.50 C 111.00 150.00 111.00 150.00 128.50 150.00 C 146.00 150.00 146.00 150.00 146.00 182.50 C 146.00 215.00 146.00 215.00 128.50 215.00 C 111.00 215.00 111.00 215.00 111.00 182.50 Z  M 184.00 182.50 C 184.00 150.00 184.00 150.00 205.00 150.00 C 226.00 150.00 226.00 150.00 226.00 182.50 C 226.00 215.00 226.00 215.00 205.00 215.00 C 184.00 215.00 184.00 215.00 184.00 182.50 Z  M 129.00 70.00 C 129.00 40.00 129.00 40.00 169.00 40.00 C 209.00 40.00 209.00 40.00 209.00 70.00 C 209.00 100.00 209.00 100.00 169.00 100.00 C 129.00 100.00 129.00 100.00 129.00 70.00 Z "/>
</g>
</svg>