<?xml version="1.0" encoding="UTF-8" standalone="no"?>
<!DOCTYPE svg PUBLIC "-//W3C//DTD SVG 1.1//EN" "http://www.w3.org/Graphics/SVG/1.1/DTD/svg11.dtd" >
<svg xmlns="http://www.w3.org/2000/svg" xmlns:xlink="http://www.w3.org/1999/xlink" version="1.1" viewBox="0 0 256 256">
 <g >
 <path fill="currentColor"
d=" M 86.97 222.80 C 86.28 219.89 84.86 214.80 83.80 211.50 C 75.24 184.68 70.40 145.85 71.14 110.00 C 71.50 92.50 71.50 92.50 65.68 92.20 C 62.49 92.03 60.01 91.50 60.18 91.02 C 60.36 90.53 66.30 84.00 73.40 76.50 C 81.40 68.03 91.18 59.05 99.19 52.81 C 106.29 47.28 111.96 42.64 111.80 42.49 C 111.00 41.78 71.88 27.79 71.59 28.12 C 71.41 28.33 69.03 32.10 66.30 36.50 C 55.68 53.65 39.52 83.73 32.07 100.21 C 27.77 109.72 22.80 120.56 21.01 124.30 C 19.23 128.04 17.93 131.25 18.13 131.43 C 18.76 131.99 28.91 137.00 29.42 137.00 C 29.69 137.00 33.57 130.81 38.04 123.25 C 49.18 104.40 57.40 93.03 57.82 95.86 C 58.00 97.04 57.43 100.46 56.55 103.46 C 54.77 109.60 52.05 126.76 49.09 150.50 C 47.21 165.54 44.37 218.70 45.38 219.71 C 45.99 220.32 87.39 228.79 87.86 228.40 C 88.06 228.24 87.66 225.72 86.97 222.80 Z  M 170.99 223.47 C 183.92 221.65 203.58 216.78 218.50 211.70 C 228.50 208.30 228.50 208.30 228.18 204.90 C 228.00 203.03 227.78 191.51 227.68 179.29 C 227.50 157.08 227.50 157.08 221.58 163.79 C 202.57 185.32 190.67 193.41 170.45 198.54 C 159.55 201.30 152.30 201.67 149.48 199.61 C 147.85 198.41 147.75 197.85 148.77 195.60 C 149.43 194.16 160.46 182.07 173.28 168.74 C 186.11 155.41 197.61 143.05 198.84 141.29 C 203.99 133.91 206.44 120.95 203.94 114.32 C 202.52 110.54 197.35 105.26 192.77 102.90 C 178.45 95.52 154.42 96.94 129.86 106.60 C 124.71 108.63 119.97 110.78 119.32 111.39 C 118.38 112.29 107.00 151.81 107.00 154.20 C 107.00 154.57 112.06 151.29 118.25 146.90 C 131.37 137.61 150.65 127.72 160.17 125.38 C 167.97 123.47 176.72 124.15 180.14 126.91 C 183.41 129.56 182.87 135.19 178.77 141.20 C 173.83 148.47 146.74 172.42 130.70 183.70 C 120.61 190.80 115.36 196.09 111.65 202.91 C 108.67 208.38 108.04 213.34 109.90 216.81 C 111.49 219.79 116.71 223.21 121.94 224.71 C 127.84 226.40 155.04 225.71 170.99 223.47 Z  M 129.09 99.41 C 130.10 99.13 131.16 96.84 131.96 93.23 C 132.67 90.08 134.29 85.42 135.58 82.87 C 137.68 78.70 138.33 78.18 142.21 77.60 C 169.36 73.55 184.61 73.03 200.24 75.64 C 205.64 76.54 210.19 77.10 210.35 76.89 C 210.50 76.67 213.27 69.97 216.50 62.00 C 219.72 54.02 222.99 45.98 223.75 44.12 C 225.10 40.82 225.08 40.75 222.82 41.24 C 221.54 41.52 215.55 42.71 209.50 43.90 C 203.45 45.09 191.97 47.62 184.00 49.52 C 159.57 55.33 142.67 59.01 142.26 58.60 C 141.80 58.13 146.98 47.52 153.51 35.54 C 158.16 27.00 158.16 27.00 149.18 27.00 C 140.19 27.00 140.19 27.00 135.27 34.75 C 124.28 52.04 105.96 83.07 101.56 91.87 C 96.86 101.23 96.86 101.23 112.18 100.55 C 120.61 100.17 128.22 99.66 129.09 99.41 Z "/>
</g>
</svg>