<?xml version="1.0" encoding="UTF-8" standalone="no"?>
<!DOCTYPE svg PUBLIC "-//W3C//DTD SVG 1.1//EN" "http://www.w3.org/Graphics/SVG/1.1/DTD/svg11.dtd" >
<svg xmlns="http://www.w3.org/2000/svg" xmlns:xlink="http://www.w3.org/1999/xlink" version="1.1" viewBox="0 0 256 256">
 <g >
 <path fill="currentColor"
d=" M 192.25 234.50 C 204.00 230.89 204.00 230.89 204.00 222.19 C 203.99 209.26 201.37 183.14 198.49 167.39 C 197.10 159.75 195.75 152.94 195.51 152.25 C 194.86 150.43 195.44 150.56 210.49 155.59 C 218.05 158.11 224.54 159.80 224.93 159.34 C 225.32 158.88 226.39 155.22 227.31 151.21 C 228.24 147.20 231.24 139.15 234.00 133.31 C 236.75 127.48 239.00 122.56 239.00 122.38 C 239.00 122.19 232.81 122.09 225.25 122.14 C 216.65 122.20 207.76 121.62 201.50 120.58 C 189.16 118.52 180.00 116.05 180.00 114.77 C 180.00 114.24 180.83 112.61 181.85 111.15 C 184.08 107.97 196.00 88.09 196.00 87.56 C 196.00 87.15 185.29 81.00 184.57 81.00 C 184.32 81.00 181.19 85.39 177.61 90.75 C 174.04 96.11 169.55 102.02 167.63 103.88 C 164.13 107.27 164.13 107.27 158.32 103.99 C 155.12 102.18 148.51 98.02 143.62 94.74 C 134.75 88.78 134.75 88.78 130.16 93.36 C 125.58 97.95 125.58 97.95 128.54 101.06 C 130.17 102.77 135.89 107.80 141.25 112.24 C 146.61 116.68 151.00 120.48 151.00 120.68 C 151.00 120.88 148.33 122.77 145.07 124.87 C 137.14 130.00 116.78 138.65 106.67 141.18 C 102.18 142.31 98.39 143.33 98.25 143.45 C 98.11 143.57 100.96 147.44 104.59 152.04 C 108.22 156.64 112.80 163.22 114.78 166.65 C 118.31 172.80 118.40 172.87 120.55 171.20 C 137.53 157.95 136.47 158.54 136.82 162.00 C 137.00 163.74 135.97 172.70 134.54 181.91 C 133.11 191.13 131.52 203.35 131.01 209.08 C 129.95 220.75 129.69 240.00 130.58 240.00 C 130.90 240.00 138.15 236.63 146.69 232.52 C 159.90 226.16 162.11 224.77 161.47 223.27 C 159.14 217.85 155.86 204.61 154.42 194.76 C 152.81 183.87 152.90 166.32 154.61 155.81 C 155.21 152.11 155.21 152.11 150.17 151.81 C 145.13 151.50 145.13 151.50 155.25 142.40 C 165.36 133.30 165.36 133.30 177.18 140.40 C 183.68 144.30 189.00 147.80 189.00 148.17 C 189.00 148.54 187.43 149.36 185.50 150.00 C 182.94 150.85 182.00 151.74 181.99 153.33 C 181.98 154.52 181.32 164.95 180.52 176.50 C 178.84 200.75 176.04 218.67 171.91 231.60 C 170.31 236.61 169.00 240.97 169.00 241.29 C 169.00 241.61 171.59 241.02 174.75 239.99 C 177.91 238.95 185.79 236.48 192.25 234.50 Z  M 48.14 229.84 C 60.56 226.12 66.82 213.28 74.40 176.00 C 77.76 159.50 77.76 159.50 85.77 158.60 C 93.78 157.69 93.78 157.69 94.88 145.10 C 96.34 128.46 96.70 116.00 95.74 116.00 C 95.31 116.00 91.37 117.81 86.98 120.01 C 82.59 122.22 79.00 123.68 79.01 123.26 C 79.01 122.84 79.68 117.55 80.49 111.50 C 81.30 105.45 81.97 100.13 81.98 99.67 C 81.99 99.21 83.24 99.07 84.75 99.36 C 97.10 101.67 96.43 102.09 98.94 90.29 C 100.20 84.35 102.32 75.73 103.65 71.12 C 104.98 66.51 105.86 62.53 105.61 62.28 C 105.36 62.02 100.20 63.43 94.15 65.41 C 88.09 67.38 82.94 69.00 82.70 69.00 C 82.46 69.00 81.97 61.91 81.60 53.25 C 81.24 44.59 80.67 34.45 80.34 30.72 C 79.74 23.94 79.74 23.94 77.12 25.67 C 71.50 29.36 59.15 35.96 52.00 39.09 C 47.88 40.89 44.38 42.44 44.23 42.54 C 44.08 42.63 45.39 46.03 47.14 50.10 C 48.89 54.17 51.76 62.04 53.52 67.60 C 56.72 77.69 56.72 77.69 52.61 79.83 C 50.35 81.01 44.45 83.59 39.50 85.56 C 34.55 87.54 29.21 89.68 27.64 90.32 C 24.78 91.50 24.78 91.50 25.21 99.74 C 25.45 104.27 25.88 108.21 26.16 108.50 C 26.45 108.79 33.76 106.99 42.41 104.51 C 51.05 102.03 58.74 100.00 59.50 100.00 C 61.04 100.00 61.60 103.35 62.52 118.00 C 62.84 123.22 63.33 128.24 63.59 129.15 C 63.93 130.32 61.08 133.11 53.78 138.76 C 30.73 156.62 21.74 170.48 19.03 192.30 C 16.71 210.93 22.12 223.06 35.43 229.11 C 40.20 231.27 42.85 231.43 48.14 229.84 Z  M 132.33 83.51 C 139.93 81.61 150.79 79.37 156.46 78.53 C 170.27 76.48 193.15 76.53 203.77 78.64 C 208.33 79.54 212.18 80.11 212.34 79.89 C 213.83 77.92 224.55 45.41 223.81 45.14 C 222.02 44.48 200.63 47.06 191.00 49.11 C 174.08 52.70 174.61 52.67 175.32 49.88 C 175.65 48.54 176.24 39.43 176.62 29.64 C 177.32 11.83 177.32 11.83 164.39 18.30 C 157.28 21.86 149.56 25.35 147.23 26.05 C 144.91 26.75 143.00 27.53 143.00 27.79 C 143.00 28.04 145.20 31.24 147.89 34.88 C 152.99 41.77 160.53 54.80 159.83 55.50 C 159.61 55.72 149.21 59.17 136.72 63.17 C 114.00 70.44 114.00 70.44 114.00 79.34 C 114.00 88.09 114.04 88.22 116.25 87.59 C 117.49 87.24 124.72 85.40 132.33 83.51 Z  M 35.05 206.05 C 32.02 203.02 30.71 196.79 32.05 191.75 C 33.72 185.49 37.88 178.34 42.06 174.57 C 45.77 171.21 59.06 163.00 60.77 163.00 C 62.18 163.00 58.41 181.60 55.47 189.18 C 52.71 196.29 46.60 204.12 41.94 206.53 C 38.24 208.45 37.39 208.39 35.05 206.05 Z "/>
</g>
</svg>