<?xml version="1.0" encoding="UTF-8" standalone="no"?>
<!DOCTYPE svg PUBLIC "-//W3C//DTD SVG 1.1//EN" "http://www.w3.org/Graphics/SVG/1.1/DTD/svg11.dtd" >
<svg xmlns="http://www.w3.org/2000/svg" xmlns:xlink="http://www.w3.org/1999/xlink" version="1.1" viewBox="0 0 256 256">
 <g >
 <path fill="currentColor"
d=" M 127.63 217.03 C 132.43 207.08 140.25 183.26 143.43 168.88 C 147.01 152.68 147.15 153.35 140.25 152.75 C 137.09 152.47 134.20 152.42 133.83 152.63 C 133.46 152.85 132.24 156.96 131.10 161.79 C 128.31 173.68 125.67 181.09 121.81 187.83 C 117.23 195.84 104.40 208.84 96.56 213.43 C 92.95 215.54 90.00 217.59 90.00 217.99 C 90.00 218.39 92.59 220.32 95.75 222.28 C 98.91 224.25 104.65 228.54 108.49 231.83 C 115.49 237.81 115.49 237.81 119.75 231.15 C 122.10 227.49 125.64 221.14 127.63 217.03 Z  M 90.94 210.13 C 93.81 205.53 95.79 201.44 95.33 201.05 C 94.87 200.65 92.32 199.53 89.64 198.54 C 84.17 196.53 79.01 192.36 74.83 186.60 C 72.37 183.20 72.00 181.80 72.00 175.71 C 72.00 168.72 72.00 168.72 80.75 169.39 C 85.56 169.75 91.33 170.30 93.56 170.61 C 97.61 171.17 97.61 171.17 103.32 155.83 C 106.45 147.40 109.01 140.21 109.01 139.85 C 109.00 138.88 82.96 142.47 74.43 144.61 C 71.81 145.26 71.81 145.26 72.49 138.38 C 72.86 134.60 73.39 130.67 73.68 129.65 C 74.23 127.69 74.23 127.69 90.07 129.59 C 94.65 130.14 94.65 130.14 97.95 117.53 C 99.77 110.60 100.96 104.63 100.60 104.26 C 99.09 102.76 59.60 113.19 47.75 118.23 C 43.00 120.25 43.00 120.25 43.00 127.23 C 43.00 133.97 43.08 134.20 45.25 133.66 C 46.49 133.35 49.34 132.80 51.59 132.45 C 55.69 131.79 55.69 131.79 54.30 140.65 C 53.37 146.60 52.36 149.92 51.21 150.80 C 50.27 151.51 45.34 154.34 40.25 157.08 C 31.00 162.07 31.00 162.07 31.00 168.93 C 31.00 175.79 31.00 175.79 38.25 173.53 C 52.04 169.23 50.61 168.38 51.32 181.27 C 52.41 201.28 55.89 209.95 68.60 224.31 C 77.28 234.11 77.28 234.11 81.49 226.31 C 83.81 222.01 88.06 214.73 90.94 210.13 Z  M 215.01 227.87 C 221.30 224.97 226.22 220.45 228.99 215.02 C 230.63 211.81 237.27 187.94 236.69 187.35 C 236.57 187.24 232.21 186.41 226.99 185.52 C 221.77 184.62 215.41 183.28 212.86 182.53 C 208.22 181.17 208.22 181.17 207.84 192.03 C 207.53 201.11 207.13 203.35 205.38 205.70 C 201.06 211.50 194.73 211.09 191.30 204.79 C 187.09 197.06 190.03 180.32 199.57 157.68 C 201.44 153.26 202.86 149.53 202.73 149.40 C 202.61 149.28 197.78 149.56 192.00 150.04 C 186.22 150.52 179.89 150.93 177.92 150.96 C 174.33 151.00 174.33 151.00 173.16 170.25 C 172.15 186.84 172.21 190.95 173.57 200.00 C 176.34 218.45 181.51 225.72 195.00 230.12 C 199.61 231.62 209.21 230.54 215.01 227.87 Z  M 158.25 220.45 C 168.59 219.71 167.66 223.60 165.44 190.50 C 163.58 162.74 162.81 155.96 161.50 155.87 C 160.95 155.84 158.43 156.08 155.90 156.42 C 151.29 157.03 151.29 157.03 150.59 169.66 C 149.61 187.30 146.89 201.28 142.52 211.22 C 140.51 215.77 138.61 220.11 138.28 220.87 C 137.81 221.97 138.84 222.12 143.60 221.65 C 146.84 221.33 153.44 220.79 158.25 220.45 Z  M 158.01 140.79 C 161.04 139.31 167.78 134.45 173.00 130.00 C 185.18 119.61 189.01 118.48 188.99 125.31 C 188.98 129.43 186.81 132.59 179.84 138.61 C 176.73 141.30 174.33 143.66 174.52 143.85 C 174.90 144.23 202.65 142.20 207.75 141.41 C 211.00 140.91 211.00 140.91 211.00 134.77 C 211.00 127.81 208.65 117.30 205.86 111.77 C 203.11 106.32 195.51 103.07 188.91 104.52 C 187.21 104.89 181.34 108.58 175.86 112.70 C 160.28 124.44 155.54 127.00 149.42 127.00 C 142.70 127.00 139.37 124.63 140.40 120.56 C 141.41 116.50 149.41 109.24 159.36 103.34 C 168.06 98.18 168.06 98.18 157.53 90.02 C 151.74 85.54 147.00 81.61 147.00 81.29 C 147.00 79.49 186.45 84.12 196.36 87.07 C 200.13 88.20 203.32 88.98 203.45 88.81 C 203.58 88.64 206.63 80.85 210.23 71.50 C 216.78 54.50 216.78 54.50 207.96 54.21 C 202.12 54.02 195.13 54.65 187.32 56.07 C 167.10 59.74 169.26 60.09 170.10 53.34 C 170.50 50.13 170.87 41.73 170.92 34.68 C 170.99 22.93 170.85 21.91 169.25 22.37 C 168.29 22.65 161.65 24.55 154.50 26.60 C 147.35 28.65 141.34 30.46 141.14 30.61 C 140.94 30.76 143.26 34.85 146.30 39.69 C 151.56 48.09 156.89 60.44 155.75 61.58 C 155.45 61.88 151.45 62.82 146.86 63.68 C 142.26 64.54 133.55 66.68 127.50 68.43 C 116.50 71.62 116.50 71.62 116.21 79.44 C 115.91 87.17 115.94 87.25 118.21 86.59 C 123.47 85.06 133.69 83.03 136.23 83.02 C 138.96 83.00 138.96 83.00 133.00 92.08 C 127.03 101.17 122.94 111.49 121.51 121.07 C 120.25 129.49 124.33 138.57 131.00 142.20 C 136.45 145.17 150.61 144.43 158.01 140.79 Z  M 42.00 116.46 C 47.23 107.84 53.35 98.23 55.61 95.08 C 59.67 89.45 59.82 89.35 66.61 88.17 C 82.23 85.46 89.89 84.83 99.11 85.47 C 108.73 86.14 108.73 86.14 112.94 70.98 C 115.26 62.64 116.95 55.62 116.71 55.38 C 116.04 54.70 90.48 62.42 81.83 65.91 C 77.62 67.61 73.67 69.00 73.05 69.00 C 71.36 69.00 78.33 58.66 87.39 47.71 C 91.85 42.33 95.61 37.60 95.75 37.20 C 96.01 36.48 69.02 22.62 68.50 23.20 C 67.95 23.81 43.59 75.90 37.49 89.50 C 29.08 108.26 20.76 128.11 21.17 128.44 C 21.35 128.59 23.51 130.15 25.97 131.91 C 29.79 134.63 30.60 134.89 31.47 133.61 C 32.04 132.79 36.77 125.07 42.00 116.46 Z "/>
</g>
</svg>