<?xml version="1.0" encoding="UTF-8" standalone="no"?>
<!DOCTYPE svg PUBLIC "-//W3C//DTD SVG 1.1//EN" "http://www.w3.org/Graphics/SVG/1.1/DTD/svg11.dtd" >
<svg xmlns="http://www.w3.org/2000/svg" xmlns:xlink="http://www.w3.org/1999/xlink" version="1.1" viewBox="0 0 256 256">
 <g >
 <path fill="currentColor"
d=" M 156.79 236.93 C 180.66 234.31 195.90 229.20 207.37 219.98 C 214.81 213.99 234.08 194.56 239.83 187.24 C 243.17 183.00 243.17 183.00 233.25 183.00 C 227.80 183.00 223.07 182.74 222.75 182.42 C 222.43 182.10 224.83 179.14 228.08 175.84 C 238.75 165.00 245.00 148.11 245.00 130.09 C 245.00 119.97 242.58 101.45 240.15 93.00 C 237.05 82.22 227.99 62.14 225.25 59.98 C 218.49 54.66 172.67 43.00 158.54 43.00 C 156.77 43.00 156.01 42.57 156.35 41.75 C 158.13 37.39 161.31 26.99 160.94 26.70 C 160.04 25.98 129.85 15.82 129.61 16.15 C 129.47 16.34 127.19 22.35 124.55 29.50 C 118.26 46.51 113.25 57.07 107.86 64.69 C 101.81 73.24 84.76 92.18 83.94 91.26 C 82.71 89.88 80.72 66.04 81.73 64.73 C 82.25 64.06 88.21 56.63 94.99 48.23 C 101.76 39.84 107.12 32.80 106.90 32.60 C 106.68 32.40 104.03 31.01 101.00 29.51 C 97.97 28.01 94.09 25.72 92.37 24.43 C 90.65 23.14 88.81 21.95 88.29 21.79 C 87.77 21.63 83.62 26.00 79.08 31.50 C 74.54 37.00 70.47 41.63 70.05 41.78 C 69.64 41.94 67.40 39.56 65.08 36.49 C 60.87 30.91 60.87 30.91 55.19 35.94 C 52.06 38.71 46.69 43.57 43.25 46.74 C 37.00 52.50 37.00 52.50 40.54 59.45 C 44.08 66.40 44.08 66.40 39.38 70.45 C 33.86 75.20 16.48 88.82 13.10 91.03 C 10.77 92.57 10.77 92.57 16.50 104.03 C 19.65 110.34 22.39 115.68 22.60 115.90 C 23.34 116.70 39.31 106.37 44.57 101.68 C 50.00 96.84 50.00 96.84 50.00 101.88 C 50.00 106.50 49.36 107.87 42.11 118.71 C 32.90 132.46 24.82 141.56 15.73 148.39 C 9.23 153.27 9.23 153.27 13.96 159.89 C 16.56 163.52 20.89 169.85 23.59 173.95 C 26.29 178.05 29.13 181.60 29.91 181.83 C 30.73 182.09 35.53 177.82 41.50 171.52 C 50.08 162.47 51.81 161.06 52.43 162.63 C 52.83 163.66 53.89 171.76 54.79 180.64 C 56.07 193.35 56.17 197.34 55.23 199.39 C 53.76 202.62 52.84 202.63 42.31 199.41 C 37.65 197.99 33.65 197.02 33.42 197.24 C 33.04 197.63 40.97 207.45 51.57 219.72 C 56.56 225.51 62.41 228.00 70.97 228.00 C 76.38 228.00 83.51 224.70 86.26 220.92 C 89.71 216.17 89.91 211.84 87.98 183.14 C 85.88 151.87 84.00 117.34 84.00 109.91 C 84.00 104.93 84.00 104.93 91.75 111.65 C 96.01 115.35 99.67 118.86 99.87 119.44 C 100.08 120.02 101.39 121.73 102.79 123.23 C 104.67 125.24 105.94 125.80 107.67 125.37 C 110.00 124.78 110.00 124.78 110.01 151.14 C 110.01 174.30 111.60 205.54 113.61 221.89 C 114.64 230.36 120.31 235.68 130.00 237.31 C 135.00 238.15 147.30 237.98 156.79 236.93 Z  M 152.38 207.09 C 149.47 205.81 149.27 203.91 149.79 182.80 C 150.26 164.31 150.26 164.31 174.79 163.66 C 188.28 163.31 199.49 162.84 199.70 162.63 C 201.49 160.84 200.62 89.29 198.78 87.45 C 198.56 87.22 185.35 86.51 169.44 85.86 C 153.52 85.21 140.36 84.57 140.18 84.44 C 140.01 84.31 141.25 81.46 142.95 78.10 C 146.03 72.00 146.03 72.00 157.26 72.04 C 172.00 72.10 205.84 76.13 206.98 77.97 C 207.44 78.71 208.31 82.74 208.91 86.91 C 211.49 104.85 211.96 114.93 211.10 133.84 C 210.26 152.31 210.09 153.44 207.36 158.75 C 203.25 166.74 200.46 168.49 191.84 168.50 C 184.82 168.50 184.82 168.50 185.49 172.00 C 185.86 173.93 186.69 179.85 187.33 185.17 C 187.98 190.49 188.76 195.10 189.07 195.41 C 189.39 195.72 194.94 194.20 201.41 192.03 C 213.18 188.08 213.18 188.08 211.46 190.79 C 205.09 200.81 203.06 202.08 188.50 205.13 C 178.31 207.27 155.58 208.50 152.38 207.09 Z  M 151.00 124.06 C 151.00 119.14 151.34 114.96 151.75 114.78 C 152.16 114.59 155.99 114.60 160.25 114.80 C 168.00 115.16 168.00 115.16 168.00 124.08 C 168.00 133.00 168.00 133.00 159.50 133.00 C 151.00 133.00 151.00 133.00 151.00 124.06 Z "/>
</g>
</svg>