<?xml version="1.0" encoding="UTF-8" standalone="no"?>
<!DOCTYPE svg PUBLIC "-//W3C//DTD SVG 1.1//EN" "http://www.w3.org/Graphics/SVG/1.1/DTD/svg11.dtd" >
<svg xmlns="http://www.w3.org/2000/svg" xmlns:xlink="http://www.w3.org/1999/xlink" version="1.1" viewBox="0 0 256 256">
 <g >
 <path fill="currentColor"
d=" M 118.50 233.84 C 127.55 230.88 159.21 216.09 160.31 214.30 C 160.64 213.78 158.65 209.84 155.91 205.55 C 153.16 201.26 151.08 197.58 151.29 197.37 C 151.75 196.91 188.22 193.89 188.61 194.28 C 188.76 194.43 185.51 198.54 181.38 203.41 C 176.51 209.16 174.22 212.62 174.85 213.25 C 176.44 214.84 198.24 221.99 201.51 221.99 C 204.05 222.00 206.64 219.88 218.00 208.50 C 231.47 195.00 231.47 195.00 224.49 194.95 C 216.55 194.90 203.72 192.64 206.00 191.70 C 206.82 191.36 211.20 190.15 215.72 189.02 C 227.83 186.00 228.92 185.44 230.63 181.34 C 236.52 167.25 240.74 129.95 238.39 112.79 C 237.77 108.31 237.77 108.31 216.64 106.58 C 205.01 105.62 194.76 104.64 193.86 104.39 C 191.51 103.74 190.77 97.00 193.05 97.00 C 193.96 97.00 203.66 98.12 214.60 99.50 C 239.05 102.57 243.35 102.69 242.60 100.25 C 242.30 99.29 241.14 95.52 240.03 91.87 C 238.91 88.22 237.12 83.26 236.05 80.84 C 234.10 76.44 234.10 76.44 222.55 73.49 C 211.28 70.61 210.98 70.46 209.90 67.20 C 209.30 65.37 209.00 63.67 209.24 63.42 C 209.48 63.18 212.99 64.35 217.03 66.01 C 221.07 67.68 224.67 68.92 225.04 68.77 C 225.40 68.62 223.13 64.00 219.98 58.50 C 214.32 48.59 214.20 48.47 206.66 44.51 C 200.27 41.15 198.64 39.76 196.50 35.83 C 194.42 32.01 193.09 30.83 189.23 29.40 C 186.63 28.44 181.19 26.40 177.13 24.87 C 169.03 21.81 169.27 21.61 171.56 29.62 C 172.17 31.74 172.16 31.74 164.67 30.25 C 157.17 28.76 157.17 28.76 156.34 24.13 C 155.53 19.69 155.30 19.43 150.50 17.79 C 147.19 16.66 142.22 16.07 135.80 16.04 C 126.10 16.00 126.10 16.00 125.80 21.25 C 125.50 26.50 125.50 26.50 115.44 26.78 C 105.38 27.07 105.38 27.07 103.67 39.78 C 102.72 46.78 101.96 52.96 101.98 53.53 C 101.99 54.20 104.66 54.31 109.75 53.85 C 114.01 53.46 119.44 53.11 121.80 53.07 C 126.11 53.00 126.11 53.00 125.80 57.75 C 125.50 62.50 125.50 62.50 110.50 63.00 C 95.50 63.50 95.50 63.50 94.32 76.00 C 93.68 82.88 93.12 89.95 93.07 91.72 C 93.00 94.94 93.00 94.94 124.00 94.31 C 155.00 93.68 155.00 93.68 155.00 98.43 C 155.00 103.19 155.00 103.19 127.37 102.84 C 99.73 102.50 99.73 102.50 100.36 112.11 C 100.71 117.40 101.22 136.97 101.50 155.61 C 101.78 174.25 102.26 191.41 102.57 193.75 C 103.12 198.00 103.12 198.00 118.81 198.08 C 134.50 198.15 134.50 198.15 123.00 202.12 C 116.67 204.30 106.15 207.41 99.60 209.03 C 93.06 210.64 87.59 212.08 87.44 212.23 C 87.29 212.38 90.62 218.22 94.84 225.21 C 103.69 239.88 101.96 239.25 118.50 233.84 Z  M 77.50 199.01 C 94.97 197.44 95.31 197.34 94.66 194.19 C 94.35 192.71 93.57 185.65 92.91 178.50 C 92.25 171.35 91.65 165.41 91.57 165.29 C 91.48 165.18 86.98 165.75 81.57 166.57 C 76.15 167.38 71.57 167.90 71.39 167.72 C 71.21 167.54 70.58 160.89 70.00 152.95 C 69.42 145.00 68.74 137.59 68.50 136.47 C 67.79 133.12 69.05 129.89 70.87 130.41 C 71.77 130.66 76.44 131.18 81.25 131.55 C 90.00 132.24 90.00 132.24 90.00 112.50 C 90.00 92.76 90.00 92.76 80.50 93.47 C 75.13 93.88 71.00 93.80 71.00 93.30 C 71.00 91.84 74.01 69.67 74.53 67.29 C 74.99 65.23 75.65 65.06 84.26 64.79 C 93.50 64.50 93.50 64.50 95.56 48.25 C 96.95 37.39 97.28 32.00 96.56 32.00 C 94.67 32.01 64.73 39.98 56.50 42.67 C 45.01 46.42 39.31 49.54 34.09 54.95 C 29.25 59.96 19.35 76.00 21.09 76.00 C 21.65 76.00 26.11 74.87 31.00 73.50 C 42.03 70.40 42.18 70.40 41.05 73.37 C 40.55 74.67 39.15 80.41 37.94 86.12 C 36.72 91.83 35.23 96.83 34.61 97.23 C 34.00 97.64 29.13 97.98 23.80 97.98 C 14.09 98.00 14.09 98.00 12.94 101.75 C 12.31 103.81 11.56 111.01 11.27 117.75 C 10.76 130.00 10.76 130.00 21.30 130.00 C 33.75 130.00 32.21 127.44 34.52 152.00 C 35.38 161.07 36.29 169.10 36.54 169.83 C 36.91 170.90 34.60 171.10 24.62 170.83 C 12.23 170.50 12.23 170.50 15.37 174.87 C 17.09 177.28 21.14 182.23 24.37 185.87 C 27.59 189.52 30.71 193.52 31.29 194.77 C 32.48 197.34 33.84 197.81 43.58 198.94 C 53.68 200.11 65.02 200.13 77.50 199.01 Z  M 140.19 166.25 C 140.50 162.50 140.50 162.50 147.75 162.21 C 155.00 161.91 155.00 161.91 155.00 165.33 C 155.00 168.49 154.73 168.78 151.25 169.36 C 149.19 169.70 145.79 169.98 143.69 169.99 C 139.90 170.00 139.88 169.98 140.19 166.25 Z  M 191.00 164.12 C 191.00 160.00 191.00 160.00 197.50 160.00 C 203.25 160.00 204.00 160.22 204.00 161.93 C 204.00 164.36 201.42 167.00 199.05 167.00 C 198.06 167.00 195.84 167.28 194.12 167.62 C 191.03 168.24 191.00 168.21 191.00 164.12 Z  M 141.20 137.25 C 141.50 132.50 141.50 132.50 148.25 132.20 C 155.00 131.91 155.00 131.91 155.00 136.34 C 155.00 141.39 154.05 141.96 145.70 141.99 C 140.89 142.00 140.89 142.00 141.20 137.25 Z  M 193.00 137.00 C 193.00 133.00 193.00 133.00 199.00 133.00 C 205.00 133.00 205.00 133.00 205.00 137.00 C 205.00 141.00 205.00 141.00 199.00 141.00 C 193.00 141.00 193.00 141.00 193.00 137.00 Z  M 166.00 64.10 C 161.51 63.50 161.50 63.49 161.19 59.14 C 160.87 54.78 160.87 54.78 169.19 55.51 C 173.76 55.91 177.83 56.75 178.23 57.37 C 178.64 57.99 178.98 59.96 178.98 61.75 C 179.00 64.93 178.91 65.00 174.75 64.85 C 172.41 64.77 168.47 64.43 166.00 64.10 Z "/>
</g>
</svg>