<?xml version="1.0" encoding="UTF-8" standalone="no"?>
<!DOCTYPE svg PUBLIC "-//W3C//DTD SVG 1.1//EN" "http://www.w3.org/Graphics/SVG/1.1/DTD/svg11.dtd" >
<svg xmlns="http://www.w3.org/2000/svg" xmlns:xlink="http://www.w3.org/1999/xlink" version="1.1" viewBox="0 0 256 256">
 <g >
 <path fill="currentColor"
d=" M 186.50 245.45 C 216.75 244.66 242.96 244.00 244.75 244.00 C 248.00 244.00 248.00 244.00 248.00 235.00 C 248.00 227.09 247.79 226.00 246.25 226.01 C 245.29 226.01 220.00 226.90 190.06 227.99 C 160.12 229.07 135.44 229.77 135.21 229.54 C 134.97 229.31 135.10 225.94 135.49 222.06 C 136.20 215.00 136.20 215.00 151.35 215.00 C 159.68 215.00 183.71 214.70 204.75 214.34 C 243.00 213.68 243.00 213.68 243.00 205.72 C 243.00 197.77 243.00 197.77 221.25 198.37 C 209.29 198.71 185.78 199.26 169.00 199.60 C 138.50 200.22 138.50 200.22 138.84 194.11 C 139.18 188.00 139.18 188.00 158.93 188.00 C 169.79 188.00 190.22 187.70 204.34 187.34 C 230.00 186.68 230.00 186.68 230.00 178.86 C 230.00 171.04 230.00 171.04 184.00 171.68 C 138.00 172.33 138.00 172.33 138.00 165.66 C 138.00 159.00 138.00 159.00 190.00 159.00 C 242.00 159.00 242.00 159.00 242.00 150.84 C 242.00 142.68 242.00 142.68 208.25 143.34 C 189.69 143.70 139.74 144.00 97.25 144.00 C 20.00 144.00 20.00 144.00 20.00 151.99 C 20.00 159.98 20.00 159.98 58.25 160.24 C 96.50 160.50 96.50 160.50 96.80 166.25 C 97.10 172.00 97.10 172.00 64.55 172.00 C 32.00 172.00 32.00 172.00 32.00 180.00 C 32.00 188.00 32.00 188.00 64.50 188.00 C 97.00 188.00 97.00 188.00 97.00 193.84 C 97.00 199.68 97.00 199.68 68.34 200.34 C 52.57 200.70 33.00 201.00 24.84 201.00 C 10.00 201.00 10.00 201.00 10.00 209.11 C 10.00 218.15 3.19 217.50 76.25 215.37 C 97.00 214.77 97.00 214.77 97.00 231.46 C 97.00 248.14 97.00 248.14 114.25 247.52 C 123.74 247.18 156.25 246.25 186.50 245.45 Z  M 157.24 134.13 C 203.84 133.16 242.19 132.14 242.46 131.87 C 242.73 131.60 243.26 128.09 243.63 124.07 C 244.31 116.76 244.31 116.76 235.40 117.36 C 230.51 117.69 194.66 118.25 155.75 118.61 C 90.86 119.19 85.00 119.11 85.00 117.62 C 85.00 116.42 85.98 115.99 88.75 115.95 C 90.81 115.92 124.45 113.32 163.50 110.17 C 234.50 104.45 234.50 104.45 234.26 99.98 C 233.73 90.23 233.22 89.00 229.70 89.00 C 227.94 89.01 197.27 91.48 161.54 94.50 C 125.82 97.53 95.89 99.98 95.04 99.96 C 94.19 99.94 103.47 97.04 115.67 93.53 C 127.86 90.01 143.83 85.20 151.17 82.82 C 164.50 78.50 164.50 78.50 204.75 78.19 C 245.00 77.88 245.00 77.88 245.00 69.86 C 245.00 61.83 245.00 61.83 227.55 62.17 C 210.10 62.50 210.10 62.50 227.53 53.70 C 244.97 44.90 244.97 44.90 239.98 34.95 C 237.23 29.48 234.86 25.00 234.71 25.00 C 234.57 25.00 225.02 28.15 213.50 32.00 C 201.98 35.85 191.98 39.00 191.28 39.00 C 190.41 39.00 190.00 37.36 190.00 33.86 C 190.00 28.71 190.00 28.71 163.00 29.23 C 136.00 29.74 136.00 29.74 136.00 20.37 C 136.00 11.00 136.00 11.00 113.42 11.00 C 90.83 11.00 90.83 11.00 91.13 20.25 C 91.42 29.50 91.42 29.50 61.46 30.11 C 44.98 30.44 29.36 30.78 26.75 30.86 C 22.00 31.00 22.00 31.00 22.00 38.50 C 22.00 46.00 22.00 46.00 57.04 46.00 C 92.08 46.00 92.08 46.00 91.79 55.25 C 91.50 64.50 91.50 64.50 49.25 64.76 C 7.00 65.02 7.00 65.02 7.00 72.76 C 7.00 80.50 7.00 80.50 34.75 80.28 C 62.50 80.05 62.50 80.05 44.07 86.53 C 33.93 90.09 25.12 93.00 24.49 93.00 C 23.86 93.00 22.74 91.88 22.00 90.50 C 21.26 89.12 20.30 88.00 19.86 88.00 C 19.02 88.00 7.87 92.80 7.24 93.43 C 7.04 93.63 9.18 98.37 11.99 103.98 C 17.10 114.16 17.10 114.16 24.80 113.51 C 29.03 113.15 34.95 112.44 37.93 111.93 C 40.92 111.42 43.96 111.00 44.68 111.00 C 45.70 111.00 46.00 113.83 46.00 123.50 C 46.00 136.00 46.00 136.00 59.25 135.95 C 66.54 135.92 110.63 135.10 157.24 134.13 Z  M 135.00 51.00 C 135.00 45.00 135.00 45.00 153.25 45.08 C 171.50 45.15 171.50 45.15 154.02 51.08 C 144.41 54.33 136.20 57.00 135.77 57.00 C 135.35 57.00 135.00 54.30 135.00 51.00 Z "/>
</g>
</svg>