<?xml version="1.0" encoding="UTF-8" standalone="no"?>
<!DOCTYPE svg PUBLIC "-//W3C//DTD SVG 1.1//EN" "http://www.w3.org/Graphics/SVG/1.1/DTD/svg11.dtd" >
<svg xmlns="http://www.w3.org/2000/svg" xmlns:xlink="http://www.w3.org/1999/xlink" version="1.1" viewBox="0 0 256 256">
 <g >
 <path fill="currentColor"
d=" M 42.52 242.25 C 45.63 238.00 48.51 233.91 48.93 233.17 C 49.49 232.16 52.45 233.59 60.88 238.97 C 72.08 246.11 72.08 246.11 159.41 245.40 C 246.74 244.68 246.74 244.68 247.36 238.09 C 247.71 234.47 247.99 230.26 247.99 228.75 C 248.00 226.00 248.00 226.00 166.87 226.00 C 85.74 226.00 85.74 226.00 73.85 219.38 C 67.31 215.73 61.75 212.40 61.49 211.98 C 61.23 211.56 61.67 209.35 62.47 207.08 C 64.99 199.95 66.82 189.00 67.94 174.50 C 68.53 166.80 69.25 157.69 69.54 154.25 C 70.06 148.00 70.06 148.00 64.52 148.00 C 58.97 148.00 58.97 148.00 62.43 141.14 C 66.86 132.34 69.61 124.13 71.99 112.56 C 73.58 104.84 75.95 84.18 75.99 77.75 C 76.00 76.12 73.77 76.00 43.00 76.00 C 10.00 76.00 10.00 76.00 10.00 84.00 C 10.00 92.00 10.00 92.00 22.94 92.00 C 30.06 92.00 36.06 92.34 36.28 92.75 C 36.50 93.16 32.05 108.57 26.38 127.00 C 20.71 145.43 16.05 160.61 16.04 160.75 C 16.02 160.89 18.95 161.00 22.55 161.00 C 29.09 161.00 29.09 161.00 28.53 164.25 C 27.99 167.38 20.00 226.75 20.00 227.61 C 20.00 227.84 17.75 226.89 15.00 225.50 C 12.25 224.11 10.00 223.09 10.00 223.23 C 10.00 223.38 9.33 227.29 8.51 231.93 C 7.70 236.57 7.21 240.54 7.42 240.76 C 7.64 240.97 14.27 243.11 22.16 245.51 C 30.05 247.91 36.58 249.90 36.68 249.94 C 36.78 249.97 39.41 246.51 42.52 242.25 Z  M 141.24 175.75 C 141.50 137.50 141.50 137.50 166.10 137.23 C 190.69 136.97 190.69 136.97 191.35 149.14 C 191.71 155.84 192.00 169.57 192.00 179.66 C 192.00 198.00 192.00 198.00 171.00 198.00 C 150.00 198.00 150.00 198.00 150.00 206.01 C 150.00 214.02 150.00 214.02 189.75 213.76 C 229.50 213.50 229.50 213.50 233.21 202.46 C 235.25 196.39 237.61 187.16 238.46 181.96 C 241.16 165.30 240.05 139.20 235.99 124.00 C 235.06 120.50 235.06 120.50 209.58 120.85 C 184.11 121.20 184.11 121.20 185.18 117.35 C 185.77 115.23 187.21 108.78 188.39 103.00 C 190.53 92.50 190.53 92.50 219.27 92.23 C 248.00 91.97 248.00 91.97 248.00 84.48 C 248.00 77.00 248.00 77.00 219.97 77.00 C 198.40 77.00 191.85 76.71 191.58 75.75 C 191.38 75.06 190.66 68.88 189.98 62.00 C 189.30 55.12 188.53 48.96 188.28 48.29 C 187.71 46.79 188.78 46.59 208.25 44.59 C 222.04 43.17 237.72 40.61 238.72 39.61 C 239.16 39.17 234.29 8.96 233.69 8.36 C 233.44 8.11 207.20 10.86 175.37 14.46 C 143.54 18.07 116.15 21.13 114.50 21.26 C 111.62 21.49 111.47 21.30 110.61 16.25 C 110.12 13.36 109.22 11.03 108.61 11.06 C 108.00 11.10 104.58 11.69 101.00 12.38 C 94.50 13.63 94.50 13.63 94.77 26.57 C 95.14 44.69 94.63 43.59 103.00 44.36 C 106.86 44.72 116.21 45.30 123.76 45.65 C 131.32 46.00 138.51 46.66 139.75 47.12 C 141.95 47.93 142.00 48.31 142.00 62.98 C 142.00 78.00 142.00 78.00 115.08 78.00 C 100.28 78.00 87.45 78.27 86.58 78.61 C 85.35 79.08 85.00 80.74 85.00 86.11 C 85.00 93.00 85.00 93.00 113.39 93.00 C 138.36 93.00 141.86 93.19 142.39 94.58 C 142.73 95.45 143.00 101.75 143.00 108.58 C 143.00 121.00 143.00 121.00 118.00 121.00 C 93.00 121.00 93.00 121.00 93.00 167.50 C 93.00 214.00 93.00 214.00 116.99 214.00 C 140.98 214.00 140.98 214.00 141.24 175.75 Z  M 55.75 59.84 C 70.21 52.97 73.00 31.77 60.79 21.47 C 50.60 12.87 38.01 12.84 28.30 21.39 C 19.41 29.21 17.64 38.95 23.11 49.90 C 25.18 54.04 27.46 56.94 29.94 58.58 C 37.03 63.27 47.46 63.78 55.75 59.84 Z "/>
</g>
</svg>