<?xml version="1.0" encoding="UTF-8" standalone="no"?>
<!DOCTYPE svg PUBLIC "-//W3C//DTD SVG 1.1//EN" "http://www.w3.org/Graphics/SVG/1.1/DTD/svg11.dtd" >
<svg xmlns="http://www.w3.org/2000/svg" xmlns:xlink="http://www.w3.org/1999/xlink" version="1.1" viewBox="0 0 256 256">
 <g >
 <path fill="currentColor"
d=" M 216.25 247.00 C 246.00 247.00 246.00 247.00 246.00 239.00 C 246.00 231.00 246.00 231.00 217.49 231.00 C 188.98 231.00 188.98 231.00 189.49 227.25 C 189.93 224.01 191.99 192.76 192.00 189.25 C 192.00 188.29 197.27 188.00 215.00 188.00 C 238.00 188.00 238.00 188.00 238.00 180.00 C 238.00 172.00 238.00 172.00 215.72 172.00 C 190.81 172.00 192.87 174.22 194.60 149.25 C 195.18 141.00 195.18 141.00 216.48 141.00 C 237.74 141.00 237.78 141.00 238.35 138.75 C 239.78 133.04 242.08 109.82 243.07 91.10 C 244.07 72.10 243.81 47.06 242.39 24.25 C 241.81 15.00 241.81 15.00 171.41 15.00 C 101.00 15.00 101.00 15.00 101.00 78.00 C 101.00 141.00 101.00 141.00 118.00 141.00 C 135.00 141.00 135.00 141.00 135.00 114.00 C 135.00 87.00 135.00 87.00 142.50 87.00 C 150.00 87.00 150.00 87.00 150.00 105.44 C 150.00 123.88 150.00 123.88 146.25 124.19 C 142.50 124.50 142.50 124.50 142.21 132.75 C 141.92 141.00 141.92 141.00 145.96 141.00 C 150.00 141.00 150.00 141.00 150.00 157.00 C 150.00 173.00 150.00 173.00 129.00 173.00 C 108.00 173.00 108.00 173.00 108.00 181.15 C 108.00 189.31 108.00 189.31 129.00 188.62 C 150.00 187.92 150.00 187.92 150.00 209.96 C 150.00 232.00 150.00 232.00 125.50 232.00 C 101.00 232.00 101.00 232.00 101.00 240.16 C 101.00 248.33 101.00 248.33 143.75 247.66 C 167.26 247.30 199.89 247.00 216.25 247.00 Z  M 44.00 140.00 C 44.00 60.00 44.00 60.00 50.00 60.00 C 56.00 60.00 56.00 60.00 56.00 131.50 C 56.00 203.00 56.00 203.00 53.00 203.00 C 50.00 203.00 50.00 203.00 50.00 211.50 C 50.00 220.00 50.00 220.00 66.50 220.00 C 75.58 220.00 83.00 219.77 83.00 219.49 C 83.00 219.21 83.66 214.60 84.46 209.24 C 88.94 179.31 91.64 118.28 90.06 82.50 C 88.06 36.91 93.30 42.00 48.35 42.00 C 9.00 42.00 9.00 42.00 9.00 131.00 C 9.00 220.00 9.00 220.00 26.50 220.00 C 44.00 220.00 44.00 220.00 44.00 140.00 Z  M 195.00 105.50 C 195.00 87.00 195.00 87.00 202.00 87.00 C 209.00 87.00 209.00 87.00 209.00 105.50 C 209.00 124.00 209.00 124.00 202.00 124.00 C 195.00 124.00 195.00 124.00 195.00 105.50 Z  M 135.67 69.33 C 135.30 68.97 135.00 60.42 135.00 50.33 C 135.00 32.00 135.00 32.00 142.50 32.00 C 150.00 32.00 150.00 32.00 150.00 51.00 C 150.00 70.00 150.00 70.00 143.17 70.00 C 139.41 70.00 136.03 69.70 135.67 69.33 Z  M 195.51 68.75 C 195.27 68.06 194.95 59.51 194.79 49.75 C 194.50 32.00 194.50 32.00 201.75 32.00 C 209.00 32.00 209.00 32.00 209.00 51.00 C 209.00 70.00 209.00 70.00 202.47 70.00 C 198.14 70.00 195.79 69.58 195.51 68.75 Z "/>
</g>
</svg>