<?xml version="1.0" encoding="UTF-8" standalone="no"?>
<!DOCTYPE svg PUBLIC "-//W3C//DTD SVG 1.1//EN" "http://www.w3.org/Graphics/SVG/1.1/DTD/svg11.dtd" >
<svg xmlns="http://www.w3.org/2000/svg" xmlns:xlink="http://www.w3.org/1999/xlink" version="1.1" viewBox="0 0 256 256">
 <g >
 <path fill="currentColor"
d=" M 122.67 230.65 C 130.82 223.79 142.86 212.77 149.42 206.15 C 161.34 194.13 161.34 194.13 165.58 201.31 C 171.22 210.87 185.00 227.87 193.95 236.32 C 201.18 243.14 201.18 243.14 208.73 235.01 C 212.88 230.54 218.92 225.09 222.14 222.90 C 225.37 220.71 232.32 214.79 237.60 209.75 C 247.19 200.58 247.19 200.58 243.35 197.57 C 232.24 188.90 210.00 164.49 210.00 160.98 C 210.00 160.47 212.84 160.34 216.43 160.68 C 222.86 161.28 222.86 161.28 231.91 152.89 C 240.97 144.50 240.97 144.50 240.99 127.25 C 241.00 110.00 241.00 110.00 230.00 110.00 C 223.95 110.00 219.00 109.75 219.00 109.44 C 219.00 109.14 223.06 102.07 228.03 93.73 C 237.06 78.57 237.06 78.57 233.53 76.76 C 229.47 74.68 229.23 73.96 232.00 72.23 C 233.87 71.06 234.00 69.90 234.00 53.89 C 234.00 36.79 234.00 36.79 213.75 37.14 C 193.50 37.50 193.50 37.50 193.22 25.25 C 192.94 13.00 192.94 13.00 174.22 13.01 C 155.50 13.03 155.50 13.03 146.75 21.65 C 139.25 29.04 138.00 30.75 138.00 33.58 C 138.00 36.88 138.00 36.88 126.00 37.19 C 114.00 37.50 114.00 37.50 114.00 28.95 C 114.00 20.40 114.00 20.40 72.66 20.22 C 31.32 20.04 31.32 20.04 23.16 28.94 C 15.00 37.84 15.00 37.84 15.00 54.42 C 15.00 71.00 15.00 71.00 24.50 71.00 C 32.39 71.00 34.00 71.26 34.00 72.54 C 34.00 76.66 30.44 90.47 27.05 99.48 C 21.97 113.02 20.13 116.43 12.36 126.71 C 5.71 135.50 5.71 135.50 10.73 145.50 C 16.03 156.07 22.00 171.02 22.00 173.75 C 22.00 175.00 22.65 174.75 24.80 172.69 C 26.35 171.21 27.94 170.00 28.35 170.00 C 28.75 170.00 28.77 183.50 28.38 200.00 C 27.69 230.00 27.69 230.00 43.72 230.00 C 59.76 230.00 59.76 230.00 67.88 220.77 C 72.35 215.69 76.00 210.74 76.00 209.77 C 76.00 208.40 76.83 208.00 79.69 208.00 C 83.37 208.00 83.37 208.00 80.49 211.01 C 77.60 214.03 77.60 214.03 80.05 215.75 C 86.54 220.29 98.02 232.88 103.36 241.33 C 104.37 242.92 105.73 243.93 106.49 243.64 C 107.23 243.36 114.51 237.51 122.67 230.65 Z  M 101.00 234.89 C 98.53 231.57 93.24 225.44 89.25 221.27 C 85.26 217.09 82.11 213.59 82.25 213.49 C 82.39 213.38 84.97 211.65 87.99 209.65 C 93.47 206.00 93.47 206.00 75.74 206.00 C 58.00 206.00 58.00 206.00 58.00 217.00 C 58.00 228.00 58.00 228.00 44.10 228.00 C 30.20 228.00 30.20 228.00 30.72 195.25 C 31.25 162.50 31.25 162.50 27.64 165.93 C 25.65 167.82 23.86 169.17 23.65 168.93 C 23.44 168.69 22.28 165.80 21.07 162.50 C 19.85 159.20 16.46 151.69 13.52 145.81 C 8.19 135.11 8.19 135.11 16.41 124.18 C 23.14 115.23 25.37 111.28 28.75 102.38 C 34.60 86.99 36.00 81.53 36.00 74.25 C 36.00 67.86 36.00 67.86 27.00 68.18 C 18.00 68.50 18.00 68.50 18.00 53.75 C 18.00 39.00 18.00 39.00 56.50 39.00 C 95.00 39.00 95.00 39.00 95.00 53.47 C 95.00 67.95 95.00 67.95 80.82 68.22 C 66.64 68.50 66.64 68.50 63.91 81.50 C 62.41 88.65 60.47 96.47 59.59 98.88 C 58.72 101.28 58.00 103.41 58.00 103.60 C 58.00 103.80 66.44 104.08 76.75 104.23 C 92.84 104.46 95.44 104.71 95.10 106.00 C 94.89 106.83 94.49 123.33 94.23 142.67 C 93.69 182.14 94.50 205.00 96.42 205.00 C 98.74 205.00 114.52 191.35 120.66 184.04 C 126.59 176.96 134.10 164.91 135.47 160.25 C 136.13 158.00 136.13 158.00 116.57 158.00 C 97.00 158.00 97.00 158.00 97.00 142.93 C 97.00 129.06 97.14 127.90 98.75 128.36 C 99.71 128.63 104.28 129.17 108.90 129.55 C 116.84 130.20 117.26 130.13 116.59 128.37 C 114.91 123.95 106.70 109.81 102.53 104.15 C 100.04 100.76 98.00 97.80 98.00 97.57 C 98.00 97.33 101.57 95.24 105.93 92.92 C 110.28 90.59 115.12 87.65 116.68 86.38 C 119.50 84.07 119.50 84.07 110.75 84.04 C 102.00 84.00 102.00 84.00 102.00 70.50 C 102.00 57.00 102.00 57.00 121.56 57.00 C 141.11 57.00 141.11 57.00 140.81 44.00 C 140.50 31.00 140.50 31.00 157.83 31.00 C 176.72 31.00 175.42 29.02 173.61 54.92 C 173.51 56.30 176.08 56.53 194.25 56.77 C 215.00 57.04 215.00 57.04 215.00 70.48 C 215.00 83.93 215.00 83.93 205.27 84.21 C 195.54 84.50 195.54 84.50 206.02 90.36 C 211.78 93.58 216.62 96.33 216.78 96.47 C 216.93 96.61 212.77 103.96 207.53 112.80 C 202.29 121.64 198.00 129.17 198.00 129.53 C 198.00 130.22 216.21 129.21 219.25 128.35 C 220.86 127.90 221.00 129.06 221.00 142.93 C 221.00 158.00 221.00 158.00 201.39 158.00 C 178.48 158.00 179.72 156.42 188.45 174.50 C 193.58 185.10 194.24 185.96 206.64 198.00 C 213.72 204.88 221.19 211.62 223.25 213.00 C 225.30 214.38 226.99 215.72 226.99 216.00 C 226.99 216.28 224.85 217.97 222.22 219.76 C 219.59 221.55 213.87 226.61 209.49 231.01 C 205.12 235.40 201.21 239.00 200.81 239.00 C 199.25 239.00 184.51 225.35 179.28 219.07 C 175.77 214.85 171.20 207.20 166.52 197.71 C 159.23 182.92 159.23 182.92 154.53 191.29 C 145.12 208.05 137.40 216.41 115.69 233.35 C 110.29 237.56 105.79 240.98 105.69 240.96 C 105.58 240.94 103.47 238.21 101.00 234.89 Z  M 67.00 155.00 C 67.00 132.00 67.00 132.00 62.50 132.00 C 58.00 132.00 58.00 132.00 58.00 155.00 C 58.00 178.00 58.00 178.00 62.50 178.00 C 67.00 178.00 67.00 178.00 67.00 155.00 Z  M 141.00 123.38 C 141.00 116.77 141.00 116.77 138.75 118.22 C 137.51 119.02 133.26 121.55 129.30 123.85 C 125.34 126.15 121.83 128.47 121.49 129.02 C 121.11 129.64 124.59 130.00 130.94 130.00 C 141.00 130.00 141.00 130.00 141.00 123.38 Z  M 187.64 126.46 C 181.35 122.67 174.42 119.00 173.54 119.00 C 173.24 119.00 173.00 121.47 173.00 124.50 C 173.00 130.00 173.00 130.00 183.25 130.00 C 193.50 129.99 193.50 129.99 187.64 126.46 Z  M 178.93 106.39 C 183.26 101.00 191.00 86.97 191.00 84.53 C 191.00 84.19 187.06 84.05 182.25 84.21 C 173.50 84.50 173.50 84.50 173.22 98.75 C 173.07 106.59 173.10 113.00 173.29 113.00 C 173.48 113.00 176.02 110.03 178.93 106.39 Z  M 141.00 97.50 C 141.00 84.00 141.00 84.00 132.00 84.00 C 127.05 84.00 123.00 84.25 123.00 84.55 C 123.00 85.18 140.30 111.00 140.72 111.00 C 140.88 111.00 141.00 104.92 141.00 97.50 Z  M 114.00 172.59 C 114.00 160.00 114.00 160.00 123.50 160.00 C 128.72 160.00 133.00 160.37 133.00 160.81 C 133.00 163.20 120.04 181.66 117.20 183.32 C 114.00 185.18 114.00 185.18 114.00 172.59 Z  M 78.35 83.79 C 78.68 82.53 79.49 79.14 80.14 76.25 C 81.32 71.00 81.32 71.00 88.22 71.00 C 92.02 71.00 96.02 70.52 97.11 69.94 C 99.01 68.92 99.07 69.19 98.79 77.19 C 98.50 85.50 98.50 85.50 88.12 85.79 C 77.75 86.07 77.75 86.07 78.35 83.79 Z "/>
</g>
</svg>