<?xml version="1.0" encoding="UTF-8" standalone="no"?>
<!DOCTYPE svg PUBLIC "-//W3C//DTD SVG 1.1//EN" "http://www.w3.org/Graphics/SVG/1.1/DTD/svg11.dtd" >
<svg xmlns="http://www.w3.org/2000/svg" xmlns:xlink="http://www.w3.org/1999/xlink" version="1.1" viewBox="0 0 256 256">
 <g >
 <path fill="currentColor"
d=" M 177.37 231.45 C 185.50 222.89 185.50 222.89 193.72 228.45 C 198.25 231.50 202.33 234.00 202.80 234.00 C 203.97 234.00 219.08 218.28 222.01 214.00 C 223.33 212.07 228.41 205.69 233.29 199.82 C 238.17 193.94 242.02 188.77 241.84 188.32 C 241.66 187.87 236.26 184.02 229.83 179.76 C 223.40 175.51 217.82 171.53 217.44 170.91 C 217.05 170.27 220.09 166.43 224.63 161.87 C 232.50 153.95 232.50 153.95 232.57 108.49 C 232.63 63.16 232.64 63.01 234.82 60.70 C 236.86 58.52 237.00 57.42 237.00 43.27 C 237.00 28.18 237.00 28.18 211.25 28.34 C 185.50 28.50 185.50 28.50 185.20 22.75 C 184.90 17.00 184.90 17.00 167.17 17.00 C 149.44 17.00 149.44 17.00 143.47 23.03 C 137.50 29.07 137.50 29.07 118.00 28.94 C 98.50 28.81 98.50 28.81 91.24 36.58 C 83.98 44.34 83.98 44.34 75.24 35.83 C 51.76 12.97 56.21 12.97 33.92 35.88 C 14.10 56.26 14.10 56.26 26.27 68.38 C 38.44 80.50 38.44 80.50 32.97 80.80 C 27.59 81.09 27.36 81.23 19.25 89.28 C 11.00 97.46 11.00 97.46 11.00 115.87 C 11.00 134.29 11.00 134.29 21.50 133.75 C 32.00 133.22 32.00 133.22 32.00 166.31 C 32.00 199.40 32.00 199.40 28.92 202.59 C 25.84 205.77 25.84 205.77 30.80 221.63 C 34.30 232.82 36.17 237.41 37.13 237.19 C 37.88 237.02 49.07 233.07 62.00 228.42 C 85.50 219.96 85.50 219.96 87.62 222.59 C 88.79 224.03 90.30 227.08 90.98 229.36 C 93.83 238.93 93.31 238.89 104.52 230.31 C 110.01 226.11 118.23 218.92 122.79 214.34 C 127.35 209.75 131.33 206.00 131.63 206.00 C 131.94 206.00 132.09 213.31 131.99 222.25 C 131.88 231.19 131.84 238.84 131.89 239.25 C 131.95 239.66 140.38 240.00 150.62 240.00 C 169.23 240.00 169.23 240.00 177.37 231.45 Z  M 134.68 217.39 C 135.32 196.78 135.32 196.78 129.96 202.64 C 112.58 221.61 98.62 233.83 95.63 232.69 C 94.89 232.40 93.74 230.02 93.08 227.39 C 92.42 224.76 90.84 221.66 89.58 220.49 C 88.32 219.32 87.11 217.84 86.89 217.19 C 86.64 216.44 78.43 219.15 63.50 224.93 C 50.85 229.83 39.91 233.98 39.18 234.17 C 38.29 234.39 36.25 229.95 32.94 220.53 C 28.02 206.56 28.02 206.56 30.76 204.37 C 33.50 202.19 33.50 202.19 33.80 166.70 C 34.09 131.21 34.09 131.21 23.55 131.75 C 13.00 132.29 13.00 132.29 13.00 116.13 C 13.00 99.97 13.00 99.97 38.59 100.23 C 64.19 100.50 64.19 100.50 64.05 148.21 C 63.91 195.92 63.91 195.92 75.71 191.04 C 87.50 186.15 87.50 186.15 87.79 193.08 C 88.09 200.01 88.09 200.01 93.79 196.37 C 103.63 190.10 107.11 186.86 114.16 177.36 C 117.92 172.28 121.00 167.87 121.00 167.55 C 121.00 167.22 113.69 167.26 104.75 167.62 C 88.50 168.29 88.50 168.29 88.41 124.64 C 88.32 81.00 88.32 81.00 111.66 81.00 C 135.00 81.00 135.00 81.00 135.00 77.00 C 135.00 73.00 135.00 73.00 109.50 73.00 C 84.00 73.00 84.00 73.00 84.00 60.11 C 84.00 47.22 84.00 47.22 109.50 47.76 C 135.00 48.30 135.00 48.30 135.00 41.65 C 135.00 35.00 135.00 35.00 151.03 35.00 C 167.06 35.00 167.06 35.00 166.38 41.58 C 165.71 48.15 165.71 48.15 191.85 47.43 C 218.00 46.70 218.00 46.70 218.00 59.85 C 218.00 73.00 218.00 73.00 191.50 73.00 C 165.00 73.00 165.00 73.00 165.00 77.00 C 165.00 81.00 165.00 81.00 189.00 81.00 C 213.00 81.00 213.00 81.00 213.00 124.63 C 213.00 168.27 213.00 168.27 196.50 167.54 C 185.91 167.08 180.00 167.17 180.00 167.80 C 180.00 169.99 189.25 181.05 198.29 189.68 C 205.22 196.27 209.97 199.86 215.22 202.46 C 222.51 206.06 222.51 206.06 215.96 212.78 C 212.36 216.48 207.93 222.09 206.13 225.25 C 204.33 228.41 202.40 231.00 201.85 231.00 C 197.66 231.00 175.90 211.85 169.47 202.52 C 167.38 199.48 165.57 197.00 165.46 197.00 C 165.34 197.00 165.41 200.94 165.61 205.75 C 167.07 241.05 168.51 238.00 150.39 238.00 C 134.04 238.00 134.04 238.00 134.68 217.39 Z  M 135.00 139.50 C 135.00 137.03 134.67 135.00 134.27 135.00 C 133.87 135.00 130.47 136.17 126.71 137.61 C 122.96 139.04 119.75 140.06 119.58 139.86 C 119.41 139.66 118.12 136.12 116.72 132.00 C 114.16 124.50 114.16 124.50 114.08 134.25 C 114.00 144.00 114.00 144.00 124.50 144.00 C 135.00 144.00 135.00 144.00 135.00 139.50 Z  M 186.92 133.75 C 186.84 123.50 186.84 123.50 183.78 132.50 C 182.10 137.45 180.58 141.67 180.41 141.87 C 180.23 142.08 177.14 141.07 173.53 139.62 C 169.93 138.18 166.53 137.00 165.99 137.00 C 165.45 137.00 165.00 138.57 165.00 140.50 C 165.00 144.00 165.00 144.00 176.00 144.00 C 187.00 144.00 187.00 144.00 186.92 133.75 Z  M 168.48 115.28 C 169.46 112.65 170.62 110.11 171.06 109.62 C 171.50 109.14 173.94 109.91 176.55 111.37 C 179.14 112.82 182.55 114.00 184.13 114.00 C 186.91 114.00 187.00 113.84 187.00 108.97 C 187.00 103.93 187.00 103.93 176.25 104.22 C 165.50 104.50 165.50 104.50 165.21 112.83 C 164.89 122.00 165.75 122.64 168.48 115.28 Z  M 135.00 111.00 C 135.00 104.00 135.00 104.00 124.50 104.00 C 114.00 104.00 114.00 104.00 114.00 108.00 C 114.00 110.20 114.21 112.00 114.48 112.00 C 114.74 112.00 117.94 110.88 121.60 109.50 C 125.25 108.12 128.84 107.00 129.57 107.00 C 130.30 107.00 131.67 109.46 132.63 112.50 C 133.59 115.53 134.51 118.00 134.68 118.00 C 134.86 118.00 135.00 114.85 135.00 111.00 Z  M 108.00 174.48 C 108.00 170.00 108.00 170.00 112.47 170.00 C 116.93 170.00 116.93 170.00 114.96 173.34 C 113.88 175.18 111.87 177.20 110.49 177.82 C 108.04 178.94 108.00 178.89 108.00 174.48 Z  M 84.00 128.36 C 84.00 80.73 84.00 80.73 72.50 81.44 C 66.00 81.84 61.00 81.76 61.00 81.26 C 61.00 80.78 65.72 76.25 71.50 71.19 C 82.00 61.99 82.00 61.99 82.00 69.00 C 82.00 76.00 82.00 76.00 85.20 76.00 C 87.69 76.00 88.13 76.27 87.20 77.20 C 86.30 78.10 86.00 89.91 86.00 124.20 C 86.00 170.00 86.00 170.00 92.17 170.00 C 95.56 170.00 98.12 170.21 97.86 170.47 C 97.60 170.73 94.38 172.08 90.70 173.46 C 84.00 175.98 84.00 175.98 84.00 128.36 Z  M 41.50 81.91 C 37.65 77.46 30.36 70.01 25.29 65.35 C 16.09 56.89 16.09 56.89 26.67 46.69 C 32.49 41.09 37.64 36.50 38.10 36.50 C 39.51 36.50 70.00 66.91 69.95 68.25 C 69.92 68.94 67.20 71.72 63.92 74.43 C 60.63 77.13 56.04 81.73 53.72 84.63 C 51.40 87.53 49.27 89.93 49.00 89.95 C 48.72 89.98 45.35 86.36 41.50 81.91 Z "/>
</g>
</svg>