<?xml version="1.0" encoding="UTF-8" standalone="no"?>
<!DOCTYPE svg PUBLIC "-//W3C//DTD SVG 1.1//EN" "http://www.w3.org/Graphics/SVG/1.1/DTD/svg11.dtd" >
<svg xmlns="http://www.w3.org/2000/svg" xmlns:xlink="http://www.w3.org/1999/xlink" version="1.1" viewBox="0 0 256 256">
 <g >
 <path fill="currentColor"
d=" M 222.76 171.28 C 223.01 96.06 223.01 96.06 235.76 95.78 C 248.50 95.50 248.50 95.50 248.76 92.50 C 249.30 86.33 250.48 86.53 211.44 86.21 C 175.80 85.93 175.80 85.93 176.22 65.71 C 176.46 54.60 177.00 44.74 177.41 43.80 C 178.31 41.80 184.98 39.54 206.00 34.13 C 236.08 26.39 243.00 23.46 243.00 18.46 C 243.00 15.93 240.47 14.00 237.15 14.00 C 236.06 14.00 230.07 15.98 223.84 18.41 C 217.60 20.83 204.08 24.94 193.80 27.54 C 173.85 32.58 169.64 34.39 167.77 38.75 C 166.93 40.69 166.39 58.34 165.92 99.00 C 165.20 161.15 164.26 174.87 159.49 192.81 C 156.41 204.39 153.13 212.77 146.87 225.07 C 141.81 235.01 141.08 238.36 143.33 241.43 C 146.71 246.06 152.63 238.91 160.28 220.91 C 171.71 194.03 174.79 175.26 175.86 126.00 C 176.50 96.50 176.50 96.50 194.75 96.23 C 213.00 95.95 213.00 95.95 213.00 169.54 C 213.00 219.70 213.34 243.77 214.07 245.12 C 214.89 246.66 215.97 247.04 218.82 246.81 C 222.50 246.50 222.50 246.50 222.76 171.28 Z  M 131.17 243.35 C 132.87 241.81 133.00 239.48 133.00 211.51 C 133.00 181.33 133.00 181.33 141.25 178.55 C 156.43 173.43 159.42 171.06 158.81 164.70 C 158.54 161.95 158.15 161.54 156.00 161.78 C 154.62 161.93 149.90 163.57 145.50 165.43 C 131.42 171.37 132.92 173.34 133.23 149.32 C 133.50 128.50 133.50 128.50 143.44 128.21 C 148.91 128.05 153.98 127.44 154.69 126.84 C 156.71 125.17 156.31 120.24 154.07 119.04 C 153.00 118.47 147.83 118.00 142.57 118.00 C 133.00 118.00 133.00 118.00 133.00 88.70 C 133.00 57.91 132.87 57.00 128.50 57.00 C 124.13 57.00 124.00 57.91 124.00 88.70 C 124.00 118.00 124.00 118.00 109.47 118.00 C 97.80 118.00 94.83 117.72 94.39 116.57 C 94.09 115.79 97.00 106.00 100.87 94.82 C 104.73 83.65 110.04 67.64 112.66 59.25 C 117.43 44.00 117.43 44.00 135.49 44.00 C 155.04 44.00 158.00 43.30 158.00 38.64 C 158.00 34.32 156.60 34.00 137.80 34.00 C 126.19 34.00 120.00 33.64 120.00 32.96 C 120.00 32.39 120.95 28.13 122.12 23.49 C 124.43 14.27 124.14 9.34 121.13 6.61 C 117.01 2.89 114.09 7.55 110.68 23.25 C 108.46 33.50 108.46 33.50 97.04 33.78 C 90.72 33.94 85.04 34.56 84.31 35.16 C 82.28 36.84 82.76 40.72 85.22 42.44 C 86.85 43.58 89.94 44.00 96.72 44.00 C 101.83 44.00 106.00 44.29 106.00 44.64 C 106.00 45.89 101.74 59.74 94.98 80.50 C 87.65 103.02 84.00 116.01 84.00 119.63 C 84.00 120.87 85.08 123.15 86.41 124.69 C 88.82 127.50 88.82 127.50 106.16 128.00 C 123.50 128.50 123.50 128.50 123.77 150.68 C 124.02 171.16 123.90 172.89 122.27 173.36 C 121.30 173.65 115.55 175.04 109.50 176.47 C 95.21 179.83 82.21 183.79 78.75 185.82 C 75.04 187.99 74.87 192.68 78.46 193.58 C 82.03 194.48 93.70 192.28 108.00 188.03 C 114.88 185.99 121.17 184.13 122.00 183.91 C 123.30 183.55 123.57 187.42 124.00 213.00 C 124.28 229.22 124.86 243.06 125.31 243.75 C 126.43 245.49 129.00 245.31 131.17 243.35 Z  M 49.96 240.07 C 50.66 238.77 51.00 201.19 51.00 125.39 C 51.00 21.89 50.86 12.51 49.35 10.83 C 47.29 8.56 45.21 8.50 42.83 10.65 C 41.08 12.24 41.00 17.11 41.00 125.33 C 41.00 229.09 41.14 238.49 42.65 240.17 C 44.82 242.56 48.66 242.51 49.96 240.07 Z  M 17.79 157.75 C 19.94 155.14 25.13 110.60 27.06 78.22 C 28.39 55.86 28.04 52.30 24.37 51.38 C 19.57 50.17 18.68 52.49 17.85 68.32 C 16.92 85.82 13.79 116.69 11.04 135.30 C 8.91 149.70 8.59 154.76 9.61 157.42 C 10.34 159.34 16.28 159.58 17.79 157.75 Z  M 78.65 148.28 C 79.96 145.15 80.04 143.24 79.11 136.03 C 78.51 131.34 77.36 119.40 76.56 109.50 C 75.32 94.35 70.27 59.75 68.41 53.75 C 67.75 51.62 61.81 51.32 60.15 53.32 C 59.33 54.30 59.81 59.62 61.97 73.57 C 65.69 97.65 66.86 109.21 67.80 131.13 C 68.63 150.32 69.14 152.00 74.17 152.00 C 76.61 152.00 77.36 151.37 78.65 148.28 Z "/>
</g>
</svg>