<?xml version="1.0" encoding="UTF-8" standalone="no"?>
<!DOCTYPE svg PUBLIC "-//W3C//DTD SVG 1.1//EN" "http://www.w3.org/Graphics/SVG/1.1/DTD/svg11.dtd" >
<svg xmlns="http://www.w3.org/2000/svg" xmlns:xlink="http://www.w3.org/1999/xlink" version="1.1" viewBox="0 0 256 256">
 <g >
 <path fill="currentColor"
d=" M 222.82 246.95 C 229.67 245.48 232.68 242.02 235.05 232.87 C 236.88 225.84 236.97 220.68 236.98 119.88 C 237.00 14.54 236.99 14.26 234.93 11.63 C 232.40 8.42 229.63 8.26 227.56 11.22 C 226.17 13.20 226.00 25.27 226.00 120.97 C 226.00 221.35 225.88 228.73 224.25 231.97 C 222.94 234.58 221.65 235.62 219.10 236.13 C 214.18 237.11 205.38 235.60 198.63 232.61 C 192.31 229.81 189.00 229.40 185.93 231.04 C 183.58 232.29 183.50 234.14 185.59 238.55 C 187.45 242.48 191.75 244.43 203.06 246.47 C 212.44 248.17 216.64 248.27 222.82 246.95 Z  M 62.21 243.24 C 69.05 239.26 83.17 226.73 91.23 217.50 C 96.48 211.48 99.71 206.41 104.29 197.00 C 107.64 190.12 110.57 184.28 110.81 184.00 C 111.69 182.97 141.49 214.94 149.72 225.75 C 158.84 237.73 160.56 238.80 164.97 235.23 C 166.66 233.86 167.00 232.84 166.47 230.75 C 165.69 227.62 150.14 210.16 128.62 188.25 C 113.64 173.00 113.64 173.00 114.97 164.25 C 115.89 158.16 116.43 139.48 116.74 102.71 C 117.13 55.35 117.01 49.67 115.57 47.46 C 113.84 44.82 110.20 44.20 108.20 46.20 C 107.31 47.09 107.00 57.64 106.99 87.45 C 106.98 134.75 105.90 155.20 102.59 171.00 C 99.67 184.92 96.85 192.78 92.25 199.76 C 86.34 208.75 70.63 224.40 61.21 230.69 C 54.10 235.44 52.44 237.02 52.18 239.34 C 51.85 242.20 54.27 246.01 56.40 245.99 C 57.01 245.99 59.62 244.75 62.21 243.24 Z  M 38.44 241.78 C 39.82 239.81 40.00 230.07 40.00 156.69 C 40.00 77.83 40.09 73.46 41.95 66.17 C 47.69 43.59 51.95 20.27 51.98 11.25 C 52.00 6.00 52.00 6.00 48.12 6.00 C 45.99 6.00 43.76 6.58 43.18 7.29 C 42.59 7.99 41.15 15.31 39.97 23.54 C 37.25 42.60 35.95 48.78 30.43 68.90 C 25.63 86.38 14.34 116.58 8.30 128.11 C 5.26 133.93 4.80 135.54 5.60 137.80 C 6.34 139.92 7.19 140.50 9.52 140.50 C 12.01 140.50 13.11 139.60 16.22 135.00 C 18.27 131.97 22.01 124.55 24.53 118.50 C 27.05 112.45 29.51 106.60 29.99 105.50 C 30.50 104.33 30.89 131.71 30.93 171.44 C 31.00 239.37 31.00 239.37 33.17 241.69 C 35.87 244.56 36.49 244.57 38.44 241.78 Z  M 191.44 206.78 C 192.82 204.81 193.00 194.48 193.00 115.48 C 193.00 47.53 192.72 26.12 191.80 25.20 C 191.14 24.54 189.12 24.00 187.32 24.00 C 184.75 24.00 183.92 24.49 183.49 26.25 C 183.19 27.49 183.07 68.37 183.22 117.10 C 183.52 211.15 183.40 209.00 188.07 209.00 C 189.07 209.00 190.59 208.00 191.44 206.78 Z  M 76.44 190.78 C 77.82 188.81 78.00 179.51 78.00 110.32 C 78.00 53.98 78.32 31.40 79.14 29.60 C 79.76 28.22 81.63 26.63 83.29 26.05 C 87.47 24.59 138.12 24.64 141.34 26.11 C 142.68 26.72 144.28 28.32 144.89 29.66 C 145.67 31.38 146.00 55.05 146.00 110.05 C 146.00 186.67 146.03 188.03 148.00 190.00 C 150.27 192.27 151.32 192.44 154.07 190.96 C 155.95 189.95 156.00 188.00 156.00 109.64 C 156.00 38.60 155.82 28.81 154.40 24.65 C 151.64 16.56 151.56 16.54 114.00 16.21 C 81.85 15.93 81.45 15.95 77.00 18.21 C 73.71 19.88 71.89 21.70 70.25 24.96 C 68.00 29.42 68.00 29.42 68.00 108.90 C 68.00 188.37 68.00 188.37 70.17 190.69 C 72.90 193.58 74.46 193.61 76.44 190.78 Z "/>
</g>
</svg>