<?xml version="1.0" encoding="UTF-8" standalone="no"?>
<!DOCTYPE svg PUBLIC "-//W3C//DTD SVG 1.1//EN" "http://www.w3.org/Graphics/SVG/1.1/DTD/svg11.dtd" >
<svg xmlns="http://www.w3.org/2000/svg" xmlns:xlink="http://www.w3.org/1999/xlink" version="1.1" viewBox="0 0 256 256">
 <g >
 <path fill="currentColor"
d=" M 242.78 240.44 C 245.73 238.37 245.61 234.63 242.51 232.18 C 241.14 231.11 236.30 229.25 231.76 228.07 C 216.70 224.14 199.01 218.03 190.70 213.88 C 181.08 209.08 162.00 197.91 162.00 197.08 C 162.01 196.76 166.17 194.38 171.25 191.79 C 186.93 183.82 203.78 173.35 214.68 164.81 C 226.78 155.33 231.00 150.87 231.00 147.54 C 231.00 145.00 228.65 142.00 226.68 142.00 C 224.72 142.01 219.86 145.35 213.00 151.41 C 203.14 160.12 185.11 171.70 167.09 180.89 C 151.96 188.61 150.74 189.06 148.69 187.68 C 143.76 184.37 132.23 173.68 127.28 167.83 C 121.86 161.42 106.00 139.63 106.00 138.58 C 106.00 138.26 129.98 138.00 159.29 138.00 C 212.56 138.00 212.58 138.00 217.04 135.75 C 224.47 132.00 224.45 132.16 224.80 81.00 C 224.98 56.52 224.84 34.59 224.50 32.25 C 223.74 27.04 219.95 22.34 214.54 19.88 C 210.72 18.15 205.82 18.04 125.91 18.02 C 41.31 18.00 41.31 18.00 36.96 20.30 C 33.98 21.88 31.88 23.98 30.30 26.96 C 28.00 31.31 28.00 31.31 28.00 129.13 C 28.00 225.13 27.96 227.01 26.00 230.23 C 23.35 234.57 23.40 238.61 26.13 240.07 C 33.77 244.16 116.92 226.81 125.08 219.43 C 127.23 217.48 127.62 213.02 125.80 211.20 C 123.84 209.24 120.58 209.77 105.30 214.51 C 81.89 221.78 62.33 226.19 43.75 228.40 C 39.00 228.96 39.00 228.96 39.00 183.48 C 39.00 138.00 39.00 138.00 66.25 138.05 C 93.50 138.10 93.50 138.10 101.76 150.80 C 116.18 173.00 131.17 190.63 143.99 200.49 C 160.09 212.88 192.25 227.81 225.93 238.53 C 238.05 242.39 239.72 242.58 242.78 240.44 Z  M 54.25 126.26 C 39.00 125.95 39.00 125.95 39.00 104.47 C 39.00 83.00 39.00 83.00 126.00 83.00 C 213.00 83.00 213.00 83.00 213.00 102.39 C 213.00 119.99 212.82 122.00 211.09 124.14 C 209.18 126.50 209.18 126.50 139.34 126.54 C 100.93 126.56 62.64 126.43 54.25 126.26 Z  M 39.00 53.61 C 39.00 36.01 39.18 34.00 40.91 31.86 C 42.82 29.50 42.82 29.50 125.89 29.23 C 208.05 28.97 208.99 28.99 210.98 30.98 C 212.87 32.87 213.00 34.28 213.00 53.00 C 213.00 73.00 213.00 73.00 126.00 73.00 C 39.00 73.00 39.00 73.00 39.00 53.61 Z "/>
</g>
</svg>