<?xml version="1.0" encoding="UTF-8" standalone="no"?>
<!DOCTYPE svg PUBLIC "-//W3C//DTD SVG 1.1//EN" "http://www.w3.org/Graphics/SVG/1.1/DTD/svg11.dtd" >
<svg xmlns="http://www.w3.org/2000/svg" xmlns:xlink="http://www.w3.org/1999/xlink" version="1.1" viewBox="0 0 256 256">
 <g >
 <path fill="currentColor"
d=" M 56.47 241.17 C 61.12 237.85 66.45 230.50 68.05 225.18 C 69.77 219.45 70.90 198.88 71.01 171.00 C 71.07 156.97 71.43 143.81 71.81 141.74 C 72.39 138.57 74.08 136.59 82.46 129.22 C 90.98 121.74 104.56 107.21 103.76 106.43 C 103.62 106.29 96.97 108.38 89.00 111.06 C 81.03 113.75 74.10 115.96 73.62 115.97 C 72.58 116.01 73.29 83.95 74.38 82.20 C 74.89 81.36 79.13 81.00 88.37 81.00 C 103.27 81.00 105.37 80.28 105.23 75.25 C 105.11 71.06 100.74 62.80 96.97 59.63 C 92.37 55.75 88.87 56.16 83.39 61.21 C 80.88 63.52 77.96 67.12 76.90 69.21 C 75.83 71.29 74.71 73.00 74.40 73.00 C 74.10 73.00 73.96 63.89 74.10 52.75 C 74.39 30.38 74.04 28.74 68.00 23.66 C 61.85 18.48 50.07 17.31 45.31 21.41 C 42.50 23.82 42.50 23.82 42.00 50.66 C 41.50 77.50 41.50 77.50 28.50 78.50 C 19.20 79.22 15.53 79.86 15.60 80.75 C 15.65 81.44 15.77 82.45 15.85 83.00 C 15.94 83.61 21.11 84.00 29.02 84.00 C 42.04 84.00 42.04 84.00 41.77 104.22 C 41.50 124.43 41.50 124.43 28.17 126.65 C 13.95 129.02 10.41 130.52 9.39 134.57 C 7.76 141.09 13.59 152.77 21.00 157.81 C 24.16 159.96 25.32 160.15 32.87 159.77 C 41.24 159.35 41.24 159.35 40.52 177.42 C 39.40 205.43 38.70 210.76 35.72 213.73 C 33.89 215.57 31.71 216.41 27.63 216.87 C 22.04 217.50 22.04 217.50 25.47 225.38 C 30.25 236.35 33.15 240.36 38.17 242.91 C 43.94 245.85 50.81 245.20 56.47 241.17 Z  M 152.57 240.53 C 158.99 238.61 164.19 234.22 167.07 228.28 C 169.37 223.53 169.39 223.16 169.80 176.91 C 170.17 135.53 170.04 129.98 168.61 127.21 C 164.88 120.00 152.78 114.84 144.77 117.05 C 137.79 118.98 138.09 116.99 137.67 164.05 C 137.35 199.69 137.04 207.09 135.73 210.17 C 133.81 214.69 131.49 216.00 125.44 216.00 C 120.75 216.00 120.75 216.00 121.39 219.19 C 122.48 224.63 126.58 232.51 130.21 236.15 C 135.84 241.78 143.41 243.26 152.57 240.53 Z  M 110.12 207.14 C 116.47 203.11 120.32 196.80 122.46 186.91 C 124.49 177.53 124.10 170.95 120.95 161.40 C 118.81 154.91 116.09 150.27 116.03 153.00 C 115.98 155.43 110.53 166.24 107.62 169.68 C 106.15 171.43 100.44 175.87 94.94 179.54 C 84.23 186.70 82.00 189.49 82.00 195.80 C 82.00 204.26 89.10 210.00 99.55 210.00 C 104.50 210.00 106.43 209.48 110.12 207.14 Z  M 200.66 206.89 C 205.77 202.19 207.49 193.47 204.64 186.72 C 202.73 182.18 194.89 173.78 189.11 170.07 C 184.47 167.09 173.92 162.75 173.16 163.51 C 172.96 163.70 173.95 166.71 175.34 170.19 C 176.88 174.03 178.50 181.30 179.46 188.67 C 181.38 203.37 182.41 206.60 185.86 208.54 C 189.75 210.74 197.41 209.89 200.66 206.89 Z  M 232.44 208.59 C 241.05 204.99 244.29 190.01 238.76 179.38 C 233.46 169.18 219.19 159.20 202.64 154.11 C 198.87 152.95 194.67 152.00 193.31 152.00 C 190.91 152.00 190.96 152.15 195.00 156.74 C 200.55 163.04 206.32 175.22 209.57 187.50 C 212.73 199.41 214.85 203.85 219.03 207.37 C 222.60 210.37 227.18 210.79 232.44 208.59 Z  M 89.52 152.89 C 116.19 141.93 139.75 121.29 155.57 95.06 C 160.73 86.50 160.73 86.50 168.11 86.21 C 175.50 85.93 175.50 85.93 178.97 96.21 C 186.33 118.03 197.58 136.38 207.27 142.37 C 212.17 145.39 219.65 146.81 224.43 145.61 C 227.69 144.79 233.62 139.58 236.45 135.04 C 238.47 131.81 244.29 117.80 243.73 117.51 C 243.61 117.44 238.21 115.68 231.75 113.59 C 216.50 108.65 200.24 100.59 190.09 92.95 C 185.64 89.60 182.00 86.50 182.00 86.08 C 182.00 85.65 194.49 84.72 209.75 84.01 C 225.01 83.30 238.51 82.34 239.75 81.88 C 248.27 78.73 232.22 63.00 220.48 63.00 C 214.26 63.00 211.31 64.75 203.86 72.87 C 197.50 79.81 197.50 79.81 180.25 80.53 C 170.76 80.93 163.00 80.98 163.00 80.65 C 163.00 80.32 164.29 76.78 165.87 72.78 C 169.39 63.88 174.00 47.98 174.00 44.76 C 174.00 43.46 173.49 41.89 172.87 41.27 C 171.27 39.67 174.66 39.27 200.50 37.97 C 224.26 36.78 228.00 36.04 228.00 32.56 C 228.00 26.91 213.41 16.00 205.87 16.00 C 201.25 16.00 195.02 20.05 188.34 27.40 C 182.50 33.82 182.50 33.82 147.00 35.47 C 127.47 36.38 109.94 37.45 108.03 37.84 C 104.56 38.56 104.56 38.56 106.86 40.86 C 108.69 42.69 109.88 43.04 112.83 42.61 C 114.85 42.31 121.84 41.77 128.36 41.41 C 140.22 40.75 140.22 40.75 139.51 45.12 C 138.71 50.03 131.78 72.02 128.93 78.67 C 127.07 83.00 127.07 83.00 111.50 83.00 C 98.15 83.00 95.85 83.23 95.32 84.60 C 94.26 87.37 97.10 87.97 111.25 87.98 C 118.81 87.99 125.00 88.29 125.00 88.65 C 125.00 89.01 122.90 93.17 120.33 97.90 C 108.82 119.10 96.81 136.49 84.39 149.89 C 76.89 158.00 76.97 158.05 89.52 152.89 Z "/>
</g>
</svg>