<?xml version="1.0" encoding="UTF-8" standalone="no"?>
<!DOCTYPE svg PUBLIC "-//W3C//DTD SVG 1.1//EN" "http://www.w3.org/Graphics/SVG/1.1/DTD/svg11.dtd" >
<svg xmlns="http://www.w3.org/2000/svg" xmlns:xlink="http://www.w3.org/1999/xlink" version="1.1" viewBox="0 0 256 256">
 <g >
 <path fill="currentColor"
d=" M 53.81 242.23 C 55.84 241.18 58.85 238.41 60.50 236.08 C 63.50 231.83 63.50 231.83 64.23 189.17 C 64.63 165.70 65.34 137.72 65.80 127.00 C 66.27 115.91 66.25 106.42 65.76 105.00 C 65.27 103.62 63.57 101.14 61.97 99.49 C 59.07 96.47 59.07 96.47 63.96 86.49 C 73.81 66.40 79.47 44.33 77.02 35.59 C 74.52 26.66 64.47 19.00 55.24 19.00 C 46.77 19.00 46.24 19.96 42.52 42.30 C 39.38 61.11 32.00 90.16 26.44 105.56 C 24.05 112.19 18.96 124.69 15.14 133.33 C 8.18 149.05 8.18 149.05 11.84 146.85 C 18.22 143.01 21.31 140.70 28.91 134.09 C 36.32 127.65 36.32 127.65 35.66 147.57 C 35.29 158.53 34.05 182.89 32.88 201.71 C 30.79 235.49 30.79 235.96 32.69 239.21 C 33.74 241.02 35.71 243.08 37.05 243.80 C 40.28 245.51 49.04 244.69 53.81 242.23 Z  M 96.38 240.73 C 99.26 239.15 100.86 237.42 101.69 234.98 C 102.56 232.46 102.90 216.27 102.94 176.05 C 102.98 143.46 103.37 120.99 103.89 121.55 C 105.57 123.33 106.94 132.80 107.53 146.66 C 107.86 154.27 108.32 161.48 108.56 162.68 C 109.28 166.23 111.82 168.00 116.21 168.00 C 120.28 168.00 120.28 168.00 119.58 186.25 C 119.19 196.29 118.41 206.30 117.85 208.50 C 116.50 213.76 113.41 217.00 109.75 217.00 C 106.99 217.00 106.88 217.17 107.53 220.25 C 111.54 239.21 128.14 248.09 139.10 237.14 C 145.79 230.45 145.85 229.93 148.10 158.01 C 150.12 93.53 150.12 93.53 153.56 90.69 C 156.43 88.33 157.00 87.19 157.00 83.89 C 157.00 78.70 154.15 73.27 148.96 68.58 C 143.73 63.86 139.36 62.00 133.48 62.00 C 127.90 62.00 124.71 63.58 119.55 68.92 C 114.67 73.95 111.15 74.26 105.45 70.16 C 96.91 64.02 84.74 61.96 79.94 65.85 C 77.11 68.14 77.27 65.48 76.00 129.34 C 75.46 156.76 74.49 192.16 73.85 208.02 C 72.76 234.78 72.80 237.05 74.40 239.48 C 75.34 240.93 77.10 242.53 78.31 243.05 C 81.77 244.54 91.81 243.26 96.38 240.73 Z  M 174.59 242.87 C 177.05 242.25 180.32 240.57 181.87 239.12 C 184.67 236.50 184.67 236.50 185.34 204.50 C 186.98 125.30 187.25 118.96 188.74 125.00 C 189.48 128.03 190.45 137.79 190.89 146.69 C 191.86 166.20 192.74 168.43 199.23 167.81 C 203.30 167.42 203.30 167.42 202.67 184.46 C 201.68 211.74 200.18 217.00 193.43 217.00 C 190.16 217.00 190.16 217.00 191.19 220.75 C 194.20 231.66 200.94 240.34 207.36 241.54 C 215.77 243.12 224.30 237.60 226.92 228.89 C 229.49 220.36 230.05 210.98 230.97 160.67 C 232.08 100.12 232.70 88.00 234.69 88.00 C 237.25 88.00 241.00 83.26 241.00 80.01 C 241.00 76.12 237.05 68.30 233.34 64.86 C 226.60 58.60 216.35 56.19 210.20 59.42 C 208.72 60.20 205.72 62.67 203.55 64.92 C 198.50 70.13 195.04 70.29 187.17 65.68 C 179.69 61.30 175.71 60.00 169.85 60.00 C 164.11 60.00 161.59 62.00 160.14 67.70 C 159.61 69.81 158.93 100.11 158.61 136.00 C 158.30 171.48 157.60 208.82 157.06 218.99 C 156.22 234.95 156.30 237.80 157.60 239.80 C 160.31 243.93 166.18 244.99 174.59 242.87 Z  M 166.32 41.95 C 202.51 40.33 234.04 39.00 236.37 39.00 C 242.47 39.00 244.46 37.25 243.59 32.64 C 242.64 27.57 238.02 22.66 230.78 19.05 C 219.63 13.47 212.97 15.68 200.72 29.02 C 194.50 35.78 194.50 35.78 142.00 37.93 C 83.03 40.34 81.00 40.50 81.00 42.59 C 81.00 44.94 84.94 45.85 93.00 45.36 C 97.12 45.11 130.12 43.57 166.32 41.95 Z  M 116.65 131.61 C 114.64 127.54 110.97 121.96 108.50 119.21 C 104.00 114.21 104.00 114.21 104.00 98.73 C 104.00 90.22 104.28 81.84 104.62 80.12 C 105.25 77.00 105.25 77.00 113.12 77.00 C 121.00 77.00 121.00 77.00 121.00 108.00 C 121.00 125.05 120.84 139.00 120.65 139.00 C 120.46 139.00 118.66 135.67 116.65 131.61 Z  M 199.74 129.67 C 197.67 125.63 193.95 120.22 191.49 117.65 C 187.00 112.96 187.00 112.96 187.00 101.13 C 187.00 94.63 187.29 85.86 187.65 81.65 C 188.29 74.00 188.29 74.00 195.99 74.00 C 203.69 74.00 203.69 74.00 204.34 91.25 C 205.11 111.56 205.02 130.39 204.13 134.25 C 203.54 136.82 203.25 136.52 199.74 129.67 Z "/>
</g>
</svg>