<?xml version="1.0" encoding="UTF-8" standalone="no"?>
<!DOCTYPE svg PUBLIC "-//W3C//DTD SVG 1.1//EN" "http://www.w3.org/Graphics/SVG/1.1/DTD/svg11.dtd" >
<svg xmlns="http://www.w3.org/2000/svg" xmlns:xlink="http://www.w3.org/1999/xlink" version="1.1" viewBox="0 0 256 256">
 <g >
 <path fill="currentColor"
d=" M 40.07 244.40 C 53.98 240.29 62.10 221.03 59.17 199.05 C 57.53 186.75 57.19 186.11 54.79 190.96 C 51.60 197.40 42.47 205.00 30.22 211.39 C 16.78 218.40 15.55 219.92 15.52 229.57 C 15.50 235.79 15.84 237.09 18.29 240.31 C 22.57 245.93 30.09 247.34 40.07 244.40 Z  M 105.68 238.93 C 112.63 236.30 116.24 230.25 116.19 221.34 C 116.12 209.54 108.80 198.87 96.17 192.20 C 91.32 189.63 83.00 186.61 83.00 187.42 C 83.00 187.56 83.93 191.24 85.07 195.59 C 86.80 202.16 87.04 205.19 86.52 213.53 C 85.58 228.56 88.03 236.37 94.50 239.05 C 97.35 240.23 102.41 240.18 105.68 238.93 Z  M 231.02 235.71 C 239.01 231.48 242.38 219.54 238.08 210.66 C 233.59 201.39 221.51 193.04 206.80 189.03 C 199.64 187.09 184.90 185.02 178.03 185.01 C 174.55 185.00 174.55 185.00 182.58 192.75 C 191.77 201.62 195.92 207.58 202.24 221.00 C 206.93 230.95 210.75 235.51 215.60 236.96 C 220.90 238.54 226.52 238.09 231.02 235.71 Z  M 167.76 234.33 C 172.72 230.63 174.38 227.36 174.82 220.45 C 175.35 212.10 173.27 206.43 167.58 200.74 C 159.91 193.07 147.99 188.30 132.18 186.57 C 125.86 185.88 125.86 185.88 130.73 192.25 C 135.98 199.09 139.86 207.59 142.53 218.07 C 146.18 232.41 151.05 237.51 160.32 236.70 C 162.98 236.47 166.33 235.40 167.76 234.33 Z  M 139.61 180.52 C 145.73 178.70 149.74 174.71 150.18 170.00 C 150.50 166.50 150.50 166.50 159.00 165.85 C 163.68 165.50 171.89 164.97 177.25 164.68 C 187.00 164.16 187.00 164.16 187.00 168.03 C 187.00 176.22 190.25 179.00 199.80 178.99 C 207.71 178.99 212.57 177.42 216.84 173.51 C 220.49 170.17 220.50 170.12 221.14 159.83 C 221.50 154.15 221.84 145.56 221.89 140.75 C 221.98 133.90 222.31 132.00 223.42 132.00 C 224.21 132.00 226.23 130.83 227.92 129.41 C 231.88 126.09 231.91 122.71 228.03 116.87 C 222.66 108.76 211.85 102.86 202.37 102.86 C 196.14 102.86 193.90 103.89 188.21 109.37 C 183.92 113.50 183.92 113.50 169.79 113.83 C 155.66 114.16 155.66 114.16 147.95 110.54 C 135.41 104.65 124.70 104.09 120.91 109.12 C 119.04 111.60 118.50 118.50 117.40 154.24 C 116.83 172.67 116.94 175.27 118.44 177.54 C 119.36 178.95 121.10 180.50 122.31 180.99 C 125.74 182.37 134.15 182.14 139.61 180.52 Z  M 47.07 178.25 C 53.88 174.80 56.00 171.01 56.00 162.25 C 56.00 156.00 56.00 156.00 64.00 156.00 C 72.00 156.00 72.00 156.00 72.00 161.58 C 72.00 166.46 72.38 167.53 75.04 170.19 C 77.89 173.04 78.46 173.20 84.29 172.83 C 92.18 172.32 99.46 168.91 101.74 164.65 C 103.12 162.08 103.56 157.20 104.12 138.00 C 104.50 125.07 104.85 113.14 104.91 111.48 C 105.00 108.53 105.23 108.40 113.85 106.15 C 131.55 101.53 149.36 90.99 158.99 79.43 C 164.92 72.32 170.62 60.09 173.74 47.83 C 176.84 35.62 176.34 36.00 189.22 36.00 C 196.20 36.00 196.20 36.00 195.48 42.25 C 194.04 54.83 189.59 68.28 185.23 73.25 C 184.10 74.53 182.17 75.00 177.98 75.00 C 172.27 75.00 172.27 75.00 173.19 80.25 C 174.45 87.48 178.51 95.51 182.25 98.18 C 185.62 100.58 194.26 101.74 200.32 100.60 C 205.56 99.62 212.84 94.22 216.51 88.59 C 220.18 82.97 225.38 67.56 226.51 59.00 C 227.34 52.64 228.50 50.00 230.46 50.00 C 231.22 50.00 233.23 48.83 234.92 47.41 C 240.51 42.71 238.60 36.71 228.77 28.09 C 222.00 22.16 210.45 19.36 203.57 21.97 C 202.17 22.51 199.10 24.71 196.76 26.87 C 192.50 30.79 192.50 30.79 153.28 33.19 C 131.72 34.52 113.72 35.95 113.28 36.38 C 111.75 37.93 117.23 41.18 120.45 40.63 C 122.13 40.34 126.99 39.81 131.25 39.44 C 139.00 38.77 139.00 38.77 139.00 41.25 C 139.00 46.20 134.05 63.09 130.20 71.32 C 125.17 82.05 119.96 89.70 111.67 98.50 C 105.09 105.50 105.09 105.50 105.04 84.31 C 105.00 63.11 105.00 63.11 107.97 61.36 C 111.98 58.99 113.12 55.40 111.44 50.49 C 109.45 44.71 107.16 42.18 100.06 37.88 C 90.28 31.97 83.76 32.50 75.76 39.86 C 69.55 45.58 65.01 45.71 54.60 40.50 C 48.34 37.37 45.33 36.47 40.10 36.18 C 34.00 35.84 33.31 36.02 31.00 38.49 C 28.50 41.16 28.50 41.16 27.84 80.83 C 27.48 102.65 26.66 131.88 26.02 145.78 C 25.38 159.69 25.15 172.39 25.50 174.02 C 27.11 181.35 37.09 183.30 47.07 178.25 Z  M 150.30 140.96 C 150.65 129.80 151.29 120.33 151.72 119.92 C 152.15 119.51 160.49 119.02 170.25 118.84 C 188.00 118.50 188.00 118.50 187.99 136.50 C 187.98 146.40 187.71 155.48 187.39 156.67 C 186.70 159.24 184.41 159.62 163.59 160.60 C 149.68 161.26 149.68 161.26 150.30 140.96 Z  M 56.00 136.66 C 56.00 128.77 56.29 117.52 56.65 111.66 C 57.30 101.00 57.30 101.00 65.92 101.00 C 74.53 101.00 74.53 101.00 74.26 112.25 C 74.11 118.44 73.72 129.41 73.40 136.64 C 72.81 149.79 72.81 149.79 69.78 150.39 C 68.11 150.73 64.33 151.00 61.38 151.00 C 56.00 151.00 56.00 151.00 56.00 136.66 Z  M 57.54 77.75 C 58.18 55.61 58.64 50.84 60.26 49.82 C 60.94 49.39 64.65 49.02 68.50 49.01 C 75.50 49.00 75.50 49.00 75.23 71.25 C 75.07 83.49 74.75 94.06 74.51 94.75 C 74.20 95.62 71.45 96.00 65.54 96.00 C 57.01 96.00 57.01 96.00 57.54 77.75 Z "/>
</g>
</svg>