<?xml version="1.0" encoding="UTF-8" standalone="no"?>
<!DOCTYPE svg PUBLIC "-//W3C//DTD SVG 1.1//EN" "http://www.w3.org/Graphics/SVG/1.1/DTD/svg11.dtd" >
<svg xmlns="http://www.w3.org/2000/svg" xmlns:xlink="http://www.w3.org/1999/xlink" version="1.1" viewBox="0 0 256 256">
 <g >
 <path fill="currentColor"
d=" M 70.23 242.35 C 77.68 240.26 81.72 236.60 82.60 231.13 C 83.05 228.28 83.76 226.99 84.88 226.97 C 85.77 226.96 103.60 226.30 124.50 225.50 C 145.40 224.70 163.51 224.03 164.75 224.02 C 166.75 224.00 167.00 224.50 167.00 228.45 C 167.00 238.26 171.67 241.63 183.94 240.68 C 193.06 239.98 197.88 238.12 201.38 233.96 C 203.91 230.95 204.00 230.40 204.04 217.67 C 204.07 204.50 204.07 204.50 208.29 202.50 C 212.02 200.73 212.54 200.07 212.81 196.70 C 213.51 188.22 204.19 177.49 192.21 172.99 C 182.98 169.52 176.20 170.87 168.98 177.62 C 164.22 182.06 164.22 182.06 126.52 183.61 C 88.82 185.16 88.82 185.16 80.66 181.05 C 67.26 174.29 55.59 173.32 50.39 178.52 C 48.00 180.91 48.00 180.91 48.00 208.73 C 48.00 239.45 48.07 239.82 54.38 242.56 C 58.58 244.39 63.20 244.33 70.23 242.35 Z  M 89.10 173.28 C 92.43 172.20 95.77 170.18 97.99 167.89 C 101.54 164.23 101.54 164.23 125.51 163.21 C 138.70 162.64 149.83 162.39 150.24 162.65 C 150.66 162.91 151.00 163.96 151.00 164.99 C 151.00 166.01 152.19 167.79 153.63 168.93 C 156.91 171.50 167.05 171.77 174.74 169.48 C 182.22 167.26 184.65 163.90 185.53 154.56 C 186.07 148.76 186.62 146.94 187.94 146.52 C 191.06 145.53 194.00 141.97 194.00 139.19 C 194.00 136.12 194.38 135.87 210.33 128.55 C 217.59 125.22 221.91 123.88 226.83 123.44 C 238.05 122.43 241.00 120.50 241.00 114.13 C 241.00 109.77 239.31 105.96 235.69 102.13 C 231.51 97.71 222.83 92.12 218.93 91.34 C 216.34 90.82 215.95 90.38 216.51 88.61 C 218.99 80.85 216.68 73.80 210.27 69.56 C 205.36 66.31 196.95 63.33 190.16 62.43 C 187.28 62.04 185.07 61.28 185.26 60.73 C 185.44 60.17 190.22 58.43 195.88 56.84 C 207.88 53.49 211.29 51.91 215.84 47.64 C 222.24 41.62 223.69 35.28 220.04 29.30 C 217.37 24.92 212.96 22.83 207.20 23.20 C 201.88 23.54 203.31 21.55 193.35 42.47 C 190.21 49.06 187.44 53.83 187.19 53.07 C 186.94 52.32 187.30 48.73 187.98 45.09 C 188.67 41.44 189.07 34.79 188.86 30.29 C 188.52 22.84 188.23 21.84 185.50 18.93 C 179.10 12.13 168.53 9.92 163.42 14.31 C 160.76 16.61 160.72 16.80 159.93 34.19 C 158.51 65.51 152.99 81.02 137.65 96.85 C 131.50 103.20 131.50 103.20 135.00 102.53 C 149.96 99.67 167.25 90.18 175.37 80.36 C 176.94 78.45 179.47 74.63 180.98 71.86 C 183.73 66.83 183.73 66.83 185.74 70.17 C 186.85 72.00 188.55 75.97 189.51 79.00 C 192.20 87.39 194.78 91.90 198.05 93.88 C 201.02 95.69 201.02 95.69 198.76 98.11 C 196.50 100.54 196.50 100.54 125.25 104.44 C 86.07 106.59 53.85 108.15 53.65 107.92 C 53.45 107.69 53.00 106.31 52.65 104.86 C 52.10 102.58 52.39 102.12 54.76 101.55 C 56.27 101.18 61.15 99.13 65.60 96.98 C 74.60 92.65 83.45 84.24 87.27 76.38 C 88.96 72.90 89.64 72.28 90.76 73.21 C 92.89 74.98 95.55 80.76 97.93 88.74 C 100.87 98.63 103.48 101.53 109.35 101.41 C 114.97 101.29 118.39 99.12 120.99 94.03 C 124.76 86.63 122.99 78.38 116.57 73.49 C 112.52 70.40 101.59 67.00 95.71 67.00 C 92.01 67.00 91.88 66.89 92.19 63.86 C 92.50 60.76 92.62 60.69 102.39 58.35 C 114.52 55.43 120.89 52.08 125.48 46.19 C 129.93 40.48 130.06 36.77 126.02 31.19 C 120.94 24.17 114.14 22.04 110.30 26.25 C 109.17 27.49 105.74 33.45 102.67 39.50 C 99.59 45.56 96.36 51.41 95.48 52.50 C 93.93 54.42 93.89 54.39 94.51 51.50 C 95.85 45.26 96.16 34.29 95.09 30.35 C 92.91 22.25 85.95 17.07 77.17 17.02 C 73.76 17.00 72.26 17.59 70.08 19.77 C 67.34 22.51 67.30 22.72 66.58 39.52 C 65.78 58.33 64.08 69.97 60.88 78.71 C 58.69 84.69 51.07 98.00 49.84 98.00 C 49.46 98.00 48.22 96.82 47.09 95.38 C 45.21 92.99 44.98 92.93 44.43 94.63 C 42.09 101.93 40.07 104.60 30.82 112.60 C 25.41 117.29 20.32 122.42 19.49 124.01 C 16.38 130.04 18.22 138.11 23.94 143.50 C 26.92 146.30 27.64 146.50 34.89 146.50 C 41.63 146.50 43.18 146.15 46.70 143.82 C 53.09 139.59 55.51 133.61 55.45 122.25 C 55.40 113.00 55.40 113.00 60.45 112.98 C 63.23 112.96 96.10 111.43 133.50 109.58 C 180.07 107.27 201.89 106.53 202.75 107.22 C 205.35 109.34 204.07 115.11 198.77 125.24 C 194.41 133.59 193.38 134.94 192.52 133.48 C 188.50 126.61 178.36 119.08 169.66 116.49 C 163.01 114.52 158.74 115.73 151.43 121.69 C 145.72 126.34 145.72 126.34 129.11 127.22 C 108.53 128.32 104.07 127.97 96.49 124.71 C 88.47 121.25 78.13 119.62 72.99 121.00 C 66.26 122.82 66.00 123.78 66.00 147.29 C 66.00 159.61 66.42 168.91 67.03 170.05 C 69.66 174.97 79.43 176.40 89.10 173.28 Z  M 47.33 80.64 C 55.31 77.30 59.51 67.24 58.80 53.10 C 58.47 46.44 57.74 43.09 55.56 38.27 C 52.89 32.37 51.00 30.97 51.00 34.90 C 51.00 38.73 44.50 49.51 38.81 55.10 C 32.36 61.46 30.00 65.93 30.00 71.81 C 30.00 76.30 31.94 78.50 37.68 80.55 C 42.54 82.28 43.37 82.29 47.33 80.64 Z  M 144.00 74.17 C 147.62 71.60 151.69 62.96 152.48 56.18 C 153.37 48.48 151.74 40.02 147.82 32.02 C 144.64 25.53 144.64 25.53 143.50 30.52 C 141.72 38.24 137.62 45.25 131.45 51.13 C 128.35 54.08 125.18 57.72 124.40 59.20 C 122.40 63.05 122.63 69.32 124.87 72.09 C 128.82 76.97 138.56 78.03 144.00 74.17 Z  M 83.02 207.25 C 83.02 199.14 83.37 191.97 83.77 191.33 C 84.29 190.52 94.13 189.84 116.01 189.09 C 133.33 188.50 152.34 187.75 158.25 187.42 C 169.00 186.83 169.00 186.83 168.98 201.67 C 168.98 209.82 168.62 217.05 168.19 217.72 C 167.63 218.60 156.18 219.36 126.46 220.46 C 103.93 221.30 84.94 221.99 84.25 221.99 C 83.31 222.00 83.00 218.39 83.02 207.25 Z  M 101.00 147.17 C 101.00 140.54 101.34 134.92 101.75 134.67 C 102.16 134.43 111.95 133.71 123.50 133.09 C 135.05 132.46 145.74 131.74 147.25 131.50 C 150.00 131.05 150.00 131.05 150.00 143.93 C 150.00 156.80 150.00 156.80 144.25 157.37 C 141.09 157.68 130.06 158.22 119.75 158.58 C 101.00 159.22 101.00 159.22 101.00 147.17 Z "/>
</g>
</svg>