<?xml version="1.0" encoding="UTF-8" standalone="no"?>
<!DOCTYPE svg PUBLIC "-//W3C//DTD SVG 1.1//EN" "http://www.w3.org/Graphics/SVG/1.1/DTD/svg11.dtd" >
<svg xmlns="http://www.w3.org/2000/svg" xmlns:xlink="http://www.w3.org/1999/xlink" version="1.1" viewBox="0 0 256 256">
 <g >
 <path fill="currentColor"
d=" M 71.28 239.14 C 76.83 235.71 79.19 232.48 79.75 227.56 C 80.03 225.05 80.76 222.99 81.38 222.99 C 82.00 222.98 102.97 222.09 128.00 221.00 C 153.03 219.91 174.06 219.02 174.75 219.01 C 175.58 219.00 176.00 220.65 176.00 223.95 C 176.00 226.68 176.51 230.03 177.14 231.40 C 181.35 240.66 204.08 237.36 209.70 226.67 C 211.09 224.03 211.49 218.73 212.07 195.00 C 212.83 164.41 213.49 157.00 215.48 157.00 C 216.17 157.00 217.92 156.07 219.37 154.93 C 226.79 149.09 218.54 134.72 203.50 127.27 C 193.94 122.53 187.41 123.61 179.32 131.26 C 173.93 136.36 173.93 136.36 155.21 137.29 C 144.92 137.80 136.33 138.38 136.13 138.57 C 135.92 138.76 136.04 139.67 136.40 140.59 C 136.98 142.11 138.72 142.20 154.77 141.58 C 164.52 141.20 173.96 140.64 175.75 140.34 C 179.00 139.78 179.00 139.78 178.98 155.14 C 178.98 163.59 178.60 171.09 178.14 171.81 C 177.39 172.99 156.91 174.88 143.75 174.97 C 140.72 174.99 140.00 175.37 140.00 176.93 C 140.00 178.02 140.92 179.16 142.11 179.53 C 144.14 180.18 160.31 179.56 172.25 178.37 C 178.00 177.80 178.00 177.80 177.94 188.15 C 177.87 199.20 176.79 212.55 175.88 213.45 C 175.49 213.84 89.45 217.95 80.75 218.00 C 79.85 218.00 79.75 195.13 80.62 188.74 C 81.25 184.20 81.25 184.20 95.87 183.57 C 103.92 183.23 115.00 182.63 120.50 182.23 C 130.50 181.50 130.50 181.50 130.82 178.66 C 131.46 173.08 121.68 162.87 114.30 161.42 C 110.26 160.63 103.25 165.64 98.08 173.00 C 93.87 179.00 93.87 179.00 87.44 179.00 C 81.00 179.00 81.00 179.00 81.00 165.58 C 81.00 158.20 81.27 151.45 81.61 150.58 C 82.06 149.39 83.65 149.00 88.01 149.00 C 100.74 149.00 125.86 143.24 130.18 139.34 C 132.77 137.00 132.61 130.05 129.90 126.60 C 127.36 123.37 119.82 119.42 113.51 118.00 C 106.63 116.46 102.04 118.03 97.62 123.42 C 95.64 125.84 91.08 130.39 87.49 133.54 C 80.97 139.27 80.97 139.27 73.04 136.14 C 68.67 134.41 64.63 133.00 64.05 133.00 C 61.68 133.00 63.26 131.19 67.18 129.42 C 75.53 125.65 95.11 111.94 103.21 104.18 C 111.50 96.24 111.50 96.24 132.08 94.95 C 152.75 93.65 155.60 93.81 156.57 96.32 C 157.47 98.68 153.07 108.67 147.13 117.75 C 143.98 122.56 141.05 127.08 140.62 127.79 C 140.19 128.49 142.69 127.45 146.17 125.46 C 160.21 117.47 172.86 111.99 183.83 109.16 C 190.06 107.55 195.63 105.77 196.19 105.21 C 196.76 104.64 197.46 102.13 197.74 99.64 C 198.15 95.96 197.75 94.25 195.62 90.61 C 190.59 82.03 179.46 75.06 170.70 75.02 C 164.48 74.99 161.30 76.72 155.36 83.39 C 150.50 88.84 150.50 88.84 132.65 89.55 C 114.83 90.25 114.80 90.25 115.90 88.19 C 116.50 87.06 117.00 85.18 117.00 84.03 C 117.00 81.03 113.50 74.56 109.45 70.08 C 106.03 66.29 106.01 66.22 107.50 62.66 C 108.32 60.68 109.00 57.29 109.00 55.11 C 109.00 50.26 108.63 50.36 130.26 49.45 C 146.02 48.79 146.02 48.79 145.86 57.16 C 145.69 66.47 147.37 71.35 151.18 72.56 C 155.83 74.03 164.40 73.04 169.79 70.40 C 176.80 66.97 179.63 62.58 180.54 53.77 C 181.37 45.65 178.34 46.50 212.00 44.90 C 225.47 44.25 237.34 43.29 238.36 42.77 C 239.80 42.03 240.08 41.13 239.59 38.71 C 238.79 34.72 235.96 31.67 228.59 26.86 C 218.33 20.15 212.32 21.86 200.00 35.00 C 194.50 40.86 194.50 40.87 188.02 41.18 C 181.55 41.50 181.55 41.50 181.86 33.20 C 182.18 24.89 182.18 24.89 177.34 20.06 C 171.85 14.58 167.64 13.01 158.36 13.01 C 148.03 13.00 146.07 16.35 146.02 34.14 C 146.00 43.79 146.00 43.79 130.25 44.45 C 121.59 44.81 113.25 45.35 111.72 45.64 C 108.95 46.17 108.95 46.17 109.15 38.08 C 109.33 30.43 109.18 29.79 106.31 26.25 C 104.65 24.19 100.86 21.22 97.89 19.66 C 93.23 17.21 91.64 16.88 86.12 17.22 C 80.65 17.56 79.39 18.01 77.37 20.36 C 75.18 22.90 75.00 23.97 75.00 34.50 C 75.00 40.76 74.66 46.09 74.24 46.35 C 73.83 46.61 60.09 47.63 43.72 48.61 C 27.35 49.60 13.41 50.75 12.74 51.16 C 10.64 52.46 13.61 54.40 17.75 54.43 C 19.81 54.45 33.32 54.09 47.77 53.62 C 74.04 52.78 74.04 52.78 73.85 60.14 C 73.65 68.07 74.74 70.99 78.70 73.11 C 79.97 73.78 81.00 74.66 81.00 75.06 C 81.00 76.27 70.13 91.07 64.16 98.00 C 54.57 109.12 30.97 132.79 20.50 141.79 C 15.00 146.52 10.05 150.78 9.50 151.27 C 8.92 151.78 9.75 151.86 11.50 151.47 C 14.39 150.82 41.50 142.00 45.41 140.43 C 47.28 139.68 47.31 140.37 46.69 168.58 C 46.35 184.49 45.56 205.46 44.95 215.20 C 43.69 235.30 44.08 237.24 50.00 240.32 C 54.67 242.74 66.50 242.09 71.28 239.14 Z "/>
</g>
</svg>