<?xml version="1.0" encoding="UTF-8" standalone="no"?>
<!DOCTYPE svg PUBLIC "-//W3C//DTD SVG 1.1//EN" "http://www.w3.org/Graphics/SVG/1.1/DTD/svg11.dtd" >
<svg xmlns="http://www.w3.org/2000/svg" xmlns:xlink="http://www.w3.org/1999/xlink" version="1.1" viewBox="0 0 256 256">
 <g >
 <path fill="currentColor"
d=" M 132.50 241.94 C 134.80 241.27 138.30 238.96 140.75 236.52 C 145.00 232.26 145.00 232.26 145.00 220.13 C 145.00 210.31 145.27 208.00 146.42 208.00 C 147.20 208.00 168.47 207.08 193.67 205.95 C 228.50 204.40 239.82 203.59 240.85 202.56 C 244.01 199.43 238.27 189.71 231.11 186.05 C 220.91 180.85 214.66 182.57 204.06 193.51 C 196.84 200.95 196.84 200.95 173.67 201.97 C 160.93 202.54 149.26 203.00 147.75 203.00 C 145.00 203.00 145.00 203.00 145.00 194.97 C 145.00 189.42 145.39 186.82 146.25 186.54 C 146.94 186.33 151.21 185.86 155.75 185.51 C 163.72 184.88 164.00 184.94 164.00 187.01 C 164.00 188.19 165.38 190.53 167.06 192.21 C 170.11 195.26 170.14 195.27 179.00 194.76 C 186.22 194.35 188.73 193.76 192.40 191.61 C 199.71 187.33 200.00 186.50 200.00 170.28 C 200.00 158.07 200.22 156.00 201.55 156.00 C 202.40 156.00 204.20 154.90 205.55 153.55 C 211.73 147.36 205.43 135.74 192.95 130.33 C 191.55 129.72 187.86 128.70 184.77 128.06 C 177.39 126.52 172.80 127.78 166.02 133.17 C 160.80 137.33 160.80 137.33 127.53 138.80 C 94.26 140.27 94.26 140.27 88.68 137.63 C 83.67 135.26 80.66 134.41 69.17 132.16 C 65.83 131.50 65.83 131.50 68.67 129.40 C 71.35 127.42 74.70 127.13 126.51 124.35 C 162.05 122.45 181.64 121.76 181.90 122.40 C 182.12 122.94 183.33 124.42 184.60 125.69 C 186.49 127.58 187.98 128.00 192.77 128.00 C 200.55 128.00 208.67 125.48 212.16 121.99 C 214.83 119.33 215.00 118.64 215.00 110.80 C 215.00 102.44 215.00 102.44 217.98 101.31 C 224.50 98.85 224.46 90.78 217.90 84.01 C 212.25 78.19 203.04 74.00 195.90 74.00 C 189.98 74.00 185.67 76.28 180.08 82.36 C 177.95 84.68 176.88 85.00 171.33 85.00 C 165.00 85.00 165.00 85.00 165.00 77.02 C 165.00 69.55 165.14 69.01 167.25 68.58 C 168.49 68.32 183.90 67.34 201.50 66.41 C 219.10 65.47 234.51 64.33 235.75 63.88 C 241.11 61.91 236.02 53.07 226.87 48.44 C 217.45 43.66 209.65 46.00 200.34 56.38 C 195.50 61.78 195.50 61.78 109.58 66.14 C 47.54 69.29 23.56 70.83 23.27 71.69 C 23.05 72.34 23.92 73.50 25.19 74.27 C 27.15 75.46 31.11 75.48 51.50 74.41 C 64.70 73.72 79.01 73.12 83.29 73.08 C 91.08 73.00 91.08 73.00 90.79 81.25 C 90.50 89.50 90.50 89.50 82.14 89.79 C 76.06 90.00 73.16 89.68 71.53 88.61 C 67.36 85.88 56.71 83.00 50.79 83.00 C 45.99 83.00 44.49 83.42 42.61 85.30 C 40.40 87.51 40.30 88.39 39.73 109.05 C 39.15 129.89 39.20 130.56 41.24 132.75 C 43.06 134.69 44.37 135.00 50.71 135.00 C 57.40 135.00 57.99 135.16 57.17 136.75 C 55.66 139.69 54.84 193.41 56.28 195.31 C 59.20 199.14 68.86 200.12 77.76 197.48 C 81.44 196.39 83.84 194.84 86.29 191.98 C 89.69 188.00 89.69 188.00 100.35 188.00 C 111.00 188.00 111.00 188.00 111.00 195.90 C 111.00 203.80 111.00 203.80 99.75 204.43 C 93.56 204.77 72.09 205.74 52.04 206.58 C 31.98 207.41 15.33 208.34 15.04 208.63 C 13.91 209.75 18.54 212.00 21.94 211.98 C 23.90 211.97 43.95 211.31 66.50 210.50 C 115.57 208.76 111.22 208.83 110.64 209.78 C 110.37 210.21 110.02 216.70 109.85 224.20 C 109.58 236.62 109.73 238.04 111.53 240.04 C 112.61 241.25 114.40 242.63 115.50 243.12 C 117.92 244.18 127.00 243.55 132.50 241.94 Z  M 100.00 60.83 C 106.21 58.16 109.74 54.50 110.51 49.94 C 111.30 45.29 111.09 45.34 131.90 44.43 C 147.29 43.76 147.29 43.76 146.63 47.88 C 145.81 53.05 147.92 58.50 151.16 59.60 C 155.58 61.09 165.88 60.24 170.51 57.99 C 176.25 55.22 181.00 49.80 181.00 46.03 C 181.00 43.36 181.35 43.08 185.25 42.58 C 187.59 42.28 200.97 41.52 215.00 40.89 C 229.03 40.26 241.29 39.33 242.25 38.84 C 245.72 37.04 243.74 30.96 237.84 25.30 C 231.68 19.40 223.03 17.38 217.06 20.47 C 215.50 21.28 211.36 25.07 207.86 28.90 C 201.50 35.86 201.50 35.86 191.71 36.72 C 186.32 37.19 181.71 37.37 181.46 37.12 C 181.21 36.87 181.00 33.61 181.00 29.87 C 181.00 23.43 180.81 22.88 177.51 19.57 C 169.83 11.89 151.42 10.71 148.50 17.71 C 148.09 18.70 147.52 24.11 147.25 29.75 C 146.74 40.00 146.74 40.00 134.12 40.01 C 127.18 40.01 119.10 40.31 116.17 40.66 C 110.84 41.30 110.84 41.30 111.01 35.90 C 111.28 26.97 111.11 26.27 108.08 23.23 C 104.70 19.85 95.78 17.00 88.61 17.00 C 84.68 17.00 83.34 17.51 80.92 19.92 C 78.10 22.74 78.00 23.18 78.00 32.36 C 78.00 37.60 77.66 42.08 77.25 42.33 C 76.84 42.57 64.80 43.29 50.50 43.91 C 19.28 45.28 16.00 45.63 16.00 47.59 C 16.00 50.42 20.59 50.72 44.00 49.41 C 56.93 48.68 69.85 48.07 72.72 48.04 C 77.94 48.00 77.94 48.00 77.79 53.44 C 77.71 56.63 78.19 59.52 78.95 60.44 C 82.06 64.19 91.76 64.36 100.00 60.83 Z  M 90.00 174.50 C 90.00 166.13 90.04 166.00 92.47 166.00 C 96.26 166.00 150.61 163.13 158.25 162.52 C 165.00 161.99 165.00 161.99 165.00 170.99 C 165.00 175.95 164.89 180.01 164.75 180.02 C 162.70 180.20 96.45 182.96 93.75 182.98 C 90.00 183.00 90.00 183.00 90.00 174.50 Z  M 90.00 153.50 C 90.00 146.00 90.00 146.00 93.47 146.00 C 97.44 146.00 150.57 143.27 159.25 142.62 C 165.00 142.19 165.00 142.19 165.00 149.52 C 165.00 156.86 165.00 156.86 159.75 157.41 C 154.96 157.91 95.84 161.04 91.75 161.01 C 90.24 161.00 90.00 159.97 90.00 153.50 Z  M 72.00 109.58 C 72.00 103.30 72.27 97.45 72.61 96.58 C 73.10 95.30 74.93 95.00 82.24 95.00 C 91.27 95.00 91.27 95.00 90.64 99.64 C 90.29 102.19 90.00 108.04 90.00 112.64 C 90.00 121.00 90.00 121.00 81.00 121.00 C 72.00 121.00 72.00 121.00 72.00 109.58 Z  M 119.00 106.00 C 119.00 93.00 119.00 93.00 127.50 93.00 C 136.00 93.00 136.00 93.00 136.00 105.39 C 136.00 119.69 136.51 119.00 125.92 119.00 C 119.00 119.00 119.00 119.00 119.00 106.00 Z  M 164.22 103.75 C 164.50 90.50 164.50 90.50 173.75 90.21 C 183.00 89.92 183.00 89.92 183.00 102.43 C 183.00 117.22 183.17 117.00 171.54 117.00 C 163.94 117.00 163.94 117.00 164.22 103.75 Z  M 119.21 79.25 C 119.50 70.50 119.50 70.50 127.75 70.21 C 136.00 69.92 136.00 69.92 136.00 78.96 C 136.00 88.00 136.00 88.00 127.46 88.00 C 118.92 88.00 118.92 88.00 119.21 79.25 Z "/>
</g>
</svg>