<?xml version="1.0" encoding="UTF-8" standalone="no"?>
<!DOCTYPE svg PUBLIC "-//W3C//DTD SVG 1.1//EN" "http://www.w3.org/Graphics/SVG/1.1/DTD/svg11.dtd" >
<svg xmlns="http://www.w3.org/2000/svg" xmlns:xlink="http://www.w3.org/1999/xlink" version="1.1" viewBox="0 0 256 256">
 <g >
 <path fill="currentColor"
d=" M 126.72 240.49 C 129.52 239.66 133.20 237.68 134.91 236.09 C 137.79 233.39 138.00 232.73 138.00 226.26 C 138.00 219.32 138.00 219.32 156.75 218.66 C 167.06 218.30 178.31 218.00 181.75 218.00 C 188.00 218.00 188.00 218.00 188.00 225.43 C 188.00 229.52 188.42 233.97 188.93 235.31 C 191.66 242.49 210.20 241.03 218.22 233.01 C 222.00 229.24 222.00 229.24 222.06 215.87 C 222.18 191.40 223.59 166.64 224.88 166.21 C 225.54 165.99 227.41 164.69 229.04 163.32 C 232.84 160.12 232.84 156.99 229.03 150.36 C 223.73 141.11 209.59 133.90 200.11 135.61 C 195.22 136.49 193.14 137.62 188.81 141.76 C 185.12 145.29 185.12 145.29 165.02 146.27 C 144.93 147.25 144.93 147.25 137.21 143.72 C 122.31 136.91 110.58 136.52 108.18 142.75 C 107.56 144.37 106.68 163.79 106.05 189.77 C 105.05 230.96 105.10 234.22 106.69 236.65 C 110.07 241.81 117.50 243.23 126.72 240.49 Z  M 52.31 229.07 C 56.04 227.65 70.70 216.39 78.33 209.07 C 86.58 201.15 94.51 190.91 99.60 181.57 C 102.71 175.86 103.04 174.78 101.44 175.44 C 98.67 176.59 81.96 182.61 79.09 183.49 C 76.69 184.23 76.69 184.23 77.36 155.87 C 78.24 119.25 78.44 117.47 81.99 116.00 C 91.65 112.00 84.57 96.44 69.72 89.02 C 61.10 84.71 56.50 84.91 49.15 89.89 C 46.00 92.04 42.82 94.51 42.09 95.39 C 40.99 96.72 38.48 97.00 27.88 97.00 C 17.98 97.00 15.00 97.30 15.00 98.30 C 15.00 101.47 17.41 102.00 31.70 102.00 C 46.00 102.00 46.00 102.00 45.99 138.75 C 45.99 158.96 45.70 179.22 45.34 183.77 C 44.77 191.11 44.46 192.08 42.60 192.46 C 31.97 194.61 29.29 195.56 26.77 198.08 C 21.48 203.37 23.83 213.86 32.14 221.97 C 39.17 228.84 46.31 231.35 52.31 229.07 Z  M 96.65 135.54 C 127.90 127.17 149.56 112.02 160.76 90.71 C 164.26 84.04 170.43 66.05 171.46 59.50 C 173.70 45.26 174.28 43.05 175.86 42.61 C 176.76 42.36 182.41 41.85 188.41 41.47 C 199.32 40.79 199.32 40.79 198.68 52.64 C 197.97 65.80 194.03 86.74 190.88 94.06 C 188.09 100.55 185.08 103.12 179.56 103.75 C 174.20 104.35 173.98 105.19 177.01 113.29 C 179.42 119.74 184.67 126.14 189.37 128.37 C 197.63 132.29 210.82 128.86 216.58 121.30 C 219.97 116.86 224.73 104.81 226.55 96.06 C 227.31 92.45 228.60 82.39 229.43 73.70 C 230.27 65.00 231.18 57.52 231.45 57.08 C 231.73 56.63 233.30 55.99 234.95 55.66 C 238.84 54.88 242.00 51.65 242.00 48.45 C 242.00 39.69 224.70 26.00 213.63 26.00 C 207.64 26.00 204.84 27.18 199.76 31.87 C 195.50 35.79 195.50 35.79 144.29 38.69 C 116.13 40.28 92.76 41.91 92.36 42.31 C 91.00 43.67 93.99 45.40 97.75 45.44 C 99.81 45.46 109.49 45.10 119.25 44.65 C 137.00 43.82 137.00 43.82 137.00 47.50 C 137.00 52.29 133.43 69.76 130.88 77.47 C 127.54 87.53 120.44 101.23 114.23 109.59 C 110.99 113.94 103.51 122.11 97.59 127.75 C 91.67 133.39 86.98 138.00 87.17 138.00 C 87.35 138.00 91.62 136.89 96.65 135.54 Z  M 75.50 66.75 C 82.35 63.34 86.82 53.90 85.46 45.71 C 82.97 30.71 67.40 22.06 42.83 22.02 C 29.05 21.99 28.95 22.10 35.53 29.20 C 41.16 35.28 45.88 43.63 49.88 54.54 C 52.72 62.30 55.53 65.73 60.50 67.51 C 64.64 68.99 71.72 68.63 75.50 66.75 Z  M 138.83 201.85 C 139.01 194.51 139.46 180.40 139.83 170.50 C 140.50 152.50 140.50 152.50 153.00 151.85 C 192.76 149.79 189.00 147.48 189.00 173.98 C 189.00 187.03 188.71 201.10 188.36 205.25 C 187.65 213.69 191.59 212.69 151.50 214.58 C 138.50 215.20 138.50 215.20 138.83 201.85 Z "/>
</g>
</svg>