<?xml version="1.0" encoding="UTF-8" standalone="no"?>
<!DOCTYPE svg PUBLIC "-//W3C//DTD SVG 1.1//EN" "http://www.w3.org/Graphics/SVG/1.1/DTD/svg11.dtd" >
<svg xmlns="http://www.w3.org/2000/svg" xmlns:xlink="http://www.w3.org/1999/xlink" version="1.1" viewBox="0 0 256 256">
 <g >
 <path fill="currentColor"
d=" M 171.87 237.66 C 172.65 236.72 173.06 221.11 173.24 185.91 C 173.50 135.50 173.50 135.50 206.41 135.24 C 228.67 135.06 239.76 134.61 240.66 133.86 C 242.64 132.23 242.29 128.22 240.07 127.04 C 238.85 126.38 226.10 126.00 205.57 126.00 C 173.00 126.00 173.00 126.00 173.00 82.07 C 173.00 41.08 173.12 38.10 174.75 37.63 C 175.71 37.36 187.53 35.47 201.00 33.44 C 216.06 31.17 226.13 29.20 227.14 28.32 C 229.58 26.19 227.49 19.56 224.68 20.53 C 224.03 20.75 197.40 25.00 165.50 29.98 C 104.94 39.42 103.71 39.71 106.01 44.02 C 106.52 44.98 107.58 46.01 108.36 46.31 C 109.14 46.61 121.64 45.09 136.14 42.94 C 150.64 40.79 163.06 39.03 163.75 39.02 C 164.73 39.00 165.00 48.36 165.00 82.50 C 165.00 126.00 165.00 126.00 134.69 126.00 C 101.42 126.00 100.55 126.14 101.16 131.55 C 101.50 134.50 101.50 134.50 133.22 134.76 C 164.95 135.03 164.95 135.03 165.22 186.05 C 165.46 230.11 165.70 237.20 167.00 238.02 C 169.09 239.34 170.57 239.23 171.87 237.66 Z  M 61.80 236.80 C 63.54 235.06 63.54 22.94 61.80 21.20 C 60.26 19.66 56.74 19.66 55.20 21.20 C 54.28 22.12 54.00 47.46 54.00 129.15 C 54.00 229.76 54.10 235.96 55.75 236.92 C 58.11 238.29 60.35 238.25 61.80 236.80 Z  M 26.03 159.75 C 27.96 155.35 40.05 70.97 39.03 69.05 C 37.83 66.81 34.39 65.82 33.13 67.35 C 32.61 67.98 29.14 88.84 25.43 113.71 C 19.87 150.95 18.91 159.18 19.96 160.46 C 21.83 162.70 24.89 162.35 26.03 159.75 Z  M 94.88 154.75 C 95.42 153.29 93.71 137.91 90.05 111.13 C 85.28 76.23 84.11 69.55 82.56 68.42 C 79.89 66.47 77.00 68.31 77.00 71.97 C 77.00 76.09 87.79 154.85 88.52 156.03 C 89.70 157.95 94.02 157.08 94.88 154.75 Z "/>
</g>
</svg>