<?xml version="1.0" encoding="UTF-8" standalone="no"?>
<!DOCTYPE svg PUBLIC "-//W3C//DTD SVG 1.1//EN" "http://www.w3.org/Graphics/SVG/1.1/DTD/svg11.dtd" >
<svg xmlns="http://www.w3.org/2000/svg" xmlns:xlink="http://www.w3.org/1999/xlink" version="1.1" viewBox="0 0 256 256">
 <g >
 <path fill="currentColor"
d=" M 54.80 237.80 C 56.22 236.38 56.54 102.40 55.13 100.17 C 54.65 99.41 53.03 98.98 51.39 99.17 C 48.50 99.50 48.50 99.50 48.24 167.89 C 48.06 217.58 48.29 236.65 49.12 237.64 C 50.51 239.32 53.20 239.40 54.80 237.80 Z  M 131.26 222.88 C 147.89 214.56 162.76 206.87 164.31 205.77 C 167.76 203.33 167.60 199.93 163.97 198.66 C 161.82 197.90 157.08 199.96 132.22 212.39 C 103.00 227.01 103.00 227.01 102.99 193.75 C 102.98 175.46 102.71 159.52 102.39 158.32 C 101.71 155.80 99.52 154.70 96.86 155.54 C 95.09 156.11 95.00 157.98 95.00 194.50 C 95.00 217.01 95.40 233.93 95.98 235.43 C 96.58 237.03 97.72 238.00 98.98 238.00 C 100.10 238.00 114.62 231.20 131.26 222.88 Z  M 235.80 229.80 C 236.46 229.14 237.00 227.80 237.00 226.82 C 237.00 225.84 222.79 209.02 205.42 189.44 C 188.06 169.86 174.06 153.31 174.32 152.67 C 174.59 152.03 187.93 136.88 203.98 119.00 C 220.03 101.12 233.57 85.75 234.07 84.84 C 234.70 83.68 234.40 82.49 233.05 80.84 C 231.25 78.66 230.95 78.60 228.59 80.00 C 227.20 80.83 213.85 95.45 198.93 112.50 C 184.01 129.55 171.00 144.33 170.04 145.33 C 168.34 147.10 167.45 146.23 146.14 122.13 C 133.96 108.37 124.00 96.81 124.00 96.47 C 124.00 96.12 130.55 86.19 138.55 74.42 C 153.09 53.00 153.09 53.00 193.61 53.00 C 219.63 53.00 234.82 52.63 236.07 51.96 C 238.04 50.91 238.60 47.50 237.18 45.26 C 236.59 44.32 227.38 43.96 198.95 43.76 C 161.50 43.50 161.50 43.50 161.25 32.00 C 160.94 17.29 160.63 16.00 157.46 16.00 C 153.86 16.00 153.00 19.20 153.00 32.57 C 153.00 44.00 153.00 44.00 113.70 44.00 C 73.24 44.00 71.98 44.12 72.02 47.95 C 72.06 52.48 72.04 52.47 108.37 53.00 C 142.82 53.50 142.82 53.50 104.37 109.97 C 79.39 146.66 66.02 167.16 66.21 168.47 C 66.44 170.07 67.25 170.50 70.00 170.50 C 73.48 170.50 73.61 170.34 95.79 137.22 C 108.05 118.91 118.50 104.19 119.00 104.50 C 119.51 104.82 144.93 133.41 175.49 168.04 C 209.80 206.93 231.72 231.00 232.82 231.00 C 233.80 231.00 235.14 230.46 235.80 229.80 Z  M 50.10 71.00 C 64.86 45.42 76.96 23.50 76.97 22.29 C 77.00 19.69 73.76 17.63 71.02 18.49 C 69.80 18.88 59.84 35.38 43.36 64.30 C 29.19 89.16 16.98 110.75 16.21 112.29 C 14.39 115.94 16.08 118.23 20.29 117.80 C 23.07 117.52 24.88 114.68 50.10 71.00 Z "/>
</g>
</svg>