<?xml version="1.0" encoding="UTF-8" standalone="no"?>
<!DOCTYPE svg PUBLIC "-//W3C//DTD SVG 1.1//EN" "http://www.w3.org/Graphics/SVG/1.1/DTD/svg11.dtd" >
<svg xmlns="http://www.w3.org/2000/svg" xmlns:xlink="http://www.w3.org/1999/xlink" version="1.1" viewBox="0 0 256 256">
 <g >
 <path fill="currentColor"
d=" M 129.80 233.80 C 130.72 232.88 131.00 207.76 131.00 126.82 C 131.00 21.04 131.00 21.04 128.50 20.41 C 122.63 18.94 123.03 11.67 122.75 123.72 C 122.50 226.50 122.50 226.50 97.58 226.77 C 81.25 226.94 72.20 227.42 71.33 228.14 C 69.65 229.54 69.59 233.67 71.25 234.34 C 71.94 234.62 85.12 234.88 100.55 234.92 C 121.12 234.98 128.92 234.68 129.80 233.80 Z  M 24.75 228.75 C 27.16 225.70 99.00 77.50 99.00 75.56 C 99.00 71.04 98.67 71.00 58.42 71.00 C 26.27 71.00 20.05 71.23 19.04 72.45 C 17.24 74.62 18.18 77.32 21.01 78.11 C 22.38 78.49 38.01 78.85 55.75 78.90 C 73.49 78.96 88.00 79.21 88.00 79.46 C 88.00 79.71 72.25 112.53 53.00 152.40 C 33.75 192.27 18.00 225.34 18.00 225.89 C 18.00 226.89 21.86 230.00 23.10 230.00 C 23.46 230.00 24.20 229.44 24.75 228.75 Z  M 235.43 228.43 C 236.29 227.56 237.00 226.29 237.00 225.61 C 237.00 224.92 220.29 199.41 199.88 168.93 C 179.46 138.44 162.52 112.90 162.23 112.16 C 161.92 111.35 174.43 98.09 193.90 78.59 C 218.31 54.13 225.92 45.94 225.42 44.65 C 224.54 42.36 221.30 40.73 219.59 41.71 C 218.82 42.14 203.26 57.28 185.00 75.34 C 155.60 104.41 151.84 108.48 152.19 110.85 C 152.79 114.92 229.98 230.00 232.11 230.00 C 233.07 230.00 234.56 229.29 235.43 228.43 Z "/>
</g>
</svg>