<?xml version="1.0" encoding="UTF-8" standalone="no"?>
<!DOCTYPE svg PUBLIC "-//W3C//DTD SVG 1.1//EN" "http://www.w3.org/Graphics/SVG/1.1/DTD/svg11.dtd" >
<svg xmlns="http://www.w3.org/2000/svg" xmlns:xlink="http://www.w3.org/1999/xlink" version="1.1" viewBox="0 0 256 256">
 <g >
 <path fill="currentColor"
d=" M 26.22 236.75 C 27.57 235.70 28.08 230.42 29.43 203.50 C 32.00 151.94 28.91 158.00 52.57 158.00 C 71.68 158.00 72.99 157.88 73.96 156.07 C 75.37 153.44 75.27 152.41 73.43 150.57 C 72.11 149.25 68.71 149.00 51.93 149.00 C 32.00 149.00 32.00 149.00 32.03 146.75 C 32.04 145.51 32.71 134.38 33.50 122.00 C 34.29 109.62 34.96 99.16 34.97 98.75 C 34.99 98.34 43.73 98.00 54.39 98.00 C 71.45 98.00 73.86 97.80 74.42 96.36 C 75.49 93.55 74.07 91.26 70.85 90.62 C 69.14 90.28 60.56 90.00 51.77 90.00 C 35.79 90.00 35.79 90.00 36.41 73.25 C 37.86 34.13 35.04 38.00 62.09 38.00 C 86.00 38.00 86.00 38.00 86.00 133.50 C 86.00 229.00 86.00 229.00 69.58 229.00 C 60.55 229.00 52.45 229.27 51.58 229.61 C 49.71 230.32 49.46 235.06 51.20 236.80 C 52.54 238.14 88.72 238.54 90.50 237.23 C 93.97 234.69 94.00 233.73 94.00 132.95 C 94.00 66.56 93.66 33.23 92.96 31.93 C 91.98 30.09 90.57 30.00 62.62 30.00 C 35.42 30.00 33.19 30.13 31.64 31.84 C 30.20 33.44 29.24 46.93 24.37 134.35 C 19.89 214.86 19.01 235.31 20.01 236.51 C 21.52 238.33 24.07 238.43 26.22 236.75 Z  M 115.84 233.12 C 116.80 232.51 153.01 104.51 161.63 71.25 C 162.22 69.00 162.22 69.00 190.11 69.00 C 218.00 69.00 218.00 69.00 218.00 147.00 C 218.00 225.00 218.00 225.00 186.04 225.00 C 155.09 225.00 154.04 225.06 153.00 227.00 C 152.24 228.42 152.24 229.58 153.00 231.00 C 154.04 232.94 155.09 233.00 188.84 233.00 C 214.54 233.00 223.91 232.69 224.80 231.80 C 226.54 230.06 226.54 63.94 224.80 62.20 C 223.92 61.32 215.76 61.00 194.30 61.00 C 169.51 61.00 165.00 60.78 165.00 59.56 C 165.00 58.11 173.29 26.99 174.54 23.74 C 175.93 20.14 169.41 17.00 167.31 20.25 C 166.86 20.94 164.22 30.27 161.44 41.00 C 156.38 60.50 156.38 60.50 130.94 61.00 C 105.50 61.50 105.50 61.50 105.16 63.94 C 104.50 68.60 106.53 69.00 130.80 69.00 C 153.22 69.00 153.22 69.00 152.64 71.25 C 152.32 72.49 142.60 107.92 131.03 149.99 C 119.46 192.06 110.00 227.64 110.00 229.04 C 110.00 233.11 112.78 235.06 115.84 233.12 Z "/>
</g>
</svg>