<?xml version="1.0" encoding="UTF-8" standalone="no"?>
<!DOCTYPE svg PUBLIC "-//W3C//DTD SVG 1.1//EN" "http://www.w3.org/Graphics/SVG/1.1/DTD/svg11.dtd" >
<svg xmlns="http://www.w3.org/2000/svg" xmlns:xlink="http://www.w3.org/1999/xlink" version="1.1" viewBox="0 0 256 256">
 <g >
 <path fill="currentColor"
d=" M 133.00 220.50 C 133.50 203.50 133.50 203.50 183.89 203.00 C 230.48 202.54 234.37 202.37 235.39 200.75 C 236.19 199.47 236.19 198.53 235.39 197.25 C 234.36 195.63 230.62 195.48 183.61 195.24 C 132.94 194.98 132.94 194.98 133.22 181.74 C 133.50 168.50 133.50 168.50 176.00 168.00 C 218.50 167.50 218.50 167.50 218.83 165.19 C 219.57 159.94 220.05 160.00 174.88 160.00 C 133.00 160.00 133.00 160.00 133.00 143.54 C 133.00 128.09 132.88 127.00 131.00 126.00 C 129.58 125.24 128.42 125.24 127.00 126.00 C 125.12 127.00 125.00 128.09 125.00 143.54 C 125.00 160.00 125.00 160.00 89.45 160.00 C 53.91 160.00 53.91 160.00 66.65 144.25 C 95.18 108.98 84.94 113.05 145.83 112.76 C 199.50 112.50 199.50 112.50 199.84 110.06 C 200.56 105.02 200.35 105.00 147.75 105.00 C 98.87 105.00 98.87 105.00 102.94 99.21 C 105.17 96.02 107.00 92.66 107.00 91.74 C 107.00 89.80 103.46 87.61 101.52 88.35 C 100.79 88.63 97.43 92.49 94.05 96.93 C 87.91 105.00 87.91 105.00 73.15 105.00 C 56.58 105.00 54.21 105.71 55.37 110.34 C 56.04 113.00 56.04 113.00 68.10 113.00 C 75.21 113.00 80.03 113.39 79.83 113.94 C 79.65 114.46 71.14 125.16 60.91 137.72 C 50.69 150.28 42.03 161.73 41.67 163.16 C 41.26 164.82 41.50 166.17 42.35 166.87 C 43.26 167.63 56.47 168.06 84.09 168.24 C 124.50 168.50 124.50 168.50 124.78 181.74 C 125.06 194.98 125.06 194.98 73.39 195.24 C 25.43 195.48 21.64 195.63 20.61 197.25 C 19.81 198.53 19.81 199.47 20.61 200.75 C 21.63 202.37 25.57 202.54 73.11 203.00 C 124.50 203.50 124.50 203.50 124.78 219.43 C 124.95 229.47 125.47 235.87 126.19 236.73 C 126.82 237.48 128.49 237.97 129.91 237.80 C 132.50 237.50 132.50 237.50 133.00 220.50 Z  M 34.96 121.07 C 35.57 119.93 36.00 111.45 36.00 100.57 C 36.00 82.00 36.00 82.00 126.00 82.00 C 216.00 82.00 216.00 82.00 216.02 100.25 C 216.02 110.29 216.41 119.10 216.87 119.82 C 217.38 120.62 219.06 121.02 221.10 120.82 C 224.50 120.50 224.50 120.50 224.77 98.13 C 224.96 82.46 224.70 75.34 223.90 74.38 C 222.94 73.23 207.01 73.00 126.71 73.00 C 38.74 73.00 30.50 73.14 28.83 74.65 C 27.16 76.16 27.00 78.27 27.00 98.45 C 27.00 114.35 27.34 120.94 28.20 121.80 C 30.04 123.64 33.81 123.23 34.96 121.07 Z  M 84.23 64.57 C 84.64 63.98 84.98 60.24 84.98 56.25 C 85.00 49.00 85.00 49.00 128.50 49.00 C 172.00 49.00 172.00 49.00 172.02 56.25 C 172.02 60.24 172.36 63.98 172.77 64.57 C 173.93 66.28 176.31 66.81 178.75 65.90 C 180.83 65.13 181.00 64.45 181.00 57.03 C 181.00 49.00 181.00 49.00 207.28 49.00 C 229.44 49.00 233.90 48.76 235.78 47.44 C 238.27 45.70 238.68 42.81 236.67 41.14 C 235.79 40.41 226.23 39.94 208.42 39.77 C 181.50 39.50 181.50 39.50 181.21 30.55 C 180.90 20.95 180.08 19.00 176.41 19.00 C 173.00 19.00 172.00 21.81 172.00 31.43 C 172.00 40.00 172.00 40.00 128.50 40.00 C 85.00 40.00 85.00 40.00 85.00 31.19 C 85.00 21.32 83.86 18.60 79.94 19.16 C 77.58 19.49 77.48 19.82 77.00 29.50 C 76.50 39.50 76.50 39.50 48.00 40.00 C 19.50 40.50 19.50 40.50 19.16 43.45 C 18.56 48.80 19.66 49.00 49.69 49.00 C 77.00 49.00 77.00 49.00 77.00 56.95 C 77.00 63.37 77.32 65.08 78.69 65.85 C 80.52 66.87 83.06 66.29 84.23 64.57 Z "/>
</g>
</svg>