<?xml version="1.0" encoding="UTF-8" standalone="no"?>
<!DOCTYPE svg PUBLIC "-//W3C//DTD SVG 1.1//EN" "http://www.w3.org/Graphics/SVG/1.1/DTD/svg11.dtd" >
<svg xmlns="http://www.w3.org/2000/svg" xmlns:xlink="http://www.w3.org/1999/xlink" version="1.1" viewBox="0 0 256 256">
 <g >
 <path fill="currentColor"
d=" M 208.80 229.80 C 210.62 227.98 210.51 153.67 208.69 152.16 C 207.77 151.40 183.73 151.05 128.36 151.02 C 52.18 150.97 49.28 151.03 47.63 152.85 C 46.08 154.57 45.95 157.99 46.21 191.22 C 46.44 220.34 46.78 228.03 47.87 229.35 C 49.13 230.86 56.02 231.00 128.42 231.00 C 188.67 231.00 207.89 230.71 208.80 229.80 Z  M 73.60 126.36 C 91.69 115.01 107.22 105.52 108.10 105.28 C 108.98 105.04 136.15 114.10 168.48 125.42 C 200.81 136.74 228.26 146.00 229.47 146.00 C 231.30 146.00 234.00 142.72 234.00 140.49 C 234.00 139.46 226.65 136.74 174.21 118.36 C 143.57 107.62 118.37 98.70 118.21 98.54 C 118.05 98.38 139.58 84.85 166.05 68.47 C 196.57 49.59 214.47 37.92 214.98 36.60 C 215.52 35.18 215.27 33.93 214.23 32.75 C 212.79 31.12 208.34 31.00 147.73 31.00 C 82.77 31.00 82.77 31.00 86.38 27.00 C 88.37 24.80 90.00 22.63 90.00 22.19 C 90.00 20.18 87.21 17.84 85.21 18.16 C 84.01 18.34 69.96 30.86 53.97 45.96 C 29.12 69.44 24.95 73.79 25.20 75.96 C 25.44 77.98 26.11 78.55 28.50 78.75 C 31.14 78.97 33.99 76.69 52.47 59.50 C 73.44 40.00 73.44 40.00 134.89 40.00 C 168.68 40.00 196.15 40.18 195.92 40.40 C 194.61 41.65 109.24 94.37 108.00 94.70 C 107.17 94.92 94.89 91.02 80.70 86.04 C 60.09 78.80 54.51 77.19 52.95 78.03 C 50.95 79.10 50.55 80.67 51.59 83.36 C 51.95 84.31 60.88 87.79 75.09 92.53 C 87.69 96.73 98.00 100.31 98.00 100.49 C 98.00 100.67 84.06 109.75 67.02 120.66 C 49.97 131.57 35.80 141.10 35.52 141.82 C 34.75 143.81 36.82 147.00 38.88 147.00 C 39.88 147.00 55.50 137.71 73.60 126.36 Z  M 54.00 191.50 C 54.00 160.00 54.00 160.00 128.00 160.00 C 202.00 160.00 202.00 160.00 202.00 191.50 C 202.00 223.00 202.00 223.00 128.00 223.00 C 54.00 223.00 54.00 223.00 54.00 191.50 Z "/>
</g>
</svg>