<?xml version="1.0" encoding="UTF-8" standalone="no"?>
<!DOCTYPE svg PUBLIC "-//W3C//DTD SVG 1.1//EN" "http://www.w3.org/Graphics/SVG/1.1/DTD/svg11.dtd" >
<svg xmlns="http://www.w3.org/2000/svg" xmlns:xlink="http://www.w3.org/1999/xlink" version="1.1" viewBox="0 0 256 256">
 <g >
 <path fill="currentColor"
d=" M 36.07 236.96 C 37.96 235.95 38.00 233.77 38.00 135.96 C 38.00 36.00 38.00 36.00 128.50 36.00 C 219.00 36.00 219.00 36.00 219.00 133.00 C 219.00 230.00 219.00 230.00 183.57 230.00 C 152.70 230.00 147.94 230.20 146.57 231.57 C 144.60 233.55 144.60 234.45 146.57 236.43 C 147.95 237.80 152.96 238.00 186.45 238.00 C 217.50 238.00 224.97 237.74 225.88 236.64 C 226.71 235.65 226.94 207.33 226.75 131.39 C 226.50 27.50 226.50 27.50 129.11 27.25 C 57.98 27.06 31.35 27.29 30.36 28.12 C 28.47 29.68 28.32 234.92 30.20 236.80 C 31.67 238.27 33.52 238.33 36.07 236.96 Z  M 186.00 149.16 C 186.42 104.16 186.28 95.65 185.10 94.66 C 182.87 92.82 74.89 93.02 72.65 94.87 C 71.15 96.12 71.00 101.12 71.00 148.57 C 71.00 197.35 71.12 200.97 72.75 201.92 C 73.90 202.60 93.53 202.87 130.00 202.72 C 185.50 202.50 185.50 202.50 186.00 149.16 Z  M 198.40 65.69 C 199.50 64.89 200.06 63.45 199.84 61.94 C 199.50 59.50 199.50 59.50 128.50 59.50 C 57.50 59.50 57.50 59.50 57.16 61.94 C 56.43 67.09 55.22 67.00 128.50 67.00 C 182.97 67.00 196.98 66.74 198.40 65.69 Z  M 80.00 148.00 C 80.00 102.00 80.00 102.00 128.50 102.00 C 177.00 102.00 177.00 102.00 177.00 148.00 C 177.00 194.00 177.00 194.00 128.50 194.00 C 80.00 194.00 80.00 194.00 80.00 148.00 Z "/>
</g>
</svg>