<?xml version="1.0" encoding="UTF-8" standalone="no"?>
<!DOCTYPE svg PUBLIC "-//W3C//DTD SVG 1.1//EN" "http://www.w3.org/Graphics/SVG/1.1/DTD/svg11.dtd" >
<svg xmlns="http://www.w3.org/2000/svg" xmlns:xlink="http://www.w3.org/1999/xlink" version="1.1" viewBox="0 0 256 256">
 <g >
 <path fill="currentColor"
d=" M 226.24 245.67 C 242.77 237.59 249.02 218.35 243.37 193.02 C 240.90 181.97 234.36 173.58 224.46 168.77 C 222.01 167.58 220.01 166.35 220.02 166.05 C 220.04 165.75 223.25 163.70 227.17 161.50 C 239.19 154.75 246.01 142.87 245.99 128.66 C 245.99 120.55 244.67 116.14 240.71 110.98 C 237.44 106.73 237.44 106.73 239.84 99.62 C 242.78 90.90 243.76 75.30 242.15 62.99 C 240.01 46.70 228.53 28.52 216.75 22.75 C 205.40 17.20 182.41 13.00 163.32 13.00 C 145.19 13.00 123.57 20.54 111.62 31.03 C 108.33 33.92 108.33 33.92 104.41 29.90 C 94.02 19.23 69.59 13.44 51.74 17.41 C 38.83 20.29 29.81 27.46 23.59 39.79 C 20.93 45.07 14.00 71.69 12.07 84.00 C 9.03 103.54 8.15 152.53 10.44 175.50 C 13.38 205.02 18.98 222.35 29.19 233.51 C 35.18 240.07 39.72 242.62 48.86 244.56 C 65.98 248.19 82.64 244.84 95.43 235.21 C 99.36 232.25 99.36 232.25 105.84 237.60 C 114.79 244.98 119.26 246.29 133.97 245.85 C 145.55 245.51 145.96 245.42 153.65 241.43 C 158.88 238.72 162.52 236.03 164.54 233.37 C 167.59 229.38 167.59 229.38 176.04 235.82 C 190.02 246.46 197.35 249.07 212.08 248.65 C 219.08 248.45 221.69 247.90 226.24 245.67 Z  M 198.33 228.21 C 189.39 225.01 175.37 213.38 168.80 203.71 C 157.53 187.10 152.83 170.77 152.62 147.50 C 152.44 126.75 155.50 120.62 166.07 120.62 C 171.83 120.61 176.85 123.60 179.68 128.70 C 181.87 132.65 185.27 144.23 186.52 152.00 C 188.28 162.96 195.19 171.52 208.11 178.75 C 220.27 185.55 220.59 185.83 223.16 191.60 C 224.78 195.24 225.44 199.06 225.74 206.50 C 226.11 215.47 225.91 216.96 223.82 220.98 C 222.53 223.47 220.06 226.28 218.24 227.32 C 213.47 230.06 204.62 230.46 198.33 228.21 Z  M 123.50 226.13 C 114.90 222.21 110.00 215.52 108.00 205.01 C 106.63 197.78 106.74 190.12 108.47 172.50 C 109.27 164.25 110.41 141.75 110.99 122.50 C 111.58 103.25 112.51 83.45 113.07 78.50 C 114.93 61.99 118.94 51.96 126.85 44.06 C 136.65 34.25 150.24 30.53 173.83 31.20 C 192.48 31.73 197.03 33.13 208.76 41.94 C 215.86 47.27 218.01 49.53 220.23 54.00 C 225.40 64.39 226.03 80.09 221.86 94.41 C 220.15 100.26 218.98 102.18 214.14 107.02 C 204.85 116.31 204.01 116.58 186.50 116.01 C 161.01 115.18 151.76 115.39 148.00 116.91 C 142.81 119.00 139.24 122.76 137.55 127.91 C 133.40 140.63 131.34 168.63 133.89 177.75 C 135.96 185.15 141.37 186.72 148.14 181.90 C 150.91 179.93 150.91 179.93 152.40 182.21 C 156.26 188.14 156.79 206.55 153.30 213.36 C 151.01 217.83 143.83 225.16 140.28 226.65 C 135.80 228.53 128.25 228.30 123.50 226.13 Z  M 189.31 93.85 C 194.70 92.64 199.66 88.30 202.62 82.18 C 204.90 77.50 204.83 66.92 202.51 63.37 C 198.67 57.51 186.67 53.85 171.00 53.76 C 160.72 53.71 155.36 55.19 147.28 60.31 C 142.23 63.51 140.04 66.62 138.47 72.80 C 136.34 81.20 139.67 87.67 148.50 92.26 C 155.20 95.75 177.07 96.60 189.31 93.85 Z  M 55.40 223.33 C 48.36 221.25 40.99 215.49 38.34 209.99 C 33.51 199.98 31.22 179.35 30.01 135.12 C 29.00 98.26 29.21 94.21 33.04 76.54 C 37.08 57.89 42.20 46.18 48.27 41.67 C 53.03 38.14 57.38 37.00 66.14 37.00 C 75.41 37.00 80.90 38.82 89.72 44.81 C 100.45 52.09 101.97 55.84 105.07 82.60 C 107.04 99.68 107.20 104.59 106.65 133.50 C 106.08 164.08 104.30 186.98 101.88 195.00 C 100.00 201.23 94.59 211.11 91.07 214.74 C 87.20 218.73 80.02 222.20 72.20 223.87 C 65.42 225.32 61.72 225.20 55.40 223.33 Z  M 75.15 180.92 C 81.53 177.51 82.70 156.71 76.75 152.54 C 72.76 149.74 64.38 151.47 59.83 156.02 C 57.31 158.53 57.00 159.55 57.02 165.17 C 57.05 172.09 59.55 179.06 62.66 180.87 C 65.06 182.27 72.58 182.30 75.15 180.92 Z  M 76.23 133.04 C 80.28 129.85 83.33 121.53 82.70 115.40 C 81.73 105.99 77.47 101.03 70.09 100.74 C 65.12 100.54 61.73 102.87 59.11 108.26 C 55.11 116.53 56.74 128.29 62.51 132.83 C 66.11 135.66 72.77 135.76 76.23 133.04 Z  M 72.01 85.75 C 78.84 81.10 81.09 74.74 79.54 64.40 C 77.60 51.50 63.27 50.36 57.82 62.67 C 53.87 71.61 57.21 82.68 65.10 86.74 C 68.24 88.35 68.17 88.36 72.01 85.75 Z  M 190.11 148.52 C 187.01 138.90 187.01 138.90 188.90 135.20 C 191.56 130.01 201.37 122.29 207.70 120.42 C 214.57 118.39 219.55 119.36 223.75 123.56 C 226.32 126.12 227.00 127.63 227.00 130.74 C 227.00 136.02 221.83 146.16 217.18 150.02 C 213.52 153.04 205.29 156.13 197.35 157.45 C 193.21 158.14 193.21 158.14 190.11 148.52 Z  M 158.73 84.96 C 153.39 83.63 150.32 81.35 149.07 77.78 C 145.30 66.96 153.19 61.98 174.00 62.07 C 189.77 62.14 194.43 65.23 194.48 75.67 C 194.50 80.64 194.19 81.48 191.68 83.37 C 189.17 85.26 187.39 85.52 175.68 85.70 C 168.43 85.80 160.81 85.47 158.73 84.96 Z "/>
</g>
</svg>