<?xml version="1.0" encoding="UTF-8" standalone="no"?>
<!DOCTYPE svg PUBLIC "-//W3C//DTD SVG 1.1//EN" "http://www.w3.org/Graphics/SVG/1.1/DTD/svg11.dtd" >
<svg xmlns="http://www.w3.org/2000/svg" xmlns:xlink="http://www.w3.org/1999/xlink" version="1.1" viewBox="0 0 256 256">
 <g >
 <path fill="currentColor"
d=" M 182.28 249.34 C 188.44 247.38 192.41 243.98 197.21 236.55 C 201.07 230.58 201.07 230.58 209.29 230.48 C 224.87 230.29 233.08 224.18 237.48 209.53 C 244.30 186.82 245.49 173.33 245.48 119.00 C 245.47 68.63 244.80 60.11 239.80 46.27 C 234.36 31.23 226.97 22.26 215.27 16.51 C 202.96 10.46 194.35 9.61 178.43 12.90 C 167.60 15.13 159.66 18.71 152.39 24.63 C 149.44 27.03 146.74 29.00 146.39 29.00 C 146.03 29.00 142.99 27.67 139.62 26.04 C 132.03 22.38 122.39 21.00 104.26 21.00 C 90.67 21.00 90.67 21.00 84.51 15.09 C 77.53 8.38 74.17 7.36 62.01 8.23 C 47.95 9.24 35.09 18.43 22.95 36.15 C 14.87 47.95 10.69 57.08 10.19 64.04 C 9.67 71.24 12.18 80.99 16.01 86.67 C 17.65 89.11 19.00 91.48 19.00 91.95 C 19.00 92.42 17.88 95.21 16.51 98.15 C 15.14 101.09 14.02 105.30 14.02 107.50 C 14.02 111.46 17.80 121.01 20.57 124.08 C 21.82 125.46 21.75 126.42 19.97 131.58 C 16.66 141.18 15.12 155.05 14.67 179.06 C 14.34 196.71 13.92 202.25 12.72 204.57 C 9.99 209.85 8.68 219.08 9.97 223.89 C 11.70 230.31 19.95 238.36 26.89 240.39 C 35.05 242.79 45.99 243.32 61.50 242.08 C 88.31 239.94 106.95 235.77 125.00 227.88 C 131.32 225.11 136.99 222.64 137.58 222.38 C 138.21 222.11 139.56 224.97 140.80 229.21 C 143.27 237.66 147.07 242.79 153.80 246.73 C 162.55 251.86 171.73 252.70 182.28 249.34 Z  M 162.45 228.59 C 158.47 226.86 154.34 221.88 153.02 217.22 C 151.50 211.85 149.83 170.60 149.94 141.50 C 150.13 96.15 153.38 60.04 158.18 50.14 C 160.98 44.34 167.58 37.87 173.75 34.87 C 177.50 33.04 180.62 32.47 188.62 32.17 C 202.50 31.64 208.87 33.51 214.99 39.91 C 220.23 45.38 222.51 51.13 223.97 62.50 C 224.53 66.90 225.49 73.88 226.11 78.00 C 226.89 83.17 227.05 99.16 226.65 129.50 C 225.77 195.67 223.88 205.22 210.87 209.54 C 197.68 213.92 189.58 206.14 189.53 189.02 C 189.50 180.31 191.44 175.97 197.05 172.19 C 198.95 170.91 200.89 168.88 201.37 167.68 C 201.85 166.48 202.62 154.25 203.08 140.50 C 203.53 126.75 204.37 109.42 204.94 102.00 C 206.49 81.53 203.57 71.86 195.64 71.19 C 192.69 70.94 191.40 71.45 189.08 73.77 C 187.49 75.36 185.69 78.42 185.08 80.58 C 182.99 87.97 181.56 121.01 181.97 152.50 C 182.80 217.27 182.93 213.73 179.40 220.00 C 176.13 225.80 171.12 230.03 167.60 229.96 C 166.45 229.94 164.13 229.32 162.45 228.59 Z  M 38.97 223.91 C 36.10 222.86 31.00 215.62 31.00 212.62 C 31.00 209.13 34.99 202.25 39.20 198.44 C 44.48 193.67 52.68 190.00 69.19 185.01 C 100.39 175.59 124.56 172.88 133.73 177.77 C 138.66 180.39 139.40 182.37 138.83 191.30 C 138.39 198.18 136.67 201.30 131.23 205.04 C 126.92 208.00 106.90 215.51 95.21 218.55 C 75.58 223.65 45.95 226.48 38.97 223.91 Z  M 33.22 174.86 C 33.72 147.00 35.15 138.10 40.02 132.65 C 42.51 129.87 43.43 129.51 47.94 129.57 C 53.44 129.65 56.76 131.46 60.44 136.38 C 62.37 138.97 62.50 140.48 62.50 161.20 C 62.50 183.26 62.50 183.26 53.91 186.99 C 49.18 189.03 42.50 192.62 39.06 194.96 C 32.79 199.22 32.79 199.22 33.22 174.86 Z  M 70.33 163.92 C 70.70 154.34 71.00 141.65 71.00 135.73 C 71.00 124.95 71.00 124.95 88.25 125.23 C 105.50 125.50 105.50 125.50 105.31 148.86 C 105.20 161.71 104.89 172.44 104.63 172.70 C 104.37 172.96 99.96 174.00 94.83 174.99 C 85.52 176.80 74.58 179.46 71.37 180.69 C 69.80 181.29 69.72 180.04 70.33 163.92 Z  M 109.49 150.38 C 109.89 142.20 110.55 135.14 110.96 134.70 C 112.10 133.47 131.67 135.78 135.08 137.54 C 141.77 141.00 144.07 150.63 139.75 157.05 C 135.84 162.84 132.07 164.31 119.74 164.81 C 108.78 165.27 108.78 165.27 109.49 150.38 Z  M 67.50 121.35 C 57.08 120.75 42.38 118.71 39.24 117.43 C 37.38 116.67 35.56 114.98 34.99 113.48 C 32.55 107.06 35.01 98.08 39.90 95.55 C 46.55 92.12 68.55 90.07 86.66 91.20 C 93.17 91.61 105.70 92.36 114.50 92.87 C 138.19 94.24 147.00 98.22 147.00 107.53 C 147.00 111.12 146.47 112.26 143.64 114.74 C 139.51 118.37 134.51 119.68 119.86 120.98 C 109.63 121.88 80.36 122.09 67.50 121.35 Z  M 74.67 87.33 C 74.30 86.97 74.00 83.59 74.00 79.83 C 74.00 73.00 74.00 73.00 89.75 73.00 C 105.50 73.00 105.50 73.00 105.17 80.50 C 104.84 88.00 104.84 88.00 90.09 88.00 C 81.97 88.00 75.03 87.70 74.67 87.33 Z  M 34.91 79.78 C 30.65 76.35 29.31 68.52 31.77 61.50 C 34.59 53.48 44.74 38.31 49.67 34.77 C 52.05 33.06 54.00 31.37 54.00 31.02 C 54.00 29.81 61.05 27.00 64.08 27.00 C 68.06 27.00 71.60 30.64 72.41 35.59 C 73.15 40.08 71.49 47.20 66.98 58.89 C 63.48 67.98 59.71 73.59 54.41 77.64 C 51.26 80.04 49.59 80.52 43.59 80.77 C 38.94 80.95 35.95 80.61 34.91 79.78 Z  M 66.00 69.80 C 66.00 69.54 67.73 65.07 69.85 59.86 C 71.97 54.65 74.28 47.98 74.99 45.04 C 76.27 39.69 76.27 39.69 100.89 40.30 C 127.49 40.96 133.49 41.94 138.35 46.45 C 140.46 48.41 141.00 49.82 141.00 53.41 C 141.00 57.25 140.45 58.49 137.25 61.83 C 131.43 67.91 124.50 69.13 92.25 69.76 C 77.81 70.04 66.00 70.06 66.00 69.80 Z "/>
</g>
</svg>