<?xml version="1.0" encoding="UTF-8" standalone="no"?>
<!DOCTYPE svg PUBLIC "-//W3C//DTD SVG 1.1//EN" "http://www.w3.org/Graphics/SVG/1.1/DTD/svg11.dtd" >
<svg xmlns="http://www.w3.org/2000/svg" xmlns:xlink="http://www.w3.org/1999/xlink" version="1.1" viewBox="0 0 167 256">
 <g >
 <path fill="currentColor"
d=" M 37.50 222.00 C 45.75 219.66 53.06 217.53 53.75 217.26 C 54.65 216.92 55.00 218.22 55.00 221.89 C 55.00 227.00 55.00 227.00 59.00 227.00 C 63.00 227.00 63.00 227.00 63.00 220.52 C 63.00 214.26 63.10 214.02 65.75 213.43 C 72.32 211.97 72.00 212.37 70.33 207.46 C 69.50 205.01 68.66 203.00 68.47 203.00 C 68.28 203.00 66.98 203.44 65.57 203.98 C 63.00 204.95 63.00 204.95 63.00 152.98 C 63.00 101.00 63.00 101.00 67.06 101.00 C 71.11 101.00 71.11 101.00 70.81 96.75 C 70.51 92.62 70.39 92.49 66.75 92.19 C 63.00 91.88 63.00 91.88 63.00 66.44 C 63.00 41.00 63.00 41.00 59.00 41.00 C 55.00 41.00 55.00 41.00 55.00 66.50 C 55.00 92.00 55.00 92.00 44.00 92.00 C 31.17 92.00 32.49 96.54 34.00 57.55 C 35.06 30.34 35.18 31.04 29.36 31.02 C 26.22 31.00 26.22 31.00 25.63 42.75 C 25.30 49.21 24.75 62.94 24.41 73.25 C 23.78 92.00 23.78 92.00 20.39 92.00 C 17.04 92.00 17.00 92.05 17.00 96.50 C 17.00 100.81 17.12 101.00 19.94 101.00 C 21.56 101.00 23.11 101.38 23.40 101.84 C 23.68 102.30 23.04 129.18 21.98 161.59 C 19.64 232.69 19.70 227.33 21.25 226.74 C 21.94 226.47 29.25 224.34 37.50 222.00 Z  M 89.98 225.25 C 89.94 222.14 97.09 136.58 97.59 134.19 C 97.99 132.27 98.61 131.93 101.28 132.19 C 104.50 132.50 104.50 132.50 105.28 175.00 C 105.71 198.38 106.30 219.41 106.59 221.75 C 107.12 226.00 107.12 226.00 129.56 226.00 C 152.00 226.00 152.00 226.00 152.00 214.50 C 152.00 203.00 152.00 203.00 147.50 203.00 C 143.00 203.00 143.00 203.00 143.00 209.89 C 143.00 216.78 143.00 216.78 129.88 217.51 C 119.27 218.10 116.60 217.97 115.90 216.87 C 115.42 216.12 115.02 210.32 115.01 204.00 C 115.00 197.68 114.70 178.66 114.34 161.75 C 113.68 131.00 113.68 131.00 125.71 131.00 C 132.33 131.00 139.16 130.72 140.88 130.38 C 143.81 129.79 144.00 129.48 144.00 125.31 C 144.00 121.56 143.73 120.94 142.25 121.36 C 141.29 121.63 131.16 122.16 119.75 122.54 C 99.00 123.22 99.00 123.22 99.05 119.86 C 99.08 118.01 100.33 101.97 101.84 84.22 C 104.58 51.93 104.58 51.93 102.39 51.38 C 101.19 51.08 99.15 50.98 97.86 51.17 C 95.52 51.50 95.52 51.50 92.65 87.50 C 91.07 107.30 89.57 123.72 89.31 124.00 C 89.05 124.28 84.60 124.66 79.42 124.85 C 70.00 125.19 70.00 125.19 70.02 128.35 C 70.04 133.94 70.81 134.32 79.90 133.30 C 84.39 132.80 88.18 132.51 88.32 132.66 C 88.47 132.80 87.14 149.93 85.37 170.71 C 80.11 232.37 80.37 225.76 83.13 226.28 C 88.36 227.27 90.00 227.02 89.98 225.25 Z  M 138.82 37.40 C 138.50 33.53 138.50 33.53 107.61 29.69 C 73.94 25.49 75.05 25.43 75.02 31.64 C 75.00 34.78 75.00 34.78 84.75 35.97 C 90.11 36.63 104.17 38.41 116.00 39.92 C 127.83 41.43 137.87 42.35 138.32 41.96 C 138.77 41.58 138.99 39.52 138.82 37.40 Z  M 29.02 211.82 C 29.03 209.45 32.82 103.67 32.98 101.22 C 32.99 101.06 37.84 101.06 43.75 101.22 C 54.50 101.50 54.50 101.50 54.76 154.68 C 55.00 204.69 54.91 207.89 53.26 208.38 C 52.29 208.67 47.23 210.07 42.00 211.50 C 36.77 212.93 31.71 214.33 30.75 214.62 C 29.33 215.04 29.00 214.51 29.02 211.82 Z "/>
</g>
</svg>