<?xml version="1.0" encoding="UTF-8" standalone="no"?>
<!DOCTYPE svg PUBLIC "-//W3C//DTD SVG 1.1//EN" "http://www.w3.org/Graphics/SVG/1.1/DTD/svg11.dtd" >
<svg xmlns="http://www.w3.org/2000/svg" xmlns:xlink="http://www.w3.org/1999/xlink" version="1.1" viewBox="0 0 167 256">
 <g >
 <path fill="currentColor"
d=" M 79.00 224.99 C 96.88 222.80 113.16 220.74 115.19 220.42 C 118.88 219.84 118.88 219.84 119.19 224.67 C 119.50 229.50 119.50 229.50 123.75 229.81 C 128.00 230.11 128.00 230.11 128.00 224.65 C 128.00 219.18 128.00 219.18 132.05 218.49 C 136.09 217.81 136.10 217.80 135.80 213.65 C 135.50 209.50 135.50 209.50 131.25 209.82 C 127.00 210.13 127.00 210.13 127.00 190.57 C 127.00 171.00 127.00 171.00 134.00 171.00 C 141.00 171.00 141.00 171.00 141.00 166.50 C 141.00 162.00 141.00 162.00 133.53 162.00 C 126.07 162.00 126.07 162.00 125.78 151.25 C 125.50 140.50 125.50 140.50 121.19 140.19 C 116.88 139.88 116.88 139.88 117.19 151.44 C 117.50 163.00 117.50 163.00 83.60 163.00 C 49.69 163.00 49.69 163.00 50.32 152.10 C 50.94 141.20 50.94 141.20 46.72 140.76 C 44.40 140.52 42.38 140.41 42.24 140.51 C 42.09 140.61 41.68 145.71 41.33 151.85 C 40.69 163.00 40.69 163.00 32.85 163.00 C 25.00 163.00 25.00 163.00 25.00 167.50 C 25.00 172.00 25.00 172.00 33.01 172.00 C 41.01 172.00 41.01 172.00 40.34 201.08 C 39.68 230.15 39.68 230.15 43.09 229.57 C 44.96 229.24 61.12 227.19 79.00 224.99 Z  M 139.00 132.50 C 139.00 128.00 139.00 128.00 83.00 128.00 C 27.00 128.00 27.00 128.00 27.00 132.50 C 27.00 137.00 27.00 137.00 83.00 137.00 C 139.00 137.00 139.00 137.00 139.00 132.50 Z  M 57.11 123.17 C 57.61 122.63 55.04 106.82 49.48 76.17 C 48.89 72.88 48.83 72.85 44.69 73.54 C 42.39 73.92 40.36 74.35 40.19 74.51 C 39.87 74.80 47.80 121.43 48.58 123.86 C 48.90 124.86 50.02 125.04 52.76 124.53 C 54.82 124.15 56.78 123.54 57.11 123.17 Z  M 120.33 101.25 C 122.36 88.19 124.01 76.75 124.01 75.84 C 124.00 74.68 122.78 73.97 119.93 73.49 C 117.70 73.11 115.74 72.96 115.59 73.15 C 115.20 73.66 107.99 120.19 108.00 122.18 C 108.00 123.74 109.55 124.32 115.07 124.85 C 116.36 124.97 117.29 120.83 120.33 101.25 Z  M 135.00 63.52 C 135.00 59.67 134.68 58.97 132.75 58.59 C 130.64 58.17 38.69 53.93 32.75 53.98 C 30.16 54.00 30.00 54.26 30.00 58.50 C 30.00 63.00 30.00 63.00 37.25 63.08 C 43.65 63.15 132.34 67.52 134.25 67.87 C 134.66 67.94 135.00 65.98 135.00 63.52 Z  M 103.01 49.75 C 104.10 47.96 104.99 46.21 105.00 45.86 C 105.00 45.51 97.29 40.41 87.86 34.53 C 74.66 26.29 70.51 24.14 69.82 25.17 C 65.25 31.96 64.41 30.83 82.76 42.42 C 91.97 48.23 99.84 52.99 100.26 52.99 C 100.69 53.00 101.92 51.54 103.01 49.75 Z  M 49.00 206.81 C 49.01 200.04 49.30 189.43 49.66 183.24 C 50.31 171.97 50.31 171.97 83.90 172.24 C 117.50 172.50 117.50 172.50 118.00 191.75 C 118.28 202.34 118.47 211.00 118.43 211.00 C 117.92 210.99 56.33 218.11 53.25 218.54 C 49.00 219.12 49.00 219.12 49.00 206.81 Z "/>
</g>
</svg>