<?xml version="1.0" encoding="UTF-8" standalone="no"?>
<!DOCTYPE svg PUBLIC "-//W3C//DTD SVG 1.1//EN" "http://www.w3.org/Graphics/SVG/1.1/DTD/svg11.dtd" >
<svg xmlns="http://www.w3.org/2000/svg" xmlns:xlink="http://www.w3.org/1999/xlink" version="1.1" viewBox="0 0 167 256">
 <g >
 <path fill="currentColor"
d=" M 46.02 228.25 C 46.04 226.04 50.79 146.15 50.95 145.25 C 50.98 145.11 64.84 144.95 81.75 144.88 C 98.66 144.82 117.00 144.48 122.50 144.13 C 132.50 143.50 132.50 143.50 133.00 120.50 C 133.50 97.50 133.50 97.50 140.25 97.20 C 147.00 96.91 147.00 96.91 147.00 92.95 C 147.00 89.00 147.00 89.00 140.87 89.00 C 134.75 89.00 134.75 89.00 135.48 60.07 C 136.22 31.13 136.22 31.13 132.86 30.59 C 126.84 29.62 28.84 22.82 28.33 23.34 C 28.06 23.61 27.59 25.67 27.28 27.92 C 26.87 30.99 27.08 31.99 28.12 31.98 C 31.25 31.92 121.68 38.18 123.75 38.59 C 126.00 39.04 126.00 39.04 126.00 63.52 C 126.00 88.00 126.00 88.00 90.50 88.00 C 55.00 88.00 55.00 88.00 55.00 85.08 C 55.00 81.70 56.72 54.23 57.47 45.75 C 57.97 40.00 57.97 40.00 53.56 40.00 C 49.14 40.00 49.14 40.00 48.59 45.25 C 48.28 48.14 47.54 58.59 46.93 68.48 C 46.32 78.37 45.62 86.81 45.36 87.23 C 45.10 87.66 39.06 88.00 31.94 88.00 C 19.00 88.00 19.00 88.00 19.00 91.97 C 19.00 95.94 19.00 95.94 31.75 96.22 C 46.26 96.54 44.84 93.38 43.46 122.25 C 42.80 136.00 42.80 136.00 35.90 136.00 C 29.00 136.00 29.00 136.00 29.00 140.50 C 29.00 145.00 29.00 145.00 35.54 145.00 C 42.08 145.00 42.08 145.00 41.50 152.25 C 40.87 160.04 37.00 225.38 37.00 228.18 C 37.00 229.25 38.00 230.02 39.75 230.28 C 45.75 231.19 46.00 231.11 46.02 228.25 Z  M 52.42 121.75 C 53.40 99.97 53.94 95.76 55.69 96.43 C 56.50 96.75 72.20 97.00 90.58 97.00 C 124.00 97.00 124.00 97.00 124.00 115.85 C 124.00 134.70 124.00 134.70 114.25 135.34 C 108.89 135.70 92.64 135.99 78.14 135.99 C 51.78 136.00 51.78 136.00 52.42 121.75 Z "/>
</g>
</svg>