<?xml version="1.0" encoding="UTF-8" standalone="no"?>
<!DOCTYPE svg PUBLIC "-//W3C//DTD SVG 1.1//EN" "http://www.w3.org/Graphics/SVG/1.1/DTD/svg11.dtd" >
<svg xmlns="http://www.w3.org/2000/svg" xmlns:xlink="http://www.w3.org/1999/xlink" version="1.1" viewBox="0 0 167 256">
 <g >
 <path fill="currentColor"
d=" M 136.00 214.00 C 136.00 194.00 136.00 194.00 132.03 194.00 C 128.05 194.00 128.05 194.00 127.78 209.25 C 127.50 224.50 127.50 224.50 108.75 224.77 C 90.00 225.04 90.00 225.04 90.00 208.66 C 90.00 180.43 87.53 183.00 114.64 183.00 C 138.00 183.00 138.00 183.00 138.00 178.50 C 138.00 174.00 138.00 174.00 114.53 174.00 C 91.05 174.00 91.05 174.00 90.78 159.75 C 90.50 145.50 90.50 145.50 86.25 145.19 C 82.00 144.89 82.00 144.89 82.00 159.44 C 82.00 174.00 82.00 174.00 55.50 174.00 C 29.00 174.00 29.00 174.00 29.00 178.50 C 29.00 183.00 29.00 183.00 55.64 183.00 C 82.28 183.00 82.28 183.00 81.64 189.15 C 81.29 192.53 81.00 201.98 81.00 210.15 C 81.00 225.00 81.00 225.00 62.00 225.00 C 43.00 225.00 43.00 225.00 43.00 209.00 C 43.00 193.00 43.00 193.00 38.50 193.00 C 34.00 193.00 34.00 193.00 34.00 213.50 C 34.00 234.00 34.00 234.00 85.00 234.00 C 136.00 234.00 136.00 234.00 136.00 214.00 Z  M 40.03 157.25 C 41.83 148.38 43.84 139.82 44.19 139.54 C 44.36 139.40 60.92 140.10 81.00 141.09 C 101.08 142.08 119.86 142.92 122.75 142.95 C 128.00 143.00 128.00 143.00 128.00 138.50 C 128.00 134.25 127.85 134.00 125.25 134.02 C 119.32 134.06 52.30 130.86 49.17 130.38 C 45.57 129.84 45.55 129.68 47.61 118.86 C 48.09 116.34 47.88 116.19 43.52 115.84 C 39.57 115.53 38.85 115.76 38.45 117.49 C 35.73 129.21 30.21 160.60 30.77 161.14 C 31.42 161.75 34.30 162.47 37.68 162.86 C 38.35 162.94 39.36 160.52 40.03 157.25 Z  M 128.63 109.92 C 130.48 108.77 132.00 107.58 132.00 107.27 C 132.00 106.35 113.86 78.00 113.27 78.00 C 112.38 78.00 106.00 82.12 106.00 82.70 C 106.00 83.55 124.23 112.00 124.77 112.00 C 125.04 112.00 126.78 111.06 128.63 109.92 Z  M 46.56 96.42 C 50.78 88.41 54.45 81.00 54.72 79.96 C 55.09 78.55 54.31 77.64 51.62 76.36 C 49.64 75.41 47.86 74.83 47.67 75.07 C 47.47 75.31 43.60 82.44 39.07 90.91 C 32.79 102.65 31.15 106.51 32.16 107.09 C 32.90 107.52 34.40 108.55 35.50 109.40 C 36.60 110.24 37.81 110.95 38.19 110.97 C 38.57 110.99 42.34 104.44 46.56 96.42 Z  M 30.00 79.50 C 30.00 64.00 30.00 64.00 38.75 64.08 C 56.99 64.24 133.86 67.53 134.51 68.17 C 134.88 68.54 134.39 73.38 133.42 78.92 C 132.45 84.46 131.86 89.19 132.11 89.45 C 132.37 89.70 134.38 90.20 136.58 90.55 C 140.58 91.19 140.58 91.19 143.40 76.03 C 144.94 67.69 145.90 60.56 145.52 60.19 C 145.15 59.81 138.70 59.27 131.19 59.00 C 117.55 58.50 117.55 58.50 116.86 54.50 C 113.59 35.44 102.06 25.74 82.50 25.57 C 74.89 25.51 72.82 25.86 69.11 27.84 C 59.80 32.81 51.65 42.47 48.92 51.77 C 48.02 54.86 47.24 55.91 46.09 55.59 C 45.21 55.35 39.21 54.85 32.75 54.48 C 21.00 53.80 21.00 53.80 21.00 74.40 C 21.00 95.00 21.00 95.00 25.50 95.00 C 30.00 95.00 30.00 95.00 30.00 79.50 Z  M 81.50 56.74 C 68.30 56.22 57.35 55.66 57.17 55.48 C 56.23 54.59 61.36 45.56 65.16 41.43 C 70.53 35.58 74.17 34.00 82.22 34.01 C 91.27 34.01 95.24 35.42 99.50 40.13 C 105.34 46.60 110.12 58.28 106.75 57.84 C 106.06 57.75 94.70 57.25 81.50 56.74 Z "/>
</g>
</svg>