<?xml version="1.0" encoding="UTF-8" standalone="no"?>
<!DOCTYPE svg PUBLIC "-//W3C//DTD SVG 1.1//EN" "http://www.w3.org/Graphics/SVG/1.1/DTD/svg11.dtd" >
<svg xmlns="http://www.w3.org/2000/svg" xmlns:xlink="http://www.w3.org/1999/xlink" version="1.1" viewBox="0 0 167 256">
 <g >
 <path fill="currentColor"
d=" M 137.00 169.50 C 137.00 104.00 137.00 104.00 112.50 104.00 C 88.00 104.00 88.00 104.00 88.00 65.50 C 88.00 27.00 88.00 27.00 83.50 27.00 C 79.00 27.00 79.00 27.00 79.00 65.50 C 79.00 104.00 79.00 104.00 51.50 104.00 C 24.00 104.00 24.00 104.00 24.00 129.25 C 24.00 143.14 24.30 171.71 24.66 192.75 C 25.32 231.00 25.32 231.00 29.70 231.00 C 34.07 231.00 34.07 231.00 33.37 171.99 C 32.68 112.98 32.68 112.98 80.59 113.24 C 128.50 113.50 128.50 113.50 128.77 132.16 C 129.04 150.83 129.04 150.83 121.77 151.39 C 114.99 151.91 51.06 154.04 42.75 154.01 C 39.00 154.00 39.00 154.00 39.00 158.50 C 39.00 163.00 39.00 163.00 45.25 162.96 C 48.69 162.94 68.60 162.31 89.50 161.56 C 110.40 160.81 127.84 160.41 128.25 160.66 C 128.66 160.91 129.00 165.12 129.00 170.01 C 129.00 178.91 129.00 178.91 125.75 179.44 C 122.61 179.96 44.71 189.00 43.39 189.00 C 42.72 189.00 43.50 196.84 44.25 197.59 C 44.48 197.82 63.31 195.79 86.09 193.09 C 108.86 190.39 127.85 188.51 128.27 188.91 C 128.70 189.32 128.92 197.71 128.77 207.57 C 128.50 225.50 128.50 225.50 118.75 225.79 C 109.00 226.07 109.00 226.07 109.00 230.54 C 109.00 235.00 109.00 235.00 123.00 235.00 C 137.00 235.00 137.00 235.00 137.00 169.50 Z  M 47.11 101.43 C 47.64 101.10 43.96 87.17 35.41 57.15 C 33.89 51.80 33.89 51.80 30.19 52.48 C 28.16 52.85 26.20 53.46 25.82 53.83 C 25.29 54.36 36.34 96.21 38.50 101.86 C 38.88 102.85 40.02 103.03 42.75 102.52 C 44.81 102.13 46.77 101.64 47.11 101.43 Z  M 135.33 76.07 C 139.00 63.45 142.00 52.74 142.00 52.27 C 142.00 51.39 135.12 48.53 134.53 49.16 C 134.04 49.69 120.00 94.74 120.00 95.78 C 120.00 96.62 124.92 98.65 127.58 98.90 C 128.17 98.95 131.66 88.68 135.33 76.07 Z "/>
</g>
</svg>