<?xml version="1.0" encoding="UTF-8" standalone="no"?>
<!DOCTYPE svg PUBLIC "-//W3C//DTD SVG 1.1//EN" "http://www.w3.org/Graphics/SVG/1.1/DTD/svg11.dtd" >
<svg xmlns="http://www.w3.org/2000/svg" xmlns:xlink="http://www.w3.org/1999/xlink" version="1.1" viewBox="0 0 167 256">
 <g >
 <path fill="currentColor"
d=" M 60.76 171.75 C 60.50 111.50 60.50 111.50 56.25 111.19 C 52.00 110.89 52.00 110.89 52.00 123.94 C 52.00 137.00 52.00 137.00 38.50 137.00 C 25.00 137.00 25.00 137.00 25.00 141.50 C 25.00 146.00 25.00 146.00 38.50 146.00 C 52.00 146.00 52.00 146.00 52.00 156.91 C 52.00 169.29 53.35 168.13 37.25 169.56 C 29.53 170.24 29.23 170.53 30.67 175.89 C 31.30 178.27 31.35 178.28 41.65 177.65 C 52.00 177.02 52.00 177.02 52.00 187.46 C 52.00 197.91 52.00 197.91 48.75 198.45 C 46.96 198.75 41.02 199.69 35.55 200.53 C 30.08 201.38 25.42 202.25 25.20 202.47 C 24.98 202.69 25.11 204.71 25.49 206.96 C 26.16 210.89 26.31 211.04 29.34 210.54 C 31.08 210.26 35.42 209.56 39.00 209.00 C 42.58 208.44 46.96 207.74 48.75 207.44 C 52.00 206.91 52.00 206.91 52.00 219.45 C 52.00 232.00 52.00 232.00 56.51 232.00 C 61.02 232.00 61.02 232.00 60.76 171.75 Z  M 114.00 220.40 C 114.00 208.80 114.00 208.80 119.75 209.37 C 122.91 209.67 128.99 210.21 133.25 210.55 C 141.00 211.17 141.00 211.17 141.00 206.67 C 141.00 202.17 141.00 202.17 133.25 201.56 C 113.16 199.96 115.00 201.30 115.00 188.31 C 115.00 176.76 115.00 176.76 125.50 177.48 C 132.12 177.93 136.00 177.83 136.00 177.22 C 136.00 176.69 136.27 174.89 136.61 173.22 C 137.21 170.19 137.21 170.19 129.36 169.56 C 113.64 168.29 115.00 169.48 115.00 156.95 C 115.00 146.00 115.00 146.00 127.00 146.00 C 139.00 146.00 139.00 146.00 139.00 141.50 C 139.00 137.00 139.00 137.00 127.53 137.00 C 116.06 137.00 116.06 137.00 115.78 124.75 C 115.50 112.50 115.50 112.50 111.35 112.20 C 107.20 111.89 107.20 111.89 106.63 116.70 C 106.32 119.34 105.77 146.36 105.41 176.75 C 104.76 232.00 104.76 232.00 109.38 232.00 C 114.00 232.00 114.00 232.00 114.00 220.40 Z  M 53.00 85.50 C 53.00 67.00 53.00 67.00 57.25 67.06 C 59.59 67.09 74.10 68.11 89.50 69.31 C 121.14 71.79 118.60 69.50 116.59 93.75 C 115.74 104.00 115.74 104.00 120.24 104.00 C 124.74 104.00 124.74 104.00 126.03 88.00 C 127.33 72.00 127.33 72.00 131.66 72.00 C 136.00 72.00 136.00 72.00 136.00 68.00 C 136.00 64.10 135.92 64.00 132.50 64.00 C 128.29 64.00 128.37 64.83 130.66 45.16 C 132.52 29.29 132.45 29.05 126.44 29.02 C 123.37 29.00 123.37 29.00 121.44 45.75 C 119.64 61.33 119.36 62.49 117.50 62.30 C 116.40 62.20 101.44 60.88 84.25 59.37 C 53.00 56.63 53.00 56.63 53.00 41.32 C 53.00 26.00 53.00 26.00 48.53 26.00 C 44.05 26.00 44.05 26.00 43.78 41.19 C 43.50 56.37 43.50 56.37 37.25 56.11 C 31.00 55.86 31.00 55.86 31.00 60.38 C 31.00 64.90 31.00 64.90 37.25 65.20 C 43.50 65.50 43.50 65.50 43.77 84.75 C 44.04 104.00 44.04 104.00 48.52 104.00 C 53.00 104.00 53.00 104.00 53.00 85.50 Z "/>
</g>
</svg>