<?xml version="1.0" encoding="UTF-8" standalone="no"?>
<!DOCTYPE svg PUBLIC "-//W3C//DTD SVG 1.1//EN" "http://www.w3.org/Graphics/SVG/1.1/DTD/svg11.dtd" >
<svg xmlns="http://www.w3.org/2000/svg" xmlns:xlink="http://www.w3.org/1999/xlink" version="1.1" viewBox="0 0 170 256">
 <g >
 <path fill="currentColor"
d=" M 79.55 179.48 C 86.35 167.32 91.29 150.17 93.23 132.00 C 93.49 129.55 93.67 129.50 102.00 129.50 C 110.50 129.50 110.50 129.50 110.77 153.75 C 111.04 178.00 111.04 178.00 119.02 178.00 C 127.00 178.00 127.00 178.00 127.00 169.38 C 127.00 160.75 127.00 160.75 130.25 161.40 C 132.04 161.75 137.84 164.26 143.13 166.97 C 152.29 171.66 154.00 172.07 154.00 169.58 C 154.00 168.21 146.36 163.36 142.79 162.48 C 141.30 162.11 139.57 161.19 138.95 160.45 C 137.54 158.74 138.71 156.53 140.34 157.83 C 140.98 158.34 144.99 160.36 149.25 162.31 C 156.29 165.55 157.00 165.70 157.00 163.97 C 157.00 162.57 155.02 161.15 149.64 158.66 C 141.95 155.11 140.10 153.50 141.77 151.83 C 142.90 150.70 146.89 152.49 153.78 157.21 C 157.93 160.05 161.00 160.55 161.66 158.50 C 162.48 155.95 141.63 146.20 129.71 143.56 C 126.94 142.95 126.91 142.86 127.21 136.22 C 127.50 129.50 127.50 129.50 135.75 129.21 C 144.00 128.92 144.00 128.92 144.00 120.46 C 144.00 112.00 144.00 112.00 119.00 112.00 C 94.00 112.00 94.00 112.00 94.00 103.00 C 94.00 94.00 94.00 94.00 103.25 93.99 C 108.34 93.99 115.42 93.51 119.00 92.94 C 127.24 91.61 141.21 86.89 141.75 85.25 C 142.37 83.39 138.83 83.72 133.86 85.98 C 128.92 88.22 120.58 88.75 121.24 86.78 C 121.47 86.10 124.17 85.05 127.24 84.43 C 134.78 82.92 139.00 81.07 139.00 79.27 C 139.00 77.56 136.06 77.87 129.50 80.27 C 121.97 83.03 119.80 83.28 120.17 81.35 C 120.40 80.18 122.99 78.81 128.25 77.11 C 134.32 75.14 136.00 74.18 136.00 72.69 C 136.00 71.25 135.57 70.97 134.25 71.55 C 128.84 73.91 117.25 76.19 108.50 76.62 C 92.91 77.40 94.00 76.69 94.00 86.02 C 94.00 94.00 94.00 94.00 85.12 94.00 C 76.24 94.00 76.24 94.00 75.77 116.75 C 75.42 133.79 74.85 141.38 73.51 146.99 C 71.48 155.55 66.31 168.36 63.03 172.95 C 60.80 176.09 60.93 179.50 63.25 178.78 C 64.25 178.46 70.56 167.87 72.34 163.50 C 72.60 162.87 73.21 162.93 73.99 163.67 C 74.97 164.58 74.32 166.54 70.93 172.90 C 68.57 177.34 66.92 181.25 67.27 181.61 C 68.67 183.01 70.70 180.92 74.99 173.63 C 77.47 169.43 79.80 166.00 80.18 166.00 C 82.42 166.00 81.63 168.93 77.58 175.75 C 72.74 183.88 72.09 186.00 74.45 186.00 C 75.25 186.00 77.54 183.07 79.55 179.48 Z  M 59.00 137.50 C 59.00 129.00 59.00 129.00 50.50 129.00 C 42.00 129.00 42.00 129.00 42.00 120.50 C 42.00 112.00 42.00 112.00 50.54 112.00 C 59.08 112.00 59.08 112.00 58.79 103.25 C 58.50 94.50 58.50 94.50 50.25 94.21 C 42.00 93.92 42.00 93.92 42.00 85.96 C 42.00 78.00 42.00 78.00 33.50 78.00 C 25.00 78.00 25.00 78.00 25.00 86.00 C 25.00 94.00 25.00 94.00 16.50 94.00 C 8.00 94.00 8.00 94.00 8.00 103.00 C 8.00 112.00 8.00 112.00 16.50 112.00 C 25.00 112.00 25.00 112.00 25.00 120.50 C 25.00 129.00 25.00 129.00 16.50 129.00 C 8.00 129.00 8.00 129.00 8.00 137.50 C 8.00 146.00 8.00 146.00 33.50 146.00 C 59.00 146.00 59.00 146.00 59.00 137.50 Z "/>
</g>
</svg>