<?xml version="1.0" encoding="UTF-8" standalone="no"?>
<!DOCTYPE svg PUBLIC "-//W3C//DTD SVG 1.1//EN" "http://www.w3.org/Graphics/SVG/1.1/DTD/svg11.dtd" >
<svg xmlns="http://www.w3.org/2000/svg" xmlns:xlink="http://www.w3.org/1999/xlink" version="1.1" viewBox="0 0 97 256">
 <g >
 <path fill="currentColor"
d=" M 18.91 154.34 C 29.57 148.15 39.60 138.96 45.76 129.75 C 47.14 127.69 48.76 126.00 49.37 126.00 C 49.97 126.00 55.53 131.05 61.73 137.23 C 72.98 148.45 72.98 148.45 78.99 142.51 C 82.30 139.24 85.00 136.32 85.00 136.02 C 85.00 135.73 74.84 125.64 62.43 113.60 C 39.86 91.71 39.86 91.71 33.96 97.54 C 28.07 103.37 28.07 103.37 32.46 108.50 C 36.85 113.64 36.85 113.64 31.90 120.25 C 26.60 127.32 21.24 132.15 11.25 138.87 C 5.29 142.88 3.53 145.03 6.25 144.98 C 6.94 144.97 10.61 142.94 14.41 140.48 C 22.10 135.50 23.00 135.22 23.00 137.76 C 23.00 138.87 20.28 141.15 15.52 144.01 C 8.85 148.01 6.09 151.00 9.05 151.00 C 10.61 151.00 15.73 148.20 21.17 144.38 C 26.72 140.48 27.01 140.40 26.98 142.75 C 26.96 144.39 21.66 148.68 14.25 153.05 C 12.46 154.11 11.00 155.43 11.00 155.99 C 11.00 157.75 14.17 157.09 18.91 154.34 Z "/>
</g>
</svg>