<?xml version="1.0" encoding="UTF-8" standalone="no"?>
<!DOCTYPE svg PUBLIC "-//W3C//DTD SVG 1.1//EN" "http://www.w3.org/Graphics/SVG/1.1/DTD/svg11.dtd" >
<svg xmlns="http://www.w3.org/2000/svg" xmlns:xlink="http://www.w3.org/1999/xlink" version="1.1" viewBox="0 0 256 256">
 <g >
 <path fill="currentColor"
d=" M 58.00 253.36 C 58.00 253.00 61.60 233.44 66.00 209.88 C 70.40 186.32 74.00 166.12 74.00 165.00 C 74.00 163.00 73.57 162.97 49.96 163.23 C 25.93 163.50 25.93 163.50 17.90 187.74 C 9.87 211.97 9.87 211.97 6.43 210.54 C 3.08 209.13 3.00 209.15 3.50 211.30 C 3.79 212.51 5.81 221.60 8.00 231.50 C 10.19 241.40 12.22 250.51 12.51 251.75 C 13.04 254.00 13.04 254.00 35.52 254.00 C 47.88 254.00 58.00 253.71 58.00 253.36 Z  M 167.50 251.91 C 196.10 251.32 219.76 250.54 220.08 250.17 C 220.39 249.80 226.88 226.10 234.50 197.50 C 242.12 168.90 248.54 144.94 248.78 144.25 C 249.12 143.27 244.28 143.00 226.74 143.00 C 204.26 143.00 204.26 143.00 200.00 165.25 C 191.91 207.47 190.41 214.92 189.93 215.40 C 189.67 215.66 162.93 216.38 130.50 217.00 C 98.07 217.62 71.40 218.26 71.23 218.44 C 70.95 218.72 78.41 249.62 79.54 252.85 C 79.92 253.95 83.35 254.09 97.76 253.59 C 107.52 253.25 138.90 252.50 167.50 251.91 Z  M 236.40 248.25 C 237.90 240.87 250.09 156.77 249.79 155.87 C 249.60 155.29 244.33 175.90 238.08 201.66 C 231.83 227.42 226.51 249.06 226.25 249.75 C 225.92 250.65 227.21 251.00 230.81 251.00 C 235.50 251.00 235.88 250.81 236.40 248.25 Z  M 176.22 208.37 C 186.95 207.78 186.95 207.78 187.44 204.64 C 188.18 199.88 192.26 137.92 191.85 137.59 C 191.15 137.02 138.49 140.20 138.00 140.84 C 137.72 141.20 137.62 156.96 137.78 175.85 C 138.08 214.02 134.13 210.68 176.22 208.37 Z  M 111.14 207.35 C 124.59 206.71 124.59 206.71 127.82 177.10 C 129.59 160.82 131.04 146.70 131.02 145.73 C 131.00 144.08 129.48 143.98 109.28 144.23 C 87.55 144.50 87.55 144.50 84.68 160.00 C 83.11 168.53 81.69 175.63 81.55 175.78 C 81.40 175.93 80.06 175.59 78.56 175.02 C 75.29 173.78 75.04 172.30 81.50 192.40 C 87.21 210.17 84.19 208.65 111.14 207.35 Z  M 13.49 185.47 C 16.52 175.10 19.25 165.80 19.56 164.81 C 20.05 163.27 19.54 163.00 16.16 163.00 C 11.51 163.00 12.00 161.40 9.51 185.00 C 8.67 192.97 7.76 200.82 7.48 202.43 C 6.40 208.71 8.23 203.56 13.49 185.47 Z  M 26.51 154.75 C 26.28 154.06 22.44 139.55 17.99 122.50 C 7.58 82.62 8.38 85.00 5.36 85.00 C 3.45 85.00 2.99 85.41 3.39 86.75 C 3.68 87.71 7.55 103.12 11.99 121.00 C 16.43 138.88 20.26 154.06 20.50 154.75 C 20.74 155.44 22.29 156.00 23.94 156.00 C 25.90 156.00 26.79 155.57 26.51 154.75 Z  M 70.41 137.14 C 72.94 126.77 75.00 117.74 75.00 117.06 C 75.00 116.28 73.73 116.62 71.45 118.03 C 69.49 119.24 67.78 120.06 67.63 119.86 C 67.49 119.66 65.90 114.10 64.11 107.50 C 57.18 82.04 60.95 85.00 35.36 85.00 C 14.40 85.00 12.90 85.12 13.39 86.75 C 13.68 87.71 17.55 103.12 21.99 121.00 C 26.43 138.88 30.26 154.06 30.50 154.75 C 30.83 155.69 35.33 156.00 48.38 156.00 C 65.83 156.00 65.83 156.00 70.41 137.14 Z  M 115.25 135.63 C 131.61 134.37 145.13 133.15 145.30 132.92 C 145.60 132.52 155.11 7.81 155.03 5.25 C 155.01 4.39 153.10 4.00 148.92 4.00 C 142.84 4.00 142.84 4.00 143.37 6.75 C 143.66 8.26 144.20 26.96 144.57 48.30 C 145.25 87.09 145.25 87.09 138.07 86.80 C 130.89 86.50 130.89 86.50 130.97 53.25 C 131.05 20.00 131.05 20.00 107.03 20.00 C 83.00 20.00 83.00 20.00 83.06 24.75 C 83.10 27.36 83.92 42.10 84.90 57.50 C 85.87 72.90 86.49 85.84 86.28 86.25 C 86.06 86.66 83.43 87.00 80.44 87.00 C 75.93 87.00 75.00 87.30 74.99 88.75 C 74.97 92.21 78.13 133.55 78.58 135.75 C 79.15 138.54 77.44 138.54 115.25 135.63 Z  M 202.70 129.17 C 227.01 127.11 247.17 125.16 247.50 124.84 C 247.91 124.42 251.96 90.64 252.00 87.27 C 252.00 87.14 240.41 86.91 226.25 86.77 C 200.50 86.50 200.50 86.50 200.84 81.50 C 201.80 67.59 200.16 68.72 222.52 66.63 C 233.51 65.60 242.62 64.66 242.78 64.52 C 243.31 64.05 249.91 27.58 249.53 27.20 C 249.09 26.76 219.44 25.11 210.76 25.04 C 205.02 25.00 205.02 25.00 205.66 14.50 C 206.30 4.00 206.30 4.00 183.65 4.00 C 161.00 4.00 161.00 4.00 161.00 6.75 C 161.00 8.98 153.79 115.89 152.74 129.25 C 152.46 132.83 152.58 133.00 155.47 132.95 C 157.14 132.92 178.39 131.22 202.70 129.17 Z  M 23.16 73.00 C 22.87 70.78 10.81 11.96 9.48 6.25 C 9.09 4.53 8.25 4.00 5.96 4.00 C 3.36 4.00 3.03 4.30 3.48 6.25 C 3.77 7.49 6.95 22.67 10.55 40.00 C 14.15 57.33 17.35 72.54 17.67 73.80 C 18.12 75.59 18.83 76.04 20.87 75.80 C 23.04 75.55 23.44 75.06 23.16 73.00 Z  M 65.03 73.75 C 66.32 70.79 76.00 37.44 76.00 35.95 C 76.00 35.25 75.30 35.06 74.25 35.46 C 67.83 37.95 67.67 37.82 65.24 28.32 C 58.35 1.40 61.50 4.00 35.87 4.00 C 12.96 4.00 12.96 4.00 13.50 6.25 C 13.79 7.49 17.17 22.67 21.00 40.00 C 24.83 57.33 28.21 72.51 28.50 73.75 C 29.03 75.98 29.21 76.00 46.54 76.00 C 63.73 76.00 64.06 75.96 65.03 73.75 Z "/>
</g>
</svg>