<?xml version="1.0" encoding="UTF-8" standalone="no"?>
<!DOCTYPE svg PUBLIC "-//W3C//DTD SVG 1.1//EN" "http://www.w3.org/Graphics/SVG/1.1/DTD/svg11.dtd" >
<svg xmlns="http://www.w3.org/2000/svg" xmlns:xlink="http://www.w3.org/1999/xlink" version="1.1" viewBox="0 0 256 256">
 <g >
 <path fill="currentColor"
d=" M 80.95 245.98 C 116.40 242.69 145.72 239.66 146.11 239.25 C 146.82 238.49 153.00 208.88 153.00 206.22 C 153.00 205.02 151.20 204.88 142.25 205.37 C 102.67 207.56 104.85 207.73 105.19 202.36 C 105.53 196.99 103.37 197.50 134.52 195.40 C 142.55 194.86 142.55 194.86 146.37 177.36 C 148.48 167.74 150.04 159.73 149.85 159.57 C 149.66 159.40 142.07 159.86 133.00 160.58 C 108.83 162.51 111.00 162.83 111.00 157.41 C 111.00 152.81 111.00 152.81 106.25 153.37 C 103.64 153.67 93.98 154.21 84.80 154.57 C 65.26 155.32 67.68 151.29 65.91 186.00 C 65.29 198.38 64.68 208.60 64.58 208.73 C 64.47 208.85 50.70 209.66 33.98 210.52 C 17.26 211.38 3.47 212.20 3.32 212.35 C 3.05 212.61 6.47 242.19 7.59 249.30 C 8.19 253.09 8.19 253.09 12.35 252.53 C 14.63 252.22 45.50 249.28 80.95 245.98 Z  M 196.05 252.75 C 196.21 251.98 199.94 29.47 199.97 19.25 C 200.00 7.00 200.00 7.00 183.00 7.00 C 166.00 7.00 166.00 7.00 166.00 11.96 C 166.00 16.51 158.56 225.83 157.72 244.75 C 157.36 253.00 157.36 253.00 176.68 253.00 C 187.31 253.00 196.02 252.89 196.05 252.75 Z  M 241.67 210.82 C 252.07 191.14 252.07 191.14 245.54 152.76 C 239.00 114.39 239.00 114.39 245.50 81.99 C 252.00 49.59 252.00 49.59 252.00 26.79 C 252.00 9.23 251.71 4.00 250.75 4.00 C 248.70 3.99 213.85 6.99 209.36 7.56 C 205.23 8.09 205.23 8.09 204.59 28.29 C 204.24 39.41 203.69 52.05 203.36 56.39 C 202.77 64.29 202.77 64.29 207.88 63.61 C 210.70 63.24 213.00 63.06 212.99 63.22 C 212.99 63.37 210.78 74.97 208.08 89.00 C 203.17 114.50 203.17 114.50 207.13 148.87 C 209.31 167.78 210.89 183.44 210.65 183.69 C 210.40 183.93 207.80 183.69 204.85 183.15 C 201.91 182.62 199.44 182.25 199.37 182.34 C 199.26 182.48 201.44 196.14 206.07 224.28 C 207.19 231.06 207.19 231.06 219.23 230.78 C 231.27 230.50 231.27 230.50 241.67 210.82 Z  M 61.69 156.36 C 61.58 156.26 59.31 156.43 56.64 156.73 C 51.79 157.28 51.78 157.29 52.32 160.58 C 52.85 163.87 52.85 163.87 47.68 164.43 C 41.73 165.08 14.20 167.00 10.96 167.00 C 8.59 167.00 8.60 166.26 10.64 193.36 C 11.23 201.21 11.23 201.21 25.36 200.59 C 33.14 200.25 43.89 199.70 49.25 199.37 C 59.00 198.78 59.00 198.78 59.00 201.31 C 59.00 202.70 59.34 204.66 59.75 205.67 C 60.16 206.68 60.81 196.03 61.19 182.02 C 61.56 168.00 61.79 156.46 61.69 156.36 Z  M 158.99 109.85 C 160.10 63.29 161.00 21.10 161.00 16.10 C 161.00 7.00 161.00 7.00 157.84 7.00 C 154.69 7.00 154.69 7.00 155.34 24.25 C 155.70 33.74 156.07 77.27 156.16 121.00 C 156.25 164.73 156.47 199.15 156.65 197.50 C 156.84 195.85 157.89 156.41 158.99 109.85 Z  M 68.00 151.50 C 97.98 149.56 124.36 147.74 126.63 147.44 C 130.54 146.94 131.26 146.26 140.63 134.21 C 150.50 121.50 150.50 121.50 150.84 91.16 C 151.18 60.81 151.18 60.81 136.09 61.16 C 121.00 61.50 121.00 61.50 121.00 53.36 C 121.00 44.36 121.26 44.00 127.75 44.00 C 129.72 44.00 131.08 43.74 130.76 43.43 C 130.15 42.81 21.64 45.71 11.25 46.61 C 5.00 47.16 5.00 47.16 5.00 51.02 C 5.00 54.79 5.07 54.86 8.25 54.44 C 13.92 53.69 33.23 52.00 36.17 52.00 C 38.96 52.00 39.00 52.08 39.00 58.00 C 39.00 64.00 39.00 64.00 27.58 64.00 C 14.25 64.00 16.12 58.30 12.99 108.50 C 11.90 126.10 10.72 143.76 10.38 147.75 C 9.82 154.38 9.92 155.00 11.63 155.01 C 12.66 155.01 38.02 153.43 68.00 151.50 Z  M 8.39 112.50 C 8.75 98.20 9.33 81.44 9.67 75.25 C 10.29 64.00 10.29 64.00 7.00 64.00 C 3.70 64.00 3.70 64.00 4.33 76.75 C 4.68 83.76 5.27 101.13 5.64 115.34 C 6.01 129.56 6.64 140.58 7.03 139.84 C 7.42 139.11 8.04 126.80 8.39 112.50 Z  M 84.50 40.90 C 117.50 40.29 144.78 39.50 145.12 39.14 C 146.09 38.12 153.31 7.98 152.72 7.39 C 152.00 6.67 4.00 3.66 3.31 4.35 C 3.01 4.66 3.10 13.50 3.50 24.01 C 4.24 43.12 4.24 43.12 14.37 42.56 C 19.94 42.26 51.50 41.51 84.50 40.90 Z  M 42.00 109.56 C 42.00 101.00 42.00 101.00 46.54 101.00 C 51.08 101.00 51.08 101.00 50.79 109.25 C 50.50 117.50 50.50 117.50 46.25 117.81 C 42.00 118.11 42.00 118.11 42.00 109.56 Z  M 75.00 107.56 C 75.00 99.00 75.00 99.00 79.54 99.00 C 84.08 99.00 84.08 99.00 83.79 107.25 C 83.50 115.50 83.50 115.50 79.25 115.81 C 75.00 116.11 75.00 116.11 75.00 107.56 Z  M 106.00 106.08 C 106.00 97.00 106.46 96.00 110.61 96.00 C 114.00 96.00 114.00 96.00 114.00 104.50 C 114.00 113.00 114.00 113.00 110.00 113.00 C 106.00 113.00 106.00 113.00 106.00 106.08 Z  M 76.00 57.50 C 76.00 50.60 77.26 48.00 80.58 48.00 C 83.05 48.00 83.08 48.10 82.79 55.25 C 82.50 62.50 82.50 62.50 79.25 62.81 C 76.00 63.13 76.00 63.13 76.00 57.50 Z "/>
</g>
</svg>