<?xml version="1.0" encoding="UTF-8" standalone="no"?>
<!DOCTYPE svg PUBLIC "-//W3C//DTD SVG 1.1//EN" "http://www.w3.org/Graphics/SVG/1.1/DTD/svg11.dtd" >
<svg xmlns="http://www.w3.org/2000/svg" xmlns:xlink="http://www.w3.org/1999/xlink" version="1.1" viewBox="0 0 256 256">
 <g >
 <path fill="currentColor"
d=" M 72.02 230.17 C 89.08 207.45 100.91 177.92 105.47 146.70 C 107.48 132.96 108.96 102.65 108.98 74.75 C 109.00 53.00 109.00 53.00 173.96 53.00 C 238.40 53.00 238.94 52.98 240.02 50.95 C 240.63 49.83 240.98 47.47 240.81 45.70 C 240.50 42.50 240.50 42.50 207.16 42.24 C 173.82 41.97 173.82 41.97 176.89 38.47 C 178.59 36.54 180.25 33.84 180.60 32.47 C 181.96 27.03 175.02 21.45 160.78 16.55 C 153.53 14.05 151.95 13.80 150.60 14.92 C 148.23 16.88 148.60 18.52 152.84 24.80 C 158.09 32.59 162.00 39.44 162.00 40.84 C 162.00 41.69 154.96 42.00 135.47 42.00 C 111.07 42.00 108.89 41.86 108.40 40.25 C 107.03 35.82 106.42 35.50 98.70 35.21 C 92.24 34.96 90.98 35.18 90.19 36.71 C 89.68 37.69 88.99 59.88 88.66 86.00 C 88.04 135.56 87.35 147.22 83.93 165.50 C 79.84 187.35 73.81 204.71 62.85 226.21 C 57.99 235.75 57.08 238.28 57.93 239.87 C 59.26 242.35 61.12 243.03 62.84 241.67 C 63.58 241.08 67.71 235.91 72.02 230.17 Z  M 145.78 240.44 C 148.00 238.89 148.00 238.89 148.00 188.88 C 148.00 159.75 148.37 139.11 148.89 139.43 C 149.39 139.74 151.40 144.15 153.37 149.24 C 157.98 161.12 159.43 163.20 162.85 162.81 C 164.87 162.57 166.03 161.42 167.71 158.00 C 168.92 155.53 169.94 152.23 169.96 150.68 C 170.02 146.33 164.74 139.65 155.93 132.94 C 147.93 126.85 147.93 126.85 148.21 117.68 C 148.50 108.50 148.50 108.50 156.75 108.21 C 165.00 107.92 165.00 107.92 165.00 103.99 C 165.00 99.01 163.24 98.00 154.57 98.00 C 148.00 98.00 148.00 98.00 148.00 83.04 C 148.00 65.67 148.01 65.69 138.25 66.20 C 130.54 66.61 130.03 67.75 130.01 84.75 C 130.00 98.00 130.00 98.00 122.43 98.00 C 112.71 98.00 111.00 98.90 111.00 104.04 C 111.00 108.00 111.00 108.00 119.00 108.00 C 128.45 108.00 128.14 107.25 125.03 122.36 C 119.13 151.02 110.37 177.08 98.33 201.79 C 92.59 213.57 92.45 215.10 97.05 216.30 C 98.60 216.71 100.04 215.40 103.72 210.24 C 110.46 200.80 120.26 183.28 125.22 171.82 C 129.50 161.94 129.50 161.94 130.00 199.87 C 130.47 235.37 130.62 237.93 132.40 239.90 C 134.75 242.49 142.41 242.80 145.78 240.44 Z  M 206.00 240.00 C 207.95 238.05 208.00 236.60 208.10 176.75 C 208.20 115.50 208.20 115.50 209.97 130.50 C 212.35 150.64 215.40 166.06 219.45 178.40 C 223.31 190.21 231.18 206.47 233.44 207.34 C 234.34 207.68 235.85 207.01 237.07 205.72 C 240.98 201.55 247.00 191.77 246.97 189.64 C 246.96 188.46 244.70 184.80 241.94 181.50 C 236.66 175.16 227.58 158.43 223.39 147.30 C 221.09 141.20 214.66 116.68 213.84 110.94 C 213.50 108.50 213.50 108.50 225.50 108.00 C 237.50 107.50 237.50 107.50 237.82 103.60 C 238.02 101.16 237.65 99.39 236.82 98.87 C 236.09 98.41 229.31 98.02 221.75 98.02 C 208.00 98.00 208.00 98.00 208.00 83.07 C 208.00 65.15 207.92 65.00 198.49 65.00 C 189.36 65.00 189.00 65.71 189.00 83.72 C 189.00 98.00 189.00 98.00 180.72 98.00 C 171.56 98.00 168.00 99.50 168.00 103.36 C 168.00 107.14 169.89 108.00 178.20 108.00 C 187.14 108.00 186.68 107.20 184.48 118.79 C 180.31 140.77 170.55 169.55 159.21 193.33 C 154.03 204.18 152.84 207.52 153.66 208.83 C 156.01 212.55 157.79 211.18 165.33 199.81 C 173.59 187.36 180.97 174.17 185.53 163.68 C 188.50 156.87 188.50 156.87 189.00 197.49 C 189.50 238.12 189.50 238.12 192.00 240.04 C 195.49 242.72 203.30 242.70 206.00 240.00 Z  M 40.00 204.00 C 41.70 202.30 42.00 200.67 42.00 193.00 C 42.00 184.00 42.00 184.00 50.00 184.00 C 56.44 184.00 58.00 184.29 58.00 185.50 C 58.00 188.79 61.78 191.00 67.43 191.00 C 72.10 191.00 73.14 190.63 74.93 188.37 C 76.98 185.75 77.00 185.08 77.00 111.32 C 77.00 36.91 77.00 36.91 74.50 34.40 C 72.31 32.22 71.26 31.94 66.25 32.20 C 60.86 32.48 60.40 32.71 59.00 35.73 C 57.50 38.95 57.49 38.96 49.82 38.98 C 43.01 39.00 42.06 38.77 41.50 37.01 C 40.29 33.20 38.08 32.00 32.26 32.00 C 22.08 32.00 23.00 23.37 23.00 118.65 C 23.00 200.67 23.03 202.03 25.00 204.00 C 26.52 205.52 28.33 206.00 32.50 206.00 C 36.67 206.00 38.48 205.52 40.00 204.00 Z  M 42.00 111.50 C 42.00 49.00 42.00 49.00 50.00 49.00 C 58.00 49.00 58.00 49.00 58.00 111.50 C 58.00 174.00 58.00 174.00 50.00 174.00 C 42.00 174.00 42.00 174.00 42.00 111.50 Z "/>
</g>
</svg>