<?xml version="1.0" encoding="UTF-8" standalone="no"?>
<!DOCTYPE svg PUBLIC "-//W3C//DTD SVG 1.1//EN" "http://www.w3.org/Graphics/SVG/1.1/DTD/svg11.dtd" >
<svg xmlns="http://www.w3.org/2000/svg" xmlns:xlink="http://www.w3.org/1999/xlink" version="1.1" viewBox="0 0 256 256">
 <g >
 <path fill="currentColor"
d=" M 180.88 234.06 C 183.72 232.55 189.20 221.55 188.81 218.16 C 188.51 215.62 188.25 215.51 183.00 215.64 C 160.62 216.21 110.53 216.15 106.24 215.55 C 97.04 214.26 96.58 213.43 96.00 197.00 C 95.53 183.60 95.37 182.72 93.14 180.91 C 89.64 178.08 79.23 178.21 76.09 181.13 C 73.85 183.22 73.81 183.59 74.20 200.38 C 74.55 215.88 74.81 217.96 76.94 222.34 C 80.48 229.58 84.78 231.96 97.23 233.56 C 102.88 234.28 109.08 235.09 111.00 235.35 C 118.24 236.34 178.72 235.22 180.88 234.06 Z  M 36.22 226.25 C 44.37 217.93 48.02 207.43 49.57 187.85 C 50.21 179.77 50.12 179.14 48.19 178.10 C 43.89 175.80 42.65 176.71 38.21 185.41 C 35.23 191.24 31.34 196.60 25.46 202.98 C 19.61 209.33 17.00 212.93 17.00 214.63 C 17.00 217.62 19.26 222.21 23.22 227.25 C 27.38 232.54 30.29 232.31 36.22 226.25 Z  M 233.04 220.79 C 237.09 215.19 239.33 208.00 238.06 204.65 C 235.79 198.69 222.80 188.43 208.28 181.13 C 200.93 177.43 199.60 177.31 197.63 180.11 C 196.24 182.10 196.70 183.04 205.00 195.36 C 209.87 202.59 215.59 211.87 217.71 215.99 C 223.33 226.90 227.63 228.25 233.04 220.79 Z  M 143.77 204.45 C 146.32 202.66 151.00 193.37 151.00 190.10 C 151.00 183.77 145.42 178.97 128.71 170.94 C 117.90 165.74 116.12 165.28 114.20 167.20 C 112.16 169.24 112.82 170.96 117.92 176.83 C 120.63 179.95 125.73 187.22 129.26 193.00 C 134.67 201.85 138.35 205.91 141.03 205.99 C 141.32 205.99 142.55 205.30 143.77 204.45 Z  M 91.33 167.88 C 96.98 166.02 103.37 159.89 105.97 153.86 C 108.99 146.83 110.39 130.67 108.96 119.21 C 106.61 100.28 99.53 88.68 85.18 80.26 C 80.86 77.73 80.86 77.73 92.18 73.03 C 111.18 65.15 119.00 60.51 119.00 57.14 C 119.00 54.06 109.77 47.00 105.75 47.00 C 105.01 47.00 99.94 49.97 94.48 53.59 C 79.68 63.42 60.04 72.24 29.00 83.03 C 23.77 84.84 19.12 86.66 18.65 87.06 C 18.18 87.47 18.10 89.20 18.48 90.90 C 18.96 93.09 19.74 94.00 21.14 94.00 C 23.77 94.00 44.60 88.75 59.34 84.37 C 70.98 80.92 74.06 80.67 73.94 83.22 C 73.82 86.09 48.98 103.80 30.02 114.54 C 16.34 122.29 16.35 122.27 17.73 125.30 C 18.87 127.81 18.87 127.81 29.19 124.06 C 47.10 117.54 67.36 107.68 80.19 99.24 C 84.32 96.52 85.48 96.78 86.44 100.63 C 87.26 103.87 85.15 106.28 73.00 115.95 C 61.76 124.91 46.21 135.23 30.93 143.87 C 14.22 153.32 14.55 153.05 15.39 156.43 C 16.02 158.92 16.43 159.16 19.13 158.62 C 30.34 156.38 67.77 139.08 81.95 129.59 C 86.55 126.51 90.52 124.19 90.77 124.43 C 91.62 125.29 89.03 141.05 87.56 143.88 C 85.36 148.14 77.19 151.32 66.10 152.22 C 61.19 152.62 60.18 154.86 62.56 160.13 C 63.63 162.50 65.60 165.75 66.94 167.35 C 69.39 170.25 69.39 170.25 78.44 169.70 C 83.43 169.39 89.22 168.57 91.33 167.88 Z  M 138.27 165.36 C 147.62 160.66 169.02 148.68 175.75 144.38 C 181.46 140.73 182.43 138.11 178.95 135.68 C 177.13 134.40 175.45 134.62 163.70 137.60 C 156.44 139.44 149.93 140.96 149.23 140.98 C 148.23 140.99 148.02 136.51 148.23 120.25 C 148.50 99.50 148.50 99.50 157.29 99.50 C 166.08 99.50 166.08 99.50 170.09 109.50 C 180.76 136.06 194.50 153.06 215.19 165.30 C 223.84 170.41 226.36 170.23 233.93 163.90 C 240.55 158.36 242.31 155.97 241.42 153.66 C 241.11 152.84 235.37 149.83 228.68 146.97 C 214.12 140.76 205.69 136.42 203.50 134.00 C 201.97 132.31 202.57 131.88 214.19 126.21 C 228.29 119.33 235.00 114.79 235.00 112.15 C 235.00 109.62 228.76 103.40 224.77 101.96 C 221.50 100.78 221.50 100.78 221.78 62.76 C 222.12 18.17 222.79 21.00 211.85 21.00 C 206.33 21.00 204.61 21.39 203.00 23.00 C 201.90 24.10 201.00 25.45 201.00 26.00 C 201.00 26.64 191.63 27.00 174.89 27.00 C 148.79 27.00 148.79 27.00 146.82 24.50 C 145.07 22.28 144.11 22.00 138.12 22.00 C 126.43 22.00 127.55 15.47 127.20 86.17 C 126.91 147.50 126.91 147.50 123.70 149.00 C 121.76 149.91 120.38 151.37 120.18 152.73 C 119.79 155.49 124.74 166.74 126.90 168.01 C 129.44 169.49 130.62 169.22 138.27 165.36 Z  M 53.73 69.40 C 58.33 61.37 55.39 56.43 43.13 51.62 C 39.21 50.08 36.00 48.48 36.00 48.05 C 36.00 47.62 38.98 46.97 42.63 46.60 C 46.28 46.22 52.39 45.26 56.22 44.45 C 60.04 43.65 63.57 43.24 64.06 43.54 C 64.54 43.84 66.81 47.68 69.10 52.07 C 73.56 60.66 75.27 62.23 78.68 60.94 C 81.27 59.96 85.33 51.42 84.58 48.51 C 84.30 47.41 81.71 45.18 78.82 43.57 C 72.90 40.27 71.40 41.21 93.27 34.46 C 102.76 31.53 107.00 28.92 107.00 26.01 C 107.00 23.86 98.57 16.24 95.23 15.37 C 93.63 14.95 88.26 17.04 77.00 22.47 C 66.05 27.75 54.24 32.38 39.46 37.20 C 17.89 44.22 17.89 44.22 18.20 47.36 C 18.53 50.78 18.23 50.70 27.25 49.65 C 30.42 49.28 32.92 49.32 32.81 49.74 C 32.38 51.38 43.08 71.95 45.09 73.35 C 48.09 75.45 51.04 74.10 53.73 69.40 Z  M 190.84 122.65 C 186.72 117.95 175.00 101.06 175.00 99.81 C 175.00 99.37 181.24 99.00 188.88 99.00 C 199.99 99.00 203.00 99.30 204.00 100.50 C 204.87 101.55 207.18 102.00 211.68 102.00 C 218.12 102.00 218.12 102.00 214.81 106.73 C 211.12 112.01 196.57 127.05 195.31 126.91 C 194.86 126.85 192.85 124.94 190.84 122.65 Z  M 148.00 79.00 C 148.00 69.00 148.00 69.00 174.50 69.00 C 201.00 69.00 201.00 69.00 201.00 79.00 C 201.00 89.00 201.00 89.00 174.50 89.00 C 148.00 89.00 148.00 89.00 148.00 79.00 Z  M 148.67 58.33 C 148.30 57.97 148.00 53.02 148.00 47.33 C 148.00 37.00 148.00 37.00 174.50 37.00 C 201.00 37.00 201.00 37.00 201.00 48.00 C 201.00 59.00 201.00 59.00 175.17 59.00 C 160.96 59.00 149.03 58.70 148.67 58.33 Z "/>
</g>
</svg>