<?xml version="1.0" encoding="UTF-8" standalone="no"?>
<!DOCTYPE svg PUBLIC "-//W3C//DTD SVG 1.1//EN" "http://www.w3.org/Graphics/SVG/1.1/DTD/svg11.dtd" >
<svg xmlns="http://www.w3.org/2000/svg" xmlns:xlink="http://www.w3.org/1999/xlink" version="1.1" viewBox="0 0 256 256">
 <g >
 <path fill="currentColor"
d=" M 47.00 240.00 C 48.96 238.04 49.00 236.67 49.00 168.00 C 49.00 98.00 49.00 98.00 62.50 98.00 C 71.90 98.00 76.00 98.34 76.00 99.13 C 76.00 99.76 72.81 108.84 68.91 119.32 C 65.01 129.80 61.59 139.75 61.32 141.44 C 60.90 144.03 61.69 145.60 66.40 151.50 C 77.79 165.78 80.85 175.36 77.27 185.48 C 74.92 192.10 71.15 194.58 62.07 195.49 C 57.25 195.98 54.63 196.75 53.46 198.04 C 51.88 199.79 52.00 200.23 55.47 205.95 C 60.14 213.64 61.29 214.25 68.65 212.89 C 76.79 211.39 84.17 207.67 88.51 202.86 C 94.28 196.47 95.43 192.90 95.43 181.50 C 95.43 172.73 95.10 170.78 92.72 165.64 C 91.23 162.41 88.62 158.20 86.94 156.28 C 83.55 152.42 75.89 145.60 73.35 144.18 C 71.95 143.39 72.64 141.80 78.34 132.72 C 88.94 115.84 100.00 95.43 100.00 92.77 C 100.00 89.55 97.68 87.64 91.20 85.53 C 85.18 83.57 81.42 84.09 80.50 87.00 C 79.90 88.89 78.98 89.00 64.12 89.00 C 52.79 89.00 47.88 88.64 46.60 87.70 C 45.06 86.57 47.09 85.77 62.05 81.63 C 89.36 74.07 107.06 66.78 107.81 62.78 C 108.13 61.09 103.00 55.80 98.62 53.29 C 94.82 51.11 91.25 51.88 84.28 56.37 C 71.54 64.58 57.78 70.48 32.50 78.56 C 24.25 81.20 17.11 83.69 16.62 84.10 C 16.14 84.52 16.05 86.07 16.43 87.56 C 17.09 90.19 17.27 90.25 22.80 89.75 C 28.50 89.23 28.50 89.23 28.23 163.87 C 27.95 238.50 27.95 238.50 30.09 240.25 C 33.28 242.87 44.29 242.71 47.00 240.00 Z  M 238.80 230.80 C 240.35 229.25 240.35 224.75 238.80 223.20 C 237.92 222.32 229.42 222.00 206.80 222.00 C 176.00 222.00 176.00 222.00 176.00 214.50 C 176.00 207.00 176.00 207.00 198.42 207.00 C 210.75 207.00 221.55 206.73 222.42 206.39 C 224.56 205.57 224.56 199.43 222.42 198.61 C 221.55 198.27 210.75 198.00 198.42 198.00 C 176.00 198.00 176.00 198.00 176.00 190.02 C 176.00 182.03 176.00 182.03 202.25 181.77 C 228.50 181.50 228.50 181.50 228.82 178.69 C 229.47 173.08 229.07 173.00 201.38 173.00 C 176.00 173.00 176.00 173.00 176.00 167.06 C 176.00 159.51 174.24 158.00 165.47 158.00 C 157.17 158.00 155.76 159.22 155.20 166.87 C 154.76 173.00 154.76 173.00 143.38 173.00 C 137.12 173.00 132.01 172.66 132.03 172.25 C 132.05 171.84 132.72 170.63 133.53 169.56 C 136.38 165.79 135.41 163.07 130.44 160.87 C 119.88 156.20 117.90 157.06 114.04 168.00 C 111.07 176.41 107.50 183.40 100.57 194.39 C 94.76 203.59 94.31 206.02 98.01 208.01 C 99.59 208.85 101.29 207.67 108.87 200.46 C 113.81 195.76 119.55 189.69 121.63 186.96 C 125.41 182.00 125.41 182.00 140.21 182.00 C 155.00 182.00 155.00 182.00 155.00 190.00 C 155.00 198.00 155.00 198.00 136.70 198.00 C 123.80 198.00 118.05 198.35 117.20 199.20 C 115.46 200.94 115.71 205.68 117.58 206.39 C 118.45 206.73 127.23 207.00 137.08 207.00 C 155.00 207.00 155.00 207.00 155.00 214.50 C 155.00 222.00 155.00 222.00 125.08 222.00 C 108.63 222.00 94.45 222.27 93.58 222.61 C 91.98 223.22 91.28 229.94 92.67 231.33 C 93.03 231.70 125.79 232.00 165.47 232.00 C 220.24 232.00 237.89 231.71 238.80 230.80 Z  M 203.80 152.80 C 205.54 151.06 205.29 146.32 203.42 145.61 C 202.55 145.27 185.04 145.00 164.50 145.00 C 143.96 145.00 126.45 145.27 125.58 145.61 C 123.99 146.22 123.31 151.98 124.67 153.33 C 125.03 153.70 142.72 154.00 163.97 154.00 C 192.68 154.00 202.91 153.69 203.80 152.80 Z  M 103.12 143.91 C 117.75 141.45 141.51 135.48 155.44 130.78 C 165.38 127.42 165.38 127.42 174.17 130.72 C 185.76 135.08 203.54 139.61 218.71 142.07 C 229.55 143.84 231.29 143.90 233.74 142.63 C 236.74 141.06 239.67 138.04 242.32 133.79 C 245.54 128.58 244.21 127.00 236.61 127.00 C 229.08 127.00 200.75 123.95 191.50 122.15 C 182.50 120.40 182.50 120.40 187.00 118.07 C 193.67 114.63 207.83 105.30 213.25 100.78 C 216.85 97.77 218.00 96.13 218.00 94.00 C 218.00 91.32 218.18 91.21 221.79 91.70 C 226.62 92.35 227.74 91.02 228.61 83.70 C 229.08 79.64 228.90 77.58 227.95 76.44 C 226.32 74.47 218.14 70.27 211.66 68.06 C 206.82 66.42 206.82 66.42 213.66 61.86 C 223.62 55.22 236.00 43.36 236.00 40.45 C 236.00 37.98 232.32 34.67 226.06 31.49 C 217.47 27.14 213.88 27.65 211.40 33.58 C 209.97 37.00 209.97 37.00 173.24 36.98 C 138.27 36.96 136.60 36.87 138.63 35.23 C 143.38 31.38 144.46 24.98 140.75 22.60 C 137.96 20.82 117.92 14.17 112.90 13.37 C 109.77 12.87 109.01 13.12 108.02 14.97 C 106.96 16.95 107.42 17.78 112.71 23.33 C 118.36 29.27 123.00 35.16 123.00 36.40 C 123.00 36.73 106.35 37.00 86.00 37.00 C 49.00 37.00 49.00 37.00 49.00 31.04 C 49.00 26.16 48.65 24.88 47.07 24.04 C 42.93 21.82 41.55 22.77 37.79 30.36 C 35.79 34.41 30.97 41.70 27.08 46.55 C 18.99 56.62 18.53 58.67 22.93 64.74 C 30.01 74.51 36.73 74.50 42.40 64.70 C 44.61 60.90 45.52 58.16 47.42 49.75 C 48.04 47.00 48.04 47.00 127.02 47.00 C 170.46 47.00 206.00 47.29 206.00 47.65 C 206.00 48.00 204.42 51.56 202.50 55.57 C 200.57 59.57 199.00 63.33 199.00 63.92 C 199.00 65.44 198.72 65.39 183.16 61.57 C 164.62 57.02 148.30 54.29 147.10 55.53 C 146.59 56.06 146.02 57.32 145.83 58.32 C 145.55 59.85 148.50 61.25 164.00 66.93 C 185.48 74.81 196.77 79.30 201.87 81.99 C 205.30 83.80 205.36 83.91 202.90 83.96 C 201.48 83.98 199.50 84.90 198.50 86.00 C 196.78 87.90 195.42 88.00 171.85 88.00 C 158.18 88.00 147.00 87.62 147.00 87.15 C 147.00 86.69 147.90 85.50 149.00 84.50 C 150.12 83.48 151.00 81.42 151.00 79.79 C 151.00 77.30 150.34 76.60 146.34 74.83 C 143.78 73.69 140.01 72.54 137.96 72.27 C 134.32 71.78 134.13 71.92 129.95 78.13 C 123.13 88.26 113.61 99.26 104.47 107.56 C 96.08 115.18 94.67 117.65 97.43 119.94 C 99.20 121.41 110.12 116.60 120.94 109.61 C 124.86 107.07 128.44 105.00 128.91 105.00 C 129.37 105.00 130.37 105.75 131.13 106.67 C 131.88 107.59 136.26 110.77 140.85 113.74 C 145.44 116.71 149.03 119.31 148.82 119.52 C 148.61 119.72 143.19 121.95 136.79 124.45 C 124.13 129.40 106.30 134.77 93.25 137.57 C 85.42 139.25 85.00 139.48 85.00 142.00 C 85.00 146.81 85.57 146.87 103.12 143.91 Z  M 157.50 112.85 C 135.62 100.94 133.72 99.68 135.56 98.33 C 136.96 97.31 143.01 97.00 161.69 97.00 C 175.06 97.00 186.00 97.40 186.00 97.88 C 186.00 100.14 164.32 114.04 160.92 113.97 C 160.14 113.95 158.60 113.45 157.50 112.85 Z "/>
</g>
</svg>