<?xml version="1.0" encoding="UTF-8" standalone="no"?>
<!DOCTYPE svg PUBLIC "-//W3C//DTD SVG 1.1//EN" "http://www.w3.org/Graphics/SVG/1.1/DTD/svg11.dtd" >
<svg xmlns="http://www.w3.org/2000/svg" xmlns:xlink="http://www.w3.org/1999/xlink" version="1.1" viewBox="0 0 256 256">
 <g >
 <path fill="currentColor"
d=" M 164.07 240.96 C 165.91 239.98 166.00 238.57 166.00 210.46 C 166.00 181.00 166.00 181.00 199.80 181.00 C 235.91 181.00 236.00 180.99 236.00 176.00 C 236.00 171.01 235.91 171.00 199.78 171.00 C 165.97 171.00 165.97 171.00 166.23 146.25 C 166.50 121.50 166.50 121.50 200.50 121.00 C 234.50 120.50 234.50 120.50 234.80 117.38 C 235.43 110.99 235.48 111.00 198.93 111.00 C 166.00 111.00 166.00 111.00 166.00 87.50 C 166.00 64.00 166.00 64.00 201.57 64.00 C 224.17 64.00 237.84 63.62 239.07 62.96 C 241.28 61.78 241.75 56.15 239.80 54.20 C 238.90 53.30 226.76 53.00 191.30 53.00 C 165.28 53.00 144.00 52.77 144.00 52.50 C 144.00 52.22 146.20 47.61 148.88 42.25 C 151.56 36.89 154.30 30.80 154.97 28.71 C 156.80 22.97 154.86 20.78 145.01 17.50 C 133.82 13.78 133.75 13.84 127.72 32.61 C 120.72 54.40 115.08 68.23 104.72 89.00 C 95.50 107.50 95.50 107.50 95.00 71.85 C 94.41 29.77 95.03 32.00 83.92 32.00 C 76.44 32.00 74.00 33.37 74.00 37.57 C 74.00 40.00 74.00 40.00 60.07 40.00 C 47.03 40.00 46.09 39.87 45.50 38.01 C 44.20 33.92 42.18 33.00 34.49 33.00 C 28.00 33.00 26.93 33.27 25.56 35.22 C 24.18 37.19 24.00 47.34 24.00 124.65 C 24.00 202.60 24.17 212.02 25.57 213.43 C 26.72 214.58 29.15 215.00 34.57 215.00 C 45.61 215.00 46.00 214.41 46.00 198.00 C 46.00 185.00 46.00 185.00 60.00 185.00 C 74.00 185.00 74.00 185.00 74.00 195.46 C 74.00 207.86 74.12 208.00 84.88 208.00 C 95.73 208.00 95.00 211.67 95.00 157.25 C 95.00 110.95 95.00 110.95 97.57 112.64 C 100.15 114.33 100.15 114.33 106.76 107.41 C 115.40 98.39 126.27 83.66 132.37 72.73 C 136.74 64.91 137.54 64.00 140.12 64.00 C 143.00 64.00 143.00 64.00 143.00 150.37 C 143.00 251.57 141.78 242.00 154.64 242.00 C 158.76 242.00 163.00 241.53 164.07 240.96 Z  M 46.00 113.00 C 46.00 50.00 46.00 50.00 60.00 50.00 C 74.00 50.00 74.00 50.00 74.00 113.00 C 74.00 176.00 74.00 176.00 60.00 176.00 C 46.00 176.00 46.00 176.00 46.00 113.00 Z "/>
</g>
</svg>