<?xml version="1.0" encoding="UTF-8" standalone="no"?>
<!DOCTYPE svg PUBLIC "-//W3C//DTD SVG 1.1//EN" "http://www.w3.org/Graphics/SVG/1.1/DTD/svg11.dtd" >
<svg xmlns="http://www.w3.org/2000/svg" xmlns:xlink="http://www.w3.org/1999/xlink" version="1.1" viewBox="0 0 256 256">
 <g >
 <path fill="currentColor"
d=" M 122.46 229.05 C 142.49 219.18 155.26 217.47 202.21 218.33 C 239.38 219.01 239.00 219.06 239.00 212.90 C 239.00 205.99 232.75 197.32 225.74 194.51 C 221.96 192.99 218.80 192.89 196.75 193.53 C 172.00 194.25 172.00 194.25 172.01 188.88 C 172.02 185.92 172.30 181.84 172.63 179.82 C 173.28 175.90 174.97 174.76 182.00 173.49 C 187.94 172.42 197.95 168.90 199.52 167.34 C 203.36 163.49 199.71 155.49 192.51 152.01 C 187.85 149.75 182.05 149.60 175.25 151.58 C 173.03 152.22 173.00 152.11 173.00 142.74 C 173.00 133.24 173.00 133.24 177.25 132.19 C 179.59 131.61 185.32 130.87 190.00 130.53 C 203.91 129.54 206.60 129.02 208.85 126.92 C 212.76 123.28 211.74 119.42 205.16 112.84 C 198.23 105.91 197.10 105.74 183.96 109.68 C 179.04 111.15 174.73 112.07 174.39 111.72 C 174.04 111.37 174.15 107.63 174.63 103.40 C 175.50 95.72 175.50 95.72 187.46 92.36 C 194.04 90.51 200.92 89.00 202.76 89.00 C 205.68 89.00 206.30 88.52 207.68 85.25 C 212.22 74.43 198.26 63.51 184.10 66.79 C 181.57 67.38 178.82 68.12 178.00 68.44 C 176.70 68.95 176.54 67.13 176.83 54.86 C 177.23 37.65 176.23 34.19 169.15 28.22 C 161.58 21.84 154.92 18.00 151.43 18.00 C 145.20 18.00 144.08 22.68 146.93 36.66 C 148.44 44.07 149.00 50.59 149.00 60.75 C 149.00 74.68 149.00 74.68 140.25 77.30 C 135.44 78.73 129.74 80.36 127.59 80.92 C 122.79 82.16 118.00 86.56 118.00 89.74 C 118.00 91.03 119.89 94.77 122.19 98.04 C 125.37 102.55 127.41 104.37 130.68 105.62 C 134.80 107.20 136.58 107.17 144.75 105.44 C 147.82 104.79 148.00 104.91 147.99 107.62 C 147.98 109.21 147.71 112.11 147.39 114.08 C 146.79 117.66 146.79 117.66 129.82 122.52 C 115.47 126.64 112.48 127.83 110.43 130.27 C 109.09 131.86 107.99 134.13 107.97 135.33 C 107.93 137.50 107.93 137.50 106.07 135.26 C 102.91 131.48 99.75 130.87 91.92 132.52 C 88.04 133.33 84.67 134.00 84.43 134.00 C 84.20 134.00 84.00 129.55 84.00 124.11 C 84.00 114.22 84.00 114.22 87.75 113.56 C 89.81 113.19 92.29 112.66 93.25 112.38 C 95.82 111.63 99.34 104.81 103.03 93.50 C 105.90 84.66 107.56 80.90 112.84 71.29 C 113.95 69.27 113.96 68.30 112.87 65.68 C 110.07 58.89 96.17 47.00 91.03 47.00 C 89.89 47.00 87.00 48.80 84.62 51.00 C 80.28 55.00 80.28 55.00 69.55 55.00 C 62.03 55.00 56.44 54.39 50.81 52.95 C 43.48 51.08 42.59 51.04 40.42 52.46 C 33.62 56.91 32.67 68.22 38.07 80.42 C 39.11 82.77 41.12 91.31 42.53 99.38 C 45.39 115.73 47.49 121.67 51.53 124.85 C 55.09 127.64 55.64 127.58 58.65 124.00 C 60.04 122.35 61.70 121.00 62.34 121.00 C 63.19 121.01 63.50 128.82 63.50 150.66 C 63.50 180.30 63.50 180.30 59.00 182.24 C 48.93 186.59 50.02 188.58 50.27 166.22 C 50.53 143.68 50.50 143.54 42.17 135.76 C 36.21 130.18 33.35 129.25 29.06 131.47 C 25.09 133.52 24.33 135.46 25.94 139.40 C 28.59 145.91 30.05 154.08 31.56 171.00 C 32.41 180.62 33.20 189.40 33.31 190.50 C 33.45 191.99 31.46 193.83 25.50 197.70 C 13.47 205.51 13.00 205.91 13.00 208.35 C 13.00 214.67 25.11 230.00 30.11 230.00 C 31.15 230.00 34.13 228.47 36.75 226.61 C 43.80 221.58 66.45 208.95 83.64 200.46 C 99.39 192.68 104.11 188.97 106.93 182.18 C 108.14 179.25 108.10 178.67 106.61 177.18 C 104.73 175.30 94.75 174.86 87.25 176.34 C 83.00 177.18 83.00 177.18 83.02 166.84 C 83.02 161.15 83.36 155.98 83.77 155.35 C 84.17 154.72 90.52 153.08 97.88 151.71 C 105.24 150.33 111.59 148.67 111.99 148.01 C 112.55 147.10 113.49 147.20 115.82 148.41 C 120.06 150.60 122.61 150.40 129.00 147.38 C 134.63 144.73 144.64 141.00 146.16 141.00 C 147.20 141.00 147.29 156.71 146.25 157.34 C 145.84 157.59 141.90 158.34 137.50 159.00 C 133.10 159.66 128.43 160.40 127.12 160.65 C 123.70 161.30 119.00 166.37 119.00 169.40 C 119.00 174.04 122.07 179.98 125.37 181.75 C 128.62 183.49 138.07 183.97 143.25 182.66 C 146.00 181.96 146.00 181.96 146.00 190.01 C 146.00 195.60 145.62 198.17 144.75 198.42 C 142.98 198.92 100.02 209.12 97.00 209.75 C 95.62 210.04 93.26 210.90 91.75 211.67 C 86.29 214.42 88.94 222.14 97.32 227.85 C 101.01 230.37 108.77 233.70 111.46 233.92 C 111.98 233.96 116.93 231.77 122.46 229.05 Z  M 64.58 94.75 C 63.67 91.58 62.00 79.91 62.00 76.71 C 62.00 73.57 62.38 73.03 65.25 72.14 C 67.04 71.57 71.51 70.82 75.19 70.45 C 81.87 69.78 81.87 69.78 80.60 75.14 C 75.16 98.14 76.22 96.00 70.29 96.00 C 66.86 96.00 64.81 95.55 64.58 94.75 Z "/>
</g>
</svg>