<?xml version="1.0" encoding="UTF-8" standalone="no"?>
<!DOCTYPE svg PUBLIC "-//W3C//DTD SVG 1.1//EN" "http://www.w3.org/Graphics/SVG/1.1/DTD/svg11.dtd" >
<svg xmlns="http://www.w3.org/2000/svg" xmlns:xlink="http://www.w3.org/1999/xlink" version="1.1" viewBox="0 0 256 256">
 <g >
 <path fill="currentColor"
d=" M 97.62 233.19 C 113.69 225.07 135.81 208.02 145.57 196.21 C 153.87 186.17 156.55 179.67 160.27 160.53 C 163.15 145.73 163.70 143.97 165.40 144.22 C 166.92 144.44 167.83 146.66 170.06 155.50 C 173.49 169.16 176.27 176.59 182.98 190.00 C 192.01 208.06 198.76 216.01 217.27 230.39 C 226.04 237.20 226.04 237.20 229.95 233.67 C 234.01 229.99 239.19 228.02 244.75 228.01 C 246.83 228.00 248.00 227.51 248.00 226.63 C 248.00 225.78 244.17 224.06 237.75 222.04 C 216.17 215.23 206.64 208.30 195.05 190.95 C 185.54 176.72 181.40 168.81 177.11 156.67 C 172.13 142.53 168.42 144.00 209.03 144.00 C 249.72 144.00 248.66 144.30 239.89 135.35 C 236.92 132.32 233.71 129.42 232.75 128.89 C 230.39 127.60 227.92 129.04 224.92 133.44 C 222.72 136.66 222.07 136.99 217.75 136.99 C 213.00 137.00 213.00 137.00 213.00 108.14 C 213.00 79.27 213.00 79.27 217.00 76.50 C 219.20 74.98 221.00 73.12 221.00 72.38 C 221.00 70.47 209.92 62.00 207.42 62.00 C 206.10 62.00 204.16 63.65 202.09 66.52 C 198.84 71.05 198.84 71.05 182.67 70.77 C 166.50 70.50 166.50 70.50 166.81 49.50 C 167.10 29.95 167.25 28.40 169.09 27.00 C 175.93 21.81 175.61 22.24 174.00 20.61 C 173.18 19.77 168.04 17.47 162.58 15.50 C 154.83 12.70 152.49 12.20 151.85 13.21 C 150.69 15.04 150.79 15.58 152.57 17.05 C 156.61 20.41 157.00 23.07 157.00 47.45 C 157.00 71.00 157.00 71.00 141.66 71.00 C 126.31 71.00 126.31 71.00 120.01 66.93 C 113.70 62.85 113.70 62.85 111.64 64.91 C 109.58 66.97 109.58 66.97 112.91 70.41 C 115.05 72.62 116.54 75.38 117.08 78.17 C 117.54 80.55 117.93 94.76 117.96 109.75 C 118.00 137.00 118.00 137.00 102.76 137.00 C 87.52 137.00 87.52 137.00 92.56 142.04 C 97.60 147.08 97.60 147.08 103.51 145.54 C 107.96 144.38 114.82 144.00 131.21 144.00 C 156.53 144.00 154.29 142.47 150.97 157.50 C 147.76 172.06 145.13 178.68 138.68 188.36 C 132.25 198.03 117.52 213.52 107.50 221.16 C 100.75 226.30 85.99 234.98 79.38 237.70 C 75.33 239.37 74.14 240.80 75.59 242.26 C 76.23 242.90 87.92 238.09 97.62 233.19 Z  M 23.85 229.35 C 42.44 213.83 59.66 191.51 71.44 167.67 C 78.36 153.69 87.11 129.44 90.56 114.72 C 92.00 108.55 93.35 102.96 93.55 102.29 C 93.74 101.63 96.18 99.93 98.95 98.52 C 103.82 96.06 104.80 94.67 103.23 92.47 C 101.34 89.79 92.99 83.95 90.31 83.41 C 87.69 82.89 86.92 83.32 84.07 86.91 C 80.83 91.00 80.83 91.00 66.92 91.00 C 59.26 91.00 53.00 90.80 53.00 90.57 C 53.00 90.33 53.50 88.86 54.10 87.32 C 54.71 85.77 57.32 75.95 59.92 65.50 C 64.63 46.50 64.63 46.50 88.05 46.00 C 108.44 45.56 111.51 45.29 111.78 43.91 C 112.13 42.11 99.73 30.00 97.55 30.00 C 96.79 30.00 94.39 32.03 92.21 34.50 C 88.25 39.00 88.25 39.00 50.39 39.00 C 12.53 39.00 12.53 39.00 17.18 43.65 C 21.83 48.31 21.83 48.31 26.17 47.11 C 28.75 46.39 35.20 46.03 42.10 46.20 C 53.71 46.50 53.71 46.50 49.87 64.50 C 42.62 98.45 37.50 111.98 22.05 138.00 C 17.65 145.40 16.23 148.63 17.00 149.40 C 17.75 150.15 18.30 150.16 18.79 149.44 C 23.73 142.14 36.64 126.00 37.54 126.00 C 38.19 126.00 40.74 128.15 43.20 130.79 C 46.64 134.46 48.46 137.75 51.01 144.89 C 53.49 151.81 54.94 154.47 56.67 155.26 C 60.10 156.82 63.00 153.87 63.00 148.81 C 63.00 141.43 58.03 134.96 45.50 125.98 C 42.20 123.62 39.37 121.59 39.22 121.48 C 39.06 121.36 40.92 117.20 43.34 112.22 C 45.76 107.24 48.23 101.78 48.82 100.08 C 49.90 97.00 49.90 97.00 66.58 97.00 C 86.01 97.00 84.77 94.01 77.50 123.55 C 71.39 148.38 65.17 163.21 50.47 187.97 C 41.39 203.27 33.91 212.80 21.11 225.38 C 10.93 235.38 9.10 238.01 12.31 237.99 C 12.96 237.99 18.16 234.10 23.85 229.35 Z  M 126.00 107.50 C 126.00 78.00 126.00 78.00 141.50 78.00 C 157.00 78.00 157.00 78.00 157.00 85.63 C 157.00 95.07 155.09 131.68 154.44 134.75 C 153.97 136.95 153.67 137.00 139.98 137.00 C 126.00 137.00 126.00 137.00 126.00 107.50 Z  M 164.74 118.75 C 164.87 108.71 165.25 95.44 165.59 89.25 C 166.20 78.00 166.20 78.00 185.10 78.00 C 204.00 78.00 204.00 78.00 204.00 107.50 C 204.00 137.00 204.00 137.00 184.25 137.00 C 164.50 137.00 164.50 137.00 164.74 118.75 Z "/>
</g>
</svg>