<?xml version="1.0" encoding="UTF-8" standalone="no"?>
<!DOCTYPE svg PUBLIC "-//W3C//DTD SVG 1.1//EN" "http://www.w3.org/Graphics/SVG/1.1/DTD/svg11.dtd" >
<svg xmlns="http://www.w3.org/2000/svg" xmlns:xlink="http://www.w3.org/1999/xlink" version="1.1" viewBox="0 0 256 256">
 <g >
 <path fill="currentColor"
d=" M 36.04 138.70 C 35.93 40.00 35.93 40.00 55.46 40.00 C 70.42 40.00 75.00 40.29 75.01 41.25 C 75.02 41.94 70.55 51.72 65.09 63.00 C 59.62 74.28 54.89 84.42 54.58 85.54 C 54.15 87.03 55.37 89.19 59.09 93.54 C 70.59 107.00 77.02 118.78 79.58 131.04 C 81.38 139.69 80.80 144.77 77.33 150.81 C 72.63 158.97 67.36 160.34 51.53 157.56 C 47.15 156.78 43.21 156.37 42.78 156.64 C 40.98 157.75 42.31 159.16 47.25 161.39 C 52.30 163.67 61.00 171.04 61.00 173.04 C 61.00 175.08 65.29 173.82 73.14 169.48 C 82.04 164.56 82.75 163.89 86.77 156.50 C 89.23 151.98 89.50 150.53 89.46 141.50 C 89.44 133.50 88.97 130.36 87.16 125.79 C 84.08 118.05 76.88 107.24 67.07 95.64 C 58.89 85.97 58.89 85.97 67.12 72.24 C 71.64 64.68 77.73 54.85 80.64 50.40 C 85.69 42.66 86.19 42.21 91.65 40.50 C 97.37 38.70 97.37 38.70 89.70 31.35 C 85.48 27.30 81.16 24.00 80.07 24.00 C 78.96 24.00 76.46 25.96 74.34 28.50 C 70.58 33.00 70.58 33.00 53.40 33.00 C 36.23 33.00 36.23 33.00 30.56 28.34 C 25.56 24.22 24.73 23.84 23.42 25.15 C 22.11 26.46 22.29 27.48 25.03 33.91 C 28.13 41.19 28.13 41.19 27.64 136.84 C 27.37 189.45 26.84 234.63 26.47 237.24 C 25.80 241.97 25.80 241.97 30.98 239.69 C 36.15 237.41 36.15 237.41 36.04 138.70 Z  M 221.09 233.42 C 223.68 232.11 223.68 232.11 223.20 201.65 C 222.73 171.18 222.73 171.18 226.93 169.04 C 233.20 165.84 232.09 164.27 220.50 159.97 C 215.00 157.93 210.16 156.45 209.75 156.69 C 208.31 157.51 209.02 160.39 211.25 162.76 C 213.45 165.10 213.51 165.77 213.80 191.08 C 214.09 217.00 214.09 217.00 188.54 217.00 C 162.98 217.00 162.98 217.00 163.24 174.25 C 163.50 131.50 163.50 131.50 201.25 131.24 C 233.26 131.02 239.00 130.76 239.00 129.54 C 239.00 127.49 226.79 115.00 224.78 115.00 C 223.86 115.00 221.41 117.03 219.34 119.50 C 215.58 124.00 215.58 124.00 189.29 124.00 C 163.00 124.00 163.00 124.00 163.00 98.00 C 163.00 72.00 163.00 72.00 194.25 71.98 C 211.44 71.98 226.10 71.59 226.83 71.12 C 227.82 70.50 226.43 68.73 221.53 64.39 C 211.86 55.81 211.79 55.79 206.15 61.35 C 201.39 66.05 201.39 66.05 182.44 65.77 C 163.50 65.50 163.50 65.50 163.50 47.59 C 163.50 29.68 163.50 29.68 166.71 28.59 C 174.93 25.80 173.32 23.07 160.80 18.57 C 153.07 15.80 150.43 15.23 149.37 16.10 C 147.80 17.41 147.53 20.00 148.96 20.00 C 149.49 20.00 151.07 21.68 152.46 23.73 C 154.96 27.41 155.00 27.75 155.00 46.73 C 155.00 66.00 155.00 66.00 124.76 66.00 C 94.53 66.00 94.53 66.00 99.25 70.72 C 103.96 75.43 103.99 75.44 107.24 73.99 C 109.70 72.90 115.99 72.46 132.75 72.23 C 155.00 71.93 155.00 71.93 155.00 97.96 C 155.00 124.00 155.00 124.00 122.46 124.00 C 86.12 124.00 88.50 123.41 94.78 130.85 C 97.61 134.19 97.61 134.19 102.98 132.60 C 107.24 131.33 113.24 131.00 131.68 131.00 C 155.00 131.00 155.00 131.00 155.00 174.00 C 155.00 217.00 155.00 217.00 133.00 217.00 C 111.00 217.00 111.00 217.00 111.00 194.60 C 111.00 172.20 111.00 172.20 114.50 170.13 C 116.42 169.00 118.00 167.42 118.00 166.64 C 118.00 165.23 101.64 158.00 98.46 158.00 C 95.58 158.00 95.66 161.04 98.62 164.12 C 101.50 167.13 101.50 167.13 101.84 190.88 C 102.18 214.63 102.18 214.63 98.59 217.36 C 96.62 218.87 95.00 220.67 95.00 221.36 C 95.00 223.32 105.81 232.18 107.76 231.82 C 108.72 231.64 110.40 229.60 111.50 227.29 C 113.50 223.07 113.50 223.07 163.89 223.04 C 214.29 223.00 214.29 223.00 213.68 229.51 C 213.07 236.02 213.07 236.02 215.79 235.37 C 217.28 235.01 219.67 234.13 221.09 233.42 Z "/>
</g>
</svg>