<?xml version="1.0" encoding="UTF-8" standalone="no"?>
<!DOCTYPE svg PUBLIC "-//W3C//DTD SVG 1.1//EN" "http://www.w3.org/Graphics/SVG/1.1/DTD/svg11.dtd" >
<svg xmlns="http://www.w3.org/2000/svg" xmlns:xlink="http://www.w3.org/1999/xlink" version="1.1" viewBox="0 0 256 256">
 <g >
 <path fill="currentColor"
d=" M 220.68 228.00 C 221.46 224.97 221.80 221.38 221.45 220.00 C 221.10 218.62 220.87 197.34 220.94 172.71 C 221.01 148.07 220.78 126.33 220.41 124.38 C 219.81 121.18 219.51 120.91 217.16 121.50 C 213.51 122.41 198.39 121.01 196.43 119.57 C 194.92 118.47 194.91 117.88 196.37 112.20 C 197.24 108.81 199.08 103.80 200.46 101.08 C 202.83 96.41 203.24 96.09 207.73 95.49 C 210.36 95.14 213.00 94.70 213.62 94.51 C 215.28 94.00 216.30 88.90 215.01 87.61 C 214.35 86.95 207.50 86.25 198.20 85.88 C 179.02 85.11 152.13 83.47 125.50 81.42 C 96.13 79.17 93.41 79.16 91.29 81.31 C 89.57 83.05 89.57 83.18 91.33 84.48 C 92.33 85.22 96.83 86.10 101.33 86.42 C 136.09 88.94 135.38 88.78 133.28 93.76 C 132.64 95.27 130.43 100.63 128.37 105.68 C 125.68 112.28 124.04 115.02 122.56 115.42 C 119.53 116.23 99.26 116.01 93.74 115.10 C 90.15 114.51 88.70 114.66 87.83 115.70 C 87.00 116.70 86.65 131.08 86.55 167.29 C 86.48 194.91 86.61 218.96 86.84 220.75 C 87.15 223.11 87.78 224.00 89.13 224.00 C 90.16 224.00 91.02 223.44 91.04 222.75 C 91.07 222.06 91.05 199.62 91.00 172.87 C 90.92 128.87 91.07 124.19 92.54 123.62 C 97.30 121.80 119.87 123.49 120.73 125.74 C 121.23 127.03 118.98 134.99 112.79 153.94 C 111.63 157.48 109.42 162.43 107.88 164.94 C 105.32 169.08 102.57 177.12 101.27 184.25 C 100.86 186.51 101.13 187.00 102.79 187.00 C 107.11 187.00 116.93 173.16 127.45 152.25 C 130.05 147.08 132.73 143.00 133.53 143.00 C 135.88 143.00 137.89 147.17 140.09 156.58 C 141.23 161.49 143.08 168.09 144.20 171.25 C 146.72 178.36 148.72 178.70 152.85 172.75 C 154.47 170.41 157.18 167.19 158.87 165.59 C 161.63 162.98 162.01 162.86 162.63 164.47 C 163.00 165.45 162.82 167.66 162.23 169.38 C 159.05 178.51 154.80 197.20 155.69 198.09 C 157.51 199.91 159.93 197.83 162.90 191.89 C 164.52 188.63 166.75 184.51 167.84 182.74 C 168.94 180.96 170.75 176.77 171.87 173.42 C 172.99 170.08 175.73 163.58 177.95 158.98 C 180.18 154.37 182.00 150.02 182.00 149.30 C 182.00 146.98 184.02 147.92 185.10 150.75 C 185.68 152.26 187.60 159.12 189.37 165.99 C 191.67 174.91 193.05 178.58 194.18 178.80 C 195.12 178.98 197.38 177.11 199.62 174.30 C 201.74 171.66 205.39 167.31 207.73 164.64 C 214.21 157.26 213.94 156.56 201.77 149.58 C 197.76 147.28 192.96 143.48 190.76 140.87 C 186.91 136.28 186.89 136.21 188.35 132.70 C 189.17 130.75 190.72 128.68 191.81 128.10 C 194.45 126.69 212.73 127.88 214.43 129.57 C 216.60 131.74 218.01 181.24 216.01 184.99 C 215.46 186.01 213.32 187.38 211.26 188.05 C 209.19 188.71 202.24 191.67 195.81 194.63 C 189.38 197.58 183.24 200.00 182.18 200.00 C 181.12 200.00 179.68 200.68 178.98 201.52 C 177.29 203.56 179.52 205.99 186.89 210.09 C 189.98 211.81 194.56 214.93 197.08 217.02 C 199.59 219.11 203.64 221.78 206.08 222.95 C 212.07 225.82 214.77 228.22 215.57 231.42 C 216.66 235.78 219.11 234.15 220.68 228.00 Z  M 61.63 231.79 C 62.04 231.12 62.52 207.38 62.70 179.04 C 63.05 121.44 64.04 98.10 66.37 92.90 C 67.79 89.72 88.00 68.38 99.75 57.66 C 106.97 51.06 105.92 49.29 90.50 42.06 C 85.55 39.74 80.49 37.35 79.26 36.76 C 76.23 35.29 73.00 38.16 73.00 42.31 C 73.00 43.96 71.89 46.77 70.52 48.56 C 69.16 50.35 64.44 58.87 60.03 67.50 C 55.63 76.12 50.68 84.87 49.05 86.94 C 45.98 90.81 41.00 100.01 41.00 101.79 C 41.00 102.35 39.39 105.18 37.43 108.10 C 35.47 111.02 31.88 117.36 29.45 122.20 C 25.81 129.47 25.34 130.99 26.77 130.96 C 29.14 130.91 34.67 125.78 40.72 118.00 C 47.87 108.83 57.87 99.47 59.16 100.76 C 59.85 101.45 59.85 106.34 59.13 116.14 C 57.60 137.06 56.88 227.94 58.23 231.25 C 59.05 233.28 60.56 233.52 61.63 231.79 Z  M 153.50 146.00 C 142.47 139.10 138.00 135.18 138.00 132.39 C 138.00 131.57 138.72 129.51 139.59 127.82 C 141.19 124.74 141.19 124.74 156.84 125.46 C 165.45 125.86 172.68 126.37 172.91 126.58 C 173.46 127.13 169.06 145.72 167.42 149.75 C 166.70 151.54 165.74 152.97 165.30 152.94 C 164.86 152.90 159.55 149.78 153.50 146.00 Z  M 157.78 118.09 C 153.44 117.71 150.47 116.90 149.37 115.80 C 147.78 114.21 147.94 113.67 152.00 106.80 C 154.38 102.79 157.04 98.06 157.91 96.29 C 160.02 92.03 163.65 90.87 172.38 91.64 C 180.07 92.32 182.33 93.37 181.54 95.89 C 181.26 96.78 180.13 101.72 179.02 106.89 C 177.92 112.05 176.51 116.89 175.89 117.64 C 174.70 119.07 170.12 119.18 157.78 118.09 Z "/>
</g>
</svg>