<?xml version="1.0" encoding="UTF-8" standalone="no"?>
<!DOCTYPE svg PUBLIC "-//W3C//DTD SVG 1.1//EN" "http://www.w3.org/Graphics/SVG/1.1/DTD/svg11.dtd" >
<svg xmlns="http://www.w3.org/2000/svg" xmlns:xlink="http://www.w3.org/1999/xlink" version="1.1" viewBox="0 0 256 256">
 <g >
 <path fill="currentColor"
d=" M 226.24 238.35 C 227.66 237.47 227.00 231.51 225.14 228.50 C 224.12 226.85 220.13 221.31 216.28 216.19 C 212.42 211.07 205.95 200.79 201.91 193.34 C 197.87 185.89 193.16 177.70 191.45 175.15 C 189.74 172.59 184.82 165.33 180.52 159.01 C 172.01 146.51 169.34 141.26 170.77 139.83 C 171.26 139.34 184.68 138.70 200.59 138.41 C 236.72 137.77 236.00 137.86 236.00 133.65 C 236.00 131.86 235.46 129.86 234.80 129.20 C 233.91 128.31 224.31 128.00 197.80 128.00 C 162.03 128.00 162.00 128.00 162.00 125.89 C 162.00 124.25 181.80 84.28 183.73 82.00 C 183.97 81.72 190.80 81.28 198.93 81.00 C 215.05 80.45 217.34 79.70 216.80 75.09 C 216.50 72.51 216.46 72.50 204.93 71.92 C 192.87 71.32 191.00 70.85 191.00 68.43 C 191.00 66.19 203.20 42.35 208.91 33.44 C 214.59 24.58 215.13 21.79 211.60 19.47 C 208.76 17.61 185.58 12.56 183.52 13.35 C 181.33 14.20 178.21 21.03 172.29 38.00 C 169.31 46.53 164.93 57.61 162.56 62.64 C 158.24 71.77 158.24 71.77 150.21 72.48 C 140.39 73.35 138.00 72.74 138.00 69.35 C 138.00 66.75 141.36 56.22 145.70 45.18 C 147.07 41.70 147.97 38.63 147.69 38.36 C 146.68 37.35 125.50 36.28 124.90 37.20 C 123.87 38.79 121.11 55.89 119.53 70.50 C 118.69 78.20 117.35 87.65 116.54 91.50 C 114.58 100.88 112.85 121.91 113.89 123.77 C 115.08 125.90 115.74 124.60 120.56 110.50 C 122.82 103.90 125.58 96.70 126.69 94.50 C 127.81 92.30 129.04 89.15 129.44 87.51 C 130.69 82.33 131.46 82.00 142.37 82.02 C 153.70 82.03 155.56 82.66 154.68 86.14 C 152.60 94.33 140.16 128.29 138.96 129.05 C 138.16 129.55 133.22 129.98 128.00 129.99 C 116.39 130.02 111.29 131.28 109.82 134.50 C 107.63 139.29 108.92 139.91 121.68 140.22 C 133.35 140.50 133.46 140.52 134.37 143.09 C 135.43 146.11 133.50 152.94 123.95 180.00 C 120.55 189.62 116.74 200.88 115.48 205.00 C 114.22 209.12 112.03 215.20 110.62 218.50 C 107.40 226.02 107.19 230.00 110.02 230.00 C 112.05 230.00 112.61 229.07 114.96 221.68 C 115.63 219.59 117.95 214.79 120.12 211.03 C 122.29 207.27 125.22 201.34 126.63 197.85 C 128.04 194.36 129.64 190.96 130.19 190.29 C 130.73 189.62 133.06 184.45 135.36 178.79 C 137.65 173.13 141.61 164.68 144.14 160.00 C 146.67 155.32 150.04 149.03 151.62 146.00 C 153.21 142.97 154.95 140.63 155.50 140.78 C 157.11 141.23 159.79 150.31 163.54 167.98 C 165.46 177.07 169.10 194.18 171.61 206.00 C 174.13 217.82 176.71 229.97 177.35 233.00 C 178.50 238.50 178.50 238.50 198.50 239.06 C 217.47 239.59 224.53 239.41 226.24 238.35 Z  M 40.00 222.25 C 45.67 218.77 68.08 201.82 79.67 192.24 C 86.50 186.60 94.27 180.88 96.94 179.53 C 101.84 177.05 106.00 172.86 106.00 170.40 C 106.00 168.73 102.85 167.00 99.81 167.00 C 98.53 167.00 92.65 169.75 86.73 173.10 C 80.81 176.46 75.36 178.97 74.63 178.69 C 72.68 177.94 72.00 173.22 72.00 160.39 C 72.00 149.04 72.00 149.04 74.59 148.39 C 76.01 148.03 80.42 148.03 84.39 148.39 C 91.09 149.00 91.76 148.88 93.80 146.71 C 95.75 144.64 95.84 144.16 94.58 142.44 C 93.39 140.80 91.55 140.42 82.83 140.00 C 72.50 139.50 72.50 139.50 72.22 126.40 C 71.99 115.27 72.19 113.09 73.58 111.94 C 74.68 111.02 79.17 110.45 87.56 110.17 C 104.12 109.62 103.39 110.56 103.16 90.23 C 102.91 68.00 101.94 54.19 100.55 53.04 C 99.11 51.85 87.34 50.54 63.58 48.93 C 46.14 47.74 45.61 47.76 44.05 49.70 C 42.64 51.43 42.45 55.39 42.57 80.59 C 42.70 109.50 42.70 109.50 54.27 110.00 C 60.64 110.28 66.04 110.72 66.29 111.00 C 66.54 111.28 67.05 127.06 67.44 146.07 C 68.00 174.11 67.89 180.85 66.82 181.72 C 64.91 183.28 46.65 189.99 46.03 189.36 C 45.74 189.06 45.50 176.60 45.50 161.66 C 45.50 138.79 45.27 134.50 44.07 134.50 C 41.32 134.50 40.70 140.57 40.89 165.51 C 41.03 184.56 40.77 190.93 39.79 192.26 C 39.08 193.22 35.58 195.70 32.00 197.77 C 23.58 202.65 23.34 204.24 29.17 216.09 C 33.83 225.56 34.24 225.80 40.00 222.25 Z "/>
</g>
</svg>