<?xml version="1.0" encoding="UTF-8" standalone="no"?>
<!DOCTYPE svg PUBLIC "-//W3C//DTD SVG 1.1//EN" "http://www.w3.org/Graphics/SVG/1.1/DTD/svg11.dtd" >
<svg xmlns="http://www.w3.org/2000/svg" xmlns:xlink="http://www.w3.org/1999/xlink" version="1.1" viewBox="0 0 256 256">
 <g >
 <path fill="currentColor"
d=" M 178.51 245.56 C 180.41 244.77 182.86 242.63 183.97 240.81 C 185.91 237.64 185.99 235.85 186.00 198.25 C 186.00 159.00 186.00 159.00 193.25 158.99 C 210.30 158.95 225.70 151.90 233.47 140.59 C 239.85 131.30 241.00 123.89 241.00 91.98 C 241.00 62.70 240.40 56.74 236.66 48.57 C 233.59 41.90 225.43 33.10 219.12 29.66 C 209.54 24.45 204.79 24.04 153.75 24.02 C 107.00 24.00 107.00 24.00 107.00 91.50 C 107.00 159.00 107.00 159.00 131.50 159.00 C 156.00 159.00 156.00 159.00 156.01 196.25 C 156.01 217.82 156.43 235.00 157.00 237.07 C 159.27 245.25 169.55 249.30 178.51 245.56 Z  M 66.47 244.58 C 73.41 241.68 73.47 241.29 73.79 196.08 C 74.09 155.67 74.09 155.67 69.00 151.22 C 54.69 138.70 55.78 121.65 71.25 116.05 C 74.00 115.05 74.00 115.05 74.00 101.02 C 74.00 87.00 74.00 87.00 83.58 87.00 C 92.77 87.00 93.27 86.89 96.00 84.15 C 100.94 79.21 101.20 69.67 96.54 64.25 C 94.30 61.64 93.66 61.48 84.09 61.16 C 74.00 60.81 74.00 60.81 73.98 41.66 C 73.95 20.51 73.09 16.57 67.49 12.17 C 61.95 7.81 50.30 10.08 46.81 16.20 C 45.89 17.81 45.35 24.80 45.00 39.50 C 44.50 60.50 44.50 60.50 32.50 61.00 C 20.11 61.52 17.27 62.34 14.55 66.23 C 12.56 69.07 12.54 77.21 14.51 81.02 C 16.88 85.59 19.47 86.46 32.50 87.00 C 44.50 87.50 44.50 87.50 44.77 93.00 C 45.04 98.50 45.04 98.50 38.77 101.92 C 35.32 103.80 29.76 108.08 26.41 111.42 C 18.00 119.83 16.11 125.13 14.83 144.00 C 13.68 160.97 10.95 172.75 7.42 176.08 C 3.66 179.60 4.20 182.00 8.75 181.99 C 13.62 181.97 22.15 179.68 26.24 177.29 C 31.14 174.43 35.70 167.78 36.90 161.77 C 37.48 158.87 38.44 150.65 39.05 143.50 C 40.15 130.50 42.18 119.23 43.98 116.14 C 44.60 115.08 44.95 135.94 44.97 175.10 C 45.00 235.70 45.00 235.70 47.27 239.10 C 51.43 245.33 59.30 247.57 66.47 244.58 Z  M 97.46 149.25 C 99.81 144.44 100.63 131.81 99.03 125.14 C 96.81 115.88 89.77 112.25 83.53 117.15 C 81.13 119.04 80.87 119.78 81.41 123.17 C 82.03 127.03 82.03 127.03 77.86 124.02 C 72.78 120.33 70.75 120.24 68.14 123.55 C 63.67 129.23 64.99 136.37 71.99 144.34 C 76.06 148.97 78.05 150.09 85.00 151.62 C 94.32 153.67 95.40 153.47 97.46 149.25 Z  M 135.22 118.75 C 135.50 106.50 135.50 106.50 145.75 106.22 C 156.00 105.93 156.00 105.93 156.00 118.47 C 156.00 131.00 156.00 131.00 145.47 131.00 C 134.94 131.00 134.94 131.00 135.22 118.75 Z  M 186.22 118.75 C 186.50 106.50 186.50 106.50 199.25 106.22 C 212.00 105.94 212.00 105.94 212.00 112.15 C 212.00 119.73 209.12 126.35 204.61 129.09 C 202.26 130.53 199.60 130.99 193.72 131.00 C 185.94 131.00 185.94 131.00 186.22 118.75 Z  M 135.00 65.50 C 135.00 52.00 135.00 52.00 145.50 52.00 C 156.00 52.00 156.00 52.00 156.00 65.50 C 156.00 79.00 156.00 79.00 145.50 79.00 C 135.00 79.00 135.00 79.00 135.00 65.50 Z  M 186.00 65.40 C 186.00 51.80 186.00 51.80 194.90 52.15 C 202.05 52.43 204.23 52.89 206.04 54.50 C 209.93 57.97 211.95 63.84 211.98 71.75 C 212.00 79.00 212.00 79.00 199.00 79.00 C 186.00 79.00 186.00 79.00 186.00 65.40 Z "/>
</g>
</svg>