<?xml version="1.0" encoding="UTF-8" standalone="no"?>
<!DOCTYPE svg PUBLIC "-//W3C//DTD SVG 1.1//EN" "http://www.w3.org/Graphics/SVG/1.1/DTD/svg11.dtd" >
<svg xmlns="http://www.w3.org/2000/svg" xmlns:xlink="http://www.w3.org/1999/xlink" version="1.1" viewBox="0 0 256 256">
 <g >
 <path fill="currentColor"
d=" M 134.73 242.04 C 142.38 238.56 142.99 236.48 143.00 213.75 C 143.00 194.00 143.00 194.00 181.75 193.98 C 220.01 193.97 220.55 193.94 224.40 191.73 C 235.13 185.58 234.38 170.98 223.03 165.25 C 218.65 163.03 217.99 163.00 180.76 163.00 C 142.94 163.00 142.94 163.00 143.22 151.25 C 143.50 139.50 143.50 139.50 169.58 139.00 C 195.66 138.50 195.66 138.50 199.19 135.81 C 202.81 133.04 206.02 127.63 205.98 124.35 C 205.93 120.29 202.09 114.09 197.90 111.32 C 193.65 108.50 193.65 108.50 168.29 108.17 C 142.94 107.85 142.94 107.85 143.22 96.17 C 143.50 84.50 143.50 84.50 178.50 84.00 C 213.06 83.51 213.55 83.47 217.27 81.15 C 226.50 75.42 226.22 63.66 216.68 56.59 C 213.97 54.59 212.39 54.48 178.68 54.00 C 143.50 53.50 143.50 53.50 143.00 38.45 C 142.59 26.21 142.16 22.89 140.70 20.65 C 134.95 11.90 119.90 11.71 113.57 20.32 C 111.76 22.79 111.44 25.01 111.00 38.32 C 110.50 53.50 110.50 53.50 73.00 54.00 C 47.25 54.34 34.87 54.86 33.50 55.66 C 26.46 59.73 24.05 68.26 27.83 75.67 C 31.90 83.64 30.79 83.44 73.00 84.00 C 110.50 84.50 110.50 84.50 110.78 96.19 C 111.06 107.89 111.06 107.89 82.28 108.19 C 54.36 108.49 53.41 108.57 50.37 110.73 C 42.30 116.49 41.94 128.90 49.64 136.13 C 52.14 138.49 52.33 138.50 81.33 139.00 C 110.50 139.50 110.50 139.50 110.78 151.25 C 111.06 163.00 111.06 163.00 69.48 163.00 C 23.49 163.00 24.64 162.85 19.56 169.51 C 15.69 174.59 15.19 179.70 18.01 185.53 C 22.24 194.26 20.61 193.99 68.75 194.00 C 111.00 194.00 111.00 194.00 111.00 213.85 C 111.00 232.83 111.10 233.85 113.27 237.10 C 117.72 243.76 126.49 245.78 134.73 242.04 Z "/>
</g>
</svg>