<?xml version="1.0" encoding="UTF-8" standalone="no"?>
<!DOCTYPE svg PUBLIC "-//W3C//DTD SVG 1.1//EN" "http://www.w3.org/Graphics/SVG/1.1/DTD/svg11.dtd" >
<svg xmlns="http://www.w3.org/2000/svg" xmlns:xlink="http://www.w3.org/1999/xlink" version="1.1" viewBox="0 0 256 256">
 <g >
 <path fill="currentColor"
d=" M 74.28 241.65 C 80.42 238.65 88.73 230.42 91.90 224.20 C 96.65 214.88 98.64 196.18 96.66 179.38 C 95.82 172.26 95.82 172.26 107.16 166.80 C 123.89 158.75 135.00 148.70 135.00 141.63 C 135.00 140.18 134.63 139.00 134.19 139.00 C 133.74 139.00 129.35 140.38 124.44 142.07 C 116.87 144.66 91.73 151.00 89.00 151.00 C 88.52 151.00 87.84 150.07 87.48 148.94 C 87.12 147.80 84.67 144.02 82.03 140.53 C 77.23 134.19 77.23 134.19 85.86 131.09 C 90.61 129.38 97.88 126.11 102.00 123.82 C 116.11 116.00 128.11 100.74 126.58 92.57 C 125.72 88.01 121.22 84.33 115.25 83.31 C 112.64 82.86 91.38 82.50 68.00 82.50 C 29.46 82.50 25.20 82.66 22.31 84.24 C 15.92 87.74 14.09 94.30 18.09 99.39 C 22.36 104.82 23.52 105.00 54.25 105.00 C 74.97 105.00 82.92 105.32 83.80 106.20 C 87.29 109.69 83.37 115.34 72.71 122.19 C 67.91 125.26 67.91 125.26 60.21 117.79 C 55.97 113.68 51.25 110.01 49.71 109.63 C 44.05 108.24 34.88 112.56 33.00 117.50 C 32.50 118.82 32.58 121.46 33.21 123.93 C 34.08 127.34 36.01 129.72 43.64 136.81 C 48.79 141.59 54.36 147.38 56.02 149.68 C 59.82 154.97 60.30 154.80 38.37 155.93 C 19.33 156.91 14.78 158.15 11.25 163.33 C 6.48 170.32 9.91 181.23 17.73 183.95 C 21.30 185.19 23.88 185.23 35.21 184.17 C 42.52 183.49 53.22 182.10 59.00 181.07 C 64.78 180.05 69.72 179.43 70.00 179.69 C 70.28 179.95 70.48 185.19 70.46 191.33 C 70.43 201.84 70.24 202.85 67.31 208.50 C 60.86 220.94 53.89 223.47 39.50 218.56 C 28.85 214.93 27.83 217.05 33.86 230.36 C 36.08 235.26 37.82 237.51 40.95 239.59 C 50.13 245.66 64.30 246.53 74.28 241.65 Z  M 214.42 242.96 C 224.08 241.56 232.03 237.74 237.56 231.84 C 243.90 225.05 246.17 219.43 246.76 208.99 C 247.49 196.31 245.59 190.66 238.42 184.10 C 229.95 176.36 229.11 176.85 227.87 190.29 C 226.53 204.75 221.91 211.63 211.98 213.92 C 205.92 215.31 187.32 215.17 183.03 213.69 C 181.11 213.04 178.99 211.38 178.29 210.00 C 177.32 208.07 177.03 193.91 177.01 148.20 C 177.00 83.33 177.18 85.40 171.11 81.08 C 167.80 78.72 160.68 78.28 156.52 80.17 C 155.11 80.82 152.95 82.95 151.73 84.92 C 149.50 88.50 149.50 88.50 149.21 151.00 C 148.92 215.00 149.44 227.56 152.65 232.98 C 155.93 238.54 166.02 242.22 181.00 243.32 C 191.26 244.07 207.95 243.90 214.42 242.96 Z  M 166.43 75.02 C 170.03 73.66 172.99 68.35 173.00 63.25 C 173.00 59.00 173.00 59.00 197.75 58.99 C 211.36 58.99 224.08 58.55 226.02 58.01 C 227.95 57.47 231.03 55.78 232.86 54.26 C 235.51 52.04 236.28 50.56 236.64 46.99 C 237.15 41.82 235.76 38.63 231.68 35.60 C 229.02 33.62 227.30 33.47 201.18 33.00 C 173.50 32.50 173.50 32.50 172.99 25.00 C 172.22 13.67 169.24 10.00 160.81 10.00 C 152.21 10.00 147.02 16.86 147.01 28.25 C 147.00 33.00 147.00 33.00 127.50 33.00 C 108.00 33.00 108.00 33.00 107.98 28.75 C 107.91 17.11 102.83 10.00 94.56 10.00 C 85.36 10.00 82.01 13.84 81.07 25.50 C 80.50 32.50 80.50 32.50 53.50 33.00 C 23.11 33.56 21.16 33.99 18.36 40.67 C 15.76 46.89 18.11 52.87 24.50 56.33 C 28.26 58.37 30.04 58.52 54.75 58.81 C 81.00 59.12 81.00 59.12 81.00 63.66 C 81.00 67.49 81.53 68.73 84.40 71.60 C 87.58 74.78 88.22 75.00 94.45 75.00 C 100.11 75.00 101.44 74.65 103.46 72.63 C 105.73 70.36 107.98 64.46 107.99 60.75 C 108.00 59.14 109.59 59.00 127.37 59.00 C 146.74 59.00 146.74 59.00 147.41 63.75 C 148.74 73.34 157.40 78.46 166.43 75.02 Z "/>
</g>
</svg>