<?xml version="1.0" encoding="UTF-8" standalone="no"?>
<!DOCTYPE svg PUBLIC "-//W3C//DTD SVG 1.1//EN" "http://www.w3.org/Graphics/SVG/1.1/DTD/svg11.dtd" >
<svg xmlns="http://www.w3.org/2000/svg" xmlns:xlink="http://www.w3.org/1999/xlink" version="1.1" viewBox="0 0 256 256">
 <g >
 <path fill="currentColor"
d=" M 140.50 242.05 C 151.53 238.50 156.07 236.16 163.45 230.24 C 168.39 226.28 168.39 226.28 173.76 229.71 C 191.86 241.29 220.37 247.64 230.54 242.36 C 238.61 238.17 243.73 223.39 241.02 212.10 C 239.57 206.04 233.86 196.93 230.13 194.74 C 224.84 191.64 217.69 192.16 213.92 195.92 C 211.40 198.45 211.00 199.60 211.00 204.39 C 211.00 209.16 211.43 210.42 214.10 213.47 C 217.54 217.38 222.04 218.20 225.56 215.53 C 228.53 213.28 229.00 213.65 228.98 218.25 C 228.97 223.03 228.54 223.91 225.03 226.31 C 221.68 228.60 216.77 228.44 211.71 225.85 C 206.58 223.24 191.77 213.27 187.07 209.26 C 183.65 206.34 183.65 206.34 187.25 200.42 C 191.35 193.69 195.50 189.46 202.02 185.35 C 213.14 178.33 216.75 174.15 218.44 166.33 C 220.31 157.65 212.72 147.18 203.04 145.10 C 200.21 144.50 192.06 144.00 184.92 144.00 C 171.95 144.00 171.95 144.00 172.22 129.75 C 172.50 115.50 172.50 115.50 184.00 115.19 C 199.62 114.77 205.33 115.56 209.01 118.66 C 212.51 121.61 212.96 126.04 210.47 133.08 C 208.44 138.84 209.05 140.00 214.15 140.00 C 222.48 140.00 228.70 135.31 234.05 125.00 C 237.31 118.72 237.42 107.29 234.28 101.38 C 231.57 96.27 227.10 92.42 222.22 90.98 C 220.17 90.38 208.04 89.62 195.25 89.30 C 172.00 88.70 172.00 88.70 172.00 86.10 C 171.99 82.51 168.52 77.15 165.43 75.98 C 156.25 72.48 144.00 79.01 144.00 87.40 C 144.00 88.79 142.23 89.00 130.80 89.00 C 120.53 89.00 117.87 88.73 118.80 87.80 C 119.46 87.14 120.00 85.79 120.00 84.80 C 120.00 81.60 115.64 82.77 108.26 87.95 C 99.83 93.87 95.11 99.39 91.07 108.06 C 86.00 118.93 84.81 127.35 80.50 183.00 C 78.26 211.90 74.64 223.15 63.54 235.81 C 60.49 239.29 58.00 242.55 58.00 243.06 C 58.00 245.08 66.59 243.93 72.00 241.18 C 98.58 227.67 105.43 216.18 110.08 177.24 C 111.31 166.98 111.31 166.98 157.41 167.24 C 203.50 167.50 203.50 167.50 203.80 169.63 C 204.31 173.15 201.55 174.70 189.96 177.42 C 178.67 180.07 172.96 182.38 167.35 186.59 C 164.20 188.95 164.20 188.95 153.62 178.97 C 141.84 167.87 139.57 167.01 133.30 171.25 C 129.88 173.56 125.99 180.13 126.01 183.57 C 126.04 189.43 135.23 201.47 143.98 207.12 C 146.46 208.72 146.46 208.72 141.98 214.54 C 131.51 228.14 125.00 232.84 108.00 239.04 C 102.07 241.21 100.43 242.24 100.17 244.00 C 99.83 246.22 99.83 246.22 115.17 245.75 C 128.98 245.33 131.49 244.96 140.50 242.05 Z  M 37.51 232.55 C 41.86 230.00 45.67 225.15 51.30 214.98 C 55.96 206.57 58.45 199.88 66.51 174.03 C 71.71 157.37 72.87 152.55 71.95 151.44 C 71.28 150.64 70.20 150.35 69.44 150.77 C 68.71 151.18 64.09 157.27 59.19 164.29 C 47.16 181.50 35.75 195.14 26.01 203.93 C 16.92 212.14 15.00 215.11 15.00 221.00 C 15.00 226.98 19.01 233.37 24.00 235.34 C 26.62 236.37 33.36 234.98 37.51 232.55 Z  M 45.73 147.27 C 50.48 145.45 49.53 125.79 44.28 116.89 C 39.74 109.21 27.28 109.90 25.52 117.93 C 25.19 119.43 25.37 121.83 25.91 123.27 C 26.91 125.90 26.91 125.90 22.20 125.34 C 18.49 124.90 16.99 125.18 15.15 126.68 C 10.50 130.44 13.24 139.83 20.33 144.48 C 26.01 148.20 39.46 149.68 45.73 147.27 Z  M 66.41 106.36 C 70.32 105.82 71.36 105.21 72.68 102.66 C 75.78 96.65 72.31 79.15 66.86 73.35 C 64.03 70.34 58.05 68.65 54.72 69.92 C 51.68 71.07 49.75 76.14 50.61 80.71 C 51.23 84.06 51.23 84.06 47.37 83.45 C 39.42 82.20 34.78 86.77 37.04 93.63 C 38.53 98.14 43.90 102.35 51.35 104.85 C 58.18 107.14 59.63 107.29 66.41 106.36 Z  M 95.45 70.58 C 99.61 68.85 102.01 65.37 102.72 60.04 C 103.26 56.00 103.26 56.00 125.90 56.00 C 148.53 56.00 148.53 56.00 150.23 60.80 C 152.84 68.14 155.93 70.50 162.82 70.40 C 172.08 70.27 178.00 65.65 178.00 58.55 C 178.00 56.00 178.00 56.00 204.75 56.00 C 228.22 56.00 231.93 55.78 234.99 54.25 C 239.81 51.83 241.15 48.76 240.73 41.11 C 240.43 35.44 240.06 34.46 237.45 32.38 C 234.54 30.06 234.19 30.03 206.50 29.77 C 178.50 29.50 178.50 29.50 178.00 23.45 C 177.17 13.36 173.64 10.00 163.89 10.00 C 154.57 10.00 150.15 14.27 149.25 24.13 C 148.72 30.00 148.72 30.00 125.86 30.00 C 103.00 30.00 103.00 30.00 102.99 26.75 C 102.99 21.66 101.06 15.97 98.46 13.37 C 93.96 8.87 78.89 10.73 75.86 16.17 C 75.15 17.45 74.32 20.98 74.03 24.00 C 73.50 29.50 73.50 29.50 47.00 30.00 C 28.11 30.36 19.86 30.87 18.26 31.78 C 14.54 33.91 12.72 38.63 13.24 44.83 C 14.08 54.98 17.38 55.99 49.75 55.99 C 74.00 56.00 74.00 56.00 74.00 60.05 C 74.00 64.98 76.33 69.79 79.30 70.99 C 82.74 72.37 91.71 72.15 95.45 70.58 Z  M 112.22 129.75 C 112.50 115.50 112.50 115.50 128.25 115.22 C 144.00 114.95 144.00 114.95 144.00 129.47 C 144.00 144.00 144.00 144.00 127.97 144.00 C 111.95 144.00 111.95 144.00 112.22 129.75 Z "/>
</g>
</svg>