<?xml version="1.0" encoding="UTF-8" standalone="no"?>
<!DOCTYPE svg PUBLIC "-//W3C//DTD SVG 1.1//EN" "http://www.w3.org/Graphics/SVG/1.1/DTD/svg11.dtd" >
<svg xmlns="http://www.w3.org/2000/svg" xmlns:xlink="http://www.w3.org/1999/xlink" version="1.1" viewBox="0 0 256 256">
 <g >
 <path fill="currentColor"
d=" M 173.91 207.55 C 174.52 207.18 177.14 206.70 179.75 206.48 C 186.11 205.94 187.00 205.77 187.00 205.08 C 187.00 204.76 188.46 204.46 190.25 204.40 C 195.43 204.25 209.50 201.91 214.25 200.42 C 217.11 199.52 216.26 196.36 212.27 193.07 C 208.58 190.03 208.44 190.00 196.79 190.00 C 186.24 190.00 176.36 191.40 175.00 193.09 C 174.40 193.84 158.12 195.45 152.50 195.31 C 146.06 195.15 138.00 193.82 138.00 192.90 C 138.00 192.44 137.32 192.32 136.50 192.64 C 134.68 193.34 134.50 198.50 136.25 199.98 C 141.05 204.04 142.46 205.00 143.65 205.00 C 144.39 205.00 145.00 205.51 145.00 206.13 C 145.00 206.88 146.53 207.09 149.52 206.75 C 152.00 206.47 154.29 206.66 154.60 207.16 C 154.91 207.67 155.99 207.82 157.00 207.50 C 158.01 207.18 159.10 207.35 159.43 207.89 C 160.08 208.94 172.12 208.66 173.91 207.55 Z  M 92.39 202.28 C 92.78 201.88 94.07 201.55 95.26 201.53 C 97.06 201.50 97.63 200.53 98.77 195.50 C 100.33 188.63 100.31 189.75 99.03 176.00 C 97.86 163.37 96.16 158.50 91.13 153.37 C 89.05 151.24 86.76 148.42 86.06 147.11 C 84.90 144.94 85.05 144.51 87.78 142.38 C 89.43 141.09 91.06 138.90 91.41 137.52 C 91.75 136.13 92.49 135.00 93.03 135.00 C 94.53 135.00 100.62 124.99 102.84 118.89 C 103.91 115.93 105.49 111.70 106.35 109.50 C 109.83 100.57 107.63 89.00 101.53 84.20 C 100.14 83.11 99.00 81.76 99.00 81.21 C 99.00 79.77 81.02 68.00 78.83 68.00 C 75.77 68.00 76.53 74.08 80.52 81.61 C 82.77 85.85 83.72 88.65 83.14 89.37 C 82.64 89.99 81.91 92.01 81.51 93.86 C 80.38 99.17 76.30 107.67 74.57 108.33 C 73.71 108.67 72.26 110.49 71.35 112.39 C 70.44 114.29 68.31 116.60 66.60 117.52 C 64.90 118.44 61.96 121.29 60.09 123.85 C 56.27 129.04 51.68 133.49 41.84 141.51 C 35.59 146.61 32.00 151.43 32.00 154.73 C 32.00 155.52 33.78 157.92 35.96 160.08 C 39.92 164.00 39.92 164.00 49.21 164.00 C 58.25 164.00 58.64 163.90 63.50 160.45 C 66.25 158.50 68.82 156.02 69.21 154.95 C 70.30 152.02 73.32 152.60 76.04 156.25 C 77.94 158.79 78.48 160.81 78.56 165.50 C 78.61 168.80 78.99 172.27 79.42 173.21 C 79.87 174.23 79.54 176.21 78.59 178.12 C 76.44 182.43 76.37 194.00 78.50 194.00 C 79.33 194.00 80.00 194.45 80.00 195.00 C 80.00 195.55 80.64 196.00 81.43 196.00 C 82.22 196.00 83.12 196.79 83.43 197.75 C 83.98 199.48 88.49 202.73 90.58 202.91 C 91.18 202.96 91.99 202.68 92.39 202.28 Z  M 166.71 190.21 C 167.69 189.23 170.08 187.27 172.00 185.85 C 174.57 183.96 175.94 181.84 177.17 177.88 C 178.90 172.23 178.41 168.26 174.88 159.33 C 173.10 154.84 174.69 153.33 181.79 152.82 C 188.30 152.35 193.12 149.47 195.55 144.60 C 197.27 141.15 197.00 140.82 191.05 138.95 C 185.99 137.35 179.62 137.26 177.76 138.75 C 177.07 139.30 175.15 139.99 173.50 140.29 C 171.85 140.59 168.79 141.28 166.71 141.82 C 160.70 143.38 154.01 139.01 158.25 136.30 C 159.92 135.23 163.00 129.27 163.00 127.12 C 163.00 126.17 163.55 124.24 164.22 122.82 C 165.74 119.59 170.34 118.43 189.50 116.41 C 203.92 114.90 206.00 114.08 206.00 109.93 C 206.00 107.11 204.00 106.27 190.58 103.46 C 178.75 100.98 177.56 100.89 176.47 102.37 C 175.75 103.36 173.85 104.00 171.66 104.00 C 168.61 104.00 167.94 103.60 167.40 101.45 C 167.05 100.05 167.03 97.22 167.36 95.15 C 168.28 89.39 166.42 80.07 163.78 77.25 C 160.71 73.96 156.72 72.00 153.11 72.00 C 149.00 72.00 148.68 73.07 151.57 77.14 C 153.98 80.52 154.01 80.83 152.91 88.56 C 151.51 98.33 148.81 107.14 146.92 108.12 C 143.50 109.89 129.85 112.30 122.75 112.40 C 115.49 112.49 115.00 112.64 115.00 114.68 C 115.00 117.49 117.54 120.00 120.38 120.00 C 121.61 120.00 123.49 120.66 124.56 121.47 C 125.85 122.44 129.02 122.95 134.00 122.98 C 142.77 123.04 145.08 124.00 143.32 126.84 C 142.68 127.88 141.62 130.71 140.98 133.12 C 140.34 135.53 139.16 138.24 138.35 139.14 C 137.55 140.04 136.12 142.74 135.17 145.14 C 131.79 153.70 128.86 158.09 120.99 166.45 C 116.59 171.12 113.00 175.38 113.00 175.93 C 113.00 176.48 113.90 177.41 115.00 178.00 C 116.10 178.59 117.00 178.77 117.00 178.41 C 117.00 178.05 117.66 178.30 118.46 178.96 C 119.26 179.63 120.35 179.90 120.89 179.57 C 121.42 179.24 122.15 179.44 122.51 180.02 C 123.26 181.22 131.00 181.03 131.00 179.80 C 131.00 179.36 131.72 179.00 132.59 179.00 C 134.37 179.00 137.92 175.19 137.97 173.23 C 137.99 172.53 139.12 171.44 140.50 170.82 C 141.88 170.19 143.00 168.85 143.00 167.84 C 143.00 166.83 143.39 166.00 143.88 166.00 C 144.36 166.00 145.00 164.75 145.31 163.21 C 145.61 161.68 147.44 158.75 149.37 156.71 C 152.84 153.02 155.32 152.08 156.50 154.00 C 156.84 154.55 158.22 155.00 159.57 155.00 C 162.94 155.00 166.30 160.38 165.49 164.50 C 165.17 166.15 164.50 172.24 164.02 178.04 C 163.54 183.84 163.06 189.01 162.95 189.54 C 162.37 192.51 164.10 192.82 166.71 190.21 Z "/>
</g>
</svg>