<?xml version="1.0" encoding="UTF-8" standalone="no"?>
<!DOCTYPE svg PUBLIC "-//W3C//DTD SVG 1.1//EN" "http://www.w3.org/Graphics/SVG/1.1/DTD/svg11.dtd" >
<svg xmlns="http://www.w3.org/2000/svg" xmlns:xlink="http://www.w3.org/1999/xlink" version="1.1" viewBox="0 0 256 256">
 <g >
 <path fill="currentColor"
d=" M 227.12 221.39 C 230.38 218.44 230.49 213.92 227.40 209.20 C 225.88 206.89 224.26 205.00 223.80 205.00 C 223.33 205.00 222.53 203.90 222.02 202.56 C 221.02 199.93 216.08 198.02 210.25 198.01 C 208.46 198.00 207.00 197.50 207.00 196.89 C 207.00 195.64 202.27 196.53 200.33 198.14 C 197.89 200.17 209.19 221.11 213.88 223.24 C 216.47 224.42 225.11 223.21 227.12 221.39 Z  M 121.64 216.51 C 121.95 215.68 122.55 215.22 122.96 215.47 C 126.07 217.40 127.64 187.51 125.36 169.67 C 124.74 164.81 124.45 159.99 124.72 158.96 C 125.32 156.66 130.06 155.00 136.87 154.72 C 139.69 154.60 142.00 154.16 142.00 153.75 C 142.00 153.34 142.68 153.00 143.50 153.00 C 145.52 153.00 145.43 149.13 143.35 146.83 C 142.43 145.82 140.97 144.99 140.10 144.98 C 139.22 144.97 137.42 144.12 136.09 143.11 C 133.35 141.00 133.80 138.00 136.85 138.00 C 137.91 138.00 139.51 136.88 140.41 135.50 C 141.31 134.12 142.82 132.99 143.77 132.98 C 146.37 132.96 154.00 124.59 154.00 121.77 C 154.00 118.48 152.40 116.77 146.00 113.27 C 139.83 109.90 134.65 108.48 124.75 107.46 C 118.00 106.77 118.00 106.77 118.00 100.50 C 118.00 94.23 118.00 94.23 126.25 93.06 C 137.72 91.44 138.00 91.32 138.00 88.01 C 138.00 83.38 130.78 80.44 115.03 78.65 C 114.13 78.55 113.23 76.74 112.71 73.99 C 112.24 71.52 111.15 68.95 110.29 68.29 C 109.43 67.62 108.21 66.05 107.59 64.80 C 106.96 63.54 105.64 62.36 104.65 62.17 C 98.61 61.01 94.92 66.14 98.80 70.31 C 101.44 73.15 102.63 79.25 100.83 80.68 C 99.40 81.81 89.57 83.21 84.23 83.04 C 80.30 82.91 79.29 84.77 81.25 88.51 C 82.96 91.78 91.25 94.92 98.28 94.97 C 103.62 95.00 103.80 95.23 104.21 102.50 C 104.50 107.50 104.50 107.50 98.51 110.50 C 91.55 113.98 89.57 117.54 95.16 116.51 C 97.00 116.17 100.30 116.28 102.50 116.74 C 106.50 117.58 106.50 117.58 107.58 125.04 C 108.18 129.14 108.99 133.93 109.40 135.68 C 110.22 139.26 108.89 140.46 102.97 141.50 C 101.15 141.83 99.29 142.32 98.83 142.61 C 98.36 142.89 97.13 142.86 96.08 142.53 C 94.62 142.06 94.08 140.72 93.74 136.71 C 93.07 128.62 90.40 120.61 85.85 112.98 C 80.82 104.54 78.44 103.72 79.37 110.75 C 81.03 123.26 82.45 143.79 82.08 149.75 C 81.93 152.14 79.89 150.98 78.56 147.75 C 77.82 145.96 76.43 141.24 75.47 137.25 C 74.44 132.96 72.79 128.98 71.42 127.51 C 70.15 126.13 68.69 124.27 68.19 123.37 C 67.60 122.32 65.48 121.56 62.23 121.25 C 57.90 120.83 57.04 121.05 56.10 122.81 C 55.27 124.37 55.33 125.19 56.37 126.23 C 59.26 129.12 61.00 134.07 61.00 139.39 C 61.00 142.41 60.66 145.08 60.25 145.32 C 58.70 146.22 45.83 143.72 45.33 142.42 C 45.05 141.69 45.34 138.93 45.98 136.29 C 46.61 133.66 47.13 130.72 47.13 129.77 C 47.13 128.82 47.52 127.80 47.99 127.50 C 49.22 126.75 50.38 116.39 49.48 114.27 C 49.07 113.29 48.62 110.57 48.49 108.22 C 48.19 102.83 40.11 90.00 37.03 90.00 C 34.54 90.00 32.80 93.22 33.07 97.32 C 33.18 99.07 33.02 101.17 32.70 102.00 C 32.39 102.83 31.90 105.30 31.62 107.50 C 30.46 116.67 29.59 119.91 26.88 125.24 C 26.40 126.19 26.00 128.48 26.00 130.33 C 26.00 132.42 25.24 134.37 24.00 135.50 C 22.90 136.50 22.00 137.86 22.00 138.53 C 22.00 139.20 21.32 140.32 20.50 141.00 C 18.49 142.67 18.61 143.55 21.16 145.94 C 23.13 147.77 23.22 148.32 22.16 151.84 C 20.74 156.60 20.63 168.65 22.00 169.50 C 22.55 169.84 23.00 171.37 23.00 172.89 C 23.00 176.36 29.32 183.00 32.62 183.00 C 33.88 183.00 36.57 181.88 38.60 180.50 C 40.62 179.12 43.62 178.00 45.26 178.00 C 47.13 178.00 49.48 176.91 51.58 175.06 C 56.15 171.05 59.93 171.44 61.62 176.11 C 63.15 180.33 63.32 184.68 62.00 185.50 C 60.73 186.29 61.56 192.38 64.23 201.74 C 65.89 207.60 66.94 209.48 69.73 211.61 C 72.65 213.84 73.55 214.07 75.59 213.14 C 77.73 212.16 78.00 211.40 78.00 206.22 C 78.00 203.02 78.43 199.97 78.95 199.45 C 79.51 198.89 79.58 196.17 79.12 192.78 C 78.69 189.63 78.70 186.70 79.15 186.25 C 80.17 185.23 80.39 177.79 79.56 172.00 C 78.60 165.31 80.47 162.43 85.55 162.75 C 89.00 162.97 92.85 162.20 98.00 160.29 C 98.83 159.98 101.25 159.83 103.39 159.95 C 105.75 160.09 107.60 159.65 108.10 158.84 C 110.64 154.73 113.81 169.11 114.63 188.50 C 115.23 202.50 115.23 202.50 111.46 206.84 C 108.44 210.31 107.97 211.37 109.09 212.08 C 109.87 212.57 110.99 212.98 111.59 212.98 C 112.19 212.99 113.19 214.12 113.82 215.50 C 114.67 217.37 115.72 218.00 118.01 218.00 C 119.80 218.00 121.30 217.38 121.64 216.51 Z  M 178.07 208.08 C 179.77 206.39 182.20 204.74 183.48 204.41 C 184.76 204.09 186.08 203.08 186.40 202.17 C 186.73 201.25 188.09 199.01 189.43 197.20 C 191.04 195.02 192.07 191.96 192.47 188.20 C 192.80 185.06 193.51 180.87 194.04 178.88 C 196.32 170.30 193.93 160.47 187.87 153.59 C 182.25 147.21 179.12 147.45 181.03 154.11 C 181.57 155.97 182.07 162.57 182.15 168.76 C 182.26 177.42 181.95 180.42 180.81 181.76 C 180.00 182.72 178.73 185.07 177.99 187.00 C 175.88 192.54 171.49 198.04 164.23 204.24 C 160.53 207.39 157.16 209.98 156.75 209.99 C 156.34 209.99 156.00 210.52 156.00 211.15 C 156.00 211.97 158.69 212.13 165.50 211.73 C 174.42 211.19 175.18 210.98 178.07 208.08 Z  M 103.99 188.51 C 106.10 186.49 106.88 184.63 107.27 180.68 C 107.80 175.34 106.53 171.74 102.75 167.82 C 100.19 165.16 97.00 165.44 97.00 168.32 C 97.00 169.60 96.10 174.85 95.00 180.00 C 93.90 185.15 93.00 190.01 93.00 190.81 C 93.00 193.24 100.74 191.62 103.99 188.51 Z  M 165.33 185.74 C 167.41 184.23 170.29 174.80 170.11 170.11 C 170.04 168.25 170.40 166.22 170.92 165.60 C 171.98 164.32 172.28 156.79 171.67 146.77 C 171.41 142.51 171.67 139.71 172.38 139.17 C 173.85 138.03 197.88 135.83 200.62 136.59 C 206.33 138.15 210.47 148.98 210.27 161.80 C 210.13 170.68 209.94 171.44 206.04 178.55 C 203.79 182.65 202.23 186.00 202.57 186.00 C 202.91 186.00 205.68 185.28 208.72 184.39 C 213.17 183.10 214.46 182.23 215.32 179.97 C 215.90 178.41 217.42 176.67 218.69 176.09 C 219.96 175.52 221.00 174.45 221.00 173.72 C 221.00 172.99 221.53 171.87 222.17 171.23 C 225.43 167.97 226.61 157.11 223.89 155.43 C 223.40 155.13 223.00 153.61 223.00 152.06 C 223.00 150.51 222.32 148.68 221.50 148.00 C 220.68 147.32 220.00 145.82 220.00 144.68 C 220.00 140.82 212.39 130.79 207.55 128.27 C 203.47 126.16 193.16 124.14 189.34 124.72 C 187.60 124.98 185.43 124.78 184.50 124.26 C 183.15 123.50 184.87 122.13 193.45 117.12 C 199.29 113.71 204.96 110.04 206.04 108.96 C 207.12 107.88 208.63 107.00 209.39 107.00 C 211.26 107.00 212.02 104.73 211.19 101.65 C 209.93 97.06 203.91 94.12 191.31 91.97 C 184.98 90.89 178.75 90.00 177.46 90.00 C 174.06 90.00 173.46 88.18 175.86 85.15 C 182.12 77.26 184.02 73.68 184.59 68.70 C 185.14 63.88 184.97 63.30 182.26 60.72 C 178.72 57.36 176.44 57.91 175.72 62.31 C 175.43 64.06 172.20 70.97 168.53 77.66 C 163.42 86.98 161.81 90.87 161.68 94.27 C 161.42 100.97 163.07 102.35 170.46 101.61 C 177.84 100.87 177.14 100.87 184.75 101.62 C 190.27 102.17 191.00 102.49 190.98 104.37 C 190.97 105.54 187.94 110.93 184.23 116.34 C 178.54 124.66 176.87 126.41 173.50 127.58 C 168.76 129.23 165.55 129.36 163.04 128.02 C 160.71 126.78 159.78 127.91 157.56 134.73 C 155.83 140.04 156.06 142.00 158.43 142.00 C 159.95 142.00 160.31 156.89 158.89 160.72 C 157.21 165.27 156.03 178.94 157.07 181.76 C 158.83 186.50 162.12 188.09 165.33 185.74 Z  M 152.39 181.42 C 153.78 177.80 152.82 175.21 148.41 170.67 C 140.21 162.23 131.81 160.79 137.34 168.77 C 138.80 170.88 140.00 173.06 140.00 173.62 C 140.00 174.18 141.61 176.52 143.58 178.82 C 147.33 183.20 151.26 184.36 152.39 181.42 Z  M 120.53 130.75 C 120.31 130.06 119.97 126.46 119.77 122.75 C 119.41 116.00 119.41 116.00 122.63 116.00 C 127.72 116.00 136.00 118.22 136.00 119.59 C 136.00 121.08 123.78 132.00 122.11 132.00 C 121.46 132.00 120.76 131.44 120.53 130.75 Z "/>
</g>
</svg>