<?xml version="1.0" encoding="UTF-8" standalone="no"?>
<!DOCTYPE svg PUBLIC "-//W3C//DTD SVG 1.1//EN" "http://www.w3.org/Graphics/SVG/1.1/DTD/svg11.dtd" >
<svg xmlns="http://www.w3.org/2000/svg" xmlns:xlink="http://www.w3.org/1999/xlink" version="1.1" viewBox="0 0 256 256">
 <g >
 <path fill="currentColor"
d=" M 110.98 237.52 C 111.91 236.40 111.94 235.27 111.11 232.87 C 110.50 231.13 110.00 228.45 110.00 226.92 C 110.00 225.39 109.43 223.55 108.74 222.82 C 106.27 220.24 104.15 216.26 103.04 212.16 C 102.10 208.67 101.51 208.00 99.39 208.00 C 96.86 208.00 96.86 208.00 97.31 216.75 C 97.89 227.83 98.87 231.84 102.00 235.76 C 104.75 239.20 108.91 240.02 110.98 237.52 Z  M 160.61 225.25 C 162.80 222.36 162.21 218.68 158.98 215.14 C 156.22 212.12 155.43 211.82 149.74 211.70 C 144.77 211.60 143.45 211.89 143.21 213.16 C 143.04 214.04 143.54 215.40 144.32 216.18 C 145.10 216.96 146.05 218.58 146.43 219.79 C 146.82 221.00 148.23 222.27 149.57 222.61 C 150.90 222.94 152.00 223.63 152.00 224.14 C 152.00 225.13 155.59 226.83 157.89 226.94 C 158.65 226.97 159.88 226.21 160.61 225.25 Z  M 220.88 220.13 C 224.63 216.11 224.65 212.19 220.92 205.81 C 215.07 195.80 211.18 193.17 201.27 192.56 C 195.74 192.22 193.00 193.32 193.00 195.88 C 193.00 198.65 196.88 209.31 198.19 210.12 C 198.82 210.51 199.83 212.32 200.42 214.14 C 201.22 216.60 202.79 218.16 206.50 220.17 C 213.23 223.83 217.44 223.81 220.88 220.13 Z  M 83.90 210.44 C 85.06 208.49 86.51 204.77 87.14 202.19 C 87.77 199.61 88.63 197.05 89.05 196.50 C 90.09 195.12 91.99 178.86 92.00 171.32 C 92.00 167.91 92.41 164.05 92.92 162.72 C 93.80 160.39 94.01 160.34 99.87 161.29 C 105.91 162.26 105.91 162.26 107.05 167.73 C 107.67 170.74 108.20 179.79 108.23 187.85 C 108.28 204.39 109.29 208.53 113.51 209.59 C 114.96 209.96 117.13 209.78 118.33 209.19 C 119.52 208.60 123.20 207.90 126.50 207.63 C 129.80 207.36 135.43 206.41 139.00 205.52 C 142.57 204.62 147.34 203.50 149.59 203.01 C 156.12 201.59 160.80 198.95 161.46 196.30 C 161.79 194.99 161.78 193.45 161.44 192.90 C 160.53 191.42 142.46 193.44 141.42 195.13 C 141.12 195.61 139.65 196.00 138.14 196.00 C 136.63 196.00 134.97 196.43 134.44 196.96 C 133.91 197.49 130.89 198.23 127.74 198.60 C 122.00 199.28 122.00 199.28 122.00 193.74 C 122.00 187.31 122.24 187.13 131.99 186.37 C 140.20 185.73 147.43 184.25 152.25 182.21 C 156.19 180.53 157.12 178.37 154.36 177.31 C 152.84 176.72 131.61 178.38 124.18 179.67 C 120.92 180.24 120.86 180.18 121.18 176.93 C 121.47 173.89 121.91 173.50 126.50 172.21 C 129.25 171.43 133.97 170.43 137.00 169.97 C 140.03 169.52 144.30 168.69 146.50 168.13 C 148.70 167.56 152.64 166.64 155.26 166.08 C 157.88 165.51 160.87 164.60 161.91 164.05 C 164.14 162.86 165.48 164.10 166.54 168.32 C 167.10 170.52 166.72 171.71 164.80 173.82 C 160.87 178.12 154.71 187.05 155.28 187.62 C 155.57 187.90 157.54 187.26 159.65 186.19 C 161.77 185.12 166.08 183.43 169.22 182.45 C 172.79 181.33 176.15 179.41 178.15 177.34 C 181.36 174.03 181.36 174.03 180.22 167.89 C 179.59 164.50 178.38 160.97 177.54 160.04 C 175.86 158.19 165.82 156.01 158.88 155.99 C 154.10 155.98 126.55 162.28 121.14 164.62 C 117.25 166.30 114.44 165.70 112.92 162.85 C 112.32 161.74 111.99 160.73 112.17 160.61 C 113.25 159.90 124.65 156.66 125.38 156.85 C 127.21 157.34 137.07 154.62 138.13 153.34 C 138.78 152.56 141.38 151.98 144.37 151.94 C 147.19 151.91 151.75 151.45 154.50 150.92 C 157.25 150.40 161.39 149.69 163.71 149.36 C 166.02 149.02 168.72 147.86 169.70 146.78 C 171.42 144.88 171.39 144.73 168.68 142.41 C 165.65 139.79 161.66 139.43 152.50 140.94 C 146.92 141.87 145.65 141.04 147.05 137.37 C 148.19 134.38 146.49 129.32 143.11 125.68 C 140.57 122.93 140.55 122.81 142.42 121.44 C 143.48 120.66 145.96 119.74 147.92 119.38 C 153.27 118.42 154.77 117.34 155.52 113.91 C 156.67 108.68 155.36 108.39 141.76 110.84 C 135.02 112.05 123.40 113.91 115.95 114.97 C 100.16 117.22 96.72 118.28 97.19 120.75 C 97.43 122.06 98.68 122.58 102.18 122.80 C 104.82 122.97 107.39 123.77 108.11 124.63 C 108.90 125.59 109.54 130.42 109.81 137.54 C 110.31 150.42 111.31 148.78 100.73 152.32 C 93.18 154.85 93.00 154.59 92.99 140.64 C 92.98 123.02 91.61 112.89 88.44 107.06 C 86.87 104.18 86.04 101.44 86.40 100.31 C 87.20 97.81 93.67 96.13 106.99 94.96 C 112.77 94.46 120.65 93.61 124.50 93.08 C 147.15 89.93 149.90 89.65 164.31 89.14 C 167.97 89.01 168.11 88.87 167.81 85.85 C 167.24 80.06 163.68 78.55 149.75 78.16 C 143.08 77.98 131.07 78.51 123.06 79.35 C 104.06 81.35 85.87 82.25 81.41 81.42 C 78.94 80.95 77.58 80.03 76.95 78.38 C 75.13 73.58 67.04 77.00 65.48 83.22 C 64.60 86.75 68.67 96.93 71.39 97.96 C 75.90 99.67 76.21 101.01 77.60 124.82 C 77.96 131.05 77.86 136.51 77.38 136.96 C 76.90 137.41 72.90 137.14 68.50 136.37 C 57.70 134.46 45.84 134.13 45.28 135.72 C 44.73 137.28 57.21 143.24 59.33 142.43 C 60.20 142.09 61.89 142.51 63.10 143.36 C 65.99 145.38 70.71 144.47 74.22 141.21 C 76.65 138.95 77.01 138.86 77.60 140.41 C 78.47 142.68 77.17 155.23 75.93 156.47 C 74.44 157.96 66.93 159.97 62.78 159.98 C 59.54 160.00 55.57 158.76 49.93 155.98 C 49.07 155.56 47.63 155.63 46.72 156.14 C 45.36 156.90 45.27 157.50 46.20 159.53 C 46.81 160.89 48.01 162.00 48.85 162.00 C 49.68 162.00 51.45 163.01 52.77 164.25 C 54.77 166.13 56.29 166.50 62.02 166.50 C 68.13 166.49 69.19 166.19 71.74 163.75 C 76.47 159.21 77.12 159.96 76.48 169.25 C 76.17 173.79 75.46 180.94 74.92 185.14 C 74.37 189.34 74.02 193.16 74.13 193.64 C 74.57 195.47 72.68 202.58 71.34 204.11 C 68.60 207.27 74.22 213.51 80.15 213.89 C 81.06 213.95 82.75 212.40 83.90 210.44 Z  M 143.84 105.11 C 149.55 101.05 148.16 99.80 138.25 100.09 C 133.44 100.23 127.32 99.98 124.65 99.52 C 120.20 98.77 119.83 98.86 120.16 100.60 C 120.36 101.65 122.77 103.75 125.51 105.28 C 131.68 108.73 138.86 108.66 143.84 105.11 Z  M 134.55 75.00 C 137.85 75.00 143.65 69.63 146.56 63.87 C 148.61 59.84 149.00 57.62 149.00 50.04 C 149.00 41.27 148.92 40.94 145.99 38.33 C 144.34 36.86 141.90 33.37 140.58 30.57 C 138.56 26.30 137.49 25.24 133.83 23.89 C 130.73 22.74 128.77 22.54 126.99 23.21 C 125.62 23.73 123.07 23.93 121.32 23.65 C 115.98 22.81 114.12 23.84 112.84 28.37 C 112.19 30.64 110.62 33.65 109.33 35.05 C 106.18 38.50 106.01 49.13 109.00 55.00 C 110.10 57.16 111.00 59.63 111.00 60.51 C 111.00 61.38 112.01 63.11 113.25 64.35 C 114.49 65.59 116.18 67.63 117.02 68.90 C 118.70 71.43 128.72 76.19 130.83 75.46 C 131.56 75.21 133.24 75.00 134.55 75.00 Z  M 119.66 135.69 C 117.30 122.48 116.98 123.36 124.75 121.99 C 128.46 121.33 132.85 120.95 134.50 121.15 C 137.37 121.48 137.51 121.74 137.80 126.81 C 138.18 133.39 135.63 142.59 133.04 143.98 C 131.99 144.54 128.93 145.00 126.23 145.00 C 121.32 145.00 121.32 145.00 119.66 135.69 Z "/>
</g>
</svg>