<?xml version="1.0" encoding="UTF-8" standalone="no"?>
<!DOCTYPE svg PUBLIC "-//W3C//DTD SVG 1.1//EN" "http://www.w3.org/Graphics/SVG/1.1/DTD/svg11.dtd" >
<svg xmlns="http://www.w3.org/2000/svg" xmlns:xlink="http://www.w3.org/1999/xlink" version="1.1" viewBox="0 0 256 257">
 <g >
 <path fill="currentColor"
d=" M 84.37 227.40 C 85.30 215.21 85.49 215.09 103.73 215.12 C 111.56 215.13 118.54 214.84 119.23 214.48 C 119.93 214.12 119.38 214.76 118.00 215.90 C 116.62 217.04 114.71 218.23 113.75 218.55 C 112.79 218.87 112.00 219.48 112.00 219.91 C 112.00 221.22 116.92 223.00 120.55 223.00 C 123.33 223.00 124.00 223.39 124.00 225.00 C 124.00 226.69 124.67 227.00 128.25 227.00 C 132.21 227.00 132.76 226.64 136.40 221.75 C 142.46 213.61 143.29 210.85 143.79 197.24 C 144.41 180.55 142.44 172.58 136.31 166.93 C 133.97 164.77 131.34 163.00 130.49 163.00 C 129.63 163.00 127.73 162.21 126.26 161.25 C 122.75 158.95 114.62 159.00 91.65 161.47 C 73.80 163.39 73.80 163.39 72.15 161.33 C 70.36 159.09 62.33 156.66 61.45 158.08 C 61.15 158.56 61.36 160.65 61.91 162.73 C 63.39 168.33 66.66 188.42 68.95 206.00 C 72.29 231.57 73.99 236.00 80.43 236.00 C 83.70 236.00 83.70 236.00 84.37 227.40 Z  M 169.60 209.98 C 175.38 207.96 178.93 199.36 178.98 187.27 C 179.00 181.78 178.61 180.51 175.75 176.65 C 173.05 173.02 171.52 171.99 166.77 170.63 C 157.92 168.11 157.93 168.11 159.63 174.25 C 160.43 177.14 161.53 186.03 162.08 194.00 C 162.87 205.50 163.42 208.76 164.73 209.75 C 166.70 211.24 166.09 211.21 169.60 209.98 Z  M 93.20 148.35 C 95.18 147.29 99.09 146.51 103.00 146.38 C 109.99 146.15 121.72 144.66 129.00 143.07 C 131.47 142.53 136.21 142.07 139.51 142.04 C 143.38 142.02 146.78 141.34 149.01 140.15 C 152.98 138.04 162.63 136.71 174.88 136.58 C 182.80 136.50 183.31 136.37 184.16 134.08 C 184.91 132.06 184.53 131.11 181.86 128.35 C 178.65 125.04 178.65 125.04 160.30 124.77 C 139.45 124.46 140.45 125.55 151.75 115.43 C 156.54 111.14 157.00 110.35 157.00 106.42 C 157.00 104.05 156.59 101.87 156.10 101.56 C 155.60 101.25 153.53 98.49 151.49 95.41 C 149.45 92.34 147.43 90.20 147.02 90.66 C 146.60 91.12 145.47 94.88 144.52 99.00 C 143.56 103.12 141.21 111.30 139.30 117.16 C 135.35 129.26 135.72 128.96 124.27 128.99 C 116.49 129.00 115.22 128.17 113.57 122.00 C 112.64 118.56 100.45 108.00 97.40 108.00 C 96.08 108.00 95.00 108.31 95.00 108.69 C 95.00 109.08 96.80 113.99 99.00 119.62 C 101.20 125.25 103.00 130.28 103.00 130.80 C 103.00 131.92 99.40 132.54 84.00 134.04 C 77.67 134.66 71.08 135.84 69.34 136.66 C 66.54 137.97 65.85 137.97 63.30 136.66 C 61.72 135.84 58.05 134.74 55.14 134.21 C 50.06 133.28 49.82 133.34 48.93 135.69 C 47.61 139.16 47.65 139.28 51.25 142.62 C 55.64 146.70 59.90 149.25 61.37 148.69 C 62.04 148.43 63.46 148.89 64.54 149.71 C 67.36 151.86 88.50 150.85 93.20 148.35 Z  M 78.05 106.48 C 82.52 104.21 83.35 103.23 86.15 96.98 C 89.24 90.05 89.30 90.00 93.20 90.00 C 95.58 90.00 100.11 91.38 104.71 93.50 C 109.12 95.54 113.85 97.00 116.05 97.00 C 119.64 97.00 119.89 96.78 121.41 92.32 C 122.28 89.75 123.00 87.27 123.00 86.82 C 123.00 86.37 120.89 86.00 118.31 86.00 C 114.85 86.00 113.01 85.42 111.27 83.79 C 108.83 81.49 101.55 79.12 96.72 79.04 C 93.55 78.99 92.18 76.69 94.01 74.49 C 94.94 73.37 97.52 73.00 104.43 73.00 C 110.96 73.00 114.18 72.58 115.56 71.53 C 116.63 70.72 119.13 70.05 121.13 70.03 C 125.43 69.99 127.14 68.31 126.31 64.95 C 125.44 61.38 124.25 60.21 120.70 59.43 C 118.95 59.05 116.53 58.08 115.31 57.29 C 113.37 56.01 112.16 56.03 105.44 57.42 C 94.72 59.63 94.57 59.60 92.40 54.75 C 91.36 52.41 88.99 48.81 87.13 46.75 C 83.87 43.11 83.57 43.00 76.92 43.00 C 71.29 43.00 69.90 43.33 69.08 44.85 C 68.36 46.20 68.55 47.33 69.80 49.10 C 71.13 50.98 71.48 53.54 71.39 61.00 C 71.21 77.70 68.48 86.30 61.08 93.45 C 58.84 95.63 57.00 97.93 57.00 98.57 C 57.00 100.40 61.03 105.05 64.41 107.11 C 68.58 109.65 72.11 109.48 78.05 106.48 Z  M 143.00 81.00 C 146.90 77.15 150.93 74.00 151.95 74.00 C 152.96 74.00 156.36 75.35 159.50 77.00 C 164.44 79.60 166.26 80.00 173.10 80.00 C 180.64 80.00 181.00 79.90 181.00 77.73 C 181.00 76.06 179.59 74.63 175.59 72.23 C 172.62 70.46 169.30 69.00 168.22 69.00 C 167.13 69.00 162.98 68.26 158.99 67.36 C 151.74 65.72 151.74 65.72 152.39 58.67 C 152.75 54.79 153.22 51.45 153.42 51.24 C 153.63 51.04 158.10 51.35 163.36 51.93 C 168.62 52.52 176.09 53.00 179.96 53.00 C 187.00 53.00 187.00 53.00 187.00 49.57 C 187.00 47.03 186.29 45.59 184.25 43.97 C 181.66 41.93 180.81 41.84 170.00 42.45 C 163.68 42.80 157.38 43.30 156.00 43.56 C 154.01 43.93 153.03 43.32 151.19 40.61 C 149.07 37.48 139.23 31.43 138.10 32.56 C 137.85 32.82 137.29 40.56 136.88 49.77 C 136.22 64.24 134.92 73.87 132.41 82.74 C 131.60 85.59 132.52 88.00 134.42 88.00 C 135.24 88.00 139.10 84.85 143.00 81.00 Z  M 85.75 201.92 C 84.79 201.36 84.00 200.30 84.00 199.57 C 84.00 197.85 87.15 197.03 93.82 197.01 C 96.74 197.01 100.08 196.49 101.25 195.87 C 103.81 194.49 124.17 192.86 125.30 193.93 C 125.74 194.35 125.58 195.83 124.95 197.21 C 123.87 199.58 123.25 199.75 113.36 200.39 C 107.62 200.76 102.50 200.81 101.98 200.49 C 101.47 200.17 98.70 200.60 95.84 201.45 C 89.81 203.24 88.16 203.32 85.75 201.92 Z  M 81.91 181.70 C 79.89 177.27 81.22 176.00 87.91 176.00 C 91.19 176.00 94.18 175.52 94.54 174.94 C 95.75 172.98 99.52 172.21 109.72 171.86 C 119.86 171.51 119.86 171.51 122.43 175.30 C 123.84 177.38 125.00 179.97 125.00 181.04 C 125.00 182.90 124.22 183.00 110.15 183.00 C 101.98 183.00 92.55 183.29 89.19 183.64 C 83.33 184.25 83.04 184.17 81.91 181.70 Z "/>
</g>
</svg>