<?xml version="1.0" encoding="UTF-8" standalone="no"?>
<!DOCTYPE svg PUBLIC "-//W3C//DTD SVG 1.1//EN" "http://www.w3.org/Graphics/SVG/1.1/DTD/svg11.dtd" >
<svg xmlns="http://www.w3.org/2000/svg" xmlns:xlink="http://www.w3.org/1999/xlink" version="1.1" viewBox="0 0 256 258">
 <g >
 <path fill="currentColor"
d=" M 93.67 122.25 C 93.43 121.84 92.91 118.74 92.53 115.38 C 91.83 109.25 91.83 109.25 105.67 106.63 C 113.27 105.19 126.40 102.94 134.84 101.62 C 143.27 100.31 150.66 98.74 151.25 98.15 C 152.51 96.89 145.83 90.25 142.44 89.40 C 141.30 89.11 135.89 90.00 130.43 91.39 C 117.83 94.57 93.43 100.00 91.70 100.00 C 90.85 100.00 89.95 97.36 89.12 92.41 C 88.41 88.24 87.99 84.69 88.17 84.52 C 89.66 83.13 161.63 70.30 162.59 71.26 C 163.23 71.89 157.12 95.69 153.73 105.79 C 151.50 112.44 151.50 112.44 124.00 117.68 C 94.14 123.38 94.33 123.35 93.67 122.25 Z "/>
</g>
</svg>