<?xml version="1.0" encoding="UTF-8" standalone="no"?>
<!DOCTYPE svg PUBLIC "-//W3C//DTD SVG 1.1//EN" "http://www.w3.org/Graphics/SVG/1.1/DTD/svg11.dtd" >
<svg xmlns="http://www.w3.org/2000/svg" xmlns:xlink="http://www.w3.org/1999/xlink" version="1.1" viewBox="0 0 256 256">
 <g >
 <path fill="currentColor"
d=" M 61.01 237.25 C 62.69 235.74 65.12 231.86 66.42 228.63 C 68.79 222.76 68.79 222.76 68.31 175.13 C 67.82 127.50 67.82 127.50 71.81 133.35 C 74.00 136.57 76.57 140.94 77.52 143.05 C 79.31 147.02 80.83 147.88 84.81 147.16 C 87.48 146.68 89.52 143.85 90.46 139.35 C 91.37 134.97 87.48 130.78 76.63 124.47 C 68.09 119.50 68.09 119.50 68.04 112.88 C 68.00 106.26 68.00 106.26 77.65 104.37 C 89.92 101.97 91.29 100.41 85.55 95.39 C 80.67 91.13 77.96 90.40 72.81 91.94 C 70.61 92.60 68.55 92.89 68.24 92.58 C 67.93 92.27 68.16 82.22 68.75 70.26 C 69.76 49.74 69.97 48.21 72.48 43.37 C 76.64 35.34 75.37 33.39 58.34 21.69 C 50.73 16.46 44.41 12.27 44.29 12.38 C 44.18 12.49 44.78 14.59 45.63 17.04 C 46.48 19.49 47.82 24.65 48.60 28.50 C 50.17 36.19 53.28 96.07 52.17 97.21 C 51.79 97.60 40.05 100.77 26.08 104.26 C 0.69 110.61 0.69 110.61 3.45 112.78 C 4.97 113.97 9.23 115.93 12.93 117.12 C 19.65 119.28 19.65 119.28 27.57 116.68 C 38.00 113.25 50.01 110.00 52.23 110.00 C 53.20 110.00 54.00 110.62 54.00 111.37 C 54.00 112.12 48.64 120.78 42.08 130.62 C 30.24 148.39 20.31 161.35 8.13 174.94 C 1.01 182.87 1.51 182.99 14.08 176.39 C 27.04 169.58 38.97 157.89 49.18 142.00 C 54.00 134.50 54.00 134.50 54.00 163.60 C 54.00 179.60 53.70 196.85 53.34 201.93 C 52.69 211.17 52.69 211.17 45.59 210.55 C 41.69 210.21 36.28 209.67 33.56 209.35 C 28.63 208.76 28.63 208.76 38.32 219.48 C 43.64 225.37 49.69 232.38 51.75 235.05 C 53.81 237.73 56.06 239.93 56.73 239.96 C 57.41 239.98 59.34 238.76 61.01 237.25 Z  M 241.29 233.68 C 244.47 232.89 248.01 231.40 249.15 230.37 C 253.52 226.43 253.40 225.02 246.83 204.43 C 243.42 193.76 240.42 185.25 240.16 185.51 C 239.90 185.77 238.66 192.33 237.42 200.08 C 236.17 207.83 234.90 214.43 234.59 214.74 C 233.32 216.02 219.74 218.04 208.43 218.64 C 196.35 219.29 196.35 219.29 192.93 216.22 C 189.50 213.15 189.50 213.15 189.60 200.82 C 189.71 187.85 190.90 177.34 194.20 160.00 C 196.20 149.50 196.20 149.50 188.77 142.50 C 181.35 135.50 181.35 135.50 182.74 129.93 C 184.13 124.35 184.13 124.35 201.31 121.21 C 210.77 119.49 221.65 117.56 225.50 116.92 C 229.35 116.29 232.88 115.42 233.35 114.98 C 234.56 113.87 226.89 106.71 222.26 104.62 C 218.42 102.89 218.32 102.90 206.94 106.35 C 192.00 110.88 187.82 111.67 188.45 109.86 C 188.71 109.11 190.78 100.48 193.06 90.67 C 197.21 72.85 197.21 72.85 194.93 70.43 C 193.68 69.10 192.85 67.85 193.08 67.65 C 193.31 67.46 196.65 66.54 200.50 65.60 C 219.02 61.12 223.00 59.79 223.00 58.11 C 223.00 54.37 217.21 49.27 209.36 46.11 C 206.47 44.95 205.29 45.21 194.75 49.38 C 188.45 51.87 176.43 55.90 168.05 58.32 C 152.82 62.73 152.82 62.73 160.16 67.94 C 167.50 73.14 167.50 73.14 173.90 72.47 C 180.30 71.81 180.30 71.81 179.60 81.06 C 178.82 91.40 175.19 114.15 174.17 115.15 C 173.80 115.50 171.59 116.11 169.25 116.48 C 164.13 117.32 164.19 117.72 167.00 103.00 C 168.10 97.23 169.00 91.95 169.00 91.27 C 169.00 90.59 165.24 85.87 160.63 80.77 C 156.03 75.67 151.29 69.57 150.09 67.21 C 147.85 62.79 140.58 55.00 138.70 55.00 C 138.11 55.00 129.50 57.67 119.57 60.94 C 100.53 67.19 86.94 71.00 83.66 71.00 C 81.75 71.00 81.75 71.06 83.50 73.00 C 86.12 75.89 95.33 80.00 99.19 80.00 C 101.80 79.99 117.78 76.14 131.25 72.27 C 132.75 71.84 133.00 72.47 133.00 76.63 C 132.99 81.29 131.09 99.19 130.54 99.78 C 130.39 99.94 128.95 99.31 127.34 98.38 C 124.53 96.77 124.09 96.81 116.45 99.35 C 112.07 100.81 108.19 102.00 107.81 102.00 C 107.44 102.00 106.99 100.79 106.82 99.32 C 106.59 97.37 104.33 94.84 98.59 90.09 C 90.67 83.54 90.67 83.54 91.36 90.97 C 91.74 95.05 92.50 107.55 93.06 118.75 C 94.44 146.67 93.12 169.63 88.46 198.55 C 87.85 202.35 88.06 202.82 91.84 206.24 C 94.06 208.25 97.16 210.55 98.73 211.36 C 101.58 212.84 101.58 212.84 115.54 193.94 C 123.22 183.55 129.80 175.04 130.17 175.03 C 130.54 175.01 131.83 176.61 133.05 178.58 C 134.92 181.61 135.65 182.06 137.88 181.54 C 141.06 180.79 145.00 176.60 145.00 173.97 C 145.00 172.92 144.05 170.10 142.90 167.72 C 140.97 163.77 139.63 162.77 127.29 156.14 C 119.86 152.15 113.60 149.06 113.39 149.27 C 113.18 149.49 115.76 153.83 119.12 158.93 C 124.22 166.68 125.00 168.42 123.86 169.49 C 119.07 174.01 103.75 186.09 103.34 185.67 C 102.61 184.94 104.15 144.38 104.95 143.08 C 105.32 142.48 113.02 139.95 122.06 137.46 C 143.19 131.64 141.31 132.44 139.94 129.90 C 139.32 128.72 137.92 127.53 136.85 127.25 C 135.25 126.83 135.01 126.18 135.54 123.62 C 136.29 119.95 149.48 79.88 151.37 75.50 C 152.64 72.58 152.69 72.68 153.31 79.50 C 154.68 94.39 155.01 105.80 154.27 112.91 C 153.50 120.33 153.50 120.33 147.12 121.63 C 143.61 122.34 140.57 123.10 140.36 123.31 C 140.15 123.52 142.73 125.62 146.09 127.98 C 152.20 132.27 152.20 132.27 160.63 130.50 C 165.27 129.53 169.29 128.95 169.56 129.23 C 170.69 130.35 161.30 154.62 153.98 169.50 C 145.85 186.02 138.04 198.65 130.33 207.73 C 125.89 212.95 125.89 212.95 130.15 211.45 C 141.22 207.54 153.50 195.83 162.42 180.68 C 168.59 170.19 170.39 166.38 176.61 150.50 C 181.80 137.29 181.56 134.92 179.55 180.50 C 178.06 214.38 178.35 219.59 182.09 225.64 C 185.45 231.08 189.83 233.79 197.03 234.90 C 205.84 236.25 234.09 235.47 241.29 233.68 Z  M 106.02 124.25 C 106.02 118.34 106.36 112.98 106.77 112.33 C 107.52 111.16 122.06 108.00 126.70 108.00 C 129.01 108.00 129.13 108.25 128.54 111.75 C 128.19 113.81 127.14 118.64 126.20 122.47 C 124.50 129.45 124.50 129.45 116.00 132.15 C 111.33 133.63 107.16 134.88 106.75 134.92 C 106.34 134.97 106.01 130.16 106.02 124.25 Z "/>
</g>
</svg>