<?xml version="1.0" encoding="UTF-8" standalone="no"?>
<!DOCTYPE svg PUBLIC "-//W3C//DTD SVG 1.1//EN" "http://www.w3.org/Graphics/SVG/1.1/DTD/svg11.dtd" >
<svg xmlns="http://www.w3.org/2000/svg" xmlns:xlink="http://www.w3.org/1999/xlink" version="1.1" viewBox="0 0 256 256">
 <g >
 <path fill="currentColor"
d=" M 229.73 246.01 C 253.44 244.69 253.86 244.54 244.77 240.59 C 218.69 229.25 193.75 211.66 169.63 187.58 C 155.17 173.15 138.74 154.28 139.26 152.72 C 139.46 152.11 142.73 149.78 146.52 147.55 C 154.76 142.71 172.16 125.86 180.32 114.82 C 183.45 110.60 186.00 106.91 186.00 106.63 C 186.00 105.90 166.00 92.66 165.60 93.12 C 165.42 93.33 164.03 97.33 162.52 102.00 C 159.01 112.83 151.50 128.51 145.51 137.50 C 140.85 144.50 140.85 144.50 141.44 138.00 C 142.33 128.20 144.94 94.18 145.24 88.54 C 145.50 83.58 145.50 83.58 172.50 78.70 C 187.35 76.02 199.89 73.45 200.36 73.00 C 202.13 71.31 194.69 62.48 188.27 58.64 C 187.59 58.23 183.31 59.08 178.77 60.52 C 169.30 63.52 150.94 68.00 148.10 68.00 C 146.29 68.00 146.21 67.27 146.63 53.75 C 146.98 42.05 147.54 37.94 149.71 30.78 C 152.33 22.14 152.34 22.03 150.43 19.91 C 145.14 14.03 119.96 -0.60 120.03 2.24 C 120.04 2.93 121.18 8.00 122.54 13.50 C 124.99 23.35 127.93 51.78 127.98 66.13 C 128.00 72.77 128.00 72.77 117.25 74.78 C 111.34 75.88 98.73 78.05 89.24 79.61 C 78.93 81.29 72.11 82.85 72.32 83.47 C 72.96 85.41 81.08 90.94 85.05 92.13 C 88.48 93.16 91.45 92.89 106.86 90.16 C 116.67 88.42 125.67 87.00 126.85 87.00 C 128.88 87.00 129.00 87.47 128.99 95.25 C 128.96 109.44 127.08 136.92 125.50 145.98 C 121.52 168.94 109.10 193.05 93.74 207.64 C 84.52 216.40 70.47 225.80 53.00 234.90 C 38.16 242.64 38.27 242.74 57.50 238.84 C 75.43 235.21 90.90 227.77 106.17 215.43 C 115.52 207.88 121.73 199.31 129.91 182.67 C 136.71 168.85 136.71 168.85 139.68 172.67 C 145.97 180.76 159.05 199.42 174.25 222.00 C 190.08 245.50 190.08 245.50 198.79 246.06 C 203.58 246.37 208.62 246.70 210.00 246.79 C 211.38 246.89 220.25 246.53 229.73 246.01 Z  M 43.54 226.53 C 45.45 224.03 49.36 212.57 57.60 185.28 C 63.88 164.50 69.21 146.99 69.43 146.36 C 69.66 145.74 69.15 144.24 68.30 143.02 C 66.79 140.86 66.66 140.99 62.42 148.93 C 60.04 153.39 53.49 166.59 47.87 178.27 C 42.26 189.95 37.34 199.87 36.96 200.32 C 36.57 200.78 33.64 200.67 30.46 200.08 C 27.27 199.49 24.54 199.12 24.40 199.26 C 23.84 199.83 32.71 226.94 33.94 228.42 C 36.27 231.23 40.61 230.37 43.54 226.53 Z  M 109.10 161.71 C 113.30 158.89 115.51 153.21 113.83 149.53 C 112.55 146.72 107.21 142.93 101.75 140.95 C 97.40 139.38 97.25 138.97 100.15 136.40 C 103.48 133.46 114.00 119.01 114.00 117.37 C 114.00 115.04 109.95 110.20 104.43 105.95 C 98.65 101.49 98.00 101.27 98.00 103.79 C 98.00 107.47 94.82 117.74 91.52 124.74 C 87.02 134.29 83.01 140.04 75.06 148.38 C 69.90 153.78 69.03 155.10 71.00 154.53 C 75.67 153.18 83.92 149.15 88.57 145.95 C 92.48 143.26 93.41 142.98 94.56 144.13 C 96.44 146.01 104.00 160.77 104.00 162.55 C 104.00 164.56 105.16 164.37 109.10 161.71 Z  M 195.14 155.50 C 199.24 146.47 196.89 142.22 186.02 138.97 C 179.39 137.00 165.00 134.90 165.00 135.92 C 165.00 136.22 170.71 142.20 177.70 149.20 C 191.67 163.20 191.64 163.19 195.14 155.50 Z  M 45.09 137.72 C 47.98 135.77 52.93 128.94 52.98 126.83 C 53.03 124.98 47.46 119.99 42.30 117.27 C 35.56 113.70 21.20 108.47 20.39 109.28 C 20.09 109.58 22.30 114.03 25.32 119.17 C 28.33 124.30 32.06 131.09 33.61 134.25 C 35.97 139.09 36.83 140.00 39.06 140.00 C 40.51 140.00 43.23 138.97 45.09 137.72 Z  M 61.00 81.62 C 63.04 80.27 65.66 77.24 66.83 74.88 C 68.84 70.82 68.86 70.50 67.22 68.64 C 66.28 67.57 61.90 65.00 57.50 62.93 C 49.19 59.03 28.98 51.69 28.33 52.34 C 28.13 52.54 30.75 56.04 34.16 60.10 C 40.97 68.23 46.95 77.06 49.01 82.01 C 50.22 84.94 50.62 85.16 53.80 84.64 C 55.72 84.33 58.95 82.97 61.00 81.62 Z "/>
</g>
</svg>