<?xml version="1.0" encoding="UTF-8" standalone="no"?>
<!DOCTYPE svg PUBLIC "-//W3C//DTD SVG 1.1//EN" "http://www.w3.org/Graphics/SVG/1.1/DTD/svg11.dtd" >
<svg xmlns="http://www.w3.org/2000/svg" xmlns:xlink="http://www.w3.org/1999/xlink" version="1.1" viewBox="0 0 256 257">
 <g >
 <path fill="currentColor"
d=" M 17.95 194.46 C 44.13 189.28 58.33 181.14 78.95 159.52 C 85.41 152.75 85.41 152.75 90.15 154.46 C 94.79 156.12 95.38 156.09 115.20 153.06 C 126.36 151.35 141.92 149.13 149.77 148.12 C 157.62 147.11 164.32 146.01 164.66 145.68 C 165.89 144.45 162.13 140.39 157.38 137.81 C 152.37 135.09 150.58 135.06 140.25 137.50 C 138.50 137.92 138.00 137.60 138.00 136.09 C 138.00 134.08 135.19 131.70 128.00 127.61 C 123.86 125.26 123.86 125.26 135.53 123.43 C 148.81 121.35 143.25 117.27 180.42 156.32 C 198.34 175.14 198.34 175.14 217.92 174.45 C 228.69 174.07 239.20 173.47 241.28 173.13 C 245.07 172.50 245.07 172.50 234.78 168.13 C 222.05 162.71 202.76 152.73 191.78 145.89 C 182.60 140.16 162.49 125.34 159.72 122.26 C 157.97 120.31 158.10 120.26 168.72 118.65 C 184.46 116.26 209.19 113.21 219.29 112.41 C 225.01 111.96 227.95 111.33 227.71 110.61 C 227.14 108.87 214.67 99.04 213.00 99.02 C 212.18 99.00 204.17 100.62 195.20 102.61 C 186.24 104.61 178.62 105.95 178.28 105.61 C 176.57 103.91 188.13 58.27 194.02 43.45 C 197.12 35.64 197.12 35.64 190.77 29.29 C 184.42 22.94 184.42 22.94 176.96 26.36 C 164.89 31.89 155.23 34.67 153.20 33.19 C 152.26 32.51 149.93 31.23 148.00 30.35 C 144.78 28.86 144.13 28.86 139.87 30.37 C 137.32 31.27 134.95 32.00 134.62 32.00 C 133.10 32.00 134.26 28.12 137.00 24.00 C 138.65 21.52 139.99 18.76 140.00 17.87 C 140.00 15.18 132.36 9.10 123.73 4.93 C 119.28 2.78 115.50 1.17 115.32 1.34 C 115.14 1.52 115.85 5.01 116.89 9.09 C 119.47 19.16 120.78 31.15 121.60 52.25 C 122.06 64.18 122.65 69.99 123.39 69.96 C 124.00 69.94 127.20 69.28 130.50 68.48 C 133.80 67.68 136.91 67.02 137.40 67.02 C 139.18 66.98 136.53 98.36 133.84 109.13 C 132.68 113.76 132.68 113.76 127.54 114.37 C 124.71 114.70 120.96 115.26 119.21 115.61 C 116.03 116.24 116.03 116.24 117.42 113.37 C 118.87 110.37 121.62 93.08 122.61 80.70 C 123.19 73.50 123.19 73.50 118.22 68.66 C 113.25 63.82 113.25 63.82 112.59 84.66 C 112.23 96.12 111.68 108.26 111.38 111.64 C 110.83 117.78 110.83 117.78 104.44 118.47 C 100.93 118.85 97.67 118.91 97.20 118.62 C 96.34 118.09 93.43 98.16 94.13 97.62 C 94.33 97.46 97.87 96.47 101.99 95.41 C 110.35 93.28 111.91 91.30 107.52 88.42 C 105.05 86.80 104.58 86.81 98.95 88.52 C 95.67 89.51 92.81 90.14 92.59 89.91 C 92.37 89.68 91.89 86.56 91.51 82.97 C 90.81 76.44 90.81 76.44 99.87 73.54 C 104.89 71.94 109.18 69.98 109.50 69.14 C 109.85 68.23 108.88 66.41 107.08 64.62 C 104.08 61.61 104.08 61.61 97.47 64.33 C 93.84 65.82 90.51 66.82 90.08 66.55 C 89.64 66.28 88.97 63.05 88.60 59.38 C 88.22 55.71 87.52 51.97 87.04 51.07 C 86.30 49.69 88.08 48.69 98.58 44.65 C 106.07 41.76 111.00 39.32 111.00 38.50 C 111.00 37.16 105.10 32.00 99.79 28.69 C 97.08 27.00 97.08 27.00 92.51 31.88 C 90.00 34.57 86.17 37.99 84.01 39.49 C 80.07 42.22 80.07 42.22 76.28 39.26 C 72.27 36.11 68.00 33.61 68.00 34.41 C 68.00 34.67 69.58 41.31 71.51 49.17 C 78.27 76.72 85.68 118.47 84.10 120.12 C 83.77 120.46 70.45 122.42 54.50 124.48 C 38.55 126.54 25.35 128.37 25.16 128.53 C 23.93 129.65 44.05 138.97 47.73 138.99 C 48.96 138.99 57.50 137.41 66.71 135.47 C 75.92 133.53 84.03 132.07 84.74 132.22 C 86.29 132.56 74.70 146.33 63.78 157.16 C 48.42 172.38 31.84 184.36 14.72 192.61 C 9.65 195.05 6.40 196.84 7.50 196.59 C 8.60 196.34 13.30 195.38 17.95 194.46 Z  M 136.49 191.52 C 151.34 188.99 163.93 186.47 164.47 185.93 C 166.12 184.28 163.64 181.63 158.72 179.79 C 154.30 178.15 153.73 178.17 141.63 180.49 C 134.74 181.82 119.99 184.30 108.84 186.00 C 97.69 187.71 88.39 189.27 88.19 189.48 C 87.73 189.94 94.96 193.70 99.95 195.60 C 104.08 197.17 101.89 197.42 136.49 191.52 Z  M 130.29 172.12 C 141.73 169.99 151.36 167.97 151.70 167.63 C 153.04 166.29 149.88 161.98 146.19 160.10 C 142.59 158.26 141.89 158.22 136.90 159.50 C 131.65 160.85 106.50 166.08 98.56 167.47 C 94.62 168.16 94.62 168.16 101.06 172.00 C 104.60 174.11 107.95 175.87 108.50 175.91 C 109.05 175.95 118.86 174.24 130.29 172.12 Z  M 109.61 236.14 C 108.91 234.93 106.78 217.89 107.27 217.40 C 107.54 217.13 116.02 215.58 126.13 213.96 C 136.23 212.34 145.57 210.76 146.87 210.46 C 149.12 209.93 149.21 210.09 148.56 213.56 C 148.18 215.57 146.99 220.07 145.91 223.57 C 144.03 229.64 143.78 229.95 140.22 230.57 C 138.17 230.93 130.53 232.47 123.24 234.00 C 115.95 235.52 109.81 236.49 109.61 236.14 Z  M 94.57 142.37 C 99.38 136.73 99.38 136.73 97.66 133.73 C 96.71 132.08 96.06 130.62 96.22 130.50 C 96.89 129.93 112.01 126.97 117.16 126.39 C 122.82 125.75 122.82 125.75 123.51 131.19 C 124.81 141.67 125.55 141.03 108.00 144.70 C 99.47 146.48 91.88 147.95 91.13 147.97 C 90.37 147.99 91.92 145.46 94.57 142.37 Z  M 144.00 109.94 C 144.00 103.59 149.28 68.12 150.57 65.78 C 151.92 63.35 151.91 62.74 150.55 60.10 C 148.52 56.17 146.14 55.58 139.87 57.45 C 136.99 58.30 133.54 59.00 132.20 59.00 C 129.77 59.00 129.77 58.99 130.47 51.25 C 130.86 46.99 131.48 43.23 131.84 42.90 C 132.20 42.58 136.32 41.27 141.00 39.99 C 145.68 38.72 150.28 37.29 151.23 36.82 C 152.42 36.22 154.46 36.70 157.73 38.34 C 161.87 40.42 163.23 40.63 168.00 39.94 C 178.53 38.42 178.32 38.34 177.56 43.75 C 176.40 51.96 176.75 51.65 166.44 53.59 C 161.23 54.57 157.11 55.83 157.29 56.38 C 157.48 56.93 158.81 58.26 160.25 59.34 C 162.28 60.85 164.28 61.26 168.94 61.12 C 175.93 60.91 175.81 60.63 173.70 72.00 C 172.50 78.50 172.50 78.50 162.25 79.94 C 156.61 80.73 152.00 81.68 152.00 82.05 C 152.00 82.43 152.97 83.96 154.15 85.47 C 156.22 88.09 156.56 88.17 162.65 87.52 C 168.84 86.86 169.00 86.90 168.94 89.17 C 168.91 90.45 167.89 95.31 166.69 99.97 C 164.50 108.44 164.50 108.44 158.50 109.64 C 145.02 112.33 144.00 112.35 144.00 109.94 Z "/>
</g>
</svg>