<?xml version="1.0" encoding="UTF-8" standalone="no"?>
<!DOCTYPE svg PUBLIC "-//W3C//DTD SVG 1.1//EN" "http://www.w3.org/Graphics/SVG/1.1/DTD/svg11.dtd" >
<svg xmlns="http://www.w3.org/2000/svg" xmlns:xlink="http://www.w3.org/1999/xlink" version="1.1" viewBox="0 0 256 256">
 <g >
 <path fill="currentColor"
d=" M 153.49 232.02 C 154.41 230.24 155.00 226.39 155.00 222.14 C 155.00 214.00 151.26 215.17 187.50 212.00 C 219.88 209.17 220.00 209.15 220.00 207.01 C 220.00 205.14 216.37 200.94 211.79 197.50 C 209.12 195.50 209.12 195.50 213.97 184.21 C 216.70 177.86 220.50 170.93 222.66 168.37 C 228.28 161.69 228.35 161.54 227.64 158.70 C 226.80 155.34 216.31 144.00 214.05 144.00 C 213.09 144.00 209.66 144.92 206.41 146.05 C 199.12 148.57 169.09 156.22 168.09 155.80 C 167.39 155.51 170.26 126.55 171.79 118.50 C 172.55 114.55 172.63 114.48 178.53 113.29 C 189.15 111.14 226.22 105.09 236.30 103.86 C 245.29 102.77 246.07 102.50 245.80 100.62 C 245.63 99.45 242.26 96.05 238.00 92.74 C 231.87 87.98 229.95 86.99 227.50 87.33 C 225.85 87.55 213.82 90.50 200.78 93.87 C 187.73 97.24 176.43 100.00 175.67 100.00 C 174.79 100.00 174.41 99.17 174.63 97.75 C 178.56 72.99 181.73 55.62 184.58 43.28 C 187.23 31.84 187.85 27.58 187.07 26.13 C 185.06 22.38 156.75 1.91 155.42 3.25 C 155.11 3.56 156.35 10.49 158.18 18.66 C 161.50 33.50 161.50 33.50 161.33 65.40 C 161.24 82.95 160.90 98.72 160.58 100.45 C 159.99 103.59 159.99 103.59 138.99 107.00 C 127.45 108.87 118.00 110.76 118.00 111.19 C 118.00 112.26 125.33 116.80 131.93 119.83 C 137.37 122.32 137.37 122.32 147.28 120.08 C 152.73 118.86 157.45 118.12 157.78 118.44 C 158.61 119.27 155.98 157.31 155.02 158.33 C 154.59 158.79 150.88 159.84 146.77 160.67 C 139.31 162.17 139.31 162.17 132.64 158.08 C 128.97 155.84 125.80 154.00 125.60 154.00 C 125.39 154.00 126.99 158.09 129.14 163.08 C 136.96 181.22 140.20 196.77 139.91 214.82 C 139.75 225.13 139.75 225.13 144.02 231.02 C 148.75 237.56 150.53 237.75 153.49 232.02 Z  M 60.24 226.56 C 67.24 223.51 82.73 217.20 94.66 212.54 C 106.58 207.88 116.67 203.54 117.08 202.88 C 118.29 200.92 117.03 199.16 113.59 198.03 C 110.82 197.11 108.63 197.52 98.18 200.86 C 86.00 204.76 86.00 204.76 86.00 197.97 C 86.00 191.18 86.00 191.18 93.75 186.94 C 102.43 182.19 112.54 175.56 113.53 173.95 C 114.17 172.91 105.18 160.07 103.77 160.02 C 103.36 160.01 101.85 162.36 100.41 165.25 C 96.35 173.35 86.57 187.68 86.24 186.00 C 85.82 183.81 87.55 145.12 88.10 144.57 C 88.35 144.32 93.95 142.66 100.53 140.89 C 107.11 139.11 112.88 137.34 113.34 136.95 C 114.70 135.78 111.33 130.40 107.85 128.20 C 104.62 126.16 104.62 126.16 96.62 129.08 C 92.22 130.69 88.42 132.00 88.18 132.00 C 87.95 132.00 88.00 130.74 88.31 129.19 C 88.75 126.98 88.20 125.66 85.69 122.94 C 83.93 121.04 81.20 118.55 79.60 117.40 C 76.71 115.31 76.71 115.31 92.60 111.32 C 107.86 107.50 108.49 107.24 108.22 104.93 C 107.91 102.24 102.34 96.00 100.24 96.00 C 99.04 96.00 50.86 108.96 50.27 109.44 C 50.14 109.54 53.39 111.53 57.49 113.86 C 63.71 117.40 65.51 118.00 68.38 117.46 C 72.09 116.76 71.86 115.98 73.35 134.37 C 73.51 136.40 68.22 138.24 46.86 143.54 C 36.07 146.21 36.07 146.21 42.16 150.70 C 48.25 155.18 48.25 155.18 59.48 152.09 C 65.66 150.39 71.45 149.00 72.36 149.00 C 73.84 149.00 74.00 151.82 74.00 178.92 C 74.00 213.34 77.57 208.60 46.00 216.08 C 23.34 221.46 25.34 220.77 27.16 222.59 C 29.41 224.83 45.34 233.02 46.50 232.53 C 47.05 232.29 53.23 229.61 60.24 226.56 Z  M 60.69 189.60 C 63.10 184.99 61.74 180.76 54.87 171.48 C 51.43 166.84 48.44 163.23 48.22 163.45 C 47.77 163.90 49.73 191.56 50.59 196.88 C 51.14 200.27 51.14 200.27 55.15 196.38 C 57.36 194.25 59.85 191.19 60.69 189.60 Z  M 33.50 112.51 C 46.55 103.19 60.50 88.45 76.60 66.94 C 80.95 61.13 85.21 55.31 86.07 54.02 C 87.63 51.68 87.65 51.70 92.16 59.58 C 94.66 63.94 98.39 70.76 100.47 74.75 C 102.55 78.74 104.63 82.00 105.09 82.00 C 105.55 82.00 107.51 80.61 109.44 78.92 C 112.38 76.34 114.97 71.11 114.99 67.71 C 115.01 66.13 105.52 56.84 98.84 51.88 C 95.08 49.09 92.00 46.62 92.00 46.38 C 92.00 46.14 94.19 42.95 96.88 39.27 C 101.33 33.17 101.67 32.33 100.75 29.55 C 99.78 26.62 78.28 4.38 77.34 5.33 C 77.09 5.58 77.53 9.18 78.31 13.32 C 79.63 20.33 79.60 21.28 77.81 26.68 C 74.87 35.53 64.97 55.58 58.23 66.29 C 50.29 78.92 37.22 96.42 25.76 109.76 C 12.32 125.41 12.56 124.92 20.50 120.60 C 24.35 118.50 30.20 114.86 33.50 112.51 Z  M 151.65 189.77 C 149.42 170.63 149.36 171.34 153.25 170.63 C 155.99 170.12 174.64 167.73 193.37 165.48 C 198.24 164.90 198.24 164.90 197.59 169.27 C 196.38 177.35 192.03 195.37 191.06 196.34 C 190.26 197.14 181.40 198.97 156.41 203.47 C 153.32 204.03 153.32 204.03 151.65 189.77 Z "/>
</g>
</svg>