<?xml version="1.0" encoding="UTF-8" standalone="no"?>
<!DOCTYPE svg PUBLIC "-//W3C//DTD SVG 1.1//EN" "http://www.w3.org/Graphics/SVG/1.1/DTD/svg11.dtd" >
<svg xmlns="http://www.w3.org/2000/svg" xmlns:xlink="http://www.w3.org/1999/xlink" version="1.1" viewBox="0 0 256 256">
 <g >
 <path fill="currentColor"
d=" M 68.00 219.14 C 83.50 200.09 83.50 200.09 85.45 204.05 C 87.10 207.41 87.87 208.00 90.56 208.00 C 92.30 208.00 94.92 207.07 96.37 205.93 C 101.91 201.57 98.63 192.23 88.29 182.95 C 83.97 179.07 72.55 172.00 70.60 172.00 C 70.26 172.00 72.24 176.49 74.99 181.98 C 77.75 187.47 80.00 192.36 80.00 192.84 C 80.00 193.70 59.65 210.00 58.57 210.00 C 58.25 210.00 58.01 202.01 58.01 192.25 C 58.03 174.50 58.03 174.50 77.76 168.60 C 88.62 165.35 98.17 162.06 99.00 161.29 C 100.32 160.05 100.03 159.46 96.63 156.32 C 92.76 152.75 92.76 152.75 95.99 138.13 C 98.83 125.23 99.74 122.69 103.66 116.69 C 108.75 108.88 108.69 107.76 102.98 102.60 C 96.93 97.14 95.31 97.11 84.20 102.24 C 78.87 104.71 69.64 108.43 63.69 110.52 C 52.88 114.31 52.88 114.31 47.33 108.91 C 41.78 103.50 41.78 103.50 42.41 109.00 C 44.17 124.49 46.05 150.58 46.61 167.50 C 47.48 193.64 45.91 208.28 40.92 220.63 C 39.78 223.45 39.93 224.33 42.44 229.47 C 44.93 234.56 50.21 239.61 51.93 238.54 C 52.24 238.34 59.47 229.61 68.00 219.14 Z  M 219.07 231.26 C 221.39 226.58 221.12 223.20 217.92 216.88 C 215.35 211.80 211.37 208.76 202.32 204.97 C 193.31 201.19 166.86 191.80 166.44 192.23 C 166.28 192.38 170.20 195.88 175.15 200.01 C 185.97 209.02 203.21 226.50 208.41 233.73 C 212.15 238.95 212.17 238.96 214.57 237.23 C 215.89 236.28 217.91 233.59 219.07 231.26 Z  M 104.50 230.38 C 116.69 227.96 130.43 222.94 143.67 216.07 C 155.63 209.87 156.52 209.20 156.81 206.29 C 157.13 203.00 154.05 196.02 149.71 190.24 C 147.27 186.97 147.27 186.97 142.60 192.43 C 133.09 203.56 113.77 218.26 95.92 227.94 C 86.50 233.05 86.50 233.05 92.00 232.41 C 95.03 232.06 100.65 231.14 104.50 230.38 Z  M 134.00 186.07 C 157.87 181.91 187.00 178.32 208.00 176.96 C 234.35 175.25 238.13 174.75 239.36 172.79 C 240.93 170.29 237.00 166.56 228.47 162.45 C 221.44 159.07 221.43 159.07 215.97 160.53 C 208.61 162.49 179.87 168.14 179.05 167.78 C 178.68 167.63 179.70 162.52 181.30 156.44 C 184.21 145.38 184.21 145.38 198.64 143.15 C 206.57 141.92 213.72 140.66 214.53 140.35 C 218.32 138.90 214.92 133.95 207.58 130.26 C 203.73 128.32 203.55 128.32 196.58 130.13 C 192.69 131.14 189.33 131.97 189.12 131.98 C 188.68 132.00 189.60 127.16 190.49 124.88 C 190.95 123.69 188.83 121.47 182.49 116.52 C 177.75 112.82 173.71 109.96 173.51 110.16 C 173.31 110.35 172.83 116.03 172.43 122.76 C 172.04 129.50 171.22 135.61 170.61 136.34 C 169.76 137.37 148.55 142.02 144.82 142.00 C 144.44 142.00 143.99 140.76 143.82 139.25 C 143.56 137.06 141.78 135.33 135.07 130.76 C 130.44 127.61 126.51 125.16 126.34 125.33 C 126.17 125.50 126.72 128.95 127.57 132.99 C 130.19 145.60 130.52 145.19 116.24 147.39 C 102.55 149.50 102.34 149.82 111.52 154.47 C 117.09 157.29 117.09 157.29 124.06 155.76 C 127.89 154.92 131.23 154.56 131.47 154.96 C 132.30 156.30 134.36 173.97 133.76 174.57 C 133.43 174.90 124.75 176.24 114.45 177.55 C 104.16 178.85 95.59 180.08 95.40 180.27 C 95.21 180.46 98.53 182.75 102.78 185.36 C 108.80 189.07 111.16 190.00 113.50 189.62 C 115.15 189.35 124.38 187.75 134.00 186.07 Z  M 12.50 125.40 C 31.25 116.25 50.49 96.62 71.00 65.72 C 80.80 50.94 80.80 50.94 90.02 61.47 C 95.09 67.26 99.78 72.00 100.45 72.00 C 102.56 72.00 106.14 67.32 107.03 63.39 C 107.83 59.80 107.66 59.37 104.00 55.88 C 101.52 53.53 97.11 51.03 91.81 49.00 C 87.24 47.24 83.35 45.66 83.17 45.49 C 82.99 45.31 83.57 44.06 84.46 42.71 C 86.00 40.36 85.94 40.08 83.36 36.87 C 78.68 31.06 72.63 25.00 71.50 25.00 C 70.91 25.00 68.95 29.49 67.15 34.99 C 57.97 63.01 39.13 91.68 12.30 118.48 C -0.25 131.02 -0.23 131.61 12.50 125.40 Z  M 136.50 113.99 C 152.35 112.69 159.00 111.31 159.00 109.30 C 159.00 107.27 152.52 101.17 149.59 100.43 C 148.34 100.12 144.59 100.57 141.26 101.43 C 132.48 103.71 129.53 103.49 127.07 100.37 C 125.58 98.46 125.00 96.28 125.00 92.50 C 125.00 87.28 125.00 87.28 130.75 86.61 C 133.91 86.24 141.34 84.79 147.25 83.39 C 159.37 80.50 160.04 79.70 154.83 74.33 C 151.67 71.06 151.67 71.06 153.56 66.78 C 154.60 64.43 157.90 59.91 160.88 56.74 C 165.76 51.58 166.21 50.75 165.24 48.62 C 163.63 45.08 158.09 39.10 154.91 37.45 C 152.21 36.06 151.86 36.19 144.75 41.25 C 140.70 44.14 133.68 48.29 129.15 50.47 C 122.33 53.76 120.63 54.23 119.21 53.23 C 115.88 50.86 107.57 46.09 107.29 46.38 C 107.13 46.54 107.95 49.33 109.12 52.59 C 110.79 57.25 111.61 63.69 112.96 83.00 C 114.80 109.32 115.27 111.24 120.50 113.58 C 124.14 115.21 122.19 115.16 136.50 113.99 Z  M 219.42 105.69 C 225.03 104.94 228.50 104.01 228.77 103.18 C 229.02 102.45 227.08 99.82 224.47 97.32 C 220.03 93.06 219.47 92.81 215.61 93.37 C 191.31 96.90 186.98 97.22 184.62 95.67 C 182.86 94.52 182.10 92.82 181.58 88.92 C 181.20 86.05 181.25 83.38 181.70 82.97 C 182.14 82.57 190.49 81.21 200.25 79.94 C 216.29 77.86 218.00 77.45 218.00 75.72 C 218.00 74.66 216.49 72.29 214.65 70.45 C 211.30 67.10 211.30 67.10 214.78 60.80 C 216.70 57.33 220.05 52.64 222.23 50.36 C 225.54 46.91 226.02 45.91 225.15 44.28 C 223.73 41.63 216.81 35.47 213.09 33.55 C 210.15 32.02 209.89 32.09 203.78 35.80 C 200.33 37.89 194.57 41.23 191.00 43.21 C 184.50 46.80 184.50 46.80 176.05 39.44 C 171.40 35.38 167.54 32.17 167.46 32.28 C 167.39 32.40 167.70 36.55 168.15 41.50 C 168.60 46.45 168.90 61.39 168.83 74.69 C 168.68 102.11 168.79 102.58 176.33 106.14 C 180.11 107.93 181.88 108.06 195.50 107.50 C 203.75 107.16 214.51 106.35 219.42 105.69 Z  M 87.60 91.36 C 98.49 88.63 101.00 87.24 101.00 83.91 C 101.00 81.75 95.64 78.01 92.54 78.00 C 91.46 78.00 83.62 80.11 75.11 82.70 C 59.64 87.40 59.64 87.40 66.55 90.70 C 70.35 92.51 74.27 94.00 75.26 94.00 C 76.25 94.00 81.80 92.81 87.60 91.36 Z  M 58.00 155.08 C 58.00 146.17 58.00 146.17 70.25 142.08 C 76.99 139.84 82.97 138.00 83.55 138.00 C 84.71 138.00 83.46 154.98 82.21 156.14 C 81.56 156.74 59.69 164.00 58.52 164.00 C 58.23 164.00 58.00 159.99 58.00 155.08 Z  M 58.00 128.64 C 58.00 120.28 58.00 120.28 70.78 116.64 C 77.81 114.64 84.11 113.00 84.78 113.00 C 85.64 113.00 86.00 115.48 86.00 121.50 C 86.00 129.96 85.71 130.74 83.16 129.12 C 82.31 128.58 77.63 129.86 70.31 132.63 C 63.98 135.04 58.62 137.00 58.40 137.00 C 58.18 137.00 58.00 133.24 58.00 128.64 Z  M 145.00 162.81 C 145.00 152.36 145.00 152.36 157.50 149.91 C 171.96 147.07 170.90 146.05 168.84 160.80 C 167.52 170.24 167.34 170.43 158.50 171.35 C 155.20 171.70 150.81 172.27 148.75 172.62 C 145.00 173.26 145.00 173.26 145.00 162.81 Z  M 125.00 70.54 C 125.00 61.93 125.00 61.93 133.25 57.93 C 141.50 53.93 141.50 53.93 141.76 57.22 C 141.90 59.02 141.44 63.86 140.74 67.96 C 139.45 75.43 139.45 75.43 135.45 76.58 C 124.36 79.80 125.00 80.17 125.00 70.54 Z  M 182.43 63.84 C 183.50 55.67 183.50 55.67 193.43 52.35 C 198.89 50.52 203.54 49.20 203.76 49.42 C 203.98 49.65 203.11 54.03 201.83 59.16 C 199.50 68.49 199.50 68.49 192.50 70.17 C 180.64 73.00 181.19 73.34 182.43 63.84 Z "/>
</g>
</svg>