<?xml version="1.0" encoding="UTF-8" standalone="no"?>
<!DOCTYPE svg PUBLIC "-//W3C//DTD SVG 1.1//EN" "http://www.w3.org/Graphics/SVG/1.1/DTD/svg11.dtd" >
<svg xmlns="http://www.w3.org/2000/svg" xmlns:xlink="http://www.w3.org/1999/xlink" version="1.1" viewBox="0 0 256 256">
 <g >
 <path fill="currentColor"
d=" M 137.95 215.54 C 151.73 199.06 163.00 185.02 163.00 184.35 C 163.00 181.89 160.81 181.86 157.18 184.26 C 155.14 185.61 147.12 191.67 139.34 197.73 C 131.57 203.80 124.70 209.07 124.09 209.44 C 123.27 209.95 123.04 201.06 123.24 176.50 C 123.50 142.86 123.50 142.86 129.00 140.88 C 142.13 136.15 138.87 134.81 155.19 151.62 C 167.66 164.46 175.37 172.64 202.08 201.35 C 206.66 206.28 206.66 206.28 221.08 204.57 C 235.68 202.83 246.44 200.90 251.00 199.19 C 253.26 198.34 252.80 198.04 246.21 196.07 C 236.13 193.06 215.71 182.61 202.19 173.56 C 180.72 159.18 148.13 133.38 149.69 132.01 C 150.13 131.61 162.11 126.38 176.31 120.39 C 202.11 109.50 202.11 109.50 195.31 103.20 C 184.13 92.87 184.73 93.07 179.58 97.82 C 169.81 106.82 144.71 123.47 128.25 131.87 C 124.00 134.04 124.00 134.04 124.00 129.03 C 124.00 124.03 124.00 124.03 119.50 122.90 C 117.03 122.27 115.00 121.55 115.00 121.28 C 115.00 121.02 117.53 116.33 120.63 110.86 C 123.72 105.39 129.05 94.80 132.46 87.33 C 138.65 73.73 138.65 73.73 157.58 69.86 C 167.98 67.73 177.79 65.70 179.36 65.35 C 181.84 64.79 182.15 64.96 181.67 66.60 C 181.37 67.65 180.14 71.79 178.94 75.80 C 177.75 79.82 176.95 83.29 177.17 83.51 C 177.80 84.13 209.93 73.47 211.18 72.22 C 214.00 69.40 207.25 61.56 194.66 53.05 C 189.81 49.77 189.81 49.77 174.66 53.88 C 157.04 58.64 145.07 61.41 144.51 60.84 C 144.29 60.62 146.12 54.15 148.57 46.47 C 155.05 26.23 155.03 26.53 149.55 20.33 C 145.18 15.38 132.97 5.00 131.52 5.00 C 131.14 5.00 131.13 11.86 131.50 20.25 C 132.17 35.50 132.17 35.50 128.63 47.68 C 122.74 67.91 124.05 66.31 111.37 68.84 C 105.39 70.03 99.94 71.00 99.26 71.00 C 98.58 71.00 96.61 68.19 94.87 64.75 C 91.70 58.50 91.70 58.50 88.93 69.09 C 86.31 79.11 82.16 89.41 78.47 95.03 C 77.09 97.13 76.99 98.24 77.89 101.53 C 79.38 106.98 82.63 112.00 84.66 112.00 C 85.58 112.00 88.28 109.98 90.64 107.52 C 95.17 102.79 97.68 96.39 98.89 86.52 C 99.50 81.50 99.50 81.50 105.00 80.88 C 108.03 80.53 112.19 79.92 114.25 79.51 C 116.43 79.09 118.00 79.17 118.00 79.71 C 118.00 80.22 114.90 86.91 111.10 94.57 C 91.99 133.17 65.69 161.86 29.64 183.46 C 17.85 190.53 18.21 190.73 34.16 185.91 C 59.86 178.16 84.40 160.53 103.50 136.11 C 108.50 129.72 108.50 129.72 109.12 144.61 C 109.46 152.80 109.80 173.48 109.87 190.57 C 110.00 221.65 110.00 221.65 102.00 228.06 C 97.60 231.59 94.00 234.78 94.00 235.15 C 94.00 237.24 109.04 246.22 111.70 245.72 C 112.36 245.60 124.17 232.02 137.95 215.54 Z  M 29.96 141.07 C 30.53 140.00 31.00 136.00 31.00 132.17 C 31.00 125.22 31.00 125.22 38.17 123.60 C 42.11 122.71 51.67 120.82 59.42 119.40 C 67.16 117.99 74.08 116.65 74.78 116.43 C 76.72 115.84 73.75 110.68 69.53 107.31 C 66.07 104.55 66.07 104.55 74.44 88.53 C 83.90 70.42 83.93 69.97 76.31 64.75 C 68.72 59.55 68.42 59.53 57.99 63.58 C 47.08 67.82 26.28 75.00 24.92 75.00 C 24.41 75.00 23.99 74.44 23.98 73.75 C 23.98 73.06 19.55 70.22 14.16 67.44 C 4.35 62.37 4.35 62.37 7.21 71.44 C 10.93 83.23 15.47 106.02 17.48 123.00 C 19.08 136.50 19.08 136.50 22.79 139.71 C 27.11 143.45 28.54 143.72 29.96 141.07 Z  M 29.61 113.25 C 28.64 108.36 25.89 86.78 26.20 86.49 C 28.02 84.82 53.68 78.35 54.65 79.31 C 55.49 80.16 53.26 99.65 51.68 105.14 C 50.44 109.48 50.40 109.51 41.47 112.68 C 36.54 114.44 31.97 115.90 31.33 115.93 C 30.69 115.97 29.91 114.76 29.61 113.25 Z "/>
</g>
</svg>