<?xml version="1.0" encoding="UTF-8" standalone="no"?>
<!DOCTYPE svg PUBLIC "-//W3C//DTD SVG 1.1//EN" "http://www.w3.org/Graphics/SVG/1.1/DTD/svg11.dtd" >
<svg xmlns="http://www.w3.org/2000/svg" xmlns:xlink="http://www.w3.org/1999/xlink" version="1.1" viewBox="0 0 256 256">
 <g >
 <path fill="currentColor"
d=" M 65.65 224.22 C 71.00 221.44 75.28 216.20 77.53 209.68 C 79.03 205.34 79.39 200.02 79.76 176.84 C 80.21 149.19 80.21 149.19 84.85 148.05 C 94.57 145.67 110.00 140.65 110.00 139.87 C 110.00 139.42 107.71 134.76 104.91 129.52 C 99.21 118.86 99.76 119.13 89.00 121.50 C 85.42 122.29 81.94 122.95 81.25 122.96 C 80.29 122.99 80.00 118.06 80.00 101.53 C 80.00 80.06 80.00 80.06 93.75 79.78 C 107.50 79.50 107.50 79.50 107.78 66.75 C 108.06 54.00 108.06 54.00 94.03 54.00 C 80.00 54.00 80.00 54.00 80.00 42.00 C 80.00 30.00 80.00 30.00 57.50 30.00 C 35.00 30.00 35.00 30.00 35.00 42.00 C 35.00 54.00 35.00 54.00 21.50 54.00 C 8.00 54.00 8.00 54.00 8.00 67.00 C 8.00 80.00 8.00 80.00 21.52 80.00 C 35.04 80.00 35.04 80.00 34.77 104.24 C 34.50 128.48 34.50 128.48 19.50 130.33 C 11.25 131.35 4.40 132.28 4.28 132.39 C 3.93 132.74 8.87 161.20 9.37 161.70 C 9.81 162.14 29.78 159.35 33.25 158.36 C 34.87 157.90 35.00 159.16 35.00 174.98 C 35.00 191.81 34.96 192.13 32.55 194.55 C 29.72 197.37 28.62 197.47 20.74 195.61 C 14.99 194.26 14.99 194.26 12.43 202.88 C 11.02 207.62 9.44 212.82 8.92 214.44 C 8.40 216.05 8.32 217.69 8.74 218.07 C 9.90 219.14 27.43 224.08 35.42 225.59 C 45.95 227.58 60.46 226.92 65.65 224.22 Z  M 230.29 218.42 C 235.36 216.69 241.86 210.99 244.70 205.80 C 246.38 202.72 246.52 197.64 246.79 130.00 C 247.01 74.74 246.79 56.43 245.85 53.00 C 244.23 47.13 235.92 38.59 230.39 37.12 C 228.25 36.56 214.57 36.00 200.00 35.89 C 173.50 35.68 173.50 35.68 167.00 38.42 C 156.81 42.70 157.00 42.69 157.00 39.04 C 157.00 35.85 157.00 35.85 143.17 36.17 C 129.78 36.49 129.18 36.60 124.44 39.53 C 121.42 41.40 118.40 44.42 116.53 47.45 C 113.50 52.34 113.50 52.34 113.22 126.42 C 112.97 192.36 113.12 200.96 114.54 204.72 C 116.41 209.65 124.25 217.16 129.17 218.73 C 131.31 219.41 149.17 219.83 179.07 219.90 C 219.10 219.99 226.30 219.78 230.29 218.42 Z  M 157.00 132.56 C 157.00 60.52 155.46 68.91 169.50 64.33 C 175.75 62.29 180.18 61.61 189.75 61.24 C 202.00 60.76 202.00 60.76 202.00 127.88 C 202.00 195.00 202.00 195.00 179.50 195.00 C 157.00 195.00 157.00 195.00 157.00 132.56 Z "/>
</g>
</svg>