<?xml version="1.0" encoding="UTF-8" standalone="no"?>
<!DOCTYPE svg PUBLIC "-//W3C//DTD SVG 1.1//EN" "http://www.w3.org/Graphics/SVG/1.1/DTD/svg11.dtd" >
<svg xmlns="http://www.w3.org/2000/svg" xmlns:xlink="http://www.w3.org/1999/xlink" version="1.1" viewBox="0 0 256 256">
 <g >
 <path fill="currentColor"
d=" M 218.88 223.36 C 226.32 221.42 232.36 217.78 234.88 213.70 C 239.88 205.60 240.00 203.63 239.99 128.54 C 239.99 82.25 239.63 57.20 238.93 54.68 C 237.56 49.77 232.36 44.04 226.72 41.22 C 222.28 39.00 222.28 39.00 119.64 39.00 C 17.00 39.00 17.00 39.00 17.00 52.00 C 17.00 65.00 17.00 65.00 107.00 65.00 C 197.00 65.00 197.00 65.00 197.00 93.47 C 197.00 121.94 197.00 121.94 189.14 113.78 C 181.29 105.62 181.29 105.62 148.39 122.13 C 102.42 145.21 55.66 165.50 20.79 177.51 C 7.08 182.23 7.08 182.23 18.09 198.59 C 24.14 207.58 29.44 215.15 29.85 215.41 C 30.61 215.88 64.25 201.67 93.50 188.53 C 117.12 177.92 147.47 162.25 172.87 147.54 C 185.72 140.09 196.41 134.00 196.62 134.00 C 196.83 134.00 197.00 146.51 197.00 161.81 C 197.00 183.87 196.71 190.01 195.62 191.50 C 192.90 195.22 172.65 194.50 139.02 189.48 C 130.49 188.20 123.47 187.24 123.43 187.33 C 122.19 189.99 115.97 213.30 116.39 213.72 C 118.04 215.38 166.00 223.43 183.13 224.92 C 195.69 226.02 211.27 225.34 218.88 223.36 Z  M 125.53 126.40 C 135.14 118.38 142.74 111.40 142.43 110.89 C 140.66 108.02 117.31 94.23 96.00 83.46 C 89.39 80.12 65.18 69.70 60.92 68.35 C 59.68 67.96 42.84 79.30 37.67 84.00 C 37.22 84.41 44.87 90.75 54.67 98.08 C 76.17 114.14 84.41 120.75 97.27 132.25 C 102.65 137.06 107.28 141.00 107.56 141.00 C 107.83 141.00 115.92 134.43 125.53 126.40 Z "/>
</g>
</svg>