<?xml version="1.0" encoding="UTF-8" standalone="no"?>
<!DOCTYPE svg PUBLIC "-//W3C//DTD SVG 1.1//EN" "http://www.w3.org/Graphics/SVG/1.1/DTD/svg11.dtd" >
<svg xmlns="http://www.w3.org/2000/svg" xmlns:xlink="http://www.w3.org/1999/xlink" version="1.1" viewBox="0 0 256 256">
 <g >
 <path fill="currentColor"
d=" M 48.50 226.93 C 76.52 224.80 100.64 221.39 122.40 216.50 C 133.30 214.04 133.30 214.04 142.90 216.47 C 163.03 221.57 187.50 224.92 219.87 227.03 C 229.42 227.66 237.58 227.79 238.00 227.33 C 238.42 226.87 241.94 219.30 245.82 210.50 C 252.89 194.50 252.89 194.50 224.19 193.89 C 208.41 193.55 194.15 193.21 192.50 193.12 C 189.99 192.99 191.53 191.90 201.80 186.51 C 217.32 178.36 228.66 170.55 230.70 166.61 C 234.38 159.49 231.57 147.95 225.48 145.17 C 223.66 144.34 211.94 144.00 185.40 144.00 C 147.89 144.00 147.89 144.00 148.20 139.25 C 148.50 134.50 148.50 134.50 186.05 134.00 C 219.52 133.55 223.88 133.31 226.25 131.76 C 230.10 129.23 233.82 125.07 236.32 120.50 C 238.43 116.62 238.50 115.52 238.50 83.92 C 238.50 51.34 238.50 51.34 235.47 46.42 C 233.75 43.63 230.35 40.09 227.61 38.25 C 222.77 35.00 222.77 35.00 189.36 35.00 C 155.94 35.00 155.94 35.00 156.22 47.25 C 156.50 59.50 156.50 59.50 176.25 59.77 C 196.00 60.04 196.00 60.04 196.00 67.52 C 196.00 75.00 196.00 75.00 176.50 75.00 C 157.00 75.00 157.00 75.00 157.00 85.00 C 157.00 95.00 157.00 95.00 176.50 95.00 C 196.00 95.00 196.00 95.00 196.00 102.00 C 196.00 109.00 196.00 109.00 172.00 109.00 C 148.00 109.00 148.00 109.00 148.00 69.00 C 148.00 29.00 148.00 29.00 126.00 29.00 C 104.00 29.00 104.00 29.00 104.00 69.00 C 104.00 109.00 104.00 109.00 83.00 109.00 C 62.00 109.00 62.00 109.00 62.00 102.00 C 62.00 95.00 62.00 95.00 78.00 95.00 C 94.00 95.00 94.00 95.00 94.00 85.00 C 94.00 75.00 94.00 75.00 78.00 75.00 C 62.00 75.00 62.00 75.00 62.00 69.16 C 62.00 61.99 62.55 61.65 77.83 59.39 C 83.70 58.53 90.64 56.90 93.25 55.79 C 98.00 53.75 98.00 53.75 98.00 41.38 C 98.00 34.57 97.83 29.00 97.63 29.00 C 97.42 29.00 95.21 29.91 92.70 31.01 C 90.20 32.12 83.73 33.66 78.32 34.42 C 72.92 35.19 67.23 36.31 65.68 36.91 C 62.08 38.31 62.00 38.30 62.00 36.42 C 62.00 35.05 60.24 34.89 48.25 35.17 C 34.83 35.49 34.39 35.57 30.00 38.54 C 27.48 40.24 24.40 43.54 23.00 46.04 C 20.51 50.49 20.50 50.57 20.18 81.46 C 19.98 101.68 20.25 113.93 20.97 116.78 C 22.44 122.62 26.47 128.51 30.88 131.25 C 34.41 133.44 35.40 133.51 69.00 134.00 C 103.50 134.50 103.50 134.50 103.80 139.25 C 104.11 144.00 104.11 144.00 63.55 144.00 C 23.00 144.00 23.00 144.00 23.00 157.00 C 23.00 170.00 23.00 170.00 29.75 170.01 C 36.46 170.02 36.56 170.06 45.50 176.49 C 50.45 180.05 60.80 186.18 68.50 190.12 C 83.67 197.89 83.53 197.81 82.92 198.41 C 81.46 199.85 13.32 209.00 4.07 209.00 C 3.10 209.00 3.77 210.80 9.37 223.35 C 11.98 229.20 11.98 229.20 23.74 228.56 C 30.21 228.20 41.35 227.47 48.50 226.93 Z  M 113.50 183.07 C 102.61 180.17 86.57 174.46 81.26 171.57 C 78.77 170.23 82.59 170.08 119.95 170.04 C 145.41 170.02 161.03 170.36 160.45 170.93 C 159.02 172.32 129.87 185.08 127.00 185.57 C 125.62 185.80 119.55 184.68 113.50 183.07 Z "/>
</g>
</svg>