<?xml version="1.0" encoding="UTF-8" standalone="no"?>
<!DOCTYPE svg PUBLIC "-//W3C//DTD SVG 1.1//EN" "http://www.w3.org/Graphics/SVG/1.1/DTD/svg11.dtd" >
<svg xmlns="http://www.w3.org/2000/svg" xmlns:xlink="http://www.w3.org/1999/xlink" version="1.1" viewBox="0 0 256 256">
 <g >
 <path fill="currentColor"
d=" M 38.24 222.90 C 44.96 220.09 53.55 216.24 57.33 214.33 C 61.11 212.43 64.39 211.06 64.61 211.28 C 64.84 211.50 64.34 213.63 63.50 216.00 C 62.66 218.37 62.18 220.52 62.43 220.77 C 64.14 222.47 100.83 227.99 110.54 227.99 C 118.71 228.00 128.04 225.82 132.04 222.97 C 136.01 220.15 139.15 212.98 139.76 205.38 C 140.05 201.81 140.64 199.25 141.08 199.69 C 141.52 200.14 143.51 204.32 145.50 209.00 C 151.49 223.06 153.20 226.06 154.93 225.58 C 155.79 225.34 163.70 223.52 172.50 221.52 C 181.30 219.53 189.31 217.66 190.30 217.37 C 191.86 216.90 191.59 216.27 188.30 212.60 C 186.21 210.27 180.90 204.17 176.50 199.05 C 172.10 193.93 165.79 187.36 162.47 184.44 C 156.45 179.15 156.45 179.15 148.97 180.57 C 144.86 181.36 141.16 182.00 140.75 182.00 C 140.34 182.00 140.00 179.53 140.00 176.50 C 140.00 171.00 140.00 171.00 126.25 170.98 C 112.50 170.95 112.50 170.95 118.20 168.61 C 121.34 167.32 126.02 165.15 128.61 163.80 C 133.31 161.33 133.31 161.33 140.41 166.73 C 148.15 172.62 163.62 180.50 174.24 183.96 C 180.93 186.14 181.01 186.21 186.53 194.67 C 189.58 199.35 194.59 208.21 197.65 214.34 C 200.72 220.48 203.30 225.58 203.38 225.68 C 203.54 225.87 236.20 218.33 239.26 217.40 C 240.70 216.96 239.68 215.28 233.63 208.15 C 229.57 203.36 225.49 198.82 224.57 198.06 C 223.65 197.29 222.49 195.92 222.01 195.01 C 221.20 193.51 221.73 193.44 227.65 194.23 C 231.24 194.71 236.01 194.97 238.25 194.80 C 242.34 194.50 242.34 194.50 247.18 180.00 C 249.84 172.03 252.25 164.77 252.54 163.87 C 253.01 162.39 249.99 162.18 220.28 161.68 C 188.40 161.15 179.61 160.38 167.00 157.03 C 161.63 155.60 150.98 150.98 151.06 150.11 C 151.09 149.78 153.89 147.47 157.29 145.00 C 163.48 140.50 163.48 140.50 155.17 140.21 C 147.97 139.96 146.91 139.69 147.20 138.21 C 147.48 136.72 149.18 136.46 160.26 136.22 C 168.85 136.03 173.00 136.29 173.00 137.01 C 173.00 137.61 172.26 141.02 171.36 144.61 C 170.42 148.36 170.10 151.47 170.61 151.94 C 171.81 153.05 190.90 155.86 204.89 156.99 C 225.75 158.69 237.02 155.72 241.00 147.50 C 242.80 143.79 243.00 141.33 243.00 123.43 C 242.99 105.43 242.80 103.19 241.04 100.30 C 236.93 93.55 236.54 93.49 196.50 93.55 C 162.03 93.60 160.24 93.69 154.28 95.80 C 150.86 97.01 147.82 98.00 147.53 98.00 C 147.24 98.00 147.00 96.88 147.00 95.50 C 147.00 93.00 147.00 93.00 134.75 93.02 C 117.73 93.05 110.31 94.24 107.07 97.47 C 104.51 100.03 104.50 100.14 104.00 120.64 C 103.50 141.25 103.50 141.25 95.50 145.62 C 78.12 155.12 56.58 161.74 24.50 167.42 C 0.15 171.73 2.02 169.97 10.13 181.00 C 13.97 186.22 17.47 191.11 17.91 191.87 C 18.58 193.01 20.67 192.90 30.60 191.22 C 37.15 190.12 42.63 189.33 42.78 189.47 C 42.94 189.62 35.20 194.86 25.59 201.12 C 15.98 207.38 8.22 212.90 8.36 213.40 C 8.55 214.12 24.83 227.71 25.77 227.94 C 25.91 227.97 31.53 225.70 38.24 222.90 Z  M 48.11 146.75 C 48.20 138.89 48.45 136.65 48.97 139.30 C 49.37 141.39 50.23 143.63 50.86 144.26 C 51.64 145.04 57.06 145.44 67.26 145.46 C 82.30 145.50 82.57 145.46 87.82 142.55 C 94.01 139.12 97.14 134.50 99.49 125.34 C 101.32 118.19 100.41 112.11 96.51 105.44 C 94.17 101.44 87.72 94.94 83.14 91.97 C 80.79 90.45 80.79 90.45 85.46 84.71 C 88.03 81.55 92.06 75.85 94.41 72.04 C 98.68 65.11 98.68 65.11 103.55 70.05 C 106.23 72.77 109.12 75.00 109.96 74.99 C 110.81 74.98 116.67 73.41 123.00 71.50 C 132.54 68.61 136.08 68.02 143.75 68.01 C 153.00 68.00 153.00 68.00 153.00 72.50 C 153.00 77.00 153.00 77.00 125.50 77.00 C 98.00 77.00 98.00 77.00 98.00 83.50 C 98.00 90.00 98.00 90.00 173.00 90.00 C 248.00 90.00 248.00 90.00 248.00 83.52 C 248.00 77.03 248.00 77.03 222.25 76.77 C 196.50 76.50 196.50 76.50 196.19 72.25 C 195.89 68.00 195.89 68.00 218.94 68.00 C 242.00 68.00 242.00 68.00 242.00 63.00 C 242.00 58.00 242.00 58.00 200.29 58.00 C 158.58 58.00 158.58 58.00 162.04 55.04 C 165.50 52.08 165.50 52.08 206.75 52.04 C 248.00 52.00 248.00 52.00 248.00 44.00 C 248.00 36.00 248.00 36.00 216.00 36.00 C 198.40 36.00 184.00 35.69 184.00 35.31 C 184.00 34.94 184.98 33.59 186.17 32.31 C 188.35 30.00 188.35 30.00 163.39 30.00 C 138.43 30.00 138.43 30.00 136.66 33.00 C 134.89 36.00 134.89 36.00 119.94 36.00 C 105.00 36.00 105.00 36.00 105.00 43.94 C 105.00 51.89 105.00 51.89 109.25 52.19 C 113.50 52.50 113.50 52.50 109.50 54.62 C 101.56 58.84 101.35 58.78 100.75 52.21 C 100.10 45.00 96.18 36.98 91.78 33.84 C 88.79 31.71 87.27 31.47 74.77 31.17 C 61.73 30.87 56.60 31.56 49.25 34.64 C 48.44 34.98 48.00 34.26 48.00 32.58 C 48.00 30.00 48.00 30.00 35.25 30.02 C 21.41 30.05 16.75 31.29 12.28 36.15 C 7.09 41.79 7.00 42.98 7.00 102.63 C 7.00 158.00 7.00 158.00 27.50 158.00 C 48.00 158.00 48.00 158.00 48.11 146.75 Z  M 84.25 201.31 C 83.01 201.06 82.00 200.62 82.00 200.33 C 82.00 200.04 84.28 197.76 87.06 195.26 C 89.84 192.76 91.75 190.39 91.31 189.99 C 90.86 189.60 86.57 188.21 81.77 186.91 C 76.97 185.61 73.37 184.25 73.77 183.89 C 74.71 183.03 92.37 178.00 94.44 178.00 C 97.52 178.00 96.02 197.08 92.73 199.81 C 91.10 201.16 87.06 201.88 84.25 201.31 Z  M 184.56 137.90 C 178.17 136.36 179.10 136.00 189.42 136.00 C 196.77 136.00 199.07 136.31 198.75 137.25 C 198.24 138.81 189.94 139.19 184.56 137.90 Z  M 147.19 123.25 C 147.50 121.65 149.67 121.48 173.26 121.23 C 198.49 120.97 199.00 121.01 199.00 122.98 C 199.00 124.95 198.41 125.00 172.93 125.00 C 148.63 125.00 146.88 124.88 147.19 123.25 Z  M 153.00 108.26 C 155.71 107.03 161.29 106.57 177.75 106.22 C 198.89 105.76 199.00 105.77 199.00 107.88 C 199.00 109.99 198.84 110.00 174.25 109.92 C 150.85 109.84 149.69 109.75 153.00 108.26 Z  M 48.67 122.33 C 48.30 121.97 48.00 107.81 48.00 90.87 C 48.00 60.08 48.00 60.08 53.18 58.54 C 56.03 57.69 59.83 57.00 61.62 57.00 C 64.87 57.00 64.87 57.00 62.89 64.25 C 61.80 68.24 58.73 76.00 56.06 81.49 C 51.21 91.48 51.21 91.48 55.11 96.13 C 60.22 102.23 62.95 108.45 62.98 114.03 C 63.01 120.88 61.03 123.00 54.61 123.00 C 51.71 123.00 49.03 122.70 48.67 122.33 Z "/>
</g>
</svg>