<?xml version="1.0" encoding="UTF-8" standalone="no"?>
<!DOCTYPE svg PUBLIC "-//W3C//DTD SVG 1.1//EN" "http://www.w3.org/Graphics/SVG/1.1/DTD/svg11.dtd" >
<svg xmlns="http://www.w3.org/2000/svg" xmlns:xlink="http://www.w3.org/1999/xlink" version="1.1" viewBox="0 0 256 256">
 <g >
 <path fill="currentColor"
d=" M 234.43 221.45 C 241.27 219.01 247.44 212.61 249.43 205.91 C 251.65 198.44 251.72 150.30 249.52 144.06 C 247.38 137.98 244.40 134.26 239.67 131.73 C 235.58 129.54 234.69 129.49 194.25 129.19 C 153.00 128.88 153.00 128.88 153.00 106.23 C 153.00 86.66 153.19 83.77 154.42 85.04 C 155.20 85.84 158.65 91.67 162.10 98.00 C 165.55 104.33 168.47 109.65 168.59 109.82 C 168.71 110.00 170.25 109.41 172.00 108.50 C 173.75 107.59 175.39 107.06 175.65 107.32 C 175.90 107.57 175.71 110.80 175.22 114.48 C 174.59 119.17 174.64 121.30 175.41 121.56 C 181.54 123.64 196.54 125.38 208.50 125.40 C 225.12 125.42 231.43 123.59 237.37 117.02 C 242.96 110.82 244.00 105.57 244.00 83.44 C 244.00 61.56 243.22 57.90 237.21 51.63 C 231.20 45.37 229.53 45.00 206.78 44.97 C 186.50 44.93 186.50 44.93 189.00 42.91 C 201.14 33.09 200.70 33.62 197.29 32.92 C 195.57 32.57 184.48 31.96 172.64 31.56 C 151.12 30.84 151.12 30.84 148.93 35.17 C 143.95 45.00 143.96 45.00 133.68 45.02 C 123.40 45.05 118.42 46.70 113.80 51.62 C 108.11 57.70 108.00 58.61 108.02 99.22 C 108.04 133.27 108.20 136.85 109.89 140.56 C 112.15 145.55 118.68 151.29 123.86 152.84 C 126.51 153.63 139.94 154.00 166.37 154.00 C 205.00 154.00 205.00 154.00 205.00 172.81 C 205.00 187.50 204.69 192.04 203.58 193.56 C 202.31 195.28 200.99 195.48 191.83 195.36 C 182.88 195.24 161.75 192.93 155.40 191.37 C 153.46 190.90 153.15 191.67 151.15 201.68 C 148.56 214.72 148.56 214.73 150.75 215.40 C 153.43 216.23 181.81 220.98 193.29 222.52 C 206.92 224.36 227.83 223.81 234.43 221.45 Z  M 42.26 201.98 C 57.03 187.80 57.03 187.80 59.14 192.65 C 65.67 207.59 66.94 209.96 68.18 209.55 C 68.91 209.31 78.05 206.33 88.50 202.94 C 98.95 199.55 107.89 196.41 108.38 195.96 C 108.87 195.51 108.32 193.64 107.13 191.71 C 105.96 189.81 105.00 187.98 105.00 187.63 C 105.00 187.28 126.15 187.00 152.00 187.00 C 199.00 187.00 199.00 187.00 199.00 174.50 C 199.00 162.00 199.00 162.00 151.00 162.00 C 103.00 162.00 103.00 162.00 102.97 173.25 C 102.93 186.15 103.00 186.15 95.81 173.00 C 93.56 168.88 89.50 162.03 86.79 157.79 C 81.86 150.09 81.86 150.09 85.36 141.29 C 91.95 124.74 95.89 107.57 99.43 80.07 C 101.82 61.52 98.66 53.75 86.12 47.26 C 79.83 44.00 79.83 44.00 45.91 44.00 C 12.00 44.00 12.00 44.00 12.00 57.00 C 12.00 70.00 12.00 70.00 35.50 70.00 C 57.22 70.00 59.00 70.13 58.99 71.75 C 58.96 79.43 54.87 104.50 53.13 107.69 C 52.75 108.41 48.05 103.08 41.49 94.49 C 35.45 86.57 30.11 80.07 29.64 80.04 C 28.93 80.01 8.01 88.79 7.26 89.43 C 7.14 89.55 11.57 98.16 17.11 108.57 C 22.66 118.98 29.82 132.73 33.04 139.12 C 38.88 150.74 38.88 150.74 33.03 160.87 C 24.72 175.25 14.93 188.86 6.21 198.16 C 4.32 200.17 2.95 202.34 3.16 202.97 C 3.37 203.61 8.26 207.20 14.02 210.94 C 21.23 215.63 24.97 217.51 26.00 216.96 C 26.82 216.52 34.14 209.78 42.26 201.98 Z  M 185.36 102.22 C 185.63 101.79 188.55 100.15 191.86 98.57 C 197.87 95.69 197.87 95.69 195.23 92.24 C 192.40 88.52 173.48 72.00 172.06 72.00 C 171.59 72.00 167.32 73.41 162.58 75.14 C 157.83 76.87 153.67 78.01 153.33 77.67 C 152.28 76.62 155.31 73.77 159.50 71.86 C 162.88 70.33 166.25 70.04 181.25 70.02 C 199.00 70.00 199.00 70.00 199.00 85.30 C 199.00 95.87 198.63 100.97 197.80 101.80 C 196.50 103.10 184.57 103.50 185.36 102.22 Z "/>
</g>
</svg>