<?xml version="1.0" encoding="UTF-8" standalone="no"?>
<!DOCTYPE svg PUBLIC "-//W3C//DTD SVG 1.1//EN" "http://www.w3.org/Graphics/SVG/1.1/DTD/svg11.dtd" >
<svg xmlns="http://www.w3.org/2000/svg" xmlns:xlink="http://www.w3.org/1999/xlink" version="1.1" viewBox="0 0 256 256">
 <g >
 <path fill="currentColor"
d=" M 39.63 233.75 C 54.24 204.61 58.96 184.16 61.20 140.25 C 62.39 117.00 62.39 117.00 64.77 117.00 C 67.89 117.00 67.42 113.63 64.24 113.18 C 62.00 112.86 62.00 112.86 62.00 81.43 C 62.00 50.00 62.00 50.00 46.11 50.00 C 30.22 50.00 30.22 50.00 29.70 103.75 C 29.39 135.76 28.72 160.74 28.04 165.50 C 25.38 184.16 19.71 200.14 9.35 218.21 C 5.79 224.42 2.80 229.85 2.69 230.29 C 2.56 230.84 30.86 244.20 33.74 244.94 C 33.87 244.97 36.52 239.94 39.63 233.75 Z  M 228.43 242.59 C 232.83 240.76 235.37 235.98 235.40 229.49 C 235.42 225.47 234.59 222.92 231.21 216.66 C 228.34 211.34 227.00 207.62 227.00 205.00 C 227.00 197.57 229.16 185.72 232.57 174.49 C 236.41 161.82 236.56 160.71 234.66 159.13 C 232.52 157.36 230.01 160.96 221.16 178.50 C 212.82 195.03 208.08 202.00 205.18 202.00 C 199.01 201.98 189.68 190.29 179.53 169.83 C 171.78 154.22 167.26 142.69 163.98 130.20 C 161.46 120.58 154.00 75.69 154.00 70.12 C 154.00 66.00 154.00 66.00 137.50 66.00 C 121.00 66.00 121.00 66.00 121.00 69.63 C 121.00 71.62 121.65 77.36 122.44 82.38 C 123.23 87.39 124.61 96.67 125.51 103.00 C 128.85 126.44 141.08 169.25 148.87 184.75 C 153.85 194.64 167.27 214.86 173.36 221.64 C 182.14 231.40 195.96 240.10 208.00 243.46 C 214.24 245.19 223.10 244.82 228.43 242.59 Z  M 100.62 212.01 C 107.32 208.72 111.54 204.22 114.70 197.00 C 116.65 192.52 117.95 172.67 118.02 145.90 C 118.08 125.30 118.08 125.30 121.04 122.46 C 124.41 119.23 124.84 115.58 122.23 112.41 C 118.85 108.32 103.23 97.91 99.57 97.32 C 95.16 96.60 93.27 98.09 89.03 105.60 C 86.03 110.92 86.03 110.92 86.87 124.21 C 87.33 131.52 87.40 146.57 87.03 157.66 C 86.31 179.15 85.85 181.08 80.69 184.47 C 78.80 185.70 76.96 185.79 69.96 184.99 C 62.52 184.13 61.35 184.21 60.27 185.67 C 58.63 187.88 59.97 189.44 66.15 192.58 C 71.82 195.45 72.53 196.61 74.51 206.18 C 76.78 217.14 75.87 216.35 85.58 215.75 C 92.49 215.32 95.37 214.60 100.62 212.01 Z  M 81.81 115.25 C 81.56 113.93 80.31 113.42 76.74 113.20 C 72.53 112.92 72.00 113.12 72.00 114.95 C 72.00 116.75 72.62 117.00 77.07 117.00 C 81.36 117.00 82.10 116.73 81.81 115.25 Z  M 236.80 64.80 C 237.46 64.14 238.00 62.90 237.99 62.05 C 237.96 58.55 213.94 35.00 210.39 35.00 C 208.32 35.00 203.01 40.94 195.97 51.17 C 190.54 59.05 188.86 63.53 190.67 65.33 C 191.94 66.60 235.50 66.10 236.80 64.80 Z  M 152.92 49.81 C 152.74 39.62 152.74 39.62 156.86 36.76 C 161.35 33.65 162.99 29.90 160.93 27.42 C 159.04 25.14 155.71 23.62 143.49 19.45 C 134.90 16.52 130.86 15.68 125.00 15.60 C 117.50 15.50 117.50 15.50 117.60 21.50 C 117.75 31.51 120.02 57.42 120.80 58.20 C 121.21 58.61 127.83 59.08 135.52 59.25 C 143.21 59.42 150.31 59.66 151.31 59.78 C 152.96 59.98 153.10 59.11 152.92 49.81 Z "/>
</g>
</svg>