<?xml version="1.0" encoding="UTF-8" standalone="no"?>
<!DOCTYPE svg PUBLIC "-//W3C//DTD SVG 1.1//EN" "http://www.w3.org/Graphics/SVG/1.1/DTD/svg11.dtd" >
<svg xmlns="http://www.w3.org/2000/svg" xmlns:xlink="http://www.w3.org/1999/xlink" version="1.1" viewBox="0 0 256 256">
 <g >
 <path fill="currentColor"
d=" M 200.02 243.94 C 210.47 241.66 214.15 239.79 219.23 234.16 C 223.01 229.99 228.48 217.81 229.95 210.31 C 231.87 200.54 233.15 173.20 234.01 123.63 C 234.89 72.76 234.89 72.76 237.14 71.19 C 244.67 65.92 244.76 63.23 237.64 56.54 C 231.24 50.52 218.95 43.00 215.52 43.00 C 212.48 43.00 207.10 47.63 203.06 53.73 C 199.99 58.36 199.99 58.36 202.08 60.59 C 205.20 63.91 205.38 71.82 203.59 128.50 C 201.55 193.30 200.15 202.09 191.00 207.45 C 187.08 209.74 177.27 210.17 164.47 208.61 C 158.52 207.88 157.24 208.00 156.10 209.38 C 154.19 211.68 155.65 213.08 164.35 217.27 C 173.99 221.91 178.53 227.11 180.15 235.38 C 181.47 242.08 184.46 246.00 188.25 246.00 C 189.54 246.00 194.84 245.07 200.02 243.94 Z  M 72.00 159.00 C 72.00 77.00 72.00 77.00 56.50 77.00 C 41.00 77.00 41.00 77.00 41.00 79.54 C 41.00 80.94 39.37 86.46 37.38 91.79 C 32.97 103.64 13.14 145.32 8.38 152.75 C 4.93 158.15 4.93 158.15 13.10 171.61 C 17.60 179.02 21.78 184.91 22.39 184.71 C 23.00 184.51 27.32 177.02 32.00 168.07 C 40.50 151.80 40.50 151.80 40.76 196.40 C 41.02 241.00 41.02 241.00 56.51 241.00 C 72.00 241.00 72.00 241.00 72.00 159.00 Z  M 177.72 193.64 C 184.12 190.33 184.00 191.14 184.00 152.05 C 184.00 116.55 184.00 116.55 188.16 112.97 C 191.71 109.91 192.22 109.00 191.64 106.70 C 190.88 103.67 180.73 95.65 172.34 91.44 C 164.75 87.64 162.35 88.28 157.66 95.38 C 153.77 101.26 153.77 101.26 153.94 146.38 C 154.08 185.35 154.32 191.82 155.66 193.88 C 157.15 196.16 157.60 196.24 165.89 195.77 C 171.05 195.48 175.85 194.61 177.72 193.64 Z  M 110.81 187.83 C 110.37 181.86 108.00 181.51 108.00 187.42 C 108.00 190.90 108.37 192.00 109.56 192.00 C 110.77 192.00 111.05 191.07 110.81 187.83 Z  M 110.81 171.83 C 110.37 165.86 108.00 165.51 108.00 171.42 C 108.00 174.90 108.37 176.00 109.56 176.00 C 110.77 176.00 111.05 175.07 110.81 171.83 Z  M 110.81 156.83 C 110.37 150.86 108.00 150.51 108.00 156.42 C 108.00 159.90 108.37 161.00 109.56 161.00 C 110.77 161.00 111.05 160.07 110.81 156.83 Z  M 110.81 141.83 C 110.37 135.86 108.00 135.51 108.00 141.42 C 108.00 144.90 108.37 146.00 109.56 146.00 C 110.77 146.00 111.05 145.07 110.81 141.83 Z  M 110.81 125.83 C 110.37 119.86 108.00 119.51 108.00 125.42 C 108.00 128.90 108.37 130.00 109.56 130.00 C 110.77 130.00 111.05 129.07 110.81 125.83 Z  M 110.81 110.83 C 110.37 104.86 108.00 104.51 108.00 110.42 C 108.00 113.90 108.37 115.00 109.56 115.00 C 110.77 115.00 111.05 114.07 110.81 110.83 Z  M 119.12 87.34 C 128.80 74.47 136.86 61.38 144.39 46.33 C 152.24 30.65 156.27 20.85 155.26 19.90 C 153.79 18.51 124.58 9.77 124.29 10.64 C 124.13 11.12 121.55 16.82 118.57 23.30 C 109.09 43.89 97.36 62.54 82.49 80.65 C 79.90 83.79 79.90 83.79 89.68 97.04 C 99.45 110.28 99.45 110.28 105.81 103.44 C 109.30 99.68 115.29 92.43 119.12 87.34 Z  M 71.77 44.25 C 72.03 18.00 72.03 18.00 56.52 18.00 C 41.00 18.00 41.00 18.00 41.00 44.53 C 41.00 71.05 41.00 71.05 56.25 70.78 C 71.50 70.50 71.50 70.50 71.77 44.25 Z "/>
</g>
</svg>