<?xml version="1.0" encoding="UTF-8" standalone="no"?>
<!DOCTYPE svg PUBLIC "-//W3C//DTD SVG 1.1//EN" "http://www.w3.org/Graphics/SVG/1.1/DTD/svg11.dtd" >
<svg xmlns="http://www.w3.org/2000/svg" xmlns:xlink="http://www.w3.org/1999/xlink" version="1.1" viewBox="0 0 256 256">
 <g >
 <path fill="currentColor"
d=" M 41.90 238.25 C 64.48 220.02 81.15 201.15 90.04 183.74 C 92.49 178.94 94.75 175.01 95.05 175.00 C 95.35 175.00 97.33 177.72 99.45 181.05 C 103.74 187.78 107.03 190.00 112.72 190.00 C 118.06 190.00 122.91 187.09 126.98 181.45 C 129.97 177.30 130.51 175.67 130.84 169.81 C 131.33 161.13 129.25 154.52 123.45 146.38 C 118.56 139.52 109.59 131.00 107.25 131.00 C 105.92 131.00 105.80 129.21 106.36 117.25 C 106.71 109.69 107.44 86.62 108.00 66.00 C 108.55 45.38 109.20 26.14 109.43 23.25 C 109.86 18.00 109.86 18.00 93.43 18.00 C 77.00 18.00 77.00 18.00 76.97 30.25 C 76.93 49.55 75.17 105.27 74.42 110.92 C 73.74 116.03 73.74 116.03 68.62 115.37 C 65.80 115.00 60.35 113.96 56.50 113.05 C 50.19 111.57 43.99 111.68 42.36 113.31 C 41.08 114.58 43.29 117.69 47.24 120.19 C 49.58 121.66 55.77 126.64 61.00 131.25 C 71.84 140.81 71.46 139.31 66.78 154.00 C 59.34 177.38 47.16 193.16 20.24 214.36 C 8.99 223.21 8.99 223.21 19.62 234.61 C 25.46 240.87 30.71 246.00 31.27 246.00 C 31.84 246.00 36.62 242.51 41.90 238.25 Z  M 213.50 236.90 C 222.06 235.96 230.13 233.16 234.02 229.81 C 237.55 226.75 241.88 220.17 242.94 216.22 C 244.48 210.49 243.26 206.52 237.44 198.36 C 234.19 193.81 232.59 190.47 232.27 187.63 C 232.02 185.36 232.98 176.40 234.41 167.72 C 237.13 151.15 237.66 142.53 236.02 141.51 C 233.09 139.70 231.17 143.52 223.66 166.18 C 215.11 191.96 213.28 195.88 207.66 200.40 C 203.92 203.42 203.52 203.50 192.75 203.66 C 180.16 203.84 179.19 203.62 177.95 200.37 C 177.39 198.91 178.04 177.20 179.67 142.94 C 182.27 87.85 182.27 87.85 187.54 82.88 C 193.71 77.04 195.77 72.98 194.25 69.64 C 193.28 67.52 173.47 52.69 167.30 49.47 C 165.76 48.67 162.90 48.01 160.94 48.01 C 156.98 48.00 155.26 49.50 148.01 59.28 C 143.72 65.05 143.72 65.05 145.55 69.10 C 147.34 73.08 147.30 74.39 143.52 137.33 C 141.41 172.62 139.66 205.32 139.65 210.00 C 139.62 219.60 141.77 227.53 145.28 230.74 C 148.89 234.05 155.69 237.02 161.79 237.96 C 168.49 238.99 200.55 238.34 213.50 236.90 Z  M 26.00 69.00 C 26.00 67.30 25.33 67.00 21.50 67.00 C 17.67 67.00 17.00 67.30 17.00 69.00 C 17.00 70.70 17.67 71.00 21.50 71.00 C 25.33 71.00 26.00 70.70 26.00 69.00 Z  M 40.82 68.75 C 41.09 67.32 40.41 67.00 37.07 67.00 C 33.63 67.00 33.00 67.32 33.00 69.06 C 33.00 70.83 33.53 71.08 36.74 70.81 C 39.36 70.59 40.58 69.97 40.82 68.75 Z  M 56.81 68.75 C 57.09 67.29 56.39 67.00 52.57 67.00 C 48.62 67.00 48.00 67.28 48.00 69.06 C 48.00 70.86 48.53 71.08 52.24 70.81 C 55.34 70.58 56.57 70.03 56.81 68.75 Z  M 71.81 68.75 C 72.09 67.29 71.39 67.00 67.57 67.00 C 63.62 67.00 63.00 67.28 63.00 69.06 C 63.00 70.86 63.53 71.08 67.24 70.81 C 70.34 70.58 71.57 70.03 71.81 68.75 Z "/>
</g>
</svg>