<?xml version="1.0" encoding="UTF-8" standalone="no"?>
<!DOCTYPE svg PUBLIC "-//W3C//DTD SVG 1.1//EN" "http://www.w3.org/Graphics/SVG/1.1/DTD/svg11.dtd" >
<svg xmlns="http://www.w3.org/2000/svg" xmlns:xlink="http://www.w3.org/1999/xlink" version="1.1" viewBox="0 0 256 256">
 <g >
 <path fill="currentColor"
d=" M 93.00 204.01 C 93.00 167.02 93.00 167.02 105.62 160.69 C 118.24 154.37 118.24 154.37 118.06 142.46 C 117.97 135.91 117.67 130.34 117.41 130.08 C 117.00 129.67 108.76 130.66 95.75 132.67 C 92.00 133.26 92.00 133.26 92.00 121.24 C 92.00 109.23 92.00 109.23 98.68 108.37 C 105.35 107.50 105.35 107.50 105.10 95.03 C 104.96 88.17 104.68 82.28 104.47 81.95 C 104.26 81.61 100.96 80.78 97.13 80.09 C 90.17 78.85 90.17 78.85 89.62 74.17 C 89.31 71.60 88.78 59.54 88.42 47.37 C 87.77 25.24 87.77 25.24 83.25 24.62 C 80.76 24.28 76.12 24.00 72.94 24.00 C 67.16 24.00 67.16 24.00 66.61 30.25 C 66.30 33.69 65.70 46.17 65.28 58.00 C 64.50 79.50 64.50 79.50 51.79 79.78 C 39.08 80.06 39.08 80.06 38.59 83.28 C 38.10 86.47 36.00 109.74 36.00 111.97 C 36.00 112.81 39.98 113.07 50.25 112.91 C 64.50 112.69 64.50 112.69 65.17 124.59 C 65.54 131.14 65.54 136.78 65.17 137.12 C 64.80 137.45 57.64 139.42 49.25 141.48 C 34.00 145.23 34.00 145.23 34.00 160.12 C 34.00 171.38 34.30 174.99 35.25 174.96 C 35.94 174.94 43.02 174.08 50.99 173.04 C 58.96 172.00 65.54 171.23 65.61 171.32 C 65.68 171.42 65.97 179.04 66.27 188.25 C 66.79 205.00 66.79 205.00 56.90 205.00 C 51.45 205.00 47.00 205.25 47.00 205.54 C 47.00 206.23 54.91 238.05 55.50 239.75 C 55.83 240.69 60.54 241.00 74.47 241.00 C 93.00 241.00 93.00 241.00 93.00 204.01 Z  M 170.95 230.26 C 178.26 222.03 178.26 222.03 185.23 228.26 C 198.64 240.25 196.16 240.07 206.87 229.81 C 216.21 220.86 216.21 220.86 208.67 209.54 C 201.14 198.22 201.14 198.22 209.61 184.36 C 218.09 170.50 218.09 170.50 217.51 160.00 C 216.23 136.87 220.18 139.32 183.41 138.81 C 165.60 138.56 150.90 138.16 150.76 137.93 C 150.61 137.69 150.64 121.41 150.82 101.75 C 151.16 66.00 151.16 66.00 162.83 66.02 C 169.25 66.02 175.12 66.42 175.88 66.91 C 177.00 67.62 177.17 70.89 176.76 84.14 C 176.48 93.14 175.96 101.21 175.59 102.08 C 175.15 103.11 172.76 103.98 168.71 104.58 C 163.76 105.31 162.52 105.85 162.58 107.25 C 162.63 108.21 162.74 113.46 162.83 118.91 C 163.00 128.82 163.00 128.82 166.75 129.37 C 168.81 129.67 178.77 130.22 188.87 130.58 C 207.24 131.24 207.24 131.24 206.61 98.37 C 206.26 80.29 205.71 59.09 205.39 51.25 C 204.79 37.00 204.79 37.00 164.10 37.00 C 123.40 37.00 123.40 37.00 121.03 136.49 C 119.72 191.21 118.84 236.17 119.08 236.41 C 119.79 237.13 142.19 239.00 143.13 238.42 C 143.61 238.13 144.00 235.77 143.99 233.19 C 143.97 224.09 146.35 185.00 146.92 185.06 C 147.57 185.13 161.35 201.63 161.77 202.84 C 161.92 203.27 158.86 208.25 154.97 213.91 C 151.08 219.56 148.03 224.59 148.20 225.07 C 148.36 225.56 151.40 229.35 154.93 233.51 C 159.98 239.43 161.61 240.78 162.51 239.78 C 163.13 239.08 166.93 234.79 170.95 230.26 Z  M 171.54 172.99 C 167.27 167.99 163.93 163.76 164.13 163.59 C 164.34 163.42 169.22 163.88 175.00 164.60 C 180.78 165.33 186.30 165.94 187.29 165.96 C 189.35 166.01 189.12 166.56 183.07 176.14 C 179.32 182.07 179.32 182.07 171.54 172.99 Z "/>
</g>
</svg>