<?xml version="1.0" encoding="UTF-8" standalone="no"?>
<!DOCTYPE svg PUBLIC "-//W3C//DTD SVG 1.1//EN" "http://www.w3.org/Graphics/SVG/1.1/DTD/svg11.dtd" >
<svg xmlns="http://www.w3.org/2000/svg" xmlns:xlink="http://www.w3.org/1999/xlink" version="1.1" viewBox="0 0 256 256">
 <g >
 <path fill="currentColor"
d=" M 118.92 235.96 C 129.05 234.88 137.54 233.79 137.79 233.54 C 138.04 233.30 137.65 230.15 136.93 226.55 C 135.63 220.00 135.63 220.00 125.01 220.00 C 114.38 220.00 114.38 220.00 113.10 210.93 C 112.39 205.94 112.06 201.61 112.36 201.31 C 113.49 200.18 138.46 194.06 139.08 194.77 C 139.43 195.17 146.60 204.72 154.99 216.00 C 163.39 227.28 170.77 237.04 171.38 237.70 C 172.25 238.63 175.39 238.26 185.32 236.05 C 192.38 234.47 198.31 233.02 198.51 232.83 C 198.71 232.63 195.48 227.80 191.33 222.10 C 186.30 215.18 184.19 211.50 184.97 211.02 C 185.61 210.63 190.71 209.28 196.32 208.04 C 201.92 206.80 207.03 205.49 207.68 205.14 C 208.53 204.68 207.85 202.18 205.36 196.50 C 203.43 192.10 201.54 188.20 201.17 187.84 C 200.80 187.48 193.53 188.49 185.00 190.08 C 176.47 191.68 169.22 192.99 168.88 192.99 C 168.55 193.00 165.17 188.28 161.38 182.52 C 154.50 172.03 154.50 172.03 145.00 172.64 C 137.92 173.10 124.58 175.88 92.66 183.55 C 69.09 189.22 49.60 194.07 49.34 194.32 C 49.09 194.58 50.94 198.89 53.46 203.91 C 57.50 211.96 58.30 212.97 60.27 212.50 C 66.34 211.07 87.35 207.02 87.54 207.25 C 87.65 207.39 88.51 214.03 89.45 222.00 C 90.38 229.97 91.34 237.09 91.57 237.81 C 91.87 238.75 93.19 238.96 96.24 238.53 C 98.58 238.20 108.79 237.05 118.92 235.96 Z  M 144.50 168.97 C 171.45 167.89 194.36 167.01 195.40 167.00 C 197.25 167.00 197.29 165.87 196.74 127.42 C 196.43 105.65 195.92 87.59 195.61 87.28 C 195.30 86.96 182.59 87.34 167.38 88.10 C 139.72 89.50 139.72 89.50 139.92 99.48 C 140.03 104.97 140.31 109.65 140.54 109.87 C 140.77 110.10 148.16 109.88 156.98 109.39 C 173.00 108.50 173.00 108.50 173.00 112.25 C 173.00 116.00 173.00 116.00 158.50 116.00 C 141.96 116.00 143.31 114.58 144.66 130.47 C 145.31 138.25 145.31 138.25 159.12 137.81 C 174.11 137.33 174.00 137.29 174.00 143.00 C 174.00 145.76 173.82 145.86 167.75 146.39 C 161.79 146.91 98.16 149.03 89.25 149.01 C 85.00 149.00 85.00 149.00 85.00 145.00 C 85.00 141.94 85.39 141.00 86.66 141.00 C 89.49 141.00 122.36 137.91 124.75 137.42 C 126.90 136.98 127.00 136.52 127.00 127.15 C 127.00 121.75 126.80 117.13 126.56 116.89 C 126.31 116.65 118.10 117.22 108.31 118.16 C 81.51 120.74 84.00 121.26 84.00 113.16 C 84.00 106.32 84.00 106.32 108.50 100.98 C 133.00 95.64 133.00 95.64 133.00 84.44 C 133.00 73.25 133.00 73.25 136.12 72.62 C 137.84 72.28 154.49 72.00 173.12 72.00 C 207.00 72.00 207.00 72.00 207.00 60.50 C 207.00 49.00 207.00 49.00 198.25 48.98 C 179.66 48.95 64.07 51.10 56.25 51.63 C 48.00 52.18 48.00 52.18 48.01 57.84 C 48.01 60.95 48.29 65.75 48.62 68.50 C 49.22 73.50 49.22 73.50 87.86 73.32 C 131.16 73.11 130.49 72.66 97.00 79.51 C 90.12 80.92 79.33 83.35 73.00 84.92 C 61.50 87.77 61.50 87.77 61.75 119.63 C 61.89 137.16 62.28 156.17 62.61 161.88 C 63.21 172.26 63.21 172.26 79.36 171.60 C 88.23 171.23 117.55 170.05 144.50 168.97 Z  M 147.67 38.50 C 149.62 27.20 149.66 27.35 144.25 26.13 C 137.36 24.57 126.08 23.21 113.45 22.43 C 102.41 21.74 102.41 21.74 101.10 32.43 C 100.38 38.32 99.97 43.31 100.19 43.53 C 100.73 44.06 134.07 45.78 140.98 45.62 C 146.46 45.50 146.46 45.50 147.67 38.50 Z "/>
</g>
</svg>