<?xml version="1.0" encoding="UTF-8" standalone="no"?>
<!DOCTYPE svg PUBLIC "-//W3C//DTD SVG 1.1//EN" "http://www.w3.org/Graphics/SVG/1.1/DTD/svg11.dtd" >
<svg xmlns="http://www.w3.org/2000/svg" xmlns:xlink="http://www.w3.org/1999/xlink" version="1.1" viewBox="0 0 256 256">
 <g >
 <path fill="currentColor"
d=" M 89.78 232.19 C 99.14 224.58 109.30 207.97 116.20 189.00 C 120.01 178.50 120.01 178.50 119.38 206.25 C 118.74 234.00 118.74 234.00 158.52 234.00 C 198.31 234.00 198.31 234.00 197.69 219.25 C 197.12 205.67 194.38 190.03 192.18 187.81 C 191.81 187.43 189.37 187.58 186.77 188.14 C 182.31 189.10 181.78 189.57 177.27 196.74 C 174.65 200.92 172.20 204.78 171.84 205.33 C 170.90 206.75 156.84 208.88 148.00 208.95 C 140.50 209.00 140.50 209.00 140.76 181.25 C 140.91 165.99 140.68 149.45 140.26 144.50 C 139.50 135.50 139.50 135.50 126.50 134.89 C 119.35 134.56 113.38 134.38 113.23 134.50 C 113.08 134.61 111.40 140.11 109.50 146.71 C 100.01 179.67 87.06 201.01 69.31 212.95 C 61.21 218.40 61.21 218.40 70.85 228.63 C 81.78 240.22 80.26 239.93 89.78 232.19 Z  M 91.25 165.38 C 95.78 164.76 95.78 164.76 96.44 146.63 C 96.81 136.66 97.32 127.38 97.58 126.00 C 98.05 123.50 98.05 123.50 124.27 123.85 C 140.62 124.07 150.74 124.58 151.13 125.22 C 151.48 125.78 152.09 134.96 152.49 145.62 C 153.22 165.00 153.22 165.00 159.97 165.00 C 163.68 165.00 168.81 164.71 171.36 164.36 C 176.00 163.73 176.00 163.73 176.00 141.52 C 176.00 129.30 175.71 115.19 175.35 110.15 C 174.70 101.00 174.70 101.00 125.35 101.00 C 76.00 101.00 76.00 101.00 76.00 133.50 C 76.00 166.00 76.00 166.00 81.36 166.00 C 84.31 166.00 88.76 165.72 91.25 165.38 Z  M 206.34 113.75 C 206.70 105.91 206.99 92.41 207.00 83.75 C 207.00 68.00 207.00 68.00 188.25 68.08 C 151.39 68.24 45.15 70.51 44.51 71.16 C 43.67 72.00 46.52 124.85 47.46 125.79 C 47.85 126.18 52.40 126.66 57.58 126.85 C 67.00 127.19 67.00 127.19 67.00 111.26 C 67.00 95.33 67.00 95.33 124.00 94.00 C 155.36 93.27 181.33 93.00 181.73 93.40 C 182.40 94.06 184.75 117.19 184.93 124.75 C 185.00 128.00 185.00 128.00 195.34 128.00 C 205.69 128.00 205.69 128.00 206.34 113.75 Z  M 188.21 58.20 C 193.42 50.65 206.96 25.56 206.20 24.87 C 205.05 23.84 182.91 16.75 182.41 17.26 C 181.73 17.94 168.00 59.24 168.00 60.60 C 168.00 61.69 182.52 64.05 184.24 63.24 C 184.64 63.05 186.43 60.78 188.21 58.20 Z  M 89.00 61.56 C 89.00 56.47 78.36 33.25 73.19 27.06 C 70.39 23.70 70.39 23.70 60.12 27.13 C 54.47 29.01 49.90 30.99 49.97 31.52 C 50.03 32.06 54.55 39.36 60.00 47.75 C 69.92 63.00 69.92 63.00 79.46 63.00 C 87.10 63.00 89.00 62.71 89.00 61.56 Z  M 129.37 50.50 C 129.27 41.58 128.76 38.04 126.67 31.78 C 125.26 27.53 123.80 22.47 123.44 20.53 C 123.08 18.59 122.26 17.01 121.64 17.03 C 118.09 17.12 99.53 21.83 99.71 22.59 C 99.83 23.09 101.04 26.20 102.40 29.50 C 103.76 32.80 106.30 40.45 108.04 46.50 C 112.88 63.29 112.28 62.60 121.64 62.00 C 129.50 61.50 129.50 61.50 129.37 50.50 Z "/>
</g>
</svg>