<?xml version="1.0" encoding="UTF-8" standalone="no"?>
<!DOCTYPE svg PUBLIC "-//W3C//DTD SVG 1.1//EN" "http://www.w3.org/Graphics/SVG/1.1/DTD/svg11.dtd" >
<svg xmlns="http://www.w3.org/2000/svg" xmlns:xlink="http://www.w3.org/1999/xlink" version="1.1" viewBox="0 0 256 256">
 <g >
 <path fill="currentColor"
d=" M 103.50 231.00 C 111.20 228.10 127.62 222.21 140.00 217.91 C 184.13 202.57 188.50 200.94 188.23 199.91 C 188.08 199.34 184.84 194.23 181.04 188.55 C 174.12 178.24 174.12 178.24 126.31 197.95 C 78.50 217.66 78.50 217.66 78.19 225.08 C 78.02 229.16 78.15 234.38 78.49 236.67 C 79.10 240.85 79.10 240.85 84.30 238.56 C 87.16 237.31 95.80 233.91 103.50 231.00 Z  M 128.00 188.43 C 149.18 180.29 166.65 173.53 166.84 173.39 C 167.57 172.88 160.52 153.00 159.60 153.00 C 158.36 153.00 74.75 186.05 73.75 186.94 C 73.09 187.52 77.84 203.32 79.47 205.95 C 79.85 206.56 81.88 206.23 84.79 205.09 C 87.38 204.07 106.82 196.58 128.00 188.43 Z  M 121.50 160.30 C 137.45 153.38 150.67 147.58 150.89 147.39 C 151.51 146.85 134.61 128.17 133.42 128.08 C 132.36 128.00 73.26 159.47 71.69 160.95 C 71.00 161.61 74.33 177.10 75.61 179.17 C 76.09 179.95 77.17 179.50 121.50 160.30 Z  M 68.17 149.05 C 126.86 120.96 117.99 121.97 167.98 137.70 C 192.96 145.56 213.71 151.66 214.09 151.25 C 214.66 150.63 220.00 132.99 220.00 131.74 C 220.00 131.53 210.55 127.59 199.01 123.00 C 187.46 118.41 178.12 114.56 178.26 114.44 C 178.39 114.33 189.53 113.44 203.00 112.47 C 216.47 111.50 227.85 110.41 228.27 110.04 C 228.69 109.67 229.32 105.68 229.67 101.18 C 230.30 93.00 230.30 93.00 191.62 93.00 C 160.43 93.00 152.84 92.74 152.43 91.68 C 152.15 90.95 152.80 88.30 153.87 85.80 C 155.82 81.25 155.82 81.25 167.57 80.52 C 179.32 79.78 179.32 79.78 182.72 83.39 C 186.13 87.00 186.13 87.00 195.56 87.00 C 200.75 87.00 205.00 86.66 205.01 86.25 C 205.02 84.15 196.62 49.34 195.87 48.39 C 195.39 47.78 191.73 46.99 187.75 46.62 C 183.76 46.25 178.22 45.68 175.44 45.36 C 170.37 44.77 170.37 44.77 170.81 53.88 C 171.24 63.00 171.24 63.00 142.96 63.00 C 127.40 63.00 114.92 62.75 115.23 62.43 C 115.54 62.12 127.43 54.01 141.65 44.40 C 155.87 34.78 167.62 26.58 167.77 26.16 C 167.91 25.74 161.60 23.91 153.74 22.09 C 139.45 18.78 139.45 18.78 98.48 41.49 C 75.94 53.97 57.36 64.33 57.18 64.50 C 57.00 64.67 56.61 68.15 56.30 72.23 C 55.74 79.66 55.74 79.66 89.02 81.53 C 122.31 83.41 122.31 83.41 116.90 88.29 C 110.89 93.72 115.78 93.49 51.33 91.36 C 28.54 90.60 30.91 88.88 29.45 107.23 C 28.83 114.96 28.83 114.96 53.67 115.23 C 78.50 115.50 78.50 115.50 58.73 127.40 C 47.86 133.94 39.13 139.46 39.33 139.67 C 39.99 140.32 57.48 154.00 57.66 154.00 C 57.76 154.00 62.48 151.77 68.17 149.05 Z "/>
</g>
</svg>