<?xml version="1.0" encoding="UTF-8" standalone="no"?>
<!DOCTYPE svg PUBLIC "-//W3C//DTD SVG 1.1//EN" "http://www.w3.org/Graphics/SVG/1.1/DTD/svg11.dtd" >
<svg xmlns="http://www.w3.org/2000/svg" xmlns:xlink="http://www.w3.org/1999/xlink" version="1.1" viewBox="0 0 256 256">
 <g >
 <path fill="currentColor"
d=" M 98.00 243.93 C 94.97 241.18 91.49 238.21 90.25 237.35 C 88.14 235.87 88.00 235.06 88.00 224.38 C 88.00 213.00 88.00 213.00 107.50 213.00 C 127.00 213.00 127.00 213.00 127.00 194.00 C 127.00 183.55 126.66 175.03 126.25 175.06 C 125.84 175.09 121.93 179.36 117.58 184.56 C 109.65 194.00 109.65 194.00 98.83 194.00 C 88.00 194.00 88.00 194.00 88.00 184.64 C 88.00 175.28 88.00 175.28 93.03 174.68 C 104.36 173.34 117.74 162.54 122.06 151.25 C 123.85 146.56 124.35 142.72 124.75 130.50 C 125.33 112.85 124.03 102.66 120.33 95.87 C 114.72 85.55 103.06 77.19 92.93 76.22 C 88.00 75.75 88.00 75.75 88.00 66.39 C 88.00 57.04 88.00 57.04 107.25 56.77 C 126.50 56.50 126.50 56.50 126.77 39.75 C 126.93 30.17 126.66 23.00 126.14 23.00 C 125.64 23.00 122.15 26.60 118.38 31.00 C 111.52 39.00 111.52 39.00 99.76 39.00 C 88.00 39.00 88.00 39.00 88.00 30.59 C 88.00 22.18 88.00 22.18 95.75 15.11 C 103.50 8.05 103.50 8.05 66.50 8.05 C 29.50 8.05 29.50 8.05 37.79 15.77 C 46.07 23.50 46.07 23.50 46.04 31.25 C 46.00 39.00 46.00 39.00 26.50 39.00 C 7.00 39.00 7.00 39.00 7.00 48.00 C 7.00 57.00 7.00 57.00 26.54 57.00 C 46.08 57.00 46.08 57.00 45.79 66.25 C 45.50 75.50 45.50 75.50 27.25 75.77 C 17.21 75.92 9.01 76.37 9.02 76.77 C 9.03 77.17 9.92 78.62 11.00 80.00 C 12.87 82.39 12.96 84.36 12.98 125.02 C 13.00 167.54 13.00 167.54 10.46 171.27 C 7.93 175.00 7.93 175.00 26.96 175.00 C 46.00 175.00 46.00 175.00 46.00 184.50 C 46.00 194.00 46.00 194.00 26.50 194.00 C 7.00 194.00 7.00 194.00 7.00 203.50 C 7.00 213.00 7.00 213.00 26.50 213.00 C 46.00 213.00 46.00 213.00 46.00 223.93 C 46.00 234.86 46.00 234.86 37.38 241.93 C 28.75 249.00 28.75 249.00 66.13 248.97 C 103.50 248.94 103.50 248.94 98.00 243.93 Z  M 237.54 240.90 C 231.00 232.80 231.00 232.80 231.00 224.90 C 231.00 217.00 231.00 217.00 239.50 217.00 C 248.00 217.00 248.00 217.00 247.97 198.25 C 247.95 177.23 249.16 177.76 235.75 192.87 C 231.00 198.22 231.00 198.22 231.00 152.86 C 231.00 107.50 231.00 107.50 237.00 100.16 C 240.30 96.12 243.00 92.41 243.00 91.91 C 243.00 91.38 229.18 91.00 210.00 91.00 C 191.85 91.00 177.00 91.28 177.00 91.61 C 177.00 91.95 179.70 95.61 183.00 99.74 C 189.00 107.26 189.00 107.26 189.00 152.61 C 189.00 197.97 189.00 197.97 160.75 198.23 C 132.50 198.50 132.50 198.50 132.21 207.75 C 131.92 217.00 131.92 217.00 160.46 217.00 C 189.00 217.00 189.00 217.00 189.00 225.16 C 189.00 233.33 189.00 233.33 183.00 240.58 C 179.70 244.57 177.00 248.10 177.00 248.42 C 177.00 248.74 192.09 249.00 210.54 249.00 C 244.08 249.00 244.08 249.00 237.54 240.90 Z  M 181.62 189.50 C 180.73 188.12 179.23 185.80 178.28 184.34 C 177.33 182.88 175.83 176.80 174.93 170.85 C 173.31 160.01 173.31 160.01 176.65 155.05 C 178.49 152.31 180.00 149.84 180.00 149.54 C 180.00 149.24 169.43 149.00 156.50 149.00 C 143.57 149.00 133.00 149.19 133.00 149.43 C 133.00 149.66 134.53 152.48 136.40 155.68 C 139.22 160.50 140.02 163.23 141.05 171.61 C 142.29 181.72 142.29 181.72 139.14 186.29 C 137.41 188.80 136.00 191.12 136.00 191.43 C 136.00 191.74 146.63 192.00 159.62 192.00 C 183.23 192.00 183.23 192.00 181.62 189.50 Z  M 179.73 135.19 C 176.73 131.02 176.07 128.98 174.77 119.94 C 173.27 109.50 173.27 109.50 176.64 104.23 C 178.49 101.33 180.00 98.74 180.00 98.48 C 180.00 98.22 169.43 98.00 156.50 98.00 C 143.57 98.00 133.00 98.27 133.00 98.60 C 133.00 98.93 134.54 101.74 136.41 104.85 C 139.28 109.60 140.02 112.12 141.07 120.70 C 142.31 130.89 142.31 130.91 139.83 134.20 C 138.47 136.02 137.03 138.06 136.62 138.75 C 136.04 139.74 140.89 140.00 159.53 140.00 C 183.19 140.00 183.19 140.00 179.73 135.19 Z  M 182.00 83.52 C 182.00 83.26 180.49 80.67 178.64 77.77 C 175.27 72.50 175.27 72.50 178.09 51.50 C 179.64 39.95 180.93 29.71 180.95 28.75 C 180.99 27.26 182.01 27.00 187.93 27.00 C 193.68 27.00 194.95 27.30 195.36 28.75 C 195.64 29.71 197.07 39.97 198.54 51.54 C 201.22 72.59 201.22 72.59 198.11 77.49 C 196.40 80.19 195.00 82.75 195.00 83.20 C 195.00 83.64 206.70 84.00 221.00 84.00 C 237.40 84.00 247.00 83.64 247.00 83.02 C 247.00 82.47 245.66 79.85 244.03 77.20 C 241.33 72.81 240.68 69.87 237.05 45.59 C 233.05 18.82 233.05 18.82 236.51 13.41 C 239.98 8.00 239.98 8.00 188.39 8.00 C 131.19 8.00 136.00 7.10 142.02 16.67 C 143.20 18.55 142.88 22.36 139.59 45.17 C 135.99 70.20 135.64 71.78 132.40 77.15 C 130.53 80.26 129.00 83.07 129.00 83.40 C 129.00 83.73 140.93 84.00 155.50 84.00 C 170.07 84.00 182.00 83.78 182.00 83.52 Z  M 55.00 144.97 C 55.00 133.94 55.00 133.94 68.75 134.22 C 82.50 134.50 82.50 134.50 82.78 145.25 C 83.07 156.00 83.07 156.00 69.03 156.00 C 55.00 156.00 55.00 156.00 55.00 144.97 Z  M 55.00 104.47 C 55.00 92.94 55.00 92.94 68.75 93.22 C 82.50 93.50 82.50 93.50 82.78 104.75 C 83.07 116.00 83.07 116.00 69.03 116.00 C 55.00 116.00 55.00 116.00 55.00 104.47 Z "/>
</g>
</svg>