<?xml version="1.0" encoding="UTF-8" standalone="no"?>
<!DOCTYPE svg PUBLIC "-//W3C//DTD SVG 1.1//EN" "http://www.w3.org/Graphics/SVG/1.1/DTD/svg11.dtd" >
<svg xmlns="http://www.w3.org/2000/svg" xmlns:xlink="http://www.w3.org/1999/xlink" version="1.1" viewBox="0 0 256 256">
 <g >
 <path fill="currentColor"
d=" M 81.73 241.23 C 74.00 233.46 74.00 233.46 74.00 153.23 C 74.00 73.00 74.00 73.00 86.53 73.00 C 95.80 73.00 99.19 72.67 99.55 71.72 C 99.83 71.01 99.92 62.19 99.77 52.11 C 99.50 33.79 99.50 33.79 91.00 43.87 C 82.70 53.72 82.40 53.96 78.25 53.98 C 74.00 54.00 74.00 54.00 74.00 38.77 C 74.00 23.54 74.00 23.54 81.73 15.77 C 89.45 8.00 89.45 8.00 53.50 8.00 C 17.55 8.00 17.55 8.00 25.27 15.77 C 33.00 23.54 33.00 23.54 33.00 38.77 C 33.00 54.00 33.00 54.00 20.00 54.00 C 7.00 54.00 7.00 54.00 7.00 63.50 C 7.00 73.00 7.00 73.00 20.00 73.00 C 33.00 73.00 33.00 73.00 33.00 152.73 C 33.00 232.46 33.00 232.46 24.77 240.73 C 16.54 249.00 16.54 249.00 53.00 249.00 C 89.45 249.00 89.45 249.00 81.73 241.23 Z  M 203.23 240.73 C 195.00 232.46 195.00 232.46 195.00 194.23 C 195.00 156.00 195.00 156.00 221.50 156.00 C 248.00 156.00 248.00 156.00 248.00 137.00 C 248.00 126.55 247.88 118.00 247.73 118.00 C 247.58 118.00 243.86 122.27 239.48 127.48 C 231.50 136.96 231.50 136.96 213.25 136.98 C 195.00 137.00 195.00 137.00 195.00 86.00 C 195.00 35.00 195.00 35.00 220.00 35.00 C 245.00 35.00 245.00 35.00 245.00 21.44 C 245.00 7.89 245.00 7.89 239.34 11.94 C 233.67 16.00 233.67 16.00 168.84 16.00 C 104.00 16.00 104.00 16.00 104.00 25.50 C 104.00 35.00 104.00 35.00 129.00 35.00 C 154.00 35.00 154.00 35.00 154.00 86.00 C 154.00 137.00 154.00 137.00 127.50 137.00 C 101.00 137.00 101.00 137.00 101.00 146.50 C 101.00 156.00 101.00 156.00 127.50 156.00 C 154.00 156.00 154.00 156.00 154.00 194.70 C 154.00 233.39 154.00 233.39 145.75 241.15 C 137.50 248.90 137.50 248.90 174.48 248.95 C 211.46 249.00 211.46 249.00 203.23 240.73 Z  M 28.52 221.03 C 26.00 216.07 26.00 216.07 26.00 154.49 C 26.00 94.89 26.06 92.79 28.00 89.00 C 29.10 86.84 30.00 84.84 30.00 84.54 C 30.00 84.24 24.82 84.00 18.48 84.00 C 6.97 84.00 6.97 84.00 9.48 88.97 C 12.00 93.93 12.00 93.93 12.00 155.00 C 12.00 216.07 12.00 216.07 9.48 221.03 C 6.97 226.00 6.97 226.00 19.00 226.00 C 31.03 226.00 31.03 226.00 28.52 221.03 Z  M 99.00 225.46 C 99.00 225.16 98.10 223.16 97.00 221.00 C 95.06 217.20 95.00 215.11 95.00 155.00 C 95.00 94.89 95.06 92.80 97.00 89.00 C 98.10 86.84 99.00 84.84 99.00 84.54 C 99.00 84.24 93.82 84.00 87.48 84.00 C 75.97 84.00 75.97 84.00 78.48 88.97 C 81.00 93.93 81.00 93.93 81.00 154.50 C 81.00 215.07 81.00 215.07 78.50 220.00 C 77.12 222.71 76.00 225.17 76.00 225.47 C 76.00 225.76 81.17 226.00 87.50 226.00 C 93.83 226.00 99.00 225.76 99.00 225.46 Z  M 151.00 123.60 C 151.00 123.37 149.23 119.44 147.07 114.85 C 143.14 106.50 143.14 106.50 141.88 84.22 C 140.63 61.98 140.63 61.92 142.95 54.72 C 144.22 50.75 145.48 46.94 145.74 46.25 C 146.11 45.27 141.58 45.00 125.11 45.00 C 113.50 45.00 104.00 45.14 104.00 45.31 C 104.00 45.47 105.52 49.41 107.39 54.06 C 110.55 61.95 110.89 63.96 112.59 84.74 C 114.40 106.98 114.40 106.98 112.07 114.24 C 110.78 118.23 109.52 122.06 109.26 122.75 C 108.89 123.73 113.42 124.00 129.89 124.00 C 141.50 124.00 151.00 123.82 151.00 123.60 Z  M 237.99 115.63 C 235.04 107.27 235.04 107.27 236.56 83.38 C 237.82 63.65 238.50 58.24 240.47 52.25 C 242.86 45.00 242.86 45.00 222.93 45.00 C 211.97 45.00 203.00 45.33 203.00 45.73 C 203.00 46.12 204.18 49.46 205.62 53.13 C 208.24 59.80 208.24 59.80 206.69 83.65 C 205.14 107.49 205.14 107.50 201.57 115.18 C 199.61 119.41 198.00 123.12 198.00 123.43 C 198.00 123.75 207.66 124.00 219.47 124.00 C 240.94 124.00 240.94 124.00 237.99 115.63 Z "/>
</g>
</svg>