<?xml version="1.0" encoding="UTF-8" standalone="no"?>
<!DOCTYPE svg PUBLIC "-//W3C//DTD SVG 1.1//EN" "http://www.w3.org/Graphics/SVG/1.1/DTD/svg11.dtd" >
<svg xmlns="http://www.w3.org/2000/svg" xmlns:xlink="http://www.w3.org/1999/xlink" version="1.1" viewBox="0 0 256 256">
 <g >
 <path fill="currentColor"
d=" M 183.00 248.68 C 183.00 248.50 180.53 245.04 177.50 241.00 C 172.00 233.65 172.00 233.65 172.00 203.82 C 172.00 174.00 172.00 174.00 186.50 174.00 C 199.65 174.00 201.00 174.16 200.97 175.75 C 200.96 176.71 199.88 187.06 198.58 198.74 C 196.21 219.99 196.21 219.99 188.96 227.74 C 181.72 235.50 181.72 235.50 206.51 235.77 C 220.14 235.92 231.47 235.86 231.69 235.65 C 231.90 235.43 233.41 220.69 235.05 202.88 C 237.45 176.77 238.37 170.02 239.80 168.00 C 240.78 166.62 243.28 163.14 245.37 160.25 C 249.17 155.00 249.17 155.00 241.02 155.00 C 232.88 155.00 232.88 155.00 233.45 150.75 C 233.77 148.41 234.96 137.50 236.08 126.51 C 238.14 106.51 238.14 106.51 243.07 100.12 C 245.78 96.61 248.00 93.35 248.00 92.87 C 248.00 92.39 230.90 92.00 210.00 92.00 C 172.00 92.00 172.00 92.00 172.00 89.00 C 172.00 86.00 172.00 86.00 145.88 86.00 C 119.76 86.00 119.76 86.00 122.38 89.50 C 130.91 100.89 130.00 91.66 130.00 167.16 C 130.00 234.64 130.00 234.64 125.92 240.07 C 118.48 249.98 115.66 249.00 151.46 249.00 C 168.81 249.00 183.00 248.85 183.00 248.68 Z  M 69.00 235.47 C 96.23 233.57 118.84 232.01 119.25 232.00 C 119.66 232.00 120.00 227.45 120.00 221.89 C 120.00 211.79 120.00 211.79 110.75 212.41 C 80.82 214.44 84.00 220.31 84.00 163.11 C 84.00 112.00 84.00 112.00 100.00 112.00 C 116.00 112.00 116.00 112.00 116.00 96.46 C 116.00 78.55 116.38 78.89 107.03 88.43 C 101.57 94.00 101.57 94.00 55.78 94.00 C 10.00 94.00 10.00 94.00 10.00 103.00 C 10.00 112.00 10.00 112.00 26.00 112.00 C 42.00 112.00 42.00 112.00 42.00 164.39 C 42.00 216.79 42.00 216.79 32.75 217.42 C 4.05 219.39 7.00 217.98 7.00 229.70 C 7.00 240.16 7.00 240.16 13.25 239.55 C 16.69 239.21 41.77 237.38 69.00 235.47 Z  M 68.00 75.98 C 68.00 75.41 66.37 71.72 64.39 67.78 C 60.78 60.61 60.78 60.61 62.16 52.55 C 63.55 44.50 63.55 44.50 68.19 44.20 C 72.83 43.90 72.83 43.90 74.73 52.20 C 76.64 60.50 76.64 60.50 74.20 67.00 C 72.85 70.58 71.53 74.29 71.26 75.25 C 70.80 76.89 72.51 77.00 97.38 77.00 C 112.02 77.00 124.00 76.75 124.00 76.45 C 124.00 76.16 121.67 72.46 118.83 68.24 C 114.54 61.89 109.00 48.67 109.00 44.78 C 109.00 44.39 113.61 43.94 119.25 43.78 C 129.50 43.50 129.50 43.50 129.78 27.75 C 129.94 18.58 129.66 12.00 129.13 12.00 C 128.62 12.00 124.83 15.15 120.71 19.00 C 113.21 26.00 113.21 26.00 90.11 26.00 C 72.51 26.00 67.00 25.71 67.00 24.77 C 67.00 24.10 70.48 20.05 74.73 15.77 C 82.45 8.00 82.45 8.00 47.23 8.00 C 27.85 8.00 12.00 8.27 12.00 8.60 C 12.00 8.93 14.91 12.45 18.46 16.42 C 24.93 23.64 24.93 23.64 21.46 42.07 C 18.01 60.38 17.96 60.55 12.99 67.74 C 10.25 71.72 8.00 75.43 8.00 75.99 C 8.00 76.65 18.41 77.00 38.00 77.00 C 57.82 77.00 68.00 76.65 68.00 75.98 Z  M 188.00 76.42 C 188.00 76.11 186.11 72.62 183.81 68.67 C 179.21 60.80 179.17 60.52 181.58 50.70 C 183.24 43.90 183.24 43.90 187.85 44.20 C 192.47 44.50 192.47 44.50 194.85 52.57 C 197.23 60.64 197.23 60.64 194.11 67.74 C 192.40 71.64 191.00 75.32 191.00 75.92 C 191.00 76.67 199.01 77.00 217.00 77.00 C 234.89 77.00 243.00 76.66 243.00 75.92 C 243.00 75.33 240.75 71.62 238.00 67.67 C 234.50 62.64 232.30 58.04 230.62 52.25 C 228.23 44.00 228.23 44.00 238.62 44.00 C 249.00 44.00 249.00 44.00 249.00 27.40 C 249.00 10.79 249.00 10.79 240.92 18.40 C 232.83 26.00 232.83 26.00 209.42 26.00 C 196.54 26.00 186.00 25.67 186.00 25.27 C 186.00 24.87 189.70 20.82 194.23 16.27 C 202.46 8.00 202.46 8.00 166.63 8.00 C 130.81 8.00 130.81 8.00 135.16 13.06 C 145.44 25.04 144.78 21.81 141.08 41.81 C 137.82 59.46 137.80 59.52 132.41 67.74 C 129.43 72.27 127.00 76.21 127.00 76.49 C 127.00 76.77 140.72 77.00 157.50 77.00 C 174.28 77.00 188.00 76.74 188.00 76.42 Z  M 172.23 132.75 C 172.50 110.50 172.50 110.50 186.75 110.22 C 199.28 109.98 201.00 110.14 201.00 111.55 C 201.00 114.35 197.98 148.36 197.44 151.75 C 196.91 155.00 196.91 155.00 184.44 155.00 C 171.96 155.00 171.96 155.00 172.23 132.75 Z "/>
</g>
</svg>