<?xml version="1.0" encoding="UTF-8" standalone="no"?>
<!DOCTYPE svg PUBLIC "-//W3C//DTD SVG 1.1//EN" "http://www.w3.org/Graphics/SVG/1.1/DTD/svg11.dtd" >
<svg xmlns="http://www.w3.org/2000/svg" xmlns:xlink="http://www.w3.org/1999/xlink" version="1.1" viewBox="0 0 256 256">
 <g >
 <path fill="currentColor"
d=" M 247.98 228.25 C 247.95 207.34 249.18 207.82 235.23 223.27 C 230.96 228.00 230.96 228.00 213.98 228.00 C 197.00 228.00 197.00 228.00 197.00 133.50 C 197.00 39.00 197.00 39.00 222.00 39.00 C 247.00 39.00 247.00 39.00 247.00 23.38 C 247.00 6.10 248.22 6.66 234.67 17.70 C 231.85 20.00 231.85 20.00 168.92 20.00 C 106.00 20.00 106.00 20.00 106.00 29.50 C 106.00 39.00 106.00 39.00 130.50 39.00 C 155.00 39.00 155.00 39.00 155.00 133.50 C 155.00 228.00 155.00 228.00 130.00 228.00 C 105.00 228.00 105.00 228.00 105.00 237.50 C 105.00 247.00 105.00 247.00 176.50 247.00 C 248.00 247.00 248.00 247.00 247.98 228.25 Z  M 54.00 231.95 C 76.28 229.19 96.19 226.66 98.25 226.34 C 102.00 225.74 102.00 225.74 102.00 216.81 C 102.00 207.88 102.00 207.88 97.75 208.46 C 95.41 208.78 75.95 211.05 54.50 213.50 C 33.05 215.95 13.59 218.21 11.25 218.54 C 7.00 219.12 7.00 219.12 7.00 228.61 C 7.00 238.09 7.00 238.09 10.25 237.53 C 12.04 237.23 31.73 234.72 54.00 231.95 Z  M 99.96 178.75 C 99.91 163.50 99.91 163.50 94.21 169.76 C 88.50 176.01 88.50 176.01 81.25 176.01 C 77.26 176.00 74.00 175.65 74.00 175.23 C 74.00 174.80 78.64 151.29 84.31 122.98 C 94.62 71.50 94.62 71.50 99.77 64.50 C 104.93 57.50 104.93 57.50 83.28 57.23 C 71.38 57.08 61.32 57.31 60.92 57.73 C 60.53 58.15 59.01 64.12 57.56 71.00 C 51.75 98.35 52.20 97.00 48.87 97.00 C 46.07 97.00 45.94 96.82 46.50 93.75 C 46.83 91.96 49.93 74.67 53.40 55.33 C 59.70 20.16 59.70 20.16 64.81 14.33 C 69.93 8.50 69.93 8.50 57.52 8.22 C 50.70 8.07 39.27 8.07 32.12 8.22 C 19.12 8.50 19.12 8.50 22.53 14.07 C 25.94 19.64 25.94 19.64 19.95 60.57 C 14.34 98.93 13.74 101.95 10.53 108.75 C 7.10 116.00 7.10 116.00 26.99 116.00 C 37.93 116.00 47.06 116.34 47.28 116.75 C 47.50 117.16 44.78 131.20 41.24 147.94 C 34.80 178.38 34.80 178.38 28.86 186.19 C 22.91 194.00 22.91 194.00 61.46 194.00 C 100.00 194.00 100.00 194.00 99.96 178.75 Z "/>
</g>
</svg>