<?xml version="1.0" encoding="UTF-8" standalone="no"?>
<!DOCTYPE svg PUBLIC "-//W3C//DTD SVG 1.1//EN" "http://www.w3.org/Graphics/SVG/1.1/DTD/svg11.dtd" >
<svg xmlns="http://www.w3.org/2000/svg" xmlns:xlink="http://www.w3.org/1999/xlink" version="1.1" viewBox="0 0 256 256">
 <g >
 <path fill="currentColor"
d=" M 135.00 248.68 C 135.00 248.50 132.76 245.47 130.02 241.93 C 125.03 235.50 125.03 235.50 130.52 235.20 C 136.00 234.90 136.00 234.90 135.98 218.70 C 135.95 202.50 135.95 202.50 130.51 208.50 C 125.08 214.50 125.08 214.50 125.04 183.75 C 125.00 153.00 125.00 153.00 187.00 153.00 C 249.00 153.00 249.00 153.00 248.96 136.25 C 248.91 119.50 248.91 119.50 242.21 126.76 C 235.50 134.02 235.50 134.02 191.70 134.01 C 147.89 134.00 147.89 134.00 148.20 129.25 C 148.50 124.50 148.50 124.50 192.72 124.24 C 236.95 123.98 236.95 123.98 237.22 109.24 C 237.50 94.50 237.50 94.50 241.25 94.19 C 245.00 93.88 245.00 93.88 245.00 80.32 C 245.00 65.10 245.87 65.76 235.60 73.18 C 231.82 75.91 231.31 76.00 219.35 76.00 C 212.56 76.00 207.00 75.76 207.00 75.46 C 207.00 75.16 209.59 72.47 212.75 69.49 C 218.50 64.07 218.50 64.07 186.16 64.04 C 153.81 64.00 153.81 64.00 158.41 69.11 C 160.93 71.92 163.00 74.62 163.00 75.11 C 163.00 76.15 93.68 76.35 92.64 75.31 C 92.26 74.93 94.31 72.23 97.19 69.31 C 102.43 64.00 102.43 64.00 69.47 64.04 C 36.50 64.07 36.50 64.07 42.25 69.49 C 45.41 72.47 48.00 75.16 48.00 75.46 C 48.00 75.76 39.45 76.00 29.00 76.00 C 10.00 76.00 10.00 76.00 10.00 84.99 C 10.00 93.98 10.00 93.98 58.25 94.24 C 106.50 94.50 106.50 94.50 106.80 99.75 C 107.10 105.00 107.10 105.00 63.05 105.00 C 19.00 105.00 19.00 105.00 19.00 114.49 C 19.00 123.98 19.00 123.98 62.75 124.24 C 106.50 124.50 106.50 124.50 106.80 129.25 C 107.11 134.00 107.11 134.00 57.05 134.00 C 7.00 134.00 7.00 134.00 7.00 143.50 C 7.00 153.00 7.00 153.00 12.50 153.00 C 18.00 153.00 18.00 153.00 18.00 184.50 C 18.00 216.00 18.00 216.00 12.50 216.00 C 7.00 216.00 7.00 216.00 7.00 225.50 C 7.00 235.00 7.00 235.00 44.22 235.00 C 81.45 235.00 81.45 235.00 74.50 242.00 C 67.55 249.00 67.55 249.00 101.28 249.00 C 119.82 249.00 135.00 248.86 135.00 248.68 Z  M 187.69 244.96 C 194.09 240.91 194.09 240.91 201.42 244.96 C 208.75 249.00 208.75 249.00 228.87 249.00 C 249.00 249.00 249.00 249.00 249.00 233.28 C 249.00 217.55 249.00 217.55 242.25 224.16 C 235.50 230.76 235.50 230.76 229.50 226.82 C 226.20 224.65 223.50 222.47 223.50 221.97 C 223.50 221.47 227.32 218.66 232.00 215.73 C 240.50 210.41 240.50 210.41 240.78 198.07 C 241.16 181.47 239.69 176.32 232.63 169.44 C 224.56 161.58 224.01 161.50 178.50 161.50 C 139.50 161.50 139.50 161.50 139.21 170.25 C 138.92 179.00 138.92 179.00 170.96 179.00 C 203.00 179.00 203.00 179.00 202.97 188.25 C 202.94 197.50 202.94 197.50 197.49 200.80 C 192.03 204.10 192.03 204.10 187.52 201.46 C 185.03 200.00 183.00 198.11 183.00 197.26 C 183.00 196.41 185.06 193.30 187.58 190.36 C 192.15 185.00 192.15 185.00 164.49 185.00 C 136.83 185.00 136.83 185.00 139.99 188.99 C 141.73 191.18 143.56 193.23 144.07 193.55 C 144.58 193.86 145.00 198.12 145.00 203.01 C 145.00 211.89 145.00 211.89 154.48 217.20 C 159.69 220.11 163.96 222.72 163.97 223.00 C 163.97 223.28 161.54 225.19 158.56 227.26 C 153.15 231.02 153.15 231.02 147.40 224.51 C 144.23 220.93 141.27 218.00 140.82 218.00 C 139.85 218.00 139.70 247.36 140.67 248.33 C 141.03 248.70 150.32 249.00 161.31 249.00 C 181.28 249.00 181.28 249.00 187.69 244.96 Z  M 249.00 42.90 C 249.00 25.80 249.00 25.80 241.90 33.40 C 237.87 37.71 233.98 41.00 232.90 41.00 C 231.86 41.00 231.00 40.86 231.00 40.68 C 231.00 40.51 231.49 37.70 232.09 34.43 C 232.99 29.58 234.17 27.28 238.59 21.80 C 241.57 18.12 244.00 14.86 244.00 14.55 C 244.00 14.25 232.97 14.00 219.50 14.00 C 203.31 14.00 195.00 14.35 195.00 15.03 C 195.00 15.60 196.16 18.36 197.59 21.17 C 200.27 26.46 200.30 28.06 197.89 37.29 C 196.90 41.09 196.90 41.09 190.20 40.79 C 183.50 40.50 183.50 40.50 183.21 32.40 C 182.92 24.29 182.92 24.29 189.50 16.15 C 196.08 8.00 196.08 8.00 163.48 8.00 C 137.69 8.00 131.03 8.26 131.60 9.25 C 131.99 9.94 134.26 13.28 136.65 16.68 C 141.00 22.86 141.00 22.86 141.00 31.93 C 141.00 41.00 141.00 41.00 127.50 41.00 C 114.00 41.00 114.00 41.00 114.00 32.18 C 114.00 23.35 114.00 23.35 119.50 16.00 C 122.53 11.96 125.00 8.50 125.00 8.32 C 125.00 8.15 110.13 8.00 91.96 8.00 C 58.92 8.00 58.92 8.00 65.50 16.15 C 72.08 24.29 72.08 24.29 71.79 32.40 C 71.50 40.50 71.50 40.50 65.09 40.80 C 60.90 41.00 58.43 40.69 57.94 39.91 C 57.53 39.25 56.90 35.90 56.53 32.46 C 55.94 26.95 56.17 25.60 58.43 21.14 C 59.84 18.35 61.00 15.60 61.00 15.03 C 61.00 14.35 52.53 14.00 35.98 14.00 C 10.95 14.00 10.95 14.00 16.39 21.25 C 20.72 27.01 22.05 29.72 22.91 34.43 C 23.51 37.70 24.00 40.51 24.00 40.68 C 24.00 40.86 20.18 41.00 15.50 41.00 C 7.00 41.00 7.00 41.00 7.00 50.50 C 7.00 60.00 7.00 60.00 128.00 60.00 C 249.00 60.00 249.00 60.00 249.00 42.90 Z  M 60.00 212.00 C 60.00 208.00 60.00 208.00 71.00 208.00 C 82.00 208.00 82.00 208.00 82.00 212.00 C 82.00 216.00 82.00 216.00 71.00 216.00 C 60.00 216.00 60.00 216.00 60.00 212.00 Z  M 60.00 185.50 C 60.00 182.00 60.00 182.00 71.00 182.00 C 82.00 182.00 82.00 182.00 82.00 185.50 C 82.00 189.00 82.00 189.00 71.00 189.00 C 60.00 189.00 60.00 189.00 60.00 185.50 Z  M 60.00 158.00 C 60.00 153.00 60.00 153.00 71.00 153.00 C 82.00 153.00 82.00 153.00 82.00 158.00 C 82.00 163.00 82.00 163.00 71.00 163.00 C 60.00 163.00 60.00 163.00 60.00 158.00 Z  M 148.20 99.75 C 148.50 94.50 148.50 94.50 190.75 94.24 C 216.43 94.08 233.00 94.34 233.00 94.91 C 233.00 95.43 230.59 97.91 227.64 100.42 C 222.28 105.00 222.28 105.00 185.09 105.00 C 147.90 105.00 147.90 105.00 148.20 99.75 Z "/>
</g>
</svg>