<?xml version="1.0" encoding="UTF-8" standalone="no"?>
<!DOCTYPE svg PUBLIC "-//W3C//DTD SVG 1.1//EN" "http://www.w3.org/Graphics/SVG/1.1/DTD/svg11.dtd" >
<svg xmlns="http://www.w3.org/2000/svg" xmlns:xlink="http://www.w3.org/1999/xlink" version="1.1" viewBox="0 0 256 256">
 <g >
 <path fill="currentColor"
d=" M 72.65 242.38 C 75.45 241.01 77.18 239.14 79.00 235.50 C 81.44 230.62 81.51 229.90 81.84 204.50 C 82.03 190.20 81.87 175.58 81.48 172.00 C 80.86 166.18 80.40 165.13 77.03 162.00 C 72.06 157.38 65.49 146.94 57.51 131.02 C 51.94 119.90 51.00 117.27 51.02 112.76 C 51.05 106.05 53.70 100.22 58.53 96.24 C 62.96 92.58 73.27 88.55 80.79 87.52 C 86.07 86.80 86.07 86.80 89.41 80.15 C 93.28 72.45 93.10 71.34 87.12 65.57 C 79.95 58.65 77.04 45.44 79.44 30.66 C 80.29 25.45 80.54 20.92 80.05 19.66 C 77.96 14.17 70.87 11.00 60.71 11.00 C 51.09 11.00 43.49 13.31 39.30 17.50 C 36.00 20.80 36.00 20.80 36.00 31.75 C 36.00 47.81 34.30 50.99 25.68 51.00 C 21.55 51.01 16.50 54.14 13.99 58.24 C 10.73 63.60 11.53 77.78 15.64 87.20 C 17.50 91.46 21.92 94.00 27.47 94.00 C 37.56 94.00 37.66 98.95 27.96 117.65 C 24.09 125.11 19.29 133.76 17.31 136.86 C 11.95 145.22 10.05 149.97 10.02 155.07 C 9.97 166.39 16.67 175.79 27.64 179.79 C 31.01 181.02 34.23 182.58 34.79 183.26 C 35.39 183.99 35.97 194.56 36.20 209.00 C 36.70 239.85 37.19 241.32 47.69 243.97 C 53.73 245.49 68.17 244.57 72.65 242.38 Z  M 212.31 239.98 C 220.54 238.79 223.87 237.16 229.06 231.82 C 236.21 224.45 236.16 225.03 235.75 156.80 C 235.35 91.43 235.42 92.19 229.69 84.21 C 225.57 78.49 221.23 75.98 214.27 75.30 C 205.76 74.47 203.03 71.26 206.56 66.22 C 207.98 64.19 208.93 64.00 217.51 64.00 C 231.08 64.00 236.32 62.65 239.96 58.23 C 248.10 48.36 245.81 24.69 236.10 18.25 C 232.70 16.00 232.70 16.00 167.82 16.00 C 114.53 16.00 102.34 16.25 99.59 17.40 C 97.06 18.45 95.55 20.22 93.37 24.65 C 90.82 29.85 90.50 31.56 90.50 40.00 C 90.50 47.89 90.89 50.29 92.80 54.17 C 96.04 60.75 98.55 62.04 110.37 63.21 C 123.70 64.52 125.00 65.07 125.00 69.36 C 125.00 73.88 123.66 74.77 115.11 75.98 C 106.06 77.27 103.05 78.81 99.68 83.91 C 96.39 88.87 96.35 90.26 99.36 94.32 C 103.69 100.15 114.45 119.43 116.21 124.50 C 118.31 130.58 118.51 141.84 116.60 146.42 C 114.40 151.67 107.98 158.10 102.50 160.54 C 93.47 164.56 93.83 163.14 94.19 193.15 C 94.54 223.06 94.36 222.27 103.23 231.65 C 108.40 237.12 111.72 238.73 120.40 240.00 C 128.08 241.13 204.49 241.11 212.31 239.98 Z  M 97.65 151.02 C 106.60 146.55 108.47 144.12 108.47 136.99 C 108.47 131.83 107.80 129.81 103.11 120.72 C 96.99 108.86 92.15 101.80 88.48 99.40 C 80.94 94.46 63.12 102.51 61.41 111.63 C 60.90 114.34 62.00 117.26 68.02 129.19 C 76.15 145.29 78.85 149.33 83.37 152.08 C 87.68 154.72 90.70 154.49 97.65 151.02 Z  M 158.00 198.96 C 141.25 198.23 136.43 197.28 135.35 194.47 C 135.02 193.61 132.44 191.75 129.63 190.34 C 113.94 182.49 110.74 173.97 117.03 156.78 C 121.94 143.36 123.20 137.26 123.96 123.16 C 124.74 108.73 125.34 107.32 129.91 109.32 C 133.63 110.95 133.97 111.77 133.97 119.00 C 133.96 129.17 131.48 142.75 128.03 151.50 C 122.31 165.97 122.90 175.81 129.64 178.62 C 134.23 180.54 142.78 180.36 147.00 178.25 C 154.43 174.54 156.47 165.90 157.54 133.64 C 158.15 115.08 158.44 112.56 160.11 110.89 C 162.51 108.49 163.26 108.52 165.56 111.07 C 167.26 112.95 167.48 115.59 167.97 139.82 C 168.46 164.29 168.67 166.79 170.54 170.00 C 173.54 175.16 179.86 177.15 191.66 176.66 C 201.65 176.25 205.66 174.69 209.31 169.79 C 211.81 166.44 212.69 157.61 211.03 152.58 C 209.47 147.87 206.31 145.88 199.22 145.11 C 193.50 144.50 193.50 144.50 193.21 130.00 C 193.06 122.03 193.17 114.50 193.47 113.28 C 194.33 109.83 197.62 108.52 200.57 110.45 C 202.91 111.99 203.00 112.48 203.00 123.40 C 203.00 135.97 203.09 136.16 209.62 137.91 C 219.18 140.46 222.57 146.87 221.77 160.88 C 221.36 168.16 220.75 170.69 218.38 175.05 C 215.20 180.90 209.31 185.36 202.52 187.05 C 196.55 188.53 195.63 189.31 194.75 193.59 C 193.33 200.57 193.75 200.51 158.00 198.96 Z  M 160.88 76.36 C 159.27 74.41 159.25 64.79 160.86 60.75 C 162.27 57.19 167.11 56.89 169.44 60.22 C 171.24 62.79 171.58 73.05 169.96 76.07 C 168.66 78.51 162.83 78.70 160.88 76.36 Z "/>
</g>
</svg>