<?xml version="1.0" encoding="UTF-8" standalone="no"?>
<!DOCTYPE svg PUBLIC "-//W3C//DTD SVG 1.1//EN" "http://www.w3.org/Graphics/SVG/1.1/DTD/svg11.dtd" >
<svg xmlns="http://www.w3.org/2000/svg" xmlns:xlink="http://www.w3.org/1999/xlink" version="1.1" viewBox="0 0 256 256">
 <g >
 <path fill="currentColor"
d=" M 234.10 246.71 C 238.48 244.86 240.58 242.44 242.47 237.07 C 245.57 228.30 243.64 219.42 238.00 216.50 C 236.26 215.60 229.59 213.99 223.17 212.92 C 202.77 209.50 196.00 207.15 196.00 203.46 C 196.00 201.48 199.57 201.03 216.00 200.94 C 239.79 200.80 243.16 198.95 243.83 185.67 C 244.36 175.11 242.84 170.55 237.54 166.82 C 233.47 163.95 233.26 163.56 234.19 160.88 C 234.78 159.21 235.04 150.57 234.82 140.25 C 234.33 116.77 233.83 115.76 220.20 110.96 C 210.59 107.58 210.27 106.39 215.95 95.60 C 222.75 82.69 221.32 74.32 211.58 69.90 C 208.15 68.34 204.86 68.04 191.00 68.00 C 171.65 67.94 167.39 67.15 161.26 62.47 C 155.12 57.79 150.46 56.73 138.01 57.17 C 119.93 57.83 116.68 60.69 98.25 92.25 C 89.09 107.94 86.00 115.18 86.00 120.96 C 86.00 126.32 86.67 127.63 90.69 130.12 C 93.94 132.12 94.14 132.54 93.49 135.89 C 93.11 137.88 92.59 144.79 92.34 151.26 C 91.88 163.02 91.88 163.02 88.03 164.98 C 82.45 167.83 80.52 173.35 81.48 183.71 C 82.38 193.45 84.08 197.67 87.70 199.17 C 89.24 199.81 97.89 200.59 106.92 200.92 C 129.56 201.72 129.72 204.05 107.50 209.41 C 90.49 213.52 87.26 214.79 84.49 218.43 C 82.37 221.21 82.00 222.76 82.00 228.94 C 82.00 238.53 83.79 242.23 89.84 245.18 C 97.02 248.68 106.38 248.21 122.00 243.59 C 142.06 237.65 148.89 233.98 160.50 222.91 C 166.92 216.79 171.75 214.79 173.90 217.38 C 174.88 218.55 174.61 219.83 172.56 223.88 C 170.42 228.11 170.19 229.32 171.14 231.41 C 173.18 235.89 192.99 244.96 206.50 247.59 C 214.83 249.21 229.28 248.75 234.10 246.71 Z  M 52.89 241.54 C 61.22 238.60 67.27 232.07 71.13 221.88 C 72.25 218.92 73.79 215.80 74.56 214.95 C 75.32 214.10 76.58 211.61 77.35 209.43 C 78.71 205.58 78.66 205.35 75.86 202.00 C 72.02 197.41 71.01 193.32 71.01 182.41 C 71.00 171.54 72.81 164.82 76.89 160.60 C 79.82 157.58 79.89 157.23 80.07 146.72 C 80.21 138.35 79.91 135.55 78.75 134.22 C 75.07 130.02 73.75 125.72 74.24 119.56 C 74.67 114.19 75.81 111.57 84.22 96.50 C 100.58 67.20 106.84 57.91 113.34 53.29 C 122.93 46.46 142.84 43.93 155.85 47.89 C 159.67 49.04 165.20 51.62 168.14 53.62 C 173.50 57.24 173.50 57.24 190.50 58.17 C 217.60 59.67 221.50 60.98 228.00 70.84 C 231.20 75.69 231.76 76.10 234.45 75.56 C 242.89 73.87 245.51 68.99 245.47 55.00 C 245.45 46.09 245.11 43.86 243.21 40.26 C 239.10 32.49 239.51 32.58 204.43 31.90 C 187.30 31.56 172.85 31.02 172.32 30.70 C 171.79 30.37 170.11 26.93 168.59 23.06 C 165.41 14.94 162.95 12.62 155.12 10.35 C 144.40 7.23 121.88 10.68 115.73 16.37 C 113.45 18.48 111.02 24.32 111.01 27.71 C 110.99 30.48 106.61 31.00 83.32 31.02 C 56.45 31.05 54.54 31.45 47.64 38.56 C 40.43 45.98 41.17 50.15 52.89 67.91 C 62.57 82.58 66.38 90.78 68.10 100.63 C 69.49 108.64 68.36 112.28 62.37 118.93 C 55.04 127.08 42.62 131.98 29.22 131.99 C 24.12 132.00 14.71 136.44 10.16 140.99 C 8.47 142.69 6.78 145.66 6.42 147.59 C 4.68 156.85 10.44 169.56 18.20 173.60 C 21.85 175.50 25.35 175.37 35.71 172.95 C 44.50 170.90 44.50 170.90 46.20 173.00 C 47.13 174.15 47.67 175.68 47.40 176.40 C 47.12 177.12 43.36 179.30 39.03 181.24 C 30.07 185.28 29.92 185.45 20.11 204.50 C 14.57 215.25 13.92 217.15 13.83 222.73 C 13.77 226.96 14.27 229.76 15.39 231.47 C 17.51 234.71 25.34 238.65 34.36 241.02 C 43.12 243.31 47.51 243.44 52.89 241.54 Z  M 44.57 120.11 C 54.12 115.77 59.96 107.07 58.55 99.29 C 56.94 90.40 44.53 69.51 38.77 66.00 C 34.05 63.12 23.93 63.24 17.97 66.25 C 12.84 68.84 9.04 74.61 9.02 79.86 C 9.01 81.86 11.49 88.71 15.18 96.86 C 22.55 113.11 26.19 119.30 29.24 120.77 C 32.75 122.47 40.08 122.15 44.57 120.11 Z  M 132.04 158.81 C 129.47 156.05 129.18 146.62 131.56 143.22 C 133.82 140.00 141.17 140.08 144.47 143.37 C 146.80 145.71 148.59 152.72 147.84 156.61 C 146.97 161.11 135.65 162.69 132.04 158.81 Z  M 182.34 159.00 C 179.75 157.96 178.53 153.32 179.49 148.17 C 180.47 142.94 181.62 142.00 187.08 142.00 C 194.15 142.00 196.82 145.38 196.15 153.50 C 195.76 158.40 188.26 161.39 182.34 159.00 Z  M 138.14 108.84 C 136.92 105.55 137.89 102.46 141.44 98.35 C 144.67 94.62 144.67 94.62 154.08 94.82 C 167.60 95.11 169.43 95.76 169.81 100.35 C 170.08 103.48 169.57 104.63 166.66 107.54 C 163.20 111.00 163.20 111.00 151.07 111.00 C 139.55 111.00 138.90 110.89 138.14 108.84 Z "/>
</g>
</svg>