<?xml version="1.0" encoding="UTF-8" standalone="no"?>
<!DOCTYPE svg PUBLIC "-//W3C//DTD SVG 1.1//EN" "http://www.w3.org/Graphics/SVG/1.1/DTD/svg11.dtd" >
<svg xmlns="http://www.w3.org/2000/svg" xmlns:xlink="http://www.w3.org/1999/xlink" version="1.1" viewBox="0 0 256 256">
 <g >
 <path fill="currentColor"
d=" M 71.00 245.53 C 107.82 242.91 126.67 240.40 140.00 236.32 C 144.68 234.89 150.30 233.74 152.50 233.76 C 154.70 233.77 168.20 236.60 182.50 240.03 C 218.77 248.74 224.79 248.63 230.36 239.11 C 235.28 230.71 234.35 224.24 227.35 218.08 C 222.51 213.81 218.18 212.12 205.31 209.44 C 195.92 207.49 194.34 205.82 198.49 202.25 C 200.96 200.13 201.98 200.00 216.54 200.00 C 234.35 200.00 238.99 198.83 241.72 193.63 C 243.78 189.70 243.70 181.25 241.56 177.12 C 240.68 175.42 238.53 173.29 236.77 172.38 C 233.80 170.84 232.74 170.85 221.54 172.43 C 211.54 173.83 203.05 174.07 171.50 173.81 C 134.04 173.50 133.50 173.47 133.21 171.44 C 133.04 170.31 133.88 168.52 135.06 167.44 C 137.09 165.61 139.36 165.47 175.85 165.00 C 213.86 164.51 214.56 164.46 218.15 162.23 C 221.77 159.98 223.99 156.04 225.45 149.26 C 226.06 146.48 226.86 145.78 231.23 144.26 C 238.40 141.77 240.20 138.62 239.79 129.30 C 239.40 120.57 237.31 117.20 230.89 114.97 C 226.73 113.52 226.43 113.16 225.17 107.97 C 224.44 104.96 222.86 101.43 221.67 100.12 C 216.91 94.90 214.91 94.61 180.73 94.19 C 150.87 93.83 148.91 93.70 147.96 91.93 C 147.19 90.49 147.40 89.60 148.87 88.13 C 150.48 86.52 152.93 86.10 164.40 85.49 C 181.50 84.57 211.49 85.70 219.81 87.58 C 223.28 88.36 228.11 89.00 230.53 89.00 C 236.27 89.00 237.45 86.94 237.48 76.83 C 237.50 70.21 237.19 68.84 235.21 66.73 C 231.18 62.44 227.35 62.00 192.88 61.96 C 175.07 61.93 158.70 61.56 156.50 61.12 C 153.80 60.59 151.19 59.01 148.48 56.27 C 143.37 51.12 139.29 50.01 125.50 50.01 C 111.96 50.01 108.30 50.98 102.35 56.13 C 99.78 58.35 96.60 60.58 95.28 61.09 C 93.95 61.59 78.45 62.00 60.84 62.00 C 24.24 62.00 23.35 62.16 20.54 69.19 C 17.08 77.84 19.28 87.00 25.02 87.84 C 26.30 88.03 30.98 87.42 35.42 86.50 C 42.14 85.09 48.08 84.87 70.83 85.15 C 96.25 85.48 98.26 85.63 99.54 87.39 C 100.53 88.74 100.64 89.81 99.93 91.14 C 98.99 92.88 97.27 93.00 73.21 93.01 C 42.36 93.01 36.61 93.72 32.75 97.99 C 29.86 101.19 29.17 105.58 31.01 109.02 C 32.78 112.33 38.58 112.99 66.13 112.99 C 80.77 113.00 94.19 113.29 95.95 113.64 C 99.64 114.38 101.84 118.28 99.90 120.62 C 98.15 122.73 37.02 122.62 31.00 120.50 C 23.64 117.90 21.34 118.41 18.91 123.17 C 14.95 130.94 18.56 140.12 24.96 138.52 C 32.63 136.59 40.11 136.14 65.70 136.07 C 95.24 136.00 98.35 136.39 99.37 140.32 C 100.55 144.83 99.48 145.00 69.13 145.02 C 38.81 145.05 33.55 145.60 30.75 149.06 C 28.04 152.41 28.41 159.50 31.45 162.55 C 33.91 165.00 33.91 165.00 55.70 165.02 C 67.69 165.02 78.10 165.41 78.84 165.88 C 79.57 166.34 80.02 167.79 79.84 169.09 C 79.20 173.54 76.20 174.07 53.50 173.77 C 35.93 173.53 31.56 173.17 26.75 171.56 C 21.33 169.75 20.79 169.73 17.54 171.28 C 9.25 175.23 7.87 190.88 15.32 196.41 C 17.80 198.24 19.96 198.56 32.80 199.00 C 47.46 199.50 47.46 199.50 50.98 204.70 C 52.92 207.56 55.13 210.16 55.91 210.48 C 56.69 210.80 62.93 212.16 69.79 213.50 C 83.93 216.26 87.62 217.98 85.99 221.02 C 85.41 222.10 83.73 223.28 82.24 223.65 C 77.80 224.77 64.20 222.27 51.50 218.00 C 38.47 213.62 34.81 213.22 29.23 215.55 C 19.68 219.54 15.62 228.49 19.37 237.28 C 23.57 247.14 31.18 248.35 71.00 245.53 Z  M 225.92 50.95 C 240.77 49.36 245.96 45.19 244.70 35.82 C 244.09 31.28 241.87 27.74 237.62 24.56 C 235.11 22.68 232.97 22.45 213.68 21.89 C 202.03 21.56 192.36 21.22 192.20 21.14 C 192.03 21.06 191.24 19.43 190.44 17.51 C 189.59 15.48 187.23 12.86 184.81 11.26 C 180.80 8.60 180.17 8.50 167.57 8.50 C 151.09 8.50 146.24 10.03 142.77 16.32 C 140.46 20.50 140.46 20.50 126.76 20.78 C 113.06 21.06 113.06 21.06 110.62 17.18 C 106.83 11.19 102.54 9.63 88.59 9.17 C 73.99 8.69 70.34 9.67 63.75 15.83 C 58.76 20.50 58.76 20.50 37.98 21.51 C 15.04 22.62 14.27 22.86 11.35 29.74 C 8.70 36.02 12.73 46.16 19.33 49.77 C 22.15 51.31 26.04 51.50 55.07 51.50 C 87.65 51.50 87.65 51.50 93.57 47.89 C 103.25 42.00 107.95 40.78 123.07 40.26 C 140.62 39.64 145.79 40.72 155.39 46.99 C 159.48 49.66 164.11 52.00 165.67 52.18 C 171.47 52.84 216.84 51.91 225.92 50.95 Z  M 126.50 203.90 C 117.63 202.97 110.00 200.51 110.00 198.57 C 110.00 197.88 110.95 196.45 112.10 195.40 C 113.96 193.72 116.15 193.46 130.87 193.19 C 140.78 193.00 148.65 193.29 150.27 193.91 C 153.62 195.19 153.81 197.91 150.75 200.70 C 145.74 205.26 143.01 205.62 126.50 203.90 Z  M 149.02 145.02 C 146.65 142.65 147.32 140.21 150.70 138.92 C 153.92 137.70 173.18 137.74 176.43 138.98 C 179.63 140.19 179.80 143.33 176.78 145.44 C 175.07 146.64 171.82 147.00 162.78 147.00 C 152.38 147.00 150.77 146.77 149.02 145.02 Z  M 148.06 120.12 C 147.28 118.65 147.44 117.68 148.76 116.06 C 150.40 114.05 151.26 113.94 163.89 114.21 C 175.37 114.46 177.44 114.75 178.39 116.25 C 179.19 117.52 179.19 118.48 178.39 119.75 C 177.44 121.26 175.34 121.54 163.19 121.78 C 150.13 122.03 149.02 121.91 148.06 120.12 Z "/>
</g>
</svg>