<?xml version="1.0" encoding="UTF-8" standalone="no"?>
<!DOCTYPE svg PUBLIC "-//W3C//DTD SVG 1.1//EN" "http://www.w3.org/Graphics/SVG/1.1/DTD/svg11.dtd" >
<svg xmlns="http://www.w3.org/2000/svg" xmlns:xlink="http://www.w3.org/1999/xlink" version="1.1" viewBox="0 0 256 256">
 <g >
 <path fill="currentColor"
d=" M 218.67 241.85 C 228.28 239.43 231.70 232.72 235.00 209.77 C 238.64 184.42 240.14 161.14 240.70 121.00 C 241.32 77.12 240.96 73.11 235.68 65.33 C 230.78 58.11 228.52 56.91 217.86 55.82 C 205.10 54.52 205.00 54.38 205.00 38.45 C 205.00 31.68 204.52 24.86 203.94 23.32 C 200.91 15.32 193.61 12.47 177.86 13.16 C 167.51 13.61 163.41 15.22 159.63 20.29 C 157.33 23.37 157.26 24.73 158.51 43.19 C 159.27 54.59 159.22 55.02 156.64 60.30 C 155.15 63.34 151.51 68.07 148.32 71.08 C 143.95 75.22 142.48 77.35 141.92 80.43 C 140.77 86.71 141.90 90.88 145.71 94.37 C 147.59 96.09 150.44 98.70 152.06 100.17 C 154.81 102.67 155.00 103.32 154.97 110.17 C 154.96 114.20 153.94 124.47 152.71 133.00 C 150.72 146.83 150.61 149.52 151.65 158.00 C 154.17 178.33 153.08 184.48 145.49 192.88 C 142.51 196.18 140.40 197.39 134.64 199.08 C 122.70 202.58 123.00 202.16 123.00 215.55 C 123.00 227.04 123.00 227.04 127.25 231.68 C 132.53 237.43 137.64 239.77 146.82 240.62 C 157.22 241.59 157.07 241.85 156.77 223.62 C 156.56 211.14 156.81 207.89 158.19 205.00 C 161.42 198.29 165.10 195.10 173.00 192.19 C 179.83 189.68 180.61 189.11 181.69 185.83 C 183.61 179.98 187.99 140.25 188.58 123.24 C 188.88 114.58 189.33 106.50 189.58 105.28 C 190.21 102.14 193.21 100.75 196.57 102.03 C 199.28 103.06 199.28 103.06 198.72 129.78 C 198.04 162.63 194.94 187.40 190.43 196.14 C 189.30 198.32 187.99 198.96 182.86 199.87 C 178.42 200.65 175.82 201.75 173.74 203.73 C 168.74 208.48 167.57 211.71 167.65 220.54 C 167.75 232.83 171.75 240.25 179.21 242.02 C 184.42 243.25 213.60 243.13 218.67 241.85 Z  M 96.52 239.64 C 102.05 237.90 108.13 232.43 110.04 227.50 C 110.68 225.85 111.53 217.80 111.93 209.61 C 112.76 192.75 112.88 192.52 120.89 191.49 C 137.46 189.38 142.44 183.71 142.39 167.00 C 142.36 158.76 140.63 153.58 137.02 151.02 C 132.01 147.45 129.40 148.28 122.74 155.55 C 115.39 163.56 110.60 166.15 101.93 166.77 C 89.76 167.64 78.65 162.55 72.00 153.03 C 70.08 150.28 67.79 147.79 66.91 147.50 C 66.04 147.21 63.11 147.96 60.41 149.17 C 56.29 151.01 53.01 151.46 40.00 151.93 C 22.56 152.57 19.27 153.66 15.55 160.04 C 11.68 166.65 13.78 184.35 19.07 189.76 C 22.86 193.64 26.00 194.18 40.50 193.47 C 54.66 192.78 58.37 193.53 58.80 197.19 C 59.24 200.82 56.86 202.69 50.25 203.96 C 37.41 206.41 34.01 210.26 34.00 222.35 C 34.00 234.89 37.40 239.32 48.36 241.06 C 57.07 242.44 90.76 241.45 96.52 239.64 Z  M 108.45 155.59 C 115.31 152.72 127.17 134.36 127.17 126.60 C 127.17 120.00 125.02 114.23 121.40 111.04 C 117.20 107.36 111.37 106.78 77.10 106.62 C 53.10 106.51 51.26 106.63 47.59 108.55 C 41.65 111.67 39.78 115.89 40.26 125.11 C 40.72 134.11 42.89 138.58 48.17 141.44 C 51.75 143.38 51.75 143.38 57.75 140.69 C 61.05 139.21 64.29 138.00 64.96 138.00 C 65.62 138.00 69.31 136.62 73.15 134.93 C 81.32 131.35 83.62 131.93 81.80 137.13 C 80.19 141.75 81.37 148.82 84.22 151.68 C 89.15 156.60 101.31 158.57 108.45 155.59 Z  M 31.26 135.71 C 30.84 133.40 30.51 127.45 30.53 122.50 C 30.55 115.24 30.98 112.71 32.72 109.41 C 35.27 104.57 40.93 99.34 44.77 98.26 C 46.27 97.84 63.02 97.50 82.00 97.50 C 116.50 97.50 116.50 97.50 122.03 100.22 C 128.19 103.25 133.35 107.84 135.71 112.41 C 136.97 114.84 137.16 117.43 136.65 125.61 C 136.01 136.16 136.82 138.97 139.95 137.03 C 141.59 136.01 143.87 123.03 143.95 114.23 C 144.00 108.36 143.76 107.68 140.24 103.73 C 138.18 101.40 135.66 98.52 134.66 97.33 C 133.65 96.13 131.78 91.03 130.50 85.99 C 129.22 80.96 127.91 76.57 127.59 76.25 C 127.27 75.93 122.84 75.41 117.75 75.08 C 109.05 74.54 108.48 74.36 108.17 72.19 C 107.57 67.94 109.25 67.30 122.40 66.79 C 132.89 66.39 135.52 65.95 139.59 63.91 C 146.69 60.35 148.43 57.38 148.80 48.18 C 149.35 34.14 144.98 30.86 124.50 29.97 C 117.35 29.66 110.73 29.05 109.80 28.61 C 108.86 28.18 107.59 26.28 106.96 24.39 C 104.00 15.41 96.96 11.98 81.57 12.02 C 74.97 12.04 71.41 12.54 68.50 13.86 C 63.78 16.01 62.66 17.26 61.08 22.17 C 59.18 28.08 58.17 28.45 42.41 29.01 C 30.04 29.45 27.75 29.79 25.31 31.58 C 20.43 35.16 18.83 39.51 19.27 48.00 C 19.95 61.25 23.32 63.61 44.27 65.49 C 51.89 66.17 58.66 67.26 59.30 67.90 C 60.19 68.79 60.11 69.71 58.95 71.79 C 57.43 74.50 57.43 74.50 41.46 75.29 C 21.49 76.28 19.62 77.03 16.04 85.50 C 13.66 91.12 13.51 92.52 13.58 107.50 C 13.68 128.05 15.09 133.60 21.27 137.82 C 26.61 141.46 28.07 141.95 30.26 140.83 C 31.71 140.08 31.88 139.20 31.26 135.71 Z "/>
</g>
</svg>