<?xml version="1.0" encoding="UTF-8" standalone="no"?>
<!DOCTYPE svg PUBLIC "-//W3C//DTD SVG 1.1//EN" "http://www.w3.org/Graphics/SVG/1.1/DTD/svg11.dtd" >
<svg xmlns="http://www.w3.org/2000/svg" xmlns:xlink="http://www.w3.org/1999/xlink" version="1.1" viewBox="0 0 256 256">
 <g >
 <path fill="currentColor"
d=" M 229.60 244.75 C 234.15 242.34 238.80 236.57 239.59 232.38 C 240.56 227.19 239.38 214.13 237.57 209.99 C 235.60 205.52 234.20 203.80 230.55 201.42 C 227.89 199.69 225.07 199.45 202.22 199.00 C 178.56 198.53 176.74 198.37 175.42 196.56 C 174.25 194.95 174.01 187.57 174.07 154.06 C 174.15 113.13 174.64 103.96 176.87 101.73 C 177.78 100.82 185.59 100.47 206.82 100.39 C 240.32 100.27 240.33 100.27 244.02 91.80 C 247.32 84.21 247.30 70.75 243.98 63.12 C 240.63 55.41 237.24 54.05 221.37 54.02 C 209.25 54.00 209.25 54.00 205.97 44.93 C 200.95 31.00 195.07 20.09 190.69 16.60 C 185.56 12.49 176.79 11.90 165.09 14.86 C 155.52 17.28 151.92 19.55 149.45 24.73 C 145.80 32.42 146.30 36.99 152.45 52.11 C 153.03 53.53 151.22 53.80 136.81 54.45 C 119.78 55.21 116.03 56.08 112.32 60.12 C 108.90 63.85 108.00 67.42 108.00 77.32 C 108.00 92.30 110.20 96.60 119.39 99.60 C 122.20 100.52 125.06 101.71 125.75 102.25 C 126.69 103.00 127.02 109.65 127.09 128.87 C 127.22 167.61 127.94 175.37 132.54 188.00 C 136.08 197.71 136.37 199.33 136.43 209.51 C 136.50 220.53 136.50 220.53 132.13 227.89 C 127.80 235.19 127.77 235.30 129.34 238.58 C 132.58 245.38 132.88 245.44 168.45 246.09 C 215.50 246.95 225.88 246.72 229.60 244.75 Z  M 65.00 233.92 C 110.69 229.46 117.54 227.81 121.69 220.25 C 124.90 214.39 125.24 209.26 123.00 200.51 C 118.80 184.10 112.55 171.62 106.37 167.31 C 97.63 161.21 87.35 161.81 79.81 168.84 C 76.19 172.21 75.95 172.75 76.93 175.32 C 80.52 184.77 73.92 191.66 66.71 185.99 C 63.59 183.53 62.60 179.52 63.50 172.97 C 64.84 163.23 71.25 157.52 85.43 153.42 C 94.36 150.85 94.36 150.85 102.65 152.92 C 113.14 155.56 113.85 155.53 115.00 152.49 C 116.08 149.65 116.64 117.57 115.66 114.49 C 115.30 113.38 112.58 111.02 109.59 109.23 C 98.92 102.85 96.08 96.48 95.89 78.50 C 95.79 69.62 96.18 66.36 97.88 61.59 C 100.50 54.30 100.54 52.31 98.08 51.53 C 97.03 51.19 95.00 50.00 93.58 48.89 C 91.11 46.95 91.00 46.41 91.00 36.90 C 91.00 21.41 87.32 15.04 77.16 12.93 C 70.28 11.50 59.03 12.48 53.28 15.01 C 46.43 18.02 45.01 21.41 45.00 34.75 C 45.00 48.50 44.09 50.00 35.75 50.01 C 24.92 50.02 17.16 54.07 13.97 61.39 C 12.39 65.01 12.10 70.13 11.52 104.50 C 10.77 149.17 11.31 156.63 15.63 161.14 C 18.53 164.17 26.73 167.24 35.38 168.53 C 42.10 169.54 43.40 171.86 42.77 181.68 C 42.42 187.18 41.82 189.66 40.64 190.52 C 39.74 191.18 34.84 192.28 29.75 192.97 C 19.00 194.42 15.45 195.72 12.00 199.45 C 9.66 201.99 9.50 202.84 9.50 212.83 C 9.51 221.64 9.88 224.31 11.66 228.17 C 14.88 235.13 21.18 238.30 30.00 237.37 C 31.93 237.17 47.67 235.62 65.00 233.92 Z  M 47.07 133.37 C 45.13 130.90 45.00 129.46 45.01 110.62 C 45.02 99.55 45.29 89.52 45.61 88.31 C 46.32 85.68 50.66 83.96 53.73 85.09 C 56.96 86.29 57.32 89.21 56.74 109.34 C 56.20 128.02 55.23 133.27 51.96 135.02 C 49.46 136.36 49.42 136.35 47.07 133.37 Z  M 79.04 133.07 C 77.78 130.71 77.64 88.11 78.89 86.15 C 80.19 84.09 87.10 84.44 88.79 86.65 C 90.95 89.47 89.91 128.97 87.58 132.51 C 85.54 135.63 80.58 135.95 79.04 133.07 Z "/>
</g>
</svg>