<?xml version="1.0" encoding="UTF-8" standalone="no"?>
<!DOCTYPE svg PUBLIC "-//W3C//DTD SVG 1.1//EN" "http://www.w3.org/Graphics/SVG/1.1/DTD/svg11.dtd" >
<svg xmlns="http://www.w3.org/2000/svg" xmlns:xlink="http://www.w3.org/1999/xlink" version="1.1" viewBox="0 0 256 261">
 <g >
 <path fill="currentColor"
d=" M 38.92 227.84 C 45.40 217.32 49.32 207.16 52.01 193.94 C 53.18 188.22 54.22 183.47 54.32 183.40 C 54.84 183.02 74.99 195.18 85.16 202.01 C 96.81 209.83 96.81 209.83 99.91 204.03 C 101.61 200.83 103.00 197.83 103.00 197.36 C 102.99 195.37 64.61 172.00 61.36 172.00 C 60.70 172.00 58.76 174.36 57.04 177.25 C 53.92 182.50 53.92 182.50 54.51 172.50 C 55.67 152.77 50.04 154.94 99.24 155.24 C 142.30 155.50 142.30 155.50 144.56 164.00 C 147.10 173.58 151.69 185.58 155.76 193.31 C 157.26 196.16 158.64 198.83 158.82 199.23 C 159.46 200.64 122.88 217.96 112.69 221.07 C 107.09 222.78 101.72 224.48 100.76 224.84 C 99.21 225.42 99.49 226.31 103.16 232.50 C 105.44 236.35 107.40 239.62 107.51 239.77 C 108.38 240.97 146.94 221.77 160.16 213.53 C 167.34 209.07 167.34 209.07 177.14 219.41 C 185.10 227.80 188.41 230.51 194.72 233.79 C 204.49 238.86 213.75 241.32 221.11 240.79 C 227.97 240.30 235.31 235.53 238.76 229.31 C 241.18 224.95 244.72 212.38 245.20 206.43 C 245.50 202.82 245.49 202.81 238.50 200.02 C 231.50 197.22 231.50 197.22 230.87 204.66 C 228.99 226.71 217.89 230.75 197.24 216.90 C 192.57 213.77 180.00 202.14 180.00 200.94 C 180.00 200.61 187.63 193.62 196.95 185.42 C 213.90 170.50 213.90 170.50 208.73 165.25 C 205.89 162.36 203.09 160.00 202.50 160.00 C 201.92 160.00 198.53 163.45 194.98 167.68 C 191.43 171.90 184.48 178.88 179.53 183.19 C 170.54 191.03 170.54 191.03 166.88 183.77 C 162.81 175.67 157.00 159.88 157.00 156.92 C 157.00 155.06 158.16 155.00 192.50 155.00 C 228.00 155.00 228.00 155.00 228.00 148.52 C 228.00 142.05 228.00 142.05 211.93 141.77 C 195.85 141.50 195.85 141.50 198.73 137.50 C 200.31 135.30 201.92 132.99 202.29 132.37 C 202.71 131.67 199.79 129.15 194.79 125.87 C 186.62 120.50 186.62 120.50 201.31 120.22 C 216.00 119.95 216.00 119.95 216.00 93.47 C 216.00 67.00 216.00 67.00 128.00 67.00 C 40.00 67.00 40.00 67.00 40.00 93.49 C 40.00 119.99 40.00 119.99 111.03 120.24 C 182.06 120.50 182.06 120.50 179.07 124.00 C 177.43 125.92 176.06 127.80 176.04 128.17 C 176.02 128.53 179.71 131.41 184.25 134.55 C 188.79 137.70 192.93 140.66 193.45 141.13 C 193.99 141.62 185.47 142.00 173.83 142.00 C 153.26 142.00 153.26 142.00 151.38 131.75 C 149.50 121.50 149.50 121.50 142.25 121.21 C 133.85 120.87 133.99 120.59 136.50 132.00 C 137.29 135.57 137.95 139.29 137.96 140.25 C 138.00 141.89 135.07 142.00 90.16 142.00 C 42.31 142.00 42.31 142.00 41.65 160.25 C 40.28 198.13 35.02 214.09 18.45 230.74 C 11.24 237.99 11.24 237.99 16.87 242.98 C 22.50 247.97 22.50 247.97 28.15 242.07 C 31.26 238.82 36.10 232.42 38.92 227.84 Z  M 98.79 50.25 C 99.08 41.00 99.08 41.00 127.50 41.00 C 155.92 41.00 155.92 41.00 156.21 49.75 C 156.50 58.50 156.50 58.50 163.25 58.80 C 170.00 59.09 170.00 59.09 170.00 50.05 C 170.00 41.00 170.00 41.00 206.50 41.00 C 243.00 41.00 243.00 41.00 243.00 34.01 C 243.00 27.02 243.00 27.02 206.75 26.76 C 170.50 26.50 170.50 26.50 170.22 13.75 C 169.94 1.00 169.94 1.00 162.97 1.00 C 156.00 1.00 156.00 1.00 156.00 14.00 C 156.00 27.00 156.00 27.00 127.50 27.00 C 99.00 27.00 99.00 27.00 99.00 14.50 C 99.00 2.00 99.00 2.00 91.53 2.00 C 84.06 2.00 84.06 2.00 83.78 14.25 C 83.50 26.50 83.50 26.50 47.75 26.76 C 12.00 27.03 12.00 27.03 12.00 34.01 C 12.00 41.00 12.00 41.00 48.00 41.00 C 84.00 41.00 84.00 41.00 84.00 50.54 C 84.00 60.09 84.00 60.09 91.25 59.79 C 98.50 59.50 98.50 59.50 98.79 50.25 Z  M 54.00 93.00 C 54.00 79.00 54.00 79.00 73.00 79.00 C 92.00 79.00 92.00 79.00 92.00 93.00 C 92.00 107.00 92.00 107.00 73.00 107.00 C 54.00 107.00 54.00 107.00 54.00 93.00 Z  M 105.00 93.00 C 105.00 79.00 105.00 79.00 125.00 79.00 C 145.00 79.00 145.00 79.00 145.00 93.00 C 145.00 107.00 145.00 107.00 125.00 107.00 C 105.00 107.00 105.00 107.00 105.00 93.00 Z  M 159.00 93.00 C 159.00 79.00 159.00 79.00 181.00 79.00 C 203.00 79.00 203.00 79.00 203.00 93.00 C 203.00 107.00 203.00 107.00 181.00 107.00 C 159.00 107.00 159.00 107.00 159.00 93.00 Z "/>
</g>
</svg>