<?xml version="1.0" encoding="UTF-8" standalone="no"?>
<!DOCTYPE svg PUBLIC "-//W3C//DTD SVG 1.1//EN" "http://www.w3.org/Graphics/SVG/1.1/DTD/svg11.dtd" >
<svg xmlns="http://www.w3.org/2000/svg" xmlns:xlink="http://www.w3.org/1999/xlink" version="1.1" viewBox="0 0 256 259">
 <g >
 <path fill="currentColor"
d=" M 50.86 236.98 C 67.00 235.55 76.01 233.48 87.80 228.51 C 118.84 215.42 130.62 201.49 137.04 170.29 C 139.97 156.06 140.04 156.35 133.25 155.00 C 130.09 154.38 126.87 153.78 126.10 153.68 C 125.08 153.55 124.24 156.21 122.98 163.50 C 122.04 169.00 120.71 175.53 120.04 178.00 C 116.44 191.23 105.58 204.14 92.90 210.25 C 75.24 218.76 60.21 222.00 38.37 222.00 C 30.47 222.00 24.00 222.20 24.00 222.45 C 24.00 222.88 25.56 230.96 26.57 235.75 C 26.99 237.79 27.61 238.00 33.27 237.99 C 36.70 237.99 44.61 237.53 50.86 236.98 Z  M 233.83 230.53 C 237.47 224.72 237.73 223.93 236.21 223.12 C 232.18 220.98 194.74 205.06 174.50 196.88 C 150.12 187.02 152.53 186.99 144.90 197.27 C 142.84 200.03 142.84 200.03 146.17 201.40 C 178.17 214.47 210.61 228.67 223.50 235.25 C 226.25 236.65 228.78 237.63 229.13 237.42 C 229.47 237.21 231.59 234.11 233.83 230.53 Z  M 72.00 174.00 C 72.00 146.00 72.00 146.00 129.50 146.00 C 187.00 146.00 187.00 146.00 187.00 171.00 C 187.00 196.00 187.00 196.00 194.50 196.00 C 202.00 196.00 202.00 196.00 202.00 165.00 C 202.00 134.00 202.00 134.00 130.00 134.00 C 58.00 134.00 58.00 134.00 58.00 168.00 C 58.00 202.00 58.00 202.00 65.00 202.00 C 72.00 202.00 72.00 202.00 72.00 174.00 Z  M 189.00 96.00 C 189.00 73.00 189.00 73.00 127.00 73.00 C 65.00 73.00 65.00 73.00 65.00 96.00 C 65.00 119.00 65.00 119.00 127.00 119.00 C 189.00 119.00 189.00 119.00 189.00 96.00 Z  M 34.00 72.50 C 34.00 57.00 34.00 57.00 127.50 57.00 C 221.00 57.00 221.00 57.00 221.00 72.00 C 221.00 87.00 221.00 87.00 228.50 87.00 C 236.00 87.00 236.00 87.00 236.00 66.00 C 236.00 45.00 236.00 45.00 206.50 45.00 C 190.28 45.00 177.00 44.71 177.00 44.35 C 177.00 43.99 179.19 40.28 181.87 36.10 C 186.69 28.57 195.42 12.02 194.81 11.55 C 193.37 10.41 181.69 3.98 181.47 4.21 C 181.32 4.37 179.21 9.00 176.79 14.50 C 172.41 24.42 162.37 41.62 159.64 43.89 C 158.68 44.68 154.75 44.98 147.85 44.79 C 137.50 44.50 137.50 44.50 137.23 22.75 C 136.96 1.00 136.96 1.00 129.98 1.00 C 123.00 1.00 123.00 1.00 123.00 22.53 C 123.00 39.21 122.71 44.17 121.71 44.56 C 121.00 44.83 113.49 44.93 105.03 44.78 C 89.65 44.50 89.65 44.50 94.29 41.00 C 96.85 39.08 98.95 37.17 98.97 36.78 C 99.01 35.92 82.56 23.08 72.14 15.85 C 64.79 10.73 64.79 10.73 59.80 15.72 C 54.82 20.71 54.82 20.71 62.97 26.41 C 67.45 29.55 74.12 35.01 77.81 38.53 C 84.50 44.93 84.50 44.93 51.75 44.97 C 19.00 45.00 19.00 45.00 19.00 66.50 C 19.00 88.00 19.00 88.00 26.50 88.00 C 34.00 88.00 34.00 88.00 34.00 72.50 Z  M 80.00 95.50 C 80.00 84.00 80.00 84.00 127.00 84.00 C 174.00 84.00 174.00 84.00 174.00 95.50 C 174.00 107.00 174.00 107.00 127.00 107.00 C 80.00 107.00 80.00 107.00 80.00 95.50 Z "/>
</g>
</svg>