<?xml version="1.0" encoding="UTF-8" standalone="no"?>
<!DOCTYPE svg PUBLIC "-//W3C//DTD SVG 1.1//EN" "http://www.w3.org/Graphics/SVG/1.1/DTD/svg11.dtd" >
<svg xmlns="http://www.w3.org/2000/svg" xmlns:xlink="http://www.w3.org/1999/xlink" version="1.1" viewBox="0 0 256 258">
 <g >
 <path fill="currentColor"
d=" M 137.00 230.50 C 137.00 219.00 137.00 219.00 169.00 219.00 C 201.00 219.00 201.00 219.00 201.00 229.00 C 201.00 239.00 201.00 239.00 208.50 239.00 C 216.00 239.00 216.00 239.00 216.00 190.00 C 216.00 141.00 216.00 141.00 169.50 141.00 C 123.00 141.00 123.00 141.00 123.00 191.50 C 123.00 242.00 123.00 242.00 130.00 242.00 C 137.00 242.00 137.00 242.00 137.00 230.50 Z  M 71.68 221.71 C 80.98 215.50 91.61 208.66 95.30 206.50 C 98.98 204.35 101.99 202.12 101.98 201.54 C 101.97 200.97 100.72 198.39 99.20 195.81 C 96.44 191.12 96.44 191.12 81.22 200.49 C 66.00 209.87 66.00 209.87 66.00 180.43 C 66.00 151.00 66.00 151.00 82.55 151.00 C 99.10 151.00 99.10 151.00 98.80 145.25 C 98.50 139.50 98.50 139.50 82.25 139.23 C 66.00 138.95 66.00 138.95 66.00 121.98 C 66.00 105.00 66.00 105.00 80.55 105.00 C 95.09 105.00 95.09 105.00 94.80 98.25 C 94.50 91.50 94.50 91.50 61.46 91.00 C 28.42 90.50 28.42 90.50 36.96 74.28 C 45.50 58.06 45.50 58.06 72.50 57.78 C 99.50 57.50 99.50 57.50 99.80 50.75 C 100.09 44.00 100.09 44.00 75.94 44.00 C 57.04 44.00 51.89 43.73 52.25 42.75 C 54.52 36.57 64.29 6.39 64.14 6.00 C 63.75 4.98 50.58 1.02 49.99 1.75 C 49.65 2.16 48.11 7.00 46.56 12.50 C 39.19 38.75 25.34 67.62 10.13 88.43 C 5.07 95.37 5.07 95.37 11.78 99.14 C 15.48 101.22 18.95 102.93 19.50 102.95 C 20.05 102.97 21.72 100.86 23.22 98.25 C 25.94 93.50 25.94 93.50 25.97 99.22 C 26.00 104.94 26.00 104.94 38.25 105.22 C 50.50 105.50 50.50 105.50 50.77 122.25 C 51.05 139.00 51.05 139.00 34.02 139.00 C 17.00 139.00 17.00 139.00 17.00 145.00 C 17.00 151.00 17.00 151.00 34.00 151.00 C 51.00 151.00 51.00 151.00 51.00 182.12 C 51.00 213.23 51.00 213.23 47.07 216.87 C 43.13 220.50 43.13 220.50 48.16 226.75 C 50.93 230.19 53.54 233.00 53.98 233.00 C 54.41 233.00 62.38 227.92 71.68 221.71 Z  M 110.29 143.86 C 124.15 136.83 149.40 120.31 163.11 109.31 C 166.75 106.39 170.16 104.00 170.71 104.00 C 171.25 104.00 172.55 104.97 173.60 106.15 C 176.20 109.10 192.16 120.84 199.50 125.21 C 208.81 130.75 218.62 135.43 229.00 139.26 C 244.33 144.93 242.51 145.18 246.52 136.82 C 250.04 129.50 250.04 129.50 243.77 127.69 C 227.80 123.08 214.65 117.10 201.00 108.24 C 191.59 102.14 181.14 93.97 181.06 92.65 C 181.03 92.18 183.86 88.35 187.35 84.15 C 198.99 70.12 210.89 52.11 218.54 36.91 C 222.03 30.00 222.03 30.00 185.51 30.00 C 164.34 30.00 149.00 29.62 149.00 29.09 C 149.00 28.59 151.03 23.35 153.50 17.45 C 155.97 11.54 158.00 6.39 158.00 6.01 C 158.00 5.35 143.87 0.72 143.49 1.25 C 143.39 1.39 142.03 5.05 140.47 9.39 C 133.06 29.98 117.03 57.81 104.40 72.00 C 101.22 75.58 98.01 79.24 97.26 80.14 C 96.05 81.59 96.65 82.19 102.65 85.55 C 109.40 89.32 109.40 89.32 113.74 84.41 C 119.71 77.64 129.90 63.22 136.13 52.75 C 141.33 44.00 141.33 44.00 169.72 44.00 C 192.16 44.00 197.96 44.26 197.39 45.25 C 191.45 55.39 176.15 75.77 170.64 80.89 C 168.06 83.29 168.06 83.29 163.28 78.01 C 160.65 75.11 155.87 69.09 152.66 64.62 C 149.45 60.15 146.67 56.35 146.49 56.16 C 146.04 55.70 135.00 64.08 135.01 64.87 C 135.01 65.22 140.22 71.73 146.59 79.35 C 160.07 95.46 160.33 93.06 143.75 105.57 C 132.40 114.15 118.49 122.52 106.20 128.19 C 101.42 130.39 97.37 132.32 97.21 132.47 C 96.87 132.79 105.19 146.00 105.72 146.00 C 105.92 146.00 107.97 145.04 110.29 143.86 Z  M 137.23 181.25 C 137.50 155.50 137.50 155.50 169.25 155.24 C 201.00 154.97 201.00 154.97 201.00 180.99 C 201.00 207.00 201.00 207.00 168.98 207.00 C 136.97 207.00 136.97 207.00 137.23 181.25 Z "/>
</g>
</svg>