<?xml version="1.0" encoding="UTF-8" standalone="no"?>
<!DOCTYPE svg PUBLIC "-//W3C//DTD SVG 1.1//EN" "http://www.w3.org/Graphics/SVG/1.1/DTD/svg11.dtd" >
<svg xmlns="http://www.w3.org/2000/svg" xmlns:xlink="http://www.w3.org/1999/xlink" version="1.1" viewBox="0 0 256 258">
 <g >
 <path fill="currentColor"
d=" M 148.00 225.50 C 148.00 209.00 148.00 209.00 196.50 209.00 C 245.00 209.00 245.00 209.00 245.00 203.00 C 245.00 197.00 245.00 197.00 221.00 197.00 C 197.00 197.00 197.00 197.00 197.00 177.50 C 197.00 158.00 197.00 158.00 216.00 158.00 C 235.00 158.00 235.00 158.00 235.00 151.50 C 235.00 145.00 235.00 145.00 215.98 145.00 C 196.95 145.00 196.95 145.00 197.23 126.75 C 197.50 108.50 197.50 108.50 216.75 108.23 C 236.00 107.96 236.00 107.96 236.00 101.98 C 236.00 96.00 236.00 96.00 216.50 96.00 C 197.00 96.00 197.00 96.00 197.00 79.50 C 197.00 63.00 197.00 63.00 219.50 63.00 C 242.00 63.00 242.00 63.00 242.00 56.00 C 242.00 49.00 242.00 49.00 193.50 49.00 C 161.51 49.00 145.00 48.66 145.00 47.99 C 145.00 47.43 149.28 38.44 154.50 28.00 C 159.72 17.56 164.00 8.66 164.00 8.22 C 164.00 7.41 151.00 0.66 150.47 1.20 C 150.31 1.37 147.72 7.80 144.72 15.51 C 141.72 23.22 137.35 33.34 135.01 38.01 C 129.63 48.73 113.87 72.84 107.70 79.78 C 105.11 82.69 103.00 85.21 103.00 85.39 C 103.00 85.57 105.73 87.40 109.06 89.46 C 116.30 93.93 115.49 94.37 125.59 80.48 C 132.50 70.99 132.50 70.99 132.75 155.24 C 132.88 201.58 133.21 240.06 133.47 240.75 C 133.78 241.59 136.26 242.00 140.97 242.00 C 148.00 242.00 148.00 242.00 148.00 225.50 Z  M 82.74 233.48 C 88.56 231.76 92.37 227.93 93.96 222.22 C 94.61 219.88 94.99 198.95 94.99 165.75 C 95.00 113.00 95.00 113.00 107.05 113.00 C 119.09 113.00 119.09 113.00 118.80 106.25 C 118.50 99.50 118.50 99.50 106.75 99.22 C 95.00 98.94 95.00 98.94 95.00 66.00 C 95.00 33.07 95.00 33.07 106.25 32.78 C 117.50 32.50 117.50 32.50 117.80 26.25 C 118.10 20.00 118.10 20.00 71.55 20.00 C 25.00 20.00 25.00 20.00 25.00 26.50 C 25.00 33.00 25.00 33.00 52.50 33.00 C 80.00 33.00 80.00 33.00 80.00 66.00 C 80.00 99.00 80.00 99.00 61.51 99.00 C 43.03 99.00 43.03 99.00 45.11 93.75 C 53.01 73.78 57.00 63.20 57.00 62.20 C 57.00 60.65 44.97 54.61 44.01 55.67 C 43.60 56.13 40.68 63.92 37.52 73.00 C 30.88 92.07 29.30 95.44 25.16 99.37 C 22.14 102.24 22.14 102.24 24.78 107.62 C 27.42 113.00 27.42 113.00 48.71 113.00 C 65.08 113.00 70.00 113.29 69.99 114.25 C 69.96 116.50 60.47 135.28 54.48 144.96 C 45.73 159.09 35.48 172.23 22.81 185.56 C 11.47 197.50 11.47 197.50 16.59 202.26 C 21.71 207.02 21.71 207.02 29.95 198.76 C 45.53 183.16 62.03 160.77 73.56 139.60 C 79.50 128.71 79.50 128.71 79.80 169.60 C 79.99 196.72 79.73 211.75 79.01 214.22 C 77.53 219.34 73.13 220.54 61.15 219.07 C 56.39 218.48 52.16 218.00 51.75 218.00 C 50.85 218.00 50.78 226.04 51.64 231.25 C 52.26 235.00 52.26 235.00 64.95 235.00 C 73.38 235.00 79.35 234.49 82.74 233.48 Z  M 206.31 36.73 C 211.11 32.50 211.11 32.50 199.94 17.50 C 193.80 9.25 188.64 2.36 188.48 2.18 C 188.33 2.01 185.88 3.53 183.04 5.57 C 179.66 8.00 178.08 9.77 178.45 10.73 C 179.53 13.54 199.51 40.91 200.50 40.94 C 201.05 40.95 203.66 39.06 206.31 36.73 Z  M 148.23 177.75 C 148.50 158.50 148.50 158.50 165.25 158.23 C 182.00 157.95 182.00 157.95 182.00 177.48 C 182.00 197.00 182.00 197.00 164.98 197.00 C 147.96 197.00 147.96 197.00 148.23 177.75 Z  M 148.23 126.75 C 148.50 108.50 148.50 108.50 165.25 108.23 C 182.00 107.95 182.00 107.95 182.00 126.48 C 182.00 145.00 182.00 145.00 164.98 145.00 C 147.95 145.00 147.95 145.00 148.23 126.75 Z  M 148.00 79.50 C 148.00 63.00 148.00 63.00 165.00 63.00 C 182.00 63.00 182.00 63.00 182.00 79.50 C 182.00 96.00 182.00 96.00 165.00 96.00 C 148.00 96.00 148.00 96.00 148.00 79.50 Z "/>
</g>
</svg>