<?xml version="1.0" encoding="UTF-8" standalone="no"?>
<!DOCTYPE svg PUBLIC "-//W3C//DTD SVG 1.1//EN" "http://www.w3.org/Graphics/SVG/1.1/DTD/svg11.dtd" >
<svg xmlns="http://www.w3.org/2000/svg" xmlns:xlink="http://www.w3.org/1999/xlink" version="1.1" viewBox="0 0 256 258">
 <g >
 <path fill="currentColor"
d=" M 191.16 236.59 C 210.61 232.85 218.43 226.14 223.31 209.00 C 224.61 204.43 235.00 161.13 235.00 160.27 C 235.00 160.12 218.80 160.00 199.00 160.00 C 179.20 160.00 163.00 159.74 163.00 159.41 C 163.00 159.09 164.89 154.59 167.19 149.41 C 171.39 140.00 171.39 140.00 210.69 140.00 C 250.00 140.00 250.00 140.00 250.00 134.00 C 250.00 128.00 250.00 128.00 180.50 128.00 C 111.00 128.00 111.00 128.00 111.00 134.00 C 111.00 140.00 111.00 140.00 133.00 140.00 C 145.10 140.00 155.00 140.25 155.00 140.55 C 155.00 140.85 152.07 148.25 148.50 157.00 C 144.93 165.75 142.00 173.15 142.00 173.45 C 142.00 173.75 158.65 174.00 179.00 174.00 C 199.35 174.00 216.00 174.39 216.00 174.86 C 216.00 175.34 214.90 181.07 213.56 187.61 C 207.32 218.05 203.26 221.23 168.70 222.69 C 156.48 223.21 154.00 223.56 154.45 224.74 C 154.75 225.52 155.00 228.83 155.00 232.08 C 155.00 238.00 155.00 238.00 169.41 238.00 C 177.69 238.00 186.95 237.40 191.16 236.59 Z  M 69.93 216.51 C 96.02 212.38 117.50 209.00 117.68 209.00 C 117.86 209.00 118.00 205.86 118.00 202.03 C 118.00 195.05 118.00 195.05 115.25 195.55 C 113.74 195.82 90.29 199.38 63.15 203.46 C 36.01 207.53 13.64 211.03 13.44 211.23 C 13.24 211.43 13.99 214.64 15.10 218.36 C 17.04 224.83 17.25 225.11 19.82 224.57 C 21.29 224.27 43.84 220.64 69.93 216.51 Z  M 103.76 128.25 C 103.50 80.50 103.50 80.50 89.90 80.00 C 76.30 79.50 76.30 79.50 87.15 57.10 C 93.12 44.78 98.00 34.54 98.00 34.35 C 98.00 34.16 87.65 34.00 75.00 34.00 C 62.35 34.00 52.00 33.77 52.00 33.49 C 52.00 33.20 54.92 27.13 58.50 20.00 C 62.08 12.87 65.00 6.64 65.00 6.16 C 65.00 5.41 53.03 1.53 50.64 1.51 C 50.17 1.50 48.28 5.71 46.45 10.85 C 40.28 28.12 25.23 52.31 11.80 66.53 C 5.10 73.63 5.10 73.63 11.61 77.38 C 15.20 79.44 18.53 80.98 19.03 80.81 C 20.22 80.40 34.30 62.24 40.00 53.76 C 44.50 47.06 44.50 47.06 60.75 47.03 C 69.69 47.01 76.98 47.34 76.95 47.75 C 76.93 48.16 73.15 55.47 68.56 64.00 C 60.21 79.50 60.21 79.50 42.61 79.77 C 25.00 80.05 25.00 80.05 25.00 128.02 C 25.00 176.00 25.00 176.00 64.51 176.00 C 104.02 176.00 104.02 176.00 103.76 128.25 Z  M 231.00 100.50 C 231.00 94.00 231.00 94.00 178.00 94.00 C 125.00 94.00 125.00 94.00 125.00 100.50 C 125.00 107.00 125.00 107.00 178.00 107.00 C 231.00 107.00 231.00 107.00 231.00 100.50 Z  M 168.00 43.50 C 168.00 11.00 168.00 11.00 140.00 11.00 C 112.00 11.00 112.00 11.00 112.00 43.50 C 112.00 76.00 112.00 76.00 140.00 76.00 C 168.00 76.00 168.00 76.00 168.00 43.50 Z  M 237.00 43.50 C 237.00 11.00 237.00 11.00 209.00 11.00 C 181.00 11.00 181.00 11.00 181.00 42.83 C 181.00 60.34 181.30 74.97 181.67 75.33 C 182.03 75.70 194.63 76.00 209.67 76.00 C 237.00 76.00 237.00 76.00 237.00 43.50 Z  M 38.00 148.00 C 38.00 133.00 38.00 133.00 47.50 133.00 C 57.00 133.00 57.00 133.00 57.00 148.00 C 57.00 163.00 57.00 163.00 47.50 163.00 C 38.00 163.00 38.00 163.00 38.00 148.00 Z  M 71.00 147.96 C 71.00 132.92 71.00 132.92 80.25 133.21 C 89.50 133.50 89.50 133.50 89.78 148.25 C 90.05 163.00 90.05 163.00 80.53 163.00 C 71.00 163.00 71.00 163.00 71.00 147.96 Z  M 38.00 105.96 C 38.00 92.92 38.00 92.92 47.25 93.21 C 56.50 93.50 56.50 93.50 56.78 106.25 C 57.06 119.00 57.06 119.00 47.53 119.00 C 38.00 119.00 38.00 119.00 38.00 105.96 Z  M 71.00 105.96 C 71.00 92.92 71.00 92.92 80.25 93.21 C 89.50 93.50 89.50 93.50 89.78 106.25 C 90.06 119.00 90.06 119.00 80.53 119.00 C 71.00 119.00 71.00 119.00 71.00 105.96 Z  M 126.00 43.50 C 126.00 23.00 126.00 23.00 140.00 23.00 C 154.00 23.00 154.00 23.00 154.00 43.50 C 154.00 64.00 154.00 64.00 140.00 64.00 C 126.00 64.00 126.00 64.00 126.00 43.50 Z  M 195.67 63.33 C 195.30 62.97 195.00 53.74 195.00 42.83 C 195.00 23.00 195.00 23.00 209.00 23.00 C 223.00 23.00 223.00 23.00 223.00 43.50 C 223.00 64.00 223.00 64.00 209.67 64.00 C 202.33 64.00 196.03 63.70 195.67 63.33 Z "/>
</g>
</svg>