<?xml version="1.0" encoding="UTF-8" standalone="no"?>
<!DOCTYPE svg PUBLIC "-//W3C//DTD SVG 1.1//EN" "http://www.w3.org/Graphics/SVG/1.1/DTD/svg11.dtd" >
<svg xmlns="http://www.w3.org/2000/svg" xmlns:xlink="http://www.w3.org/1999/xlink" version="1.1" viewBox="0 0 256 256">
 <g >
 <path fill="currentColor"
d=" M 199.48 237.05 C 199.82 235.98 199.60 233.16 198.98 230.80 C 197.36 224.60 186.01 213.79 175.25 208.19 C 170.76 205.85 166.80 203.48 166.45 202.92 C 165.80 201.87 149.40 194.00 147.86 194.00 C 147.39 194.00 147.00 194.38 147.00 194.84 C 147.00 196.24 181.01 228.10 188.52 233.74 C 196.02 239.37 198.51 240.12 199.48 237.05 Z  M 79.20 235.14 C 90.44 232.52 98.29 228.62 102.85 223.41 C 106.79 218.92 118.60 196.40 119.58 191.50 C 120.88 185.04 124.29 178.14 126.45 177.60 C 132.12 176.18 158.76 172.91 169.00 172.38 C 184.42 171.58 208.16 173.41 222.96 176.53 C 238.35 179.78 239.84 179.15 233.49 172.12 C 231.56 169.99 227.70 167.26 224.91 166.06 C 220.19 164.03 218.33 163.88 198.25 163.96 C 173.99 164.06 151.12 165.38 137.04 167.49 C 131.84 168.28 127.49 168.82 127.37 168.71 C 127.26 168.59 127.79 166.07 128.56 163.10 C 130.83 154.37 129.62 152.42 120.12 149.51 C 117.79 148.80 117.76 148.88 118.43 153.36 C 118.81 155.92 118.59 160.59 117.93 163.97 C 116.74 170.00 116.74 170.00 104.12 173.93 C 89.08 178.62 51.31 188.29 41.60 189.94 C 32.62 191.46 31.00 190.24 36.00 185.69 C 37.93 183.93 40.63 181.76 42.00 180.86 C 43.38 179.96 44.22 178.93 43.88 178.57 C 43.16 177.82 28.58 185.16 25.83 187.66 C 23.08 190.14 21.38 196.54 22.95 198.44 C 26.48 202.69 33.18 201.63 82.25 189.05 C 99.16 184.71 113.00 181.59 113.00 182.11 C 113.00 184.36 102.26 206.03 98.41 211.55 C 90.14 223.40 82.79 228.02 65.75 232.07 C 56.67 234.23 53.96 235.93 57.25 237.39 C 59.42 238.36 70.17 237.26 79.20 235.14 Z  M 57.80 162.48 C 64.28 155.40 69.60 146.17 72.97 136.10 C 75.55 128.42 74.83 125.73 68.83 120.59 C 64.94 117.25 64.94 117.25 78.50 112.63 C 85.96 110.08 92.50 108.00 93.03 108.00 C 94.22 108.00 94.24 113.41 93.08 122.00 C 92.60 125.58 91.64 134.12 90.95 141.00 C 89.86 151.98 89.90 154.17 91.31 159.00 C 92.19 162.03 93.55 165.37 94.32 166.43 C 95.71 168.33 95.75 168.33 96.83 166.31 C 98.39 163.41 100.92 128.08 104.01 66.23 C 104.78 50.74 105.57 43.33 106.93 38.98 C 108.76 33.08 108.76 32.97 106.80 30.47 C 104.48 27.52 99.28 24.69 93.12 23.03 C 87.33 21.47 86.11 22.79 89.55 26.87 C 91.01 28.61 92.84 32.13 93.61 34.70 C 95.43 40.74 96.29 56.59 95.29 65.49 C 94.50 72.47 94.50 72.47 80.21 75.86 C 72.35 77.73 65.73 79.07 65.50 78.83 C 65.01 78.34 67.57 67.85 69.24 63.50 C 69.87 61.85 71.25 59.32 72.29 57.87 C 73.91 55.64 74.01 54.88 72.95 52.87 C 70.95 49.07 68.20 45.86 64.79 43.34 C 58.90 39.00 57.81 40.48 60.59 48.98 C 62.82 55.81 61.20 66.11 56.46 75.27 C 52.55 82.81 52.68 83.87 58.05 88.39 C 61.73 91.48 64.75 91.67 69.79 89.13 C 74.27 86.87 93.80 80.41 94.24 81.05 C 94.41 81.30 94.32 85.55 94.03 90.50 C 93.50 99.50 93.50 99.50 82.50 103.31 C 64.83 109.43 49.36 113.16 41.25 113.25 C 35.90 113.30 34.00 113.68 34.00 114.66 C 34.00 116.59 37.29 119.60 42.06 122.03 C 46.20 124.14 46.20 124.14 52.58 121.43 C 59.94 118.30 60.99 118.67 62.92 125.11 C 65.32 133.13 60.92 149.63 53.38 160.92 C 49.43 166.84 48.78 169.00 50.97 169.00 C 51.44 169.00 54.51 166.07 57.80 162.48 Z  M 170.29 157.07 C 177.16 148.91 179.59 136.72 178.73 114.84 C 178.20 101.17 178.20 101.17 187.35 99.49 C 192.38 98.56 201.19 97.51 206.92 97.15 C 219.51 96.36 220.71 95.09 212.34 91.38 C 206.02 88.59 205.84 88.59 189.50 91.41 C 176.86 93.59 176.64 93.56 174.68 89.45 C 172.84 85.60 166.71 82.06 161.81 82.02 C 157.76 81.99 157.60 83.52 161.34 86.67 C 164.67 89.47 168.63 94.75 167.89 95.40 C 167.48 95.75 131.84 104.41 126.10 105.55 C 124.24 105.92 119.85 106.21 116.35 106.19 C 112.86 106.17 110.00 106.49 110.00 106.90 C 110.00 109.38 119.61 115.00 123.85 115.00 C 126.33 115.00 135.00 125.51 135.00 128.51 C 135.00 131.53 129.85 135.95 122.73 139.03 C 119.60 140.39 117.03 141.90 117.02 142.39 C 117.01 142.88 119.59 143.04 122.75 142.74 C 129.11 142.15 145.60 134.82 147.43 131.76 C 149.36 128.55 145.64 123.88 136.94 118.59 C 132.54 115.91 129.10 113.57 129.29 113.38 C 129.84 112.83 166.94 104.00 168.70 104.00 C 170.12 104.00 170.23 105.85 169.74 120.75 C 169.20 137.23 168.37 141.83 165.32 145.20 C 163.66 147.03 163.29 146.93 146.22 140.11 C 141.52 138.24 140.87 138.18 140.33 139.59 C 139.97 140.51 140.62 142.06 141.89 143.33 C 146.39 147.83 163.59 159.83 165.66 159.91 C 166.90 159.96 168.88 158.75 170.29 157.07 Z  M 134.45 89.66 C 135.84 88.64 136.72 85.41 138.07 76.41 C 139.05 69.86 140.14 62.92 140.50 61.00 C 141.12 57.64 141.08 57.58 139.49 59.50 C 137.06 62.45 134.34 68.05 133.54 71.75 C 133.16 73.54 132.48 75.00 132.05 75.00 C 130.80 75.00 123.36 66.58 121.33 62.86 C 119.50 59.50 119.50 59.50 119.19 63.71 C 118.70 70.47 122.37 81.00 127.09 86.36 C 131.60 91.48 131.82 91.58 134.45 89.66 Z  M 172.49 78.01 C 174.26 76.91 178.86 72.75 182.70 68.76 C 186.54 64.77 191.88 59.66 194.57 57.42 C 199.45 53.33 199.45 53.33 197.60 49.23 C 195.09 43.65 189.75 38.00 187.00 38.00 C 185.05 38.00 184.86 38.35 185.52 40.75 C 187.70 48.74 185.42 55.75 176.82 67.50 C 166.76 81.26 166.59 81.65 172.49 78.01 Z  M 164.68 65.04 C 165.91 57.64 166.78 51.44 166.60 51.27 C 166.43 51.10 164.81 54.34 163.01 58.48 C 161.21 62.62 159.45 65.99 159.11 65.97 C 157.45 65.88 154.28 62.03 152.55 58.00 C 151.49 55.52 150.17 52.90 149.61 52.16 C 147.86 49.83 147.04 54.28 147.85 61.81 C 148.48 67.76 149.15 69.48 152.54 73.92 C 155.92 78.36 156.90 79.05 159.46 78.80 C 162.44 78.50 162.44 78.50 164.68 65.04 Z  M 130.22 53.53 C 133.32 52.72 144.83 47.35 155.79 41.58 C 166.76 35.82 176.95 30.80 178.45 30.42 C 182.35 29.44 182.61 27.49 179.35 23.61 C 176.02 19.64 170.30 16.68 166.89 17.16 C 164.88 17.45 164.54 18.00 164.74 20.69 C 164.95 23.34 164.29 24.46 160.74 27.45 C 151.61 35.14 143.32 41.30 139.50 43.22 C 137.30 44.33 133.38 46.75 130.79 48.59 C 128.20 50.43 124.89 52.24 123.44 52.60 C 121.50 53.09 121.16 53.49 122.15 54.12 C 123.90 55.22 123.66 55.24 130.22 53.53 Z "/>
</g>
</svg>