<?xml version="1.0" encoding="UTF-8" standalone="no"?>
<!DOCTYPE svg PUBLIC "-//W3C//DTD SVG 1.1//EN" "http://www.w3.org/Graphics/SVG/1.1/DTD/svg11.dtd" >
<svg xmlns="http://www.w3.org/2000/svg" xmlns:xlink="http://www.w3.org/1999/xlink" version="1.1" viewBox="0 0 256 256">
 <g >
 <path fill="currentColor"
d=" M 115.60 235.21 C 125.16 227.19 132.50 216.54 142.96 195.50 C 155.81 169.67 165.01 147.06 174.55 117.89 C 178.34 106.27 178.34 106.27 188.92 103.62 C 208.32 98.75 217.70 98.36 220.21 102.31 C 222.68 106.19 219.02 126.19 210.11 157.50 C 197.97 200.15 190.89 219.02 186.70 219.82 C 184.29 220.28 183.11 219.20 172.74 207.00 C 167.83 201.22 162.73 195.67 161.41 194.67 C 159.04 192.86 159.00 192.87 159.00 195.02 C 159.00 197.08 166.99 212.49 177.00 229.74 C 182.21 238.72 184.06 239.55 190.05 235.59 C 193.03 233.62 194.86 231.08 197.89 224.76 C 203.78 212.44 212.22 185.98 220.48 154.00 C 224.52 138.32 229.22 120.83 230.91 115.12 C 234.53 102.96 234.65 101.10 232.06 97.81 C 229.16 94.12 218.45 88.75 214.14 88.84 C 212.14 88.88 203.99 90.70 196.03 92.90 C 188.07 95.10 181.40 96.74 181.21 96.54 C 181.02 96.35 182.47 89.81 184.43 82.00 C 188.93 64.11 189.05 59.20 185.09 54.78 C 182.64 52.04 181.54 51.55 178.00 51.64 C 171.31 51.81 166.17 56.87 164.48 64.93 C 163.76 68.36 163.76 68.36 167.78 65.18 C 169.98 63.43 172.73 62.00 173.87 62.00 C 178.39 62.00 177.93 71.85 172.68 87.50 C 169.72 96.35 168.86 97.86 165.20 100.67 C 159.82 104.79 151.45 107.87 142.56 108.99 C 131.02 110.46 129.64 111.59 135.25 115.01 C 140.07 117.95 146.05 117.53 156.91 113.49 C 162.08 111.56 166.47 110.13 166.65 110.31 C 166.83 110.50 165.01 116.46 162.61 123.57 C 142.89 181.92 131.81 205.58 112.55 230.50 C 104.57 240.82 104.47 241.00 106.79 241.00 C 107.84 241.00 111.80 238.39 115.60 235.21 Z  M 67.95 216.47 C 92.36 207.81 113.12 201.39 119.85 200.42 C 126.43 199.46 128.26 198.36 127.05 196.09 C 124.39 191.13 114.17 189.79 107.04 193.48 C 102.40 195.88 79.00 203.93 79.00 203.13 C 79.00 202.73 79.38 201.97 79.84 201.45 C 82.08 198.90 85.12 189.21 86.44 180.35 C 88.33 167.69 89.82 166.14 102.96 163.12 C 108.02 161.95 113.69 161.00 115.58 161.00 C 121.17 161.00 119.36 155.79 113.11 153.91 C 109.58 152.86 107.59 153.24 89.87 158.37 C 60.87 166.76 48.76 169.31 41.32 168.57 C 37.92 168.23 34.90 168.34 34.61 168.82 C 33.65 170.38 37.20 174.19 41.38 176.09 C 47.70 178.96 53.71 178.53 63.43 174.50 C 77.73 168.58 78.80 169.40 76.41 184.36 C 72.78 207.12 69.94 209.55 41.50 214.17 C 24.61 216.91 25.28 216.70 27.22 218.65 C 28.95 220.38 39.95 223.82 44.11 223.93 C 45.54 223.97 56.27 220.61 67.95 216.47 Z  M 62.96 147.07 C 64.64 143.94 64.16 137.99 61.94 134.41 C 60.81 132.57 56.08 128.11 51.44 124.48 C 46.80 120.86 43.00 117.29 43.00 116.56 C 43.00 115.83 46.63 111.25 51.06 106.37 C 55.50 101.49 59.83 96.18 60.69 94.56 C 61.55 92.93 62.47 87.94 62.76 83.31 C 63.48 71.85 61.63 72.02 55.46 83.96 C 50.84 92.91 45.28 101.16 37.25 110.98 C 34.91 113.84 33.00 116.97 33.00 117.95 C 33.00 118.93 36.23 122.37 40.25 125.67 C 47.38 131.54 50.08 134.84 55.40 144.25 C 58.30 149.38 61.16 150.44 62.96 147.07 Z  M 89.72 138.73 C 91.36 133.73 90.41 131.58 83.07 123.73 C 79.73 120.16 77.00 116.48 77.00 115.54 C 77.00 114.60 80.84 107.12 85.54 98.93 C 93.11 85.71 93.95 83.77 92.92 81.76 C 90.98 77.98 85.72 73.00 83.67 73.00 C 81.96 73.00 81.83 73.43 82.54 76.75 C 84.71 86.99 82.96 92.22 72.87 105.59 C 69.64 109.87 67.00 114.23 67.00 115.28 C 67.00 116.33 69.44 119.88 72.42 123.17 C 75.40 126.47 79.49 132.30 81.50 136.14 C 85.68 144.08 87.76 144.74 89.72 138.73 Z  M 120.43 138.75 C 121.24 137.51 122.21 134.55 122.59 132.16 C 123.28 127.83 123.28 127.83 114.62 119.66 C 109.86 115.17 105.98 110.83 105.99 110.00 C 106.00 109.17 108.45 105.44 111.44 101.70 C 114.43 97.96 118.10 92.80 119.59 90.25 C 122.32 85.60 122.32 85.60 113.41 77.39 C 108.51 72.87 104.28 69.39 104.00 69.67 C 103.73 69.94 104.23 70.70 105.12 71.35 C 107.85 73.34 112.00 80.14 112.00 82.61 C 112.00 86.48 107.56 95.12 102.12 101.82 C 95.29 110.24 95.39 111.67 103.37 119.94 C 107.27 123.98 111.16 129.34 113.38 133.77 C 115.39 137.75 117.46 141.00 117.99 141.00 C 118.52 141.00 119.62 139.99 120.43 138.75 Z  M 82.50 50.36 C 91.30 46.80 100.75 42.98 103.50 41.86 C 108.50 39.83 108.50 39.83 106.06 42.43 C 104.72 43.86 100.34 47.08 96.31 49.58 C 92.29 52.09 89.00 54.30 89.00 54.50 C 89.00 54.88 104.62 48.88 116.49 43.94 C 120.54 42.25 124.37 40.25 125.00 39.50 C 127.80 36.13 121.22 32.03 110.50 30.48 C 107.49 30.04 105.64 30.41 103.00 31.97 C 96.36 35.90 88.46 39.22 75.50 43.51 C 59.40 48.83 51.41 50.45 44.91 49.68 C 40.15 49.11 39.89 49.20 40.19 51.27 C 40.55 53.82 47.53 58.05 52.96 59.01 C 57.58 59.83 63.03 58.23 82.50 50.36 Z "/>
</g>
</svg>