<?xml version="1.0" encoding="UTF-8" standalone="no"?>
<!DOCTYPE svg PUBLIC "-//W3C//DTD SVG 1.1//EN" "http://www.w3.org/Graphics/SVG/1.1/DTD/svg11.dtd" >
<svg xmlns="http://www.w3.org/2000/svg" xmlns:xlink="http://www.w3.org/1999/xlink" version="1.1" viewBox="0 0 256 256">
 <g >
 <path fill="currentColor"
d=" M 79.17 212.72 C 79.22 189.94 79.42 186.84 80.87 186.07 C 85.45 183.62 103.92 177.92 108.86 177.43 C 117.10 176.62 119.00 176.11 119.00 174.72 C 119.00 173.19 116.00 171.27 110.73 169.41 C 107.12 168.13 106.08 168.19 99.99 170.00 C 96.28 171.11 90.04 173.33 86.13 174.95 C 79.00 177.89 79.00 177.89 79.00 171.07 C 79.00 167.32 79.27 162.88 79.61 161.21 C 80.17 158.39 80.65 158.10 86.36 157.05 C 89.74 156.43 95.58 155.65 99.34 155.31 C 107.08 154.61 108.48 153.20 105.05 149.56 C 102.85 147.21 102.85 147.21 105.02 142.96 C 106.21 140.63 109.16 133.16 111.56 126.38 C 116.12 113.52 119.26 106.58 120.99 105.51 C 122.81 104.38 122.05 99.68 119.44 95.91 C 117.58 93.23 114.92 91.34 109.76 89.03 C 101.59 85.38 100.01 85.45 88.74 90.04 C 84.76 91.67 81.16 92.99 80.75 93.00 C 79.85 93.00 79.77 78.04 80.64 72.78 C 81.07 70.15 81.88 68.87 83.38 68.43 C 103.17 62.60 111.00 59.65 111.00 58.00 C 111.00 57.02 110.29 55.94 109.42 55.61 C 106.26 54.40 97.97 55.04 93.29 56.86 C 90.65 57.89 86.81 59.03 84.75 59.41 C 81.07 60.08 81.00 60.03 81.00 56.95 C 81.00 55.22 81.95 50.69 83.10 46.89 C 85.06 40.45 85.09 39.79 83.59 37.50 C 82.71 36.15 80.61 34.33 78.94 33.47 C 75.48 31.68 66.00 30.29 66.00 31.56 C 66.00 32.03 67.43 33.88 69.17 35.68 C 72.34 38.95 72.34 38.95 72.42 50.69 C 72.50 62.42 72.50 62.42 62.00 66.31 C 56.22 68.44 48.39 70.59 44.59 71.09 C 40.79 71.58 37.42 72.25 37.09 72.58 C 36.77 72.90 37.83 74.32 39.46 75.72 C 42.24 78.11 42.88 78.23 50.13 77.67 C 54.37 77.34 60.46 76.12 63.67 74.95 C 74.14 71.14 73.16 70.28 72.46 82.62 C 72.12 88.61 71.66 94.06 71.45 94.74 C 71.24 95.42 68.40 97.28 65.13 98.86 C 58.04 102.29 48.88 109.18 43.56 115.07 C 39.70 119.34 39.70 119.34 37.85 117.06 C 35.79 114.52 35.47 110.87 37.04 107.93 C 37.60 106.87 37.68 106.00 37.21 106.00 C 35.32 106.00 32.05 110.77 30.84 115.31 C 29.71 119.54 29.77 120.67 31.38 124.81 C 32.38 127.39 34.93 135.04 37.04 141.80 C 42.94 160.71 50.74 175.51 53.81 173.62 C 54.32 173.30 55.00 171.75 55.31 170.18 C 55.80 167.75 57.01 166.83 63.47 164.02 C 67.63 162.20 71.22 160.89 71.44 161.11 C 71.66 161.33 71.59 166.10 71.28 171.72 C 70.71 181.94 70.71 181.94 67.11 183.13 C 65.12 183.78 58.66 186.68 52.75 189.59 C 42.60 194.56 38.41 195.86 26.51 197.73 C 19.28 198.87 19.30 201.19 26.57 203.48 C 36.98 206.75 47.20 204.03 65.75 193.06 C 71.00 189.96 71.00 189.96 71.02 206.23 C 71.04 222.76 72.73 238.19 75.10 243.34 C 76.41 246.19 76.41 246.19 77.75 242.34 C 78.74 239.52 79.12 231.63 79.17 212.72 Z  M 242.00 240.19 C 242.00 237.94 235.79 227.47 232.18 223.66 C 225.95 217.05 202.68 198.81 192.50 192.54 C 186.45 188.82 181.32 185.60 181.10 185.40 C 180.88 185.20 182.29 181.54 184.23 177.27 C 187.83 169.33 193.00 149.55 192.99 143.73 C 192.98 133.81 185.71 123.62 177.77 122.36 C 175.08 121.94 172.89 122.81 165.50 127.26 C 160.55 130.24 153.35 134.42 149.50 136.55 C 142.50 140.42 142.50 140.42 153.14 128.96 C 158.98 122.66 169.16 110.97 175.74 103.00 C 197.53 76.61 199.41 72.77 192.25 69.14 C 190.19 68.09 186.25 66.93 183.50 66.56 C 178.85 65.93 178.07 66.15 172.50 69.75 C 169.20 71.87 161.24 76.42 154.82 79.84 C 142.01 86.66 134.48 88.34 126.53 86.14 C 120.86 84.57 119.96 86.16 124.13 90.33 C 126.59 92.79 129.13 94.11 133.11 95.00 C 140.73 96.70 146.84 94.81 159.00 86.96 C 176.14 75.91 184.00 72.73 184.00 76.85 C 184.00 81.33 162.15 110.44 146.24 127.15 C 135.80 138.11 134.00 140.89 134.00 146.02 C 134.00 149.53 135.92 154.01 137.41 153.98 C 138.01 153.97 144.25 150.19 151.28 145.58 C 158.31 140.97 166.99 135.95 170.58 134.43 C 177.11 131.65 177.11 131.65 179.64 134.18 C 182.81 137.36 183.86 146.21 181.99 154.13 C 180.81 159.12 173.21 180.00 172.57 180.00 C 172.41 180.00 167.60 177.82 161.89 175.15 C 146.26 167.86 137.21 165.25 124.86 164.48 C 107.90 163.43 109.39 166.51 128.48 171.98 C 143.98 176.42 159.51 182.84 165.35 187.23 C 167.09 188.54 166.90 188.95 162.04 194.27 C 155.22 201.73 146.34 207.53 137.79 210.13 C 130.82 212.25 122.86 212.33 110.50 210.40 C 106.50 209.78 106.50 209.78 110.63 212.80 C 118.36 218.48 122.40 220.00 129.71 219.99 C 144.38 219.96 155.31 214.72 167.36 201.92 C 175.56 193.20 175.56 193.20 196.34 208.03 C 207.77 216.19 221.71 227.14 227.31 232.39 C 237.45 241.87 242.00 244.29 242.00 240.19 Z  M 218.00 123.04 C 218.00 117.62 209.67 109.11 201.20 105.88 C 197.24 104.37 189.86 103.12 188.34 103.70 C 186.48 104.42 188.00 106.30 197.00 114.42 C 204.60 121.27 214.41 127.16 216.73 126.27 C 217.43 126.01 218.00 124.55 218.00 123.04 Z  M 160.50 55.59 C 180.11 48.19 183.00 46.40 183.00 41.62 C 183.00 37.45 181.48 35.46 175.78 32.17 C 173.23 30.70 169.06 28.20 166.51 26.62 C 162.76 24.28 160.11 23.56 152.68 22.84 C 147.63 22.35 142.95 21.76 142.28 21.52 C 140.27 20.81 139.92 22.63 141.77 24.17 C 142.72 24.97 146.46 27.08 150.08 28.87 C 158.31 32.94 168.00 40.47 168.00 42.78 C 168.00 43.86 164.49 47.01 158.97 50.91 C 145.66 60.30 145.92 61.09 160.50 55.59 Z  M 51.04 154.87 C 49.26 151.97 45.00 140.15 45.00 138.10 C 45.00 137.72 47.84 137.59 51.32 137.81 C 56.90 138.16 58.32 137.85 63.46 135.11 C 66.66 133.40 69.89 132.00 70.64 132.00 C 71.70 132.00 72.00 134.25 72.00 142.06 C 72.00 152.11 72.00 152.11 66.25 154.67 C 63.09 156.08 58.84 157.46 56.81 157.74 C 53.46 158.20 52.93 157.93 51.04 154.87 Z  M 79.50 141.82 C 78.40 130.08 78.79 128.71 83.50 127.74 C 91.61 126.08 99.54 123.64 100.91 122.39 C 102.04 121.36 102.08 120.80 101.11 119.63 C 98.69 116.72 89.18 116.69 81.67 119.57 C 80.19 120.14 80.00 119.23 80.00 111.55 C 80.00 102.89 80.00 102.89 85.34 100.44 C 96.62 95.28 104.73 95.61 108.51 101.38 C 110.45 104.34 110.17 106.36 106.00 119.50 C 104.43 124.45 102.43 131.06 101.56 134.18 C 98.92 143.69 95.13 146.84 84.34 148.50 C 80.18 149.14 80.18 149.14 79.50 141.82 Z  M 43.03 129.57 C 39.89 121.33 44.84 116.36 63.92 108.61 C 67.46 107.17 70.72 106.00 71.17 106.00 C 71.63 106.00 72.00 109.60 72.00 113.99 C 72.00 121.98 72.00 121.98 62.90 126.55 C 57.59 129.22 51.78 131.36 48.93 131.69 C 44.32 132.24 44.00 132.12 43.03 129.57 Z "/>
</g>
</svg>