<?xml version="1.0" encoding="UTF-8" standalone="no"?>
<!DOCTYPE svg PUBLIC "-//W3C//DTD SVG 1.1//EN" "http://www.w3.org/Graphics/SVG/1.1/DTD/svg11.dtd" >
<svg xmlns="http://www.w3.org/2000/svg" xmlns:xlink="http://www.w3.org/1999/xlink" version="1.1" viewBox="0 0 256 256">
 <g >
 <path fill="currentColor"
d=" M 81.26 231.01 C 87.69 225.95 110.84 173.81 116.11 152.50 C 116.66 150.30 118.64 143.55 120.51 137.50 C 122.38 131.45 126.62 116.15 129.93 103.50 C 138.27 71.58 144.23 58.52 152.36 54.32 C 156.30 52.28 187.45 43.49 199.61 40.98 C 214.76 37.86 219.47 34.32 213.61 30.48 C 208.92 27.41 204.54 27.50 196.74 30.83 C 192.76 32.53 180.00 36.41 168.39 39.46 C 156.78 42.50 145.43 45.64 143.18 46.44 C 140.92 47.23 136.49 48.36 133.33 48.95 C 129.10 49.73 126.72 50.85 124.29 53.20 C 122.48 54.96 121.00 56.97 121.00 57.68 C 121.00 59.51 125.32 60.35 131.50 59.71 C 136.83 59.16 136.83 59.16 130.87 70.50 C 125.47 80.79 124.40 83.93 119.41 104.17 C 113.29 128.98 110.69 137.97 101.79 165.00 C 95.55 184.00 83.49 211.75 79.75 215.75 C 76.84 218.87 74.14 218.56 70.78 214.75 C 67.92 211.50 67.92 211.50 68.59 215.99 C 68.96 218.45 69.89 222.27 70.67 224.47 C 73.71 233.11 76.45 234.80 81.26 231.01 Z  M 127.92 228.45 C 132.79 224.06 144.28 208.92 151.18 197.83 C 159.05 185.18 170.01 161.39 176.45 143.00 C 179.63 133.93 182.64 125.35 183.15 123.95 C 183.98 121.68 185.32 121.09 195.29 118.68 C 209.07 115.34 211.41 115.31 214.55 118.45 C 217.91 121.82 217.75 124.84 212.97 148.00 C 208.38 170.24 205.52 181.29 199.82 198.90 C 195.61 211.88 192.95 216.00 188.77 216.00 C 186.13 216.00 172.60 209.77 171.55 208.08 C 170.91 207.05 163.74 203.00 162.54 203.00 C 162.24 203.00 162.00 203.84 162.00 204.86 C 162.00 205.93 166.13 210.54 171.76 215.73 C 187.95 230.67 191.68 232.41 196.46 227.25 C 204.47 218.63 212.73 194.07 221.98 151.50 C 223.65 143.80 226.39 133.53 228.06 128.68 C 231.11 119.86 231.11 119.86 228.97 115.43 C 226.84 111.05 221.28 105.57 218.11 104.74 C 217.21 104.50 210.18 105.57 202.49 107.10 C 194.79 108.63 188.22 109.91 187.88 109.94 C 186.99 110.03 191.73 87.22 193.57 82.58 C 195.12 78.65 195.12 78.65 190.62 74.15 C 186.12 69.65 186.12 69.65 181.95 70.90 C 177.89 72.11 164.94 83.27 166.16 84.50 C 166.46 84.79 168.68 84.14 171.10 83.04 C 180.45 78.80 183.00 81.43 180.57 92.81 C 177.54 107.02 176.60 110.03 174.58 111.88 C 171.86 114.37 155.97 120.24 140.35 124.52 C 133.52 126.39 127.47 128.21 126.92 128.55 C 125.32 129.54 127.36 131.36 133.05 134.03 C 138.87 136.75 135.74 137.41 159.27 128.53 C 166.30 125.88 172.23 123.90 172.46 124.13 C 173.78 125.44 156.64 169.42 147.19 189.00 C 141.28 201.24 127.07 224.11 123.63 226.92 C 122.67 227.70 121.45 229.16 120.91 230.17 C 119.17 233.43 123.62 232.34 127.92 228.45 Z  M 59.00 151.20 C 59.00 148.67 57.97 145.77 55.94 142.57 C 54.26 139.92 53.09 137.21 53.34 136.54 C 53.82 135.30 67.86 130.14 83.29 125.54 C 90.47 123.39 92.25 122.46 93.01 120.46 C 94.29 117.11 93.50 115.61 89.46 113.68 C 87.56 112.77 86.00 111.59 86.00 111.04 C 86.00 108.95 91.28 96.16 96.61 85.31 C 102.17 74.01 102.17 74.01 100.14 70.76 C 97.07 65.82 88.95 58.28 84.87 56.58 C 79.16 54.21 74.96 56.05 53.79 70.18 C 49.00 73.38 44.67 76.00 44.17 76.00 C 43.68 76.00 42.07 76.95 40.60 78.10 C 38.48 79.77 38.17 80.49 39.08 81.60 C 41.18 84.12 44.84 83.09 59.00 76.00 C 66.69 72.15 74.08 69.00 75.44 69.00 C 81.22 69.00 85.01 72.88 84.99 78.80 C 84.98 82.46 79.50 103.07 77.08 108.55 C 73.44 116.79 70.28 119.82 60.27 124.69 C 55.07 127.22 50.52 128.87 50.09 128.38 C 49.11 127.28 43.79 111.94 40.93 102.00 C 38.05 91.97 35.95 88.09 30.97 83.59 C 26.80 79.82 21.15 76.79 19.82 77.61 C 18.90 78.18 20.85 82.96 27.96 97.50 C 32.03 105.84 34.95 113.75 37.53 123.44 C 40.81 135.72 41.83 138.17 46.14 144.10 C 50.42 149.98 55.93 154.93 58.25 154.98 C 58.66 154.99 59.00 153.29 59.00 151.20 Z "/>
</g>
</svg>