<?xml version="1.0" encoding="UTF-8" standalone="no"?>
<!DOCTYPE svg PUBLIC "-//W3C//DTD SVG 1.1//EN" "http://www.w3.org/Graphics/SVG/1.1/DTD/svg11.dtd" >
<svg xmlns="http://www.w3.org/2000/svg" xmlns:xlink="http://www.w3.org/1999/xlink" version="1.1" viewBox="0 0 256 256">
 <g >
 <path fill="currentColor"
d=" M 188.87 240.44 C 192.17 236.24 192.93 228.97 193.22 198.85 C 193.50 170.19 193.50 170.19 204.95 168.46 C 213.61 167.14 219.27 166.88 228.20 167.39 C 234.69 167.76 240.00 167.71 240.00 167.28 C 239.99 164.94 235.54 159.81 231.95 157.97 C 227.82 155.87 227.82 155.87 217.16 158.38 C 207.21 160.72 195.69 163.00 193.82 163.00 C 191.71 163.00 193.44 158.12 197.92 151.42 C 204.12 142.16 204.25 141.18 203.77 106.28 C 203.40 79.05 203.40 79.05 200.95 76.43 C 199.60 74.99 196.56 72.67 194.20 71.28 C 189.84 68.72 187.18 68.60 178.75 70.59 C 176.34 71.15 176.00 70.94 175.99 68.87 C 175.99 67.56 175.30 65.18 174.46 63.57 C 173.62 61.95 173.14 60.06 173.41 59.37 C 174.22 57.26 186.98 53.91 196.50 53.30 C 209.99 52.44 211.96 50.82 204.66 46.54 C 198.88 43.15 195.10 43.33 183.57 47.50 C 177.93 49.54 172.03 51.00 169.42 51.00 C 166.47 51.00 162.99 51.99 159.22 53.88 C 152.20 57.42 128.67 67.96 120.50 71.23 C 117.06 72.60 114.50 74.24 114.50 75.06 C 114.50 77.36 126.26 76.74 133.50 74.07 C 143.79 70.26 144.80 70.27 146.39 74.14 C 147.15 75.99 148.10 79.44 148.49 81.81 C 149.18 85.99 149.05 86.28 143.85 91.86 C 140.91 95.03 137.67 98.65 136.66 99.92 C 135.32 101.60 134.53 101.93 133.72 101.12 C 132.55 99.95 133.66 95.67 137.86 85.25 C 140.28 79.23 139.07 78.21 134.69 82.58 C 129.93 87.35 126.76 100.12 124.91 122.00 C 123.54 138.25 124.08 144.32 127.32 149.18 C 130.77 154.34 135.10 156.00 145.16 156.00 C 152.99 156.00 155.17 155.52 167.97 151.01 C 182.11 146.02 182.11 146.02 185.06 148.20 C 186.68 149.40 188.00 150.48 188.00 150.62 C 188.00 150.75 185.53 150.60 182.50 150.29 C 179.47 149.98 177.00 150.12 177.00 150.61 C 177.01 151.10 177.83 152.85 178.83 154.50 C 181.12 158.26 182.28 162.71 181.15 163.41 C 180.67 163.70 172.68 165.32 163.39 167.00 C 154.10 168.67 142.45 170.93 137.50 172.01 C 132.55 173.08 125.67 173.97 122.22 173.98 C 117.50 174.00 115.79 174.38 115.35 175.54 C 114.43 177.93 117.79 180.83 123.61 182.67 C 128.55 184.22 129.19 184.22 132.71 182.69 C 137.82 180.48 153.59 176.63 169.98 173.61 C 177.39 172.25 183.53 171.21 183.62 171.31 C 183.83 171.55 184.32 219.90 184.13 222.21 C 183.87 225.56 180.83 225.96 173.93 223.55 C 170.35 222.29 165.94 220.50 164.14 219.57 C 162.34 218.64 160.14 218.02 159.25 218.19 C 156.82 218.66 162.53 224.75 172.28 232.09 C 176.72 235.43 181.20 239.25 182.24 240.58 C 184.67 243.67 186.35 243.64 188.87 240.44 Z  M 154.40 211.10 C 158.17 210.05 161.65 208.59 162.12 207.85 C 163.48 205.69 163.13 199.16 161.48 195.96 C 159.52 192.17 152.39 188.58 143.92 187.13 C 140.30 186.51 136.82 186.00 136.20 186.00 C 133.63 186.00 136.49 188.99 141.82 191.86 C 144.94 193.55 148.85 196.04 150.50 197.40 C 153.40 199.78 153.45 199.97 151.97 202.68 C 150.54 205.32 147.41 207.32 140.69 209.92 C 139.15 210.52 138.16 211.46 138.50 212.00 C 139.48 213.59 146.95 213.16 154.40 211.10 Z  M 43.40 201.06 C 62.31 191.77 95.70 181.00 105.55 181.00 C 110.92 181.00 111.91 179.60 108.85 176.33 C 105.26 172.49 101.15 170.72 97.09 171.27 C 95.11 171.54 83.60 175.59 71.50 180.26 C 50.25 188.47 28.39 195.99 25.77 196.01 C 22.52 196.02 17.00 198.23 17.00 199.52 C 17.00 201.72 24.86 205.91 30.90 206.93 C 31.11 206.97 36.74 204.33 43.40 201.06 Z  M 54.00 175.58 C 54.00 170.16 54.00 170.16 60.25 168.10 C 72.84 163.93 89.17 160.81 94.74 161.49 C 103.28 162.55 106.37 160.27 102.37 155.85 C 100.84 154.17 100.98 153.65 104.35 147.98 C 106.34 144.64 109.34 137.31 111.02 131.70 C 112.70 126.09 115.45 117.16 117.12 111.84 C 118.79 106.53 120.01 101.15 119.83 99.89 C 119.40 96.87 108.06 89.67 103.94 89.78 C 102.33 89.83 97.15 90.83 92.43 92.02 C 87.70 93.20 83.59 93.92 83.29 93.62 C 82.98 93.32 85.12 90.47 88.04 87.28 C 98.32 76.06 106.37 61.37 105.30 55.77 C 104.59 52.08 103.05 51.03 97.36 50.36 C 92.83 49.83 87.71 51.03 79.51 54.55 C 77.95 55.21 78.22 54.51 80.73 51.34 C 87.48 42.81 86.87 38.10 78.08 31.16 C 68.55 23.63 64.75 24.56 71.01 32.89 C 73.40 36.08 75.00 39.30 75.00 40.95 C 75.00 42.45 73.26 46.38 71.14 49.66 C 65.41 58.53 49.53 76.62 43.98 80.61 C 39.48 83.84 39.08 84.48 38.46 89.44 C 37.74 95.27 38.46 99.02 40.32 98.97 C 40.97 98.95 43.52 95.91 46.00 92.22 C 50.48 85.52 66.35 68.83 73.00 63.81 C 77.53 60.39 89.39 57.13 91.79 58.64 C 92.73 59.23 93.65 60.47 93.83 61.40 C 94.60 65.29 86.39 77.30 74.21 90.12 C 68.73 95.90 65.13 98.69 59.64 101.40 C 55.63 103.38 51.88 105.00 51.30 105.00 C 50.72 105.00 49.68 105.67 49.00 106.50 C 45.49 110.74 56.11 112.65 64.77 109.34 C 68.76 107.82 69.24 107.82 70.72 109.29 C 71.65 110.22 72.52 113.21 72.78 116.35 C 73.23 121.79 73.23 121.79 60.37 127.96 C 53.29 131.36 47.11 134.22 46.63 134.32 C 46.16 134.42 44.72 131.46 43.45 127.74 C 42.17 124.03 40.16 119.63 38.98 117.98 C 36.94 115.11 32.29 112.00 30.05 112.00 C 28.11 112.00 28.97 116.19 32.52 124.05 C 36.87 133.67 39.46 143.60 41.00 156.53 C 42.20 166.54 44.00 171.53 48.67 177.75 C 52.38 182.71 54.00 182.05 54.00 175.58 Z  M 143.27 52.18 C 144.24 51.34 147.95 46.55 151.51 41.53 C 168.77 17.18 175.27 12.55 182.73 19.30 C 187.89 23.96 186.51 30.52 178.44 39.75 C 173.89 44.95 173.89 44.95 180.44 42.49 C 184.04 41.13 188.68 39.22 190.74 38.24 C 194.29 36.55 194.50 36.19 194.45 31.90 C 194.38 26.29 190.22 18.71 185.67 15.94 C 181.87 13.62 176.25 13.45 171.33 15.51 C 169.34 16.34 161.98 22.65 154.91 29.59 C 146.40 37.94 141.50 42.05 140.32 41.82 C 138.60 41.49 137.70 39.57 136.50 33.68 C 135.53 28.91 133.55 31.28 132.59 38.38 C 131.45 46.73 132.59 52.00 135.89 53.64 C 138.50 54.93 140.53 54.53 143.27 52.18 Z  M 140.67 145.98 C 138.56 145.60 135.64 144.09 134.17 142.62 C 131.67 140.12 131.51 139.40 131.59 131.22 C 131.63 126.43 132.15 118.75 132.73 114.17 C 133.96 104.58 135.05 102.99 144.15 97.57 C 150.00 94.09 150.00 94.09 150.00 100.84 C 150.00 107.59 150.00 107.59 144.48 109.46 C 137.21 111.93 135.80 113.61 138.89 116.11 C 141.69 118.38 143.00 118.45 147.55 116.55 C 152.93 114.30 166.76 110.75 168.21 111.25 C 169.40 111.67 145.64 128.00 143.84 128.00 C 142.38 128.00 141.74 132.98 143.01 134.51 C 144.75 136.61 149.01 136.36 160.50 133.46 C 174.15 130.02 177.21 129.00 179.25 127.22 C 181.69 125.09 181.46 124.29 177.90 122.45 C 174.37 120.62 169.54 121.39 158.25 125.59 C 154.81 126.87 152.00 127.74 152.00 127.54 C 152.00 126.57 166.91 116.47 173.19 113.19 C 180.10 109.58 182.77 106.44 181.57 103.33 C 181.29 102.60 179.71 102.00 178.06 102.00 C 175.05 102.00 175.05 102.00 175.61 92.25 C 175.92 86.89 176.33 81.97 176.53 81.32 C 176.96 79.90 185.05 78.54 188.24 79.35 C 191.80 80.26 193.19 83.66 194.61 94.97 C 196.77 112.15 195.88 139.52 193.08 142.32 C 192.51 142.89 190.87 142.33 188.83 140.87 C 184.38 137.70 180.45 137.92 164.50 142.28 C 149.51 146.37 145.95 146.92 140.67 145.98 Z  M 157.21 96.88 C 157.50 88.50 157.50 88.50 162.50 85.77 C 165.25 84.27 167.84 83.04 168.25 83.02 C 168.66 83.01 169.00 87.72 169.00 93.50 C 169.00 104.00 169.00 104.00 165.25 104.01 C 163.19 104.02 160.47 104.30 159.21 104.64 C 156.94 105.25 156.92 105.18 157.21 96.88 Z  M 156.61 78.42 C 156.27 77.55 156.00 75.56 156.00 74.00 C 156.00 72.06 155.13 70.53 153.25 69.16 C 150.50 67.15 150.50 67.15 153.00 66.19 C 154.38 65.67 157.24 64.51 159.37 63.62 C 161.50 62.73 164.25 62.00 165.48 62.00 C 167.46 62.00 167.80 62.66 168.39 67.64 C 168.75 70.74 168.93 73.36 168.78 73.45 C 168.62 73.54 166.21 75.06 163.41 76.81 C 157.54 80.49 157.41 80.52 156.61 78.42 Z  M 51.55 161.85 C 50.12 157.68 47.89 141.71 48.63 140.98 C 50.18 139.45 64.51 134.10 68.96 133.39 C 73.30 132.70 73.30 132.70 72.58 142.46 C 72.18 147.84 71.49 153.19 71.04 154.37 C 70.47 155.86 67.86 157.37 62.36 159.39 C 58.04 160.98 53.94 162.49 53.26 162.75 C 52.58 163.00 51.81 162.60 51.55 161.85 Z  M 80.01 148.36 C 80.01 145.14 80.30 139.51 80.64 135.85 C 81.19 130.10 81.60 129.05 83.68 128.10 C 86.95 126.61 99.28 126.68 100.80 128.20 C 102.96 130.36 102.07 136.27 98.40 144.09 C 94.79 151.77 94.79 151.77 89.15 152.25 C 86.04 152.51 82.71 153.06 81.75 153.47 C 80.20 154.13 80.00 153.55 80.01 148.36 Z  M 101.69 121.44 C 99.04 119.13 98.43 119.03 90.44 119.65 C 82.00 120.30 82.00 120.30 82.00 115.30 C 82.00 109.99 80.64 107.91 76.02 106.20 C 73.74 105.36 73.90 105.19 78.56 103.65 C 85.51 101.34 96.78 99.04 101.25 99.02 C 103.76 99.01 105.70 99.70 107.12 101.12 C 109.60 103.60 109.36 108.57 106.31 118.19 C 104.50 123.88 104.50 123.88 101.69 121.44 Z "/>
</g>
</svg>