<?xml version="1.0" encoding="UTF-8" standalone="no"?>
<!DOCTYPE svg PUBLIC "-//W3C//DTD SVG 1.1//EN" "http://www.w3.org/Graphics/SVG/1.1/DTD/svg11.dtd" >
<svg xmlns="http://www.w3.org/2000/svg" xmlns:xlink="http://www.w3.org/1999/xlink" version="1.1" viewBox="0 0 256 256">
 <g >
 <path fill="currentColor"
d=" M 135.08 244.75 C 135.88 242.69 136.50 234.48 136.76 222.25 C 137.18 203.00 137.18 203.00 155.34 202.99 C 166.80 202.99 177.95 203.60 185.56 204.65 C 197.18 206.25 203.00 206.03 203.00 203.99 C 203.00 202.34 194.93 197.06 190.60 195.87 C 187.79 195.10 178.84 194.92 162.25 195.32 C 138.00 195.89 138.00 195.89 138.00 191.91 C 138.00 187.54 135.87 181.65 133.21 178.64 C 131.53 176.73 131.70 176.71 144.35 177.34 C 158.27 178.02 161.00 177.41 161.00 173.62 C 161.00 172.35 161.93 170.47 163.07 169.44 C 168.85 164.20 180.00 142.92 180.00 137.11 C 180.00 134.51 175.97 131.17 170.14 128.96 C 165.67 127.26 164.08 127.14 157.75 128.01 C 138.32 130.67 117.69 133.03 117.29 132.62 C 116.30 131.63 119.19 128.00 120.98 128.00 C 124.26 128.00 124.48 125.81 121.47 123.22 C 118.97 121.07 117.94 120.83 113.29 121.31 C 107.96 121.86 107.96 121.86 110.10 118.86 C 112.21 115.89 112.28 113.61 110.44 107.31 C 109.88 105.42 110.28 105.04 113.48 104.44 C 116.74 103.83 117.09 103.48 116.55 101.35 C 116.10 99.56 116.85 97.77 119.47 94.33 C 123.91 88.52 124.05 85.07 120.01 81.66 C 118.36 80.27 116.12 78.85 115.03 78.51 C 112.32 77.65 92.20 83.14 79.71 88.13 C 74.09 90.38 68.94 92.44 68.25 92.72 C 66.25 93.51 66.68 85.61 68.77 83.03 C 70.12 81.36 76.03 79.30 93.52 74.40 C 106.16 70.85 120.61 67.12 125.64 66.10 C 135.13 64.18 137.00 63.50 137.00 61.98 C 137.00 60.61 129.11 58.72 123.78 58.81 C 121.19 58.85 114.29 60.04 108.45 61.44 C 102.62 62.85 97.65 64.00 97.42 64.00 C 96.69 64.00 97.00 54.55 97.77 53.40 C 98.95 51.62 108.89 49.64 116.98 49.57 C 123.40 49.51 124.52 49.24 124.82 47.68 C 125.02 46.67 124.35 44.93 123.34 43.81 C 121.67 41.95 120.71 41.82 113.00 42.36 C 108.33 42.68 103.26 43.24 101.75 43.59 C 99.24 44.18 99.00 43.98 99.01 41.37 C 99.01 39.79 99.64 37.29 100.41 35.81 C 101.65 33.44 101.61 32.73 100.04 29.81 C 98.10 26.18 88.97 20.69 86.47 21.65 C 84.45 22.42 84.63 24.35 86.90 26.41 C 89.51 28.77 91.18 36.14 90.42 41.91 C 89.78 46.71 89.78 46.71 80.45 48.86 C 75.32 50.04 69.18 51.01 66.81 51.01 C 57.38 51.04 55.61 53.47 61.90 57.71 C 66.21 60.62 68.76 60.58 79.40 57.50 C 84.15 56.13 88.19 55.00 88.38 55.00 C 88.57 55.00 88.22 57.81 87.61 61.25 C 86.50 67.50 86.50 67.50 66.50 73.27 C 55.50 76.45 44.06 79.37 41.08 79.77 C 38.10 80.17 35.49 81.02 35.28 81.65 C 35.07 82.28 37.06 83.63 39.70 84.65 C 45.76 86.99 55.27 86.96 59.84 84.59 C 63.84 82.52 64.69 83.00 62.65 86.16 C 61.82 87.45 60.58 91.29 59.88 94.69 C 58.74 100.34 58.80 101.20 60.56 104.49 C 61.63 106.47 63.93 109.48 65.68 111.17 C 68.36 113.77 68.71 114.63 67.93 116.69 C 66.38 120.75 66.87 123.69 69.62 126.97 C 71.07 128.68 72.08 130.22 71.87 130.39 C 71.49 130.71 37.51 139.18 30.58 140.69 C 28.42 141.16 26.49 142.03 26.29 142.63 C 25.64 144.57 31.62 150.00 34.42 150.00 C 35.85 150.00 41.41 148.27 46.77 146.15 C 59.01 141.31 80.04 135.61 95.02 133.07 C 101.36 131.99 107.44 130.83 108.52 130.48 C 113.22 128.97 102.73 136.69 97.03 138.93 C 92.71 140.63 89.69 142.68 86.99 145.75 C 83.12 150.15 83.12 150.15 80.18 147.98 C 74.24 143.59 71.04 147.43 75.28 153.85 C 76.64 155.90 78.27 160.03 78.91 163.03 C 80.96 172.66 84.01 181.87 85.70 183.56 C 86.84 184.70 88.36 185.04 90.61 184.68 C 92.65 184.34 94.04 184.59 94.30 185.32 C 94.98 187.21 91.36 193.52 87.96 196.38 C 81.03 202.21 76.05 204.21 46.08 213.18 C 42.40 214.28 41.45 215.09 40.46 218.00 C 39.12 221.90 40.05 224.00 43.10 224.00 C 44.11 224.00 48.37 222.64 52.56 220.98 C 62.92 216.86 83.14 211.70 103.00 208.10 C 129.38 203.33 128.00 203.43 128.02 206.16 C 128.08 213.16 130.04 243.33 130.58 245.48 C 131.46 248.97 133.56 248.63 135.08 244.75 Z  M 230.44 129.09 C 231.58 127.25 229.69 125.03 223.67 121.14 C 214.85 115.44 212.48 114.50 193.15 109.04 C 176.92 104.46 174.04 103.45 175.08 102.70 C 181.80 97.90 186.02 93.42 186.56 90.52 C 188.02 82.74 183.04 78.34 170.75 76.57 C 162.85 75.43 162.51 75.28 162.82 72.94 C 163.62 66.80 165.23 62.97 167.78 61.17 C 173.19 57.33 185.47 51.66 191.85 50.05 C 195.43 49.15 198.54 47.89 198.75 47.26 C 199.17 46.00 192.08 42.00 189.45 42.00 C 188.55 42.00 183.58 43.87 178.39 46.15 C 173.21 48.43 168.73 50.06 168.43 49.77 C 168.14 49.47 168.82 45.62 169.95 41.20 C 172.50 31.21 172.59 25.83 170.25 23.78 C 167.46 21.35 164.37 20.01 159.44 19.09 C 152.90 17.87 152.56 19.91 158.38 25.34 C 162.56 29.23 163.00 30.07 163.00 34.16 C 163.00 41.27 159.36 54.20 156.75 56.37 C 155.51 57.40 149.21 60.73 142.75 63.77 C 136.29 66.81 131.00 69.85 131.00 70.53 C 131.00 72.50 136.68 74.31 141.04 73.72 C 143.24 73.43 147.29 71.74 150.06 69.96 C 152.82 68.19 155.32 66.98 155.61 67.27 C 155.90 67.57 155.22 70.78 154.10 74.41 C 151.17 83.91 151.30 84.04 163.36 83.81 C 175.81 83.56 178.00 84.18 178.00 87.91 C 178.00 90.08 176.66 91.82 171.90 95.84 C 168.55 98.68 165.21 101.00 164.48 101.00 C 163.76 101.00 157.51 99.88 150.60 98.50 C 137.90 95.97 125.60 95.23 124.55 96.92 C 123.43 98.73 135.60 103.17 147.32 105.24 C 159.14 107.33 159.14 107.33 154.55 111.92 C 149.96 116.50 149.96 116.50 139.55 116.50 C 129.41 116.50 129.19 116.55 130.82 118.40 C 134.09 122.08 140.68 124.23 146.33 123.46 C 153.51 122.48 155.35 121.64 162.21 116.26 C 166.98 112.51 168.85 111.61 171.34 111.87 C 177.45 112.51 209.17 122.06 215.05 125.02 C 219.97 127.51 225.24 129.32 229.19 129.90 C 229.57 129.95 230.13 129.59 230.44 129.09 Z  M 91.56 201.30 C 105.14 190.09 105.49 189.57 102.49 185.30 C 101.03 183.21 101.15 183.10 106.24 181.62 C 109.13 180.78 113.53 179.83 116.00 179.50 C 118.47 179.17 121.70 178.72 123.17 178.49 C 125.41 178.15 126.01 178.58 126.92 181.19 C 127.51 182.90 128.00 187.09 128.00 190.51 C 128.00 196.72 128.00 196.72 119.25 197.91 C 114.44 198.57 105.58 200.15 99.56 201.42 C 88.62 203.72 88.62 203.72 91.56 201.30 Z  M 90.53 177.04 C 89.92 176.07 87.00 165.52 87.00 164.32 C 87.00 164.00 88.62 164.00 90.59 164.32 C 93.79 164.84 107.94 162.70 118.25 160.14 C 122.00 159.21 122.00 159.21 122.00 162.48 C 122.00 165.06 121.08 166.60 117.63 169.78 C 113.99 173.13 112.01 174.07 105.88 175.35 C 94.02 177.82 91.20 178.13 90.53 177.04 Z  M 128.00 169.95 C 128.00 169.25 128.74 166.33 129.64 163.47 C 131.28 158.26 131.28 158.26 137.29 157.63 C 140.59 157.28 146.58 157.00 150.59 157.00 C 154.60 157.00 158.11 156.62 158.40 156.16 C 159.34 154.64 156.05 151.17 152.56 150.02 C 150.01 149.18 147.02 149.18 140.96 150.01 C 136.47 150.62 132.67 150.98 132.51 150.81 C 132.36 150.64 131.79 148.47 131.24 146.00 C 130.69 143.53 129.94 140.76 129.56 139.86 C 128.99 138.51 129.94 138.04 135.19 137.13 C 147.09 135.06 161.66 133.92 164.16 134.87 C 167.13 136.00 169.07 138.22 169.25 140.72 C 169.47 143.58 164.05 155.90 160.24 161.24 C 154.48 169.29 153.09 169.97 142.59 169.91 C 137.54 169.88 132.19 170.17 130.70 170.54 C 128.83 171.01 128.00 170.83 128.00 169.95 Z  M 85.00 155.90 C 85.00 152.53 88.87 148.15 94.35 145.32 C 98.29 143.28 118.84 137.79 119.95 138.47 C 121.01 139.13 124.00 147.71 124.00 150.11 C 124.00 151.08 123.21 152.10 122.25 152.39 C 119.94 153.08 87.61 159.00 86.14 159.00 C 85.51 159.00 85.00 157.61 85.00 155.90 Z  M 78.34 126.25 C 78.02 125.29 76.70 122.12 75.41 119.21 C 73.75 115.44 73.42 113.81 74.28 113.57 C 74.95 113.38 80.45 112.21 86.50 110.98 C 92.55 109.74 98.51 108.51 99.75 108.25 C 101.83 107.80 102.00 108.12 102.00 112.43 C 102.00 121.34 100.06 123.12 86.84 126.36 C 78.67 128.37 79.06 128.37 78.34 126.25 Z  M 71.75 105.95 C 69.97 104.88 67.00 99.95 67.00 98.05 C 67.00 97.47 68.66 97.00 70.68 97.00 C 72.71 97.00 82.17 94.75 91.69 92.00 C 101.22 89.25 109.91 87.00 111.01 87.00 C 113.42 87.00 113.65 89.85 111.57 93.87 C 110.37 96.19 108.60 97.10 100.82 99.42 C 95.69 100.95 89.25 103.00 86.50 103.98 C 79.64 106.42 73.84 107.19 71.75 105.95 Z "/>
</g>
</svg>