<?xml version="1.0" encoding="UTF-8" standalone="no"?>
<!DOCTYPE svg PUBLIC "-//W3C//DTD SVG 1.1//EN" "http://www.w3.org/Graphics/SVG/1.1/DTD/svg11.dtd" >
<svg xmlns="http://www.w3.org/2000/svg" xmlns:xlink="http://www.w3.org/1999/xlink" version="1.1" viewBox="0 0 237 256">
 <g >
 <path fill="currentColor"
d=" M 124.09 218.63 C 131.98 215.84 141.97 209.53 151.50 201.31 C 158.50 195.27 158.50 195.27 169.00 201.26 C 187.95 212.08 197.56 215.29 204.32 213.06 C 210.17 211.13 220.01 198.73 220.00 193.29 C 219.99 190.10 216.23 185.22 211.81 182.65 C 207.85 180.35 198.48 177.04 191.74 175.56 C 189.03 174.97 189.00 174.89 190.49 172.03 C 192.60 167.93 192.38 165.10 189.50 159.42 C 188.13 156.71 187.01 154.39 187.00 154.25 C 187.00 154.11 188.24 154.00 189.75 153.99 C 197.38 153.98 205.00 149.14 205.00 144.31 C 205.00 141.02 202.81 137.09 198.97 133.50 C 197.20 131.85 194.43 127.58 192.81 124.01 C 189.35 116.37 185.48 111.00 183.45 111.00 C 181.17 111.00 181.75 109.43 184.50 108.18 C 186.68 107.19 187.00 106.40 187.00 102.10 C 187.00 97.99 186.41 96.38 183.50 92.57 C 181.57 90.05 180.00 87.82 180.00 87.63 C 180.00 87.43 182.51 86.98 185.57 86.62 C 188.64 86.26 192.69 85.32 194.57 84.53 C 197.73 83.22 198.00 82.76 197.98 78.80 C 197.98 76.44 197.57 73.88 197.09 73.11 C 196.55 72.26 196.75 70.44 197.61 68.40 C 200.09 62.45 199.41 57.92 195.10 51.77 C 191.20 46.20 191.20 46.20 194.85 43.85 C 202.15 39.14 199.34 30.80 188.27 24.31 C 183.94 21.77 183.51 21.72 171.66 22.33 C 159.50 22.96 159.50 22.96 156.50 18.43 C 150.92 10.02 142.31 5.25 131.01 4.30 C 121.60 3.51 119.00 5.11 119.00 11.70 C 119.00 15.31 119.73 17.44 122.25 21.15 C 125.00 25.21 126.00 25.95 128.75 25.97 C 133.39 26.01 132.77 24.19 126.44 19.20 C 121.82 15.55 121.00 14.41 121.00 11.61 C 121.00 6.89 123.71 4.78 129.15 5.26 C 133.50 5.65 133.50 5.65 128.95 5.83 C 123.54 6.03 122.00 7.31 122.00 11.56 C 122.00 14.10 122.75 15.24 125.75 17.29 C 132.99 22.23 141.86 23.00 144.06 18.88 C 145.41 16.36 146.41 16.50 150.05 19.75 C 154.30 23.55 153.31 26.00 147.52 26.00 C 144.94 26.00 142.75 25.40 142.00 24.50 C 140.18 22.31 136.64 22.53 137.24 24.80 C 137.71 26.62 132.59 27.31 102.00 29.52 C 93.16 30.16 98.49 29.08 111.50 27.60 C 118.10 26.85 121.92 26.18 120.00 26.13 C 109.50 25.81 78.84 30.41 73.93 33.04 C 70.62 34.81 71.50 39.21 76.25 44.64 C 80.50 49.50 80.50 49.50 80.00 56.72 C 79.50 63.94 79.50 63.94 73.13 58.54 C 66.31 52.76 61.93 50.43 59.57 51.33 C 57.91 51.97 54.56 57.90 55.40 58.73 C 55.69 59.03 56.74 57.86 57.72 56.14 C 60.61 51.06 62.88 51.95 72.61 62.00 C 77.40 66.95 81.63 71.00 82.01 71.00 C 82.39 71.00 82.29 68.43 81.80 65.29 C 80.35 56.02 81.03 51.74 84.19 50.23 C 86.64 49.06 86.79 48.68 85.84 45.97 C 84.71 42.74 80.85 39.54 76.04 37.87 C 72.72 36.71 72.16 35.54 74.50 34.64 C 75.45 34.27 76.00 34.65 76.00 35.67 C 76.00 37.11 78.72 37.20 104.25 36.59 C 150.48 35.49 174.62 33.16 181.49 29.15 C 186.22 26.38 185.37 24.59 179.00 23.91 C 173.50 23.33 173.50 23.33 178.52 23.16 C 183.03 23.02 184.04 23.41 188.46 27.06 C 193.52 31.25 195.91 33.88 195.97 35.33 C 195.99 35.78 193.53 34.04 190.50 31.46 C 187.47 28.87 185.00 27.07 185.00 27.46 C 185.00 27.84 187.33 30.83 190.17 34.11 C 193.96 38.46 195.05 40.35 194.24 41.16 C 193.42 41.98 191.44 40.77 186.81 36.64 C 183.34 33.54 180.13 31.01 179.67 31.00 C 179.21 31.00 181.35 33.81 184.42 37.25 C 191.70 45.40 189.35 46.25 180.74 38.58 C 170.43 29.38 171.14 32.29 181.76 42.76 C 191.82 52.69 197.51 59.97 196.82 62.05 C 196.60 62.69 193.90 60.72 190.81 57.68 C 186.15 53.09 185.11 52.46 184.71 53.98 C 184.37 55.28 185.81 57.18 189.62 60.47 C 192.69 63.12 195.00 65.95 195.00 67.06 C 195.00 69.88 194.13 69.48 187.76 63.70 C 182.03 58.48 182.03 58.48 183.71 53.23 C 185.39 47.98 185.39 47.98 181.49 43.99 C 177.26 39.66 175.57 39.17 172.97 41.53 C 171.44 42.91 170.75 42.75 165.66 39.83 C 161.91 37.68 160.45 36.34 161.27 35.81 C 162.07 35.30 161.70 35.03 160.21 35.02 C 158.26 35.00 158.08 35.28 158.97 36.94 C 159.54 38.01 160.46 39.17 161.01 39.50 C 162.56 40.46 162.17 42.00 160.38 42.00 C 159.49 42.00 157.23 40.65 155.35 39.00 C 152.66 36.64 150.99 36.00 147.52 36.00 C 145.10 36.00 142.87 36.40 142.56 36.90 C 142.26 37.39 143.30 39.18 144.87 40.86 C 146.45 42.55 147.55 44.11 147.33 44.34 C 147.10 44.56 144.98 44.53 142.60 44.26 C 136.28 43.55 135.16 45.54 136.15 55.78 C 136.57 60.12 137.74 65.89 138.75 68.59 C 140.55 73.41 140.66 73.50 144.54 73.28 C 146.72 73.16 151.29 73.06 154.71 73.06 C 160.89 73.07 160.95 73.09 165.94 78.28 C 168.70 81.15 170.97 84.06 170.98 84.75 C 170.99 85.44 171.57 86.00 172.26 86.00 C 174.40 86.00 185.00 97.82 185.00 100.21 C 185.00 102.14 184.37 101.80 180.10 97.59 C 173.24 90.84 171.34 92.55 177.94 99.53 C 183.32 105.22 184.10 107.00 181.21 107.00 C 180.22 107.00 177.41 104.55 174.96 101.55 C 172.51 98.55 169.82 96.06 169.00 96.02 C 168.10 95.98 168.59 95.27 170.25 94.24 C 172.16 93.06 173.00 91.70 173.00 89.82 C 173.00 87.52 172.41 86.93 169.25 86.05 C 167.19 85.48 163.86 85.01 161.87 85.01 C 159.18 85.00 158.11 84.52 157.75 83.15 C 157.46 82.04 155.92 81.01 153.88 80.56 C 152.02 80.15 151.11 79.58 151.85 79.29 C 152.77 78.93 152.30 78.18 150.35 76.89 C 146.92 74.63 145.29 74.44 147.00 76.50 C 148.05 77.77 147.85 78.00 145.74 78.00 C 144.17 78.00 142.62 77.07 141.59 75.50 C 140.69 74.12 139.42 73.00 138.76 73.00 C 138.10 73.00 135.19 70.65 132.28 67.78 C 129.16 64.70 127.00 63.19 127.00 64.09 C 127.00 64.93 129.47 67.75 132.49 70.36 C 135.52 72.97 138.26 76.21 138.60 77.55 C 138.94 78.90 139.83 80.00 140.58 80.00 C 141.38 80.00 141.70 80.62 141.35 81.52 C 140.90 82.71 139.57 82.02 135.34 78.40 C 132.35 75.85 129.63 74.03 129.30 74.37 C 128.97 74.70 130.81 77.23 133.40 80.00 C 135.99 82.76 137.83 85.47 137.49 86.01 C 136.61 87.45 130.78 87.22 126.87 85.61 C 125.02 84.84 120.80 84.05 117.50 83.86 C 111.50 83.50 111.50 83.50 111.00 87.00 C 110.64 89.52 109.94 90.58 108.50 90.79 C 107.40 90.96 105.42 91.91 104.09 92.92 C 101.01 95.26 101.87 97.65 106.20 98.77 C 109.45 99.61 109.50 99.71 109.80 105.97 C 110.14 113.13 109.48 114.03 104.00 113.87 C 102.08 113.81 101.40 113.58 102.50 113.35 C 109.44 111.88 109.00 112.32 108.97 106.73 C 108.95 101.62 108.86 101.46 104.97 99.67 C 101.99 98.29 101.00 97.25 101.00 95.49 C 101.00 94.01 101.75 92.90 103.00 92.50 C 104.10 92.15 104.98 91.56 104.96 91.18 C 104.85 89.28 95.86 80.88 94.27 81.19 C 92.85 81.47 93.46 82.57 97.39 86.77 C 101.56 91.23 101.96 92.00 100.15 92.00 C 97.80 92.00 84.92 80.37 81.88 75.50 C 80.20 72.80 80.01 72.72 80.00 74.69 C 80.00 75.98 82.35 79.42 85.65 82.99 C 89.45 87.10 90.97 89.43 90.30 90.10 C 89.62 90.78 87.44 89.43 83.64 85.96 C 76.51 79.43 76.12 81.78 83.08 89.39 C 89.96 96.93 89.44 100.00 82.35 93.63 C 79.52 91.08 76.93 89.00 76.60 89.00 C 76.27 89.00 76.00 89.93 76.00 91.06 C 76.00 92.19 76.37 92.89 76.83 92.60 C 78.21 91.75 87.23 101.58 86.85 103.51 C 86.57 104.92 85.48 104.34 81.25 100.54 C 74.31 94.30 74.48 96.98 81.52 104.76 C 84.87 108.47 86.61 111.12 85.96 111.53 C 84.84 112.22 83.18 111.05 76.77 105.10 C 71.15 99.88 71.35 101.87 77.08 108.30 C 79.86 111.42 81.85 114.43 81.51 114.99 C 80.64 116.39 78.42 115.07 71.93 109.31 C 66.51 104.50 66.51 104.50 71.76 110.84 C 74.64 114.33 76.75 117.59 76.44 118.09 C 75.23 120.06 72.95 118.77 68.16 113.39 C 65.41 110.30 62.69 107.94 62.11 108.14 C 61.53 108.34 63.27 110.97 65.98 114.00 C 68.69 117.03 70.93 119.84 70.96 120.25 C 71.07 122.30 67.78 120.46 62.45 115.50 C 59.20 112.48 55.86 109.97 55.02 109.93 C 54.19 109.90 55.30 109.29 57.50 108.60 C 62.68 106.95 71.33 102.53 72.69 100.83 C 73.28 100.10 74.28 96.35 74.93 92.50 C 75.58 88.65 76.78 82.88 77.60 79.67 C 79.03 74.11 79.00 73.62 76.96 69.42 C 74.77 64.89 63.72 54.00 61.31 54.00 C 60.57 54.00 59.47 55.07 58.88 56.37 C 57.78 58.78 51.37 63.01 48.86 62.98 C 47.80 62.97 47.83 62.75 49.00 61.95 C 50.15 61.18 49.91 61.06 48.00 61.47 C 42.10 62.73 28.10 63.76 23.42 63.29 C 18.47 62.79 18.30 62.86 17.02 65.96 C 16.02 68.37 15.90 71.82 16.51 80.32 C 16.95 86.47 17.36 94.20 17.41 97.50 C 17.48 102.20 18.12 104.56 20.37 108.37 C 24.72 115.78 29.61 120.66 35.63 123.61 C 40.81 126.14 41.64 126.25 52.29 125.76 C 64.81 125.18 76.41 121.98 83.44 117.18 C 87.08 114.69 87.48 113.94 88.65 107.49 C 90.58 96.90 92.12 92.00 93.54 92.00 C 94.92 92.00 100.00 97.56 100.00 99.07 C 100.00 99.57 101.59 102.07 103.54 104.62 C 105.49 107.17 106.91 109.76 106.71 110.38 C 106.50 110.99 104.00 111.83 101.15 112.24 C 98.30 112.65 94.40 113.64 92.48 114.44 C 89.55 115.67 89.00 116.40 89.00 119.04 C 89.00 122.34 91.31 126.35 96.26 131.65 C 99.69 135.32 100.42 134.90 86.14 137.55 C 76.78 139.29 76.78 139.29 77.29 143.10 C 77.99 148.31 80.94 152.11 86.77 155.28 C 91.16 157.67 91.89 157.80 93.59 156.51 C 94.64 155.71 94.97 155.05 94.33 155.03 C 93.68 155.01 90.31 152.31 86.83 149.02 C 80.50 143.05 80.50 143.05 95.75 143.02 C 104.37 143.01 111.00 143.40 111.00 143.92 C 111.00 145.33 96.65 156.59 85.59 163.85 C 75.67 170.36 75.67 170.36 79.04 173.17 C 83.83 177.17 88.27 177.75 95.28 175.30 C 98.46 174.18 100.82 173.51 100.53 173.80 C 100.24 174.09 101.36 175.15 103.00 176.15 C 104.65 177.15 106.00 178.70 106.00 179.59 C 106.00 180.68 106.54 181.01 107.63 180.59 C 108.99 180.07 109.16 180.47 108.64 183.03 C 108.26 184.94 108.40 185.87 109.02 185.49 C 109.58 185.14 110.00 186.15 110.00 187.82 C 110.00 190.39 109.38 191.02 105.01 192.90 C 102.27 194.08 98.67 195.32 97.01 195.65 C 93.14 196.42 93.01 199.36 96.69 203.20 C 98.56 205.15 100.37 206.00 102.65 206.00 C 109.90 206.00 123.26 198.88 137.09 187.64 C 142.68 183.10 142.68 183.10 146.15 185.45 C 149.78 187.92 155.00 194.10 155.00 195.93 C 155.00 198.24 152.11 196.76 146.64 191.67 C 143.49 188.74 140.72 186.64 140.50 187.01 C 140.27 187.38 142.29 190.07 145.00 193.00 C 148.29 196.56 149.66 198.78 149.15 199.70 C 148.55 200.76 147.30 200.13 143.74 197.01 C 141.20 194.76 138.83 192.04 138.49 190.96 C 138.15 189.88 137.45 189.00 136.93 189.00 C 134.92 189.00 136.22 191.59 140.98 197.07 C 144.90 201.57 145.63 202.93 144.41 203.40 C 143.55 203.72 142.05 203.56 141.06 203.03 C 138.84 201.85 133.00 195.27 133.00 193.97 C 133.00 193.43 132.55 193.00 132.00 193.00 C 129.99 193.00 131.10 195.40 135.50 200.55 C 139.63 205.39 140.98 208.00 139.36 208.00 C 139.01 208.00 135.86 205.49 132.36 202.42 C 128.86 199.34 126.00 197.15 126.00 197.53 C 126.00 197.91 128.25 200.83 131.00 204.01 C 135.17 208.82 135.73 209.89 134.32 210.43 C 133.13 210.89 130.97 209.43 126.94 205.44 C 123.80 202.34 120.98 200.22 120.67 200.73 C 120.35 201.24 122.32 203.86 125.04 206.54 C 129.89 211.31 131.23 214.00 128.78 214.00 C 128.11 214.00 125.00 211.47 121.88 208.38 C 118.75 205.29 115.74 203.04 115.18 203.39 C 114.61 203.74 116.62 206.49 119.71 209.58 C 123.72 213.59 124.96 215.44 124.18 216.22 C 122.84 217.56 114.41 211.00 112.74 207.33 C 112.08 205.89 111.08 205.14 110.24 205.46 C 109.47 205.76 108.45 206.00 107.98 206.00 C 107.51 206.00 109.69 208.57 112.82 211.72 C 117.25 216.18 118.11 217.52 116.74 217.79 C 115.69 218.01 112.49 215.92 108.74 212.58 C 101.90 206.47 98.87 205.11 103.58 210.25 C 105.22 212.04 107.45 214.60 108.53 215.94 C 110.50 218.38 110.50 218.38 107.50 216.30 C 105.85 215.15 102.15 211.74 99.29 208.72 C 91.78 200.78 90.99 195.82 97.00 194.50 C 98.73 194.12 99.93 193.60 99.67 193.34 C 99.41 193.08 97.36 193.37 95.10 193.97 C 91.55 194.93 91.00 195.45 91.00 197.85 C 91.00 199.37 92.61 203.29 94.57 206.56 C 103.05 220.68 110.12 223.56 124.09 218.63 Z  M 104.77 191.93 C 106.46 191.34 108.06 190.29 108.33 189.59 C 108.85 188.23 97.42 176.00 95.63 176.00 C 95.04 176.00 97.22 178.68 100.46 181.96 C 105.21 186.76 106.04 188.05 104.70 188.56 C 103.56 189.00 101.03 187.44 96.66 183.60 C 88.49 176.43 86.96 176.37 94.00 183.50 C 96.99 186.53 98.87 189.00 98.18 189.00 C 96.04 189.00 88.93 184.99 88.34 183.46 C 88.04 182.66 84.91 179.71 81.39 176.92 C 77.88 174.12 75.00 171.41 75.00 170.91 C 75.00 170.40 77.98 167.85 81.62 165.24 C 85.27 162.64 88.98 159.92 89.87 159.21 C 92.61 157.02 82.77 162.09 78.25 165.18 C 74.65 167.65 74.00 168.62 74.00 171.50 C 74.00 176.97 82.35 185.06 92.50 189.42 C 101.92 193.47 100.93 193.27 104.77 191.93 Z  M 99.00 153.21 C 99.00 152.08 90.14 143.53 89.57 144.10 C 88.94 144.73 96.90 154.00 98.08 154.00 C 98.59 154.00 99.00 153.64 99.00 153.21 Z  M 103.35 150.32 C 104.06 149.61 99.19 144.00 97.86 144.00 C 96.99 144.00 101.18 150.89 102.08 150.96 C 102.40 150.98 102.97 150.69 103.35 150.32 Z  M 109.12 87.25 C 107.61 84.47 102.09 79.58 101.33 80.34 C 100.94 80.72 102.38 82.83 104.52 85.02 C 108.59 89.19 110.74 90.23 109.12 87.25 Z  M 132.00 85.39 C 132.00 84.29 125.85 77.00 124.92 77.00 C 123.04 77.00 124.10 79.60 127.25 82.70 C 130.37 85.76 132.00 86.69 132.00 85.39 Z  M 166.50 82.80 C 165.40 82.18 162.65 80.17 160.40 78.33 C 154.81 73.79 152.73 74.12 157.32 78.81 C 159.37 80.91 160.73 82.94 160.35 83.31 C 159.98 83.69 161.65 83.99 164.08 83.97 C 167.90 83.94 168.23 83.78 166.50 82.80 Z  M 119.69 80.46 C 117.29 78.35 117.12 77.89 118.54 77.35 C 119.49 76.98 120.58 77.31 121.09 78.10 C 121.82 79.26 121.97 79.24 121.98 77.96 C 121.99 77.09 123.41 76.00 125.25 75.46 C 127.76 74.72 128.57 73.87 128.82 71.75 C 129.07 69.54 128.73 69.00 127.07 69.00 C 124.62 69.00 124.60 68.08 126.87 61.64 C 128.58 56.78 128.58 56.78 131.42 60.89 C 133.99 64.59 136.00 66.11 136.00 64.34 C 136.00 63.46 130.78 56.58 129.79 56.17 C 129.36 55.98 129.00 54.99 129.00 53.95 C 129.00 52.91 127.41 50.48 125.47 48.53 C 121.30 44.36 116.58 43.66 115.69 47.08 C 115.17 49.08 114.61 49.15 102.67 48.83 C 95.80 48.65 90.40 48.84 90.65 49.25 C 90.91 49.66 90.21 50.00 89.11 50.00 C 88.00 50.00 85.89 50.55 84.42 51.22 C 81.75 52.44 81.75 52.44 82.51 60.47 C 82.93 64.89 83.33 69.62 83.39 71.00 C 83.45 72.38 83.73 73.72 84.02 74.00 C 84.31 74.28 85.10 75.78 85.79 77.34 C 87.04 80.18 87.04 80.18 95.62 79.60 C 100.35 79.27 104.72 79.35 105.35 79.76 C 106.96 80.80 115.90 82.76 119.50 82.86 C 122.50 82.94 122.50 82.94 119.69 80.46 Z  M 134.00 51.03 C 134.00 49.05 133.58 48.22 132.73 48.55 C 132.04 48.82 129.01 46.55 126.02 43.52 C 121.29 38.73 120.87 38.00 122.83 38.00 C 124.13 38.00 127.17 39.95 130.04 42.64 C 134.06 46.39 135.00 46.90 135.00 45.31 C 135.00 44.23 133.87 42.29 132.49 40.99 C 130.62 39.24 130.30 38.43 131.24 37.83 C 131.94 37.39 129.27 37.02 125.25 37.02 C 121.26 37.01 118.01 37.34 118.02 37.75 C 118.05 38.74 132.40 54.00 133.30 54.00 C 133.68 54.00 134.00 52.66 134.00 51.03 Z  M 95.00 47.29 C 95.00 46.90 93.33 44.88 91.30 42.79 C 87.74 39.15 87.69 39.00 90.00 39.00 C 92.57 39.00 99.00 44.50 99.00 46.70 C 99.00 47.65 101.00 48.00 106.50 48.00 C 110.83 48.00 114.00 47.58 114.00 47.00 C 114.00 46.45 113.41 46.00 112.70 46.00 C 110.97 46.00 104.77 39.56 105.65 38.68 C 106.03 38.31 101.24 38.00 95.03 38.00 C 83.72 38.00 83.72 38.00 88.11 42.90 C 92.07 47.32 95.00 49.19 95.00 47.29 Z  M 119.00 43.00 C 119.00 42.45 118.51 42.00 117.91 42.00 C 117.31 42.00 115.67 41.10 114.27 40.00 C 110.41 36.96 109.25 37.61 112.50 41.00 C 115.28 43.90 119.00 45.05 119.00 43.00 Z  M 143.50 42.00 C 143.16 41.45 142.35 40.99 141.69 40.98 C 141.04 40.97 139.38 40.08 138.00 39.00 C 134.34 36.14 133.51 36.57 136.17 39.94 C 137.73 41.91 139.43 42.91 141.31 42.94 C 142.94 42.98 143.86 42.58 143.50 42.00 Z  M 171.97 39.69 C 171.92 38.02 168.42 34.00 167.01 34.00 C 165.69 34.00 165.76 34.22 168.50 38.67 C 170.37 41.71 172.04 42.20 171.97 39.69 Z  M 192.42 209.71 C 189.68 208.11 175.95 196.71 176.32 196.34 C 176.48 196.19 178.88 196.78 181.65 197.67 C 190.99 200.66 197.89 197.05 203.00 186.50 C 204.90 182.57 205.05 181.63 203.89 180.80 C 202.82 180.04 202.93 179.95 204.33 180.41 C 205.34 180.73 206.38 181.00 206.64 181.00 C 206.90 181.00 206.84 181.45 206.50 182.00 C 206.16 182.55 206.55 183.00 207.36 183.00 C 209.46 183.00 214.80 187.71 216.56 191.12 C 217.38 192.70 217.79 194.00 217.47 194.00 C 217.14 194.00 214.43 191.68 211.44 188.85 C 204.61 182.40 204.21 184.81 211.00 191.50 C 215.88 196.31 217.24 199.00 214.78 199.00 C 214.11 199.00 211.19 196.65 208.28 193.78 C 201.57 187.16 201.33 189.36 208.00 196.41 C 210.75 199.31 213.00 202.19 213.00 202.79 C 213.00 205.58 210.67 204.59 205.07 199.41 C 197.64 192.53 197.05 194.05 204.21 201.62 C 208.42 206.08 209.13 207.31 207.96 208.09 C 206.85 208.82 205.15 207.60 200.84 202.98 C 197.72 199.64 194.91 197.34 194.58 197.87 C 194.26 198.40 196.24 201.29 198.99 204.30 C 201.75 207.32 204.00 210.05 204.00 210.39 C 204.00 212.25 200.62 210.35 195.17 205.42 C 191.78 202.35 188.51 200.00 187.90 200.20 C 187.30 200.40 188.91 202.91 191.49 205.78 C 196.15 210.96 196.41 212.04 192.42 209.71 Z  M 178.50 203.81 C 176.30 202.65 171.37 198.82 167.55 195.28 C 157.87 186.33 153.84 184.42 160.40 191.89 C 162.50 194.29 162.50 194.29 159.92 192.64 C 158.50 191.73 157.12 191.21 156.86 191.48 C 156.59 191.74 153.98 189.76 151.06 187.06 C 148.08 184.30 145.16 182.39 144.38 182.68 C 143.62 182.98 143.00 182.78 143.00 182.25 C 143.00 181.72 138.42 182.57 132.83 184.14 C 127.24 185.71 122.53 186.86 122.37 186.70 C 122.21 186.54 122.73 184.22 123.54 181.54 C 124.34 178.87 125.00 173.86 125.00 170.40 C 125.00 166.94 125.36 163.89 125.81 163.62 C 126.25 163.34 129.74 165.62 133.56 168.67 C 144.29 177.25 157.78 186.43 166.54 191.11 C 170.92 193.46 174.89 196.03 175.38 196.82 C 175.86 197.62 177.82 200.01 179.74 202.14 C 181.66 204.26 183.07 205.98 182.87 205.96 C 182.66 205.93 180.70 204.97 178.50 203.81 Z  M 142.23 180.17 C 143.21 179.19 134.43 169.83 129.22 166.28 C 124.87 163.32 125.81 165.91 130.95 171.04 C 134.48 174.57 136.02 176.87 135.81 178.31 C 135.53 180.21 135.07 180.00 131.09 176.21 C 128.66 173.89 126.52 172.00 126.34 172.00 C 126.15 172.00 126.01 173.46 126.02 175.25 C 126.03 177.54 126.29 178.08 126.92 177.09 C 127.63 175.97 128.39 176.31 130.66 178.79 C 133.07 181.43 134.08 181.83 137.37 181.52 C 139.50 181.32 141.69 180.71 142.23 180.17 Z  M 107.12 177.87 C 107.05 176.97 105.82 175.45 104.37 174.51 C 102.30 173.15 102.03 172.59 103.12 171.91 C 105.04 170.69 107.25 170.78 106.47 172.04 C 106.12 172.62 106.35 173.72 107.00 174.50 C 107.64 175.27 107.96 176.71 107.70 177.70 C 107.32 179.18 107.21 179.21 107.12 177.87 Z  M 179.50 174.38 C 159.81 168.96 159.58 168.88 161.07 167.94 C 162.98 166.73 164.27 166.76 163.50 168.00 C 163.16 168.55 163.57 169.00 164.41 169.00 C 165.25 169.00 165.72 168.43 165.45 167.73 C 165.18 167.03 166.25 165.70 167.82 164.77 C 172.94 161.74 181.64 151.22 178.16 152.25 C 177.70 152.39 175.00 149.80 172.17 146.50 C 167.03 140.50 167.03 140.50 170.13 140.18 C 174.63 139.71 178.05 141.46 183.56 147.06 C 187.89 151.45 188.17 152.00 186.14 152.00 C 184.73 152.00 181.63 149.88 178.09 146.50 C 169.34 138.16 168.83 139.92 177.33 149.08 C 185.81 158.20 190.62 164.71 189.63 165.71 C 189.26 166.08 186.72 164.18 183.98 161.48 C 180.76 158.31 178.67 156.93 178.04 157.56 C 177.41 158.19 179.17 160.23 183.03 163.36 C 186.32 166.02 189.00 168.84 189.00 169.63 C 189.00 171.41 186.03 172.67 185.15 171.26 C 184.79 170.70 182.61 168.20 180.30 165.70 C 177.34 162.50 175.54 161.31 174.20 161.66 C 172.58 162.08 173.13 162.95 177.73 167.30 C 180.98 170.38 182.65 172.62 181.89 172.87 C 181.19 173.10 183.07 174.08 186.06 175.04 C 194.18 177.66 189.80 177.21 179.50 174.38 Z  M 174.58 168.64 C 172.22 166.13 170.10 164.64 169.56 165.13 C 167.99 166.55 174.53 172.55 178.08 172.94 C 178.39 172.97 176.82 171.04 174.58 168.64 Z  M 147.00 163.38 C 143.50 162.02 143.50 162.02 147.00 162.53 C 149.99 162.96 149.74 162.73 145.25 160.95 C 142.36 159.80 140.00 158.44 140.00 157.93 C 140.00 157.42 142.25 157.00 145.00 157.00 C 149.51 157.00 150.00 157.22 150.04 159.25 C 150.08 161.33 150.19 161.29 151.63 158.64 C 152.48 157.07 152.80 155.46 152.34 155.07 C 151.88 154.68 148.60 151.70 145.06 148.43 C 141.00 144.68 139.40 143.60 140.72 145.50 C 141.86 147.15 143.96 149.58 145.37 150.90 C 148.01 153.36 148.02 155.00 145.40 155.00 C 143.52 155.00 134.00 146.17 134.00 144.43 C 134.00 143.72 132.99 142.94 131.75 142.71 C 130.51 142.47 132.95 142.21 137.17 142.14 C 141.38 142.06 144.98 142.34 145.17 142.75 C 145.71 143.96 155.00 151.20 155.00 150.41 C 155.00 150.01 153.85 148.18 152.45 146.34 C 150.18 143.37 150.10 142.99 151.70 142.88 C 152.69 142.82 152.15 142.42 150.50 142.00 C 148.18 141.41 149.03 141.21 154.25 141.12 C 157.96 141.05 161.00 141.18 161.00 141.41 C 161.00 141.64 159.03 146.02 156.63 151.16 C 154.22 156.30 151.86 161.45 151.38 162.62 C 150.56 164.60 150.27 164.65 147.00 163.38 Z  M 133.50 159.86 C 131.30 159.34 128.49 159.17 127.25 159.48 C 124.54 160.15 124.29 158.45 126.62 155.13 C 127.99 153.18 128.04 152.44 126.95 150.42 C 126.25 149.09 124.62 147.32 123.33 146.48 C 122.05 145.64 121.00 144.51 121.00 143.98 C 121.00 140.52 133.47 146.31 137.56 151.66 C 139.93 154.78 139.97 155.00 138.14 155.00 C 137.06 155.00 133.56 152.53 130.37 149.50 C 124.60 144.05 123.00 143.07 123.00 145.00 C 123.00 145.55 123.44 146.00 123.97 146.00 C 124.50 146.00 127.27 148.91 130.12 152.47 C 132.98 156.03 136.48 159.36 137.90 159.89 C 141.21 161.10 138.71 161.08 133.50 159.86 Z  M 184.23 144.87 C 179.11 139.89 178.44 138.89 180.57 139.43 C 182.00 139.79 182.93 139.69 182.64 139.22 C 182.35 138.75 183.66 137.80 185.55 137.12 C 189.19 135.80 191.56 132.72 190.40 130.84 C 189.92 130.06 186.03 129.89 177.69 130.27 C 170.65 130.60 166.25 130.46 167.08 129.95 C 168.19 129.26 167.54 128.09 164.00 124.41 C 159.74 120.00 159.65 119.78 162.25 120.39 C 163.87 120.77 165.00 120.62 165.00 120.02 C 165.00 119.46 165.45 119.00 166.00 119.00 C 166.55 119.00 167.00 119.85 167.00 120.90 C 167.00 122.77 173.17 129.00 175.03 129.00 C 176.77 129.00 176.06 127.43 173.00 124.50 C 170.13 121.75 168.95 118.00 170.95 118.00 C 171.46 118.00 173.91 120.14 176.38 122.75 C 180.15 126.73 180.60 127.61 179.19 128.18 C 178.26 128.55 180.44 128.89 184.04 128.93 C 190.49 129.00 190.63 129.06 195.17 133.75 C 203.65 142.51 204.74 147.88 196.44 140.03 C 188.92 132.92 188.13 134.55 195.49 141.99 C 200.41 146.96 201.08 148.03 199.60 148.60 C 198.32 149.09 196.42 147.87 192.64 144.14 C 187.93 139.49 185.00 137.79 185.00 139.72 C 185.00 140.11 187.35 142.81 190.22 145.72 C 195.01 150.58 195.23 151.00 192.97 150.98 C 191.32 150.97 188.43 148.95 184.23 144.87 Z  M 78.47 140.96 C 77.98 140.17 85.80 138.47 86.54 139.20 C 86.76 139.42 85.14 140.08 82.95 140.67 C 80.75 141.26 78.74 141.38 78.47 140.96 Z  M 99.33 136.68 C 102.54 136.03 105.09 135.05 105.00 134.50 C 104.91 133.95 101.49 130.42 97.42 126.67 C 93.34 122.91 90.00 119.25 90.00 118.53 C 90.00 117.02 95.94 113.96 98.65 114.08 C 99.67 114.12 98.70 114.70 96.51 115.36 C 94.31 116.02 92.38 117.27 92.21 118.15 C 91.84 120.07 96.63 126.00 98.56 126.00 C 100.18 126.00 106.74 129.53 109.25 131.76 C 110.88 133.20 111.00 133.08 111.00 130.10 C 111.00 128.33 110.60 127.13 110.10 127.44 C 109.61 127.74 107.70 127.34 105.85 126.53 C 102.50 125.08 102.50 125.08 106.78 125.04 C 111.42 125.00 111.57 125.18 112.32 131.71 C 112.89 136.68 112.99 136.62 101.50 137.35 C 93.50 137.85 93.50 137.85 99.33 136.68 Z  M 120.04 132.86 C 122.45 128.21 123.20 127.77 124.42 130.22 C 125.04 131.48 126.63 132.65 127.94 132.84 C 130.33 133.18 130.33 133.18 127.67 130.01 C 126.20 128.27 125.00 126.51 125.00 126.09 C 125.00 124.75 129.82 122.72 131.48 123.36 C 132.43 123.72 132.85 123.56 132.49 122.99 C 132.13 122.40 133.53 122.00 135.97 122.00 C 140.37 122.00 140.51 122.17 141.42 128.67 C 142.00 132.84 142.00 132.84 135.25 133.46 C 131.54 133.80 126.32 134.34 123.66 134.65 C 118.83 135.21 118.82 135.21 120.04 132.86 Z  M 138.00 130.88 C 136.62 130.34 134.04 128.48 132.26 126.76 C 127.96 122.60 127.04 123.83 131.04 128.39 C 133.46 131.15 134.95 131.99 137.35 131.94 C 140.46 131.87 140.47 131.86 138.00 130.88 Z  M 153.52 127.30 C 154.32 124.66 154.98 122.16 154.99 121.75 C 155.01 119.98 157.78 121.38 161.50 125.04 C 165.50 128.99 165.50 128.99 162.82 128.99 C 161.15 129.00 159.41 128.06 158.18 126.50 C 155.85 123.54 155.26 123.41 154.80 125.75 C 154.38 127.90 158.07 130.00 162.28 130.00 C 167.02 130.00 165.14 130.67 158.28 131.41 C 152.07 132.09 152.07 132.09 153.52 127.30 Z  M 179.25 122.91 C 173.52 117.39 173.00 116.50 175.97 117.28 C 177.05 117.56 177.88 117.50 177.81 117.15 C 177.74 116.79 178.03 115.70 178.46 114.71 C 178.98 113.53 178.64 112.26 177.47 110.96 C 175.94 109.28 174.36 109.00 166.29 109.00 C 156.89 109.00 156.89 109.00 157.20 104.33 C 157.36 101.76 158.05 99.48 158.71 99.26 C 159.38 99.04 161.85 100.68 164.21 102.90 C 168.44 106.90 168.47 106.95 165.82 106.97 C 163.98 106.99 162.35 105.99 160.58 103.75 C 158.27 100.81 158.02 100.71 158.01 102.69 C 158.00 103.90 158.46 105.16 159.02 105.51 C 159.58 105.86 159.77 106.56 159.46 107.07 C 159.12 107.62 162.50 107.98 167.69 107.96 C 175.92 107.92 176.30 107.83 173.43 106.58 C 171.74 105.85 168.72 103.51 166.72 101.39 C 163.87 98.36 163.39 97.36 164.50 96.74 C 166.10 95.84 178.00 106.33 178.00 108.65 C 178.00 109.39 178.44 110.00 178.98 110.00 C 180.17 110.00 191.00 122.98 191.00 124.41 C 191.00 124.97 188.58 123.04 185.62 120.12 C 181.99 116.53 180.00 115.19 179.50 116.00 C 179.05 116.73 180.82 119.28 184.10 122.60 C 188.99 127.55 189.23 128.00 186.97 127.98 C 185.38 127.96 182.62 126.15 179.25 122.91 Z  M 38.50 117.51 C 35.20 114.52 32.12 112.06 31.66 112.04 C 31.19 112.02 32.70 114.25 35.00 117.00 C 37.30 119.75 38.77 122.00 38.26 122.00 C 36.50 122.00 28.49 115.01 23.67 109.26 C 18.83 103.50 18.83 103.50 18.45 90.11 C 18.23 82.75 18.28 76.95 18.55 77.21 C 18.82 77.48 19.24 83.51 19.49 90.60 C 19.97 104.41 19.88 104.22 28.40 110.81 C 28.90 111.19 32.80 111.34 37.08 111.15 C 41.86 110.93 45.37 111.22 46.18 111.91 C 46.91 112.52 48.72 113.94 50.21 115.05 C 51.70 116.17 53.87 118.42 55.03 120.04 C 57.14 123.00 57.14 123.00 54.67 123.00 C 52.99 123.00 50.52 121.25 46.91 117.50 C 44.00 114.47 40.93 112.00 40.09 112.00 C 39.20 112.00 40.83 114.29 44.00 117.50 C 48.97 122.53 49.22 123.00 46.97 122.98 C 45.40 122.96 42.30 120.96 38.50 117.51 Z  M 54.00 116.03 C 48.44 110.94 47.84 110.08 49.84 110.04 C 52.64 109.99 59.89 115.00 62.90 119.07 C 65.06 122.00 65.06 122.00 62.78 121.98 C 61.41 121.97 57.91 119.60 54.00 116.03 Z  M 129.25 110.38 C 131.43 109.72 131.50 108.38 129.42 107.21 C 128.39 106.64 127.95 105.30 128.17 103.41 C 128.48 100.67 128.79 100.48 133.61 100.20 C 138.72 99.91 138.72 99.91 139.36 104.62 C 139.72 107.21 139.89 109.43 139.75 109.57 C 139.61 109.70 136.80 110.06 133.50 110.36 C 130.20 110.67 128.29 110.68 129.25 110.38 Z  M 137.88 105.25 C 137.82 103.19 137.56 102.28 137.31 103.23 C 136.90 104.81 136.63 104.78 134.03 102.86 C 132.47 101.71 130.59 100.99 129.85 101.26 C 129.00 101.58 129.52 102.17 131.26 102.86 C 132.78 103.47 134.54 105.09 135.17 106.48 C 136.83 110.12 138.02 109.58 137.88 105.25 Z  M 35.25 95.34 C 33.95 94.81 33.47 86.86 34.67 85.66 C 35.46 84.87 39.40 87.23 43.24 90.81 C 44.75 92.21 46.22 93.12 46.50 92.83 C 46.79 92.54 44.82 90.23 42.11 87.70 C 36.54 82.49 36.79 81.53 44.11 80.19 C 52.98 78.56 56.17 81.91 52.49 89.01 C 49.98 93.88 40.37 97.40 35.25 95.34 Z  M 39.31 92.75 C 38.19 91.51 36.78 89.60 36.17 88.50 C 35.17 86.70 35.06 86.83 35.03 89.75 C 35.01 92.18 35.44 93.00 36.75 93.02 C 38.25 93.03 38.28 93.17 37.00 94.00 C 35.84 94.75 36.17 94.97 38.42 94.98 C 41.35 95.00 41.35 95.00 39.31 92.75 Z  M 50.96 89.25 C 50.89 87.76 44.10 80.56 43.42 81.25 C 43.03 81.63 44.25 83.72 46.11 85.89 C 49.37 89.68 51.04 90.84 50.96 89.25 Z  M 170.50 80.00 C 167.50 76.96 166.15 74.95 167.04 74.88 C 167.84 74.82 167.15 74.46 165.50 74.10 C 163.05 73.55 163.99 73.22 170.54 72.27 C 181.61 70.67 183.79 69.72 184.18 66.30 C 184.50 63.50 184.50 63.50 190.25 69.06 C 194.12 72.80 196.00 75.40 196.00 77.02 C 196.00 79.20 195.48 78.92 190.52 74.02 C 187.51 71.05 184.76 68.91 184.40 69.26 C 184.05 69.62 186.06 72.49 188.88 75.65 C 194.43 81.89 194.94 83.00 192.22 83.00 C 190.44 83.00 181.00 74.46 181.00 72.85 C 181.00 72.38 180.32 72.00 179.50 72.00 C 177.23 72.00 177.60 72.77 182.63 78.35 C 189.00 85.44 185.93 85.96 178.39 79.08 C 171.16 72.46 167.83 72.22 174.29 78.78 C 176.88 81.42 179.00 83.89 179.00 84.28 C 179.00 86.48 174.79 84.36 170.50 80.00 Z  M 17.13 73.30 C 17.06 71.54 17.49 69.01 18.10 67.68 C 19.14 65.40 19.81 65.24 30.35 64.66 C 36.48 64.33 42.85 63.84 44.50 63.57 C 46.15 63.30 45.25 63.69 42.50 64.44 C 39.75 65.19 33.59 65.85 28.81 65.90 C 19.25 66.01 18.95 66.19 17.91 72.50 C 17.30 76.22 17.24 76.28 17.13 73.30 Z  M 153.67 63.33 C 152.75 62.41 152.82 52.00 153.75 51.98 C 155.99 51.92 167.95 49.96 169.35 49.42 C 170.79 48.87 171.00 49.74 171.00 56.39 C 171.00 64.00 171.00 64.00 162.67 64.00 C 158.08 64.00 154.03 63.70 153.67 63.33 Z  M 167.92 61.25 C 163.51 55.40 160.48 53.00 157.55 53.06 C 154.51 53.13 154.51 53.13 157.00 54.12 C 159.71 55.20 165.00 59.87 165.00 61.19 C 165.00 63.02 161.21 61.80 157.55 58.78 C 153.76 55.66 153.67 55.64 154.40 58.03 C 154.81 59.39 155.19 61.06 155.24 61.75 C 155.30 62.62 157.44 63.00 162.29 63.00 C 168.75 63.00 169.15 62.88 167.92 61.25 Z  M 170.00 56.00 C 170.00 51.67 169.73 51.00 168.00 51.00 C 165.64 51.00 165.53 51.80 167.53 54.44 C 168.34 55.51 169.00 57.42 169.00 58.69 C 169.00 59.96 169.22 61.00 169.50 61.00 C 169.78 61.00 170.00 58.75 170.00 56.00 Z  M 78.88 44.10 C 76.47 41.95 74.75 39.94 75.06 39.62 C 75.37 39.30 77.60 41.06 80.02 43.52 C 85.43 49.04 84.79 49.36 78.88 44.10 Z  M 148.00 40.50 C 144.61 37.00 144.61 37.00 147.27 37.00 C 148.79 37.00 151.37 38.26 153.28 39.94 C 156.02 42.35 157.73 42.96 162.57 43.26 C 167.52 43.56 167.09 43.65 159.95 43.81 C 151.39 44.00 151.39 44.00 148.00 40.50 Z  M 159.77 24.28 C 161.57 24.05 164.27 24.06 165.77 24.29 C 167.27 24.51 165.80 24.70 162.50 24.69 C 159.20 24.68 157.97 24.50 159.77 24.28 Z  M 150.52 17.52 C 147.74 15.14 146.32 14.48 145.79 15.31 C 145.31 16.06 145.02 15.69 145.02 14.32 C 145.01 13.12 144.29 11.44 143.43 10.57 C 140.69 7.83 143.39 8.88 147.23 12.04 C 150.33 14.60 155.85 21.08 154.82 20.96 C 154.64 20.94 152.71 19.39 150.52 17.52 Z  M 111.50 79.99 C 110.41 78.24 113.88 77.73 115.55 79.40 C 117.01 80.87 116.93 81.00 114.63 81.00 C 113.25 81.00 111.84 80.55 111.50 79.99 Z  M 99.64 66.79 C 98.88 63.94 98.81 57.00 99.54 57.00 C 100.14 57.00 100.72 57.44 106.25 62.07 C 108.31 63.79 110.00 65.61 110.00 66.10 C 110.00 67.81 107.14 66.99 104.08 64.41 C 101.00 61.82 101.00 61.82 101.00 64.24 C 101.00 65.58 101.56 66.75 102.25 66.86 C 114.43 68.75 116.00 68.10 116.00 61.10 C 116.00 56.85 115.78 56.42 113.50 56.23 C 110.48 55.98 110.41 56.44 113.00 59.73 C 115.04 62.32 115.65 65.00 114.20 65.00 C 113.75 65.00 111.87 63.42 110.00 61.50 C 107.99 59.42 105.57 57.96 104.05 57.90 C 101.97 57.82 102.24 57.57 105.50 56.55 C 107.70 55.86 111.21 54.98 113.29 54.59 C 117.09 53.89 117.09 53.89 116.79 61.20 C 116.50 68.50 116.50 68.50 108.38 68.79 C 100.64 69.06 100.22 68.97 99.64 66.79 Z  M 100.71 43.03 C 96.64 39.19 96.59 39.05 99.05 39.03 C 101.38 39.00 108.00 44.38 108.00 46.30 C 108.00 48.17 104.49 46.60 100.71 43.03 Z "/>
</g>
</svg>