<?xml version="1.0" encoding="UTF-8" standalone="no"?>
<!DOCTYPE svg PUBLIC "-//W3C//DTD SVG 1.1//EN" "http://www.w3.org/Graphics/SVG/1.1/DTD/svg11.dtd" >
<svg xmlns="http://www.w3.org/2000/svg" xmlns:xlink="http://www.w3.org/1999/xlink" version="1.1" viewBox="0 0 237 256">
 <g >
 <path fill="currentColor"
d=" M 172.50 213.91 C 192.32 212.36 203.86 208.68 204.84 203.61 C 206.01 197.53 202.13 191.10 194.87 187.08 C 190.50 184.67 190.50 184.67 196.25 190.76 C 204.31 199.29 203.44 200.72 195.10 192.66 C 191.30 189.00 187.36 185.95 186.35 185.88 C 185.33 185.82 185.85 185.44 187.50 185.05 C 193.50 183.64 176.97 182.69 155.50 183.23 C 142.33 183.56 136.36 183.43 139.50 182.90 C 157.45 179.81 161.00 178.25 161.00 173.43 C 161.00 169.80 157.00 161.74 153.23 157.75 C 151.80 156.24 148.46 154.19 145.81 153.20 C 140.99 151.40 140.99 151.40 148.39 149.23 C 152.46 148.03 157.18 145.87 158.89 144.44 C 161.76 142.02 162.00 141.35 161.96 135.66 C 161.94 132.22 161.30 128.40 160.50 127.00 C 159.71 125.62 159.05 124.04 159.04 123.47 C 159.02 122.91 162.10 121.64 165.89 120.67 C 169.69 119.69 173.51 118.09 174.39 117.12 C 177.54 113.64 175.73 107.55 169.33 100.08 C 165.80 95.94 165.80 95.94 170.62 86.42 C 174.69 78.38 175.50 75.83 175.83 70.03 C 176.48 58.49 170.85 48.98 158.68 41.02 C 155.29 38.81 151.84 37.00 151.01 37.01 C 150.18 37.01 150.85 37.71 152.50 38.57 C 155.96 40.36 171.00 55.38 171.00 57.04 C 171.00 57.65 169.12 56.55 166.83 54.58 C 164.53 52.62 162.45 51.22 162.19 51.48 C 161.94 51.73 164.26 54.68 167.36 58.03 C 171.26 62.24 173.00 64.93 173.00 66.77 C 173.00 69.37 172.92 69.34 168.50 65.00 C 166.03 62.57 164.00 60.00 164.00 59.29 C 164.00 58.58 163.59 58.00 163.09 58.00 C 162.59 58.00 161.86 56.09 161.47 53.75 C 160.18 45.97 156.61 41.54 149.13 38.41 C 143.92 36.23 142.03 36.58 141.38 39.85 C 140.81 42.70 140.81 42.70 125.92 43.37 C 117.73 43.74 109.83 43.74 108.36 43.38 C 106.49 42.91 105.91 43.05 106.41 43.85 C 106.89 44.63 105.98 45.00 103.56 45.00 C 101.60 45.00 100.00 44.55 100.00 44.00 C 100.00 43.45 99.16 43.00 98.12 43.00 C 97.09 43.00 95.68 42.32 95.00 41.50 C 94.32 40.67 93.06 40.00 92.20 40.00 C 91.01 40.00 91.20 40.58 93.00 42.50 C 94.29 43.87 95.12 45.21 94.85 45.48 C 94.17 46.16 88.00 43.73 88.00 42.78 C 88.00 42.35 87.33 42.00 86.50 42.00 C 84.70 42.00 84.57 43.17 86.18 44.78 C 86.83 45.43 87.05 46.28 86.67 46.67 C 86.28 47.05 85.43 46.83 84.78 46.18 C 84.13 45.53 82.51 45.00 81.18 45.00 C 79.14 45.00 78.95 45.24 80.00 46.50 C 81.02 47.72 80.96 48.00 79.68 48.00 C 74.45 48.00 79.68 54.75 86.71 57.07 C 88.53 57.67 89.76 58.57 89.45 59.08 C 88.81 60.11 90.32 60.35 91.30 59.37 C 91.65 59.02 96.11 58.55 101.21 58.33 C 106.32 58.11 112.94 57.55 115.92 57.09 C 118.91 56.63 121.83 56.61 122.42 57.06 C 127.07 60.57 133.00 66.50 133.00 67.63 C 133.00 70.14 130.90 69.05 125.09 63.50 C 117.55 56.32 114.94 56.35 122.03 63.54 C 126.50 68.06 127.23 69.25 126.00 70.02 C 124.30 71.09 98.48 71.33 89.18 70.36 C 83.06 69.72 83.06 69.72 77.34 62.25 C 66.56 48.17 52.90 40.73 46.60 45.50 C 42.68 48.47 46.38 68.39 54.67 88.87 C 57.61 96.12 58.92 100.53 58.21 100.76 C 56.07 101.48 50.68 105.51 49.65 107.18 C 47.66 110.38 55.25 120.94 61.41 123.53 C 64.50 124.83 64.50 124.83 61.50 125.49 C 59.85 125.84 57.49 126.55 56.25 127.05 C 47.81 130.46 64.58 152.63 77.13 154.64 C 82.20 155.45 82.05 156.58 76.75 157.42 C 74.41 157.80 70.59 159.22 68.25 160.59 C 64.40 162.85 64.00 163.45 64.00 167.01 C 64.00 170.00 64.77 171.82 67.25 174.69 C 72.68 180.96 75.31 182.97 79.75 184.22 C 82.09 184.88 84.00 185.71 84.00 186.07 C 84.00 186.43 78.71 187.05 72.25 187.45 C 60.62 188.17 46.41 189.99 36.25 192.07 C 31.11 193.12 31.00 193.21 31.00 196.68 C 31.00 198.63 31.97 201.95 33.15 204.06 C 36.58 210.16 45.62 213.25 65.00 214.94 C 76.48 215.94 156.28 215.18 172.50 213.91 Z  M 123.00 69.00 C 123.00 68.45 122.53 68.00 121.96 68.00 C 121.38 68.00 118.75 65.97 116.10 63.50 C 109.97 57.76 107.20 57.59 112.79 63.29 C 115.11 65.65 117.00 67.90 117.00 68.29 C 117.00 70.25 113.41 68.52 109.10 64.50 C 103.28 59.05 100.09 58.46 105.30 63.79 C 109.54 68.14 109.81 69.00 106.96 69.00 C 105.83 69.00 102.75 66.97 100.10 64.50 C 94.28 59.05 91.09 58.46 96.30 63.79 C 98.33 65.88 100.00 67.90 100.00 68.29 C 100.00 70.39 96.24 68.34 90.72 63.25 C 87.30 60.09 82.86 56.41 80.87 55.07 C 76.63 52.21 74.13 48.79 75.86 48.21 C 77.77 47.58 77.13 44.85 74.50 42.41 C 71.66 39.78 71.37 36.22 73.04 24.50 C 74.31 15.58 75.81 11.00 77.45 11.00 C 78.42 11.00 78.28 11.95 76.92 14.75 C 74.98 18.72 73.02 28.99 73.01 35.25 C 73.00 39.62 75.77 43.00 79.37 43.00 C 82.56 43.00 94.58 36.82 99.43 32.67 C 103.37 29.31 103.37 29.31 101.40 25.91 C 100.12 23.70 96.65 20.83 91.54 17.75 C 82.16 12.10 82.46 11.56 92.15 16.65 C 98.77 20.13 103.00 23.94 103.00 26.43 C 103.00 27.06 105.08 29.59 107.61 32.04 C 110.15 34.49 112.81 37.85 113.52 39.50 C 114.81 42.50 114.81 42.50 127.21 42.20 C 139.60 41.89 139.60 41.89 140.71 38.95 C 141.47 36.95 142.51 36.00 143.97 36.00 C 145.15 36.00 145.84 35.55 145.50 35.00 C 144.25 32.98 141.44 34.11 139.24 37.51 C 136.98 41.00 136.98 41.00 126.99 41.00 C 117.59 41.00 117.00 40.88 117.00 38.95 C 117.00 31.45 102.97 19.58 85.12 11.98 C 81.17 10.30 77.45 9.22 76.85 9.59 C 74.27 11.19 71.81 19.46 71.28 28.38 C 70.63 39.27 72.73 49.50 76.74 55.00 C 80.67 60.37 88.27 68.00 89.71 68.00 C 90.42 68.00 91.00 68.45 91.00 69.00 C 91.00 69.62 97.00 70.00 107.00 70.00 C 117.00 70.00 123.00 69.62 123.00 69.00 Z  M 104.00 43.30 C 104.00 41.95 98.60 37.00 97.12 37.00 C 96.13 37.00 96.78 38.21 99.00 40.50 C 102.23 43.83 104.00 44.83 104.00 43.30 Z  M 112.00 42.21 C 112.00 41.78 109.75 39.21 107.00 36.50 C 101.18 30.76 100.25 32.29 105.75 38.55 C 109.21 42.48 112.00 44.12 112.00 42.21 Z  M 71.50 211.81 C 70.40 211.19 66.96 208.50 63.86 205.84 C 60.76 203.18 57.91 201.00 57.52 201.00 C 57.13 201.00 58.94 203.36 61.54 206.25 C 65.34 210.48 65.92 211.57 64.51 211.85 C 62.85 212.18 52.00 202.58 52.00 200.78 C 52.00 200.35 74.84 200.01 102.75 200.02 C 130.66 200.02 152.95 200.38 152.27 200.81 C 151.41 201.36 152.38 203.11 155.60 206.79 C 159.69 211.47 159.93 212.00 157.94 212.00 C 156.68 212.00 153.02 209.63 149.46 206.50 C 146.01 203.47 142.87 201.00 142.47 201.00 C 142.08 201.00 143.83 203.43 146.37 206.40 C 150.19 210.87 150.70 211.90 149.32 212.43 C 147.49 213.13 141.99 208.41 139.21 203.75 C 137.57 201.00 137.57 201.00 99.53 201.04 C 64.70 201.07 61.79 201.21 65.00 202.59 C 68.47 204.09 76.00 210.67 76.00 212.20 C 76.00 213.33 73.86 213.14 71.50 211.81 Z  M 75.00 207.50 C 70.97 203.42 70.05 202.00 71.43 202.00 C 73.39 202.00 84.00 210.50 84.00 212.08 C 84.00 214.54 79.89 212.45 75.00 207.50 Z  M 83.00 207.50 C 78.15 202.59 77.82 202.00 79.93 202.00 C 82.27 202.00 93.00 210.27 93.00 212.08 C 93.00 212.58 91.97 213.00 90.72 213.00 C 89.27 213.00 86.43 210.98 83.00 207.50 Z  M 92.00 207.50 C 87.97 203.42 87.05 202.00 88.43 202.00 C 90.39 202.00 101.00 210.50 101.00 212.08 C 101.00 214.54 96.89 212.45 92.00 207.50 Z  M 100.00 207.50 C 95.22 202.66 94.85 202.00 96.87 202.00 C 99.14 202.00 110.00 210.38 110.00 212.12 C 110.00 212.60 108.97 213.00 107.72 213.00 C 106.27 213.00 103.43 210.98 100.00 207.50 Z  M 109.00 207.50 C 102.40 200.82 104.61 199.73 111.85 206.09 C 117.59 211.13 118.78 213.00 116.27 213.00 C 115.26 213.00 111.99 210.53 109.00 207.50 Z  M 117.00 207.50 C 112.21 202.65 111.84 202.00 113.88 202.00 C 116.08 202.00 124.59 208.57 126.30 211.59 C 126.89 212.63 126.49 213.00 124.77 213.00 C 123.26 213.00 120.50 211.04 117.00 207.50 Z  M 125.00 207.50 C 119.98 202.42 119.76 202.00 122.07 202.00 C 123.77 202.00 126.30 203.75 130.00 207.50 C 135.02 212.58 135.24 213.00 132.93 213.00 C 131.23 213.00 128.70 211.25 125.00 207.50 Z  M 134.11 207.75 C 129.18 202.95 128.91 202.47 131.01 202.16 C 132.70 201.91 134.77 203.29 138.89 207.41 C 144.01 212.53 144.27 213.00 141.99 213.00 C 140.34 212.99 137.68 211.22 134.11 207.75 Z  M 159.23 207.22 C 156.33 204.62 153.97 202.16 153.98 201.75 C 154.04 199.47 158.24 201.68 163.00 206.50 C 167.20 210.75 167.99 211.99 166.47 211.97 C 165.38 211.95 162.13 209.81 159.23 207.22 Z  M 167.08 207.18 C 163.72 204.21 161.93 201.92 162.38 201.19 C 162.89 200.37 162.09 199.96 159.81 199.87 C 157.99 199.79 160.32 199.34 165.00 198.85 C 175.96 197.72 184.44 195.53 188.16 192.88 C 189.79 191.73 191.23 190.94 191.37 191.14 C 191.50 191.34 193.99 194.06 196.89 197.19 C 201.25 201.88 201.99 203.19 201.14 204.69 C 200.23 206.30 199.47 205.83 194.08 200.31 C 186.73 192.77 185.13 193.51 192.04 201.25 C 194.77 204.32 197.00 207.09 197.00 207.41 C 197.00 209.32 193.44 207.29 188.37 202.50 C 185.17 199.47 182.43 197.00 182.27 197.00 C 181.10 197.00 182.69 199.55 186.50 203.79 C 188.97 206.54 191.00 209.07 191.00 209.40 C 191.00 211.49 186.47 209.21 181.26 204.50 C 177.53 201.12 174.28 199.00 172.84 199.00 C 170.62 199.01 170.65 199.10 173.50 200.88 C 175.15 201.92 178.28 204.62 180.45 206.88 C 183.82 210.39 184.11 211.00 182.37 211.00 C 181.26 211.00 177.54 208.47 174.13 205.38 C 170.71 202.28 167.71 199.95 167.47 200.19 C 167.23 200.44 169.31 203.19 172.10 206.32 C 176.70 211.48 176.95 212.00 174.83 211.99 C 173.48 211.98 170.22 209.96 167.08 207.18 Z  M 46.22 204.97 C 38.51 197.64 35.93 197.08 42.57 204.18 C 47.50 209.45 47.40 211.31 42.32 208.65 C 38.38 206.59 32.64 200.39 33.45 199.09 C 33.82 198.49 33.64 198.00 33.06 198.00 C 32.48 198.00 32.00 197.14 32.00 196.08 C 32.00 194.59 33.12 193.93 37.05 193.08 C 39.83 192.49 43.09 192.04 44.30 192.10 C 45.51 192.15 43.69 192.75 40.25 193.43 C 31.12 195.23 30.52 196.60 38.21 198.08 C 40.57 198.54 44.52 198.99 47.00 199.07 C 51.14 199.22 51.26 199.30 48.50 200.00 C 46.85 200.42 46.00 200.82 46.61 200.88 C 48.10 201.04 57.00 208.93 57.00 210.08 C 57.00 210.59 55.99 210.98 54.75 210.97 C 53.40 210.94 49.99 208.54 46.22 204.97 Z  M 47.08 191.62 C 47.72 191.03 65.83 189.12 81.98 187.94 C 91.00 187.28 96.74 186.43 97.21 185.69 C 97.73 184.88 97.97 185.03 97.98 186.16 C 98.00 187.54 96.50 187.93 89.25 188.43 C 84.44 188.77 73.30 189.71 64.50 190.53 C 47.20 192.14 46.46 192.19 47.08 191.62 Z  M 115.51 184.25 C 115.91 182.74 116.53 179.03 116.87 176.01 C 117.50 170.52 117.50 170.52 124.00 169.19 C 127.58 168.46 134.04 166.98 138.36 165.89 C 146.23 163.93 146.23 163.93 151.57 169.71 C 154.51 172.90 156.93 175.84 156.95 176.25 C 157.06 178.00 154.38 176.72 149.61 172.73 C 141.19 165.70 140.33 165.24 143.66 169.50 C 145.38 171.70 147.72 174.35 148.87 175.38 C 151.04 177.35 150.87 179.00 148.50 179.00 C 147.74 179.00 144.44 176.53 141.17 173.50 C 137.91 170.47 134.62 168.01 133.87 168.01 C 133.11 168.02 134.10 169.49 136.05 171.26 C 138.01 173.04 140.67 175.74 141.98 177.25 C 144.18 179.81 144.21 180.00 142.42 180.00 C 141.37 179.99 137.69 177.48 134.25 174.42 C 129.86 170.50 128.00 169.35 128.00 170.55 C 128.00 172.30 134.40 179.00 136.07 179.00 C 136.58 179.00 137.00 179.45 137.00 180.00 C 137.00 180.55 135.88 181.00 134.52 181.00 C 131.39 181.00 122.43 172.74 123.56 170.90 C 124.10 170.02 123.82 169.86 122.58 170.33 C 121.62 170.70 120.42 171.00 119.92 171.00 C 119.41 171.00 119.01 172.01 119.02 173.25 C 119.02 174.66 119.31 175.06 119.79 174.30 C 120.32 173.48 122.22 174.58 125.95 177.87 C 129.20 180.73 131.06 183.09 130.63 183.79 C 130.11 184.64 133.69 185.03 144.21 185.25 C 158.50 185.56 158.50 185.56 143.31 185.78 C 128.12 186.00 128.12 186.00 123.90 181.00 C 121.58 178.25 119.31 176.00 118.84 176.00 C 116.92 176.00 118.22 179.23 121.25 181.98 C 123.83 184.33 124.13 184.95 122.68 184.97 C 121.69 184.99 120.00 184.53 118.93 183.96 C 117.43 183.16 117.00 183.26 117.00 184.41 C 117.00 185.49 118.44 186.00 122.25 186.26 C 127.49 186.63 127.49 186.63 121.14 186.82 C 114.78 187.00 114.78 187.00 115.51 184.25 Z  M 164.79 184.26 C 168.25 184.06 173.65 184.06 176.79 184.26 C 179.93 184.46 177.10 184.62 170.50 184.62 C 163.90 184.62 161.33 184.45 164.79 184.26 Z  M 85.00 183.27 C 84.17 182.95 80.41 179.83 76.63 176.34 C 68.68 169.01 65.46 167.80 72.04 174.62 C 74.61 177.29 75.58 178.77 74.32 178.12 C 71.47 176.66 65.00 168.74 65.00 166.72 C 65.00 165.04 69.52 161.00 71.38 161.00 C 72.00 161.01 71.04 161.90 69.25 162.99 C 67.46 164.08 66.00 165.60 66.00 166.36 C 66.00 169.17 77.89 171.98 89.75 171.99 C 95.96 172.00 96.56 172.37 95.38 175.44 C 94.89 176.74 94.48 176.81 93.29 175.82 C 92.00 174.75 92.05 174.50 93.65 173.87 C 94.93 173.37 94.27 173.12 91.55 173.07 C 87.61 173.00 87.61 173.00 91.00 176.50 C 92.87 178.43 94.98 180.00 95.70 180.00 C 96.41 180.00 97.00 180.90 97.00 182.00 C 97.00 185.44 94.07 184.24 87.26 178.00 C 82.68 173.80 79.93 172.01 78.11 172.04 C 75.50 172.08 75.50 172.08 78.50 173.66 C 84.06 176.59 90.87 184.11 87.79 183.92 C 87.08 183.88 85.83 183.58 85.00 183.27 Z  M 156.34 171.75 C 155.91 171.06 155.69 169.49 155.85 168.25 C 156.16 165.83 153.29 163.91 152.15 165.76 C 150.95 167.70 147.36 163.60 146.70 159.55 C 146.07 155.64 146.07 155.64 151.11 160.57 C 155.94 165.29 159.00 169.70 159.00 171.95 C 159.00 173.40 157.29 173.27 156.34 171.75 Z  M 76.00 159.72 C 76.00 159.29 84.79 157.04 92.75 155.42 C 96.11 154.74 95.52 152.93 90.22 147.71 C 83.71 141.31 82.70 141.76 88.46 148.50 C 92.77 153.55 92.97 154.00 90.83 153.95 C 89.42 153.92 85.94 151.55 82.02 147.95 C 75.54 142.00 75.54 142.00 81.24 142.00 C 85.08 142.00 88.43 142.72 91.47 144.20 C 95.90 146.35 96.00 146.50 96.00 151.18 C 96.00 155.33 95.70 156.02 93.75 156.43 C 92.51 156.69 89.03 157.40 86.02 157.99 C 83.00 158.59 79.51 159.33 78.27 159.65 C 77.02 159.96 76.00 159.99 76.00 159.72 Z  M 131.75 154.25 C 120.00 153.94 120.00 153.94 120.00 146.38 C 120.00 142.23 120.39 138.98 120.87 139.17 C 121.99 139.60 132.00 150.59 132.00 151.39 C 132.00 153.03 128.04 151.66 124.60 148.82 C 121.57 146.32 120.98 146.09 121.87 147.76 C 122.50 148.93 123.57 150.23 124.25 150.65 C 125.08 151.17 124.68 151.64 122.99 152.11 C 121.62 152.49 125.54 152.85 131.69 152.90 C 137.96 152.96 143.15 153.44 143.50 154.00 C 143.84 154.55 143.98 154.90 143.81 154.78 C 143.64 154.67 138.21 154.43 131.75 154.25 Z  M 78.37 152.08 C 75.58 150.38 71.79 146.12 69.50 142.11 C 68.18 139.79 74.62 144.02 80.33 149.20 C 84.39 152.90 85.07 153.92 83.50 153.95 C 82.40 153.97 80.09 153.13 78.37 152.08 Z  M 67.00 146.64 C 59.43 141.07 57.98 138.20 63.43 139.57 C 64.89 139.94 65.84 140.50 65.52 140.81 C 65.21 141.12 66.86 143.32 69.19 145.69 C 74.22 150.82 73.25 151.24 67.00 146.64 Z  M 128.89 143.93 C 124.27 139.54 123.12 137.99 124.75 138.34 C 125.99 138.60 126.75 138.41 126.44 137.91 C 126.13 137.41 126.47 137.01 127.19 137.02 C 127.91 137.04 130.85 139.69 133.73 142.92 C 137.83 147.53 138.62 148.93 137.40 149.40 C 136.54 149.73 135.71 150.00 135.55 150.00 C 135.40 150.00 132.40 147.27 128.89 143.93 Z  M 135.58 142.90 C 129.77 137.59 128.58 135.40 132.00 136.29 C 133.10 136.58 133.75 136.41 133.44 135.91 C 133.13 135.41 133.58 135.00 134.44 135.00 C 135.30 135.00 136.00 135.40 136.00 135.89 C 136.00 136.38 138.03 139.04 140.50 141.79 C 142.97 144.54 145.00 147.07 145.00 147.40 C 145.00 149.48 140.35 147.26 135.58 142.90 Z  M 142.30 140.43 C 139.11 137.37 137.00 134.66 137.62 134.40 C 138.23 134.13 140.71 132.93 143.12 131.71 C 147.30 129.60 147.51 129.27 147.81 124.63 C 148.28 117.18 148.45 117.28 137.86 118.22 C 110.41 120.64 69.25 125.98 58.50 128.51 C 57.40 128.77 57.85 128.34 59.50 127.55 C 61.15 126.76 64.53 125.83 67.00 125.48 C 74.35 124.45 74.40 124.39 71.32 120.35 C 69.78 118.33 67.16 115.85 65.51 114.84 C 62.50 113.01 62.50 113.01 65.81 113.00 C 67.69 113.00 68.86 113.42 68.52 113.97 C 68.19 114.50 69.63 115.65 71.71 116.52 C 73.79 117.39 76.73 119.29 78.24 120.73 C 79.75 122.17 81.22 123.12 81.51 122.82 C 81.80 122.53 80.02 120.43 77.54 118.15 C 73.04 114.00 73.04 114.00 80.44 114.00 C 84.51 114.00 87.98 114.34 88.17 114.75 C 88.59 115.71 95.66 121.00 96.51 121.00 C 96.86 121.00 96.23 119.83 95.10 118.40 C 93.35 116.17 93.26 115.60 94.46 114.40 C 96.81 112.05 102.65 112.67 105.98 115.64 C 107.61 117.09 108.71 118.67 108.41 119.14 C 108.12 119.61 108.81 120.00 109.94 120.00 C 112.30 120.00 112.59 118.74 110.69 116.82 C 109.98 116.09 109.09 114.71 108.73 113.75 C 107.64 110.90 114.54 111.57 121.50 115.00 C 124.80 116.63 128.18 117.93 129.00 117.90 C 130.33 117.85 130.33 117.78 129.00 117.30 C 128.18 117.00 126.38 115.73 125.00 114.47 C 123.62 113.22 121.60 111.98 120.50 111.71 C 119.30 111.43 119.92 111.19 122.04 111.12 C 124.62 111.03 126.51 111.80 129.04 113.96 C 131.67 116.21 133.46 116.90 136.50 116.86 C 140.36 116.80 140.39 116.77 137.43 116.06 C 135.74 115.66 132.88 114.24 131.08 112.91 C 127.80 110.50 127.80 110.50 130.54 110.17 C 132.05 109.99 133.56 110.25 133.89 110.74 C 134.23 111.24 135.18 111.94 136.00 112.31 C 136.82 112.67 138.62 113.74 140.00 114.68 C 141.87 115.96 141.64 115.46 139.05 112.69 C 135.73 109.13 135.69 109.00 137.96 109.00 C 140.41 109.00 147.55 113.78 146.57 114.76 C 146.26 115.07 146.97 115.81 148.14 116.41 C 150.85 117.80 159.54 128.79 158.64 129.69 C 158.27 130.06 156.18 128.63 154.00 126.50 C 147.83 120.48 148.23 123.06 154.52 129.85 C 158.57 134.22 160.06 136.57 159.82 138.21 C 159.53 140.32 159.05 140.08 153.75 135.10 C 146.85 128.63 146.08 130.04 152.67 137.08 C 156.37 141.04 157.08 142.32 156.09 143.28 C 155.10 144.25 153.70 143.28 149.40 138.68 C 146.40 135.47 143.41 133.03 142.75 133.25 C 142.07 133.48 143.80 136.02 146.78 139.17 C 149.65 142.21 152.00 144.99 152.00 145.35 C 152.00 147.60 147.25 145.19 142.30 140.43 Z  M 91.00 121.92 C 94.50 121.82 94.50 121.82 91.44 120.93 C 89.76 120.44 87.32 118.91 86.02 117.52 C 82.31 113.58 80.22 114.29 83.38 118.43 C 85.17 120.78 85.60 121.99 84.75 122.28 C 84.06 122.52 84.40 122.56 85.50 122.37 C 86.60 122.18 89.08 121.98 91.00 121.92 Z  M 104.00 120.19 C 104.00 119.00 98.11 113.55 97.50 114.17 C 97.21 114.46 97.88 115.85 98.99 117.26 C 100.47 119.14 100.67 119.97 99.76 120.34 C 99.07 120.61 99.74 120.88 101.25 120.92 C 102.76 120.96 104.00 120.63 104.00 120.19 Z  M 117.50 116.00 C 113.82 112.16 112.62 112.16 114.80 115.99 C 115.76 117.70 117.34 118.99 118.44 118.99 C 120.14 119.00 120.03 118.64 117.50 116.00 Z  M 59.05 116.75 C 54.63 112.76 51.01 109.01 51.01 108.40 C 51.00 107.80 51.80 106.58 52.79 105.69 C 55.14 103.56 62.00 100.72 62.00 101.88 C 62.00 102.38 60.76 103.09 59.25 103.46 C 52.61 105.09 49.74 109.39 54.49 110.59 C 55.86 110.93 56.74 111.61 56.44 112.09 C 56.14 112.57 57.39 112.71 59.20 112.40 C 61.31 112.04 62.04 112.16 61.23 112.74 C 60.28 113.41 60.84 114.28 63.41 116.11 C 65.32 117.46 67.84 119.79 69.01 121.29 C 71.13 123.98 71.13 124.00 69.11 124.00 C 67.99 124.00 63.47 120.74 59.05 116.75 Z  M 149.04 113.79 C 144.46 109.44 143.26 107.83 144.91 108.27 C 146.18 108.60 147.97 108.48 148.87 107.99 C 149.76 107.50 152.87 106.37 155.76 105.47 C 162.46 103.38 164.10 100.80 160.90 97.39 C 156.86 93.09 153.36 92.71 128.96 93.91 C 116.60 94.51 100.65 95.67 93.50 96.48 C 75.25 98.56 77.00 99.09 77.00 91.50 C 77.00 85.00 77.00 85.00 88.00 85.00 C 94.67 85.00 99.00 85.39 99.00 86.00 C 99.00 86.55 99.69 87.00 100.54 87.00 C 102.56 87.00 106.69 89.75 107.38 91.56 C 108.41 94.24 104.30 93.09 100.00 89.50 C 97.70 87.58 95.63 86.00 95.41 86.00 C 94.49 86.00 95.16 87.11 98.10 90.47 C 100.86 93.61 101.75 94.00 106.10 94.00 C 108.80 94.00 111.00 93.68 111.00 93.29 C 111.00 92.90 109.35 90.89 107.33 88.83 C 104.04 85.45 103.85 84.99 105.52 84.35 C 106.64 83.93 107.54 84.11 107.77 84.82 C 107.99 85.47 108.69 86.01 109.33 86.03 C 110.88 86.07 116.00 90.62 116.00 91.95 C 116.00 92.53 117.69 92.98 119.75 92.96 C 123.50 92.92 123.50 92.92 120.50 91.58 C 117.37 90.18 111.00 84.84 111.00 83.62 C 111.00 83.23 111.56 83.01 112.25 83.13 C 114.58 83.53 122.03 79.78 124.15 77.13 C 125.63 75.30 126.42 74.91 126.75 75.83 C 127.01 76.56 129.47 79.86 132.22 83.17 C 136.02 87.74 136.94 89.46 136.06 90.34 C 135.17 91.22 133.56 90.12 129.36 85.75 C 124.30 80.49 121.86 78.81 122.09 80.75 C 122.14 81.16 124.83 83.86 128.08 86.75 C 133.98 92.00 133.98 92.00 143.95 92.00 C 153.91 92.00 153.91 92.00 151.41 89.50 C 150.03 88.12 148.48 87.00 147.95 87.00 C 146.55 87.00 146.79 89.75 148.25 90.34 C 148.94 90.62 148.09 90.88 146.36 90.92 C 144.55 90.97 142.99 90.41 142.69 89.62 C 142.37 88.79 142.78 88.30 143.73 88.37 C 145.17 88.49 151.10 82.06 155.16 75.99 C 156.82 73.50 156.82 73.50 162.41 78.97 C 167.38 83.82 169.57 88.00 167.15 88.00 C 166.67 88.00 163.95 85.53 161.09 82.50 C 158.23 79.47 155.69 77.00 155.44 77.00 C 153.87 77.00 155.69 80.04 160.00 84.59 C 162.75 87.50 165.00 90.33 165.00 90.88 C 165.00 93.76 162.24 92.68 157.43 87.93 C 154.47 85.01 151.74 82.92 151.37 83.30 C 150.76 83.91 153.13 86.74 164.95 99.50 C 173.42 108.64 176.25 114.61 168.52 107.02 C 166.06 104.60 163.72 102.95 163.33 103.34 C 162.94 103.73 164.95 106.41 167.81 109.31 C 170.66 112.20 173.00 114.89 173.00 115.28 C 173.00 117.48 168.80 115.36 164.50 111.00 C 160.07 106.51 157.00 104.75 157.00 106.72 C 157.00 107.11 159.35 109.81 162.22 112.72 C 166.99 117.55 167.23 118.00 165.00 118.00 C 163.41 118.00 160.74 116.20 157.31 112.81 C 154.41 109.95 151.73 107.94 151.34 108.33 C 150.94 108.72 152.73 111.19 155.31 113.81 C 157.89 116.43 160.00 118.89 160.00 119.28 C 160.00 119.68 158.99 119.98 157.75 119.97 C 156.39 119.94 152.94 117.49 149.04 113.79 Z  M 80.20 95.80 C 79.54 95.14 79.00 93.31 79.00 91.72 C 79.00 88.85 79.00 88.85 81.94 91.17 C 83.56 92.45 84.91 94.06 84.94 94.75 C 84.98 95.44 85.99 96.00 87.20 96.00 C 89.19 96.00 89.01 95.60 85.45 91.92 C 83.28 89.68 80.71 87.41 79.75 86.89 C 78.18 86.03 78.00 86.50 78.00 91.46 C 78.00 96.01 78.30 97.00 79.70 97.00 C 81.02 97.00 81.13 96.73 80.20 95.80 Z  M 95.50 93.16 C 93.85 92.15 91.86 90.55 91.08 89.61 C 89.57 87.78 86.00 85.57 86.00 86.46 C 86.00 86.75 87.63 88.80 89.62 91.00 C 92.10 93.74 94.06 95.00 95.87 95.00 C 98.50 94.99 98.50 94.99 95.50 93.16 Z  M 122.77 87.30 C 120.19 84.71 117.75 82.92 117.35 83.32 C 116.38 84.29 124.01 92.00 125.94 92.00 C 126.87 92.00 125.62 90.15 122.77 87.30 Z  M 57.59 92.57 C 55.46 87.45 50.35 71.20 49.56 67.00 C 49.20 65.08 51.37 70.69 54.39 79.48 C 57.40 88.27 59.70 95.63 59.49 95.84 C 59.29 96.05 58.43 94.57 57.59 92.57 Z  M 140.64 84.79 C 140.30 83.53 140.08 80.92 140.14 79.00 C 140.22 76.33 140.44 76.80 141.05 81.00 C 141.88 86.77 141.68 88.67 140.64 84.79 Z  M 131.69 79.19 C 127.64 75.04 126.94 73.36 129.93 74.96 C 132.02 76.08 136.49 81.85 135.79 82.54 C 135.56 82.77 133.71 81.27 131.69 79.19 Z  M 164.50 78.00 C 162.36 75.81 159.82 73.76 158.86 73.45 C 157.22 72.93 157.23 72.63 159.06 68.37 C 160.13 65.87 161.00 63.10 161.00 62.20 C 161.00 61.16 163.20 62.74 167.00 66.50 C 170.30 69.77 173.00 73.24 173.00 74.22 C 173.00 76.83 172.22 76.48 166.90 71.50 C 159.88 64.94 158.56 65.99 165.28 72.78 C 170.73 78.29 172.51 82.00 169.70 82.00 C 168.99 82.00 166.65 80.20 164.50 78.00 Z  M 133.75 75.47 C 130.33 72.52 130.28 71.22 133.55 70.40 C 136.81 69.58 137.20 70.04 136.82 74.32 C 136.50 77.85 136.50 77.85 133.75 75.47 Z  M 72.59 68.05 C 71.05 64.13 68.21 58.58 66.28 55.71 C 62.76 50.50 62.76 50.50 70.35 57.95 C 74.53 62.04 77.73 65.61 77.47 65.87 C 77.21 66.13 75.87 65.29 74.50 64.00 C 70.73 60.46 71.50 63.06 75.66 67.92 C 79.32 72.19 79.32 72.19 84.91 71.61 C 90.50 71.03 90.50 71.03 85.50 72.51 C 74.76 75.68 75.71 76.01 72.59 68.05 Z  M 139.17 66.00 C 139.06 60.74 138.61 57.07 138.17 57.77 C 137.57 58.70 136.67 58.26 134.75 56.10 C 132.61 53.71 132.41 53.06 133.64 52.58 C 134.47 52.27 135.88 52.74 136.78 53.64 C 137.98 54.84 138.52 54.94 138.83 54.02 C 139.06 53.33 138.70 52.43 138.04 52.02 C 137.17 51.49 137.32 51.09 138.56 50.62 C 139.51 50.25 140.33 50.08 140.39 50.23 C 140.45 50.38 140.25 56.12 139.94 63.00 C 139.38 75.50 139.38 75.50 139.17 66.00 Z  M 131.09 61.50 C 128.23 58.48 125.35 55.96 124.69 55.91 C 124.04 55.87 124.79 55.44 126.37 54.97 C 128.90 54.21 129.75 54.59 133.62 58.22 C 136.37 60.80 138.00 63.19 138.00 64.66 C 138.00 65.95 137.62 67.00 137.15 67.00 C 136.67 67.00 133.95 64.53 131.09 61.50 Z "/>
</g>
</svg>