<?xml version="1.0" encoding="UTF-8" standalone="no"?>
<!DOCTYPE svg PUBLIC "-//W3C//DTD SVG 1.1//EN" "http://www.w3.org/Graphics/SVG/1.1/DTD/svg11.dtd" >
<svg xmlns="http://www.w3.org/2000/svg" xmlns:xlink="http://www.w3.org/1999/xlink" version="1.1" viewBox="0 0 237 256">
 <g >
 <path fill="currentColor"
d=" M 207.12 203.12 C 210.11 200.13 210.99 198.46 210.98 195.87 C 210.92 187.70 203.50 178.49 190.12 169.99 C 186.23 167.52 183.04 165.27 183.03 164.98 C 183.01 164.69 185.02 161.77 187.49 158.48 C 194.43 149.25 197.45 142.94 196.59 139.49 C 195.85 136.57 190.01 130.18 184.53 126.30 C 181.56 124.21 181.56 124.21 188.25 117.12 C 200.10 104.55 200.24 103.61 191.48 94.16 C 185.96 88.19 178.97 83.96 174.76 84.04 C 173.10 84.08 173.48 84.44 176.22 85.42 C 180.31 86.88 185.48 91.05 191.25 97.57 C 196.55 103.55 195.90 104.12 190.04 98.64 C 182.91 91.96 181.79 92.93 188.39 100.06 C 191.48 103.39 194.00 106.51 194.00 107.00 C 194.00 109.67 191.28 108.61 186.50 104.09 C 183.54 101.29 180.36 99.00 179.42 99.00 C 178.36 99.00 180.10 101.20 184.11 104.91 C 189.29 109.70 190.26 111.07 189.24 112.12 C 188.22 113.17 187.00 112.45 182.71 108.21 C 178.11 103.66 175.00 101.78 175.00 103.54 C 175.00 103.84 177.59 106.51 180.75 109.47 C 185.40 113.81 186.26 115.09 185.24 116.13 C 184.22 117.17 182.99 116.43 178.71 112.21 C 171.55 105.13 169.59 105.60 175.90 112.89 C 178.71 116.12 181.00 119.27 181.00 119.89 C 181.00 122.58 176.81 120.58 172.56 115.86 C 170.02 113.03 167.64 111.03 167.27 111.40 C 166.90 111.77 172.76 118.25 180.30 125.80 C 189.73 135.24 194.00 140.22 194.00 141.76 C 194.00 144.92 192.96 144.58 188.45 139.92 C 184.57 135.92 181.00 133.34 181.00 134.54 C 181.00 134.87 183.55 137.83 186.68 141.10 C 191.05 145.68 192.08 147.32 191.17 148.23 C 190.26 149.14 188.72 148.17 184.50 144.00 C 180.96 140.50 178.67 138.93 178.05 139.55 C 177.42 140.18 179.19 142.27 183.04 145.45 C 189.17 150.51 189.69 151.42 187.96 154.00 C 187.14 155.23 185.89 154.38 181.02 149.27 C 177.76 145.85 174.82 143.49 174.48 144.03 C 174.15 144.57 176.38 147.64 179.44 150.85 C 184.79 156.46 186.19 159.00 183.94 159.00 C 183.36 159.00 180.43 156.68 177.43 153.84 C 174.43 151.01 171.71 148.96 171.37 149.29 C 171.04 149.62 173.15 152.63 176.06 155.97 C 180.04 160.55 181.06 162.34 180.20 163.20 C 179.33 164.07 177.65 162.95 173.37 158.68 C 167.57 152.87 166.00 151.96 166.00 154.37 C 166.00 155.12 167.76 156.90 169.92 158.33 C 172.08 159.76 174.13 161.84 174.49 162.96 C 174.84 164.08 175.93 165.00 176.91 165.00 C 180.92 165.00 191.01 171.25 196.40 177.06 C 202.32 183.46 208.94 192.50 207.25 191.88 C 204.79 190.97 197.21 182.98 196.64 180.69 C 195.75 177.14 187.96 170.62 181.45 167.98 C 176.15 165.83 175.87 165.81 173.97 167.53 C 171.38 169.87 171.49 173.37 174.35 179.51 C 176.77 184.70 182.93 191.00 185.59 191.00 C 186.43 191.00 186.83 191.47 186.48 192.04 C 186.05 192.72 186.81 192.85 188.67 192.42 C 191.37 191.79 192.45 190.87 195.51 186.63 C 196.77 184.87 197.21 185.13 202.39 190.63 C 207.43 195.97 209.44 200.00 207.08 200.00 C 206.57 200.00 203.63 197.69 200.55 194.87 C 197.46 192.05 194.70 189.97 194.41 190.25 C 194.13 190.54 196.40 193.47 199.45 196.78 C 203.61 201.27 204.64 202.93 203.52 203.35 C 202.59 203.71 199.76 201.82 195.99 198.33 C 188.89 191.76 186.95 191.82 193.04 198.42 C 198.35 204.18 196.94 204.27 189.30 198.64 C 182.24 193.44 178.21 188.74 173.93 180.71 C 171.30 175.78 170.83 173.96 171.23 170.13 C 171.69 165.69 171.52 165.34 167.33 161.60 C 161.62 156.51 160.68 157.61 165.91 163.29 C 169.69 167.39 171.20 171.00 169.14 171.00 C 168.66 171.00 166.17 168.75 163.60 166.00 C 161.02 163.25 158.49 161.00 157.96 161.00 C 156.84 161.00 156.63 163.99 157.75 164.02 C 158.16 164.03 160.75 166.02 163.50 168.45 C 168.34 172.72 168.44 172.91 166.67 174.68 C 164.89 176.44 164.65 176.30 158.92 170.11 C 155.63 166.57 153.00 164.42 153.00 165.28 C 153.00 166.14 155.26 169.32 158.03 172.34 C 160.97 175.56 162.62 178.11 162.01 178.49 C 160.87 179.20 154.12 174.24 151.25 170.59 C 150.12 169.16 148.84 168.53 147.79 168.91 C 146.50 169.37 147.41 170.52 151.81 174.03 C 157.14 178.27 159.04 181.82 156.44 182.69 C 155.86 182.88 152.60 180.52 149.19 177.44 C 145.79 174.35 143.00 172.23 143.00 172.72 C 143.00 173.20 145.26 176.13 148.02 179.23 C 151.12 182.71 152.62 185.12 151.94 185.53 C 150.87 186.20 149.22 184.99 141.75 178.07 C 136.41 173.13 137.11 175.60 142.87 182.06 C 146.66 186.32 147.46 187.78 146.50 188.67 C 145.56 189.56 143.84 188.50 139.09 184.08 C 135.69 180.93 132.72 178.64 132.49 179.01 C 132.27 179.38 134.29 182.07 137.00 185.00 C 140.14 188.40 141.65 190.80 141.18 191.64 C 140.65 192.58 138.78 191.37 134.47 187.30 C 131.19 184.20 128.05 181.77 127.50 181.91 C 125.88 182.32 126.92 181.56 138.68 173.71 C 151.82 164.93 162.65 156.25 169.23 149.19 C 174.97 143.05 182.00 132.38 182.00 129.83 C 182.00 127.86 177.19 124.39 173.00 123.33 C 171.62 122.98 168.98 120.93 167.12 118.78 C 164.97 116.30 163.38 115.22 162.78 115.82 C 162.17 116.43 163.08 117.97 165.27 120.06 C 170.73 125.26 169.80 126.72 145.86 150.47 C 134.38 161.87 123.40 173.11 121.47 175.47 C 117.53 180.29 117.57 183.40 121.57 182.39 C 123.10 182.01 125.18 182.57 127.43 183.96 C 131.75 186.63 137.45 193.61 136.02 194.48 C 134.91 195.18 125.47 187.67 124.60 185.40 C 124.30 184.63 123.01 184.00 121.73 184.00 C 119.23 184.00 117.00 182.32 117.00 180.44 C 117.00 178.84 121.53 173.26 132.16 161.74 C 141.18 151.97 141.18 151.97 136.09 146.41 C 133.29 143.34 131.01 140.54 131.01 140.17 C 131.02 139.80 132.63 138.46 134.60 137.18 C 137.63 135.22 138.36 135.08 139.34 136.28 C 139.98 137.05 141.94 138.67 143.69 139.87 C 145.45 141.07 147.16 142.94 147.51 144.03 C 147.85 145.11 148.55 146.00 149.07 146.00 C 151.18 146.00 149.72 143.28 145.07 138.53 C 140.13 133.50 140.13 133.50 142.57 131.70 C 144.00 130.64 145.00 130.37 145.00 131.05 C 145.00 132.41 152.17 141.90 153.25 141.96 C 155.02 142.06 153.72 139.42 150.00 135.38 C 147.80 133.00 146.00 130.62 146.00 130.11 C 146.00 129.60 147.38 128.02 149.07 126.60 C 152.13 124.02 152.13 124.02 156.64 128.26 C 159.12 130.59 161.57 132.65 162.08 132.83 C 164.22 133.61 162.70 131.12 158.51 127.01 C 154.03 122.61 154.03 122.61 168.51 107.92 C 176.48 99.84 183.00 92.55 183.00 91.73 C 183.00 89.83 175.09 86.04 170.76 85.86 C 168.51 85.77 168.18 85.60 169.69 85.30 C 170.98 85.05 171.68 84.34 171.39 83.59 C 171.01 82.59 173.75 82.16 183.20 81.70 C 204.96 80.64 216.06 75.53 215.97 66.62 C 215.93 62.85 211.62 56.33 207.19 53.35 C 203.48 50.85 192.18 49.55 179.34 50.14 C 171.50 50.50 171.50 50.50 171.84 44.31 C 172.14 38.71 171.87 37.68 169.01 33.51 C 162.74 24.41 150.13 18.00 138.47 18.00 C 134.23 18.00 132.54 18.52 130.13 20.54 C 124.42 25.35 124.92 27.58 134.46 39.78 C 137.79 44.04 142.00 48.09 144.76 49.71 C 149.44 52.45 149.44 52.45 136.97 54.20 C 130.11 55.16 120.76 56.69 116.18 57.60 C 107.86 59.24 107.86 59.24 103.01 53.81 C 97.69 47.83 88.84 42.59 82.50 41.65 C 79.14 41.16 79.49 41.42 84.72 43.28 C 91.73 45.78 92.24 46.16 100.34 54.96 C 106.18 61.30 106.18 61.30 111.16 60.15 C 119.17 58.30 119.13 58.94 111.10 61.31 C 104.38 63.30 100.60 65.93 102.18 67.51 C 103.35 68.68 115.57 69.96 125.75 69.98 C 131.47 69.99 136.00 70.42 136.00 70.94 C 136.00 72.39 134.22 73.16 133.51 72.02 C 133.14 71.42 127.88 71.00 120.73 71.00 C 108.58 71.00 108.58 71.00 113.50 76.00 C 117.45 80.01 118.03 81.00 116.43 81.00 C 111.88 81.00 100.00 70.02 100.00 65.82 C 100.00 63.78 100.39 63.21 101.50 63.64 C 103.20 64.29 103.56 62.47 101.93 61.46 C 101.34 61.09 100.47 59.83 99.99 58.65 C 99.38 57.13 99.11 58.59 99.06 63.67 C 99.00 70.83 99.00 70.83 104.61 76.22 C 108.46 79.92 110.10 82.22 109.84 83.56 C 109.52 85.23 108.73 84.81 104.23 80.61 C 97.34 74.18 97.52 76.41 104.50 84.00 C 107.53 87.29 110.00 90.89 110.00 91.99 C 110.00 93.10 109.75 94.00 109.44 94.00 C 109.13 94.00 106.43 91.68 103.44 88.85 C 98.00 83.71 98.00 83.71 98.00 88.89 C 98.00 93.85 98.25 94.33 103.80 100.04 C 106.99 103.32 109.23 106.37 108.79 106.81 C 107.78 107.82 111.45 118.73 113.58 121.09 C 115.17 122.84 126.00 124.29 126.00 122.75 C 126.00 122.34 126.66 122.00 127.47 122.00 C 128.36 122.00 128.71 122.59 128.36 123.50 C 128.05 124.33 128.28 125.00 128.89 125.00 C 129.50 125.00 130.00 124.15 130.00 123.12 C 130.00 122.07 130.89 121.00 132.00 120.71 C 133.10 120.42 134.00 120.45 134.00 120.77 C 134.00 121.52 111.61 142.94 111.23 142.56 C 111.07 142.40 112.52 140.36 114.47 138.04 C 119.23 132.34 118.91 131.48 113.97 136.71 C 107.66 143.40 108.73 148.65 117.81 155.58 C 121.49 158.39 123.15 159.00 127.16 159.00 C 132.03 159.00 132.03 159.00 124.89 167.25 C 114.44 179.32 114.23 180.26 119.94 189.25 C 123.14 194.29 128.09 197.99 131.65 198.00 C 134.97 198.00 150.58 189.70 159.81 183.02 C 164.39 179.71 168.54 177.00 169.05 177.00 C 169.55 177.00 171.05 179.14 172.38 181.75 C 178.31 193.44 187.40 202.89 195.50 205.77 C 200.88 207.69 203.04 207.20 207.12 203.12 Z  M 56.35 185.97 C 59.50 184.79 62.74 182.80 63.58 181.52 C 66.48 177.10 63.24 170.30 53.27 159.89 C 46.95 153.29 46.95 153.29 60.22 152.75 C 67.53 152.45 74.29 151.89 75.25 151.50 C 76.84 150.85 77.00 151.59 77.00 159.43 C 77.00 166.11 77.46 168.97 79.00 172.01 C 83.12 180.08 96.45 189.86 101.58 188.57 C 104.59 187.81 110.89 182.24 113.18 178.30 C 114.77 175.59 114.76 175.18 113.09 171.46 C 112.11 169.28 108.29 164.68 104.61 161.24 C 97.91 154.98 97.91 154.98 100.47 152.74 C 103.62 149.98 106.44 142.09 108.14 131.24 C 108.86 126.71 109.68 123.02 109.97 123.04 C 110.26 123.06 111.40 124.48 112.50 126.20 C 114.84 129.86 119.66 133.68 120.67 132.67 C 121.05 132.28 120.00 130.51 118.34 128.74 C 113.44 123.50 110.21 118.71 109.42 115.50 C 109.01 113.85 106.84 110.23 104.59 107.46 C 102.34 104.68 99.74 101.31 98.80 99.96 C 97.10 97.50 97.10 97.50 97.05 100.17 C 97.01 102.13 98.47 104.25 102.61 108.22 C 106.30 111.77 108.10 114.25 107.86 115.46 C 107.56 116.99 106.50 116.40 101.75 112.06 C 97.46 108.13 96.02 107.27 96.06 108.65 C 96.09 109.67 98.56 112.53 101.53 115.00 C 105.19 118.04 106.95 120.25 106.97 121.82 C 107.00 124.14 107.00 124.14 104.25 122.17 C 102.74 121.08 100.41 119.03 99.08 117.60 C 96.25 114.57 95.00 114.31 95.01 116.75 C 95.01 117.71 96.52 119.52 98.36 120.78 C 103.53 124.30 106.20 127.58 105.83 129.96 C 105.53 131.91 104.95 131.62 99.75 126.98 C 96.59 124.15 94.00 122.25 94.00 122.75 C 94.00 123.25 96.47 126.39 99.50 129.74 C 104.42 135.18 106.38 139.00 104.23 139.00 C 103.81 139.00 101.09 136.92 98.19 134.38 C 95.28 131.84 92.70 129.96 92.45 130.21 C 92.21 130.46 94.48 133.40 97.50 136.74 C 102.44 142.19 104.10 145.00 102.41 145.00 C 101.71 145.00 98.48 142.51 93.49 138.12 C 89.99 135.06 89.95 134.91 91.11 131.03 C 91.76 128.85 92.57 127.23 92.90 127.44 C 93.23 127.64 93.51 125.94 93.53 123.65 C 93.54 121.37 94.11 114.78 94.78 109.00 C 96.74 92.36 98.08 60.02 96.99 55.96 C 96.46 54.00 94.79 51.21 93.27 49.76 C 89.11 45.78 74.67 40.05 76.58 43.13 C 77.09 43.95 76.82 44.14 75.74 43.73 C 74.86 43.39 72.99 43.65 71.58 44.31 C 68.85 45.58 68.18 46.97 70.25 47.05 C 70.94 47.08 66.78 48.80 61.00 50.87 C 55.22 52.94 49.49 55.18 48.25 55.85 C 47.01 56.52 46.00 56.84 46.00 56.56 C 46.00 55.77 54.00 51.83 58.50 50.40 C 60.70 49.70 61.59 49.10 60.49 49.07 C 57.43 48.97 47.82 52.74 45.67 54.88 C 43.81 56.74 43.82 56.82 46.03 59.03 C 48.17 61.17 48.79 61.25 58.32 60.62 C 63.84 60.26 70.08 59.69 72.18 59.36 C 76.00 58.74 76.00 58.74 76.00 76.91 C 76.00 95.08 76.00 95.08 71.78 94.83 C 68.26 94.62 66.73 93.79 62.57 89.78 C 59.83 87.13 57.22 85.09 56.78 85.24 C 55.54 85.65 62.01 93.07 64.37 93.94 C 65.89 94.50 64.05 95.15 57.47 96.36 C 52.54 97.26 47.76 98.00 46.87 98.00 C 44.94 98.00 44.03 95.17 44.01 89.12 C 44.00 84.75 44.00 84.75 49.00 85.23 C 51.75 85.49 54.00 85.38 54.00 84.98 C 54.00 83.99 61.29 82.89 61.96 83.78 C 62.26 84.18 64.64 86.22 67.26 88.33 C 69.88 90.43 71.77 92.57 71.45 93.08 C 71.14 93.58 71.92 93.99 73.19 93.98 C 75.19 93.96 74.69 93.17 69.50 88.15 C 63.50 82.33 63.50 82.33 67.15 80.78 C 69.16 79.93 71.59 78.03 72.55 76.56 C 74.13 74.15 74.15 73.73 72.77 72.34 C 71.22 70.79 60.72 69.74 61.64 71.23 C 62.59 72.77 56.96 71.95 54.87 70.25 C 48.54 65.11 46.00 62.70 46.00 61.82 C 46.00 61.29 45.36 60.22 44.57 59.43 C 43.34 58.19 43.10 58.21 42.82 59.53 C 42.58 60.69 41.23 60.10 37.23 57.09 C 31.14 52.51 28.80 51.58 25.43 52.43 C 23.02 53.03 23.00 53.12 23.00 65.85 C 23.00 80.98 24.33 95.48 27.41 114.00 C 29.66 127.50 29.66 127.50 26.83 130.15 C 22.08 134.60 23.41 138.94 31.37 144.91 C 35.77 148.20 35.77 148.20 31.25 152.85 C 25.06 159.23 21.00 165.79 21.00 169.45 C 21.01 175.10 27.73 183.92 34.50 187.17 C 39.49 189.56 48.00 189.09 56.35 185.97 Z  M 144.96 148.25 C 144.88 146.74 135.98 137.84 134.91 138.20 C 134.30 138.40 135.91 140.91 138.49 143.78 C 142.81 148.58 145.06 150.14 144.96 148.25 Z  M 158.83 136.12 C 158.38 134.94 151.14 127.00 150.50 127.00 C 148.97 127.00 150.46 129.89 153.70 133.21 C 157.16 136.75 159.60 138.13 158.83 136.12 Z  M 124.97 128.25 C 124.87 125.95 121.96 123.88 119.34 124.25 C 116.50 124.65 116.50 124.65 119.75 125.92 C 121.54 126.62 123.00 127.60 123.00 128.10 C 123.00 128.59 123.45 129.00 124.00 129.00 C 124.55 129.00 124.99 128.66 124.97 128.25 Z  M 162.95 122.94 C 160.85 120.29 159.39 119.21 158.75 119.85 C 158.11 120.49 158.95 121.89 161.14 123.88 C 165.87 128.19 166.75 127.73 162.95 122.94 Z  M 50.60 96.15 C 52.57 95.54 52.48 95.35 49.35 93.30 C 46.87 91.66 46.00 91.45 46.00 92.49 C 46.00 93.25 46.50 94.19 47.11 94.57 C 47.88 95.04 47.80 95.51 46.86 96.11 C 45.75 96.81 45.78 96.95 47.00 96.89 C 47.83 96.84 49.45 96.51 50.60 96.15 Z  M 54.35 90.52 C 49.22 85.77 45.70 84.99 45.28 88.50 C 45.14 89.60 45.29 89.94 45.60 89.25 C 46.51 87.24 48.23 87.80 52.50 91.48 C 58.41 96.57 60.00 95.74 54.35 90.52 Z  M 74.97 86.25 C 74.95 85.84 74.06 84.45 72.98 83.16 C 70.22 79.84 68.34 80.89 71.00 84.27 C 73.04 86.87 75.04 87.86 74.97 86.25 Z  M 56.68 67.18 C 53.60 63.97 53.35 63.00 55.60 63.00 C 57.86 63.00 63.00 66.86 63.00 68.57 C 63.00 69.36 63.67 70.00 64.50 70.00 C 66.57 70.00 66.38 68.65 64.00 66.50 C 62.90 65.50 62.00 64.08 62.00 63.35 C 62.00 62.37 60.35 62.00 55.96 62.00 C 50.35 62.00 50.00 62.13 50.94 63.89 C 52.24 66.32 58.08 71.25 58.80 70.53 C 59.11 70.23 58.15 68.72 56.68 67.18 Z  M 75.00 69.17 C 75.00 68.72 73.88 67.29 72.50 66.00 C 71.12 64.71 70.00 63.05 70.00 62.33 C 70.00 61.60 69.10 61.00 68.00 61.00 C 65.31 61.00 65.43 61.36 69.62 66.00 C 73.07 69.82 75.00 70.96 75.00 69.17 Z  M 122.95 189.32 C 119.50 185.64 119.50 185.64 123.75 188.90 C 126.09 190.70 128.00 192.36 128.00 192.58 C 128.00 193.87 125.98 192.56 122.95 189.32 Z  M 118.06 152.46 C 112.86 147.59 110.93 143.91 114.01 144.71 C 115.63 145.14 125.00 155.13 125.00 156.43 C 125.00 158.02 122.42 156.54 118.06 152.46 Z  M 128.00 155.98 C 128.00 155.42 125.47 152.54 122.38 149.60 C 116.76 144.24 116.76 144.24 122.13 142.47 C 125.08 141.50 128.14 140.47 128.91 140.18 C 129.76 139.87 130.06 140.10 129.66 140.74 C 129.29 141.34 131.24 144.29 133.99 147.30 C 136.75 150.32 139.00 153.05 139.00 153.39 C 139.00 155.25 135.63 153.36 130.24 148.48 C 126.89 145.44 123.90 143.35 123.61 143.82 C 123.32 144.30 125.30 147.19 128.03 150.24 C 131.94 154.63 132.65 155.92 131.41 156.40 C 129.12 157.28 128.00 157.14 128.00 155.98 Z  M 136.00 103.06 C 136.00 100.26 137.91 99.49 139.48 101.65 C 141.28 104.10 142.48 102.77 140.99 99.98 C 139.23 96.70 141.47 94.80 143.57 97.79 C 144.42 99.01 145.76 100.00 146.56 100.00 C 148.62 100.00 148.27 98.80 145.53 96.54 C 143.16 94.58 143.16 94.58 149.66 87.68 C 156.17 80.78 156.17 80.78 153.47 77.96 C 151.98 76.41 148.51 74.18 145.76 72.99 C 143.01 71.81 141.15 70.47 141.63 70.02 C 142.11 69.57 145.88 69.04 150.00 68.85 C 157.50 68.50 157.50 68.50 162.99 74.50 C 168.10 80.07 168.32 80.52 166.18 80.83 C 164.58 81.06 162.38 79.83 159.03 76.83 C 156.38 74.45 154.16 71.94 154.10 71.25 C 154.05 70.56 153.04 70.00 151.87 70.00 C 150.10 70.00 150.83 71.22 156.23 77.25 C 159.80 81.24 163.71 85.00 164.92 85.62 C 166.99 86.68 166.69 87.05 159.44 92.51 C 144.22 103.97 136.00 107.67 136.00 103.06 Z  M 151.97 96.25 C 151.91 94.94 147.98 90.69 147.38 91.29 C 147.06 91.61 147.64 93.00 148.65 94.40 C 150.45 96.87 152.03 97.76 151.97 96.25 Z  M 156.97 91.25 C 156.95 90.84 156.03 89.42 154.93 88.09 C 153.45 86.31 152.63 85.97 151.80 86.80 C 150.97 87.63 151.31 88.45 153.09 89.93 C 155.62 92.03 157.02 92.51 156.97 91.25 Z  M 161.05 87.25 C 158.54 82.93 157.00 81.60 155.86 82.74 C 155.02 83.58 155.47 84.52 157.62 86.40 C 160.98 89.36 162.50 89.74 161.05 87.25 Z  M 111.36 101.35 C 112.24 99.61 115.74 94.68 119.14 90.40 C 123.54 84.87 124.92 82.47 123.92 82.14 C 123.14 81.88 120.25 79.50 117.50 76.86 C 112.89 72.42 112.69 72.04 114.96 72.02 C 116.53 72.01 118.98 73.53 121.69 76.19 C 126.77 81.17 128.87 80.52 123.99 75.49 C 120.61 72.00 120.61 72.00 123.49 72.00 C 125.07 72.00 127.41 72.98 128.68 74.17 C 131.19 76.53 133.08 76.01 131.02 73.52 C 129.98 72.27 130.03 72.00 131.32 72.00 C 134.75 72.00 133.77 74.33 126.79 82.73 C 122.78 87.56 117.73 93.98 115.58 97.01 C 110.51 104.10 109.39 105.25 111.36 101.35 Z  M 103.74 97.11 C 100.41 94.05 99.00 91.97 99.00 90.13 C 99.00 87.65 99.24 87.76 104.10 92.62 C 107.41 95.94 109.07 98.38 108.84 99.60 C 108.53 101.20 107.77 100.83 103.74 97.11 Z  M 112.00 89.98 C 112.00 82.74 112.00 82.74 116.21 83.42 C 118.53 83.79 120.59 84.25 120.78 84.45 C 120.98 84.64 119.08 87.60 116.57 91.01 C 112.00 97.22 112.00 97.22 112.00 89.98 Z  M 167.02 75.52 C 160.79 69.17 160.80 67.58 167.07 68.32 C 169.78 68.64 172.00 68.51 172.00 68.02 C 172.00 66.50 176.36 66.42 179.50 67.88 C 182.68 69.36 190.00 75.86 190.00 77.20 C 190.00 79.33 186.25 77.51 181.31 73.00 C 174.14 66.45 172.55 66.60 178.54 73.25 C 182.86 78.04 183.08 78.53 181.11 78.82 C 179.63 79.04 177.18 77.54 173.39 74.07 C 166.35 67.64 164.02 67.43 170.29 73.78 C 172.88 76.42 175.00 78.89 175.00 79.28 C 175.00 81.39 170.87 79.45 167.02 75.52 Z  M 188.50 72.00 C 185.32 68.77 182.67 66.96 181.04 66.90 C 179.28 66.82 180.03 66.35 183.50 65.35 C 192.84 62.65 197.41 60.68 199.77 58.32 C 202.12 55.97 202.12 55.97 206.61 59.65 C 211.36 63.53 213.00 65.81 213.00 68.51 C 213.00 69.64 211.20 68.56 207.30 65.08 C 199.55 58.18 198.22 58.65 205.29 65.79 C 209.78 70.32 210.76 71.84 209.81 72.79 C 207.81 74.79 206.71 74.22 201.69 68.49 C 199.04 65.47 196.23 63.00 195.44 63.00 C 193.12 63.00 193.69 63.86 199.50 69.17 C 202.53 71.94 205.00 74.61 205.00 75.10 C 205.00 77.58 200.63 75.41 195.72 70.50 C 190.40 65.18 187.79 63.91 186.50 66.00 C 186.16 66.55 186.59 67.00 187.46 67.00 C 189.15 67.00 198.00 74.66 198.00 76.13 C 198.00 76.61 196.97 77.00 195.71 77.00 C 194.29 77.00 191.56 75.11 188.50 72.00 Z  M 122.00 58.02 C 127.89 56.44 146.76 53.99 152.28 54.10 C 155.52 54.16 151.81 54.89 142.50 56.01 C 134.25 57.00 125.47 58.07 123.00 58.39 C 118.84 58.92 118.76 58.89 122.00 58.02 Z  M 155.50 47.53 C 152.06 43.11 149.80 41.09 148.25 41.06 C 146.26 41.01 146.46 41.42 150.05 44.66 C 152.28 46.68 154.56 49.17 155.11 50.20 C 156.07 51.99 155.95 52.01 152.44 50.54 C 148.17 48.75 143.31 44.67 137.00 37.57 C 133.39 33.51 133.15 33.05 135.80 35.23 C 139.58 38.35 146.18 40.41 149.96 39.66 C 152.12 39.23 153.54 40.13 158.36 45.03 C 161.56 48.27 163.93 51.30 163.65 51.76 C 163.36 52.23 167.26 52.42 172.31 52.19 C 177.37 51.96 181.28 51.98 181.00 52.25 C 180.72 52.51 176.00 53.01 170.50 53.34 C 160.50 53.96 160.50 53.96 155.50 47.53 Z  M 185.73 51.28 C 187.50 51.06 190.65 51.05 192.73 51.27 C 194.80 51.49 193.35 51.67 189.50 51.67 C 185.65 51.68 183.95 51.50 185.73 51.28 Z  M 160.44 44.04 C 154.87 38.65 154.54 38.09 155.93 36.31 C 157.35 34.47 157.65 34.66 162.71 40.32 C 167.76 45.99 168.92 48.31 167.22 49.36 C 166.80 49.62 163.75 47.23 160.44 44.04 Z  M 164.17 38.67 C 161.87 36.33 160.00 33.88 160.00 33.21 C 160.00 32.55 159.60 32.00 159.11 32.00 C 158.62 32.00 158.03 30.35 157.79 28.33 C 157.36 24.68 157.37 24.67 158.93 27.07 C 159.79 28.39 162.32 31.73 164.55 34.49 C 169.71 40.89 170.22 41.75 169.18 42.39 C 168.71 42.68 166.46 41.00 164.17 38.67 Z  M 129.98 28.97 C 127.93 26.10 127.90 25.79 129.46 23.42 C 131.97 19.59 135.17 18.51 140.22 19.78 C 144.50 20.86 144.50 20.86 139.82 20.33 C 131.94 19.43 127.70 24.27 131.56 29.78 C 132.41 31.00 132.89 32.00 132.62 32.00 C 132.36 32.00 131.16 30.63 129.98 28.97 Z  M 34.59 180.45 C 27.18 173.62 24.88 173.28 31.50 180.00 C 34.21 182.75 35.97 185.00 35.42 185.00 C 34.87 185.00 32.25 182.80 29.60 180.10 C 24.23 174.65 24.18 174.73 33.50 173.51 C 36.25 173.15 39.62 172.60 41.00 172.29 C 42.38 171.97 43.17 172.07 42.78 172.50 C 42.38 172.93 44.36 175.80 47.18 178.89 C 54.26 186.63 51.15 187.11 42.82 179.58 C 35.56 173.01 32.84 172.15 38.60 178.25 C 45.25 185.29 45.65 186.01 42.87 185.95 C 41.43 185.93 38.18 183.77 34.59 180.45 Z  M 94.59 180.89 C 92.07 178.08 90.00 175.44 90.00 175.01 C 90.00 174.58 91.72 172.49 93.83 170.37 C 95.94 168.24 98.19 165.60 98.83 164.50 C 100.00 162.50 100.00 162.50 101.15 164.50 C 101.78 165.60 104.25 168.40 106.65 170.73 C 110.44 174.42 112.28 178.00 110.39 178.00 C 110.05 178.00 107.11 175.69 103.85 172.87 C 100.59 170.05 97.68 167.99 97.37 168.30 C 97.06 168.60 99.33 171.37 102.41 174.45 C 105.48 177.53 108.00 180.46 108.00 180.96 C 108.00 183.66 105.29 182.55 99.48 177.45 C 95.92 174.32 93.00 172.09 93.00 172.49 C 93.00 172.90 95.25 175.83 98.00 179.01 C 102.00 183.62 102.69 184.91 101.42 185.39 C 100.55 185.73 99.69 186.00 99.51 186.00 C 99.33 186.00 97.12 183.70 94.59 180.89 Z  M 49.25 178.05 C 43.66 171.77 43.23 171.00 45.35 171.00 C 48.07 171.00 50.23 167.32 49.49 163.96 C 48.81 160.86 40.36 151.00 38.39 151.00 C 37.16 151.00 28.00 159.64 25.66 163.00 C 24.11 165.22 24.11 165.13 25.71 162.17 C 27.80 158.28 36.32 150.00 38.23 150.00 C 38.95 150.00 44.03 154.57 49.52 160.16 C 55.01 165.75 57.70 168.89 55.50 167.13 C 52.25 164.54 51.44 164.25 51.16 165.56 C 50.97 166.46 51.87 167.91 53.16 168.79 C 57.75 171.94 62.00 176.83 62.00 178.98 C 62.00 180.86 61.13 180.39 55.75 175.58 C 52.31 172.52 49.13 170.01 48.67 170.00 C 48.21 170.00 50.34 172.81 53.40 176.24 C 58.09 181.51 58.69 182.59 57.23 183.17 C 56.28 183.55 55.27 183.88 55.00 183.91 C 54.73 183.93 52.14 181.30 49.25 178.05 Z  M 90.18 180.75 C 81.69 174.03 77.71 165.95 78.19 156.46 C 78.50 150.52 78.51 150.50 81.50 150.70 C 85.26 150.96 99.19 158.06 99.82 160.03 C 100.19 161.18 99.87 161.13 98.38 159.81 C 96.15 157.83 84.41 152.27 81.50 151.81 C 76.88 151.09 79.26 169.46 84.12 172.06 C 85.18 172.63 85.74 173.60 85.36 174.22 C 84.90 174.98 85.28 175.11 86.56 174.62 C 87.59 174.22 88.11 174.23 87.70 174.64 C 87.29 175.04 88.86 177.32 91.19 179.69 C 96.22 184.82 95.83 185.23 90.18 180.75 Z  M 90.46 151.14 C 88.78 150.12 86.13 147.76 84.56 145.89 C 82.05 142.91 81.92 142.46 83.49 142.15 C 84.62 141.93 87.35 143.88 90.88 147.40 C 96.46 152.98 96.27 154.68 90.46 151.14 Z  M 46.41 149.11 C 42.09 146.47 37.55 140.61 39.50 140.18 C 40.98 139.86 52.00 148.68 52.00 150.19 C 52.00 151.55 49.67 151.09 46.41 149.11 Z  M 51.00 145.50 C 44.40 138.82 46.61 137.73 53.85 144.09 C 59.59 149.13 60.78 151.00 58.27 151.00 C 57.26 151.00 53.99 148.53 51.00 145.50 Z  M 92.95 145.79 C 88.05 141.22 87.08 140.73 83.38 140.92 C 79.98 141.10 78.89 140.67 77.19 138.52 C 76.06 137.08 74.93 135.36 74.69 134.70 C 74.39 133.89 73.90 133.83 73.17 134.51 C 72.41 135.21 73.58 137.21 77.06 141.18 C 81.80 146.58 81.93 146.89 79.83 147.55 C 78.07 148.11 76.81 147.38 73.50 143.88 C 71.23 141.47 68.90 138.65 68.32 137.61 C 67.72 136.53 66.76 136.03 66.10 136.44 C 65.33 136.92 66.66 139.14 70.07 143.08 C 76.82 150.88 74.09 151.08 65.37 143.42 C 61.81 140.29 58.28 137.99 57.33 138.17 C 56.12 138.41 56.78 139.25 59.71 141.19 C 61.95 142.67 64.76 145.26 65.96 146.94 C 68.14 150.00 68.14 150.00 65.97 150.00 C 64.78 150.00 61.04 147.57 57.65 144.60 C 51.50 139.20 51.50 139.20 41.50 138.85 C 31.50 138.50 31.50 138.50 36.76 143.41 C 42.06 148.34 43.07 150.59 38.72 147.73 C 34.55 145.00 26.00 135.66 26.00 133.83 C 26.00 132.86 27.29 131.10 28.87 129.94 C 31.49 128.00 31.67 127.48 30.90 124.16 C 30.43 122.14 30.09 119.83 30.13 119.00 C 30.18 118.17 30.81 119.90 31.52 122.84 C 32.83 128.18 32.83 128.18 29.66 131.03 C 26.62 133.77 26.57 133.95 28.29 135.69 C 29.86 137.28 32.05 137.51 46.55 137.59 C 55.61 137.65 62.78 137.44 62.47 137.14 C 61.96 136.62 73.19 133.11 75.61 133.04 C 76.21 133.02 77.13 134.46 77.64 136.25 C 78.45 139.12 79.03 139.54 82.47 139.82 C 85.53 140.07 86.73 139.68 87.99 138.01 C 89.58 135.90 89.65 135.94 94.80 141.86 C 97.66 145.15 100.00 148.30 100.00 148.86 C 100.00 151.38 98.01 150.51 92.95 145.79 Z  M 44.34 120.52 C 44.70 117.88 45.00 114.21 45.00 112.36 C 45.00 109.00 45.00 109.00 51.25 109.02 C 54.69 109.02 56.95 109.38 56.27 109.81 C 54.83 110.73 62.81 120.00 65.05 120.00 C 65.80 120.00 64.52 118.07 62.21 115.71 C 58.24 111.67 56.73 108.00 59.04 108.00 C 60.40 108.00 62.42 109.60 67.20 114.47 C 70.62 117.95 70.88 118.53 69.30 119.15 C 68.11 119.62 68.86 119.88 71.50 119.91 C 75.50 119.96 75.50 119.96 68.97 113.59 C 62.45 107.22 62.45 107.22 67.97 105.38 C 71.01 104.36 74.08 103.38 74.79 103.18 C 75.79 102.92 76.01 104.84 75.79 111.67 C 75.50 120.50 75.50 120.50 68.00 121.25 C 59.92 122.06 49.97 123.61 46.09 124.66 C 43.73 125.30 43.70 125.22 44.34 120.52 Z  M 52.33 121.94 C 54.37 121.88 54.35 121.81 52.02 120.88 C 50.66 120.34 48.74 119.17 47.77 118.29 C 46.15 116.83 46.00 116.83 46.00 118.29 C 46.00 119.16 46.46 120.16 47.02 120.51 C 47.58 120.86 47.73 121.63 47.35 122.24 C 46.91 122.96 47.28 123.11 48.42 122.67 C 49.38 122.30 51.14 121.97 52.33 121.94 Z  M 59.50 119.48 C 55.92 117.67 50.85 112.05 51.65 110.76 C 51.96 110.26 50.93 109.99 49.36 110.17 C 47.71 110.36 46.47 111.13 46.41 112.00 C 46.33 113.17 46.41 113.19 46.76 112.09 C 47.06 111.15 48.77 112.39 51.95 115.84 C 55.57 119.79 57.37 121.00 59.59 120.99 C 62.50 120.99 62.50 120.99 59.50 119.48 Z  M 75.00 112.19 C 75.00 111.08 69.13 105.53 68.56 106.10 C 67.93 106.74 72.93 113.00 74.07 113.00 C 74.58 113.00 75.00 112.63 75.00 112.19 Z  M 28.18 110.26 C 27.53 106.33 27.05 102.08 27.10 100.81 C 27.16 99.54 27.84 102.30 28.62 106.95 C 29.40 111.60 29.88 115.85 29.70 116.41 C 29.51 116.96 28.83 114.20 28.18 110.26 Z  M 25.65 92.27 C 25.30 89.10 24.84 79.53 24.63 71.00 C 24.42 62.47 24.41 58.20 24.61 61.50 C 24.81 64.80 25.45 74.19 26.03 82.37 C 27.10 97.18 26.86 103.25 25.65 92.27 Z  M 41.15 72.90 C 40.72 65.44 35.64 58.21 28.50 54.90 C 26.30 53.88 25.20 53.03 26.05 53.02 C 28.96 52.98 36.60 58.69 42.56 65.36 C 47.69 71.09 48.97 72.00 51.92 72.00 C 56.43 72.00 55.59 72.59 49.88 73.41 C 45.77 74.01 45.20 73.86 44.72 72.04 C 43.96 69.11 42.20 69.52 41.72 72.75 C 41.30 75.50 41.30 75.50 41.15 72.90 Z "/>
</g>
</svg>