<?xml version="1.0" encoding="UTF-8" standalone="no"?>
<!DOCTYPE svg PUBLIC "-//W3C//DTD SVG 1.1//EN" "http://www.w3.org/Graphics/SVG/1.1/DTD/svg11.dtd" >
<svg xmlns="http://www.w3.org/2000/svg" xmlns:xlink="http://www.w3.org/1999/xlink" version="1.1" viewBox="0 0 237 256">
 <g >
 <path fill="currentColor"
d=" M 165.23 219.62 C 169.10 218.71 172.78 216.87 176.55 213.96 C 194.01 200.49 199.31 185.87 191.83 171.84 C 185.40 159.77 174.92 153.07 158.94 150.81 C 151.21 149.72 151.21 149.72 155.75 144.14 C 162.73 135.57 164.98 129.92 164.99 120.95 C 165.00 114.31 164.65 112.85 162.12 108.95 C 158.02 102.60 151.26 96.43 145.74 94.00 C 142.78 92.69 137.79 91.68 132.49 91.30 C 126.69 90.89 124.00 90.31 124.00 89.46 C 124.00 87.76 117.83 82.47 112.97 79.99 C 110.79 78.87 109.00 77.59 109.00 77.14 C 109.00 76.69 111.25 72.58 114.00 68.00 C 119.23 59.30 120.11 56.64 117.42 57.67 C 116.37 58.07 114.04 56.50 110.45 52.95 C 107.48 50.02 104.73 47.94 104.33 48.33 C 103.94 48.73 106.18 51.64 109.31 54.81 C 112.44 57.97 115.00 61.08 115.00 61.72 C 115.00 64.84 112.28 63.72 106.90 58.40 C 103.56 55.10 101.00 53.22 101.00 54.07 C 101.00 54.90 103.25 57.79 106.00 60.50 C 110.36 64.80 112.48 69.00 110.28 69.00 C 109.88 69.00 106.97 66.44 103.81 63.31 C 100.64 60.18 97.73 57.94 97.33 58.33 C 96.94 58.73 99.18 61.64 102.31 64.81 C 105.44 67.97 108.00 71.08 108.00 71.72 C 108.00 74.84 105.28 73.72 99.90 68.40 C 96.66 65.19 94.00 63.21 94.00 64.00 C 94.00 64.79 96.12 67.58 98.71 70.22 C 104.28 75.86 103.23 76.37 96.02 71.51 C 91.54 68.50 90.64 68.22 89.42 69.44 C 87.59 71.27 87.62 72.00 89.54 72.00 C 90.81 72.00 90.85 72.25 89.79 73.40 C 89.08 74.17 88.35 74.40 88.17 73.90 C 87.62 72.43 86.00 72.88 86.00 74.50 C 86.00 75.33 86.45 76.00 87.00 76.00 C 87.55 76.00 87.99 77.24 87.97 78.75 C 87.93 81.50 87.93 81.50 86.06 79.25 C 84.14 76.95 82.00 76.26 82.00 77.93 C 82.00 78.44 83.18 79.78 84.62 80.92 C 87.13 82.89 87.19 83.18 86.09 87.54 C 85.46 90.05 85.21 92.53 85.53 93.05 C 86.35 94.38 92.75 94.24 93.20 92.89 C 93.41 92.27 94.46 91.97 95.54 92.22 C 97.24 92.60 97.10 92.85 94.53 94.08 C 91.55 95.50 91.55 95.50 96.03 96.10 C 99.48 96.56 98.52 96.73 91.83 96.85 C 87.07 96.93 83.02 97.40 82.83 97.89 C 82.65 98.37 80.39 98.98 77.80 99.23 C 73.40 99.66 72.79 99.41 68.01 95.23 C 65.20 92.77 62.68 90.98 62.42 91.25 C 62.15 91.52 64.33 94.28 67.27 97.39 C 70.21 100.50 72.40 103.26 72.14 103.52 C 70.92 104.75 68.88 103.58 63.13 98.38 C 59.71 95.28 56.73 92.93 56.52 93.15 C 56.30 93.37 58.38 96.12 61.14 99.27 C 65.75 104.52 65.97 105.00 63.82 105.00 C 62.35 105.00 58.95 102.72 54.74 98.92 C 51.03 95.58 48.00 93.17 48.00 93.56 C 48.00 93.96 50.06 96.70 52.58 99.64 C 58.85 106.98 55.77 106.54 48.65 99.07 C 42.34 92.45 41.64 92.46 45.86 99.12 C 50.52 106.46 53.18 108.02 60.88 107.90 C 69.41 107.77 72.22 106.94 73.62 104.13 C 74.53 102.30 74.69 103.59 74.39 110.68 C 73.30 137.25 73.28 141.95 74.27 141.33 C 74.95 140.91 75.10 142.19 74.71 145.10 C 74.38 147.52 74.38 148.83 74.72 148.01 C 75.13 146.99 75.70 147.61 76.50 149.99 C 77.49 152.93 78.18 153.50 81.01 153.73 C 82.84 153.88 85.06 154.62 85.92 155.38 C 88.12 157.29 93.97 159.03 98.06 159.00 C 114.76 158.87 155.27 159.84 158.25 160.45 C 162.00 161.22 162.00 161.22 162.00 168.46 C 162.00 177.26 160.70 181.47 156.66 185.76 C 153.03 189.61 148.74 190.99 140.32 190.99 C 134.14 191.00 134.14 191.00 134.65 196.75 C 135.03 200.98 134.88 202.10 134.10 201.00 C 133.24 199.80 133.03 199.78 133.02 200.88 C 132.98 203.71 137.10 206.03 141.41 205.60 C 143.66 205.38 146.18 204.93 147.00 204.61 C 148.93 203.85 149.47 204.29 155.73 211.65 C 160.05 216.72 160.67 217.91 159.30 218.44 C 158.12 218.89 155.78 217.25 151.34 212.85 C 147.88 209.42 144.84 206.82 144.59 207.08 C 144.33 207.34 146.38 210.12 149.14 213.27 C 156.17 221.29 152.81 220.91 142.30 212.50 C 137.83 208.93 133.94 206.00 133.66 206.00 C 132.40 206.00 135.21 212.67 137.38 214.84 C 140.44 217.89 149.19 220.93 155.00 220.95 C 157.47 220.96 162.08 220.36 165.23 219.62 Z  M 128.75 199.35 C 132.65 198.88 134.00 198.31 134.00 197.11 C 133.99 194.37 130.24 189.17 126.55 186.78 C 121.87 183.75 121.81 181.55 126.42 182.42 C 128.52 182.81 130.11 182.63 130.53 181.95 C 130.91 181.34 132.20 181.08 133.40 181.38 C 135.56 181.93 141.64 180.43 149.75 177.34 C 154.48 175.55 155.50 172.63 151.75 171.63 C 144.73 169.75 100.43 171.79 78.06 175.02 C 64.15 177.03 59.16 177.09 70.21 175.12 C 89.89 171.60 117.84 169.62 140.30 170.15 C 154.06 170.48 158.08 169.99 152.72 168.65 C 151.47 168.33 148.52 166.43 146.18 164.42 C 141.22 160.18 139.29 160.61 143.51 165.01 C 146.37 168.00 146.37 168.00 143.87 168.00 C 142.43 168.00 139.55 166.45 137.13 164.38 C 132.18 160.14 130.79 160.41 134.55 164.87 C 137.18 168.00 137.18 168.00 134.46 168.00 C 132.63 168.00 130.62 166.82 128.32 164.38 C 126.44 162.39 124.62 161.04 124.28 161.39 C 123.93 161.74 124.93 163.37 126.51 165.01 C 129.37 168.00 129.37 168.00 126.87 168.00 C 125.45 168.00 122.59 166.48 120.27 164.50 C 115.07 160.04 114.03 160.04 117.43 164.50 C 120.10 168.00 120.10 168.00 117.84 168.00 C 116.59 168.00 113.91 166.36 111.81 164.31 C 107.11 159.72 106.02 160.35 110.10 165.31 C 114.54 170.69 111.18 170.21 104.21 164.48 C 101.19 161.99 98.50 160.17 98.24 160.43 C 97.97 160.69 99.20 162.73 100.96 164.95 C 105.67 170.89 102.26 170.29 94.85 163.87 C 87.90 157.85 86.29 157.82 92.05 163.82 C 95.20 167.09 95.67 168.00 94.23 168.00 C 89.60 168.00 78.62 157.96 75.63 151.00 C 75.28 150.18 75.25 150.85 75.56 152.50 C 76.69 158.46 81.41 165.38 85.91 167.69 C 90.79 170.19 92.36 169.55 74.00 172.53 C 59.96 174.82 53.70 176.77 54.41 178.63 C 54.74 179.48 55.00 180.50 55.00 180.92 C 55.00 181.33 55.56 181.70 56.25 181.74 C 56.94 181.79 62.00 182.50 67.50 183.33 C 77.12 184.78 87.88 184.85 110.53 183.60 C 115.49 183.33 119.99 183.42 120.53 183.80 C 121.06 184.19 123.89 187.31 126.82 190.75 C 133.82 198.98 131.16 199.12 122.00 191.00 C 118.28 187.70 114.91 185.00 114.52 185.00 C 114.12 185.00 116.14 187.70 119.00 191.00 C 123.59 196.30 123.94 197.00 121.98 197.00 C 120.69 197.00 116.90 194.46 112.88 190.90 C 109.10 187.54 106.00 185.11 106.00 185.49 C 106.00 185.87 108.08 188.62 110.62 191.59 C 116.87 198.90 113.91 198.85 105.54 191.50 C 102.10 188.47 98.96 186.00 98.56 186.00 C 98.17 186.00 99.96 188.47 102.54 191.50 C 106.76 196.43 107.01 197.00 105.03 197.00 C 103.76 197.00 100.11 194.63 96.54 191.50 C 93.10 188.47 89.95 186.00 89.56 186.00 C 89.16 186.00 91.09 188.58 93.86 191.73 C 96.62 194.88 98.68 197.65 98.44 197.89 C 97.83 198.51 87.84 191.53 85.00 188.50 C 80.50 183.71 80.88 186.04 85.45 191.25 C 89.58 195.95 89.84 196.53 87.98 196.83 C 86.57 197.05 83.86 195.23 79.42 191.08 C 71.24 183.42 69.23 183.20 75.90 190.68 C 78.69 193.81 80.79 196.54 80.57 196.76 C 79.82 197.52 75.49 194.74 69.83 189.87 C 62.25 183.36 61.27 183.69 68.00 190.50 C 72.33 194.88 73.02 196.00 71.42 196.00 C 68.43 196.00 61.91 191.40 58.56 186.93 C 55.17 182.40 54.00 182.01 54.00 185.42 C 54.00 191.45 63.15 196.98 76.23 198.85 C 83.59 199.91 121.14 200.27 128.75 199.35 Z  M 153.74 187.35 C 155.26 186.22 157.39 183.61 158.48 181.55 C 160.42 177.86 160.43 177.78 158.54 176.40 C 155.59 174.25 154.78 174.73 156.63 177.55 C 158.95 181.11 157.17 182.81 153.58 180.46 C 150.15 178.22 149.44 179.02 151.99 182.26 C 155.60 186.85 153.61 187.47 148.28 183.40 C 144.22 180.31 143.19 180.69 145.99 184.26 C 147.09 185.66 148.00 187.08 148.00 187.41 C 148.00 188.83 144.42 187.80 141.41 185.50 C 139.61 184.12 137.83 183.00 137.45 183.00 C 137.08 183.00 137.51 184.12 138.41 185.50 C 140.02 187.95 140.00 188.00 137.34 188.00 C 135.85 188.00 133.60 187.04 132.35 185.86 C 130.07 183.71 130.07 183.71 131.28 186.96 C 132.50 190.21 132.50 190.21 141.74 189.81 C 149.08 189.49 151.54 188.99 153.74 187.35 Z  M 155.64 166.16 C 152.58 163.10 149.83 160.84 149.53 161.13 C 149.24 161.43 151.58 164.63 154.75 168.25 C 158.61 172.67 160.61 174.31 160.85 173.27 C 161.04 172.41 158.73 169.25 155.64 166.16 Z  M 82.00 97.00 C 82.00 96.45 82.77 96.00 83.72 96.00 C 84.88 96.00 83.51 94.05 79.53 90.03 C 76.27 86.74 73.43 84.24 73.20 84.47 C 72.97 84.70 74.63 87.08 76.89 89.76 C 79.15 92.44 81.00 94.94 81.00 95.31 C 81.00 97.18 77.49 95.57 73.46 91.85 C 68.53 87.31 66.71 87.09 70.15 91.46 C 73.89 96.22 82.00 100.01 82.00 97.00 Z  M 64.59 88.06 C 72.45 83.93 80.15 77.59 86.81 69.75 C 92.44 63.12 104.60 45.68 107.38 40.26 C 109.04 37.02 109.04 37.02 112.14 40.26 C 115.24 43.50 115.24 43.50 113.46 40.50 C 112.48 38.85 111.08 37.14 110.34 36.70 C 109.60 36.26 109.01 34.69 109.02 33.20 C 109.03 31.09 109.24 30.83 110.00 32.00 C 110.53 32.83 110.98 33.11 110.98 32.63 C 110.99 32.15 111.75 32.37 112.67 33.13 C 114.17 34.37 114.26 34.22 113.59 31.51 C 111.82 24.44 105.55 21.65 90.73 21.36 C 79.96 21.15 79.96 21.15 74.73 16.42 C 67.56 9.95 50.00 1.76 50.00 4.89 C 50.00 5.50 50.50 6.00 51.10 6.00 C 53.08 6.00 62.43 11.08 65.05 13.57 C 66.46 14.91 68.29 16.00 69.12 16.00 C 70.60 16.00 76.00 20.95 76.00 22.30 C 76.00 22.69 74.65 23.00 73.00 23.00 C 71.00 23.00 70.00 23.50 70.00 24.50 C 70.00 26.35 69.87 26.35 77.36 24.40 C 89.37 21.27 106.15 23.81 107.82 29.01 C 108.19 30.19 107.89 30.14 106.36 28.79 C 100.92 23.97 89.28 22.64 77.50 25.48 C 68.76 27.59 68.65 27.56 69.31 23.50 C 69.76 20.71 69.36 19.40 67.35 17.00 C 65.06 14.28 52.28 6.26 51.62 7.14 C 51.47 7.34 50.36 8.94 49.14 10.70 C 47.76 12.70 46.38 13.70 45.46 13.35 C 44.54 12.99 44.00 13.40 44.00 14.45 C 44.00 15.51 44.45 15.84 45.22 15.36 C 45.90 14.95 45.46 16.16 44.25 18.05 C 43.02 19.97 41.37 21.37 40.52 21.21 C 39.69 21.04 39.00 21.47 39.00 22.15 C 39.00 22.83 37.86 25.04 36.47 27.04 C 34.06 30.52 29.97 40.33 30.03 42.49 C 30.04 43.04 31.34 40.49 32.91 36.81 C 35.58 30.55 39.73 23.00 40.51 23.00 C 40.70 23.00 38.87 26.94 36.44 31.75 C 34.01 36.56 31.73 42.07 31.36 43.98 C 30.82 46.78 30.56 47.09 30.01 45.54 C 29.64 44.47 29.43 46.80 29.54 50.70 C 29.77 58.48 30.83 60.60 36.84 65.28 C 40.62 68.23 45.17 68.79 49.46 66.84 C 53.13 65.16 53.65 66.45 50.82 70.22 C 49.47 72.03 47.98 74.17 47.51 75.00 C 45.85 77.92 50.60 73.09 53.90 68.50 C 56.83 64.42 56.94 64.00 55.13 64.00 C 54.01 64.00 50.19 61.10 46.47 57.43 C 42.80 53.82 39.62 51.04 39.40 51.26 C 39.18 51.48 41.52 54.44 44.59 57.83 C 49.11 62.83 49.85 64.12 48.52 64.63 C 47.38 65.07 45.34 63.70 41.90 60.19 C 39.17 57.40 36.05 54.83 34.97 54.49 C 32.21 53.61 32.52 52.13 35.71 50.92 C 39.42 49.51 50.00 43.14 52.78 40.64 C 54.94 38.70 55.29 38.67 59.28 40.11 C 62.29 41.19 64.65 41.38 67.50 40.79 C 74.64 39.31 80.00 38.72 80.00 39.42 C 80.00 40.57 71.66 51.99 71.17 51.51 C 70.92 51.25 71.21 50.46 71.81 49.73 C 72.64 48.73 72.10 47.78 69.50 45.71 C 65.05 42.16 62.88 42.22 66.31 45.80 C 67.79 47.35 69.00 48.86 69.00 49.17 C 69.00 50.82 63.42 48.25 59.47 44.76 C 54.46 40.35 52.77 40.17 56.10 44.40 C 57.27 45.89 58.06 47.27 57.86 47.46 C 57.66 47.66 55.78 47.23 53.68 46.50 C 50.73 45.49 49.97 45.47 50.33 46.42 C 51.02 48.23 47.56 50.16 46.14 48.74 C 45.53 48.13 44.69 47.98 44.27 48.40 C 43.84 48.82 44.74 50.24 46.25 51.54 C 47.76 52.84 49.00 54.33 49.00 54.85 C 49.00 56.48 55.98 62.00 58.03 62.00 C 59.12 62.00 60.00 62.26 60.00 62.58 C 60.00 62.90 57.34 66.39 54.08 70.33 C 50.82 74.28 47.00 79.53 45.59 82.00 C 44.18 84.47 43.02 85.96 43.01 85.30 C 42.99 83.45 45.22 79.00 46.16 79.00 C 46.62 79.00 47.00 78.55 47.00 78.00 C 47.00 75.86 45.29 77.17 43.68 80.55 C 42.15 83.76 42.12 86.15 43.58 90.82 C 43.89 91.80 45.82 92.03 51.24 91.70 C 56.93 91.36 59.82 90.57 64.59 88.06 Z  M 181.50 89.59 C 194.87 85.95 208.00 77.31 208.00 72.17 C 207.99 67.92 204.51 63.33 198.79 60.05 C 195.88 58.39 193.06 56.87 192.53 56.69 C 191.99 56.50 192.94 54.58 194.63 52.43 C 196.33 50.27 198.23 47.52 198.86 46.32 C 200.62 42.94 200.17 33.99 198.02 30.00 C 196.99 28.07 195.50 25.15 194.72 23.49 C 192.99 19.83 186.26 16.02 176.11 12.95 C 169.37 10.92 167.63 10.79 156.11 11.52 C 139.47 12.57 140.43 12.65 133.07 9.52 C 129.54 8.01 124.09 6.55 120.96 6.26 C 115.53 5.77 115.26 5.86 114.81 8.24 C 113.71 13.97 115.90 41.56 118.08 49.50 C 119.29 53.90 120.24 58.62 120.19 60.00 C 120.07 63.53 123.89 72.42 125.61 72.59 C 126.10 72.64 128.17 73.43 130.22 74.34 C 135.08 76.51 152.02 76.57 162.26 74.46 C 169.72 72.91 169.72 72.91 176.36 79.09 C 180.01 82.50 183.00 85.67 183.00 86.14 C 183.00 88.73 178.03 86.32 172.27 80.94 C 168.71 77.60 165.54 75.12 165.24 75.43 C 164.94 75.73 167.12 78.56 170.09 81.71 C 174.48 86.37 175.16 87.52 173.68 87.81 C 172.53 88.04 169.71 86.12 166.01 82.59 C 162.78 79.51 159.43 77.00 158.55 77.00 C 157.60 77.00 159.52 79.44 163.22 82.97 C 169.32 88.76 169.42 88.93 166.63 88.97 C 164.47 88.99 162.15 87.50 157.27 82.94 C 149.74 75.89 147.39 75.78 154.31 82.81 C 156.89 85.43 159.00 87.89 159.00 88.28 C 159.00 90.53 154.87 88.23 149.29 82.88 C 141.47 75.36 139.52 75.92 147.02 83.52 C 152.41 88.97 152.42 89.00 149.55 89.00 C 147.38 89.00 145.09 87.48 140.29 82.88 C 133.07 75.94 130.27 75.64 137.02 82.52 C 143.69 89.32 139.74 87.88 132.41 80.84 C 125.80 74.49 124.98 74.16 127.41 78.80 C 129.68 83.13 135.28 87.91 140.58 90.05 C 144.92 91.79 147.28 91.98 160.50 91.63 C 170.10 91.37 177.66 90.64 181.50 89.59 Z  M 82.25 83.26 C 80.41 82.02 78.68 81.00 78.39 81.00 C 78.11 81.00 79.36 83.07 81.18 85.60 C 84.27 89.90 84.52 90.05 85.03 87.86 C 85.47 86.02 84.88 85.05 82.25 83.26 Z  M 118.00 53.61 C 118.00 52.02 109.29 42.00 107.91 42.00 C 105.79 42.00 107.34 44.78 112.22 49.72 C 115.08 52.62 117.56 55.00 117.72 55.00 C 117.87 55.00 118.00 54.37 118.00 53.61 Z  M 77.71 41.41 C 77.59 41.31 76.10 41.45 74.39 41.71 C 71.50 42.15 71.36 42.36 72.39 44.61 C 73.50 47.04 73.50 47.04 75.71 44.31 C 76.92 42.81 77.82 41.50 77.71 41.41 Z  M 157.73 210.75 C 154.03 207.31 151.00 204.16 151.00 203.75 C 151.00 203.34 152.24 203.00 153.75 203.00 C 155.84 202.99 157.88 204.48 162.25 209.20 C 165.41 212.61 168.00 215.76 168.00 216.20 C 168.00 218.57 163.68 216.28 157.73 210.75 Z  M 163.83 208.42 C 157.77 202.54 157.41 201.94 158.97 200.53 C 159.90 199.68 160.91 199.24 161.21 199.54 C 162.25 200.58 173.05 187.49 176.02 181.59 C 179.50 174.69 180.08 166.86 177.35 163.83 C 176.43 162.82 176.17 162.00 176.76 162.00 C 177.35 162.00 178.09 162.56 178.41 163.25 C 178.72 163.94 178.73 163.49 178.43 162.26 C 177.99 160.48 178.21 160.14 179.49 160.64 C 181.41 161.37 191.16 173.17 190.45 173.89 C 190.18 174.16 187.71 172.17 184.98 169.48 C 177.64 162.25 178.92 165.82 186.58 173.93 C 191.43 179.08 193.07 181.51 192.83 183.20 C 192.52 185.33 192.07 185.09 186.74 180.09 C 183.57 177.12 180.73 174.94 180.43 175.24 C 180.12 175.54 182.64 178.75 186.02 182.36 C 189.71 186.30 192.03 189.62 191.83 190.66 C 191.57 191.99 189.94 190.94 184.75 186.08 C 176.35 178.23 175.92 179.71 184.07 188.42 C 188.77 193.44 189.94 195.28 189.24 196.54 C 188.47 197.92 187.32 197.21 181.93 192.09 C 178.41 188.74 175.41 186.00 175.27 186.00 C 173.99 186.00 175.89 188.85 180.50 193.83 C 185.73 199.48 187.14 202.00 185.06 202.00 C 184.54 202.00 181.37 199.46 178.03 196.36 C 174.68 193.26 171.74 190.92 171.50 191.16 C 171.26 191.40 173.78 194.61 177.10 198.29 C 182.39 204.15 183.70 207.00 181.11 207.00 C 180.69 207.00 177.54 204.47 174.13 201.38 C 170.71 198.28 167.73 195.94 167.50 196.16 C 167.28 196.39 169.55 199.33 172.55 202.70 C 176.31 206.92 177.80 209.35 177.36 210.50 C 176.85 211.84 175.49 210.94 170.39 205.89 C 166.90 202.44 163.80 199.87 163.49 200.18 C 163.18 200.49 165.18 203.39 167.95 206.62 C 173.40 212.98 173.66 213.53 171.69 214.29 C 170.98 214.56 167.44 211.92 163.83 208.42 Z  M 89.00 151.41 C 89.00 151.36 89.95 147.76 91.12 143.41 C 94.08 132.35 94.10 117.69 91.17 109.57 C 89.99 106.31 89.21 103.46 89.44 103.23 C 89.67 103.00 96.19 102.82 103.93 102.83 C 111.67 102.84 118.00 102.53 118.00 102.15 C 118.00 101.76 119.79 101.62 121.97 101.83 C 125.89 102.20 125.94 102.25 125.58 105.92 C 125.39 107.96 124.13 111.78 122.80 114.41 C 120.37 119.18 120.37 119.18 117.29 116.59 C 115.59 115.16 112.24 113.10 109.85 112.02 C 107.46 110.93 106.08 110.03 106.79 110.02 C 108.47 109.99 115.99 113.78 118.31 115.83 C 119.88 117.21 120.24 117.23 121.05 115.96 C 122.27 114.03 122.24 113.00 120.96 113.00 C 120.38 113.00 117.68 110.91 114.96 108.36 C 110.02 103.75 107.96 104.12 112.25 108.86 C 114.21 111.02 113.63 110.86 107.65 107.57 C 101.77 104.33 100.89 104.07 101.43 105.78 C 102.49 109.12 99.10 109.47 95.85 106.35 C 91.76 102.44 91.41 103.99 95.36 108.55 C 98.53 112.22 98.81 112.34 100.43 110.72 C 102.34 108.81 104.00 108.47 104.00 110.00 C 104.00 110.55 103.55 111.00 103.00 111.00 C 102.45 111.00 102.00 112.08 102.00 113.41 C 102.00 116.86 107.20 120.97 111.38 120.81 C 114.91 120.68 117.33 121.65 116.56 122.90 C 115.92 123.94 104.99 126.33 104.26 125.59 C 103.93 125.27 104.56 125.00 105.64 125.00 C 106.73 125.00 108.49 124.33 109.56 123.52 C 111.37 122.14 111.27 122.08 108.17 122.66 C 105.15 123.22 104.35 122.79 99.42 117.92 C 93.01 111.59 92.18 112.66 98.20 119.49 C 102.40 124.27 102.40 124.27 98.70 123.83 C 95.64 123.48 95.00 123.71 95.00 125.20 C 95.00 126.19 95.45 127.00 96.00 127.00 C 96.55 127.00 97.00 127.56 97.00 128.25 C 97.00 128.94 99.36 130.80 102.25 132.39 C 105.14 133.98 109.08 136.46 111.00 137.89 C 114.97 140.85 121.14 141.59 124.41 139.50 C 125.56 138.76 128.39 137.67 130.69 137.06 C 135.37 135.83 142.73 128.38 145.78 121.78 C 146.73 119.73 147.72 118.09 148.00 118.14 C 148.28 118.19 151.13 121.07 154.34 124.54 C 158.05 128.55 160.04 131.51 159.81 132.67 C 159.51 134.15 158.29 133.41 153.38 128.75 C 150.05 125.59 147.02 123.00 146.66 123.00 C 144.86 123.00 146.52 125.70 151.59 131.01 C 155.13 134.72 157.04 137.53 156.81 138.68 C 156.51 140.15 155.23 139.35 150.21 134.59 C 146.79 131.34 143.71 128.96 143.38 129.29 C 143.04 129.63 145.29 132.55 148.38 135.79 C 151.47 139.03 154.00 142.18 154.00 142.78 C 154.00 145.58 151.67 144.59 146.04 139.38 C 142.69 136.27 139.70 133.96 139.42 134.25 C 139.13 134.54 141.41 137.49 144.48 140.81 C 147.85 144.44 149.64 147.11 148.99 147.51 C 147.73 148.29 146.18 147.22 139.75 141.09 C 133.68 135.32 133.58 137.20 139.59 143.89 C 144.00 148.79 144.08 149.00 141.67 149.00 C 140.05 149.00 137.19 147.20 133.58 143.90 C 127.55 138.39 126.07 138.73 131.10 144.47 C 134.14 147.93 134.16 148.00 131.90 148.00 C 130.63 148.00 128.12 146.57 126.31 144.82 C 122.50 141.12 121.01 141.47 124.06 145.35 C 126.15 148.00 126.15 148.00 123.70 148.00 C 122.35 148.00 118.97 146.18 116.13 143.91 C 110.31 139.28 109.42 139.73 114.25 144.85 C 117.50 148.30 117.50 148.30 112.52 144.95 C 109.78 143.10 104.72 139.20 101.27 136.27 C 97.82 133.34 95.00 131.30 95.00 131.74 C 95.00 132.17 97.70 135.52 101.00 139.18 C 104.30 142.83 107.00 146.31 107.00 146.91 C 107.00 149.02 104.66 147.95 99.36 143.42 C 93.37 138.31 92.44 138.65 97.07 144.27 C 99.70 147.46 99.88 148.00 98.30 148.00 C 97.28 148.00 95.44 147.30 94.22 146.44 C 93.00 145.59 92.00 145.33 92.00 145.86 C 92.00 146.40 91.73 147.55 91.39 148.42 C 90.85 149.83 93.12 150.02 112.14 150.18 C 123.89 150.28 131.47 150.49 129.00 150.66 C 124.81 150.94 89.00 151.61 89.00 151.41 Z  M 123.95 109.00 C 123.94 107.31 119.19 103.48 118.26 104.41 C 117.93 104.74 118.64 106.05 119.83 107.32 C 121.02 108.59 122.01 110.50 122.02 111.56 C 122.03 113.18 122.19 113.25 123.00 112.00 C 123.53 111.17 123.96 109.83 123.95 109.00 Z  M 138.77 151.28 C 140.57 151.05 143.27 151.06 144.77 151.29 C 146.27 151.51 144.80 151.70 141.50 151.69 C 138.20 151.68 136.97 151.50 138.77 151.28 Z  M 154.99 122.50 C 148.50 116.50 148.50 116.50 148.85 110.00 C 149.14 104.45 148.86 103.08 146.92 100.62 C 145.68 99.04 142.82 96.87 140.58 95.81 C 137.11 94.16 136.95 93.96 139.50 94.48 C 141.15 94.82 143.72 95.97 145.21 97.05 C 146.70 98.12 148.41 99.00 149.00 99.00 C 150.45 99.00 160.00 107.99 160.00 109.35 C 160.00 109.95 157.54 108.00 154.52 105.02 C 147.01 97.61 146.34 99.42 153.71 107.21 C 160.89 114.79 163.00 117.80 163.00 120.44 C 163.00 122.00 161.69 121.14 157.03 116.53 C 149.01 108.60 148.10 110.20 155.96 118.38 C 159.93 122.51 162.05 125.51 161.82 126.67 C 161.54 128.14 160.21 127.33 154.99 122.50 Z  M 112.00 94.44 C 118.33 93.72 125.08 93.16 127.00 93.21 C 128.93 93.25 125.78 93.85 120.00 94.55 C 114.22 95.24 107.47 95.80 105.00 95.78 C 102.53 95.76 105.67 95.15 112.00 94.44 Z  M 99.00 91.50 C 99.00 90.62 99.93 89.99 101.25 89.97 C 102.49 89.95 104.37 89.28 105.44 88.47 C 108.17 86.41 109.33 86.64 110.66 89.51 C 111.68 91.71 111.58 92.00 109.84 92.00 C 108.76 92.00 106.93 91.50 105.78 90.88 C 104.02 89.94 103.79 90.02 104.32 91.38 C 104.80 92.65 104.29 93.00 101.97 93.00 C 100.00 93.00 99.00 92.50 99.00 91.50 Z  M 112.07 88.10 C 110.93 86.50 110.00 84.74 110.00 84.18 C 110.00 82.28 104.23 78.33 98.09 76.03 C 94.70 74.77 92.12 73.54 92.35 73.31 C 93.16 72.51 104.91 77.83 110.44 81.50 C 113.50 83.53 116.93 86.50 118.07 88.10 C 120.14 91.00 120.14 91.00 117.14 91.00 C 114.97 91.00 113.56 90.20 112.07 88.10 Z  M 38.30 63.04 C 35.16 61.13 31.30 56.37 32.17 55.49 C 32.42 55.25 34.83 57.29 37.52 60.02 C 42.92 65.51 43.03 65.93 38.30 63.04 Z  M 50.18 50.55 C 51.70 48.89 52.50 48.81 58.18 49.79 C 64.50 50.88 64.50 50.88 58.17 50.38 C 53.95 50.05 51.29 50.30 50.17 51.14 C 48.63 52.29 48.63 52.24 50.18 50.55 Z  M 181.98 81.48 C 180.11 79.55 177.10 76.96 175.29 75.73 C 171.37 73.06 171.04 71.00 174.55 71.00 C 177.42 71.00 181.50 69.09 187.75 64.81 C 192.68 61.44 193.28 59.06 189.25 58.86 C 186.78 58.74 186.73 58.68 188.83 58.28 C 191.50 57.77 197.07 61.14 202.44 66.51 C 208.41 72.47 206.40 72.53 199.83 66.59 C 192.98 60.39 190.95 59.90 196.01 65.67 C 199.85 70.04 198.61 71.16 193.45 67.97 C 191.49 66.76 189.70 65.96 189.47 66.19 C 189.24 66.43 191.51 69.05 194.52 72.02 C 197.54 75.00 200.00 77.78 200.00 78.22 C 200.00 80.43 195.48 78.44 190.40 74.00 C 182.39 66.99 181.21 67.79 188.75 75.12 C 192.19 78.46 195.00 81.37 195.00 81.60 C 195.00 83.28 190.82 81.19 185.81 77.00 C 178.24 70.67 176.18 70.53 182.09 76.75 C 189.02 84.03 189.63 85.00 187.32 85.00 C 186.26 85.00 183.86 83.42 181.98 81.48 Z  M 199.63 74.52 C 197.89 73.20 197.96 73.12 200.63 73.44 C 202.21 73.62 203.84 73.82 204.25 73.89 C 204.66 73.95 205.00 74.45 205.00 75.00 C 205.00 76.45 201.80 76.17 199.63 74.52 Z  M 124.42 70.25 C 124.13 69.29 123.25 67.23 122.45 65.67 C 121.65 64.11 121.02 62.09 121.04 61.17 C 121.10 59.14 124.45 65.39 125.38 69.25 C 126.10 72.24 125.27 73.10 124.42 70.25 Z  M 142.51 60.98 C 142.84 60.44 145.10 60.00 147.52 60.00 C 149.94 60.00 156.43 59.51 161.94 58.91 C 167.45 58.31 172.53 58.01 173.23 58.25 C 173.93 58.49 168.43 59.22 161.00 59.88 C 153.57 60.54 146.24 61.28 144.70 61.52 C 143.02 61.79 142.14 61.58 142.51 60.98 Z  M 137.35 59.48 C 137.03 58.64 137.08 54.16 137.47 49.52 C 138.17 41.09 138.17 41.09 140.47 43.76 C 142.40 46.00 143.02 46.23 144.31 45.16 C 145.62 44.07 145.76 44.19 145.29 45.99 C 144.93 47.37 145.54 48.94 147.05 50.55 C 152.21 56.05 164.56 52.11 176.16 41.25 C 181.59 36.18 184.00 31.66 184.00 26.56 C 184.00 21.15 181.60 18.29 175.41 16.34 C 172.45 15.41 170.21 14.45 170.45 14.22 C 170.68 13.99 173.04 14.52 175.69 15.40 C 183.14 17.88 198.02 32.55 197.98 37.39 C 197.97 39.09 196.93 38.38 192.63 33.75 C 185.09 25.62 183.58 26.57 190.92 34.84 C 197.89 42.67 199.56 47.78 193.25 41.93 C 185.88 35.10 184.00 33.67 183.31 34.36 C 182.93 34.74 185.49 37.96 189.02 41.52 C 194.06 46.60 195.16 48.24 194.20 49.20 C 193.24 50.16 191.71 49.16 187.02 44.52 C 183.74 41.27 180.73 38.94 180.33 39.33 C 179.94 39.73 182.25 42.72 185.47 45.97 C 190.45 51.00 191.14 52.13 190.06 53.43 C 188.94 54.77 188.01 54.27 182.72 49.48 C 174.98 42.48 172.93 42.34 179.78 49.28 C 182.65 52.19 185.00 54.89 185.00 55.29 C 185.00 56.90 177.33 52.78 174.77 49.80 C 170.91 45.31 170.10 47.09 173.91 51.70 C 176.87 55.27 176.93 55.52 175.01 55.82 C 173.88 56.00 171.58 54.99 169.90 53.57 C 165.88 50.19 164.29 50.29 167.02 53.75 C 168.94 56.18 169.00 56.54 167.52 56.84 C 166.60 57.02 165.06 56.46 164.10 55.59 C 161.81 53.51 159.89 53.54 160.69 55.64 C 161.21 56.98 160.80 57.18 158.41 56.78 C 156.81 56.51 154.71 55.94 153.74 55.53 C 152.38 54.95 152.12 55.15 152.60 56.39 C 153.82 59.58 149.72 58.01 144.79 53.40 C 138.77 47.77 137.26 48.34 142.59 54.22 C 146.30 58.33 146.37 58.51 144.17 58.83 C 142.92 59.01 141.23 58.60 140.42 57.93 C 139.61 57.26 138.63 57.04 138.23 57.44 C 137.83 57.84 138.38 58.80 139.44 59.58 C 141.16 60.84 141.19 61.00 139.66 61.00 C 138.71 61.00 137.67 60.31 137.35 59.48 Z  M 177.77 57.28 C 179.57 57.05 182.27 57.06 183.77 57.29 C 185.27 57.51 183.80 57.70 180.50 57.69 C 177.20 57.68 175.97 57.50 177.77 57.28 Z  M 151.50 39.53 C 154.25 36.96 155.63 35.13 154.58 35.46 C 153.21 35.89 151.55 34.99 148.85 32.35 C 143.79 27.41 142.78 28.76 147.45 34.20 C 150.33 37.57 150.78 38.57 149.53 38.83 C 148.64 39.01 146.10 37.52 143.87 35.50 C 141.64 33.49 139.59 32.07 139.31 32.36 C 138.65 33.02 143.96 40.00 145.12 40.00 C 146.60 40.00 146.10 41.75 144.43 42.39 C 143.57 42.72 141.78 42.20 140.46 41.24 C 137.96 39.43 137.49 36.80 138.64 31.05 C 139.18 28.36 139.63 27.94 141.49 28.41 C 142.71 28.71 144.03 28.63 144.43 28.23 C 144.84 27.83 147.94 26.97 151.33 26.33 C 154.72 25.68 158.74 24.84 160.25 24.46 C 162.82 23.81 163.00 23.97 163.00 26.96 C 163.00 29.52 161.85 31.31 157.25 35.91 C 154.08 39.08 150.37 42.24 149.00 42.94 C 147.52 43.70 148.54 42.31 151.50 39.53 Z  M 162.00 27.58 C 162.00 26.67 161.29 26.37 159.94 26.73 C 158.65 27.06 158.10 27.81 158.45 28.72 C 159.48 31.40 157.89 32.06 155.30 30.02 C 151.35 26.91 150.61 27.62 153.71 31.53 C 156.50 35.07 156.50 35.07 159.25 32.02 C 160.76 30.34 162.00 28.34 162.00 27.58 Z  M 138.56 15.01 C 139.69 14.57 147.12 13.97 155.06 13.67 C 168.83 13.17 168.99 13.18 158.50 14.01 C 152.45 14.48 145.03 15.08 142.00 15.35 C 138.66 15.64 137.31 15.51 138.56 15.01 Z  M 130.64 11.73 C 125.72 9.18 118.54 8.31 116.49 10.01 C 115.20 11.08 115.06 11.02 115.58 9.64 C 116.78 6.54 128.51 8.10 133.17 11.99 C 136.01 14.36 135.61 14.32 130.64 11.73 Z "/>
</g>
</svg>