<?xml version="1.0" encoding="UTF-8" standalone="no"?>
<!DOCTYPE svg PUBLIC "-//W3C//DTD SVG 1.1//EN" "http://www.w3.org/Graphics/SVG/1.1/DTD/svg11.dtd" >
<svg xmlns="http://www.w3.org/2000/svg" xmlns:xlink="http://www.w3.org/1999/xlink" version="1.1" viewBox="0 0 256 256">
 <g >
 <path fill="currentColor"
d=" M 65.08 242.08 C 67.39 239.76 68.00 238.26 68.02 234.83 C 68.04 232.45 70.91 183.04 74.41 125.03 C 78.03 65.13 80.43 18.64 79.97 17.43 C 77.80 11.71 71.23 10.16 66.53 14.25 C 63.94 16.50 63.94 16.50 57.36 126.23 C 53.73 186.58 51.06 237.10 51.41 238.50 C 53.11 245.25 60.08 247.08 65.08 242.08 Z  M 167.93 240.54 C 169.48 239.73 171.04 238.35 171.38 237.46 C 171.72 236.56 172.00 202.35 172.00 161.42 C 172.00 87.00 172.00 87.00 194.00 87.00 C 216.00 87.00 216.00 87.00 216.00 144.00 C 216.00 201.00 216.00 201.00 202.56 201.00 C 189.82 201.00 188.97 201.13 186.33 203.39 C 182.61 206.60 182.43 212.70 185.95 216.44 C 188.35 219.00 188.35 219.00 207.92 218.97 C 228.40 218.93 229.49 218.72 231.84 214.32 C 232.69 212.72 233.00 194.05 233.00 144.70 C 233.00 71.01 233.42 77.56 228.23 71.00 C 228.01 70.72 215.39 70.28 200.17 70.00 C 172.50 69.50 172.50 69.50 172.22 54.75 C 171.95 40.00 171.95 40.00 204.02 40.00 C 237.63 40.00 240.78 39.63 242.38 35.46 C 243.58 32.32 242.98 28.24 240.93 25.63 C 238.85 23.00 238.85 23.00 165.88 23.00 C 92.91 23.00 92.91 23.00 90.45 25.45 C 87.72 28.19 87.19 33.35 89.36 36.21 C 91.94 39.60 95.80 40.00 125.57 40.00 C 155.00 40.00 155.00 40.00 155.00 55.00 C 155.00 70.00 155.00 70.00 129.72 70.00 C 104.45 70.00 104.45 70.00 101.22 72.94 C 98.00 75.89 98.00 75.89 98.00 144.99 C 98.00 214.09 98.00 214.09 100.45 216.55 C 103.07 219.16 106.84 219.69 110.15 217.92 C 114.92 215.37 115.00 214.16 115.00 148.53 C 115.00 87.00 115.00 87.00 135.00 87.00 C 155.00 87.00 155.00 87.00 155.00 160.35 C 155.00 209.12 155.35 234.71 156.05 236.72 C 157.75 241.58 162.78 243.20 167.93 240.54 Z  M 38.41 171.92 C 41.00 168.85 41.00 168.85 41.00 103.36 C 41.00 55.49 40.69 37.28 39.84 35.68 C 38.06 32.35 35.86 31.07 31.82 31.03 C 29.02 31.01 27.65 31.63 26.07 33.63 C 24.02 36.24 24.00 37.00 24.00 103.00 C 24.00 169.00 24.02 169.76 26.07 172.37 C 29.16 176.28 34.91 176.08 38.41 171.92 Z "/>
</g>
</svg>