<?xml version="1.0" encoding="UTF-8" standalone="no"?>
<!DOCTYPE svg PUBLIC "-//W3C//DTD SVG 1.1//EN" "http://www.w3.org/Graphics/SVG/1.1/DTD/svg11.dtd" >
<svg xmlns="http://www.w3.org/2000/svg" xmlns:xlink="http://www.w3.org/1999/xlink" version="1.1" viewBox="0 0 256 256">
 <g >
 <path fill="currentColor"
d=" M 198.36 233.36 C 200.98 230.74 201.00 230.63 201.00 215.32 C 201.00 200.29 200.94 199.85 198.55 197.45 C 195.37 194.28 190.97 194.26 187.31 197.41 C 184.65 199.69 184.48 200.34 184.15 209.41 C 183.81 219.00 183.81 219.00 133.95 219.00 C 84.09 219.00 84.09 219.00 83.80 192.91 C 83.50 166.82 83.50 166.82 80.69 164.41 C 77.19 161.40 73.85 161.34 70.58 164.25 C 68.05 166.50 68.05 166.50 67.96 198.50 C 67.91 216.10 67.90 231.05 67.94 231.72 C 67.97 232.39 69.24 233.61 70.75 234.43 C 73.10 235.70 82.39 235.93 134.61 235.96 C 195.73 236.00 195.73 236.00 198.36 233.36 Z  M 27.89 232.25 C 30.34 230.22 49.00 178.58 49.00 173.83 C 49.00 167.40 40.08 163.49 35.38 167.86 C 32.88 170.19 15.00 220.53 15.00 225.24 C 15.00 232.28 22.76 236.50 27.89 232.25 Z  M 239.93 233.04 C 242.77 231.52 244.28 226.88 243.02 223.55 C 241.77 220.27 205.45 166.03 203.41 164.40 C 202.28 163.50 202.48 162.90 204.52 160.98 C 207.00 158.65 207.00 158.65 207.02 128.58 C 207.03 98.50 207.03 98.50 216.63 117.00 C 221.91 127.17 227.16 136.51 228.29 137.75 C 231.31 141.05 237.18 140.85 239.93 137.37 C 241.07 135.92 242.00 133.45 242.00 131.89 C 242.00 130.20 235.35 116.01 225.50 96.69 C 216.43 78.89 209.00 64.07 209.00 63.76 C 209.00 63.45 215.34 63.04 223.09 62.85 C 237.10 62.50 237.19 62.49 239.59 59.69 C 242.74 56.03 242.72 51.63 239.55 48.45 C 237.16 46.07 236.69 46.00 222.05 46.00 C 207.00 46.00 207.00 46.00 207.00 33.13 C 207.00 21.63 206.78 19.99 204.93 17.63 C 202.35 14.36 196.45 14.00 192.86 16.91 C 190.62 18.72 190.48 19.53 190.17 32.41 C 189.85 46.00 189.85 46.00 177.53 46.00 C 162.66 46.00 160.46 47.05 160.64 54.00 C 160.83 61.25 162.94 62.41 176.96 63.00 C 188.87 63.50 188.87 63.50 173.43 96.83 C 164.95 115.16 158.00 130.82 158.00 131.63 C 158.00 134.02 160.87 138.86 162.94 139.97 C 165.63 141.41 169.19 141.25 171.56 139.59 C 172.70 138.79 177.01 130.17 181.54 119.63 C 189.50 101.07 189.50 101.07 190.00 129.93 C 190.45 155.63 190.69 159.01 192.26 160.73 C 193.94 162.59 193.93 162.75 192.01 164.49 C 187.47 168.60 188.65 171.19 209.11 201.85 C 219.62 217.61 229.12 231.29 230.22 232.25 C 232.41 234.17 237.11 234.55 239.93 233.04 Z  M 154.93 213.37 C 158.85 208.38 158.06 206.68 140.96 183.37 C 124.93 161.50 124.93 161.50 129.88 160.98 C 132.71 160.68 135.73 159.65 136.92 158.58 C 138.95 156.74 139.00 155.85 139.00 124.35 C 139.00 92.00 139.00 92.00 145.11 92.00 C 149.57 92.00 151.09 92.34 150.75 93.25 C 146.68 104.33 143.91 114.51 144.43 116.57 C 146.48 124.76 158.97 125.29 161.38 117.28 C 164.57 106.72 171.00 82.83 171.00 81.55 C 171.00 80.64 169.81 78.80 168.35 77.45 C 165.75 75.04 165.42 75.00 147.85 75.00 C 138.03 75.00 130.00 74.75 130.00 74.44 C 130.00 74.14 137.66 65.14 147.02 54.45 C 156.38 43.76 164.54 33.91 165.16 32.56 C 166.61 29.36 164.02 23.51 160.76 22.63 C 159.52 22.30 141.60 22.02 120.94 22.01 C 84.51 22.00 83.31 22.06 81.19 24.04 C 78.01 27.00 78.20 32.90 81.58 36.08 C 84.16 38.50 84.16 38.50 111.13 38.80 C 138.10 39.09 138.10 39.09 130.30 47.97 C 126.01 52.85 122.24 56.88 121.92 56.92 C 121.60 56.96 118.19 53.85 114.34 50.00 C 106.30 41.96 103.35 41.15 98.08 45.59 C 92.63 50.17 93.55 52.81 104.50 63.95 C 109.72 69.27 114.00 73.93 114.00 74.31 C 114.00 74.69 106.44 75.00 97.19 75.00 C 78.03 75.00 77.00 75.34 76.09 81.92 C 75.50 86.13 75.50 86.13 68.86 74.81 C 62.23 63.50 62.23 63.50 74.59 63.00 C 85.72 62.55 87.17 62.28 89.20 60.24 C 92.08 57.36 92.27 51.06 89.57 48.08 C 87.85 46.18 86.58 46.00 74.85 46.00 C 62.00 46.00 62.00 46.00 62.00 33.58 C 62.00 21.67 61.89 21.03 59.41 18.08 C 56.27 14.35 51.60 13.95 47.63 17.07 C 45.02 19.13 45.00 19.26 45.00 32.57 C 45.00 46.00 45.00 46.00 31.31 46.00 C 18.64 46.00 17.46 46.16 15.31 48.17 C 11.18 52.06 12.90 60.07 18.29 61.95 C 19.94 62.53 26.18 63.00 32.15 63.00 C 38.12 63.00 43.00 63.36 43.00 63.80 C 43.00 64.24 36.47 79.16 28.50 96.97 C 20.52 114.77 14.00 130.40 14.00 131.71 C 14.00 137.21 22.73 141.18 27.28 137.75 C 28.19 137.06 32.26 129.17 36.33 120.22 C 40.40 111.27 44.01 103.66 44.36 103.31 C 44.71 102.95 45.00 115.73 45.00 131.70 C 45.00 159.55 45.08 160.84 47.07 163.37 C 50.16 167.28 55.91 167.08 59.41 162.92 C 62.00 159.85 62.00 159.85 62.03 127.67 C 62.06 95.50 62.06 95.50 66.32 103.19 C 72.12 113.64 73.48 115.00 78.20 115.00 C 81.00 115.00 82.78 114.31 84.55 112.55 C 87.46 109.63 87.65 106.59 85.17 102.50 C 78.18 90.96 77.55 89.61 79.55 90.50 C 80.62 90.98 88.75 91.63 97.61 91.94 C 113.72 92.50 113.72 92.50 94.30 114.50 C 83.63 126.60 74.02 137.85 72.95 139.50 C 70.13 143.85 70.41 148.39 73.63 150.93 C 76.23 152.97 81.50 153.67 83.55 152.23 C 84.13 151.83 93.04 141.94 103.35 130.25 C 113.66 118.56 122.30 109.00 122.55 109.00 C 122.80 109.00 123.00 116.88 123.00 126.50 C 123.00 144.00 123.00 144.00 112.57 144.00 C 97.75 144.00 94.10 145.81 94.03 153.18 C 93.98 158.79 97.40 161.00 106.13 161.00 C 109.91 161.00 113.00 161.16 113.00 161.35 C 113.00 161.54 112.25 163.19 111.34 165.03 C 109.79 168.13 109.79 168.57 111.32 171.24 C 114.50 176.78 142.17 213.99 143.82 214.96 C 144.75 215.50 147.15 215.95 149.18 215.97 C 151.98 215.99 153.35 215.37 154.93 213.37 Z "/>
</g>
</svg>