<?xml version="1.0" encoding="UTF-8" standalone="no"?>
<!DOCTYPE svg PUBLIC "-//W3C//DTD SVG 1.1//EN" "http://www.w3.org/Graphics/SVG/1.1/DTD/svg11.dtd" >
<svg xmlns="http://www.w3.org/2000/svg" xmlns:xlink="http://www.w3.org/1999/xlink" version="1.1" viewBox="0 0 256 256">
 <g >
 <path fill="currentColor"
d=" M 30.34 239.75 C 31.69 238.40 40.37 218.07 51.86 189.35 C 67.66 149.86 71.07 140.48 70.81 137.19 C 70.52 133.49 68.78 131.32 48.56 109.59 C 27.34 86.77 26.50 86.00 22.81 86.00 C 17.92 86.00 15.00 88.78 15.00 93.42 C 15.00 97.40 14.46 96.71 37.13 121.83 C 53.75 140.26 53.75 140.26 51.46 145.88 C 50.21 148.97 41.71 169.68 32.59 191.89 C 23.46 214.10 16.00 233.42 16.00 234.82 C 16.00 241.31 25.51 244.58 30.34 239.75 Z  M 233.16 236.75 C 237.77 233.02 238.00 231.66 238.00 208.23 C 238.00 185.91 238.00 185.91 235.55 183.45 C 232.10 180.01 227.65 180.19 223.92 183.92 C 221.00 186.85 221.00 186.85 221.00 203.92 C 221.00 221.00 221.00 221.00 187.00 221.00 C 153.00 221.00 153.00 221.00 153.00 199.00 C 153.00 177.00 153.00 177.00 185.43 177.00 C 217.85 177.00 217.85 177.00 219.93 174.37 C 221.96 171.79 222.00 170.75 222.00 125.80 C 222.00 73.54 222.08 74.05 214.33 74.02 C 204.98 73.97 205.00 73.86 205.00 120.45 C 205.00 160.00 205.00 160.00 179.00 160.00 C 153.00 160.00 153.00 160.00 153.00 111.04 C 153.00 62.07 153.00 62.07 189.59 61.79 C 226.18 61.50 226.18 61.50 228.59 58.69 C 231.60 55.20 231.74 50.21 228.94 46.65 C 226.87 44.02 226.87 44.02 190.19 43.76 C 153.50 43.50 153.50 43.50 153.00 31.17 C 152.44 17.38 151.74 16.00 145.24 16.00 C 137.78 16.00 136.00 19.49 136.00 34.15 C 136.00 44.00 136.00 44.00 104.54 44.00 C 73.46 44.00 73.05 44.03 71.04 46.19 C 68.40 49.02 68.34 54.96 70.91 58.14 C 72.82 60.50 72.82 60.50 104.41 60.79 C 136.00 61.08 136.00 61.08 136.00 110.54 C 136.00 160.00 136.00 160.00 114.03 160.00 C 92.06 160.00 92.06 160.00 91.78 118.41 C 91.50 76.82 91.50 76.82 89.14 74.91 C 85.95 72.33 79.63 72.37 77.00 75.00 C 75.06 76.94 75.00 78.33 75.00 124.69 C 75.00 172.27 75.00 172.38 77.17 174.69 C 79.35 177.00 79.36 177.00 107.67 177.00 C 136.00 177.00 136.00 177.00 136.01 202.25 C 136.02 216.14 136.30 228.51 136.63 229.75 C 136.96 230.99 139.07 233.35 141.31 235.00 C 145.39 238.00 145.39 238.00 188.51 238.00 C 221.50 238.00 231.98 237.71 233.16 236.75 Z  M 72.02 72.96 C 72.62 71.84 72.82 70.01 72.46 68.88 C 71.87 67.01 31.64 22.07 28.06 19.28 C 25.37 17.18 20.15 17.76 17.45 20.45 C 14.17 23.74 14.27 27.96 17.73 32.17 C 24.86 40.86 59.64 77.30 61.45 77.98 C 63.99 78.94 70.47 75.86 72.02 72.96 Z "/>
</g>
</svg>