<?xml version="1.0" encoding="UTF-8" standalone="no"?>
<!DOCTYPE svg PUBLIC "-//W3C//DTD SVG 1.1//EN" "http://www.w3.org/Graphics/SVG/1.1/DTD/svg11.dtd" >
<svg xmlns="http://www.w3.org/2000/svg" xmlns:xlink="http://www.w3.org/1999/xlink" version="1.1" viewBox="0 0 256 256">
 <g >
 <path fill="currentColor"
d=" M 115.69 240.59 C 118.45 238.22 118.51 237.95 118.85 225.59 C 119.21 213.00 119.21 213.00 171.65 213.00 C 224.09 213.00 224.09 213.00 226.55 210.55 C 228.24 208.85 229.00 206.98 229.00 204.50 C 229.00 202.02 228.24 200.15 226.55 198.45 C 224.09 196.00 224.09 196.00 171.55 196.00 C 119.00 196.00 119.00 196.00 119.00 182.00 C 119.00 168.00 119.00 168.00 166.93 168.00 C 214.85 168.00 214.85 168.00 216.93 165.37 C 219.52 162.07 219.59 156.95 217.09 153.86 C 215.18 151.50 215.18 151.50 167.09 151.22 C 119.00 150.94 119.00 150.94 119.00 138.47 C 119.00 126.00 119.00 126.00 174.05 126.00 C 229.09 126.00 229.09 126.00 231.55 123.55 C 235.87 119.22 233.83 111.18 227.88 109.11 C 225.66 108.34 202.06 108.00 149.86 108.00 C 75.02 108.00 75.02 108.00 78.01 103.14 C 79.65 100.47 81.00 97.15 81.00 95.77 C 81.00 92.15 77.39 88.00 74.23 88.00 C 72.72 88.00 72.00 87.64 72.55 87.16 C 73.69 86.15 125.05 66.96 126.55 66.98 C 127.13 66.99 145.13 73.55 166.55 81.55 C 209.41 97.56 212.67 98.56 216.43 96.85 C 218.90 95.72 221.69 89.92 220.60 88.17 C 220.31 87.69 222.25 87.51 224.92 87.77 C 228.91 88.15 230.14 87.86 231.88 86.12 C 233.91 84.09 234.00 83.08 234.00 61.63 C 234.00 40.55 233.88 39.12 231.94 36.64 C 229.87 34.02 229.87 34.02 182.19 33.76 C 134.50 33.50 134.50 33.50 134.21 25.29 C 133.95 17.82 133.69 16.90 131.33 15.04 C 128.02 12.44 123.98 12.44 120.67 15.04 C 118.31 16.90 118.05 17.82 117.79 25.29 C 117.50 33.50 117.50 33.50 73.04 33.76 C 28.59 34.02 28.59 34.02 25.79 36.70 C 23.00 39.37 23.00 39.37 23.00 62.25 C 23.00 89.53 23.40 90.95 31.14 90.98 C 33.25 90.99 35.77 90.20 37.14 89.09 C 39.44 87.23 39.51 86.72 39.81 69.09 C 40.13 51.00 40.13 51.00 78.73 51.00 C 99.96 51.00 117.14 51.19 116.91 51.42 C 116.68 51.66 100.32 58.19 80.57 65.94 C 60.82 73.70 44.01 80.58 43.22 81.23 C 40.71 83.31 39.85 87.03 41.05 90.65 C 43.15 97.00 46.91 97.41 59.08 92.64 C 67.64 89.28 67.64 89.28 44.32 129.50 C 27.21 159.01 21.00 170.58 21.00 172.91 C 21.00 179.06 28.57 183.23 33.36 179.72 C 34.32 179.02 41.99 166.53 50.40 151.97 C 65.70 125.50 65.70 125.50 83.60 125.50 C 101.50 125.50 101.50 125.50 101.76 182.18 C 102.02 238.87 102.02 238.87 104.64 240.93 C 108.13 243.68 112.25 243.55 115.69 240.59 Z  M 215.45 82.11 C 214.93 81.61 196.72 74.60 175.00 66.51 C 153.28 58.43 135.31 51.63 135.08 51.41 C 134.85 51.18 153.17 51.00 175.79 51.00 C 216.90 51.00 216.90 51.00 217.20 67.00 C 217.37 75.80 217.25 83.00 216.95 83.00 C 216.65 83.00 215.97 82.60 215.45 82.11 Z "/>
</g>
</svg>