<?xml version="1.0" encoding="UTF-8" standalone="no"?>
<!DOCTYPE svg PUBLIC "-//W3C//DTD SVG 1.1//EN" "http://www.w3.org/Graphics/SVG/1.1/DTD/svg11.dtd" >
<svg xmlns="http://www.w3.org/2000/svg" xmlns:xlink="http://www.w3.org/1999/xlink" version="1.1" viewBox="0 0 256 256">
 <g >
 <path fill="currentColor"
d=" M 25.81 241.42 C 27.10 240.52 32.60 230.78 38.57 218.86 C 47.08 201.86 49.39 197.99 50.78 198.42 C 51.73 198.72 69.38 202.80 90.00 207.48 C 110.62 212.17 128.28 216.34 129.24 216.75 C 130.70 217.38 129.97 218.59 124.53 224.50 C 117.10 232.58 116.17 236.26 120.45 240.55 C 124.86 244.95 128.17 243.99 136.86 235.77 C 153.38 220.15 146.61 220.92 187.96 230.00 C 207.96 234.40 225.59 238.00 227.13 238.00 C 231.24 238.00 234.00 234.52 234.00 229.33 C 234.00 225.97 233.51 224.74 231.75 223.64 C 230.51 222.86 215.78 219.23 199.00 215.56 C 182.22 211.89 167.87 208.68 167.10 208.42 C 166.20 208.12 176.11 197.45 194.35 179.09 C 219.87 153.38 223.00 149.88 223.00 147.04 C 223.00 144.84 222.09 142.93 220.08 140.92 C 217.15 138.00 217.15 138.00 148.00 138.00 C 78.85 138.00 78.85 138.00 83.22 129.75 C 87.59 121.50 87.59 121.50 161.89 121.00 C 236.18 120.50 236.18 120.50 238.09 118.14 C 240.72 114.89 240.48 111.96 237.25 107.72 C 234.82 104.54 231.52 102.90 208.50 93.42 C 181.13 82.15 176.61 80.11 178.92 80.04 C 179.70 80.02 181.17 79.26 182.17 78.35 C 183.69 76.97 184.00 75.13 184.00 67.39 C 184.00 58.09 184.00 58.09 210.09 57.80 C 236.18 57.50 236.18 57.50 238.59 54.69 C 241.33 51.51 241.78 46.44 239.58 43.44 C 238.26 41.63 236.42 41.47 211.33 41.00 C 184.50 40.50 184.50 40.50 184.22 29.03 C 183.96 18.91 183.68 17.29 181.79 15.28 C 178.91 12.21 173.96 12.27 170.31 15.41 C 167.58 17.76 167.49 18.14 167.16 29.41 C 166.83 41.00 166.83 41.00 127.91 41.00 C 89.00 41.00 89.00 41.00 89.00 29.92 C 89.00 19.01 88.96 18.80 86.08 15.92 C 82.37 12.22 77.34 11.94 74.21 15.28 C 72.32 17.29 72.04 18.91 71.78 29.03 C 71.50 40.50 71.50 40.50 44.85 41.00 C 20.46 41.46 18.03 41.66 16.10 43.40 C 13.20 46.03 13.34 51.12 16.41 54.69 C 18.82 57.50 18.82 57.50 45.41 57.80 C 72.00 58.09 72.00 58.09 72.00 66.94 C 72.00 77.99 73.37 80.27 79.97 80.18 C 86.92 80.09 88.43 77.84 88.85 66.97 C 89.20 58.00 89.20 58.00 128.10 58.00 C 167.00 58.00 167.00 58.00 167.00 65.92 C 167.00 70.27 167.22 74.44 167.50 75.17 C 167.81 76.00 166.52 77.12 164.04 78.16 C 159.76 79.95 158.27 82.97 159.42 87.53 C 160.37 91.31 162.74 92.88 175.70 98.28 C 182.19 100.99 187.69 103.38 187.92 103.60 C 188.15 103.82 167.58 104.00 142.20 104.00 C 96.08 104.00 96.08 104.00 101.63 92.63 C 107.12 81.39 107.16 81.22 105.57 78.14 C 104.69 76.43 102.73 74.39 101.21 73.61 C 98.86 72.39 97.99 72.39 95.17 73.57 C 92.28 74.78 91.01 76.75 84.91 89.48 C 77.94 104.00 77.94 104.00 52.12 104.00 C 25.49 104.00 20.84 104.57 18.98 108.04 C 17.38 111.03 17.86 115.55 20.07 118.37 C 22.15 121.00 22.15 121.00 45.07 121.00 C 57.68 121.00 68.02 121.34 68.05 121.75 C 68.07 122.16 55.66 147.25 40.47 177.50 C 13.19 231.80 12.86 232.55 13.96 236.22 C 15.81 242.39 21.11 244.71 25.81 241.42 Z  M 101.00 192.48 C 77.08 186.80 57.38 182.12 57.24 182.08 C 57.10 182.04 59.92 176.15 63.50 169.00 C 70.01 156.00 70.01 156.00 132.26 156.04 C 194.50 156.07 194.50 156.07 170.50 179.50 C 157.30 192.38 146.05 202.89 145.50 202.86 C 144.95 202.84 124.92 198.16 101.00 192.48 Z "/>
</g>
</svg>