<?xml version="1.0" encoding="UTF-8" standalone="no"?>
<!DOCTYPE svg PUBLIC "-//W3C//DTD SVG 1.1//EN" "http://www.w3.org/Graphics/SVG/1.1/DTD/svg11.dtd" >
<svg xmlns="http://www.w3.org/2000/svg" xmlns:xlink="http://www.w3.org/1999/xlink" version="1.1" viewBox="0 0 256 256">
 <g >
 <path fill="currentColor"
d=" M 136.49 239.75 C 138.90 237.67 140.47 231.45 156.92 159.00 C 166.72 115.83 175.06 79.04 175.45 77.25 C 176.16 74.00 176.16 74.00 195.58 74.00 C 215.00 74.00 215.00 74.00 215.00 149.50 C 215.00 225.00 215.00 225.00 188.25 225.03 C 159.39 225.07 159.04 225.13 157.01 230.48 C 155.55 234.33 157.30 239.36 160.62 240.87 C 162.42 241.69 172.63 242.02 194.69 241.97 C 226.19 241.90 226.19 241.90 228.60 239.49 C 231.00 237.09 231.00 237.09 231.00 149.03 C 231.00 60.97 231.00 60.97 227.75 58.99 C 224.77 57.17 222.67 57.01 202.75 57.00 C 183.77 57.00 181.00 56.80 181.00 55.45 C 181.00 54.60 182.61 47.51 184.59 39.70 C 188.56 23.98 188.64 18.74 184.95 15.76 C 181.96 13.34 177.63 13.56 174.44 16.30 C 172.10 18.31 171.24 20.96 167.56 37.55 C 163.34 56.50 163.34 56.50 142.82 57.00 C 119.55 57.57 119.00 57.74 119.00 64.45 C 119.00 67.67 119.60 69.22 121.58 71.08 C 124.07 73.42 124.74 73.51 141.58 73.83 C 151.16 74.02 159.00 74.39 159.00 74.67 C 159.00 74.95 152.25 104.80 144.00 141.00 C 135.75 177.20 128.99 207.20 128.99 207.66 C 128.98 208.12 128.41 207.38 127.71 206.02 C 125.35 201.35 122.68 201.29 100.74 205.38 C 89.61 207.46 79.71 209.38 78.75 209.65 C 77.11 210.10 77.00 208.25 77.00 180.57 C 77.00 151.00 77.00 151.00 97.37 151.00 C 116.45 151.00 117.90 150.87 120.37 148.93 C 122.31 147.40 123.00 145.94 123.00 143.36 C 123.00 138.62 121.63 136.42 117.87 135.11 C 113.47 133.57 25.53 133.57 21.13 135.11 C 15.48 137.08 14.07 144.16 18.45 148.55 C 20.89 150.98 21.04 151.00 40.45 151.00 C 60.00 151.00 60.00 151.00 60.00 181.92 C 60.00 212.83 60.00 212.83 55.25 213.81 C 52.64 214.34 43.59 216.04 35.13 217.59 C 17.30 220.85 15.00 222.05 15.00 228.12 C 15.00 232.47 18.41 237.00 21.70 237.00 C 25.20 237.01 122.53 218.95 124.25 217.97 C 126.38 216.77 126.38 216.83 124.50 226.66 C 122.57 236.74 122.56 236.66 125.45 239.55 C 128.57 242.66 133.03 242.74 136.49 239.75 Z  M 31.38 127.69 C 33.10 125.87 43.23 114.84 53.90 103.19 C 64.57 91.54 73.57 82.03 73.90 82.06 C 74.23 82.10 83.05 91.80 93.50 103.62 C 103.95 115.45 113.98 126.45 115.78 128.06 C 122.09 133.70 130.00 130.88 130.00 122.99 C 130.00 119.29 128.70 117.58 107.95 93.99 C 85.91 68.93 85.91 68.93 88.20 66.07 C 89.47 64.49 95.27 58.10 101.09 51.85 C 106.92 45.61 112.18 39.06 112.77 37.30 C 114.10 33.41 112.63 29.61 109.20 28.05 C 107.71 27.37 91.28 27.00 62.41 27.00 C 17.91 27.00 17.91 27.00 15.33 29.58 C 13.15 31.76 12.84 32.78 13.30 36.21 C 14.31 43.71 12.98 43.44 51.48 44.00 C 85.89 44.50 85.89 44.50 52.90 80.39 C 34.76 100.14 19.04 117.41 17.96 118.78 C 13.61 124.30 17.35 131.00 24.77 131.00 C 27.43 131.00 29.01 130.21 31.38 127.69 Z "/>
</g>
</svg>