<?xml version="1.0" encoding="UTF-8" standalone="no"?>
<!DOCTYPE svg PUBLIC "-//W3C//DTD SVG 1.1//EN" "http://www.w3.org/Graphics/SVG/1.1/DTD/svg11.dtd" >
<svg xmlns="http://www.w3.org/2000/svg" xmlns:xlink="http://www.w3.org/1999/xlink" version="1.1" viewBox="0 0 256 256">
 <g >
 <path fill="currentColor"
d=" M 223.09 233.14 C 224.89 230.91 225.00 228.73 225.00 194.44 C 225.00 158.11 225.00 158.11 222.59 155.31 C 220.17 152.50 220.17 152.50 175.44 152.22 C 136.99 151.98 130.97 151.74 132.60 150.55 C 134.36 149.27 134.54 147.24 135.00 123.83 C 135.50 98.50 135.50 98.50 175.75 98.24 C 216.00 97.98 216.00 97.98 216.00 106.11 C 216.00 112.94 215.78 114.06 214.61 113.09 C 212.59 111.41 154.92 98.85 152.22 99.50 C 149.60 100.13 146.01 105.45 146.00 108.69 C 146.00 109.90 147.01 112.04 148.25 113.44 C 150.25 115.70 153.67 116.67 178.50 121.99 C 207.60 128.23 210.85 128.69 214.07 126.96 C 215.88 125.99 216.00 126.31 216.00 132.33 C 216.00 140.69 218.29 144.00 224.07 144.00 C 226.67 144.00 228.68 143.32 230.00 142.00 C 231.90 140.10 232.00 138.69 231.97 113.25 C 231.94 90.97 231.68 86.17 230.43 84.50 C 228.96 82.56 227.44 82.48 182.21 82.00 C 135.50 81.50 135.50 81.50 135.18 79.25 C 134.86 77.00 134.86 77.00 174.28 77.00 C 199.23 77.00 214.81 76.61 216.71 75.95 C 222.01 74.11 223.74 66.49 219.83 62.31 C 217.72 60.07 217.14 60.00 200.33 60.00 C 183.00 60.00 183.00 60.00 183.00 55.55 C 183.00 51.09 183.00 51.09 210.09 50.80 C 237.18 50.50 237.18 50.50 239.59 47.69 C 242.74 44.03 242.72 39.63 239.55 36.45 C 237.09 34.00 237.09 34.00 210.05 34.00 C 183.00 34.00 183.00 34.00 183.00 27.31 C 183.00 19.06 180.82 16.00 174.94 16.00 C 168.69 16.00 166.65 18.54 166.18 26.88 C 165.77 34.00 165.77 34.00 127.50 34.00 C 89.23 34.00 89.23 34.00 88.82 26.88 C 88.47 20.59 88.10 19.48 85.65 17.38 C 82.03 14.26 77.62 14.29 74.45 17.45 C 72.31 19.60 72.00 20.81 72.00 26.95 C 72.00 34.00 72.00 34.00 45.13 34.00 C 19.47 34.00 18.15 34.09 15.63 36.07 C 12.16 38.81 12.06 43.80 15.41 47.69 C 17.82 50.50 17.82 50.50 44.91 50.80 C 72.00 51.09 72.00 51.09 72.00 55.55 C 72.00 60.00 72.00 60.00 55.31 60.00 C 39.56 60.00 38.50 60.12 36.31 62.17 C 33.84 64.50 33.20 69.64 34.98 72.96 C 36.94 76.63 41.13 77.00 80.72 77.00 C 119.14 77.00 119.14 77.00 118.82 79.25 C 118.50 81.50 118.50 81.50 72.17 82.00 C 27.77 82.48 25.78 82.58 24.42 84.44 C 23.28 86.00 23.00 91.56 23.00 112.74 C 23.00 139.09 23.00 139.09 25.45 141.55 C 30.49 146.58 39.96 143.17 40.03 136.30 C 40.06 133.99 40.23 133.80 41.04 135.17 C 42.38 137.47 44.80 138.15 74.38 144.47 C 101.01 150.16 106.35 150.82 109.09 148.72 C 112.88 145.80 113.19 139.06 109.65 136.13 C 108.91 135.51 94.96 131.89 78.65 128.08 C 53.85 122.30 48.42 121.32 45.52 122.12 C 43.62 122.65 41.61 123.85 41.06 124.79 C 40.36 125.99 40.05 122.21 40.03 112.24 C 40.00 97.98 40.00 97.98 79.25 98.24 C 118.50 98.50 118.50 98.50 118.79 108.94 C 119.07 119.37 119.07 119.37 116.65 116.75 C 113.91 113.80 115.38 114.25 81.14 105.94 C 52.99 99.10 52.11 99.09 49.45 105.45 C 47.93 109.10 48.57 112.57 51.16 114.72 C 53.10 116.33 105.45 129.00 110.14 129.00 C 112.67 129.00 114.69 128.31 116.00 127.00 C 117.10 125.90 118.23 125.00 118.50 125.00 C 118.78 125.00 119.00 130.18 119.00 136.50 C 119.00 146.67 119.23 148.23 121.00 150.00 C 123.00 152.00 123.00 152.00 79.42 152.00 C 35.85 152.00 35.85 152.00 32.92 154.92 C 30.00 157.85 30.00 157.85 30.00 194.47 C 30.00 231.09 30.00 231.09 32.47 233.56 C 34.94 236.03 34.94 236.03 128.06 235.77 C 221.18 235.50 221.18 235.50 223.09 233.14 Z  M 208.67 147.42 C 210.85 145.24 211.16 144.22 210.70 140.79 C 210.40 138.55 209.52 136.09 208.74 135.31 C 206.73 133.30 147.14 118.03 143.83 118.68 C 134.47 120.52 135.10 133.21 144.66 135.64 C 171.25 142.39 202.01 149.80 203.80 149.89 C 205.06 149.95 207.25 148.84 208.67 147.42 Z  M 47.00 210.50 C 47.00 202.00 47.00 202.00 82.43 202.00 C 117.85 202.00 117.85 202.00 118.18 210.50 C 118.50 219.00 118.50 219.00 82.75 219.00 C 47.00 219.00 47.00 219.00 47.00 210.50 Z  M 134.00 210.75 C 134.50 202.50 134.50 202.50 167.84 202.00 C 201.18 201.50 201.18 201.50 203.09 199.14 C 205.25 196.47 205.59 190.36 203.72 187.91 C 200.88 184.22 198.74 184.00 166.02 184.00 C 133.91 184.00 133.91 184.00 134.21 176.75 C 134.50 169.50 134.50 169.50 171.25 169.24 C 208.00 168.98 208.00 168.98 208.00 193.99 C 208.00 219.00 208.00 219.00 170.75 219.00 C 133.50 219.00 133.50 219.00 134.00 210.75 Z  M 47.00 176.49 C 47.00 168.97 47.00 168.97 82.25 169.24 C 117.50 169.50 117.50 169.50 117.79 176.75 C 118.09 184.00 118.09 184.00 82.54 184.00 C 47.00 184.00 47.00 184.00 47.00 176.49 Z  M 88.37 57.75 C 88.70 56.51 88.98 54.49 88.99 53.25 C 89.00 51.00 89.00 51.00 127.50 51.00 C 166.00 51.00 166.00 51.00 166.00 53.92 C 166.00 55.52 166.27 57.55 166.61 58.42 C 167.15 59.84 163.30 60.00 127.49 60.00 C 87.77 60.00 87.77 60.00 88.37 57.75 Z "/>
</g>
</svg>