<?xml version="1.0" encoding="UTF-8" standalone="no"?>
<!DOCTYPE svg PUBLIC "-//W3C//DTD SVG 1.1//EN" "http://www.w3.org/Graphics/SVG/1.1/DTD/svg11.dtd" >
<svg xmlns="http://www.w3.org/2000/svg" xmlns:xlink="http://www.w3.org/1999/xlink" version="1.1" viewBox="0 0 256 256">
 <g >
 <path fill="currentColor"
d=" M 132.69 235.83 C 133.96 234.63 135.00 233.01 135.00 232.24 C 135.00 231.27 135.98 231.65 138.08 233.41 C 141.15 236.00 141.15 236.00 189.15 236.00 C 237.15 236.00 237.15 236.00 240.08 233.08 C 244.55 228.60 243.80 223.09 238.32 220.16 C 236.86 219.39 229.28 219.00 215.57 219.00 C 195.00 219.00 195.00 219.00 195.00 178.50 C 195.00 138.00 195.00 138.00 213.19 138.00 C 230.48 138.00 231.48 137.89 233.69 135.83 C 236.79 132.91 236.75 127.98 233.59 124.31 C 231.18 121.50 231.18 121.50 213.09 121.19 C 195.00 120.87 195.00 120.87 195.00 82.00 C 195.00 43.12 195.00 43.12 215.09 42.81 C 234.82 42.51 235.21 42.46 237.09 40.14 C 239.59 37.05 239.52 31.93 236.93 28.63 C 234.85 26.00 234.85 26.00 188.48 26.00 C 142.11 26.00 142.11 26.00 139.61 28.25 C 136.84 30.74 136.23 33.12 137.31 37.23 C 138.61 42.17 142.03 43.00 160.95 43.00 C 178.00 43.00 178.00 43.00 178.00 82.00 C 178.00 121.00 178.00 121.00 163.45 121.00 C 147.68 121.00 143.78 121.97 142.43 126.23 C 141.26 129.91 141.75 134.07 143.59 136.10 C 145.15 137.82 146.87 138.00 161.65 138.00 C 178.00 138.00 178.00 138.00 178.00 178.50 C 178.00 219.00 178.00 219.00 159.40 219.00 C 140.80 219.00 140.80 219.00 137.90 222.11 C 136.31 223.81 135.00 224.79 135.00 224.27 C 135.00 223.76 128.70 189.06 121.00 147.18 C 113.30 105.29 107.00 70.36 107.00 69.55 C 107.00 68.74 113.30 60.84 121.00 52.00 C 133.83 37.28 135.00 35.60 135.00 32.05 C 135.00 28.95 134.38 27.66 131.92 25.59 C 126.50 21.02 125.20 21.68 112.93 35.22 C 107.81 40.87 103.33 45.62 102.98 45.78 C 102.63 45.93 101.51 40.57 100.48 33.87 C 99.00 24.20 98.12 21.11 96.22 18.85 C 93.62 15.76 89.94 15.16 85.66 17.11 C 80.88 19.29 80.82 21.25 84.90 43.17 C 88.68 63.50 88.68 63.50 79.59 73.81 C 67.76 87.23 66.00 89.80 66.00 93.65 C 66.00 97.83 69.87 101.00 74.98 101.00 C 78.39 101.00 79.24 100.35 85.47 92.96 C 89.20 88.54 92.38 85.05 92.53 85.21 C 92.95 85.64 100.00 124.58 100.00 126.45 C 100.00 127.34 92.77 137.07 83.94 148.07 C 64.27 172.58 63.00 174.43 63.00 178.57 C 63.00 184.18 69.78 187.79 75.04 184.98 C 76.09 184.42 82.83 176.78 90.03 168.00 C 102.99 152.20 105.00 150.02 105.00 151.80 C 105.00 152.31 107.70 167.36 111.00 185.25 C 114.30 203.15 117.00 218.51 117.00 219.39 C 117.00 220.81 114.74 221.00 97.45 221.00 C 78.04 221.00 77.89 221.02 75.45 223.45 C 72.73 226.17 72.13 231.53 74.25 234.18 C 77.01 237.65 79.38 237.94 104.94 237.97 C 129.70 238.00 130.43 237.94 132.69 235.83 Z  M 63.03 223.25 C 85.19 200.49 85.37 200.17 79.71 194.51 C 74.54 189.34 72.12 189.76 64.41 197.16 C 58.00 203.32 58.00 203.32 57.99 147.41 C 57.99 90.66 57.66 84.91 54.23 82.25 C 53.08 81.36 47.59 81.00 35.12 81.00 C 18.54 81.00 17.51 81.11 15.31 83.17 C 12.51 85.81 12.24 90.87 14.75 93.88 C 16.32 95.77 17.71 96.01 28.50 96.24 C 40.50 96.50 40.50 96.50 41.03 163.00 C 41.32 199.57 41.66 229.60 41.78 229.72 C 43.14 231.07 48.14 232.93 50.52 232.96 C 53.04 232.99 55.09 231.41 63.03 223.25 Z  M 68.55 78.55 C 73.51 73.58 72.75 71.91 52.00 42.29 C 35.93 19.34 32.54 15.06 30.03 14.51 C 23.78 13.13 17.81 19.14 19.78 24.80 C 20.85 27.85 55.45 77.82 57.84 79.75 C 60.45 81.87 65.83 81.26 68.55 78.55 Z "/>
</g>
</svg>