<?xml version="1.0" encoding="UTF-8" standalone="no"?>
<!DOCTYPE svg PUBLIC "-//W3C//DTD SVG 1.1//EN" "http://www.w3.org/Graphics/SVG/1.1/DTD/svg11.dtd" >
<svg xmlns="http://www.w3.org/2000/svg" xmlns:xlink="http://www.w3.org/1999/xlink" version="1.1" viewBox="0 0 256 256">
 <g >
 <path fill="currentColor"
d=" M 154.50 232.64 C 174.50 223.32 174.50 223.32 175.30 226.41 C 175.73 228.11 177.24 230.53 178.65 231.79 C 181.21 234.09 181.25 234.09 208.70 233.79 C 236.18 233.50 236.18 233.50 238.09 231.14 C 239.83 228.99 240.00 226.97 240.00 208.31 C 240.00 187.85 240.00 187.85 237.08 184.92 C 233.28 181.13 229.72 181.13 225.92 184.92 C 223.00 187.85 223.00 187.85 223.00 202.42 C 223.00 217.00 223.00 217.00 207.50 217.00 C 192.00 217.00 192.00 217.00 192.00 201.61 C 192.00 186.23 192.00 186.23 212.91 170.57 C 224.41 161.95 234.09 154.22 234.41 153.37 C 236.49 147.95 232.08 141.00 226.56 141.00 C 222.97 141.00 221.63 141.89 204.00 155.83 C 190.63 166.41 192.22 168.11 191.77 142.75 C 191.50 127.00 191.50 127.00 205.94 127.00 C 227.12 127.00 225.00 132.51 225.00 77.40 C 225.00 32.15 225.00 32.15 222.41 29.08 C 219.82 26.00 219.82 26.00 174.55 26.00 C 130.26 26.00 129.21 26.05 126.63 28.07 C 124.00 30.15 124.00 30.15 124.00 75.77 C 124.00 121.39 124.00 121.39 126.69 124.20 C 128.57 126.16 128.92 127.00 127.88 127.00 C 127.05 127.00 125.39 127.92 124.19 129.04 C 122.00 131.08 122.00 131.08 122.00 184.04 C 122.00 218.68 122.35 237.00 123.00 237.00 C 123.55 237.00 124.00 237.69 124.00 238.53 C 124.00 240.35 127.33 241.85 131.50 241.92 C 133.27 241.95 142.72 238.13 154.50 232.64 Z  M 111.69 229.59 C 114.50 227.17 114.50 227.17 114.78 156.36 C 114.98 104.21 114.75 84.80 113.89 82.73 C 111.85 77.80 109.59 77.00 97.78 77.00 C 87.00 77.00 87.00 77.00 87.00 63.50 C 87.00 50.00 87.00 50.00 99.03 50.00 C 113.09 50.00 117.52 48.72 118.65 44.32 C 119.79 39.83 119.28 37.66 116.49 35.25 C 113.89 33.00 113.89 33.00 67.62 33.00 C 21.35 33.00 21.35 33.00 19.04 35.46 C 17.13 37.49 16.82 38.65 17.29 42.10 C 18.22 49.07 19.13 49.46 35.53 49.82 C 49.79 50.14 49.99 50.18 49.55 52.32 C 49.30 53.52 48.58 59.22 47.96 64.98 C 47.34 70.75 46.62 75.81 46.36 76.23 C 46.10 76.65 41.81 77.00 36.84 77.00 C 27.89 77.00 27.77 77.03 24.40 80.40 C 21.00 83.80 21.00 83.80 21.00 154.35 C 21.00 204.07 21.33 225.63 22.11 227.35 C 22.73 228.70 24.19 230.26 25.36 230.83 C 26.72 231.49 42.35 231.89 68.19 231.93 C 108.89 232.00 108.89 232.00 111.69 229.59 Z  M 138.55 220.22 C 138.25 219.92 138.00 210.73 138.00 199.80 C 138.00 184.81 138.31 179.83 139.25 179.50 C 139.94 179.26 148.26 178.94 157.75 178.78 C 175.00 178.50 175.00 178.50 175.00 192.75 C 175.00 207.00 175.00 207.00 172.63 207.00 C 171.33 207.00 163.26 210.10 154.69 213.89 C 146.12 217.67 138.86 220.52 138.55 220.22 Z  M 138.00 146.81 C 138.00 132.60 137.86 131.48 135.83 129.31 C 133.65 127.00 133.65 127.00 155.43 127.00 C 175.82 127.00 177.16 127.11 176.39 128.75 C 175.94 129.71 175.41 137.59 175.21 146.25 C 174.86 162.00 174.86 162.00 156.43 162.00 C 138.00 162.00 138.00 162.00 138.00 146.81 Z  M 140.00 97.50 C 140.00 85.00 140.00 85.00 169.76 85.00 C 198.69 85.00 205.49 84.41 207.16 81.77 C 207.61 81.07 207.98 87.14 207.98 95.25 C 208.00 110.00 208.00 110.00 174.00 110.00 C 140.00 110.00 140.00 110.00 140.00 97.50 Z  M 206.15 69.75 C 205.23 68.82 196.57 68.37 172.70 68.00 C 140.50 67.50 140.50 67.50 140.22 55.75 C 139.94 44.00 139.94 44.00 173.97 44.00 C 208.00 44.00 208.00 44.00 208.00 57.50 C 208.00 64.92 207.87 71.00 207.70 71.00 C 207.53 71.00 206.84 70.44 206.15 69.75 Z  M 38.00 205.00 C 38.00 195.00 38.00 195.00 64.43 195.00 C 78.97 195.00 91.95 194.59 93.28 194.08 C 94.60 193.58 96.24 191.84 96.91 190.21 C 98.54 186.28 96.23 180.42 92.48 178.99 C 91.00 178.43 78.69 178.00 63.93 178.00 C 38.00 178.00 38.00 178.00 38.00 169.37 C 38.00 160.73 38.00 160.73 40.01 163.29 C 41.12 164.70 43.41 166.15 45.10 166.52 C 47.64 167.08 48.70 166.70 51.13 164.38 C 52.75 162.83 54.28 160.64 54.54 159.53 C 54.79 158.41 56.35 144.45 58.01 128.50 C 62.04 89.58 61.33 92.82 65.81 93.19 C 69.50 93.50 69.50 93.50 69.69 127.37 C 69.93 169.14 68.50 165.81 86.40 166.22 C 98.50 166.50 98.50 166.50 98.77 190.75 C 99.04 215.00 99.04 215.00 68.52 215.00 C 38.00 215.00 38.00 215.00 38.00 205.00 Z  M 38.11 121.25 C 38.00 93.00 38.00 93.00 40.94 93.00 C 42.56 93.00 44.07 93.34 44.30 93.75 C 44.54 94.16 43.26 106.88 41.47 122.00 C 38.22 149.50 38.22 149.50 38.11 121.25 Z  M 87.00 120.95 C 87.00 92.90 87.00 92.90 92.75 93.20 C 98.50 93.50 98.50 93.50 98.77 121.25 C 99.03 149.00 99.03 149.00 93.02 149.00 C 87.00 149.00 87.00 149.00 87.00 120.95 Z  M 64.00 75.49 C 64.00 73.12 66.01 54.92 66.57 52.25 C 66.83 51.01 67.72 50.00 68.55 50.00 C 69.83 50.00 70.02 51.98 69.78 63.25 C 69.50 76.50 69.50 76.50 66.75 76.82 C 64.74 77.05 64.00 76.69 64.00 75.49 Z "/>
</g>
</svg>