<?xml version="1.0" encoding="UTF-8" standalone="no"?>
<!DOCTYPE svg PUBLIC "-//W3C//DTD SVG 1.1//EN" "http://www.w3.org/Graphics/SVG/1.1/DTD/svg11.dtd" >
<svg xmlns="http://www.w3.org/2000/svg" xmlns:xlink="http://www.w3.org/1999/xlink" version="1.1" viewBox="0 0 256 256">
 <g >
 <path fill="currentColor"
d=" M 206.48 225.68 C 207.33 224.38 208.50 218.73 209.14 212.91 C 210.53 200.16 208.99 193.06 203.67 187.74 C 197.89 181.96 174.99 167.00 171.91 167.00 C 170.40 167.00 171.23 174.64 173.88 185.00 C 174.93 189.12 175.73 192.54 175.65 192.60 C 175.57 192.65 161.63 195.39 144.67 198.68 C 113.85 204.67 113.85 204.67 118.40 200.78 C 120.90 198.64 127.80 191.02 133.72 183.84 C 139.65 176.66 145.82 169.21 147.43 167.29 C 149.96 164.27 150.19 163.53 149.11 161.80 C 148.42 160.70 148.04 159.63 148.25 159.41 C 148.47 159.20 161.44 157.87 177.07 156.46 C 204.23 154.02 231.46 149.94 233.36 148.04 C 233.85 147.55 233.93 144.16 233.54 140.50 C 232.93 134.86 232.57 133.95 231.16 134.50 C 230.25 134.86 220.95 135.38 210.50 135.65 C 196.72 136.01 184.77 137.08 167.00 139.53 C 153.53 141.39 133.95 144.07 123.50 145.50 C 113.05 146.92 99.55 149.19 93.51 150.54 C 81.24 153.28 76.97 153.57 75.19 151.79 C 74.24 150.84 73.52 151.04 71.85 152.71 C 68.95 155.60 69.93 157.41 76.20 160.71 C 81.12 163.30 82.29 163.49 92.50 163.39 C 102.53 163.29 121.41 161.78 129.91 160.40 C 133.33 159.85 133.33 159.85 127.60 165.08 C 124.45 167.96 119.79 173.28 117.24 176.91 C 103.15 196.93 99.12 201.65 95.01 202.88 C 90.02 204.37 89.87 206.11 93.96 214.76 C 95.87 218.80 97.76 221.34 99.28 221.92 C 102.67 223.20 109.89 221.59 117.16 217.92 C 123.41 214.76 124.85 214.45 174.88 205.50 C 179.49 204.67 183.79 204.00 184.44 204.00 C 185.08 204.00 188.48 208.39 191.98 213.75 C 201.81 228.82 203.51 230.21 206.48 225.68 Z  M 60.43 220.45 C 61.86 219.52 63.32 217.58 63.68 216.14 C 64.04 214.70 63.33 207.31 62.09 199.72 C 60.26 188.42 59.87 182.14 59.93 165.28 C 59.98 153.94 59.52 140.80 58.91 136.08 C 57.06 121.63 57.46 108.52 60.01 100.50 C 61.23 96.65 63.47 91.92 64.99 90.00 C 71.18 82.13 81.10 64.09 86.38 51.10 C 89.71 42.91 95.00 23.05 95.00 18.75 C 95.00 12.28 89.73 10.87 85.62 16.25 C 84.26 18.04 77.71 30.35 71.07 43.61 C 58.15 69.41 54.35 74.88 46.36 79.18 C 39.45 82.89 35.78 83.46 31.63 81.49 C 28.21 79.87 23.95 74.58 22.58 70.24 C 20.72 64.39 14.96 70.82 15.03 78.65 C 15.10 85.58 17.78 97.87 20.16 102.18 C 23.33 107.90 27.59 110.21 35.28 110.37 C 41.46 110.50 41.46 110.50 42.27 115.35 C 42.72 118.02 42.95 134.00 42.79 150.85 C 42.50 181.50 42.50 181.50 39.17 189.77 C 37.34 194.32 34.67 199.43 33.23 201.13 C 30.76 204.07 30.36 204.20 25.34 203.61 C 21.31 203.14 20.18 203.29 20.57 204.24 C 21.42 206.31 25.18 208.58 30.85 210.46 C 33.79 211.43 38.65 214.22 41.65 216.66 C 44.64 219.10 48.08 221.52 49.30 222.03 C 52.21 223.27 57.22 222.56 60.43 220.45 Z  M 145.44 123.50 C 176.81 121.63 191.83 119.83 200.87 116.87 C 204.24 115.77 204.24 115.77 203.54 108.76 C 202.76 100.75 201.74 97.50 199.79 96.75 C 199.05 96.46 194.63 97.24 189.97 98.47 C 132.61 113.63 130.06 114.15 114.14 113.86 C 104.51 113.68 102.64 113.90 101.86 115.29 C 100.50 117.72 101.87 121.75 104.86 124.13 C 107.15 125.94 108.35 126.14 114.00 125.60 C 117.58 125.26 131.72 124.31 145.44 123.50 Z  M 225.46 122.38 C 228.08 121.37 229.78 116.94 230.98 107.94 C 232.53 96.37 233.53 92.87 238.14 82.76 C 240.54 77.52 242.01 72.92 241.82 71.26 C 241.53 68.79 241.06 68.47 237.27 68.19 C 234.59 68.00 231.34 68.64 228.37 69.96 C 224.71 71.57 220.16 72.24 207.43 73.00 C 198.48 73.54 188.09 74.43 184.33 74.97 C 180.57 75.52 176.26 75.97 174.75 75.98 C 172.13 76.00 172.00 75.77 172.00 71.24 C 172.00 68.63 171.51 64.91 170.92 62.99 C 170.32 61.07 169.43 54.55 168.93 48.50 C 168.43 42.45 167.74 34.04 167.38 29.80 C 166.83 23.12 167.03 21.56 168.87 18.02 C 171.48 13.03 171.55 10.81 169.18 8.67 C 166.24 6.01 161.46 5.55 156.47 7.46 C 149.86 9.98 149.39 11.59 152.57 20.78 C 155.12 28.12 155.21 29.11 154.56 41.00 C 153.61 58.25 150.89 64.00 143.65 64.00 C 137.50 64.00 137.95 65.23 145.73 69.66 C 156.47 75.77 157.25 76.67 152.58 77.55 C 148.46 78.32 115.35 77.44 110.25 76.42 C 107.45 75.86 107.00 76.05 107.00 77.78 C 107.00 81.44 113.24 85.76 119.69 86.57 C 127.17 87.50 204.52 85.23 212.83 83.83 C 216.41 83.23 219.54 83.14 220.03 83.63 C 221.04 84.64 219.42 92.79 217.83 94.71 C 216.33 96.51 208.54 96.36 207.00 94.50 C 204.99 92.07 203.00 92.70 203.03 95.75 C 203.06 99.33 208.14 111.18 211.55 115.66 C 215.95 121.42 221.26 123.99 225.46 122.38 Z  M 96.36 113.62 C 101.90 111.31 103.35 106.78 103.80 90.50 C 104.24 74.22 103.48 71.00 99.21 71.00 C 97.42 71.00 95.40 72.01 93.74 73.75 C 90.70 76.93 82.69 93.35 80.89 100.11 C 79.79 104.23 79.87 105.09 81.61 108.11 C 83.45 111.29 88.92 114.99 91.78 115.00 C 92.49 115.00 94.55 114.38 96.36 113.62 Z  M 123.80 54.33 C 126.76 52.48 132.75 43.14 135.82 35.57 C 138.15 29.82 138.17 29.59 136.36 28.23 C 134.18 26.58 127.03 27.06 115.82 29.61 C 104.44 32.20 101.30 36.55 104.02 46.00 C 105.47 51.05 108.02 53.90 112.54 55.48 C 116.78 56.96 120.12 56.62 123.80 54.33 Z  M 213.75 46.63 C 221.20 42.85 224.21 36.10 220.35 31.83 C 219.06 30.41 217.21 30.00 212.10 29.99 C 205.09 29.98 183.00 33.73 183.00 34.93 C 183.00 36.45 191.15 46.60 193.75 48.31 C 197.65 50.88 206.88 50.11 213.75 46.63 Z "/>
</g>
</svg>