<?xml version="1.0" encoding="UTF-8" standalone="no"?>
<!DOCTYPE svg PUBLIC "-//W3C//DTD SVG 1.1//EN" "http://www.w3.org/Graphics/SVG/1.1/DTD/svg11.dtd" >
<svg xmlns="http://www.w3.org/2000/svg" xmlns:xlink="http://www.w3.org/1999/xlink" version="1.1" viewBox="0 0 256 256">
 <g >
 <path fill="currentColor"
d=" M 54.82 229.44 C 69.85 224.42 90.74 211.72 103.39 199.91 C 112.25 191.64 121.29 178.67 125.87 167.65 C 129.20 159.66 134.98 139.16 134.99 135.32 C 135.01 131.24 124.58 126.02 121.86 128.74 C 121.32 129.28 120.19 133.01 119.36 137.01 C 112.78 168.82 94.92 189.28 64.00 200.46 C 45.78 207.05 38.54 206.82 29.40 199.37 C 25.00 195.79 23.84 195.25 23.35 196.53 C 22.29 199.29 23.81 206.47 27.72 217.15 C 31.37 227.13 31.66 227.58 35.96 229.75 C 41.71 232.65 45.39 232.59 54.82 229.44 Z  M 191.56 220.40 C 198.23 217.24 197.41 212.58 188.65 203.69 C 184.45 199.43 180.13 196.22 175.90 194.22 C 169.54 191.22 134.58 180.00 131.57 180.00 C 129.30 180.00 129.58 183.76 132.45 191.70 C 136.01 201.62 141.70 206.58 155.73 211.99 C 161.65 214.28 167.97 217.06 169.76 218.17 C 176.32 222.21 185.72 223.18 191.56 220.40 Z  M 177.02 183.18 C 178.98 181.60 179.37 179.99 180.11 170.43 C 182.55 138.73 183.20 132.89 185.00 126.00 C 186.08 121.88 186.97 115.88 186.98 112.67 C 187.00 107.55 186.64 106.49 184.08 103.92 C 180.57 100.42 177.46 100.22 171.76 103.12 C 169.47 104.29 164.88 105.61 161.55 106.07 C 158.22 106.52 147.40 108.02 137.50 109.40 C 113.73 112.71 95.22 114.23 88.93 113.40 C 84.90 112.86 83.60 112.23 82.75 110.35 C 80.77 106.01 69.29 104.85 64.34 108.50 C 62.66 109.74 62.52 111.32 62.77 126.68 C 62.99 140.77 62.69 145.09 60.92 153.32 C 59.43 160.18 58.90 165.55 59.16 171.17 C 59.49 178.50 59.77 179.40 62.32 181.60 C 64.40 183.39 65.81 183.85 67.81 183.38 C 71.93 182.43 74.78 180.31 76.73 176.74 C 78.29 173.88 78.47 170.99 78.25 152.10 C 78.11 139.63 78.44 129.09 79.04 126.85 C 80.08 123.00 80.08 123.00 91.58 123.00 C 101.64 123.00 133.04 120.67 157.50 118.12 C 161.90 117.66 165.58 117.33 165.67 117.39 C 166.36 117.85 168.00 142.98 168.02 153.50 C 168.04 168.37 169.38 179.40 171.55 182.72 C 173.36 185.47 174.11 185.54 177.02 183.18 Z  M 93.51 105.43 C 98.69 102.97 99.27 100.29 97.48 87.00 C 96.39 78.82 96.12 71.89 96.58 63.00 C 97.06 53.63 96.80 47.64 95.53 39.10 C 93.79 27.40 93.95 24.30 96.72 15.32 C 98.20 10.52 98.20 9.95 96.64 7.57 C 95.29 5.52 94.15 5.00 90.94 5.00 C 85.72 5.00 79.21 8.32 78.44 11.37 C 78.12 12.66 78.79 17.64 79.93 22.43 C 81.66 29.73 82.00 34.40 82.00 51.04 C 82.00 73.92 80.86 78.91 73.96 86.16 C 70.39 89.91 69.78 90.18 65.55 89.85 C 63.05 89.65 61.00 89.76 61.00 90.09 C 61.00 91.39 64.78 93.95 70.33 96.39 C 73.54 97.81 77.87 100.32 79.96 101.97 C 83.48 104.75 87.32 106.78 89.35 106.94 C 89.82 106.97 91.69 106.29 93.51 105.43 Z  M 227.39 102.91 C 231.79 99.44 233.01 95.92 232.93 86.80 C 232.89 82.23 232.51 77.60 232.08 76.51 C 231.37 74.69 231.16 74.79 229.64 77.73 C 227.48 81.90 225.27 83.00 219.03 83.00 C 212.49 83.00 204.26 80.25 190.50 73.49 C 175.25 65.99 176.16 67.22 180.76 60.38 C 182.93 57.15 186.91 50.25 189.60 45.05 C 192.51 39.45 196.79 33.13 200.11 29.55 C 206.06 23.13 209.00 18.36 209.00 15.13 C 209.00 12.69 205.55 11.49 194.18 9.99 C 185.87 8.89 185.87 8.89 181.88 12.49 C 179.69 14.47 176.68 16.57 175.20 17.16 C 173.68 17.77 161.75 18.46 147.81 18.76 C 126.70 19.20 122.41 19.04 118.13 17.64 C 115.38 16.74 112.87 16.00 112.56 16.00 C 112.25 16.00 112.00 17.72 112.00 19.83 C 112.00 25.82 115.05 27.99 125.17 29.19 C 134.44 30.29 163.01 29.55 172.87 27.95 C 176.38 27.38 179.52 27.19 179.86 27.52 C 181.05 28.71 171.00 46.61 165.97 52.25 C 163.15 55.41 160.44 58.00 159.95 58.00 C 159.47 58.00 150.05 53.65 139.03 48.34 C 128.00 43.03 118.65 39.02 118.24 39.43 C 117.27 40.41 129.27 51.78 139.94 60.00 C 144.59 63.58 148.37 66.95 148.34 67.50 C 148.26 69.17 136.55 76.65 130.34 78.99 C 127.13 80.21 120.45 81.86 115.50 82.66 C 110.55 83.47 106.13 84.49 105.67 84.94 C 104.02 86.57 103.80 93.44 105.35 95.50 C 107.57 98.47 120.97 98.29 130.50 95.15 C 137.90 92.72 152.38 85.98 160.12 81.37 C 164.74 78.62 164.74 78.62 174.57 84.99 C 201.65 102.54 219.96 108.75 227.39 102.91 Z  M 46.99 96.01 C 50.42 94.17 51.15 89.04 50.81 68.79 C 50.64 58.18 50.90 44.24 51.40 37.82 C 52.36 25.30 51.55 20.90 47.93 18.96 C 45.35 17.58 37.42 17.78 36.24 19.25 C 35.57 20.09 35.73 23.92 36.73 31.00 C 38.91 46.43 38.69 63.25 36.14 76.92 C 33.70 89.96 33.49 94.09 35.20 95.80 C 36.65 97.25 44.41 97.39 46.99 96.01 Z "/>
</g>
</svg>