<?xml version="1.0" encoding="UTF-8" standalone="no"?>
<!DOCTYPE svg PUBLIC "-//W3C//DTD SVG 1.1//EN" "http://www.w3.org/Graphics/SVG/1.1/DTD/svg11.dtd" >
<svg xmlns="http://www.w3.org/2000/svg" xmlns:xlink="http://www.w3.org/1999/xlink" version="1.1" viewBox="0 0 256 256">
 <g >
 <path fill="currentColor"
d=" M 235.00 235.00 C 235.00 226.00 235.00 226.00 151.00 226.00 C 67.00 226.00 67.00 226.00 67.00 209.50 C 67.00 193.00 67.00 193.00 137.50 193.00 C 208.00 193.00 208.00 193.00 208.00 173.50 C 208.00 154.00 208.00 154.00 223.14 154.00 C 238.28 154.00 238.28 154.00 219.89 135.22 C 203.03 118.00 187.00 100.16 187.00 98.63 C 187.00 98.28 198.47 98.00 212.50 98.00 C 238.00 98.00 238.00 98.00 238.00 89.52 C 238.00 81.03 238.00 81.03 209.75 80.77 C 181.50 80.50 181.50 80.50 181.22 66.75 C 180.94 53.00 180.94 53.00 205.97 53.00 C 231.00 53.00 231.00 53.00 231.00 44.00 C 231.00 35.00 231.00 35.00 206.00 35.00 C 181.00 35.00 181.00 35.00 181.00 24.50 C 181.00 14.00 181.00 14.00 170.00 14.00 C 159.00 14.00 159.00 14.00 159.00 24.50 C 159.00 35.00 159.00 35.00 126.50 35.00 C 94.00 35.00 94.00 35.00 94.00 24.50 C 94.00 14.00 94.00 14.00 83.50 14.00 C 73.00 14.00 73.00 14.00 73.00 24.50 C 73.00 35.00 73.00 35.00 48.00 35.00 C 23.00 35.00 23.00 35.00 23.00 44.00 C 23.00 53.00 23.00 53.00 48.03 53.00 C 73.06 53.00 73.06 53.00 72.78 66.75 C 72.50 80.50 72.50 80.50 44.25 80.77 C 16.00 81.03 16.00 81.03 16.00 89.52 C 16.00 98.00 16.00 98.00 42.00 98.00 C 56.30 98.00 68.00 98.30 68.00 98.66 C 68.00 101.13 42.93 129.07 28.32 142.87 C 16.55 154.00 16.55 154.00 30.77 154.00 C 45.00 154.00 45.00 154.00 45.00 199.00 C 45.00 244.00 45.00 244.00 140.00 244.00 C 235.00 244.00 235.00 244.00 235.00 235.00 Z  M 67.00 161.00 C 67.00 146.00 67.00 146.00 127.00 146.00 C 187.00 146.00 187.00 146.00 187.00 161.00 C 187.00 176.00 187.00 176.00 127.00 176.00 C 67.00 176.00 67.00 176.00 67.00 161.00 Z  M 76.75 122.59 C 79.47 119.61 85.16 112.86 89.40 107.59 C 97.12 98.00 97.12 98.00 127.99 98.00 C 158.86 98.00 158.86 98.00 166.66 107.25 C 170.95 112.34 176.89 119.09 179.88 122.25 C 185.30 128.00 185.30 128.00 128.55 128.00 C 71.80 128.00 71.80 128.00 76.75 122.59 Z  M 94.00 67.00 C 94.00 53.00 94.00 53.00 126.50 53.00 C 159.00 53.00 159.00 53.00 159.00 67.00 C 159.00 81.00 159.00 81.00 126.50 81.00 C 94.00 81.00 94.00 81.00 94.00 67.00 Z "/>
</g>
</svg>