<?xml version="1.0" encoding="UTF-8" standalone="no"?>
<!DOCTYPE svg PUBLIC "-//W3C//DTD SVG 1.1//EN" "http://www.w3.org/Graphics/SVG/1.1/DTD/svg11.dtd" >
<svg xmlns="http://www.w3.org/2000/svg" xmlns:xlink="http://www.w3.org/1999/xlink" version="1.1" viewBox="0 0 256 256">
 <g >
 <path fill="currentColor"
d=" M 68.00 147.00 C 68.00 50.00 68.00 50.00 77.05 50.00 C 86.11 50.00 86.11 50.00 85.74 122.75 C 85.43 184.53 85.15 196.25 83.84 200.51 C 81.97 206.62 78.87 213.41 75.97 217.75 C 73.80 221.00 73.80 221.00 83.96 221.00 C 94.11 221.00 94.11 221.00 96.42 215.75 C 102.42 202.14 102.31 203.92 102.73 114.25 C 103.12 32.00 103.12 32.00 85.56 32.00 C 68.00 32.00 68.00 32.00 68.00 23.00 C 68.00 14.00 68.00 14.00 59.50 14.00 C 51.00 14.00 51.00 14.00 51.00 23.00 C 51.00 32.00 51.00 32.00 33.50 32.00 C 16.00 32.00 16.00 32.00 16.00 127.00 C 16.00 222.00 16.00 222.00 24.50 222.00 C 33.00 222.00 33.00 222.00 33.00 136.00 C 33.00 50.00 33.00 50.00 42.00 50.00 C 51.00 50.00 51.00 50.00 51.00 147.00 C 51.00 244.00 51.00 244.00 59.50 244.00 C 68.00 244.00 68.00 244.00 68.00 147.00 Z  M 150.97 230.25 C 161.21 216.50 161.21 216.50 150.36 216.21 C 139.98 215.93 139.43 216.02 138.00 218.21 C 137.18 219.47 132.90 224.49 128.50 229.38 C 113.94 245.54 113.96 244.00 128.29 244.00 C 140.73 244.00 140.73 244.00 150.97 230.25 Z  M 232.19 236.89 C 229.47 232.98 224.62 226.68 221.40 222.89 C 215.56 216.00 215.56 216.00 204.78 216.00 C 194.25 216.00 192.53 216.54 195.42 218.93 C 196.20 219.58 200.72 225.49 205.46 232.06 C 214.08 244.00 214.08 244.00 225.61 244.00 C 237.14 244.00 237.14 244.00 232.19 236.89 Z  M 237.00 161.50 C 237.00 114.00 237.00 114.00 177.00 114.00 C 117.00 114.00 117.00 114.00 117.00 161.50 C 117.00 209.00 117.00 209.00 177.00 209.00 C 237.00 209.00 237.00 209.00 237.00 161.50 Z  M 243.00 94.52 C 243.00 88.03 243.00 88.03 214.75 87.77 C 186.50 87.50 186.50 87.50 186.21 79.75 C 185.92 72.00 185.92 72.00 211.46 72.00 C 237.00 72.00 237.00 72.00 237.00 64.52 C 237.00 57.03 237.00 57.03 211.75 56.77 C 186.50 56.50 186.50 56.50 186.21 48.75 C 185.92 41.00 185.92 41.00 212.96 41.00 C 240.00 41.00 240.00 41.00 240.00 33.50 C 240.00 26.00 240.00 26.00 213.00 26.00 C 186.00 26.00 186.00 26.00 186.00 20.00 C 186.00 14.00 186.00 14.00 177.00 14.00 C 168.00 14.00 168.00 14.00 168.00 20.00 C 168.00 26.00 168.00 26.00 141.00 26.00 C 114.00 26.00 114.00 26.00 114.00 33.50 C 114.00 41.00 114.00 41.00 141.00 41.00 C 168.00 41.00 168.00 41.00 168.00 49.00 C 168.00 57.00 168.00 57.00 142.50 57.00 C 117.00 57.00 117.00 57.00 117.00 64.50 C 117.00 72.00 117.00 72.00 142.50 72.00 C 168.00 72.00 168.00 72.00 168.00 80.00 C 168.00 88.00 168.00 88.00 140.50 88.00 C 113.00 88.00 113.00 88.00 113.00 94.50 C 113.00 101.00 113.00 101.00 178.00 101.00 C 243.00 101.00 243.00 101.00 243.00 94.52 Z  M 134.21 187.75 C 134.50 180.50 134.50 180.50 176.75 180.24 C 219.00 179.98 219.00 179.98 219.00 187.49 C 219.00 195.00 219.00 195.00 176.46 195.00 C 133.91 195.00 133.91 195.00 134.21 187.75 Z  M 134.21 161.75 C 134.50 154.50 134.50 154.50 176.75 154.24 C 219.00 153.98 219.00 153.98 219.00 161.49 C 219.00 169.00 219.00 169.00 176.46 169.00 C 133.91 169.00 133.91 169.00 134.21 161.75 Z  M 134.20 135.25 C 134.50 128.50 134.50 128.50 176.75 128.24 C 219.00 127.98 219.00 127.98 219.00 134.99 C 219.00 142.00 219.00 142.00 176.45 142.00 C 133.91 142.00 133.91 142.00 134.20 135.25 Z "/>
</g>
</svg>