<?xml version="1.0" encoding="UTF-8" standalone="no"?>
<!DOCTYPE svg PUBLIC "-//W3C//DTD SVG 1.1//EN" "http://www.w3.org/Graphics/SVG/1.1/DTD/svg11.dtd" >
<svg xmlns="http://www.w3.org/2000/svg" xmlns:xlink="http://www.w3.org/1999/xlink" version="1.1" viewBox="0 0 256 256">
 <g >
 <path fill="currentColor"
d=" M 54.74 235.75 C 58.57 231.21 66.00 221.77 71.24 214.77 C 80.77 202.04 80.77 202.04 85.95 211.00 C 88.79 215.93 94.98 225.37 99.69 231.98 C 108.26 244.00 108.26 244.00 122.70 244.00 C 139.19 244.00 138.72 245.79 126.20 230.65 C 117.22 219.80 107.93 205.56 101.32 192.53 C 95.61 181.27 95.61 181.27 102.67 170.38 C 119.27 144.82 143.00 104.44 143.00 101.77 C 143.00 101.31 137.75 101.06 131.34 101.22 C 119.68 101.50 119.68 101.50 110.34 117.81 C 100.59 134.82 85.98 158.34 85.51 157.81 C 84.89 157.12 76.99 132.89 74.56 124.22 C 71.87 114.66 67.00 93.05 67.00 90.72 C 67.00 89.69 75.25 88.87 104.00 87.03 C 141.00 84.66 141.00 84.66 141.00 75.33 C 141.00 64.27 146.41 65.13 97.25 68.33 C 66.72 70.32 62.95 70.39 62.55 69.03 C 61.97 67.07 60.20 43.23 59.41 26.75 C 58.80 14.00 58.80 14.00 47.74 14.00 C 36.69 14.00 36.69 14.00 37.33 28.25 C 37.69 36.09 38.67 48.12 39.52 55.00 C 40.37 61.88 41.16 68.62 41.28 70.00 C 41.50 72.50 41.50 72.50 28.00 73.50 C 14.50 74.50 14.50 74.50 14.21 83.86 C 13.92 93.21 13.92 93.21 29.46 92.49 C 38.01 92.09 45.00 92.03 45.00 92.36 C 45.00 94.22 50.55 119.15 53.12 128.80 C 56.41 141.22 63.24 161.89 67.36 171.92 C 68.81 175.45 70.00 179.03 70.00 179.86 C 70.00 182.59 43.26 216.64 25.72 236.25 C 18.79 244.00 18.79 244.00 33.29 244.00 C 47.78 244.00 47.78 244.00 54.74 235.75 Z  M 225.86 240.25 C 228.59 234.89 232.60 221.70 234.65 211.37 C 236.24 203.36 236.44 193.34 236.75 108.25 C 237.09 14.00 237.09 14.00 226.58 14.00 C 216.07 14.00 216.07 14.00 215.75 106.25 C 215.43 196.83 215.39 198.64 213.29 206.50 C 210.68 216.24 205.29 229.23 200.53 237.21 C 198.59 240.47 197.00 243.34 197.00 243.57 C 197.00 243.81 203.07 244.00 210.48 244.00 C 223.96 244.00 223.96 244.00 225.86 240.25 Z  M 184.00 116.00 C 184.00 29.00 184.00 29.00 174.00 29.00 C 164.00 29.00 164.00 29.00 164.00 116.00 C 164.00 203.00 164.00 203.00 174.00 203.00 C 184.00 203.00 184.00 203.00 184.00 116.00 Z  M 121.64 51.25 C 121.30 48.64 118.92 39.41 116.37 30.75 C 111.73 15.00 111.73 15.00 101.26 15.00 C 92.79 15.00 90.89 15.26 91.31 16.37 C 92.73 20.06 96.19 32.63 98.52 42.50 C 99.94 48.55 101.29 54.06 101.52 54.75 C 101.82 55.64 104.86 56.00 112.10 56.00 C 122.27 56.00 122.27 56.00 121.64 51.25 Z "/>
</g>
</svg>