<?xml version="1.0" encoding="UTF-8" standalone="no"?>
<!DOCTYPE svg PUBLIC "-//W3C//DTD SVG 1.1//EN" "http://www.w3.org/Graphics/SVG/1.1/DTD/svg11.dtd" >
<svg xmlns="http://www.w3.org/2000/svg" xmlns:xlink="http://www.w3.org/1999/xlink" version="1.1" viewBox="0 0 256 256">
 <g >
 <path fill="currentColor"
d=" M 141.79 237.97 C 152.43 229.01 161.32 217.97 167.11 206.51 C 169.88 201.01 172.28 196.39 172.44 196.23 C 172.59 196.08 176.00 200.35 180.01 205.72 C 188.37 216.91 195.35 225.15 205.88 236.23 C 213.27 244.00 213.27 244.00 226.75 244.00 C 240.23 244.00 240.23 244.00 226.36 230.25 C 214.33 218.31 195.16 196.68 194.17 193.93 C 193.97 193.37 203.58 193.00 217.92 193.00 C 242.00 193.00 242.00 193.00 242.00 184.50 C 242.00 176.00 242.00 176.00 209.61 176.00 C 177.21 176.00 177.21 176.00 178.08 172.25 C 178.56 170.19 178.96 166.14 178.98 163.25 C 179.00 158.00 179.00 158.00 206.50 158.00 C 234.00 158.00 234.00 158.00 234.00 115.00 C 234.00 72.00 234.00 72.00 173.50 72.00 C 113.00 72.00 113.00 72.00 113.00 115.00 C 113.00 158.00 113.00 158.00 136.63 158.00 C 160.26 158.00 160.26 158.00 159.68 161.75 C 159.36 163.81 158.79 167.86 158.42 170.75 C 157.74 176.00 157.74 176.00 130.87 176.00 C 104.00 176.00 104.00 176.00 104.00 184.50 C 104.00 193.00 104.00 193.00 127.50 193.00 C 140.43 193.00 151.00 193.24 151.00 193.54 C 151.00 194.71 146.51 202.81 142.71 208.50 C 137.31 216.58 123.37 230.11 112.58 237.75 C 103.74 244.00 103.74 244.00 119.19 244.00 C 134.63 244.00 134.63 244.00 141.79 237.97 Z  M 99.36 238.75 C 99.15 236.41 98.29 226.18 97.47 216.00 C 96.65 205.82 95.47 192.89 94.85 187.25 C 93.73 177.00 93.73 177.00 85.86 177.00 C 80.87 177.00 78.00 177.40 78.00 178.09 C 78.00 179.21 80.63 202.06 81.41 207.67 C 81.89 211.17 82.72 210.83 69.75 212.51 C 65.00 213.12 65.00 213.12 65.00 189.06 C 65.00 165.00 65.00 165.00 81.00 165.00 C 97.00 165.00 97.00 165.00 97.00 101.00 C 97.00 37.00 97.00 37.00 81.00 37.00 C 65.00 37.00 65.00 37.00 65.00 25.50 C 65.00 14.00 65.00 14.00 56.50 14.00 C 48.00 14.00 48.00 14.00 48.00 25.50 C 48.00 37.00 48.00 37.00 32.00 37.00 C 16.00 37.00 16.00 37.00 16.00 101.00 C 16.00 165.00 16.00 165.00 32.00 165.00 C 48.00 165.00 48.00 165.00 48.00 190.00 C 48.00 203.75 47.66 215.00 47.25 215.01 C 46.16 215.02 21.24 217.86 16.25 218.54 C 12.00 219.12 12.00 219.12 12.00 228.61 C 12.00 238.09 12.00 238.09 15.25 237.55 C 18.42 237.01 81.48 229.00 82.49 229.00 C 82.77 229.00 83.00 231.44 83.00 234.42 C 83.00 242.92 83.09 243.00 91.98 243.00 C 99.75 243.00 99.75 243.00 99.36 238.75 Z  M 153.00 57.00 C 153.00 47.00 153.00 47.00 172.96 47.00 C 192.93 47.00 192.93 47.00 193.21 56.75 C 193.50 66.50 193.50 66.50 202.75 66.79 C 212.00 67.08 212.00 67.08 212.00 57.04 C 212.00 47.00 212.00 47.00 226.00 47.00 C 240.00 47.00 240.00 47.00 240.00 38.50 C 240.00 30.00 240.00 30.00 226.00 30.00 C 212.00 30.00 212.00 30.00 212.00 22.00 C 212.00 14.00 212.00 14.00 202.50 14.00 C 193.00 14.00 193.00 14.00 193.00 22.02 C 193.00 30.04 193.00 30.04 173.25 29.77 C 153.50 29.50 153.50 29.50 153.21 21.75 C 152.92 14.00 152.92 14.00 143.46 14.00 C 134.00 14.00 134.00 14.00 134.00 22.00 C 134.00 30.00 134.00 30.00 120.50 30.00 C 107.00 30.00 107.00 30.00 107.00 38.50 C 107.00 47.00 107.00 47.00 120.50 47.00 C 134.00 47.00 134.00 47.00 134.00 56.33 C 134.00 61.47 134.30 65.97 134.67 66.33 C 135.03 66.70 139.31 67.00 144.17 67.00 C 153.00 67.00 153.00 67.00 153.00 57.00 Z  M 131.21 132.25 C 131.50 122.50 131.50 122.50 173.25 122.24 C 215.00 121.98 215.00 121.98 215.00 131.99 C 215.00 142.00 215.00 142.00 172.96 142.00 C 130.93 142.00 130.93 142.00 131.21 132.25 Z  M 131.00 97.50 C 131.00 88.00 131.00 88.00 173.00 88.00 C 215.00 88.00 215.00 88.00 215.00 97.50 C 215.00 107.00 215.00 107.00 173.00 107.00 C 131.00 107.00 131.00 107.00 131.00 97.50 Z  M 32.00 101.00 C 32.00 55.00 32.00 55.00 40.00 55.00 C 48.00 55.00 48.00 55.00 48.00 101.00 C 48.00 147.00 48.00 147.00 40.00 147.00 C 32.00 147.00 32.00 147.00 32.00 101.00 Z  M 65.00 101.00 C 65.00 55.00 65.00 55.00 72.50 55.00 C 80.00 55.00 80.00 55.00 80.00 101.00 C 80.00 147.00 80.00 147.00 72.50 147.00 C 65.00 147.00 65.00 147.00 65.00 101.00 Z "/>
</g>
</svg>