<?xml version="1.0" encoding="UTF-8" standalone="no"?>
<!DOCTYPE svg PUBLIC "-//W3C//DTD SVG 1.1//EN" "http://www.w3.org/Graphics/SVG/1.1/DTD/svg11.dtd" >
<svg xmlns="http://www.w3.org/2000/svg" xmlns:xlink="http://www.w3.org/1999/xlink" version="1.1" viewBox="0 0 256 256">
 <g >
 <path fill="currentColor"
d=" M 242.00 235.50 C 242.00 227.00 242.00 227.00 144.00 227.00 C 79.59 227.00 46.00 226.66 46.00 226.00 C 46.00 224.41 59.92 79.83 60.42 76.25 C 60.87 73.00 60.87 73.00 36.94 73.00 C 13.00 73.00 13.00 73.00 13.00 82.00 C 13.00 91.00 13.00 91.00 25.48 91.00 C 37.96 91.00 37.96 91.00 37.43 95.25 C 36.90 99.55 24.00 241.58 24.00 243.15 C 24.00 243.62 73.05 244.00 133.00 244.00 C 242.00 244.00 242.00 244.00 242.00 235.50 Z  M 121.04 212.62 C 126.24 208.01 131.98 202.38 133.80 200.12 C 137.09 196.00 137.09 196.00 124.61 196.00 C 112.12 196.00 112.12 196.00 104.31 203.76 C 100.01 208.03 93.64 213.66 90.15 216.26 C 83.80 221.00 83.80 221.00 97.69 221.00 C 111.57 221.00 111.57 221.00 121.04 212.62 Z  M 225.46 215.90 C 222.73 213.10 216.60 207.48 211.83 203.40 C 203.16 196.00 203.16 196.00 190.90 196.00 C 178.64 196.00 178.64 196.00 191.57 208.45 C 204.50 220.90 204.50 220.90 217.46 220.95 C 230.42 221.00 230.42 221.00 225.46 215.90 Z  M 229.00 146.00 C 229.00 102.00 229.00 102.00 156.50 102.00 C 84.00 102.00 84.00 102.00 84.00 146.00 C 84.00 190.00 84.00 190.00 156.50 190.00 C 229.00 190.00 229.00 190.00 229.00 146.00 Z  M 241.00 86.01 C 241.00 79.02 241.00 79.02 203.75 78.76 C 166.50 78.50 166.50 78.50 166.20 73.75 C 165.89 69.00 165.89 69.00 198.45 69.00 C 231.00 69.00 231.00 69.00 231.00 45.50 C 231.00 22.00 231.00 22.00 198.50 22.00 C 166.00 22.00 166.00 22.00 166.00 18.00 C 166.00 14.00 166.00 14.00 156.50 14.00 C 147.00 14.00 147.00 14.00 147.00 18.00 C 147.00 22.00 147.00 22.00 115.00 22.00 C 83.00 22.00 83.00 22.00 83.00 45.50 C 83.00 69.00 83.00 69.00 115.00 69.00 C 147.00 69.00 147.00 69.00 147.00 74.00 C 147.00 79.00 147.00 79.00 110.00 79.00 C 73.00 79.00 73.00 79.00 73.00 86.00 C 73.00 93.00 73.00 93.00 157.00 93.00 C 241.00 93.00 241.00 93.00 241.00 86.01 Z  M 64.00 57.35 C 64.00 55.00 57.56 33.86 54.15 25.00 C 51.25 17.50 51.25 17.50 40.19 17.22 C 29.12 16.94 29.12 16.94 32.01 24.87 C 34.66 32.13 38.21 43.93 40.99 54.75 C 42.08 59.00 42.08 59.00 53.04 59.00 C 62.55 59.00 64.00 58.78 64.00 57.35 Z  M 104.00 170.50 C 104.00 164.00 104.00 164.00 157.00 164.00 C 210.00 164.00 210.00 164.00 210.00 170.50 C 210.00 177.00 210.00 177.00 157.00 177.00 C 104.00 177.00 104.00 177.00 104.00 170.50 Z  M 104.00 145.50 C 104.00 139.00 104.00 139.00 157.00 139.00 C 210.00 139.00 210.00 139.00 210.00 145.50 C 210.00 152.00 210.00 152.00 157.00 152.00 C 104.00 152.00 104.00 152.00 104.00 145.50 Z  M 104.00 120.50 C 104.00 114.00 104.00 114.00 157.00 114.00 C 210.00 114.00 210.00 114.00 210.00 120.50 C 210.00 127.00 210.00 127.00 157.00 127.00 C 104.00 127.00 104.00 127.00 104.00 120.50 Z  M 102.00 45.50 C 102.00 36.00 102.00 36.00 124.50 36.00 C 147.00 36.00 147.00 36.00 147.00 45.50 C 147.00 55.00 147.00 55.00 124.50 55.00 C 102.00 55.00 102.00 55.00 102.00 45.50 Z  M 166.67 54.33 C 166.30 53.97 166.00 49.69 166.00 44.83 C 166.00 36.00 166.00 36.00 189.00 36.00 C 212.00 36.00 212.00 36.00 212.00 45.50 C 212.00 55.00 212.00 55.00 189.67 55.00 C 177.38 55.00 167.03 54.70 166.67 54.33 Z "/>
</g>
</svg>