<?xml version="1.0" encoding="UTF-8" standalone="no"?>
<!DOCTYPE svg PUBLIC "-//W3C//DTD SVG 1.1//EN" "http://www.w3.org/Graphics/SVG/1.1/DTD/svg11.dtd" >
<svg xmlns="http://www.w3.org/2000/svg" xmlns:xlink="http://www.w3.org/1999/xlink" version="1.1" viewBox="0 0 256 256">
 <g >
 <path fill="currentColor"
d=" M 114.00 235.00 C 114.00 226.00 114.00 226.00 94.00 226.00 C 74.00 226.00 74.00 226.00 74.00 186.00 C 74.00 146.00 74.00 146.00 92.04 146.00 C 110.08 146.00 110.08 146.00 109.79 137.75 C 109.50 129.50 109.50 129.50 91.75 129.23 C 74.00 128.95 74.00 128.95 74.00 113.48 C 74.00 98.00 74.00 98.00 93.00 98.00 C 112.00 98.00 112.00 98.00 112.00 89.50 C 112.00 81.00 112.00 81.00 64.00 81.00 C 16.00 81.00 16.00 81.00 16.00 89.48 C 16.00 97.96 16.00 97.96 34.75 98.23 C 53.50 98.50 53.50 98.50 53.78 113.75 C 54.05 129.00 54.05 129.00 36.03 129.00 C 18.00 129.00 18.00 129.00 18.00 137.50 C 18.00 146.00 18.00 146.00 36.00 146.00 C 54.00 146.00 54.00 146.00 54.00 186.00 C 54.00 226.00 54.00 226.00 33.50 226.00 C 13.00 226.00 13.00 226.00 13.00 235.00 C 13.00 244.00 13.00 244.00 63.50 244.00 C 114.00 244.00 114.00 244.00 114.00 235.00 Z  M 242.00 234.50 C 242.00 225.00 242.00 225.00 191.48 225.00 C 140.97 225.00 140.97 225.00 141.23 200.25 C 141.50 175.50 141.50 175.50 189.25 175.24 C 237.00 174.98 237.00 174.98 237.00 125.99 C 237.00 77.00 237.00 77.00 224.50 77.00 C 217.62 77.00 212.00 76.61 212.00 76.14 C 212.00 75.66 213.76 71.50 215.90 66.89 C 219.00 60.23 230.00 30.21 230.00 28.42 C 230.00 28.19 214.25 28.00 195.00 28.00 C 166.40 28.00 160.00 27.75 160.00 26.66 C 160.00 25.92 160.67 23.11 161.49 20.41 C 162.31 17.71 162.98 15.16 162.99 14.75 C 163.00 14.34 158.31 14.00 152.58 14.00 C 142.16 14.00 142.16 14.00 141.47 17.25 C 140.24 23.10 133.91 39.08 126.89 54.10 C 123.10 62.20 120.00 69.09 120.00 69.41 C 120.00 69.74 124.76 70.00 130.58 70.00 C 141.17 70.00 141.17 70.00 146.83 58.00 C 152.49 46.00 152.49 46.00 177.74 46.00 C 191.63 46.00 203.00 46.17 203.00 46.39 C 203.00 47.07 194.89 70.32 193.47 73.73 C 192.10 77.00 192.10 77.00 158.05 77.00 C 124.00 77.00 124.00 77.00 124.00 160.50 C 124.00 244.00 124.00 244.00 183.00 244.00 C 242.00 244.00 242.00 244.00 242.00 234.50 Z  M 43.54 209.25 C 43.24 206.09 42.53 196.53 41.97 188.00 C 41.42 179.47 40.47 169.01 39.87 164.75 C 38.77 157.00 38.77 157.00 29.88 157.00 C 23.43 157.00 21.01 157.34 21.02 158.25 C 21.03 158.94 21.45 162.43 21.95 166.00 C 22.45 169.57 23.35 179.47 23.95 188.00 C 26.02 217.75 24.88 215.00 35.15 215.00 C 44.10 215.00 44.10 215.00 43.54 209.25 Z  M 102.90 204.25 C 104.47 189.72 105.95 169.77 105.98 162.75 C 106.00 157.00 106.00 157.00 97.59 157.00 C 88.04 157.00 89.38 153.38 86.94 185.84 C 86.35 193.72 85.45 202.72 84.94 205.84 C 83.34 215.59 82.83 215.00 92.87 215.00 C 101.74 215.00 101.74 215.00 102.90 204.25 Z  M 45.75 56.67 C 51.32 47.69 57.65 37.09 59.80 33.12 C 63.72 25.90 63.72 25.90 70.00 36.70 C 73.46 42.64 80.03 53.24 84.61 60.25 C 92.93 73.00 92.93 73.00 104.47 73.00 C 110.81 73.00 116.00 72.76 116.00 72.47 C 116.00 72.18 111.95 65.89 107.00 58.50 C 96.00 42.07 86.14 26.18 82.61 19.21 C 79.97 14.00 79.97 14.00 64.00 14.00 C 48.03 14.00 48.03 14.00 44.91 20.18 C 40.15 29.60 32.21 42.08 21.47 57.00 C 16.12 64.42 11.53 71.06 11.27 71.75 C 10.90 72.71 13.66 73.00 23.20 73.00 C 35.61 73.00 35.61 73.00 45.75 56.67 Z  M 141.24 125.75 C 141.50 95.50 141.50 95.50 156.25 95.22 C 171.00 94.95 171.00 94.95 171.00 125.47 C 171.00 156.00 171.00 156.00 155.99 156.00 C 140.97 156.00 140.97 156.00 141.24 125.75 Z  M 189.24 125.75 C 189.50 95.50 189.50 95.50 204.25 95.22 C 219.00 94.95 219.00 94.95 219.00 125.47 C 219.00 156.00 219.00 156.00 203.99 156.00 C 188.97 156.00 188.97 156.00 189.24 125.75 Z "/>
</g>
</svg>