<?xml version="1.0" encoding="UTF-8" standalone="no"?>
<!DOCTYPE svg PUBLIC "-//W3C//DTD SVG 1.1//EN" "http://www.w3.org/Graphics/SVG/1.1/DTD/svg11.dtd" >
<svg xmlns="http://www.w3.org/2000/svg" xmlns:xlink="http://www.w3.org/1999/xlink" version="1.1" viewBox="0 0 256 256">
 <g >
 <path fill="currentColor"
d=" M 83.00 234.50 C 83.00 225.00 83.00 225.00 69.50 225.00 C 56.00 225.00 56.00 225.00 56.00 191.00 C 56.00 157.00 56.00 157.00 70.04 157.00 C 84.08 157.00 84.08 157.00 83.79 148.25 C 83.50 139.50 83.50 139.50 69.75 139.22 C 56.00 138.94 56.00 138.94 56.00 121.47 C 56.00 104.00 56.00 104.00 69.00 104.00 C 82.00 104.00 82.00 104.00 82.00 95.50 C 82.00 87.00 82.00 87.00 48.50 87.00 C 15.00 87.00 15.00 87.00 15.00 95.47 C 15.00 103.93 15.00 103.93 25.75 104.22 C 36.50 104.50 36.50 104.50 36.77 121.75 C 37.05 139.00 37.05 139.00 25.02 139.00 C 13.00 139.00 13.00 139.00 13.00 148.00 C 13.00 157.00 13.00 157.00 25.00 157.00 C 37.00 157.00 37.00 157.00 37.00 200.50 C 37.00 244.00 37.00 244.00 60.00 244.00 C 83.00 244.00 83.00 244.00 83.00 234.50 Z  M 113.73 238.19 C 119.68 227.38 132.00 193.74 132.00 188.33 C 132.00 187.32 129.75 187.00 122.68 187.00 C 113.37 187.00 113.37 187.00 111.58 192.75 C 107.17 206.94 99.44 225.22 90.22 243.25 C 90.01 243.66 94.49 244.00 100.19 244.00 C 110.54 244.00 110.54 244.00 113.73 238.19 Z  M 168.72 240.55 C 169.94 238.67 171.94 234.28 173.17 230.81 C 175.16 225.16 175.44 222.11 175.79 201.75 C 176.19 179.00 176.19 179.00 207.59 179.00 C 239.00 179.00 239.00 179.00 239.00 170.50 C 239.00 162.00 239.00 162.00 165.50 162.00 C 92.00 162.00 92.00 162.00 92.00 170.50 C 92.00 179.00 92.00 179.00 124.00 179.00 C 156.00 179.00 156.00 179.00 156.00 197.29 C 156.00 210.54 155.58 217.21 154.46 221.50 C 152.75 228.04 148.43 235.78 143.70 240.75 C 140.61 244.00 140.61 244.00 153.55 243.99 C 166.50 243.98 166.50 243.98 168.72 240.55 Z  M 236.06 242.12 C 234.38 238.97 225.43 212.13 222.02 199.96 C 220.25 193.66 218.47 188.14 218.06 187.71 C 217.65 187.28 213.26 187.05 208.29 187.21 C 199.26 187.50 199.26 187.50 201.67 197.50 C 204.45 209.04 207.54 219.27 212.62 233.75 C 216.22 244.00 216.22 244.00 226.64 244.00 C 236.54 244.00 237.02 243.90 236.06 242.12 Z  M 233.00 140.00 C 233.00 132.00 233.00 132.00 165.50 132.00 C 98.00 132.00 98.00 132.00 98.00 140.00 C 98.00 148.00 98.00 148.00 165.50 148.00 C 233.00 148.00 233.00 148.00 233.00 140.00 Z  M 236.00 86.02 C 236.00 54.04 236.00 54.04 215.25 53.77 C 194.50 53.50 194.50 53.50 194.21 44.75 C 193.92 36.00 193.92 36.00 216.96 36.00 C 240.00 36.00 240.00 36.00 240.00 28.00 C 240.00 20.00 240.00 20.00 165.50 20.00 C 91.00 20.00 91.00 20.00 91.00 28.00 C 91.00 36.00 91.00 36.00 113.50 36.00 C 136.00 36.00 136.00 36.00 136.00 45.00 C 136.00 54.00 136.00 54.00 115.50 54.00 C 95.00 54.00 95.00 54.00 95.00 86.00 C 95.00 118.00 95.00 118.00 165.50 118.00 C 236.00 118.00 236.00 118.00 236.00 86.02 Z  M 37.21 65.75 C 40.69 53.50 40.69 53.50 62.10 53.00 C 83.50 52.50 83.50 52.50 83.79 43.75 C 84.08 35.00 84.08 35.00 64.54 35.00 C 53.20 35.00 45.00 34.61 45.00 34.07 C 45.00 32.25 47.11 17.47 47.62 15.75 C 48.09 14.17 47.19 14.00 38.09 14.00 C 26.64 14.00 28.02 12.69 26.00 25.50 C 24.22 36.76 17.35 66.07 15.08 72.02 C 13.94 75.04 13.00 77.61 13.00 77.75 C 13.00 77.89 17.66 78.00 23.36 78.00 C 33.72 78.00 33.72 78.00 37.21 65.75 Z  M 113.00 86.00 C 113.00 69.00 113.00 69.00 124.50 69.00 C 136.00 69.00 136.00 69.00 136.00 86.00 C 136.00 103.00 136.00 103.00 124.50 103.00 C 113.00 103.00 113.00 103.00 113.00 86.00 Z  M 153.00 86.00 C 153.00 69.00 153.00 69.00 165.00 69.00 C 177.00 69.00 177.00 69.00 177.00 86.00 C 177.00 103.00 177.00 103.00 165.00 103.00 C 153.00 103.00 153.00 103.00 153.00 86.00 Z  M 194.00 86.00 C 194.00 69.00 194.00 69.00 206.00 69.00 C 218.00 69.00 218.00 69.00 218.00 86.00 C 218.00 103.00 218.00 103.00 206.00 103.00 C 194.00 103.00 194.00 103.00 194.00 86.00 Z  M 153.67 53.33 C 153.30 52.97 153.00 48.92 153.00 44.33 C 153.00 36.00 153.00 36.00 165.00 36.00 C 177.00 36.00 177.00 36.00 177.00 45.00 C 177.00 54.00 177.00 54.00 165.67 54.00 C 159.43 54.00 154.03 53.70 153.67 53.33 Z "/>
</g>
</svg>