<?xml version="1.0" encoding="UTF-8" standalone="no"?>
<!DOCTYPE svg PUBLIC "-//W3C//DTD SVG 1.1//EN" "http://www.w3.org/Graphics/SVG/1.1/DTD/svg11.dtd" >
<svg xmlns="http://www.w3.org/2000/svg" xmlns:xlink="http://www.w3.org/1999/xlink" version="1.1" viewBox="0 0 256 256">
 <g >
 <path fill="currentColor"
d=" M 151.77 242.45 C 156.51 240.47 159.65 237.52 162.35 232.50 C 164.44 228.62 164.51 227.27 164.79 187.75 C 165.08 147.00 165.08 147.00 178.54 147.00 C 192.00 147.00 192.00 147.00 192.00 141.50 C 192.00 138.47 192.34 136.00 192.76 136.00 C 193.18 136.00 195.89 137.59 198.79 139.54 C 201.68 141.49 204.54 142.78 205.14 142.41 C 205.88 141.96 206.01 139.19 205.56 133.95 C 204.97 127.19 205.15 125.62 206.96 122.07 C 208.11 119.83 210.61 116.98 212.51 115.74 C 214.59 114.40 215.98 112.68 215.99 111.45 C 216.00 109.74 214.98 109.19 209.75 108.13 C 199.52 106.05 186.31 101.26 180.21 97.41 C 174.24 93.64 159.98 80.30 160.03 78.53 C 160.05 77.96 160.91 76.49 161.94 75.25 C 163.67 73.18 164.65 73.00 174.41 73.00 C 185.00 73.00 185.00 73.00 185.00 62.50 C 185.00 52.00 185.00 52.00 194.00 52.00 C 203.00 52.00 203.00 52.00 203.00 44.04 C 203.00 36.08 203.00 36.08 194.25 35.79 C 185.50 35.50 185.50 35.50 185.22 23.25 C 184.94 11.00 184.94 11.00 171.47 11.00 C 158.00 11.00 158.00 11.00 158.00 23.54 C 158.00 36.07 158.00 36.07 148.25 35.79 C 138.50 35.50 138.50 35.50 138.22 23.75 C 137.94 12.00 137.94 12.00 125.00 12.00 C 112.06 12.00 112.06 12.00 111.78 23.75 C 111.50 35.50 111.50 35.50 107.79 35.81 C 104.09 36.12 104.09 36.12 103.79 43.31 C 103.50 50.50 103.50 50.50 97.75 50.80 C 92.00 51.10 92.00 51.10 92.00 29.55 C 92.00 8.00 92.00 8.00 78.52 8.00 C 65.04 8.00 65.04 8.00 64.77 29.25 C 64.50 50.50 64.50 50.50 54.25 50.78 C 44.00 51.07 44.00 51.07 44.00 59.53 C 44.00 68.00 44.00 68.00 54.52 68.00 C 65.04 68.00 65.04 68.00 64.77 90.75 C 64.50 113.50 64.50 113.50 54.00 118.75 C 48.22 121.64 43.15 124.12 42.71 124.26 C 42.03 124.49 51.55 157.78 52.64 158.94 C 52.87 159.19 55.74 156.73 59.03 153.47 C 65.00 147.56 65.00 147.56 65.00 176.81 C 65.00 206.07 65.00 206.07 67.61 211.22 C 74.46 224.73 63.27 238.36 53.41 228.50 C 50.16 225.25 50.25 223.77 53.63 225.05 C 59.64 227.33 64.43 218.74 60.28 213.16 C 57.51 209.45 53.95 208.36 49.97 210.01 C 45.60 211.82 43.63 216.65 44.53 223.39 C 45.84 233.22 51.69 239.80 61.00 241.92 C 74.55 245.02 84.09 240.89 89.12 229.76 C 91.49 224.52 91.50 224.34 91.82 180.82 C 92.13 137.15 92.13 137.15 103.32 130.96 C 120.24 121.60 140.30 105.07 150.00 92.51 C 154.32 86.90 154.32 86.90 160.10 98.03 C 166.08 109.52 169.56 114.38 178.88 124.25 C 184.30 130.00 184.30 130.00 174.65 130.00 C 165.00 130.00 165.00 130.00 165.00 120.47 C 165.00 110.95 165.00 110.95 150.75 111.22 C 136.50 111.50 136.50 111.50 136.21 120.75 C 135.92 130.00 135.92 130.00 122.96 130.00 C 110.00 130.00 110.00 130.00 110.00 138.50 C 110.00 147.00 110.00 147.00 123.00 147.00 C 136.00 147.00 136.00 147.00 136.00 177.35 C 136.00 207.08 136.04 207.73 138.14 209.60 C 141.30 212.41 143.00 217.24 143.00 223.40 C 143.00 228.13 142.64 229.14 140.30 230.98 C 138.36 232.51 136.50 233.01 133.60 232.80 C 130.27 232.55 129.28 231.94 127.67 229.18 C 125.73 225.86 125.73 225.86 129.25 226.52 C 132.20 227.07 133.02 226.81 134.38 224.87 C 137.34 220.65 135.79 214.13 131.34 212.11 C 127.21 210.23 124.03 210.81 120.79 214.06 C 117.90 216.95 117.76 217.44 118.27 223.03 C 118.89 229.83 121.54 234.78 126.67 238.69 C 133.08 243.59 144.84 245.35 151.77 242.45 Z  M 105.07 215.21 C 115.07 203.29 122.30 192.75 126.04 184.64 C 129.08 178.07 135.68 157.32 134.94 156.64 C 134.70 156.42 128.65 156.07 121.50 155.87 C 108.50 155.50 108.50 155.50 108.23 159.50 C 107.11 176.29 102.00 202.29 97.40 214.55 C 94.18 223.17 93.71 226.92 96.03 225.48 C 96.53 225.18 100.59 220.56 105.07 215.21 Z  M 196.00 206.73 C 200.68 205.05 204.85 203.38 205.28 203.01 C 206.52 201.94 198.71 186.02 194.08 180.19 C 188.67 173.38 170.02 154.00 168.87 154.00 C 167.34 154.00 167.93 156.61 170.93 163.14 C 174.38 170.62 177.00 188.27 177.00 204.08 C 177.00 213.97 177.00 213.97 182.25 211.88 C 185.14 210.73 191.32 208.41 196.00 206.73 Z  M 92.00 121.46 C 92.00 113.48 92.00 113.48 99.04 101.07 C 105.68 89.37 106.75 86.00 103.81 86.00 C 103.13 86.00 100.19 88.35 97.28 91.22 C 92.00 96.43 92.00 96.43 92.00 82.27 C 92.00 68.10 92.00 68.10 97.75 67.80 C 103.50 67.50 103.50 67.50 103.79 59.75 C 104.08 52.00 104.08 52.00 108.04 52.00 C 112.00 52.00 112.00 52.00 112.00 63.50 C 112.00 75.00 112.00 75.00 119.50 75.00 C 123.62 75.00 127.00 75.34 127.00 75.75 C 126.99 76.16 124.31 82.02 121.04 88.77 C 114.00 103.26 105.25 116.38 97.55 123.97 C 92.00 129.43 92.00 129.43 92.00 121.46 Z  M 145.00 72.08 C 138.50 71.50 138.50 71.50 138.21 61.75 C 137.93 52.00 137.93 52.00 147.90 52.00 C 157.87 52.00 157.87 52.00 158.19 62.50 C 158.54 74.39 159.91 73.40 145.00 72.08 Z "/>
</g>
</svg>