<?xml version="1.0" encoding="UTF-8" standalone="no"?>
<!DOCTYPE svg PUBLIC "-//W3C//DTD SVG 1.1//EN" "http://www.w3.org/Graphics/SVG/1.1/DTD/svg11.dtd" >
<svg xmlns="http://www.w3.org/2000/svg" xmlns:xlink="http://www.w3.org/1999/xlink" version="1.1" viewBox="0 0 256 256">
 <g >
 <path fill="currentColor"
d=" M 200.70 239.80 C 200.41 237.63 200.56 233.14 201.03 229.81 C 202.05 222.55 204.40 219.65 211.20 217.23 C 213.84 216.30 216.00 215.02 216.00 214.39 C 216.00 213.76 214.39 211.51 212.43 209.38 C 208.40 205.00 201.93 194.47 193.73 178.93 C 188.16 168.37 188.16 168.37 191.15 159.93 C 194.73 149.87 197.20 138.44 199.90 119.50 C 202.15 103.70 205.00 67.35 205.00 54.38 C 205.00 45.84 205.02 45.76 209.06 40.69 C 213.12 35.59 213.12 35.59 200.82 31.24 C 188.52 26.88 188.52 26.88 183.51 32.47 C 178.50 38.06 178.50 38.06 165.71 38.03 C 152.92 38.00 152.92 38.00 153.21 46.25 C 153.50 54.50 153.50 54.50 166.75 54.78 C 180.00 55.06 180.00 55.06 179.99 58.78 C 179.99 60.83 179.55 73.30 179.02 86.50 C 177.97 112.43 176.24 130.65 174.95 129.33 C 172.89 127.22 164.93 96.84 162.35 81.24 C 159.58 64.51 159.43 64.01 157.10 64.01 C 154.69 64.00 154.69 64.00 155.32 89.25 C 156.04 118.23 158.23 137.28 163.01 156.00 C 166.66 170.28 166.79 168.86 159.76 190.95 C 155.10 205.58 150.58 215.69 142.07 230.46 C 138.10 237.35 136.11 241.81 136.53 242.86 C 137.87 246.19 164.37 215.23 174.07 199.00 C 175.28 196.96 176.14 198.31 180.08 208.44 C 181.78 212.80 185.44 220.90 188.21 226.44 C 197.00 243.96 201.97 249.28 200.70 239.80 Z  M 116.45 240.89 C 121.96 239.36 126.48 234.49 128.40 228.02 C 129.67 223.74 130.00 217.69 130.00 198.40 C 130.00 174.16 130.00 174.16 126.43 171.96 C 124.47 170.75 121.66 167.93 120.18 165.70 C 117.79 162.09 117.50 160.70 117.50 153.03 C 117.50 142.92 118.75 140.31 125.56 136.19 C 130.00 133.51 130.00 133.51 130.00 121.76 C 130.00 110.00 130.00 110.00 118.00 110.00 C 106.00 110.00 106.00 110.00 106.00 120.50 C 106.00 131.00 106.00 131.00 97.12 131.00 C 86.95 131.00 87.05 130.90 87.00 141.00 C 86.96 150.22 83.24 179.79 80.53 192.50 C 78.06 204.05 74.18 216.51 73.32 215.65 C 73.09 215.42 74.02 206.29 75.39 195.37 C 76.76 184.44 78.15 170.78 78.47 165.00 C 78.80 159.22 79.33 151.46 79.66 147.75 C 80.26 141.00 80.26 141.00 68.17 141.00 C 56.09 141.00 56.09 141.00 55.61 144.25 C 55.35 146.04 54.19 158.97 53.03 173.00 C 51.88 187.03 50.68 199.67 50.38 201.09 C 49.90 203.32 50.53 204.19 54.81 207.27 C 60.85 211.61 62.66 215.83 61.05 221.82 C 59.90 226.09 55.66 228.86 52.27 227.54 C 50.70 226.93 50.78 226.71 52.95 225.54 C 54.30 224.81 55.73 223.38 56.13 222.36 C 57.44 219.03 57.04 213.70 55.35 211.83 C 52.16 208.31 40.49 210.35 38.08 214.85 C 36.56 217.70 36.74 225.60 38.40 228.80 C 41.18 234.14 44.60 236.34 50.80 236.79 C 54.57 237.06 57.83 236.68 60.22 235.68 C 64.55 233.87 69.68 227.22 71.24 221.39 C 72.09 218.23 72.74 217.38 74.09 217.73 C 75.39 218.07 77.69 215.50 83.16 207.56 C 92.92 193.44 97.97 184.00 102.09 172.24 C 105.50 162.50 105.50 162.50 106.07 186.00 C 106.55 205.48 106.96 210.24 108.45 213.79 C 111.64 221.39 108.84 230.24 102.55 232.48 C 100.12 233.34 99.46 233.08 96.90 230.21 C 93.33 226.22 93.25 225.13 96.54 225.76 C 103.69 227.13 106.14 215.21 99.34 212.11 C 95.45 210.34 93.05 210.80 89.92 213.92 C 87.41 216.44 87.00 217.61 87.00 222.27 C 87.00 231.05 92.97 237.95 102.85 240.61 C 108.75 242.20 111.53 242.26 116.45 240.89 Z  M 147.93 167.54 C 153.52 164.65 155.73 153.28 152.08 146.21 C 149.84 141.87 147.52 140.27 142.25 139.42 C 132.19 137.82 124.94 143.63 124.20 153.90 C 123.83 159.00 124.08 159.95 126.59 162.93 C 128.14 164.76 130.77 166.86 132.45 167.59 C 136.53 169.37 144.44 169.34 147.93 167.54 Z  M 66.16 109.79 C 77.01 103.69 77.40 89.65 66.94 82.07 C 60.01 77.05 52.00 78.03 45.87 84.66 C 40.93 90.00 39.81 94.71 42.06 100.68 C 43.31 103.99 48.64 109.84 51.50 111.04 C 55.34 112.64 62.11 112.07 66.16 109.79 Z  M 149.00 97.50 C 149.00 89.00 149.00 89.00 139.50 89.00 C 130.00 89.00 130.00 89.00 130.00 72.00 C 130.00 55.00 130.00 55.00 139.00 55.00 C 148.00 55.00 148.00 55.00 148.00 46.54 C 148.00 38.08 148.00 38.08 139.25 37.79 C 130.50 37.50 130.50 37.50 130.22 25.75 C 129.94 14.00 129.94 14.00 117.97 14.00 C 106.00 14.00 106.00 14.00 106.00 51.50 C 106.00 89.00 106.00 89.00 96.50 89.00 C 87.00 89.00 87.00 89.00 87.00 97.50 C 87.00 106.00 87.00 106.00 118.00 106.00 C 149.00 106.00 149.00 106.00 149.00 97.50 Z  M 75.17 56.37 C 81.38 53.25 84.84 44.65 82.98 36.92 C 80.94 28.43 73.60 23.99 63.77 25.30 C 50.11 27.14 45.13 46.26 56.26 54.18 C 62.77 58.82 68.89 59.53 75.17 56.37 Z "/>
</g>
</svg>