<?xml version="1.0" encoding="UTF-8" standalone="no"?>
<!DOCTYPE svg PUBLIC "-//W3C//DTD SVG 1.1//EN" "http://www.w3.org/Graphics/SVG/1.1/DTD/svg11.dtd" >
<svg xmlns="http://www.w3.org/2000/svg" xmlns:xlink="http://www.w3.org/1999/xlink" version="1.1" viewBox="0 0 256 256">
 <g >
 <path fill="currentColor"
d=" M 202.50 236.96 C 201.51 227.15 203.80 219.84 209.59 214.27 C 212.02 211.94 214.00 209.37 214.00 208.55 C 214.00 207.73 211.59 205.28 208.64 203.10 C 191.72 190.61 177.68 168.87 172.03 146.43 C 168.85 133.83 167.12 135.00 189.00 135.00 C 208.00 135.00 208.00 135.00 208.00 126.50 C 208.00 118.00 208.00 118.00 188.06 118.00 C 168.13 118.00 168.13 118.00 168.56 114.75 C 169.04 111.21 171.00 67.40 171.00 60.35 C 171.00 56.00 171.00 56.00 188.50 56.00 C 206.00 56.00 206.00 56.00 206.00 47.52 C 206.00 39.05 206.00 39.05 189.25 38.77 C 172.50 38.50 172.50 38.50 172.22 24.25 C 171.95 10.00 171.95 10.00 158.47 10.00 C 145.00 10.00 145.00 10.00 145.00 22.92 C 145.00 30.02 144.73 36.55 144.39 37.42 C 143.88 38.76 141.64 39.00 129.89 39.00 C 116.00 39.00 116.00 39.00 116.00 47.50 C 116.00 56.00 116.00 56.00 130.00 56.00 C 144.00 56.00 144.00 56.00 144.00 60.97 C 144.00 65.04 144.53 66.53 146.96 69.31 C 153.98 77.30 153.83 87.63 146.56 96.50 C 143.31 100.45 142.97 101.50 142.37 109.40 C 141.70 118.00 141.70 118.00 127.85 118.00 C 114.00 118.00 114.00 118.00 114.00 126.50 C 114.00 135.00 114.00 135.00 126.50 135.00 C 141.11 135.00 140.04 133.50 136.93 149.62 C 132.63 171.91 126.43 188.76 116.24 205.87 C 110.50 215.50 110.50 215.50 110.00 147.80 C 109.63 97.85 109.19 79.79 108.32 78.92 C 106.07 76.67 100.29 79.04 88.64 86.99 C 77.00 94.94 77.00 94.94 77.00 87.81 C 77.00 82.36 77.84 78.09 80.59 69.60 C 82.57 63.49 85.17 53.33 86.36 47.00 C 88.53 35.50 88.53 35.50 99.01 35.00 C 109.50 34.50 109.50 34.50 109.79 26.25 C 110.08 18.00 110.08 18.00 77.54 18.00 C 45.00 18.00 45.00 18.00 45.00 26.50 C 45.00 35.00 45.00 35.00 54.01 35.00 C 63.02 35.00 63.02 35.00 62.55 38.75 C 62.29 40.81 61.82 46.33 61.50 51.00 C 60.23 69.92 51.85 104.17 44.90 118.88 C 42.21 124.59 40.00 129.42 40.00 129.63 C 40.00 129.83 40.64 130.00 41.42 130.00 C 42.19 130.00 45.33 127.41 48.40 124.25 C 53.96 118.50 53.96 118.50 53.98 172.25 C 54.00 226.00 54.00 226.00 65.50 226.00 C 77.00 226.00 77.00 226.00 77.00 219.00 C 77.00 212.00 77.00 212.00 82.50 212.00 C 88.00 212.00 88.00 212.00 88.00 219.00 C 88.00 226.00 88.00 226.00 95.60 226.00 C 104.14 226.00 104.37 224.68 93.59 237.45 C 88.09 243.98 89.96 245.22 97.58 240.11 C 106.64 234.05 121.85 221.02 130.00 212.32 C 139.76 201.91 145.55 192.83 151.97 177.89 C 154.90 171.08 157.98 163.93 158.82 162.00 C 160.34 158.50 160.34 158.50 161.65 167.93 C 162.37 173.11 164.12 181.44 165.54 186.43 C 168.62 197.26 178.32 217.50 184.38 225.73 C 190.57 234.14 201.04 245.09 202.20 244.38 C 202.80 244.01 202.91 241.11 202.50 236.96 Z  M 176.15 113.25 C 181.52 107.58 190.94 95.35 194.54 89.36 C 197.41 84.60 204.71 64.33 203.84 63.54 C 202.98 62.74 181.00 61.88 181.00 62.64 C 180.99 66.91 174.36 101.06 172.41 106.87 C 168.81 117.58 170.05 119.69 176.15 113.25 Z  M 141.24 94.28 C 147.90 88.26 147.50 75.69 140.49 70.17 C 138.36 68.50 136.37 68.00 131.82 68.00 C 124.39 68.00 120.59 69.92 118.01 74.98 C 115.46 79.98 115.46 85.01 118.00 90.01 C 120.35 94.61 122.84 96.19 129.00 97.00 C 134.29 97.69 138.51 96.75 141.24 94.28 Z  M 77.00 149.13 C 77.00 103.26 77.00 103.26 80.75 102.64 C 88.77 101.32 88.00 96.48 88.00 148.50 C 88.00 195.00 88.00 195.00 82.50 195.00 C 77.00 195.00 77.00 195.00 77.00 149.13 Z "/>
</g>
</svg>