<?xml version="1.0" encoding="UTF-8" standalone="no"?>
<!DOCTYPE svg PUBLIC "-//W3C//DTD SVG 1.1//EN" "http://www.w3.org/Graphics/SVG/1.1/DTD/svg11.dtd" >
<svg xmlns="http://www.w3.org/2000/svg" xmlns:xlink="http://www.w3.org/1999/xlink" version="1.1" viewBox="0 0 256 256">
 <g >
 <path fill="currentColor"
d=" M 64.59 242.49 C 100.00 239.14 114.90 234.37 134.39 220.15 C 141.28 215.13 141.28 215.13 155.89 222.48 C 163.93 226.52 174.91 232.97 180.30 236.82 C 191.39 244.74 188.21 246.08 206.37 225.80 C 214.15 217.10 214.15 217.10 207.33 213.68 C 193.98 206.99 185.71 203.83 172.83 200.49 C 165.65 198.63 159.62 196.96 159.43 196.77 C 159.24 196.58 161.31 193.16 164.01 189.18 C 166.72 185.19 171.32 177.45 174.22 171.98 C 179.50 162.03 179.50 162.03 194.75 162.02 C 210.00 162.00 210.00 162.00 210.00 152.51 C 210.00 143.02 210.00 143.02 170.51 142.76 C 131.01 142.50 131.01 142.50 134.97 136.00 C 137.15 132.43 138.95 129.16 138.96 128.75 C 138.98 128.34 131.80 128.00 122.99 128.00 C 106.98 128.00 106.98 128.00 103.27 135.50 C 99.56 143.00 99.56 143.00 71.78 143.00 C 44.00 143.00 44.00 143.00 44.00 152.50 C 44.00 162.00 44.00 162.00 66.00 162.00 C 78.10 162.00 88.00 162.24 88.00 162.54 C 88.00 163.18 77.49 178.76 73.03 184.72 C 69.88 188.93 69.88 188.93 72.69 189.55 C 87.31 192.77 115.24 201.95 116.47 203.95 C 117.05 204.89 99.48 217.98 89.24 224.23 C 80.98 229.28 71.99 233.34 57.54 238.54 C 52.61 240.31 48.41 242.26 48.21 242.88 C 48.00 243.50 48.02 244.00 48.26 244.00 C 48.49 244.00 55.84 243.32 64.59 242.49 Z  M 85.00 123.50 C 85.00 120.00 85.00 120.00 128.50 120.00 C 172.00 120.00 172.00 120.00 172.00 123.50 C 172.00 127.00 172.00 127.00 186.00 127.00 C 200.00 127.00 200.00 127.00 200.00 89.69 C 200.00 42.27 201.87 45.36 176.66 51.00 C 157.56 55.27 159.00 55.76 159.00 45.00 C 159.00 36.00 159.00 36.00 182.50 36.00 C 206.00 36.00 206.00 36.00 206.00 27.00 C 206.00 18.00 206.00 18.00 127.50 18.00 C 49.00 18.00 49.00 18.00 49.00 27.00 C 49.00 36.00 49.00 36.00 73.50 36.00 C 98.00 36.00 98.00 36.00 98.00 48.44 C 98.00 55.28 97.61 61.12 97.14 61.42 C 96.66 61.71 93.73 62.25 90.64 62.61 C 85.00 63.28 85.00 63.28 85.00 56.14 C 85.00 49.00 85.00 49.00 70.50 49.00 C 56.00 49.00 56.00 49.00 56.00 88.00 C 56.00 127.00 56.00 127.00 70.50 127.00 C 85.00 127.00 85.00 127.00 85.00 123.50 Z  M 117.00 186.28 C 100.04 182.61 100.83 183.32 106.59 176.91 C 109.29 173.91 113.08 169.34 115.00 166.75 C 118.50 162.06 118.50 162.06 132.25 162.03 C 139.81 162.01 146.00 162.21 146.00 162.47 C 146.00 166.23 131.81 189.11 129.63 188.88 C 129.01 188.81 123.33 187.64 117.00 186.28 Z  M 85.00 88.00 C 85.00 74.00 85.00 74.00 91.50 74.00 C 98.00 74.00 98.00 74.00 98.00 88.00 C 98.00 102.00 98.00 102.00 91.50 102.00 C 85.00 102.00 85.00 102.00 85.00 88.00 Z  M 123.00 87.00 C 123.00 75.02 123.27 72.00 124.36 72.00 C 125.11 72.00 127.81 71.71 130.36 71.36 C 135.00 70.73 135.00 70.73 135.00 86.36 C 135.00 102.00 135.00 102.00 129.00 102.00 C 123.00 102.00 123.00 102.00 123.00 87.00 Z  M 159.00 86.06 C 159.00 77.29 159.34 69.91 159.75 69.66 C 160.16 69.41 163.09 68.88 166.25 68.48 C 172.00 67.77 172.00 67.77 172.00 84.88 C 172.00 102.00 172.00 102.00 165.50 102.00 C 159.00 102.00 159.00 102.00 159.00 86.06 Z  M 123.00 47.50 C 123.00 36.00 123.00 36.00 129.00 36.00 C 135.00 36.00 135.00 36.00 135.00 46.33 C 135.00 56.66 135.00 56.66 129.92 57.83 C 127.13 58.47 124.43 59.00 123.92 59.00 C 123.41 59.00 123.00 53.87 123.00 47.50 Z "/>
</g>
</svg>