<?xml version="1.0" encoding="UTF-8" standalone="no"?>
<!DOCTYPE svg PUBLIC "-//W3C//DTD SVG 1.1//EN" "http://www.w3.org/Graphics/SVG/1.1/DTD/svg11.dtd" >
<svg xmlns="http://www.w3.org/2000/svg" xmlns:xlink="http://www.w3.org/1999/xlink" version="1.1" viewBox="0 0 261 256">
 <g >
 <path fill="currentColor"
d=" M 194.00 241.00 C 194.00 238.33 194.33 238.00 197.00 238.00 C 199.67 238.00 200.00 238.33 200.00 241.00 C 200.00 243.93 200.11 244.00 205.00 244.00 C 209.89 244.00 210.00 243.93 210.00 241.00 C 210.00 238.33 210.33 238.00 213.00 238.00 C 215.67 238.00 216.00 238.33 216.00 241.00 C 216.00 243.97 216.06 244.00 221.50 244.00 C 226.94 244.00 227.00 243.97 227.00 241.00 C 227.00 238.37 227.35 238.00 229.84 238.00 C 232.68 238.00 232.68 238.00 233.34 207.25 C 233.70 190.34 234.00 168.06 234.00 157.74 C 234.00 138.98 234.00 138.98 196.75 139.24 C 159.50 139.50 159.50 139.50 159.19 143.25 C 158.91 146.66 158.61 147.00 155.94 147.00 C 153.18 147.00 153.00 146.76 153.00 143.00 C 153.00 139.00 153.00 139.00 148.50 139.00 C 146.03 139.00 143.66 138.99 143.25 138.98 C 142.84 138.97 142.36 140.77 142.19 142.98 C 141.91 146.69 141.66 147.00 138.94 147.00 C 136.12 147.00 136.00 146.81 136.00 142.50 C 136.00 138.00 136.00 138.00 130.00 138.00 C 124.00 138.00 124.00 138.00 124.00 142.50 C 124.00 146.81 123.88 147.00 121.06 147.00 C 118.31 147.00 118.09 146.72 117.81 142.75 C 117.50 138.50 117.50 138.50 111.63 138.20 C 105.76 137.89 105.76 137.89 106.42 184.20 C 106.78 209.66 107.33 232.22 107.64 234.32 C 108.20 238.14 108.20 238.14 146.10 237.42 C 184.00 236.70 184.00 236.70 184.00 240.35 C 184.00 244.00 184.00 244.00 189.00 244.00 C 193.89 244.00 194.00 243.93 194.00 241.00 Z  M 76.00 196.75 C 76.01 180.66 76.30 161.76 76.66 154.75 C 77.31 142.00 77.31 142.00 83.47 142.00 C 90.35 142.00 90.00 143.50 88.15 122.00 C 87.50 114.50 87.50 114.50 82.12 114.19 C 76.73 113.89 76.73 113.89 77.20 87.94 C 77.67 62.00 77.67 62.00 75.08 62.08 C 73.66 62.13 66.65 62.92 59.50 63.84 C 46.50 65.50 46.50 65.50 45.86 75.00 C 45.51 80.23 45.17 91.33 45.11 99.68 C 45.01 113.23 44.81 114.92 43.25 115.36 C 42.29 115.63 34.19 116.17 25.25 116.54 C 9.00 117.23 9.00 117.23 9.00 135.11 C 9.00 153.00 9.00 153.00 14.00 153.00 C 18.67 153.00 19.00 153.17 19.00 155.50 C 19.00 157.83 18.67 158.00 14.00 158.00 C 9.00 158.00 9.00 158.00 9.00 162.00 C 9.00 166.00 9.00 166.00 14.00 166.00 C 18.67 166.00 19.00 166.17 19.00 168.50 C 19.00 170.86 18.70 171.00 13.50 171.00 C 8.00 171.00 8.00 171.00 8.00 177.50 C 8.00 184.00 8.00 184.00 22.00 184.00 C 36.00 184.00 36.00 184.00 36.00 162.50 C 36.00 141.00 36.00 141.00 40.50 141.00 C 45.00 141.00 45.00 141.00 45.00 182.41 C 45.00 223.82 45.00 223.82 53.25 224.42 C 57.79 224.75 63.08 225.16 65.00 225.35 C 77.09 226.50 76.00 229.33 76.00 196.75 Z  M 244.27 124.08 C 253.30 117.36 253.30 117.38 249.71 112.58 C 248.31 110.70 248.21 110.71 244.59 112.95 C 241.01 115.16 240.85 115.17 239.51 113.37 C 238.29 111.71 238.46 111.16 241.01 108.50 C 243.85 105.54 243.87 105.47 242.07 103.09 C 240.25 100.68 240.25 100.68 236.57 102.96 C 233.00 105.16 232.85 105.17 231.48 103.37 C 230.22 101.69 230.38 101.24 233.08 98.99 C 236.08 96.49 236.08 96.49 216.92 65.49 C 206.39 48.45 197.63 34.35 197.46 34.16 C 197.06 33.72 167.00 57.87 167.00 58.62 C 167.00 59.77 172.54 66.96 173.44 66.98 C 173.95 66.99 175.42 66.02 176.70 64.81 C 178.09 63.50 179.36 63.00 179.86 63.56 C 182.73 66.79 199.71 92.96 199.24 93.43 C 198.57 94.10 147.00 94.22 147.00 93.55 C 147.00 93.30 153.12 77.52 160.61 58.49 C 168.10 39.46 174.06 23.76 173.86 23.61 C 172.99 22.94 142.71 11.95 142.45 12.21 C 142.29 12.37 135.82 30.19 128.07 51.80 C 120.32 73.42 113.25 92.21 112.37 93.56 C 110.17 96.91 106.34 97.73 102.67 95.63 C 101.05 94.70 99.63 94.06 99.50 94.22 C 99.11 94.69 93.99 118.41 94.00 119.71 C 94.00 120.38 97.04 121.86 100.75 123.01 C 107.27 125.02 108.42 125.06 134.00 124.08 C 148.57 123.53 171.53 122.82 185.00 122.50 C 198.47 122.18 211.38 121.69 213.68 121.41 C 217.87 120.90 217.87 120.90 222.99 128.49 C 228.82 137.13 225.92 137.73 244.27 124.08 Z  M 137.00 189.75 C 137.50 167.50 137.50 167.50 152.50 166.86 C 160.75 166.51 175.26 165.99 184.75 165.69 C 202.00 165.15 202.00 165.15 202.00 187.92 C 202.00 210.68 202.00 210.68 178.75 211.34 C 165.96 211.70 151.22 212.00 146.00 212.00 C 136.50 212.00 136.50 212.00 137.00 189.75 Z  M 56.00 109.00 C 53.36 106.36 53.36 100.89 56.00 98.50 C 59.78 95.08 66.95 97.13 68.53 102.08 C 69.23 104.31 66.67 109.53 64.46 110.38 C 61.40 111.55 58.00 111.00 56.00 109.00 Z  M 54.07 88.37 C 51.64 85.27 51.41 81.04 53.46 77.07 C 55.13 73.85 56.79 73.00 61.41 73.00 C 65.97 73.00 69.45 76.90 69.45 82.00 C 69.45 87.59 66.02 91.00 60.40 91.00 C 56.99 91.00 55.73 90.47 54.07 88.37 Z "/>
</g>
</svg>