<?xml version="1.0" encoding="UTF-8" standalone="no"?>
<!DOCTYPE svg PUBLIC "-//W3C//DTD SVG 1.1//EN" "http://www.w3.org/Graphics/SVG/1.1/DTD/svg11.dtd" >
<svg xmlns="http://www.w3.org/2000/svg" xmlns:xlink="http://www.w3.org/1999/xlink" version="1.1" viewBox="0 0 260 256">
 <g >
 <path fill="currentColor"
d=" M 181.43 215.89 C 181.19 215.50 173.14 210.99 163.52 205.85 C 146.05 196.50 146.05 196.50 158.52 196.22 C 171.00 195.94 171.00 195.94 171.00 125.47 C 171.00 55.00 171.00 55.00 135.75 55.01 C 116.36 55.01 96.11 55.30 90.75 55.66 C 81.00 56.30 81.00 56.30 81.00 59.65 C 81.00 62.90 81.12 63.00 85.07 63.00 C 88.91 63.00 89.12 63.15 88.82 65.75 C 88.54 68.14 88.01 68.54 84.75 68.81 C 81.10 69.11 81.00 69.23 81.00 73.06 C 81.00 77.00 81.00 77.00 85.06 77.00 C 89.05 77.00 89.12 77.07 88.81 80.25 C 88.53 83.22 88.17 83.53 84.75 83.81 C 81.10 84.11 81.00 84.23 81.00 88.06 C 81.00 91.99 81.01 92.00 85.00 92.00 C 88.60 92.00 89.00 92.25 89.00 94.50 C 89.00 96.75 88.60 97.00 85.00 97.00 C 81.00 97.00 81.00 97.00 81.00 146.00 C 81.00 195.00 81.00 195.00 89.50 195.00 C 94.17 195.00 98.00 195.23 98.00 195.52 C 98.00 195.81 96.88 197.82 95.50 200.00 C 94.13 202.18 93.00 204.33 93.00 204.79 C 93.00 206.24 87.17 210.00 84.94 210.00 C 81.83 210.00 77.09 204.44 76.37 199.93 C 75.76 196.09 75.76 196.09 70.88 198.56 C 66.91 200.57 66.00 201.52 66.00 203.65 C 66.00 211.37 71.48 219.95 78.43 223.11 C 81.56 224.53 81.97 224.96 80.21 224.98 C 77.40 225.00 71.11 221.89 68.79 219.32 C 67.85 218.28 66.05 215.19 64.79 212.46 C 62.50 207.50 62.50 207.50 62.19 211.18 C 61.49 219.62 66.74 229.23 74.24 233.21 C 77.65 235.03 80.10 235.48 86.55 235.48 C 93.59 235.47 95.41 235.07 101.14 232.25 C 109.51 228.13 116.27 221.00 122.31 209.90 C 124.89 205.17 127.00 200.99 127.00 200.61 C 127.00 200.23 125.09 199.07 122.75 198.03 C 118.50 196.14 118.50 196.14 126.25 196.07 C 130.51 196.03 134.00 196.27 134.00 196.60 C 134.00 196.93 131.75 202.29 129.00 208.50 C 126.25 214.71 124.00 220.20 124.00 220.70 C 124.00 221.19 126.00 222.57 128.45 223.76 C 132.80 225.87 132.90 225.88 133.50 223.98 C 134.06 222.22 135.72 222.85 151.81 230.91 C 169.50 239.77 169.50 239.77 175.68 228.18 C 179.08 221.80 181.67 216.27 181.43 215.89 Z  M 242.86 147.75 C 243.00 120.00 243.00 120.00 246.50 120.00 C 250.00 120.00 250.00 120.00 250.00 113.50 C 250.00 107.00 250.00 107.00 246.00 107.00 C 242.00 107.00 242.00 107.00 242.00 103.00 C 242.00 99.00 242.00 99.00 246.36 99.00 C 250.73 99.00 250.73 99.00 251.36 94.36 C 252.51 86.00 252.51 86.00 247.50 86.00 C 242.68 86.00 242.50 85.74 243.62 80.12 C 244.20 77.27 244.59 77.00 248.12 77.00 C 252.00 77.00 252.00 77.00 252.00 70.62 C 252.00 64.28 251.98 64.25 248.88 63.62 C 247.16 63.28 238.38 63.00 229.38 63.00 C 213.00 63.00 213.00 63.00 212.86 108.75 C 212.79 133.91 212.45 167.10 212.11 182.50 C 211.50 210.50 211.50 210.50 207.29 210.81 C 201.57 211.22 199.00 209.70 199.00 205.90 C 199.00 202.56 200.30 199.56 203.05 196.50 C 204.80 194.56 204.77 194.40 201.86 191.16 C 198.87 187.82 198.87 187.82 195.02 190.37 C 181.99 198.99 180.32 216.52 191.65 225.86 C 196.88 230.17 200.95 230.94 218.00 230.81 C 229.06 230.72 234.65 231.09 237.50 232.10 C 241.50 233.51 241.50 233.51 242.11 204.51 C 242.44 188.55 242.78 163.01 242.86 147.75 Z  M 46.84 215.92 C 53.64 212.52 58.20 207.61 62.50 199.05 C 67.65 188.79 67.93 184.33 67.97 111.25 C 68.00 44.00 68.00 44.00 144.00 44.00 C 220.00 44.00 220.00 44.00 219.99 37.25 C 219.99 33.54 219.70 27.46 219.35 23.75 C 218.71 17.00 218.71 17.00 180.11 17.00 C 158.87 17.00 129.01 17.30 113.75 17.66 C 86.00 18.32 86.00 18.32 86.00 22.16 C 86.00 25.88 85.89 26.00 82.50 26.00 C 79.08 26.00 79.00 25.90 79.00 22.00 C 79.00 18.00 79.00 18.00 74.00 18.00 C 69.00 18.00 69.00 18.00 69.00 22.00 C 69.00 25.78 68.83 26.00 66.00 26.00 C 63.17 26.00 63.00 25.78 63.00 22.00 C 63.00 18.00 63.00 18.00 58.50 18.00 C 54.00 18.00 54.00 18.00 54.00 22.00 C 54.00 25.78 53.83 26.00 51.00 26.00 C 48.17 26.00 48.00 25.78 48.00 22.00 C 48.00 18.00 48.00 18.00 42.50 18.00 C 39.48 18.00 36.94 18.11 36.86 18.25 C 36.79 18.39 36.43 55.17 36.06 100.00 C 35.36 184.64 35.32 185.49 31.20 190.25 C 28.65 193.21 25.06 192.39 20.76 187.87 C 16.84 183.74 16.84 183.74 12.47 188.03 C 7.52 192.89 7.59 193.56 13.63 199.43 C 21.49 207.06 34.32 208.29 41.97 202.14 C 46.59 198.43 47.41 199.74 43.15 204.01 C 39.04 208.12 30.63 210.37 24.53 209.01 C 18.87 207.74 15.35 206.01 11.00 202.35 C 7.77 199.63 7.77 199.63 9.85 203.70 C 16.93 217.57 32.94 222.87 46.84 215.92 Z  M 204.00 132.42 C 204.00 87.17 206.01 91.76 188.50 96.89 C 179.50 99.53 179.50 99.53 179.24 135.77 C 178.98 172.00 178.98 172.00 191.49 172.00 C 204.00 172.00 204.00 172.00 204.00 132.42 Z  M 156.17 224.49 C 153.90 221.60 154.27 218.62 157.31 215.25 C 160.99 211.19 167.21 213.30 169.35 219.33 C 169.79 220.58 169.08 222.07 167.08 224.08 C 163.31 227.84 158.94 228.01 156.17 224.49 Z  M 139.07 216.37 C 136.33 212.87 136.46 210.81 139.64 207.64 C 142.80 204.48 147.87 204.09 150.35 206.83 C 154.27 211.17 150.51 219.00 144.50 219.00 C 142.07 219.00 140.58 218.28 139.07 216.37 Z  M 117.25 168.27 C 113.00 167.89 113.00 167.89 113.00 162.94 C 113.00 158.00 113.00 158.00 122.81 158.00 C 132.61 158.00 132.61 158.00 134.33 145.25 C 135.27 138.24 136.04 131.94 136.02 131.25 C 136.01 130.32 133.02 130.00 124.50 130.00 C 113.00 130.00 113.00 130.00 113.00 125.50 C 113.00 121.00 113.00 121.00 122.81 121.00 C 132.61 121.00 132.61 121.00 134.33 108.25 C 135.27 101.24 136.04 94.94 136.02 94.25 C 136.01 93.32 133.02 93.00 124.50 93.00 C 113.00 93.00 113.00 93.00 113.00 88.00 C 113.00 83.00 113.00 83.00 126.50 83.00 C 140.00 83.00 140.00 83.00 140.00 126.00 C 140.00 169.00 140.00 169.00 130.75 168.83 C 125.66 168.73 119.59 168.48 117.25 168.27 Z  M 197.32 37.01 C 190.64 34.26 192.96 23.00 200.20 23.00 C 206.28 23.00 210.46 31.47 206.25 35.27 C 203.93 37.36 200.01 38.13 197.32 37.01 Z  M 177.00 35.00 C 173.10 31.10 175.75 25.00 181.36 25.00 C 185.46 25.00 187.00 26.54 187.00 30.64 C 187.00 36.25 180.90 38.90 177.00 35.00 Z "/>
</g>
</svg>