<?xml version="1.0" encoding="UTF-8" standalone="no"?>
<!DOCTYPE svg PUBLIC "-//W3C//DTD SVG 1.1//EN" "http://www.w3.org/Graphics/SVG/1.1/DTD/svg11.dtd" >
<svg xmlns="http://www.w3.org/2000/svg" xmlns:xlink="http://www.w3.org/1999/xlink" version="1.1" viewBox="0 0 310 256">
 <g >
 <path fill="currentColor"
d=" M 293.00 218.50 C 293.00 190.00 293.00 190.00 289.50 190.00 C 286.08 190.00 286.00 189.90 286.00 186.00 C 286.00 182.10 286.08 182.00 289.50 182.00 C 292.83 182.00 293.00 181.83 293.00 178.50 C 293.00 175.17 292.83 175.00 289.50 175.00 C 286.28 175.00 286.00 174.76 286.00 172.00 C 286.00 169.24 286.28 169.00 289.50 169.00 C 292.92 169.00 293.00 168.90 293.00 165.00 C 293.00 161.10 292.92 161.00 289.50 161.00 C 286.28 161.00 286.00 160.76 286.00 158.00 C 286.00 155.24 286.28 155.00 289.50 155.00 C 292.81 155.00 293.00 154.81 293.00 151.64 C 293.00 149.79 293.29 146.19 293.64 143.64 C 294.27 139.00 294.27 139.00 250.31 139.00 C 206.34 139.00 206.34 139.00 207.80 134.23 C 209.27 129.46 209.27 129.46 255.64 129.85 C 302.02 130.23 302.02 130.23 301.38 118.37 C 301.03 111.84 300.46 106.22 300.12 105.88 C 299.78 105.54 279.93 104.74 256.00 104.10 C 232.07 103.47 210.48 102.86 208.01 102.76 C 204.23 102.60 203.47 102.88 203.22 104.53 C 202.25 110.95 202.11 111.13 198.22 110.81 C 194.50 110.50 194.50 110.50 194.84 106.19 C 195.18 101.89 195.18 101.89 189.84 102.19 C 184.50 102.50 184.50 102.50 184.19 106.25 C 183.89 109.90 183.77 110.00 179.94 110.00 C 176.00 110.00 176.00 110.00 176.00 105.45 C 176.00 100.89 176.00 100.89 171.25 101.20 C 166.50 101.50 166.50 101.50 166.19 105.75 C 165.89 109.98 165.87 110.00 161.94 110.00 C 158.00 110.00 158.00 110.00 158.00 105.50 C 158.00 101.00 158.00 101.00 151.64 101.00 C 145.27 101.00 145.27 101.00 143.63 113.25 C 142.73 119.99 142.00 126.29 142.00 127.25 C 142.00 128.85 143.55 129.00 160.50 129.00 C 170.68 129.00 179.00 129.24 179.00 129.54 C 179.00 129.84 178.05 131.97 176.89 134.29 C 172.84 142.35 167.93 146.00 161.11 146.00 C 155.84 146.00 152.46 144.62 147.23 140.33 C 144.84 138.38 142.77 136.94 142.63 137.14 C 142.49 137.34 140.71 139.58 138.67 142.12 C 134.29 147.60 134.50 148.77 140.80 153.57 C 146.76 158.13 154.48 160.33 162.64 159.81 C 167.34 159.51 168.56 159.67 167.27 160.43 C 162.20 163.38 144.49 160.62 137.77 155.84 C 134.19 153.29 134.25 154.67 137.94 159.76 C 145.83 170.64 167.74 174.63 182.87 167.94 C 185.28 166.87 189.02 166.00 191.18 166.00 C 195.11 166.00 195.11 166.00 193.31 169.19 C 192.31 170.95 189.47 174.51 187.00 177.10 C 179.09 185.40 166.20 187.24 156.37 181.48 C 153.94 180.05 151.42 178.04 150.78 177.02 C 149.68 175.25 149.32 175.36 144.32 178.83 C 141.41 180.85 139.02 183.01 139.01 183.63 C 138.99 185.61 147.04 192.13 152.88 194.86 C 157.67 197.11 159.85 197.50 167.65 197.50 C 177.10 197.50 178.10 198.39 169.93 199.51 C 163.42 200.41 154.68 198.60 146.82 194.73 C 140.15 191.44 140.15 191.44 141.82 194.31 C 148.59 205.91 164.39 211.35 180.39 207.59 C 198.41 203.35 213.43 189.97 221.19 171.25 C 222.93 167.05 223.83 166.00 225.68 166.00 C 226.96 166.00 228.00 166.21 228.00 166.47 C 228.00 166.73 225.76 172.18 223.01 178.57 C 214.06 199.43 205.94 209.19 192.00 215.87 C 185.01 219.22 183.86 219.46 175.00 219.44 C 163.95 219.42 160.30 218.16 153.71 212.08 C 149.29 208.01 149.29 208.01 146.15 213.07 C 144.42 215.86 143.00 218.50 143.00 218.95 C 143.00 220.73 151.59 227.38 157.40 230.10 C 160.98 231.78 167.29 233.56 172.52 234.37 C 180.81 235.67 181.09 235.78 176.20 235.89 C 168.76 236.05 158.55 233.51 150.69 229.56 C 147.01 227.71 144.00 226.50 144.00 226.86 C 144.00 228.65 149.57 235.40 153.23 238.05 C 162.21 244.55 178.17 246.73 193.33 243.52 C 211.29 239.71 226.62 227.26 239.38 206.12 C 243.65 199.03 249.89 184.91 255.43 169.75 C 256.85 165.87 257.61 165.00 259.58 165.00 C 262.00 165.00 262.00 165.00 262.00 192.94 C 262.00 211.67 261.65 221.10 260.93 221.54 C 260.34 221.90 258.29 222.25 256.36 222.30 C 250.18 222.48 250.05 218.24 256.08 213.00 C 258.96 210.50 258.96 210.50 254.70 205.64 C 250.45 200.78 250.45 200.78 245.98 204.18 C 240.73 208.19 237.51 213.46 235.87 220.75 C 233.81 229.86 237.95 238.79 246.31 243.26 C 250.25 245.37 251.54 245.49 268.00 245.26 C 282.22 245.07 289.45 245.55 292.75 246.90 C 292.89 246.95 293.00 234.18 293.00 218.50 Z  M 81.50 236.99 C 94.15 233.62 105.23 230.66 106.13 230.41 C 107.34 230.06 108.47 231.59 110.56 236.39 C 113.37 242.83 113.37 242.83 124.94 237.00 C 131.30 233.79 137.34 230.53 138.37 229.76 C 140.19 228.39 140.17 228.24 137.90 224.76 C 135.64 221.32 135.45 221.24 132.84 222.58 C 130.33 223.88 130.08 223.83 129.45 221.83 C 128.95 220.27 129.36 219.23 130.95 218.04 C 132.87 216.59 132.99 216.07 131.93 213.74 C 130.76 211.17 130.63 211.14 127.77 212.62 C 124.46 214.33 124.51 214.35 123.56 211.26 C 123.01 209.47 123.39 208.78 125.44 207.85 C 126.85 207.20 128.00 206.29 128.00 205.82 C 128.00 205.35 125.97 200.93 123.50 196.00 C 121.02 191.07 119.00 186.81 119.00 186.52 C 119.00 186.23 121.31 186.00 124.12 186.00 C 129.25 186.00 129.25 186.00 128.51 149.25 C 128.11 129.04 127.58 112.16 127.33 111.75 C 127.08 111.34 120.85 111.00 113.48 111.00 C 100.07 111.00 100.07 111.00 99.79 101.25 C 99.50 91.50 99.50 91.50 86.75 91.22 C 79.74 91.07 74.00 90.75 74.00 90.52 C 74.00 90.19 83.24 77.61 84.57 76.13 C 84.75 75.93 95.49 83.92 108.43 93.88 C 121.38 103.85 132.15 112.00 132.38 112.00 C 132.60 112.00 137.16 106.55 142.51 99.89 C 152.23 87.77 152.23 87.77 149.06 84.64 C 145.88 81.50 145.88 81.50 143.51 84.43 C 141.49 86.92 140.90 87.16 139.57 86.06 C 137.57 84.40 137.59 83.11 139.65 80.83 C 141.20 79.12 141.19 78.86 139.48 76.98 C 137.65 74.96 137.65 74.96 134.91 77.59 C 130.92 81.41 127.97 78.90 131.65 74.83 C 133.20 73.12 133.19 72.86 131.48 70.98 C 129.65 68.96 129.65 68.96 126.81 71.68 C 124.15 74.23 123.87 74.29 122.29 72.72 C 120.72 71.15 120.75 70.89 122.81 68.71 C 124.01 67.42 125.00 66.10 125.00 65.77 C 125.00 65.44 119.13 60.83 111.95 55.54 C 102.21 48.35 99.02 45.48 99.40 44.20 C 101.47 37.21 102.25 38.08 86.99 30.14 C 79.23 26.09 72.75 22.95 72.59 23.14 C 72.14 23.69 70.00 30.21 70.00 31.03 C 70.00 31.43 71.35 32.32 73.00 33.00 C 76.11 34.29 76.40 34.80 75.41 37.36 C 74.89 38.72 74.45 38.71 71.41 37.26 C 68.17 35.71 67.92 35.72 66.53 37.56 C 64.47 40.28 64.61 40.75 68.00 42.50 C 73.19 45.18 71.31 49.20 65.91 46.96 C 62.48 45.54 62.39 45.59 61.48 49.23 C 60.90 51.53 61.21 52.14 63.44 53.16 C 65.27 53.99 66.00 55.00 65.80 56.43 C 65.49 58.55 63.18 58.99 59.85 57.57 C 58.57 57.02 57.67 58.05 55.75 62.23 C 52.91 68.44 47.92 74.47 43.90 76.55 C 42.36 77.35 39.00 78.00 36.43 78.00 C 32.35 78.00 31.31 77.53 28.13 74.24 C 26.13 72.17 24.05 69.66 23.50 68.67 C 22.59 67.04 21.95 67.30 16.50 71.53 C 13.20 74.09 10.34 76.35 10.14 76.54 C 9.31 77.35 14.44 84.22 18.62 87.90 C 23.72 92.39 30.25 94.95 36.93 95.10 C 40.71 95.18 41.07 95.34 39.00 96.00 C 30.83 98.62 19.15 94.96 11.75 87.46 C 7.50 83.16 7.45 83.19 9.49 88.96 C 11.78 95.46 16.42 100.55 23.06 103.87 C 30.84 107.76 37.57 108.55 46.63 106.65 C 53.56 105.20 63.22 101.07 64.49 99.02 C 64.83 98.46 65.77 98.00 66.56 98.00 C 67.67 98.00 68.00 99.52 68.00 104.57 C 68.00 111.14 68.00 111.14 52.50 110.82 C 37.00 110.50 37.00 110.50 37.00 167.38 C 37.00 224.25 37.00 224.25 46.25 234.04 C 51.67 239.77 56.12 243.68 57.00 243.47 C 57.83 243.27 68.85 240.35 81.50 236.99 Z  M 286.00 52.50 C 286.00 10.00 286.00 10.00 221.50 10.00 C 157.00 10.00 157.00 10.00 156.99 45.75 C 156.99 65.41 156.70 84.54 156.35 88.25 C 155.71 95.00 155.71 95.00 220.86 95.00 C 286.00 95.00 286.00 95.00 286.00 52.50 Z  M 68.64 207.41 C 68.29 204.83 68.00 199.18 68.00 194.86 C 68.00 187.00 68.00 187.00 83.25 187.05 C 98.50 187.10 98.50 187.10 91.75 190.56 C 88.04 192.47 85.00 194.22 85.00 194.46 C 85.00 194.81 88.74 201.62 89.60 202.83 C 89.72 203.01 90.72 202.68 91.81 202.10 C 93.39 201.26 93.93 201.38 94.43 202.69 C 94.78 203.59 94.71 204.64 94.28 205.01 C 93.85 205.38 88.55 206.94 82.50 208.48 C 76.45 210.02 71.00 211.46 70.39 211.69 C 69.73 211.94 69.03 210.22 68.64 207.41 Z  M 68.00 159.50 C 68.00 157.00 68.00 157.00 81.32 157.00 C 94.63 157.00 94.63 157.00 93.57 148.75 C 92.50 140.50 92.50 140.50 80.25 140.86 C 68.00 141.21 68.00 141.21 68.00 138.08 C 68.00 134.95 68.00 134.95 83.25 135.22 C 98.50 135.50 98.50 135.50 98.78 148.75 C 99.06 162.00 99.06 162.00 83.53 162.00 C 68.00 162.00 68.00 162.00 68.00 159.50 Z  M 188.65 69.32 C 188.29 68.96 188.00 67.39 188.00 65.83 C 188.00 63.00 188.00 63.00 216.50 63.00 C 232.18 63.00 245.00 62.80 245.00 62.57 C 245.00 62.07 247.72 48.69 248.52 45.25 C 249.04 43.00 249.04 43.00 218.52 43.00 C 188.00 43.00 188.00 43.00 188.00 39.50 C 188.00 36.00 188.00 36.00 221.50 36.00 C 255.00 36.00 255.00 36.00 255.00 51.89 C 255.00 67.77 255.00 67.77 224.25 68.43 C 207.34 68.79 192.55 69.29 191.40 69.53 C 190.24 69.77 189.01 69.67 188.65 69.32 Z  M 245.65 26.55 C 242.61 23.74 242.30 20.99 244.62 17.46 C 245.85 15.57 247.10 15.00 249.96 15.00 C 256.57 15.00 259.18 20.96 254.93 26.37 C 252.33 29.67 249.08 29.73 245.65 26.55 Z  M 264.63 26.93 C 261.38 24.37 260.94 18.26 263.83 15.65 C 266.51 13.22 271.26 13.58 274.35 16.45 C 277.69 19.54 277.76 23.33 274.55 26.55 C 271.55 29.55 268.13 29.68 264.63 26.93 Z "/>
</g>
</svg>