<?xml version="1.0" encoding="UTF-8" standalone="no"?>
<!DOCTYPE svg PUBLIC "-//W3C//DTD SVG 1.1//EN" "http://www.w3.org/Graphics/SVG/1.1/DTD/svg11.dtd" >
<svg xmlns="http://www.w3.org/2000/svg" xmlns:xlink="http://www.w3.org/1999/xlink" version="1.1" viewBox="0 0 256 256">
 <g >
 <path fill="currentColor"
d=" M 181.75 196.34 C 193.00 195.69 193.00 195.69 193.00 190.35 C 193.00 185.00 193.00 185.00 183.00 185.00 C 171.62 185.00 171.95 185.35 175.01 176.46 C 178.24 167.09 178.58 161.10 176.21 155.75 C 172.74 147.89 172.55 147.83 130.00 142.01 C 113.78 139.79 99.71 137.80 98.75 137.58 C 97.17 137.23 97.00 138.17 97.00 147.04 C 97.00 156.90 97.00 156.90 102.75 157.20 C 108.50 157.50 108.50 157.50 108.78 169.75 C 109.10 183.63 109.78 182.75 99.83 181.39 C 95.39 180.78 95.39 180.78 93.18 167.64 C 91.97 160.41 90.55 150.54 90.02 145.70 C 89.49 140.87 88.87 136.59 88.63 136.20 C 88.39 135.82 85.87 135.66 83.04 135.85 C 78.06 136.19 77.90 136.29 78.40 138.85 C 78.68 140.31 79.21 150.22 79.59 160.87 C 80.26 180.24 80.26 180.24 73.13 179.84 C 64.96 179.38 65.49 178.76 64.47 189.75 C 63.80 197.00 63.80 197.00 117.15 197.00 C 146.49 196.99 175.56 196.70 181.75 196.34 Z  M 153.29 132.59 C 154.23 129.06 155.00 125.71 155.00 125.15 C 155.00 124.58 151.86 120.74 148.03 116.60 C 141.60 109.67 138.84 105.20 137.37 99.33 C 136.80 97.05 136.80 97.05 153.15 96.78 C 169.50 96.50 169.50 96.50 169.81 92.25 C 170.11 88.00 170.11 88.00 163.81 88.00 C 157.54 87.99 139.86 86.15 139.10 85.42 C 138.35 84.69 143.81 77.46 149.91 71.12 C 156.05 64.75 156.05 64.75 154.76 60.19 C 153.47 55.64 153.47 55.64 123.49 50.32 C 106.99 47.39 93.02 45.17 92.43 45.40 C 91.42 45.78 88.34 62.69 89.14 63.46 C 89.34 63.65 100.97 64.13 115.00 64.53 C 129.03 64.92 140.84 65.45 141.26 65.69 C 141.68 65.93 140.05 68.11 137.63 70.53 C 135.21 72.95 132.39 76.97 131.36 79.46 C 129.74 83.42 129.12 83.99 126.50 83.99 C 123.10 83.99 92.25 79.82 81.25 77.88 C 76.67 77.07 73.68 76.94 73.11 77.55 C 72.62 78.07 71.91 81.95 71.53 86.16 C 70.85 93.82 70.85 93.82 77.17 94.44 C 80.65 94.79 93.59 95.39 105.93 95.78 C 128.36 96.50 128.36 96.50 130.11 103.66 C 131.08 107.59 133.03 113.10 134.45 115.91 C 137.60 122.12 137.62 122.11 123.36 118.51 C 113.85 116.10 107.00 113.39 107.00 112.03 C 107.00 111.20 111.73 106.82 114.97 104.65 C 118.25 102.46 116.57 102.57 109.49 105.00 C 102.24 107.50 96.35 110.93 92.68 114.78 C 89.87 117.75 89.87 117.75 93.68 120.93 C 103.47 129.09 131.91 138.50 148.04 138.91 C 151.57 139.00 151.59 138.97 153.29 132.59 Z  M 152.25 184.28 C 150.46 184.05 148.99 183.56 148.98 183.19 C 148.97 182.81 150.20 177.39 151.71 171.15 C 154.46 159.79 154.46 159.79 160.19 160.21 C 166.75 160.68 169.34 162.48 171.08 167.73 C 172.09 170.80 171.89 172.05 169.46 178.11 C 166.68 185.00 166.68 185.00 161.09 184.84 C 158.02 184.75 154.04 184.50 152.25 184.28 Z  M 124.01 182.25 C 124.02 181.84 125.15 179.47 126.53 177.00 C 129.03 172.50 129.03 172.50 126.21 175.85 C 123.38 179.21 123.38 179.21 121.68 169.35 C 120.74 163.93 119.98 159.04 119.98 158.48 C 120.00 157.44 139.61 158.28 140.70 159.37 C 141.01 159.67 140.44 165.11 139.44 171.46 C 137.63 183.00 137.63 183.00 130.82 183.00 C 127.07 183.00 124.01 182.66 124.01 182.25 Z "/>
</g>
</svg>