<?xml version="1.0" encoding="UTF-8" standalone="no"?>
<!DOCTYPE svg PUBLIC "-//W3C//DTD SVG 1.1//EN" "http://www.w3.org/Graphics/SVG/1.1/DTD/svg11.dtd" >
<svg xmlns="http://www.w3.org/2000/svg" xmlns:xlink="http://www.w3.org/1999/xlink" version="1.1" viewBox="0 0 256 256">
 <g >
 <path fill="currentColor"
d=" M 170.38 182.28 C 170.25 164.20 170.25 164.20 192.13 163.47 C 214.00 162.75 214.00 162.75 213.99 157.62 C 213.99 152.50 213.99 152.50 195.24 152.25 C 168.08 151.89 170.28 152.79 169.79 141.72 C 169.56 136.65 169.49 132.25 169.63 131.94 C 169.77 131.63 177.62 132.24 187.07 133.29 C 206.01 135.40 205.96 135.41 205.98 129.34 C 206.00 125.89 207.07 126.33 194.00 124.41 C 191.80 124.09 190.00 123.49 190.00 123.09 C 190.00 122.68 192.46 116.18 195.46 108.65 C 198.46 101.11 201.20 93.47 201.54 91.66 C 202.15 88.39 202.13 88.37 195.30 85.69 C 191.53 84.21 188.17 83.00 187.82 83.00 C 186.89 83.00 185.26 90.85 182.93 106.50 C 181.79 114.20 180.50 120.86 180.07 121.30 C 179.64 121.75 176.86 121.50 173.90 120.74 C 168.50 119.38 168.50 119.38 167.88 100.44 C 167.54 90.02 167.20 81.14 167.13 80.70 C 167.06 80.26 164.41 80.04 161.25 80.20 C 155.50 80.50 155.50 80.50 155.89 98.91 C 156.28 117.31 156.28 117.31 151.50 116.66 C 148.87 116.29 145.88 116.00 144.86 116.00 C 142.33 116.00 142.51 114.54 145.96 107.25 C 149.21 100.37 149.25 98.64 146.00 105.00 C 144.88 107.20 143.78 109.00 143.56 109.00 C 143.00 109.00 135.32 76.45 134.53 70.75 C 133.88 66.00 133.88 66.00 128.91 66.00 C 125.18 66.00 123.78 66.42 123.29 67.68 C 122.70 69.23 124.30 95.11 125.68 106.34 C 126.28 111.18 126.28 111.18 120.78 110.49 C 115.28 109.80 115.28 109.80 114.56 117.99 C 114.17 122.50 114.11 126.44 114.43 126.76 C 114.87 127.20 143.62 129.47 154.75 129.95 C 156.12 130.01 156.53 142.11 155.36 147.97 C 154.71 151.19 154.71 151.19 140.11 150.55 C 120.10 149.67 118.19 149.34 117.81 146.67 C 117.46 144.24 118.49 144.28 101.69 146.06 C 95.74 146.69 90.62 146.96 90.32 146.65 C 90.01 146.34 89.55 139.21 89.29 130.80 C 88.81 115.50 88.81 115.50 96.16 112.00 C 103.50 108.50 103.50 108.50 103.50 103.00 C 103.50 97.50 103.50 97.50 96.25 97.21 C 89.00 96.91 89.00 96.91 89.00 84.11 C 89.00 77.06 88.71 67.86 88.35 63.65 C 87.71 56.00 87.71 56.00 81.85 56.00 C 76.00 56.00 76.00 56.00 76.00 75.64 C 76.00 95.28 76.00 95.28 68.25 94.59 C 58.40 93.71 47.74 91.52 43.81 89.56 C 42.13 88.72 40.42 88.24 40.01 88.49 C 39.60 88.75 38.96 91.28 38.58 94.12 C 38.20 96.96 37.65 100.50 37.35 101.99 C 36.81 104.69 36.81 104.69 44.66 105.35 C 48.97 105.72 57.56 106.53 63.75 107.15 C 75.00 108.29 75.00 108.29 75.00 114.55 C 75.00 120.81 75.00 120.81 66.47 128.56 C 61.78 132.82 55.20 139.39 51.86 143.16 C 45.78 150.01 45.78 150.01 47.99 158.26 C 49.20 162.79 50.54 166.87 50.98 167.33 C 51.63 168.02 62.53 166.52 71.75 164.46 C 74.00 163.96 74.00 163.96 74.00 178.35 C 74.00 192.73 74.00 192.73 78.64 193.36 C 90.70 195.02 90.00 195.99 90.00 177.57 C 90.00 161.14 90.00 161.14 95.75 160.00 C 104.84 158.20 104.47 158.11 104.81 162.33 C 105.13 166.15 105.13 166.15 114.81 165.60 C 120.14 165.29 131.40 164.77 139.84 164.44 C 155.18 163.84 155.18 163.84 154.47 176.17 C 154.08 182.95 153.57 188.70 153.35 188.94 C 153.13 189.18 152.33 188.51 151.56 187.44 C 147.61 181.96 147.27 182.12 150.36 188.00 C 152.23 191.57 154.53 196.58 155.47 199.12 C 157.17 203.74 157.17 203.74 163.84 202.05 C 170.50 200.35 170.50 200.35 170.38 182.28 Z  M 51.00 149.36 C 51.02 145.26 70.23 125.00 74.09 125.00 C 74.59 125.00 75.00 130.14 75.00 136.42 C 75.00 147.84 75.00 147.84 72.25 148.37 C 66.58 149.46 51.00 150.18 51.00 149.36 Z "/>
</g>
</svg>