<?xml version="1.0" encoding="UTF-8" standalone="no"?>
<!DOCTYPE svg PUBLIC "-//W3C//DTD SVG 1.1//EN" "http://www.w3.org/Graphics/SVG/1.1/DTD/svg11.dtd" >
<svg xmlns="http://www.w3.org/2000/svg" xmlns:xlink="http://www.w3.org/1999/xlink" version="1.1" viewBox="0 0 256 256">
 <g >
 <path fill="currentColor"
d=" M 180.42 219.89 C 180.97 219.39 180.87 212.83 180.16 203.28 C 179.51 194.60 178.86 184.01 178.72 179.75 C 178.46 172.00 178.46 172.00 188.23 172.00 C 193.60 172.00 198.00 172.20 198.00 172.43 C 198.00 172.67 197.56 174.04 197.01 175.46 C 196.14 177.76 196.33 178.17 198.65 179.06 C 200.10 179.61 201.35 179.93 201.44 179.78 C 201.53 179.63 205.75 170.72 210.81 160.00 C 218.26 144.20 220.00 139.62 220.00 135.88 C 220.00 130.75 217.67 126.91 213.10 124.55 C 210.13 123.02 184.48 118.61 154.50 114.49 C 144.05 113.06 135.20 111.57 134.83 111.19 C 134.46 110.81 134.01 109.15 133.83 107.50 C 133.50 104.50 133.50 104.50 124.75 104.21 C 114.48 103.87 115.32 101.10 117.47 128.00 C 118.24 137.62 119.60 154.94 120.50 166.48 C 121.40 178.02 122.24 187.57 122.37 187.70 C 122.50 187.83 125.15 188.23 128.26 188.60 C 133.91 189.27 133.91 189.27 134.21 180.88 C 134.50 172.50 134.50 172.50 149.29 172.22 C 164.09 171.95 164.09 171.95 163.46 190.22 C 163.12 200.28 162.64 209.13 162.39 209.90 C 162.11 210.78 160.50 209.35 158.02 206.02 C 152.30 198.36 152.24 198.57 157.46 208.00 C 160.05 212.68 163.10 218.57 164.23 221.11 C 166.28 225.72 166.28 225.72 172.89 223.22 C 176.53 221.84 179.91 220.35 180.42 219.89 Z  M 86.30 187.51 C 91.09 184.76 91.09 184.76 90.40 167.49 C 89.71 150.22 89.71 150.22 93.10 149.54 C 98.23 148.51 115.00 142.92 115.00 142.24 C 115.00 141.91 113.54 139.51 111.75 136.91 C 109.30 133.34 106.13 130.76 98.85 126.42 C 87.65 119.73 88.03 120.59 88.01 102.11 C 88.00 89.43 86.09 90.36 107.56 92.61 C 113.61 93.24 113.61 93.24 114.81 89.26 C 116.49 83.65 116.34 83.00 113.40 83.00 C 111.97 83.00 105.68 82.04 99.43 80.86 C 88.05 78.72 88.05 78.72 87.78 65.17 C 87.50 51.63 87.50 51.63 82.50 50.33 C 79.75 49.62 77.16 49.03 76.75 49.02 C 76.34 49.01 76.00 54.85 76.00 62.00 C 76.00 77.52 78.32 76.55 53.00 71.56 C 43.40 69.66 35.41 68.26 35.23 68.44 C 35.05 68.62 34.63 72.01 34.30 75.98 C 33.85 81.36 34.02 83.40 35.00 84.00 C 35.72 84.44 40.74 85.12 46.15 85.51 C 51.57 85.90 56.00 86.44 56.00 86.71 C 56.00 86.98 54.70 91.10 53.11 95.85 C 44.48 121.69 45.20 139.59 55.17 146.97 C 58.92 149.74 65.37 152.00 69.52 152.00 C 72.78 152.00 72.78 152.00 72.31 162.75 C 72.05 168.66 71.72 173.95 71.58 174.50 C 71.43 175.05 70.34 173.59 69.14 171.25 C 67.94 168.91 66.79 167.00 66.57 167.00 C 66.36 167.00 68.17 172.16 70.60 178.47 C 73.02 184.79 75.00 190.90 75.00 192.06 C 75.00 194.16 75.00 194.16 78.25 192.21 C 80.04 191.14 83.66 189.02 86.30 187.51 Z  M 193.32 113.25 C 193.57 112.84 194.07 111.09 194.44 109.37 C 195.05 106.53 194.82 106.13 192.05 105.17 C 190.37 104.58 189.00 103.73 189.00 103.27 C 189.00 102.81 192.60 98.08 197.00 92.75 C 201.40 87.41 205.00 82.21 205.00 81.18 C 205.00 78.10 201.89 76.16 186.85 69.85 C 174.66 64.74 138.83 50.85 133.96 49.35 C 132.75 48.98 131.93 50.92 130.10 58.50 C 128.83 63.79 127.96 68.30 128.18 68.51 C 128.55 68.88 190.57 86.00 191.54 86.00 C 194.08 86.00 186.80 100.37 183.65 101.58 C 182.92 101.86 174.10 98.92 164.05 95.04 C 153.99 91.17 145.43 88.00 145.02 88.00 C 144.30 88.00 138.00 102.14 138.00 103.78 C 138.00 104.23 143.29 105.35 149.75 106.26 C 174.82 109.80 183.43 111.26 186.90 112.53 C 191.15 114.10 192.72 114.27 193.32 113.25 Z  M 201.05 165.45 C 201.02 164.86 199.57 164.56 197.75 164.77 C 194.69 165.12 179.22 163.56 178.51 162.84 C 178.33 162.65 178.03 160.93 177.84 159.00 C 177.50 155.50 177.50 155.50 186.37 155.87 C 195.97 156.27 196.96 155.80 196.98 150.92 C 197.00 148.46 196.64 148.29 188.75 147.12 C 176.24 145.26 177.00 145.83 177.00 138.31 C 177.00 131.75 177.00 131.75 185.25 132.31 C 198.76 133.23 208.20 134.87 210.16 136.65 C 213.33 139.52 212.38 144.57 206.50 156.00 C 203.53 161.78 201.08 166.03 201.05 165.45 Z  M 147.00 159.96 C 140.12 158.97 134.38 158.12 134.22 158.08 C 134.07 158.03 134.07 151.59 134.22 143.75 C 134.50 129.50 134.50 129.50 139.50 129.17 C 142.25 128.98 149.11 129.14 154.75 129.51 C 165.00 130.19 165.00 130.19 165.00 136.10 C 165.00 139.34 164.57 142.00 164.04 142.00 C 163.51 142.00 159.22 141.10 154.50 140.00 C 149.78 138.90 144.63 138.00 143.05 138.00 C 140.27 138.00 140.14 138.23 138.99 145.07 C 138.33 148.95 137.96 152.28 138.15 152.47 C 138.75 153.04 156.27 154.99 160.86 155.00 C 164.42 155.00 165.10 155.29 164.61 156.58 C 164.27 157.45 164.00 159.03 164.00 160.08 C 164.00 162.39 163.74 162.39 147.00 159.96 Z  M 64.50 136.60 C 59.66 134.46 57.71 131.51 57.22 125.63 C 56.64 118.63 58.89 111.02 65.19 98.75 C 69.42 90.50 70.56 89.00 72.59 89.00 C 75.00 89.00 75.00 89.00 75.00 102.25 C 74.99 109.54 74.70 120.56 74.34 126.75 C 73.69 138.00 73.69 138.00 70.60 137.96 C 68.89 137.94 66.15 137.33 64.50 136.60 Z  M 89.47 132.73 C 89.14 131.41 89.01 128.49 89.18 126.23 C 89.50 122.12 89.50 122.12 95.32 126.48 C 101.14 130.84 101.14 130.84 97.82 132.34 C 91.33 135.27 90.12 135.33 89.47 132.73 Z "/>
</g>
</svg>