<?xml version="1.0" encoding="UTF-8" standalone="no"?>
<!DOCTYPE svg PUBLIC "-//W3C//DTD SVG 1.1//EN" "http://www.w3.org/Graphics/SVG/1.1/DTD/svg11.dtd" >
<svg xmlns="http://www.w3.org/2000/svg" xmlns:xlink="http://www.w3.org/1999/xlink" version="1.1" viewBox="0 0 256 256">
 <g >
 <path fill="currentColor"
d=" M 210.58 216.42 C 214.10 214.45 217.19 212.50 217.44 212.10 C 217.69 211.69 211.66 204.83 204.03 196.85 C 190.17 182.35 190.17 182.35 196.07 170.42 C 202.89 156.66 205.29 148.35 205.29 138.50 C 205.29 130.23 203.65 125.83 198.41 120.03 C 189.88 110.59 179.51 107.97 149.55 107.70 C 128.50 107.50 128.50 107.50 128.24 142.69 C 127.97 177.87 127.97 177.87 131.07 178.19 C 134.17 178.50 134.17 178.50 126.58 188.96 C 122.41 194.72 119.00 199.80 119.00 200.25 C 119.00 200.71 120.48 203.28 122.29 205.97 C 125.59 210.86 125.59 210.86 133.54 205.78 C 137.92 202.99 144.20 199.20 147.50 197.36 C 156.48 192.37 153.33 193.31 141.88 199.06 C 130.32 204.86 130.13 205.42 145.89 187.30 C 157.28 174.20 157.28 174.20 162.44 175.98 C 168.67 178.12 175.63 181.59 176.49 182.99 C 176.84 183.55 175.86 184.46 174.31 185.02 C 167.76 187.38 167.60 187.70 173.15 187.24 C 178.80 186.77 178.80 186.77 185.94 197.42 C 195.06 211.00 195.05 210.99 190.86 211.03 C 187.74 211.07 188.07 211.38 195.50 215.41 C 199.90 217.79 203.65 219.80 203.84 219.87 C 204.02 219.94 207.06 218.39 210.58 216.42 Z  M 82.00 177.75 C 84.38 172.66 90.69 159.28 96.02 148.00 C 109.99 118.44 111.38 114.85 110.73 109.99 C 109.64 101.87 105.79 98.96 91.00 95.04 C 86.33 93.80 82.34 92.64 82.15 92.46 C 81.95 92.28 84.18 88.68 87.09 84.47 C 92.38 76.81 92.38 76.81 98.94 77.49 C 102.55 77.87 108.57 78.81 112.32 79.59 C 122.21 81.64 122.00 81.71 121.99 76.25 C 121.99 71.50 121.99 71.50 114.24 69.66 C 103.96 67.21 74.34 57.87 61.18 52.92 C 55.38 50.75 50.33 49.31 49.96 49.73 C 49.20 50.59 45.68 68.05 46.18 68.45 C 46.36 68.59 53.02 69.74 61.00 71.00 C 68.97 72.26 75.63 73.40 75.78 73.51 C 75.94 73.63 74.31 77.05 72.16 81.11 C 55.22 113.18 57.21 110.30 53.56 108.04 C 51.75 106.92 49.79 106.00 49.21 106.00 C 48.63 106.00 45.67 108.28 42.62 111.06 C 37.08 116.13 37.08 116.13 40.53 119.16 C 44.88 122.98 53.20 133.40 56.48 139.13 C 59.75 144.86 59.65 143.84 56.06 135.14 C 54.44 131.21 53.33 128.00 53.59 128.00 C 53.84 128.00 56.63 129.28 59.78 130.84 C 62.93 132.40 69.21 135.15 73.75 136.95 C 78.29 138.75 82.00 140.47 82.00 140.76 C 82.00 141.77 72.73 158.48 66.20 169.26 C 62.61 175.17 59.87 180.20 60.10 180.44 C 60.53 180.87 75.99 186.77 77.08 186.92 C 77.41 186.96 79.62 182.84 82.00 177.75 Z  M 202.82 90.25 C 211.87 71.75 212.05 68.59 204.30 64.02 C 200.51 61.78 183.53 58.10 157.50 53.89 C 150.35 52.74 143.71 51.37 142.75 50.86 C 141.39 50.14 141.00 48.63 141.00 44.02 C 141.00 40.78 140.64 37.90 140.21 37.63 C 139.77 37.36 135.50 38.31 130.71 39.75 C 120.27 42.88 120.75 40.67 125.09 65.68 C 126.79 75.48 128.67 87.44 129.26 92.25 C 130.35 101.00 130.35 101.00 136.18 101.00 C 140.69 101.00 142.00 100.66 142.00 99.50 C 142.00 97.62 144.14 97.60 171.25 99.17 C 190.42 100.28 193.69 100.84 191.00 102.50 C 189.08 103.69 190.02 105.00 192.80 105.00 C 195.42 105.00 196.08 104.03 202.82 90.25 Z  M 158.34 167.18 C 149.46 164.60 142.26 162.05 142.34 161.50 C 142.44 160.86 150.30 160.56 163.99 160.67 C 179.47 160.79 185.69 160.51 186.23 159.67 C 186.63 159.03 186.98 157.04 186.98 155.25 C 187.00 152.32 186.71 152.00 184.09 152.00 C 180.63 152.00 145.30 147.22 142.69 146.40 C 141.55 146.04 141.00 145.06 141.19 143.75 C 141.48 141.82 142.08 141.68 149.50 141.89 C 153.90 142.01 161.55 142.52 166.50 143.04 C 185.39 144.99 187.00 144.58 187.00 137.92 C 187.00 135.16 186.76 135.00 182.75 134.93 C 180.41 134.89 170.18 133.19 160.00 131.16 C 141.50 127.46 141.50 127.46 141.50 124.48 C 141.50 121.50 141.50 121.50 157.50 121.67 C 170.10 121.80 175.18 122.28 181.41 123.92 C 190.07 126.20 197.05 129.80 199.45 133.24 C 201.64 136.35 201.37 142.58 198.83 147.93 C 196.45 152.94 178.19 172.05 175.90 171.93 C 175.13 171.89 167.23 169.75 158.34 167.18 Z  M 77.50 123.36 C 72.00 119.79 67.56 116.23 67.64 115.45 C 67.84 113.33 77.03 98.92 78.56 98.34 C 80.41 97.63 94.12 100.83 96.37 102.50 C 97.53 103.37 98.39 105.52 98.65 108.20 C 99.00 111.92 98.40 113.65 94.18 120.95 C 91.50 125.60 88.90 129.50 88.40 129.62 C 87.91 129.74 83.00 126.92 77.50 123.36 Z  M 169.50 89.93 C 160.15 88.38 150.25 86.74 147.50 86.30 C 142.50 85.50 142.50 85.50 142.21 77.19 C 141.92 68.87 141.92 68.87 151.71 69.56 C 177.72 71.39 196.94 73.73 199.44 75.37 C 202.86 77.61 202.80 81.79 199.25 88.10 C 196.51 92.98 196.48 93.00 191.50 92.88 C 188.75 92.82 178.85 91.49 169.50 89.93 Z "/>
</g>
</svg>