<?xml version="1.0" encoding="UTF-8" standalone="no"?>
<!DOCTYPE svg PUBLIC "-//W3C//DTD SVG 1.1//EN" "http://www.w3.org/Graphics/SVG/1.1/DTD/svg11.dtd" >
<svg xmlns="http://www.w3.org/2000/svg" xmlns:xlink="http://www.w3.org/1999/xlink" version="1.1" viewBox="0 0 256 256">
 <g >
 <path fill="currentColor"
d=" M 150.54 222.96 C 152.10 221.33 152.90 220.00 152.31 220.00 C 151.72 220.00 150.68 220.68 150.00 221.50 C 146.96 225.17 147.19 222.43 150.46 216.21 C 155.03 207.50 159.25 202.43 164.89 198.86 C 169.97 195.63 171.90 195.38 175.87 197.43 C 181.25 200.21 188.14 214.05 189.59 224.96 C 190.27 230.13 190.27 230.13 193.89 229.62 C 195.87 229.34 199.67 228.82 202.33 228.48 C 205.43 228.08 207.00 227.43 206.71 226.68 C 204.41 220.55 198.87 195.02 197.62 184.75 C 197.04 180.00 197.04 180.00 207.40 180.00 C 217.31 180.00 217.79 179.90 218.37 177.75 C 220.03 171.56 219.76 171.34 209.75 170.59 C 195.00 169.49 196.00 170.28 196.00 159.77 C 196.00 150.75 196.00 150.75 192.88 151.38 C 191.16 151.72 187.50 152.00 184.74 152.00 C 179.74 152.00 179.74 152.00 180.22 159.54 C 180.70 167.08 180.70 167.08 176.10 166.46 C 173.57 166.12 167.93 165.19 163.56 164.41 C 158.77 163.54 155.27 163.33 154.71 163.89 C 154.16 164.44 152.16 164.08 149.65 162.97 C 144.39 160.66 127.30 156.40 119.70 155.52 C 114.71 154.94 113.76 154.49 112.93 152.32 C 112.28 150.61 111.47 149.99 110.40 150.40 C 109.54 150.73 107.24 151.00 105.28 151.00 C 101.73 151.00 101.73 151.00 102.40 171.25 C 102.77 182.39 103.35 194.14 103.68 197.37 C 104.28 203.23 104.28 203.23 111.08 202.56 C 114.93 202.18 120.52 202.37 123.97 202.99 C 129.70 204.03 130.33 203.95 134.78 201.51 C 143.34 196.83 155.37 187.57 158.46 183.29 C 161.50 179.08 161.50 179.08 171.50 179.67 C 177.00 180.00 181.67 180.41 181.87 180.59 C 182.08 180.76 183.10 186.22 184.15 192.70 C 185.19 199.19 186.31 205.40 186.62 206.50 C 186.93 207.60 185.68 206.04 183.84 203.04 C 174.73 188.16 162.44 186.51 146.72 198.06 C 140.53 202.60 126.97 218.03 127.02 220.47 C 127.03 221.04 130.97 224.09 135.77 227.25 C 144.50 233.00 144.50 233.00 146.10 229.46 C 146.98 227.52 148.97 224.59 150.54 222.96 Z  M 79.38 166.75 C 79.16 163.31 78.47 153.30 77.85 144.50 C 77.22 135.70 76.44 119.72 76.11 109.00 C 75.50 89.50 75.50 89.50 70.38 89.20 C 65.34 88.91 65.26 88.95 64.62 92.13 C 64.27 93.91 63.55 107.54 63.02 122.43 C 62.49 137.32 61.77 154.79 61.42 161.25 C 60.78 173.00 60.78 173.00 70.27 173.00 C 79.77 173.00 79.77 173.00 79.38 166.75 Z  M 224.00 145.11 C 224.00 141.22 224.00 141.22 210.99 140.50 C 203.83 140.10 197.73 139.37 197.43 138.88 C 197.12 138.39 200.05 131.11 203.94 122.70 C 212.45 104.27 212.87 101.07 207.50 95.14 C 203.44 90.64 199.17 89.21 180.22 86.01 C 173.47 84.87 163.79 83.10 158.72 82.07 C 142.34 78.74 106.86 73.73 106.02 74.63 C 105.57 75.11 104.89 79.61 104.50 84.62 C 103.81 93.75 103.81 93.75 111.59 93.90 C 120.43 94.07 137.04 95.36 157.50 97.45 C 165.20 98.24 175.32 99.18 180.00 99.53 C 184.68 99.89 190.30 100.63 192.50 101.18 C 197.52 102.43 201.99 106.54 202.02 109.94 C 202.03 111.35 199.00 118.46 195.27 125.74 C 188.82 138.35 188.35 138.99 185.45 138.99 C 183.77 139.00 172.52 138.10 160.45 136.99 C 148.38 135.89 130.62 134.29 121.00 133.44 C 111.38 132.58 102.86 131.80 102.07 131.69 C 101.07 131.56 100.27 133.42 99.38 138.00 C 97.35 148.51 96.95 147.87 105.75 148.26 C 110.01 148.44 138.36 148.69 168.75 148.80 C 224.00 149.00 224.00 149.00 224.00 145.11 Z  M 187.39 128.42 C 187.73 127.55 188.00 125.59 188.00 124.06 C 188.00 121.28 188.00 121.28 173.95 119.96 C 159.90 118.64 159.90 118.64 160.20 115.07 C 160.50 111.50 160.50 111.50 170.00 111.00 C 179.50 110.50 179.50 110.50 179.80 106.94 C 180.10 103.39 180.10 103.39 169.30 102.12 C 163.36 101.42 151.91 99.76 143.86 98.43 C 123.30 95.02 124.85 94.66 125.20 102.75 C 125.50 109.50 125.50 109.50 137.25 109.78 C 149.00 110.06 149.00 110.06 149.00 113.63 C 149.00 117.20 149.00 117.20 142.75 116.54 C 139.31 116.17 134.05 115.45 131.07 114.94 C 128.08 114.42 123.99 114.00 121.99 114.00 C 118.35 114.00 118.35 114.00 117.13 120.62 C 116.46 124.26 116.06 127.40 116.25 127.59 C 116.65 127.98 159.90 129.61 176.14 129.85 C 185.02 129.97 186.89 129.74 187.39 128.42 Z  M 102.95 79.25 C 103.52 77.19 103.99 75.05 103.99 74.50 C 104.00 73.50 98.32 71.98 78.00 67.52 C 72.22 66.25 60.36 63.11 51.63 60.53 C 42.90 57.95 35.43 56.21 35.03 56.67 C 34.05 57.80 30.83 73.16 31.44 73.78 C 31.71 74.05 36.11 74.68 41.22 75.17 C 46.32 75.67 60.62 77.59 73.00 79.43 C 102.89 83.88 101.66 83.89 102.95 79.25 Z  M 191.57 78.68 C 191.85 77.96 192.17 76.09 192.29 74.53 C 192.50 71.74 192.34 71.66 185.00 70.33 C 173.29 68.21 162.88 65.57 162.94 64.75 C 162.97 64.34 163.00 62.83 163.00 61.40 C 163.00 58.80 163.00 58.80 170.25 59.45 C 174.24 59.81 181.25 60.81 185.83 61.67 C 190.53 62.56 194.50 62.87 194.96 62.37 C 196.54 60.65 197.18 54.00 195.80 53.62 C 195.08 53.42 189.89 52.28 184.25 51.07 C 178.61 49.87 171.76 48.23 169.03 47.42 C 164.07 45.94 164.07 45.94 163.79 36.23 C 163.50 26.51 163.50 26.51 158.50 25.35 C 149.54 23.27 150.00 22.86 150.00 33.00 C 150.00 39.54 149.66 42.00 148.75 41.98 C 148.06 41.97 144.35 41.12 140.50 40.08 C 124.66 35.82 113.96 33.00 113.64 33.00 C 113.11 33.00 109.69 50.03 110.14 50.47 C 110.36 50.70 119.42 52.13 130.27 53.66 C 150.00 56.43 150.00 56.43 150.00 59.72 C 150.00 63.67 149.43 63.73 139.00 61.00 C 127.60 58.01 127.39 58.06 126.65 64.25 C 125.44 74.28 125.00 73.65 134.25 74.95 C 145.11 76.47 179.08 79.72 185.78 79.88 C 189.32 79.96 191.23 79.57 191.57 78.68 Z  M 118.63 184.36 C 115.10 169.58 115.13 168.78 119.25 169.41 C 121.04 169.69 124.75 170.18 127.50 170.50 C 134.52 171.33 146.11 174.82 148.94 176.95 C 153.49 180.38 149.04 184.27 135.70 188.52 C 126.34 191.49 127.00 191.46 127.00 189.00 C 127.00 186.29 125.35 186.46 124.65 189.25 C 124.34 190.49 123.45 192.37 122.67 193.43 C 121.39 195.19 121.02 194.37 118.63 184.36 Z "/>
</g>
</svg>