<?xml version="1.0" encoding="UTF-8" standalone="no"?>
<!DOCTYPE svg PUBLIC "-//W3C//DTD SVG 1.1//EN" "http://www.w3.org/Graphics/SVG/1.1/DTD/svg11.dtd" >
<svg xmlns="http://www.w3.org/2000/svg" xmlns:xlink="http://www.w3.org/1999/xlink" version="1.1" viewBox="0 0 256 256">
 <g >
 <path fill="currentColor"
d=" M 103.90 228.49 C 104.52 226.01 106.15 221.51 107.52 218.49 C 108.88 215.47 111.12 210.53 112.49 207.50 C 115.82 200.14 114.80 200.48 111.00 208.00 C 109.33 211.30 107.53 214.00 106.99 214.00 C 106.41 214.00 106.00 210.25 106.00 205.00 C 106.00 196.00 106.00 196.00 111.81 196.00 C 118.02 196.00 134.78 198.02 149.50 200.54 C 166.01 203.37 164.00 206.76 143.98 209.88 C 121.09 213.45 123.00 213.41 123.00 210.32 C 123.00 207.92 122.48 208.34 118.50 214.00 C 116.02 217.52 114.33 220.69 114.75 221.06 C 115.16 221.43 118.51 222.46 122.18 223.36 C 128.87 224.99 128.87 224.99 137.68 221.88 C 157.76 214.80 173.00 204.94 173.00 199.04 C 173.00 198.11 171.99 196.42 170.75 195.29 C 163.14 188.32 143.97 183.61 114.25 181.42 C 105.00 180.74 105.00 180.74 105.00 177.35 C 105.00 174.35 105.26 174.02 107.25 174.47 C 109.80 175.05 147.68 181.00 148.78 181.00 C 149.18 180.99 150.81 178.56 152.42 175.58 C 155.11 170.59 155.52 170.25 157.79 171.11 C 160.66 172.20 160.02 172.91 170.15 157.70 C 176.40 148.31 177.40 146.18 177.80 141.45 C 178.31 135.28 176.84 130.77 173.65 128.70 C 168.73 125.51 159.66 123.88 125.00 119.98 C 104.92 117.72 87.44 115.66 86.15 115.39 C 84.25 115.00 83.92 114.46 84.40 112.54 C 84.98 110.23 84.80 110.15 78.04 109.83 C 71.08 109.50 71.08 109.50 70.45 114.55 C 69.59 121.44 70.41 170.06 71.43 172.28 C 71.97 173.47 72.87 173.86 74.16 173.45 C 76.66 172.66 89.02 166.74 86.83 167.38 C 85.90 167.66 84.91 167.20 84.58 166.36 C 84.26 165.52 84.00 157.20 84.00 147.86 C 84.00 130.88 84.00 130.88 98.75 131.52 C 116.56 132.30 153.11 135.69 158.10 137.03 C 163.19 138.40 168.44 142.18 168.82 144.76 C 169.01 146.09 167.85 148.55 165.88 150.99 C 162.64 155.04 162.64 155.04 161.40 152.10 C 160.72 150.48 159.11 148.58 157.83 147.87 C 156.55 147.16 140.20 144.28 121.50 141.47 C 91.46 136.97 87.42 136.55 86.82 137.94 C 86.45 138.80 86.11 142.99 86.07 147.25 C 86.00 155.00 86.00 155.00 89.44 155.00 C 91.33 155.00 93.06 155.34 93.28 155.75 C 93.71 156.55 91.62 204.71 90.42 221.68 C 89.71 231.86 89.71 231.86 93.60 232.26 C 103.09 233.24 102.66 233.40 103.90 228.49 Z  M 146.47 111.36 C 147.29 105.87 147.22 105.81 137.50 102.85 C 133.65 101.68 130.32 100.57 130.11 100.39 C 129.90 100.20 132.34 95.66 135.55 90.29 C 141.29 80.67 141.39 80.57 142.17 83.57 C 142.60 85.25 144.70 88.51 146.83 90.81 C 150.69 95.00 150.69 95.00 162.35 95.00 C 168.76 95.00 174.00 95.28 174.00 95.61 C 174.00 95.95 172.30 98.31 170.22 100.86 C 162.91 109.84 163.12 109.40 167.05 107.75 C 168.95 106.95 177.54 103.25 186.15 99.51 C 203.11 92.16 203.00 92.26 203.00 83.87 C 203.00 81.07 202.88 81.00 197.75 81.06 C 194.86 81.10 185.10 81.67 176.07 82.34 C 157.32 83.74 155.12 83.25 151.83 77.02 C 148.49 70.66 149.30 67.01 156.68 55.25 C 163.36 44.62 163.36 44.62 157.98 39.80 C 155.03 37.16 152.29 35.33 151.89 35.75 C 151.50 36.16 147.25 43.92 142.45 53.00 C 131.59 73.55 120.79 91.50 119.29 91.50 C 117.79 91.50 113.96 85.78 110.72 78.70 C 107.80 72.32 107.63 72.44 117.00 74.50 C 126.86 76.67 126.69 76.73 128.09 70.49 C 128.77 67.47 129.14 64.83 128.91 64.65 C 128.68 64.46 119.36 61.91 108.18 58.99 C 84.56 52.80 86.18 55.05 93.57 38.67 C 96.01 33.26 98.00 28.52 98.00 28.13 C 98.00 27.46 88.87 23.71 88.51 24.24 C 85.49 28.60 67.01 64.08 59.48 79.96 C 51.69 96.42 51.69 96.42 57.02 101.20 C 59.96 103.83 62.41 105.87 62.47 105.74 C 62.54 105.61 67.97 99.90 74.54 93.06 C 84.60 82.59 85.55 81.35 80.54 85.26 C 77.26 87.81 74.41 89.75 74.22 89.56 C 73.85 89.19 81.65 68.01 82.45 67.22 C 83.77 65.89 86.61 69.02 94.58 80.58 C 103.34 93.30 103.34 93.30 102.09 100.74 C 101.40 104.83 100.99 108.28 101.17 108.41 C 101.35 108.54 108.70 109.89 117.50 111.42 C 126.30 112.95 135.30 114.56 137.50 114.99 C 145.44 116.57 145.70 116.46 146.47 111.36 Z  M 127.50 175.05 C 122.00 174.07 115.70 172.80 113.50 172.23 C 111.30 171.66 108.26 170.92 106.75 170.58 C 104.08 169.98 104.00 169.77 104.00 163.11 C 104.00 156.27 104.00 156.27 110.75 156.73 C 151.52 159.54 150.46 159.42 150.83 161.33 C 151.38 164.20 150.33 167.16 146.94 172.27 C 143.29 177.79 143.05 177.83 127.50 175.05 Z "/>
</g>
</svg>