<?xml version="1.0" encoding="UTF-8" standalone="no"?>
<!DOCTYPE svg PUBLIC "-//W3C//DTD SVG 1.1//EN" "http://www.w3.org/Graphics/SVG/1.1/DTD/svg11.dtd" >
<svg xmlns="http://www.w3.org/2000/svg" xmlns:xlink="http://www.w3.org/1999/xlink" version="1.1" viewBox="0 0 256 256">
 <g >
 <path fill="currentColor"
d=" M 224.33 195.13 C 221.70 192.73 211.32 184.88 201.27 177.70 C 191.22 170.52 183.00 164.33 183.00 163.95 C 183.00 163.42 195.71 145.32 197.67 143.06 C 197.88 142.81 200.98 145.51 204.57 149.06 C 211.08 155.50 211.08 155.50 216.85 149.08 C 222.62 142.65 222.62 142.65 219.06 139.51 C 214.10 135.12 178.30 108.99 177.31 109.03 C 176.19 109.08 171.00 113.72 171.00 114.68 C 171.00 115.11 174.44 118.91 178.64 123.14 C 186.28 130.83 186.28 130.83 183.02 136.16 C 179.42 142.07 170.05 155.00 169.39 155.00 C 169.15 155.00 165.03 153.03 160.23 150.62 C 151.06 146.01 139.47 142.00 135.35 142.00 C 128.97 142.00 122.76 148.90 120.82 158.12 C 119.32 165.29 120.26 168.53 125.32 173.55 C 135.70 183.86 154.44 184.98 166.79 176.04 C 170.73 173.18 170.73 173.18 177.12 178.92 C 180.63 182.08 190.88 190.85 199.90 198.41 C 216.30 212.15 216.30 212.15 222.71 205.82 C 229.12 199.50 229.12 199.50 224.33 195.13 Z  M 84.22 192.62 C 89.94 190.96 89.94 190.96 89.31 171.48 C 88.94 160.02 89.06 151.99 89.59 151.98 C 92.92 151.92 109.02 149.93 110.36 149.42 C 111.54 148.96 112.00 147.54 112.00 144.39 C 112.00 140.00 112.00 140.00 100.11 140.00 C 86.77 140.00 87.00 140.13 87.00 132.42 C 87.00 128.00 87.00 128.00 96.75 127.94 C 102.11 127.91 108.26 127.57 110.42 127.19 C 114.70 126.43 116.61 124.00 112.93 124.00 C 109.67 124.00 103.32 116.85 101.60 111.24 C 100.14 106.50 100.14 106.50 100.07 111.12 C 100.00 115.74 100.00 115.74 93.86 116.95 C 86.46 118.40 86.04 118.02 86.02 109.75 C 86.00 104.00 86.00 104.00 79.89 104.00 C 73.78 104.00 73.78 104.00 74.14 111.75 C 74.50 119.50 74.50 119.50 66.00 119.50 C 57.50 119.50 57.50 119.50 55.66 115.73 C 53.82 111.97 53.82 111.97 58.26 94.73 C 62.69 77.50 62.69 77.50 78.60 77.50 C 87.34 77.50 97.65 77.69 101.50 77.93 C 108.50 78.35 108.50 78.35 108.50 73.43 C 108.50 68.68 108.39 68.49 105.50 68.23 C 101.28 67.86 66.57 62.75 66.18 62.44 C 66.00 62.30 66.79 59.06 67.93 55.24 C 69.07 51.41 70.00 47.63 70.00 46.84 C 70.00 45.87 67.64 44.82 62.85 43.67 C 58.92 42.73 55.55 42.12 55.35 42.32 C 55.15 42.51 53.87 46.42 52.50 51.00 C 51.13 55.58 49.78 59.55 49.50 59.83 C 49.03 60.30 33.91 57.77 29.40 56.46 C 27.50 55.90 27.24 56.35 26.66 61.17 C 26.31 64.10 26.01 68.41 26.01 70.75 C 26.00 75.00 26.00 75.00 35.83 75.00 C 41.24 75.00 45.92 75.25 46.22 75.55 C 46.52 75.86 46.20 77.99 45.51 80.30 C 44.82 82.61 43.21 90.58 41.95 98.00 C 39.04 115.12 39.45 117.84 45.60 122.07 C 51.42 126.07 54.64 127.03 65.00 127.84 C 73.50 128.50 73.50 128.50 73.80 134.25 C 74.10 140.00 74.10 140.00 50.40 140.00 C 26.70 140.00 26.70 140.00 27.37 148.69 C 27.74 153.46 28.23 157.56 28.45 157.79 C 28.68 158.01 37.78 157.23 48.68 156.04 C 59.58 154.85 69.62 153.79 71.00 153.69 C 73.43 153.50 73.48 153.64 73.15 159.50 C 72.97 162.80 72.52 168.20 72.15 171.50 C 71.48 177.50 71.48 177.50 67.24 170.50 C 64.92 166.65 63.01 163.81 63.01 164.19 C 63.00 164.57 65.48 169.94 68.51 176.11 C 71.54 182.29 74.54 189.08 75.18 191.21 C 75.82 193.34 76.83 194.90 77.42 194.68 C 78.01 194.45 81.07 193.53 84.22 192.62 Z  M 138.36 135.47 C 145.55 131.26 146.43 130.08 140.56 132.54 C 136.32 134.31 136.16 134.73 143.68 124.13 C 146.65 119.93 150.68 114.10 152.63 111.16 C 155.92 106.21 156.42 105.85 159.34 106.36 C 165.29 107.38 209.71 108.28 210.23 107.39 C 210.51 106.90 211.03 104.88 211.39 102.90 C 212.04 99.29 212.04 99.29 204.96 98.70 C 201.07 98.37 190.60 96.96 181.69 95.55 C 135.93 88.34 120.62 86.00 119.06 86.00 C 117.72 86.00 116.96 87.78 115.62 94.01 C 114.67 98.42 114.13 102.40 114.42 102.87 C 114.71 103.33 120.46 104.04 127.21 104.43 C 133.96 104.83 139.69 105.36 139.94 105.61 C 140.19 105.86 134.86 111.63 128.08 118.42 C 115.76 130.77 115.76 130.77 121.03 137.35 C 126.30 143.93 126.30 143.93 129.03 141.63 C 130.54 140.36 134.73 137.59 138.36 135.47 Z  M 182.80 82.47 C 184.01 79.98 185.00 77.77 185.00 77.56 C 185.00 76.36 144.72 53.00 142.65 53.00 C 142.03 53.00 135.67 69.01 136.12 69.45 C 136.33 69.66 142.80 72.16 150.50 75.02 C 158.20 77.88 167.65 81.70 171.50 83.52 C 175.35 85.34 178.97 86.87 179.55 86.91 C 180.13 86.96 181.59 84.96 182.80 82.47 Z  M 134.30 173.04 C 128.07 169.24 126.49 161.73 130.77 156.31 C 133.91 152.33 136.92 152.49 145.57 157.08 C 149.93 159.39 154.96 161.98 156.75 162.85 C 158.54 163.71 160.00 164.68 160.00 165.00 C 160.00 166.01 150.58 172.83 147.65 173.94 C 143.37 175.57 137.83 175.20 134.30 173.04 Z "/>
</g>
</svg>