<?xml version="1.0" encoding="UTF-8" standalone="no"?>
<!DOCTYPE svg PUBLIC "-//W3C//DTD SVG 1.1//EN" "http://www.w3.org/Graphics/SVG/1.1/DTD/svg11.dtd" >
<svg xmlns="http://www.w3.org/2000/svg" xmlns:xlink="http://www.w3.org/1999/xlink" version="1.1" viewBox="0 0 256 256">
 <g >
 <path fill="currentColor"
d=" M 136.42 195.71 C 137.86 189.38 138.50 188.01 139.84 188.41 C 154.07 192.54 152.62 192.46 160.38 189.47 C 181.63 181.27 199.00 169.72 199.00 163.79 C 199.00 160.37 193.63 155.70 187.24 153.58 C 179.70 151.08 157.85 147.11 145.00 145.91 C 138.68 145.32 133.44 144.77 133.35 144.67 C 133.26 144.58 133.03 142.93 132.84 141.00 C 132.51 137.64 132.62 137.51 135.50 137.83 C 138.47 138.16 145.88 136.36 155.49 132.98 C 160.48 131.23 160.48 131.23 181.37 141.69 C 192.86 147.44 204.02 153.25 206.17 154.61 C 210.08 157.08 210.08 157.08 213.57 149.41 C 215.50 145.19 216.94 141.62 216.78 141.49 C 214.89 139.84 202.75 134.80 191.09 130.83 C 183.08 128.10 176.32 125.66 176.07 125.40 C 175.82 125.15 178.35 122.15 181.69 118.72 C 185.04 115.30 188.27 111.52 188.89 110.32 C 191.70 104.79 189.46 100.19 181.40 94.94 C 173.18 89.58 163.88 86.49 151.25 84.94 C 145.61 84.24 141.00 83.38 141.00 83.02 C 141.00 82.66 145.26 77.67 150.47 71.93 C 155.68 66.19 159.96 61.24 159.97 60.93 C 159.99 60.62 158.36 58.45 156.36 56.10 C 152.72 51.85 152.72 51.85 147.61 56.72 C 138.44 65.45 126.72 75.49 115.25 84.42 C 109.06 89.23 104.02 93.47 104.04 93.84 C 104.07 94.20 106.75 97.42 110.01 101.00 C 115.92 107.50 115.92 107.50 110.75 108.17 C 106.30 108.74 105.38 108.56 104.20 106.88 C 97.85 97.81 79.85 91.37 57.83 90.29 C 46.17 89.71 46.17 89.71 45.52 86.26 C 44.87 82.81 44.87 82.81 37.69 83.52 C 33.73 83.91 30.35 84.36 30.17 84.53 C 29.70 84.95 32.76 114.59 35.06 132.00 C 36.12 139.97 37.28 150.66 37.64 155.75 C 38.00 160.84 38.50 165.00 38.75 165.00 C 39.29 165.00 50.99 162.08 52.57 161.56 C 53.30 161.31 53.08 157.63 51.87 149.85 C 49.60 135.24 48.26 123.80 47.48 112.25 C 46.85 103.00 46.85 103.00 56.24 103.00 C 72.12 103.00 81.50 105.59 87.00 111.49 C 89.19 113.83 89.50 115.05 89.48 121.33 C 89.46 127.69 89.03 129.31 85.65 135.67 C 83.55 139.61 78.70 146.75 74.86 151.53 C 71.03 156.31 68.03 160.33 68.19 160.46 C 69.12 161.18 81.17 168.00 81.53 168.00 C 81.99 168.00 101.30 150.97 104.50 147.74 C 106.90 145.32 106.92 145.31 95.21 152.39 C 90.11 155.47 85.72 158.00 85.47 158.00 C 85.22 158.00 88.41 153.84 92.55 148.75 C 96.70 143.66 101.31 136.94 102.80 133.80 C 104.28 130.67 105.76 128.08 106.07 128.05 C 106.38 128.02 108.14 129.34 109.97 130.97 C 111.80 132.61 114.80 134.44 116.63 135.04 C 119.97 136.15 119.97 136.15 120.24 168.24 C 120.50 200.33 120.50 200.33 127.00 202.54 C 130.57 203.76 133.76 204.47 134.07 204.13 C 134.39 203.78 135.45 200.00 136.42 195.71 Z  M 140.00 185.91 C 140.01 185.69 141.35 181.90 143.00 177.50 C 144.65 173.10 145.97 169.28 145.95 169.00 C 145.92 168.72 144.05 172.10 141.79 176.50 C 137.82 184.23 137.65 184.40 136.89 181.62 C 136.46 180.03 135.79 174.50 135.41 169.32 C 134.72 159.92 134.72 159.92 141.61 160.51 C 169.18 162.88 183.05 164.97 185.64 167.12 C 189.23 170.10 180.15 173.59 160.00 176.97 C 156.43 177.57 152.20 178.33 150.60 178.64 C 148.03 179.16 147.77 178.99 148.26 177.11 C 148.56 175.95 148.65 175.00 148.46 175.00 C 148.27 175.00 146.29 177.55 144.06 180.66 C 141.82 183.78 140.00 186.14 140.00 185.91 Z  M 116.33 129.54 C 108.11 125.80 105.74 120.19 111.48 118.01 C 114.32 116.93 127.48 119.31 139.50 123.07 C 146.50 125.27 146.50 125.27 142.50 126.72 C 135.46 129.28 125.57 132.00 123.50 131.94 C 122.40 131.91 119.18 130.83 116.33 129.54 Z  M 150.88 117.10 C 147.79 116.11 139.24 113.82 131.88 112.00 C 124.52 110.19 118.30 108.54 118.06 108.33 C 117.82 108.12 120.07 105.45 123.06 102.39 C 128.50 96.83 128.50 96.83 137.50 97.49 C 146.87 98.17 164.04 101.46 167.50 103.23 C 168.60 103.80 170.28 104.93 171.23 105.76 C 172.82 107.15 172.83 107.48 171.37 109.95 C 169.41 113.26 161.16 119.02 158.48 118.95 C 157.39 118.92 153.97 118.08 150.88 117.10 Z "/>
</g>
</svg>