<?xml version="1.0" encoding="UTF-8" standalone="no"?>
<!DOCTYPE svg PUBLIC "-//W3C//DTD SVG 1.1//EN" "http://www.w3.org/Graphics/SVG/1.1/DTD/svg11.dtd" >
<svg xmlns="http://www.w3.org/2000/svg" xmlns:xlink="http://www.w3.org/1999/xlink" version="1.1" viewBox="0 0 256 256">
 <g >
 <path fill="currentColor"
d=" M 214.00 190.00 C 214.00 142.00 214.00 142.00 205.50 142.00 C 197.00 142.00 197.00 142.00 197.00 151.00 C 197.00 160.00 197.00 160.00 162.38 160.00 C 127.75 160.00 127.75 160.00 128.44 156.75 C 130.58 146.64 130.95 147.48 123.65 145.65 C 120.04 144.74 116.28 144.00 115.28 144.00 C 113.74 144.00 111.92 150.24 102.61 187.54 C 96.63 211.49 91.98 231.32 92.28 231.61 C 92.75 232.08 98.94 233.77 106.08 235.37 C 108.65 235.95 108.66 235.92 112.07 220.98 C 115.49 206.00 115.49 206.00 156.25 206.00 C 197.00 206.00 197.00 206.00 197.00 222.00 C 197.00 238.00 197.00 238.00 205.50 238.00 C 214.00 238.00 214.00 238.00 214.00 190.00 Z  M 79.00 113.50 C 79.00 52.00 79.00 52.00 50.00 52.00 C 21.00 52.00 21.00 52.00 21.00 113.50 C 21.00 175.00 21.00 175.00 50.00 175.00 C 79.00 175.00 79.00 175.00 79.00 113.50 Z  M 141.00 107.80 C 141.00 76.61 141.00 76.61 144.42 79.92 C 147.84 83.24 147.84 83.24 153.92 78.56 C 157.26 75.99 160.00 73.71 160.00 73.49 C 160.00 73.16 152.60 63.93 148.18 58.75 C 146.77 57.09 147.56 57.00 162.85 57.00 C 179.01 57.00 179.01 57.00 165.51 72.51 C 152.00 88.02 152.00 88.02 152.00 112.51 C 152.00 137.00 152.00 137.00 160.50 137.00 C 169.00 137.00 169.00 137.00 169.02 115.25 C 169.04 93.50 169.04 93.50 173.48 88.50 C 177.92 83.50 177.92 83.50 177.96 110.75 C 178.00 138.00 178.00 138.00 180.25 137.94 C 181.49 137.91 189.25 137.11 197.50 136.16 C 212.50 134.44 212.50 134.44 212.27 129.47 C 212.15 126.74 211.81 123.15 211.52 121.49 C 211.00 118.49 211.00 118.49 202.97 118.85 C 194.94 119.21 194.94 119.21 195.22 106.36 C 195.50 93.50 195.50 93.50 201.00 93.22 C 206.50 92.94 206.50 92.94 213.89 113.22 C 217.96 124.37 221.60 133.85 221.98 134.29 C 222.50 134.88 235.95 130.78 237.78 129.48 C 237.93 129.37 234.74 120.22 230.68 109.15 C 226.62 98.09 223.53 88.80 223.82 88.52 C 224.10 88.23 226.06 88.00 228.17 88.00 C 230.59 88.00 231.99 87.54 231.96 86.75 C 231.90 84.56 229.25 72.91 228.68 72.34 C 228.38 72.04 218.45 73.42 206.63 75.40 C 194.80 77.38 184.36 79.00 183.42 79.00 C 182.23 79.00 183.27 77.35 186.85 73.56 C 189.68 70.57 192.00 67.94 192.00 67.72 C 192.00 67.50 189.26 64.99 185.90 62.16 C 179.80 57.00 179.80 57.00 206.40 57.00 C 233.00 57.00 233.00 57.00 233.00 49.51 C 233.00 42.03 233.00 42.03 201.75 41.76 C 170.50 41.50 170.50 41.50 170.22 30.75 C 169.93 20.00 169.93 20.00 160.97 20.00 C 152.00 20.00 152.00 20.00 152.00 31.00 C 152.00 42.00 152.00 42.00 120.00 42.00 C 88.00 42.00 88.00 42.00 88.00 49.50 C 88.00 57.00 88.00 57.00 114.75 57.02 C 141.50 57.04 141.50 57.04 136.50 61.44 C 131.50 65.83 131.50 65.83 134.75 69.21 C 136.54 71.07 138.00 72.91 138.00 73.30 C 138.00 73.68 127.20 74.00 114.00 74.00 C 90.00 74.00 90.00 74.00 90.00 82.50 C 90.00 91.00 90.00 91.00 94.00 91.00 C 96.20 91.00 98.00 91.34 98.00 91.75 C 98.00 92.16 95.25 100.74 91.90 110.81 C 88.54 120.88 85.95 129.26 86.15 129.42 C 86.69 129.86 100.46 135.00 101.12 135.00 C 101.43 135.00 104.77 125.10 108.55 113.00 C 115.40 91.00 115.40 91.00 120.20 91.00 C 125.00 91.00 125.00 91.00 125.00 105.07 C 125.00 119.14 125.00 119.14 117.13 118.45 C 109.26 117.76 109.26 117.76 108.54 125.46 C 108.14 129.69 108.12 133.45 108.48 133.82 C 109.12 134.48 134.18 138.67 138.75 138.89 C 141.00 139.00 141.00 139.00 141.00 107.80 Z  M 119.99 190.25 C 119.99 189.84 120.76 186.46 121.71 182.75 C 123.44 176.00 123.44 176.00 160.22 176.00 C 197.00 176.00 197.00 176.00 197.00 183.50 C 197.00 191.00 197.00 191.00 158.50 191.00 C 137.32 191.00 120.00 190.66 119.99 190.25 Z  M 39.00 113.00 C 39.00 69.00 39.00 69.00 50.00 69.00 C 61.00 69.00 61.00 69.00 61.00 113.00 C 61.00 157.00 61.00 157.00 50.00 157.00 C 39.00 157.00 39.00 157.00 39.00 113.00 Z "/>
</g>
</svg>