<?xml version="1.0" encoding="UTF-8" standalone="no"?>
<!DOCTYPE svg PUBLIC "-//W3C//DTD SVG 1.1//EN" "http://www.w3.org/Graphics/SVG/1.1/DTD/svg11.dtd" >
<svg xmlns="http://www.w3.org/2000/svg" xmlns:xlink="http://www.w3.org/1999/xlink" version="1.1" viewBox="0 0 256 256">
 <g >
 <path fill="currentColor"
d=" M 86.02 194.75 C 86.04 156.50 86.04 156.50 94.49 169.39 C 99.14 176.48 103.14 182.47 103.38 182.71 C 103.93 183.26 118.00 173.94 118.00 173.02 C 118.00 171.90 100.13 145.00 99.39 145.00 C 99.02 145.00 95.85 146.81 92.36 149.02 C 86.00 153.03 86.00 153.03 86.00 142.02 C 86.00 131.00 86.00 131.00 100.04 131.00 C 114.08 131.00 114.08 131.00 113.79 122.25 C 113.50 113.50 113.50 113.50 99.75 113.22 C 86.00 112.94 86.00 112.94 86.00 99.47 C 86.00 86.00 86.00 86.00 77.00 86.00 C 68.00 86.00 68.00 86.00 68.00 99.50 C 68.00 113.00 68.00 113.00 51.00 113.00 C 34.00 113.00 34.00 113.00 34.00 121.98 C 34.00 130.95 34.00 130.95 50.75 131.23 C 67.50 131.50 67.50 131.50 67.76 182.25 C 68.02 233.00 68.02 233.00 77.01 233.00 C 86.00 233.00 86.00 233.00 86.02 194.75 Z  M 221.69 224.75 C 221.41 224.06 217.14 213.82 212.22 202.00 C 207.29 190.18 202.56 178.84 201.71 176.82 C 200.16 173.14 200.16 173.14 191.72 176.66 C 183.28 180.18 183.28 180.18 188.64 193.82 C 191.59 201.31 194.00 207.57 194.00 207.73 C 194.00 207.88 183.88 208.00 171.50 208.00 C 159.12 208.00 149.00 207.74 149.00 207.42 C 149.00 207.09 154.64 194.64 161.54 179.75 C 171.04 159.24 173.77 152.47 172.79 151.85 C 169.22 149.57 157.85 145.76 157.09 146.58 C 156.23 147.50 120.00 224.63 120.00 225.52 C 120.00 225.79 143.00 226.00 171.11 226.00 C 211.60 226.00 222.11 225.74 221.69 224.75 Z  M 51.90 178.26 C 62.72 151.25 62.72 151.25 55.11 148.12 C 50.93 146.39 47.05 144.99 46.50 145.00 C 45.66 145.02 25.68 193.71 24.79 197.90 C 24.60 198.81 27.27 200.42 32.50 202.55 C 36.90 204.34 40.63 205.69 40.79 205.54 C 40.94 205.39 45.94 193.11 51.90 178.26 Z  M 232.75 154.82 C 231.79 152.21 195.36 88.00 194.84 88.00 C 193.53 88.00 180.00 96.19 180.00 96.99 C 180.00 97.72 187.81 111.88 209.67 150.78 C 217.14 164.06 217.14 164.06 225.07 159.78 C 229.43 157.43 232.89 155.19 232.75 154.82 Z  M 142.33 130.06 C 152.05 112.50 160.00 97.90 160.00 97.63 C 160.00 96.48 144.76 88.85 144.03 89.63 C 142.60 91.16 108.71 153.05 109.11 153.38 C 110.12 154.21 123.57 161.92 124.08 161.96 C 124.39 161.98 132.61 147.63 142.33 130.06 Z  M 197.00 56.50 C 197.00 34.00 197.00 34.00 188.00 34.00 C 179.00 34.00 179.00 34.00 179.00 47.02 C 179.00 60.04 179.00 60.04 156.75 59.77 C 134.50 59.50 134.50 59.50 134.23 38.25 C 133.96 17.00 133.96 17.00 125.50 17.00 C 117.04 17.00 117.04 17.00 116.77 38.25 C 116.50 59.50 116.50 59.50 92.75 59.77 C 69.00 60.04 69.00 60.04 69.00 47.02 C 69.00 34.00 69.00 34.00 60.00 34.00 C 51.00 34.00 51.00 34.00 51.00 56.50 C 51.00 79.00 51.00 79.00 124.00 79.00 C 197.00 79.00 197.00 79.00 197.00 56.50 Z "/>
</g>
</svg>