<?xml version="1.0" encoding="UTF-8" standalone="no"?>
<!DOCTYPE svg PUBLIC "-//W3C//DTD SVG 1.1//EN" "http://www.w3.org/Graphics/SVG/1.1/DTD/svg11.dtd" >
<svg xmlns="http://www.w3.org/2000/svg" xmlns:xlink="http://www.w3.org/1999/xlink" version="1.1" viewBox="0 0 256 256">
 <g >
 <path fill="currentColor"
d=" M 173.00 224.00 C 173.00 209.00 173.00 209.00 196.50 209.00 C 220.00 209.00 220.00 209.00 220.00 199.50 C 220.00 190.00 220.00 190.00 196.50 190.00 C 173.00 190.00 173.00 190.00 173.00 181.00 C 173.00 172.00 173.00 172.00 186.00 172.00 C 199.00 172.00 199.00 172.00 199.00 162.50 C 199.00 153.00 199.00 153.00 186.00 153.00 C 173.00 153.00 173.00 153.00 173.00 142.46 C 173.00 131.92 173.00 131.92 164.25 132.21 C 155.50 132.50 155.50 132.50 155.22 142.72 C 154.93 152.94 154.93 152.94 142.22 153.22 C 129.50 153.50 129.50 153.50 129.21 162.75 C 128.92 172.00 128.92 172.00 141.96 172.00 C 155.00 172.00 155.00 172.00 155.00 181.00 C 155.00 190.00 155.00 190.00 133.00 190.00 C 111.00 190.00 111.00 190.00 111.00 199.50 C 111.00 209.00 111.00 209.00 133.00 209.00 C 155.00 209.00 155.00 209.00 155.00 224.00 C 155.00 239.00 155.00 239.00 164.00 239.00 C 173.00 239.00 173.00 239.00 173.00 224.00 Z  M 70.00 189.11 C 70.00 156.22 70.00 156.22 81.75 154.48 C 88.21 153.53 93.90 152.38 94.38 151.94 C 95.22 151.17 93.52 136.18 92.47 135.14 C 92.04 134.71 80.02 136.27 72.75 137.71 C 70.00 138.25 70.00 138.25 70.00 115.12 C 70.00 92.00 70.00 92.00 82.50 92.00 C 95.00 92.00 95.00 92.00 95.00 83.50 C 95.00 75.00 95.00 75.00 82.50 75.00 C 70.00 75.00 70.00 75.00 70.00 55.00 C 70.00 35.00 70.00 35.00 61.02 35.00 C 52.04 35.00 52.04 35.00 51.77 54.75 C 51.50 74.50 51.50 74.50 38.25 74.78 C 25.00 75.06 25.00 75.06 25.00 83.50 C 25.00 91.94 25.00 91.94 38.25 92.22 C 51.50 92.50 51.50 92.50 51.77 116.18 C 52.02 138.09 51.90 139.89 50.27 140.37 C 49.30 140.65 42.05 141.88 34.18 143.08 C 19.85 145.28 19.85 145.28 20.47 150.39 C 21.61 159.84 22.17 163.00 22.73 163.00 C 23.59 163.00 47.24 159.04 49.75 158.47 C 52.00 157.96 52.00 157.96 52.00 179.53 C 52.00 201.09 52.00 201.09 48.75 200.52 C 46.96 200.20 40.78 199.09 35.00 198.06 C 29.22 197.02 24.38 196.29 24.23 196.44 C 23.68 196.98 21.04 213.38 21.44 213.77 C 21.80 214.14 65.63 221.67 68.75 221.91 C 69.73 221.98 70.00 214.81 70.00 189.11 Z  M 119.10 153.75 C 132.50 127.50 132.50 127.50 164.92 127.50 C 197.34 127.50 197.34 127.50 212.13 151.41 C 220.26 164.56 227.27 175.67 227.72 176.12 C 228.32 176.72 237.55 171.74 243.79 167.45 C 243.95 167.35 238.66 158.62 232.04 148.06 C 225.42 137.51 220.00 128.45 220.00 127.93 C 220.00 127.42 224.28 127.00 229.50 127.00 C 239.00 127.00 239.00 127.00 239.00 118.00 C 239.00 109.00 239.00 109.00 190.50 109.00 C 163.82 109.00 142.01 108.66 142.03 108.25 C 142.05 107.84 143.74 104.35 145.78 100.50 C 149.50 93.50 149.50 93.50 182.25 93.24 C 215.00 92.97 215.00 92.97 215.00 84.99 C 215.00 77.00 215.00 77.00 186.50 77.00 C 167.70 77.00 158.00 76.65 158.00 75.98 C 158.00 75.41 159.58 71.81 161.51 67.98 C 165.03 61.00 165.03 61.00 196.01 61.00 C 227.00 61.00 227.00 61.00 227.00 52.50 C 227.00 44.00 227.00 44.00 201.00 44.00 C 183.91 44.00 175.00 43.65 175.00 42.98 C 175.00 42.41 176.60 38.77 178.56 34.87 C 180.52 30.98 181.99 27.69 181.81 27.56 C 180.38 26.52 165.67 19.00 165.48 19.22 C 165.34 19.37 162.47 25.01 159.11 31.75 C 152.98 44.00 152.98 44.00 126.99 44.00 C 101.00 44.00 101.00 44.00 101.00 52.50 C 101.00 61.00 101.00 61.00 122.51 61.00 C 144.02 61.00 144.02 61.00 140.00 69.00 C 135.98 77.00 135.98 77.00 122.49 77.00 C 109.00 77.00 109.00 77.00 109.00 85.00 C 109.00 93.00 109.00 93.00 118.50 93.00 C 123.72 93.00 128.00 93.22 128.00 93.48 C 128.00 93.75 126.33 97.35 124.28 101.48 C 120.56 109.00 120.56 109.00 104.28 109.00 C 88.00 109.00 88.00 109.00 88.00 118.00 C 88.00 127.00 88.00 127.00 99.50 127.00 C 105.83 127.00 111.00 127.23 111.00 127.51 C 111.00 127.79 106.00 138.01 99.89 150.22 C 93.78 162.43 89.20 172.57 89.70 172.73 C 90.21 172.90 93.75 174.58 97.57 176.45 C 101.38 178.32 104.77 179.88 105.10 179.93 C 105.44 179.97 111.74 168.19 119.10 153.75 Z "/>
</g>
</svg>