<?xml version="1.0" encoding="UTF-8" standalone="no"?>
<!DOCTYPE svg PUBLIC "-//W3C//DTD SVG 1.1//EN" "http://www.w3.org/Graphics/SVG/1.1/DTD/svg11.dtd" >
<svg xmlns="http://www.w3.org/2000/svg" xmlns:xlink="http://www.w3.org/1999/xlink" version="1.1" viewBox="0 0 256 256">
 <g >
 <path fill="currentColor"
d=" M 210.00 189.50 C 210.00 148.00 210.00 148.00 187.98 148.00 C 165.96 148.00 165.96 148.00 166.23 128.75 C 166.50 109.50 166.50 109.50 202.25 109.24 C 238.00 108.97 238.00 108.97 238.00 99.99 C 238.00 91.00 238.00 91.00 202.00 91.00 C 166.00 91.00 166.00 91.00 166.00 70.55 C 166.00 50.09 166.00 50.09 169.25 49.58 C 171.04 49.30 181.66 48.54 192.85 47.89 C 213.20 46.69 213.20 46.69 212.56 40.10 C 211.57 29.95 211.02 28.00 209.17 28.00 C 205.54 28.00 107.29 35.09 104.25 35.57 C 101.00 36.09 101.00 36.09 101.00 43.96 C 101.00 48.29 101.24 52.45 101.52 53.20 C 101.96 54.35 105.29 54.29 122.27 52.83 C 133.40 51.88 143.74 51.08 145.25 51.05 C 148.00 51.00 148.00 51.00 148.00 71.00 C 148.00 91.00 148.00 91.00 113.00 91.00 C 78.00 91.00 78.00 91.00 78.00 100.00 C 78.00 109.00 78.00 109.00 113.00 109.00 C 148.00 109.00 148.00 109.00 148.00 128.50 C 148.00 148.00 148.00 148.00 125.50 148.00 C 103.00 148.00 103.00 148.00 103.00 189.50 C 103.00 231.00 103.00 231.00 156.50 231.00 C 210.00 231.00 210.00 231.00 210.00 189.50 Z  M 55.03 186.23 C 73.67 150.50 73.67 150.50 66.59 146.80 C 62.69 144.76 59.03 143.08 58.46 143.05 C 57.89 143.02 50.72 155.71 42.52 171.25 C 34.33 186.79 25.88 202.73 23.76 206.69 C 19.90 213.87 19.90 213.87 27.67 218.38 C 31.95 220.86 35.66 222.68 35.92 222.42 C 36.17 222.16 44.77 205.87 55.03 186.23 Z  M 67.89 119.13 C 71.70 112.95 72.14 111.72 70.92 110.58 C 69.17 108.95 31.96 85.30 29.95 84.55 C 28.97 84.18 27.07 86.21 24.13 90.75 C 21.73 94.46 19.81 97.85 19.87 98.27 C 20.02 99.42 61.33 126.89 62.47 126.60 C 63.00 126.46 65.44 123.10 67.89 119.13 Z  M 70.99 68.02 C 73.22 64.73 75.29 61.42 75.58 60.66 C 75.93 59.73 69.30 54.84 55.02 45.51 C 43.42 37.93 33.79 31.91 33.62 32.12 C 32.07 34.02 25.01 45.03 24.79 45.89 C 24.54 46.85 64.37 73.85 66.21 73.96 C 66.60 73.98 68.75 71.31 70.99 68.02 Z  M 122.00 189.00 C 122.00 166.00 122.00 166.00 157.00 166.00 C 192.00 166.00 192.00 166.00 192.00 189.00 C 192.00 212.00 192.00 212.00 157.00 212.00 C 122.00 212.00 122.00 212.00 122.00 189.00 Z "/>
</g>
</svg>