<?xml version="1.0" encoding="UTF-8" standalone="no"?>
<!DOCTYPE svg PUBLIC "-//W3C//DTD SVG 1.1//EN" "http://www.w3.org/Graphics/SVG/1.1/DTD/svg11.dtd" >
<svg xmlns="http://www.w3.org/2000/svg" xmlns:xlink="http://www.w3.org/1999/xlink" version="1.1" viewBox="0 0 256 256">
 <g >
 <path fill="currentColor"
d=" M 101.96 208.50 C 106.66 192.78 109.76 184.00 110.59 184.00 C 111.31 184.00 132.73 192.30 158.20 202.45 C 183.66 212.60 205.12 221.04 205.88 221.20 C 207.44 221.54 214.47 205.01 213.23 203.93 C 212.83 203.58 190.68 194.83 164.00 184.48 C 137.32 174.13 115.32 165.52 115.10 165.35 C 114.89 165.18 115.79 160.87 117.10 155.77 C 119.50 146.50 119.50 146.50 165.25 146.24 C 211.00 145.98 211.00 145.98 211.00 136.49 C 211.00 127.00 211.00 127.00 168.50 127.00 C 145.12 127.00 126.00 126.70 126.00 126.34 C 126.00 125.98 128.77 115.63 132.15 103.34 C 138.31 81.00 138.31 81.00 166.15 81.00 C 194.00 81.00 194.00 81.00 194.00 71.50 C 194.00 62.00 194.00 62.00 135.50 62.00 C 103.33 62.00 77.00 61.77 77.00 61.49 C 77.00 61.21 79.47 54.81 82.50 47.28 C 85.52 39.74 88.00 33.08 88.00 32.48 C 88.00 31.46 72.18 24.39 71.60 25.15 C 70.85 26.13 38.95 105.28 39.20 105.53 C 40.46 106.78 55.45 111.93 55.99 111.30 C 56.37 110.86 59.34 103.86 62.58 95.75 C 68.48 81.00 68.48 81.00 93.74 81.00 C 107.63 81.00 119.00 81.28 119.00 81.63 C 119.00 81.98 116.01 92.33 112.36 104.63 C 105.73 127.00 105.73 127.00 70.36 127.00 C 35.00 127.00 35.00 127.00 35.00 136.50 C 35.00 146.00 35.00 146.00 67.50 146.00 C 91.72 146.00 100.00 146.30 100.00 147.17 C 100.00 147.82 95.03 166.10 88.95 187.80 C 82.88 209.49 78.12 227.46 78.38 227.72 C 78.80 228.13 92.59 232.71 94.06 232.92 C 94.37 232.96 97.93 221.97 101.96 208.50 Z "/>
</g>
</svg>