<?xml version="1.0" encoding="UTF-8" standalone="no"?>
<!DOCTYPE svg PUBLIC "-//W3C//DTD SVG 1.1//EN" "http://www.w3.org/Graphics/SVG/1.1/DTD/svg11.dtd" >
<svg xmlns="http://www.w3.org/2000/svg" xmlns:xlink="http://www.w3.org/1999/xlink" version="1.1" viewBox="0 0 256 256">
 <g >
 <path fill="currentColor"
d=" M 41.81 216.50 C 44.57 208.80 48.41 198.15 50.34 192.84 C 53.85 183.18 53.85 183.18 46.37 180.14 C 41.11 178.00 38.77 177.45 38.46 178.30 C 33.61 191.40 21.14 227.47 21.38 227.71 C 21.55 227.89 24.80 229.08 28.60 230.38 C 33.40 232.01 35.70 232.38 36.14 231.61 C 36.50 231.00 39.05 224.20 41.81 216.50 Z  M 84.54 224.13 C 87.57 223.50 87.57 223.50 85.18 203.00 C 83.87 191.72 82.72 182.42 82.63 182.32 C 82.37 182.02 66.59 184.08 66.20 184.46 C 65.83 184.84 69.71 219.95 70.55 223.78 C 71.02 225.91 71.41 226.02 76.28 225.42 C 79.15 225.06 82.87 224.48 84.54 224.13 Z  M 118.08 216.41 C 121.61 214.99 124.86 213.48 125.30 213.06 C 125.74 212.65 122.86 204.18 118.91 194.26 C 111.72 176.21 111.72 176.21 105.11 179.17 C 101.48 180.79 98.14 182.48 97.69 182.92 C 97.13 183.47 110.76 218.89 111.58 218.99 C 111.62 219.00 114.55 217.84 118.08 216.41 Z  M 118.00 166.11 C 118.00 163.82 113.07 126.95 112.56 125.44 C 112.32 124.70 109.64 124.66 103.85 125.30 C 99.26 125.80 95.32 126.38 95.11 126.58 C 94.90 126.78 95.52 131.92 96.50 138.00 C 97.48 144.08 98.06 149.28 97.78 149.55 C 97.51 149.82 89.39 149.92 79.73 149.77 C 62.17 149.50 62.17 149.50 86.57 110.50 C 99.99 89.05 110.98 71.21 110.99 70.86 C 111.01 69.64 96.80 61.80 96.07 62.65 C 95.67 63.12 90.02 72.05 83.51 82.50 C 77.01 92.95 71.14 102.10 70.48 102.83 C 69.48 103.92 67.51 103.41 59.39 99.97 C 53.95 97.66 49.37 95.66 49.21 95.52 C 49.06 95.38 56.82 82.12 66.46 66.06 C 76.11 50.00 84.00 36.50 84.00 36.05 C 84.00 35.17 70.05 26.59 69.55 27.16 C 67.32 29.69 23.11 103.54 23.69 103.76 C 24.14 103.93 32.38 107.39 42.00 111.46 C 53.95 116.52 59.46 119.34 59.37 120.35 C 59.27 121.60 50.68 135.56 33.30 162.75 C 29.94 168.00 29.94 168.00 73.97 168.00 C 116.52 168.00 118.00 167.94 118.00 166.11 Z "/>
</g>
</svg>