<?xml version="1.0" encoding="UTF-8" standalone="no"?>
<!DOCTYPE svg PUBLIC "-//W3C//DTD SVG 1.1//EN" "http://www.w3.org/Graphics/SVG/1.1/DTD/svg11.dtd" >
<svg xmlns="http://www.w3.org/2000/svg" xmlns:xlink="http://www.w3.org/1999/xlink" version="1.1" viewBox="0 0 256 256">
 <g >
 <path fill="currentColor"
d=" M 198.00 146.00 C 198.00 64.00 198.00 64.00 220.00 64.00 C 242.00 64.00 242.00 64.00 242.00 55.00 C 242.00 46.00 242.00 46.00 188.46 46.00 C 134.92 46.00 134.92 46.00 135.21 54.75 C 135.50 63.50 135.50 63.50 157.25 63.77 C 179.00 64.04 179.00 64.04 179.00 136.08 C 179.00 208.12 179.00 208.12 174.75 207.54 C 166.37 206.40 144.61 204.05 144.45 204.28 C 144.36 204.40 143.87 208.66 143.36 213.75 C 142.57 221.76 142.65 223.01 143.97 223.08 C 144.81 223.12 156.30 224.18 169.50 225.44 C 182.70 226.71 194.51 227.80 195.75 227.87 C 198.00 228.00 198.00 228.00 198.00 146.00 Z  M 112.00 205.59 C 112.00 187.18 112.00 187.18 120.75 186.54 C 138.29 185.26 137.12 185.99 136.79 176.66 C 136.50 168.50 136.50 168.50 124.25 168.88 C 112.00 169.25 112.00 169.25 112.00 115.13 C 112.00 61.00 112.00 61.00 121.00 61.00 C 130.00 61.00 130.00 61.00 130.00 52.50 C 130.00 44.00 130.00 44.00 75.00 44.00 C 20.00 44.00 20.00 44.00 20.00 52.50 C 20.00 61.00 20.00 61.00 28.50 61.00 C 37.00 61.00 37.00 61.00 37.00 117.91 C 37.00 174.82 37.00 174.82 33.25 175.38 C 31.19 175.69 25.96 176.23 21.62 176.60 C 13.75 177.26 13.75 177.26 14.44 185.87 C 14.83 190.60 15.28 194.62 15.45 194.79 C 15.75 195.08 76.13 190.67 88.25 189.47 C 94.00 188.90 94.00 188.90 94.00 206.45 C 94.00 224.00 94.00 224.00 103.00 224.00 C 112.00 224.00 112.00 224.00 112.00 205.59 Z  M 55.00 160.00 C 55.00 146.00 55.00 146.00 69.54 146.00 C 84.08 146.00 84.08 146.00 83.79 137.75 C 83.50 129.50 83.50 129.50 69.25 129.22 C 55.00 128.95 55.00 128.95 55.00 116.97 C 55.00 105.00 55.00 105.00 69.54 105.00 C 84.08 105.00 84.08 105.00 83.79 96.75 C 83.50 88.50 83.50 88.50 69.25 88.22 C 55.00 87.95 55.00 87.95 55.00 74.47 C 55.00 61.00 55.00 61.00 74.50 61.00 C 94.00 61.00 94.00 61.00 94.00 115.94 C 94.00 170.88 94.00 170.88 89.75 171.42 C 85.01 172.02 59.75 174.00 56.86 174.00 C 55.14 174.00 55.00 172.97 55.00 160.00 Z "/>
</g>
</svg>