<?xml version="1.0" encoding="UTF-8" standalone="no"?>
<!DOCTYPE svg PUBLIC "-//W3C//DTD SVG 1.1//EN" "http://www.w3.org/Graphics/SVG/1.1/DTD/svg11.dtd" >
<svg xmlns="http://www.w3.org/2000/svg" xmlns:xlink="http://www.w3.org/1999/xlink" version="1.1" viewBox="0 0 256 256">
 <g >
 <path fill="currentColor"
d=" M 225.00 192.00 C 225.00 151.00 225.00 151.00 169.50 151.00 C 114.00 151.00 114.00 151.00 114.00 192.00 C 114.00 233.00 114.00 233.00 169.50 233.00 C 225.00 233.00 225.00 233.00 225.00 192.00 Z  M 60.50 222.03 C 78.10 219.81 94.09 217.75 96.03 217.45 C 99.57 216.90 99.57 216.90 98.64 208.70 C 98.13 204.19 97.64 200.40 97.55 200.28 C 97.46 200.15 91.56 200.71 84.44 201.51 C 77.32 202.31 71.16 202.97 70.75 202.98 C 70.34 202.99 70.00 189.50 70.00 173.00 C 70.00 143.00 70.00 143.00 84.54 143.00 C 99.08 143.00 99.08 143.00 98.79 134.25 C 98.50 125.50 98.50 125.50 84.25 125.22 C 70.00 124.95 70.00 124.95 70.00 113.47 C 70.00 102.00 70.00 102.00 79.00 102.00 C 88.00 102.00 88.00 102.00 88.00 94.00 C 88.00 86.00 88.00 86.00 62.00 86.00 C 36.00 86.00 36.00 86.00 36.00 93.96 C 36.00 101.92 36.00 101.92 44.25 102.21 C 52.50 102.50 52.50 102.50 52.78 113.75 C 53.07 125.00 53.07 125.00 38.03 125.00 C 23.00 125.00 23.00 125.00 23.00 134.00 C 23.00 143.00 23.00 143.00 38.00 143.00 C 53.00 143.00 53.00 143.00 53.00 174.00 C 53.00 191.05 52.89 205.00 52.75 205.01 C 50.30 205.07 19.60 209.07 19.30 209.37 C 19.07 209.60 19.58 213.48 20.44 218.00 C 21.30 222.52 22.00 226.45 22.00 226.72 C 22.00 227.00 23.46 226.96 25.25 226.65 C 27.04 226.33 42.90 224.25 60.50 222.03 Z  M 41.00 194.57 C 44.02 193.62 47.02 192.68 47.66 192.49 C 48.44 192.25 47.37 187.47 44.39 177.82 C 41.95 169.94 39.27 161.18 38.43 158.33 C 36.91 153.17 36.91 153.17 29.42 155.69 C 23.54 157.66 22.04 158.56 22.42 159.85 C 22.69 160.76 24.97 168.93 27.49 178.00 C 33.11 198.29 32.76 197.30 34.26 196.75 C 34.94 196.50 37.98 195.52 41.00 194.57 Z  M 94.99 177.44 C 99.09 167.58 101.90 159.55 101.39 159.11 C 100.15 158.03 90.00 154.00 88.51 154.00 C 87.39 154.00 73.90 184.71 73.62 187.90 C 73.53 189.01 84.07 194.50 87.10 194.92 C 87.43 194.96 90.98 187.10 94.99 177.44 Z  M 213.00 114.49 C 213.00 89.98 213.00 89.98 169.75 90.24 C 126.50 90.50 126.50 90.50 126.23 114.75 C 125.96 139.00 125.96 139.00 169.48 139.00 C 213.00 139.00 213.00 139.00 213.00 114.49 Z  M 124.00 89.50 C 124.00 78.00 124.00 78.00 171.50 78.00 C 219.00 78.00 219.00 78.00 219.00 88.00 C 219.00 98.00 219.00 98.00 228.50 98.00 C 238.00 98.00 238.00 98.00 238.00 78.51 C 238.00 59.03 238.00 59.03 208.25 58.76 C 178.50 58.50 178.50 58.50 178.23 39.25 C 177.96 20.00 177.96 20.00 168.98 20.00 C 160.00 20.00 160.00 20.00 160.00 39.50 C 160.00 59.00 160.00 59.00 132.50 59.00 C 105.00 59.00 105.00 59.00 105.00 80.00 C 105.00 101.00 105.00 101.00 114.50 101.00 C 124.00 101.00 124.00 101.00 124.00 89.50 Z  M 41.00 74.91 C 50.08 63.35 58.23 52.95 59.12 51.79 C 60.70 49.74 61.08 50.10 74.99 66.85 C 82.82 76.28 89.52 84.00 89.87 84.00 C 90.22 84.00 93.19 81.59 96.48 78.64 C 102.46 73.29 102.46 73.29 94.43 63.40 C 90.01 57.95 80.62 46.38 73.57 37.67 C 66.52 28.97 60.41 22.22 60.00 22.67 C 59.39 23.35 13.76 80.84 10.85 84.61 C 10.29 85.32 12.34 87.51 16.70 90.86 C 20.38 93.68 23.64 95.98 23.95 95.96 C 24.25 95.94 31.93 86.46 41.00 74.91 Z  M 143.63 50.39 C 149.44 43.78 149.44 43.78 141.47 36.38 C 127.68 23.57 129.14 23.94 122.61 31.59 C 119.52 35.20 117.04 38.46 117.08 38.83 C 117.19 39.69 136.28 56.93 137.17 56.97 C 137.53 56.99 140.44 54.03 143.63 50.39 Z  M 212.00 47.90 C 222.01 38.80 222.01 38.80 219.03 35.15 C 209.39 23.36 211.40 23.49 200.07 33.94 C 194.49 39.08 190.06 43.64 190.21 44.08 C 190.75 45.58 200.50 56.99 201.25 56.99 C 201.66 57.00 206.50 52.91 212.00 47.90 Z  M 131.23 192.75 C 131.50 169.50 131.50 169.50 145.75 169.22 C 160.00 168.95 160.00 168.95 160.00 175.44 C 160.00 181.94 160.00 181.94 148.25 182.22 C 136.50 182.50 136.50 182.50 136.21 190.25 C 135.92 198.00 135.92 198.00 147.96 198.00 C 160.00 198.00 160.00 198.00 160.00 207.00 C 160.00 216.00 160.00 216.00 145.48 216.00 C 130.96 216.00 130.96 216.00 131.23 192.75 Z  M 178.00 207.00 C 178.00 198.00 178.00 198.00 189.00 198.00 C 200.00 198.00 200.00 198.00 200.00 190.00 C 200.00 182.00 200.00 182.00 189.00 182.00 C 178.00 182.00 178.00 182.00 178.00 175.50 C 178.00 169.00 178.00 169.00 192.00 169.00 C 206.00 169.00 206.00 169.00 206.00 192.50 C 206.00 216.00 206.00 216.00 192.00 216.00 C 178.00 216.00 178.00 216.00 178.00 207.00 Z  M 144.21 114.75 C 144.50 107.50 144.50 107.50 169.75 107.23 C 195.00 106.97 195.00 106.97 195.00 114.48 C 195.00 122.00 195.00 122.00 169.46 122.00 C 143.91 122.00 143.91 122.00 144.21 114.75 Z "/>
</g>
</svg>