<?xml version="1.0" encoding="UTF-8" standalone="no"?>
<!DOCTYPE svg PUBLIC "-//W3C//DTD SVG 1.1//EN" "http://www.w3.org/Graphics/SVG/1.1/DTD/svg11.dtd" >
<svg xmlns="http://www.w3.org/2000/svg" xmlns:xlink="http://www.w3.org/1999/xlink" version="1.1" viewBox="0 0 256 256">
 <g >
 <path fill="currentColor"
d=" M 63.88 240.22 C 65.41 237.37 66.82 227.55 67.94 212.00 C 69.73 187.02 72.11 123.90 71.43 119.09 C 70.65 113.53 68.70 110.22 65.50 109.00 C 62.64 107.91 60.24 104.50 59.47 100.45 C 58.99 97.93 59.79 96.43 64.92 90.20 C 74.16 78.99 82.39 67.24 90.08 54.29 C 98.80 39.62 98.83 38.45 90.67 31.88 C 84.68 27.06 72.31 20.36 71.29 21.38 C 70.97 21.69 71.23 24.51 71.86 27.64 C 73.79 37.27 73.31 45.36 70.37 52.83 C 61.14 76.29 45.97 96.04 17.00 122.30 C 8.12 130.35 7.61 131.02 9.17 132.59 C 10.73 134.16 11.25 134.03 17.24 130.68 C 24.64 126.54 34.11 119.74 42.08 112.83 C 45.15 110.18 48.19 108.00 48.84 108.00 C 50.92 108.00 53.84 114.10 55.08 121.05 C 57.69 135.66 54.75 202.70 51.08 212.32 C 49.10 217.48 49.90 221.47 54.97 231.84 C 59.93 241.98 61.93 243.87 63.88 240.22 Z  M 101.17 226.03 C 109.83 223.99 132.60 220.65 163.50 216.90 C 186.12 214.16 216.90 213.29 230.43 215.01 C 240.31 216.26 240.37 216.26 242.23 213.96 C 245.54 209.88 244.26 206.09 238.13 201.82 C 235.18 199.76 230.83 197.34 228.47 196.44 C 224.29 194.84 224.00 194.86 217.80 197.34 C 210.39 200.31 204.43 201.34 182.50 203.48 C 173.70 204.34 165.04 205.31 163.25 205.63 C 160.00 206.22 160.00 206.22 160.00 187.11 C 160.00 176.60 160.34 167.99 160.75 167.98 C 161.16 167.97 166.90 167.31 173.50 166.51 C 180.10 165.71 190.12 165.05 195.77 165.03 C 205.94 165.00 206.06 164.97 207.05 162.37 C 208.53 158.48 207.46 156.51 201.97 152.98 C 195.96 149.12 190.46 148.19 186.33 150.33 C 183.58 151.75 164.52 157.00 162.10 157.00 C 161.53 157.00 161.24 156.44 161.46 155.75 C 161.67 155.06 162.14 149.25 162.49 142.84 C 163.13 131.19 163.13 131.19 158.56 128.04 C 151.19 122.97 152.67 121.95 173.47 117.80 C 191.03 114.29 191.03 114.29 194.26 120.90 C 196.70 125.86 198.08 127.58 199.83 127.83 C 204.23 128.45 209.02 121.62 208.98 114.78 C 208.92 106.00 201.21 97.85 186.35 90.84 C 173.46 84.76 171.91 85.87 180.03 95.36 C 185.13 101.32 187.47 104.86 186.77 105.56 C 186.56 105.78 179.66 107.05 171.44 108.40 C 163.22 109.74 150.08 112.03 142.24 113.49 C 134.40 114.95 127.20 115.99 126.24 115.81 C 124.96 115.56 126.86 113.22 133.39 106.99 C 143.86 96.99 156.56 82.76 158.69 78.64 C 160.72 74.71 159.57 72.49 152.66 66.96 C 149.60 64.51 147.07 62.22 147.05 61.88 C 146.96 60.71 180.56 55.78 193.50 55.07 C 209.69 54.17 212.00 53.09 212.00 46.42 C 212.00 43.39 205.93 38.80 199.54 37.01 C 195.23 35.80 194.62 35.90 188.02 38.85 C 173.76 45.23 121.60 54.76 107.25 53.61 C 102.66 53.24 100.00 53.40 100.00 54.03 C 100.00 55.68 104.56 62.31 107.64 65.12 C 111.91 69.02 115.66 69.29 126.51 66.47 C 131.74 65.11 136.65 64.00 137.42 64.00 C 139.37 64.00 140.42 72.72 139.08 77.70 C 136.56 87.07 124.82 101.30 110.15 112.79 C 102.19 119.02 101.82 119.48 102.32 122.61 C 102.62 124.41 103.76 127.94 104.87 130.44 C 106.64 134.44 107.27 135.00 109.99 135.00 C 111.70 135.00 114.54 134.24 116.30 133.32 C 118.06 132.40 124.21 130.20 129.97 128.45 C 142.06 124.76 143.05 124.98 145.76 132.00 C 147.05 135.34 147.50 139.47 147.50 148.00 C 147.50 159.50 147.50 159.50 143.00 160.21 C 129.55 162.34 114.85 163.25 109.00 162.31 C 103.95 161.50 102.72 161.57 102.28 162.71 C 101.41 164.98 108.72 174.64 112.75 176.55 C 116.77 178.46 119.70 178.02 139.25 172.58 C 148.00 170.15 148.00 170.15 147.92 182.82 C 147.83 195.68 146.91 206.43 145.79 207.54 C 144.75 208.59 107.05 212.03 96.50 212.04 C 91.00 212.05 84.29 211.64 81.58 211.13 C 77.12 210.28 74.00 210.50 74.00 211.65 C 74.00 213.10 82.97 223.59 85.92 225.59 C 90.20 228.50 90.66 228.51 101.17 226.03 Z "/>
</g>
</svg>