<?xml version="1.0" encoding="UTF-8" standalone="no"?>
<!DOCTYPE svg PUBLIC "-//W3C//DTD SVG 1.1//EN" "http://www.w3.org/Graphics/SVG/1.1/DTD/svg11.dtd" >
<svg xmlns="http://www.w3.org/2000/svg" xmlns:xlink="http://www.w3.org/1999/xlink" version="1.1" viewBox="0 0 256 256">
 <g >
 <path fill="currentColor"
d=" M 83.21 232.25 C 87.83 227.32 92.55 218.88 104.01 195.00 C 116.27 169.49 117.52 165.21 114.06 160.80 C 111.45 157.48 103.26 154.33 91.50 152.12 C 83.41 150.60 82.53 150.22 82.79 148.36 C 83.07 146.37 81.36 144.29 76.12 140.22 C 73.74 138.37 73.74 138.37 81.12 137.07 C 85.18 136.35 92.55 134.74 97.50 133.47 C 102.45 132.21 110.90 130.63 116.28 129.96 C 126.16 128.73 131.00 126.59 131.00 123.45 C 131.00 121.66 127.52 119.39 121.04 116.92 C 116.29 115.12 115.72 115.09 112.85 116.58 C 109.39 118.37 92.96 124.37 88.75 125.38 C 86.00 126.04 86.00 126.04 86.00 116.17 C 86.00 106.31 86.00 106.31 98.25 103.56 C 104.99 102.05 112.24 100.46 114.37 100.02 C 118.61 99.15 120.15 97.57 119.76 94.50 C 119.25 90.55 105.42 85.89 103.49 89.01 C 102.35 90.86 95.53 93.80 90.73 94.52 C 86.00 95.23 86.00 95.23 86.01 87.36 C 86.03 75.32 85.89 75.53 95.33 73.48 C 99.83 72.50 107.71 71.42 112.85 71.09 C 121.05 70.55 122.43 70.18 124.10 68.12 C 127.11 64.41 126.49 62.42 121.58 60.04 C 114.42 56.57 110.88 56.40 105.87 59.30 C 101.71 61.71 92.14 65.00 89.32 65.00 C 87.14 65.00 87.73 55.56 90.66 43.72 C 93.32 32.94 93.32 32.94 90.41 29.88 C 87.76 27.08 75.55 20.21 70.37 18.60 C 67.30 17.65 66.66 20.31 68.99 24.26 C 71.67 28.80 74.19 44.40 74.36 57.44 C 74.50 68.39 74.50 68.39 62.50 71.19 C 55.90 72.73 46.00 74.33 40.50 74.75 C 30.50 75.50 30.50 75.50 35.97 80.75 C 41.84 86.39 42.94 86.74 48.13 84.63 C 51.97 83.08 73.82 78.46 74.38 79.09 C 74.58 79.31 74.46 83.73 74.12 88.91 C 73.50 98.32 73.50 98.32 66.58 100.65 C 61.02 102.53 57.63 102.97 49.24 102.92 C 43.51 102.88 38.59 103.08 38.31 103.36 C 38.03 103.64 39.98 105.91 42.65 108.42 C 47.03 112.52 47.98 112.97 52.38 112.98 C 55.06 112.99 60.80 112.03 65.14 110.84 C 69.47 109.65 73.18 108.87 73.38 109.09 C 73.58 109.32 73.46 113.78 73.12 119.00 C 72.50 128.50 72.50 128.50 62.50 130.87 C 55.06 132.63 48.47 133.36 36.75 133.72 C 28.09 133.99 21.00 134.52 21.00 134.89 C 21.00 136.40 30.67 144.91 33.04 145.49 C 34.44 145.83 41.19 144.93 48.04 143.48 C 54.89 142.03 62.16 140.60 64.19 140.30 C 67.88 139.75 67.88 139.75 66.42 146.01 C 64.24 155.37 59.66 166.13 52.20 179.45 C 46.84 189.01 43.57 193.41 35.82 201.49 C 30.50 207.04 23.64 213.58 20.57 216.03 C 17.51 218.48 15.00 221.06 15.00 221.77 C 15.00 228.17 37.00 215.10 50.83 200.49 C 59.47 191.37 72.72 172.35 76.09 164.25 C 77.29 161.36 78.77 159.00 79.38 159.00 C 79.99 159.00 83.95 160.15 88.17 161.56 C 103.02 166.50 104.16 170.73 95.37 188.27 C 88.84 201.29 84.87 207.38 81.44 209.63 C 78.94 211.27 73.15 211.63 67.92 210.48 C 63.69 209.55 64.08 211.63 70.16 222.38 C 78.04 236.32 78.83 236.92 83.21 232.25 Z  M 233.20 234.15 C 248.39 233.13 248.92 229.93 234.62 225.56 C 225.69 222.84 213.60 216.03 202.24 207.33 C 193.17 200.38 171.30 179.52 170.52 177.07 C 170.20 176.07 171.52 171.33 173.45 166.55 C 178.66 153.64 184.18 130.63 183.80 123.41 C 183.50 117.62 183.44 117.49 179.18 115.15 C 173.81 112.19 172.27 108.76 174.35 104.40 C 175.79 101.36 176.29 101.18 195.66 96.51 C 211.72 92.64 215.93 91.27 217.75 89.31 C 220.25 86.62 220.65 83.76 218.75 82.26 C 218.06 81.71 214.51 80.28 210.85 79.08 C 204.19 76.90 204.19 76.90 198.85 80.31 C 186.59 88.11 161.31 96.97 151.24 96.99 C 147.97 97.00 147.97 97.00 151.51 89.97 C 153.46 86.11 157.55 77.22 160.60 70.22 C 163.65 63.23 168.22 53.35 170.75 48.27 C 174.81 40.13 175.21 38.76 174.13 36.73 C 171.70 32.20 150.19 18.47 148.37 20.30 C 148.05 20.62 148.62 23.04 149.64 25.69 C 152.38 32.77 152.13 51.58 149.15 62.76 C 145.93 74.85 137.81 97.45 133.78 105.50 C 130.02 113.02 129.93 115.02 133.33 114.96 C 135.28 114.93 138.09 112.02 143.32 104.63 C 144.61 102.82 144.74 102.82 148.07 104.60 C 150.55 105.92 153.72 106.44 159.48 106.46 C 167.45 106.50 167.45 106.50 168.30 111.50 C 169.49 118.44 167.46 139.98 164.55 151.28 C 160.47 167.17 161.71 166.98 150.98 153.38 C 145.82 146.85 140.90 140.95 140.05 140.28 C 138.36 138.95 132.08 138.63 127.12 139.62 C 122.56 140.54 123.24 142.95 129.20 146.99 C 138.35 153.21 156.00 171.92 156.00 175.42 C 156.00 177.20 145.46 192.79 139.00 200.58 C 132.46 208.45 121.41 217.60 113.04 222.06 C 106.41 225.59 105.19 228.00 110.02 228.00 C 114.62 228.00 124.07 223.76 132.68 217.83 C 141.53 211.74 157.29 196.37 161.00 190.21 C 162.38 187.92 163.84 186.04 164.26 186.03 C 164.67 186.01 167.15 189.01 169.76 192.70 C 176.43 202.12 195.79 226.65 200.13 231.20 C 203.76 235.00 203.76 235.00 213.63 234.90 C 219.06 234.84 227.87 234.51 233.20 234.15 Z "/>
</g>
</svg>