<?xml version="1.0" encoding="UTF-8" standalone="no"?>
<!DOCTYPE svg PUBLIC "-//W3C//DTD SVG 1.1//EN" "http://www.w3.org/Graphics/SVG/1.1/DTD/svg11.dtd" >
<svg xmlns="http://www.w3.org/2000/svg" xmlns:xlink="http://www.w3.org/1999/xlink" version="1.1" viewBox="0 0 256 256">
 <g >
 <path fill="currentColor"
d=" M 191.65 243.25 C 193.05 241.74 195.39 238.47 196.85 236.00 C 199.50 231.50 199.50 231.50 200.06 187.00 C 200.46 155.14 201.01 140.56 202.00 135.67 C 204.01 125.72 202.33 123.09 188.96 115.19 C 185.42 113.10 185.42 113.10 181.07 115.57 C 176.19 118.35 147.78 125.23 133.50 127.11 C 124.50 128.29 124.50 128.29 118.61 125.15 C 109.53 120.29 108.03 121.22 112.10 129.20 C 118.46 141.66 119.52 189.45 113.94 212.00 C 110.65 225.29 112.18 234.56 118.30 238.42 C 120.87 240.04 123.22 238.04 125.29 232.48 C 126.61 228.94 127.25 223.39 127.70 211.38 C 128.31 195.09 128.31 195.09 135.90 195.65 C 144.06 196.26 169.16 192.99 173.95 190.70 C 177.17 189.16 177.74 185.54 175.45 181.29 C 173.28 177.24 170.65 176.34 167.35 178.50 C 163.09 181.30 154.09 183.99 142.15 186.05 C 135.91 187.12 130.40 188.00 129.90 188.00 C 129.41 188.00 129.00 183.05 129.00 177.00 C 129.00 166.00 129.00 166.00 138.87 166.00 C 155.33 166.00 174.01 161.74 175.59 157.63 C 176.39 155.53 174.52 152.50 170.56 149.48 C 167.15 146.87 167.15 146.87 163.20 149.48 C 157.66 153.15 149.83 155.95 140.50 157.59 C 136.10 158.36 131.94 159.00 131.25 159.00 C 130.33 159.00 130.00 156.37 130.00 149.20 C 130.00 139.40 130.00 139.40 133.25 138.25 C 137.40 136.77 161.56 132.42 174.21 130.88 C 182.00 129.92 184.22 129.94 185.46 130.97 C 186.79 132.07 187.00 136.45 186.97 162.37 C 186.93 215.95 185.04 222.98 171.11 221.33 C 167.83 220.94 166.00 221.10 166.00 221.77 C 166.00 222.34 168.97 226.31 172.60 230.58 C 176.23 234.85 180.34 240.07 181.73 242.18 C 184.83 246.85 187.99 247.19 191.65 243.25 Z  M 52.18 227.00 C 53.10 225.07 55.00 217.20 56.40 209.50 C 59.37 193.19 61.10 187.81 71.22 163.50 C 80.84 140.41 83.61 132.21 82.28 130.88 C 80.68 129.28 76.07 135.63 68.90 149.29 C 60.91 164.54 52.79 176.94 46.36 183.75 C 42.37 187.98 40.77 189.00 38.17 189.00 C 36.39 189.00 34.71 189.60 34.43 190.32 C 34.15 191.05 35.29 195.73 36.96 200.72 C 38.63 205.71 40.00 211.11 40.00 212.72 C 40.00 216.41 42.71 225.77 44.65 228.81 C 46.77 232.13 50.10 231.32 52.18 227.00 Z  M 51.88 129.64 C 55.76 124.97 58.82 108.74 57.05 102.20 C 55.38 95.99 52.20 94.66 37.75 94.18 C 26.35 93.80 26.00 93.85 26.00 95.89 C 26.00 97.05 26.57 98.00 27.27 98.00 C 29.77 98.00 35.80 102.98 38.82 107.54 C 40.51 110.10 42.42 114.73 43.06 117.84 C 45.47 129.49 48.57 133.64 51.88 129.64 Z  M 116.80 112.80 C 117.46 112.14 118.00 110.39 118.00 108.91 C 118.00 106.47 118.43 106.17 122.75 105.56 C 125.36 105.19 135.82 103.60 146.00 102.02 C 156.18 100.44 168.43 98.85 173.24 98.49 C 182.78 97.76 182.88 97.81 189.29 105.86 C 190.59 107.51 191.67 107.93 193.29 107.44 C 199.43 105.58 202.12 100.33 211.45 72.00 C 215.17 60.72 219.57 48.49 221.23 44.81 C 225.11 36.20 224.63 34.36 216.43 26.32 C 209.10 19.13 207.82 18.83 199.87 22.44 C 188.19 27.74 156.90 34.02 123.00 37.85 C 106.50 39.72 106.50 39.72 101.33 36.36 C 91.74 30.13 90.56 30.94 94.40 41.15 C 98.21 51.26 100.82 66.93 102.05 87.10 C 102.67 97.22 103.66 106.52 104.26 107.76 C 106.51 112.43 114.12 115.48 116.80 112.80 Z  M 54.00 63.42 C 59.79 61.43 73.61 54.42 77.55 51.48 C 81.73 48.36 84.67 41.76 83.25 38.66 C 82.35 36.66 81.03 36.18 73.85 35.18 C 68.30 34.41 63.52 33.01 59.59 31.00 C 56.34 29.34 53.45 28.21 53.17 28.50 C 52.88 28.78 53.70 32.34 54.97 36.41 C 57.74 45.22 57.33 49.64 53.30 54.69 C 48.94 60.15 47.06 63.29 47.61 64.18 C 48.29 65.28 48.77 65.22 54.00 63.42 Z  M 114.63 85.36 C 113.41 67.42 112.70 52.00 113.10 52.00 C 113.32 52.00 121.13 50.42 130.45 48.50 C 139.77 46.58 147.78 45.38 148.24 45.84 C 148.70 46.30 149.34 50.50 149.67 55.18 C 150.27 63.69 150.27 63.69 143.89 64.36 C 140.37 64.73 132.87 65.32 127.21 65.67 C 121.56 66.02 116.65 66.76 116.30 67.32 C 115.34 68.87 120.54 72.80 125.27 74.08 C 127.86 74.79 133.48 75.04 139.75 74.73 C 150.00 74.22 150.00 74.22 150.00 82.55 C 150.00 87.13 149.65 91.10 149.22 91.36 C 148.16 92.02 134.36 93.76 123.90 94.56 C 115.31 95.21 115.31 95.21 114.63 85.36 Z  M 184.24 87.49 C 181.39 83.61 180.69 83.17 178.74 84.01 C 176.47 84.97 163.70 88.00 161.90 88.00 C 161.32 88.00 161.04 84.68 161.21 79.81 C 161.50 71.62 161.50 71.62 170.00 70.21 C 174.68 69.43 181.65 67.81 185.50 66.61 C 193.32 64.17 194.36 62.53 191.55 57.10 C 188.76 51.70 187.11 51.57 177.83 55.96 C 173.25 58.13 167.78 60.21 165.68 60.58 C 161.85 61.25 161.85 61.25 162.56 54.10 C 163.16 48.02 163.00 46.66 161.50 45.00 C 159.30 42.56 159.29 42.57 173.00 40.56 C 203.49 36.08 204.41 36.16 203.42 43.37 C 201.13 59.97 194.81 84.59 191.56 89.55 C 189.32 92.96 187.99 92.59 184.24 87.49 Z "/>
</g>
</svg>