<?xml version="1.0" encoding="UTF-8" standalone="no"?>
<!DOCTYPE svg PUBLIC "-//W3C//DTD SVG 1.1//EN" "http://www.w3.org/Graphics/SVG/1.1/DTD/svg11.dtd" >
<svg xmlns="http://www.w3.org/2000/svg" xmlns:xlink="http://www.w3.org/1999/xlink" version="1.1" viewBox="0 0 256 256">
 <g >
 <path fill="currentColor"
d=" M 171.93 242.54 C 175.59 240.64 179.46 236.00 182.70 229.61 C 185.58 223.93 185.58 223.57 182.94 181.00 C 181.74 161.55 182.41 126.74 184.22 114.65 C 185.71 104.65 184.77 102.74 175.98 98.02 C 169.50 94.53 169.50 94.53 177.00 93.75 C 181.12 93.32 189.08 92.30 194.69 91.48 C 200.29 90.67 210.92 90.00 218.32 90.00 C 231.51 90.00 231.80 89.95 233.38 87.54 C 234.27 86.18 235.00 84.39 235.00 83.57 C 235.00 80.66 217.20 69.00 212.76 69.00 C 211.28 69.00 208.38 70.51 205.93 72.56 C 200.25 77.30 197.78 78.49 187.37 81.51 C 173.70 85.47 151.00 88.57 151.00 86.48 C 151.00 86.19 152.51 82.92 154.36 79.23 C 156.21 75.53 159.66 67.55 162.02 61.50 C 164.38 55.45 167.86 47.95 169.75 44.83 C 172.09 40.96 172.98 38.51 172.53 37.11 C 171.35 33.36 155.77 21.43 149.10 19.16 C 143.00 17.08 142.67 17.86 146.50 25.42 C 148.72 29.79 149.00 31.58 148.99 41.42 C 148.98 58.89 144.98 72.67 132.44 98.50 C 128.30 107.01 123.00 115.74 117.10 123.76 C 108.79 135.05 107.02 139.00 110.25 139.00 C 112.07 139.00 122.10 129.82 127.68 123.05 C 130.66 119.45 135.49 112.90 138.42 108.50 C 143.75 100.49 143.75 100.49 151.62 98.73 C 155.96 97.76 159.97 96.97 160.53 96.98 C 161.86 97.00 166.76 109.55 168.30 116.88 C 169.10 120.65 169.49 135.18 169.49 161.00 C 169.50 198.61 169.45 199.61 167.29 204.28 C 164.69 209.91 160.83 212.00 153.03 212.00 C 148.70 212.00 148.00 212.27 148.00 213.97 C 148.00 215.05 150.02 218.20 152.48 220.98 C 154.94 223.75 158.82 229.41 161.09 233.55 C 164.91 240.50 167.43 244.00 168.62 244.00 C 168.88 244.00 170.37 243.34 171.93 242.54 Z  M 84.86 231.42 C 85.91 228.39 86.27 217.29 86.47 182.50 C 86.64 152.56 87.13 135.29 87.94 130.91 C 88.60 127.28 89.00 122.78 88.83 120.91 C 88.54 117.96 87.86 117.18 83.71 115.12 C 81.07 113.82 79.09 112.58 79.29 112.38 C 79.49 112.17 86.07 110.65 93.90 108.99 C 120.03 103.45 126.00 101.21 126.00 96.97 C 126.00 94.80 125.02 94.03 117.09 89.94 C 110.67 86.63 110.67 86.63 106.09 89.15 C 103.56 90.53 98.12 93.52 94.00 95.78 C 86.09 100.13 70.10 104.99 63.70 105.00 C 59.91 105.00 59.91 105.00 68.04 93.01 C 72.51 86.41 78.60 78.85 81.57 76.20 C 84.54 73.55 87.47 69.96 88.07 68.22 C 90.83 60.30 82.64 42.29 73.38 35.92 C 67.37 31.78 65.69 31.99 66.70 36.75 C 67.14 38.81 67.45 45.22 67.39 51.00 C 67.29 60.34 66.93 62.38 64.08 69.50 C 55.76 90.27 39.00 116.89 22.92 134.87 C 15.21 143.49 13.09 146.44 14.13 147.10 C 16.12 148.36 16.27 148.31 21.10 144.83 C 31.83 137.09 42.34 127.40 48.14 119.90 C 54.42 111.79 54.42 111.79 58.85 112.39 C 61.28 112.73 64.14 113.00 65.19 113.00 C 67.77 113.00 71.59 121.46 73.62 131.66 C 74.90 138.08 75.07 143.92 74.56 163.95 C 73.87 191.03 73.05 198.75 69.87 208.46 C 67.71 215.02 67.71 215.02 70.54 221.76 C 73.46 228.70 79.97 236.51 82.22 235.77 C 82.93 235.54 84.11 233.58 84.86 231.42 Z "/>
</g>
</svg>